<svg xmlns="http://www.w3.org/2000/svg" xmlns:rdkit="http://www.rdkit.org/xml" xmlns:xlink="http://www.w3.org/1999/xlink" version="1.1" baseProfile="full" xml:space="preserve" width="4000px" height="500px" viewBox="0 0 4000 500">
<!-- END OF HEADER -->
<rect style="opacity:1.0;fill:#FFFFFF;stroke:none" width="4000" height="500" x="0" y="0"> </rect>
<path class="bond-0" d="M 181.818,164.457 L 316.33,242.118" style="fill:none;fill-rule:evenodd;stroke:#000000;stroke-width:2.0px;stroke-linecap:butt;stroke-linejoin:miter;stroke-opacity:1"/>
<path class="bond-1" d="M 300.798,242.118 L 300.798,310.677" style="fill:none;fill-rule:evenodd;stroke:#000000;stroke-width:2.0px;stroke-linecap:butt;stroke-linejoin:miter;stroke-opacity:1"/>
<path class="bond-1" d="M 300.798,310.677 L 300.798,379.236" style="fill:none;fill-rule:evenodd;stroke:#FF0000;stroke-width:2.0px;stroke-linecap:butt;stroke-linejoin:miter;stroke-opacity:1"/>
<path class="bond-1" d="M 331.863,242.118 L 331.863,310.677" style="fill:none;fill-rule:evenodd;stroke:#000000;stroke-width:2.0px;stroke-linecap:butt;stroke-linejoin:miter;stroke-opacity:1"/>
<path class="bond-1" d="M 331.863,310.677 L 331.863,379.236" style="fill:none;fill-rule:evenodd;stroke:#FF0000;stroke-width:2.0px;stroke-linecap:butt;stroke-linejoin:miter;stroke-opacity:1"/>
<path class="bond-2" d="M 316.33,242.118 L 375.145,208.161" style="fill:none;fill-rule:evenodd;stroke:#000000;stroke-width:2.0px;stroke-linecap:butt;stroke-linejoin:miter;stroke-opacity:1"/>
<path class="bond-2" d="M 375.145,208.161 L 433.96,174.204" style="fill:none;fill-rule:evenodd;stroke:#FF0000;stroke-width:2.0px;stroke-linecap:butt;stroke-linejoin:miter;stroke-opacity:1"/>
<path class="bond-3" d="M 467.726,174.204 L 526.54,208.161" style="fill:none;fill-rule:evenodd;stroke:#FF0000;stroke-width:2.0px;stroke-linecap:butt;stroke-linejoin:miter;stroke-opacity:1"/>
<path class="bond-3" d="M 526.54,208.161 L 585.355,242.118" style="fill:none;fill-rule:evenodd;stroke:#000000;stroke-width:2.0px;stroke-linecap:butt;stroke-linejoin:miter;stroke-opacity:1"/>
<path class="bond-4" d="M 585.355,242.118 L 719.867,164.457" style="fill:none;fill-rule:evenodd;stroke:#000000;stroke-width:2.0px;stroke-linecap:butt;stroke-linejoin:miter;stroke-opacity:1"/>
<path class="bond-5" d="M 569.823,242.118 L 569.823,310.677" style="fill:none;fill-rule:evenodd;stroke:#000000;stroke-width:2.0px;stroke-linecap:butt;stroke-linejoin:miter;stroke-opacity:1"/>
<path class="bond-5" d="M 569.823,310.677 L 569.823,379.236" style="fill:none;fill-rule:evenodd;stroke:#FF0000;stroke-width:2.0px;stroke-linecap:butt;stroke-linejoin:miter;stroke-opacity:1"/>
<path class="bond-5" d="M 600.887,242.118 L 600.887,310.677" style="fill:none;fill-rule:evenodd;stroke:#000000;stroke-width:2.0px;stroke-linecap:butt;stroke-linejoin:miter;stroke-opacity:1"/>
<path class="bond-5" d="M 600.887,310.677 L 600.887,379.236" style="fill:none;fill-rule:evenodd;stroke:#FF0000;stroke-width:2.0px;stroke-linecap:butt;stroke-linejoin:miter;stroke-opacity:1"/>
<path class="bond-6" d="M 1613.71,253.212 L 1543.36,253.212" style="fill:none;fill-rule:evenodd;stroke:#0000FF;stroke-width:2.0px;stroke-linecap:butt;stroke-linejoin:miter;stroke-opacity:1"/>
<path class="bond-6" d="M 1543.36,253.212 L 1473.01,253.212" style="fill:none;fill-rule:evenodd;stroke:#000000;stroke-width:2.0px;stroke-linecap:butt;stroke-linejoin:miter;stroke-opacity:1"/>
<path class="bond-7" d="M 1473.01,253.212 L 1395.35,387.724" style="fill:none;fill-rule:evenodd;stroke:#000000;stroke-width:2.0px;stroke-linecap:butt;stroke-linejoin:miter;stroke-opacity:1"/>
<path class="bond-7" d="M 1434.46,257.857 L 1380.1,352.015" style="fill:none;fill-rule:evenodd;stroke:#000000;stroke-width:2.0px;stroke-linecap:butt;stroke-linejoin:miter;stroke-opacity:1;stroke-dasharray:6,6"/>
<path class="bond-13" d="M 1473.01,253.212 L 1395.35,118.7" style="fill:none;fill-rule:evenodd;stroke:#000000;stroke-width:2.0px;stroke-linecap:butt;stroke-linejoin:miter;stroke-opacity:1"/>
<path class="bond-13" d="M 1434.46,248.567 L 1380.1,154.409" style="fill:none;fill-rule:evenodd;stroke:#000000;stroke-width:2.0px;stroke-linecap:butt;stroke-linejoin:miter;stroke-opacity:1;stroke-dasharray:6,6"/>
<path class="bond-8" d="M 1395.35,387.724 L 1240.03,387.724" style="fill:none;fill-rule:evenodd;stroke:#000000;stroke-width:2.0px;stroke-linecap:butt;stroke-linejoin:miter;stroke-opacity:1"/>
<path class="bond-8" d="M 1372.05,356.66 L 1263.33,356.66" style="fill:none;fill-rule:evenodd;stroke:#000000;stroke-width:2.0px;stroke-linecap:butt;stroke-linejoin:miter;stroke-opacity:1;stroke-dasharray:6,6"/>
<path class="bond-9" d="M 1240.03,387.724 L 1162.37,253.212" style="fill:none;fill-rule:evenodd;stroke:#000000;stroke-width:2.0px;stroke-linecap:butt;stroke-linejoin:miter;stroke-opacity:1"/>
<path class="bond-9" d="M 1255.28,352.015 L 1200.92,257.857" style="fill:none;fill-rule:evenodd;stroke:#000000;stroke-width:2.0px;stroke-linecap:butt;stroke-linejoin:miter;stroke-opacity:1;stroke-dasharray:6,6"/>
<path class="bond-10" d="M 1162.37,253.212 L 1093.15,253.212" style="fill:none;fill-rule:evenodd;stroke:#000000;stroke-width:2.0px;stroke-linecap:butt;stroke-linejoin:miter;stroke-opacity:1"/>
<path class="bond-10" d="M 1093.15,253.212 L 1023.93,253.212" style="fill:none;fill-rule:evenodd;stroke:#FF0000;stroke-width:2.0px;stroke-linecap:butt;stroke-linejoin:miter;stroke-opacity:1"/>
<path class="bond-11" d="M 1162.37,253.212 L 1240.03,118.7" style="fill:none;fill-rule:evenodd;stroke:#000000;stroke-width:2.0px;stroke-linecap:butt;stroke-linejoin:miter;stroke-opacity:1"/>
<path class="bond-11" d="M 1200.92,248.567 L 1255.28,154.409" style="fill:none;fill-rule:evenodd;stroke:#000000;stroke-width:2.0px;stroke-linecap:butt;stroke-linejoin:miter;stroke-opacity:1;stroke-dasharray:6,6"/>
<path class="bond-12" d="M 1240.03,118.7 L 1395.35,118.7" style="fill:none;fill-rule:evenodd;stroke:#000000;stroke-width:2.0px;stroke-linecap:butt;stroke-linejoin:miter;stroke-opacity:1"/>
<path class="bond-12" d="M 1263.33,149.764 L 1372.05,149.764" style="fill:none;fill-rule:evenodd;stroke:#000000;stroke-width:2.0px;stroke-linecap:butt;stroke-linejoin:miter;stroke-opacity:1;stroke-dasharray:6,6"/>
<path class="bond-14" d="M 2396.06,330.873 L 2530.58,253.212" style="fill:none;fill-rule:evenodd;stroke:#000000;stroke-width:2.0px;stroke-linecap:butt;stroke-linejoin:miter;stroke-opacity:1"/>
<path class="bond-15" d="M 2522.81,266.663 L 2581.62,300.62" style="fill:none;fill-rule:evenodd;stroke:#000000;stroke-width:2.0px;stroke-linecap:butt;stroke-linejoin:miter;stroke-opacity:1"/>
<path class="bond-15" d="M 2581.62,300.62 L 2640.44,334.576" style="fill:none;fill-rule:evenodd;stroke:#FF0000;stroke-width:2.0px;stroke-linecap:butt;stroke-linejoin:miter;stroke-opacity:1"/>
<path class="bond-15" d="M 2538.34,239.761 L 2597.16,273.717" style="fill:none;fill-rule:evenodd;stroke:#000000;stroke-width:2.0px;stroke-linecap:butt;stroke-linejoin:miter;stroke-opacity:1"/>
<path class="bond-15" d="M 2597.16,273.717 L 2655.97,307.674" style="fill:none;fill-rule:evenodd;stroke:#FF0000;stroke-width:2.0px;stroke-linecap:butt;stroke-linejoin:miter;stroke-opacity:1"/>
<path class="bond-16" d="M 2530.58,253.212 L 2530.58,184.873" style="fill:none;fill-rule:evenodd;stroke:#000000;stroke-width:2.0px;stroke-linecap:butt;stroke-linejoin:miter;stroke-opacity:1"/>
<path class="bond-16" d="M 2530.58,184.873 L 2530.58,116.534" style="fill:none;fill-rule:evenodd;stroke:#FF0000;stroke-width:2.0px;stroke-linecap:butt;stroke-linejoin:miter;stroke-opacity:1"/>
<path class="bond-17" d="M 2912.57,281.994 L 3062.6,241.794" style="fill:none;fill-rule:evenodd;stroke:#000000;stroke-width:2.0px;stroke-linecap:butt;stroke-linejoin:miter;stroke-opacity:1"/>
<path class="bond-18" d="M 3077.6,245.814 L 3095.2,180.121" style="fill:none;fill-rule:evenodd;stroke:#000000;stroke-width:2.0px;stroke-linecap:butt;stroke-linejoin:miter;stroke-opacity:1"/>
<path class="bond-18" d="M 3095.2,180.121 L 3112.8,114.428" style="fill:none;fill-rule:evenodd;stroke:#FF0000;stroke-width:2.0px;stroke-linecap:butt;stroke-linejoin:miter;stroke-opacity:1"/>
<path class="bond-18" d="M 3047.59,237.774 L 3065.2,172.081" style="fill:none;fill-rule:evenodd;stroke:#000000;stroke-width:2.0px;stroke-linecap:butt;stroke-linejoin:miter;stroke-opacity:1"/>
<path class="bond-18" d="M 3065.2,172.081 L 3082.8,106.388" style="fill:none;fill-rule:evenodd;stroke:#FF0000;stroke-width:2.0px;stroke-linecap:butt;stroke-linejoin:miter;stroke-opacity:1"/>
<path class="bond-19" d="M 3062.6,241.794 L 3109.07,288.267" style="fill:none;fill-rule:evenodd;stroke:#000000;stroke-width:2.0px;stroke-linecap:butt;stroke-linejoin:miter;stroke-opacity:1"/>
<path class="bond-19" d="M 3109.07,288.267 L 3155.54,334.74" style="fill:none;fill-rule:evenodd;stroke:#FF0000;stroke-width:2.0px;stroke-linecap:butt;stroke-linejoin:miter;stroke-opacity:1"/>
<path class="bond-20" d="M 3189.31,347.099 L 3255.88,329.261" style="fill:none;fill-rule:evenodd;stroke:#FF0000;stroke-width:2.0px;stroke-linecap:butt;stroke-linejoin:miter;stroke-opacity:1"/>
<path class="bond-20" d="M 3255.88,329.261 L 3322.45,311.422" style="fill:none;fill-rule:evenodd;stroke:#000000;stroke-width:2.0px;stroke-linecap:butt;stroke-linejoin:miter;stroke-opacity:1"/>
<path class="bond-21" d="M 3322.45,311.422 L 3362.65,161.394" style="fill:none;fill-rule:evenodd;stroke:#000000;stroke-width:2.0px;stroke-linecap:butt;stroke-linejoin:miter;stroke-opacity:1"/>
<path class="bond-21" d="M 3358.49,296.958 L 3386.63,191.938" style="fill:none;fill-rule:evenodd;stroke:#000000;stroke-width:2.0px;stroke-linecap:butt;stroke-linejoin:miter;stroke-opacity:1;stroke-dasharray:6,6"/>
<path class="bond-27" d="M 3322.45,311.422 L 3432.28,421.251" style="fill:none;fill-rule:evenodd;stroke:#000000;stroke-width:2.0px;stroke-linecap:butt;stroke-linejoin:miter;stroke-opacity:1"/>
<path class="bond-27" d="M 3360.89,305.931 L 3437.77,382.811" style="fill:none;fill-rule:evenodd;stroke:#000000;stroke-width:2.0px;stroke-linecap:butt;stroke-linejoin:miter;stroke-opacity:1;stroke-dasharray:6,6"/>
<path class="bond-22" d="M 3362.65,161.394 L 3512.68,121.193" style="fill:none;fill-rule:evenodd;stroke:#000000;stroke-width:2.0px;stroke-linecap:butt;stroke-linejoin:miter;stroke-opacity:1"/>
<path class="bond-22" d="M 3393.2,185.369 L 3498.22,157.229" style="fill:none;fill-rule:evenodd;stroke:#000000;stroke-width:2.0px;stroke-linecap:butt;stroke-linejoin:miter;stroke-opacity:1;stroke-dasharray:6,6"/>
<path class="bond-23" d="M 3512.68,121.193 L 3622.51,231.022" style="fill:none;fill-rule:evenodd;stroke:#000000;stroke-width:2.0px;stroke-linecap:butt;stroke-linejoin:miter;stroke-opacity:1"/>
<path class="bond-23" d="M 3507.19,159.633 L 3584.07,236.514" style="fill:none;fill-rule:evenodd;stroke:#000000;stroke-width:2.0px;stroke-linecap:butt;stroke-linejoin:miter;stroke-opacity:1;stroke-dasharray:6,6"/>
<path class="bond-24" d="M 3622.51,231.022 L 3690.21,212.881" style="fill:none;fill-rule:evenodd;stroke:#000000;stroke-width:2.0px;stroke-linecap:butt;stroke-linejoin:miter;stroke-opacity:1"/>
<path class="bond-24" d="M 3690.21,212.881 L 3757.92,194.74" style="fill:none;fill-rule:evenodd;stroke:#0000FF;stroke-width:2.0px;stroke-linecap:butt;stroke-linejoin:miter;stroke-opacity:1"/>
<path class="bond-25" d="M 3622.51,231.022 L 3582.31,381.051" style="fill:none;fill-rule:evenodd;stroke:#000000;stroke-width:2.0px;stroke-linecap:butt;stroke-linejoin:miter;stroke-opacity:1"/>
<path class="bond-25" d="M 3586.48,245.487 L 3558.34,350.507" style="fill:none;fill-rule:evenodd;stroke:#000000;stroke-width:2.0px;stroke-linecap:butt;stroke-linejoin:miter;stroke-opacity:1;stroke-dasharray:6,6"/>
<path class="bond-26" d="M 3582.31,381.051 L 3432.28,421.251" style="fill:none;fill-rule:evenodd;stroke:#000000;stroke-width:2.0px;stroke-linecap:butt;stroke-linejoin:miter;stroke-opacity:1"/>
<path class="bond-26" d="M 3551.77,357.075 L 3446.75,385.215" style="fill:none;fill-rule:evenodd;stroke:#000000;stroke-width:2.0px;stroke-linecap:butt;stroke-linejoin:miter;stroke-opacity:1;stroke-dasharray:6,6"/>
<path class="atom-2" d="M 303.33 397.519 Q 303.33 390.719, 306.69 386.919 Q 310.05 383.119, 316.33 383.119 Q 322.61 383.119, 325.97 386.919 Q 329.33 390.719, 329.33 397.519 Q 329.33 404.399, 325.93 408.319 Q 322.53 412.199, 316.33 412.199 Q 310.09 412.199, 306.69 408.319 Q 303.33 404.439, 303.33 397.519 M 316.33 408.999 Q 320.65 408.999, 322.97 406.119 Q 325.33 403.199, 325.33 397.519 Q 325.33 391.959, 322.97 389.159 Q 320.65 386.319, 316.33 386.319 Q 312.01 386.319, 309.65 389.119 Q 307.33 391.919, 307.33 397.519 Q 307.33 403.239, 309.65 406.119 Q 312.01 408.999, 316.33 408.999 " fill="#FF0000"/>
<path class="atom-3" d="M 437.843 164.537 Q 437.843 157.737, 441.203 153.937 Q 444.563 150.137, 450.843 150.137 Q 457.123 150.137, 460.483 153.937 Q 463.843 157.737, 463.843 164.537 Q 463.843 171.417, 460.443 175.337 Q 457.043 179.217, 450.843 179.217 Q 444.603 179.217, 441.203 175.337 Q 437.843 171.457, 437.843 164.537 M 450.843 176.017 Q 455.163 176.017, 457.483 173.137 Q 459.843 170.217, 459.843 164.537 Q 459.843 158.977, 457.483 156.177 Q 455.163 153.337, 450.843 153.337 Q 446.523 153.337, 444.163 156.137 Q 441.843 158.937, 441.843 164.537 Q 441.843 170.257, 444.163 173.137 Q 446.523 176.017, 450.843 176.017 " fill="#FF0000"/>
<path class="atom-6" d="M 572.355 397.519 Q 572.355 390.719, 575.715 386.919 Q 579.075 383.119, 585.355 383.119 Q 591.635 383.119, 594.995 386.919 Q 598.355 390.719, 598.355 397.519 Q 598.355 404.399, 594.955 408.319 Q 591.555 412.199, 585.355 412.199 Q 579.115 412.199, 575.715 408.319 Q 572.355 404.439, 572.355 397.519 M 585.355 408.999 Q 589.675 408.999, 591.995 406.119 Q 594.355 403.199, 594.355 397.519 Q 594.355 391.959, 591.995 389.159 Q 589.675 386.319, 585.355 386.319 Q 581.035 386.319, 578.675 389.119 Q 576.355 391.919, 576.355 397.519 Q 576.355 403.239, 578.675 406.119 Q 581.035 408.999, 585.355 408.999 " fill="#FF0000"/>
<path class="atom-7" d="M 1622.07 239.052 L 1631.35 254.052 Q 1632.27 255.532, 1633.75 258.212 Q 1635.23 260.892, 1635.31 261.052 L 1635.31 239.052 L 1639.07 239.052 L 1639.07 267.372 L 1635.19 267.372 L 1625.23 250.972 Q 1624.07 249.052, 1622.83 246.852 Q 1621.63 244.652, 1621.27 243.972 L 1621.27 267.372 L 1617.59 267.372 L 1617.59 239.052 L 1622.07 239.052 " fill="#0000FF"/>
<path class="atom-7" d="M 1642.47 239.052 L 1646.31 239.052 L 1646.31 251.092 L 1660.79 251.092 L 1660.79 239.052 L 1664.63 239.052 L 1664.63 267.372 L 1660.79 267.372 L 1660.79 254.292 L 1646.31 254.292 L 1646.31 267.372 L 1642.47 267.372 L 1642.47 239.052 " fill="#0000FF"/>
<path class="atom-7" d="M 1666 266.378 Q 1666.69 264.61, 1668.33 263.633 Q 1669.96 262.63, 1672.24 262.63 Q 1675.06 262.63, 1676.64 264.161 Q 1678.23 265.692, 1678.23 268.411 Q 1678.23 271.183, 1676.17 273.77 Q 1674.14 276.358, 1669.91 279.42 L 1678.54 279.42 L 1678.54 281.532 L 1665.95 281.532 L 1665.95 279.763 Q 1669.44 277.282, 1671.5 275.434 Q 1673.58 273.586, 1674.58 271.922 Q 1675.59 270.259, 1675.59 268.543 Q 1675.59 266.748, 1674.69 265.745 Q 1673.79 264.742, 1672.24 264.742 Q 1670.73 264.742, 1669.73 265.349 Q 1668.72 265.956, 1668.01 267.302 L 1666 266.378 " fill="#0000FF"/>
<path class="atom-12" d="M 969.886 239.212 L 973.726 239.212 L 973.726 251.252 L 988.206 251.252 L 988.206 239.212 L 992.046 239.212 L 992.046 267.532 L 988.206 267.532 L 988.206 254.452 L 973.726 254.452 L 973.726 267.532 L 969.886 267.532 L 969.886 239.212 " fill="#FF0000"/>
<path class="atom-12" d="M 994.046 253.292 Q 994.046 246.492, 997.406 242.692 Q 1000.77 238.892, 1007.05 238.892 Q 1013.33 238.892, 1016.69 242.692 Q 1020.05 246.492, 1020.05 253.292 Q 1020.05 260.172, 1016.65 264.092 Q 1013.25 267.972, 1007.05 267.972 Q 1000.81 267.972, 997.406 264.092 Q 994.046 260.212, 994.046 253.292 M 1007.05 264.772 Q 1011.37 264.772, 1013.69 261.892 Q 1016.05 258.972, 1016.05 253.292 Q 1016.05 247.732, 1013.69 244.932 Q 1011.37 242.092, 1007.05 242.092 Q 1002.73 242.092, 1000.37 244.892 Q 998.046 247.692, 998.046 253.292 Q 998.046 259.012, 1000.37 261.892 Q 1002.73 264.772, 1007.05 264.772 " fill="#FF0000"/>
<path class="atom-17" d="M 2652.09 330.953 Q 2652.09 324.153, 2655.45 320.353 Q 2658.81 316.553, 2665.09 316.553 Q 2671.37 316.553, 2674.73 320.353 Q 2678.09 324.153, 2678.09 330.953 Q 2678.09 337.833, 2674.69 341.753 Q 2671.29 345.633, 2665.09 345.633 Q 2658.85 345.633, 2655.45 341.753 Q 2652.09 337.873, 2652.09 330.953 M 2665.09 342.433 Q 2669.41 342.433, 2671.73 339.553 Q 2674.09 336.633, 2674.09 330.953 Q 2674.09 325.393, 2671.73 322.593 Q 2669.41 319.753, 2665.09 319.753 Q 2660.77 319.753, 2658.41 322.553 Q 2656.09 325.353, 2656.09 330.953 Q 2656.09 336.673, 2658.41 339.553 Q 2660.77 342.433, 2665.09 342.433 " fill="#FF0000"/>
<path class="atom-18" d="M 2517.58 97.9705 Q 2517.58 91.1705, 2520.94 87.3705 Q 2524.3 83.5705, 2530.58 83.5705 Q 2536.86 83.5705, 2540.22 87.3705 Q 2543.58 91.1705, 2543.58 97.9705 Q 2543.58 104.851, 2540.18 108.771 Q 2536.78 112.651, 2530.58 112.651 Q 2524.34 112.651, 2520.94 108.771 Q 2517.58 104.891, 2517.58 97.9705 M 2530.58 109.451 Q 2534.9 109.451, 2537.22 106.571 Q 2539.58 103.651, 2539.58 97.9705 Q 2539.58 92.4105, 2537.22 89.6105 Q 2534.9 86.7705, 2530.58 86.7705 Q 2526.26 86.7705, 2523.9 89.5705 Q 2521.58 92.3705, 2521.58 97.9705 Q 2521.58 103.691, 2523.9 106.571 Q 2526.26 109.451, 2530.58 109.451 " fill="#FF0000"/>
<path class="atom-18" d="M 2546.98 83.8905 L 2550.82 83.8905 L 2550.82 95.9305 L 2565.3 95.9305 L 2565.3 83.8905 L 2569.14 83.8905 L 2569.14 112.211 L 2565.3 112.211 L 2565.3 99.1305 L 2550.82 99.1305 L 2550.82 112.211 L 2546.98 112.211 L 2546.98 83.8905 " fill="#FF0000"/>
<path class="atom-21" d="M 3089.8 91.8449 Q 3089.8 85.0449, 3093.16 81.2449 Q 3096.52 77.4449, 3102.8 77.4449 Q 3109.08 77.4449, 3112.44 81.2449 Q 3115.8 85.0449, 3115.8 91.8449 Q 3115.8 98.7249, 3112.4 102.645 Q 3109 106.525, 3102.8 106.525 Q 3096.56 106.525, 3093.16 102.645 Q 3089.8 98.7649, 3089.8 91.8449 M 3102.8 103.325 Q 3107.12 103.325, 3109.44 100.445 Q 3111.8 97.5249, 3111.8 91.8449 Q 3111.8 86.2849, 3109.44 83.4849 Q 3107.12 80.6449, 3102.8 80.6449 Q 3098.48 80.6449, 3096.12 83.4449 Q 3093.8 86.2449, 3093.8 91.8449 Q 3093.8 97.5649, 3096.12 100.445 Q 3098.48 103.325, 3102.8 103.325 " fill="#FF0000"/>
<path class="atom-22" d="M 3159.43 351.703 Q 3159.43 344.903, 3162.79 341.103 Q 3166.15 337.303, 3172.43 337.303 Q 3178.71 337.303, 3182.07 341.103 Q 3185.43 344.903, 3185.43 351.703 Q 3185.43 358.583, 3182.03 362.503 Q 3178.63 366.383, 3172.43 366.383 Q 3166.19 366.383, 3162.79 362.503 Q 3159.43 358.623, 3159.43 351.703 M 3172.43 363.183 Q 3176.75 363.183, 3179.07 360.303 Q 3181.43 357.383, 3181.43 351.703 Q 3181.43 346.143, 3179.07 343.343 Q 3176.75 340.503, 3172.43 340.503 Q 3168.11 340.503, 3165.75 343.303 Q 3163.43 346.103, 3163.43 351.703 Q 3163.43 357.423, 3165.75 360.303 Q 3168.11 363.183, 3172.43 363.183 " fill="#FF0000"/>
<path class="atom-27" d="M 3766.28 176.662 L 3775.56 191.662 Q 3776.48 193.142, 3777.96 195.822 Q 3779.44 198.502, 3779.52 198.662 L 3779.52 176.662 L 3783.28 176.662 L 3783.28 204.982 L 3779.4 204.982 L 3769.44 188.582 Q 3768.28 186.662, 3767.04 184.462 Q 3765.84 182.262, 3765.48 181.582 L 3765.48 204.982 L 3761.8 204.982 L 3761.8 176.662 L 3766.28 176.662 " fill="#0000FF"/>
<path class="atom-27" d="M 3786.68 176.662 L 3790.52 176.662 L 3790.52 188.702 L 3805 188.702 L 3805 176.662 L 3808.84 176.662 L 3808.84 204.982 L 3805 204.982 L 3805 191.902 L 3790.52 191.902 L 3790.52 204.982 L 3786.68 204.982 L 3786.68 176.662 " fill="#0000FF"/>
<path class="atom-27" d="M 3810.21 203.988 Q 3810.9 202.22, 3812.54 201.243 Q 3814.17 200.24, 3816.44 200.24 Q 3819.27 200.24, 3820.85 201.771 Q 3822.44 203.302, 3822.44 206.021 Q 3822.44 208.793, 3820.38 211.38 Q 3818.34 213.968, 3814.12 217.03 L 3822.75 217.03 L 3822.75 219.142 L 3810.16 219.142 L 3810.16 217.373 Q 3813.65 214.892, 3815.7 213.044 Q 3817.79 211.196, 3818.79 209.532 Q 3819.8 207.869, 3819.8 206.153 Q 3819.8 204.358, 3818.9 203.355 Q 3818 202.352, 3816.44 202.352 Q 3814.94 202.352, 3813.94 202.959 Q 3812.93 203.566, 3812.22 204.912 L 3810.21 203.988 " fill="#0000FF"/>
<path d="M 815.943 242.912 L 821.991 242.912 L 821.991 236.544 L 824.679 236.544 L 824.679 242.912 L 830.887 242.912 L 830.887 245.216 L 824.679 245.216 L 824.679 251.616 L 821.991 251.616 L 821.991 245.216 L 815.943 245.216 L 815.943 242.912 " fill="#000000"/>
<path d="M 2801.55 242.912 L 2807.6 242.912 L 2807.6 236.544 L 2810.28 236.544 L 2810.28 242.912 L 2816.49 242.912 L 2816.49 245.216 L 2810.28 245.216 L 2810.28 251.616 L 2807.6 251.616 L 2807.6 245.216 L 2801.55 245.216 L 2801.55 242.912 " fill="#000000"/>
<path d="M 1826.55,245.216 L 2240.74,245.216" style="fill:none;fill-rule:evenodd;stroke:#000000;stroke-width:2.0px;stroke-linecap:butt;stroke-linejoin:miter;stroke-opacity:1"/>
<path d="M 2240.74,245.216 L 2222.81,234.861" style="fill:none;fill-rule:evenodd;stroke:#000000;stroke-width:2.0px;stroke-linecap:butt;stroke-linejoin:miter;stroke-opacity:1"/>
<path d="M 2240.74,245.216 L 2222.81,255.571" style="fill:none;fill-rule:evenodd;stroke:#000000;stroke-width:2.0px;stroke-linecap:butt;stroke-linejoin:miter;stroke-opacity:1"/>
</svg>