<svg xmlns="http://www.w3.org/2000/svg" xmlns:rdkit="http://www.rdkit.org/xml" xmlns:xlink="http://www.w3.org/1999/xlink" version="1.1" baseProfile="full" xml:space="preserve" width="4000px" height="500px" viewBox="0 0 4000 500">
<!-- END OF HEADER -->
<rect style="opacity:1.0;fill:#FFFFFF;stroke:none" width="4000" height="500" x="0" y="0"> </rect>
<path d="M 212.362,162.732 L 344.62,239.092" style="fill:none;fill-rule:evenodd;stroke:#FFFFAA;stroke-width:32.6px;stroke-linecap:butt;stroke-linejoin:miter;stroke-opacity:1"/>
<path d="M 344.62,239.092 L 344.62,391.81" style="fill:none;fill-rule:evenodd;stroke:#FFFFAA;stroke-width:32.6px;stroke-linecap:butt;stroke-linejoin:miter;stroke-opacity:1"/>
<path d="M 344.62,239.092 L 476.878,162.732" style="fill:none;fill-rule:evenodd;stroke:#FFFFAA;stroke-width:32.6px;stroke-linecap:butt;stroke-linejoin:miter;stroke-opacity:1"/>
<path d="M 476.878,162.732 L 609.136,239.092" style="fill:none;fill-rule:evenodd;stroke:#FFFFAA;stroke-width:32.6px;stroke-linecap:butt;stroke-linejoin:miter;stroke-opacity:1"/>
<path d="M 609.136,239.092 L 741.393,162.732" style="fill:none;fill-rule:evenodd;stroke:#FFFFAA;stroke-width:32.6px;stroke-linecap:butt;stroke-linejoin:miter;stroke-opacity:1"/>
<path d="M 609.136,239.092 L 609.136,391.81" style="fill:none;fill-rule:evenodd;stroke:#FFFFAA;stroke-width:32.6px;stroke-linecap:butt;stroke-linejoin:miter;stroke-opacity:1"/>
<path d="M 1388.46,402.718 L 1388.46,250" style="fill:none;fill-rule:evenodd;stroke:#FFCC99;stroke-width:32.6px;stroke-linecap:butt;stroke-linejoin:miter;stroke-opacity:1"/>
<path d="M 1388.46,250 L 1256.2,173.641" style="fill:none;fill-rule:evenodd;stroke:#FFCC99;stroke-width:32.6px;stroke-linecap:butt;stroke-linejoin:miter;stroke-opacity:1"/>
<path d="M 1388.46,250 L 1520.72,173.641" style="fill:none;fill-rule:evenodd;stroke:#FFCC99;stroke-width:32.6px;stroke-linecap:butt;stroke-linejoin:miter;stroke-opacity:1"/>
<path d="M 1256.2,173.641 L 1123.94,250" style="fill:none;fill-rule:evenodd;stroke:#FFCC99;stroke-width:32.6px;stroke-linecap:butt;stroke-linejoin:miter;stroke-opacity:1"/>
<path d="M 1520.72,173.641 L 1652.97,250" style="fill:none;fill-rule:evenodd;stroke:#FFCC99;stroke-width:32.6px;stroke-linecap:butt;stroke-linejoin:miter;stroke-opacity:1"/>
<path d="M 2495.76,326.359 L 2628.01,250" style="fill:none;fill-rule:evenodd;stroke:#FFFFAA;stroke-width:32.6px;stroke-linecap:butt;stroke-linejoin:miter;stroke-opacity:1"/>
<path d="M 2628.01,250 L 2760.27,326.359" style="fill:none;fill-rule:evenodd;stroke:#FFFFAA;stroke-width:32.6px;stroke-linecap:butt;stroke-linejoin:miter;stroke-opacity:1"/>
<path d="M 2628.01,250 L 2628.01,97.2817" style="fill:none;fill-rule:evenodd;stroke:#FFFFAA;stroke-width:32.6px;stroke-linecap:butt;stroke-linejoin:miter;stroke-opacity:1"/>
<path d="M 3122.05,185.12 L 3263.2,243.419" style="fill:none;fill-rule:evenodd;stroke:#FFFFAA;stroke-width:32.6px;stroke-linecap:butt;stroke-linejoin:miter;stroke-opacity:1"/>
<path d="M 3263.2,243.419 L 3283.29,394.811" style="fill:none;fill-rule:evenodd;stroke:#FFFFAA;stroke-width:32.6px;stroke-linecap:butt;stroke-linejoin:miter;stroke-opacity:1"/>
<path d="M 3384.27,150.327 L 3525.42,208.626" style="fill:none;fill-rule:evenodd;stroke:#FFCC99;stroke-width:32.6px;stroke-linecap:butt;stroke-linejoin:miter;stroke-opacity:1"/>
<path d="M 3525.42,208.626 L 3646.49,115.533" style="fill:none;fill-rule:evenodd;stroke:#FFCC99;stroke-width:32.6px;stroke-linecap:butt;stroke-linejoin:miter;stroke-opacity:1"/>
<path d="M 3525.42,208.626 L 3545.51,360.017" style="fill:none;fill-rule:evenodd;stroke:#FFCC99;stroke-width:32.6px;stroke-linecap:butt;stroke-linejoin:miter;stroke-opacity:1"/>
<path d="M 3646.49,115.533 L 3787.64,173.832" style="fill:none;fill-rule:evenodd;stroke:#FFCC99;stroke-width:32.6px;stroke-linecap:butt;stroke-linejoin:miter;stroke-opacity:1"/>
<path d="M 3545.51,360.017 L 3686.66,418.316" style="fill:none;fill-rule:evenodd;stroke:#FFCC99;stroke-width:32.6px;stroke-linecap:butt;stroke-linejoin:miter;stroke-opacity:1"/>
<ellipse cx="212.362" cy="162.732" rx="30.5437" ry="30.5437" style="fill:#FFFFAA;fill-rule:evenodd;stroke:#FFFFAA;stroke-width:1px;stroke-linecap:butt;stroke-linejoin:miter;stroke-opacity:1"/>
<ellipse cx="344.62" cy="239.092" rx="30.5437" ry="30.5437" style="fill:#FFFFAA;fill-rule:evenodd;stroke:#FFFFAA;stroke-width:1px;stroke-linecap:butt;stroke-linejoin:miter;stroke-opacity:1"/>
<ellipse cx="344.62" cy="392.03" rx="30.5437" ry="30.5437" style="fill:#FFFFAA;fill-rule:evenodd;stroke:#FFFFAA;stroke-width:1px;stroke-linecap:butt;stroke-linejoin:miter;stroke-opacity:1"/>
<ellipse cx="476.878" cy="162.952" rx="30.5437" ry="30.5437" style="fill:#FFFFAA;fill-rule:evenodd;stroke:#FFFFAA;stroke-width:1px;stroke-linecap:butt;stroke-linejoin:miter;stroke-opacity:1"/>
<ellipse cx="609.136" cy="239.092" rx="30.5437" ry="30.5437" style="fill:#FFFFAA;fill-rule:evenodd;stroke:#FFFFAA;stroke-width:1px;stroke-linecap:butt;stroke-linejoin:miter;stroke-opacity:1"/>
<ellipse cx="741.393" cy="162.732" rx="30.5437" ry="30.5437" style="fill:#FFFFAA;fill-rule:evenodd;stroke:#FFFFAA;stroke-width:1px;stroke-linecap:butt;stroke-linejoin:miter;stroke-opacity:1"/>
<ellipse cx="609.136" cy="392.03" rx="30.5437" ry="30.5437" style="fill:#FFFFAA;fill-rule:evenodd;stroke:#FFFFAA;stroke-width:1px;stroke-linecap:butt;stroke-linejoin:miter;stroke-opacity:1"/>
<ellipse cx="1401.24" cy="402.938" rx="36.4584" ry="30.5437" style="fill:#FFCC99;fill-rule:evenodd;stroke:#FFCC99;stroke-width:1px;stroke-linecap:butt;stroke-linejoin:miter;stroke-opacity:1"/>
<ellipse cx="1388.46" cy="250" rx="30.5437" ry="30.5437" style="fill:#FFCC99;fill-rule:evenodd;stroke:#FFCC99;stroke-width:1px;stroke-linecap:butt;stroke-linejoin:miter;stroke-opacity:1"/>
<ellipse cx="1256.2" cy="173.641" rx="30.5437" ry="30.5437" style="fill:#FFCC99;fill-rule:evenodd;stroke:#FFCC99;stroke-width:1px;stroke-linecap:butt;stroke-linejoin:miter;stroke-opacity:1"/>
<ellipse cx="1123.94" cy="250" rx="30.5437" ry="30.5437" style="fill:#FFCC99;fill-rule:evenodd;stroke:#FFCC99;stroke-width:1px;stroke-linecap:butt;stroke-linejoin:miter;stroke-opacity:1"/>
<ellipse cx="1520.72" cy="173.641" rx="30.5437" ry="30.5437" style="fill:#FFCC99;fill-rule:evenodd;stroke:#FFCC99;stroke-width:1px;stroke-linecap:butt;stroke-linejoin:miter;stroke-opacity:1"/>
<ellipse cx="1652.97" cy="250" rx="30.5437" ry="30.5437" style="fill:#FFCC99;fill-rule:evenodd;stroke:#FFCC99;stroke-width:1px;stroke-linecap:butt;stroke-linejoin:miter;stroke-opacity:1"/>
<ellipse cx="2495.76" cy="326.359" rx="30.5437" ry="30.5437" style="fill:#FFFFAA;fill-rule:evenodd;stroke:#FFFFAA;stroke-width:1px;stroke-linecap:butt;stroke-linejoin:miter;stroke-opacity:1"/>
<ellipse cx="2628.01" cy="250" rx="30.5437" ry="30.5437" style="fill:#FFFFAA;fill-rule:evenodd;stroke:#FFFFAA;stroke-width:1px;stroke-linecap:butt;stroke-linejoin:miter;stroke-opacity:1"/>
<ellipse cx="2760.27" cy="326.579" rx="30.5437" ry="30.5437" style="fill:#FFFFAA;fill-rule:evenodd;stroke:#FFFFAA;stroke-width:1px;stroke-linecap:butt;stroke-linejoin:miter;stroke-opacity:1"/>
<ellipse cx="2640.79" cy="97.5017" rx="36.4584" ry="30.5437" style="fill:#FFFFAA;fill-rule:evenodd;stroke:#FFFFAA;stroke-width:1px;stroke-linecap:butt;stroke-linejoin:miter;stroke-opacity:1"/>
<ellipse cx="3122.05" cy="185.12" rx="30.5437" ry="30.5437" style="fill:#FFFFAA;fill-rule:evenodd;stroke:#FFFFAA;stroke-width:1px;stroke-linecap:butt;stroke-linejoin:miter;stroke-opacity:1"/>
<ellipse cx="3263.2" cy="243.419" rx="30.5437" ry="30.5437" style="fill:#FFFFAA;fill-rule:evenodd;stroke:#FFFFAA;stroke-width:1px;stroke-linecap:butt;stroke-linejoin:miter;stroke-opacity:1"/>
<ellipse cx="3283.29" cy="395.031" rx="30.5437" ry="30.5437" style="fill:#FFFFAA;fill-rule:evenodd;stroke:#FFFFAA;stroke-width:1px;stroke-linecap:butt;stroke-linejoin:miter;stroke-opacity:1"/>
<ellipse cx="3384.27" cy="150.547" rx="30.5437" ry="30.5437" style="fill:#FFCC99;fill-rule:evenodd;stroke:#FFCC99;stroke-width:1px;stroke-linecap:butt;stroke-linejoin:miter;stroke-opacity:1"/>
<ellipse cx="3525.42" cy="208.626" rx="30.5437" ry="30.5437" style="fill:#FFCC99;fill-rule:evenodd;stroke:#FFCC99;stroke-width:1px;stroke-linecap:butt;stroke-linejoin:miter;stroke-opacity:1"/>
<ellipse cx="3646.49" cy="115.533" rx="30.5437" ry="30.5437" style="fill:#FFCC99;fill-rule:evenodd;stroke:#FFCC99;stroke-width:1px;stroke-linecap:butt;stroke-linejoin:miter;stroke-opacity:1"/>
<ellipse cx="3787.64" cy="173.832" rx="30.5437" ry="30.5437" style="fill:#FFCC99;fill-rule:evenodd;stroke:#FFCC99;stroke-width:1px;stroke-linecap:butt;stroke-linejoin:miter;stroke-opacity:1"/>
<ellipse cx="3545.51" cy="360.017" rx="30.5437" ry="30.5437" style="fill:#FFCC99;fill-rule:evenodd;stroke:#FFCC99;stroke-width:1px;stroke-linecap:butt;stroke-linejoin:miter;stroke-opacity:1"/>
<ellipse cx="3686.66" cy="418.316" rx="30.5437" ry="30.5437" style="fill:#FFCC99;fill-rule:evenodd;stroke:#FFCC99;stroke-width:1px;stroke-linecap:butt;stroke-linejoin:miter;stroke-opacity:1"/>
<path class="bond-0" d="M 212.362,162.732 L 344.62,239.092" style="fill:none;fill-rule:evenodd;stroke:#000000;stroke-width:2.0px;stroke-linecap:butt;stroke-linejoin:miter;stroke-opacity:1"/>
<path class="bond-1" d="M 329.348,239.092 L 329.348,306.382" style="fill:none;fill-rule:evenodd;stroke:#000000;stroke-width:2.0px;stroke-linecap:butt;stroke-linejoin:miter;stroke-opacity:1"/>
<path class="bond-1" d="M 329.348,306.382 L 329.348,373.672" style="fill:none;fill-rule:evenodd;stroke:#FF0000;stroke-width:2.0px;stroke-linecap:butt;stroke-linejoin:miter;stroke-opacity:1"/>
<path class="bond-1" d="M 359.892,239.092 L 359.892,306.382" style="fill:none;fill-rule:evenodd;stroke:#000000;stroke-width:2.0px;stroke-linecap:butt;stroke-linejoin:miter;stroke-opacity:1"/>
<path class="bond-1" d="M 359.892,306.382 L 359.892,373.672" style="fill:none;fill-rule:evenodd;stroke:#FF0000;stroke-width:2.0px;stroke-linecap:butt;stroke-linejoin:miter;stroke-opacity:1"/>
<path class="bond-2" d="M 344.62,239.092 L 402.34,205.767" style="fill:none;fill-rule:evenodd;stroke:#000000;stroke-width:2.0px;stroke-linecap:butt;stroke-linejoin:miter;stroke-opacity:1"/>
<path class="bond-2" d="M 402.34,205.767 L 460.06,172.442" style="fill:none;fill-rule:evenodd;stroke:#FF0000;stroke-width:2.0px;stroke-linecap:butt;stroke-linejoin:miter;stroke-opacity:1"/>
<path class="bond-3" d="M 493.696,172.442 L 551.416,205.767" style="fill:none;fill-rule:evenodd;stroke:#FF0000;stroke-width:2.0px;stroke-linecap:butt;stroke-linejoin:miter;stroke-opacity:1"/>
<path class="bond-3" d="M 551.416,205.767 L 609.136,239.092" style="fill:none;fill-rule:evenodd;stroke:#000000;stroke-width:2.0px;stroke-linecap:butt;stroke-linejoin:miter;stroke-opacity:1"/>
<path class="bond-4" d="M 609.136,239.092 L 741.393,162.732" style="fill:none;fill-rule:evenodd;stroke:#000000;stroke-width:2.0px;stroke-linecap:butt;stroke-linejoin:miter;stroke-opacity:1"/>
<path class="bond-5" d="M 593.864,239.092 L 593.864,306.382" style="fill:none;fill-rule:evenodd;stroke:#000000;stroke-width:2.0px;stroke-linecap:butt;stroke-linejoin:miter;stroke-opacity:1"/>
<path class="bond-5" d="M 593.864,306.382 L 593.864,373.672" style="fill:none;fill-rule:evenodd;stroke:#FF0000;stroke-width:2.0px;stroke-linecap:butt;stroke-linejoin:miter;stroke-opacity:1"/>
<path class="bond-5" d="M 624.407,239.092 L 624.407,306.382" style="fill:none;fill-rule:evenodd;stroke:#000000;stroke-width:2.0px;stroke-linecap:butt;stroke-linejoin:miter;stroke-opacity:1"/>
<path class="bond-5" d="M 624.407,306.382 L 624.407,373.672" style="fill:none;fill-rule:evenodd;stroke:#FF0000;stroke-width:2.0px;stroke-linecap:butt;stroke-linejoin:miter;stroke-opacity:1"/>
<path class="bond-6" d="M 1388.46,384.58 L 1388.46,317.29" style="fill:none;fill-rule:evenodd;stroke:#FF0000;stroke-width:2.0px;stroke-linecap:butt;stroke-linejoin:miter;stroke-opacity:1"/>
<path class="bond-6" d="M 1388.46,317.29 L 1388.46,250" style="fill:none;fill-rule:evenodd;stroke:#000000;stroke-width:2.0px;stroke-linecap:butt;stroke-linejoin:miter;stroke-opacity:1"/>
<path class="bond-7" d="M 1388.46,250 L 1256.2,173.641" style="fill:none;fill-rule:evenodd;stroke:#000000;stroke-width:2.0px;stroke-linecap:butt;stroke-linejoin:miter;stroke-opacity:1"/>
<path class="bond-7" d="M 1353.35,264.998 L 1260.77,211.546" style="fill:none;fill-rule:evenodd;stroke:#000000;stroke-width:2.0px;stroke-linecap:butt;stroke-linejoin:miter;stroke-opacity:1;stroke-dasharray:6,6"/>
<path class="bond-9" d="M 1388.46,250 L 1520.72,173.641" style="fill:none;fill-rule:evenodd;stroke:#000000;stroke-width:2.0px;stroke-linecap:butt;stroke-linejoin:miter;stroke-opacity:1"/>
<path class="bond-9" d="M 1423.57,264.998 L 1516.15,211.546" style="fill:none;fill-rule:evenodd;stroke:#000000;stroke-width:2.0px;stroke-linecap:butt;stroke-linejoin:miter;stroke-opacity:1;stroke-dasharray:6,6"/>
<path class="bond-8" d="M 1248.56,160.415 L 1116.31,236.774" style="fill:none;fill-rule:evenodd;stroke:#000000;stroke-width:2.0px;stroke-linecap:butt;stroke-linejoin:miter;stroke-opacity:1"/>
<path class="bond-8" d="M 1263.84,186.867 L 1131.58,263.226" style="fill:none;fill-rule:evenodd;stroke:#000000;stroke-width:2.0px;stroke-linecap:butt;stroke-linejoin:miter;stroke-opacity:1;stroke-dasharray:6,6"/>
<path class="bond-10" d="M 1513.08,186.867 L 1645.34,263.226" style="fill:none;fill-rule:evenodd;stroke:#000000;stroke-width:2.0px;stroke-linecap:butt;stroke-linejoin:miter;stroke-opacity:1"/>
<path class="bond-10" d="M 1528.35,160.415 L 1660.61,236.774" style="fill:none;fill-rule:evenodd;stroke:#000000;stroke-width:2.0px;stroke-linecap:butt;stroke-linejoin:miter;stroke-opacity:1;stroke-dasharray:6,6"/>
<path class="bond-11" d="M 2495.76,326.359 L 2628.01,250" style="fill:none;fill-rule:evenodd;stroke:#000000;stroke-width:2.0px;stroke-linecap:butt;stroke-linejoin:miter;stroke-opacity:1"/>
<path class="bond-12" d="M 2620.38,263.226 L 2678.1,296.55" style="fill:none;fill-rule:evenodd;stroke:#000000;stroke-width:2.0px;stroke-linecap:butt;stroke-linejoin:miter;stroke-opacity:1"/>
<path class="bond-12" d="M 2678.1,296.55 L 2735.82,329.875" style="fill:none;fill-rule:evenodd;stroke:#FF0000;stroke-width:2.0px;stroke-linecap:butt;stroke-linejoin:miter;stroke-opacity:1"/>
<path class="bond-12" d="M 2635.65,236.774 L 2693.37,270.099" style="fill:none;fill-rule:evenodd;stroke:#000000;stroke-width:2.0px;stroke-linecap:butt;stroke-linejoin:miter;stroke-opacity:1"/>
<path class="bond-12" d="M 2693.37,270.099 L 2751.09,303.423" style="fill:none;fill-rule:evenodd;stroke:#FF0000;stroke-width:2.0px;stroke-linecap:butt;stroke-linejoin:miter;stroke-opacity:1"/>
<path class="bond-13" d="M 2628.01,250 L 2628.01,182.93" style="fill:none;fill-rule:evenodd;stroke:#000000;stroke-width:2.0px;stroke-linecap:butt;stroke-linejoin:miter;stroke-opacity:1"/>
<path class="bond-13" d="M 2628.01,182.93 L 2628.01,115.86" style="fill:none;fill-rule:evenodd;stroke:#FF0000;stroke-width:2.0px;stroke-linecap:butt;stroke-linejoin:miter;stroke-opacity:1"/>
<path class="bond-14" d="M 3122.05,185.12 L 3263.2,243.419" style="fill:none;fill-rule:evenodd;stroke:#000000;stroke-width:2.0px;stroke-linecap:butt;stroke-linejoin:miter;stroke-opacity:1"/>
<path class="bond-15" d="M 3248.06,245.428 L 3256.9,312.055" style="fill:none;fill-rule:evenodd;stroke:#000000;stroke-width:2.0px;stroke-linecap:butt;stroke-linejoin:miter;stroke-opacity:1"/>
<path class="bond-15" d="M 3256.9,312.055 L 3265.75,378.681" style="fill:none;fill-rule:evenodd;stroke:#FF0000;stroke-width:2.0px;stroke-linecap:butt;stroke-linejoin:miter;stroke-opacity:1"/>
<path class="bond-15" d="M 3278.34,241.41 L 3287.18,308.037" style="fill:none;fill-rule:evenodd;stroke:#000000;stroke-width:2.0px;stroke-linecap:butt;stroke-linejoin:miter;stroke-opacity:1"/>
<path class="bond-15" d="M 3287.18,308.037 L 3296.02,374.664" style="fill:none;fill-rule:evenodd;stroke:#FF0000;stroke-width:2.0px;stroke-linecap:butt;stroke-linejoin:miter;stroke-opacity:1"/>
<path class="bond-16" d="M 3263.2,243.419 L 3315.33,203.339" style="fill:none;fill-rule:evenodd;stroke:#000000;stroke-width:2.0px;stroke-linecap:butt;stroke-linejoin:miter;stroke-opacity:1"/>
<path class="bond-16" d="M 3315.33,203.339 L 3367.45,163.259" style="fill:none;fill-rule:evenodd;stroke:#FF0000;stroke-width:2.0px;stroke-linecap:butt;stroke-linejoin:miter;stroke-opacity:1"/>
<path class="bond-17" d="M 3401.09,157.273 L 3463.25,182.949" style="fill:none;fill-rule:evenodd;stroke:#FF0000;stroke-width:2.0px;stroke-linecap:butt;stroke-linejoin:miter;stroke-opacity:1"/>
<path class="bond-17" d="M 3463.25,182.949 L 3525.42,208.626" style="fill:none;fill-rule:evenodd;stroke:#000000;stroke-width:2.0px;stroke-linecap:butt;stroke-linejoin:miter;stroke-opacity:1"/>
<path class="bond-18" d="M 3525.42,208.626 L 3646.49,115.533" style="fill:none;fill-rule:evenodd;stroke:#000000;stroke-width:2.0px;stroke-linecap:butt;stroke-linejoin:miter;stroke-opacity:1"/>
<path class="bond-18" d="M 3524.96,170.449 L 3609.71,105.284" style="fill:none;fill-rule:evenodd;stroke:#000000;stroke-width:2.0px;stroke-linecap:butt;stroke-linejoin:miter;stroke-opacity:1;stroke-dasharray:6,6"/>
<path class="bond-20" d="M 3525.42,208.626 L 3545.51,360.017" style="fill:none;fill-rule:evenodd;stroke:#000000;stroke-width:2.0px;stroke-linecap:butt;stroke-linejoin:miter;stroke-opacity:1"/>
<path class="bond-20" d="M 3498.16,235.352 L 3512.22,341.326" style="fill:none;fill-rule:evenodd;stroke:#000000;stroke-width:2.0px;stroke-linecap:butt;stroke-linejoin:miter;stroke-opacity:1;stroke-dasharray:6,6"/>
<path class="bond-19" d="M 3640.66,129.648 L 3781.81,187.947" style="fill:none;fill-rule:evenodd;stroke:#000000;stroke-width:2.0px;stroke-linecap:butt;stroke-linejoin:miter;stroke-opacity:1"/>
<path class="bond-19" d="M 3652.32,101.418 L 3793.47,159.717" style="fill:none;fill-rule:evenodd;stroke:#000000;stroke-width:2.0px;stroke-linecap:butt;stroke-linejoin:miter;stroke-opacity:1;stroke-dasharray:6,6"/>
<path class="bond-21" d="M 3539.68,374.132 L 3680.83,432.431" style="fill:none;fill-rule:evenodd;stroke:#000000;stroke-width:2.0px;stroke-linecap:butt;stroke-linejoin:miter;stroke-opacity:1"/>
<path class="bond-21" d="M 3551.34,345.902 L 3692.49,404.2" style="fill:none;fill-rule:evenodd;stroke:#000000;stroke-width:2.0px;stroke-linecap:butt;stroke-linejoin:miter;stroke-opacity:1;stroke-dasharray:6,6"/>
<path class="atom-2" d="M 331.62 391.89 Q 331.62 385.09, 334.98 381.29 Q 338.34 377.49, 344.62 377.49 Q 350.9 377.49, 354.26 381.29 Q 357.62 385.09, 357.62 391.89 Q 357.62 398.77, 354.22 402.69 Q 350.82 406.57, 344.62 406.57 Q 338.38 406.57, 334.98 402.69 Q 331.62 398.81, 331.62 391.89 M 344.62 403.37 Q 348.94 403.37, 351.26 400.49 Q 353.62 397.57, 353.62 391.89 Q 353.62 386.33, 351.26 383.53 Q 348.94 380.69, 344.62 380.69 Q 340.3 380.69, 337.94 383.49 Q 335.62 386.29, 335.62 391.89 Q 335.62 397.61, 337.94 400.49 Q 340.3 403.37, 344.62 403.37 " fill="#FF0000"/>
<path class="atom-3" d="M 463.878 162.812 Q 463.878 156.012, 467.238 152.212 Q 470.598 148.412, 476.878 148.412 Q 483.158 148.412, 486.518 152.212 Q 489.878 156.012, 489.878 162.812 Q 489.878 169.692, 486.478 173.612 Q 483.078 177.492, 476.878 177.492 Q 470.638 177.492, 467.238 173.612 Q 463.878 169.732, 463.878 162.812 M 476.878 174.292 Q 481.198 174.292, 483.518 171.412 Q 485.878 168.492, 485.878 162.812 Q 485.878 157.252, 483.518 154.452 Q 481.198 151.612, 476.878 151.612 Q 472.558 151.612, 470.198 154.412 Q 467.878 157.212, 467.878 162.812 Q 467.878 168.532, 470.198 171.412 Q 472.558 174.292, 476.878 174.292 " fill="#FF0000"/>
<path class="atom-6" d="M 596.136 391.89 Q 596.136 385.09, 599.496 381.29 Q 602.856 377.49, 609.136 377.49 Q 615.416 377.49, 618.776 381.29 Q 622.136 385.09, 622.136 391.89 Q 622.136 398.77, 618.736 402.69 Q 615.336 406.57, 609.136 406.57 Q 602.896 406.57, 599.496 402.69 Q 596.136 398.81, 596.136 391.89 M 609.136 403.37 Q 613.456 403.37, 615.776 400.49 Q 618.136 397.57, 618.136 391.89 Q 618.136 386.33, 615.776 383.53 Q 613.456 380.69, 609.136 380.69 Q 604.816 380.69, 602.456 383.49 Q 600.136 386.29, 600.136 391.89 Q 600.136 397.61, 602.456 400.49 Q 604.816 403.37, 609.136 403.37 " fill="#FF0000"/>
<path class="atom-7" d="M 1375.46 402.798 Q 1375.46 395.998, 1378.82 392.198 Q 1382.18 388.398, 1388.46 388.398 Q 1394.74 388.398, 1398.1 392.198 Q 1401.46 395.998, 1401.46 402.798 Q 1401.46 409.678, 1398.06 413.598 Q 1394.66 417.478, 1388.46 417.478 Q 1382.22 417.478, 1378.82 413.598 Q 1375.46 409.718, 1375.46 402.798 M 1388.46 414.278 Q 1392.78 414.278, 1395.1 411.398 Q 1397.46 408.478, 1397.46 402.798 Q 1397.46 397.238, 1395.1 394.438 Q 1392.78 391.598, 1388.46 391.598 Q 1384.14 391.598, 1381.78 394.398 Q 1379.46 397.198, 1379.46 402.798 Q 1379.46 408.518, 1381.78 411.398 Q 1384.14 414.278, 1388.46 414.278 " fill="#FF0000"/>
<path class="atom-7" d="M 1404.86 388.718 L 1408.7 388.718 L 1408.7 400.758 L 1423.18 400.758 L 1423.18 388.718 L 1427.02 388.718 L 1427.02 417.038 L 1423.18 417.038 L 1423.18 403.958 L 1408.7 403.958 L 1408.7 417.038 L 1404.86 417.038 L 1404.86 388.718 " fill="#FF0000"/>
<path class="atom-15" d="M 2747.27 326.439 Q 2747.27 319.639, 2750.63 315.839 Q 2753.99 312.039, 2760.27 312.039 Q 2766.55 312.039, 2769.91 315.839 Q 2773.27 319.639, 2773.27 326.439 Q 2773.27 333.319, 2769.87 337.239 Q 2766.47 341.119, 2760.27 341.119 Q 2754.03 341.119, 2750.63 337.239 Q 2747.27 333.359, 2747.27 326.439 M 2760.27 337.919 Q 2764.59 337.919, 2766.91 335.039 Q 2769.27 332.119, 2769.27 326.439 Q 2769.27 320.879, 2766.91 318.079 Q 2764.59 315.239, 2760.27 315.239 Q 2755.95 315.239, 2753.59 318.039 Q 2751.27 320.839, 2751.27 326.439 Q 2751.27 332.159, 2753.59 335.039 Q 2755.95 337.919, 2760.27 337.919 " fill="#FF0000"/>
<path class="atom-16" d="M 2615.01 97.3617 Q 2615.01 90.5617, 2618.37 86.7617 Q 2621.73 82.9617, 2628.01 82.9617 Q 2634.29 82.9617, 2637.65 86.7617 Q 2641.01 90.5617, 2641.01 97.3617 Q 2641.01 104.242, 2637.61 108.162 Q 2634.21 112.042, 2628.01 112.042 Q 2621.77 112.042, 2618.37 108.162 Q 2615.01 104.282, 2615.01 97.3617 M 2628.01 108.842 Q 2632.33 108.842, 2634.65 105.962 Q 2637.01 103.042, 2637.01 97.3617 Q 2637.01 91.8017, 2634.65 89.0017 Q 2632.33 86.1617, 2628.01 86.1617 Q 2623.69 86.1617, 2621.33 88.9617 Q 2619.01 91.7617, 2619.01 97.3617 Q 2619.01 103.082, 2621.33 105.962 Q 2623.69 108.842, 2628.01 108.842 " fill="#FF0000"/>
<path class="atom-16" d="M 2644.41 83.2817 L 2648.25 83.2817 L 2648.25 95.3217 L 2662.73 95.3217 L 2662.73 83.2817 L 2666.57 83.2817 L 2666.57 111.602 L 2662.73 111.602 L 2662.73 98.5217 L 2648.25 98.5217 L 2648.25 111.602 L 2644.41 111.602 L 2644.41 83.2817 " fill="#FF0000"/>
<path class="atom-19" d="M 3270.29 394.891 Q 3270.29 388.091, 3273.65 384.291 Q 3277.01 380.491, 3283.29 380.491 Q 3289.57 380.491, 3292.93 384.291 Q 3296.29 388.091, 3296.29 394.891 Q 3296.29 401.771, 3292.89 405.691 Q 3289.49 409.571, 3283.29 409.571 Q 3277.05 409.571, 3273.65 405.691 Q 3270.29 401.811, 3270.29 394.891 M 3283.29 406.371 Q 3287.61 406.371, 3289.93 403.491 Q 3292.29 400.571, 3292.29 394.891 Q 3292.29 389.331, 3289.93 386.531 Q 3287.61 383.691, 3283.29 383.691 Q 3278.97 383.691, 3276.61 386.491 Q 3274.29 389.291, 3274.29 394.891 Q 3274.29 400.611, 3276.61 403.491 Q 3278.97 406.371, 3283.29 406.371 " fill="#FF0000"/>
<path class="atom-20" d="M 3371.27 150.407 Q 3371.27 143.607, 3374.63 139.807 Q 3377.99 136.007, 3384.27 136.007 Q 3390.55 136.007, 3393.91 139.807 Q 3397.27 143.607, 3397.27 150.407 Q 3397.27 157.287, 3393.87 161.207 Q 3390.47 165.087, 3384.27 165.087 Q 3378.03 165.087, 3374.63 161.207 Q 3371.27 157.327, 3371.27 150.407 M 3384.27 161.887 Q 3388.59 161.887, 3390.91 159.007 Q 3393.27 156.087, 3393.27 150.407 Q 3393.27 144.847, 3390.91 142.047 Q 3388.59 139.207, 3384.27 139.207 Q 3379.95 139.207, 3377.59 142.007 Q 3375.27 144.807, 3375.27 150.407 Q 3375.27 156.127, 3377.59 159.007 Q 3379.95 161.887, 3384.27 161.887 " fill="#FF0000"/>
<path class="note" d="M 196.145 190.295 L 199.245 190.295 L 199.245 179.715 L 195.825 180.775 L 195.365 179.595 L 199.705 177.655 L 201.125 177.895 L 201.125 190.295 L 203.905 190.295 L 203.905 191.895 L 196.145 191.895 L 196.145 190.295 " fill="#000000"/>
<path class="note" d="M 339.89 209.319 Q 340.41 207.979, 341.65 207.239 Q 342.89 206.479, 344.61 206.479 Q 346.75 206.479, 347.95 207.639 Q 349.15 208.799, 349.15 210.859 Q 349.15 212.959, 347.59 214.919 Q 346.05 216.879, 342.85 219.199 L 349.39 219.199 L 349.39 220.799 L 339.85 220.799 L 339.85 219.459 Q 342.49 217.579, 344.05 216.179 Q 345.63 214.779, 346.39 213.519 Q 347.15 212.259, 347.15 210.959 Q 347.15 209.599, 346.47 208.839 Q 345.79 208.079, 344.61 208.079 Q 343.47 208.079, 342.71 208.539 Q 341.95 208.999, 341.41 210.019 L 339.89 209.319 " fill="#000000"/>
<path class="note" d="M 346.66 442.416 Q 348.04 442.816, 348.7 443.716 Q 349.38 444.596, 349.38 445.996 Q 349.38 447.196, 348.78 448.136 Q 348.18 449.056, 347.08 449.576 Q 345.98 450.076, 344.54 450.076 Q 343.02 450.076, 341.88 449.556 Q 340.76 449.016, 339.86 447.936 L 341 446.776 Q 341.88 447.736, 342.62 448.116 Q 343.36 448.476, 344.54 448.476 Q 345.82 448.476, 346.6 447.796 Q 347.38 447.096, 347.38 445.976 Q 347.38 444.536, 346.56 443.896 Q 345.76 443.236, 344.02 443.236 L 343 443.236 L 343 441.796 L 343.9 441.796 Q 345.44 441.776, 346.26 441.116 Q 347.08 440.436, 347.08 439.176 Q 347.08 438.256, 346.4 437.716 Q 345.72 437.156, 344.56 437.156 Q 343.38 437.156, 342.64 437.576 Q 341.92 437.996, 341.36 439.056 L 339.98 438.316 Q 340.48 437.136, 341.68 436.356 Q 342.88 435.556, 344.56 435.556 Q 346.64 435.556, 347.86 436.536 Q 349.08 437.516, 349.08 439.176 Q 349.08 440.316, 348.46 441.136 Q 347.84 441.956, 346.66 442.416 " fill="#000000"/>
<path class="note" d="M 480.628 114.046 L 482.328 114.046 L 482.328 115.646 L 480.628 115.646 L 480.628 118.906 L 478.748 118.906 L 478.748 115.646 L 471.428 115.646 L 471.428 114.386 L 477.628 104.746 L 480.628 104.746 L 480.628 114.046 M 473.748 114.046 L 478.748 114.046 L 478.748 106.026 L 473.748 114.046 " fill="#000000"/>
<path class="note" d="M 609.766 211.959 Q 611.006 211.959, 611.986 212.499 Q 612.966 213.039, 613.506 214.019 Q 614.046 214.999, 614.046 216.239 Q 614.046 217.619, 613.426 218.699 Q 612.826 219.759, 611.746 220.359 Q 610.666 220.959, 609.286 220.959 Q 606.766 220.959, 605.486 219.259 Q 604.226 217.539, 604.226 214.139 Q 604.226 210.379, 605.786 208.439 Q 607.366 206.479, 610.386 206.479 Q 611.266 206.479, 612.006 206.679 Q 612.766 206.879, 613.486 207.299 L 612.706 208.639 Q 611.666 208.079, 610.406 208.079 Q 608.406 208.079, 607.386 209.379 Q 606.366 210.659, 606.246 213.319 Q 606.966 212.659, 607.866 212.319 Q 608.786 211.959, 609.766 211.959 M 609.306 219.319 Q 610.066 219.319, 610.686 218.919 Q 611.326 218.519, 611.686 217.819 Q 612.046 217.119, 612.046 216.259 Q 612.046 214.999, 611.346 214.279 Q 610.646 213.559, 609.406 213.559 Q 608.546 213.559, 607.686 213.919 Q 606.846 214.259, 606.246 214.859 Q 606.326 217.199, 607.066 218.259 Q 607.806 219.319, 609.306 219.319 " fill="#000000"/>
<path class="note" d="M 729.017 138.909 Q 730.257 138.909, 731.277 139.449 Q 732.297 139.969, 732.877 140.969 Q 733.457 141.949, 733.457 143.289 Q 733.457 144.749, 732.737 145.809 Q 732.037 146.849, 730.877 147.389 Q 729.717 147.929, 728.397 147.929 Q 727.097 147.929, 725.897 147.449 Q 724.697 146.969, 723.877 146.049 L 725.077 144.809 Q 725.737 145.529, 726.637 145.929 Q 727.537 146.309, 728.457 146.309 Q 729.717 146.309, 730.577 145.529 Q 731.457 144.749, 731.457 143.329 Q 731.457 141.829, 730.577 141.129 Q 729.717 140.409, 728.337 140.409 Q 727.097 140.409, 725.717 140.949 L 724.617 140.429 L 725.297 133.609 L 732.577 133.609 L 732.377 135.209 L 726.937 135.209 L 726.517 139.409 Q 727.777 138.909, 729.017 138.909 " fill="#000000"/>
<path class="note" d="M 611.856 437.236 L 604.436 437.236 L 604.436 435.636 L 613.836 435.636 L 613.836 437.056 L 608.116 449.796 L 606.196 449.796 L 611.856 437.236 " fill="#000000"/>
<path class="note" d="M 1390.68 453.284 Q 1391.98 453.844, 1392.72 454.684 Q 1393.46 455.504, 1393.46 456.904 Q 1393.46 458.104, 1392.84 459.044 Q 1392.22 459.964, 1391.1 460.484 Q 1390 460.984, 1388.54 460.984 Q 1386.18 460.984, 1384.82 459.904 Q 1383.46 458.804, 1383.46 456.904 Q 1383.46 455.744, 1384.06 454.884 Q 1384.66 454.004, 1385.9 453.344 Q 1384.98 452.824, 1384.48 452.064 Q 1383.98 451.284, 1383.98 450.084 Q 1383.98 448.424, 1385.18 447.444 Q 1386.4 446.464, 1388.46 446.464 Q 1390.52 446.464, 1391.72 447.444 Q 1392.94 448.424, 1392.94 450.084 Q 1392.94 451.124, 1392.36 451.904 Q 1391.8 452.664, 1390.68 453.284 M 1388.46 447.964 Q 1387.28 447.964, 1386.62 448.524 Q 1385.98 449.084, 1385.98 450.084 Q 1385.98 450.824, 1386.42 451.324 Q 1386.86 451.804, 1387.48 452.084 Q 1388.12 452.364, 1389.34 452.784 Q 1390.2 452.184, 1390.56 451.544 Q 1390.94 450.904, 1390.94 450.084 Q 1390.94 449.084, 1390.28 448.524 Q 1389.64 447.964, 1388.46 447.964 M 1388.54 459.484 Q 1389.86 459.484, 1390.66 458.784 Q 1391.46 458.064, 1391.46 456.884 Q 1391.46 456.124, 1391.04 455.644 Q 1390.62 455.164, 1389.98 454.884 Q 1389.36 454.604, 1388.24 454.244 L 1387.34 453.944 Q 1386.34 454.544, 1385.9 455.264 Q 1385.46 455.964, 1385.46 456.884 Q 1385.46 458.064, 1386.3 458.784 Q 1387.14 459.484, 1388.54 459.484 " fill="#000000"/>
<path class="note" d="M 1366.27 255.567 Q 1368.79 255.567, 1370.05 257.287 Q 1371.33 258.987, 1371.33 262.387 Q 1371.33 266.147, 1369.75 268.107 Q 1368.19 270.047, 1365.17 270.047 Q 1364.29 270.047, 1363.53 269.847 Q 1362.79 269.647, 1362.07 269.227 L 1362.85 267.887 Q 1363.89 268.447, 1365.15 268.447 Q 1367.15 268.447, 1368.17 267.167 Q 1369.19 265.867, 1369.31 263.207 Q 1368.59 263.867, 1367.67 264.227 Q 1366.77 264.567, 1365.79 264.567 Q 1364.55 264.567, 1363.57 264.027 Q 1362.59 263.487, 1362.05 262.507 Q 1361.51 261.527, 1361.51 260.287 Q 1361.51 258.907, 1362.11 257.847 Q 1362.73 256.767, 1363.81 256.167 Q 1364.89 255.567, 1366.27 255.567 M 1363.51 260.267 Q 1363.51 261.527, 1364.21 262.247 Q 1364.91 262.967, 1366.15 262.967 Q 1367.01 262.967, 1367.85 262.627 Q 1368.71 262.267, 1369.31 261.667 Q 1369.23 259.327, 1368.49 258.267 Q 1367.75 257.207, 1366.25 257.207 Q 1365.49 257.207, 1364.85 257.607 Q 1364.23 258.007, 1363.87 258.707 Q 1363.51 259.407, 1363.51 260.267 " fill="#000000"/>
<path class="note" d="M 1242.65 128.295 L 1245.75 128.295 L 1245.75 117.715 L 1242.33 118.775 L 1241.87 117.595 L 1246.21 115.655 L 1247.63 115.895 L 1247.63 128.295 L 1250.41 128.295 L 1250.41 129.895 L 1242.65 129.895 L 1242.65 128.295 " fill="#000000"/>
<path class="note" d="M 1256.81 130.055 Q 1254.21 130.055, 1252.91 128.135 Q 1251.63 126.215, 1251.63 122.795 Q 1251.63 119.375, 1252.91 117.475 Q 1254.19 115.575, 1256.81 115.575 Q 1259.43 115.575, 1260.71 117.475 Q 1261.99 119.375, 1261.99 122.795 Q 1261.99 126.215, 1260.69 128.135 Q 1259.41 130.055, 1256.81 130.055 M 1256.81 128.455 Q 1258.35 128.455, 1259.17 127.035 Q 1259.99 125.595, 1259.99 122.795 Q 1259.99 120.015, 1259.17 118.595 Q 1258.35 117.175, 1256.81 117.175 Q 1255.29 117.175, 1254.45 118.595 Q 1253.63 120.015, 1253.63 122.795 Q 1253.63 125.595, 1254.45 127.035 Q 1255.29 128.455, 1256.81 128.455 " fill="#000000"/>
<path class="note" d="M 1089.33 242.793 L 1092.43 242.793 L 1092.43 232.213 L 1089.01 233.273 L 1088.55 232.093 L 1092.89 230.153 L 1094.31 230.393 L 1094.31 242.793 L 1097.09 242.793 L 1097.09 244.393 L 1089.33 244.393 L 1089.33 242.793 " fill="#000000"/>
<path class="note" d="M 1098.95 242.793 L 1102.05 242.793 L 1102.05 232.213 L 1098.63 233.273 L 1098.17 232.093 L 1102.51 230.153 L 1103.93 230.393 L 1103.93 242.793 L 1106.71 242.793 L 1106.71 244.393 L 1098.95 244.393 L 1098.95 242.793 " fill="#000000"/>
<path class="note" d="M 1494.61 157.158 L 1497.71 157.158 L 1497.71 146.578 L 1494.29 147.638 L 1493.83 146.458 L 1498.17 144.518 L 1499.59 144.758 L 1499.59 157.158 L 1502.37 157.158 L 1502.37 158.758 L 1494.61 158.758 L 1494.61 157.158 " fill="#000000"/>
<path class="note" d="M 1510.83 151.258 Q 1512.13 151.818, 1512.87 152.658 Q 1513.61 153.478, 1513.61 154.878 Q 1513.61 156.078, 1512.99 157.018 Q 1512.37 157.938, 1511.25 158.458 Q 1510.15 158.958, 1508.69 158.958 Q 1506.33 158.958, 1504.97 157.878 Q 1503.61 156.778, 1503.61 154.878 Q 1503.61 153.718, 1504.21 152.858 Q 1504.81 151.978, 1506.05 151.318 Q 1505.13 150.798, 1504.63 150.038 Q 1504.13 149.258, 1504.13 148.058 Q 1504.13 146.398, 1505.33 145.418 Q 1506.55 144.438, 1508.61 144.438 Q 1510.67 144.438, 1511.87 145.418 Q 1513.09 146.398, 1513.09 148.058 Q 1513.09 149.098, 1512.51 149.878 Q 1511.95 150.638, 1510.83 151.258 M 1508.61 145.938 Q 1507.43 145.938, 1506.77 146.498 Q 1506.13 147.058, 1506.13 148.058 Q 1506.13 148.798, 1506.57 149.298 Q 1507.01 149.778, 1507.63 150.058 Q 1508.27 150.338, 1509.49 150.758 Q 1510.35 150.158, 1510.71 149.518 Q 1511.09 148.878, 1511.09 148.058 Q 1511.09 147.058, 1510.43 146.498 Q 1509.79 145.938, 1508.61 145.938 M 1508.69 157.458 Q 1510.01 157.458, 1510.81 156.758 Q 1511.61 156.038, 1511.61 154.858 Q 1511.61 154.098, 1511.19 153.618 Q 1510.77 153.138, 1510.13 152.858 Q 1509.51 152.578, 1508.39 152.218 L 1507.49 151.918 Q 1506.49 152.518, 1506.05 153.238 Q 1505.61 153.938, 1505.61 154.858 Q 1505.61 156.038, 1506.45 156.758 Q 1507.29 157.458, 1508.69 157.458 " fill="#000000"/>
<path class="note" d="M 1665.08 211.474 L 1668.18 211.474 L 1668.18 200.894 L 1664.76 201.954 L 1664.3 200.774 L 1668.64 198.834 L 1670.06 199.074 L 1670.06 211.474 L 1672.84 211.474 L 1672.84 213.074 L 1665.08 213.074 L 1665.08 211.474 " fill="#000000"/>
<path class="note" d="M 1679.74 204.234 Q 1680.98 204.234, 1681.96 204.774 Q 1682.94 205.314, 1683.48 206.294 Q 1684.02 207.274, 1684.02 208.514 Q 1684.02 209.894, 1683.4 210.974 Q 1682.8 212.034, 1681.72 212.634 Q 1680.64 213.234, 1679.26 213.234 Q 1676.74 213.234, 1675.46 211.534 Q 1674.2 209.814, 1674.2 206.414 Q 1674.2 202.654, 1675.76 200.714 Q 1677.34 198.754, 1680.36 198.754 Q 1681.24 198.754, 1681.98 198.954 Q 1682.74 199.154, 1683.46 199.574 L 1682.68 200.914 Q 1681.64 200.354, 1680.38 200.354 Q 1678.38 200.354, 1677.36 201.654 Q 1676.34 202.934, 1676.22 205.594 Q 1676.94 204.934, 1677.84 204.594 Q 1678.76 204.234, 1679.74 204.234 M 1679.28 211.594 Q 1680.04 211.594, 1680.66 211.194 Q 1681.3 210.794, 1681.66 210.094 Q 1682.02 209.394, 1682.02 208.534 Q 1682.02 207.274, 1681.32 206.554 Q 1680.62 205.834, 1679.38 205.834 Q 1678.52 205.834, 1677.66 206.194 Q 1676.82 206.534, 1676.22 207.134 Q 1676.3 209.474, 1677.04 210.534 Q 1677.78 211.594, 1679.28 211.594 " fill="#000000"/>
<path class="note" d="M 2504.99 353.922 L 2508.09 353.922 L 2508.09 343.342 L 2504.67 344.402 L 2504.21 343.222 L 2508.55 341.282 L 2509.97 341.522 L 2509.97 353.922 L 2512.75 353.922 L 2512.75 355.522 L 2504.99 355.522 L 2504.99 353.922 " fill="#000000"/>
<path class="note" d="M 2610.56 223.637 Q 2611.08 222.297, 2612.32 221.557 Q 2613.56 220.797, 2615.28 220.797 Q 2617.42 220.797, 2618.62 221.957 Q 2619.82 223.117, 2619.82 225.177 Q 2619.82 227.277, 2618.26 229.237 Q 2616.72 231.197, 2613.52 233.517 L 2620.06 233.517 L 2620.06 235.117 L 2610.52 235.117 L 2610.52 233.777 Q 2613.16 231.897, 2614.72 230.497 Q 2616.3 229.097, 2617.06 227.837 Q 2617.82 226.577, 2617.82 225.277 Q 2617.82 223.917, 2617.14 223.157 Q 2616.46 222.397, 2615.28 222.397 Q 2614.14 222.397, 2613.38 222.857 Q 2612.62 223.317, 2612.08 224.337 L 2610.56 223.637 " fill="#000000"/>
<path class="note" d="M 2806.4 351.512 Q 2807.78 351.912, 2808.44 352.812 Q 2809.12 353.692, 2809.12 355.092 Q 2809.12 356.292, 2808.52 357.232 Q 2807.92 358.152, 2806.82 358.672 Q 2805.72 359.172, 2804.28 359.172 Q 2802.76 359.172, 2801.62 358.652 Q 2800.5 358.112, 2799.6 357.032 L 2800.74 355.872 Q 2801.62 356.832, 2802.36 357.212 Q 2803.1 357.572, 2804.28 357.572 Q 2805.56 357.572, 2806.34 356.892 Q 2807.12 356.192, 2807.12 355.072 Q 2807.12 353.632, 2806.3 352.992 Q 2805.5 352.332, 2803.76 352.332 L 2802.74 352.332 L 2802.74 350.892 L 2803.64 350.892 Q 2805.18 350.872, 2806 350.212 Q 2806.82 349.532, 2806.82 348.272 Q 2806.82 347.352, 2806.14 346.812 Q 2805.46 346.252, 2804.3 346.252 Q 2803.12 346.252, 2802.38 346.672 Q 2801.66 347.092, 2801.1 348.152 L 2799.72 347.412 Q 2800.22 346.232, 2801.42 345.452 Q 2802.62 344.652, 2804.3 344.652 Q 2806.38 344.652, 2807.6 345.632 Q 2808.82 346.612, 2808.82 348.272 Q 2808.82 349.412, 2808.2 350.232 Q 2807.58 351.052, 2806.4 351.512 " fill="#000000"/>
<path class="note" d="M 2631.76 48.5956 L 2633.46 48.5956 L 2633.46 50.1956 L 2631.76 50.1956 L 2631.76 53.4556 L 2629.88 53.4556 L 2629.88 50.1956 L 2622.56 50.1956 L 2622.56 48.9356 L 2628.76 39.2956 L 2631.76 39.2956 L 2631.76 48.5956 M 2624.88 48.5956 L 2629.88 48.5956 L 2629.88 40.5756 L 2624.88 48.5956 " fill="#000000"/>
<path class="note" d="M 3112.68 206.866 Q 3113.92 206.866, 3114.94 207.406 Q 3115.96 207.926, 3116.54 208.926 Q 3117.12 209.906, 3117.12 211.246 Q 3117.12 212.706, 3116.4 213.766 Q 3115.7 214.806, 3114.54 215.346 Q 3113.38 215.886, 3112.06 215.886 Q 3110.76 215.886, 3109.56 215.406 Q 3108.36 214.926, 3107.54 214.006 L 3108.74 212.766 Q 3109.4 213.486, 3110.3 213.886 Q 3111.2 214.266, 3112.12 214.266 Q 3113.38 214.266, 3114.24 213.486 Q 3115.12 212.706, 3115.12 211.286 Q 3115.12 209.786, 3114.24 209.086 Q 3113.38 208.366, 3112 208.366 Q 3110.76 208.366, 3109.38 208.906 L 3108.28 208.386 L 3108.96 201.566 L 3116.24 201.566 L 3116.04 203.166 L 3110.6 203.166 L 3110.18 207.366 Q 3111.44 206.866, 3112.68 206.866 " fill="#000000"/>
<path class="note" d="M 3260.49 216.507 Q 3261.73 216.507, 3262.71 217.047 Q 3263.69 217.587, 3264.23 218.567 Q 3264.77 219.547, 3264.77 220.787 Q 3264.77 222.167, 3264.15 223.247 Q 3263.55 224.307, 3262.47 224.907 Q 3261.39 225.507, 3260.01 225.507 Q 3257.49 225.507, 3256.21 223.807 Q 3254.95 222.087, 3254.95 218.687 Q 3254.95 214.927, 3256.51 212.987 Q 3258.09 211.027, 3261.11 211.027 Q 3261.99 211.027, 3262.73 211.227 Q 3263.49 211.427, 3264.21 211.847 L 3263.43 213.187 Q 3262.39 212.627, 3261.13 212.627 Q 3259.13 212.627, 3258.11 213.927 Q 3257.09 215.207, 3256.97 217.867 Q 3257.69 217.207, 3258.59 216.867 Q 3259.51 216.507, 3260.49 216.507 M 3260.03 223.867 Q 3260.79 223.867, 3261.41 223.467 Q 3262.05 223.067, 3262.41 222.367 Q 3262.77 221.667, 3262.77 220.807 Q 3262.77 219.547, 3262.07 218.827 Q 3261.37 218.107, 3260.13 218.107 Q 3259.27 218.107, 3258.41 218.467 Q 3257.57 218.807, 3256.97 219.407 Q 3257.05 221.747, 3257.79 222.807 Q 3258.53 223.867, 3260.03 223.867 " fill="#000000"/>
<path class="note" d="M 3292.71 439.794 L 3285.29 439.794 L 3285.29 438.194 L 3294.69 438.194 L 3294.69 439.614 L 3288.97 452.354 L 3287.05 452.354 L 3292.71 439.794 " fill="#000000"/>
<path class="note" d="M 3379.79 99.5229 Q 3381.09 100.083, 3381.83 100.923 Q 3382.57 101.743, 3382.57 103.143 Q 3382.57 104.343, 3381.95 105.283 Q 3381.33 106.203, 3380.21 106.723 Q 3379.11 107.223, 3377.65 107.223 Q 3375.29 107.223, 3373.93 106.143 Q 3372.57 105.043, 3372.57 103.143 Q 3372.57 101.983, 3373.17 101.123 Q 3373.77 100.243, 3375.01 99.5829 Q 3374.09 99.0629, 3373.59 98.3029 Q 3373.09 97.5229, 3373.09 96.3229 Q 3373.09 94.6629, 3374.29 93.6829 Q 3375.51 92.7029, 3377.57 92.7029 Q 3379.63 92.7029, 3380.83 93.6829 Q 3382.05 94.6629, 3382.05 96.3229 Q 3382.05 97.3629, 3381.47 98.1429 Q 3380.91 98.9029, 3379.79 99.5229 M 3377.57 94.2029 Q 3376.39 94.2029, 3375.73 94.7629 Q 3375.09 95.3229, 3375.09 96.3229 Q 3375.09 97.0629, 3375.53 97.5629 Q 3375.97 98.0429, 3376.59 98.3229 Q 3377.23 98.6029, 3378.45 99.0229 Q 3379.31 98.4229, 3379.67 97.7829 Q 3380.05 97.1429, 3380.05 96.3229 Q 3380.05 95.3229, 3379.39 94.7629 Q 3378.75 94.2029, 3377.57 94.2029 M 3377.65 105.723 Q 3378.97 105.723, 3379.77 105.023 Q 3380.57 104.303, 3380.57 103.123 Q 3380.57 102.363, 3380.15 101.883 Q 3379.73 101.403, 3379.09 101.123 Q 3378.47 100.843, 3377.35 100.483 L 3376.45 100.183 Q 3375.45 100.783, 3375.01 101.503 Q 3374.57 102.203, 3374.57 103.123 Q 3374.57 104.303, 3375.41 105.023 Q 3376.25 105.723, 3377.65 105.723 " fill="#000000"/>
<path class="note" d="M 3548.8 211.182 Q 3551.32 211.182, 3552.58 212.902 Q 3553.86 214.602, 3553.86 218.002 Q 3553.86 221.762, 3552.28 223.722 Q 3550.72 225.662, 3547.7 225.662 Q 3546.82 225.662, 3546.06 225.462 Q 3545.32 225.262, 3544.6 224.842 L 3545.38 223.502 Q 3546.42 224.062, 3547.68 224.062 Q 3549.68 224.062, 3550.7 222.782 Q 3551.72 221.482, 3551.84 218.822 Q 3551.12 219.482, 3550.2 219.842 Q 3549.3 220.182, 3548.32 220.182 Q 3547.08 220.182, 3546.1 219.642 Q 3545.12 219.102, 3544.58 218.122 Q 3544.04 217.142, 3544.04 215.902 Q 3544.04 214.522, 3544.64 213.462 Q 3545.26 212.382, 3546.34 211.782 Q 3547.42 211.182, 3548.8 211.182 M 3546.04 215.882 Q 3546.04 217.142, 3546.74 217.862 Q 3547.44 218.582, 3548.68 218.582 Q 3549.54 218.582, 3550.38 218.242 Q 3551.24 217.882, 3551.84 217.282 Q 3551.76 214.942, 3551.02 213.882 Q 3550.28 212.822, 3548.78 212.822 Q 3548.02 212.822, 3547.38 213.222 Q 3546.76 213.622, 3546.4 214.322 Q 3546.04 215.022, 3546.04 215.882 " fill="#000000"/>
<path class="note" d="M 3626.24 70.6293 L 3629.34 70.6293 L 3629.34 60.0493 L 3625.92 61.1093 L 3625.46 59.9293 L 3629.8 57.9893 L 3631.22 58.2293 L 3631.22 70.6293 L 3634 70.6293 L 3634 72.2293 L 3626.24 72.2293 L 3626.24 70.6293 " fill="#000000"/>
<path class="note" d="M 3640.4 72.3893 Q 3637.8 72.3893, 3636.5 70.4693 Q 3635.22 68.5493, 3635.22 65.1293 Q 3635.22 61.7093, 3636.5 59.8093 Q 3637.78 57.9093, 3640.4 57.9093 Q 3643.02 57.9093, 3644.3 59.8093 Q 3645.58 61.7093, 3645.58 65.1293 Q 3645.58 68.5493, 3644.28 70.4693 Q 3643 72.3893, 3640.4 72.3893 M 3640.4 70.7893 Q 3641.94 70.7893, 3642.76 69.3693 Q 3643.58 67.9293, 3643.58 65.1293 Q 3643.58 62.3493, 3642.76 60.9293 Q 3641.94 59.5093, 3640.4 59.5093 Q 3638.88 59.5093, 3638.04 60.9293 Q 3637.22 62.3493, 3637.22 65.1293 Q 3637.22 67.9293, 3638.04 69.3693 Q 3638.88 70.7893, 3640.4 70.7893 " fill="#000000"/>
<path class="note" d="M 3794.5 132.301 L 3797.6 132.301 L 3797.6 121.721 L 3794.18 122.781 L 3793.72 121.601 L 3798.06 119.661 L 3799.48 119.901 L 3799.48 132.301 L 3802.26 132.301 L 3802.26 133.901 L 3794.5 133.901 L 3794.5 132.301 " fill="#000000"/>
<path class="note" d="M 3804.12 132.301 L 3807.22 132.301 L 3807.22 121.721 L 3803.8 122.781 L 3803.34 121.601 L 3807.68 119.661 L 3809.1 119.901 L 3809.1 132.301 L 3811.88 132.301 L 3811.88 133.901 L 3804.12 133.901 L 3804.12 132.301 " fill="#000000"/>
<path class="note" d="M 3511.95 381.092 L 3515.05 381.092 L 3515.05 370.512 L 3511.63 371.572 L 3511.17 370.392 L 3515.51 368.452 L 3516.93 368.692 L 3516.93 381.092 L 3519.71 381.092 L 3519.71 382.692 L 3511.95 382.692 L 3511.95 381.092 " fill="#000000"/>
<path class="note" d="M 3528.17 375.192 Q 3529.47 375.752, 3530.21 376.592 Q 3530.95 377.412, 3530.95 378.812 Q 3530.95 380.012, 3530.33 380.952 Q 3529.71 381.872, 3528.59 382.392 Q 3527.49 382.892, 3526.03 382.892 Q 3523.67 382.892, 3522.31 381.812 Q 3520.95 380.712, 3520.95 378.812 Q 3520.95 377.652, 3521.55 376.792 Q 3522.15 375.912, 3523.39 375.252 Q 3522.47 374.732, 3521.97 373.972 Q 3521.47 373.192, 3521.47 371.992 Q 3521.47 370.332, 3522.67 369.352 Q 3523.89 368.372, 3525.95 368.372 Q 3528.01 368.372, 3529.21 369.352 Q 3530.43 370.332, 3530.43 371.992 Q 3530.43 373.032, 3529.85 373.812 Q 3529.29 374.572, 3528.17 375.192 M 3525.95 369.872 Q 3524.77 369.872, 3524.11 370.432 Q 3523.47 370.992, 3523.47 371.992 Q 3523.47 372.732, 3523.91 373.232 Q 3524.35 373.712, 3524.97 373.992 Q 3525.61 374.272, 3526.83 374.692 Q 3527.69 374.092, 3528.05 373.452 Q 3528.43 372.812, 3528.43 371.992 Q 3528.43 370.992, 3527.77 370.432 Q 3527.13 369.872, 3525.95 369.872 M 3526.03 381.392 Q 3527.35 381.392, 3528.15 380.692 Q 3528.95 379.972, 3528.95 378.792 Q 3528.95 378.032, 3528.53 377.552 Q 3528.11 377.072, 3527.47 376.792 Q 3526.85 376.512, 3525.73 376.152 L 3524.83 375.852 Q 3523.83 376.452, 3523.39 377.172 Q 3522.95 377.872, 3522.95 378.792 Q 3522.95 379.972, 3523.79 380.692 Q 3524.63 381.392, 3526.03 381.392 " fill="#000000"/>
<path class="note" d="M 3692.74 376.825 L 3695.84 376.825 L 3695.84 366.245 L 3692.42 367.305 L 3691.96 366.125 L 3696.3 364.185 L 3697.72 364.425 L 3697.72 376.825 L 3700.5 376.825 L 3700.5 378.425 L 3692.74 378.425 L 3692.74 376.825 " fill="#000000"/>
<path class="note" d="M 3707.4 369.585 Q 3708.64 369.585, 3709.62 370.125 Q 3710.6 370.665, 3711.14 371.645 Q 3711.68 372.625, 3711.68 373.865 Q 3711.68 375.245, 3711.06 376.325 Q 3710.46 377.385, 3709.38 377.985 Q 3708.3 378.585, 3706.92 378.585 Q 3704.4 378.585, 3703.12 376.885 Q 3701.86 375.165, 3701.86 371.765 Q 3701.86 368.005, 3703.42 366.065 Q 3705 364.105, 3708.02 364.105 Q 3708.9 364.105, 3709.64 364.305 Q 3710.4 364.505, 3711.12 364.925 L 3710.34 366.265 Q 3709.3 365.705, 3708.04 365.705 Q 3706.04 365.705, 3705.02 367.005 Q 3704 368.285, 3703.88 370.945 Q 3704.6 370.285, 3705.5 369.945 Q 3706.42 369.585, 3707.4 369.585 M 3706.94 376.945 Q 3707.7 376.945, 3708.32 376.545 Q 3708.96 376.145, 3709.32 375.445 Q 3709.68 374.745, 3709.68 373.885 Q 3709.68 372.625, 3708.98 371.905 Q 3708.28 371.185, 3707.04 371.185 Q 3706.18 371.185, 3705.32 371.545 Q 3704.48 371.885, 3703.88 372.485 Q 3703.96 374.825, 3704.7 375.885 Q 3705.44 376.945, 3706.94 376.945 " fill="#000000"/>
<path d="M 1115.03,246 L 1115.03,245.828 L 1115,245.657 L 1114.97,245.489 L 1114.92,245.325 L 1114.85,245.166 L 1114.77,245.012 L 1114.68,244.867 L 1114.58,244.729 L 1114.46,244.601 L 1114.34,244.483 L 1114.2,244.377 L 1114.06,244.282 L 1113.91,244.201 L 1113.75,244.132 L 1113.59,244.078 L 1113.42,244.037 L 1113.25,244.012 L 1113.08,244 L 1112.9,244.004 L 1112.73,244.023 L 1112.56,244.056 L 1112.4,244.103 L 1112.24,244.165 L 1112.08,244.24 L 1111.94,244.328 L 1111.8,244.429 L 1111.67,244.541 L 1111.55,244.664 L 1111.44,244.797 L 1111.34,244.939 L 1111.25,245.088 L 1111.18,245.245 L 1111.12,245.407 L 1111.08,245.573 L 1111.05,245.743 L 1111.04,245.914 L 1111.04,246.086 L 1111.05,246.257 L 1111.08,246.427 L 1111.12,246.593 L 1111.18,246.755 L 1111.25,246.912 L 1111.34,247.061 L 1111.44,247.203 L 1111.55,247.336 L 1111.67,247.459 L 1111.8,247.571 L 1111.94,247.672 L 1112.08,247.76 L 1112.24,247.835 L 1112.4,247.897 L 1112.56,247.944 L 1112.73,247.977 L 1112.9,247.996 L 1113.08,248 L 1113.25,247.988 L 1113.42,247.963 L 1113.59,247.922 L 1113.75,247.868 L 1113.91,247.799 L 1114.06,247.718 L 1114.2,247.623 L 1114.34,247.517 L 1114.46,247.399 L 1114.58,247.271 L 1114.68,247.133 L 1114.77,246.988 L 1114.85,246.834 L 1114.92,246.675 L 1114.97,246.511 L 1115,246.343 L 1115.03,246.172 L 1115.03,246 L 1113.03,246 Z" style="fill:#000000;fill-rule:evenodd;fill-opacity:1;stroke:#000000;stroke-width:0px;stroke-linecap:butt;stroke-linejoin:miter;stroke-opacity:1;"/>
<path d="M 1115.03,254 L 1115.03,253.828 L 1115,253.657 L 1114.97,253.489 L 1114.92,253.325 L 1114.85,253.166 L 1114.77,253.012 L 1114.68,252.867 L 1114.58,252.729 L 1114.46,252.601 L 1114.34,252.483 L 1114.2,252.377 L 1114.06,252.282 L 1113.91,252.201 L 1113.75,252.132 L 1113.59,252.078 L 1113.42,252.037 L 1113.25,252.012 L 1113.08,252 L 1112.9,252.004 L 1112.73,252.023 L 1112.56,252.056 L 1112.4,252.103 L 1112.24,252.165 L 1112.08,252.24 L 1111.94,252.328 L 1111.8,252.429 L 1111.67,252.541 L 1111.55,252.664 L 1111.44,252.797 L 1111.34,252.939 L 1111.25,253.088 L 1111.18,253.245 L 1111.12,253.407 L 1111.08,253.573 L 1111.05,253.743 L 1111.04,253.914 L 1111.04,254.086 L 1111.05,254.257 L 1111.08,254.427 L 1111.12,254.593 L 1111.18,254.755 L 1111.25,254.912 L 1111.34,255.061 L 1111.44,255.203 L 1111.55,255.336 L 1111.67,255.459 L 1111.8,255.571 L 1111.94,255.672 L 1112.08,255.76 L 1112.24,255.835 L 1112.4,255.897 L 1112.56,255.944 L 1112.73,255.977 L 1112.9,255.996 L 1113.08,256 L 1113.25,255.988 L 1113.42,255.963 L 1113.59,255.922 L 1113.75,255.868 L 1113.91,255.799 L 1114.06,255.718 L 1114.2,255.623 L 1114.34,255.517 L 1114.46,255.399 L 1114.58,255.271 L 1114.68,255.133 L 1114.77,254.988 L 1114.85,254.834 L 1114.92,254.675 L 1114.97,254.511 L 1115,254.343 L 1115.03,254.172 L 1115.03,254 L 1113.03,254 Z" style="fill:#000000;fill-rule:evenodd;fill-opacity:1;stroke:#000000;stroke-width:0px;stroke-linecap:butt;stroke-linejoin:miter;stroke-opacity:1;"/>
<path d="M 1665.88,250 L 1665.88,249.828 L 1665.85,249.657 L 1665.82,249.489 L 1665.77,249.325 L 1665.7,249.166 L 1665.62,249.012 L 1665.53,248.867 L 1665.43,248.729 L 1665.31,248.601 L 1665.19,248.483 L 1665.05,248.377 L 1664.91,248.282 L 1664.76,248.201 L 1664.6,248.132 L 1664.44,248.078 L 1664.27,248.037 L 1664.1,248.012 L 1663.93,248 L 1663.75,248.004 L 1663.58,248.023 L 1663.41,248.056 L 1663.25,248.103 L 1663.09,248.165 L 1662.93,248.24 L 1662.79,248.328 L 1662.65,248.429 L 1662.52,248.541 L 1662.4,248.664 L 1662.29,248.797 L 1662.19,248.939 L 1662.1,249.088 L 1662.03,249.245 L 1661.97,249.407 L 1661.93,249.573 L 1661.9,249.743 L 1661.89,249.914 L 1661.89,250.086 L 1661.9,250.257 L 1661.93,250.427 L 1661.97,250.593 L 1662.03,250.755 L 1662.1,250.912 L 1662.19,251.061 L 1662.29,251.203 L 1662.4,251.336 L 1662.52,251.459 L 1662.65,251.571 L 1662.79,251.672 L 1662.93,251.76 L 1663.09,251.835 L 1663.25,251.897 L 1663.41,251.944 L 1663.58,251.977 L 1663.75,251.996 L 1663.93,252 L 1664.1,251.988 L 1664.27,251.963 L 1664.44,251.922 L 1664.6,251.868 L 1664.76,251.799 L 1664.91,251.718 L 1665.05,251.623 L 1665.19,251.517 L 1665.31,251.399 L 1665.43,251.271 L 1665.53,251.133 L 1665.62,250.988 L 1665.7,250.834 L 1665.77,250.675 L 1665.82,250.511 L 1665.85,250.343 L 1665.88,250.172 L 1665.88,250 L 1663.88,250 Z" style="fill:#000000;fill-rule:evenodd;fill-opacity:1;stroke:#000000;stroke-width:0px;stroke-linecap:butt;stroke-linejoin:miter;stroke-opacity:1;"/>
<path d="M 1665.88,263.272 L 1665.88,263.1 L 1665.85,262.929 L 1665.82,262.761 L 1665.77,262.597 L 1665.7,262.437 L 1665.62,262.284 L 1665.53,262.138 L 1665.43,262.001 L 1665.31,261.873 L 1665.19,261.755 L 1665.05,261.649 L 1664.91,261.554 L 1664.76,261.473 L 1664.6,261.404 L 1664.44,261.35 L 1664.27,261.309 L 1664.1,261.283 L 1663.93,261.272 L 1663.75,261.276 L 1663.58,261.294 L 1663.41,261.328 L 1663.25,261.375 L 1663.09,261.437 L 1662.93,261.512 L 1662.79,261.6 L 1662.65,261.701 L 1662.52,261.813 L 1662.4,261.936 L 1662.29,262.069 L 1662.19,262.21 L 1662.1,262.36 L 1662.03,262.516 L 1661.97,262.678 L 1661.93,262.845 L 1661.9,263.014 L 1661.89,263.186 L 1661.89,263.358 L 1661.9,263.529 L 1661.93,263.699 L 1661.97,263.865 L 1662.03,264.027 L 1662.1,264.184 L 1662.19,264.333 L 1662.29,264.475 L 1662.4,264.608 L 1662.52,264.731 L 1662.65,264.843 L 1662.79,264.944 L 1662.93,265.032 L 1663.09,265.107 L 1663.25,265.169 L 1663.41,265.216 L 1663.58,265.249 L 1663.75,265.268 L 1663.93,265.271 L 1664.1,265.26 L 1664.27,265.234 L 1664.44,265.194 L 1664.6,265.14 L 1664.76,265.071 L 1664.91,264.989 L 1665.05,264.895 L 1665.19,264.788 L 1665.31,264.671 L 1665.43,264.543 L 1665.53,264.405 L 1665.62,264.259 L 1665.7,264.106 L 1665.77,263.947 L 1665.82,263.783 L 1665.85,263.614 L 1665.88,263.444 L 1665.88,263.272 L 1663.88,263.272 Z" style="fill:#000000;fill-rule:evenodd;fill-opacity:1;stroke:#000000;stroke-width:0px;stroke-linecap:butt;stroke-linejoin:miter;stroke-opacity:1;"/>
<path d="M 1665.88,236.728 L 1665.88,236.556 L 1665.85,236.386 L 1665.82,236.217 L 1665.77,236.053 L 1665.7,235.894 L 1665.62,235.741 L 1665.53,235.595 L 1665.43,235.457 L 1665.31,235.329 L 1665.19,235.212 L 1665.05,235.105 L 1664.91,235.011 L 1664.76,234.929 L 1664.6,234.86 L 1664.44,234.806 L 1664.27,234.766 L 1664.1,234.74 L 1663.93,234.729 L 1663.75,234.732 L 1663.58,234.751 L 1663.41,234.784 L 1663.25,234.831 L 1663.09,234.893 L 1662.93,234.968 L 1662.79,235.056 L 1662.65,235.157 L 1662.52,235.269 L 1662.4,235.392 L 1662.29,235.525 L 1662.19,235.667 L 1662.1,235.816 L 1662.03,235.973 L 1661.97,236.135 L 1661.93,236.301 L 1661.9,236.471 L 1661.89,236.642 L 1661.89,236.814 L 1661.9,236.986 L 1661.93,237.155 L 1661.97,237.322 L 1662.03,237.484 L 1662.1,237.64 L 1662.19,237.79 L 1662.29,237.931 L 1662.4,238.064 L 1662.52,238.187 L 1662.65,238.299 L 1662.79,238.4 L 1662.93,238.488 L 1663.09,238.563 L 1663.25,238.625 L 1663.41,238.672 L 1663.58,238.706 L 1663.75,238.724 L 1663.93,238.728 L 1664.1,238.717 L 1664.27,238.691 L 1664.44,238.65 L 1664.6,238.596 L 1664.76,238.527 L 1664.91,238.446 L 1665.05,238.351 L 1665.19,238.245 L 1665.31,238.127 L 1665.43,237.999 L 1665.53,237.862 L 1665.62,237.716 L 1665.7,237.563 L 1665.77,237.403 L 1665.82,237.239 L 1665.85,237.071 L 1665.88,236.9 L 1665.88,236.728 L 1663.88,236.728 Z" style="fill:#000000;fill-rule:evenodd;fill-opacity:1;stroke:#000000;stroke-width:0px;stroke-linecap:butt;stroke-linejoin:miter;stroke-opacity:1;"/>
<path d="M 1665.88,250 L 1665.88,249.828 L 1665.85,249.657 L 1665.82,249.489 L 1665.77,249.325 L 1665.7,249.166 L 1665.62,249.012 L 1665.53,248.867 L 1665.43,248.729 L 1665.31,248.601 L 1665.19,248.483 L 1665.05,248.377 L 1664.91,248.282 L 1664.76,248.201 L 1664.6,248.132 L 1664.44,248.078 L 1664.27,248.037 L 1664.1,248.012 L 1663.93,248 L 1663.75,248.004 L 1663.58,248.023 L 1663.41,248.056 L 1663.25,248.103 L 1663.09,248.165 L 1662.93,248.24 L 1662.79,248.328 L 1662.65,248.429 L 1662.52,248.541 L 1662.4,248.664 L 1662.29,248.797 L 1662.19,248.939 L 1662.1,249.088 L 1662.03,249.245 L 1661.97,249.407 L 1661.93,249.573 L 1661.9,249.743 L 1661.89,249.914 L 1661.89,250.086 L 1661.9,250.257 L 1661.93,250.427 L 1661.97,250.593 L 1662.03,250.755 L 1662.1,250.912 L 1662.19,251.061 L 1662.29,251.203 L 1662.4,251.336 L 1662.52,251.459 L 1662.65,251.571 L 1662.79,251.672 L 1662.93,251.76 L 1663.09,251.835 L 1663.25,251.897 L 1663.41,251.944 L 1663.58,251.977 L 1663.75,251.996 L 1663.93,252 L 1664.1,251.988 L 1664.27,251.963 L 1664.44,251.922 L 1664.6,251.868 L 1664.76,251.799 L 1664.91,251.718 L 1665.05,251.623 L 1665.19,251.517 L 1665.31,251.399 L 1665.43,251.271 L 1665.53,251.133 L 1665.62,250.988 L 1665.7,250.834 L 1665.77,250.675 L 1665.82,250.511 L 1665.85,250.343 L 1665.88,250.172 L 1665.88,250 L 1663.88,250 Z" style="fill:#000000;fill-rule:evenodd;fill-opacity:1;stroke:#000000;stroke-width:0px;stroke-linecap:butt;stroke-linejoin:miter;stroke-opacity:1;"/>
<path d="M 3800.55,169.832 L 3800.54,169.66 L 3800.52,169.489 L 3800.48,169.321 L 3800.43,169.157 L 3800.36,168.998 L 3800.29,168.844 L 3800.2,168.698 L 3800.09,168.561 L 3799.98,168.433 L 3799.85,168.315 L 3799.72,168.209 L 3799.57,168.114 L 3799.42,168.033 L 3799.26,167.964 L 3799.1,167.91 L 3798.93,167.869 L 3798.76,167.843 L 3798.59,167.832 L 3798.42,167.836 L 3798.25,167.855 L 3798.08,167.888 L 3797.91,167.935 L 3797.75,167.997 L 3797.6,168.072 L 3797.45,168.16 L 3797.31,168.261 L 3797.18,168.373 L 3797.06,168.496 L 3796.95,168.629 L 3796.85,168.77 L 3796.77,168.92 L 3796.7,169.076 L 3796.64,169.238 L 3796.59,169.405 L 3796.56,169.574 L 3796.55,169.746 L 3796.55,169.918 L 3796.56,170.089 L 3796.59,170.259 L 3796.64,170.425 L 3796.7,170.587 L 3796.77,170.744 L 3796.85,170.893 L 3796.95,171.035 L 3797.06,171.168 L 3797.18,171.291 L 3797.31,171.403 L 3797.45,171.504 L 3797.6,171.592 L 3797.75,171.667 L 3797.91,171.729 L 3798.08,171.776 L 3798.25,171.809 L 3798.42,171.828 L 3798.59,171.831 L 3798.76,171.82 L 3798.93,171.795 L 3799.1,171.754 L 3799.26,171.7 L 3799.42,171.631 L 3799.57,171.549 L 3799.72,171.455 L 3799.85,171.349 L 3799.98,171.231 L 3800.09,171.103 L 3800.2,170.965 L 3800.29,170.819 L 3800.36,170.666 L 3800.43,170.507 L 3800.48,170.343 L 3800.52,170.174 L 3800.54,170.004 L 3800.55,169.832 L 3798.55,169.832 Z" style="fill:#000000;fill-rule:evenodd;fill-opacity:1;stroke:#000000;stroke-width:0px;stroke-linecap:butt;stroke-linejoin:miter;stroke-opacity:1;"/>
<path d="M 3800.55,177.832 L 3800.54,177.66 L 3800.52,177.489 L 3800.48,177.321 L 3800.43,177.157 L 3800.36,176.998 L 3800.29,176.844 L 3800.2,176.698 L 3800.09,176.561 L 3799.98,176.433 L 3799.85,176.315 L 3799.72,176.209 L 3799.57,176.114 L 3799.42,176.033 L 3799.26,175.964 L 3799.1,175.91 L 3798.93,175.869 L 3798.76,175.843 L 3798.59,175.832 L 3798.42,175.836 L 3798.25,175.855 L 3798.08,175.888 L 3797.91,175.935 L 3797.75,175.997 L 3797.6,176.072 L 3797.45,176.16 L 3797.31,176.261 L 3797.18,176.373 L 3797.06,176.496 L 3796.95,176.629 L 3796.85,176.77 L 3796.77,176.92 L 3796.7,177.076 L 3796.64,177.238 L 3796.59,177.405 L 3796.56,177.574 L 3796.55,177.746 L 3796.55,177.918 L 3796.56,178.089 L 3796.59,178.259 L 3796.64,178.425 L 3796.7,178.587 L 3796.77,178.744 L 3796.85,178.893 L 3796.95,179.035 L 3797.06,179.168 L 3797.18,179.291 L 3797.31,179.403 L 3797.45,179.504 L 3797.6,179.592 L 3797.75,179.667 L 3797.91,179.729 L 3798.08,179.776 L 3798.25,179.809 L 3798.42,179.828 L 3798.59,179.831 L 3798.76,179.82 L 3798.93,179.795 L 3799.1,179.754 L 3799.26,179.7 L 3799.42,179.631 L 3799.57,179.549 L 3799.72,179.455 L 3799.85,179.349 L 3799.98,179.231 L 3800.09,179.103 L 3800.2,178.965 L 3800.29,178.819 L 3800.36,178.666 L 3800.43,178.507 L 3800.48,178.343 L 3800.52,178.174 L 3800.54,178.004 L 3800.55,177.832 L 3798.55,177.832 Z" style="fill:#000000;fill-rule:evenodd;fill-opacity:1;stroke:#000000;stroke-width:0px;stroke-linecap:butt;stroke-linejoin:miter;stroke-opacity:1;"/>
<path d="M 3699.57,418.316 L 3699.56,418.144 L 3699.54,417.973 L 3699.5,417.805 L 3699.45,417.641 L 3699.39,417.481 L 3699.31,417.328 L 3699.22,417.182 L 3699.12,417.045 L 3699,416.917 L 3698.87,416.799 L 3698.74,416.693 L 3698.6,416.598 L 3698.44,416.516 L 3698.29,416.448 L 3698.12,416.393 L 3697.96,416.353 L 3697.79,416.327 L 3697.61,416.316 L 3697.44,416.32 L 3697.27,416.338 L 3697.1,416.372 L 3696.94,416.419 L 3696.78,416.481 L 3696.62,416.556 L 3696.47,416.644 L 3696.33,416.744 L 3696.2,416.857 L 3696.08,416.98 L 3695.97,417.112 L 3695.88,417.254 L 3695.79,417.404 L 3695.72,417.56 L 3695.66,417.722 L 3695.62,417.889 L 3695.59,418.058 L 3695.57,418.23 L 3695.57,418.402 L 3695.59,418.573 L 3695.62,418.743 L 3695.66,418.909 L 3695.72,419.071 L 3695.79,419.228 L 3695.88,419.377 L 3695.97,419.519 L 3696.08,419.652 L 3696.2,419.775 L 3696.33,419.887 L 3696.47,419.988 L 3696.62,420.076 L 3696.78,420.151 L 3696.94,420.212 L 3697.1,420.26 L 3697.27,420.293 L 3697.44,420.312 L 3697.61,420.315 L 3697.79,420.304 L 3697.96,420.278 L 3698.12,420.238 L 3698.29,420.183 L 3698.44,420.115 L 3698.6,420.033 L 3698.74,419.939 L 3698.87,419.832 L 3699,419.715 L 3699.12,419.587 L 3699.22,419.449 L 3699.31,419.303 L 3699.39,419.15 L 3699.45,418.991 L 3699.5,418.826 L 3699.54,418.658 L 3699.56,418.488 L 3699.57,418.316 L 3697.57,418.316 Z" style="fill:#000000;fill-rule:evenodd;fill-opacity:1;stroke:#000000;stroke-width:0px;stroke-linecap:butt;stroke-linejoin:miter;stroke-opacity:1;"/>
<path d="M 3699.57,431.588 L 3699.56,431.416 L 3699.54,431.245 L 3699.5,431.077 L 3699.45,430.913 L 3699.39,430.753 L 3699.31,430.6 L 3699.22,430.454 L 3699.12,430.317 L 3699,430.189 L 3698.87,430.071 L 3698.74,429.964 L 3698.6,429.87 L 3698.44,429.788 L 3698.29,429.72 L 3698.12,429.665 L 3697.96,429.625 L 3697.79,429.599 L 3697.61,429.588 L 3697.44,429.592 L 3697.27,429.61 L 3697.1,429.643 L 3696.94,429.691 L 3696.78,429.752 L 3696.62,429.828 L 3696.47,429.916 L 3696.33,430.016 L 3696.2,430.128 L 3696.08,430.251 L 3695.97,430.384 L 3695.88,430.526 L 3695.79,430.676 L 3695.72,430.832 L 3695.66,430.994 L 3695.62,431.161 L 3695.59,431.33 L 3695.57,431.502 L 3695.57,431.674 L 3695.59,431.845 L 3695.62,432.015 L 3695.66,432.181 L 3695.72,432.343 L 3695.79,432.499 L 3695.88,432.649 L 3695.97,432.791 L 3696.08,432.924 L 3696.2,433.047 L 3696.33,433.159 L 3696.47,433.259 L 3696.62,433.348 L 3696.78,433.423 L 3696.94,433.484 L 3697.1,433.532 L 3697.27,433.565 L 3697.44,433.583 L 3697.61,433.587 L 3697.79,433.576 L 3697.96,433.55 L 3698.12,433.51 L 3698.29,433.455 L 3698.44,433.387 L 3698.6,433.305 L 3698.74,433.211 L 3698.87,433.104 L 3699,432.986 L 3699.12,432.858 L 3699.22,432.721 L 3699.31,432.575 L 3699.39,432.422 L 3699.45,432.263 L 3699.5,432.098 L 3699.54,431.93 L 3699.56,431.759 L 3699.57,431.588 L 3697.57,431.588 Z" style="fill:#000000;fill-rule:evenodd;fill-opacity:1;stroke:#000000;stroke-width:0px;stroke-linecap:butt;stroke-linejoin:miter;stroke-opacity:1;"/>
<path d="M 3699.57,405.044 L 3699.56,404.872 L 3699.54,404.701 L 3699.5,404.533 L 3699.45,404.369 L 3699.39,404.21 L 3699.31,404.056 L 3699.22,403.911 L 3699.12,403.773 L 3699,403.645 L 3698.87,403.527 L 3698.74,403.421 L 3698.6,403.326 L 3698.44,403.245 L 3698.29,403.176 L 3698.12,403.122 L 3697.96,403.081 L 3697.79,403.055 L 3697.61,403.044 L 3697.44,403.048 L 3697.27,403.067 L 3697.1,403.1 L 3696.94,403.147 L 3696.78,403.209 L 3696.62,403.284 L 3696.47,403.372 L 3696.33,403.473 L 3696.2,403.585 L 3696.08,403.708 L 3695.97,403.841 L 3695.88,403.982 L 3695.79,404.132 L 3695.72,404.288 L 3695.66,404.45 L 3695.62,404.617 L 3695.59,404.786 L 3695.57,404.958 L 3695.57,405.13 L 3695.59,405.301 L 3695.62,405.471 L 3695.66,405.637 L 3695.72,405.799 L 3695.79,405.956 L 3695.88,406.105 L 3695.97,406.247 L 3696.08,406.38 L 3696.2,406.503 L 3696.33,406.615 L 3696.47,406.716 L 3696.62,406.804 L 3696.78,406.879 L 3696.94,406.941 L 3697.1,406.988 L 3697.27,407.021 L 3697.44,407.04 L 3697.61,407.043 L 3697.79,407.032 L 3697.96,407.007 L 3698.12,406.966 L 3698.29,406.912 L 3698.44,406.843 L 3698.6,406.761 L 3698.74,406.667 L 3698.87,406.561 L 3699,406.443 L 3699.12,406.315 L 3699.22,406.177 L 3699.31,406.031 L 3699.39,405.878 L 3699.45,405.719 L 3699.5,405.555 L 3699.54,405.386 L 3699.56,405.216 L 3699.57,405.044 L 3697.57,405.044 Z" style="fill:#000000;fill-rule:evenodd;fill-opacity:1;stroke:#000000;stroke-width:0px;stroke-linecap:butt;stroke-linejoin:miter;stroke-opacity:1;"/>
<path d="M 3699.57,418.316 L 3699.56,418.144 L 3699.54,417.973 L 3699.5,417.805 L 3699.45,417.641 L 3699.39,417.481 L 3699.31,417.328 L 3699.22,417.182 L 3699.12,417.045 L 3699,416.917 L 3698.87,416.799 L 3698.74,416.693 L 3698.6,416.598 L 3698.44,416.516 L 3698.29,416.448 L 3698.12,416.393 L 3697.96,416.353 L 3697.79,416.327 L 3697.61,416.316 L 3697.44,416.32 L 3697.27,416.338 L 3697.1,416.372 L 3696.94,416.419 L 3696.78,416.481 L 3696.62,416.556 L 3696.47,416.644 L 3696.33,416.744 L 3696.2,416.857 L 3696.08,416.98 L 3695.97,417.112 L 3695.88,417.254 L 3695.79,417.404 L 3695.72,417.56 L 3695.66,417.722 L 3695.62,417.889 L 3695.59,418.058 L 3695.57,418.23 L 3695.57,418.402 L 3695.59,418.573 L 3695.62,418.743 L 3695.66,418.909 L 3695.72,419.071 L 3695.79,419.228 L 3695.88,419.377 L 3695.97,419.519 L 3696.08,419.652 L 3696.2,419.775 L 3696.33,419.887 L 3696.47,419.988 L 3696.62,420.076 L 3696.78,420.151 L 3696.94,420.212 L 3697.1,420.26 L 3697.27,420.293 L 3697.44,420.312 L 3697.61,420.315 L 3697.79,420.304 L 3697.96,420.278 L 3698.12,420.238 L 3698.29,420.183 L 3698.44,420.115 L 3698.6,420.033 L 3698.74,419.939 L 3698.87,419.832 L 3699,419.715 L 3699.12,419.587 L 3699.22,419.449 L 3699.31,419.303 L 3699.39,419.15 L 3699.45,418.991 L 3699.5,418.826 L 3699.54,418.658 L 3699.56,418.488 L 3699.57,418.316 L 3697.57,418.316 Z" style="fill:#000000;fill-rule:evenodd;fill-opacity:1;stroke:#000000;stroke-width:0px;stroke-linecap:butt;stroke-linejoin:miter;stroke-opacity:1;"/>
<path d="M 911.848 255.464 L 917.896 255.464 L 917.896 249.096 L 920.584 249.096 L 920.584 255.464 L 926.792 255.464 L 926.792 257.768 L 920.584 257.768 L 920.584 264.168 L 917.896 264.168 L 917.896 257.768 L 911.848 257.768 L 911.848 255.464 " fill="#000000"/>
<path d="M 2936.65 255.464 L 2942.7 255.464 L 2942.7 249.096 L 2945.39 249.096 L 2945.39 255.464 L 2951.6 255.464 L 2951.6 257.768 L 2945.39 257.768 L 2945.39 264.168 L 2942.7 264.168 L 2942.7 257.768 L 2936.65 257.768 L 2936.65 255.464 " fill="#000000"/>
<path d="M 1862.36,257.768 L 2269.61,257.768" style="fill:none;fill-rule:evenodd;stroke:#000000;stroke-width:2.0px;stroke-linecap:butt;stroke-linejoin:miter;stroke-opacity:1"/>
<path d="M 2269.61,257.768 L 2251.98,247.587" style="fill:none;fill-rule:evenodd;stroke:#000000;stroke-width:2.0px;stroke-linecap:butt;stroke-linejoin:miter;stroke-opacity:1"/>
<path d="M 2269.61,257.768 L 2251.98,267.949" style="fill:none;fill-rule:evenodd;stroke:#000000;stroke-width:2.0px;stroke-linecap:butt;stroke-linejoin:miter;stroke-opacity:1"/>
</svg>