<svg xmlns="http://www.w3.org/2000/svg" xmlns:rdkit="http://www.rdkit.org/xml" xmlns:xlink="http://www.w3.org/1999/xlink" version="1.1" baseProfile="full" xml:space="preserve" width="4000px" height="500px" viewBox="0 0 4000 500">
<!-- END OF HEADER -->
<rect style="opacity:1.0;fill:#FFFFFF;stroke:none" width="4000" height="500" x="0" y="0"> </rect>
<path d="M 788.329,166.178 L 893.484,226.889" style="fill:none;fill-rule:evenodd;stroke:#FFFFAA;stroke-width:25.9px;stroke-linecap:butt;stroke-linejoin:miter;stroke-opacity:1"/>
<path d="M 893.484,226.889 L 998.64,166.178" style="fill:none;fill-rule:evenodd;stroke:#FFFFAA;stroke-width:25.9px;stroke-linecap:butt;stroke-linejoin:miter;stroke-opacity:1"/>
<path d="M 893.484,226.889 L 893.484,348.313" style="fill:none;fill-rule:evenodd;stroke:#FFFFAA;stroke-width:25.9px;stroke-linecap:butt;stroke-linejoin:miter;stroke-opacity:1"/>
<path d="M 1329.36,350.067 L 1426.73,277.525" style="fill:none;fill-rule:evenodd;stroke:#FFCC99;stroke-width:25.9px;stroke-linecap:butt;stroke-linejoin:miter;stroke-opacity:1"/>
<path d="M 1426.73,277.525 L 1412.59,156.927" style="fill:none;fill-rule:evenodd;stroke:#FFCC99;stroke-width:25.9px;stroke-linecap:butt;stroke-linejoin:miter;stroke-opacity:1"/>
<path d="M 1426.73,277.525 L 1538.24,325.58" style="fill:none;fill-rule:evenodd;stroke:#FFCC99;stroke-width:25.9px;stroke-linecap:butt;stroke-linejoin:miter;stroke-opacity:1"/>
<path d="M 1412.59,156.927 L 1509.96,84.3847" style="fill:none;fill-rule:evenodd;stroke:#FFCC99;stroke-width:25.9px;stroke-linecap:butt;stroke-linejoin:miter;stroke-opacity:1"/>
<path d="M 1509.96,84.3847 L 1621.47,132.44" style="fill:none;fill-rule:evenodd;stroke:#FFCC99;stroke-width:25.9px;stroke-linecap:butt;stroke-linejoin:miter;stroke-opacity:1"/>
<path d="M 1621.47,132.44 L 1718.84,59.8971" style="fill:none;fill-rule:evenodd;stroke:#FFCC99;stroke-width:25.9px;stroke-linecap:butt;stroke-linejoin:miter;stroke-opacity:1"/>
<path d="M 1621.47,132.44 L 1635.61,253.037" style="fill:none;fill-rule:evenodd;stroke:#FFCC99;stroke-width:25.9px;stroke-linecap:butt;stroke-linejoin:miter;stroke-opacity:1"/>
<path d="M 1635.61,253.037 L 1747.12,301.092" style="fill:none;fill-rule:evenodd;stroke:#FFCC99;stroke-width:25.9px;stroke-linecap:butt;stroke-linejoin:miter;stroke-opacity:1"/>
<path d="M 1635.61,253.037 L 1538.24,325.58" style="fill:none;fill-rule:evenodd;stroke:#FFCC99;stroke-width:25.9px;stroke-linecap:butt;stroke-linejoin:miter;stroke-opacity:1"/>
<path d="M 1747.12,301.092 L 1761.26,421.689" style="fill:none;fill-rule:evenodd;stroke:#FFCC99;stroke-width:25.9px;stroke-linecap:butt;stroke-linejoin:miter;stroke-opacity:1"/>
<path d="M 1747.12,301.092 L 1844.49,228.549" style="fill:none;fill-rule:evenodd;stroke:#FFCC99;stroke-width:25.9px;stroke-linecap:butt;stroke-linejoin:miter;stroke-opacity:1"/>
<path d="M 2651.78,322.341 L 2756.26,260.473" style="fill:none;fill-rule:evenodd;stroke:#FFFFAA;stroke-width:25.9px;stroke-linecap:butt;stroke-linejoin:miter;stroke-opacity:1"/>
<path d="M 2756.26,260.473 L 2754.92,139.058" style="fill:none;fill-rule:evenodd;stroke:#FFFFAA;stroke-width:25.9px;stroke-linecap:butt;stroke-linejoin:miter;stroke-opacity:1"/>
<path d="M 2862.08,320.022 L 2966.56,258.155" style="fill:none;fill-rule:evenodd;stroke:#FFCC99;stroke-width:25.9px;stroke-linecap:butt;stroke-linejoin:miter;stroke-opacity:1"/>
<path d="M 2966.56,258.155 L 2965.22,136.739" style="fill:none;fill-rule:evenodd;stroke:#FFCC99;stroke-width:25.9px;stroke-linecap:butt;stroke-linejoin:miter;stroke-opacity:1"/>
<path d="M 2966.56,258.155 L 3072.38,317.703" style="fill:none;fill-rule:evenodd;stroke:#FFCC99;stroke-width:25.9px;stroke-linecap:butt;stroke-linejoin:miter;stroke-opacity:1"/>
<path d="M 2965.22,136.739 L 3069.7,74.8716" style="fill:none;fill-rule:evenodd;stroke:#FFCC99;stroke-width:25.9px;stroke-linecap:butt;stroke-linejoin:miter;stroke-opacity:1"/>
<path d="M 3069.7,74.8716 L 3175.52,134.42" style="fill:none;fill-rule:evenodd;stroke:#FFCC99;stroke-width:25.9px;stroke-linecap:butt;stroke-linejoin:miter;stroke-opacity:1"/>
<path d="M 3175.52,134.42 L 3280,72.553" style="fill:none;fill-rule:evenodd;stroke:#FFCC99;stroke-width:25.9px;stroke-linecap:butt;stroke-linejoin:miter;stroke-opacity:1"/>
<path d="M 3175.52,134.42 L 3176.86,255.836" style="fill:none;fill-rule:evenodd;stroke:#FFCC99;stroke-width:25.9px;stroke-linecap:butt;stroke-linejoin:miter;stroke-opacity:1"/>
<path d="M 3176.86,255.836 L 3282.68,315.385" style="fill:none;fill-rule:evenodd;stroke:#FFCC99;stroke-width:25.9px;stroke-linecap:butt;stroke-linejoin:miter;stroke-opacity:1"/>
<path d="M 3176.86,255.836 L 3072.38,317.703" style="fill:none;fill-rule:evenodd;stroke:#FFCC99;stroke-width:25.9px;stroke-linecap:butt;stroke-linejoin:miter;stroke-opacity:1"/>
<path d="M 3282.68,315.385 L 3284.01,436.801" style="fill:none;fill-rule:evenodd;stroke:#FFCC99;stroke-width:25.9px;stroke-linecap:butt;stroke-linejoin:miter;stroke-opacity:1"/>
<path d="M 3282.68,315.385 L 3387.16,253.518" style="fill:none;fill-rule:evenodd;stroke:#FFCC99;stroke-width:25.9px;stroke-linecap:butt;stroke-linejoin:miter;stroke-opacity:1"/>
<ellipse cx="893.484" cy="226.889" rx="24.2847" ry="24.2847" style="fill:#FFFFAA;fill-rule:evenodd;stroke:#FFFFAA;stroke-width:1px;stroke-linecap:butt;stroke-linejoin:miter;stroke-opacity:1"/>
<ellipse cx="998.64" cy="166.178" rx="24.2847" ry="24.2847" style="fill:#FFFFAA;fill-rule:evenodd;stroke:#FFFFAA;stroke-width:1px;stroke-linecap:butt;stroke-linejoin:miter;stroke-opacity:1"/>
<ellipse cx="893.484" cy="348.533" rx="24.2847" ry="24.2847" style="fill:#FFFFAA;fill-rule:evenodd;stroke:#FFFFAA;stroke-width:1px;stroke-linecap:butt;stroke-linejoin:miter;stroke-opacity:1"/>
<ellipse cx="1309.66" cy="357.147" rx="43.0436" ry="30.0379" style="fill:#FFCC99;fill-rule:evenodd;stroke:#FFCC99;stroke-width:1px;stroke-linecap:butt;stroke-linejoin:miter;stroke-opacity:1"/>
<ellipse cx="1426.73" cy="277.525" rx="24.2847" ry="24.2847" style="fill:#FFCC99;fill-rule:evenodd;stroke:#FFCC99;stroke-width:1px;stroke-linecap:butt;stroke-linejoin:miter;stroke-opacity:1"/>
<ellipse cx="1412.59" cy="156.927" rx="24.2847" ry="24.2847" style="fill:#FFCC99;fill-rule:evenodd;stroke:#FFCC99;stroke-width:1px;stroke-linecap:butt;stroke-linejoin:miter;stroke-opacity:1"/>
<ellipse cx="1509.96" cy="84.3847" rx="24.2847" ry="24.2847" style="fill:#FFCC99;fill-rule:evenodd;stroke:#FFCC99;stroke-width:1px;stroke-linecap:butt;stroke-linejoin:miter;stroke-opacity:1"/>
<ellipse cx="1621.47" cy="132.44" rx="24.2847" ry="24.2847" style="fill:#FFCC99;fill-rule:evenodd;stroke:#FFCC99;stroke-width:1px;stroke-linecap:butt;stroke-linejoin:miter;stroke-opacity:1"/>
<ellipse cx="1731.62" cy="60.1171" rx="36.4584" ry="24.2847" style="fill:#FFCC99;fill-rule:evenodd;stroke:#FFCC99;stroke-width:1px;stroke-linecap:butt;stroke-linejoin:miter;stroke-opacity:1"/>
<ellipse cx="1635.61" cy="253.037" rx="24.2847" ry="24.2847" style="fill:#FFCC99;fill-rule:evenodd;stroke:#FFCC99;stroke-width:1px;stroke-linecap:butt;stroke-linejoin:miter;stroke-opacity:1"/>
<ellipse cx="1754.47" cy="301.018" rx="25.5865" ry="24.2847" style="fill:#FFCC99;fill-rule:evenodd;stroke:#FFCC99;stroke-width:1px;stroke-linecap:butt;stroke-linejoin:miter;stroke-opacity:1"/>
<ellipse cx="1761.26" cy="421.909" rx="24.2847" ry="24.2847" style="fill:#FFCC99;fill-rule:evenodd;stroke:#FFCC99;stroke-width:1px;stroke-linecap:butt;stroke-linejoin:miter;stroke-opacity:1"/>
<ellipse cx="1849.99" cy="228.769" rx="26.1692" ry="24.2847" style="fill:#FFCC99;fill-rule:evenodd;stroke:#FFCC99;stroke-width:1px;stroke-linecap:butt;stroke-linejoin:miter;stroke-opacity:1"/>
<ellipse cx="1538.24" cy="325.58" rx="24.2847" ry="24.2847" style="fill:#FFCC99;fill-rule:evenodd;stroke:#FFCC99;stroke-width:1px;stroke-linecap:butt;stroke-linejoin:miter;stroke-opacity:1"/>
<ellipse cx="2651.78" cy="322.341" rx="24.2847" ry="24.2847" style="fill:#FFFFAA;fill-rule:evenodd;stroke:#FFFFAA;stroke-width:1px;stroke-linecap:butt;stroke-linejoin:miter;stroke-opacity:1"/>
<ellipse cx="2756.26" cy="260.473" rx="24.2847" ry="24.2847" style="fill:#FFFFAA;fill-rule:evenodd;stroke:#FFFFAA;stroke-width:1px;stroke-linecap:butt;stroke-linejoin:miter;stroke-opacity:1"/>
<ellipse cx="2754.92" cy="139.278" rx="24.2847" ry="24.2847" style="fill:#FFFFAA;fill-rule:evenodd;stroke:#FFFFAA;stroke-width:1px;stroke-linecap:butt;stroke-linejoin:miter;stroke-opacity:1"/>
<ellipse cx="2862.08" cy="335.598" rx="24.2847" ry="42.0531" style="fill:#FFCC99;fill-rule:evenodd;stroke:#FFCC99;stroke-width:1px;stroke-linecap:butt;stroke-linejoin:miter;stroke-opacity:1"/>
<ellipse cx="2966.56" cy="258.155" rx="24.2847" ry="24.2847" style="fill:#FFCC99;fill-rule:evenodd;stroke:#FFCC99;stroke-width:1px;stroke-linecap:butt;stroke-linejoin:miter;stroke-opacity:1"/>
<ellipse cx="2965.22" cy="136.739" rx="24.2847" ry="24.2847" style="fill:#FFCC99;fill-rule:evenodd;stroke:#FFCC99;stroke-width:1px;stroke-linecap:butt;stroke-linejoin:miter;stroke-opacity:1"/>
<ellipse cx="3069.7" cy="74.8716" rx="24.2847" ry="24.2847" style="fill:#FFCC99;fill-rule:evenodd;stroke:#FFCC99;stroke-width:1px;stroke-linecap:butt;stroke-linejoin:miter;stroke-opacity:1"/>
<ellipse cx="3175.52" cy="134.42" rx="24.2847" ry="24.2847" style="fill:#FFCC99;fill-rule:evenodd;stroke:#FFCC99;stroke-width:1px;stroke-linecap:butt;stroke-linejoin:miter;stroke-opacity:1"/>
<ellipse cx="3292.78" cy="72.773" rx="36.4584" ry="24.2847" style="fill:#FFCC99;fill-rule:evenodd;stroke:#FFCC99;stroke-width:1px;stroke-linecap:butt;stroke-linejoin:miter;stroke-opacity:1"/>
<ellipse cx="3176.86" cy="255.836" rx="24.2847" ry="24.2847" style="fill:#FFCC99;fill-rule:evenodd;stroke:#FFCC99;stroke-width:1px;stroke-linecap:butt;stroke-linejoin:miter;stroke-opacity:1"/>
<ellipse cx="3290.03" cy="315.31" rx="25.5865" ry="24.2847" style="fill:#FFCC99;fill-rule:evenodd;stroke:#FFCC99;stroke-width:1px;stroke-linecap:butt;stroke-linejoin:miter;stroke-opacity:1"/>
<ellipse cx="3284.01" cy="437.021" rx="24.2847" ry="24.2847" style="fill:#FFCC99;fill-rule:evenodd;stroke:#FFCC99;stroke-width:1px;stroke-linecap:butt;stroke-linejoin:miter;stroke-opacity:1"/>
<ellipse cx="3392.66" cy="253.738" rx="26.1692" ry="24.2847" style="fill:#FFCC99;fill-rule:evenodd;stroke:#FFCC99;stroke-width:1px;stroke-linecap:butt;stroke-linejoin:miter;stroke-opacity:1"/>
<ellipse cx="3072.38" cy="317.703" rx="24.2847" ry="24.2847" style="fill:#FFCC99;fill-rule:evenodd;stroke:#FFCC99;stroke-width:1px;stroke-linecap:butt;stroke-linejoin:miter;stroke-opacity:1"/>
<path class="bond-0" d="M 578.017,166.178 L 683.173,226.889" style="fill:none;fill-rule:evenodd;stroke:#000000;stroke-width:2.0px;stroke-linecap:butt;stroke-linejoin:miter;stroke-opacity:1"/>
<path class="bond-1" d="M 671.031,226.889 L 671.031,278.923" style="fill:none;fill-rule:evenodd;stroke:#000000;stroke-width:2.0px;stroke-linecap:butt;stroke-linejoin:miter;stroke-opacity:1"/>
<path class="bond-1" d="M 671.031,278.923 L 671.031,330.957" style="fill:none;fill-rule:evenodd;stroke:#FF0000;stroke-width:2.0px;stroke-linecap:butt;stroke-linejoin:miter;stroke-opacity:1"/>
<path class="bond-1" d="M 695.315,226.889 L 695.315,278.923" style="fill:none;fill-rule:evenodd;stroke:#000000;stroke-width:2.0px;stroke-linecap:butt;stroke-linejoin:miter;stroke-opacity:1"/>
<path class="bond-1" d="M 695.315,278.923 L 695.315,330.957" style="fill:none;fill-rule:evenodd;stroke:#FF0000;stroke-width:2.0px;stroke-linecap:butt;stroke-linejoin:miter;stroke-opacity:1"/>
<path class="bond-2" d="M 683.173,226.889 L 727.733,201.163" style="fill:none;fill-rule:evenodd;stroke:#000000;stroke-width:2.0px;stroke-linecap:butt;stroke-linejoin:miter;stroke-opacity:1"/>
<path class="bond-2" d="M 727.733,201.163 L 772.293,175.436" style="fill:none;fill-rule:evenodd;stroke:#FF0000;stroke-width:2.0px;stroke-linecap:butt;stroke-linejoin:miter;stroke-opacity:1"/>
<path class="bond-3" d="M 804.364,175.436 L 848.924,201.163" style="fill:none;fill-rule:evenodd;stroke:#FF0000;stroke-width:2.0px;stroke-linecap:butt;stroke-linejoin:miter;stroke-opacity:1"/>
<path class="bond-3" d="M 848.924,201.163 L 893.484,226.889" style="fill:none;fill-rule:evenodd;stroke:#000000;stroke-width:2.0px;stroke-linecap:butt;stroke-linejoin:miter;stroke-opacity:1"/>
<path class="bond-4" d="M 893.484,226.889 L 998.64,166.178" style="fill:none;fill-rule:evenodd;stroke:#000000;stroke-width:2.0px;stroke-linecap:butt;stroke-linejoin:miter;stroke-opacity:1"/>
<path class="bond-5" d="M 881.342,226.889 L 881.342,278.923" style="fill:none;fill-rule:evenodd;stroke:#000000;stroke-width:2.0px;stroke-linecap:butt;stroke-linejoin:miter;stroke-opacity:1"/>
<path class="bond-5" d="M 881.342,278.923 L 881.342,330.957" style="fill:none;fill-rule:evenodd;stroke:#FF0000;stroke-width:2.0px;stroke-linecap:butt;stroke-linejoin:miter;stroke-opacity:1"/>
<path class="bond-5" d="M 905.627,226.889 L 905.627,278.923" style="fill:none;fill-rule:evenodd;stroke:#000000;stroke-width:2.0px;stroke-linecap:butt;stroke-linejoin:miter;stroke-opacity:1"/>
<path class="bond-5" d="M 905.627,278.923 L 905.627,330.957" style="fill:none;fill-rule:evenodd;stroke:#FF0000;stroke-width:2.0px;stroke-linecap:butt;stroke-linejoin:miter;stroke-opacity:1"/>
<path class="bond-6" d="M 1343.13,339.804 L 1384.93,308.664" style="fill:none;fill-rule:evenodd;stroke:#0000FF;stroke-width:2.0px;stroke-linecap:butt;stroke-linejoin:miter;stroke-opacity:1"/>
<path class="bond-6" d="M 1384.93,308.664 L 1426.73,277.525" style="fill:none;fill-rule:evenodd;stroke:#000000;stroke-width:2.0px;stroke-linecap:butt;stroke-linejoin:miter;stroke-opacity:1"/>
<path class="bond-7" d="M 1426.73,277.525 L 1412.59,156.927" style="fill:none;fill-rule:evenodd;stroke:#000000;stroke-width:2.0px;stroke-linecap:butt;stroke-linejoin:miter;stroke-opacity:1"/>
<path class="bond-7" d="M 1448.73,256.607 L 1438.83,172.189" style="fill:none;fill-rule:evenodd;stroke:#000000;stroke-width:2.0px;stroke-linecap:butt;stroke-linejoin:miter;stroke-opacity:1;stroke-dasharray:6,6"/>
<path class="bond-16" d="M 1426.73,277.525 L 1538.24,325.58" style="fill:none;fill-rule:evenodd;stroke:#000000;stroke-width:2.0px;stroke-linecap:butt;stroke-linejoin:miter;stroke-opacity:1"/>
<path class="bond-16" d="M 1453.06,262.431 L 1531.12,296.069" style="fill:none;fill-rule:evenodd;stroke:#000000;stroke-width:2.0px;stroke-linecap:butt;stroke-linejoin:miter;stroke-opacity:1;stroke-dasharray:6,6"/>
<path class="bond-8" d="M 1412.59,156.927 L 1509.96,84.3847" style="fill:none;fill-rule:evenodd;stroke:#000000;stroke-width:2.0px;stroke-linecap:butt;stroke-linejoin:miter;stroke-opacity:1"/>
<path class="bond-8" d="M 1441.7,165.52 L 1509.86,114.74" style="fill:none;fill-rule:evenodd;stroke:#000000;stroke-width:2.0px;stroke-linecap:butt;stroke-linejoin:miter;stroke-opacity:1;stroke-dasharray:6,6"/>
<path class="bond-9" d="M 1509.96,84.3847 L 1621.47,132.44" style="fill:none;fill-rule:evenodd;stroke:#000000;stroke-width:2.0px;stroke-linecap:butt;stroke-linejoin:miter;stroke-opacity:1"/>
<path class="bond-9" d="M 1517.08,113.895 L 1595.13,147.533" style="fill:none;fill-rule:evenodd;stroke:#000000;stroke-width:2.0px;stroke-linecap:butt;stroke-linejoin:miter;stroke-opacity:1;stroke-dasharray:6,6"/>
<path class="bond-10" d="M 1621.47,132.44 L 1662.14,102.142" style="fill:none;fill-rule:evenodd;stroke:#000000;stroke-width:2.0px;stroke-linecap:butt;stroke-linejoin:miter;stroke-opacity:1"/>
<path class="bond-10" d="M 1662.14,102.142 L 1702.81,71.8437" style="fill:none;fill-rule:evenodd;stroke:#FF0000;stroke-width:2.0px;stroke-linecap:butt;stroke-linejoin:miter;stroke-opacity:1"/>
<path class="bond-11" d="M 1621.47,132.44 L 1635.61,253.037" style="fill:none;fill-rule:evenodd;stroke:#000000;stroke-width:2.0px;stroke-linecap:butt;stroke-linejoin:miter;stroke-opacity:1"/>
<path class="bond-11" d="M 1599.47,153.357 L 1609.37,237.775" style="fill:none;fill-rule:evenodd;stroke:#000000;stroke-width:2.0px;stroke-linecap:butt;stroke-linejoin:miter;stroke-opacity:1;stroke-dasharray:6,6"/>
<path class="bond-12" d="M 1635.61,253.037 L 1684.48,274.096" style="fill:none;fill-rule:evenodd;stroke:#000000;stroke-width:2.0px;stroke-linecap:butt;stroke-linejoin:miter;stroke-opacity:1"/>
<path class="bond-12" d="M 1684.48,274.096 L 1733.34,295.155" style="fill:none;fill-rule:evenodd;stroke:#0000FF;stroke-width:2.0px;stroke-linecap:butt;stroke-linejoin:miter;stroke-opacity:1"/>
<path class="bond-15" d="M 1635.61,253.037 L 1538.24,325.58" style="fill:none;fill-rule:evenodd;stroke:#000000;stroke-width:2.0px;stroke-linecap:butt;stroke-linejoin:miter;stroke-opacity:1"/>
<path class="bond-15" d="M 1606.49,244.444 L 1538.33,295.224" style="fill:none;fill-rule:evenodd;stroke:#000000;stroke-width:2.0px;stroke-linecap:butt;stroke-linejoin:miter;stroke-opacity:1;stroke-dasharray:6,6"/>
<path class="bond-13" d="M 1737.07,319.701 L 1742.14,362.941" style="fill:none;fill-rule:evenodd;stroke:#0000FF;stroke-width:2.0px;stroke-linecap:butt;stroke-linejoin:miter;stroke-opacity:1"/>
<path class="bond-13" d="M 1742.14,362.941 L 1747.21,406.18" style="fill:none;fill-rule:evenodd;stroke:#FF0000;stroke-width:2.0px;stroke-linecap:butt;stroke-linejoin:miter;stroke-opacity:1"/>
<path class="bond-13" d="M 1761.19,316.874 L 1766.26,360.113" style="fill:none;fill-rule:evenodd;stroke:#0000FF;stroke-width:2.0px;stroke-linecap:butt;stroke-linejoin:miter;stroke-opacity:1"/>
<path class="bond-13" d="M 1766.26,360.113 L 1771.33,403.353" style="fill:none;fill-rule:evenodd;stroke:#FF0000;stroke-width:2.0px;stroke-linecap:butt;stroke-linejoin:miter;stroke-opacity:1"/>
<path class="bond-14" d="M 1770.4,283.748 L 1799.79,261.851" style="fill:none;fill-rule:evenodd;stroke:#0000FF;stroke-width:2.0px;stroke-linecap:butt;stroke-linejoin:miter;stroke-opacity:1"/>
<path class="bond-14" d="M 1799.79,261.851 L 1829.18,239.955" style="fill:none;fill-rule:evenodd;stroke:#FF0000;stroke-width:2.0px;stroke-linecap:butt;stroke-linejoin:miter;stroke-opacity:1"/>
<path class="bond-17" d="M 2651.78,322.341 L 2756.26,260.473" style="fill:none;fill-rule:evenodd;stroke:#000000;stroke-width:2.0px;stroke-linecap:butt;stroke-linejoin:miter;stroke-opacity:1"/>
<path class="bond-18" d="M 2768.4,260.34 L 2767.83,208.529" style="fill:none;fill-rule:evenodd;stroke:#000000;stroke-width:2.0px;stroke-linecap:butt;stroke-linejoin:miter;stroke-opacity:1"/>
<path class="bond-18" d="M 2767.83,208.529 L 2767.26,156.719" style="fill:none;fill-rule:evenodd;stroke:#FF0000;stroke-width:2.0px;stroke-linecap:butt;stroke-linejoin:miter;stroke-opacity:1"/>
<path class="bond-18" d="M 2744.12,260.607 L 2743.55,208.797" style="fill:none;fill-rule:evenodd;stroke:#000000;stroke-width:2.0px;stroke-linecap:butt;stroke-linejoin:miter;stroke-opacity:1"/>
<path class="bond-18" d="M 2743.55,208.797 L 2742.98,156.987" style="fill:none;fill-rule:evenodd;stroke:#FF0000;stroke-width:2.0px;stroke-linecap:butt;stroke-linejoin:miter;stroke-opacity:1"/>
<path class="bond-19" d="M 2756.26,260.473 L 2802.28,286.372" style="fill:none;fill-rule:evenodd;stroke:#000000;stroke-width:2.0px;stroke-linecap:butt;stroke-linejoin:miter;stroke-opacity:1"/>
<path class="bond-19" d="M 2802.28,286.372 L 2848.3,312.27" style="fill:none;fill-rule:evenodd;stroke:#0000FF;stroke-width:2.0px;stroke-linecap:butt;stroke-linejoin:miter;stroke-opacity:1"/>
<path class="bond-20" d="M 2875.85,311.865 L 2921.21,285.01" style="fill:none;fill-rule:evenodd;stroke:#0000FF;stroke-width:2.0px;stroke-linecap:butt;stroke-linejoin:miter;stroke-opacity:1"/>
<path class="bond-20" d="M 2921.21,285.01 L 2966.56,258.155" style="fill:none;fill-rule:evenodd;stroke:#000000;stroke-width:2.0px;stroke-linecap:butt;stroke-linejoin:miter;stroke-opacity:1"/>
<path class="bond-21" d="M 2966.56,258.155 L 2965.22,136.739" style="fill:none;fill-rule:evenodd;stroke:#000000;stroke-width:2.0px;stroke-linecap:butt;stroke-linejoin:miter;stroke-opacity:1"/>
<path class="bond-21" d="M 2990.64,239.675 L 2989.7,154.684" style="fill:none;fill-rule:evenodd;stroke:#000000;stroke-width:2.0px;stroke-linecap:butt;stroke-linejoin:miter;stroke-opacity:1;stroke-dasharray:6,6"/>
<path class="bond-30" d="M 2966.56,258.155 L 3072.38,317.703" style="fill:none;fill-rule:evenodd;stroke:#000000;stroke-width:2.0px;stroke-linecap:butt;stroke-linejoin:miter;stroke-opacity:1"/>
<path class="bond-30" d="M 2994.34,245.923 L 3068.41,287.607" style="fill:none;fill-rule:evenodd;stroke:#000000;stroke-width:2.0px;stroke-linecap:butt;stroke-linejoin:miter;stroke-opacity:1;stroke-dasharray:6,6"/>
<path class="bond-22" d="M 2965.22,136.739 L 3069.7,74.8716" style="fill:none;fill-rule:evenodd;stroke:#000000;stroke-width:2.0px;stroke-linecap:butt;stroke-linejoin:miter;stroke-opacity:1"/>
<path class="bond-22" d="M 2993.27,148.355 L 3066.4,105.048" style="fill:none;fill-rule:evenodd;stroke:#000000;stroke-width:2.0px;stroke-linecap:butt;stroke-linejoin:miter;stroke-opacity:1;stroke-dasharray:6,6"/>
<path class="bond-23" d="M 3069.7,74.8716 L 3175.52,134.42" style="fill:none;fill-rule:evenodd;stroke:#000000;stroke-width:2.0px;stroke-linecap:butt;stroke-linejoin:miter;stroke-opacity:1"/>
<path class="bond-23" d="M 3073.66,104.968 L 3147.74,146.652" style="fill:none;fill-rule:evenodd;stroke:#000000;stroke-width:2.0px;stroke-linecap:butt;stroke-linejoin:miter;stroke-opacity:1;stroke-dasharray:6,6"/>
<path class="bond-24" d="M 3175.52,134.42 L 3219.74,108.234" style="fill:none;fill-rule:evenodd;stroke:#000000;stroke-width:2.0px;stroke-linecap:butt;stroke-linejoin:miter;stroke-opacity:1"/>
<path class="bond-24" d="M 3219.74,108.234 L 3263.96,82.0484" style="fill:none;fill-rule:evenodd;stroke:#FF0000;stroke-width:2.0px;stroke-linecap:butt;stroke-linejoin:miter;stroke-opacity:1"/>
<path class="bond-25" d="M 3175.52,134.42 L 3176.86,255.836" style="fill:none;fill-rule:evenodd;stroke:#000000;stroke-width:2.0px;stroke-linecap:butt;stroke-linejoin:miter;stroke-opacity:1"/>
<path class="bond-25" d="M 3151.44,152.9 L 3152.37,237.892" style="fill:none;fill-rule:evenodd;stroke:#000000;stroke-width:2.0px;stroke-linecap:butt;stroke-linejoin:miter;stroke-opacity:1;stroke-dasharray:6,6"/>
<path class="bond-26" d="M 3176.86,255.836 L 3222.88,281.734" style="fill:none;fill-rule:evenodd;stroke:#000000;stroke-width:2.0px;stroke-linecap:butt;stroke-linejoin:miter;stroke-opacity:1"/>
<path class="bond-26" d="M 3222.88,281.734 L 3268.9,307.633" style="fill:none;fill-rule:evenodd;stroke:#0000FF;stroke-width:2.0px;stroke-linecap:butt;stroke-linejoin:miter;stroke-opacity:1"/>
<path class="bond-29" d="M 3176.86,255.836 L 3072.38,317.703" style="fill:none;fill-rule:evenodd;stroke:#000000;stroke-width:2.0px;stroke-linecap:butt;stroke-linejoin:miter;stroke-opacity:1"/>
<path class="bond-29" d="M 3148.81,244.22 L 3075.68,287.527" style="fill:none;fill-rule:evenodd;stroke:#000000;stroke-width:2.0px;stroke-linecap:butt;stroke-linejoin:miter;stroke-opacity:1;stroke-dasharray:6,6"/>
<path class="bond-27" d="M 3270.72,332.714 L 3271.21,376.362" style="fill:none;fill-rule:evenodd;stroke:#0000FF;stroke-width:2.0px;stroke-linecap:butt;stroke-linejoin:miter;stroke-opacity:1"/>
<path class="bond-27" d="M 3271.21,376.362 L 3271.69,420.009" style="fill:none;fill-rule:evenodd;stroke:#FF0000;stroke-width:2.0px;stroke-linecap:butt;stroke-linejoin:miter;stroke-opacity:1"/>
<path class="bond-27" d="M 3295.01,332.447 L 3295.49,376.094" style="fill:none;fill-rule:evenodd;stroke:#0000FF;stroke-width:2.0px;stroke-linecap:butt;stroke-linejoin:miter;stroke-opacity:1"/>
<path class="bond-27" d="M 3295.49,376.094 L 3295.97,419.741" style="fill:none;fill-rule:evenodd;stroke:#FF0000;stroke-width:2.0px;stroke-linecap:butt;stroke-linejoin:miter;stroke-opacity:1"/>
<path class="bond-28" d="M 3311.16,298.52 L 3341.55,280.522" style="fill:none;fill-rule:evenodd;stroke:#0000FF;stroke-width:2.0px;stroke-linecap:butt;stroke-linejoin:miter;stroke-opacity:1"/>
<path class="bond-28" d="M 3341.55,280.522 L 3371.95,262.523" style="fill:none;fill-rule:evenodd;stroke:#FF0000;stroke-width:2.0px;stroke-linecap:butt;stroke-linejoin:miter;stroke-opacity:1"/>
<path class="bond-31" d="M 2108.34,156.557 L 2155.66,129.236" style="fill:none;fill-rule:evenodd;stroke:#000000;stroke-width:2.0px;stroke-linecap:butt;stroke-linejoin:miter;stroke-opacity:1"/>
<path class="bond-32" d="M 2152.02,135.546 L 2168.5,145.059" style="fill:none;fill-rule:evenodd;stroke:#000000;stroke-width:2.0px;stroke-linecap:butt;stroke-linejoin:miter;stroke-opacity:1"/>
<path class="bond-32" d="M 2168.5,145.059 L 2184.98,154.572" style="fill:none;fill-rule:evenodd;stroke:#FF0000;stroke-width:2.0px;stroke-linecap:butt;stroke-linejoin:miter;stroke-opacity:1"/>
<path class="bond-32" d="M 2159.31,122.927 L 2175.78,132.44" style="fill:none;fill-rule:evenodd;stroke:#000000;stroke-width:2.0px;stroke-linecap:butt;stroke-linejoin:miter;stroke-opacity:1"/>
<path class="bond-32" d="M 2175.78,132.44 L 2192.26,141.953" style="fill:none;fill-rule:evenodd;stroke:#FF0000;stroke-width:2.0px;stroke-linecap:butt;stroke-linejoin:miter;stroke-opacity:1"/>
<path class="bond-33" d="M 2155.66,129.236 L 2155.66,109.979" style="fill:none;fill-rule:evenodd;stroke:#000000;stroke-width:2.0px;stroke-linecap:butt;stroke-linejoin:miter;stroke-opacity:1"/>
<path class="bond-33" d="M 2155.66,109.979 L 2155.66,90.7218" style="fill:none;fill-rule:evenodd;stroke:#FF0000;stroke-width:2.0px;stroke-linecap:butt;stroke-linejoin:miter;stroke-opacity:1"/>
<path class="atom-2" d="M 670.173 348.393 Q 670.173 341.593, 673.533 337.793 Q 676.893 333.993, 683.173 333.993 Q 689.453 333.993, 692.813 337.793 Q 696.173 341.593, 696.173 348.393 Q 696.173 355.273, 692.773 359.193 Q 689.373 363.073, 683.173 363.073 Q 676.933 363.073, 673.533 359.193 Q 670.173 355.313, 670.173 348.393 M 683.173 359.873 Q 687.493 359.873, 689.813 356.993 Q 692.173 354.073, 692.173 348.393 Q 692.173 342.833, 689.813 340.033 Q 687.493 337.193, 683.173 337.193 Q 678.853 337.193, 676.493 339.993 Q 674.173 342.793, 674.173 348.393 Q 674.173 354.113, 676.493 356.993 Q 678.853 359.873, 683.173 359.873 " fill="#FF0000"/>
<path class="atom-3" d="M 775.329 166.258 Q 775.329 159.458, 778.689 155.658 Q 782.049 151.858, 788.329 151.858 Q 794.609 151.858, 797.969 155.658 Q 801.329 159.458, 801.329 166.258 Q 801.329 173.138, 797.929 177.058 Q 794.529 180.938, 788.329 180.938 Q 782.089 180.938, 778.689 177.058 Q 775.329 173.178, 775.329 166.258 M 788.329 177.738 Q 792.649 177.738, 794.969 174.858 Q 797.329 171.938, 797.329 166.258 Q 797.329 160.698, 794.969 157.898 Q 792.649 155.058, 788.329 155.058 Q 784.009 155.058, 781.649 157.858 Q 779.329 160.658, 779.329 166.258 Q 779.329 171.978, 781.649 174.858 Q 784.009 177.738, 788.329 177.738 " fill="#FF0000"/>
<path class="atom-6" d="M 880.484 348.393 Q 880.484 341.593, 883.844 337.793 Q 887.204 333.993, 893.484 333.993 Q 899.764 333.993, 903.124 337.793 Q 906.484 341.593, 906.484 348.393 Q 906.484 355.273, 903.084 359.193 Q 899.684 363.073, 893.484 363.073 Q 887.244 363.073, 883.844 359.193 Q 880.484 355.313, 880.484 348.393 M 893.484 359.873 Q 897.804 359.873, 900.124 356.993 Q 902.484 354.073, 902.484 348.393 Q 902.484 342.833, 900.124 340.033 Q 897.804 337.193, 893.484 337.193 Q 889.164 337.193, 886.804 339.993 Q 884.484 342.793, 884.484 348.393 Q 884.484 354.113, 886.804 356.993 Q 889.164 359.873, 893.484 359.873 " fill="#FF0000"/>
<path class="atom-7" d="M 1279.22 335.907 L 1283.06 335.907 L 1283.06 347.947 L 1297.54 347.947 L 1297.54 335.907 L 1301.38 335.907 L 1301.38 364.227 L 1297.54 364.227 L 1297.54 351.147 L 1283.06 351.147 L 1283.06 364.227 L 1279.22 364.227 L 1279.22 335.907 " fill="#0000FF"/>
<path class="atom-7" d="M 1302.76 363.234 Q 1303.44 361.465, 1305.08 360.488 Q 1306.72 359.485, 1308.99 359.485 Q 1311.81 359.485, 1313.4 361.016 Q 1314.98 362.547, 1314.98 365.266 Q 1314.98 368.038, 1312.92 370.626 Q 1310.89 373.213, 1306.66 376.275 L 1315.3 376.275 L 1315.3 378.387 L 1302.7 378.387 L 1302.7 376.618 Q 1306.19 374.137, 1308.25 372.289 Q 1310.33 370.441, 1311.34 368.778 Q 1312.34 367.114, 1312.34 365.398 Q 1312.34 363.603, 1311.44 362.6 Q 1310.54 361.597, 1308.99 361.597 Q 1307.48 361.597, 1306.48 362.204 Q 1305.48 362.811, 1304.76 364.158 L 1302.76 363.234 " fill="#0000FF"/>
<path class="atom-7" d="M 1323.1 335.907 L 1332.38 350.907 Q 1333.3 352.387, 1334.78 355.067 Q 1336.26 357.747, 1336.34 357.907 L 1336.34 335.907 L 1340.1 335.907 L 1340.1 364.227 L 1336.22 364.227 L 1326.26 347.827 Q 1325.1 345.907, 1323.86 343.707 Q 1322.66 341.507, 1322.3 340.827 L 1322.3 364.227 L 1318.62 364.227 L 1318.62 335.907 L 1323.1 335.907 " fill="#0000FF"/>
<path class="atom-12" d="M 1705.84 59.9771 Q 1705.84 53.1771, 1709.2 49.3771 Q 1712.56 45.5771, 1718.84 45.5771 Q 1725.12 45.5771, 1728.48 49.3771 Q 1731.84 53.1771, 1731.84 59.9771 Q 1731.84 66.8571, 1728.44 70.7771 Q 1725.04 74.6571, 1718.84 74.6571 Q 1712.6 74.6571, 1709.2 70.7771 Q 1705.84 66.8971, 1705.84 59.9771 M 1718.84 71.4571 Q 1723.16 71.4571, 1725.48 68.5771 Q 1727.84 65.6571, 1727.84 59.9771 Q 1727.84 54.4171, 1725.48 51.6171 Q 1723.16 48.7771, 1718.84 48.7771 Q 1714.52 48.7771, 1712.16 51.5771 Q 1709.84 54.3771, 1709.84 59.9771 Q 1709.84 65.6971, 1712.16 68.5771 Q 1714.52 71.4571, 1718.84 71.4571 " fill="#FF0000"/>
<path class="atom-12" d="M 1735.24 45.8971 L 1739.08 45.8971 L 1739.08 57.9371 L 1753.56 57.9371 L 1753.56 45.8971 L 1757.4 45.8971 L 1757.4 74.2171 L 1753.56 74.2171 L 1753.56 61.1371 L 1739.08 61.1371 L 1739.08 74.2171 L 1735.24 74.2171 L 1735.24 45.8971 " fill="#FF0000"/>
<path class="atom-14" d="M 1740.86 286.932 L 1750.14 301.932 Q 1751.06 303.412, 1752.54 306.092 Q 1754.02 308.772, 1754.1 308.932 L 1754.1 286.932 L 1757.86 286.932 L 1757.86 315.252 L 1753.98 315.252 L 1744.02 298.852 Q 1742.86 296.932, 1741.62 294.732 Q 1740.42 292.532, 1740.06 291.852 L 1740.06 315.252 L 1736.38 315.252 L 1736.38 286.932 L 1740.86 286.932 " fill="#0000FF"/>
<path class="atom-14" d="M 1760.23 292.037 L 1765.22 292.037 L 1765.22 286.783 L 1767.44 286.783 L 1767.44 292.037 L 1772.56 292.037 L 1772.56 293.938 L 1767.44 293.938 L 1767.44 299.218 L 1765.22 299.218 L 1765.22 293.938 L 1760.23 293.938 L 1760.23 292.037 " fill="#0000FF"/>
<path class="atom-15" d="M 1748.26 421.769 Q 1748.26 414.969, 1751.62 411.169 Q 1754.98 407.369, 1761.26 407.369 Q 1767.54 407.369, 1770.9 411.169 Q 1774.26 414.969, 1774.26 421.769 Q 1774.26 428.649, 1770.86 432.569 Q 1767.46 436.449, 1761.26 436.449 Q 1755.02 436.449, 1751.62 432.569 Q 1748.26 428.689, 1748.26 421.769 M 1761.26 433.249 Q 1765.58 433.249, 1767.9 430.369 Q 1770.26 427.449, 1770.26 421.769 Q 1770.26 416.209, 1767.9 413.409 Q 1765.58 410.569, 1761.26 410.569 Q 1756.94 410.569, 1754.58 413.369 Q 1752.26 416.169, 1752.26 421.769 Q 1752.26 427.489, 1754.58 430.369 Q 1756.94 433.249, 1761.26 433.249 " fill="#FF0000"/>
<path class="atom-16" d="M 1831.49 228.629 Q 1831.49 221.829, 1834.85 218.029 Q 1838.21 214.229, 1844.49 214.229 Q 1850.77 214.229, 1854.13 218.029 Q 1857.49 221.829, 1857.49 228.629 Q 1857.49 235.509, 1854.09 239.429 Q 1850.69 243.309, 1844.49 243.309 Q 1838.25 243.309, 1834.85 239.429 Q 1831.49 235.549, 1831.49 228.629 M 1844.49 240.109 Q 1848.81 240.109, 1851.13 237.229 Q 1853.49 234.309, 1853.49 228.629 Q 1853.49 223.069, 1851.13 220.269 Q 1848.81 217.429, 1844.49 217.429 Q 1840.17 217.429, 1837.81 220.229 Q 1835.49 223.029, 1835.49 228.629 Q 1835.49 234.349, 1837.81 237.229 Q 1840.17 240.109, 1844.49 240.109 " fill="#FF0000"/>
<path class="atom-16" d="M 1858.81 218.852 L 1868.5 218.852 L 1868.5 220.964 L 1858.81 220.964 L 1858.81 218.852 " fill="#FF0000"/>
<path class="atom-20" d="M 2741.92 139.138 Q 2741.92 132.338, 2745.28 128.538 Q 2748.64 124.738, 2754.92 124.738 Q 2761.2 124.738, 2764.56 128.538 Q 2767.92 132.338, 2767.92 139.138 Q 2767.92 146.018, 2764.52 149.938 Q 2761.12 153.818, 2754.92 153.818 Q 2748.68 153.818, 2745.28 149.938 Q 2741.92 146.058, 2741.92 139.138 M 2754.92 150.618 Q 2759.24 150.618, 2761.56 147.738 Q 2763.92 144.818, 2763.92 139.138 Q 2763.92 133.578, 2761.56 130.778 Q 2759.24 127.938, 2754.92 127.938 Q 2750.6 127.938, 2748.24 130.738 Q 2745.92 133.538, 2745.92 139.138 Q 2745.92 144.858, 2748.24 147.738 Q 2750.6 150.618, 2754.92 150.618 " fill="#FF0000"/>
<path class="atom-21" d="M 2855.82 305.862 L 2865.1 320.862 Q 2866.02 322.342, 2867.5 325.022 Q 2868.98 327.702, 2869.06 327.862 L 2869.06 305.862 L 2872.82 305.862 L 2872.82 334.182 L 2868.94 334.182 L 2858.98 317.782 Q 2857.82 315.862, 2856.58 313.662 Q 2855.38 311.462, 2855.02 310.782 L 2855.02 334.182 L 2851.34 334.182 L 2851.34 305.862 L 2855.82 305.862 " fill="#0000FF"/>
<path class="atom-21" d="M 2851 337.014 L 2854.84 337.014 L 2854.84 349.054 L 2869.32 349.054 L 2869.32 337.014 L 2873.16 337.014 L 2873.16 365.334 L 2869.32 365.334 L 2869.32 352.254 L 2854.84 352.254 L 2854.84 365.334 L 2851 365.334 L 2851 337.014 " fill="#0000FF"/>
<path class="atom-26" d="M 3267 72.633 Q 3267 65.833, 3270.36 62.033 Q 3273.72 58.233, 3280 58.233 Q 3286.28 58.233, 3289.64 62.033 Q 3293 65.833, 3293 72.633 Q 3293 79.513, 3289.6 83.433 Q 3286.2 87.313, 3280 87.313 Q 3273.76 87.313, 3270.36 83.433 Q 3267 79.553, 3267 72.633 M 3280 84.113 Q 3284.32 84.113, 3286.64 81.233 Q 3289 78.313, 3289 72.633 Q 3289 67.073, 3286.64 64.273 Q 3284.32 61.433, 3280 61.433 Q 3275.68 61.433, 3273.32 64.233 Q 3271 67.033, 3271 72.633 Q 3271 78.353, 3273.32 81.233 Q 3275.68 84.113, 3280 84.113 " fill="#FF0000"/>
<path class="atom-26" d="M 3296.4 58.553 L 3300.24 58.553 L 3300.24 70.593 L 3314.72 70.593 L 3314.72 58.553 L 3318.56 58.553 L 3318.56 86.873 L 3314.72 86.873 L 3314.72 73.793 L 3300.24 73.793 L 3300.24 86.873 L 3296.4 86.873 L 3296.4 58.553 " fill="#FF0000"/>
<path class="atom-28" d="M 3276.42 301.225 L 3285.7 316.225 Q 3286.62 317.705, 3288.1 320.385 Q 3289.58 323.065, 3289.66 323.225 L 3289.66 301.225 L 3293.42 301.225 L 3293.42 329.545 L 3289.54 329.545 L 3279.58 313.145 Q 3278.42 311.225, 3277.18 309.025 Q 3275.98 306.825, 3275.62 306.145 L 3275.62 329.545 L 3271.94 329.545 L 3271.94 301.225 L 3276.42 301.225 " fill="#0000FF"/>
<path class="atom-28" d="M 3295.79 306.33 L 3300.78 306.33 L 3300.78 301.076 L 3303 301.076 L 3303 306.33 L 3308.12 306.33 L 3308.12 308.23 L 3303 308.23 L 3303 313.51 L 3300.78 313.51 L 3300.78 308.23 L 3295.79 308.23 L 3295.79 306.33 " fill="#0000FF"/>
<path class="atom-29" d="M 3271.01 436.881 Q 3271.01 430.081, 3274.37 426.281 Q 3277.73 422.481, 3284.01 422.481 Q 3290.29 422.481, 3293.65 426.281 Q 3297.01 430.081, 3297.01 436.881 Q 3297.01 443.761, 3293.61 447.681 Q 3290.21 451.561, 3284.01 451.561 Q 3277.77 451.561, 3274.37 447.681 Q 3271.01 443.801, 3271.01 436.881 M 3284.01 448.361 Q 3288.33 448.361, 3290.65 445.481 Q 3293.01 442.561, 3293.01 436.881 Q 3293.01 431.321, 3290.65 428.521 Q 3288.33 425.681, 3284.01 425.681 Q 3279.69 425.681, 3277.33 428.481 Q 3275.01 431.281, 3275.01 436.881 Q 3275.01 442.601, 3277.33 445.481 Q 3279.69 448.361, 3284.01 448.361 " fill="#FF0000"/>
<path class="atom-30" d="M 3374.16 253.598 Q 3374.16 246.798, 3377.52 242.998 Q 3380.88 239.198, 3387.16 239.198 Q 3393.44 239.198, 3396.8 242.998 Q 3400.16 246.798, 3400.16 253.598 Q 3400.16 260.478, 3396.76 264.398 Q 3393.36 268.278, 3387.16 268.278 Q 3380.92 268.278, 3377.52 264.398 Q 3374.16 260.518, 3374.16 253.598 M 3387.16 265.078 Q 3391.48 265.078, 3393.8 262.198 Q 3396.16 259.278, 3396.16 253.598 Q 3396.16 248.038, 3393.8 245.238 Q 3391.48 242.398, 3387.16 242.398 Q 3382.84 242.398, 3380.48 245.198 Q 3378.16 247.998, 3378.16 253.598 Q 3378.16 259.318, 3380.48 262.198 Q 3382.84 265.078, 3387.16 265.078 " fill="#FF0000"/>
<path class="atom-30" d="M 3401.48 243.82 L 3411.16 243.82 L 3411.16 245.932 L 3401.48 245.932 L 3401.48 243.82 " fill="#FF0000"/>
<path class="atom-34" d="M 2189.98 156.637 Q 2189.98 149.837, 2193.34 146.037 Q 2196.7 142.237, 2202.98 142.237 Q 2209.26 142.237, 2212.62 146.037 Q 2215.98 149.837, 2215.98 156.637 Q 2215.98 163.517, 2212.58 167.437 Q 2209.18 171.317, 2202.98 171.317 Q 2196.74 171.317, 2193.34 167.437 Q 2189.98 163.557, 2189.98 156.637 M 2202.98 168.117 Q 2207.3 168.117, 2209.62 165.237 Q 2211.98 162.317, 2211.98 156.637 Q 2211.98 151.077, 2209.62 148.277 Q 2207.3 145.437, 2202.98 145.437 Q 2198.66 145.437, 2196.3 148.237 Q 2193.98 151.037, 2193.98 156.637 Q 2193.98 162.357, 2196.3 165.237 Q 2198.66 168.117, 2202.98 168.117 " fill="#FF0000"/>
<path class="atom-35" d="M 2142.66 74.6758 Q 2142.66 67.8758, 2146.02 64.0758 Q 2149.38 60.2758, 2155.66 60.2758 Q 2161.94 60.2758, 2165.3 64.0758 Q 2168.66 67.8758, 2168.66 74.6758 Q 2168.66 81.5558, 2165.26 85.4758 Q 2161.86 89.3558, 2155.66 89.3558 Q 2149.42 89.3558, 2146.02 85.4758 Q 2142.66 81.5958, 2142.66 74.6758 M 2155.66 86.1558 Q 2159.98 86.1558, 2162.3 83.2758 Q 2164.66 80.3558, 2164.66 74.6758 Q 2164.66 69.1158, 2162.3 66.3158 Q 2159.98 63.4758, 2155.66 63.4758 Q 2151.34 63.4758, 2148.98 66.2758 Q 2146.66 69.0758, 2146.66 74.6758 Q 2146.66 80.3958, 2148.98 83.2758 Q 2151.34 86.1558, 2155.66 86.1558 " fill="#FF0000"/>
<path class="atom-35" d="M 2172.06 60.5958 L 2175.9 60.5958 L 2175.9 72.6358 L 2190.38 72.6358 L 2190.38 60.5958 L 2194.22 60.5958 L 2194.22 88.9158 L 2190.38 88.9158 L 2190.38 75.8358 L 2175.9 75.8358 L 2175.9 88.9158 L 2172.06 88.9158 L 2172.06 60.5958 " fill="#FF0000"/>
<path class="atom-36" d="M 2300.21 115.236 L 2304.05 115.236 L 2304.05 127.276 L 2318.53 127.276 L 2318.53 115.236 L 2322.37 115.236 L 2322.37 143.556 L 2318.53 143.556 L 2318.53 130.476 L 2304.05 130.476 L 2304.05 143.556 L 2300.21 143.556 L 2300.21 115.236 " fill="#FF0000"/>
<path class="atom-36" d="M 2323.74 142.563 Q 2324.42 140.794, 2326.06 139.817 Q 2327.7 138.814, 2329.97 138.814 Q 2332.79 138.814, 2334.38 140.345 Q 2335.96 141.876, 2335.96 144.595 Q 2335.96 147.367, 2333.9 149.955 Q 2331.87 152.542, 2327.65 155.604 L 2336.28 155.604 L 2336.28 157.716 L 2323.69 157.716 L 2323.69 155.947 Q 2327.17 153.466, 2329.23 151.618 Q 2331.32 149.77, 2332.32 148.107 Q 2333.32 146.443, 2333.32 144.727 Q 2333.32 142.932, 2332.42 141.929 Q 2331.53 140.926, 2329.97 140.926 Q 2328.46 140.926, 2327.46 141.533 Q 2326.46 142.14, 2325.74 143.487 L 2323.74 142.563 " fill="#FF0000"/>
<path class="atom-36" d="M 2338.28 129.316 Q 2338.28 122.516, 2341.64 118.716 Q 2345 114.916, 2351.28 114.916 Q 2357.56 114.916, 2360.92 118.716 Q 2364.28 122.516, 2364.28 129.316 Q 2364.28 136.196, 2360.88 140.116 Q 2357.48 143.996, 2351.28 143.996 Q 2345.04 143.996, 2341.64 140.116 Q 2338.28 136.236, 2338.28 129.316 M 2351.28 140.796 Q 2355.6 140.796, 2357.92 137.916 Q 2360.28 134.996, 2360.28 129.316 Q 2360.28 123.756, 2357.92 120.956 Q 2355.6 118.116, 2351.28 118.116 Q 2346.96 118.116, 2344.6 120.916 Q 2342.28 123.716, 2342.28 129.316 Q 2342.28 135.036, 2344.6 137.916 Q 2346.96 140.796, 2351.28 140.796 " fill="#FF0000"/>
<path class="note" d="M 888.754 202.332 Q 889.274 200.992, 890.514 200.252 Q 891.754 199.492, 893.474 199.492 Q 895.614 199.492, 896.814 200.652 Q 898.014 201.812, 898.014 203.872 Q 898.014 205.972, 896.454 207.932 Q 894.914 209.892, 891.714 212.212 L 898.254 212.212 L 898.254 213.812 L 888.714 213.812 L 888.714 212.472 Q 891.354 210.592, 892.914 209.192 Q 894.494 207.792, 895.254 206.532 Q 896.014 205.272, 896.014 203.972 Q 896.014 202.612, 895.334 201.852 Q 894.654 201.092, 893.474 201.092 Q 892.334 201.092, 891.574 201.552 Q 890.814 202.012, 890.274 203.032 L 888.754 202.332 " fill="#000000"/>
<path class="note" d="M 985.031 154.172 L 988.131 154.172 L 988.131 143.592 L 984.711 144.652 L 984.251 143.472 L 988.591 141.532 L 990.011 141.772 L 990.011 154.172 L 992.791 154.172 L 992.791 155.772 L 985.031 155.772 L 985.031 154.172 " fill="#000000"/>
<path class="note" d="M 895.524 388.487 Q 896.904 388.887, 897.564 389.787 Q 898.244 390.667, 898.244 392.067 Q 898.244 393.267, 897.644 394.207 Q 897.044 395.127, 895.944 395.647 Q 894.844 396.147, 893.404 396.147 Q 891.884 396.147, 890.744 395.627 Q 889.624 395.087, 888.724 394.007 L 889.864 392.847 Q 890.744 393.807, 891.484 394.187 Q 892.224 394.547, 893.404 394.547 Q 894.684 394.547, 895.464 393.867 Q 896.244 393.167, 896.244 392.047 Q 896.244 390.607, 895.424 389.967 Q 894.624 389.307, 892.884 389.307 L 891.864 389.307 L 891.864 387.867 L 892.764 387.867 Q 894.304 387.847, 895.124 387.187 Q 895.944 386.507, 895.944 385.247 Q 895.944 384.327, 895.264 383.787 Q 894.584 383.227, 893.424 383.227 Q 892.244 383.227, 891.504 383.647 Q 890.784 384.067, 890.224 385.127 L 888.844 384.387 Q 889.344 383.207, 890.544 382.427 Q 891.744 381.627, 893.424 381.627 Q 895.504 381.627, 896.724 382.607 Q 897.944 383.587, 897.944 385.247 Q 897.944 386.387, 897.324 387.207 Q 896.704 388.027, 895.524 388.487 " fill="#000000"/>
<path class="note" d="M 1337.82 392.486 L 1339.52 392.486 L 1339.52 394.086 L 1337.82 394.086 L 1337.82 397.346 L 1335.94 397.346 L 1335.94 394.086 L 1328.62 394.086 L 1328.62 392.826 L 1334.82 383.186 L 1337.82 383.186 L 1337.82 392.486 M 1330.94 392.486 L 1335.94 392.486 L 1335.94 384.466 L 1330.94 392.486 " fill="#000000"/>
<path class="note" d="M 1408.49 267.736 Q 1409.73 267.736, 1410.75 268.276 Q 1411.77 268.796, 1412.35 269.796 Q 1412.93 270.776, 1412.93 272.116 Q 1412.93 273.576, 1412.21 274.636 Q 1411.51 275.676, 1410.35 276.216 Q 1409.19 276.756, 1407.87 276.756 Q 1406.57 276.756, 1405.37 276.276 Q 1404.17 275.796, 1403.35 274.876 L 1404.55 273.636 Q 1405.21 274.356, 1406.11 274.756 Q 1407.01 275.136, 1407.93 275.136 Q 1409.19 275.136, 1410.05 274.356 Q 1410.93 273.576, 1410.93 272.156 Q 1410.93 270.656, 1410.05 269.956 Q 1409.19 269.236, 1407.81 269.236 Q 1406.57 269.236, 1405.19 269.776 L 1404.09 269.256 L 1404.77 262.436 L 1412.05 262.436 L 1411.85 264.036 L 1406.41 264.036 L 1405.99 268.236 Q 1407.25 267.736, 1408.49 267.736 " fill="#000000"/>
<path class="note" d="M 1394.63 147.238 Q 1395.87 147.238, 1396.85 147.778 Q 1397.83 148.318, 1398.37 149.298 Q 1398.91 150.278, 1398.91 151.518 Q 1398.91 152.898, 1398.29 153.978 Q 1397.69 155.038, 1396.61 155.638 Q 1395.53 156.238, 1394.15 156.238 Q 1391.63 156.238, 1390.35 154.538 Q 1389.09 152.818, 1389.09 149.418 Q 1389.09 145.658, 1390.65 143.718 Q 1392.23 141.758, 1395.25 141.758 Q 1396.13 141.758, 1396.87 141.958 Q 1397.63 142.158, 1398.35 142.578 L 1397.57 143.918 Q 1396.53 143.358, 1395.27 143.358 Q 1393.27 143.358, 1392.25 144.658 Q 1391.23 145.938, 1391.11 148.598 Q 1391.83 147.938, 1392.73 147.598 Q 1393.65 147.238, 1394.63 147.238 M 1394.17 154.598 Q 1394.93 154.598, 1395.55 154.198 Q 1396.19 153.798, 1396.55 153.098 Q 1396.91 152.398, 1396.91 151.538 Q 1396.91 150.278, 1396.21 149.558 Q 1395.51 148.838, 1394.27 148.838 Q 1393.41 148.838, 1392.55 149.198 Q 1391.71 149.538, 1391.11 150.138 Q 1391.19 152.478, 1391.93 153.538 Q 1392.67 154.598, 1394.17 154.598 " fill="#000000"/>
<path class="note" d="M 1510.32 58.8051 L 1502.9 58.8051 L 1502.9 57.2051 L 1512.3 57.2051 L 1512.3 58.6251 L 1506.58 71.3651 L 1504.66 71.3651 L 1510.32 58.8051 " fill="#000000"/>
<path class="note" d="M 1621.33 112 Q 1622.63 112.56, 1623.37 113.4 Q 1624.11 114.22, 1624.11 115.62 Q 1624.11 116.82, 1623.49 117.76 Q 1622.87 118.68, 1621.75 119.2 Q 1620.65 119.7, 1619.19 119.7 Q 1616.83 119.7, 1615.47 118.62 Q 1614.11 117.52, 1614.11 115.62 Q 1614.11 114.46, 1614.71 113.6 Q 1615.31 112.72, 1616.55 112.06 Q 1615.63 111.54, 1615.13 110.78 Q 1614.63 110, 1614.63 108.8 Q 1614.63 107.14, 1615.83 106.16 Q 1617.05 105.18, 1619.11 105.18 Q 1621.17 105.18, 1622.37 106.16 Q 1623.59 107.14, 1623.59 108.8 Q 1623.59 109.84, 1623.01 110.62 Q 1622.45 111.38, 1621.33 112 M 1619.11 106.68 Q 1617.93 106.68, 1617.27 107.24 Q 1616.63 107.8, 1616.63 108.8 Q 1616.63 109.54, 1617.07 110.04 Q 1617.51 110.52, 1618.13 110.8 Q 1618.77 111.08, 1619.99 111.5 Q 1620.85 110.9, 1621.21 110.26 Q 1621.59 109.62, 1621.59 108.8 Q 1621.59 107.8, 1620.93 107.24 Q 1620.29 106.68, 1619.11 106.68 M 1619.19 118.2 Q 1620.51 118.2, 1621.31 117.5 Q 1622.11 116.78, 1622.11 115.6 Q 1622.11 114.84, 1621.69 114.36 Q 1621.27 113.88, 1620.63 113.6 Q 1620.01 113.32, 1618.89 112.96 L 1617.99 112.66 Q 1616.99 113.26, 1616.55 113.98 Q 1616.11 114.68, 1616.11 115.6 Q 1616.11 116.78, 1616.95 117.5 Q 1617.79 118.2, 1619.19 118.2 " fill="#000000"/>
<path class="note" d="M 1734.71 15.5673 Q 1737.23 15.5673, 1738.49 17.2873 Q 1739.77 18.9873, 1739.77 22.3873 Q 1739.77 26.1473, 1738.19 28.1073 Q 1736.63 30.0473, 1733.61 30.0473 Q 1732.73 30.0473, 1731.97 29.8473 Q 1731.23 29.6473, 1730.51 29.2273 L 1731.29 27.8873 Q 1732.33 28.4473, 1733.59 28.4473 Q 1735.59 28.4473, 1736.61 27.1673 Q 1737.63 25.8673, 1737.75 23.2073 Q 1737.03 23.8673, 1736.11 24.2273 Q 1735.21 24.5673, 1734.23 24.5673 Q 1732.99 24.5673, 1732.01 24.0273 Q 1731.03 23.4873, 1730.49 22.5073 Q 1729.95 21.5273, 1729.95 20.2873 Q 1729.95 18.9073, 1730.55 17.8473 Q 1731.17 16.7673, 1732.25 16.1673 Q 1733.33 15.5673, 1734.71 15.5673 M 1731.95 20.2673 Q 1731.95 21.5273, 1732.65 22.2473 Q 1733.35 22.9673, 1734.59 22.9673 Q 1735.45 22.9673, 1736.29 22.6273 Q 1737.15 22.2673, 1737.75 21.6673 Q 1737.67 19.3273, 1736.93 18.2673 Q 1736.19 17.2073, 1734.69 17.2073 Q 1733.93 17.2073, 1733.29 17.6073 Q 1732.67 18.0073, 1732.31 18.7073 Q 1731.95 19.4073, 1731.95 20.2673 " fill="#000000"/>
<path class="note" d="M 1654.52 234.416 L 1657.62 234.416 L 1657.62 223.836 L 1654.2 224.896 L 1653.74 223.716 L 1658.08 221.776 L 1659.5 222.016 L 1659.5 234.416 L 1662.28 234.416 L 1662.28 236.016 L 1654.52 236.016 L 1654.52 234.416 " fill="#000000"/>
<path class="note" d="M 1668.68 236.176 Q 1666.08 236.176, 1664.78 234.256 Q 1663.5 232.336, 1663.5 228.916 Q 1663.5 225.496, 1664.78 223.596 Q 1666.06 221.696, 1668.68 221.696 Q 1671.3 221.696, 1672.58 223.596 Q 1673.86 225.496, 1673.86 228.916 Q 1673.86 232.336, 1672.56 234.256 Q 1671.28 236.176, 1668.68 236.176 M 1668.68 234.576 Q 1670.22 234.576, 1671.04 233.156 Q 1671.86 231.716, 1671.86 228.916 Q 1671.86 226.136, 1671.04 224.716 Q 1670.22 223.296, 1668.68 223.296 Q 1667.16 223.296, 1666.32 224.716 Q 1665.5 226.136, 1665.5 228.916 Q 1665.5 231.716, 1666.32 233.156 Q 1667.16 234.576, 1668.68 234.576 " fill="#000000"/>
<path class="note" d="M 1702.09 330.793 L 1705.19 330.793 L 1705.19 320.213 L 1701.77 321.273 L 1701.31 320.093 L 1705.65 318.153 L 1707.07 318.393 L 1707.07 330.793 L 1709.85 330.793 L 1709.85 332.393 L 1702.09 332.393 L 1702.09 330.793 " fill="#000000"/>
<path class="note" d="M 1711.71 330.793 L 1714.81 330.793 L 1714.81 320.213 L 1711.39 321.273 L 1710.93 320.093 L 1715.27 318.153 L 1716.69 318.393 L 1716.69 330.793 L 1719.47 330.793 L 1719.47 332.393 L 1711.71 332.393 L 1711.71 330.793 " fill="#000000"/>
<path class="note" d="M 1752.94 467.448 L 1756.04 467.448 L 1756.04 456.868 L 1752.62 457.928 L 1752.16 456.748 L 1756.5 454.808 L 1757.92 455.048 L 1757.92 467.448 L 1760.7 467.448 L 1760.7 469.048 L 1752.94 469.048 L 1752.94 467.448 " fill="#000000"/>
<path class="note" d="M 1761.74 457.568 Q 1762.26 456.228, 1763.5 455.488 Q 1764.74 454.728, 1766.46 454.728 Q 1768.6 454.728, 1769.8 455.888 Q 1771 457.048, 1771 459.108 Q 1771 461.208, 1769.44 463.168 Q 1767.9 465.128, 1764.7 467.448 L 1771.24 467.448 L 1771.24 469.048 L 1761.7 469.048 L 1761.7 467.708 Q 1764.34 465.828, 1765.9 464.428 Q 1767.48 463.028, 1768.24 461.768 Q 1769 460.508, 1769 459.208 Q 1769 457.848, 1768.32 457.088 Q 1767.64 456.328, 1766.46 456.328 Q 1765.32 456.328, 1764.56 456.788 Q 1763.8 457.248, 1763.26 458.268 L 1761.74 457.568 " fill="#000000"/>
<path class="note" d="M 1864.01 209.929 L 1867.11 209.929 L 1867.11 199.349 L 1863.69 200.409 L 1863.23 199.229 L 1867.57 197.289 L 1868.99 197.529 L 1868.99 209.929 L 1871.77 209.929 L 1871.77 211.529 L 1864.01 211.529 L 1864.01 209.929 " fill="#000000"/>
<path class="note" d="M 1879.41 204.069 Q 1880.79 204.469, 1881.45 205.369 Q 1882.13 206.249, 1882.13 207.649 Q 1882.13 208.849, 1881.53 209.789 Q 1880.93 210.709, 1879.83 211.229 Q 1878.73 211.729, 1877.29 211.729 Q 1875.77 211.729, 1874.63 211.209 Q 1873.51 210.669, 1872.61 209.589 L 1873.75 208.429 Q 1874.63 209.389, 1875.37 209.769 Q 1876.11 210.129, 1877.29 210.129 Q 1878.57 210.129, 1879.35 209.449 Q 1880.13 208.749, 1880.13 207.629 Q 1880.13 206.189, 1879.31 205.549 Q 1878.51 204.889, 1876.77 204.889 L 1875.75 204.889 L 1875.75 203.449 L 1876.65 203.449 Q 1878.19 203.429, 1879.01 202.769 Q 1879.83 202.089, 1879.83 200.829 Q 1879.83 199.909, 1879.15 199.369 Q 1878.47 198.809, 1877.31 198.809 Q 1876.13 198.809, 1875.39 199.229 Q 1874.67 199.649, 1874.11 200.709 L 1872.73 199.969 Q 1873.23 198.789, 1874.43 198.009 Q 1875.63 197.209, 1877.31 197.209 Q 1879.39 197.209, 1880.61 198.189 Q 1881.83 199.169, 1881.83 200.829 Q 1881.83 201.969, 1881.21 202.789 Q 1880.59 203.609, 1879.41 204.069 " fill="#000000"/>
<path class="note" d="M 1527.08 351.199 L 1530.18 351.199 L 1530.18 340.619 L 1526.76 341.679 L 1526.3 340.499 L 1530.64 338.559 L 1532.06 338.799 L 1532.06 351.199 L 1534.84 351.199 L 1534.84 352.799 L 1527.08 352.799 L 1527.08 351.199 " fill="#000000"/>
<path class="note" d="M 1544.64 347.939 L 1546.34 347.939 L 1546.34 349.539 L 1544.64 349.539 L 1544.64 352.799 L 1542.76 352.799 L 1542.76 349.539 L 1535.44 349.539 L 1535.44 348.279 L 1541.64 338.639 L 1544.64 338.639 L 1544.64 347.939 M 1537.76 347.939 L 1542.76 347.939 L 1542.76 339.919 L 1537.76 347.939 " fill="#000000"/>
<path class="note" d="M 2658.6 345.274 L 2661.7 345.274 L 2661.7 334.694 L 2658.28 335.754 L 2657.82 334.574 L 2662.16 332.634 L 2663.58 332.874 L 2663.58 345.274 L 2666.36 345.274 L 2666.36 346.874 L 2658.6 346.874 L 2658.6 345.274 " fill="#000000"/>
<path class="note" d="M 2751.75 276.389 Q 2752.27 275.049, 2753.51 274.309 Q 2754.75 273.549, 2756.47 273.549 Q 2758.61 273.549, 2759.81 274.709 Q 2761.01 275.869, 2761.01 277.929 Q 2761.01 280.029, 2759.45 281.989 Q 2757.91 283.949, 2754.71 286.269 L 2761.25 286.269 L 2761.25 287.869 L 2751.71 287.869 L 2751.71 286.529 Q 2754.35 284.649, 2755.91 283.249 Q 2757.49 281.849, 2758.25 280.589 Q 2759.01 279.329, 2759.01 278.029 Q 2759.01 276.669, 2758.33 275.909 Q 2757.65 275.149, 2756.47 275.149 Q 2755.33 275.149, 2754.57 275.609 Q 2753.81 276.069, 2753.27 277.089 L 2751.75 276.389 " fill="#000000"/>
<path class="note" d="M 2756.52 98.2856 Q 2757.9 98.6856, 2758.56 99.5856 Q 2759.24 100.466, 2759.24 101.866 Q 2759.24 103.066, 2758.64 104.006 Q 2758.04 104.926, 2756.94 105.446 Q 2755.84 105.946, 2754.4 105.946 Q 2752.88 105.946, 2751.74 105.426 Q 2750.62 104.886, 2749.72 103.806 L 2750.86 102.646 Q 2751.74 103.606, 2752.48 103.986 Q 2753.22 104.346, 2754.4 104.346 Q 2755.68 104.346, 2756.46 103.666 Q 2757.24 102.966, 2757.24 101.846 Q 2757.24 100.406, 2756.42 99.7656 Q 2755.62 99.1056, 2753.88 99.1056 L 2752.86 99.1056 L 2752.86 97.6656 L 2753.76 97.6656 Q 2755.3 97.6456, 2756.12 96.9856 Q 2756.94 96.3056, 2756.94 95.0456 Q 2756.94 94.1256, 2756.26 93.5856 Q 2755.58 93.0256, 2754.42 93.0256 Q 2753.24 93.0256, 2752.5 93.4456 Q 2751.78 93.8656, 2751.22 94.9256 L 2749.84 94.1856 Q 2750.34 93.0056, 2751.54 92.2256 Q 2752.74 91.4256, 2754.42 91.4256 Q 2756.5 91.4256, 2757.72 92.4056 Q 2758.94 93.3856, 2758.94 95.0456 Q 2758.94 96.1856, 2758.32 97.0056 Q 2757.7 97.8256, 2756.52 98.2856 " fill="#000000"/>
<path class="note" d="M 2886.45 357.069 L 2888.15 357.069 L 2888.15 358.669 L 2886.45 358.669 L 2886.45 361.929 L 2884.57 361.929 L 2884.57 358.669 L 2877.25 358.669 L 2877.25 357.409 L 2883.45 347.769 L 2886.45 347.769 L 2886.45 357.069 M 2879.57 357.069 L 2884.57 357.069 L 2884.57 349.049 L 2879.57 357.069 " fill="#000000"/>
<path class="note" d="M 2949.27 246.45 Q 2950.51 246.45, 2951.53 246.99 Q 2952.55 247.51, 2953.13 248.51 Q 2953.71 249.49, 2953.71 250.83 Q 2953.71 252.29, 2952.99 253.35 Q 2952.29 254.39, 2951.13 254.93 Q 2949.97 255.47, 2948.65 255.47 Q 2947.35 255.47, 2946.15 254.99 Q 2944.95 254.51, 2944.13 253.59 L 2945.33 252.35 Q 2945.99 253.07, 2946.89 253.47 Q 2947.79 253.85, 2948.71 253.85 Q 2949.97 253.85, 2950.83 253.07 Q 2951.71 252.29, 2951.71 250.87 Q 2951.71 249.37, 2950.83 248.67 Q 2949.97 247.95, 2948.59 247.95 Q 2947.35 247.95, 2945.97 248.49 L 2944.87 247.97 L 2945.55 241.15 L 2952.83 241.15 L 2952.63 242.75 L 2947.19 242.75 L 2946.77 246.95 Q 2948.03 246.45, 2949.27 246.45 " fill="#000000"/>
<path class="note" d="M 2948.21 125.134 Q 2949.45 125.134, 2950.43 125.674 Q 2951.41 126.214, 2951.95 127.194 Q 2952.49 128.174, 2952.49 129.414 Q 2952.49 130.794, 2951.87 131.874 Q 2951.27 132.934, 2950.19 133.534 Q 2949.11 134.134, 2947.73 134.134 Q 2945.21 134.134, 2943.93 132.434 Q 2942.67 130.714, 2942.67 127.314 Q 2942.67 123.554, 2944.23 121.614 Q 2945.81 119.654, 2948.83 119.654 Q 2949.71 119.654, 2950.45 119.854 Q 2951.21 120.054, 2951.93 120.474 L 2951.15 121.814 Q 2950.11 121.254, 2948.85 121.254 Q 2946.85 121.254, 2945.83 122.554 Q 2944.81 123.834, 2944.69 126.494 Q 2945.41 125.834, 2946.31 125.494 Q 2947.23 125.134, 2948.21 125.134 M 2947.75 132.494 Q 2948.51 132.494, 2949.13 132.094 Q 2949.77 131.694, 2950.13 130.994 Q 2950.49 130.294, 2950.49 129.434 Q 2950.49 128.174, 2949.79 127.454 Q 2949.09 126.734, 2947.85 126.734 Q 2946.99 126.734, 2946.13 127.094 Q 2945.29 127.434, 2944.69 128.034 Q 2944.77 130.374, 2945.51 131.434 Q 2946.25 132.494, 2947.75 132.494 " fill="#000000"/>
<path class="note" d="M 3072.2 49.1556 L 3064.78 49.1556 L 3064.78 47.5556 L 3074.18 47.5556 L 3074.18 48.9756 L 3068.46 61.7156 L 3066.54 61.7156 L 3072.2 49.1556 " fill="#000000"/>
<path class="note" d="M 3177.52 113.844 Q 3178.82 114.404, 3179.56 115.244 Q 3180.3 116.064, 3180.3 117.464 Q 3180.3 118.664, 3179.68 119.604 Q 3179.06 120.524, 3177.94 121.044 Q 3176.84 121.544, 3175.38 121.544 Q 3173.02 121.544, 3171.66 120.464 Q 3170.3 119.364, 3170.3 117.464 Q 3170.3 116.304, 3170.9 115.444 Q 3171.5 114.564, 3172.74 113.904 Q 3171.82 113.384, 3171.32 112.624 Q 3170.82 111.844, 3170.82 110.644 Q 3170.82 108.984, 3172.02 108.004 Q 3173.24 107.024, 3175.3 107.024 Q 3177.36 107.024, 3178.56 108.004 Q 3179.78 108.984, 3179.78 110.644 Q 3179.78 111.684, 3179.2 112.464 Q 3178.64 113.224, 3177.52 113.844 M 3175.3 108.524 Q 3174.12 108.524, 3173.46 109.084 Q 3172.82 109.644, 3172.82 110.644 Q 3172.82 111.384, 3173.26 111.884 Q 3173.7 112.364, 3174.32 112.644 Q 3174.96 112.924, 3176.18 113.344 Q 3177.04 112.744, 3177.4 112.104 Q 3177.78 111.464, 3177.78 110.644 Q 3177.78 109.644, 3177.12 109.084 Q 3176.48 108.524, 3175.3 108.524 M 3175.38 120.044 Q 3176.7 120.044, 3177.5 119.344 Q 3178.3 118.624, 3178.3 117.444 Q 3178.3 116.684, 3177.88 116.204 Q 3177.46 115.724, 3176.82 115.444 Q 3176.2 115.164, 3175.08 114.804 L 3174.18 114.504 Q 3173.18 115.104, 3172.74 115.824 Q 3172.3 116.524, 3172.3 117.444 Q 3172.3 118.624, 3173.14 119.344 Q 3173.98 120.044, 3175.38 120.044 " fill="#000000"/>
<path class="note" d="M 3299.7 30.1201 Q 3302.22 30.1201, 3303.48 31.8401 Q 3304.76 33.5401, 3304.76 36.9401 Q 3304.76 40.7001, 3303.18 42.6601 Q 3301.62 44.6001, 3298.6 44.6001 Q 3297.72 44.6001, 3296.96 44.4001 Q 3296.22 44.2001, 3295.5 43.7801 L 3296.28 42.4401 Q 3297.32 43.0001, 3298.58 43.0001 Q 3300.58 43.0001, 3301.6 41.7201 Q 3302.62 40.4201, 3302.74 37.7601 Q 3302.02 38.4201, 3301.1 38.7801 Q 3300.2 39.1201, 3299.22 39.1201 Q 3297.98 39.1201, 3297 38.5801 Q 3296.02 38.0401, 3295.48 37.0601 Q 3294.94 36.0801, 3294.94 34.8401 Q 3294.94 33.4601, 3295.54 32.4001 Q 3296.16 31.3201, 3297.24 30.7201 Q 3298.32 30.1201, 3299.7 30.1201 M 3296.94 34.8201 Q 3296.94 36.0801, 3297.64 36.8001 Q 3298.34 37.5201, 3299.58 37.5201 Q 3300.44 37.5201, 3301.28 37.1801 Q 3302.14 36.8201, 3302.74 36.2201 Q 3302.66 33.8801, 3301.92 32.8201 Q 3301.18 31.7601, 3299.68 31.7601 Q 3298.92 31.7601, 3298.28 32.1601 Q 3297.66 32.5601, 3297.3 33.2601 Q 3296.94 33.9601, 3296.94 34.8201 " fill="#000000"/>
<path class="note" d="M 3198.13 240.774 L 3201.23 240.774 L 3201.23 230.194 L 3197.81 231.254 L 3197.35 230.074 L 3201.69 228.134 L 3203.11 228.374 L 3203.11 240.774 L 3205.89 240.774 L 3205.89 242.374 L 3198.13 242.374 L 3198.13 240.774 " fill="#000000"/>
<path class="note" d="M 3212.29 242.534 Q 3209.69 242.534, 3208.39 240.614 Q 3207.11 238.694, 3207.11 235.274 Q 3207.11 231.854, 3208.39 229.954 Q 3209.67 228.054, 3212.29 228.054 Q 3214.91 228.054, 3216.19 229.954 Q 3217.47 231.854, 3217.47 235.274 Q 3217.47 238.694, 3216.17 240.614 Q 3214.89 242.534, 3212.29 242.534 M 3212.29 240.934 Q 3213.83 240.934, 3214.65 239.514 Q 3215.47 238.074, 3215.47 235.274 Q 3215.47 232.494, 3214.65 231.074 Q 3213.83 229.654, 3212.29 229.654 Q 3210.77 229.654, 3209.93 231.074 Q 3209.11 232.494, 3209.11 235.274 Q 3209.11 238.074, 3209.93 239.514 Q 3210.77 240.934, 3212.29 240.934 " fill="#000000"/>
<path class="note" d="M 3235.28 341.527 L 3238.38 341.527 L 3238.38 330.947 L 3234.96 332.007 L 3234.5 330.827 L 3238.84 328.887 L 3240.26 329.127 L 3240.26 341.527 L 3243.04 341.527 L 3243.04 343.127 L 3235.28 343.127 L 3235.28 341.527 " fill="#000000"/>
<path class="note" d="M 3244.9 341.527 L 3248 341.527 L 3248 330.947 L 3244.58 332.007 L 3244.12 330.827 L 3248.46 328.887 L 3249.88 329.127 L 3249.88 341.527 L 3252.66 341.527 L 3252.66 343.127 L 3244.9 343.127 L 3244.9 341.527 " fill="#000000"/>
<path class="note" d="M 3271.43 482.833 L 3274.53 482.833 L 3274.53 472.253 L 3271.11 473.313 L 3270.65 472.133 L 3274.99 470.193 L 3276.41 470.433 L 3276.41 482.833 L 3279.19 482.833 L 3279.19 484.433 L 3271.43 484.433 L 3271.43 482.833 " fill="#000000"/>
<path class="note" d="M 3280.23 472.953 Q 3280.75 471.613, 3281.99 470.873 Q 3283.23 470.113, 3284.95 470.113 Q 3287.09 470.113, 3288.29 471.273 Q 3289.49 472.433, 3289.49 474.493 Q 3289.49 476.593, 3287.93 478.553 Q 3286.39 480.513, 3283.19 482.833 L 3289.73 482.833 L 3289.73 484.433 L 3280.19 484.433 L 3280.19 483.093 Q 3282.83 481.213, 3284.39 479.813 Q 3285.97 478.413, 3286.73 477.153 Q 3287.49 475.893, 3287.49 474.593 Q 3287.49 473.233, 3286.81 472.473 Q 3286.13 471.713, 3284.95 471.713 Q 3283.81 471.713, 3283.05 472.173 Q 3282.29 472.633, 3281.75 473.653 L 3280.23 472.953 " fill="#000000"/>
<path class="note" d="M 3409.04 238.455 L 3412.14 238.455 L 3412.14 227.875 L 3408.72 228.935 L 3408.26 227.755 L 3412.6 225.815 L 3414.02 226.055 L 3414.02 238.455 L 3416.8 238.455 L 3416.8 240.055 L 3409.04 240.055 L 3409.04 238.455 " fill="#000000"/>
<path class="note" d="M 3424.44 232.595 Q 3425.82 232.995, 3426.48 233.895 Q 3427.16 234.775, 3427.16 236.175 Q 3427.16 237.375, 3426.56 238.315 Q 3425.96 239.235, 3424.86 239.755 Q 3423.76 240.255, 3422.32 240.255 Q 3420.8 240.255, 3419.66 239.735 Q 3418.54 239.195, 3417.64 238.115 L 3418.78 236.955 Q 3419.66 237.915, 3420.4 238.295 Q 3421.14 238.655, 3422.32 238.655 Q 3423.6 238.655, 3424.38 237.975 Q 3425.16 237.275, 3425.16 236.155 Q 3425.16 234.715, 3424.34 234.075 Q 3423.54 233.415, 3421.8 233.415 L 3420.78 233.415 L 3420.78 231.975 L 3421.68 231.975 Q 3423.22 231.955, 3424.04 231.295 Q 3424.86 230.615, 3424.86 229.355 Q 3424.86 228.435, 3424.18 227.895 Q 3423.5 227.335, 3422.34 227.335 Q 3421.16 227.335, 3420.42 227.755 Q 3419.7 228.175, 3419.14 229.235 L 3417.76 228.495 Q 3418.26 227.315, 3419.46 226.535 Q 3420.66 225.735, 3422.34 225.735 Q 3424.42 225.735, 3425.64 226.715 Q 3426.86 227.695, 3426.86 229.355 Q 3426.86 230.495, 3426.24 231.315 Q 3425.62 232.135, 3424.44 232.595 " fill="#000000"/>
<path class="note" d="M 3059.09 343.459 L 3062.19 343.459 L 3062.19 332.879 L 3058.77 333.939 L 3058.31 332.759 L 3062.65 330.819 L 3064.07 331.059 L 3064.07 343.459 L 3066.85 343.459 L 3066.85 345.059 L 3059.09 345.059 L 3059.09 343.459 " fill="#000000"/>
<path class="note" d="M 3076.65 340.199 L 3078.35 340.199 L 3078.35 341.799 L 3076.65 341.799 L 3076.65 345.059 L 3074.77 345.059 L 3074.77 341.799 L 3067.45 341.799 L 3067.45 340.539 L 3073.65 330.899 L 3076.65 330.899 L 3076.65 340.199 M 3069.77 340.199 L 3074.77 340.199 L 3074.77 332.179 L 3069.77 340.199 " fill="#000000"/>
<path d="M 1130.5 246.045 L 1136.55 246.045 L 1136.55 239.677 L 1139.23 239.677 L 1139.23 246.045 L 1145.44 246.045 L 1145.44 248.349 L 1139.23 248.349 L 1139.23 254.749 L 1136.55 254.749 L 1136.55 248.349 L 1130.5 248.349 L 1130.5 246.045 " fill="#000000"/>
<path d="M 2027.4,248.349 L 2471.98,248.349" style="fill:none;fill-rule:evenodd;stroke:#000000;stroke-width:2.0px;stroke-linecap:butt;stroke-linejoin:miter;stroke-opacity:1"/>
<path d="M 2471.98,248.349 L 2452.73,237.234" style="fill:none;fill-rule:evenodd;stroke:#000000;stroke-width:2.0px;stroke-linecap:butt;stroke-linejoin:miter;stroke-opacity:1"/>
<path d="M 2471.98,248.349 L 2452.73,259.463" style="fill:none;fill-rule:evenodd;stroke:#000000;stroke-width:2.0px;stroke-linecap:butt;stroke-linejoin:miter;stroke-opacity:1"/>
</svg>