<svg xmlns="http://www.w3.org/2000/svg" xmlns:rdkit="http://www.rdkit.org/xml" xmlns:xlink="http://www.w3.org/1999/xlink" version="1.1" baseProfile="full" xml:space="preserve" width="4000px" height="500px" viewBox="0 0 4000 500">
<!-- END OF HEADER -->
<rect style="opacity:1.0;fill:#FFFFFF;stroke:none" width="4000" height="500" x="0" y="0"> </rect>
<path d="M 939.461,206.047 L 875.009,117.337" style="fill:none;fill-rule:evenodd;stroke:#FFFFAA;stroke-width:23.4px;stroke-linecap:butt;stroke-linejoin:miter;stroke-opacity:1"/>
<path d="M 939.461,206.047 L 875.009,294.757" style="fill:none;fill-rule:evenodd;stroke:#FFFFAA;stroke-width:23.4px;stroke-linecap:butt;stroke-linejoin:miter;stroke-opacity:1"/>
<path d="M 875.009,117.337 L 770.724,151.221" style="fill:none;fill-rule:evenodd;stroke:#FFFFAA;stroke-width:23.4px;stroke-linecap:butt;stroke-linejoin:miter;stroke-opacity:1"/>
<path d="M 770.724,151.221 L 770.724,260.873" style="fill:none;fill-rule:evenodd;stroke:#FFFFAA;stroke-width:23.4px;stroke-linecap:butt;stroke-linejoin:miter;stroke-opacity:1"/>
<path d="M 770.724,260.873 L 875.009,294.757" style="fill:none;fill-rule:evenodd;stroke:#FFFFAA;stroke-width:23.4px;stroke-linecap:butt;stroke-linejoin:miter;stroke-opacity:1"/>
<path d="M 1166.89,234.267 L 1263.53,286.08" style="fill:none;fill-rule:evenodd;stroke:#FFCC99;stroke-width:23.4px;stroke-linecap:butt;stroke-linejoin:miter;stroke-opacity:1"/>
<path d="M 1263.53,286.08 L 1356.72,228.295" style="fill:none;fill-rule:evenodd;stroke:#FFCC99;stroke-width:23.4px;stroke-linecap:butt;stroke-linejoin:miter;stroke-opacity:1"/>
<path d="M 1356.72,228.295 L 1353.27,118.697" style="fill:none;fill-rule:evenodd;stroke:#FFCC99;stroke-width:23.4px;stroke-linecap:butt;stroke-linejoin:miter;stroke-opacity:1"/>
<path d="M 1356.72,228.295 L 1453.36,280.108" style="fill:none;fill-rule:evenodd;stroke:#FFCC99;stroke-width:23.4px;stroke-linecap:butt;stroke-linejoin:miter;stroke-opacity:1"/>
<path d="M 1353.27,118.697 L 1446.47,60.9122" style="fill:none;fill-rule:evenodd;stroke:#FFCC99;stroke-width:23.4px;stroke-linecap:butt;stroke-linejoin:miter;stroke-opacity:1"/>
<path d="M 1446.47,60.9122 L 1543.1,112.725" style="fill:none;fill-rule:evenodd;stroke:#FFCC99;stroke-width:23.4px;stroke-linecap:butt;stroke-linejoin:miter;stroke-opacity:1"/>
<path d="M 1543.1,112.725 L 1636.29,54.9401" style="fill:none;fill-rule:evenodd;stroke:#FFCC99;stroke-width:23.4px;stroke-linecap:butt;stroke-linejoin:miter;stroke-opacity:1"/>
<path d="M 1543.1,112.725 L 1546.55,222.323" style="fill:none;fill-rule:evenodd;stroke:#FFCC99;stroke-width:23.4px;stroke-linecap:butt;stroke-linejoin:miter;stroke-opacity:1"/>
<path d="M 1546.55,222.323 L 1643.19,274.136" style="fill:none;fill-rule:evenodd;stroke:#FFCC99;stroke-width:23.4px;stroke-linecap:butt;stroke-linejoin:miter;stroke-opacity:1"/>
<path d="M 1546.55,222.323 L 1453.36,280.108" style="fill:none;fill-rule:evenodd;stroke:#FFCC99;stroke-width:23.4px;stroke-linecap:butt;stroke-linejoin:miter;stroke-opacity:1"/>
<path d="M 1643.19,274.136 L 1646.64,383.733" style="fill:none;fill-rule:evenodd;stroke:#FFCC99;stroke-width:23.4px;stroke-linecap:butt;stroke-linejoin:miter;stroke-opacity:1"/>
<path d="M 1643.19,274.136 L 1736.38,216.351" style="fill:none;fill-rule:evenodd;stroke:#FFCC99;stroke-width:23.4px;stroke-linecap:butt;stroke-linejoin:miter;stroke-opacity:1"/>
<path d="M 2370.79,134.171 L 2443.06,216.634" style="fill:none;fill-rule:evenodd;stroke:#FFCC99;stroke-width:23.4px;stroke-linecap:butt;stroke-linejoin:miter;stroke-opacity:1"/>
<path d="M 2443.06,216.634 L 2550.61,195.276" style="fill:none;fill-rule:evenodd;stroke:#FFCC99;stroke-width:23.4px;stroke-linecap:butt;stroke-linejoin:miter;stroke-opacity:1"/>
<path d="M 2550.61,195.276 L 2585.89,91.4541" style="fill:none;fill-rule:evenodd;stroke:#FFCC99;stroke-width:23.4px;stroke-linecap:butt;stroke-linejoin:miter;stroke-opacity:1"/>
<path d="M 2550.61,195.276 L 2622.88,277.739" style="fill:none;fill-rule:evenodd;stroke:#FFCC99;stroke-width:23.4px;stroke-linecap:butt;stroke-linejoin:miter;stroke-opacity:1"/>
<path d="M 2585.89,91.4541 L 2693.44,70.0956" style="fill:none;fill-rule:evenodd;stroke:#FFCC99;stroke-width:23.4px;stroke-linecap:butt;stroke-linejoin:miter;stroke-opacity:1"/>
<path d="M 2693.44,70.0956 L 2765.72,152.559" style="fill:none;fill-rule:evenodd;stroke:#FFCC99;stroke-width:23.4px;stroke-linecap:butt;stroke-linejoin:miter;stroke-opacity:1"/>
<path d="M 2765.72,152.559 L 2873.27,131.2" style="fill:none;fill-rule:evenodd;stroke:#FFCC99;stroke-width:23.4px;stroke-linecap:butt;stroke-linejoin:miter;stroke-opacity:1"/>
<path d="M 2765.72,152.559 L 2730.44,256.381" style="fill:none;fill-rule:evenodd;stroke:#FFCC99;stroke-width:23.4px;stroke-linecap:butt;stroke-linejoin:miter;stroke-opacity:1"/>
<path d="M 3053.09,192.305 L 3099.03,92.7395" style="fill:none;fill-rule:evenodd;stroke:#FFFFAA;stroke-width:23.4px;stroke-linecap:butt;stroke-linejoin:miter;stroke-opacity:1"/>
<path d="M 3099.03,92.7395 L 3207.92,105.662" style="fill:none;fill-rule:evenodd;stroke:#FFFFAA;stroke-width:23.4px;stroke-linecap:butt;stroke-linejoin:miter;stroke-opacity:1"/>
<path d="M 3207.92,105.662 L 3229.28,213.213" style="fill:none;fill-rule:evenodd;stroke:#FFFFAA;stroke-width:23.4px;stroke-linecap:butt;stroke-linejoin:miter;stroke-opacity:1"/>
<path d="M 2910.26,317.485 L 2802.71,338.844" style="fill:none;fill-rule:evenodd;stroke:#FFCC99;stroke-width:23.4px;stroke-linecap:butt;stroke-linejoin:miter;stroke-opacity:1"/>
<path d="M 2802.71,338.844 L 2767.43,442.665" style="fill:none;fill-rule:evenodd;stroke:#FFCC99;stroke-width:23.4px;stroke-linecap:butt;stroke-linejoin:miter;stroke-opacity:1"/>
<path d="M 2802.71,338.844 L 2730.44,256.381" style="fill:none;fill-rule:evenodd;stroke:#FFCC99;stroke-width:23.4px;stroke-linecap:butt;stroke-linejoin:miter;stroke-opacity:1"/>
<path d="M 2730.44,256.381 L 2622.88,277.739" style="fill:none;fill-rule:evenodd;stroke:#FFCC99;stroke-width:23.4px;stroke-linecap:butt;stroke-linejoin:miter;stroke-opacity:1"/>
<ellipse cx="875.009" cy="117.337" rx="21.9304" ry="21.9304" style="fill:#FFFFAA;fill-rule:evenodd;stroke:#FFFFAA;stroke-width:1px;stroke-linecap:butt;stroke-linejoin:miter;stroke-opacity:1"/>
<ellipse cx="770.724" cy="151.221" rx="21.9304" ry="21.9304" style="fill:#FFFFAA;fill-rule:evenodd;stroke:#FFFFAA;stroke-width:1px;stroke-linecap:butt;stroke-linejoin:miter;stroke-opacity:1"/>
<ellipse cx="770.724" cy="260.873" rx="21.9304" ry="21.9304" style="fill:#FFFFAA;fill-rule:evenodd;stroke:#FFFFAA;stroke-width:1px;stroke-linecap:butt;stroke-linejoin:miter;stroke-opacity:1"/>
<ellipse cx="875.009" cy="294.757" rx="21.9304" ry="21.9304" style="fill:#FFFFAA;fill-rule:evenodd;stroke:#FFFFAA;stroke-width:1px;stroke-linecap:butt;stroke-linejoin:miter;stroke-opacity:1"/>
<ellipse cx="1166.89" cy="234.267" rx="21.9304" ry="21.9304" style="fill:#FFCC99;fill-rule:evenodd;stroke:#FFCC99;stroke-width:1px;stroke-linecap:butt;stroke-linejoin:miter;stroke-opacity:1"/>
<ellipse cx="1263.53" cy="286.3" rx="21.9304" ry="21.9304" style="fill:#FFCC99;fill-rule:evenodd;stroke:#FFCC99;stroke-width:1px;stroke-linecap:butt;stroke-linejoin:miter;stroke-opacity:1"/>
<ellipse cx="1356.72" cy="228.295" rx="21.9304" ry="21.9304" style="fill:#FFCC99;fill-rule:evenodd;stroke:#FFCC99;stroke-width:1px;stroke-linecap:butt;stroke-linejoin:miter;stroke-opacity:1"/>
<ellipse cx="1353.27" cy="118.697" rx="21.9304" ry="21.9304" style="fill:#FFCC99;fill-rule:evenodd;stroke:#FFCC99;stroke-width:1px;stroke-linecap:butt;stroke-linejoin:miter;stroke-opacity:1"/>
<ellipse cx="1446.47" cy="60.9122" rx="21.9304" ry="21.9304" style="fill:#FFCC99;fill-rule:evenodd;stroke:#FFCC99;stroke-width:1px;stroke-linecap:butt;stroke-linejoin:miter;stroke-opacity:1"/>
<ellipse cx="1543.1" cy="112.725" rx="21.9304" ry="21.9304" style="fill:#FFCC99;fill-rule:evenodd;stroke:#FFCC99;stroke-width:1px;stroke-linecap:butt;stroke-linejoin:miter;stroke-opacity:1"/>
<ellipse cx="1656.03" cy="62.0201" rx="43.1001" ry="30.0379" style="fill:#FFCC99;fill-rule:evenodd;stroke:#FFCC99;stroke-width:1px;stroke-linecap:butt;stroke-linejoin:miter;stroke-opacity:1"/>
<ellipse cx="1546.55" cy="222.323" rx="21.9304" ry="21.9304" style="fill:#FFCC99;fill-rule:evenodd;stroke:#FFCC99;stroke-width:1px;stroke-linecap:butt;stroke-linejoin:miter;stroke-opacity:1"/>
<ellipse cx="1643.19" cy="274.136" rx="21.9304" ry="21.9304" style="fill:#FFCC99;fill-rule:evenodd;stroke:#FFCC99;stroke-width:1px;stroke-linecap:butt;stroke-linejoin:miter;stroke-opacity:1"/>
<ellipse cx="1659.42" cy="383.953" rx="36.4584" ry="21.9304" style="fill:#FFCC99;fill-rule:evenodd;stroke:#FFCC99;stroke-width:1px;stroke-linecap:butt;stroke-linejoin:miter;stroke-opacity:1"/>
<ellipse cx="1736.38" cy="216.571" rx="21.9304" ry="21.9304" style="fill:#FFCC99;fill-rule:evenodd;stroke:#FFCC99;stroke-width:1px;stroke-linecap:butt;stroke-linejoin:miter;stroke-opacity:1"/>
<ellipse cx="1453.36" cy="280.108" rx="21.9304" ry="21.9304" style="fill:#FFCC99;fill-rule:evenodd;stroke:#FFCC99;stroke-width:1px;stroke-linecap:butt;stroke-linejoin:miter;stroke-opacity:1"/>
<ellipse cx="2370.79" cy="134.171" rx="21.9304" ry="21.9304" style="fill:#FFCC99;fill-rule:evenodd;stroke:#FFCC99;stroke-width:1px;stroke-linecap:butt;stroke-linejoin:miter;stroke-opacity:1"/>
<ellipse cx="2443.06" cy="216.854" rx="21.9304" ry="21.9304" style="fill:#FFCC99;fill-rule:evenodd;stroke:#FFCC99;stroke-width:1px;stroke-linecap:butt;stroke-linejoin:miter;stroke-opacity:1"/>
<ellipse cx="2550.61" cy="195.276" rx="21.9304" ry="21.9304" style="fill:#FFCC99;fill-rule:evenodd;stroke:#FFCC99;stroke-width:1px;stroke-linecap:butt;stroke-linejoin:miter;stroke-opacity:1"/>
<ellipse cx="2585.89" cy="91.4541" rx="21.9304" ry="21.9304" style="fill:#FFCC99;fill-rule:evenodd;stroke:#FFCC99;stroke-width:1px;stroke-linecap:butt;stroke-linejoin:miter;stroke-opacity:1"/>
<ellipse cx="2693.44" cy="70.0956" rx="21.9304" ry="21.9304" style="fill:#FFCC99;fill-rule:evenodd;stroke:#FFCC99;stroke-width:1px;stroke-linecap:butt;stroke-linejoin:miter;stroke-opacity:1"/>
<ellipse cx="2765.72" cy="152.559" rx="21.9304" ry="21.9304" style="fill:#FFCC99;fill-rule:evenodd;stroke:#FFCC99;stroke-width:1px;stroke-linecap:butt;stroke-linejoin:miter;stroke-opacity:1"/>
<ellipse cx="2873.27" cy="131.2" rx="21.9304" ry="21.9304" style="fill:#FFCC99;fill-rule:evenodd;stroke:#FFCC99;stroke-width:1px;stroke-linecap:butt;stroke-linejoin:miter;stroke-opacity:1"/>
<ellipse cx="3053.09" cy="192.305" rx="21.9304" ry="21.9304" style="fill:#FFFFAA;fill-rule:evenodd;stroke:#FFFFAA;stroke-width:1px;stroke-linecap:butt;stroke-linejoin:miter;stroke-opacity:1"/>
<ellipse cx="3099.03" cy="92.7395" rx="21.9304" ry="21.9304" style="fill:#FFFFAA;fill-rule:evenodd;stroke:#FFFFAA;stroke-width:1px;stroke-linecap:butt;stroke-linejoin:miter;stroke-opacity:1"/>
<ellipse cx="3207.92" cy="105.662" rx="21.9304" ry="21.9304" style="fill:#FFFFAA;fill-rule:evenodd;stroke:#FFFFAA;stroke-width:1px;stroke-linecap:butt;stroke-linejoin:miter;stroke-opacity:1"/>
<ellipse cx="3229.28" cy="213.213" rx="21.9304" ry="21.9304" style="fill:#FFFFAA;fill-rule:evenodd;stroke:#FFFFAA;stroke-width:1px;stroke-linecap:butt;stroke-linejoin:miter;stroke-opacity:1"/>
<ellipse cx="2910.26" cy="317.705" rx="21.9304" ry="21.9304" style="fill:#FFCC99;fill-rule:evenodd;stroke:#FFCC99;stroke-width:1px;stroke-linecap:butt;stroke-linejoin:miter;stroke-opacity:1"/>
<ellipse cx="2802.71" cy="338.844" rx="21.9304" ry="21.9304" style="fill:#FFCC99;fill-rule:evenodd;stroke:#FFCC99;stroke-width:1px;stroke-linecap:butt;stroke-linejoin:miter;stroke-opacity:1"/>
<ellipse cx="2767.43" cy="442.885" rx="21.9304" ry="21.9304" style="fill:#FFCC99;fill-rule:evenodd;stroke:#FFCC99;stroke-width:1px;stroke-linecap:butt;stroke-linejoin:miter;stroke-opacity:1"/>
<ellipse cx="2730.44" cy="256.381" rx="21.9304" ry="21.9304" style="fill:#FFCC99;fill-rule:evenodd;stroke:#FFCC99;stroke-width:1px;stroke-linecap:butt;stroke-linejoin:miter;stroke-opacity:1"/>
<ellipse cx="2622.88" cy="277.739" rx="21.9304" ry="21.9304" style="fill:#FFCC99;fill-rule:evenodd;stroke:#FFCC99;stroke-width:1px;stroke-linecap:butt;stroke-linejoin:miter;stroke-opacity:1"/>
<path class="bond-0" d="M 927.065,188.986 L 901.037,153.161" style="fill:none;fill-rule:evenodd;stroke:#FF0000;stroke-width:2.0px;stroke-linecap:butt;stroke-linejoin:miter;stroke-opacity:1"/>
<path class="bond-0" d="M 901.037,153.161 L 875.009,117.337" style="fill:none;fill-rule:evenodd;stroke:#000000;stroke-width:2.0px;stroke-linecap:butt;stroke-linejoin:miter;stroke-opacity:1"/>
<path class="bond-4" d="M 926.746,223.548 L 900.877,259.153" style="fill:none;fill-rule:evenodd;stroke:#FF0000;stroke-width:2.0px;stroke-linecap:butt;stroke-linejoin:miter;stroke-opacity:1"/>
<path class="bond-4" d="M 900.877,259.153 L 875.009,294.757" style="fill:none;fill-rule:evenodd;stroke:#000000;stroke-width:2.0px;stroke-linecap:butt;stroke-linejoin:miter;stroke-opacity:1"/>
<path class="bond-1" d="M 875.009,117.337 L 770.724,151.221" style="fill:none;fill-rule:evenodd;stroke:#000000;stroke-width:2.0px;stroke-linecap:butt;stroke-linejoin:miter;stroke-opacity:1"/>
<path class="bond-2" d="M 770.724,151.221 L 770.724,260.873" style="fill:none;fill-rule:evenodd;stroke:#000000;stroke-width:2.0px;stroke-linecap:butt;stroke-linejoin:miter;stroke-opacity:1"/>
<path class="bond-3" d="M 770.724,260.873 L 875.009,294.757" style="fill:none;fill-rule:evenodd;stroke:#000000;stroke-width:2.0px;stroke-linecap:butt;stroke-linejoin:miter;stroke-opacity:1"/>
<path class="bond-5" d="M 1166.89,234.267 L 1207.34,255.954" style="fill:none;fill-rule:evenodd;stroke:#000000;stroke-width:2.0px;stroke-linecap:butt;stroke-linejoin:miter;stroke-opacity:1"/>
<path class="bond-5" d="M 1207.34,255.954 L 1247.79,277.64" style="fill:none;fill-rule:evenodd;stroke:#FF0000;stroke-width:2.0px;stroke-linecap:butt;stroke-linejoin:miter;stroke-opacity:1"/>
<path class="bond-6" d="M 1279.27,276.319 L 1318,252.307" style="fill:none;fill-rule:evenodd;stroke:#FF0000;stroke-width:2.0px;stroke-linecap:butt;stroke-linejoin:miter;stroke-opacity:1"/>
<path class="bond-6" d="M 1318,252.307 L 1356.72,228.295" style="fill:none;fill-rule:evenodd;stroke:#000000;stroke-width:2.0px;stroke-linecap:butt;stroke-linejoin:miter;stroke-opacity:1"/>
<path class="bond-7" d="M 1356.72,228.295 L 1353.27,118.697" style="fill:none;fill-rule:evenodd;stroke:#000000;stroke-width:2.0px;stroke-linecap:butt;stroke-linejoin:miter;stroke-opacity:1"/>
<path class="bond-7" d="M 1378.12,211.166 L 1375.71,134.447" style="fill:none;fill-rule:evenodd;stroke:#000000;stroke-width:2.0px;stroke-linecap:butt;stroke-linejoin:miter;stroke-opacity:1;stroke-dasharray:6,6"/>
<path class="bond-16" d="M 1356.72,228.295 L 1453.36,280.108" style="fill:none;fill-rule:evenodd;stroke:#000000;stroke-width:2.0px;stroke-linecap:butt;stroke-linejoin:miter;stroke-opacity:1"/>
<path class="bond-16" d="M 1381.58,216.739 L 1449.23,253.008" style="fill:none;fill-rule:evenodd;stroke:#000000;stroke-width:2.0px;stroke-linecap:butt;stroke-linejoin:miter;stroke-opacity:1;stroke-dasharray:6,6"/>
<path class="bond-8" d="M 1353.27,118.697 L 1446.47,60.9122" style="fill:none;fill-rule:evenodd;stroke:#000000;stroke-width:2.0px;stroke-linecap:butt;stroke-linejoin:miter;stroke-opacity:1"/>
<path class="bond-8" d="M 1378.81,128.667 L 1444.04,88.218" style="fill:none;fill-rule:evenodd;stroke:#000000;stroke-width:2.0px;stroke-linecap:butt;stroke-linejoin:miter;stroke-opacity:1;stroke-dasharray:6,6"/>
<path class="bond-9" d="M 1446.47,60.9122 L 1543.1,112.725" style="fill:none;fill-rule:evenodd;stroke:#000000;stroke-width:2.0px;stroke-linecap:butt;stroke-linejoin:miter;stroke-opacity:1"/>
<path class="bond-9" d="M 1450.6,88.0118 L 1518.25,124.281" style="fill:none;fill-rule:evenodd;stroke:#000000;stroke-width:2.0px;stroke-linecap:butt;stroke-linejoin:miter;stroke-opacity:1;stroke-dasharray:6,6"/>
<path class="bond-10" d="M 1543.1,112.725 L 1582.96,88.0122" style="fill:none;fill-rule:evenodd;stroke:#000000;stroke-width:2.0px;stroke-linecap:butt;stroke-linejoin:miter;stroke-opacity:1"/>
<path class="bond-10" d="M 1582.96,88.0122 L 1622.81,63.2995" style="fill:none;fill-rule:evenodd;stroke:#0000FF;stroke-width:2.0px;stroke-linecap:butt;stroke-linejoin:miter;stroke-opacity:1"/>
<path class="bond-11" d="M 1543.1,112.725 L 1546.55,222.323" style="fill:none;fill-rule:evenodd;stroke:#000000;stroke-width:2.0px;stroke-linecap:butt;stroke-linejoin:miter;stroke-opacity:1"/>
<path class="bond-11" d="M 1521.7,129.854 L 1524.11,206.573" style="fill:none;fill-rule:evenodd;stroke:#000000;stroke-width:2.0px;stroke-linecap:butt;stroke-linejoin:miter;stroke-opacity:1;stroke-dasharray:6,6"/>
<path class="bond-12" d="M 1546.55,222.323 L 1643.19,274.136" style="fill:none;fill-rule:evenodd;stroke:#000000;stroke-width:2.0px;stroke-linecap:butt;stroke-linejoin:miter;stroke-opacity:1"/>
<path class="bond-15" d="M 1546.55,222.323 L 1453.36,280.108" style="fill:none;fill-rule:evenodd;stroke:#000000;stroke-width:2.0px;stroke-linecap:butt;stroke-linejoin:miter;stroke-opacity:1"/>
<path class="bond-15" d="M 1521.02,212.352 L 1455.78,252.802" style="fill:none;fill-rule:evenodd;stroke:#000000;stroke-width:2.0px;stroke-linecap:butt;stroke-linejoin:miter;stroke-opacity:1;stroke-dasharray:6,6"/>
<path class="bond-13" d="M 1643.19,274.136 L 1644.65,320.404" style="fill:none;fill-rule:evenodd;stroke:#000000;stroke-width:2.0px;stroke-linecap:butt;stroke-linejoin:miter;stroke-opacity:1"/>
<path class="bond-13" d="M 1644.65,320.404 L 1646.1,366.672" style="fill:none;fill-rule:evenodd;stroke:#FF0000;stroke-width:2.0px;stroke-linecap:butt;stroke-linejoin:miter;stroke-opacity:1"/>
<path class="bond-14" d="M 1648.97,283.455 L 1687.69,259.442" style="fill:none;fill-rule:evenodd;stroke:#000000;stroke-width:2.0px;stroke-linecap:butt;stroke-linejoin:miter;stroke-opacity:1"/>
<path class="bond-14" d="M 1687.69,259.442 L 1726.42,235.43" style="fill:none;fill-rule:evenodd;stroke:#FF0000;stroke-width:2.0px;stroke-linecap:butt;stroke-linejoin:miter;stroke-opacity:1"/>
<path class="bond-14" d="M 1637.41,264.816 L 1676.14,240.804" style="fill:none;fill-rule:evenodd;stroke:#000000;stroke-width:2.0px;stroke-linecap:butt;stroke-linejoin:miter;stroke-opacity:1"/>
<path class="bond-14" d="M 1676.14,240.804 L 1714.86,216.792" style="fill:none;fill-rule:evenodd;stroke:#FF0000;stroke-width:2.0px;stroke-linecap:butt;stroke-linejoin:miter;stroke-opacity:1"/>
<path class="bond-17" d="M 2370.79,134.171 L 2399.45,166.872" style="fill:none;fill-rule:evenodd;stroke:#000000;stroke-width:2.0px;stroke-linecap:butt;stroke-linejoin:miter;stroke-opacity:1"/>
<path class="bond-17" d="M 2399.45,166.872 L 2428.11,199.573" style="fill:none;fill-rule:evenodd;stroke:#FF0000;stroke-width:2.0px;stroke-linecap:butt;stroke-linejoin:miter;stroke-opacity:1"/>
<path class="bond-18" d="M 2458.8,213.508 L 2504.71,204.392" style="fill:none;fill-rule:evenodd;stroke:#FF0000;stroke-width:2.0px;stroke-linecap:butt;stroke-linejoin:miter;stroke-opacity:1"/>
<path class="bond-18" d="M 2504.71,204.392 L 2550.61,195.276" style="fill:none;fill-rule:evenodd;stroke:#000000;stroke-width:2.0px;stroke-linecap:butt;stroke-linejoin:miter;stroke-opacity:1"/>
<path class="bond-19" d="M 2550.61,195.276 L 2585.89,91.4541" style="fill:none;fill-rule:evenodd;stroke:#000000;stroke-width:2.0px;stroke-linecap:butt;stroke-linejoin:miter;stroke-opacity:1"/>
<path class="bond-19" d="M 2576.67,186.758 L 2601.36,114.083" style="fill:none;fill-rule:evenodd;stroke:#000000;stroke-width:2.0px;stroke-linecap:butt;stroke-linejoin:miter;stroke-opacity:1;stroke-dasharray:6,6"/>
<path class="bond-34" d="M 2550.61,195.276 L 2622.88,277.739" style="fill:none;fill-rule:evenodd;stroke:#000000;stroke-width:2.0px;stroke-linecap:butt;stroke-linejoin:miter;stroke-opacity:1"/>
<path class="bond-34" d="M 2577.95,193.191 L 2628.54,250.915" style="fill:none;fill-rule:evenodd;stroke:#000000;stroke-width:2.0px;stroke-linecap:butt;stroke-linejoin:miter;stroke-opacity:1;stroke-dasharray:6,6"/>
<path class="bond-20" d="M 2585.89,91.4541 L 2693.44,70.0956" style="fill:none;fill-rule:evenodd;stroke:#000000;stroke-width:2.0px;stroke-linecap:butt;stroke-linejoin:miter;stroke-opacity:1"/>
<path class="bond-20" d="M 2606.3,109.761 L 2681.58,94.8097" style="fill:none;fill-rule:evenodd;stroke:#000000;stroke-width:2.0px;stroke-linecap:butt;stroke-linejoin:miter;stroke-opacity:1;stroke-dasharray:6,6"/>
<path class="bond-21" d="M 2693.44,70.0956 L 2765.72,152.559" style="fill:none;fill-rule:evenodd;stroke:#000000;stroke-width:2.0px;stroke-linecap:butt;stroke-linejoin:miter;stroke-opacity:1"/>
<path class="bond-21" d="M 2687.79,96.9196 L 2738.38,154.644" style="fill:none;fill-rule:evenodd;stroke:#000000;stroke-width:2.0px;stroke-linecap:butt;stroke-linejoin:miter;stroke-opacity:1;stroke-dasharray:6,6"/>
<path class="bond-22" d="M 2765.72,152.559 L 2812.75,143.218" style="fill:none;fill-rule:evenodd;stroke:#000000;stroke-width:2.0px;stroke-linecap:butt;stroke-linejoin:miter;stroke-opacity:1"/>
<path class="bond-22" d="M 2812.75,143.218 L 2859.79,133.877" style="fill:none;fill-rule:evenodd;stroke:#0000FF;stroke-width:2.0px;stroke-linecap:butt;stroke-linejoin:miter;stroke-opacity:1"/>
<path class="bond-22" d="M 2784.1,171.267 L 2817.02,164.728" style="fill:none;fill-rule:evenodd;stroke:#000000;stroke-width:2.0px;stroke-linecap:butt;stroke-linejoin:miter;stroke-opacity:1;stroke-dasharray:6,6"/>
<path class="bond-22" d="M 2817.02,164.728 L 2849.95,158.19" style="fill:none;fill-rule:evenodd;stroke:#0000FF;stroke-width:2.0px;stroke-linecap:butt;stroke-linejoin:miter;stroke-opacity:1;stroke-dasharray:6,6"/>
<path class="bond-35" d="M 2765.72,152.559 L 2730.44,256.381" style="fill:none;fill-rule:evenodd;stroke:#000000;stroke-width:2.0px;stroke-linecap:butt;stroke-linejoin:miter;stroke-opacity:1"/>
<path class="bond-35" d="M 2739.66,161.076 L 2714.96,233.751" style="fill:none;fill-rule:evenodd;stroke:#000000;stroke-width:2.0px;stroke-linecap:butt;stroke-linejoin:miter;stroke-opacity:1;stroke-dasharray:6,6"/>
<path class="bond-23" d="M 2886.75,146.582 L 2908.89,171.848" style="fill:none;fill-rule:evenodd;stroke:#0000FF;stroke-width:2.0px;stroke-linecap:butt;stroke-linejoin:miter;stroke-opacity:1"/>
<path class="bond-23" d="M 2908.89,171.848 L 2931.04,197.113" style="fill:none;fill-rule:evenodd;stroke:#000000;stroke-width:2.0px;stroke-linecap:butt;stroke-linejoin:miter;stroke-opacity:1"/>
<path class="bond-23" d="M 2876.9,168.617 L 2892.4,186.303" style="fill:none;fill-rule:evenodd;stroke:#0000FF;stroke-width:2.0px;stroke-linecap:butt;stroke-linejoin:miter;stroke-opacity:1;stroke-dasharray:6,6"/>
<path class="bond-23" d="M 2892.4,186.303 L 2907.9,203.988" style="fill:none;fill-rule:evenodd;stroke:#000000;stroke-width:2.0px;stroke-linecap:butt;stroke-linejoin:miter;stroke-opacity:1;stroke-dasharray:6,6"/>
<path class="bond-24" d="M 2965.59,209.682 L 3053.09,192.305" style="fill:none;fill-rule:evenodd;stroke:#000000;stroke-width:2.0px;stroke-linecap:butt;stroke-linejoin:miter;stroke-opacity:1"/>
<path class="bond-29" d="M 2939.97,230.045 L 2927.94,265.451" style="fill:none;fill-rule:evenodd;stroke:#000000;stroke-width:2.0px;stroke-linecap:butt;stroke-linejoin:miter;stroke-opacity:1"/>
<path class="bond-29" d="M 2927.94,265.451 L 2915.91,300.856" style="fill:none;fill-rule:evenodd;stroke:#FF0000;stroke-width:2.0px;stroke-linecap:butt;stroke-linejoin:miter;stroke-opacity:1"/>
<path class="bond-29" d="M 2915.6,233.611 L 2907.18,258.395" style="fill:none;fill-rule:evenodd;stroke:#000000;stroke-width:2.0px;stroke-linecap:butt;stroke-linejoin:miter;stroke-opacity:1;stroke-dasharray:6,6"/>
<path class="bond-29" d="M 2907.18,258.395 L 2898.76,283.179" style="fill:none;fill-rule:evenodd;stroke:#FF0000;stroke-width:2.0px;stroke-linecap:butt;stroke-linejoin:miter;stroke-opacity:1;stroke-dasharray:6,6"/>
<path class="bond-25" d="M 3053.09,192.305 L 3099.03,92.7395" style="fill:none;fill-rule:evenodd;stroke:#000000;stroke-width:2.0px;stroke-linecap:butt;stroke-linejoin:miter;stroke-opacity:1"/>
<path class="bond-25" d="M 3079.9,186.558 L 3112.05,116.862" style="fill:none;fill-rule:evenodd;stroke:#000000;stroke-width:2.0px;stroke-linecap:butt;stroke-linejoin:miter;stroke-opacity:1;stroke-dasharray:6,6"/>
<path class="bond-36" d="M 3053.09,192.305 L 3085.62,222.39" style="fill:none;fill-rule:evenodd;stroke:#000000;stroke-width:2.0px;stroke-linecap:butt;stroke-linejoin:miter;stroke-opacity:1"/>
<path class="bond-36" d="M 3085.62,222.39 L 3118.14,252.474" style="fill:none;fill-rule:evenodd;stroke:#CCCC00;stroke-width:2.0px;stroke-linecap:butt;stroke-linejoin:miter;stroke-opacity:1"/>
<path class="bond-36" d="M 3077.74,185.231 L 3100.51,206.29" style="fill:none;fill-rule:evenodd;stroke:#000000;stroke-width:2.0px;stroke-linecap:butt;stroke-linejoin:miter;stroke-opacity:1;stroke-dasharray:6,6"/>
<path class="bond-36" d="M 3100.51,206.29 L 3123.28,227.35" style="fill:none;fill-rule:evenodd;stroke:#CCCC00;stroke-width:2.0px;stroke-linecap:butt;stroke-linejoin:miter;stroke-opacity:1;stroke-dasharray:6,6"/>
<path class="bond-26" d="M 3099.03,92.7395 L 3207.92,105.662" style="fill:none;fill-rule:evenodd;stroke:#000000;stroke-width:2.0px;stroke-linecap:butt;stroke-linejoin:miter;stroke-opacity:1"/>
<path class="bond-26" d="M 3112.78,116.455 L 3189,125.501" style="fill:none;fill-rule:evenodd;stroke:#000000;stroke-width:2.0px;stroke-linecap:butt;stroke-linejoin:miter;stroke-opacity:1;stroke-dasharray:6,6"/>
<path class="bond-27" d="M 3207.92,105.662 L 3229.28,213.213" style="fill:none;fill-rule:evenodd;stroke:#000000;stroke-width:2.0px;stroke-linecap:butt;stroke-linejoin:miter;stroke-opacity:1"/>
<path class="bond-27" d="M 3189.61,126.066 L 3204.56,201.352" style="fill:none;fill-rule:evenodd;stroke:#000000;stroke-width:2.0px;stroke-linecap:butt;stroke-linejoin:miter;stroke-opacity:1;stroke-dasharray:6,6"/>
<path class="bond-28" d="M 3229.28,213.213 L 3195.35,232.199" style="fill:none;fill-rule:evenodd;stroke:#000000;stroke-width:2.0px;stroke-linecap:butt;stroke-linejoin:miter;stroke-opacity:1"/>
<path class="bond-28" d="M 3195.35,232.199 L 3161.42,251.184" style="fill:none;fill-rule:evenodd;stroke:#CCCC00;stroke-width:2.0px;stroke-linecap:butt;stroke-linejoin:miter;stroke-opacity:1"/>
<path class="bond-28" d="M 3208.39,199.771 L 3184.64,213.061" style="fill:none;fill-rule:evenodd;stroke:#000000;stroke-width:2.0px;stroke-linecap:butt;stroke-linejoin:miter;stroke-opacity:1;stroke-dasharray:6,6"/>
<path class="bond-28" d="M 3184.64,213.061 L 3160.89,226.351" style="fill:none;fill-rule:evenodd;stroke:#CCCC00;stroke-width:2.0px;stroke-linecap:butt;stroke-linejoin:miter;stroke-opacity:1;stroke-dasharray:6,6"/>
<path class="bond-30" d="M 2894.52,320.611 L 2848.61,329.727" style="fill:none;fill-rule:evenodd;stroke:#FF0000;stroke-width:2.0px;stroke-linecap:butt;stroke-linejoin:miter;stroke-opacity:1"/>
<path class="bond-30" d="M 2848.61,329.727 L 2802.71,338.844" style="fill:none;fill-rule:evenodd;stroke:#000000;stroke-width:2.0px;stroke-linecap:butt;stroke-linejoin:miter;stroke-opacity:1"/>
<path class="bond-30" d="M 2876.48,301.836 L 2844.34,308.217" style="fill:none;fill-rule:evenodd;stroke:#FF0000;stroke-width:2.0px;stroke-linecap:butt;stroke-linejoin:miter;stroke-opacity:1;stroke-dasharray:6,6"/>
<path class="bond-30" d="M 2844.34,308.217 L 2812.21,314.599" style="fill:none;fill-rule:evenodd;stroke:#000000;stroke-width:2.0px;stroke-linecap:butt;stroke-linejoin:miter;stroke-opacity:1;stroke-dasharray:6,6"/>
<path class="bond-31" d="M 2792.33,335.316 L 2777.59,378.696" style="fill:none;fill-rule:evenodd;stroke:#000000;stroke-width:2.0px;stroke-linecap:butt;stroke-linejoin:miter;stroke-opacity:1"/>
<path class="bond-31" d="M 2777.59,378.696 L 2762.85,422.076" style="fill:none;fill-rule:evenodd;stroke:#FF0000;stroke-width:2.0px;stroke-linecap:butt;stroke-linejoin:miter;stroke-opacity:1"/>
<path class="bond-31" d="M 2813.09,342.372 L 2798.35,385.752" style="fill:none;fill-rule:evenodd;stroke:#000000;stroke-width:2.0px;stroke-linecap:butt;stroke-linejoin:miter;stroke-opacity:1"/>
<path class="bond-31" d="M 2798.35,385.752 L 2783.61,429.132" style="fill:none;fill-rule:evenodd;stroke:#FF0000;stroke-width:2.0px;stroke-linecap:butt;stroke-linejoin:miter;stroke-opacity:1"/>
<path class="bond-32" d="M 2802.71,338.844 L 2730.44,256.381" style="fill:none;fill-rule:evenodd;stroke:#000000;stroke-width:2.0px;stroke-linecap:butt;stroke-linejoin:miter;stroke-opacity:1"/>
<path class="bond-32" d="M 2808.36,312.02 L 2757.77,254.295" style="fill:none;fill-rule:evenodd;stroke:#000000;stroke-width:2.0px;stroke-linecap:butt;stroke-linejoin:miter;stroke-opacity:1;stroke-dasharray:6,6"/>
<path class="bond-33" d="M 2730.44,256.381 L 2622.88,277.739" style="fill:none;fill-rule:evenodd;stroke:#000000;stroke-width:2.0px;stroke-linecap:butt;stroke-linejoin:miter;stroke-opacity:1"/>
<path class="bond-33" d="M 2710.03,238.074 L 2634.75,253.025" style="fill:none;fill-rule:evenodd;stroke:#000000;stroke-width:2.0px;stroke-linecap:butt;stroke-linejoin:miter;stroke-opacity:1;stroke-dasharray:6,6"/>
<path class="bond-37" d="M 1964.38,81.9325 L 2007.12,106.604" style="fill:none;fill-rule:evenodd;stroke:#000000;stroke-width:2.0px;stroke-linecap:butt;stroke-linejoin:miter;stroke-opacity:1"/>
<path class="bond-38" d="M 2000.54,106.604 L 2000.54,123.499" style="fill:none;fill-rule:evenodd;stroke:#000000;stroke-width:2.0px;stroke-linecap:butt;stroke-linejoin:miter;stroke-opacity:1"/>
<path class="bond-38" d="M 2000.54,123.499 L 2000.54,140.394" style="fill:none;fill-rule:evenodd;stroke:#FF0000;stroke-width:2.0px;stroke-linecap:butt;stroke-linejoin:miter;stroke-opacity:1"/>
<path class="bond-38" d="M 2013.69,106.604 L 2013.69,123.499" style="fill:none;fill-rule:evenodd;stroke:#000000;stroke-width:2.0px;stroke-linecap:butt;stroke-linejoin:miter;stroke-opacity:1"/>
<path class="bond-38" d="M 2013.69,123.499 L 2013.69,140.394" style="fill:none;fill-rule:evenodd;stroke:#FF0000;stroke-width:2.0px;stroke-linecap:butt;stroke-linejoin:miter;stroke-opacity:1"/>
<path class="bond-39" d="M 2007.12,106.604 L 2021.37,98.3772" style="fill:none;fill-rule:evenodd;stroke:#000000;stroke-width:2.0px;stroke-linecap:butt;stroke-linejoin:miter;stroke-opacity:1"/>
<path class="bond-39" d="M 2021.37,98.3772 L 2035.61,90.1503" style="fill:none;fill-rule:evenodd;stroke:#FF0000;stroke-width:2.0px;stroke-linecap:butt;stroke-linejoin:miter;stroke-opacity:1"/>
<path class="bond-40" d="M 2064.08,90.1503 L 2065.22,90.8059" style="fill:none;fill-rule:evenodd;stroke:#FF0000;stroke-width:2.0px;stroke-linecap:butt;stroke-linejoin:miter;stroke-opacity:1"/>
<path class="bond-40" d="M 2065.22,90.8059 L 2066.35,91.4615" style="fill:none;fill-rule:evenodd;stroke:#000000;stroke-width:2.0px;stroke-linecap:butt;stroke-linejoin:miter;stroke-opacity:1"/>
<path class="bond-41" d="M 2111.12,95.9 L 2135.31,81.9325" style="fill:none;fill-rule:evenodd;stroke:#000000;stroke-width:2.0px;stroke-linecap:butt;stroke-linejoin:miter;stroke-opacity:1"/>
<path class="bond-42" d="M 2086,122.558 L 2086,131.675" style="fill:none;fill-rule:evenodd;stroke:#000000;stroke-width:2.0px;stroke-linecap:butt;stroke-linejoin:miter;stroke-opacity:1"/>
<path class="bond-42" d="M 2086,131.675 L 2086,140.793" style="fill:none;fill-rule:evenodd;stroke:#FF0000;stroke-width:2.0px;stroke-linecap:butt;stroke-linejoin:miter;stroke-opacity:1"/>
<path class="bond-42" d="M 2099.16,122.558 L 2099.16,131.675" style="fill:none;fill-rule:evenodd;stroke:#000000;stroke-width:2.0px;stroke-linecap:butt;stroke-linejoin:miter;stroke-opacity:1"/>
<path class="bond-42" d="M 2099.16,131.675 L 2099.16,140.793" style="fill:none;fill-rule:evenodd;stroke:#FF0000;stroke-width:2.0px;stroke-linecap:butt;stroke-linejoin:miter;stroke-opacity:1"/>
<path class="atom-0" d="M 926.461 206.127 Q 926.461 199.327, 929.821 195.527 Q 933.181 191.727, 939.461 191.727 Q 945.741 191.727, 949.101 195.527 Q 952.461 199.327, 952.461 206.127 Q 952.461 213.007, 949.061 216.927 Q 945.661 220.807, 939.461 220.807 Q 933.221 220.807, 929.821 216.927 Q 926.461 213.047, 926.461 206.127 M 939.461 217.607 Q 943.781 217.607, 946.101 214.727 Q 948.461 211.807, 948.461 206.127 Q 948.461 200.567, 946.101 197.767 Q 943.781 194.927, 939.461 194.927 Q 935.141 194.927, 932.781 197.727 Q 930.461 200.527, 930.461 206.127 Q 930.461 211.847, 932.781 214.727 Q 935.141 217.607, 939.461 217.607 " fill="#FF0000"/>
<path class="atom-6" d="M 1250.53 286.16 Q 1250.53 279.36, 1253.89 275.56 Q 1257.25 271.76, 1263.53 271.76 Q 1269.81 271.76, 1273.17 275.56 Q 1276.53 279.36, 1276.53 286.16 Q 1276.53 293.04, 1273.13 296.96 Q 1269.73 300.84, 1263.53 300.84 Q 1257.29 300.84, 1253.89 296.96 Q 1250.53 293.08, 1250.53 286.16 M 1263.53 297.64 Q 1267.85 297.64, 1270.17 294.76 Q 1272.53 291.84, 1272.53 286.16 Q 1272.53 280.6, 1270.17 277.8 Q 1267.85 274.96, 1263.53 274.96 Q 1259.21 274.96, 1256.85 277.76 Q 1254.53 280.56, 1254.53 286.16 Q 1254.53 291.88, 1256.85 294.76 Q 1259.21 297.64, 1263.53 297.64 " fill="#FF0000"/>
<path class="atom-11" d="M 1630.03 40.7801 L 1639.31 55.7801 Q 1640.23 57.2601, 1641.71 59.9401 Q 1643.19 62.6201, 1643.27 62.7801 L 1643.27 40.7801 L 1647.03 40.7801 L 1647.03 69.1001 L 1643.15 69.1001 L 1633.19 52.7001 Q 1632.03 50.7801, 1630.79 48.5801 Q 1629.59 46.3801, 1629.23 45.7001 L 1629.23 69.1001 L 1625.55 69.1001 L 1625.55 40.7801 L 1630.03 40.7801 " fill="#0000FF"/>
<path class="atom-11" d="M 1650.43 40.7801 L 1654.27 40.7801 L 1654.27 52.8201 L 1668.75 52.8201 L 1668.75 40.7801 L 1672.59 40.7801 L 1672.59 69.1001 L 1668.75 69.1001 L 1668.75 56.0201 L 1654.27 56.0201 L 1654.27 69.1001 L 1650.43 69.1001 L 1650.43 40.7801 " fill="#0000FF"/>
<path class="atom-11" d="M 1673.97 68.1065 Q 1674.65 66.3377, 1676.29 65.3609 Q 1677.93 64.3577, 1680.2 64.3577 Q 1683.02 64.3577, 1684.61 65.8889 Q 1686.19 67.4201, 1686.19 70.1393 Q 1686.19 72.9113, 1684.13 75.4985 Q 1682.1 78.0857, 1677.87 81.1481 L 1686.51 81.1481 L 1686.51 83.2601 L 1673.91 83.2601 L 1673.91 81.4913 Q 1677.4 79.0097, 1679.46 77.1617 Q 1681.54 75.3137, 1682.55 73.6505 Q 1683.55 71.9873, 1683.55 70.2713 Q 1683.55 68.4761, 1682.65 67.4729 Q 1681.75 66.4697, 1680.2 66.4697 Q 1678.69 66.4697, 1677.69 67.0769 Q 1676.69 67.6841, 1675.97 69.0305 L 1673.97 68.1065 " fill="#0000FF"/>
<path class="atom-14" d="M 1633.64 383.813 Q 1633.64 377.013, 1637 373.213 Q 1640.36 369.413, 1646.64 369.413 Q 1652.92 369.413, 1656.28 373.213 Q 1659.64 377.013, 1659.64 383.813 Q 1659.64 390.693, 1656.24 394.613 Q 1652.84 398.493, 1646.64 398.493 Q 1640.4 398.493, 1637 394.613 Q 1633.64 390.733, 1633.64 383.813 M 1646.64 395.293 Q 1650.96 395.293, 1653.28 392.413 Q 1655.64 389.493, 1655.64 383.813 Q 1655.64 378.253, 1653.28 375.453 Q 1650.96 372.613, 1646.64 372.613 Q 1642.32 372.613, 1639.96 375.413 Q 1637.64 378.213, 1637.64 383.813 Q 1637.64 389.533, 1639.96 392.413 Q 1642.32 395.293, 1646.64 395.293 " fill="#FF0000"/>
<path class="atom-14" d="M 1663.04 369.733 L 1666.88 369.733 L 1666.88 381.773 L 1681.36 381.773 L 1681.36 369.733 L 1685.2 369.733 L 1685.2 398.053 L 1681.36 398.053 L 1681.36 384.973 L 1666.88 384.973 L 1666.88 398.053 L 1663.04 398.053 L 1663.04 369.733 " fill="#FF0000"/>
<path class="atom-15" d="M 1723.38 216.431 Q 1723.38 209.631, 1726.74 205.831 Q 1730.1 202.031, 1736.38 202.031 Q 1742.66 202.031, 1746.02 205.831 Q 1749.38 209.631, 1749.38 216.431 Q 1749.38 223.311, 1745.98 227.231 Q 1742.58 231.111, 1736.38 231.111 Q 1730.14 231.111, 1726.74 227.231 Q 1723.38 223.351, 1723.38 216.431 M 1736.38 227.911 Q 1740.7 227.911, 1743.02 225.031 Q 1745.38 222.111, 1745.38 216.431 Q 1745.38 210.871, 1743.02 208.071 Q 1740.7 205.231, 1736.38 205.231 Q 1732.06 205.231, 1729.7 208.031 Q 1727.38 210.831, 1727.38 216.431 Q 1727.38 222.151, 1729.7 225.031 Q 1732.06 227.911, 1736.38 227.911 " fill="#FF0000"/>
<path class="atom-18" d="M 2430.06 216.714 Q 2430.06 209.914, 2433.42 206.114 Q 2436.78 202.314, 2443.06 202.314 Q 2449.34 202.314, 2452.7 206.114 Q 2456.06 209.914, 2456.06 216.714 Q 2456.06 223.594, 2452.66 227.514 Q 2449.26 231.394, 2443.06 231.394 Q 2436.82 231.394, 2433.42 227.514 Q 2430.06 223.634, 2430.06 216.714 M 2443.06 228.194 Q 2447.38 228.194, 2449.7 225.314 Q 2452.06 222.394, 2452.06 216.714 Q 2452.06 211.154, 2449.7 208.354 Q 2447.38 205.514, 2443.06 205.514 Q 2438.74 205.514, 2436.38 208.314 Q 2434.06 211.114, 2434.06 216.714 Q 2434.06 222.434, 2436.38 225.314 Q 2438.74 228.194, 2443.06 228.194 " fill="#FF0000"/>
<path class="atom-23" d="M 2867.01 117.04 L 2876.29 132.04 Q 2877.21 133.52, 2878.69 136.2 Q 2880.17 138.88, 2880.25 139.04 L 2880.25 117.04 L 2884.01 117.04 L 2884.01 145.36 L 2880.13 145.36 L 2870.17 128.96 Q 2869.01 127.04, 2867.77 124.84 Q 2866.57 122.64, 2866.21 121.96 L 2866.21 145.36 L 2862.53 145.36 L 2862.53 117.04 L 2867.01 117.04 " fill="#0000FF"/>
<path class="atom-24" d="M 2911.53 213.783 Q 2911.53 206.743, 2914.81 203.063 Q 2918.13 199.343, 2924.41 199.343 Q 2930.25 199.343, 2933.37 203.463 L 2930.73 205.623 Q 2928.45 202.623, 2924.41 202.623 Q 2920.13 202.623, 2917.85 205.503 Q 2915.61 208.343, 2915.61 213.783 Q 2915.61 219.383, 2917.93 222.263 Q 2920.29 225.143, 2924.85 225.143 Q 2927.97 225.143, 2931.61 223.263 L 2932.73 226.263 Q 2931.25 227.223, 2929.01 227.783 Q 2926.77 228.343, 2924.29 228.343 Q 2918.13 228.343, 2914.81 224.583 Q 2911.53 220.823, 2911.53 213.783 " fill="#000000"/>
<path class="atom-24" d="M 2936.37 223.303 L 2940.37 223.303 L 2940.37 227.303 L 2936.37 227.303 L 2936.37 223.303 M 2936.37 209.543 L 2940.37 209.543 L 2940.37 213.543 L 2936.37 213.543 L 2936.37 209.543 " fill="#000000"/>
<path class="atom-24" d="M 2957.29 212.983 Q 2959.89 214.103, 2961.37 215.783 Q 2962.85 217.423, 2962.85 220.223 Q 2962.85 222.623, 2961.61 224.503 Q 2960.37 226.343, 2958.13 227.383 Q 2955.93 228.383, 2953.01 228.383 Q 2948.29 228.383, 2945.57 226.223 Q 2942.85 224.023, 2942.85 220.223 Q 2942.85 217.903, 2944.05 216.183 Q 2945.25 214.423, 2947.73 213.103 Q 2945.89 212.063, 2944.89 210.543 Q 2943.89 208.983, 2943.89 206.583 Q 2943.89 203.263, 2946.29 201.303 Q 2948.73 199.343, 2952.85 199.343 Q 2956.97 199.343, 2959.37 201.303 Q 2961.81 203.263, 2961.81 206.583 Q 2961.81 208.663, 2960.65 210.223 Q 2959.53 211.743, 2957.29 212.983 M 2952.85 202.343 Q 2950.49 202.343, 2949.17 203.463 Q 2947.89 204.583, 2947.89 206.583 Q 2947.89 208.063, 2948.77 209.063 Q 2949.65 210.023, 2950.89 210.583 Q 2952.17 211.143, 2954.61 211.983 Q 2956.33 210.783, 2957.05 209.503 Q 2957.81 208.223, 2957.81 206.583 Q 2957.81 204.583, 2956.49 203.463 Q 2955.21 202.343, 2952.85 202.343 M 2953.01 225.383 Q 2955.65 225.383, 2957.25 223.983 Q 2958.85 222.543, 2958.85 220.183 Q 2958.85 218.663, 2958.01 217.703 Q 2957.17 216.743, 2955.89 216.183 Q 2954.65 215.623, 2952.41 214.903 L 2950.61 214.303 Q 2948.61 215.503, 2947.73 216.943 Q 2946.85 218.343, 2946.85 220.183 Q 2946.85 222.543, 2948.53 223.983 Q 2950.21 225.383, 2953.01 225.383 " fill="#000000"/>
<path class="atom-29" d="M 3094.64 276.682 Q 3094.96 276.802, 3096.28 277.362 Q 3097.6 277.922, 3099.04 278.282 Q 3100.52 278.602, 3101.96 278.602 Q 3104.64 278.602, 3106.2 277.322 Q 3107.76 276.002, 3107.76 273.722 Q 3107.76 272.162, 3106.96 271.202 Q 3106.2 270.242, 3105 269.722 Q 3103.8 269.202, 3101.8 268.602 Q 3099.28 267.842, 3097.76 267.122 Q 3096.28 266.402, 3095.2 264.882 Q 3094.16 263.362, 3094.16 260.802 Q 3094.16 257.242, 3096.56 255.042 Q 3099 252.842, 3103.8 252.842 Q 3107.08 252.842, 3110.8 254.402 L 3109.88 257.482 Q 3106.48 256.082, 3103.92 256.082 Q 3101.16 256.082, 3099.64 257.242 Q 3098.12 258.362, 3098.16 260.322 Q 3098.16 261.842, 3098.92 262.762 Q 3099.72 263.682, 3100.84 264.202 Q 3102 264.722, 3103.92 265.322 Q 3106.48 266.122, 3108 266.922 Q 3109.52 267.722, 3110.6 269.362 Q 3111.72 270.962, 3111.72 273.722 Q 3111.72 277.642, 3109.08 279.762 Q 3106.48 281.842, 3102.12 281.842 Q 3099.6 281.842, 3097.68 281.282 Q 3095.8 280.762, 3093.56 279.842 L 3094.64 276.682 " fill="#CCCC00"/>
<path class="atom-29" d="M 3114.72 276.402 L 3118.72 276.402 L 3118.72 280.402 L 3114.72 280.402 L 3114.72 276.402 M 3114.72 262.642 L 3118.72 262.642 L 3118.72 266.642 L 3114.72 266.642 L 3114.72 262.642 " fill="#CCCC00"/>
<path class="atom-29" d="M 3122.44 277.882 L 3128.64 277.882 L 3128.64 256.722 L 3121.8 258.842 L 3120.88 256.482 L 3129.56 252.602 L 3132.4 253.082 L 3132.4 277.882 L 3137.96 277.882 L 3137.96 281.082 L 3122.44 281.082 L 3122.44 277.882 " fill="#CCCC00"/>
<path class="atom-29" d="M 3153.24 266.162 Q 3156 266.962, 3157.32 268.762 Q 3158.68 270.522, 3158.68 273.322 Q 3158.68 275.722, 3157.48 277.602 Q 3156.28 279.442, 3154.08 280.482 Q 3151.88 281.482, 3149 281.482 Q 3145.96 281.482, 3143.68 280.442 Q 3141.44 279.362, 3139.64 277.202 L 3141.92 274.882 Q 3143.68 276.802, 3145.16 277.562 Q 3146.64 278.282, 3149 278.282 Q 3151.56 278.282, 3153.12 276.922 Q 3154.68 275.522, 3154.68 273.282 Q 3154.68 270.402, 3153.04 269.122 Q 3151.44 267.802, 3147.96 267.802 L 3145.92 267.802 L 3145.92 264.922 L 3147.72 264.922 Q 3150.8 264.882, 3152.44 263.562 Q 3154.08 262.202, 3154.08 259.682 Q 3154.08 257.842, 3152.72 256.762 Q 3151.36 255.642, 3149.04 255.642 Q 3146.68 255.642, 3145.2 256.482 Q 3143.76 257.322, 3142.64 259.442 L 3139.88 257.962 Q 3140.88 255.602, 3143.28 254.042 Q 3145.68 252.442, 3149.04 252.442 Q 3153.2 252.442, 3155.64 254.402 Q 3158.08 256.362, 3158.08 259.682 Q 3158.08 261.962, 3156.84 263.602 Q 3155.6 265.242, 3153.24 266.162 " fill="#CCCC00"/>
<path class="atom-30" d="M 2897.26 317.565 Q 2897.26 310.765, 2900.62 306.965 Q 2903.98 303.165, 2910.26 303.165 Q 2916.54 303.165, 2919.9 306.965 Q 2923.26 310.765, 2923.26 317.565 Q 2923.26 324.445, 2919.86 328.365 Q 2916.46 332.245, 2910.26 332.245 Q 2904.02 332.245, 2900.62 328.365 Q 2897.26 324.485, 2897.26 317.565 M 2910.26 329.045 Q 2914.58 329.045, 2916.9 326.165 Q 2919.26 323.245, 2919.26 317.565 Q 2919.26 312.005, 2916.9 309.205 Q 2914.58 306.365, 2910.26 306.365 Q 2905.94 306.365, 2903.58 309.165 Q 2901.26 311.965, 2901.26 317.565 Q 2901.26 323.285, 2903.58 326.165 Q 2905.94 329.045, 2910.26 329.045 " fill="#FF0000"/>
<path class="atom-32" d="M 2754.43 442.745 Q 2754.43 435.945, 2757.79 432.145 Q 2761.15 428.345, 2767.43 428.345 Q 2773.71 428.345, 2777.07 432.145 Q 2780.43 435.945, 2780.43 442.745 Q 2780.43 449.625, 2777.03 453.545 Q 2773.63 457.425, 2767.43 457.425 Q 2761.19 457.425, 2757.79 453.545 Q 2754.43 449.665, 2754.43 442.745 M 2767.43 454.225 Q 2771.75 454.225, 2774.07 451.345 Q 2776.43 448.425, 2776.43 442.745 Q 2776.43 437.185, 2774.07 434.385 Q 2771.75 431.545, 2767.43 431.545 Q 2763.11 431.545, 2760.75 434.345 Q 2758.43 437.145, 2758.43 442.745 Q 2758.43 448.465, 2760.75 451.345 Q 2763.11 454.225, 2767.43 454.225 " fill="#FF0000"/>
<path class="atom-37" d="M 1994.12 156.028 Q 1994.12 149.228, 1997.48 145.428 Q 2000.84 141.628, 2007.12 141.628 Q 2013.4 141.628, 2016.76 145.428 Q 2020.12 149.228, 2020.12 156.028 Q 2020.12 162.908, 2016.72 166.828 Q 2013.32 170.708, 2007.12 170.708 Q 2000.88 170.708, 1997.48 166.828 Q 1994.12 162.948, 1994.12 156.028 M 2007.12 167.508 Q 2011.44 167.508, 2013.76 164.628 Q 2016.12 161.708, 2016.12 156.028 Q 2016.12 150.468, 2013.76 147.668 Q 2011.44 144.828, 2007.12 144.828 Q 2002.8 144.828, 2000.44 147.628 Q 1998.12 150.428, 1998.12 156.028 Q 1998.12 161.748, 2000.44 164.628 Q 2002.8 167.508, 2007.12 167.508 " fill="#FF0000"/>
<path class="atom-38" d="M 2036.85 82.0125 Q 2036.85 75.2125, 2040.21 71.4125 Q 2043.57 67.6125, 2049.85 67.6125 Q 2056.13 67.6125, 2059.49 71.4125 Q 2062.85 75.2125, 2062.85 82.0125 Q 2062.85 88.8925, 2059.45 92.8125 Q 2056.05 96.6925, 2049.85 96.6925 Q 2043.61 96.6925, 2040.21 92.8125 Q 2036.85 88.9325, 2036.85 82.0125 M 2049.85 93.4925 Q 2054.17 93.4925, 2056.49 90.6125 Q 2058.85 87.6925, 2058.85 82.0125 Q 2058.85 76.4525, 2056.49 73.6525 Q 2054.17 70.8125, 2049.85 70.8125 Q 2045.53 70.8125, 2043.17 73.6125 Q 2040.85 76.4125, 2040.85 82.0125 Q 2040.85 87.7325, 2043.17 90.6125 Q 2045.53 93.4925, 2049.85 93.4925 " fill="#FF0000"/>
<path class="atom-39" d="M 2058.57 106.724 Q 2058.57 99.6842, 2061.85 96.0042 Q 2065.17 92.2842, 2071.45 92.2842 Q 2077.29 92.2842, 2080.41 96.4042 L 2077.77 98.5642 Q 2075.49 95.5642, 2071.45 95.5642 Q 2067.17 95.5642, 2064.89 98.4442 Q 2062.65 101.284, 2062.65 106.724 Q 2062.65 112.324, 2064.97 115.204 Q 2067.33 118.084, 2071.89 118.084 Q 2075.01 118.084, 2078.65 116.204 L 2079.77 119.204 Q 2078.29 120.164, 2076.05 120.724 Q 2073.81 121.284, 2071.33 121.284 Q 2065.17 121.284, 2061.85 117.524 Q 2058.57 113.764, 2058.57 106.724 " fill="#000000"/>
<path class="atom-39" d="M 2083.41 116.244 L 2087.41 116.244 L 2087.41 120.244 L 2083.41 120.244 L 2083.41 116.244 M 2083.41 102.484 L 2087.41 102.484 L 2087.41 106.484 L 2083.41 106.484 L 2083.41 102.484 " fill="#000000"/>
<path class="atom-39" d="M 2104.33 105.924 Q 2106.93 107.044, 2108.41 108.724 Q 2109.89 110.364, 2109.89 113.164 Q 2109.89 115.564, 2108.65 117.444 Q 2107.41 119.284, 2105.17 120.324 Q 2102.97 121.324, 2100.05 121.324 Q 2095.33 121.324, 2092.61 119.164 Q 2089.89 116.964, 2089.89 113.164 Q 2089.89 110.844, 2091.09 109.124 Q 2092.29 107.364, 2094.77 106.044 Q 2092.93 105.004, 2091.93 103.484 Q 2090.93 101.924, 2090.93 99.5242 Q 2090.93 96.2042, 2093.33 94.2442 Q 2095.77 92.2842, 2099.89 92.2842 Q 2104.01 92.2842, 2106.41 94.2442 Q 2108.85 96.2042, 2108.85 99.5242 Q 2108.85 101.604, 2107.69 103.164 Q 2106.57 104.684, 2104.33 105.924 M 2099.89 95.2842 Q 2097.53 95.2842, 2096.21 96.4042 Q 2094.93 97.5242, 2094.93 99.5242 Q 2094.93 101.004, 2095.81 102.004 Q 2096.69 102.964, 2097.93 103.524 Q 2099.21 104.084, 2101.65 104.924 Q 2103.37 103.724, 2104.09 102.444 Q 2104.85 101.164, 2104.85 99.5242 Q 2104.85 97.5242, 2103.53 96.4042 Q 2102.25 95.2842, 2099.89 95.2842 M 2100.05 118.324 Q 2102.69 118.324, 2104.29 116.924 Q 2105.89 115.484, 2105.89 113.124 Q 2105.89 111.604, 2105.05 110.644 Q 2104.21 109.684, 2102.93 109.124 Q 2101.69 108.564, 2099.45 107.844 L 2097.65 107.244 Q 2095.65 108.444, 2094.77 109.884 Q 2093.89 111.284, 2093.89 113.124 Q 2093.89 115.484, 2095.57 116.924 Q 2097.25 118.324, 2100.05 118.324 " fill="#000000"/>
<path class="atom-41" d="M 2079.58 156.028 Q 2079.58 149.228, 2082.94 145.428 Q 2086.3 141.628, 2092.58 141.628 Q 2098.86 141.628, 2102.22 145.428 Q 2105.58 149.228, 2105.58 156.028 Q 2105.58 162.908, 2102.18 166.828 Q 2098.78 170.708, 2092.58 170.708 Q 2086.34 170.708, 2082.94 166.828 Q 2079.58 162.948, 2079.58 156.028 M 2092.58 167.508 Q 2096.9 167.508, 2099.22 164.628 Q 2101.58 161.708, 2101.58 156.028 Q 2101.58 150.468, 2099.22 147.668 Q 2096.9 144.828, 2092.58 144.828 Q 2088.26 144.828, 2085.9 147.628 Q 2083.58 150.428, 2083.58 156.028 Q 2083.58 161.748, 2085.9 164.628 Q 2088.26 167.508, 2092.58 167.508 " fill="#FF0000"/>
<path class="note" d="M 880.507 92.796 Q 883.027 92.796, 884.287 94.516 Q 885.567 96.216, 885.567 99.616 Q 885.567 103.376, 883.987 105.336 Q 882.427 107.276, 879.407 107.276 Q 878.527 107.276, 877.767 107.076 Q 877.027 106.876, 876.307 106.456 L 877.087 105.116 Q 878.127 105.676, 879.387 105.676 Q 881.387 105.676, 882.407 104.396 Q 883.427 103.096, 883.547 100.436 Q 882.827 101.096, 881.907 101.456 Q 881.007 101.796, 880.027 101.796 Q 878.787 101.796, 877.807 101.256 Q 876.827 100.716, 876.287 99.736 Q 875.747 98.756, 875.747 97.516 Q 875.747 96.136, 876.347 95.076 Q 876.967 93.996, 878.047 93.396 Q 879.127 92.796, 880.507 92.796 M 877.747 97.496 Q 877.747 98.756, 878.447 99.476 Q 879.147 100.196, 880.387 100.196 Q 881.247 100.196, 882.087 99.856 Q 882.947 99.496, 883.547 98.896 Q 883.467 96.556, 882.727 95.496 Q 881.987 94.436, 880.487 94.436 Q 879.727 94.436, 879.087 94.836 Q 878.467 95.236, 878.107 95.936 Q 877.747 96.636, 877.747 97.496 " fill="#000000"/>
<path class="note" d="M 743.369 145.999 L 746.469 145.999 L 746.469 135.419 L 743.049 136.479 L 742.589 135.299 L 746.929 133.359 L 748.349 133.599 L 748.349 145.999 L 751.129 145.999 L 751.129 147.599 L 743.369 147.599 L 743.369 145.999 " fill="#000000"/>
<path class="note" d="M 752.989 145.999 L 756.089 145.999 L 756.089 135.419 L 752.669 136.479 L 752.209 135.299 L 756.549 133.359 L 757.969 133.599 L 757.969 145.999 L 760.749 145.999 L 760.749 147.599 L 752.989 147.599 L 752.989 145.999 " fill="#000000"/>
<path class="note" d="M 742.909 277.175 L 746.009 277.175 L 746.009 266.595 L 742.589 267.655 L 742.129 266.475 L 746.469 264.535 L 747.889 264.775 L 747.889 277.175 L 750.669 277.175 L 750.669 278.775 L 742.909 278.775 L 742.909 277.175 " fill="#000000"/>
<path class="note" d="M 751.709 267.295 Q 752.229 265.955, 753.469 265.215 Q 754.709 264.455, 756.429 264.455 Q 758.569 264.455, 759.769 265.615 Q 760.969 266.775, 760.969 268.835 Q 760.969 270.935, 759.409 272.895 Q 757.869 274.855, 754.669 277.175 L 761.209 277.175 L 761.209 278.775 L 751.669 278.775 L 751.669 277.435 Q 754.309 275.555, 755.869 274.155 Q 757.449 272.755, 758.209 271.495 Q 758.969 270.235, 758.969 268.935 Q 758.969 267.575, 758.289 266.815 Q 757.609 266.055, 756.429 266.055 Q 755.289 266.055, 754.529 266.515 Q 753.769 266.975, 753.229 267.995 L 751.709 267.295 " fill="#000000"/>
<path class="note" d="M 867.107 317.698 L 870.207 317.698 L 870.207 307.118 L 866.787 308.178 L 866.327 306.998 L 870.667 305.058 L 872.087 305.298 L 872.087 317.698 L 874.867 317.698 L 874.867 319.298 L 867.107 319.298 L 867.107 317.698 " fill="#000000"/>
<path class="note" d="M 881.267 319.458 Q 878.667 319.458, 877.367 317.538 Q 876.087 315.618, 876.087 312.198 Q 876.087 308.778, 877.367 306.878 Q 878.647 304.978, 881.267 304.978 Q 883.887 304.978, 885.167 306.878 Q 886.447 308.778, 886.447 312.198 Q 886.447 315.618, 885.147 317.538 Q 883.867 319.458, 881.267 319.458 M 881.267 317.858 Q 882.807 317.858, 883.627 316.438 Q 884.447 314.998, 884.447 312.198 Q 884.447 309.418, 883.627 307.998 Q 882.807 306.578, 881.267 306.578 Q 879.747 306.578, 878.907 307.998 Q 878.087 309.418, 878.087 312.198 Q 878.087 314.998, 878.907 316.438 Q 879.747 317.858, 881.267 317.858 " fill="#000000"/>
<path class="note" d="M 1154.77 255.893 L 1157.87 255.893 L 1157.87 245.313 L 1154.45 246.373 L 1153.99 245.193 L 1158.33 243.253 L 1159.75 243.493 L 1159.75 255.893 L 1162.53 255.893 L 1162.53 257.493 L 1154.77 257.493 L 1154.77 255.893 " fill="#000000"/>
<path class="note" d="M 1259.95 318.292 Q 1260.47 316.952, 1261.71 316.212 Q 1262.95 315.452, 1264.67 315.452 Q 1266.81 315.452, 1268.01 316.612 Q 1269.21 317.772, 1269.21 319.832 Q 1269.21 321.932, 1267.65 323.892 Q 1266.11 325.852, 1262.91 328.172 L 1269.45 328.172 L 1269.45 329.772 L 1259.91 329.772 L 1259.91 328.432 Q 1262.55 326.552, 1264.11 325.152 Q 1265.69 323.752, 1266.45 322.492 Q 1267.21 321.232, 1267.21 319.932 Q 1267.21 318.572, 1266.53 317.812 Q 1265.85 317.052, 1264.67 317.052 Q 1263.53 317.052, 1262.77 317.512 Q 1262.01 317.972, 1261.47 318.992 L 1259.95 318.292 " fill="#000000"/>
<path class="note" d="M 1342.66 219.359 Q 1344.04 219.759, 1344.7 220.659 Q 1345.38 221.539, 1345.38 222.939 Q 1345.38 224.139, 1344.78 225.079 Q 1344.18 225.999, 1343.08 226.519 Q 1341.98 227.019, 1340.54 227.019 Q 1339.02 227.019, 1337.88 226.499 Q 1336.76 225.959, 1335.86 224.879 L 1337 223.719 Q 1337.88 224.679, 1338.62 225.059 Q 1339.36 225.419, 1340.54 225.419 Q 1341.82 225.419, 1342.6 224.739 Q 1343.38 224.039, 1343.38 222.919 Q 1343.38 221.479, 1342.56 220.839 Q 1341.76 220.179, 1340.02 220.179 L 1339 220.179 L 1339 218.739 L 1339.9 218.739 Q 1341.44 218.719, 1342.26 218.059 Q 1343.08 217.379, 1343.08 216.119 Q 1343.08 215.199, 1342.4 214.659 Q 1341.72 214.099, 1340.56 214.099 Q 1339.38 214.099, 1338.64 214.519 Q 1337.92 214.939, 1337.36 215.999 L 1335.98 215.259 Q 1336.48 214.079, 1337.68 213.299 Q 1338.88 212.499, 1340.56 212.499 Q 1342.64 212.499, 1343.86 213.479 Q 1345.08 214.459, 1345.08 216.119 Q 1345.08 217.259, 1344.46 218.079 Q 1343.84 218.899, 1342.66 219.359 " fill="#000000"/>
<path class="note" d="M 1340.92 112.282 L 1342.62 112.282 L 1342.62 113.882 L 1340.92 113.882 L 1340.92 117.142 L 1339.04 117.142 L 1339.04 113.882 L 1331.72 113.882 L 1331.72 112.622 L 1337.92 102.982 L 1340.92 102.982 L 1340.92 112.282 M 1334.04 112.282 L 1339.04 112.282 L 1339.04 104.262 L 1334.04 112.282 " fill="#000000"/>
<path class="note" d="M 1446.24 40.8659 Q 1447.48 40.8659, 1448.5 41.4059 Q 1449.52 41.9259, 1450.1 42.9259 Q 1450.68 43.9059, 1450.68 45.2459 Q 1450.68 46.7059, 1449.96 47.7659 Q 1449.26 48.8059, 1448.1 49.3459 Q 1446.94 49.8859, 1445.62 49.8859 Q 1444.32 49.8859, 1443.12 49.4059 Q 1441.92 48.9259, 1441.1 48.0059 L 1442.3 46.7659 Q 1442.96 47.4859, 1443.86 47.8859 Q 1444.76 48.2659, 1445.68 48.2659 Q 1446.94 48.2659, 1447.8 47.4859 Q 1448.68 46.7059, 1448.68 45.2859 Q 1448.68 43.7859, 1447.8 43.0859 Q 1446.94 42.3659, 1445.56 42.3659 Q 1444.32 42.3659, 1442.94 42.9059 L 1441.84 42.3859 L 1442.52 35.5659 L 1449.8 35.5659 L 1449.6 37.1659 L 1444.16 37.1659 L 1443.74 41.3659 Q 1445 40.8659, 1446.24 40.8659 " fill="#000000"/>
<path class="note" d="M 1543.16 92.7787 Q 1544.4 92.7787, 1545.38 93.3187 Q 1546.36 93.8587, 1546.9 94.8387 Q 1547.44 95.8187, 1547.44 97.0587 Q 1547.44 98.4387, 1546.82 99.5187 Q 1546.22 100.579, 1545.14 101.179 Q 1544.06 101.779, 1542.68 101.779 Q 1540.16 101.779, 1538.88 100.079 Q 1537.62 98.3587, 1537.62 94.9587 Q 1537.62 91.1987, 1539.18 89.2587 Q 1540.76 87.2987, 1543.78 87.2987 Q 1544.66 87.2987, 1545.4 87.4987 Q 1546.16 87.6987, 1546.88 88.1187 L 1546.1 89.4587 Q 1545.06 88.8987, 1543.8 88.8987 Q 1541.8 88.8987, 1540.78 90.1987 Q 1539.76 91.4787, 1539.64 94.1387 Q 1540.36 93.4787, 1541.26 93.1387 Q 1542.18 92.7787, 1543.16 92.7787 M 1542.7 100.139 Q 1543.46 100.139, 1544.08 99.7387 Q 1544.72 99.3387, 1545.08 98.6387 Q 1545.44 97.9387, 1545.44 97.0787 Q 1545.44 95.8187, 1544.74 95.0987 Q 1544.04 94.3787, 1542.8 94.3787 Q 1541.94 94.3787, 1541.08 94.7387 Q 1540.24 95.0787, 1539.64 95.6787 Q 1539.72 98.0187, 1540.46 99.0787 Q 1541.2 100.139, 1542.7 100.139 " fill="#000000"/>
<path class="note" d="M 1656.28 17.2473 L 1648.86 17.2473 L 1648.86 15.6473 L 1658.26 15.6473 L 1658.26 17.0673 L 1652.54 29.8073 L 1650.62 29.8073 L 1656.28 17.2473 " fill="#000000"/>
<path class="note" d="M 1564.97 208.581 L 1568.07 208.581 L 1568.07 198.001 L 1564.65 199.061 L 1564.19 197.881 L 1568.53 195.941 L 1569.95 196.181 L 1569.95 208.581 L 1572.73 208.581 L 1572.73 210.181 L 1564.97 210.181 L 1564.97 208.581 " fill="#000000"/>
<path class="note" d="M 1580.51 197.621 L 1573.09 197.621 L 1573.09 196.021 L 1582.49 196.021 L 1582.49 197.441 L 1576.77 210.181 L 1574.85 210.181 L 1580.51 197.621 " fill="#000000"/>
<path class="note" d="M 1614.65 289.286 L 1617.75 289.286 L 1617.75 278.706 L 1614.33 279.766 L 1613.87 278.586 L 1618.21 276.646 L 1619.63 276.886 L 1619.63 289.286 L 1622.41 289.286 L 1622.41 290.886 L 1614.65 290.886 L 1614.65 289.286 " fill="#000000"/>
<path class="note" d="M 1628.47 282.026 Q 1629.71 282.026, 1630.73 282.566 Q 1631.75 283.086, 1632.33 284.086 Q 1632.91 285.066, 1632.91 286.406 Q 1632.91 287.866, 1632.19 288.926 Q 1631.49 289.966, 1630.33 290.506 Q 1629.17 291.046, 1627.85 291.046 Q 1626.55 291.046, 1625.35 290.566 Q 1624.15 290.086, 1623.33 289.166 L 1624.53 287.926 Q 1625.19 288.646, 1626.09 289.046 Q 1626.99 289.426, 1627.91 289.426 Q 1629.17 289.426, 1630.03 288.646 Q 1630.91 287.866, 1630.91 286.446 Q 1630.91 284.946, 1630.03 284.246 Q 1629.17 283.526, 1627.79 283.526 Q 1626.55 283.526, 1625.17 284.066 L 1624.07 283.546 L 1624.75 276.726 L 1632.03 276.726 L 1631.83 278.326 L 1626.39 278.326 L 1625.97 282.526 Q 1627.23 282.026, 1628.47 282.026 " fill="#000000"/>
<path class="note" d="M 1634.28 425.786 L 1637.38 425.786 L 1637.38 415.206 L 1633.96 416.266 L 1633.5 415.086 L 1637.84 413.146 L 1639.26 413.386 L 1639.26 425.786 L 1642.04 425.786 L 1642.04 427.386 L 1634.28 427.386 L 1634.28 425.786 " fill="#000000"/>
<path class="note" d="M 1651.84 422.526 L 1653.54 422.526 L 1653.54 424.126 L 1651.84 424.126 L 1651.84 427.386 L 1649.96 427.386 L 1649.96 424.126 L 1642.64 424.126 L 1642.64 422.866 L 1648.84 413.226 L 1651.84 413.226 L 1651.84 422.526 M 1644.96 422.526 L 1649.96 422.526 L 1649.96 414.506 L 1644.96 422.526 " fill="#000000"/>
<path class="note" d="M 1754.09 202.649 L 1757.19 202.649 L 1757.19 192.069 L 1753.77 193.129 L 1753.31 191.949 L 1757.65 190.009 L 1759.07 190.249 L 1759.07 202.649 L 1761.85 202.649 L 1761.85 204.249 L 1754.09 204.249 L 1754.09 202.649 " fill="#000000"/>
<path class="note" d="M 1768.75 195.409 Q 1769.99 195.409, 1770.97 195.949 Q 1771.95 196.489, 1772.49 197.469 Q 1773.03 198.449, 1773.03 199.689 Q 1773.03 201.069, 1772.41 202.149 Q 1771.81 203.209, 1770.73 203.809 Q 1769.65 204.409, 1768.27 204.409 Q 1765.75 204.409, 1764.47 202.709 Q 1763.21 200.989, 1763.21 197.589 Q 1763.21 193.829, 1764.77 191.889 Q 1766.35 189.929, 1769.37 189.929 Q 1770.25 189.929, 1770.99 190.129 Q 1771.75 190.329, 1772.47 190.749 L 1771.69 192.089 Q 1770.65 191.529, 1769.39 191.529 Q 1767.39 191.529, 1766.37 192.829 Q 1765.35 194.109, 1765.23 196.769 Q 1765.95 196.109, 1766.85 195.769 Q 1767.77 195.409, 1768.75 195.409 M 1768.29 202.769 Q 1769.05 202.769, 1769.67 202.369 Q 1770.31 201.969, 1770.67 201.269 Q 1771.03 200.569, 1771.03 199.709 Q 1771.03 198.449, 1770.33 197.729 Q 1769.63 197.009, 1768.39 197.009 Q 1767.53 197.009, 1766.67 197.369 Q 1765.83 197.709, 1765.23 198.309 Q 1765.31 200.649, 1766.05 201.709 Q 1766.79 202.769, 1768.29 202.769 " fill="#000000"/>
<path class="note" d="M 1440.56 303.934 L 1443.66 303.934 L 1443.66 293.354 L 1440.24 294.414 L 1439.78 293.234 L 1444.12 291.294 L 1445.54 291.534 L 1445.54 303.934 L 1448.32 303.934 L 1448.32 305.534 L 1440.56 305.534 L 1440.56 303.934 " fill="#000000"/>
<path class="note" d="M 1456.78 298.034 Q 1458.08 298.594, 1458.82 299.434 Q 1459.56 300.254, 1459.56 301.654 Q 1459.56 302.854, 1458.94 303.794 Q 1458.32 304.714, 1457.2 305.234 Q 1456.1 305.734, 1454.64 305.734 Q 1452.28 305.734, 1450.92 304.654 Q 1449.56 303.554, 1449.56 301.654 Q 1449.56 300.494, 1450.16 299.634 Q 1450.76 298.754, 1452 298.094 Q 1451.08 297.574, 1450.58 296.814 Q 1450.08 296.034, 1450.08 294.834 Q 1450.08 293.174, 1451.28 292.194 Q 1452.5 291.214, 1454.56 291.214 Q 1456.62 291.214, 1457.82 292.194 Q 1459.04 293.174, 1459.04 294.834 Q 1459.04 295.874, 1458.46 296.654 Q 1457.9 297.414, 1456.78 298.034 M 1454.56 292.714 Q 1453.38 292.714, 1452.72 293.274 Q 1452.08 293.834, 1452.08 294.834 Q 1452.08 295.574, 1452.52 296.074 Q 1452.96 296.554, 1453.58 296.834 Q 1454.22 297.114, 1455.44 297.534 Q 1456.3 296.934, 1456.66 296.294 Q 1457.04 295.654, 1457.04 294.834 Q 1457.04 293.834, 1456.38 293.274 Q 1455.74 292.714, 1454.56 292.714 M 1454.64 304.234 Q 1455.96 304.234, 1456.76 303.534 Q 1457.56 302.814, 1457.56 301.634 Q 1457.56 300.874, 1457.14 300.394 Q 1456.72 299.914, 1456.08 299.634 Q 1455.46 299.354, 1454.34 298.994 L 1453.44 298.694 Q 1452.44 299.294, 1452 300.014 Q 1451.56 300.714, 1451.56 301.634 Q 1451.56 302.814, 1452.4 303.534 Q 1453.24 304.234, 1454.64 304.234 " fill="#000000"/>
<path class="note" d="M 2353.55 151.737 L 2356.65 151.737 L 2356.65 141.157 L 2353.23 142.217 L 2352.77 141.037 L 2357.11 139.097 L 2358.53 139.337 L 2358.53 151.737 L 2361.31 151.737 L 2361.31 153.337 L 2353.55 153.337 L 2353.55 151.737 " fill="#000000"/>
<path class="note" d="M 2426.57 246.922 Q 2427.09 245.582, 2428.33 244.842 Q 2429.57 244.082, 2431.29 244.082 Q 2433.43 244.082, 2434.63 245.242 Q 2435.83 246.402, 2435.83 248.462 Q 2435.83 250.562, 2434.27 252.522 Q 2432.73 254.482, 2429.53 256.802 L 2436.07 256.802 L 2436.07 258.402 L 2426.53 258.402 L 2426.53 257.062 Q 2429.17 255.182, 2430.73 253.782 Q 2432.31 252.382, 2433.07 251.122 Q 2433.83 249.862, 2433.83 248.562 Q 2433.83 247.202, 2433.15 246.442 Q 2432.47 245.682, 2431.29 245.682 Q 2430.15 245.682, 2429.39 246.142 Q 2428.63 246.602, 2428.09 247.622 L 2426.57 246.922 " fill="#000000"/>
<path class="note" d="M 2540.61 181.232 Q 2541.99 181.632, 2542.65 182.532 Q 2543.33 183.412, 2543.33 184.812 Q 2543.33 186.012, 2542.73 186.952 Q 2542.13 187.872, 2541.03 188.392 Q 2539.93 188.892, 2538.49 188.892 Q 2536.97 188.892, 2535.83 188.372 Q 2534.71 187.832, 2533.81 186.752 L 2534.95 185.592 Q 2535.83 186.552, 2536.57 186.932 Q 2537.31 187.292, 2538.49 187.292 Q 2539.77 187.292, 2540.55 186.612 Q 2541.33 185.912, 2541.33 184.792 Q 2541.33 183.352, 2540.51 182.712 Q 2539.71 182.052, 2537.97 182.052 L 2536.95 182.052 L 2536.95 180.612 L 2537.85 180.612 Q 2539.39 180.592, 2540.21 179.932 Q 2541.03 179.252, 2541.03 177.992 Q 2541.03 177.072, 2540.35 176.532 Q 2539.67 175.972, 2538.51 175.972 Q 2537.33 175.972, 2536.59 176.392 Q 2535.87 176.812, 2535.31 177.872 L 2533.93 177.132 Q 2534.43 175.952, 2535.63 175.172 Q 2536.83 174.372, 2538.51 174.372 Q 2540.59 174.372, 2541.81 175.352 Q 2543.03 176.332, 2543.03 177.992 Q 2543.03 179.132, 2542.41 179.952 Q 2541.79 180.772, 2540.61 181.232 " fill="#000000"/>
<path class="note" d="M 2577.6 79.9302 L 2579.3 79.9302 L 2579.3 81.5302 L 2577.6 81.5302 L 2577.6 84.7902 L 2575.72 84.7902 L 2575.72 81.5302 L 2568.4 81.5302 L 2568.4 80.2702 L 2574.6 70.6302 L 2577.6 70.6302 L 2577.6 79.9302 M 2570.72 79.9302 L 2575.72 79.9302 L 2575.72 71.9102 L 2570.72 79.9302 " fill="#000000"/>
<path class="note" d="M 2699.67 51.0119 Q 2700.91 51.0119, 2701.93 51.5519 Q 2702.95 52.0719, 2703.53 53.0719 Q 2704.11 54.0519, 2704.11 55.3919 Q 2704.11 56.8519, 2703.39 57.9119 Q 2702.69 58.9519, 2701.53 59.4919 Q 2700.37 60.0319, 2699.05 60.0319 Q 2697.75 60.0319, 2696.55 59.5519 Q 2695.35 59.0719, 2694.53 58.1519 L 2695.73 56.9119 Q 2696.39 57.6319, 2697.29 58.0319 Q 2698.19 58.4119, 2699.11 58.4119 Q 2700.37 58.4119, 2701.23 57.6319 Q 2702.11 56.8519, 2702.11 55.4319 Q 2702.11 53.9319, 2701.23 53.2319 Q 2700.37 52.5119, 2698.99 52.5119 Q 2697.75 52.5119, 2696.37 53.0519 L 2695.27 52.5319 L 2695.95 45.7119 L 2703.23 45.7119 L 2703.03 47.3119 L 2697.59 47.3119 L 2697.17 51.5119 Q 2698.43 51.0119, 2699.67 51.0119 " fill="#000000"/>
<path class="note" d="M 2772.23 133.575 Q 2773.47 133.575, 2774.45 134.115 Q 2775.43 134.655, 2775.97 135.635 Q 2776.51 136.615, 2776.51 137.855 Q 2776.51 139.235, 2775.89 140.315 Q 2775.29 141.375, 2774.21 141.975 Q 2773.13 142.575, 2771.75 142.575 Q 2769.23 142.575, 2767.95 140.875 Q 2766.69 139.155, 2766.69 135.755 Q 2766.69 131.995, 2768.25 130.055 Q 2769.83 128.095, 2772.85 128.095 Q 2773.73 128.095, 2774.47 128.295 Q 2775.23 128.495, 2775.95 128.915 L 2775.17 130.255 Q 2774.13 129.695, 2772.87 129.695 Q 2770.87 129.695, 2769.85 130.995 Q 2768.83 132.275, 2768.71 134.935 Q 2769.43 134.275, 2770.33 133.935 Q 2771.25 133.575, 2772.23 133.575 M 2771.77 140.935 Q 2772.53 140.935, 2773.15 140.535 Q 2773.79 140.135, 2774.15 139.435 Q 2774.51 138.735, 2774.51 137.875 Q 2774.51 136.615, 2773.81 135.895 Q 2773.11 135.175, 2771.87 135.175 Q 2771.01 135.175, 2770.15 135.535 Q 2769.31 135.875, 2768.71 136.475 Q 2768.79 138.815, 2769.53 139.875 Q 2770.27 140.935, 2771.77 140.935 " fill="#000000"/>
<path class="note" d="M 2887.75 91.113 L 2880.33 91.113 L 2880.33 89.513 L 2889.73 89.513 L 2889.73 90.933 L 2884.01 103.673 L 2882.09 103.673 L 2887.75 91.113 " fill="#000000"/>
<path class="note" d="M 2959.52 178.716 Q 2960.82 179.276, 2961.56 180.116 Q 2962.3 180.936, 2962.3 182.336 Q 2962.3 183.536, 2961.68 184.476 Q 2961.06 185.396, 2959.94 185.916 Q 2958.84 186.416, 2957.38 186.416 Q 2955.02 186.416, 2953.66 185.336 Q 2952.3 184.236, 2952.3 182.336 Q 2952.3 181.176, 2952.9 180.316 Q 2953.5 179.436, 2954.74 178.776 Q 2953.82 178.256, 2953.32 177.496 Q 2952.82 176.716, 2952.82 175.516 Q 2952.82 173.856, 2954.02 172.876 Q 2955.24 171.896, 2957.3 171.896 Q 2959.36 171.896, 2960.56 172.876 Q 2961.78 173.856, 2961.78 175.516 Q 2961.78 176.556, 2961.2 177.336 Q 2960.64 178.096, 2959.52 178.716 M 2957.3 173.396 Q 2956.12 173.396, 2955.46 173.956 Q 2954.82 174.516, 2954.82 175.516 Q 2954.82 176.256, 2955.26 176.756 Q 2955.7 177.236, 2956.32 177.516 Q 2956.96 177.796, 2958.18 178.216 Q 2959.04 177.616, 2959.4 176.976 Q 2959.78 176.336, 2959.78 175.516 Q 2959.78 174.516, 2959.12 173.956 Q 2958.48 173.396, 2957.3 173.396 M 2957.38 184.916 Q 2958.7 184.916, 2959.5 184.216 Q 2960.3 183.496, 2960.3 182.316 Q 2960.3 181.556, 2959.88 181.076 Q 2959.46 180.596, 2958.82 180.316 Q 2958.2 180.036, 2957.08 179.676 L 2956.18 179.376 Q 2955.18 179.976, 2954.74 180.696 Q 2954.3 181.396, 2954.3 182.316 Q 2954.3 183.496, 2955.14 184.216 Q 2955.98 184.916, 2957.38 184.916 " fill="#000000"/>
<path class="note" d="M 3041.63 170.789 Q 3044.15 170.789, 3045.41 172.509 Q 3046.69 174.209, 3046.69 177.609 Q 3046.69 181.369, 3045.11 183.329 Q 3043.55 185.269, 3040.53 185.269 Q 3039.65 185.269, 3038.89 185.069 Q 3038.15 184.869, 3037.43 184.449 L 3038.21 183.109 Q 3039.25 183.669, 3040.51 183.669 Q 3042.51 183.669, 3043.53 182.389 Q 3044.55 181.089, 3044.67 178.429 Q 3043.95 179.089, 3043.03 179.449 Q 3042.13 179.789, 3041.15 179.789 Q 3039.91 179.789, 3038.93 179.249 Q 3037.95 178.709, 3037.41 177.729 Q 3036.87 176.749, 3036.87 175.509 Q 3036.87 174.129, 3037.47 173.069 Q 3038.09 171.989, 3039.17 171.389 Q 3040.25 170.789, 3041.63 170.789 M 3038.87 175.489 Q 3038.87 176.749, 3039.57 177.469 Q 3040.27 178.189, 3041.51 178.189 Q 3042.37 178.189, 3043.21 177.849 Q 3044.07 177.489, 3044.67 176.889 Q 3044.59 174.549, 3043.85 173.489 Q 3043.11 172.429, 3041.61 172.429 Q 3040.85 172.429, 3040.21 172.829 Q 3039.59 173.229, 3039.23 173.929 Q 3038.87 174.629, 3038.87 175.489 " fill="#000000"/>
<path class="note" d="M 3076.55 82.3516 L 3079.65 82.3516 L 3079.65 71.7716 L 3076.23 72.8316 L 3075.77 71.6516 L 3080.11 69.7116 L 3081.53 69.9516 L 3081.53 82.3516 L 3084.31 82.3516 L 3084.31 83.9516 L 3076.55 83.9516 L 3076.55 82.3516 " fill="#000000"/>
<path class="note" d="M 3090.71 84.1116 Q 3088.11 84.1116, 3086.81 82.1916 Q 3085.53 80.2716, 3085.53 76.8516 Q 3085.53 73.4316, 3086.81 71.5316 Q 3088.09 69.6316, 3090.71 69.6316 Q 3093.33 69.6316, 3094.61 71.5316 Q 3095.89 73.4316, 3095.89 76.8516 Q 3095.89 80.2716, 3094.59 82.1916 Q 3093.31 84.1116, 3090.71 84.1116 M 3090.71 82.5116 Q 3092.25 82.5116, 3093.07 81.0916 Q 3093.89 79.6516, 3093.89 76.8516 Q 3093.89 74.0716, 3093.07 72.6516 Q 3092.25 71.2316, 3090.71 71.2316 Q 3089.19 71.2316, 3088.35 72.6516 Q 3087.53 74.0716, 3087.53 76.8516 Q 3087.53 79.6516, 3088.35 81.0916 Q 3089.19 82.5116, 3090.71 82.5116 " fill="#000000"/>
<path class="note" d="M 3207.76 97.7655 L 3210.86 97.7655 L 3210.86 87.1855 L 3207.44 88.2455 L 3206.98 87.0655 L 3211.32 85.1255 L 3212.74 85.3655 L 3212.74 97.7655 L 3215.52 97.7655 L 3215.52 99.3655 L 3207.76 99.3655 L 3207.76 97.7655 " fill="#000000"/>
<path class="note" d="M 3217.38 97.7655 L 3220.48 97.7655 L 3220.48 87.1855 L 3217.06 88.2455 L 3216.6 87.0655 L 3220.94 85.1255 L 3222.36 85.3655 L 3222.36 97.7655 L 3225.14 97.7655 L 3225.14 99.3655 L 3217.38 99.3655 L 3217.38 97.7655 " fill="#000000"/>
<path class="note" d="M 3234.45 217.107 L 3237.55 217.107 L 3237.55 206.527 L 3234.13 207.587 L 3233.67 206.407 L 3238.01 204.467 L 3239.43 204.707 L 3239.43 217.107 L 3242.21 217.107 L 3242.21 218.707 L 3234.45 218.707 L 3234.45 217.107 " fill="#000000"/>
<path class="note" d="M 3243.25 207.227 Q 3243.77 205.887, 3245.01 205.147 Q 3246.25 204.387, 3247.97 204.387 Q 3250.11 204.387, 3251.31 205.547 Q 3252.51 206.707, 3252.51 208.767 Q 3252.51 210.867, 3250.95 212.827 Q 3249.41 214.787, 3246.21 217.107 L 3252.75 217.107 L 3252.75 218.707 L 3243.21 218.707 L 3243.21 217.367 Q 3245.85 215.487, 3247.41 214.087 Q 3248.99 212.687, 3249.75 211.427 Q 3250.51 210.167, 3250.51 208.867 Q 3250.51 207.507, 3249.83 206.747 Q 3249.15 205.987, 3247.97 205.987 Q 3246.83 205.987, 3246.07 206.447 Q 3245.31 206.907, 3244.77 207.927 L 3243.25 207.227 " fill="#000000"/>
<path class="note" d="M 3116.34 308.618 L 3119.44 308.618 L 3119.44 298.038 L 3116.02 299.098 L 3115.56 297.918 L 3119.9 295.978 L 3121.32 296.218 L 3121.32 308.618 L 3124.1 308.618 L 3124.1 310.218 L 3116.34 310.218 L 3116.34 308.618 " fill="#000000"/>
<path class="note" d="M 3131.74 302.758 Q 3133.12 303.158, 3133.78 304.058 Q 3134.46 304.938, 3134.46 306.338 Q 3134.46 307.538, 3133.86 308.478 Q 3133.26 309.398, 3132.16 309.918 Q 3131.06 310.418, 3129.62 310.418 Q 3128.1 310.418, 3126.96 309.898 Q 3125.84 309.358, 3124.94 308.278 L 3126.08 307.118 Q 3126.96 308.078, 3127.7 308.458 Q 3128.44 308.818, 3129.62 308.818 Q 3130.9 308.818, 3131.68 308.138 Q 3132.46 307.438, 3132.46 306.318 Q 3132.46 304.878, 3131.64 304.238 Q 3130.84 303.578, 3129.1 303.578 L 3128.08 303.578 L 3128.08 302.138 L 3128.98 302.138 Q 3130.52 302.118, 3131.34 301.458 Q 3132.16 300.778, 3132.16 299.518 Q 3132.16 298.598, 3131.48 298.058 Q 3130.8 297.498, 3129.64 297.498 Q 3128.46 297.498, 3127.72 297.918 Q 3127 298.338, 3126.44 299.398 L 3125.06 298.658 Q 3125.56 297.478, 3126.76 296.698 Q 3127.96 295.898, 3129.64 295.898 Q 3131.72 295.898, 3132.94 296.878 Q 3134.16 297.858, 3134.16 299.518 Q 3134.16 300.658, 3133.54 301.478 Q 3132.92 302.298, 3131.74 302.758 " fill="#000000"/>
<path class="note" d="M 2920.84 350.493 L 2923.94 350.493 L 2923.94 339.913 L 2920.52 340.973 L 2920.06 339.793 L 2924.4 337.853 L 2925.82 338.093 L 2925.82 350.493 L 2928.6 350.493 L 2928.6 352.093 L 2920.84 352.093 L 2920.84 350.493 " fill="#000000"/>
<path class="note" d="M 2938.4 347.233 L 2940.1 347.233 L 2940.1 348.833 L 2938.4 348.833 L 2938.4 352.093 L 2936.52 352.093 L 2936.52 348.833 L 2929.2 348.833 L 2929.2 347.573 L 2935.4 337.933 L 2938.4 337.933 L 2938.4 347.233 M 2931.52 347.233 L 2936.52 347.233 L 2936.52 339.213 L 2931.52 347.233 " fill="#000000"/>
<path class="note" d="M 2813.79 371.851 L 2816.89 371.851 L 2816.89 361.271 L 2813.47 362.331 L 2813.01 361.151 L 2817.35 359.211 L 2818.77 359.451 L 2818.77 371.851 L 2821.55 371.851 L 2821.55 373.451 L 2813.79 373.451 L 2813.79 371.851 " fill="#000000"/>
<path class="note" d="M 2827.61 364.591 Q 2828.85 364.591, 2829.87 365.131 Q 2830.89 365.651, 2831.47 366.651 Q 2832.05 367.631, 2832.05 368.971 Q 2832.05 370.431, 2831.33 371.491 Q 2830.63 372.531, 2829.47 373.071 Q 2828.31 373.611, 2826.99 373.611 Q 2825.69 373.611, 2824.49 373.131 Q 2823.29 372.651, 2822.47 371.731 L 2823.67 370.491 Q 2824.33 371.211, 2825.23 371.611 Q 2826.13 371.991, 2827.05 371.991 Q 2828.31 371.991, 2829.17 371.211 Q 2830.05 370.431, 2830.05 369.011 Q 2830.05 367.511, 2829.17 366.811 Q 2828.31 366.091, 2826.93 366.091 Q 2825.69 366.091, 2824.31 366.631 L 2823.21 366.111 L 2823.89 359.291 L 2831.17 359.291 L 2830.97 360.891 L 2825.53 360.891 L 2825.11 365.091 Q 2826.37 364.591, 2827.61 364.591 " fill="#000000"/>
<path class="note" d="M 2742.32 482.833 L 2745.42 482.833 L 2745.42 472.253 L 2742 473.313 L 2741.54 472.133 L 2745.88 470.193 L 2747.3 470.433 L 2747.3 482.833 L 2750.08 482.833 L 2750.08 484.433 L 2742.32 484.433 L 2742.32 482.833 " fill="#000000"/>
<path class="note" d="M 2756.98 475.593 Q 2758.22 475.593, 2759.2 476.133 Q 2760.18 476.673, 2760.72 477.653 Q 2761.26 478.633, 2761.26 479.873 Q 2761.26 481.253, 2760.64 482.333 Q 2760.04 483.393, 2758.96 483.993 Q 2757.88 484.593, 2756.5 484.593 Q 2753.98 484.593, 2752.7 482.893 Q 2751.44 481.173, 2751.44 477.773 Q 2751.44 474.013, 2753 472.073 Q 2754.58 470.113, 2757.6 470.113 Q 2758.48 470.113, 2759.22 470.313 Q 2759.98 470.513, 2760.7 470.933 L 2759.92 472.273 Q 2758.88 471.713, 2757.62 471.713 Q 2755.62 471.713, 2754.6 473.013 Q 2753.58 474.293, 2753.46 476.953 Q 2754.18 476.293, 2755.08 475.953 Q 2756 475.593, 2756.98 475.593 M 2756.52 482.953 Q 2757.28 482.953, 2757.9 482.553 Q 2758.54 482.153, 2758.9 481.453 Q 2759.26 480.753, 2759.26 479.893 Q 2759.26 478.633, 2758.56 477.913 Q 2757.86 477.193, 2756.62 477.193 Q 2755.76 477.193, 2754.9 477.553 Q 2754.06 477.893, 2753.46 478.493 Q 2753.54 480.833, 2754.28 481.893 Q 2755.02 482.953, 2756.52 482.953 " fill="#000000"/>
<path class="note" d="M 2711.92 279.204 L 2715.02 279.204 L 2715.02 268.624 L 2711.6 269.684 L 2711.14 268.504 L 2715.48 266.564 L 2716.9 266.804 L 2716.9 279.204 L 2719.68 279.204 L 2719.68 280.804 L 2711.92 280.804 L 2711.92 279.204 " fill="#000000"/>
<path class="note" d="M 2727.46 268.244 L 2720.04 268.244 L 2720.04 266.644 L 2729.44 266.644 L 2729.44 268.064 L 2723.72 280.804 L 2721.8 280.804 L 2727.46 268.244 " fill="#000000"/>
<path class="note" d="M 2603.63 300.603 L 2606.73 300.603 L 2606.73 290.023 L 2603.31 291.083 L 2602.85 289.903 L 2607.19 287.963 L 2608.61 288.203 L 2608.61 300.603 L 2611.39 300.603 L 2611.39 302.203 L 2603.63 302.203 L 2603.63 300.603 " fill="#000000"/>
<path class="note" d="M 2619.85 294.703 Q 2621.15 295.263, 2621.89 296.103 Q 2622.63 296.923, 2622.63 298.323 Q 2622.63 299.523, 2622.01 300.463 Q 2621.39 301.383, 2620.27 301.903 Q 2619.17 302.403, 2617.71 302.403 Q 2615.35 302.403, 2613.99 301.323 Q 2612.63 300.223, 2612.63 298.323 Q 2612.63 297.163, 2613.23 296.303 Q 2613.83 295.423, 2615.07 294.763 Q 2614.15 294.243, 2613.65 293.483 Q 2613.15 292.703, 2613.15 291.503 Q 2613.15 289.843, 2614.35 288.863 Q 2615.57 287.883, 2617.63 287.883 Q 2619.69 287.883, 2620.89 288.863 Q 2622.11 289.843, 2622.11 291.503 Q 2622.11 292.543, 2621.53 293.323 Q 2620.97 294.083, 2619.85 294.703 M 2617.63 289.383 Q 2616.45 289.383, 2615.79 289.943 Q 2615.15 290.503, 2615.15 291.503 Q 2615.15 292.243, 2615.59 292.743 Q 2616.03 293.223, 2616.65 293.503 Q 2617.29 293.783, 2618.51 294.203 Q 2619.37 293.603, 2619.73 292.963 Q 2620.11 292.323, 2620.11 291.503 Q 2620.11 290.503, 2619.45 289.943 Q 2618.81 289.383, 2617.63 289.383 M 2617.71 300.903 Q 2619.03 300.903, 2619.83 300.203 Q 2620.63 299.483, 2620.63 298.303 Q 2620.63 297.543, 2620.21 297.063 Q 2619.79 296.583, 2619.15 296.303 Q 2618.53 296.023, 2617.41 295.663 L 2616.51 295.363 Q 2615.51 295.963, 2615.07 296.683 Q 2614.63 297.383, 2614.63 298.303 Q 2614.63 299.483, 2615.47 300.203 Q 2616.31 300.903, 2617.71 300.903 " fill="#000000"/>
<path d="M 1033.6 242.825 L 1039.65 242.825 L 1039.65 236.457 L 1042.34 236.457 L 1042.34 242.825 L 1048.54 242.825 L 1048.54 245.129 L 1042.34 245.129 L 1042.34 251.529 L 1039.65 251.529 L 1039.65 245.129 L 1033.6 245.129 L 1033.6 242.825 " fill="#000000"/>
<path d="M 1891.28,245.129 L 2208.41,245.129" style="fill:none;fill-rule:evenodd;stroke:#000000;stroke-width:2.0px;stroke-linecap:butt;stroke-linejoin:miter;stroke-opacity:1"/>
<path d="M 2208.41,245.129 L 2194.68,237.201" style="fill:none;fill-rule:evenodd;stroke:#000000;stroke-width:2.0px;stroke-linecap:butt;stroke-linejoin:miter;stroke-opacity:1"/>
<path d="M 2208.41,245.129 L 2194.68,253.058" style="fill:none;fill-rule:evenodd;stroke:#000000;stroke-width:2.0px;stroke-linecap:butt;stroke-linejoin:miter;stroke-opacity:1"/>
</svg>