<svg xmlns="http://www.w3.org/2000/svg" xmlns:rdkit="http://www.rdkit.org/xml" xmlns:xlink="http://www.w3.org/1999/xlink" version="1.1" baseProfile="full" xml:space="preserve" width="4000px" height="500px" viewBox="0 0 4000 500">
<!-- END OF HEADER -->
<rect style="opacity:1.0;fill:#FFFFFF;stroke:none" width="4000" height="500" x="0" y="0"> </rect>
<path d="M 642.66,453.164 L 622.22,334.365" style="fill:none;fill-rule:evenodd;stroke:#FFFFAA;stroke-width:25.7px;stroke-linecap:butt;stroke-linejoin:miter;stroke-opacity:1"/>
<path d="M 622.22,334.365 L 601.779,215.566" style="fill:none;fill-rule:evenodd;stroke:#FFFFAA;stroke-width:25.7px;stroke-linecap:butt;stroke-linejoin:miter;stroke-opacity:1"/>
<path d="M 622.22,334.365 L 503.421,354.806" style="fill:none;fill-rule:evenodd;stroke:#FFFFAA;stroke-width:25.7px;stroke-linecap:butt;stroke-linejoin:miter;stroke-opacity:1"/>
<path d="M 622.22,334.365 L 741.019,313.924" style="fill:none;fill-rule:evenodd;stroke:#FFFFAA;stroke-width:25.7px;stroke-linecap:butt;stroke-linejoin:miter;stroke-opacity:1"/>
<path d="M 741.019,313.924 L 782.716,200.821" style="fill:none;fill-rule:evenodd;stroke:#FFFFAA;stroke-width:25.7px;stroke-linecap:butt;stroke-linejoin:miter;stroke-opacity:1"/>
<path d="M 782.716,200.821 L 705.614,108.158" style="fill:none;fill-rule:evenodd;stroke:#FFFFAA;stroke-width:25.7px;stroke-linecap:butt;stroke-linejoin:miter;stroke-opacity:1"/>
<path d="M 782.716,200.821 L 901.515,180.38" style="fill:none;fill-rule:evenodd;stroke:#FFFFAA;stroke-width:25.7px;stroke-linecap:butt;stroke-linejoin:miter;stroke-opacity:1"/>
<path d="M 901.515,180.38 L 943.212,67.2769" style="fill:none;fill-rule:evenodd;stroke:#FFFFAA;stroke-width:25.7px;stroke-linecap:butt;stroke-linejoin:miter;stroke-opacity:1"/>
<path d="M 901.515,180.38 L 978.617,273.043" style="fill:none;fill-rule:evenodd;stroke:#FFFFAA;stroke-width:25.7px;stroke-linecap:butt;stroke-linejoin:miter;stroke-opacity:1"/>
<path d="M 943.212,67.2769 L 1062.01,46.8362" style="fill:none;fill-rule:evenodd;stroke:#FFFFAA;stroke-width:25.7px;stroke-linecap:butt;stroke-linejoin:miter;stroke-opacity:1"/>
<path d="M 1062.01,46.8362 L 1139.11,139.499" style="fill:none;fill-rule:evenodd;stroke:#FFFFAA;stroke-width:25.7px;stroke-linecap:butt;stroke-linejoin:miter;stroke-opacity:1"/>
<path d="M 1139.11,139.499 L 1257.91,119.058" style="fill:none;fill-rule:evenodd;stroke:#FFFFAA;stroke-width:25.7px;stroke-linecap:butt;stroke-linejoin:miter;stroke-opacity:1"/>
<path d="M 1139.11,139.499 L 1097.42,252.602" style="fill:none;fill-rule:evenodd;stroke:#FFFFAA;stroke-width:25.7px;stroke-linecap:butt;stroke-linejoin:miter;stroke-opacity:1"/>
<path d="M 1257.91,119.058 L 1335.01,211.721" style="fill:none;fill-rule:evenodd;stroke:#FFFFAA;stroke-width:25.7px;stroke-linecap:butt;stroke-linejoin:miter;stroke-opacity:1"/>
<path d="M 1335.01,211.721 L 1293.32,324.824" style="fill:none;fill-rule:evenodd;stroke:#FFFFAA;stroke-width:25.7px;stroke-linecap:butt;stroke-linejoin:miter;stroke-opacity:1"/>
<path d="M 1335.01,211.721 L 1453.81,191.28" style="fill:none;fill-rule:evenodd;stroke:#FFFFAA;stroke-width:25.7px;stroke-linecap:butt;stroke-linejoin:miter;stroke-opacity:1"/>
<path d="M 1293.32,324.824 L 1174.52,345.265" style="fill:none;fill-rule:evenodd;stroke:#FFFFAA;stroke-width:25.7px;stroke-linecap:butt;stroke-linejoin:miter;stroke-opacity:1"/>
<path d="M 1293.32,324.824 L 1370.42,417.487" style="fill:none;fill-rule:evenodd;stroke:#FFFFAA;stroke-width:25.7px;stroke-linecap:butt;stroke-linejoin:miter;stroke-opacity:1"/>
<path d="M 1370.42,417.487 L 1489.22,397.046" style="fill:none;fill-rule:evenodd;stroke:#FFFFAA;stroke-width:25.7px;stroke-linecap:butt;stroke-linejoin:miter;stroke-opacity:1"/>
<path d="M 1489.22,397.046 L 1530.91,283.943" style="fill:none;fill-rule:evenodd;stroke:#FFFFAA;stroke-width:25.7px;stroke-linecap:butt;stroke-linejoin:miter;stroke-opacity:1"/>
<path d="M 1530.91,283.943 L 1453.81,191.28" style="fill:none;fill-rule:evenodd;stroke:#FFFFAA;stroke-width:25.7px;stroke-linecap:butt;stroke-linejoin:miter;stroke-opacity:1"/>
<path d="M 1097.42,252.602 L 978.617,273.043" style="fill:none;fill-rule:evenodd;stroke:#FFFFAA;stroke-width:25.7px;stroke-linecap:butt;stroke-linejoin:miter;stroke-opacity:1"/>
<path d="M 2493.89,379.452 L 2522.94,262.46" style="fill:none;fill-rule:evenodd;stroke:#FFFFAA;stroke-width:25.7px;stroke-linecap:butt;stroke-linejoin:miter;stroke-opacity:1"/>
<path d="M 2522.94,262.46 L 2551.99,145.467" style="fill:none;fill-rule:evenodd;stroke:#FFFFAA;stroke-width:25.7px;stroke-linecap:butt;stroke-linejoin:miter;stroke-opacity:1"/>
<path d="M 2522.94,262.46 L 2405.95,233.412" style="fill:none;fill-rule:evenodd;stroke:#FFFFAA;stroke-width:25.7px;stroke-linecap:butt;stroke-linejoin:miter;stroke-opacity:1"/>
<path d="M 2522.94,262.46 L 2639.93,291.507" style="fill:none;fill-rule:evenodd;stroke:#FFFFAA;stroke-width:25.7px;stroke-linecap:butt;stroke-linejoin:miter;stroke-opacity:1"/>
<path d="M 2639.93,291.507 L 2723.58,204.713" style="fill:none;fill-rule:evenodd;stroke:#FFFFAA;stroke-width:25.7px;stroke-linecap:butt;stroke-linejoin:miter;stroke-opacity:1"/>
<path d="M 2723.58,204.713 L 2690.24,88.8705" style="fill:none;fill-rule:evenodd;stroke:#FFFFAA;stroke-width:25.7px;stroke-linecap:butt;stroke-linejoin:miter;stroke-opacity:1"/>
<path d="M 2723.58,204.713 L 2840.58,233.761" style="fill:none;fill-rule:evenodd;stroke:#FFFFAA;stroke-width:25.7px;stroke-linecap:butt;stroke-linejoin:miter;stroke-opacity:1"/>
<path d="M 2840.58,233.761 L 2924.23,146.966" style="fill:none;fill-rule:evenodd;stroke:#FFFFAA;stroke-width:25.7px;stroke-linecap:butt;stroke-linejoin:miter;stroke-opacity:1"/>
<path d="M 2840.58,233.761 L 2873.92,349.603" style="fill:none;fill-rule:evenodd;stroke:#FFFFAA;stroke-width:25.7px;stroke-linecap:butt;stroke-linejoin:miter;stroke-opacity:1"/>
<path d="M 2924.23,146.966 L 3041.22,176.014" style="fill:none;fill-rule:evenodd;stroke:#FFFFAA;stroke-width:25.7px;stroke-linecap:butt;stroke-linejoin:miter;stroke-opacity:1"/>
<path d="M 3041.22,176.014 L 3074.56,291.856" style="fill:none;fill-rule:evenodd;stroke:#FFFFAA;stroke-width:25.7px;stroke-linecap:butt;stroke-linejoin:miter;stroke-opacity:1"/>
<path d="M 3074.56,291.856 L 3191.55,320.904" style="fill:none;fill-rule:evenodd;stroke:#FFFFAA;stroke-width:25.7px;stroke-linecap:butt;stroke-linejoin:miter;stroke-opacity:1"/>
<path d="M 3074.56,291.856 L 2990.91,378.651" style="fill:none;fill-rule:evenodd;stroke:#FFFFAA;stroke-width:25.7px;stroke-linecap:butt;stroke-linejoin:miter;stroke-opacity:1"/>
<path d="M 3191.55,320.904 L 3283.82,243.329" style="fill:none;fill-rule:evenodd;stroke:#FFFFAA;stroke-width:25.7px;stroke-linecap:butt;stroke-linejoin:miter;stroke-opacity:1"/>
<path d="M 3357.06,424.101 L 3386.11,307.108" style="fill:none;fill-rule:evenodd;stroke:#FFFFAA;stroke-width:25.7px;stroke-linecap:butt;stroke-linejoin:miter;stroke-opacity:1"/>
<path d="M 3386.11,307.108 L 3492.49,250.412" style="fill:none;fill-rule:evenodd;stroke:#FFFFAA;stroke-width:25.7px;stroke-linecap:butt;stroke-linejoin:miter;stroke-opacity:1"/>
<path d="M 3386.11,307.108 L 3283.82,243.329" style="fill:none;fill-rule:evenodd;stroke:#FFFFAA;stroke-width:25.7px;stroke-linecap:butt;stroke-linejoin:miter;stroke-opacity:1"/>
<path d="M 3492.49,250.412 L 3496.58,129.936" style="fill:none;fill-rule:evenodd;stroke:#FFFFAA;stroke-width:25.7px;stroke-linecap:butt;stroke-linejoin:miter;stroke-opacity:1"/>
<path d="M 3496.58,129.936 L 3394.29,66.1575" style="fill:none;fill-rule:evenodd;stroke:#FFFFAA;stroke-width:25.7px;stroke-linecap:butt;stroke-linejoin:miter;stroke-opacity:1"/>
<path d="M 3394.29,66.1575 L 3287.91,122.854" style="fill:none;fill-rule:evenodd;stroke:#FFFFAA;stroke-width:25.7px;stroke-linecap:butt;stroke-linejoin:miter;stroke-opacity:1"/>
<path d="M 3287.91,122.854 L 3283.82,243.329" style="fill:none;fill-rule:evenodd;stroke:#FFFFAA;stroke-width:25.7px;stroke-linecap:butt;stroke-linejoin:miter;stroke-opacity:1"/>
<path d="M 2990.91,378.651 L 2873.92,349.603" style="fill:none;fill-rule:evenodd;stroke:#FFFFAA;stroke-width:25.7px;stroke-linecap:butt;stroke-linejoin:miter;stroke-opacity:1"/>
<ellipse cx="642.66" cy="453.164" rx="24.1089" ry="24.1089" style="fill:#FFFFAA;fill-rule:evenodd;stroke:#FFFFAA;stroke-width:1px;stroke-linecap:butt;stroke-linejoin:miter;stroke-opacity:1"/>
<ellipse cx="622.22" cy="334.365" rx="24.1089" ry="24.1089" style="fill:#FFFFAA;fill-rule:evenodd;stroke:#FFFFAA;stroke-width:1px;stroke-linecap:butt;stroke-linejoin:miter;stroke-opacity:1"/>
<ellipse cx="601.779" cy="215.566" rx="24.1089" ry="24.1089" style="fill:#FFFFAA;fill-rule:evenodd;stroke:#FFFFAA;stroke-width:1px;stroke-linecap:butt;stroke-linejoin:miter;stroke-opacity:1"/>
<ellipse cx="503.421" cy="354.806" rx="24.1089" ry="24.1089" style="fill:#FFFFAA;fill-rule:evenodd;stroke:#FFFFAA;stroke-width:1px;stroke-linecap:butt;stroke-linejoin:miter;stroke-opacity:1"/>
<ellipse cx="741.019" cy="314.144" rx="24.1089" ry="24.1089" style="fill:#FFFFAA;fill-rule:evenodd;stroke:#FFFFAA;stroke-width:1px;stroke-linecap:butt;stroke-linejoin:miter;stroke-opacity:1"/>
<ellipse cx="782.716" cy="200.821" rx="24.1089" ry="24.1089" style="fill:#FFFFAA;fill-rule:evenodd;stroke:#FFFFAA;stroke-width:1px;stroke-linecap:butt;stroke-linejoin:miter;stroke-opacity:1"/>
<ellipse cx="705.614" cy="108.378" rx="24.1089" ry="24.1089" style="fill:#FFFFAA;fill-rule:evenodd;stroke:#FFFFAA;stroke-width:1px;stroke-linecap:butt;stroke-linejoin:miter;stroke-opacity:1"/>
<ellipse cx="901.515" cy="180.38" rx="24.1089" ry="24.1089" style="fill:#FFFFAA;fill-rule:evenodd;stroke:#FFFFAA;stroke-width:1px;stroke-linecap:butt;stroke-linejoin:miter;stroke-opacity:1"/>
<ellipse cx="943.212" cy="67.2769" rx="24.1089" ry="24.1089" style="fill:#FFFFAA;fill-rule:evenodd;stroke:#FFFFAA;stroke-width:1px;stroke-linecap:butt;stroke-linejoin:miter;stroke-opacity:1"/>
<ellipse cx="1062.01" cy="46.8362" rx="24.1089" ry="24.1089" style="fill:#FFFFAA;fill-rule:evenodd;stroke:#FFFFAA;stroke-width:1px;stroke-linecap:butt;stroke-linejoin:miter;stroke-opacity:1"/>
<ellipse cx="1139.11" cy="139.499" rx="24.1089" ry="24.1089" style="fill:#FFFFAA;fill-rule:evenodd;stroke:#FFFFAA;stroke-width:1px;stroke-linecap:butt;stroke-linejoin:miter;stroke-opacity:1"/>
<ellipse cx="1270.69" cy="119.058" rx="33.2623" ry="24.1089" style="fill:#FFFFAA;fill-rule:evenodd;stroke:#FFFFAA;stroke-width:1px;stroke-linecap:butt;stroke-linejoin:miter;stroke-opacity:1"/>
<ellipse cx="1335.01" cy="211.721" rx="24.1089" ry="24.1089" style="fill:#FFFFAA;fill-rule:evenodd;stroke:#FFFFAA;stroke-width:1px;stroke-linecap:butt;stroke-linejoin:miter;stroke-opacity:1"/>
<ellipse cx="1293.32" cy="324.824" rx="24.1089" ry="24.1089" style="fill:#FFFFAA;fill-rule:evenodd;stroke:#FFFFAA;stroke-width:1px;stroke-linecap:butt;stroke-linejoin:miter;stroke-opacity:1"/>
<ellipse cx="1154.82" cy="352.345" rx="43.0436" ry="30.0379" style="fill:#FFFFAA;fill-rule:evenodd;stroke:#FFFFAA;stroke-width:1px;stroke-linecap:butt;stroke-linejoin:miter;stroke-opacity:1"/>
<ellipse cx="1370.42" cy="417.487" rx="24.1089" ry="24.1089" style="fill:#FFFFAA;fill-rule:evenodd;stroke:#FFFFAA;stroke-width:1px;stroke-linecap:butt;stroke-linejoin:miter;stroke-opacity:1"/>
<ellipse cx="1489.22" cy="397.046" rx="24.1089" ry="24.1089" style="fill:#FFFFAA;fill-rule:evenodd;stroke:#FFFFAA;stroke-width:1px;stroke-linecap:butt;stroke-linejoin:miter;stroke-opacity:1"/>
<ellipse cx="1530.91" cy="283.943" rx="24.1089" ry="24.1089" style="fill:#FFFFAA;fill-rule:evenodd;stroke:#FFFFAA;stroke-width:1px;stroke-linecap:butt;stroke-linejoin:miter;stroke-opacity:1"/>
<ellipse cx="1453.81" cy="191.28" rx="24.1089" ry="24.1089" style="fill:#FFFFAA;fill-rule:evenodd;stroke:#FFFFAA;stroke-width:1px;stroke-linecap:butt;stroke-linejoin:miter;stroke-opacity:1"/>
<ellipse cx="1097.42" cy="252.602" rx="24.1089" ry="24.1089" style="fill:#FFFFAA;fill-rule:evenodd;stroke:#FFFFAA;stroke-width:1px;stroke-linecap:butt;stroke-linejoin:miter;stroke-opacity:1"/>
<ellipse cx="978.617" cy="273.043" rx="24.1089" ry="24.1089" style="fill:#FFFFAA;fill-rule:evenodd;stroke:#FFFFAA;stroke-width:1px;stroke-linecap:butt;stroke-linejoin:miter;stroke-opacity:1"/>
<ellipse cx="2493.89" cy="379.452" rx="24.1089" ry="24.1089" style="fill:#FFFFAA;fill-rule:evenodd;stroke:#FFFFAA;stroke-width:1px;stroke-linecap:butt;stroke-linejoin:miter;stroke-opacity:1"/>
<ellipse cx="2522.94" cy="262.46" rx="24.1089" ry="24.1089" style="fill:#FFFFAA;fill-rule:evenodd;stroke:#FFFFAA;stroke-width:1px;stroke-linecap:butt;stroke-linejoin:miter;stroke-opacity:1"/>
<ellipse cx="2551.99" cy="145.467" rx="24.1089" ry="24.1089" style="fill:#FFFFAA;fill-rule:evenodd;stroke:#FFFFAA;stroke-width:1px;stroke-linecap:butt;stroke-linejoin:miter;stroke-opacity:1"/>
<ellipse cx="2405.95" cy="233.412" rx="24.1089" ry="24.1089" style="fill:#FFFFAA;fill-rule:evenodd;stroke:#FFFFAA;stroke-width:1px;stroke-linecap:butt;stroke-linejoin:miter;stroke-opacity:1"/>
<ellipse cx="2639.93" cy="291.727" rx="24.1089" ry="24.1089" style="fill:#FFFFAA;fill-rule:evenodd;stroke:#FFFFAA;stroke-width:1px;stroke-linecap:butt;stroke-linejoin:miter;stroke-opacity:1"/>
<ellipse cx="2723.58" cy="204.713" rx="24.1089" ry="24.1089" style="fill:#FFFFAA;fill-rule:evenodd;stroke:#FFFFAA;stroke-width:1px;stroke-linecap:butt;stroke-linejoin:miter;stroke-opacity:1"/>
<ellipse cx="2690.24" cy="89.0905" rx="24.1089" ry="24.1089" style="fill:#FFFFAA;fill-rule:evenodd;stroke:#FFFFAA;stroke-width:1px;stroke-linecap:butt;stroke-linejoin:miter;stroke-opacity:1"/>
<ellipse cx="2840.58" cy="233.761" rx="24.1089" ry="24.1089" style="fill:#FFFFAA;fill-rule:evenodd;stroke:#FFFFAA;stroke-width:1px;stroke-linecap:butt;stroke-linejoin:miter;stroke-opacity:1"/>
<ellipse cx="2924.23" cy="146.966" rx="24.1089" ry="24.1089" style="fill:#FFFFAA;fill-rule:evenodd;stroke:#FFFFAA;stroke-width:1px;stroke-linecap:butt;stroke-linejoin:miter;stroke-opacity:1"/>
<ellipse cx="3041.22" cy="176.014" rx="24.1089" ry="24.1089" style="fill:#FFFFAA;fill-rule:evenodd;stroke:#FFFFAA;stroke-width:1px;stroke-linecap:butt;stroke-linejoin:miter;stroke-opacity:1"/>
<ellipse cx="3074.56" cy="291.856" rx="24.1089" ry="24.1089" style="fill:#FFFFAA;fill-rule:evenodd;stroke:#FFFFAA;stroke-width:1px;stroke-linecap:butt;stroke-linejoin:miter;stroke-opacity:1"/>
<ellipse cx="3191.55" cy="320.904" rx="24.1089" ry="24.1089" style="fill:#FFFFAA;fill-rule:evenodd;stroke:#FFFFAA;stroke-width:1px;stroke-linecap:butt;stroke-linejoin:miter;stroke-opacity:1"/>
<ellipse cx="3357.06" cy="424.101" rx="24.1089" ry="24.1089" style="fill:#FFFFAA;fill-rule:evenodd;stroke:#FFFFAA;stroke-width:1px;stroke-linecap:butt;stroke-linejoin:miter;stroke-opacity:1"/>
<ellipse cx="3386.11" cy="307.108" rx="24.1089" ry="24.1089" style="fill:#FFFFAA;fill-rule:evenodd;stroke:#FFFFAA;stroke-width:1px;stroke-linecap:butt;stroke-linejoin:miter;stroke-opacity:1"/>
<ellipse cx="3492.49" cy="250.412" rx="24.1089" ry="24.1089" style="fill:#FFFFAA;fill-rule:evenodd;stroke:#FFFFAA;stroke-width:1px;stroke-linecap:butt;stroke-linejoin:miter;stroke-opacity:1"/>
<ellipse cx="3496.58" cy="129.936" rx="24.1089" ry="24.1089" style="fill:#FFFFAA;fill-rule:evenodd;stroke:#FFFFAA;stroke-width:1px;stroke-linecap:butt;stroke-linejoin:miter;stroke-opacity:1"/>
<ellipse cx="3394.29" cy="66.1575" rx="24.1089" ry="24.1089" style="fill:#FFFFAA;fill-rule:evenodd;stroke:#FFFFAA;stroke-width:1px;stroke-linecap:butt;stroke-linejoin:miter;stroke-opacity:1"/>
<ellipse cx="3287.91" cy="122.854" rx="24.1089" ry="24.1089" style="fill:#FFFFAA;fill-rule:evenodd;stroke:#FFFFAA;stroke-width:1px;stroke-linecap:butt;stroke-linejoin:miter;stroke-opacity:1"/>
<ellipse cx="3283.82" cy="243.329" rx="24.1089" ry="24.1089" style="fill:#FFFFAA;fill-rule:evenodd;stroke:#FFFFAA;stroke-width:1px;stroke-linecap:butt;stroke-linejoin:miter;stroke-opacity:1"/>
<ellipse cx="2990.91" cy="378.651" rx="24.1089" ry="24.1089" style="fill:#FFFFAA;fill-rule:evenodd;stroke:#FFFFAA;stroke-width:1px;stroke-linecap:butt;stroke-linejoin:miter;stroke-opacity:1"/>
<ellipse cx="2873.92" cy="349.603" rx="24.1089" ry="24.1089" style="fill:#FFFFAA;fill-rule:evenodd;stroke:#FFFFAA;stroke-width:1px;stroke-linecap:butt;stroke-linejoin:miter;stroke-opacity:1"/>
<path class="bond-0" d="M 642.66,453.164 L 622.22,334.365" style="fill:none;fill-rule:evenodd;stroke:#000000;stroke-width:2.0px;stroke-linecap:butt;stroke-linejoin:miter;stroke-opacity:1"/>
<path class="bond-1" d="M 622.22,334.365 L 601.779,215.566" style="fill:none;fill-rule:evenodd;stroke:#000000;stroke-width:2.0px;stroke-linecap:butt;stroke-linejoin:miter;stroke-opacity:1"/>
<path class="bond-2" d="M 622.22,334.365 L 503.421,354.806" style="fill:none;fill-rule:evenodd;stroke:#000000;stroke-width:2.0px;stroke-linecap:butt;stroke-linejoin:miter;stroke-opacity:1"/>
<path class="bond-3" d="M 622.22,334.365 L 673.612,325.522" style="fill:none;fill-rule:evenodd;stroke:#000000;stroke-width:2.0px;stroke-linecap:butt;stroke-linejoin:miter;stroke-opacity:1"/>
<path class="bond-3" d="M 673.612,325.522 L 725.005,316.679" style="fill:none;fill-rule:evenodd;stroke:#FF0000;stroke-width:2.0px;stroke-linecap:butt;stroke-linejoin:miter;stroke-opacity:1"/>
<path class="bond-4" d="M 747.409,296.591 L 765.063,248.706" style="fill:none;fill-rule:evenodd;stroke:#FF0000;stroke-width:2.0px;stroke-linecap:butt;stroke-linejoin:miter;stroke-opacity:1"/>
<path class="bond-4" d="M 765.063,248.706 L 782.716,200.821" style="fill:none;fill-rule:evenodd;stroke:#000000;stroke-width:2.0px;stroke-linecap:butt;stroke-linejoin:miter;stroke-opacity:1"/>
<path class="bond-5" d="M 791.982,193.111 L 760.826,155.666" style="fill:none;fill-rule:evenodd;stroke:#000000;stroke-width:2.0px;stroke-linecap:butt;stroke-linejoin:miter;stroke-opacity:1"/>
<path class="bond-5" d="M 760.826,155.666 L 729.67,118.222" style="fill:none;fill-rule:evenodd;stroke:#FF0000;stroke-width:2.0px;stroke-linecap:butt;stroke-linejoin:miter;stroke-opacity:1"/>
<path class="bond-5" d="M 773.45,208.531 L 742.293,171.087" style="fill:none;fill-rule:evenodd;stroke:#000000;stroke-width:2.0px;stroke-linecap:butt;stroke-linejoin:miter;stroke-opacity:1"/>
<path class="bond-5" d="M 742.293,171.087 L 711.137,133.642" style="fill:none;fill-rule:evenodd;stroke:#FF0000;stroke-width:2.0px;stroke-linecap:butt;stroke-linejoin:miter;stroke-opacity:1"/>
<path class="bond-6" d="M 782.716,200.821 L 835.239,191.784" style="fill:none;fill-rule:evenodd;stroke:#000000;stroke-width:2.0px;stroke-linecap:butt;stroke-linejoin:miter;stroke-opacity:1"/>
<path class="bond-6" d="M 835.239,191.784 L 887.761,182.747" style="fill:none;fill-rule:evenodd;stroke:#0000FF;stroke-width:2.0px;stroke-linecap:butt;stroke-linejoin:miter;stroke-opacity:1"/>
<path class="bond-7" d="M 907.846,163.207 L 925.529,115.242" style="fill:none;fill-rule:evenodd;stroke:#0000FF;stroke-width:2.0px;stroke-linecap:butt;stroke-linejoin:miter;stroke-opacity:1"/>
<path class="bond-7" d="M 925.529,115.242 L 943.212,67.2769" style="fill:none;fill-rule:evenodd;stroke:#000000;stroke-width:2.0px;stroke-linecap:butt;stroke-linejoin:miter;stroke-opacity:1"/>
<path class="bond-20" d="M 915.269,196.91 L 946.943,234.976" style="fill:none;fill-rule:evenodd;stroke:#0000FF;stroke-width:2.0px;stroke-linecap:butt;stroke-linejoin:miter;stroke-opacity:1"/>
<path class="bond-20" d="M 946.943,234.976 L 978.617,273.043" style="fill:none;fill-rule:evenodd;stroke:#000000;stroke-width:2.0px;stroke-linecap:butt;stroke-linejoin:miter;stroke-opacity:1"/>
<path class="bond-8" d="M 943.212,67.2769 L 1062.01,46.8362" style="fill:none;fill-rule:evenodd;stroke:#000000;stroke-width:2.0px;stroke-linecap:butt;stroke-linejoin:miter;stroke-opacity:1"/>
<path class="bond-9" d="M 1062.01,46.8362 L 1139.11,139.499" style="fill:none;fill-rule:evenodd;stroke:#000000;stroke-width:2.0px;stroke-linecap:butt;stroke-linejoin:miter;stroke-opacity:1"/>
<path class="bond-10" d="M 1139.11,139.499 L 1191.64,130.462" style="fill:none;fill-rule:evenodd;stroke:#000000;stroke-width:2.0px;stroke-linecap:butt;stroke-linejoin:miter;stroke-opacity:1"/>
<path class="bond-10" d="M 1191.64,130.462 L 1244.16,121.425" style="fill:none;fill-rule:evenodd;stroke:#0000FF;stroke-width:2.0px;stroke-linecap:butt;stroke-linejoin:miter;stroke-opacity:1"/>
<path class="bond-18" d="M 1139.11,139.499 L 1097.42,252.602" style="fill:none;fill-rule:evenodd;stroke:#000000;stroke-width:2.0px;stroke-linecap:butt;stroke-linejoin:miter;stroke-opacity:1"/>
<path class="bond-11" d="M 1272.2,136.232 L 1303.61,173.976" style="fill:none;fill-rule:evenodd;stroke:#0000FF;stroke-width:2.0px;stroke-linecap:butt;stroke-linejoin:miter;stroke-opacity:1"/>
<path class="bond-11" d="M 1303.61,173.976 L 1335.01,211.721" style="fill:none;fill-rule:evenodd;stroke:#000000;stroke-width:2.0px;stroke-linecap:butt;stroke-linejoin:miter;stroke-opacity:1"/>
<path class="bond-12" d="M 1335.01,211.721 L 1293.32,324.824" style="fill:none;fill-rule:evenodd;stroke:#000000;stroke-width:2.0px;stroke-linecap:butt;stroke-linejoin:miter;stroke-opacity:1"/>
<path class="bond-12" d="M 1351.38,237.026 L 1322.19,316.198" style="fill:none;fill-rule:evenodd;stroke:#000000;stroke-width:2.0px;stroke-linecap:butt;stroke-linejoin:miter;stroke-opacity:1;stroke-dasharray:6,6"/>
<path class="bond-21" d="M 1335.01,211.721 L 1453.81,191.28" style="fill:none;fill-rule:evenodd;stroke:#000000;stroke-width:2.0px;stroke-linecap:butt;stroke-linejoin:miter;stroke-opacity:1"/>
<path class="bond-21" d="M 1356.92,232.414 L 1440.08,218.106" style="fill:none;fill-rule:evenodd;stroke:#000000;stroke-width:2.0px;stroke-linecap:butt;stroke-linejoin:miter;stroke-opacity:1;stroke-dasharray:6,6"/>
<path class="bond-13" d="M 1293.32,324.824 L 1240.79,333.861" style="fill:none;fill-rule:evenodd;stroke:#000000;stroke-width:2.0px;stroke-linecap:butt;stroke-linejoin:miter;stroke-opacity:1"/>
<path class="bond-13" d="M 1240.79,333.861 L 1188.27,342.898" style="fill:none;fill-rule:evenodd;stroke:#0000FF;stroke-width:2.0px;stroke-linecap:butt;stroke-linejoin:miter;stroke-opacity:1"/>
<path class="bond-14" d="M 1293.32,324.824 L 1370.42,417.487" style="fill:none;fill-rule:evenodd;stroke:#000000;stroke-width:2.0px;stroke-linecap:butt;stroke-linejoin:miter;stroke-opacity:1"/>
<path class="bond-14" d="M 1323.41,323.303 L 1377.39,388.167" style="fill:none;fill-rule:evenodd;stroke:#000000;stroke-width:2.0px;stroke-linecap:butt;stroke-linejoin:miter;stroke-opacity:1;stroke-dasharray:6,6"/>
<path class="bond-15" d="M 1370.42,417.487 L 1489.22,397.046" style="fill:none;fill-rule:evenodd;stroke:#000000;stroke-width:2.0px;stroke-linecap:butt;stroke-linejoin:miter;stroke-opacity:1"/>
<path class="bond-15" d="M 1384.15,390.661 L 1467.31,376.352" style="fill:none;fill-rule:evenodd;stroke:#000000;stroke-width:2.0px;stroke-linecap:butt;stroke-linejoin:miter;stroke-opacity:1;stroke-dasharray:6,6"/>
<path class="bond-16" d="M 1489.22,397.046 L 1530.91,283.943" style="fill:none;fill-rule:evenodd;stroke:#000000;stroke-width:2.0px;stroke-linecap:butt;stroke-linejoin:miter;stroke-opacity:1"/>
<path class="bond-16" d="M 1472.85,371.741 L 1502.04,292.569" style="fill:none;fill-rule:evenodd;stroke:#000000;stroke-width:2.0px;stroke-linecap:butt;stroke-linejoin:miter;stroke-opacity:1;stroke-dasharray:6,6"/>
<path class="bond-17" d="M 1530.91,283.943 L 1453.81,191.28" style="fill:none;fill-rule:evenodd;stroke:#000000;stroke-width:2.0px;stroke-linecap:butt;stroke-linejoin:miter;stroke-opacity:1"/>
<path class="bond-17" d="M 1500.82,285.464 L 1446.85,220.6" style="fill:none;fill-rule:evenodd;stroke:#000000;stroke-width:2.0px;stroke-linecap:butt;stroke-linejoin:miter;stroke-opacity:1;stroke-dasharray:6,6"/>
<path class="bond-19" d="M 1097.42,252.602 L 978.617,273.043" style="fill:none;fill-rule:evenodd;stroke:#000000;stroke-width:2.0px;stroke-linecap:butt;stroke-linejoin:miter;stroke-opacity:1"/>
<path class="bond-22" d="M 2493.89,379.452 L 2522.94,262.46" style="fill:none;fill-rule:evenodd;stroke:#000000;stroke-width:2.0px;stroke-linecap:butt;stroke-linejoin:miter;stroke-opacity:1"/>
<path class="bond-23" d="M 2522.94,262.46 L 2551.99,145.467" style="fill:none;fill-rule:evenodd;stroke:#000000;stroke-width:2.0px;stroke-linecap:butt;stroke-linejoin:miter;stroke-opacity:1"/>
<path class="bond-24" d="M 2522.94,262.46 L 2405.95,233.412" style="fill:none;fill-rule:evenodd;stroke:#000000;stroke-width:2.0px;stroke-linecap:butt;stroke-linejoin:miter;stroke-opacity:1"/>
<path class="bond-25" d="M 2522.94,262.46 L 2573.43,274.995" style="fill:none;fill-rule:evenodd;stroke:#000000;stroke-width:2.0px;stroke-linecap:butt;stroke-linejoin:miter;stroke-opacity:1"/>
<path class="bond-25" d="M 2573.43,274.995 L 2623.92,287.531" style="fill:none;fill-rule:evenodd;stroke:#FF0000;stroke-width:2.0px;stroke-linecap:butt;stroke-linejoin:miter;stroke-opacity:1"/>
<path class="bond-26" d="M 2655.95,274.892 L 2689.76,239.803" style="fill:none;fill-rule:evenodd;stroke:#FF0000;stroke-width:2.0px;stroke-linecap:butt;stroke-linejoin:miter;stroke-opacity:1"/>
<path class="bond-26" d="M 2689.76,239.803 L 2723.58,204.713" style="fill:none;fill-rule:evenodd;stroke:#000000;stroke-width:2.0px;stroke-linecap:butt;stroke-linejoin:miter;stroke-opacity:1"/>
<path class="bond-27" d="M 2735.17,201.379 L 2721.06,152.344" style="fill:none;fill-rule:evenodd;stroke:#000000;stroke-width:2.0px;stroke-linecap:butt;stroke-linejoin:miter;stroke-opacity:1"/>
<path class="bond-27" d="M 2721.06,152.344 L 2706.94,103.31" style="fill:none;fill-rule:evenodd;stroke:#FF0000;stroke-width:2.0px;stroke-linecap:butt;stroke-linejoin:miter;stroke-opacity:1"/>
<path class="bond-27" d="M 2712,208.047 L 2697.89,159.012" style="fill:none;fill-rule:evenodd;stroke:#000000;stroke-width:2.0px;stroke-linecap:butt;stroke-linejoin:miter;stroke-opacity:1"/>
<path class="bond-27" d="M 2697.89,159.012 L 2683.78,109.978" style="fill:none;fill-rule:evenodd;stroke:#FF0000;stroke-width:2.0px;stroke-linecap:butt;stroke-linejoin:miter;stroke-opacity:1"/>
<path class="bond-28" d="M 2723.58,204.713 L 2775.2,217.529" style="fill:none;fill-rule:evenodd;stroke:#000000;stroke-width:2.0px;stroke-linecap:butt;stroke-linejoin:miter;stroke-opacity:1"/>
<path class="bond-28" d="M 2775.2,217.529 L 2826.82,230.346" style="fill:none;fill-rule:evenodd;stroke:#0000FF;stroke-width:2.0px;stroke-linecap:butt;stroke-linejoin:miter;stroke-opacity:1"/>
<path class="bond-29" d="M 2854.33,219.49 L 2889.28,183.228" style="fill:none;fill-rule:evenodd;stroke:#0000FF;stroke-width:2.0px;stroke-linecap:butt;stroke-linejoin:miter;stroke-opacity:1"/>
<path class="bond-29" d="M 2889.28,183.228 L 2924.23,146.966" style="fill:none;fill-rule:evenodd;stroke:#000000;stroke-width:2.0px;stroke-linecap:butt;stroke-linejoin:miter;stroke-opacity:1"/>
<path class="bond-43" d="M 2845.52,250.934 L 2859.72,300.269" style="fill:none;fill-rule:evenodd;stroke:#0000FF;stroke-width:2.0px;stroke-linecap:butt;stroke-linejoin:miter;stroke-opacity:1"/>
<path class="bond-43" d="M 2859.72,300.269 L 2873.92,349.603" style="fill:none;fill-rule:evenodd;stroke:#000000;stroke-width:2.0px;stroke-linecap:butt;stroke-linejoin:miter;stroke-opacity:1"/>
<path class="bond-30" d="M 2924.23,146.966 L 3041.22,176.014" style="fill:none;fill-rule:evenodd;stroke:#000000;stroke-width:2.0px;stroke-linecap:butt;stroke-linejoin:miter;stroke-opacity:1"/>
<path class="bond-31" d="M 3041.22,176.014 L 3074.56,291.856" style="fill:none;fill-rule:evenodd;stroke:#000000;stroke-width:2.0px;stroke-linecap:butt;stroke-linejoin:miter;stroke-opacity:1"/>
<path class="bond-32" d="M 3074.56,291.856 L 3126.18,304.673" style="fill:none;fill-rule:evenodd;stroke:#000000;stroke-width:2.0px;stroke-linecap:butt;stroke-linejoin:miter;stroke-opacity:1"/>
<path class="bond-32" d="M 3126.18,304.673 L 3177.8,317.489" style="fill:none;fill-rule:evenodd;stroke:#0000FF;stroke-width:2.0px;stroke-linecap:butt;stroke-linejoin:miter;stroke-opacity:1"/>
<path class="bond-41" d="M 3074.56,291.856 L 2990.91,378.651" style="fill:none;fill-rule:evenodd;stroke:#000000;stroke-width:2.0px;stroke-linecap:butt;stroke-linejoin:miter;stroke-opacity:1"/>
<path class="bond-33" d="M 3198.51,338.078 L 3214.25,376.917" style="fill:none;fill-rule:evenodd;stroke:#0000FF;stroke-width:2.0px;stroke-linecap:butt;stroke-linejoin:miter;stroke-opacity:1"/>
<path class="bond-33" d="M 3214.25,376.917 L 3229.99,415.757" style="fill:none;fill-rule:evenodd;stroke:#000000;stroke-width:2.0px;stroke-linecap:butt;stroke-linejoin:miter;stroke-opacity:1"/>
<path class="bond-33" d="M 3225.58,340.676 L 3236.59,367.864" style="fill:none;fill-rule:evenodd;stroke:#0000FF;stroke-width:2.0px;stroke-linecap:butt;stroke-linejoin:miter;stroke-opacity:1;stroke-dasharray:6,6"/>
<path class="bond-33" d="M 3236.59,367.864 L 3247.61,395.052" style="fill:none;fill-rule:evenodd;stroke:#000000;stroke-width:2.0px;stroke-linecap:butt;stroke-linejoin:miter;stroke-opacity:1;stroke-dasharray:6,6"/>
<path class="bond-44" d="M 3205.31,309.341 L 3244.56,276.335" style="fill:none;fill-rule:evenodd;stroke:#0000FF;stroke-width:2.0px;stroke-linecap:butt;stroke-linejoin:miter;stroke-opacity:1"/>
<path class="bond-44" d="M 3244.56,276.335 L 3283.82,243.329" style="fill:none;fill-rule:evenodd;stroke:#000000;stroke-width:2.0px;stroke-linecap:butt;stroke-linejoin:miter;stroke-opacity:1"/>
<path class="bond-44" d="M 3232.6,317.892 L 3260.08,294.788" style="fill:none;fill-rule:evenodd;stroke:#0000FF;stroke-width:2.0px;stroke-linecap:butt;stroke-linejoin:miter;stroke-opacity:1;stroke-dasharray:6,6"/>
<path class="bond-44" d="M 3260.08,294.788 L 3287.56,271.684" style="fill:none;fill-rule:evenodd;stroke:#000000;stroke-width:2.0px;stroke-linecap:butt;stroke-linejoin:miter;stroke-opacity:1;stroke-dasharray:6,6"/>
<path class="bond-34" d="M 3249.35,431.738 L 3296.49,428.396" style="fill:none;fill-rule:evenodd;stroke:#000000;stroke-width:2.0px;stroke-linecap:butt;stroke-linejoin:miter;stroke-opacity:1"/>
<path class="bond-34" d="M 3296.49,428.396 L 3343.62,425.054" style="fill:none;fill-rule:evenodd;stroke:#0000FF;stroke-width:2.0px;stroke-linecap:butt;stroke-linejoin:miter;stroke-opacity:1"/>
<path class="bond-34" d="M 3261.79,406.687 L 3294.78,404.347" style="fill:none;fill-rule:evenodd;stroke:#000000;stroke-width:2.0px;stroke-linecap:butt;stroke-linejoin:miter;stroke-opacity:1;stroke-dasharray:6,6"/>
<path class="bond-34" d="M 3294.78,404.347 L 3327.78,402.008" style="fill:none;fill-rule:evenodd;stroke:#0000FF;stroke-width:2.0px;stroke-linecap:butt;stroke-linejoin:miter;stroke-opacity:1;stroke-dasharray:6,6"/>
<path class="bond-35" d="M 3361.33,406.927 L 3373.72,357.017" style="fill:none;fill-rule:evenodd;stroke:#0000FF;stroke-width:2.0px;stroke-linecap:butt;stroke-linejoin:miter;stroke-opacity:1"/>
<path class="bond-35" d="M 3373.72,357.017 L 3386.11,307.108" style="fill:none;fill-rule:evenodd;stroke:#000000;stroke-width:2.0px;stroke-linecap:butt;stroke-linejoin:miter;stroke-opacity:1"/>
<path class="bond-35" d="M 3341.65,386.145 L 3350.32,351.208" style="fill:none;fill-rule:evenodd;stroke:#0000FF;stroke-width:2.0px;stroke-linecap:butt;stroke-linejoin:miter;stroke-opacity:1;stroke-dasharray:6,6"/>
<path class="bond-35" d="M 3350.32,351.208 L 3358.99,316.271" style="fill:none;fill-rule:evenodd;stroke:#000000;stroke-width:2.0px;stroke-linecap:butt;stroke-linejoin:miter;stroke-opacity:1;stroke-dasharray:6,6"/>
<path class="bond-36" d="M 3386.11,307.108 L 3492.49,250.412" style="fill:none;fill-rule:evenodd;stroke:#000000;stroke-width:2.0px;stroke-linecap:butt;stroke-linejoin:miter;stroke-opacity:1"/>
<path class="bond-36" d="M 3390.73,277.328 L 3465.19,237.64" style="fill:none;fill-rule:evenodd;stroke:#000000;stroke-width:2.0px;stroke-linecap:butt;stroke-linejoin:miter;stroke-opacity:1;stroke-dasharray:6,6"/>
<path class="bond-45" d="M 3386.11,307.108 L 3283.82,243.329" style="fill:none;fill-rule:evenodd;stroke:#000000;stroke-width:2.0px;stroke-linecap:butt;stroke-linejoin:miter;stroke-opacity:1"/>
<path class="bond-45" d="M 3358.01,317.999 L 3286.41,273.354" style="fill:none;fill-rule:evenodd;stroke:#000000;stroke-width:2.0px;stroke-linecap:butt;stroke-linejoin:miter;stroke-opacity:1;stroke-dasharray:6,6"/>
<path class="bond-37" d="M 3492.49,250.412 L 3496.58,129.936" style="fill:none;fill-rule:evenodd;stroke:#000000;stroke-width:2.0px;stroke-linecap:butt;stroke-linejoin:miter;stroke-opacity:1"/>
<path class="bond-37" d="M 3469.01,231.522 L 3471.87,147.19" style="fill:none;fill-rule:evenodd;stroke:#000000;stroke-width:2.0px;stroke-linecap:butt;stroke-linejoin:miter;stroke-opacity:1;stroke-dasharray:6,6"/>
<path class="bond-38" d="M 3496.58,129.936 L 3394.29,66.1575" style="fill:none;fill-rule:evenodd;stroke:#000000;stroke-width:2.0px;stroke-linecap:butt;stroke-linejoin:miter;stroke-opacity:1"/>
<path class="bond-38" d="M 3468.48,140.827 L 3396.88,96.1823" style="fill:none;fill-rule:evenodd;stroke:#000000;stroke-width:2.0px;stroke-linecap:butt;stroke-linejoin:miter;stroke-opacity:1;stroke-dasharray:6,6"/>
<path class="bond-39" d="M 3394.29,66.1575 L 3287.91,122.854" style="fill:none;fill-rule:evenodd;stroke:#000000;stroke-width:2.0px;stroke-linecap:butt;stroke-linejoin:miter;stroke-opacity:1"/>
<path class="bond-39" d="M 3389.67,95.9378 L 3315.21,135.625" style="fill:none;fill-rule:evenodd;stroke:#000000;stroke-width:2.0px;stroke-linecap:butt;stroke-linejoin:miter;stroke-opacity:1;stroke-dasharray:6,6"/>
<path class="bond-40" d="M 3287.91,122.854 L 3283.82,243.329" style="fill:none;fill-rule:evenodd;stroke:#000000;stroke-width:2.0px;stroke-linecap:butt;stroke-linejoin:miter;stroke-opacity:1"/>
<path class="bond-40" d="M 3311.39,141.743 L 3308.53,226.076" style="fill:none;fill-rule:evenodd;stroke:#000000;stroke-width:2.0px;stroke-linecap:butt;stroke-linejoin:miter;stroke-opacity:1;stroke-dasharray:6,6"/>
<path class="bond-42" d="M 2990.91,378.651 L 2873.92,349.603" style="fill:none;fill-rule:evenodd;stroke:#000000;stroke-width:2.0px;stroke-linecap:butt;stroke-linejoin:miter;stroke-opacity:1"/>
<path class="bond-46" d="M 1874.28,128.241 L 1842.39,84.3555" style="fill:none;fill-rule:evenodd;stroke:#000000;stroke-width:2.0px;stroke-linecap:butt;stroke-linejoin:miter;stroke-opacity:1"/>
<path class="bond-50" d="M 1874.28,128.241 L 1842.39,172.126" style="fill:none;fill-rule:evenodd;stroke:#000000;stroke-width:2.0px;stroke-linecap:butt;stroke-linejoin:miter;stroke-opacity:1"/>
<path class="bond-47" d="M 1842.39,84.3555 L 1790.8,101.118" style="fill:none;fill-rule:evenodd;stroke:#000000;stroke-width:2.0px;stroke-linecap:butt;stroke-linejoin:miter;stroke-opacity:1"/>
<path class="bond-48" d="M 1790.8,101.118 L 1790.8,120.403" style="fill:none;fill-rule:evenodd;stroke:#000000;stroke-width:2.0px;stroke-linecap:butt;stroke-linejoin:miter;stroke-opacity:1"/>
<path class="bond-48" d="M 1790.8,120.403 L 1790.8,139.687" style="fill:none;fill-rule:evenodd;stroke:#FF0000;stroke-width:2.0px;stroke-linecap:butt;stroke-linejoin:miter;stroke-opacity:1"/>
<path class="bond-49" d="M 1805.16,160.028 L 1823.77,166.077" style="fill:none;fill-rule:evenodd;stroke:#FF0000;stroke-width:2.0px;stroke-linecap:butt;stroke-linejoin:miter;stroke-opacity:1"/>
<path class="bond-49" d="M 1823.77,166.077 L 1842.39,172.126" style="fill:none;fill-rule:evenodd;stroke:#000000;stroke-width:2.0px;stroke-linecap:butt;stroke-linejoin:miter;stroke-opacity:1"/>
<path class="bond-51" d="M 1954.64,97.2435 L 2001.62,124.366" style="fill:none;fill-rule:evenodd;stroke:#000000;stroke-width:2.0px;stroke-linecap:butt;stroke-linejoin:miter;stroke-opacity:1"/>
<path class="bond-52" d="M 1994.38,124.366 L 1994.38,143.651" style="fill:none;fill-rule:evenodd;stroke:#000000;stroke-width:2.0px;stroke-linecap:butt;stroke-linejoin:miter;stroke-opacity:1"/>
<path class="bond-52" d="M 1994.38,143.651 L 1994.38,162.935" style="fill:none;fill-rule:evenodd;stroke:#FF0000;stroke-width:2.0px;stroke-linecap:butt;stroke-linejoin:miter;stroke-opacity:1"/>
<path class="bond-52" d="M 2008.85,124.366 L 2008.85,143.651" style="fill:none;fill-rule:evenodd;stroke:#000000;stroke-width:2.0px;stroke-linecap:butt;stroke-linejoin:miter;stroke-opacity:1"/>
<path class="bond-52" d="M 2008.85,143.651 L 2008.85,162.935" style="fill:none;fill-rule:evenodd;stroke:#FF0000;stroke-width:2.0px;stroke-linecap:butt;stroke-linejoin:miter;stroke-opacity:1"/>
<path class="bond-53" d="M 2001.62,124.366 L 2017.93,114.949" style="fill:none;fill-rule:evenodd;stroke:#000000;stroke-width:2.0px;stroke-linecap:butt;stroke-linejoin:miter;stroke-opacity:1"/>
<path class="bond-53" d="M 2017.93,114.949 L 2034.24,105.532" style="fill:none;fill-rule:evenodd;stroke:#FF0000;stroke-width:2.0px;stroke-linecap:butt;stroke-linejoin:miter;stroke-opacity:1"/>
<path class="bond-54" d="M 2062.95,105.532 L 2066.04,107.318" style="fill:none;fill-rule:evenodd;stroke:#FF0000;stroke-width:2.0px;stroke-linecap:butt;stroke-linejoin:miter;stroke-opacity:1"/>
<path class="bond-54" d="M 2066.04,107.318 L 2069.14,109.104" style="fill:none;fill-rule:evenodd;stroke:#000000;stroke-width:2.0px;stroke-linecap:butt;stroke-linejoin:miter;stroke-opacity:1"/>
<path class="bond-55" d="M 2122.51,108.812 L 2142.55,97.2435" style="fill:none;fill-rule:evenodd;stroke:#000000;stroke-width:2.0px;stroke-linecap:butt;stroke-linejoin:miter;stroke-opacity:1"/>
<path class="bond-56" d="M 2088.34,140.042 L 2088.34,151.685" style="fill:none;fill-rule:evenodd;stroke:#000000;stroke-width:2.0px;stroke-linecap:butt;stroke-linejoin:miter;stroke-opacity:1"/>
<path class="bond-56" d="M 2088.34,151.685 L 2088.34,163.327" style="fill:none;fill-rule:evenodd;stroke:#FF0000;stroke-width:2.0px;stroke-linecap:butt;stroke-linejoin:miter;stroke-opacity:1"/>
<path class="bond-56" d="M 2102.8,140.042 L 2102.8,151.685" style="fill:none;fill-rule:evenodd;stroke:#000000;stroke-width:2.0px;stroke-linecap:butt;stroke-linejoin:miter;stroke-opacity:1"/>
<path class="bond-56" d="M 2102.8,151.685 L 2102.8,163.327" style="fill:none;fill-rule:evenodd;stroke:#FF0000;stroke-width:2.0px;stroke-linecap:butt;stroke-linejoin:miter;stroke-opacity:1"/>
<path class="atom-4" d="M 728.019 314.004 Q 728.019 307.204, 731.379 303.404 Q 734.739 299.604, 741.019 299.604 Q 747.299 299.604, 750.659 303.404 Q 754.019 307.204, 754.019 314.004 Q 754.019 320.884, 750.619 324.804 Q 747.219 328.684, 741.019 328.684 Q 734.779 328.684, 731.379 324.804 Q 728.019 320.924, 728.019 314.004 M 741.019 325.484 Q 745.339 325.484, 747.659 322.604 Q 750.019 319.684, 750.019 314.004 Q 750.019 308.444, 747.659 305.644 Q 745.339 302.804, 741.019 302.804 Q 736.699 302.804, 734.339 305.604 Q 732.019 308.404, 732.019 314.004 Q 732.019 319.724, 734.339 322.604 Q 736.699 325.484, 741.019 325.484 " fill="#FF0000"/>
<path class="atom-6" d="M 692.614 108.238 Q 692.614 101.438, 695.974 97.6383 Q 699.334 93.8383, 705.614 93.8383 Q 711.894 93.8383, 715.254 97.6383 Q 718.614 101.438, 718.614 108.238 Q 718.614 115.118, 715.214 119.038 Q 711.814 122.918, 705.614 122.918 Q 699.374 122.918, 695.974 119.038 Q 692.614 115.158, 692.614 108.238 M 705.614 119.718 Q 709.934 119.718, 712.254 116.838 Q 714.614 113.918, 714.614 108.238 Q 714.614 102.678, 712.254 99.8783 Q 709.934 97.0383, 705.614 97.0383 Q 701.294 97.0383, 698.934 99.8383 Q 696.614 102.638, 696.614 108.238 Q 696.614 113.958, 698.934 116.838 Q 701.294 119.718, 705.614 119.718 " fill="#FF0000"/>
<path class="atom-7" d="M 895.255 166.22 L 904.535 181.22 Q 905.455 182.7, 906.935 185.38 Q 908.415 188.06, 908.495 188.22 L 908.495 166.22 L 912.255 166.22 L 912.255 194.54 L 908.375 194.54 L 898.415 178.14 Q 897.255 176.22, 896.015 174.02 Q 894.815 171.82, 894.455 171.14 L 894.455 194.54 L 890.775 194.54 L 890.775 166.22 L 895.255 166.22 " fill="#0000FF"/>
<path class="atom-11" d="M 1251.65 104.898 L 1260.93 119.898 Q 1261.85 121.378, 1263.33 124.058 Q 1264.81 126.738, 1264.89 126.898 L 1264.89 104.898 L 1268.65 104.898 L 1268.65 133.218 L 1264.77 133.218 L 1254.81 116.818 Q 1253.65 114.898, 1252.41 112.698 Q 1251.21 110.498, 1250.85 109.818 L 1250.85 133.218 L 1247.17 133.218 L 1247.17 104.898 L 1251.65 104.898 " fill="#0000FF"/>
<path class="atom-11" d="M 1272.05 104.898 L 1275.89 104.898 L 1275.89 116.938 L 1290.37 116.938 L 1290.37 104.898 L 1294.21 104.898 L 1294.21 133.218 L 1290.37 133.218 L 1290.37 120.138 L 1275.89 120.138 L 1275.89 133.218 L 1272.05 133.218 L 1272.05 104.898 " fill="#0000FF"/>
<path class="atom-14" d="M 1124.38 331.105 L 1128.22 331.105 L 1128.22 343.145 L 1142.7 343.145 L 1142.7 331.105 L 1146.54 331.105 L 1146.54 359.425 L 1142.7 359.425 L 1142.7 346.345 L 1128.22 346.345 L 1128.22 359.425 L 1124.38 359.425 L 1124.38 331.105 " fill="#0000FF"/>
<path class="atom-14" d="M 1147.92 358.431 Q 1148.6 356.662, 1150.24 355.685 Q 1151.88 354.682, 1154.15 354.682 Q 1156.97 354.682, 1158.56 356.213 Q 1160.14 357.745, 1160.14 360.464 Q 1160.14 363.236, 1158.08 365.823 Q 1156.05 368.41, 1151.82 371.473 L 1160.46 371.473 L 1160.46 373.585 L 1147.86 373.585 L 1147.86 371.816 Q 1151.35 369.334, 1153.41 367.486 Q 1155.49 365.638, 1156.5 363.975 Q 1157.5 362.312, 1157.5 360.596 Q 1157.5 358.801, 1156.6 357.797 Q 1155.71 356.794, 1154.15 356.794 Q 1152.64 356.794, 1151.64 357.401 Q 1150.64 358.009, 1149.92 359.355 L 1147.92 358.431 " fill="#0000FF"/>
<path class="atom-14" d="M 1168.26 331.105 L 1177.54 346.105 Q 1178.46 347.585, 1179.94 350.265 Q 1181.42 352.945, 1181.5 353.105 L 1181.5 331.105 L 1185.26 331.105 L 1185.26 359.425 L 1181.38 359.425 L 1171.42 343.025 Q 1170.26 341.105, 1169.02 338.905 Q 1167.82 336.705, 1167.46 336.025 L 1167.46 359.425 L 1163.78 359.425 L 1163.78 331.105 L 1168.26 331.105 " fill="#0000FF"/>
<path class="atom-25" d="M 2626.93 291.587 Q 2626.93 284.787, 2630.29 280.987 Q 2633.65 277.187, 2639.93 277.187 Q 2646.21 277.187, 2649.57 280.987 Q 2652.93 284.787, 2652.93 291.587 Q 2652.93 298.467, 2649.53 302.387 Q 2646.13 306.267, 2639.93 306.267 Q 2633.69 306.267, 2630.29 302.387 Q 2626.93 298.507, 2626.93 291.587 M 2639.93 303.067 Q 2644.25 303.067, 2646.57 300.187 Q 2648.93 297.267, 2648.93 291.587 Q 2648.93 286.027, 2646.57 283.227 Q 2644.25 280.387, 2639.93 280.387 Q 2635.61 280.387, 2633.25 283.187 Q 2630.93 285.987, 2630.93 291.587 Q 2630.93 297.307, 2633.25 300.187 Q 2635.61 303.067, 2639.93 303.067 " fill="#FF0000"/>
<path class="atom-27" d="M 2677.24 88.9505 Q 2677.24 82.1505, 2680.6 78.3505 Q 2683.96 74.5505, 2690.24 74.5505 Q 2696.52 74.5505, 2699.88 78.3505 Q 2703.24 82.1505, 2703.24 88.9505 Q 2703.24 95.8305, 2699.84 99.7505 Q 2696.44 103.63, 2690.24 103.63 Q 2684 103.63, 2680.6 99.7505 Q 2677.24 95.8705, 2677.24 88.9505 M 2690.24 100.43 Q 2694.56 100.43, 2696.88 97.5505 Q 2699.24 94.6305, 2699.24 88.9505 Q 2699.24 83.3905, 2696.88 80.5905 Q 2694.56 77.7505, 2690.24 77.7505 Q 2685.92 77.7505, 2683.56 80.5505 Q 2681.24 83.3505, 2681.24 88.9505 Q 2681.24 94.6705, 2683.56 97.5505 Q 2685.92 100.43, 2690.24 100.43 " fill="#FF0000"/>
<path class="atom-28" d="M 2834.32 219.601 L 2843.6 234.601 Q 2844.52 236.081, 2846 238.761 Q 2847.48 241.441, 2847.56 241.601 L 2847.56 219.601 L 2851.32 219.601 L 2851.32 247.921 L 2847.44 247.921 L 2837.48 231.521 Q 2836.32 229.601, 2835.08 227.401 Q 2833.88 225.201, 2833.52 224.521 L 2833.52 247.921 L 2829.84 247.921 L 2829.84 219.601 L 2834.32 219.601 " fill="#0000FF"/>
<path class="atom-32" d="M 3185.29 306.744 L 3194.57 321.744 Q 3195.49 323.224, 3196.97 325.904 Q 3198.45 328.584, 3198.53 328.744 L 3198.53 306.744 L 3202.29 306.744 L 3202.29 335.064 L 3198.41 335.064 L 3188.45 318.664 Q 3187.29 316.744, 3186.05 314.544 Q 3184.85 312.344, 3184.49 311.664 L 3184.49 335.064 L 3180.81 335.064 L 3180.81 306.744 L 3185.29 306.744 " fill="#0000FF"/>
<path class="atom-33" d="M 3177.54 432.747 Q 3177.54 425.707, 3180.82 422.027 Q 3184.14 418.307, 3190.42 418.307 Q 3196.26 418.307, 3199.38 422.427 L 3196.74 424.587 Q 3194.46 421.587, 3190.42 421.587 Q 3186.14 421.587, 3183.86 424.467 Q 3181.62 427.307, 3181.62 432.747 Q 3181.62 438.347, 3183.94 441.227 Q 3186.3 444.107, 3190.86 444.107 Q 3193.98 444.107, 3197.62 442.227 L 3198.74 445.227 Q 3197.26 446.187, 3195.02 446.747 Q 3192.78 447.307, 3190.3 447.307 Q 3184.14 447.307, 3180.82 443.547 Q 3177.54 439.787, 3177.54 432.747 " fill="#000000"/>
<path class="atom-33" d="M 3202.38 442.267 L 3206.38 442.267 L 3206.38 446.267 L 3202.38 446.267 L 3202.38 442.267 M 3202.38 428.507 L 3206.38 428.507 L 3206.38 432.507 L 3202.38 432.507 L 3202.38 428.507 " fill="#000000"/>
<path class="atom-33" d="M 3210.1 443.747 L 3216.3 443.747 L 3216.3 422.587 L 3209.46 424.707 L 3208.54 422.347 L 3217.22 418.467 L 3220.06 418.947 L 3220.06 443.747 L 3225.62 443.747 L 3225.62 446.947 L 3210.1 446.947 L 3210.1 443.747 " fill="#000000"/>
<path class="atom-33" d="M 3240.9 432.027 Q 3243.66 432.827, 3244.98 434.627 Q 3246.34 436.387, 3246.34 439.187 Q 3246.34 441.587, 3245.14 443.467 Q 3243.94 445.307, 3241.74 446.347 Q 3239.54 447.347, 3236.66 447.347 Q 3233.62 447.347, 3231.34 446.307 Q 3229.1 445.227, 3227.3 443.067 L 3229.58 440.747 Q 3231.34 442.667, 3232.82 443.427 Q 3234.3 444.147, 3236.66 444.147 Q 3239.22 444.147, 3240.78 442.787 Q 3242.34 441.387, 3242.34 439.147 Q 3242.34 436.267, 3240.7 434.987 Q 3239.1 433.667, 3235.62 433.667 L 3233.58 433.667 L 3233.58 430.787 L 3235.38 430.787 Q 3238.46 430.747, 3240.1 429.427 Q 3241.74 428.067, 3241.74 425.547 Q 3241.74 423.707, 3240.38 422.627 Q 3239.02 421.507, 3236.7 421.507 Q 3234.34 421.507, 3232.86 422.347 Q 3231.42 423.187, 3230.3 425.307 L 3227.54 423.827 Q 3228.54 421.467, 3230.94 419.907 Q 3233.34 418.307, 3236.7 418.307 Q 3240.86 418.307, 3243.3 420.267 Q 3245.74 422.227, 3245.74 425.547 Q 3245.74 427.827, 3244.5 429.467 Q 3243.26 431.107, 3240.9 432.027 " fill="#000000"/>
<path class="atom-34" d="M 3350.8 409.941 L 3360.08 424.941 Q 3361 426.421, 3362.48 429.101 Q 3363.96 431.781, 3364.04 431.941 L 3364.04 409.941 L 3367.8 409.941 L 3367.8 438.261 L 3363.92 438.261 L 3353.96 421.861 Q 3352.8 419.941, 3351.56 417.741 Q 3350.36 415.541, 3350 414.861 L 3350 438.261 L 3346.32 438.261 L 3346.32 409.941 L 3350.8 409.941 " fill="#0000FF"/>
<path class="atom-46" d="M 1777.8 155.443 Q 1777.8 148.643, 1781.16 144.843 Q 1784.52 141.043, 1790.8 141.043 Q 1797.08 141.043, 1800.44 144.843 Q 1803.8 148.643, 1803.8 155.443 Q 1803.8 162.323, 1800.4 166.243 Q 1797 170.123, 1790.8 170.123 Q 1784.56 170.123, 1781.16 166.243 Q 1777.8 162.363, 1777.8 155.443 M 1790.8 166.923 Q 1795.12 166.923, 1797.44 164.043 Q 1799.8 161.123, 1799.8 155.443 Q 1799.8 149.883, 1797.44 147.083 Q 1795.12 144.243, 1790.8 144.243 Q 1786.48 144.243, 1784.12 147.043 Q 1781.8 149.843, 1781.8 155.443 Q 1781.8 161.163, 1784.12 164.043 Q 1786.48 166.923, 1790.8 166.923 " fill="#FF0000"/>
<path class="atom-50" d="M 1988.62 178.691 Q 1988.62 171.891, 1991.98 168.091 Q 1995.34 164.291, 2001.62 164.291 Q 2007.9 164.291, 2011.26 168.091 Q 2014.62 171.891, 2014.62 178.691 Q 2014.62 185.571, 2011.22 189.491 Q 2007.82 193.371, 2001.62 193.371 Q 1995.38 193.371, 1991.98 189.491 Q 1988.62 185.611, 1988.62 178.691 M 2001.62 190.171 Q 2005.94 190.171, 2008.26 187.291 Q 2010.62 184.371, 2010.62 178.691 Q 2010.62 173.131, 2008.26 170.331 Q 2005.94 167.491, 2001.62 167.491 Q 1997.3 167.491, 1994.94 170.291 Q 1992.62 173.091, 1992.62 178.691 Q 1992.62 184.411, 1994.94 187.291 Q 1997.3 190.171, 2001.62 190.171 " fill="#FF0000"/>
<path class="atom-51" d="M 2035.59 97.3235 Q 2035.59 90.5235, 2038.95 86.7235 Q 2042.31 82.9235, 2048.59 82.9235 Q 2054.87 82.9235, 2058.23 86.7235 Q 2061.59 90.5235, 2061.59 97.3235 Q 2061.59 104.203, 2058.19 108.123 Q 2054.79 112.003, 2048.59 112.003 Q 2042.35 112.003, 2038.95 108.123 Q 2035.59 104.243, 2035.59 97.3235 M 2048.59 108.803 Q 2052.91 108.803, 2055.23 105.923 Q 2057.59 103.003, 2057.59 97.3235 Q 2057.59 91.7635, 2055.23 88.9635 Q 2052.91 86.1235, 2048.59 86.1235 Q 2044.27 86.1235, 2041.91 88.9235 Q 2039.59 91.7235, 2039.59 97.3235 Q 2039.59 103.043, 2041.91 105.923 Q 2044.27 108.803, 2048.59 108.803 " fill="#FF0000"/>
<path class="atom-52" d="M 2052.36 124.486 Q 2052.36 117.446, 2055.64 113.766 Q 2058.96 110.046, 2065.24 110.046 Q 2071.08 110.046, 2074.2 114.166 L 2071.56 116.326 Q 2069.28 113.326, 2065.24 113.326 Q 2060.96 113.326, 2058.68 116.206 Q 2056.44 119.046, 2056.44 124.486 Q 2056.44 130.086, 2058.76 132.966 Q 2061.12 135.846, 2065.68 135.846 Q 2068.8 135.846, 2072.44 133.966 L 2073.56 136.966 Q 2072.08 137.926, 2069.84 138.486 Q 2067.6 139.046, 2065.12 139.046 Q 2058.96 139.046, 2055.64 135.286 Q 2052.36 131.526, 2052.36 124.486 " fill="#000000"/>
<path class="atom-52" d="M 2077.2 134.006 L 2081.2 134.006 L 2081.2 138.006 L 2077.2 138.006 L 2077.2 134.006 M 2077.2 120.246 L 2081.2 120.246 L 2081.2 124.246 L 2077.2 124.246 L 2077.2 120.246 " fill="#000000"/>
<path class="atom-52" d="M 2084.92 135.486 L 2091.12 135.486 L 2091.12 114.326 L 2084.28 116.446 L 2083.36 114.086 L 2092.04 110.206 L 2094.88 110.686 L 2094.88 135.486 L 2100.44 135.486 L 2100.44 138.686 L 2084.92 138.686 L 2084.92 135.486 " fill="#000000"/>
<path class="atom-52" d="M 2115.72 123.766 Q 2118.48 124.566, 2119.8 126.366 Q 2121.16 128.126, 2121.16 130.926 Q 2121.16 133.326, 2119.96 135.206 Q 2118.76 137.046, 2116.56 138.086 Q 2114.36 139.086, 2111.48 139.086 Q 2108.44 139.086, 2106.16 138.046 Q 2103.92 136.966, 2102.12 134.806 L 2104.4 132.486 Q 2106.16 134.406, 2107.64 135.166 Q 2109.12 135.886, 2111.48 135.886 Q 2114.04 135.886, 2115.6 134.526 Q 2117.16 133.126, 2117.16 130.886 Q 2117.16 128.006, 2115.52 126.726 Q 2113.92 125.406, 2110.44 125.406 L 2108.4 125.406 L 2108.4 122.526 L 2110.2 122.526 Q 2113.28 122.486, 2114.92 121.166 Q 2116.56 119.806, 2116.56 117.286 Q 2116.56 115.446, 2115.2 114.366 Q 2113.84 113.246, 2111.52 113.246 Q 2109.16 113.246, 2107.68 114.086 Q 2106.24 114.926, 2105.12 117.046 L 2102.36 115.566 Q 2103.36 113.206, 2105.76 111.646 Q 2108.16 110.046, 2111.52 110.046 Q 2115.68 110.046, 2118.12 112.006 Q 2120.56 113.966, 2120.56 117.286 Q 2120.56 119.566, 2119.32 121.206 Q 2118.08 122.846, 2115.72 123.766 " fill="#000000"/>
<path class="atom-54" d="M 2082.57 178.691 Q 2082.57 171.891, 2085.93 168.091 Q 2089.29 164.291, 2095.57 164.291 Q 2101.85 164.291, 2105.21 168.091 Q 2108.57 171.891, 2108.57 178.691 Q 2108.57 185.571, 2105.17 189.491 Q 2101.77 193.371, 2095.57 193.371 Q 2089.33 193.371, 2085.93 189.491 Q 2082.57 185.611, 2082.57 178.691 M 2095.57 190.171 Q 2099.89 190.171, 2102.21 187.291 Q 2104.57 184.371, 2104.57 178.691 Q 2104.57 173.131, 2102.21 170.331 Q 2099.89 167.491, 2095.57 167.491 Q 2091.25 167.491, 2088.89 170.291 Q 2086.57 173.091, 2086.57 178.691 Q 2086.57 184.411, 2088.89 187.291 Q 2091.25 190.171, 2095.57 190.171 " fill="#FF0000"/>
<path class="note" d="M 658.97 455.277 L 662.07 455.277 L 662.07 444.697 L 658.65 445.757 L 658.19 444.577 L 662.53 442.637 L 663.95 442.877 L 663.95 455.277 L 666.73 455.277 L 666.73 456.877 L 658.97 456.877 L 658.97 455.277 " fill="#000000"/>
<path class="note" d="M 605.898 346.454 Q 606.418 345.114, 607.658 344.374 Q 608.898 343.614, 610.618 343.614 Q 612.758 343.614, 613.958 344.774 Q 615.158 345.934, 615.158 347.994 Q 615.158 350.094, 613.598 352.054 Q 612.058 354.014, 608.858 356.334 L 615.398 356.334 L 615.398 357.934 L 605.858 357.934 L 605.858 356.594 Q 608.498 354.714, 610.058 353.314 Q 611.638 351.914, 612.398 350.654 Q 613.158 349.394, 613.158 348.094 Q 613.158 346.734, 612.478 345.974 Q 611.798 345.214, 610.618 345.214 Q 609.478 345.214, 608.718 345.674 Q 607.958 346.134, 607.418 347.154 L 605.898 346.454 " fill="#000000"/>
<path class="note" d="M 584.019 218.673 Q 585.399 219.073, 586.059 219.973 Q 586.739 220.853, 586.739 222.253 Q 586.739 223.453, 586.139 224.393 Q 585.539 225.313, 584.439 225.833 Q 583.339 226.333, 581.899 226.333 Q 580.379 226.333, 579.239 225.813 Q 578.119 225.273, 577.219 224.193 L 578.359 223.033 Q 579.239 223.993, 579.979 224.373 Q 580.719 224.733, 581.899 224.733 Q 583.179 224.733, 583.959 224.053 Q 584.739 223.353, 584.739 222.233 Q 584.739 220.793, 583.919 220.153 Q 583.119 219.493, 581.379 219.493 L 580.359 219.493 L 580.359 218.053 L 581.259 218.053 Q 582.799 218.033, 583.619 217.373 Q 584.439 216.693, 584.439 215.433 Q 584.439 214.513, 583.759 213.973 Q 583.079 213.413, 581.919 213.413 Q 580.739 213.413, 579.999 213.833 Q 579.279 214.253, 578.719 215.313 L 577.339 214.573 Q 577.839 213.393, 579.039 212.613 Q 580.239 211.813, 581.919 211.813 Q 583.999 211.813, 585.219 212.793 Q 586.439 213.773, 586.439 215.433 Q 586.439 216.573, 585.819 217.393 Q 585.199 218.213, 584.019 218.673 " fill="#000000"/>
<path class="note" d="M 510.578 376.825 L 512.278 376.825 L 512.278 378.425 L 510.578 378.425 L 510.578 381.685 L 508.698 381.685 L 508.698 378.425 L 501.378 378.425 L 501.378 377.165 L 507.578 367.525 L 510.578 367.525 L 510.578 376.825 M 503.698 376.825 L 508.698 376.825 L 508.698 368.805 L 503.698 376.825 " fill="#000000"/>
<path class="note" d="M 767.069 343.032 Q 768.309 343.032, 769.329 343.572 Q 770.349 344.092, 770.929 345.092 Q 771.509 346.072, 771.509 347.412 Q 771.509 348.872, 770.789 349.932 Q 770.089 350.972, 768.929 351.512 Q 767.769 352.052, 766.449 352.052 Q 765.149 352.052, 763.949 351.572 Q 762.749 351.092, 761.929 350.172 L 763.129 348.932 Q 763.789 349.652, 764.689 350.052 Q 765.589 350.432, 766.509 350.432 Q 767.769 350.432, 768.629 349.652 Q 769.509 348.872, 769.509 347.452 Q 769.509 345.952, 768.629 345.252 Q 767.769 344.532, 766.389 344.532 Q 765.149 344.532, 763.769 345.072 L 762.669 344.552 L 763.349 337.732 L 770.629 337.732 L 770.429 339.332 L 764.989 339.332 L 764.569 343.532 Q 765.829 343.032, 767.069 343.032 " fill="#000000"/>
<path class="note" d="M 796.196 214.585 Q 797.436 214.585, 798.416 215.125 Q 799.396 215.665, 799.936 216.645 Q 800.476 217.625, 800.476 218.865 Q 800.476 220.245, 799.856 221.325 Q 799.256 222.385, 798.176 222.985 Q 797.096 223.585, 795.716 223.585 Q 793.196 223.585, 791.916 221.885 Q 790.656 220.165, 790.656 216.765 Q 790.656 213.005, 792.216 211.065 Q 793.796 209.105, 796.816 209.105 Q 797.696 209.105, 798.436 209.305 Q 799.196 209.505, 799.916 209.925 L 799.136 211.265 Q 798.096 210.705, 796.836 210.705 Q 794.836 210.705, 793.816 212.005 Q 792.796 213.285, 792.676 215.945 Q 793.396 215.285, 794.296 214.945 Q 795.216 214.585, 796.196 214.585 M 795.736 221.945 Q 796.496 221.945, 797.116 221.545 Q 797.756 221.145, 798.116 220.445 Q 798.476 219.745, 798.476 218.885 Q 798.476 217.625, 797.776 216.905 Q 797.076 216.185, 795.836 216.185 Q 794.976 216.185, 794.116 216.545 Q 793.276 216.885, 792.676 217.485 Q 792.756 219.825, 793.496 220.885 Q 794.236 221.945, 795.736 221.945 " fill="#000000"/>
<path class="note" d="M 682.634 71.7908 L 675.214 71.7908 L 675.214 70.1908 L 684.614 70.1908 L 684.614 71.6108 L 678.894 84.3508 L 676.974 84.3508 L 682.634 71.7908 " fill="#000000"/>
<path class="note" d="M 878.035 149.153 Q 879.335 149.713, 880.075 150.553 Q 880.815 151.373, 880.815 152.773 Q 880.815 153.973, 880.195 154.913 Q 879.575 155.833, 878.455 156.353 Q 877.355 156.853, 875.895 156.853 Q 873.535 156.853, 872.175 155.773 Q 870.815 154.673, 870.815 152.773 Q 870.815 151.613, 871.415 150.753 Q 872.015 149.873, 873.255 149.213 Q 872.335 148.693, 871.835 147.933 Q 871.335 147.153, 871.335 145.953 Q 871.335 144.293, 872.535 143.313 Q 873.755 142.333, 875.815 142.333 Q 877.875 142.333, 879.075 143.313 Q 880.295 144.293, 880.295 145.953 Q 880.295 146.993, 879.715 147.773 Q 879.155 148.533, 878.035 149.153 M 875.815 143.833 Q 874.635 143.833, 873.975 144.393 Q 873.335 144.953, 873.335 145.953 Q 873.335 146.693, 873.775 147.193 Q 874.215 147.673, 874.835 147.953 Q 875.475 148.233, 876.695 148.653 Q 877.555 148.053, 877.915 147.413 Q 878.295 146.773, 878.295 145.953 Q 878.295 144.953, 877.635 144.393 Q 876.995 143.833, 875.815 143.833 M 875.895 155.353 Q 877.215 155.353, 878.015 154.653 Q 878.815 153.933, 878.815 152.753 Q 878.815 151.993, 878.395 151.513 Q 877.975 151.033, 877.335 150.753 Q 876.715 150.473, 875.595 150.113 L 874.695 149.813 Q 873.695 150.413, 873.255 151.133 Q 872.815 151.833, 872.815 152.753 Q 872.815 153.933, 873.655 154.653 Q 874.495 155.353, 875.895 155.353 " fill="#000000"/>
<path class="note" d="M 930.212 44.6731 Q 932.732 44.6731, 933.992 46.3931 Q 935.272 48.0931, 935.272 51.4931 Q 935.272 55.2531, 933.692 57.2131 Q 932.132 59.1531, 929.112 59.1531 Q 928.232 59.1531, 927.472 58.9531 Q 926.732 58.7531, 926.012 58.3331 L 926.792 56.9931 Q 927.832 57.5531, 929.092 57.5531 Q 931.092 57.5531, 932.112 56.2731 Q 933.132 54.9731, 933.252 52.3131 Q 932.532 52.9731, 931.612 53.3331 Q 930.712 53.6731, 929.732 53.6731 Q 928.492 53.6731, 927.512 53.1331 Q 926.532 52.5931, 925.992 51.6131 Q 925.452 50.6331, 925.452 49.3931 Q 925.452 48.0131, 926.052 46.9531 Q 926.672 45.8731, 927.752 45.2731 Q 928.832 44.6731, 930.212 44.6731 M 927.452 49.3731 Q 927.452 50.6331, 928.152 51.3531 Q 928.852 52.0731, 930.092 52.0731 Q 930.952 52.0731, 931.792 51.7331 Q 932.652 51.3731, 933.252 50.7731 Q 933.172 48.4331, 932.432 47.3731 Q 931.692 46.3131, 930.192 46.3131 Q 929.432 46.3131, 928.792 46.7131 Q 928.172 47.1131, 927.812 47.8131 Q 927.452 48.5131, 927.452 49.3731 " fill="#000000"/>
<path class="note" d="M 1055.41 33.5457 L 1058.51 33.5457 L 1058.51 22.9657 L 1055.09 24.0257 L 1054.63 22.8457 L 1058.97 20.9057 L 1060.39 21.1457 L 1060.39 33.5457 L 1063.17 33.5457 L 1063.17 35.1457 L 1055.41 35.1457 L 1055.41 33.5457 " fill="#000000"/>
<path class="note" d="M 1069.57 35.3057 Q 1066.97 35.3057, 1065.67 33.3857 Q 1064.39 31.4657, 1064.39 28.0457 Q 1064.39 24.6257, 1065.67 22.7257 Q 1066.95 20.8257, 1069.57 20.8257 Q 1072.19 20.8257, 1073.47 22.7257 Q 1074.75 24.6257, 1074.75 28.0457 Q 1074.75 31.4657, 1073.45 33.3857 Q 1072.17 35.3057, 1069.57 35.3057 M 1069.57 33.7057 Q 1071.11 33.7057, 1071.93 32.2857 Q 1072.75 30.8457, 1072.75 28.0457 Q 1072.75 25.2657, 1071.93 23.8457 Q 1071.11 22.4257, 1069.57 22.4257 Q 1068.05 22.4257, 1067.21 23.8457 Q 1066.39 25.2657, 1066.39 28.0457 Q 1066.39 30.8457, 1067.21 32.2857 Q 1068.05 33.7057, 1069.57 33.7057 " fill="#000000"/>
<path class="note" d="M 1106.74 148.426 L 1109.84 148.426 L 1109.84 137.846 L 1106.42 138.906 L 1105.96 137.726 L 1110.3 135.786 L 1111.72 136.026 L 1111.72 148.426 L 1114.5 148.426 L 1114.5 150.026 L 1106.74 150.026 L 1106.74 148.426 " fill="#000000"/>
<path class="note" d="M 1116.36 148.426 L 1119.46 148.426 L 1119.46 137.846 L 1116.04 138.906 L 1115.58 137.726 L 1119.92 135.786 L 1121.34 136.026 L 1121.34 148.426 L 1124.12 148.426 L 1124.12 150.026 L 1116.36 150.026 L 1116.36 148.426 " fill="#000000"/>
<path class="note" d="M 1258.78 86.917 L 1261.88 86.917 L 1261.88 76.337 L 1258.46 77.397 L 1258 76.217 L 1262.34 74.277 L 1263.76 74.517 L 1263.76 86.917 L 1266.54 86.917 L 1266.54 88.517 L 1258.78 88.517 L 1258.78 86.917 " fill="#000000"/>
<path class="note" d="M 1267.58 77.037 Q 1268.1 75.697, 1269.34 74.957 Q 1270.58 74.197, 1272.3 74.197 Q 1274.44 74.197, 1275.64 75.357 Q 1276.84 76.517, 1276.84 78.577 Q 1276.84 80.677, 1275.28 82.637 Q 1273.74 84.597, 1270.54 86.917 L 1277.08 86.917 L 1277.08 88.517 L 1267.54 88.517 L 1267.54 87.177 Q 1270.18 85.297, 1271.74 83.897 Q 1273.32 82.497, 1274.08 81.237 Q 1274.84 79.977, 1274.84 78.677 Q 1274.84 77.317, 1274.16 76.557 Q 1273.48 75.797, 1272.3 75.797 Q 1271.16 75.797, 1270.4 76.257 Q 1269.64 76.717, 1269.1 77.737 L 1267.58 77.037 " fill="#000000"/>
<path class="note" d="M 1299.92 210.807 Q 1300.44 209.467, 1301.68 208.727 Q 1302.92 207.967, 1304.64 207.967 Q 1306.78 207.967, 1307.98 209.127 Q 1309.18 210.287, 1309.18 212.347 Q 1309.18 214.447, 1307.62 216.407 Q 1306.08 218.367, 1302.88 220.687 L 1309.42 220.687 L 1309.42 222.287 L 1299.88 222.287 L 1299.88 220.947 Q 1302.52 219.067, 1304.08 217.667 Q 1305.66 216.267, 1306.42 215.007 Q 1307.18 213.747, 1307.18 212.447 Q 1307.18 211.087, 1306.5 210.327 Q 1305.82 209.567, 1304.64 209.567 Q 1303.5 209.567, 1302.74 210.027 Q 1301.98 210.487, 1301.44 211.507 L 1299.92 210.807 " fill="#000000"/>
<path class="note" d="M 1315.82 222.447 Q 1313.22 222.447, 1311.92 220.527 Q 1310.64 218.607, 1310.64 215.187 Q 1310.64 211.767, 1311.92 209.867 Q 1313.2 207.967, 1315.82 207.967 Q 1318.44 207.967, 1319.72 209.867 Q 1321 211.767, 1321 215.187 Q 1321 218.607, 1319.7 220.527 Q 1318.42 222.447, 1315.82 222.447 M 1315.82 220.847 Q 1317.36 220.847, 1318.18 219.427 Q 1319 217.987, 1319 215.187 Q 1319 212.407, 1318.18 210.987 Q 1317.36 209.567, 1315.82 209.567 Q 1314.3 209.567, 1313.46 210.987 Q 1312.64 212.407, 1312.64 215.187 Q 1312.64 217.987, 1313.46 219.427 Q 1314.3 220.847, 1315.82 220.847 " fill="#000000"/>
<path class="note" d="M 1267.46 314.9 L 1270.56 314.9 L 1270.56 304.32 L 1267.14 305.38 L 1266.68 304.2 L 1271.02 302.26 L 1272.44 302.5 L 1272.44 314.9 L 1275.22 314.9 L 1275.22 316.5 L 1267.46 316.5 L 1267.46 314.9 " fill="#000000"/>
<path class="note" d="M 1281.28 307.64 Q 1282.52 307.64, 1283.54 308.18 Q 1284.56 308.7, 1285.14 309.7 Q 1285.72 310.68, 1285.72 312.02 Q 1285.72 313.48, 1285 314.54 Q 1284.3 315.58, 1283.14 316.12 Q 1281.98 316.66, 1280.66 316.66 Q 1279.36 316.66, 1278.16 316.18 Q 1276.96 315.7, 1276.14 314.78 L 1277.34 313.54 Q 1278 314.26, 1278.9 314.66 Q 1279.8 315.04, 1280.72 315.04 Q 1281.98 315.04, 1282.84 314.26 Q 1283.72 313.48, 1283.72 312.06 Q 1283.72 310.56, 1282.84 309.86 Q 1281.98 309.14, 1280.6 309.14 Q 1279.36 309.14, 1277.98 309.68 L 1276.88 309.16 L 1277.56 302.34 L 1284.84 302.34 L 1284.64 303.94 L 1279.2 303.94 L 1278.78 308.14 Q 1280.04 307.64, 1281.28 307.64 " fill="#000000"/>
<path class="note" d="M 1167.82 390.384 L 1170.92 390.384 L 1170.92 379.804 L 1167.5 380.864 L 1167.04 379.684 L 1171.38 377.744 L 1172.8 377.984 L 1172.8 390.384 L 1175.58 390.384 L 1175.58 391.984 L 1167.82 391.984 L 1167.82 390.384 " fill="#000000"/>
<path class="note" d="M 1185.38 387.124 L 1187.08 387.124 L 1187.08 388.724 L 1185.38 388.724 L 1185.38 391.984 L 1183.5 391.984 L 1183.5 388.724 L 1176.18 388.724 L 1176.18 387.464 L 1182.38 377.824 L 1185.38 377.824 L 1185.38 387.124 M 1178.5 387.124 L 1183.5 387.124 L 1183.5 379.104 L 1178.5 387.124 " fill="#000000"/>
<path class="note" d="M 1350.12 441.897 L 1353.22 441.897 L 1353.22 431.317 L 1349.8 432.377 L 1349.34 431.197 L 1353.68 429.257 L 1355.1 429.497 L 1355.1 441.897 L 1357.88 441.897 L 1357.88 443.497 L 1350.12 443.497 L 1350.12 441.897 " fill="#000000"/>
<path class="note" d="M 1364.78 434.657 Q 1366.02 434.657, 1367 435.197 Q 1367.98 435.737, 1368.52 436.717 Q 1369.06 437.697, 1369.06 438.937 Q 1369.06 440.317, 1368.44 441.397 Q 1367.84 442.457, 1366.76 443.057 Q 1365.68 443.657, 1364.3 443.657 Q 1361.78 443.657, 1360.5 441.957 Q 1359.24 440.237, 1359.24 436.837 Q 1359.24 433.077, 1360.8 431.137 Q 1362.38 429.177, 1365.4 429.177 Q 1366.28 429.177, 1367.02 429.377 Q 1367.78 429.577, 1368.5 429.997 L 1367.72 431.337 Q 1366.68 430.777, 1365.42 430.777 Q 1363.42 430.777, 1362.4 432.077 Q 1361.38 433.357, 1361.26 436.017 Q 1361.98 435.357, 1362.88 435.017 Q 1363.8 434.657, 1364.78 434.657 M 1364.32 442.017 Q 1365.08 442.017, 1365.7 441.617 Q 1366.34 441.217, 1366.7 440.517 Q 1367.06 439.817, 1367.06 438.957 Q 1367.06 437.697, 1366.36 436.977 Q 1365.66 436.257, 1364.42 436.257 Q 1363.56 436.257, 1362.7 436.617 Q 1361.86 436.957, 1361.26 437.557 Q 1361.34 439.897, 1362.08 440.957 Q 1362.82 442.017, 1364.32 442.017 " fill="#000000"/>
<path class="note" d="M 1489.43 418.01 L 1492.53 418.01 L 1492.53 407.43 L 1489.11 408.49 L 1488.65 407.31 L 1492.99 405.37 L 1494.41 405.61 L 1494.41 418.01 L 1497.19 418.01 L 1497.19 419.61 L 1489.43 419.61 L 1489.43 418.01 " fill="#000000"/>
<path class="note" d="M 1504.97 407.05 L 1497.55 407.05 L 1497.55 405.45 L 1506.95 405.45 L 1506.95 406.87 L 1501.23 419.61 L 1499.31 419.61 L 1504.97 407.05 " fill="#000000"/>
<path class="note" d="M 1557.13 282.689 L 1560.23 282.689 L 1560.23 272.109 L 1556.81 273.169 L 1556.35 271.989 L 1560.69 270.049 L 1562.11 270.289 L 1562.11 282.689 L 1564.89 282.689 L 1564.89 284.289 L 1557.13 284.289 L 1557.13 282.689 " fill="#000000"/>
<path class="note" d="M 1573.35 276.789 Q 1574.65 277.349, 1575.39 278.189 Q 1576.13 279.009, 1576.13 280.409 Q 1576.13 281.609, 1575.51 282.549 Q 1574.89 283.469, 1573.77 283.989 Q 1572.67 284.489, 1571.21 284.489 Q 1568.85 284.489, 1567.49 283.409 Q 1566.13 282.309, 1566.13 280.409 Q 1566.13 279.249, 1566.73 278.389 Q 1567.33 277.509, 1568.57 276.849 Q 1567.65 276.329, 1567.15 275.569 Q 1566.65 274.789, 1566.65 273.589 Q 1566.65 271.929, 1567.85 270.949 Q 1569.07 269.969, 1571.13 269.969 Q 1573.19 269.969, 1574.39 270.949 Q 1575.61 271.929, 1575.61 273.589 Q 1575.61 274.629, 1575.03 275.409 Q 1574.47 276.169, 1573.35 276.789 M 1571.13 271.469 Q 1569.95 271.469, 1569.29 272.029 Q 1568.65 272.589, 1568.65 273.589 Q 1568.65 274.329, 1569.09 274.829 Q 1569.53 275.309, 1570.15 275.589 Q 1570.79 275.869, 1572.01 276.289 Q 1572.87 275.689, 1573.23 275.049 Q 1573.61 274.409, 1573.61 273.589 Q 1573.61 272.589, 1572.95 272.029 Q 1572.31 271.469, 1571.13 271.469 M 1571.21 282.989 Q 1572.53 282.989, 1573.33 282.289 Q 1574.13 281.569, 1574.13 280.389 Q 1574.13 279.629, 1573.71 279.149 Q 1573.29 278.669, 1572.65 278.389 Q 1572.03 278.109, 1570.91 277.749 L 1570.01 277.449 Q 1569.01 278.049, 1568.57 278.769 Q 1568.13 279.469, 1568.13 280.389 Q 1568.13 281.569, 1568.97 282.289 Q 1569.81 282.989, 1571.21 282.989 " fill="#000000"/>
<path class="note" d="M 1447.54 177.989 L 1450.64 177.989 L 1450.64 167.409 L 1447.22 168.469 L 1446.76 167.289 L 1451.1 165.349 L 1452.52 165.589 L 1452.52 177.989 L 1455.3 177.989 L 1455.3 179.589 L 1447.54 179.589 L 1447.54 177.989 " fill="#000000"/>
<path class="note" d="M 1461.16 165.269 Q 1463.68 165.269, 1464.94 166.989 Q 1466.22 168.689, 1466.22 172.089 Q 1466.22 175.849, 1464.64 177.809 Q 1463.08 179.749, 1460.06 179.749 Q 1459.18 179.749, 1458.42 179.549 Q 1457.68 179.349, 1456.96 178.929 L 1457.74 177.589 Q 1458.78 178.149, 1460.04 178.149 Q 1462.04 178.149, 1463.06 176.869 Q 1464.08 175.569, 1464.2 172.909 Q 1463.48 173.569, 1462.56 173.929 Q 1461.66 174.269, 1460.68 174.269 Q 1459.44 174.269, 1458.46 173.729 Q 1457.48 173.189, 1456.94 172.209 Q 1456.4 171.229, 1456.4 169.989 Q 1456.4 168.609, 1457 167.549 Q 1457.62 166.469, 1458.7 165.869 Q 1459.78 165.269, 1461.16 165.269 M 1458.4 169.969 Q 1458.4 171.229, 1459.1 171.949 Q 1459.8 172.669, 1461.04 172.669 Q 1461.9 172.669, 1462.74 172.329 Q 1463.6 171.969, 1464.2 171.369 Q 1464.12 169.029, 1463.38 167.969 Q 1462.64 166.909, 1461.14 166.909 Q 1460.38 166.909, 1459.74 167.309 Q 1459.12 167.709, 1458.76 168.409 Q 1458.4 169.109, 1458.4 169.969 " fill="#000000"/>
<path class="note" d="M 1095.96 263.726 Q 1096.48 262.386, 1097.72 261.646 Q 1098.96 260.886, 1100.68 260.886 Q 1102.82 260.886, 1104.02 262.046 Q 1105.22 263.206, 1105.22 265.266 Q 1105.22 267.366, 1103.66 269.326 Q 1102.12 271.286, 1098.92 273.606 L 1105.46 273.606 L 1105.46 275.206 L 1095.92 275.206 L 1095.92 273.866 Q 1098.56 271.986, 1100.12 270.586 Q 1101.7 269.186, 1102.46 267.926 Q 1103.22 266.666, 1103.22 265.366 Q 1103.22 264.006, 1102.54 263.246 Q 1101.86 262.486, 1100.68 262.486 Q 1099.54 262.486, 1098.78 262.946 Q 1098.02 263.406, 1097.48 264.426 L 1095.96 263.726 " fill="#000000"/>
<path class="note" d="M 1107.32 273.606 L 1110.42 273.606 L 1110.42 263.026 L 1107 264.086 L 1106.54 262.906 L 1110.88 260.966 L 1112.3 261.206 L 1112.3 273.606 L 1115.08 273.606 L 1115.08 275.206 L 1107.32 275.206 L 1107.32 273.606 " fill="#000000"/>
<path class="note" d="M 956.897 287.573 Q 957.417 286.233, 958.657 285.493 Q 959.897 284.733, 961.617 284.733 Q 963.757 284.733, 964.957 285.893 Q 966.157 287.053, 966.157 289.113 Q 966.157 291.213, 964.597 293.173 Q 963.057 295.133, 959.857 297.453 L 966.397 297.453 L 966.397 299.053 L 956.857 299.053 L 956.857 297.713 Q 959.497 295.833, 961.057 294.433 Q 962.637 293.033, 963.397 291.773 Q 964.157 290.513, 964.157 289.213 Q 964.157 287.853, 963.477 287.093 Q 962.797 286.333, 961.617 286.333 Q 960.477 286.333, 959.717 286.793 Q 958.957 287.253, 958.417 288.273 L 956.897 287.573 " fill="#000000"/>
<path class="note" d="M 967.437 287.573 Q 967.957 286.233, 969.197 285.493 Q 970.437 284.733, 972.157 284.733 Q 974.297 284.733, 975.497 285.893 Q 976.697 287.053, 976.697 289.113 Q 976.697 291.213, 975.137 293.173 Q 973.597 295.133, 970.397 297.453 L 976.937 297.453 L 976.937 299.053 L 967.397 299.053 L 967.397 297.713 Q 970.037 295.833, 971.597 294.433 Q 973.177 293.033, 973.937 291.773 Q 974.697 290.513, 974.697 289.213 Q 974.697 287.853, 974.017 287.093 Q 973.337 286.333, 972.157 286.333 Q 971.017 286.333, 970.257 286.793 Q 969.497 287.253, 968.957 288.273 L 967.437 287.573 " fill="#000000"/>
<path class="note" d="M 2509.9 389.813 L 2513 389.813 L 2513 379.233 L 2509.58 380.293 L 2509.12 379.113 L 2513.46 377.173 L 2514.88 377.413 L 2514.88 389.813 L 2517.66 389.813 L 2517.66 391.413 L 2509.9 391.413 L 2509.9 389.813 " fill="#000000"/>
<path class="note" d="M 2501 268.504 Q 2501.52 267.164, 2502.76 266.424 Q 2504 265.664, 2505.72 265.664 Q 2507.86 265.664, 2509.06 266.824 Q 2510.26 267.984, 2510.26 270.044 Q 2510.26 272.144, 2508.7 274.104 Q 2507.16 276.064, 2503.96 278.384 L 2510.5 278.384 L 2510.5 279.984 L 2500.96 279.984 L 2500.96 278.644 Q 2503.6 276.764, 2505.16 275.364 Q 2506.74 273.964, 2507.5 272.704 Q 2508.26 271.444, 2508.26 270.144 Q 2508.26 268.784, 2507.58 268.024 Q 2506.9 267.264, 2505.72 267.264 Q 2504.58 267.264, 2503.82 267.724 Q 2503.06 268.184, 2502.52 269.204 L 2501 268.504 " fill="#000000"/>
<path class="note" d="M 2534.53 140.326 Q 2535.91 140.726, 2536.57 141.626 Q 2537.25 142.506, 2537.25 143.906 Q 2537.25 145.106, 2536.65 146.046 Q 2536.05 146.966, 2534.95 147.486 Q 2533.85 147.986, 2532.41 147.986 Q 2530.89 147.986, 2529.75 147.466 Q 2528.63 146.926, 2527.73 145.846 L 2528.87 144.686 Q 2529.75 145.646, 2530.49 146.026 Q 2531.23 146.386, 2532.41 146.386 Q 2533.69 146.386, 2534.47 145.706 Q 2535.25 145.006, 2535.25 143.886 Q 2535.25 142.446, 2534.43 141.806 Q 2533.63 141.146, 2531.89 141.146 L 2530.87 141.146 L 2530.87 139.706 L 2531.77 139.706 Q 2533.31 139.686, 2534.13 139.026 Q 2534.95 138.346, 2534.95 137.086 Q 2534.95 136.166, 2534.27 135.626 Q 2533.59 135.066, 2532.43 135.066 Q 2531.25 135.066, 2530.51 135.486 Q 2529.79 135.906, 2529.23 136.966 L 2527.85 136.226 Q 2528.35 135.046, 2529.55 134.266 Q 2530.75 133.466, 2532.43 133.466 Q 2534.51 133.466, 2535.73 134.446 Q 2536.95 135.426, 2536.95 137.086 Q 2536.95 138.226, 2536.33 139.046 Q 2535.71 139.866, 2534.53 140.326 " fill="#000000"/>
<path class="note" d="M 2404.86 255.13 L 2406.56 255.13 L 2406.56 256.73 L 2404.86 256.73 L 2404.86 259.99 L 2402.98 259.99 L 2402.98 256.73 L 2395.66 256.73 L 2395.66 255.47 L 2401.86 245.83 L 2404.86 245.83 L 2404.86 255.13 M 2397.98 255.13 L 2402.98 255.13 L 2402.98 247.11 L 2397.98 255.13 " fill="#000000"/>
<path class="note" d="M 2651.4 328.341 Q 2652.64 328.341, 2653.66 328.881 Q 2654.68 329.401, 2655.26 330.401 Q 2655.84 331.381, 2655.84 332.721 Q 2655.84 334.181, 2655.12 335.241 Q 2654.42 336.281, 2653.26 336.821 Q 2652.1 337.361, 2650.78 337.361 Q 2649.48 337.361, 2648.28 336.881 Q 2647.08 336.401, 2646.26 335.481 L 2647.46 334.241 Q 2648.12 334.961, 2649.02 335.361 Q 2649.92 335.741, 2650.84 335.741 Q 2652.1 335.741, 2652.96 334.961 Q 2653.84 334.181, 2653.84 332.761 Q 2653.84 331.261, 2652.96 330.561 Q 2652.1 329.841, 2650.72 329.841 Q 2649.48 329.841, 2648.1 330.381 L 2647 329.861 L 2647.68 323.041 L 2654.96 323.041 L 2654.76 324.641 L 2649.32 324.641 L 2648.9 328.841 Q 2650.16 328.341, 2651.4 328.341 " fill="#000000"/>
<path class="note" d="M 2729.77 222.34 Q 2731.01 222.34, 2731.99 222.88 Q 2732.97 223.42, 2733.51 224.4 Q 2734.05 225.38, 2734.05 226.62 Q 2734.05 228, 2733.43 229.08 Q 2732.83 230.14, 2731.75 230.74 Q 2730.67 231.34, 2729.29 231.34 Q 2726.77 231.34, 2725.49 229.64 Q 2724.23 227.92, 2724.23 224.52 Q 2724.23 220.76, 2725.79 218.82 Q 2727.37 216.86, 2730.39 216.86 Q 2731.27 216.86, 2732.01 217.06 Q 2732.77 217.26, 2733.49 217.68 L 2732.71 219.02 Q 2731.67 218.46, 2730.41 218.46 Q 2728.41 218.46, 2727.39 219.76 Q 2726.37 221.04, 2726.25 223.7 Q 2726.97 223.04, 2727.87 222.7 Q 2728.79 222.34, 2729.77 222.34 M 2729.31 229.7 Q 2730.07 229.7, 2730.69 229.3 Q 2731.33 228.9, 2731.69 228.2 Q 2732.05 227.5, 2732.05 226.64 Q 2732.05 225.38, 2731.35 224.66 Q 2730.65 223.94, 2729.41 223.94 Q 2728.55 223.94, 2727.69 224.3 Q 2726.85 224.64, 2726.25 225.24 Q 2726.33 227.58, 2727.07 228.64 Q 2727.81 229.7, 2729.31 229.7 " fill="#000000"/>
<path class="note" d="M 2681.85 44.7763 L 2674.43 44.7763 L 2674.43 43.1763 L 2683.83 43.1763 L 2683.83 44.5963 L 2678.11 57.3363 L 2676.19 57.3363 L 2681.85 44.7763 " fill="#000000"/>
<path class="note" d="M 2831.68 194.807 Q 2832.98 195.367, 2833.72 196.207 Q 2834.46 197.027, 2834.46 198.427 Q 2834.46 199.627, 2833.84 200.567 Q 2833.22 201.487, 2832.1 202.007 Q 2831 202.507, 2829.54 202.507 Q 2827.18 202.507, 2825.82 201.427 Q 2824.46 200.327, 2824.46 198.427 Q 2824.46 197.267, 2825.06 196.407 Q 2825.66 195.527, 2826.9 194.867 Q 2825.98 194.347, 2825.48 193.587 Q 2824.98 192.807, 2824.98 191.607 Q 2824.98 189.947, 2826.18 188.967 Q 2827.4 187.987, 2829.46 187.987 Q 2831.52 187.987, 2832.72 188.967 Q 2833.94 189.947, 2833.94 191.607 Q 2833.94 192.647, 2833.36 193.427 Q 2832.8 194.187, 2831.68 194.807 M 2829.46 189.487 Q 2828.28 189.487, 2827.62 190.047 Q 2826.98 190.607, 2826.98 191.607 Q 2826.98 192.347, 2827.42 192.847 Q 2827.86 193.327, 2828.48 193.607 Q 2829.12 193.887, 2830.34 194.307 Q 2831.2 193.707, 2831.56 193.067 Q 2831.94 192.427, 2831.94 191.607 Q 2831.94 190.607, 2831.28 190.047 Q 2830.64 189.487, 2829.46 189.487 M 2829.54 201.007 Q 2830.86 201.007, 2831.66 200.307 Q 2832.46 199.587, 2832.46 198.407 Q 2832.46 197.647, 2832.04 197.167 Q 2831.62 196.687, 2830.98 196.407 Q 2830.36 196.127, 2829.24 195.767 L 2828.34 195.467 Q 2827.34 196.067, 2826.9 196.787 Q 2826.46 197.487, 2826.46 198.407 Q 2826.46 199.587, 2827.3 200.307 Q 2828.14 201.007, 2829.54 201.007 " fill="#000000"/>
<path class="note" d="M 2918.52 120.499 Q 2921.04 120.499, 2922.3 122.219 Q 2923.58 123.919, 2923.58 127.319 Q 2923.58 131.079, 2922 133.039 Q 2920.44 134.979, 2917.42 134.979 Q 2916.54 134.979, 2915.78 134.779 Q 2915.04 134.579, 2914.32 134.159 L 2915.1 132.819 Q 2916.14 133.379, 2917.4 133.379 Q 2919.4 133.379, 2920.42 132.099 Q 2921.44 130.799, 2921.56 128.139 Q 2920.84 128.799, 2919.92 129.159 Q 2919.02 129.499, 2918.04 129.499 Q 2916.8 129.499, 2915.82 128.959 Q 2914.84 128.419, 2914.3 127.439 Q 2913.76 126.459, 2913.76 125.219 Q 2913.76 123.839, 2914.36 122.779 Q 2914.98 121.699, 2916.06 121.099 Q 2917.14 120.499, 2918.52 120.499 M 2915.76 125.199 Q 2915.76 126.459, 2916.46 127.179 Q 2917.16 127.899, 2918.4 127.899 Q 2919.26 127.899, 2920.1 127.559 Q 2920.96 127.199, 2921.56 126.599 Q 2921.48 124.259, 2920.74 123.199 Q 2920 122.139, 2918.5 122.139 Q 2917.74 122.139, 2917.1 122.539 Q 2916.48 122.939, 2916.12 123.639 Q 2915.76 124.339, 2915.76 125.199 " fill="#000000"/>
<path class="note" d="M 3041.61 167.108 L 3044.71 167.108 L 3044.71 156.528 L 3041.29 157.588 L 3040.83 156.408 L 3045.17 154.468 L 3046.59 154.708 L 3046.59 167.108 L 3049.37 167.108 L 3049.37 168.708 L 3041.61 168.708 L 3041.61 167.108 " fill="#000000"/>
<path class="note" d="M 3055.77 168.868 Q 3053.17 168.868, 3051.87 166.948 Q 3050.59 165.028, 3050.59 161.608 Q 3050.59 158.188, 3051.87 156.288 Q 3053.15 154.388, 3055.77 154.388 Q 3058.39 154.388, 3059.67 156.288 Q 3060.95 158.188, 3060.95 161.608 Q 3060.95 165.028, 3059.65 166.948 Q 3058.37 168.868, 3055.77 168.868 M 3055.77 167.268 Q 3057.31 167.268, 3058.13 165.848 Q 3058.95 164.408, 3058.95 161.608 Q 3058.95 158.828, 3058.13 157.408 Q 3057.31 155.988, 3055.77 155.988 Q 3054.25 155.988, 3053.41 157.408 Q 3052.59 158.828, 3052.59 161.608 Q 3052.59 164.408, 3053.41 165.848 Q 3054.25 167.268, 3055.77 167.268 " fill="#000000"/>
<path class="note" d="M 3042.49 292.535 L 3045.59 292.535 L 3045.59 281.955 L 3042.17 283.015 L 3041.71 281.835 L 3046.05 279.895 L 3047.47 280.135 L 3047.47 292.535 L 3050.25 292.535 L 3050.25 294.135 L 3042.49 294.135 L 3042.49 292.535 " fill="#000000"/>
<path class="note" d="M 3052.11 292.535 L 3055.21 292.535 L 3055.21 281.955 L 3051.79 283.015 L 3051.33 281.835 L 3055.67 279.895 L 3057.09 280.135 L 3057.09 292.535 L 3059.87 292.535 L 3059.87 294.135 L 3052.11 294.135 L 3052.11 292.535 " fill="#000000"/>
<path class="note" d="M 3152.19 356.815 L 3155.29 356.815 L 3155.29 346.235 L 3151.87 347.295 L 3151.41 346.115 L 3155.75 344.175 L 3157.17 344.415 L 3157.17 356.815 L 3159.95 356.815 L 3159.95 358.415 L 3152.19 358.415 L 3152.19 356.815 " fill="#000000"/>
<path class="note" d="M 3160.99 346.935 Q 3161.51 345.595, 3162.75 344.855 Q 3163.99 344.095, 3165.71 344.095 Q 3167.85 344.095, 3169.05 345.255 Q 3170.25 346.415, 3170.25 348.475 Q 3170.25 350.575, 3168.69 352.535 Q 3167.15 354.495, 3163.95 356.815 L 3170.49 356.815 L 3170.49 358.415 L 3160.95 358.415 L 3160.95 357.075 Q 3163.59 355.195, 3165.15 353.795 Q 3166.73 352.395, 3167.49 351.135 Q 3168.25 349.875, 3168.25 348.575 Q 3168.25 347.215, 3167.57 346.455 Q 3166.89 345.695, 3165.71 345.695 Q 3164.57 345.695, 3163.81 346.155 Q 3163.05 346.615, 3162.51 347.635 L 3160.99 346.935 " fill="#000000"/>
<path class="note" d="M 3202.62 472.284 L 3205.72 472.284 L 3205.72 461.704 L 3202.3 462.764 L 3201.84 461.584 L 3206.18 459.644 L 3207.6 459.884 L 3207.6 472.284 L 3210.38 472.284 L 3210.38 473.884 L 3202.62 473.884 L 3202.62 472.284 " fill="#000000"/>
<path class="note" d="M 3218.02 466.424 Q 3219.4 466.824, 3220.06 467.724 Q 3220.74 468.604, 3220.74 470.004 Q 3220.74 471.204, 3220.14 472.144 Q 3219.54 473.064, 3218.44 473.584 Q 3217.34 474.084, 3215.9 474.084 Q 3214.38 474.084, 3213.24 473.564 Q 3212.12 473.024, 3211.22 471.944 L 3212.36 470.784 Q 3213.24 471.744, 3213.98 472.124 Q 3214.72 472.484, 3215.9 472.484 Q 3217.18 472.484, 3217.96 471.804 Q 3218.74 471.104, 3218.74 469.984 Q 3218.74 468.544, 3217.92 467.904 Q 3217.12 467.244, 3215.38 467.244 L 3214.36 467.244 L 3214.36 465.804 L 3215.26 465.804 Q 3216.8 465.784, 3217.62 465.124 Q 3218.44 464.444, 3218.44 463.184 Q 3218.44 462.264, 3217.76 461.724 Q 3217.08 461.164, 3215.92 461.164 Q 3214.74 461.164, 3214 461.584 Q 3213.28 462.004, 3212.72 463.064 L 3211.34 462.324 Q 3211.84 461.144, 3213.04 460.364 Q 3214.24 459.564, 3215.92 459.564 Q 3218 459.564, 3219.22 460.544 Q 3220.44 461.524, 3220.44 463.184 Q 3220.44 464.324, 3219.82 465.144 Q 3219.2 465.964, 3218.02 466.424 " fill="#000000"/>
<path class="note" d="M 3369.41 460.376 L 3372.51 460.376 L 3372.51 449.796 L 3369.09 450.856 L 3368.63 449.676 L 3372.97 447.736 L 3374.39 447.976 L 3374.39 460.376 L 3377.17 460.376 L 3377.17 461.976 L 3369.41 461.976 L 3369.41 460.376 " fill="#000000"/>
<path class="note" d="M 3386.97 457.116 L 3388.67 457.116 L 3388.67 458.716 L 3386.97 458.716 L 3386.97 461.976 L 3385.09 461.976 L 3385.09 458.716 L 3377.77 458.716 L 3377.77 457.456 L 3383.97 447.816 L 3386.97 447.816 L 3386.97 457.116 M 3380.09 457.116 L 3385.09 457.116 L 3385.09 449.096 L 3380.09 457.116 " fill="#000000"/>
<path class="note" d="M 3404.79 337.335 L 3407.89 337.335 L 3407.89 326.755 L 3404.47 327.815 L 3404.01 326.635 L 3408.35 324.695 L 3409.77 324.935 L 3409.77 337.335 L 3412.55 337.335 L 3412.55 338.935 L 3404.79 338.935 L 3404.79 337.335 " fill="#000000"/>
<path class="note" d="M 3418.61 330.075 Q 3419.85 330.075, 3420.87 330.615 Q 3421.89 331.135, 3422.47 332.135 Q 3423.05 333.115, 3423.05 334.455 Q 3423.05 335.915, 3422.33 336.975 Q 3421.63 338.015, 3420.47 338.555 Q 3419.31 339.095, 3417.99 339.095 Q 3416.69 339.095, 3415.49 338.615 Q 3414.29 338.135, 3413.47 337.215 L 3414.67 335.975 Q 3415.33 336.695, 3416.23 337.095 Q 3417.13 337.475, 3418.05 337.475 Q 3419.31 337.475, 3420.17 336.695 Q 3421.05 335.915, 3421.05 334.495 Q 3421.05 332.995, 3420.17 332.295 Q 3419.31 331.575, 3417.93 331.575 Q 3416.69 331.575, 3415.31 332.115 L 3414.21 331.595 L 3414.89 324.775 L 3422.17 324.775 L 3421.97 326.375 L 3416.53 326.375 L 3416.11 330.575 Q 3417.37 330.075, 3418.61 330.075 " fill="#000000"/>
<path class="note" d="M 3488.59 273.701 L 3491.69 273.701 L 3491.69 263.121 L 3488.27 264.181 L 3487.81 263.001 L 3492.15 261.061 L 3493.57 261.301 L 3493.57 273.701 L 3496.35 273.701 L 3496.35 275.301 L 3488.59 275.301 L 3488.59 273.701 " fill="#000000"/>
<path class="note" d="M 3503.25 266.461 Q 3504.49 266.461, 3505.47 267.001 Q 3506.45 267.541, 3506.99 268.521 Q 3507.53 269.501, 3507.53 270.741 Q 3507.53 272.121, 3506.91 273.201 Q 3506.31 274.261, 3505.23 274.861 Q 3504.15 275.461, 3502.77 275.461 Q 3500.25 275.461, 3498.97 273.761 Q 3497.71 272.041, 3497.71 268.641 Q 3497.71 264.881, 3499.27 262.941 Q 3500.85 260.981, 3503.87 260.981 Q 3504.75 260.981, 3505.49 261.181 Q 3506.25 261.381, 3506.97 261.801 L 3506.19 263.141 Q 3505.15 262.581, 3503.89 262.581 Q 3501.89 262.581, 3500.87 263.881 Q 3499.85 265.161, 3499.73 267.821 Q 3500.45 267.161, 3501.35 266.821 Q 3502.27 266.461, 3503.25 266.461 M 3502.79 273.821 Q 3503.55 273.821, 3504.17 273.421 Q 3504.81 273.021, 3505.17 272.321 Q 3505.53 271.621, 3505.53 270.761 Q 3505.53 269.501, 3504.83 268.781 Q 3504.13 268.061, 3502.89 268.061 Q 3502.03 268.061, 3501.17 268.421 Q 3500.33 268.761, 3499.73 269.361 Q 3499.81 271.701, 3500.55 272.761 Q 3501.29 273.821, 3502.79 273.821 " fill="#000000"/>
<path class="note" d="M 3504.02 136.138 L 3507.12 136.138 L 3507.12 125.558 L 3503.7 126.618 L 3503.24 125.438 L 3507.58 123.498 L 3509 123.738 L 3509 136.138 L 3511.78 136.138 L 3511.78 137.738 L 3504.02 137.738 L 3504.02 136.138 " fill="#000000"/>
<path class="note" d="M 3519.56 125.178 L 3512.14 125.178 L 3512.14 123.578 L 3521.54 123.578 L 3521.54 124.998 L 3515.82 137.738 L 3513.9 137.738 L 3519.56 125.178 " fill="#000000"/>
<path class="note" d="M 3381.59 51.6383 L 3384.69 51.6383 L 3384.69 41.0583 L 3381.27 42.1183 L 3380.81 40.9383 L 3385.15 38.9983 L 3386.57 39.2383 L 3386.57 51.6383 L 3389.35 51.6383 L 3389.35 53.2383 L 3381.59 53.2383 L 3381.59 51.6383 " fill="#000000"/>
<path class="note" d="M 3397.81 45.7383 Q 3399.11 46.2983, 3399.85 47.1383 Q 3400.59 47.9583, 3400.59 49.3583 Q 3400.59 50.5583, 3399.97 51.4983 Q 3399.35 52.4183, 3398.23 52.9383 Q 3397.13 53.4383, 3395.67 53.4383 Q 3393.31 53.4383, 3391.95 52.3583 Q 3390.59 51.2583, 3390.59 49.3583 Q 3390.59 48.1983, 3391.19 47.3383 Q 3391.79 46.4583, 3393.03 45.7983 Q 3392.11 45.2783, 3391.61 44.5183 Q 3391.11 43.7383, 3391.11 42.5383 Q 3391.11 40.8783, 3392.31 39.8983 Q 3393.53 38.9183, 3395.59 38.9183 Q 3397.65 38.9183, 3398.85 39.8983 Q 3400.07 40.8783, 3400.07 42.5383 Q 3400.07 43.5783, 3399.49 44.3583 Q 3398.93 45.1183, 3397.81 45.7383 M 3395.59 40.4183 Q 3394.41 40.4183, 3393.75 40.9783 Q 3393.11 41.5383, 3393.11 42.5383 Q 3393.11 43.2783, 3393.55 43.7783 Q 3393.99 44.2583, 3394.61 44.5383 Q 3395.25 44.8183, 3396.47 45.2383 Q 3397.33 44.6383, 3397.69 43.9983 Q 3398.07 43.3583, 3398.07 42.5383 Q 3398.07 41.5383, 3397.41 40.9783 Q 3396.77 40.4183, 3395.59 40.4183 M 3395.67 51.9383 Q 3396.99 51.9383, 3397.79 51.2383 Q 3398.59 50.5183, 3398.59 49.3383 Q 3398.59 48.5783, 3398.17 48.0983 Q 3397.75 47.6183, 3397.11 47.3383 Q 3396.49 47.0583, 3395.37 46.6983 L 3394.47 46.3983 Q 3393.47 46.9983, 3393.03 47.7183 Q 3392.59 48.4183, 3392.59 49.3383 Q 3392.59 50.5183, 3393.43 51.2383 Q 3394.27 51.9383, 3395.67 51.9383 " fill="#000000"/>
<path class="note" d="M 3257.64 117.784 L 3260.74 117.784 L 3260.74 107.204 L 3257.32 108.264 L 3256.86 107.084 L 3261.2 105.144 L 3262.62 105.384 L 3262.62 117.784 L 3265.4 117.784 L 3265.4 119.384 L 3257.64 119.384 L 3257.64 117.784 " fill="#000000"/>
<path class="note" d="M 3271.26 105.064 Q 3273.78 105.064, 3275.04 106.784 Q 3276.32 108.484, 3276.32 111.884 Q 3276.32 115.644, 3274.74 117.604 Q 3273.18 119.544, 3270.16 119.544 Q 3269.28 119.544, 3268.52 119.344 Q 3267.78 119.144, 3267.06 118.724 L 3267.84 117.384 Q 3268.88 117.944, 3270.14 117.944 Q 3272.14 117.944, 3273.16 116.664 Q 3274.18 115.364, 3274.3 112.704 Q 3273.58 113.364, 3272.66 113.724 Q 3271.76 114.064, 3270.78 114.064 Q 3269.54 114.064, 3268.56 113.524 Q 3267.58 112.984, 3267.04 112.004 Q 3266.5 111.024, 3266.5 109.784 Q 3266.5 108.404, 3267.1 107.344 Q 3267.72 106.264, 3268.8 105.664 Q 3269.88 105.064, 3271.26 105.064 M 3268.5 109.764 Q 3268.5 111.024, 3269.2 111.744 Q 3269.9 112.464, 3271.14 112.464 Q 3272 112.464, 3272.84 112.124 Q 3273.7 111.764, 3274.3 111.164 Q 3274.22 108.824, 3273.48 107.764 Q 3272.74 106.704, 3271.24 106.704 Q 3270.48 106.704, 3269.84 107.104 Q 3269.22 107.504, 3268.86 108.204 Q 3268.5 108.904, 3268.5 109.764 " fill="#000000"/>
<path class="note" d="M 3250.46 230.22 Q 3250.98 228.88, 3252.22 228.14 Q 3253.46 227.38, 3255.18 227.38 Q 3257.32 227.38, 3258.52 228.54 Q 3259.72 229.7, 3259.72 231.76 Q 3259.72 233.86, 3258.16 235.82 Q 3256.62 237.78, 3253.42 240.1 L 3259.96 240.1 L 3259.96 241.7 L 3250.42 241.7 L 3250.42 240.36 Q 3253.06 238.48, 3254.62 237.08 Q 3256.2 235.68, 3256.96 234.42 Q 3257.72 233.16, 3257.72 231.86 Q 3257.72 230.5, 3257.04 229.74 Q 3256.36 228.98, 3255.18 228.98 Q 3254.04 228.98, 3253.28 229.44 Q 3252.52 229.9, 3251.98 230.92 L 3250.46 230.22 " fill="#000000"/>
<path class="note" d="M 3266.36 241.86 Q 3263.76 241.86, 3262.46 239.94 Q 3261.18 238.02, 3261.18 234.6 Q 3261.18 231.18, 3262.46 229.28 Q 3263.74 227.38, 3266.36 227.38 Q 3268.98 227.38, 3270.26 229.28 Q 3271.54 231.18, 3271.54 234.6 Q 3271.54 238.02, 3270.24 239.94 Q 3268.96 241.86, 3266.36 241.86 M 3266.36 240.26 Q 3267.9 240.26, 3268.72 238.84 Q 3269.54 237.4, 3269.54 234.6 Q 3269.54 231.82, 3268.72 230.4 Q 3267.9 228.98, 3266.36 228.98 Q 3264.84 228.98, 3264 230.4 Q 3263.18 231.82, 3263.18 234.6 Q 3263.18 237.4, 3264 238.84 Q 3264.84 240.26, 3266.36 240.26 " fill="#000000"/>
<path class="note" d="M 2982.16 393.638 Q 2982.68 392.298, 2983.92 391.558 Q 2985.16 390.798, 2986.88 390.798 Q 2989.02 390.798, 2990.22 391.958 Q 2991.42 393.118, 2991.42 395.178 Q 2991.42 397.278, 2989.86 399.238 Q 2988.32 401.198, 2985.12 403.518 L 2991.66 403.518 L 2991.66 405.118 L 2982.12 405.118 L 2982.12 403.778 Q 2984.76 401.898, 2986.32 400.498 Q 2987.9 399.098, 2988.66 397.838 Q 2989.42 396.578, 2989.42 395.278 Q 2989.42 393.918, 2988.74 393.158 Q 2988.06 392.398, 2986.88 392.398 Q 2985.74 392.398, 2984.98 392.858 Q 2984.22 393.318, 2983.68 394.338 L 2982.16 393.638 " fill="#000000"/>
<path class="note" d="M 2993.52 403.518 L 2996.62 403.518 L 2996.62 392.938 L 2993.2 393.998 L 2992.74 392.818 L 2997.08 390.878 L 2998.5 391.118 L 2998.5 403.518 L 3001.28 403.518 L 3001.28 405.118 L 2993.52 405.118 L 2993.52 403.518 " fill="#000000"/>
<path class="note" d="M 2845.2 359.749 Q 2845.72 358.409, 2846.96 357.669 Q 2848.2 356.909, 2849.92 356.909 Q 2852.06 356.909, 2853.26 358.069 Q 2854.46 359.229, 2854.46 361.289 Q 2854.46 363.389, 2852.9 365.349 Q 2851.36 367.309, 2848.16 369.629 L 2854.7 369.629 L 2854.7 371.229 L 2845.16 371.229 L 2845.16 369.889 Q 2847.8 368.009, 2849.36 366.609 Q 2850.94 365.209, 2851.7 363.949 Q 2852.46 362.689, 2852.46 361.389 Q 2852.46 360.029, 2851.78 359.269 Q 2851.1 358.509, 2849.92 358.509 Q 2848.78 358.509, 2848.02 358.969 Q 2847.26 359.429, 2846.72 360.449 L 2845.2 359.749 " fill="#000000"/>
<path class="note" d="M 2855.74 359.749 Q 2856.26 358.409, 2857.5 357.669 Q 2858.74 356.909, 2860.46 356.909 Q 2862.6 356.909, 2863.8 358.069 Q 2865 359.229, 2865 361.289 Q 2865 363.389, 2863.44 365.349 Q 2861.9 367.309, 2858.7 369.629 L 2865.24 369.629 L 2865.24 371.229 L 2855.7 371.229 L 2855.7 369.889 Q 2858.34 368.009, 2859.9 366.609 Q 2861.48 365.209, 2862.24 363.949 Q 2863 362.689, 2863 361.389 Q 2863 360.029, 2862.32 359.269 Q 2861.64 358.509, 2860.46 358.509 Q 2859.32 358.509, 2858.56 358.969 Q 2857.8 359.429, 2857.26 360.449 L 2855.74 359.749 " fill="#000000"/>
<path d="M 1696.33,250 L 2222.91,250" style="fill:none;fill-rule:evenodd;stroke:#000000;stroke-width:2.0px;stroke-linecap:butt;stroke-linejoin:miter;stroke-opacity:1"/>
<path d="M 2222.91,250 L 2200.11,236.836" style="fill:none;fill-rule:evenodd;stroke:#000000;stroke-width:2.0px;stroke-linecap:butt;stroke-linejoin:miter;stroke-opacity:1"/>
<path d="M 2222.91,250 L 2200.11,263.164" style="fill:none;fill-rule:evenodd;stroke:#000000;stroke-width:2.0px;stroke-linecap:butt;stroke-linejoin:miter;stroke-opacity:1"/>
</svg>