<svg xmlns="http://www.w3.org/2000/svg" xmlns:rdkit="http://www.rdkit.org/xml" xmlns:xlink="http://www.w3.org/1999/xlink" version="1.1" baseProfile="full" xml:space="preserve" width="4000px" height="500px" viewBox="0 0 4000 500">
<!-- END OF HEADER -->
<rect style="opacity:1.0;fill:#FFFFFF;stroke:none" width="4000" height="500" x="0" y="0"> </rect>
<path d="M 1154.05,179.726 L 1242.9,231.02" style="fill:none;fill-rule:evenodd;stroke:#FFFFAA;stroke-width:21.9px;stroke-linecap:butt;stroke-linejoin:miter;stroke-opacity:1"/>
<path d="M 1242.9,231.02 L 1331.74,179.726" style="fill:none;fill-rule:evenodd;stroke:#FFFFAA;stroke-width:21.9px;stroke-linecap:butt;stroke-linejoin:miter;stroke-opacity:1"/>
<path d="M 1242.9,231.02 L 1242.9,333.607" style="fill:none;fill-rule:evenodd;stroke:#FFFFAA;stroke-width:21.9px;stroke-linecap:butt;stroke-linejoin:miter;stroke-opacity:1"/>
<path d="M 2018.85,268.448 L 1918.96,245.084" style="fill:none;fill-rule:evenodd;stroke:#FFCC99;stroke-width:21.9px;stroke-linecap:butt;stroke-linejoin:miter;stroke-opacity:1"/>
<path d="M 1918.96,245.084 L 1848.78,319.91" style="fill:none;fill-rule:evenodd;stroke:#FFCC99;stroke-width:21.9px;stroke-linecap:butt;stroke-linejoin:miter;stroke-opacity:1"/>
<path d="M 1918.96,245.084 L 1889.25,146.893" style="fill:none;fill-rule:evenodd;stroke:#FFCC99;stroke-width:21.9px;stroke-linecap:butt;stroke-linejoin:miter;stroke-opacity:1"/>
<path d="M 1848.78,319.91 L 1748.89,296.545" style="fill:none;fill-rule:evenodd;stroke:#FFCC99;stroke-width:21.9px;stroke-linecap:butt;stroke-linejoin:miter;stroke-opacity:1"/>
<path d="M 1748.89,296.545 L 1678.71,371.371" style="fill:none;fill-rule:evenodd;stroke:#FFCC99;stroke-width:21.9px;stroke-linecap:butt;stroke-linejoin:miter;stroke-opacity:1"/>
<path d="M 1748.89,296.545 L 1719.18,198.355" style="fill:none;fill-rule:evenodd;stroke:#FFCC99;stroke-width:21.9px;stroke-linecap:butt;stroke-linejoin:miter;stroke-opacity:1"/>
<path d="M 1719.18,198.355 L 1619.28,174.991" style="fill:none;fill-rule:evenodd;stroke:#FFCC99;stroke-width:21.9px;stroke-linecap:butt;stroke-linejoin:miter;stroke-opacity:1"/>
<path d="M 1719.18,198.355 L 1789.36,123.529" style="fill:none;fill-rule:evenodd;stroke:#FFCC99;stroke-width:21.9px;stroke-linecap:butt;stroke-linejoin:miter;stroke-opacity:1"/>
<path d="M 1789.36,123.529 L 1889.25,146.893" style="fill:none;fill-rule:evenodd;stroke:#FFCC99;stroke-width:21.9px;stroke-linecap:butt;stroke-linejoin:miter;stroke-opacity:1"/>
<path d="M 2533.05,235.857 L 2633.5,215.042" style="fill:none;fill-rule:evenodd;stroke:#FFFFAA;stroke-width:21.9px;stroke-linecap:butt;stroke-linejoin:miter;stroke-opacity:1"/>
<path d="M 2633.5,215.042 L 2665.7,117.64" style="fill:none;fill-rule:evenodd;stroke:#FFFFAA;stroke-width:21.9px;stroke-linecap:butt;stroke-linejoin:miter;stroke-opacity:1"/>
<path d="M 2701.76,291.63 L 2802.21,270.815" style="fill:none;fill-rule:evenodd;stroke:#FFCC99;stroke-width:21.9px;stroke-linecap:butt;stroke-linejoin:miter;stroke-opacity:1"/>
<path d="M 2802.21,270.815 L 2834.41,173.412" style="fill:none;fill-rule:evenodd;stroke:#FFCC99;stroke-width:21.9px;stroke-linecap:butt;stroke-linejoin:miter;stroke-opacity:1"/>
<path d="M 2802.21,270.815 L 2870.46,347.403" style="fill:none;fill-rule:evenodd;stroke:#FFCC99;stroke-width:21.9px;stroke-linecap:butt;stroke-linejoin:miter;stroke-opacity:1"/>
<path d="M 2834.41,173.412 L 2934.86,152.597" style="fill:none;fill-rule:evenodd;stroke:#FFCC99;stroke-width:21.9px;stroke-linecap:butt;stroke-linejoin:miter;stroke-opacity:1"/>
<path d="M 2934.86,152.597 L 2967.06,55.1948" style="fill:none;fill-rule:evenodd;stroke:#FFCC99;stroke-width:21.9px;stroke-linecap:butt;stroke-linejoin:miter;stroke-opacity:1"/>
<path d="M 2934.86,152.597 L 3003.12,229.185" style="fill:none;fill-rule:evenodd;stroke:#FFCC99;stroke-width:21.9px;stroke-linecap:butt;stroke-linejoin:miter;stroke-opacity:1"/>
<path d="M 3003.12,229.185 L 2970.91,326.588" style="fill:none;fill-rule:evenodd;stroke:#FFCC99;stroke-width:21.9px;stroke-linecap:butt;stroke-linejoin:miter;stroke-opacity:1"/>
<path d="M 2970.91,326.588 L 2870.46,347.403" style="fill:none;fill-rule:evenodd;stroke:#FFCC99;stroke-width:21.9px;stroke-linecap:butt;stroke-linejoin:miter;stroke-opacity:1"/>
<path d="M 2870.46,347.403 L 2838.26,444.805" style="fill:none;fill-rule:evenodd;stroke:#FFCC99;stroke-width:21.9px;stroke-linecap:butt;stroke-linejoin:miter;stroke-opacity:1"/>
<ellipse cx="1242.9" cy="231.02" rx="20.5174" ry="20.5174" style="fill:#FFFFAA;fill-rule:evenodd;stroke:#FFFFAA;stroke-width:1px;stroke-linecap:butt;stroke-linejoin:miter;stroke-opacity:1"/>
<ellipse cx="1331.74" cy="179.726" rx="20.5174" ry="20.5174" style="fill:#FFFFAA;fill-rule:evenodd;stroke:#FFFFAA;stroke-width:1px;stroke-linecap:butt;stroke-linejoin:miter;stroke-opacity:1"/>
<ellipse cx="1242.9" cy="333.827" rx="20.5174" ry="20.5627" style="fill:#FFFFAA;fill-rule:evenodd;stroke:#FFFFAA;stroke-width:1px;stroke-linecap:butt;stroke-linejoin:miter;stroke-opacity:1"/>
<ellipse cx="2038.59" cy="275.528" rx="43.1001" ry="30.0379" style="fill:#FFCC99;fill-rule:evenodd;stroke:#FFCC99;stroke-width:1px;stroke-linecap:butt;stroke-linejoin:miter;stroke-opacity:1"/>
<ellipse cx="1918.96" cy="245.084" rx="20.5174" ry="20.5174" style="fill:#FFCC99;fill-rule:evenodd;stroke:#FFCC99;stroke-width:1px;stroke-linecap:butt;stroke-linejoin:miter;stroke-opacity:1"/>
<ellipse cx="1848.78" cy="319.91" rx="20.5174" ry="20.5174" style="fill:#FFCC99;fill-rule:evenodd;stroke:#FFCC99;stroke-width:1px;stroke-linecap:butt;stroke-linejoin:miter;stroke-opacity:1"/>
<ellipse cx="1748.89" cy="296.545" rx="20.5174" ry="20.5174" style="fill:#FFCC99;fill-rule:evenodd;stroke:#FFCC99;stroke-width:1px;stroke-linecap:butt;stroke-linejoin:miter;stroke-opacity:1"/>
<ellipse cx="1666.07" cy="371.551" rx="20.5174" ry="21.7223" style="fill:#FFCC99;fill-rule:evenodd;stroke:#FFCC99;stroke-width:1px;stroke-linecap:butt;stroke-linejoin:miter;stroke-opacity:1"/>
<ellipse cx="1719.18" cy="198.355" rx="20.5174" ry="20.5174" style="fill:#FFCC99;fill-rule:evenodd;stroke:#FFCC99;stroke-width:1px;stroke-linecap:butt;stroke-linejoin:miter;stroke-opacity:1"/>
<ellipse cx="1607.2" cy="175.211" rx="35.4685" ry="20.5627" style="fill:#FFCC99;fill-rule:evenodd;stroke:#FFCC99;stroke-width:1px;stroke-linecap:butt;stroke-linejoin:miter;stroke-opacity:1"/>
<ellipse cx="1789.36" cy="123.529" rx="20.5174" ry="20.5174" style="fill:#FFCC99;fill-rule:evenodd;stroke:#FFCC99;stroke-width:1px;stroke-linecap:butt;stroke-linejoin:miter;stroke-opacity:1"/>
<ellipse cx="1889.25" cy="146.893" rx="20.5174" ry="20.5174" style="fill:#FFCC99;fill-rule:evenodd;stroke:#FFCC99;stroke-width:1px;stroke-linecap:butt;stroke-linejoin:miter;stroke-opacity:1"/>
<ellipse cx="2533.05" cy="235.857" rx="20.5174" ry="20.5174" style="fill:#FFFFAA;fill-rule:evenodd;stroke:#FFFFAA;stroke-width:1px;stroke-linecap:butt;stroke-linejoin:miter;stroke-opacity:1"/>
<ellipse cx="2633.5" cy="215.042" rx="20.5174" ry="20.5174" style="fill:#FFFFAA;fill-rule:evenodd;stroke:#FFFFAA;stroke-width:1px;stroke-linecap:butt;stroke-linejoin:miter;stroke-opacity:1"/>
<ellipse cx="2665.7" cy="117.86" rx="20.5174" ry="20.5627" style="fill:#FFFFAA;fill-rule:evenodd;stroke:#FFFFAA;stroke-width:1px;stroke-linecap:butt;stroke-linejoin:miter;stroke-opacity:1"/>
<ellipse cx="2701.76" cy="307.206" rx="20.5174" ry="42.0531" style="fill:#FFCC99;fill-rule:evenodd;stroke:#FFCC99;stroke-width:1px;stroke-linecap:butt;stroke-linejoin:miter;stroke-opacity:1"/>
<ellipse cx="2802.21" cy="270.815" rx="20.5174" ry="20.5174" style="fill:#FFCC99;fill-rule:evenodd;stroke:#FFCC99;stroke-width:1px;stroke-linecap:butt;stroke-linejoin:miter;stroke-opacity:1"/>
<ellipse cx="2834.41" cy="173.412" rx="20.5174" ry="20.5174" style="fill:#FFCC99;fill-rule:evenodd;stroke:#FFCC99;stroke-width:1px;stroke-linecap:butt;stroke-linejoin:miter;stroke-opacity:1"/>
<ellipse cx="2934.86" cy="152.597" rx="20.5174" ry="20.5174" style="fill:#FFCC99;fill-rule:evenodd;stroke:#FFCC99;stroke-width:1px;stroke-linecap:butt;stroke-linejoin:miter;stroke-opacity:1"/>
<ellipse cx="2970.62" cy="55.3748" rx="20.5174" ry="21.7223" style="fill:#FFCC99;fill-rule:evenodd;stroke:#FFCC99;stroke-width:1px;stroke-linecap:butt;stroke-linejoin:miter;stroke-opacity:1"/>
<ellipse cx="3003.12" cy="229.185" rx="20.5174" ry="20.5174" style="fill:#FFCC99;fill-rule:evenodd;stroke:#FFCC99;stroke-width:1px;stroke-linecap:butt;stroke-linejoin:miter;stroke-opacity:1"/>
<ellipse cx="2970.91" cy="326.588" rx="20.5174" ry="20.5174" style="fill:#FFCC99;fill-rule:evenodd;stroke:#FFCC99;stroke-width:1px;stroke-linecap:butt;stroke-linejoin:miter;stroke-opacity:1"/>
<ellipse cx="2870.46" cy="347.403" rx="20.5174" ry="20.5174" style="fill:#FFCC99;fill-rule:evenodd;stroke:#FFCC99;stroke-width:1px;stroke-linecap:butt;stroke-linejoin:miter;stroke-opacity:1"/>
<ellipse cx="2851.04" cy="445.025" rx="36.4584" ry="20.5627" style="fill:#FFCC99;fill-rule:evenodd;stroke:#FFCC99;stroke-width:1px;stroke-linecap:butt;stroke-linejoin:miter;stroke-opacity:1"/>
<path class="bond-0" d="M 976.367,179.726 L 1065.21,231.02" style="fill:none;fill-rule:evenodd;stroke:#000000;stroke-width:2.0px;stroke-linecap:butt;stroke-linejoin:miter;stroke-opacity:1"/>
<path class="bond-1" d="M 1054.95,231.02 L 1054.95,273.871" style="fill:none;fill-rule:evenodd;stroke:#000000;stroke-width:2.0px;stroke-linecap:butt;stroke-linejoin:miter;stroke-opacity:1"/>
<path class="bond-1" d="M 1054.95,273.871 L 1054.95,316.722" style="fill:none;fill-rule:evenodd;stroke:#FF0000;stroke-width:2.0px;stroke-linecap:butt;stroke-linejoin:miter;stroke-opacity:1"/>
<path class="bond-1" d="M 1075.47,231.02 L 1075.47,273.871" style="fill:none;fill-rule:evenodd;stroke:#000000;stroke-width:2.0px;stroke-linecap:butt;stroke-linejoin:miter;stroke-opacity:1"/>
<path class="bond-1" d="M 1075.47,273.871 L 1075.47,316.722" style="fill:none;fill-rule:evenodd;stroke:#FF0000;stroke-width:2.0px;stroke-linecap:butt;stroke-linejoin:miter;stroke-opacity:1"/>
<path class="bond-2" d="M 1065.21,231.02 L 1101.85,209.866" style="fill:none;fill-rule:evenodd;stroke:#000000;stroke-width:2.0px;stroke-linecap:butt;stroke-linejoin:miter;stroke-opacity:1"/>
<path class="bond-2" d="M 1101.85,209.866 L 1138.49,188.712" style="fill:none;fill-rule:evenodd;stroke:#FF0000;stroke-width:2.0px;stroke-linecap:butt;stroke-linejoin:miter;stroke-opacity:1"/>
<path class="bond-3" d="M 1169.62,188.712 L 1206.26,209.866" style="fill:none;fill-rule:evenodd;stroke:#FF0000;stroke-width:2.0px;stroke-linecap:butt;stroke-linejoin:miter;stroke-opacity:1"/>
<path class="bond-3" d="M 1206.26,209.866 L 1242.9,231.02" style="fill:none;fill-rule:evenodd;stroke:#000000;stroke-width:2.0px;stroke-linecap:butt;stroke-linejoin:miter;stroke-opacity:1"/>
<path class="bond-4" d="M 1242.9,231.02 L 1331.74,179.726" style="fill:none;fill-rule:evenodd;stroke:#000000;stroke-width:2.0px;stroke-linecap:butt;stroke-linejoin:miter;stroke-opacity:1"/>
<path class="bond-5" d="M 1232.64,231.02 L 1232.64,273.871" style="fill:none;fill-rule:evenodd;stroke:#000000;stroke-width:2.0px;stroke-linecap:butt;stroke-linejoin:miter;stroke-opacity:1"/>
<path class="bond-5" d="M 1232.64,273.871 L 1232.64,316.722" style="fill:none;fill-rule:evenodd;stroke:#FF0000;stroke-width:2.0px;stroke-linecap:butt;stroke-linejoin:miter;stroke-opacity:1"/>
<path class="bond-5" d="M 1253.16,231.02 L 1253.16,273.871" style="fill:none;fill-rule:evenodd;stroke:#000000;stroke-width:2.0px;stroke-linecap:butt;stroke-linejoin:miter;stroke-opacity:1"/>
<path class="bond-5" d="M 1253.16,273.871 L 1253.16,316.722" style="fill:none;fill-rule:evenodd;stroke:#FF0000;stroke-width:2.0px;stroke-linecap:butt;stroke-linejoin:miter;stroke-opacity:1"/>
<path class="bond-6" d="M 2005.54,265.336 L 1962.25,255.21" style="fill:none;fill-rule:evenodd;stroke:#0000FF;stroke-width:2.0px;stroke-linecap:butt;stroke-linejoin:miter;stroke-opacity:1"/>
<path class="bond-6" d="M 1962.25,255.21 L 1918.96,245.084" style="fill:none;fill-rule:evenodd;stroke:#000000;stroke-width:2.0px;stroke-linecap:butt;stroke-linejoin:miter;stroke-opacity:1"/>
<path class="bond-7" d="M 1918.96,245.084 L 1848.78,319.91" style="fill:none;fill-rule:evenodd;stroke:#000000;stroke-width:2.0px;stroke-linecap:butt;stroke-linejoin:miter;stroke-opacity:1"/>
<path class="bond-7" d="M 1893.47,242.272 L 1844.34,294.65" style="fill:none;fill-rule:evenodd;stroke:#000000;stroke-width:2.0px;stroke-linecap:butt;stroke-linejoin:miter;stroke-opacity:1;stroke-dasharray:6,6"/>
<path class="bond-14" d="M 1918.96,245.084 L 1889.25,146.893" style="fill:none;fill-rule:evenodd;stroke:#000000;stroke-width:2.0px;stroke-linecap:butt;stroke-linejoin:miter;stroke-opacity:1"/>
<path class="bond-14" d="M 1894.86,236.298 L 1874.07,167.564" style="fill:none;fill-rule:evenodd;stroke:#000000;stroke-width:2.0px;stroke-linecap:butt;stroke-linejoin:miter;stroke-opacity:1;stroke-dasharray:6,6"/>
<path class="bond-8" d="M 1848.78,319.91 L 1748.89,296.545" style="fill:none;fill-rule:evenodd;stroke:#000000;stroke-width:2.0px;stroke-linecap:butt;stroke-linejoin:miter;stroke-opacity:1"/>
<path class="bond-8" d="M 1838.47,296.427 L 1768.54,280.072" style="fill:none;fill-rule:evenodd;stroke:#000000;stroke-width:2.0px;stroke-linecap:butt;stroke-linejoin:miter;stroke-opacity:1;stroke-dasharray:6,6"/>
<path class="bond-9" d="M 1748.89,296.545 L 1716,331.61" style="fill:none;fill-rule:evenodd;stroke:#000000;stroke-width:2.0px;stroke-linecap:butt;stroke-linejoin:miter;stroke-opacity:1"/>
<path class="bond-9" d="M 1716,331.61 L 1683.11,366.675" style="fill:none;fill-rule:evenodd;stroke:#00CC00;stroke-width:2.0px;stroke-linecap:butt;stroke-linejoin:miter;stroke-opacity:1"/>
<path class="bond-10" d="M 1748.89,296.545 L 1719.18,198.355" style="fill:none;fill-rule:evenodd;stroke:#000000;stroke-width:2.0px;stroke-linecap:butt;stroke-linejoin:miter;stroke-opacity:1"/>
<path class="bond-10" d="M 1764.07,275.875 L 1743.27,207.141" style="fill:none;fill-rule:evenodd;stroke:#000000;stroke-width:2.0px;stroke-linecap:butt;stroke-linejoin:miter;stroke-opacity:1;stroke-dasharray:6,6"/>
<path class="bond-11" d="M 1719.18,198.355 L 1677.01,188.493" style="fill:none;fill-rule:evenodd;stroke:#000000;stroke-width:2.0px;stroke-linecap:butt;stroke-linejoin:miter;stroke-opacity:1"/>
<path class="bond-11" d="M 1677.01,188.493 L 1634.85,178.631" style="fill:none;fill-rule:evenodd;stroke:#FF0000;stroke-width:2.0px;stroke-linecap:butt;stroke-linejoin:miter;stroke-opacity:1"/>
<path class="bond-12" d="M 1719.18,198.355 L 1789.36,123.529" style="fill:none;fill-rule:evenodd;stroke:#000000;stroke-width:2.0px;stroke-linecap:butt;stroke-linejoin:miter;stroke-opacity:1"/>
<path class="bond-12" d="M 1744.67,201.167 L 1793.79,148.789" style="fill:none;fill-rule:evenodd;stroke:#000000;stroke-width:2.0px;stroke-linecap:butt;stroke-linejoin:miter;stroke-opacity:1;stroke-dasharray:6,6"/>
<path class="bond-13" d="M 1789.36,123.529 L 1889.25,146.893" style="fill:none;fill-rule:evenodd;stroke:#000000;stroke-width:2.0px;stroke-linecap:butt;stroke-linejoin:miter;stroke-opacity:1"/>
<path class="bond-13" d="M 1799.67,147.012 L 1869.59,163.367" style="fill:none;fill-rule:evenodd;stroke:#000000;stroke-width:2.0px;stroke-linecap:butt;stroke-linejoin:miter;stroke-opacity:1;stroke-dasharray:6,6"/>
<path class="bond-15" d="M 2533.05,235.857 L 2633.5,215.042" style="fill:none;fill-rule:evenodd;stroke:#000000;stroke-width:2.0px;stroke-linecap:butt;stroke-linejoin:miter;stroke-opacity:1"/>
<path class="bond-16" d="M 2643.24,218.262 L 2656.48,178.223" style="fill:none;fill-rule:evenodd;stroke:#000000;stroke-width:2.0px;stroke-linecap:butt;stroke-linejoin:miter;stroke-opacity:1"/>
<path class="bond-16" d="M 2656.48,178.223 L 2669.72,138.184" style="fill:none;fill-rule:evenodd;stroke:#FF0000;stroke-width:2.0px;stroke-linecap:butt;stroke-linejoin:miter;stroke-opacity:1"/>
<path class="bond-16" d="M 2623.76,211.822 L 2637,171.783" style="fill:none;fill-rule:evenodd;stroke:#000000;stroke-width:2.0px;stroke-linecap:butt;stroke-linejoin:miter;stroke-opacity:1"/>
<path class="bond-16" d="M 2637,171.783 L 2650.24,131.744" style="fill:none;fill-rule:evenodd;stroke:#FF0000;stroke-width:2.0px;stroke-linecap:butt;stroke-linejoin:miter;stroke-opacity:1"/>
<path class="bond-17" d="M 2633.5,215.042 L 2660.98,245.871" style="fill:none;fill-rule:evenodd;stroke:#000000;stroke-width:2.0px;stroke-linecap:butt;stroke-linejoin:miter;stroke-opacity:1"/>
<path class="bond-17" d="M 2660.98,245.871 L 2688.45,276.701" style="fill:none;fill-rule:evenodd;stroke:#0000FF;stroke-width:2.0px;stroke-linecap:butt;stroke-linejoin:miter;stroke-opacity:1"/>
<path class="bond-18" d="M 2715.06,288.873 L 2758.63,279.844" style="fill:none;fill-rule:evenodd;stroke:#0000FF;stroke-width:2.0px;stroke-linecap:butt;stroke-linejoin:miter;stroke-opacity:1"/>
<path class="bond-18" d="M 2758.63,279.844 L 2802.21,270.815" style="fill:none;fill-rule:evenodd;stroke:#000000;stroke-width:2.0px;stroke-linecap:butt;stroke-linejoin:miter;stroke-opacity:1"/>
<path class="bond-19" d="M 2802.21,270.815 L 2834.41,173.412" style="fill:none;fill-rule:evenodd;stroke:#000000;stroke-width:2.0px;stroke-linecap:butt;stroke-linejoin:miter;stroke-opacity:1"/>
<path class="bond-19" d="M 2826.52,262.645 L 2849.06,194.463" style="fill:none;fill-rule:evenodd;stroke:#000000;stroke-width:2.0px;stroke-linecap:butt;stroke-linejoin:miter;stroke-opacity:1;stroke-dasharray:6,6"/>
<path class="bond-26" d="M 2802.21,270.815 L 2870.46,347.403" style="fill:none;fill-rule:evenodd;stroke:#000000;stroke-width:2.0px;stroke-linecap:butt;stroke-linejoin:miter;stroke-opacity:1"/>
<path class="bond-26" d="M 2827.76,268.653 L 2875.54,322.264" style="fill:none;fill-rule:evenodd;stroke:#000000;stroke-width:2.0px;stroke-linecap:butt;stroke-linejoin:miter;stroke-opacity:1;stroke-dasharray:6,6"/>
<path class="bond-20" d="M 2834.41,173.412 L 2934.86,152.597" style="fill:none;fill-rule:evenodd;stroke:#000000;stroke-width:2.0px;stroke-linecap:butt;stroke-linejoin:miter;stroke-opacity:1"/>
<path class="bond-20" d="M 2853.64,190.381 L 2923.96,175.81" style="fill:none;fill-rule:evenodd;stroke:#000000;stroke-width:2.0px;stroke-linecap:butt;stroke-linejoin:miter;stroke-opacity:1;stroke-dasharray:6,6"/>
<path class="bond-21" d="M 2934.86,152.597 L 2947.97,112.948" style="fill:none;fill-rule:evenodd;stroke:#000000;stroke-width:2.0px;stroke-linecap:butt;stroke-linejoin:miter;stroke-opacity:1"/>
<path class="bond-21" d="M 2947.97,112.948 L 2961.08,73.2995" style="fill:none;fill-rule:evenodd;stroke:#00CC00;stroke-width:2.0px;stroke-linecap:butt;stroke-linejoin:miter;stroke-opacity:1"/>
<path class="bond-22" d="M 2934.86,152.597 L 3003.12,229.185" style="fill:none;fill-rule:evenodd;stroke:#000000;stroke-width:2.0px;stroke-linecap:butt;stroke-linejoin:miter;stroke-opacity:1"/>
<path class="bond-22" d="M 2929.78,177.736 L 2977.56,231.347" style="fill:none;fill-rule:evenodd;stroke:#000000;stroke-width:2.0px;stroke-linecap:butt;stroke-linejoin:miter;stroke-opacity:1;stroke-dasharray:6,6"/>
<path class="bond-23" d="M 3003.12,229.185 L 2970.91,326.588" style="fill:none;fill-rule:evenodd;stroke:#000000;stroke-width:2.0px;stroke-linecap:butt;stroke-linejoin:miter;stroke-opacity:1"/>
<path class="bond-23" d="M 2978.8,237.355 L 2956.26,305.537" style="fill:none;fill-rule:evenodd;stroke:#000000;stroke-width:2.0px;stroke-linecap:butt;stroke-linejoin:miter;stroke-opacity:1;stroke-dasharray:6,6"/>
<path class="bond-24" d="M 2970.91,326.588 L 2870.46,347.403" style="fill:none;fill-rule:evenodd;stroke:#000000;stroke-width:2.0px;stroke-linecap:butt;stroke-linejoin:miter;stroke-opacity:1"/>
<path class="bond-24" d="M 2951.68,309.619 L 2881.37,324.19" style="fill:none;fill-rule:evenodd;stroke:#000000;stroke-width:2.0px;stroke-linecap:butt;stroke-linejoin:miter;stroke-opacity:1;stroke-dasharray:6,6"/>
<path class="bond-25" d="M 2870.46,347.403 L 2857.15,387.662" style="fill:none;fill-rule:evenodd;stroke:#000000;stroke-width:2.0px;stroke-linecap:butt;stroke-linejoin:miter;stroke-opacity:1"/>
<path class="bond-25" d="M 2857.15,387.662 L 2843.84,427.921" style="fill:none;fill-rule:evenodd;stroke:#FF0000;stroke-width:2.0px;stroke-linecap:butt;stroke-linejoin:miter;stroke-opacity:1"/>
<path class="atom-2" d="M 1052.21 333.687 Q 1052.21 326.887, 1055.57 323.087 Q 1058.93 319.287, 1065.21 319.287 Q 1071.49 319.287, 1074.85 323.087 Q 1078.21 326.887, 1078.21 333.687 Q 1078.21 340.567, 1074.81 344.487 Q 1071.41 348.367, 1065.21 348.367 Q 1058.97 348.367, 1055.57 344.487 Q 1052.21 340.607, 1052.21 333.687 M 1065.21 345.167 Q 1069.53 345.167, 1071.85 342.287 Q 1074.21 339.367, 1074.21 333.687 Q 1074.21 328.127, 1071.85 325.327 Q 1069.53 322.487, 1065.21 322.487 Q 1060.89 322.487, 1058.53 325.287 Q 1056.21 328.087, 1056.21 333.687 Q 1056.21 339.407, 1058.53 342.287 Q 1060.89 345.167, 1065.21 345.167 " fill="#FF0000"/>
<path class="atom-3" d="M 1141.05 179.806 Q 1141.05 173.006, 1144.41 169.206 Q 1147.77 165.406, 1154.05 165.406 Q 1160.33 165.406, 1163.69 169.206 Q 1167.05 173.006, 1167.05 179.806 Q 1167.05 186.686, 1163.65 190.606 Q 1160.25 194.486, 1154.05 194.486 Q 1147.81 194.486, 1144.41 190.606 Q 1141.05 186.726, 1141.05 179.806 M 1154.05 191.286 Q 1158.37 191.286, 1160.69 188.406 Q 1163.05 185.486, 1163.05 179.806 Q 1163.05 174.246, 1160.69 171.446 Q 1158.37 168.606, 1154.05 168.606 Q 1149.73 168.606, 1147.37 171.406 Q 1145.05 174.206, 1145.05 179.806 Q 1145.05 185.526, 1147.37 188.406 Q 1149.73 191.286, 1154.05 191.286 " fill="#FF0000"/>
<path class="atom-6" d="M 1229.9 333.687 Q 1229.9 326.887, 1233.26 323.087 Q 1236.62 319.287, 1242.9 319.287 Q 1249.18 319.287, 1252.54 323.087 Q 1255.9 326.887, 1255.9 333.687 Q 1255.9 340.567, 1252.5 344.487 Q 1249.1 348.367, 1242.9 348.367 Q 1236.66 348.367, 1233.26 344.487 Q 1229.9 340.607, 1229.9 333.687 M 1242.9 345.167 Q 1247.22 345.167, 1249.54 342.287 Q 1251.9 339.367, 1251.9 333.687 Q 1251.9 328.127, 1249.54 325.327 Q 1247.22 322.487, 1242.9 322.487 Q 1238.58 322.487, 1236.22 325.287 Q 1233.9 328.087, 1233.9 333.687 Q 1233.9 339.407, 1236.22 342.287 Q 1238.58 345.167, 1242.9 345.167 " fill="#FF0000"/>
<path class="atom-7" d="M 2012.59 254.288 L 2021.87 269.288 Q 2022.79 270.768, 2024.27 273.448 Q 2025.75 276.128, 2025.83 276.288 L 2025.83 254.288 L 2029.59 254.288 L 2029.59 282.608 L 2025.71 282.608 L 2015.75 266.208 Q 2014.59 264.288, 2013.35 262.088 Q 2012.15 259.888, 2011.79 259.208 L 2011.79 282.608 L 2008.11 282.608 L 2008.11 254.288 L 2012.59 254.288 " fill="#0000FF"/>
<path class="atom-7" d="M 2032.99 254.288 L 2036.83 254.288 L 2036.83 266.328 L 2051.31 266.328 L 2051.31 254.288 L 2055.15 254.288 L 2055.15 282.608 L 2051.31 282.608 L 2051.31 269.528 L 2036.83 269.528 L 2036.83 282.608 L 2032.99 282.608 L 2032.99 254.288 " fill="#0000FF"/>
<path class="atom-7" d="M 2056.52 281.615 Q 2057.21 279.846, 2058.85 278.869 Q 2060.48 277.866, 2062.75 277.866 Q 2065.58 277.866, 2067.16 279.397 Q 2068.75 280.928, 2068.75 283.647 Q 2068.75 286.419, 2066.69 289.007 Q 2064.65 291.594, 2060.43 294.656 L 2069.06 294.656 L 2069.06 296.768 L 2056.47 296.768 L 2056.47 294.999 Q 2059.95 292.518, 2062.01 290.67 Q 2064.1 288.822, 2065.1 287.159 Q 2066.11 285.495, 2066.11 283.779 Q 2066.11 281.984, 2065.21 280.981 Q 2064.31 279.978, 2062.75 279.978 Q 2061.25 279.978, 2060.24 280.585 Q 2059.24 281.192, 2058.53 282.539 L 2056.52 281.615 " fill="#0000FF"/>
<path class="atom-11" d="M 1651.59 372.351 Q 1651.59 365.311, 1654.87 361.631 Q 1658.19 357.911, 1664.47 357.911 Q 1670.31 357.911, 1673.43 362.031 L 1670.79 364.191 Q 1668.51 361.191, 1664.47 361.191 Q 1660.19 361.191, 1657.91 364.071 Q 1655.67 366.911, 1655.67 372.351 Q 1655.67 377.951, 1657.99 380.831 Q 1660.35 383.711, 1664.91 383.711 Q 1668.03 383.711, 1671.67 381.831 L 1672.79 384.831 Q 1671.31 385.791, 1669.07 386.351 Q 1666.83 386.911, 1664.35 386.911 Q 1658.19 386.911, 1654.87 383.151 Q 1651.59 379.391, 1651.59 372.351 " fill="#00CC00"/>
<path class="atom-11" d="M 1676.87 356.191 L 1680.55 356.191 L 1680.55 386.551 L 1676.87 386.551 L 1676.87 356.191 " fill="#00CC00"/>
<path class="atom-13" d="M 1582.12 160.991 L 1585.96 160.991 L 1585.96 173.031 L 1600.44 173.031 L 1600.44 160.991 L 1604.28 160.991 L 1604.28 189.311 L 1600.44 189.311 L 1600.44 176.231 L 1585.96 176.231 L 1585.96 189.311 L 1582.12 189.311 L 1582.12 160.991 " fill="#FF0000"/>
<path class="atom-13" d="M 1606.28 175.071 Q 1606.28 168.271, 1609.64 164.471 Q 1613 160.671, 1619.28 160.671 Q 1625.56 160.671, 1628.92 164.471 Q 1632.28 168.271, 1632.28 175.071 Q 1632.28 181.951, 1628.88 185.871 Q 1625.48 189.751, 1619.28 189.751 Q 1613.04 189.751, 1609.64 185.871 Q 1606.28 181.991, 1606.28 175.071 M 1619.28 186.551 Q 1623.6 186.551, 1625.92 183.671 Q 1628.28 180.751, 1628.28 175.071 Q 1628.28 169.511, 1625.92 166.711 Q 1623.6 163.871, 1619.28 163.871 Q 1614.96 163.871, 1612.6 166.671 Q 1610.28 169.471, 1610.28 175.071 Q 1610.28 180.791, 1612.6 183.671 Q 1614.96 186.551, 1619.28 186.551 " fill="#FF0000"/>
<path class="atom-18" d="M 2652.7 117.72 Q 2652.7 110.92, 2656.06 107.12 Q 2659.42 103.32, 2665.7 103.32 Q 2671.98 103.32, 2675.34 107.12 Q 2678.7 110.92, 2678.7 117.72 Q 2678.7 124.6, 2675.3 128.52 Q 2671.9 132.4, 2665.7 132.4 Q 2659.46 132.4, 2656.06 128.52 Q 2652.7 124.64, 2652.7 117.72 M 2665.7 129.2 Q 2670.02 129.2, 2672.34 126.32 Q 2674.7 123.4, 2674.7 117.72 Q 2674.7 112.16, 2672.34 109.36 Q 2670.02 106.52, 2665.7 106.52 Q 2661.38 106.52, 2659.02 109.32 Q 2656.7 112.12, 2656.7 117.72 Q 2656.7 123.44, 2659.02 126.32 Q 2661.38 129.2, 2665.7 129.2 " fill="#FF0000"/>
<path class="atom-19" d="M 2695.5 277.47 L 2704.78 292.47 Q 2705.7 293.95, 2707.18 296.63 Q 2708.66 299.31, 2708.74 299.47 L 2708.74 277.47 L 2712.5 277.47 L 2712.5 305.79 L 2708.62 305.79 L 2698.66 289.39 Q 2697.5 287.47, 2696.26 285.27 Q 2695.06 283.07, 2694.7 282.39 L 2694.7 305.79 L 2691.02 305.79 L 2691.02 277.47 L 2695.5 277.47 " fill="#0000FF"/>
<path class="atom-19" d="M 2690.68 308.622 L 2694.52 308.622 L 2694.52 320.662 L 2709 320.662 L 2709 308.622 L 2712.84 308.622 L 2712.84 336.942 L 2709 336.942 L 2709 323.862 L 2694.52 323.862 L 2694.52 336.942 L 2690.68 336.942 L 2690.68 308.622 " fill="#0000FF"/>
<path class="atom-23" d="M 2956.14 56.1748 Q 2956.14 49.1348, 2959.42 45.4548 Q 2962.74 41.7348, 2969.02 41.7348 Q 2974.86 41.7348, 2977.98 45.8548 L 2975.34 48.0148 Q 2973.06 45.0148, 2969.02 45.0148 Q 2964.74 45.0148, 2962.46 47.8948 Q 2960.22 50.7348, 2960.22 56.1748 Q 2960.22 61.7748, 2962.54 64.6548 Q 2964.9 67.5348, 2969.46 67.5348 Q 2972.58 67.5348, 2976.22 65.6548 L 2977.34 68.6548 Q 2975.86 69.6148, 2973.62 70.1748 Q 2971.38 70.7348, 2968.9 70.7348 Q 2962.74 70.7348, 2959.42 66.9748 Q 2956.14 63.2148, 2956.14 56.1748 " fill="#00CC00"/>
<path class="atom-23" d="M 2981.42 40.0148 L 2985.1 40.0148 L 2985.1 70.3748 L 2981.42 70.3748 L 2981.42 40.0148 " fill="#00CC00"/>
<path class="atom-27" d="M 2825.26 444.885 Q 2825.26 438.085, 2828.62 434.285 Q 2831.98 430.485, 2838.26 430.485 Q 2844.54 430.485, 2847.9 434.285 Q 2851.26 438.085, 2851.26 444.885 Q 2851.26 451.765, 2847.86 455.685 Q 2844.46 459.565, 2838.26 459.565 Q 2832.02 459.565, 2828.62 455.685 Q 2825.26 451.805, 2825.26 444.885 M 2838.26 456.365 Q 2842.58 456.365, 2844.9 453.485 Q 2847.26 450.565, 2847.26 444.885 Q 2847.26 439.325, 2844.9 436.525 Q 2842.58 433.685, 2838.26 433.685 Q 2833.94 433.685, 2831.58 436.485 Q 2829.26 439.285, 2829.26 444.885 Q 2829.26 450.605, 2831.58 453.485 Q 2833.94 456.365, 2838.26 456.365 " fill="#FF0000"/>
<path class="atom-27" d="M 2854.66 430.805 L 2858.5 430.805 L 2858.5 442.845 L 2872.98 442.845 L 2872.98 430.805 L 2876.82 430.805 L 2876.82 459.125 L 2872.98 459.125 L 2872.98 446.045 L 2858.5 446.045 L 2858.5 459.125 L 2854.66 459.125 L 2854.66 430.805 " fill="#FF0000"/>
<path class="atom-28" d="M 2228.09 114.936 L 2231.93 114.936 L 2231.93 126.976 L 2246.41 126.976 L 2246.41 114.936 L 2250.25 114.936 L 2250.25 143.256 L 2246.41 143.256 L 2246.41 130.176 L 2231.93 130.176 L 2231.93 143.256 L 2228.09 143.256 L 2228.09 114.936 " fill="#FF0000"/>
<path class="atom-28" d="M 2251.62 142.262 Q 2252.31 140.493, 2253.95 139.516 Q 2255.58 138.513, 2257.85 138.513 Q 2260.68 138.513, 2262.26 140.044 Q 2263.85 141.576, 2263.85 144.295 Q 2263.85 147.067, 2261.79 149.654 Q 2259.75 152.241, 2255.53 155.304 L 2264.16 155.304 L 2264.16 157.416 L 2251.57 157.416 L 2251.57 155.647 Q 2255.06 153.165, 2257.11 151.317 Q 2259.2 149.469, 2260.2 147.806 Q 2261.21 146.143, 2261.21 144.427 Q 2261.21 142.632, 2260.31 141.628 Q 2259.41 140.625, 2257.85 140.625 Q 2256.35 140.625, 2255.35 141.232 Q 2254.34 141.84, 2253.63 143.186 L 2251.62 142.262 " fill="#FF0000"/>
<path class="atom-28" d="M 2266.16 129.016 Q 2266.16 122.216, 2269.52 118.416 Q 2272.88 114.616, 2279.16 114.616 Q 2285.44 114.616, 2288.8 118.416 Q 2292.16 122.216, 2292.16 129.016 Q 2292.16 135.896, 2288.76 139.816 Q 2285.36 143.696, 2279.16 143.696 Q 2272.92 143.696, 2269.52 139.816 Q 2266.16 135.936, 2266.16 129.016 M 2279.16 140.496 Q 2283.48 140.496, 2285.8 137.616 Q 2288.16 134.696, 2288.16 129.016 Q 2288.16 123.456, 2285.8 120.656 Q 2283.48 117.816, 2279.16 117.816 Q 2274.84 117.816, 2272.48 120.616 Q 2270.16 123.416, 2270.16 129.016 Q 2270.16 134.736, 2272.48 137.616 Q 2274.84 140.496, 2279.16 140.496 " fill="#FF0000"/>
<path class="note" d="M 1238.17 209.602 Q 1238.69 208.262, 1239.93 207.522 Q 1241.17 206.762, 1242.89 206.762 Q 1245.03 206.762, 1246.23 207.922 Q 1247.43 209.082, 1247.43 211.142 Q 1247.43 213.242, 1245.87 215.202 Q 1244.33 217.162, 1241.13 219.482 L 1247.67 219.482 L 1247.67 221.082 L 1238.13 221.082 L 1238.13 219.742 Q 1240.77 217.862, 1242.33 216.462 Q 1243.91 215.062, 1244.67 213.802 Q 1245.43 212.542, 1245.43 211.242 Q 1245.43 209.882, 1244.75 209.122 Q 1244.07 208.362, 1242.89 208.362 Q 1241.75 208.362, 1240.99 208.822 Q 1240.23 209.282, 1239.69 210.302 L 1238.17 209.602 " fill="#000000"/>
<path class="note" d="M 1319.7 170.439 L 1322.8 170.439 L 1322.8 159.859 L 1319.38 160.919 L 1318.92 159.739 L 1323.26 157.799 L 1324.68 158.039 L 1324.68 170.439 L 1327.46 170.439 L 1327.46 172.039 L 1319.7 172.039 L 1319.7 170.439 " fill="#000000"/>
<path class="note" d="M 1244.94 367.503 Q 1246.32 367.903, 1246.98 368.803 Q 1247.66 369.683, 1247.66 371.083 Q 1247.66 372.283, 1247.06 373.223 Q 1246.46 374.143, 1245.36 374.663 Q 1244.26 375.163, 1242.82 375.163 Q 1241.3 375.163, 1240.16 374.643 Q 1239.04 374.103, 1238.14 373.023 L 1239.28 371.863 Q 1240.16 372.823, 1240.9 373.203 Q 1241.64 373.563, 1242.82 373.563 Q 1244.1 373.563, 1244.88 372.883 Q 1245.66 372.183, 1245.66 371.063 Q 1245.66 369.623, 1244.84 368.983 Q 1244.04 368.323, 1242.3 368.323 L 1241.28 368.323 L 1241.28 366.883 L 1242.18 366.883 Q 1243.72 366.863, 1244.54 366.203 Q 1245.36 365.523, 1245.36 364.263 Q 1245.36 363.343, 1244.68 362.803 Q 1244 362.243, 1242.84 362.243 Q 1241.66 362.243, 1240.92 362.663 Q 1240.2 363.083, 1239.64 364.143 L 1238.26 363.403 Q 1238.76 362.223, 1239.96 361.443 Q 1241.16 360.643, 1242.84 360.643 Q 1244.92 360.643, 1246.14 361.623 Q 1247.36 362.603, 1247.36 364.263 Q 1247.36 365.403, 1246.74 366.223 Q 1246.12 367.043, 1244.94 367.503 " fill="#000000"/>
<path class="note" d="M 2045.99 245.726 L 2047.69 245.726 L 2047.69 247.326 L 2045.99 247.326 L 2045.99 250.586 L 2044.11 250.586 L 2044.11 247.326 L 2036.79 247.326 L 2036.79 246.066 L 2042.99 236.426 L 2045.99 236.426 L 2045.99 245.726 M 2039.11 245.726 L 2044.11 245.726 L 2044.11 237.706 L 2039.11 245.726 " fill="#000000"/>
<path class="note" d="M 1924.26 259.669 Q 1925.5 259.669, 1926.52 260.209 Q 1927.54 260.729, 1928.12 261.729 Q 1928.7 262.709, 1928.7 264.049 Q 1928.7 265.509, 1927.98 266.569 Q 1927.28 267.609, 1926.12 268.149 Q 1924.96 268.689, 1923.64 268.689 Q 1922.34 268.689, 1921.14 268.209 Q 1919.94 267.729, 1919.12 266.809 L 1920.32 265.569 Q 1920.98 266.289, 1921.88 266.689 Q 1922.78 267.069, 1923.7 267.069 Q 1924.96 267.069, 1925.82 266.289 Q 1926.7 265.509, 1926.7 264.089 Q 1926.7 262.589, 1925.82 261.889 Q 1924.96 261.169, 1923.58 261.169 Q 1922.34 261.169, 1920.96 261.709 L 1919.86 261.189 L 1920.54 254.369 L 1927.82 254.369 L 1927.62 255.969 L 1922.18 255.969 L 1921.76 260.169 Q 1923.02 259.669, 1924.26 259.669 " fill="#000000"/>
<path class="note" d="M 1854.36 334.595 Q 1855.6 334.595, 1856.58 335.135 Q 1857.56 335.675, 1858.1 336.655 Q 1858.64 337.635, 1858.64 338.875 Q 1858.64 340.255, 1858.02 341.335 Q 1857.42 342.395, 1856.34 342.995 Q 1855.26 343.595, 1853.88 343.595 Q 1851.36 343.595, 1850.08 341.895 Q 1848.82 340.175, 1848.82 336.775 Q 1848.82 333.015, 1850.38 331.075 Q 1851.96 329.115, 1854.98 329.115 Q 1855.86 329.115, 1856.6 329.315 Q 1857.36 329.515, 1858.08 329.935 L 1857.3 331.275 Q 1856.26 330.715, 1855 330.715 Q 1853 330.715, 1851.98 332.015 Q 1850.96 333.295, 1850.84 335.955 Q 1851.56 335.295, 1852.46 334.955 Q 1853.38 334.595, 1854.36 334.595 M 1853.9 341.955 Q 1854.66 341.955, 1855.28 341.555 Q 1855.92 341.155, 1856.28 340.455 Q 1856.64 339.755, 1856.64 338.895 Q 1856.64 337.635, 1855.94 336.915 Q 1855.24 336.195, 1854 336.195 Q 1853.14 336.195, 1852.28 336.555 Q 1851.44 336.895, 1850.84 337.495 Q 1850.92 339.835, 1851.66 340.895 Q 1852.4 341.955, 1853.9 341.955 " fill="#000000"/>
<path class="note" d="M 1756.56 307.431 L 1749.14 307.431 L 1749.14 305.831 L 1758.54 305.831 L 1758.54 307.251 L 1752.82 319.991 L 1750.9 319.991 L 1756.56 307.431 " fill="#000000"/>
<path class="note" d="M 1657.53 395.973 Q 1658.83 396.533, 1659.57 397.373 Q 1660.31 398.193, 1660.31 399.593 Q 1660.31 400.793, 1659.69 401.733 Q 1659.07 402.653, 1657.95 403.173 Q 1656.85 403.673, 1655.39 403.673 Q 1653.03 403.673, 1651.67 402.593 Q 1650.31 401.493, 1650.31 399.593 Q 1650.31 398.433, 1650.91 397.573 Q 1651.51 396.693, 1652.75 396.033 Q 1651.83 395.513, 1651.33 394.753 Q 1650.83 393.973, 1650.83 392.773 Q 1650.83 391.113, 1652.03 390.133 Q 1653.25 389.153, 1655.31 389.153 Q 1657.37 389.153, 1658.57 390.133 Q 1659.79 391.113, 1659.79 392.773 Q 1659.79 393.813, 1659.21 394.593 Q 1658.65 395.353, 1657.53 395.973 M 1655.31 390.653 Q 1654.13 390.653, 1653.47 391.213 Q 1652.83 391.773, 1652.83 392.773 Q 1652.83 393.513, 1653.27 394.013 Q 1653.71 394.493, 1654.33 394.773 Q 1654.97 395.053, 1656.19 395.473 Q 1657.05 394.873, 1657.41 394.233 Q 1657.79 393.593, 1657.79 392.773 Q 1657.79 391.773, 1657.13 391.213 Q 1656.49 390.653, 1655.31 390.653 M 1655.39 402.173 Q 1656.71 402.173, 1657.51 401.473 Q 1658.31 400.753, 1658.31 399.573 Q 1658.31 398.813, 1657.89 398.333 Q 1657.47 397.853, 1656.83 397.573 Q 1656.21 397.293, 1655.09 396.933 L 1654.19 396.633 Q 1653.19 397.233, 1652.75 397.953 Q 1652.31 398.653, 1652.31 399.573 Q 1652.31 400.753, 1653.15 401.473 Q 1653.99 402.173, 1655.39 402.173 " fill="#000000"/>
<path class="note" d="M 1707.33 203.666 Q 1709.85 203.666, 1711.11 205.386 Q 1712.39 207.086, 1712.39 210.486 Q 1712.39 214.246, 1710.81 216.206 Q 1709.25 218.146, 1706.23 218.146 Q 1705.35 218.146, 1704.59 217.946 Q 1703.85 217.746, 1703.13 217.326 L 1703.91 215.986 Q 1704.95 216.546, 1706.21 216.546 Q 1708.21 216.546, 1709.23 215.266 Q 1710.25 213.966, 1710.37 211.306 Q 1709.65 211.966, 1708.73 212.326 Q 1707.83 212.666, 1706.85 212.666 Q 1705.61 212.666, 1704.63 212.126 Q 1703.65 211.586, 1703.11 210.606 Q 1702.57 209.626, 1702.57 208.386 Q 1702.57 207.006, 1703.17 205.946 Q 1703.79 204.866, 1704.87 204.266 Q 1705.95 203.666, 1707.33 203.666 M 1704.57 208.366 Q 1704.57 209.626, 1705.27 210.346 Q 1705.97 211.066, 1707.21 211.066 Q 1708.07 211.066, 1708.91 210.726 Q 1709.77 210.366, 1710.37 209.766 Q 1710.29 207.426, 1709.55 206.366 Q 1708.81 205.306, 1707.31 205.306 Q 1706.55 205.306, 1705.91 205.706 Q 1705.29 206.106, 1704.93 206.806 Q 1704.57 207.506, 1704.57 208.366 " fill="#000000"/>
<path class="note" d="M 1582.86 205.493 L 1585.96 205.493 L 1585.96 194.913 L 1582.54 195.973 L 1582.08 194.793 L 1586.42 192.853 L 1587.84 193.093 L 1587.84 205.493 L 1590.62 205.493 L 1590.62 207.093 L 1582.86 207.093 L 1582.86 205.493 " fill="#000000"/>
<path class="note" d="M 1591.66 195.613 Q 1592.18 194.273, 1593.42 193.533 Q 1594.66 192.773, 1596.38 192.773 Q 1598.52 192.773, 1599.72 193.933 Q 1600.92 195.093, 1600.92 197.153 Q 1600.92 199.253, 1599.36 201.213 Q 1597.82 203.173, 1594.62 205.493 L 1601.16 205.493 L 1601.16 207.093 L 1591.62 207.093 L 1591.62 205.753 Q 1594.26 203.873, 1595.82 202.473 Q 1597.4 201.073, 1598.16 199.813 Q 1598.92 198.553, 1598.92 197.253 Q 1598.92 195.893, 1598.24 195.133 Q 1597.56 194.373, 1596.38 194.373 Q 1595.24 194.373, 1594.48 194.833 Q 1593.72 195.293, 1593.18 196.313 L 1591.66 195.613 " fill="#000000"/>
<path class="note" d="M 1770.85 112.724 L 1773.95 112.724 L 1773.95 102.144 L 1770.53 103.204 L 1770.07 102.024 L 1774.41 100.084 L 1775.83 100.324 L 1775.83 112.724 L 1778.61 112.724 L 1778.61 114.324 L 1770.85 114.324 L 1770.85 112.724 " fill="#000000"/>
<path class="note" d="M 1785.01 114.484 Q 1782.41 114.484, 1781.11 112.564 Q 1779.83 110.644, 1779.83 107.224 Q 1779.83 103.804, 1781.11 101.904 Q 1782.39 100.004, 1785.01 100.004 Q 1787.63 100.004, 1788.91 101.904 Q 1790.19 103.804, 1790.19 107.224 Q 1790.19 110.644, 1788.89 112.564 Q 1787.61 114.484, 1785.01 114.484 M 1785.01 112.884 Q 1786.55 112.884, 1787.37 111.464 Q 1788.19 110.024, 1788.19 107.224 Q 1788.19 104.444, 1787.37 103.024 Q 1786.55 101.604, 1785.01 101.604 Q 1783.49 101.604, 1782.65 103.024 Q 1781.83 104.444, 1781.83 107.224 Q 1781.83 110.024, 1782.65 111.464 Q 1783.49 112.884, 1785.01 112.884 " fill="#000000"/>
<path class="note" d="M 1888.37 139.942 L 1891.47 139.942 L 1891.47 129.362 L 1888.05 130.422 L 1887.59 129.242 L 1891.93 127.302 L 1893.35 127.542 L 1893.35 139.942 L 1896.13 139.942 L 1896.13 141.542 L 1888.37 141.542 L 1888.37 139.942 " fill="#000000"/>
<path class="note" d="M 1897.99 139.942 L 1901.09 139.942 L 1901.09 129.362 L 1897.67 130.422 L 1897.21 129.242 L 1901.55 127.302 L 1902.97 127.542 L 1902.97 139.942 L 1905.75 139.942 L 1905.75 141.542 L 1897.99 141.542 L 1897.99 139.942 " fill="#000000"/>
<path class="note" d="M 2533.03 258.119 L 2536.13 258.119 L 2536.13 247.539 L 2532.71 248.599 L 2532.25 247.419 L 2536.59 245.479 L 2538.01 245.719 L 2538.01 258.119 L 2540.79 258.119 L 2540.79 259.719 L 2533.03 259.719 L 2533.03 258.119 " fill="#000000"/>
<path class="note" d="M 2623.41 226.956 Q 2623.93 225.616, 2625.17 224.876 Q 2626.41 224.116, 2628.13 224.116 Q 2630.27 224.116, 2631.47 225.276 Q 2632.67 226.436, 2632.67 228.496 Q 2632.67 230.596, 2631.11 232.556 Q 2629.57 234.516, 2626.37 236.836 L 2632.91 236.836 L 2632.91 238.436 L 2623.37 238.436 L 2623.37 237.096 Q 2626.01 235.216, 2627.57 233.816 Q 2629.15 232.416, 2629.91 231.156 Q 2630.67 229.896, 2630.67 228.596 Q 2630.67 227.236, 2629.99 226.476 Q 2629.31 225.716, 2628.13 225.716 Q 2626.99 225.716, 2626.23 226.176 Q 2625.47 226.636, 2624.93 227.656 L 2623.41 226.956 " fill="#000000"/>
<path class="note" d="M 2678.48 84.8722 Q 2679.86 85.2722, 2680.52 86.1722 Q 2681.2 87.0522, 2681.2 88.4522 Q 2681.2 89.6522, 2680.6 90.5922 Q 2680 91.5122, 2678.9 92.0322 Q 2677.8 92.5322, 2676.36 92.5322 Q 2674.84 92.5322, 2673.7 92.0122 Q 2672.58 91.4722, 2671.68 90.3922 L 2672.82 89.2322 Q 2673.7 90.1922, 2674.44 90.5722 Q 2675.18 90.9322, 2676.36 90.9322 Q 2677.64 90.9322, 2678.42 90.2522 Q 2679.2 89.5522, 2679.2 88.4322 Q 2679.2 86.9922, 2678.38 86.3522 Q 2677.58 85.6922, 2675.84 85.6922 L 2674.82 85.6922 L 2674.82 84.2522 L 2675.72 84.2522 Q 2677.26 84.2322, 2678.08 83.5722 Q 2678.9 82.8922, 2678.9 81.6322 Q 2678.9 80.7122, 2678.22 80.1722 Q 2677.54 79.6122, 2676.38 79.6122 Q 2675.2 79.6122, 2674.46 80.0322 Q 2673.74 80.4522, 2673.18 81.5122 L 2671.8 80.7722 Q 2672.3 79.5922, 2673.5 78.8122 Q 2674.7 78.0122, 2676.38 78.0122 Q 2678.46 78.0122, 2679.68 78.9922 Q 2680.9 79.9722, 2680.9 81.6322 Q 2680.9 82.7722, 2680.28 83.5922 Q 2679.66 84.4122, 2678.48 84.8722 " fill="#000000"/>
<path class="note" d="M 2728.26 319.379 L 2729.96 319.379 L 2729.96 320.979 L 2728.26 320.979 L 2728.26 324.239 L 2726.38 324.239 L 2726.38 320.979 L 2719.06 320.979 L 2719.06 319.719 L 2725.26 310.079 L 2728.26 310.079 L 2728.26 319.379 M 2721.38 319.379 L 2726.38 319.379 L 2726.38 311.359 L 2721.38 319.379 " fill="#000000"/>
<path class="note" d="M 2791.18 256.27 Q 2792.42 256.27, 2793.44 256.81 Q 2794.46 257.33, 2795.04 258.33 Q 2795.62 259.31, 2795.62 260.65 Q 2795.62 262.11, 2794.9 263.17 Q 2794.2 264.21, 2793.04 264.75 Q 2791.88 265.29, 2790.56 265.29 Q 2789.26 265.29, 2788.06 264.81 Q 2786.86 264.33, 2786.04 263.41 L 2787.24 262.17 Q 2787.9 262.89, 2788.8 263.29 Q 2789.7 263.67, 2790.62 263.67 Q 2791.88 263.67, 2792.74 262.89 Q 2793.62 262.11, 2793.62 260.69 Q 2793.62 259.19, 2792.74 258.49 Q 2791.88 257.77, 2790.5 257.77 Q 2789.26 257.77, 2787.88 258.31 L 2786.78 257.79 L 2787.46 250.97 L 2794.74 250.97 L 2794.54 252.57 L 2789.1 252.57 L 2788.68 256.77 Q 2789.94 256.27, 2791.18 256.27 " fill="#000000"/>
<path class="note" d="M 2823.66 158.968 Q 2824.9 158.968, 2825.88 159.508 Q 2826.86 160.048, 2827.4 161.028 Q 2827.94 162.008, 2827.94 163.248 Q 2827.94 164.628, 2827.32 165.708 Q 2826.72 166.768, 2825.64 167.368 Q 2824.56 167.968, 2823.18 167.968 Q 2820.66 167.968, 2819.38 166.268 Q 2818.12 164.548, 2818.12 161.148 Q 2818.12 157.388, 2819.68 155.448 Q 2821.26 153.488, 2824.28 153.488 Q 2825.16 153.488, 2825.9 153.688 Q 2826.66 153.888, 2827.38 154.308 L 2826.6 155.648 Q 2825.56 155.088, 2824.3 155.088 Q 2822.3 155.088, 2821.28 156.388 Q 2820.26 157.668, 2820.14 160.328 Q 2820.86 159.668, 2821.76 159.328 Q 2822.68 158.968, 2823.66 158.968 M 2823.2 166.328 Q 2823.96 166.328, 2824.58 165.928 Q 2825.22 165.528, 2825.58 164.828 Q 2825.94 164.128, 2825.94 163.268 Q 2825.94 162.008, 2825.24 161.288 Q 2824.54 160.568, 2823.3 160.568 Q 2822.44 160.568, 2821.58 160.928 Q 2820.74 161.268, 2820.14 161.868 Q 2820.22 164.208, 2820.96 165.268 Q 2821.7 166.328, 2823.2 166.328 " fill="#000000"/>
<path class="note" d="M 2926.21 134.353 L 2918.79 134.353 L 2918.79 132.753 L 2928.19 132.753 L 2928.19 134.173 L 2922.47 146.913 L 2920.55 146.913 L 2926.21 134.353 " fill="#000000"/>
<path class="note" d="M 2980.02 22.3873 Q 2981.32 22.9473, 2982.06 23.7873 Q 2982.8 24.6073, 2982.8 26.0073 Q 2982.8 27.2073, 2982.18 28.1473 Q 2981.56 29.0673, 2980.44 29.5873 Q 2979.34 30.0873, 2977.88 30.0873 Q 2975.52 30.0873, 2974.16 29.0073 Q 2972.8 27.9073, 2972.8 26.0073 Q 2972.8 24.8473, 2973.4 23.9873 Q 2974 23.1073, 2975.24 22.4473 Q 2974.32 21.9273, 2973.82 21.1673 Q 2973.32 20.3873, 2973.32 19.1873 Q 2973.32 17.5273, 2974.52 16.5473 Q 2975.74 15.5673, 2977.8 15.5673 Q 2979.86 15.5673, 2981.06 16.5473 Q 2982.28 17.5273, 2982.28 19.1873 Q 2982.28 20.2273, 2981.7 21.0073 Q 2981.14 21.7673, 2980.02 22.3873 M 2977.8 17.0673 Q 2976.62 17.0673, 2975.96 17.6273 Q 2975.32 18.1873, 2975.32 19.1873 Q 2975.32 19.9273, 2975.76 20.4273 Q 2976.2 20.9073, 2976.82 21.1873 Q 2977.46 21.4673, 2978.68 21.8873 Q 2979.54 21.2873, 2979.9 20.6473 Q 2980.28 20.0073, 2980.28 19.1873 Q 2980.28 18.1873, 2979.62 17.6273 Q 2978.98 17.0673, 2977.8 17.0673 M 2977.88 28.5873 Q 2979.2 28.5873, 2980 27.8873 Q 2980.8 27.1673, 2980.8 25.9873 Q 2980.8 25.2273, 2980.38 24.7473 Q 2979.96 24.2673, 2979.32 23.9873 Q 2978.7 23.7073, 2977.58 23.3473 L 2976.68 23.0473 Q 2975.68 23.6473, 2975.24 24.3673 Q 2974.8 25.0673, 2974.8 25.9873 Q 2974.8 27.1673, 2975.64 27.8873 Q 2976.48 28.5873, 2977.88 28.5873 " fill="#000000"/>
<path class="note" d="M 3019.71 218.556 Q 3022.23 218.556, 3023.49 220.276 Q 3024.77 221.976, 3024.77 225.376 Q 3024.77 229.136, 3023.19 231.096 Q 3021.63 233.036, 3018.61 233.036 Q 3017.73 233.036, 3016.97 232.836 Q 3016.23 232.636, 3015.51 232.216 L 3016.29 230.876 Q 3017.33 231.436, 3018.59 231.436 Q 3020.59 231.436, 3021.61 230.156 Q 3022.63 228.856, 3022.75 226.196 Q 3022.03 226.856, 3021.11 227.216 Q 3020.21 227.556, 3019.23 227.556 Q 3017.99 227.556, 3017.01 227.016 Q 3016.03 226.476, 3015.49 225.496 Q 3014.95 224.516, 3014.95 223.276 Q 3014.95 221.896, 3015.55 220.836 Q 3016.17 219.756, 3017.25 219.156 Q 3018.33 218.556, 3019.71 218.556 M 3016.95 223.256 Q 3016.95 224.516, 3017.65 225.236 Q 3018.35 225.956, 3019.59 225.956 Q 3020.45 225.956, 3021.29 225.616 Q 3022.15 225.256, 3022.75 224.656 Q 3022.67 222.316, 3021.93 221.256 Q 3021.19 220.196, 3019.69 220.196 Q 3018.93 220.196, 3018.29 220.596 Q 3017.67 220.996, 3017.31 221.696 Q 3016.95 222.396, 3016.95 223.256 " fill="#000000"/>
<path class="note" d="M 2968.74 344.912 L 2971.84 344.912 L 2971.84 334.332 L 2968.42 335.392 L 2967.96 334.212 L 2972.3 332.272 L 2973.72 332.512 L 2973.72 344.912 L 2976.5 344.912 L 2976.5 346.512 L 2968.74 346.512 L 2968.74 344.912 " fill="#000000"/>
<path class="note" d="M 2982.9 346.672 Q 2980.3 346.672, 2979 344.752 Q 2977.72 342.832, 2977.72 339.412 Q 2977.72 335.992, 2979 334.092 Q 2980.28 332.192, 2982.9 332.192 Q 2985.52 332.192, 2986.8 334.092 Q 2988.08 335.992, 2988.08 339.412 Q 2988.08 342.832, 2986.78 344.752 Q 2985.5 346.672, 2982.9 346.672 M 2982.9 345.072 Q 2984.44 345.072, 2985.26 343.652 Q 2986.08 342.212, 2986.08 339.412 Q 2986.08 336.632, 2985.26 335.212 Q 2984.44 333.792, 2982.9 333.792 Q 2981.38 333.792, 2980.54 335.212 Q 2979.72 336.632, 2979.72 339.412 Q 2979.72 342.212, 2980.54 343.652 Q 2981.38 345.072, 2982.9 345.072 " fill="#000000"/>
<path class="note" d="M 2841.15 356.392 L 2844.25 356.392 L 2844.25 345.812 L 2840.83 346.872 L 2840.37 345.692 L 2844.71 343.752 L 2846.13 343.992 L 2846.13 356.392 L 2848.91 356.392 L 2848.91 357.992 L 2841.15 357.992 L 2841.15 356.392 " fill="#000000"/>
<path class="note" d="M 2850.77 356.392 L 2853.87 356.392 L 2853.87 345.812 L 2850.45 346.872 L 2849.99 345.692 L 2854.33 343.752 L 2855.75 343.992 L 2855.75 356.392 L 2858.53 356.392 L 2858.53 357.992 L 2850.77 357.992 L 2850.77 356.392 " fill="#000000"/>
<path class="note" d="M 2814.5 482.833 L 2817.6 482.833 L 2817.6 472.253 L 2814.18 473.313 L 2813.72 472.133 L 2818.06 470.193 L 2819.48 470.433 L 2819.48 482.833 L 2822.26 482.833 L 2822.26 484.433 L 2814.5 484.433 L 2814.5 482.833 " fill="#000000"/>
<path class="note" d="M 2823.3 472.953 Q 2823.82 471.613, 2825.06 470.873 Q 2826.3 470.113, 2828.02 470.113 Q 2830.16 470.113, 2831.36 471.273 Q 2832.56 472.433, 2832.56 474.493 Q 2832.56 476.593, 2831 478.553 Q 2829.46 480.513, 2826.26 482.833 L 2832.8 482.833 L 2832.8 484.433 L 2823.26 484.433 L 2823.26 483.093 Q 2825.9 481.213, 2827.46 479.813 Q 2829.04 478.413, 2829.8 477.153 Q 2830.56 475.893, 2830.56 474.593 Q 2830.56 473.233, 2829.88 472.473 Q 2829.2 471.713, 2828.02 471.713 Q 2826.88 471.713, 2826.12 472.173 Q 2825.36 472.633, 2824.82 473.653 L 2823.3 472.953 " fill="#000000"/>
<path d="M 1441.98 247.265 L 1448.03 247.265 L 1448.03 240.897 L 1450.72 240.897 L 1450.72 247.265 L 1456.93 247.265 L 1456.93 249.569 L 1450.72 249.569 L 1450.72 255.969 L 1448.03 255.969 L 1448.03 249.569 L 1441.98 249.569 L 1441.98 247.265 " fill="#000000"/>
<path d="M 2180.55,249.569 L 2381.14,249.569" style="fill:none;fill-rule:evenodd;stroke:#000000;stroke-width:2.0px;stroke-linecap:butt;stroke-linejoin:miter;stroke-opacity:1"/>
<path d="M 2381.14,249.569 L 2372.45,244.554" style="fill:none;fill-rule:evenodd;stroke:#000000;stroke-width:2.0px;stroke-linecap:butt;stroke-linejoin:miter;stroke-opacity:1"/>
<path d="M 2381.14,249.569 L 2372.45,254.584" style="fill:none;fill-rule:evenodd;stroke:#000000;stroke-width:2.0px;stroke-linecap:butt;stroke-linejoin:miter;stroke-opacity:1"/>
</svg>