<svg xmlns="http://www.w3.org/2000/svg" xmlns:rdkit="http://www.rdkit.org/xml" xmlns:xlink="http://www.w3.org/1999/xlink" version="1.1" baseProfile="full" xml:space="preserve" width="4000px" height="500px" viewBox="0 0 4000 500">
<!-- END OF HEADER -->
<rect style="opacity:1.0;fill:#FFFFFF;stroke:none" width="4000" height="500" x="0" y="0"> </rect>
<path d="M 1139.29,417.175 L 1187.8,343.057" style="fill:none;fill-rule:evenodd;stroke:#FFFFAA;stroke-width:18.9px;stroke-linecap:butt;stroke-linejoin:miter;stroke-opacity:1"/>
<path d="M 1187.8,343.057 L 1147.87,263.981" style="fill:none;fill-rule:evenodd;stroke:#FFFFAA;stroke-width:18.9px;stroke-linecap:butt;stroke-linejoin:miter;stroke-opacity:1"/>
<path d="M 1187.8,343.057 L 1276.25,348.015" style="fill:none;fill-rule:evenodd;stroke:#FFFFAA;stroke-width:18.9px;stroke-linecap:butt;stroke-linejoin:miter;stroke-opacity:1"/>
<path d="M 1147.87,263.981 L 1059.43,259.022" style="fill:none;fill-rule:evenodd;stroke:#FFFFAA;stroke-width:18.9px;stroke-linecap:butt;stroke-linejoin:miter;stroke-opacity:1"/>
<path d="M 1147.87,263.981 L 1196.39,189.863" style="fill:none;fill-rule:evenodd;stroke:#FFFFAA;stroke-width:18.9px;stroke-linecap:butt;stroke-linejoin:miter;stroke-opacity:1"/>
<path d="M 1059.43,259.022 L 1019.5,179.946" style="fill:none;fill-rule:evenodd;stroke:#FFFFAA;stroke-width:18.9px;stroke-linecap:butt;stroke-linejoin:miter;stroke-opacity:1"/>
<path d="M 1059.43,259.022 L 1010.91,333.14" style="fill:none;fill-rule:evenodd;stroke:#FFFFAA;stroke-width:18.9px;stroke-linecap:butt;stroke-linejoin:miter;stroke-opacity:1"/>
<path d="M 1196.39,189.863 L 1284.84,194.821" style="fill:none;fill-rule:evenodd;stroke:#FFFFAA;stroke-width:18.9px;stroke-linecap:butt;stroke-linejoin:miter;stroke-opacity:1"/>
<path d="M 1284.84,194.821 L 1324.77,273.897" style="fill:none;fill-rule:evenodd;stroke:#FFFFAA;stroke-width:18.9px;stroke-linecap:butt;stroke-linejoin:miter;stroke-opacity:1"/>
<path d="M 1324.77,273.897 L 1413.21,278.855" style="fill:none;fill-rule:evenodd;stroke:#FFFFAA;stroke-width:18.9px;stroke-linecap:butt;stroke-linejoin:miter;stroke-opacity:1"/>
<path d="M 1324.77,273.897 L 1276.25,348.015" style="fill:none;fill-rule:evenodd;stroke:#FFFFAA;stroke-width:18.9px;stroke-linecap:butt;stroke-linejoin:miter;stroke-opacity:1"/>
<path d="M 1930.07,280.161 L 1841.48,280.161" style="fill:none;fill-rule:evenodd;stroke:#FFCC99;stroke-width:18.9px;stroke-linecap:butt;stroke-linejoin:miter;stroke-opacity:1"/>
<path d="M 1841.48,280.161 L 1797.19,356.878" style="fill:none;fill-rule:evenodd;stroke:#FFCC99;stroke-width:18.9px;stroke-linecap:butt;stroke-linejoin:miter;stroke-opacity:1"/>
<path d="M 1841.48,280.161 L 1797.19,203.444" style="fill:none;fill-rule:evenodd;stroke:#FFCC99;stroke-width:18.9px;stroke-linecap:butt;stroke-linejoin:miter;stroke-opacity:1"/>
<path d="M 1797.19,356.878 L 1708.61,356.878" style="fill:none;fill-rule:evenodd;stroke:#FFCC99;stroke-width:18.9px;stroke-linecap:butt;stroke-linejoin:miter;stroke-opacity:1"/>
<path d="M 1708.61,356.878 L 1664.31,280.161" style="fill:none;fill-rule:evenodd;stroke:#FFCC99;stroke-width:18.9px;stroke-linecap:butt;stroke-linejoin:miter;stroke-opacity:1"/>
<path d="M 1664.31,280.161 L 1708.61,203.444" style="fill:none;fill-rule:evenodd;stroke:#FFCC99;stroke-width:18.9px;stroke-linecap:butt;stroke-linejoin:miter;stroke-opacity:1"/>
<path d="M 1708.61,203.444 L 1797.19,203.444" style="fill:none;fill-rule:evenodd;stroke:#FFCC99;stroke-width:18.9px;stroke-linecap:butt;stroke-linejoin:miter;stroke-opacity:1"/>
<path d="M 2473.08,424.886 L 2557.45,397.868" style="fill:none;fill-rule:evenodd;stroke:#FFFFAA;stroke-width:18.9px;stroke-linecap:butt;stroke-linejoin:miter;stroke-opacity:1"/>
<path d="M 2557.45,397.868 L 2623.03,457.422" style="fill:none;fill-rule:evenodd;stroke:#FFFFAA;stroke-width:18.9px;stroke-linecap:butt;stroke-linejoin:miter;stroke-opacity:1"/>
<path d="M 2557.45,397.868 L 2576.23,311.297" style="fill:none;fill-rule:evenodd;stroke:#FFFFAA;stroke-width:18.9px;stroke-linecap:butt;stroke-linejoin:miter;stroke-opacity:1"/>
<path d="M 2576.23,311.297 L 2510.65,251.744" style="fill:none;fill-rule:evenodd;stroke:#FFFFAA;stroke-width:18.9px;stroke-linecap:butt;stroke-linejoin:miter;stroke-opacity:1"/>
<path d="M 2576.23,311.297 L 2660.6,284.28" style="fill:none;fill-rule:evenodd;stroke:#FFFFAA;stroke-width:18.9px;stroke-linecap:butt;stroke-linejoin:miter;stroke-opacity:1"/>
<path d="M 2510.65,251.744 L 2529.44,165.173" style="fill:none;fill-rule:evenodd;stroke:#FFFFAA;stroke-width:18.9px;stroke-linecap:butt;stroke-linejoin:miter;stroke-opacity:1"/>
<path d="M 2529.44,165.173 L 2613.8,138.155" style="fill:none;fill-rule:evenodd;stroke:#FFFFAA;stroke-width:18.9px;stroke-linecap:butt;stroke-linejoin:miter;stroke-opacity:1"/>
<path d="M 2613.8,138.155 L 2632.59,51.5843" style="fill:none;fill-rule:evenodd;stroke:#FFFFAA;stroke-width:18.9px;stroke-linecap:butt;stroke-linejoin:miter;stroke-opacity:1"/>
<path d="M 2613.8,138.155 L 2679.38,197.709" style="fill:none;fill-rule:evenodd;stroke:#FFFFAA;stroke-width:18.9px;stroke-linecap:butt;stroke-linejoin:miter;stroke-opacity:1"/>
<path d="M 2679.38,197.709 L 2660.6,284.28" style="fill:none;fill-rule:evenodd;stroke:#FFFFAA;stroke-width:18.9px;stroke-linecap:butt;stroke-linejoin:miter;stroke-opacity:1"/>
<path d="M 2726.18,343.833 L 2810.54,316.815" style="fill:none;fill-rule:evenodd;stroke:#FFCC99;stroke-width:18.9px;stroke-linecap:butt;stroke-linejoin:miter;stroke-opacity:1"/>
<path d="M 2810.54,316.815 L 2876.12,376.369" style="fill:none;fill-rule:evenodd;stroke:#FFCC99;stroke-width:18.9px;stroke-linecap:butt;stroke-linejoin:miter;stroke-opacity:1"/>
<path d="M 2810.54,316.815 L 2829.33,230.244" style="fill:none;fill-rule:evenodd;stroke:#FFCC99;stroke-width:18.9px;stroke-linecap:butt;stroke-linejoin:miter;stroke-opacity:1"/>
<path d="M 2876.12,376.369 L 2960.49,349.351" style="fill:none;fill-rule:evenodd;stroke:#FFCC99;stroke-width:18.9px;stroke-linecap:butt;stroke-linejoin:miter;stroke-opacity:1"/>
<path d="M 2960.49,349.351 L 2979.27,262.78" style="fill:none;fill-rule:evenodd;stroke:#FFCC99;stroke-width:18.9px;stroke-linecap:butt;stroke-linejoin:miter;stroke-opacity:1"/>
<path d="M 2979.27,262.78 L 2913.69,203.227" style="fill:none;fill-rule:evenodd;stroke:#FFCC99;stroke-width:18.9px;stroke-linecap:butt;stroke-linejoin:miter;stroke-opacity:1"/>
<path d="M 2913.69,203.227 L 2829.33,230.244" style="fill:none;fill-rule:evenodd;stroke:#FFCC99;stroke-width:18.9px;stroke-linecap:butt;stroke-linejoin:miter;stroke-opacity:1"/>
<ellipse cx="1187.8" cy="343.057" rx="17.7171" ry="17.7171" style="fill:#FFFFAA;fill-rule:evenodd;stroke:#FFFFAA;stroke-width:1px;stroke-linecap:butt;stroke-linejoin:miter;stroke-opacity:1"/>
<ellipse cx="1147.87" cy="263.981" rx="17.7171" ry="17.7171" style="fill:#FFFFAA;fill-rule:evenodd;stroke:#FFFFAA;stroke-width:1px;stroke-linecap:butt;stroke-linejoin:miter;stroke-opacity:1"/>
<ellipse cx="1065.94" cy="258.956" rx="22.666" ry="17.8327" style="fill:#FFFFAA;fill-rule:evenodd;stroke:#FFFFAA;stroke-width:1px;stroke-linecap:butt;stroke-linejoin:miter;stroke-opacity:1"/>
<ellipse cx="1019.5" cy="180.141" rx="17.7171" ry="18.2155" style="fill:#FFFFAA;fill-rule:evenodd;stroke:#FFFFAA;stroke-width:1px;stroke-linecap:butt;stroke-linejoin:miter;stroke-opacity:1"/>
<ellipse cx="1015.79" cy="333.335" rx="23.1821" ry="18.2155" style="fill:#FFFFAA;fill-rule:evenodd;stroke:#FFFFAA;stroke-width:1px;stroke-linecap:butt;stroke-linejoin:miter;stroke-opacity:1"/>
<ellipse cx="1196.39" cy="189.863" rx="17.7171" ry="17.7171" style="fill:#FFFFAA;fill-rule:evenodd;stroke:#FFFFAA;stroke-width:1px;stroke-linecap:butt;stroke-linejoin:miter;stroke-opacity:1"/>
<ellipse cx="1284.84" cy="194.821" rx="17.7171" ry="17.7171" style="fill:#FFFFAA;fill-rule:evenodd;stroke:#FFFFAA;stroke-width:1px;stroke-linecap:butt;stroke-linejoin:miter;stroke-opacity:1"/>
<ellipse cx="1324.77" cy="273.897" rx="17.7171" ry="17.7171" style="fill:#FFFFAA;fill-rule:evenodd;stroke:#FFFFAA;stroke-width:1px;stroke-linecap:butt;stroke-linejoin:miter;stroke-opacity:1"/>
<ellipse cx="1424.54" cy="279.05" rx="32.2969" ry="18.2155" style="fill:#FFFFAA;fill-rule:evenodd;stroke:#FFFFAA;stroke-width:1px;stroke-linecap:butt;stroke-linejoin:miter;stroke-opacity:1"/>
<ellipse cx="1276.25" cy="348.015" rx="17.7171" ry="17.7171" style="fill:#FFFFAA;fill-rule:evenodd;stroke:#FFFFAA;stroke-width:1px;stroke-linecap:butt;stroke-linejoin:miter;stroke-opacity:1"/>
<ellipse cx="1947.55" cy="286.433" rx="38.1805" ry="26.6092" style="fill:#FFCC99;fill-rule:evenodd;stroke:#FFCC99;stroke-width:1px;stroke-linecap:butt;stroke-linejoin:miter;stroke-opacity:1"/>
<ellipse cx="1841.48" cy="280.161" rx="17.7171" ry="17.7171" style="fill:#FFCC99;fill-rule:evenodd;stroke:#FFCC99;stroke-width:1px;stroke-linecap:butt;stroke-linejoin:miter;stroke-opacity:1"/>
<ellipse cx="1797.19" cy="356.878" rx="17.7171" ry="17.7171" style="fill:#FFCC99;fill-rule:evenodd;stroke:#FFCC99;stroke-width:1px;stroke-linecap:butt;stroke-linejoin:miter;stroke-opacity:1"/>
<ellipse cx="1708.61" cy="356.878" rx="17.7171" ry="17.7171" style="fill:#FFCC99;fill-rule:evenodd;stroke:#FFCC99;stroke-width:1px;stroke-linecap:butt;stroke-linejoin:miter;stroke-opacity:1"/>
<ellipse cx="1664.31" cy="280.161" rx="17.7171" ry="17.7171" style="fill:#FFCC99;fill-rule:evenodd;stroke:#FFCC99;stroke-width:1px;stroke-linecap:butt;stroke-linejoin:miter;stroke-opacity:1"/>
<ellipse cx="1708.61" cy="203.444" rx="17.7171" ry="17.7171" style="fill:#FFCC99;fill-rule:evenodd;stroke:#FFCC99;stroke-width:1px;stroke-linecap:butt;stroke-linejoin:miter;stroke-opacity:1"/>
<ellipse cx="1797.19" cy="203.444" rx="17.7171" ry="17.7171" style="fill:#FFCC99;fill-rule:evenodd;stroke:#FFCC99;stroke-width:1px;stroke-linecap:butt;stroke-linejoin:miter;stroke-opacity:1"/>
<ellipse cx="2473.08" cy="425.081" rx="17.7171" ry="18.2155" style="fill:#FFFFAA;fill-rule:evenodd;stroke:#FFFFAA;stroke-width:1px;stroke-linecap:butt;stroke-linejoin:miter;stroke-opacity:1"/>
<ellipse cx="2563.96" cy="397.802" rx="22.666" ry="17.8327" style="fill:#FFFFAA;fill-rule:evenodd;stroke:#FFFFAA;stroke-width:1px;stroke-linecap:butt;stroke-linejoin:miter;stroke-opacity:1"/>
<ellipse cx="2627.91" cy="457.616" rx="23.1821" ry="18.2155" style="fill:#FFFFAA;fill-rule:evenodd;stroke:#FFFFAA;stroke-width:1px;stroke-linecap:butt;stroke-linejoin:miter;stroke-opacity:1"/>
<ellipse cx="2576.23" cy="311.297" rx="17.7171" ry="17.7171" style="fill:#FFFFAA;fill-rule:evenodd;stroke:#FFFFAA;stroke-width:1px;stroke-linecap:butt;stroke-linejoin:miter;stroke-opacity:1"/>
<ellipse cx="2510.65" cy="251.744" rx="17.7171" ry="17.7171" style="fill:#FFFFAA;fill-rule:evenodd;stroke:#FFFFAA;stroke-width:1px;stroke-linecap:butt;stroke-linejoin:miter;stroke-opacity:1"/>
<ellipse cx="2529.44" cy="165.173" rx="17.7171" ry="17.7171" style="fill:#FFFFAA;fill-rule:evenodd;stroke:#FFFFAA;stroke-width:1px;stroke-linecap:butt;stroke-linejoin:miter;stroke-opacity:1"/>
<ellipse cx="2613.8" cy="138.155" rx="17.7171" ry="17.7171" style="fill:#FFFFAA;fill-rule:evenodd;stroke:#FFFFAA;stroke-width:1px;stroke-linecap:butt;stroke-linejoin:miter;stroke-opacity:1"/>
<ellipse cx="2643.91" cy="51.7792" rx="32.2969" ry="18.2155" style="fill:#FFFFAA;fill-rule:evenodd;stroke:#FFFFAA;stroke-width:1px;stroke-linecap:butt;stroke-linejoin:miter;stroke-opacity:1"/>
<ellipse cx="2679.38" cy="197.709" rx="17.7171" ry="17.7171" style="fill:#FFFFAA;fill-rule:evenodd;stroke:#FFFFAA;stroke-width:1px;stroke-linecap:butt;stroke-linejoin:miter;stroke-opacity:1"/>
<ellipse cx="2660.6" cy="284.28" rx="17.7171" ry="17.7171" style="fill:#FFFFAA;fill-rule:evenodd;stroke:#FFFFAA;stroke-width:1px;stroke-linecap:butt;stroke-linejoin:miter;stroke-opacity:1"/>
<ellipse cx="2726.18" cy="357.631" rx="17.7171" ry="37.2529" style="fill:#FFCC99;fill-rule:evenodd;stroke:#FFCC99;stroke-width:1px;stroke-linecap:butt;stroke-linejoin:miter;stroke-opacity:1"/>
<ellipse cx="2810.54" cy="316.815" rx="17.7171" ry="17.7171" style="fill:#FFCC99;fill-rule:evenodd;stroke:#FFCC99;stroke-width:1px;stroke-linecap:butt;stroke-linejoin:miter;stroke-opacity:1"/>
<ellipse cx="2876.12" cy="376.369" rx="17.7171" ry="17.7171" style="fill:#FFCC99;fill-rule:evenodd;stroke:#FFCC99;stroke-width:1px;stroke-linecap:butt;stroke-linejoin:miter;stroke-opacity:1"/>
<ellipse cx="2960.49" cy="349.351" rx="17.7171" ry="17.7171" style="fill:#FFCC99;fill-rule:evenodd;stroke:#FFCC99;stroke-width:1px;stroke-linecap:butt;stroke-linejoin:miter;stroke-opacity:1"/>
<ellipse cx="2979.27" cy="262.78" rx="17.7171" ry="17.7171" style="fill:#FFCC99;fill-rule:evenodd;stroke:#FFCC99;stroke-width:1px;stroke-linecap:butt;stroke-linejoin:miter;stroke-opacity:1"/>
<ellipse cx="2913.69" cy="203.227" rx="17.7171" ry="17.7171" style="fill:#FFCC99;fill-rule:evenodd;stroke:#FFCC99;stroke-width:1px;stroke-linecap:butt;stroke-linejoin:miter;stroke-opacity:1"/>
<ellipse cx="2829.33" cy="230.244" rx="17.7171" ry="17.7171" style="fill:#FFCC99;fill-rule:evenodd;stroke:#FFCC99;stroke-width:1px;stroke-linecap:butt;stroke-linejoin:miter;stroke-opacity:1"/>
<path class="bond-0" d="M 1148.95,402.416 L 1168.38,372.736" style="fill:none;fill-rule:evenodd;stroke:#33CCCC;stroke-width:2.0px;stroke-linecap:butt;stroke-linejoin:miter;stroke-opacity:1"/>
<path class="bond-0" d="M 1168.38,372.736 L 1187.8,343.057" style="fill:none;fill-rule:evenodd;stroke:#000000;stroke-width:2.0px;stroke-linecap:butt;stroke-linejoin:miter;stroke-opacity:1"/>
<path class="bond-1" d="M 1187.8,343.057 L 1147.87,263.981" style="fill:none;fill-rule:evenodd;stroke:#000000;stroke-width:2.0px;stroke-linecap:butt;stroke-linejoin:miter;stroke-opacity:1"/>
<path class="bond-1" d="M 1197.63,323.209 L 1169.68,267.856" style="fill:none;fill-rule:evenodd;stroke:#000000;stroke-width:2.0px;stroke-linecap:butt;stroke-linejoin:miter;stroke-opacity:1;stroke-dasharray:6,6"/>
<path class="bond-10" d="M 1187.8,343.057 L 1276.25,348.015" style="fill:none;fill-rule:evenodd;stroke:#000000;stroke-width:2.0px;stroke-linecap:butt;stroke-linejoin:miter;stroke-opacity:1"/>
<path class="bond-10" d="M 1202.06,326.111 L 1263.98,329.582" style="fill:none;fill-rule:evenodd;stroke:#000000;stroke-width:2.0px;stroke-linecap:butt;stroke-linejoin:miter;stroke-opacity:1;stroke-dasharray:6,6"/>
<path class="bond-2" d="M 1147.87,263.981 L 1109.52,261.83" style="fill:none;fill-rule:evenodd;stroke:#000000;stroke-width:2.0px;stroke-linecap:butt;stroke-linejoin:miter;stroke-opacity:1"/>
<path class="bond-2" d="M 1109.52,261.83 L 1071.16,259.68" style="fill:none;fill-rule:evenodd;stroke:#0000FF;stroke-width:2.0px;stroke-linecap:butt;stroke-linejoin:miter;stroke-opacity:1"/>
<path class="bond-5" d="M 1147.87,263.981 L 1196.39,189.863" style="fill:none;fill-rule:evenodd;stroke:#000000;stroke-width:2.0px;stroke-linecap:butt;stroke-linejoin:miter;stroke-opacity:1"/>
<path class="bond-5" d="M 1169.98,262.566 L 1203.94,210.684" style="fill:none;fill-rule:evenodd;stroke:#000000;stroke-width:2.0px;stroke-linecap:butt;stroke-linejoin:miter;stroke-opacity:1;stroke-dasharray:6,6"/>
<path class="bond-3" d="M 1059.88,240.271 L 1047.4,215.55" style="fill:none;fill-rule:evenodd;stroke:#0000FF;stroke-width:2.0px;stroke-linecap:butt;stroke-linejoin:miter;stroke-opacity:1"/>
<path class="bond-3" d="M 1047.4,215.55 L 1034.92,190.83" style="fill:none;fill-rule:evenodd;stroke:#FF0000;stroke-width:2.0px;stroke-linecap:butt;stroke-linejoin:miter;stroke-opacity:1"/>
<path class="bond-3" d="M 1044.07,248.257 L 1031.59,223.536" style="fill:none;fill-rule:evenodd;stroke:#0000FF;stroke-width:2.0px;stroke-linecap:butt;stroke-linejoin:miter;stroke-opacity:1"/>
<path class="bond-3" d="M 1031.59,223.536 L 1019.1,198.816" style="fill:none;fill-rule:evenodd;stroke:#FF0000;stroke-width:2.0px;stroke-linecap:butt;stroke-linejoin:miter;stroke-opacity:1"/>
<path class="bond-4" d="M 1049.77,273.781 L 1035.07,296.231" style="fill:none;fill-rule:evenodd;stroke:#0000FF;stroke-width:2.0px;stroke-linecap:butt;stroke-linejoin:miter;stroke-opacity:1"/>
<path class="bond-4" d="M 1035.07,296.231 L 1020.38,318.681" style="fill:none;fill-rule:evenodd;stroke:#FF0000;stroke-width:2.0px;stroke-linecap:butt;stroke-linejoin:miter;stroke-opacity:1"/>
<path class="bond-6" d="M 1196.39,189.863 L 1284.84,194.821" style="fill:none;fill-rule:evenodd;stroke:#000000;stroke-width:2.0px;stroke-linecap:butt;stroke-linejoin:miter;stroke-opacity:1"/>
<path class="bond-6" d="M 1208.67,208.296 L 1270.58,211.766" style="fill:none;fill-rule:evenodd;stroke:#000000;stroke-width:2.0px;stroke-linecap:butt;stroke-linejoin:miter;stroke-opacity:1;stroke-dasharray:6,6"/>
<path class="bond-7" d="M 1284.84,194.821 L 1324.77,273.897" style="fill:none;fill-rule:evenodd;stroke:#000000;stroke-width:2.0px;stroke-linecap:butt;stroke-linejoin:miter;stroke-opacity:1"/>
<path class="bond-7" d="M 1275.01,214.668 L 1302.96,270.021" style="fill:none;fill-rule:evenodd;stroke:#000000;stroke-width:2.0px;stroke-linecap:butt;stroke-linejoin:miter;stroke-opacity:1;stroke-dasharray:6,6"/>
<path class="bond-8" d="M 1324.77,273.897 L 1362.13,275.991" style="fill:none;fill-rule:evenodd;stroke:#000000;stroke-width:2.0px;stroke-linecap:butt;stroke-linejoin:miter;stroke-opacity:1"/>
<path class="bond-8" d="M 1362.13,275.991 L 1399.48,278.085" style="fill:none;fill-rule:evenodd;stroke:#FF0000;stroke-width:2.0px;stroke-linecap:butt;stroke-linejoin:miter;stroke-opacity:1"/>
<path class="bond-9" d="M 1324.77,273.897 L 1276.25,348.015" style="fill:none;fill-rule:evenodd;stroke:#000000;stroke-width:2.0px;stroke-linecap:butt;stroke-linejoin:miter;stroke-opacity:1"/>
<path class="bond-9" d="M 1302.67,275.311 L 1268.7,327.194" style="fill:none;fill-rule:evenodd;stroke:#000000;stroke-width:2.0px;stroke-linecap:butt;stroke-linejoin:miter;stroke-opacity:1;stroke-dasharray:6,6"/>
<path class="bond-11" d="M 1918.34,280.161 L 1879.91,280.161" style="fill:none;fill-rule:evenodd;stroke:#0000FF;stroke-width:2.0px;stroke-linecap:butt;stroke-linejoin:miter;stroke-opacity:1"/>
<path class="bond-11" d="M 1879.91,280.161 L 1841.48,280.161" style="fill:none;fill-rule:evenodd;stroke:#000000;stroke-width:2.0px;stroke-linecap:butt;stroke-linejoin:miter;stroke-opacity:1"/>
<path class="bond-12" d="M 1841.48,280.161 L 1797.19,356.878" style="fill:none;fill-rule:evenodd;stroke:#000000;stroke-width:2.0px;stroke-linecap:butt;stroke-linejoin:miter;stroke-opacity:1"/>
<path class="bond-12" d="M 1819.5,282.81 L 1788.49,336.512" style="fill:none;fill-rule:evenodd;stroke:#000000;stroke-width:2.0px;stroke-linecap:butt;stroke-linejoin:miter;stroke-opacity:1;stroke-dasharray:6,6"/>
<path class="bond-17" d="M 1841.48,280.161 L 1797.19,203.444" style="fill:none;fill-rule:evenodd;stroke:#000000;stroke-width:2.0px;stroke-linecap:butt;stroke-linejoin:miter;stroke-opacity:1"/>
<path class="bond-17" d="M 1819.5,277.512 L 1788.49,223.81" style="fill:none;fill-rule:evenodd;stroke:#000000;stroke-width:2.0px;stroke-linecap:butt;stroke-linejoin:miter;stroke-opacity:1;stroke-dasharray:6,6"/>
<path class="bond-13" d="M 1797.19,356.878 L 1708.61,356.878" style="fill:none;fill-rule:evenodd;stroke:#000000;stroke-width:2.0px;stroke-linecap:butt;stroke-linejoin:miter;stroke-opacity:1"/>
<path class="bond-13" d="M 1783.9,339.161 L 1721.89,339.161" style="fill:none;fill-rule:evenodd;stroke:#000000;stroke-width:2.0px;stroke-linecap:butt;stroke-linejoin:miter;stroke-opacity:1;stroke-dasharray:6,6"/>
<path class="bond-14" d="M 1708.61,356.878 L 1664.31,280.161" style="fill:none;fill-rule:evenodd;stroke:#000000;stroke-width:2.0px;stroke-linecap:butt;stroke-linejoin:miter;stroke-opacity:1"/>
<path class="bond-14" d="M 1717.31,336.512 L 1686.3,282.81" style="fill:none;fill-rule:evenodd;stroke:#000000;stroke-width:2.0px;stroke-linecap:butt;stroke-linejoin:miter;stroke-opacity:1;stroke-dasharray:6,6"/>
<path class="bond-15" d="M 1664.31,280.161 L 1708.61,203.444" style="fill:none;fill-rule:evenodd;stroke:#000000;stroke-width:2.0px;stroke-linecap:butt;stroke-linejoin:miter;stroke-opacity:1"/>
<path class="bond-15" d="M 1686.3,277.512 L 1717.31,223.81" style="fill:none;fill-rule:evenodd;stroke:#000000;stroke-width:2.0px;stroke-linecap:butt;stroke-linejoin:miter;stroke-opacity:1;stroke-dasharray:6,6"/>
<path class="bond-16" d="M 1708.61,203.444 L 1797.19,203.444" style="fill:none;fill-rule:evenodd;stroke:#000000;stroke-width:2.0px;stroke-linecap:butt;stroke-linejoin:miter;stroke-opacity:1"/>
<path class="bond-16" d="M 1721.89,221.161 L 1783.9,221.161" style="fill:none;fill-rule:evenodd;stroke:#000000;stroke-width:2.0px;stroke-linecap:butt;stroke-linejoin:miter;stroke-opacity:1;stroke-dasharray:6,6"/>
<path class="bond-18" d="M 2489.52,428.925 L 2519.15,419.435" style="fill:none;fill-rule:evenodd;stroke:#FF0000;stroke-width:2.0px;stroke-linecap:butt;stroke-linejoin:miter;stroke-opacity:1"/>
<path class="bond-18" d="M 2519.15,419.435 L 2548.78,409.945" style="fill:none;fill-rule:evenodd;stroke:#0000FF;stroke-width:2.0px;stroke-linecap:butt;stroke-linejoin:miter;stroke-opacity:1"/>
<path class="bond-18" d="M 2484.11,412.052 L 2513.75,402.562" style="fill:none;fill-rule:evenodd;stroke:#FF0000;stroke-width:2.0px;stroke-linecap:butt;stroke-linejoin:miter;stroke-opacity:1"/>
<path class="bond-18" d="M 2513.75,402.562 L 2543.38,393.072" style="fill:none;fill-rule:evenodd;stroke:#0000FF;stroke-width:2.0px;stroke-linecap:butt;stroke-linejoin:miter;stroke-opacity:1"/>
<path class="bond-19" d="M 2569.18,408.519 L 2589.44,426.916" style="fill:none;fill-rule:evenodd;stroke:#0000FF;stroke-width:2.0px;stroke-linecap:butt;stroke-linejoin:miter;stroke-opacity:1"/>
<path class="bond-19" d="M 2589.44,426.916 L 2609.69,445.312" style="fill:none;fill-rule:evenodd;stroke:#FF0000;stroke-width:2.0px;stroke-linecap:butt;stroke-linejoin:miter;stroke-opacity:1"/>
<path class="bond-20" d="M 2560.65,383.11 L 2568.44,347.204" style="fill:none;fill-rule:evenodd;stroke:#0000FF;stroke-width:2.0px;stroke-linecap:butt;stroke-linejoin:miter;stroke-opacity:1"/>
<path class="bond-20" d="M 2568.44,347.204 L 2576.23,311.297" style="fill:none;fill-rule:evenodd;stroke:#000000;stroke-width:2.0px;stroke-linecap:butt;stroke-linejoin:miter;stroke-opacity:1"/>
<path class="bond-21" d="M 2576.23,311.297 L 2510.65,251.744" style="fill:none;fill-rule:evenodd;stroke:#000000;stroke-width:2.0px;stroke-linecap:butt;stroke-linejoin:miter;stroke-opacity:1"/>
<path class="bond-21" d="M 2578.31,289.248 L 2532.4,247.561" style="fill:none;fill-rule:evenodd;stroke:#000000;stroke-width:2.0px;stroke-linecap:butt;stroke-linejoin:miter;stroke-opacity:1;stroke-dasharray:6,6"/>
<path class="bond-34" d="M 2576.23,311.297 L 2660.6,284.28" style="fill:none;fill-rule:evenodd;stroke:#000000;stroke-width:2.0px;stroke-linecap:butt;stroke-linejoin:miter;stroke-opacity:1"/>
<path class="bond-34" d="M 2583.48,290.372 L 2642.54,271.459" style="fill:none;fill-rule:evenodd;stroke:#000000;stroke-width:2.0px;stroke-linecap:butt;stroke-linejoin:miter;stroke-opacity:1;stroke-dasharray:6,6"/>
<path class="bond-22" d="M 2510.65,251.744 L 2529.44,165.173" style="fill:none;fill-rule:evenodd;stroke:#000000;stroke-width:2.0px;stroke-linecap:butt;stroke-linejoin:miter;stroke-opacity:1"/>
<path class="bond-22" d="M 2530.78,242.515 L 2543.93,181.915" style="fill:none;fill-rule:evenodd;stroke:#000000;stroke-width:2.0px;stroke-linecap:butt;stroke-linejoin:miter;stroke-opacity:1;stroke-dasharray:6,6"/>
<path class="bond-23" d="M 2529.44,165.173 L 2613.8,138.155" style="fill:none;fill-rule:evenodd;stroke:#000000;stroke-width:2.0px;stroke-linecap:butt;stroke-linejoin:miter;stroke-opacity:1"/>
<path class="bond-23" d="M 2547.5,177.993 L 2606.55,159.081" style="fill:none;fill-rule:evenodd;stroke:#000000;stroke-width:2.0px;stroke-linecap:butt;stroke-linejoin:miter;stroke-opacity:1;stroke-dasharray:6,6"/>
<path class="bond-24" d="M 2613.8,138.155 L 2621.54,102.515" style="fill:none;fill-rule:evenodd;stroke:#000000;stroke-width:2.0px;stroke-linecap:butt;stroke-linejoin:miter;stroke-opacity:1"/>
<path class="bond-24" d="M 2621.54,102.515 L 2629.27,66.8741" style="fill:none;fill-rule:evenodd;stroke:#FF0000;stroke-width:2.0px;stroke-linecap:butt;stroke-linejoin:miter;stroke-opacity:1"/>
<path class="bond-25" d="M 2613.8,138.155 L 2679.38,197.709" style="fill:none;fill-rule:evenodd;stroke:#000000;stroke-width:2.0px;stroke-linecap:butt;stroke-linejoin:miter;stroke-opacity:1"/>
<path class="bond-25" d="M 2611.73,160.204 L 2657.64,201.892" style="fill:none;fill-rule:evenodd;stroke:#000000;stroke-width:2.0px;stroke-linecap:butt;stroke-linejoin:miter;stroke-opacity:1;stroke-dasharray:6,6"/>
<path class="bond-26" d="M 2679.38,197.709 L 2660.6,284.28" style="fill:none;fill-rule:evenodd;stroke:#000000;stroke-width:2.0px;stroke-linecap:butt;stroke-linejoin:miter;stroke-opacity:1"/>
<path class="bond-26" d="M 2659.25,206.937 L 2646.1,267.537" style="fill:none;fill-rule:evenodd;stroke:#000000;stroke-width:2.0px;stroke-linecap:butt;stroke-linejoin:miter;stroke-opacity:1;stroke-dasharray:6,6"/>
<path class="bond-27" d="M 2660.6,284.28 L 2687.52,308.731" style="fill:none;fill-rule:evenodd;stroke:#000000;stroke-width:2.0px;stroke-linecap:butt;stroke-linejoin:miter;stroke-opacity:1"/>
<path class="bond-27" d="M 2687.52,308.731 L 2714.45,333.182" style="fill:none;fill-rule:evenodd;stroke:#0000FF;stroke-width:2.0px;stroke-linecap:butt;stroke-linejoin:miter;stroke-opacity:1"/>
<path class="bond-28" d="M 2737.91,340.077 L 2774.23,328.446" style="fill:none;fill-rule:evenodd;stroke:#0000FF;stroke-width:2.0px;stroke-linecap:butt;stroke-linejoin:miter;stroke-opacity:1"/>
<path class="bond-28" d="M 2774.23,328.446 L 2810.54,316.815" style="fill:none;fill-rule:evenodd;stroke:#000000;stroke-width:2.0px;stroke-linecap:butt;stroke-linejoin:miter;stroke-opacity:1"/>
<path class="bond-29" d="M 2810.54,316.815 L 2876.12,376.369" style="fill:none;fill-rule:evenodd;stroke:#000000;stroke-width:2.0px;stroke-linecap:butt;stroke-linejoin:miter;stroke-opacity:1"/>
<path class="bond-29" d="M 2832.29,312.632 L 2878.2,354.32" style="fill:none;fill-rule:evenodd;stroke:#000000;stroke-width:2.0px;stroke-linecap:butt;stroke-linejoin:miter;stroke-opacity:1;stroke-dasharray:6,6"/>
<path class="bond-35" d="M 2810.54,316.815 L 2829.33,230.244" style="fill:none;fill-rule:evenodd;stroke:#000000;stroke-width:2.0px;stroke-linecap:butt;stroke-linejoin:miter;stroke-opacity:1"/>
<path class="bond-35" d="M 2830.68,307.587 L 2843.82,246.987" style="fill:none;fill-rule:evenodd;stroke:#000000;stroke-width:2.0px;stroke-linecap:butt;stroke-linejoin:miter;stroke-opacity:1;stroke-dasharray:6,6"/>
<path class="bond-30" d="M 2876.12,376.369 L 2960.49,349.351" style="fill:none;fill-rule:evenodd;stroke:#000000;stroke-width:2.0px;stroke-linecap:butt;stroke-linejoin:miter;stroke-opacity:1"/>
<path class="bond-30" d="M 2883.38,355.443 L 2942.43,336.531" style="fill:none;fill-rule:evenodd;stroke:#000000;stroke-width:2.0px;stroke-linecap:butt;stroke-linejoin:miter;stroke-opacity:1;stroke-dasharray:6,6"/>
<path class="bond-31" d="M 2960.49,349.351 L 2979.27,262.78" style="fill:none;fill-rule:evenodd;stroke:#000000;stroke-width:2.0px;stroke-linecap:butt;stroke-linejoin:miter;stroke-opacity:1"/>
<path class="bond-31" d="M 2945.99,332.609 L 2959.14,272.009" style="fill:none;fill-rule:evenodd;stroke:#000000;stroke-width:2.0px;stroke-linecap:butt;stroke-linejoin:miter;stroke-opacity:1;stroke-dasharray:6,6"/>
<path class="bond-32" d="M 2979.27,262.78 L 2913.69,203.227" style="fill:none;fill-rule:evenodd;stroke:#000000;stroke-width:2.0px;stroke-linecap:butt;stroke-linejoin:miter;stroke-opacity:1"/>
<path class="bond-32" d="M 2957.53,266.963 L 2911.62,225.276" style="fill:none;fill-rule:evenodd;stroke:#000000;stroke-width:2.0px;stroke-linecap:butt;stroke-linejoin:miter;stroke-opacity:1;stroke-dasharray:6,6"/>
<path class="bond-33" d="M 2913.69,203.227 L 2829.33,230.244" style="fill:none;fill-rule:evenodd;stroke:#000000;stroke-width:2.0px;stroke-linecap:butt;stroke-linejoin:miter;stroke-opacity:1"/>
<path class="bond-33" d="M 2906.44,224.152 L 2847.39,243.065" style="fill:none;fill-rule:evenodd;stroke:#000000;stroke-width:2.0px;stroke-linecap:butt;stroke-linejoin:miter;stroke-opacity:1;stroke-dasharray:6,6"/>
<path class="bond-36" d="M 2142.47,153.198 L 2179.47,138.361" style="fill:none;fill-rule:evenodd;stroke:#000000;stroke-width:2.0px;stroke-linecap:butt;stroke-linejoin:miter;stroke-opacity:1"/>
<path class="bond-37" d="M 2179.47,138.361 L 2188.89,145.759" style="fill:none;fill-rule:evenodd;stroke:#000000;stroke-width:2.0px;stroke-linecap:butt;stroke-linejoin:miter;stroke-opacity:1"/>
<path class="bond-37" d="M 2188.89,145.759 L 2198.3,153.157" style="fill:none;fill-rule:evenodd;stroke:#FF0000;stroke-width:2.0px;stroke-linecap:butt;stroke-linejoin:miter;stroke-opacity:1"/>
<path class="bond-38" d="M 2223.33,157.969 L 2235.57,153.059" style="fill:none;fill-rule:evenodd;stroke:#FF0000;stroke-width:2.0px;stroke-linecap:butt;stroke-linejoin:miter;stroke-opacity:1"/>
<path class="bond-38" d="M 2235.57,153.059 L 2247.82,148.15" style="fill:none;fill-rule:evenodd;stroke:#000000;stroke-width:2.0px;stroke-linecap:butt;stroke-linejoin:miter;stroke-opacity:1"/>
<path class="bond-39" d="M 2247.82,148.15 L 2279.16,172.774" style="fill:none;fill-rule:evenodd;stroke:#000000;stroke-width:2.0px;stroke-linecap:butt;stroke-linejoin:miter;stroke-opacity:1"/>
<path class="bond-40" d="M 2253.08,148.903 L 2254.9,136.209" style="fill:none;fill-rule:evenodd;stroke:#000000;stroke-width:2.0px;stroke-linecap:butt;stroke-linejoin:miter;stroke-opacity:1"/>
<path class="bond-40" d="M 2254.9,136.209 L 2256.71,123.514" style="fill:none;fill-rule:evenodd;stroke:#FF0000;stroke-width:2.0px;stroke-linecap:butt;stroke-linejoin:miter;stroke-opacity:1"/>
<path class="bond-40" d="M 2242.55,147.396 L 2244.37,134.702" style="fill:none;fill-rule:evenodd;stroke:#000000;stroke-width:2.0px;stroke-linecap:butt;stroke-linejoin:miter;stroke-opacity:1"/>
<path class="bond-40" d="M 2244.37,134.702 L 2246.19,122.007" style="fill:none;fill-rule:evenodd;stroke:#FF0000;stroke-width:2.0px;stroke-linecap:butt;stroke-linejoin:miter;stroke-opacity:1"/>
<path class="atom-0" d="M 1131.83 404.631 L 1146.75 404.631 L 1146.75 407.501 L 1135.19 407.501 L 1135.19 415.119 L 1145.47 415.119 L 1145.47 418.025 L 1135.19 418.025 L 1135.19 429.718 L 1131.83 429.718 L 1131.83 404.631 " fill="#33CCCC"/>
<path class="atom-3" d="M 1053.88 246.479 L 1062.1 259.766 Q 1062.92 261.078, 1064.23 263.452 Q 1065.54 265.826, 1065.61 265.967 L 1065.61 246.479 L 1068.94 246.479 L 1068.94 271.566 L 1065.5 271.566 L 1056.68 257.038 Q 1055.65 255.337, 1054.56 253.388 Q 1053.49 251.439, 1053.17 250.837 L 1053.17 271.566 L 1049.91 271.566 L 1049.91 246.479 L 1053.88 246.479 " fill="#0000FF"/>
<path class="atom-3" d="M 1071.05 251.001 L 1075.47 251.001 L 1075.47 246.347 L 1077.43 246.347 L 1077.43 251.001 L 1081.97 251.001 L 1081.97 252.685 L 1077.43 252.685 L 1077.43 257.362 L 1075.47 257.362 L 1075.47 252.685 L 1071.05 252.685 L 1071.05 251.001 " fill="#0000FF"/>
<path class="atom-4" d="M 1007.98 180.017 Q 1007.98 173.993, 1010.96 170.627 Q 1013.94 167.261, 1019.5 167.261 Q 1025.06 167.261, 1028.04 170.627 Q 1031.01 173.993, 1031.01 180.017 Q 1031.01 186.112, 1028 189.584 Q 1024.99 193.021, 1019.5 193.021 Q 1013.97 193.021, 1010.96 189.584 Q 1007.98 186.147, 1007.98 180.017 M 1019.5 190.187 Q 1023.33 190.187, 1025.38 187.635 Q 1027.47 185.049, 1027.47 180.017 Q 1027.47 175.092, 1025.38 172.611 Q 1023.33 170.095, 1019.5 170.095 Q 1015.67 170.095, 1013.58 172.576 Q 1011.53 175.056, 1011.53 180.017 Q 1011.53 185.084, 1013.58 187.635 Q 1015.67 190.187, 1019.5 190.187 " fill="#FF0000"/>
<path class="atom-5" d="M 999.395 333.211 Q 999.395 327.187, 1002.37 323.821 Q 1005.35 320.455, 1010.91 320.455 Q 1016.47 320.455, 1019.45 323.821 Q 1022.43 327.187, 1022.43 333.211 Q 1022.43 339.306, 1019.41 342.778 Q 1016.4 346.216, 1010.91 346.216 Q 1005.38 346.216, 1002.37 342.778 Q 999.395 339.341, 999.395 333.211 M 1010.91 343.381 Q 1014.74 343.381, 1016.79 340.83 Q 1018.88 338.243, 1018.88 333.211 Q 1018.88 328.286, 1016.79 325.805 Q 1014.74 323.29, 1010.91 323.29 Q 1007.08 323.29, 1004.99 325.77 Q 1002.94 328.25, 1002.94 333.211 Q 1002.94 338.278, 1004.99 340.83 Q 1007.08 343.381, 1010.91 343.381 " fill="#FF0000"/>
<path class="atom-5" d="M 1023.6 324.55 L 1032.18 324.55 L 1032.18 326.421 L 1023.6 326.421 L 1023.6 324.55 " fill="#FF0000"/>
<path class="atom-9" d="M 1401.7 278.926 Q 1401.7 272.902, 1404.67 269.536 Q 1407.65 266.17, 1413.21 266.17 Q 1418.78 266.17, 1421.75 269.536 Q 1424.73 272.902, 1424.73 278.926 Q 1424.73 285.021, 1421.72 288.493 Q 1418.71 291.93, 1413.21 291.93 Q 1407.69 291.93, 1404.67 288.493 Q 1401.7 285.056, 1401.7 278.926 M 1413.21 289.096 Q 1417.04 289.096, 1419.1 286.544 Q 1421.19 283.958, 1421.19 278.926 Q 1421.19 274.001, 1419.1 271.52 Q 1417.04 269.004, 1413.21 269.004 Q 1409.39 269.004, 1407.3 271.485 Q 1405.24 273.965, 1405.24 278.926 Q 1405.24 283.993, 1407.3 286.544 Q 1409.39 289.096, 1413.21 289.096 " fill="#FF0000"/>
<path class="atom-9" d="M 1427.74 266.453 L 1431.14 266.453 L 1431.14 277.119 L 1443.97 277.119 L 1443.97 266.453 L 1447.37 266.453 L 1447.37 291.541 L 1443.97 291.541 L 1443.97 279.954 L 1431.14 279.954 L 1431.14 291.541 L 1427.74 291.541 L 1427.74 266.453 " fill="#FF0000"/>
<path class="atom-11" d="M 1924.52 267.617 L 1932.75 280.905 Q 1933.56 282.216, 1934.87 284.59 Q 1936.18 286.964, 1936.25 287.106 L 1936.25 267.617 L 1939.58 267.617 L 1939.58 292.705 L 1936.15 292.705 L 1927.32 278.177 Q 1926.3 276.476, 1925.2 274.527 Q 1924.13 272.578, 1923.82 271.976 L 1923.82 292.705 L 1920.56 292.705 L 1920.56 267.617 L 1924.52 267.617 " fill="#0000FF"/>
<path class="atom-11" d="M 1942.6 267.617 L 1946 267.617 L 1946 278.283 L 1958.82 278.283 L 1958.82 267.617 L 1962.23 267.617 L 1962.23 292.705 L 1958.82 292.705 L 1958.82 281.118 L 1946 281.118 L 1946 292.705 L 1942.6 292.705 L 1942.6 267.617 " fill="#0000FF"/>
<path class="atom-11" d="M 1963.44 291.825 Q 1964.05 290.258, 1965.5 289.392 Q 1966.95 288.504, 1968.96 288.504 Q 1971.46 288.504, 1972.87 289.86 Q 1974.27 291.216, 1974.27 293.625 Q 1974.27 296.081, 1972.45 298.373 Q 1970.65 300.665, 1966.9 303.377 L 1974.55 303.377 L 1974.55 305.248 L 1963.4 305.248 L 1963.4 303.682 Q 1966.48 301.483, 1968.31 299.846 Q 1970.15 298.209, 1971.04 296.736 Q 1971.93 295.262, 1971.93 293.742 Q 1971.93 292.152, 1971.14 291.263 Q 1970.34 290.375, 1968.96 290.375 Q 1967.63 290.375, 1966.74 290.912 Q 1965.85 291.45, 1965.22 292.643 L 1963.44 291.825 " fill="#0000FF"/>
<path class="atom-18" d="M 2461.57 424.957 Q 2461.57 418.933, 2464.54 415.567 Q 2467.52 412.2, 2473.08 412.2 Q 2478.65 412.2, 2481.62 415.567 Q 2484.6 418.933, 2484.6 424.957 Q 2484.6 431.051, 2481.59 434.524 Q 2478.58 437.961, 2473.08 437.961 Q 2467.56 437.961, 2464.54 434.524 Q 2461.57 431.087, 2461.57 424.957 M 2473.08 435.126 Q 2476.91 435.126, 2478.97 432.575 Q 2481.06 429.988, 2481.06 424.957 Q 2481.06 420.031, 2478.97 417.551 Q 2476.91 415.035, 2473.08 415.035 Q 2469.26 415.035, 2467.17 417.516 Q 2465.11 419.996, 2465.11 424.957 Q 2465.11 430.024, 2467.17 432.575 Q 2469.26 435.126, 2473.08 435.126 " fill="#FF0000"/>
<path class="atom-19" d="M 2551.9 385.325 L 2560.12 398.612 Q 2560.94 399.923, 2562.25 402.298 Q 2563.56 404.672, 2563.63 404.813 L 2563.63 385.325 L 2566.96 385.325 L 2566.96 410.412 L 2563.53 410.412 L 2554.7 395.884 Q 2553.68 394.183, 2552.58 392.234 Q 2551.51 390.285, 2551.19 389.683 L 2551.19 410.412 L 2547.93 410.412 L 2547.93 385.325 L 2551.9 385.325 " fill="#0000FF"/>
<path class="atom-19" d="M 2569.07 389.847 L 2573.49 389.847 L 2573.49 385.193 L 2575.45 385.193 L 2575.45 389.847 L 2579.99 389.847 L 2579.99 391.53 L 2575.45 391.53 L 2575.45 396.208 L 2573.49 396.208 L 2573.49 391.53 L 2569.07 391.53 L 2569.07 389.847 " fill="#0000FF"/>
<path class="atom-20" d="M 2611.51 457.492 Q 2611.51 451.469, 2614.49 448.102 Q 2617.47 444.736, 2623.03 444.736 Q 2628.59 444.736, 2631.57 448.102 Q 2634.55 451.469, 2634.55 457.492 Q 2634.55 463.587, 2631.53 467.06 Q 2628.52 470.497, 2623.03 470.497 Q 2617.5 470.497, 2614.49 467.06 Q 2611.51 463.623, 2611.51 457.492 M 2623.03 467.662 Q 2626.86 467.662, 2628.91 465.111 Q 2631 462.524, 2631 457.492 Q 2631 452.567, 2628.91 450.087 Q 2626.86 447.571, 2623.03 447.571 Q 2619.2 447.571, 2617.11 450.051 Q 2615.06 452.532, 2615.06 457.492 Q 2615.06 462.56, 2617.11 465.111 Q 2619.2 467.662, 2623.03 467.662 " fill="#FF0000"/>
<path class="atom-20" d="M 2635.71 448.831 L 2644.3 448.831 L 2644.3 450.702 L 2635.71 450.702 L 2635.71 448.831 " fill="#FF0000"/>
<path class="atom-25" d="M 2621.07 51.6551 Q 2621.07 45.6313, 2624.05 42.2651 Q 2627.02 38.8988, 2632.59 38.8988 Q 2638.15 38.8988, 2641.13 42.2651 Q 2644.1 45.6313, 2644.1 51.6551 Q 2644.1 57.7498, 2641.09 61.2224 Q 2638.08 64.6595, 2632.59 64.6595 Q 2627.06 64.6595, 2624.05 61.2224 Q 2621.07 57.7853, 2621.07 51.6551 M 2632.59 61.8248 Q 2636.41 61.8248, 2638.47 59.2735 Q 2640.56 56.6868, 2640.56 51.6551 Q 2640.56 46.7298, 2638.47 44.2494 Q 2636.41 41.7336, 2632.59 41.7336 Q 2628.76 41.7336, 2626.67 44.214 Q 2624.61 46.6943, 2624.61 51.6551 Q 2624.61 56.7222, 2626.67 59.2735 Q 2628.76 61.8248, 2632.59 61.8248 " fill="#FF0000"/>
<path class="atom-25" d="M 2647.12 39.1823 L 2650.52 39.1823 L 2650.52 49.848 L 2663.34 49.848 L 2663.34 39.1823 L 2666.75 39.1823 L 2666.75 64.2697 L 2663.34 64.2697 L 2663.34 52.6827 L 2650.52 52.6827 L 2650.52 64.2697 L 2647.12 64.2697 L 2647.12 39.1823 " fill="#FF0000"/>
<path class="atom-28" d="M 2720.63 331.289 L 2728.85 344.577 Q 2729.67 345.888, 2730.98 348.262 Q 2732.29 350.636, 2732.36 350.778 L 2732.36 331.289 L 2735.69 331.289 L 2735.69 356.377 L 2732.26 356.377 L 2723.43 341.849 Q 2722.41 340.148, 2721.31 338.199 Q 2720.24 336.25, 2719.92 335.648 L 2719.92 356.377 L 2716.66 356.377 L 2716.66 331.289 L 2720.63 331.289 " fill="#0000FF"/>
<path class="atom-28" d="M 2716.36 358.885 L 2719.77 358.885 L 2719.77 369.551 L 2732.59 369.551 L 2732.59 358.885 L 2735.99 358.885 L 2735.99 383.973 L 2732.59 383.973 L 2732.59 372.386 L 2719.77 372.386 L 2719.77 383.973 L 2716.36 383.973 L 2716.36 358.885 " fill="#0000FF"/>
<path class="atom-37" d="M 2199.3 163.057 Q 2199.3 157.033, 2202.28 153.667 Q 2205.25 150.3, 2210.82 150.3 Q 2216.38 150.3, 2219.36 153.667 Q 2222.33 157.033, 2222.33 163.057 Q 2222.33 169.151, 2219.32 172.624 Q 2216.31 176.061, 2210.82 176.061 Q 2205.29 176.061, 2202.28 172.624 Q 2199.3 169.187, 2199.3 163.057 M 2210.82 173.226 Q 2214.64 173.226, 2216.7 170.675 Q 2218.79 168.088, 2218.79 163.057 Q 2218.79 158.131, 2216.7 155.651 Q 2214.64 153.135, 2210.82 153.135 Q 2206.99 153.135, 2204.9 155.616 Q 2202.84 158.096, 2202.84 163.057 Q 2202.84 168.124, 2204.9 170.675 Q 2206.99 173.226, 2210.82 173.226 " fill="#FF0000"/>
<path class="atom-40" d="M 2241.95 108.76 Q 2241.95 102.736, 2244.93 99.3696 Q 2247.9 96.0034, 2253.47 96.0034 Q 2259.03 96.0034, 2262.01 99.3696 Q 2264.98 102.736, 2264.98 108.76 Q 2264.98 114.854, 2261.97 118.327 Q 2258.96 121.764, 2253.47 121.764 Q 2247.94 121.764, 2244.93 118.327 Q 2241.95 114.89, 2241.95 108.76 M 2253.47 118.929 Q 2257.29 118.929, 2259.35 116.378 Q 2261.44 113.791, 2261.44 108.76 Q 2261.44 103.834, 2259.35 101.354 Q 2257.29 98.8381, 2253.47 98.8381 Q 2249.64 98.8381, 2247.55 101.319 Q 2245.49 103.799, 2245.49 108.76 Q 2245.49 113.827, 2247.55 116.378 Q 2249.64 118.929, 2253.47 118.929 " fill="#FF0000"/>
<path class="note" d="M 1161.06 347.156 L 1163.81 347.156 L 1163.81 337.783 L 1160.78 338.722 L 1160.37 337.677 L 1164.21 335.958 L 1165.47 336.171 L 1165.47 347.156 L 1167.93 347.156 L 1167.93 348.573 L 1161.06 348.573 L 1161.06 347.156 " fill="#000000"/>
<path class="note" d="M 1173.6 348.715 Q 1171.3 348.715, 1170.15 347.014 Q 1169.01 345.313, 1169.01 342.283 Q 1169.01 339.254, 1170.15 337.571 Q 1171.28 335.888, 1173.6 335.888 Q 1175.92 335.888, 1177.06 337.571 Q 1178.19 339.254, 1178.19 342.283 Q 1178.19 345.313, 1177.04 347.014 Q 1175.91 348.715, 1173.6 348.715 M 1173.6 347.297 Q 1174.97 347.297, 1175.69 346.04 Q 1176.42 344.764, 1176.42 342.283 Q 1176.42 339.821, 1175.69 338.563 Q 1174.97 337.305, 1173.6 337.305 Q 1172.26 337.305, 1171.51 338.563 Q 1170.79 339.821, 1170.79 342.283 Q 1170.79 344.764, 1171.51 346.04 Q 1172.26 347.297, 1173.6 347.297 " fill="#000000"/>
<path class="note" d="M 1143.11 278.3 L 1144.62 278.3 L 1144.62 279.717 L 1143.11 279.717 L 1143.11 282.605 L 1141.44 282.605 L 1141.44 279.717 L 1134.96 279.717 L 1134.96 278.601 L 1140.45 270.062 L 1143.11 270.062 L 1143.11 278.3 M 1137.02 278.3 L 1141.44 278.3 L 1141.44 271.196 L 1137.02 278.3 " fill="#000000"/>
<path class="note" d="M 1071.41 230.489 Q 1071.87 229.302, 1072.97 228.647 Q 1074.07 227.974, 1075.59 227.974 Q 1077.49 227.974, 1078.55 229.001 Q 1079.61 230.029, 1079.61 231.854 Q 1079.61 233.714, 1078.23 235.45 Q 1076.87 237.187, 1074.03 239.242 L 1079.83 239.242 L 1079.83 240.659 L 1071.37 240.659 L 1071.37 239.472 Q 1073.71 237.807, 1075.1 236.566 Q 1076.5 235.326, 1077.17 234.21 Q 1077.84 233.094, 1077.84 231.942 Q 1077.84 230.737, 1077.24 230.064 Q 1076.64 229.391, 1075.59 229.391 Q 1074.58 229.391, 1073.91 229.798 Q 1073.24 230.206, 1072.76 231.11 L 1071.41 230.489 " fill="#000000"/>
<path class="note" d="M 1003.1 158.477 L 1005.84 158.477 L 1005.84 149.105 L 1002.81 150.044 L 1002.41 148.999 L 1006.25 147.28 L 1007.51 147.493 L 1007.51 158.477 L 1009.97 158.477 L 1009.97 159.895 L 1003.1 159.895 L 1003.1 158.477 " fill="#000000"/>
<path class="note" d="M 996.545 357.581 Q 997.768 357.935, 998.353 358.732 Q 998.955 359.512, 998.955 360.752 Q 998.955 361.815, 998.423 362.648 Q 997.892 363.463, 996.918 363.923 Q 995.943 364.366, 994.667 364.366 Q 993.321 364.366, 992.311 363.906 Q 991.319 363.427, 990.522 362.47 L 991.532 361.443 Q 992.311 362.293, 992.967 362.63 Q 993.622 362.949, 994.667 362.949 Q 995.801 362.949, 996.492 362.346 Q 997.183 361.726, 997.183 360.734 Q 997.183 359.459, 996.457 358.892 Q 995.748 358.307, 994.207 358.307 L 993.303 358.307 L 993.303 357.031 L 994.101 357.031 Q 995.465 357.014, 996.191 356.429 Q 996.918 355.827, 996.918 354.71 Q 996.918 353.895, 996.315 353.417 Q 995.713 352.921, 994.685 352.921 Q 993.64 352.921, 992.984 353.293 Q 992.347 353.665, 991.85 354.604 L 990.628 353.949 Q 991.071 352.903, 992.134 352.212 Q 993.197 351.504, 994.685 351.504 Q 996.528 351.504, 997.608 352.372 Q 998.689 353.24, 998.689 354.71 Q 998.689 355.72, 998.14 356.447 Q 997.591 357.173, 996.545 357.581 " fill="#000000"/>
<path class="note" d="M 1190.05 175.106 Q 1191.15 175.106, 1192.05 175.585 Q 1192.95 176.045, 1193.47 176.931 Q 1193.98 177.799, 1193.98 178.986 Q 1193.98 180.28, 1193.34 181.219 Q 1192.72 182.14, 1191.69 182.618 Q 1190.67 183.097, 1189.5 183.097 Q 1188.35 183.097, 1187.28 182.672 Q 1186.22 182.246, 1185.49 181.431 L 1186.56 180.333 Q 1187.14 180.971, 1187.94 181.325 Q 1188.74 181.662, 1189.55 181.662 Q 1190.67 181.662, 1191.43 180.971 Q 1192.21 180.28, 1192.21 179.022 Q 1192.21 177.693, 1191.43 177.073 Q 1190.67 176.435, 1189.44 176.435 Q 1188.35 176.435, 1187.12 176.914 L 1186.15 176.453 L 1186.75 170.411 L 1193.2 170.411 L 1193.02 171.829 L 1188.2 171.829 L 1187.83 175.549 Q 1188.95 175.106, 1190.05 175.106 " fill="#000000"/>
<path class="note" d="M 1293.48 180.98 Q 1294.58 180.98, 1295.45 181.458 Q 1296.32 181.936, 1296.8 182.804 Q 1297.27 183.673, 1297.27 184.771 Q 1297.27 185.994, 1296.73 186.95 Q 1296.19 187.889, 1295.24 188.421 Q 1294.28 188.952, 1293.06 188.952 Q 1290.83 188.952, 1289.69 187.446 Q 1288.58 185.923, 1288.58 182.911 Q 1288.58 179.58, 1289.96 177.861 Q 1291.36 176.125, 1294.03 176.125 Q 1294.81 176.125, 1295.47 176.302 Q 1296.14 176.479, 1296.78 176.851 L 1296.09 178.039 Q 1295.17 177.542, 1294.05 177.542 Q 1292.28 177.542, 1291.37 178.694 Q 1290.47 179.828, 1290.36 182.184 Q 1291 181.6, 1291.8 181.298 Q 1292.61 180.98, 1293.48 180.98 M 1293.08 187.499 Q 1293.75 187.499, 1294.3 187.145 Q 1294.86 186.791, 1295.18 186.171 Q 1295.5 185.551, 1295.5 184.789 Q 1295.5 183.673, 1294.88 183.035 Q 1294.26 182.397, 1293.16 182.397 Q 1292.4 182.397, 1291.64 182.716 Q 1290.9 183.017, 1290.36 183.549 Q 1290.44 185.621, 1291.09 186.56 Q 1291.75 187.499, 1293.08 187.499 " fill="#000000"/>
<path class="note" d="M 1335.26 256.689 L 1328.69 256.689 L 1328.69 255.272 L 1337.02 255.272 L 1337.02 256.53 L 1331.95 267.816 L 1330.25 267.816 L 1335.26 256.689 " fill="#000000"/>
<path class="note" d="M 1431.35 253.848 Q 1432.51 254.344, 1433.16 255.088 Q 1433.82 255.815, 1433.82 257.055 Q 1433.82 258.118, 1433.27 258.951 Q 1432.72 259.765, 1431.73 260.226 Q 1430.75 260.669, 1429.46 260.669 Q 1427.37 260.669, 1426.16 259.712 Q 1424.96 258.738, 1424.96 257.055 Q 1424.96 256.027, 1425.49 255.265 Q 1426.02 254.486, 1427.12 253.901 Q 1426.3 253.44, 1425.86 252.767 Q 1425.42 252.076, 1425.42 251.013 Q 1425.42 249.543, 1426.48 248.675 Q 1427.56 247.806, 1429.39 247.806 Q 1431.21 247.806, 1432.27 248.675 Q 1433.36 249.543, 1433.36 251.013 Q 1433.36 251.935, 1432.84 252.625 Q 1432.35 253.299, 1431.35 253.848 M 1429.39 249.135 Q 1428.34 249.135, 1427.76 249.631 Q 1427.19 250.127, 1427.19 251.013 Q 1427.19 251.669, 1427.58 252.112 Q 1427.97 252.537, 1428.52 252.785 Q 1429.09 253.033, 1430.17 253.405 Q 1430.93 252.874, 1431.25 252.307 Q 1431.58 251.74, 1431.58 251.013 Q 1431.58 250.127, 1431 249.631 Q 1430.43 249.135, 1429.39 249.135 M 1429.46 259.34 Q 1430.63 259.34, 1431.34 258.72 Q 1432.04 258.082, 1432.04 257.037 Q 1432.04 256.364, 1431.67 255.939 Q 1431.3 255.513, 1430.73 255.265 Q 1430.18 255.017, 1429.19 254.698 L 1428.39 254.433 Q 1427.51 254.964, 1427.12 255.602 Q 1426.73 256.222, 1426.73 257.037 Q 1426.73 258.082, 1427.47 258.72 Q 1428.22 259.34, 1429.46 259.34 " fill="#000000"/>
<path class="note" d="M 1282.77 354.852 Q 1285.01 354.852, 1286.12 356.375 Q 1287.26 357.881, 1287.26 360.893 Q 1287.26 364.224, 1285.86 365.96 Q 1284.47 367.679, 1281.8 367.679 Q 1281.02 367.679, 1280.35 367.502 Q 1279.69 367.324, 1279.05 366.952 L 1279.74 365.765 Q 1280.66 366.261, 1281.78 366.261 Q 1283.55 366.261, 1284.46 365.127 Q 1285.36 363.976, 1285.47 361.619 Q 1284.83 362.204, 1284.01 362.523 Q 1283.22 362.824, 1282.35 362.824 Q 1281.25 362.824, 1280.38 362.346 Q 1279.51 361.868, 1279.03 360.999 Q 1278.56 360.131, 1278.56 359.033 Q 1278.56 357.81, 1279.09 356.871 Q 1279.64 355.915, 1280.59 355.383 Q 1281.55 354.852, 1282.77 354.852 M 1280.33 359.015 Q 1280.33 360.131, 1280.95 360.769 Q 1281.57 361.407, 1282.67 361.407 Q 1283.43 361.407, 1284.17 361.106 Q 1284.93 360.787, 1285.47 360.255 Q 1285.39 358.182, 1284.74 357.243 Q 1284.08 356.304, 1282.76 356.304 Q 1282.08 356.304, 1281.51 356.659 Q 1280.97 357.013, 1280.65 357.633 Q 1280.33 358.253, 1280.33 359.015 " fill="#000000"/>
<path class="note" d="M 1933.7 259.478 L 1936.45 259.478 L 1936.45 250.106 L 1933.42 251.045 L 1933.01 250 L 1936.85 248.281 L 1938.11 248.494 L 1938.11 259.478 L 1940.57 259.478 L 1940.57 260.896 L 1933.7 260.896 L 1933.7 259.478 " fill="#000000"/>
<path class="note" d="M 1942.22 259.478 L 1944.97 259.478 L 1944.97 250.106 L 1941.94 251.045 L 1941.53 250 L 1945.37 248.281 L 1946.63 248.494 L 1946.63 259.478 L 1949.1 259.478 L 1949.1 260.896 L 1942.22 260.896 L 1942.22 259.478 " fill="#000000"/>
<path class="note" d="M 1844.71 310.659 L 1847.45 310.659 L 1847.45 301.286 L 1844.42 302.225 L 1844.01 301.18 L 1847.86 299.462 L 1849.12 299.674 L 1849.12 310.659 L 1851.58 310.659 L 1851.58 312.076 L 1844.71 312.076 L 1844.71 310.659 " fill="#000000"/>
<path class="note" d="M 1852.5 301.907 Q 1852.96 300.719, 1854.06 300.064 Q 1855.16 299.391, 1856.68 299.391 Q 1858.58 299.391, 1859.64 300.418 Q 1860.7 301.446, 1860.7 303.271 Q 1860.7 305.131, 1859.32 306.867 Q 1857.96 308.604, 1855.12 310.659 L 1860.92 310.659 L 1860.92 312.076 L 1852.47 312.076 L 1852.47 310.889 Q 1854.8 309.224, 1856.19 307.984 Q 1857.59 306.743, 1858.26 305.627 Q 1858.93 304.511, 1858.93 303.359 Q 1858.93 302.155, 1858.33 301.481 Q 1857.73 300.808, 1856.68 300.808 Q 1855.67 300.808, 1855 301.216 Q 1854.33 301.623, 1853.85 302.527 L 1852.5 301.907 " fill="#000000"/>
<path class="note" d="M 1793.11 374.59 L 1795.86 374.59 L 1795.86 365.218 L 1792.83 366.157 L 1792.42 365.111 L 1796.26 363.393 L 1797.52 363.605 L 1797.52 374.59 L 1799.98 374.59 L 1799.98 376.007 L 1793.11 376.007 L 1793.11 374.59 " fill="#000000"/>
<path class="note" d="M 1806.75 369.399 Q 1807.98 369.753, 1808.56 370.55 Q 1809.16 371.33, 1809.16 372.57 Q 1809.16 373.633, 1808.63 374.466 Q 1808.1 375.281, 1807.12 375.742 Q 1806.15 376.184, 1804.87 376.184 Q 1803.53 376.184, 1802.52 375.724 Q 1801.53 375.245, 1800.73 374.289 L 1801.74 373.261 Q 1802.52 374.112, 1803.17 374.448 Q 1803.83 374.767, 1804.87 374.767 Q 1806.01 374.767, 1806.7 374.165 Q 1807.39 373.545, 1807.39 372.552 Q 1807.39 371.277, 1806.66 370.71 Q 1805.96 370.125, 1804.41 370.125 L 1803.51 370.125 L 1803.51 368.85 L 1804.31 368.85 Q 1805.67 368.832, 1806.4 368.247 Q 1807.12 367.645, 1807.12 366.529 Q 1807.12 365.714, 1806.52 365.235 Q 1805.92 364.739, 1804.89 364.739 Q 1803.85 364.739, 1803.19 365.111 Q 1802.55 365.483, 1802.06 366.422 L 1800.84 365.767 Q 1801.28 364.721, 1802.34 364.03 Q 1803.4 363.322, 1804.89 363.322 Q 1806.74 363.322, 1807.82 364.19 Q 1808.9 365.058, 1808.9 366.529 Q 1808.9 367.538, 1808.35 368.265 Q 1807.8 368.991, 1806.75 369.399 " fill="#000000"/>
<path class="note" d="M 1689.26 374.554 L 1692 374.554 L 1692 365.182 L 1688.97 366.121 L 1688.57 365.076 L 1692.41 363.357 L 1693.67 363.57 L 1693.67 374.554 L 1696.13 374.554 L 1696.13 375.972 L 1689.26 375.972 L 1689.26 374.554 " fill="#000000"/>
<path class="note" d="M 1704.81 371.667 L 1706.32 371.667 L 1706.32 373.084 L 1704.81 373.084 L 1704.81 375.972 L 1703.15 375.972 L 1703.15 373.084 L 1696.66 373.084 L 1696.66 371.968 L 1702.15 363.428 L 1704.81 363.428 L 1704.81 371.667 M 1698.72 371.667 L 1703.15 371.667 L 1703.15 364.562 L 1698.72 371.667 " fill="#000000"/>
<path class="note" d="M 1638.02 285.051 L 1640.77 285.051 L 1640.77 275.679 L 1637.74 276.618 L 1637.33 275.572 L 1641.18 273.854 L 1642.44 274.066 L 1642.44 285.051 L 1644.9 285.051 L 1644.9 286.468 L 1638.02 286.468 L 1638.02 285.051 " fill="#000000"/>
<path class="note" d="M 1650.27 278.62 Q 1651.36 278.62, 1652.27 279.098 Q 1653.17 279.559, 1653.69 280.444 Q 1654.2 281.313, 1654.2 282.5 Q 1654.2 283.793, 1653.56 284.732 Q 1652.94 285.653, 1651.91 286.132 Q 1650.89 286.61, 1649.72 286.61 Q 1648.57 286.61, 1647.5 286.185 Q 1646.44 285.76, 1645.71 284.945 L 1646.78 283.846 Q 1647.36 284.484, 1648.16 284.838 Q 1648.96 285.175, 1649.77 285.175 Q 1650.89 285.175, 1651.65 284.484 Q 1652.43 283.793, 1652.43 282.535 Q 1652.43 281.206, 1651.65 280.586 Q 1650.89 279.948, 1649.66 279.948 Q 1648.57 279.948, 1647.34 280.427 L 1646.37 279.966 L 1646.97 273.925 L 1653.42 273.925 L 1653.24 275.342 L 1648.42 275.342 L 1648.05 279.063 Q 1649.17 278.62, 1650.27 278.62 " fill="#000000"/>
<path class="note" d="M 1689.4 195.583 L 1692.14 195.583 L 1692.14 186.21 L 1689.11 187.149 L 1688.71 186.104 L 1692.55 184.386 L 1693.81 184.598 L 1693.81 195.583 L 1696.27 195.583 L 1696.27 197 L 1689.4 197 L 1689.4 195.583 " fill="#000000"/>
<path class="note" d="M 1702.38 189.169 Q 1703.48 189.169, 1704.35 189.648 Q 1705.22 190.126, 1705.7 190.994 Q 1706.18 191.862, 1706.18 192.961 Q 1706.18 194.183, 1705.63 195.14 Q 1705.1 196.079, 1704.14 196.61 Q 1703.18 197.142, 1701.96 197.142 Q 1699.73 197.142, 1698.59 195.636 Q 1697.48 194.112, 1697.48 191.1 Q 1697.48 187.77, 1698.86 186.051 Q 1700.26 184.315, 1702.93 184.315 Q 1703.71 184.315, 1704.37 184.492 Q 1705.04 184.669, 1705.68 185.041 L 1704.99 186.228 Q 1704.07 185.732, 1702.95 185.732 Q 1701.18 185.732, 1700.28 186.884 Q 1699.37 188.018, 1699.27 190.374 Q 1699.9 189.789, 1700.7 189.488 Q 1701.52 189.169, 1702.38 189.169 M 1701.98 195.689 Q 1702.65 195.689, 1703.2 195.335 Q 1703.77 194.98, 1704.09 194.36 Q 1704.4 193.74, 1704.4 192.978 Q 1704.4 191.862, 1703.78 191.224 Q 1703.16 190.587, 1702.07 190.587 Q 1701.3 190.587, 1700.54 190.906 Q 1699.8 191.207, 1699.27 191.738 Q 1699.34 193.811, 1699.99 194.75 Q 1700.65 195.689, 1701.98 195.689 " fill="#000000"/>
<path class="note" d="M 1793.38 195.547 L 1796.12 195.547 L 1796.12 186.175 L 1793.09 187.114 L 1792.69 186.069 L 1796.53 184.35 L 1797.79 184.563 L 1797.79 195.547 L 1800.25 195.547 L 1800.25 196.965 L 1793.38 196.965 L 1793.38 195.547 " fill="#000000"/>
<path class="note" d="M 1807.14 185.838 L 1800.57 185.838 L 1800.57 184.421 L 1808.9 184.421 L 1808.9 185.679 L 1803.83 196.965 L 1802.13 196.965 L 1807.14 185.838 " fill="#000000"/>
<path class="note" d="M 2441.87 438.782 L 2444.62 438.782 L 2444.62 429.409 L 2441.59 430.348 L 2441.18 429.303 L 2445.02 427.584 L 2446.28 427.797 L 2446.28 438.782 L 2448.74 438.782 L 2448.74 440.199 L 2441.87 440.199 L 2441.87 438.782 " fill="#000000"/>
<path class="note" d="M 2547 422.898 Q 2547.46 421.711, 2548.56 421.056 Q 2549.65 420.382, 2551.18 420.382 Q 2553.07 420.382, 2554.14 421.41 Q 2555.2 422.438, 2555.2 424.263 Q 2555.2 426.123, 2553.82 427.859 Q 2552.45 429.595, 2549.62 431.651 L 2555.41 431.651 L 2555.41 433.068 L 2546.96 433.068 L 2546.96 431.881 Q 2549.3 430.215, 2550.68 428.975 Q 2552.08 427.735, 2552.76 426.619 Q 2553.43 425.503, 2553.43 424.351 Q 2553.43 423.146, 2552.83 422.473 Q 2552.22 421.8, 2551.18 421.8 Q 2550.17 421.8, 2549.5 422.207 Q 2548.82 422.615, 2548.34 423.518 L 2547 422.898 " fill="#000000"/>
<path class="note" d="M 2646.7 477.007 Q 2647.92 477.361, 2648.5 478.159 Q 2649.11 478.938, 2649.11 480.178 Q 2649.11 481.241, 2648.57 482.074 Q 2648.04 482.889, 2647.07 483.35 Q 2646.09 483.793, 2644.82 483.793 Q 2643.47 483.793, 2642.46 483.332 Q 2641.47 482.854, 2640.67 481.897 L 2641.68 480.869 Q 2642.46 481.72, 2643.12 482.056 Q 2643.77 482.375, 2644.82 482.375 Q 2645.95 482.375, 2646.64 481.773 Q 2647.33 481.153, 2647.33 480.161 Q 2647.33 478.885, 2646.61 478.318 Q 2645.9 477.733, 2644.36 477.733 L 2643.45 477.733 L 2643.45 476.458 L 2644.25 476.458 Q 2645.62 476.44, 2646.34 475.855 Q 2647.07 475.253, 2647.07 474.137 Q 2647.07 473.322, 2646.47 472.843 Q 2645.86 472.347, 2644.84 472.347 Q 2643.79 472.347, 2643.14 472.719 Q 2642.5 473.091, 2642 474.03 L 2640.78 473.375 Q 2641.22 472.33, 2642.29 471.639 Q 2643.35 470.93, 2644.84 470.93 Q 2646.68 470.93, 2647.76 471.798 Q 2648.84 472.666, 2648.84 474.137 Q 2648.84 475.147, 2648.29 475.873 Q 2647.74 476.599, 2646.7 477.007 " fill="#000000"/>
<path class="note" d="M 2565.49 317.767 L 2567 317.767 L 2567 319.184 L 2565.49 319.184 L 2565.49 322.072 L 2563.83 322.072 L 2563.83 319.184 L 2557.34 319.184 L 2557.34 318.068 L 2562.84 309.528 L 2565.49 309.528 L 2565.49 317.767 M 2559.4 317.767 L 2563.83 317.767 L 2563.83 310.662 L 2559.4 317.767 " fill="#000000"/>
<path class="note" d="M 2496.9 254.67 Q 2498 254.67, 2498.9 255.148 Q 2499.81 255.609, 2500.32 256.495 Q 2500.84 257.363, 2500.84 258.55 Q 2500.84 259.843, 2500.2 260.782 Q 2499.58 261.704, 2498.55 262.182 Q 2497.52 262.66, 2496.35 262.66 Q 2495.2 262.66, 2494.14 262.235 Q 2493.08 261.81, 2492.35 260.995 L 2493.41 259.897 Q 2494 260.534, 2494.79 260.889 Q 2495.59 261.225, 2496.41 261.225 Q 2497.52 261.225, 2498.28 260.534 Q 2499.06 259.843, 2499.06 258.585 Q 2499.06 257.257, 2498.28 256.637 Q 2497.52 255.999, 2496.3 255.999 Q 2495.2 255.999, 2493.98 256.477 L 2493 256.016 L 2493.61 249.975 L 2500.06 249.975 L 2499.88 251.392 L 2495.06 251.392 L 2494.69 255.113 Q 2495.8 254.67, 2496.9 254.67 " fill="#000000"/>
<path class="note" d="M 2519.07 153.759 Q 2520.16 153.759, 2521.03 154.237 Q 2521.9 154.716, 2522.38 155.584 Q 2522.86 156.452, 2522.86 157.551 Q 2522.86 158.773, 2522.31 159.73 Q 2521.78 160.669, 2520.82 161.2 Q 2519.86 161.732, 2518.64 161.732 Q 2516.41 161.732, 2515.27 160.226 Q 2514.16 158.702, 2514.16 155.69 Q 2514.16 152.359, 2515.54 150.641 Q 2516.94 148.905, 2519.61 148.905 Q 2520.39 148.905, 2521.05 149.082 Q 2521.72 149.259, 2522.36 149.631 L 2521.67 150.818 Q 2520.75 150.322, 2519.63 150.322 Q 2517.86 150.322, 2516.96 151.474 Q 2516.05 152.607, 2515.95 154.964 Q 2516.59 154.379, 2517.38 154.078 Q 2518.2 153.759, 2519.07 153.759 M 2518.66 160.279 Q 2519.33 160.279, 2519.88 159.925 Q 2520.45 159.57, 2520.77 158.95 Q 2521.09 158.33, 2521.09 157.568 Q 2521.09 156.452, 2520.47 155.814 Q 2519.85 155.176, 2518.75 155.176 Q 2517.98 155.176, 2517.22 155.495 Q 2516.48 155.797, 2515.95 156.328 Q 2516.02 158.401, 2516.67 159.34 Q 2517.33 160.279, 2518.66 160.279 " fill="#000000"/>
<path class="note" d="M 2605.28 123.375 L 2598.71 123.375 L 2598.71 121.958 L 2607.04 121.958 L 2607.04 123.216 L 2601.97 134.502 L 2600.27 134.502 L 2605.28 123.375 " fill="#000000"/>
<path class="note" d="M 2640.82 22.4261 Q 2641.97 22.9222, 2642.62 23.6663 Q 2643.28 24.3927, 2643.28 25.6329 Q 2643.28 26.6959, 2642.73 27.5286 Q 2642.18 28.3436, 2641.19 28.8042 Q 2640.21 29.2472, 2638.92 29.2472 Q 2636.83 29.2472, 2635.62 28.2904 Q 2634.42 27.316, 2634.42 25.6329 Q 2634.42 24.6053, 2634.95 23.8435 Q 2635.48 23.0639, 2636.58 22.4792 Q 2635.77 22.0186, 2635.32 21.3453 Q 2634.88 20.6544, 2634.88 19.5913 Q 2634.88 18.1208, 2635.94 17.2527 Q 2637.02 16.3845, 2638.85 16.3845 Q 2640.67 16.3845, 2641.74 17.2527 Q 2642.82 18.1208, 2642.82 19.5913 Q 2642.82 20.5126, 2642.3 21.2036 Q 2641.81 21.8769, 2640.82 22.4261 M 2638.85 17.7133 Q 2637.8 17.7133, 2637.22 18.2094 Q 2636.65 18.7055, 2636.65 19.5913 Q 2636.65 20.2469, 2637.04 20.6898 Q 2637.43 21.115, 2637.98 21.3631 Q 2638.55 21.6111, 2639.63 21.9832 Q 2640.39 21.4516, 2640.71 20.8847 Q 2641.05 20.3177, 2641.05 19.5913 Q 2641.05 18.7055, 2640.46 18.2094 Q 2639.89 17.7133, 2638.85 17.7133 M 2638.92 27.9184 Q 2640.09 27.9184, 2640.8 27.2983 Q 2641.51 26.6605, 2641.51 25.6152 Q 2641.51 24.9419, 2641.13 24.5167 Q 2640.76 24.0915, 2640.2 23.8435 Q 2639.65 23.5954, 2638.65 23.2765 L 2637.86 23.0107 Q 2636.97 23.5423, 2636.58 24.1801 Q 2636.19 24.8002, 2636.19 25.6152 Q 2636.19 26.6605, 2636.94 27.2983 Q 2637.68 27.9184, 2638.92 27.9184 " fill="#000000"/>
<path class="note" d="M 2693.31 186.863 Q 2695.54 186.863, 2696.66 188.387 Q 2697.79 189.893, 2697.79 192.905 Q 2697.79 196.235, 2696.39 197.972 Q 2695.01 199.69, 2692.34 199.69 Q 2691.56 199.69, 2690.88 199.513 Q 2690.23 199.336, 2689.59 198.964 L 2690.28 197.777 Q 2691.2 198.273, 2692.32 198.273 Q 2694.09 198.273, 2694.99 197.139 Q 2695.9 195.987, 2696 193.631 Q 2695.37 194.216, 2694.55 194.534 Q 2693.75 194.836, 2692.89 194.836 Q 2691.79 194.836, 2690.92 194.357 Q 2690.05 193.879, 2689.57 193.011 Q 2689.09 192.143, 2689.09 191.044 Q 2689.09 189.822, 2689.63 188.883 Q 2690.17 187.926, 2691.13 187.394 Q 2692.09 186.863, 2693.31 186.863 M 2690.87 191.026 Q 2690.87 192.143, 2691.49 192.78 Q 2692.11 193.418, 2693.2 193.418 Q 2693.97 193.418, 2694.71 193.117 Q 2695.47 192.798, 2696 192.267 Q 2695.93 190.194, 2695.28 189.255 Q 2694.62 188.316, 2693.29 188.316 Q 2692.62 188.316, 2692.05 188.67 Q 2691.5 189.024, 2691.18 189.645 Q 2690.87 190.265, 2690.87 191.026 " fill="#000000"/>
<path class="note" d="M 2676.72 280.199 L 2679.46 280.199 L 2679.46 270.827 L 2676.43 271.766 L 2676.03 270.72 L 2679.87 269.002 L 2681.13 269.215 L 2681.13 280.199 L 2683.59 280.199 L 2683.59 281.616 L 2676.72 281.616 L 2676.72 280.199 " fill="#000000"/>
<path class="note" d="M 2689.26 281.758 Q 2686.96 281.758, 2685.81 280.057 Q 2684.67 278.357, 2684.67 275.327 Q 2684.67 272.297, 2685.81 270.614 Q 2686.94 268.931, 2689.26 268.931 Q 2691.58 268.931, 2692.72 270.614 Q 2693.85 272.297, 2693.85 275.327 Q 2693.85 278.357, 2692.7 280.057 Q 2691.56 281.758, 2689.26 281.758 M 2689.26 280.341 Q 2690.62 280.341, 2691.35 279.083 Q 2692.08 277.807, 2692.08 275.327 Q 2692.08 272.864, 2691.35 271.606 Q 2690.62 270.348, 2689.26 270.348 Q 2687.91 270.348, 2687.17 271.606 Q 2686.44 272.864, 2686.44 275.327 Q 2686.44 277.807, 2687.17 279.083 Q 2687.91 280.341, 2689.26 280.341 " fill="#000000"/>
<path class="note" d="M 2736.9 368.574 L 2739.65 368.574 L 2739.65 359.202 L 2736.62 360.141 L 2736.21 359.095 L 2740.06 357.377 L 2741.32 357.589 L 2741.32 368.574 L 2743.78 368.574 L 2743.78 369.991 L 2736.9 369.991 L 2736.9 368.574 " fill="#000000"/>
<path class="note" d="M 2745.43 368.574 L 2748.17 368.574 L 2748.17 359.202 L 2745.14 360.141 L 2744.73 359.095 L 2748.58 357.377 L 2749.84 357.589 L 2749.84 368.574 L 2752.3 368.574 L 2752.3 369.991 L 2745.43 369.991 L 2745.43 368.574 " fill="#000000"/>
<path class="note" d="M 2795.87 336.169 L 2798.62 336.169 L 2798.62 326.797 L 2795.59 327.736 L 2795.18 326.691 L 2799.02 324.972 L 2800.28 325.185 L 2800.28 336.169 L 2802.74 336.169 L 2802.74 337.587 L 2795.87 337.587 L 2795.87 336.169 " fill="#000000"/>
<path class="note" d="M 2803.67 327.417 Q 2804.13 326.23, 2805.22 325.574 Q 2806.32 324.901, 2807.85 324.901 Q 2809.74 324.901, 2810.81 325.929 Q 2811.87 326.956, 2811.87 328.781 Q 2811.87 330.642, 2810.49 332.378 Q 2809.12 334.114, 2806.29 336.169 L 2812.08 336.169 L 2812.08 337.587 L 2803.63 337.587 L 2803.63 336.4 Q 2805.97 334.734, 2807.35 333.494 Q 2808.75 332.254, 2809.42 331.138 Q 2810.1 330.021, 2810.1 328.87 Q 2810.1 327.665, 2809.49 326.992 Q 2808.89 326.319, 2807.85 326.319 Q 2806.84 326.319, 2806.16 326.726 Q 2805.49 327.134, 2805.01 328.037 L 2803.67 327.417 " fill="#000000"/>
<path class="note" d="M 2861.53 395.723 L 2864.28 395.723 L 2864.28 386.35 L 2861.25 387.289 L 2860.84 386.244 L 2864.68 384.525 L 2865.94 384.738 L 2865.94 395.723 L 2868.4 395.723 L 2868.4 397.14 L 2861.53 397.14 L 2861.53 395.723 " fill="#000000"/>
<path class="note" d="M 2875.17 390.532 Q 2876.4 390.886, 2876.98 391.683 Q 2877.58 392.463, 2877.58 393.703 Q 2877.58 394.766, 2877.05 395.599 Q 2876.52 396.414, 2875.54 396.874 Q 2874.57 397.317, 2873.29 397.317 Q 2871.95 397.317, 2870.94 396.857 Q 2869.95 396.378, 2869.15 395.421 L 2870.16 394.394 Q 2870.94 395.244, 2871.59 395.581 Q 2872.25 395.9, 2873.29 395.9 Q 2874.43 395.9, 2875.12 395.297 Q 2875.81 394.677, 2875.81 393.685 Q 2875.81 392.41, 2875.08 391.843 Q 2874.38 391.258, 2872.83 391.258 L 2871.93 391.258 L 2871.93 389.982 L 2872.73 389.982 Q 2874.09 389.965, 2874.82 389.38 Q 2875.54 388.778, 2875.54 387.661 Q 2875.54 386.846, 2874.94 386.368 Q 2874.34 385.872, 2873.31 385.872 Q 2872.27 385.872, 2871.61 386.244 Q 2870.97 386.616, 2870.48 387.555 L 2869.26 386.899 Q 2869.7 385.854, 2870.76 385.163 Q 2871.82 384.455, 2873.31 384.455 Q 2875.15 384.455, 2876.24 385.323 Q 2877.32 386.191, 2877.32 387.661 Q 2877.32 388.671, 2876.77 389.398 Q 2876.22 390.124, 2875.17 390.532 " fill="#000000"/>
<path class="note" d="M 2953.02 368.302 L 2955.77 368.302 L 2955.77 358.93 L 2952.74 359.869 L 2952.33 358.823 L 2956.18 357.105 L 2957.44 357.317 L 2957.44 368.302 L 2959.9 368.302 L 2959.9 369.719 L 2953.02 369.719 L 2953.02 368.302 " fill="#000000"/>
<path class="note" d="M 2968.58 365.414 L 2970.09 365.414 L 2970.09 366.831 L 2968.58 366.831 L 2968.58 369.719 L 2966.91 369.719 L 2966.91 366.831 L 2960.43 366.831 L 2960.43 365.715 L 2965.92 357.176 L 2968.58 357.176 L 2968.58 365.414 M 2962.49 365.414 L 2966.91 365.414 L 2966.91 358.309 L 2962.49 365.414 " fill="#000000"/>
<path class="note" d="M 2995.87 258.664 L 2998.62 258.664 L 2998.62 249.292 L 2995.59 250.231 L 2995.18 249.186 L 2999.02 247.467 L 3000.28 247.68 L 3000.28 258.664 L 3002.74 258.664 L 3002.74 260.082 L 2995.87 260.082 L 2995.87 258.664 " fill="#000000"/>
<path class="note" d="M 3008.11 252.233 Q 3009.21 252.233, 3010.11 252.711 Q 3011.02 253.172, 3011.53 254.058 Q 3012.05 254.926, 3012.05 256.113 Q 3012.05 257.406, 3011.41 258.345 Q 3010.79 259.267, 3009.76 259.745 Q 3008.73 260.223, 3007.56 260.223 Q 3006.41 260.223, 3005.35 259.798 Q 3004.29 259.373, 3003.56 258.558 L 3004.62 257.459 Q 3005.21 258.097, 3006 258.452 Q 3006.8 258.788, 3007.62 258.788 Q 3008.73 258.788, 3009.49 258.097 Q 3010.27 257.406, 3010.27 256.148 Q 3010.27 254.82, 3009.49 254.199 Q 3008.73 253.562, 3007.51 253.562 Q 3006.41 253.562, 3005.19 254.04 L 3004.22 253.579 L 3004.82 247.538 L 3011.27 247.538 L 3011.09 248.955 L 3006.27 248.955 L 3005.9 252.676 Q 3007.01 252.233, 3008.11 252.233 " fill="#000000"/>
<path class="note" d="M 2905 193.724 L 2907.74 193.724 L 2907.74 184.351 L 2904.71 185.29 L 2904.31 184.245 L 2908.15 182.526 L 2909.41 182.739 L 2909.41 193.724 L 2911.87 193.724 L 2911.87 195.141 L 2905 195.141 L 2905 193.724 " fill="#000000"/>
<path class="note" d="M 2917.98 187.31 Q 2919.08 187.31, 2919.95 187.788 Q 2920.82 188.267, 2921.3 189.135 Q 2921.78 190.003, 2921.78 191.102 Q 2921.78 192.324, 2921.23 193.281 Q 2920.7 194.22, 2919.74 194.751 Q 2918.78 195.283, 2917.56 195.283 Q 2915.33 195.283, 2914.19 193.777 Q 2913.08 192.253, 2913.08 189.241 Q 2913.08 185.91, 2914.46 184.192 Q 2915.86 182.456, 2918.53 182.456 Q 2919.31 182.456, 2919.97 182.633 Q 2920.64 182.81, 2921.28 183.182 L 2920.59 184.369 Q 2919.67 183.873, 2918.55 183.873 Q 2916.78 183.873, 2915.88 185.025 Q 2914.97 186.158, 2914.87 188.515 Q 2915.5 187.93, 2916.3 187.629 Q 2917.12 187.31, 2917.98 187.31 M 2917.58 193.83 Q 2918.25 193.83, 2918.8 193.476 Q 2919.37 193.121, 2919.69 192.501 Q 2920 191.881, 2920 191.119 Q 2920 190.003, 2919.38 189.365 Q 2918.76 188.727, 2917.67 188.727 Q 2916.9 188.727, 2916.14 189.046 Q 2915.4 189.348, 2914.87 189.879 Q 2914.94 191.952, 2915.59 192.891 Q 2916.25 193.83, 2917.58 193.83 " fill="#000000"/>
<path class="note" d="M 2807.2 225.209 L 2809.95 225.209 L 2809.95 215.836 L 2806.92 216.775 L 2806.51 215.73 L 2810.35 214.012 L 2811.61 214.224 L 2811.61 225.209 L 2814.08 225.209 L 2814.08 226.626 L 2807.2 226.626 L 2807.2 225.209 " fill="#000000"/>
<path class="note" d="M 2820.97 215.5 L 2814.39 215.5 L 2814.39 214.082 L 2822.72 214.082 L 2822.72 215.34 L 2817.65 226.626 L 2815.95 226.626 L 2820.97 215.5 " fill="#000000"/>
<path d="M 1536.59 252.199 L 1542.64 252.199 L 1542.64 245.831 L 1545.33 245.831 L 1545.33 252.199 L 1551.53 252.199 L 1551.53 254.503 L 1545.33 254.503 L 1545.33 260.903 L 1542.64 260.903 L 1542.64 254.503 L 1536.59 254.503 L 1536.59 252.199 " fill="#000000"/>
<path d="M 2083.41,254.503 L 2338.22,254.503" style="fill:none;fill-rule:evenodd;stroke:#000000;stroke-width:2.0px;stroke-linecap:butt;stroke-linejoin:miter;stroke-opacity:1"/>
<path d="M 2338.22,254.503 L 2327.19,248.133" style="fill:none;fill-rule:evenodd;stroke:#000000;stroke-width:2.0px;stroke-linecap:butt;stroke-linejoin:miter;stroke-opacity:1"/>
<path d="M 2338.22,254.503 L 2327.19,260.873" style="fill:none;fill-rule:evenodd;stroke:#000000;stroke-width:2.0px;stroke-linecap:butt;stroke-linejoin:miter;stroke-opacity:1"/>
</svg>