<svg xmlns="http://www.w3.org/2000/svg" xmlns:rdkit="http://www.rdkit.org/xml" xmlns:xlink="http://www.w3.org/1999/xlink" version="1.1" baseProfile="full" xml:space="preserve" width="4000px" height="500px" viewBox="0 0 4000 500">
<!-- END OF HEADER -->
<rect style="opacity:1.0;fill:#FFFFFF;stroke:none" width="4000" height="500" x="0" y="0"> </rect>
<path d="M 507.575,338.596 L 385.963,285.308" style="fill:none;fill-rule:evenodd;stroke:#FFFFAA;stroke-width:28.3px;stroke-linecap:butt;stroke-linejoin:miter;stroke-opacity:1"/>
<path d="M 385.963,285.308 L 279.008,363.983" style="fill:none;fill-rule:evenodd;stroke:#FFFFAA;stroke-width:28.3px;stroke-linecap:butt;stroke-linejoin:miter;stroke-opacity:1"/>
<path d="M 385.963,285.308 L 371.305,153.345" style="fill:none;fill-rule:evenodd;stroke:#FFFFAA;stroke-width:28.3px;stroke-linecap:butt;stroke-linejoin:miter;stroke-opacity:1"/>
<path d="M 1403.98,381.989 L 1497.87,288.103" style="fill:none;fill-rule:evenodd;stroke:#FFCC99;stroke-width:28.3px;stroke-linecap:butt;stroke-linejoin:miter;stroke-opacity:1"/>
<path d="M 1497.87,288.103 L 1463.5,159.852" style="fill:none;fill-rule:evenodd;stroke:#FFCC99;stroke-width:28.3px;stroke-linecap:butt;stroke-linejoin:miter;stroke-opacity:1"/>
<path d="M 1497.87,288.103 L 1626.12,322.467" style="fill:none;fill-rule:evenodd;stroke:#FFCC99;stroke-width:28.3px;stroke-linecap:butt;stroke-linejoin:miter;stroke-opacity:1"/>
<path d="M 1463.5,159.852 L 1557.39,65.9661" style="fill:none;fill-rule:evenodd;stroke:#FFCC99;stroke-width:28.3px;stroke-linecap:butt;stroke-linejoin:miter;stroke-opacity:1"/>
<path d="M 1557.39,65.9661 L 1685.64,100.331" style="fill:none;fill-rule:evenodd;stroke:#FFCC99;stroke-width:28.3px;stroke-linecap:butt;stroke-linejoin:miter;stroke-opacity:1"/>
<path d="M 1685.64,100.331 L 1720,228.581" style="fill:none;fill-rule:evenodd;stroke:#FFCC99;stroke-width:28.3px;stroke-linecap:butt;stroke-linejoin:miter;stroke-opacity:1"/>
<path d="M 1720,228.581 L 1848.25,262.946" style="fill:none;fill-rule:evenodd;stroke:#FFCC99;stroke-width:28.3px;stroke-linecap:butt;stroke-linejoin:miter;stroke-opacity:1"/>
<path d="M 1720,228.581 L 1626.12,322.467" style="fill:none;fill-rule:evenodd;stroke:#FFCC99;stroke-width:28.3px;stroke-linecap:butt;stroke-linejoin:miter;stroke-opacity:1"/>
<path d="M 1848.25,262.946 L 1882.62,391.196" style="fill:none;fill-rule:evenodd;stroke:#FFCC99;stroke-width:28.3px;stroke-linecap:butt;stroke-linejoin:miter;stroke-opacity:1"/>
<path d="M 1848.25,262.946 L 1942.14,169.06" style="fill:none;fill-rule:evenodd;stroke:#FFCC99;stroke-width:28.3px;stroke-linecap:butt;stroke-linejoin:miter;stroke-opacity:1"/>
<path d="M 1626.12,322.467 L 1660.48,450.718" style="fill:none;fill-rule:evenodd;stroke:#FFCC99;stroke-width:28.3px;stroke-linecap:butt;stroke-linejoin:miter;stroke-opacity:1"/>
<path d="M 2919.24,363.983 L 3026.19,285.308" style="fill:none;fill-rule:evenodd;stroke:#FFFFAA;stroke-width:28.3px;stroke-linecap:butt;stroke-linejoin:miter;stroke-opacity:1"/>
<path d="M 3026.19,285.308 L 3011.54,153.345" style="fill:none;fill-rule:evenodd;stroke:#FFFFAA;stroke-width:28.3px;stroke-linecap:butt;stroke-linejoin:miter;stroke-opacity:1"/>
<path d="M 3147.81,338.596 L 3254.76,259.921" style="fill:none;fill-rule:evenodd;stroke:#FFCC99;stroke-width:28.3px;stroke-linecap:butt;stroke-linejoin:miter;stroke-opacity:1"/>
<path d="M 3254.76,259.921 L 3240.1,127.957" style="fill:none;fill-rule:evenodd;stroke:#FFCC99;stroke-width:28.3px;stroke-linecap:butt;stroke-linejoin:miter;stroke-opacity:1"/>
<path d="M 3254.76,259.921 L 3376.37,313.209" style="fill:none;fill-rule:evenodd;stroke:#FFCC99;stroke-width:28.3px;stroke-linecap:butt;stroke-linejoin:miter;stroke-opacity:1"/>
<path d="M 3240.1,127.957 L 3347.06,49.2822" style="fill:none;fill-rule:evenodd;stroke:#FFCC99;stroke-width:28.3px;stroke-linecap:butt;stroke-linejoin:miter;stroke-opacity:1"/>
<path d="M 3347.06,49.2822 L 3468.67,102.57" style="fill:none;fill-rule:evenodd;stroke:#FFCC99;stroke-width:28.3px;stroke-linecap:butt;stroke-linejoin:miter;stroke-opacity:1"/>
<path d="M 3468.67,102.57 L 3483.33,234.534" style="fill:none;fill-rule:evenodd;stroke:#FFCC99;stroke-width:28.3px;stroke-linecap:butt;stroke-linejoin:miter;stroke-opacity:1"/>
<path d="M 3483.33,234.534 L 3604.94,287.822" style="fill:none;fill-rule:evenodd;stroke:#FFCC99;stroke-width:28.3px;stroke-linecap:butt;stroke-linejoin:miter;stroke-opacity:1"/>
<path d="M 3483.33,234.534 L 3376.37,313.209" style="fill:none;fill-rule:evenodd;stroke:#FFCC99;stroke-width:28.3px;stroke-linecap:butt;stroke-linejoin:miter;stroke-opacity:1"/>
<path d="M 3604.94,287.822 L 3619.6,419.785" style="fill:none;fill-rule:evenodd;stroke:#FFCC99;stroke-width:28.3px;stroke-linecap:butt;stroke-linejoin:miter;stroke-opacity:1"/>
<path d="M 3604.94,287.822 L 3711.9,209.146" style="fill:none;fill-rule:evenodd;stroke:#FFCC99;stroke-width:28.3px;stroke-linecap:butt;stroke-linejoin:miter;stroke-opacity:1"/>
<path d="M 3376.37,313.209 L 3391.03,445.172" style="fill:none;fill-rule:evenodd;stroke:#FFCC99;stroke-width:28.3px;stroke-linecap:butt;stroke-linejoin:miter;stroke-opacity:1"/>
<ellipse cx="385.963" cy="285.308" rx="26.555" ry="26.555" style="fill:#FFFFAA;fill-rule:evenodd;stroke:#FFFFAA;stroke-width:1px;stroke-linecap:butt;stroke-linejoin:miter;stroke-opacity:1"/>
<ellipse cx="279.008" cy="363.983" rx="26.555" ry="26.555" style="fill:#FFFFAA;fill-rule:evenodd;stroke:#FFFFAA;stroke-width:1px;stroke-linecap:butt;stroke-linejoin:miter;stroke-opacity:1"/>
<ellipse cx="371.305" cy="153.565" rx="26.555" ry="26.555" style="fill:#FFFFAA;fill-rule:evenodd;stroke:#FFFFAA;stroke-width:1px;stroke-linecap:butt;stroke-linejoin:miter;stroke-opacity:1"/>
<ellipse cx="1384.28" cy="389.069" rx="43.0436" ry="30.0379" style="fill:#FFCC99;fill-rule:evenodd;stroke:#FFCC99;stroke-width:1px;stroke-linecap:butt;stroke-linejoin:miter;stroke-opacity:1"/>
<ellipse cx="1497.87" cy="288.103" rx="26.555" ry="26.555" style="fill:#FFCC99;fill-rule:evenodd;stroke:#FFCC99;stroke-width:1px;stroke-linecap:butt;stroke-linejoin:miter;stroke-opacity:1"/>
<ellipse cx="1463.5" cy="159.852" rx="26.555" ry="26.555" style="fill:#FFCC99;fill-rule:evenodd;stroke:#FFCC99;stroke-width:1px;stroke-linecap:butt;stroke-linejoin:miter;stroke-opacity:1"/>
<ellipse cx="1557.39" cy="65.9661" rx="26.555" ry="26.555" style="fill:#FFCC99;fill-rule:evenodd;stroke:#FFCC99;stroke-width:1px;stroke-linecap:butt;stroke-linejoin:miter;stroke-opacity:1"/>
<ellipse cx="1685.64" cy="100.331" rx="26.555" ry="26.555" style="fill:#FFCC99;fill-rule:evenodd;stroke:#FFCC99;stroke-width:1px;stroke-linecap:butt;stroke-linejoin:miter;stroke-opacity:1"/>
<ellipse cx="1720" cy="228.581" rx="26.555" ry="26.555" style="fill:#FFCC99;fill-rule:evenodd;stroke:#FFCC99;stroke-width:1px;stroke-linecap:butt;stroke-linejoin:miter;stroke-opacity:1"/>
<ellipse cx="1855.61" cy="262.872" rx="26.555" ry="26.555" style="fill:#FFCC99;fill-rule:evenodd;stroke:#FFCC99;stroke-width:1px;stroke-linecap:butt;stroke-linejoin:miter;stroke-opacity:1"/>
<ellipse cx="1882.62" cy="391.416" rx="26.555" ry="26.555" style="fill:#FFCC99;fill-rule:evenodd;stroke:#FFCC99;stroke-width:1px;stroke-linecap:butt;stroke-linejoin:miter;stroke-opacity:1"/>
<ellipse cx="1947.64" cy="169.28" rx="26.555" ry="26.555" style="fill:#FFCC99;fill-rule:evenodd;stroke:#FFCC99;stroke-width:1px;stroke-linecap:butt;stroke-linejoin:miter;stroke-opacity:1"/>
<ellipse cx="1626.12" cy="322.467" rx="26.555" ry="26.555" style="fill:#FFCC99;fill-rule:evenodd;stroke:#FFCC99;stroke-width:1px;stroke-linecap:butt;stroke-linejoin:miter;stroke-opacity:1"/>
<ellipse cx="1660.48" cy="450.718" rx="26.555" ry="26.555" style="fill:#FFCC99;fill-rule:evenodd;stroke:#FFCC99;stroke-width:1px;stroke-linecap:butt;stroke-linejoin:miter;stroke-opacity:1"/>
<ellipse cx="2919.24" cy="363.983" rx="26.555" ry="26.555" style="fill:#FFFFAA;fill-rule:evenodd;stroke:#FFFFAA;stroke-width:1px;stroke-linecap:butt;stroke-linejoin:miter;stroke-opacity:1"/>
<ellipse cx="3026.19" cy="285.308" rx="26.555" ry="26.555" style="fill:#FFFFAA;fill-rule:evenodd;stroke:#FFFFAA;stroke-width:1px;stroke-linecap:butt;stroke-linejoin:miter;stroke-opacity:1"/>
<ellipse cx="3011.54" cy="153.565" rx="26.555" ry="26.555" style="fill:#FFFFAA;fill-rule:evenodd;stroke:#FFFFAA;stroke-width:1px;stroke-linecap:butt;stroke-linejoin:miter;stroke-opacity:1"/>
<ellipse cx="3147.81" cy="354.172" rx="26.555" ry="42.0531" style="fill:#FFCC99;fill-rule:evenodd;stroke:#FFCC99;stroke-width:1px;stroke-linecap:butt;stroke-linejoin:miter;stroke-opacity:1"/>
<ellipse cx="3254.76" cy="259.921" rx="26.555" ry="26.555" style="fill:#FFCC99;fill-rule:evenodd;stroke:#FFCC99;stroke-width:1px;stroke-linecap:butt;stroke-linejoin:miter;stroke-opacity:1"/>
<ellipse cx="3240.1" cy="127.957" rx="26.555" ry="26.555" style="fill:#FFCC99;fill-rule:evenodd;stroke:#FFCC99;stroke-width:1px;stroke-linecap:butt;stroke-linejoin:miter;stroke-opacity:1"/>
<ellipse cx="3347.06" cy="49.2822" rx="26.555" ry="26.555" style="fill:#FFCC99;fill-rule:evenodd;stroke:#FFCC99;stroke-width:1px;stroke-linecap:butt;stroke-linejoin:miter;stroke-opacity:1"/>
<ellipse cx="3468.67" cy="102.57" rx="26.555" ry="26.555" style="fill:#FFCC99;fill-rule:evenodd;stroke:#FFCC99;stroke-width:1px;stroke-linecap:butt;stroke-linejoin:miter;stroke-opacity:1"/>
<ellipse cx="3483.33" cy="234.534" rx="26.555" ry="26.555" style="fill:#FFCC99;fill-rule:evenodd;stroke:#FFCC99;stroke-width:1px;stroke-linecap:butt;stroke-linejoin:miter;stroke-opacity:1"/>
<ellipse cx="3612.29" cy="287.747" rx="26.555" ry="26.555" style="fill:#FFCC99;fill-rule:evenodd;stroke:#FFCC99;stroke-width:1px;stroke-linecap:butt;stroke-linejoin:miter;stroke-opacity:1"/>
<ellipse cx="3619.6" cy="420.005" rx="26.555" ry="26.555" style="fill:#FFCC99;fill-rule:evenodd;stroke:#FFCC99;stroke-width:1px;stroke-linecap:butt;stroke-linejoin:miter;stroke-opacity:1"/>
<ellipse cx="3717.4" cy="209.366" rx="26.555" ry="26.555" style="fill:#FFCC99;fill-rule:evenodd;stroke:#FFCC99;stroke-width:1px;stroke-linecap:butt;stroke-linejoin:miter;stroke-opacity:1"/>
<ellipse cx="3376.37" cy="313.209" rx="26.555" ry="26.555" style="fill:#FFCC99;fill-rule:evenodd;stroke:#FFCC99;stroke-width:1px;stroke-linecap:butt;stroke-linejoin:miter;stroke-opacity:1"/>
<ellipse cx="3391.03" cy="445.172" rx="26.555" ry="26.555" style="fill:#FFCC99;fill-rule:evenodd;stroke:#FFCC99;stroke-width:1px;stroke-linecap:butt;stroke-linejoin:miter;stroke-opacity:1"/>
<path class="bond-0" d="M 750.799,445.172 L 736.142,313.209" style="fill:none;fill-rule:evenodd;stroke:#000000;stroke-width:2.0px;stroke-linecap:butt;stroke-linejoin:miter;stroke-opacity:1"/>
<path class="bond-1" d="M 736.142,313.209 L 614.53,259.921" style="fill:none;fill-rule:evenodd;stroke:#000000;stroke-width:2.0px;stroke-linecap:butt;stroke-linejoin:miter;stroke-opacity:1"/>
<path class="bond-1" d="M 728.558,280.893 L 643.429,243.591" style="fill:none;fill-rule:evenodd;stroke:#000000;stroke-width:2.0px;stroke-linecap:butt;stroke-linejoin:miter;stroke-opacity:1;stroke-dasharray:6,6"/>
<path class="bond-13" d="M 736.142,313.209 L 843.097,234.534" style="fill:none;fill-rule:evenodd;stroke:#000000;stroke-width:2.0px;stroke-linecap:butt;stroke-linejoin:miter;stroke-opacity:1"/>
<path class="bond-13" d="M 736.45,280.016 L 811.318,224.944" style="fill:none;fill-rule:evenodd;stroke:#000000;stroke-width:2.0px;stroke-linecap:butt;stroke-linejoin:miter;stroke-opacity:1;stroke-dasharray:6,6"/>
<path class="bond-2" d="M 614.53,259.921 L 568.082,294.087" style="fill:none;fill-rule:evenodd;stroke:#000000;stroke-width:2.0px;stroke-linecap:butt;stroke-linejoin:miter;stroke-opacity:1"/>
<path class="bond-2" d="M 568.082,294.087 L 521.634,328.254" style="fill:none;fill-rule:evenodd;stroke:#0000FF;stroke-width:2.0px;stroke-linecap:butt;stroke-linejoin:miter;stroke-opacity:1"/>
<path class="bond-6" d="M 614.53,259.921 L 599.872,127.957" style="fill:none;fill-rule:evenodd;stroke:#000000;stroke-width:2.0px;stroke-linecap:butt;stroke-linejoin:miter;stroke-opacity:1"/>
<path class="bond-6" d="M 638.724,237.195 L 628.464,144.82" style="fill:none;fill-rule:evenodd;stroke:#000000;stroke-width:2.0px;stroke-linecap:butt;stroke-linejoin:miter;stroke-opacity:1;stroke-dasharray:6,6"/>
<path class="bond-3" d="M 493.515,332.435 L 439.739,308.872" style="fill:none;fill-rule:evenodd;stroke:#0000FF;stroke-width:2.0px;stroke-linecap:butt;stroke-linejoin:miter;stroke-opacity:1"/>
<path class="bond-3" d="M 439.739,308.872 L 385.963,285.308" style="fill:none;fill-rule:evenodd;stroke:#000000;stroke-width:2.0px;stroke-linecap:butt;stroke-linejoin:miter;stroke-opacity:1"/>
<path class="bond-4" d="M 385.963,285.308 L 279.008,363.983" style="fill:none;fill-rule:evenodd;stroke:#000000;stroke-width:2.0px;stroke-linecap:butt;stroke-linejoin:miter;stroke-opacity:1"/>
<path class="bond-5" d="M 399.159,283.842 L 392.834,226.9" style="fill:none;fill-rule:evenodd;stroke:#000000;stroke-width:2.0px;stroke-linecap:butt;stroke-linejoin:miter;stroke-opacity:1"/>
<path class="bond-5" d="M 392.834,226.9 L 386.51,169.958" style="fill:none;fill-rule:evenodd;stroke:#FF0000;stroke-width:2.0px;stroke-linecap:butt;stroke-linejoin:miter;stroke-opacity:1"/>
<path class="bond-5" d="M 372.766,286.774 L 366.442,229.832" style="fill:none;fill-rule:evenodd;stroke:#000000;stroke-width:2.0px;stroke-linecap:butt;stroke-linejoin:miter;stroke-opacity:1"/>
<path class="bond-5" d="M 366.442,229.832 L 360.117,172.89" style="fill:none;fill-rule:evenodd;stroke:#FF0000;stroke-width:2.0px;stroke-linecap:butt;stroke-linejoin:miter;stroke-opacity:1"/>
<path class="bond-7" d="M 599.872,127.957 L 706.827,49.2822" style="fill:none;fill-rule:evenodd;stroke:#000000;stroke-width:2.0px;stroke-linecap:butt;stroke-linejoin:miter;stroke-opacity:1"/>
<path class="bond-7" d="M 631.651,137.547 L 706.519,82.4745" style="fill:none;fill-rule:evenodd;stroke:#000000;stroke-width:2.0px;stroke-linecap:butt;stroke-linejoin:miter;stroke-opacity:1;stroke-dasharray:6,6"/>
<path class="bond-8" d="M 706.827,49.2822 L 828.439,102.57" style="fill:none;fill-rule:evenodd;stroke:#000000;stroke-width:2.0px;stroke-linecap:butt;stroke-linejoin:miter;stroke-opacity:1"/>
<path class="bond-8" d="M 714.412,81.5979 L 799.54,118.899" style="fill:none;fill-rule:evenodd;stroke:#000000;stroke-width:2.0px;stroke-linecap:butt;stroke-linejoin:miter;stroke-opacity:1;stroke-dasharray:6,6"/>
<path class="bond-9" d="M 828.439,102.57 L 843.097,234.534" style="fill:none;fill-rule:evenodd;stroke:#000000;stroke-width:2.0px;stroke-linecap:butt;stroke-linejoin:miter;stroke-opacity:1"/>
<path class="bond-9" d="M 804.245,125.296 L 814.506,217.67" style="fill:none;fill-rule:evenodd;stroke:#000000;stroke-width:2.0px;stroke-linecap:butt;stroke-linejoin:miter;stroke-opacity:1;stroke-dasharray:6,6"/>
<path class="bond-10" d="M 843.097,234.534 L 896.873,258.097" style="fill:none;fill-rule:evenodd;stroke:#000000;stroke-width:2.0px;stroke-linecap:butt;stroke-linejoin:miter;stroke-opacity:1"/>
<path class="bond-10" d="M 896.873,258.097 L 950.65,281.661" style="fill:none;fill-rule:evenodd;stroke:#0000FF;stroke-width:2.0px;stroke-linecap:butt;stroke-linejoin:miter;stroke-opacity:1"/>
<path class="bond-11" d="M 996.541,280.889 L 1030.25,256.094" style="fill:none;fill-rule:evenodd;stroke:#0000FF;stroke-width:2.0px;stroke-linecap:butt;stroke-linejoin:miter;stroke-opacity:1"/>
<path class="bond-11" d="M 1030.25,256.094 L 1063.96,231.299" style="fill:none;fill-rule:evenodd;stroke:#FF0000;stroke-width:2.0px;stroke-linecap:butt;stroke-linejoin:miter;stroke-opacity:1"/>
<path class="bond-11" d="M 980.806,259.498 L 1014.51,234.703" style="fill:none;fill-rule:evenodd;stroke:#0000FF;stroke-width:2.0px;stroke-linecap:butt;stroke-linejoin:miter;stroke-opacity:1"/>
<path class="bond-11" d="M 1014.51,234.703 L 1048.22,209.908" style="fill:none;fill-rule:evenodd;stroke:#FF0000;stroke-width:2.0px;stroke-linecap:butt;stroke-linejoin:miter;stroke-opacity:1"/>
<path class="bond-12" d="M 966.65,305.301 L 972.053,353.943" style="fill:none;fill-rule:evenodd;stroke:#0000FF;stroke-width:2.0px;stroke-linecap:butt;stroke-linejoin:miter;stroke-opacity:1"/>
<path class="bond-12" d="M 972.053,353.943 L 977.456,402.585" style="fill:none;fill-rule:evenodd;stroke:#FF0000;stroke-width:2.0px;stroke-linecap:butt;stroke-linejoin:miter;stroke-opacity:1"/>
<path class="bond-14" d="M 1418.04,367.929 L 1457.95,328.016" style="fill:none;fill-rule:evenodd;stroke:#0000FF;stroke-width:2.0px;stroke-linecap:butt;stroke-linejoin:miter;stroke-opacity:1"/>
<path class="bond-14" d="M 1457.95,328.016 L 1497.87,288.103" style="fill:none;fill-rule:evenodd;stroke:#000000;stroke-width:2.0px;stroke-linecap:butt;stroke-linejoin:miter;stroke-opacity:1"/>
<path class="bond-15" d="M 1497.87,288.103 L 1463.5,159.852" style="fill:none;fill-rule:evenodd;stroke:#000000;stroke-width:2.0px;stroke-linecap:butt;stroke-linejoin:miter;stroke-opacity:1"/>
<path class="bond-15" d="M 1518.36,261.992 L 1494.31,172.217" style="fill:none;fill-rule:evenodd;stroke:#000000;stroke-width:2.0px;stroke-linecap:butt;stroke-linejoin:miter;stroke-opacity:1;stroke-dasharray:6,6"/>
<path class="bond-24" d="M 1497.87,288.103 L 1626.12,322.467" style="fill:none;fill-rule:evenodd;stroke:#000000;stroke-width:2.0px;stroke-linecap:butt;stroke-linejoin:miter;stroke-opacity:1"/>
<path class="bond-24" d="M 1523.98,267.607 L 1613.75,291.662" style="fill:none;fill-rule:evenodd;stroke:#000000;stroke-width:2.0px;stroke-linecap:butt;stroke-linejoin:miter;stroke-opacity:1;stroke-dasharray:6,6"/>
<path class="bond-16" d="M 1463.5,159.852 L 1557.39,65.9661" style="fill:none;fill-rule:evenodd;stroke:#000000;stroke-width:2.0px;stroke-linecap:butt;stroke-linejoin:miter;stroke-opacity:1"/>
<path class="bond-16" d="M 1496.36,164.546 L 1562.08,98.8261" style="fill:none;fill-rule:evenodd;stroke:#000000;stroke-width:2.0px;stroke-linecap:butt;stroke-linejoin:miter;stroke-opacity:1;stroke-dasharray:6,6"/>
<path class="bond-17" d="M 1557.39,65.9661 L 1685.64,100.331" style="fill:none;fill-rule:evenodd;stroke:#000000;stroke-width:2.0px;stroke-linecap:butt;stroke-linejoin:miter;stroke-opacity:1"/>
<path class="bond-17" d="M 1569.75,96.7709 L 1659.53,120.826" style="fill:none;fill-rule:evenodd;stroke:#000000;stroke-width:2.0px;stroke-linecap:butt;stroke-linejoin:miter;stroke-opacity:1;stroke-dasharray:6,6"/>
<path class="bond-18" d="M 1685.64,100.331 L 1720,228.581" style="fill:none;fill-rule:evenodd;stroke:#000000;stroke-width:2.0px;stroke-linecap:butt;stroke-linejoin:miter;stroke-opacity:1"/>
<path class="bond-18" d="M 1665.14,126.441 L 1689.2,216.217" style="fill:none;fill-rule:evenodd;stroke:#000000;stroke-width:2.0px;stroke-linecap:butt;stroke-linejoin:miter;stroke-opacity:1;stroke-dasharray:6,6"/>
<path class="bond-19" d="M 1720,228.581 L 1777.1,243.88" style="fill:none;fill-rule:evenodd;stroke:#000000;stroke-width:2.0px;stroke-linecap:butt;stroke-linejoin:miter;stroke-opacity:1"/>
<path class="bond-19" d="M 1777.1,243.88 L 1834.19,259.179" style="fill:none;fill-rule:evenodd;stroke:#0000FF;stroke-width:2.0px;stroke-linecap:butt;stroke-linejoin:miter;stroke-opacity:1"/>
<path class="bond-22" d="M 1720,228.581 L 1626.12,322.467" style="fill:none;fill-rule:evenodd;stroke:#000000;stroke-width:2.0px;stroke-linecap:butt;stroke-linejoin:miter;stroke-opacity:1"/>
<path class="bond-22" d="M 1687.14,223.887 L 1621.42,289.607" style="fill:none;fill-rule:evenodd;stroke:#000000;stroke-width:2.0px;stroke-linecap:butt;stroke-linejoin:miter;stroke-opacity:1;stroke-dasharray:6,6"/>
<path class="bond-20" d="M 1840.11,283.862 L 1852.65,330.654" style="fill:none;fill-rule:evenodd;stroke:#0000FF;stroke-width:2.0px;stroke-linecap:butt;stroke-linejoin:miter;stroke-opacity:1"/>
<path class="bond-20" d="M 1852.65,330.654 L 1865.19,377.446" style="fill:none;fill-rule:evenodd;stroke:#FF0000;stroke-width:2.0px;stroke-linecap:butt;stroke-linejoin:miter;stroke-opacity:1"/>
<path class="bond-20" d="M 1865.76,276.989 L 1878.3,323.781" style="fill:none;fill-rule:evenodd;stroke:#0000FF;stroke-width:2.0px;stroke-linecap:butt;stroke-linejoin:miter;stroke-opacity:1"/>
<path class="bond-20" d="M 1878.3,323.781 L 1890.84,370.573" style="fill:none;fill-rule:evenodd;stroke:#FF0000;stroke-width:2.0px;stroke-linecap:butt;stroke-linejoin:miter;stroke-opacity:1"/>
<path class="bond-21" d="M 1865.88,245.318 L 1896.16,215.037" style="fill:none;fill-rule:evenodd;stroke:#0000FF;stroke-width:2.0px;stroke-linecap:butt;stroke-linejoin:miter;stroke-opacity:1"/>
<path class="bond-21" d="M 1896.16,215.037 L 1926.44,184.756" style="fill:none;fill-rule:evenodd;stroke:#FF0000;stroke-width:2.0px;stroke-linecap:butt;stroke-linejoin:miter;stroke-opacity:1"/>
<path class="bond-23" d="M 1626.12,322.467 L 1660.48,450.718" style="fill:none;fill-rule:evenodd;stroke:#000000;stroke-width:2.0px;stroke-linecap:butt;stroke-linejoin:miter;stroke-opacity:1"/>
<path class="bond-25" d="M 2919.24,363.983 L 3026.19,285.308" style="fill:none;fill-rule:evenodd;stroke:#000000;stroke-width:2.0px;stroke-linecap:butt;stroke-linejoin:miter;stroke-opacity:1"/>
<path class="bond-26" d="M 3039.39,283.842 L 3033.07,226.9" style="fill:none;fill-rule:evenodd;stroke:#000000;stroke-width:2.0px;stroke-linecap:butt;stroke-linejoin:miter;stroke-opacity:1"/>
<path class="bond-26" d="M 3033.07,226.9 L 3026.74,169.958" style="fill:none;fill-rule:evenodd;stroke:#FF0000;stroke-width:2.0px;stroke-linecap:butt;stroke-linejoin:miter;stroke-opacity:1"/>
<path class="bond-26" d="M 3013,286.774 L 3006.67,229.832" style="fill:none;fill-rule:evenodd;stroke:#000000;stroke-width:2.0px;stroke-linecap:butt;stroke-linejoin:miter;stroke-opacity:1"/>
<path class="bond-26" d="M 3006.67,229.832 L 3000.35,172.89" style="fill:none;fill-rule:evenodd;stroke:#FF0000;stroke-width:2.0px;stroke-linecap:butt;stroke-linejoin:miter;stroke-opacity:1"/>
<path class="bond-27" d="M 3026.19,285.308 L 3079.97,308.872" style="fill:none;fill-rule:evenodd;stroke:#000000;stroke-width:2.0px;stroke-linecap:butt;stroke-linejoin:miter;stroke-opacity:1"/>
<path class="bond-27" d="M 3079.97,308.872 L 3133.75,332.435" style="fill:none;fill-rule:evenodd;stroke:#0000FF;stroke-width:2.0px;stroke-linecap:butt;stroke-linejoin:miter;stroke-opacity:1"/>
<path class="bond-28" d="M 3161.87,328.254 L 3208.31,294.087" style="fill:none;fill-rule:evenodd;stroke:#0000FF;stroke-width:2.0px;stroke-linecap:butt;stroke-linejoin:miter;stroke-opacity:1"/>
<path class="bond-28" d="M 3208.31,294.087 L 3254.76,259.921" style="fill:none;fill-rule:evenodd;stroke:#000000;stroke-width:2.0px;stroke-linecap:butt;stroke-linejoin:miter;stroke-opacity:1"/>
<path class="bond-29" d="M 3254.76,259.921 L 3240.1,127.957" style="fill:none;fill-rule:evenodd;stroke:#000000;stroke-width:2.0px;stroke-linecap:butt;stroke-linejoin:miter;stroke-opacity:1"/>
<path class="bond-29" d="M 3278.96,237.195 L 3268.7,144.82" style="fill:none;fill-rule:evenodd;stroke:#000000;stroke-width:2.0px;stroke-linecap:butt;stroke-linejoin:miter;stroke-opacity:1;stroke-dasharray:6,6"/>
<path class="bond-38" d="M 3254.76,259.921 L 3376.37,313.209" style="fill:none;fill-rule:evenodd;stroke:#000000;stroke-width:2.0px;stroke-linecap:butt;stroke-linejoin:miter;stroke-opacity:1"/>
<path class="bond-38" d="M 3283.66,243.591 L 3368.79,280.893" style="fill:none;fill-rule:evenodd;stroke:#000000;stroke-width:2.0px;stroke-linecap:butt;stroke-linejoin:miter;stroke-opacity:1;stroke-dasharray:6,6"/>
<path class="bond-30" d="M 3240.1,127.957 L 3347.06,49.2822" style="fill:none;fill-rule:evenodd;stroke:#000000;stroke-width:2.0px;stroke-linecap:butt;stroke-linejoin:miter;stroke-opacity:1"/>
<path class="bond-30" d="M 3271.88,137.547 L 3346.75,82.4745" style="fill:none;fill-rule:evenodd;stroke:#000000;stroke-width:2.0px;stroke-linecap:butt;stroke-linejoin:miter;stroke-opacity:1;stroke-dasharray:6,6"/>
<path class="bond-31" d="M 3347.06,49.2822 L 3468.67,102.57" style="fill:none;fill-rule:evenodd;stroke:#000000;stroke-width:2.0px;stroke-linecap:butt;stroke-linejoin:miter;stroke-opacity:1"/>
<path class="bond-31" d="M 3354.64,81.5979 L 3439.77,118.899" style="fill:none;fill-rule:evenodd;stroke:#000000;stroke-width:2.0px;stroke-linecap:butt;stroke-linejoin:miter;stroke-opacity:1;stroke-dasharray:6,6"/>
<path class="bond-32" d="M 3468.67,102.57 L 3483.33,234.534" style="fill:none;fill-rule:evenodd;stroke:#000000;stroke-width:2.0px;stroke-linecap:butt;stroke-linejoin:miter;stroke-opacity:1"/>
<path class="bond-32" d="M 3444.48,125.296 L 3454.74,217.67" style="fill:none;fill-rule:evenodd;stroke:#000000;stroke-width:2.0px;stroke-linecap:butt;stroke-linejoin:miter;stroke-opacity:1;stroke-dasharray:6,6"/>
<path class="bond-33" d="M 3483.33,234.534 L 3537.1,258.097" style="fill:none;fill-rule:evenodd;stroke:#000000;stroke-width:2.0px;stroke-linecap:butt;stroke-linejoin:miter;stroke-opacity:1"/>
<path class="bond-33" d="M 3537.1,258.097 L 3590.88,281.661" style="fill:none;fill-rule:evenodd;stroke:#0000FF;stroke-width:2.0px;stroke-linecap:butt;stroke-linejoin:miter;stroke-opacity:1"/>
<path class="bond-36" d="M 3483.33,234.534 L 3376.37,313.209" style="fill:none;fill-rule:evenodd;stroke:#000000;stroke-width:2.0px;stroke-linecap:butt;stroke-linejoin:miter;stroke-opacity:1"/>
<path class="bond-36" d="M 3451.55,224.944 L 3376.68,280.016" style="fill:none;fill-rule:evenodd;stroke:#000000;stroke-width:2.0px;stroke-linecap:butt;stroke-linejoin:miter;stroke-opacity:1;stroke-dasharray:6,6"/>
<path class="bond-34" d="M 3593.69,306.767 L 3599.09,355.409" style="fill:none;fill-rule:evenodd;stroke:#0000FF;stroke-width:2.0px;stroke-linecap:butt;stroke-linejoin:miter;stroke-opacity:1"/>
<path class="bond-34" d="M 3599.09,355.409 L 3604.49,404.051" style="fill:none;fill-rule:evenodd;stroke:#FF0000;stroke-width:2.0px;stroke-linecap:butt;stroke-linejoin:miter;stroke-opacity:1"/>
<path class="bond-34" d="M 3620.08,303.835 L 3625.48,352.477" style="fill:none;fill-rule:evenodd;stroke:#0000FF;stroke-width:2.0px;stroke-linecap:butt;stroke-linejoin:miter;stroke-opacity:1"/>
<path class="bond-34" d="M 3625.48,352.477 L 3630.88,401.119" style="fill:none;fill-rule:evenodd;stroke:#FF0000;stroke-width:2.0px;stroke-linecap:butt;stroke-linejoin:miter;stroke-opacity:1"/>
<path class="bond-35" d="M 3628.91,270.193 L 3662.61,245.399" style="fill:none;fill-rule:evenodd;stroke:#0000FF;stroke-width:2.0px;stroke-linecap:butt;stroke-linejoin:miter;stroke-opacity:1"/>
<path class="bond-35" d="M 3662.61,245.399 L 3696.32,220.604" style="fill:none;fill-rule:evenodd;stroke:#FF0000;stroke-width:2.0px;stroke-linecap:butt;stroke-linejoin:miter;stroke-opacity:1"/>
<path class="bond-37" d="M 3376.37,313.209 L 3391.03,445.172" style="fill:none;fill-rule:evenodd;stroke:#000000;stroke-width:2.0px;stroke-linecap:butt;stroke-linejoin:miter;stroke-opacity:1"/>
<path class="bond-39" d="M 2338.62,131.93 L 2303.5,83.5918" style="fill:none;fill-rule:evenodd;stroke:#000000;stroke-width:2.0px;stroke-linecap:butt;stroke-linejoin:miter;stroke-opacity:1"/>
<path class="bond-43" d="M 2338.62,131.93 L 2303.5,180.267" style="fill:none;fill-rule:evenodd;stroke:#000000;stroke-width:2.0px;stroke-linecap:butt;stroke-linejoin:miter;stroke-opacity:1"/>
<path class="bond-40" d="M 2303.5,83.5918 L 2246.67,102.055" style="fill:none;fill-rule:evenodd;stroke:#000000;stroke-width:2.0px;stroke-linecap:butt;stroke-linejoin:miter;stroke-opacity:1"/>
<path class="bond-41" d="M 2246.67,102.055 L 2246.67,124.023" style="fill:none;fill-rule:evenodd;stroke:#000000;stroke-width:2.0px;stroke-linecap:butt;stroke-linejoin:miter;stroke-opacity:1"/>
<path class="bond-41" d="M 2246.67,124.023 L 2246.67,145.99" style="fill:none;fill-rule:evenodd;stroke:#FF0000;stroke-width:2.0px;stroke-linecap:butt;stroke-linejoin:miter;stroke-opacity:1"/>
<path class="bond-42" d="M 2261.17,166.513 L 2282.33,173.39" style="fill:none;fill-rule:evenodd;stroke:#FF0000;stroke-width:2.0px;stroke-linecap:butt;stroke-linejoin:miter;stroke-opacity:1"/>
<path class="bond-42" d="M 2282.33,173.39 L 2303.5,180.267" style="fill:none;fill-rule:evenodd;stroke:#000000;stroke-width:2.0px;stroke-linecap:butt;stroke-linejoin:miter;stroke-opacity:1"/>
<path class="bond-44" d="M 2427.13,97.7874 L 2478.88,127.662" style="fill:none;fill-rule:evenodd;stroke:#000000;stroke-width:2.0px;stroke-linecap:butt;stroke-linejoin:miter;stroke-opacity:1"/>
<path class="bond-45" d="M 2470.91,127.662 L 2470.91,149.629" style="fill:none;fill-rule:evenodd;stroke:#000000;stroke-width:2.0px;stroke-linecap:butt;stroke-linejoin:miter;stroke-opacity:1"/>
<path class="bond-45" d="M 2470.91,149.629 L 2470.91,171.597" style="fill:none;fill-rule:evenodd;stroke:#FF0000;stroke-width:2.0px;stroke-linecap:butt;stroke-linejoin:miter;stroke-opacity:1"/>
<path class="bond-45" d="M 2486.85,127.662 L 2486.85,149.629" style="fill:none;fill-rule:evenodd;stroke:#000000;stroke-width:2.0px;stroke-linecap:butt;stroke-linejoin:miter;stroke-opacity:1"/>
<path class="bond-45" d="M 2486.85,149.629 L 2486.85,171.597" style="fill:none;fill-rule:evenodd;stroke:#FF0000;stroke-width:2.0px;stroke-linecap:butt;stroke-linejoin:miter;stroke-opacity:1"/>
<path class="bond-46" d="M 2478.88,127.662 L 2497.5,116.909" style="fill:none;fill-rule:evenodd;stroke:#000000;stroke-width:2.0px;stroke-linecap:butt;stroke-linejoin:miter;stroke-opacity:1"/>
<path class="bond-46" d="M 2497.5,116.909 L 2516.13,106.155" style="fill:none;fill-rule:evenodd;stroke:#FF0000;stroke-width:2.0px;stroke-linecap:butt;stroke-linejoin:miter;stroke-opacity:1"/>
<path class="bond-47" d="M 2545.12,106.155 L 2563.74,116.909" style="fill:none;fill-rule:evenodd;stroke:#FF0000;stroke-width:2.0px;stroke-linecap:butt;stroke-linejoin:miter;stroke-opacity:1"/>
<path class="bond-47" d="M 2563.74,116.909 L 2582.37,127.662" style="fill:none;fill-rule:evenodd;stroke:#000000;stroke-width:2.0px;stroke-linecap:butt;stroke-linejoin:miter;stroke-opacity:1"/>
<path class="bond-48" d="M 2582.37,127.662 L 2634.11,97.7874" style="fill:none;fill-rule:evenodd;stroke:#000000;stroke-width:2.0px;stroke-linecap:butt;stroke-linejoin:miter;stroke-opacity:1"/>
<path class="bond-49" d="M 2574.4,127.662 L 2574.4,149.629" style="fill:none;fill-rule:evenodd;stroke:#000000;stroke-width:2.0px;stroke-linecap:butt;stroke-linejoin:miter;stroke-opacity:1"/>
<path class="bond-49" d="M 2574.4,149.629 L 2574.4,171.597" style="fill:none;fill-rule:evenodd;stroke:#FF0000;stroke-width:2.0px;stroke-linecap:butt;stroke-linejoin:miter;stroke-opacity:1"/>
<path class="bond-49" d="M 2590.33,127.662 L 2590.33,149.629" style="fill:none;fill-rule:evenodd;stroke:#000000;stroke-width:2.0px;stroke-linecap:butt;stroke-linejoin:miter;stroke-opacity:1"/>
<path class="bond-49" d="M 2590.33,149.629 L 2590.33,171.597" style="fill:none;fill-rule:evenodd;stroke:#FF0000;stroke-width:2.0px;stroke-linecap:butt;stroke-linejoin:miter;stroke-opacity:1"/>
<path class="atom-3" d="M 501.315 324.436 L 510.595 339.436 Q 511.515 340.916, 512.995 343.596 Q 514.475 346.276, 514.555 346.436 L 514.555 324.436 L 518.315 324.436 L 518.315 352.756 L 514.435 352.756 L 504.475 336.356 Q 503.315 334.436, 502.075 332.236 Q 500.875 330.036, 500.515 329.356 L 500.515 352.756 L 496.835 352.756 L 496.835 324.436 L 501.315 324.436 " fill="#0000FF"/>
<path class="atom-3" d="M 496.495 355.588 L 500.335 355.588 L 500.335 367.628 L 514.815 367.628 L 514.815 355.588 L 518.655 355.588 L 518.655 383.908 L 514.815 383.908 L 514.815 370.828 L 500.335 370.828 L 500.335 383.908 L 496.495 383.908 L 496.495 355.588 " fill="#0000FF"/>
<path class="atom-6" d="M 358.305 153.425 Q 358.305 146.625, 361.665 142.825 Q 365.025 139.025, 371.305 139.025 Q 377.585 139.025, 380.945 142.825 Q 384.305 146.625, 384.305 153.425 Q 384.305 160.305, 380.905 164.225 Q 377.505 168.105, 371.305 168.105 Q 365.065 168.105, 361.665 164.225 Q 358.305 160.345, 358.305 153.425 M 371.305 164.905 Q 375.625 164.905, 377.945 162.025 Q 380.305 159.105, 380.305 153.425 Q 380.305 147.865, 377.945 145.065 Q 375.625 142.225, 371.305 142.225 Q 366.985 142.225, 364.625 145.025 Q 362.305 147.825, 362.305 153.425 Q 362.305 159.145, 364.625 162.025 Q 366.985 164.905, 371.305 164.905 " fill="#FF0000"/>
<path class="atom-11" d="M 958.449 273.662 L 967.729 288.662 Q 968.649 290.142, 970.129 292.822 Q 971.609 295.502, 971.689 295.662 L 971.689 273.662 L 975.449 273.662 L 975.449 301.982 L 971.569 301.982 L 961.609 285.582 Q 960.449 283.662, 959.209 281.462 Q 958.009 279.262, 957.649 278.582 L 957.649 301.982 L 953.969 301.982 L 953.969 273.662 L 958.449 273.662 " fill="#0000FF"/>
<path class="atom-11" d="M 977.825 278.766 L 982.815 278.766 L 982.815 273.513 L 985.032 273.513 L 985.032 278.766 L 990.154 278.766 L 990.154 280.667 L 985.032 280.667 L 985.032 285.947 L 982.815 285.947 L 982.815 280.667 L 977.825 280.667 L 977.825 278.766 " fill="#0000FF"/>
<path class="atom-12" d="M 1058.66 209.226 Q 1058.66 202.426, 1062.02 198.626 Q 1065.38 194.826, 1071.66 194.826 Q 1077.94 194.826, 1081.3 198.626 Q 1084.66 202.426, 1084.66 209.226 Q 1084.66 216.106, 1081.26 220.026 Q 1077.86 223.906, 1071.66 223.906 Q 1065.42 223.906, 1062.02 220.026 Q 1058.66 216.146, 1058.66 209.226 M 1071.66 220.706 Q 1075.98 220.706, 1078.3 217.826 Q 1080.66 214.906, 1080.66 209.226 Q 1080.66 203.666, 1078.3 200.866 Q 1075.98 198.026, 1071.66 198.026 Q 1067.34 198.026, 1064.98 200.826 Q 1062.66 203.626, 1062.66 209.226 Q 1062.66 214.946, 1064.98 217.826 Q 1067.34 220.706, 1071.66 220.706 " fill="#FF0000"/>
<path class="atom-13" d="M 966.366 419.865 Q 966.366 413.065, 969.726 409.265 Q 973.086 405.465, 979.366 405.465 Q 985.646 405.465, 989.006 409.265 Q 992.366 413.065, 992.366 419.865 Q 992.366 426.745, 988.966 430.665 Q 985.566 434.545, 979.366 434.545 Q 973.126 434.545, 969.726 430.665 Q 966.366 426.785, 966.366 419.865 M 979.366 431.345 Q 983.686 431.345, 986.006 428.465 Q 988.366 425.545, 988.366 419.865 Q 988.366 414.305, 986.006 411.505 Q 983.686 408.665, 979.366 408.665 Q 975.046 408.665, 972.686 411.465 Q 970.366 414.265, 970.366 419.865 Q 970.366 425.585, 972.686 428.465 Q 975.046 431.345, 979.366 431.345 " fill="#FF0000"/>
<path class="atom-13" d="M 993.686 410.087 L 1003.38 410.087 L 1003.38 412.199 L 993.686 412.199 L 993.686 410.087 " fill="#FF0000"/>
<path class="atom-14" d="M 1353.85 367.829 L 1357.69 367.829 L 1357.69 379.869 L 1372.17 379.869 L 1372.17 367.829 L 1376.01 367.829 L 1376.01 396.149 L 1372.17 396.149 L 1372.17 383.069 L 1357.69 383.069 L 1357.69 396.149 L 1353.85 396.149 L 1353.85 367.829 " fill="#0000FF"/>
<path class="atom-14" d="M 1377.38 395.155 Q 1378.07 393.386, 1379.7 392.409 Q 1381.34 391.406, 1383.61 391.406 Q 1386.44 391.406, 1388.02 392.937 Q 1389.6 394.469, 1389.6 397.188 Q 1389.6 399.96, 1387.54 402.547 Q 1385.51 405.134, 1381.29 408.197 L 1389.92 408.197 L 1389.92 410.309 L 1377.33 410.309 L 1377.33 408.54 Q 1380.81 406.058, 1382.87 404.21 Q 1384.96 402.362, 1385.96 400.699 Q 1386.96 399.036, 1386.96 397.32 Q 1386.96 395.525, 1386.07 394.521 Q 1385.17 393.518, 1383.61 393.518 Q 1382.11 393.518, 1381.1 394.125 Q 1380.1 394.733, 1379.39 396.079 L 1377.38 395.155 " fill="#0000FF"/>
<path class="atom-14" d="M 1397.72 367.829 L 1407 382.829 Q 1407.92 384.309, 1409.4 386.989 Q 1410.88 389.669, 1410.96 389.829 L 1410.96 367.829 L 1414.72 367.829 L 1414.72 396.149 L 1410.84 396.149 L 1400.88 379.749 Q 1399.72 377.829, 1398.48 375.629 Q 1397.28 373.429, 1396.92 372.749 L 1396.92 396.149 L 1393.24 396.149 L 1393.24 367.829 L 1397.72 367.829 " fill="#0000FF"/>
<path class="atom-20" d="M 1841.99 248.786 L 1851.27 263.786 Q 1852.19 265.266, 1853.67 267.946 Q 1855.15 270.626, 1855.23 270.786 L 1855.23 248.786 L 1858.99 248.786 L 1858.99 277.106 L 1855.11 277.106 L 1845.15 260.706 Q 1843.99 258.786, 1842.75 256.586 Q 1841.55 254.386, 1841.19 253.706 L 1841.19 277.106 L 1837.51 277.106 L 1837.51 248.786 L 1841.99 248.786 " fill="#0000FF"/>
<path class="atom-20" d="M 1861.37 253.891 L 1866.36 253.891 L 1866.36 248.637 L 1868.58 248.637 L 1868.58 253.891 L 1873.7 253.891 L 1873.7 255.792 L 1868.58 255.792 L 1868.58 261.072 L 1866.36 261.072 L 1866.36 255.792 L 1861.37 255.792 L 1861.37 253.891 " fill="#0000FF"/>
<path class="atom-21" d="M 1869.62 391.276 Q 1869.62 384.476, 1872.98 380.676 Q 1876.34 376.876, 1882.62 376.876 Q 1888.9 376.876, 1892.26 380.676 Q 1895.62 384.476, 1895.62 391.276 Q 1895.62 398.156, 1892.22 402.076 Q 1888.82 405.956, 1882.62 405.956 Q 1876.38 405.956, 1872.98 402.076 Q 1869.62 398.196, 1869.62 391.276 M 1882.62 402.756 Q 1886.94 402.756, 1889.26 399.876 Q 1891.62 396.956, 1891.62 391.276 Q 1891.62 385.716, 1889.26 382.916 Q 1886.94 380.076, 1882.62 380.076 Q 1878.3 380.076, 1875.94 382.876 Q 1873.62 385.676, 1873.62 391.276 Q 1873.62 396.996, 1875.94 399.876 Q 1878.3 402.756, 1882.62 402.756 " fill="#FF0000"/>
<path class="atom-22" d="M 1929.14 169.14 Q 1929.14 162.34, 1932.5 158.54 Q 1935.86 154.74, 1942.14 154.74 Q 1948.42 154.74, 1951.78 158.54 Q 1955.14 162.34, 1955.14 169.14 Q 1955.14 176.02, 1951.74 179.94 Q 1948.34 183.82, 1942.14 183.82 Q 1935.9 183.82, 1932.5 179.94 Q 1929.14 176.06, 1929.14 169.14 M 1942.14 180.62 Q 1946.46 180.62, 1948.78 177.74 Q 1951.14 174.82, 1951.14 169.14 Q 1951.14 163.58, 1948.78 160.78 Q 1946.46 157.94, 1942.14 157.94 Q 1937.82 157.94, 1935.46 160.74 Q 1933.14 163.54, 1933.14 169.14 Q 1933.14 174.86, 1935.46 177.74 Q 1937.82 180.62, 1942.14 180.62 " fill="#FF0000"/>
<path class="atom-22" d="M 1956.46 159.362 L 1966.15 159.362 L 1966.15 161.474 L 1956.46 161.474 L 1956.46 159.362 " fill="#FF0000"/>
<path class="atom-27" d="M 2998.54 153.425 Q 2998.54 146.625, 3001.9 142.825 Q 3005.26 139.025, 3011.54 139.025 Q 3017.82 139.025, 3021.18 142.825 Q 3024.54 146.625, 3024.54 153.425 Q 3024.54 160.305, 3021.14 164.225 Q 3017.74 168.105, 3011.54 168.105 Q 3005.3 168.105, 3001.9 164.225 Q 2998.54 160.345, 2998.54 153.425 M 3011.54 164.905 Q 3015.86 164.905, 3018.18 162.025 Q 3020.54 159.105, 3020.54 153.425 Q 3020.54 147.865, 3018.18 145.065 Q 3015.86 142.225, 3011.54 142.225 Q 3007.22 142.225, 3004.86 145.025 Q 3002.54 147.825, 3002.54 153.425 Q 3002.54 159.145, 3004.86 162.025 Q 3007.22 164.905, 3011.54 164.905 " fill="#FF0000"/>
<path class="atom-28" d="M 3141.55 324.436 L 3150.83 339.436 Q 3151.75 340.916, 3153.23 343.596 Q 3154.71 346.276, 3154.79 346.436 L 3154.79 324.436 L 3158.55 324.436 L 3158.55 352.756 L 3154.67 352.756 L 3144.71 336.356 Q 3143.55 334.436, 3142.31 332.236 Q 3141.11 330.036, 3140.75 329.356 L 3140.75 352.756 L 3137.07 352.756 L 3137.07 324.436 L 3141.55 324.436 " fill="#0000FF"/>
<path class="atom-28" d="M 3136.73 355.588 L 3140.57 355.588 L 3140.57 367.628 L 3155.05 367.628 L 3155.05 355.588 L 3158.89 355.588 L 3158.89 383.908 L 3155.05 383.908 L 3155.05 370.828 L 3140.57 370.828 L 3140.57 383.908 L 3136.73 383.908 L 3136.73 355.588 " fill="#0000FF"/>
<path class="atom-34" d="M 3598.68 273.662 L 3607.96 288.662 Q 3608.88 290.142, 3610.36 292.822 Q 3611.84 295.502, 3611.92 295.662 L 3611.92 273.662 L 3615.68 273.662 L 3615.68 301.982 L 3611.8 301.982 L 3601.84 285.582 Q 3600.68 283.662, 3599.44 281.462 Q 3598.24 279.262, 3597.88 278.582 L 3597.88 301.982 L 3594.2 301.982 L 3594.2 273.662 L 3598.68 273.662 " fill="#0000FF"/>
<path class="atom-34" d="M 3618.06 278.766 L 3623.05 278.766 L 3623.05 273.513 L 3625.26 273.513 L 3625.26 278.766 L 3630.39 278.766 L 3630.39 280.667 L 3625.26 280.667 L 3625.26 285.947 L 3623.05 285.947 L 3623.05 280.667 L 3618.06 280.667 L 3618.06 278.766 " fill="#0000FF"/>
<path class="atom-35" d="M 3606.6 419.865 Q 3606.6 413.065, 3609.96 409.265 Q 3613.32 405.465, 3619.6 405.465 Q 3625.88 405.465, 3629.24 409.265 Q 3632.6 413.065, 3632.6 419.865 Q 3632.6 426.745, 3629.2 430.665 Q 3625.8 434.545, 3619.6 434.545 Q 3613.36 434.545, 3609.96 430.665 Q 3606.6 426.785, 3606.6 419.865 M 3619.6 431.345 Q 3623.92 431.345, 3626.24 428.465 Q 3628.6 425.545, 3628.6 419.865 Q 3628.6 414.305, 3626.24 411.505 Q 3623.92 408.665, 3619.6 408.665 Q 3615.28 408.665, 3612.92 411.465 Q 3610.6 414.265, 3610.6 419.865 Q 3610.6 425.585, 3612.92 428.465 Q 3615.28 431.345, 3619.6 431.345 " fill="#FF0000"/>
<path class="atom-36" d="M 3698.9 209.226 Q 3698.9 202.426, 3702.26 198.626 Q 3705.62 194.826, 3711.9 194.826 Q 3718.18 194.826, 3721.54 198.626 Q 3724.9 202.426, 3724.9 209.226 Q 3724.9 216.106, 3721.5 220.026 Q 3718.1 223.906, 3711.9 223.906 Q 3705.66 223.906, 3702.26 220.026 Q 3698.9 216.146, 3698.9 209.226 M 3711.9 220.706 Q 3716.22 220.706, 3718.54 217.826 Q 3720.9 214.906, 3720.9 209.226 Q 3720.9 203.666, 3718.54 200.866 Q 3716.22 198.026, 3711.9 198.026 Q 3707.58 198.026, 3705.22 200.826 Q 3702.9 203.626, 3702.9 209.226 Q 3702.9 214.946, 3705.22 217.826 Q 3707.58 220.706, 3711.9 220.706 " fill="#FF0000"/>
<path class="atom-36" d="M 3726.22 199.449 L 3735.9 199.449 L 3735.9 201.561 L 3726.22 201.561 L 3726.22 199.449 " fill="#FF0000"/>
<path class="atom-42" d="M 2233.67 161.884 Q 2233.67 155.084, 2237.03 151.284 Q 2240.39 147.484, 2246.67 147.484 Q 2252.95 147.484, 2256.31 151.284 Q 2259.67 155.084, 2259.67 161.884 Q 2259.67 168.764, 2256.27 172.684 Q 2252.87 176.564, 2246.67 176.564 Q 2240.43 176.564, 2237.03 172.684 Q 2233.67 168.804, 2233.67 161.884 M 2246.67 173.364 Q 2250.99 173.364, 2253.31 170.484 Q 2255.67 167.564, 2255.67 161.884 Q 2255.67 156.324, 2253.31 153.524 Q 2250.99 150.684, 2246.67 150.684 Q 2242.35 150.684, 2239.99 153.484 Q 2237.67 156.284, 2237.67 161.884 Q 2237.67 167.604, 2239.99 170.484 Q 2242.35 173.364, 2246.67 173.364 " fill="#FF0000"/>
<path class="atom-46" d="M 2465.88 187.49 Q 2465.88 180.69, 2469.24 176.89 Q 2472.6 173.09, 2478.88 173.09 Q 2485.16 173.09, 2488.52 176.89 Q 2491.88 180.69, 2491.88 187.49 Q 2491.88 194.37, 2488.48 198.29 Q 2485.08 202.17, 2478.88 202.17 Q 2472.64 202.17, 2469.24 198.29 Q 2465.88 194.41, 2465.88 187.49 M 2478.88 198.97 Q 2483.2 198.97, 2485.52 196.09 Q 2487.88 193.17, 2487.88 187.49 Q 2487.88 181.93, 2485.52 179.13 Q 2483.2 176.29, 2478.88 176.29 Q 2474.56 176.29, 2472.2 179.09 Q 2469.88 181.89, 2469.88 187.49 Q 2469.88 193.21, 2472.2 196.09 Q 2474.56 198.97, 2478.88 198.97 " fill="#FF0000"/>
<path class="atom-47" d="M 2517.62 97.8674 Q 2517.62 91.0674, 2520.98 87.2674 Q 2524.34 83.4674, 2530.62 83.4674 Q 2536.9 83.4674, 2540.26 87.2674 Q 2543.62 91.0674, 2543.62 97.8674 Q 2543.62 104.747, 2540.22 108.667 Q 2536.82 112.547, 2530.62 112.547 Q 2524.38 112.547, 2520.98 108.667 Q 2517.62 104.787, 2517.62 97.8674 M 2530.62 109.347 Q 2534.94 109.347, 2537.26 106.467 Q 2539.62 103.547, 2539.62 97.8674 Q 2539.62 92.3074, 2537.26 89.5074 Q 2534.94 86.6674, 2530.62 86.6674 Q 2526.3 86.6674, 2523.94 89.4674 Q 2521.62 92.2674, 2521.62 97.8674 Q 2521.62 103.587, 2523.94 106.467 Q 2526.3 109.347, 2530.62 109.347 " fill="#FF0000"/>
<path class="atom-50" d="M 2569.37 187.49 Q 2569.37 180.69, 2572.73 176.89 Q 2576.09 173.09, 2582.37 173.09 Q 2588.65 173.09, 2592.01 176.89 Q 2595.37 180.69, 2595.37 187.49 Q 2595.37 194.37, 2591.97 198.29 Q 2588.57 202.17, 2582.37 202.17 Q 2576.13 202.17, 2572.73 198.29 Q 2569.37 194.41, 2569.37 187.49 M 2582.37 198.97 Q 2586.69 198.97, 2589.01 196.09 Q 2591.37 193.17, 2591.37 187.49 Q 2591.37 181.93, 2589.01 179.13 Q 2586.69 176.29, 2582.37 176.29 Q 2578.05 176.29, 2575.69 179.09 Q 2573.37 181.89, 2573.37 187.49 Q 2573.37 193.21, 2575.69 196.09 Q 2578.05 198.97, 2582.37 198.97 " fill="#FF0000"/>
<path class="note" d="M 383.676 302.982 Q 384.196 301.642, 385.436 300.902 Q 386.676 300.142, 388.396 300.142 Q 390.536 300.142, 391.736 301.302 Q 392.936 302.462, 392.936 304.522 Q 392.936 306.622, 391.376 308.582 Q 389.836 310.542, 386.636 312.862 L 393.176 312.862 L 393.176 314.462 L 383.636 314.462 L 383.636 313.122 Q 386.276 311.242, 387.836 309.842 Q 389.416 308.442, 390.176 307.182 Q 390.936 305.922, 390.936 304.622 Q 390.936 303.262, 390.256 302.502 Q 389.576 301.742, 388.396 301.742 Q 387.256 301.742, 386.496 302.202 Q 385.736 302.662, 385.196 303.682 L 383.676 302.982 " fill="#000000"/>
<path class="note" d="M 288.63 387.329 L 291.73 387.329 L 291.73 376.749 L 288.31 377.809 L 287.85 376.629 L 292.19 374.689 L 293.61 374.929 L 293.61 387.329 L 296.39 387.329 L 296.39 388.929 L 288.63 388.929 L 288.63 387.329 " fill="#000000"/>
<path class="note" d="M 368.46 109.057 Q 369.84 109.457, 370.5 110.357 Q 371.18 111.237, 371.18 112.637 Q 371.18 113.837, 370.58 114.777 Q 369.98 115.697, 368.88 116.217 Q 367.78 116.717, 366.34 116.717 Q 364.82 116.717, 363.68 116.197 Q 362.56 115.657, 361.66 114.577 L 362.8 113.417 Q 363.68 114.377, 364.42 114.757 Q 365.16 115.117, 366.34 115.117 Q 367.62 115.117, 368.4 114.437 Q 369.18 113.737, 369.18 112.617 Q 369.18 111.177, 368.36 110.537 Q 367.56 109.877, 365.82 109.877 L 364.8 109.877 L 364.8 108.437 L 365.7 108.437 Q 367.24 108.417, 368.06 107.757 Q 368.88 107.077, 368.88 105.817 Q 368.88 104.897, 368.2 104.357 Q 367.52 103.797, 366.36 103.797 Q 365.18 103.797, 364.44 104.217 Q 363.72 104.637, 363.16 105.697 L 361.78 104.957 Q 362.28 103.777, 363.48 102.997 Q 364.68 102.197, 366.36 102.197 Q 368.44 102.197, 369.66 103.177 Q 370.88 104.157, 370.88 105.817 Q 370.88 106.957, 370.26 107.777 Q 369.64 108.597, 368.46 109.057 " fill="#000000"/>
<path class="note" d="M 1419.19 426.959 L 1420.89 426.959 L 1420.89 428.559 L 1419.19 428.559 L 1419.19 431.819 L 1417.31 431.819 L 1417.31 428.559 L 1409.99 428.559 L 1409.99 427.299 L 1416.19 417.659 L 1419.19 417.659 L 1419.19 426.959 M 1412.31 426.959 L 1417.31 426.959 L 1417.31 418.939 L 1412.31 426.959 " fill="#000000"/>
<path class="note" d="M 1476.84 280.595 Q 1478.08 280.595, 1479.1 281.135 Q 1480.12 281.655, 1480.7 282.655 Q 1481.28 283.635, 1481.28 284.975 Q 1481.28 286.435, 1480.56 287.495 Q 1479.86 288.535, 1478.7 289.075 Q 1477.54 289.615, 1476.22 289.615 Q 1474.92 289.615, 1473.72 289.135 Q 1472.52 288.655, 1471.7 287.735 L 1472.9 286.495 Q 1473.56 287.215, 1474.46 287.615 Q 1475.36 287.995, 1476.28 287.995 Q 1477.54 287.995, 1478.4 287.215 Q 1479.28 286.435, 1479.28 285.015 Q 1479.28 283.515, 1478.4 282.815 Q 1477.54 282.095, 1476.16 282.095 Q 1474.92 282.095, 1473.54 282.635 L 1472.44 282.115 L 1473.12 275.295 L 1480.4 275.295 L 1480.2 276.895 L 1474.76 276.895 L 1474.34 281.095 Q 1475.6 280.595, 1476.84 280.595 " fill="#000000"/>
<path class="note" d="M 1442.76 152.445 Q 1444 152.445, 1444.98 152.985 Q 1445.96 153.525, 1446.5 154.505 Q 1447.04 155.485, 1447.04 156.725 Q 1447.04 158.105, 1446.42 159.185 Q 1445.82 160.245, 1444.74 160.845 Q 1443.66 161.445, 1442.28 161.445 Q 1439.76 161.445, 1438.48 159.745 Q 1437.22 158.025, 1437.22 154.625 Q 1437.22 150.865, 1438.78 148.925 Q 1440.36 146.965, 1443.38 146.965 Q 1444.26 146.965, 1445 147.165 Q 1445.76 147.365, 1446.48 147.785 L 1445.7 149.125 Q 1444.66 148.565, 1443.4 148.565 Q 1441.4 148.565, 1440.38 149.865 Q 1439.36 151.145, 1439.24 153.805 Q 1439.96 153.145, 1440.86 152.805 Q 1441.78 152.445, 1442.76 152.445 M 1442.3 159.805 Q 1443.06 159.805, 1443.68 159.405 Q 1444.32 159.005, 1444.68 158.305 Q 1445.04 157.605, 1445.04 156.745 Q 1445.04 155.485, 1444.34 154.765 Q 1443.64 154.045, 1442.4 154.045 Q 1441.54 154.045, 1440.68 154.405 Q 1439.84 154.745, 1439.24 155.345 Q 1439.32 157.685, 1440.06 158.745 Q 1440.8 159.805, 1442.3 159.805 " fill="#000000"/>
<path class="note" d="M 1554.38 39.111 L 1546.96 39.111 L 1546.96 37.511 L 1556.36 37.511 L 1556.36 38.931 L 1550.64 51.671 L 1548.72 51.671 L 1554.38 39.111 " fill="#000000"/>
<path class="note" d="M 1703.51 84.3431 Q 1704.81 84.9031, 1705.55 85.7431 Q 1706.29 86.5631, 1706.29 87.9631 Q 1706.29 89.1631, 1705.67 90.1031 Q 1705.05 91.0231, 1703.93 91.5431 Q 1702.83 92.0431, 1701.37 92.0431 Q 1699.01 92.0431, 1697.65 90.9631 Q 1696.29 89.8631, 1696.29 87.9631 Q 1696.29 86.8031, 1696.89 85.9431 Q 1697.49 85.0631, 1698.73 84.4031 Q 1697.81 83.8831, 1697.31 83.1231 Q 1696.81 82.3431, 1696.81 81.1431 Q 1696.81 79.4831, 1698.01 78.5031 Q 1699.23 77.5231, 1701.29 77.5231 Q 1703.35 77.5231, 1704.55 78.5031 Q 1705.77 79.4831, 1705.77 81.1431 Q 1705.77 82.1831, 1705.19 82.9631 Q 1704.63 83.7231, 1703.51 84.3431 M 1701.29 79.0231 Q 1700.11 79.0231, 1699.45 79.5831 Q 1698.81 80.1431, 1698.81 81.1431 Q 1698.81 81.8831, 1699.25 82.3831 Q 1699.69 82.8631, 1700.31 83.1431 Q 1700.95 83.4231, 1702.17 83.8431 Q 1703.03 83.2431, 1703.39 82.6031 Q 1703.77 81.9631, 1703.77 81.1431 Q 1703.77 80.1431, 1703.11 79.5831 Q 1702.47 79.0231, 1701.29 79.0231 M 1701.37 90.5431 Q 1702.69 90.5431, 1703.49 89.8431 Q 1704.29 89.1231, 1704.29 87.9431 Q 1704.29 87.1831, 1703.87 86.7031 Q 1703.45 86.2231, 1702.81 85.9431 Q 1702.19 85.6631, 1701.07 85.3031 L 1700.17 85.0031 Q 1699.17 85.6031, 1698.73 86.3231 Q 1698.29 87.0231, 1698.29 87.9431 Q 1698.29 89.1231, 1699.13 89.8431 Q 1699.97 90.5431, 1701.37 90.5431 " fill="#000000"/>
<path class="note" d="M 1735.5 205.774 Q 1738.02 205.774, 1739.28 207.494 Q 1740.56 209.194, 1740.56 212.594 Q 1740.56 216.354, 1738.98 218.314 Q 1737.42 220.254, 1734.4 220.254 Q 1733.52 220.254, 1732.76 220.054 Q 1732.02 219.854, 1731.3 219.434 L 1732.08 218.094 Q 1733.12 218.654, 1734.38 218.654 Q 1736.38 218.654, 1737.4 217.374 Q 1738.42 216.074, 1738.54 213.414 Q 1737.82 214.074, 1736.9 214.434 Q 1736 214.774, 1735.02 214.774 Q 1733.78 214.774, 1732.8 214.234 Q 1731.82 213.694, 1731.28 212.714 Q 1730.74 211.734, 1730.74 210.494 Q 1730.74 209.114, 1731.34 208.054 Q 1731.96 206.974, 1733.04 206.374 Q 1734.12 205.774, 1735.5 205.774 M 1732.74 210.474 Q 1732.74 211.734, 1733.44 212.454 Q 1734.14 213.174, 1735.38 213.174 Q 1736.24 213.174, 1737.08 212.834 Q 1737.94 212.474, 1738.54 211.874 Q 1738.46 209.534, 1737.72 208.474 Q 1736.98 207.414, 1735.48 207.414 Q 1734.72 207.414, 1734.08 207.814 Q 1733.46 208.214, 1733.1 208.914 Q 1732.74 209.614, 1732.74 210.474 " fill="#000000"/>
<path class="note" d="M 1803.41 299.801 L 1806.51 299.801 L 1806.51 289.221 L 1803.09 290.281 L 1802.63 289.101 L 1806.97 287.161 L 1808.39 287.401 L 1808.39 299.801 L 1811.17 299.801 L 1811.17 301.401 L 1803.41 301.401 L 1803.41 299.801 " fill="#000000"/>
<path class="note" d="M 1817.57 301.561 Q 1814.97 301.561, 1813.67 299.641 Q 1812.39 297.721, 1812.39 294.301 Q 1812.39 290.881, 1813.67 288.981 Q 1814.95 287.081, 1817.57 287.081 Q 1820.19 287.081, 1821.47 288.981 Q 1822.75 290.881, 1822.75 294.301 Q 1822.75 297.721, 1821.45 299.641 Q 1820.17 301.561, 1817.57 301.561 M 1817.57 299.961 Q 1819.11 299.961, 1819.93 298.541 Q 1820.75 297.101, 1820.75 294.301 Q 1820.75 291.521, 1819.93 290.101 Q 1819.11 288.681, 1817.57 288.681 Q 1816.05 288.681, 1815.21 290.101 Q 1814.39 291.521, 1814.39 294.301 Q 1814.39 297.101, 1815.21 298.541 Q 1816.05 299.961, 1817.57 299.961 " fill="#000000"/>
<path class="note" d="M 1881.5 439.467 L 1884.6 439.467 L 1884.6 428.887 L 1881.18 429.947 L 1880.72 428.767 L 1885.06 426.827 L 1886.48 427.067 L 1886.48 439.467 L 1889.26 439.467 L 1889.26 441.067 L 1881.5 441.067 L 1881.5 439.467 " fill="#000000"/>
<path class="note" d="M 1891.12 439.467 L 1894.22 439.467 L 1894.22 428.887 L 1890.8 429.947 L 1890.34 428.767 L 1894.68 426.827 L 1896.1 427.067 L 1896.1 439.467 L 1898.88 439.467 L 1898.88 441.067 L 1891.12 441.067 L 1891.12 439.467 " fill="#000000"/>
<path class="note" d="M 1960.4 143.325 L 1963.5 143.325 L 1963.5 132.745 L 1960.08 133.805 L 1959.62 132.625 L 1963.96 130.685 L 1965.38 130.925 L 1965.38 143.325 L 1968.16 143.325 L 1968.16 144.925 L 1960.4 144.925 L 1960.4 143.325 " fill="#000000"/>
<path class="note" d="M 1969.2 133.445 Q 1969.72 132.105, 1970.96 131.365 Q 1972.2 130.605, 1973.92 130.605 Q 1976.06 130.605, 1977.26 131.765 Q 1978.46 132.925, 1978.46 134.985 Q 1978.46 137.085, 1976.9 139.045 Q 1975.36 141.005, 1972.16 143.325 L 1978.7 143.325 L 1978.7 144.925 L 1969.16 144.925 L 1969.16 143.585 Q 1971.8 141.705, 1973.36 140.305 Q 1974.94 138.905, 1975.7 137.645 Q 1976.46 136.385, 1976.46 135.085 Q 1976.46 133.725, 1975.78 132.965 Q 1975.1 132.205, 1973.92 132.205 Q 1972.78 132.205, 1972.02 132.665 Q 1971.26 133.125, 1970.72 134.145 L 1969.2 133.445 " fill="#000000"/>
<path class="note" d="M 1597.53 343.675 L 1600.63 343.675 L 1600.63 333.095 L 1597.21 334.155 L 1596.75 332.975 L 1601.09 331.035 L 1602.51 331.275 L 1602.51 343.675 L 1605.29 343.675 L 1605.29 345.275 L 1597.53 345.275 L 1597.53 343.675 " fill="#000000"/>
<path class="note" d="M 1612.93 337.815 Q 1614.31 338.215, 1614.97 339.115 Q 1615.65 339.995, 1615.65 341.395 Q 1615.65 342.595, 1615.05 343.535 Q 1614.45 344.455, 1613.35 344.975 Q 1612.25 345.475, 1610.81 345.475 Q 1609.29 345.475, 1608.15 344.955 Q 1607.03 344.415, 1606.13 343.335 L 1607.27 342.175 Q 1608.15 343.135, 1608.89 343.515 Q 1609.63 343.875, 1610.81 343.875 Q 1612.09 343.875, 1612.87 343.195 Q 1613.65 342.495, 1613.65 341.375 Q 1613.65 339.935, 1612.83 339.295 Q 1612.03 338.635, 1610.29 338.635 L 1609.27 338.635 L 1609.27 337.195 L 1610.17 337.195 Q 1611.71 337.175, 1612.53 336.515 Q 1613.35 335.835, 1613.35 334.575 Q 1613.35 333.655, 1612.67 333.115 Q 1611.99 332.555, 1610.83 332.555 Q 1609.65 332.555, 1608.91 332.975 Q 1608.19 333.395, 1607.63 334.455 L 1606.25 333.715 Q 1606.75 332.535, 1607.95 331.755 Q 1609.15 330.955, 1610.83 330.955 Q 1612.91 330.955, 1614.13 331.935 Q 1615.35 332.915, 1615.35 334.575 Q 1615.35 335.715, 1614.73 336.535 Q 1614.11 337.355, 1612.93 337.815 " fill="#000000"/>
<path class="note" d="M 1625.6 450.51 L 1628.7 450.51 L 1628.7 439.93 L 1625.28 440.99 L 1624.82 439.81 L 1629.16 437.87 L 1630.58 438.11 L 1630.58 450.51 L 1633.36 450.51 L 1633.36 452.11 L 1625.6 452.11 L 1625.6 450.51 " fill="#000000"/>
<path class="note" d="M 1643.16 447.25 L 1644.86 447.25 L 1644.86 448.85 L 1643.16 448.85 L 1643.16 452.11 L 1641.28 452.11 L 1641.28 448.85 L 1633.96 448.85 L 1633.96 447.59 L 1640.16 437.95 L 1643.16 437.95 L 1643.16 447.25 M 1636.28 447.25 L 1641.28 447.25 L 1641.28 439.23 L 1636.28 447.25 " fill="#000000"/>
<path class="note" d="M 2928.86 387.329 L 2931.96 387.329 L 2931.96 376.749 L 2928.54 377.809 L 2928.08 376.629 L 2932.42 374.689 L 2933.84 374.929 L 2933.84 387.329 L 2936.62 387.329 L 2936.62 388.929 L 2928.86 388.929 L 2928.86 387.329 " fill="#000000"/>
<path class="note" d="M 3023.91 302.982 Q 3024.43 301.642, 3025.67 300.902 Q 3026.91 300.142, 3028.63 300.142 Q 3030.77 300.142, 3031.97 301.302 Q 3033.17 302.462, 3033.17 304.522 Q 3033.17 306.622, 3031.61 308.582 Q 3030.07 310.542, 3026.87 312.862 L 3033.41 312.862 L 3033.41 314.462 L 3023.87 314.462 L 3023.87 313.122 Q 3026.51 311.242, 3028.07 309.842 Q 3029.65 308.442, 3030.41 307.182 Q 3031.17 305.922, 3031.17 304.622 Q 3031.17 303.262, 3030.49 302.502 Q 3029.81 301.742, 3028.63 301.742 Q 3027.49 301.742, 3026.73 302.202 Q 3025.97 302.662, 3025.43 303.682 L 3023.91 302.982 " fill="#000000"/>
<path class="note" d="M 3008.69 109.057 Q 3010.07 109.457, 3010.73 110.357 Q 3011.41 111.237, 3011.41 112.637 Q 3011.41 113.837, 3010.81 114.777 Q 3010.21 115.697, 3009.11 116.217 Q 3008.01 116.717, 3006.57 116.717 Q 3005.05 116.717, 3003.91 116.197 Q 3002.79 115.657, 3001.89 114.577 L 3003.03 113.417 Q 3003.91 114.377, 3004.65 114.757 Q 3005.39 115.117, 3006.57 115.117 Q 3007.85 115.117, 3008.63 114.437 Q 3009.41 113.737, 3009.41 112.617 Q 3009.41 111.177, 3008.59 110.537 Q 3007.79 109.877, 3006.05 109.877 L 3005.03 109.877 L 3005.03 108.437 L 3005.93 108.437 Q 3007.47 108.417, 3008.29 107.757 Q 3009.11 107.077, 3009.11 105.817 Q 3009.11 104.897, 3008.43 104.357 Q 3007.75 103.797, 3006.59 103.797 Q 3005.41 103.797, 3004.67 104.217 Q 3003.95 104.637, 3003.39 105.697 L 3002.01 104.957 Q 3002.51 103.777, 3003.71 102.997 Q 3004.91 102.197, 3006.59 102.197 Q 3008.67 102.197, 3009.89 103.177 Q 3011.11 104.157, 3011.11 105.817 Q 3011.11 106.957, 3010.49 107.777 Q 3009.87 108.597, 3008.69 109.057 " fill="#000000"/>
<path class="note" d="M 3177.78 376.468 L 3179.48 376.468 L 3179.48 378.068 L 3177.78 378.068 L 3177.78 381.328 L 3175.9 381.328 L 3175.9 378.068 L 3168.58 378.068 L 3168.58 376.808 L 3174.78 367.168 L 3177.78 367.168 L 3177.78 376.468 M 3170.9 376.468 L 3175.9 376.468 L 3175.9 368.448 L 3170.9 376.468 " fill="#000000"/>
<path class="note" d="M 3234.84 249.259 Q 3236.08 249.259, 3237.1 249.799 Q 3238.12 250.319, 3238.7 251.319 Q 3239.28 252.299, 3239.28 253.639 Q 3239.28 255.099, 3238.56 256.159 Q 3237.86 257.199, 3236.7 257.739 Q 3235.54 258.279, 3234.22 258.279 Q 3232.92 258.279, 3231.72 257.799 Q 3230.52 257.319, 3229.7 256.399 L 3230.9 255.159 Q 3231.56 255.879, 3232.46 256.279 Q 3233.36 256.659, 3234.28 256.659 Q 3235.54 256.659, 3236.4 255.879 Q 3237.28 255.099, 3237.28 253.679 Q 3237.28 252.179, 3236.4 251.479 Q 3235.54 250.759, 3234.16 250.759 Q 3232.92 250.759, 3231.54 251.299 L 3230.44 250.779 L 3231.12 243.959 L 3238.4 243.959 L 3238.2 245.559 L 3232.76 245.559 L 3232.34 249.759 Q 3233.6 249.259, 3234.84 249.259 " fill="#000000"/>
<path class="note" d="M 3220.47 117.396 Q 3221.71 117.396, 3222.69 117.936 Q 3223.67 118.476, 3224.21 119.456 Q 3224.75 120.436, 3224.75 121.676 Q 3224.75 123.056, 3224.13 124.136 Q 3223.53 125.196, 3222.45 125.796 Q 3221.37 126.396, 3219.99 126.396 Q 3217.47 126.396, 3216.19 124.696 Q 3214.93 122.976, 3214.93 119.576 Q 3214.93 115.816, 3216.49 113.876 Q 3218.07 111.916, 3221.09 111.916 Q 3221.97 111.916, 3222.71 112.116 Q 3223.47 112.316, 3224.19 112.736 L 3223.41 114.076 Q 3222.37 113.516, 3221.11 113.516 Q 3219.11 113.516, 3218.09 114.816 Q 3217.07 116.096, 3216.95 118.756 Q 3217.67 118.096, 3218.57 117.756 Q 3219.49 117.396, 3220.47 117.396 M 3220.01 124.756 Q 3220.77 124.756, 3221.39 124.356 Q 3222.03 123.956, 3222.39 123.256 Q 3222.75 122.556, 3222.75 121.696 Q 3222.75 120.436, 3222.05 119.716 Q 3221.35 118.996, 3220.11 118.996 Q 3219.25 118.996, 3218.39 119.356 Q 3217.55 119.696, 3216.95 120.296 Q 3217.03 122.636, 3217.77 123.696 Q 3218.51 124.756, 3220.01 124.756 " fill="#000000"/>
<path class="note" d="M 3347.34 21.8083 L 3339.92 21.8083 L 3339.92 20.2083 L 3349.32 20.2083 L 3349.32 21.6283 L 3343.6 34.3683 L 3341.68 34.3683 L 3347.34 21.8083 " fill="#000000"/>
<path class="note" d="M 3488.72 89.1177 Q 3490.02 89.6777, 3490.76 90.5177 Q 3491.5 91.3377, 3491.5 92.7377 Q 3491.5 93.9377, 3490.88 94.8777 Q 3490.26 95.7977, 3489.14 96.3177 Q 3488.04 96.8177, 3486.58 96.8177 Q 3484.22 96.8177, 3482.86 95.7377 Q 3481.5 94.6377, 3481.5 92.7377 Q 3481.5 91.5777, 3482.1 90.7177 Q 3482.7 89.8377, 3483.94 89.1777 Q 3483.02 88.6577, 3482.52 87.8977 Q 3482.02 87.1177, 3482.02 85.9177 Q 3482.02 84.2577, 3483.22 83.2777 Q 3484.44 82.2977, 3486.5 82.2977 Q 3488.56 82.2977, 3489.76 83.2777 Q 3490.98 84.2577, 3490.98 85.9177 Q 3490.98 86.9577, 3490.4 87.7377 Q 3489.84 88.4977, 3488.72 89.1177 M 3486.5 83.7977 Q 3485.32 83.7977, 3484.66 84.3577 Q 3484.02 84.9177, 3484.02 85.9177 Q 3484.02 86.6577, 3484.46 87.1577 Q 3484.9 87.6377, 3485.52 87.9177 Q 3486.16 88.1977, 3487.38 88.6177 Q 3488.24 88.0177, 3488.6 87.3777 Q 3488.98 86.7377, 3488.98 85.9177 Q 3488.98 84.9177, 3488.32 84.3577 Q 3487.68 83.7977, 3486.5 83.7977 M 3486.58 95.3177 Q 3487.9 95.3177, 3488.7 94.6177 Q 3489.5 93.8977, 3489.5 92.7177 Q 3489.5 91.9577, 3489.08 91.4777 Q 3488.66 90.9977, 3488.02 90.7177 Q 3487.4 90.4377, 3486.28 90.0777 L 3485.38 89.7777 Q 3484.38 90.3777, 3483.94 91.0977 Q 3483.5 91.7977, 3483.5 92.7177 Q 3483.5 93.8977, 3484.34 94.6177 Q 3485.18 95.3177, 3486.58 95.3177 " fill="#000000"/>
<path class="note" d="M 3501 214.261 Q 3503.52 214.261, 3504.78 215.981 Q 3506.06 217.681, 3506.06 221.081 Q 3506.06 224.841, 3504.48 226.801 Q 3502.92 228.741, 3499.9 228.741 Q 3499.02 228.741, 3498.26 228.541 Q 3497.52 228.341, 3496.8 227.921 L 3497.58 226.581 Q 3498.62 227.141, 3499.88 227.141 Q 3501.88 227.141, 3502.9 225.861 Q 3503.92 224.561, 3504.04 221.901 Q 3503.32 222.561, 3502.4 222.921 Q 3501.5 223.261, 3500.52 223.261 Q 3499.28 223.261, 3498.3 222.721 Q 3497.32 222.181, 3496.78 221.201 Q 3496.24 220.221, 3496.24 218.981 Q 3496.24 217.601, 3496.84 216.541 Q 3497.46 215.461, 3498.54 214.861 Q 3499.62 214.261, 3501 214.261 M 3498.24 218.961 Q 3498.24 220.221, 3498.94 220.941 Q 3499.64 221.661, 3500.88 221.661 Q 3501.74 221.661, 3502.58 221.321 Q 3503.44 220.961, 3504.04 220.361 Q 3503.96 218.021, 3503.22 216.961 Q 3502.48 215.901, 3500.98 215.901 Q 3500.22 215.901, 3499.58 216.301 Q 3498.96 216.701, 3498.6 217.401 Q 3498.24 218.101, 3498.24 218.961 " fill="#000000"/>
<path class="note" d="M 3555.74 319.607 L 3558.84 319.607 L 3558.84 309.027 L 3555.42 310.087 L 3554.96 308.907 L 3559.3 306.967 L 3560.72 307.207 L 3560.72 319.607 L 3563.5 319.607 L 3563.5 321.207 L 3555.74 321.207 L 3555.74 319.607 " fill="#000000"/>
<path class="note" d="M 3569.9 321.367 Q 3567.3 321.367, 3566 319.447 Q 3564.72 317.527, 3564.72 314.107 Q 3564.72 310.687, 3566 308.787 Q 3567.28 306.887, 3569.9 306.887 Q 3572.52 306.887, 3573.8 308.787 Q 3575.08 310.687, 3575.08 314.107 Q 3575.08 317.527, 3573.78 319.447 Q 3572.5 321.367, 3569.9 321.367 M 3569.9 319.767 Q 3571.44 319.767, 3572.26 318.347 Q 3573.08 316.907, 3573.08 314.107 Q 3573.08 311.327, 3572.26 309.907 Q 3571.44 308.487, 3569.9 308.487 Q 3568.38 308.487, 3567.54 309.907 Q 3566.72 311.327, 3566.72 314.107 Q 3566.72 316.907, 3567.54 318.347 Q 3568.38 319.767, 3569.9 319.767 " fill="#000000"/>
<path class="note" d="M 3611.91 469.293 L 3615.01 469.293 L 3615.01 458.713 L 3611.59 459.773 L 3611.13 458.593 L 3615.47 456.653 L 3616.89 456.893 L 3616.89 469.293 L 3619.67 469.293 L 3619.67 470.893 L 3611.91 470.893 L 3611.91 469.293 " fill="#000000"/>
<path class="note" d="M 3621.53 469.293 L 3624.63 469.293 L 3624.63 458.713 L 3621.21 459.773 L 3620.75 458.593 L 3625.09 456.653 L 3626.51 456.893 L 3626.51 469.293 L 3629.29 469.293 L 3629.29 470.893 L 3621.53 470.893 L 3621.53 469.293 " fill="#000000"/>
<path class="note" d="M 3734.52 188.481 L 3737.62 188.481 L 3737.62 177.901 L 3734.2 178.961 L 3733.74 177.781 L 3738.08 175.841 L 3739.5 176.081 L 3739.5 188.481 L 3742.28 188.481 L 3742.28 190.081 L 3734.52 190.081 L 3734.52 188.481 " fill="#000000"/>
<path class="note" d="M 3743.32 178.601 Q 3743.84 177.261, 3745.08 176.521 Q 3746.32 175.761, 3748.04 175.761 Q 3750.18 175.761, 3751.38 176.921 Q 3752.58 178.081, 3752.58 180.141 Q 3752.58 182.241, 3751.02 184.201 Q 3749.48 186.161, 3746.28 188.481 L 3752.82 188.481 L 3752.82 190.081 L 3743.28 190.081 L 3743.28 188.741 Q 3745.92 186.861, 3747.48 185.461 Q 3749.06 184.061, 3749.82 182.801 Q 3750.58 181.541, 3750.58 180.241 Q 3750.58 178.881, 3749.9 178.121 Q 3749.22 177.361, 3748.04 177.361 Q 3746.9 177.361, 3746.14 177.821 Q 3745.38 178.281, 3744.84 179.301 L 3743.32 178.601 " fill="#000000"/>
<path class="note" d="M 3345.61 331.881 L 3348.71 331.881 L 3348.71 321.301 L 3345.29 322.361 L 3344.83 321.181 L 3349.17 319.241 L 3350.59 319.481 L 3350.59 331.881 L 3353.37 331.881 L 3353.37 333.481 L 3345.61 333.481 L 3345.61 331.881 " fill="#000000"/>
<path class="note" d="M 3361.01 326.021 Q 3362.39 326.421, 3363.05 327.321 Q 3363.73 328.201, 3363.73 329.601 Q 3363.73 330.801, 3363.13 331.741 Q 3362.53 332.661, 3361.43 333.181 Q 3360.33 333.681, 3358.89 333.681 Q 3357.37 333.681, 3356.23 333.161 Q 3355.11 332.621, 3354.21 331.541 L 3355.35 330.381 Q 3356.23 331.341, 3356.97 331.721 Q 3357.71 332.081, 3358.89 332.081 Q 3360.17 332.081, 3360.95 331.401 Q 3361.73 330.701, 3361.73 329.581 Q 3361.73 328.141, 3360.91 327.501 Q 3360.11 326.841, 3358.37 326.841 L 3357.35 326.841 L 3357.35 325.401 L 3358.25 325.401 Q 3359.79 325.381, 3360.61 324.721 Q 3361.43 324.041, 3361.43 322.781 Q 3361.43 321.861, 3360.75 321.321 Q 3360.07 320.761, 3358.91 320.761 Q 3357.73 320.761, 3356.99 321.181 Q 3356.27 321.601, 3355.71 322.661 L 3354.33 321.921 Q 3354.83 320.741, 3356.03 319.961 Q 3357.23 319.161, 3358.91 319.161 Q 3360.99 319.161, 3362.21 320.141 Q 3363.43 321.121, 3363.43 322.781 Q 3363.43 323.921, 3362.81 324.741 Q 3362.19 325.561, 3361.01 326.021 " fill="#000000"/>
<path class="note" d="M 3357.25 441.811 L 3360.35 441.811 L 3360.35 431.231 L 3356.93 432.291 L 3356.47 431.111 L 3360.81 429.171 L 3362.23 429.411 L 3362.23 441.811 L 3365.01 441.811 L 3365.01 443.411 L 3357.25 443.411 L 3357.25 441.811 " fill="#000000"/>
<path class="note" d="M 3374.81 438.551 L 3376.51 438.551 L 3376.51 440.151 L 3374.81 440.151 L 3374.81 443.411 L 3372.93 443.411 L 3372.93 440.151 L 3365.61 440.151 L 3365.61 438.891 L 3371.81 429.251 L 3374.81 429.251 L 3374.81 438.551 M 3367.93 438.551 L 3372.93 438.551 L 3372.93 430.531 L 3367.93 438.551 " fill="#000000"/>
<path d="M 1187.23 247.696 L 1193.28 247.696 L 1193.28 241.328 L 1195.97 241.328 L 1195.97 247.696 L 1202.17 247.696 L 1202.17 250 L 1195.97 250 L 1195.97 256.4 L 1193.28 256.4 L 1193.28 250 L 1187.23 250 L 1187.23 247.696 " fill="#000000"/>
<path d="M 2142.62,250 L 2722.63,250" style="fill:none;fill-rule:evenodd;stroke:#000000;stroke-width:2.0px;stroke-linecap:butt;stroke-linejoin:miter;stroke-opacity:1"/>
<path d="M 2722.63,250 L 2697.51,235.5" style="fill:none;fill-rule:evenodd;stroke:#000000;stroke-width:2.0px;stroke-linecap:butt;stroke-linejoin:miter;stroke-opacity:1"/>
<path d="M 2722.63,250 L 2697.51,264.5" style="fill:none;fill-rule:evenodd;stroke:#000000;stroke-width:2.0px;stroke-linecap:butt;stroke-linejoin:miter;stroke-opacity:1"/>
</svg>