<svg xmlns="http://www.w3.org/2000/svg" xmlns:rdkit="http://www.rdkit.org/xml" xmlns:xlink="http://www.w3.org/1999/xlink" version="1.1" baseProfile="full" xml:space="preserve" width="4000px" height="500px" viewBox="0 0 4000 500">
<!-- END OF HEADER -->
<rect style="opacity:1.0;fill:#FFFFFF;stroke:none" width="4000" height="500" x="0" y="0"> </rect>
<path d="M 401.222,230.473 L 303.846,286.693" style="fill:none;fill-rule:evenodd;stroke:#FFFFAA;stroke-width:24.0px;stroke-linecap:butt;stroke-linejoin:miter;stroke-opacity:1"/>
<path d="M 637.767,222.442 L 735.143,278.662" style="fill:none;fill-rule:evenodd;stroke:#FFCC99;stroke-width:24.0px;stroke-linecap:butt;stroke-linejoin:miter;stroke-opacity:1"/>
<path d="M 735.143,278.662 L 735.143,391.102" style="fill:none;fill-rule:evenodd;stroke:#FFCC99;stroke-width:24.0px;stroke-linecap:butt;stroke-linejoin:miter;stroke-opacity:1"/>
<path d="M 735.143,278.662 L 832.519,222.442" style="fill:none;fill-rule:evenodd;stroke:#FFCC99;stroke-width:24.0px;stroke-linecap:butt;stroke-linejoin:miter;stroke-opacity:1"/>
<path d="M 832.519,222.442 L 929.895,278.662" style="fill:none;fill-rule:evenodd;stroke:#FFCC99;stroke-width:24.0px;stroke-linecap:butt;stroke-linejoin:miter;stroke-opacity:1"/>
<path d="M 929.895,278.662 L 1027.27,222.442" style="fill:none;fill-rule:evenodd;stroke:#FFCC99;stroke-width:24.0px;stroke-linecap:butt;stroke-linejoin:miter;stroke-opacity:1"/>
<path d="M 929.895,278.662 L 929.895,391.102" style="fill:none;fill-rule:evenodd;stroke:#FFCC99;stroke-width:24.0px;stroke-linecap:butt;stroke-linejoin:miter;stroke-opacity:1"/>
<path d="M 1754.91,325.644 L 1642.47,325.644" style="fill:none;fill-rule:evenodd;stroke:#FFB5C1;stroke-width:24.0px;stroke-linecap:butt;stroke-linejoin:miter;stroke-opacity:1"/>
<path d="M 1642.47,325.644 L 1586.25,423.02" style="fill:none;fill-rule:evenodd;stroke:#FFB5C1;stroke-width:24.0px;stroke-linecap:butt;stroke-linejoin:miter;stroke-opacity:1"/>
<path d="M 1642.47,325.644 L 1586.25,228.267" style="fill:none;fill-rule:evenodd;stroke:#FFB5C1;stroke-width:24.0px;stroke-linecap:butt;stroke-linejoin:miter;stroke-opacity:1"/>
<path d="M 1586.25,423.02 L 1473.81,423.02" style="fill:none;fill-rule:evenodd;stroke:#FFB5C1;stroke-width:24.0px;stroke-linecap:butt;stroke-linejoin:miter;stroke-opacity:1"/>
<path d="M 1473.81,423.02 L 1417.59,325.644" style="fill:none;fill-rule:evenodd;stroke:#FFB5C1;stroke-width:24.0px;stroke-linecap:butt;stroke-linejoin:miter;stroke-opacity:1"/>
<path d="M 1417.59,325.644 L 1305.15,325.644" style="fill:none;fill-rule:evenodd;stroke:#FFB5C1;stroke-width:24.0px;stroke-linecap:butt;stroke-linejoin:miter;stroke-opacity:1"/>
<path d="M 1417.59,325.644 L 1473.81,228.267" style="fill:none;fill-rule:evenodd;stroke:#FFB5C1;stroke-width:24.0px;stroke-linecap:butt;stroke-linejoin:miter;stroke-opacity:1"/>
<path d="M 1473.81,228.267 L 1417.59,130.891" style="fill:none;fill-rule:evenodd;stroke:#FFB5C1;stroke-width:24.0px;stroke-linecap:butt;stroke-linejoin:miter;stroke-opacity:1"/>
<path d="M 1473.81,228.267 L 1586.25,228.267" style="fill:none;fill-rule:evenodd;stroke:#FFB5C1;stroke-width:24.0px;stroke-linecap:butt;stroke-linejoin:miter;stroke-opacity:1"/>
<path d="M 1586.25,228.267 L 1642.47,130.891" style="fill:none;fill-rule:evenodd;stroke:#FFB5C1;stroke-width:24.0px;stroke-linecap:butt;stroke-linejoin:miter;stroke-opacity:1"/>
<path d="M 2398.48,323.498 L 2504.73,286.693" style="fill:none;fill-rule:evenodd;stroke:#FFCC99;stroke-width:24.0px;stroke-linecap:butt;stroke-linejoin:miter;stroke-opacity:1"/>
<path d="M 2504.73,286.693 L 2525.97,176.279" style="fill:none;fill-rule:evenodd;stroke:#FFCC99;stroke-width:24.0px;stroke-linecap:butt;stroke-linejoin:miter;stroke-opacity:1"/>
<path d="M 2589.72,360.303 L 2695.97,323.498" style="fill:none;fill-rule:evenodd;stroke:#FFB5C1;stroke-width:24.0px;stroke-linecap:butt;stroke-linejoin:miter;stroke-opacity:1"/>
<path d="M 3784.75,397.626 L 3684.45,346.808" style="fill:none;fill-rule:evenodd;stroke:#FFCC99;stroke-width:24.0px;stroke-linecap:butt;stroke-linejoin:miter;stroke-opacity:1"/>
<path d="M 3489.99,357.444 L 3395.82,418.899" style="fill:none;fill-rule:evenodd;stroke:#FFB5C1;stroke-width:24.0px;stroke-linecap:butt;stroke-linejoin:miter;stroke-opacity:1"/>
<path d="M 3395.82,418.899 L 3295.52,368.081" style="fill:none;fill-rule:evenodd;stroke:#FFB5C1;stroke-width:24.0px;stroke-linecap:butt;stroke-linejoin:miter;stroke-opacity:1"/>
<path d="M 3295.52,368.081 L 3201.36,429.535" style="fill:none;fill-rule:evenodd;stroke:#FFB5C1;stroke-width:24.0px;stroke-linecap:butt;stroke-linejoin:miter;stroke-opacity:1"/>
<path d="M 3295.52,368.081 L 3289.38,255.809" style="fill:none;fill-rule:evenodd;stroke:#FFB5C1;stroke-width:24.0px;stroke-linecap:butt;stroke-linejoin:miter;stroke-opacity:1"/>
<path d="M 3289.38,255.809 L 3189.08,204.991" style="fill:none;fill-rule:evenodd;stroke:#FFB5C1;stroke-width:24.0px;stroke-linecap:butt;stroke-linejoin:miter;stroke-opacity:1"/>
<path d="M 3289.38,255.809 L 3383.54,194.354" style="fill:none;fill-rule:evenodd;stroke:#FFB5C1;stroke-width:24.0px;stroke-linecap:butt;stroke-linejoin:miter;stroke-opacity:1"/>
<path d="M 3383.54,194.354 L 3377.4,82.0816" style="fill:none;fill-rule:evenodd;stroke:#FFB5C1;stroke-width:24.0px;stroke-linecap:butt;stroke-linejoin:miter;stroke-opacity:1"/>
<ellipse cx="303.846" cy="286.693" rx="22.4881" ry="22.4881" style="fill:#FFFFAA;fill-rule:evenodd;stroke:#FFFFAA;stroke-width:1px;stroke-linecap:butt;stroke-linejoin:miter;stroke-opacity:1"/>
<ellipse cx="637.767" cy="222.442" rx="22.4881" ry="22.4881" style="fill:#FFCC99;fill-rule:evenodd;stroke:#FFCC99;stroke-width:1px;stroke-linecap:butt;stroke-linejoin:miter;stroke-opacity:1"/>
<ellipse cx="735.143" cy="278.662" rx="22.4881" ry="22.4881" style="fill:#FFCC99;fill-rule:evenodd;stroke:#FFCC99;stroke-width:1px;stroke-linecap:butt;stroke-linejoin:miter;stroke-opacity:1"/>
<ellipse cx="735.143" cy="391.322" rx="22.4881" ry="22.4881" style="fill:#FFCC99;fill-rule:evenodd;stroke:#FFCC99;stroke-width:1px;stroke-linecap:butt;stroke-linejoin:miter;stroke-opacity:1"/>
<ellipse cx="832.519" cy="222.662" rx="22.4881" ry="22.4881" style="fill:#FFCC99;fill-rule:evenodd;stroke:#FFCC99;stroke-width:1px;stroke-linecap:butt;stroke-linejoin:miter;stroke-opacity:1"/>
<ellipse cx="929.895" cy="278.662" rx="22.4881" ry="22.4881" style="fill:#FFCC99;fill-rule:evenodd;stroke:#FFCC99;stroke-width:1px;stroke-linecap:butt;stroke-linejoin:miter;stroke-opacity:1"/>
<ellipse cx="1027.27" cy="222.442" rx="22.4881" ry="22.4881" style="fill:#FFCC99;fill-rule:evenodd;stroke:#FFCC99;stroke-width:1px;stroke-linecap:butt;stroke-linejoin:miter;stroke-opacity:1"/>
<ellipse cx="929.895" cy="391.322" rx="22.4881" ry="22.4881" style="fill:#FFCC99;fill-rule:evenodd;stroke:#FFCC99;stroke-width:1px;stroke-linecap:butt;stroke-linejoin:miter;stroke-opacity:1"/>
<ellipse cx="1774.65" cy="332.724" rx="43.1001" ry="30.0379" style="fill:#FFB5C1;fill-rule:evenodd;stroke:#FFB5C1;stroke-width:1px;stroke-linecap:butt;stroke-linejoin:miter;stroke-opacity:1"/>
<ellipse cx="1642.47" cy="325.644" rx="22.4881" ry="22.4881" style="fill:#FFB5C1;fill-rule:evenodd;stroke:#FFB5C1;stroke-width:1px;stroke-linecap:butt;stroke-linejoin:miter;stroke-opacity:1"/>
<ellipse cx="1586.25" cy="423.02" rx="22.4881" ry="22.4881" style="fill:#FFB5C1;fill-rule:evenodd;stroke:#FFB5C1;stroke-width:1px;stroke-linecap:butt;stroke-linejoin:miter;stroke-opacity:1"/>
<ellipse cx="1473.81" cy="423.02" rx="22.4881" ry="22.4881" style="fill:#FFB5C1;fill-rule:evenodd;stroke:#FFB5C1;stroke-width:1px;stroke-linecap:butt;stroke-linejoin:miter;stroke-opacity:1"/>
<ellipse cx="1417.59" cy="325.644" rx="22.4881" ry="22.4881" style="fill:#FFB5C1;fill-rule:evenodd;stroke:#FFB5C1;stroke-width:1px;stroke-linecap:butt;stroke-linejoin:miter;stroke-opacity:1"/>
<ellipse cx="1305.15" cy="325.644" rx="22.4881" ry="22.4881" style="fill:#FFB5C1;fill-rule:evenodd;stroke:#FFB5C1;stroke-width:1px;stroke-linecap:butt;stroke-linejoin:miter;stroke-opacity:1"/>
<ellipse cx="1473.81" cy="228.267" rx="22.4881" ry="22.4881" style="fill:#FFB5C1;fill-rule:evenodd;stroke:#FFB5C1;stroke-width:1px;stroke-linecap:butt;stroke-linejoin:miter;stroke-opacity:1"/>
<ellipse cx="1417.59" cy="130.891" rx="22.4881" ry="22.4881" style="fill:#FFB5C1;fill-rule:evenodd;stroke:#FFB5C1;stroke-width:1px;stroke-linecap:butt;stroke-linejoin:miter;stroke-opacity:1"/>
<ellipse cx="1586.25" cy="228.267" rx="22.4881" ry="22.4881" style="fill:#FFB5C1;fill-rule:evenodd;stroke:#FFB5C1;stroke-width:1px;stroke-linecap:butt;stroke-linejoin:miter;stroke-opacity:1"/>
<ellipse cx="1642.47" cy="130.891" rx="22.4881" ry="22.4881" style="fill:#FFB5C1;fill-rule:evenodd;stroke:#FFB5C1;stroke-width:1px;stroke-linecap:butt;stroke-linejoin:miter;stroke-opacity:1"/>
<ellipse cx="2398.48" cy="323.498" rx="22.4881" ry="22.4881" style="fill:#FFCC99;fill-rule:evenodd;stroke:#FFCC99;stroke-width:1px;stroke-linecap:butt;stroke-linejoin:miter;stroke-opacity:1"/>
<ellipse cx="2504.73" cy="286.693" rx="22.4881" ry="22.4881" style="fill:#FFCC99;fill-rule:evenodd;stroke:#FFCC99;stroke-width:1px;stroke-linecap:butt;stroke-linejoin:miter;stroke-opacity:1"/>
<ellipse cx="2525.97" cy="176.499" rx="22.4881" ry="22.4881" style="fill:#FFCC99;fill-rule:evenodd;stroke:#FFCC99;stroke-width:1px;stroke-linecap:butt;stroke-linejoin:miter;stroke-opacity:1"/>
<ellipse cx="2589.72" cy="375.879" rx="22.4881" ry="42.0531" style="fill:#FFB5C1;fill-rule:evenodd;stroke:#FFB5C1;stroke-width:1px;stroke-linecap:butt;stroke-linejoin:miter;stroke-opacity:1"/>
<ellipse cx="2695.97" cy="323.498" rx="22.4881" ry="22.4881" style="fill:#FFB5C1;fill-rule:evenodd;stroke:#FFB5C1;stroke-width:1px;stroke-linecap:butt;stroke-linejoin:miter;stroke-opacity:1"/>
<ellipse cx="2717.22" cy="213.084" rx="22.4881" ry="22.4881" style="fill:#FFCC99;fill-rule:evenodd;stroke:#FFCC99;stroke-width:1px;stroke-linecap:butt;stroke-linejoin:miter;stroke-opacity:1"/>
<ellipse cx="2780.97" cy="397.107" rx="22.4881" ry="22.4881" style="fill:#FFFFAA;fill-rule:evenodd;stroke:#FFFFAA;stroke-width:1px;stroke-linecap:butt;stroke-linejoin:miter;stroke-opacity:1"/>
<ellipse cx="3784.75" cy="397.846" rx="22.4881" ry="22.4881" style="fill:#FFCC99;fill-rule:evenodd;stroke:#FFCC99;stroke-width:1px;stroke-linecap:butt;stroke-linejoin:miter;stroke-opacity:1"/>
<ellipse cx="3684.45" cy="346.808" rx="22.4881" ry="22.4881" style="fill:#FFCC99;fill-rule:evenodd;stroke:#FFCC99;stroke-width:1px;stroke-linecap:butt;stroke-linejoin:miter;stroke-opacity:1"/>
<ellipse cx="3489.99" cy="357.444" rx="22.4881" ry="22.4881" style="fill:#FFB5C1;fill-rule:evenodd;stroke:#FFB5C1;stroke-width:1px;stroke-linecap:butt;stroke-linejoin:miter;stroke-opacity:1"/>
<ellipse cx="3395.82" cy="418.899" rx="22.4881" ry="22.4881" style="fill:#FFB5C1;fill-rule:evenodd;stroke:#FFB5C1;stroke-width:1px;stroke-linecap:butt;stroke-linejoin:miter;stroke-opacity:1"/>
<ellipse cx="3295.52" cy="368.081" rx="22.4881" ry="22.4881" style="fill:#FFB5C1;fill-rule:evenodd;stroke:#FFB5C1;stroke-width:1px;stroke-linecap:butt;stroke-linejoin:miter;stroke-opacity:1"/>
<ellipse cx="3201.36" cy="429.535" rx="22.4881" ry="22.4881" style="fill:#FFB5C1;fill-rule:evenodd;stroke:#FFB5C1;stroke-width:1px;stroke-linecap:butt;stroke-linejoin:miter;stroke-opacity:1"/>
<ellipse cx="3289.38" cy="255.809" rx="22.4881" ry="22.4881" style="fill:#FFB5C1;fill-rule:evenodd;stroke:#FFB5C1;stroke-width:1px;stroke-linecap:butt;stroke-linejoin:miter;stroke-opacity:1"/>
<ellipse cx="3189.08" cy="204.991" rx="22.4881" ry="22.4881" style="fill:#FFB5C1;fill-rule:evenodd;stroke:#FFB5C1;stroke-width:1px;stroke-linecap:butt;stroke-linejoin:miter;stroke-opacity:1"/>
<ellipse cx="3383.54" cy="194.354" rx="22.4881" ry="22.4881" style="fill:#FFB5C1;fill-rule:evenodd;stroke:#FFB5C1;stroke-width:1px;stroke-linecap:butt;stroke-linejoin:miter;stroke-opacity:1"/>
<ellipse cx="3377.4" cy="82.0816" rx="22.4881" ry="22.4881" style="fill:#FFB5C1;fill-rule:evenodd;stroke:#FFB5C1;stroke-width:1px;stroke-linecap:butt;stroke-linejoin:miter;stroke-opacity:1"/>
<ellipse cx="3772.47" cy="173.301" rx="22.4881" ry="22.4881" style="fill:#FFCC99;fill-rule:evenodd;stroke:#FFCC99;stroke-width:1px;stroke-linecap:butt;stroke-linejoin:miter;stroke-opacity:1"/>
<path class="bond-0" d="M 387.491,238.401 L 345.669,262.547" style="fill:none;fill-rule:evenodd;stroke:#00CC00;stroke-width:2.0px;stroke-linecap:butt;stroke-linejoin:miter;stroke-opacity:1"/>
<path class="bond-0" d="M 345.669,262.547 L 303.846,286.693" style="fill:none;fill-rule:evenodd;stroke:#000000;stroke-width:2.0px;stroke-linecap:butt;stroke-linejoin:miter;stroke-opacity:1"/>
<path class="bond-1" d="M 303.846,286.693 L 257.484,259.926" style="fill:none;fill-rule:evenodd;stroke:#000000;stroke-width:2.0px;stroke-linecap:butt;stroke-linejoin:miter;stroke-opacity:1"/>
<path class="bond-1" d="M 257.484,259.926 L 211.121,233.158" style="fill:none;fill-rule:evenodd;stroke:#00CC00;stroke-width:2.0px;stroke-linecap:butt;stroke-linejoin:miter;stroke-opacity:1"/>
<path class="bond-2" d="M 303.846,286.693 L 303.846,334.778" style="fill:none;fill-rule:evenodd;stroke:#000000;stroke-width:2.0px;stroke-linecap:butt;stroke-linejoin:miter;stroke-opacity:1"/>
<path class="bond-2" d="M 303.846,334.778 L 303.846,382.862" style="fill:none;fill-rule:evenodd;stroke:#00CC00;stroke-width:2.0px;stroke-linecap:butt;stroke-linejoin:miter;stroke-opacity:1"/>
<path class="bond-3" d="M 637.767,222.442 L 735.143,278.662" style="fill:none;fill-rule:evenodd;stroke:#000000;stroke-width:2.0px;stroke-linecap:butt;stroke-linejoin:miter;stroke-opacity:1"/>
<path class="bond-4" d="M 723.899,278.662 L 723.899,326.316" style="fill:none;fill-rule:evenodd;stroke:#000000;stroke-width:2.0px;stroke-linecap:butt;stroke-linejoin:miter;stroke-opacity:1"/>
<path class="bond-4" d="M 723.899,326.316 L 723.899,373.971" style="fill:none;fill-rule:evenodd;stroke:#FF0000;stroke-width:2.0px;stroke-linecap:butt;stroke-linejoin:miter;stroke-opacity:1"/>
<path class="bond-4" d="M 746.387,278.662 L 746.387,326.316" style="fill:none;fill-rule:evenodd;stroke:#000000;stroke-width:2.0px;stroke-linecap:butt;stroke-linejoin:miter;stroke-opacity:1"/>
<path class="bond-4" d="M 746.387,326.316 L 746.387,373.971" style="fill:none;fill-rule:evenodd;stroke:#FF0000;stroke-width:2.0px;stroke-linecap:butt;stroke-linejoin:miter;stroke-opacity:1"/>
<path class="bond-5" d="M 735.143,278.662 L 775.925,255.116" style="fill:none;fill-rule:evenodd;stroke:#000000;stroke-width:2.0px;stroke-linecap:butt;stroke-linejoin:miter;stroke-opacity:1"/>
<path class="bond-5" d="M 775.925,255.116 L 816.708,231.57" style="fill:none;fill-rule:evenodd;stroke:#FF0000;stroke-width:2.0px;stroke-linecap:butt;stroke-linejoin:miter;stroke-opacity:1"/>
<path class="bond-6" d="M 848.33,231.57 L 889.112,255.116" style="fill:none;fill-rule:evenodd;stroke:#FF0000;stroke-width:2.0px;stroke-linecap:butt;stroke-linejoin:miter;stroke-opacity:1"/>
<path class="bond-6" d="M 889.112,255.116 L 929.895,278.662" style="fill:none;fill-rule:evenodd;stroke:#000000;stroke-width:2.0px;stroke-linecap:butt;stroke-linejoin:miter;stroke-opacity:1"/>
<path class="bond-7" d="M 929.895,278.662 L 1027.27,222.442" style="fill:none;fill-rule:evenodd;stroke:#000000;stroke-width:2.0px;stroke-linecap:butt;stroke-linejoin:miter;stroke-opacity:1"/>
<path class="bond-8" d="M 918.651,278.662 L 918.651,326.316" style="fill:none;fill-rule:evenodd;stroke:#000000;stroke-width:2.0px;stroke-linecap:butt;stroke-linejoin:miter;stroke-opacity:1"/>
<path class="bond-8" d="M 918.651,326.316 L 918.651,373.971" style="fill:none;fill-rule:evenodd;stroke:#FF0000;stroke-width:2.0px;stroke-linecap:butt;stroke-linejoin:miter;stroke-opacity:1"/>
<path class="bond-8" d="M 941.139,278.662 L 941.139,326.316" style="fill:none;fill-rule:evenodd;stroke:#000000;stroke-width:2.0px;stroke-linecap:butt;stroke-linejoin:miter;stroke-opacity:1"/>
<path class="bond-8" d="M 941.139,326.316 L 941.139,373.971" style="fill:none;fill-rule:evenodd;stroke:#FF0000;stroke-width:2.0px;stroke-linecap:butt;stroke-linejoin:miter;stroke-opacity:1"/>
<path class="bond-9" d="M 1741.36,325.644 L 1691.91,325.644" style="fill:none;fill-rule:evenodd;stroke:#0000FF;stroke-width:2.0px;stroke-linecap:butt;stroke-linejoin:miter;stroke-opacity:1"/>
<path class="bond-9" d="M 1691.91,325.644 L 1642.47,325.644" style="fill:none;fill-rule:evenodd;stroke:#000000;stroke-width:2.0px;stroke-linecap:butt;stroke-linejoin:miter;stroke-opacity:1"/>
<path class="bond-10" d="M 1642.47,325.644 L 1586.25,423.02" style="fill:none;fill-rule:evenodd;stroke:#000000;stroke-width:2.0px;stroke-linecap:butt;stroke-linejoin:miter;stroke-opacity:1"/>
<path class="bond-10" d="M 1614.56,329.006 L 1575.21,397.169" style="fill:none;fill-rule:evenodd;stroke:#000000;stroke-width:2.0px;stroke-linecap:butt;stroke-linejoin:miter;stroke-opacity:1;stroke-dasharray:6,6"/>
<path class="bond-18" d="M 1642.47,325.644 L 1586.25,228.267" style="fill:none;fill-rule:evenodd;stroke:#000000;stroke-width:2.0px;stroke-linecap:butt;stroke-linejoin:miter;stroke-opacity:1"/>
<path class="bond-18" d="M 1614.56,322.281 L 1575.21,254.118" style="fill:none;fill-rule:evenodd;stroke:#000000;stroke-width:2.0px;stroke-linecap:butt;stroke-linejoin:miter;stroke-opacity:1;stroke-dasharray:6,6"/>
<path class="bond-11" d="M 1586.25,423.02 L 1473.81,423.02" style="fill:none;fill-rule:evenodd;stroke:#000000;stroke-width:2.0px;stroke-linecap:butt;stroke-linejoin:miter;stroke-opacity:1"/>
<path class="bond-11" d="M 1569.38,400.532 L 1490.67,400.532" style="fill:none;fill-rule:evenodd;stroke:#000000;stroke-width:2.0px;stroke-linecap:butt;stroke-linejoin:miter;stroke-opacity:1;stroke-dasharray:6,6"/>
<path class="bond-12" d="M 1473.81,423.02 L 1417.59,325.644" style="fill:none;fill-rule:evenodd;stroke:#000000;stroke-width:2.0px;stroke-linecap:butt;stroke-linejoin:miter;stroke-opacity:1"/>
<path class="bond-12" d="M 1484.85,397.169 L 1445.5,329.006" style="fill:none;fill-rule:evenodd;stroke:#000000;stroke-width:2.0px;stroke-linecap:butt;stroke-linejoin:miter;stroke-opacity:1;stroke-dasharray:6,6"/>
<path class="bond-13" d="M 1417.59,325.644 L 1366.98,325.644" style="fill:none;fill-rule:evenodd;stroke:#000000;stroke-width:2.0px;stroke-linecap:butt;stroke-linejoin:miter;stroke-opacity:1"/>
<path class="bond-13" d="M 1366.98,325.644 L 1316.38,325.644" style="fill:none;fill-rule:evenodd;stroke:#33CCCC;stroke-width:2.0px;stroke-linecap:butt;stroke-linejoin:miter;stroke-opacity:1"/>
<path class="bond-14" d="M 1417.59,325.644 L 1473.81,228.267" style="fill:none;fill-rule:evenodd;stroke:#000000;stroke-width:2.0px;stroke-linecap:butt;stroke-linejoin:miter;stroke-opacity:1"/>
<path class="bond-14" d="M 1445.5,322.281 L 1484.85,254.118" style="fill:none;fill-rule:evenodd;stroke:#000000;stroke-width:2.0px;stroke-linecap:butt;stroke-linejoin:miter;stroke-opacity:1;stroke-dasharray:6,6"/>
<path class="bond-15" d="M 1473.81,228.267 L 1450.6,188.065" style="fill:none;fill-rule:evenodd;stroke:#000000;stroke-width:2.0px;stroke-linecap:butt;stroke-linejoin:miter;stroke-opacity:1"/>
<path class="bond-15" d="M 1450.6,188.065 L 1427.39,147.862" style="fill:none;fill-rule:evenodd;stroke:#33CCCC;stroke-width:2.0px;stroke-linecap:butt;stroke-linejoin:miter;stroke-opacity:1"/>
<path class="bond-16" d="M 1473.81,228.267 L 1586.25,228.267" style="fill:none;fill-rule:evenodd;stroke:#000000;stroke-width:2.0px;stroke-linecap:butt;stroke-linejoin:miter;stroke-opacity:1"/>
<path class="bond-16" d="M 1490.67,250.755 L 1569.38,250.755" style="fill:none;fill-rule:evenodd;stroke:#000000;stroke-width:2.0px;stroke-linecap:butt;stroke-linejoin:miter;stroke-opacity:1;stroke-dasharray:6,6"/>
<path class="bond-17" d="M 1586.25,228.267 L 1609.46,188.065" style="fill:none;fill-rule:evenodd;stroke:#000000;stroke-width:2.0px;stroke-linecap:butt;stroke-linejoin:miter;stroke-opacity:1"/>
<path class="bond-17" d="M 1609.46,188.065 L 1632.67,147.862" style="fill:none;fill-rule:evenodd;stroke:#33CCCC;stroke-width:2.0px;stroke-linecap:butt;stroke-linejoin:miter;stroke-opacity:1"/>
<path class="bond-19" d="M 2398.48,323.498 L 2504.73,286.693" style="fill:none;fill-rule:evenodd;stroke:#000000;stroke-width:2.0px;stroke-linecap:butt;stroke-linejoin:miter;stroke-opacity:1"/>
<path class="bond-20" d="M 2515.77,288.818 L 2524.7,242.396" style="fill:none;fill-rule:evenodd;stroke:#000000;stroke-width:2.0px;stroke-linecap:butt;stroke-linejoin:miter;stroke-opacity:1"/>
<path class="bond-20" d="M 2524.7,242.396 L 2533.63,195.975" style="fill:none;fill-rule:evenodd;stroke:#FF0000;stroke-width:2.0px;stroke-linecap:butt;stroke-linejoin:miter;stroke-opacity:1"/>
<path class="bond-20" d="M 2493.68,284.568 L 2502.62,238.147" style="fill:none;fill-rule:evenodd;stroke:#000000;stroke-width:2.0px;stroke-linecap:butt;stroke-linejoin:miter;stroke-opacity:1"/>
<path class="bond-20" d="M 2502.62,238.147 L 2511.55,191.725" style="fill:none;fill-rule:evenodd;stroke:#FF0000;stroke-width:2.0px;stroke-linecap:butt;stroke-linejoin:miter;stroke-opacity:1"/>
<path class="bond-21" d="M 2504.73,286.693 L 2540.45,317.63" style="fill:none;fill-rule:evenodd;stroke:#000000;stroke-width:2.0px;stroke-linecap:butt;stroke-linejoin:miter;stroke-opacity:1"/>
<path class="bond-21" d="M 2540.45,317.63 L 2576.17,348.567" style="fill:none;fill-rule:evenodd;stroke:#0000FF;stroke-width:2.0px;stroke-linecap:butt;stroke-linejoin:miter;stroke-opacity:1"/>
<path class="bond-22" d="M 2603.27,355.608 L 2649.62,339.553" style="fill:none;fill-rule:evenodd;stroke:#0000FF;stroke-width:2.0px;stroke-linecap:butt;stroke-linejoin:miter;stroke-opacity:1"/>
<path class="bond-22" d="M 2649.62,339.553 L 2695.97,323.498" style="fill:none;fill-rule:evenodd;stroke:#000000;stroke-width:2.0px;stroke-linecap:butt;stroke-linejoin:miter;stroke-opacity:1"/>
<path class="bond-23" d="M 2695.97,323.498 L 2717.22,213.084" style="fill:none;fill-rule:evenodd;stroke:#000000;stroke-width:2.0px;stroke-linecap:butt;stroke-linejoin:miter;stroke-opacity:1"/>
<path class="bond-23" d="M 2721.24,311.186 L 2736.11,233.896" style="fill:none;fill-rule:evenodd;stroke:#000000;stroke-width:2.0px;stroke-linecap:butt;stroke-linejoin:miter;stroke-opacity:1;stroke-dasharray:6,6"/>
<path class="bond-28" d="M 2695.97,323.498 L 2780.97,397.107" style="fill:none;fill-rule:evenodd;stroke:#000000;stroke-width:2.0px;stroke-linecap:butt;stroke-linejoin:miter;stroke-opacity:1"/>
<path class="bond-28" d="M 2723.44,317.54 L 2782.94,369.066" style="fill:none;fill-rule:evenodd;stroke:#000000;stroke-width:2.0px;stroke-linecap:butt;stroke-linejoin:miter;stroke-opacity:1;stroke-dasharray:6,6"/>
<path class="bond-24" d="M 2717.22,213.084 L 2787.73,188.659" style="fill:none;fill-rule:evenodd;stroke:#000000;stroke-width:2.0px;stroke-linecap:butt;stroke-linejoin:miter;stroke-opacity:1"/>
<path class="bond-24" d="M 2735.15,230.669 L 2784.51,213.572" style="fill:none;fill-rule:evenodd;stroke:#000000;stroke-width:2.0px;stroke-linecap:butt;stroke-linejoin:miter;stroke-opacity:1;stroke-dasharray:6,6"/>
<path class="bond-25" d="M 2841.71,192.079 L 2895.33,238.52" style="fill:none;fill-rule:evenodd;stroke:#000000;stroke-width:2.0px;stroke-linecap:butt;stroke-linejoin:miter;stroke-opacity:1"/>
<path class="bond-25" d="M 2835.03,216.044 L 2872.57,248.553" style="fill:none;fill-rule:evenodd;stroke:#000000;stroke-width:2.0px;stroke-linecap:butt;stroke-linejoin:miter;stroke-opacity:1;stroke-dasharray:6,6"/>
<path class="bond-26" d="M 2905.09,267.379 L 2890.42,343.617" style="fill:none;fill-rule:evenodd;stroke:#000000;stroke-width:2.0px;stroke-linecap:butt;stroke-linejoin:miter;stroke-opacity:1"/>
<path class="bond-26" d="M 2880.81,274.565 L 2870.54,327.931" style="fill:none;fill-rule:evenodd;stroke:#000000;stroke-width:2.0px;stroke-linecap:butt;stroke-linejoin:miter;stroke-opacity:1;stroke-dasharray:6,6"/>
<path class="bond-27" d="M 2873.48,365.059 L 2780.97,397.107" style="fill:none;fill-rule:evenodd;stroke:#000000;stroke-width:2.0px;stroke-linecap:butt;stroke-linejoin:miter;stroke-opacity:1"/>
<path class="bond-27" d="M 2852.24,348.617 L 2787.48,371.051" style="fill:none;fill-rule:evenodd;stroke:#000000;stroke-width:2.0px;stroke-linecap:butt;stroke-linejoin:miter;stroke-opacity:1;stroke-dasharray:6,6"/>
<path class="bond-29" d="M 3774.02,379.585 L 3731.77,358.181" style="fill:none;fill-rule:evenodd;stroke:#FF0000;stroke-width:2.0px;stroke-linecap:butt;stroke-linejoin:miter;stroke-opacity:1"/>
<path class="bond-29" d="M 3731.77,358.181 L 3689.53,336.778" style="fill:none;fill-rule:evenodd;stroke:#000000;stroke-width:2.0px;stroke-linecap:butt;stroke-linejoin:miter;stroke-opacity:1"/>
<path class="bond-29" d="M 3763.86,399.645 L 3721.61,378.242" style="fill:none;fill-rule:evenodd;stroke:#FF0000;stroke-width:2.0px;stroke-linecap:butt;stroke-linejoin:miter;stroke-opacity:1"/>
<path class="bond-29" d="M 3721.61,378.242 L 3679.36,356.838" style="fill:none;fill-rule:evenodd;stroke:#000000;stroke-width:2.0px;stroke-linecap:butt;stroke-linejoin:miter;stroke-opacity:1"/>
<path class="bond-30" d="M 3684.45,346.808 L 3650.49,368.97" style="fill:none;fill-rule:evenodd;stroke:#000000;stroke-width:2.0px;stroke-linecap:butt;stroke-linejoin:miter;stroke-opacity:1"/>
<path class="bond-30" d="M 3650.49,368.97 L 3616.53,391.131" style="fill:none;fill-rule:evenodd;stroke:#0000FF;stroke-width:2.0px;stroke-linecap:butt;stroke-linejoin:miter;stroke-opacity:1"/>
<path class="bond-30" d="M 3661.97,334.624 L 3638.2,350.138" style="fill:none;fill-rule:evenodd;stroke:#000000;stroke-width:2.0px;stroke-linecap:butt;stroke-linejoin:miter;stroke-opacity:1;stroke-dasharray:6,6"/>
<path class="bond-30" d="M 3638.2,350.138 L 3614.43,365.651" style="fill:none;fill-rule:evenodd;stroke:#0000FF;stroke-width:2.0px;stroke-linecap:butt;stroke-linejoin:miter;stroke-opacity:1;stroke-dasharray:6,6"/>
<path class="bond-43" d="M 3684.45,346.808 L 3679.24,251.667" style="fill:none;fill-rule:evenodd;stroke:#000000;stroke-width:2.0px;stroke-linecap:butt;stroke-linejoin:miter;stroke-opacity:1"/>
<path class="bond-43" d="M 3661.21,333.765 L 3657.57,267.166" style="fill:none;fill-rule:evenodd;stroke:#000000;stroke-width:2.0px;stroke-linecap:butt;stroke-linejoin:miter;stroke-opacity:1;stroke-dasharray:6,6"/>
<path class="bond-31" d="M 3557.11,391.451 L 3523.55,374.448" style="fill:none;fill-rule:evenodd;stroke:#0000FF;stroke-width:2.0px;stroke-linecap:butt;stroke-linejoin:miter;stroke-opacity:1"/>
<path class="bond-31" d="M 3523.55,374.448 L 3489.99,357.444" style="fill:none;fill-rule:evenodd;stroke:#000000;stroke-width:2.0px;stroke-linecap:butt;stroke-linejoin:miter;stroke-opacity:1"/>
<path class="bond-31" d="M 3557.2,366.29 L 3533.71,354.388" style="fill:none;fill-rule:evenodd;stroke:#0000FF;stroke-width:2.0px;stroke-linecap:butt;stroke-linejoin:miter;stroke-opacity:1;stroke-dasharray:6,6"/>
<path class="bond-31" d="M 3533.71,354.388 L 3510.22,342.485" style="fill:none;fill-rule:evenodd;stroke:#000000;stroke-width:2.0px;stroke-linecap:butt;stroke-linejoin:miter;stroke-opacity:1;stroke-dasharray:6,6"/>
<path class="bond-32" d="M 3489.99,357.444 L 3395.82,418.899" style="fill:none;fill-rule:evenodd;stroke:#000000;stroke-width:2.0px;stroke-linecap:butt;stroke-linejoin:miter;stroke-opacity:1"/>
<path class="bond-32" d="M 3463.57,347.831 L 3397.66,390.849" style="fill:none;fill-rule:evenodd;stroke:#000000;stroke-width:2.0px;stroke-linecap:butt;stroke-linejoin:miter;stroke-opacity:1;stroke-dasharray:6,6"/>
<path class="bond-44" d="M 3489.99,357.444 L 3484.78,262.303" style="fill:none;fill-rule:evenodd;stroke:#000000;stroke-width:2.0px;stroke-linecap:butt;stroke-linejoin:miter;stroke-opacity:1"/>
<path class="bond-44" d="M 3511.66,341.945 L 3508.02,275.346" style="fill:none;fill-rule:evenodd;stroke:#000000;stroke-width:2.0px;stroke-linecap:butt;stroke-linejoin:miter;stroke-opacity:1;stroke-dasharray:6,6"/>
<path class="bond-33" d="M 3395.82,418.899 L 3295.52,368.081" style="fill:none;fill-rule:evenodd;stroke:#000000;stroke-width:2.0px;stroke-linecap:butt;stroke-linejoin:miter;stroke-opacity:1"/>
<path class="bond-33" d="M 3390.94,391.216 L 3320.73,355.643" style="fill:none;fill-rule:evenodd;stroke:#000000;stroke-width:2.0px;stroke-linecap:butt;stroke-linejoin:miter;stroke-opacity:1;stroke-dasharray:6,6"/>
<path class="bond-34" d="M 3295.52,368.081 L 3254.06,395.143" style="fill:none;fill-rule:evenodd;stroke:#000000;stroke-width:2.0px;stroke-linecap:butt;stroke-linejoin:miter;stroke-opacity:1"/>
<path class="bond-34" d="M 3254.06,395.143 L 3212.59,422.205" style="fill:none;fill-rule:evenodd;stroke:#33CCCC;stroke-width:2.0px;stroke-linecap:butt;stroke-linejoin:miter;stroke-opacity:1"/>
<path class="bond-35" d="M 3295.52,368.081 L 3289.38,255.809" style="fill:none;fill-rule:evenodd;stroke:#000000;stroke-width:2.0px;stroke-linecap:butt;stroke-linejoin:miter;stroke-opacity:1"/>
<path class="bond-35" d="M 3317.06,350.012 L 3312.76,271.421" style="fill:none;fill-rule:evenodd;stroke:#000000;stroke-width:2.0px;stroke-linecap:butt;stroke-linejoin:miter;stroke-opacity:1;stroke-dasharray:6,6"/>
<path class="bond-36" d="M 3289.38,255.809 L 3244.85,233.245" style="fill:none;fill-rule:evenodd;stroke:#000000;stroke-width:2.0px;stroke-linecap:butt;stroke-linejoin:miter;stroke-opacity:1"/>
<path class="bond-36" d="M 3244.85,233.245 L 3200.31,210.681" style="fill:none;fill-rule:evenodd;stroke:#33CCCC;stroke-width:2.0px;stroke-linecap:butt;stroke-linejoin:miter;stroke-opacity:1"/>
<path class="bond-37" d="M 3289.38,255.809 L 3383.54,194.354" style="fill:none;fill-rule:evenodd;stroke:#000000;stroke-width:2.0px;stroke-linecap:butt;stroke-linejoin:miter;stroke-opacity:1"/>
<path class="bond-37" d="M 3315.8,265.422 L 3381.71,222.404" style="fill:none;fill-rule:evenodd;stroke:#000000;stroke-width:2.0px;stroke-linecap:butt;stroke-linejoin:miter;stroke-opacity:1;stroke-dasharray:6,6"/>
<path class="bond-38" d="M 3383.54,194.354 L 3380.94,146.703" style="fill:none;fill-rule:evenodd;stroke:#000000;stroke-width:2.0px;stroke-linecap:butt;stroke-linejoin:miter;stroke-opacity:1"/>
<path class="bond-38" d="M 3380.94,146.703 L 3378.33,99.0526" style="fill:none;fill-rule:evenodd;stroke:#33CCCC;stroke-width:2.0px;stroke-linecap:butt;stroke-linejoin:miter;stroke-opacity:1"/>
<path class="bond-39" d="M 3383.54,194.354 L 3450.03,228.041" style="fill:none;fill-rule:evenodd;stroke:#000000;stroke-width:2.0px;stroke-linecap:butt;stroke-linejoin:miter;stroke-opacity:1"/>
<path class="bond-39" d="M 3383.35,219.467 L 3429.9,243.048" style="fill:none;fill-rule:evenodd;stroke:#000000;stroke-width:2.0px;stroke-linecap:butt;stroke-linejoin:miter;stroke-opacity:1;stroke-dasharray:6,6"/>
<path class="bond-40" d="M 3510.09,228.041 L 3531.52,214.053" style="fill:none;fill-rule:evenodd;stroke:#000000;stroke-width:2.0px;stroke-linecap:butt;stroke-linejoin:miter;stroke-opacity:1"/>
<path class="bond-40" d="M 3531.52,214.053 L 3552.96,200.065" style="fill:none;fill-rule:evenodd;stroke:#0000FF;stroke-width:2.0px;stroke-linecap:butt;stroke-linejoin:miter;stroke-opacity:1"/>
<path class="bond-40" d="M 3528.81,242.677 L 3543.82,232.885" style="fill:none;fill-rule:evenodd;stroke:#000000;stroke-width:2.0px;stroke-linecap:butt;stroke-linejoin:miter;stroke-opacity:1;stroke-dasharray:6,6"/>
<path class="bond-40" d="M 3543.82,232.885 L 3558.82,223.093" style="fill:none;fill-rule:evenodd;stroke:#0000FF;stroke-width:2.0px;stroke-linecap:butt;stroke-linejoin:miter;stroke-opacity:1;stroke-dasharray:6,6"/>
<path class="bond-41" d="M 3607.4,198.609 L 3626.76,208.418" style="fill:none;fill-rule:evenodd;stroke:#0000FF;stroke-width:2.0px;stroke-linecap:butt;stroke-linejoin:miter;stroke-opacity:1"/>
<path class="bond-41" d="M 3626.76,208.418 L 3646.12,218.228" style="fill:none;fill-rule:evenodd;stroke:#000000;stroke-width:2.0px;stroke-linecap:butt;stroke-linejoin:miter;stroke-opacity:1"/>
<path class="bond-41" d="M 3603.04,221.612 L 3616.59,228.479" style="fill:none;fill-rule:evenodd;stroke:#0000FF;stroke-width:2.0px;stroke-linecap:butt;stroke-linejoin:miter;stroke-opacity:1;stroke-dasharray:6,6"/>
<path class="bond-41" d="M 3616.59,228.479 L 3630.15,235.346" style="fill:none;fill-rule:evenodd;stroke:#000000;stroke-width:2.0px;stroke-linecap:butt;stroke-linejoin:miter;stroke-opacity:1;stroke-dasharray:6,6"/>
<path class="bond-42" d="M 3710.21,227.141 L 3736.89,209.727" style="fill:none;fill-rule:evenodd;stroke:#000000;stroke-width:2.0px;stroke-linecap:butt;stroke-linejoin:miter;stroke-opacity:1"/>
<path class="bond-42" d="M 3736.89,209.727 L 3763.57,192.314" style="fill:none;fill-rule:evenodd;stroke:#FF0000;stroke-width:2.0px;stroke-linecap:butt;stroke-linejoin:miter;stroke-opacity:1"/>
<path class="bond-42" d="M 3697.92,208.308 L 3724.6,190.895" style="fill:none;fill-rule:evenodd;stroke:#000000;stroke-width:2.0px;stroke-linecap:butt;stroke-linejoin:miter;stroke-opacity:1"/>
<path class="bond-42" d="M 3724.6,190.895 L 3751.28,173.482" style="fill:none;fill-rule:evenodd;stroke:#FF0000;stroke-width:2.0px;stroke-linecap:butt;stroke-linejoin:miter;stroke-opacity:1"/>
<path class="atom-0" d="M 390.302 231.453 Q 390.302 224.413, 393.582 220.733 Q 396.902 217.013, 403.182 217.013 Q 409.022 217.013, 412.142 221.133 L 409.502 223.293 Q 407.222 220.293, 403.182 220.293 Q 398.902 220.293, 396.622 223.173 Q 394.382 226.013, 394.382 231.453 Q 394.382 237.053, 396.702 239.933 Q 399.062 242.813, 403.622 242.813 Q 406.742 242.813, 410.382 240.933 L 411.502 243.933 Q 410.022 244.893, 407.782 245.453 Q 405.542 246.013, 403.062 246.013 Q 396.902 246.013, 393.582 242.253 Q 390.302 238.493, 390.302 231.453 " fill="#00CC00"/>
<path class="atom-0" d="M 415.582 215.293 L 419.262 215.293 L 419.262 245.653 L 415.582 245.653 L 415.582 215.293 " fill="#00CC00"/>
<path class="atom-2" d="M 179.35 231.453 Q 179.35 224.413, 182.63 220.733 Q 185.95 217.013, 192.23 217.013 Q 198.07 217.013, 201.19 221.133 L 198.55 223.293 Q 196.27 220.293, 192.23 220.293 Q 187.95 220.293, 185.67 223.173 Q 183.43 226.013, 183.43 231.453 Q 183.43 237.053, 185.75 239.933 Q 188.11 242.813, 192.67 242.813 Q 195.79 242.813, 199.43 240.933 L 200.55 243.933 Q 199.07 244.893, 196.83 245.453 Q 194.59 246.013, 192.11 246.013 Q 185.95 246.013, 182.63 242.253 Q 179.35 238.493, 179.35 231.453 " fill="#00CC00"/>
<path class="atom-2" d="M 204.63 215.293 L 208.31 215.293 L 208.31 245.653 L 204.63 245.653 L 204.63 215.293 " fill="#00CC00"/>
<path class="atom-3" d="M 292.926 400.113 Q 292.926 393.073, 296.206 389.393 Q 299.526 385.673, 305.806 385.673 Q 311.646 385.673, 314.766 389.793 L 312.126 391.953 Q 309.846 388.953, 305.806 388.953 Q 301.526 388.953, 299.246 391.833 Q 297.006 394.673, 297.006 400.113 Q 297.006 405.713, 299.326 408.593 Q 301.686 411.473, 306.246 411.473 Q 309.366 411.473, 313.006 409.593 L 314.126 412.593 Q 312.646 413.553, 310.406 414.113 Q 308.166 414.673, 305.686 414.673 Q 299.526 414.673, 296.206 410.913 Q 292.926 407.153, 292.926 400.113 " fill="#00CC00"/>
<path class="atom-3" d="M 318.206 383.953 L 321.886 383.953 L 321.886 414.313 L 318.206 414.313 L 318.206 383.953 " fill="#00CC00"/>
<path class="atom-6" d="M 722.143 391.182 Q 722.143 384.382, 725.503 380.582 Q 728.863 376.782, 735.143 376.782 Q 741.423 376.782, 744.783 380.582 Q 748.143 384.382, 748.143 391.182 Q 748.143 398.062, 744.743 401.982 Q 741.343 405.862, 735.143 405.862 Q 728.903 405.862, 725.503 401.982 Q 722.143 398.102, 722.143 391.182 M 735.143 402.662 Q 739.463 402.662, 741.783 399.782 Q 744.143 396.862, 744.143 391.182 Q 744.143 385.622, 741.783 382.822 Q 739.463 379.982, 735.143 379.982 Q 730.823 379.982, 728.463 382.782 Q 726.143 385.582, 726.143 391.182 Q 726.143 396.902, 728.463 399.782 Q 730.823 402.662, 735.143 402.662 " fill="#FF0000"/>
<path class="atom-7" d="M 819.519 222.522 Q 819.519 215.722, 822.879 211.922 Q 826.239 208.122, 832.519 208.122 Q 838.799 208.122, 842.159 211.922 Q 845.519 215.722, 845.519 222.522 Q 845.519 229.402, 842.119 233.322 Q 838.719 237.202, 832.519 237.202 Q 826.279 237.202, 822.879 233.322 Q 819.519 229.442, 819.519 222.522 M 832.519 234.002 Q 836.839 234.002, 839.159 231.122 Q 841.519 228.202, 841.519 222.522 Q 841.519 216.962, 839.159 214.162 Q 836.839 211.322, 832.519 211.322 Q 828.199 211.322, 825.839 214.122 Q 823.519 216.922, 823.519 222.522 Q 823.519 228.242, 825.839 231.122 Q 828.199 234.002, 832.519 234.002 " fill="#FF0000"/>
<path class="atom-10" d="M 916.895 391.182 Q 916.895 384.382, 920.255 380.582 Q 923.615 376.782, 929.895 376.782 Q 936.175 376.782, 939.535 380.582 Q 942.895 384.382, 942.895 391.182 Q 942.895 398.062, 939.495 401.982 Q 936.095 405.862, 929.895 405.862 Q 923.655 405.862, 920.255 401.982 Q 916.895 398.102, 916.895 391.182 M 929.895 402.662 Q 934.215 402.662, 936.535 399.782 Q 938.895 396.862, 938.895 391.182 Q 938.895 385.622, 936.535 382.822 Q 934.215 379.982, 929.895 379.982 Q 925.575 379.982, 923.215 382.782 Q 920.895 385.582, 920.895 391.182 Q 920.895 396.902, 923.215 399.782 Q 925.575 402.662, 929.895 402.662 " fill="#FF0000"/>
<path class="atom-11" d="M 1748.65 311.484 L 1757.93 326.484 Q 1758.85 327.964, 1760.33 330.644 Q 1761.81 333.324, 1761.89 333.484 L 1761.89 311.484 L 1765.65 311.484 L 1765.65 339.804 L 1761.77 339.804 L 1751.81 323.404 Q 1750.65 321.484, 1749.41 319.284 Q 1748.21 317.084, 1747.85 316.404 L 1747.85 339.804 L 1744.17 339.804 L 1744.17 311.484 L 1748.65 311.484 " fill="#0000FF"/>
<path class="atom-11" d="M 1769.05 311.484 L 1772.89 311.484 L 1772.89 323.524 L 1787.37 323.524 L 1787.37 311.484 L 1791.21 311.484 L 1791.21 339.804 L 1787.37 339.804 L 1787.37 326.724 L 1772.89 326.724 L 1772.89 339.804 L 1769.05 339.804 L 1769.05 311.484 " fill="#0000FF"/>
<path class="atom-11" d="M 1792.58 338.81 Q 1793.27 337.041, 1794.91 336.064 Q 1796.54 335.061, 1798.81 335.061 Q 1801.64 335.061, 1803.22 336.592 Q 1804.81 338.124, 1804.81 340.843 Q 1804.81 343.615, 1802.75 346.202 Q 1800.71 348.789, 1796.49 351.852 L 1805.12 351.852 L 1805.12 353.964 L 1792.53 353.964 L 1792.53 352.195 Q 1796.01 349.713, 1798.07 347.865 Q 1800.16 346.017, 1801.16 344.354 Q 1802.17 342.691, 1802.17 340.975 Q 1802.17 339.18, 1801.27 338.176 Q 1800.37 337.173, 1798.81 337.173 Q 1797.31 337.173, 1796.3 337.78 Q 1795.3 338.388, 1794.59 339.734 L 1792.58 338.81 " fill="#0000FF"/>
<path class="atom-16" d="M 1296.73 311.484 L 1313.57 311.484 L 1313.57 314.724 L 1300.53 314.724 L 1300.53 323.324 L 1312.13 323.324 L 1312.13 326.604 L 1300.53 326.604 L 1300.53 339.804 L 1296.73 339.804 L 1296.73 311.484 " fill="#33CCCC"/>
<path class="atom-18" d="M 1409.17 116.731 L 1426.01 116.731 L 1426.01 119.971 L 1412.97 119.971 L 1412.97 128.571 L 1424.57 128.571 L 1424.57 131.851 L 1412.97 131.851 L 1412.97 145.051 L 1409.17 145.051 L 1409.17 116.731 " fill="#33CCCC"/>
<path class="atom-20" d="M 1634.05 116.731 L 1650.89 116.731 L 1650.89 119.971 L 1637.85 119.971 L 1637.85 128.571 L 1649.45 128.571 L 1649.45 131.851 L 1637.85 131.851 L 1637.85 145.051 L 1634.05 145.051 L 1634.05 116.731 " fill="#33CCCC"/>
<path class="atom-23" d="M 2512.97 176.359 Q 2512.97 169.559, 2516.33 165.759 Q 2519.69 161.959, 2525.97 161.959 Q 2532.25 161.959, 2535.61 165.759 Q 2538.97 169.559, 2538.97 176.359 Q 2538.97 183.239, 2535.57 187.159 Q 2532.17 191.039, 2525.97 191.039 Q 2519.73 191.039, 2516.33 187.159 Q 2512.97 183.279, 2512.97 176.359 M 2525.97 187.839 Q 2530.29 187.839, 2532.61 184.959 Q 2534.97 182.039, 2534.97 176.359 Q 2534.97 170.799, 2532.61 167.999 Q 2530.29 165.159, 2525.97 165.159 Q 2521.65 165.159, 2519.29 167.959 Q 2516.97 170.759, 2516.97 176.359 Q 2516.97 182.079, 2519.29 184.959 Q 2521.65 187.839, 2525.97 187.839 " fill="#FF0000"/>
<path class="atom-24" d="M 2583.46 346.143 L 2592.74 361.143 Q 2593.66 362.623, 2595.14 365.303 Q 2596.62 367.983, 2596.7 368.143 L 2596.7 346.143 L 2600.46 346.143 L 2600.46 374.463 L 2596.58 374.463 L 2586.62 358.063 Q 2585.46 356.143, 2584.22 353.943 Q 2583.02 351.743, 2582.66 351.063 L 2582.66 374.463 L 2578.98 374.463 L 2578.98 346.143 L 2583.46 346.143 " fill="#0000FF"/>
<path class="atom-24" d="M 2578.64 377.295 L 2582.48 377.295 L 2582.48 389.335 L 2596.96 389.335 L 2596.96 377.295 L 2600.8 377.295 L 2600.8 405.615 L 2596.96 405.615 L 2596.96 392.535 L 2582.48 392.535 L 2582.48 405.615 L 2578.64 405.615 L 2578.64 377.295 " fill="#0000FF"/>
<path class="atom-27" d="M 2790.54 176.399 Q 2790.54 169.359, 2793.82 165.679 Q 2797.14 161.959, 2803.42 161.959 Q 2809.26 161.959, 2812.38 166.079 L 2809.74 168.239 Q 2807.46 165.239, 2803.42 165.239 Q 2799.14 165.239, 2796.86 168.119 Q 2794.62 170.959, 2794.62 176.399 Q 2794.62 181.999, 2796.94 184.879 Q 2799.3 187.759, 2803.86 187.759 Q 2806.98 187.759, 2810.62 185.879 L 2811.74 188.879 Q 2810.26 189.839, 2808.02 190.399 Q 2805.78 190.959, 2803.3 190.959 Q 2797.14 190.959, 2793.82 187.199 Q 2790.54 183.439, 2790.54 176.399 " fill="#000000"/>
<path class="atom-27" d="M 2815.38 185.919 L 2819.38 185.919 L 2819.38 189.919 L 2815.38 189.919 L 2815.38 185.919 M 2815.38 172.159 L 2819.38 172.159 L 2819.38 176.159 L 2815.38 176.159 L 2815.38 172.159 " fill="#000000"/>
<path class="atom-27" d="M 2834.94 165.479 L 2820.1 165.479 L 2820.1 162.279 L 2838.9 162.279 L 2838.9 165.119 L 2827.46 190.599 L 2823.62 190.599 L 2834.94 165.479 " fill="#000000"/>
<path class="atom-28" d="M 2897.54 250.008 Q 2897.54 242.968, 2900.82 239.288 Q 2904.14 235.568, 2910.42 235.568 Q 2916.26 235.568, 2919.38 239.688 L 2916.74 241.848 Q 2914.46 238.848, 2910.42 238.848 Q 2906.14 238.848, 2903.86 241.728 Q 2901.62 244.568, 2901.62 250.008 Q 2901.62 255.608, 2903.94 258.488 Q 2906.3 261.368, 2910.86 261.368 Q 2913.98 261.368, 2917.62 259.488 L 2918.74 262.488 Q 2917.26 263.448, 2915.02 264.008 Q 2912.78 264.568, 2910.3 264.568 Q 2904.14 264.568, 2900.82 260.808 Q 2897.54 257.048, 2897.54 250.008 " fill="#000000"/>
<path class="atom-28" d="M 2922.38 259.528 L 2926.38 259.528 L 2926.38 263.528 L 2922.38 263.528 L 2922.38 259.528 M 2922.38 245.768 L 2926.38 245.768 L 2926.38 249.768 L 2922.38 249.768 L 2922.38 245.768 " fill="#000000"/>
<path class="atom-28" d="M 2943.3 249.208 Q 2945.9 250.328, 2947.38 252.008 Q 2948.86 253.648, 2948.86 256.448 Q 2948.86 258.848, 2947.62 260.728 Q 2946.38 262.568, 2944.14 263.608 Q 2941.94 264.608, 2939.02 264.608 Q 2934.3 264.608, 2931.58 262.448 Q 2928.86 260.248, 2928.86 256.448 Q 2928.86 254.128, 2930.06 252.408 Q 2931.26 250.648, 2933.74 249.328 Q 2931.9 248.288, 2930.9 246.768 Q 2929.9 245.208, 2929.9 242.808 Q 2929.9 239.488, 2932.3 237.528 Q 2934.74 235.568, 2938.86 235.568 Q 2942.98 235.568, 2945.38 237.528 Q 2947.82 239.488, 2947.82 242.808 Q 2947.82 244.888, 2946.66 246.448 Q 2945.54 247.968, 2943.3 249.208 M 2938.86 238.568 Q 2936.5 238.568, 2935.18 239.688 Q 2933.9 240.808, 2933.9 242.808 Q 2933.9 244.288, 2934.78 245.288 Q 2935.66 246.248, 2936.9 246.808 Q 2938.18 247.368, 2940.62 248.208 Q 2942.34 247.008, 2943.06 245.728 Q 2943.82 244.448, 2943.82 242.808 Q 2943.82 240.808, 2942.5 239.688 Q 2941.22 238.568, 2938.86 238.568 M 2939.02 261.608 Q 2941.66 261.608, 2943.26 260.208 Q 2944.86 258.768, 2944.86 256.408 Q 2944.86 254.888, 2944.02 253.928 Q 2943.18 252.968, 2941.9 252.408 Q 2940.66 251.848, 2938.42 251.128 L 2936.62 250.528 Q 2934.62 251.728, 2933.74 253.168 Q 2932.86 254.568, 2932.86 256.408 Q 2932.86 258.768, 2934.54 260.208 Q 2936.22 261.608, 2939.02 261.608 " fill="#000000"/>
<path class="atom-29" d="M 2876.29 360.423 Q 2876.29 353.383, 2879.57 349.703 Q 2882.89 345.983, 2889.17 345.983 Q 2895.01 345.983, 2898.13 350.103 L 2895.49 352.263 Q 2893.21 349.263, 2889.17 349.263 Q 2884.89 349.263, 2882.61 352.143 Q 2880.37 354.983, 2880.37 360.423 Q 2880.37 366.023, 2882.69 368.903 Q 2885.05 371.783, 2889.61 371.783 Q 2892.73 371.783, 2896.37 369.903 L 2897.49 372.903 Q 2896.01 373.863, 2893.77 374.423 Q 2891.53 374.983, 2889.05 374.983 Q 2882.89 374.983, 2879.57 371.223 Q 2876.29 367.463, 2876.29 360.423 " fill="#000000"/>
<path class="atom-29" d="M 2901.13 369.943 L 2905.13 369.943 L 2905.13 373.943 L 2901.13 373.943 L 2901.13 369.943 M 2901.13 356.183 L 2905.13 356.183 L 2905.13 360.183 L 2901.13 360.183 L 2901.13 356.183 " fill="#000000"/>
<path class="atom-29" d="M 2916.85 345.983 Q 2921.89 345.983, 2924.41 349.423 Q 2926.97 352.823, 2926.97 359.623 Q 2926.97 367.143, 2923.81 371.063 Q 2920.69 374.943, 2914.65 374.943 Q 2912.89 374.943, 2911.37 374.543 Q 2909.89 374.143, 2908.45 373.303 L 2910.01 370.623 Q 2912.09 371.743, 2914.61 371.743 Q 2918.61 371.743, 2920.65 369.183 Q 2922.69 366.583, 2922.93 361.263 Q 2921.49 362.583, 2919.65 363.303 Q 2917.85 363.983, 2915.89 363.983 Q 2913.41 363.983, 2911.45 362.903 Q 2909.49 361.823, 2908.41 359.863 Q 2907.33 357.903, 2907.33 355.423 Q 2907.33 352.663, 2908.53 350.543 Q 2909.77 348.383, 2911.93 347.183 Q 2914.09 345.983, 2916.85 345.983 M 2911.33 355.383 Q 2911.33 357.903, 2912.73 359.343 Q 2914.13 360.783, 2916.61 360.783 Q 2918.33 360.783, 2920.01 360.103 Q 2921.73 359.383, 2922.93 358.183 Q 2922.77 353.503, 2921.29 351.383 Q 2919.81 349.263, 2916.81 349.263 Q 2915.29 349.263, 2914.01 350.063 Q 2912.77 350.863, 2912.05 352.263 Q 2911.33 353.663, 2911.33 355.383 " fill="#000000"/>
<path class="atom-31" d="M 3771.75 397.706 Q 3771.75 390.906, 3775.11 387.106 Q 3778.47 383.306, 3784.75 383.306 Q 3791.03 383.306, 3794.39 387.106 Q 3797.75 390.906, 3797.75 397.706 Q 3797.75 404.586, 3794.35 408.506 Q 3790.95 412.386, 3784.75 412.386 Q 3778.51 412.386, 3775.11 408.506 Q 3771.75 404.626, 3771.75 397.706 M 3784.75 409.186 Q 3789.07 409.186, 3791.39 406.306 Q 3793.75 403.386, 3793.75 397.706 Q 3793.75 392.146, 3791.39 389.346 Q 3789.07 386.506, 3784.75 386.506 Q 3780.43 386.506, 3778.07 389.306 Q 3775.75 392.106, 3775.75 397.706 Q 3775.75 403.426, 3778.07 406.306 Q 3780.43 409.186, 3784.75 409.186 " fill="#FF0000"/>
<path class="atom-33" d="M 3552.2 394.262 L 3561.48 409.262 Q 3562.4 410.742, 3563.88 413.422 Q 3565.36 416.102, 3565.44 416.262 L 3565.44 394.262 L 3569.2 394.262 L 3569.2 422.582 L 3565.32 422.582 L 3555.36 406.182 Q 3554.2 404.262, 3552.96 402.062 Q 3551.76 399.862, 3551.4 399.182 L 3551.4 422.582 L 3547.72 422.582 L 3547.72 394.262 L 3552.2 394.262 " fill="#0000FF"/>
<path class="atom-33" d="M 3572.2 417.902 L 3576.2 417.902 L 3576.2 421.902 L 3572.2 421.902 L 3572.2 417.902 M 3572.2 404.142 L 3576.2 404.142 L 3576.2 408.142 L 3572.2 408.142 L 3572.2 404.142 " fill="#0000FF"/>
<path class="atom-33" d="M 3579.92 419.382 L 3586.12 419.382 L 3586.12 398.222 L 3579.28 400.342 L 3578.36 397.982 L 3587.04 394.102 L 3589.88 394.582 L 3589.88 419.382 L 3595.44 419.382 L 3595.44 422.582 L 3579.92 422.582 L 3579.92 419.382 " fill="#0000FF"/>
<path class="atom-33" d="M 3610.72 407.662 Q 3613.48 408.462, 3614.8 410.262 Q 3616.16 412.022, 3616.16 414.822 Q 3616.16 417.222, 3614.96 419.102 Q 3613.76 420.942, 3611.56 421.982 Q 3609.36 422.982, 3606.48 422.982 Q 3603.44 422.982, 3601.16 421.942 Q 3598.92 420.862, 3597.12 418.702 L 3599.4 416.382 Q 3601.16 418.302, 3602.64 419.062 Q 3604.12 419.782, 3606.48 419.782 Q 3609.04 419.782, 3610.6 418.422 Q 3612.16 417.022, 3612.16 414.782 Q 3612.16 411.902, 3610.52 410.622 Q 3608.92 409.302, 3605.44 409.302 L 3603.4 409.302 L 3603.4 406.422 L 3605.2 406.422 Q 3608.28 406.382, 3609.92 405.062 Q 3611.56 403.702, 3611.56 401.182 Q 3611.56 399.342, 3610.2 398.262 Q 3608.84 397.142, 3606.52 397.142 Q 3604.16 397.142, 3602.68 397.982 Q 3601.24 398.822, 3600.12 400.942 L 3597.36 399.462 Q 3598.36 397.102, 3600.76 395.542 Q 3603.16 393.942, 3606.52 393.942 Q 3610.68 393.942, 3613.12 395.902 Q 3615.56 397.862, 3615.56 401.182 Q 3615.56 403.462, 3614.32 405.102 Q 3613.08 406.742, 3610.72 407.662 " fill="#0000FF"/>
<path class="atom-33" d="M 3579.21 426.046 L 3583.05 426.046 L 3583.05 438.086 L 3597.53 438.086 L 3597.53 426.046 L 3601.37 426.046 L 3601.37 454.366 L 3597.53 454.366 L 3597.53 441.286 L 3583.05 441.286 L 3583.05 454.366 L 3579.21 454.366 L 3579.21 426.046 " fill="#0000FF"/>
<path class="atom-37" d="M 3192.94 415.375 L 3209.78 415.375 L 3209.78 418.615 L 3196.74 418.615 L 3196.74 427.215 L 3208.34 427.215 L 3208.34 430.495 L 3196.74 430.495 L 3196.74 443.695 L 3192.94 443.695 L 3192.94 415.375 " fill="#33CCCC"/>
<path class="atom-39" d="M 3180.66 190.831 L 3197.5 190.831 L 3197.5 194.071 L 3184.46 194.071 L 3184.46 202.671 L 3196.06 202.671 L 3196.06 205.951 L 3184.46 205.951 L 3184.46 219.151 L 3180.66 219.151 L 3180.66 190.831 " fill="#33CCCC"/>
<path class="atom-41" d="M 3368.98 67.9216 L 3385.82 67.9216 L 3385.82 71.1616 L 3372.78 71.1616 L 3372.78 79.7616 L 3384.38 79.7616 L 3384.38 83.0416 L 3372.78 83.0416 L 3372.78 96.2416 L 3368.98 96.2416 L 3368.98 67.9216 " fill="#33CCCC"/>
<path class="atom-42" d="M 3439.4 245.292 Q 3439.4 238.252, 3442.68 234.572 Q 3446 230.852, 3452.28 230.852 Q 3458.12 230.852, 3461.24 234.972 L 3458.6 237.132 Q 3456.32 234.132, 3452.28 234.132 Q 3448 234.132, 3445.72 237.012 Q 3443.48 239.852, 3443.48 245.292 Q 3443.48 250.892, 3445.8 253.772 Q 3448.16 256.652, 3452.72 256.652 Q 3455.84 256.652, 3459.48 254.772 L 3460.6 257.772 Q 3459.12 258.732, 3456.88 259.292 Q 3454.64 259.852, 3452.16 259.852 Q 3446 259.852, 3442.68 256.092 Q 3439.4 252.332, 3439.4 245.292 " fill="#000000"/>
<path class="atom-42" d="M 3464.24 254.812 L 3468.24 254.812 L 3468.24 258.812 L 3464.24 258.812 L 3464.24 254.812 M 3464.24 241.052 L 3468.24 241.052 L 3468.24 245.052 L 3464.24 245.052 L 3464.24 241.052 " fill="#000000"/>
<path class="atom-42" d="M 3470.32 236.532 Q 3471.36 233.852, 3473.84 232.372 Q 3476.32 230.852, 3479.76 230.852 Q 3484.04 230.852, 3486.44 233.172 Q 3488.84 235.492, 3488.84 239.612 Q 3488.84 243.812, 3485.72 247.732 Q 3482.64 251.652, 3476.24 256.292 L 3489.32 256.292 L 3489.32 259.492 L 3470.24 259.492 L 3470.24 256.812 Q 3475.52 253.052, 3478.64 250.252 Q 3481.8 247.452, 3483.32 244.932 Q 3484.84 242.412, 3484.84 239.812 Q 3484.84 237.092, 3483.48 235.572 Q 3482.12 234.052, 3479.76 234.052 Q 3477.48 234.052, 3475.96 234.972 Q 3474.44 235.892, 3473.36 237.932 L 3470.32 236.532 " fill="#000000"/>
<path class="atom-42" d="M 3491.4 236.532 Q 3492.44 233.852, 3494.92 232.372 Q 3497.4 230.852, 3500.84 230.852 Q 3505.12 230.852, 3507.52 233.172 Q 3509.92 235.492, 3509.92 239.612 Q 3509.92 243.812, 3506.8 247.732 Q 3503.72 251.652, 3497.32 256.292 L 3510.4 256.292 L 3510.4 259.492 L 3491.32 259.492 L 3491.32 256.812 Q 3496.6 253.052, 3499.72 250.252 Q 3502.88 247.452, 3504.4 244.932 Q 3505.92 242.412, 3505.92 239.812 Q 3505.92 237.092, 3504.56 235.572 Q 3503.2 234.052, 3500.84 234.052 Q 3498.56 234.052, 3497.04 234.972 Q 3495.52 235.892, 3494.44 237.932 L 3491.4 236.532 " fill="#000000"/>
<path class="atom-43" d="M 3538.78 169.718 L 3548.06 184.718 Q 3548.98 186.198, 3550.46 188.878 Q 3551.94 191.558, 3552.02 191.718 L 3552.02 169.718 L 3555.78 169.718 L 3555.78 198.038 L 3551.9 198.038 L 3541.94 181.638 Q 3540.78 179.718, 3539.54 177.518 Q 3538.34 175.318, 3537.98 174.638 L 3537.98 198.038 L 3534.3 198.038 L 3534.3 169.718 L 3538.78 169.718 " fill="#0000FF"/>
<path class="atom-43" d="M 3558.78 193.358 L 3562.78 193.358 L 3562.78 197.358 L 3558.78 197.358 L 3558.78 193.358 M 3558.78 179.598 L 3562.78 179.598 L 3562.78 183.598 L 3558.78 183.598 L 3558.78 179.598 " fill="#0000FF"/>
<path class="atom-43" d="M 3564.86 175.078 Q 3565.9 172.398, 3568.38 170.918 Q 3570.86 169.398, 3574.3 169.398 Q 3578.58 169.398, 3580.98 171.718 Q 3583.38 174.038, 3583.38 178.158 Q 3583.38 182.358, 3580.26 186.278 Q 3577.18 190.198, 3570.78 194.838 L 3583.86 194.838 L 3583.86 198.038 L 3564.78 198.038 L 3564.78 195.358 Q 3570.06 191.598, 3573.18 188.798 Q 3576.34 185.998, 3577.86 183.478 Q 3579.38 180.958, 3579.38 178.358 Q 3579.38 175.638, 3578.02 174.118 Q 3576.66 172.598, 3574.3 172.598 Q 3572.02 172.598, 3570.5 173.518 Q 3568.98 174.438, 3567.9 176.478 L 3564.86 175.078 " fill="#0000FF"/>
<path class="atom-43" d="M 3599.14 183.118 Q 3601.9 183.918, 3603.22 185.718 Q 3604.58 187.478, 3604.58 190.278 Q 3604.58 192.678, 3603.38 194.558 Q 3602.18 196.398, 3599.98 197.438 Q 3597.78 198.438, 3594.9 198.438 Q 3591.86 198.438, 3589.58 197.398 Q 3587.34 196.318, 3585.54 194.158 L 3587.82 191.838 Q 3589.58 193.758, 3591.06 194.518 Q 3592.54 195.238, 3594.9 195.238 Q 3597.46 195.238, 3599.02 193.878 Q 3600.58 192.478, 3600.58 190.238 Q 3600.58 187.358, 3598.94 186.078 Q 3597.34 184.758, 3593.86 184.758 L 3591.82 184.758 L 3591.82 181.878 L 3593.62 181.878 Q 3596.7 181.838, 3598.34 180.518 Q 3599.98 179.158, 3599.98 176.638 Q 3599.98 174.798, 3598.62 173.718 Q 3597.26 172.598, 3594.94 172.598 Q 3592.58 172.598, 3591.1 173.438 Q 3589.66 174.278, 3588.54 176.398 L 3585.78 174.918 Q 3586.78 172.558, 3589.18 170.998 Q 3591.58 169.398, 3594.94 169.398 Q 3599.1 169.398, 3601.54 171.358 Q 3603.98 173.318, 3603.98 176.638 Q 3603.98 178.918, 3602.74 180.558 Q 3601.5 182.198, 3599.14 183.118 " fill="#0000FF"/>
<path class="atom-43" d="M 3566.92 137.614 L 3570.76 137.614 L 3570.76 149.654 L 3585.24 149.654 L 3585.24 137.614 L 3589.08 137.614 L 3589.08 165.934 L 3585.24 165.934 L 3585.24 152.854 L 3570.76 152.854 L 3570.76 165.934 L 3566.92 165.934 L 3566.92 137.614 " fill="#0000FF"/>
<path class="atom-44" d="M 3633.05 234.655 Q 3633.05 227.615, 3636.33 223.935 Q 3639.65 220.215, 3645.93 220.215 Q 3651.77 220.215, 3654.89 224.335 L 3652.25 226.495 Q 3649.97 223.495, 3645.93 223.495 Q 3641.65 223.495, 3639.37 226.375 Q 3637.13 229.215, 3637.13 234.655 Q 3637.13 240.255, 3639.45 243.135 Q 3641.81 246.015, 3646.37 246.015 Q 3649.49 246.015, 3653.13 244.135 L 3654.25 247.135 Q 3652.77 248.095, 3650.53 248.655 Q 3648.29 249.215, 3645.81 249.215 Q 3639.65 249.215, 3636.33 245.455 Q 3633.05 241.695, 3633.05 234.655 " fill="#000000"/>
<path class="atom-44" d="M 3657.89 244.175 L 3661.89 244.175 L 3661.89 248.175 L 3657.89 248.175 L 3657.89 244.175 M 3657.89 230.415 L 3661.89 230.415 L 3661.89 234.415 L 3657.89 234.415 L 3657.89 230.415 " fill="#000000"/>
<path class="atom-44" d="M 3663.97 225.895 Q 3665.01 223.215, 3667.49 221.735 Q 3669.97 220.215, 3673.41 220.215 Q 3677.69 220.215, 3680.09 222.535 Q 3682.49 224.855, 3682.49 228.975 Q 3682.49 233.175, 3679.37 237.095 Q 3676.29 241.015, 3669.89 245.655 L 3682.97 245.655 L 3682.97 248.855 L 3663.89 248.855 L 3663.89 246.175 Q 3669.17 242.415, 3672.29 239.615 Q 3675.45 236.815, 3676.97 234.295 Q 3678.49 231.775, 3678.49 229.175 Q 3678.49 226.455, 3677.13 224.935 Q 3675.77 223.415, 3673.41 223.415 Q 3671.13 223.415, 3669.61 224.335 Q 3668.09 225.255, 3667.01 227.295 L 3663.97 225.895 " fill="#000000"/>
<path class="atom-44" d="M 3702.57 239.135 L 3705.97 239.135 L 3705.97 242.335 L 3702.57 242.335 L 3702.57 248.855 L 3698.81 248.855 L 3698.81 242.335 L 3684.17 242.335 L 3684.17 239.815 L 3696.57 220.535 L 3702.57 220.535 L 3702.57 239.135 M 3688.81 239.135 L 3698.81 239.135 L 3698.81 223.095 L 3688.81 239.135 " fill="#000000"/>
<path class="atom-45" d="M 3759.47 173.161 Q 3759.47 166.361, 3762.83 162.561 Q 3766.19 158.761, 3772.47 158.761 Q 3778.75 158.761, 3782.11 162.561 Q 3785.47 166.361, 3785.47 173.161 Q 3785.47 180.041, 3782.07 183.961 Q 3778.67 187.841, 3772.47 187.841 Q 3766.23 187.841, 3762.83 183.961 Q 3759.47 180.081, 3759.47 173.161 M 3772.47 184.641 Q 3776.79 184.641, 3779.11 181.761 Q 3781.47 178.841, 3781.47 173.161 Q 3781.47 167.601, 3779.11 164.801 Q 3776.79 161.961, 3772.47 161.961 Q 3768.15 161.961, 3765.79 164.761 Q 3763.47 167.561, 3763.47 173.161 Q 3763.47 178.881, 3765.79 181.761 Q 3768.15 184.641, 3772.47 184.641 " fill="#FF0000"/>
<path class="note" d="M 274.067 301.623 L 277.167 301.623 L 277.167 291.043 L 273.747 292.103 L 273.287 290.923 L 277.627 288.983 L 279.047 289.223 L 279.047 301.623 L 281.827 301.623 L 281.827 303.223 L 274.067 303.223 L 274.067 301.623 " fill="#000000"/>
<path class="note" d="M 288.227 303.383 Q 285.627 303.383, 284.327 301.463 Q 283.047 299.543, 283.047 296.123 Q 283.047 292.703, 284.327 290.803 Q 285.607 288.903, 288.227 288.903 Q 290.847 288.903, 292.127 290.803 Q 293.407 292.703, 293.407 296.123 Q 293.407 299.543, 292.107 301.463 Q 290.827 303.383, 288.227 303.383 M 288.227 301.783 Q 289.767 301.783, 290.587 300.363 Q 291.407 298.923, 291.407 296.123 Q 291.407 293.343, 290.587 291.923 Q 289.767 290.503, 288.227 290.503 Q 286.707 290.503, 285.867 291.923 Q 285.047 293.343, 285.047 296.123 Q 285.047 298.923, 285.867 300.363 Q 286.707 301.783, 288.227 301.783 " fill="#000000"/>
<path class="note" d="M 624.907 244.191 L 628.007 244.191 L 628.007 233.611 L 624.587 234.671 L 624.127 233.491 L 628.467 231.551 L 629.887 231.791 L 629.887 244.191 L 632.667 244.191 L 632.667 245.791 L 624.907 245.791 L 624.907 244.191 " fill="#000000"/>
<path class="note" d="M 730.413 255.602 Q 730.933 254.262, 732.173 253.522 Q 733.413 252.762, 735.133 252.762 Q 737.273 252.762, 738.473 253.922 Q 739.673 255.082, 739.673 257.142 Q 739.673 259.242, 738.113 261.202 Q 736.573 263.162, 733.373 265.482 L 739.913 265.482 L 739.913 267.082 L 730.373 267.082 L 730.373 265.742 Q 733.013 263.862, 734.573 262.462 Q 736.153 261.062, 736.913 259.802 Q 737.673 258.542, 737.673 257.242 Q 737.673 255.882, 736.993 255.122 Q 736.313 254.362, 735.133 254.362 Q 733.993 254.362, 733.233 254.822 Q 732.473 255.282, 731.933 256.302 L 730.413 255.602 " fill="#000000"/>
<path class="note" d="M 737.183 428.282 Q 738.563 428.682, 739.223 429.582 Q 739.903 430.462, 739.903 431.862 Q 739.903 433.062, 739.303 434.002 Q 738.703 434.922, 737.603 435.442 Q 736.503 435.942, 735.063 435.942 Q 733.543 435.942, 732.403 435.422 Q 731.283 434.882, 730.383 433.802 L 731.523 432.642 Q 732.403 433.602, 733.143 433.982 Q 733.883 434.342, 735.063 434.342 Q 736.343 434.342, 737.123 433.662 Q 737.903 432.962, 737.903 431.842 Q 737.903 430.402, 737.083 429.762 Q 736.283 429.102, 734.543 429.102 L 733.523 429.102 L 733.523 427.662 L 734.423 427.662 Q 735.963 427.642, 736.783 426.982 Q 737.603 426.302, 737.603 425.042 Q 737.603 424.122, 736.923 423.582 Q 736.243 423.022, 735.083 423.022 Q 733.903 423.022, 733.163 423.442 Q 732.443 423.862, 731.883 424.922 L 730.503 424.182 Q 731.003 423.002, 732.203 422.222 Q 733.403 421.422, 735.083 421.422 Q 737.163 421.422, 738.383 422.402 Q 739.603 423.382, 739.603 425.042 Q 739.603 426.182, 738.983 427.002 Q 738.363 427.822, 737.183 428.282 " fill="#000000"/>
<path class="note" d="M 819.949 190.481 L 823.049 190.481 L 823.049 179.901 L 819.629 180.961 L 819.169 179.781 L 823.509 177.841 L 824.929 178.081 L 824.929 190.481 L 827.709 190.481 L 827.709 192.081 L 819.949 192.081 L 819.949 190.481 " fill="#000000"/>
<path class="note" d="M 829.569 190.481 L 832.669 190.481 L 832.669 179.901 L 829.249 180.961 L 828.789 179.781 L 833.129 177.841 L 834.549 178.081 L 834.549 190.481 L 837.329 190.481 L 837.329 192.081 L 829.569 192.081 L 829.569 190.481 " fill="#000000"/>
<path class="note" d="M 916.865 246.742 L 919.965 246.742 L 919.965 236.162 L 916.545 237.222 L 916.085 236.042 L 920.425 234.102 L 921.845 234.342 L 921.845 246.742 L 924.625 246.742 L 924.625 248.342 L 916.865 248.342 L 916.865 246.742 " fill="#000000"/>
<path class="note" d="M 925.665 236.862 Q 926.185 235.522, 927.425 234.782 Q 928.665 234.022, 930.385 234.022 Q 932.525 234.022, 933.725 235.182 Q 934.925 236.342, 934.925 238.402 Q 934.925 240.502, 933.365 242.462 Q 931.825 244.422, 928.625 246.742 L 935.165 246.742 L 935.165 248.342 L 925.625 248.342 L 925.625 247.002 Q 928.265 245.122, 929.825 243.722 Q 931.405 242.322, 932.165 241.062 Q 932.925 239.802, 932.925 238.502 Q 932.925 237.142, 932.245 236.382 Q 931.565 235.622, 930.385 235.622 Q 929.245 235.622, 928.485 236.082 Q 927.725 236.542, 927.185 237.562 L 925.665 236.862 " fill="#000000"/>
<path class="note" d="M 1018.53 204.532 Q 1019.77 204.532, 1020.75 205.072 Q 1021.73 205.612, 1022.27 206.592 Q 1022.81 207.572, 1022.81 208.812 Q 1022.81 210.192, 1022.19 211.272 Q 1021.59 212.332, 1020.51 212.932 Q 1019.43 213.532, 1018.05 213.532 Q 1015.53 213.532, 1014.25 211.832 Q 1012.99 210.112, 1012.99 206.712 Q 1012.99 202.952, 1014.55 201.012 Q 1016.13 199.052, 1019.15 199.052 Q 1020.03 199.052, 1020.77 199.252 Q 1021.53 199.452, 1022.25 199.872 L 1021.47 201.212 Q 1020.43 200.652, 1019.17 200.652 Q 1017.17 200.652, 1016.15 201.952 Q 1015.13 203.232, 1015.01 205.892 Q 1015.73 205.232, 1016.63 204.892 Q 1017.55 204.532, 1018.53 204.532 M 1018.07 211.892 Q 1018.83 211.892, 1019.45 211.492 Q 1020.09 211.092, 1020.45 210.392 Q 1020.81 209.692, 1020.81 208.832 Q 1020.81 207.572, 1020.11 206.852 Q 1019.41 206.132, 1018.17 206.132 Q 1017.31 206.132, 1016.45 206.492 Q 1015.61 206.832, 1015.01 207.432 Q 1015.09 209.772, 1015.83 210.832 Q 1016.57 211.892, 1018.07 211.892 " fill="#000000"/>
<path class="note" d="M 915.145 424.262 Q 915.665 422.922, 916.905 422.182 Q 918.145 421.422, 919.865 421.422 Q 922.005 421.422, 923.205 422.582 Q 924.405 423.742, 924.405 425.802 Q 924.405 427.902, 922.845 429.862 Q 921.305 431.822, 918.105 434.142 L 924.645 434.142 L 924.645 435.742 L 915.105 435.742 L 915.105 434.402 Q 917.745 432.522, 919.305 431.122 Q 920.885 429.722, 921.645 428.462 Q 922.405 427.202, 922.405 425.902 Q 922.405 424.542, 921.725 423.782 Q 921.045 423.022, 919.865 423.022 Q 918.725 423.022, 917.965 423.482 Q 917.205 423.942, 916.665 424.962 L 915.145 424.262 " fill="#000000"/>
<path class="note" d="M 930.705 426.882 Q 931.945 426.882, 932.965 427.422 Q 933.985 427.942, 934.565 428.942 Q 935.145 429.922, 935.145 431.262 Q 935.145 432.722, 934.425 433.782 Q 933.725 434.822, 932.565 435.362 Q 931.405 435.902, 930.085 435.902 Q 928.785 435.902, 927.585 435.422 Q 926.385 434.942, 925.565 434.022 L 926.765 432.782 Q 927.425 433.502, 928.325 433.902 Q 929.225 434.282, 930.145 434.282 Q 931.405 434.282, 932.265 433.502 Q 933.145 432.722, 933.145 431.302 Q 933.145 429.802, 932.265 429.102 Q 931.405 428.382, 930.025 428.382 Q 928.785 428.382, 927.405 428.922 L 926.305 428.402 L 926.985 421.582 L 934.265 421.582 L 934.065 423.182 L 928.625 423.182 L 928.205 427.382 Q 929.465 426.882, 930.705 426.882 " fill="#000000"/>
<path class="note" d="M 1777.4 295.405 L 1779.1 295.405 L 1779.1 297.005 L 1777.4 297.005 L 1777.4 300.265 L 1775.52 300.265 L 1775.52 297.005 L 1768.2 297.005 L 1768.2 295.745 L 1774.4 286.105 L 1777.4 286.105 L 1777.4 295.405 M 1770.52 295.405 L 1775.52 295.405 L 1775.52 287.385 L 1770.52 295.405 " fill="#000000"/>
<path class="note" d="M 1652.19 340.093 Q 1653.43 340.093, 1654.45 340.633 Q 1655.47 341.153, 1656.05 342.153 Q 1656.63 343.133, 1656.63 344.473 Q 1656.63 345.933, 1655.91 346.993 Q 1655.21 348.033, 1654.05 348.573 Q 1652.89 349.113, 1651.57 349.113 Q 1650.27 349.113, 1649.07 348.633 Q 1647.87 348.153, 1647.05 347.233 L 1648.25 345.993 Q 1648.91 346.713, 1649.81 347.113 Q 1650.71 347.493, 1651.63 347.493 Q 1652.89 347.493, 1653.75 346.713 Q 1654.63 345.933, 1654.63 344.513 Q 1654.63 343.013, 1653.75 342.313 Q 1652.89 341.593, 1651.51 341.593 Q 1650.27 341.593, 1648.89 342.133 L 1647.79 341.613 L 1648.47 334.793 L 1655.75 334.793 L 1655.55 336.393 L 1650.11 336.393 L 1649.69 340.593 Q 1650.95 340.093, 1652.19 340.093 " fill="#000000"/>
<path class="note" d="M 1582.11 444.769 L 1585.21 444.769 L 1585.21 434.189 L 1581.79 435.249 L 1581.33 434.069 L 1585.67 432.129 L 1587.09 432.369 L 1587.09 444.769 L 1589.87 444.769 L 1589.87 446.369 L 1582.11 446.369 L 1582.11 444.769 " fill="#000000"/>
<path class="note" d="M 1599.67 441.509 L 1601.37 441.509 L 1601.37 443.109 L 1599.67 443.109 L 1599.67 446.369 L 1597.79 446.369 L 1597.79 443.109 L 1590.47 443.109 L 1590.47 441.849 L 1596.67 432.209 L 1599.67 432.209 L 1599.67 441.509 M 1592.79 441.509 L 1597.79 441.509 L 1597.79 433.489 L 1592.79 441.509 " fill="#000000"/>
<path class="note" d="M 1451.43 444.769 L 1454.53 444.769 L 1454.53 434.189 L 1451.11 435.249 L 1450.65 434.069 L 1454.99 432.129 L 1456.41 432.369 L 1456.41 444.769 L 1459.19 444.769 L 1459.19 446.369 L 1451.43 446.369 L 1451.43 444.769 " fill="#000000"/>
<path class="note" d="M 1465.25 437.509 Q 1466.49 437.509, 1467.51 438.049 Q 1468.53 438.569, 1469.11 439.569 Q 1469.69 440.549, 1469.69 441.889 Q 1469.69 443.349, 1468.97 444.409 Q 1468.27 445.449, 1467.11 445.989 Q 1465.95 446.529, 1464.63 446.529 Q 1463.33 446.529, 1462.13 446.049 Q 1460.93 445.569, 1460.11 444.649 L 1461.31 443.409 Q 1461.97 444.129, 1462.87 444.529 Q 1463.77 444.909, 1464.69 444.909 Q 1465.95 444.909, 1466.81 444.129 Q 1467.69 443.349, 1467.69 441.929 Q 1467.69 440.429, 1466.81 439.729 Q 1465.95 439.009, 1464.57 439.009 Q 1463.33 439.009, 1461.95 439.549 L 1460.85 439.029 L 1461.53 432.209 L 1468.81 432.209 L 1468.61 433.809 L 1463.17 433.809 L 1462.75 438.009 Q 1464.01 437.509, 1465.25 437.509 " fill="#000000"/>
<path class="note" d="M 1394.87 347.433 L 1397.97 347.433 L 1397.97 336.853 L 1394.55 337.913 L 1394.09 336.733 L 1398.43 334.793 L 1399.85 335.033 L 1399.85 347.433 L 1402.63 347.433 L 1402.63 349.033 L 1394.87 349.033 L 1394.87 347.433 " fill="#000000"/>
<path class="note" d="M 1409.53 340.193 Q 1410.77 340.193, 1411.75 340.733 Q 1412.73 341.273, 1413.27 342.253 Q 1413.81 343.233, 1413.81 344.473 Q 1413.81 345.853, 1413.19 346.933 Q 1412.59 347.993, 1411.51 348.593 Q 1410.43 349.193, 1409.05 349.193 Q 1406.53 349.193, 1405.25 347.493 Q 1403.99 345.773, 1403.99 342.373 Q 1403.99 338.613, 1405.55 336.673 Q 1407.13 334.713, 1410.15 334.713 Q 1411.03 334.713, 1411.77 334.913 Q 1412.53 335.113, 1413.25 335.533 L 1412.47 336.873 Q 1411.43 336.313, 1410.17 336.313 Q 1408.17 336.313, 1407.15 337.613 Q 1406.13 338.893, 1406.01 341.553 Q 1406.73 340.893, 1407.63 340.553 Q 1408.55 340.193, 1409.53 340.193 M 1409.07 347.553 Q 1409.83 347.553, 1410.45 347.153 Q 1411.09 346.753, 1411.45 346.053 Q 1411.81 345.353, 1411.81 344.493 Q 1411.81 343.233, 1411.11 342.513 Q 1410.41 341.793, 1409.17 341.793 Q 1408.31 341.793, 1407.45 342.153 Q 1406.61 342.493, 1406.01 343.093 Q 1406.09 345.433, 1406.83 346.493 Q 1407.57 347.553, 1409.07 347.553 " fill="#000000"/>
<path class="note" d="M 1255.03 331.164 L 1258.13 331.164 L 1258.13 320.584 L 1254.71 321.644 L 1254.25 320.464 L 1258.59 318.524 L 1260.01 318.764 L 1260.01 331.164 L 1262.79 331.164 L 1262.79 332.764 L 1255.03 332.764 L 1255.03 331.164 " fill="#000000"/>
<path class="note" d="M 1270.57 320.204 L 1263.15 320.204 L 1263.15 318.604 L 1272.55 318.604 L 1272.55 320.024 L 1266.83 332.764 L 1264.91 332.764 L 1270.57 320.204 " fill="#000000"/>
<path class="note" d="M 1441.69 233.827 L 1444.79 233.827 L 1444.79 223.247 L 1441.37 224.307 L 1440.91 223.127 L 1445.25 221.187 L 1446.67 221.427 L 1446.67 233.827 L 1449.45 233.827 L 1449.45 235.427 L 1441.69 235.427 L 1441.69 233.827 " fill="#000000"/>
<path class="note" d="M 1457.91 227.927 Q 1459.21 228.487, 1459.95 229.327 Q 1460.69 230.147, 1460.69 231.547 Q 1460.69 232.747, 1460.07 233.687 Q 1459.45 234.607, 1458.33 235.127 Q 1457.23 235.627, 1455.77 235.627 Q 1453.41 235.627, 1452.05 234.547 Q 1450.69 233.447, 1450.69 231.547 Q 1450.69 230.387, 1451.29 229.527 Q 1451.89 228.647, 1453.13 227.987 Q 1452.21 227.467, 1451.71 226.707 Q 1451.21 225.927, 1451.21 224.727 Q 1451.21 223.067, 1452.41 222.087 Q 1453.63 221.107, 1455.69 221.107 Q 1457.75 221.107, 1458.95 222.087 Q 1460.17 223.067, 1460.17 224.727 Q 1460.17 225.767, 1459.59 226.547 Q 1459.03 227.307, 1457.91 227.927 M 1455.69 222.607 Q 1454.51 222.607, 1453.85 223.167 Q 1453.21 223.727, 1453.21 224.727 Q 1453.21 225.467, 1453.65 225.967 Q 1454.09 226.447, 1454.71 226.727 Q 1455.35 227.007, 1456.57 227.427 Q 1457.43 226.827, 1457.79 226.187 Q 1458.17 225.547, 1458.17 224.727 Q 1458.17 223.727, 1457.51 223.167 Q 1456.87 222.607, 1455.69 222.607 M 1455.77 234.127 Q 1457.09 234.127, 1457.89 233.427 Q 1458.69 232.707, 1458.69 231.527 Q 1458.69 230.767, 1458.27 230.287 Q 1457.85 229.807, 1457.21 229.527 Q 1456.59 229.247, 1455.47 228.887 L 1454.57 228.587 Q 1453.57 229.187, 1453.13 229.907 Q 1452.69 230.607, 1452.69 231.527 Q 1452.69 232.707, 1453.53 233.427 Q 1454.37 234.127, 1455.77 234.127 " fill="#000000"/>
<path class="note" d="M 1385.63 103.993 L 1388.73 103.993 L 1388.73 93.4126 L 1385.31 94.4726 L 1384.85 93.2926 L 1389.19 91.3526 L 1390.61 91.5926 L 1390.61 103.993 L 1393.39 103.993 L 1393.39 105.593 L 1385.63 105.593 L 1385.63 103.993 " fill="#000000"/>
<path class="note" d="M 1399.25 91.2726 Q 1401.77 91.2726, 1403.03 92.9926 Q 1404.31 94.6926, 1404.31 98.0926 Q 1404.31 101.853, 1402.73 103.813 Q 1401.17 105.753, 1398.15 105.753 Q 1397.27 105.753, 1396.51 105.553 Q 1395.77 105.353, 1395.05 104.933 L 1395.83 103.593 Q 1396.87 104.153, 1398.13 104.153 Q 1400.13 104.153, 1401.15 102.873 Q 1402.17 101.573, 1402.29 98.9126 Q 1401.57 99.5726, 1400.65 99.9326 Q 1399.75 100.273, 1398.77 100.273 Q 1397.53 100.273, 1396.55 99.7326 Q 1395.57 99.1926, 1395.03 98.2126 Q 1394.49 97.2326, 1394.49 95.9926 Q 1394.49 94.6126, 1395.09 93.5526 Q 1395.71 92.4726, 1396.79 91.8726 Q 1397.87 91.2726, 1399.25 91.2726 M 1396.49 95.9726 Q 1396.49 97.2326, 1397.19 97.9526 Q 1397.89 98.6726, 1399.13 98.6726 Q 1399.99 98.6726, 1400.83 98.3326 Q 1401.69 97.9726, 1402.29 97.3726 Q 1402.21 95.0326, 1401.47 93.9726 Q 1400.73 92.9126, 1399.23 92.9126 Q 1398.47 92.9126, 1397.83 93.3126 Q 1397.21 93.7126, 1396.85 94.4126 Q 1396.49 95.1126, 1396.49 95.9726 " fill="#000000"/>
<path class="note" d="M 1561.59 207.718 Q 1562.11 206.378, 1563.35 205.638 Q 1564.59 204.878, 1566.31 204.878 Q 1568.45 204.878, 1569.65 206.038 Q 1570.85 207.198, 1570.85 209.258 Q 1570.85 211.358, 1569.29 213.318 Q 1567.75 215.278, 1564.55 217.598 L 1571.09 217.598 L 1571.09 219.198 L 1561.55 219.198 L 1561.55 217.858 Q 1564.19 215.978, 1565.75 214.578 Q 1567.33 213.178, 1568.09 211.918 Q 1568.85 210.658, 1568.85 209.358 Q 1568.85 207.998, 1568.17 207.238 Q 1567.49 206.478, 1566.31 206.478 Q 1565.17 206.478, 1564.41 206.938 Q 1563.65 207.398, 1563.11 208.418 L 1561.59 207.718 " fill="#000000"/>
<path class="note" d="M 1577.49 219.358 Q 1574.89 219.358, 1573.59 217.438 Q 1572.31 215.518, 1572.31 212.098 Q 1572.31 208.678, 1573.59 206.778 Q 1574.87 204.878, 1577.49 204.878 Q 1580.11 204.878, 1581.39 206.778 Q 1582.67 208.678, 1582.67 212.098 Q 1582.67 215.518, 1581.37 217.438 Q 1580.09 219.358, 1577.49 219.358 M 1577.49 217.758 Q 1579.03 217.758, 1579.85 216.338 Q 1580.67 214.898, 1580.67 212.098 Q 1580.67 209.318, 1579.85 207.898 Q 1579.03 206.478, 1577.49 206.478 Q 1575.97 206.478, 1575.13 207.898 Q 1574.31 209.318, 1574.31 212.098 Q 1574.31 214.898, 1575.13 216.338 Q 1575.97 217.758, 1577.49 217.758 " fill="#000000"/>
<path class="note" d="M 1646.9 94.1126 Q 1647.42 92.7726, 1648.66 92.0326 Q 1649.9 91.2726, 1651.62 91.2726 Q 1653.76 91.2726, 1654.96 92.4326 Q 1656.16 93.5926, 1656.16 95.6526 Q 1656.16 97.7526, 1654.6 99.7126 Q 1653.06 101.673, 1649.86 103.993 L 1656.4 103.993 L 1656.4 105.593 L 1646.86 105.593 L 1646.86 104.253 Q 1649.5 102.373, 1651.06 100.973 Q 1652.64 99.5726, 1653.4 98.3126 Q 1654.16 97.0526, 1654.16 95.7526 Q 1654.16 94.3926, 1653.48 93.6326 Q 1652.8 92.8726, 1651.62 92.8726 Q 1650.48 92.8726, 1649.72 93.3326 Q 1648.96 93.7926, 1648.42 94.8126 L 1646.9 94.1126 " fill="#000000"/>
<path class="note" d="M 1658.26 103.993 L 1661.36 103.993 L 1661.36 93.4126 L 1657.94 94.4726 L 1657.48 93.2926 L 1661.82 91.3526 L 1663.24 91.5926 L 1663.24 103.993 L 1666.02 103.993 L 1666.02 105.593 L 1658.26 105.593 L 1658.26 103.993 " fill="#000000"/>
<path class="note" d="M 2401.12 346.725 L 2404.22 346.725 L 2404.22 336.145 L 2400.8 337.205 L 2400.34 336.025 L 2404.68 334.085 L 2406.1 334.325 L 2406.1 346.725 L 2408.88 346.725 L 2408.88 348.325 L 2401.12 348.325 L 2401.12 346.725 " fill="#000000"/>
<path class="note" d="M 2496.45 300.775 Q 2496.97 299.435, 2498.21 298.695 Q 2499.45 297.935, 2501.17 297.935 Q 2503.31 297.935, 2504.51 299.095 Q 2505.71 300.255, 2505.71 302.315 Q 2505.71 304.415, 2504.15 306.375 Q 2502.61 308.335, 2499.41 310.655 L 2505.95 310.655 L 2505.95 312.255 L 2496.41 312.255 L 2496.41 310.915 Q 2499.05 309.035, 2500.61 307.635 Q 2502.19 306.235, 2502.95 304.975 Q 2503.71 303.715, 2503.71 302.415 Q 2503.71 301.055, 2503.03 300.295 Q 2502.35 299.535, 2501.17 299.535 Q 2500.03 299.535, 2499.27 299.995 Q 2498.51 300.455, 2497.97 301.475 L 2496.45 300.775 " fill="#000000"/>
<path class="note" d="M 2535.1 139.174 Q 2536.48 139.574, 2537.14 140.474 Q 2537.82 141.354, 2537.82 142.754 Q 2537.82 143.954, 2537.22 144.894 Q 2536.62 145.814, 2535.52 146.334 Q 2534.42 146.834, 2532.98 146.834 Q 2531.46 146.834, 2530.32 146.314 Q 2529.2 145.774, 2528.3 144.694 L 2529.44 143.534 Q 2530.32 144.494, 2531.06 144.874 Q 2531.8 145.234, 2532.98 145.234 Q 2534.26 145.234, 2535.04 144.554 Q 2535.82 143.854, 2535.82 142.734 Q 2535.82 141.294, 2535 140.654 Q 2534.2 139.994, 2532.46 139.994 L 2531.44 139.994 L 2531.44 138.554 L 2532.34 138.554 Q 2533.88 138.534, 2534.7 137.874 Q 2535.52 137.194, 2535.52 135.934 Q 2535.52 135.014, 2534.84 134.474 Q 2534.16 133.914, 2533 133.914 Q 2531.82 133.914, 2531.08 134.334 Q 2530.36 134.754, 2529.8 135.814 L 2528.42 135.074 Q 2528.92 133.894, 2530.12 133.114 Q 2531.32 132.314, 2533 132.314 Q 2535.08 132.314, 2536.3 133.294 Q 2537.52 134.274, 2537.52 135.934 Q 2537.52 137.074, 2536.9 137.894 Q 2536.28 138.714, 2535.1 139.174 " fill="#000000"/>
<path class="note" d="M 2621.8 387.059 L 2623.5 387.059 L 2623.5 388.659 L 2621.8 388.659 L 2621.8 391.919 L 2619.92 391.919 L 2619.92 388.659 L 2612.6 388.659 L 2612.6 387.399 L 2618.8 377.759 L 2621.8 377.759 L 2621.8 387.059 M 2614.92 387.059 L 2619.92 387.059 L 2619.92 379.039 L 2614.92 387.059 " fill="#000000"/>
<path class="note" d="M 2682.15 309.45 Q 2683.39 309.45, 2684.41 309.99 Q 2685.43 310.51, 2686.01 311.51 Q 2686.59 312.49, 2686.59 313.83 Q 2686.59 315.29, 2685.87 316.35 Q 2685.17 317.39, 2684.01 317.93 Q 2682.85 318.47, 2681.53 318.47 Q 2680.23 318.47, 2679.03 317.99 Q 2677.83 317.51, 2677.01 316.59 L 2678.21 315.35 Q 2678.87 316.07, 2679.77 316.47 Q 2680.67 316.85, 2681.59 316.85 Q 2682.85 316.85, 2683.71 316.07 Q 2684.59 315.29, 2684.59 313.87 Q 2684.59 312.37, 2683.71 311.67 Q 2682.85 310.95, 2681.47 310.95 Q 2680.23 310.95, 2678.85 311.49 L 2677.75 310.97 L 2678.43 304.15 L 2685.71 304.15 L 2685.51 305.75 L 2680.07 305.75 L 2679.65 309.95 Q 2680.91 309.45, 2682.15 309.45 " fill="#000000"/>
<path class="note" d="M 2703.68 199.135 Q 2704.92 199.135, 2705.9 199.675 Q 2706.88 200.215, 2707.42 201.195 Q 2707.96 202.175, 2707.96 203.415 Q 2707.96 204.795, 2707.34 205.875 Q 2706.74 206.935, 2705.66 207.535 Q 2704.58 208.135, 2703.2 208.135 Q 2700.68 208.135, 2699.4 206.435 Q 2698.14 204.715, 2698.14 201.315 Q 2698.14 197.555, 2699.7 195.615 Q 2701.28 193.655, 2704.3 193.655 Q 2705.18 193.655, 2705.92 193.855 Q 2706.68 194.055, 2707.4 194.475 L 2706.62 195.815 Q 2705.58 195.255, 2704.32 195.255 Q 2702.32 195.255, 2701.3 196.555 Q 2700.28 197.835, 2700.16 200.495 Q 2700.88 199.835, 2701.78 199.495 Q 2702.7 199.135, 2703.68 199.135 M 2703.22 206.495 Q 2703.98 206.495, 2704.6 206.095 Q 2705.24 205.695, 2705.6 204.995 Q 2705.96 204.295, 2705.96 203.435 Q 2705.96 202.175, 2705.26 201.455 Q 2704.56 200.735, 2703.32 200.735 Q 2702.46 200.735, 2701.6 201.095 Q 2700.76 201.435, 2700.16 202.035 Q 2700.24 204.375, 2700.98 205.435 Q 2701.72 206.495, 2703.22 206.495 " fill="#000000"/>
<path class="note" d="M 2833.27 133.994 L 2825.85 133.994 L 2825.85 132.394 L 2835.25 132.394 L 2835.25 133.814 L 2829.53 146.554 L 2827.61 146.554 L 2833.27 133.994 " fill="#000000"/>
<path class="note" d="M 2935.22 221.216 Q 2936.52 221.776, 2937.26 222.616 Q 2938 223.436, 2938 224.836 Q 2938 226.036, 2937.38 226.976 Q 2936.76 227.896, 2935.64 228.416 Q 2934.54 228.916, 2933.08 228.916 Q 2930.72 228.916, 2929.36 227.836 Q 2928 226.736, 2928 224.836 Q 2928 223.676, 2928.6 222.816 Q 2929.2 221.936, 2930.44 221.276 Q 2929.52 220.756, 2929.02 219.996 Q 2928.52 219.216, 2928.52 218.016 Q 2928.52 216.356, 2929.72 215.376 Q 2930.94 214.396, 2933 214.396 Q 2935.06 214.396, 2936.26 215.376 Q 2937.48 216.356, 2937.48 218.016 Q 2937.48 219.056, 2936.9 219.836 Q 2936.34 220.596, 2935.22 221.216 M 2933 215.896 Q 2931.82 215.896, 2931.16 216.456 Q 2930.52 217.016, 2930.52 218.016 Q 2930.52 218.756, 2930.96 219.256 Q 2931.4 219.736, 2932.02 220.016 Q 2932.66 220.296, 2933.88 220.716 Q 2934.74 220.116, 2935.1 219.476 Q 2935.48 218.836, 2935.48 218.016 Q 2935.48 217.016, 2934.82 216.456 Q 2934.18 215.896, 2933 215.896 M 2933.08 227.416 Q 2934.4 227.416, 2935.2 226.716 Q 2936 225.996, 2936 224.816 Q 2936 224.056, 2935.58 223.576 Q 2935.16 223.096, 2934.52 222.816 Q 2933.9 222.536, 2932.78 222.176 L 2931.88 221.876 Q 2930.88 222.476, 2930.44 223.196 Q 2930 223.896, 2930 224.816 Q 2930 225.996, 2930.84 226.716 Q 2931.68 227.416, 2933.08 227.416 " fill="#000000"/>
<path class="note" d="M 2915.39 377.679 Q 2917.91 377.679, 2919.17 379.399 Q 2920.45 381.099, 2920.45 384.499 Q 2920.45 388.259, 2918.87 390.219 Q 2917.31 392.159, 2914.29 392.159 Q 2913.41 392.159, 2912.65 391.959 Q 2911.91 391.759, 2911.19 391.339 L 2911.97 389.999 Q 2913.01 390.559, 2914.27 390.559 Q 2916.27 390.559, 2917.29 389.279 Q 2918.31 387.979, 2918.43 385.319 Q 2917.71 385.979, 2916.79 386.339 Q 2915.89 386.679, 2914.91 386.679 Q 2913.67 386.679, 2912.69 386.139 Q 2911.71 385.599, 2911.17 384.619 Q 2910.63 383.639, 2910.63 382.399 Q 2910.63 381.019, 2911.23 379.959 Q 2911.85 378.879, 2912.93 378.279 Q 2914.01 377.679, 2915.39 377.679 M 2912.63 382.379 Q 2912.63 383.639, 2913.33 384.359 Q 2914.03 385.079, 2915.27 385.079 Q 2916.13 385.079, 2916.97 384.739 Q 2917.83 384.379, 2918.43 383.779 Q 2918.35 381.439, 2917.61 380.379 Q 2916.87 379.319, 2915.37 379.319 Q 2914.61 379.319, 2913.97 379.719 Q 2913.35 380.119, 2912.99 380.819 Q 2912.63 381.519, 2912.63 382.379 " fill="#000000"/>
<path class="note" d="M 2763.87 421.07 L 2766.97 421.07 L 2766.97 410.49 L 2763.55 411.55 L 2763.09 410.37 L 2767.43 408.43 L 2768.85 408.67 L 2768.85 421.07 L 2771.63 421.07 L 2771.63 422.67 L 2763.87 422.67 L 2763.87 421.07 " fill="#000000"/>
<path class="note" d="M 2778.03 422.83 Q 2775.43 422.83, 2774.13 420.91 Q 2772.85 418.99, 2772.85 415.57 Q 2772.85 412.15, 2774.13 410.25 Q 2775.41 408.35, 2778.03 408.35 Q 2780.65 408.35, 2781.93 410.25 Q 2783.21 412.15, 2783.21 415.57 Q 2783.21 418.99, 2781.91 420.91 Q 2780.63 422.83, 2778.03 422.83 M 2778.03 421.23 Q 2779.57 421.23, 2780.39 419.81 Q 2781.21 418.37, 2781.21 415.57 Q 2781.21 412.79, 2780.39 411.37 Q 2779.57 409.95, 2778.03 409.95 Q 2776.51 409.95, 2775.67 411.37 Q 2774.85 412.79, 2774.85 415.57 Q 2774.85 418.37, 2775.67 419.81 Q 2776.51 421.23, 2778.03 421.23 " fill="#000000"/>
<path class="note" d="M 3805.61 420.085 L 3808.71 420.085 L 3808.71 409.505 L 3805.29 410.565 L 3804.83 409.385 L 3809.17 407.445 L 3810.59 407.685 L 3810.59 420.085 L 3813.37 420.085 L 3813.37 421.685 L 3805.61 421.685 L 3805.61 420.085 " fill="#000000"/>
<path class="note" d="M 3815.23 420.085 L 3818.33 420.085 L 3818.33 409.505 L 3814.91 410.565 L 3814.45 409.385 L 3818.79 407.445 L 3820.21 407.685 L 3820.21 420.085 L 3822.99 420.085 L 3822.99 421.685 L 3815.23 421.685 L 3815.23 420.085 " fill="#000000"/>
<path class="note" d="M 3673.46 389.792 L 3676.56 389.792 L 3676.56 379.212 L 3673.14 380.272 L 3672.68 379.092 L 3677.02 377.152 L 3678.44 377.392 L 3678.44 389.792 L 3681.22 389.792 L 3681.22 391.392 L 3673.46 391.392 L 3673.46 389.792 " fill="#000000"/>
<path class="note" d="M 3682.26 379.912 Q 3682.78 378.572, 3684.02 377.832 Q 3685.26 377.072, 3686.98 377.072 Q 3689.12 377.072, 3690.32 378.232 Q 3691.52 379.392, 3691.52 381.452 Q 3691.52 383.552, 3689.96 385.512 Q 3688.42 387.472, 3685.22 389.792 L 3691.76 389.792 L 3691.76 391.392 L 3682.22 391.392 L 3682.22 390.052 Q 3684.86 388.172, 3686.42 386.772 Q 3688 385.372, 3688.76 384.112 Q 3689.52 382.852, 3689.52 381.552 Q 3689.52 380.192, 3688.84 379.432 Q 3688.16 378.672, 3686.98 378.672 Q 3685.84 378.672, 3685.08 379.132 Q 3684.32 379.592, 3683.78 380.612 L 3682.26 379.912 " fill="#000000"/>
<path class="note" d="M 3608.07 460.903 L 3611.17 460.903 L 3611.17 450.323 L 3607.75 451.383 L 3607.29 450.203 L 3611.63 448.263 L 3613.05 448.503 L 3613.05 460.903 L 3615.83 460.903 L 3615.83 462.503 L 3608.07 462.503 L 3608.07 460.903 " fill="#000000"/>
<path class="note" d="M 3623.47 455.043 Q 3624.85 455.443, 3625.51 456.343 Q 3626.19 457.223, 3626.19 458.623 Q 3626.19 459.823, 3625.59 460.763 Q 3624.99 461.683, 3623.89 462.203 Q 3622.79 462.703, 3621.35 462.703 Q 3619.83 462.703, 3618.69 462.183 Q 3617.57 461.643, 3616.67 460.563 L 3617.81 459.403 Q 3618.69 460.363, 3619.43 460.743 Q 3620.17 461.103, 3621.35 461.103 Q 3622.63 461.103, 3623.41 460.423 Q 3624.19 459.723, 3624.19 458.603 Q 3624.19 457.163, 3623.37 456.523 Q 3622.57 455.863, 3620.83 455.863 L 3619.81 455.863 L 3619.81 454.423 L 3620.71 454.423 Q 3622.25 454.403, 3623.07 453.743 Q 3623.89 453.063, 3623.89 451.803 Q 3623.89 450.883, 3623.21 450.343 Q 3622.53 449.783, 3621.37 449.783 Q 3620.19 449.783, 3619.45 450.203 Q 3618.73 450.623, 3618.17 451.683 L 3616.79 450.943 Q 3617.29 449.763, 3618.49 448.983 Q 3619.69 448.183, 3621.37 448.183 Q 3623.45 448.183, 3624.67 449.163 Q 3625.89 450.143, 3625.89 451.803 Q 3625.89 452.943, 3625.27 453.763 Q 3624.65 454.583, 3623.47 455.043 " fill="#000000"/>
<path class="note" d="M 3478.52 400.389 L 3481.62 400.389 L 3481.62 389.809 L 3478.2 390.869 L 3477.74 389.689 L 3482.08 387.749 L 3483.5 387.989 L 3483.5 400.389 L 3486.28 400.389 L 3486.28 401.989 L 3478.52 401.989 L 3478.52 400.389 " fill="#000000"/>
<path class="note" d="M 3496.08 397.129 L 3497.78 397.129 L 3497.78 398.729 L 3496.08 398.729 L 3496.08 401.989 L 3494.2 401.989 L 3494.2 398.729 L 3486.88 398.729 L 3486.88 397.469 L 3493.08 387.829 L 3496.08 387.829 L 3496.08 397.129 M 3489.2 397.129 L 3494.2 397.129 L 3494.2 389.109 L 3489.2 397.129 " fill="#000000"/>
<path class="note" d="M 3383.84 443.131 L 3386.94 443.131 L 3386.94 432.551 L 3383.52 433.611 L 3383.06 432.431 L 3387.4 430.491 L 3388.82 430.731 L 3388.82 443.131 L 3391.6 443.131 L 3391.6 444.731 L 3383.84 444.731 L 3383.84 443.131 " fill="#000000"/>
<path class="note" d="M 3397.66 435.871 Q 3398.9 435.871, 3399.92 436.411 Q 3400.94 436.931, 3401.52 437.931 Q 3402.1 438.911, 3402.1 440.251 Q 3402.1 441.711, 3401.38 442.771 Q 3400.68 443.811, 3399.52 444.351 Q 3398.36 444.891, 3397.04 444.891 Q 3395.74 444.891, 3394.54 444.411 Q 3393.34 443.931, 3392.52 443.011 L 3393.72 441.771 Q 3394.38 442.491, 3395.28 442.891 Q 3396.18 443.271, 3397.1 443.271 Q 3398.36 443.271, 3399.22 442.491 Q 3400.1 441.711, 3400.1 440.291 Q 3400.1 438.791, 3399.22 438.091 Q 3398.36 437.371, 3396.98 437.371 Q 3395.74 437.371, 3394.36 437.911 L 3393.26 437.391 L 3393.94 430.571 L 3401.22 430.571 L 3401.02 432.171 L 3395.58 432.171 L 3395.16 436.371 Q 3396.42 435.871, 3397.66 435.871 " fill="#000000"/>
<path class="note" d="M 3265.46 365.171 L 3268.56 365.171 L 3268.56 354.591 L 3265.14 355.651 L 3264.68 354.471 L 3269.02 352.531 L 3270.44 352.771 L 3270.44 365.171 L 3273.22 365.171 L 3273.22 366.771 L 3265.46 366.771 L 3265.46 365.171 " fill="#000000"/>
<path class="note" d="M 3280.12 357.931 Q 3281.36 357.931, 3282.34 358.471 Q 3283.32 359.011, 3283.86 359.991 Q 3284.4 360.971, 3284.4 362.211 Q 3284.4 363.591, 3283.78 364.671 Q 3283.18 365.731, 3282.1 366.331 Q 3281.02 366.931, 3279.64 366.931 Q 3277.12 366.931, 3275.84 365.231 Q 3274.58 363.511, 3274.58 360.111 Q 3274.58 356.351, 3276.14 354.411 Q 3277.72 352.451, 3280.74 352.451 Q 3281.62 352.451, 3282.36 352.651 Q 3283.12 352.851, 3283.84 353.271 L 3283.06 354.611 Q 3282.02 354.051, 3280.76 354.051 Q 3278.76 354.051, 3277.74 355.351 Q 3276.72 356.631, 3276.6 359.291 Q 3277.32 358.631, 3278.22 358.291 Q 3279.14 357.931, 3280.12 357.931 M 3279.66 365.291 Q 3280.42 365.291, 3281.04 364.891 Q 3281.68 364.491, 3282.04 363.791 Q 3282.4 363.091, 3282.4 362.231 Q 3282.4 360.971, 3281.7 360.251 Q 3281 359.531, 3279.76 359.531 Q 3278.9 359.531, 3278.04 359.891 Q 3277.2 360.231, 3276.6 360.831 Q 3276.68 363.171, 3277.42 364.231 Q 3278.16 365.291, 3279.66 365.291 " fill="#000000"/>
<path class="note" d="M 3157.34 455.54 L 3160.44 455.54 L 3160.44 444.96 L 3157.02 446.02 L 3156.56 444.84 L 3160.9 442.9 L 3162.32 443.14 L 3162.32 455.54 L 3165.1 455.54 L 3165.1 457.14 L 3157.34 457.14 L 3157.34 455.54 " fill="#000000"/>
<path class="note" d="M 3172.88 444.58 L 3165.46 444.58 L 3165.46 442.98 L 3174.86 442.98 L 3174.86 444.4 L 3169.14 457.14 L 3167.22 457.14 L 3172.88 444.58 " fill="#000000"/>
<path class="note" d="M 3260.31 271.611 L 3263.41 271.611 L 3263.41 261.031 L 3259.99 262.091 L 3259.53 260.911 L 3263.87 258.971 L 3265.29 259.211 L 3265.29 271.611 L 3268.07 271.611 L 3268.07 273.211 L 3260.31 273.211 L 3260.31 271.611 " fill="#000000"/>
<path class="note" d="M 3276.53 265.711 Q 3277.83 266.271, 3278.57 267.111 Q 3279.31 267.931, 3279.31 269.331 Q 3279.31 270.531, 3278.69 271.471 Q 3278.07 272.391, 3276.95 272.911 Q 3275.85 273.411, 3274.39 273.411 Q 3272.03 273.411, 3270.67 272.331 Q 3269.31 271.231, 3269.31 269.331 Q 3269.31 268.171, 3269.91 267.311 Q 3270.51 266.431, 3271.75 265.771 Q 3270.83 265.251, 3270.33 264.491 Q 3269.83 263.711, 3269.83 262.511 Q 3269.83 260.851, 3271.03 259.871 Q 3272.25 258.891, 3274.31 258.891 Q 3276.37 258.891, 3277.57 259.871 Q 3278.79 260.851, 3278.79 262.511 Q 3278.79 263.551, 3278.21 264.331 Q 3277.65 265.091, 3276.53 265.711 M 3274.31 260.391 Q 3273.13 260.391, 3272.47 260.951 Q 3271.83 261.511, 3271.83 262.511 Q 3271.83 263.251, 3272.27 263.751 Q 3272.71 264.231, 3273.33 264.511 Q 3273.97 264.791, 3275.19 265.211 Q 3276.05 264.611, 3276.41 263.971 Q 3276.79 263.331, 3276.79 262.511 Q 3276.79 261.511, 3276.13 260.951 Q 3275.49 260.391, 3274.31 260.391 M 3274.39 271.911 Q 3275.71 271.911, 3276.51 271.211 Q 3277.31 270.491, 3277.31 269.311 Q 3277.31 268.551, 3276.89 268.071 Q 3276.47 267.591, 3275.83 267.311 Q 3275.21 267.031, 3274.09 266.671 L 3273.19 266.371 Q 3272.19 266.971, 3271.75 267.691 Q 3271.31 268.391, 3271.31 269.311 Q 3271.31 270.491, 3272.15 271.211 Q 3272.99 271.911, 3274.39 271.911 " fill="#000000"/>
<path class="note" d="M 3142.43 193.611 L 3145.53 193.611 L 3145.53 183.031 L 3142.11 184.091 L 3141.65 182.911 L 3145.99 180.971 L 3147.41 181.211 L 3147.41 193.611 L 3150.19 193.611 L 3150.19 195.211 L 3142.43 195.211 L 3142.43 193.611 " fill="#000000"/>
<path class="note" d="M 3156.05 180.891 Q 3158.57 180.891, 3159.83 182.611 Q 3161.11 184.311, 3161.11 187.711 Q 3161.11 191.471, 3159.53 193.431 Q 3157.97 195.371, 3154.95 195.371 Q 3154.07 195.371, 3153.31 195.171 Q 3152.57 194.971, 3151.85 194.551 L 3152.63 193.211 Q 3153.67 193.771, 3154.93 193.771 Q 3156.93 193.771, 3157.95 192.491 Q 3158.97 191.191, 3159.09 188.531 Q 3158.37 189.191, 3157.45 189.551 Q 3156.55 189.891, 3155.57 189.891 Q 3154.33 189.891, 3153.35 189.351 Q 3152.37 188.811, 3151.83 187.831 Q 3151.29 186.851, 3151.29 185.611 Q 3151.29 184.231, 3151.89 183.171 Q 3152.51 182.091, 3153.59 181.491 Q 3154.67 180.891, 3156.05 180.891 M 3153.29 185.591 Q 3153.29 186.851, 3153.99 187.571 Q 3154.69 188.291, 3155.93 188.291 Q 3156.79 188.291, 3157.63 187.951 Q 3158.49 187.591, 3159.09 186.991 Q 3159.01 184.651, 3158.27 183.591 Q 3157.53 182.531, 3156.03 182.531 Q 3155.27 182.531, 3154.63 182.931 Q 3154.01 183.331, 3153.65 184.031 Q 3153.29 184.731, 3153.29 185.591 " fill="#000000"/>
<path class="note" d="M 3351.54 181.564 Q 3352.06 180.224, 3353.3 179.484 Q 3354.54 178.724, 3356.26 178.724 Q 3358.4 178.724, 3359.6 179.884 Q 3360.8 181.044, 3360.8 183.104 Q 3360.8 185.204, 3359.24 187.164 Q 3357.7 189.124, 3354.5 191.444 L 3361.04 191.444 L 3361.04 193.044 L 3351.5 193.044 L 3351.5 191.704 Q 3354.14 189.824, 3355.7 188.424 Q 3357.28 187.024, 3358.04 185.764 Q 3358.8 184.504, 3358.8 183.204 Q 3358.8 181.844, 3358.12 181.084 Q 3357.44 180.324, 3356.26 180.324 Q 3355.12 180.324, 3354.36 180.784 Q 3353.6 181.244, 3353.06 182.264 L 3351.54 181.564 " fill="#000000"/>
<path class="note" d="M 3367.44 193.204 Q 3364.84 193.204, 3363.54 191.284 Q 3362.26 189.364, 3362.26 185.944 Q 3362.26 182.524, 3363.54 180.624 Q 3364.82 178.724, 3367.44 178.724 Q 3370.06 178.724, 3371.34 180.624 Q 3372.62 182.524, 3372.62 185.944 Q 3372.62 189.364, 3371.32 191.284 Q 3370.04 193.204, 3367.44 193.204 M 3367.44 191.604 Q 3368.98 191.604, 3369.8 190.184 Q 3370.62 188.744, 3370.62 185.944 Q 3370.62 183.164, 3369.8 181.744 Q 3368.98 180.324, 3367.44 180.324 Q 3365.92 180.324, 3365.08 181.744 Q 3364.26 183.164, 3364.26 185.944 Q 3364.26 188.744, 3365.08 190.184 Q 3365.92 191.604, 3367.44 191.604 " fill="#000000"/>
<path class="note" d="M 3361.04 40.3375 Q 3361.56 38.9975, 3362.8 38.2575 Q 3364.04 37.4975, 3365.76 37.4975 Q 3367.9 37.4975, 3369.1 38.6575 Q 3370.3 39.8175, 3370.3 41.8775 Q 3370.3 43.9775, 3368.74 45.9375 Q 3367.2 47.8975, 3364 50.2175 L 3370.54 50.2175 L 3370.54 51.8175 L 3361 51.8175 L 3361 50.4775 Q 3363.64 48.5975, 3365.2 47.1975 Q 3366.78 45.7975, 3367.54 44.5375 Q 3368.3 43.2775, 3368.3 41.9775 Q 3368.3 40.6175, 3367.62 39.8575 Q 3366.94 39.0975, 3365.76 39.0975 Q 3364.62 39.0975, 3363.86 39.5575 Q 3363.1 40.0175, 3362.56 41.0375 L 3361.04 40.3375 " fill="#000000"/>
<path class="note" d="M 3372.4 50.2175 L 3375.5 50.2175 L 3375.5 39.6375 L 3372.08 40.6975 L 3371.62 39.5175 L 3375.96 37.5775 L 3377.38 37.8175 L 3377.38 50.2175 L 3380.16 50.2175 L 3380.16 51.8175 L 3372.4 51.8175 L 3372.4 50.2175 " fill="#000000"/>
<path class="note" d="M 3467.03 203.428 Q 3467.55 202.088, 3468.79 201.348 Q 3470.03 200.588, 3471.75 200.588 Q 3473.89 200.588, 3475.09 201.748 Q 3476.29 202.908, 3476.29 204.968 Q 3476.29 207.068, 3474.73 209.028 Q 3473.19 210.988, 3469.99 213.308 L 3476.53 213.308 L 3476.53 214.908 L 3466.99 214.908 L 3466.99 213.568 Q 3469.63 211.688, 3471.19 210.288 Q 3472.77 208.888, 3473.53 207.628 Q 3474.29 206.368, 3474.29 205.068 Q 3474.29 203.708, 3473.61 202.948 Q 3472.93 202.188, 3471.75 202.188 Q 3470.61 202.188, 3469.85 202.648 Q 3469.09 203.108, 3468.55 204.128 L 3467.03 203.428 " fill="#000000"/>
<path class="note" d="M 3477.57 203.428 Q 3478.09 202.088, 3479.33 201.348 Q 3480.57 200.588, 3482.29 200.588 Q 3484.43 200.588, 3485.63 201.748 Q 3486.83 202.908, 3486.83 204.968 Q 3486.83 207.068, 3485.27 209.028 Q 3483.73 210.988, 3480.53 213.308 L 3487.07 213.308 L 3487.07 214.908 L 3477.53 214.908 L 3477.53 213.568 Q 3480.17 211.688, 3481.73 210.288 Q 3483.31 208.888, 3484.07 207.628 Q 3484.83 206.368, 3484.83 205.068 Q 3484.83 203.708, 3484.15 202.948 Q 3483.47 202.188, 3482.29 202.188 Q 3481.15 202.188, 3480.39 202.648 Q 3479.63 203.108, 3479.09 204.128 L 3477.57 203.428 " fill="#000000"/>
<path class="note" d="M 3542.84 148.011 Q 3543.36 146.671, 3544.6 145.931 Q 3545.84 145.171, 3547.56 145.171 Q 3549.7 145.171, 3550.9 146.331 Q 3552.1 147.491, 3552.1 149.551 Q 3552.1 151.651, 3550.54 153.611 Q 3549 155.571, 3545.8 157.891 L 3552.34 157.891 L 3552.34 159.491 L 3542.8 159.491 L 3542.8 158.151 Q 3545.44 156.271, 3547 154.871 Q 3548.58 153.471, 3549.34 152.211 Q 3550.1 150.951, 3550.1 149.651 Q 3550.1 148.291, 3549.42 147.531 Q 3548.74 146.771, 3547.56 146.771 Q 3546.42 146.771, 3545.66 147.231 Q 3544.9 147.691, 3544.36 148.711 L 3542.84 148.011 " fill="#000000"/>
<path class="note" d="M 3559.98 152.031 Q 3561.36 152.431, 3562.02 153.331 Q 3562.7 154.211, 3562.7 155.611 Q 3562.7 156.811, 3562.1 157.751 Q 3561.5 158.671, 3560.4 159.191 Q 3559.3 159.691, 3557.86 159.691 Q 3556.34 159.691, 3555.2 159.171 Q 3554.08 158.631, 3553.18 157.551 L 3554.32 156.391 Q 3555.2 157.351, 3555.94 157.731 Q 3556.68 158.091, 3557.86 158.091 Q 3559.14 158.091, 3559.92 157.411 Q 3560.7 156.711, 3560.7 155.591 Q 3560.7 154.151, 3559.88 153.511 Q 3559.08 152.851, 3557.34 152.851 L 3556.32 152.851 L 3556.32 151.411 L 3557.22 151.411 Q 3558.76 151.391, 3559.58 150.731 Q 3560.4 150.051, 3560.4 148.791 Q 3560.4 147.871, 3559.72 147.331 Q 3559.04 146.771, 3557.88 146.771 Q 3556.7 146.771, 3555.96 147.191 Q 3555.24 147.611, 3554.68 148.671 L 3553.3 147.931 Q 3553.8 146.751, 3555 145.971 Q 3556.2 145.171, 3557.88 145.171 Q 3559.96 145.171, 3561.18 146.151 Q 3562.4 147.131, 3562.4 148.791 Q 3562.4 149.931, 3561.78 150.751 Q 3561.16 151.571, 3559.98 152.031 " fill="#000000"/>
<path class="note" d="M 3661.01 192.791 Q 3661.53 191.451, 3662.77 190.711 Q 3664.01 189.951, 3665.73 189.951 Q 3667.87 189.951, 3669.07 191.111 Q 3670.27 192.271, 3670.27 194.331 Q 3670.27 196.431, 3668.71 198.391 Q 3667.17 200.351, 3663.97 202.671 L 3670.51 202.671 L 3670.51 204.271 L 3660.97 204.271 L 3660.97 202.931 Q 3663.61 201.051, 3665.17 199.651 Q 3666.75 198.251, 3667.51 196.991 Q 3668.27 195.731, 3668.27 194.431 Q 3668.27 193.071, 3667.59 192.311 Q 3666.91 191.551, 3665.73 191.551 Q 3664.59 191.551, 3663.83 192.011 Q 3663.07 192.471, 3662.53 193.491 L 3661.01 192.791 " fill="#000000"/>
<path class="note" d="M 3680.31 199.411 L 3682.01 199.411 L 3682.01 201.011 L 3680.31 201.011 L 3680.31 204.271 L 3678.43 204.271 L 3678.43 201.011 L 3671.11 201.011 L 3671.11 199.751 L 3677.31 190.111 L 3680.31 190.111 L 3680.31 199.411 M 3673.43 199.411 L 3678.43 199.411 L 3678.43 191.391 L 3673.43 199.411 " fill="#000000"/>
<path class="note" d="M 3789.1 148.276 Q 3789.62 146.936, 3790.86 146.196 Q 3792.1 145.436, 3793.82 145.436 Q 3795.96 145.436, 3797.16 146.596 Q 3798.36 147.756, 3798.36 149.816 Q 3798.36 151.916, 3796.8 153.876 Q 3795.26 155.836, 3792.06 158.156 L 3798.6 158.156 L 3798.6 159.756 L 3789.06 159.756 L 3789.06 158.416 Q 3791.7 156.536, 3793.26 155.136 Q 3794.84 153.736, 3795.6 152.476 Q 3796.36 151.216, 3796.36 149.916 Q 3796.36 148.556, 3795.68 147.796 Q 3795 147.036, 3793.82 147.036 Q 3792.68 147.036, 3791.92 147.496 Q 3791.16 147.956, 3790.62 148.976 L 3789.1 148.276 " fill="#000000"/>
<path class="note" d="M 3804.66 150.896 Q 3805.9 150.896, 3806.92 151.436 Q 3807.94 151.956, 3808.52 152.956 Q 3809.1 153.936, 3809.1 155.276 Q 3809.1 156.736, 3808.38 157.796 Q 3807.68 158.836, 3806.52 159.376 Q 3805.36 159.916, 3804.04 159.916 Q 3802.74 159.916, 3801.54 159.436 Q 3800.34 158.956, 3799.52 158.036 L 3800.72 156.796 Q 3801.38 157.516, 3802.28 157.916 Q 3803.18 158.296, 3804.1 158.296 Q 3805.36 158.296, 3806.22 157.516 Q 3807.1 156.736, 3807.1 155.316 Q 3807.1 153.816, 3806.22 153.116 Q 3805.36 152.396, 3803.98 152.396 Q 3802.74 152.396, 3801.36 152.936 L 3800.26 152.416 L 3800.94 145.596 L 3808.22 145.596 L 3808.02 147.196 L 3802.58 147.196 L 3802.16 151.396 Q 3803.42 150.896, 3804.66 150.896 " fill="#000000"/>
<path d="M 501.273 253.46 L 507.321 253.46 L 507.321 247.092 L 510.009 247.092 L 510.009 253.46 L 516.217 253.46 L 516.217 255.764 L 510.009 255.764 L 510.009 262.164 L 507.321 262.164 L 507.321 255.764 L 501.273 255.764 L 501.273 253.46 " fill="#000000"/>
<path d="M 1152.33 253.46 L 1158.38 253.46 L 1158.38 247.092 L 1161.06 247.092 L 1161.06 253.46 L 1167.27 253.46 L 1167.27 255.764 L 1161.06 255.764 L 1161.06 262.164 L 1158.38 262.164 L 1158.38 255.764 L 1152.33 255.764 L 1152.33 253.46 " fill="#000000"/>
<path d="M 3033.65 253.46 L 3039.7 253.46 L 3039.7 247.092 L 3042.39 247.092 L 3042.39 253.46 L 3048.6 253.46 L 3048.6 255.764 L 3042.39 255.764 L 3042.39 262.164 L 3039.7 262.164 L 3039.7 255.764 L 3033.65 255.764 L 3033.65 253.46 " fill="#000000"/>
<path d="M 1932.14,255.764 L 2231.98,255.764" style="fill:none;fill-rule:evenodd;stroke:#000000;stroke-width:2.0px;stroke-linecap:butt;stroke-linejoin:miter;stroke-opacity:1"/>
<path d="M 2231.98,255.764 L 2218.99,248.268" style="fill:none;fill-rule:evenodd;stroke:#000000;stroke-width:2.0px;stroke-linecap:butt;stroke-linejoin:miter;stroke-opacity:1"/>
<path d="M 2231.98,255.764 L 2218.99,263.26" style="fill:none;fill-rule:evenodd;stroke:#000000;stroke-width:2.0px;stroke-linecap:butt;stroke-linejoin:miter;stroke-opacity:1"/>
</svg>