<svg xmlns="http://www.w3.org/2000/svg" xmlns:rdkit="http://www.rdkit.org/xml" xmlns:xlink="http://www.w3.org/1999/xlink" version="1.1" baseProfile="full" xml:space="preserve" width="4000px" height="500px" viewBox="0 0 4000 500">
<!-- END OF HEADER -->
<rect style="opacity:1.0;fill:#FFFFFF;stroke:none" width="4000" height="500" x="0" y="0"> </rect>
<path d="M 1115.42,298.456 L 1036.67,252.991" style="fill:none;fill-rule:evenodd;stroke:#FFFFAA;stroke-width:19.4px;stroke-linecap:butt;stroke-linejoin:miter;stroke-opacity:1"/>
<path d="M 1036.67,252.991 L 957.919,298.456" style="fill:none;fill-rule:evenodd;stroke:#FFFFAA;stroke-width:19.4px;stroke-linecap:butt;stroke-linejoin:miter;stroke-opacity:1"/>
<path d="M 1036.67,252.991 L 1036.67,162.06" style="fill:none;fill-rule:evenodd;stroke:#FFFFAA;stroke-width:19.4px;stroke-linecap:butt;stroke-linejoin:miter;stroke-opacity:1"/>
<path d="M 1519.05,424.714 L 1517.6,333.795" style="fill:none;fill-rule:evenodd;stroke:#FFCC99;stroke-width:19.4px;stroke-linecap:butt;stroke-linejoin:miter;stroke-opacity:1"/>
<path d="M 1517.6,333.795 L 1438.14,289.59" style="fill:none;fill-rule:evenodd;stroke:#FFCC99;stroke-width:19.4px;stroke-linecap:butt;stroke-linejoin:miter;stroke-opacity:1"/>
<path d="M 1517.6,333.795 L 1595.62,287.081" style="fill:none;fill-rule:evenodd;stroke:#FFCC99;stroke-width:19.4px;stroke-linecap:butt;stroke-linejoin:miter;stroke-opacity:1"/>
<path d="M 1438.14,289.59 L 1436.69,198.671" style="fill:none;fill-rule:evenodd;stroke:#FFCC99;stroke-width:19.4px;stroke-linecap:butt;stroke-linejoin:miter;stroke-opacity:1"/>
<path d="M 1436.69,198.671 L 1357.23,154.466" style="fill:none;fill-rule:evenodd;stroke:#FFCC99;stroke-width:19.4px;stroke-linecap:butt;stroke-linejoin:miter;stroke-opacity:1"/>
<path d="M 1436.69,198.671 L 1514.71,151.957" style="fill:none;fill-rule:evenodd;stroke:#FFCC99;stroke-width:19.4px;stroke-linecap:butt;stroke-linejoin:miter;stroke-opacity:1"/>
<path d="M 1514.71,151.957 L 1594.17,196.162" style="fill:none;fill-rule:evenodd;stroke:#FFCC99;stroke-width:19.4px;stroke-linecap:butt;stroke-linejoin:miter;stroke-opacity:1"/>
<path d="M 1594.17,196.162 L 1595.62,287.081" style="fill:none;fill-rule:evenodd;stroke:#FFCC99;stroke-width:19.4px;stroke-linecap:butt;stroke-linejoin:miter;stroke-opacity:1"/>
<path d="M 1595.62,287.081 L 1675.08,331.285" style="fill:none;fill-rule:evenodd;stroke:#FFCC99;stroke-width:19.4px;stroke-linecap:butt;stroke-linejoin:miter;stroke-opacity:1"/>
<path d="M 1675.08,331.285 L 1753.1,284.571" style="fill:none;fill-rule:evenodd;stroke:#FFCC99;stroke-width:19.4px;stroke-linecap:butt;stroke-linejoin:miter;stroke-opacity:1"/>
<path d="M 1753.1,284.571 L 1832.56,328.776" style="fill:none;fill-rule:evenodd;stroke:#FFCC99;stroke-width:19.4px;stroke-linecap:butt;stroke-linejoin:miter;stroke-opacity:1"/>
<path d="M 1753.1,284.571 L 1751.65,193.652" style="fill:none;fill-rule:evenodd;stroke:#FFCC99;stroke-width:19.4px;stroke-linecap:butt;stroke-linejoin:miter;stroke-opacity:1"/>
<path d="M 1832.56,328.776 L 1910.57,282.062" style="fill:none;fill-rule:evenodd;stroke:#FFCC99;stroke-width:19.4px;stroke-linecap:butt;stroke-linejoin:miter;stroke-opacity:1"/>
<path d="M 1910.57,282.062 L 1909.12,191.143" style="fill:none;fill-rule:evenodd;stroke:#FFCC99;stroke-width:19.4px;stroke-linecap:butt;stroke-linejoin:miter;stroke-opacity:1"/>
<path d="M 1909.12,191.143 L 1829.66,146.938" style="fill:none;fill-rule:evenodd;stroke:#FFCC99;stroke-width:19.4px;stroke-linecap:butt;stroke-linejoin:miter;stroke-opacity:1"/>
<path d="M 1829.66,146.938 L 1751.65,193.652" style="fill:none;fill-rule:evenodd;stroke:#FFCC99;stroke-width:19.4px;stroke-linecap:butt;stroke-linejoin:miter;stroke-opacity:1"/>
<path d="M 2471.34,459.087 L 2498.41,372.28" style="fill:none;fill-rule:evenodd;stroke:#FFFFAA;stroke-width:19.4px;stroke-linecap:butt;stroke-linejoin:miter;stroke-opacity:1"/>
<path d="M 2498.41,372.28 L 2436.77,305.43" style="fill:none;fill-rule:evenodd;stroke:#FFFFAA;stroke-width:19.4px;stroke-linecap:butt;stroke-linejoin:miter;stroke-opacity:1"/>
<path d="M 2587.13,352.325 L 2614.2,265.519" style="fill:none;fill-rule:evenodd;stroke:#FFCC99;stroke-width:19.4px;stroke-linecap:butt;stroke-linejoin:miter;stroke-opacity:1"/>
<path d="M 2614.2,265.519 L 2552.56,198.668" style="fill:none;fill-rule:evenodd;stroke:#FFCC99;stroke-width:19.4px;stroke-linecap:butt;stroke-linejoin:miter;stroke-opacity:1"/>
<path d="M 2614.2,265.519 L 2702.91,245.563" style="fill:none;fill-rule:evenodd;stroke:#FFCC99;stroke-width:19.4px;stroke-linecap:butt;stroke-linejoin:miter;stroke-opacity:1"/>
<path d="M 2552.56,198.668 L 2579.64,111.862" style="fill:none;fill-rule:evenodd;stroke:#FFCC99;stroke-width:19.4px;stroke-linecap:butt;stroke-linejoin:miter;stroke-opacity:1"/>
<path d="M 2579.64,111.862 L 2518,45.0108" style="fill:none;fill-rule:evenodd;stroke:#FFCC99;stroke-width:19.4px;stroke-linecap:butt;stroke-linejoin:miter;stroke-opacity:1"/>
<path d="M 2579.64,111.862 L 2668.35,91.906" style="fill:none;fill-rule:evenodd;stroke:#FFCC99;stroke-width:19.4px;stroke-linecap:butt;stroke-linejoin:miter;stroke-opacity:1"/>
<path d="M 2668.35,91.906 L 2729.99,158.757" style="fill:none;fill-rule:evenodd;stroke:#FFCC99;stroke-width:19.4px;stroke-linecap:butt;stroke-linejoin:miter;stroke-opacity:1"/>
<path d="M 2729.99,158.757 L 2702.91,245.563" style="fill:none;fill-rule:evenodd;stroke:#FFCC99;stroke-width:19.4px;stroke-linecap:butt;stroke-linejoin:miter;stroke-opacity:1"/>
<path d="M 2702.91,245.563 L 2764.55,312.414" style="fill:none;fill-rule:evenodd;stroke:#FFCC99;stroke-width:19.4px;stroke-linecap:butt;stroke-linejoin:miter;stroke-opacity:1"/>
<path d="M 2764.55,312.414 L 2853.27,292.458" style="fill:none;fill-rule:evenodd;stroke:#FFCC99;stroke-width:19.4px;stroke-linecap:butt;stroke-linejoin:miter;stroke-opacity:1"/>
<path d="M 2853.27,292.458 L 2914.91,359.309" style="fill:none;fill-rule:evenodd;stroke:#FFCC99;stroke-width:19.4px;stroke-linecap:butt;stroke-linejoin:miter;stroke-opacity:1"/>
<path d="M 2853.27,292.458 L 2880.34,205.652" style="fill:none;fill-rule:evenodd;stroke:#FFCC99;stroke-width:19.4px;stroke-linecap:butt;stroke-linejoin:miter;stroke-opacity:1"/>
<path d="M 2914.91,359.309 L 3003.62,339.353" style="fill:none;fill-rule:evenodd;stroke:#FFCC99;stroke-width:19.4px;stroke-linecap:butt;stroke-linejoin:miter;stroke-opacity:1"/>
<path d="M 3003.62,339.353 L 3030.7,252.547" style="fill:none;fill-rule:evenodd;stroke:#FFCC99;stroke-width:19.4px;stroke-linecap:butt;stroke-linejoin:miter;stroke-opacity:1"/>
<path d="M 3030.7,252.547 L 2969.06,185.696" style="fill:none;fill-rule:evenodd;stroke:#FFCC99;stroke-width:19.4px;stroke-linecap:butt;stroke-linejoin:miter;stroke-opacity:1"/>
<path d="M 2969.06,185.696 L 2880.34,205.652" style="fill:none;fill-rule:evenodd;stroke:#FFCC99;stroke-width:19.4px;stroke-linecap:butt;stroke-linejoin:miter;stroke-opacity:1"/>
<ellipse cx="1036.67" cy="252.991" rx="18.1861" ry="18.1861" style="fill:#FFFFAA;fill-rule:evenodd;stroke:#FFFFAA;stroke-width:1px;stroke-linecap:butt;stroke-linejoin:miter;stroke-opacity:1"/>
<ellipse cx="957.919" cy="298.456" rx="18.1861" ry="18.1861" style="fill:#FFFFAA;fill-rule:evenodd;stroke:#FFFFAA;stroke-width:1px;stroke-linecap:butt;stroke-linejoin:miter;stroke-opacity:1"/>
<ellipse cx="1036.67" cy="162.26" rx="18.1861" ry="18.6978" style="fill:#FFFFAA;fill-rule:evenodd;stroke:#FFFFAA;stroke-width:1px;stroke-linecap:butt;stroke-linejoin:miter;stroke-opacity:1"/>
<ellipse cx="1537" cy="431.152" rx="39.1912" ry="27.3136" style="fill:#FFCC99;fill-rule:evenodd;stroke:#FFCC99;stroke-width:1px;stroke-linecap:butt;stroke-linejoin:miter;stroke-opacity:1"/>
<ellipse cx="1517.6" cy="333.795" rx="18.1861" ry="18.1861" style="fill:#FFCC99;fill-rule:evenodd;stroke:#FFCC99;stroke-width:1px;stroke-linecap:butt;stroke-linejoin:miter;stroke-opacity:1"/>
<ellipse cx="1438.14" cy="289.59" rx="18.1861" ry="18.1861" style="fill:#FFCC99;fill-rule:evenodd;stroke:#FFCC99;stroke-width:1px;stroke-linecap:butt;stroke-linejoin:miter;stroke-opacity:1"/>
<ellipse cx="1436.69" cy="198.671" rx="18.1861" ry="18.1861" style="fill:#FFCC99;fill-rule:evenodd;stroke:#FFCC99;stroke-width:1px;stroke-linecap:butt;stroke-linejoin:miter;stroke-opacity:1"/>
<ellipse cx="1346.25" cy="154.666" rx="32.2517" ry="18.6978" style="fill:#FFCC99;fill-rule:evenodd;stroke:#FFCC99;stroke-width:1px;stroke-linecap:butt;stroke-linejoin:miter;stroke-opacity:1"/>
<ellipse cx="1514.71" cy="151.957" rx="18.1861" ry="18.1861" style="fill:#FFCC99;fill-rule:evenodd;stroke:#FFCC99;stroke-width:1px;stroke-linecap:butt;stroke-linejoin:miter;stroke-opacity:1"/>
<ellipse cx="1594.17" cy="196.162" rx="18.1861" ry="18.1861" style="fill:#FFCC99;fill-rule:evenodd;stroke:#FFCC99;stroke-width:1px;stroke-linecap:butt;stroke-linejoin:miter;stroke-opacity:1"/>
<ellipse cx="1595.62" cy="287.081" rx="18.1861" ry="18.1861" style="fill:#FFCC99;fill-rule:evenodd;stroke:#FFCC99;stroke-width:1px;stroke-linecap:butt;stroke-linejoin:miter;stroke-opacity:1"/>
<ellipse cx="1675.08" cy="331.486" rx="18.1861" ry="18.6978" style="fill:#FFCC99;fill-rule:evenodd;stroke:#FFCC99;stroke-width:1px;stroke-linecap:butt;stroke-linejoin:miter;stroke-opacity:1"/>
<ellipse cx="1753.1" cy="284.571" rx="18.1861" ry="18.1861" style="fill:#FFCC99;fill-rule:evenodd;stroke:#FFCC99;stroke-width:1px;stroke-linecap:butt;stroke-linejoin:miter;stroke-opacity:1"/>
<ellipse cx="1832.56" cy="328.776" rx="18.1861" ry="18.1861" style="fill:#FFCC99;fill-rule:evenodd;stroke:#FFCC99;stroke-width:1px;stroke-linecap:butt;stroke-linejoin:miter;stroke-opacity:1"/>
<ellipse cx="1910.57" cy="282.062" rx="18.1861" ry="18.1861" style="fill:#FFCC99;fill-rule:evenodd;stroke:#FFCC99;stroke-width:1px;stroke-linecap:butt;stroke-linejoin:miter;stroke-opacity:1"/>
<ellipse cx="1909.12" cy="191.143" rx="18.1861" ry="18.1861" style="fill:#FFCC99;fill-rule:evenodd;stroke:#FFCC99;stroke-width:1px;stroke-linecap:butt;stroke-linejoin:miter;stroke-opacity:1"/>
<ellipse cx="1829.66" cy="146.938" rx="18.1861" ry="18.1861" style="fill:#FFCC99;fill-rule:evenodd;stroke:#FFCC99;stroke-width:1px;stroke-linecap:butt;stroke-linejoin:miter;stroke-opacity:1"/>
<ellipse cx="1751.65" cy="193.652" rx="18.1861" ry="18.1861" style="fill:#FFCC99;fill-rule:evenodd;stroke:#FFCC99;stroke-width:1px;stroke-linecap:butt;stroke-linejoin:miter;stroke-opacity:1"/>
<ellipse cx="2471.34" cy="459.087" rx="18.1861" ry="18.1861" style="fill:#FFFFAA;fill-rule:evenodd;stroke:#FFFFAA;stroke-width:1px;stroke-linecap:butt;stroke-linejoin:miter;stroke-opacity:1"/>
<ellipse cx="2498.41" cy="372.28" rx="18.1861" ry="18.1861" style="fill:#FFFFAA;fill-rule:evenodd;stroke:#FFFFAA;stroke-width:1px;stroke-linecap:butt;stroke-linejoin:miter;stroke-opacity:1"/>
<ellipse cx="2436.77" cy="305.63" rx="18.1861" ry="18.6978" style="fill:#FFFFAA;fill-rule:evenodd;stroke:#FFFFAA;stroke-width:1px;stroke-linecap:butt;stroke-linejoin:miter;stroke-opacity:1"/>
<ellipse cx="2598.75" cy="352.325" rx="30.2456" ry="18.2091" style="fill:#FFCC99;fill-rule:evenodd;stroke:#FFCC99;stroke-width:1px;stroke-linecap:butt;stroke-linejoin:miter;stroke-opacity:1"/>
<ellipse cx="2614.2" cy="265.519" rx="18.1861" ry="18.1861" style="fill:#FFCC99;fill-rule:evenodd;stroke:#FFCC99;stroke-width:1px;stroke-linecap:butt;stroke-linejoin:miter;stroke-opacity:1"/>
<ellipse cx="2552.56" cy="198.668" rx="18.1861" ry="18.1861" style="fill:#FFCC99;fill-rule:evenodd;stroke:#FFCC99;stroke-width:1px;stroke-linecap:butt;stroke-linejoin:miter;stroke-opacity:1"/>
<ellipse cx="2579.64" cy="111.862" rx="18.1861" ry="18.1861" style="fill:#FFCC99;fill-rule:evenodd;stroke:#FFCC99;stroke-width:1px;stroke-linecap:butt;stroke-linejoin:miter;stroke-opacity:1"/>
<ellipse cx="2507.01" cy="45.2109" rx="32.2517" ry="18.6978" style="fill:#FFCC99;fill-rule:evenodd;stroke:#FFCC99;stroke-width:1px;stroke-linecap:butt;stroke-linejoin:miter;stroke-opacity:1"/>
<ellipse cx="2668.35" cy="91.906" rx="18.1861" ry="18.1861" style="fill:#FFCC99;fill-rule:evenodd;stroke:#FFCC99;stroke-width:1px;stroke-linecap:butt;stroke-linejoin:miter;stroke-opacity:1"/>
<ellipse cx="2729.99" cy="158.757" rx="18.1861" ry="18.1861" style="fill:#FFCC99;fill-rule:evenodd;stroke:#FFCC99;stroke-width:1px;stroke-linecap:butt;stroke-linejoin:miter;stroke-opacity:1"/>
<ellipse cx="2702.91" cy="245.563" rx="18.1861" ry="18.1861" style="fill:#FFCC99;fill-rule:evenodd;stroke:#FFCC99;stroke-width:1px;stroke-linecap:butt;stroke-linejoin:miter;stroke-opacity:1"/>
<ellipse cx="2764.55" cy="312.614" rx="18.1861" ry="18.6978" style="fill:#FFCC99;fill-rule:evenodd;stroke:#FFCC99;stroke-width:1px;stroke-linecap:butt;stroke-linejoin:miter;stroke-opacity:1"/>
<ellipse cx="2853.27" cy="292.458" rx="18.1861" ry="18.1861" style="fill:#FFCC99;fill-rule:evenodd;stroke:#FFCC99;stroke-width:1px;stroke-linecap:butt;stroke-linejoin:miter;stroke-opacity:1"/>
<ellipse cx="2914.91" cy="359.309" rx="18.1861" ry="18.1861" style="fill:#FFCC99;fill-rule:evenodd;stroke:#FFCC99;stroke-width:1px;stroke-linecap:butt;stroke-linejoin:miter;stroke-opacity:1"/>
<ellipse cx="3003.62" cy="339.353" rx="18.1861" ry="18.1861" style="fill:#FFCC99;fill-rule:evenodd;stroke:#FFCC99;stroke-width:1px;stroke-linecap:butt;stroke-linejoin:miter;stroke-opacity:1"/>
<ellipse cx="3030.7" cy="252.547" rx="18.1861" ry="18.1861" style="fill:#FFCC99;fill-rule:evenodd;stroke:#FFCC99;stroke-width:1px;stroke-linecap:butt;stroke-linejoin:miter;stroke-opacity:1"/>
<ellipse cx="2969.06" cy="185.696" rx="18.1861" ry="18.1861" style="fill:#FFCC99;fill-rule:evenodd;stroke:#FFCC99;stroke-width:1px;stroke-linecap:butt;stroke-linejoin:miter;stroke-opacity:1"/>
<ellipse cx="2880.34" cy="205.652" rx="18.1861" ry="18.1861" style="fill:#FFCC99;fill-rule:evenodd;stroke:#FFCC99;stroke-width:1px;stroke-linecap:butt;stroke-linejoin:miter;stroke-opacity:1"/>
<path class="bond-0" d="M 1101.32,290.319 L 1068.99,271.655" style="fill:none;fill-rule:evenodd;stroke:#FF0000;stroke-width:2.0px;stroke-linecap:butt;stroke-linejoin:miter;stroke-opacity:1"/>
<path class="bond-0" d="M 1068.99,271.655 L 1036.67,252.991" style="fill:none;fill-rule:evenodd;stroke:#000000;stroke-width:2.0px;stroke-linecap:butt;stroke-linejoin:miter;stroke-opacity:1"/>
<path class="bond-1" d="M 1036.67,252.991 L 957.919,298.456" style="fill:none;fill-rule:evenodd;stroke:#000000;stroke-width:2.0px;stroke-linecap:butt;stroke-linejoin:miter;stroke-opacity:1"/>
<path class="bond-2" d="M 1045.76,252.991 L 1045.76,215.373" style="fill:none;fill-rule:evenodd;stroke:#000000;stroke-width:2.0px;stroke-linecap:butt;stroke-linejoin:miter;stroke-opacity:1"/>
<path class="bond-2" d="M 1045.76,215.373 L 1045.76,177.755" style="fill:none;fill-rule:evenodd;stroke:#FF0000;stroke-width:2.0px;stroke-linecap:butt;stroke-linejoin:miter;stroke-opacity:1"/>
<path class="bond-2" d="M 1027.57,252.991 L 1027.57,215.373" style="fill:none;fill-rule:evenodd;stroke:#000000;stroke-width:2.0px;stroke-linecap:butt;stroke-linejoin:miter;stroke-opacity:1"/>
<path class="bond-2" d="M 1027.57,215.373 L 1027.57,177.755" style="fill:none;fill-rule:evenodd;stroke:#FF0000;stroke-width:2.0px;stroke-linecap:butt;stroke-linejoin:miter;stroke-opacity:1"/>
<path class="bond-3" d="M 1518.81,409.565 L 1518.21,371.68" style="fill:none;fill-rule:evenodd;stroke:#0000FF;stroke-width:2.0px;stroke-linecap:butt;stroke-linejoin:miter;stroke-opacity:1"/>
<path class="bond-3" d="M 1518.21,371.68 L 1517.6,333.795" style="fill:none;fill-rule:evenodd;stroke:#000000;stroke-width:2.0px;stroke-linecap:butt;stroke-linejoin:miter;stroke-opacity:1"/>
<path class="bond-4" d="M 1517.6,333.795 L 1438.14,289.59" style="fill:none;fill-rule:evenodd;stroke:#000000;stroke-width:2.0px;stroke-linecap:butt;stroke-linejoin:miter;stroke-opacity:1"/>
<path class="bond-4" d="M 1514.53,311.272 L 1458.9,280.328" style="fill:none;fill-rule:evenodd;stroke:#000000;stroke-width:2.0px;stroke-linecap:butt;stroke-linejoin:miter;stroke-opacity:1;stroke-dasharray:6,6"/>
<path class="bond-17" d="M 1517.6,333.795 L 1595.62,287.081" style="fill:none;fill-rule:evenodd;stroke:#000000;stroke-width:2.0px;stroke-linecap:butt;stroke-linejoin:miter;stroke-opacity:1"/>
<path class="bond-17" d="M 1519.96,311.185 L 1574.57,278.485" style="fill:none;fill-rule:evenodd;stroke:#000000;stroke-width:2.0px;stroke-linecap:butt;stroke-linejoin:miter;stroke-opacity:1;stroke-dasharray:6,6"/>
<path class="bond-5" d="M 1438.14,289.59 L 1436.69,198.671" style="fill:none;fill-rule:evenodd;stroke:#000000;stroke-width:2.0px;stroke-linecap:butt;stroke-linejoin:miter;stroke-opacity:1"/>
<path class="bond-5" d="M 1456.11,275.662 L 1455.09,212.019" style="fill:none;fill-rule:evenodd;stroke:#000000;stroke-width:2.0px;stroke-linecap:butt;stroke-linejoin:miter;stroke-opacity:1;stroke-dasharray:6,6"/>
<path class="bond-6" d="M 1436.69,198.671 L 1404.01,180.489" style="fill:none;fill-rule:evenodd;stroke:#000000;stroke-width:2.0px;stroke-linecap:butt;stroke-linejoin:miter;stroke-opacity:1"/>
<path class="bond-6" d="M 1404.01,180.489 L 1371.32,162.307" style="fill:none;fill-rule:evenodd;stroke:#FF0000;stroke-width:2.0px;stroke-linecap:butt;stroke-linejoin:miter;stroke-opacity:1"/>
<path class="bond-7" d="M 1436.69,198.671 L 1514.71,151.957" style="fill:none;fill-rule:evenodd;stroke:#000000;stroke-width:2.0px;stroke-linecap:butt;stroke-linejoin:miter;stroke-opacity:1"/>
<path class="bond-7" d="M 1457.74,207.267 L 1512.35,174.567" style="fill:none;fill-rule:evenodd;stroke:#000000;stroke-width:2.0px;stroke-linecap:butt;stroke-linejoin:miter;stroke-opacity:1;stroke-dasharray:6,6"/>
<path class="bond-8" d="M 1514.71,151.957 L 1594.17,196.162" style="fill:none;fill-rule:evenodd;stroke:#000000;stroke-width:2.0px;stroke-linecap:butt;stroke-linejoin:miter;stroke-opacity:1"/>
<path class="bond-8" d="M 1517.79,174.48 L 1573.41,205.423" style="fill:none;fill-rule:evenodd;stroke:#000000;stroke-width:2.0px;stroke-linecap:butt;stroke-linejoin:miter;stroke-opacity:1;stroke-dasharray:6,6"/>
<path class="bond-9" d="M 1594.17,196.162 L 1595.62,287.081" style="fill:none;fill-rule:evenodd;stroke:#000000;stroke-width:2.0px;stroke-linecap:butt;stroke-linejoin:miter;stroke-opacity:1"/>
<path class="bond-9" d="M 1576.2,210.089 L 1577.22,273.733" style="fill:none;fill-rule:evenodd;stroke:#000000;stroke-width:2.0px;stroke-linecap:butt;stroke-linejoin:miter;stroke-opacity:1;stroke-dasharray:6,6"/>
<path class="bond-10" d="M 1595.62,287.081 L 1628.3,305.263" style="fill:none;fill-rule:evenodd;stroke:#000000;stroke-width:2.0px;stroke-linecap:butt;stroke-linejoin:miter;stroke-opacity:1"/>
<path class="bond-10" d="M 1628.3,305.263 L 1660.99,323.445" style="fill:none;fill-rule:evenodd;stroke:#FF0000;stroke-width:2.0px;stroke-linecap:butt;stroke-linejoin:miter;stroke-opacity:1"/>
<path class="bond-11" d="M 1689.18,322.846 L 1721.14,303.709" style="fill:none;fill-rule:evenodd;stroke:#FF0000;stroke-width:2.0px;stroke-linecap:butt;stroke-linejoin:miter;stroke-opacity:1"/>
<path class="bond-11" d="M 1721.14,303.709 L 1753.1,284.571" style="fill:none;fill-rule:evenodd;stroke:#000000;stroke-width:2.0px;stroke-linecap:butt;stroke-linejoin:miter;stroke-opacity:1"/>
<path class="bond-12" d="M 1753.1,284.571 L 1832.56,328.776" style="fill:none;fill-rule:evenodd;stroke:#000000;stroke-width:2.0px;stroke-linecap:butt;stroke-linejoin:miter;stroke-opacity:1"/>
<path class="bond-12" d="M 1773.86,275.309 L 1829.48,306.253" style="fill:none;fill-rule:evenodd;stroke:#000000;stroke-width:2.0px;stroke-linecap:butt;stroke-linejoin:miter;stroke-opacity:1;stroke-dasharray:6,6"/>
<path class="bond-18" d="M 1753.1,284.571 L 1751.65,193.652" style="fill:none;fill-rule:evenodd;stroke:#000000;stroke-width:2.0px;stroke-linecap:butt;stroke-linejoin:miter;stroke-opacity:1"/>
<path class="bond-18" d="M 1771.06,270.644 L 1770.05,207" style="fill:none;fill-rule:evenodd;stroke:#000000;stroke-width:2.0px;stroke-linecap:butt;stroke-linejoin:miter;stroke-opacity:1;stroke-dasharray:6,6"/>
<path class="bond-13" d="M 1832.56,328.776 L 1910.57,282.062" style="fill:none;fill-rule:evenodd;stroke:#000000;stroke-width:2.0px;stroke-linecap:butt;stroke-linejoin:miter;stroke-opacity:1"/>
<path class="bond-13" d="M 1834.92,306.166 L 1889.53,273.466" style="fill:none;fill-rule:evenodd;stroke:#000000;stroke-width:2.0px;stroke-linecap:butt;stroke-linejoin:miter;stroke-opacity:1;stroke-dasharray:6,6"/>
<path class="bond-14" d="M 1910.57,282.062 L 1909.12,191.143" style="fill:none;fill-rule:evenodd;stroke:#000000;stroke-width:2.0px;stroke-linecap:butt;stroke-linejoin:miter;stroke-opacity:1"/>
<path class="bond-14" d="M 1892.17,268.714 L 1891.16,205.07" style="fill:none;fill-rule:evenodd;stroke:#000000;stroke-width:2.0px;stroke-linecap:butt;stroke-linejoin:miter;stroke-opacity:1;stroke-dasharray:6,6"/>
<path class="bond-15" d="M 1909.12,191.143 L 1829.66,146.938" style="fill:none;fill-rule:evenodd;stroke:#000000;stroke-width:2.0px;stroke-linecap:butt;stroke-linejoin:miter;stroke-opacity:1"/>
<path class="bond-15" d="M 1888.36,200.405 L 1832.74,169.461" style="fill:none;fill-rule:evenodd;stroke:#000000;stroke-width:2.0px;stroke-linecap:butt;stroke-linejoin:miter;stroke-opacity:1;stroke-dasharray:6,6"/>
<path class="bond-16" d="M 1829.66,146.938 L 1751.65,193.652" style="fill:none;fill-rule:evenodd;stroke:#000000;stroke-width:2.0px;stroke-linecap:butt;stroke-linejoin:miter;stroke-opacity:1"/>
<path class="bond-16" d="M 1827.3,169.548 L 1772.69,202.248" style="fill:none;fill-rule:evenodd;stroke:#000000;stroke-width:2.0px;stroke-linecap:butt;stroke-linejoin:miter;stroke-opacity:1;stroke-dasharray:6,6"/>
<path class="bond-19" d="M 2471.34,459.087 L 2498.41,372.28" style="fill:none;fill-rule:evenodd;stroke:#000000;stroke-width:2.0px;stroke-linecap:butt;stroke-linejoin:miter;stroke-opacity:1"/>
<path class="bond-20" d="M 2505.1,366.116 L 2481.32,340.334" style="fill:none;fill-rule:evenodd;stroke:#000000;stroke-width:2.0px;stroke-linecap:butt;stroke-linejoin:miter;stroke-opacity:1"/>
<path class="bond-20" d="M 2481.32,340.334 L 2457.55,314.552" style="fill:none;fill-rule:evenodd;stroke:#FF0000;stroke-width:2.0px;stroke-linecap:butt;stroke-linejoin:miter;stroke-opacity:1"/>
<path class="bond-20" d="M 2491.73,378.444 L 2467.95,352.662" style="fill:none;fill-rule:evenodd;stroke:#000000;stroke-width:2.0px;stroke-linecap:butt;stroke-linejoin:miter;stroke-opacity:1"/>
<path class="bond-20" d="M 2467.95,352.662 L 2444.18,326.879" style="fill:none;fill-rule:evenodd;stroke:#FF0000;stroke-width:2.0px;stroke-linecap:butt;stroke-linejoin:miter;stroke-opacity:1"/>
<path class="bond-21" d="M 2498.41,372.28 L 2536.75,363.657" style="fill:none;fill-rule:evenodd;stroke:#000000;stroke-width:2.0px;stroke-linecap:butt;stroke-linejoin:miter;stroke-opacity:1"/>
<path class="bond-21" d="M 2536.75,363.657 L 2575.09,355.033" style="fill:none;fill-rule:evenodd;stroke:#0000FF;stroke-width:2.0px;stroke-linecap:butt;stroke-linejoin:miter;stroke-opacity:1"/>
<path class="bond-22" d="M 2591.85,337.176 L 2603.03,301.347" style="fill:none;fill-rule:evenodd;stroke:#0000FF;stroke-width:2.0px;stroke-linecap:butt;stroke-linejoin:miter;stroke-opacity:1"/>
<path class="bond-22" d="M 2603.03,301.347 L 2614.2,265.519" style="fill:none;fill-rule:evenodd;stroke:#000000;stroke-width:2.0px;stroke-linecap:butt;stroke-linejoin:miter;stroke-opacity:1"/>
<path class="bond-23" d="M 2614.2,265.519 L 2552.56,198.668" style="fill:none;fill-rule:evenodd;stroke:#000000;stroke-width:2.0px;stroke-linecap:butt;stroke-linejoin:miter;stroke-opacity:1"/>
<path class="bond-23" d="M 2618.33,243.163 L 2575.18,196.368" style="fill:none;fill-rule:evenodd;stroke:#000000;stroke-width:2.0px;stroke-linecap:butt;stroke-linejoin:miter;stroke-opacity:1;stroke-dasharray:6,6"/>
<path class="bond-36" d="M 2614.2,265.519 L 2702.91,245.563" style="fill:none;fill-rule:evenodd;stroke:#000000;stroke-width:2.0px;stroke-linecap:butt;stroke-linejoin:miter;stroke-opacity:1"/>
<path class="bond-36" d="M 2623.52,244.782 L 2685.62,230.814" style="fill:none;fill-rule:evenodd;stroke:#000000;stroke-width:2.0px;stroke-linecap:butt;stroke-linejoin:miter;stroke-opacity:1;stroke-dasharray:6,6"/>
<path class="bond-24" d="M 2552.56,198.668 L 2579.64,111.862" style="fill:none;fill-rule:evenodd;stroke:#000000;stroke-width:2.0px;stroke-linecap:butt;stroke-linejoin:miter;stroke-opacity:1"/>
<path class="bond-24" d="M 2573.98,191.062 L 2592.94,130.297" style="fill:none;fill-rule:evenodd;stroke:#000000;stroke-width:2.0px;stroke-linecap:butt;stroke-linejoin:miter;stroke-opacity:1;stroke-dasharray:6,6"/>
<path class="bond-25" d="M 2579.64,111.862 L 2555.86,86.0792" style="fill:none;fill-rule:evenodd;stroke:#000000;stroke-width:2.0px;stroke-linecap:butt;stroke-linejoin:miter;stroke-opacity:1"/>
<path class="bond-25" d="M 2555.86,86.0792 L 2532.09,60.2968" style="fill:none;fill-rule:evenodd;stroke:#FF0000;stroke-width:2.0px;stroke-linecap:butt;stroke-linejoin:miter;stroke-opacity:1"/>
<path class="bond-26" d="M 2579.64,111.862 L 2668.35,91.906" style="fill:none;fill-rule:evenodd;stroke:#000000;stroke-width:2.0px;stroke-linecap:butt;stroke-linejoin:miter;stroke-opacity:1"/>
<path class="bond-26" d="M 2596.94,126.611 L 2659.03,112.642" style="fill:none;fill-rule:evenodd;stroke:#000000;stroke-width:2.0px;stroke-linecap:butt;stroke-linejoin:miter;stroke-opacity:1;stroke-dasharray:6,6"/>
<path class="bond-27" d="M 2668.35,91.906 L 2729.99,158.757" style="fill:none;fill-rule:evenodd;stroke:#000000;stroke-width:2.0px;stroke-linecap:butt;stroke-linejoin:miter;stroke-opacity:1"/>
<path class="bond-27" d="M 2664.23,114.261 L 2707.37,161.057" style="fill:none;fill-rule:evenodd;stroke:#000000;stroke-width:2.0px;stroke-linecap:butt;stroke-linejoin:miter;stroke-opacity:1;stroke-dasharray:6,6"/>
<path class="bond-28" d="M 2729.99,158.757 L 2702.91,245.563" style="fill:none;fill-rule:evenodd;stroke:#000000;stroke-width:2.0px;stroke-linecap:butt;stroke-linejoin:miter;stroke-opacity:1"/>
<path class="bond-28" d="M 2708.57,166.363 L 2689.61,227.127" style="fill:none;fill-rule:evenodd;stroke:#000000;stroke-width:2.0px;stroke-linecap:butt;stroke-linejoin:miter;stroke-opacity:1;stroke-dasharray:6,6"/>
<path class="bond-29" d="M 2702.91,245.563 L 2726.69,271.345" style="fill:none;fill-rule:evenodd;stroke:#000000;stroke-width:2.0px;stroke-linecap:butt;stroke-linejoin:miter;stroke-opacity:1"/>
<path class="bond-29" d="M 2726.69,271.345 L 2750.46,297.128" style="fill:none;fill-rule:evenodd;stroke:#FF0000;stroke-width:2.0px;stroke-linecap:butt;stroke-linejoin:miter;stroke-opacity:1"/>
<path class="bond-30" d="M 2778.65,309.243 L 2815.96,300.851" style="fill:none;fill-rule:evenodd;stroke:#FF0000;stroke-width:2.0px;stroke-linecap:butt;stroke-linejoin:miter;stroke-opacity:1"/>
<path class="bond-30" d="M 2815.96,300.851 L 2853.27,292.458" style="fill:none;fill-rule:evenodd;stroke:#000000;stroke-width:2.0px;stroke-linecap:butt;stroke-linejoin:miter;stroke-opacity:1"/>
<path class="bond-31" d="M 2853.27,292.458 L 2914.91,359.309" style="fill:none;fill-rule:evenodd;stroke:#000000;stroke-width:2.0px;stroke-linecap:butt;stroke-linejoin:miter;stroke-opacity:1"/>
<path class="bond-31" d="M 2875.88,290.158 L 2919.03,336.953" style="fill:none;fill-rule:evenodd;stroke:#000000;stroke-width:2.0px;stroke-linecap:butt;stroke-linejoin:miter;stroke-opacity:1;stroke-dasharray:6,6"/>
<path class="bond-37" d="M 2853.27,292.458 L 2880.34,205.652" style="fill:none;fill-rule:evenodd;stroke:#000000;stroke-width:2.0px;stroke-linecap:butt;stroke-linejoin:miter;stroke-opacity:1"/>
<path class="bond-37" d="M 2874.69,284.852 L 2893.64,224.088" style="fill:none;fill-rule:evenodd;stroke:#000000;stroke-width:2.0px;stroke-linecap:butt;stroke-linejoin:miter;stroke-opacity:1;stroke-dasharray:6,6"/>
<path class="bond-32" d="M 2914.91,359.309 L 3003.62,339.353" style="fill:none;fill-rule:evenodd;stroke:#000000;stroke-width:2.0px;stroke-linecap:butt;stroke-linejoin:miter;stroke-opacity:1"/>
<path class="bond-32" d="M 2924.22,338.573 L 2986.32,324.604" style="fill:none;fill-rule:evenodd;stroke:#000000;stroke-width:2.0px;stroke-linecap:butt;stroke-linejoin:miter;stroke-opacity:1;stroke-dasharray:6,6"/>
<path class="bond-33" d="M 3003.62,339.353 L 3030.7,252.547" style="fill:none;fill-rule:evenodd;stroke:#000000;stroke-width:2.0px;stroke-linecap:butt;stroke-linejoin:miter;stroke-opacity:1"/>
<path class="bond-33" d="M 2990.32,320.917 L 3009.27,260.153" style="fill:none;fill-rule:evenodd;stroke:#000000;stroke-width:2.0px;stroke-linecap:butt;stroke-linejoin:miter;stroke-opacity:1;stroke-dasharray:6,6"/>
<path class="bond-34" d="M 3030.7,252.547 L 2969.06,185.696" style="fill:none;fill-rule:evenodd;stroke:#000000;stroke-width:2.0px;stroke-linecap:butt;stroke-linejoin:miter;stroke-opacity:1"/>
<path class="bond-34" d="M 3008.08,254.847 L 2964.93,208.052" style="fill:none;fill-rule:evenodd;stroke:#000000;stroke-width:2.0px;stroke-linecap:butt;stroke-linejoin:miter;stroke-opacity:1;stroke-dasharray:6,6"/>
<path class="bond-35" d="M 2969.06,185.696 L 2880.34,205.652" style="fill:none;fill-rule:evenodd;stroke:#000000;stroke-width:2.0px;stroke-linecap:butt;stroke-linejoin:miter;stroke-opacity:1"/>
<path class="bond-35" d="M 2959.74,206.432 L 2897.64,220.401" style="fill:none;fill-rule:evenodd;stroke:#000000;stroke-width:2.0px;stroke-linecap:butt;stroke-linejoin:miter;stroke-opacity:1;stroke-dasharray:6,6"/>
<path class="bond-38" d="M 2094.63,107.948 L 2130.06,128.407" style="fill:none;fill-rule:evenodd;stroke:#000000;stroke-width:2.0px;stroke-linecap:butt;stroke-linejoin:miter;stroke-opacity:1"/>
<path class="bond-39" d="M 2124.61,128.407 L 2124.61,141.845" style="fill:none;fill-rule:evenodd;stroke:#000000;stroke-width:2.0px;stroke-linecap:butt;stroke-linejoin:miter;stroke-opacity:1"/>
<path class="bond-39" d="M 2124.61,141.845 L 2124.61,155.282" style="fill:none;fill-rule:evenodd;stroke:#FF0000;stroke-width:2.0px;stroke-linecap:butt;stroke-linejoin:miter;stroke-opacity:1"/>
<path class="bond-39" d="M 2135.52,128.407 L 2135.52,141.845" style="fill:none;fill-rule:evenodd;stroke:#000000;stroke-width:2.0px;stroke-linecap:butt;stroke-linejoin:miter;stroke-opacity:1"/>
<path class="bond-39" d="M 2135.52,141.845 L 2135.52,155.282" style="fill:none;fill-rule:evenodd;stroke:#FF0000;stroke-width:2.0px;stroke-linecap:butt;stroke-linejoin:miter;stroke-opacity:1"/>
<path class="bond-40" d="M 2130.06,128.407 L 2141.36,121.885" style="fill:none;fill-rule:evenodd;stroke:#000000;stroke-width:2.0px;stroke-linecap:butt;stroke-linejoin:miter;stroke-opacity:1"/>
<path class="bond-40" d="M 2141.36,121.885 L 2152.66,115.363" style="fill:none;fill-rule:evenodd;stroke:#FF0000;stroke-width:2.0px;stroke-linecap:butt;stroke-linejoin:miter;stroke-opacity:1"/>
<path class="bond-41" d="M 2178.34,115.363 L 2189.64,121.885" style="fill:none;fill-rule:evenodd;stroke:#FF0000;stroke-width:2.0px;stroke-linecap:butt;stroke-linejoin:miter;stroke-opacity:1"/>
<path class="bond-41" d="M 2189.64,121.885 L 2200.94,128.407" style="fill:none;fill-rule:evenodd;stroke:#000000;stroke-width:2.0px;stroke-linecap:butt;stroke-linejoin:miter;stroke-opacity:1"/>
<path class="bond-42" d="M 2200.94,128.407 L 2236.37,107.948" style="fill:none;fill-rule:evenodd;stroke:#000000;stroke-width:2.0px;stroke-linecap:butt;stroke-linejoin:miter;stroke-opacity:1"/>
<path class="bond-43" d="M 2195.48,128.407 L 2195.48,141.845" style="fill:none;fill-rule:evenodd;stroke:#000000;stroke-width:2.0px;stroke-linecap:butt;stroke-linejoin:miter;stroke-opacity:1"/>
<path class="bond-43" d="M 2195.48,141.845 L 2195.48,155.282" style="fill:none;fill-rule:evenodd;stroke:#FF0000;stroke-width:2.0px;stroke-linecap:butt;stroke-linejoin:miter;stroke-opacity:1"/>
<path class="bond-43" d="M 2206.39,128.407 L 2206.39,141.845" style="fill:none;fill-rule:evenodd;stroke:#000000;stroke-width:2.0px;stroke-linecap:butt;stroke-linejoin:miter;stroke-opacity:1"/>
<path class="bond-43" d="M 2206.39,141.845 L 2206.39,155.282" style="fill:none;fill-rule:evenodd;stroke:#FF0000;stroke-width:2.0px;stroke-linecap:butt;stroke-linejoin:miter;stroke-opacity:1"/>
<path class="atom-0" d="M 1103.59 298.529 Q 1103.59 292.346, 1106.65 288.89 Q 1109.71 285.435, 1115.42 285.435 Q 1121.13 285.435, 1124.18 288.89 Q 1127.24 292.346, 1127.24 298.529 Q 1127.24 304.785, 1124.15 308.349 Q 1121.05 311.877, 1115.42 311.877 Q 1109.74 311.877, 1106.65 308.349 Q 1103.59 304.821, 1103.59 298.529 M 1115.42 308.968 Q 1119.34 308.968, 1121.45 306.349 Q 1123.6 303.694, 1123.6 298.529 Q 1123.6 293.473, 1121.45 290.927 Q 1119.34 288.345, 1115.42 288.345 Q 1111.49 288.345, 1109.34 290.891 Q 1107.23 293.437, 1107.23 298.529 Q 1107.23 303.73, 1109.34 306.349 Q 1111.49 308.968, 1115.42 308.968 " fill="#FF0000"/>
<path class="atom-0" d="M 1130.33 285.726 L 1133.82 285.726 L 1133.82 296.674 L 1146.99 296.674 L 1146.99 285.726 L 1150.48 285.726 L 1150.48 311.477 L 1146.99 311.477 L 1146.99 299.584 L 1133.82 299.584 L 1133.82 311.477 L 1130.33 311.477 L 1130.33 285.726 " fill="#FF0000"/>
<path class="atom-3" d="M 1024.85 162.133 Q 1024.85 155.95, 1027.9 152.494 Q 1030.96 149.039, 1036.67 149.039 Q 1042.38 149.039, 1045.43 152.494 Q 1048.49 155.95, 1048.49 162.133 Q 1048.49 168.389, 1045.4 171.953 Q 1042.31 175.482, 1036.67 175.482 Q 1030.99 175.482, 1027.9 171.953 Q 1024.85 168.425, 1024.85 162.133 M 1036.67 172.572 Q 1040.6 172.572, 1042.71 169.953 Q 1044.85 167.298, 1044.85 162.133 Q 1044.85 157.077, 1042.71 154.531 Q 1040.6 151.949, 1036.67 151.949 Q 1032.74 151.949, 1030.59 154.495 Q 1028.48 157.041, 1028.48 162.133 Q 1028.48 167.334, 1030.59 169.953 Q 1032.74 172.572, 1036.67 172.572 " fill="#FF0000"/>
<path class="atom-4" d="M 1513.36 411.838 L 1521.8 425.478 Q 1522.64 426.824, 1523.98 429.26 Q 1525.33 431.697, 1525.4 431.843 L 1525.4 411.838 L 1528.82 411.838 L 1528.82 437.59 L 1525.29 437.59 L 1516.23 422.677 Q 1515.18 420.931, 1514.05 418.931 Q 1512.96 416.93, 1512.63 416.312 L 1512.63 437.59 L 1509.29 437.59 L 1509.29 411.838 L 1513.36 411.838 " fill="#0000FF"/>
<path class="atom-4" d="M 1531.91 411.838 L 1535.4 411.838 L 1535.4 422.786 L 1548.57 422.786 L 1548.57 411.838 L 1552.06 411.838 L 1552.06 437.59 L 1548.57 437.59 L 1548.57 425.696 L 1535.4 425.696 L 1535.4 437.59 L 1531.91 437.59 L 1531.91 411.838 " fill="#0000FF"/>
<path class="atom-4" d="M 1553.31 436.686 Q 1553.93 435.078, 1555.42 434.19 Q 1556.91 433.277, 1558.98 433.277 Q 1561.54 433.277, 1562.98 434.67 Q 1564.42 436.062, 1564.42 438.535 Q 1564.42 441.055, 1562.55 443.408 Q 1560.7 445.76, 1556.86 448.545 L 1564.71 448.545 L 1564.71 450.466 L 1553.26 450.466 L 1553.26 448.857 Q 1556.43 446.601, 1558.3 444.92 Q 1560.2 443.24, 1561.11 441.727 Q 1562.02 440.215, 1562.02 438.655 Q 1562.02 437.022, 1561.21 436.11 Q 1560.39 435.198, 1558.98 435.198 Q 1557.61 435.198, 1556.69 435.75 Q 1555.78 436.302, 1555.13 437.526 L 1553.31 436.686 " fill="#0000FF"/>
<path class="atom-8" d="M 1323.44 141.736 L 1326.93 141.736 L 1326.93 152.684 L 1340.1 152.684 L 1340.1 141.736 L 1343.59 141.736 L 1343.59 167.487 L 1340.1 167.487 L 1340.1 155.594 L 1326.93 155.594 L 1326.93 167.487 L 1323.44 167.487 L 1323.44 141.736 " fill="#FF0000"/>
<path class="atom-8" d="M 1345.41 154.539 Q 1345.41 148.356, 1348.47 144.9 Q 1351.52 141.445, 1357.23 141.445 Q 1362.94 141.445, 1366 144.9 Q 1369.05 148.356, 1369.05 154.539 Q 1369.05 160.795, 1365.96 164.359 Q 1362.87 167.887, 1357.23 167.887 Q 1351.56 167.887, 1348.47 164.359 Q 1345.41 160.831, 1345.41 154.539 M 1357.23 164.978 Q 1361.16 164.978, 1363.27 162.359 Q 1365.41 159.704, 1365.41 154.539 Q 1365.41 149.483, 1363.27 146.937 Q 1361.16 144.355, 1357.23 144.355 Q 1353.3 144.355, 1351.16 146.901 Q 1349.05 149.447, 1349.05 154.539 Q 1349.05 159.74, 1351.16 162.359 Q 1353.3 164.978, 1357.23 164.978 " fill="#FF0000"/>
<path class="atom-12" d="M 1663.26 331.358 Q 1663.26 325.175, 1666.32 321.72 Q 1669.37 318.264, 1675.08 318.264 Q 1680.79 318.264, 1683.85 321.72 Q 1686.9 325.175, 1686.9 331.358 Q 1686.9 337.614, 1683.81 341.179 Q 1680.72 344.707, 1675.08 344.707 Q 1669.41 344.707, 1666.32 341.179 Q 1663.26 337.651, 1663.26 331.358 M 1675.08 341.797 Q 1679.01 341.797, 1681.12 339.178 Q 1683.27 336.523, 1683.27 331.358 Q 1683.27 326.302, 1681.12 323.756 Q 1679.01 321.174, 1675.08 321.174 Q 1671.15 321.174, 1669.01 323.72 Q 1666.9 326.266, 1666.9 331.358 Q 1666.9 336.559, 1669.01 339.178 Q 1671.15 341.797, 1675.08 341.797 " fill="#FF0000"/>
<path class="atom-21" d="M 2424.95 305.502 Q 2424.95 299.319, 2428.01 295.864 Q 2431.06 292.408, 2436.77 292.408 Q 2442.48 292.408, 2445.54 295.864 Q 2448.59 299.319, 2448.59 305.502 Q 2448.59 311.758, 2445.5 315.323 Q 2442.41 318.851, 2436.77 318.851 Q 2431.1 318.851, 2428.01 315.323 Q 2424.95 311.795, 2424.95 305.502 M 2436.77 315.941 Q 2440.7 315.941, 2442.81 313.322 Q 2444.96 310.667, 2444.96 305.502 Q 2444.96 300.447, 2442.81 297.901 Q 2440.7 295.318, 2436.77 295.318 Q 2432.84 295.318, 2430.7 297.864 Q 2428.59 300.41, 2428.59 305.502 Q 2428.59 310.704, 2430.7 313.322 Q 2432.84 315.941, 2436.77 315.941 " fill="#FF0000"/>
<path class="atom-22" d="M 2581.43 339.449 L 2589.87 353.089 Q 2590.71 354.434, 2592.05 356.871 Q 2593.4 359.308, 2593.47 359.454 L 2593.47 339.449 L 2596.89 339.449 L 2596.89 365.201 L 2593.36 365.201 L 2584.31 350.288 Q 2583.25 348.542, 2582.12 346.542 Q 2581.03 344.541, 2580.71 343.923 L 2580.71 365.201 L 2577.36 365.201 L 2577.36 339.449 L 2581.43 339.449 " fill="#0000FF"/>
<path class="atom-22" d="M 2599.98 339.449 L 2603.48 339.449 L 2603.48 350.397 L 2616.64 350.397 L 2616.64 339.449 L 2620.13 339.449 L 2620.13 365.201 L 2616.64 365.201 L 2616.64 353.307 L 2603.48 353.307 L 2603.48 365.201 L 2599.98 365.201 L 2599.98 339.449 " fill="#0000FF"/>
<path class="atom-26" d="M 2484.21 32.2806 L 2487.7 32.2806 L 2487.7 43.2286 L 2500.87 43.2286 L 2500.87 32.2806 L 2504.36 32.2806 L 2504.36 58.0321 L 2500.87 58.0321 L 2500.87 46.1384 L 2487.7 46.1384 L 2487.7 58.0321 L 2484.21 58.0321 L 2484.21 32.2806 " fill="#FF0000"/>
<path class="atom-26" d="M 2506.18 45.0836 Q 2506.18 38.9003, 2509.23 35.4449 Q 2512.29 31.9896, 2518 31.9896 Q 2523.71 31.9896, 2526.76 35.4449 Q 2529.82 38.9003, 2529.82 45.0836 Q 2529.82 51.3396, 2526.73 54.9041 Q 2523.64 58.4322, 2518 58.4322 Q 2512.32 58.4322, 2509.23 54.9041 Q 2506.18 51.376, 2506.18 45.0836 M 2518 55.5224 Q 2521.93 55.5224, 2524.04 52.9036 Q 2526.18 50.2484, 2526.18 45.0836 Q 2526.18 40.0278, 2524.04 37.4818 Q 2521.93 34.8994, 2518 34.8994 Q 2514.07 34.8994, 2511.92 37.4454 Q 2509.81 39.9915, 2509.81 45.0836 Q 2509.81 50.2848, 2511.92 52.9036 Q 2514.07 55.5224, 2518 55.5224 " fill="#FF0000"/>
<path class="atom-30" d="M 2752.73 312.486 Q 2752.73 306.303, 2755.79 302.848 Q 2758.84 299.392, 2764.55 299.392 Q 2770.26 299.392, 2773.32 302.848 Q 2776.37 306.303, 2776.37 312.486 Q 2776.37 318.742, 2773.28 322.307 Q 2770.19 325.835, 2764.55 325.835 Q 2758.88 325.835, 2755.79 322.307 Q 2752.73 318.779, 2752.73 312.486 M 2764.55 322.925 Q 2768.48 322.925, 2770.59 320.306 Q 2772.74 317.651, 2772.74 312.486 Q 2772.74 307.431, 2770.59 304.885 Q 2768.48 302.302, 2764.55 302.302 Q 2760.63 302.302, 2758.48 304.848 Q 2756.37 307.394, 2756.37 312.486 Q 2756.37 317.688, 2758.48 320.306 Q 2760.63 322.925, 2764.55 322.925 " fill="#FF0000"/>
<path class="atom-39" d="M 2118.24 169.399 Q 2118.24 163.216, 2121.3 159.76 Q 2124.35 156.305, 2130.06 156.305 Q 2135.77 156.305, 2138.83 159.76 Q 2141.88 163.216, 2141.88 169.399 Q 2141.88 175.655, 2138.79 179.219 Q 2135.7 182.747, 2130.06 182.747 Q 2124.39 182.747, 2121.3 179.219 Q 2118.24 175.691, 2118.24 169.399 M 2130.06 179.838 Q 2133.99 179.838, 2136.1 177.219 Q 2138.25 174.564, 2138.25 169.399 Q 2138.25 164.343, 2136.1 161.797 Q 2133.99 159.215, 2130.06 159.215 Q 2126.14 159.215, 2123.99 161.761 Q 2121.88 164.307, 2121.88 169.399 Q 2121.88 174.6, 2123.99 177.219 Q 2126.14 179.838, 2130.06 179.838 " fill="#FF0000"/>
<path class="atom-40" d="M 2153.68 108.021 Q 2153.68 101.837, 2156.73 98.382 Q 2159.79 94.9267, 2165.5 94.9267 Q 2171.21 94.9267, 2174.27 98.382 Q 2177.32 101.837, 2177.32 108.021 Q 2177.32 114.277, 2174.23 117.841 Q 2171.14 121.369, 2165.5 121.369 Q 2159.83 121.369, 2156.73 117.841 Q 2153.68 114.313, 2153.68 108.021 M 2165.5 118.46 Q 2169.43 118.46, 2171.54 115.841 Q 2173.68 113.186, 2173.68 108.021 Q 2173.68 102.965, 2171.54 100.419 Q 2169.43 97.8365, 2165.5 97.8365 Q 2161.57 97.8365, 2159.43 100.383 Q 2157.32 102.929, 2157.32 108.021 Q 2157.32 113.222, 2159.43 115.841 Q 2161.57 118.46, 2165.5 118.46 " fill="#FF0000"/>
<path class="atom-43" d="M 2189.12 169.399 Q 2189.12 163.216, 2192.17 159.76 Q 2195.23 156.305, 2200.94 156.305 Q 2206.65 156.305, 2209.7 159.76 Q 2212.76 163.216, 2212.76 169.399 Q 2212.76 175.655, 2209.67 179.219 Q 2206.58 182.747, 2200.94 182.747 Q 2195.26 182.747, 2192.17 179.219 Q 2189.12 175.691, 2189.12 169.399 M 2200.94 179.838 Q 2204.87 179.838, 2206.98 177.219 Q 2209.12 174.564, 2209.12 169.399 Q 2209.12 164.343, 2206.98 161.797 Q 2204.87 159.215, 2200.94 159.215 Q 2197.01 159.215, 2194.86 161.761 Q 2192.75 164.307, 2192.75 169.399 Q 2192.75 174.6, 2194.86 177.219 Q 2197.01 179.838, 2200.94 179.838 " fill="#FF0000"/>
<path class="note" d="M 1032.37 264.218 Q 1032.84 262.999, 1033.97 262.326 Q 1035.09 261.635, 1036.66 261.635 Q 1038.6 261.635, 1039.7 262.69 Q 1040.79 263.745, 1040.79 265.618 Q 1040.79 267.528, 1039.37 269.31 Q 1037.97 271.092, 1035.06 273.202 L 1041.01 273.202 L 1041.01 274.657 L 1032.33 274.657 L 1032.33 273.438 Q 1034.73 271.729, 1036.15 270.456 Q 1037.59 269.183, 1038.28 268.037 Q 1038.97 266.891, 1038.97 265.709 Q 1038.97 264.472, 1038.35 263.781 Q 1037.73 263.09, 1036.66 263.09 Q 1035.62 263.09, 1034.93 263.508 Q 1034.24 263.927, 1033.75 264.854 L 1032.37 264.218 " fill="#000000"/>
<path class="note" d="M 962.323 316.6 L 965.142 316.6 L 965.142 306.98 L 962.033 307.944 L 961.614 306.871 L 965.561 305.107 L 966.852 305.325 L 966.852 316.6 L 969.38 316.6 L 969.38 318.055 L 962.323 318.055 L 962.323 316.6 " fill="#000000"/>
<path class="note" d="M 1038.52 131.477 Q 1039.78 131.841, 1040.38 132.659 Q 1041 133.459, 1041 134.732 Q 1041 135.824, 1040.45 136.678 Q 1039.9 137.515, 1038.9 137.988 Q 1037.9 138.442, 1036.59 138.442 Q 1035.21 138.442, 1034.18 137.97 Q 1033.16 137.479, 1032.34 136.497 L 1033.38 135.442 Q 1034.18 136.315, 1034.85 136.66 Q 1035.52 136.988, 1036.59 136.988 Q 1037.76 136.988, 1038.47 136.369 Q 1039.18 135.733, 1039.18 134.714 Q 1039.18 133.405, 1038.43 132.823 Q 1037.7 132.223, 1036.12 132.223 L 1035.19 132.223 L 1035.19 130.913 L 1036.01 130.913 Q 1037.41 130.895, 1038.16 130.295 Q 1038.9 129.677, 1038.9 128.531 Q 1038.9 127.694, 1038.29 127.203 Q 1037.67 126.694, 1036.61 126.694 Q 1035.54 126.694, 1034.87 127.076 Q 1034.21 127.458, 1033.7 128.422 L 1032.45 127.749 Q 1032.9 126.676, 1033.99 125.967 Q 1035.09 125.239, 1036.61 125.239 Q 1038.5 125.239, 1039.61 126.13 Q 1040.72 127.022, 1040.72 128.531 Q 1040.72 129.568, 1040.16 130.313 Q 1039.6 131.059, 1038.52 131.477 " fill="#000000"/>
<path class="note" d="M 1522.95 457.039 L 1524.49 457.039 L 1524.49 458.494 L 1522.95 458.494 L 1522.95 461.458 L 1521.24 461.458 L 1521.24 458.494 L 1514.58 458.494 L 1514.58 457.348 L 1520.22 448.582 L 1522.95 448.582 L 1522.95 457.039 M 1516.69 457.039 L 1521.24 457.039 L 1521.24 449.746 L 1516.69 457.039 " fill="#000000"/>
<path class="note" d="M 1504.92 339.962 Q 1506.05 339.962, 1506.98 340.453 Q 1507.9 340.926, 1508.43 341.835 Q 1508.96 342.726, 1508.96 343.945 Q 1508.96 345.272, 1508.3 346.236 Q 1507.67 347.182, 1506.61 347.673 Q 1505.56 348.164, 1504.36 348.164 Q 1503.17 348.164, 1502.08 347.727 Q 1500.99 347.291, 1500.25 346.454 L 1501.34 345.327 Q 1501.94 345.982, 1502.76 346.345 Q 1503.57 346.691, 1504.41 346.691 Q 1505.56 346.691, 1506.34 345.982 Q 1507.14 345.272, 1507.14 343.981 Q 1507.14 342.617, 1506.34 341.981 Q 1505.56 341.326, 1504.3 341.326 Q 1503.17 341.326, 1501.92 341.817 L 1500.92 341.344 L 1501.54 335.143 L 1508.16 335.143 L 1507.98 336.598 L 1503.03 336.598 L 1502.65 340.417 Q 1503.79 339.962, 1504.92 339.962 " fill="#000000"/>
<path class="note" d="M 1425.71 295.848 Q 1426.84 295.848, 1427.73 296.339 Q 1428.62 296.83, 1429.11 297.721 Q 1429.6 298.612, 1429.6 299.74 Q 1429.6 300.995, 1429.04 301.977 Q 1428.5 302.941, 1427.51 303.486 Q 1426.53 304.032, 1425.28 304.032 Q 1422.98 304.032, 1421.82 302.486 Q 1420.68 300.922, 1420.68 297.83 Q 1420.68 294.411, 1422.09 292.647 Q 1423.53 290.865, 1426.28 290.865 Q 1427.08 290.865, 1427.75 291.047 Q 1428.44 291.229, 1429.1 291.611 L 1428.39 292.829 Q 1427.44 292.32, 1426.29 292.32 Q 1424.48 292.32, 1423.55 293.502 Q 1422.62 294.666, 1422.51 297.085 Q 1423.17 296.485, 1423.99 296.175 Q 1424.82 295.848, 1425.71 295.848 M 1425.29 302.541 Q 1425.99 302.541, 1426.55 302.177 Q 1427.13 301.813, 1427.46 301.177 Q 1427.79 300.54, 1427.79 299.758 Q 1427.79 298.612, 1427.15 297.958 Q 1426.51 297.303, 1425.39 297.303 Q 1424.6 297.303, 1423.82 297.63 Q 1423.06 297.94, 1422.51 298.485 Q 1422.58 300.613, 1423.26 301.577 Q 1423.93 302.541, 1425.29 302.541 " fill="#000000"/>
<path class="note" d="M 1426.16 201.474 L 1419.42 201.474 L 1419.42 200.019 L 1427.96 200.019 L 1427.96 201.31 L 1422.76 212.895 L 1421.02 212.895 L 1426.16 201.474 " fill="#000000"/>
<path class="note" d="M 1344.51 180.644 Q 1345.7 181.154, 1346.37 181.918 Q 1347.04 182.663, 1347.04 183.936 Q 1347.04 185.027, 1346.48 185.882 Q 1345.91 186.719, 1344.9 187.191 Q 1343.9 187.646, 1342.57 187.646 Q 1340.42 187.646, 1339.19 186.664 Q 1337.95 185.664, 1337.95 183.936 Q 1337.95 182.881, 1338.49 182.099 Q 1339.04 181.299, 1340.17 180.699 Q 1339.33 180.226, 1338.88 179.535 Q 1338.42 178.826, 1338.42 177.735 Q 1338.42 176.225, 1339.51 175.334 Q 1340.62 174.443, 1342.5 174.443 Q 1344.37 174.443, 1345.46 175.334 Q 1346.57 176.225, 1346.57 177.735 Q 1346.57 178.68, 1346.04 179.39 Q 1345.53 180.081, 1344.51 180.644 M 1342.5 175.807 Q 1341.42 175.807, 1340.82 176.316 Q 1340.24 176.825, 1340.24 177.735 Q 1340.24 178.408, 1340.64 178.862 Q 1341.04 179.299, 1341.6 179.553 Q 1342.19 179.808, 1343.3 180.19 Q 1344.08 179.644, 1344.41 179.062 Q 1344.75 178.48, 1344.75 177.735 Q 1344.75 176.825, 1344.15 176.316 Q 1343.57 175.807, 1342.5 175.807 M 1342.57 186.282 Q 1343.77 186.282, 1344.5 185.646 Q 1345.22 184.991, 1345.22 183.918 Q 1345.22 183.227, 1344.84 182.79 Q 1344.46 182.354, 1343.88 182.099 Q 1343.31 181.845, 1342.3 181.517 L 1341.48 181.245 Q 1340.57 181.79, 1340.17 182.445 Q 1339.77 183.081, 1339.77 183.918 Q 1339.77 184.991, 1340.53 185.646 Q 1341.3 186.282, 1342.57 186.282 " fill="#000000"/>
<path class="note" d="M 1514.33 130.293 Q 1516.62 130.293, 1517.77 131.857 Q 1518.93 133.403, 1518.93 136.494 Q 1518.93 139.913, 1517.49 141.696 Q 1516.08 143.46, 1513.33 143.46 Q 1512.53 143.46, 1511.84 143.278 Q 1511.16 143.096, 1510.51 142.714 L 1511.22 141.496 Q 1512.17 142.005, 1513.31 142.005 Q 1515.13 142.005, 1516.06 140.841 Q 1516.98 139.659, 1517.09 137.24 Q 1516.44 137.84, 1515.6 138.167 Q 1514.78 138.477, 1513.89 138.477 Q 1512.77 138.477, 1511.87 137.986 Q 1510.98 137.495, 1510.49 136.603 Q 1510 135.712, 1510 134.585 Q 1510 133.33, 1510.55 132.366 Q 1511.11 131.384, 1512.09 130.838 Q 1513.07 130.293, 1514.33 130.293 M 1511.82 134.567 Q 1511.82 135.712, 1512.46 136.367 Q 1513.09 137.022, 1514.22 137.022 Q 1515 137.022, 1515.77 136.713 Q 1516.55 136.385, 1517.09 135.84 Q 1517.02 133.712, 1516.35 132.748 Q 1515.68 131.784, 1514.31 131.784 Q 1513.62 131.784, 1513.04 132.148 Q 1512.47 132.512, 1512.15 133.148 Q 1511.82 133.785, 1511.82 134.567 " fill="#000000"/>
<path class="note" d="M 1607.85 185.646 L 1610.67 185.646 L 1610.67 176.025 L 1607.56 176.989 L 1607.14 175.916 L 1611.09 174.152 L 1612.38 174.37 L 1612.38 185.646 L 1614.91 185.646 L 1614.91 187.101 L 1607.85 187.101 L 1607.85 185.646 " fill="#000000"/>
<path class="note" d="M 1620.73 187.246 Q 1618.36 187.246, 1617.18 185.5 Q 1616.02 183.755, 1616.02 180.645 Q 1616.02 177.535, 1617.18 175.807 Q 1618.35 174.079, 1620.73 174.079 Q 1623.11 174.079, 1624.28 175.807 Q 1625.44 177.535, 1625.44 180.645 Q 1625.44 183.755, 1624.26 185.5 Q 1623.09 187.246, 1620.73 187.246 M 1620.73 185.791 Q 1622.13 185.791, 1622.88 184.5 Q 1623.62 183.191, 1623.62 180.645 Q 1623.62 178.117, 1622.88 176.826 Q 1622.13 175.534, 1620.73 175.534 Q 1619.35 175.534, 1618.58 176.826 Q 1617.84 178.117, 1617.84 180.645 Q 1617.84 183.191, 1618.58 184.5 Q 1619.35 185.791, 1620.73 185.791 " fill="#000000"/>
<path class="note" d="M 1610.19 276.529 L 1613.01 276.529 L 1613.01 266.908 L 1609.9 267.872 L 1609.48 266.799 L 1613.43 265.035 L 1614.72 265.253 L 1614.72 276.529 L 1617.25 276.529 L 1617.25 277.983 L 1610.19 277.983 L 1610.19 276.529 " fill="#000000"/>
<path class="note" d="M 1618.94 276.529 L 1621.76 276.529 L 1621.76 266.908 L 1618.65 267.872 L 1618.23 266.799 L 1622.18 265.035 L 1623.47 265.253 L 1623.47 276.529 L 1626 276.529 L 1626 277.983 L 1618.94 277.983 L 1618.94 276.529 " fill="#000000"/>
<path class="note" d="M 1663.72 366.648 L 1666.53 366.648 L 1666.53 357.027 L 1663.42 357.991 L 1663.01 356.918 L 1666.95 355.154 L 1668.24 355.372 L 1668.24 366.648 L 1670.77 366.648 L 1670.77 368.102 L 1663.72 368.102 L 1663.72 366.648 " fill="#000000"/>
<path class="note" d="M 1671.72 357.664 Q 1672.19 356.445, 1673.32 355.772 Q 1674.45 355.081, 1676.01 355.081 Q 1677.96 355.081, 1679.05 356.136 Q 1680.14 357.191, 1680.14 359.064 Q 1680.14 360.974, 1678.72 362.756 Q 1677.32 364.538, 1674.41 366.648 L 1680.36 366.648 L 1680.36 368.102 L 1671.68 368.102 L 1671.68 366.884 Q 1674.08 365.174, 1675.5 363.901 Q 1676.94 362.628, 1677.63 361.483 Q 1678.32 360.337, 1678.32 359.155 Q 1678.32 357.918, 1677.7 357.227 Q 1677.08 356.536, 1676.01 356.536 Q 1674.97 356.536, 1674.28 356.954 Q 1673.59 357.373, 1673.1 358.3 L 1671.72 357.664 " fill="#000000"/>
<path class="note" d="M 1733.54 276.625 L 1736.36 276.625 L 1736.36 267.004 L 1733.25 267.968 L 1732.83 266.895 L 1736.78 265.131 L 1738.07 265.349 L 1738.07 276.625 L 1740.6 276.625 L 1740.6 278.08 L 1733.54 278.08 L 1733.54 276.625 " fill="#000000"/>
<path class="note" d="M 1747.55 271.296 Q 1748.8 271.66, 1749.4 272.478 Q 1750.02 273.278, 1750.02 274.551 Q 1750.02 275.643, 1749.47 276.497 Q 1748.93 277.334, 1747.93 277.807 Q 1746.93 278.261, 1745.62 278.261 Q 1744.24 278.261, 1743.2 277.789 Q 1742.18 277.298, 1741.36 276.316 L 1742.4 275.261 Q 1743.2 276.134, 1743.87 276.479 Q 1744.55 276.807, 1745.62 276.807 Q 1746.78 276.807, 1747.49 276.188 Q 1748.2 275.552, 1748.2 274.533 Q 1748.2 273.224, 1747.46 272.642 Q 1746.73 272.042, 1745.15 272.042 L 1744.22 272.042 L 1744.22 270.732 L 1745.04 270.732 Q 1746.44 270.714, 1747.18 270.114 Q 1747.93 269.496, 1747.93 268.35 Q 1747.93 267.513, 1747.31 267.022 Q 1746.69 266.513, 1745.64 266.513 Q 1744.56 266.513, 1743.89 266.895 Q 1743.24 267.277, 1742.73 268.241 L 1741.47 267.568 Q 1741.93 266.495, 1743.02 265.786 Q 1744.11 265.058, 1745.64 265.058 Q 1747.53 265.058, 1748.64 265.949 Q 1749.75 266.841, 1749.75 268.35 Q 1749.75 269.387, 1749.18 270.132 Q 1748.62 270.878, 1747.55 271.296 " fill="#000000"/>
<path class="note" d="M 1820.51 348.949 L 1823.33 348.949 L 1823.33 339.328 L 1820.22 340.292 L 1819.81 339.219 L 1823.75 337.455 L 1825.04 337.673 L 1825.04 348.949 L 1827.57 348.949 L 1827.57 350.404 L 1820.51 350.404 L 1820.51 348.949 " fill="#000000"/>
<path class="note" d="M 1836.48 345.984 L 1838.03 345.984 L 1838.03 347.439 L 1836.48 347.439 L 1836.48 350.404 L 1834.77 350.404 L 1834.77 347.439 L 1828.12 347.439 L 1828.12 346.293 L 1833.75 337.528 L 1836.48 337.528 L 1836.48 345.984 M 1830.23 345.984 L 1834.77 345.984 L 1834.77 338.692 L 1830.23 345.984 " fill="#000000"/>
<path class="note" d="M 1913.89 286.84 L 1916.71 286.84 L 1916.71 277.219 L 1913.6 278.183 L 1913.19 277.11 L 1917.13 275.346 L 1918.42 275.564 L 1918.42 286.84 L 1920.95 286.84 L 1920.95 288.295 L 1913.89 288.295 L 1913.89 286.84 " fill="#000000"/>
<path class="note" d="M 1926.46 280.238 Q 1927.59 280.238, 1928.52 280.729 Q 1929.44 281.202, 1929.97 282.111 Q 1930.5 283.002, 1930.5 284.221 Q 1930.5 285.549, 1929.84 286.512 Q 1929.21 287.458, 1928.15 287.949 Q 1927.1 288.44, 1925.9 288.44 Q 1924.72 288.44, 1923.62 288.004 Q 1922.53 287.567, 1921.79 286.731 L 1922.88 285.603 Q 1923.48 286.258, 1924.3 286.621 Q 1925.12 286.967, 1925.95 286.967 Q 1927.1 286.967, 1927.88 286.258 Q 1928.68 285.549, 1928.68 284.257 Q 1928.68 282.893, 1927.88 282.257 Q 1927.1 281.602, 1925.84 281.602 Q 1924.72 281.602, 1923.46 282.093 L 1922.46 281.62 L 1923.08 275.419 L 1929.7 275.419 L 1929.52 276.874 L 1924.57 276.874 L 1924.19 280.693 Q 1925.33 280.238, 1926.46 280.238 " fill="#000000"/>
<path class="note" d="M 1922.99 180.627 L 1925.81 180.627 L 1925.81 171.007 L 1922.7 171.97 L 1922.28 170.897 L 1926.23 169.133 L 1927.52 169.352 L 1927.52 180.627 L 1930.04 180.627 L 1930.04 182.082 L 1922.99 182.082 L 1922.99 180.627 " fill="#000000"/>
<path class="note" d="M 1936.32 174.044 Q 1937.45 174.044, 1938.34 174.535 Q 1939.23 175.026, 1939.72 175.917 Q 1940.21 176.808, 1940.21 177.936 Q 1940.21 179.19, 1939.65 180.172 Q 1939.1 181.136, 1938.12 181.682 Q 1937.14 182.227, 1935.88 182.227 Q 1933.59 182.227, 1932.43 180.682 Q 1931.28 179.118, 1931.28 176.026 Q 1931.28 172.607, 1932.7 170.843 Q 1934.14 169.061, 1936.88 169.061 Q 1937.68 169.061, 1938.36 169.243 Q 1939.05 169.424, 1939.7 169.806 L 1938.99 171.025 Q 1938.05 170.516, 1936.9 170.516 Q 1935.08 170.516, 1934.15 171.698 Q 1933.23 172.862, 1933.12 175.28 Q 1933.77 174.68, 1934.59 174.371 Q 1935.43 174.044, 1936.32 174.044 M 1935.9 180.736 Q 1936.59 180.736, 1937.16 180.372 Q 1937.74 180.009, 1938.06 179.372 Q 1938.39 178.736, 1938.39 177.954 Q 1938.39 176.808, 1937.76 176.153 Q 1937.12 175.499, 1935.99 175.499 Q 1935.21 175.499, 1934.43 175.826 Q 1933.66 176.135, 1933.12 176.681 Q 1933.19 178.808, 1933.86 179.772 Q 1934.54 180.736, 1935.9 180.736 " fill="#000000"/>
<path class="note" d="M 1817.93 136.804 L 1820.74 136.804 L 1820.74 127.184 L 1817.63 128.147 L 1817.22 127.075 L 1821.16 125.31 L 1822.45 125.529 L 1822.45 136.804 L 1824.98 136.804 L 1824.98 138.259 L 1817.93 138.259 L 1817.93 136.804 " fill="#000000"/>
<path class="note" d="M 1832.06 126.838 L 1825.31 126.838 L 1825.31 125.383 L 1833.86 125.383 L 1833.86 126.674 L 1828.65 138.259 L 1826.91 138.259 L 1832.06 126.838 " fill="#000000"/>
<path class="note" d="M 1726.24 191.34 L 1729.05 191.34 L 1729.05 181.72 L 1725.95 182.684 L 1725.53 181.611 L 1729.47 179.847 L 1730.76 180.065 L 1730.76 191.34 L 1733.29 191.34 L 1733.29 192.795 L 1726.24 192.795 L 1726.24 191.34 " fill="#000000"/>
<path class="note" d="M 1740.98 185.976 Q 1742.17 186.485, 1742.84 187.249 Q 1743.51 187.994, 1743.51 189.267 Q 1743.51 190.358, 1742.95 191.213 Q 1742.39 192.05, 1741.37 192.523 Q 1740.37 192.977, 1739.04 192.977 Q 1736.89 192.977, 1735.66 191.995 Q 1734.42 190.995, 1734.42 189.267 Q 1734.42 188.212, 1734.97 187.43 Q 1735.51 186.63, 1736.64 186.03 Q 1735.8 185.557, 1735.35 184.866 Q 1734.89 184.157, 1734.89 183.066 Q 1734.89 181.556, 1735.98 180.665 Q 1737.09 179.774, 1738.97 179.774 Q 1740.84 179.774, 1741.93 180.665 Q 1743.04 181.556, 1743.04 183.066 Q 1743.04 184.011, 1742.51 184.721 Q 1742 185.412, 1740.98 185.976 M 1738.97 181.138 Q 1737.89 181.138, 1737.29 181.647 Q 1736.71 182.156, 1736.71 183.066 Q 1736.71 183.739, 1737.11 184.193 Q 1737.51 184.63, 1738.08 184.884 Q 1738.66 185.139, 1739.77 185.521 Q 1740.55 184.975, 1740.88 184.393 Q 1741.22 183.811, 1741.22 183.066 Q 1741.22 182.156, 1740.62 181.647 Q 1740.04 181.138, 1738.97 181.138 M 1739.04 191.613 Q 1740.24 191.613, 1740.97 190.977 Q 1741.69 190.322, 1741.69 189.249 Q 1741.69 188.558, 1741.31 188.121 Q 1740.93 187.685, 1740.35 187.43 Q 1739.78 187.176, 1738.77 186.848 L 1737.95 186.576 Q 1737.04 187.121, 1736.64 187.776 Q 1736.24 188.412, 1736.24 189.249 Q 1736.24 190.322, 1737 190.977 Q 1737.77 191.613, 1739.04 191.613 " fill="#000000"/>
<path class="note" d="M 2482.63 468.618 L 2485.45 468.618 L 2485.45 458.998 L 2482.34 459.962 L 2481.92 458.889 L 2485.87 457.125 L 2487.16 457.343 L 2487.16 468.618 L 2489.69 468.618 L 2489.69 470.073 L 2482.63 470.073 L 2482.63 468.618 " fill="#000000"/>
<path class="note" d="M 2504.38 379.494 Q 2504.86 378.275, 2505.98 377.603 Q 2507.11 376.911, 2508.68 376.911 Q 2510.62 376.911, 2511.71 377.966 Q 2512.8 379.021, 2512.8 380.894 Q 2512.8 382.804, 2511.39 384.586 Q 2509.99 386.368, 2507.08 388.478 L 2513.02 388.478 L 2513.02 389.933 L 2504.35 389.933 L 2504.35 388.714 Q 2506.75 387.005, 2508.17 385.732 Q 2509.6 384.459, 2510.29 383.313 Q 2510.99 382.167, 2510.99 380.985 Q 2510.99 379.749, 2510.37 379.057 Q 2509.75 378.366, 2508.68 378.366 Q 2507.64 378.366, 2506.95 378.785 Q 2506.26 379.203, 2505.77 380.13 L 2504.38 379.494 " fill="#000000"/>
<path class="note" d="M 2418.08 282.873 Q 2419.34 283.237, 2419.94 284.055 Q 2420.56 284.856, 2420.56 286.129 Q 2420.56 287.22, 2420.01 288.075 Q 2419.46 288.911, 2418.46 289.384 Q 2417.46 289.839, 2416.15 289.839 Q 2414.77 289.839, 2413.74 289.366 Q 2412.72 288.875, 2411.9 287.893 L 2412.94 286.838 Q 2413.74 287.711, 2414.41 288.056 Q 2415.08 288.384, 2416.15 288.384 Q 2417.32 288.384, 2418.03 287.765 Q 2418.74 287.129, 2418.74 286.11 Q 2418.74 284.801, 2417.99 284.219 Q 2417.26 283.619, 2415.68 283.619 L 2414.75 283.619 L 2414.75 282.31 L 2415.57 282.31 Q 2416.97 282.291, 2417.72 281.691 Q 2418.46 281.073, 2418.46 279.927 Q 2418.46 279.091, 2417.85 278.6 Q 2417.23 278.09, 2416.17 278.09 Q 2415.1 278.09, 2414.43 278.472 Q 2413.77 278.854, 2413.26 279.818 L 2412.01 279.145 Q 2412.46 278.072, 2413.55 277.363 Q 2414.64 276.635, 2416.17 276.635 Q 2418.06 276.635, 2419.17 277.527 Q 2420.28 278.418, 2420.28 279.927 Q 2420.28 280.964, 2419.72 281.709 Q 2419.15 282.455, 2418.08 282.873 " fill="#000000"/>
<path class="note" d="M 2611.08 376.627 L 2612.63 376.627 L 2612.63 378.082 L 2611.08 378.082 L 2611.08 381.046 L 2609.37 381.046 L 2609.37 378.082 L 2602.72 378.082 L 2602.72 376.936 L 2608.35 368.17 L 2611.08 368.17 L 2611.08 376.627 M 2604.83 376.627 L 2609.37 376.627 L 2609.37 369.334 L 2604.83 376.627 " fill="#000000"/>
<path class="note" d="M 2599.73 267.226 Q 2600.86 267.226, 2601.79 267.717 Q 2602.72 268.19, 2603.24 269.099 Q 2603.77 269.99, 2603.77 271.209 Q 2603.77 272.536, 2603.12 273.5 Q 2602.48 274.446, 2601.42 274.937 Q 2600.37 275.428, 2599.17 275.428 Q 2597.99 275.428, 2596.9 274.991 Q 2595.81 274.555, 2595.06 273.718 L 2596.15 272.591 Q 2596.75 273.245, 2597.57 273.609 Q 2598.39 273.955, 2599.22 273.955 Q 2600.37 273.955, 2601.15 273.245 Q 2601.95 272.536, 2601.95 271.245 Q 2601.95 269.881, 2601.15 269.245 Q 2600.37 268.59, 2599.12 268.59 Q 2597.99 268.59, 2596.73 269.081 L 2595.73 268.608 L 2596.35 262.407 L 2602.97 262.407 L 2602.79 263.861 L 2597.84 263.861 L 2597.46 267.681 Q 2598.61 267.226, 2599.73 267.226 " fill="#000000"/>
<path class="note" d="M 2538.35 200.466 Q 2539.48 200.466, 2540.37 200.957 Q 2541.26 201.448, 2541.75 202.339 Q 2542.24 203.23, 2542.24 204.358 Q 2542.24 205.613, 2541.68 206.595 Q 2541.13 207.559, 2540.15 208.104 Q 2539.17 208.65, 2537.91 208.65 Q 2535.62 208.65, 2534.46 207.104 Q 2533.31 205.54, 2533.31 202.448 Q 2533.31 199.029, 2534.73 197.265 Q 2536.17 195.483, 2538.91 195.483 Q 2539.71 195.483, 2540.39 195.665 Q 2541.08 195.847, 2541.73 196.229 L 2541.02 197.447 Q 2540.08 196.938, 2538.93 196.938 Q 2537.11 196.938, 2536.18 198.12 Q 2535.26 199.284, 2535.15 201.703 Q 2535.8 201.103, 2536.62 200.793 Q 2537.46 200.466, 2538.35 200.466 M 2537.93 207.159 Q 2538.62 207.159, 2539.19 206.795 Q 2539.77 206.431, 2540.09 205.795 Q 2540.42 205.158, 2540.42 204.376 Q 2540.42 203.23, 2539.79 202.576 Q 2539.15 201.921, 2538.02 201.921 Q 2537.24 201.921, 2536.46 202.248 Q 2535.69 202.558, 2535.15 203.103 Q 2535.22 205.231, 2535.89 206.195 Q 2536.57 207.159, 2537.93 207.159 " fill="#000000"/>
<path class="note" d="M 2567.32 110.204 L 2560.58 110.204 L 2560.58 108.75 L 2569.12 108.75 L 2569.12 110.041 L 2563.92 121.625 L 2562.18 121.625 L 2567.32 110.204 " fill="#000000"/>
<path class="note" d="M 2499.47 22.4181 Q 2500.65 22.9273, 2501.33 23.6911 Q 2502 24.4368, 2502 25.7098 Q 2502 26.801, 2501.43 27.6557 Q 2500.87 28.4923, 2499.85 28.9651 Q 2498.85 29.4198, 2497.52 29.4198 Q 2495.38 29.4198, 2494.14 28.4377 Q 2492.91 27.4375, 2492.91 25.7098 Q 2492.91 24.655, 2493.45 23.873 Q 2494 23.0728, 2495.12 22.4727 Q 2494.29 21.9998, 2493.83 21.3088 Q 2493.38 20.5995, 2493.38 19.5083 Q 2493.38 17.9989, 2494.47 17.1078 Q 2495.58 16.2166, 2497.45 16.2166 Q 2499.32 16.2166, 2500.42 17.1078 Q 2501.53 17.9989, 2501.53 19.5083 Q 2501.53 20.454, 2501 21.1633 Q 2500.49 21.8543, 2499.47 22.4181 M 2497.45 17.5806 Q 2496.38 17.5806, 2495.78 18.0898 Q 2495.2 18.599, 2495.2 19.5083 Q 2495.2 20.1812, 2495.6 20.6359 Q 2496 21.0723, 2496.56 21.3269 Q 2497.14 21.5815, 2498.25 21.9635 Q 2499.03 21.4179, 2499.36 20.8359 Q 2499.71 20.254, 2499.71 19.5083 Q 2499.71 18.599, 2499.11 18.0898 Q 2498.52 17.5806, 2497.45 17.5806 M 2497.52 28.0558 Q 2498.72 28.0558, 2499.45 27.4193 Q 2500.18 26.7646, 2500.18 25.6916 Q 2500.18 25.0005, 2499.8 24.5641 Q 2499.42 24.1276, 2498.83 23.873 Q 2498.27 23.6184, 2497.25 23.291 L 2496.43 23.0183 Q 2495.52 23.5638, 2495.12 24.2185 Q 2494.72 24.855, 2494.72 25.6916 Q 2494.72 26.7646, 2495.49 27.4193 Q 2496.25 28.0558, 2497.52 28.0558 " fill="#000000"/>
<path class="note" d="M 2672.73 70.9276 Q 2675.02 70.9276, 2676.16 72.4916 Q 2677.33 74.0375, 2677.33 77.1291 Q 2677.33 80.5481, 2675.89 82.3303 Q 2674.47 84.0944, 2671.73 84.0944 Q 2670.93 84.0944, 2670.24 83.9125 Q 2669.56 83.7307, 2668.91 83.3488 L 2669.62 82.1303 Q 2670.56 82.6395, 2671.71 82.6395 Q 2673.53 82.6395, 2674.45 81.4756 Q 2675.38 80.2935, 2675.49 77.8747 Q 2674.84 78.4749, 2674 78.8022 Q 2673.18 79.1114, 2672.29 79.1114 Q 2671.16 79.1114, 2670.27 78.6204 Q 2669.38 78.1293, 2668.89 77.2382 Q 2668.4 76.3471, 2668.4 75.2196 Q 2668.4 73.9647, 2668.94 73.0009 Q 2669.51 72.0188, 2670.49 71.4732 Q 2671.47 70.9276, 2672.73 70.9276 M 2670.22 75.2014 Q 2670.22 76.3471, 2670.85 77.0018 Q 2671.49 77.6565, 2672.62 77.6565 Q 2673.4 77.6565, 2674.16 77.3473 Q 2674.95 77.02, 2675.49 76.4744 Q 2675.42 74.3466, 2674.75 73.3828 Q 2674.07 72.4189, 2672.71 72.4189 Q 2672.02 72.4189, 2671.44 72.7826 Q 2670.87 73.1463, 2670.54 73.7829 Q 2670.22 74.4194, 2670.22 75.2014 " fill="#000000"/>
<path class="note" d="M 2747.24 157.161 L 2750.06 157.161 L 2750.06 147.54 L 2746.95 148.504 L 2746.53 147.431 L 2750.48 145.667 L 2751.77 145.885 L 2751.77 157.161 L 2754.3 157.161 L 2754.3 158.615 L 2747.24 158.615 L 2747.24 157.161 " fill="#000000"/>
<path class="note" d="M 2760.12 158.761 Q 2757.75 158.761, 2756.57 157.015 Q 2755.41 155.269, 2755.41 152.159 Q 2755.41 149.05, 2756.57 147.322 Q 2757.73 145.594, 2760.12 145.594 Q 2762.5 145.594, 2763.66 147.322 Q 2764.83 149.05, 2764.83 152.159 Q 2764.83 155.269, 2763.64 157.015 Q 2762.48 158.761, 2760.12 158.761 M 2760.12 157.306 Q 2761.52 157.306, 2762.26 156.015 Q 2763.01 154.705, 2763.01 152.159 Q 2763.01 149.632, 2762.26 148.34 Q 2761.52 147.049, 2760.12 147.049 Q 2758.73 147.049, 2757.97 148.34 Q 2757.22 149.632, 2757.22 152.159 Q 2757.22 154.705, 2757.97 156.015 Q 2758.73 157.306, 2760.12 157.306 " fill="#000000"/>
<path class="note" d="M 2686.97 265.05 L 2689.79 265.05 L 2689.79 255.43 L 2686.68 256.393 L 2686.26 255.32 L 2690.21 253.556 L 2691.5 253.775 L 2691.5 265.05 L 2694.03 265.05 L 2694.03 266.505 L 2686.97 266.505 L 2686.97 265.05 " fill="#000000"/>
<path class="note" d="M 2695.72 265.05 L 2698.54 265.05 L 2698.54 255.43 L 2695.43 256.393 L 2695.01 255.32 L 2698.96 253.556 L 2700.25 253.775 L 2700.25 265.05 L 2702.78 265.05 L 2702.78 266.505 L 2695.72 266.505 L 2695.72 265.05 " fill="#000000"/>
<path class="note" d="M 2743.68 346.405 L 2746.5 346.405 L 2746.5 336.784 L 2743.39 337.748 L 2742.97 336.675 L 2746.92 334.911 L 2748.21 335.129 L 2748.21 346.405 L 2750.74 346.405 L 2750.74 347.86 L 2743.68 347.86 L 2743.68 346.405 " fill="#000000"/>
<path class="note" d="M 2751.68 337.421 Q 2752.16 336.202, 2753.28 335.53 Q 2754.41 334.838, 2755.97 334.838 Q 2757.92 334.838, 2759.01 335.893 Q 2760.1 336.948, 2760.1 338.821 Q 2760.1 340.731, 2758.68 342.513 Q 2757.28 344.295, 2754.37 346.405 L 2760.32 346.405 L 2760.32 347.86 L 2751.65 347.86 L 2751.65 346.641 Q 2754.05 344.932, 2755.47 343.659 Q 2756.9 342.386, 2757.59 341.24 Q 2758.28 340.094, 2758.28 338.912 Q 2758.28 337.675, 2757.67 336.984 Q 2757.05 336.293, 2755.97 336.293 Q 2754.94 336.293, 2754.25 336.712 Q 2753.56 337.13, 2753.06 338.057 L 2751.68 337.421 " fill="#000000"/>
<path class="note" d="M 2836.99 311.982 L 2839.81 311.982 L 2839.81 302.361 L 2836.7 303.325 L 2836.28 302.252 L 2840.23 300.488 L 2841.52 300.706 L 2841.52 311.982 L 2844.04 311.982 L 2844.04 313.436 L 2836.99 313.436 L 2836.99 311.982 " fill="#000000"/>
<path class="note" d="M 2850.99 306.653 Q 2852.25 307.017, 2852.85 307.835 Q 2853.47 308.635, 2853.47 309.908 Q 2853.47 311, 2852.92 311.854 Q 2852.37 312.691, 2851.37 313.164 Q 2850.37 313.618, 2849.06 313.618 Q 2847.68 313.618, 2846.65 313.145 Q 2845.63 312.654, 2844.81 311.672 L 2845.85 310.618 Q 2846.65 311.491, 2847.32 311.836 Q 2847.99 312.163, 2849.06 312.163 Q 2850.23 312.163, 2850.94 311.545 Q 2851.65 310.909, 2851.65 309.89 Q 2851.65 308.581, 2850.9 307.999 Q 2850.17 307.399, 2848.59 307.399 L 2847.66 307.399 L 2847.66 306.089 L 2848.48 306.089 Q 2849.88 306.071, 2850.63 305.471 Q 2851.37 304.853, 2851.37 303.707 Q 2851.37 302.87, 2850.76 302.379 Q 2850.14 301.87, 2849.08 301.87 Q 2848.01 301.87, 2847.34 302.252 Q 2846.68 302.634, 2846.17 303.598 L 2844.92 302.925 Q 2845.37 301.852, 2846.46 301.143 Q 2847.55 300.415, 2849.08 300.415 Q 2850.97 300.415, 2852.08 301.306 Q 2853.19 302.197, 2853.19 303.707 Q 2853.19 304.743, 2852.63 305.489 Q 2852.07 306.235, 2850.99 306.653 " fill="#000000"/>
<path class="note" d="M 2898.11 378.796 L 2900.93 378.796 L 2900.93 369.175 L 2897.82 370.139 L 2897.4 369.066 L 2901.35 367.302 L 2902.64 367.52 L 2902.64 378.796 L 2905.17 378.796 L 2905.17 380.251 L 2898.11 380.251 L 2898.11 378.796 " fill="#000000"/>
<path class="note" d="M 2914.08 375.832 L 2915.62 375.832 L 2915.62 377.286 L 2914.08 377.286 L 2914.08 380.251 L 2912.37 380.251 L 2912.37 377.286 L 2905.71 377.286 L 2905.71 376.141 L 2911.35 367.375 L 2914.08 367.375 L 2914.08 375.832 M 2907.82 375.832 L 2912.37 375.832 L 2912.37 368.539 L 2907.82 375.832 " fill="#000000"/>
<path class="note" d="M 3002.06 355.514 L 3004.88 355.514 L 3004.88 345.894 L 3001.77 346.858 L 3001.35 345.785 L 3005.3 344.021 L 3006.59 344.239 L 3006.59 355.514 L 3009.12 355.514 L 3009.12 356.969 L 3002.06 356.969 L 3002.06 355.514 " fill="#000000"/>
<path class="note" d="M 3014.63 348.913 Q 3015.76 348.913, 3016.69 349.404 Q 3017.61 349.877, 3018.14 350.786 Q 3018.67 351.677, 3018.67 352.896 Q 3018.67 354.223, 3018.01 355.187 Q 3017.38 356.133, 3016.32 356.624 Q 3015.27 357.115, 3014.07 357.115 Q 3012.88 357.115, 3011.79 356.678 Q 3010.7 356.242, 3009.96 355.405 L 3011.05 354.278 Q 3011.65 354.932, 3012.47 355.296 Q 3013.28 355.642, 3014.12 355.642 Q 3015.27 355.642, 3016.05 354.932 Q 3016.85 354.223, 3016.85 352.932 Q 3016.85 351.568, 3016.05 350.931 Q 3015.27 350.277, 3014.01 350.277 Q 3012.88 350.277, 3011.63 350.768 L 3010.63 350.295 L 3011.25 344.094 L 3017.87 344.094 L 3017.69 345.548 L 3012.74 345.548 L 3012.36 349.367 Q 3013.5 348.913, 3014.63 348.913 " fill="#000000"/>
<path class="note" d="M 3048.13 250.951 L 3050.95 250.951 L 3050.95 241.33 L 3047.84 242.294 L 3047.42 241.221 L 3051.36 239.457 L 3052.66 239.675 L 3052.66 250.951 L 3055.18 250.951 L 3055.18 252.406 L 3048.13 252.406 L 3048.13 250.951 " fill="#000000"/>
<path class="note" d="M 3061.46 244.367 Q 3062.59 244.367, 3063.48 244.859 Q 3064.37 245.35, 3064.86 246.241 Q 3065.35 247.132, 3065.35 248.259 Q 3065.35 249.514, 3064.79 250.496 Q 3064.24 251.46, 3063.26 252.006 Q 3062.28 252.551, 3061.02 252.551 Q 3058.73 252.551, 3057.57 251.005 Q 3056.42 249.441, 3056.42 246.35 Q 3056.42 242.931, 3057.84 241.167 Q 3059.28 239.384, 3062.02 239.384 Q 3062.82 239.384, 3063.49 239.566 Q 3064.19 239.748, 3064.84 240.13 L 3064.13 241.349 Q 3063.19 240.839, 3062.04 240.839 Q 3060.22 240.839, 3059.29 242.021 Q 3058.37 243.185, 3058.26 245.604 Q 3058.91 245.004, 3059.73 244.695 Q 3060.57 244.367, 3061.46 244.367 M 3061.04 251.06 Q 3061.73 251.06, 3062.29 250.696 Q 3062.88 250.333, 3063.2 249.696 Q 3063.53 249.06, 3063.53 248.278 Q 3063.53 247.132, 3062.89 246.477 Q 3062.26 245.822, 3061.13 245.822 Q 3060.35 245.822, 3059.57 246.15 Q 3058.8 246.459, 3058.26 247.004 Q 3058.33 249.132, 3059 250.096 Q 3059.68 251.06, 3061.04 251.06 " fill="#000000"/>
<path class="note" d="M 2962.08 176.248 L 2964.89 176.248 L 2964.89 166.627 L 2961.78 167.591 L 2961.37 166.518 L 2965.31 164.754 L 2966.6 164.973 L 2966.6 176.248 L 2969.13 176.248 L 2969.13 177.703 L 2962.08 177.703 L 2962.08 176.248 " fill="#000000"/>
<path class="note" d="M 2976.21 166.282 L 2969.46 166.282 L 2969.46 164.827 L 2978.01 164.827 L 2978.01 166.118 L 2972.81 177.703 L 2971.06 177.703 L 2976.21 166.282 " fill="#000000"/>
<path class="note" d="M 2857.9 199.566 L 2860.72 199.566 L 2860.72 189.945 L 2857.61 190.909 L 2857.19 189.836 L 2861.14 188.072 L 2862.43 188.29 L 2862.43 199.566 L 2864.96 199.566 L 2864.96 201.021 L 2857.9 201.021 L 2857.9 199.566 " fill="#000000"/>
<path class="note" d="M 2872.65 194.201 Q 2873.83 194.71, 2874.51 195.474 Q 2875.18 196.22, 2875.18 197.493 Q 2875.18 198.584, 2874.62 199.438 Q 2874.05 200.275, 2873.03 200.748 Q 2872.03 201.203, 2870.71 201.203 Q 2868.56 201.203, 2867.32 200.22 Q 2866.09 199.22, 2866.09 197.493 Q 2866.09 196.438, 2866.63 195.656 Q 2867.18 194.856, 2868.31 194.255 Q 2867.47 193.783, 2867.01 193.092 Q 2866.56 192.382, 2866.56 191.291 Q 2866.56 189.782, 2867.65 188.891 Q 2868.76 187.999, 2870.63 187.999 Q 2872.51 187.999, 2873.6 188.891 Q 2874.71 189.782, 2874.71 191.291 Q 2874.71 192.237, 2874.18 192.946 Q 2873.67 193.637, 2872.65 194.201 M 2870.63 189.363 Q 2869.56 189.363, 2868.96 189.873 Q 2868.38 190.382, 2868.38 191.291 Q 2868.38 191.964, 2868.78 192.419 Q 2869.18 192.855, 2869.74 193.11 Q 2870.32 193.364, 2871.43 193.746 Q 2872.22 193.201, 2872.54 192.619 Q 2872.89 192.037, 2872.89 191.291 Q 2872.89 190.382, 2872.29 189.873 Q 2871.71 189.363, 2870.63 189.363 M 2870.71 199.839 Q 2871.91 199.839, 2872.63 199.202 Q 2873.36 198.547, 2873.36 197.474 Q 2873.36 196.783, 2872.98 196.347 Q 2872.6 195.91, 2872.02 195.656 Q 2871.45 195.401, 2870.43 195.074 L 2869.61 194.801 Q 2868.71 195.347, 2868.31 196.001 Q 2867.91 196.638, 2867.91 197.474 Q 2867.91 198.547, 2868.67 199.202 Q 2869.43 199.839, 2870.71 199.839 " fill="#000000"/>
<path d="M 1215.45 249.727 L 1221.5 249.727 L 1221.5 243.359 L 1224.18 243.359 L 1224.18 249.727 L 1230.39 249.727 L 1230.39 252.031 L 1224.18 252.031 L 1224.18 258.431 L 1221.5 258.431 L 1221.5 252.031 L 1215.45 252.031 L 1215.45 249.727 " fill="#000000"/>
<path d="M 2034.01,252.031 L 2296.99,252.031" style="fill:none;fill-rule:evenodd;stroke:#000000;stroke-width:2.0px;stroke-linecap:butt;stroke-linejoin:miter;stroke-opacity:1"/>
<path d="M 2296.99,252.031 L 2285.61,245.456" style="fill:none;fill-rule:evenodd;stroke:#000000;stroke-width:2.0px;stroke-linecap:butt;stroke-linejoin:miter;stroke-opacity:1"/>
<path d="M 2296.99,252.031 L 2285.61,258.605" style="fill:none;fill-rule:evenodd;stroke:#000000;stroke-width:2.0px;stroke-linecap:butt;stroke-linejoin:miter;stroke-opacity:1"/>
</svg>