<svg xmlns="http://www.w3.org/2000/svg" xmlns:rdkit="http://www.rdkit.org/xml" xmlns:xlink="http://www.w3.org/1999/xlink" version="1.1" baseProfile="full" xml:space="preserve" width="4000px" height="500px" viewBox="0 0 4000 500">
<!-- END OF HEADER -->
<rect style="opacity:1.0;fill:#FFFFFF;stroke:none" width="4000" height="500" x="0" y="0"> </rect>
<path d="M 1170.38,183.965 L 1261.62,236.644" style="fill:none;fill-rule:evenodd;stroke:#FFFFAA;stroke-width:22.5px;stroke-linecap:butt;stroke-linejoin:miter;stroke-opacity:1"/>
<path d="M 1261.62,236.644 L 1352.86,183.965" style="fill:none;fill-rule:evenodd;stroke:#FFFFAA;stroke-width:22.5px;stroke-linecap:butt;stroke-linejoin:miter;stroke-opacity:1"/>
<path d="M 1261.62,236.644 L 1261.62,342.001" style="fill:none;fill-rule:evenodd;stroke:#FFFFAA;stroke-width:22.5px;stroke-linecap:butt;stroke-linejoin:miter;stroke-opacity:1"/>
<path d="M 1942.12,380.785 L 1870.05,303.939" style="fill:none;fill-rule:evenodd;stroke:#FFCC99;stroke-width:22.5px;stroke-linecap:butt;stroke-linejoin:miter;stroke-opacity:1"/>
<path d="M 1870.05,303.939 L 1767.46,327.934" style="fill:none;fill-rule:evenodd;stroke:#FFCC99;stroke-width:22.5px;stroke-linecap:butt;stroke-linejoin:miter;stroke-opacity:1"/>
<path d="M 1870.05,303.939 L 1900.56,203.097" style="fill:none;fill-rule:evenodd;stroke:#FFCC99;stroke-width:22.5px;stroke-linecap:butt;stroke-linejoin:miter;stroke-opacity:1"/>
<path d="M 1767.46,327.934 L 1695.39,251.087" style="fill:none;fill-rule:evenodd;stroke:#FFCC99;stroke-width:22.5px;stroke-linecap:butt;stroke-linejoin:miter;stroke-opacity:1"/>
<path d="M 1695.39,251.087 L 1592.8,275.083" style="fill:none;fill-rule:evenodd;stroke:#FFCC99;stroke-width:22.5px;stroke-linecap:butt;stroke-linejoin:miter;stroke-opacity:1"/>
<path d="M 1695.39,251.087 L 1725.9,150.246" style="fill:none;fill-rule:evenodd;stroke:#FFCC99;stroke-width:22.5px;stroke-linecap:butt;stroke-linejoin:miter;stroke-opacity:1"/>
<path d="M 1725.9,150.246 L 1828.49,126.251" style="fill:none;fill-rule:evenodd;stroke:#FFCC99;stroke-width:22.5px;stroke-linecap:butt;stroke-linejoin:miter;stroke-opacity:1"/>
<path d="M 1828.49,126.251 L 1900.56,203.097" style="fill:none;fill-rule:evenodd;stroke:#FFCC99;stroke-width:22.5px;stroke-linecap:butt;stroke-linejoin:miter;stroke-opacity:1"/>
<path d="M 1900.56,203.097 L 2003.15,179.102" style="fill:none;fill-rule:evenodd;stroke:#FFCC99;stroke-width:22.5px;stroke-linecap:butt;stroke-linejoin:miter;stroke-opacity:1"/>
<path d="M 2508.27,241.612 L 2611.44,220.235" style="fill:none;fill-rule:evenodd;stroke:#FFFFAA;stroke-width:22.5px;stroke-linecap:butt;stroke-linejoin:miter;stroke-opacity:1"/>
<path d="M 2611.44,220.235 L 2644.51,120.202" style="fill:none;fill-rule:evenodd;stroke:#FFFFAA;stroke-width:22.5px;stroke-linecap:butt;stroke-linejoin:miter;stroke-opacity:1"/>
<path d="M 2681.53,298.89 L 2784.7,277.513" style="fill:none;fill-rule:evenodd;stroke:#FFCC99;stroke-width:22.5px;stroke-linecap:butt;stroke-linejoin:miter;stroke-opacity:1"/>
<path d="M 2784.7,277.513 L 2817.77,177.481" style="fill:none;fill-rule:evenodd;stroke:#FFCC99;stroke-width:22.5px;stroke-linecap:butt;stroke-linejoin:miter;stroke-opacity:1"/>
<path d="M 2784.7,277.513 L 2854.8,356.169" style="fill:none;fill-rule:evenodd;stroke:#FFCC99;stroke-width:22.5px;stroke-linecap:butt;stroke-linejoin:miter;stroke-opacity:1"/>
<path d="M 2817.77,177.481 L 2920.94,156.104" style="fill:none;fill-rule:evenodd;stroke:#FFCC99;stroke-width:22.5px;stroke-linecap:butt;stroke-linejoin:miter;stroke-opacity:1"/>
<path d="M 2920.94,156.104 L 2954.01,56.0714" style="fill:none;fill-rule:evenodd;stroke:#FFCC99;stroke-width:22.5px;stroke-linecap:butt;stroke-linejoin:miter;stroke-opacity:1"/>
<path d="M 2920.94,156.104 L 2991.03,234.759" style="fill:none;fill-rule:evenodd;stroke:#FFCC99;stroke-width:22.5px;stroke-linecap:butt;stroke-linejoin:miter;stroke-opacity:1"/>
<path d="M 2991.03,234.759 L 2957.96,334.792" style="fill:none;fill-rule:evenodd;stroke:#FFCC99;stroke-width:22.5px;stroke-linecap:butt;stroke-linejoin:miter;stroke-opacity:1"/>
<path d="M 2957.96,334.792 L 2854.8,356.169" style="fill:none;fill-rule:evenodd;stroke:#FFCC99;stroke-width:22.5px;stroke-linecap:butt;stroke-linejoin:miter;stroke-opacity:1"/>
<path d="M 2854.8,356.169 L 2821.73,456.201" style="fill:none;fill-rule:evenodd;stroke:#FFCC99;stroke-width:22.5px;stroke-linecap:butt;stroke-linejoin:miter;stroke-opacity:1"/>
<ellipse cx="1261.62" cy="236.644" rx="21.0714" ry="21.0714" style="fill:#FFFFAA;fill-rule:evenodd;stroke:#FFFFAA;stroke-width:1px;stroke-linecap:butt;stroke-linejoin:miter;stroke-opacity:1"/>
<ellipse cx="1352.86" cy="183.965" rx="21.0714" ry="21.0714" style="fill:#FFFFAA;fill-rule:evenodd;stroke:#FFFFAA;stroke-width:1px;stroke-linecap:butt;stroke-linejoin:miter;stroke-opacity:1"/>
<ellipse cx="1261.62" cy="342.221" rx="21.0714" ry="21.0714" style="fill:#FFFFAA;fill-rule:evenodd;stroke:#FFFFAA;stroke-width:1px;stroke-linecap:butt;stroke-linejoin:miter;stroke-opacity:1"/>
<ellipse cx="1961.86" cy="387.865" rx="43.1001" ry="30.0379" style="fill:#FFCC99;fill-rule:evenodd;stroke:#FFCC99;stroke-width:1px;stroke-linecap:butt;stroke-linejoin:miter;stroke-opacity:1"/>
<ellipse cx="1870.05" cy="303.939" rx="21.0714" ry="21.0714" style="fill:#FFCC99;fill-rule:evenodd;stroke:#FFCC99;stroke-width:1px;stroke-linecap:butt;stroke-linejoin:miter;stroke-opacity:1"/>
<ellipse cx="1767.46" cy="327.934" rx="21.0714" ry="21.0714" style="fill:#FFCC99;fill-rule:evenodd;stroke:#FFCC99;stroke-width:1px;stroke-linecap:butt;stroke-linejoin:miter;stroke-opacity:1"/>
<ellipse cx="1695.39" cy="251.087" rx="21.0714" ry="21.0714" style="fill:#FFCC99;fill-rule:evenodd;stroke:#FFCC99;stroke-width:1px;stroke-linecap:butt;stroke-linejoin:miter;stroke-opacity:1"/>
<ellipse cx="1592.8" cy="275.083" rx="21.0714" ry="21.0714" style="fill:#FFCC99;fill-rule:evenodd;stroke:#FFCC99;stroke-width:1px;stroke-linecap:butt;stroke-linejoin:miter;stroke-opacity:1"/>
<ellipse cx="1725.9" cy="150.246" rx="21.0714" ry="21.0714" style="fill:#FFCC99;fill-rule:evenodd;stroke:#FFCC99;stroke-width:1px;stroke-linecap:butt;stroke-linejoin:miter;stroke-opacity:1"/>
<ellipse cx="1828.49" cy="126.251" rx="21.0714" ry="21.0714" style="fill:#FFCC99;fill-rule:evenodd;stroke:#FFCC99;stroke-width:1px;stroke-linecap:butt;stroke-linejoin:miter;stroke-opacity:1"/>
<ellipse cx="1900.56" cy="203.097" rx="21.0714" ry="21.0714" style="fill:#FFCC99;fill-rule:evenodd;stroke:#FFCC99;stroke-width:1px;stroke-linecap:butt;stroke-linejoin:miter;stroke-opacity:1"/>
<ellipse cx="2003.15" cy="179.102" rx="21.0714" ry="21.0714" style="fill:#FFCC99;fill-rule:evenodd;stroke:#FFCC99;stroke-width:1px;stroke-linecap:butt;stroke-linejoin:miter;stroke-opacity:1"/>
<ellipse cx="2508.27" cy="241.612" rx="21.0714" ry="21.0714" style="fill:#FFFFAA;fill-rule:evenodd;stroke:#FFFFAA;stroke-width:1px;stroke-linecap:butt;stroke-linejoin:miter;stroke-opacity:1"/>
<ellipse cx="2611.44" cy="220.235" rx="21.0714" ry="21.0714" style="fill:#FFFFAA;fill-rule:evenodd;stroke:#FFFFAA;stroke-width:1px;stroke-linecap:butt;stroke-linejoin:miter;stroke-opacity:1"/>
<ellipse cx="2644.51" cy="120.422" rx="21.0714" ry="21.0714" style="fill:#FFFFAA;fill-rule:evenodd;stroke:#FFFFAA;stroke-width:1px;stroke-linecap:butt;stroke-linejoin:miter;stroke-opacity:1"/>
<ellipse cx="2681.53" cy="314.466" rx="21.0714" ry="42.0531" style="fill:#FFCC99;fill-rule:evenodd;stroke:#FFCC99;stroke-width:1px;stroke-linecap:butt;stroke-linejoin:miter;stroke-opacity:1"/>
<ellipse cx="2784.7" cy="277.513" rx="21.0714" ry="21.0714" style="fill:#FFCC99;fill-rule:evenodd;stroke:#FFCC99;stroke-width:1px;stroke-linecap:butt;stroke-linejoin:miter;stroke-opacity:1"/>
<ellipse cx="2817.77" cy="177.481" rx="21.0714" ry="21.0714" style="fill:#FFCC99;fill-rule:evenodd;stroke:#FFCC99;stroke-width:1px;stroke-linecap:butt;stroke-linejoin:miter;stroke-opacity:1"/>
<ellipse cx="2920.94" cy="156.104" rx="21.0714" ry="21.0714" style="fill:#FFCC99;fill-rule:evenodd;stroke:#FFCC99;stroke-width:1px;stroke-linecap:butt;stroke-linejoin:miter;stroke-opacity:1"/>
<ellipse cx="2954.01" cy="56.0714" rx="21.0714" ry="21.0714" style="fill:#FFCC99;fill-rule:evenodd;stroke:#FFCC99;stroke-width:1px;stroke-linecap:butt;stroke-linejoin:miter;stroke-opacity:1"/>
<ellipse cx="2991.03" cy="234.759" rx="21.0714" ry="21.0714" style="fill:#FFCC99;fill-rule:evenodd;stroke:#FFCC99;stroke-width:1px;stroke-linecap:butt;stroke-linejoin:miter;stroke-opacity:1"/>
<ellipse cx="2957.96" cy="334.792" rx="21.0714" ry="21.0714" style="fill:#FFCC99;fill-rule:evenodd;stroke:#FFCC99;stroke-width:1px;stroke-linecap:butt;stroke-linejoin:miter;stroke-opacity:1"/>
<ellipse cx="2854.8" cy="356.169" rx="21.0714" ry="21.0714" style="fill:#FFCC99;fill-rule:evenodd;stroke:#FFCC99;stroke-width:1px;stroke-linecap:butt;stroke-linejoin:miter;stroke-opacity:1"/>
<ellipse cx="2821.73" cy="456.201" rx="21.0714" ry="21.0714" style="fill:#FFCC99;fill-rule:evenodd;stroke:#FFCC99;stroke-width:1px;stroke-linecap:butt;stroke-linejoin:miter;stroke-opacity:1"/>
<path class="bond-0" d="M 987.897,183.965 L 1079.14,236.644" style="fill:none;fill-rule:evenodd;stroke:#000000;stroke-width:2.0px;stroke-linecap:butt;stroke-linejoin:miter;stroke-opacity:1"/>
<path class="bond-1" d="M 1068.6,236.644 L 1068.6,280.845" style="fill:none;fill-rule:evenodd;stroke:#000000;stroke-width:2.0px;stroke-linecap:butt;stroke-linejoin:miter;stroke-opacity:1"/>
<path class="bond-1" d="M 1068.6,280.845 L 1068.6,325.047" style="fill:none;fill-rule:evenodd;stroke:#FF0000;stroke-width:2.0px;stroke-linecap:butt;stroke-linejoin:miter;stroke-opacity:1"/>
<path class="bond-1" d="M 1089.67,236.644 L 1089.67,280.845" style="fill:none;fill-rule:evenodd;stroke:#000000;stroke-width:2.0px;stroke-linecap:butt;stroke-linejoin:miter;stroke-opacity:1"/>
<path class="bond-1" d="M 1089.67,280.845 L 1089.67,325.047" style="fill:none;fill-rule:evenodd;stroke:#FF0000;stroke-width:2.0px;stroke-linecap:butt;stroke-linejoin:miter;stroke-opacity:1"/>
<path class="bond-2" d="M 1079.14,236.644 L 1116.94,214.818" style="fill:none;fill-rule:evenodd;stroke:#000000;stroke-width:2.0px;stroke-linecap:butt;stroke-linejoin:miter;stroke-opacity:1"/>
<path class="bond-2" d="M 1116.94,214.818 L 1154.75,192.991" style="fill:none;fill-rule:evenodd;stroke:#FF0000;stroke-width:2.0px;stroke-linecap:butt;stroke-linejoin:miter;stroke-opacity:1"/>
<path class="bond-3" d="M 1186.01,192.991 L 1223.82,214.818" style="fill:none;fill-rule:evenodd;stroke:#FF0000;stroke-width:2.0px;stroke-linecap:butt;stroke-linejoin:miter;stroke-opacity:1"/>
<path class="bond-3" d="M 1223.82,214.818 L 1261.62,236.644" style="fill:none;fill-rule:evenodd;stroke:#000000;stroke-width:2.0px;stroke-linecap:butt;stroke-linejoin:miter;stroke-opacity:1"/>
<path class="bond-4" d="M 1261.62,236.644 L 1352.86,183.965" style="fill:none;fill-rule:evenodd;stroke:#000000;stroke-width:2.0px;stroke-linecap:butt;stroke-linejoin:miter;stroke-opacity:1"/>
<path class="bond-5" d="M 1251.09,236.644 L 1251.09,280.845" style="fill:none;fill-rule:evenodd;stroke:#000000;stroke-width:2.0px;stroke-linecap:butt;stroke-linejoin:miter;stroke-opacity:1"/>
<path class="bond-5" d="M 1251.09,280.845 L 1251.09,325.047" style="fill:none;fill-rule:evenodd;stroke:#FF0000;stroke-width:2.0px;stroke-linecap:butt;stroke-linejoin:miter;stroke-opacity:1"/>
<path class="bond-5" d="M 1272.16,236.644 L 1272.16,280.845" style="fill:none;fill-rule:evenodd;stroke:#000000;stroke-width:2.0px;stroke-linecap:butt;stroke-linejoin:miter;stroke-opacity:1"/>
<path class="bond-5" d="M 1272.16,280.845 L 1272.16,325.047" style="fill:none;fill-rule:evenodd;stroke:#FF0000;stroke-width:2.0px;stroke-linecap:butt;stroke-linejoin:miter;stroke-opacity:1"/>
<path class="bond-6" d="M 1928.75,366.526 L 1899.4,335.232" style="fill:none;fill-rule:evenodd;stroke:#0000FF;stroke-width:2.0px;stroke-linecap:butt;stroke-linejoin:miter;stroke-opacity:1"/>
<path class="bond-6" d="M 1899.4,335.232 L 1870.05,303.939" style="fill:none;fill-rule:evenodd;stroke:#000000;stroke-width:2.0px;stroke-linecap:butt;stroke-linejoin:miter;stroke-opacity:1"/>
<path class="bond-7" d="M 1870.05,303.939 L 1767.46,327.934" style="fill:none;fill-rule:evenodd;stroke:#000000;stroke-width:2.0px;stroke-linecap:butt;stroke-linejoin:miter;stroke-opacity:1"/>
<path class="bond-7" d="M 1849.86,287.02 L 1778.05,303.817" style="fill:none;fill-rule:evenodd;stroke:#000000;stroke-width:2.0px;stroke-linecap:butt;stroke-linejoin:miter;stroke-opacity:1;stroke-dasharray:6,6"/>
<path class="bond-14" d="M 1870.05,303.939 L 1900.56,203.097" style="fill:none;fill-rule:evenodd;stroke:#000000;stroke-width:2.0px;stroke-linecap:butt;stroke-linejoin:miter;stroke-opacity:1"/>
<path class="bond-14" d="M 1854.46,282.71 L 1875.82,212.12" style="fill:none;fill-rule:evenodd;stroke:#000000;stroke-width:2.0px;stroke-linecap:butt;stroke-linejoin:miter;stroke-opacity:1;stroke-dasharray:6,6"/>
<path class="bond-8" d="M 1767.46,327.934 L 1695.39,251.087" style="fill:none;fill-rule:evenodd;stroke:#000000;stroke-width:2.0px;stroke-linecap:butt;stroke-linejoin:miter;stroke-opacity:1"/>
<path class="bond-8" d="M 1772.02,301.992 L 1721.57,248.2" style="fill:none;fill-rule:evenodd;stroke:#000000;stroke-width:2.0px;stroke-linecap:butt;stroke-linejoin:miter;stroke-opacity:1;stroke-dasharray:6,6"/>
<path class="bond-9" d="M 1695.39,251.087 L 1649.62,261.792" style="fill:none;fill-rule:evenodd;stroke:#000000;stroke-width:2.0px;stroke-linecap:butt;stroke-linejoin:miter;stroke-opacity:1"/>
<path class="bond-9" d="M 1649.62,261.792 L 1603.85,272.497" style="fill:none;fill-rule:evenodd;stroke:#33CCCC;stroke-width:2.0px;stroke-linecap:butt;stroke-linejoin:miter;stroke-opacity:1"/>
<path class="bond-10" d="M 1695.39,251.087 L 1725.9,150.246" style="fill:none;fill-rule:evenodd;stroke:#000000;stroke-width:2.0px;stroke-linecap:butt;stroke-linejoin:miter;stroke-opacity:1"/>
<path class="bond-10" d="M 1720.13,242.064 L 1741.49,171.475" style="fill:none;fill-rule:evenodd;stroke:#000000;stroke-width:2.0px;stroke-linecap:butt;stroke-linejoin:miter;stroke-opacity:1;stroke-dasharray:6,6"/>
<path class="bond-11" d="M 1725.9,150.246 L 1828.49,126.251" style="fill:none;fill-rule:evenodd;stroke:#000000;stroke-width:2.0px;stroke-linecap:butt;stroke-linejoin:miter;stroke-opacity:1"/>
<path class="bond-11" d="M 1746.09,167.164 L 1817.9,150.368" style="fill:none;fill-rule:evenodd;stroke:#000000;stroke-width:2.0px;stroke-linecap:butt;stroke-linejoin:miter;stroke-opacity:1;stroke-dasharray:6,6"/>
<path class="bond-12" d="M 1828.49,126.251 L 1900.56,203.097" style="fill:none;fill-rule:evenodd;stroke:#000000;stroke-width:2.0px;stroke-linecap:butt;stroke-linejoin:miter;stroke-opacity:1"/>
<path class="bond-12" d="M 1823.93,152.193 L 1874.38,205.985" style="fill:none;fill-rule:evenodd;stroke:#000000;stroke-width:2.0px;stroke-linecap:butt;stroke-linejoin:miter;stroke-opacity:1;stroke-dasharray:6,6"/>
<path class="bond-13" d="M 1900.56,203.097 L 2003.15,179.102" style="fill:none;fill-rule:evenodd;stroke:#000000;stroke-width:2.0px;stroke-linecap:butt;stroke-linejoin:miter;stroke-opacity:1"/>
<path class="bond-15" d="M 2508.27,241.612 L 2611.44,220.235" style="fill:none;fill-rule:evenodd;stroke:#000000;stroke-width:2.0px;stroke-linecap:butt;stroke-linejoin:miter;stroke-opacity:1"/>
<path class="bond-16" d="M 2621.44,223.542 L 2635.1,182.223" style="fill:none;fill-rule:evenodd;stroke:#000000;stroke-width:2.0px;stroke-linecap:butt;stroke-linejoin:miter;stroke-opacity:1"/>
<path class="bond-16" d="M 2635.1,182.223 L 2648.76,140.903" style="fill:none;fill-rule:evenodd;stroke:#FF0000;stroke-width:2.0px;stroke-linecap:butt;stroke-linejoin:miter;stroke-opacity:1"/>
<path class="bond-16" d="M 2601.44,216.928 L 2615.1,175.609" style="fill:none;fill-rule:evenodd;stroke:#000000;stroke-width:2.0px;stroke-linecap:butt;stroke-linejoin:miter;stroke-opacity:1"/>
<path class="bond-16" d="M 2615.1,175.609 L 2628.76,134.289" style="fill:none;fill-rule:evenodd;stroke:#FF0000;stroke-width:2.0px;stroke-linecap:butt;stroke-linejoin:miter;stroke-opacity:1"/>
<path class="bond-17" d="M 2611.44,220.235 L 2639.8,252.059" style="fill:none;fill-rule:evenodd;stroke:#000000;stroke-width:2.0px;stroke-linecap:butt;stroke-linejoin:miter;stroke-opacity:1"/>
<path class="bond-17" d="M 2639.8,252.059 L 2668.16,283.883" style="fill:none;fill-rule:evenodd;stroke:#0000FF;stroke-width:2.0px;stroke-linecap:butt;stroke-linejoin:miter;stroke-opacity:1"/>
<path class="bond-18" d="M 2694.91,296.119 L 2739.8,286.816" style="fill:none;fill-rule:evenodd;stroke:#0000FF;stroke-width:2.0px;stroke-linecap:butt;stroke-linejoin:miter;stroke-opacity:1"/>
<path class="bond-18" d="M 2739.8,286.816 L 2784.7,277.513" style="fill:none;fill-rule:evenodd;stroke:#000000;stroke-width:2.0px;stroke-linecap:butt;stroke-linejoin:miter;stroke-opacity:1"/>
<path class="bond-19" d="M 2784.7,277.513 L 2817.77,177.481" style="fill:none;fill-rule:evenodd;stroke:#000000;stroke-width:2.0px;stroke-linecap:butt;stroke-linejoin:miter;stroke-opacity:1"/>
<path class="bond-19" d="M 2809.67,269.122 L 2832.82,199.1" style="fill:none;fill-rule:evenodd;stroke:#000000;stroke-width:2.0px;stroke-linecap:butt;stroke-linejoin:miter;stroke-opacity:1;stroke-dasharray:6,6"/>
<path class="bond-26" d="M 2784.7,277.513 L 2854.8,356.169" style="fill:none;fill-rule:evenodd;stroke:#000000;stroke-width:2.0px;stroke-linecap:butt;stroke-linejoin:miter;stroke-opacity:1"/>
<path class="bond-26" d="M 2810.95,275.293 L 2860.01,330.351" style="fill:none;fill-rule:evenodd;stroke:#000000;stroke-width:2.0px;stroke-linecap:butt;stroke-linejoin:miter;stroke-opacity:1;stroke-dasharray:6,6"/>
<path class="bond-20" d="M 2817.77,177.481 L 2920.94,156.104" style="fill:none;fill-rule:evenodd;stroke:#000000;stroke-width:2.0px;stroke-linecap:butt;stroke-linejoin:miter;stroke-opacity:1"/>
<path class="bond-20" d="M 2837.52,194.907 L 2909.74,179.944" style="fill:none;fill-rule:evenodd;stroke:#000000;stroke-width:2.0px;stroke-linecap:butt;stroke-linejoin:miter;stroke-opacity:1;stroke-dasharray:6,6"/>
<path class="bond-21" d="M 2920.94,156.104 L 2934.69,114.485" style="fill:none;fill-rule:evenodd;stroke:#000000;stroke-width:2.0px;stroke-linecap:butt;stroke-linejoin:miter;stroke-opacity:1"/>
<path class="bond-21" d="M 2934.69,114.485 L 2948.45,72.8654" style="fill:none;fill-rule:evenodd;stroke:#33CCCC;stroke-width:2.0px;stroke-linecap:butt;stroke-linejoin:miter;stroke-opacity:1"/>
<path class="bond-22" d="M 2920.94,156.104 L 2991.03,234.759" style="fill:none;fill-rule:evenodd;stroke:#000000;stroke-width:2.0px;stroke-linecap:butt;stroke-linejoin:miter;stroke-opacity:1"/>
<path class="bond-22" d="M 2915.72,181.921 L 2964.79,236.98" style="fill:none;fill-rule:evenodd;stroke:#000000;stroke-width:2.0px;stroke-linecap:butt;stroke-linejoin:miter;stroke-opacity:1;stroke-dasharray:6,6"/>
<path class="bond-23" d="M 2991.03,234.759 L 2957.96,334.792" style="fill:none;fill-rule:evenodd;stroke:#000000;stroke-width:2.0px;stroke-linecap:butt;stroke-linejoin:miter;stroke-opacity:1"/>
<path class="bond-23" d="M 2966.06,243.15 L 2942.92,313.173" style="fill:none;fill-rule:evenodd;stroke:#000000;stroke-width:2.0px;stroke-linecap:butt;stroke-linejoin:miter;stroke-opacity:1;stroke-dasharray:6,6"/>
<path class="bond-24" d="M 2957.96,334.792 L 2854.8,356.169" style="fill:none;fill-rule:evenodd;stroke:#000000;stroke-width:2.0px;stroke-linecap:butt;stroke-linejoin:miter;stroke-opacity:1"/>
<path class="bond-24" d="M 2938.21,317.365 L 2866,332.329" style="fill:none;fill-rule:evenodd;stroke:#000000;stroke-width:2.0px;stroke-linecap:butt;stroke-linejoin:miter;stroke-opacity:1;stroke-dasharray:6,6"/>
<path class="bond-25" d="M 2854.8,356.169 L 2821.73,456.201" style="fill:none;fill-rule:evenodd;stroke:#000000;stroke-width:2.0px;stroke-linecap:butt;stroke-linejoin:miter;stroke-opacity:1"/>
<path class="atom-2" d="M 1066.14 342.081 Q 1066.14 335.281, 1069.5 331.481 Q 1072.86 327.681, 1079.14 327.681 Q 1085.42 327.681, 1088.78 331.481 Q 1092.14 335.281, 1092.14 342.081 Q 1092.14 348.961, 1088.74 352.881 Q 1085.34 356.761, 1079.14 356.761 Q 1072.9 356.761, 1069.5 352.881 Q 1066.14 349.001, 1066.14 342.081 M 1079.14 353.561 Q 1083.46 353.561, 1085.78 350.681 Q 1088.14 347.761, 1088.14 342.081 Q 1088.14 336.521, 1085.78 333.721 Q 1083.46 330.881, 1079.14 330.881 Q 1074.82 330.881, 1072.46 333.681 Q 1070.14 336.481, 1070.14 342.081 Q 1070.14 347.801, 1072.46 350.681 Q 1074.82 353.561, 1079.14 353.561 " fill="#FF0000"/>
<path class="atom-3" d="M 1157.38 184.045 Q 1157.38 177.245, 1160.74 173.445 Q 1164.1 169.645, 1170.38 169.645 Q 1176.66 169.645, 1180.02 173.445 Q 1183.38 177.245, 1183.38 184.045 Q 1183.38 190.925, 1179.98 194.845 Q 1176.58 198.725, 1170.38 198.725 Q 1164.14 198.725, 1160.74 194.845 Q 1157.38 190.965, 1157.38 184.045 M 1170.38 195.525 Q 1174.7 195.525, 1177.02 192.645 Q 1179.38 189.725, 1179.38 184.045 Q 1179.38 178.485, 1177.02 175.685 Q 1174.7 172.845, 1170.38 172.845 Q 1166.06 172.845, 1163.7 175.645 Q 1161.38 178.445, 1161.38 184.045 Q 1161.38 189.765, 1163.7 192.645 Q 1166.06 195.525, 1170.38 195.525 " fill="#FF0000"/>
<path class="atom-6" d="M 1248.62 342.081 Q 1248.62 335.281, 1251.98 331.481 Q 1255.34 327.681, 1261.62 327.681 Q 1267.9 327.681, 1271.26 331.481 Q 1274.62 335.281, 1274.62 342.081 Q 1274.62 348.961, 1271.22 352.881 Q 1267.82 356.761, 1261.62 356.761 Q 1255.38 356.761, 1251.98 352.881 Q 1248.62 349.001, 1248.62 342.081 M 1261.62 353.561 Q 1265.94 353.561, 1268.26 350.681 Q 1270.62 347.761, 1270.62 342.081 Q 1270.62 336.521, 1268.26 333.721 Q 1265.94 330.881, 1261.62 330.881 Q 1257.3 330.881, 1254.94 333.681 Q 1252.62 336.481, 1252.62 342.081 Q 1252.62 347.801, 1254.94 350.681 Q 1257.3 353.561, 1261.62 353.561 " fill="#FF0000"/>
<path class="atom-7" d="M 1935.86 366.625 L 1945.14 381.625 Q 1946.06 383.105, 1947.54 385.785 Q 1949.02 388.465, 1949.1 388.625 L 1949.1 366.625 L 1952.86 366.625 L 1952.86 394.945 L 1948.98 394.945 L 1939.02 378.545 Q 1937.86 376.625, 1936.62 374.425 Q 1935.42 372.225, 1935.06 371.545 L 1935.06 394.945 L 1931.38 394.945 L 1931.38 366.625 L 1935.86 366.625 " fill="#0000FF"/>
<path class="atom-7" d="M 1956.26 366.625 L 1960.1 366.625 L 1960.1 378.665 L 1974.58 378.665 L 1974.58 366.625 L 1978.42 366.625 L 1978.42 394.945 L 1974.58 394.945 L 1974.58 381.865 L 1960.1 381.865 L 1960.1 394.945 L 1956.26 394.945 L 1956.26 366.625 " fill="#0000FF"/>
<path class="atom-7" d="M 1979.8 393.951 Q 1980.48 392.182, 1982.12 391.206 Q 1983.76 390.202, 1986.03 390.202 Q 1988.85 390.202, 1990.44 391.734 Q 1992.02 393.265, 1992.02 395.984 Q 1992.02 398.756, 1989.96 401.343 Q 1987.93 403.93, 1983.7 406.993 L 1992.34 406.993 L 1992.34 409.105 L 1979.74 409.105 L 1979.74 407.336 Q 1983.23 404.854, 1985.29 403.006 Q 1987.37 401.158, 1988.38 399.495 Q 1989.38 397.832, 1989.38 396.116 Q 1989.38 394.321, 1988.48 393.318 Q 1987.58 392.314, 1986.03 392.314 Q 1984.52 392.314, 1983.52 392.922 Q 1982.52 393.529, 1981.8 394.875 L 1979.8 393.951 " fill="#0000FF"/>
<path class="atom-11" d="M 1584.38 260.923 L 1601.22 260.923 L 1601.22 264.163 L 1588.18 264.163 L 1588.18 272.763 L 1599.78 272.763 L 1599.78 276.043 L 1588.18 276.043 L 1588.18 289.243 L 1584.38 289.243 L 1584.38 260.923 " fill="#33CCCC"/>
<path class="atom-18" d="M 2631.51 120.282 Q 2631.51 113.482, 2634.87 109.682 Q 2638.23 105.882, 2644.51 105.882 Q 2650.79 105.882, 2654.15 109.682 Q 2657.51 113.482, 2657.51 120.282 Q 2657.51 127.162, 2654.11 131.082 Q 2650.71 134.962, 2644.51 134.962 Q 2638.27 134.962, 2634.87 131.082 Q 2631.51 127.202, 2631.51 120.282 M 2644.51 131.762 Q 2648.83 131.762, 2651.15 128.882 Q 2653.51 125.962, 2653.51 120.282 Q 2653.51 114.722, 2651.15 111.922 Q 2648.83 109.082, 2644.51 109.082 Q 2640.19 109.082, 2637.83 111.882 Q 2635.51 114.682, 2635.51 120.282 Q 2635.51 126.002, 2637.83 128.882 Q 2640.19 131.762, 2644.51 131.762 " fill="#FF0000"/>
<path class="atom-19" d="M 2675.27 284.73 L 2684.55 299.73 Q 2685.47 301.21, 2686.95 303.89 Q 2688.43 306.57, 2688.51 306.73 L 2688.51 284.73 L 2692.27 284.73 L 2692.27 313.05 L 2688.39 313.05 L 2678.43 296.65 Q 2677.27 294.73, 2676.03 292.53 Q 2674.83 290.33, 2674.47 289.65 L 2674.47 313.05 L 2670.79 313.05 L 2670.79 284.73 L 2675.27 284.73 " fill="#0000FF"/>
<path class="atom-19" d="M 2670.45 315.882 L 2674.29 315.882 L 2674.29 327.922 L 2688.77 327.922 L 2688.77 315.882 L 2692.61 315.882 L 2692.61 344.202 L 2688.77 344.202 L 2688.77 331.122 L 2674.29 331.122 L 2674.29 344.202 L 2670.45 344.202 L 2670.45 315.882 " fill="#0000FF"/>
<path class="atom-23" d="M 2945.59 41.9114 L 2962.43 41.9114 L 2962.43 45.1514 L 2949.39 45.1514 L 2949.39 53.7514 L 2960.99 53.7514 L 2960.99 57.0314 L 2949.39 57.0314 L 2949.39 70.2314 L 2945.59 70.2314 L 2945.59 41.9114 " fill="#33CCCC"/>
<path class="atom-28" d="M 2196.46 118.302 L 2200.3 118.302 L 2200.3 130.342 L 2214.78 130.342 L 2214.78 118.302 L 2218.62 118.302 L 2218.62 146.622 L 2214.78 146.622 L 2214.78 133.542 L 2200.3 133.542 L 2200.3 146.622 L 2196.46 146.622 L 2196.46 118.302 " fill="#FF0000"/>
<path class="atom-28" d="M 2219.99 145.628 Q 2220.68 143.859, 2222.32 142.882 Q 2223.95 141.879, 2226.22 141.879 Q 2229.05 141.879, 2230.63 143.41 Q 2232.22 144.942, 2232.22 147.661 Q 2232.22 150.433, 2230.16 153.02 Q 2228.12 155.607, 2223.9 158.67 L 2232.53 158.67 L 2232.53 160.782 L 2219.94 160.782 L 2219.94 159.013 Q 2223.42 156.531, 2225.48 154.683 Q 2227.57 152.835, 2228.57 151.172 Q 2229.58 149.509, 2229.58 147.793 Q 2229.58 145.998, 2228.68 144.994 Q 2227.78 143.991, 2226.22 143.991 Q 2224.72 143.991, 2223.71 144.598 Q 2222.71 145.206, 2222 146.552 L 2219.99 145.628 " fill="#FF0000"/>
<path class="atom-28" d="M 2234.53 132.382 Q 2234.53 125.582, 2237.89 121.782 Q 2241.25 117.982, 2247.53 117.982 Q 2253.81 117.982, 2257.17 121.782 Q 2260.53 125.582, 2260.53 132.382 Q 2260.53 139.262, 2257.13 143.182 Q 2253.73 147.062, 2247.53 147.062 Q 2241.29 147.062, 2237.89 143.182 Q 2234.53 139.302, 2234.53 132.382 M 2247.53 143.862 Q 2251.85 143.862, 2254.17 140.982 Q 2256.53 138.062, 2256.53 132.382 Q 2256.53 126.822, 2254.17 124.022 Q 2251.85 121.182, 2247.53 121.182 Q 2243.21 121.182, 2240.85 123.982 Q 2238.53 126.782, 2238.53 132.382 Q 2238.53 138.102, 2240.85 140.982 Q 2243.21 143.862, 2247.53 143.862 " fill="#FF0000"/>
<path class="note" d="M 1256.89 214.764 Q 1257.41 213.424, 1258.65 212.684 Q 1259.89 211.924, 1261.61 211.924 Q 1263.75 211.924, 1264.95 213.084 Q 1266.15 214.244, 1266.15 216.304 Q 1266.15 218.404, 1264.59 220.364 Q 1263.05 222.324, 1259.85 224.644 L 1266.39 224.644 L 1266.39 226.244 L 1256.85 226.244 L 1256.85 224.904 Q 1259.49 223.024, 1261.05 221.624 Q 1262.63 220.224, 1263.39 218.964 Q 1264.15 217.704, 1264.15 216.404 Q 1264.15 215.044, 1263.47 214.284 Q 1262.79 213.524, 1261.61 213.524 Q 1260.47 213.524, 1259.71 213.984 Q 1258.95 214.444, 1258.41 215.464 L 1256.89 214.764 " fill="#000000"/>
<path class="note" d="M 1340.59 174.278 L 1343.69 174.278 L 1343.69 163.698 L 1340.27 164.758 L 1339.81 163.578 L 1344.15 161.638 L 1345.57 161.878 L 1345.57 174.278 L 1348.35 174.278 L 1348.35 175.878 L 1340.59 175.878 L 1340.59 174.278 " fill="#000000"/>
<path class="note" d="M 1263.66 376.82 Q 1265.04 377.22, 1265.7 378.12 Q 1266.38 379, 1266.38 380.4 Q 1266.38 381.6, 1265.78 382.54 Q 1265.18 383.46, 1264.08 383.98 Q 1262.98 384.48, 1261.54 384.48 Q 1260.02 384.48, 1258.88 383.96 Q 1257.76 383.42, 1256.86 382.34 L 1258 381.18 Q 1258.88 382.14, 1259.62 382.52 Q 1260.36 382.88, 1261.54 382.88 Q 1262.82 382.88, 1263.6 382.2 Q 1264.38 381.5, 1264.38 380.38 Q 1264.38 378.94, 1263.56 378.3 Q 1262.76 377.64, 1261.02 377.64 L 1260 377.64 L 1260 376.2 L 1260.9 376.2 Q 1262.44 376.18, 1263.26 375.52 Q 1264.08 374.84, 1264.08 373.58 Q 1264.08 372.66, 1263.4 372.12 Q 1262.72 371.56, 1261.56 371.56 Q 1260.38 371.56, 1259.64 371.98 Q 1258.92 372.4, 1258.36 373.46 L 1256.98 372.72 Q 1257.48 371.54, 1258.68 370.76 Q 1259.88 369.96, 1261.56 369.96 Q 1263.64 369.96, 1264.86 370.94 Q 1266.08 371.92, 1266.08 373.58 Q 1266.08 374.72, 1265.46 375.54 Q 1264.84 376.36, 1263.66 376.82 " fill="#000000"/>
<path class="note" d="M 1969.9 408.62 L 1971.6 408.62 L 1971.6 410.22 L 1969.9 410.22 L 1969.9 413.48 L 1968.02 413.48 L 1968.02 410.22 L 1960.7 410.22 L 1960.7 408.96 L 1966.9 399.32 L 1969.9 399.32 L 1969.9 408.62 M 1963.02 408.62 L 1968.02 408.62 L 1968.02 400.6 L 1963.02 408.62 " fill="#000000"/>
<path class="note" d="M 1865.31 318.965 Q 1866.55 318.965, 1867.57 319.505 Q 1868.59 320.025, 1869.17 321.025 Q 1869.75 322.005, 1869.75 323.345 Q 1869.75 324.805, 1869.03 325.865 Q 1868.33 326.905, 1867.17 327.445 Q 1866.01 327.985, 1864.69 327.985 Q 1863.39 327.985, 1862.19 327.505 Q 1860.99 327.025, 1860.17 326.105 L 1861.37 324.865 Q 1862.03 325.585, 1862.93 325.985 Q 1863.83 326.365, 1864.75 326.365 Q 1866.01 326.365, 1866.87 325.585 Q 1867.75 324.805, 1867.75 323.385 Q 1867.75 321.885, 1866.87 321.185 Q 1866.01 320.465, 1864.63 320.465 Q 1863.39 320.465, 1862.01 321.005 L 1860.91 320.485 L 1861.59 313.665 L 1868.87 313.665 L 1868.67 315.265 L 1863.23 315.265 L 1862.81 319.465 Q 1864.07 318.965, 1865.31 318.965 " fill="#000000"/>
<path class="note" d="M 1763 343.061 Q 1764.24 343.061, 1765.22 343.601 Q 1766.2 344.141, 1766.74 345.121 Q 1767.28 346.101, 1767.28 347.341 Q 1767.28 348.721, 1766.66 349.801 Q 1766.06 350.861, 1764.98 351.461 Q 1763.9 352.061, 1762.52 352.061 Q 1760 352.061, 1758.72 350.361 Q 1757.46 348.641, 1757.46 345.241 Q 1757.46 341.481, 1759.02 339.541 Q 1760.6 337.581, 1763.62 337.581 Q 1764.5 337.581, 1765.24 337.781 Q 1766 337.981, 1766.72 338.401 L 1765.94 339.741 Q 1764.9 339.181, 1763.64 339.181 Q 1761.64 339.181, 1760.62 340.481 Q 1759.6 341.761, 1759.48 344.421 Q 1760.2 343.761, 1761.1 343.421 Q 1762.02 343.061, 1763 343.061 M 1762.54 350.421 Q 1763.3 350.421, 1763.92 350.021 Q 1764.56 349.621, 1764.92 348.921 Q 1765.28 348.221, 1765.28 347.361 Q 1765.28 346.101, 1764.58 345.381 Q 1763.88 344.661, 1762.64 344.661 Q 1761.78 344.661, 1760.92 345.021 Q 1760.08 345.361, 1759.48 345.961 Q 1759.56 348.301, 1760.3 349.361 Q 1761.04 350.421, 1762.54 350.421 " fill="#000000"/>
<path class="note" d="M 1693.02 262.414 L 1685.6 262.414 L 1685.6 260.814 L 1695 260.814 L 1695 262.234 L 1689.28 274.974 L 1687.36 274.974 L 1693.02 262.414 " fill="#000000"/>
<path class="note" d="M 1560.82 282.741 Q 1562.12 283.301, 1562.86 284.141 Q 1563.6 284.961, 1563.6 286.361 Q 1563.6 287.561, 1562.98 288.501 Q 1562.36 289.421, 1561.24 289.941 Q 1560.14 290.441, 1558.68 290.441 Q 1556.32 290.441, 1554.96 289.361 Q 1553.6 288.261, 1553.6 286.361 Q 1553.6 285.201, 1554.2 284.341 Q 1554.8 283.461, 1556.04 282.801 Q 1555.12 282.281, 1554.62 281.521 Q 1554.12 280.741, 1554.12 279.541 Q 1554.12 277.881, 1555.32 276.901 Q 1556.54 275.921, 1558.6 275.921 Q 1560.66 275.921, 1561.86 276.901 Q 1563.08 277.881, 1563.08 279.541 Q 1563.08 280.581, 1562.5 281.361 Q 1561.94 282.121, 1560.82 282.741 M 1558.6 277.421 Q 1557.42 277.421, 1556.76 277.981 Q 1556.12 278.541, 1556.12 279.541 Q 1556.12 280.281, 1556.56 280.781 Q 1557 281.261, 1557.62 281.541 Q 1558.26 281.821, 1559.48 282.241 Q 1560.34 281.641, 1560.7 281.001 Q 1561.08 280.361, 1561.08 279.541 Q 1561.08 278.541, 1560.42 277.981 Q 1559.78 277.421, 1558.6 277.421 M 1558.68 288.941 Q 1560 288.941, 1560.8 288.241 Q 1561.6 287.521, 1561.6 286.341 Q 1561.6 285.581, 1561.18 285.101 Q 1560.76 284.621, 1560.12 284.341 Q 1559.5 284.061, 1558.38 283.701 L 1557.48 283.401 Q 1556.48 284.001, 1556.04 284.721 Q 1555.6 285.421, 1555.6 286.341 Q 1555.6 287.521, 1556.44 288.241 Q 1557.28 288.941, 1558.68 288.941 " fill="#000000"/>
<path class="note" d="M 1713.74 130.278 Q 1716.26 130.278, 1717.52 131.998 Q 1718.8 133.698, 1718.8 137.098 Q 1718.8 140.858, 1717.22 142.818 Q 1715.66 144.758, 1712.64 144.758 Q 1711.76 144.758, 1711 144.558 Q 1710.26 144.358, 1709.54 143.938 L 1710.32 142.598 Q 1711.36 143.158, 1712.62 143.158 Q 1714.62 143.158, 1715.64 141.878 Q 1716.66 140.578, 1716.78 137.918 Q 1716.06 138.578, 1715.14 138.938 Q 1714.24 139.278, 1713.26 139.278 Q 1712.02 139.278, 1711.04 138.738 Q 1710.06 138.198, 1709.52 137.218 Q 1708.98 136.238, 1708.98 134.998 Q 1708.98 133.618, 1709.58 132.558 Q 1710.2 131.478, 1711.28 130.878 Q 1712.36 130.278, 1713.74 130.278 M 1710.98 134.978 Q 1710.98 136.238, 1711.68 136.958 Q 1712.38 137.678, 1713.62 137.678 Q 1714.48 137.678, 1715.32 137.338 Q 1716.18 136.978, 1716.78 136.378 Q 1716.7 134.038, 1715.96 132.978 Q 1715.22 131.918, 1713.72 131.918 Q 1712.96 131.918, 1712.32 132.318 Q 1711.7 132.718, 1711.34 133.418 Q 1710.98 134.118, 1710.98 134.978 " fill="#000000"/>
<path class="note" d="M 1820.02 115.004 L 1823.12 115.004 L 1823.12 104.424 L 1819.7 105.484 L 1819.24 104.304 L 1823.58 102.364 L 1825 102.604 L 1825 115.004 L 1827.78 115.004 L 1827.78 116.604 L 1820.02 116.604 L 1820.02 115.004 " fill="#000000"/>
<path class="note" d="M 1834.18 116.764 Q 1831.58 116.764, 1830.28 114.844 Q 1829 112.924, 1829 109.504 Q 1829 106.084, 1830.28 104.184 Q 1831.56 102.284, 1834.18 102.284 Q 1836.8 102.284, 1838.08 104.184 Q 1839.36 106.084, 1839.36 109.504 Q 1839.36 112.924, 1838.06 114.844 Q 1836.78 116.764, 1834.18 116.764 M 1834.18 115.164 Q 1835.72 115.164, 1836.54 113.744 Q 1837.36 112.304, 1837.36 109.504 Q 1837.36 106.724, 1836.54 105.304 Q 1835.72 103.884, 1834.18 103.884 Q 1832.66 103.884, 1831.82 105.304 Q 1831 106.724, 1831 109.504 Q 1831 112.304, 1831.82 113.744 Q 1832.66 115.164, 1834.18 115.164 " fill="#000000"/>
<path class="note" d="M 1898.16 175.003 L 1901.26 175.003 L 1901.26 164.423 L 1897.84 165.483 L 1897.38 164.303 L 1901.72 162.363 L 1903.14 162.603 L 1903.14 175.003 L 1905.92 175.003 L 1905.92 176.603 L 1898.16 176.603 L 1898.16 175.003 " fill="#000000"/>
<path class="note" d="M 1907.78 175.003 L 1910.88 175.003 L 1910.88 164.423 L 1907.46 165.483 L 1907 164.303 L 1911.34 162.363 L 1912.76 162.603 L 1912.76 175.003 L 1915.54 175.003 L 1915.54 176.603 L 1907.78 176.603 L 1907.78 175.003 " fill="#000000"/>
<path class="note" d="M 1986.12 167.564 L 1989.22 167.564 L 1989.22 156.984 L 1985.8 158.044 L 1985.34 156.864 L 1989.68 154.924 L 1991.1 155.164 L 1991.1 167.564 L 1993.88 167.564 L 1993.88 169.164 L 1986.12 169.164 L 1986.12 167.564 " fill="#000000"/>
<path class="note" d="M 1994.92 157.684 Q 1995.44 156.344, 1996.68 155.604 Q 1997.92 154.844, 1999.64 154.844 Q 2001.78 154.844, 2002.98 156.004 Q 2004.18 157.164, 2004.18 159.224 Q 2004.18 161.324, 2002.62 163.284 Q 2001.08 165.244, 1997.88 167.564 L 2004.42 167.564 L 2004.42 169.164 L 1994.88 169.164 L 1994.88 167.824 Q 1997.52 165.944, 1999.08 164.544 Q 2000.66 163.144, 2001.42 161.884 Q 2002.18 160.624, 2002.18 159.324 Q 2002.18 157.964, 2001.5 157.204 Q 2000.82 156.444, 1999.64 156.444 Q 1998.5 156.444, 1997.74 156.904 Q 1996.98 157.364, 1996.44 158.384 L 1994.92 157.684 " fill="#000000"/>
<path class="note" d="M 2508.35 264.326 L 2511.45 264.326 L 2511.45 253.746 L 2508.03 254.806 L 2507.57 253.626 L 2511.91 251.686 L 2513.33 251.926 L 2513.33 264.326 L 2516.11 264.326 L 2516.11 265.926 L 2508.35 265.926 L 2508.35 264.326 " fill="#000000"/>
<path class="note" d="M 2601.2 232.587 Q 2601.72 231.247, 2602.96 230.507 Q 2604.2 229.747, 2605.92 229.747 Q 2608.06 229.747, 2609.26 230.907 Q 2610.46 232.067, 2610.46 234.127 Q 2610.46 236.227, 2608.9 238.187 Q 2607.36 240.147, 2604.16 242.467 L 2610.7 242.467 L 2610.7 244.067 L 2601.16 244.067 L 2601.16 242.727 Q 2603.8 240.847, 2605.36 239.447 Q 2606.94 238.047, 2607.7 236.787 Q 2608.46 235.527, 2608.46 234.227 Q 2608.46 232.867, 2607.78 232.107 Q 2607.1 231.347, 2605.92 231.347 Q 2604.78 231.347, 2604.02 231.807 Q 2603.26 232.267, 2602.72 233.287 L 2601.2 232.587 " fill="#000000"/>
<path class="note" d="M 2657.57 86.5582 Q 2658.95 86.9582, 2659.61 87.8582 Q 2660.29 88.7382, 2660.29 90.1382 Q 2660.29 91.3382, 2659.69 92.2782 Q 2659.09 93.1982, 2657.99 93.7182 Q 2656.89 94.2182, 2655.45 94.2182 Q 2653.93 94.2182, 2652.79 93.6982 Q 2651.67 93.1582, 2650.77 92.0782 L 2651.91 90.9182 Q 2652.79 91.8782, 2653.53 92.2582 Q 2654.27 92.6182, 2655.45 92.6182 Q 2656.73 92.6182, 2657.51 91.9382 Q 2658.29 91.2382, 2658.29 90.1182 Q 2658.29 88.6782, 2657.47 88.0382 Q 2656.67 87.3782, 2654.93 87.3782 L 2653.91 87.3782 L 2653.91 85.9382 L 2654.81 85.9382 Q 2656.35 85.9182, 2657.17 85.2582 Q 2657.99 84.5782, 2657.99 83.3182 Q 2657.99 82.3982, 2657.31 81.8582 Q 2656.63 81.2982, 2655.47 81.2982 Q 2654.29 81.2982, 2653.55 81.7182 Q 2652.83 82.1382, 2652.27 83.1982 L 2650.89 82.4582 Q 2651.39 81.2782, 2652.59 80.4982 Q 2653.79 79.6982, 2655.47 79.6982 Q 2657.55 79.6982, 2658.77 80.6782 Q 2659.99 81.6582, 2659.99 83.3182 Q 2659.99 84.4582, 2659.37 85.2782 Q 2658.75 86.0982, 2657.57 86.5582 " fill="#000000"/>
<path class="note" d="M 2708.65 327.329 L 2710.35 327.329 L 2710.35 328.929 L 2708.65 328.929 L 2708.65 332.189 L 2706.77 332.189 L 2706.77 328.929 L 2699.45 328.929 L 2699.45 327.669 L 2705.65 318.029 L 2708.65 318.029 L 2708.65 327.329 M 2701.77 327.329 L 2706.77 327.329 L 2706.77 319.309 L 2701.77 327.329 " fill="#000000"/>
<path class="note" d="M 2773.37 262.624 Q 2774.61 262.624, 2775.63 263.164 Q 2776.65 263.684, 2777.23 264.684 Q 2777.81 265.664, 2777.81 267.004 Q 2777.81 268.464, 2777.09 269.524 Q 2776.39 270.564, 2775.23 271.104 Q 2774.07 271.644, 2772.75 271.644 Q 2771.45 271.644, 2770.25 271.164 Q 2769.05 270.684, 2768.23 269.764 L 2769.43 268.524 Q 2770.09 269.244, 2770.99 269.644 Q 2771.89 270.024, 2772.81 270.024 Q 2774.07 270.024, 2774.93 269.244 Q 2775.81 268.464, 2775.81 267.044 Q 2775.81 265.544, 2774.93 264.844 Q 2774.07 264.124, 2772.69 264.124 Q 2771.45 264.124, 2770.07 264.664 L 2768.97 264.144 L 2769.65 257.324 L 2776.93 257.324 L 2776.73 258.924 L 2771.29 258.924 L 2770.87 263.124 Q 2772.13 262.624, 2773.37 262.624 " fill="#000000"/>
<path class="note" d="M 2806.72 162.692 Q 2807.96 162.692, 2808.94 163.232 Q 2809.92 163.772, 2810.46 164.752 Q 2811 165.732, 2811 166.972 Q 2811 168.352, 2810.38 169.432 Q 2809.78 170.492, 2808.7 171.092 Q 2807.62 171.692, 2806.24 171.692 Q 2803.72 171.692, 2802.44 169.992 Q 2801.18 168.272, 2801.18 164.872 Q 2801.18 161.112, 2802.74 159.172 Q 2804.32 157.212, 2807.34 157.212 Q 2808.22 157.212, 2808.96 157.412 Q 2809.72 157.612, 2810.44 158.032 L 2809.66 159.372 Q 2808.62 158.812, 2807.36 158.812 Q 2805.36 158.812, 2804.34 160.112 Q 2803.32 161.392, 2803.2 164.052 Q 2803.92 163.392, 2804.82 163.052 Q 2805.74 162.692, 2806.72 162.692 M 2806.26 170.052 Q 2807.02 170.052, 2807.64 169.652 Q 2808.28 169.252, 2808.64 168.552 Q 2809 167.852, 2809 166.992 Q 2809 165.732, 2808.3 165.012 Q 2807.6 164.292, 2806.36 164.292 Q 2805.5 164.292, 2804.64 164.652 Q 2803.8 164.992, 2803.2 165.592 Q 2803.28 167.932, 2804.02 168.992 Q 2804.76 170.052, 2806.26 170.052 " fill="#000000"/>
<path class="note" d="M 2911.97 137.515 L 2904.55 137.515 L 2904.55 135.915 L 2913.95 135.915 L 2913.95 137.335 L 2908.23 150.075 L 2906.31 150.075 L 2911.97 137.515 " fill="#000000"/>
<path class="note" d="M 2967.25 22.3873 Q 2968.55 22.9473, 2969.29 23.7873 Q 2970.03 24.6073, 2970.03 26.0073 Q 2970.03 27.2073, 2969.41 28.1473 Q 2968.79 29.0673, 2967.67 29.5873 Q 2966.57 30.0873, 2965.11 30.0873 Q 2962.75 30.0873, 2961.39 29.0073 Q 2960.03 27.9073, 2960.03 26.0073 Q 2960.03 24.8473, 2960.63 23.9873 Q 2961.23 23.1073, 2962.47 22.4473 Q 2961.55 21.9273, 2961.05 21.1673 Q 2960.55 20.3873, 2960.55 19.1873 Q 2960.55 17.5273, 2961.75 16.5473 Q 2962.97 15.5673, 2965.03 15.5673 Q 2967.09 15.5673, 2968.29 16.5473 Q 2969.51 17.5273, 2969.51 19.1873 Q 2969.51 20.2273, 2968.93 21.0073 Q 2968.37 21.7673, 2967.25 22.3873 M 2965.03 17.0673 Q 2963.85 17.0673, 2963.19 17.6273 Q 2962.55 18.1873, 2962.55 19.1873 Q 2962.55 19.9273, 2962.99 20.4273 Q 2963.43 20.9073, 2964.05 21.1873 Q 2964.69 21.4673, 2965.91 21.8873 Q 2966.77 21.2873, 2967.13 20.6473 Q 2967.51 20.0073, 2967.51 19.1873 Q 2967.51 18.1873, 2966.85 17.6273 Q 2966.21 17.0673, 2965.03 17.0673 M 2965.11 28.5873 Q 2966.43 28.5873, 2967.23 27.8873 Q 2968.03 27.1673, 2968.03 25.9873 Q 2968.03 25.2273, 2967.61 24.7473 Q 2967.19 24.2673, 2966.55 23.9873 Q 2965.93 23.7073, 2964.81 23.3473 L 2963.91 23.0473 Q 2962.91 23.6473, 2962.47 24.3673 Q 2962.03 25.0673, 2962.03 25.9873 Q 2962.03 27.1673, 2962.87 27.8873 Q 2963.71 28.5873, 2965.11 28.5873 " fill="#000000"/>
<path class="note" d="M 3008.08 224.037 Q 3010.6 224.037, 3011.86 225.757 Q 3013.14 227.457, 3013.14 230.857 Q 3013.14 234.617, 3011.56 236.577 Q 3010 238.517, 3006.98 238.517 Q 3006.1 238.517, 3005.34 238.317 Q 3004.6 238.117, 3003.88 237.697 L 3004.66 236.357 Q 3005.7 236.917, 3006.96 236.917 Q 3008.96 236.917, 3009.98 235.637 Q 3011 234.337, 3011.12 231.677 Q 3010.4 232.337, 3009.48 232.697 Q 3008.58 233.037, 3007.6 233.037 Q 3006.36 233.037, 3005.38 232.497 Q 3004.4 231.957, 3003.86 230.977 Q 3003.32 229.997, 3003.32 228.757 Q 3003.32 227.377, 3003.92 226.317 Q 3004.54 225.237, 3005.62 224.637 Q 3006.7 224.037, 3008.08 224.037 M 3005.32 228.737 Q 3005.32 229.997, 3006.02 230.717 Q 3006.72 231.437, 3007.96 231.437 Q 3008.82 231.437, 3009.66 231.097 Q 3010.52 230.737, 3011.12 230.137 Q 3011.04 227.797, 3010.3 226.737 Q 3009.56 225.677, 3008.06 225.677 Q 3007.3 225.677, 3006.66 226.077 Q 3006.04 226.477, 3005.68 227.177 Q 3005.32 227.877, 3005.32 228.737 " fill="#000000"/>
<path class="note" d="M 2956.09 353.461 L 2959.19 353.461 L 2959.19 342.881 L 2955.77 343.941 L 2955.31 342.761 L 2959.65 340.821 L 2961.07 341.061 L 2961.07 353.461 L 2963.85 353.461 L 2963.85 355.061 L 2956.09 355.061 L 2956.09 353.461 " fill="#000000"/>
<path class="note" d="M 2970.25 355.221 Q 2967.65 355.221, 2966.35 353.301 Q 2965.07 351.381, 2965.07 347.961 Q 2965.07 344.541, 2966.35 342.641 Q 2967.63 340.741, 2970.25 340.741 Q 2972.87 340.741, 2974.15 342.641 Q 2975.43 344.541, 2975.43 347.961 Q 2975.43 351.381, 2974.13 353.301 Q 2972.85 355.221, 2970.25 355.221 M 2970.25 353.621 Q 2971.79 353.621, 2972.61 352.201 Q 2973.43 350.761, 2973.43 347.961 Q 2973.43 345.181, 2972.61 343.761 Q 2971.79 342.341, 2970.25 342.341 Q 2968.73 342.341, 2967.89 343.761 Q 2967.07 345.181, 2967.07 347.961 Q 2967.07 350.761, 2967.89 352.201 Q 2968.73 353.621, 2970.25 353.621 " fill="#000000"/>
<path class="note" d="M 2825.03 365.252 L 2828.13 365.252 L 2828.13 354.672 L 2824.71 355.732 L 2824.25 354.552 L 2828.59 352.612 L 2830.01 352.852 L 2830.01 365.252 L 2832.79 365.252 L 2832.79 366.852 L 2825.03 366.852 L 2825.03 365.252 " fill="#000000"/>
<path class="note" d="M 2834.65 365.252 L 2837.75 365.252 L 2837.75 354.672 L 2834.33 355.732 L 2833.87 354.552 L 2838.21 352.612 L 2839.63 352.852 L 2839.63 365.252 L 2842.41 365.252 L 2842.41 366.852 L 2834.65 366.852 L 2834.65 365.252 " fill="#000000"/>
<path class="note" d="M 2797.01 448.652 L 2800.11 448.652 L 2800.11 438.072 L 2796.69 439.132 L 2796.23 437.952 L 2800.57 436.012 L 2801.99 436.252 L 2801.99 448.652 L 2804.77 448.652 L 2804.77 450.252 L 2797.01 450.252 L 2797.01 448.652 " fill="#000000"/>
<path class="note" d="M 2805.81 438.772 Q 2806.33 437.432, 2807.57 436.692 Q 2808.81 435.932, 2810.53 435.932 Q 2812.67 435.932, 2813.87 437.092 Q 2815.07 438.252, 2815.07 440.312 Q 2815.07 442.412, 2813.51 444.372 Q 2811.97 446.332, 2808.77 448.652 L 2815.31 448.652 L 2815.31 450.252 L 2805.77 450.252 L 2805.77 448.912 Q 2808.41 447.032, 2809.97 445.632 Q 2811.55 444.232, 2812.31 442.972 Q 2813.07 441.712, 2813.07 440.412 Q 2813.07 439.052, 2812.39 438.292 Q 2811.71 437.532, 2810.53 437.532 Q 2809.39 437.532, 2808.63 437.992 Q 2807.87 438.452, 2807.33 439.472 L 2805.81 438.772 " fill="#000000"/>
<path d="M 1466.29 253.822 L 1472.33 253.822 L 1472.33 247.454 L 1475.02 247.454 L 1475.02 253.822 L 1481.23 253.822 L 1481.23 256.126 L 1475.02 256.126 L 1475.02 262.526 L 1472.33 262.526 L 1472.33 256.126 L 1466.29 256.126 L 1466.29 253.822 " fill="#000000"/>
<path d="M 2146.25,256.126 L 2352.26,256.126" style="fill:none;fill-rule:evenodd;stroke:#000000;stroke-width:2.0px;stroke-linecap:butt;stroke-linejoin:miter;stroke-opacity:1"/>
<path d="M 2352.26,256.126 L 2343.34,250.976" style="fill:none;fill-rule:evenodd;stroke:#000000;stroke-width:2.0px;stroke-linecap:butt;stroke-linejoin:miter;stroke-opacity:1"/>
<path d="M 2352.26,256.126 L 2343.34,261.276" style="fill:none;fill-rule:evenodd;stroke:#000000;stroke-width:2.0px;stroke-linecap:butt;stroke-linejoin:miter;stroke-opacity:1"/>
</svg>