<svg xmlns="http://www.w3.org/2000/svg" xmlns:rdkit="http://www.rdkit.org/xml" xmlns:xlink="http://www.w3.org/1999/xlink" version="1.1" baseProfile="full" xml:space="preserve" width="4000px" height="500px" viewBox="0 0 4000 500">
<!-- END OF HEADER -->
<rect style="opacity:1.0;fill:#FFFFFF;stroke:none" width="4000" height="500" x="0" y="0"> </rect>
<path d="M 410.357,171.215 L 524.626,237.188" style="fill:none;fill-rule:evenodd;stroke:#FFFFAA;stroke-width:28.1px;stroke-linecap:butt;stroke-linejoin:miter;stroke-opacity:1"/>
<path d="M 524.626,237.188 L 638.895,171.215" style="fill:none;fill-rule:evenodd;stroke:#FFFFAA;stroke-width:28.1px;stroke-linecap:butt;stroke-linejoin:miter;stroke-opacity:1"/>
<path d="M 524.626,237.188 L 524.626,369.135" style="fill:none;fill-rule:evenodd;stroke:#FFFFAA;stroke-width:28.1px;stroke-linecap:butt;stroke-linejoin:miter;stroke-opacity:1"/>
<path d="M 998.274,345.892 L 1117.23,288.802" style="fill:none;fill-rule:evenodd;stroke:#FFCC99;stroke-width:28.1px;stroke-linecap:butt;stroke-linejoin:miter;stroke-opacity:1"/>
<path d="M 1117.23,288.802 L 1127.27,157.237" style="fill:none;fill-rule:evenodd;stroke:#FFCC99;stroke-width:28.1px;stroke-linecap:butt;stroke-linejoin:miter;stroke-opacity:1"/>
<path d="M 1117.23,288.802 L 1226.15,363.276" style="fill:none;fill-rule:evenodd;stroke:#FFCC99;stroke-width:28.1px;stroke-linecap:butt;stroke-linejoin:miter;stroke-opacity:1"/>
<path d="M 1127.27,157.237 L 1246.22,100.147" style="fill:none;fill-rule:evenodd;stroke:#FFCC99;stroke-width:28.1px;stroke-linecap:butt;stroke-linejoin:miter;stroke-opacity:1"/>
<path d="M 1246.22,100.147 L 1355.14,174.622" style="fill:none;fill-rule:evenodd;stroke:#FFCC99;stroke-width:28.1px;stroke-linecap:butt;stroke-linejoin:miter;stroke-opacity:1"/>
<path d="M 1355.14,174.622 L 1474.1,117.532" style="fill:none;fill-rule:evenodd;stroke:#FFCC99;stroke-width:28.1px;stroke-linecap:butt;stroke-linejoin:miter;stroke-opacity:1"/>
<path d="M 1355.14,174.622 L 1345.11,306.186" style="fill:none;fill-rule:evenodd;stroke:#FFCC99;stroke-width:28.1px;stroke-linecap:butt;stroke-linejoin:miter;stroke-opacity:1"/>
<path d="M 1474.1,117.532 L 1583.02,192.006" style="fill:none;fill-rule:evenodd;stroke:#FFCC99;stroke-width:28.1px;stroke-linecap:butt;stroke-linejoin:miter;stroke-opacity:1"/>
<path d="M 1583.02,192.006 L 1572.98,323.571" style="fill:none;fill-rule:evenodd;stroke:#FFCC99;stroke-width:28.1px;stroke-linecap:butt;stroke-linejoin:miter;stroke-opacity:1"/>
<path d="M 1583.02,192.006 L 1701.98,134.917" style="fill:none;fill-rule:evenodd;stroke:#FFCC99;stroke-width:28.1px;stroke-linecap:butt;stroke-linejoin:miter;stroke-opacity:1"/>
<path d="M 1572.98,323.571 L 1681.9,398.046" style="fill:none;fill-rule:evenodd;stroke:#FFCC99;stroke-width:28.1px;stroke-linecap:butt;stroke-linejoin:miter;stroke-opacity:1"/>
<path d="M 1681.9,398.046 L 1800.86,340.956" style="fill:none;fill-rule:evenodd;stroke:#FFCC99;stroke-width:28.1px;stroke-linecap:butt;stroke-linejoin:miter;stroke-opacity:1"/>
<path d="M 1800.86,340.956 L 1810.9,209.391" style="fill:none;fill-rule:evenodd;stroke:#FFCC99;stroke-width:28.1px;stroke-linecap:butt;stroke-linejoin:miter;stroke-opacity:1"/>
<path d="M 1810.9,209.391 L 1701.98,134.917" style="fill:none;fill-rule:evenodd;stroke:#FFCC99;stroke-width:28.1px;stroke-linecap:butt;stroke-linejoin:miter;stroke-opacity:1"/>
<path d="M 1345.11,306.186 L 1226.15,363.276" style="fill:none;fill-rule:evenodd;stroke:#FFCC99;stroke-width:28.1px;stroke-linecap:butt;stroke-linejoin:miter;stroke-opacity:1"/>
<path d="M 2737.13,324.772 L 2856.47,268.478" style="fill:none;fill-rule:evenodd;stroke:#FFFFAA;stroke-width:28.1px;stroke-linecap:butt;stroke-linejoin:miter;stroke-opacity:1"/>
<path d="M 2856.47,268.478 L 2867.38,136.984" style="fill:none;fill-rule:evenodd;stroke:#FFFFAA;stroke-width:28.1px;stroke-linecap:butt;stroke-linejoin:miter;stroke-opacity:1"/>
<path d="M 2964.89,343.679 L 3084.22,287.386" style="fill:none;fill-rule:evenodd;stroke:#FFCC99;stroke-width:28.1px;stroke-linecap:butt;stroke-linejoin:miter;stroke-opacity:1"/>
<path d="M 3084.22,287.386 L 3095.14,155.891" style="fill:none;fill-rule:evenodd;stroke:#FFCC99;stroke-width:28.1px;stroke-linecap:butt;stroke-linejoin:miter;stroke-opacity:1"/>
<path d="M 3084.22,287.386 L 3192.64,362.587" style="fill:none;fill-rule:evenodd;stroke:#FFCC99;stroke-width:28.1px;stroke-linecap:butt;stroke-linejoin:miter;stroke-opacity:1"/>
<path d="M 3095.14,155.891 L 3214.47,99.598" style="fill:none;fill-rule:evenodd;stroke:#FFCC99;stroke-width:28.1px;stroke-linecap:butt;stroke-linejoin:miter;stroke-opacity:1"/>
<path d="M 3214.47,99.598 L 3322.89,174.799" style="fill:none;fill-rule:evenodd;stroke:#FFCC99;stroke-width:28.1px;stroke-linecap:butt;stroke-linejoin:miter;stroke-opacity:1"/>
<path d="M 3322.89,174.799 L 3442.23,118.506" style="fill:none;fill-rule:evenodd;stroke:#FFCC99;stroke-width:28.1px;stroke-linecap:butt;stroke-linejoin:miter;stroke-opacity:1"/>
<path d="M 3322.89,174.799 L 3311.98,306.293" style="fill:none;fill-rule:evenodd;stroke:#FFCC99;stroke-width:28.1px;stroke-linecap:butt;stroke-linejoin:miter;stroke-opacity:1"/>
<path d="M 3442.23,118.506 L 3550.65,193.707" style="fill:none;fill-rule:evenodd;stroke:#FFCC99;stroke-width:28.1px;stroke-linecap:butt;stroke-linejoin:miter;stroke-opacity:1"/>
<path d="M 3550.65,193.707 L 3539.73,325.201" style="fill:none;fill-rule:evenodd;stroke:#FFCC99;stroke-width:28.1px;stroke-linecap:butt;stroke-linejoin:miter;stroke-opacity:1"/>
<path d="M 3550.65,193.707 L 3669.98,137.413" style="fill:none;fill-rule:evenodd;stroke:#FFCC99;stroke-width:28.1px;stroke-linecap:butt;stroke-linejoin:miter;stroke-opacity:1"/>
<path d="M 3539.73,325.201 L 3648.15,400.402" style="fill:none;fill-rule:evenodd;stroke:#FFCC99;stroke-width:28.1px;stroke-linecap:butt;stroke-linejoin:miter;stroke-opacity:1"/>
<path d="M 3648.15,400.402 L 3767.49,344.109" style="fill:none;fill-rule:evenodd;stroke:#FFCC99;stroke-width:28.1px;stroke-linecap:butt;stroke-linejoin:miter;stroke-opacity:1"/>
<path d="M 3767.49,344.109 L 3778.4,212.614" style="fill:none;fill-rule:evenodd;stroke:#FFCC99;stroke-width:28.1px;stroke-linecap:butt;stroke-linejoin:miter;stroke-opacity:1"/>
<path d="M 3778.4,212.614 L 3669.98,137.413" style="fill:none;fill-rule:evenodd;stroke:#FFCC99;stroke-width:28.1px;stroke-linecap:butt;stroke-linejoin:miter;stroke-opacity:1"/>
<path d="M 3311.98,306.293 L 3192.64,362.587" style="fill:none;fill-rule:evenodd;stroke:#FFCC99;stroke-width:28.1px;stroke-linecap:butt;stroke-linejoin:miter;stroke-opacity:1"/>
<ellipse cx="524.626" cy="237.188" rx="26.3894" ry="26.3894" style="fill:#FFFFAA;fill-rule:evenodd;stroke:#FFFFAA;stroke-width:1px;stroke-linecap:butt;stroke-linejoin:miter;stroke-opacity:1"/>
<ellipse cx="638.895" cy="171.215" rx="26.3894" ry="26.3894" style="fill:#FFFFAA;fill-rule:evenodd;stroke:#FFFFAA;stroke-width:1px;stroke-linecap:butt;stroke-linejoin:miter;stroke-opacity:1"/>
<ellipse cx="524.626" cy="369.355" rx="26.3894" ry="26.3894" style="fill:#FFFFAA;fill-rule:evenodd;stroke:#FFFFAA;stroke-width:1px;stroke-linecap:butt;stroke-linejoin:miter;stroke-opacity:1"/>
<ellipse cx="978.577" cy="352.972" rx="43.0436" ry="30.0379" style="fill:#FFCC99;fill-rule:evenodd;stroke:#FFCC99;stroke-width:1px;stroke-linecap:butt;stroke-linejoin:miter;stroke-opacity:1"/>
<ellipse cx="1117.23" cy="288.802" rx="26.3894" ry="26.3894" style="fill:#FFCC99;fill-rule:evenodd;stroke:#FFCC99;stroke-width:1px;stroke-linecap:butt;stroke-linejoin:miter;stroke-opacity:1"/>
<ellipse cx="1127.27" cy="157.237" rx="26.3894" ry="26.3894" style="fill:#FFCC99;fill-rule:evenodd;stroke:#FFCC99;stroke-width:1px;stroke-linecap:butt;stroke-linejoin:miter;stroke-opacity:1"/>
<ellipse cx="1246.22" cy="100.147" rx="26.3894" ry="26.3894" style="fill:#FFCC99;fill-rule:evenodd;stroke:#FFCC99;stroke-width:1px;stroke-linecap:butt;stroke-linejoin:miter;stroke-opacity:1"/>
<ellipse cx="1355.14" cy="174.622" rx="26.3894" ry="26.3894" style="fill:#FFCC99;fill-rule:evenodd;stroke:#FFCC99;stroke-width:1px;stroke-linecap:butt;stroke-linejoin:miter;stroke-opacity:1"/>
<ellipse cx="1474.1" cy="117.532" rx="26.3894" ry="26.3894" style="fill:#FFCC99;fill-rule:evenodd;stroke:#FFCC99;stroke-width:1px;stroke-linecap:butt;stroke-linejoin:miter;stroke-opacity:1"/>
<ellipse cx="1583.02" cy="192.006" rx="26.3894" ry="26.3894" style="fill:#FFCC99;fill-rule:evenodd;stroke:#FFCC99;stroke-width:1px;stroke-linecap:butt;stroke-linejoin:miter;stroke-opacity:1"/>
<ellipse cx="1572.98" cy="323.571" rx="26.3894" ry="26.3894" style="fill:#FFCC99;fill-rule:evenodd;stroke:#FFCC99;stroke-width:1px;stroke-linecap:butt;stroke-linejoin:miter;stroke-opacity:1"/>
<ellipse cx="1681.9" cy="398.046" rx="26.3894" ry="26.3894" style="fill:#FFCC99;fill-rule:evenodd;stroke:#FFCC99;stroke-width:1px;stroke-linecap:butt;stroke-linejoin:miter;stroke-opacity:1"/>
<ellipse cx="1800.86" cy="340.956" rx="26.3894" ry="26.3894" style="fill:#FFCC99;fill-rule:evenodd;stroke:#FFCC99;stroke-width:1px;stroke-linecap:butt;stroke-linejoin:miter;stroke-opacity:1"/>
<ellipse cx="1810.9" cy="209.391" rx="26.3894" ry="26.3894" style="fill:#FFCC99;fill-rule:evenodd;stroke:#FFCC99;stroke-width:1px;stroke-linecap:butt;stroke-linejoin:miter;stroke-opacity:1"/>
<ellipse cx="1701.98" cy="134.917" rx="26.3894" ry="26.3894" style="fill:#FFCC99;fill-rule:evenodd;stroke:#FFCC99;stroke-width:1px;stroke-linecap:butt;stroke-linejoin:miter;stroke-opacity:1"/>
<ellipse cx="1345.11" cy="306.186" rx="26.3894" ry="26.3894" style="fill:#FFCC99;fill-rule:evenodd;stroke:#FFCC99;stroke-width:1px;stroke-linecap:butt;stroke-linejoin:miter;stroke-opacity:1"/>
<ellipse cx="1226.15" cy="363.276" rx="26.3894" ry="26.3894" style="fill:#FFCC99;fill-rule:evenodd;stroke:#FFCC99;stroke-width:1px;stroke-linecap:butt;stroke-linejoin:miter;stroke-opacity:1"/>
<ellipse cx="2737.13" cy="324.772" rx="26.3894" ry="26.3894" style="fill:#FFFFAA;fill-rule:evenodd;stroke:#FFFFAA;stroke-width:1px;stroke-linecap:butt;stroke-linejoin:miter;stroke-opacity:1"/>
<ellipse cx="2856.47" cy="268.478" rx="26.3894" ry="26.3894" style="fill:#FFFFAA;fill-rule:evenodd;stroke:#FFFFAA;stroke-width:1px;stroke-linecap:butt;stroke-linejoin:miter;stroke-opacity:1"/>
<ellipse cx="2867.38" cy="137.204" rx="26.3894" ry="26.3894" style="fill:#FFFFAA;fill-rule:evenodd;stroke:#FFFFAA;stroke-width:1px;stroke-linecap:butt;stroke-linejoin:miter;stroke-opacity:1"/>
<ellipse cx="2964.89" cy="359.255" rx="26.3894" ry="42.0531" style="fill:#FFCC99;fill-rule:evenodd;stroke:#FFCC99;stroke-width:1px;stroke-linecap:butt;stroke-linejoin:miter;stroke-opacity:1"/>
<ellipse cx="3084.22" cy="287.386" rx="26.3894" ry="26.3894" style="fill:#FFCC99;fill-rule:evenodd;stroke:#FFCC99;stroke-width:1px;stroke-linecap:butt;stroke-linejoin:miter;stroke-opacity:1"/>
<ellipse cx="3095.14" cy="155.891" rx="26.3894" ry="26.3894" style="fill:#FFCC99;fill-rule:evenodd;stroke:#FFCC99;stroke-width:1px;stroke-linecap:butt;stroke-linejoin:miter;stroke-opacity:1"/>
<ellipse cx="3214.47" cy="99.598" rx="26.3894" ry="26.3894" style="fill:#FFCC99;fill-rule:evenodd;stroke:#FFCC99;stroke-width:1px;stroke-linecap:butt;stroke-linejoin:miter;stroke-opacity:1"/>
<ellipse cx="3322.89" cy="174.799" rx="26.3894" ry="26.3894" style="fill:#FFCC99;fill-rule:evenodd;stroke:#FFCC99;stroke-width:1px;stroke-linecap:butt;stroke-linejoin:miter;stroke-opacity:1"/>
<ellipse cx="3442.23" cy="118.506" rx="26.3894" ry="26.3894" style="fill:#FFCC99;fill-rule:evenodd;stroke:#FFCC99;stroke-width:1px;stroke-linecap:butt;stroke-linejoin:miter;stroke-opacity:1"/>
<ellipse cx="3550.65" cy="193.707" rx="26.3894" ry="26.3894" style="fill:#FFCC99;fill-rule:evenodd;stroke:#FFCC99;stroke-width:1px;stroke-linecap:butt;stroke-linejoin:miter;stroke-opacity:1"/>
<ellipse cx="3539.73" cy="325.201" rx="26.3894" ry="26.3894" style="fill:#FFCC99;fill-rule:evenodd;stroke:#FFCC99;stroke-width:1px;stroke-linecap:butt;stroke-linejoin:miter;stroke-opacity:1"/>
<ellipse cx="3648.15" cy="400.402" rx="26.3894" ry="26.3894" style="fill:#FFCC99;fill-rule:evenodd;stroke:#FFCC99;stroke-width:1px;stroke-linecap:butt;stroke-linejoin:miter;stroke-opacity:1"/>
<ellipse cx="3767.49" cy="344.109" rx="26.3894" ry="26.3894" style="fill:#FFCC99;fill-rule:evenodd;stroke:#FFCC99;stroke-width:1px;stroke-linecap:butt;stroke-linejoin:miter;stroke-opacity:1"/>
<ellipse cx="3778.4" cy="212.614" rx="26.3894" ry="26.3894" style="fill:#FFCC99;fill-rule:evenodd;stroke:#FFCC99;stroke-width:1px;stroke-linecap:butt;stroke-linejoin:miter;stroke-opacity:1"/>
<ellipse cx="3669.98" cy="137.413" rx="26.3894" ry="26.3894" style="fill:#FFCC99;fill-rule:evenodd;stroke:#FFCC99;stroke-width:1px;stroke-linecap:butt;stroke-linejoin:miter;stroke-opacity:1"/>
<ellipse cx="3311.98" cy="306.293" rx="26.3894" ry="26.3894" style="fill:#FFCC99;fill-rule:evenodd;stroke:#FFCC99;stroke-width:1px;stroke-linecap:butt;stroke-linejoin:miter;stroke-opacity:1"/>
<ellipse cx="3192.64" cy="362.587" rx="26.3894" ry="26.3894" style="fill:#FFCC99;fill-rule:evenodd;stroke:#FFCC99;stroke-width:1px;stroke-linecap:butt;stroke-linejoin:miter;stroke-opacity:1"/>
<path class="bond-0" d="M 181.818,171.215 L 296.087,237.188" style="fill:none;fill-rule:evenodd;stroke:#000000;stroke-width:2.0px;stroke-linecap:butt;stroke-linejoin:miter;stroke-opacity:1"/>
<path class="bond-1" d="M 282.893,237.188 L 282.893,294.352" style="fill:none;fill-rule:evenodd;stroke:#000000;stroke-width:2.0px;stroke-linecap:butt;stroke-linejoin:miter;stroke-opacity:1"/>
<path class="bond-1" d="M 282.893,294.352 L 282.893,351.516" style="fill:none;fill-rule:evenodd;stroke:#FF0000;stroke-width:2.0px;stroke-linecap:butt;stroke-linejoin:miter;stroke-opacity:1"/>
<path class="bond-1" d="M 309.282,237.188 L 309.282,294.352" style="fill:none;fill-rule:evenodd;stroke:#000000;stroke-width:2.0px;stroke-linecap:butt;stroke-linejoin:miter;stroke-opacity:1"/>
<path class="bond-1" d="M 309.282,294.352 L 309.282,351.516" style="fill:none;fill-rule:evenodd;stroke:#FF0000;stroke-width:2.0px;stroke-linecap:butt;stroke-linejoin:miter;stroke-opacity:1"/>
<path class="bond-2" d="M 296.087,237.188 L 345.073,208.906" style="fill:none;fill-rule:evenodd;stroke:#000000;stroke-width:2.0px;stroke-linecap:butt;stroke-linejoin:miter;stroke-opacity:1"/>
<path class="bond-2" d="M 345.073,208.906 L 394.058,180.625" style="fill:none;fill-rule:evenodd;stroke:#FF0000;stroke-width:2.0px;stroke-linecap:butt;stroke-linejoin:miter;stroke-opacity:1"/>
<path class="bond-3" d="M 426.655,180.625 L 475.641,208.906" style="fill:none;fill-rule:evenodd;stroke:#FF0000;stroke-width:2.0px;stroke-linecap:butt;stroke-linejoin:miter;stroke-opacity:1"/>
<path class="bond-3" d="M 475.641,208.906 L 524.626,237.188" style="fill:none;fill-rule:evenodd;stroke:#000000;stroke-width:2.0px;stroke-linecap:butt;stroke-linejoin:miter;stroke-opacity:1"/>
<path class="bond-4" d="M 524.626,237.188 L 638.895,171.215" style="fill:none;fill-rule:evenodd;stroke:#000000;stroke-width:2.0px;stroke-linecap:butt;stroke-linejoin:miter;stroke-opacity:1"/>
<path class="bond-5" d="M 511.431,237.188 L 511.431,294.352" style="fill:none;fill-rule:evenodd;stroke:#000000;stroke-width:2.0px;stroke-linecap:butt;stroke-linejoin:miter;stroke-opacity:1"/>
<path class="bond-5" d="M 511.431,294.352 L 511.431,351.516" style="fill:none;fill-rule:evenodd;stroke:#FF0000;stroke-width:2.0px;stroke-linecap:butt;stroke-linejoin:miter;stroke-opacity:1"/>
<path class="bond-5" d="M 537.821,237.188 L 537.821,294.352" style="fill:none;fill-rule:evenodd;stroke:#000000;stroke-width:2.0px;stroke-linecap:butt;stroke-linejoin:miter;stroke-opacity:1"/>
<path class="bond-5" d="M 537.821,294.352 L 537.821,351.516" style="fill:none;fill-rule:evenodd;stroke:#FF0000;stroke-width:2.0px;stroke-linecap:butt;stroke-linejoin:miter;stroke-opacity:1"/>
<path class="bond-6" d="M 1012.31,339.154 L 1064.77,313.978" style="fill:none;fill-rule:evenodd;stroke:#0000FF;stroke-width:2.0px;stroke-linecap:butt;stroke-linejoin:miter;stroke-opacity:1"/>
<path class="bond-6" d="M 1064.77,313.978 L 1117.23,288.802" style="fill:none;fill-rule:evenodd;stroke:#000000;stroke-width:2.0px;stroke-linecap:butt;stroke-linejoin:miter;stroke-opacity:1"/>
<path class="bond-7" d="M 1117.23,288.802 L 1127.27,157.237" style="fill:none;fill-rule:evenodd;stroke:#000000;stroke-width:2.0px;stroke-linecap:butt;stroke-linejoin:miter;stroke-opacity:1"/>
<path class="bond-7" d="M 1145.05,271.074 L 1152.07,178.979" style="fill:none;fill-rule:evenodd;stroke:#000000;stroke-width:2.0px;stroke-linecap:butt;stroke-linejoin:miter;stroke-opacity:1;stroke-dasharray:6,6"/>
<path class="bond-19" d="M 1117.23,288.802 L 1226.15,363.276" style="fill:none;fill-rule:evenodd;stroke:#000000;stroke-width:2.0px;stroke-linecap:butt;stroke-linejoin:miter;stroke-opacity:1"/>
<path class="bond-19" d="M 1148.46,278.189 L 1224.71,330.321" style="fill:none;fill-rule:evenodd;stroke:#000000;stroke-width:2.0px;stroke-linecap:butt;stroke-linejoin:miter;stroke-opacity:1;stroke-dasharray:6,6"/>
<path class="bond-8" d="M 1127.27,157.237 L 1246.22,100.147" style="fill:none;fill-rule:evenodd;stroke:#000000;stroke-width:2.0px;stroke-linecap:butt;stroke-linejoin:miter;stroke-opacity:1"/>
<path class="bond-8" d="M 1156.53,172.465 L 1239.8,132.502" style="fill:none;fill-rule:evenodd;stroke:#000000;stroke-width:2.0px;stroke-linecap:butt;stroke-linejoin:miter;stroke-opacity:1;stroke-dasharray:6,6"/>
<path class="bond-9" d="M 1246.22,100.147 L 1355.14,174.622" style="fill:none;fill-rule:evenodd;stroke:#000000;stroke-width:2.0px;stroke-linecap:butt;stroke-linejoin:miter;stroke-opacity:1"/>
<path class="bond-9" d="M 1247.67,133.102 L 1323.91,185.235" style="fill:none;fill-rule:evenodd;stroke:#000000;stroke-width:2.0px;stroke-linecap:butt;stroke-linejoin:miter;stroke-opacity:1;stroke-dasharray:6,6"/>
<path class="bond-10" d="M 1355.14,174.622 L 1474.1,117.532" style="fill:none;fill-rule:evenodd;stroke:#000000;stroke-width:2.0px;stroke-linecap:butt;stroke-linejoin:miter;stroke-opacity:1"/>
<path class="bond-17" d="M 1355.14,174.622 L 1345.11,306.186" style="fill:none;fill-rule:evenodd;stroke:#000000;stroke-width:2.0px;stroke-linecap:butt;stroke-linejoin:miter;stroke-opacity:1"/>
<path class="bond-17" d="M 1327.33,192.349 L 1320.3,284.444" style="fill:none;fill-rule:evenodd;stroke:#000000;stroke-width:2.0px;stroke-linecap:butt;stroke-linejoin:miter;stroke-opacity:1;stroke-dasharray:6,6"/>
<path class="bond-11" d="M 1474.1,117.532 L 1583.02,192.006" style="fill:none;fill-rule:evenodd;stroke:#000000;stroke-width:2.0px;stroke-linecap:butt;stroke-linejoin:miter;stroke-opacity:1"/>
<path class="bond-12" d="M 1583.02,192.006 L 1572.98,323.571" style="fill:none;fill-rule:evenodd;stroke:#000000;stroke-width:2.0px;stroke-linecap:butt;stroke-linejoin:miter;stroke-opacity:1"/>
<path class="bond-12" d="M 1607.83,213.749 L 1600.8,305.844" style="fill:none;fill-rule:evenodd;stroke:#000000;stroke-width:2.0px;stroke-linecap:butt;stroke-linejoin:miter;stroke-opacity:1;stroke-dasharray:6,6"/>
<path class="bond-20" d="M 1583.02,192.006 L 1701.98,134.917" style="fill:none;fill-rule:evenodd;stroke:#000000;stroke-width:2.0px;stroke-linecap:butt;stroke-linejoin:miter;stroke-opacity:1"/>
<path class="bond-20" d="M 1612.28,207.234 L 1695.55,167.271" style="fill:none;fill-rule:evenodd;stroke:#000000;stroke-width:2.0px;stroke-linecap:butt;stroke-linejoin:miter;stroke-opacity:1;stroke-dasharray:6,6"/>
<path class="bond-13" d="M 1572.98,323.571 L 1681.9,398.046" style="fill:none;fill-rule:evenodd;stroke:#000000;stroke-width:2.0px;stroke-linecap:butt;stroke-linejoin:miter;stroke-opacity:1"/>
<path class="bond-13" d="M 1604.22,312.958 L 1680.46,365.09" style="fill:none;fill-rule:evenodd;stroke:#000000;stroke-width:2.0px;stroke-linecap:butt;stroke-linejoin:miter;stroke-opacity:1;stroke-dasharray:6,6"/>
<path class="bond-14" d="M 1681.9,398.046 L 1800.86,340.956" style="fill:none;fill-rule:evenodd;stroke:#000000;stroke-width:2.0px;stroke-linecap:butt;stroke-linejoin:miter;stroke-opacity:1"/>
<path class="bond-14" d="M 1688.33,365.691 L 1771.6,325.728" style="fill:none;fill-rule:evenodd;stroke:#000000;stroke-width:2.0px;stroke-linecap:butt;stroke-linejoin:miter;stroke-opacity:1;stroke-dasharray:6,6"/>
<path class="bond-15" d="M 1800.86,340.956 L 1805.21,283.903" style="fill:none;fill-rule:evenodd;stroke:#000000;stroke-width:2.0px;stroke-linecap:butt;stroke-linejoin:miter;stroke-opacity:1"/>
<path class="bond-15" d="M 1805.21,283.903 L 1809.56,226.85" style="fill:none;fill-rule:evenodd;stroke:#0000FF;stroke-width:2.0px;stroke-linecap:butt;stroke-linejoin:miter;stroke-opacity:1"/>
<path class="bond-15" d="M 1775.85,321.832 L 1778.9,281.895" style="fill:none;fill-rule:evenodd;stroke:#000000;stroke-width:2.0px;stroke-linecap:butt;stroke-linejoin:miter;stroke-opacity:1;stroke-dasharray:6,6"/>
<path class="bond-15" d="M 1778.9,281.895 L 1781.95,241.958" style="fill:none;fill-rule:evenodd;stroke:#0000FF;stroke-width:2.0px;stroke-linecap:butt;stroke-linejoin:miter;stroke-opacity:1;stroke-dasharray:6,6"/>
<path class="bond-16" d="M 1796.86,199.792 L 1749.42,167.354" style="fill:none;fill-rule:evenodd;stroke:#0000FF;stroke-width:2.0px;stroke-linecap:butt;stroke-linejoin:miter;stroke-opacity:1"/>
<path class="bond-16" d="M 1749.42,167.354 L 1701.98,134.917" style="fill:none;fill-rule:evenodd;stroke:#000000;stroke-width:2.0px;stroke-linecap:butt;stroke-linejoin:miter;stroke-opacity:1"/>
<path class="bond-16" d="M 1767.73,211.845 L 1734.52,189.138" style="fill:none;fill-rule:evenodd;stroke:#0000FF;stroke-width:2.0px;stroke-linecap:butt;stroke-linejoin:miter;stroke-opacity:1;stroke-dasharray:6,6"/>
<path class="bond-16" d="M 1734.52,189.138 L 1701.31,166.432" style="fill:none;fill-rule:evenodd;stroke:#000000;stroke-width:2.0px;stroke-linecap:butt;stroke-linejoin:miter;stroke-opacity:1;stroke-dasharray:6,6"/>
<path class="bond-18" d="M 1345.11,306.186 L 1226.15,363.276" style="fill:none;fill-rule:evenodd;stroke:#000000;stroke-width:2.0px;stroke-linecap:butt;stroke-linejoin:miter;stroke-opacity:1"/>
<path class="bond-18" d="M 1315.85,290.958 L 1232.58,330.921" style="fill:none;fill-rule:evenodd;stroke:#000000;stroke-width:2.0px;stroke-linecap:butt;stroke-linejoin:miter;stroke-opacity:1;stroke-dasharray:6,6"/>
<path class="bond-21" d="M 2737.13,324.772 L 2856.47,268.478" style="fill:none;fill-rule:evenodd;stroke:#000000;stroke-width:2.0px;stroke-linecap:butt;stroke-linejoin:miter;stroke-opacity:1"/>
<path class="bond-22" d="M 2869.62,269.57 L 2874.32,212.852" style="fill:none;fill-rule:evenodd;stroke:#000000;stroke-width:2.0px;stroke-linecap:butt;stroke-linejoin:miter;stroke-opacity:1"/>
<path class="bond-22" d="M 2874.32,212.852 L 2879.03,156.134" style="fill:none;fill-rule:evenodd;stroke:#FF0000;stroke-width:2.0px;stroke-linecap:butt;stroke-linejoin:miter;stroke-opacity:1"/>
<path class="bond-22" d="M 2843.32,267.387 L 2848.03,210.669" style="fill:none;fill-rule:evenodd;stroke:#000000;stroke-width:2.0px;stroke-linecap:butt;stroke-linejoin:miter;stroke-opacity:1"/>
<path class="bond-22" d="M 2848.03,210.669 L 2852.73,153.951" style="fill:none;fill-rule:evenodd;stroke:#FF0000;stroke-width:2.0px;stroke-linecap:butt;stroke-linejoin:miter;stroke-opacity:1"/>
<path class="bond-23" d="M 2856.47,268.478 L 2903.66,301.21" style="fill:none;fill-rule:evenodd;stroke:#000000;stroke-width:2.0px;stroke-linecap:butt;stroke-linejoin:miter;stroke-opacity:1"/>
<path class="bond-23" d="M 2903.66,301.21 L 2950.85,333.942" style="fill:none;fill-rule:evenodd;stroke:#0000FF;stroke-width:2.0px;stroke-linecap:butt;stroke-linejoin:miter;stroke-opacity:1"/>
<path class="bond-24" d="M 2978.92,337.057 L 3031.57,312.221" style="fill:none;fill-rule:evenodd;stroke:#0000FF;stroke-width:2.0px;stroke-linecap:butt;stroke-linejoin:miter;stroke-opacity:1"/>
<path class="bond-24" d="M 3031.57,312.221 L 3084.22,287.386" style="fill:none;fill-rule:evenodd;stroke:#000000;stroke-width:2.0px;stroke-linecap:butt;stroke-linejoin:miter;stroke-opacity:1"/>
<path class="bond-25" d="M 3084.22,287.386 L 3095.14,155.891" style="fill:none;fill-rule:evenodd;stroke:#000000;stroke-width:2.0px;stroke-linecap:butt;stroke-linejoin:miter;stroke-opacity:1"/>
<path class="bond-25" d="M 3112.16,269.845 L 3119.8,177.799" style="fill:none;fill-rule:evenodd;stroke:#000000;stroke-width:2.0px;stroke-linecap:butt;stroke-linejoin:miter;stroke-opacity:1;stroke-dasharray:6,6"/>
<path class="bond-37" d="M 3084.22,287.386 L 3192.64,362.587" style="fill:none;fill-rule:evenodd;stroke:#000000;stroke-width:2.0px;stroke-linecap:butt;stroke-linejoin:miter;stroke-opacity:1"/>
<path class="bond-37" d="M 3115.52,276.982 L 3191.42,329.623" style="fill:none;fill-rule:evenodd;stroke:#000000;stroke-width:2.0px;stroke-linecap:butt;stroke-linejoin:miter;stroke-opacity:1;stroke-dasharray:6,6"/>
<path class="bond-26" d="M 3095.14,155.891 L 3214.47,99.598" style="fill:none;fill-rule:evenodd;stroke:#000000;stroke-width:2.0px;stroke-linecap:butt;stroke-linejoin:miter;stroke-opacity:1"/>
<path class="bond-26" d="M 3124.3,171.315 L 3207.83,131.909" style="fill:none;fill-rule:evenodd;stroke:#000000;stroke-width:2.0px;stroke-linecap:butt;stroke-linejoin:miter;stroke-opacity:1;stroke-dasharray:6,6"/>
<path class="bond-27" d="M 3214.47,99.598 L 3322.89,174.799" style="fill:none;fill-rule:evenodd;stroke:#000000;stroke-width:2.0px;stroke-linecap:butt;stroke-linejoin:miter;stroke-opacity:1"/>
<path class="bond-27" d="M 3215.7,132.562 L 3291.59,185.203" style="fill:none;fill-rule:evenodd;stroke:#000000;stroke-width:2.0px;stroke-linecap:butt;stroke-linejoin:miter;stroke-opacity:1;stroke-dasharray:6,6"/>
<path class="bond-28" d="M 3322.89,174.799 L 3442.23,118.506" style="fill:none;fill-rule:evenodd;stroke:#000000;stroke-width:2.0px;stroke-linecap:butt;stroke-linejoin:miter;stroke-opacity:1"/>
<path class="bond-35" d="M 3322.89,174.799 L 3311.98,306.293" style="fill:none;fill-rule:evenodd;stroke:#000000;stroke-width:2.0px;stroke-linecap:butt;stroke-linejoin:miter;stroke-opacity:1"/>
<path class="bond-35" d="M 3294.96,192.34 L 3287.32,284.386" style="fill:none;fill-rule:evenodd;stroke:#000000;stroke-width:2.0px;stroke-linecap:butt;stroke-linejoin:miter;stroke-opacity:1;stroke-dasharray:6,6"/>
<path class="bond-29" d="M 3442.23,118.506 L 3550.65,193.707" style="fill:none;fill-rule:evenodd;stroke:#000000;stroke-width:2.0px;stroke-linecap:butt;stroke-linejoin:miter;stroke-opacity:1"/>
<path class="bond-30" d="M 3550.65,193.707 L 3539.73,325.201" style="fill:none;fill-rule:evenodd;stroke:#000000;stroke-width:2.0px;stroke-linecap:butt;stroke-linejoin:miter;stroke-opacity:1"/>
<path class="bond-30" d="M 3575.31,215.614 L 3567.67,307.66" style="fill:none;fill-rule:evenodd;stroke:#000000;stroke-width:2.0px;stroke-linecap:butt;stroke-linejoin:miter;stroke-opacity:1;stroke-dasharray:6,6"/>
<path class="bond-38" d="M 3550.65,193.707 L 3669.98,137.413" style="fill:none;fill-rule:evenodd;stroke:#000000;stroke-width:2.0px;stroke-linecap:butt;stroke-linejoin:miter;stroke-opacity:1"/>
<path class="bond-38" d="M 3579.81,209.13 L 3663.34,169.724" style="fill:none;fill-rule:evenodd;stroke:#000000;stroke-width:2.0px;stroke-linecap:butt;stroke-linejoin:miter;stroke-opacity:1;stroke-dasharray:6,6"/>
<path class="bond-31" d="M 3539.73,325.201 L 3648.15,400.402" style="fill:none;fill-rule:evenodd;stroke:#000000;stroke-width:2.0px;stroke-linecap:butt;stroke-linejoin:miter;stroke-opacity:1"/>
<path class="bond-31" d="M 3571.04,314.797 L 3646.93,367.438" style="fill:none;fill-rule:evenodd;stroke:#000000;stroke-width:2.0px;stroke-linecap:butt;stroke-linejoin:miter;stroke-opacity:1;stroke-dasharray:6,6"/>
<path class="bond-32" d="M 3648.15,400.402 L 3767.49,344.109" style="fill:none;fill-rule:evenodd;stroke:#000000;stroke-width:2.0px;stroke-linecap:butt;stroke-linejoin:miter;stroke-opacity:1"/>
<path class="bond-32" d="M 3654.79,368.091 L 3738.33,328.685" style="fill:none;fill-rule:evenodd;stroke:#000000;stroke-width:2.0px;stroke-linecap:butt;stroke-linejoin:miter;stroke-opacity:1;stroke-dasharray:6,6"/>
<path class="bond-33" d="M 3767.49,344.109 L 3772.22,287.091" style="fill:none;fill-rule:evenodd;stroke:#000000;stroke-width:2.0px;stroke-linecap:butt;stroke-linejoin:miter;stroke-opacity:1"/>
<path class="bond-33" d="M 3772.22,287.091 L 3776.95,230.073" style="fill:none;fill-rule:evenodd;stroke:#0000FF;stroke-width:2.0px;stroke-linecap:butt;stroke-linejoin:miter;stroke-opacity:1"/>
<path class="bond-33" d="M 3742.61,324.82 L 3745.92,284.907" style="fill:none;fill-rule:evenodd;stroke:#000000;stroke-width:2.0px;stroke-linecap:butt;stroke-linejoin:miter;stroke-opacity:1;stroke-dasharray:6,6"/>
<path class="bond-33" d="M 3745.92,284.907 L 3749.23,244.995" style="fill:none;fill-rule:evenodd;stroke:#0000FF;stroke-width:2.0px;stroke-linecap:butt;stroke-linejoin:miter;stroke-opacity:1;stroke-dasharray:6,6"/>
<path class="bond-34" d="M 3764.36,202.877 L 3717.17,170.145" style="fill:none;fill-rule:evenodd;stroke:#0000FF;stroke-width:2.0px;stroke-linecap:butt;stroke-linejoin:miter;stroke-opacity:1"/>
<path class="bond-34" d="M 3717.17,170.145 L 3669.98,137.413" style="fill:none;fill-rule:evenodd;stroke:#000000;stroke-width:2.0px;stroke-linecap:butt;stroke-linejoin:miter;stroke-opacity:1"/>
<path class="bond-34" d="M 3735.17,214.741 L 3702.13,191.829" style="fill:none;fill-rule:evenodd;stroke:#0000FF;stroke-width:2.0px;stroke-linecap:butt;stroke-linejoin:miter;stroke-opacity:1;stroke-dasharray:6,6"/>
<path class="bond-34" d="M 3702.13,191.829 L 3669.1,168.917" style="fill:none;fill-rule:evenodd;stroke:#000000;stroke-width:2.0px;stroke-linecap:butt;stroke-linejoin:miter;stroke-opacity:1;stroke-dasharray:6,6"/>
<path class="bond-36" d="M 3311.98,306.293 L 3192.64,362.587" style="fill:none;fill-rule:evenodd;stroke:#000000;stroke-width:2.0px;stroke-linecap:butt;stroke-linejoin:miter;stroke-opacity:1"/>
<path class="bond-36" d="M 3282.82,290.87 L 3199.28,330.276" style="fill:none;fill-rule:evenodd;stroke:#000000;stroke-width:2.0px;stroke-linecap:butt;stroke-linejoin:miter;stroke-opacity:1;stroke-dasharray:6,6"/>
<path class="bond-39" d="M 2080.14,163.927 L 2135.25,141.829" style="fill:none;fill-rule:evenodd;stroke:#000000;stroke-width:2.0px;stroke-linecap:butt;stroke-linejoin:miter;stroke-opacity:1"/>
<path class="bond-40" d="M 2135.25,141.829 L 2151.35,154.479" style="fill:none;fill-rule:evenodd;stroke:#000000;stroke-width:2.0px;stroke-linecap:butt;stroke-linejoin:miter;stroke-opacity:1"/>
<path class="bond-40" d="M 2151.35,154.479 L 2167.46,167.129" style="fill:none;fill-rule:evenodd;stroke:#FF0000;stroke-width:2.0px;stroke-linecap:butt;stroke-linejoin:miter;stroke-opacity:1"/>
<path class="bond-41" d="M 2196.43,172.699 L 2216.74,164.554" style="fill:none;fill-rule:evenodd;stroke:#FF0000;stroke-width:2.0px;stroke-linecap:butt;stroke-linejoin:miter;stroke-opacity:1"/>
<path class="bond-41" d="M 2216.74,164.554 L 2237.05,156.409" style="fill:none;fill-rule:evenodd;stroke:#000000;stroke-width:2.0px;stroke-linecap:butt;stroke-linejoin:miter;stroke-opacity:1"/>
<path class="bond-42" d="M 2237.05,156.409 L 2283.75,193.087" style="fill:none;fill-rule:evenodd;stroke:#000000;stroke-width:2.0px;stroke-linecap:butt;stroke-linejoin:miter;stroke-opacity:1"/>
<path class="bond-43" d="M 2244.89,157.531 L 2247.93,136.265" style="fill:none;fill-rule:evenodd;stroke:#000000;stroke-width:2.0px;stroke-linecap:butt;stroke-linejoin:miter;stroke-opacity:1"/>
<path class="bond-43" d="M 2247.93,136.265 L 2250.98,114.999" style="fill:none;fill-rule:evenodd;stroke:#FF0000;stroke-width:2.0px;stroke-linecap:butt;stroke-linejoin:miter;stroke-opacity:1"/>
<path class="bond-43" d="M 2229.22,155.286 L 2232.26,134.02" style="fill:none;fill-rule:evenodd;stroke:#000000;stroke-width:2.0px;stroke-linecap:butt;stroke-linejoin:miter;stroke-opacity:1"/>
<path class="bond-43" d="M 2232.26,134.02 L 2235.31,112.754" style="fill:none;fill-rule:evenodd;stroke:#FF0000;stroke-width:2.0px;stroke-linecap:butt;stroke-linejoin:miter;stroke-opacity:1"/>
<path class="atom-2" d="M 283.087 369.215 Q 283.087 362.415, 286.447 358.615 Q 289.807 354.815, 296.087 354.815 Q 302.367 354.815, 305.727 358.615 Q 309.087 362.415, 309.087 369.215 Q 309.087 376.095, 305.687 380.015 Q 302.287 383.895, 296.087 383.895 Q 289.847 383.895, 286.447 380.015 Q 283.087 376.135, 283.087 369.215 M 296.087 380.695 Q 300.407 380.695, 302.727 377.815 Q 305.087 374.895, 305.087 369.215 Q 305.087 363.655, 302.727 360.855 Q 300.407 358.015, 296.087 358.015 Q 291.767 358.015, 289.407 360.815 Q 287.087 363.615, 287.087 369.215 Q 287.087 374.935, 289.407 377.815 Q 291.767 380.695, 296.087 380.695 " fill="#FF0000"/>
<path class="atom-3" d="M 397.357 171.295 Q 397.357 164.495, 400.717 160.695 Q 404.077 156.895, 410.357 156.895 Q 416.637 156.895, 419.997 160.695 Q 423.357 164.495, 423.357 171.295 Q 423.357 178.175, 419.957 182.095 Q 416.557 185.975, 410.357 185.975 Q 404.117 185.975, 400.717 182.095 Q 397.357 178.215, 397.357 171.295 M 410.357 182.775 Q 414.677 182.775, 416.997 179.895 Q 419.357 176.975, 419.357 171.295 Q 419.357 165.735, 416.997 162.935 Q 414.677 160.095, 410.357 160.095 Q 406.037 160.095, 403.677 162.895 Q 401.357 165.695, 401.357 171.295 Q 401.357 177.015, 403.677 179.895 Q 406.037 182.775, 410.357 182.775 " fill="#FF0000"/>
<path class="atom-6" d="M 511.626 369.215 Q 511.626 362.415, 514.986 358.615 Q 518.346 354.815, 524.626 354.815 Q 530.906 354.815, 534.266 358.615 Q 537.626 362.415, 537.626 369.215 Q 537.626 376.095, 534.226 380.015 Q 530.826 383.895, 524.626 383.895 Q 518.386 383.895, 514.986 380.015 Q 511.626 376.135, 511.626 369.215 M 524.626 380.695 Q 528.946 380.695, 531.266 377.815 Q 533.626 374.895, 533.626 369.215 Q 533.626 363.655, 531.266 360.855 Q 528.946 358.015, 524.626 358.015 Q 520.306 358.015, 517.946 360.815 Q 515.626 363.615, 515.626 369.215 Q 515.626 374.935, 517.946 377.815 Q 520.306 380.695, 524.626 380.695 " fill="#FF0000"/>
<path class="atom-7" d="M 948.141 331.732 L 951.981 331.732 L 951.981 343.772 L 966.461 343.772 L 966.461 331.732 L 970.301 331.732 L 970.301 360.052 L 966.461 360.052 L 966.461 346.972 L 951.981 346.972 L 951.981 360.052 L 948.141 360.052 L 948.141 331.732 " fill="#0000FF"/>
<path class="atom-7" d="M 971.674 359.058 Q 972.36 357.289, 973.997 356.312 Q 975.634 355.309, 977.904 355.309 Q 980.729 355.309, 982.313 356.84 Q 983.897 358.372, 983.897 361.091 Q 983.897 363.863, 981.838 366.45 Q 979.805 369.037, 975.581 372.1 L 984.214 372.1 L 984.214 374.212 L 971.621 374.212 L 971.621 372.443 Q 975.106 369.961, 977.165 368.113 Q 979.25 366.265, 980.254 364.602 Q 981.257 362.939, 981.257 361.223 Q 981.257 359.428, 980.359 358.424 Q 979.462 357.421, 977.904 357.421 Q 976.399 357.421, 975.396 358.028 Q 974.393 358.636, 973.68 359.982 L 971.674 359.058 " fill="#0000FF"/>
<path class="atom-7" d="M 992.014 331.732 L 1001.29 346.732 Q 1002.21 348.212, 1003.69 350.892 Q 1005.17 353.572, 1005.25 353.732 L 1005.25 331.732 L 1009.01 331.732 L 1009.01 360.052 L 1005.13 360.052 L 995.174 343.652 Q 994.014 341.732, 992.774 339.532 Q 991.574 337.332, 991.214 336.652 L 991.214 360.052 L 987.534 360.052 L 987.534 331.732 L 992.014 331.732 " fill="#0000FF"/>
<path class="atom-17" d="M 1804.64 195.231 L 1813.92 210.231 Q 1814.84 211.711, 1816.32 214.391 Q 1817.8 217.071, 1817.88 217.231 L 1817.88 195.231 L 1821.64 195.231 L 1821.64 223.551 L 1817.76 223.551 L 1807.8 207.151 Q 1806.64 205.231, 1805.4 203.031 Q 1804.2 200.831, 1803.84 200.151 L 1803.84 223.551 L 1800.16 223.551 L 1800.16 195.231 L 1804.64 195.231 " fill="#0000FF"/>
<path class="atom-23" d="M 2854.38 137.064 Q 2854.38 130.264, 2857.74 126.464 Q 2861.1 122.664, 2867.38 122.664 Q 2873.66 122.664, 2877.02 126.464 Q 2880.38 130.264, 2880.38 137.064 Q 2880.38 143.944, 2876.98 147.864 Q 2873.58 151.744, 2867.38 151.744 Q 2861.14 151.744, 2857.74 147.864 Q 2854.38 143.984, 2854.38 137.064 M 2867.38 148.544 Q 2871.7 148.544, 2874.02 145.664 Q 2876.38 142.744, 2876.38 137.064 Q 2876.38 131.504, 2874.02 128.704 Q 2871.7 125.864, 2867.38 125.864 Q 2863.06 125.864, 2860.7 128.664 Q 2858.38 131.464, 2858.38 137.064 Q 2858.38 142.784, 2860.7 145.664 Q 2863.06 148.544, 2867.38 148.544 " fill="#FF0000"/>
<path class="atom-24" d="M 2958.63 329.519 L 2967.91 344.519 Q 2968.83 345.999, 2970.31 348.679 Q 2971.79 351.359, 2971.87 351.519 L 2971.87 329.519 L 2975.63 329.519 L 2975.63 357.839 L 2971.75 357.839 L 2961.79 341.439 Q 2960.63 339.519, 2959.39 337.319 Q 2958.19 335.119, 2957.83 334.439 L 2957.83 357.839 L 2954.15 357.839 L 2954.15 329.519 L 2958.63 329.519 " fill="#0000FF"/>
<path class="atom-24" d="M 2953.81 360.671 L 2957.65 360.671 L 2957.65 372.711 L 2972.13 372.711 L 2972.13 360.671 L 2975.97 360.671 L 2975.97 388.991 L 2972.13 388.991 L 2972.13 375.911 L 2957.65 375.911 L 2957.65 388.991 L 2953.81 388.991 L 2953.81 360.671 " fill="#0000FF"/>
<path class="atom-34" d="M 3772.14 198.454 L 3781.42 213.454 Q 3782.34 214.934, 3783.82 217.614 Q 3785.3 220.294, 3785.38 220.454 L 3785.38 198.454 L 3789.14 198.454 L 3789.14 226.774 L 3785.26 226.774 L 3775.3 210.374 Q 3774.14 208.454, 3772.9 206.254 Q 3771.7 204.054, 3771.34 203.374 L 3771.34 226.774 L 3767.66 226.774 L 3767.66 198.454 L 3772.14 198.454 " fill="#0000FF"/>
<path class="atom-40" d="M 2168.94 178.587 Q 2168.94 171.787, 2172.3 167.987 Q 2175.66 164.187, 2181.94 164.187 Q 2188.22 164.187, 2191.58 167.987 Q 2194.94 171.787, 2194.94 178.587 Q 2194.94 185.467, 2191.54 189.387 Q 2188.14 193.267, 2181.94 193.267 Q 2175.7 193.267, 2172.3 189.387 Q 2168.94 185.507, 2168.94 178.587 M 2181.94 190.067 Q 2186.26 190.067, 2188.58 187.187 Q 2190.94 184.267, 2190.94 178.587 Q 2190.94 173.027, 2188.58 170.227 Q 2186.26 167.387, 2181.94 167.387 Q 2177.62 167.387, 2175.26 170.187 Q 2172.94 172.987, 2172.94 178.587 Q 2172.94 184.307, 2175.26 187.187 Q 2177.62 190.067, 2181.94 190.067 " fill="#FF0000"/>
<path class="atom-43" d="M 2232.47 97.7124 Q 2232.47 90.9124, 2235.83 87.1124 Q 2239.19 83.3124, 2245.47 83.3124 Q 2251.75 83.3124, 2255.11 87.1124 Q 2258.47 90.9124, 2258.47 97.7124 Q 2258.47 104.592, 2255.07 108.512 Q 2251.67 112.392, 2245.47 112.392 Q 2239.23 112.392, 2235.83 108.512 Q 2232.47 104.632, 2232.47 97.7124 M 2245.47 109.192 Q 2249.79 109.192, 2252.11 106.312 Q 2254.47 103.392, 2254.47 97.7124 Q 2254.47 92.1524, 2252.11 89.3524 Q 2249.79 86.5124, 2245.47 86.5124 Q 2241.15 86.5124, 2238.79 89.3124 Q 2236.47 92.1124, 2236.47 97.7124 Q 2236.47 103.432, 2238.79 106.312 Q 2241.15 109.192, 2245.47 109.192 " fill="#FF0000"/>
<path class="atom-44" d="M 2359.51 141.232 L 2363.35 141.232 L 2363.35 153.272 L 2377.83 153.272 L 2377.83 141.232 L 2381.67 141.232 L 2381.67 169.552 L 2377.83 169.552 L 2377.83 156.472 L 2363.35 156.472 L 2363.35 169.552 L 2359.51 169.552 L 2359.51 141.232 " fill="#FF0000"/>
<path class="atom-44" d="M 2383.05 168.558 Q 2383.73 166.79, 2385.37 165.813 Q 2387.01 164.81, 2389.28 164.81 Q 2392.1 164.81, 2393.68 166.341 Q 2395.27 167.872, 2395.27 170.591 Q 2395.27 173.363, 2393.21 175.95 Q 2391.18 178.538, 2386.95 181.6 L 2395.59 181.6 L 2395.59 183.712 L 2382.99 183.712 L 2382.99 181.943 Q 2386.48 179.462, 2388.54 177.614 Q 2390.62 175.766, 2391.63 174.102 Q 2392.63 172.439, 2392.63 170.723 Q 2392.63 168.928, 2391.73 167.925 Q 2390.83 166.922, 2389.28 166.922 Q 2387.77 166.922, 2386.77 167.529 Q 2385.76 168.136, 2385.05 169.482 L 2383.05 168.558 " fill="#FF0000"/>
<path class="atom-44" d="M 2397.59 155.312 Q 2397.59 148.512, 2400.95 144.712 Q 2404.31 140.912, 2410.59 140.912 Q 2416.87 140.912, 2420.23 144.712 Q 2423.59 148.512, 2423.59 155.312 Q 2423.59 162.192, 2420.19 166.112 Q 2416.79 169.992, 2410.59 169.992 Q 2404.35 169.992, 2400.95 166.112 Q 2397.59 162.232, 2397.59 155.312 M 2410.59 166.792 Q 2414.91 166.792, 2417.23 163.912 Q 2419.59 160.992, 2419.59 155.312 Q 2419.59 149.752, 2417.23 146.952 Q 2414.91 144.112, 2410.59 144.112 Q 2406.27 144.112, 2403.91 146.912 Q 2401.59 149.712, 2401.59 155.312 Q 2401.59 161.032, 2403.91 163.912 Q 2406.27 166.792, 2410.59 166.792 " fill="#FF0000"/>
<path class="note" d="M 519.896 210.877 Q 520.416 209.537, 521.656 208.797 Q 522.896 208.037, 524.616 208.037 Q 526.756 208.037, 527.956 209.197 Q 529.156 210.357, 529.156 212.417 Q 529.156 214.517, 527.596 216.477 Q 526.056 218.437, 522.856 220.757 L 529.396 220.757 L 529.396 222.357 L 519.856 222.357 L 519.856 221.017 Q 522.496 219.137, 524.056 217.737 Q 525.636 216.337, 526.396 215.077 Q 527.156 213.817, 527.156 212.517 Q 527.156 211.157, 526.476 210.397 Q 525.796 209.637, 524.616 209.637 Q 523.476 209.637, 522.716 210.097 Q 521.956 210.557, 521.416 211.577 L 519.896 210.877 " fill="#000000"/>
<path class="note" d="M 624.41 157.69 L 627.51 157.69 L 627.51 147.11 L 624.09 148.17 L 623.63 146.99 L 627.97 145.05 L 629.39 145.29 L 629.39 157.69 L 632.17 157.69 L 632.17 159.29 L 624.41 159.29 L 624.41 157.69 " fill="#000000"/>
<path class="note" d="M 526.666 412.817 Q 528.046 413.217, 528.706 414.117 Q 529.386 414.997, 529.386 416.397 Q 529.386 417.597, 528.786 418.537 Q 528.186 419.457, 527.086 419.977 Q 525.986 420.477, 524.546 420.477 Q 523.026 420.477, 521.886 419.957 Q 520.766 419.417, 519.866 418.337 L 521.006 417.177 Q 521.886 418.137, 522.626 418.517 Q 523.366 418.877, 524.546 418.877 Q 525.826 418.877, 526.606 418.197 Q 527.386 417.497, 527.386 416.377 Q 527.386 414.937, 526.566 414.297 Q 525.766 413.637, 524.026 413.637 L 523.006 413.637 L 523.006 412.197 L 523.906 412.197 Q 525.446 412.177, 526.266 411.517 Q 527.086 410.837, 527.086 409.577 Q 527.086 408.657, 526.406 408.117 Q 525.726 407.557, 524.566 407.557 Q 523.386 407.557, 522.646 407.977 Q 521.926 408.397, 521.366 409.457 L 519.986 408.717 Q 520.486 407.537, 521.686 406.757 Q 522.886 405.957, 524.566 405.957 Q 526.646 405.957, 527.866 406.937 Q 529.086 407.917, 529.086 409.577 Q 529.086 410.717, 528.466 411.537 Q 527.846 412.357, 526.666 412.817 " fill="#000000"/>
<path class="note" d="M 998.678 391.966 L 1000.38 391.966 L 1000.38 393.566 L 998.678 393.566 L 998.678 396.826 L 996.798 396.826 L 996.798 393.566 L 989.478 393.566 L 989.478 392.306 L 995.678 382.666 L 998.678 382.666 L 998.678 391.966 M 991.798 391.966 L 996.798 391.966 L 996.798 383.946 L 991.798 391.966 " fill="#000000"/>
<path class="note" d="M 1099.43 274.609 Q 1100.67 274.609, 1101.69 275.149 Q 1102.71 275.669, 1103.29 276.669 Q 1103.87 277.649, 1103.87 278.989 Q 1103.87 280.449, 1103.15 281.509 Q 1102.45 282.549, 1101.29 283.089 Q 1100.13 283.629, 1098.81 283.629 Q 1097.51 283.629, 1096.31 283.149 Q 1095.11 282.669, 1094.29 281.749 L 1095.49 280.509 Q 1096.15 281.229, 1097.05 281.629 Q 1097.95 282.009, 1098.87 282.009 Q 1100.13 282.009, 1100.99 281.229 Q 1101.87 280.449, 1101.87 279.029 Q 1101.87 277.529, 1100.99 276.829 Q 1100.13 276.109, 1098.75 276.109 Q 1097.51 276.109, 1096.13 276.649 L 1095.03 276.129 L 1095.71 269.309 L 1102.99 269.309 L 1102.79 270.909 L 1097.35 270.909 L 1096.93 275.109 Q 1098.19 274.609, 1099.43 274.609 " fill="#000000"/>
<path class="note" d="M 1109.74 143.145 Q 1110.98 143.145, 1111.96 143.685 Q 1112.94 144.225, 1113.48 145.205 Q 1114.02 146.185, 1114.02 147.425 Q 1114.02 148.805, 1113.4 149.885 Q 1112.8 150.945, 1111.72 151.545 Q 1110.64 152.145, 1109.26 152.145 Q 1106.74 152.145, 1105.46 150.445 Q 1104.2 148.725, 1104.2 145.325 Q 1104.2 141.565, 1105.76 139.625 Q 1107.34 137.665, 1110.36 137.665 Q 1111.24 137.665, 1111.98 137.865 Q 1112.74 138.065, 1113.46 138.485 L 1112.68 139.825 Q 1111.64 139.265, 1110.38 139.265 Q 1108.38 139.265, 1107.36 140.565 Q 1106.34 141.845, 1106.22 144.505 Q 1106.94 143.845, 1107.84 143.505 Q 1108.76 143.145, 1109.74 143.145 M 1109.28 150.505 Q 1110.04 150.505, 1110.66 150.105 Q 1111.3 149.705, 1111.66 149.005 Q 1112.02 148.305, 1112.02 147.445 Q 1112.02 146.185, 1111.32 145.465 Q 1110.62 144.745, 1109.38 144.745 Q 1108.52 144.745, 1107.66 145.105 Q 1106.82 145.445, 1106.22 146.045 Q 1106.3 148.385, 1107.04 149.445 Q 1107.78 150.505, 1109.28 150.505 " fill="#000000"/>
<path class="note" d="M 1250.62 72.7399 L 1243.2 72.7399 L 1243.2 71.1399 L 1252.6 71.1399 L 1252.6 72.5599 L 1246.88 85.2999 L 1244.96 85.2999 L 1250.62 72.7399 " fill="#000000"/>
<path class="note" d="M 1359.04 152.354 Q 1360.34 152.914, 1361.08 153.754 Q 1361.82 154.574, 1361.82 155.974 Q 1361.82 157.174, 1361.2 158.114 Q 1360.58 159.034, 1359.46 159.554 Q 1358.36 160.054, 1356.9 160.054 Q 1354.54 160.054, 1353.18 158.974 Q 1351.82 157.874, 1351.82 155.974 Q 1351.82 154.814, 1352.42 153.954 Q 1353.02 153.074, 1354.26 152.414 Q 1353.34 151.894, 1352.84 151.134 Q 1352.34 150.354, 1352.34 149.154 Q 1352.34 147.494, 1353.54 146.514 Q 1354.76 145.534, 1356.82 145.534 Q 1358.88 145.534, 1360.08 146.514 Q 1361.3 147.494, 1361.3 149.154 Q 1361.3 150.194, 1360.72 150.974 Q 1360.16 151.734, 1359.04 152.354 M 1356.82 147.034 Q 1355.64 147.034, 1354.98 147.594 Q 1354.34 148.154, 1354.34 149.154 Q 1354.34 149.894, 1354.78 150.394 Q 1355.22 150.874, 1355.84 151.154 Q 1356.48 151.434, 1357.7 151.854 Q 1358.56 151.254, 1358.92 150.614 Q 1359.3 149.974, 1359.3 149.154 Q 1359.3 148.154, 1358.64 147.594 Q 1358 147.034, 1356.82 147.034 M 1356.9 158.554 Q 1358.22 158.554, 1359.02 157.854 Q 1359.82 157.134, 1359.82 155.954 Q 1359.82 155.194, 1359.4 154.714 Q 1358.98 154.234, 1358.34 153.954 Q 1357.72 153.674, 1356.6 153.314 L 1355.7 153.014 Q 1354.7 153.614, 1354.26 154.334 Q 1353.82 155.034, 1353.82 155.954 Q 1353.82 157.134, 1354.66 157.854 Q 1355.5 158.554, 1356.9 158.554 " fill="#000000"/>
<path class="note" d="M 1475.62 88.4445 Q 1478.14 88.4445, 1479.4 90.1645 Q 1480.68 91.8645, 1480.68 95.2645 Q 1480.68 99.0245, 1479.1 100.985 Q 1477.54 102.925, 1474.52 102.925 Q 1473.64 102.925, 1472.88 102.725 Q 1472.14 102.525, 1471.42 102.105 L 1472.2 100.765 Q 1473.24 101.325, 1474.5 101.325 Q 1476.5 101.325, 1477.52 100.045 Q 1478.54 98.7445, 1478.66 96.0845 Q 1477.94 96.7445, 1477.02 97.1045 Q 1476.12 97.4445, 1475.14 97.4445 Q 1473.9 97.4445, 1472.92 96.9045 Q 1471.94 96.3645, 1471.4 95.3845 Q 1470.86 94.4045, 1470.86 93.1645 Q 1470.86 91.7845, 1471.46 90.7245 Q 1472.08 89.6445, 1473.16 89.0445 Q 1474.24 88.4445, 1475.62 88.4445 M 1472.86 93.1445 Q 1472.86 94.4045, 1473.56 95.1245 Q 1474.26 95.8445, 1475.5 95.8445 Q 1476.36 95.8445, 1477.2 95.5045 Q 1478.06 95.1445, 1478.66 94.5445 Q 1478.58 92.2045, 1477.84 91.1445 Q 1477.1 90.0845, 1475.6 90.0845 Q 1474.84 90.0845, 1474.2 90.4845 Q 1473.58 90.8845, 1473.22 91.5845 Q 1472.86 92.2845, 1472.86 93.1445 " fill="#000000"/>
<path class="note" d="M 1549.64 207.081 L 1552.74 207.081 L 1552.74 196.501 L 1549.32 197.561 L 1548.86 196.381 L 1553.2 194.441 L 1554.62 194.681 L 1554.62 207.081 L 1557.4 207.081 L 1557.4 208.681 L 1549.64 208.681 L 1549.64 207.081 " fill="#000000"/>
<path class="note" d="M 1563.8 208.841 Q 1561.2 208.841, 1559.9 206.921 Q 1558.62 205.001, 1558.62 201.581 Q 1558.62 198.161, 1559.9 196.261 Q 1561.18 194.361, 1563.8 194.361 Q 1566.42 194.361, 1567.7 196.261 Q 1568.98 198.161, 1568.98 201.581 Q 1568.98 205.001, 1567.68 206.921 Q 1566.4 208.841, 1563.8 208.841 M 1563.8 207.241 Q 1565.34 207.241, 1566.16 205.821 Q 1566.98 204.381, 1566.98 201.581 Q 1566.98 198.801, 1566.16 197.381 Q 1565.34 195.961, 1563.8 195.961 Q 1562.28 195.961, 1561.44 197.381 Q 1560.62 198.801, 1560.62 201.581 Q 1560.62 204.381, 1561.44 205.821 Q 1562.28 207.241, 1563.8 207.241 " fill="#000000"/>
<path class="note" d="M 1540.59 338.606 L 1543.69 338.606 L 1543.69 328.026 L 1540.27 329.086 L 1539.81 327.906 L 1544.15 325.966 L 1545.57 326.206 L 1545.57 338.606 L 1548.35 338.606 L 1548.35 340.206 L 1540.59 340.206 L 1540.59 338.606 " fill="#000000"/>
<path class="note" d="M 1550.21 338.606 L 1553.31 338.606 L 1553.31 328.026 L 1549.89 329.086 L 1549.43 327.906 L 1553.77 325.966 L 1555.19 326.206 L 1555.19 338.606 L 1557.97 338.606 L 1557.97 340.206 L 1550.21 340.206 L 1550.21 338.606 " fill="#000000"/>
<path class="note" d="M 1667.2 425.533 L 1670.3 425.533 L 1670.3 414.953 L 1666.88 416.013 L 1666.42 414.833 L 1670.76 412.893 L 1672.18 413.133 L 1672.18 425.533 L 1674.96 425.533 L 1674.96 427.133 L 1667.2 427.133 L 1667.2 425.533 " fill="#000000"/>
<path class="note" d="M 1676 415.653 Q 1676.52 414.313, 1677.76 413.573 Q 1679 412.813, 1680.72 412.813 Q 1682.86 412.813, 1684.06 413.973 Q 1685.26 415.133, 1685.26 417.193 Q 1685.26 419.293, 1683.7 421.253 Q 1682.16 423.213, 1678.96 425.533 L 1685.5 425.533 L 1685.5 427.133 L 1675.96 427.133 L 1675.96 425.793 Q 1678.6 423.913, 1680.16 422.513 Q 1681.74 421.113, 1682.5 419.853 Q 1683.26 418.593, 1683.26 417.293 Q 1683.26 415.933, 1682.58 415.173 Q 1681.9 414.413, 1680.72 414.413 Q 1679.58 414.413, 1678.82 414.873 Q 1678.06 415.333, 1677.52 416.353 L 1676 415.653 " fill="#000000"/>
<path class="note" d="M 1797.43 366.342 L 1800.53 366.342 L 1800.53 355.762 L 1797.11 356.822 L 1796.65 355.642 L 1800.99 353.702 L 1802.41 353.942 L 1802.41 366.342 L 1805.19 366.342 L 1805.19 367.942 L 1797.43 367.942 L 1797.43 366.342 " fill="#000000"/>
<path class="note" d="M 1812.83 360.482 Q 1814.21 360.882, 1814.87 361.782 Q 1815.55 362.662, 1815.55 364.062 Q 1815.55 365.262, 1814.95 366.202 Q 1814.35 367.122, 1813.25 367.642 Q 1812.15 368.142, 1810.71 368.142 Q 1809.19 368.142, 1808.05 367.622 Q 1806.93 367.082, 1806.03 366.002 L 1807.17 364.842 Q 1808.05 365.802, 1808.79 366.182 Q 1809.53 366.542, 1810.71 366.542 Q 1811.99 366.542, 1812.77 365.862 Q 1813.55 365.162, 1813.55 364.042 Q 1813.55 362.602, 1812.73 361.962 Q 1811.93 361.302, 1810.19 361.302 L 1809.17 361.302 L 1809.17 359.862 L 1810.07 359.862 Q 1811.61 359.842, 1812.43 359.182 Q 1813.25 358.502, 1813.25 357.242 Q 1813.25 356.322, 1812.57 355.782 Q 1811.89 355.222, 1810.73 355.222 Q 1809.55 355.222, 1808.81 355.642 Q 1808.09 356.062, 1807.53 357.122 L 1806.15 356.382 Q 1806.65 355.202, 1807.85 354.422 Q 1809.05 353.622, 1810.73 353.622 Q 1812.81 353.622, 1814.03 354.602 Q 1815.25 355.582, 1815.25 357.242 Q 1815.25 358.382, 1814.63 359.202 Q 1814.01 360.022, 1812.83 360.482 " fill="#000000"/>
<path class="note" d="M 1837.04 195.881 L 1840.14 195.881 L 1840.14 185.301 L 1836.72 186.361 L 1836.26 185.181 L 1840.6 183.241 L 1842.02 183.481 L 1842.02 195.881 L 1844.8 195.881 L 1844.8 197.481 L 1837.04 197.481 L 1837.04 195.881 " fill="#000000"/>
<path class="note" d="M 1854.6 192.621 L 1856.3 192.621 L 1856.3 194.221 L 1854.6 194.221 L 1854.6 197.481 L 1852.72 197.481 L 1852.72 194.221 L 1845.4 194.221 L 1845.4 192.961 L 1851.6 183.321 L 1854.6 183.321 L 1854.6 192.621 M 1847.72 192.621 L 1852.72 192.621 L 1852.72 184.601 L 1847.72 192.621 " fill="#000000"/>
<path class="note" d="M 1690.64 118.509 L 1693.74 118.509 L 1693.74 107.929 L 1690.32 108.989 L 1689.86 107.809 L 1694.2 105.869 L 1695.62 106.109 L 1695.62 118.509 L 1698.4 118.509 L 1698.4 120.109 L 1690.64 120.109 L 1690.64 118.509 " fill="#000000"/>
<path class="note" d="M 1704.46 111.249 Q 1705.7 111.249, 1706.72 111.789 Q 1707.74 112.309, 1708.32 113.309 Q 1708.9 114.289, 1708.9 115.629 Q 1708.9 117.089, 1708.18 118.149 Q 1707.48 119.189, 1706.32 119.729 Q 1705.16 120.269, 1703.84 120.269 Q 1702.54 120.269, 1701.34 119.789 Q 1700.14 119.309, 1699.32 118.389 L 1700.52 117.149 Q 1701.18 117.869, 1702.08 118.269 Q 1702.98 118.649, 1703.9 118.649 Q 1705.16 118.649, 1706.02 117.869 Q 1706.9 117.089, 1706.9 115.669 Q 1706.9 114.169, 1706.02 113.469 Q 1705.16 112.749, 1703.78 112.749 Q 1702.54 112.749, 1701.16 113.289 L 1700.06 112.769 L 1700.74 105.949 L 1708.02 105.949 L 1707.82 107.549 L 1702.38 107.549 L 1701.96 111.749 Q 1703.22 111.249, 1704.46 111.249 " fill="#000000"/>
<path class="note" d="M 1341.27 331.572 L 1344.37 331.572 L 1344.37 320.992 L 1340.95 322.052 L 1340.49 320.872 L 1344.83 318.932 L 1346.25 319.172 L 1346.25 331.572 L 1349.03 331.572 L 1349.03 333.172 L 1341.27 333.172 L 1341.27 331.572 " fill="#000000"/>
<path class="note" d="M 1355.93 324.332 Q 1357.17 324.332, 1358.15 324.872 Q 1359.13 325.412, 1359.67 326.392 Q 1360.21 327.372, 1360.21 328.612 Q 1360.21 329.992, 1359.59 331.072 Q 1358.99 332.132, 1357.91 332.732 Q 1356.83 333.332, 1355.45 333.332 Q 1352.93 333.332, 1351.65 331.632 Q 1350.39 329.912, 1350.39 326.512 Q 1350.39 322.752, 1351.95 320.812 Q 1353.53 318.852, 1356.55 318.852 Q 1357.43 318.852, 1358.17 319.052 Q 1358.93 319.252, 1359.65 319.672 L 1358.87 321.012 Q 1357.83 320.452, 1356.57 320.452 Q 1354.57 320.452, 1353.55 321.752 Q 1352.53 323.032, 1352.41 325.692 Q 1353.13 325.032, 1354.03 324.692 Q 1354.95 324.332, 1355.93 324.332 M 1355.47 331.692 Q 1356.23 331.692, 1356.85 331.292 Q 1357.49 330.892, 1357.85 330.192 Q 1358.21 329.492, 1358.21 328.632 Q 1358.21 327.372, 1357.51 326.652 Q 1356.81 325.932, 1355.57 325.932 Q 1354.71 325.932, 1353.85 326.292 Q 1353.01 326.632, 1352.41 327.232 Q 1352.49 329.572, 1353.23 330.632 Q 1353.97 331.692, 1355.47 331.692 " fill="#000000"/>
<path class="note" d="M 1211.84 390.724 L 1214.94 390.724 L 1214.94 380.144 L 1211.52 381.204 L 1211.06 380.024 L 1215.4 378.084 L 1216.82 378.324 L 1216.82 390.724 L 1219.6 390.724 L 1219.6 392.324 L 1211.84 392.324 L 1211.84 390.724 " fill="#000000"/>
<path class="note" d="M 1227.38 379.764 L 1219.96 379.764 L 1219.96 378.164 L 1229.36 378.164 L 1229.36 379.584 L 1223.64 392.324 L 1221.72 392.324 L 1227.38 379.764 " fill="#000000"/>
<path class="note" d="M 2743.02 350.181 L 2746.12 350.181 L 2746.12 339.601 L 2742.7 340.661 L 2742.24 339.481 L 2746.58 337.541 L 2748 337.781 L 2748 350.181 L 2750.78 350.181 L 2750.78 351.781 L 2743.02 351.781 L 2743.02 350.181 " fill="#000000"/>
<path class="note" d="M 2849.92 286.074 Q 2850.44 284.734, 2851.68 283.994 Q 2852.92 283.234, 2854.64 283.234 Q 2856.78 283.234, 2857.98 284.394 Q 2859.18 285.554, 2859.18 287.614 Q 2859.18 289.714, 2857.62 291.674 Q 2856.08 293.634, 2852.88 295.954 L 2859.42 295.954 L 2859.42 297.554 L 2849.88 297.554 L 2849.88 296.214 Q 2852.52 294.334, 2854.08 292.934 Q 2855.66 291.534, 2856.42 290.274 Q 2857.18 289.014, 2857.18 287.714 Q 2857.18 286.354, 2856.5 285.594 Q 2855.82 284.834, 2854.64 284.834 Q 2853.5 284.834, 2852.74 285.294 Q 2851.98 285.754, 2851.44 286.774 L 2849.92 286.074 " fill="#000000"/>
<path class="note" d="M 2873.06 92.8524 Q 2874.44 93.2524, 2875.1 94.1524 Q 2875.78 95.0324, 2875.78 96.4324 Q 2875.78 97.6324, 2875.18 98.5724 Q 2874.58 99.4924, 2873.48 100.012 Q 2872.38 100.512, 2870.94 100.512 Q 2869.42 100.512, 2868.28 99.9924 Q 2867.16 99.4524, 2866.26 98.3724 L 2867.4 97.2124 Q 2868.28 98.1724, 2869.02 98.5524 Q 2869.76 98.9124, 2870.94 98.9124 Q 2872.22 98.9124, 2873 98.2324 Q 2873.78 97.5324, 2873.78 96.4124 Q 2873.78 94.9724, 2872.96 94.3324 Q 2872.16 93.6724, 2870.42 93.6724 L 2869.4 93.6724 L 2869.4 92.2324 L 2870.3 92.2324 Q 2871.84 92.2124, 2872.66 91.5524 Q 2873.48 90.8724, 2873.48 89.6124 Q 2873.48 88.6924, 2872.8 88.1524 Q 2872.12 87.5924, 2870.96 87.5924 Q 2869.78 87.5924, 2869.04 88.0124 Q 2868.32 88.4324, 2867.76 89.4924 L 2866.38 88.7524 Q 2866.88 87.5724, 2868.08 86.7924 Q 2869.28 85.9924, 2870.96 85.9924 Q 2873.04 85.9924, 2874.26 86.9724 Q 2875.48 87.9524, 2875.48 89.6124 Q 2875.48 90.7524, 2874.86 91.5724 Q 2874.24 92.3924, 2873.06 92.8524 " fill="#000000"/>
<path class="note" d="M 3004.78 370.966 L 3006.48 370.966 L 3006.48 372.566 L 3004.78 372.566 L 3004.78 375.826 L 3002.9 375.826 L 3002.9 372.566 L 2995.58 372.566 L 2995.58 371.306 L 3001.78 361.666 L 3004.78 361.666 L 3004.78 370.966 M 2997.9 370.966 L 3002.9 370.966 L 3002.9 362.946 L 2997.9 370.966 " fill="#000000"/>
<path class="note" d="M 3066.5 273.072 Q 3067.74 273.072, 3068.76 273.612 Q 3069.78 274.132, 3070.36 275.132 Q 3070.94 276.112, 3070.94 277.452 Q 3070.94 278.912, 3070.22 279.972 Q 3069.52 281.012, 3068.36 281.552 Q 3067.2 282.092, 3065.88 282.092 Q 3064.58 282.092, 3063.38 281.612 Q 3062.18 281.132, 3061.36 280.212 L 3062.56 278.972 Q 3063.22 279.692, 3064.12 280.092 Q 3065.02 280.472, 3065.94 280.472 Q 3067.2 280.472, 3068.06 279.692 Q 3068.94 278.912, 3068.94 277.492 Q 3068.94 275.992, 3068.06 275.292 Q 3067.2 274.572, 3065.82 274.572 Q 3064.58 274.572, 3063.2 275.112 L 3062.1 274.592 L 3062.78 267.772 L 3070.06 267.772 L 3069.86 269.372 L 3064.42 269.372 L 3064 273.572 Q 3065.26 273.072, 3066.5 273.072 " fill="#000000"/>
<path class="note" d="M 3077.7 141.678 Q 3078.94 141.678, 3079.92 142.218 Q 3080.9 142.758, 3081.44 143.738 Q 3081.98 144.718, 3081.98 145.958 Q 3081.98 147.338, 3081.36 148.418 Q 3080.76 149.478, 3079.68 150.078 Q 3078.6 150.678, 3077.22 150.678 Q 3074.7 150.678, 3073.42 148.978 Q 3072.16 147.258, 3072.16 143.858 Q 3072.16 140.098, 3073.72 138.158 Q 3075.3 136.198, 3078.32 136.198 Q 3079.2 136.198, 3079.94 136.398 Q 3080.7 136.598, 3081.42 137.018 L 3080.64 138.358 Q 3079.6 137.798, 3078.34 137.798 Q 3076.34 137.798, 3075.32 139.098 Q 3074.3 140.378, 3074.18 143.038 Q 3074.9 142.378, 3075.8 142.038 Q 3076.72 141.678, 3077.7 141.678 M 3077.24 149.038 Q 3078 149.038, 3078.62 148.638 Q 3079.26 148.238, 3079.62 147.538 Q 3079.98 146.838, 3079.98 145.978 Q 3079.98 144.718, 3079.28 143.998 Q 3078.58 143.278, 3077.34 143.278 Q 3076.48 143.278, 3075.62 143.638 Q 3074.78 143.978, 3074.18 144.578 Q 3074.26 146.918, 3075 147.978 Q 3075.74 149.038, 3077.24 149.038 " fill="#000000"/>
<path class="note" d="M 3219.01 72.2023 L 3211.59 72.2023 L 3211.59 70.6023 L 3220.99 70.6023 L 3220.99 72.0223 L 3215.27 84.7623 L 3213.35 84.7623 L 3219.01 72.2023 " fill="#000000"/>
<path class="note" d="M 3326.93 152.543 Q 3328.23 153.103, 3328.97 153.943 Q 3329.71 154.763, 3329.71 156.163 Q 3329.71 157.363, 3329.09 158.303 Q 3328.47 159.223, 3327.35 159.743 Q 3326.25 160.243, 3324.79 160.243 Q 3322.43 160.243, 3321.07 159.163 Q 3319.71 158.063, 3319.71 156.163 Q 3319.71 155.003, 3320.31 154.143 Q 3320.91 153.263, 3322.15 152.603 Q 3321.23 152.083, 3320.73 151.323 Q 3320.23 150.543, 3320.23 149.343 Q 3320.23 147.683, 3321.43 146.703 Q 3322.65 145.723, 3324.71 145.723 Q 3326.77 145.723, 3327.97 146.703 Q 3329.19 147.683, 3329.19 149.343 Q 3329.19 150.383, 3328.61 151.163 Q 3328.05 151.923, 3326.93 152.543 M 3324.71 147.223 Q 3323.53 147.223, 3322.87 147.783 Q 3322.23 148.343, 3322.23 149.343 Q 3322.23 150.083, 3322.67 150.583 Q 3323.11 151.063, 3323.73 151.343 Q 3324.37 151.623, 3325.59 152.043 Q 3326.45 151.443, 3326.81 150.803 Q 3327.19 150.163, 3327.19 149.343 Q 3327.19 148.343, 3326.53 147.783 Q 3325.89 147.223, 3324.71 147.223 M 3324.79 158.743 Q 3326.11 158.743, 3326.91 158.043 Q 3327.71 157.323, 3327.71 156.143 Q 3327.71 155.383, 3327.29 154.903 Q 3326.87 154.423, 3326.23 154.143 Q 3325.61 153.863, 3324.49 153.503 L 3323.59 153.203 Q 3322.59 153.803, 3322.15 154.523 Q 3321.71 155.223, 3321.71 156.143 Q 3321.71 157.323, 3322.55 158.043 Q 3323.39 158.743, 3324.79 158.743 " fill="#000000"/>
<path class="note" d="M 3443.9 89.4298 Q 3446.42 89.4298, 3447.68 91.1498 Q 3448.96 92.8498, 3448.96 96.2498 Q 3448.96 100.01, 3447.38 101.97 Q 3445.82 103.91, 3442.8 103.91 Q 3441.92 103.91, 3441.16 103.71 Q 3440.42 103.51, 3439.7 103.09 L 3440.48 101.75 Q 3441.52 102.31, 3442.78 102.31 Q 3444.78 102.31, 3445.8 101.03 Q 3446.82 99.7298, 3446.94 97.0698 Q 3446.22 97.7298, 3445.3 98.0898 Q 3444.4 98.4298, 3443.42 98.4298 Q 3442.18 98.4298, 3441.2 97.8898 Q 3440.22 97.3498, 3439.68 96.3698 Q 3439.14 95.3898, 3439.14 94.1498 Q 3439.14 92.7698, 3439.74 91.7098 Q 3440.36 90.6298, 3441.44 90.0298 Q 3442.52 89.4298, 3443.9 89.4298 M 3441.14 94.1298 Q 3441.14 95.3898, 3441.84 96.1098 Q 3442.54 96.8298, 3443.78 96.8298 Q 3444.64 96.8298, 3445.48 96.4898 Q 3446.34 96.1298, 3446.94 95.5298 Q 3446.86 93.1898, 3446.12 92.1298 Q 3445.38 91.0698, 3443.88 91.0698 Q 3443.12 91.0698, 3442.48 91.4698 Q 3441.86 91.8698, 3441.5 92.5698 Q 3441.14 93.2698, 3441.14 94.1298 " fill="#000000"/>
<path class="note" d="M 3517.21 208.649 L 3520.31 208.649 L 3520.31 198.069 L 3516.89 199.129 L 3516.43 197.949 L 3520.77 196.009 L 3522.19 196.249 L 3522.19 208.649 L 3524.97 208.649 L 3524.97 210.249 L 3517.21 210.249 L 3517.21 208.649 " fill="#000000"/>
<path class="note" d="M 3531.37 210.409 Q 3528.77 210.409, 3527.47 208.489 Q 3526.19 206.569, 3526.19 203.149 Q 3526.19 199.729, 3527.47 197.829 Q 3528.75 195.929, 3531.37 195.929 Q 3533.99 195.929, 3535.27 197.829 Q 3536.55 199.729, 3536.55 203.149 Q 3536.55 206.569, 3535.25 208.489 Q 3533.97 210.409, 3531.37 210.409 M 3531.37 208.809 Q 3532.91 208.809, 3533.73 207.389 Q 3534.55 205.949, 3534.55 203.149 Q 3534.55 200.369, 3533.73 198.949 Q 3532.91 197.529, 3531.37 197.529 Q 3529.85 197.529, 3529.01 198.949 Q 3528.19 200.369, 3528.19 203.149 Q 3528.19 205.949, 3529.01 207.389 Q 3529.85 208.809, 3531.37 208.809 " fill="#000000"/>
<path class="note" d="M 3507.27 340.103 L 3510.37 340.103 L 3510.37 329.523 L 3506.95 330.583 L 3506.49 329.403 L 3510.83 327.463 L 3512.25 327.703 L 3512.25 340.103 L 3515.03 340.103 L 3515.03 341.703 L 3507.27 341.703 L 3507.27 340.103 " fill="#000000"/>
<path class="note" d="M 3516.89 340.103 L 3519.99 340.103 L 3519.99 329.523 L 3516.57 330.583 L 3516.11 329.403 L 3520.45 327.463 L 3521.87 327.703 L 3521.87 340.103 L 3524.65 340.103 L 3524.65 341.703 L 3516.89 341.703 L 3516.89 340.103 " fill="#000000"/>
<path class="note" d="M 3633.3 427.878 L 3636.4 427.878 L 3636.4 417.298 L 3632.98 418.358 L 3632.52 417.178 L 3636.86 415.238 L 3638.28 415.478 L 3638.28 427.878 L 3641.06 427.878 L 3641.06 429.478 L 3633.3 429.478 L 3633.3 427.878 " fill="#000000"/>
<path class="note" d="M 3642.1 417.998 Q 3642.62 416.658, 3643.86 415.918 Q 3645.1 415.158, 3646.82 415.158 Q 3648.96 415.158, 3650.16 416.318 Q 3651.36 417.478, 3651.36 419.538 Q 3651.36 421.638, 3649.8 423.598 Q 3648.26 425.558, 3645.06 427.878 L 3651.6 427.878 L 3651.6 429.478 L 3642.06 429.478 L 3642.06 428.138 Q 3644.7 426.258, 3646.26 424.858 Q 3647.84 423.458, 3648.6 422.198 Q 3649.36 420.938, 3649.36 419.638 Q 3649.36 418.278, 3648.68 417.518 Q 3648 416.758, 3646.82 416.758 Q 3645.68 416.758, 3644.92 417.218 Q 3644.16 417.678, 3643.62 418.698 L 3642.1 417.998 " fill="#000000"/>
<path class="note" d="M 3763.93 369.558 L 3767.03 369.558 L 3767.03 358.978 L 3763.61 360.038 L 3763.15 358.858 L 3767.49 356.918 L 3768.91 357.158 L 3768.91 369.558 L 3771.69 369.558 L 3771.69 371.158 L 3763.93 371.158 L 3763.93 369.558 " fill="#000000"/>
<path class="note" d="M 3779.33 363.698 Q 3780.71 364.098, 3781.37 364.998 Q 3782.05 365.878, 3782.05 367.278 Q 3782.05 368.478, 3781.45 369.418 Q 3780.85 370.338, 3779.75 370.858 Q 3778.65 371.358, 3777.21 371.358 Q 3775.69 371.358, 3774.55 370.838 Q 3773.43 370.298, 3772.53 369.218 L 3773.67 368.058 Q 3774.55 369.018, 3775.29 369.398 Q 3776.03 369.758, 3777.21 369.758 Q 3778.49 369.758, 3779.27 369.078 Q 3780.05 368.378, 3780.05 367.258 Q 3780.05 365.818, 3779.23 365.178 Q 3778.43 364.518, 3776.69 364.518 L 3775.67 364.518 L 3775.67 363.078 L 3776.57 363.078 Q 3778.11 363.058, 3778.93 362.398 Q 3779.75 361.718, 3779.75 360.458 Q 3779.75 359.538, 3779.07 358.998 Q 3778.39 358.438, 3777.23 358.438 Q 3776.05 358.438, 3775.31 358.858 Q 3774.59 359.278, 3774.03 360.338 L 3772.65 359.598 Q 3773.15 358.418, 3774.35 357.638 Q 3775.55 356.838, 3777.23 356.838 Q 3779.31 356.838, 3780.53 357.818 Q 3781.75 358.798, 3781.75 360.458 Q 3781.75 361.598, 3781.13 362.418 Q 3780.51 363.238, 3779.33 363.698 " fill="#000000"/>
<path class="note" d="M 3804.67 199.37 L 3807.77 199.37 L 3807.77 188.79 L 3804.35 189.85 L 3803.89 188.67 L 3808.23 186.73 L 3809.65 186.97 L 3809.65 199.37 L 3812.43 199.37 L 3812.43 200.97 L 3804.67 200.97 L 3804.67 199.37 " fill="#000000"/>
<path class="note" d="M 3822.23 196.11 L 3823.93 196.11 L 3823.93 197.71 L 3822.23 197.71 L 3822.23 200.97 L 3820.35 200.97 L 3820.35 197.71 L 3813.03 197.71 L 3813.03 196.45 L 3819.23 186.81 L 3822.23 186.81 L 3822.23 196.11 M 3815.35 196.11 L 3820.35 196.11 L 3820.35 188.09 L 3815.35 196.11 " fill="#000000"/>
<path class="note" d="M 3658.79 121.017 L 3661.89 121.017 L 3661.89 110.437 L 3658.47 111.497 L 3658.01 110.317 L 3662.35 108.377 L 3663.77 108.617 L 3663.77 121.017 L 3666.55 121.017 L 3666.55 122.617 L 3658.79 122.617 L 3658.79 121.017 " fill="#000000"/>
<path class="note" d="M 3672.61 113.757 Q 3673.85 113.757, 3674.87 114.297 Q 3675.89 114.817, 3676.47 115.817 Q 3677.05 116.797, 3677.05 118.137 Q 3677.05 119.597, 3676.33 120.657 Q 3675.63 121.697, 3674.47 122.237 Q 3673.31 122.777, 3671.99 122.777 Q 3670.69 122.777, 3669.49 122.297 Q 3668.29 121.817, 3667.47 120.897 L 3668.67 119.657 Q 3669.33 120.377, 3670.23 120.777 Q 3671.13 121.157, 3672.05 121.157 Q 3673.31 121.157, 3674.17 120.377 Q 3675.05 119.597, 3675.05 118.177 Q 3675.05 116.677, 3674.17 115.977 Q 3673.31 115.257, 3671.93 115.257 Q 3670.69 115.257, 3669.31 115.797 L 3668.21 115.277 L 3668.89 108.457 L 3676.17 108.457 L 3675.97 110.057 L 3670.53 110.057 L 3670.11 114.257 Q 3671.37 113.757, 3672.61 113.757 " fill="#000000"/>
<path class="note" d="M 3308.01 331.743 L 3311.11 331.743 L 3311.11 321.163 L 3307.69 322.223 L 3307.23 321.043 L 3311.57 319.103 L 3312.99 319.343 L 3312.99 331.743 L 3315.77 331.743 L 3315.77 333.343 L 3308.01 333.343 L 3308.01 331.743 " fill="#000000"/>
<path class="note" d="M 3322.67 324.503 Q 3323.91 324.503, 3324.89 325.043 Q 3325.87 325.583, 3326.41 326.563 Q 3326.95 327.543, 3326.95 328.783 Q 3326.95 330.163, 3326.33 331.243 Q 3325.73 332.303, 3324.65 332.903 Q 3323.57 333.503, 3322.19 333.503 Q 3319.67 333.503, 3318.39 331.803 Q 3317.13 330.083, 3317.13 326.683 Q 3317.13 322.923, 3318.69 320.983 Q 3320.27 319.023, 3323.29 319.023 Q 3324.17 319.023, 3324.91 319.223 Q 3325.67 319.423, 3326.39 319.843 L 3325.61 321.183 Q 3324.57 320.623, 3323.31 320.623 Q 3321.31 320.623, 3320.29 321.923 Q 3319.27 323.203, 3319.15 325.863 Q 3319.87 325.203, 3320.77 324.863 Q 3321.69 324.503, 3322.67 324.503 M 3322.21 331.863 Q 3322.97 331.863, 3323.59 331.463 Q 3324.23 331.063, 3324.59 330.363 Q 3324.95 329.663, 3324.95 328.803 Q 3324.95 327.543, 3324.25 326.823 Q 3323.55 326.103, 3322.31 326.103 Q 3321.45 326.103, 3320.59 326.463 Q 3319.75 326.803, 3319.15 327.403 Q 3319.23 329.743, 3319.97 330.803 Q 3320.71 331.863, 3322.21 331.863 " fill="#000000"/>
<path class="note" d="M 3178.18 390.023 L 3181.28 390.023 L 3181.28 379.443 L 3177.86 380.503 L 3177.4 379.323 L 3181.74 377.383 L 3183.16 377.623 L 3183.16 390.023 L 3185.94 390.023 L 3185.94 391.623 L 3178.18 391.623 L 3178.18 390.023 " fill="#000000"/>
<path class="note" d="M 3193.72 379.063 L 3186.3 379.063 L 3186.3 377.463 L 3195.7 377.463 L 3195.7 378.883 L 3189.98 391.623 L 3188.06 391.623 L 3193.72 379.063 " fill="#000000"/>
<path d="M 782.828 247.696 L 788.876 247.696 L 788.876 241.328 L 791.564 241.328 L 791.564 247.696 L 797.772 247.696 L 797.772 250 L 791.564 250 L 791.564 256.4 L 788.876 256.4 L 788.876 250 L 782.828 250 L 782.828 247.696 " fill="#000000"/>
<path d="M 1992.17,250 L 2541.74,250" style="fill:none;fill-rule:evenodd;stroke:#000000;stroke-width:2.0px;stroke-linecap:butt;stroke-linejoin:miter;stroke-opacity:1"/>
<path d="M 2541.74,250 L 2517.95,236.261" style="fill:none;fill-rule:evenodd;stroke:#000000;stroke-width:2.0px;stroke-linecap:butt;stroke-linejoin:miter;stroke-opacity:1"/>
<path d="M 2541.74,250 L 2517.95,263.739" style="fill:none;fill-rule:evenodd;stroke:#000000;stroke-width:2.0px;stroke-linecap:butt;stroke-linejoin:miter;stroke-opacity:1"/>
</svg>