<svg xmlns="http://www.w3.org/2000/svg" xmlns:rdkit="http://www.rdkit.org/xml" xmlns:xlink="http://www.w3.org/1999/xlink" version="1.1" baseProfile="full" xml:space="preserve" width="4000px" height="500px" viewBox="0 0 4000 500">
<!-- END OF HEADER -->
<rect style="opacity:1.0;fill:#FFFFFF;stroke:none" width="4000" height="500" x="0" y="0"> </rect>
<path d="M 598.148,141.616 L 735.833,221.108" style="fill:none;fill-rule:evenodd;stroke:#FFFFAA;stroke-width:33.9px;stroke-linecap:butt;stroke-linejoin:miter;stroke-opacity:1"/>
<path d="M 735.833,221.108 L 873.518,141.616" style="fill:none;fill-rule:evenodd;stroke:#FFFFAA;stroke-width:33.9px;stroke-linecap:butt;stroke-linejoin:miter;stroke-opacity:1"/>
<path d="M 735.833,221.108 L 735.833,380.093" style="fill:none;fill-rule:evenodd;stroke:#FFFFAA;stroke-width:33.9px;stroke-linecap:butt;stroke-linejoin:miter;stroke-opacity:1"/>
<path d="M 1306.54,279.113 L 1461.35,242.904" style="fill:none;fill-rule:evenodd;stroke:#FFCC99;stroke-width:33.9px;stroke-linecap:butt;stroke-linejoin:miter;stroke-opacity:1"/>
<path d="M 1461.35,242.904 L 1507.39,90.7333" style="fill:none;fill-rule:evenodd;stroke:#FFCC99;stroke-width:33.9px;stroke-linecap:butt;stroke-linejoin:miter;stroke-opacity:1"/>
<path d="M 1461.35,242.904 L 1570.11,358.866" style="fill:none;fill-rule:evenodd;stroke:#FFCC99;stroke-width:33.9px;stroke-linecap:butt;stroke-linejoin:miter;stroke-opacity:1"/>
<path d="M 1507.39,90.7333 L 1662.2,54.5242" style="fill:none;fill-rule:evenodd;stroke:#FFCC99;stroke-width:33.9px;stroke-linecap:butt;stroke-linejoin:miter;stroke-opacity:1"/>
<path d="M 1662.2,54.5242 L 1770.96,170.486" style="fill:none;fill-rule:evenodd;stroke:#FFCC99;stroke-width:33.9px;stroke-linecap:butt;stroke-linejoin:miter;stroke-opacity:1"/>
<path d="M 1770.96,170.486 L 1925.76,134.277" style="fill:none;fill-rule:evenodd;stroke:#FFCC99;stroke-width:33.9px;stroke-linecap:butt;stroke-linejoin:miter;stroke-opacity:1"/>
<path d="M 1770.96,170.486 L 1724.91,322.657" style="fill:none;fill-rule:evenodd;stroke:#FFCC99;stroke-width:33.9px;stroke-linecap:butt;stroke-linejoin:miter;stroke-opacity:1"/>
<path d="M 1724.91,322.657 L 1833.67,438.619" style="fill:none;fill-rule:evenodd;stroke:#FFCC99;stroke-width:33.9px;stroke-linecap:butt;stroke-linejoin:miter;stroke-opacity:1"/>
<path d="M 1724.91,322.657 L 1570.11,358.866" style="fill:none;fill-rule:evenodd;stroke:#FFCC99;stroke-width:33.9px;stroke-linecap:butt;stroke-linejoin:miter;stroke-opacity:1"/>
<path d="M 2763.76,295.396 L 2911.72,237.21" style="fill:none;fill-rule:evenodd;stroke:#FFFFAA;stroke-width:33.9px;stroke-linecap:butt;stroke-linejoin:miter;stroke-opacity:1"/>
<path d="M 2911.72,237.21 L 2935.3,79.9851" style="fill:none;fill-rule:evenodd;stroke:#FFFFAA;stroke-width:33.9px;stroke-linecap:butt;stroke-linejoin:miter;stroke-opacity:1"/>
<path d="M 3036.08,336.25 L 3184.04,278.064" style="fill:none;fill-rule:evenodd;stroke:#FFCC99;stroke-width:33.9px;stroke-linecap:butt;stroke-linejoin:miter;stroke-opacity:1"/>
<path d="M 3184.04,278.064 L 3207.63,120.839" style="fill:none;fill-rule:evenodd;stroke:#FFCC99;stroke-width:33.9px;stroke-linecap:butt;stroke-linejoin:miter;stroke-opacity:1"/>
<path d="M 3184.04,278.064 L 3308.41,377.103" style="fill:none;fill-rule:evenodd;stroke:#FFCC99;stroke-width:33.9px;stroke-linecap:butt;stroke-linejoin:miter;stroke-opacity:1"/>
<path d="M 3207.63,120.839 L 3355.58,62.6527" style="fill:none;fill-rule:evenodd;stroke:#FFCC99;stroke-width:33.9px;stroke-linecap:butt;stroke-linejoin:miter;stroke-opacity:1"/>
<path d="M 3355.58,62.6527 L 3479.95,161.692" style="fill:none;fill-rule:evenodd;stroke:#FFCC99;stroke-width:33.9px;stroke-linecap:butt;stroke-linejoin:miter;stroke-opacity:1"/>
<path d="M 3479.95,161.692 L 3627.9,103.506" style="fill:none;fill-rule:evenodd;stroke:#FFCC99;stroke-width:33.9px;stroke-linecap:butt;stroke-linejoin:miter;stroke-opacity:1"/>
<path d="M 3479.95,161.692 L 3456.36,318.917" style="fill:none;fill-rule:evenodd;stroke:#FFCC99;stroke-width:33.9px;stroke-linecap:butt;stroke-linejoin:miter;stroke-opacity:1"/>
<path d="M 3456.36,318.917 L 3580.73,417.957" style="fill:none;fill-rule:evenodd;stroke:#FFCC99;stroke-width:33.9px;stroke-linecap:butt;stroke-linejoin:miter;stroke-opacity:1"/>
<path d="M 3456.36,318.917 L 3308.41,377.103" style="fill:none;fill-rule:evenodd;stroke:#FFCC99;stroke-width:33.9px;stroke-linecap:butt;stroke-linejoin:miter;stroke-opacity:1"/>
<ellipse cx="735.833" cy="221.108" rx="31.797" ry="31.797" style="fill:#FFFFAA;fill-rule:evenodd;stroke:#FFFFAA;stroke-width:1px;stroke-linecap:butt;stroke-linejoin:miter;stroke-opacity:1"/>
<ellipse cx="873.518" cy="141.616" rx="31.797" ry="31.797" style="fill:#FFFFAA;fill-rule:evenodd;stroke:#FFFFAA;stroke-width:1px;stroke-linecap:butt;stroke-linejoin:miter;stroke-opacity:1"/>
<ellipse cx="735.833" cy="380.313" rx="31.797" ry="31.797" style="fill:#FFFFAA;fill-rule:evenodd;stroke:#FFFFAA;stroke-width:1px;stroke-linecap:butt;stroke-linejoin:miter;stroke-opacity:1"/>
<ellipse cx="1286.84" cy="286.193" rx="43.0436" ry="31.797" style="fill:#FFCC99;fill-rule:evenodd;stroke:#FFCC99;stroke-width:1px;stroke-linecap:butt;stroke-linejoin:miter;stroke-opacity:1"/>
<ellipse cx="1461.35" cy="242.904" rx="31.797" ry="31.797" style="fill:#FFCC99;fill-rule:evenodd;stroke:#FFCC99;stroke-width:1px;stroke-linecap:butt;stroke-linejoin:miter;stroke-opacity:1"/>
<ellipse cx="1507.39" cy="90.7333" rx="31.797" ry="31.797" style="fill:#FFCC99;fill-rule:evenodd;stroke:#FFCC99;stroke-width:1px;stroke-linecap:butt;stroke-linejoin:miter;stroke-opacity:1"/>
<ellipse cx="1662.2" cy="54.5242" rx="31.797" ry="31.797" style="fill:#FFCC99;fill-rule:evenodd;stroke:#FFCC99;stroke-width:1px;stroke-linecap:butt;stroke-linejoin:miter;stroke-opacity:1"/>
<ellipse cx="1770.96" cy="170.486" rx="31.797" ry="31.797" style="fill:#FFCC99;fill-rule:evenodd;stroke:#FFCC99;stroke-width:1px;stroke-linecap:butt;stroke-linejoin:miter;stroke-opacity:1"/>
<ellipse cx="1925.76" cy="134.277" rx="31.797" ry="31.797" style="fill:#FFCC99;fill-rule:evenodd;stroke:#FFCC99;stroke-width:1px;stroke-linecap:butt;stroke-linejoin:miter;stroke-opacity:1"/>
<ellipse cx="1724.91" cy="322.657" rx="31.797" ry="31.797" style="fill:#FFCC99;fill-rule:evenodd;stroke:#FFCC99;stroke-width:1px;stroke-linecap:butt;stroke-linejoin:miter;stroke-opacity:1"/>
<ellipse cx="1837.23" cy="438.799" rx="31.797" ry="31.797" style="fill:#FFCC99;fill-rule:evenodd;stroke:#FFCC99;stroke-width:1px;stroke-linecap:butt;stroke-linejoin:miter;stroke-opacity:1"/>
<ellipse cx="1570.11" cy="358.866" rx="31.797" ry="31.797" style="fill:#FFCC99;fill-rule:evenodd;stroke:#FFCC99;stroke-width:1px;stroke-linecap:butt;stroke-linejoin:miter;stroke-opacity:1"/>
<ellipse cx="2763.76" cy="295.396" rx="31.797" ry="31.797" style="fill:#FFFFAA;fill-rule:evenodd;stroke:#FFFFAA;stroke-width:1px;stroke-linecap:butt;stroke-linejoin:miter;stroke-opacity:1"/>
<ellipse cx="2911.72" cy="237.21" rx="31.797" ry="31.797" style="fill:#FFFFAA;fill-rule:evenodd;stroke:#FFFFAA;stroke-width:1px;stroke-linecap:butt;stroke-linejoin:miter;stroke-opacity:1"/>
<ellipse cx="2935.3" cy="80.2051" rx="31.797" ry="31.797" style="fill:#FFFFAA;fill-rule:evenodd;stroke:#FFFFAA;stroke-width:1px;stroke-linecap:butt;stroke-linejoin:miter;stroke-opacity:1"/>
<ellipse cx="3036.08" cy="351.826" rx="31.797" ry="42.0531" style="fill:#FFCC99;fill-rule:evenodd;stroke:#FFCC99;stroke-width:1px;stroke-linecap:butt;stroke-linejoin:miter;stroke-opacity:1"/>
<ellipse cx="3184.04" cy="278.064" rx="31.797" ry="31.797" style="fill:#FFCC99;fill-rule:evenodd;stroke:#FFCC99;stroke-width:1px;stroke-linecap:butt;stroke-linejoin:miter;stroke-opacity:1"/>
<ellipse cx="3207.63" cy="120.839" rx="31.797" ry="31.797" style="fill:#FFCC99;fill-rule:evenodd;stroke:#FFCC99;stroke-width:1px;stroke-linecap:butt;stroke-linejoin:miter;stroke-opacity:1"/>
<ellipse cx="3355.58" cy="62.6527" rx="31.797" ry="31.797" style="fill:#FFCC99;fill-rule:evenodd;stroke:#FFCC99;stroke-width:1px;stroke-linecap:butt;stroke-linejoin:miter;stroke-opacity:1"/>
<ellipse cx="3479.95" cy="161.692" rx="31.797" ry="31.797" style="fill:#FFCC99;fill-rule:evenodd;stroke:#FFCC99;stroke-width:1px;stroke-linecap:butt;stroke-linejoin:miter;stroke-opacity:1"/>
<ellipse cx="3627.9" cy="103.506" rx="31.797" ry="31.797" style="fill:#FFCC99;fill-rule:evenodd;stroke:#FFCC99;stroke-width:1px;stroke-linecap:butt;stroke-linejoin:miter;stroke-opacity:1"/>
<ellipse cx="3456.36" cy="318.917" rx="31.797" ry="31.797" style="fill:#FFCC99;fill-rule:evenodd;stroke:#FFCC99;stroke-width:1px;stroke-linecap:butt;stroke-linejoin:miter;stroke-opacity:1"/>
<ellipse cx="3584.29" cy="418.137" rx="31.797" ry="31.797" style="fill:#FFCC99;fill-rule:evenodd;stroke:#FFCC99;stroke-width:1px;stroke-linecap:butt;stroke-linejoin:miter;stroke-opacity:1"/>
<ellipse cx="3308.41" cy="377.103" rx="31.797" ry="31.797" style="fill:#FFCC99;fill-rule:evenodd;stroke:#FFCC99;stroke-width:1px;stroke-linecap:butt;stroke-linejoin:miter;stroke-opacity:1"/>
<path class="bond-0" d="M 322.779,141.616 L 460.463,221.108" style="fill:none;fill-rule:evenodd;stroke:#000000;stroke-width:2.0px;stroke-linecap:butt;stroke-linejoin:miter;stroke-opacity:1"/>
<path class="bond-1" d="M 444.565,221.108 L 444.565,291.453" style="fill:none;fill-rule:evenodd;stroke:#000000;stroke-width:2.0px;stroke-linecap:butt;stroke-linejoin:miter;stroke-opacity:1"/>
<path class="bond-1" d="M 444.565,291.453 L 444.565,361.799" style="fill:none;fill-rule:evenodd;stroke:#FF0000;stroke-width:2.0px;stroke-linecap:butt;stroke-linejoin:miter;stroke-opacity:1"/>
<path class="bond-1" d="M 476.362,221.108 L 476.362,291.453" style="fill:none;fill-rule:evenodd;stroke:#000000;stroke-width:2.0px;stroke-linecap:butt;stroke-linejoin:miter;stroke-opacity:1"/>
<path class="bond-1" d="M 476.362,291.453 L 476.362,361.799" style="fill:none;fill-rule:evenodd;stroke:#FF0000;stroke-width:2.0px;stroke-linecap:butt;stroke-linejoin:miter;stroke-opacity:1"/>
<path class="bond-2" d="M 460.463,221.108 L 520.819,186.262" style="fill:none;fill-rule:evenodd;stroke:#000000;stroke-width:2.0px;stroke-linecap:butt;stroke-linejoin:miter;stroke-opacity:1"/>
<path class="bond-2" d="M 520.819,186.262 L 581.174,151.416" style="fill:none;fill-rule:evenodd;stroke:#FF0000;stroke-width:2.0px;stroke-linecap:butt;stroke-linejoin:miter;stroke-opacity:1"/>
<path class="bond-3" d="M 615.123,151.416 L 675.478,186.262" style="fill:none;fill-rule:evenodd;stroke:#FF0000;stroke-width:2.0px;stroke-linecap:butt;stroke-linejoin:miter;stroke-opacity:1"/>
<path class="bond-3" d="M 675.478,186.262 L 735.833,221.108" style="fill:none;fill-rule:evenodd;stroke:#000000;stroke-width:2.0px;stroke-linecap:butt;stroke-linejoin:miter;stroke-opacity:1"/>
<path class="bond-4" d="M 735.833,221.108 L 873.518,141.616" style="fill:none;fill-rule:evenodd;stroke:#000000;stroke-width:2.0px;stroke-linecap:butt;stroke-linejoin:miter;stroke-opacity:1"/>
<path class="bond-5" d="M 719.935,221.108 L 719.935,291.453" style="fill:none;fill-rule:evenodd;stroke:#000000;stroke-width:2.0px;stroke-linecap:butt;stroke-linejoin:miter;stroke-opacity:1"/>
<path class="bond-5" d="M 719.935,291.453 L 719.935,361.799" style="fill:none;fill-rule:evenodd;stroke:#FF0000;stroke-width:2.0px;stroke-linecap:butt;stroke-linejoin:miter;stroke-opacity:1"/>
<path class="bond-5" d="M 751.732,221.108 L 751.732,291.453" style="fill:none;fill-rule:evenodd;stroke:#000000;stroke-width:2.0px;stroke-linecap:butt;stroke-linejoin:miter;stroke-opacity:1"/>
<path class="bond-5" d="M 751.732,291.453 L 751.732,361.799" style="fill:none;fill-rule:evenodd;stroke:#FF0000;stroke-width:2.0px;stroke-linecap:butt;stroke-linejoin:miter;stroke-opacity:1"/>
<path class="bond-6" d="M 1321.25,275.672 L 1391.3,259.288" style="fill:none;fill-rule:evenodd;stroke:#0000FF;stroke-width:2.0px;stroke-linecap:butt;stroke-linejoin:miter;stroke-opacity:1"/>
<path class="bond-6" d="M 1391.3,259.288 L 1461.35,242.904" style="fill:none;fill-rule:evenodd;stroke:#000000;stroke-width:2.0px;stroke-linecap:butt;stroke-linejoin:miter;stroke-opacity:1"/>
<path class="bond-7" d="M 1461.35,242.904 L 1507.39,90.7333" style="fill:none;fill-rule:evenodd;stroke:#000000;stroke-width:2.0px;stroke-linecap:butt;stroke-linejoin:miter;stroke-opacity:1"/>
<path class="bond-7" d="M 1498.69,229.288 L 1530.92,122.768" style="fill:none;fill-rule:evenodd;stroke:#000000;stroke-width:2.0px;stroke-linecap:butt;stroke-linejoin:miter;stroke-opacity:1;stroke-dasharray:6,6"/>
<path class="bond-14" d="M 1461.35,242.904 L 1570.11,358.866" style="fill:none;fill-rule:evenodd;stroke:#000000;stroke-width:2.0px;stroke-linecap:butt;stroke-linejoin:miter;stroke-opacity:1"/>
<path class="bond-14" d="M 1500.85,238.546 L 1576.98,319.72" style="fill:none;fill-rule:evenodd;stroke:#000000;stroke-width:2.0px;stroke-linecap:butt;stroke-linejoin:miter;stroke-opacity:1;stroke-dasharray:6,6"/>
<path class="bond-8" d="M 1507.39,90.7333 L 1662.2,54.5242" style="fill:none;fill-rule:evenodd;stroke:#000000;stroke-width:2.0px;stroke-linecap:butt;stroke-linejoin:miter;stroke-opacity:1"/>
<path class="bond-8" d="M 1537.85,116.263 L 1646.22,90.9169" style="fill:none;fill-rule:evenodd;stroke:#000000;stroke-width:2.0px;stroke-linecap:butt;stroke-linejoin:miter;stroke-opacity:1;stroke-dasharray:6,6"/>
<path class="bond-9" d="M 1662.2,54.5242 L 1770.96,170.486" style="fill:none;fill-rule:evenodd;stroke:#000000;stroke-width:2.0px;stroke-linecap:butt;stroke-linejoin:miter;stroke-opacity:1"/>
<path class="bond-9" d="M 1655.32,93.6707 L 1731.45,174.844" style="fill:none;fill-rule:evenodd;stroke:#000000;stroke-width:2.0px;stroke-linecap:butt;stroke-linejoin:miter;stroke-opacity:1;stroke-dasharray:6,6"/>
<path class="bond-10" d="M 1770.96,170.486 L 1842.16,153.831" style="fill:none;fill-rule:evenodd;stroke:#000000;stroke-width:2.0px;stroke-linecap:butt;stroke-linejoin:miter;stroke-opacity:1"/>
<path class="bond-10" d="M 1842.16,153.831 L 1913.37,137.176" style="fill:none;fill-rule:evenodd;stroke:#33CCCC;stroke-width:2.0px;stroke-linecap:butt;stroke-linejoin:miter;stroke-opacity:1"/>
<path class="bond-11" d="M 1770.96,170.486 L 1724.91,322.657" style="fill:none;fill-rule:evenodd;stroke:#000000;stroke-width:2.0px;stroke-linecap:butt;stroke-linejoin:miter;stroke-opacity:1"/>
<path class="bond-11" d="M 1733.62,184.103 L 1701.39,290.622" style="fill:none;fill-rule:evenodd;stroke:#000000;stroke-width:2.0px;stroke-linecap:butt;stroke-linejoin:miter;stroke-opacity:1;stroke-dasharray:6,6"/>
<path class="bond-12" d="M 1724.91,322.657 L 1771.85,372.698" style="fill:none;fill-rule:evenodd;stroke:#000000;stroke-width:2.0px;stroke-linecap:butt;stroke-linejoin:miter;stroke-opacity:1"/>
<path class="bond-12" d="M 1771.85,372.698 L 1818.78,422.738" style="fill:none;fill-rule:evenodd;stroke:#00CC00;stroke-width:2.0px;stroke-linecap:butt;stroke-linejoin:miter;stroke-opacity:1"/>
<path class="bond-13" d="M 1724.91,322.657 L 1570.11,358.866" style="fill:none;fill-rule:evenodd;stroke:#000000;stroke-width:2.0px;stroke-linecap:butt;stroke-linejoin:miter;stroke-opacity:1"/>
<path class="bond-13" d="M 1694.45,297.127 L 1586.09,322.473" style="fill:none;fill-rule:evenodd;stroke:#000000;stroke-width:2.0px;stroke-linecap:butt;stroke-linejoin:miter;stroke-opacity:1;stroke-dasharray:6,6"/>
<path class="bond-15" d="M 2763.76,295.396 L 2911.72,237.21" style="fill:none;fill-rule:evenodd;stroke:#000000;stroke-width:2.0px;stroke-linecap:butt;stroke-linejoin:miter;stroke-opacity:1"/>
<path class="bond-16" d="M 2927.44,239.569 L 2937.83,170.324" style="fill:none;fill-rule:evenodd;stroke:#000000;stroke-width:2.0px;stroke-linecap:butt;stroke-linejoin:miter;stroke-opacity:1"/>
<path class="bond-16" d="M 2937.83,170.324 L 2948.22,101.078" style="fill:none;fill-rule:evenodd;stroke:#FF0000;stroke-width:2.0px;stroke-linecap:butt;stroke-linejoin:miter;stroke-opacity:1"/>
<path class="bond-16" d="M 2895.99,234.852 L 2906.38,165.606" style="fill:none;fill-rule:evenodd;stroke:#000000;stroke-width:2.0px;stroke-linecap:butt;stroke-linejoin:miter;stroke-opacity:1"/>
<path class="bond-16" d="M 2906.38,165.606 L 2916.77,96.3611" style="fill:none;fill-rule:evenodd;stroke:#FF0000;stroke-width:2.0px;stroke-linecap:butt;stroke-linejoin:miter;stroke-opacity:1"/>
<path class="bond-17" d="M 2911.72,237.21 L 2966.54,280.871" style="fill:none;fill-rule:evenodd;stroke:#000000;stroke-width:2.0px;stroke-linecap:butt;stroke-linejoin:miter;stroke-opacity:1"/>
<path class="bond-17" d="M 2966.54,280.871 L 3021.37,324.532" style="fill:none;fill-rule:evenodd;stroke:#0000FF;stroke-width:2.0px;stroke-linecap:butt;stroke-linejoin:miter;stroke-opacity:1"/>
<path class="bond-18" d="M 3050.8,330.463 L 3117.42,304.264" style="fill:none;fill-rule:evenodd;stroke:#0000FF;stroke-width:2.0px;stroke-linecap:butt;stroke-linejoin:miter;stroke-opacity:1"/>
<path class="bond-18" d="M 3117.42,304.264 L 3184.04,278.064" style="fill:none;fill-rule:evenodd;stroke:#000000;stroke-width:2.0px;stroke-linecap:butt;stroke-linejoin:miter;stroke-opacity:1"/>
<path class="bond-19" d="M 3184.04,278.064 L 3207.63,120.839" style="fill:none;fill-rule:evenodd;stroke:#000000;stroke-width:2.0px;stroke-linecap:butt;stroke-linejoin:miter;stroke-opacity:1"/>
<path class="bond-19" d="M 3219.02,259.198 L 3235.53,149.14" style="fill:none;fill-rule:evenodd;stroke:#000000;stroke-width:2.0px;stroke-linecap:butt;stroke-linejoin:miter;stroke-opacity:1;stroke-dasharray:6,6"/>
<path class="bond-26" d="M 3184.04,278.064 L 3308.41,377.103" style="fill:none;fill-rule:evenodd;stroke:#000000;stroke-width:2.0px;stroke-linecap:butt;stroke-linejoin:miter;stroke-opacity:1"/>
<path class="bond-26" d="M 3222.5,268.046 L 3309.56,337.374" style="fill:none;fill-rule:evenodd;stroke:#000000;stroke-width:2.0px;stroke-linecap:butt;stroke-linejoin:miter;stroke-opacity:1;stroke-dasharray:6,6"/>
<path class="bond-20" d="M 3207.63,120.839 L 3355.58,62.6527" style="fill:none;fill-rule:evenodd;stroke:#000000;stroke-width:2.0px;stroke-linecap:butt;stroke-linejoin:miter;stroke-opacity:1"/>
<path class="bond-20" d="M 3241.46,141.702 L 3345.02,100.971" style="fill:none;fill-rule:evenodd;stroke:#000000;stroke-width:2.0px;stroke-linecap:butt;stroke-linejoin:miter;stroke-opacity:1;stroke-dasharray:6,6"/>
<path class="bond-21" d="M 3355.58,62.6527 L 3479.95,161.692" style="fill:none;fill-rule:evenodd;stroke:#000000;stroke-width:2.0px;stroke-linecap:butt;stroke-linejoin:miter;stroke-opacity:1"/>
<path class="bond-21" d="M 3354.43,102.382 L 3441.49,171.71" style="fill:none;fill-rule:evenodd;stroke:#000000;stroke-width:2.0px;stroke-linecap:butt;stroke-linejoin:miter;stroke-opacity:1;stroke-dasharray:6,6"/>
<path class="bond-22" d="M 3479.95,161.692 L 3547.73,135.036" style="fill:none;fill-rule:evenodd;stroke:#000000;stroke-width:2.0px;stroke-linecap:butt;stroke-linejoin:miter;stroke-opacity:1"/>
<path class="bond-22" d="M 3547.73,135.036 L 3615.51,108.381" style="fill:none;fill-rule:evenodd;stroke:#33CCCC;stroke-width:2.0px;stroke-linecap:butt;stroke-linejoin:miter;stroke-opacity:1"/>
<path class="bond-23" d="M 3479.95,161.692 L 3456.36,318.917" style="fill:none;fill-rule:evenodd;stroke:#000000;stroke-width:2.0px;stroke-linecap:butt;stroke-linejoin:miter;stroke-opacity:1"/>
<path class="bond-23" d="M 3444.97,180.559 L 3428.45,290.616" style="fill:none;fill-rule:evenodd;stroke:#000000;stroke-width:2.0px;stroke-linecap:butt;stroke-linejoin:miter;stroke-opacity:1;stroke-dasharray:6,6"/>
<path class="bond-24" d="M 3456.36,318.917 L 3511.1,362.507" style="fill:none;fill-rule:evenodd;stroke:#000000;stroke-width:2.0px;stroke-linecap:butt;stroke-linejoin:miter;stroke-opacity:1"/>
<path class="bond-24" d="M 3511.1,362.507 L 3565.84,406.096" style="fill:none;fill-rule:evenodd;stroke:#00CC00;stroke-width:2.0px;stroke-linecap:butt;stroke-linejoin:miter;stroke-opacity:1"/>
<path class="bond-25" d="M 3456.36,318.917 L 3308.41,377.103" style="fill:none;fill-rule:evenodd;stroke:#000000;stroke-width:2.0px;stroke-linecap:butt;stroke-linejoin:miter;stroke-opacity:1"/>
<path class="bond-25" d="M 3422.53,298.054 L 3318.96,338.785" style="fill:none;fill-rule:evenodd;stroke:#000000;stroke-width:2.0px;stroke-linecap:butt;stroke-linejoin:miter;stroke-opacity:1;stroke-dasharray:6,6"/>
<path class="atom-2" d="M 447.463 380.173 Q 447.463 373.373, 450.823 369.573 Q 454.183 365.773, 460.463 365.773 Q 466.743 365.773, 470.103 369.573 Q 473.463 373.373, 473.463 380.173 Q 473.463 387.053, 470.063 390.973 Q 466.663 394.853, 460.463 394.853 Q 454.223 394.853, 450.823 390.973 Q 447.463 387.093, 447.463 380.173 M 460.463 391.653 Q 464.783 391.653, 467.103 388.773 Q 469.463 385.853, 469.463 380.173 Q 469.463 374.613, 467.103 371.813 Q 464.783 368.973, 460.463 368.973 Q 456.143 368.973, 453.783 371.773 Q 451.463 374.573, 451.463 380.173 Q 451.463 385.893, 453.783 388.773 Q 456.143 391.653, 460.463 391.653 " fill="#FF0000"/>
<path class="atom-3" d="M 585.148 141.696 Q 585.148 134.896, 588.508 131.096 Q 591.868 127.296, 598.148 127.296 Q 604.428 127.296, 607.788 131.096 Q 611.148 134.896, 611.148 141.696 Q 611.148 148.576, 607.748 152.496 Q 604.348 156.376, 598.148 156.376 Q 591.908 156.376, 588.508 152.496 Q 585.148 148.616, 585.148 141.696 M 598.148 153.176 Q 602.468 153.176, 604.788 150.296 Q 607.148 147.376, 607.148 141.696 Q 607.148 136.136, 604.788 133.336 Q 602.468 130.496, 598.148 130.496 Q 593.828 130.496, 591.468 133.296 Q 589.148 136.096, 589.148 141.696 Q 589.148 147.416, 591.468 150.296 Q 593.828 153.176, 598.148 153.176 " fill="#FF0000"/>
<path class="atom-6" d="M 722.833 380.173 Q 722.833 373.373, 726.193 369.573 Q 729.553 365.773, 735.833 365.773 Q 742.113 365.773, 745.473 369.573 Q 748.833 373.373, 748.833 380.173 Q 748.833 387.053, 745.433 390.973 Q 742.033 394.853, 735.833 394.853 Q 729.593 394.853, 726.193 390.973 Q 722.833 387.093, 722.833 380.173 M 735.833 391.653 Q 740.153 391.653, 742.473 388.773 Q 744.833 385.853, 744.833 380.173 Q 744.833 374.613, 742.473 371.813 Q 740.153 368.973, 735.833 368.973 Q 731.513 368.973, 729.153 371.773 Q 726.833 374.573, 726.833 380.173 Q 726.833 385.893, 729.153 388.773 Q 731.513 391.653, 735.833 391.653 " fill="#FF0000"/>
<path class="atom-7" d="M 1256.41 264.953 L 1260.25 264.953 L 1260.25 276.993 L 1274.73 276.993 L 1274.73 264.953 L 1278.57 264.953 L 1278.57 293.273 L 1274.73 293.273 L 1274.73 280.193 L 1260.25 280.193 L 1260.25 293.273 L 1256.41 293.273 L 1256.41 264.953 " fill="#0000FF"/>
<path class="atom-7" d="M 1279.94 292.28 Q 1280.63 290.511, 1282.26 289.534 Q 1283.9 288.531, 1286.17 288.531 Q 1288.99 288.531, 1290.58 290.062 Q 1292.16 291.593, 1292.16 294.312 Q 1292.16 297.084, 1290.1 299.672 Q 1288.07 302.259, 1283.85 305.321 L 1292.48 305.321 L 1292.48 307.433 L 1279.89 307.433 L 1279.89 305.664 Q 1283.37 303.183, 1285.43 301.335 Q 1287.52 299.487, 1288.52 297.824 Q 1289.52 296.16, 1289.52 294.444 Q 1289.52 292.649, 1288.62 291.646 Q 1287.73 290.643, 1286.17 290.643 Q 1284.66 290.643, 1283.66 291.25 Q 1282.66 291.857, 1281.95 293.204 L 1279.94 292.28 " fill="#0000FF"/>
<path class="atom-7" d="M 1300.28 264.953 L 1309.56 279.953 Q 1310.48 281.433, 1311.96 284.113 Q 1313.44 286.793, 1313.52 286.953 L 1313.52 264.953 L 1317.28 264.953 L 1317.28 293.273 L 1313.4 293.273 L 1303.44 276.873 Q 1302.28 274.953, 1301.04 272.753 Q 1299.84 270.553, 1299.48 269.873 L 1299.48 293.273 L 1295.8 293.273 L 1295.8 264.953 L 1300.28 264.953 " fill="#0000FF"/>
<path class="atom-12" d="M 1917.34 120.117 L 1934.18 120.117 L 1934.18 123.357 L 1921.14 123.357 L 1921.14 131.957 L 1932.74 131.957 L 1932.74 135.237 L 1921.14 135.237 L 1921.14 148.437 L 1917.34 148.437 L 1917.34 120.117 " fill="#33CCCC"/>
<path class="atom-14" d="M 1822.75 439.599 Q 1822.75 432.559, 1826.03 428.879 Q 1829.35 425.159, 1835.63 425.159 Q 1841.47 425.159, 1844.59 429.279 L 1841.95 431.439 Q 1839.67 428.439, 1835.63 428.439 Q 1831.35 428.439, 1829.07 431.319 Q 1826.83 434.159, 1826.83 439.599 Q 1826.83 445.199, 1829.15 448.079 Q 1831.51 450.959, 1836.07 450.959 Q 1839.19 450.959, 1842.83 449.079 L 1843.95 452.079 Q 1842.47 453.039, 1840.23 453.599 Q 1837.99 454.159, 1835.51 454.159 Q 1829.35 454.159, 1826.03 450.399 Q 1822.75 446.639, 1822.75 439.599 " fill="#00CC00"/>
<path class="atom-14" d="M 1848.03 423.439 L 1851.71 423.439 L 1851.71 453.799 L 1848.03 453.799 L 1848.03 423.439 " fill="#00CC00"/>
<path class="atom-18" d="M 2922.3 80.0651 Q 2922.3 73.2651, 2925.66 69.4651 Q 2929.02 65.6651, 2935.3 65.6651 Q 2941.58 65.6651, 2944.94 69.4651 Q 2948.3 73.2651, 2948.3 80.0651 Q 2948.3 86.9451, 2944.9 90.8651 Q 2941.5 94.7451, 2935.3 94.7451 Q 2929.06 94.7451, 2925.66 90.8651 Q 2922.3 86.9851, 2922.3 80.0651 M 2935.3 91.5451 Q 2939.62 91.5451, 2941.94 88.6651 Q 2944.3 85.7451, 2944.3 80.0651 Q 2944.3 74.5051, 2941.94 71.7051 Q 2939.62 68.8651, 2935.3 68.8651 Q 2930.98 68.8651, 2928.62 71.6651 Q 2926.3 74.4651, 2926.3 80.0651 Q 2926.3 85.7851, 2928.62 88.6651 Q 2930.98 91.5451, 2935.3 91.5451 " fill="#FF0000"/>
<path class="atom-19" d="M 3029.82 322.09 L 3039.1 337.09 Q 3040.02 338.57, 3041.5 341.25 Q 3042.98 343.93, 3043.06 344.09 L 3043.06 322.09 L 3046.82 322.09 L 3046.82 350.41 L 3042.94 350.41 L 3032.98 334.01 Q 3031.82 332.09, 3030.58 329.89 Q 3029.38 327.69, 3029.02 327.01 L 3029.02 350.41 L 3025.34 350.41 L 3025.34 322.09 L 3029.82 322.09 " fill="#0000FF"/>
<path class="atom-19" d="M 3025 353.242 L 3028.84 353.242 L 3028.84 365.282 L 3043.32 365.282 L 3043.32 353.242 L 3047.16 353.242 L 3047.16 381.562 L 3043.32 381.562 L 3043.32 368.482 L 3028.84 368.482 L 3028.84 381.562 L 3025 381.562 L 3025 353.242 " fill="#0000FF"/>
<path class="atom-24" d="M 3619.48 89.3461 L 3636.32 89.3461 L 3636.32 92.5861 L 3623.28 92.5861 L 3623.28 101.186 L 3634.88 101.186 L 3634.88 104.466 L 3623.28 104.466 L 3623.28 117.666 L 3619.48 117.666 L 3619.48 89.3461 " fill="#33CCCC"/>
<path class="atom-26" d="M 3569.81 418.937 Q 3569.81 411.897, 3573.09 408.217 Q 3576.41 404.497, 3582.69 404.497 Q 3588.53 404.497, 3591.65 408.617 L 3589.01 410.777 Q 3586.73 407.777, 3582.69 407.777 Q 3578.41 407.777, 3576.13 410.657 Q 3573.89 413.497, 3573.89 418.937 Q 3573.89 424.537, 3576.21 427.417 Q 3578.57 430.297, 3583.13 430.297 Q 3586.25 430.297, 3589.89 428.417 L 3591.01 431.417 Q 3589.53 432.377, 3587.29 432.937 Q 3585.05 433.497, 3582.57 433.497 Q 3576.41 433.497, 3573.09 429.737 Q 3569.81 425.977, 3569.81 418.937 " fill="#00CC00"/>
<path class="atom-26" d="M 3595.09 402.777 L 3598.77 402.777 L 3598.77 433.137 L 3595.09 433.137 L 3595.09 402.777 " fill="#00CC00"/>
<path class="note" d="M 731.103 190.291 Q 731.623 188.951, 732.863 188.211 Q 734.103 187.451, 735.823 187.451 Q 737.963 187.451, 739.163 188.611 Q 740.363 189.771, 740.363 191.831 Q 740.363 193.931, 738.803 195.891 Q 737.263 197.851, 734.063 200.171 L 740.603 200.171 L 740.603 201.771 L 731.063 201.771 L 731.063 200.431 Q 733.703 198.551, 735.263 197.151 Q 736.843 195.751, 737.603 194.491 Q 738.363 193.231, 738.363 191.931 Q 738.363 190.571, 737.683 189.811 Q 737.003 189.051, 735.823 189.051 Q 734.683 189.051, 733.923 189.511 Q 733.163 189.971, 732.623 190.991 L 731.103 190.291 " fill="#000000"/>
<path class="note" d="M 856.779 124.189 L 859.879 124.189 L 859.879 113.609 L 856.459 114.669 L 855.999 113.489 L 860.339 111.549 L 861.759 111.789 L 861.759 124.189 L 864.539 124.189 L 864.539 125.789 L 856.779 125.789 L 856.779 124.189 " fill="#000000"/>
<path class="note" d="M 737.873 432.788 Q 739.253 433.188, 739.913 434.088 Q 740.593 434.968, 740.593 436.368 Q 740.593 437.568, 739.993 438.508 Q 739.393 439.428, 738.293 439.948 Q 737.193 440.448, 735.753 440.448 Q 734.233 440.448, 733.093 439.928 Q 731.973 439.388, 731.073 438.308 L 732.213 437.148 Q 733.093 438.108, 733.833 438.488 Q 734.573 438.848, 735.753 438.848 Q 737.033 438.848, 737.813 438.168 Q 738.593 437.468, 738.593 436.348 Q 738.593 434.908, 737.773 434.268 Q 736.973 433.608, 735.233 433.608 L 734.213 433.608 L 734.213 432.168 L 735.113 432.168 Q 736.653 432.148, 737.473 431.488 Q 738.293 430.808, 738.293 429.548 Q 738.293 428.628, 737.613 428.088 Q 736.933 427.528, 735.773 427.528 Q 734.593 427.528, 733.853 427.948 Q 733.133 428.368, 732.573 429.428 L 731.193 428.688 Q 731.693 427.508, 732.893 426.728 Q 734.093 425.928, 735.773 425.928 Q 737.853 425.928, 739.073 426.908 Q 740.293 427.888, 740.293 429.548 Q 740.293 430.688, 739.673 431.508 Q 739.053 432.328, 737.873 432.788 " fill="#000000"/>
<path class="note" d="M 1322.36 332.935 L 1324.06 332.935 L 1324.06 334.535 L 1322.36 334.535 L 1322.36 337.795 L 1320.48 337.795 L 1320.48 334.535 L 1313.16 334.535 L 1313.16 333.275 L 1319.36 323.635 L 1322.36 323.635 L 1322.36 332.935 M 1315.48 332.935 L 1320.48 332.935 L 1320.48 324.915 L 1315.48 332.935 " fill="#000000"/>
<path class="note" d="M 1443.57 221.797 Q 1444.81 221.797, 1445.83 222.337 Q 1446.85 222.857, 1447.43 223.857 Q 1448.01 224.837, 1448.01 226.177 Q 1448.01 227.637, 1447.29 228.697 Q 1446.59 229.737, 1445.43 230.277 Q 1444.27 230.817, 1442.95 230.817 Q 1441.65 230.817, 1440.45 230.337 Q 1439.25 229.857, 1438.43 228.937 L 1439.63 227.697 Q 1440.29 228.417, 1441.19 228.817 Q 1442.09 229.197, 1443.01 229.197 Q 1444.27 229.197, 1445.13 228.417 Q 1446.01 227.637, 1446.01 226.217 Q 1446.01 224.717, 1445.13 224.017 Q 1444.27 223.297, 1442.89 223.297 Q 1441.65 223.297, 1440.27 223.837 L 1439.17 223.317 L 1439.85 216.497 L 1447.13 216.497 L 1446.93 218.097 L 1441.49 218.097 L 1441.07 222.297 Q 1442.33 221.797, 1443.57 221.797 " fill="#000000"/>
<path class="note" d="M 1489.89 69.7263 Q 1491.13 69.7263, 1492.11 70.2663 Q 1493.09 70.8063, 1493.63 71.7863 Q 1494.17 72.7663, 1494.17 74.0063 Q 1494.17 75.3863, 1493.55 76.4663 Q 1492.95 77.5263, 1491.87 78.1263 Q 1490.79 78.7263, 1489.41 78.7263 Q 1486.89 78.7263, 1485.61 77.0263 Q 1484.35 75.3063, 1484.35 71.9063 Q 1484.35 68.1463, 1485.91 66.2063 Q 1487.49 64.2463, 1490.51 64.2463 Q 1491.39 64.2463, 1492.13 64.4463 Q 1492.89 64.6463, 1493.61 65.0663 L 1492.83 66.4063 Q 1491.79 65.8463, 1490.53 65.8463 Q 1488.53 65.8463, 1487.51 67.1463 Q 1486.49 68.4263, 1486.37 71.0863 Q 1487.09 70.4263, 1487.99 70.0863 Q 1488.91 69.7263, 1489.89 69.7263 M 1489.43 77.0863 Q 1490.19 77.0863, 1490.81 76.6863 Q 1491.45 76.2863, 1491.81 75.5863 Q 1492.17 74.8863, 1492.17 74.0263 Q 1492.17 72.7663, 1491.47 72.0463 Q 1490.77 71.3263, 1489.53 71.3263 Q 1488.67 71.3263, 1487.81 71.6863 Q 1486.97 72.0263, 1486.37 72.6263 Q 1486.45 74.9663, 1487.19 76.0263 Q 1487.93 77.0863, 1489.43 77.0863 " fill="#000000"/>
<path class="note" d="M 1672.59 23.6824 L 1665.17 23.6824 L 1665.17 22.0824 L 1674.57 22.0824 L 1674.57 23.5024 L 1668.85 36.2424 L 1666.93 36.2424 L 1672.59 23.6824 " fill="#000000"/>
<path class="note" d="M 1780.85 144.784 Q 1782.15 145.344, 1782.89 146.184 Q 1783.63 147.004, 1783.63 148.404 Q 1783.63 149.604, 1783.01 150.544 Q 1782.39 151.464, 1781.27 151.984 Q 1780.17 152.484, 1778.71 152.484 Q 1776.35 152.484, 1774.99 151.404 Q 1773.63 150.304, 1773.63 148.404 Q 1773.63 147.244, 1774.23 146.384 Q 1774.83 145.504, 1776.07 144.844 Q 1775.15 144.324, 1774.65 143.564 Q 1774.15 142.784, 1774.15 141.584 Q 1774.15 139.924, 1775.35 138.944 Q 1776.57 137.964, 1778.63 137.964 Q 1780.69 137.964, 1781.89 138.944 Q 1783.11 139.924, 1783.11 141.584 Q 1783.11 142.624, 1782.53 143.404 Q 1781.97 144.164, 1780.85 144.784 M 1778.63 139.464 Q 1777.45 139.464, 1776.79 140.024 Q 1776.15 140.584, 1776.15 141.584 Q 1776.15 142.324, 1776.59 142.824 Q 1777.03 143.304, 1777.65 143.584 Q 1778.29 143.864, 1779.51 144.284 Q 1780.37 143.684, 1780.73 143.044 Q 1781.11 142.404, 1781.11 141.584 Q 1781.11 140.584, 1780.45 140.024 Q 1779.81 139.464, 1778.63 139.464 M 1778.71 150.984 Q 1780.03 150.984, 1780.83 150.284 Q 1781.63 149.564, 1781.63 148.384 Q 1781.63 147.624, 1781.21 147.144 Q 1780.79 146.664, 1780.15 146.384 Q 1779.53 146.104, 1778.41 145.744 L 1777.51 145.444 Q 1776.51 146.044, 1776.07 146.764 Q 1775.63 147.464, 1775.63 148.384 Q 1775.63 149.564, 1776.47 150.284 Q 1777.31 150.984, 1778.71 150.984 " fill="#000000"/>
<path class="note" d="M 1977.22 115.047 Q 1979.74 115.047, 1981 116.767 Q 1982.28 118.467, 1982.28 121.867 Q 1982.28 125.627, 1980.7 127.587 Q 1979.14 129.527, 1976.12 129.527 Q 1975.24 129.527, 1974.48 129.327 Q 1973.74 129.127, 1973.02 128.707 L 1973.8 127.367 Q 1974.84 127.927, 1976.1 127.927 Q 1978.1 127.927, 1979.12 126.647 Q 1980.14 125.347, 1980.26 122.687 Q 1979.54 123.347, 1978.62 123.707 Q 1977.72 124.047, 1976.74 124.047 Q 1975.5 124.047, 1974.52 123.507 Q 1973.54 122.967, 1973 121.987 Q 1972.46 121.007, 1972.46 119.767 Q 1972.46 118.387, 1973.06 117.327 Q 1973.68 116.247, 1974.76 115.647 Q 1975.84 115.047, 1977.22 115.047 M 1974.46 119.747 Q 1974.46 121.007, 1975.16 121.727 Q 1975.86 122.447, 1977.1 122.447 Q 1977.96 122.447, 1978.8 122.107 Q 1979.66 121.747, 1980.26 121.147 Q 1980.18 118.807, 1979.44 117.747 Q 1978.7 116.687, 1977.2 116.687 Q 1976.44 116.687, 1975.8 117.087 Q 1975.18 117.487, 1974.82 118.187 Q 1974.46 118.887, 1974.46 119.747 " fill="#000000"/>
<path class="note" d="M 1703.69 353.579 L 1706.79 353.579 L 1706.79 342.999 L 1703.37 344.059 L 1702.91 342.879 L 1707.25 340.939 L 1708.67 341.179 L 1708.67 353.579 L 1711.45 353.579 L 1711.45 355.179 L 1703.69 355.179 L 1703.69 353.579 " fill="#000000"/>
<path class="note" d="M 1717.85 355.339 Q 1715.25 355.339, 1713.95 353.419 Q 1712.67 351.499, 1712.67 348.079 Q 1712.67 344.659, 1713.95 342.759 Q 1715.23 340.859, 1717.85 340.859 Q 1720.47 340.859, 1721.75 342.759 Q 1723.03 344.659, 1723.03 348.079 Q 1723.03 351.499, 1721.73 353.419 Q 1720.45 355.339, 1717.85 355.339 M 1717.85 353.739 Q 1719.39 353.739, 1720.21 352.319 Q 1721.03 350.879, 1721.03 348.079 Q 1721.03 345.299, 1720.21 343.879 Q 1719.39 342.459, 1717.85 342.459 Q 1716.33 342.459, 1715.49 343.879 Q 1714.67 345.299, 1714.67 348.079 Q 1714.67 350.879, 1715.49 352.319 Q 1716.33 353.739, 1717.85 353.739 " fill="#000000"/>
<path class="note" d="M 1857.36 482.793 L 1860.46 482.793 L 1860.46 472.213 L 1857.04 473.273 L 1856.58 472.093 L 1860.92 470.153 L 1862.34 470.393 L 1862.34 482.793 L 1865.12 482.793 L 1865.12 484.393 L 1857.36 484.393 L 1857.36 482.793 " fill="#000000"/>
<path class="note" d="M 1866.98 482.793 L 1870.08 482.793 L 1870.08 472.213 L 1866.66 473.273 L 1866.2 472.093 L 1870.54 470.153 L 1871.96 470.393 L 1871.96 482.793 L 1874.74 482.793 L 1874.74 484.393 L 1866.98 484.393 L 1866.98 482.793 " fill="#000000"/>
<path class="note" d="M 1549.4 389.788 L 1552.5 389.788 L 1552.5 379.208 L 1549.08 380.268 L 1548.62 379.088 L 1552.96 377.148 L 1554.38 377.388 L 1554.38 389.788 L 1557.16 389.788 L 1557.16 391.388 L 1549.4 391.388 L 1549.4 389.788 " fill="#000000"/>
<path class="note" d="M 1558.2 379.908 Q 1558.72 378.568, 1559.96 377.828 Q 1561.2 377.068, 1562.92 377.068 Q 1565.06 377.068, 1566.26 378.228 Q 1567.46 379.388, 1567.46 381.448 Q 1567.46 383.548, 1565.9 385.508 Q 1564.36 387.468, 1561.16 389.788 L 1567.7 389.788 L 1567.7 391.388 L 1558.16 391.388 L 1558.16 390.048 Q 1560.8 388.168, 1562.36 386.768 Q 1563.94 385.368, 1564.7 384.108 Q 1565.46 382.848, 1565.46 381.548 Q 1565.46 380.188, 1564.78 379.428 Q 1564.1 378.668, 1562.92 378.668 Q 1561.78 378.668, 1561.02 379.128 Q 1560.26 379.588, 1559.72 380.608 L 1558.2 379.908 " fill="#000000"/>
<path class="note" d="M 2769.97 325.576 L 2773.07 325.576 L 2773.07 314.996 L 2769.65 316.056 L 2769.19 314.876 L 2773.53 312.936 L 2774.95 313.176 L 2774.95 325.576 L 2777.73 325.576 L 2777.73 327.176 L 2769.97 327.176 L 2769.97 325.576 " fill="#000000"/>
<path class="note" d="M 2903.06 259.095 Q 2903.58 257.755, 2904.82 257.015 Q 2906.06 256.255, 2907.78 256.255 Q 2909.92 256.255, 2911.12 257.415 Q 2912.32 258.575, 2912.32 260.635 Q 2912.32 262.735, 2910.76 264.695 Q 2909.22 266.655, 2906.02 268.975 L 2912.56 268.975 L 2912.56 270.575 L 2903.02 270.575 L 2903.02 269.235 Q 2905.66 267.355, 2907.22 265.955 Q 2908.8 264.555, 2909.56 263.295 Q 2910.32 262.035, 2910.32 260.735 Q 2910.32 259.375, 2909.64 258.615 Q 2908.96 257.855, 2907.78 257.855 Q 2906.64 257.855, 2905.88 258.315 Q 2905.12 258.775, 2904.58 259.795 L 2903.06 259.095 " fill="#000000"/>
<path class="note" d="M 2945.21 27.2767 Q 2946.59 27.6767, 2947.25 28.5767 Q 2947.93 29.4567, 2947.93 30.8567 Q 2947.93 32.0567, 2947.33 32.9967 Q 2946.73 33.9167, 2945.63 34.4367 Q 2944.53 34.9367, 2943.09 34.9367 Q 2941.57 34.9367, 2940.43 34.4167 Q 2939.31 33.8767, 2938.41 32.7967 L 2939.55 31.6367 Q 2940.43 32.5967, 2941.17 32.9767 Q 2941.91 33.3367, 2943.09 33.3367 Q 2944.37 33.3367, 2945.15 32.6567 Q 2945.93 31.9567, 2945.93 30.8367 Q 2945.93 29.3967, 2945.11 28.7567 Q 2944.31 28.0967, 2942.57 28.0967 L 2941.55 28.0967 L 2941.55 26.6567 L 2942.45 26.6567 Q 2943.99 26.6367, 2944.81 25.9767 Q 2945.63 25.2967, 2945.63 24.0367 Q 2945.63 23.1167, 2944.95 22.5767 Q 2944.27 22.0167, 2943.11 22.0167 Q 2941.93 22.0167, 2941.19 22.4367 Q 2940.47 22.8567, 2939.91 23.9167 L 2938.53 23.1767 Q 2939.03 21.9967, 2940.23 21.2167 Q 2941.43 20.4167, 2943.11 20.4167 Q 2945.19 20.4167, 2946.41 21.3967 Q 2947.63 22.3767, 2947.63 24.0367 Q 2947.63 25.1767, 2947.01 25.9967 Q 2946.39 26.8167, 2945.21 27.2767 " fill="#000000"/>
<path class="note" d="M 3081.29 371.483 L 3082.99 371.483 L 3082.99 373.083 L 3081.29 373.083 L 3081.29 376.343 L 3079.41 376.343 L 3079.41 373.083 L 3072.09 373.083 L 3072.09 371.823 L 3078.29 362.183 L 3081.29 362.183 L 3081.29 371.483 M 3074.41 371.483 L 3079.41 371.483 L 3079.41 363.463 L 3074.41 371.483 " fill="#000000"/>
<path class="note" d="M 3163.66 259.777 Q 3164.9 259.777, 3165.92 260.317 Q 3166.94 260.837, 3167.52 261.837 Q 3168.1 262.817, 3168.1 264.157 Q 3168.1 265.617, 3167.38 266.677 Q 3166.68 267.717, 3165.52 268.257 Q 3164.36 268.797, 3163.04 268.797 Q 3161.74 268.797, 3160.54 268.317 Q 3159.34 267.837, 3158.52 266.917 L 3159.72 265.677 Q 3160.38 266.397, 3161.28 266.797 Q 3162.18 267.177, 3163.1 267.177 Q 3164.36 267.177, 3165.22 266.397 Q 3166.1 265.617, 3166.1 264.197 Q 3166.1 262.697, 3165.22 261.997 Q 3164.36 261.277, 3162.98 261.277 Q 3161.74 261.277, 3160.36 261.817 L 3159.26 261.297 L 3159.94 254.477 L 3167.22 254.477 L 3167.02 256.077 L 3161.58 256.077 L 3161.16 260.277 Q 3162.42 259.777, 3163.66 259.777 " fill="#000000"/>
<path class="note" d="M 3187.53 102.652 Q 3188.77 102.652, 3189.75 103.192 Q 3190.73 103.732, 3191.27 104.712 Q 3191.81 105.692, 3191.81 106.932 Q 3191.81 108.312, 3191.19 109.392 Q 3190.59 110.452, 3189.51 111.052 Q 3188.43 111.652, 3187.05 111.652 Q 3184.53 111.652, 3183.25 109.952 Q 3181.99 108.232, 3181.99 104.832 Q 3181.99 101.072, 3183.55 99.132 Q 3185.13 97.172, 3188.15 97.172 Q 3189.03 97.172, 3189.77 97.372 Q 3190.53 97.572, 3191.25 97.992 L 3190.47 99.332 Q 3189.43 98.772, 3188.17 98.772 Q 3186.17 98.772, 3185.15 100.072 Q 3184.13 101.352, 3184.01 104.012 Q 3184.73 103.352, 3185.63 103.012 Q 3186.55 102.652, 3187.53 102.652 M 3187.07 110.012 Q 3187.83 110.012, 3188.45 109.612 Q 3189.09 109.212, 3189.45 108.512 Q 3189.81 107.812, 3189.81 106.952 Q 3189.81 105.692, 3189.11 104.972 Q 3188.41 104.252, 3187.17 104.252 Q 3186.31 104.252, 3185.45 104.612 Q 3184.61 104.952, 3184.01 105.552 Q 3184.09 107.892, 3184.83 108.952 Q 3185.57 110.012, 3187.07 110.012 " fill="#000000"/>
<path class="note" d="M 3362.23 30.9684 L 3354.81 30.9684 L 3354.81 29.3684 L 3364.21 29.3684 L 3364.21 30.7884 L 3358.49 43.5284 L 3356.57 43.5284 L 3362.23 30.9684 " fill="#000000"/>
<path class="note" d="M 3486.1 135.148 Q 3487.4 135.708, 3488.14 136.548 Q 3488.88 137.368, 3488.88 138.768 Q 3488.88 139.968, 3488.26 140.908 Q 3487.64 141.828, 3486.52 142.348 Q 3485.42 142.848, 3483.96 142.848 Q 3481.6 142.848, 3480.24 141.768 Q 3478.88 140.668, 3478.88 138.768 Q 3478.88 137.608, 3479.48 136.748 Q 3480.08 135.868, 3481.32 135.208 Q 3480.4 134.688, 3479.9 133.928 Q 3479.4 133.148, 3479.4 131.948 Q 3479.4 130.288, 3480.6 129.308 Q 3481.82 128.328, 3483.88 128.328 Q 3485.94 128.328, 3487.14 129.308 Q 3488.36 130.288, 3488.36 131.948 Q 3488.36 132.988, 3487.78 133.768 Q 3487.22 134.528, 3486.1 135.148 M 3483.88 129.828 Q 3482.7 129.828, 3482.04 130.388 Q 3481.4 130.948, 3481.4 131.948 Q 3481.4 132.688, 3481.84 133.188 Q 3482.28 133.668, 3482.9 133.948 Q 3483.54 134.228, 3484.76 134.648 Q 3485.62 134.048, 3485.98 133.408 Q 3486.36 132.768, 3486.36 131.948 Q 3486.36 130.948, 3485.7 130.388 Q 3485.06 129.828, 3483.88 129.828 M 3483.96 141.348 Q 3485.28 141.348, 3486.08 140.648 Q 3486.88 139.928, 3486.88 138.748 Q 3486.88 137.988, 3486.46 137.508 Q 3486.04 137.028, 3485.4 136.748 Q 3484.78 136.468, 3483.66 136.108 L 3482.76 135.808 Q 3481.76 136.408, 3481.32 137.128 Q 3480.88 137.828, 3480.88 138.748 Q 3480.88 139.928, 3481.72 140.648 Q 3482.56 141.348, 3483.96 141.348 " fill="#000000"/>
<path class="note" d="M 3677.07 76.9508 Q 3679.59 76.9508, 3680.85 78.6708 Q 3682.13 80.3708, 3682.13 83.7708 Q 3682.13 87.5308, 3680.55 89.4908 Q 3678.99 91.4308, 3675.97 91.4308 Q 3675.09 91.4308, 3674.33 91.2308 Q 3673.59 91.0308, 3672.87 90.6108 L 3673.65 89.2708 Q 3674.69 89.8308, 3675.95 89.8308 Q 3677.95 89.8308, 3678.97 88.5508 Q 3679.99 87.2508, 3680.11 84.5908 Q 3679.39 85.2508, 3678.47 85.6108 Q 3677.57 85.9508, 3676.59 85.9508 Q 3675.35 85.9508, 3674.37 85.4108 Q 3673.39 84.8708, 3672.85 83.8908 Q 3672.31 82.9108, 3672.31 81.6708 Q 3672.31 80.2908, 3672.91 79.2308 Q 3673.53 78.1508, 3674.61 77.5508 Q 3675.69 76.9508, 3677.07 76.9508 M 3674.31 81.6508 Q 3674.31 82.9108, 3675.01 83.6308 Q 3675.71 84.3508, 3676.95 84.3508 Q 3677.81 84.3508, 3678.65 84.0108 Q 3679.51 83.6508, 3680.11 83.0508 Q 3680.03 80.7108, 3679.29 79.6508 Q 3678.55 78.5908, 3677.05 78.5908 Q 3676.29 78.5908, 3675.65 78.9908 Q 3675.03 79.3908, 3674.67 80.0908 Q 3674.31 80.7908, 3674.31 81.6508 " fill="#000000"/>
<path class="note" d="M 3492.13 305.082 L 3495.23 305.082 L 3495.23 294.502 L 3491.81 295.562 L 3491.35 294.382 L 3495.69 292.442 L 3497.11 292.682 L 3497.11 305.082 L 3499.89 305.082 L 3499.89 306.682 L 3492.13 306.682 L 3492.13 305.082 " fill="#000000"/>
<path class="note" d="M 3506.29 306.842 Q 3503.69 306.842, 3502.39 304.922 Q 3501.11 303.002, 3501.11 299.582 Q 3501.11 296.162, 3502.39 294.262 Q 3503.67 292.362, 3506.29 292.362 Q 3508.91 292.362, 3510.19 294.262 Q 3511.47 296.162, 3511.47 299.582 Q 3511.47 303.002, 3510.17 304.922 Q 3508.89 306.842, 3506.29 306.842 M 3506.29 305.242 Q 3507.83 305.242, 3508.65 303.822 Q 3509.47 302.382, 3509.47 299.582 Q 3509.47 296.802, 3508.65 295.382 Q 3507.83 293.962, 3506.29 293.962 Q 3504.77 293.962, 3503.93 295.382 Q 3503.11 296.802, 3503.11 299.582 Q 3503.11 302.382, 3503.93 303.822 Q 3504.77 305.242, 3506.29 305.242 " fill="#000000"/>
<path class="note" d="M 3620.57 431.339 L 3623.67 431.339 L 3623.67 420.759 L 3620.25 421.819 L 3619.79 420.639 L 3624.13 418.699 L 3625.55 418.939 L 3625.55 431.339 L 3628.33 431.339 L 3628.33 432.939 L 3620.57 432.939 L 3620.57 431.339 " fill="#000000"/>
<path class="note" d="M 3630.19 431.339 L 3633.29 431.339 L 3633.29 420.759 L 3629.87 421.819 L 3629.41 420.639 L 3633.75 418.699 L 3635.17 418.939 L 3635.17 431.339 L 3637.95 431.339 L 3637.95 432.939 L 3630.19 432.939 L 3630.19 431.339 " fill="#000000"/>
<path class="note" d="M 3291.45 408.868 L 3294.55 408.868 L 3294.55 398.288 L 3291.13 399.348 L 3290.67 398.168 L 3295.01 396.228 L 3296.43 396.468 L 3296.43 408.868 L 3299.21 408.868 L 3299.21 410.468 L 3291.45 410.468 L 3291.45 408.868 " fill="#000000"/>
<path class="note" d="M 3300.25 398.988 Q 3300.77 397.648, 3302.01 396.908 Q 3303.25 396.148, 3304.97 396.148 Q 3307.11 396.148, 3308.31 397.308 Q 3309.51 398.468, 3309.51 400.528 Q 3309.51 402.628, 3307.95 404.588 Q 3306.41 406.548, 3303.21 408.868 L 3309.75 408.868 L 3309.75 410.468 L 3300.21 410.468 L 3300.21 409.128 Q 3302.85 407.248, 3304.41 405.848 Q 3305.99 404.448, 3306.75 403.188 Q 3307.51 401.928, 3307.51 400.628 Q 3307.51 399.268, 3306.83 398.508 Q 3306.15 397.748, 3304.97 397.748 Q 3303.83 397.748, 3303.07 398.208 Q 3302.31 398.668, 3301.77 399.688 L 3300.25 398.988 " fill="#000000"/>
<path d="M 1048.48 244.951 L 1054.52 244.951 L 1054.52 238.583 L 1057.21 238.583 L 1057.21 244.951 L 1063.42 244.951 L 1063.42 247.255 L 1057.21 247.255 L 1057.21 253.655 L 1054.52 253.655 L 1054.52 247.255 L 1048.48 247.255 L 1048.48 244.951 " fill="#000000"/>
<path d="M 2104.38,247.255 L 2528.34,247.255" style="fill:none;fill-rule:evenodd;stroke:#000000;stroke-width:2.0px;stroke-linecap:butt;stroke-linejoin:miter;stroke-opacity:1"/>
<path d="M 2528.34,247.255 L 2509.98,236.656" style="fill:none;fill-rule:evenodd;stroke:#000000;stroke-width:2.0px;stroke-linecap:butt;stroke-linejoin:miter;stroke-opacity:1"/>
<path d="M 2528.34,247.255 L 2509.98,257.854" style="fill:none;fill-rule:evenodd;stroke:#000000;stroke-width:2.0px;stroke-linecap:butt;stroke-linejoin:miter;stroke-opacity:1"/>
</svg>