<svg xmlns="http://www.w3.org/2000/svg" xmlns:rdkit="http://www.rdkit.org/xml" xmlns:xlink="http://www.w3.org/1999/xlink" version="1.1" baseProfile="full" xml:space="preserve" width="4000px" height="500px" viewBox="0 0 4000 500">
<!-- END OF HEADER -->
<rect style="opacity:1.0;fill:#FFFFFF;stroke:none" width="4000" height="500" x="0" y="0"> </rect>
<path d="M 1119.48,203.469 L 1210.96,256.283" style="fill:none;fill-rule:evenodd;stroke:#FFFFAA;stroke-width:22.5px;stroke-linecap:butt;stroke-linejoin:miter;stroke-opacity:1"/>
<path d="M 1210.96,256.283 L 1302.44,203.469" style="fill:none;fill-rule:evenodd;stroke:#FFFFAA;stroke-width:22.5px;stroke-linecap:butt;stroke-linejoin:miter;stroke-opacity:1"/>
<path d="M 1210.96,256.283 L 1210.96,361.911" style="fill:none;fill-rule:evenodd;stroke:#FFFFAA;stroke-width:22.5px;stroke-linecap:butt;stroke-linejoin:miter;stroke-opacity:1"/>
<path d="M 1913.44,263.828 L 1807.82,263.828" style="fill:none;fill-rule:evenodd;stroke:#FFCC99;stroke-width:22.5px;stroke-linecap:butt;stroke-linejoin:miter;stroke-opacity:1"/>
<path d="M 1807.82,263.828 L 1755,355.304" style="fill:none;fill-rule:evenodd;stroke:#FFCC99;stroke-width:22.5px;stroke-linecap:butt;stroke-linejoin:miter;stroke-opacity:1"/>
<path d="M 1807.82,263.828 L 1755,172.352" style="fill:none;fill-rule:evenodd;stroke:#FFCC99;stroke-width:22.5px;stroke-linecap:butt;stroke-linejoin:miter;stroke-opacity:1"/>
<path d="M 1755,355.304 L 1649.37,355.304" style="fill:none;fill-rule:evenodd;stroke:#FFCC99;stroke-width:22.5px;stroke-linecap:butt;stroke-linejoin:miter;stroke-opacity:1"/>
<path d="M 1649.37,355.304 L 1596.56,446.781" style="fill:none;fill-rule:evenodd;stroke:#FFCC99;stroke-width:22.5px;stroke-linecap:butt;stroke-linejoin:miter;stroke-opacity:1"/>
<path d="M 1649.37,355.304 L 1596.56,263.828" style="fill:none;fill-rule:evenodd;stroke:#FFCC99;stroke-width:22.5px;stroke-linecap:butt;stroke-linejoin:miter;stroke-opacity:1"/>
<path d="M 1596.56,263.828 L 1649.37,172.352" style="fill:none;fill-rule:evenodd;stroke:#FFCC99;stroke-width:22.5px;stroke-linecap:butt;stroke-linejoin:miter;stroke-opacity:1"/>
<path d="M 1649.37,172.352 L 1596.56,80.8756" style="fill:none;fill-rule:evenodd;stroke:#FFCC99;stroke-width:22.5px;stroke-linecap:butt;stroke-linejoin:miter;stroke-opacity:1"/>
<path d="M 1649.37,172.352 L 1755,172.352" style="fill:none;fill-rule:evenodd;stroke:#FFCC99;stroke-width:22.5px;stroke-linecap:butt;stroke-linejoin:miter;stroke-opacity:1"/>
<path d="M 2475.95,316.522 L 2574.26,277.891" style="fill:none;fill-rule:evenodd;stroke:#FFFFAA;stroke-width:22.5px;stroke-linecap:butt;stroke-linejoin:miter;stroke-opacity:1"/>
<path d="M 2574.26,277.891 L 2589.96,173.437" style="fill:none;fill-rule:evenodd;stroke:#FFFFAA;stroke-width:22.5px;stroke-linecap:butt;stroke-linejoin:miter;stroke-opacity:1"/>
<path d="M 2656.87,343.715 L 2755.18,305.085" style="fill:none;fill-rule:evenodd;stroke:#FFCC99;stroke-width:22.5px;stroke-linecap:butt;stroke-linejoin:miter;stroke-opacity:1"/>
<path d="M 2755.18,305.085 L 2770.88,200.63" style="fill:none;fill-rule:evenodd;stroke:#FFCC99;stroke-width:22.5px;stroke-linecap:butt;stroke-linejoin:miter;stroke-opacity:1"/>
<path d="M 2755.18,305.085 L 2837.79,370.909" style="fill:none;fill-rule:evenodd;stroke:#FFCC99;stroke-width:22.5px;stroke-linecap:butt;stroke-linejoin:miter;stroke-opacity:1"/>
<path d="M 2770.88,200.63 L 2869.19,162" style="fill:none;fill-rule:evenodd;stroke:#FFCC99;stroke-width:22.5px;stroke-linecap:butt;stroke-linejoin:miter;stroke-opacity:1"/>
<path d="M 2869.19,162 L 2884.89,57.5454" style="fill:none;fill-rule:evenodd;stroke:#FFCC99;stroke-width:22.5px;stroke-linecap:butt;stroke-linejoin:miter;stroke-opacity:1"/>
<path d="M 2869.19,162 L 2951.8,227.824" style="fill:none;fill-rule:evenodd;stroke:#FFCC99;stroke-width:22.5px;stroke-linecap:butt;stroke-linejoin:miter;stroke-opacity:1"/>
<path d="M 2951.8,227.824 L 2936.1,332.278" style="fill:none;fill-rule:evenodd;stroke:#FFCC99;stroke-width:22.5px;stroke-linecap:butt;stroke-linejoin:miter;stroke-opacity:1"/>
<path d="M 2936.1,332.278 L 3018.71,398.102" style="fill:none;fill-rule:evenodd;stroke:#FFCC99;stroke-width:22.5px;stroke-linecap:butt;stroke-linejoin:miter;stroke-opacity:1"/>
<path d="M 2936.1,332.278 L 2837.79,370.909" style="fill:none;fill-rule:evenodd;stroke:#FFCC99;stroke-width:22.5px;stroke-linecap:butt;stroke-linejoin:miter;stroke-opacity:1"/>
<ellipse cx="1210.96" cy="256.283" rx="21.1255" ry="21.1255" style="fill:#FFFFAA;fill-rule:evenodd;stroke:#FFFFAA;stroke-width:1px;stroke-linecap:butt;stroke-linejoin:miter;stroke-opacity:1"/>
<ellipse cx="1302.44" cy="203.469" rx="21.1255" ry="21.1255" style="fill:#FFFFAA;fill-rule:evenodd;stroke:#FFFFAA;stroke-width:1px;stroke-linecap:butt;stroke-linejoin:miter;stroke-opacity:1"/>
<ellipse cx="1210.96" cy="362.131" rx="21.1255" ry="21.1255" style="fill:#FFFFAA;fill-rule:evenodd;stroke:#FFFFAA;stroke-width:1px;stroke-linecap:butt;stroke-linejoin:miter;stroke-opacity:1"/>
<ellipse cx="1933.18" cy="270.908" rx="43.1001" ry="30.0379" style="fill:#FFCC99;fill-rule:evenodd;stroke:#FFCC99;stroke-width:1px;stroke-linecap:butt;stroke-linejoin:miter;stroke-opacity:1"/>
<ellipse cx="1807.82" cy="263.828" rx="21.1255" ry="21.1255" style="fill:#FFCC99;fill-rule:evenodd;stroke:#FFCC99;stroke-width:1px;stroke-linecap:butt;stroke-linejoin:miter;stroke-opacity:1"/>
<ellipse cx="1755" cy="355.304" rx="21.1255" ry="21.1255" style="fill:#FFCC99;fill-rule:evenodd;stroke:#FFCC99;stroke-width:1px;stroke-linecap:butt;stroke-linejoin:miter;stroke-opacity:1"/>
<ellipse cx="1649.37" cy="355.304" rx="21.1255" ry="21.1255" style="fill:#FFCC99;fill-rule:evenodd;stroke:#FFCC99;stroke-width:1px;stroke-linecap:butt;stroke-linejoin:miter;stroke-opacity:1"/>
<ellipse cx="1584.48" cy="447.001" rx="35.4685" ry="21.1255" style="fill:#FFCC99;fill-rule:evenodd;stroke:#FFCC99;stroke-width:1px;stroke-linecap:butt;stroke-linejoin:miter;stroke-opacity:1"/>
<ellipse cx="1596.56" cy="263.828" rx="21.1255" ry="21.1255" style="fill:#FFCC99;fill-rule:evenodd;stroke:#FFCC99;stroke-width:1px;stroke-linecap:butt;stroke-linejoin:miter;stroke-opacity:1"/>
<ellipse cx="1649.37" cy="172.352" rx="21.1255" ry="21.1255" style="fill:#FFCC99;fill-rule:evenodd;stroke:#FFCC99;stroke-width:1px;stroke-linecap:butt;stroke-linejoin:miter;stroke-opacity:1"/>
<ellipse cx="1584.48" cy="81.0956" rx="35.4685" ry="21.1255" style="fill:#FFCC99;fill-rule:evenodd;stroke:#FFCC99;stroke-width:1px;stroke-linecap:butt;stroke-linejoin:miter;stroke-opacity:1"/>
<ellipse cx="1755" cy="172.352" rx="21.1255" ry="21.1255" style="fill:#FFCC99;fill-rule:evenodd;stroke:#FFCC99;stroke-width:1px;stroke-linecap:butt;stroke-linejoin:miter;stroke-opacity:1"/>
<ellipse cx="2475.95" cy="316.522" rx="21.1255" ry="21.1255" style="fill:#FFFFAA;fill-rule:evenodd;stroke:#FFFFAA;stroke-width:1px;stroke-linecap:butt;stroke-linejoin:miter;stroke-opacity:1"/>
<ellipse cx="2574.26" cy="277.891" rx="21.1255" ry="21.1255" style="fill:#FFFFAA;fill-rule:evenodd;stroke:#FFFFAA;stroke-width:1px;stroke-linecap:butt;stroke-linejoin:miter;stroke-opacity:1"/>
<ellipse cx="2589.96" cy="173.657" rx="21.1255" ry="21.1255" style="fill:#FFFFAA;fill-rule:evenodd;stroke:#FFFFAA;stroke-width:1px;stroke-linecap:butt;stroke-linejoin:miter;stroke-opacity:1"/>
<ellipse cx="2656.87" cy="359.291" rx="21.1255" ry="42.0531" style="fill:#FFCC99;fill-rule:evenodd;stroke:#FFCC99;stroke-width:1px;stroke-linecap:butt;stroke-linejoin:miter;stroke-opacity:1"/>
<ellipse cx="2755.18" cy="305.085" rx="21.1255" ry="21.1255" style="fill:#FFCC99;fill-rule:evenodd;stroke:#FFCC99;stroke-width:1px;stroke-linecap:butt;stroke-linejoin:miter;stroke-opacity:1"/>
<ellipse cx="2770.88" cy="200.63" rx="21.1255" ry="21.1255" style="fill:#FFCC99;fill-rule:evenodd;stroke:#FFCC99;stroke-width:1px;stroke-linecap:butt;stroke-linejoin:miter;stroke-opacity:1"/>
<ellipse cx="2869.19" cy="162" rx="21.1255" ry="21.1255" style="fill:#FFCC99;fill-rule:evenodd;stroke:#FFCC99;stroke-width:1px;stroke-linecap:butt;stroke-linejoin:miter;stroke-opacity:1"/>
<ellipse cx="2897.67" cy="57.7654" rx="36.4584" ry="21.1255" style="fill:#FFCC99;fill-rule:evenodd;stroke:#FFCC99;stroke-width:1px;stroke-linecap:butt;stroke-linejoin:miter;stroke-opacity:1"/>
<ellipse cx="2951.8" cy="227.824" rx="21.1255" ry="21.1255" style="fill:#FFCC99;fill-rule:evenodd;stroke:#FFCC99;stroke-width:1px;stroke-linecap:butt;stroke-linejoin:miter;stroke-opacity:1"/>
<ellipse cx="2936.1" cy="332.278" rx="21.1255" ry="21.1255" style="fill:#FFCC99;fill-rule:evenodd;stroke:#FFCC99;stroke-width:1px;stroke-linecap:butt;stroke-linejoin:miter;stroke-opacity:1"/>
<ellipse cx="3031.49" cy="398.322" rx="36.4584" ry="21.1255" style="fill:#FFCC99;fill-rule:evenodd;stroke:#FFCC99;stroke-width:1px;stroke-linecap:butt;stroke-linejoin:miter;stroke-opacity:1"/>
<ellipse cx="2837.79" cy="370.909" rx="21.1255" ry="21.1255" style="fill:#FFCC99;fill-rule:evenodd;stroke:#FFCC99;stroke-width:1px;stroke-linecap:butt;stroke-linejoin:miter;stroke-opacity:1"/>
<path class="bond-0" d="M 936.531,203.469 L 1028.01,256.283" style="fill:none;fill-rule:evenodd;stroke:#000000;stroke-width:2.0px;stroke-linecap:butt;stroke-linejoin:miter;stroke-opacity:1"/>
<path class="bond-1" d="M 1017.44,256.283 L 1017.44,300.617" style="fill:none;fill-rule:evenodd;stroke:#000000;stroke-width:2.0px;stroke-linecap:butt;stroke-linejoin:miter;stroke-opacity:1"/>
<path class="bond-1" d="M 1017.44,300.617 L 1017.44,344.95" style="fill:none;fill-rule:evenodd;stroke:#FF0000;stroke-width:2.0px;stroke-linecap:butt;stroke-linejoin:miter;stroke-opacity:1"/>
<path class="bond-1" d="M 1038.57,256.283 L 1038.57,300.617" style="fill:none;fill-rule:evenodd;stroke:#000000;stroke-width:2.0px;stroke-linecap:butt;stroke-linejoin:miter;stroke-opacity:1"/>
<path class="bond-1" d="M 1038.57,300.617 L 1038.57,344.95" style="fill:none;fill-rule:evenodd;stroke:#FF0000;stroke-width:2.0px;stroke-linecap:butt;stroke-linejoin:miter;stroke-opacity:1"/>
<path class="bond-2" d="M 1028.01,256.283 L 1065.93,234.391" style="fill:none;fill-rule:evenodd;stroke:#000000;stroke-width:2.0px;stroke-linecap:butt;stroke-linejoin:miter;stroke-opacity:1"/>
<path class="bond-2" d="M 1065.93,234.391 L 1103.84,212.5" style="fill:none;fill-rule:evenodd;stroke:#FF0000;stroke-width:2.0px;stroke-linecap:butt;stroke-linejoin:miter;stroke-opacity:1"/>
<path class="bond-3" d="M 1135.12,212.5 L 1173.04,234.391" style="fill:none;fill-rule:evenodd;stroke:#FF0000;stroke-width:2.0px;stroke-linecap:butt;stroke-linejoin:miter;stroke-opacity:1"/>
<path class="bond-3" d="M 1173.04,234.391 L 1210.96,256.283" style="fill:none;fill-rule:evenodd;stroke:#000000;stroke-width:2.0px;stroke-linecap:butt;stroke-linejoin:miter;stroke-opacity:1"/>
<path class="bond-4" d="M 1210.96,256.283 L 1302.44,203.469" style="fill:none;fill-rule:evenodd;stroke:#000000;stroke-width:2.0px;stroke-linecap:butt;stroke-linejoin:miter;stroke-opacity:1"/>
<path class="bond-5" d="M 1200.4,256.283 L 1200.4,300.617" style="fill:none;fill-rule:evenodd;stroke:#000000;stroke-width:2.0px;stroke-linecap:butt;stroke-linejoin:miter;stroke-opacity:1"/>
<path class="bond-5" d="M 1200.4,300.617 L 1200.4,344.95" style="fill:none;fill-rule:evenodd;stroke:#FF0000;stroke-width:2.0px;stroke-linecap:butt;stroke-linejoin:miter;stroke-opacity:1"/>
<path class="bond-5" d="M 1221.52,256.283 L 1221.52,300.617" style="fill:none;fill-rule:evenodd;stroke:#000000;stroke-width:2.0px;stroke-linecap:butt;stroke-linejoin:miter;stroke-opacity:1"/>
<path class="bond-5" d="M 1221.52,300.617 L 1221.52,344.95" style="fill:none;fill-rule:evenodd;stroke:#FF0000;stroke-width:2.0px;stroke-linecap:butt;stroke-linejoin:miter;stroke-opacity:1"/>
<path class="bond-6" d="M 1900.06,263.828 L 1853.94,263.828" style="fill:none;fill-rule:evenodd;stroke:#0000FF;stroke-width:2.0px;stroke-linecap:butt;stroke-linejoin:miter;stroke-opacity:1"/>
<path class="bond-6" d="M 1853.94,263.828 L 1807.82,263.828" style="fill:none;fill-rule:evenodd;stroke:#000000;stroke-width:2.0px;stroke-linecap:butt;stroke-linejoin:miter;stroke-opacity:1"/>
<path class="bond-7" d="M 1807.82,263.828 L 1755,355.304" style="fill:none;fill-rule:evenodd;stroke:#000000;stroke-width:2.0px;stroke-linecap:butt;stroke-linejoin:miter;stroke-opacity:1"/>
<path class="bond-7" d="M 1781.6,266.987 L 1744.63,331.02" style="fill:none;fill-rule:evenodd;stroke:#000000;stroke-width:2.0px;stroke-linecap:butt;stroke-linejoin:miter;stroke-opacity:1;stroke-dasharray:6,6"/>
<path class="bond-14" d="M 1807.82,263.828 L 1755,172.352" style="fill:none;fill-rule:evenodd;stroke:#000000;stroke-width:2.0px;stroke-linecap:butt;stroke-linejoin:miter;stroke-opacity:1"/>
<path class="bond-14" d="M 1781.6,260.669 L 1744.63,196.636" style="fill:none;fill-rule:evenodd;stroke:#000000;stroke-width:2.0px;stroke-linecap:butt;stroke-linejoin:miter;stroke-opacity:1;stroke-dasharray:6,6"/>
<path class="bond-8" d="M 1755,355.304 L 1649.37,355.304" style="fill:none;fill-rule:evenodd;stroke:#000000;stroke-width:2.0px;stroke-linecap:butt;stroke-linejoin:miter;stroke-opacity:1"/>
<path class="bond-8" d="M 1739.16,334.179 L 1665.22,334.179" style="fill:none;fill-rule:evenodd;stroke:#000000;stroke-width:2.0px;stroke-linecap:butt;stroke-linejoin:miter;stroke-opacity:1;stroke-dasharray:6,6"/>
<path class="bond-9" d="M 1649.37,355.304 L 1627.86,392.562" style="fill:none;fill-rule:evenodd;stroke:#000000;stroke-width:2.0px;stroke-linecap:butt;stroke-linejoin:miter;stroke-opacity:1"/>
<path class="bond-9" d="M 1627.86,392.562 L 1606.35,429.82" style="fill:none;fill-rule:evenodd;stroke:#FF0000;stroke-width:2.0px;stroke-linecap:butt;stroke-linejoin:miter;stroke-opacity:1"/>
<path class="bond-10" d="M 1649.37,355.304 L 1596.56,263.828" style="fill:none;fill-rule:evenodd;stroke:#000000;stroke-width:2.0px;stroke-linecap:butt;stroke-linejoin:miter;stroke-opacity:1"/>
<path class="bond-10" d="M 1659.75,331.02 L 1622.78,266.987" style="fill:none;fill-rule:evenodd;stroke:#000000;stroke-width:2.0px;stroke-linecap:butt;stroke-linejoin:miter;stroke-opacity:1;stroke-dasharray:6,6"/>
<path class="bond-11" d="M 1596.56,263.828 L 1649.37,172.352" style="fill:none;fill-rule:evenodd;stroke:#000000;stroke-width:2.0px;stroke-linecap:butt;stroke-linejoin:miter;stroke-opacity:1"/>
<path class="bond-11" d="M 1622.78,260.669 L 1659.75,196.636" style="fill:none;fill-rule:evenodd;stroke:#000000;stroke-width:2.0px;stroke-linecap:butt;stroke-linejoin:miter;stroke-opacity:1;stroke-dasharray:6,6"/>
<path class="bond-12" d="M 1649.37,172.352 L 1627.99,135.314" style="fill:none;fill-rule:evenodd;stroke:#000000;stroke-width:2.0px;stroke-linecap:butt;stroke-linejoin:miter;stroke-opacity:1"/>
<path class="bond-12" d="M 1627.99,135.314 L 1606.61,98.2762" style="fill:none;fill-rule:evenodd;stroke:#FF0000;stroke-width:2.0px;stroke-linecap:butt;stroke-linejoin:miter;stroke-opacity:1"/>
<path class="bond-13" d="M 1649.37,172.352 L 1755,172.352" style="fill:none;fill-rule:evenodd;stroke:#000000;stroke-width:2.0px;stroke-linecap:butt;stroke-linejoin:miter;stroke-opacity:1"/>
<path class="bond-13" d="M 1665.22,193.477 L 1739.16,193.477" style="fill:none;fill-rule:evenodd;stroke:#000000;stroke-width:2.0px;stroke-linecap:butt;stroke-linejoin:miter;stroke-opacity:1;stroke-dasharray:6,6"/>
<path class="bond-15" d="M 2475.95,316.522 L 2574.26,277.891" style="fill:none;fill-rule:evenodd;stroke:#000000;stroke-width:2.0px;stroke-linecap:butt;stroke-linejoin:miter;stroke-opacity:1"/>
<path class="bond-16" d="M 2584.7,279.461 L 2591.24,235.934" style="fill:none;fill-rule:evenodd;stroke:#000000;stroke-width:2.0px;stroke-linecap:butt;stroke-linejoin:miter;stroke-opacity:1"/>
<path class="bond-16" d="M 2591.24,235.934 L 2597.79,192.408" style="fill:none;fill-rule:evenodd;stroke:#FF0000;stroke-width:2.0px;stroke-linecap:butt;stroke-linejoin:miter;stroke-opacity:1"/>
<path class="bond-16" d="M 2563.81,276.321 L 2570.35,232.794" style="fill:none;fill-rule:evenodd;stroke:#000000;stroke-width:2.0px;stroke-linecap:butt;stroke-linejoin:miter;stroke-opacity:1"/>
<path class="bond-16" d="M 2570.35,232.794 L 2576.9,189.268" style="fill:none;fill-rule:evenodd;stroke:#FF0000;stroke-width:2.0px;stroke-linecap:butt;stroke-linejoin:miter;stroke-opacity:1"/>
<path class="bond-17" d="M 2574.26,277.891 L 2608.87,305.472" style="fill:none;fill-rule:evenodd;stroke:#000000;stroke-width:2.0px;stroke-linecap:butt;stroke-linejoin:miter;stroke-opacity:1"/>
<path class="bond-17" d="M 2608.87,305.472 L 2643.49,333.053" style="fill:none;fill-rule:evenodd;stroke:#0000FF;stroke-width:2.0px;stroke-linecap:butt;stroke-linejoin:miter;stroke-opacity:1"/>
<path class="bond-18" d="M 2670.25,338.457 L 2712.71,321.771" style="fill:none;fill-rule:evenodd;stroke:#0000FF;stroke-width:2.0px;stroke-linecap:butt;stroke-linejoin:miter;stroke-opacity:1"/>
<path class="bond-18" d="M 2712.71,321.771 L 2755.18,305.085" style="fill:none;fill-rule:evenodd;stroke:#000000;stroke-width:2.0px;stroke-linecap:butt;stroke-linejoin:miter;stroke-opacity:1"/>
<path class="bond-19" d="M 2755.18,305.085 L 2770.88,200.63" style="fill:none;fill-rule:evenodd;stroke:#000000;stroke-width:2.0px;stroke-linecap:butt;stroke-linejoin:miter;stroke-opacity:1"/>
<path class="bond-19" d="M 2778.42,292.557 L 2789.41,219.438" style="fill:none;fill-rule:evenodd;stroke:#000000;stroke-width:2.0px;stroke-linecap:butt;stroke-linejoin:miter;stroke-opacity:1;stroke-dasharray:6,6"/>
<path class="bond-26" d="M 2755.18,305.085 L 2837.79,370.909" style="fill:none;fill-rule:evenodd;stroke:#000000;stroke-width:2.0px;stroke-linecap:butt;stroke-linejoin:miter;stroke-opacity:1"/>
<path class="bond-26" d="M 2780.73,298.436 L 2838.56,344.513" style="fill:none;fill-rule:evenodd;stroke:#000000;stroke-width:2.0px;stroke-linecap:butt;stroke-linejoin:miter;stroke-opacity:1;stroke-dasharray:6,6"/>
<path class="bond-20" d="M 2770.88,200.63 L 2869.19,162" style="fill:none;fill-rule:evenodd;stroke:#000000;stroke-width:2.0px;stroke-linecap:butt;stroke-linejoin:miter;stroke-opacity:1"/>
<path class="bond-20" d="M 2793.35,214.498 L 2862.17,187.456" style="fill:none;fill-rule:evenodd;stroke:#000000;stroke-width:2.0px;stroke-linecap:butt;stroke-linejoin:miter;stroke-opacity:1;stroke-dasharray:6,6"/>
<path class="bond-21" d="M 2869.19,162 L 2875.73,118.473" style="fill:none;fill-rule:evenodd;stroke:#000000;stroke-width:2.0px;stroke-linecap:butt;stroke-linejoin:miter;stroke-opacity:1"/>
<path class="bond-21" d="M 2875.73,118.473 L 2882.27,74.9461" style="fill:none;fill-rule:evenodd;stroke:#FF0000;stroke-width:2.0px;stroke-linecap:butt;stroke-linejoin:miter;stroke-opacity:1"/>
<path class="bond-22" d="M 2869.19,162 L 2951.8,227.824" style="fill:none;fill-rule:evenodd;stroke:#000000;stroke-width:2.0px;stroke-linecap:butt;stroke-linejoin:miter;stroke-opacity:1"/>
<path class="bond-22" d="M 2868.41,188.395 L 2926.24,234.472" style="fill:none;fill-rule:evenodd;stroke:#000000;stroke-width:2.0px;stroke-linecap:butt;stroke-linejoin:miter;stroke-opacity:1;stroke-dasharray:6,6"/>
<path class="bond-23" d="M 2951.8,227.824 L 2936.1,332.278" style="fill:none;fill-rule:evenodd;stroke:#000000;stroke-width:2.0px;stroke-linecap:butt;stroke-linejoin:miter;stroke-opacity:1"/>
<path class="bond-23" d="M 2928.55,240.352 L 2917.56,313.47" style="fill:none;fill-rule:evenodd;stroke:#000000;stroke-width:2.0px;stroke-linecap:butt;stroke-linejoin:miter;stroke-opacity:1;stroke-dasharray:6,6"/>
<path class="bond-24" d="M 2936.1,332.278 L 2969.58,358.959" style="fill:none;fill-rule:evenodd;stroke:#000000;stroke-width:2.0px;stroke-linecap:butt;stroke-linejoin:miter;stroke-opacity:1"/>
<path class="bond-24" d="M 2969.58,358.959 L 3003.07,385.639" style="fill:none;fill-rule:evenodd;stroke:#FF0000;stroke-width:2.0px;stroke-linecap:butt;stroke-linejoin:miter;stroke-opacity:1"/>
<path class="bond-25" d="M 2936.1,332.278 L 2837.79,370.909" style="fill:none;fill-rule:evenodd;stroke:#000000;stroke-width:2.0px;stroke-linecap:butt;stroke-linejoin:miter;stroke-opacity:1"/>
<path class="bond-25" d="M 2913.62,318.411 L 2844.81,345.452" style="fill:none;fill-rule:evenodd;stroke:#000000;stroke-width:2.0px;stroke-linecap:butt;stroke-linejoin:miter;stroke-opacity:1;stroke-dasharray:6,6"/>
<path class="bond-27" d="M 2245.42,141.926 L 2221.65,183.09" style="fill:none;fill-rule:evenodd;stroke:#000000;stroke-width:2.0px;stroke-linecap:butt;stroke-linejoin:miter;stroke-opacity:1"/>
<path class="bond-32" d="M 2245.42,141.926 L 2238.14,129.318" style="fill:none;fill-rule:evenodd;stroke:#000000;stroke-width:2.0px;stroke-linecap:butt;stroke-linejoin:miter;stroke-opacity:1"/>
<path class="bond-32" d="M 2238.14,129.318 L 2230.86,116.71" style="fill:none;fill-rule:evenodd;stroke:#FF0000;stroke-width:2.0px;stroke-linecap:butt;stroke-linejoin:miter;stroke-opacity:1"/>
<path class="bond-28" d="M 2221.65,183.09 L 2204.98,183.09" style="fill:none;fill-rule:evenodd;stroke:#000000;stroke-width:2.0px;stroke-linecap:butt;stroke-linejoin:miter;stroke-opacity:1"/>
<path class="bond-28" d="M 2204.98,183.09 L 2188.31,183.09" style="fill:none;fill-rule:evenodd;stroke:#FF0000;stroke-width:2.0px;stroke-linecap:butt;stroke-linejoin:miter;stroke-opacity:1"/>
<path class="bond-29" d="M 2165.16,167.582 L 2157.76,154.754" style="fill:none;fill-rule:evenodd;stroke:#FF0000;stroke-width:2.0px;stroke-linecap:butt;stroke-linejoin:miter;stroke-opacity:1"/>
<path class="bond-29" d="M 2157.76,154.754 L 2150.35,141.926" style="fill:none;fill-rule:evenodd;stroke:#000000;stroke-width:2.0px;stroke-linecap:butt;stroke-linejoin:miter;stroke-opacity:1"/>
<path class="bond-30" d="M 2150.35,141.926 L 2174.12,100.761" style="fill:none;fill-rule:evenodd;stroke:#000000;stroke-width:2.0px;stroke-linecap:butt;stroke-linejoin:miter;stroke-opacity:1"/>
<path class="bond-31" d="M 2174.12,100.761 L 2190.79,100.761" style="fill:none;fill-rule:evenodd;stroke:#000000;stroke-width:2.0px;stroke-linecap:butt;stroke-linejoin:miter;stroke-opacity:1"/>
<path class="bond-31" d="M 2190.79,100.761 L 2207.46,100.761" style="fill:none;fill-rule:evenodd;stroke:#FF0000;stroke-width:2.0px;stroke-linecap:butt;stroke-linejoin:miter;stroke-opacity:1"/>
<path class="atom-2" d="M 1015.01 361.991 Q 1015.01 355.191, 1018.37 351.391 Q 1021.73 347.591, 1028.01 347.591 Q 1034.29 347.591, 1037.65 351.391 Q 1041.01 355.191, 1041.01 361.991 Q 1041.01 368.871, 1037.61 372.791 Q 1034.21 376.671, 1028.01 376.671 Q 1021.77 376.671, 1018.37 372.791 Q 1015.01 368.911, 1015.01 361.991 M 1028.01 373.471 Q 1032.33 373.471, 1034.65 370.591 Q 1037.01 367.671, 1037.01 361.991 Q 1037.01 356.431, 1034.65 353.631 Q 1032.33 350.791, 1028.01 350.791 Q 1023.69 350.791, 1021.33 353.591 Q 1019.01 356.391, 1019.01 361.991 Q 1019.01 367.711, 1021.33 370.591 Q 1023.69 373.471, 1028.01 373.471 " fill="#FF0000"/>
<path class="atom-3" d="M 1106.48 203.549 Q 1106.48 196.749, 1109.84 192.949 Q 1113.2 189.149, 1119.48 189.149 Q 1125.76 189.149, 1129.12 192.949 Q 1132.48 196.749, 1132.48 203.549 Q 1132.48 210.429, 1129.08 214.349 Q 1125.68 218.229, 1119.48 218.229 Q 1113.24 218.229, 1109.84 214.349 Q 1106.48 210.469, 1106.48 203.549 M 1119.48 215.029 Q 1123.8 215.029, 1126.12 212.149 Q 1128.48 209.229, 1128.48 203.549 Q 1128.48 197.989, 1126.12 195.189 Q 1123.8 192.349, 1119.48 192.349 Q 1115.16 192.349, 1112.8 195.149 Q 1110.48 197.949, 1110.48 203.549 Q 1110.48 209.269, 1112.8 212.149 Q 1115.16 215.029, 1119.48 215.029 " fill="#FF0000"/>
<path class="atom-6" d="M 1197.96 361.991 Q 1197.96 355.191, 1201.32 351.391 Q 1204.68 347.591, 1210.96 347.591 Q 1217.24 347.591, 1220.6 351.391 Q 1223.96 355.191, 1223.96 361.991 Q 1223.96 368.871, 1220.56 372.791 Q 1217.16 376.671, 1210.96 376.671 Q 1204.72 376.671, 1201.32 372.791 Q 1197.96 368.911, 1197.96 361.991 M 1210.96 373.471 Q 1215.28 373.471, 1217.6 370.591 Q 1219.96 367.671, 1219.96 361.991 Q 1219.96 356.431, 1217.6 353.631 Q 1215.28 350.791, 1210.96 350.791 Q 1206.64 350.791, 1204.28 353.591 Q 1201.96 356.391, 1201.96 361.991 Q 1201.96 367.711, 1204.28 370.591 Q 1206.64 373.471, 1210.96 373.471 " fill="#FF0000"/>
<path class="atom-7" d="M 1907.18 249.668 L 1916.46 264.668 Q 1917.38 266.148, 1918.86 268.828 Q 1920.34 271.508, 1920.42 271.668 L 1920.42 249.668 L 1924.18 249.668 L 1924.18 277.988 L 1920.3 277.988 L 1910.34 261.588 Q 1909.18 259.668, 1907.94 257.468 Q 1906.74 255.268, 1906.38 254.588 L 1906.38 277.988 L 1902.7 277.988 L 1902.7 249.668 L 1907.18 249.668 " fill="#0000FF"/>
<path class="atom-7" d="M 1927.58 249.668 L 1931.42 249.668 L 1931.42 261.708 L 1945.9 261.708 L 1945.9 249.668 L 1949.74 249.668 L 1949.74 277.988 L 1945.9 277.988 L 1945.9 264.908 L 1931.42 264.908 L 1931.42 277.988 L 1927.58 277.988 L 1927.58 249.668 " fill="#0000FF"/>
<path class="atom-7" d="M 1951.12 276.994 Q 1951.8 275.226, 1953.44 274.249 Q 1955.08 273.246, 1957.35 273.246 Q 1960.17 273.246, 1961.76 274.777 Q 1963.34 276.308, 1963.34 279.027 Q 1963.34 281.799, 1961.28 284.386 Q 1959.25 286.974, 1955.02 290.036 L 1963.66 290.036 L 1963.66 292.148 L 1951.06 292.148 L 1951.06 290.379 Q 1954.55 287.898, 1956.61 286.05 Q 1958.69 284.202, 1959.7 282.538 Q 1960.7 280.875, 1960.7 279.159 Q 1960.7 277.364, 1959.8 276.361 Q 1958.9 275.358, 1957.35 275.358 Q 1955.84 275.358, 1954.84 275.965 Q 1953.84 276.572, 1953.12 277.918 L 1951.12 276.994 " fill="#0000FF"/>
<path class="atom-11" d="M 1559.4 432.781 L 1563.24 432.781 L 1563.24 444.821 L 1577.72 444.821 L 1577.72 432.781 L 1581.56 432.781 L 1581.56 461.101 L 1577.72 461.101 L 1577.72 448.021 L 1563.24 448.021 L 1563.24 461.101 L 1559.4 461.101 L 1559.4 432.781 " fill="#FF0000"/>
<path class="atom-11" d="M 1583.56 446.861 Q 1583.56 440.061, 1586.92 436.261 Q 1590.28 432.461, 1596.56 432.461 Q 1602.84 432.461, 1606.2 436.261 Q 1609.56 440.061, 1609.56 446.861 Q 1609.56 453.741, 1606.16 457.661 Q 1602.76 461.541, 1596.56 461.541 Q 1590.32 461.541, 1586.92 457.661 Q 1583.56 453.781, 1583.56 446.861 M 1596.56 458.341 Q 1600.88 458.341, 1603.2 455.461 Q 1605.56 452.541, 1605.56 446.861 Q 1605.56 441.301, 1603.2 438.501 Q 1600.88 435.661, 1596.56 435.661 Q 1592.24 435.661, 1589.88 438.461 Q 1587.56 441.261, 1587.56 446.861 Q 1587.56 452.581, 1589.88 455.461 Q 1592.24 458.341, 1596.56 458.341 " fill="#FF0000"/>
<path class="atom-14" d="M 1559.4 66.8756 L 1563.24 66.8756 L 1563.24 78.9156 L 1577.72 78.9156 L 1577.72 66.8756 L 1581.56 66.8756 L 1581.56 95.1956 L 1577.72 95.1956 L 1577.72 82.1156 L 1563.24 82.1156 L 1563.24 95.1956 L 1559.4 95.1956 L 1559.4 66.8756 " fill="#FF0000"/>
<path class="atom-14" d="M 1583.56 80.9556 Q 1583.56 74.1556, 1586.92 70.3556 Q 1590.28 66.5556, 1596.56 66.5556 Q 1602.84 66.5556, 1606.2 70.3556 Q 1609.56 74.1556, 1609.56 80.9556 Q 1609.56 87.8356, 1606.16 91.7556 Q 1602.76 95.6356, 1596.56 95.6356 Q 1590.32 95.6356, 1586.92 91.7556 Q 1583.56 87.8756, 1583.56 80.9556 M 1596.56 92.4356 Q 1600.88 92.4356, 1603.2 89.5556 Q 1605.56 86.6356, 1605.56 80.9556 Q 1605.56 75.3956, 1603.2 72.5956 Q 1600.88 69.7556, 1596.56 69.7556 Q 1592.24 69.7556, 1589.88 72.5556 Q 1587.56 75.3556, 1587.56 80.9556 Q 1587.56 86.6756, 1589.88 89.5556 Q 1592.24 92.4356, 1596.56 92.4356 " fill="#FF0000"/>
<path class="atom-18" d="M 2576.96 173.517 Q 2576.96 166.717, 2580.32 162.917 Q 2583.68 159.117, 2589.96 159.117 Q 2596.24 159.117, 2599.6 162.917 Q 2602.96 166.717, 2602.96 173.517 Q 2602.96 180.397, 2599.56 184.317 Q 2596.16 188.197, 2589.96 188.197 Q 2583.72 188.197, 2580.32 184.317 Q 2576.96 180.437, 2576.96 173.517 M 2589.96 184.997 Q 2594.28 184.997, 2596.6 182.117 Q 2598.96 179.197, 2598.96 173.517 Q 2598.96 167.957, 2596.6 165.157 Q 2594.28 162.317, 2589.96 162.317 Q 2585.64 162.317, 2583.28 165.117 Q 2580.96 167.917, 2580.96 173.517 Q 2580.96 179.237, 2583.28 182.117 Q 2585.64 184.997, 2589.96 184.997 " fill="#FF0000"/>
<path class="atom-19" d="M 2650.61 329.555 L 2659.89 344.555 Q 2660.81 346.035, 2662.29 348.715 Q 2663.77 351.395, 2663.85 351.555 L 2663.85 329.555 L 2667.61 329.555 L 2667.61 357.875 L 2663.73 357.875 L 2653.77 341.475 Q 2652.61 339.555, 2651.37 337.355 Q 2650.17 335.155, 2649.81 334.475 L 2649.81 357.875 L 2646.13 357.875 L 2646.13 329.555 L 2650.61 329.555 " fill="#0000FF"/>
<path class="atom-19" d="M 2645.79 360.707 L 2649.63 360.707 L 2649.63 372.747 L 2664.11 372.747 L 2664.11 360.707 L 2667.95 360.707 L 2667.95 389.027 L 2664.11 389.027 L 2664.11 375.947 L 2649.63 375.947 L 2649.63 389.027 L 2645.79 389.027 L 2645.79 360.707 " fill="#0000FF"/>
<path class="atom-23" d="M 2871.89 57.6254 Q 2871.89 50.8254, 2875.25 47.0254 Q 2878.61 43.2254, 2884.89 43.2254 Q 2891.17 43.2254, 2894.53 47.0254 Q 2897.89 50.8254, 2897.89 57.6254 Q 2897.89 64.5054, 2894.49 68.4254 Q 2891.09 72.3054, 2884.89 72.3054 Q 2878.65 72.3054, 2875.25 68.4254 Q 2871.89 64.5454, 2871.89 57.6254 M 2884.89 69.1054 Q 2889.21 69.1054, 2891.53 66.2254 Q 2893.89 63.3054, 2893.89 57.6254 Q 2893.89 52.0654, 2891.53 49.2654 Q 2889.21 46.4254, 2884.89 46.4254 Q 2880.57 46.4254, 2878.21 49.2254 Q 2875.89 52.0254, 2875.89 57.6254 Q 2875.89 63.3454, 2878.21 66.2254 Q 2880.57 69.1054, 2884.89 69.1054 " fill="#FF0000"/>
<path class="atom-23" d="M 2901.29 43.5454 L 2905.13 43.5454 L 2905.13 55.5854 L 2919.61 55.5854 L 2919.61 43.5454 L 2923.45 43.5454 L 2923.45 71.8654 L 2919.61 71.8654 L 2919.61 58.7854 L 2905.13 58.7854 L 2905.13 71.8654 L 2901.29 71.8654 L 2901.29 43.5454 " fill="#FF0000"/>
<path class="atom-26" d="M 3005.71 398.182 Q 3005.71 391.382, 3009.07 387.582 Q 3012.43 383.782, 3018.71 383.782 Q 3024.99 383.782, 3028.35 387.582 Q 3031.71 391.382, 3031.71 398.182 Q 3031.71 405.062, 3028.31 408.982 Q 3024.91 412.862, 3018.71 412.862 Q 3012.47 412.862, 3009.07 408.982 Q 3005.71 405.102, 3005.71 398.182 M 3018.71 409.662 Q 3023.03 409.662, 3025.35 406.782 Q 3027.71 403.862, 3027.71 398.182 Q 3027.71 392.622, 3025.35 389.822 Q 3023.03 386.982, 3018.71 386.982 Q 3014.39 386.982, 3012.03 389.782 Q 3009.71 392.582, 3009.71 398.182 Q 3009.71 403.902, 3012.03 406.782 Q 3014.39 409.662, 3018.71 409.662 " fill="#FF0000"/>
<path class="atom-26" d="M 3035.11 384.102 L 3038.95 384.102 L 3038.95 396.142 L 3053.43 396.142 L 3053.43 384.102 L 3057.27 384.102 L 3057.27 412.422 L 3053.43 412.422 L 3053.43 399.342 L 3038.95 399.342 L 3038.95 412.422 L 3035.11 412.422 L 3035.11 384.102 " fill="#FF0000"/>
<path class="atom-30" d="M 2161.12 183.17 Q 2161.12 176.37, 2164.48 172.57 Q 2167.84 168.77, 2174.12 168.77 Q 2180.4 168.77, 2183.76 172.57 Q 2187.12 176.37, 2187.12 183.17 Q 2187.12 190.05, 2183.72 193.97 Q 2180.32 197.85, 2174.12 197.85 Q 2167.88 197.85, 2164.48 193.97 Q 2161.12 190.09, 2161.12 183.17 M 2174.12 194.65 Q 2178.44 194.65, 2180.76 191.77 Q 2183.12 188.85, 2183.12 183.17 Q 2183.12 177.61, 2180.76 174.81 Q 2178.44 171.97, 2174.12 171.97 Q 2169.8 171.97, 2167.44 174.77 Q 2165.12 177.57, 2165.12 183.17 Q 2165.12 188.89, 2167.44 191.77 Q 2169.8 194.65, 2174.12 194.65 " fill="#FF0000"/>
<path class="atom-33" d="M 2208.65 100.841 Q 2208.65 94.0412, 2212.01 90.2412 Q 2215.37 86.4412, 2221.65 86.4412 Q 2227.93 86.4412, 2231.29 90.2412 Q 2234.65 94.0412, 2234.65 100.841 Q 2234.65 107.721, 2231.25 111.641 Q 2227.85 115.521, 2221.65 115.521 Q 2215.41 115.521, 2212.01 111.641 Q 2208.65 107.761, 2208.65 100.841 M 2221.65 112.321 Q 2225.97 112.321, 2228.29 109.441 Q 2230.65 106.521, 2230.65 100.841 Q 2230.65 95.2812, 2228.29 92.4812 Q 2225.97 89.6412, 2221.65 89.6412 Q 2217.33 89.6412, 2214.97 92.4412 Q 2212.65 95.2412, 2212.65 100.841 Q 2212.65 106.561, 2214.97 109.441 Q 2217.33 112.321, 2221.65 112.321 " fill="#FF0000"/>
<path class="note" d="M 1206.23 234.359 Q 1206.75 233.019, 1207.99 232.279 Q 1209.23 231.519, 1210.95 231.519 Q 1213.09 231.519, 1214.29 232.679 Q 1215.49 233.839, 1215.49 235.899 Q 1215.49 237.999, 1213.93 239.959 Q 1212.39 241.919, 1209.19 244.239 L 1215.73 244.239 L 1215.73 245.839 L 1206.19 245.839 L 1206.19 244.499 Q 1208.83 242.619, 1210.39 241.219 Q 1211.97 239.819, 1212.73 238.559 Q 1213.49 237.299, 1213.49 235.999 Q 1213.49 234.639, 1212.81 233.879 Q 1212.13 233.119, 1210.95 233.119 Q 1209.81 233.119, 1209.05 233.579 Q 1208.29 234.039, 1207.75 235.059 L 1206.23 234.359 " fill="#000000"/>
<path class="note" d="M 1290.14 193.743 L 1293.24 193.743 L 1293.24 183.163 L 1289.82 184.223 L 1289.36 183.043 L 1293.7 181.103 L 1295.12 181.343 L 1295.12 193.743 L 1297.9 193.743 L 1297.9 195.343 L 1290.14 195.343 L 1290.14 193.743 " fill="#000000"/>
<path class="note" d="M 1213 396.82 Q 1214.38 397.22, 1215.04 398.12 Q 1215.72 399, 1215.72 400.4 Q 1215.72 401.6, 1215.12 402.54 Q 1214.52 403.46, 1213.42 403.98 Q 1212.32 404.48, 1210.88 404.48 Q 1209.36 404.48, 1208.22 403.96 Q 1207.1 403.42, 1206.2 402.34 L 1207.34 401.18 Q 1208.22 402.14, 1208.96 402.52 Q 1209.7 402.88, 1210.88 402.88 Q 1212.16 402.88, 1212.94 402.2 Q 1213.72 401.5, 1213.72 400.38 Q 1213.72 398.94, 1212.9 398.3 Q 1212.1 397.64, 1210.36 397.64 L 1209.34 397.64 L 1209.34 396.2 L 1210.24 396.2 Q 1211.78 396.18, 1212.6 395.52 Q 1213.42 394.84, 1213.42 393.58 Q 1213.42 392.66, 1212.74 392.12 Q 1212.06 391.56, 1210.9 391.56 Q 1209.72 391.56, 1208.98 391.98 Q 1208.26 392.4, 1207.7 393.46 L 1206.32 392.72 Q 1206.82 391.54, 1208.02 390.76 Q 1209.22 389.96, 1210.9 389.96 Q 1212.98 389.96, 1214.2 390.94 Q 1215.42 391.92, 1215.42 393.58 Q 1215.42 394.72, 1214.8 395.54 Q 1214.18 396.36, 1213 396.82 " fill="#000000"/>
<path class="note" d="M 1934.8 235.556 L 1936.5 235.556 L 1936.5 237.156 L 1934.8 237.156 L 1934.8 240.416 L 1932.92 240.416 L 1932.92 237.156 L 1925.6 237.156 L 1925.6 235.896 L 1931.8 226.256 L 1934.8 226.256 L 1934.8 235.556 M 1927.92 235.556 L 1932.92 235.556 L 1932.92 227.536 L 1927.92 235.556 " fill="#000000"/>
<path class="note" d="M 1816.97 277.294 Q 1818.21 277.294, 1819.23 277.834 Q 1820.25 278.354, 1820.83 279.354 Q 1821.41 280.334, 1821.41 281.674 Q 1821.41 283.134, 1820.69 284.194 Q 1819.99 285.234, 1818.83 285.774 Q 1817.67 286.314, 1816.35 286.314 Q 1815.05 286.314, 1813.85 285.834 Q 1812.65 285.354, 1811.83 284.434 L 1813.03 283.194 Q 1813.69 283.914, 1814.59 284.314 Q 1815.49 284.694, 1816.41 284.694 Q 1817.67 284.694, 1818.53 283.914 Q 1819.41 283.134, 1819.41 281.714 Q 1819.41 280.214, 1818.53 279.514 Q 1817.67 278.794, 1816.29 278.794 Q 1815.05 278.794, 1813.67 279.334 L 1812.57 278.814 L 1813.25 271.994 L 1820.53 271.994 L 1820.33 273.594 L 1814.89 273.594 L 1814.47 277.794 Q 1815.73 277.294, 1816.97 277.294 " fill="#000000"/>
<path class="note" d="M 1764.43 368.87 Q 1765.67 368.87, 1766.65 369.41 Q 1767.63 369.95, 1768.17 370.93 Q 1768.71 371.91, 1768.71 373.15 Q 1768.71 374.53, 1768.09 375.61 Q 1767.49 376.67, 1766.41 377.27 Q 1765.33 377.87, 1763.95 377.87 Q 1761.43 377.87, 1760.15 376.17 Q 1758.89 374.45, 1758.89 371.05 Q 1758.89 367.29, 1760.45 365.35 Q 1762.03 363.39, 1765.05 363.39 Q 1765.93 363.39, 1766.67 363.59 Q 1767.43 363.79, 1768.15 364.21 L 1767.37 365.55 Q 1766.33 364.99, 1765.07 364.99 Q 1763.07 364.99, 1762.05 366.29 Q 1761.03 367.57, 1760.91 370.23 Q 1761.63 369.57, 1762.53 369.23 Q 1763.45 368.87, 1764.43 368.87 M 1763.97 376.23 Q 1764.73 376.23, 1765.35 375.83 Q 1765.99 375.43, 1766.35 374.73 Q 1766.71 374.03, 1766.71 373.17 Q 1766.71 371.91, 1766.01 371.19 Q 1765.31 370.47, 1764.07 370.47 Q 1763.21 370.47, 1762.35 370.83 Q 1761.51 371.17, 1760.91 371.77 Q 1760.99 374.11, 1761.73 375.17 Q 1762.47 376.23, 1763.97 376.23 " fill="#000000"/>
<path class="note" d="M 1660.9 365.07 L 1653.48 365.07 L 1653.48 363.47 L 1662.88 363.47 L 1662.88 364.89 L 1657.16 377.63 L 1655.24 377.63 L 1660.9 365.07 " fill="#000000"/>
<path class="note" d="M 1581.18 476.933 Q 1582.48 477.493, 1583.22 478.333 Q 1583.96 479.153, 1583.96 480.553 Q 1583.96 481.753, 1583.34 482.693 Q 1582.72 483.613, 1581.6 484.133 Q 1580.5 484.633, 1579.04 484.633 Q 1576.68 484.633, 1575.32 483.553 Q 1573.96 482.453, 1573.96 480.553 Q 1573.96 479.393, 1574.56 478.533 Q 1575.16 477.653, 1576.4 476.993 Q 1575.48 476.473, 1574.98 475.713 Q 1574.48 474.933, 1574.48 473.733 Q 1574.48 472.073, 1575.68 471.093 Q 1576.9 470.113, 1578.96 470.113 Q 1581.02 470.113, 1582.22 471.093 Q 1583.44 472.073, 1583.44 473.733 Q 1583.44 474.773, 1582.86 475.553 Q 1582.3 476.313, 1581.18 476.933 M 1578.96 471.613 Q 1577.78 471.613, 1577.12 472.173 Q 1576.48 472.733, 1576.48 473.733 Q 1576.48 474.473, 1576.92 474.973 Q 1577.36 475.453, 1577.98 475.733 Q 1578.62 476.013, 1579.84 476.433 Q 1580.7 475.833, 1581.06 475.193 Q 1581.44 474.553, 1581.44 473.733 Q 1581.44 472.733, 1580.78 472.173 Q 1580.14 471.613, 1578.96 471.613 M 1579.04 483.133 Q 1580.36 483.133, 1581.16 482.433 Q 1581.96 481.713, 1581.96 480.533 Q 1581.96 479.773, 1581.54 479.293 Q 1581.12 478.813, 1580.48 478.533 Q 1579.86 478.253, 1578.74 477.893 L 1577.84 477.593 Q 1576.84 478.193, 1576.4 478.913 Q 1575.96 479.613, 1575.96 480.533 Q 1575.96 481.713, 1576.8 482.433 Q 1577.64 483.133, 1579.04 483.133 " fill="#000000"/>
<path class="note" d="M 1578.81 256.668 Q 1581.33 256.668, 1582.59 258.388 Q 1583.87 260.088, 1583.87 263.488 Q 1583.87 267.248, 1582.29 269.208 Q 1580.73 271.148, 1577.71 271.148 Q 1576.83 271.148, 1576.07 270.948 Q 1575.33 270.748, 1574.61 270.328 L 1575.39 268.988 Q 1576.43 269.548, 1577.69 269.548 Q 1579.69 269.548, 1580.71 268.268 Q 1581.73 266.968, 1581.85 264.308 Q 1581.13 264.968, 1580.21 265.328 Q 1579.31 265.668, 1578.33 265.668 Q 1577.09 265.668, 1576.11 265.128 Q 1575.13 264.588, 1574.59 263.608 Q 1574.05 262.628, 1574.05 261.388 Q 1574.05 260.008, 1574.65 258.948 Q 1575.27 257.868, 1576.35 257.268 Q 1577.43 256.668, 1578.81 256.668 M 1576.05 261.368 Q 1576.05 262.628, 1576.75 263.348 Q 1577.45 264.068, 1578.69 264.068 Q 1579.55 264.068, 1580.39 263.728 Q 1581.25 263.368, 1581.85 262.768 Q 1581.77 260.428, 1581.03 259.368 Q 1580.29 258.308, 1578.79 258.308 Q 1578.03 258.308, 1577.39 258.708 Q 1576.77 259.108, 1576.41 259.808 Q 1576.05 260.508, 1576.05 261.368 " fill="#000000"/>
<path class="note" d="M 1618.22 177.912 L 1621.32 177.912 L 1621.32 167.332 L 1617.9 168.392 L 1617.44 167.212 L 1621.78 165.272 L 1623.2 165.512 L 1623.2 177.912 L 1625.98 177.912 L 1625.98 179.512 L 1618.22 179.512 L 1618.22 177.912 " fill="#000000"/>
<path class="note" d="M 1632.38 179.672 Q 1629.78 179.672, 1628.48 177.752 Q 1627.2 175.832, 1627.2 172.412 Q 1627.2 168.992, 1628.48 167.092 Q 1629.76 165.192, 1632.38 165.192 Q 1635 165.192, 1636.28 167.092 Q 1637.56 168.992, 1637.56 172.412 Q 1637.56 175.832, 1636.26 177.752 Q 1634.98 179.672, 1632.38 179.672 M 1632.38 178.072 Q 1633.92 178.072, 1634.74 176.652 Q 1635.56 175.212, 1635.56 172.412 Q 1635.56 169.632, 1634.74 168.212 Q 1633.92 166.792, 1632.38 166.792 Q 1630.86 166.792, 1630.02 168.212 Q 1629.2 169.632, 1629.2 172.412 Q 1629.2 175.212, 1630.02 176.652 Q 1630.86 178.072, 1632.38 178.072 " fill="#000000"/>
<path class="note" d="M 1566.39 55.9035 L 1569.49 55.9035 L 1569.49 45.3235 L 1566.07 46.3835 L 1565.61 45.2035 L 1569.95 43.2635 L 1571.37 43.5035 L 1571.37 55.9035 L 1574.15 55.9035 L 1574.15 57.5035 L 1566.39 57.5035 L 1566.39 55.9035 " fill="#000000"/>
<path class="note" d="M 1576.01 55.9035 L 1579.11 55.9035 L 1579.11 45.3235 L 1575.69 46.3835 L 1575.23 45.2035 L 1579.57 43.2635 L 1580.99 43.5035 L 1580.99 55.9035 L 1583.77 55.9035 L 1583.77 57.5035 L 1576.01 57.5035 L 1576.01 55.9035 " fill="#000000"/>
<path class="note" d="M 1750.77 162.666 L 1753.87 162.666 L 1753.87 152.086 L 1750.45 153.146 L 1749.99 151.966 L 1754.33 150.026 L 1755.75 150.266 L 1755.75 162.666 L 1758.53 162.666 L 1758.53 164.266 L 1750.77 164.266 L 1750.77 162.666 " fill="#000000"/>
<path class="note" d="M 1759.57 152.786 Q 1760.09 151.446, 1761.33 150.706 Q 1762.57 149.946, 1764.29 149.946 Q 1766.43 149.946, 1767.63 151.106 Q 1768.83 152.266, 1768.83 154.326 Q 1768.83 156.426, 1767.27 158.386 Q 1765.73 160.346, 1762.53 162.666 L 1769.07 162.666 L 1769.07 164.266 L 1759.53 164.266 L 1759.53 162.926 Q 1762.17 161.046, 1763.73 159.646 Q 1765.31 158.246, 1766.07 156.986 Q 1766.83 155.726, 1766.83 154.426 Q 1766.83 153.066, 1766.15 152.306 Q 1765.47 151.546, 1764.29 151.546 Q 1763.15 151.546, 1762.39 152.006 Q 1761.63 152.466, 1761.09 153.486 L 1759.57 152.786 " fill="#000000"/>
<path class="note" d="M 2478.89 338.427 L 2481.99 338.427 L 2481.99 327.847 L 2478.57 328.907 L 2478.11 327.727 L 2482.45 325.787 L 2483.87 326.027 L 2483.87 338.427 L 2486.65 338.427 L 2486.65 340.027 L 2478.89 340.027 L 2478.89 338.427 " fill="#000000"/>
<path class="note" d="M 2566.91 290.98 Q 2567.43 289.64, 2568.67 288.9 Q 2569.91 288.14, 2571.63 288.14 Q 2573.77 288.14, 2574.97 289.3 Q 2576.17 290.46, 2576.17 292.52 Q 2576.17 294.62, 2574.61 296.58 Q 2573.07 298.54, 2569.87 300.86 L 2576.41 300.86 L 2576.41 302.46 L 2566.87 302.46 L 2566.87 301.12 Q 2569.51 299.24, 2571.07 297.84 Q 2572.65 296.44, 2573.41 295.18 Q 2574.17 293.92, 2574.17 292.62 Q 2574.17 291.26, 2573.49 290.5 Q 2572.81 289.74, 2571.63 289.74 Q 2570.49 289.74, 2569.73 290.2 Q 2568.97 290.66, 2568.43 291.68 L 2566.91 290.98 " fill="#000000"/>
<path class="note" d="M 2597.23 138.319 Q 2598.61 138.719, 2599.27 139.619 Q 2599.95 140.499, 2599.95 141.899 Q 2599.95 143.099, 2599.35 144.039 Q 2598.75 144.959, 2597.65 145.479 Q 2596.55 145.979, 2595.11 145.979 Q 2593.59 145.979, 2592.45 145.459 Q 2591.33 144.919, 2590.43 143.839 L 2591.57 142.679 Q 2592.45 143.639, 2593.19 144.019 Q 2593.93 144.379, 2595.11 144.379 Q 2596.39 144.379, 2597.17 143.699 Q 2597.95 142.999, 2597.95 141.879 Q 2597.95 140.439, 2597.13 139.799 Q 2596.33 139.139, 2594.59 139.139 L 2593.57 139.139 L 2593.57 137.699 L 2594.47 137.699 Q 2596.01 137.679, 2596.83 137.019 Q 2597.65 136.339, 2597.65 135.079 Q 2597.65 134.159, 2596.97 133.619 Q 2596.29 133.059, 2595.13 133.059 Q 2593.95 133.059, 2593.21 133.479 Q 2592.49 133.899, 2591.93 134.959 L 2590.55 134.219 Q 2591.05 133.039, 2592.25 132.259 Q 2593.45 131.459, 2595.13 131.459 Q 2597.21 131.459, 2598.43 132.439 Q 2599.65 133.419, 2599.65 135.079 Q 2599.65 136.219, 2599.03 137.039 Q 2598.41 137.859, 2597.23 138.319 " fill="#000000"/>
<path class="note" d="M 2688.15 367.876 L 2689.85 367.876 L 2689.85 369.476 L 2688.15 369.476 L 2688.15 372.736 L 2686.27 372.736 L 2686.27 369.476 L 2678.95 369.476 L 2678.95 368.216 L 2685.15 358.576 L 2688.15 358.576 L 2688.15 367.876 M 2681.27 367.876 L 2686.27 367.876 L 2686.27 359.856 L 2681.27 367.876 " fill="#000000"/>
<path class="note" d="M 2741.76 292.334 Q 2743 292.334, 2744.02 292.874 Q 2745.04 293.394, 2745.62 294.394 Q 2746.2 295.374, 2746.2 296.714 Q 2746.2 298.174, 2745.48 299.234 Q 2744.78 300.274, 2743.62 300.814 Q 2742.46 301.354, 2741.14 301.354 Q 2739.84 301.354, 2738.64 300.874 Q 2737.44 300.394, 2736.62 299.474 L 2737.82 298.234 Q 2738.48 298.954, 2739.38 299.354 Q 2740.28 299.734, 2741.2 299.734 Q 2742.46 299.734, 2743.32 298.954 Q 2744.2 298.174, 2744.2 296.754 Q 2744.2 295.254, 2743.32 294.554 Q 2742.46 293.834, 2741.08 293.834 Q 2739.84 293.834, 2738.46 294.374 L 2737.36 293.854 L 2738.04 287.034 L 2745.32 287.034 L 2745.12 288.634 L 2739.68 288.634 L 2739.26 292.834 Q 2740.52 292.334, 2741.76 292.334 " fill="#000000"/>
<path class="note" d="M 2757.74 187.98 Q 2758.98 187.98, 2759.96 188.52 Q 2760.94 189.06, 2761.48 190.04 Q 2762.02 191.02, 2762.02 192.26 Q 2762.02 193.64, 2761.4 194.72 Q 2760.8 195.78, 2759.72 196.38 Q 2758.64 196.98, 2757.26 196.98 Q 2754.74 196.98, 2753.46 195.28 Q 2752.2 193.56, 2752.2 190.16 Q 2752.2 186.4, 2753.76 184.46 Q 2755.34 182.5, 2758.36 182.5 Q 2759.24 182.5, 2759.98 182.7 Q 2760.74 182.9, 2761.46 183.32 L 2760.68 184.66 Q 2759.64 184.1, 2758.38 184.1 Q 2756.38 184.1, 2755.36 185.4 Q 2754.34 186.68, 2754.22 189.34 Q 2754.94 188.68, 2755.84 188.34 Q 2756.76 187.98, 2757.74 187.98 M 2757.28 195.34 Q 2758.04 195.34, 2758.66 194.94 Q 2759.3 194.54, 2759.66 193.84 Q 2760.02 193.14, 2760.02 192.28 Q 2760.02 191.02, 2759.32 190.3 Q 2758.62 189.58, 2757.38 189.58 Q 2756.52 189.58, 2755.66 189.94 Q 2754.82 190.28, 2754.22 190.88 Q 2754.3 193.22, 2755.04 194.28 Q 2755.78 195.34, 2757.28 195.34 " fill="#000000"/>
<path class="note" d="M 2858.14 145.549 L 2850.72 145.549 L 2850.72 143.949 L 2860.12 143.949 L 2860.12 145.369 L 2854.4 158.109 L 2852.48 158.109 L 2858.14 145.549 " fill="#000000"/>
<path class="note" d="M 2892.34 22.3873 Q 2893.64 22.9473, 2894.38 23.7873 Q 2895.12 24.6073, 2895.12 26.0073 Q 2895.12 27.2073, 2894.5 28.1473 Q 2893.88 29.0673, 2892.76 29.5873 Q 2891.66 30.0873, 2890.2 30.0873 Q 2887.84 30.0873, 2886.48 29.0073 Q 2885.12 27.9073, 2885.12 26.0073 Q 2885.12 24.8473, 2885.72 23.9873 Q 2886.32 23.1073, 2887.56 22.4473 Q 2886.64 21.9273, 2886.14 21.1673 Q 2885.64 20.3873, 2885.64 19.1873 Q 2885.64 17.5273, 2886.84 16.5473 Q 2888.06 15.5673, 2890.12 15.5673 Q 2892.18 15.5673, 2893.38 16.5473 Q 2894.6 17.5273, 2894.6 19.1873 Q 2894.6 20.2273, 2894.02 21.0073 Q 2893.46 21.7673, 2892.34 22.3873 M 2890.12 17.0673 Q 2888.94 17.0673, 2888.28 17.6273 Q 2887.64 18.1873, 2887.64 19.1873 Q 2887.64 19.9273, 2888.08 20.4273 Q 2888.52 20.9073, 2889.14 21.1873 Q 2889.78 21.4673, 2891 21.8873 Q 2891.86 21.2873, 2892.22 20.6473 Q 2892.6 20.0073, 2892.6 19.1873 Q 2892.6 18.1873, 2891.94 17.6273 Q 2891.3 17.0673, 2890.12 17.0673 M 2890.2 28.5873 Q 2891.52 28.5873, 2892.32 27.8873 Q 2893.12 27.1673, 2893.12 25.9873 Q 2893.12 25.2273, 2892.7 24.7473 Q 2892.28 24.2673, 2891.64 23.9873 Q 2891.02 23.7073, 2889.9 23.3473 L 2889 23.0473 Q 2888 23.6473, 2887.56 24.3673 Q 2887.12 25.0673, 2887.12 25.9873 Q 2887.12 27.1673, 2887.96 27.8873 Q 2888.8 28.5873, 2890.2 28.5873 " fill="#000000"/>
<path class="note" d="M 2968.03 214.225 Q 2970.55 214.225, 2971.81 215.945 Q 2973.09 217.645, 2973.09 221.045 Q 2973.09 224.805, 2971.51 226.765 Q 2969.95 228.705, 2966.93 228.705 Q 2966.05 228.705, 2965.29 228.505 Q 2964.55 228.305, 2963.83 227.885 L 2964.61 226.545 Q 2965.65 227.105, 2966.91 227.105 Q 2968.91 227.105, 2969.93 225.825 Q 2970.95 224.525, 2971.07 221.865 Q 2970.35 222.525, 2969.43 222.885 Q 2968.53 223.225, 2967.55 223.225 Q 2966.31 223.225, 2965.33 222.685 Q 2964.35 222.145, 2963.81 221.165 Q 2963.27 220.185, 2963.27 218.945 Q 2963.27 217.565, 2963.87 216.505 Q 2964.49 215.425, 2965.57 214.825 Q 2966.65 214.225, 2968.03 214.225 M 2965.27 218.925 Q 2965.27 220.185, 2965.97 220.905 Q 2966.67 221.625, 2967.91 221.625 Q 2968.77 221.625, 2969.61 221.285 Q 2970.47 220.925, 2971.07 220.325 Q 2970.99 217.985, 2970.25 216.925 Q 2969.51 215.865, 2968.01 215.865 Q 2967.25 215.865, 2966.61 216.265 Q 2965.99 216.665, 2965.63 217.365 Q 2965.27 218.065, 2965.27 218.925 " fill="#000000"/>
<path class="note" d="M 2955.32 324.961 L 2958.42 324.961 L 2958.42 314.381 L 2955 315.441 L 2954.54 314.261 L 2958.88 312.321 L 2960.3 312.561 L 2960.3 324.961 L 2963.08 324.961 L 2963.08 326.561 L 2955.32 326.561 L 2955.32 324.961 " fill="#000000"/>
<path class="note" d="M 2969.48 326.721 Q 2966.88 326.721, 2965.58 324.801 Q 2964.3 322.881, 2964.3 319.461 Q 2964.3 316.041, 2965.58 314.141 Q 2966.86 312.241, 2969.48 312.241 Q 2972.1 312.241, 2973.38 314.141 Q 2974.66 316.041, 2974.66 319.461 Q 2974.66 322.881, 2973.36 324.801 Q 2972.08 326.721, 2969.48 326.721 M 2969.48 325.121 Q 2971.02 325.121, 2971.84 323.701 Q 2972.66 322.261, 2972.66 319.461 Q 2972.66 316.681, 2971.84 315.261 Q 2971.02 313.841, 2969.48 313.841 Q 2967.96 313.841, 2967.12 315.261 Q 2966.3 316.681, 2966.3 319.461 Q 2966.3 322.261, 2967.12 323.701 Q 2967.96 325.121, 2969.48 325.121 " fill="#000000"/>
<path class="note" d="M 3028.08 376.085 L 3031.18 376.085 L 3031.18 365.505 L 3027.76 366.565 L 3027.3 365.385 L 3031.64 363.445 L 3033.06 363.685 L 3033.06 376.085 L 3035.84 376.085 L 3035.84 377.685 L 3028.08 377.685 L 3028.08 376.085 " fill="#000000"/>
<path class="note" d="M 3037.7 376.085 L 3040.8 376.085 L 3040.8 365.505 L 3037.38 366.565 L 3036.92 365.385 L 3041.26 363.445 L 3042.68 363.685 L 3042.68 376.085 L 3045.46 376.085 L 3045.46 377.685 L 3037.7 377.685 L 3037.7 376.085 " fill="#000000"/>
<path class="note" d="M 2822.14 393.878 L 2825.24 393.878 L 2825.24 383.298 L 2821.82 384.358 L 2821.36 383.178 L 2825.7 381.238 L 2827.12 381.478 L 2827.12 393.878 L 2829.9 393.878 L 2829.9 395.478 L 2822.14 395.478 L 2822.14 393.878 " fill="#000000"/>
<path class="note" d="M 2830.94 383.998 Q 2831.46 382.658, 2832.7 381.918 Q 2833.94 381.158, 2835.66 381.158 Q 2837.8 381.158, 2839 382.318 Q 2840.2 383.478, 2840.2 385.538 Q 2840.2 387.638, 2838.64 389.598 Q 2837.1 391.558, 2833.9 393.878 L 2840.44 393.878 L 2840.44 395.478 L 2830.9 395.478 L 2830.9 394.138 Q 2833.54 392.258, 2835.1 390.858 Q 2836.68 389.458, 2837.44 388.198 Q 2838.2 386.938, 2838.2 385.638 Q 2838.2 384.278, 2837.52 383.518 Q 2836.84 382.758, 2835.66 382.758 Q 2834.52 382.758, 2833.76 383.218 Q 2833 383.678, 2832.46 384.698 L 2830.94 383.998 " fill="#000000"/>
<path d="M 1416.17 249.859 L 1422.22 249.859 L 1422.22 243.491 L 1424.9 243.491 L 1424.9 249.859 L 1431.11 249.859 L 1431.11 252.163 L 1424.9 252.163 L 1424.9 258.563 L 1422.22 258.563 L 1422.22 252.163 L 1416.17 252.163 L 1416.17 249.859 " fill="#000000"/>
<path d="M 2079.93,252.163 L 2319.53,252.163" style="fill:none;fill-rule:evenodd;stroke:#000000;stroke-width:2.0px;stroke-linecap:butt;stroke-linejoin:miter;stroke-opacity:1"/>
<path d="M 2319.53,252.163 L 2309.16,246.173" style="fill:none;fill-rule:evenodd;stroke:#000000;stroke-width:2.0px;stroke-linecap:butt;stroke-linejoin:miter;stroke-opacity:1"/>
<path d="M 2319.53,252.163 L 2309.16,258.153" style="fill:none;fill-rule:evenodd;stroke:#000000;stroke-width:2.0px;stroke-linecap:butt;stroke-linejoin:miter;stroke-opacity:1"/>
</svg>