<svg xmlns="http://www.w3.org/2000/svg" xmlns:rdkit="http://www.rdkit.org/xml" xmlns:xlink="http://www.w3.org/1999/xlink" version="1.1" baseProfile="full" xml:space="preserve" width="4000px" height="500px" viewBox="0 0 4000 500">
<!-- END OF HEADER -->
<rect style="opacity:1.0;fill:#FFFFFF;stroke:none" width="4000" height="500" x="0" y="0"> </rect>
<path d="M 403.276,158.839 L 514.004,222.769" style="fill:none;fill-rule:evenodd;stroke:#FFFFAA;stroke-width:27.3px;stroke-linecap:butt;stroke-linejoin:miter;stroke-opacity:1"/>
<path d="M 514.004,222.769 L 624.733,158.839" style="fill:none;fill-rule:evenodd;stroke:#FFFFAA;stroke-width:27.3px;stroke-linecap:butt;stroke-linejoin:miter;stroke-opacity:1"/>
<path d="M 514.004,222.769 L 514.004,350.627" style="fill:none;fill-rule:evenodd;stroke:#FFFFAA;stroke-width:27.3px;stroke-linecap:butt;stroke-linejoin:miter;stroke-opacity:1"/>
<path d="M 960.967,207.553 L 1088.81,205.404" style="fill:none;fill-rule:evenodd;stroke:#FFCC99;stroke-width:27.3px;stroke-linecap:butt;stroke-linejoin:miter;stroke-opacity:1"/>
<path d="M 1088.81,205.404 L 1150.87,93.6164" style="fill:none;fill-rule:evenodd;stroke:#FFCC99;stroke-width:27.3px;stroke-linecap:butt;stroke-linejoin:miter;stroke-opacity:1"/>
<path d="M 1088.81,205.404 L 1154.59,315.043" style="fill:none;fill-rule:evenodd;stroke:#FFCC99;stroke-width:27.3px;stroke-linecap:butt;stroke-linejoin:miter;stroke-opacity:1"/>
<path d="M 1150.87,93.6164 L 1278.71,91.4676" style="fill:none;fill-rule:evenodd;stroke:#FFCC99;stroke-width:27.3px;stroke-linecap:butt;stroke-linejoin:miter;stroke-opacity:1"/>
<path d="M 1278.71,91.4676 L 1344.49,201.106" style="fill:none;fill-rule:evenodd;stroke:#FFCC99;stroke-width:27.3px;stroke-linecap:butt;stroke-linejoin:miter;stroke-opacity:1"/>
<path d="M 1344.49,201.106 L 1282.43,312.894" style="fill:none;fill-rule:evenodd;stroke:#FFCC99;stroke-width:27.3px;stroke-linecap:butt;stroke-linejoin:miter;stroke-opacity:1"/>
<path d="M 1344.49,201.106 L 1472.33,198.958" style="fill:none;fill-rule:evenodd;stroke:#FFCC99;stroke-width:27.3px;stroke-linecap:butt;stroke-linejoin:miter;stroke-opacity:1"/>
<path d="M 1282.43,312.894 L 1154.59,315.043" style="fill:none;fill-rule:evenodd;stroke:#FFCC99;stroke-width:27.3px;stroke-linecap:butt;stroke-linejoin:miter;stroke-opacity:1"/>
<path d="M 1282.43,312.894 L 1348.21,422.533" style="fill:none;fill-rule:evenodd;stroke:#FFCC99;stroke-width:27.3px;stroke-linecap:butt;stroke-linejoin:miter;stroke-opacity:1"/>
<path d="M 1348.21,422.533 L 1476.05,420.384" style="fill:none;fill-rule:evenodd;stroke:#FFCC99;stroke-width:27.3px;stroke-linecap:butt;stroke-linejoin:miter;stroke-opacity:1"/>
<path d="M 1476.05,420.384 L 1538.11,308.596" style="fill:none;fill-rule:evenodd;stroke:#FFCC99;stroke-width:27.3px;stroke-linecap:butt;stroke-linejoin:miter;stroke-opacity:1"/>
<path d="M 1538.11,308.596 L 1665.95,306.447" style="fill:none;fill-rule:evenodd;stroke:#FFCC99;stroke-width:27.3px;stroke-linecap:butt;stroke-linejoin:miter;stroke-opacity:1"/>
<path d="M 1538.11,308.596 L 1472.33,198.958" style="fill:none;fill-rule:evenodd;stroke:#FFCC99;stroke-width:27.3px;stroke-linecap:butt;stroke-linejoin:miter;stroke-opacity:1"/>
<path d="M 1665.95,306.447 L 1753.09,400.014" style="fill:none;fill-rule:evenodd;stroke:#FFCC99;stroke-width:27.3px;stroke-linecap:butt;stroke-linejoin:miter;stroke-opacity:1"/>
<path d="M 1665.95,306.447 L 1728.01,194.66" style="fill:none;fill-rule:evenodd;stroke:#FFCC99;stroke-width:27.3px;stroke-linecap:butt;stroke-linejoin:miter;stroke-opacity:1"/>
<path d="M 1753.09,400.014 L 1869,346.053" style="fill:none;fill-rule:evenodd;stroke:#FFCC99;stroke-width:27.3px;stroke-linecap:butt;stroke-linejoin:miter;stroke-opacity:1"/>
<path d="M 1869,346.053 L 1853.5,219.138" style="fill:none;fill-rule:evenodd;stroke:#FFCC99;stroke-width:27.3px;stroke-linecap:butt;stroke-linejoin:miter;stroke-opacity:1"/>
<path d="M 1853.5,219.138 L 1947.07,131.999" style="fill:none;fill-rule:evenodd;stroke:#FFCC99;stroke-width:27.3px;stroke-linecap:butt;stroke-linejoin:miter;stroke-opacity:1"/>
<path d="M 1853.5,219.138 L 1728.01,194.66" style="fill:none;fill-rule:evenodd;stroke:#FFCC99;stroke-width:27.3px;stroke-linecap:butt;stroke-linejoin:miter;stroke-opacity:1"/>
<path d="M 1728.01,194.66 L 1801.41,89.9717" style="fill:none;fill-rule:evenodd;stroke:#FFCC99;stroke-width:27.3px;stroke-linecap:butt;stroke-linejoin:miter;stroke-opacity:1"/>
<path d="M 1728.01,194.66 L 1662.23,85.0212" style="fill:none;fill-rule:evenodd;stroke:#FFCC99;stroke-width:27.3px;stroke-linecap:butt;stroke-linejoin:miter;stroke-opacity:1"/>
<path d="M 1662.23,85.0212 L 1534.39,87.17" style="fill:none;fill-rule:evenodd;stroke:#FFCC99;stroke-width:27.3px;stroke-linecap:butt;stroke-linejoin:miter;stroke-opacity:1"/>
<path d="M 1534.39,87.17 L 1472.33,198.958" style="fill:none;fill-rule:evenodd;stroke:#FFCC99;stroke-width:27.3px;stroke-linecap:butt;stroke-linejoin:miter;stroke-opacity:1"/>
<path d="M 2615.09,198.001 L 2741.82,181.056" style="fill:none;fill-rule:evenodd;stroke:#FFFFAA;stroke-width:27.3px;stroke-linecap:butt;stroke-linejoin:miter;stroke-opacity:1"/>
<path d="M 2741.82,181.056 L 2790.51,62.8316" style="fill:none;fill-rule:evenodd;stroke:#FFFFAA;stroke-width:27.3px;stroke-linecap:butt;stroke-linejoin:miter;stroke-opacity:1"/>
<path d="M 2819.86,282.336 L 2946.59,265.391" style="fill:none;fill-rule:evenodd;stroke:#FFCC99;stroke-width:27.3px;stroke-linecap:butt;stroke-linejoin:miter;stroke-opacity:1"/>
<path d="M 2946.59,265.391 L 2995.28,147.166" style="fill:none;fill-rule:evenodd;stroke:#FFCC99;stroke-width:27.3px;stroke-linecap:butt;stroke-linejoin:miter;stroke-opacity:1"/>
<path d="M 2946.59,265.391 L 3024.63,366.67" style="fill:none;fill-rule:evenodd;stroke:#FFCC99;stroke-width:27.3px;stroke-linecap:butt;stroke-linejoin:miter;stroke-opacity:1"/>
<path d="M 2995.28,147.166 L 3122.01,130.221" style="fill:none;fill-rule:evenodd;stroke:#FFCC99;stroke-width:27.3px;stroke-linecap:butt;stroke-linejoin:miter;stroke-opacity:1"/>
<path d="M 3122.01,130.221 L 3200.05,231.501" style="fill:none;fill-rule:evenodd;stroke:#FFCC99;stroke-width:27.3px;stroke-linecap:butt;stroke-linejoin:miter;stroke-opacity:1"/>
<path d="M 3200.05,231.501 L 3151.36,349.725" style="fill:none;fill-rule:evenodd;stroke:#FFCC99;stroke-width:27.3px;stroke-linecap:butt;stroke-linejoin:miter;stroke-opacity:1"/>
<path d="M 3200.05,231.501 L 3326.78,214.556" style="fill:none;fill-rule:evenodd;stroke:#FFCC99;stroke-width:27.3px;stroke-linecap:butt;stroke-linejoin:miter;stroke-opacity:1"/>
<path d="M 3151.36,349.725 L 3024.63,366.67" style="fill:none;fill-rule:evenodd;stroke:#FFCC99;stroke-width:27.3px;stroke-linecap:butt;stroke-linejoin:miter;stroke-opacity:1"/>
<path d="M 3151.36,349.725 L 3229.4,451.005" style="fill:none;fill-rule:evenodd;stroke:#FFCC99;stroke-width:27.3px;stroke-linecap:butt;stroke-linejoin:miter;stroke-opacity:1"/>
<path d="M 3229.4,451.005 L 3356.13,434.06" style="fill:none;fill-rule:evenodd;stroke:#FFCC99;stroke-width:27.3px;stroke-linecap:butt;stroke-linejoin:miter;stroke-opacity:1"/>
<path d="M 3356.13,434.06 L 3404.82,315.835" style="fill:none;fill-rule:evenodd;stroke:#FFCC99;stroke-width:27.3px;stroke-linecap:butt;stroke-linejoin:miter;stroke-opacity:1"/>
<path d="M 3404.82,315.835 L 3531.55,298.89" style="fill:none;fill-rule:evenodd;stroke:#FFCC99;stroke-width:27.3px;stroke-linecap:butt;stroke-linejoin:miter;stroke-opacity:1"/>
<path d="M 3404.82,315.835 L 3326.78,214.556" style="fill:none;fill-rule:evenodd;stroke:#FFCC99;stroke-width:27.3px;stroke-linecap:butt;stroke-linejoin:miter;stroke-opacity:1"/>
<path d="M 3531.55,298.89 L 3628.94,381.731" style="fill:none;fill-rule:evenodd;stroke:#FFCC99;stroke-width:27.3px;stroke-linecap:butt;stroke-linejoin:miter;stroke-opacity:1"/>
<path d="M 3531.55,298.89 L 3580.24,180.666" style="fill:none;fill-rule:evenodd;stroke:#FFCC99;stroke-width:27.3px;stroke-linecap:butt;stroke-linejoin:miter;stroke-opacity:1"/>
<path d="M 3628.94,381.731 L 3737.83,314.705" style="fill:none;fill-rule:evenodd;stroke:#FFCC99;stroke-width:27.3px;stroke-linecap:butt;stroke-linejoin:miter;stroke-opacity:1"/>
<path d="M 3737.83,314.705 L 3707.73,190.44" style="fill:none;fill-rule:evenodd;stroke:#FFCC99;stroke-width:27.3px;stroke-linecap:butt;stroke-linejoin:miter;stroke-opacity:1"/>
<path d="M 3707.73,190.44 L 3790.57,93.0479" style="fill:none;fill-rule:evenodd;stroke:#FFCC99;stroke-width:27.3px;stroke-linecap:butt;stroke-linejoin:miter;stroke-opacity:1"/>
<path d="M 3707.73,190.44 L 3580.24,180.666" style="fill:none;fill-rule:evenodd;stroke:#FFCC99;stroke-width:27.3px;stroke-linecap:butt;stroke-linejoin:miter;stroke-opacity:1"/>
<path d="M 3580.24,180.666 L 3641.02,68.1784" style="fill:none;fill-rule:evenodd;stroke:#FFCC99;stroke-width:27.3px;stroke-linecap:butt;stroke-linejoin:miter;stroke-opacity:1"/>
<path d="M 3580.24,180.666 L 3502.2,79.3862" style="fill:none;fill-rule:evenodd;stroke:#FFCC99;stroke-width:27.3px;stroke-linecap:butt;stroke-linejoin:miter;stroke-opacity:1"/>
<path d="M 3502.2,79.3862 L 3375.47,96.3312" style="fill:none;fill-rule:evenodd;stroke:#FFCC99;stroke-width:27.3px;stroke-linecap:butt;stroke-linejoin:miter;stroke-opacity:1"/>
<path d="M 3375.47,96.3312 L 3326.78,214.556" style="fill:none;fill-rule:evenodd;stroke:#FFCC99;stroke-width:27.3px;stroke-linecap:butt;stroke-linejoin:miter;stroke-opacity:1"/>
<ellipse cx="514.004" cy="222.769" rx="25.5717" ry="25.5717" style="fill:#FFFFAA;fill-rule:evenodd;stroke:#FFFFAA;stroke-width:1px;stroke-linecap:butt;stroke-linejoin:miter;stroke-opacity:1"/>
<ellipse cx="624.733" cy="158.839" rx="25.5717" ry="25.5717" style="fill:#FFFFAA;fill-rule:evenodd;stroke:#FFFFAA;stroke-width:1px;stroke-linecap:butt;stroke-linejoin:miter;stroke-opacity:1"/>
<ellipse cx="514.004" cy="350.847" rx="25.5717" ry="25.5717" style="fill:#FFFFAA;fill-rule:evenodd;stroke:#FFFFAA;stroke-width:1px;stroke-linecap:butt;stroke-linejoin:miter;stroke-opacity:1"/>
<ellipse cx="948.887" cy="207.773" rx="35.4685" ry="25.5717" style="fill:#FFCC99;fill-rule:evenodd;stroke:#FFCC99;stroke-width:1px;stroke-linecap:butt;stroke-linejoin:miter;stroke-opacity:1"/>
<ellipse cx="1088.81" cy="205.404" rx="25.5717" ry="25.5717" style="fill:#FFCC99;fill-rule:evenodd;stroke:#FFCC99;stroke-width:1px;stroke-linecap:butt;stroke-linejoin:miter;stroke-opacity:1"/>
<ellipse cx="1150.87" cy="93.6164" rx="25.5717" ry="25.5717" style="fill:#FFCC99;fill-rule:evenodd;stroke:#FFCC99;stroke-width:1px;stroke-linecap:butt;stroke-linejoin:miter;stroke-opacity:1"/>
<ellipse cx="1278.71" cy="91.4676" rx="25.5717" ry="25.5717" style="fill:#FFCC99;fill-rule:evenodd;stroke:#FFCC99;stroke-width:1px;stroke-linecap:butt;stroke-linejoin:miter;stroke-opacity:1"/>
<ellipse cx="1344.49" cy="201.106" rx="25.5717" ry="25.5717" style="fill:#FFCC99;fill-rule:evenodd;stroke:#FFCC99;stroke-width:1px;stroke-linecap:butt;stroke-linejoin:miter;stroke-opacity:1"/>
<ellipse cx="1282.43" cy="312.894" rx="25.5717" ry="25.5717" style="fill:#FFCC99;fill-rule:evenodd;stroke:#FFCC99;stroke-width:1px;stroke-linecap:butt;stroke-linejoin:miter;stroke-opacity:1"/>
<ellipse cx="1154.59" cy="315.043" rx="25.5717" ry="25.5717" style="fill:#FFCC99;fill-rule:evenodd;stroke:#FFCC99;stroke-width:1px;stroke-linecap:butt;stroke-linejoin:miter;stroke-opacity:1"/>
<ellipse cx="1348.21" cy="422.533" rx="25.5717" ry="25.5717" style="fill:#FFCC99;fill-rule:evenodd;stroke:#FFCC99;stroke-width:1px;stroke-linecap:butt;stroke-linejoin:miter;stroke-opacity:1"/>
<ellipse cx="1476.05" cy="420.384" rx="25.5717" ry="25.5717" style="fill:#FFCC99;fill-rule:evenodd;stroke:#FFCC99;stroke-width:1px;stroke-linecap:butt;stroke-linejoin:miter;stroke-opacity:1"/>
<ellipse cx="1538.11" cy="308.596" rx="25.5717" ry="25.5717" style="fill:#FFCC99;fill-rule:evenodd;stroke:#FFCC99;stroke-width:1px;stroke-linecap:butt;stroke-linejoin:miter;stroke-opacity:1"/>
<ellipse cx="1665.95" cy="306.447" rx="25.5717" ry="25.5717" style="fill:#FFCC99;fill-rule:evenodd;stroke:#FFCC99;stroke-width:1px;stroke-linecap:butt;stroke-linejoin:miter;stroke-opacity:1"/>
<ellipse cx="1753.09" cy="400.014" rx="25.5717" ry="25.5717" style="fill:#FFCC99;fill-rule:evenodd;stroke:#FFCC99;stroke-width:1px;stroke-linecap:butt;stroke-linejoin:miter;stroke-opacity:1"/>
<ellipse cx="1869" cy="346.053" rx="25.5717" ry="25.5717" style="fill:#FFCC99;fill-rule:evenodd;stroke:#FFCC99;stroke-width:1px;stroke-linecap:butt;stroke-linejoin:miter;stroke-opacity:1"/>
<ellipse cx="1853.5" cy="219.138" rx="25.5717" ry="25.5717" style="fill:#FFCC99;fill-rule:evenodd;stroke:#FFCC99;stroke-width:1px;stroke-linecap:butt;stroke-linejoin:miter;stroke-opacity:1"/>
<ellipse cx="1947.07" cy="132.219" rx="25.5717" ry="25.5717" style="fill:#FFCC99;fill-rule:evenodd;stroke:#FFCC99;stroke-width:1px;stroke-linecap:butt;stroke-linejoin:miter;stroke-opacity:1"/>
<ellipse cx="1728.01" cy="194.66" rx="25.5717" ry="25.5717" style="fill:#FFCC99;fill-rule:evenodd;stroke:#FFCC99;stroke-width:1px;stroke-linecap:butt;stroke-linejoin:miter;stroke-opacity:1"/>
<ellipse cx="1801.41" cy="89.9717" rx="25.5717" ry="25.5717" style="fill:#FFCC99;fill-rule:evenodd;stroke:#FFCC99;stroke-width:1px;stroke-linecap:butt;stroke-linejoin:miter;stroke-opacity:1"/>
<ellipse cx="1662.23" cy="85.0212" rx="25.5717" ry="25.5717" style="fill:#FFCC99;fill-rule:evenodd;stroke:#FFCC99;stroke-width:1px;stroke-linecap:butt;stroke-linejoin:miter;stroke-opacity:1"/>
<ellipse cx="1534.39" cy="87.17" rx="25.5717" ry="25.5717" style="fill:#FFCC99;fill-rule:evenodd;stroke:#FFCC99;stroke-width:1px;stroke-linecap:butt;stroke-linejoin:miter;stroke-opacity:1"/>
<ellipse cx="1472.33" cy="198.958" rx="25.5717" ry="25.5717" style="fill:#FFCC99;fill-rule:evenodd;stroke:#FFCC99;stroke-width:1px;stroke-linecap:butt;stroke-linejoin:miter;stroke-opacity:1"/>
<ellipse cx="2615.09" cy="198.001" rx="25.5717" ry="25.5717" style="fill:#FFFFAA;fill-rule:evenodd;stroke:#FFFFAA;stroke-width:1px;stroke-linecap:butt;stroke-linejoin:miter;stroke-opacity:1"/>
<ellipse cx="2741.82" cy="181.056" rx="25.5717" ry="25.5717" style="fill:#FFFFAA;fill-rule:evenodd;stroke:#FFFFAA;stroke-width:1px;stroke-linecap:butt;stroke-linejoin:miter;stroke-opacity:1"/>
<ellipse cx="2790.51" cy="63.0516" rx="25.5717" ry="25.5717" style="fill:#FFFFAA;fill-rule:evenodd;stroke:#FFFFAA;stroke-width:1px;stroke-linecap:butt;stroke-linejoin:miter;stroke-opacity:1"/>
<ellipse cx="2819.86" cy="282.556" rx="25.5717" ry="25.5717" style="fill:#FFCC99;fill-rule:evenodd;stroke:#FFCC99;stroke-width:1px;stroke-linecap:butt;stroke-linejoin:miter;stroke-opacity:1"/>
<ellipse cx="2946.59" cy="265.391" rx="25.5717" ry="25.5717" style="fill:#FFCC99;fill-rule:evenodd;stroke:#FFCC99;stroke-width:1px;stroke-linecap:butt;stroke-linejoin:miter;stroke-opacity:1"/>
<ellipse cx="2995.28" cy="147.166" rx="25.5717" ry="25.5717" style="fill:#FFCC99;fill-rule:evenodd;stroke:#FFCC99;stroke-width:1px;stroke-linecap:butt;stroke-linejoin:miter;stroke-opacity:1"/>
<ellipse cx="3122.01" cy="130.221" rx="25.5717" ry="25.5717" style="fill:#FFCC99;fill-rule:evenodd;stroke:#FFCC99;stroke-width:1px;stroke-linecap:butt;stroke-linejoin:miter;stroke-opacity:1"/>
<ellipse cx="3200.05" cy="231.501" rx="25.5717" ry="25.5717" style="fill:#FFCC99;fill-rule:evenodd;stroke:#FFCC99;stroke-width:1px;stroke-linecap:butt;stroke-linejoin:miter;stroke-opacity:1"/>
<ellipse cx="3151.36" cy="349.725" rx="25.5717" ry="25.5717" style="fill:#FFCC99;fill-rule:evenodd;stroke:#FFCC99;stroke-width:1px;stroke-linecap:butt;stroke-linejoin:miter;stroke-opacity:1"/>
<ellipse cx="3024.63" cy="366.67" rx="25.5717" ry="25.5717" style="fill:#FFCC99;fill-rule:evenodd;stroke:#FFCC99;stroke-width:1px;stroke-linecap:butt;stroke-linejoin:miter;stroke-opacity:1"/>
<ellipse cx="3229.4" cy="451.005" rx="25.5717" ry="25.5717" style="fill:#FFCC99;fill-rule:evenodd;stroke:#FFCC99;stroke-width:1px;stroke-linecap:butt;stroke-linejoin:miter;stroke-opacity:1"/>
<ellipse cx="3356.13" cy="434.06" rx="25.5717" ry="25.5717" style="fill:#FFCC99;fill-rule:evenodd;stroke:#FFCC99;stroke-width:1px;stroke-linecap:butt;stroke-linejoin:miter;stroke-opacity:1"/>
<ellipse cx="3404.82" cy="315.835" rx="25.5717" ry="25.5717" style="fill:#FFCC99;fill-rule:evenodd;stroke:#FFCC99;stroke-width:1px;stroke-linecap:butt;stroke-linejoin:miter;stroke-opacity:1"/>
<ellipse cx="3531.55" cy="298.89" rx="25.5717" ry="25.5717" style="fill:#FFCC99;fill-rule:evenodd;stroke:#FFCC99;stroke-width:1px;stroke-linecap:butt;stroke-linejoin:miter;stroke-opacity:1"/>
<ellipse cx="3628.94" cy="381.731" rx="25.5717" ry="25.5717" style="fill:#FFCC99;fill-rule:evenodd;stroke:#FFCC99;stroke-width:1px;stroke-linecap:butt;stroke-linejoin:miter;stroke-opacity:1"/>
<ellipse cx="3737.83" cy="314.705" rx="25.5717" ry="25.5717" style="fill:#FFCC99;fill-rule:evenodd;stroke:#FFCC99;stroke-width:1px;stroke-linecap:butt;stroke-linejoin:miter;stroke-opacity:1"/>
<ellipse cx="3707.73" cy="190.44" rx="25.5717" ry="25.5717" style="fill:#FFCC99;fill-rule:evenodd;stroke:#FFCC99;stroke-width:1px;stroke-linecap:butt;stroke-linejoin:miter;stroke-opacity:1"/>
<ellipse cx="3790.57" cy="93.2679" rx="25.5717" ry="25.5717" style="fill:#FFCC99;fill-rule:evenodd;stroke:#FFCC99;stroke-width:1px;stroke-linecap:butt;stroke-linejoin:miter;stroke-opacity:1"/>
<ellipse cx="3580.24" cy="180.666" rx="25.5717" ry="25.5717" style="fill:#FFCC99;fill-rule:evenodd;stroke:#FFCC99;stroke-width:1px;stroke-linecap:butt;stroke-linejoin:miter;stroke-opacity:1"/>
<ellipse cx="3641.02" cy="68.1784" rx="25.5717" ry="25.5717" style="fill:#FFCC99;fill-rule:evenodd;stroke:#FFCC99;stroke-width:1px;stroke-linecap:butt;stroke-linejoin:miter;stroke-opacity:1"/>
<ellipse cx="3502.2" cy="79.3862" rx="25.5717" ry="25.5717" style="fill:#FFCC99;fill-rule:evenodd;stroke:#FFCC99;stroke-width:1px;stroke-linecap:butt;stroke-linejoin:miter;stroke-opacity:1"/>
<ellipse cx="3375.47" cy="96.3312" rx="25.5717" ry="25.5717" style="fill:#FFCC99;fill-rule:evenodd;stroke:#FFCC99;stroke-width:1px;stroke-linecap:butt;stroke-linejoin:miter;stroke-opacity:1"/>
<ellipse cx="3326.78" cy="214.556" rx="25.5717" ry="25.5717" style="fill:#FFCC99;fill-rule:evenodd;stroke:#FFCC99;stroke-width:1px;stroke-linecap:butt;stroke-linejoin:miter;stroke-opacity:1"/>
<path class="bond-0" d="M 181.818,158.839 L 292.547,222.769" style="fill:none;fill-rule:evenodd;stroke:#000000;stroke-width:2.0px;stroke-linecap:butt;stroke-linejoin:miter;stroke-opacity:1"/>
<path class="bond-1" d="M 279.761,222.769 L 279.761,277.94" style="fill:none;fill-rule:evenodd;stroke:#000000;stroke-width:2.0px;stroke-linecap:butt;stroke-linejoin:miter;stroke-opacity:1"/>
<path class="bond-1" d="M 279.761,277.94 L 279.761,333.111" style="fill:none;fill-rule:evenodd;stroke:#FF0000;stroke-width:2.0px;stroke-linecap:butt;stroke-linejoin:miter;stroke-opacity:1"/>
<path class="bond-1" d="M 305.333,222.769 L 305.333,277.94" style="fill:none;fill-rule:evenodd;stroke:#000000;stroke-width:2.0px;stroke-linecap:butt;stroke-linejoin:miter;stroke-opacity:1"/>
<path class="bond-1" d="M 305.333,277.94 L 305.333,333.111" style="fill:none;fill-rule:evenodd;stroke:#FF0000;stroke-width:2.0px;stroke-linecap:butt;stroke-linejoin:miter;stroke-opacity:1"/>
<path class="bond-2" d="M 292.547,222.769 L 339.813,195.479" style="fill:none;fill-rule:evenodd;stroke:#000000;stroke-width:2.0px;stroke-linecap:butt;stroke-linejoin:miter;stroke-opacity:1"/>
<path class="bond-2" d="M 339.813,195.479 L 387.079,168.19" style="fill:none;fill-rule:evenodd;stroke:#FF0000;stroke-width:2.0px;stroke-linecap:butt;stroke-linejoin:miter;stroke-opacity:1"/>
<path class="bond-3" d="M 419.472,168.19 L 466.738,195.479" style="fill:none;fill-rule:evenodd;stroke:#FF0000;stroke-width:2.0px;stroke-linecap:butt;stroke-linejoin:miter;stroke-opacity:1"/>
<path class="bond-3" d="M 466.738,195.479 L 514.004,222.769" style="fill:none;fill-rule:evenodd;stroke:#000000;stroke-width:2.0px;stroke-linecap:butt;stroke-linejoin:miter;stroke-opacity:1"/>
<path class="bond-4" d="M 514.004,222.769 L 624.733,158.839" style="fill:none;fill-rule:evenodd;stroke:#000000;stroke-width:2.0px;stroke-linecap:butt;stroke-linejoin:miter;stroke-opacity:1"/>
<path class="bond-5" d="M 501.219,222.769 L 501.219,277.94" style="fill:none;fill-rule:evenodd;stroke:#000000;stroke-width:2.0px;stroke-linecap:butt;stroke-linejoin:miter;stroke-opacity:1"/>
<path class="bond-5" d="M 501.219,277.94 L 501.219,333.111" style="fill:none;fill-rule:evenodd;stroke:#FF0000;stroke-width:2.0px;stroke-linecap:butt;stroke-linejoin:miter;stroke-opacity:1"/>
<path class="bond-5" d="M 526.79,222.769 L 526.79,277.94" style="fill:none;fill-rule:evenodd;stroke:#000000;stroke-width:2.0px;stroke-linecap:butt;stroke-linejoin:miter;stroke-opacity:1"/>
<path class="bond-5" d="M 526.79,277.94 L 526.79,333.111" style="fill:none;fill-rule:evenodd;stroke:#FF0000;stroke-width:2.0px;stroke-linecap:butt;stroke-linejoin:miter;stroke-opacity:1"/>
<path class="bond-6" d="M 977.164,207.281 L 1032.99,206.342" style="fill:none;fill-rule:evenodd;stroke:#FF0000;stroke-width:2.0px;stroke-linecap:butt;stroke-linejoin:miter;stroke-opacity:1"/>
<path class="bond-6" d="M 1032.99,206.342 L 1088.81,205.404" style="fill:none;fill-rule:evenodd;stroke:#000000;stroke-width:2.0px;stroke-linecap:butt;stroke-linejoin:miter;stroke-opacity:1"/>
<path class="bond-7" d="M 1088.81,205.404 L 1150.87,93.6164" style="fill:none;fill-rule:evenodd;stroke:#000000;stroke-width:2.0px;stroke-linecap:butt;stroke-linejoin:miter;stroke-opacity:1"/>
<path class="bond-7" d="M 1120.47,201.048 L 1163.92,122.796" style="fill:none;fill-rule:evenodd;stroke:#000000;stroke-width:2.0px;stroke-linecap:butt;stroke-linejoin:miter;stroke-opacity:1;stroke-dasharray:6,6"/>
<path class="bond-25" d="M 1088.81,205.404 L 1154.59,315.043" style="fill:none;fill-rule:evenodd;stroke:#000000;stroke-width:2.0px;stroke-linecap:butt;stroke-linejoin:miter;stroke-opacity:1"/>
<path class="bond-25" d="M 1120.6,208.694 L 1166.65,285.441" style="fill:none;fill-rule:evenodd;stroke:#000000;stroke-width:2.0px;stroke-linecap:butt;stroke-linejoin:miter;stroke-opacity:1;stroke-dasharray:6,6"/>
<path class="bond-8" d="M 1150.87,93.6164 L 1278.71,91.4676" style="fill:none;fill-rule:evenodd;stroke:#000000;stroke-width:2.0px;stroke-linecap:butt;stroke-linejoin:miter;stroke-opacity:1"/>
<path class="bond-8" d="M 1170.47,118.862 L 1259.96,117.358" style="fill:none;fill-rule:evenodd;stroke:#000000;stroke-width:2.0px;stroke-linecap:butt;stroke-linejoin:miter;stroke-opacity:1;stroke-dasharray:6,6"/>
<path class="bond-9" d="M 1278.71,91.4676 L 1344.49,201.106" style="fill:none;fill-rule:evenodd;stroke:#000000;stroke-width:2.0px;stroke-linecap:butt;stroke-linejoin:miter;stroke-opacity:1"/>
<path class="bond-9" d="M 1266.65,121.07 L 1312.69,197.817" style="fill:none;fill-rule:evenodd;stroke:#000000;stroke-width:2.0px;stroke-linecap:butt;stroke-linejoin:miter;stroke-opacity:1;stroke-dasharray:6,6"/>
<path class="bond-10" d="M 1344.49,201.106 L 1282.43,312.894" style="fill:none;fill-rule:evenodd;stroke:#000000;stroke-width:2.0px;stroke-linecap:butt;stroke-linejoin:miter;stroke-opacity:1"/>
<path class="bond-10" d="M 1312.82,205.463 L 1269.38,283.714" style="fill:none;fill-rule:evenodd;stroke:#000000;stroke-width:2.0px;stroke-linecap:butt;stroke-linejoin:miter;stroke-opacity:1;stroke-dasharray:6,6"/>
<path class="bond-27" d="M 1344.49,201.106 L 1472.33,198.958" style="fill:none;fill-rule:evenodd;stroke:#000000;stroke-width:2.0px;stroke-linecap:butt;stroke-linejoin:miter;stroke-opacity:1"/>
<path class="bond-11" d="M 1282.43,312.894 L 1154.59,315.043" style="fill:none;fill-rule:evenodd;stroke:#000000;stroke-width:2.0px;stroke-linecap:butt;stroke-linejoin:miter;stroke-opacity:1"/>
<path class="bond-11" d="M 1262.82,287.648 L 1173.34,289.152" style="fill:none;fill-rule:evenodd;stroke:#000000;stroke-width:2.0px;stroke-linecap:butt;stroke-linejoin:miter;stroke-opacity:1;stroke-dasharray:6,6"/>
<path class="bond-12" d="M 1282.43,312.894 L 1348.21,422.533" style="fill:none;fill-rule:evenodd;stroke:#000000;stroke-width:2.0px;stroke-linecap:butt;stroke-linejoin:miter;stroke-opacity:1"/>
<path class="bond-13" d="M 1348.21,422.533 L 1476.05,420.384" style="fill:none;fill-rule:evenodd;stroke:#000000;stroke-width:2.0px;stroke-linecap:butt;stroke-linejoin:miter;stroke-opacity:1"/>
<path class="bond-14" d="M 1476.05,420.384 L 1538.11,308.596" style="fill:none;fill-rule:evenodd;stroke:#000000;stroke-width:2.0px;stroke-linecap:butt;stroke-linejoin:miter;stroke-opacity:1"/>
<path class="bond-15" d="M 1538.11,308.596 L 1665.95,306.447" style="fill:none;fill-rule:evenodd;stroke:#000000;stroke-width:2.0px;stroke-linecap:butt;stroke-linejoin:miter;stroke-opacity:1"/>
<path class="bond-26" d="M 1538.11,308.596 L 1472.33,198.958" style="fill:none;fill-rule:evenodd;stroke:#000000;stroke-width:2.0px;stroke-linecap:butt;stroke-linejoin:miter;stroke-opacity:1"/>
<path class="bond-29" d="M 1538.11,308.596 L 1465.97,302.136 L 1466.22,317.477 Z" style="fill:#000000;fill-rule:evenodd;fill-opacity:1;stroke:#000000;stroke-width:2px;stroke-linecap:butt;stroke-linejoin:miter;stroke-opacity:1;"/>
<path class="bond-16" d="M 1665.95,306.447 L 1753.09,400.014" style="fill:none;fill-rule:evenodd;stroke:#000000;stroke-width:2.0px;stroke-linecap:butt;stroke-linejoin:miter;stroke-opacity:1"/>
<path class="bond-28" d="M 1665.95,306.447 L 1728.01,194.66" style="fill:none;fill-rule:evenodd;stroke:#000000;stroke-width:2.0px;stroke-linecap:butt;stroke-linejoin:miter;stroke-opacity:1"/>
<path class="bond-30" d="M 1660.37,316.305 L 1662.72,317.306" style="fill:none;fill-rule:evenodd;stroke:#000000;stroke-width:1.0px;stroke-linecap:butt;stroke-linejoin:miter;stroke-opacity:1"/>
<path class="bond-30" d="M 1654.79,326.164 L 1659.49,328.165" style="fill:none;fill-rule:evenodd;stroke:#000000;stroke-width:1.0px;stroke-linecap:butt;stroke-linejoin:miter;stroke-opacity:1"/>
<path class="bond-30" d="M 1649.21,336.022 L 1656.27,339.024" style="fill:none;fill-rule:evenodd;stroke:#000000;stroke-width:1.0px;stroke-linecap:butt;stroke-linejoin:miter;stroke-opacity:1"/>
<path class="bond-30" d="M 1643.63,345.88 L 1653.04,349.882" style="fill:none;fill-rule:evenodd;stroke:#000000;stroke-width:1.0px;stroke-linecap:butt;stroke-linejoin:miter;stroke-opacity:1"/>
<path class="bond-30" d="M 1638.04,355.738 L 1649.81,360.741" style="fill:none;fill-rule:evenodd;stroke:#000000;stroke-width:1.0px;stroke-linecap:butt;stroke-linejoin:miter;stroke-opacity:1"/>
<path class="bond-30" d="M 1632.46,365.596 L 1646.58,371.6" style="fill:none;fill-rule:evenodd;stroke:#000000;stroke-width:1.0px;stroke-linecap:butt;stroke-linejoin:miter;stroke-opacity:1"/>
<path class="bond-17" d="M 1753.09,400.014 L 1869,346.053" style="fill:none;fill-rule:evenodd;stroke:#000000;stroke-width:2.0px;stroke-linecap:butt;stroke-linejoin:miter;stroke-opacity:1"/>
<path class="bond-18" d="M 1869,346.053 L 1853.5,219.138" style="fill:none;fill-rule:evenodd;stroke:#000000;stroke-width:2.0px;stroke-linecap:butt;stroke-linejoin:miter;stroke-opacity:1"/>
<path class="bond-19" d="M 1862.22,228.494 L 1900.9,192.467" style="fill:none;fill-rule:evenodd;stroke:#000000;stroke-width:2.0px;stroke-linecap:butt;stroke-linejoin:miter;stroke-opacity:1"/>
<path class="bond-19" d="M 1900.9,192.467 L 1939.59,156.439" style="fill:none;fill-rule:evenodd;stroke:#FF0000;stroke-width:2.0px;stroke-linecap:butt;stroke-linejoin:miter;stroke-opacity:1"/>
<path class="bond-19" d="M 1844.79,209.781 L 1883.47,173.753" style="fill:none;fill-rule:evenodd;stroke:#000000;stroke-width:2.0px;stroke-linecap:butt;stroke-linejoin:miter;stroke-opacity:1"/>
<path class="bond-19" d="M 1883.47,173.753 L 1922.16,137.726" style="fill:none;fill-rule:evenodd;stroke:#FF0000;stroke-width:2.0px;stroke-linecap:butt;stroke-linejoin:miter;stroke-opacity:1"/>
<path class="bond-20" d="M 1853.5,219.138 L 1728.01,194.66" style="fill:none;fill-rule:evenodd;stroke:#000000;stroke-width:2.0px;stroke-linecap:butt;stroke-linejoin:miter;stroke-opacity:1"/>
<path class="bond-21" d="M 1728.01,194.66 L 1807.7,94.3759 L 1795.13,85.5674 Z" style="fill:#000000;fill-rule:evenodd;fill-opacity:1;stroke:#000000;stroke-width:2px;stroke-linecap:butt;stroke-linejoin:miter;stroke-opacity:1;"/>
<path class="bond-22" d="M 1728.01,194.66 L 1662.23,85.0212" style="fill:none;fill-rule:evenodd;stroke:#000000;stroke-width:2.0px;stroke-linecap:butt;stroke-linejoin:miter;stroke-opacity:1"/>
<path class="bond-23" d="M 1662.23,85.0212 L 1534.39,87.17" style="fill:none;fill-rule:evenodd;stroke:#000000;stroke-width:2.0px;stroke-linecap:butt;stroke-linejoin:miter;stroke-opacity:1"/>
<path class="bond-24" d="M 1534.39,87.17 L 1472.33,198.958" style="fill:none;fill-rule:evenodd;stroke:#000000;stroke-width:2.0px;stroke-linecap:butt;stroke-linejoin:miter;stroke-opacity:1"/>
<path class="bond-31" d="M 1472.33,198.958 L 1544.47,205.417 L 1544.22,190.077 Z" style="fill:#000000;fill-rule:evenodd;fill-opacity:1;stroke:#000000;stroke-width:2px;stroke-linecap:butt;stroke-linejoin:miter;stroke-opacity:1;"/>
<path class="bond-32" d="M 2615.09,198.001 L 2741.82,181.056" style="fill:none;fill-rule:evenodd;stroke:#000000;stroke-width:2.0px;stroke-linecap:butt;stroke-linejoin:miter;stroke-opacity:1"/>
<path class="bond-33" d="M 2753.64,185.925 L 2774.29,135.791" style="fill:none;fill-rule:evenodd;stroke:#000000;stroke-width:2.0px;stroke-linecap:butt;stroke-linejoin:miter;stroke-opacity:1"/>
<path class="bond-33" d="M 2774.29,135.791 L 2794.94,85.6572" style="fill:none;fill-rule:evenodd;stroke:#FF0000;stroke-width:2.0px;stroke-linecap:butt;stroke-linejoin:miter;stroke-opacity:1"/>
<path class="bond-33" d="M 2730,176.187 L 2750.64,126.053" style="fill:none;fill-rule:evenodd;stroke:#000000;stroke-width:2.0px;stroke-linecap:butt;stroke-linejoin:miter;stroke-opacity:1"/>
<path class="bond-33" d="M 2750.64,126.053 L 2771.29,75.919" style="fill:none;fill-rule:evenodd;stroke:#FF0000;stroke-width:2.0px;stroke-linecap:butt;stroke-linejoin:miter;stroke-opacity:1"/>
<path class="bond-34" d="M 2741.82,181.056 L 2774.09,222.938" style="fill:none;fill-rule:evenodd;stroke:#000000;stroke-width:2.0px;stroke-linecap:butt;stroke-linejoin:miter;stroke-opacity:1"/>
<path class="bond-34" d="M 2774.09,222.938 L 2806.36,264.819" style="fill:none;fill-rule:evenodd;stroke:#FF0000;stroke-width:2.0px;stroke-linecap:butt;stroke-linejoin:miter;stroke-opacity:1"/>
<path class="bond-35" d="M 2836.05,280.17 L 2891.32,272.78" style="fill:none;fill-rule:evenodd;stroke:#FF0000;stroke-width:2.0px;stroke-linecap:butt;stroke-linejoin:miter;stroke-opacity:1"/>
<path class="bond-35" d="M 2891.32,272.78 L 2946.59,265.391" style="fill:none;fill-rule:evenodd;stroke:#000000;stroke-width:2.0px;stroke-linecap:butt;stroke-linejoin:miter;stroke-opacity:1"/>
<path class="bond-36" d="M 2946.59,265.391 L 2995.28,147.166" style="fill:none;fill-rule:evenodd;stroke:#000000;stroke-width:2.0px;stroke-linecap:butt;stroke-linejoin:miter;stroke-opacity:1"/>
<path class="bond-36" d="M 2977.54,257.395 L 3011.62,174.638" style="fill:none;fill-rule:evenodd;stroke:#000000;stroke-width:2.0px;stroke-linecap:butt;stroke-linejoin:miter;stroke-opacity:1;stroke-dasharray:6,6"/>
<path class="bond-54" d="M 2946.59,265.391 L 3024.63,366.67" style="fill:none;fill-rule:evenodd;stroke:#000000;stroke-width:2.0px;stroke-linecap:butt;stroke-linejoin:miter;stroke-opacity:1"/>
<path class="bond-54" d="M 2978.55,264.975 L 3033.18,335.87" style="fill:none;fill-rule:evenodd;stroke:#000000;stroke-width:2.0px;stroke-linecap:butt;stroke-linejoin:miter;stroke-opacity:1;stroke-dasharray:6,6"/>
<path class="bond-37" d="M 2995.28,147.166 L 3122.01,130.221" style="fill:none;fill-rule:evenodd;stroke:#000000;stroke-width:2.0px;stroke-linecap:butt;stroke-linejoin:miter;stroke-opacity:1"/>
<path class="bond-37" d="M 3017.68,169.971 L 3106.39,158.109" style="fill:none;fill-rule:evenodd;stroke:#000000;stroke-width:2.0px;stroke-linecap:butt;stroke-linejoin:miter;stroke-opacity:1;stroke-dasharray:6,6"/>
<path class="bond-38" d="M 3122.01,130.221 L 3200.05,231.501" style="fill:none;fill-rule:evenodd;stroke:#000000;stroke-width:2.0px;stroke-linecap:butt;stroke-linejoin:miter;stroke-opacity:1"/>
<path class="bond-38" d="M 3113.46,161.021 L 3168.09,231.917" style="fill:none;fill-rule:evenodd;stroke:#000000;stroke-width:2.0px;stroke-linecap:butt;stroke-linejoin:miter;stroke-opacity:1;stroke-dasharray:6,6"/>
<path class="bond-39" d="M 3200.05,231.501 L 3151.36,349.725" style="fill:none;fill-rule:evenodd;stroke:#000000;stroke-width:2.0px;stroke-linecap:butt;stroke-linejoin:miter;stroke-opacity:1"/>
<path class="bond-39" d="M 3169.1,239.496 L 3135.02,322.253" style="fill:none;fill-rule:evenodd;stroke:#000000;stroke-width:2.0px;stroke-linecap:butt;stroke-linejoin:miter;stroke-opacity:1;stroke-dasharray:6,6"/>
<path class="bond-56" d="M 3200.05,231.501 L 3326.78,214.556" style="fill:none;fill-rule:evenodd;stroke:#000000;stroke-width:2.0px;stroke-linecap:butt;stroke-linejoin:miter;stroke-opacity:1"/>
<path class="bond-40" d="M 3151.36,349.725 L 3024.63,366.67" style="fill:none;fill-rule:evenodd;stroke:#000000;stroke-width:2.0px;stroke-linecap:butt;stroke-linejoin:miter;stroke-opacity:1"/>
<path class="bond-40" d="M 3128.96,326.921 L 3040.25,338.782" style="fill:none;fill-rule:evenodd;stroke:#000000;stroke-width:2.0px;stroke-linecap:butt;stroke-linejoin:miter;stroke-opacity:1;stroke-dasharray:6,6"/>
<path class="bond-41" d="M 3151.36,349.725 L 3229.4,451.005" style="fill:none;fill-rule:evenodd;stroke:#000000;stroke-width:2.0px;stroke-linecap:butt;stroke-linejoin:miter;stroke-opacity:1"/>
<path class="bond-42" d="M 3229.4,451.005 L 3356.13,434.06" style="fill:none;fill-rule:evenodd;stroke:#000000;stroke-width:2.0px;stroke-linecap:butt;stroke-linejoin:miter;stroke-opacity:1"/>
<path class="bond-43" d="M 3356.13,434.06 L 3404.82,315.835" style="fill:none;fill-rule:evenodd;stroke:#000000;stroke-width:2.0px;stroke-linecap:butt;stroke-linejoin:miter;stroke-opacity:1"/>
<path class="bond-44" d="M 3404.82,315.835 L 3531.55,298.89" style="fill:none;fill-rule:evenodd;stroke:#000000;stroke-width:2.0px;stroke-linecap:butt;stroke-linejoin:miter;stroke-opacity:1"/>
<path class="bond-55" d="M 3404.82,315.835 L 3326.78,214.556" style="fill:none;fill-rule:evenodd;stroke:#000000;stroke-width:2.0px;stroke-linecap:butt;stroke-linejoin:miter;stroke-opacity:1"/>
<path class="bond-58" d="M 3404.82,315.835 L 3332.53,317.762 L 3334.56,332.969 Z" style="fill:#000000;fill-rule:evenodd;fill-opacity:1;stroke:#000000;stroke-width:2px;stroke-linecap:butt;stroke-linejoin:miter;stroke-opacity:1;"/>
<path class="bond-45" d="M 3531.55,298.89 L 3628.94,381.731" style="fill:none;fill-rule:evenodd;stroke:#000000;stroke-width:2.0px;stroke-linecap:butt;stroke-linejoin:miter;stroke-opacity:1"/>
<path class="bond-57" d="M 3531.55,298.89 L 3580.24,180.666" style="fill:none;fill-rule:evenodd;stroke:#000000;stroke-width:2.0px;stroke-linecap:butt;stroke-linejoin:miter;stroke-opacity:1"/>
<path class="bond-59" d="M 3527.12,309.444 L 3529.57,310.165" style="fill:none;fill-rule:evenodd;stroke:#000000;stroke-width:1.0px;stroke-linecap:butt;stroke-linejoin:miter;stroke-opacity:1"/>
<path class="bond-59" d="M 3522.68,319.998 L 3527.59,321.441" style="fill:none;fill-rule:evenodd;stroke:#000000;stroke-width:1.0px;stroke-linecap:butt;stroke-linejoin:miter;stroke-opacity:1"/>
<path class="bond-59" d="M 3518.25,330.552 L 3525.61,332.716" style="fill:none;fill-rule:evenodd;stroke:#000000;stroke-width:1.0px;stroke-linecap:butt;stroke-linejoin:miter;stroke-opacity:1"/>
<path class="bond-59" d="M 3513.81,341.105 L 3523.62,343.991" style="fill:none;fill-rule:evenodd;stroke:#000000;stroke-width:1.0px;stroke-linecap:butt;stroke-linejoin:miter;stroke-opacity:1"/>
<path class="bond-59" d="M 3509.37,351.659 L 3521.64,355.266" style="fill:none;fill-rule:evenodd;stroke:#000000;stroke-width:1.0px;stroke-linecap:butt;stroke-linejoin:miter;stroke-opacity:1"/>
<path class="bond-59" d="M 3504.94,362.213 L 3519.66,366.541" style="fill:none;fill-rule:evenodd;stroke:#000000;stroke-width:1.0px;stroke-linecap:butt;stroke-linejoin:miter;stroke-opacity:1"/>
<path class="bond-46" d="M 3628.94,381.731 L 3737.83,314.705" style="fill:none;fill-rule:evenodd;stroke:#000000;stroke-width:2.0px;stroke-linecap:butt;stroke-linejoin:miter;stroke-opacity:1"/>
<path class="bond-47" d="M 3737.83,314.705 L 3707.73,190.44" style="fill:none;fill-rule:evenodd;stroke:#000000;stroke-width:2.0px;stroke-linecap:butt;stroke-linejoin:miter;stroke-opacity:1"/>
<path class="bond-48" d="M 3717.47,198.724 L 3751.25,159.006" style="fill:none;fill-rule:evenodd;stroke:#000000;stroke-width:2.0px;stroke-linecap:butt;stroke-linejoin:miter;stroke-opacity:1"/>
<path class="bond-48" d="M 3751.25,159.006 L 3785.03,119.288" style="fill:none;fill-rule:evenodd;stroke:#FF0000;stroke-width:2.0px;stroke-linecap:butt;stroke-linejoin:miter;stroke-opacity:1"/>
<path class="bond-48" d="M 3697.99,182.156 L 3731.77,142.438" style="fill:none;fill-rule:evenodd;stroke:#000000;stroke-width:2.0px;stroke-linecap:butt;stroke-linejoin:miter;stroke-opacity:1"/>
<path class="bond-48" d="M 3731.77,142.438 L 3765.56,102.72" style="fill:none;fill-rule:evenodd;stroke:#FF0000;stroke-width:2.0px;stroke-linecap:butt;stroke-linejoin:miter;stroke-opacity:1"/>
<path class="bond-49" d="M 3707.73,190.44 L 3580.24,180.666" style="fill:none;fill-rule:evenodd;stroke:#000000;stroke-width:2.0px;stroke-linecap:butt;stroke-linejoin:miter;stroke-opacity:1"/>
<path class="bond-50" d="M 3580.24,180.666 L 3647.77,71.8253 L 3634.28,64.5315 Z" style="fill:#000000;fill-rule:evenodd;fill-opacity:1;stroke:#000000;stroke-width:2px;stroke-linecap:butt;stroke-linejoin:miter;stroke-opacity:1;"/>
<path class="bond-51" d="M 3580.24,180.666 L 3502.2,79.3862" style="fill:none;fill-rule:evenodd;stroke:#000000;stroke-width:2.0px;stroke-linecap:butt;stroke-linejoin:miter;stroke-opacity:1"/>
<path class="bond-52" d="M 3502.2,79.3862 L 3375.47,96.3312" style="fill:none;fill-rule:evenodd;stroke:#000000;stroke-width:2.0px;stroke-linecap:butt;stroke-linejoin:miter;stroke-opacity:1"/>
<path class="bond-53" d="M 3375.47,96.3312 L 3326.78,214.556" style="fill:none;fill-rule:evenodd;stroke:#000000;stroke-width:2.0px;stroke-linecap:butt;stroke-linejoin:miter;stroke-opacity:1"/>
<path class="bond-60" d="M 3326.78,214.556 L 3399.07,212.629 L 3397.04,197.422 Z" style="fill:#000000;fill-rule:evenodd;fill-opacity:1;stroke:#000000;stroke-width:2px;stroke-linecap:butt;stroke-linejoin:miter;stroke-opacity:1;"/>
<path class="bond-61" d="M 2340.52,128.688 L 2311.75,178.516" style="fill:none;fill-rule:evenodd;stroke:#000000;stroke-width:2.0px;stroke-linecap:butt;stroke-linejoin:miter;stroke-opacity:1"/>
<path class="bond-61" d="M 2322.91,128.491 L 2302.78,163.37" style="fill:none;fill-rule:evenodd;stroke:#000000;stroke-width:2.0px;stroke-linecap:butt;stroke-linejoin:miter;stroke-opacity:1;stroke-dasharray:6,6"/>
<path class="bond-66" d="M 2340.52,128.688 L 2311.75,78.8602" style="fill:none;fill-rule:evenodd;stroke:#000000;stroke-width:2.0px;stroke-linecap:butt;stroke-linejoin:miter;stroke-opacity:1"/>
<path class="bond-66" d="M 2322.91,128.885 L 2302.78,94.0059" style="fill:none;fill-rule:evenodd;stroke:#000000;stroke-width:2.0px;stroke-linecap:butt;stroke-linejoin:miter;stroke-opacity:1;stroke-dasharray:6,6"/>
<path class="bond-62" d="M 2311.75,178.516 L 2254.21,178.516" style="fill:none;fill-rule:evenodd;stroke:#000000;stroke-width:2.0px;stroke-linecap:butt;stroke-linejoin:miter;stroke-opacity:1"/>
<path class="bond-62" d="M 2303.12,163.173 L 2262.84,163.173" style="fill:none;fill-rule:evenodd;stroke:#000000;stroke-width:2.0px;stroke-linecap:butt;stroke-linejoin:miter;stroke-opacity:1;stroke-dasharray:6,6"/>
<path class="bond-63" d="M 2254.21,178.516 L 2244.33,161.401" style="fill:none;fill-rule:evenodd;stroke:#000000;stroke-width:2.0px;stroke-linecap:butt;stroke-linejoin:miter;stroke-opacity:1"/>
<path class="bond-63" d="M 2244.33,161.401 L 2234.45,144.287" style="fill:none;fill-rule:evenodd;stroke:#0000FF;stroke-width:2.0px;stroke-linecap:butt;stroke-linejoin:miter;stroke-opacity:1"/>
<path class="bond-63" d="M 2264.53,165.71 L 2257.62,153.73" style="fill:none;fill-rule:evenodd;stroke:#000000;stroke-width:2.0px;stroke-linecap:butt;stroke-linejoin:miter;stroke-opacity:1;stroke-dasharray:6,6"/>
<path class="bond-63" d="M 2257.62,153.73 L 2250.7,141.749" style="fill:none;fill-rule:evenodd;stroke:#0000FF;stroke-width:2.0px;stroke-linecap:butt;stroke-linejoin:miter;stroke-opacity:1;stroke-dasharray:6,6"/>
<path class="bond-64" d="M 2234.45,113.09 L 2244.33,95.975" style="fill:none;fill-rule:evenodd;stroke:#0000FF;stroke-width:2.0px;stroke-linecap:butt;stroke-linejoin:miter;stroke-opacity:1"/>
<path class="bond-64" d="M 2244.33,95.975 L 2254.21,78.8602" style="fill:none;fill-rule:evenodd;stroke:#000000;stroke-width:2.0px;stroke-linecap:butt;stroke-linejoin:miter;stroke-opacity:1"/>
<path class="bond-64" d="M 2250.7,115.627 L 2257.62,103.646" style="fill:none;fill-rule:evenodd;stroke:#0000FF;stroke-width:2.0px;stroke-linecap:butt;stroke-linejoin:miter;stroke-opacity:1;stroke-dasharray:6,6"/>
<path class="bond-64" d="M 2257.62,103.646 L 2264.53,91.6662" style="fill:none;fill-rule:evenodd;stroke:#000000;stroke-width:2.0px;stroke-linecap:butt;stroke-linejoin:miter;stroke-opacity:1;stroke-dasharray:6,6"/>
<path class="bond-65" d="M 2254.21,78.8602 L 2311.75,78.8602" style="fill:none;fill-rule:evenodd;stroke:#000000;stroke-width:2.0px;stroke-linecap:butt;stroke-linejoin:miter;stroke-opacity:1"/>
<path class="bond-65" d="M 2262.84,94.2032 L 2303.12,94.2032" style="fill:none;fill-rule:evenodd;stroke:#000000;stroke-width:2.0px;stroke-linecap:butt;stroke-linejoin:miter;stroke-opacity:1;stroke-dasharray:6,6"/>
<path class="atom-2" d="M 279.547 350.707 Q 279.547 343.907, 282.907 340.107 Q 286.267 336.307, 292.547 336.307 Q 298.827 336.307, 302.187 340.107 Q 305.547 343.907, 305.547 350.707 Q 305.547 357.587, 302.147 361.507 Q 298.747 365.387, 292.547 365.387 Q 286.307 365.387, 282.907 361.507 Q 279.547 357.627, 279.547 350.707 M 292.547 362.187 Q 296.867 362.187, 299.187 359.307 Q 301.547 356.387, 301.547 350.707 Q 301.547 345.147, 299.187 342.347 Q 296.867 339.507, 292.547 339.507 Q 288.227 339.507, 285.867 342.307 Q 283.547 345.107, 283.547 350.707 Q 283.547 356.427, 285.867 359.307 Q 288.227 362.187, 292.547 362.187 " fill="#FF0000"/>
<path class="atom-3" d="M 390.276 158.919 Q 390.276 152.119, 393.636 148.319 Q 396.996 144.519, 403.276 144.519 Q 409.556 144.519, 412.916 148.319 Q 416.276 152.119, 416.276 158.919 Q 416.276 165.799, 412.876 169.719 Q 409.476 173.599, 403.276 173.599 Q 397.036 173.599, 393.636 169.719 Q 390.276 165.839, 390.276 158.919 M 403.276 170.399 Q 407.596 170.399, 409.916 167.519 Q 412.276 164.599, 412.276 158.919 Q 412.276 153.359, 409.916 150.559 Q 407.596 147.719, 403.276 147.719 Q 398.956 147.719, 396.596 150.519 Q 394.276 153.319, 394.276 158.919 Q 394.276 164.639, 396.596 167.519 Q 398.956 170.399, 403.276 170.399 " fill="#FF0000"/>
<path class="atom-6" d="M 501.004 350.707 Q 501.004 343.907, 504.364 340.107 Q 507.724 336.307, 514.004 336.307 Q 520.284 336.307, 523.644 340.107 Q 527.004 343.907, 527.004 350.707 Q 527.004 357.587, 523.604 361.507 Q 520.204 365.387, 514.004 365.387 Q 507.764 365.387, 504.364 361.507 Q 501.004 357.627, 501.004 350.707 M 514.004 362.187 Q 518.324 362.187, 520.644 359.307 Q 523.004 356.387, 523.004 350.707 Q 523.004 345.147, 520.644 342.347 Q 518.324 339.507, 514.004 339.507 Q 509.684 339.507, 507.324 342.307 Q 505.004 345.107, 505.004 350.707 Q 505.004 356.427, 507.324 359.307 Q 509.684 362.187, 514.004 362.187 " fill="#FF0000"/>
<path class="atom-7" d="M 923.807 193.553 L 927.647 193.553 L 927.647 205.593 L 942.127 205.593 L 942.127 193.553 L 945.967 193.553 L 945.967 221.873 L 942.127 221.873 L 942.127 208.793 L 927.647 208.793 L 927.647 221.873 L 923.807 221.873 L 923.807 193.553 " fill="#FF0000"/>
<path class="atom-7" d="M 947.967 207.633 Q 947.967 200.833, 951.327 197.033 Q 954.687 193.233, 960.967 193.233 Q 967.247 193.233, 970.607 197.033 Q 973.967 200.833, 973.967 207.633 Q 973.967 214.513, 970.567 218.433 Q 967.167 222.313, 960.967 222.313 Q 954.727 222.313, 951.327 218.433 Q 947.967 214.553, 947.967 207.633 M 960.967 219.113 Q 965.287 219.113, 967.607 216.233 Q 969.967 213.313, 969.967 207.633 Q 969.967 202.073, 967.607 199.273 Q 965.287 196.433, 960.967 196.433 Q 956.647 196.433, 954.287 199.233 Q 951.967 202.033, 951.967 207.633 Q 951.967 213.353, 954.287 216.233 Q 956.647 219.113, 960.967 219.113 " fill="#FF0000"/>
<path class="atom-21" d="M 1934.07 132.079 Q 1934.07 125.279, 1937.43 121.479 Q 1940.79 117.679, 1947.07 117.679 Q 1953.35 117.679, 1956.71 121.479 Q 1960.07 125.279, 1960.07 132.079 Q 1960.07 138.959, 1956.67 142.879 Q 1953.27 146.759, 1947.07 146.759 Q 1940.83 146.759, 1937.43 142.879 Q 1934.07 138.999, 1934.07 132.079 M 1947.07 143.559 Q 1951.39 143.559, 1953.71 140.679 Q 1956.07 137.759, 1956.07 132.079 Q 1956.07 126.519, 1953.71 123.719 Q 1951.39 120.879, 1947.07 120.879 Q 1942.75 120.879, 1940.39 123.679 Q 1938.07 126.479, 1938.07 132.079 Q 1938.07 137.799, 1940.39 140.679 Q 1942.75 143.559, 1947.07 143.559 " fill="#FF0000"/>
<path class="atom-27" d="M 1441.8 295.869 L 1445.64 295.869 L 1445.64 307.909 L 1460.12 307.909 L 1460.12 295.869 L 1463.96 295.869 L 1463.96 324.189 L 1460.12 324.189 L 1460.12 311.109 L 1445.64 311.109 L 1445.64 324.189 L 1441.8 324.189 L 1441.8 295.869 " fill="#000000"/>
<path class="atom-28" d="M 1621.51 370.729 L 1625.35 370.729 L 1625.35 382.769 L 1639.83 382.769 L 1639.83 370.729 L 1643.67 370.729 L 1643.67 399.049 L 1639.83 399.049 L 1639.83 385.969 L 1625.35 385.969 L 1625.35 399.049 L 1621.51 399.049 L 1621.51 370.729 " fill="#000000"/>
<path class="atom-29" d="M 1546.48 183.365 L 1550.32 183.365 L 1550.32 195.405 L 1564.8 195.405 L 1564.8 183.365 L 1568.64 183.365 L 1568.64 211.685 L 1564.8 211.685 L 1564.8 198.605 L 1550.32 198.605 L 1550.32 211.685 L 1546.48 211.685 L 1546.48 183.365 " fill="#000000"/>
<path class="atom-32" d="M 2777.51 62.9116 Q 2777.51 56.1116, 2780.87 52.3116 Q 2784.23 48.5116, 2790.51 48.5116 Q 2796.79 48.5116, 2800.15 52.3116 Q 2803.51 56.1116, 2803.51 62.9116 Q 2803.51 69.7916, 2800.11 73.7116 Q 2796.71 77.5916, 2790.51 77.5916 Q 2784.27 77.5916, 2780.87 73.7116 Q 2777.51 69.8316, 2777.51 62.9116 M 2790.51 74.3916 Q 2794.83 74.3916, 2797.15 71.5116 Q 2799.51 68.5916, 2799.51 62.9116 Q 2799.51 57.3516, 2797.15 54.5516 Q 2794.83 51.7116, 2790.51 51.7116 Q 2786.19 51.7116, 2783.83 54.5116 Q 2781.51 57.3116, 2781.51 62.9116 Q 2781.51 68.6316, 2783.83 71.5116 Q 2786.19 74.3916, 2790.51 74.3916 " fill="#FF0000"/>
<path class="atom-33" d="M 2806.86 282.416 Q 2806.86 275.616, 2810.22 271.816 Q 2813.58 268.016, 2819.86 268.016 Q 2826.14 268.016, 2829.5 271.816 Q 2832.86 275.616, 2832.86 282.416 Q 2832.86 289.296, 2829.46 293.216 Q 2826.06 297.096, 2819.86 297.096 Q 2813.62 297.096, 2810.22 293.216 Q 2806.86 289.336, 2806.86 282.416 M 2819.86 293.896 Q 2824.18 293.896, 2826.5 291.016 Q 2828.86 288.096, 2828.86 282.416 Q 2828.86 276.856, 2826.5 274.056 Q 2824.18 271.216, 2819.86 271.216 Q 2815.54 271.216, 2813.18 274.016 Q 2810.86 276.816, 2810.86 282.416 Q 2810.86 288.136, 2813.18 291.016 Q 2815.54 293.896, 2819.86 293.896 " fill="#FF0000"/>
<path class="atom-47" d="M 3777.57 93.1279 Q 3777.57 86.3279, 3780.93 82.5279 Q 3784.29 78.7279, 3790.57 78.7279 Q 3796.85 78.7279, 3800.21 82.5279 Q 3803.57 86.3279, 3803.57 93.1279 Q 3803.57 100.008, 3800.17 103.928 Q 3796.77 107.808, 3790.57 107.808 Q 3784.33 107.808, 3780.93 103.928 Q 3777.57 100.048, 3777.57 93.1279 M 3790.57 104.608 Q 3794.89 104.608, 3797.21 101.728 Q 3799.57 98.8079, 3799.57 93.1279 Q 3799.57 87.5679, 3797.21 84.7679 Q 3794.89 81.9279, 3790.57 81.9279 Q 3786.25 81.9279, 3783.89 84.7279 Q 3781.57 87.5279, 3781.57 93.1279 Q 3781.57 98.8479, 3783.89 101.728 Q 3786.25 104.608, 3790.57 104.608 " fill="#FF0000"/>
<path class="atom-53" d="M 3309.25 312.972 L 3313.09 312.972 L 3313.09 325.012 L 3327.57 325.012 L 3327.57 312.972 L 3331.41 312.972 L 3331.41 341.292 L 3327.57 341.292 L 3327.57 328.212 L 3313.09 328.212 L 3313.09 341.292 L 3309.25 341.292 L 3309.25 312.972 " fill="#000000"/>
<path class="atom-54" d="M 3496.43 366.508 L 3500.27 366.508 L 3500.27 378.548 L 3514.75 378.548 L 3514.75 366.508 L 3518.59 366.508 L 3518.59 394.828 L 3514.75 394.828 L 3514.75 381.748 L 3500.27 381.748 L 3500.27 394.828 L 3496.43 394.828 L 3496.43 366.508 " fill="#000000"/>
<path class="atom-55" d="M 3400.19 189.099 L 3404.03 189.099 L 3404.03 201.139 L 3418.51 201.139 L 3418.51 189.099 L 3422.35 189.099 L 3422.35 217.419 L 3418.51 217.419 L 3418.51 204.339 L 3404.03 204.339 L 3404.03 217.419 L 3400.19 217.419 L 3400.19 189.099 " fill="#000000"/>
<path class="atom-59" d="M 2219.18 114.528 L 2228.46 129.528 Q 2229.38 131.008, 2230.86 133.688 Q 2232.34 136.368, 2232.42 136.528 L 2232.42 114.528 L 2236.18 114.528 L 2236.18 142.848 L 2232.3 142.848 L 2222.34 126.448 Q 2221.18 124.528, 2219.94 122.328 Q 2218.74 120.128, 2218.38 119.448 L 2218.38 142.848 L 2214.7 142.848 L 2214.7 114.528 L 2219.18 114.528 " fill="#0000FF"/>
<path class="note" d="M 509.274 197.139 Q 509.794 195.799, 511.034 195.059 Q 512.274 194.299, 513.994 194.299 Q 516.134 194.299, 517.334 195.459 Q 518.534 196.619, 518.534 198.679 Q 518.534 200.779, 516.974 202.739 Q 515.434 204.699, 512.234 207.019 L 518.774 207.019 L 518.774 208.619 L 509.234 208.619 L 509.234 207.279 Q 511.874 205.399, 513.434 203.999 Q 515.014 202.599, 515.774 201.339 Q 516.534 200.079, 516.534 198.779 Q 516.534 197.419, 515.854 196.659 Q 515.174 195.899, 513.994 195.899 Q 512.854 195.899, 512.094 196.359 Q 511.334 196.819, 510.794 197.839 L 509.274 197.139 " fill="#000000"/>
<path class="note" d="M 610.588 145.905 L 613.688 145.905 L 613.688 135.325 L 610.268 136.385 L 609.808 135.205 L 614.148 133.265 L 615.568 133.505 L 615.568 145.905 L 618.348 145.905 L 618.348 147.505 L 610.588 147.505 L 610.588 145.905 " fill="#000000"/>
<path class="note" d="M 516.044 392.947 Q 517.424 393.347, 518.084 394.247 Q 518.764 395.127, 518.764 396.527 Q 518.764 397.727, 518.164 398.667 Q 517.564 399.587, 516.464 400.107 Q 515.364 400.607, 513.924 400.607 Q 512.404 400.607, 511.264 400.087 Q 510.144 399.547, 509.244 398.467 L 510.384 397.307 Q 511.264 398.267, 512.004 398.647 Q 512.744 399.007, 513.924 399.007 Q 515.204 399.007, 515.984 398.327 Q 516.764 397.627, 516.764 396.507 Q 516.764 395.067, 515.944 394.427 Q 515.144 393.767, 513.404 393.767 L 512.384 393.767 L 512.384 392.327 L 513.284 392.327 Q 514.824 392.307, 515.644 391.647 Q 516.464 390.967, 516.464 389.707 Q 516.464 388.787, 515.784 388.247 Q 515.104 387.687, 513.944 387.687 Q 512.764 387.687, 512.024 388.107 Q 511.304 388.527, 510.744 389.587 L 509.364 388.847 Q 509.864 387.667, 511.064 386.887 Q 512.264 386.087, 513.944 386.087 Q 516.024 386.087, 517.244 387.067 Q 518.464 388.047, 518.464 389.707 Q 518.464 390.847, 517.844 391.667 Q 517.224 392.487, 516.044 392.947 " fill="#000000"/>
<path class="note" d="M 944.031 247.035 L 945.731 247.035 L 945.731 248.635 L 944.031 248.635 L 944.031 251.895 L 942.151 251.895 L 942.151 248.635 L 934.831 248.635 L 934.831 247.375 L 941.031 237.735 L 944.031 237.735 L 944.031 247.035 M 937.151 247.035 L 942.151 247.035 L 942.151 239.015 L 937.151 247.035 " fill="#000000"/>
<path class="note" d="M 1078.19 185.351 Q 1079.43 185.351, 1080.45 185.891 Q 1081.47 186.411, 1082.05 187.411 Q 1082.63 188.391, 1082.63 189.731 Q 1082.63 191.191, 1081.91 192.251 Q 1081.21 193.291, 1080.05 193.831 Q 1078.89 194.371, 1077.57 194.371 Q 1076.27 194.371, 1075.07 193.891 Q 1073.87 193.411, 1073.05 192.491 L 1074.25 191.251 Q 1074.91 191.971, 1075.81 192.371 Q 1076.71 192.751, 1077.63 192.751 Q 1078.89 192.751, 1079.75 191.971 Q 1080.63 191.191, 1080.63 189.771 Q 1080.63 188.271, 1079.75 187.571 Q 1078.89 186.851, 1077.51 186.851 Q 1076.27 186.851, 1074.89 187.391 L 1073.79 186.871 L 1074.47 180.051 L 1081.75 180.051 L 1081.55 181.651 L 1076.11 181.651 L 1075.69 185.851 Q 1076.95 185.351, 1078.19 185.351 " fill="#000000"/>
<path class="note" d="M 1140.53 73.6633 Q 1141.77 73.6633, 1142.75 74.2033 Q 1143.73 74.7433, 1144.27 75.7233 Q 1144.81 76.7033, 1144.81 77.9433 Q 1144.81 79.3233, 1144.19 80.4033 Q 1143.59 81.4633, 1142.51 82.0633 Q 1141.43 82.6633, 1140.05 82.6633 Q 1137.53 82.6633, 1136.25 80.9633 Q 1134.99 79.2433, 1134.99 75.8433 Q 1134.99 72.0833, 1136.55 70.1433 Q 1138.13 68.1833, 1141.15 68.1833 Q 1142.03 68.1833, 1142.77 68.3833 Q 1143.53 68.5833, 1144.25 69.0033 L 1143.47 70.3433 Q 1142.43 69.7833, 1141.17 69.7833 Q 1139.17 69.7833, 1138.15 71.0833 Q 1137.13 72.3633, 1137.01 75.0233 Q 1137.73 74.3633, 1138.63 74.0233 Q 1139.55 73.6633, 1140.53 73.6633 M 1140.07 81.0233 Q 1140.83 81.0233, 1141.45 80.6233 Q 1142.09 80.2233, 1142.45 79.5233 Q 1142.81 78.8233, 1142.81 77.9633 Q 1142.81 76.7033, 1142.11 75.9833 Q 1141.41 75.2633, 1140.17 75.2633 Q 1139.31 75.2633, 1138.45 75.6233 Q 1137.61 75.9633, 1137.01 76.5633 Q 1137.09 78.9033, 1137.83 79.9633 Q 1138.57 81.0233, 1140.07 81.0233 " fill="#000000"/>
<path class="note" d="M 1291.77 67.3564 L 1284.35 67.3564 L 1284.35 65.7564 L 1293.75 65.7564 L 1293.75 67.1764 L 1288.03 79.9164 L 1286.11 79.9164 L 1291.77 67.3564 " fill="#000000"/>
<path class="note" d="M 1325.4 201.124 Q 1326.7 201.684, 1327.44 202.524 Q 1328.18 203.344, 1328.18 204.744 Q 1328.18 205.944, 1327.56 206.884 Q 1326.94 207.804, 1325.82 208.324 Q 1324.72 208.824, 1323.26 208.824 Q 1320.9 208.824, 1319.54 207.744 Q 1318.18 206.644, 1318.18 204.744 Q 1318.18 203.584, 1318.78 202.724 Q 1319.38 201.844, 1320.62 201.184 Q 1319.7 200.664, 1319.2 199.904 Q 1318.7 199.124, 1318.7 197.924 Q 1318.7 196.264, 1319.9 195.284 Q 1321.12 194.304, 1323.18 194.304 Q 1325.24 194.304, 1326.44 195.284 Q 1327.66 196.264, 1327.66 197.924 Q 1327.66 198.964, 1327.08 199.744 Q 1326.52 200.504, 1325.4 201.124 M 1323.18 195.804 Q 1322 195.804, 1321.34 196.364 Q 1320.7 196.924, 1320.7 197.924 Q 1320.7 198.664, 1321.14 199.164 Q 1321.58 199.644, 1322.2 199.924 Q 1322.84 200.204, 1324.06 200.624 Q 1324.92 200.024, 1325.28 199.384 Q 1325.66 198.744, 1325.66 197.924 Q 1325.66 196.924, 1325 196.364 Q 1324.36 195.804, 1323.18 195.804 M 1323.26 207.324 Q 1324.58 207.324, 1325.38 206.624 Q 1326.18 205.904, 1326.18 204.724 Q 1326.18 203.964, 1325.76 203.484 Q 1325.34 203.004, 1324.7 202.724 Q 1324.08 202.444, 1322.96 202.084 L 1322.06 201.784 Q 1321.06 202.384, 1320.62 203.104 Q 1320.18 203.804, 1320.18 204.724 Q 1320.18 205.904, 1321.02 206.624 Q 1321.86 207.324, 1323.26 207.324 " fill="#000000"/>
<path class="note" d="M 1271.94 324.365 Q 1274.46 324.365, 1275.72 326.085 Q 1277 327.785, 1277 331.185 Q 1277 334.945, 1275.42 336.905 Q 1273.86 338.845, 1270.84 338.845 Q 1269.96 338.845, 1269.2 338.645 Q 1268.46 338.445, 1267.74 338.025 L 1268.52 336.685 Q 1269.56 337.245, 1270.82 337.245 Q 1272.82 337.245, 1273.84 335.965 Q 1274.86 334.665, 1274.98 332.005 Q 1274.26 332.665, 1273.34 333.025 Q 1272.44 333.365, 1271.46 333.365 Q 1270.22 333.365, 1269.24 332.825 Q 1268.26 332.285, 1267.72 331.305 Q 1267.18 330.325, 1267.18 329.085 Q 1267.18 327.705, 1267.78 326.645 Q 1268.4 325.565, 1269.48 324.965 Q 1270.56 324.365, 1271.94 324.365 M 1269.18 329.065 Q 1269.18 330.325, 1269.88 331.045 Q 1270.58 331.765, 1271.82 331.765 Q 1272.68 331.765, 1273.52 331.425 Q 1274.38 331.065, 1274.98 330.465 Q 1274.9 328.125, 1274.16 327.065 Q 1273.42 326.005, 1271.92 326.005 Q 1271.16 326.005, 1270.52 326.405 Q 1269.9 326.805, 1269.54 327.505 Q 1269.18 328.205, 1269.18 329.065 " fill="#000000"/>
<path class="note" d="M 1130.7 339.234 L 1133.8 339.234 L 1133.8 328.654 L 1130.38 329.714 L 1129.92 328.534 L 1134.26 326.594 L 1135.68 326.834 L 1135.68 339.234 L 1138.46 339.234 L 1138.46 340.834 L 1130.7 340.834 L 1130.7 339.234 " fill="#000000"/>
<path class="note" d="M 1144.86 340.994 Q 1142.26 340.994, 1140.96 339.074 Q 1139.68 337.154, 1139.68 333.734 Q 1139.68 330.314, 1140.96 328.414 Q 1142.24 326.514, 1144.86 326.514 Q 1147.48 326.514, 1148.76 328.414 Q 1150.04 330.314, 1150.04 333.734 Q 1150.04 337.154, 1148.74 339.074 Q 1147.46 340.994, 1144.86 340.994 M 1144.86 339.394 Q 1146.4 339.394, 1147.22 337.974 Q 1148.04 336.534, 1148.04 333.734 Q 1148.04 330.954, 1147.22 329.534 Q 1146.4 328.114, 1144.86 328.114 Q 1143.34 328.114, 1142.5 329.534 Q 1141.68 330.954, 1141.68 333.734 Q 1141.68 336.534, 1142.5 337.974 Q 1143.34 339.394, 1144.86 339.394 " fill="#000000"/>
<path class="note" d="M 1325.3 446.684 L 1328.4 446.684 L 1328.4 436.104 L 1324.98 437.164 L 1324.52 435.984 L 1328.86 434.044 L 1330.28 434.284 L 1330.28 446.684 L 1333.06 446.684 L 1333.06 448.284 L 1325.3 448.284 L 1325.3 446.684 " fill="#000000"/>
<path class="note" d="M 1334.92 446.684 L 1338.02 446.684 L 1338.02 436.104 L 1334.6 437.164 L 1334.14 435.984 L 1338.48 434.044 L 1339.9 434.284 L 1339.9 446.684 L 1342.68 446.684 L 1342.68 448.284 L 1334.92 448.284 L 1334.92 446.684 " fill="#000000"/>
<path class="note" d="M 1473.98 444.217 L 1477.08 444.217 L 1477.08 433.637 L 1473.66 434.697 L 1473.2 433.517 L 1477.54 431.577 L 1478.96 431.817 L 1478.96 444.217 L 1481.74 444.217 L 1481.74 445.817 L 1473.98 445.817 L 1473.98 444.217 " fill="#000000"/>
<path class="note" d="M 1482.78 434.337 Q 1483.3 432.997, 1484.54 432.257 Q 1485.78 431.497, 1487.5 431.497 Q 1489.64 431.497, 1490.84 432.657 Q 1492.04 433.817, 1492.04 435.877 Q 1492.04 437.977, 1490.48 439.937 Q 1488.94 441.897, 1485.74 444.217 L 1492.28 444.217 L 1492.28 445.817 L 1482.74 445.817 L 1482.74 444.477 Q 1485.38 442.597, 1486.94 441.197 Q 1488.52 439.797, 1489.28 438.537 Q 1490.04 437.277, 1490.04 435.977 Q 1490.04 434.617, 1489.36 433.857 Q 1488.68 433.097, 1487.5 433.097 Q 1486.36 433.097, 1485.6 433.557 Q 1484.84 434.017, 1484.3 435.037 L 1482.78 434.337 " fill="#000000"/>
<path class="note" d="M 1547.1 350.702 L 1550.2 350.702 L 1550.2 340.122 L 1546.78 341.182 L 1546.32 340.002 L 1550.66 338.062 L 1552.08 338.302 L 1552.08 350.702 L 1554.86 350.702 L 1554.86 352.302 L 1547.1 352.302 L 1547.1 350.702 " fill="#000000"/>
<path class="note" d="M 1562.5 344.842 Q 1563.88 345.242, 1564.54 346.142 Q 1565.22 347.022, 1565.22 348.422 Q 1565.22 349.622, 1564.62 350.562 Q 1564.02 351.482, 1562.92 352.002 Q 1561.82 352.502, 1560.38 352.502 Q 1558.86 352.502, 1557.72 351.982 Q 1556.6 351.442, 1555.7 350.362 L 1556.84 349.202 Q 1557.72 350.162, 1558.46 350.542 Q 1559.2 350.902, 1560.38 350.902 Q 1561.66 350.902, 1562.44 350.222 Q 1563.22 349.522, 1563.22 348.402 Q 1563.22 346.962, 1562.4 346.322 Q 1561.6 345.662, 1559.86 345.662 L 1558.84 345.662 L 1558.84 344.222 L 1559.74 344.222 Q 1561.28 344.202, 1562.1 343.542 Q 1562.92 342.862, 1562.92 341.602 Q 1562.92 340.682, 1562.24 340.142 Q 1561.56 339.582, 1560.4 339.582 Q 1559.22 339.582, 1558.48 340.002 Q 1557.76 340.422, 1557.2 341.482 L 1555.82 340.742 Q 1556.32 339.562, 1557.52 338.782 Q 1558.72 337.982, 1560.4 337.982 Q 1562.48 337.982, 1563.7 338.962 Q 1564.92 339.942, 1564.92 341.602 Q 1564.92 342.742, 1564.3 343.562 Q 1563.68 344.382, 1562.5 344.842 " fill="#000000"/>
<path class="note" d="M 1639.63 294.94 L 1642.73 294.94 L 1642.73 284.36 L 1639.31 285.42 L 1638.85 284.24 L 1643.19 282.3 L 1644.61 282.54 L 1644.61 294.94 L 1647.39 294.94 L 1647.39 296.54 L 1639.63 296.54 L 1639.63 294.94 " fill="#000000"/>
<path class="note" d="M 1657.19 291.68 L 1658.89 291.68 L 1658.89 293.28 L 1657.19 293.28 L 1657.19 296.54 L 1655.31 296.54 L 1655.31 293.28 L 1647.99 293.28 L 1647.99 292.02 L 1654.19 282.38 L 1657.19 282.38 L 1657.19 291.68 M 1650.31 291.68 L 1655.31 291.68 L 1655.31 283.66 L 1650.31 291.68 " fill="#000000"/>
<path class="note" d="M 1736 426.449 L 1739.1 426.449 L 1739.1 415.869 L 1735.68 416.929 L 1735.22 415.749 L 1739.56 413.809 L 1740.98 414.049 L 1740.98 426.449 L 1743.76 426.449 L 1743.76 428.049 L 1736 428.049 L 1736 426.449 " fill="#000000"/>
<path class="note" d="M 1749.82 419.189 Q 1751.06 419.189, 1752.08 419.729 Q 1753.1 420.249, 1753.68 421.249 Q 1754.26 422.229, 1754.26 423.569 Q 1754.26 425.029, 1753.54 426.089 Q 1752.84 427.129, 1751.68 427.669 Q 1750.52 428.209, 1749.2 428.209 Q 1747.9 428.209, 1746.7 427.729 Q 1745.5 427.249, 1744.68 426.329 L 1745.88 425.089 Q 1746.54 425.809, 1747.44 426.209 Q 1748.34 426.589, 1749.26 426.589 Q 1750.52 426.589, 1751.38 425.809 Q 1752.26 425.029, 1752.26 423.609 Q 1752.26 422.109, 1751.38 421.409 Q 1750.52 420.689, 1749.14 420.689 Q 1747.9 420.689, 1746.52 421.229 L 1745.42 420.709 L 1746.1 413.889 L 1753.38 413.889 L 1753.18 415.489 L 1747.74 415.489 L 1747.32 419.689 Q 1748.58 419.189, 1749.82 419.189 " fill="#000000"/>
<path class="note" d="M 1837.02 341.27 L 1840.12 341.27 L 1840.12 330.69 L 1836.7 331.75 L 1836.24 330.57 L 1840.58 328.63 L 1842 328.87 L 1842 341.27 L 1844.78 341.27 L 1844.78 342.87 L 1837.02 342.87 L 1837.02 341.27 " fill="#000000"/>
<path class="note" d="M 1851.68 334.03 Q 1852.92 334.03, 1853.9 334.57 Q 1854.88 335.11, 1855.42 336.09 Q 1855.96 337.07, 1855.96 338.31 Q 1855.96 339.69, 1855.34 340.77 Q 1854.74 341.83, 1853.66 342.43 Q 1852.58 343.03, 1851.2 343.03 Q 1848.68 343.03, 1847.4 341.33 Q 1846.14 339.61, 1846.14 336.21 Q 1846.14 332.45, 1847.7 330.51 Q 1849.28 328.55, 1852.3 328.55 Q 1853.18 328.55, 1853.92 328.75 Q 1854.68 328.95, 1855.4 329.37 L 1854.62 330.71 Q 1853.58 330.15, 1852.32 330.15 Q 1850.32 330.15, 1849.3 331.45 Q 1848.28 332.73, 1848.16 335.39 Q 1848.88 334.73, 1849.78 334.39 Q 1850.7 334.03, 1851.68 334.03 M 1851.22 341.39 Q 1851.98 341.39, 1852.6 340.99 Q 1853.24 340.59, 1853.6 339.89 Q 1853.96 339.19, 1853.96 338.33 Q 1853.96 337.07, 1853.26 336.35 Q 1852.56 335.63, 1851.32 335.63 Q 1850.46 335.63, 1849.6 335.99 Q 1848.76 336.33, 1848.16 336.93 Q 1848.24 339.27, 1848.98 340.33 Q 1849.72 341.39, 1851.22 341.39 " fill="#000000"/>
<path class="note" d="M 1824.53 238.345 L 1827.63 238.345 L 1827.63 227.765 L 1824.21 228.825 L 1823.75 227.645 L 1828.09 225.705 L 1829.51 225.945 L 1829.51 238.345 L 1832.29 238.345 L 1832.29 239.945 L 1824.53 239.945 L 1824.53 238.345 " fill="#000000"/>
<path class="note" d="M 1840.07 227.385 L 1832.65 227.385 L 1832.65 225.785 L 1842.05 225.785 L 1842.05 227.205 L 1836.33 239.945 L 1834.41 239.945 L 1840.07 227.385 " fill="#000000"/>
<path class="note" d="M 1964.88 108.512 L 1967.98 108.512 L 1967.98 97.9324 L 1964.56 98.9924 L 1964.1 97.8124 L 1968.44 95.8724 L 1969.86 96.1124 L 1969.86 108.512 L 1972.64 108.512 L 1972.64 110.112 L 1964.88 110.112 L 1964.88 108.512 " fill="#000000"/>
<path class="note" d="M 1981.1 102.612 Q 1982.4 103.172, 1983.14 104.012 Q 1983.88 104.832, 1983.88 106.232 Q 1983.88 107.432, 1983.26 108.372 Q 1982.64 109.292, 1981.52 109.812 Q 1980.42 110.312, 1978.96 110.312 Q 1976.6 110.312, 1975.24 109.232 Q 1973.88 108.132, 1973.88 106.232 Q 1973.88 105.072, 1974.48 104.212 Q 1975.08 103.332, 1976.32 102.672 Q 1975.4 102.152, 1974.9 101.392 Q 1974.4 100.612, 1974.4 99.4124 Q 1974.4 97.7524, 1975.6 96.7724 Q 1976.82 95.7924, 1978.88 95.7924 Q 1980.94 95.7924, 1982.14 96.7724 Q 1983.36 97.7524, 1983.36 99.4124 Q 1983.36 100.452, 1982.78 101.232 Q 1982.22 101.992, 1981.1 102.612 M 1978.88 97.2924 Q 1977.7 97.2924, 1977.04 97.8524 Q 1976.4 98.4124, 1976.4 99.4124 Q 1976.4 100.152, 1976.84 100.652 Q 1977.28 101.132, 1977.9 101.412 Q 1978.54 101.692, 1979.76 102.112 Q 1980.62 101.512, 1980.98 100.872 Q 1981.36 100.232, 1981.36 99.4124 Q 1981.36 98.4124, 1980.7 97.8524 Q 1980.06 97.2924, 1978.88 97.2924 M 1978.96 108.812 Q 1980.28 108.812, 1981.08 108.112 Q 1981.88 107.392, 1981.88 106.212 Q 1981.88 105.452, 1981.46 104.972 Q 1981.04 104.492, 1980.4 104.212 Q 1979.78 103.932, 1978.66 103.572 L 1977.76 103.272 Q 1976.76 103.872, 1976.32 104.592 Q 1975.88 105.292, 1975.88 106.212 Q 1975.88 107.392, 1976.72 108.112 Q 1977.56 108.812, 1978.96 108.812 " fill="#000000"/>
<path class="note" d="M 1693.69 197.24 L 1696.79 197.24 L 1696.79 186.66 L 1693.37 187.72 L 1692.91 186.54 L 1697.25 184.6 L 1698.67 184.84 L 1698.67 197.24 L 1701.45 197.24 L 1701.45 198.84 L 1693.69 198.84 L 1693.69 197.24 " fill="#000000"/>
<path class="note" d="M 1707.31 184.52 Q 1709.83 184.52, 1711.09 186.24 Q 1712.37 187.94, 1712.37 191.34 Q 1712.37 195.1, 1710.79 197.06 Q 1709.23 199, 1706.21 199 Q 1705.33 199, 1704.57 198.8 Q 1703.83 198.6, 1703.11 198.18 L 1703.89 196.84 Q 1704.93 197.4, 1706.19 197.4 Q 1708.19 197.4, 1709.21 196.12 Q 1710.23 194.82, 1710.35 192.16 Q 1709.63 192.82, 1708.71 193.18 Q 1707.81 193.52, 1706.83 193.52 Q 1705.59 193.52, 1704.61 192.98 Q 1703.63 192.44, 1703.09 191.46 Q 1702.55 190.48, 1702.55 189.24 Q 1702.55 187.86, 1703.15 186.8 Q 1703.77 185.72, 1704.85 185.12 Q 1705.93 184.52, 1707.31 184.52 M 1704.55 189.22 Q 1704.55 190.48, 1705.25 191.2 Q 1705.95 191.92, 1707.19 191.92 Q 1708.05 191.92, 1708.89 191.58 Q 1709.75 191.22, 1710.35 190.62 Q 1710.27 188.28, 1709.53 187.22 Q 1708.79 186.16, 1707.29 186.16 Q 1706.53 186.16, 1705.89 186.56 Q 1705.27 186.96, 1704.91 187.66 Q 1704.55 188.36, 1704.55 189.22 " fill="#000000"/>
<path class="note" d="M 1768.68 73.4176 Q 1769.2 72.0776, 1770.44 71.3376 Q 1771.68 70.5776, 1773.4 70.5776 Q 1775.54 70.5776, 1776.74 71.7376 Q 1777.94 72.8976, 1777.94 74.9576 Q 1777.94 77.0576, 1776.38 79.0176 Q 1774.84 80.9776, 1771.64 83.2976 L 1778.18 83.2976 L 1778.18 84.8976 L 1768.64 84.8976 L 1768.64 83.5576 Q 1771.28 81.6776, 1772.84 80.2776 Q 1774.42 78.8776, 1775.18 77.6176 Q 1775.94 76.3576, 1775.94 75.0576 Q 1775.94 73.6976, 1775.26 72.9376 Q 1774.58 72.1776, 1773.4 72.1776 Q 1772.26 72.1776, 1771.5 72.6376 Q 1770.74 73.0976, 1770.2 74.1176 L 1768.68 73.4176 " fill="#000000"/>
<path class="note" d="M 1784.58 85.0576 Q 1781.98 85.0576, 1780.68 83.1376 Q 1779.4 81.2176, 1779.4 77.7976 Q 1779.4 74.3776, 1780.68 72.4776 Q 1781.96 70.5776, 1784.58 70.5776 Q 1787.2 70.5776, 1788.48 72.4776 Q 1789.76 74.3776, 1789.76 77.7976 Q 1789.76 81.2176, 1788.46 83.1376 Q 1787.18 85.0576, 1784.58 85.0576 M 1784.58 83.4576 Q 1786.12 83.4576, 1786.94 82.0376 Q 1787.76 80.5976, 1787.76 77.7976 Q 1787.76 75.0176, 1786.94 73.5976 Q 1786.12 72.1776, 1784.58 72.1776 Q 1783.06 72.1776, 1782.22 73.5976 Q 1781.4 75.0176, 1781.4 77.7976 Q 1781.4 80.5976, 1782.22 82.0376 Q 1783.06 83.4576, 1784.58 83.4576 " fill="#000000"/>
<path class="note" d="M 1658.26 62.0699 Q 1658.78 60.7299, 1660.02 59.9899 Q 1661.26 59.2299, 1662.98 59.2299 Q 1665.12 59.2299, 1666.32 60.3899 Q 1667.52 61.5499, 1667.52 63.6099 Q 1667.52 65.7099, 1665.96 67.6699 Q 1664.42 69.6299, 1661.22 71.9499 L 1667.76 71.9499 L 1667.76 73.5499 L 1658.22 73.5499 L 1658.22 72.2099 Q 1660.86 70.3299, 1662.42 68.9299 Q 1664 67.5299, 1664.76 66.2699 Q 1665.52 65.0099, 1665.52 63.7099 Q 1665.52 62.3499, 1664.84 61.5899 Q 1664.16 60.8299, 1662.98 60.8299 Q 1661.84 60.8299, 1661.08 61.2899 Q 1660.32 61.7499, 1659.78 62.7699 L 1658.26 62.0699 " fill="#000000"/>
<path class="note" d="M 1669.62 71.9499 L 1672.72 71.9499 L 1672.72 61.3699 L 1669.3 62.4299 L 1668.84 61.2499 L 1673.18 59.3099 L 1674.6 59.5499 L 1674.6 71.9499 L 1677.38 71.9499 L 1677.38 73.5499 L 1669.62 73.5499 L 1669.62 71.9499 " fill="#000000"/>
<path class="note" d="M 1508.65 64.5769 Q 1509.17 63.2369, 1510.41 62.4969 Q 1511.65 61.7369, 1513.37 61.7369 Q 1515.51 61.7369, 1516.71 62.8969 Q 1517.91 64.0569, 1517.91 66.1169 Q 1517.91 68.2169, 1516.35 70.1769 Q 1514.81 72.1369, 1511.61 74.4569 L 1518.15 74.4569 L 1518.15 76.0569 L 1508.61 76.0569 L 1508.61 74.7169 Q 1511.25 72.8369, 1512.81 71.4369 Q 1514.39 70.0369, 1515.15 68.7769 Q 1515.91 67.5169, 1515.91 66.2169 Q 1515.91 64.8569, 1515.23 64.0969 Q 1514.55 63.3369, 1513.37 63.3369 Q 1512.23 63.3369, 1511.47 63.7969 Q 1510.71 64.2569, 1510.17 65.2769 L 1508.65 64.5769 " fill="#000000"/>
<path class="note" d="M 1519.19 64.5769 Q 1519.71 63.2369, 1520.95 62.4969 Q 1522.19 61.7369, 1523.91 61.7369 Q 1526.05 61.7369, 1527.25 62.8969 Q 1528.45 64.0569, 1528.45 66.1169 Q 1528.45 68.2169, 1526.89 70.1769 Q 1525.35 72.1369, 1522.15 74.4569 L 1528.69 74.4569 L 1528.69 76.0569 L 1519.15 76.0569 L 1519.15 74.7169 Q 1521.79 72.8369, 1523.35 71.4369 Q 1524.93 70.0369, 1525.69 68.7769 Q 1526.45 67.5169, 1526.45 66.2169 Q 1526.45 64.8569, 1525.77 64.0969 Q 1525.09 63.3369, 1523.91 63.3369 Q 1522.77 63.3369, 1522.01 63.7969 Q 1521.25 64.2569, 1520.71 65.2769 L 1519.19 64.5769 " fill="#000000"/>
<path class="note" d="M 1446.69 176.364 Q 1447.21 175.024, 1448.45 174.284 Q 1449.69 173.524, 1451.41 173.524 Q 1453.55 173.524, 1454.75 174.684 Q 1455.95 175.844, 1455.95 177.904 Q 1455.95 180.004, 1454.39 181.964 Q 1452.85 183.924, 1449.65 186.244 L 1456.19 186.244 L 1456.19 187.844 L 1446.65 187.844 L 1446.65 186.504 Q 1449.29 184.624, 1450.85 183.224 Q 1452.43 181.824, 1453.19 180.564 Q 1453.95 179.304, 1453.95 178.004 Q 1453.95 176.644, 1453.27 175.884 Q 1452.59 175.124, 1451.41 175.124 Q 1450.27 175.124, 1449.51 175.584 Q 1448.75 176.044, 1448.21 177.064 L 1446.69 176.364 " fill="#000000"/>
<path class="note" d="M 1463.83 180.384 Q 1465.21 180.784, 1465.87 181.684 Q 1466.55 182.564, 1466.55 183.964 Q 1466.55 185.164, 1465.95 186.104 Q 1465.35 187.024, 1464.25 187.544 Q 1463.15 188.044, 1461.71 188.044 Q 1460.19 188.044, 1459.05 187.524 Q 1457.93 186.984, 1457.03 185.904 L 1458.17 184.744 Q 1459.05 185.704, 1459.79 186.084 Q 1460.53 186.444, 1461.71 186.444 Q 1462.99 186.444, 1463.77 185.764 Q 1464.55 185.064, 1464.55 183.944 Q 1464.55 182.504, 1463.73 181.864 Q 1462.93 181.204, 1461.19 181.204 L 1460.17 181.204 L 1460.17 179.764 L 1461.07 179.764 Q 1462.61 179.744, 1463.43 179.084 Q 1464.25 178.404, 1464.25 177.144 Q 1464.25 176.224, 1463.57 175.684 Q 1462.89 175.124, 1461.73 175.124 Q 1460.55 175.124, 1459.81 175.544 Q 1459.09 175.964, 1458.53 177.024 L 1457.15 176.284 Q 1457.65 175.104, 1458.85 174.324 Q 1460.05 173.524, 1461.73 173.524 Q 1463.81 173.524, 1465.03 174.504 Q 1466.25 175.484, 1466.25 177.144 Q 1466.25 178.284, 1465.63 179.104 Q 1465.01 179.924, 1463.83 180.384 " fill="#000000"/>
<path class="note" d="M 2614.42 224.643 L 2617.52 224.643 L 2617.52 214.063 L 2614.1 215.123 L 2613.64 213.943 L 2617.98 212.003 L 2619.4 212.243 L 2619.4 224.643 L 2622.18 224.643 L 2622.18 226.243 L 2614.42 226.243 L 2614.42 224.643 " fill="#000000"/>
<path class="note" d="M 2728.97 196.44 Q 2729.49 195.1, 2730.73 194.36 Q 2731.97 193.6, 2733.69 193.6 Q 2735.83 193.6, 2737.03 194.76 Q 2738.23 195.92, 2738.23 197.98 Q 2738.23 200.08, 2736.67 202.04 Q 2735.13 204, 2731.93 206.32 L 2738.47 206.32 L 2738.47 207.92 L 2728.93 207.92 L 2728.93 206.58 Q 2731.57 204.7, 2733.13 203.3 Q 2734.71 201.9, 2735.47 200.64 Q 2736.23 199.38, 2736.23 198.08 Q 2736.23 196.72, 2735.55 195.96 Q 2734.87 195.2, 2733.69 195.2 Q 2732.55 195.2, 2731.79 195.66 Q 2731.03 196.12, 2730.49 197.14 L 2728.97 196.44 " fill="#000000"/>
<path class="note" d="M 2808.78 23.1235 Q 2810.16 23.5235, 2810.82 24.4235 Q 2811.5 25.3035, 2811.5 26.7035 Q 2811.5 27.9035, 2810.9 28.8435 Q 2810.3 29.7635, 2809.2 30.2835 Q 2808.1 30.7835, 2806.66 30.7835 Q 2805.14 30.7835, 2804 30.2635 Q 2802.88 29.7235, 2801.98 28.6435 L 2803.12 27.4835 Q 2804 28.4435, 2804.74 28.8235 Q 2805.48 29.1835, 2806.66 29.1835 Q 2807.94 29.1835, 2808.72 28.5035 Q 2809.5 27.8035, 2809.5 26.6835 Q 2809.5 25.2435, 2808.68 24.6035 Q 2807.88 23.9435, 2806.14 23.9435 L 2805.12 23.9435 L 2805.12 22.5035 L 2806.02 22.5035 Q 2807.56 22.4835, 2808.38 21.8235 Q 2809.2 21.1435, 2809.2 19.8835 Q 2809.2 18.9635, 2808.52 18.4235 Q 2807.84 17.8635, 2806.68 17.8635 Q 2805.5 17.8635, 2804.76 18.2835 Q 2804.04 18.7035, 2803.48 19.7635 L 2802.1 19.0235 Q 2802.6 17.8435, 2803.8 17.0635 Q 2805 16.2635, 2806.68 16.2635 Q 2808.76 16.2635, 2809.98 17.2435 Q 2811.2 18.2235, 2811.2 19.8835 Q 2811.2 21.0235, 2810.58 21.8435 Q 2809.96 22.6635, 2808.78 23.1235 " fill="#000000"/>
<path class="note" d="M 2807.38 323.964 L 2809.08 323.964 L 2809.08 325.564 L 2807.38 325.564 L 2807.38 328.824 L 2805.5 328.824 L 2805.5 325.564 L 2798.18 325.564 L 2798.18 324.304 L 2804.38 314.664 L 2807.38 314.664 L 2807.38 323.964 M 2800.5 323.964 L 2805.5 323.964 L 2805.5 315.944 L 2800.5 323.964 " fill="#000000"/>
<path class="note" d="M 2933.93 246.731 Q 2935.17 246.731, 2936.19 247.271 Q 2937.21 247.791, 2937.79 248.791 Q 2938.37 249.771, 2938.37 251.111 Q 2938.37 252.571, 2937.65 253.631 Q 2936.95 254.671, 2935.79 255.211 Q 2934.63 255.751, 2933.31 255.751 Q 2932.01 255.751, 2930.81 255.271 Q 2929.61 254.791, 2928.79 253.871 L 2929.99 252.631 Q 2930.65 253.351, 2931.55 253.751 Q 2932.45 254.131, 2933.37 254.131 Q 2934.63 254.131, 2935.49 253.351 Q 2936.37 252.571, 2936.37 251.151 Q 2936.37 249.651, 2935.49 248.951 Q 2934.63 248.231, 2933.25 248.231 Q 2932.01 248.231, 2930.63 248.771 L 2929.53 248.251 L 2930.21 241.431 L 2937.49 241.431 L 2937.29 243.031 L 2931.85 243.031 L 2931.43 247.231 Q 2932.69 246.731, 2933.93 246.731 " fill="#000000"/>
<path class="note" d="M 2982.9 128.606 Q 2984.14 128.606, 2985.12 129.146 Q 2986.1 129.686, 2986.64 130.666 Q 2987.18 131.646, 2987.18 132.886 Q 2987.18 134.266, 2986.56 135.346 Q 2985.96 136.406, 2984.88 137.006 Q 2983.8 137.606, 2982.42 137.606 Q 2979.9 137.606, 2978.62 135.906 Q 2977.36 134.186, 2977.36 130.786 Q 2977.36 127.026, 2978.92 125.086 Q 2980.5 123.126, 2983.52 123.126 Q 2984.4 123.126, 2985.14 123.326 Q 2985.9 123.526, 2986.62 123.946 L 2985.84 125.286 Q 2984.8 124.726, 2983.54 124.726 Q 2981.54 124.726, 2980.52 126.026 Q 2979.5 127.306, 2979.38 129.966 Q 2980.1 129.306, 2981 128.966 Q 2981.92 128.606, 2982.9 128.606 M 2982.44 135.966 Q 2983.2 135.966, 2983.82 135.566 Q 2984.46 135.166, 2984.82 134.466 Q 2985.18 133.766, 2985.18 132.906 Q 2985.18 131.646, 2984.48 130.926 Q 2983.78 130.206, 2982.54 130.206 Q 2981.68 130.206, 2980.82 130.566 Q 2979.98 130.906, 2979.38 131.506 Q 2979.46 133.846, 2980.2 134.906 Q 2980.94 135.966, 2982.44 135.966 " fill="#000000"/>
<path class="note" d="M 3132.85 105.037 L 3125.43 105.037 L 3125.43 103.437 L 3134.83 103.437 L 3134.83 104.857 L 3129.11 117.597 L 3127.19 117.597 L 3132.85 105.037 " fill="#000000"/>
<path class="note" d="M 3181.15 233.985 Q 3182.45 234.545, 3183.19 235.385 Q 3183.93 236.205, 3183.93 237.605 Q 3183.93 238.805, 3183.31 239.745 Q 3182.69 240.665, 3181.57 241.185 Q 3180.47 241.685, 3179.01 241.685 Q 3176.65 241.685, 3175.29 240.605 Q 3173.93 239.505, 3173.93 237.605 Q 3173.93 236.445, 3174.53 235.585 Q 3175.13 234.705, 3176.37 234.045 Q 3175.45 233.525, 3174.95 232.765 Q 3174.45 231.985, 3174.45 230.785 Q 3174.45 229.125, 3175.65 228.145 Q 3176.87 227.165, 3178.93 227.165 Q 3180.99 227.165, 3182.19 228.145 Q 3183.41 229.125, 3183.41 230.785 Q 3183.41 231.825, 3182.83 232.605 Q 3182.27 233.365, 3181.15 233.985 M 3178.93 228.665 Q 3177.75 228.665, 3177.09 229.225 Q 3176.45 229.785, 3176.45 230.785 Q 3176.45 231.525, 3176.89 232.025 Q 3177.33 232.505, 3177.95 232.785 Q 3178.59 233.065, 3179.81 233.485 Q 3180.67 232.885, 3181.03 232.245 Q 3181.41 231.605, 3181.41 230.785 Q 3181.41 229.785, 3180.75 229.225 Q 3180.11 228.665, 3178.93 228.665 M 3179.01 240.185 Q 3180.33 240.185, 3181.13 239.485 Q 3181.93 238.765, 3181.93 237.585 Q 3181.93 236.825, 3181.51 236.345 Q 3181.09 235.865, 3180.45 235.585 Q 3179.83 235.305, 3178.71 234.945 L 3177.81 234.645 Q 3176.81 235.245, 3176.37 235.965 Q 3175.93 236.665, 3175.93 237.585 Q 3175.93 238.765, 3176.77 239.485 Q 3177.61 240.185, 3179.01 240.185 " fill="#000000"/>
<path class="note" d="M 3143.09 362.269 Q 3145.61 362.269, 3146.87 363.989 Q 3148.15 365.689, 3148.15 369.089 Q 3148.15 372.849, 3146.57 374.809 Q 3145.01 376.749, 3141.99 376.749 Q 3141.11 376.749, 3140.35 376.549 Q 3139.61 376.349, 3138.89 375.929 L 3139.67 374.589 Q 3140.71 375.149, 3141.97 375.149 Q 3143.97 375.149, 3144.99 373.869 Q 3146.01 372.569, 3146.13 369.909 Q 3145.41 370.569, 3144.49 370.929 Q 3143.59 371.269, 3142.61 371.269 Q 3141.37 371.269, 3140.39 370.729 Q 3139.41 370.189, 3138.87 369.209 Q 3138.33 368.229, 3138.33 366.989 Q 3138.33 365.609, 3138.93 364.549 Q 3139.55 363.469, 3140.63 362.869 Q 3141.71 362.269, 3143.09 362.269 M 3140.33 366.969 Q 3140.33 368.229, 3141.03 368.949 Q 3141.73 369.669, 3142.97 369.669 Q 3143.83 369.669, 3144.67 369.329 Q 3145.53 368.969, 3146.13 368.369 Q 3146.05 366.029, 3145.31 364.969 Q 3144.57 363.909, 3143.07 363.909 Q 3142.31 363.909, 3141.67 364.309 Q 3141.05 364.709, 3140.69 365.409 Q 3140.33 366.109, 3140.33 366.969 " fill="#000000"/>
<path class="note" d="M 3002.96 391.934 L 3006.06 391.934 L 3006.06 381.354 L 3002.64 382.414 L 3002.18 381.234 L 3006.52 379.294 L 3007.94 379.534 L 3007.94 391.934 L 3010.72 391.934 L 3010.72 393.534 L 3002.96 393.534 L 3002.96 391.934 " fill="#000000"/>
<path class="note" d="M 3017.12 393.694 Q 3014.52 393.694, 3013.22 391.774 Q 3011.94 389.854, 3011.94 386.434 Q 3011.94 383.014, 3013.22 381.114 Q 3014.5 379.214, 3017.12 379.214 Q 3019.74 379.214, 3021.02 381.114 Q 3022.3 383.014, 3022.3 386.434 Q 3022.3 389.854, 3021 391.774 Q 3019.72 393.694, 3017.12 393.694 M 3017.12 392.094 Q 3018.66 392.094, 3019.48 390.674 Q 3020.3 389.234, 3020.3 386.434 Q 3020.3 383.654, 3019.48 382.234 Q 3018.66 380.814, 3017.12 380.814 Q 3015.6 380.814, 3014.76 382.234 Q 3013.94 383.654, 3013.94 386.434 Q 3013.94 389.234, 3014.76 390.674 Q 3015.6 392.094, 3017.12 392.094 " fill="#000000"/>
<path class="note" d="M 3208.72 476.229 L 3211.82 476.229 L 3211.82 465.649 L 3208.4 466.709 L 3207.94 465.529 L 3212.28 463.589 L 3213.7 463.829 L 3213.7 476.229 L 3216.48 476.229 L 3216.48 477.829 L 3208.72 477.829 L 3208.72 476.229 " fill="#000000"/>
<path class="note" d="M 3218.34 476.229 L 3221.44 476.229 L 3221.44 465.649 L 3218.02 466.709 L 3217.56 465.529 L 3221.9 463.589 L 3223.32 463.829 L 3223.32 476.229 L 3226.1 476.229 L 3226.1 477.829 L 3218.34 477.829 L 3218.34 476.229 " fill="#000000"/>
<path class="note" d="M 3356.11 456.5 L 3359.21 456.5 L 3359.21 445.92 L 3355.79 446.98 L 3355.33 445.8 L 3359.67 443.86 L 3361.09 444.1 L 3361.09 456.5 L 3363.87 456.5 L 3363.87 458.1 L 3356.11 458.1 L 3356.11 456.5 " fill="#000000"/>
<path class="note" d="M 3364.91 446.62 Q 3365.43 445.28, 3366.67 444.54 Q 3367.91 443.78, 3369.63 443.78 Q 3371.77 443.78, 3372.97 444.94 Q 3374.17 446.1, 3374.17 448.16 Q 3374.17 450.26, 3372.61 452.22 Q 3371.07 454.18, 3367.87 456.5 L 3374.41 456.5 L 3374.41 458.1 L 3364.87 458.1 L 3364.87 456.76 Q 3367.51 454.88, 3369.07 453.48 Q 3370.65 452.08, 3371.41 450.82 Q 3372.17 449.56, 3372.17 448.26 Q 3372.17 446.9, 3371.49 446.14 Q 3370.81 445.38, 3369.63 445.38 Q 3368.49 445.38, 3367.73 445.84 Q 3366.97 446.3, 3366.43 447.32 L 3364.91 446.62 " fill="#000000"/>
<path class="note" d="M 3417.89 355.155 L 3420.99 355.155 L 3420.99 344.575 L 3417.57 345.635 L 3417.11 344.455 L 3421.45 342.515 L 3422.87 342.755 L 3422.87 355.155 L 3425.65 355.155 L 3425.65 356.755 L 3417.89 356.755 L 3417.89 355.155 " fill="#000000"/>
<path class="note" d="M 3433.29 349.295 Q 3434.67 349.695, 3435.33 350.595 Q 3436.01 351.475, 3436.01 352.875 Q 3436.01 354.075, 3435.41 355.015 Q 3434.81 355.935, 3433.71 356.455 Q 3432.61 356.955, 3431.17 356.955 Q 3429.65 356.955, 3428.51 356.435 Q 3427.39 355.895, 3426.49 354.815 L 3427.63 353.655 Q 3428.51 354.615, 3429.25 354.995 Q 3429.99 355.355, 3431.17 355.355 Q 3432.45 355.355, 3433.23 354.675 Q 3434.01 353.975, 3434.01 352.855 Q 3434.01 351.415, 3433.19 350.775 Q 3432.39 350.115, 3430.65 350.115 L 3429.63 350.115 L 3429.63 348.675 L 3430.53 348.675 Q 3432.07 348.655, 3432.89 347.995 Q 3433.71 347.315, 3433.71 346.055 Q 3433.71 345.135, 3433.03 344.595 Q 3432.35 344.035, 3431.19 344.035 Q 3430.01 344.035, 3429.27 344.455 Q 3428.55 344.875, 3427.99 345.935 L 3426.61 345.195 Q 3427.11 344.015, 3428.31 343.235 Q 3429.51 342.435, 3431.19 342.435 Q 3433.27 342.435, 3434.49 343.415 Q 3435.71 344.395, 3435.71 346.055 Q 3435.71 347.195, 3435.09 348.015 Q 3434.47 348.835, 3433.29 349.295 " fill="#000000"/>
<path class="note" d="M 3503.34 288.982 L 3506.44 288.982 L 3506.44 278.402 L 3503.02 279.462 L 3502.56 278.282 L 3506.9 276.342 L 3508.32 276.582 L 3508.32 288.982 L 3511.1 288.982 L 3511.1 290.582 L 3503.34 290.582 L 3503.34 288.982 " fill="#000000"/>
<path class="note" d="M 3520.9 285.722 L 3522.6 285.722 L 3522.6 287.322 L 3520.9 287.322 L 3520.9 290.582 L 3519.02 290.582 L 3519.02 287.322 L 3511.7 287.322 L 3511.7 286.062 L 3517.9 276.422 L 3520.9 276.422 L 3520.9 285.722 M 3514.02 285.722 L 3519.02 285.722 L 3519.02 277.702 L 3514.02 285.722 " fill="#000000"/>
<path class="note" d="M 3614.31 408.499 L 3617.41 408.499 L 3617.41 397.919 L 3613.99 398.979 L 3613.53 397.799 L 3617.87 395.859 L 3619.29 396.099 L 3619.29 408.499 L 3622.07 408.499 L 3622.07 410.099 L 3614.31 410.099 L 3614.31 408.499 " fill="#000000"/>
<path class="note" d="M 3628.13 401.239 Q 3629.37 401.239, 3630.39 401.779 Q 3631.41 402.299, 3631.99 403.299 Q 3632.57 404.279, 3632.57 405.619 Q 3632.57 407.079, 3631.85 408.139 Q 3631.15 409.179, 3629.99 409.719 Q 3628.83 410.259, 3627.51 410.259 Q 3626.21 410.259, 3625.01 409.779 Q 3623.81 409.299, 3622.99 408.379 L 3624.19 407.139 Q 3624.85 407.859, 3625.75 408.259 Q 3626.65 408.639, 3627.57 408.639 Q 3628.83 408.639, 3629.69 407.859 Q 3630.57 407.079, 3630.57 405.659 Q 3630.57 404.159, 3629.69 403.459 Q 3628.83 402.739, 3627.45 402.739 Q 3626.21 402.739, 3624.83 403.279 L 3623.73 402.759 L 3624.41 395.939 L 3631.69 395.939 L 3631.49 397.539 L 3626.05 397.539 L 3625.63 401.739 Q 3626.89 401.239, 3628.13 401.239 " fill="#000000"/>
<path class="note" d="M 3704.77 312.15 L 3707.87 312.15 L 3707.87 301.57 L 3704.45 302.63 L 3703.99 301.45 L 3708.33 299.51 L 3709.75 299.75 L 3709.75 312.15 L 3712.53 312.15 L 3712.53 313.75 L 3704.77 313.75 L 3704.77 312.15 " fill="#000000"/>
<path class="note" d="M 3719.43 304.91 Q 3720.67 304.91, 3721.65 305.45 Q 3722.63 305.99, 3723.17 306.97 Q 3723.71 307.95, 3723.71 309.19 Q 3723.71 310.57, 3723.09 311.65 Q 3722.49 312.71, 3721.41 313.31 Q 3720.33 313.91, 3718.95 313.91 Q 3716.43 313.91, 3715.15 312.21 Q 3713.89 310.49, 3713.89 307.09 Q 3713.89 303.33, 3715.45 301.39 Q 3717.03 299.43, 3720.05 299.43 Q 3720.93 299.43, 3721.67 299.63 Q 3722.43 299.83, 3723.15 300.25 L 3722.37 301.59 Q 3721.33 301.03, 3720.07 301.03 Q 3718.07 301.03, 3717.05 302.33 Q 3716.03 303.61, 3715.91 306.27 Q 3716.63 305.61, 3717.53 305.27 Q 3718.45 304.91, 3719.43 304.91 M 3718.97 312.27 Q 3719.73 312.27, 3720.35 311.87 Q 3720.99 311.47, 3721.35 310.77 Q 3721.71 310.07, 3721.71 309.21 Q 3721.71 307.95, 3721.01 307.23 Q 3720.31 306.51, 3719.07 306.51 Q 3718.21 306.51, 3717.35 306.87 Q 3716.51 307.21, 3715.91 307.81 Q 3715.99 310.15, 3716.73 311.21 Q 3717.47 312.27, 3718.97 312.27 " fill="#000000"/>
<path class="note" d="M 3680.45 211.447 L 3683.55 211.447 L 3683.55 200.867 L 3680.13 201.927 L 3679.67 200.747 L 3684.01 198.807 L 3685.43 199.047 L 3685.43 211.447 L 3688.21 211.447 L 3688.21 213.047 L 3680.45 213.047 L 3680.45 211.447 " fill="#000000"/>
<path class="note" d="M 3695.99 200.487 L 3688.57 200.487 L 3688.57 198.887 L 3697.97 198.887 L 3697.97 200.307 L 3692.25 213.047 L 3690.33 213.047 L 3695.99 200.487 " fill="#000000"/>
<path class="note" d="M 3804.8 66.1439 L 3807.9 66.1439 L 3807.9 55.5639 L 3804.48 56.6239 L 3804.02 55.4439 L 3808.36 53.5039 L 3809.78 53.7439 L 3809.78 66.1439 L 3812.56 66.1439 L 3812.56 67.7439 L 3804.8 67.7439 L 3804.8 66.1439 " fill="#000000"/>
<path class="note" d="M 3821.02 60.2439 Q 3822.32 60.8039, 3823.06 61.6439 Q 3823.8 62.4639, 3823.8 63.8639 Q 3823.8 65.0639, 3823.18 66.0039 Q 3822.56 66.9239, 3821.44 67.4439 Q 3820.34 67.9439, 3818.88 67.9439 Q 3816.52 67.9439, 3815.16 66.8639 Q 3813.8 65.7639, 3813.8 63.8639 Q 3813.8 62.7039, 3814.4 61.8439 Q 3815 60.9639, 3816.24 60.3039 Q 3815.32 59.7839, 3814.82 59.0239 Q 3814.32 58.2439, 3814.32 57.0439 Q 3814.32 55.3839, 3815.52 54.4039 Q 3816.74 53.4239, 3818.8 53.4239 Q 3820.86 53.4239, 3822.06 54.4039 Q 3823.28 55.3839, 3823.28 57.0439 Q 3823.28 58.0839, 3822.7 58.8639 Q 3822.14 59.6239, 3821.02 60.2439 M 3818.8 54.9239 Q 3817.62 54.9239, 3816.96 55.4839 Q 3816.32 56.0439, 3816.32 57.0439 Q 3816.32 57.7839, 3816.76 58.2839 Q 3817.2 58.7639, 3817.82 59.0439 Q 3818.46 59.3239, 3819.68 59.7439 Q 3820.54 59.1439, 3820.9 58.5039 Q 3821.28 57.8639, 3821.28 57.0439 Q 3821.28 56.0439, 3820.62 55.4839 Q 3819.98 54.9239, 3818.8 54.9239 M 3818.88 66.4439 Q 3820.2 66.4439, 3821 65.7439 Q 3821.8 65.0239, 3821.8 63.8439 Q 3821.8 63.0839, 3821.38 62.6039 Q 3820.96 62.1239, 3820.32 61.8439 Q 3819.7 61.5639, 3818.58 61.2039 L 3817.68 60.9039 Q 3816.68 61.5039, 3816.24 62.2239 Q 3815.8 62.9239, 3815.8 63.8439 Q 3815.8 65.0239, 3816.64 65.7439 Q 3817.48 66.4439, 3818.88 66.4439 " fill="#000000"/>
<path class="note" d="M 3545.72 185.711 L 3548.82 185.711 L 3548.82 175.131 L 3545.4 176.191 L 3544.94 175.011 L 3549.28 173.071 L 3550.7 173.311 L 3550.7 185.711 L 3553.48 185.711 L 3553.48 187.311 L 3545.72 187.311 L 3545.72 185.711 " fill="#000000"/>
<path class="note" d="M 3559.34 172.991 Q 3561.86 172.991, 3563.12 174.711 Q 3564.4 176.411, 3564.4 179.811 Q 3564.4 183.571, 3562.82 185.531 Q 3561.26 187.471, 3558.24 187.471 Q 3557.36 187.471, 3556.6 187.271 Q 3555.86 187.071, 3555.14 186.651 L 3555.92 185.311 Q 3556.96 185.871, 3558.22 185.871 Q 3560.22 185.871, 3561.24 184.591 Q 3562.26 183.291, 3562.38 180.631 Q 3561.66 181.291, 3560.74 181.651 Q 3559.84 181.991, 3558.86 181.991 Q 3557.62 181.991, 3556.64 181.451 Q 3555.66 180.911, 3555.12 179.931 Q 3554.58 178.951, 3554.58 177.711 Q 3554.58 176.331, 3555.18 175.271 Q 3555.8 174.191, 3556.88 173.591 Q 3557.96 172.991, 3559.34 172.991 M 3556.58 177.691 Q 3556.58 178.951, 3557.28 179.671 Q 3557.98 180.391, 3559.22 180.391 Q 3560.08 180.391, 3560.92 180.051 Q 3561.78 179.691, 3562.38 179.091 Q 3562.3 176.751, 3561.56 175.691 Q 3560.82 174.631, 3559.32 174.631 Q 3558.56 174.631, 3557.92 175.031 Q 3557.3 175.431, 3556.94 176.131 Q 3556.58 176.831, 3556.58 177.691 " fill="#000000"/>
<path class="note" d="M 3606.99 53.7282 Q 3607.51 52.3882, 3608.75 51.6482 Q 3609.99 50.8882, 3611.71 50.8882 Q 3613.85 50.8882, 3615.05 52.0482 Q 3616.25 53.2082, 3616.25 55.2682 Q 3616.25 57.3682, 3614.69 59.3282 Q 3613.15 61.2882, 3609.95 63.6082 L 3616.49 63.6082 L 3616.49 65.2082 L 3606.95 65.2082 L 3606.95 63.8682 Q 3609.59 61.9882, 3611.15 60.5882 Q 3612.73 59.1882, 3613.49 57.9282 Q 3614.25 56.6682, 3614.25 55.3682 Q 3614.25 54.0082, 3613.57 53.2482 Q 3612.89 52.4882, 3611.71 52.4882 Q 3610.57 52.4882, 3609.81 52.9482 Q 3609.05 53.4082, 3608.51 54.4282 L 3606.99 53.7282 " fill="#000000"/>
<path class="note" d="M 3622.89 65.3682 Q 3620.29 65.3682, 3618.99 63.4482 Q 3617.71 61.5282, 3617.71 58.1082 Q 3617.71 54.6882, 3618.99 52.7882 Q 3620.27 50.8882, 3622.89 50.8882 Q 3625.51 50.8882, 3626.79 52.7882 Q 3628.07 54.6882, 3628.07 58.1082 Q 3628.07 61.5282, 3626.77 63.4482 Q 3625.49 65.3682, 3622.89 65.3682 M 3622.89 63.7682 Q 3624.43 63.7682, 3625.25 62.3482 Q 3626.07 60.9082, 3626.07 58.1082 Q 3626.07 55.3282, 3625.25 53.9082 Q 3624.43 52.4882, 3622.89 52.4882 Q 3621.37 52.4882, 3620.53 53.9082 Q 3619.71 55.3282, 3619.71 58.1082 Q 3619.71 60.9082, 3620.53 62.3482 Q 3621.37 63.7682, 3622.89 63.7682 " fill="#000000"/>
<path class="note" d="M 3496.01 55.3621 Q 3496.53 54.0221, 3497.77 53.2821 Q 3499.01 52.5221, 3500.73 52.5221 Q 3502.87 52.5221, 3504.07 53.6821 Q 3505.27 54.8421, 3505.27 56.9021 Q 3505.27 59.0021, 3503.71 60.9621 Q 3502.17 62.9221, 3498.97 65.2421 L 3505.51 65.2421 L 3505.51 66.8421 L 3495.97 66.8421 L 3495.97 65.5021 Q 3498.61 63.6221, 3500.17 62.2221 Q 3501.75 60.8221, 3502.51 59.5621 Q 3503.27 58.3021, 3503.27 57.0021 Q 3503.27 55.6421, 3502.59 54.8821 Q 3501.91 54.1221, 3500.73 54.1221 Q 3499.59 54.1221, 3498.83 54.5821 Q 3498.07 55.0421, 3497.53 56.0621 L 3496.01 55.3621 " fill="#000000"/>
<path class="note" d="M 3507.37 65.2421 L 3510.47 65.2421 L 3510.47 54.6621 L 3507.05 55.7221 L 3506.59 54.5421 L 3510.93 52.6021 L 3512.35 52.8421 L 3512.35 65.2421 L 3515.13 65.2421 L 3515.13 66.8421 L 3507.37 66.8421 L 3507.37 65.2421 " fill="#000000"/>
<path class="note" d="M 3347.7 75.1313 Q 3348.22 73.7913, 3349.46 73.0513 Q 3350.7 72.2913, 3352.42 72.2913 Q 3354.56 72.2913, 3355.76 73.4513 Q 3356.96 74.6113, 3356.96 76.6713 Q 3356.96 78.7713, 3355.4 80.7313 Q 3353.86 82.6913, 3350.66 85.0113 L 3357.2 85.0113 L 3357.2 86.6113 L 3347.66 86.6113 L 3347.66 85.2713 Q 3350.3 83.3913, 3351.86 81.9913 Q 3353.44 80.5913, 3354.2 79.3313 Q 3354.96 78.0713, 3354.96 76.7713 Q 3354.96 75.4113, 3354.28 74.6513 Q 3353.6 73.8913, 3352.42 73.8913 Q 3351.28 73.8913, 3350.52 74.3513 Q 3349.76 74.8113, 3349.22 75.8313 L 3347.7 75.1313 " fill="#000000"/>
<path class="note" d="M 3358.24 75.1313 Q 3358.76 73.7913, 3360 73.0513 Q 3361.24 72.2913, 3362.96 72.2913 Q 3365.1 72.2913, 3366.3 73.4513 Q 3367.5 74.6113, 3367.5 76.6713 Q 3367.5 78.7713, 3365.94 80.7313 Q 3364.4 82.6913, 3361.2 85.0113 L 3367.74 85.0113 L 3367.74 86.6113 L 3358.2 86.6113 L 3358.2 85.2713 Q 3360.84 83.3913, 3362.4 81.9913 Q 3363.98 80.5913, 3364.74 79.3313 Q 3365.5 78.0713, 3365.5 76.7713 Q 3365.5 75.4113, 3364.82 74.6513 Q 3364.14 73.8913, 3362.96 73.8913 Q 3361.82 73.8913, 3361.06 74.3513 Q 3360.3 74.8113, 3359.76 75.8313 L 3358.24 75.1313 " fill="#000000"/>
<path class="note" d="M 3299.09 193.356 Q 3299.61 192.016, 3300.85 191.276 Q 3302.09 190.516, 3303.81 190.516 Q 3305.95 190.516, 3307.15 191.676 Q 3308.35 192.836, 3308.35 194.896 Q 3308.35 196.996, 3306.79 198.956 Q 3305.25 200.916, 3302.05 203.236 L 3308.59 203.236 L 3308.59 204.836 L 3299.05 204.836 L 3299.05 203.496 Q 3301.69 201.616, 3303.25 200.216 Q 3304.83 198.816, 3305.59 197.556 Q 3306.35 196.296, 3306.35 194.996 Q 3306.35 193.636, 3305.67 192.876 Q 3304.99 192.116, 3303.81 192.116 Q 3302.67 192.116, 3301.91 192.576 Q 3301.15 193.036, 3300.61 194.056 L 3299.09 193.356 " fill="#000000"/>
<path class="note" d="M 3316.23 197.376 Q 3317.61 197.776, 3318.27 198.676 Q 3318.95 199.556, 3318.95 200.956 Q 3318.95 202.156, 3318.35 203.096 Q 3317.75 204.016, 3316.65 204.536 Q 3315.55 205.036, 3314.11 205.036 Q 3312.59 205.036, 3311.45 204.516 Q 3310.33 203.976, 3309.43 202.896 L 3310.57 201.736 Q 3311.45 202.696, 3312.19 203.076 Q 3312.93 203.436, 3314.11 203.436 Q 3315.39 203.436, 3316.17 202.756 Q 3316.95 202.056, 3316.95 200.936 Q 3316.95 199.496, 3316.13 198.856 Q 3315.33 198.196, 3313.59 198.196 L 3312.57 198.196 L 3312.57 196.756 L 3313.47 196.756 Q 3315.01 196.736, 3315.83 196.076 Q 3316.65 195.396, 3316.65 194.136 Q 3316.65 193.216, 3315.97 192.676 Q 3315.29 192.116, 3314.13 192.116 Q 3312.95 192.116, 3312.21 192.536 Q 3311.49 192.956, 3310.93 194.016 L 3309.55 193.276 Q 3310.05 192.096, 3311.25 191.316 Q 3312.45 190.516, 3314.13 190.516 Q 3316.21 190.516, 3317.43 191.496 Q 3318.65 192.476, 3318.65 194.136 Q 3318.65 195.276, 3318.03 196.096 Q 3317.41 196.916, 3316.23 197.376 " fill="#000000"/>
<path d="M 763.975 254.589 L 770.023 254.589 L 770.023 248.221 L 772.711 248.221 L 772.711 254.589 L 778.919 254.589 L 778.919 256.893 L 772.711 256.893 L 772.711 263.293 L 770.023 263.293 L 770.023 256.893 L 763.975 256.893 L 763.975 254.589 " fill="#000000"/>
<path d="M 2127.84,256.893 L 2425.75,256.893" style="fill:none;fill-rule:evenodd;stroke:#000000;stroke-width:2.0px;stroke-linecap:butt;stroke-linejoin:miter;stroke-opacity:1"/>
<path d="M 2425.75,256.893 L 2412.85,249.445" style="fill:none;fill-rule:evenodd;stroke:#000000;stroke-width:2.0px;stroke-linecap:butt;stroke-linejoin:miter;stroke-opacity:1"/>
<path d="M 2425.75,256.893 L 2412.85,264.34" style="fill:none;fill-rule:evenodd;stroke:#000000;stroke-width:2.0px;stroke-linecap:butt;stroke-linejoin:miter;stroke-opacity:1"/>
</svg>