<svg xmlns="http://www.w3.org/2000/svg" xmlns:rdkit="http://www.rdkit.org/xml" xmlns:xlink="http://www.w3.org/1999/xlink" version="1.1" baseProfile="full" xml:space="preserve" width="4000px" height="500px" viewBox="0 0 4000 500">
<!-- END OF HEADER -->
<rect style="opacity:1.0;fill:#FFFFFF;stroke:none" width="4000" height="500" x="0" y="0"> </rect>
<path d="M 417.642,171.946 L 535.555,240.023" style="fill:none;fill-rule:evenodd;stroke:#FFFFAA;stroke-width:29.0px;stroke-linecap:butt;stroke-linejoin:miter;stroke-opacity:1"/>
<path d="M 535.555,240.023 L 653.467,171.946" style="fill:none;fill-rule:evenodd;stroke:#FFFFAA;stroke-width:29.0px;stroke-linecap:butt;stroke-linejoin:miter;stroke-opacity:1"/>
<path d="M 535.555,240.023 L 535.555,376.176" style="fill:none;fill-rule:evenodd;stroke:#FFFFAA;stroke-width:29.0px;stroke-linecap:butt;stroke-linejoin:miter;stroke-opacity:1"/>
<path d="M 1024.3,355.736 L 1146.35,295.39" style="fill:none;fill-rule:evenodd;stroke:#FFCC99;stroke-width:29.0px;stroke-linecap:butt;stroke-linejoin:miter;stroke-opacity:1"/>
<path d="M 1146.35,295.39 L 1155.12,159.519" style="fill:none;fill-rule:evenodd;stroke:#FFCC99;stroke-width:29.0px;stroke-linecap:butt;stroke-linejoin:miter;stroke-opacity:1"/>
<path d="M 1146.35,295.39 L 1259.64,370.915" style="fill:none;fill-rule:evenodd;stroke:#FFCC99;stroke-width:29.0px;stroke-linecap:butt;stroke-linejoin:miter;stroke-opacity:1"/>
<path d="M 1155.12,159.519 L 1277.17,99.1736" style="fill:none;fill-rule:evenodd;stroke:#FFCC99;stroke-width:29.0px;stroke-linecap:butt;stroke-linejoin:miter;stroke-opacity:1"/>
<path d="M 1277.17,99.1736 L 1390.45,174.699" style="fill:none;fill-rule:evenodd;stroke:#FFCC99;stroke-width:29.0px;stroke-linecap:butt;stroke-linejoin:miter;stroke-opacity:1"/>
<path d="M 1390.45,174.699 L 1512.5,114.353" style="fill:none;fill-rule:evenodd;stroke:#FFCC99;stroke-width:29.0px;stroke-linecap:butt;stroke-linejoin:miter;stroke-opacity:1"/>
<path d="M 1390.45,174.699 L 1381.69,310.57" style="fill:none;fill-rule:evenodd;stroke:#FFCC99;stroke-width:29.0px;stroke-linecap:butt;stroke-linejoin:miter;stroke-opacity:1"/>
<path d="M 1512.5,114.353 L 1625.79,189.879" style="fill:none;fill-rule:evenodd;stroke:#FFCC99;stroke-width:29.0px;stroke-linecap:butt;stroke-linejoin:miter;stroke-opacity:1"/>
<path d="M 1625.79,189.879 L 1617.02,325.749" style="fill:none;fill-rule:evenodd;stroke:#FFCC99;stroke-width:29.0px;stroke-linecap:butt;stroke-linejoin:miter;stroke-opacity:1"/>
<path d="M 1625.79,189.879 L 1747.84,129.533" style="fill:none;fill-rule:evenodd;stroke:#FFCC99;stroke-width:29.0px;stroke-linecap:butt;stroke-linejoin:miter;stroke-opacity:1"/>
<path d="M 1625.79,189.879 L 1690.4,227.448" style="fill:none;fill-rule:evenodd;stroke:#FFCC99;stroke-width:29.0px;stroke-linecap:butt;stroke-linejoin:miter;stroke-opacity:1"/>
<path d="M 1617.02,325.749 L 1730.31,401.275" style="fill:none;fill-rule:evenodd;stroke:#FFCC99;stroke-width:29.0px;stroke-linecap:butt;stroke-linejoin:miter;stroke-opacity:1"/>
<path d="M 1730.31,401.275 L 1852.36,340.929" style="fill:none;fill-rule:evenodd;stroke:#FFCC99;stroke-width:29.0px;stroke-linecap:butt;stroke-linejoin:miter;stroke-opacity:1"/>
<path d="M 1852.36,340.929 L 1861.12,205.058" style="fill:none;fill-rule:evenodd;stroke:#FFCC99;stroke-width:29.0px;stroke-linecap:butt;stroke-linejoin:miter;stroke-opacity:1"/>
<path d="M 1852.36,340.929 L 1792.83,295.738" style="fill:none;fill-rule:evenodd;stroke:#FFCC99;stroke-width:29.0px;stroke-linecap:butt;stroke-linejoin:miter;stroke-opacity:1"/>
<path d="M 1861.12,205.058 L 1747.84,129.533" style="fill:none;fill-rule:evenodd;stroke:#FFCC99;stroke-width:29.0px;stroke-linecap:butt;stroke-linejoin:miter;stroke-opacity:1"/>
<path d="M 1792.83,295.738 L 1690.4,227.448" style="fill:none;fill-rule:evenodd;stroke:#FFCC99;stroke-width:29.0px;stroke-linecap:butt;stroke-linejoin:miter;stroke-opacity:1"/>
<path d="M 1381.69,310.57 L 1259.64,370.915" style="fill:none;fill-rule:evenodd;stroke:#FFCC99;stroke-width:29.0px;stroke-linecap:butt;stroke-linejoin:miter;stroke-opacity:1"/>
<path d="M 2717.49,333.532 L 2840.14,274.416" style="fill:none;fill-rule:evenodd;stroke:#FFFFAA;stroke-width:29.0px;stroke-linecap:butt;stroke-linejoin:miter;stroke-opacity:1"/>
<path d="M 2840.14,274.416 L 2850.27,138.64" style="fill:none;fill-rule:evenodd;stroke:#FFFFAA;stroke-width:29.0px;stroke-linecap:butt;stroke-linejoin:miter;stroke-opacity:1"/>
<path d="M 2952.66,351.076 L 3075.31,291.96" style="fill:none;fill-rule:evenodd;stroke:#FFCC99;stroke-width:29.0px;stroke-linecap:butt;stroke-linejoin:miter;stroke-opacity:1"/>
<path d="M 3075.31,291.96 L 3085.44,156.184" style="fill:none;fill-rule:evenodd;stroke:#FFCC99;stroke-width:29.0px;stroke-linecap:butt;stroke-linejoin:miter;stroke-opacity:1"/>
<path d="M 3075.31,291.96 L 3187.83,368.619" style="fill:none;fill-rule:evenodd;stroke:#FFCC99;stroke-width:29.0px;stroke-linecap:butt;stroke-linejoin:miter;stroke-opacity:1"/>
<path d="M 3085.44,156.184 L 3208.09,97.0674" style="fill:none;fill-rule:evenodd;stroke:#FFCC99;stroke-width:29.0px;stroke-linecap:butt;stroke-linejoin:miter;stroke-opacity:1"/>
<path d="M 3208.09,97.0674 L 3320.61,173.727" style="fill:none;fill-rule:evenodd;stroke:#FFCC99;stroke-width:29.0px;stroke-linecap:butt;stroke-linejoin:miter;stroke-opacity:1"/>
<path d="M 3320.61,173.727 L 3443.26,114.611" style="fill:none;fill-rule:evenodd;stroke:#FFCC99;stroke-width:29.0px;stroke-linecap:butt;stroke-linejoin:miter;stroke-opacity:1"/>
<path d="M 3320.61,173.727 L 3310.48,309.503" style="fill:none;fill-rule:evenodd;stroke:#FFCC99;stroke-width:29.0px;stroke-linecap:butt;stroke-linejoin:miter;stroke-opacity:1"/>
<path d="M 3443.26,114.611 L 3555.78,191.271" style="fill:none;fill-rule:evenodd;stroke:#FFCC99;stroke-width:29.0px;stroke-linecap:butt;stroke-linejoin:miter;stroke-opacity:1"/>
<path d="M 3555.78,191.271 L 3545.65,327.047" style="fill:none;fill-rule:evenodd;stroke:#FFCC99;stroke-width:29.0px;stroke-linecap:butt;stroke-linejoin:miter;stroke-opacity:1"/>
<path d="M 3555.78,191.271 L 3678.43,132.154" style="fill:none;fill-rule:evenodd;stroke:#FFCC99;stroke-width:29.0px;stroke-linecap:butt;stroke-linejoin:miter;stroke-opacity:1"/>
<path d="M 3555.78,191.271 L 3620.01,229.488" style="fill:none;fill-rule:evenodd;stroke:#FFCC99;stroke-width:29.0px;stroke-linecap:butt;stroke-linejoin:miter;stroke-opacity:1"/>
<path d="M 3545.65,327.047 L 3658.17,403.706" style="fill:none;fill-rule:evenodd;stroke:#FFCC99;stroke-width:29.0px;stroke-linecap:butt;stroke-linejoin:miter;stroke-opacity:1"/>
<path d="M 3658.17,403.706 L 3780.82,344.59" style="fill:none;fill-rule:evenodd;stroke:#FFCC99;stroke-width:29.0px;stroke-linecap:butt;stroke-linejoin:miter;stroke-opacity:1"/>
<path d="M 3780.82,344.59 L 3790.95,208.814" style="fill:none;fill-rule:evenodd;stroke:#FFCC99;stroke-width:29.0px;stroke-linecap:butt;stroke-linejoin:miter;stroke-opacity:1"/>
<path d="M 3780.82,344.59 L 3721.75,298.803" style="fill:none;fill-rule:evenodd;stroke:#FFCC99;stroke-width:29.0px;stroke-linecap:butt;stroke-linejoin:miter;stroke-opacity:1"/>
<path d="M 3790.95,208.814 L 3678.43,132.154" style="fill:none;fill-rule:evenodd;stroke:#FFCC99;stroke-width:29.0px;stroke-linecap:butt;stroke-linejoin:miter;stroke-opacity:1"/>
<path d="M 3721.75,298.803 L 3620.01,229.488" style="fill:none;fill-rule:evenodd;stroke:#FFCC99;stroke-width:29.0px;stroke-linecap:butt;stroke-linejoin:miter;stroke-opacity:1"/>
<path d="M 3310.48,309.503 L 3187.83,368.619" style="fill:none;fill-rule:evenodd;stroke:#FFCC99;stroke-width:29.0px;stroke-linecap:butt;stroke-linejoin:miter;stroke-opacity:1"/>
<ellipse cx="535.555" cy="240.023" rx="27.2306" ry="27.2306" style="fill:#FFFFAA;fill-rule:evenodd;stroke:#FFFFAA;stroke-width:1px;stroke-linecap:butt;stroke-linejoin:miter;stroke-opacity:1"/>
<ellipse cx="653.467" cy="171.946" rx="27.2306" ry="27.2306" style="fill:#FFFFAA;fill-rule:evenodd;stroke:#FFFFAA;stroke-width:1px;stroke-linecap:butt;stroke-linejoin:miter;stroke-opacity:1"/>
<ellipse cx="535.555" cy="376.396" rx="27.2306" ry="27.2306" style="fill:#FFFFAA;fill-rule:evenodd;stroke:#FFFFAA;stroke-width:1px;stroke-linecap:butt;stroke-linejoin:miter;stroke-opacity:1"/>
<ellipse cx="1004.61" cy="362.816" rx="43.0436" ry="30.0379" style="fill:#FFCC99;fill-rule:evenodd;stroke:#FFCC99;stroke-width:1px;stroke-linecap:butt;stroke-linejoin:miter;stroke-opacity:1"/>
<ellipse cx="1146.35" cy="295.39" rx="27.2306" ry="27.2306" style="fill:#FFCC99;fill-rule:evenodd;stroke:#FFCC99;stroke-width:1px;stroke-linecap:butt;stroke-linejoin:miter;stroke-opacity:1"/>
<ellipse cx="1155.12" cy="159.519" rx="27.2306" ry="27.2306" style="fill:#FFCC99;fill-rule:evenodd;stroke:#FFCC99;stroke-width:1px;stroke-linecap:butt;stroke-linejoin:miter;stroke-opacity:1"/>
<ellipse cx="1277.17" cy="99.1736" rx="27.2306" ry="27.2306" style="fill:#FFCC99;fill-rule:evenodd;stroke:#FFCC99;stroke-width:1px;stroke-linecap:butt;stroke-linejoin:miter;stroke-opacity:1"/>
<ellipse cx="1390.45" cy="174.699" rx="27.2306" ry="27.2306" style="fill:#FFCC99;fill-rule:evenodd;stroke:#FFCC99;stroke-width:1px;stroke-linecap:butt;stroke-linejoin:miter;stroke-opacity:1"/>
<ellipse cx="1512.5" cy="114.573" rx="27.2306" ry="27.2306" style="fill:#FFCC99;fill-rule:evenodd;stroke:#FFCC99;stroke-width:1px;stroke-linecap:butt;stroke-linejoin:miter;stroke-opacity:1"/>
<ellipse cx="1625.79" cy="189.879" rx="27.2306" ry="27.2306" style="fill:#FFCC99;fill-rule:evenodd;stroke:#FFCC99;stroke-width:1px;stroke-linecap:butt;stroke-linejoin:miter;stroke-opacity:1"/>
<ellipse cx="1617.02" cy="325.749" rx="27.2306" ry="27.2306" style="fill:#FFCC99;fill-rule:evenodd;stroke:#FFCC99;stroke-width:1px;stroke-linecap:butt;stroke-linejoin:miter;stroke-opacity:1"/>
<ellipse cx="1730.31" cy="401.275" rx="27.2306" ry="27.2306" style="fill:#FFCC99;fill-rule:evenodd;stroke:#FFCC99;stroke-width:1px;stroke-linecap:butt;stroke-linejoin:miter;stroke-opacity:1"/>
<ellipse cx="1852.36" cy="340.929" rx="27.2306" ry="27.2306" style="fill:#FFCC99;fill-rule:evenodd;stroke:#FFCC99;stroke-width:1px;stroke-linecap:butt;stroke-linejoin:miter;stroke-opacity:1"/>
<ellipse cx="1861.12" cy="205.058" rx="27.2306" ry="27.2306" style="fill:#FFCC99;fill-rule:evenodd;stroke:#FFCC99;stroke-width:1px;stroke-linecap:butt;stroke-linejoin:miter;stroke-opacity:1"/>
<ellipse cx="1747.84" cy="129.533" rx="27.2306" ry="27.2306" style="fill:#FFCC99;fill-rule:evenodd;stroke:#FFCC99;stroke-width:1px;stroke-linecap:butt;stroke-linejoin:miter;stroke-opacity:1"/>
<ellipse cx="1792.83" cy="295.918" rx="27.2306" ry="27.2306" style="fill:#FFCC99;fill-rule:evenodd;stroke:#FFCC99;stroke-width:1px;stroke-linecap:butt;stroke-linejoin:miter;stroke-opacity:1"/>
<ellipse cx="1690.4" cy="227.628" rx="27.2306" ry="27.2306" style="fill:#FFCC99;fill-rule:evenodd;stroke:#FFCC99;stroke-width:1px;stroke-linecap:butt;stroke-linejoin:miter;stroke-opacity:1"/>
<ellipse cx="1381.69" cy="310.57" rx="27.2306" ry="27.2306" style="fill:#FFCC99;fill-rule:evenodd;stroke:#FFCC99;stroke-width:1px;stroke-linecap:butt;stroke-linejoin:miter;stroke-opacity:1"/>
<ellipse cx="1259.64" cy="370.915" rx="27.2306" ry="27.2306" style="fill:#FFCC99;fill-rule:evenodd;stroke:#FFCC99;stroke-width:1px;stroke-linecap:butt;stroke-linejoin:miter;stroke-opacity:1"/>
<ellipse cx="2717.49" cy="333.532" rx="27.2306" ry="27.2306" style="fill:#FFFFAA;fill-rule:evenodd;stroke:#FFFFAA;stroke-width:1px;stroke-linecap:butt;stroke-linejoin:miter;stroke-opacity:1"/>
<ellipse cx="2840.14" cy="274.416" rx="27.2306" ry="27.2306" style="fill:#FFFFAA;fill-rule:evenodd;stroke:#FFFFAA;stroke-width:1px;stroke-linecap:butt;stroke-linejoin:miter;stroke-opacity:1"/>
<ellipse cx="2850.27" cy="138.86" rx="27.2306" ry="27.2306" style="fill:#FFFFAA;fill-rule:evenodd;stroke:#FFFFAA;stroke-width:1px;stroke-linecap:butt;stroke-linejoin:miter;stroke-opacity:1"/>
<ellipse cx="2952.66" cy="366.652" rx="27.2306" ry="42.0531" style="fill:#FFCC99;fill-rule:evenodd;stroke:#FFCC99;stroke-width:1px;stroke-linecap:butt;stroke-linejoin:miter;stroke-opacity:1"/>
<ellipse cx="3075.31" cy="291.96" rx="27.2306" ry="27.2306" style="fill:#FFCC99;fill-rule:evenodd;stroke:#FFCC99;stroke-width:1px;stroke-linecap:butt;stroke-linejoin:miter;stroke-opacity:1"/>
<ellipse cx="3085.44" cy="156.184" rx="27.2306" ry="27.2306" style="fill:#FFCC99;fill-rule:evenodd;stroke:#FFCC99;stroke-width:1px;stroke-linecap:butt;stroke-linejoin:miter;stroke-opacity:1"/>
<ellipse cx="3208.09" cy="97.0674" rx="27.2306" ry="27.2306" style="fill:#FFCC99;fill-rule:evenodd;stroke:#FFCC99;stroke-width:1px;stroke-linecap:butt;stroke-linejoin:miter;stroke-opacity:1"/>
<ellipse cx="3320.61" cy="173.727" rx="27.2306" ry="27.2306" style="fill:#FFCC99;fill-rule:evenodd;stroke:#FFCC99;stroke-width:1px;stroke-linecap:butt;stroke-linejoin:miter;stroke-opacity:1"/>
<ellipse cx="3443.26" cy="114.831" rx="27.2306" ry="27.2306" style="fill:#FFCC99;fill-rule:evenodd;stroke:#FFCC99;stroke-width:1px;stroke-linecap:butt;stroke-linejoin:miter;stroke-opacity:1"/>
<ellipse cx="3555.78" cy="191.271" rx="27.2306" ry="27.2306" style="fill:#FFCC99;fill-rule:evenodd;stroke:#FFCC99;stroke-width:1px;stroke-linecap:butt;stroke-linejoin:miter;stroke-opacity:1"/>
<ellipse cx="3545.65" cy="327.047" rx="27.2306" ry="27.2306" style="fill:#FFCC99;fill-rule:evenodd;stroke:#FFCC99;stroke-width:1px;stroke-linecap:butt;stroke-linejoin:miter;stroke-opacity:1"/>
<ellipse cx="3658.17" cy="403.706" rx="27.2306" ry="27.2306" style="fill:#FFCC99;fill-rule:evenodd;stroke:#FFCC99;stroke-width:1px;stroke-linecap:butt;stroke-linejoin:miter;stroke-opacity:1"/>
<ellipse cx="3780.82" cy="344.59" rx="27.2306" ry="27.2306" style="fill:#FFCC99;fill-rule:evenodd;stroke:#FFCC99;stroke-width:1px;stroke-linecap:butt;stroke-linejoin:miter;stroke-opacity:1"/>
<ellipse cx="3790.95" cy="208.814" rx="27.2306" ry="27.2306" style="fill:#FFCC99;fill-rule:evenodd;stroke:#FFCC99;stroke-width:1px;stroke-linecap:butt;stroke-linejoin:miter;stroke-opacity:1"/>
<ellipse cx="3678.43" cy="132.154" rx="27.2306" ry="27.2306" style="fill:#FFCC99;fill-rule:evenodd;stroke:#FFCC99;stroke-width:1px;stroke-linecap:butt;stroke-linejoin:miter;stroke-opacity:1"/>
<ellipse cx="3721.75" cy="298.983" rx="27.2306" ry="27.2306" style="fill:#FFCC99;fill-rule:evenodd;stroke:#FFCC99;stroke-width:1px;stroke-linecap:butt;stroke-linejoin:miter;stroke-opacity:1"/>
<ellipse cx="3620.01" cy="229.668" rx="27.2306" ry="27.2306" style="fill:#FFCC99;fill-rule:evenodd;stroke:#FFCC99;stroke-width:1px;stroke-linecap:butt;stroke-linejoin:miter;stroke-opacity:1"/>
<ellipse cx="3310.48" cy="309.503" rx="27.2306" ry="27.2306" style="fill:#FFCC99;fill-rule:evenodd;stroke:#FFCC99;stroke-width:1px;stroke-linecap:butt;stroke-linejoin:miter;stroke-opacity:1"/>
<ellipse cx="3187.83" cy="368.619" rx="27.2306" ry="27.2306" style="fill:#FFCC99;fill-rule:evenodd;stroke:#FFCC99;stroke-width:1px;stroke-linecap:butt;stroke-linejoin:miter;stroke-opacity:1"/>
<path class="bond-0" d="M 181.818,171.946 L 299.73,240.023" style="fill:none;fill-rule:evenodd;stroke:#000000;stroke-width:2.0px;stroke-linecap:butt;stroke-linejoin:miter;stroke-opacity:1"/>
<path class="bond-1" d="M 286.115,240.023 L 286.115,299.237" style="fill:none;fill-rule:evenodd;stroke:#000000;stroke-width:2.0px;stroke-linecap:butt;stroke-linejoin:miter;stroke-opacity:1"/>
<path class="bond-1" d="M 286.115,299.237 L 286.115,358.452" style="fill:none;fill-rule:evenodd;stroke:#FF0000;stroke-width:2.0px;stroke-linecap:butt;stroke-linejoin:miter;stroke-opacity:1"/>
<path class="bond-1" d="M 313.346,240.023 L 313.346,299.237" style="fill:none;fill-rule:evenodd;stroke:#000000;stroke-width:2.0px;stroke-linecap:butt;stroke-linejoin:miter;stroke-opacity:1"/>
<path class="bond-1" d="M 313.346,299.237 L 313.346,358.452" style="fill:none;fill-rule:evenodd;stroke:#FF0000;stroke-width:2.0px;stroke-linecap:butt;stroke-linejoin:miter;stroke-opacity:1"/>
<path class="bond-2" d="M 299.73,240.023 L 350.484,210.72" style="fill:none;fill-rule:evenodd;stroke:#000000;stroke-width:2.0px;stroke-linecap:butt;stroke-linejoin:miter;stroke-opacity:1"/>
<path class="bond-2" d="M 350.484,210.72 L 401.239,181.417" style="fill:none;fill-rule:evenodd;stroke:#FF0000;stroke-width:2.0px;stroke-linecap:butt;stroke-linejoin:miter;stroke-opacity:1"/>
<path class="bond-3" d="M 434.046,181.417 L 484.8,210.72" style="fill:none;fill-rule:evenodd;stroke:#FF0000;stroke-width:2.0px;stroke-linecap:butt;stroke-linejoin:miter;stroke-opacity:1"/>
<path class="bond-3" d="M 484.8,210.72 L 535.555,240.023" style="fill:none;fill-rule:evenodd;stroke:#000000;stroke-width:2.0px;stroke-linecap:butt;stroke-linejoin:miter;stroke-opacity:1"/>
<path class="bond-4" d="M 535.555,240.023 L 653.467,171.946" style="fill:none;fill-rule:evenodd;stroke:#000000;stroke-width:2.0px;stroke-linecap:butt;stroke-linejoin:miter;stroke-opacity:1"/>
<path class="bond-5" d="M 521.939,240.023 L 521.939,299.237" style="fill:none;fill-rule:evenodd;stroke:#000000;stroke-width:2.0px;stroke-linecap:butt;stroke-linejoin:miter;stroke-opacity:1"/>
<path class="bond-5" d="M 521.939,299.237 L 521.939,358.452" style="fill:none;fill-rule:evenodd;stroke:#FF0000;stroke-width:2.0px;stroke-linecap:butt;stroke-linejoin:miter;stroke-opacity:1"/>
<path class="bond-5" d="M 549.17,240.023 L 549.17,299.237" style="fill:none;fill-rule:evenodd;stroke:#000000;stroke-width:2.0px;stroke-linecap:butt;stroke-linejoin:miter;stroke-opacity:1"/>
<path class="bond-5" d="M 549.17,299.237 L 549.17,358.452" style="fill:none;fill-rule:evenodd;stroke:#FF0000;stroke-width:2.0px;stroke-linecap:butt;stroke-linejoin:miter;stroke-opacity:1"/>
<path class="bond-6" d="M 1038.45,348.742 L 1092.4,322.066" style="fill:none;fill-rule:evenodd;stroke:#0000FF;stroke-width:2.0px;stroke-linecap:butt;stroke-linejoin:miter;stroke-opacity:1"/>
<path class="bond-6" d="M 1092.4,322.066 L 1146.35,295.39" style="fill:none;fill-rule:evenodd;stroke:#000000;stroke-width:2.0px;stroke-linecap:butt;stroke-linejoin:miter;stroke-opacity:1"/>
<path class="bond-7" d="M 1146.35,295.39 L 1155.12,159.519" style="fill:none;fill-rule:evenodd;stroke:#000000;stroke-width:2.0px;stroke-linecap:butt;stroke-linejoin:miter;stroke-opacity:1"/>
<path class="bond-7" d="M 1174.84,276.762 L 1180.98,181.653" style="fill:none;fill-rule:evenodd;stroke:#000000;stroke-width:2.0px;stroke-linecap:butt;stroke-linejoin:miter;stroke-opacity:1;stroke-dasharray:6,6"/>
<path class="bond-21" d="M 1146.35,295.39 L 1259.64,370.915" style="fill:none;fill-rule:evenodd;stroke:#000000;stroke-width:2.0px;stroke-linecap:butt;stroke-linejoin:miter;stroke-opacity:1"/>
<path class="bond-21" d="M 1178.45,284.062 L 1257.75,336.929" style="fill:none;fill-rule:evenodd;stroke:#000000;stroke-width:2.0px;stroke-linecap:butt;stroke-linejoin:miter;stroke-opacity:1;stroke-dasharray:6,6"/>
<path class="bond-8" d="M 1155.12,159.519 L 1277.17,99.1736" style="fill:none;fill-rule:evenodd;stroke:#000000;stroke-width:2.0px;stroke-linecap:butt;stroke-linejoin:miter;stroke-opacity:1"/>
<path class="bond-8" d="M 1185.49,174.877 L 1270.93,132.635" style="fill:none;fill-rule:evenodd;stroke:#000000;stroke-width:2.0px;stroke-linecap:butt;stroke-linejoin:miter;stroke-opacity:1;stroke-dasharray:6,6"/>
<path class="bond-9" d="M 1277.17,99.1736 L 1390.45,174.699" style="fill:none;fill-rule:evenodd;stroke:#000000;stroke-width:2.0px;stroke-linecap:butt;stroke-linejoin:miter;stroke-opacity:1"/>
<path class="bond-9" d="M 1279.05,133.16 L 1358.35,186.027" style="fill:none;fill-rule:evenodd;stroke:#000000;stroke-width:2.0px;stroke-linecap:butt;stroke-linejoin:miter;stroke-opacity:1;stroke-dasharray:6,6"/>
<path class="bond-10" d="M 1390.45,174.699 L 1443.27,148.581" style="fill:none;fill-rule:evenodd;stroke:#000000;stroke-width:2.0px;stroke-linecap:butt;stroke-linejoin:miter;stroke-opacity:1"/>
<path class="bond-10" d="M 1443.27,148.581 L 1496.1,122.464" style="fill:none;fill-rule:evenodd;stroke:#FF0000;stroke-width:2.0px;stroke-linecap:butt;stroke-linejoin:miter;stroke-opacity:1"/>
<path class="bond-19" d="M 1390.45,174.699 L 1381.69,310.57" style="fill:none;fill-rule:evenodd;stroke:#000000;stroke-width:2.0px;stroke-linecap:butt;stroke-linejoin:miter;stroke-opacity:1"/>
<path class="bond-19" d="M 1361.96,193.327 L 1355.83,288.436" style="fill:none;fill-rule:evenodd;stroke:#000000;stroke-width:2.0px;stroke-linecap:butt;stroke-linejoin:miter;stroke-opacity:1;stroke-dasharray:6,6"/>
<path class="bond-11" d="M 1528.9,125.289 L 1577.35,157.584" style="fill:none;fill-rule:evenodd;stroke:#FF0000;stroke-width:2.0px;stroke-linecap:butt;stroke-linejoin:miter;stroke-opacity:1"/>
<path class="bond-11" d="M 1577.35,157.584 L 1625.79,189.879" style="fill:none;fill-rule:evenodd;stroke:#000000;stroke-width:2.0px;stroke-linecap:butt;stroke-linejoin:miter;stroke-opacity:1"/>
<path class="bond-12" d="M 1625.79,189.879 L 1617.02,325.749" style="fill:none;fill-rule:evenodd;stroke:#000000;stroke-width:2.0px;stroke-linecap:butt;stroke-linejoin:miter;stroke-opacity:1"/>
<path class="bond-22" d="M 1625.79,189.879 L 1747.84,129.533" style="fill:none;fill-rule:evenodd;stroke:#000000;stroke-width:2.0px;stroke-linecap:butt;stroke-linejoin:miter;stroke-opacity:1"/>
<path class="bond-23" d="M 1625.79,189.879 L 1677.61,220.012" style="fill:none;fill-rule:evenodd;stroke:#000000;stroke-width:2.0px;stroke-linecap:butt;stroke-linejoin:miter;stroke-opacity:1"/>
<path class="bond-13" d="M 1617.02,325.749 L 1730.31,401.275" style="fill:none;fill-rule:evenodd;stroke:#000000;stroke-width:2.0px;stroke-linecap:butt;stroke-linejoin:miter;stroke-opacity:1"/>
<path class="bond-14" d="M 1730.31,401.275 L 1852.36,340.929" style="fill:none;fill-rule:evenodd;stroke:#000000;stroke-width:2.0px;stroke-linecap:butt;stroke-linejoin:miter;stroke-opacity:1"/>
<path class="bond-15" d="M 1852.36,340.929 L 1861.12,205.058" style="fill:none;fill-rule:evenodd;stroke:#000000;stroke-width:2.0px;stroke-linecap:butt;stroke-linejoin:miter;stroke-opacity:1"/>
<path class="bond-17" d="M 1852.36,340.929 L 1805.62,305.447" style="fill:none;fill-rule:evenodd;stroke:#000000;stroke-width:2.0px;stroke-linecap:butt;stroke-linejoin:miter;stroke-opacity:1"/>
<path class="bond-16" d="M 1861.12,205.058 L 1747.84,129.533" style="fill:none;fill-rule:evenodd;stroke:#000000;stroke-width:2.0px;stroke-linecap:butt;stroke-linejoin:miter;stroke-opacity:1"/>
<path class="bond-18" d="M 1778.83,286.406 L 1703.97,236.5" style="fill:none;fill-rule:evenodd;stroke:#000000;stroke-width:2.0px;stroke-linecap:butt;stroke-linejoin:miter;stroke-opacity:1"/>
<path class="bond-20" d="M 1381.69,310.57 L 1259.64,370.915" style="fill:none;fill-rule:evenodd;stroke:#000000;stroke-width:2.0px;stroke-linecap:butt;stroke-linejoin:miter;stroke-opacity:1"/>
<path class="bond-20" d="M 1351.31,295.212 L 1265.88,337.454" style="fill:none;fill-rule:evenodd;stroke:#000000;stroke-width:2.0px;stroke-linecap:butt;stroke-linejoin:miter;stroke-opacity:1;stroke-dasharray:6,6"/>
<path class="bond-24" d="M 2717.49,333.532 L 2840.14,274.416" style="fill:none;fill-rule:evenodd;stroke:#000000;stroke-width:2.0px;stroke-linecap:butt;stroke-linejoin:miter;stroke-opacity:1"/>
<path class="bond-25" d="M 2853.72,275.429 L 2858.1,216.623" style="fill:none;fill-rule:evenodd;stroke:#000000;stroke-width:2.0px;stroke-linecap:butt;stroke-linejoin:miter;stroke-opacity:1"/>
<path class="bond-25" d="M 2858.1,216.623 L 2862.49,157.817" style="fill:none;fill-rule:evenodd;stroke:#FF0000;stroke-width:2.0px;stroke-linecap:butt;stroke-linejoin:miter;stroke-opacity:1"/>
<path class="bond-25" d="M 2826.56,273.403 L 2830.95,214.597" style="fill:none;fill-rule:evenodd;stroke:#000000;stroke-width:2.0px;stroke-linecap:butt;stroke-linejoin:miter;stroke-opacity:1"/>
<path class="bond-25" d="M 2830.95,214.597 L 2835.34,155.791" style="fill:none;fill-rule:evenodd;stroke:#FF0000;stroke-width:2.0px;stroke-linecap:butt;stroke-linejoin:miter;stroke-opacity:1"/>
<path class="bond-26" d="M 2840.14,274.416 L 2889.33,307.928" style="fill:none;fill-rule:evenodd;stroke:#000000;stroke-width:2.0px;stroke-linecap:butt;stroke-linejoin:miter;stroke-opacity:1"/>
<path class="bond-26" d="M 2889.33,307.928 L 2938.52,341.44" style="fill:none;fill-rule:evenodd;stroke:#0000FF;stroke-width:2.0px;stroke-linecap:butt;stroke-linejoin:miter;stroke-opacity:1"/>
<path class="bond-27" d="M 2966.8,344.259 L 3021.06,318.109" style="fill:none;fill-rule:evenodd;stroke:#0000FF;stroke-width:2.0px;stroke-linecap:butt;stroke-linejoin:miter;stroke-opacity:1"/>
<path class="bond-27" d="M 3021.06,318.109 L 3075.31,291.96" style="fill:none;fill-rule:evenodd;stroke:#000000;stroke-width:2.0px;stroke-linecap:butt;stroke-linejoin:miter;stroke-opacity:1"/>
<path class="bond-28" d="M 3075.31,291.96 L 3085.44,156.184" style="fill:none;fill-rule:evenodd;stroke:#000000;stroke-width:2.0px;stroke-linecap:butt;stroke-linejoin:miter;stroke-opacity:1"/>
<path class="bond-28" d="M 3103.98,273.619 L 3111.07,178.576" style="fill:none;fill-rule:evenodd;stroke:#000000;stroke-width:2.0px;stroke-linecap:butt;stroke-linejoin:miter;stroke-opacity:1;stroke-dasharray:6,6"/>
<path class="bond-42" d="M 3075.31,291.96 L 3187.83,368.619" style="fill:none;fill-rule:evenodd;stroke:#000000;stroke-width:2.0px;stroke-linecap:butt;stroke-linejoin:miter;stroke-opacity:1"/>
<path class="bond-42" d="M 3107.52,280.954 L 3186.28,334.616" style="fill:none;fill-rule:evenodd;stroke:#000000;stroke-width:2.0px;stroke-linecap:butt;stroke-linejoin:miter;stroke-opacity:1;stroke-dasharray:6,6"/>
<path class="bond-29" d="M 3085.44,156.184 L 3208.09,97.0674" style="fill:none;fill-rule:evenodd;stroke:#000000;stroke-width:2.0px;stroke-linecap:butt;stroke-linejoin:miter;stroke-opacity:1"/>
<path class="bond-29" d="M 3115.66,171.846 L 3201.51,130.465" style="fill:none;fill-rule:evenodd;stroke:#000000;stroke-width:2.0px;stroke-linecap:butt;stroke-linejoin:miter;stroke-opacity:1;stroke-dasharray:6,6"/>
<path class="bond-30" d="M 3208.09,97.0674 L 3320.61,173.727" style="fill:none;fill-rule:evenodd;stroke:#000000;stroke-width:2.0px;stroke-linecap:butt;stroke-linejoin:miter;stroke-opacity:1"/>
<path class="bond-30" d="M 3209.63,131.071 L 3288.4,184.732" style="fill:none;fill-rule:evenodd;stroke:#000000;stroke-width:2.0px;stroke-linecap:butt;stroke-linejoin:miter;stroke-opacity:1;stroke-dasharray:6,6"/>
<path class="bond-31" d="M 3320.61,173.727 L 3373.73,148.122" style="fill:none;fill-rule:evenodd;stroke:#000000;stroke-width:2.0px;stroke-linecap:butt;stroke-linejoin:miter;stroke-opacity:1"/>
<path class="bond-31" d="M 3373.73,148.122 L 3426.86,122.517" style="fill:none;fill-rule:evenodd;stroke:#FF0000;stroke-width:2.0px;stroke-linecap:butt;stroke-linejoin:miter;stroke-opacity:1"/>
<path class="bond-40" d="M 3320.61,173.727 L 3310.48,309.503" style="fill:none;fill-rule:evenodd;stroke:#000000;stroke-width:2.0px;stroke-linecap:butt;stroke-linejoin:miter;stroke-opacity:1"/>
<path class="bond-40" d="M 3291.94,192.068 L 3284.84,287.111" style="fill:none;fill-rule:evenodd;stroke:#000000;stroke-width:2.0px;stroke-linecap:butt;stroke-linejoin:miter;stroke-opacity:1;stroke-dasharray:6,6"/>
<path class="bond-32" d="M 3459.66,125.787 L 3507.72,158.529" style="fill:none;fill-rule:evenodd;stroke:#FF0000;stroke-width:2.0px;stroke-linecap:butt;stroke-linejoin:miter;stroke-opacity:1"/>
<path class="bond-32" d="M 3507.72,158.529 L 3555.78,191.271" style="fill:none;fill-rule:evenodd;stroke:#000000;stroke-width:2.0px;stroke-linecap:butt;stroke-linejoin:miter;stroke-opacity:1"/>
<path class="bond-33" d="M 3555.78,191.271 L 3545.65,327.047" style="fill:none;fill-rule:evenodd;stroke:#000000;stroke-width:2.0px;stroke-linecap:butt;stroke-linejoin:miter;stroke-opacity:1"/>
<path class="bond-43" d="M 3555.78,191.271 L 3678.43,132.154" style="fill:none;fill-rule:evenodd;stroke:#000000;stroke-width:2.0px;stroke-linecap:butt;stroke-linejoin:miter;stroke-opacity:1"/>
<path class="bond-44" d="M 3555.78,191.271 L 3607.22,221.878" style="fill:none;fill-rule:evenodd;stroke:#000000;stroke-width:2.0px;stroke-linecap:butt;stroke-linejoin:miter;stroke-opacity:1"/>
<path class="bond-34" d="M 3545.65,327.047 L 3658.17,403.706" style="fill:none;fill-rule:evenodd;stroke:#000000;stroke-width:2.0px;stroke-linecap:butt;stroke-linejoin:miter;stroke-opacity:1"/>
<path class="bond-35" d="M 3658.17,403.706 L 3780.82,344.59" style="fill:none;fill-rule:evenodd;stroke:#000000;stroke-width:2.0px;stroke-linecap:butt;stroke-linejoin:miter;stroke-opacity:1"/>
<path class="bond-36" d="M 3780.82,344.59 L 3790.95,208.814" style="fill:none;fill-rule:evenodd;stroke:#000000;stroke-width:2.0px;stroke-linecap:butt;stroke-linejoin:miter;stroke-opacity:1"/>
<path class="bond-38" d="M 3780.82,344.59 L 3734.54,308.716" style="fill:none;fill-rule:evenodd;stroke:#000000;stroke-width:2.0px;stroke-linecap:butt;stroke-linejoin:miter;stroke-opacity:1"/>
<path class="bond-37" d="M 3790.95,208.814 L 3678.43,132.154" style="fill:none;fill-rule:evenodd;stroke:#000000;stroke-width:2.0px;stroke-linecap:butt;stroke-linejoin:miter;stroke-opacity:1"/>
<path class="bond-39" d="M 3707.75,289.267 L 3633.58,238.736" style="fill:none;fill-rule:evenodd;stroke:#000000;stroke-width:2.0px;stroke-linecap:butt;stroke-linejoin:miter;stroke-opacity:1"/>
<path class="bond-41" d="M 3310.48,309.503 L 3187.83,368.619" style="fill:none;fill-rule:evenodd;stroke:#000000;stroke-width:2.0px;stroke-linecap:butt;stroke-linejoin:miter;stroke-opacity:1"/>
<path class="bond-41" d="M 3280.26,293.841 L 3194.41,335.222" style="fill:none;fill-rule:evenodd;stroke:#000000;stroke-width:2.0px;stroke-linecap:butt;stroke-linejoin:miter;stroke-opacity:1;stroke-dasharray:6,6"/>
<path class="bond-45" d="M 2249.65,154.915 L 2213.64,105.348" style="fill:none;fill-rule:evenodd;stroke:#000000;stroke-width:2.0px;stroke-linecap:butt;stroke-linejoin:miter;stroke-opacity:1"/>
<path class="bond-49" d="M 2249.65,154.915 L 2213.64,204.483" style="fill:none;fill-rule:evenodd;stroke:#000000;stroke-width:2.0px;stroke-linecap:butt;stroke-linejoin:miter;stroke-opacity:1"/>
<path class="bond-46" d="M 2213.64,105.348 L 2155.37,124.281" style="fill:none;fill-rule:evenodd;stroke:#000000;stroke-width:2.0px;stroke-linecap:butt;stroke-linejoin:miter;stroke-opacity:1"/>
<path class="bond-47" d="M 2155.37,124.281 L 2155.37,146.99" style="fill:none;fill-rule:evenodd;stroke:#000000;stroke-width:2.0px;stroke-linecap:butt;stroke-linejoin:miter;stroke-opacity:1"/>
<path class="bond-47" d="M 2155.37,146.99 L 2155.37,169.698" style="fill:none;fill-rule:evenodd;stroke:#FF0000;stroke-width:2.0px;stroke-linecap:butt;stroke-linejoin:miter;stroke-opacity:1"/>
<path class="bond-48" d="M 2169.9,190.271 L 2191.77,197.377" style="fill:none;fill-rule:evenodd;stroke:#FF0000;stroke-width:2.0px;stroke-linecap:butt;stroke-linejoin:miter;stroke-opacity:1"/>
<path class="bond-48" d="M 2191.77,197.377 L 2213.64,204.483" style="fill:none;fill-rule:evenodd;stroke:#000000;stroke-width:2.0px;stroke-linecap:butt;stroke-linejoin:miter;stroke-opacity:1"/>
<path class="atom-2" d="M 286.73 376.256 Q 286.73 369.456, 290.09 365.656 Q 293.45 361.856, 299.73 361.856 Q 306.01 361.856, 309.37 365.656 Q 312.73 369.456, 312.73 376.256 Q 312.73 383.136, 309.33 387.056 Q 305.93 390.936, 299.73 390.936 Q 293.49 390.936, 290.09 387.056 Q 286.73 383.176, 286.73 376.256 M 299.73 387.736 Q 304.05 387.736, 306.37 384.856 Q 308.73 381.936, 308.73 376.256 Q 308.73 370.696, 306.37 367.896 Q 304.05 365.056, 299.73 365.056 Q 295.41 365.056, 293.05 367.856 Q 290.73 370.656, 290.73 376.256 Q 290.73 381.976, 293.05 384.856 Q 295.41 387.736, 299.73 387.736 " fill="#FF0000"/>
<path class="atom-3" d="M 404.642 172.026 Q 404.642 165.226, 408.002 161.426 Q 411.362 157.626, 417.642 157.626 Q 423.922 157.626, 427.282 161.426 Q 430.642 165.226, 430.642 172.026 Q 430.642 178.906, 427.242 182.826 Q 423.842 186.706, 417.642 186.706 Q 411.402 186.706, 408.002 182.826 Q 404.642 178.946, 404.642 172.026 M 417.642 183.506 Q 421.962 183.506, 424.282 180.626 Q 426.642 177.706, 426.642 172.026 Q 426.642 166.466, 424.282 163.666 Q 421.962 160.826, 417.642 160.826 Q 413.322 160.826, 410.962 163.626 Q 408.642 166.426, 408.642 172.026 Q 408.642 177.746, 410.962 180.626 Q 413.322 183.506, 417.642 183.506 " fill="#FF0000"/>
<path class="atom-6" d="M 522.555 376.256 Q 522.555 369.456, 525.915 365.656 Q 529.275 361.856, 535.555 361.856 Q 541.835 361.856, 545.195 365.656 Q 548.555 369.456, 548.555 376.256 Q 548.555 383.136, 545.155 387.056 Q 541.755 390.936, 535.555 390.936 Q 529.315 390.936, 525.915 387.056 Q 522.555 383.176, 522.555 376.256 M 535.555 387.736 Q 539.875 387.736, 542.195 384.856 Q 544.555 381.936, 544.555 376.256 Q 544.555 370.696, 542.195 367.896 Q 539.875 365.056, 535.555 365.056 Q 531.235 365.056, 528.875 367.856 Q 526.555 370.656, 526.555 376.256 Q 526.555 381.976, 528.875 384.856 Q 531.235 387.736, 535.555 387.736 " fill="#FF0000"/>
<path class="atom-7" d="M 974.169 341.576 L 978.009 341.576 L 978.009 353.616 L 992.489 353.616 L 992.489 341.576 L 996.329 341.576 L 996.329 369.896 L 992.489 369.896 L 992.489 356.816 L 978.009 356.816 L 978.009 369.896 L 974.169 369.896 L 974.169 341.576 " fill="#0000FF"/>
<path class="atom-7" d="M 997.702 368.902 Q 998.388 367.133, 1000.03 366.156 Q 1001.66 365.153, 1003.93 365.153 Q 1006.76 365.153, 1008.34 366.684 Q 1009.93 368.216, 1009.93 370.935 Q 1009.93 373.707, 1007.87 376.294 Q 1005.83 378.881, 1001.61 381.944 L 1010.24 381.944 L 1010.24 384.056 L 997.649 384.056 L 997.649 382.287 Q 1001.13 379.805, 1003.19 377.957 Q 1005.28 376.109, 1006.28 374.446 Q 1007.29 372.783, 1007.29 371.067 Q 1007.29 369.272, 1006.39 368.268 Q 1005.49 367.265, 1003.93 367.265 Q 1002.43 367.265, 1001.42 367.872 Q 1000.42 368.48, 999.708 369.826 L 997.702 368.902 " fill="#0000FF"/>
<path class="atom-7" d="M 1018.04 341.576 L 1027.32 356.576 Q 1028.24 358.056, 1029.72 360.736 Q 1031.2 363.416, 1031.28 363.576 L 1031.28 341.576 L 1035.04 341.576 L 1035.04 369.896 L 1031.16 369.896 L 1021.2 353.496 Q 1020.04 351.576, 1018.8 349.376 Q 1017.6 347.176, 1017.24 346.496 L 1017.24 369.896 L 1013.56 369.896 L 1013.56 341.576 L 1018.04 341.576 " fill="#0000FF"/>
<path class="atom-12" d="M 1499.5 114.433 Q 1499.5 107.633, 1502.86 103.833 Q 1506.22 100.033, 1512.5 100.033 Q 1518.78 100.033, 1522.14 103.833 Q 1525.5 107.633, 1525.5 114.433 Q 1525.5 121.313, 1522.1 125.233 Q 1518.7 129.113, 1512.5 129.113 Q 1506.26 129.113, 1502.86 125.233 Q 1499.5 121.353, 1499.5 114.433 M 1512.5 125.913 Q 1516.82 125.913, 1519.14 123.033 Q 1521.5 120.113, 1521.5 114.433 Q 1521.5 108.873, 1519.14 106.073 Q 1516.82 103.233, 1512.5 103.233 Q 1508.18 103.233, 1505.82 106.033 Q 1503.5 108.833, 1503.5 114.433 Q 1503.5 120.153, 1505.82 123.033 Q 1508.18 125.913, 1512.5 125.913 " fill="#FF0000"/>
<path class="atom-19" d="M 1781.91 295.858 Q 1781.91 288.818, 1785.19 285.138 Q 1788.51 281.418, 1794.79 281.418 Q 1800.63 281.418, 1803.75 285.538 L 1801.11 287.698 Q 1798.83 284.698, 1794.79 284.698 Q 1790.51 284.698, 1788.23 287.578 Q 1785.99 290.418, 1785.99 295.858 Q 1785.99 301.458, 1788.31 304.338 Q 1790.67 307.218, 1795.23 307.218 Q 1798.35 307.218, 1801.99 305.338 L 1803.11 308.338 Q 1801.63 309.298, 1799.39 309.858 Q 1797.15 310.418, 1794.67 310.418 Q 1788.51 310.418, 1785.19 306.658 Q 1781.91 302.898, 1781.91 295.858 " fill="#000000"/>
<path class="atom-20" d="M 1679.48 227.568 Q 1679.48 220.528, 1682.76 216.848 Q 1686.08 213.128, 1692.36 213.128 Q 1698.2 213.128, 1701.32 217.248 L 1698.68 219.408 Q 1696.4 216.408, 1692.36 216.408 Q 1688.08 216.408, 1685.8 219.288 Q 1683.56 222.128, 1683.56 227.568 Q 1683.56 233.168, 1685.88 236.048 Q 1688.24 238.928, 1692.8 238.928 Q 1695.92 238.928, 1699.56 237.048 L 1700.68 240.048 Q 1699.2 241.008, 1696.96 241.568 Q 1694.72 242.128, 1692.24 242.128 Q 1686.08 242.128, 1682.76 238.368 Q 1679.48 234.608, 1679.48 227.568 " fill="#000000"/>
<path class="atom-25" d="M 2837.27 138.72 Q 2837.27 131.92, 2840.63 128.12 Q 2843.99 124.32, 2850.27 124.32 Q 2856.55 124.32, 2859.91 128.12 Q 2863.27 131.92, 2863.27 138.72 Q 2863.27 145.6, 2859.87 149.52 Q 2856.47 153.4, 2850.27 153.4 Q 2844.03 153.4, 2840.63 149.52 Q 2837.27 145.64, 2837.27 138.72 M 2850.27 150.2 Q 2854.59 150.2, 2856.91 147.32 Q 2859.27 144.4, 2859.27 138.72 Q 2859.27 133.16, 2856.91 130.36 Q 2854.59 127.52, 2850.27 127.52 Q 2845.95 127.52, 2843.59 130.32 Q 2841.27 133.12, 2841.27 138.72 Q 2841.27 144.44, 2843.59 147.32 Q 2845.95 150.2, 2850.27 150.2 " fill="#FF0000"/>
<path class="atom-26" d="M 2946.4 336.916 L 2955.68 351.916 Q 2956.6 353.396, 2958.08 356.076 Q 2959.56 358.756, 2959.64 358.916 L 2959.64 336.916 L 2963.4 336.916 L 2963.4 365.236 L 2959.52 365.236 L 2949.56 348.836 Q 2948.4 346.916, 2947.16 344.716 Q 2945.96 342.516, 2945.6 341.836 L 2945.6 365.236 L 2941.92 365.236 L 2941.92 336.916 L 2946.4 336.916 " fill="#0000FF"/>
<path class="atom-26" d="M 2941.58 368.068 L 2945.42 368.068 L 2945.42 380.108 L 2959.9 380.108 L 2959.9 368.068 L 2963.74 368.068 L 2963.74 396.388 L 2959.9 396.388 L 2959.9 383.308 L 2945.42 383.308 L 2945.42 396.388 L 2941.58 396.388 L 2941.58 368.068 " fill="#0000FF"/>
<path class="atom-31" d="M 3430.26 114.691 Q 3430.26 107.891, 3433.62 104.091 Q 3436.98 100.291, 3443.26 100.291 Q 3449.54 100.291, 3452.9 104.091 Q 3456.26 107.891, 3456.26 114.691 Q 3456.26 121.571, 3452.86 125.491 Q 3449.46 129.371, 3443.26 129.371 Q 3437.02 129.371, 3433.62 125.491 Q 3430.26 121.611, 3430.26 114.691 M 3443.26 126.171 Q 3447.58 126.171, 3449.9 123.291 Q 3452.26 120.371, 3452.26 114.691 Q 3452.26 109.131, 3449.9 106.331 Q 3447.58 103.491, 3443.26 103.491 Q 3438.94 103.491, 3436.58 106.291 Q 3434.26 109.091, 3434.26 114.691 Q 3434.26 120.411, 3436.58 123.291 Q 3438.94 126.171, 3443.26 126.171 " fill="#FF0000"/>
<path class="atom-38" d="M 3710.83 298.923 Q 3710.83 291.883, 3714.11 288.203 Q 3717.43 284.483, 3723.71 284.483 Q 3729.55 284.483, 3732.67 288.603 L 3730.03 290.763 Q 3727.75 287.763, 3723.71 287.763 Q 3719.43 287.763, 3717.15 290.643 Q 3714.91 293.483, 3714.91 298.923 Q 3714.91 304.523, 3717.23 307.403 Q 3719.59 310.283, 3724.15 310.283 Q 3727.27 310.283, 3730.91 308.403 L 3732.03 311.403 Q 3730.55 312.363, 3728.31 312.923 Q 3726.07 313.483, 3723.59 313.483 Q 3717.43 313.483, 3714.11 309.723 Q 3710.83 305.963, 3710.83 298.923 " fill="#000000"/>
<path class="atom-39" d="M 3609.09 229.608 Q 3609.09 222.568, 3612.37 218.888 Q 3615.69 215.168, 3621.97 215.168 Q 3627.81 215.168, 3630.93 219.288 L 3628.29 221.448 Q 3626.01 218.448, 3621.97 218.448 Q 3617.69 218.448, 3615.41 221.328 Q 3613.17 224.168, 3613.17 229.608 Q 3613.17 235.208, 3615.49 238.088 Q 3617.85 240.968, 3622.41 240.968 Q 3625.53 240.968, 3629.17 239.088 L 3630.29 242.088 Q 3628.81 243.048, 3626.57 243.608 Q 3624.33 244.168, 3621.85 244.168 Q 3615.69 244.168, 3612.37 240.408 Q 3609.09 236.648, 3609.09 229.608 " fill="#000000"/>
<path class="atom-45" d="M 2142.37 185.63 Q 2142.37 178.83, 2145.73 175.03 Q 2149.09 171.23, 2155.37 171.23 Q 2161.65 171.23, 2165.01 175.03 Q 2168.37 178.83, 2168.37 185.63 Q 2168.37 192.51, 2164.97 196.43 Q 2161.57 200.31, 2155.37 200.31 Q 2149.13 200.31, 2145.73 196.43 Q 2142.37 192.55, 2142.37 185.63 M 2155.37 197.11 Q 2159.69 197.11, 2162.01 194.23 Q 2164.37 191.31, 2164.37 185.63 Q 2164.37 180.07, 2162.01 177.27 Q 2159.69 174.43, 2155.37 174.43 Q 2151.05 174.43, 2148.69 177.23 Q 2146.37 180.03, 2146.37 185.63 Q 2146.37 191.35, 2148.69 194.23 Q 2151.05 197.11, 2155.37 197.11 " fill="#FF0000"/>
<path class="atom-47" d="M 2329.46 140.915 L 2333.3 140.915 L 2333.3 152.955 L 2347.78 152.955 L 2347.78 140.915 L 2351.62 140.915 L 2351.62 169.235 L 2347.78 169.235 L 2347.78 156.155 L 2333.3 156.155 L 2333.3 169.235 L 2329.46 169.235 L 2329.46 140.915 " fill="#FF0000"/>
<path class="atom-47" d="M 2352.99 168.242 Q 2353.68 166.473, 2355.32 165.496 Q 2356.95 164.493, 2359.22 164.493 Q 2362.05 164.493, 2363.63 166.024 Q 2365.22 167.555, 2365.22 170.275 Q 2365.22 173.047, 2363.16 175.634 Q 2361.12 178.221, 2356.9 181.283 L 2365.53 181.283 L 2365.53 183.395 L 2352.94 183.395 L 2352.94 181.627 Q 2356.43 179.145, 2358.48 177.297 Q 2360.57 175.449, 2361.57 173.786 Q 2362.58 172.123, 2362.58 170.407 Q 2362.58 168.611, 2361.68 167.608 Q 2360.78 166.605, 2359.22 166.605 Q 2357.72 166.605, 2356.72 167.212 Q 2355.71 167.819, 2355 169.166 L 2352.99 168.242 " fill="#FF0000"/>
<path class="atom-47" d="M 2367.53 154.995 Q 2367.53 148.195, 2370.89 144.395 Q 2374.25 140.595, 2380.53 140.595 Q 2386.81 140.595, 2390.17 144.395 Q 2393.53 148.195, 2393.53 154.995 Q 2393.53 161.875, 2390.13 165.795 Q 2386.73 169.675, 2380.53 169.675 Q 2374.29 169.675, 2370.89 165.795 Q 2367.53 161.915, 2367.53 154.995 M 2380.53 166.475 Q 2384.85 166.475, 2387.17 163.595 Q 2389.53 160.675, 2389.53 154.995 Q 2389.53 149.435, 2387.17 146.635 Q 2384.85 143.795, 2380.53 143.795 Q 2376.21 143.795, 2373.85 146.595 Q 2371.53 149.395, 2371.53 154.995 Q 2371.53 160.715, 2373.85 163.595 Q 2376.21 166.475, 2380.53 166.475 " fill="#FF0000"/>
<path class="note" d="M 530.825 213.01 Q 531.345 211.67, 532.585 210.93 Q 533.825 210.17, 535.545 210.17 Q 537.685 210.17, 538.885 211.33 Q 540.085 212.49, 540.085 214.55 Q 540.085 216.65, 538.525 218.61 Q 536.985 220.57, 533.785 222.89 L 540.325 222.89 L 540.325 224.49 L 530.785 224.49 L 530.785 223.15 Q 533.425 221.27, 534.985 219.87 Q 536.565 218.47, 537.325 217.21 Q 538.085 215.95, 538.085 214.65 Q 538.085 213.29, 537.405 212.53 Q 536.725 211.77, 535.545 211.77 Q 534.405 211.77, 533.645 212.23 Q 532.885 212.69, 532.345 213.71 L 530.825 213.01 " fill="#000000"/>
<path class="note" d="M 638.631 157.814 L 641.731 157.814 L 641.731 147.234 L 638.311 148.294 L 637.851 147.114 L 642.191 145.174 L 643.611 145.414 L 643.611 157.814 L 646.391 157.814 L 646.391 159.414 L 638.631 159.414 L 638.631 157.814 " fill="#000000"/>
<path class="note" d="M 537.595 421.26 Q 538.975 421.66, 539.635 422.56 Q 540.315 423.44, 540.315 424.84 Q 540.315 426.04, 539.715 426.98 Q 539.115 427.9, 538.015 428.42 Q 536.915 428.92, 535.475 428.92 Q 533.955 428.92, 532.815 428.4 Q 531.695 427.86, 530.795 426.78 L 531.935 425.62 Q 532.815 426.58, 533.555 426.96 Q 534.295 427.32, 535.475 427.32 Q 536.755 427.32, 537.535 426.64 Q 538.315 425.94, 538.315 424.82 Q 538.315 423.38, 537.495 422.74 Q 536.695 422.08, 534.955 422.08 L 533.935 422.08 L 533.935 420.64 L 534.835 420.64 Q 536.375 420.62, 537.195 419.96 Q 538.015 419.28, 538.015 418.02 Q 538.015 417.1, 537.335 416.56 Q 536.655 416, 535.495 416 Q 534.315 416, 533.575 416.42 Q 532.855 416.84, 532.295 417.9 L 530.915 417.16 Q 531.415 415.98, 532.615 415.2 Q 533.815 414.4, 535.495 414.4 Q 537.575 414.4, 538.795 415.38 Q 540.015 416.36, 540.015 418.02 Q 540.015 419.16, 539.395 419.98 Q 538.775 420.8, 537.595 421.26 " fill="#000000"/>
<path class="note" d="M 1025.13 403.246 L 1026.83 403.246 L 1026.83 404.846 L 1025.13 404.846 L 1025.13 408.106 L 1023.25 408.106 L 1023.25 404.846 L 1015.93 404.846 L 1015.93 403.586 L 1022.13 393.946 L 1025.13 393.946 L 1025.13 403.246 M 1018.25 403.246 L 1023.25 403.246 L 1023.25 395.226 L 1018.25 403.246 " fill="#000000"/>
<path class="note" d="M 1127.82 281.023 Q 1129.06 281.023, 1130.08 281.563 Q 1131.1 282.083, 1131.68 283.083 Q 1132.26 284.063, 1132.26 285.403 Q 1132.26 286.863, 1131.54 287.923 Q 1130.84 288.963, 1129.68 289.503 Q 1128.52 290.043, 1127.2 290.043 Q 1125.9 290.043, 1124.7 289.563 Q 1123.5 289.083, 1122.68 288.163 L 1123.88 286.923 Q 1124.54 287.643, 1125.44 288.043 Q 1126.34 288.423, 1127.26 288.423 Q 1128.52 288.423, 1129.38 287.643 Q 1130.26 286.863, 1130.26 285.443 Q 1130.26 283.943, 1129.38 283.243 Q 1128.52 282.523, 1127.14 282.523 Q 1125.9 282.523, 1124.52 283.063 L 1123.42 282.543 L 1124.1 275.723 L 1131.38 275.723 L 1131.18 277.323 L 1125.74 277.323 L 1125.32 281.523 Q 1126.58 281.023, 1127.82 281.023 " fill="#000000"/>
<path class="note" d="M 1136.86 145.252 Q 1138.1 145.252, 1139.08 145.792 Q 1140.06 146.332, 1140.6 147.312 Q 1141.14 148.292, 1141.14 149.532 Q 1141.14 150.912, 1140.52 151.992 Q 1139.92 153.052, 1138.84 153.652 Q 1137.76 154.252, 1136.38 154.252 Q 1133.86 154.252, 1132.58 152.552 Q 1131.32 150.832, 1131.32 147.432 Q 1131.32 143.672, 1132.88 141.732 Q 1134.46 139.772, 1137.48 139.772 Q 1138.36 139.772, 1139.1 139.972 Q 1139.86 140.172, 1140.58 140.592 L 1139.8 141.932 Q 1138.76 141.372, 1137.5 141.372 Q 1135.5 141.372, 1134.48 142.672 Q 1133.46 143.952, 1133.34 146.612 Q 1134.06 145.952, 1134.96 145.612 Q 1135.88 145.252, 1136.86 145.252 M 1136.4 152.612 Q 1137.16 152.612, 1137.78 152.212 Q 1138.42 151.812, 1138.78 151.112 Q 1139.14 150.412, 1139.14 149.552 Q 1139.14 148.292, 1138.44 147.572 Q 1137.74 146.852, 1136.5 146.852 Q 1135.64 146.852, 1134.78 147.212 Q 1133.94 147.552, 1133.34 148.152 Q 1133.42 150.492, 1134.16 151.552 Q 1134.9 152.612, 1136.4 152.612 " fill="#000000"/>
<path class="note" d="M 1281.35 71.0485 L 1273.93 71.0485 L 1273.93 69.4485 L 1283.33 69.4485 L 1283.33 70.8685 L 1277.61 83.6085 L 1275.69 83.6085 L 1281.35 71.0485 " fill="#000000"/>
<path class="note" d="M 1394.13 151.714 Q 1395.43 152.274, 1396.17 153.114 Q 1396.91 153.934, 1396.91 155.334 Q 1396.91 156.534, 1396.29 157.474 Q 1395.67 158.394, 1394.55 158.914 Q 1393.45 159.414, 1391.99 159.414 Q 1389.63 159.414, 1388.27 158.334 Q 1386.91 157.234, 1386.91 155.334 Q 1386.91 154.174, 1387.51 153.314 Q 1388.11 152.434, 1389.35 151.774 Q 1388.43 151.254, 1387.93 150.494 Q 1387.43 149.714, 1387.43 148.514 Q 1387.43 146.854, 1388.63 145.874 Q 1389.85 144.894, 1391.91 144.894 Q 1393.97 144.894, 1395.17 145.874 Q 1396.39 146.854, 1396.39 148.514 Q 1396.39 149.554, 1395.81 150.334 Q 1395.25 151.094, 1394.13 151.714 M 1391.91 146.394 Q 1390.73 146.394, 1390.07 146.954 Q 1389.43 147.514, 1389.43 148.514 Q 1389.43 149.254, 1389.87 149.754 Q 1390.31 150.234, 1390.93 150.514 Q 1391.57 150.794, 1392.79 151.214 Q 1393.65 150.614, 1394.01 149.974 Q 1394.39 149.334, 1394.39 148.514 Q 1394.39 147.514, 1393.73 146.954 Q 1393.09 146.394, 1391.91 146.394 M 1391.99 157.914 Q 1393.31 157.914, 1394.11 157.214 Q 1394.91 156.494, 1394.91 155.314 Q 1394.91 154.554, 1394.49 154.074 Q 1394.07 153.594, 1393.43 153.314 Q 1392.81 153.034, 1391.69 152.674 L 1390.79 152.374 Q 1389.79 152.974, 1389.35 153.694 Q 1388.91 154.394, 1388.91 155.314 Q 1388.91 156.494, 1389.75 157.214 Q 1390.59 157.914, 1391.99 157.914 " fill="#000000"/>
<path class="note" d="M 1515.27 61.903 Q 1517.79 61.903, 1519.05 63.623 Q 1520.33 65.323, 1520.33 68.723 Q 1520.33 72.483, 1518.75 74.443 Q 1517.19 76.383, 1514.17 76.383 Q 1513.29 76.383, 1512.53 76.183 Q 1511.79 75.983, 1511.07 75.563 L 1511.85 74.223 Q 1512.89 74.783, 1514.15 74.783 Q 1516.15 74.783, 1517.17 73.503 Q 1518.19 72.203, 1518.31 69.543 Q 1517.59 70.203, 1516.67 70.563 Q 1515.77 70.903, 1514.79 70.903 Q 1513.55 70.903, 1512.57 70.363 Q 1511.59 69.823, 1511.05 68.843 Q 1510.51 67.863, 1510.51 66.623 Q 1510.51 65.243, 1511.11 64.183 Q 1511.73 63.103, 1512.81 62.503 Q 1513.89 61.903, 1515.27 61.903 M 1512.51 66.603 Q 1512.51 67.863, 1513.21 68.583 Q 1513.91 69.303, 1515.15 69.303 Q 1516.01 69.303, 1516.85 68.963 Q 1517.71 68.603, 1518.31 68.003 Q 1518.23 65.663, 1517.49 64.603 Q 1516.75 63.543, 1515.25 63.543 Q 1514.49 63.543, 1513.85 63.943 Q 1513.23 64.343, 1512.87 65.043 Q 1512.51 65.743, 1512.51 66.603 " fill="#000000"/>
<path class="note" d="M 1591.89 205.496 L 1594.99 205.496 L 1594.99 194.916 L 1591.57 195.976 L 1591.11 194.796 L 1595.45 192.856 L 1596.87 193.096 L 1596.87 205.496 L 1599.65 205.496 L 1599.65 207.096 L 1591.89 207.096 L 1591.89 205.496 " fill="#000000"/>
<path class="note" d="M 1606.05 207.256 Q 1603.45 207.256, 1602.15 205.336 Q 1600.87 203.416, 1600.87 199.996 Q 1600.87 196.576, 1602.15 194.676 Q 1603.43 192.776, 1606.05 192.776 Q 1608.67 192.776, 1609.95 194.676 Q 1611.23 196.576, 1611.23 199.996 Q 1611.23 203.416, 1609.93 205.336 Q 1608.65 207.256, 1606.05 207.256 M 1606.05 205.656 Q 1607.59 205.656, 1608.41 204.236 Q 1609.23 202.796, 1609.23 199.996 Q 1609.23 197.216, 1608.41 195.796 Q 1607.59 194.376, 1606.05 194.376 Q 1604.53 194.376, 1603.69 195.796 Q 1602.87 197.216, 1602.87 199.996 Q 1602.87 202.796, 1603.69 204.236 Q 1604.53 205.656, 1606.05 205.656 " fill="#000000"/>
<path class="note" d="M 1584.11 341.327 L 1587.21 341.327 L 1587.21 330.747 L 1583.79 331.807 L 1583.33 330.627 L 1587.67 328.687 L 1589.09 328.927 L 1589.09 341.327 L 1591.87 341.327 L 1591.87 342.927 L 1584.11 342.927 L 1584.11 341.327 " fill="#000000"/>
<path class="note" d="M 1593.73 341.327 L 1596.83 341.327 L 1596.83 330.747 L 1593.41 331.807 L 1592.95 330.627 L 1597.29 328.687 L 1598.71 328.927 L 1598.71 341.327 L 1601.49 341.327 L 1601.49 342.927 L 1593.73 342.927 L 1593.73 341.327 " fill="#000000"/>
<path class="note" d="M 1715.82 429.48 L 1718.92 429.48 L 1718.92 418.9 L 1715.5 419.96 L 1715.04 418.78 L 1719.38 416.84 L 1720.8 417.08 L 1720.8 429.48 L 1723.58 429.48 L 1723.58 431.08 L 1715.82 431.08 L 1715.82 429.48 " fill="#000000"/>
<path class="note" d="M 1724.62 419.6 Q 1725.14 418.26, 1726.38 417.52 Q 1727.62 416.76, 1729.34 416.76 Q 1731.48 416.76, 1732.68 417.92 Q 1733.88 419.08, 1733.88 421.14 Q 1733.88 423.24, 1732.32 425.2 Q 1730.78 427.16, 1727.58 429.48 L 1734.12 429.48 L 1734.12 431.08 L 1724.58 431.08 L 1724.58 429.74 Q 1727.22 427.86, 1728.78 426.46 Q 1730.36 425.06, 1731.12 423.8 Q 1731.88 422.54, 1731.88 421.24 Q 1731.88 419.88, 1731.2 419.12 Q 1730.52 418.36, 1729.34 418.36 Q 1728.2 418.36, 1727.44 418.82 Q 1726.68 419.28, 1726.14 420.3 L 1724.62 419.6 " fill="#000000"/>
<path class="note" d="M 1849.47 366.831 L 1852.57 366.831 L 1852.57 356.251 L 1849.15 357.311 L 1848.69 356.131 L 1853.03 354.191 L 1854.45 354.431 L 1854.45 366.831 L 1857.23 366.831 L 1857.23 368.431 L 1849.47 368.431 L 1849.47 366.831 " fill="#000000"/>
<path class="note" d="M 1864.87 360.971 Q 1866.25 361.371, 1866.91 362.271 Q 1867.59 363.151, 1867.59 364.551 Q 1867.59 365.751, 1866.99 366.691 Q 1866.39 367.611, 1865.29 368.131 Q 1864.19 368.631, 1862.75 368.631 Q 1861.23 368.631, 1860.09 368.111 Q 1858.97 367.571, 1858.07 366.491 L 1859.21 365.331 Q 1860.09 366.291, 1860.83 366.671 Q 1861.57 367.031, 1862.75 367.031 Q 1864.03 367.031, 1864.81 366.351 Q 1865.59 365.651, 1865.59 364.531 Q 1865.59 363.091, 1864.77 362.451 Q 1863.97 361.791, 1862.23 361.791 L 1861.21 361.791 L 1861.21 360.351 L 1862.11 360.351 Q 1863.65 360.331, 1864.47 359.671 Q 1865.29 358.991, 1865.29 357.731 Q 1865.29 356.811, 1864.61 356.271 Q 1863.93 355.711, 1862.77 355.711 Q 1861.59 355.711, 1860.85 356.131 Q 1860.13 356.551, 1859.57 357.611 L 1858.19 356.871 Q 1858.69 355.691, 1859.89 354.911 Q 1861.09 354.111, 1862.77 354.111 Q 1864.85 354.111, 1866.07 355.091 Q 1867.29 356.071, 1867.29 357.731 Q 1867.29 358.871, 1866.67 359.691 Q 1866.05 360.511, 1864.87 360.971 " fill="#000000"/>
<path class="note" d="M 1827.27 220.636 L 1830.37 220.636 L 1830.37 210.056 L 1826.95 211.116 L 1826.49 209.936 L 1830.83 207.996 L 1832.25 208.236 L 1832.25 220.636 L 1835.03 220.636 L 1835.03 222.236 L 1827.27 222.236 L 1827.27 220.636 " fill="#000000"/>
<path class="note" d="M 1844.83 217.376 L 1846.53 217.376 L 1846.53 218.976 L 1844.83 218.976 L 1844.83 222.236 L 1842.95 222.236 L 1842.95 218.976 L 1835.63 218.976 L 1835.63 217.716 L 1841.83 208.076 L 1844.83 208.076 L 1844.83 217.376 M 1837.95 217.376 L 1842.95 217.376 L 1842.95 209.356 L 1837.95 217.376 " fill="#000000"/>
<path class="note" d="M 1736.29 112.408 L 1739.39 112.408 L 1739.39 101.828 L 1735.97 102.888 L 1735.51 101.708 L 1739.85 99.7678 L 1741.27 100.008 L 1741.27 112.408 L 1744.05 112.408 L 1744.05 114.008 L 1736.29 114.008 L 1736.29 112.408 " fill="#000000"/>
<path class="note" d="M 1750.11 105.148 Q 1751.35 105.148, 1752.37 105.688 Q 1753.39 106.208, 1753.97 107.208 Q 1754.55 108.188, 1754.55 109.528 Q 1754.55 110.988, 1753.83 112.048 Q 1753.13 113.088, 1751.97 113.628 Q 1750.81 114.168, 1749.49 114.168 Q 1748.19 114.168, 1746.99 113.688 Q 1745.79 113.208, 1744.97 112.288 L 1746.17 111.048 Q 1746.83 111.768, 1747.73 112.168 Q 1748.63 112.548, 1749.55 112.548 Q 1750.81 112.548, 1751.67 111.768 Q 1752.55 110.988, 1752.55 109.568 Q 1752.55 108.068, 1751.67 107.368 Q 1750.81 106.648, 1749.43 106.648 Q 1748.19 106.648, 1746.81 107.188 L 1745.71 106.668 L 1746.39 99.8478 L 1753.67 99.8478 L 1753.47 101.448 L 1748.03 101.448 L 1747.61 105.648 Q 1748.87 105.148, 1750.11 105.148 " fill="#000000"/>
<path class="note" d="M 1805.8 264.326 L 1808.9 264.326 L 1808.9 253.746 L 1805.48 254.806 L 1805.02 253.626 L 1809.36 251.686 L 1810.78 251.926 L 1810.78 264.326 L 1813.56 264.326 L 1813.56 265.926 L 1805.8 265.926 L 1805.8 264.326 " fill="#000000"/>
<path class="note" d="M 1820.46 257.086 Q 1821.7 257.086, 1822.68 257.626 Q 1823.66 258.166, 1824.2 259.146 Q 1824.74 260.126, 1824.74 261.366 Q 1824.74 262.746, 1824.12 263.826 Q 1823.52 264.886, 1822.44 265.486 Q 1821.36 266.086, 1819.98 266.086 Q 1817.46 266.086, 1816.18 264.386 Q 1814.92 262.666, 1814.92 259.266 Q 1814.92 255.506, 1816.48 253.566 Q 1818.06 251.606, 1821.08 251.606 Q 1821.96 251.606, 1822.7 251.806 Q 1823.46 252.006, 1824.18 252.426 L 1823.4 253.766 Q 1822.36 253.206, 1821.1 253.206 Q 1819.1 253.206, 1818.08 254.506 Q 1817.06 255.786, 1816.94 258.446 Q 1817.66 257.786, 1818.56 257.446 Q 1819.48 257.086, 1820.46 257.086 M 1820 264.446 Q 1820.76 264.446, 1821.38 264.046 Q 1822.02 263.646, 1822.38 262.946 Q 1822.74 262.246, 1822.74 261.386 Q 1822.74 260.126, 1822.04 259.406 Q 1821.34 258.686, 1820.1 258.686 Q 1819.24 258.686, 1818.38 259.046 Q 1817.54 259.386, 1816.94 259.986 Q 1817.02 262.326, 1817.76 263.386 Q 1818.5 264.446, 1820 264.446 " fill="#000000"/>
<path class="note" d="M 1701.76 194.452 L 1704.86 194.452 L 1704.86 183.872 L 1701.44 184.932 L 1700.98 183.752 L 1705.32 181.812 L 1706.74 182.052 L 1706.74 194.452 L 1709.52 194.452 L 1709.52 196.052 L 1701.76 196.052 L 1701.76 194.452 " fill="#000000"/>
<path class="note" d="M 1717.3 183.492 L 1709.88 183.492 L 1709.88 181.892 L 1719.28 181.892 L 1719.28 183.312 L 1713.56 196.052 L 1711.64 196.052 L 1717.3 183.492 " fill="#000000"/>
<path class="note" d="M 1378.36 336.471 L 1381.46 336.471 L 1381.46 325.891 L 1378.04 326.951 L 1377.58 325.771 L 1381.92 323.831 L 1383.34 324.071 L 1383.34 336.471 L 1386.12 336.471 L 1386.12 338.071 L 1378.36 338.071 L 1378.36 336.471 " fill="#000000"/>
<path class="note" d="M 1394.58 330.571 Q 1395.88 331.131, 1396.62 331.971 Q 1397.36 332.791, 1397.36 334.191 Q 1397.36 335.391, 1396.74 336.331 Q 1396.12 337.251, 1395 337.771 Q 1393.9 338.271, 1392.44 338.271 Q 1390.08 338.271, 1388.72 337.191 Q 1387.36 336.091, 1387.36 334.191 Q 1387.36 333.031, 1387.96 332.171 Q 1388.56 331.291, 1389.8 330.631 Q 1388.88 330.111, 1388.38 329.351 Q 1387.88 328.571, 1387.88 327.371 Q 1387.88 325.711, 1389.08 324.731 Q 1390.3 323.751, 1392.36 323.751 Q 1394.42 323.751, 1395.62 324.731 Q 1396.84 325.711, 1396.84 327.371 Q 1396.84 328.411, 1396.26 329.191 Q 1395.7 329.951, 1394.58 330.571 M 1392.36 325.251 Q 1391.18 325.251, 1390.52 325.811 Q 1389.88 326.371, 1389.88 327.371 Q 1389.88 328.111, 1390.32 328.611 Q 1390.76 329.091, 1391.38 329.371 Q 1392.02 329.651, 1393.24 330.071 Q 1394.1 329.471, 1394.46 328.831 Q 1394.84 328.191, 1394.84 327.371 Q 1394.84 326.371, 1394.18 325.811 Q 1393.54 325.251, 1392.36 325.251 M 1392.44 336.771 Q 1393.76 336.771, 1394.56 336.071 Q 1395.36 335.351, 1395.36 334.171 Q 1395.36 333.411, 1394.94 332.931 Q 1394.52 332.451, 1393.88 332.171 Q 1393.26 331.891, 1392.14 331.531 L 1391.24 331.231 Q 1390.24 331.831, 1389.8 332.551 Q 1389.36 333.251, 1389.36 334.171 Q 1389.36 335.351, 1390.2 336.071 Q 1391.04 336.771, 1392.44 336.771 " fill="#000000"/>
<path class="note" d="M 1244.96 399.12 L 1248.06 399.12 L 1248.06 388.54 L 1244.64 389.6 L 1244.18 388.42 L 1248.52 386.48 L 1249.94 386.72 L 1249.94 399.12 L 1252.72 399.12 L 1252.72 400.72 L 1244.96 400.72 L 1244.96 399.12 " fill="#000000"/>
<path class="note" d="M 1258.58 386.4 Q 1261.1 386.4, 1262.36 388.12 Q 1263.64 389.82, 1263.64 393.22 Q 1263.64 396.98, 1262.06 398.94 Q 1260.5 400.88, 1257.48 400.88 Q 1256.6 400.88, 1255.84 400.68 Q 1255.1 400.48, 1254.38 400.06 L 1255.16 398.72 Q 1256.2 399.28, 1257.46 399.28 Q 1259.46 399.28, 1260.48 398 Q 1261.5 396.7, 1261.62 394.04 Q 1260.9 394.7, 1259.98 395.06 Q 1259.08 395.4, 1258.1 395.4 Q 1256.86 395.4, 1255.88 394.86 Q 1254.9 394.32, 1254.36 393.34 Q 1253.82 392.36, 1253.82 391.12 Q 1253.82 389.74, 1254.42 388.68 Q 1255.04 387.6, 1256.12 387 Q 1257.2 386.4, 1258.58 386.4 M 1255.82 391.1 Q 1255.82 392.36, 1256.52 393.08 Q 1257.22 393.8, 1258.46 393.8 Q 1259.32 393.8, 1260.16 393.46 Q 1261.02 393.1, 1261.62 392.5 Q 1261.54 390.16, 1260.8 389.1 Q 1260.06 388.04, 1258.56 388.04 Q 1257.8 388.04, 1257.16 388.44 Q 1256.54 388.84, 1256.18 389.54 Q 1255.82 390.24, 1255.82 391.1 " fill="#000000"/>
<path class="note" d="M 2723.85 359.494 L 2726.95 359.494 L 2726.95 348.914 L 2723.53 349.974 L 2723.07 348.794 L 2727.41 346.854 L 2728.83 347.094 L 2728.83 359.494 L 2731.61 359.494 L 2731.61 361.094 L 2723.85 361.094 L 2723.85 359.494 " fill="#000000"/>
<path class="note" d="M 2833.72 292.725 Q 2834.24 291.385, 2835.48 290.645 Q 2836.72 289.885, 2838.44 289.885 Q 2840.58 289.885, 2841.78 291.045 Q 2842.98 292.205, 2842.98 294.265 Q 2842.98 296.365, 2841.42 298.325 Q 2839.88 300.285, 2836.68 302.605 L 2843.22 302.605 L 2843.22 304.205 L 2833.68 304.205 L 2833.68 302.865 Q 2836.32 300.985, 2837.88 299.585 Q 2839.46 298.185, 2840.22 296.925 Q 2840.98 295.665, 2840.98 294.365 Q 2840.98 293.005, 2840.3 292.245 Q 2839.62 291.485, 2838.44 291.485 Q 2837.3 291.485, 2836.54 291.945 Q 2835.78 292.405, 2835.24 293.425 L 2833.72 292.725 " fill="#000000"/>
<path class="note" d="M 2855.68 93.0814 Q 2857.06 93.4814, 2857.72 94.3814 Q 2858.4 95.2614, 2858.4 96.6614 Q 2858.4 97.8614, 2857.8 98.8014 Q 2857.2 99.7214, 2856.1 100.241 Q 2855 100.741, 2853.56 100.741 Q 2852.04 100.741, 2850.9 100.221 Q 2849.78 99.6814, 2848.88 98.6014 L 2850.02 97.4414 Q 2850.9 98.4014, 2851.64 98.7814 Q 2852.38 99.1414, 2853.56 99.1414 Q 2854.84 99.1414, 2855.62 98.4614 Q 2856.4 97.7614, 2856.4 96.6414 Q 2856.4 95.2014, 2855.58 94.5614 Q 2854.78 93.9014, 2853.04 93.9014 L 2852.02 93.9014 L 2852.02 92.4614 L 2852.92 92.4614 Q 2854.46 92.4414, 2855.28 91.7814 Q 2856.1 91.1014, 2856.1 89.8414 Q 2856.1 88.9214, 2855.42 88.3814 Q 2854.74 87.8214, 2853.58 87.8214 Q 2852.4 87.8214, 2851.66 88.2414 Q 2850.94 88.6614, 2850.38 89.7214 L 2849 88.9814 Q 2849.5 87.8014, 2850.7 87.0214 Q 2851.9 86.2214, 2853.58 86.2214 Q 2855.66 86.2214, 2856.88 87.2014 Q 2858.1 88.1814, 2858.1 89.8414 Q 2858.1 90.9814, 2857.48 91.8014 Q 2856.86 92.6214, 2855.68 93.0814 " fill="#000000"/>
<path class="note" d="M 2993.92 378.849 L 2995.62 378.849 L 2995.62 380.449 L 2993.92 380.449 L 2993.92 383.709 L 2992.04 383.709 L 2992.04 380.449 L 2984.72 380.449 L 2984.72 379.189 L 2990.92 369.549 L 2993.92 369.549 L 2993.92 378.849 M 2987.04 378.849 L 2992.04 378.849 L 2992.04 370.829 L 2987.04 378.849 " fill="#000000"/>
<path class="note" d="M 3056.91 277.403 Q 3058.15 277.403, 3059.17 277.943 Q 3060.19 278.463, 3060.77 279.463 Q 3061.35 280.443, 3061.35 281.783 Q 3061.35 283.243, 3060.63 284.303 Q 3059.93 285.343, 3058.77 285.883 Q 3057.61 286.423, 3056.29 286.423 Q 3054.99 286.423, 3053.79 285.943 Q 3052.59 285.463, 3051.77 284.543 L 3052.97 283.303 Q 3053.63 284.023, 3054.53 284.423 Q 3055.43 284.803, 3056.35 284.803 Q 3057.61 284.803, 3058.47 284.023 Q 3059.35 283.243, 3059.35 281.823 Q 3059.35 280.323, 3058.47 279.623 Q 3057.61 278.903, 3056.23 278.903 Q 3054.99 278.903, 3053.61 279.443 L 3052.51 278.923 L 3053.19 272.103 L 3060.47 272.103 L 3060.27 273.703 L 3054.83 273.703 L 3054.41 277.903 Q 3055.67 277.403, 3056.91 277.403 " fill="#000000"/>
<path class="note" d="M 3067.32 141.727 Q 3068.56 141.727, 3069.54 142.267 Q 3070.52 142.807, 3071.06 143.787 Q 3071.6 144.767, 3071.6 146.007 Q 3071.6 147.387, 3070.98 148.467 Q 3070.38 149.527, 3069.3 150.127 Q 3068.22 150.727, 3066.84 150.727 Q 3064.32 150.727, 3063.04 149.027 Q 3061.78 147.307, 3061.78 143.907 Q 3061.78 140.147, 3063.34 138.207 Q 3064.92 136.247, 3067.94 136.247 Q 3068.82 136.247, 3069.56 136.447 Q 3070.32 136.647, 3071.04 137.067 L 3070.26 138.407 Q 3069.22 137.847, 3067.96 137.847 Q 3065.96 137.847, 3064.94 139.147 Q 3063.92 140.427, 3063.8 143.087 Q 3064.52 142.427, 3065.42 142.087 Q 3066.34 141.727, 3067.32 141.727 M 3066.86 149.087 Q 3067.62 149.087, 3068.24 148.687 Q 3068.88 148.287, 3069.24 147.587 Q 3069.6 146.887, 3069.6 146.027 Q 3069.6 144.767, 3068.9 144.047 Q 3068.2 143.327, 3066.96 143.327 Q 3066.1 143.327, 3065.24 143.687 Q 3064.4 144.027, 3063.8 144.627 Q 3063.88 146.967, 3064.62 148.027 Q 3065.36 149.087, 3066.86 149.087 " fill="#000000"/>
<path class="note" d="M 3212.5 68.9581 L 3205.08 68.9581 L 3205.08 67.3581 L 3214.48 67.3581 L 3214.48 68.7781 L 3208.76 81.5181 L 3206.84 81.5181 L 3212.5 68.9581 " fill="#000000"/>
<path class="note" d="M 3324.52 150.758 Q 3325.82 151.318, 3326.56 152.158 Q 3327.3 152.978, 3327.3 154.378 Q 3327.3 155.578, 3326.68 156.518 Q 3326.06 157.438, 3324.94 157.958 Q 3323.84 158.458, 3322.38 158.458 Q 3320.02 158.458, 3318.66 157.378 Q 3317.3 156.278, 3317.3 154.378 Q 3317.3 153.218, 3317.9 152.358 Q 3318.5 151.478, 3319.74 150.818 Q 3318.82 150.298, 3318.32 149.538 Q 3317.82 148.758, 3317.82 147.558 Q 3317.82 145.898, 3319.02 144.918 Q 3320.24 143.938, 3322.3 143.938 Q 3324.36 143.938, 3325.56 144.918 Q 3326.78 145.898, 3326.78 147.558 Q 3326.78 148.598, 3326.2 149.378 Q 3325.64 150.138, 3324.52 150.758 M 3322.3 145.438 Q 3321.12 145.438, 3320.46 145.998 Q 3319.82 146.558, 3319.82 147.558 Q 3319.82 148.298, 3320.26 148.798 Q 3320.7 149.278, 3321.32 149.558 Q 3321.96 149.838, 3323.18 150.258 Q 3324.04 149.658, 3324.4 149.018 Q 3324.78 148.378, 3324.78 147.558 Q 3324.78 146.558, 3324.12 145.998 Q 3323.48 145.438, 3322.3 145.438 M 3322.38 156.958 Q 3323.7 156.958, 3324.5 156.258 Q 3325.3 155.538, 3325.3 154.358 Q 3325.3 153.598, 3324.88 153.118 Q 3324.46 152.638, 3323.82 152.358 Q 3323.2 152.078, 3322.08 151.718 L 3321.18 151.418 Q 3320.18 152.018, 3319.74 152.738 Q 3319.3 153.438, 3319.3 154.358 Q 3319.3 155.538, 3320.14 156.258 Q 3320.98 156.958, 3322.38 156.958 " fill="#000000"/>
<path class="note" d="M 3446.49 62.1923 Q 3449.01 62.1923, 3450.27 63.9123 Q 3451.55 65.6123, 3451.55 69.0123 Q 3451.55 72.7723, 3449.97 74.7323 Q 3448.41 76.6723, 3445.39 76.6723 Q 3444.51 76.6723, 3443.75 76.4723 Q 3443.01 76.2723, 3442.29 75.8523 L 3443.07 74.5123 Q 3444.11 75.0723, 3445.37 75.0723 Q 3447.37 75.0723, 3448.39 73.7923 Q 3449.41 72.4923, 3449.53 69.8323 Q 3448.81 70.4923, 3447.89 70.8523 Q 3446.99 71.1923, 3446.01 71.1923 Q 3444.77 71.1923, 3443.79 70.6523 Q 3442.81 70.1123, 3442.27 69.1323 Q 3441.73 68.1523, 3441.73 66.9123 Q 3441.73 65.5323, 3442.33 64.4723 Q 3442.95 63.3923, 3444.03 62.7923 Q 3445.11 62.1923, 3446.49 62.1923 M 3443.73 66.8923 Q 3443.73 68.1523, 3444.43 68.8723 Q 3445.13 69.5923, 3446.37 69.5923 Q 3447.23 69.5923, 3448.07 69.2523 Q 3448.93 68.8923, 3449.53 68.2923 Q 3449.45 65.9523, 3448.71 64.8923 Q 3447.97 63.8323, 3446.47 63.8323 Q 3445.71 63.8323, 3445.07 64.2323 Q 3444.45 64.6323, 3444.09 65.3323 Q 3443.73 66.0323, 3443.73 66.8923 " fill="#000000"/>
<path class="note" d="M 3521.79 206.683 L 3524.89 206.683 L 3524.89 196.103 L 3521.47 197.163 L 3521.01 195.983 L 3525.35 194.043 L 3526.77 194.283 L 3526.77 206.683 L 3529.55 206.683 L 3529.55 208.283 L 3521.79 208.283 L 3521.79 206.683 " fill="#000000"/>
<path class="note" d="M 3535.95 208.443 Q 3533.35 208.443, 3532.05 206.523 Q 3530.77 204.603, 3530.77 201.183 Q 3530.77 197.763, 3532.05 195.863 Q 3533.33 193.963, 3535.95 193.963 Q 3538.57 193.963, 3539.85 195.863 Q 3541.13 197.763, 3541.13 201.183 Q 3541.13 204.603, 3539.83 206.523 Q 3538.55 208.443, 3535.95 208.443 M 3535.95 206.843 Q 3537.49 206.843, 3538.31 205.423 Q 3539.13 203.983, 3539.13 201.183 Q 3539.13 198.403, 3538.31 196.983 Q 3537.49 195.563, 3535.95 195.563 Q 3534.43 195.563, 3533.59 196.983 Q 3532.77 198.403, 3532.77 201.183 Q 3532.77 203.983, 3533.59 205.423 Q 3534.43 206.843, 3535.95 206.843 " fill="#000000"/>
<path class="note" d="M 3512.64 342.419 L 3515.74 342.419 L 3515.74 331.839 L 3512.32 332.899 L 3511.86 331.719 L 3516.2 329.779 L 3517.62 330.019 L 3517.62 342.419 L 3520.4 342.419 L 3520.4 344.019 L 3512.64 344.019 L 3512.64 342.419 " fill="#000000"/>
<path class="note" d="M 3522.26 342.419 L 3525.36 342.419 L 3525.36 331.839 L 3521.94 332.899 L 3521.48 331.719 L 3525.82 329.779 L 3527.24 330.019 L 3527.24 342.419 L 3530.02 342.419 L 3530.02 344.019 L 3522.26 344.019 L 3522.26 342.419 " fill="#000000"/>
<path class="note" d="M 3643.45 431.896 L 3646.55 431.896 L 3646.55 421.316 L 3643.13 422.376 L 3642.67 421.196 L 3647.01 419.256 L 3648.43 419.496 L 3648.43 431.896 L 3651.21 431.896 L 3651.21 433.496 L 3643.45 433.496 L 3643.45 431.896 " fill="#000000"/>
<path class="note" d="M 3652.25 422.016 Q 3652.77 420.676, 3654.01 419.936 Q 3655.25 419.176, 3656.97 419.176 Q 3659.11 419.176, 3660.31 420.336 Q 3661.51 421.496, 3661.51 423.556 Q 3661.51 425.656, 3659.95 427.616 Q 3658.41 429.576, 3655.21 431.896 L 3661.75 431.896 L 3661.75 433.496 L 3652.21 433.496 L 3652.21 432.156 Q 3654.85 430.276, 3656.41 428.876 Q 3657.99 427.476, 3658.75 426.216 Q 3659.51 424.956, 3659.51 423.656 Q 3659.51 422.296, 3658.83 421.536 Q 3658.15 420.776, 3656.97 420.776 Q 3655.83 420.776, 3655.07 421.236 Q 3654.31 421.696, 3653.77 422.716 L 3652.25 422.016 " fill="#000000"/>
<path class="note" d="M 3777.74 370.592 L 3780.84 370.592 L 3780.84 360.012 L 3777.42 361.072 L 3776.96 359.892 L 3781.3 357.952 L 3782.72 358.192 L 3782.72 370.592 L 3785.5 370.592 L 3785.5 372.192 L 3777.74 372.192 L 3777.74 370.592 " fill="#000000"/>
<path class="note" d="M 3793.14 364.732 Q 3794.52 365.132, 3795.18 366.032 Q 3795.86 366.912, 3795.86 368.312 Q 3795.86 369.512, 3795.26 370.452 Q 3794.66 371.372, 3793.56 371.892 Q 3792.46 372.392, 3791.02 372.392 Q 3789.5 372.392, 3788.36 371.872 Q 3787.24 371.332, 3786.34 370.252 L 3787.48 369.092 Q 3788.36 370.052, 3789.1 370.432 Q 3789.84 370.792, 3791.02 370.792 Q 3792.3 370.792, 3793.08 370.112 Q 3793.86 369.412, 3793.86 368.292 Q 3793.86 366.852, 3793.04 366.212 Q 3792.24 365.552, 3790.5 365.552 L 3789.48 365.552 L 3789.48 364.112 L 3790.38 364.112 Q 3791.92 364.092, 3792.74 363.432 Q 3793.56 362.752, 3793.56 361.492 Q 3793.56 360.572, 3792.88 360.032 Q 3792.2 359.472, 3791.04 359.472 Q 3789.86 359.472, 3789.12 359.892 Q 3788.4 360.312, 3787.84 361.372 L 3786.46 360.632 Q 3786.96 359.452, 3788.16 358.672 Q 3789.36 357.872, 3791.04 357.872 Q 3793.12 357.872, 3794.34 358.852 Q 3795.56 359.832, 3795.56 361.492 Q 3795.56 362.632, 3794.94 363.452 Q 3794.32 364.272, 3793.14 364.732 " fill="#000000"/>
<path class="note" d="M 3757 224.187 L 3760.1 224.187 L 3760.1 213.607 L 3756.68 214.667 L 3756.22 213.487 L 3760.56 211.547 L 3761.98 211.787 L 3761.98 224.187 L 3764.76 224.187 L 3764.76 225.787 L 3757 225.787 L 3757 224.187 " fill="#000000"/>
<path class="note" d="M 3774.56 220.927 L 3776.26 220.927 L 3776.26 222.527 L 3774.56 222.527 L 3774.56 225.787 L 3772.68 225.787 L 3772.68 222.527 L 3765.36 222.527 L 3765.36 221.267 L 3771.56 211.627 L 3774.56 211.627 L 3774.56 220.927 M 3767.68 220.927 L 3772.68 220.927 L 3772.68 212.907 L 3767.68 220.927 " fill="#000000"/>
<path class="note" d="M 3667.11 115.045 L 3670.21 115.045 L 3670.21 104.465 L 3666.79 105.525 L 3666.33 104.345 L 3670.67 102.405 L 3672.09 102.645 L 3672.09 115.045 L 3674.87 115.045 L 3674.87 116.645 L 3667.11 116.645 L 3667.11 115.045 " fill="#000000"/>
<path class="note" d="M 3680.93 107.785 Q 3682.17 107.785, 3683.19 108.325 Q 3684.21 108.845, 3684.79 109.845 Q 3685.37 110.825, 3685.37 112.165 Q 3685.37 113.625, 3684.65 114.685 Q 3683.95 115.725, 3682.79 116.265 Q 3681.63 116.805, 3680.31 116.805 Q 3679.01 116.805, 3677.81 116.325 Q 3676.61 115.845, 3675.79 114.925 L 3676.99 113.685 Q 3677.65 114.405, 3678.55 114.805 Q 3679.45 115.185, 3680.37 115.185 Q 3681.63 115.185, 3682.49 114.405 Q 3683.37 113.625, 3683.37 112.205 Q 3683.37 110.705, 3682.49 110.005 Q 3681.63 109.285, 3680.25 109.285 Q 3679.01 109.285, 3677.63 109.825 L 3676.53 109.305 L 3677.21 102.485 L 3684.49 102.485 L 3684.29 104.085 L 3678.85 104.085 L 3678.43 108.285 Q 3679.69 107.785, 3680.93 107.785 " fill="#000000"/>
<path class="note" d="M 3735.09 267.657 L 3738.19 267.657 L 3738.19 257.077 L 3734.77 258.137 L 3734.31 256.957 L 3738.65 255.017 L 3740.07 255.257 L 3740.07 267.657 L 3742.85 267.657 L 3742.85 269.257 L 3735.09 269.257 L 3735.09 267.657 " fill="#000000"/>
<path class="note" d="M 3749.75 260.417 Q 3750.99 260.417, 3751.97 260.957 Q 3752.95 261.497, 3753.49 262.477 Q 3754.03 263.457, 3754.03 264.697 Q 3754.03 266.077, 3753.41 267.157 Q 3752.81 268.217, 3751.73 268.817 Q 3750.65 269.417, 3749.27 269.417 Q 3746.75 269.417, 3745.47 267.717 Q 3744.21 265.997, 3744.21 262.597 Q 3744.21 258.837, 3745.77 256.897 Q 3747.35 254.937, 3750.37 254.937 Q 3751.25 254.937, 3751.99 255.137 Q 3752.75 255.337, 3753.47 255.757 L 3752.69 257.097 Q 3751.65 256.537, 3750.39 256.537 Q 3748.39 256.537, 3747.37 257.837 Q 3746.35 259.117, 3746.23 261.777 Q 3746.95 261.117, 3747.85 260.777 Q 3748.77 260.417, 3749.75 260.417 M 3749.29 267.777 Q 3750.05 267.777, 3750.67 267.377 Q 3751.31 266.977, 3751.67 266.277 Q 3752.03 265.577, 3752.03 264.717 Q 3752.03 263.457, 3751.33 262.737 Q 3750.63 262.017, 3749.39 262.017 Q 3748.53 262.017, 3747.67 262.377 Q 3746.83 262.717, 3746.23 263.317 Q 3746.31 265.657, 3747.05 266.717 Q 3747.79 267.777, 3749.29 267.777 " fill="#000000"/>
<path class="note" d="M 3631.76 196.735 L 3634.86 196.735 L 3634.86 186.155 L 3631.44 187.215 L 3630.98 186.035 L 3635.32 184.095 L 3636.74 184.335 L 3636.74 196.735 L 3639.52 196.735 L 3639.52 198.335 L 3631.76 198.335 L 3631.76 196.735 " fill="#000000"/>
<path class="note" d="M 3647.3 185.775 L 3639.88 185.775 L 3639.88 184.175 L 3649.28 184.175 L 3649.28 185.595 L 3643.56 198.335 L 3641.64 198.335 L 3647.3 185.775 " fill="#000000"/>
<path class="note" d="M 3306.95 335.505 L 3310.05 335.505 L 3310.05 324.925 L 3306.63 325.985 L 3306.17 324.805 L 3310.51 322.865 L 3311.93 323.105 L 3311.93 335.505 L 3314.71 335.505 L 3314.71 337.105 L 3306.95 337.105 L 3306.95 335.505 " fill="#000000"/>
<path class="note" d="M 3323.17 329.605 Q 3324.47 330.165, 3325.21 331.005 Q 3325.95 331.825, 3325.95 333.225 Q 3325.95 334.425, 3325.33 335.365 Q 3324.71 336.285, 3323.59 336.805 Q 3322.49 337.305, 3321.03 337.305 Q 3318.67 337.305, 3317.31 336.225 Q 3315.95 335.125, 3315.95 333.225 Q 3315.95 332.065, 3316.55 331.205 Q 3317.15 330.325, 3318.39 329.665 Q 3317.47 329.145, 3316.97 328.385 Q 3316.47 327.605, 3316.47 326.405 Q 3316.47 324.745, 3317.67 323.765 Q 3318.89 322.785, 3320.95 322.785 Q 3323.01 322.785, 3324.21 323.765 Q 3325.43 324.745, 3325.43 326.405 Q 3325.43 327.445, 3324.85 328.225 Q 3324.29 328.985, 3323.17 329.605 M 3320.95 324.285 Q 3319.77 324.285, 3319.11 324.845 Q 3318.47 325.405, 3318.47 326.405 Q 3318.47 327.145, 3318.91 327.645 Q 3319.35 328.125, 3319.97 328.405 Q 3320.61 328.685, 3321.83 329.105 Q 3322.69 328.505, 3323.05 327.865 Q 3323.43 327.225, 3323.43 326.405 Q 3323.43 325.405, 3322.77 324.845 Q 3322.13 324.285, 3320.95 324.285 M 3321.03 335.805 Q 3322.35 335.805, 3323.15 335.105 Q 3323.95 334.385, 3323.95 333.205 Q 3323.95 332.445, 3323.53 331.965 Q 3323.11 331.485, 3322.47 331.205 Q 3321.85 330.925, 3320.73 330.565 L 3319.83 330.265 Q 3318.83 330.865, 3318.39 331.585 Q 3317.95 332.285, 3317.95 333.205 Q 3317.95 334.385, 3318.79 335.105 Q 3319.63 335.805, 3321.03 335.805 " fill="#000000"/>
<path class="note" d="M 3172.92 396.809 L 3176.02 396.809 L 3176.02 386.229 L 3172.6 387.289 L 3172.14 386.109 L 3176.48 384.169 L 3177.9 384.409 L 3177.9 396.809 L 3180.68 396.809 L 3180.68 398.409 L 3172.92 398.409 L 3172.92 396.809 " fill="#000000"/>
<path class="note" d="M 3186.54 384.089 Q 3189.06 384.089, 3190.32 385.809 Q 3191.6 387.509, 3191.6 390.909 Q 3191.6 394.669, 3190.02 396.629 Q 3188.46 398.569, 3185.44 398.569 Q 3184.56 398.569, 3183.8 398.369 Q 3183.06 398.169, 3182.34 397.749 L 3183.12 396.409 Q 3184.16 396.969, 3185.42 396.969 Q 3187.42 396.969, 3188.44 395.689 Q 3189.46 394.389, 3189.58 391.729 Q 3188.86 392.389, 3187.94 392.749 Q 3187.04 393.089, 3186.06 393.089 Q 3184.82 393.089, 3183.84 392.549 Q 3182.86 392.009, 3182.32 391.029 Q 3181.78 390.049, 3181.78 388.809 Q 3181.78 387.429, 3182.38 386.369 Q 3183 385.289, 3184.08 384.689 Q 3185.16 384.089, 3186.54 384.089 M 3183.78 388.789 Q 3183.78 390.049, 3184.48 390.769 Q 3185.18 391.489, 3186.42 391.489 Q 3187.28 391.489, 3188.12 391.149 Q 3188.98 390.789, 3189.58 390.189 Q 3189.5 387.849, 3188.76 386.789 Q 3188.02 385.729, 3186.52 385.729 Q 3185.76 385.729, 3185.12 386.129 Q 3184.5 386.529, 3184.14 387.229 Q 3183.78 387.929, 3183.78 388.789 " fill="#000000"/>
<path d="M 802.226 248.083 L 808.274 248.083 L 808.274 241.715 L 810.962 241.715 L 810.962 248.083 L 817.17 248.083 L 817.17 250.387 L 810.962 250.387 L 810.962 256.787 L 808.274 256.787 L 808.274 250.387 L 802.226 250.387 L 802.226 248.083 " fill="#000000"/>
<path d="M 2048.67,250.387 L 2515.87,250.387" style="fill:none;fill-rule:evenodd;stroke:#000000;stroke-width:2.0px;stroke-linecap:butt;stroke-linejoin:miter;stroke-opacity:1"/>
<path d="M 2515.87,250.387 L 2495.64,238.707" style="fill:none;fill-rule:evenodd;stroke:#000000;stroke-width:2.0px;stroke-linecap:butt;stroke-linejoin:miter;stroke-opacity:1"/>
<path d="M 2515.87,250.387 L 2495.64,262.067" style="fill:none;fill-rule:evenodd;stroke:#000000;stroke-width:2.0px;stroke-linecap:butt;stroke-linejoin:miter;stroke-opacity:1"/>
</svg>