<svg xmlns="http://www.w3.org/2000/svg" xmlns:rdkit="http://www.rdkit.org/xml" xmlns:xlink="http://www.w3.org/1999/xlink" version="1.1" baseProfile="full" xml:space="preserve" width="4000px" height="500px" viewBox="0 0 4000 500">
<!-- END OF HEADER -->
<rect style="opacity:1.0;fill:#FFFFFF;stroke:none" width="4000" height="500" x="0" y="0"> </rect>
<path d="M 646.068,218.617 L 752.271,279.934" style="fill:none;fill-rule:evenodd;stroke:#FFFFAA;stroke-width:26.2px;stroke-linecap:butt;stroke-linejoin:miter;stroke-opacity:1"/>
<path d="M 752.271,279.934 L 858.475,218.617" style="fill:none;fill-rule:evenodd;stroke:#FFFFAA;stroke-width:26.2px;stroke-linecap:butt;stroke-linejoin:miter;stroke-opacity:1"/>
<path d="M 752.271,279.934 L 752.271,402.567" style="fill:none;fill-rule:evenodd;stroke:#FFFFAA;stroke-width:26.2px;stroke-linecap:butt;stroke-linejoin:miter;stroke-opacity:1"/>
<path d="M 1192.49,390.024 L 1303.95,338.898" style="fill:none;fill-rule:evenodd;stroke:#FFCC99;stroke-width:26.2px;stroke-linecap:butt;stroke-linejoin:miter;stroke-opacity:1"/>
<path d="M 1303.95,338.898 L 1315.41,216.802" style="fill:none;fill-rule:evenodd;stroke:#FFCC99;stroke-width:26.2px;stroke-linecap:butt;stroke-linejoin:miter;stroke-opacity:1"/>
<path d="M 1303.95,338.898 L 1403.96,409.87" style="fill:none;fill-rule:evenodd;stroke:#FFCC99;stroke-width:26.2px;stroke-linecap:butt;stroke-linejoin:miter;stroke-opacity:1"/>
<path d="M 1315.41,216.802 L 1426.88,165.677" style="fill:none;fill-rule:evenodd;stroke:#FFCC99;stroke-width:26.2px;stroke-linecap:butt;stroke-linejoin:miter;stroke-opacity:1"/>
<path d="M 1426.88,165.677 L 1526.89,236.648" style="fill:none;fill-rule:evenodd;stroke:#FFCC99;stroke-width:26.2px;stroke-linecap:butt;stroke-linejoin:miter;stroke-opacity:1"/>
<path d="M 1526.89,236.648 L 1638.36,185.523" style="fill:none;fill-rule:evenodd;stroke:#FFCC99;stroke-width:26.2px;stroke-linecap:butt;stroke-linejoin:miter;stroke-opacity:1"/>
<path d="M 1526.89,236.648 L 1515.43,358.744" style="fill:none;fill-rule:evenodd;stroke:#FFCC99;stroke-width:26.2px;stroke-linecap:butt;stroke-linejoin:miter;stroke-opacity:1"/>
<path d="M 1638.36,185.523 L 1649.81,63.4261" style="fill:none;fill-rule:evenodd;stroke:#FFCC99;stroke-width:26.2px;stroke-linecap:butt;stroke-linejoin:miter;stroke-opacity:1"/>
<path d="M 1638.36,185.523 L 1738.37,256.494" style="fill:none;fill-rule:evenodd;stroke:#FFCC99;stroke-width:26.2px;stroke-linecap:butt;stroke-linejoin:miter;stroke-opacity:1"/>
<path d="M 1738.37,256.494 L 1726.91,378.59" style="fill:none;fill-rule:evenodd;stroke:#FFCC99;stroke-width:26.2px;stroke-linecap:butt;stroke-linejoin:miter;stroke-opacity:1"/>
<path d="M 1738.37,256.494 L 1849.83,205.369" style="fill:none;fill-rule:evenodd;stroke:#FFCC99;stroke-width:26.2px;stroke-linecap:butt;stroke-linejoin:miter;stroke-opacity:1"/>
<path d="M 1726.91,378.59 L 1826.92,449.562" style="fill:none;fill-rule:evenodd;stroke:#FFCC99;stroke-width:26.2px;stroke-linecap:butt;stroke-linejoin:miter;stroke-opacity:1"/>
<path d="M 1826.92,449.562 L 1938.38,398.436" style="fill:none;fill-rule:evenodd;stroke:#FFCC99;stroke-width:26.2px;stroke-linecap:butt;stroke-linejoin:miter;stroke-opacity:1"/>
<path d="M 1938.38,398.436 L 1949.84,276.34" style="fill:none;fill-rule:evenodd;stroke:#FFCC99;stroke-width:26.2px;stroke-linecap:butt;stroke-linejoin:miter;stroke-opacity:1"/>
<path d="M 1949.84,276.34 L 1849.83,205.369" style="fill:none;fill-rule:evenodd;stroke:#FFCC99;stroke-width:26.2px;stroke-linecap:butt;stroke-linejoin:miter;stroke-opacity:1"/>
<path d="M 1515.43,358.744 L 1403.96,409.87" style="fill:none;fill-rule:evenodd;stroke:#FFCC99;stroke-width:26.2px;stroke-linecap:butt;stroke-linejoin:miter;stroke-opacity:1"/>
<path d="M 2571.79,361.847 L 2683.94,312.245" style="fill:none;fill-rule:evenodd;stroke:#FFFFAA;stroke-width:26.2px;stroke-linecap:butt;stroke-linejoin:miter;stroke-opacity:1"/>
<path d="M 2683.94,312.245 L 2697.06,190.316" style="fill:none;fill-rule:evenodd;stroke:#FFFFAA;stroke-width:26.2px;stroke-linecap:butt;stroke-linejoin:miter;stroke-opacity:1"/>
<path d="M 2782.98,384.572 L 2895.13,334.97" style="fill:none;fill-rule:evenodd;stroke:#FFCC99;stroke-width:26.2px;stroke-linecap:butt;stroke-linejoin:miter;stroke-opacity:1"/>
<path d="M 2895.13,334.97 L 2908.25,213.04" style="fill:none;fill-rule:evenodd;stroke:#FFCC99;stroke-width:26.2px;stroke-linecap:butt;stroke-linejoin:miter;stroke-opacity:1"/>
<path d="M 2895.13,334.97 L 2994.16,407.296" style="fill:none;fill-rule:evenodd;stroke:#FFCC99;stroke-width:26.2px;stroke-linecap:butt;stroke-linejoin:miter;stroke-opacity:1"/>
<path d="M 2908.25,213.04 L 3020.4,163.438" style="fill:none;fill-rule:evenodd;stroke:#FFCC99;stroke-width:26.2px;stroke-linecap:butt;stroke-linejoin:miter;stroke-opacity:1"/>
<path d="M 3020.4,163.438 L 3119.44,235.765" style="fill:none;fill-rule:evenodd;stroke:#FFCC99;stroke-width:26.2px;stroke-linecap:butt;stroke-linejoin:miter;stroke-opacity:1"/>
<path d="M 3119.44,235.765 L 3231.59,186.163" style="fill:none;fill-rule:evenodd;stroke:#FFCC99;stroke-width:26.2px;stroke-linecap:butt;stroke-linejoin:miter;stroke-opacity:1"/>
<path d="M 3119.44,235.765 L 3106.32,357.694" style="fill:none;fill-rule:evenodd;stroke:#FFCC99;stroke-width:26.2px;stroke-linecap:butt;stroke-linejoin:miter;stroke-opacity:1"/>
<path d="M 3231.59,186.163 L 3244.71,64.234" style="fill:none;fill-rule:evenodd;stroke:#FFCC99;stroke-width:26.2px;stroke-linecap:butt;stroke-linejoin:miter;stroke-opacity:1"/>
<path d="M 3231.59,186.163 L 3330.62,258.49" style="fill:none;fill-rule:evenodd;stroke:#FFCC99;stroke-width:26.2px;stroke-linecap:butt;stroke-linejoin:miter;stroke-opacity:1"/>
<path d="M 3330.62,258.49 L 3317.5,380.419" style="fill:none;fill-rule:evenodd;stroke:#FFCC99;stroke-width:26.2px;stroke-linecap:butt;stroke-linejoin:miter;stroke-opacity:1"/>
<path d="M 3330.62,258.49 L 3442.78,208.888" style="fill:none;fill-rule:evenodd;stroke:#FFCC99;stroke-width:26.2px;stroke-linecap:butt;stroke-linejoin:miter;stroke-opacity:1"/>
<path d="M 3317.5,380.419 L 3416.54,452.746" style="fill:none;fill-rule:evenodd;stroke:#FFCC99;stroke-width:26.2px;stroke-linecap:butt;stroke-linejoin:miter;stroke-opacity:1"/>
<path d="M 3416.54,452.746 L 3528.69,403.144" style="fill:none;fill-rule:evenodd;stroke:#FFCC99;stroke-width:26.2px;stroke-linecap:butt;stroke-linejoin:miter;stroke-opacity:1"/>
<path d="M 3528.69,403.144 L 3541.81,281.215" style="fill:none;fill-rule:evenodd;stroke:#FFCC99;stroke-width:26.2px;stroke-linecap:butt;stroke-linejoin:miter;stroke-opacity:1"/>
<path d="M 3541.81,281.215 L 3442.78,208.888" style="fill:none;fill-rule:evenodd;stroke:#FFCC99;stroke-width:26.2px;stroke-linecap:butt;stroke-linejoin:miter;stroke-opacity:1"/>
<path d="M 3106.32,357.694 L 2994.16,407.296" style="fill:none;fill-rule:evenodd;stroke:#FFCC99;stroke-width:26.2px;stroke-linecap:butt;stroke-linejoin:miter;stroke-opacity:1"/>
<ellipse cx="752.271" cy="279.934" rx="24.5266" ry="24.5266" style="fill:#FFFFAA;fill-rule:evenodd;stroke:#FFFFAA;stroke-width:1px;stroke-linecap:butt;stroke-linejoin:miter;stroke-opacity:1"/>
<ellipse cx="858.475" cy="218.617" rx="24.5266" ry="24.5266" style="fill:#FFFFAA;fill-rule:evenodd;stroke:#FFFFAA;stroke-width:1px;stroke-linecap:butt;stroke-linejoin:miter;stroke-opacity:1"/>
<ellipse cx="752.271" cy="402.787" rx="24.5266" ry="24.5266" style="fill:#FFFFAA;fill-rule:evenodd;stroke:#FFFFAA;stroke-width:1px;stroke-linecap:butt;stroke-linejoin:miter;stroke-opacity:1"/>
<ellipse cx="1172.79" cy="397.104" rx="43.0436" ry="30.0379" style="fill:#FFCC99;fill-rule:evenodd;stroke:#FFCC99;stroke-width:1px;stroke-linecap:butt;stroke-linejoin:miter;stroke-opacity:1"/>
<ellipse cx="1303.95" cy="338.898" rx="24.5266" ry="24.5266" style="fill:#FFCC99;fill-rule:evenodd;stroke:#FFCC99;stroke-width:1px;stroke-linecap:butt;stroke-linejoin:miter;stroke-opacity:1"/>
<ellipse cx="1315.41" cy="216.802" rx="24.5266" ry="24.5266" style="fill:#FFCC99;fill-rule:evenodd;stroke:#FFCC99;stroke-width:1px;stroke-linecap:butt;stroke-linejoin:miter;stroke-opacity:1"/>
<ellipse cx="1426.88" cy="165.677" rx="24.5266" ry="24.5266" style="fill:#FFCC99;fill-rule:evenodd;stroke:#FFCC99;stroke-width:1px;stroke-linecap:butt;stroke-linejoin:miter;stroke-opacity:1"/>
<ellipse cx="1526.89" cy="236.648" rx="24.5266" ry="24.5266" style="fill:#FFCC99;fill-rule:evenodd;stroke:#FFCC99;stroke-width:1px;stroke-linecap:butt;stroke-linejoin:miter;stroke-opacity:1"/>
<ellipse cx="1638.36" cy="185.523" rx="24.5266" ry="24.5266" style="fill:#FFCC99;fill-rule:evenodd;stroke:#FFCC99;stroke-width:1px;stroke-linecap:butt;stroke-linejoin:miter;stroke-opacity:1"/>
<ellipse cx="1649.81" cy="63.6461" rx="24.5266" ry="24.5266" style="fill:#FFCC99;fill-rule:evenodd;stroke:#FFCC99;stroke-width:1px;stroke-linecap:butt;stroke-linejoin:miter;stroke-opacity:1"/>
<ellipse cx="1738.37" cy="256.494" rx="24.5266" ry="24.5266" style="fill:#FFCC99;fill-rule:evenodd;stroke:#FFCC99;stroke-width:1px;stroke-linecap:butt;stroke-linejoin:miter;stroke-opacity:1"/>
<ellipse cx="1726.91" cy="378.59" rx="24.5266" ry="24.5266" style="fill:#FFCC99;fill-rule:evenodd;stroke:#FFCC99;stroke-width:1px;stroke-linecap:butt;stroke-linejoin:miter;stroke-opacity:1"/>
<ellipse cx="1826.92" cy="449.562" rx="24.5266" ry="24.5266" style="fill:#FFCC99;fill-rule:evenodd;stroke:#FFCC99;stroke-width:1px;stroke-linecap:butt;stroke-linejoin:miter;stroke-opacity:1"/>
<ellipse cx="1938.38" cy="398.436" rx="24.5266" ry="24.5266" style="fill:#FFCC99;fill-rule:evenodd;stroke:#FFCC99;stroke-width:1px;stroke-linecap:butt;stroke-linejoin:miter;stroke-opacity:1"/>
<ellipse cx="1949.84" cy="276.34" rx="24.5266" ry="24.5266" style="fill:#FFCC99;fill-rule:evenodd;stroke:#FFCC99;stroke-width:1px;stroke-linecap:butt;stroke-linejoin:miter;stroke-opacity:1"/>
<ellipse cx="1849.83" cy="205.369" rx="24.5266" ry="24.5266" style="fill:#FFCC99;fill-rule:evenodd;stroke:#FFCC99;stroke-width:1px;stroke-linecap:butt;stroke-linejoin:miter;stroke-opacity:1"/>
<ellipse cx="1515.43" cy="358.744" rx="24.5266" ry="24.5266" style="fill:#FFCC99;fill-rule:evenodd;stroke:#FFCC99;stroke-width:1px;stroke-linecap:butt;stroke-linejoin:miter;stroke-opacity:1"/>
<ellipse cx="1403.96" cy="409.87" rx="24.5266" ry="24.5266" style="fill:#FFCC99;fill-rule:evenodd;stroke:#FFCC99;stroke-width:1px;stroke-linecap:butt;stroke-linejoin:miter;stroke-opacity:1"/>
<ellipse cx="2571.79" cy="361.847" rx="24.5266" ry="24.5266" style="fill:#FFFFAA;fill-rule:evenodd;stroke:#FFFFAA;stroke-width:1px;stroke-linecap:butt;stroke-linejoin:miter;stroke-opacity:1"/>
<ellipse cx="2683.94" cy="312.245" rx="24.5266" ry="24.5266" style="fill:#FFFFAA;fill-rule:evenodd;stroke:#FFFFAA;stroke-width:1px;stroke-linecap:butt;stroke-linejoin:miter;stroke-opacity:1"/>
<ellipse cx="2697.06" cy="190.536" rx="24.5266" ry="24.5266" style="fill:#FFFFAA;fill-rule:evenodd;stroke:#FFFFAA;stroke-width:1px;stroke-linecap:butt;stroke-linejoin:miter;stroke-opacity:1"/>
<ellipse cx="2782.98" cy="400.148" rx="24.5266" ry="42.0531" style="fill:#FFCC99;fill-rule:evenodd;stroke:#FFCC99;stroke-width:1px;stroke-linecap:butt;stroke-linejoin:miter;stroke-opacity:1"/>
<ellipse cx="2895.13" cy="334.97" rx="24.5266" ry="24.5266" style="fill:#FFCC99;fill-rule:evenodd;stroke:#FFCC99;stroke-width:1px;stroke-linecap:butt;stroke-linejoin:miter;stroke-opacity:1"/>
<ellipse cx="2908.25" cy="213.04" rx="24.5266" ry="24.5266" style="fill:#FFCC99;fill-rule:evenodd;stroke:#FFCC99;stroke-width:1px;stroke-linecap:butt;stroke-linejoin:miter;stroke-opacity:1"/>
<ellipse cx="3020.4" cy="163.438" rx="24.5266" ry="24.5266" style="fill:#FFCC99;fill-rule:evenodd;stroke:#FFCC99;stroke-width:1px;stroke-linecap:butt;stroke-linejoin:miter;stroke-opacity:1"/>
<ellipse cx="3119.44" cy="235.765" rx="24.5266" ry="24.5266" style="fill:#FFCC99;fill-rule:evenodd;stroke:#FFCC99;stroke-width:1px;stroke-linecap:butt;stroke-linejoin:miter;stroke-opacity:1"/>
<ellipse cx="3231.59" cy="186.163" rx="24.5266" ry="24.5266" style="fill:#FFCC99;fill-rule:evenodd;stroke:#FFCC99;stroke-width:1px;stroke-linecap:butt;stroke-linejoin:miter;stroke-opacity:1"/>
<ellipse cx="3244.71" cy="64.454" rx="24.5266" ry="24.5266" style="fill:#FFCC99;fill-rule:evenodd;stroke:#FFCC99;stroke-width:1px;stroke-linecap:butt;stroke-linejoin:miter;stroke-opacity:1"/>
<ellipse cx="3330.62" cy="258.49" rx="24.5266" ry="24.5266" style="fill:#FFCC99;fill-rule:evenodd;stroke:#FFCC99;stroke-width:1px;stroke-linecap:butt;stroke-linejoin:miter;stroke-opacity:1"/>
<ellipse cx="3317.5" cy="380.419" rx="24.5266" ry="24.5266" style="fill:#FFCC99;fill-rule:evenodd;stroke:#FFCC99;stroke-width:1px;stroke-linecap:butt;stroke-linejoin:miter;stroke-opacity:1"/>
<ellipse cx="3416.54" cy="452.746" rx="24.5266" ry="24.5266" style="fill:#FFCC99;fill-rule:evenodd;stroke:#FFCC99;stroke-width:1px;stroke-linecap:butt;stroke-linejoin:miter;stroke-opacity:1"/>
<ellipse cx="3528.69" cy="403.144" rx="24.5266" ry="24.5266" style="fill:#FFCC99;fill-rule:evenodd;stroke:#FFCC99;stroke-width:1px;stroke-linecap:butt;stroke-linejoin:miter;stroke-opacity:1"/>
<ellipse cx="3541.81" cy="281.215" rx="24.5266" ry="24.5266" style="fill:#FFCC99;fill-rule:evenodd;stroke:#FFCC99;stroke-width:1px;stroke-linecap:butt;stroke-linejoin:miter;stroke-opacity:1"/>
<ellipse cx="3442.78" cy="208.888" rx="24.5266" ry="24.5266" style="fill:#FFCC99;fill-rule:evenodd;stroke:#FFCC99;stroke-width:1px;stroke-linecap:butt;stroke-linejoin:miter;stroke-opacity:1"/>
<ellipse cx="3106.32" cy="357.694" rx="24.5266" ry="24.5266" style="fill:#FFCC99;fill-rule:evenodd;stroke:#FFCC99;stroke-width:1px;stroke-linecap:butt;stroke-linejoin:miter;stroke-opacity:1"/>
<ellipse cx="2994.16" cy="407.296" rx="24.5266" ry="24.5266" style="fill:#FFCC99;fill-rule:evenodd;stroke:#FFCC99;stroke-width:1px;stroke-linecap:butt;stroke-linejoin:miter;stroke-opacity:1"/>
<path class="bond-0" d="M 433.661,218.617 L 539.865,279.934" style="fill:none;fill-rule:evenodd;stroke:#000000;stroke-width:2.0px;stroke-linecap:butt;stroke-linejoin:miter;stroke-opacity:1"/>
<path class="bond-1" d="M 527.601,279.934 L 527.601,332.558" style="fill:none;fill-rule:evenodd;stroke:#000000;stroke-width:2.0px;stroke-linecap:butt;stroke-linejoin:miter;stroke-opacity:1"/>
<path class="bond-1" d="M 527.601,332.558 L 527.601,385.181" style="fill:none;fill-rule:evenodd;stroke:#FF0000;stroke-width:2.0px;stroke-linecap:butt;stroke-linejoin:miter;stroke-opacity:1"/>
<path class="bond-1" d="M 552.128,279.934 L 552.128,332.558" style="fill:none;fill-rule:evenodd;stroke:#000000;stroke-width:2.0px;stroke-linecap:butt;stroke-linejoin:miter;stroke-opacity:1"/>
<path class="bond-1" d="M 552.128,332.558 L 552.128,385.181" style="fill:none;fill-rule:evenodd;stroke:#FF0000;stroke-width:2.0px;stroke-linecap:butt;stroke-linejoin:miter;stroke-opacity:1"/>
<path class="bond-2" d="M 539.865,279.934 L 584.933,253.914" style="fill:none;fill-rule:evenodd;stroke:#000000;stroke-width:2.0px;stroke-linecap:butt;stroke-linejoin:miter;stroke-opacity:1"/>
<path class="bond-2" d="M 584.933,253.914 L 630.002,227.893" style="fill:none;fill-rule:evenodd;stroke:#FF0000;stroke-width:2.0px;stroke-linecap:butt;stroke-linejoin:miter;stroke-opacity:1"/>
<path class="bond-3" d="M 662.134,227.893 L 707.203,253.914" style="fill:none;fill-rule:evenodd;stroke:#FF0000;stroke-width:2.0px;stroke-linecap:butt;stroke-linejoin:miter;stroke-opacity:1"/>
<path class="bond-3" d="M 707.203,253.914 L 752.271,279.934" style="fill:none;fill-rule:evenodd;stroke:#000000;stroke-width:2.0px;stroke-linecap:butt;stroke-linejoin:miter;stroke-opacity:1"/>
<path class="bond-4" d="M 752.271,279.934 L 858.475,218.617" style="fill:none;fill-rule:evenodd;stroke:#000000;stroke-width:2.0px;stroke-linecap:butt;stroke-linejoin:miter;stroke-opacity:1"/>
<path class="bond-5" d="M 740.008,279.934 L 740.008,332.558" style="fill:none;fill-rule:evenodd;stroke:#000000;stroke-width:2.0px;stroke-linecap:butt;stroke-linejoin:miter;stroke-opacity:1"/>
<path class="bond-5" d="M 740.008,332.558 L 740.008,385.181" style="fill:none;fill-rule:evenodd;stroke:#FF0000;stroke-width:2.0px;stroke-linecap:butt;stroke-linejoin:miter;stroke-opacity:1"/>
<path class="bond-5" d="M 764.535,279.934 L 764.535,332.558" style="fill:none;fill-rule:evenodd;stroke:#000000;stroke-width:2.0px;stroke-linecap:butt;stroke-linejoin:miter;stroke-opacity:1"/>
<path class="bond-5" d="M 764.535,332.558 L 764.535,385.181" style="fill:none;fill-rule:evenodd;stroke:#FF0000;stroke-width:2.0px;stroke-linecap:butt;stroke-linejoin:miter;stroke-opacity:1"/>
<path class="bond-6" d="M 1206.29,383.692 L 1255.12,361.295" style="fill:none;fill-rule:evenodd;stroke:#0000FF;stroke-width:2.0px;stroke-linecap:butt;stroke-linejoin:miter;stroke-opacity:1"/>
<path class="bond-6" d="M 1255.12,361.295 L 1303.95,338.898" style="fill:none;fill-rule:evenodd;stroke:#000000;stroke-width:2.0px;stroke-linecap:butt;stroke-linejoin:miter;stroke-opacity:1"/>
<path class="bond-7" d="M 1303.95,338.898 L 1315.41,216.802" style="fill:none;fill-rule:evenodd;stroke:#000000;stroke-width:2.0px;stroke-linecap:butt;stroke-linejoin:miter;stroke-opacity:1"/>
<path class="bond-7" d="M 1330.09,322.876 L 1338.11,237.408" style="fill:none;fill-rule:evenodd;stroke:#000000;stroke-width:2.0px;stroke-linecap:butt;stroke-linejoin:miter;stroke-opacity:1;stroke-dasharray:6,6"/>
<path class="bond-20" d="M 1303.95,338.898 L 1403.96,409.87" style="fill:none;fill-rule:evenodd;stroke:#000000;stroke-width:2.0px;stroke-linecap:butt;stroke-linejoin:miter;stroke-opacity:1"/>
<path class="bond-20" d="M 1333.15,329.542 L 1403.16,379.222" style="fill:none;fill-rule:evenodd;stroke:#000000;stroke-width:2.0px;stroke-linecap:butt;stroke-linejoin:miter;stroke-opacity:1;stroke-dasharray:6,6"/>
<path class="bond-8" d="M 1315.41,216.802 L 1426.88,165.677" style="fill:none;fill-rule:evenodd;stroke:#000000;stroke-width:2.0px;stroke-linecap:butt;stroke-linejoin:miter;stroke-opacity:1"/>
<path class="bond-8" d="M 1342.36,231.427 L 1420.38,195.639" style="fill:none;fill-rule:evenodd;stroke:#000000;stroke-width:2.0px;stroke-linecap:butt;stroke-linejoin:miter;stroke-opacity:1;stroke-dasharray:6,6"/>
<path class="bond-9" d="M 1426.88,165.677 L 1526.89,236.648" style="fill:none;fill-rule:evenodd;stroke:#000000;stroke-width:2.0px;stroke-linecap:butt;stroke-linejoin:miter;stroke-opacity:1"/>
<path class="bond-9" d="M 1427.69,196.324 L 1497.69,246.004" style="fill:none;fill-rule:evenodd;stroke:#000000;stroke-width:2.0px;stroke-linecap:butt;stroke-linejoin:miter;stroke-opacity:1;stroke-dasharray:6,6"/>
<path class="bond-10" d="M 1526.89,236.648 L 1638.36,185.523" style="fill:none;fill-rule:evenodd;stroke:#000000;stroke-width:2.0px;stroke-linecap:butt;stroke-linejoin:miter;stroke-opacity:1"/>
<path class="bond-18" d="M 1526.89,236.648 L 1515.43,358.744" style="fill:none;fill-rule:evenodd;stroke:#000000;stroke-width:2.0px;stroke-linecap:butt;stroke-linejoin:miter;stroke-opacity:1"/>
<path class="bond-18" d="M 1500.75,252.671 L 1492.73,338.138" style="fill:none;fill-rule:evenodd;stroke:#000000;stroke-width:2.0px;stroke-linecap:butt;stroke-linejoin:miter;stroke-opacity:1;stroke-dasharray:6,6"/>
<path class="bond-11" d="M 1650.57,186.668 L 1655.46,134.533" style="fill:none;fill-rule:evenodd;stroke:#000000;stroke-width:2.0px;stroke-linecap:butt;stroke-linejoin:miter;stroke-opacity:1"/>
<path class="bond-11" d="M 1655.46,134.533 L 1660.35,82.3977" style="fill:none;fill-rule:evenodd;stroke:#FF0000;stroke-width:2.0px;stroke-linecap:butt;stroke-linejoin:miter;stroke-opacity:1"/>
<path class="bond-11" d="M 1626.15,184.377 L 1631.04,132.241" style="fill:none;fill-rule:evenodd;stroke:#000000;stroke-width:2.0px;stroke-linecap:butt;stroke-linejoin:miter;stroke-opacity:1"/>
<path class="bond-11" d="M 1631.04,132.241 L 1635.93,80.1061" style="fill:none;fill-rule:evenodd;stroke:#FF0000;stroke-width:2.0px;stroke-linecap:butt;stroke-linejoin:miter;stroke-opacity:1"/>
<path class="bond-12" d="M 1638.36,185.523 L 1738.37,256.494" style="fill:none;fill-rule:evenodd;stroke:#000000;stroke-width:2.0px;stroke-linecap:butt;stroke-linejoin:miter;stroke-opacity:1"/>
<path class="bond-13" d="M 1738.37,256.494 L 1726.91,378.59" style="fill:none;fill-rule:evenodd;stroke:#000000;stroke-width:2.0px;stroke-linecap:butt;stroke-linejoin:miter;stroke-opacity:1"/>
<path class="bond-13" d="M 1761.07,277.1 L 1753.05,362.567" style="fill:none;fill-rule:evenodd;stroke:#000000;stroke-width:2.0px;stroke-linecap:butt;stroke-linejoin:miter;stroke-opacity:1;stroke-dasharray:6,6"/>
<path class="bond-21" d="M 1738.37,256.494 L 1849.83,205.369" style="fill:none;fill-rule:evenodd;stroke:#000000;stroke-width:2.0px;stroke-linecap:butt;stroke-linejoin:miter;stroke-opacity:1"/>
<path class="bond-21" d="M 1765.31,271.119 L 1843.34,235.331" style="fill:none;fill-rule:evenodd;stroke:#000000;stroke-width:2.0px;stroke-linecap:butt;stroke-linejoin:miter;stroke-opacity:1;stroke-dasharray:6,6"/>
<path class="bond-14" d="M 1726.91,378.59 L 1826.92,449.562" style="fill:none;fill-rule:evenodd;stroke:#000000;stroke-width:2.0px;stroke-linecap:butt;stroke-linejoin:miter;stroke-opacity:1"/>
<path class="bond-14" d="M 1756.1,369.234 L 1826.11,418.914" style="fill:none;fill-rule:evenodd;stroke:#000000;stroke-width:2.0px;stroke-linecap:butt;stroke-linejoin:miter;stroke-opacity:1;stroke-dasharray:6,6"/>
<path class="bond-15" d="M 1826.92,449.562 L 1938.38,398.436" style="fill:none;fill-rule:evenodd;stroke:#000000;stroke-width:2.0px;stroke-linecap:butt;stroke-linejoin:miter;stroke-opacity:1"/>
<path class="bond-15" d="M 1833.41,419.599 L 1911.44,383.812" style="fill:none;fill-rule:evenodd;stroke:#000000;stroke-width:2.0px;stroke-linecap:butt;stroke-linejoin:miter;stroke-opacity:1;stroke-dasharray:6,6"/>
<path class="bond-16" d="M 1938.38,398.436 L 1949.84,276.34" style="fill:none;fill-rule:evenodd;stroke:#000000;stroke-width:2.0px;stroke-linecap:butt;stroke-linejoin:miter;stroke-opacity:1"/>
<path class="bond-16" d="M 1915.68,377.83 L 1923.71,292.363" style="fill:none;fill-rule:evenodd;stroke:#000000;stroke-width:2.0px;stroke-linecap:butt;stroke-linejoin:miter;stroke-opacity:1;stroke-dasharray:6,6"/>
<path class="bond-17" d="M 1949.84,276.34 L 1849.83,205.369" style="fill:none;fill-rule:evenodd;stroke:#000000;stroke-width:2.0px;stroke-linecap:butt;stroke-linejoin:miter;stroke-opacity:1"/>
<path class="bond-17" d="M 1920.65,285.696 L 1850.64,236.016" style="fill:none;fill-rule:evenodd;stroke:#000000;stroke-width:2.0px;stroke-linecap:butt;stroke-linejoin:miter;stroke-opacity:1;stroke-dasharray:6,6"/>
<path class="bond-19" d="M 1515.43,358.744 L 1403.96,409.87" style="fill:none;fill-rule:evenodd;stroke:#000000;stroke-width:2.0px;stroke-linecap:butt;stroke-linejoin:miter;stroke-opacity:1"/>
<path class="bond-19" d="M 1488.49,344.12 L 1410.46,379.907" style="fill:none;fill-rule:evenodd;stroke:#000000;stroke-width:2.0px;stroke-linecap:butt;stroke-linejoin:miter;stroke-opacity:1;stroke-dasharray:6,6"/>
<path class="bond-22" d="M 2571.79,361.847 L 2683.94,312.245" style="fill:none;fill-rule:evenodd;stroke:#000000;stroke-width:2.0px;stroke-linecap:butt;stroke-linejoin:miter;stroke-opacity:1"/>
<path class="bond-23" d="M 2696.14,313.557 L 2701.74,261.505" style="fill:none;fill-rule:evenodd;stroke:#000000;stroke-width:2.0px;stroke-linecap:butt;stroke-linejoin:miter;stroke-opacity:1"/>
<path class="bond-23" d="M 2701.74,261.505 L 2707.34,209.453" style="fill:none;fill-rule:evenodd;stroke:#FF0000;stroke-width:2.0px;stroke-linecap:butt;stroke-linejoin:miter;stroke-opacity:1"/>
<path class="bond-23" d="M 2671.75,310.933 L 2677.35,258.881" style="fill:none;fill-rule:evenodd;stroke:#000000;stroke-width:2.0px;stroke-linecap:butt;stroke-linejoin:miter;stroke-opacity:1"/>
<path class="bond-23" d="M 2677.35,258.881 L 2682.95,206.829" style="fill:none;fill-rule:evenodd;stroke:#FF0000;stroke-width:2.0px;stroke-linecap:butt;stroke-linejoin:miter;stroke-opacity:1"/>
<path class="bond-24" d="M 2683.94,312.245 L 2726.56,343.367" style="fill:none;fill-rule:evenodd;stroke:#000000;stroke-width:2.0px;stroke-linecap:butt;stroke-linejoin:miter;stroke-opacity:1"/>
<path class="bond-24" d="M 2726.56,343.367 L 2769.17,374.489" style="fill:none;fill-rule:evenodd;stroke:#0000FF;stroke-width:2.0px;stroke-linecap:butt;stroke-linejoin:miter;stroke-opacity:1"/>
<path class="bond-25" d="M 2796.78,378.466 L 2845.96,356.718" style="fill:none;fill-rule:evenodd;stroke:#0000FF;stroke-width:2.0px;stroke-linecap:butt;stroke-linejoin:miter;stroke-opacity:1"/>
<path class="bond-25" d="M 2845.96,356.718 L 2895.13,334.97" style="fill:none;fill-rule:evenodd;stroke:#000000;stroke-width:2.0px;stroke-linecap:butt;stroke-linejoin:miter;stroke-opacity:1"/>
<path class="bond-26" d="M 2895.13,334.97 L 2908.25,213.04" style="fill:none;fill-rule:evenodd;stroke:#000000;stroke-width:2.0px;stroke-linecap:butt;stroke-linejoin:miter;stroke-opacity:1"/>
<path class="bond-26" d="M 2921.48,319.304 L 2930.67,233.954" style="fill:none;fill-rule:evenodd;stroke:#000000;stroke-width:2.0px;stroke-linecap:butt;stroke-linejoin:miter;stroke-opacity:1;stroke-dasharray:6,6"/>
<path class="bond-39" d="M 2895.13,334.97 L 2994.16,407.296" style="fill:none;fill-rule:evenodd;stroke:#000000;stroke-width:2.0px;stroke-linecap:butt;stroke-linejoin:miter;stroke-opacity:1"/>
<path class="bond-39" d="M 2924.45,326.012 L 2993.77,376.641" style="fill:none;fill-rule:evenodd;stroke:#000000;stroke-width:2.0px;stroke-linecap:butt;stroke-linejoin:miter;stroke-opacity:1;stroke-dasharray:6,6"/>
<path class="bond-27" d="M 2908.25,213.04 L 3020.4,163.438" style="fill:none;fill-rule:evenodd;stroke:#000000;stroke-width:2.0px;stroke-linecap:butt;stroke-linejoin:miter;stroke-opacity:1"/>
<path class="bond-27" d="M 2934.99,228.031 L 3013.5,193.309" style="fill:none;fill-rule:evenodd;stroke:#000000;stroke-width:2.0px;stroke-linecap:butt;stroke-linejoin:miter;stroke-opacity:1;stroke-dasharray:6,6"/>
<path class="bond-28" d="M 3020.4,163.438 L 3119.44,235.765" style="fill:none;fill-rule:evenodd;stroke:#000000;stroke-width:2.0px;stroke-linecap:butt;stroke-linejoin:miter;stroke-opacity:1"/>
<path class="bond-28" d="M 3020.79,194.094 L 3090.12,244.723" style="fill:none;fill-rule:evenodd;stroke:#000000;stroke-width:2.0px;stroke-linecap:butt;stroke-linejoin:miter;stroke-opacity:1;stroke-dasharray:6,6"/>
<path class="bond-29" d="M 3119.44,235.765 L 3231.59,186.163" style="fill:none;fill-rule:evenodd;stroke:#000000;stroke-width:2.0px;stroke-linecap:butt;stroke-linejoin:miter;stroke-opacity:1"/>
<path class="bond-37" d="M 3119.44,235.765 L 3106.32,357.694" style="fill:none;fill-rule:evenodd;stroke:#000000;stroke-width:2.0px;stroke-linecap:butt;stroke-linejoin:miter;stroke-opacity:1"/>
<path class="bond-37" d="M 3093.08,251.431 L 3083.9,336.781" style="fill:none;fill-rule:evenodd;stroke:#000000;stroke-width:2.0px;stroke-linecap:butt;stroke-linejoin:miter;stroke-opacity:1;stroke-dasharray:6,6"/>
<path class="bond-30" d="M 3243.78,187.475 L 3249.38,135.423" style="fill:none;fill-rule:evenodd;stroke:#000000;stroke-width:2.0px;stroke-linecap:butt;stroke-linejoin:miter;stroke-opacity:1"/>
<path class="bond-30" d="M 3249.38,135.423 L 3254.99,83.3719" style="fill:none;fill-rule:evenodd;stroke:#FF0000;stroke-width:2.0px;stroke-linecap:butt;stroke-linejoin:miter;stroke-opacity:1"/>
<path class="bond-30" d="M 3219.4,184.851 L 3225,132.799" style="fill:none;fill-rule:evenodd;stroke:#000000;stroke-width:2.0px;stroke-linecap:butt;stroke-linejoin:miter;stroke-opacity:1"/>
<path class="bond-30" d="M 3225,132.799 L 3230.6,80.7478" style="fill:none;fill-rule:evenodd;stroke:#FF0000;stroke-width:2.0px;stroke-linecap:butt;stroke-linejoin:miter;stroke-opacity:1"/>
<path class="bond-31" d="M 3231.59,186.163 L 3330.62,258.49" style="fill:none;fill-rule:evenodd;stroke:#000000;stroke-width:2.0px;stroke-linecap:butt;stroke-linejoin:miter;stroke-opacity:1"/>
<path class="bond-32" d="M 3330.62,258.49 L 3317.5,380.419" style="fill:none;fill-rule:evenodd;stroke:#000000;stroke-width:2.0px;stroke-linecap:butt;stroke-linejoin:miter;stroke-opacity:1"/>
<path class="bond-32" d="M 3353.04,279.403 L 3343.86,364.754" style="fill:none;fill-rule:evenodd;stroke:#000000;stroke-width:2.0px;stroke-linecap:butt;stroke-linejoin:miter;stroke-opacity:1;stroke-dasharray:6,6"/>
<path class="bond-40" d="M 3330.62,258.49 L 3442.78,208.888" style="fill:none;fill-rule:evenodd;stroke:#000000;stroke-width:2.0px;stroke-linecap:butt;stroke-linejoin:miter;stroke-opacity:1"/>
<path class="bond-40" d="M 3357.37,273.481 L 3435.88,238.759" style="fill:none;fill-rule:evenodd;stroke:#000000;stroke-width:2.0px;stroke-linecap:butt;stroke-linejoin:miter;stroke-opacity:1;stroke-dasharray:6,6"/>
<path class="bond-33" d="M 3317.5,380.419 L 3416.54,452.746" style="fill:none;fill-rule:evenodd;stroke:#000000;stroke-width:2.0px;stroke-linecap:butt;stroke-linejoin:miter;stroke-opacity:1"/>
<path class="bond-33" d="M 3346.82,371.461 L 3416.15,422.09" style="fill:none;fill-rule:evenodd;stroke:#000000;stroke-width:2.0px;stroke-linecap:butt;stroke-linejoin:miter;stroke-opacity:1;stroke-dasharray:6,6"/>
<path class="bond-34" d="M 3416.54,452.746 L 3528.69,403.144" style="fill:none;fill-rule:evenodd;stroke:#000000;stroke-width:2.0px;stroke-linecap:butt;stroke-linejoin:miter;stroke-opacity:1"/>
<path class="bond-34" d="M 3423.44,422.875 L 3501.95,388.154" style="fill:none;fill-rule:evenodd;stroke:#000000;stroke-width:2.0px;stroke-linecap:butt;stroke-linejoin:miter;stroke-opacity:1;stroke-dasharray:6,6"/>
<path class="bond-35" d="M 3528.69,403.144 L 3541.81,281.215" style="fill:none;fill-rule:evenodd;stroke:#000000;stroke-width:2.0px;stroke-linecap:butt;stroke-linejoin:miter;stroke-opacity:1"/>
<path class="bond-35" d="M 3506.27,382.231 L 3515.46,296.88" style="fill:none;fill-rule:evenodd;stroke:#000000;stroke-width:2.0px;stroke-linecap:butt;stroke-linejoin:miter;stroke-opacity:1;stroke-dasharray:6,6"/>
<path class="bond-36" d="M 3541.81,281.215 L 3442.78,208.888" style="fill:none;fill-rule:evenodd;stroke:#000000;stroke-width:2.0px;stroke-linecap:butt;stroke-linejoin:miter;stroke-opacity:1"/>
<path class="bond-36" d="M 3512.49,290.173 L 3443.17,239.544" style="fill:none;fill-rule:evenodd;stroke:#000000;stroke-width:2.0px;stroke-linecap:butt;stroke-linejoin:miter;stroke-opacity:1;stroke-dasharray:6,6"/>
<path class="bond-38" d="M 3106.32,357.694 L 2994.16,407.296" style="fill:none;fill-rule:evenodd;stroke:#000000;stroke-width:2.0px;stroke-linecap:butt;stroke-linejoin:miter;stroke-opacity:1"/>
<path class="bond-38" d="M 3079.57,342.704 L 3001.07,377.425" style="fill:none;fill-rule:evenodd;stroke:#000000;stroke-width:2.0px;stroke-linecap:butt;stroke-linejoin:miter;stroke-opacity:1;stroke-dasharray:6,6"/>
<path class="bond-41" d="M 2308.44,154.989 L 2280.85,202.781" style="fill:none;fill-rule:evenodd;stroke:#000000;stroke-width:2.0px;stroke-linecap:butt;stroke-linejoin:miter;stroke-opacity:1"/>
<path class="bond-41" d="M 2291.55,154.8 L 2272.24,188.254" style="fill:none;fill-rule:evenodd;stroke:#000000;stroke-width:2.0px;stroke-linecap:butt;stroke-linejoin:miter;stroke-opacity:1;stroke-dasharray:6,6"/>
<path class="bond-46" d="M 2308.44,154.989 L 2280.85,107.198" style="fill:none;fill-rule:evenodd;stroke:#000000;stroke-width:2.0px;stroke-linecap:butt;stroke-linejoin:miter;stroke-opacity:1"/>
<path class="bond-46" d="M 2291.55,155.179 L 2272.24,121.725" style="fill:none;fill-rule:evenodd;stroke:#000000;stroke-width:2.0px;stroke-linecap:butt;stroke-linejoin:miter;stroke-opacity:1;stroke-dasharray:6,6"/>
<path class="bond-42" d="M 2280.85,202.781 L 2225.66,202.781" style="fill:none;fill-rule:evenodd;stroke:#000000;stroke-width:2.0px;stroke-linecap:butt;stroke-linejoin:miter;stroke-opacity:1"/>
<path class="bond-42" d="M 2272.57,188.065 L 2233.94,188.065" style="fill:none;fill-rule:evenodd;stroke:#000000;stroke-width:2.0px;stroke-linecap:butt;stroke-linejoin:miter;stroke-opacity:1;stroke-dasharray:6,6"/>
<path class="bond-43" d="M 2225.66,202.781 L 2198.07,154.989" style="fill:none;fill-rule:evenodd;stroke:#000000;stroke-width:2.0px;stroke-linecap:butt;stroke-linejoin:miter;stroke-opacity:1"/>
<path class="bond-43" d="M 2234.27,188.254 L 2214.95,154.8" style="fill:none;fill-rule:evenodd;stroke:#000000;stroke-width:2.0px;stroke-linecap:butt;stroke-linejoin:miter;stroke-opacity:1;stroke-dasharray:6,6"/>
<path class="bond-44" d="M 2198.07,154.989 L 2225.66,107.198" style="fill:none;fill-rule:evenodd;stroke:#000000;stroke-width:2.0px;stroke-linecap:butt;stroke-linejoin:miter;stroke-opacity:1"/>
<path class="bond-44" d="M 2214.95,155.179 L 2234.27,121.725" style="fill:none;fill-rule:evenodd;stroke:#000000;stroke-width:2.0px;stroke-linecap:butt;stroke-linejoin:miter;stroke-opacity:1;stroke-dasharray:6,6"/>
<path class="bond-45" d="M 2225.66,107.198 L 2280.85,107.198" style="fill:none;fill-rule:evenodd;stroke:#000000;stroke-width:2.0px;stroke-linecap:butt;stroke-linejoin:miter;stroke-opacity:1"/>
<path class="bond-45" d="M 2233.94,121.914 L 2272.57,121.914" style="fill:none;fill-rule:evenodd;stroke:#000000;stroke-width:2.0px;stroke-linecap:butt;stroke-linejoin:miter;stroke-opacity:1;stroke-dasharray:6,6"/>
<path class="atom-2" d="M 526.865 402.647 Q 526.865 395.847, 530.225 392.047 Q 533.585 388.247, 539.865 388.247 Q 546.145 388.247, 549.505 392.047 Q 552.865 395.847, 552.865 402.647 Q 552.865 409.527, 549.465 413.447 Q 546.065 417.327, 539.865 417.327 Q 533.625 417.327, 530.225 413.447 Q 526.865 409.567, 526.865 402.647 M 539.865 414.127 Q 544.185 414.127, 546.505 411.247 Q 548.865 408.327, 548.865 402.647 Q 548.865 397.087, 546.505 394.287 Q 544.185 391.447, 539.865 391.447 Q 535.545 391.447, 533.185 394.247 Q 530.865 397.047, 530.865 402.647 Q 530.865 408.367, 533.185 411.247 Q 535.545 414.127, 539.865 414.127 " fill="#FF0000"/>
<path class="atom-3" d="M 633.068 218.697 Q 633.068 211.897, 636.428 208.097 Q 639.788 204.297, 646.068 204.297 Q 652.348 204.297, 655.708 208.097 Q 659.068 211.897, 659.068 218.697 Q 659.068 225.577, 655.668 229.497 Q 652.268 233.377, 646.068 233.377 Q 639.828 233.377, 636.428 229.497 Q 633.068 225.617, 633.068 218.697 M 646.068 230.177 Q 650.388 230.177, 652.708 227.297 Q 655.068 224.377, 655.068 218.697 Q 655.068 213.137, 652.708 210.337 Q 650.388 207.497, 646.068 207.497 Q 641.748 207.497, 639.388 210.297 Q 637.068 213.097, 637.068 218.697 Q 637.068 224.417, 639.388 227.297 Q 641.748 230.177, 646.068 230.177 " fill="#FF0000"/>
<path class="atom-6" d="M 739.271 402.647 Q 739.271 395.847, 742.631 392.047 Q 745.991 388.247, 752.271 388.247 Q 758.551 388.247, 761.911 392.047 Q 765.271 395.847, 765.271 402.647 Q 765.271 409.527, 761.871 413.447 Q 758.471 417.327, 752.271 417.327 Q 746.031 417.327, 742.631 413.447 Q 739.271 409.567, 739.271 402.647 M 752.271 414.127 Q 756.591 414.127, 758.911 411.247 Q 761.271 408.327, 761.271 402.647 Q 761.271 397.087, 758.911 394.287 Q 756.591 391.447, 752.271 391.447 Q 747.951 391.447, 745.591 394.247 Q 743.271 397.047, 743.271 402.647 Q 743.271 408.367, 745.591 411.247 Q 747.951 414.127, 752.271 414.127 " fill="#FF0000"/>
<path class="atom-7" d="M 1142.35 375.864 L 1146.19 375.864 L 1146.19 387.904 L 1160.67 387.904 L 1160.67 375.864 L 1164.51 375.864 L 1164.51 404.184 L 1160.67 404.184 L 1160.67 391.104 L 1146.19 391.104 L 1146.19 404.184 L 1142.35 404.184 L 1142.35 375.864 " fill="#0000FF"/>
<path class="atom-7" d="M 1165.89 403.19 Q 1166.57 401.421, 1168.21 400.445 Q 1169.85 399.441, 1172.12 399.441 Q 1174.94 399.441, 1176.52 400.973 Q 1178.11 402.504, 1178.11 405.223 Q 1178.11 407.995, 1176.05 410.582 Q 1174.02 413.169, 1169.79 416.232 L 1178.43 416.232 L 1178.43 418.344 L 1165.83 418.344 L 1165.83 416.575 Q 1169.32 414.093, 1171.38 412.245 Q 1173.46 410.397, 1174.47 408.734 Q 1175.47 407.071, 1175.47 405.355 Q 1175.47 403.56, 1174.57 402.557 Q 1173.67 401.553, 1172.12 401.553 Q 1170.61 401.553, 1169.61 402.161 Q 1168.6 402.768, 1167.89 404.114 L 1165.89 403.19 " fill="#0000FF"/>
<path class="atom-7" d="M 1186.23 375.864 L 1195.51 390.864 Q 1196.43 392.344, 1197.91 395.024 Q 1199.39 397.704, 1199.47 397.864 L 1199.47 375.864 L 1203.23 375.864 L 1203.23 404.184 L 1199.35 404.184 L 1189.39 387.784 Q 1188.23 385.864, 1186.99 383.664 Q 1185.79 381.464, 1185.43 380.784 L 1185.43 404.184 L 1181.75 404.184 L 1181.75 375.864 L 1186.23 375.864 " fill="#0000FF"/>
<path class="atom-13" d="M 1636.81 63.5061 Q 1636.81 56.7061, 1640.17 52.9061 Q 1643.53 49.1061, 1649.81 49.1061 Q 1656.09 49.1061, 1659.45 52.9061 Q 1662.81 56.7061, 1662.81 63.5061 Q 1662.81 70.3861, 1659.41 74.3061 Q 1656.01 78.1861, 1649.81 78.1861 Q 1643.57 78.1861, 1640.17 74.3061 Q 1636.81 70.4261, 1636.81 63.5061 M 1649.81 74.9861 Q 1654.13 74.9861, 1656.45 72.1061 Q 1658.81 69.1861, 1658.81 63.5061 Q 1658.81 57.9461, 1656.45 55.1461 Q 1654.13 52.3061, 1649.81 52.3061 Q 1645.49 52.3061, 1643.13 55.1061 Q 1640.81 57.9061, 1640.81 63.5061 Q 1640.81 69.2261, 1643.13 72.1061 Q 1645.49 74.9861, 1649.81 74.9861 " fill="#FF0000"/>
<path class="atom-24" d="M 2684.06 190.396 Q 2684.06 183.596, 2687.42 179.796 Q 2690.78 175.996, 2697.06 175.996 Q 2703.34 175.996, 2706.7 179.796 Q 2710.06 183.596, 2710.06 190.396 Q 2710.06 197.276, 2706.66 201.196 Q 2703.26 205.076, 2697.06 205.076 Q 2690.82 205.076, 2687.42 201.196 Q 2684.06 197.316, 2684.06 190.396 M 2697.06 201.876 Q 2701.38 201.876, 2703.7 198.996 Q 2706.06 196.076, 2706.06 190.396 Q 2706.06 184.836, 2703.7 182.036 Q 2701.38 179.196, 2697.06 179.196 Q 2692.74 179.196, 2690.38 181.996 Q 2688.06 184.796, 2688.06 190.396 Q 2688.06 196.116, 2690.38 198.996 Q 2692.74 201.876, 2697.06 201.876 " fill="#FF0000"/>
<path class="atom-25" d="M 2776.72 370.412 L 2786 385.412 Q 2786.92 386.892, 2788.4 389.572 Q 2789.88 392.252, 2789.96 392.412 L 2789.96 370.412 L 2793.72 370.412 L 2793.72 398.732 L 2789.84 398.732 L 2779.88 382.332 Q 2778.72 380.412, 2777.48 378.212 Q 2776.28 376.012, 2775.92 375.332 L 2775.92 398.732 L 2772.24 398.732 L 2772.24 370.412 L 2776.72 370.412 " fill="#0000FF"/>
<path class="atom-25" d="M 2771.9 401.564 L 2775.74 401.564 L 2775.74 413.604 L 2790.22 413.604 L 2790.22 401.564 L 2794.06 401.564 L 2794.06 429.884 L 2790.22 429.884 L 2790.22 416.804 L 2775.74 416.804 L 2775.74 429.884 L 2771.9 429.884 L 2771.9 401.564 " fill="#0000FF"/>
<path class="atom-31" d="M 3231.71 64.314 Q 3231.71 57.514, 3235.07 53.714 Q 3238.43 49.914, 3244.71 49.914 Q 3250.99 49.914, 3254.35 53.714 Q 3257.71 57.514, 3257.71 64.314 Q 3257.71 71.194, 3254.31 75.114 Q 3250.91 78.994, 3244.71 78.994 Q 3238.47 78.994, 3235.07 75.114 Q 3231.71 71.234, 3231.71 64.314 M 3244.71 75.794 Q 3249.03 75.794, 3251.35 72.914 Q 3253.71 69.994, 3253.71 64.314 Q 3253.71 58.754, 3251.35 55.954 Q 3249.03 53.114, 3244.71 53.114 Q 3240.39 53.114, 3238.03 55.914 Q 3235.71 58.714, 3235.71 64.314 Q 3235.71 70.034, 3238.03 72.914 Q 3240.39 75.794, 3244.71 75.794 " fill="#FF0000"/>
<path class="note" d="M 747.541 255.175 Q 748.061 253.835, 749.301 253.095 Q 750.541 252.335, 752.261 252.335 Q 754.401 252.335, 755.601 253.495 Q 756.801 254.655, 756.801 256.715 Q 756.801 258.815, 755.241 260.775 Q 753.701 262.735, 750.501 265.055 L 757.041 265.055 L 757.041 266.655 L 747.501 266.655 L 747.501 265.315 Q 750.141 263.435, 751.701 262.035 Q 753.281 260.635, 754.041 259.375 Q 754.801 258.115, 754.801 256.815 Q 754.801 255.455, 754.121 254.695 Q 753.441 253.935, 752.261 253.935 Q 751.121 253.935, 750.361 254.395 Q 749.601 254.855, 749.061 255.875 L 747.541 255.175 " fill="#000000"/>
<path class="note" d="M 844.765 206.437 L 847.865 206.437 L 847.865 195.857 L 844.445 196.917 L 843.985 195.737 L 848.325 193.797 L 849.745 194.037 L 849.745 206.437 L 852.525 206.437 L 852.525 208.037 L 844.765 208.037 L 844.765 206.437 " fill="#000000"/>
<path class="note" d="M 754.311 443.145 Q 755.691 443.545, 756.351 444.445 Q 757.031 445.325, 757.031 446.725 Q 757.031 447.925, 756.431 448.865 Q 755.831 449.785, 754.731 450.305 Q 753.631 450.805, 752.191 450.805 Q 750.671 450.805, 749.531 450.285 Q 748.411 449.745, 747.511 448.665 L 748.651 447.505 Q 749.531 448.465, 750.271 448.845 Q 751.011 449.205, 752.191 449.205 Q 753.471 449.205, 754.251 448.525 Q 755.031 447.825, 755.031 446.705 Q 755.031 445.265, 754.211 444.625 Q 753.411 443.965, 751.671 443.965 L 750.651 443.965 L 750.651 442.525 L 751.551 442.525 Q 753.091 442.505, 753.911 441.845 Q 754.731 441.165, 754.731 439.905 Q 754.731 438.985, 754.051 438.445 Q 753.371 437.885, 752.211 437.885 Q 751.031 437.885, 750.291 438.305 Q 749.571 438.725, 749.011 439.785 L 747.631 439.045 Q 748.131 437.865, 749.331 437.085 Q 750.531 436.285, 752.211 436.285 Q 754.291 436.285, 755.511 437.265 Q 756.731 438.245, 756.731 439.905 Q 756.731 441.045, 756.111 441.865 Q 755.491 442.685, 754.311 443.145 " fill="#000000"/>
<path class="note" d="M 1192.42 432.943 L 1194.12 432.943 L 1194.12 434.543 L 1192.42 434.543 L 1192.42 437.803 L 1190.54 437.803 L 1190.54 434.543 L 1183.22 434.543 L 1183.22 433.283 L 1189.42 423.643 L 1192.42 423.643 L 1192.42 432.943 M 1185.54 432.943 L 1190.54 432.943 L 1190.54 424.923 L 1185.54 432.943 " fill="#000000"/>
<path class="note" d="M 1287.63 325.29 Q 1288.87 325.29, 1289.89 325.83 Q 1290.91 326.35, 1291.49 327.35 Q 1292.07 328.33, 1292.07 329.67 Q 1292.07 331.13, 1291.35 332.19 Q 1290.65 333.23, 1289.49 333.77 Q 1288.33 334.31, 1287.01 334.31 Q 1285.71 334.31, 1284.51 333.83 Q 1283.31 333.35, 1282.49 332.43 L 1283.69 331.19 Q 1284.35 331.91, 1285.25 332.31 Q 1286.15 332.69, 1287.07 332.69 Q 1288.33 332.69, 1289.19 331.91 Q 1290.07 331.13, 1290.07 329.71 Q 1290.07 328.21, 1289.19 327.51 Q 1288.33 326.79, 1286.95 326.79 Q 1285.71 326.79, 1284.33 327.33 L 1283.23 326.81 L 1283.91 319.99 L 1291.19 319.99 L 1290.99 321.59 L 1285.55 321.59 L 1285.13 325.79 Q 1286.39 325.29, 1287.63 325.29 " fill="#000000"/>
<path class="note" d="M 1299.37 203.293 Q 1300.61 203.293, 1301.59 203.833 Q 1302.57 204.373, 1303.11 205.353 Q 1303.65 206.333, 1303.65 207.573 Q 1303.65 208.953, 1303.03 210.033 Q 1302.43 211.093, 1301.35 211.693 Q 1300.27 212.293, 1298.89 212.293 Q 1296.37 212.293, 1295.09 210.593 Q 1293.83 208.873, 1293.83 205.473 Q 1293.83 201.713, 1295.39 199.773 Q 1296.97 197.813, 1299.99 197.813 Q 1300.87 197.813, 1301.61 198.013 Q 1302.37 198.213, 1303.09 198.633 L 1302.31 199.973 Q 1301.27 199.413, 1300.01 199.413 Q 1298.01 199.413, 1296.99 200.713 Q 1295.97 201.993, 1295.85 204.653 Q 1296.57 203.993, 1297.47 203.653 Q 1298.39 203.293, 1299.37 203.293 M 1298.91 210.653 Q 1299.67 210.653, 1300.29 210.253 Q 1300.93 209.853, 1301.29 209.153 Q 1301.65 208.453, 1301.65 207.593 Q 1301.65 206.333, 1300.95 205.613 Q 1300.25 204.893, 1299.01 204.893 Q 1298.15 204.893, 1297.29 205.253 Q 1296.45 205.593, 1295.85 206.193 Q 1295.93 208.533, 1296.67 209.593 Q 1297.41 210.653, 1298.91 210.653 " fill="#000000"/>
<path class="note" d="M 1431.51 139.847 L 1424.09 139.847 L 1424.09 138.247 L 1433.49 138.247 L 1433.49 139.667 L 1427.77 152.407 L 1425.85 152.407 L 1431.51 139.847 " fill="#000000"/>
<path class="note" d="M 1531.02 215.958 Q 1532.32 216.518, 1533.06 217.358 Q 1533.8 218.178, 1533.8 219.578 Q 1533.8 220.778, 1533.18 221.718 Q 1532.56 222.638, 1531.44 223.158 Q 1530.34 223.658, 1528.88 223.658 Q 1526.52 223.658, 1525.16 222.578 Q 1523.8 221.478, 1523.8 219.578 Q 1523.8 218.418, 1524.4 217.558 Q 1525 216.678, 1526.24 216.018 Q 1525.32 215.498, 1524.82 214.738 Q 1524.32 213.958, 1524.32 212.758 Q 1524.32 211.098, 1525.52 210.118 Q 1526.74 209.138, 1528.8 209.138 Q 1530.86 209.138, 1532.06 210.118 Q 1533.28 211.098, 1533.28 212.758 Q 1533.28 213.798, 1532.7 214.578 Q 1532.14 215.338, 1531.02 215.958 M 1528.8 210.638 Q 1527.62 210.638, 1526.96 211.198 Q 1526.32 211.758, 1526.32 212.758 Q 1526.32 213.498, 1526.76 213.998 Q 1527.2 214.478, 1527.82 214.758 Q 1528.46 215.038, 1529.68 215.458 Q 1530.54 214.858, 1530.9 214.218 Q 1531.28 213.578, 1531.28 212.758 Q 1531.28 211.758, 1530.62 211.198 Q 1529.98 210.638, 1528.8 210.638 M 1528.88 222.158 Q 1530.2 222.158, 1531 221.458 Q 1531.8 220.738, 1531.8 219.558 Q 1531.8 218.798, 1531.38 218.318 Q 1530.96 217.838, 1530.32 217.558 Q 1529.7 217.278, 1528.58 216.918 L 1527.68 216.618 Q 1526.68 217.218, 1526.24 217.938 Q 1525.8 218.638, 1525.8 219.558 Q 1525.8 220.738, 1526.64 221.458 Q 1527.48 222.158, 1528.88 222.158 " fill="#000000"/>
<path class="note" d="M 1636.3 198.712 Q 1638.82 198.712, 1640.08 200.432 Q 1641.36 202.132, 1641.36 205.532 Q 1641.36 209.292, 1639.78 211.252 Q 1638.22 213.192, 1635.2 213.192 Q 1634.32 213.192, 1633.56 212.992 Q 1632.82 212.792, 1632.1 212.372 L 1632.88 211.032 Q 1633.92 211.592, 1635.18 211.592 Q 1637.18 211.592, 1638.2 210.312 Q 1639.22 209.012, 1639.34 206.352 Q 1638.62 207.012, 1637.7 207.372 Q 1636.8 207.712, 1635.82 207.712 Q 1634.58 207.712, 1633.6 207.172 Q 1632.62 206.632, 1632.08 205.652 Q 1631.54 204.672, 1631.54 203.432 Q 1631.54 202.052, 1632.14 200.992 Q 1632.76 199.912, 1633.84 199.312 Q 1634.92 198.712, 1636.3 198.712 M 1633.54 203.412 Q 1633.54 204.672, 1634.24 205.392 Q 1634.94 206.112, 1636.18 206.112 Q 1637.04 206.112, 1637.88 205.772 Q 1638.74 205.412, 1639.34 204.812 Q 1639.26 202.472, 1638.52 201.412 Q 1637.78 200.352, 1636.28 200.352 Q 1635.52 200.352, 1634.88 200.752 Q 1634.26 201.152, 1633.9 201.852 Q 1633.54 202.552, 1633.54 203.412 " fill="#000000"/>
<path class="note" d="M 1640.08 28.2873 L 1643.18 28.2873 L 1643.18 17.7073 L 1639.76 18.7673 L 1639.3 17.5873 L 1643.64 15.6473 L 1645.06 15.8873 L 1645.06 28.2873 L 1647.84 28.2873 L 1647.84 29.8873 L 1640.08 29.8873 L 1640.08 28.2873 " fill="#000000"/>
<path class="note" d="M 1654.24 30.0473 Q 1651.64 30.0473, 1650.34 28.1273 Q 1649.06 26.2073, 1649.06 22.7873 Q 1649.06 19.3673, 1650.34 17.4673 Q 1651.62 15.5673, 1654.24 15.5673 Q 1656.86 15.5673, 1658.14 17.4673 Q 1659.42 19.3673, 1659.42 22.7873 Q 1659.42 26.2073, 1658.12 28.1273 Q 1656.84 30.0473, 1654.24 30.0473 M 1654.24 28.4473 Q 1655.78 28.4473, 1656.6 27.0273 Q 1657.42 25.5873, 1657.42 22.7873 Q 1657.42 20.0073, 1656.6 18.5873 Q 1655.78 17.1673, 1654.24 17.1673 Q 1652.72 17.1673, 1651.88 18.5873 Q 1651.06 20.0073, 1651.06 22.7873 Q 1651.06 25.5873, 1651.88 27.0273 Q 1652.72 28.4473, 1654.24 28.4473 " fill="#000000"/>
<path class="note" d="M 1707.22 270.535 L 1710.32 270.535 L 1710.32 259.955 L 1706.9 261.015 L 1706.44 259.835 L 1710.78 257.895 L 1712.2 258.135 L 1712.2 270.535 L 1714.98 270.535 L 1714.98 272.135 L 1707.22 272.135 L 1707.22 270.535 " fill="#000000"/>
<path class="note" d="M 1716.84 270.535 L 1719.94 270.535 L 1719.94 259.955 L 1716.52 261.015 L 1716.06 259.835 L 1720.4 257.895 L 1721.82 258.135 L 1721.82 270.535 L 1724.6 270.535 L 1724.6 272.135 L 1716.84 272.135 L 1716.84 270.535 " fill="#000000"/>
<path class="note" d="M 1695.3 392.671 L 1698.4 392.671 L 1698.4 382.091 L 1694.98 383.151 L 1694.52 381.971 L 1698.86 380.031 L 1700.28 380.271 L 1700.28 392.671 L 1703.06 392.671 L 1703.06 394.271 L 1695.3 394.271 L 1695.3 392.671 " fill="#000000"/>
<path class="note" d="M 1704.1 382.791 Q 1704.62 381.451, 1705.86 380.711 Q 1707.1 379.951, 1708.82 379.951 Q 1710.96 379.951, 1712.16 381.111 Q 1713.36 382.271, 1713.36 384.331 Q 1713.36 386.431, 1711.8 388.391 Q 1710.26 390.351, 1707.06 392.671 L 1713.6 392.671 L 1713.6 394.271 L 1704.06 394.271 L 1704.06 392.931 Q 1706.7 391.051, 1708.26 389.651 Q 1709.84 388.251, 1710.6 386.991 Q 1711.36 385.731, 1711.36 384.431 Q 1711.36 383.071, 1710.68 382.311 Q 1710 381.551, 1708.82 381.551 Q 1707.68 381.551, 1706.92 382.011 Q 1706.16 382.471, 1705.62 383.491 L 1704.1 382.791 " fill="#000000"/>
<path class="note" d="M 1812.07 475.471 L 1815.17 475.471 L 1815.17 464.891 L 1811.75 465.951 L 1811.29 464.771 L 1815.63 462.831 L 1817.05 463.071 L 1817.05 475.471 L 1819.83 475.471 L 1819.83 477.071 L 1812.07 477.071 L 1812.07 475.471 " fill="#000000"/>
<path class="note" d="M 1827.47 469.611 Q 1828.85 470.011, 1829.51 470.911 Q 1830.19 471.791, 1830.19 473.191 Q 1830.19 474.391, 1829.59 475.331 Q 1828.99 476.251, 1827.89 476.771 Q 1826.79 477.271, 1825.35 477.271 Q 1823.83 477.271, 1822.69 476.751 Q 1821.57 476.211, 1820.67 475.131 L 1821.81 473.971 Q 1822.69 474.931, 1823.43 475.311 Q 1824.17 475.671, 1825.35 475.671 Q 1826.63 475.671, 1827.41 474.991 Q 1828.19 474.291, 1828.19 473.171 Q 1828.19 471.731, 1827.37 471.091 Q 1826.57 470.431, 1824.83 470.431 L 1823.81 470.431 L 1823.81 468.991 L 1824.71 468.991 Q 1826.25 468.971, 1827.07 468.311 Q 1827.89 467.631, 1827.89 466.371 Q 1827.89 465.451, 1827.21 464.911 Q 1826.53 464.351, 1825.37 464.351 Q 1824.19 464.351, 1823.45 464.771 Q 1822.73 465.191, 1822.17 466.251 L 1820.79 465.511 Q 1821.29 464.331, 1822.49 463.551 Q 1823.69 462.751, 1825.37 462.751 Q 1827.45 462.751, 1828.67 463.731 Q 1829.89 464.711, 1829.89 466.371 Q 1829.89 467.511, 1829.27 468.331 Q 1828.65 469.151, 1827.47 469.611 " fill="#000000"/>
<path class="note" d="M 1933.4 422.534 L 1936.5 422.534 L 1936.5 411.954 L 1933.08 413.014 L 1932.62 411.834 L 1936.96 409.894 L 1938.38 410.134 L 1938.38 422.534 L 1941.16 422.534 L 1941.16 424.134 L 1933.4 424.134 L 1933.4 422.534 " fill="#000000"/>
<path class="note" d="M 1950.96 419.274 L 1952.66 419.274 L 1952.66 420.874 L 1950.96 420.874 L 1950.96 424.134 L 1949.08 424.134 L 1949.08 420.874 L 1941.76 420.874 L 1941.76 419.614 L 1947.96 409.974 L 1950.96 409.974 L 1950.96 419.274 M 1944.08 419.274 L 1949.08 419.274 L 1949.08 411.254 L 1944.08 419.274 " fill="#000000"/>
<path class="note" d="M 1957.18 283.769 L 1960.28 283.769 L 1960.28 273.189 L 1956.86 274.249 L 1956.4 273.069 L 1960.74 271.129 L 1962.16 271.369 L 1962.16 283.769 L 1964.94 283.769 L 1964.94 285.369 L 1957.18 285.369 L 1957.18 283.769 " fill="#000000"/>
<path class="note" d="M 1971 276.509 Q 1972.24 276.509, 1973.26 277.049 Q 1974.28 277.569, 1974.86 278.569 Q 1975.44 279.549, 1975.44 280.889 Q 1975.44 282.349, 1974.72 283.409 Q 1974.02 284.449, 1972.86 284.989 Q 1971.7 285.529, 1970.38 285.529 Q 1969.08 285.529, 1967.88 285.049 Q 1966.68 284.569, 1965.86 283.649 L 1967.06 282.409 Q 1967.72 283.129, 1968.62 283.529 Q 1969.52 283.909, 1970.44 283.909 Q 1971.7 283.909, 1972.56 283.129 Q 1973.44 282.349, 1973.44 280.929 Q 1973.44 279.429, 1972.56 278.729 Q 1971.7 278.009, 1970.32 278.009 Q 1969.08 278.009, 1967.7 278.549 L 1966.6 278.029 L 1967.28 271.209 L 1974.56 271.209 L 1974.36 272.809 L 1968.92 272.809 L 1968.5 277.009 Q 1969.76 276.509, 1971 276.509 " fill="#000000"/>
<path class="note" d="M 1838.39 190.579 L 1841.49 190.579 L 1841.49 179.999 L 1838.07 181.059 L 1837.61 179.879 L 1841.95 177.939 L 1843.37 178.179 L 1843.37 190.579 L 1846.15 190.579 L 1846.15 192.179 L 1838.39 192.179 L 1838.39 190.579 " fill="#000000"/>
<path class="note" d="M 1853.05 183.339 Q 1854.29 183.339, 1855.27 183.879 Q 1856.25 184.419, 1856.79 185.399 Q 1857.33 186.379, 1857.33 187.619 Q 1857.33 188.999, 1856.71 190.079 Q 1856.11 191.139, 1855.03 191.739 Q 1853.95 192.339, 1852.57 192.339 Q 1850.05 192.339, 1848.77 190.639 Q 1847.51 188.919, 1847.51 185.519 Q 1847.51 181.759, 1849.07 179.819 Q 1850.65 177.859, 1853.67 177.859 Q 1854.55 177.859, 1855.29 178.059 Q 1856.05 178.259, 1856.77 178.679 L 1855.99 180.019 Q 1854.95 179.459, 1853.69 179.459 Q 1851.69 179.459, 1850.67 180.759 Q 1849.65 182.039, 1849.53 184.699 Q 1850.25 184.039, 1851.15 183.699 Q 1852.07 183.339, 1853.05 183.339 M 1852.59 190.699 Q 1853.35 190.699, 1853.97 190.299 Q 1854.61 189.899, 1854.97 189.199 Q 1855.33 188.499, 1855.33 187.639 Q 1855.33 186.379, 1854.63 185.659 Q 1853.93 184.939, 1852.69 184.939 Q 1851.83 184.939, 1850.97 185.299 Q 1850.13 185.639, 1849.53 186.239 Q 1849.61 188.579, 1850.35 189.639 Q 1851.09 190.699, 1852.59 190.699 " fill="#000000"/>
<path class="note" d="M 1511.31 382.842 L 1514.41 382.842 L 1514.41 372.262 L 1510.99 373.322 L 1510.53 372.142 L 1514.87 370.202 L 1516.29 370.442 L 1516.29 382.842 L 1519.07 382.842 L 1519.07 384.442 L 1511.31 384.442 L 1511.31 382.842 " fill="#000000"/>
<path class="note" d="M 1526.85 371.882 L 1519.43 371.882 L 1519.43 370.282 L 1528.83 370.282 L 1528.83 371.702 L 1523.11 384.442 L 1521.19 384.442 L 1526.85 371.882 " fill="#000000"/>
<path class="note" d="M 1388.67 435.779 L 1391.77 435.779 L 1391.77 425.199 L 1388.35 426.259 L 1387.89 425.079 L 1392.23 423.139 L 1393.65 423.379 L 1393.65 435.779 L 1396.43 435.779 L 1396.43 437.379 L 1388.67 437.379 L 1388.67 435.779 " fill="#000000"/>
<path class="note" d="M 1404.89 429.879 Q 1406.19 430.439, 1406.93 431.279 Q 1407.67 432.099, 1407.67 433.499 Q 1407.67 434.699, 1407.05 435.639 Q 1406.43 436.559, 1405.31 437.079 Q 1404.21 437.579, 1402.75 437.579 Q 1400.39 437.579, 1399.03 436.499 Q 1397.67 435.399, 1397.67 433.499 Q 1397.67 432.339, 1398.27 431.479 Q 1398.87 430.599, 1400.11 429.939 Q 1399.19 429.419, 1398.69 428.659 Q 1398.19 427.879, 1398.19 426.679 Q 1398.19 425.019, 1399.39 424.039 Q 1400.61 423.059, 1402.67 423.059 Q 1404.73 423.059, 1405.93 424.039 Q 1407.15 425.019, 1407.15 426.679 Q 1407.15 427.719, 1406.57 428.499 Q 1406.01 429.259, 1404.89 429.879 M 1402.67 424.559 Q 1401.49 424.559, 1400.83 425.119 Q 1400.19 425.679, 1400.19 426.679 Q 1400.19 427.419, 1400.63 427.919 Q 1401.07 428.399, 1401.69 428.679 Q 1402.33 428.959, 1403.55 429.379 Q 1404.41 428.779, 1404.77 428.139 Q 1405.15 427.499, 1405.15 426.679 Q 1405.15 425.679, 1404.49 425.119 Q 1403.85 424.559, 1402.67 424.559 M 1402.75 436.079 Q 1404.07 436.079, 1404.87 435.379 Q 1405.67 434.659, 1405.67 433.479 Q 1405.67 432.719, 1405.25 432.239 Q 1404.83 431.759, 1404.19 431.479 Q 1403.57 431.199, 1402.45 430.839 L 1401.55 430.539 Q 1400.55 431.139, 1400.11 431.859 Q 1399.67 432.559, 1399.67 433.479 Q 1399.67 434.659, 1400.51 435.379 Q 1401.35 436.079, 1402.75 436.079 " fill="#000000"/>
<path class="note" d="M 2576.57 386.059 L 2579.67 386.059 L 2579.67 375.479 L 2576.25 376.539 L 2575.79 375.359 L 2580.13 373.419 L 2581.55 373.659 L 2581.55 386.059 L 2584.33 386.059 L 2584.33 387.659 L 2576.57 387.659 L 2576.57 386.059 " fill="#000000"/>
<path class="note" d="M 2677.03 328.246 Q 2677.55 326.906, 2678.79 326.166 Q 2680.03 325.406, 2681.75 325.406 Q 2683.89 325.406, 2685.09 326.566 Q 2686.29 327.726, 2686.29 329.786 Q 2686.29 331.886, 2684.73 333.846 Q 2683.19 335.806, 2679.99 338.126 L 2686.53 338.126 L 2686.53 339.726 L 2676.99 339.726 L 2676.99 338.386 Q 2679.63 336.506, 2681.19 335.106 Q 2682.77 333.706, 2683.53 332.446 Q 2684.29 331.186, 2684.29 329.886 Q 2684.29 328.526, 2683.61 327.766 Q 2682.93 327.006, 2681.75 327.006 Q 2680.61 327.006, 2679.85 327.466 Q 2679.09 327.926, 2678.55 328.946 L 2677.03 328.246 " fill="#000000"/>
<path class="note" d="M 2703.48 149.373 Q 2704.86 149.773, 2705.52 150.673 Q 2706.2 151.553, 2706.2 152.953 Q 2706.2 154.153, 2705.6 155.093 Q 2705 156.013, 2703.9 156.533 Q 2702.8 157.033, 2701.36 157.033 Q 2699.84 157.033, 2698.7 156.513 Q 2697.58 155.973, 2696.68 154.893 L 2697.82 153.733 Q 2698.7 154.693, 2699.44 155.073 Q 2700.18 155.433, 2701.36 155.433 Q 2702.64 155.433, 2703.42 154.753 Q 2704.2 154.053, 2704.2 152.933 Q 2704.2 151.493, 2703.38 150.853 Q 2702.58 150.193, 2700.84 150.193 L 2699.82 150.193 L 2699.82 148.753 L 2700.72 148.753 Q 2702.26 148.733, 2703.08 148.073 Q 2703.9 147.393, 2703.9 146.133 Q 2703.9 145.213, 2703.22 144.673 Q 2702.54 144.113, 2701.38 144.113 Q 2700.2 144.113, 2699.46 144.533 Q 2698.74 144.953, 2698.18 146.013 L 2696.8 145.273 Q 2697.3 144.093, 2698.5 143.313 Q 2699.7 142.513, 2701.38 142.513 Q 2703.46 142.513, 2704.68 143.493 Q 2705.9 144.473, 2705.9 146.133 Q 2705.9 147.273, 2705.28 148.093 Q 2704.66 148.913, 2703.48 149.373 " fill="#000000"/>
<path class="note" d="M 2819.74 410.901 L 2821.44 410.901 L 2821.44 412.501 L 2819.74 412.501 L 2819.74 415.761 L 2817.86 415.761 L 2817.86 412.501 L 2810.54 412.501 L 2810.54 411.241 L 2816.74 401.601 L 2819.74 401.601 L 2819.74 410.901 M 2812.86 410.901 L 2817.86 410.901 L 2817.86 402.881 L 2812.86 410.901 " fill="#000000"/>
<path class="note" d="M 2878.97 321.135 Q 2880.21 321.135, 2881.23 321.675 Q 2882.25 322.195, 2882.83 323.195 Q 2883.41 324.175, 2883.41 325.515 Q 2883.41 326.975, 2882.69 328.035 Q 2881.99 329.075, 2880.83 329.615 Q 2879.67 330.155, 2878.35 330.155 Q 2877.05 330.155, 2875.85 329.675 Q 2874.65 329.195, 2873.83 328.275 L 2875.03 327.035 Q 2875.69 327.755, 2876.59 328.155 Q 2877.49 328.535, 2878.41 328.535 Q 2879.67 328.535, 2880.53 327.755 Q 2881.41 326.975, 2881.41 325.555 Q 2881.41 324.055, 2880.53 323.355 Q 2879.67 322.635, 2878.29 322.635 Q 2877.05 322.635, 2875.67 323.175 L 2874.57 322.655 L 2875.25 315.835 L 2882.53 315.835 L 2882.33 317.435 L 2876.89 317.435 L 2876.47 321.635 Q 2877.73 321.135, 2878.97 321.135 " fill="#000000"/>
<path class="note" d="M 2892.37 199.306 Q 2893.61 199.306, 2894.59 199.846 Q 2895.57 200.386, 2896.11 201.366 Q 2896.65 202.346, 2896.65 203.586 Q 2896.65 204.966, 2896.03 206.046 Q 2895.43 207.106, 2894.35 207.706 Q 2893.27 208.306, 2891.89 208.306 Q 2889.37 208.306, 2888.09 206.606 Q 2886.83 204.886, 2886.83 201.486 Q 2886.83 197.726, 2888.39 195.786 Q 2889.97 193.826, 2892.99 193.826 Q 2893.87 193.826, 2894.61 194.026 Q 2895.37 194.226, 2896.09 194.646 L 2895.31 195.986 Q 2894.27 195.426, 2893.01 195.426 Q 2891.01 195.426, 2889.99 196.726 Q 2888.97 198.006, 2888.85 200.666 Q 2889.57 200.006, 2890.47 199.666 Q 2891.39 199.306, 2892.37 199.306 M 2891.91 206.666 Q 2892.67 206.666, 2893.29 206.266 Q 2893.93 205.866, 2894.29 205.166 Q 2894.65 204.466, 2894.65 203.606 Q 2894.65 202.346, 2893.95 201.626 Q 2893.25 200.906, 2892.01 200.906 Q 2891.15 200.906, 2890.29 201.266 Q 2889.45 201.606, 2888.85 202.206 Q 2888.93 204.546, 2889.67 205.606 Q 2890.41 206.666, 2891.91 206.666 " fill="#000000"/>
<path class="note" d="M 3025.31 137.637 L 3017.89 137.637 L 3017.89 136.037 L 3027.29 136.037 L 3027.29 137.457 L 3021.57 150.197 L 3019.65 150.197 L 3025.31 137.637 " fill="#000000"/>
<path class="note" d="M 3123.84 215.104 Q 3125.14 215.664, 3125.88 216.504 Q 3126.62 217.324, 3126.62 218.724 Q 3126.62 219.924, 3126 220.864 Q 3125.38 221.784, 3124.26 222.304 Q 3123.16 222.804, 3121.7 222.804 Q 3119.34 222.804, 3117.98 221.724 Q 3116.62 220.624, 3116.62 218.724 Q 3116.62 217.564, 3117.22 216.704 Q 3117.82 215.824, 3119.06 215.164 Q 3118.14 214.644, 3117.64 213.884 Q 3117.14 213.104, 3117.14 211.904 Q 3117.14 210.244, 3118.34 209.264 Q 3119.56 208.284, 3121.62 208.284 Q 3123.68 208.284, 3124.88 209.264 Q 3126.1 210.244, 3126.1 211.904 Q 3126.1 212.944, 3125.52 213.724 Q 3124.96 214.484, 3123.84 215.104 M 3121.62 209.784 Q 3120.44 209.784, 3119.78 210.344 Q 3119.14 210.904, 3119.14 211.904 Q 3119.14 212.644, 3119.58 213.144 Q 3120.02 213.624, 3120.64 213.904 Q 3121.28 214.184, 3122.5 214.604 Q 3123.36 214.004, 3123.72 213.364 Q 3124.1 212.724, 3124.1 211.904 Q 3124.1 210.904, 3123.44 210.344 Q 3122.8 209.784, 3121.62 209.784 M 3121.7 221.304 Q 3123.02 221.304, 3123.82 220.604 Q 3124.62 219.884, 3124.62 218.704 Q 3124.62 217.944, 3124.2 217.464 Q 3123.78 216.984, 3123.14 216.704 Q 3122.52 216.424, 3121.4 216.064 L 3120.5 215.764 Q 3119.5 216.364, 3119.06 217.084 Q 3118.62 217.784, 3118.62 218.704 Q 3118.62 219.884, 3119.46 220.604 Q 3120.3 221.304, 3121.7 221.304 " fill="#000000"/>
<path class="note" d="M 3229.25 199.325 Q 3231.77 199.325, 3233.03 201.045 Q 3234.31 202.745, 3234.31 206.145 Q 3234.31 209.905, 3232.73 211.865 Q 3231.17 213.805, 3228.15 213.805 Q 3227.27 213.805, 3226.51 213.605 Q 3225.77 213.405, 3225.05 212.985 L 3225.83 211.645 Q 3226.87 212.205, 3228.13 212.205 Q 3230.13 212.205, 3231.15 210.925 Q 3232.17 209.625, 3232.29 206.965 Q 3231.57 207.625, 3230.65 207.985 Q 3229.75 208.325, 3228.77 208.325 Q 3227.53 208.325, 3226.55 207.785 Q 3225.57 207.245, 3225.03 206.265 Q 3224.49 205.285, 3224.49 204.045 Q 3224.49 202.665, 3225.09 201.605 Q 3225.71 200.525, 3226.79 199.925 Q 3227.87 199.325, 3229.25 199.325 M 3226.49 204.025 Q 3226.49 205.285, 3227.19 206.005 Q 3227.89 206.725, 3229.13 206.725 Q 3229.99 206.725, 3230.83 206.385 Q 3231.69 206.025, 3232.29 205.425 Q 3232.21 203.085, 3231.47 202.025 Q 3230.73 200.965, 3229.23 200.965 Q 3228.47 200.965, 3227.83 201.365 Q 3227.21 201.765, 3226.85 202.465 Q 3226.49 203.165, 3226.49 204.025 " fill="#000000"/>
<path class="note" d="M 3235.53 29.151 L 3238.63 29.151 L 3238.63 18.571 L 3235.21 19.631 L 3234.75 18.451 L 3239.09 16.511 L 3240.51 16.751 L 3240.51 29.151 L 3243.29 29.151 L 3243.29 30.751 L 3235.53 30.751 L 3235.53 29.151 " fill="#000000"/>
<path class="note" d="M 3249.69 30.911 Q 3247.09 30.911, 3245.79 28.991 Q 3244.51 27.071, 3244.51 23.651 Q 3244.51 20.231, 3245.79 18.331 Q 3247.07 16.431, 3249.69 16.431 Q 3252.31 16.431, 3253.59 18.331 Q 3254.87 20.231, 3254.87 23.651 Q 3254.87 27.071, 3253.57 28.991 Q 3252.29 30.911, 3249.69 30.911 M 3249.69 29.311 Q 3251.23 29.311, 3252.05 27.891 Q 3252.87 26.451, 3252.87 23.651 Q 3252.87 20.871, 3252.05 19.451 Q 3251.23 18.031, 3249.69 18.031 Q 3248.17 18.031, 3247.33 19.451 Q 3246.51 20.871, 3246.51 23.651 Q 3246.51 26.451, 3247.33 27.891 Q 3248.17 29.311, 3249.69 29.311 " fill="#000000"/>
<path class="note" d="M 3299.36 272.277 L 3302.46 272.277 L 3302.46 261.697 L 3299.04 262.757 L 3298.58 261.577 L 3302.92 259.637 L 3304.34 259.877 L 3304.34 272.277 L 3307.12 272.277 L 3307.12 273.877 L 3299.36 273.877 L 3299.36 272.277 " fill="#000000"/>
<path class="note" d="M 3308.98 272.277 L 3312.08 272.277 L 3312.08 261.697 L 3308.66 262.757 L 3308.2 261.577 L 3312.54 259.637 L 3313.96 259.877 L 3313.96 272.277 L 3316.74 272.277 L 3316.74 273.877 L 3308.98 273.877 L 3308.98 272.277 " fill="#000000"/>
<path class="note" d="M 3285.78 394.246 L 3288.88 394.246 L 3288.88 383.666 L 3285.46 384.726 L 3285 383.546 L 3289.34 381.606 L 3290.76 381.846 L 3290.76 394.246 L 3293.54 394.246 L 3293.54 395.846 L 3285.78 395.846 L 3285.78 394.246 " fill="#000000"/>
<path class="note" d="M 3294.58 384.366 Q 3295.1 383.026, 3296.34 382.286 Q 3297.58 381.526, 3299.3 381.526 Q 3301.44 381.526, 3302.64 382.686 Q 3303.84 383.846, 3303.84 385.906 Q 3303.84 388.006, 3302.28 389.966 Q 3300.74 391.926, 3297.54 394.246 L 3304.08 394.246 L 3304.08 395.846 L 3294.54 395.846 L 3294.54 394.506 Q 3297.18 392.626, 3298.74 391.226 Q 3300.32 389.826, 3301.08 388.566 Q 3301.84 387.306, 3301.84 386.006 Q 3301.84 384.646, 3301.16 383.886 Q 3300.48 383.126, 3299.3 383.126 Q 3298.16 383.126, 3297.4 383.586 Q 3296.64 384.046, 3296.1 385.066 L 3294.58 384.366 " fill="#000000"/>
<path class="note" d="M 3401.41 478.628 L 3404.51 478.628 L 3404.51 468.048 L 3401.09 469.108 L 3400.63 467.928 L 3404.97 465.988 L 3406.39 466.228 L 3406.39 478.628 L 3409.17 478.628 L 3409.17 480.228 L 3401.41 480.228 L 3401.41 478.628 " fill="#000000"/>
<path class="note" d="M 3416.81 472.768 Q 3418.19 473.168, 3418.85 474.068 Q 3419.53 474.948, 3419.53 476.348 Q 3419.53 477.548, 3418.93 478.488 Q 3418.33 479.408, 3417.23 479.928 Q 3416.13 480.428, 3414.69 480.428 Q 3413.17 480.428, 3412.03 479.908 Q 3410.91 479.368, 3410.01 478.288 L 3411.15 477.128 Q 3412.03 478.088, 3412.77 478.468 Q 3413.51 478.828, 3414.69 478.828 Q 3415.97 478.828, 3416.75 478.148 Q 3417.53 477.448, 3417.53 476.328 Q 3417.53 474.888, 3416.71 474.248 Q 3415.91 473.588, 3414.17 473.588 L 3413.15 473.588 L 3413.15 472.148 L 3414.05 472.148 Q 3415.59 472.128, 3416.41 471.468 Q 3417.23 470.788, 3417.23 469.528 Q 3417.23 468.608, 3416.55 468.068 Q 3415.87 467.508, 3414.71 467.508 Q 3413.53 467.508, 3412.79 467.928 Q 3412.07 468.348, 3411.51 469.408 L 3410.13 468.668 Q 3410.63 467.488, 3411.83 466.708 Q 3413.03 465.908, 3414.71 465.908 Q 3416.79 465.908, 3418.01 466.888 Q 3419.23 467.868, 3419.23 469.528 Q 3419.23 470.668, 3418.61 471.488 Q 3417.99 472.308, 3416.81 472.768 " fill="#000000"/>
<path class="note" d="M 3523.45 427.356 L 3526.55 427.356 L 3526.55 416.776 L 3523.13 417.836 L 3522.67 416.656 L 3527.01 414.716 L 3528.43 414.956 L 3528.43 427.356 L 3531.21 427.356 L 3531.21 428.956 L 3523.45 428.956 L 3523.45 427.356 " fill="#000000"/>
<path class="note" d="M 3541.01 424.096 L 3542.71 424.096 L 3542.71 425.696 L 3541.01 425.696 L 3541.01 428.956 L 3539.13 428.956 L 3539.13 425.696 L 3531.81 425.696 L 3531.81 424.436 L 3538.01 414.796 L 3541.01 414.796 L 3541.01 424.096 M 3534.13 424.096 L 3539.13 424.096 L 3539.13 416.076 L 3534.13 424.096 " fill="#000000"/>
<path class="note" d="M 3549.12 288.922 L 3552.22 288.922 L 3552.22 278.342 L 3548.8 279.402 L 3548.34 278.222 L 3552.68 276.282 L 3554.1 276.522 L 3554.1 288.922 L 3556.88 288.922 L 3556.88 290.522 L 3549.12 290.522 L 3549.12 288.922 " fill="#000000"/>
<path class="note" d="M 3562.94 281.662 Q 3564.18 281.662, 3565.2 282.202 Q 3566.22 282.722, 3566.8 283.722 Q 3567.38 284.702, 3567.38 286.042 Q 3567.38 287.502, 3566.66 288.562 Q 3565.96 289.602, 3564.8 290.142 Q 3563.64 290.682, 3562.32 290.682 Q 3561.02 290.682, 3559.82 290.202 Q 3558.62 289.722, 3557.8 288.802 L 3559 287.562 Q 3559.66 288.282, 3560.56 288.682 Q 3561.46 289.062, 3562.38 289.062 Q 3563.64 289.062, 3564.5 288.282 Q 3565.38 287.502, 3565.38 286.082 Q 3565.38 284.582, 3564.5 283.882 Q 3563.64 283.162, 3562.26 283.162 Q 3561.02 283.162, 3559.64 283.702 L 3558.54 283.182 L 3559.22 276.362 L 3566.5 276.362 L 3566.3 277.962 L 3560.86 277.962 L 3560.44 282.162 Q 3561.7 281.662, 3562.94 281.662 " fill="#000000"/>
<path class="note" d="M 3431.62 194.126 L 3434.72 194.126 L 3434.72 183.546 L 3431.3 184.606 L 3430.84 183.426 L 3435.18 181.486 L 3436.6 181.726 L 3436.6 194.126 L 3439.38 194.126 L 3439.38 195.726 L 3431.62 195.726 L 3431.62 194.126 " fill="#000000"/>
<path class="note" d="M 3446.28 186.886 Q 3447.52 186.886, 3448.5 187.426 Q 3449.48 187.966, 3450.02 188.946 Q 3450.56 189.926, 3450.56 191.166 Q 3450.56 192.546, 3449.94 193.626 Q 3449.34 194.686, 3448.26 195.286 Q 3447.18 195.886, 3445.8 195.886 Q 3443.28 195.886, 3442 194.186 Q 3440.74 192.466, 3440.74 189.066 Q 3440.74 185.306, 3442.3 183.366 Q 3443.88 181.406, 3446.9 181.406 Q 3447.78 181.406, 3448.52 181.606 Q 3449.28 181.806, 3450 182.226 L 3449.22 183.566 Q 3448.18 183.006, 3446.92 183.006 Q 3444.92 183.006, 3443.9 184.306 Q 3442.88 185.586, 3442.76 188.246 Q 3443.48 187.586, 3444.38 187.246 Q 3445.3 186.886, 3446.28 186.886 M 3445.82 194.246 Q 3446.58 194.246, 3447.2 193.846 Q 3447.84 193.446, 3448.2 192.746 Q 3448.56 192.046, 3448.56 191.186 Q 3448.56 189.926, 3447.86 189.206 Q 3447.16 188.486, 3445.92 188.486 Q 3445.06 188.486, 3444.2 188.846 Q 3443.36 189.186, 3442.76 189.786 Q 3442.84 192.126, 3443.58 193.186 Q 3444.32 194.246, 3445.82 194.246 " fill="#000000"/>
<path class="note" d="M 3101.94 381.907 L 3105.04 381.907 L 3105.04 371.327 L 3101.62 372.387 L 3101.16 371.207 L 3105.5 369.267 L 3106.92 369.507 L 3106.92 381.907 L 3109.7 381.907 L 3109.7 383.507 L 3101.94 383.507 L 3101.94 381.907 " fill="#000000"/>
<path class="note" d="M 3117.48 370.947 L 3110.06 370.947 L 3110.06 369.347 L 3119.46 369.347 L 3119.46 370.767 L 3113.74 383.507 L 3111.82 383.507 L 3117.48 370.947 " fill="#000000"/>
<path class="note" d="M 2978.6 433.178 L 2981.7 433.178 L 2981.7 422.598 L 2978.28 423.658 L 2977.82 422.478 L 2982.16 420.538 L 2983.58 420.778 L 2983.58 433.178 L 2986.36 433.178 L 2986.36 434.778 L 2978.6 434.778 L 2978.6 433.178 " fill="#000000"/>
<path class="note" d="M 2994.82 427.278 Q 2996.12 427.838, 2996.86 428.678 Q 2997.6 429.498, 2997.6 430.898 Q 2997.6 432.098, 2996.98 433.038 Q 2996.36 433.958, 2995.24 434.478 Q 2994.14 434.978, 2992.68 434.978 Q 2990.32 434.978, 2988.96 433.898 Q 2987.6 432.798, 2987.6 430.898 Q 2987.6 429.738, 2988.2 428.878 Q 2988.8 427.998, 2990.04 427.338 Q 2989.12 426.818, 2988.62 426.058 Q 2988.12 425.278, 2988.12 424.078 Q 2988.12 422.418, 2989.32 421.438 Q 2990.54 420.458, 2992.6 420.458 Q 2994.66 420.458, 2995.86 421.438 Q 2997.08 422.418, 2997.08 424.078 Q 2997.08 425.118, 2996.5 425.898 Q 2995.94 426.658, 2994.82 427.278 M 2992.6 421.958 Q 2991.42 421.958, 2990.76 422.518 Q 2990.12 423.078, 2990.12 424.078 Q 2990.12 424.818, 2990.56 425.318 Q 2991 425.798, 2991.62 426.078 Q 2992.26 426.358, 2993.48 426.778 Q 2994.34 426.178, 2994.7 425.538 Q 2995.08 424.898, 2995.08 424.078 Q 2995.08 423.078, 2994.42 422.518 Q 2993.78 421.958, 2992.6 421.958 M 2992.68 433.478 Q 2994 433.478, 2994.8 432.778 Q 2995.6 432.058, 2995.6 430.878 Q 2995.6 430.118, 2995.18 429.638 Q 2994.76 429.158, 2994.12 428.878 Q 2993.5 428.598, 2992.38 428.238 L 2991.48 427.938 Q 2990.48 428.538, 2990.04 429.258 Q 2989.6 429.958, 2989.6 430.878 Q 2989.6 432.058, 2990.44 432.778 Q 2991.28 433.478, 2992.68 433.478 " fill="#000000"/>
<path d="M 991.72 255.77 L 997.768 255.77 L 997.768 249.402 L 1000.46 249.402 L 1000.46 255.77 L 1006.66 255.77 L 1006.66 258.074 L 1000.46 258.074 L 1000.46 264.474 L 997.768 264.474 L 997.768 258.074 L 991.72 258.074 L 991.72 255.77 " fill="#000000"/>
<path d="M 2116.31,258.074 L 2390.19,258.074" style="fill:none;fill-rule:evenodd;stroke:#000000;stroke-width:2.0px;stroke-linecap:butt;stroke-linejoin:miter;stroke-opacity:1"/>
<path d="M 2390.19,258.074 L 2378.33,251.227" style="fill:none;fill-rule:evenodd;stroke:#000000;stroke-width:2.0px;stroke-linecap:butt;stroke-linejoin:miter;stroke-opacity:1"/>
<path d="M 2390.19,258.074 L 2378.33,264.921" style="fill:none;fill-rule:evenodd;stroke:#000000;stroke-width:2.0px;stroke-linecap:butt;stroke-linejoin:miter;stroke-opacity:1"/>
</svg>