<svg xmlns="http://www.w3.org/2000/svg" xmlns:rdkit="http://www.rdkit.org/xml" xmlns:xlink="http://www.w3.org/1999/xlink" version="1.1" baseProfile="full" xml:space="preserve" width="4000px" height="500px" viewBox="0 0 4000 500">
<!-- END OF HEADER -->
<rect style="opacity:1.0;fill:#FFFFFF;stroke:none" width="4000" height="500" x="0" y="0"> </rect>
<path d="M 582.015,174.65 L 685.341,234.306" style="fill:none;fill-rule:evenodd;stroke:#FFFFAA;stroke-width:25.5px;stroke-linecap:butt;stroke-linejoin:miter;stroke-opacity:1"/>
<path d="M 685.341,234.306 L 788.668,174.65" style="fill:none;fill-rule:evenodd;stroke:#FFFFAA;stroke-width:25.5px;stroke-linecap:butt;stroke-linejoin:miter;stroke-opacity:1"/>
<path d="M 685.341,234.306 L 685.341,353.617" style="fill:none;fill-rule:evenodd;stroke:#FFFFAA;stroke-width:25.5px;stroke-linecap:butt;stroke-linejoin:miter;stroke-opacity:1"/>
<path d="M 1204.09,417.604 L 1252.04,308.353" style="fill:none;fill-rule:evenodd;stroke:#FFCC99;stroke-width:25.5px;stroke-linecap:butt;stroke-linejoin:miter;stroke-opacity:1"/>
<path d="M 1252.04,308.353 L 1181.4,212.199" style="fill:none;fill-rule:evenodd;stroke:#FFCC99;stroke-width:25.5px;stroke-linecap:butt;stroke-linejoin:miter;stroke-opacity:1"/>
<path d="M 1252.04,308.353 L 1370.63,295.255" style="fill:none;fill-rule:evenodd;stroke:#FFCC99;stroke-width:25.5px;stroke-linecap:butt;stroke-linejoin:miter;stroke-opacity:1"/>
<path d="M 1181.4,212.199 L 1062.81,225.297" style="fill:none;fill-rule:evenodd;stroke:#FFCC99;stroke-width:25.5px;stroke-linecap:butt;stroke-linejoin:miter;stroke-opacity:1"/>
<path d="M 1181.4,212.199 L 1229.36,102.948" style="fill:none;fill-rule:evenodd;stroke:#FFCC99;stroke-width:25.5px;stroke-linecap:butt;stroke-linejoin:miter;stroke-opacity:1"/>
<path d="M 1229.36,102.948 L 1347.95,89.8506" style="fill:none;fill-rule:evenodd;stroke:#FFCC99;stroke-width:25.5px;stroke-linecap:butt;stroke-linejoin:miter;stroke-opacity:1"/>
<path d="M 1347.95,89.8506 L 1418.59,186.004" style="fill:none;fill-rule:evenodd;stroke:#FFCC99;stroke-width:25.5px;stroke-linecap:butt;stroke-linejoin:miter;stroke-opacity:1"/>
<path d="M 1418.59,186.004 L 1537.18,172.907" style="fill:none;fill-rule:evenodd;stroke:#FFCC99;stroke-width:25.5px;stroke-linecap:butt;stroke-linejoin:miter;stroke-opacity:1"/>
<path d="M 1418.59,186.004 L 1370.63,295.255" style="fill:none;fill-rule:evenodd;stroke:#FFCC99;stroke-width:25.5px;stroke-linecap:butt;stroke-linejoin:miter;stroke-opacity:1"/>
<path d="M 1537.18,172.907 L 1607.81,269.06" style="fill:none;fill-rule:evenodd;stroke:#FFCC99;stroke-width:25.5px;stroke-linecap:butt;stroke-linejoin:miter;stroke-opacity:1"/>
<path d="M 1607.81,269.06 L 1726.4,255.963" style="fill:none;fill-rule:evenodd;stroke:#FFCC99;stroke-width:25.5px;stroke-linecap:butt;stroke-linejoin:miter;stroke-opacity:1"/>
<path d="M 1726.4,255.963 L 1797.04,352.117" style="fill:none;fill-rule:evenodd;stroke:#FFCC99;stroke-width:25.5px;stroke-linecap:butt;stroke-linejoin:miter;stroke-opacity:1"/>
<path d="M 1726.4,255.963 L 1774.36,146.712" style="fill:none;fill-rule:evenodd;stroke:#FFCC99;stroke-width:25.5px;stroke-linecap:butt;stroke-linejoin:miter;stroke-opacity:1"/>
<path d="M 1797.04,352.117 L 1915.63,339.019" style="fill:none;fill-rule:evenodd;stroke:#FFCC99;stroke-width:25.5px;stroke-linecap:butt;stroke-linejoin:miter;stroke-opacity:1"/>
<path d="M 1915.63,339.019 L 1963.59,229.768" style="fill:none;fill-rule:evenodd;stroke:#FFCC99;stroke-width:25.5px;stroke-linecap:butt;stroke-linejoin:miter;stroke-opacity:1"/>
<path d="M 1963.59,229.768 L 1892.95,133.615" style="fill:none;fill-rule:evenodd;stroke:#FFCC99;stroke-width:25.5px;stroke-linecap:butt;stroke-linejoin:miter;stroke-opacity:1"/>
<path d="M 1892.95,133.615 L 1774.36,146.712" style="fill:none;fill-rule:evenodd;stroke:#FFCC99;stroke-width:25.5px;stroke-linecap:butt;stroke-linejoin:miter;stroke-opacity:1"/>
<path d="M 1370.63,295.255 L 1441.27,391.409" style="fill:none;fill-rule:evenodd;stroke:#FFCC99;stroke-width:25.5px;stroke-linecap:butt;stroke-linejoin:miter;stroke-opacity:1"/>
<path d="M 2625.24,453.41 L 2687.62,351.705" style="fill:none;fill-rule:evenodd;stroke:#FFFFAA;stroke-width:25.5px;stroke-linecap:butt;stroke-linejoin:miter;stroke-opacity:1"/>
<path d="M 2687.62,351.705 L 2630.73,246.83" style="fill:none;fill-rule:evenodd;stroke:#FFFFAA;stroke-width:25.5px;stroke-linecap:butt;stroke-linejoin:miter;stroke-opacity:1"/>
<path d="M 2806.89,354.875 L 2869.27,253.17" style="fill:none;fill-rule:evenodd;stroke:#FFCC99;stroke-width:25.5px;stroke-linecap:butt;stroke-linejoin:miter;stroke-opacity:1"/>
<path d="M 2869.27,253.17 L 2812.38,148.295" style="fill:none;fill-rule:evenodd;stroke:#FFCC99;stroke-width:25.5px;stroke-linecap:butt;stroke-linejoin:miter;stroke-opacity:1"/>
<path d="M 2869.27,253.17 L 2988.54,256.34" style="fill:none;fill-rule:evenodd;stroke:#FFCC99;stroke-width:25.5px;stroke-linecap:butt;stroke-linejoin:miter;stroke-opacity:1"/>
<path d="M 2812.38,148.295 L 2693.11,145.125" style="fill:none;fill-rule:evenodd;stroke:#FFCC99;stroke-width:25.5px;stroke-linecap:butt;stroke-linejoin:miter;stroke-opacity:1"/>
<path d="M 2812.38,148.295 L 2874.76,46.5896" style="fill:none;fill-rule:evenodd;stroke:#FFCC99;stroke-width:25.5px;stroke-linecap:butt;stroke-linejoin:miter;stroke-opacity:1"/>
<path d="M 2874.76,46.5896 L 2994.03,49.7598" style="fill:none;fill-rule:evenodd;stroke:#FFCC99;stroke-width:25.5px;stroke-linecap:butt;stroke-linejoin:miter;stroke-opacity:1"/>
<path d="M 2994.03,49.7598 L 3050.92,154.635" style="fill:none;fill-rule:evenodd;stroke:#FFCC99;stroke-width:25.5px;stroke-linecap:butt;stroke-linejoin:miter;stroke-opacity:1"/>
<path d="M 3050.92,154.635 L 3170.19,157.805" style="fill:none;fill-rule:evenodd;stroke:#FFCC99;stroke-width:25.5px;stroke-linecap:butt;stroke-linejoin:miter;stroke-opacity:1"/>
<path d="M 3050.92,154.635 L 2988.54,256.34" style="fill:none;fill-rule:evenodd;stroke:#FFCC99;stroke-width:25.5px;stroke-linecap:butt;stroke-linejoin:miter;stroke-opacity:1"/>
<path d="M 3170.19,157.805 L 3227.07,262.681" style="fill:none;fill-rule:evenodd;stroke:#FFCC99;stroke-width:25.5px;stroke-linecap:butt;stroke-linejoin:miter;stroke-opacity:1"/>
<path d="M 3227.07,262.681 L 3346.34,265.851" style="fill:none;fill-rule:evenodd;stroke:#FFCC99;stroke-width:25.5px;stroke-linecap:butt;stroke-linejoin:miter;stroke-opacity:1"/>
<path d="M 3346.34,265.851 L 3403.23,370.726" style="fill:none;fill-rule:evenodd;stroke:#FFCC99;stroke-width:25.5px;stroke-linecap:butt;stroke-linejoin:miter;stroke-opacity:1"/>
<path d="M 3346.34,265.851 L 3408.72,164.146" style="fill:none;fill-rule:evenodd;stroke:#FFCC99;stroke-width:25.5px;stroke-linecap:butt;stroke-linejoin:miter;stroke-opacity:1"/>
<path d="M 3403.23,370.726 L 3522.5,373.897" style="fill:none;fill-rule:evenodd;stroke:#FFCC99;stroke-width:25.5px;stroke-linecap:butt;stroke-linejoin:miter;stroke-opacity:1"/>
<path d="M 3522.5,373.897 L 3584.88,272.191" style="fill:none;fill-rule:evenodd;stroke:#FFCC99;stroke-width:25.5px;stroke-linecap:butt;stroke-linejoin:miter;stroke-opacity:1"/>
<path d="M 3584.88,272.191 L 3527.99,167.316" style="fill:none;fill-rule:evenodd;stroke:#FFCC99;stroke-width:25.5px;stroke-linecap:butt;stroke-linejoin:miter;stroke-opacity:1"/>
<path d="M 3527.99,167.316 L 3408.72,164.146" style="fill:none;fill-rule:evenodd;stroke:#FFCC99;stroke-width:25.5px;stroke-linecap:butt;stroke-linejoin:miter;stroke-opacity:1"/>
<path d="M 2988.54,256.34 L 3045.42,361.216" style="fill:none;fill-rule:evenodd;stroke:#FFCC99;stroke-width:25.5px;stroke-linecap:butt;stroke-linejoin:miter;stroke-opacity:1"/>
<ellipse cx="685.341" cy="234.306" rx="23.8623" ry="23.8623" style="fill:#FFFFAA;fill-rule:evenodd;stroke:#FFFFAA;stroke-width:1px;stroke-linecap:butt;stroke-linejoin:miter;stroke-opacity:1"/>
<ellipse cx="788.668" cy="174.65" rx="23.8623" ry="23.8623" style="fill:#FFFFAA;fill-rule:evenodd;stroke:#FFFFAA;stroke-width:1px;stroke-linecap:butt;stroke-linejoin:miter;stroke-opacity:1"/>
<ellipse cx="685.341" cy="353.837" rx="23.8623" ry="23.8623" style="fill:#FFFFAA;fill-rule:evenodd;stroke:#FFFFAA;stroke-width:1px;stroke-linecap:butt;stroke-linejoin:miter;stroke-opacity:1"/>
<ellipse cx="1184.39" cy="424.684" rx="43.0436" ry="30.0379" style="fill:#FFCC99;fill-rule:evenodd;stroke:#FFCC99;stroke-width:1px;stroke-linecap:butt;stroke-linejoin:miter;stroke-opacity:1"/>
<ellipse cx="1252.04" cy="308.353" rx="23.8623" ry="23.8623" style="fill:#FFCC99;fill-rule:evenodd;stroke:#FFCC99;stroke-width:1px;stroke-linecap:butt;stroke-linejoin:miter;stroke-opacity:1"/>
<ellipse cx="1181.4" cy="212.199" rx="23.8623" ry="23.8623" style="fill:#FFCC99;fill-rule:evenodd;stroke:#FFCC99;stroke-width:1px;stroke-linecap:butt;stroke-linejoin:miter;stroke-opacity:1"/>
<ellipse cx="1062.81" cy="225.297" rx="23.8623" ry="23.8623" style="fill:#FFCC99;fill-rule:evenodd;stroke:#FFCC99;stroke-width:1px;stroke-linecap:butt;stroke-linejoin:miter;stroke-opacity:1"/>
<ellipse cx="1229.36" cy="102.948" rx="23.8623" ry="23.8623" style="fill:#FFCC99;fill-rule:evenodd;stroke:#FFCC99;stroke-width:1px;stroke-linecap:butt;stroke-linejoin:miter;stroke-opacity:1"/>
<ellipse cx="1347.95" cy="89.8506" rx="23.8623" ry="23.8623" style="fill:#FFCC99;fill-rule:evenodd;stroke:#FFCC99;stroke-width:1px;stroke-linecap:butt;stroke-linejoin:miter;stroke-opacity:1"/>
<ellipse cx="1418.59" cy="186.004" rx="23.8623" ry="23.8623" style="fill:#FFCC99;fill-rule:evenodd;stroke:#FFCC99;stroke-width:1px;stroke-linecap:butt;stroke-linejoin:miter;stroke-opacity:1"/>
<ellipse cx="1537.18" cy="173.127" rx="23.8623" ry="23.8623" style="fill:#FFCC99;fill-rule:evenodd;stroke:#FFCC99;stroke-width:1px;stroke-linecap:butt;stroke-linejoin:miter;stroke-opacity:1"/>
<ellipse cx="1607.81" cy="269.06" rx="23.8623" ry="23.8623" style="fill:#FFCC99;fill-rule:evenodd;stroke:#FFCC99;stroke-width:1px;stroke-linecap:butt;stroke-linejoin:miter;stroke-opacity:1"/>
<ellipse cx="1726.4" cy="255.963" rx="23.8623" ry="23.8623" style="fill:#FFCC99;fill-rule:evenodd;stroke:#FFCC99;stroke-width:1px;stroke-linecap:butt;stroke-linejoin:miter;stroke-opacity:1"/>
<ellipse cx="1797.04" cy="352.117" rx="23.8623" ry="23.8623" style="fill:#FFCC99;fill-rule:evenodd;stroke:#FFCC99;stroke-width:1px;stroke-linecap:butt;stroke-linejoin:miter;stroke-opacity:1"/>
<ellipse cx="1915.63" cy="339.019" rx="23.8623" ry="23.8623" style="fill:#FFCC99;fill-rule:evenodd;stroke:#FFCC99;stroke-width:1px;stroke-linecap:butt;stroke-linejoin:miter;stroke-opacity:1"/>
<ellipse cx="1963.59" cy="229.768" rx="23.8623" ry="23.8623" style="fill:#FFCC99;fill-rule:evenodd;stroke:#FFCC99;stroke-width:1px;stroke-linecap:butt;stroke-linejoin:miter;stroke-opacity:1"/>
<ellipse cx="1892.95" cy="133.615" rx="23.8623" ry="23.8623" style="fill:#FFCC99;fill-rule:evenodd;stroke:#FFCC99;stroke-width:1px;stroke-linecap:butt;stroke-linejoin:miter;stroke-opacity:1"/>
<ellipse cx="1774.36" cy="146.712" rx="23.8623" ry="23.8623" style="fill:#FFCC99;fill-rule:evenodd;stroke:#FFCC99;stroke-width:1px;stroke-linecap:butt;stroke-linejoin:miter;stroke-opacity:1"/>
<ellipse cx="1370.63" cy="295.255" rx="23.8623" ry="23.8623" style="fill:#FFCC99;fill-rule:evenodd;stroke:#FFCC99;stroke-width:1px;stroke-linecap:butt;stroke-linejoin:miter;stroke-opacity:1"/>
<ellipse cx="1441.27" cy="391.409" rx="23.8623" ry="23.8623" style="fill:#FFCC99;fill-rule:evenodd;stroke:#FFCC99;stroke-width:1px;stroke-linecap:butt;stroke-linejoin:miter;stroke-opacity:1"/>
<ellipse cx="2625.24" cy="453.41" rx="23.8623" ry="23.8623" style="fill:#FFFFAA;fill-rule:evenodd;stroke:#FFFFAA;stroke-width:1px;stroke-linecap:butt;stroke-linejoin:miter;stroke-opacity:1"/>
<ellipse cx="2687.62" cy="351.705" rx="23.8623" ry="23.8623" style="fill:#FFFFAA;fill-rule:evenodd;stroke:#FFFFAA;stroke-width:1px;stroke-linecap:butt;stroke-linejoin:miter;stroke-opacity:1"/>
<ellipse cx="2630.73" cy="247.05" rx="23.8623" ry="23.8623" style="fill:#FFFFAA;fill-rule:evenodd;stroke:#FFFFAA;stroke-width:1px;stroke-linecap:butt;stroke-linejoin:miter;stroke-opacity:1"/>
<ellipse cx="2819.67" cy="354.875" rx="33.2623" ry="23.8623" style="fill:#FFCC99;fill-rule:evenodd;stroke:#FFCC99;stroke-width:1px;stroke-linecap:butt;stroke-linejoin:miter;stroke-opacity:1"/>
<ellipse cx="2869.27" cy="253.17" rx="23.8623" ry="23.8623" style="fill:#FFCC99;fill-rule:evenodd;stroke:#FFCC99;stroke-width:1px;stroke-linecap:butt;stroke-linejoin:miter;stroke-opacity:1"/>
<ellipse cx="2812.38" cy="148.295" rx="23.8623" ry="23.8623" style="fill:#FFCC99;fill-rule:evenodd;stroke:#FFCC99;stroke-width:1px;stroke-linecap:butt;stroke-linejoin:miter;stroke-opacity:1"/>
<ellipse cx="2693.11" cy="145.125" rx="23.8623" ry="23.8623" style="fill:#FFCC99;fill-rule:evenodd;stroke:#FFCC99;stroke-width:1px;stroke-linecap:butt;stroke-linejoin:miter;stroke-opacity:1"/>
<ellipse cx="2874.76" cy="46.5896" rx="23.8623" ry="23.8623" style="fill:#FFCC99;fill-rule:evenodd;stroke:#FFCC99;stroke-width:1px;stroke-linecap:butt;stroke-linejoin:miter;stroke-opacity:1"/>
<ellipse cx="2994.03" cy="49.7598" rx="23.8623" ry="23.8623" style="fill:#FFCC99;fill-rule:evenodd;stroke:#FFCC99;stroke-width:1px;stroke-linecap:butt;stroke-linejoin:miter;stroke-opacity:1"/>
<ellipse cx="3050.92" cy="154.635" rx="23.8623" ry="23.8623" style="fill:#FFCC99;fill-rule:evenodd;stroke:#FFCC99;stroke-width:1px;stroke-linecap:butt;stroke-linejoin:miter;stroke-opacity:1"/>
<ellipse cx="3170.19" cy="158.025" rx="23.8623" ry="23.8623" style="fill:#FFCC99;fill-rule:evenodd;stroke:#FFCC99;stroke-width:1px;stroke-linecap:butt;stroke-linejoin:miter;stroke-opacity:1"/>
<ellipse cx="3227.07" cy="262.681" rx="23.8623" ry="23.8623" style="fill:#FFCC99;fill-rule:evenodd;stroke:#FFCC99;stroke-width:1px;stroke-linecap:butt;stroke-linejoin:miter;stroke-opacity:1"/>
<ellipse cx="3346.34" cy="265.851" rx="23.8623" ry="23.8623" style="fill:#FFCC99;fill-rule:evenodd;stroke:#FFCC99;stroke-width:1px;stroke-linecap:butt;stroke-linejoin:miter;stroke-opacity:1"/>
<ellipse cx="3403.23" cy="370.726" rx="23.8623" ry="23.8623" style="fill:#FFCC99;fill-rule:evenodd;stroke:#FFCC99;stroke-width:1px;stroke-linecap:butt;stroke-linejoin:miter;stroke-opacity:1"/>
<ellipse cx="3522.5" cy="373.897" rx="23.8623" ry="23.8623" style="fill:#FFCC99;fill-rule:evenodd;stroke:#FFCC99;stroke-width:1px;stroke-linecap:butt;stroke-linejoin:miter;stroke-opacity:1"/>
<ellipse cx="3584.88" cy="272.191" rx="23.8623" ry="23.8623" style="fill:#FFCC99;fill-rule:evenodd;stroke:#FFCC99;stroke-width:1px;stroke-linecap:butt;stroke-linejoin:miter;stroke-opacity:1"/>
<ellipse cx="3527.99" cy="167.316" rx="23.8623" ry="23.8623" style="fill:#FFCC99;fill-rule:evenodd;stroke:#FFCC99;stroke-width:1px;stroke-linecap:butt;stroke-linejoin:miter;stroke-opacity:1"/>
<ellipse cx="3408.72" cy="164.146" rx="23.8623" ry="23.8623" style="fill:#FFCC99;fill-rule:evenodd;stroke:#FFCC99;stroke-width:1px;stroke-linecap:butt;stroke-linejoin:miter;stroke-opacity:1"/>
<ellipse cx="2988.54" cy="256.34" rx="23.8623" ry="23.8623" style="fill:#FFCC99;fill-rule:evenodd;stroke:#FFCC99;stroke-width:1px;stroke-linecap:butt;stroke-linejoin:miter;stroke-opacity:1"/>
<ellipse cx="3045.42" cy="361.216" rx="23.8623" ry="23.8623" style="fill:#FFCC99;fill-rule:evenodd;stroke:#FFCC99;stroke-width:1px;stroke-linecap:butt;stroke-linejoin:miter;stroke-opacity:1"/>
<path class="bond-0" d="M 375.361,174.65 L 478.688,234.306" style="fill:none;fill-rule:evenodd;stroke:#000000;stroke-width:2.0px;stroke-linecap:butt;stroke-linejoin:miter;stroke-opacity:1"/>
<path class="bond-1" d="M 466.757,234.306 L 466.757,285.31" style="fill:none;fill-rule:evenodd;stroke:#000000;stroke-width:2.0px;stroke-linecap:butt;stroke-linejoin:miter;stroke-opacity:1"/>
<path class="bond-1" d="M 466.757,285.31 L 466.757,336.315" style="fill:none;fill-rule:evenodd;stroke:#FF0000;stroke-width:2.0px;stroke-linecap:butt;stroke-linejoin:miter;stroke-opacity:1"/>
<path class="bond-1" d="M 490.619,234.306 L 490.619,285.31" style="fill:none;fill-rule:evenodd;stroke:#000000;stroke-width:2.0px;stroke-linecap:butt;stroke-linejoin:miter;stroke-opacity:1"/>
<path class="bond-1" d="M 490.619,285.31 L 490.619,336.315" style="fill:none;fill-rule:evenodd;stroke:#FF0000;stroke-width:2.0px;stroke-linecap:butt;stroke-linejoin:miter;stroke-opacity:1"/>
<path class="bond-2" d="M 478.688,234.306 L 522.36,209.092" style="fill:none;fill-rule:evenodd;stroke:#000000;stroke-width:2.0px;stroke-linecap:butt;stroke-linejoin:miter;stroke-opacity:1"/>
<path class="bond-2" d="M 522.36,209.092 L 566.032,183.878" style="fill:none;fill-rule:evenodd;stroke:#FF0000;stroke-width:2.0px;stroke-linecap:butt;stroke-linejoin:miter;stroke-opacity:1"/>
<path class="bond-3" d="M 597.997,183.878 L 641.669,209.092" style="fill:none;fill-rule:evenodd;stroke:#FF0000;stroke-width:2.0px;stroke-linecap:butt;stroke-linejoin:miter;stroke-opacity:1"/>
<path class="bond-3" d="M 641.669,209.092 L 685.341,234.306" style="fill:none;fill-rule:evenodd;stroke:#000000;stroke-width:2.0px;stroke-linecap:butt;stroke-linejoin:miter;stroke-opacity:1"/>
<path class="bond-4" d="M 685.341,234.306 L 788.668,174.65" style="fill:none;fill-rule:evenodd;stroke:#000000;stroke-width:2.0px;stroke-linecap:butt;stroke-linejoin:miter;stroke-opacity:1"/>
<path class="bond-5" d="M 673.41,234.306 L 673.41,285.31" style="fill:none;fill-rule:evenodd;stroke:#000000;stroke-width:2.0px;stroke-linecap:butt;stroke-linejoin:miter;stroke-opacity:1"/>
<path class="bond-5" d="M 673.41,285.31 L 673.41,336.315" style="fill:none;fill-rule:evenodd;stroke:#FF0000;stroke-width:2.0px;stroke-linecap:butt;stroke-linejoin:miter;stroke-opacity:1"/>
<path class="bond-5" d="M 697.273,234.306 L 697.273,285.31" style="fill:none;fill-rule:evenodd;stroke:#000000;stroke-width:2.0px;stroke-linecap:butt;stroke-linejoin:miter;stroke-opacity:1"/>
<path class="bond-5" d="M 697.273,285.31 L 697.273,336.315" style="fill:none;fill-rule:evenodd;stroke:#FF0000;stroke-width:2.0px;stroke-linecap:butt;stroke-linejoin:miter;stroke-opacity:1"/>
<path class="bond-6" d="M 1211.61,400.461 L 1231.83,354.407" style="fill:none;fill-rule:evenodd;stroke:#0000FF;stroke-width:2.0px;stroke-linecap:butt;stroke-linejoin:miter;stroke-opacity:1"/>
<path class="bond-6" d="M 1231.83,354.407 L 1252.04,308.353" style="fill:none;fill-rule:evenodd;stroke:#000000;stroke-width:2.0px;stroke-linecap:butt;stroke-linejoin:miter;stroke-opacity:1"/>
<path class="bond-7" d="M 1252.04,308.353 L 1181.4,212.199" style="fill:none;fill-rule:evenodd;stroke:#000000;stroke-width:2.0px;stroke-linecap:butt;stroke-linejoin:miter;stroke-opacity:1"/>
<path class="bond-7" d="M 1260.68,279.802 L 1211.23,212.495" style="fill:none;fill-rule:evenodd;stroke:#000000;stroke-width:2.0px;stroke-linecap:butt;stroke-linejoin:miter;stroke-opacity:1;stroke-dasharray:6,6"/>
<path class="bond-22" d="M 1252.04,308.353 L 1370.63,295.255" style="fill:none;fill-rule:evenodd;stroke:#000000;stroke-width:2.0px;stroke-linecap:butt;stroke-linejoin:miter;stroke-opacity:1"/>
<path class="bond-22" d="M 1267.21,282.67 L 1350.22,273.502" style="fill:none;fill-rule:evenodd;stroke:#000000;stroke-width:2.0px;stroke-linecap:butt;stroke-linejoin:miter;stroke-opacity:1;stroke-dasharray:6,6"/>
<path class="bond-8" d="M 1181.4,212.199 L 1062.81,225.297" style="fill:none;fill-rule:evenodd;stroke:#000000;stroke-width:2.0px;stroke-linecap:butt;stroke-linejoin:miter;stroke-opacity:1"/>
<path class="bond-9" d="M 1181.4,212.199 L 1229.36,102.948" style="fill:none;fill-rule:evenodd;stroke:#000000;stroke-width:2.0px;stroke-linecap:butt;stroke-linejoin:miter;stroke-opacity:1"/>
<path class="bond-9" d="M 1210.45,205.402 L 1244.01,128.926" style="fill:none;fill-rule:evenodd;stroke:#000000;stroke-width:2.0px;stroke-linecap:butt;stroke-linejoin:miter;stroke-opacity:1;stroke-dasharray:6,6"/>
<path class="bond-10" d="M 1229.36,102.948 L 1347.95,89.8506" style="fill:none;fill-rule:evenodd;stroke:#000000;stroke-width:2.0px;stroke-linecap:butt;stroke-linejoin:miter;stroke-opacity:1"/>
<path class="bond-10" d="M 1249.77,124.702 L 1332.78,115.533" style="fill:none;fill-rule:evenodd;stroke:#000000;stroke-width:2.0px;stroke-linecap:butt;stroke-linejoin:miter;stroke-opacity:1;stroke-dasharray:6,6"/>
<path class="bond-11" d="M 1347.95,89.8506 L 1418.59,186.004" style="fill:none;fill-rule:evenodd;stroke:#000000;stroke-width:2.0px;stroke-linecap:butt;stroke-linejoin:miter;stroke-opacity:1"/>
<path class="bond-11" d="M 1339.31,118.401 L 1388.76,185.709" style="fill:none;fill-rule:evenodd;stroke:#000000;stroke-width:2.0px;stroke-linecap:butt;stroke-linejoin:miter;stroke-opacity:1;stroke-dasharray:6,6"/>
<path class="bond-12" d="M 1418.59,186.004 L 1469.89,180.338" style="fill:none;fill-rule:evenodd;stroke:#000000;stroke-width:2.0px;stroke-linecap:butt;stroke-linejoin:miter;stroke-opacity:1"/>
<path class="bond-12" d="M 1469.89,180.338 L 1521.19,174.672" style="fill:none;fill-rule:evenodd;stroke:#FF0000;stroke-width:2.0px;stroke-linecap:butt;stroke-linejoin:miter;stroke-opacity:1"/>
<path class="bond-20" d="M 1418.59,186.004 L 1370.63,295.255" style="fill:none;fill-rule:evenodd;stroke:#000000;stroke-width:2.0px;stroke-linecap:butt;stroke-linejoin:miter;stroke-opacity:1"/>
<path class="bond-20" d="M 1389.54,192.801 L 1355.98,269.277" style="fill:none;fill-rule:evenodd;stroke:#000000;stroke-width:2.0px;stroke-linecap:butt;stroke-linejoin:miter;stroke-opacity:1;stroke-dasharray:6,6"/>
<path class="bond-13" d="M 1550.21,190.65 L 1579.01,229.855" style="fill:none;fill-rule:evenodd;stroke:#FF0000;stroke-width:2.0px;stroke-linecap:butt;stroke-linejoin:miter;stroke-opacity:1"/>
<path class="bond-13" d="M 1579.01,229.855 L 1607.81,269.06" style="fill:none;fill-rule:evenodd;stroke:#000000;stroke-width:2.0px;stroke-linecap:butt;stroke-linejoin:miter;stroke-opacity:1"/>
<path class="bond-14" d="M 1607.81,269.06 L 1726.4,255.963" style="fill:none;fill-rule:evenodd;stroke:#000000;stroke-width:2.0px;stroke-linecap:butt;stroke-linejoin:miter;stroke-opacity:1"/>
<path class="bond-15" d="M 1726.4,255.963 L 1797.04,352.117" style="fill:none;fill-rule:evenodd;stroke:#000000;stroke-width:2.0px;stroke-linecap:butt;stroke-linejoin:miter;stroke-opacity:1"/>
<path class="bond-15" d="M 1756.23,256.258 L 1805.68,323.566" style="fill:none;fill-rule:evenodd;stroke:#000000;stroke-width:2.0px;stroke-linecap:butt;stroke-linejoin:miter;stroke-opacity:1;stroke-dasharray:6,6"/>
<path class="bond-23" d="M 1726.4,255.963 L 1774.36,146.712" style="fill:none;fill-rule:evenodd;stroke:#000000;stroke-width:2.0px;stroke-linecap:butt;stroke-linejoin:miter;stroke-opacity:1"/>
<path class="bond-23" d="M 1755.45,249.166 L 1789.01,172.69" style="fill:none;fill-rule:evenodd;stroke:#000000;stroke-width:2.0px;stroke-linecap:butt;stroke-linejoin:miter;stroke-opacity:1;stroke-dasharray:6,6"/>
<path class="bond-16" d="M 1797.04,352.117 L 1915.63,339.019" style="fill:none;fill-rule:evenodd;stroke:#000000;stroke-width:2.0px;stroke-linecap:butt;stroke-linejoin:miter;stroke-opacity:1"/>
<path class="bond-16" d="M 1812.21,326.434 L 1895.22,317.266" style="fill:none;fill-rule:evenodd;stroke:#000000;stroke-width:2.0px;stroke-linecap:butt;stroke-linejoin:miter;stroke-opacity:1;stroke-dasharray:6,6"/>
<path class="bond-17" d="M 1915.63,339.019 L 1963.59,229.768" style="fill:none;fill-rule:evenodd;stroke:#000000;stroke-width:2.0px;stroke-linecap:butt;stroke-linejoin:miter;stroke-opacity:1"/>
<path class="bond-17" d="M 1900.98,313.041 L 1934.54,236.565" style="fill:none;fill-rule:evenodd;stroke:#000000;stroke-width:2.0px;stroke-linecap:butt;stroke-linejoin:miter;stroke-opacity:1;stroke-dasharray:6,6"/>
<path class="bond-18" d="M 1963.59,229.768 L 1892.95,133.615" style="fill:none;fill-rule:evenodd;stroke:#000000;stroke-width:2.0px;stroke-linecap:butt;stroke-linejoin:miter;stroke-opacity:1"/>
<path class="bond-18" d="M 1933.76,229.473 L 1884.31,162.165" style="fill:none;fill-rule:evenodd;stroke:#000000;stroke-width:2.0px;stroke-linecap:butt;stroke-linejoin:miter;stroke-opacity:1;stroke-dasharray:6,6"/>
<path class="bond-19" d="M 1892.95,133.615 L 1774.36,146.712" style="fill:none;fill-rule:evenodd;stroke:#000000;stroke-width:2.0px;stroke-linecap:butt;stroke-linejoin:miter;stroke-opacity:1"/>
<path class="bond-19" d="M 1877.78,159.297 L 1794.76,168.465" style="fill:none;fill-rule:evenodd;stroke:#000000;stroke-width:2.0px;stroke-linecap:butt;stroke-linejoin:miter;stroke-opacity:1;stroke-dasharray:6,6"/>
<path class="bond-21" d="M 1370.63,295.255 L 1441.27,391.409" style="fill:none;fill-rule:evenodd;stroke:#000000;stroke-width:2.0px;stroke-linecap:butt;stroke-linejoin:miter;stroke-opacity:1"/>
<path class="bond-24" d="M 2625.24,453.41 L 2687.62,351.705" style="fill:none;fill-rule:evenodd;stroke:#000000;stroke-width:2.0px;stroke-linecap:butt;stroke-linejoin:miter;stroke-opacity:1"/>
<path class="bond-25" d="M 2698.1,346.016 L 2674.47,302.45" style="fill:none;fill-rule:evenodd;stroke:#000000;stroke-width:2.0px;stroke-linecap:butt;stroke-linejoin:miter;stroke-opacity:1"/>
<path class="bond-25" d="M 2674.47,302.45 L 2650.84,258.884" style="fill:none;fill-rule:evenodd;stroke:#FF0000;stroke-width:2.0px;stroke-linecap:butt;stroke-linejoin:miter;stroke-opacity:1"/>
<path class="bond-25" d="M 2677.13,357.394 L 2653.5,313.828" style="fill:none;fill-rule:evenodd;stroke:#000000;stroke-width:2.0px;stroke-linecap:butt;stroke-linejoin:miter;stroke-opacity:1"/>
<path class="bond-25" d="M 2653.5,313.828 L 2629.86,270.262" style="fill:none;fill-rule:evenodd;stroke:#FF0000;stroke-width:2.0px;stroke-linecap:butt;stroke-linejoin:miter;stroke-opacity:1"/>
<path class="bond-26" d="M 2687.62,351.705 L 2740.39,353.108" style="fill:none;fill-rule:evenodd;stroke:#000000;stroke-width:2.0px;stroke-linecap:butt;stroke-linejoin:miter;stroke-opacity:1"/>
<path class="bond-26" d="M 2740.39,353.108 L 2793.16,354.511" style="fill:none;fill-rule:evenodd;stroke:#0000FF;stroke-width:2.0px;stroke-linecap:butt;stroke-linejoin:miter;stroke-opacity:1"/>
<path class="bond-27" d="M 2817.4,337.733 L 2843.33,295.451" style="fill:none;fill-rule:evenodd;stroke:#0000FF;stroke-width:2.0px;stroke-linecap:butt;stroke-linejoin:miter;stroke-opacity:1"/>
<path class="bond-27" d="M 2843.33,295.451 L 2869.27,253.17" style="fill:none;fill-rule:evenodd;stroke:#000000;stroke-width:2.0px;stroke-linecap:butt;stroke-linejoin:miter;stroke-opacity:1"/>
<path class="bond-28" d="M 2869.27,253.17 L 2812.38,148.295" style="fill:none;fill-rule:evenodd;stroke:#000000;stroke-width:2.0px;stroke-linecap:butt;stroke-linejoin:miter;stroke-opacity:1"/>
<path class="bond-28" d="M 2881.71,226.061 L 2841.89,152.648" style="fill:none;fill-rule:evenodd;stroke:#000000;stroke-width:2.0px;stroke-linecap:butt;stroke-linejoin:miter;stroke-opacity:1;stroke-dasharray:6,6"/>
<path class="bond-43" d="M 2869.27,253.17 L 2988.54,256.34" style="fill:none;fill-rule:evenodd;stroke:#000000;stroke-width:2.0px;stroke-linecap:butt;stroke-linejoin:miter;stroke-opacity:1"/>
<path class="bond-43" d="M 2887.79,229.792 L 2971.28,232.011" style="fill:none;fill-rule:evenodd;stroke:#000000;stroke-width:2.0px;stroke-linecap:butt;stroke-linejoin:miter;stroke-opacity:1;stroke-dasharray:6,6"/>
<path class="bond-29" d="M 2812.38,148.295 L 2693.11,145.125" style="fill:none;fill-rule:evenodd;stroke:#000000;stroke-width:2.0px;stroke-linecap:butt;stroke-linejoin:miter;stroke-opacity:1"/>
<path class="bond-30" d="M 2812.38,148.295 L 2874.76,46.5896" style="fill:none;fill-rule:evenodd;stroke:#000000;stroke-width:2.0px;stroke-linecap:butt;stroke-linejoin:miter;stroke-opacity:1"/>
<path class="bond-30" d="M 2842.08,145.515 L 2885.74,74.3214" style="fill:none;fill-rule:evenodd;stroke:#000000;stroke-width:2.0px;stroke-linecap:butt;stroke-linejoin:miter;stroke-opacity:1;stroke-dasharray:6,6"/>
<path class="bond-31" d="M 2874.76,46.5896 L 2994.03,49.7598" style="fill:none;fill-rule:evenodd;stroke:#000000;stroke-width:2.0px;stroke-linecap:butt;stroke-linejoin:miter;stroke-opacity:1"/>
<path class="bond-31" d="M 2892.01,70.919 L 2975.5,73.1381" style="fill:none;fill-rule:evenodd;stroke:#000000;stroke-width:2.0px;stroke-linecap:butt;stroke-linejoin:miter;stroke-opacity:1;stroke-dasharray:6,6"/>
<path class="bond-32" d="M 2994.03,49.7598 L 3050.92,154.635" style="fill:none;fill-rule:evenodd;stroke:#000000;stroke-width:2.0px;stroke-linecap:butt;stroke-linejoin:miter;stroke-opacity:1"/>
<path class="bond-32" d="M 2981.58,76.8689 L 3021.41,150.282" style="fill:none;fill-rule:evenodd;stroke:#000000;stroke-width:2.0px;stroke-linecap:butt;stroke-linejoin:miter;stroke-opacity:1;stroke-dasharray:6,6"/>
<path class="bond-33" d="M 3050.92,154.635 L 3102.56,156.008" style="fill:none;fill-rule:evenodd;stroke:#000000;stroke-width:2.0px;stroke-linecap:butt;stroke-linejoin:miter;stroke-opacity:1"/>
<path class="bond-33" d="M 3102.56,156.008 L 3154.2,157.381" style="fill:none;fill-rule:evenodd;stroke:#FF0000;stroke-width:2.0px;stroke-linecap:butt;stroke-linejoin:miter;stroke-opacity:1"/>
<path class="bond-41" d="M 3050.92,154.635 L 2988.54,256.34" style="fill:none;fill-rule:evenodd;stroke:#000000;stroke-width:2.0px;stroke-linecap:butt;stroke-linejoin:miter;stroke-opacity:1"/>
<path class="bond-41" d="M 3021.22,157.415 L 2977.55,228.609" style="fill:none;fill-rule:evenodd;stroke:#000000;stroke-width:2.0px;stroke-linecap:butt;stroke-linejoin:miter;stroke-opacity:1;stroke-dasharray:6,6"/>
<path class="bond-34" d="M 3179.81,175.548 L 3203.44,219.114" style="fill:none;fill-rule:evenodd;stroke:#FF0000;stroke-width:2.0px;stroke-linecap:butt;stroke-linejoin:miter;stroke-opacity:1"/>
<path class="bond-34" d="M 3203.44,219.114 L 3227.07,262.681" style="fill:none;fill-rule:evenodd;stroke:#000000;stroke-width:2.0px;stroke-linecap:butt;stroke-linejoin:miter;stroke-opacity:1"/>
<path class="bond-35" d="M 3227.07,262.681 L 3346.34,265.851" style="fill:none;fill-rule:evenodd;stroke:#000000;stroke-width:2.0px;stroke-linecap:butt;stroke-linejoin:miter;stroke-opacity:1"/>
<path class="bond-36" d="M 3346.34,265.851 L 3403.23,370.726" style="fill:none;fill-rule:evenodd;stroke:#000000;stroke-width:2.0px;stroke-linecap:butt;stroke-linejoin:miter;stroke-opacity:1"/>
<path class="bond-36" d="M 3375.85,270.204 L 3415.67,343.617" style="fill:none;fill-rule:evenodd;stroke:#000000;stroke-width:2.0px;stroke-linecap:butt;stroke-linejoin:miter;stroke-opacity:1;stroke-dasharray:6,6"/>
<path class="bond-44" d="M 3346.34,265.851 L 3408.72,164.146" style="fill:none;fill-rule:evenodd;stroke:#000000;stroke-width:2.0px;stroke-linecap:butt;stroke-linejoin:miter;stroke-opacity:1"/>
<path class="bond-44" d="M 3376.04,263.071 L 3419.71,191.878" style="fill:none;fill-rule:evenodd;stroke:#000000;stroke-width:2.0px;stroke-linecap:butt;stroke-linejoin:miter;stroke-opacity:1;stroke-dasharray:6,6"/>
<path class="bond-37" d="M 3403.23,370.726 L 3522.5,373.897" style="fill:none;fill-rule:evenodd;stroke:#000000;stroke-width:2.0px;stroke-linecap:butt;stroke-linejoin:miter;stroke-opacity:1"/>
<path class="bond-37" d="M 3421.76,347.348 L 3505.25,349.567" style="fill:none;fill-rule:evenodd;stroke:#000000;stroke-width:2.0px;stroke-linecap:butt;stroke-linejoin:miter;stroke-opacity:1;stroke-dasharray:6,6"/>
<path class="bond-38" d="M 3522.5,373.897 L 3584.88,272.191" style="fill:none;fill-rule:evenodd;stroke:#000000;stroke-width:2.0px;stroke-linecap:butt;stroke-linejoin:miter;stroke-opacity:1"/>
<path class="bond-38" d="M 3511.52,346.165 L 3555.18,274.971" style="fill:none;fill-rule:evenodd;stroke:#000000;stroke-width:2.0px;stroke-linecap:butt;stroke-linejoin:miter;stroke-opacity:1;stroke-dasharray:6,6"/>
<path class="bond-39" d="M 3584.88,272.191 L 3527.99,167.316" style="fill:none;fill-rule:evenodd;stroke:#000000;stroke-width:2.0px;stroke-linecap:butt;stroke-linejoin:miter;stroke-opacity:1"/>
<path class="bond-39" d="M 3555.37,267.838 L 3515.55,194.425" style="fill:none;fill-rule:evenodd;stroke:#000000;stroke-width:2.0px;stroke-linecap:butt;stroke-linejoin:miter;stroke-opacity:1;stroke-dasharray:6,6"/>
<path class="bond-40" d="M 3527.99,167.316 L 3408.72,164.146" style="fill:none;fill-rule:evenodd;stroke:#000000;stroke-width:2.0px;stroke-linecap:butt;stroke-linejoin:miter;stroke-opacity:1"/>
<path class="bond-40" d="M 3509.47,190.694 L 3425.98,188.475" style="fill:none;fill-rule:evenodd;stroke:#000000;stroke-width:2.0px;stroke-linecap:butt;stroke-linejoin:miter;stroke-opacity:1;stroke-dasharray:6,6"/>
<path class="bond-42" d="M 2988.54,256.34 L 3045.42,361.216" style="fill:none;fill-rule:evenodd;stroke:#000000;stroke-width:2.0px;stroke-linecap:butt;stroke-linejoin:miter;stroke-opacity:1"/>
<path class="bond-45" d="M 2367.78,125.369 L 2314.09,125.369" style="fill:none;fill-rule:evenodd;stroke:#000000;stroke-width:2.0px;stroke-linecap:butt;stroke-linejoin:miter;stroke-opacity:1"/>
<path class="bond-46" d="M 2314.09,125.369 L 2287.25,171.866" style="fill:none;fill-rule:evenodd;stroke:#000000;stroke-width:2.0px;stroke-linecap:butt;stroke-linejoin:miter;stroke-opacity:1"/>
<path class="bond-46" d="M 2297.66,125.185 L 2278.87,157.733" style="fill:none;fill-rule:evenodd;stroke:#000000;stroke-width:2.0px;stroke-linecap:butt;stroke-linejoin:miter;stroke-opacity:1;stroke-dasharray:6,6"/>
<path class="bond-51" d="M 2314.09,125.369 L 2287.25,78.8717" style="fill:none;fill-rule:evenodd;stroke:#000000;stroke-width:2.0px;stroke-linecap:butt;stroke-linejoin:miter;stroke-opacity:1"/>
<path class="bond-51" d="M 2297.66,125.553 L 2278.87,93.0049" style="fill:none;fill-rule:evenodd;stroke:#000000;stroke-width:2.0px;stroke-linecap:butt;stroke-linejoin:miter;stroke-opacity:1;stroke-dasharray:6,6"/>
<path class="bond-47" d="M 2287.25,171.866 L 2233.56,171.866" style="fill:none;fill-rule:evenodd;stroke:#000000;stroke-width:2.0px;stroke-linecap:butt;stroke-linejoin:miter;stroke-opacity:1"/>
<path class="bond-47" d="M 2279.19,157.548 L 2241.61,157.548" style="fill:none;fill-rule:evenodd;stroke:#000000;stroke-width:2.0px;stroke-linecap:butt;stroke-linejoin:miter;stroke-opacity:1;stroke-dasharray:6,6"/>
<path class="bond-48" d="M 2233.56,171.866 L 2206.71,125.369" style="fill:none;fill-rule:evenodd;stroke:#000000;stroke-width:2.0px;stroke-linecap:butt;stroke-linejoin:miter;stroke-opacity:1"/>
<path class="bond-48" d="M 2241.93,157.733 L 2223.14,125.185" style="fill:none;fill-rule:evenodd;stroke:#000000;stroke-width:2.0px;stroke-linecap:butt;stroke-linejoin:miter;stroke-opacity:1;stroke-dasharray:6,6"/>
<path class="bond-49" d="M 2206.71,125.369 L 2233.56,78.8717" style="fill:none;fill-rule:evenodd;stroke:#000000;stroke-width:2.0px;stroke-linecap:butt;stroke-linejoin:miter;stroke-opacity:1"/>
<path class="bond-49" d="M 2223.14,125.553 L 2241.93,93.0049" style="fill:none;fill-rule:evenodd;stroke:#000000;stroke-width:2.0px;stroke-linecap:butt;stroke-linejoin:miter;stroke-opacity:1;stroke-dasharray:6,6"/>
<path class="bond-50" d="M 2233.56,78.8717 L 2287.25,78.8717" style="fill:none;fill-rule:evenodd;stroke:#000000;stroke-width:2.0px;stroke-linecap:butt;stroke-linejoin:miter;stroke-opacity:1"/>
<path class="bond-50" d="M 2241.61,93.1891 L 2279.19,93.1891" style="fill:none;fill-rule:evenodd;stroke:#000000;stroke-width:2.0px;stroke-linecap:butt;stroke-linejoin:miter;stroke-opacity:1;stroke-dasharray:6,6"/>
<path class="atom-2" d="M 465.688 353.697 Q 465.688 346.897, 469.048 343.097 Q 472.408 339.297, 478.688 339.297 Q 484.968 339.297, 488.328 343.097 Q 491.688 346.897, 491.688 353.697 Q 491.688 360.577, 488.288 364.497 Q 484.888 368.377, 478.688 368.377 Q 472.448 368.377, 469.048 364.497 Q 465.688 360.617, 465.688 353.697 M 478.688 365.177 Q 483.008 365.177, 485.328 362.297 Q 487.688 359.377, 487.688 353.697 Q 487.688 348.137, 485.328 345.337 Q 483.008 342.497, 478.688 342.497 Q 474.368 342.497, 472.008 345.297 Q 469.688 348.097, 469.688 353.697 Q 469.688 359.417, 472.008 362.297 Q 474.368 365.177, 478.688 365.177 " fill="#FF0000"/>
<path class="atom-3" d="M 569.015 174.73 Q 569.015 167.93, 572.375 164.13 Q 575.735 160.33, 582.015 160.33 Q 588.295 160.33, 591.655 164.13 Q 595.015 167.93, 595.015 174.73 Q 595.015 181.61, 591.615 185.53 Q 588.215 189.41, 582.015 189.41 Q 575.775 189.41, 572.375 185.53 Q 569.015 181.65, 569.015 174.73 M 582.015 186.21 Q 586.335 186.21, 588.655 183.33 Q 591.015 180.41, 591.015 174.73 Q 591.015 169.17, 588.655 166.37 Q 586.335 163.53, 582.015 163.53 Q 577.695 163.53, 575.335 166.33 Q 573.015 169.13, 573.015 174.73 Q 573.015 180.45, 575.335 183.33 Q 577.695 186.21, 582.015 186.21 " fill="#FF0000"/>
<path class="atom-6" d="M 672.341 353.697 Q 672.341 346.897, 675.701 343.097 Q 679.061 339.297, 685.341 339.297 Q 691.621 339.297, 694.981 343.097 Q 698.341 346.897, 698.341 353.697 Q 698.341 360.577, 694.941 364.497 Q 691.541 368.377, 685.341 368.377 Q 679.101 368.377, 675.701 364.497 Q 672.341 360.617, 672.341 353.697 M 685.341 365.177 Q 689.661 365.177, 691.981 362.297 Q 694.341 359.377, 694.341 353.697 Q 694.341 348.137, 691.981 345.337 Q 689.661 342.497, 685.341 342.497 Q 681.021 342.497, 678.661 345.297 Q 676.341 348.097, 676.341 353.697 Q 676.341 359.417, 678.661 362.297 Q 681.021 365.177, 685.341 365.177 " fill="#FF0000"/>
<path class="atom-7" d="M 1153.96 403.444 L 1157.8 403.444 L 1157.8 415.484 L 1172.28 415.484 L 1172.28 403.444 L 1176.12 403.444 L 1176.12 431.764 L 1172.28 431.764 L 1172.28 418.684 L 1157.8 418.684 L 1157.8 431.764 L 1153.96 431.764 L 1153.96 403.444 " fill="#0000FF"/>
<path class="atom-7" d="M 1177.49 430.77 Q 1178.18 429.001, 1179.81 428.025 Q 1181.45 427.021, 1183.72 427.021 Q 1186.55 427.021, 1188.13 428.553 Q 1189.71 430.084, 1189.71 432.803 Q 1189.71 435.575, 1187.65 438.162 Q 1185.62 440.749, 1181.4 443.812 L 1190.03 443.812 L 1190.03 445.924 L 1177.44 445.924 L 1177.44 444.155 Q 1180.92 441.673, 1182.98 439.825 Q 1185.07 437.977, 1186.07 436.314 Q 1187.07 434.651, 1187.07 432.935 Q 1187.07 431.14, 1186.18 430.137 Q 1185.28 429.133, 1183.72 429.133 Q 1182.22 429.133, 1181.21 429.741 Q 1180.21 430.348, 1179.5 431.694 L 1177.49 430.77 " fill="#0000FF"/>
<path class="atom-7" d="M 1197.83 403.444 L 1207.11 418.444 Q 1208.03 419.924, 1209.51 422.604 Q 1210.99 425.284, 1211.07 425.444 L 1211.07 403.444 L 1214.83 403.444 L 1214.83 431.764 L 1210.95 431.764 L 1200.99 415.364 Q 1199.83 413.444, 1198.59 411.244 Q 1197.39 409.044, 1197.03 408.364 L 1197.03 431.764 L 1193.35 431.764 L 1193.35 403.444 L 1197.83 403.444 " fill="#0000FF"/>
<path class="atom-14" d="M 1524.18 172.987 Q 1524.18 166.187, 1527.54 162.387 Q 1530.9 158.587, 1537.18 158.587 Q 1543.46 158.587, 1546.82 162.387 Q 1550.18 166.187, 1550.18 172.987 Q 1550.18 179.867, 1546.78 183.787 Q 1543.38 187.667, 1537.18 187.667 Q 1530.94 187.667, 1527.54 183.787 Q 1524.18 179.907, 1524.18 172.987 M 1537.18 184.467 Q 1541.5 184.467, 1543.82 181.587 Q 1546.18 178.667, 1546.18 172.987 Q 1546.18 167.427, 1543.82 164.627 Q 1541.5 161.787, 1537.18 161.787 Q 1532.86 161.787, 1530.5 164.587 Q 1528.18 167.387, 1528.18 172.987 Q 1528.18 178.707, 1530.5 181.587 Q 1532.86 184.467, 1537.18 184.467 " fill="#FF0000"/>
<path class="atom-26" d="M 2617.73 246.91 Q 2617.73 240.11, 2621.09 236.31 Q 2624.45 232.51, 2630.73 232.51 Q 2637.01 232.51, 2640.37 236.31 Q 2643.73 240.11, 2643.73 246.91 Q 2643.73 253.79, 2640.33 257.71 Q 2636.93 261.59, 2630.73 261.59 Q 2624.49 261.59, 2621.09 257.71 Q 2617.73 253.83, 2617.73 246.91 M 2630.73 258.39 Q 2635.05 258.39, 2637.37 255.51 Q 2639.73 252.59, 2639.73 246.91 Q 2639.73 241.35, 2637.37 238.55 Q 2635.05 235.71, 2630.73 235.71 Q 2626.41 235.71, 2624.05 238.51 Q 2621.73 241.31, 2621.73 246.91 Q 2621.73 252.63, 2624.05 255.51 Q 2626.41 258.39, 2630.73 258.39 " fill="#FF0000"/>
<path class="atom-27" d="M 2800.63 340.715 L 2809.91 355.715 Q 2810.83 357.195, 2812.31 359.875 Q 2813.79 362.555, 2813.87 362.715 L 2813.87 340.715 L 2817.63 340.715 L 2817.63 369.035 L 2813.75 369.035 L 2803.79 352.635 Q 2802.63 350.715, 2801.39 348.515 Q 2800.19 346.315, 2799.83 345.635 L 2799.83 369.035 L 2796.15 369.035 L 2796.15 340.715 L 2800.63 340.715 " fill="#0000FF"/>
<path class="atom-27" d="M 2821.03 340.715 L 2824.87 340.715 L 2824.87 352.755 L 2839.35 352.755 L 2839.35 340.715 L 2843.19 340.715 L 2843.19 369.035 L 2839.35 369.035 L 2839.35 355.955 L 2824.87 355.955 L 2824.87 369.035 L 2821.03 369.035 L 2821.03 340.715 " fill="#0000FF"/>
<path class="atom-34" d="M 3157.19 157.885 Q 3157.19 151.085, 3160.55 147.285 Q 3163.91 143.485, 3170.19 143.485 Q 3176.47 143.485, 3179.83 147.285 Q 3183.19 151.085, 3183.19 157.885 Q 3183.19 164.765, 3179.79 168.685 Q 3176.39 172.565, 3170.19 172.565 Q 3163.95 172.565, 3160.55 168.685 Q 3157.19 164.805, 3157.19 157.885 M 3170.19 169.365 Q 3174.51 169.365, 3176.83 166.485 Q 3179.19 163.565, 3179.19 157.885 Q 3179.19 152.325, 3176.83 149.525 Q 3174.51 146.685, 3170.19 146.685 Q 3165.87 146.685, 3163.51 149.485 Q 3161.19 152.285, 3161.19 157.885 Q 3161.19 163.605, 3163.51 166.485 Q 3165.87 169.365, 3170.19 169.365 " fill="#FF0000"/>
<path class="note" d="M 680.611 210.101 Q 681.131 208.761, 682.371 208.021 Q 683.611 207.261, 685.331 207.261 Q 687.471 207.261, 688.671 208.421 Q 689.871 209.581, 689.871 211.641 Q 689.871 213.741, 688.311 215.701 Q 686.771 217.661, 683.571 219.981 L 690.111 219.981 L 690.111 221.581 L 680.571 221.581 L 680.571 220.241 Q 683.211 218.361, 684.771 216.961 Q 686.351 215.561, 687.111 214.301 Q 687.871 213.041, 687.871 211.741 Q 687.871 210.381, 687.191 209.621 Q 686.511 208.861, 685.331 208.861 Q 684.191 208.861, 683.431 209.321 Q 682.671 209.781, 682.131 210.801 L 680.611 210.101 " fill="#000000"/>
<path class="note" d="M 775.236 162.949 L 778.336 162.949 L 778.336 152.369 L 774.916 153.429 L 774.456 152.249 L 778.796 150.309 L 780.216 150.549 L 780.216 162.949 L 782.996 162.949 L 782.996 164.549 L 775.236 164.549 L 775.236 162.949 " fill="#000000"/>
<path class="note" d="M 687.381 393.088 Q 688.761 393.488, 689.421 394.388 Q 690.101 395.268, 690.101 396.668 Q 690.101 397.868, 689.501 398.808 Q 688.901 399.728, 687.801 400.248 Q 686.701 400.748, 685.261 400.748 Q 683.741 400.748, 682.601 400.228 Q 681.481 399.688, 680.581 398.608 L 681.721 397.448 Q 682.601 398.408, 683.341 398.788 Q 684.081 399.148, 685.261 399.148 Q 686.541 399.148, 687.321 398.468 Q 688.101 397.768, 688.101 396.648 Q 688.101 395.208, 687.281 394.568 Q 686.481 393.908, 684.741 393.908 L 683.721 393.908 L 683.721 392.468 L 684.621 392.468 Q 686.161 392.448, 686.981 391.788 Q 687.801 391.108, 687.801 389.848 Q 687.801 388.928, 687.121 388.388 Q 686.441 387.828, 685.281 387.828 Q 684.101 387.828, 683.361 388.248 Q 682.641 388.668, 682.081 389.728 L 680.701 388.988 Q 681.201 387.808, 682.401 387.028 Q 683.601 386.228, 685.281 386.228 Q 687.361 386.228, 688.581 387.208 Q 689.801 388.188, 689.801 389.848 Q 689.801 390.988, 689.181 391.808 Q 688.561 392.628, 687.381 393.088 " fill="#000000"/>
<path class="note" d="M 1212.21 459.354 L 1213.91 459.354 L 1213.91 460.954 L 1212.21 460.954 L 1212.21 464.214 L 1210.33 464.214 L 1210.33 460.954 L 1203.01 460.954 L 1203.01 459.694 L 1209.21 450.054 L 1212.21 450.054 L 1212.21 459.354 M 1205.33 459.354 L 1210.33 459.354 L 1210.33 451.334 L 1205.33 459.354 " fill="#000000"/>
<path class="note" d="M 1232.63 308.756 Q 1233.87 308.756, 1234.89 309.296 Q 1235.91 309.816, 1236.49 310.816 Q 1237.07 311.796, 1237.07 313.136 Q 1237.07 314.596, 1236.35 315.656 Q 1235.65 316.696, 1234.49 317.236 Q 1233.33 317.776, 1232.01 317.776 Q 1230.71 317.776, 1229.51 317.296 Q 1228.31 316.816, 1227.49 315.896 L 1228.69 314.656 Q 1229.35 315.376, 1230.25 315.776 Q 1231.15 316.156, 1232.07 316.156 Q 1233.33 316.156, 1234.19 315.376 Q 1235.07 314.596, 1235.07 313.176 Q 1235.07 311.676, 1234.19 310.976 Q 1233.33 310.256, 1231.95 310.256 Q 1230.71 310.256, 1229.33 310.796 L 1228.23 310.276 L 1228.91 303.456 L 1236.19 303.456 L 1235.99 305.056 L 1230.55 305.056 L 1230.13 309.256 Q 1231.39 308.756, 1232.63 308.756 " fill="#000000"/>
<path class="note" d="M 1174.04 228.728 Q 1175.28 228.728, 1176.26 229.268 Q 1177.24 229.808, 1177.78 230.788 Q 1178.32 231.768, 1178.32 233.008 Q 1178.32 234.388, 1177.7 235.468 Q 1177.1 236.528, 1176.02 237.128 Q 1174.94 237.728, 1173.56 237.728 Q 1171.04 237.728, 1169.76 236.028 Q 1168.5 234.308, 1168.5 230.908 Q 1168.5 227.148, 1170.06 225.208 Q 1171.64 223.248, 1174.66 223.248 Q 1175.54 223.248, 1176.28 223.448 Q 1177.04 223.648, 1177.76 224.068 L 1176.98 225.408 Q 1175.94 224.848, 1174.68 224.848 Q 1172.68 224.848, 1171.66 226.148 Q 1170.64 227.428, 1170.52 230.088 Q 1171.24 229.428, 1172.14 229.088 Q 1173.06 228.728, 1174.04 228.728 M 1173.58 236.088 Q 1174.34 236.088, 1174.96 235.688 Q 1175.6 235.288, 1175.96 234.588 Q 1176.32 233.888, 1176.32 233.028 Q 1176.32 231.768, 1175.62 231.048 Q 1174.92 230.328, 1173.68 230.328 Q 1172.82 230.328, 1171.96 230.688 Q 1171.12 231.028, 1170.52 231.628 Q 1170.6 233.968, 1171.34 235.028 Q 1172.08 236.088, 1173.58 236.088 " fill="#000000"/>
<path class="note" d="M 1067.72 239.582 L 1060.3 239.582 L 1060.3 237.982 L 1069.7 237.982 L 1069.7 239.402 L 1063.98 252.142 L 1062.06 252.142 L 1067.72 239.582 " fill="#000000"/>
<path class="note" d="M 1219.8 86.5825 Q 1221.1 87.1425, 1221.84 87.9825 Q 1222.58 88.8025, 1222.58 90.2025 Q 1222.58 91.4025, 1221.96 92.3425 Q 1221.34 93.2625, 1220.22 93.7825 Q 1219.12 94.2825, 1217.66 94.2825 Q 1215.3 94.2825, 1213.94 93.2025 Q 1212.58 92.1025, 1212.58 90.2025 Q 1212.58 89.0425, 1213.18 88.1825 Q 1213.78 87.3025, 1215.02 86.6425 Q 1214.1 86.1225, 1213.6 85.3625 Q 1213.1 84.5825, 1213.1 83.3825 Q 1213.1 81.7225, 1214.3 80.7425 Q 1215.52 79.7625, 1217.58 79.7625 Q 1219.64 79.7625, 1220.84 80.7425 Q 1222.06 81.7225, 1222.06 83.3825 Q 1222.06 84.4225, 1221.48 85.2025 Q 1220.92 85.9625, 1219.8 86.5825 M 1217.58 81.2625 Q 1216.4 81.2625, 1215.74 81.8225 Q 1215.1 82.3825, 1215.1 83.3825 Q 1215.1 84.1225, 1215.54 84.6225 Q 1215.98 85.1025, 1216.6 85.3825 Q 1217.24 85.6625, 1218.46 86.0825 Q 1219.32 85.4825, 1219.68 84.8425 Q 1220.06 84.2025, 1220.06 83.3825 Q 1220.06 82.3825, 1219.4 81.8225 Q 1218.76 81.2625, 1217.58 81.2625 M 1217.66 92.7825 Q 1218.98 92.7825, 1219.78 92.0825 Q 1220.58 91.3625, 1220.58 90.1825 Q 1220.58 89.4225, 1220.16 88.9425 Q 1219.74 88.4625, 1219.1 88.1825 Q 1218.48 87.9025, 1217.36 87.5425 L 1216.46 87.2425 Q 1215.46 87.8425, 1215.02 88.5625 Q 1214.58 89.2625, 1214.58 90.1825 Q 1214.58 91.3625, 1215.42 92.0825 Q 1216.26 92.7825, 1217.66 92.7825 " fill="#000000"/>
<path class="note" d="M 1355.79 64.4821 Q 1358.31 64.4821, 1359.57 66.2021 Q 1360.85 67.9021, 1360.85 71.3021 Q 1360.85 75.0621, 1359.27 77.0221 Q 1357.71 78.9621, 1354.69 78.9621 Q 1353.81 78.9621, 1353.05 78.7621 Q 1352.31 78.5621, 1351.59 78.1421 L 1352.37 76.8021 Q 1353.41 77.3621, 1354.67 77.3621 Q 1356.67 77.3621, 1357.69 76.0821 Q 1358.71 74.7821, 1358.83 72.1221 Q 1358.11 72.7821, 1357.19 73.1421 Q 1356.29 73.4821, 1355.31 73.4821 Q 1354.07 73.4821, 1353.09 72.9421 Q 1352.11 72.4021, 1351.57 71.4221 Q 1351.03 70.4421, 1351.03 69.2021 Q 1351.03 67.8221, 1351.63 66.7621 Q 1352.25 65.6821, 1353.33 65.0821 Q 1354.41 64.4821, 1355.79 64.4821 M 1353.03 69.1821 Q 1353.03 70.4421, 1353.73 71.1621 Q 1354.43 71.8821, 1355.67 71.8821 Q 1356.53 71.8821, 1357.37 71.5421 Q 1358.23 71.1821, 1358.83 70.5821 Q 1358.75 68.2421, 1358.01 67.1821 Q 1357.27 66.1221, 1355.77 66.1221 Q 1355.01 66.1221, 1354.37 66.5221 Q 1353.75 66.9221, 1353.39 67.6221 Q 1353.03 68.3221, 1353.03 69.1821 " fill="#000000"/>
<path class="note" d="M 1421.02 155.147 L 1424.12 155.147 L 1424.12 144.567 L 1420.7 145.627 L 1420.24 144.447 L 1424.58 142.507 L 1426 142.747 L 1426 155.147 L 1428.78 155.147 L 1428.78 156.747 L 1421.02 156.747 L 1421.02 155.147 " fill="#000000"/>
<path class="note" d="M 1435.18 156.907 Q 1432.58 156.907, 1431.28 154.987 Q 1430 153.067, 1430 149.647 Q 1430 146.227, 1431.28 144.327 Q 1432.56 142.427, 1435.18 142.427 Q 1437.8 142.427, 1439.08 144.327 Q 1440.36 146.227, 1440.36 149.647 Q 1440.36 153.067, 1439.06 154.987 Q 1437.78 156.907, 1435.18 156.907 M 1435.18 155.307 Q 1436.72 155.307, 1437.54 153.887 Q 1438.36 152.447, 1438.36 149.647 Q 1438.36 146.867, 1437.54 145.447 Q 1436.72 144.027, 1435.18 144.027 Q 1433.66 144.027, 1432.82 145.447 Q 1432 146.867, 1432 149.647 Q 1432 152.447, 1432.82 153.887 Q 1433.66 155.307, 1435.18 155.307 " fill="#000000"/>
<path class="note" d="M 1540.59 142.01 L 1543.69 142.01 L 1543.69 131.43 L 1540.27 132.49 L 1539.81 131.31 L 1544.15 129.37 L 1545.57 129.61 L 1545.57 142.01 L 1548.35 142.01 L 1548.35 143.61 L 1540.59 143.61 L 1540.59 142.01 " fill="#000000"/>
<path class="note" d="M 1550.21 142.01 L 1553.31 142.01 L 1553.31 131.43 L 1549.89 132.49 L 1549.43 131.31 L 1553.77 129.37 L 1555.19 129.61 L 1555.19 142.01 L 1557.97 142.01 L 1557.97 143.61 L 1550.21 143.61 L 1550.21 142.01 " fill="#000000"/>
<path class="note" d="M 1586.79 292.829 L 1589.89 292.829 L 1589.89 282.249 L 1586.47 283.309 L 1586.01 282.129 L 1590.35 280.189 L 1591.77 280.429 L 1591.77 292.829 L 1594.55 292.829 L 1594.55 294.429 L 1586.79 294.429 L 1586.79 292.829 " fill="#000000"/>
<path class="note" d="M 1595.59 282.949 Q 1596.11 281.609, 1597.35 280.869 Q 1598.59 280.109, 1600.31 280.109 Q 1602.45 280.109, 1603.65 281.269 Q 1604.85 282.429, 1604.85 284.489 Q 1604.85 286.589, 1603.29 288.549 Q 1601.75 290.509, 1598.55 292.829 L 1605.09 292.829 L 1605.09 294.429 L 1595.55 294.429 L 1595.55 293.089 Q 1598.19 291.209, 1599.75 289.809 Q 1601.33 288.409, 1602.09 287.149 Q 1602.85 285.889, 1602.85 284.589 Q 1602.85 283.229, 1602.17 282.469 Q 1601.49 281.709, 1600.31 281.709 Q 1599.17 281.709, 1598.41 282.169 Q 1597.65 282.629, 1597.11 283.649 L 1595.59 282.949 " fill="#000000"/>
<path class="note" d="M 1705.47 279.732 L 1708.57 279.732 L 1708.57 269.152 L 1705.15 270.212 L 1704.69 269.032 L 1709.03 267.092 L 1710.45 267.332 L 1710.45 279.732 L 1713.23 279.732 L 1713.23 281.332 L 1705.47 281.332 L 1705.47 279.732 " fill="#000000"/>
<path class="note" d="M 1720.87 273.872 Q 1722.25 274.272, 1722.91 275.172 Q 1723.59 276.052, 1723.59 277.452 Q 1723.59 278.652, 1722.99 279.592 Q 1722.39 280.512, 1721.29 281.032 Q 1720.19 281.532, 1718.75 281.532 Q 1717.23 281.532, 1716.09 281.012 Q 1714.97 280.472, 1714.07 279.392 L 1715.21 278.232 Q 1716.09 279.192, 1716.83 279.572 Q 1717.57 279.932, 1718.75 279.932 Q 1720.03 279.932, 1720.81 279.252 Q 1721.59 278.552, 1721.59 277.432 Q 1721.59 275.992, 1720.77 275.352 Q 1719.97 274.692, 1718.23 274.692 L 1717.21 274.692 L 1717.21 273.252 L 1718.11 273.252 Q 1719.65 273.232, 1720.47 272.572 Q 1721.29 271.892, 1721.29 270.632 Q 1721.29 269.712, 1720.61 269.172 Q 1719.93 268.612, 1718.77 268.612 Q 1717.59 268.612, 1716.85 269.032 Q 1716.13 269.452, 1715.57 270.512 L 1714.19 269.772 Q 1714.69 268.592, 1715.89 267.812 Q 1717.09 267.012, 1718.77 267.012 Q 1720.85 267.012, 1722.07 267.992 Q 1723.29 268.972, 1723.29 270.632 Q 1723.29 271.772, 1722.67 272.592 Q 1722.05 273.412, 1720.87 273.872 " fill="#000000"/>
<path class="note" d="M 1775.54 375.845 L 1778.64 375.845 L 1778.64 365.265 L 1775.22 366.325 L 1774.76 365.145 L 1779.1 363.205 L 1780.52 363.445 L 1780.52 375.845 L 1783.3 375.845 L 1783.3 377.445 L 1775.54 377.445 L 1775.54 375.845 " fill="#000000"/>
<path class="note" d="M 1793.1 372.585 L 1794.8 372.585 L 1794.8 374.185 L 1793.1 374.185 L 1793.1 377.445 L 1791.22 377.445 L 1791.22 374.185 L 1783.9 374.185 L 1783.9 372.925 L 1790.1 363.285 L 1793.1 363.285 L 1793.1 372.585 M 1786.22 372.585 L 1791.22 372.585 L 1791.22 364.565 L 1786.22 372.585 " fill="#000000"/>
<path class="note" d="M 1914.4 360.565 L 1917.5 360.565 L 1917.5 349.985 L 1914.08 351.045 L 1913.62 349.865 L 1917.96 347.925 L 1919.38 348.165 L 1919.38 360.565 L 1922.16 360.565 L 1922.16 362.165 L 1914.4 362.165 L 1914.4 360.565 " fill="#000000"/>
<path class="note" d="M 1928.22 353.305 Q 1929.46 353.305, 1930.48 353.845 Q 1931.5 354.365, 1932.08 355.365 Q 1932.66 356.345, 1932.66 357.685 Q 1932.66 359.145, 1931.94 360.205 Q 1931.24 361.245, 1930.08 361.785 Q 1928.92 362.325, 1927.6 362.325 Q 1926.3 362.325, 1925.1 361.845 Q 1923.9 361.365, 1923.08 360.445 L 1924.28 359.205 Q 1924.94 359.925, 1925.84 360.325 Q 1926.74 360.705, 1927.66 360.705 Q 1928.92 360.705, 1929.78 359.925 Q 1930.66 359.145, 1930.66 357.725 Q 1930.66 356.225, 1929.78 355.525 Q 1928.92 354.805, 1927.54 354.805 Q 1926.3 354.805, 1924.92 355.345 L 1923.82 354.825 L 1924.5 348.005 L 1931.78 348.005 L 1931.58 349.605 L 1926.14 349.605 L 1925.72 353.805 Q 1926.98 353.305, 1928.22 353.305 " fill="#000000"/>
<path class="note" d="M 1989.77 230.962 L 1992.87 230.962 L 1992.87 220.382 L 1989.45 221.442 L 1988.99 220.262 L 1993.33 218.322 L 1994.75 218.562 L 1994.75 230.962 L 1997.53 230.962 L 1997.53 232.562 L 1989.77 232.562 L 1989.77 230.962 " fill="#000000"/>
<path class="note" d="M 2004.43 223.722 Q 2005.67 223.722, 2006.65 224.262 Q 2007.63 224.802, 2008.17 225.782 Q 2008.71 226.762, 2008.71 228.002 Q 2008.71 229.382, 2008.09 230.462 Q 2007.49 231.522, 2006.41 232.122 Q 2005.33 232.722, 2003.95 232.722 Q 2001.43 232.722, 2000.15 231.022 Q 1998.89 229.302, 1998.89 225.902 Q 1998.89 222.142, 2000.45 220.202 Q 2002.03 218.242, 2005.05 218.242 Q 2005.93 218.242, 2006.67 218.442 Q 2007.43 218.642, 2008.15 219.062 L 2007.37 220.402 Q 2006.33 219.842, 2005.07 219.842 Q 2003.07 219.842, 2002.05 221.142 Q 2001.03 222.422, 2000.91 225.082 Q 2001.63 224.422, 2002.53 224.082 Q 2003.45 223.722, 2004.43 223.722 M 2003.97 231.082 Q 2004.73 231.082, 2005.35 230.682 Q 2005.99 230.282, 2006.35 229.582 Q 2006.71 228.882, 2006.71 228.022 Q 2006.71 226.762, 2006.01 226.042 Q 2005.31 225.322, 2004.07 225.322 Q 2003.21 225.322, 2002.35 225.682 Q 2001.51 226.022, 2000.91 226.622 Q 2000.99 228.962, 2001.73 230.022 Q 2002.47 231.082, 2003.97 231.082 " fill="#000000"/>
<path class="note" d="M 1888.3 120.926 L 1891.4 120.926 L 1891.4 110.346 L 1887.98 111.406 L 1887.52 110.226 L 1891.86 108.286 L 1893.28 108.526 L 1893.28 120.926 L 1896.06 120.926 L 1896.06 122.526 L 1888.3 122.526 L 1888.3 120.926 " fill="#000000"/>
<path class="note" d="M 1903.84 109.966 L 1896.42 109.966 L 1896.42 108.366 L 1905.82 108.366 L 1905.82 109.786 L 1900.1 122.526 L 1898.18 122.526 L 1903.84 109.966 " fill="#000000"/>
<path class="note" d="M 1749.2 136.246 L 1752.3 136.246 L 1752.3 125.666 L 1748.88 126.726 L 1748.42 125.546 L 1752.76 123.606 L 1754.18 123.846 L 1754.18 136.246 L 1756.96 136.246 L 1756.96 137.846 L 1749.2 137.846 L 1749.2 136.246 " fill="#000000"/>
<path class="note" d="M 1765.42 130.346 Q 1766.72 130.906, 1767.46 131.746 Q 1768.2 132.566, 1768.2 133.966 Q 1768.2 135.166, 1767.58 136.106 Q 1766.96 137.026, 1765.84 137.546 Q 1764.74 138.046, 1763.28 138.046 Q 1760.92 138.046, 1759.56 136.966 Q 1758.2 135.866, 1758.2 133.966 Q 1758.2 132.806, 1758.8 131.946 Q 1759.4 131.066, 1760.64 130.406 Q 1759.72 129.886, 1759.22 129.126 Q 1758.72 128.346, 1758.72 127.146 Q 1758.72 125.486, 1759.92 124.506 Q 1761.14 123.526, 1763.2 123.526 Q 1765.26 123.526, 1766.46 124.506 Q 1767.68 125.486, 1767.68 127.146 Q 1767.68 128.186, 1767.1 128.966 Q 1766.54 129.726, 1765.42 130.346 M 1763.2 125.026 Q 1762.02 125.026, 1761.36 125.586 Q 1760.72 126.146, 1760.72 127.146 Q 1760.72 127.886, 1761.16 128.386 Q 1761.6 128.866, 1762.22 129.146 Q 1762.86 129.426, 1764.08 129.846 Q 1764.94 129.246, 1765.3 128.606 Q 1765.68 127.966, 1765.68 127.146 Q 1765.68 126.146, 1765.02 125.586 Q 1764.38 125.026, 1763.2 125.026 M 1763.28 136.546 Q 1764.6 136.546, 1765.4 135.846 Q 1766.2 135.126, 1766.2 133.946 Q 1766.2 133.186, 1765.78 132.706 Q 1765.36 132.226, 1764.72 131.946 Q 1764.1 131.666, 1762.98 131.306 L 1762.08 131.006 Q 1761.08 131.606, 1760.64 132.326 Q 1760.2 133.026, 1760.2 133.946 Q 1760.2 135.126, 1761.04 135.846 Q 1761.88 136.546, 1763.28 136.546 " fill="#000000"/>
<path class="note" d="M 1349.42 319.024 L 1352.52 319.024 L 1352.52 308.444 L 1349.1 309.504 L 1348.64 308.324 L 1352.98 306.384 L 1354.4 306.624 L 1354.4 319.024 L 1357.18 319.024 L 1357.18 320.624 L 1349.42 320.624 L 1349.42 319.024 " fill="#000000"/>
<path class="note" d="M 1363.04 306.304 Q 1365.56 306.304, 1366.82 308.024 Q 1368.1 309.724, 1368.1 313.124 Q 1368.1 316.884, 1366.52 318.844 Q 1364.96 320.784, 1361.94 320.784 Q 1361.06 320.784, 1360.3 320.584 Q 1359.56 320.384, 1358.84 319.964 L 1359.62 318.624 Q 1360.66 319.184, 1361.92 319.184 Q 1363.92 319.184, 1364.94 317.904 Q 1365.96 316.604, 1366.08 313.944 Q 1365.36 314.604, 1364.44 314.964 Q 1363.54 315.304, 1362.56 315.304 Q 1361.32 315.304, 1360.34 314.764 Q 1359.36 314.224, 1358.82 313.244 Q 1358.28 312.264, 1358.28 311.024 Q 1358.28 309.644, 1358.88 308.584 Q 1359.5 307.504, 1360.58 306.904 Q 1361.66 306.304, 1363.04 306.304 M 1360.28 311.004 Q 1360.28 312.264, 1360.98 312.984 Q 1361.68 313.704, 1362.92 313.704 Q 1363.78 313.704, 1364.62 313.364 Q 1365.48 313.004, 1366.08 312.404 Q 1366 310.064, 1365.26 309.004 Q 1364.52 307.944, 1363.02 307.944 Q 1362.26 307.944, 1361.62 308.344 Q 1361 308.744, 1360.64 309.444 Q 1360.28 310.144, 1360.28 311.004 " fill="#000000"/>
<path class="note" d="M 1406.22 389.272 Q 1406.74 387.932, 1407.98 387.192 Q 1409.22 386.432, 1410.94 386.432 Q 1413.08 386.432, 1414.28 387.592 Q 1415.48 388.752, 1415.48 390.812 Q 1415.48 392.912, 1413.92 394.872 Q 1412.38 396.832, 1409.18 399.152 L 1415.72 399.152 L 1415.72 400.752 L 1406.18 400.752 L 1406.18 399.412 Q 1408.82 397.532, 1410.38 396.132 Q 1411.96 394.732, 1412.72 393.472 Q 1413.48 392.212, 1413.48 390.912 Q 1413.48 389.552, 1412.8 388.792 Q 1412.12 388.032, 1410.94 388.032 Q 1409.8 388.032, 1409.04 388.492 Q 1408.28 388.952, 1407.74 389.972 L 1406.22 389.272 " fill="#000000"/>
<path class="note" d="M 1422.12 400.912 Q 1419.52 400.912, 1418.22 398.992 Q 1416.94 397.072, 1416.94 393.652 Q 1416.94 390.232, 1418.22 388.332 Q 1419.5 386.432, 1422.12 386.432 Q 1424.74 386.432, 1426.02 388.332 Q 1427.3 390.232, 1427.3 393.652 Q 1427.3 397.072, 1426 398.992 Q 1424.72 400.912, 1422.12 400.912 M 1422.12 399.312 Q 1423.66 399.312, 1424.48 397.892 Q 1425.3 396.452, 1425.3 393.652 Q 1425.3 390.872, 1424.48 389.452 Q 1423.66 388.032, 1422.12 388.032 Q 1420.6 388.032, 1419.76 389.452 Q 1418.94 390.872, 1418.94 393.652 Q 1418.94 396.452, 1419.76 397.892 Q 1420.6 399.312, 1422.12 399.312 " fill="#000000"/>
<path class="note" d="M 2638.7 469.327 L 2641.8 469.327 L 2641.8 458.747 L 2638.38 459.807 L 2637.92 458.627 L 2642.26 456.687 L 2643.68 456.927 L 2643.68 469.327 L 2646.46 469.327 L 2646.46 470.927 L 2638.7 470.927 L 2638.7 469.327 " fill="#000000"/>
<path class="note" d="M 2692.37 364.864 Q 2692.89 363.524, 2694.13 362.784 Q 2695.37 362.024, 2697.09 362.024 Q 2699.23 362.024, 2700.43 363.184 Q 2701.63 364.344, 2701.63 366.404 Q 2701.63 368.504, 2700.07 370.464 Q 2698.53 372.424, 2695.33 374.744 L 2701.87 374.744 L 2701.87 376.344 L 2692.33 376.344 L 2692.33 375.004 Q 2694.97 373.124, 2696.53 371.724 Q 2698.11 370.324, 2698.87 369.064 Q 2699.63 367.804, 2699.63 366.504 Q 2699.63 365.144, 2698.95 364.384 Q 2698.27 363.624, 2697.09 363.624 Q 2695.95 363.624, 2695.19 364.084 Q 2694.43 364.544, 2693.89 365.564 L 2692.37 364.864 " fill="#000000"/>
<path class="note" d="M 2613.8 211.571 Q 2615.18 211.971, 2615.84 212.871 Q 2616.52 213.751, 2616.52 215.151 Q 2616.52 216.351, 2615.92 217.291 Q 2615.32 218.211, 2614.22 218.731 Q 2613.12 219.231, 2611.68 219.231 Q 2610.16 219.231, 2609.02 218.711 Q 2607.9 218.171, 2607 217.091 L 2608.14 215.931 Q 2609.02 216.891, 2609.76 217.271 Q 2610.5 217.631, 2611.68 217.631 Q 2612.96 217.631, 2613.74 216.951 Q 2614.52 216.251, 2614.52 215.131 Q 2614.52 213.691, 2613.7 213.051 Q 2612.9 212.391, 2611.16 212.391 L 2610.14 212.391 L 2610.14 210.951 L 2611.04 210.951 Q 2612.58 210.931, 2613.4 210.271 Q 2614.22 209.591, 2614.22 208.331 Q 2614.22 207.411, 2613.54 206.871 Q 2612.86 206.311, 2611.7 206.311 Q 2610.52 206.311, 2609.78 206.731 Q 2609.06 207.151, 2608.5 208.211 L 2607.12 207.471 Q 2607.62 206.291, 2608.82 205.511 Q 2610.02 204.711, 2611.7 204.711 Q 2613.78 204.711, 2615 205.691 Q 2616.22 206.671, 2616.22 208.331 Q 2616.22 209.471, 2615.6 210.291 Q 2614.98 211.111, 2613.8 211.571 " fill="#000000"/>
<path class="note" d="M 2829.6 392.054 L 2831.3 392.054 L 2831.3 393.654 L 2829.6 393.654 L 2829.6 396.914 L 2827.72 396.914 L 2827.72 393.654 L 2820.4 393.654 L 2820.4 392.394 L 2826.6 382.754 L 2829.6 382.754 L 2829.6 392.054 M 2822.72 392.054 L 2827.72 392.054 L 2827.72 384.034 L 2822.72 392.054 " fill="#000000"/>
<path class="note" d="M 2849.74 250.862 Q 2850.98 250.862, 2852 251.402 Q 2853.02 251.922, 2853.6 252.922 Q 2854.18 253.902, 2854.18 255.242 Q 2854.18 256.702, 2853.46 257.762 Q 2852.76 258.802, 2851.6 259.342 Q 2850.44 259.882, 2849.12 259.882 Q 2847.82 259.882, 2846.62 259.402 Q 2845.42 258.922, 2844.6 258.002 L 2845.8 256.762 Q 2846.46 257.482, 2847.36 257.882 Q 2848.26 258.262, 2849.18 258.262 Q 2850.44 258.262, 2851.3 257.482 Q 2852.18 256.702, 2852.18 255.282 Q 2852.18 253.782, 2851.3 253.082 Q 2850.44 252.362, 2849.06 252.362 Q 2847.82 252.362, 2846.44 252.902 L 2845.34 252.382 L 2846.02 245.562 L 2853.3 245.562 L 2853.1 247.162 L 2847.66 247.162 L 2847.24 251.362 Q 2848.5 250.862, 2849.74 250.862 " fill="#000000"/>
<path class="note" d="M 2802.61 163.566 Q 2803.85 163.566, 2804.83 164.106 Q 2805.81 164.646, 2806.35 165.626 Q 2806.89 166.606, 2806.89 167.846 Q 2806.89 169.226, 2806.27 170.306 Q 2805.67 171.366, 2804.59 171.966 Q 2803.51 172.566, 2802.13 172.566 Q 2799.61 172.566, 2798.33 170.866 Q 2797.07 169.146, 2797.07 165.746 Q 2797.07 161.986, 2798.63 160.046 Q 2800.21 158.086, 2803.23 158.086 Q 2804.11 158.086, 2804.85 158.286 Q 2805.61 158.486, 2806.33 158.906 L 2805.55 160.246 Q 2804.51 159.686, 2803.25 159.686 Q 2801.25 159.686, 2800.23 160.986 Q 2799.21 162.266, 2799.09 164.926 Q 2799.81 164.266, 2800.71 163.926 Q 2801.63 163.566, 2802.61 163.566 M 2802.15 170.926 Q 2802.91 170.926, 2803.53 170.526 Q 2804.17 170.126, 2804.53 169.426 Q 2804.89 168.726, 2804.89 167.866 Q 2804.89 166.606, 2804.19 165.886 Q 2803.49 165.166, 2802.25 165.166 Q 2801.39 165.166, 2800.53 165.526 Q 2799.69 165.866, 2799.09 166.466 Q 2799.17 168.806, 2799.91 169.866 Q 2800.65 170.926, 2802.15 170.926 " fill="#000000"/>
<path class="note" d="M 2695.3 159.523 L 2687.88 159.523 L 2687.88 157.923 L 2697.28 157.923 L 2697.28 159.343 L 2691.56 172.083 L 2689.64 172.083 L 2695.3 159.523 " fill="#000000"/>
<path class="note" d="M 2867.5 28.7703 Q 2868.8 29.3303, 2869.54 30.1703 Q 2870.28 30.9903, 2870.28 32.3903 Q 2870.28 33.5903, 2869.66 34.5303 Q 2869.04 35.4503, 2867.92 35.9703 Q 2866.82 36.4703, 2865.36 36.4703 Q 2863 36.4703, 2861.64 35.3903 Q 2860.28 34.2903, 2860.28 32.3903 Q 2860.28 31.2303, 2860.88 30.3703 Q 2861.48 29.4903, 2862.72 28.8303 Q 2861.8 28.3103, 2861.3 27.5503 Q 2860.8 26.7703, 2860.8 25.5703 Q 2860.8 23.9103, 2862 22.9303 Q 2863.22 21.9503, 2865.28 21.9503 Q 2867.34 21.9503, 2868.54 22.9303 Q 2869.76 23.9103, 2869.76 25.5703 Q 2869.76 26.6103, 2869.18 27.3903 Q 2868.62 28.1503, 2867.5 28.7703 M 2865.28 23.4503 Q 2864.1 23.4503, 2863.44 24.0103 Q 2862.8 24.5703, 2862.8 25.5703 Q 2862.8 26.3103, 2863.24 26.8103 Q 2863.68 27.2903, 2864.3 27.5703 Q 2864.94 27.8503, 2866.16 28.2703 Q 2867.02 27.6703, 2867.38 27.0303 Q 2867.76 26.3903, 2867.76 25.5703 Q 2867.76 24.5703, 2867.1 24.0103 Q 2866.46 23.4503, 2865.28 23.4503 M 2865.36 34.9703 Q 2866.68 34.9703, 2867.48 34.2703 Q 2868.28 33.5503, 2868.28 32.3703 Q 2868.28 31.6103, 2867.86 31.1303 Q 2867.44 30.6503, 2866.8 30.3703 Q 2866.18 30.0903, 2865.06 29.7303 L 2864.16 29.4303 Q 2863.16 30.0303, 2862.72 30.7503 Q 2862.28 31.4503, 2862.28 32.3703 Q 2862.28 33.5503, 2863.12 34.2703 Q 2863.96 34.9703, 2865.36 34.9703 " fill="#000000"/>
<path class="note" d="M 3004.27 25.6489 Q 3006.79 25.6489, 3008.05 27.3689 Q 3009.33 29.0689, 3009.33 32.4689 Q 3009.33 36.2289, 3007.75 38.1889 Q 3006.19 40.1289, 3003.17 40.1289 Q 3002.29 40.1289, 3001.53 39.9289 Q 3000.79 39.7289, 3000.07 39.3089 L 3000.85 37.9689 Q 3001.89 38.5289, 3003.15 38.5289 Q 3005.15 38.5289, 3006.17 37.2489 Q 3007.19 35.9489, 3007.31 33.2889 Q 3006.59 33.9489, 3005.67 34.3089 Q 3004.77 34.6489, 3003.79 34.6489 Q 3002.55 34.6489, 3001.57 34.1089 Q 3000.59 33.5689, 3000.05 32.5889 Q 2999.51 31.6089, 2999.51 30.3689 Q 2999.51 28.9889, 3000.11 27.9289 Q 3000.73 26.8489, 3001.81 26.2489 Q 3002.89 25.6489, 3004.27 25.6489 M 3001.51 30.3489 Q 3001.51 31.6089, 3002.21 32.3289 Q 3002.91 33.0489, 3004.15 33.0489 Q 3005.01 33.0489, 3005.85 32.7089 Q 3006.71 32.3489, 3007.31 31.7489 Q 3007.23 29.4089, 3006.49 28.3489 Q 3005.75 27.2889, 3004.25 27.2889 Q 3003.49 27.2889, 3002.85 27.6889 Q 3002.23 28.0889, 3001.87 28.7889 Q 3001.51 29.4889, 3001.51 30.3489 " fill="#000000"/>
<path class="note" d="M 3058.16 126.293 L 3061.26 126.293 L 3061.26 115.713 L 3057.84 116.773 L 3057.38 115.593 L 3061.72 113.653 L 3063.14 113.893 L 3063.14 126.293 L 3065.92 126.293 L 3065.92 127.893 L 3058.16 127.893 L 3058.16 126.293 " fill="#000000"/>
<path class="note" d="M 3072.32 128.053 Q 3069.72 128.053, 3068.42 126.133 Q 3067.14 124.213, 3067.14 120.793 Q 3067.14 117.373, 3068.42 115.473 Q 3069.7 113.573, 3072.32 113.573 Q 3074.94 113.573, 3076.22 115.473 Q 3077.5 117.373, 3077.5 120.793 Q 3077.5 124.213, 3076.2 126.133 Q 3074.92 128.053, 3072.32 128.053 M 3072.32 126.453 Q 3073.86 126.453, 3074.68 125.033 Q 3075.5 123.593, 3075.5 120.793 Q 3075.5 118.013, 3074.68 116.593 Q 3073.86 115.173, 3072.32 115.173 Q 3070.8 115.173, 3069.96 116.593 Q 3069.14 118.013, 3069.14 120.793 Q 3069.14 123.593, 3069.96 125.033 Q 3070.8 126.453, 3072.32 126.453 " fill="#000000"/>
<path class="note" d="M 3178.41 129.424 L 3181.51 129.424 L 3181.51 118.844 L 3178.09 119.904 L 3177.63 118.724 L 3181.97 116.784 L 3183.39 117.024 L 3183.39 129.424 L 3186.17 129.424 L 3186.17 131.024 L 3178.41 131.024 L 3178.41 129.424 " fill="#000000"/>
<path class="note" d="M 3188.03 129.424 L 3191.13 129.424 L 3191.13 118.844 L 3187.71 119.904 L 3187.25 118.724 L 3191.59 116.784 L 3193.01 117.024 L 3193.01 129.424 L 3195.79 129.424 L 3195.79 131.024 L 3188.03 131.024 L 3188.03 129.424 " fill="#000000"/>
<path class="note" d="M 3203.65 285.192 L 3206.75 285.192 L 3206.75 274.612 L 3203.33 275.672 L 3202.87 274.492 L 3207.21 272.552 L 3208.63 272.792 L 3208.63 285.192 L 3211.41 285.192 L 3211.41 286.792 L 3203.65 286.792 L 3203.65 285.192 " fill="#000000"/>
<path class="note" d="M 3212.45 275.312 Q 3212.97 273.972, 3214.21 273.232 Q 3215.45 272.472, 3217.17 272.472 Q 3219.31 272.472, 3220.51 273.632 Q 3221.71 274.792, 3221.71 276.852 Q 3221.71 278.952, 3220.15 280.912 Q 3218.61 282.872, 3215.41 285.192 L 3221.95 285.192 L 3221.95 286.792 L 3212.41 286.792 L 3212.41 285.452 Q 3215.05 283.572, 3216.61 282.172 Q 3218.19 280.772, 3218.95 279.512 Q 3219.71 278.252, 3219.71 276.952 Q 3219.71 275.592, 3219.03 274.832 Q 3218.35 274.072, 3217.17 274.072 Q 3216.03 274.072, 3215.27 274.532 Q 3214.51 274.992, 3213.97 276.012 L 3212.45 275.312 " fill="#000000"/>
<path class="note" d="M 3323.01 288.362 L 3326.11 288.362 L 3326.11 277.782 L 3322.69 278.842 L 3322.23 277.662 L 3326.57 275.722 L 3327.99 275.962 L 3327.99 288.362 L 3330.77 288.362 L 3330.77 289.962 L 3323.01 289.962 L 3323.01 288.362 " fill="#000000"/>
<path class="note" d="M 3338.41 282.502 Q 3339.79 282.902, 3340.45 283.802 Q 3341.13 284.682, 3341.13 286.082 Q 3341.13 287.282, 3340.53 288.222 Q 3339.93 289.142, 3338.83 289.662 Q 3337.73 290.162, 3336.29 290.162 Q 3334.77 290.162, 3333.63 289.642 Q 3332.51 289.102, 3331.61 288.022 L 3332.75 286.862 Q 3333.63 287.822, 3334.37 288.202 Q 3335.11 288.562, 3336.29 288.562 Q 3337.57 288.562, 3338.35 287.882 Q 3339.13 287.182, 3339.13 286.062 Q 3339.13 284.622, 3338.31 283.982 Q 3337.51 283.322, 3335.77 283.322 L 3334.75 283.322 L 3334.75 281.882 L 3335.65 281.882 Q 3337.19 281.862, 3338.01 281.202 Q 3338.83 280.522, 3338.83 279.262 Q 3338.83 278.342, 3338.15 277.802 Q 3337.47 277.242, 3336.31 277.242 Q 3335.13 277.242, 3334.39 277.662 Q 3333.67 278.082, 3333.11 279.142 L 3331.73 278.402 Q 3332.23 277.222, 3333.43 276.442 Q 3334.63 275.642, 3336.31 275.642 Q 3338.39 275.642, 3339.61 276.622 Q 3340.83 277.602, 3340.83 279.262 Q 3340.83 280.402, 3340.21 281.222 Q 3339.59 282.042, 3338.41 282.502 " fill="#000000"/>
<path class="note" d="M 3379.33 393.197 L 3382.43 393.197 L 3382.43 382.617 L 3379.01 383.677 L 3378.55 382.497 L 3382.89 380.557 L 3384.31 380.797 L 3384.31 393.197 L 3387.09 393.197 L 3387.09 394.797 L 3379.33 394.797 L 3379.33 393.197 " fill="#000000"/>
<path class="note" d="M 3396.89 389.937 L 3398.59 389.937 L 3398.59 391.537 L 3396.89 391.537 L 3396.89 394.797 L 3395.01 394.797 L 3395.01 391.537 L 3387.69 391.537 L 3387.69 390.277 L 3393.89 380.637 L 3396.89 380.637 L 3396.89 389.937 M 3390.01 389.937 L 3395.01 389.937 L 3395.01 381.917 L 3390.01 389.937 " fill="#000000"/>
<path class="note" d="M 3518.97 396.896 L 3522.07 396.896 L 3522.07 386.316 L 3518.65 387.376 L 3518.19 386.196 L 3522.53 384.256 L 3523.95 384.496 L 3523.95 396.896 L 3526.73 396.896 L 3526.73 398.496 L 3518.97 398.496 L 3518.97 396.896 " fill="#000000"/>
<path class="note" d="M 3532.79 389.636 Q 3534.03 389.636, 3535.05 390.176 Q 3536.07 390.696, 3536.65 391.696 Q 3537.23 392.676, 3537.23 394.016 Q 3537.23 395.476, 3536.51 396.536 Q 3535.81 397.576, 3534.65 398.116 Q 3533.49 398.656, 3532.17 398.656 Q 3530.87 398.656, 3529.67 398.176 Q 3528.47 397.696, 3527.65 396.776 L 3528.85 395.536 Q 3529.51 396.256, 3530.41 396.656 Q 3531.31 397.036, 3532.23 397.036 Q 3533.49 397.036, 3534.35 396.256 Q 3535.23 395.476, 3535.23 394.056 Q 3535.23 392.556, 3534.35 391.856 Q 3533.49 391.136, 3532.11 391.136 Q 3530.87 391.136, 3529.49 391.676 L 3528.39 391.156 L 3529.07 384.336 L 3536.35 384.336 L 3536.15 385.936 L 3530.71 385.936 L 3530.29 390.136 Q 3531.55 389.636, 3532.79 389.636 " fill="#000000"/>
<path class="note" d="M 3611.29 278.808 L 3614.39 278.808 L 3614.39 268.228 L 3610.97 269.288 L 3610.51 268.108 L 3614.85 266.168 L 3616.27 266.408 L 3616.27 278.808 L 3619.05 278.808 L 3619.05 280.408 L 3611.29 280.408 L 3611.29 278.808 " fill="#000000"/>
<path class="note" d="M 3625.95 271.568 Q 3627.19 271.568, 3628.17 272.108 Q 3629.15 272.648, 3629.69 273.628 Q 3630.23 274.608, 3630.23 275.848 Q 3630.23 277.228, 3629.61 278.308 Q 3629.01 279.368, 3627.93 279.968 Q 3626.85 280.568, 3625.47 280.568 Q 3622.95 280.568, 3621.67 278.868 Q 3620.41 277.148, 3620.41 273.748 Q 3620.41 269.988, 3621.97 268.048 Q 3623.55 266.088, 3626.57 266.088 Q 3627.45 266.088, 3628.19 266.288 Q 3628.95 266.488, 3629.67 266.908 L 3628.89 268.248 Q 3627.85 267.688, 3626.59 267.688 Q 3624.59 267.688, 3623.57 268.988 Q 3622.55 270.268, 3622.43 272.928 Q 3623.15 272.268, 3624.05 271.928 Q 3624.97 271.568, 3625.95 271.568 M 3625.49 278.928 Q 3626.25 278.928, 3626.87 278.528 Q 3627.51 278.128, 3627.87 277.428 Q 3628.23 276.728, 3628.23 275.868 Q 3628.23 274.608, 3627.53 273.888 Q 3626.83 273.168, 3625.59 273.168 Q 3624.73 273.168, 3623.87 273.528 Q 3623.03 273.868, 3622.43 274.468 Q 3622.51 276.808, 3623.25 277.868 Q 3623.99 278.928, 3625.49 278.928 " fill="#000000"/>
<path class="note" d="M 3525.75 155.885 L 3528.85 155.885 L 3528.85 145.305 L 3525.43 146.365 L 3524.97 145.185 L 3529.31 143.245 L 3530.73 143.485 L 3530.73 155.885 L 3533.51 155.885 L 3533.51 157.485 L 3525.75 157.485 L 3525.75 155.885 " fill="#000000"/>
<path class="note" d="M 3541.29 144.925 L 3533.87 144.925 L 3533.87 143.325 L 3543.27 143.325 L 3543.27 144.745 L 3537.55 157.485 L 3535.63 157.485 L 3541.29 144.925 " fill="#000000"/>
<path class="note" d="M 3385.86 152.227 L 3388.96 152.227 L 3388.96 141.647 L 3385.54 142.707 L 3385.08 141.527 L 3389.42 139.587 L 3390.84 139.827 L 3390.84 152.227 L 3393.62 152.227 L 3393.62 153.827 L 3385.86 153.827 L 3385.86 152.227 " fill="#000000"/>
<path class="note" d="M 3402.08 146.327 Q 3403.38 146.887, 3404.12 147.727 Q 3404.86 148.547, 3404.86 149.947 Q 3404.86 151.147, 3404.24 152.087 Q 3403.62 153.007, 3402.5 153.527 Q 3401.4 154.027, 3399.94 154.027 Q 3397.58 154.027, 3396.22 152.947 Q 3394.86 151.847, 3394.86 149.947 Q 3394.86 148.787, 3395.46 147.927 Q 3396.06 147.047, 3397.3 146.387 Q 3396.38 145.867, 3395.88 145.107 Q 3395.38 144.327, 3395.38 143.127 Q 3395.38 141.467, 3396.58 140.487 Q 3397.8 139.507, 3399.86 139.507 Q 3401.92 139.507, 3403.12 140.487 Q 3404.34 141.467, 3404.34 143.127 Q 3404.34 144.167, 3403.76 144.947 Q 3403.2 145.707, 3402.08 146.327 M 3399.86 141.007 Q 3398.68 141.007, 3398.02 141.567 Q 3397.38 142.127, 3397.38 143.127 Q 3397.38 143.867, 3397.82 144.367 Q 3398.26 144.847, 3398.88 145.127 Q 3399.52 145.407, 3400.74 145.827 Q 3401.6 145.227, 3401.96 144.587 Q 3402.34 143.947, 3402.34 143.127 Q 3402.34 142.127, 3401.68 141.567 Q 3401.04 141.007, 3399.86 141.007 M 3399.94 152.527 Q 3401.26 152.527, 3402.06 151.827 Q 3402.86 151.107, 3402.86 149.927 Q 3402.86 149.167, 3402.44 148.687 Q 3402.02 148.207, 3401.38 147.927 Q 3400.76 147.647, 3399.64 147.287 L 3398.74 146.987 Q 3397.74 147.587, 3397.3 148.307 Q 3396.86 149.007, 3396.86 149.927 Q 3396.86 151.107, 3397.7 151.827 Q 3398.54 152.527, 3399.94 152.527 " fill="#000000"/>
<path class="note" d="M 2964.92 278.851 L 2968.02 278.851 L 2968.02 268.271 L 2964.6 269.331 L 2964.14 268.151 L 2968.48 266.211 L 2969.9 266.451 L 2969.9 278.851 L 2972.68 278.851 L 2972.68 280.451 L 2964.92 280.451 L 2964.92 278.851 " fill="#000000"/>
<path class="note" d="M 2978.54 266.131 Q 2981.06 266.131, 2982.32 267.851 Q 2983.6 269.551, 2983.6 272.951 Q 2983.6 276.711, 2982.02 278.671 Q 2980.46 280.611, 2977.44 280.611 Q 2976.56 280.611, 2975.8 280.411 Q 2975.06 280.211, 2974.34 279.791 L 2975.12 278.451 Q 2976.16 279.011, 2977.42 279.011 Q 2979.42 279.011, 2980.44 277.731 Q 2981.46 276.431, 2981.58 273.771 Q 2980.86 274.431, 2979.94 274.791 Q 2979.04 275.131, 2978.06 275.131 Q 2976.82 275.131, 2975.84 274.591 Q 2974.86 274.051, 2974.32 273.071 Q 2973.78 272.091, 2973.78 270.851 Q 2973.78 269.471, 2974.38 268.411 Q 2975 267.331, 2976.08 266.731 Q 2977.16 266.131, 2978.54 266.131 M 2975.78 270.831 Q 2975.78 272.091, 2976.48 272.811 Q 2977.18 273.531, 2978.42 273.531 Q 2979.28 273.531, 2980.12 273.191 Q 2980.98 272.831, 2981.58 272.231 Q 2981.5 269.891, 2980.76 268.831 Q 2980.02 267.771, 2978.52 267.771 Q 2977.76 267.771, 2977.12 268.171 Q 2976.5 268.571, 2976.14 269.271 Q 2975.78 269.971, 2975.78 270.831 " fill="#000000"/>
<path class="note" d="M 3010.26 356.367 Q 3010.78 355.027, 3012.02 354.287 Q 3013.26 353.527, 3014.98 353.527 Q 3017.12 353.527, 3018.32 354.687 Q 3019.52 355.847, 3019.52 357.907 Q 3019.52 360.007, 3017.96 361.967 Q 3016.42 363.927, 3013.22 366.247 L 3019.76 366.247 L 3019.76 367.847 L 3010.22 367.847 L 3010.22 366.507 Q 3012.86 364.627, 3014.42 363.227 Q 3016 361.827, 3016.76 360.567 Q 3017.52 359.307, 3017.52 358.007 Q 3017.52 356.647, 3016.84 355.887 Q 3016.16 355.127, 3014.98 355.127 Q 3013.84 355.127, 3013.08 355.587 Q 3012.32 356.047, 3011.78 357.067 L 3010.26 356.367 " fill="#000000"/>
<path class="note" d="M 3026.16 368.007 Q 3023.56 368.007, 3022.26 366.087 Q 3020.98 364.167, 3020.98 360.747 Q 3020.98 357.327, 3022.26 355.427 Q 3023.54 353.527, 3026.16 353.527 Q 3028.78 353.527, 3030.06 355.427 Q 3031.34 357.327, 3031.34 360.747 Q 3031.34 364.167, 3030.04 366.087 Q 3028.76 368.007, 3026.16 368.007 M 3026.16 366.407 Q 3027.7 366.407, 3028.52 364.987 Q 3029.34 363.547, 3029.34 360.747 Q 3029.34 357.967, 3028.52 356.547 Q 3027.7 355.127, 3026.16 355.127 Q 3024.64 355.127, 3023.8 356.547 Q 3022.98 357.967, 3022.98 360.747 Q 3022.98 363.547, 3023.8 364.987 Q 3024.64 366.407, 3026.16 366.407 " fill="#000000"/>
<path d="M 918.102 247.684 L 924.15 247.684 L 924.15 241.316 L 926.838 241.316 L 926.838 247.684 L 933.046 247.684 L 933.046 249.988 L 926.838 249.988 L 926.838 256.388 L 924.15 256.388 L 924.15 249.988 L 918.102 249.988 L 918.102 247.684 " fill="#000000"/>
<path d="M 2127.17,249.988 L 2447.32,249.988" style="fill:none;fill-rule:evenodd;stroke:#000000;stroke-width:2.0px;stroke-linecap:butt;stroke-linejoin:miter;stroke-opacity:1"/>
<path d="M 2447.32,249.988 L 2433.46,241.984" style="fill:none;fill-rule:evenodd;stroke:#000000;stroke-width:2.0px;stroke-linecap:butt;stroke-linejoin:miter;stroke-opacity:1"/>
<path d="M 2447.32,249.988 L 2433.46,257.992" style="fill:none;fill-rule:evenodd;stroke:#000000;stroke-width:2.0px;stroke-linecap:butt;stroke-linejoin:miter;stroke-opacity:1"/>
</svg>