<svg xmlns="http://www.w3.org/2000/svg" xmlns:rdkit="http://www.rdkit.org/xml" xmlns:xlink="http://www.w3.org/1999/xlink" version="1.1" baseProfile="full" xml:space="preserve" width="4000px" height="500px" viewBox="0 0 4000 500">
<!-- END OF HEADER -->
<rect style="opacity:1.0;fill:#FFFFFF;stroke:none" width="4000" height="500" x="0" y="0"> </rect>
<path d="M 936.558,161.188 L 1045.28,223.96" style="fill:none;fill-rule:evenodd;stroke:#FFFFAA;stroke-width:26.8px;stroke-linecap:butt;stroke-linejoin:miter;stroke-opacity:1"/>
<path d="M 1045.28,223.96 L 1154.01,161.188" style="fill:none;fill-rule:evenodd;stroke:#FFFFAA;stroke-width:26.8px;stroke-linecap:butt;stroke-linejoin:miter;stroke-opacity:1"/>
<path d="M 1045.28,223.96 L 1045.28,349.504" style="fill:none;fill-rule:evenodd;stroke:#FFFFAA;stroke-width:26.8px;stroke-linecap:butt;stroke-linejoin:miter;stroke-opacity:1"/>
<path d="M 1947.56,276.417 L 1822.02,276.417" style="fill:none;fill-rule:evenodd;stroke:#FFCC99;stroke-width:26.8px;stroke-linecap:butt;stroke-linejoin:miter;stroke-opacity:1"/>
<path d="M 1822.02,276.417 L 1759.25,385.141" style="fill:none;fill-rule:evenodd;stroke:#FFCC99;stroke-width:26.8px;stroke-linecap:butt;stroke-linejoin:miter;stroke-opacity:1"/>
<path d="M 1822.02,276.417 L 1759.25,167.693" style="fill:none;fill-rule:evenodd;stroke:#FFCC99;stroke-width:26.8px;stroke-linecap:butt;stroke-linejoin:miter;stroke-opacity:1"/>
<path d="M 1759.25,385.141 L 1633.7,385.141" style="fill:none;fill-rule:evenodd;stroke:#FFCC99;stroke-width:26.8px;stroke-linecap:butt;stroke-linejoin:miter;stroke-opacity:1"/>
<path d="M 1633.7,385.141 L 1570.93,276.417" style="fill:none;fill-rule:evenodd;stroke:#FFCC99;stroke-width:26.8px;stroke-linecap:butt;stroke-linejoin:miter;stroke-opacity:1"/>
<path d="M 1570.93,276.417 L 1445.39,276.417" style="fill:none;fill-rule:evenodd;stroke:#FFCC99;stroke-width:26.8px;stroke-linecap:butt;stroke-linejoin:miter;stroke-opacity:1"/>
<path d="M 1570.93,276.417 L 1633.7,167.693" style="fill:none;fill-rule:evenodd;stroke:#FFCC99;stroke-width:26.8px;stroke-linecap:butt;stroke-linejoin:miter;stroke-opacity:1"/>
<path d="M 1633.7,167.693 L 1570.93,58.9687" style="fill:none;fill-rule:evenodd;stroke:#FFCC99;stroke-width:26.8px;stroke-linecap:butt;stroke-linejoin:miter;stroke-opacity:1"/>
<path d="M 1633.7,167.693 L 1759.25,167.693" style="fill:none;fill-rule:evenodd;stroke:#FFCC99;stroke-width:26.8px;stroke-linecap:butt;stroke-linejoin:miter;stroke-opacity:1"/>
<path d="M 1759.25,167.693 L 1822.02,58.9687" style="fill:none;fill-rule:evenodd;stroke:#FFCC99;stroke-width:26.8px;stroke-linecap:butt;stroke-linejoin:miter;stroke-opacity:1"/>
<path d="M 2576.83,272.398 L 2692.64,223.944" style="fill:none;fill-rule:evenodd;stroke:#FFFFAA;stroke-width:26.8px;stroke-linecap:butt;stroke-linejoin:miter;stroke-opacity:1"/>
<path d="M 2692.64,223.944 L 2708.59,99.4173" style="fill:none;fill-rule:evenodd;stroke:#FFFFAA;stroke-width:26.8px;stroke-linecap:butt;stroke-linejoin:miter;stroke-opacity:1"/>
<path d="M 2792.52,300.018 L 2908.33,251.564" style="fill:none;fill-rule:evenodd;stroke:#FFCC99;stroke-width:26.8px;stroke-linecap:butt;stroke-linejoin:miter;stroke-opacity:1"/>
<path d="M 2908.33,251.564 L 2924.28,127.036" style="fill:none;fill-rule:evenodd;stroke:#FFCC99;stroke-width:26.8px;stroke-linecap:butt;stroke-linejoin:miter;stroke-opacity:1"/>
<path d="M 2908.33,251.564 L 3008.2,327.637" style="fill:none;fill-rule:evenodd;stroke:#FFCC99;stroke-width:26.8px;stroke-linecap:butt;stroke-linejoin:miter;stroke-opacity:1"/>
<path d="M 2924.28,127.036 L 3040.09,78.5825" style="fill:none;fill-rule:evenodd;stroke:#FFCC99;stroke-width:26.8px;stroke-linecap:butt;stroke-linejoin:miter;stroke-opacity:1"/>
<path d="M 3040.09,78.5825 L 3139.97,154.656" style="fill:none;fill-rule:evenodd;stroke:#FFCC99;stroke-width:26.8px;stroke-linecap:butt;stroke-linejoin:miter;stroke-opacity:1"/>
<path d="M 3139.97,154.656 L 3255.78,106.202" style="fill:none;fill-rule:evenodd;stroke:#FFCC99;stroke-width:26.8px;stroke-linecap:butt;stroke-linejoin:miter;stroke-opacity:1"/>
<path d="M 3139.97,154.656 L 3124.02,279.183" style="fill:none;fill-rule:evenodd;stroke:#FFCC99;stroke-width:26.8px;stroke-linecap:butt;stroke-linejoin:miter;stroke-opacity:1"/>
<path d="M 3124.02,279.183 L 3223.89,355.256" style="fill:none;fill-rule:evenodd;stroke:#FFCC99;stroke-width:26.8px;stroke-linecap:butt;stroke-linejoin:miter;stroke-opacity:1"/>
<path d="M 3124.02,279.183 L 3008.2,327.637" style="fill:none;fill-rule:evenodd;stroke:#FFCC99;stroke-width:26.8px;stroke-linecap:butt;stroke-linejoin:miter;stroke-opacity:1"/>
<path d="M 3008.2,327.637 L 2992.26,452.164" style="fill:none;fill-rule:evenodd;stroke:#FFCC99;stroke-width:26.8px;stroke-linecap:butt;stroke-linejoin:miter;stroke-opacity:1"/>
<ellipse cx="1045.28" cy="223.96" rx="25.1088" ry="25.1088" style="fill:#FFFFAA;fill-rule:evenodd;stroke:#FFFFAA;stroke-width:1px;stroke-linecap:butt;stroke-linejoin:miter;stroke-opacity:1"/>
<ellipse cx="1154.01" cy="161.188" rx="25.1088" ry="25.1088" style="fill:#FFFFAA;fill-rule:evenodd;stroke:#FFFFAA;stroke-width:1px;stroke-linecap:butt;stroke-linejoin:miter;stroke-opacity:1"/>
<ellipse cx="1045.28" cy="349.724" rx="25.1088" ry="25.1088" style="fill:#FFFFAA;fill-rule:evenodd;stroke:#FFFFAA;stroke-width:1px;stroke-linecap:butt;stroke-linejoin:miter;stroke-opacity:1"/>
<ellipse cx="1967.3" cy="283.497" rx="43.1001" ry="30.0379" style="fill:#FFCC99;fill-rule:evenodd;stroke:#FFCC99;stroke-width:1px;stroke-linecap:butt;stroke-linejoin:miter;stroke-opacity:1"/>
<ellipse cx="1822.02" cy="276.417" rx="25.1088" ry="25.1088" style="fill:#FFCC99;fill-rule:evenodd;stroke:#FFCC99;stroke-width:1px;stroke-linecap:butt;stroke-linejoin:miter;stroke-opacity:1"/>
<ellipse cx="1759.25" cy="385.141" rx="25.1088" ry="25.1088" style="fill:#FFCC99;fill-rule:evenodd;stroke:#FFCC99;stroke-width:1px;stroke-linecap:butt;stroke-linejoin:miter;stroke-opacity:1"/>
<ellipse cx="1633.7" cy="385.141" rx="25.1088" ry="25.1088" style="fill:#FFCC99;fill-rule:evenodd;stroke:#FFCC99;stroke-width:1px;stroke-linecap:butt;stroke-linejoin:miter;stroke-opacity:1"/>
<ellipse cx="1570.93" cy="276.417" rx="25.1088" ry="25.1088" style="fill:#FFCC99;fill-rule:evenodd;stroke:#FFCC99;stroke-width:1px;stroke-linecap:butt;stroke-linejoin:miter;stroke-opacity:1"/>
<ellipse cx="1445.39" cy="276.417" rx="25.1088" ry="25.1088" style="fill:#FFCC99;fill-rule:evenodd;stroke:#FFCC99;stroke-width:1px;stroke-linecap:butt;stroke-linejoin:miter;stroke-opacity:1"/>
<ellipse cx="1633.7" cy="167.693" rx="25.1088" ry="25.1088" style="fill:#FFCC99;fill-rule:evenodd;stroke:#FFCC99;stroke-width:1px;stroke-linecap:butt;stroke-linejoin:miter;stroke-opacity:1"/>
<ellipse cx="1558.85" cy="59.1887" rx="35.4685" ry="25.1088" style="fill:#FFCC99;fill-rule:evenodd;stroke:#FFCC99;stroke-width:1px;stroke-linecap:butt;stroke-linejoin:miter;stroke-opacity:1"/>
<ellipse cx="1759.25" cy="167.693" rx="25.1088" ry="25.1088" style="fill:#FFCC99;fill-rule:evenodd;stroke:#FFCC99;stroke-width:1px;stroke-linecap:butt;stroke-linejoin:miter;stroke-opacity:1"/>
<ellipse cx="1822.02" cy="58.9687" rx="25.1088" ry="25.1088" style="fill:#FFCC99;fill-rule:evenodd;stroke:#FFCC99;stroke-width:1px;stroke-linecap:butt;stroke-linejoin:miter;stroke-opacity:1"/>
<ellipse cx="2576.83" cy="272.398" rx="25.1088" ry="25.1088" style="fill:#FFFFAA;fill-rule:evenodd;stroke:#FFFFAA;stroke-width:1px;stroke-linecap:butt;stroke-linejoin:miter;stroke-opacity:1"/>
<ellipse cx="2692.64" cy="223.944" rx="25.1088" ry="25.1088" style="fill:#FFFFAA;fill-rule:evenodd;stroke:#FFFFAA;stroke-width:1px;stroke-linecap:butt;stroke-linejoin:miter;stroke-opacity:1"/>
<ellipse cx="2708.59" cy="99.6373" rx="25.1088" ry="25.1088" style="fill:#FFFFAA;fill-rule:evenodd;stroke:#FFFFAA;stroke-width:1px;stroke-linecap:butt;stroke-linejoin:miter;stroke-opacity:1"/>
<ellipse cx="2792.52" cy="315.594" rx="25.1088" ry="42.0531" style="fill:#FFCC99;fill-rule:evenodd;stroke:#FFCC99;stroke-width:1px;stroke-linecap:butt;stroke-linejoin:miter;stroke-opacity:1"/>
<ellipse cx="2908.33" cy="251.564" rx="25.1088" ry="25.1088" style="fill:#FFCC99;fill-rule:evenodd;stroke:#FFCC99;stroke-width:1px;stroke-linecap:butt;stroke-linejoin:miter;stroke-opacity:1"/>
<ellipse cx="2924.28" cy="127.036" rx="25.1088" ry="25.1088" style="fill:#FFCC99;fill-rule:evenodd;stroke:#FFCC99;stroke-width:1px;stroke-linecap:butt;stroke-linejoin:miter;stroke-opacity:1"/>
<ellipse cx="3040.09" cy="78.5825" rx="25.1088" ry="25.1088" style="fill:#FFCC99;fill-rule:evenodd;stroke:#FFCC99;stroke-width:1px;stroke-linecap:butt;stroke-linejoin:miter;stroke-opacity:1"/>
<ellipse cx="3139.97" cy="154.656" rx="25.1088" ry="25.1088" style="fill:#FFCC99;fill-rule:evenodd;stroke:#FFCC99;stroke-width:1px;stroke-linecap:butt;stroke-linejoin:miter;stroke-opacity:1"/>
<ellipse cx="3255.78" cy="106.202" rx="25.1088" ry="25.1088" style="fill:#FFCC99;fill-rule:evenodd;stroke:#FFCC99;stroke-width:1px;stroke-linecap:butt;stroke-linejoin:miter;stroke-opacity:1"/>
<ellipse cx="3124.02" cy="279.183" rx="25.1088" ry="25.1088" style="fill:#FFCC99;fill-rule:evenodd;stroke:#FFCC99;stroke-width:1px;stroke-linecap:butt;stroke-linejoin:miter;stroke-opacity:1"/>
<ellipse cx="3236.67" cy="355.476" rx="36.4584" ry="25.1088" style="fill:#FFCC99;fill-rule:evenodd;stroke:#FFCC99;stroke-width:1px;stroke-linecap:butt;stroke-linejoin:miter;stroke-opacity:1"/>
<ellipse cx="3008.2" cy="327.637" rx="25.1088" ry="25.1088" style="fill:#FFCC99;fill-rule:evenodd;stroke:#FFCC99;stroke-width:1px;stroke-linecap:butt;stroke-linejoin:miter;stroke-opacity:1"/>
<ellipse cx="2992.26" cy="452.164" rx="25.1088" ry="25.1088" style="fill:#FFCC99;fill-rule:evenodd;stroke:#FFCC99;stroke-width:1px;stroke-linecap:butt;stroke-linejoin:miter;stroke-opacity:1"/>
<path class="bond-0" d="M 719.11,161.188 L 827.834,223.96" style="fill:none;fill-rule:evenodd;stroke:#000000;stroke-width:2.0px;stroke-linecap:butt;stroke-linejoin:miter;stroke-opacity:1"/>
<path class="bond-1" d="M 815.279,223.96 L 815.279,278.003" style="fill:none;fill-rule:evenodd;stroke:#000000;stroke-width:2.0px;stroke-linecap:butt;stroke-linejoin:miter;stroke-opacity:1"/>
<path class="bond-1" d="M 815.279,278.003 L 815.279,332.045" style="fill:none;fill-rule:evenodd;stroke:#FF0000;stroke-width:2.0px;stroke-linecap:butt;stroke-linejoin:miter;stroke-opacity:1"/>
<path class="bond-1" d="M 840.388,223.96 L 840.388,278.003" style="fill:none;fill-rule:evenodd;stroke:#000000;stroke-width:2.0px;stroke-linecap:butt;stroke-linejoin:miter;stroke-opacity:1"/>
<path class="bond-1" d="M 840.388,278.003 L 840.388,332.045" style="fill:none;fill-rule:evenodd;stroke:#FF0000;stroke-width:2.0px;stroke-linecap:butt;stroke-linejoin:miter;stroke-opacity:1"/>
<path class="bond-2" d="M 827.834,223.96 L 874.127,197.233" style="fill:none;fill-rule:evenodd;stroke:#000000;stroke-width:2.0px;stroke-linecap:butt;stroke-linejoin:miter;stroke-opacity:1"/>
<path class="bond-2" d="M 874.127,197.233 L 920.419,170.506" style="fill:none;fill-rule:evenodd;stroke:#FF0000;stroke-width:2.0px;stroke-linecap:butt;stroke-linejoin:miter;stroke-opacity:1"/>
<path class="bond-3" d="M 952.697,170.506 L 998.989,197.233" style="fill:none;fill-rule:evenodd;stroke:#FF0000;stroke-width:2.0px;stroke-linecap:butt;stroke-linejoin:miter;stroke-opacity:1"/>
<path class="bond-3" d="M 998.989,197.233 L 1045.28,223.96" style="fill:none;fill-rule:evenodd;stroke:#000000;stroke-width:2.0px;stroke-linecap:butt;stroke-linejoin:miter;stroke-opacity:1"/>
<path class="bond-4" d="M 1045.28,223.96 L 1154.01,161.188" style="fill:none;fill-rule:evenodd;stroke:#000000;stroke-width:2.0px;stroke-linecap:butt;stroke-linejoin:miter;stroke-opacity:1"/>
<path class="bond-5" d="M 1032.73,223.96 L 1032.73,278.003" style="fill:none;fill-rule:evenodd;stroke:#000000;stroke-width:2.0px;stroke-linecap:butt;stroke-linejoin:miter;stroke-opacity:1"/>
<path class="bond-5" d="M 1032.73,278.003 L 1032.73,332.045" style="fill:none;fill-rule:evenodd;stroke:#FF0000;stroke-width:2.0px;stroke-linecap:butt;stroke-linejoin:miter;stroke-opacity:1"/>
<path class="bond-5" d="M 1057.84,223.96 L 1057.84,278.003" style="fill:none;fill-rule:evenodd;stroke:#000000;stroke-width:2.0px;stroke-linecap:butt;stroke-linejoin:miter;stroke-opacity:1"/>
<path class="bond-5" d="M 1057.84,278.003 L 1057.84,332.045" style="fill:none;fill-rule:evenodd;stroke:#FF0000;stroke-width:2.0px;stroke-linecap:butt;stroke-linejoin:miter;stroke-opacity:1"/>
<path class="bond-6" d="M 1933.68,276.417 L 1877.85,276.417" style="fill:none;fill-rule:evenodd;stroke:#0000FF;stroke-width:2.0px;stroke-linecap:butt;stroke-linejoin:miter;stroke-opacity:1"/>
<path class="bond-6" d="M 1877.85,276.417 L 1822.02,276.417" style="fill:none;fill-rule:evenodd;stroke:#000000;stroke-width:2.0px;stroke-linecap:butt;stroke-linejoin:miter;stroke-opacity:1"/>
<path class="bond-7" d="M 1822.02,276.417 L 1759.25,385.141" style="fill:none;fill-rule:evenodd;stroke:#000000;stroke-width:2.0px;stroke-linecap:butt;stroke-linejoin:miter;stroke-opacity:1"/>
<path class="bond-7" d="M 1790.86,280.171 L 1746.92,356.278" style="fill:none;fill-rule:evenodd;stroke:#000000;stroke-width:2.0px;stroke-linecap:butt;stroke-linejoin:miter;stroke-opacity:1;stroke-dasharray:6,6"/>
<path class="bond-15" d="M 1822.02,276.417 L 1759.25,167.693" style="fill:none;fill-rule:evenodd;stroke:#000000;stroke-width:2.0px;stroke-linecap:butt;stroke-linejoin:miter;stroke-opacity:1"/>
<path class="bond-15" d="M 1790.86,272.663 L 1746.92,196.556" style="fill:none;fill-rule:evenodd;stroke:#000000;stroke-width:2.0px;stroke-linecap:butt;stroke-linejoin:miter;stroke-opacity:1;stroke-dasharray:6,6"/>
<path class="bond-8" d="M 1759.25,385.141 L 1633.7,385.141" style="fill:none;fill-rule:evenodd;stroke:#000000;stroke-width:2.0px;stroke-linecap:butt;stroke-linejoin:miter;stroke-opacity:1"/>
<path class="bond-8" d="M 1740.41,360.033 L 1652.53,360.033" style="fill:none;fill-rule:evenodd;stroke:#000000;stroke-width:2.0px;stroke-linecap:butt;stroke-linejoin:miter;stroke-opacity:1;stroke-dasharray:6,6"/>
<path class="bond-9" d="M 1633.7,385.141 L 1570.93,276.417" style="fill:none;fill-rule:evenodd;stroke:#000000;stroke-width:2.0px;stroke-linecap:butt;stroke-linejoin:miter;stroke-opacity:1"/>
<path class="bond-9" d="M 1646.03,356.278 L 1602.09,280.171" style="fill:none;fill-rule:evenodd;stroke:#000000;stroke-width:2.0px;stroke-linecap:butt;stroke-linejoin:miter;stroke-opacity:1;stroke-dasharray:6,6"/>
<path class="bond-10" d="M 1570.93,276.417 L 1445.39,276.417" style="fill:none;fill-rule:evenodd;stroke:#000000;stroke-width:2.0px;stroke-linecap:butt;stroke-linejoin:miter;stroke-opacity:1"/>
<path class="bond-11" d="M 1570.93,276.417 L 1633.7,167.693" style="fill:none;fill-rule:evenodd;stroke:#000000;stroke-width:2.0px;stroke-linecap:butt;stroke-linejoin:miter;stroke-opacity:1"/>
<path class="bond-11" d="M 1602.09,272.663 L 1646.03,196.556" style="fill:none;fill-rule:evenodd;stroke:#000000;stroke-width:2.0px;stroke-linecap:butt;stroke-linejoin:miter;stroke-opacity:1;stroke-dasharray:6,6"/>
<path class="bond-12" d="M 1633.7,167.693 L 1607.48,122.28" style="fill:none;fill-rule:evenodd;stroke:#000000;stroke-width:2.0px;stroke-linecap:butt;stroke-linejoin:miter;stroke-opacity:1"/>
<path class="bond-12" d="M 1607.48,122.28 L 1581.26,76.8673" style="fill:none;fill-rule:evenodd;stroke:#FF0000;stroke-width:2.0px;stroke-linecap:butt;stroke-linejoin:miter;stroke-opacity:1"/>
<path class="bond-13" d="M 1633.7,167.693 L 1759.25,167.693" style="fill:none;fill-rule:evenodd;stroke:#000000;stroke-width:2.0px;stroke-linecap:butt;stroke-linejoin:miter;stroke-opacity:1"/>
<path class="bond-13" d="M 1652.53,192.802 L 1740.41,192.802" style="fill:none;fill-rule:evenodd;stroke:#000000;stroke-width:2.0px;stroke-linecap:butt;stroke-linejoin:miter;stroke-opacity:1;stroke-dasharray:6,6"/>
<path class="bond-14" d="M 1759.25,167.693 L 1822.02,58.9687" style="fill:none;fill-rule:evenodd;stroke:#000000;stroke-width:2.0px;stroke-linecap:butt;stroke-linejoin:miter;stroke-opacity:1"/>
<path class="bond-16" d="M 2576.83,272.398 L 2692.64,223.944" style="fill:none;fill-rule:evenodd;stroke:#000000;stroke-width:2.0px;stroke-linecap:butt;stroke-linejoin:miter;stroke-opacity:1"/>
<path class="bond-17" d="M 2705.1,225.539 L 2711.92,172.225" style="fill:none;fill-rule:evenodd;stroke:#000000;stroke-width:2.0px;stroke-linecap:butt;stroke-linejoin:miter;stroke-opacity:1"/>
<path class="bond-17" d="M 2711.92,172.225 L 2718.75,118.91" style="fill:none;fill-rule:evenodd;stroke:#FF0000;stroke-width:2.0px;stroke-linecap:butt;stroke-linejoin:miter;stroke-opacity:1"/>
<path class="bond-17" d="M 2680.19,222.35 L 2687.02,169.036" style="fill:none;fill-rule:evenodd;stroke:#000000;stroke-width:2.0px;stroke-linecap:butt;stroke-linejoin:miter;stroke-opacity:1"/>
<path class="bond-17" d="M 2687.02,169.036 L 2693.85,115.721" style="fill:none;fill-rule:evenodd;stroke:#FF0000;stroke-width:2.0px;stroke-linecap:butt;stroke-linejoin:miter;stroke-opacity:1"/>
<path class="bond-18" d="M 2692.64,223.944 L 2735.64,256.695" style="fill:none;fill-rule:evenodd;stroke:#000000;stroke-width:2.0px;stroke-linecap:butt;stroke-linejoin:miter;stroke-opacity:1"/>
<path class="bond-18" d="M 2735.64,256.695 L 2778.64,289.446" style="fill:none;fill-rule:evenodd;stroke:#0000FF;stroke-width:2.0px;stroke-linecap:butt;stroke-linejoin:miter;stroke-opacity:1"/>
<path class="bond-19" d="M 2806.39,294.211 L 2857.36,272.887" style="fill:none;fill-rule:evenodd;stroke:#0000FF;stroke-width:2.0px;stroke-linecap:butt;stroke-linejoin:miter;stroke-opacity:1"/>
<path class="bond-19" d="M 2857.36,272.887 L 2908.33,251.564" style="fill:none;fill-rule:evenodd;stroke:#000000;stroke-width:2.0px;stroke-linecap:butt;stroke-linejoin:miter;stroke-opacity:1"/>
<path class="bond-20" d="M 2908.33,251.564 L 2924.28,127.036" style="fill:none;fill-rule:evenodd;stroke:#000000;stroke-width:2.0px;stroke-linecap:butt;stroke-linejoin:miter;stroke-opacity:1"/>
<path class="bond-20" d="M 2935.63,236.074 L 2946.79,148.905" style="fill:none;fill-rule:evenodd;stroke:#000000;stroke-width:2.0px;stroke-linecap:butt;stroke-linejoin:miter;stroke-opacity:1;stroke-dasharray:6,6"/>
<path class="bond-28" d="M 2908.33,251.564 L 3008.2,327.637" style="fill:none;fill-rule:evenodd;stroke:#000000;stroke-width:2.0px;stroke-linecap:butt;stroke-linejoin:miter;stroke-opacity:1"/>
<path class="bond-28" d="M 2938.53,243 L 3008.44,296.252" style="fill:none;fill-rule:evenodd;stroke:#000000;stroke-width:2.0px;stroke-linecap:butt;stroke-linejoin:miter;stroke-opacity:1;stroke-dasharray:6,6"/>
<path class="bond-21" d="M 2924.28,127.036 L 3040.09,78.5825" style="fill:none;fill-rule:evenodd;stroke:#000000;stroke-width:2.0px;stroke-linecap:butt;stroke-linejoin:miter;stroke-opacity:1"/>
<path class="bond-21" d="M 2951.34,142.932 L 3032.41,109.014" style="fill:none;fill-rule:evenodd;stroke:#000000;stroke-width:2.0px;stroke-linecap:butt;stroke-linejoin:miter;stroke-opacity:1;stroke-dasharray:6,6"/>
<path class="bond-22" d="M 3040.09,78.5825 L 3139.97,154.656" style="fill:none;fill-rule:evenodd;stroke:#000000;stroke-width:2.0px;stroke-linecap:butt;stroke-linejoin:miter;stroke-opacity:1"/>
<path class="bond-22" d="M 3039.86,109.968 L 3109.77,163.219" style="fill:none;fill-rule:evenodd;stroke:#000000;stroke-width:2.0px;stroke-linecap:butt;stroke-linejoin:miter;stroke-opacity:1;stroke-dasharray:6,6"/>
<path class="bond-23" d="M 3139.97,154.656 L 3255.78,106.202" style="fill:none;fill-rule:evenodd;stroke:#000000;stroke-width:2.0px;stroke-linecap:butt;stroke-linejoin:miter;stroke-opacity:1"/>
<path class="bond-24" d="M 3139.97,154.656 L 3124.02,279.183" style="fill:none;fill-rule:evenodd;stroke:#000000;stroke-width:2.0px;stroke-linecap:butt;stroke-linejoin:miter;stroke-opacity:1"/>
<path class="bond-24" d="M 3112.67,170.146 L 3101.51,257.315" style="fill:none;fill-rule:evenodd;stroke:#000000;stroke-width:2.0px;stroke-linecap:butt;stroke-linejoin:miter;stroke-opacity:1;stroke-dasharray:6,6"/>
<path class="bond-25" d="M 3124.02,279.183 L 3165.89,311.073" style="fill:none;fill-rule:evenodd;stroke:#000000;stroke-width:2.0px;stroke-linecap:butt;stroke-linejoin:miter;stroke-opacity:1"/>
<path class="bond-25" d="M 3165.89,311.073 L 3207.75,342.963" style="fill:none;fill-rule:evenodd;stroke:#FF0000;stroke-width:2.0px;stroke-linecap:butt;stroke-linejoin:miter;stroke-opacity:1"/>
<path class="bond-26" d="M 3124.02,279.183 L 3008.2,327.637" style="fill:none;fill-rule:evenodd;stroke:#000000;stroke-width:2.0px;stroke-linecap:butt;stroke-linejoin:miter;stroke-opacity:1"/>
<path class="bond-26" d="M 3096.96,263.288 L 3015.88,297.205" style="fill:none;fill-rule:evenodd;stroke:#000000;stroke-width:2.0px;stroke-linecap:butt;stroke-linejoin:miter;stroke-opacity:1;stroke-dasharray:6,6"/>
<path class="bond-27" d="M 3008.2,327.637 L 2992.26,452.164" style="fill:none;fill-rule:evenodd;stroke:#000000;stroke-width:2.0px;stroke-linecap:butt;stroke-linejoin:miter;stroke-opacity:1"/>
<path class="atom-2" d="M 814.834 349.584 Q 814.834 342.784, 818.194 338.984 Q 821.554 335.184, 827.834 335.184 Q 834.114 335.184, 837.474 338.984 Q 840.834 342.784, 840.834 349.584 Q 840.834 356.464, 837.434 360.384 Q 834.034 364.264, 827.834 364.264 Q 821.594 364.264, 818.194 360.384 Q 814.834 356.504, 814.834 349.584 M 827.834 361.064 Q 832.154 361.064, 834.474 358.184 Q 836.834 355.264, 836.834 349.584 Q 836.834 344.024, 834.474 341.224 Q 832.154 338.384, 827.834 338.384 Q 823.514 338.384, 821.154 341.184 Q 818.834 343.984, 818.834 349.584 Q 818.834 355.304, 821.154 358.184 Q 823.514 361.064, 827.834 361.064 " fill="#FF0000"/>
<path class="atom-3" d="M 923.558 161.268 Q 923.558 154.468, 926.918 150.668 Q 930.278 146.868, 936.558 146.868 Q 942.838 146.868, 946.198 150.668 Q 949.558 154.468, 949.558 161.268 Q 949.558 168.148, 946.158 172.068 Q 942.758 175.948, 936.558 175.948 Q 930.318 175.948, 926.918 172.068 Q 923.558 168.188, 923.558 161.268 M 936.558 172.748 Q 940.878 172.748, 943.198 169.868 Q 945.558 166.948, 945.558 161.268 Q 945.558 155.708, 943.198 152.908 Q 940.878 150.068, 936.558 150.068 Q 932.238 150.068, 929.878 152.868 Q 927.558 155.668, 927.558 161.268 Q 927.558 166.988, 929.878 169.868 Q 932.238 172.748, 936.558 172.748 " fill="#FF0000"/>
<path class="atom-6" d="M 1032.28 349.584 Q 1032.28 342.784, 1035.64 338.984 Q 1039 335.184, 1045.28 335.184 Q 1051.56 335.184, 1054.92 338.984 Q 1058.28 342.784, 1058.28 349.584 Q 1058.28 356.464, 1054.88 360.384 Q 1051.48 364.264, 1045.28 364.264 Q 1039.04 364.264, 1035.64 360.384 Q 1032.28 356.504, 1032.28 349.584 M 1045.28 361.064 Q 1049.6 361.064, 1051.92 358.184 Q 1054.28 355.264, 1054.28 349.584 Q 1054.28 344.024, 1051.92 341.224 Q 1049.6 338.384, 1045.28 338.384 Q 1040.96 338.384, 1038.6 341.184 Q 1036.28 343.984, 1036.28 349.584 Q 1036.28 355.304, 1038.6 358.184 Q 1040.96 361.064, 1045.28 361.064 " fill="#FF0000"/>
<path class="atom-7" d="M 1941.3 262.257 L 1950.58 277.257 Q 1951.5 278.737, 1952.98 281.417 Q 1954.46 284.097, 1954.54 284.257 L 1954.54 262.257 L 1958.3 262.257 L 1958.3 290.577 L 1954.42 290.577 L 1944.46 274.177 Q 1943.3 272.257, 1942.06 270.057 Q 1940.86 267.857, 1940.5 267.177 L 1940.5 290.577 L 1936.82 290.577 L 1936.82 262.257 L 1941.3 262.257 " fill="#0000FF"/>
<path class="atom-7" d="M 1961.7 262.257 L 1965.54 262.257 L 1965.54 274.297 L 1980.02 274.297 L 1980.02 262.257 L 1983.86 262.257 L 1983.86 290.577 L 1980.02 290.577 L 1980.02 277.497 L 1965.54 277.497 L 1965.54 290.577 L 1961.7 290.577 L 1961.7 262.257 " fill="#0000FF"/>
<path class="atom-7" d="M 1985.23 289.584 Q 1985.92 287.815, 1987.56 286.838 Q 1989.19 285.835, 1991.46 285.835 Q 1994.29 285.835, 1995.87 287.366 Q 1997.46 288.897, 1997.46 291.616 Q 1997.46 294.388, 1995.4 296.976 Q 1993.37 299.563, 1989.14 302.625 L 1997.77 302.625 L 1997.77 304.737 L 1985.18 304.737 L 1985.18 302.968 Q 1988.67 300.487, 1990.73 298.639 Q 1992.81 296.791, 1993.81 295.128 Q 1994.82 293.464, 1994.82 291.748 Q 1994.82 289.953, 1993.92 288.95 Q 1993.02 287.947, 1991.46 287.947 Q 1989.96 287.947, 1988.96 288.554 Q 1987.95 289.161, 1987.24 290.508 L 1985.23 289.584 " fill="#0000FF"/>
<path class="atom-14" d="M 1533.77 44.9687 L 1537.61 44.9687 L 1537.61 57.0087 L 1552.09 57.0087 L 1552.09 44.9687 L 1555.93 44.9687 L 1555.93 73.2887 L 1552.09 73.2887 L 1552.09 60.2087 L 1537.61 60.2087 L 1537.61 73.2887 L 1533.77 73.2887 L 1533.77 44.9687 " fill="#FF0000"/>
<path class="atom-14" d="M 1557.93 59.0487 Q 1557.93 52.2487, 1561.29 48.4487 Q 1564.65 44.6487, 1570.93 44.6487 Q 1577.21 44.6487, 1580.57 48.4487 Q 1583.93 52.2487, 1583.93 59.0487 Q 1583.93 65.9287, 1580.53 69.8487 Q 1577.13 73.7287, 1570.93 73.7287 Q 1564.69 73.7287, 1561.29 69.8487 Q 1557.93 65.9687, 1557.93 59.0487 M 1570.93 70.5287 Q 1575.25 70.5287, 1577.57 67.6487 Q 1579.93 64.7287, 1579.93 59.0487 Q 1579.93 53.4887, 1577.57 50.6887 Q 1575.25 47.8487, 1570.93 47.8487 Q 1566.61 47.8487, 1564.25 50.6487 Q 1561.93 53.4487, 1561.93 59.0487 Q 1561.93 64.7687, 1564.25 67.6487 Q 1566.61 70.5287, 1570.93 70.5287 " fill="#FF0000"/>
<path class="atom-19" d="M 2695.59 99.4973 Q 2695.59 92.6973, 2698.95 88.8973 Q 2702.31 85.0973, 2708.59 85.0973 Q 2714.87 85.0973, 2718.23 88.8973 Q 2721.59 92.6973, 2721.59 99.4973 Q 2721.59 106.377, 2718.19 110.297 Q 2714.79 114.177, 2708.59 114.177 Q 2702.35 114.177, 2698.95 110.297 Q 2695.59 106.417, 2695.59 99.4973 M 2708.59 110.977 Q 2712.91 110.977, 2715.23 108.097 Q 2717.59 105.177, 2717.59 99.4973 Q 2717.59 93.9373, 2715.23 91.1373 Q 2712.91 88.2973, 2708.59 88.2973 Q 2704.27 88.2973, 2701.91 91.0973 Q 2699.59 93.8973, 2699.59 99.4973 Q 2699.59 105.217, 2701.91 108.097 Q 2704.27 110.977, 2708.59 110.977 " fill="#FF0000"/>
<path class="atom-20" d="M 2786.26 285.858 L 2795.54 300.858 Q 2796.46 302.338, 2797.94 305.018 Q 2799.42 307.698, 2799.5 307.858 L 2799.5 285.858 L 2803.26 285.858 L 2803.26 314.178 L 2799.38 314.178 L 2789.42 297.778 Q 2788.26 295.858, 2787.02 293.658 Q 2785.82 291.458, 2785.46 290.778 L 2785.46 314.178 L 2781.78 314.178 L 2781.78 285.858 L 2786.26 285.858 " fill="#0000FF"/>
<path class="atom-20" d="M 2781.44 317.01 L 2785.28 317.01 L 2785.28 329.05 L 2799.76 329.05 L 2799.76 317.01 L 2803.6 317.01 L 2803.6 345.33 L 2799.76 345.33 L 2799.76 332.25 L 2785.28 332.25 L 2785.28 345.33 L 2781.44 345.33 L 2781.44 317.01 " fill="#0000FF"/>
<path class="atom-27" d="M 3210.89 355.336 Q 3210.89 348.536, 3214.25 344.736 Q 3217.61 340.936, 3223.89 340.936 Q 3230.17 340.936, 3233.53 344.736 Q 3236.89 348.536, 3236.89 355.336 Q 3236.89 362.216, 3233.49 366.136 Q 3230.09 370.016, 3223.89 370.016 Q 3217.65 370.016, 3214.25 366.136 Q 3210.89 362.256, 3210.89 355.336 M 3223.89 366.816 Q 3228.21 366.816, 3230.53 363.936 Q 3232.89 361.016, 3232.89 355.336 Q 3232.89 349.776, 3230.53 346.976 Q 3228.21 344.136, 3223.89 344.136 Q 3219.57 344.136, 3217.21 346.936 Q 3214.89 349.736, 3214.89 355.336 Q 3214.89 361.056, 3217.21 363.936 Q 3219.57 366.816, 3223.89 366.816 " fill="#FF0000"/>
<path class="atom-27" d="M 3240.29 341.256 L 3244.13 341.256 L 3244.13 353.296 L 3258.61 353.296 L 3258.61 341.256 L 3262.45 341.256 L 3262.45 369.576 L 3258.61 369.576 L 3258.61 356.496 L 3244.13 356.496 L 3244.13 369.576 L 3240.29 369.576 L 3240.29 341.256 " fill="#FF0000"/>
<path class="atom-30" d="M 2215.05 113.21 L 2218.89 113.21 L 2218.89 125.25 L 2233.37 125.25 L 2233.37 113.21 L 2237.21 113.21 L 2237.21 141.53 L 2233.37 141.53 L 2233.37 128.45 L 2218.89 128.45 L 2218.89 141.53 L 2215.05 141.53 L 2215.05 113.21 " fill="#FF0000"/>
<path class="atom-30" d="M 2238.59 140.537 Q 2239.27 138.768, 2240.91 137.791 Q 2242.55 136.788, 2244.82 136.788 Q 2247.64 136.788, 2249.23 138.319 Q 2250.81 139.85, 2250.81 142.57 Q 2250.81 145.342, 2248.75 147.929 Q 2246.72 150.516, 2242.49 153.578 L 2251.13 153.578 L 2251.13 155.69 L 2238.53 155.69 L 2238.53 153.922 Q 2242.02 151.44, 2244.08 149.592 Q 2246.16 147.744, 2247.17 146.081 Q 2248.17 144.418, 2248.17 142.702 Q 2248.17 140.906, 2247.27 139.903 Q 2246.38 138.9, 2244.82 138.9 Q 2243.31 138.9, 2242.31 139.507 Q 2241.31 140.114, 2240.59 141.461 L 2238.59 140.537 " fill="#FF0000"/>
<path class="atom-30" d="M 2253.13 127.29 Q 2253.13 120.49, 2256.49 116.69 Q 2259.85 112.89, 2266.13 112.89 Q 2272.41 112.89, 2275.77 116.69 Q 2279.13 120.49, 2279.13 127.29 Q 2279.13 134.17, 2275.73 138.09 Q 2272.33 141.97, 2266.13 141.97 Q 2259.89 141.97, 2256.49 138.09 Q 2253.13 134.21, 2253.13 127.29 M 2266.13 138.77 Q 2270.45 138.77, 2272.77 135.89 Q 2275.13 132.97, 2275.13 127.29 Q 2275.13 121.73, 2272.77 118.93 Q 2270.45 116.09, 2266.13 116.09 Q 2261.81 116.09, 2259.45 118.89 Q 2257.13 121.69, 2257.13 127.29 Q 2257.13 133.01, 2259.45 135.89 Q 2261.81 138.77, 2266.13 138.77 " fill="#FF0000"/>
<path class="note" d="M 1040.55 198.716 Q 1041.07 197.376, 1042.31 196.636 Q 1043.55 195.876, 1045.27 195.876 Q 1047.41 195.876, 1048.61 197.036 Q 1049.81 198.196, 1049.81 200.256 Q 1049.81 202.356, 1048.25 204.316 Q 1046.71 206.276, 1043.51 208.596 L 1050.05 208.596 L 1050.05 210.196 L 1040.51 210.196 L 1040.51 208.856 Q 1043.15 206.976, 1044.71 205.576 Q 1046.29 204.176, 1047.05 202.916 Q 1047.81 201.656, 1047.81 200.356 Q 1047.81 198.996, 1047.13 198.236 Q 1046.45 197.476, 1045.27 197.476 Q 1044.13 197.476, 1043.37 197.936 Q 1042.61 198.396, 1042.07 199.416 L 1040.55 198.716 " fill="#000000"/>
<path class="note" d="M 1140.05 148.587 L 1143.15 148.587 L 1143.15 138.007 L 1139.73 139.067 L 1139.27 137.887 L 1143.61 135.947 L 1145.03 136.187 L 1145.03 148.587 L 1147.81 148.587 L 1147.81 150.187 L 1140.05 150.187 L 1140.05 148.587 " fill="#000000"/>
<path class="note" d="M 1047.32 391.052 Q 1048.7 391.452, 1049.36 392.352 Q 1050.04 393.232, 1050.04 394.632 Q 1050.04 395.832, 1049.44 396.772 Q 1048.84 397.692, 1047.74 398.212 Q 1046.64 398.712, 1045.2 398.712 Q 1043.68 398.712, 1042.54 398.192 Q 1041.42 397.652, 1040.52 396.572 L 1041.66 395.412 Q 1042.54 396.372, 1043.28 396.752 Q 1044.02 397.112, 1045.2 397.112 Q 1046.48 397.112, 1047.26 396.432 Q 1048.04 395.732, 1048.04 394.612 Q 1048.04 393.172, 1047.22 392.532 Q 1046.42 391.872, 1044.68 391.872 L 1043.66 391.872 L 1043.66 390.432 L 1044.56 390.432 Q 1046.1 390.412, 1046.92 389.752 Q 1047.74 389.072, 1047.74 387.812 Q 1047.74 386.892, 1047.06 386.352 Q 1046.38 385.792, 1045.22 385.792 Q 1044.04 385.792, 1043.3 386.212 Q 1042.58 386.632, 1042.02 387.692 L 1040.64 386.952 Q 1041.14 385.772, 1042.34 384.992 Q 1043.54 384.192, 1045.22 384.192 Q 1047.3 384.192, 1048.52 385.172 Q 1049.74 386.152, 1049.74 387.812 Q 1049.74 388.952, 1049.12 389.772 Q 1048.5 390.592, 1047.32 391.052 " fill="#000000"/>
<path class="note" d="M 1972.24 242.396 L 1973.94 242.396 L 1973.94 243.996 L 1972.24 243.996 L 1972.24 247.256 L 1970.36 247.256 L 1970.36 243.996 L 1963.04 243.996 L 1963.04 242.736 L 1969.24 233.096 L 1972.24 233.096 L 1972.24 242.396 M 1965.36 242.396 L 1970.36 242.396 L 1970.36 234.376 L 1965.36 242.396 " fill="#000000"/>
<path class="note" d="M 1832.83 292.758 Q 1834.07 292.758, 1835.09 293.298 Q 1836.11 293.818, 1836.69 294.818 Q 1837.27 295.798, 1837.27 297.138 Q 1837.27 298.598, 1836.55 299.658 Q 1835.85 300.698, 1834.69 301.238 Q 1833.53 301.778, 1832.21 301.778 Q 1830.91 301.778, 1829.71 301.298 Q 1828.51 300.818, 1827.69 299.898 L 1828.89 298.658 Q 1829.55 299.378, 1830.45 299.778 Q 1831.35 300.158, 1832.27 300.158 Q 1833.53 300.158, 1834.39 299.378 Q 1835.27 298.598, 1835.27 297.178 Q 1835.27 295.678, 1834.39 294.978 Q 1833.53 294.258, 1832.15 294.258 Q 1830.91 294.258, 1829.53 294.798 L 1828.43 294.278 L 1829.11 287.458 L 1836.39 287.458 L 1836.19 289.058 L 1830.75 289.058 L 1830.33 293.258 Q 1831.59 292.758, 1832.83 292.758 " fill="#000000"/>
<path class="note" d="M 1770.34 401.582 Q 1771.58 401.582, 1772.56 402.122 Q 1773.54 402.662, 1774.08 403.642 Q 1774.62 404.622, 1774.62 405.862 Q 1774.62 407.242, 1774 408.322 Q 1773.4 409.382, 1772.32 409.982 Q 1771.24 410.582, 1769.86 410.582 Q 1767.34 410.582, 1766.06 408.882 Q 1764.8 407.162, 1764.8 403.762 Q 1764.8 400.002, 1766.36 398.062 Q 1767.94 396.102, 1770.96 396.102 Q 1771.84 396.102, 1772.58 396.302 Q 1773.34 396.502, 1774.06 396.922 L 1773.28 398.262 Q 1772.24 397.702, 1770.98 397.702 Q 1768.98 397.702, 1767.96 399.002 Q 1766.94 400.282, 1766.82 402.942 Q 1767.54 402.282, 1768.44 401.942 Q 1769.36 401.582, 1770.34 401.582 M 1769.88 408.942 Q 1770.64 408.942, 1771.26 408.542 Q 1771.9 408.142, 1772.26 407.442 Q 1772.62 406.742, 1772.62 405.882 Q 1772.62 404.622, 1771.92 403.902 Q 1771.22 403.182, 1769.98 403.182 Q 1769.12 403.182, 1768.26 403.542 Q 1767.42 403.882, 1766.82 404.482 Q 1766.9 406.822, 1767.64 407.882 Q 1768.38 408.942, 1769.88 408.942 " fill="#000000"/>
<path class="note" d="M 1625.96 397.782 L 1618.54 397.782 L 1618.54 396.182 L 1627.94 396.182 L 1627.94 397.602 L 1622.22 410.342 L 1620.3 410.342 L 1625.96 397.782 " fill="#000000"/>
<path class="note" d="M 1562.69 294.198 Q 1563.99 294.758, 1564.73 295.598 Q 1565.47 296.418, 1565.47 297.818 Q 1565.47 299.018, 1564.85 299.958 Q 1564.23 300.878, 1563.11 301.398 Q 1562.01 301.898, 1560.55 301.898 Q 1558.19 301.898, 1556.83 300.818 Q 1555.47 299.718, 1555.47 297.818 Q 1555.47 296.658, 1556.07 295.798 Q 1556.67 294.918, 1557.91 294.258 Q 1556.99 293.738, 1556.49 292.978 Q 1555.99 292.198, 1555.99 290.998 Q 1555.99 289.338, 1557.19 288.358 Q 1558.41 287.378, 1560.47 287.378 Q 1562.53 287.378, 1563.73 288.358 Q 1564.95 289.338, 1564.95 290.998 Q 1564.95 292.038, 1564.37 292.818 Q 1563.81 293.578, 1562.69 294.198 M 1560.47 288.878 Q 1559.29 288.878, 1558.63 289.438 Q 1557.99 289.998, 1557.99 290.998 Q 1557.99 291.738, 1558.43 292.238 Q 1558.87 292.718, 1559.49 292.998 Q 1560.13 293.278, 1561.35 293.698 Q 1562.21 293.098, 1562.57 292.458 Q 1562.95 291.818, 1562.95 290.998 Q 1562.95 289.998, 1562.29 289.438 Q 1561.65 288.878, 1560.47 288.878 M 1560.55 300.398 Q 1561.87 300.398, 1562.67 299.698 Q 1563.47 298.978, 1563.47 297.798 Q 1563.47 297.038, 1563.05 296.558 Q 1562.63 296.078, 1561.99 295.798 Q 1561.37 295.518, 1560.25 295.158 L 1559.35 294.858 Q 1558.35 295.458, 1557.91 296.178 Q 1557.47 296.878, 1557.47 297.798 Q 1557.47 298.978, 1558.31 299.698 Q 1559.15 300.398, 1560.55 300.398 " fill="#000000"/>
<path class="note" d="M 1445.24 290.181 Q 1447.76 290.181, 1449.02 291.901 Q 1450.3 293.601, 1450.3 297.001 Q 1450.3 300.761, 1448.72 302.721 Q 1447.16 304.661, 1444.14 304.661 Q 1443.26 304.661, 1442.5 304.461 Q 1441.76 304.261, 1441.04 303.841 L 1441.82 302.501 Q 1442.86 303.061, 1444.12 303.061 Q 1446.12 303.061, 1447.14 301.781 Q 1448.16 300.481, 1448.28 297.821 Q 1447.56 298.481, 1446.64 298.841 Q 1445.74 299.181, 1444.76 299.181 Q 1443.52 299.181, 1442.54 298.641 Q 1441.56 298.101, 1441.02 297.121 Q 1440.48 296.141, 1440.48 294.901 Q 1440.48 293.521, 1441.08 292.461 Q 1441.7 291.381, 1442.78 290.781 Q 1443.86 290.181, 1445.24 290.181 M 1442.48 294.881 Q 1442.48 296.141, 1443.18 296.861 Q 1443.88 297.581, 1445.12 297.581 Q 1445.98 297.581, 1446.82 297.241 Q 1447.68 296.881, 1448.28 296.281 Q 1448.2 293.941, 1447.46 292.881 Q 1446.72 291.821, 1445.22 291.821 Q 1444.46 291.821, 1443.82 292.221 Q 1443.2 292.621, 1442.84 293.321 Q 1442.48 294.021, 1442.48 294.881 " fill="#000000"/>
<path class="note" d="M 1599.23 173.253 L 1602.33 173.253 L 1602.33 162.673 L 1598.91 163.733 L 1598.45 162.553 L 1602.79 160.613 L 1604.21 160.853 L 1604.21 173.253 L 1606.99 173.253 L 1606.99 174.853 L 1599.23 174.853 L 1599.23 173.253 " fill="#000000"/>
<path class="note" d="M 1613.39 175.013 Q 1610.79 175.013, 1609.49 173.093 Q 1608.21 171.173, 1608.21 167.753 Q 1608.21 164.333, 1609.49 162.433 Q 1610.77 160.533, 1613.39 160.533 Q 1616.01 160.533, 1617.29 162.433 Q 1618.57 164.333, 1618.57 167.753 Q 1618.57 171.173, 1617.27 173.093 Q 1615.99 175.013, 1613.39 175.013 M 1613.39 173.413 Q 1614.93 173.413, 1615.75 171.993 Q 1616.57 170.553, 1616.57 167.753 Q 1616.57 164.973, 1615.75 163.553 Q 1614.93 162.133, 1613.39 162.133 Q 1611.87 162.133, 1611.03 163.553 Q 1610.21 164.973, 1610.21 167.753 Q 1610.21 170.553, 1611.03 171.993 Q 1611.87 173.413, 1613.39 173.413 " fill="#000000"/>
<path class="note" d="M 1537.44 28.2473 L 1540.54 28.2473 L 1540.54 17.6673 L 1537.12 18.7273 L 1536.66 17.5473 L 1541 15.6073 L 1542.42 15.8473 L 1542.42 28.2473 L 1545.2 28.2473 L 1545.2 29.8473 L 1537.44 29.8473 L 1537.44 28.2473 " fill="#000000"/>
<path class="note" d="M 1547.06 28.2473 L 1550.16 28.2473 L 1550.16 17.6673 L 1546.74 18.7273 L 1546.28 17.5473 L 1550.62 15.6073 L 1552.04 15.8473 L 1552.04 28.2473 L 1554.82 28.2473 L 1554.82 29.8473 L 1547.06 29.8473 L 1547.06 28.2473 " fill="#000000"/>
<path class="note" d="M 1735.75 155.132 L 1738.85 155.132 L 1738.85 144.552 L 1735.43 145.612 L 1734.97 144.432 L 1739.31 142.492 L 1740.73 142.732 L 1740.73 155.132 L 1743.51 155.132 L 1743.51 156.732 L 1735.75 156.732 L 1735.75 155.132 " fill="#000000"/>
<path class="note" d="M 1744.55 145.252 Q 1745.07 143.912, 1746.31 143.172 Q 1747.55 142.412, 1749.27 142.412 Q 1751.41 142.412, 1752.61 143.572 Q 1753.81 144.732, 1753.81 146.792 Q 1753.81 148.892, 1752.25 150.852 Q 1750.71 152.812, 1747.51 155.132 L 1754.05 155.132 L 1754.05 156.732 L 1744.51 156.732 L 1744.51 155.392 Q 1747.15 153.512, 1748.71 152.112 Q 1750.29 150.712, 1751.05 149.452 Q 1751.81 148.192, 1751.81 146.892 Q 1751.81 145.532, 1751.13 144.772 Q 1750.45 144.012, 1749.27 144.012 Q 1748.13 144.012, 1747.37 144.472 Q 1746.61 144.932, 1746.07 145.952 L 1744.55 145.252 " fill="#000000"/>
<path class="note" d="M 1790.96 54.0667 L 1794.06 54.0667 L 1794.06 43.4867 L 1790.64 44.5467 L 1790.18 43.3667 L 1794.52 41.4267 L 1795.94 41.6667 L 1795.94 54.0667 L 1798.72 54.0667 L 1798.72 55.6667 L 1790.96 55.6667 L 1790.96 54.0667 " fill="#000000"/>
<path class="note" d="M 1806.36 48.2067 Q 1807.74 48.6067, 1808.4 49.5067 Q 1809.08 50.3867, 1809.08 51.7867 Q 1809.08 52.9867, 1808.48 53.9267 Q 1807.88 54.8467, 1806.78 55.3667 Q 1805.68 55.8667, 1804.24 55.8667 Q 1802.72 55.8667, 1801.58 55.3467 Q 1800.46 54.8067, 1799.56 53.7267 L 1800.7 52.5667 Q 1801.58 53.5267, 1802.32 53.9067 Q 1803.06 54.2667, 1804.24 54.2667 Q 1805.52 54.2667, 1806.3 53.5867 Q 1807.08 52.8867, 1807.08 51.7667 Q 1807.08 50.3267, 1806.26 49.6867 Q 1805.46 49.0267, 1803.72 49.0267 L 1802.7 49.0267 L 1802.7 47.5867 L 1803.6 47.5867 Q 1805.14 47.5667, 1805.96 46.9067 Q 1806.78 46.2267, 1806.78 44.9667 Q 1806.78 44.0467, 1806.1 43.5067 Q 1805.42 42.9467, 1804.26 42.9467 Q 1803.08 42.9467, 1802.34 43.3667 Q 1801.62 43.7867, 1801.06 44.8467 L 1799.68 44.1067 Q 1800.18 42.9267, 1801.38 42.1467 Q 1802.58 41.3467, 1804.26 41.3467 Q 1806.34 41.3467, 1807.56 42.3267 Q 1808.78 43.3067, 1808.78 44.9667 Q 1808.78 46.1067, 1808.16 46.9267 Q 1807.54 47.7467, 1806.36 48.2067 " fill="#000000"/>
<path class="note" d="M 2581.41 297.221 L 2584.51 297.221 L 2584.51 286.641 L 2581.09 287.701 L 2580.63 286.521 L 2584.97 284.581 L 2586.39 284.821 L 2586.39 297.221 L 2589.17 297.221 L 2589.17 298.821 L 2581.41 298.821 L 2581.41 297.221 " fill="#000000"/>
<path class="note" d="M 2685.26 240.379 Q 2685.78 239.039, 2687.02 238.299 Q 2688.26 237.539, 2689.98 237.539 Q 2692.12 237.539, 2693.32 238.699 Q 2694.52 239.859, 2694.52 241.919 Q 2694.52 244.019, 2692.96 245.979 Q 2691.42 247.939, 2688.22 250.259 L 2694.76 250.259 L 2694.76 251.859 L 2685.22 251.859 L 2685.22 250.519 Q 2687.86 248.639, 2689.42 247.239 Q 2691 245.839, 2691.76 244.579 Q 2692.52 243.319, 2692.52 242.019 Q 2692.52 240.659, 2691.84 239.899 Q 2691.16 239.139, 2689.98 239.139 Q 2688.84 239.139, 2688.08 239.599 Q 2687.32 240.059, 2686.78 241.079 L 2685.26 240.379 " fill="#000000"/>
<path class="note" d="M 2715.95 57.6082 Q 2717.33 58.0082, 2717.99 58.9082 Q 2718.67 59.7882, 2718.67 61.1882 Q 2718.67 62.3882, 2718.07 63.3282 Q 2717.47 64.2482, 2716.37 64.7682 Q 2715.27 65.2682, 2713.83 65.2682 Q 2712.31 65.2682, 2711.17 64.7482 Q 2710.05 64.2082, 2709.15 63.1282 L 2710.29 61.9682 Q 2711.17 62.9282, 2711.91 63.3082 Q 2712.65 63.6682, 2713.83 63.6682 Q 2715.11 63.6682, 2715.89 62.9882 Q 2716.67 62.2882, 2716.67 61.1682 Q 2716.67 59.7282, 2715.85 59.0882 Q 2715.05 58.4282, 2713.31 58.4282 L 2712.29 58.4282 L 2712.29 56.9882 L 2713.19 56.9882 Q 2714.73 56.9682, 2715.55 56.3082 Q 2716.37 55.6282, 2716.37 54.3682 Q 2716.37 53.4482, 2715.69 52.9082 Q 2715.01 52.3482, 2713.85 52.3482 Q 2712.67 52.3482, 2711.93 52.7682 Q 2711.21 53.1882, 2710.65 54.2482 L 2709.27 53.5082 Q 2709.77 52.3282, 2710.97 51.5482 Q 2712.17 50.7482, 2713.85 50.7482 Q 2715.93 50.7482, 2717.15 51.7282 Q 2718.37 52.7082, 2718.37 54.3682 Q 2718.37 55.5082, 2717.75 56.3282 Q 2717.13 57.1482, 2715.95 57.6082 " fill="#000000"/>
<path class="note" d="M 2829.56 327.595 L 2831.26 327.595 L 2831.26 329.195 L 2829.56 329.195 L 2829.56 332.455 L 2827.68 332.455 L 2827.68 329.195 L 2820.36 329.195 L 2820.36 327.935 L 2826.56 318.295 L 2829.56 318.295 L 2829.56 327.595 M 2822.68 327.595 L 2827.68 327.595 L 2827.68 319.575 L 2822.68 327.595 " fill="#000000"/>
<path class="note" d="M 2892.04 237.105 Q 2893.28 237.105, 2894.3 237.645 Q 2895.32 238.165, 2895.9 239.165 Q 2896.48 240.145, 2896.48 241.485 Q 2896.48 242.945, 2895.76 244.005 Q 2895.06 245.045, 2893.9 245.585 Q 2892.74 246.125, 2891.42 246.125 Q 2890.12 246.125, 2888.92 245.645 Q 2887.72 245.165, 2886.9 244.245 L 2888.1 243.005 Q 2888.76 243.725, 2889.66 244.125 Q 2890.56 244.505, 2891.48 244.505 Q 2892.74 244.505, 2893.6 243.725 Q 2894.48 242.945, 2894.48 241.525 Q 2894.48 240.025, 2893.6 239.325 Q 2892.74 238.605, 2891.36 238.605 Q 2890.12 238.605, 2888.74 239.145 L 2887.64 238.625 L 2888.32 231.805 L 2895.6 231.805 L 2895.4 233.405 L 2889.96 233.405 L 2889.54 237.605 Q 2890.8 237.105, 2892.04 237.105 " fill="#000000"/>
<path class="note" d="M 2908.26 112.678 Q 2909.5 112.678, 2910.48 113.218 Q 2911.46 113.758, 2912 114.738 Q 2912.54 115.718, 2912.54 116.958 Q 2912.54 118.338, 2911.92 119.418 Q 2911.32 120.478, 2910.24 121.078 Q 2909.16 121.678, 2907.78 121.678 Q 2905.26 121.678, 2903.98 119.978 Q 2902.72 118.258, 2902.72 114.858 Q 2902.72 111.098, 2904.28 109.158 Q 2905.86 107.198, 2908.88 107.198 Q 2909.76 107.198, 2910.5 107.398 Q 2911.26 107.598, 2911.98 108.018 L 2911.2 109.358 Q 2910.16 108.798, 2908.9 108.798 Q 2906.9 108.798, 2905.88 110.098 Q 2904.86 111.378, 2904.74 114.038 Q 2905.46 113.378, 2906.36 113.038 Q 2907.28 112.678, 2908.26 112.678 M 2907.8 120.038 Q 2908.56 120.038, 2909.18 119.638 Q 2909.82 119.238, 2910.18 118.538 Q 2910.54 117.838, 2910.54 116.978 Q 2910.54 115.718, 2909.84 114.998 Q 2909.14 114.278, 2907.9 114.278 Q 2907.04 114.278, 2906.18 114.638 Q 2905.34 114.978, 2904.74 115.578 Q 2904.82 117.918, 2905.56 118.978 Q 2906.3 120.038, 2907.8 120.038 " fill="#000000"/>
<path class="note" d="M 3045.47 52.348 L 3038.05 52.348 L 3038.05 50.748 L 3047.45 50.748 L 3047.45 52.168 L 3041.73 64.908 L 3039.81 64.908 L 3045.47 52.348 " fill="#000000"/>
<path class="note" d="M 3144.84 133.561 Q 3146.14 134.121, 3146.88 134.961 Q 3147.62 135.781, 3147.62 137.181 Q 3147.62 138.381, 3147 139.321 Q 3146.38 140.241, 3145.26 140.761 Q 3144.16 141.261, 3142.7 141.261 Q 3140.34 141.261, 3138.98 140.181 Q 3137.62 139.081, 3137.62 137.181 Q 3137.62 136.021, 3138.22 135.161 Q 3138.82 134.281, 3140.06 133.621 Q 3139.14 133.101, 3138.64 132.341 Q 3138.14 131.561, 3138.14 130.361 Q 3138.14 128.701, 3139.34 127.721 Q 3140.56 126.741, 3142.62 126.741 Q 3144.68 126.741, 3145.88 127.721 Q 3147.1 128.701, 3147.1 130.361 Q 3147.1 131.401, 3146.52 132.181 Q 3145.96 132.941, 3144.84 133.561 M 3142.62 128.241 Q 3141.44 128.241, 3140.78 128.801 Q 3140.14 129.361, 3140.14 130.361 Q 3140.14 131.101, 3140.58 131.601 Q 3141.02 132.081, 3141.64 132.361 Q 3142.28 132.641, 3143.5 133.061 Q 3144.36 132.461, 3144.72 131.821 Q 3145.1 131.181, 3145.1 130.361 Q 3145.1 129.361, 3144.44 128.801 Q 3143.8 128.241, 3142.62 128.241 M 3142.7 139.761 Q 3144.02 139.761, 3144.82 139.061 Q 3145.62 138.341, 3145.62 137.161 Q 3145.62 136.401, 3145.2 135.921 Q 3144.78 135.441, 3144.14 135.161 Q 3143.52 134.881, 3142.4 134.521 L 3141.5 134.221 Q 3140.5 134.821, 3140.06 135.541 Q 3139.62 136.241, 3139.62 137.161 Q 3139.62 138.341, 3140.46 139.061 Q 3141.3 139.761, 3142.7 139.761 " fill="#000000"/>
<path class="note" d="M 3247.56 79.739 Q 3250.08 79.739, 3251.34 81.459 Q 3252.62 83.159, 3252.62 86.559 Q 3252.62 90.319, 3251.04 92.279 Q 3249.48 94.219, 3246.46 94.219 Q 3245.58 94.219, 3244.82 94.019 Q 3244.08 93.819, 3243.36 93.399 L 3244.14 92.059 Q 3245.18 92.619, 3246.44 92.619 Q 3248.44 92.619, 3249.46 91.339 Q 3250.48 90.039, 3250.6 87.379 Q 3249.88 88.039, 3248.96 88.399 Q 3248.06 88.739, 3247.08 88.739 Q 3245.84 88.739, 3244.86 88.199 Q 3243.88 87.659, 3243.34 86.679 Q 3242.8 85.699, 3242.8 84.459 Q 3242.8 83.079, 3243.4 82.019 Q 3244.02 80.939, 3245.1 80.339 Q 3246.18 79.739, 3247.56 79.739 M 3244.8 84.439 Q 3244.8 85.699, 3245.5 86.419 Q 3246.2 87.139, 3247.44 87.139 Q 3248.3 87.139, 3249.14 86.799 Q 3250 86.439, 3250.6 85.839 Q 3250.52 83.499, 3249.78 82.439 Q 3249.04 81.379, 3247.54 81.379 Q 3246.78 81.379, 3246.14 81.779 Q 3245.52 82.179, 3245.16 82.879 Q 3244.8 83.579, 3244.8 84.439 " fill="#000000"/>
<path class="note" d="M 3149.07 268.592 L 3152.17 268.592 L 3152.17 258.012 L 3148.75 259.072 L 3148.29 257.892 L 3152.63 255.952 L 3154.05 256.192 L 3154.05 268.592 L 3156.83 268.592 L 3156.83 270.192 L 3149.07 270.192 L 3149.07 268.592 " fill="#000000"/>
<path class="note" d="M 3163.23 270.352 Q 3160.63 270.352, 3159.33 268.432 Q 3158.05 266.512, 3158.05 263.092 Q 3158.05 259.672, 3159.33 257.772 Q 3160.61 255.872, 3163.23 255.872 Q 3165.85 255.872, 3167.13 257.772 Q 3168.41 259.672, 3168.41 263.092 Q 3168.41 266.512, 3167.11 268.432 Q 3165.83 270.352, 3163.23 270.352 M 3163.23 268.752 Q 3164.77 268.752, 3165.59 267.332 Q 3166.41 265.892, 3166.41 263.092 Q 3166.41 260.312, 3165.59 258.892 Q 3164.77 257.472, 3163.23 257.472 Q 3161.71 257.472, 3160.87 258.892 Q 3160.05 260.312, 3160.05 263.092 Q 3160.05 265.892, 3160.87 267.332 Q 3161.71 268.752, 3163.23 268.752 " fill="#000000"/>
<path class="note" d="M 3236.68 327.486 L 3239.78 327.486 L 3239.78 316.906 L 3236.36 317.966 L 3235.9 316.786 L 3240.24 314.846 L 3241.66 315.086 L 3241.66 327.486 L 3244.44 327.486 L 3244.44 329.086 L 3236.68 329.086 L 3236.68 327.486 " fill="#000000"/>
<path class="note" d="M 3246.3 327.486 L 3249.4 327.486 L 3249.4 316.906 L 3245.98 317.966 L 3245.52 316.786 L 3249.86 314.846 L 3251.28 315.086 L 3251.28 327.486 L 3254.06 327.486 L 3254.06 329.086 L 3246.3 329.086 L 3246.3 327.486 " fill="#000000"/>
<path class="note" d="M 2975.87 341.272 L 2978.97 341.272 L 2978.97 330.692 L 2975.55 331.752 L 2975.09 330.572 L 2979.43 328.632 L 2980.85 328.872 L 2980.85 341.272 L 2983.63 341.272 L 2983.63 342.872 L 2975.87 342.872 L 2975.87 341.272 " fill="#000000"/>
<path class="note" d="M 2984.67 331.392 Q 2985.19 330.052, 2986.43 329.312 Q 2987.67 328.552, 2989.39 328.552 Q 2991.53 328.552, 2992.73 329.712 Q 2993.93 330.872, 2993.93 332.932 Q 2993.93 335.032, 2992.37 336.992 Q 2990.83 338.952, 2987.63 341.272 L 2994.17 341.272 L 2994.17 342.872 L 2984.63 342.872 L 2984.63 341.532 Q 2987.27 339.652, 2988.83 338.252 Q 2990.41 336.852, 2991.17 335.592 Q 2991.93 334.332, 2991.93 333.032 Q 2991.93 331.672, 2991.25 330.912 Q 2990.57 330.152, 2989.39 330.152 Q 2988.25 330.152, 2987.49 330.612 Q 2986.73 331.072, 2986.19 332.092 L 2984.67 331.392 " fill="#000000"/>
<path class="note" d="M 2962.67 445.045 L 2965.77 445.045 L 2965.77 434.465 L 2962.35 435.525 L 2961.89 434.345 L 2966.23 432.405 L 2967.65 432.645 L 2967.65 445.045 L 2970.43 445.045 L 2970.43 446.645 L 2962.67 446.645 L 2962.67 445.045 " fill="#000000"/>
<path class="note" d="M 2978.07 439.185 Q 2979.45 439.585, 2980.11 440.485 Q 2980.79 441.365, 2980.79 442.765 Q 2980.79 443.965, 2980.19 444.905 Q 2979.59 445.825, 2978.49 446.345 Q 2977.39 446.845, 2975.95 446.845 Q 2974.43 446.845, 2973.29 446.325 Q 2972.17 445.785, 2971.27 444.705 L 2972.41 443.545 Q 2973.29 444.505, 2974.03 444.885 Q 2974.77 445.245, 2975.95 445.245 Q 2977.23 445.245, 2978.01 444.565 Q 2978.79 443.865, 2978.79 442.745 Q 2978.79 441.305, 2977.97 440.665 Q 2977.17 440.005, 2975.43 440.005 L 2974.41 440.005 L 2974.41 438.565 L 2975.31 438.565 Q 2976.85 438.545, 2977.67 437.885 Q 2978.49 437.205, 2978.49 435.945 Q 2978.49 435.025, 2977.81 434.485 Q 2977.13 433.925, 2975.97 433.925 Q 2974.79 433.925, 2974.05 434.345 Q 2973.33 434.765, 2972.77 435.825 L 2971.39 435.085 Q 2971.89 433.905, 2973.09 433.125 Q 2974.29 432.325, 2975.97 432.325 Q 2978.05 432.325, 2979.27 433.305 Q 2980.49 434.285, 2980.49 435.945 Q 2980.49 437.085, 2979.87 437.905 Q 2979.25 438.725, 2978.07 439.185 " fill="#000000"/>
<path d="M 1290.59 253.25 L 1296.64 253.25 L 1296.64 246.882 L 1299.33 246.882 L 1299.33 253.25 L 1305.54 253.25 L 1305.54 255.554 L 1299.33 255.554 L 1299.33 261.954 L 1296.64 261.954 L 1296.64 255.554 L 1290.59 255.554 L 1290.59 253.25 " fill="#000000"/>
<path d="M 2145.44,255.554 L 2390.92,255.554" style="fill:none;fill-rule:evenodd;stroke:#000000;stroke-width:2.0px;stroke-linecap:butt;stroke-linejoin:miter;stroke-opacity:1"/>
<path d="M 2390.92,255.554 L 2380.29,249.417" style="fill:none;fill-rule:evenodd;stroke:#000000;stroke-width:2.0px;stroke-linecap:butt;stroke-linejoin:miter;stroke-opacity:1"/>
<path d="M 2390.92,255.554 L 2380.29,261.691" style="fill:none;fill-rule:evenodd;stroke:#000000;stroke-width:2.0px;stroke-linecap:butt;stroke-linejoin:miter;stroke-opacity:1"/>
</svg>