<svg xmlns="http://www.w3.org/2000/svg" xmlns:rdkit="http://www.rdkit.org/xml" xmlns:xlink="http://www.w3.org/1999/xlink" version="1.1" baseProfile="full" xml:space="preserve" width="4000px" height="500px" viewBox="0 0 4000 500">
<!-- END OF HEADER -->
<rect style="opacity:1.0;fill:#FFFFFF;stroke:none" width="4000" height="500" x="0" y="0"> </rect>
<path d="M 923.314,140.595 L 1028.72,201.452" style="fill:none;fill-rule:evenodd;stroke:#FFFFAA;stroke-width:26.0px;stroke-linecap:butt;stroke-linejoin:miter;stroke-opacity:1"/>
<path d="M 1028.72,201.452 L 1134.13,140.595" style="fill:none;fill-rule:evenodd;stroke:#FFFFAA;stroke-width:26.0px;stroke-linecap:butt;stroke-linejoin:miter;stroke-opacity:1"/>
<path d="M 1028.72,201.452 L 1028.72,323.166" style="fill:none;fill-rule:evenodd;stroke:#FFFFAA;stroke-width:26.0px;stroke-linecap:butt;stroke-linejoin:miter;stroke-opacity:1"/>
<path d="M 1884.6,285.316 L 1766.08,257.595" style="fill:none;fill-rule:evenodd;stroke:#FFCC99;stroke-width:26.0px;stroke-linecap:butt;stroke-linejoin:miter;stroke-opacity:1"/>
<path d="M 1766.08,257.595 L 1682.82,346.372" style="fill:none;fill-rule:evenodd;stroke:#FFCC99;stroke-width:26.0px;stroke-linecap:butt;stroke-linejoin:miter;stroke-opacity:1"/>
<path d="M 1766.08,257.595 L 1730.83,141.097" style="fill:none;fill-rule:evenodd;stroke:#FFCC99;stroke-width:26.0px;stroke-linecap:butt;stroke-linejoin:miter;stroke-opacity:1"/>
<path d="M 1682.82,346.372 L 1564.3,318.651" style="fill:none;fill-rule:evenodd;stroke:#FFCC99;stroke-width:26.0px;stroke-linecap:butt;stroke-linejoin:miter;stroke-opacity:1"/>
<path d="M 1564.3,318.651 L 1529.05,202.153" style="fill:none;fill-rule:evenodd;stroke:#FFCC99;stroke-width:26.0px;stroke-linecap:butt;stroke-linejoin:miter;stroke-opacity:1"/>
<path d="M 1529.05,202.153 L 1410.54,174.433" style="fill:none;fill-rule:evenodd;stroke:#FFCC99;stroke-width:26.0px;stroke-linecap:butt;stroke-linejoin:miter;stroke-opacity:1"/>
<path d="M 1529.05,202.153 L 1612.32,113.376" style="fill:none;fill-rule:evenodd;stroke:#FFCC99;stroke-width:26.0px;stroke-linecap:butt;stroke-linejoin:miter;stroke-opacity:1"/>
<path d="M 1612.32,113.376 L 1730.83,141.097" style="fill:none;fill-rule:evenodd;stroke:#FFCC99;stroke-width:26.0px;stroke-linecap:butt;stroke-linejoin:miter;stroke-opacity:1"/>
<path d="M 1730.83,141.097 L 1814.1,52.3197" style="fill:none;fill-rule:evenodd;stroke:#FFCC99;stroke-width:26.0px;stroke-linecap:butt;stroke-linejoin:miter;stroke-opacity:1"/>
<path d="M 2576.59,220.246 L 2693.36,185.928" style="fill:none;fill-rule:evenodd;stroke:#FFFFAA;stroke-width:26.0px;stroke-linecap:butt;stroke-linejoin:miter;stroke-opacity:1"/>
<path d="M 2693.36,185.928 L 2722.03,67.6375" style="fill:none;fill-rule:evenodd;stroke:#FFFFAA;stroke-width:26.0px;stroke-linecap:butt;stroke-linejoin:miter;stroke-opacity:1"/>
<path d="M 2781.47,269.899 L 2898.25,235.581" style="fill:none;fill-rule:evenodd;stroke:#FFCC99;stroke-width:26.0px;stroke-linecap:butt;stroke-linejoin:miter;stroke-opacity:1"/>
<path d="M 2898.25,235.581 L 2926.92,117.29" style="fill:none;fill-rule:evenodd;stroke:#FFCC99;stroke-width:26.0px;stroke-linecap:butt;stroke-linejoin:miter;stroke-opacity:1"/>
<path d="M 2898.25,235.581 L 2986.36,319.552" style="fill:none;fill-rule:evenodd;stroke:#FFCC99;stroke-width:26.0px;stroke-linecap:butt;stroke-linejoin:miter;stroke-opacity:1"/>
<path d="M 2926.92,117.29 L 3043.69,82.9717" style="fill:none;fill-rule:evenodd;stroke:#FFCC99;stroke-width:26.0px;stroke-linecap:butt;stroke-linejoin:miter;stroke-opacity:1"/>
<path d="M 3043.69,82.9717 L 3131.8,166.943" style="fill:none;fill-rule:evenodd;stroke:#FFCC99;stroke-width:26.0px;stroke-linecap:butt;stroke-linejoin:miter;stroke-opacity:1"/>
<path d="M 3131.8,166.943 L 3248.58,132.625" style="fill:none;fill-rule:evenodd;stroke:#FFCC99;stroke-width:26.0px;stroke-linecap:butt;stroke-linejoin:miter;stroke-opacity:1"/>
<path d="M 3131.8,166.943 L 3103.13,285.234" style="fill:none;fill-rule:evenodd;stroke:#FFCC99;stroke-width:26.0px;stroke-linecap:butt;stroke-linejoin:miter;stroke-opacity:1"/>
<path d="M 3103.13,285.234 L 2986.36,319.552" style="fill:none;fill-rule:evenodd;stroke:#FFCC99;stroke-width:26.0px;stroke-linecap:butt;stroke-linejoin:miter;stroke-opacity:1"/>
<path d="M 2986.36,319.552 L 2957.69,437.843" style="fill:none;fill-rule:evenodd;stroke:#FFCC99;stroke-width:26.0px;stroke-linecap:butt;stroke-linejoin:miter;stroke-opacity:1"/>
<ellipse cx="1028.72" cy="201.452" rx="24.3429" ry="24.3429" style="fill:#FFFFAA;fill-rule:evenodd;stroke:#FFFFAA;stroke-width:1px;stroke-linecap:butt;stroke-linejoin:miter;stroke-opacity:1"/>
<ellipse cx="1134.13" cy="140.595" rx="24.3429" ry="24.3429" style="fill:#FFFFAA;fill-rule:evenodd;stroke:#FFFFAA;stroke-width:1px;stroke-linecap:butt;stroke-linejoin:miter;stroke-opacity:1"/>
<ellipse cx="1028.72" cy="323.386" rx="24.3429" ry="24.3429" style="fill:#FFFFAA;fill-rule:evenodd;stroke:#FFFFAA;stroke-width:1px;stroke-linecap:butt;stroke-linejoin:miter;stroke-opacity:1"/>
<ellipse cx="1904.33" cy="292.396" rx="43.1001" ry="30.0379" style="fill:#FFCC99;fill-rule:evenodd;stroke:#FFCC99;stroke-width:1px;stroke-linecap:butt;stroke-linejoin:miter;stroke-opacity:1"/>
<ellipse cx="1766.08" cy="257.595" rx="24.3429" ry="24.3429" style="fill:#FFCC99;fill-rule:evenodd;stroke:#FFCC99;stroke-width:1px;stroke-linecap:butt;stroke-linejoin:miter;stroke-opacity:1"/>
<ellipse cx="1682.82" cy="346.372" rx="24.3429" ry="24.3429" style="fill:#FFCC99;fill-rule:evenodd;stroke:#FFCC99;stroke-width:1px;stroke-linecap:butt;stroke-linejoin:miter;stroke-opacity:1"/>
<ellipse cx="1564.3" cy="318.651" rx="24.3429" ry="24.3429" style="fill:#FFCC99;fill-rule:evenodd;stroke:#FFCC99;stroke-width:1px;stroke-linecap:butt;stroke-linejoin:miter;stroke-opacity:1"/>
<ellipse cx="1529.05" cy="202.153" rx="24.3429" ry="24.3429" style="fill:#FFCC99;fill-rule:evenodd;stroke:#FFCC99;stroke-width:1px;stroke-linecap:butt;stroke-linejoin:miter;stroke-opacity:1"/>
<ellipse cx="1410.54" cy="174.433" rx="24.3429" ry="24.3429" style="fill:#FFCC99;fill-rule:evenodd;stroke:#FFCC99;stroke-width:1px;stroke-linecap:butt;stroke-linejoin:miter;stroke-opacity:1"/>
<ellipse cx="1612.32" cy="113.376" rx="24.3429" ry="24.3429" style="fill:#FFCC99;fill-rule:evenodd;stroke:#FFCC99;stroke-width:1px;stroke-linecap:butt;stroke-linejoin:miter;stroke-opacity:1"/>
<ellipse cx="1730.83" cy="141.097" rx="24.3429" ry="24.3429" style="fill:#FFCC99;fill-rule:evenodd;stroke:#FFCC99;stroke-width:1px;stroke-linecap:butt;stroke-linejoin:miter;stroke-opacity:1"/>
<ellipse cx="1826.88" cy="52.5397" rx="36.4584" ry="24.3429" style="fill:#FFCC99;fill-rule:evenodd;stroke:#FFCC99;stroke-width:1px;stroke-linecap:butt;stroke-linejoin:miter;stroke-opacity:1"/>
<ellipse cx="2576.59" cy="220.246" rx="24.3429" ry="24.3429" style="fill:#FFFFAA;fill-rule:evenodd;stroke:#FFFFAA;stroke-width:1px;stroke-linecap:butt;stroke-linejoin:miter;stroke-opacity:1"/>
<ellipse cx="2693.36" cy="185.928" rx="24.3429" ry="24.3429" style="fill:#FFFFAA;fill-rule:evenodd;stroke:#FFFFAA;stroke-width:1px;stroke-linecap:butt;stroke-linejoin:miter;stroke-opacity:1"/>
<ellipse cx="2722.03" cy="67.8575" rx="24.3429" ry="24.3429" style="fill:#FFFFAA;fill-rule:evenodd;stroke:#FFFFAA;stroke-width:1px;stroke-linecap:butt;stroke-linejoin:miter;stroke-opacity:1"/>
<ellipse cx="2781.47" cy="285.475" rx="24.3429" ry="42.0531" style="fill:#FFCC99;fill-rule:evenodd;stroke:#FFCC99;stroke-width:1px;stroke-linecap:butt;stroke-linejoin:miter;stroke-opacity:1"/>
<ellipse cx="2898.25" cy="235.581" rx="24.3429" ry="24.3429" style="fill:#FFCC99;fill-rule:evenodd;stroke:#FFCC99;stroke-width:1px;stroke-linecap:butt;stroke-linejoin:miter;stroke-opacity:1"/>
<ellipse cx="2926.92" cy="117.29" rx="24.3429" ry="24.3429" style="fill:#FFCC99;fill-rule:evenodd;stroke:#FFCC99;stroke-width:1px;stroke-linecap:butt;stroke-linejoin:miter;stroke-opacity:1"/>
<ellipse cx="3043.69" cy="82.9717" rx="24.3429" ry="24.3429" style="fill:#FFCC99;fill-rule:evenodd;stroke:#FFCC99;stroke-width:1px;stroke-linecap:butt;stroke-linejoin:miter;stroke-opacity:1"/>
<ellipse cx="3131.8" cy="166.943" rx="24.3429" ry="24.3429" style="fill:#FFCC99;fill-rule:evenodd;stroke:#FFCC99;stroke-width:1px;stroke-linecap:butt;stroke-linejoin:miter;stroke-opacity:1"/>
<ellipse cx="3248.58" cy="132.625" rx="24.3429" ry="24.3429" style="fill:#FFCC99;fill-rule:evenodd;stroke:#FFCC99;stroke-width:1px;stroke-linecap:butt;stroke-linejoin:miter;stroke-opacity:1"/>
<ellipse cx="3103.13" cy="285.234" rx="24.3429" ry="24.3429" style="fill:#FFCC99;fill-rule:evenodd;stroke:#FFCC99;stroke-width:1px;stroke-linecap:butt;stroke-linejoin:miter;stroke-opacity:1"/>
<ellipse cx="2986.36" cy="319.552" rx="24.3429" ry="24.3429" style="fill:#FFCC99;fill-rule:evenodd;stroke:#FFCC99;stroke-width:1px;stroke-linecap:butt;stroke-linejoin:miter;stroke-opacity:1"/>
<ellipse cx="2970.47" cy="438.063" rx="36.4584" ry="24.3429" style="fill:#FFCC99;fill-rule:evenodd;stroke:#FFCC99;stroke-width:1px;stroke-linecap:butt;stroke-linejoin:miter;stroke-opacity:1"/>
<path class="bond-0" d="M 712.499,140.595 L 817.907,201.452" style="fill:none;fill-rule:evenodd;stroke:#000000;stroke-width:2.0px;stroke-linecap:butt;stroke-linejoin:miter;stroke-opacity:1"/>
<path class="bond-1" d="M 805.735,201.452 L 805.735,253.628" style="fill:none;fill-rule:evenodd;stroke:#000000;stroke-width:2.0px;stroke-linecap:butt;stroke-linejoin:miter;stroke-opacity:1"/>
<path class="bond-1" d="M 805.735,253.628 L 805.735,305.804" style="fill:none;fill-rule:evenodd;stroke:#FF0000;stroke-width:2.0px;stroke-linecap:butt;stroke-linejoin:miter;stroke-opacity:1"/>
<path class="bond-1" d="M 830.078,201.452 L 830.078,253.628" style="fill:none;fill-rule:evenodd;stroke:#000000;stroke-width:2.0px;stroke-linecap:butt;stroke-linejoin:miter;stroke-opacity:1"/>
<path class="bond-1" d="M 830.078,253.628 L 830.078,305.804" style="fill:none;fill-rule:evenodd;stroke:#FF0000;stroke-width:2.0px;stroke-linecap:butt;stroke-linejoin:miter;stroke-opacity:1"/>
<path class="bond-2" d="M 817.907,201.452 L 862.589,175.655" style="fill:none;fill-rule:evenodd;stroke:#000000;stroke-width:2.0px;stroke-linecap:butt;stroke-linejoin:miter;stroke-opacity:1"/>
<path class="bond-2" d="M 862.589,175.655 L 907.272,149.857" style="fill:none;fill-rule:evenodd;stroke:#FF0000;stroke-width:2.0px;stroke-linecap:butt;stroke-linejoin:miter;stroke-opacity:1"/>
<path class="bond-3" d="M 939.357,149.857 L 984.04,175.655" style="fill:none;fill-rule:evenodd;stroke:#FF0000;stroke-width:2.0px;stroke-linecap:butt;stroke-linejoin:miter;stroke-opacity:1"/>
<path class="bond-3" d="M 984.04,175.655 L 1028.72,201.452" style="fill:none;fill-rule:evenodd;stroke:#000000;stroke-width:2.0px;stroke-linecap:butt;stroke-linejoin:miter;stroke-opacity:1"/>
<path class="bond-4" d="M 1028.72,201.452 L 1134.13,140.595" style="fill:none;fill-rule:evenodd;stroke:#000000;stroke-width:2.0px;stroke-linecap:butt;stroke-linejoin:miter;stroke-opacity:1"/>
<path class="bond-5" d="M 1016.55,201.452 L 1016.55,253.628" style="fill:none;fill-rule:evenodd;stroke:#000000;stroke-width:2.0px;stroke-linecap:butt;stroke-linejoin:miter;stroke-opacity:1"/>
<path class="bond-5" d="M 1016.55,253.628 L 1016.55,305.804" style="fill:none;fill-rule:evenodd;stroke:#FF0000;stroke-width:2.0px;stroke-linecap:butt;stroke-linejoin:miter;stroke-opacity:1"/>
<path class="bond-5" d="M 1040.89,201.452 L 1040.89,253.628" style="fill:none;fill-rule:evenodd;stroke:#000000;stroke-width:2.0px;stroke-linecap:butt;stroke-linejoin:miter;stroke-opacity:1"/>
<path class="bond-5" d="M 1040.89,253.628 L 1040.89,305.804" style="fill:none;fill-rule:evenodd;stroke:#FF0000;stroke-width:2.0px;stroke-linecap:butt;stroke-linejoin:miter;stroke-opacity:1"/>
<path class="bond-6" d="M 1870.82,282.092 L 1818.45,269.843" style="fill:none;fill-rule:evenodd;stroke:#0000FF;stroke-width:2.0px;stroke-linecap:butt;stroke-linejoin:miter;stroke-opacity:1"/>
<path class="bond-6" d="M 1818.45,269.843 L 1766.08,257.595" style="fill:none;fill-rule:evenodd;stroke:#000000;stroke-width:2.0px;stroke-linecap:butt;stroke-linejoin:miter;stroke-opacity:1"/>
<path class="bond-7" d="M 1766.08,257.595 L 1682.82,346.372" style="fill:none;fill-rule:evenodd;stroke:#000000;stroke-width:2.0px;stroke-linecap:butt;stroke-linejoin:miter;stroke-opacity:1"/>
<path class="bond-7" d="M 1735.84,254.258 L 1677.55,316.403" style="fill:none;fill-rule:evenodd;stroke:#000000;stroke-width:2.0px;stroke-linecap:butt;stroke-linejoin:miter;stroke-opacity:1;stroke-dasharray:6,6"/>
<path class="bond-14" d="M 1766.08,257.595 L 1730.83,141.097" style="fill:none;fill-rule:evenodd;stroke:#000000;stroke-width:2.0px;stroke-linecap:butt;stroke-linejoin:miter;stroke-opacity:1"/>
<path class="bond-14" d="M 1737.5,247.17 L 1712.82,165.622" style="fill:none;fill-rule:evenodd;stroke:#000000;stroke-width:2.0px;stroke-linecap:butt;stroke-linejoin:miter;stroke-opacity:1;stroke-dasharray:6,6"/>
<path class="bond-8" d="M 1682.82,346.372 L 1564.3,318.651" style="fill:none;fill-rule:evenodd;stroke:#000000;stroke-width:2.0px;stroke-linecap:butt;stroke-linejoin:miter;stroke-opacity:1"/>
<path class="bond-8" d="M 1670.58,318.511 L 1587.62,299.106" style="fill:none;fill-rule:evenodd;stroke:#000000;stroke-width:2.0px;stroke-linecap:butt;stroke-linejoin:miter;stroke-opacity:1;stroke-dasharray:6,6"/>
<path class="bond-9" d="M 1564.3,318.651 L 1529.05,202.153" style="fill:none;fill-rule:evenodd;stroke:#000000;stroke-width:2.0px;stroke-linecap:butt;stroke-linejoin:miter;stroke-opacity:1"/>
<path class="bond-9" d="M 1582.31,294.126 L 1557.64,212.578" style="fill:none;fill-rule:evenodd;stroke:#000000;stroke-width:2.0px;stroke-linecap:butt;stroke-linejoin:miter;stroke-opacity:1;stroke-dasharray:6,6"/>
<path class="bond-10" d="M 1529.05,202.153 L 1475.52,189.634" style="fill:none;fill-rule:evenodd;stroke:#000000;stroke-width:2.0px;stroke-linecap:butt;stroke-linejoin:miter;stroke-opacity:1"/>
<path class="bond-10" d="M 1475.52,189.634 L 1422,177.114" style="fill:none;fill-rule:evenodd;stroke:#33CCCC;stroke-width:2.0px;stroke-linecap:butt;stroke-linejoin:miter;stroke-opacity:1"/>
<path class="bond-11" d="M 1529.05,202.153 L 1612.32,113.376" style="fill:none;fill-rule:evenodd;stroke:#000000;stroke-width:2.0px;stroke-linecap:butt;stroke-linejoin:miter;stroke-opacity:1"/>
<path class="bond-11" d="M 1559.3,205.49 L 1617.58,143.346" style="fill:none;fill-rule:evenodd;stroke:#000000;stroke-width:2.0px;stroke-linecap:butt;stroke-linejoin:miter;stroke-opacity:1;stroke-dasharray:6,6"/>
<path class="bond-12" d="M 1612.32,113.376 L 1730.83,141.097" style="fill:none;fill-rule:evenodd;stroke:#000000;stroke-width:2.0px;stroke-linecap:butt;stroke-linejoin:miter;stroke-opacity:1"/>
<path class="bond-12" d="M 1624.55,141.237 L 1707.51,160.642" style="fill:none;fill-rule:evenodd;stroke:#000000;stroke-width:2.0px;stroke-linecap:butt;stroke-linejoin:miter;stroke-opacity:1;stroke-dasharray:6,6"/>
<path class="bond-13" d="M 1730.83,141.097 L 1764.44,105.261" style="fill:none;fill-rule:evenodd;stroke:#000000;stroke-width:2.0px;stroke-linecap:butt;stroke-linejoin:miter;stroke-opacity:1"/>
<path class="bond-13" d="M 1764.44,105.261 L 1798.05,69.4247" style="fill:none;fill-rule:evenodd;stroke:#FF0000;stroke-width:2.0px;stroke-linecap:butt;stroke-linejoin:miter;stroke-opacity:1"/>
<path class="bond-15" d="M 2576.59,220.246 L 2693.36,185.928" style="fill:none;fill-rule:evenodd;stroke:#000000;stroke-width:2.0px;stroke-linecap:butt;stroke-linejoin:miter;stroke-opacity:1"/>
<path class="bond-16" d="M 2705.19,188.794 L 2717.37,138.551" style="fill:none;fill-rule:evenodd;stroke:#000000;stroke-width:2.0px;stroke-linecap:butt;stroke-linejoin:miter;stroke-opacity:1"/>
<path class="bond-16" d="M 2717.37,138.551 L 2729.54,88.307" style="fill:none;fill-rule:evenodd;stroke:#FF0000;stroke-width:2.0px;stroke-linecap:butt;stroke-linejoin:miter;stroke-opacity:1"/>
<path class="bond-16" d="M 2681.53,183.061 L 2693.71,132.817" style="fill:none;fill-rule:evenodd;stroke:#000000;stroke-width:2.0px;stroke-linecap:butt;stroke-linejoin:miter;stroke-opacity:1"/>
<path class="bond-16" d="M 2693.71,132.817 L 2705.89,82.5736" style="fill:none;fill-rule:evenodd;stroke:#FF0000;stroke-width:2.0px;stroke-linecap:butt;stroke-linejoin:miter;stroke-opacity:1"/>
<path class="bond-17" d="M 2693.36,185.928 L 2730.53,221.346" style="fill:none;fill-rule:evenodd;stroke:#000000;stroke-width:2.0px;stroke-linecap:butt;stroke-linejoin:miter;stroke-opacity:1"/>
<path class="bond-17" d="M 2730.53,221.346 L 2767.69,256.764" style="fill:none;fill-rule:evenodd;stroke:#0000FF;stroke-width:2.0px;stroke-linecap:butt;stroke-linejoin:miter;stroke-opacity:1"/>
<path class="bond-18" d="M 2795.25,265.849 L 2846.75,250.715" style="fill:none;fill-rule:evenodd;stroke:#0000FF;stroke-width:2.0px;stroke-linecap:butt;stroke-linejoin:miter;stroke-opacity:1"/>
<path class="bond-18" d="M 2846.75,250.715 L 2898.25,235.581" style="fill:none;fill-rule:evenodd;stroke:#000000;stroke-width:2.0px;stroke-linecap:butt;stroke-linejoin:miter;stroke-opacity:1"/>
<path class="bond-19" d="M 2898.25,235.581 L 2926.92,117.29" style="fill:none;fill-rule:evenodd;stroke:#000000;stroke-width:2.0px;stroke-linecap:butt;stroke-linejoin:miter;stroke-opacity:1"/>
<path class="bond-19" d="M 2926.21,223.571 L 2946.27,140.767" style="fill:none;fill-rule:evenodd;stroke:#000000;stroke-width:2.0px;stroke-linecap:butt;stroke-linejoin:miter;stroke-opacity:1;stroke-dasharray:6,6"/>
<path class="bond-26" d="M 2898.25,235.581 L 2986.36,319.552" style="fill:none;fill-rule:evenodd;stroke:#000000;stroke-width:2.0px;stroke-linecap:butt;stroke-linejoin:miter;stroke-opacity:1"/>
<path class="bond-26" d="M 2928.26,230.555 L 2989.93,289.335" style="fill:none;fill-rule:evenodd;stroke:#000000;stroke-width:2.0px;stroke-linecap:butt;stroke-linejoin:miter;stroke-opacity:1;stroke-dasharray:6,6"/>
<path class="bond-20" d="M 2926.92,117.29 L 3043.69,82.9717" style="fill:none;fill-rule:evenodd;stroke:#000000;stroke-width:2.0px;stroke-linecap:butt;stroke-linejoin:miter;stroke-opacity:1"/>
<path class="bond-20" d="M 2951.3,135.498 L 3033.04,111.475" style="fill:none;fill-rule:evenodd;stroke:#000000;stroke-width:2.0px;stroke-linecap:butt;stroke-linejoin:miter;stroke-opacity:1;stroke-dasharray:6,6"/>
<path class="bond-21" d="M 3043.69,82.9717 L 3131.8,166.943" style="fill:none;fill-rule:evenodd;stroke:#000000;stroke-width:2.0px;stroke-linecap:butt;stroke-linejoin:miter;stroke-opacity:1"/>
<path class="bond-21" d="M 3040.11,113.189 L 3101.79,171.969" style="fill:none;fill-rule:evenodd;stroke:#000000;stroke-width:2.0px;stroke-linecap:butt;stroke-linejoin:miter;stroke-opacity:1;stroke-dasharray:6,6"/>
<path class="bond-22" d="M 3131.8,166.943 L 3184.46,151.468" style="fill:none;fill-rule:evenodd;stroke:#000000;stroke-width:2.0px;stroke-linecap:butt;stroke-linejoin:miter;stroke-opacity:1"/>
<path class="bond-22" d="M 3184.46,151.468 L 3237.11,135.993" style="fill:none;fill-rule:evenodd;stroke:#33CCCC;stroke-width:2.0px;stroke-linecap:butt;stroke-linejoin:miter;stroke-opacity:1"/>
<path class="bond-23" d="M 3131.8,166.943 L 3103.13,285.234" style="fill:none;fill-rule:evenodd;stroke:#000000;stroke-width:2.0px;stroke-linecap:butt;stroke-linejoin:miter;stroke-opacity:1"/>
<path class="bond-23" d="M 3103.84,178.953 L 3083.77,261.757" style="fill:none;fill-rule:evenodd;stroke:#000000;stroke-width:2.0px;stroke-linecap:butt;stroke-linejoin:miter;stroke-opacity:1;stroke-dasharray:6,6"/>
<path class="bond-24" d="M 3103.13,285.234 L 2986.36,319.552" style="fill:none;fill-rule:evenodd;stroke:#000000;stroke-width:2.0px;stroke-linecap:butt;stroke-linejoin:miter;stroke-opacity:1"/>
<path class="bond-24" d="M 3078.75,267.026 L 2997.01,291.049" style="fill:none;fill-rule:evenodd;stroke:#000000;stroke-width:2.0px;stroke-linecap:butt;stroke-linejoin:miter;stroke-opacity:1;stroke-dasharray:6,6"/>
<path class="bond-25" d="M 2986.36,319.552 L 2974.13,370.016" style="fill:none;fill-rule:evenodd;stroke:#000000;stroke-width:2.0px;stroke-linecap:butt;stroke-linejoin:miter;stroke-opacity:1"/>
<path class="bond-25" d="M 2974.13,370.016 L 2961.9,420.48" style="fill:none;fill-rule:evenodd;stroke:#FF0000;stroke-width:2.0px;stroke-linecap:butt;stroke-linejoin:miter;stroke-opacity:1"/>
<path class="bond-27" d="M 2157.59,122.737 L 2205.02,95.3508" style="fill:none;fill-rule:evenodd;stroke:#000000;stroke-width:2.0px;stroke-linecap:butt;stroke-linejoin:miter;stroke-opacity:1"/>
<path class="bond-28" d="M 2205.02,95.3508 L 2221.55,104.896" style="fill:none;fill-rule:evenodd;stroke:#000000;stroke-width:2.0px;stroke-linecap:butt;stroke-linejoin:miter;stroke-opacity:1"/>
<path class="bond-28" d="M 2221.55,104.896 L 2238.08,114.44" style="fill:none;fill-rule:evenodd;stroke:#FF0000;stroke-width:2.0px;stroke-linecap:butt;stroke-linejoin:miter;stroke-opacity:1"/>
<path class="atom-2" d="M 804.907 323.246 Q 804.907 316.446, 808.267 312.646 Q 811.627 308.846, 817.907 308.846 Q 824.187 308.846, 827.547 312.646 Q 830.907 316.446, 830.907 323.246 Q 830.907 330.126, 827.507 334.046 Q 824.107 337.926, 817.907 337.926 Q 811.667 337.926, 808.267 334.046 Q 804.907 330.166, 804.907 323.246 M 817.907 334.726 Q 822.227 334.726, 824.547 331.846 Q 826.907 328.926, 826.907 323.246 Q 826.907 317.686, 824.547 314.886 Q 822.227 312.046, 817.907 312.046 Q 813.587 312.046, 811.227 314.846 Q 808.907 317.646, 808.907 323.246 Q 808.907 328.966, 811.227 331.846 Q 813.587 334.726, 817.907 334.726 " fill="#FF0000"/>
<path class="atom-3" d="M 910.314 140.675 Q 910.314 133.875, 913.674 130.075 Q 917.034 126.275, 923.314 126.275 Q 929.594 126.275, 932.954 130.075 Q 936.314 133.875, 936.314 140.675 Q 936.314 147.555, 932.914 151.475 Q 929.514 155.355, 923.314 155.355 Q 917.074 155.355, 913.674 151.475 Q 910.314 147.595, 910.314 140.675 M 923.314 152.155 Q 927.634 152.155, 929.954 149.275 Q 932.314 146.355, 932.314 140.675 Q 932.314 135.115, 929.954 132.315 Q 927.634 129.475, 923.314 129.475 Q 918.994 129.475, 916.634 132.275 Q 914.314 135.075, 914.314 140.675 Q 914.314 146.395, 916.634 149.275 Q 918.994 152.155, 923.314 152.155 " fill="#FF0000"/>
<path class="atom-6" d="M 1015.72 323.246 Q 1015.72 316.446, 1019.08 312.646 Q 1022.44 308.846, 1028.72 308.846 Q 1035 308.846, 1038.36 312.646 Q 1041.72 316.446, 1041.72 323.246 Q 1041.72 330.126, 1038.32 334.046 Q 1034.92 337.926, 1028.72 337.926 Q 1022.48 337.926, 1019.08 334.046 Q 1015.72 330.166, 1015.72 323.246 M 1028.72 334.726 Q 1033.04 334.726, 1035.36 331.846 Q 1037.72 328.926, 1037.72 323.246 Q 1037.72 317.686, 1035.36 314.886 Q 1033.04 312.046, 1028.72 312.046 Q 1024.4 312.046, 1022.04 314.846 Q 1019.72 317.646, 1019.72 323.246 Q 1019.72 328.966, 1022.04 331.846 Q 1024.4 334.726, 1028.72 334.726 " fill="#FF0000"/>
<path class="atom-7" d="M 1878.34 271.156 L 1887.62 286.156 Q 1888.54 287.636, 1890.02 290.316 Q 1891.5 292.996, 1891.58 293.156 L 1891.58 271.156 L 1895.34 271.156 L 1895.34 299.476 L 1891.46 299.476 L 1881.5 283.076 Q 1880.34 281.156, 1879.1 278.956 Q 1877.9 276.756, 1877.54 276.076 L 1877.54 299.476 L 1873.86 299.476 L 1873.86 271.156 L 1878.34 271.156 " fill="#0000FF"/>
<path class="atom-7" d="M 1898.74 271.156 L 1902.58 271.156 L 1902.58 283.196 L 1917.06 283.196 L 1917.06 271.156 L 1920.9 271.156 L 1920.9 299.476 L 1917.06 299.476 L 1917.06 286.396 L 1902.58 286.396 L 1902.58 299.476 L 1898.74 299.476 L 1898.74 271.156 " fill="#0000FF"/>
<path class="atom-7" d="M 1922.27 298.482 Q 1922.96 296.713, 1924.59 295.736 Q 1926.23 294.733, 1928.5 294.733 Q 1931.33 294.733, 1932.91 296.264 Q 1934.49 297.796, 1934.49 300.515 Q 1934.49 303.287, 1932.43 305.874 Q 1930.4 308.461, 1926.18 311.524 L 1934.81 311.524 L 1934.81 313.636 L 1922.22 313.636 L 1922.22 311.867 Q 1925.7 309.385, 1927.76 307.537 Q 1929.85 305.689, 1930.85 304.026 Q 1931.85 302.363, 1931.85 300.647 Q 1931.85 298.852, 1930.96 297.848 Q 1930.06 296.845, 1928.5 296.845 Q 1927 296.845, 1925.99 297.452 Q 1924.99 298.06, 1924.28 299.406 L 1922.27 298.482 " fill="#0000FF"/>
<path class="atom-12" d="M 1402.12 160.273 L 1418.96 160.273 L 1418.96 163.513 L 1405.92 163.513 L 1405.92 172.113 L 1417.52 172.113 L 1417.52 175.393 L 1405.92 175.393 L 1405.92 188.593 L 1402.12 188.593 L 1402.12 160.273 " fill="#33CCCC"/>
<path class="atom-15" d="M 1801.1 52.3997 Q 1801.1 45.5997, 1804.46 41.7997 Q 1807.82 37.9997, 1814.1 37.9997 Q 1820.38 37.9997, 1823.74 41.7997 Q 1827.1 45.5997, 1827.1 52.3997 Q 1827.1 59.2797, 1823.7 63.1997 Q 1820.3 67.0797, 1814.1 67.0797 Q 1807.86 67.0797, 1804.46 63.1997 Q 1801.1 59.3197, 1801.1 52.3997 M 1814.1 63.8797 Q 1818.42 63.8797, 1820.74 60.9997 Q 1823.1 58.0797, 1823.1 52.3997 Q 1823.1 46.8397, 1820.74 44.0397 Q 1818.42 41.1997, 1814.1 41.1997 Q 1809.78 41.1997, 1807.42 43.9997 Q 1805.1 46.7997, 1805.1 52.3997 Q 1805.1 58.1197, 1807.42 60.9997 Q 1809.78 63.8797, 1814.1 63.8797 " fill="#FF0000"/>
<path class="atom-15" d="M 1830.5 38.3197 L 1834.34 38.3197 L 1834.34 50.3597 L 1848.82 50.3597 L 1848.82 38.3197 L 1852.66 38.3197 L 1852.66 66.6397 L 1848.82 66.6397 L 1848.82 53.5597 L 1834.34 53.5597 L 1834.34 66.6397 L 1830.5 66.6397 L 1830.5 38.3197 " fill="#FF0000"/>
<path class="atom-18" d="M 2709.03 67.7175 Q 2709.03 60.9175, 2712.39 57.1175 Q 2715.75 53.3175, 2722.03 53.3175 Q 2728.31 53.3175, 2731.67 57.1175 Q 2735.03 60.9175, 2735.03 67.7175 Q 2735.03 74.5975, 2731.63 78.5175 Q 2728.23 82.3975, 2722.03 82.3975 Q 2715.79 82.3975, 2712.39 78.5175 Q 2709.03 74.6375, 2709.03 67.7175 M 2722.03 79.1975 Q 2726.35 79.1975, 2728.67 76.3175 Q 2731.03 73.3975, 2731.03 67.7175 Q 2731.03 62.1575, 2728.67 59.3575 Q 2726.35 56.5175, 2722.03 56.5175 Q 2717.71 56.5175, 2715.35 59.3175 Q 2713.03 62.1175, 2713.03 67.7175 Q 2713.03 73.4375, 2715.35 76.3175 Q 2717.71 79.1975, 2722.03 79.1975 " fill="#FF0000"/>
<path class="atom-19" d="M 2775.21 255.739 L 2784.49 270.739 Q 2785.41 272.219, 2786.89 274.899 Q 2788.37 277.579, 2788.45 277.739 L 2788.45 255.739 L 2792.21 255.739 L 2792.21 284.059 L 2788.33 284.059 L 2778.37 267.659 Q 2777.21 265.739, 2775.97 263.539 Q 2774.77 261.339, 2774.41 260.659 L 2774.41 284.059 L 2770.73 284.059 L 2770.73 255.739 L 2775.21 255.739 " fill="#0000FF"/>
<path class="atom-19" d="M 2770.39 286.891 L 2774.23 286.891 L 2774.23 298.931 L 2788.71 298.931 L 2788.71 286.891 L 2792.55 286.891 L 2792.55 315.211 L 2788.71 315.211 L 2788.71 302.131 L 2774.23 302.131 L 2774.23 315.211 L 2770.39 315.211 L 2770.39 286.891 " fill="#0000FF"/>
<path class="atom-24" d="M 3240.16 118.465 L 3257 118.465 L 3257 121.705 L 3243.96 121.705 L 3243.96 130.305 L 3255.56 130.305 L 3255.56 133.585 L 3243.96 133.585 L 3243.96 146.785 L 3240.16 146.785 L 3240.16 118.465 " fill="#33CCCC"/>
<path class="atom-27" d="M 2944.69 437.923 Q 2944.69 431.123, 2948.05 427.323 Q 2951.41 423.523, 2957.69 423.523 Q 2963.97 423.523, 2967.33 427.323 Q 2970.69 431.123, 2970.69 437.923 Q 2970.69 444.803, 2967.29 448.723 Q 2963.89 452.603, 2957.69 452.603 Q 2951.45 452.603, 2948.05 448.723 Q 2944.69 444.843, 2944.69 437.923 M 2957.69 449.403 Q 2962.01 449.403, 2964.33 446.523 Q 2966.69 443.603, 2966.69 437.923 Q 2966.69 432.363, 2964.33 429.563 Q 2962.01 426.723, 2957.69 426.723 Q 2953.37 426.723, 2951.01 429.523 Q 2948.69 432.323, 2948.69 437.923 Q 2948.69 443.643, 2951.01 446.523 Q 2953.37 449.403, 2957.69 449.403 " fill="#FF0000"/>
<path class="atom-27" d="M 2974.09 423.843 L 2977.93 423.843 L 2977.93 435.883 L 2992.41 435.883 L 2992.41 423.843 L 2996.25 423.843 L 2996.25 452.163 L 2992.41 452.163 L 2992.41 439.083 L 2977.93 439.083 L 2977.93 452.163 L 2974.09 452.163 L 2974.09 423.843 " fill="#FF0000"/>
<path class="atom-30" d="M 2239.45 122.817 Q 2239.45 116.017, 2242.81 112.217 Q 2246.17 108.417, 2252.45 108.417 Q 2258.73 108.417, 2262.09 112.217 Q 2265.45 116.017, 2265.45 122.817 Q 2265.45 129.697, 2262.05 133.617 Q 2258.65 137.497, 2252.45 137.497 Q 2246.21 137.497, 2242.81 133.617 Q 2239.45 129.737, 2239.45 122.817 M 2252.45 134.297 Q 2256.77 134.297, 2259.09 131.417 Q 2261.45 128.497, 2261.45 122.817 Q 2261.45 117.257, 2259.09 114.457 Q 2256.77 111.617, 2252.45 111.617 Q 2248.13 111.617, 2245.77 114.417 Q 2243.45 117.217, 2243.45 122.817 Q 2243.45 128.537, 2245.77 131.417 Q 2248.13 134.297, 2252.45 134.297 " fill="#FF0000"/>
<path class="atom-30" d="M 2268.85 108.737 L 2272.69 108.737 L 2272.69 120.777 L 2287.17 120.777 L 2287.17 108.737 L 2291.01 108.737 L 2291.01 137.057 L 2287.17 137.057 L 2287.17 123.977 L 2272.69 123.977 L 2272.69 137.057 L 2268.85 137.057 L 2268.85 108.737 " fill="#FF0000"/>
<path class="note" d="M 1023.99 176.846 Q 1024.51 175.506, 1025.75 174.766 Q 1026.99 174.006, 1028.71 174.006 Q 1030.85 174.006, 1032.05 175.166 Q 1033.25 176.326, 1033.25 178.386 Q 1033.25 180.486, 1031.69 182.446 Q 1030.15 184.406, 1026.95 186.726 L 1033.49 186.726 L 1033.49 188.326 L 1023.95 188.326 L 1023.95 186.986 Q 1026.59 185.106, 1028.15 183.706 Q 1029.73 182.306, 1030.49 181.046 Q 1031.25 179.786, 1031.25 178.486 Q 1031.25 177.126, 1030.57 176.366 Q 1029.89 175.606, 1028.71 175.606 Q 1027.57 175.606, 1026.81 176.066 Q 1026.05 176.526, 1025.51 177.546 L 1023.99 176.846 " fill="#000000"/>
<path class="note" d="M 1120.5 128.547 L 1123.6 128.547 L 1123.6 117.967 L 1120.18 119.027 L 1119.72 117.847 L 1124.06 115.907 L 1125.48 116.147 L 1125.48 128.547 L 1128.26 128.547 L 1128.26 130.147 L 1120.5 130.147 L 1120.5 128.547 " fill="#000000"/>
<path class="note" d="M 1030.76 363.438 Q 1032.14 363.838, 1032.8 364.738 Q 1033.48 365.618, 1033.48 367.018 Q 1033.48 368.218, 1032.88 369.158 Q 1032.28 370.078, 1031.18 370.598 Q 1030.08 371.098, 1028.64 371.098 Q 1027.12 371.098, 1025.98 370.578 Q 1024.86 370.038, 1023.96 368.958 L 1025.1 367.798 Q 1025.98 368.758, 1026.72 369.138 Q 1027.46 369.498, 1028.64 369.498 Q 1029.92 369.498, 1030.7 368.818 Q 1031.48 368.118, 1031.48 366.998 Q 1031.48 365.558, 1030.66 364.918 Q 1029.86 364.258, 1028.12 364.258 L 1027.1 364.258 L 1027.1 362.818 L 1028 362.818 Q 1029.54 362.798, 1030.36 362.138 Q 1031.18 361.458, 1031.18 360.198 Q 1031.18 359.278, 1030.5 358.738 Q 1029.82 358.178, 1028.66 358.178 Q 1027.48 358.178, 1026.74 358.598 Q 1026.02 359.018, 1025.46 360.078 L 1024.08 359.338 Q 1024.58 358.158, 1025.78 357.378 Q 1026.98 356.578, 1028.66 356.578 Q 1030.74 356.578, 1031.96 357.558 Q 1033.18 358.538, 1033.18 360.198 Q 1033.18 361.338, 1032.56 362.158 Q 1031.94 362.978, 1030.76 363.438 " fill="#000000"/>
<path class="note" d="M 1916.1 257.943 L 1917.8 257.943 L 1917.8 259.543 L 1916.1 259.543 L 1916.1 262.803 L 1914.22 262.803 L 1914.22 259.543 L 1906.9 259.543 L 1906.9 258.283 L 1913.1 248.643 L 1916.1 248.643 L 1916.1 257.943 M 1909.22 257.943 L 1914.22 257.943 L 1914.22 249.923 L 1909.22 257.943 " fill="#000000"/>
<path class="note" d="M 1772.31 275.231 Q 1773.55 275.231, 1774.57 275.771 Q 1775.59 276.291, 1776.17 277.291 Q 1776.75 278.271, 1776.75 279.611 Q 1776.75 281.071, 1776.03 282.131 Q 1775.33 283.171, 1774.17 283.711 Q 1773.01 284.251, 1771.69 284.251 Q 1770.39 284.251, 1769.19 283.771 Q 1767.99 283.291, 1767.17 282.371 L 1768.37 281.131 Q 1769.03 281.851, 1769.93 282.251 Q 1770.83 282.631, 1771.75 282.631 Q 1773.01 282.631, 1773.87 281.851 Q 1774.75 281.071, 1774.75 279.651 Q 1774.75 278.151, 1773.87 277.451 Q 1773.01 276.731, 1771.63 276.731 Q 1770.39 276.731, 1769.01 277.271 L 1767.91 276.751 L 1768.59 269.931 L 1775.87 269.931 L 1775.67 271.531 L 1770.23 271.531 L 1769.81 275.731 Q 1771.07 275.231, 1772.31 275.231 " fill="#000000"/>
<path class="note" d="M 1689.32 364.108 Q 1690.56 364.108, 1691.54 364.648 Q 1692.52 365.188, 1693.06 366.168 Q 1693.6 367.148, 1693.6 368.388 Q 1693.6 369.768, 1692.98 370.848 Q 1692.38 371.908, 1691.3 372.508 Q 1690.22 373.108, 1688.84 373.108 Q 1686.32 373.108, 1685.04 371.408 Q 1683.78 369.688, 1683.78 366.288 Q 1683.78 362.528, 1685.34 360.588 Q 1686.92 358.628, 1689.94 358.628 Q 1690.82 358.628, 1691.56 358.828 Q 1692.32 359.028, 1693.04 359.448 L 1692.26 360.788 Q 1691.22 360.228, 1689.96 360.228 Q 1687.96 360.228, 1686.94 361.528 Q 1685.92 362.808, 1685.8 365.468 Q 1686.52 364.808, 1687.42 364.468 Q 1688.34 364.108, 1689.32 364.108 M 1688.86 371.468 Q 1689.62 371.468, 1690.24 371.068 Q 1690.88 370.668, 1691.24 369.968 Q 1691.6 369.268, 1691.6 368.408 Q 1691.6 367.148, 1690.9 366.428 Q 1690.2 365.708, 1688.96 365.708 Q 1688.1 365.708, 1687.24 366.068 Q 1686.4 366.408, 1685.8 367.008 Q 1685.88 369.348, 1686.62 370.408 Q 1687.36 371.468, 1688.86 371.468 " fill="#000000"/>
<path class="note" d="M 1553.14 327.968 L 1545.72 327.968 L 1545.72 326.368 L 1555.12 326.368 L 1555.12 327.788 L 1549.4 340.528 L 1547.48 340.528 L 1553.14 327.968 " fill="#000000"/>
<path class="note" d="M 1517.39 216.61 Q 1518.69 217.17, 1519.43 218.01 Q 1520.17 218.83, 1520.17 220.23 Q 1520.17 221.43, 1519.55 222.37 Q 1518.93 223.29, 1517.81 223.81 Q 1516.71 224.31, 1515.25 224.31 Q 1512.89 224.31, 1511.53 223.23 Q 1510.17 222.13, 1510.17 220.23 Q 1510.17 219.07, 1510.77 218.21 Q 1511.37 217.33, 1512.61 216.67 Q 1511.69 216.15, 1511.19 215.39 Q 1510.69 214.61, 1510.69 213.41 Q 1510.69 211.75, 1511.89 210.77 Q 1513.11 209.79, 1515.17 209.79 Q 1517.23 209.79, 1518.43 210.77 Q 1519.65 211.75, 1519.65 213.41 Q 1519.65 214.45, 1519.07 215.23 Q 1518.51 215.99, 1517.39 216.61 M 1515.17 211.29 Q 1513.99 211.29, 1513.33 211.85 Q 1512.69 212.41, 1512.69 213.41 Q 1512.69 214.15, 1513.13 214.65 Q 1513.57 215.13, 1514.19 215.41 Q 1514.83 215.69, 1516.05 216.11 Q 1516.91 215.51, 1517.27 214.87 Q 1517.65 214.23, 1517.65 213.41 Q 1517.65 212.41, 1516.99 211.85 Q 1516.35 211.29, 1515.17 211.29 M 1515.25 222.81 Q 1516.57 222.81, 1517.37 222.11 Q 1518.17 221.39, 1518.17 220.21 Q 1518.17 219.45, 1517.75 218.97 Q 1517.33 218.49, 1516.69 218.21 Q 1516.07 217.93, 1514.95 217.57 L 1514.05 217.27 Q 1513.05 217.87, 1512.61 218.59 Q 1512.17 219.29, 1512.17 220.21 Q 1512.17 221.39, 1513.01 222.11 Q 1513.85 222.81, 1515.25 222.81 " fill="#000000"/>
<path class="note" d="M 1370.88 158.033 Q 1373.4 158.033, 1374.66 159.753 Q 1375.94 161.453, 1375.94 164.853 Q 1375.94 168.613, 1374.36 170.573 Q 1372.8 172.513, 1369.78 172.513 Q 1368.9 172.513, 1368.14 172.313 Q 1367.4 172.113, 1366.68 171.693 L 1367.46 170.353 Q 1368.5 170.913, 1369.76 170.913 Q 1371.76 170.913, 1372.78 169.633 Q 1373.8 168.333, 1373.92 165.673 Q 1373.2 166.333, 1372.28 166.693 Q 1371.38 167.033, 1370.4 167.033 Q 1369.16 167.033, 1368.18 166.493 Q 1367.2 165.953, 1366.66 164.973 Q 1366.12 163.993, 1366.12 162.753 Q 1366.12 161.373, 1366.72 160.313 Q 1367.34 159.233, 1368.42 158.633 Q 1369.5 158.033, 1370.88 158.033 M 1368.12 162.733 Q 1368.12 163.993, 1368.82 164.713 Q 1369.52 165.433, 1370.76 165.433 Q 1371.62 165.433, 1372.46 165.093 Q 1373.32 164.733, 1373.92 164.133 Q 1373.84 161.793, 1373.1 160.733 Q 1372.36 159.673, 1370.86 159.673 Q 1370.1 159.673, 1369.46 160.073 Q 1368.84 160.473, 1368.48 161.173 Q 1368.12 161.873, 1368.12 162.733 " fill="#000000"/>
<path class="note" d="M 1592.89 99.5199 L 1595.99 99.5199 L 1595.99 88.9399 L 1592.57 89.9999 L 1592.11 88.8199 L 1596.45 86.8799 L 1597.87 87.1199 L 1597.87 99.5199 L 1600.65 99.5199 L 1600.65 101.12 L 1592.89 101.12 L 1592.89 99.5199 " fill="#000000"/>
<path class="note" d="M 1607.05 101.28 Q 1604.45 101.28, 1603.15 99.3599 Q 1601.87 97.4399, 1601.87 94.0199 Q 1601.87 90.5999, 1603.15 88.6999 Q 1604.43 86.7999, 1607.05 86.7999 Q 1609.67 86.7999, 1610.95 88.6999 Q 1612.23 90.5999, 1612.23 94.0199 Q 1612.23 97.4399, 1610.93 99.3599 Q 1609.65 101.28, 1607.05 101.28 M 1607.05 99.6799 Q 1608.59 99.6799, 1609.41 98.2599 Q 1610.23 96.8199, 1610.23 94.0199 Q 1610.23 91.2399, 1609.41 89.8199 Q 1608.59 88.3999, 1607.05 88.3999 Q 1605.53 88.3999, 1604.69 89.8199 Q 1603.87 91.2399, 1603.87 94.0199 Q 1603.87 96.8199, 1604.69 98.2599 Q 1605.53 99.6799, 1607.05 99.6799 " fill="#000000"/>
<path class="note" d="M 1712.39 127.201 L 1715.49 127.201 L 1715.49 116.621 L 1712.07 117.681 L 1711.61 116.501 L 1715.95 114.561 L 1717.37 114.801 L 1717.37 127.201 L 1720.15 127.201 L 1720.15 128.801 L 1712.39 128.801 L 1712.39 127.201 " fill="#000000"/>
<path class="note" d="M 1722.01 127.201 L 1725.11 127.201 L 1725.11 116.621 L 1721.69 117.681 L 1721.23 116.501 L 1725.57 114.561 L 1726.99 114.801 L 1726.99 127.201 L 1729.77 127.201 L 1729.77 128.801 L 1722.01 128.801 L 1722.01 127.201 " fill="#000000"/>
<path class="note" d="M 1828.82 28.2873 L 1831.92 28.2873 L 1831.92 17.7073 L 1828.5 18.7673 L 1828.04 17.5873 L 1832.38 15.6473 L 1833.8 15.8873 L 1833.8 28.2873 L 1836.58 28.2873 L 1836.58 29.8873 L 1828.82 29.8873 L 1828.82 28.2873 " fill="#000000"/>
<path class="note" d="M 1837.62 18.4073 Q 1838.14 17.0673, 1839.38 16.3273 Q 1840.62 15.5673, 1842.34 15.5673 Q 1844.48 15.5673, 1845.68 16.7273 Q 1846.88 17.8873, 1846.88 19.9473 Q 1846.88 22.0473, 1845.32 24.0073 Q 1843.78 25.9673, 1840.58 28.2873 L 1847.12 28.2873 L 1847.12 29.8873 L 1837.58 29.8873 L 1837.58 28.5473 Q 1840.22 26.6673, 1841.78 25.2673 Q 1843.36 23.8673, 1844.12 22.6073 Q 1844.88 21.3473, 1844.88 20.0473 Q 1844.88 18.6873, 1844.2 17.9273 Q 1843.52 17.1673, 1842.34 17.1673 Q 1841.2 17.1673, 1840.44 17.6273 Q 1839.68 18.0873, 1839.14 19.1073 L 1837.62 18.4073 " fill="#000000"/>
<path class="note" d="M 2578.82 245.229 L 2581.92 245.229 L 2581.92 234.649 L 2578.5 235.709 L 2578.04 234.529 L 2582.38 232.589 L 2583.8 232.829 L 2583.8 245.229 L 2586.58 245.229 L 2586.58 246.829 L 2578.82 246.829 L 2578.82 245.229 " fill="#000000"/>
<path class="note" d="M 2683.86 201.323 Q 2684.38 199.983, 2685.62 199.243 Q 2686.86 198.483, 2688.58 198.483 Q 2690.72 198.483, 2691.92 199.643 Q 2693.12 200.803, 2693.12 202.863 Q 2693.12 204.963, 2691.56 206.923 Q 2690.02 208.883, 2686.82 211.203 L 2693.36 211.203 L 2693.36 212.803 L 2683.82 212.803 L 2683.82 211.463 Q 2686.46 209.583, 2688.02 208.183 Q 2689.6 206.783, 2690.36 205.523 Q 2691.12 204.263, 2691.12 202.963 Q 2691.12 201.603, 2690.44 200.843 Q 2689.76 200.083, 2688.58 200.083 Q 2687.44 200.083, 2686.68 200.543 Q 2685.92 201.003, 2685.38 202.023 L 2683.86 201.323 " fill="#000000"/>
<path class="note" d="M 2733.63 27.9074 Q 2735.01 28.3074, 2735.67 29.2074 Q 2736.35 30.0874, 2736.35 31.4874 Q 2736.35 32.6874, 2735.75 33.6274 Q 2735.15 34.5474, 2734.05 35.0674 Q 2732.95 35.5674, 2731.51 35.5674 Q 2729.99 35.5674, 2728.85 35.0474 Q 2727.73 34.5074, 2726.83 33.4274 L 2727.97 32.2674 Q 2728.85 33.2274, 2729.59 33.6074 Q 2730.33 33.9674, 2731.51 33.9674 Q 2732.79 33.9674, 2733.57 33.2874 Q 2734.35 32.5874, 2734.35 31.4674 Q 2734.35 30.0274, 2733.53 29.3874 Q 2732.73 28.7274, 2730.99 28.7274 L 2729.97 28.7274 L 2729.97 27.2874 L 2730.87 27.2874 Q 2732.41 27.2674, 2733.23 26.6074 Q 2734.05 25.9274, 2734.05 24.6674 Q 2734.05 23.7474, 2733.37 23.2074 Q 2732.69 22.6474, 2731.53 22.6474 Q 2730.35 22.6474, 2729.61 23.0674 Q 2728.89 23.4874, 2728.33 24.5474 L 2726.95 23.8074 Q 2727.45 22.6274, 2728.65 21.8474 Q 2729.85 21.0474, 2731.53 21.0474 Q 2733.61 21.0474, 2734.83 22.0274 Q 2736.05 23.0074, 2736.05 24.6674 Q 2736.05 25.8074, 2735.43 26.6274 Q 2734.81 27.4474, 2733.63 27.9074 " fill="#000000"/>
<path class="note" d="M 2814.59 300.11 L 2816.29 300.11 L 2816.29 301.71 L 2814.59 301.71 L 2814.59 304.97 L 2812.71 304.97 L 2812.71 301.71 L 2805.39 301.71 L 2805.39 300.45 L 2811.59 290.81 L 2814.59 290.81 L 2814.59 300.11 M 2807.71 300.11 L 2812.71 300.11 L 2812.71 292.09 L 2807.71 300.11 " fill="#000000"/>
<path class="note" d="M 2883.91 219.805 Q 2885.15 219.805, 2886.17 220.345 Q 2887.19 220.865, 2887.77 221.865 Q 2888.35 222.845, 2888.35 224.185 Q 2888.35 225.645, 2887.63 226.705 Q 2886.93 227.745, 2885.77 228.285 Q 2884.61 228.825, 2883.29 228.825 Q 2881.99 228.825, 2880.79 228.345 Q 2879.59 227.865, 2878.77 226.945 L 2879.97 225.705 Q 2880.63 226.425, 2881.53 226.825 Q 2882.43 227.205, 2883.35 227.205 Q 2884.61 227.205, 2885.47 226.425 Q 2886.35 225.645, 2886.35 224.225 Q 2886.35 222.725, 2885.47 222.025 Q 2884.61 221.305, 2883.23 221.305 Q 2881.99 221.305, 2880.61 221.845 L 2879.51 221.325 L 2880.19 214.505 L 2887.47 214.505 L 2887.27 216.105 L 2881.83 216.105 L 2881.41 220.305 Q 2882.67 219.805, 2883.91 219.805 " fill="#000000"/>
<path class="note" d="M 2912.86 101.615 Q 2914.1 101.615, 2915.08 102.155 Q 2916.06 102.695, 2916.6 103.675 Q 2917.14 104.655, 2917.14 105.895 Q 2917.14 107.275, 2916.52 108.355 Q 2915.92 109.415, 2914.84 110.015 Q 2913.76 110.615, 2912.38 110.615 Q 2909.86 110.615, 2908.58 108.915 Q 2907.32 107.195, 2907.32 103.795 Q 2907.32 100.035, 2908.88 98.0951 Q 2910.46 96.1351, 2913.48 96.1351 Q 2914.36 96.1351, 2915.1 96.3351 Q 2915.86 96.5351, 2916.58 96.9551 L 2915.8 98.2951 Q 2914.76 97.7351, 2913.5 97.7351 Q 2911.5 97.7351, 2910.48 99.0351 Q 2909.46 100.315, 2909.34 102.975 Q 2910.06 102.315, 2910.96 101.975 Q 2911.88 101.615, 2912.86 101.615 M 2912.4 108.975 Q 2913.16 108.975, 2913.78 108.575 Q 2914.42 108.175, 2914.78 107.475 Q 2915.14 106.775, 2915.14 105.915 Q 2915.14 104.655, 2914.44 103.935 Q 2913.74 103.215, 2912.5 103.215 Q 2911.64 103.215, 2910.78 103.575 Q 2909.94 103.915, 2909.34 104.515 Q 2909.42 106.855, 2910.16 107.915 Q 2910.9 108.975, 2912.4 108.975 " fill="#000000"/>
<path class="note" d="M 3051.19 57.7767 L 3043.77 57.7767 L 3043.77 56.1767 L 3053.17 56.1767 L 3053.17 57.5967 L 3047.45 70.3367 L 3045.53 70.3367 L 3051.19 57.7767 " fill="#000000"/>
<path class="note" d="M 3138.8 146.888 Q 3140.1 147.448, 3140.84 148.288 Q 3141.58 149.108, 3141.58 150.508 Q 3141.58 151.708, 3140.96 152.648 Q 3140.34 153.568, 3139.22 154.088 Q 3138.12 154.588, 3136.66 154.588 Q 3134.3 154.588, 3132.94 153.508 Q 3131.58 152.408, 3131.58 150.508 Q 3131.58 149.348, 3132.18 148.488 Q 3132.78 147.608, 3134.02 146.948 Q 3133.1 146.428, 3132.6 145.668 Q 3132.1 144.888, 3132.1 143.688 Q 3132.1 142.028, 3133.3 141.048 Q 3134.52 140.068, 3136.58 140.068 Q 3138.64 140.068, 3139.84 141.048 Q 3141.06 142.028, 3141.06 143.688 Q 3141.06 144.728, 3140.48 145.508 Q 3139.92 146.268, 3138.8 146.888 M 3136.58 141.568 Q 3135.4 141.568, 3134.74 142.128 Q 3134.1 142.688, 3134.1 143.688 Q 3134.1 144.428, 3134.54 144.928 Q 3134.98 145.408, 3135.6 145.688 Q 3136.24 145.968, 3137.46 146.388 Q 3138.32 145.788, 3138.68 145.148 Q 3139.06 144.508, 3139.06 143.688 Q 3139.06 142.688, 3138.4 142.128 Q 3137.76 141.568, 3136.58 141.568 M 3136.66 153.088 Q 3137.98 153.088, 3138.78 152.388 Q 3139.58 151.668, 3139.58 150.488 Q 3139.58 149.728, 3139.16 149.248 Q 3138.74 148.768, 3138.1 148.488 Q 3137.48 148.208, 3136.36 147.848 L 3135.46 147.548 Q 3134.46 148.148, 3134.02 148.868 Q 3133.58 149.568, 3133.58 150.488 Q 3133.58 151.668, 3134.42 152.388 Q 3135.26 153.088, 3136.66 153.088 " fill="#000000"/>
<path class="note" d="M 3287.35 114.025 Q 3289.87 114.025, 3291.13 115.745 Q 3292.41 117.445, 3292.41 120.845 Q 3292.41 124.605, 3290.83 126.565 Q 3289.27 128.505, 3286.25 128.505 Q 3285.37 128.505, 3284.61 128.305 Q 3283.87 128.105, 3283.15 127.685 L 3283.93 126.345 Q 3284.97 126.905, 3286.23 126.905 Q 3288.23 126.905, 3289.25 125.625 Q 3290.27 124.325, 3290.39 121.665 Q 3289.67 122.325, 3288.75 122.685 Q 3287.85 123.025, 3286.87 123.025 Q 3285.63 123.025, 3284.65 122.485 Q 3283.67 121.945, 3283.13 120.965 Q 3282.59 119.985, 3282.59 118.745 Q 3282.59 117.365, 3283.19 116.305 Q 3283.81 115.225, 3284.89 114.625 Q 3285.97 114.025, 3287.35 114.025 M 3284.59 118.725 Q 3284.59 119.985, 3285.29 120.705 Q 3285.99 121.425, 3287.23 121.425 Q 3288.09 121.425, 3288.93 121.085 Q 3289.79 120.725, 3290.39 120.125 Q 3290.31 117.785, 3289.57 116.725 Q 3288.83 115.665, 3287.33 115.665 Q 3286.57 115.665, 3285.93 116.065 Q 3285.31 116.465, 3284.95 117.165 Q 3284.59 117.865, 3284.59 118.725 " fill="#000000"/>
<path class="note" d="M 3104.27 304.789 L 3107.37 304.789 L 3107.37 294.209 L 3103.95 295.269 L 3103.49 294.089 L 3107.83 292.149 L 3109.25 292.389 L 3109.25 304.789 L 3112.03 304.789 L 3112.03 306.389 L 3104.27 306.389 L 3104.27 304.789 " fill="#000000"/>
<path class="note" d="M 3118.43 306.549 Q 3115.83 306.549, 3114.53 304.629 Q 3113.25 302.709, 3113.25 299.289 Q 3113.25 295.869, 3114.53 293.969 Q 3115.81 292.069, 3118.43 292.069 Q 3121.05 292.069, 3122.33 293.969 Q 3123.61 295.869, 3123.61 299.289 Q 3123.61 302.709, 3122.31 304.629 Q 3121.03 306.549, 3118.43 306.549 M 3118.43 304.949 Q 3119.97 304.949, 3120.79 303.529 Q 3121.61 302.089, 3121.61 299.289 Q 3121.61 296.509, 3120.79 295.089 Q 3119.97 293.669, 3118.43 293.669 Q 3116.91 293.669, 3116.07 295.089 Q 3115.25 296.509, 3115.25 299.289 Q 3115.25 302.089, 3116.07 303.529 Q 3116.91 304.949, 3118.43 304.949 " fill="#000000"/>
<path class="note" d="M 2954.32 330.792 L 2957.42 330.792 L 2957.42 320.212 L 2954 321.272 L 2953.54 320.092 L 2957.88 318.152 L 2959.3 318.392 L 2959.3 330.792 L 2962.08 330.792 L 2962.08 332.392 L 2954.32 332.392 L 2954.32 330.792 " fill="#000000"/>
<path class="note" d="M 2963.94 330.792 L 2967.04 330.792 L 2967.04 320.212 L 2963.62 321.272 L 2963.16 320.092 L 2967.5 318.152 L 2968.92 318.392 L 2968.92 330.792 L 2971.7 330.792 L 2971.7 332.392 L 2963.94 332.392 L 2963.94 330.792 " fill="#000000"/>
<path class="note" d="M 2935.1 482.833 L 2938.2 482.833 L 2938.2 472.253 L 2934.78 473.313 L 2934.32 472.133 L 2938.66 470.193 L 2940.08 470.433 L 2940.08 482.833 L 2942.86 482.833 L 2942.86 484.433 L 2935.1 484.433 L 2935.1 482.833 " fill="#000000"/>
<path class="note" d="M 2943.9 472.953 Q 2944.42 471.613, 2945.66 470.873 Q 2946.9 470.113, 2948.62 470.113 Q 2950.76 470.113, 2951.96 471.273 Q 2953.16 472.433, 2953.16 474.493 Q 2953.16 476.593, 2951.6 478.553 Q 2950.06 480.513, 2946.86 482.833 L 2953.4 482.833 L 2953.4 484.433 L 2943.86 484.433 L 2943.86 483.093 Q 2946.5 481.213, 2948.06 479.813 Q 2949.64 478.413, 2950.4 477.153 Q 2951.16 475.893, 2951.16 474.593 Q 2951.16 473.233, 2950.48 472.473 Q 2949.8 471.713, 2948.62 471.713 Q 2947.48 471.713, 2946.72 472.173 Q 2945.96 472.633, 2945.42 473.653 L 2943.9 472.953 " fill="#000000"/>
<path d="M 1266.32 242.777 L 1272.37 242.777 L 1272.37 236.409 L 1275.06 236.409 L 1275.06 242.777 L 1281.27 242.777 L 1281.27 245.081 L 1275.06 245.081 L 1275.06 251.481 L 1272.37 251.481 L 1272.37 245.081 L 1266.32 245.081 L 1266.32 242.777 " fill="#000000"/>
<path d="M 2076.44,245.081 L 2396.35,245.081" style="fill:none;fill-rule:evenodd;stroke:#000000;stroke-width:2.0px;stroke-linecap:butt;stroke-linejoin:miter;stroke-opacity:1"/>
<path d="M 2396.35,245.081 L 2382.5,237.083" style="fill:none;fill-rule:evenodd;stroke:#000000;stroke-width:2.0px;stroke-linecap:butt;stroke-linejoin:miter;stroke-opacity:1"/>
<path d="M 2396.35,245.081 L 2382.5,253.079" style="fill:none;fill-rule:evenodd;stroke:#000000;stroke-width:2.0px;stroke-linecap:butt;stroke-linejoin:miter;stroke-opacity:1"/>
</svg>