<svg xmlns="http://www.w3.org/2000/svg" xmlns:rdkit="http://www.rdkit.org/xml" xmlns:xlink="http://www.w3.org/1999/xlink" version="1.1" baseProfile="full" xml:space="preserve" width="4000px" height="500px" viewBox="0 0 4000 500">
<!-- END OF HEADER -->
<rect style="opacity:1.0;fill:#FFFFFF;stroke:none" width="4000" height="500" x="0" y="0"> </rect>
<path d="M 1181.2,297.814 L 1115.97,260.155" style="fill:none;fill-rule:evenodd;stroke:#FFFFAA;stroke-width:16.1px;stroke-linecap:butt;stroke-linejoin:miter;stroke-opacity:1"/>
<path d="M 1115.97,260.155 L 1050.75,297.814" style="fill:none;fill-rule:evenodd;stroke:#FFFFAA;stroke-width:16.1px;stroke-linecap:butt;stroke-linejoin:miter;stroke-opacity:1"/>
<path d="M 1115.97,260.155 L 1115.97,184.838" style="fill:none;fill-rule:evenodd;stroke:#FFFFAA;stroke-width:16.1px;stroke-linecap:butt;stroke-linejoin:miter;stroke-opacity:1"/>
<path d="M 1873.13,421.962 L 1831.46,359.221" style="fill:none;fill-rule:evenodd;stroke:#FFCC99;stroke-width:16.1px;stroke-linecap:butt;stroke-linejoin:miter;stroke-opacity:1"/>
<path d="M 1831.46,359.221 L 1756.29,363.937" style="fill:none;fill-rule:evenodd;stroke:#FFCC99;stroke-width:16.1px;stroke-linecap:butt;stroke-linejoin:miter;stroke-opacity:1"/>
<path d="M 1831.46,359.221 L 1864.96,291.765" style="fill:none;fill-rule:evenodd;stroke:#FFCC99;stroke-width:16.1px;stroke-linecap:butt;stroke-linejoin:miter;stroke-opacity:1"/>
<path d="M 1756.29,363.937 L 1714.62,301.196" style="fill:none;fill-rule:evenodd;stroke:#FFCC99;stroke-width:16.1px;stroke-linecap:butt;stroke-linejoin:miter;stroke-opacity:1"/>
<path d="M 1714.62,301.196 L 1639.45,305.912" style="fill:none;fill-rule:evenodd;stroke:#FFCC99;stroke-width:16.1px;stroke-linecap:butt;stroke-linejoin:miter;stroke-opacity:1"/>
<path d="M 1714.62,301.196 L 1748.12,233.74" style="fill:none;fill-rule:evenodd;stroke:#FFCC99;stroke-width:16.1px;stroke-linecap:butt;stroke-linejoin:miter;stroke-opacity:1"/>
<path d="M 1639.45,305.912 L 1597.78,243.171" style="fill:none;fill-rule:evenodd;stroke:#FFCC99;stroke-width:16.1px;stroke-linecap:butt;stroke-linejoin:miter;stroke-opacity:1"/>
<path d="M 1597.78,243.171 L 1522.61,247.887" style="fill:none;fill-rule:evenodd;stroke:#FFCC99;stroke-width:16.1px;stroke-linecap:butt;stroke-linejoin:miter;stroke-opacity:1"/>
<path d="M 1522.61,247.887 L 1480.94,185.146" style="fill:none;fill-rule:evenodd;stroke:#FFCC99;stroke-width:16.1px;stroke-linecap:butt;stroke-linejoin:miter;stroke-opacity:1"/>
<path d="M 1522.61,247.887 L 1489.11,315.344" style="fill:none;fill-rule:evenodd;stroke:#FFCC99;stroke-width:16.1px;stroke-linecap:butt;stroke-linejoin:miter;stroke-opacity:1"/>
<path d="M 1480.94,185.146 L 1405.78,189.862" style="fill:none;fill-rule:evenodd;stroke:#FFCC99;stroke-width:16.1px;stroke-linecap:butt;stroke-linejoin:miter;stroke-opacity:1"/>
<path d="M 1405.78,189.862 L 1372.27,257.319" style="fill:none;fill-rule:evenodd;stroke:#FFCC99;stroke-width:16.1px;stroke-linecap:butt;stroke-linejoin:miter;stroke-opacity:1"/>
<path d="M 1372.27,257.319 L 1413.94,320.06" style="fill:none;fill-rule:evenodd;stroke:#FFCC99;stroke-width:16.1px;stroke-linecap:butt;stroke-linejoin:miter;stroke-opacity:1"/>
<path d="M 1413.94,320.06 L 1489.11,315.344" style="fill:none;fill-rule:evenodd;stroke:#FFCC99;stroke-width:16.1px;stroke-linecap:butt;stroke-linejoin:miter;stroke-opacity:1"/>
<path d="M 1748.12,233.74 L 1823.29,229.024" style="fill:none;fill-rule:evenodd;stroke:#FFCC99;stroke-width:16.1px;stroke-linecap:butt;stroke-linejoin:miter;stroke-opacity:1"/>
<path d="M 1823.29,229.024 L 1856.79,161.567" style="fill:none;fill-rule:evenodd;stroke:#FFCC99;stroke-width:16.1px;stroke-linecap:butt;stroke-linejoin:miter;stroke-opacity:1"/>
<path d="M 1823.29,229.024 L 1864.96,291.765" style="fill:none;fill-rule:evenodd;stroke:#FFCC99;stroke-width:16.1px;stroke-linecap:butt;stroke-linejoin:miter;stroke-opacity:1"/>
<path d="M 1856.79,161.567 L 1931.96,156.851" style="fill:none;fill-rule:evenodd;stroke:#FFCC99;stroke-width:16.1px;stroke-linecap:butt;stroke-linejoin:miter;stroke-opacity:1"/>
<path d="M 1856.79,161.567 L 1815.12,98.8262" style="fill:none;fill-rule:evenodd;stroke:#FFCC99;stroke-width:16.1px;stroke-linecap:butt;stroke-linejoin:miter;stroke-opacity:1"/>
<path d="M 2949.25,462.209 L 2893.3,411.789" style="fill:none;fill-rule:evenodd;stroke:#FFFFAA;stroke-width:16.1px;stroke-linecap:butt;stroke-linejoin:miter;stroke-opacity:1"/>
<path d="M 2893.3,411.789 L 2821.66,435.034" style="fill:none;fill-rule:evenodd;stroke:#FFFFAA;stroke-width:16.1px;stroke-linecap:butt;stroke-linejoin:miter;stroke-opacity:1"/>
<path d="M 2908.99,338.124 L 2853.04,287.704" style="fill:none;fill-rule:evenodd;stroke:#FFCC99;stroke-width:16.1px;stroke-linecap:butt;stroke-linejoin:miter;stroke-opacity:1"/>
<path d="M 2853.04,287.704 L 2781.4,310.949" style="fill:none;fill-rule:evenodd;stroke:#FFCC99;stroke-width:16.1px;stroke-linecap:butt;stroke-linejoin:miter;stroke-opacity:1"/>
<path d="M 2853.04,287.704 L 2868.73,214.039" style="fill:none;fill-rule:evenodd;stroke:#FFCC99;stroke-width:16.1px;stroke-linecap:butt;stroke-linejoin:miter;stroke-opacity:1"/>
<path d="M 2781.4,310.949 L 2725.45,260.529" style="fill:none;fill-rule:evenodd;stroke:#FFCC99;stroke-width:16.1px;stroke-linecap:butt;stroke-linejoin:miter;stroke-opacity:1"/>
<path d="M 2725.45,260.529 L 2653.81,283.774" style="fill:none;fill-rule:evenodd;stroke:#FFCC99;stroke-width:16.1px;stroke-linecap:butt;stroke-linejoin:miter;stroke-opacity:1"/>
<path d="M 2725.45,260.529 L 2741.14,186.864" style="fill:none;fill-rule:evenodd;stroke:#FFCC99;stroke-width:16.1px;stroke-linecap:butt;stroke-linejoin:miter;stroke-opacity:1"/>
<path d="M 2653.81,283.774 L 2597.86,233.354" style="fill:none;fill-rule:evenodd;stroke:#FFCC99;stroke-width:16.1px;stroke-linecap:butt;stroke-linejoin:miter;stroke-opacity:1"/>
<path d="M 2597.86,233.354 L 2526.22,256.6" style="fill:none;fill-rule:evenodd;stroke:#FFCC99;stroke-width:16.1px;stroke-linecap:butt;stroke-linejoin:miter;stroke-opacity:1"/>
<path d="M 2526.22,256.6 L 2470.27,206.18" style="fill:none;fill-rule:evenodd;stroke:#FFCC99;stroke-width:16.1px;stroke-linecap:butt;stroke-linejoin:miter;stroke-opacity:1"/>
<path d="M 2526.22,256.6 L 2510.53,330.265" style="fill:none;fill-rule:evenodd;stroke:#FFCC99;stroke-width:16.1px;stroke-linecap:butt;stroke-linejoin:miter;stroke-opacity:1"/>
<path d="M 2470.27,206.18 L 2398.63,229.425" style="fill:none;fill-rule:evenodd;stroke:#FFCC99;stroke-width:16.1px;stroke-linecap:butt;stroke-linejoin:miter;stroke-opacity:1"/>
<path d="M 2398.63,229.425 L 2382.94,303.09" style="fill:none;fill-rule:evenodd;stroke:#FFCC99;stroke-width:16.1px;stroke-linecap:butt;stroke-linejoin:miter;stroke-opacity:1"/>
<path d="M 2382.94,303.09 L 2438.89,353.51" style="fill:none;fill-rule:evenodd;stroke:#FFCC99;stroke-width:16.1px;stroke-linecap:butt;stroke-linejoin:miter;stroke-opacity:1"/>
<path d="M 2438.89,353.51 L 2510.53,330.265" style="fill:none;fill-rule:evenodd;stroke:#FFCC99;stroke-width:16.1px;stroke-linecap:butt;stroke-linejoin:miter;stroke-opacity:1"/>
<path d="M 2741.14,186.864 L 2812.78,163.619" style="fill:none;fill-rule:evenodd;stroke:#FFCC99;stroke-width:16.1px;stroke-linecap:butt;stroke-linejoin:miter;stroke-opacity:1"/>
<path d="M 2812.78,163.619 L 2828.47,89.9539" style="fill:none;fill-rule:evenodd;stroke:#FFCC99;stroke-width:16.1px;stroke-linecap:butt;stroke-linejoin:miter;stroke-opacity:1"/>
<path d="M 2812.78,163.619 L 2868.73,214.039" style="fill:none;fill-rule:evenodd;stroke:#FFCC99;stroke-width:16.1px;stroke-linecap:butt;stroke-linejoin:miter;stroke-opacity:1"/>
<path d="M 2828.47,89.9539 L 2900.11,66.7088" style="fill:none;fill-rule:evenodd;stroke:#FFCC99;stroke-width:16.1px;stroke-linecap:butt;stroke-linejoin:miter;stroke-opacity:1"/>
<path d="M 2828.47,89.9539 L 2772.52,39.5339" style="fill:none;fill-rule:evenodd;stroke:#FFCC99;stroke-width:16.1px;stroke-linecap:butt;stroke-linejoin:miter;stroke-opacity:1"/>
<ellipse cx="1115.97" cy="260.155" rx="15.0635" ry="15.0635" style="fill:#FFFFAA;fill-rule:evenodd;stroke:#FFFFAA;stroke-width:1px;stroke-linecap:butt;stroke-linejoin:miter;stroke-opacity:1"/>
<ellipse cx="1050.75" cy="297.814" rx="15.0635" ry="15.0635" style="fill:#FFFFAA;fill-rule:evenodd;stroke:#FFFFAA;stroke-width:1px;stroke-linecap:butt;stroke-linejoin:miter;stroke-opacity:1"/>
<ellipse cx="1115.97" cy="185.003" rx="15.0635" ry="15.4873" style="fill:#FFFFAA;fill-rule:evenodd;stroke:#FFFFAA;stroke-width:1px;stroke-linecap:butt;stroke-linejoin:miter;stroke-opacity:1"/>
<ellipse cx="1882.75" cy="422.128" rx="27.4595" ry="15.4873" style="fill:#FFCC99;fill-rule:evenodd;stroke:#FFCC99;stroke-width:1px;stroke-linecap:butt;stroke-linejoin:miter;stroke-opacity:1"/>
<ellipse cx="1831.46" cy="359.221" rx="15.0635" ry="15.0635" style="fill:#FFCC99;fill-rule:evenodd;stroke:#FFCC99;stroke-width:1px;stroke-linecap:butt;stroke-linejoin:miter;stroke-opacity:1"/>
<ellipse cx="1756.29" cy="363.937" rx="15.0635" ry="15.0635" style="fill:#FFCC99;fill-rule:evenodd;stroke:#FFCC99;stroke-width:1px;stroke-linecap:butt;stroke-linejoin:miter;stroke-opacity:1"/>
<ellipse cx="1714.62" cy="301.196" rx="15.0635" ry="15.0635" style="fill:#FFCC99;fill-rule:evenodd;stroke:#FFCC99;stroke-width:1px;stroke-linecap:butt;stroke-linejoin:miter;stroke-opacity:1"/>
<ellipse cx="1639.45" cy="306.078" rx="15.0635" ry="15.4873" style="fill:#FFCC99;fill-rule:evenodd;stroke:#FFCC99;stroke-width:1px;stroke-linecap:butt;stroke-linejoin:miter;stroke-opacity:1"/>
<ellipse cx="1597.78" cy="243.171" rx="15.0635" ry="15.0635" style="fill:#FFCC99;fill-rule:evenodd;stroke:#FFCC99;stroke-width:1px;stroke-linecap:butt;stroke-linejoin:miter;stroke-opacity:1"/>
<ellipse cx="1522.61" cy="247.887" rx="15.0635" ry="15.0635" style="fill:#FFCC99;fill-rule:evenodd;stroke:#FFCC99;stroke-width:1px;stroke-linecap:butt;stroke-linejoin:miter;stroke-opacity:1"/>
<ellipse cx="1480.94" cy="185.146" rx="15.0635" ry="15.0635" style="fill:#FFCC99;fill-rule:evenodd;stroke:#FFCC99;stroke-width:1px;stroke-linecap:butt;stroke-linejoin:miter;stroke-opacity:1"/>
<ellipse cx="1405.78" cy="189.862" rx="15.0635" ry="15.0635" style="fill:#FFCC99;fill-rule:evenodd;stroke:#FFCC99;stroke-width:1px;stroke-linecap:butt;stroke-linejoin:miter;stroke-opacity:1"/>
<ellipse cx="1372.27" cy="257.319" rx="15.0635" ry="15.0635" style="fill:#FFCC99;fill-rule:evenodd;stroke:#FFCC99;stroke-width:1px;stroke-linecap:butt;stroke-linejoin:miter;stroke-opacity:1"/>
<ellipse cx="1413.94" cy="320.06" rx="15.0635" ry="15.0635" style="fill:#FFCC99;fill-rule:evenodd;stroke:#FFCC99;stroke-width:1px;stroke-linecap:butt;stroke-linejoin:miter;stroke-opacity:1"/>
<ellipse cx="1489.11" cy="315.344" rx="15.0635" ry="15.0635" style="fill:#FFCC99;fill-rule:evenodd;stroke:#FFCC99;stroke-width:1px;stroke-linecap:butt;stroke-linejoin:miter;stroke-opacity:1"/>
<ellipse cx="1748.12" cy="233.74" rx="15.0635" ry="15.0635" style="fill:#FFCC99;fill-rule:evenodd;stroke:#FFCC99;stroke-width:1px;stroke-linecap:butt;stroke-linejoin:miter;stroke-opacity:1"/>
<ellipse cx="1823.29" cy="229.024" rx="15.0635" ry="15.0635" style="fill:#FFCC99;fill-rule:evenodd;stroke:#FFCC99;stroke-width:1px;stroke-linecap:butt;stroke-linejoin:miter;stroke-opacity:1"/>
<ellipse cx="1856.79" cy="161.567" rx="15.0635" ry="15.0635" style="fill:#FFCC99;fill-rule:evenodd;stroke:#FFCC99;stroke-width:1px;stroke-linecap:butt;stroke-linejoin:miter;stroke-opacity:1"/>
<ellipse cx="1931.96" cy="157.017" rx="15.0635" ry="15.4873" style="fill:#FFCC99;fill-rule:evenodd;stroke:#FFCC99;stroke-width:1px;stroke-linecap:butt;stroke-linejoin:miter;stroke-opacity:1"/>
<ellipse cx="1806.03" cy="98.9919" rx="26.7139" ry="15.4873" style="fill:#FFCC99;fill-rule:evenodd;stroke:#FFCC99;stroke-width:1px;stroke-linecap:butt;stroke-linejoin:miter;stroke-opacity:1"/>
<ellipse cx="1864.96" cy="291.765" rx="15.0635" ry="15.0635" style="fill:#FFCC99;fill-rule:evenodd;stroke:#FFCC99;stroke-width:1px;stroke-linecap:butt;stroke-linejoin:miter;stroke-opacity:1"/>
<ellipse cx="2949.25" cy="462.209" rx="15.0635" ry="15.0635" style="fill:#FFFFAA;fill-rule:evenodd;stroke:#FFFFAA;stroke-width:1px;stroke-linecap:butt;stroke-linejoin:miter;stroke-opacity:1"/>
<ellipse cx="2893.3" cy="411.789" rx="15.0635" ry="15.0635" style="fill:#FFFFAA;fill-rule:evenodd;stroke:#FFFFAA;stroke-width:1px;stroke-linecap:butt;stroke-linejoin:miter;stroke-opacity:1"/>
<ellipse cx="2821.66" cy="435.2" rx="15.0635" ry="15.4873" style="fill:#FFFFAA;fill-rule:evenodd;stroke:#FFFFAA;stroke-width:1px;stroke-linecap:butt;stroke-linejoin:miter;stroke-opacity:1"/>
<ellipse cx="2908.99" cy="338.29" rx="15.0635" ry="15.4873" style="fill:#FFCC99;fill-rule:evenodd;stroke:#FFCC99;stroke-width:1px;stroke-linecap:butt;stroke-linejoin:miter;stroke-opacity:1"/>
<ellipse cx="2853.04" cy="287.704" rx="15.0635" ry="15.0635" style="fill:#FFCC99;fill-rule:evenodd;stroke:#FFCC99;stroke-width:1px;stroke-linecap:butt;stroke-linejoin:miter;stroke-opacity:1"/>
<ellipse cx="2781.4" cy="310.949" rx="15.0635" ry="15.0635" style="fill:#FFCC99;fill-rule:evenodd;stroke:#FFCC99;stroke-width:1px;stroke-linecap:butt;stroke-linejoin:miter;stroke-opacity:1"/>
<ellipse cx="2725.45" cy="260.529" rx="15.0635" ry="15.0635" style="fill:#FFCC99;fill-rule:evenodd;stroke:#FFCC99;stroke-width:1px;stroke-linecap:butt;stroke-linejoin:miter;stroke-opacity:1"/>
<ellipse cx="2653.81" cy="283.94" rx="15.0635" ry="15.4873" style="fill:#FFCC99;fill-rule:evenodd;stroke:#FFCC99;stroke-width:1px;stroke-linecap:butt;stroke-linejoin:miter;stroke-opacity:1"/>
<ellipse cx="2597.86" cy="233.354" rx="15.0635" ry="15.0635" style="fill:#FFCC99;fill-rule:evenodd;stroke:#FFCC99;stroke-width:1px;stroke-linecap:butt;stroke-linejoin:miter;stroke-opacity:1"/>
<ellipse cx="2526.22" cy="256.6" rx="15.0635" ry="15.0635" style="fill:#FFCC99;fill-rule:evenodd;stroke:#FFCC99;stroke-width:1px;stroke-linecap:butt;stroke-linejoin:miter;stroke-opacity:1"/>
<ellipse cx="2470.27" cy="206.18" rx="15.0635" ry="15.0635" style="fill:#FFCC99;fill-rule:evenodd;stroke:#FFCC99;stroke-width:1px;stroke-linecap:butt;stroke-linejoin:miter;stroke-opacity:1"/>
<ellipse cx="2398.63" cy="229.425" rx="15.0635" ry="15.0635" style="fill:#FFCC99;fill-rule:evenodd;stroke:#FFCC99;stroke-width:1px;stroke-linecap:butt;stroke-linejoin:miter;stroke-opacity:1"/>
<ellipse cx="2382.94" cy="303.09" rx="15.0635" ry="15.0635" style="fill:#FFCC99;fill-rule:evenodd;stroke:#FFCC99;stroke-width:1px;stroke-linecap:butt;stroke-linejoin:miter;stroke-opacity:1"/>
<ellipse cx="2438.89" cy="353.51" rx="15.0635" ry="15.0635" style="fill:#FFCC99;fill-rule:evenodd;stroke:#FFCC99;stroke-width:1px;stroke-linecap:butt;stroke-linejoin:miter;stroke-opacity:1"/>
<ellipse cx="2510.53" cy="330.265" rx="15.0635" ry="15.0635" style="fill:#FFCC99;fill-rule:evenodd;stroke:#FFCC99;stroke-width:1px;stroke-linecap:butt;stroke-linejoin:miter;stroke-opacity:1"/>
<ellipse cx="2741.14" cy="186.864" rx="15.0635" ry="15.0635" style="fill:#FFCC99;fill-rule:evenodd;stroke:#FFCC99;stroke-width:1px;stroke-linecap:butt;stroke-linejoin:miter;stroke-opacity:1"/>
<ellipse cx="2812.78" cy="163.619" rx="15.0635" ry="15.0635" style="fill:#FFCC99;fill-rule:evenodd;stroke:#FFCC99;stroke-width:1px;stroke-linecap:butt;stroke-linejoin:miter;stroke-opacity:1"/>
<ellipse cx="2828.47" cy="89.9539" rx="15.0635" ry="15.0635" style="fill:#FFCC99;fill-rule:evenodd;stroke:#FFCC99;stroke-width:1px;stroke-linecap:butt;stroke-linejoin:miter;stroke-opacity:1"/>
<ellipse cx="2900.11" cy="66.8745" rx="15.0635" ry="15.4873" style="fill:#FFCC99;fill-rule:evenodd;stroke:#FFCC99;stroke-width:1px;stroke-linecap:butt;stroke-linejoin:miter;stroke-opacity:1"/>
<ellipse cx="2763.42" cy="39.6996" rx="26.7139" ry="15.4873" style="fill:#FFCC99;fill-rule:evenodd;stroke:#FFCC99;stroke-width:1px;stroke-linecap:butt;stroke-linejoin:miter;stroke-opacity:1"/>
<ellipse cx="2868.73" cy="214.039" rx="15.0635" ry="15.0635" style="fill:#FFCC99;fill-rule:evenodd;stroke:#FFCC99;stroke-width:1px;stroke-linecap:butt;stroke-linejoin:miter;stroke-opacity:1"/>
<path class="bond-0" d="M 1169.53,291.074 L 1142.75,275.614" style="fill:none;fill-rule:evenodd;stroke:#FF0000;stroke-width:2.0px;stroke-linecap:butt;stroke-linejoin:miter;stroke-opacity:1"/>
<path class="bond-0" d="M 1142.75,275.614 L 1115.97,260.155" style="fill:none;fill-rule:evenodd;stroke:#000000;stroke-width:2.0px;stroke-linecap:butt;stroke-linejoin:miter;stroke-opacity:1"/>
<path class="bond-1" d="M 1115.97,260.155 L 1050.75,297.814" style="fill:none;fill-rule:evenodd;stroke:#000000;stroke-width:2.0px;stroke-linecap:butt;stroke-linejoin:miter;stroke-opacity:1"/>
<path class="bond-2" d="M 1123.5,260.155 L 1123.5,228.996" style="fill:none;fill-rule:evenodd;stroke:#000000;stroke-width:2.0px;stroke-linecap:butt;stroke-linejoin:miter;stroke-opacity:1"/>
<path class="bond-2" d="M 1123.5,228.996 L 1123.5,197.837" style="fill:none;fill-rule:evenodd;stroke:#FF0000;stroke-width:2.0px;stroke-linecap:butt;stroke-linejoin:miter;stroke-opacity:1"/>
<path class="bond-2" d="M 1108.44,260.155 L 1108.44,228.996" style="fill:none;fill-rule:evenodd;stroke:#000000;stroke-width:2.0px;stroke-linecap:butt;stroke-linejoin:miter;stroke-opacity:1"/>
<path class="bond-2" d="M 1108.44,228.996 L 1108.44,197.837" style="fill:none;fill-rule:evenodd;stroke:#FF0000;stroke-width:2.0px;stroke-linecap:butt;stroke-linejoin:miter;stroke-opacity:1"/>
<path class="bond-3" d="M 1864.72,409.294 L 1848.09,384.258" style="fill:none;fill-rule:evenodd;stroke:#FF0000;stroke-width:2.0px;stroke-linecap:butt;stroke-linejoin:miter;stroke-opacity:1"/>
<path class="bond-3" d="M 1848.09,384.258 L 1831.46,359.221" style="fill:none;fill-rule:evenodd;stroke:#000000;stroke-width:2.0px;stroke-linecap:butt;stroke-linejoin:miter;stroke-opacity:1"/>
<path class="bond-4" d="M 1831.46,359.221 L 1756.29,363.937" style="fill:none;fill-rule:evenodd;stroke:#000000;stroke-width:2.0px;stroke-linecap:butt;stroke-linejoin:miter;stroke-opacity:1"/>
<path class="bond-4" d="M 1819.24,344.895 L 1766.62,348.196" style="fill:none;fill-rule:evenodd;stroke:#000000;stroke-width:2.0px;stroke-linecap:butt;stroke-linejoin:miter;stroke-opacity:1;stroke-dasharray:6,6"/>
<path class="bond-20" d="M 1831.46,359.221 L 1864.96,291.765" style="fill:none;fill-rule:evenodd;stroke:#000000;stroke-width:2.0px;stroke-linecap:butt;stroke-linejoin:miter;stroke-opacity:1"/>
<path class="bond-20" d="M 1822.99,342.403 L 1846.44,295.183" style="fill:none;fill-rule:evenodd;stroke:#000000;stroke-width:2.0px;stroke-linecap:butt;stroke-linejoin:miter;stroke-opacity:1;stroke-dasharray:6,6"/>
<path class="bond-5" d="M 1756.29,363.937 L 1714.62,301.196" style="fill:none;fill-rule:evenodd;stroke:#000000;stroke-width:2.0px;stroke-linecap:butt;stroke-linejoin:miter;stroke-opacity:1"/>
<path class="bond-5" d="M 1762.59,346.192 L 1733.42,302.274" style="fill:none;fill-rule:evenodd;stroke:#000000;stroke-width:2.0px;stroke-linecap:butt;stroke-linejoin:miter;stroke-opacity:1;stroke-dasharray:6,6"/>
<path class="bond-6" d="M 1714.62,301.196 L 1682.87,303.188" style="fill:none;fill-rule:evenodd;stroke:#000000;stroke-width:2.0px;stroke-linecap:butt;stroke-linejoin:miter;stroke-opacity:1"/>
<path class="bond-6" d="M 1682.87,303.188 L 1651.13,305.18" style="fill:none;fill-rule:evenodd;stroke:#FF0000;stroke-width:2.0px;stroke-linecap:butt;stroke-linejoin:miter;stroke-opacity:1"/>
<path class="bond-14" d="M 1714.62,301.196 L 1748.12,233.74" style="fill:none;fill-rule:evenodd;stroke:#000000;stroke-width:2.0px;stroke-linecap:butt;stroke-linejoin:miter;stroke-opacity:1"/>
<path class="bond-14" d="M 1733.14,297.778 L 1756.59,250.558" style="fill:none;fill-rule:evenodd;stroke:#000000;stroke-width:2.0px;stroke-linecap:butt;stroke-linejoin:miter;stroke-opacity:1;stroke-dasharray:6,6"/>
<path class="bond-7" d="M 1631.04,293.244 L 1614.41,268.207" style="fill:none;fill-rule:evenodd;stroke:#FF0000;stroke-width:2.0px;stroke-linecap:butt;stroke-linejoin:miter;stroke-opacity:1"/>
<path class="bond-7" d="M 1614.41,268.207 L 1597.78,243.171" style="fill:none;fill-rule:evenodd;stroke:#000000;stroke-width:2.0px;stroke-linecap:butt;stroke-linejoin:miter;stroke-opacity:1"/>
<path class="bond-8" d="M 1597.78,243.171 L 1522.61,247.887" style="fill:none;fill-rule:evenodd;stroke:#000000;stroke-width:2.0px;stroke-linecap:butt;stroke-linejoin:miter;stroke-opacity:1"/>
<path class="bond-9" d="M 1522.61,247.887 L 1480.94,185.146" style="fill:none;fill-rule:evenodd;stroke:#000000;stroke-width:2.0px;stroke-linecap:butt;stroke-linejoin:miter;stroke-opacity:1"/>
<path class="bond-9" d="M 1503.82,246.81 L 1474.65,202.891" style="fill:none;fill-rule:evenodd;stroke:#000000;stroke-width:2.0px;stroke-linecap:butt;stroke-linejoin:miter;stroke-opacity:1;stroke-dasharray:6,6"/>
<path class="bond-21" d="M 1522.61,247.887 L 1489.11,315.344" style="fill:none;fill-rule:evenodd;stroke:#000000;stroke-width:2.0px;stroke-linecap:butt;stroke-linejoin:miter;stroke-opacity:1"/>
<path class="bond-21" d="M 1504.1,251.305 L 1480.65,298.525" style="fill:none;fill-rule:evenodd;stroke:#000000;stroke-width:2.0px;stroke-linecap:butt;stroke-linejoin:miter;stroke-opacity:1;stroke-dasharray:6,6"/>
<path class="bond-10" d="M 1480.94,185.146 L 1405.78,189.862" style="fill:none;fill-rule:evenodd;stroke:#000000;stroke-width:2.0px;stroke-linecap:butt;stroke-linejoin:miter;stroke-opacity:1"/>
<path class="bond-10" d="M 1470.61,200.887 L 1417.99,204.189" style="fill:none;fill-rule:evenodd;stroke:#000000;stroke-width:2.0px;stroke-linecap:butt;stroke-linejoin:miter;stroke-opacity:1;stroke-dasharray:6,6"/>
<path class="bond-11" d="M 1405.78,189.862 L 1372.27,257.319" style="fill:none;fill-rule:evenodd;stroke:#000000;stroke-width:2.0px;stroke-linecap:butt;stroke-linejoin:miter;stroke-opacity:1"/>
<path class="bond-11" d="M 1414.24,206.681 L 1390.79,253.9" style="fill:none;fill-rule:evenodd;stroke:#000000;stroke-width:2.0px;stroke-linecap:butt;stroke-linejoin:miter;stroke-opacity:1;stroke-dasharray:6,6"/>
<path class="bond-12" d="M 1372.27,257.319 L 1413.94,320.06" style="fill:none;fill-rule:evenodd;stroke:#000000;stroke-width:2.0px;stroke-linecap:butt;stroke-linejoin:miter;stroke-opacity:1"/>
<path class="bond-12" d="M 1391.07,258.396 L 1420.24,302.315" style="fill:none;fill-rule:evenodd;stroke:#000000;stroke-width:2.0px;stroke-linecap:butt;stroke-linejoin:miter;stroke-opacity:1;stroke-dasharray:6,6"/>
<path class="bond-13" d="M 1413.94,320.06 L 1489.11,315.344" style="fill:none;fill-rule:evenodd;stroke:#000000;stroke-width:2.0px;stroke-linecap:butt;stroke-linejoin:miter;stroke-opacity:1"/>
<path class="bond-13" d="M 1424.28,304.318 L 1476.89,301.017" style="fill:none;fill-rule:evenodd;stroke:#000000;stroke-width:2.0px;stroke-linecap:butt;stroke-linejoin:miter;stroke-opacity:1;stroke-dasharray:6,6"/>
<path class="bond-15" d="M 1748.12,233.74 L 1823.29,229.024" style="fill:none;fill-rule:evenodd;stroke:#000000;stroke-width:2.0px;stroke-linecap:butt;stroke-linejoin:miter;stroke-opacity:1"/>
<path class="bond-15" d="M 1760.34,248.066 L 1812.96,244.765" style="fill:none;fill-rule:evenodd;stroke:#000000;stroke-width:2.0px;stroke-linecap:butt;stroke-linejoin:miter;stroke-opacity:1;stroke-dasharray:6,6"/>
<path class="bond-16" d="M 1823.29,229.024 L 1856.79,161.567" style="fill:none;fill-rule:evenodd;stroke:#000000;stroke-width:2.0px;stroke-linecap:butt;stroke-linejoin:miter;stroke-opacity:1"/>
<path class="bond-19" d="M 1823.29,229.024 L 1864.96,291.765" style="fill:none;fill-rule:evenodd;stroke:#000000;stroke-width:2.0px;stroke-linecap:butt;stroke-linejoin:miter;stroke-opacity:1"/>
<path class="bond-19" d="M 1816.99,246.769 L 1846.16,290.687" style="fill:none;fill-rule:evenodd;stroke:#000000;stroke-width:2.0px;stroke-linecap:butt;stroke-linejoin:miter;stroke-opacity:1;stroke-dasharray:6,6"/>
<path class="bond-17" d="M 1857.26,169.084 L 1889.01,167.092" style="fill:none;fill-rule:evenodd;stroke:#000000;stroke-width:2.0px;stroke-linecap:butt;stroke-linejoin:miter;stroke-opacity:1"/>
<path class="bond-17" d="M 1889.01,167.092 L 1920.76,165.101" style="fill:none;fill-rule:evenodd;stroke:#FF0000;stroke-width:2.0px;stroke-linecap:butt;stroke-linejoin:miter;stroke-opacity:1"/>
<path class="bond-17" d="M 1856.32,154.05 L 1888.07,152.058" style="fill:none;fill-rule:evenodd;stroke:#000000;stroke-width:2.0px;stroke-linecap:butt;stroke-linejoin:miter;stroke-opacity:1"/>
<path class="bond-17" d="M 1888.07,152.058 L 1919.82,150.067" style="fill:none;fill-rule:evenodd;stroke:#FF0000;stroke-width:2.0px;stroke-linecap:butt;stroke-linejoin:miter;stroke-opacity:1"/>
<path class="bond-18" d="M 1856.79,161.567 L 1840.28,136.697" style="fill:none;fill-rule:evenodd;stroke:#000000;stroke-width:2.0px;stroke-linecap:butt;stroke-linejoin:miter;stroke-opacity:1"/>
<path class="bond-18" d="M 1840.28,136.697 L 1823.76,111.826" style="fill:none;fill-rule:evenodd;stroke:#FF0000;stroke-width:2.0px;stroke-linecap:butt;stroke-linejoin:miter;stroke-opacity:1"/>
<path class="bond-22" d="M 2949.25,462.209 L 2893.3,411.789" style="fill:none;fill-rule:evenodd;stroke:#000000;stroke-width:2.0px;stroke-linecap:butt;stroke-linejoin:miter;stroke-opacity:1"/>
<path class="bond-23" d="M 2890.98,404.625 L 2861,414.354" style="fill:none;fill-rule:evenodd;stroke:#000000;stroke-width:2.0px;stroke-linecap:butt;stroke-linejoin:miter;stroke-opacity:1"/>
<path class="bond-23" d="M 2861,414.354 L 2831.01,424.082" style="fill:none;fill-rule:evenodd;stroke:#FF0000;stroke-width:2.0px;stroke-linecap:butt;stroke-linejoin:miter;stroke-opacity:1"/>
<path class="bond-23" d="M 2895.63,418.953 L 2865.64,428.682" style="fill:none;fill-rule:evenodd;stroke:#000000;stroke-width:2.0px;stroke-linecap:butt;stroke-linejoin:miter;stroke-opacity:1"/>
<path class="bond-23" d="M 2865.64,428.682 L 2835.66,438.411" style="fill:none;fill-rule:evenodd;stroke:#FF0000;stroke-width:2.0px;stroke-linecap:butt;stroke-linejoin:miter;stroke-opacity:1"/>
<path class="bond-24" d="M 2893.3,411.789 L 2899.76,381.457" style="fill:none;fill-rule:evenodd;stroke:#000000;stroke-width:2.0px;stroke-linecap:butt;stroke-linejoin:miter;stroke-opacity:1"/>
<path class="bond-24" d="M 2899.76,381.457 L 2906.22,351.124" style="fill:none;fill-rule:evenodd;stroke:#FF0000;stroke-width:2.0px;stroke-linecap:butt;stroke-linejoin:miter;stroke-opacity:1"/>
<path class="bond-25" d="M 2897.32,327.604 L 2875.18,307.654" style="fill:none;fill-rule:evenodd;stroke:#FF0000;stroke-width:2.0px;stroke-linecap:butt;stroke-linejoin:miter;stroke-opacity:1"/>
<path class="bond-25" d="M 2875.18,307.654 L 2853.04,287.704" style="fill:none;fill-rule:evenodd;stroke:#000000;stroke-width:2.0px;stroke-linecap:butt;stroke-linejoin:miter;stroke-opacity:1"/>
<path class="bond-26" d="M 2853.04,287.704 L 2781.4,310.949" style="fill:none;fill-rule:evenodd;stroke:#000000;stroke-width:2.0px;stroke-linecap:butt;stroke-linejoin:miter;stroke-opacity:1"/>
<path class="bond-26" d="M 2837.65,276.863 L 2787.5,293.134" style="fill:none;fill-rule:evenodd;stroke:#000000;stroke-width:2.0px;stroke-linecap:butt;stroke-linejoin:miter;stroke-opacity:1;stroke-dasharray:6,6"/>
<path class="bond-42" d="M 2853.04,287.704 L 2868.73,214.039" style="fill:none;fill-rule:evenodd;stroke:#000000;stroke-width:2.0px;stroke-linecap:butt;stroke-linejoin:miter;stroke-opacity:1"/>
<path class="bond-42" d="M 2840.66,273.516 L 2851.64,221.951" style="fill:none;fill-rule:evenodd;stroke:#000000;stroke-width:2.0px;stroke-linecap:butt;stroke-linejoin:miter;stroke-opacity:1;stroke-dasharray:6,6"/>
<path class="bond-27" d="M 2781.4,310.949 L 2725.45,260.529" style="fill:none;fill-rule:evenodd;stroke:#000000;stroke-width:2.0px;stroke-linecap:butt;stroke-linejoin:miter;stroke-opacity:1"/>
<path class="bond-27" d="M 2783.09,292.196 L 2743.93,256.902" style="fill:none;fill-rule:evenodd;stroke:#000000;stroke-width:2.0px;stroke-linecap:butt;stroke-linejoin:miter;stroke-opacity:1;stroke-dasharray:6,6"/>
<path class="bond-28" d="M 2725.45,260.529 L 2695.47,270.258" style="fill:none;fill-rule:evenodd;stroke:#000000;stroke-width:2.0px;stroke-linecap:butt;stroke-linejoin:miter;stroke-opacity:1"/>
<path class="bond-28" d="M 2695.47,270.258 L 2665.48,279.986" style="fill:none;fill-rule:evenodd;stroke:#FF0000;stroke-width:2.0px;stroke-linecap:butt;stroke-linejoin:miter;stroke-opacity:1"/>
<path class="bond-36" d="M 2725.45,260.529 L 2741.14,186.864" style="fill:none;fill-rule:evenodd;stroke:#000000;stroke-width:2.0px;stroke-linecap:butt;stroke-linejoin:miter;stroke-opacity:1"/>
<path class="bond-36" d="M 2742.54,252.617 L 2753.52,201.052" style="fill:none;fill-rule:evenodd;stroke:#000000;stroke-width:2.0px;stroke-linecap:butt;stroke-linejoin:miter;stroke-opacity:1;stroke-dasharray:6,6"/>
<path class="bond-29" d="M 2642.13,273.254 L 2620,253.304" style="fill:none;fill-rule:evenodd;stroke:#FF0000;stroke-width:2.0px;stroke-linecap:butt;stroke-linejoin:miter;stroke-opacity:1"/>
<path class="bond-29" d="M 2620,253.304 L 2597.86,233.354" style="fill:none;fill-rule:evenodd;stroke:#000000;stroke-width:2.0px;stroke-linecap:butt;stroke-linejoin:miter;stroke-opacity:1"/>
<path class="bond-30" d="M 2597.86,233.354 L 2526.22,256.6" style="fill:none;fill-rule:evenodd;stroke:#000000;stroke-width:2.0px;stroke-linecap:butt;stroke-linejoin:miter;stroke-opacity:1"/>
<path class="bond-31" d="M 2526.22,256.6 L 2470.27,206.18" style="fill:none;fill-rule:evenodd;stroke:#000000;stroke-width:2.0px;stroke-linecap:butt;stroke-linejoin:miter;stroke-opacity:1"/>
<path class="bond-31" d="M 2507.74,260.227 L 2468.57,224.933" style="fill:none;fill-rule:evenodd;stroke:#000000;stroke-width:2.0px;stroke-linecap:butt;stroke-linejoin:miter;stroke-opacity:1;stroke-dasharray:6,6"/>
<path class="bond-43" d="M 2526.22,256.6 L 2510.53,330.265" style="fill:none;fill-rule:evenodd;stroke:#000000;stroke-width:2.0px;stroke-linecap:butt;stroke-linejoin:miter;stroke-opacity:1"/>
<path class="bond-43" d="M 2509.13,264.511 L 2498.15,316.077" style="fill:none;fill-rule:evenodd;stroke:#000000;stroke-width:2.0px;stroke-linecap:butt;stroke-linejoin:miter;stroke-opacity:1;stroke-dasharray:6,6"/>
<path class="bond-32" d="M 2470.27,206.18 L 2398.63,229.425" style="fill:none;fill-rule:evenodd;stroke:#000000;stroke-width:2.0px;stroke-linecap:butt;stroke-linejoin:miter;stroke-opacity:1"/>
<path class="bond-32" d="M 2464.17,223.994 L 2414.02,240.266" style="fill:none;fill-rule:evenodd;stroke:#000000;stroke-width:2.0px;stroke-linecap:butt;stroke-linejoin:miter;stroke-opacity:1;stroke-dasharray:6,6"/>
<path class="bond-33" d="M 2398.63,229.425 L 2382.94,303.09" style="fill:none;fill-rule:evenodd;stroke:#000000;stroke-width:2.0px;stroke-linecap:butt;stroke-linejoin:miter;stroke-opacity:1"/>
<path class="bond-33" d="M 2411.01,243.612 L 2400.02,295.178" style="fill:none;fill-rule:evenodd;stroke:#000000;stroke-width:2.0px;stroke-linecap:butt;stroke-linejoin:miter;stroke-opacity:1;stroke-dasharray:6,6"/>
<path class="bond-34" d="M 2382.94,303.09 L 2438.89,353.51" style="fill:none;fill-rule:evenodd;stroke:#000000;stroke-width:2.0px;stroke-linecap:butt;stroke-linejoin:miter;stroke-opacity:1"/>
<path class="bond-34" d="M 2401.41,299.463 L 2440.58,334.756" style="fill:none;fill-rule:evenodd;stroke:#000000;stroke-width:2.0px;stroke-linecap:butt;stroke-linejoin:miter;stroke-opacity:1;stroke-dasharray:6,6"/>
<path class="bond-35" d="M 2438.89,353.51 L 2510.53,330.265" style="fill:none;fill-rule:evenodd;stroke:#000000;stroke-width:2.0px;stroke-linecap:butt;stroke-linejoin:miter;stroke-opacity:1"/>
<path class="bond-35" d="M 2444.98,335.695 L 2495.13,319.423" style="fill:none;fill-rule:evenodd;stroke:#000000;stroke-width:2.0px;stroke-linecap:butt;stroke-linejoin:miter;stroke-opacity:1;stroke-dasharray:6,6"/>
<path class="bond-37" d="M 2741.14,186.864 L 2812.78,163.619" style="fill:none;fill-rule:evenodd;stroke:#000000;stroke-width:2.0px;stroke-linecap:butt;stroke-linejoin:miter;stroke-opacity:1"/>
<path class="bond-37" d="M 2756.53,197.706 L 2806.68,181.434" style="fill:none;fill-rule:evenodd;stroke:#000000;stroke-width:2.0px;stroke-linecap:butt;stroke-linejoin:miter;stroke-opacity:1;stroke-dasharray:6,6"/>
<path class="bond-38" d="M 2812.78,163.619 L 2828.47,89.9539" style="fill:none;fill-rule:evenodd;stroke:#000000;stroke-width:2.0px;stroke-linecap:butt;stroke-linejoin:miter;stroke-opacity:1"/>
<path class="bond-41" d="M 2812.78,163.619 L 2868.73,214.039" style="fill:none;fill-rule:evenodd;stroke:#000000;stroke-width:2.0px;stroke-linecap:butt;stroke-linejoin:miter;stroke-opacity:1"/>
<path class="bond-41" d="M 2811.09,182.372 L 2850.25,217.666" style="fill:none;fill-rule:evenodd;stroke:#000000;stroke-width:2.0px;stroke-linecap:butt;stroke-linejoin:miter;stroke-opacity:1;stroke-dasharray:6,6"/>
<path class="bond-39" d="M 2830.79,97.118 L 2860.78,87.3894" style="fill:none;fill-rule:evenodd;stroke:#000000;stroke-width:2.0px;stroke-linecap:butt;stroke-linejoin:miter;stroke-opacity:1"/>
<path class="bond-39" d="M 2860.78,87.3894 L 2890.76,77.6608" style="fill:none;fill-rule:evenodd;stroke:#FF0000;stroke-width:2.0px;stroke-linecap:butt;stroke-linejoin:miter;stroke-opacity:1"/>
<path class="bond-39" d="M 2826.14,82.7899 L 2856.13,73.0613" style="fill:none;fill-rule:evenodd;stroke:#000000;stroke-width:2.0px;stroke-linecap:butt;stroke-linejoin:miter;stroke-opacity:1"/>
<path class="bond-39" d="M 2856.13,73.0613 L 2886.11,63.3327" style="fill:none;fill-rule:evenodd;stroke:#FF0000;stroke-width:2.0px;stroke-linecap:butt;stroke-linejoin:miter;stroke-opacity:1"/>
<path class="bond-40" d="M 2828.47,89.9539 L 2806.33,70.004" style="fill:none;fill-rule:evenodd;stroke:#000000;stroke-width:2.0px;stroke-linecap:butt;stroke-linejoin:miter;stroke-opacity:1"/>
<path class="bond-40" d="M 2806.33,70.004 L 2784.19,50.0541" style="fill:none;fill-rule:evenodd;stroke:#FF0000;stroke-width:2.0px;stroke-linecap:butt;stroke-linejoin:miter;stroke-opacity:1"/>
<path class="bond-44" d="M 2088.18,113.423 L 2117.53,130.369" style="fill:none;fill-rule:evenodd;stroke:#000000;stroke-width:2.0px;stroke-linecap:butt;stroke-linejoin:miter;stroke-opacity:1"/>
<path class="bond-45" d="M 2113.01,130.369 L 2113.01,141.499" style="fill:none;fill-rule:evenodd;stroke:#000000;stroke-width:2.0px;stroke-linecap:butt;stroke-linejoin:miter;stroke-opacity:1"/>
<path class="bond-45" d="M 2113.01,141.499 L 2113.01,152.629" style="fill:none;fill-rule:evenodd;stroke:#FF0000;stroke-width:2.0px;stroke-linecap:butt;stroke-linejoin:miter;stroke-opacity:1"/>
<path class="bond-45" d="M 2122.05,130.369 L 2122.05,141.499" style="fill:none;fill-rule:evenodd;stroke:#000000;stroke-width:2.0px;stroke-linecap:butt;stroke-linejoin:miter;stroke-opacity:1"/>
<path class="bond-45" d="M 2122.05,141.499 L 2122.05,152.629" style="fill:none;fill-rule:evenodd;stroke:#FF0000;stroke-width:2.0px;stroke-linecap:butt;stroke-linejoin:miter;stroke-opacity:1"/>
<path class="bond-46" d="M 2117.53,130.369 L 2126.89,124.967" style="fill:none;fill-rule:evenodd;stroke:#000000;stroke-width:2.0px;stroke-linecap:butt;stroke-linejoin:miter;stroke-opacity:1"/>
<path class="bond-46" d="M 2126.89,124.967 L 2136.25,119.565" style="fill:none;fill-rule:evenodd;stroke:#FF0000;stroke-width:2.0px;stroke-linecap:butt;stroke-linejoin:miter;stroke-opacity:1"/>
<path class="bond-47" d="M 2157.52,119.565 L 2166.88,124.967" style="fill:none;fill-rule:evenodd;stroke:#FF0000;stroke-width:2.0px;stroke-linecap:butt;stroke-linejoin:miter;stroke-opacity:1"/>
<path class="bond-47" d="M 2166.88,124.967 L 2176.24,130.369" style="fill:none;fill-rule:evenodd;stroke:#000000;stroke-width:2.0px;stroke-linecap:butt;stroke-linejoin:miter;stroke-opacity:1"/>
<path class="bond-48" d="M 2176.24,130.369 L 2205.59,113.423" style="fill:none;fill-rule:evenodd;stroke:#000000;stroke-width:2.0px;stroke-linecap:butt;stroke-linejoin:miter;stroke-opacity:1"/>
<path class="bond-49" d="M 2171.72,130.369 L 2171.72,141.499" style="fill:none;fill-rule:evenodd;stroke:#000000;stroke-width:2.0px;stroke-linecap:butt;stroke-linejoin:miter;stroke-opacity:1"/>
<path class="bond-49" d="M 2171.72,141.499 L 2171.72,152.629" style="fill:none;fill-rule:evenodd;stroke:#FF0000;stroke-width:2.0px;stroke-linecap:butt;stroke-linejoin:miter;stroke-opacity:1"/>
<path class="bond-49" d="M 2180.76,130.369 L 2180.76,141.499" style="fill:none;fill-rule:evenodd;stroke:#000000;stroke-width:2.0px;stroke-linecap:butt;stroke-linejoin:miter;stroke-opacity:1"/>
<path class="bond-49" d="M 2180.76,141.499 L 2180.76,152.629" style="fill:none;fill-rule:evenodd;stroke:#FF0000;stroke-width:2.0px;stroke-linecap:butt;stroke-linejoin:miter;stroke-opacity:1"/>
<path class="atom-0" d="M 1171.41 297.874 Q 1171.41 292.752, 1173.94 289.89 Q 1176.47 287.028, 1181.2 287.028 Q 1185.93 287.028, 1188.46 289.89 Q 1190.99 292.752, 1190.99 297.874 Q 1190.99 303.056, 1188.43 306.008 Q 1185.87 308.931, 1181.2 308.931 Q 1176.5 308.931, 1173.94 306.008 Q 1171.41 303.086, 1171.41 297.874 M 1181.2 306.52 Q 1184.45 306.52, 1186.2 304.351 Q 1187.98 302.152, 1187.98 297.874 Q 1187.98 293.686, 1186.2 291.577 Q 1184.45 289.438, 1181.2 289.438 Q 1177.95 289.438, 1176.17 291.547 Q 1174.42 293.656, 1174.42 297.874 Q 1174.42 302.182, 1176.17 304.351 Q 1177.95 306.52, 1181.2 306.52 " fill="#FF0000"/>
<path class="atom-0" d="M 1193.55 287.269 L 1196.44 287.269 L 1196.44 296.337 L 1207.35 296.337 L 1207.35 287.269 L 1210.24 287.269 L 1210.24 308.599 L 1207.35 308.599 L 1207.35 298.748 L 1196.44 298.748 L 1196.44 308.599 L 1193.55 308.599 L 1193.55 287.269 " fill="#FF0000"/>
<path class="atom-3" d="M 1106.18 184.898 Q 1106.18 179.776, 1108.71 176.914 Q 1111.24 174.052, 1115.97 174.052 Q 1120.7 174.052, 1123.23 176.914 Q 1125.76 179.776, 1125.76 184.898 Q 1125.76 190.08, 1123.2 193.032 Q 1120.64 195.954, 1115.97 195.954 Q 1111.27 195.954, 1108.71 193.032 Q 1106.18 190.11, 1106.18 184.898 M 1115.97 193.544 Q 1119.23 193.544, 1120.97 191.375 Q 1122.75 189.176, 1122.75 184.898 Q 1122.75 180.71, 1120.97 178.601 Q 1119.23 176.462, 1115.97 176.462 Q 1112.72 176.462, 1110.94 178.571 Q 1109.19 180.68, 1109.19 184.898 Q 1109.19 189.206, 1110.94 191.375 Q 1112.72 193.544, 1115.97 193.544 " fill="#FF0000"/>
<path class="atom-4" d="M 1863.34 422.022 Q 1863.34 416.901, 1865.87 414.039 Q 1868.4 411.177, 1873.13 411.177 Q 1877.86 411.177, 1880.39 414.039 Q 1882.92 416.901, 1882.92 422.022 Q 1882.92 427.204, 1880.36 430.157 Q 1877.8 433.079, 1873.13 433.079 Q 1868.43 433.079, 1865.87 430.157 Q 1863.34 427.234, 1863.34 422.022 M 1873.13 430.669 Q 1876.38 430.669, 1878.13 428.5 Q 1879.91 426.3, 1879.91 422.022 Q 1879.91 417.835, 1878.13 415.726 Q 1876.38 413.587, 1873.13 413.587 Q 1869.88 413.587, 1868.1 415.696 Q 1866.35 417.805, 1866.35 422.022 Q 1866.35 426.331, 1868.1 428.5 Q 1869.88 430.669, 1873.13 430.669 " fill="#FF0000"/>
<path class="atom-4" d="M 1885.48 411.418 L 1888.37 411.418 L 1888.37 420.486 L 1899.28 420.486 L 1899.28 411.418 L 1902.17 411.418 L 1902.17 432.748 L 1899.28 432.748 L 1899.28 422.896 L 1888.37 422.896 L 1888.37 432.748 L 1885.48 432.748 L 1885.48 411.418 " fill="#FF0000"/>
<path class="atom-8" d="M 1629.66 305.972 Q 1629.66 300.851, 1632.19 297.989 Q 1634.72 295.127, 1639.45 295.127 Q 1644.18 295.127, 1646.71 297.989 Q 1649.24 300.851, 1649.24 305.972 Q 1649.24 311.154, 1646.68 314.107 Q 1644.12 317.029, 1639.45 317.029 Q 1634.75 317.029, 1632.19 314.107 Q 1629.66 311.184, 1629.66 305.972 M 1639.45 314.619 Q 1642.71 314.619, 1644.45 312.45 Q 1646.23 310.25, 1646.23 305.972 Q 1646.23 301.785, 1644.45 299.676 Q 1642.71 297.537, 1639.45 297.537 Q 1636.2 297.537, 1634.42 299.646 Q 1632.67 301.755, 1632.67 305.972 Q 1632.67 310.281, 1634.42 312.45 Q 1636.2 314.619, 1639.45 314.619 " fill="#FF0000"/>
<path class="atom-19" d="M 1922.17 156.912 Q 1922.17 151.79, 1924.7 148.928 Q 1927.23 146.066, 1931.96 146.066 Q 1936.69 146.066, 1939.22 148.928 Q 1941.75 151.79, 1941.75 156.912 Q 1941.75 162.093, 1939.19 165.046 Q 1936.63 167.968, 1931.96 167.968 Q 1927.26 167.968, 1924.7 165.046 Q 1922.17 162.123, 1922.17 156.912 M 1931.96 165.558 Q 1935.22 165.558, 1936.96 163.389 Q 1938.74 161.19, 1938.74 156.912 Q 1938.74 152.724, 1936.96 150.615 Q 1935.22 148.476, 1931.96 148.476 Q 1928.71 148.476, 1926.93 150.585 Q 1925.18 152.694, 1925.18 156.912 Q 1925.18 161.22, 1926.93 163.389 Q 1928.71 165.558, 1931.96 165.558 " fill="#FF0000"/>
<path class="atom-20" d="M 1787.14 88.2818 L 1790.03 88.2818 L 1790.03 97.35 L 1800.93 97.35 L 1800.93 88.2818 L 1803.83 88.2818 L 1803.83 109.612 L 1800.93 109.612 L 1800.93 99.7602 L 1790.03 99.7602 L 1790.03 109.612 L 1787.14 109.612 L 1787.14 88.2818 " fill="#FF0000"/>
<path class="atom-20" d="M 1805.33 98.8865 Q 1805.33 93.7649, 1807.86 90.9028 Q 1810.39 88.0408, 1815.12 88.0408 Q 1819.85 88.0408, 1822.38 90.9028 Q 1824.92 93.7649, 1824.92 98.8865 Q 1824.92 104.068, 1822.35 107.021 Q 1819.79 109.943, 1815.12 109.943 Q 1810.42 109.943, 1807.86 107.021 Q 1805.33 104.098, 1805.33 98.8865 M 1815.12 107.533 Q 1818.38 107.533, 1820.13 105.364 Q 1821.9 103.164, 1821.9 98.8865 Q 1821.9 94.6988, 1820.13 92.5899 Q 1818.38 90.4509, 1815.12 90.4509 Q 1811.87 90.4509, 1810.09 92.5598 Q 1808.35 94.6687, 1808.35 98.8865 Q 1808.35 103.195, 1810.09 105.364 Q 1811.87 107.533, 1815.12 107.533 " fill="#FF0000"/>
<path class="atom-24" d="M 2811.87 435.095 Q 2811.87 429.973, 2814.4 427.111 Q 2816.93 424.249, 2821.66 424.249 Q 2826.39 424.249, 2828.92 427.111 Q 2831.45 429.973, 2831.45 435.095 Q 2831.45 440.276, 2828.89 443.229 Q 2826.33 446.151, 2821.66 446.151 Q 2816.96 446.151, 2814.4 443.229 Q 2811.87 440.307, 2811.87 435.095 M 2821.66 443.741 Q 2824.92 443.741, 2826.66 441.572 Q 2828.44 439.373, 2828.44 435.095 Q 2828.44 430.907, 2826.66 428.798 Q 2824.92 426.659, 2821.66 426.659 Q 2818.41 426.659, 2816.63 428.768 Q 2814.88 430.877, 2814.88 435.095 Q 2814.88 439.403, 2816.63 441.572 Q 2818.41 443.741, 2821.66 443.741 " fill="#FF0000"/>
<path class="atom-25" d="M 2899.2 338.184 Q 2899.2 333.063, 2901.73 330.201 Q 2904.26 327.339, 2908.99 327.339 Q 2913.72 327.339, 2916.25 330.201 Q 2918.78 333.063, 2918.78 338.184 Q 2918.78 343.366, 2916.22 346.319 Q 2913.66 349.241, 2908.99 349.241 Q 2904.29 349.241, 2901.73 346.319 Q 2899.2 343.396, 2899.2 338.184 M 2908.99 346.831 Q 2912.25 346.831, 2913.99 344.662 Q 2915.77 342.462, 2915.77 338.184 Q 2915.77 333.997, 2913.99 331.888 Q 2912.25 329.749, 2908.99 329.749 Q 2905.74 329.749, 2903.96 331.858 Q 2902.21 333.967, 2902.21 338.184 Q 2902.21 342.493, 2903.96 344.662 Q 2905.74 346.831, 2908.99 346.831 " fill="#FF0000"/>
<path class="atom-29" d="M 2644.02 283.835 Q 2644.02 278.713, 2646.55 275.851 Q 2649.08 272.989, 2653.81 272.989 Q 2658.54 272.989, 2661.07 275.851 Q 2663.6 278.713, 2663.6 283.835 Q 2663.6 289.016, 2661.04 291.969 Q 2658.48 294.891, 2653.81 294.891 Q 2649.11 294.891, 2646.55 291.969 Q 2644.02 289.047, 2644.02 283.835 M 2653.81 292.481 Q 2657.06 292.481, 2658.81 290.312 Q 2660.59 288.113, 2660.59 283.835 Q 2660.59 279.647, 2658.81 277.538 Q 2657.06 275.399, 2653.81 275.399 Q 2650.56 275.399, 2648.78 277.508 Q 2647.03 279.617, 2647.03 283.835 Q 2647.03 288.143, 2648.78 290.312 Q 2650.56 292.481, 2653.81 292.481 " fill="#FF0000"/>
<path class="atom-40" d="M 2890.32 66.7691 Q 2890.32 61.6475, 2892.85 58.7854 Q 2895.38 55.9234, 2900.11 55.9234 Q 2904.84 55.9234, 2907.37 58.7854 Q 2909.9 61.6475, 2909.9 66.7691 Q 2909.9 71.9509, 2907.34 74.9033 Q 2904.78 77.8257, 2900.11 77.8257 Q 2895.41 77.8257, 2892.85 74.9033 Q 2890.32 71.981, 2890.32 66.7691 M 2900.11 75.4155 Q 2903.36 75.4155, 2905.11 73.2464 Q 2906.89 71.0471, 2906.89 66.7691 Q 2906.89 62.5814, 2905.11 60.4725 Q 2903.36 58.3335, 2900.11 58.3335 Q 2896.86 58.3335, 2895.08 60.4424 Q 2893.33 62.5513, 2893.33 66.7691 Q 2893.33 71.0772, 2895.08 73.2464 Q 2896.86 75.4155, 2900.11 75.4155 " fill="#FF0000"/>
<path class="atom-41" d="M 2744.53 28.9895 L 2747.42 28.9895 L 2747.42 38.0577 L 2758.33 38.0577 L 2758.33 28.9895 L 2761.22 28.9895 L 2761.22 50.3194 L 2758.33 50.3194 L 2758.33 40.4679 L 2747.42 40.4679 L 2747.42 50.3194 L 2744.53 50.3194 L 2744.53 28.9895 " fill="#FF0000"/>
<path class="atom-41" d="M 2762.73 39.5942 Q 2762.73 34.4726, 2765.26 31.6106 Q 2767.79 28.7485, 2772.52 28.7485 Q 2777.25 28.7485, 2779.78 31.6106 Q 2782.31 34.4726, 2782.31 39.5942 Q 2782.31 44.776, 2779.75 47.7285 Q 2777.19 50.6508, 2772.52 50.6508 Q 2767.82 50.6508, 2765.26 47.7285 Q 2762.73 44.8062, 2762.73 39.5942 M 2772.52 48.2406 Q 2775.77 48.2406, 2777.52 46.0715 Q 2779.3 43.8722, 2779.3 39.5942 Q 2779.3 35.4065, 2777.52 33.2977 Q 2775.77 31.1586, 2772.52 31.1586 Q 2769.26 31.1586, 2767.49 33.2675 Q 2765.74 35.3764, 2765.74 39.5942 Q 2765.74 43.9023, 2767.49 46.0715 Q 2769.26 48.2406, 2772.52 48.2406 " fill="#FF0000"/>
<path class="atom-45" d="M 2107.74 164.322 Q 2107.74 159.201, 2110.27 156.339 Q 2112.8 153.477, 2117.53 153.477 Q 2122.26 153.477, 2124.79 156.339 Q 2127.32 159.201, 2127.32 164.322 Q 2127.32 169.504, 2124.76 172.457 Q 2122.2 175.379, 2117.53 175.379 Q 2112.83 175.379, 2110.27 172.457 Q 2107.74 169.534, 2107.74 164.322 M 2117.53 172.969 Q 2120.79 172.969, 2122.53 170.8 Q 2124.31 168.6, 2124.31 164.322 Q 2124.31 160.135, 2122.53 158.026 Q 2120.79 155.887, 2117.53 155.887 Q 2114.28 155.887, 2112.5 157.996 Q 2110.75 160.105, 2110.75 164.322 Q 2110.75 168.631, 2112.5 170.8 Q 2114.28 172.969, 2117.53 172.969 " fill="#FF0000"/>
<path class="atom-46" d="M 2137.09 113.483 Q 2137.09 108.362, 2139.62 105.5 Q 2142.15 102.638, 2146.88 102.638 Q 2151.61 102.638, 2154.15 105.5 Q 2156.68 108.362, 2156.68 113.483 Q 2156.68 118.665, 2154.12 121.617 Q 2151.55 124.54, 2146.88 124.54 Q 2142.18 124.54, 2139.62 121.617 Q 2137.09 118.695, 2137.09 113.483 M 2146.88 122.13 Q 2150.14 122.13, 2151.89 119.961 Q 2153.66 117.761, 2153.66 113.483 Q 2153.66 109.296, 2151.89 107.187 Q 2150.14 105.048, 2146.88 105.048 Q 2143.63 105.048, 2141.85 107.157 Q 2140.11 109.265, 2140.11 113.483 Q 2140.11 117.791, 2141.85 119.961 Q 2143.63 122.13, 2146.88 122.13 " fill="#FF0000"/>
<path class="atom-49" d="M 2166.45 164.322 Q 2166.45 159.201, 2168.98 156.339 Q 2171.51 153.477, 2176.24 153.477 Q 2180.97 153.477, 2183.5 156.339 Q 2186.03 159.201, 2186.03 164.322 Q 2186.03 169.504, 2183.47 172.457 Q 2180.91 175.379, 2176.24 175.379 Q 2171.54 175.379, 2168.98 172.457 Q 2166.45 169.534, 2166.45 164.322 M 2176.24 172.969 Q 2179.49 172.969, 2181.24 170.8 Q 2183.02 168.6, 2183.02 164.322 Q 2183.02 160.135, 2181.24 158.026 Q 2179.49 155.887, 2176.24 155.887 Q 2172.98 155.887, 2171.21 157.996 Q 2169.46 160.105, 2169.46 164.322 Q 2169.46 168.631, 2171.21 170.8 Q 2172.98 172.969, 2176.24 172.969 " fill="#FF0000"/>
<path class="note" d="M 1112.41 269.454 Q 1112.8 268.445, 1113.74 267.888 Q 1114.67 267.315, 1115.97 267.315 Q 1117.58 267.315, 1118.48 268.189 Q 1119.38 269.063, 1119.38 270.614 Q 1119.38 272.196, 1118.21 273.672 Q 1117.05 275.148, 1114.64 276.896 L 1119.57 276.896 L 1119.57 278.101 L 1112.38 278.101 L 1112.38 277.091 Q 1114.37 275.675, 1115.54 274.621 Q 1116.73 273.567, 1117.31 272.618 Q 1117.88 271.669, 1117.88 270.689 Q 1117.88 269.665, 1117.37 269.093 Q 1116.85 268.52, 1115.97 268.52 Q 1115.11 268.52, 1114.53 268.867 Q 1113.96 269.213, 1113.55 269.981 L 1112.41 269.454 " fill="#000000"/>
<path class="note" d="M 1054.39 312.842 L 1056.73 312.842 L 1056.73 304.874 L 1054.15 305.672 L 1053.81 304.783 L 1057.08 303.322 L 1058.14 303.503 L 1058.14 312.842 L 1060.24 312.842 L 1060.24 314.047 L 1054.39 314.047 L 1054.39 312.842 " fill="#000000"/>
<path class="note" d="M 1117.51 159.506 Q 1118.55 159.807, 1119.05 160.485 Q 1119.56 161.148, 1119.56 162.202 Q 1119.56 163.106, 1119.11 163.814 Q 1118.65 164.507, 1117.83 164.899 Q 1117 165.275, 1115.91 165.275 Q 1114.77 165.275, 1113.91 164.884 Q 1113.07 164.477, 1112.39 163.663 L 1113.25 162.79 Q 1113.91 163.513, 1114.47 163.799 Q 1115.02 164.07, 1115.91 164.07 Q 1116.88 164.07, 1117.46 163.558 Q 1118.05 163.031, 1118.05 162.187 Q 1118.05 161.103, 1117.43 160.621 Q 1116.83 160.123, 1115.52 160.123 L 1114.75 160.123 L 1114.75 159.039 L 1115.43 159.039 Q 1116.59 159.024, 1117.21 158.527 Q 1117.83 158.015, 1117.83 157.066 Q 1117.83 156.373, 1117.31 155.966 Q 1116.8 155.544, 1115.93 155.544 Q 1115.04 155.544, 1114.48 155.861 Q 1113.94 156.177, 1113.52 156.975 L 1112.48 156.418 Q 1112.85 155.529, 1113.76 154.942 Q 1114.66 154.339, 1115.93 154.339 Q 1117.49 154.339, 1118.41 155.077 Q 1119.33 155.815, 1119.33 157.066 Q 1119.33 157.924, 1118.86 158.542 Q 1118.4 159.159, 1117.51 159.506 " fill="#000000"/>
<path class="note" d="M 1889.84 444.548 L 1891.12 444.548 L 1891.12 445.753 L 1889.84 445.753 L 1889.84 448.208 L 1888.43 448.208 L 1888.43 445.753 L 1882.91 445.753 L 1882.91 444.804 L 1887.58 437.543 L 1889.84 437.543 L 1889.84 444.548 M 1884.66 444.548 L 1888.43 444.548 L 1888.43 438.507 L 1884.66 444.548 " fill="#000000"/>
<path class="note" d="M 1826.14 369.123 Q 1827.07 369.123, 1827.84 369.53 Q 1828.61 369.922, 1829.05 370.675 Q 1829.48 371.413, 1829.48 372.422 Q 1829.48 373.522, 1828.94 374.32 Q 1828.41 375.104, 1827.54 375.51 Q 1826.67 375.917, 1825.67 375.917 Q 1824.69 375.917, 1823.79 375.556 Q 1822.89 375.194, 1822.27 374.501 L 1823.17 373.567 Q 1823.67 374.109, 1824.35 374.411 Q 1825.03 374.697, 1825.72 374.697 Q 1826.67 374.697, 1827.32 374.109 Q 1827.98 373.522, 1827.98 372.452 Q 1827.98 371.323, 1827.32 370.795 Q 1826.67 370.253, 1825.63 370.253 Q 1824.69 370.253, 1823.65 370.66 L 1822.83 370.268 L 1823.34 365.132 L 1828.82 365.132 L 1828.67 366.337 L 1824.57 366.337 L 1824.26 369.5 Q 1825.21 369.123, 1826.14 369.123 " fill="#000000"/>
<path class="note" d="M 1751.18 373.915 Q 1752.12 373.915, 1752.85 374.321 Q 1753.59 374.728, 1754 375.466 Q 1754.41 376.204, 1754.41 377.138 Q 1754.41 378.178, 1753.94 378.991 Q 1753.49 379.789, 1752.67 380.241 Q 1751.86 380.693, 1750.82 380.693 Q 1748.92 380.693, 1747.96 379.413 Q 1747.01 378.117, 1747.01 375.557 Q 1747.01 372.725, 1748.18 371.263 Q 1749.37 369.787, 1751.65 369.787 Q 1752.31 369.787, 1752.87 369.938 Q 1753.44 370.088, 1753.98 370.405 L 1753.4 371.414 Q 1752.61 370.992, 1751.66 370.992 Q 1750.16 370.992, 1749.39 371.971 Q 1748.62 372.935, 1748.53 374.939 Q 1749.07 374.442, 1749.75 374.186 Q 1750.44 373.915, 1751.18 373.915 M 1750.84 379.458 Q 1751.41 379.458, 1751.87 379.157 Q 1752.36 378.855, 1752.63 378.328 Q 1752.9 377.801, 1752.9 377.153 Q 1752.9 376.204, 1752.37 375.662 Q 1751.84 375.12, 1750.91 375.12 Q 1750.26 375.12, 1749.61 375.391 Q 1748.98 375.647, 1748.53 376.099 Q 1748.59 377.861, 1749.15 378.66 Q 1749.71 379.458, 1750.84 379.458 " fill="#000000"/>
<path class="note" d="M 1711.09 308.312 L 1705.5 308.312 L 1705.5 307.107 L 1712.58 307.107 L 1712.58 308.176 L 1708.27 317.772 L 1706.82 317.772 L 1711.09 308.312 " fill="#000000"/>
<path class="note" d="M 1629.96 328.142 Q 1630.94 328.563, 1631.49 329.196 Q 1632.05 329.814, 1632.05 330.868 Q 1632.05 331.772, 1631.58 332.48 Q 1631.12 333.173, 1630.27 333.564 Q 1629.45 333.941, 1628.35 333.941 Q 1626.57 333.941, 1625.54 333.128 Q 1624.52 332.299, 1624.52 330.868 Q 1624.52 329.994, 1624.97 329.347 Q 1625.42 328.684, 1626.36 328.187 Q 1625.66 327.795, 1625.29 327.223 Q 1624.91 326.635, 1624.91 325.731 Q 1624.91 324.481, 1625.81 323.743 Q 1626.73 323.005, 1628.29 323.005 Q 1629.84 323.005, 1630.74 323.743 Q 1631.66 324.481, 1631.66 325.731 Q 1631.66 326.515, 1631.22 327.102 Q 1630.8 327.675, 1629.96 328.142 M 1628.29 324.135 Q 1627.4 324.135, 1626.9 324.556 Q 1626.42 324.978, 1626.42 325.731 Q 1626.42 326.289, 1626.75 326.665 Q 1627.08 327.027, 1627.55 327.238 Q 1628.03 327.449, 1628.95 327.765 Q 1629.6 327.313, 1629.87 326.831 Q 1630.15 326.349, 1630.15 325.731 Q 1630.15 324.978, 1629.66 324.556 Q 1629.17 324.135, 1628.29 324.135 M 1628.35 332.811 Q 1629.34 332.811, 1629.94 332.284 Q 1630.54 331.742, 1630.54 330.853 Q 1630.54 330.281, 1630.23 329.919 Q 1629.91 329.558, 1629.43 329.347 Q 1628.96 329.136, 1628.12 328.865 L 1627.44 328.639 Q 1626.69 329.091, 1626.36 329.633 Q 1626.03 330.16, 1626.03 330.853 Q 1626.03 331.742, 1626.66 332.284 Q 1627.29 332.811, 1628.35 332.811 " fill="#000000"/>
<path class="note" d="M 1603.25 226.536 Q 1605.15 226.536, 1606.1 227.831 Q 1607.06 229.112, 1607.06 231.672 Q 1607.06 234.504, 1605.87 235.981 Q 1604.7 237.442, 1602.43 237.442 Q 1601.76 237.442, 1601.19 237.291 Q 1600.63 237.14, 1600.09 236.824 L 1600.68 235.815 Q 1601.46 236.237, 1602.41 236.237 Q 1603.92 236.237, 1604.68 235.273 Q 1605.45 234.293, 1605.54 232.29 Q 1605 232.787, 1604.31 233.058 Q 1603.63 233.314, 1602.89 233.314 Q 1601.96 233.314, 1601.22 232.908 Q 1600.48 232.501, 1600.08 231.763 Q 1599.67 231.025, 1599.67 230.091 Q 1599.67 229.051, 1600.12 228.253 Q 1600.59 227.44, 1601.4 226.988 Q 1602.21 226.536, 1603.25 226.536 M 1601.18 230.076 Q 1601.18 231.025, 1601.7 231.567 Q 1602.23 232.109, 1603.16 232.109 Q 1603.81 232.109, 1604.44 231.853 Q 1605.09 231.582, 1605.54 231.13 Q 1605.48 229.368, 1604.93 228.569 Q 1604.37 227.771, 1603.24 227.771 Q 1602.67 227.771, 1602.18 228.072 Q 1601.72 228.373, 1601.45 228.901 Q 1601.18 229.428, 1601.18 230.076 " fill="#000000"/>
<path class="note" d="M 1523.58 229.589 L 1525.91 229.589 L 1525.91 221.621 L 1523.33 222.419 L 1522.99 221.53 L 1526.26 220.069 L 1527.33 220.25 L 1527.33 229.589 L 1529.42 229.589 L 1529.42 230.794 L 1523.58 230.794 L 1523.58 229.589 " fill="#000000"/>
<path class="note" d="M 1534.24 230.915 Q 1532.28 230.915, 1531.3 229.469 Q 1530.34 228.023, 1530.34 225.447 Q 1530.34 222.871, 1531.3 221.44 Q 1532.27 220.009, 1534.24 220.009 Q 1536.21 220.009, 1537.18 221.44 Q 1538.14 222.871, 1538.14 225.447 Q 1538.14 228.023, 1537.16 229.469 Q 1536.2 230.915, 1534.24 230.915 M 1534.24 229.71 Q 1535.4 229.71, 1536.02 228.64 Q 1536.64 227.556, 1536.64 225.447 Q 1536.64 223.353, 1536.02 222.283 Q 1535.4 221.214, 1534.24 221.214 Q 1533.1 221.214, 1532.46 222.283 Q 1531.84 223.353, 1531.84 225.447 Q 1531.84 227.556, 1532.46 228.64 Q 1533.1 229.71, 1534.24 229.71 " fill="#000000"/>
<path class="note" d="M 1477.06 178.061 L 1479.4 178.061 L 1479.4 170.092 L 1476.82 170.891 L 1476.47 170.002 L 1479.74 168.541 L 1480.81 168.722 L 1480.81 178.061 L 1482.91 178.061 L 1482.91 179.266 L 1477.06 179.266 L 1477.06 178.061 " fill="#000000"/>
<path class="note" d="M 1484.31 178.061 L 1486.64 178.061 L 1486.64 170.092 L 1484.07 170.891 L 1483.72 170.002 L 1486.99 168.541 L 1488.06 168.722 L 1488.06 178.061 L 1490.15 178.061 L 1490.15 179.266 L 1484.31 179.266 L 1484.31 178.061 " fill="#000000"/>
<path class="note" d="M 1389.02 183.593 L 1391.35 183.593 L 1391.35 175.624 L 1388.78 176.423 L 1388.43 175.534 L 1391.7 174.073 L 1392.77 174.253 L 1392.77 183.593 L 1394.86 183.593 L 1394.86 184.798 L 1389.02 184.798 L 1389.02 183.593 " fill="#000000"/>
<path class="note" d="M 1395.64 176.151 Q 1396.04 175.142, 1396.97 174.585 Q 1397.9 174.012, 1399.2 174.012 Q 1400.81 174.012, 1401.72 174.886 Q 1402.62 175.76, 1402.62 177.311 Q 1402.62 178.893, 1401.44 180.369 Q 1400.28 181.845, 1397.87 183.593 L 1402.8 183.593 L 1402.8 184.798 L 1395.61 184.798 L 1395.61 183.789 Q 1397.6 182.373, 1398.78 181.318 Q 1399.97 180.264, 1400.54 179.315 Q 1401.11 178.366, 1401.11 177.387 Q 1401.11 176.362, 1400.6 175.79 Q 1400.09 175.218, 1399.2 175.218 Q 1398.34 175.218, 1397.77 175.564 Q 1397.2 175.91, 1396.79 176.679 L 1395.64 176.151 " fill="#000000"/>
<path class="note" d="M 1350 262.292 L 1352.34 262.292 L 1352.34 254.324 L 1349.76 255.122 L 1349.41 254.233 L 1352.68 252.772 L 1353.75 252.953 L 1353.75 262.292 L 1355.84 262.292 L 1355.84 263.497 L 1350 263.497 L 1350 262.292 " fill="#000000"/>
<path class="note" d="M 1361.6 257.879 Q 1362.64 258.18, 1363.14 258.858 Q 1363.65 259.521, 1363.65 260.575 Q 1363.65 261.479, 1363.2 262.187 Q 1362.74 262.88, 1361.92 263.271 Q 1361.09 263.648, 1360 263.648 Q 1358.86 263.648, 1358 263.256 Q 1357.16 262.85, 1356.48 262.036 L 1357.34 261.163 Q 1358 261.886, 1358.56 262.172 Q 1359.11 262.443, 1360 262.443 Q 1360.97 262.443, 1361.55 261.931 Q 1362.14 261.404, 1362.14 260.56 Q 1362.14 259.475, 1361.52 258.993 Q 1360.92 258.496, 1359.61 258.496 L 1358.84 258.496 L 1358.84 257.412 L 1359.52 257.412 Q 1360.68 257.397, 1361.3 256.9 Q 1361.92 256.387, 1361.92 255.438 Q 1361.92 254.746, 1361.4 254.339 Q 1360.89 253.917, 1360.02 253.917 Q 1359.13 253.917, 1358.57 254.233 Q 1358.03 254.55, 1357.61 255.348 L 1356.57 254.791 Q 1356.94 253.902, 1357.85 253.314 Q 1358.75 252.712, 1360.02 252.712 Q 1361.58 252.712, 1362.5 253.45 Q 1363.42 254.188, 1363.42 255.438 Q 1363.42 256.297, 1362.95 256.915 Q 1362.49 257.532, 1361.6 257.879 " fill="#000000"/>
<path class="note" d="M 1398.18 335.46 L 1400.52 335.46 L 1400.52 327.491 L 1397.94 328.29 L 1397.6 327.401 L 1400.87 325.94 L 1401.94 326.121 L 1401.94 335.46 L 1404.03 335.46 L 1404.03 336.665 L 1398.18 336.665 L 1398.18 335.46 " fill="#000000"/>
<path class="note" d="M 1411.41 333.005 L 1412.69 333.005 L 1412.69 334.21 L 1411.41 334.21 L 1411.41 336.665 L 1409.99 336.665 L 1409.99 334.21 L 1404.48 334.21 L 1404.48 333.261 L 1409.15 326 L 1411.41 326 L 1411.41 333.005 M 1406.23 333.005 L 1409.99 333.005 L 1409.99 326.964 L 1406.23 333.005 " fill="#000000"/>
<path class="note" d="M 1486.26 329.958 L 1488.59 329.958 L 1488.59 321.989 L 1486.02 322.788 L 1485.67 321.899 L 1488.94 320.438 L 1490.01 320.619 L 1490.01 329.958 L 1492.1 329.958 L 1492.1 331.163 L 1486.26 331.163 L 1486.26 329.958 " fill="#000000"/>
<path class="note" d="M 1496.67 324.49 Q 1497.6 324.49, 1498.37 324.897 Q 1499.14 325.288, 1499.58 326.042 Q 1500.01 326.78, 1500.01 327.789 Q 1500.01 328.889, 1499.47 329.687 Q 1498.94 330.47, 1498.07 330.877 Q 1497.2 331.284, 1496.2 331.284 Q 1495.22 331.284, 1494.32 330.922 Q 1493.41 330.561, 1492.8 329.868 L 1493.7 328.934 Q 1494.2 329.476, 1494.88 329.777 Q 1495.55 330.064, 1496.25 330.064 Q 1497.2 330.064, 1497.84 329.476 Q 1498.51 328.889, 1498.51 327.819 Q 1498.51 326.689, 1497.84 326.162 Q 1497.2 325.62, 1496.16 325.62 Q 1495.22 325.62, 1494.18 326.027 L 1493.35 325.635 L 1493.87 320.498 L 1499.35 320.498 L 1499.2 321.703 L 1495.1 321.703 L 1494.78 324.867 Q 1495.73 324.49, 1496.67 324.49 " fill="#000000"/>
<path class="note" d="M 1731.12 227.47 L 1733.46 227.47 L 1733.46 219.502 L 1730.88 220.3 L 1730.54 219.411 L 1733.8 217.95 L 1734.87 218.131 L 1734.87 227.47 L 1736.97 227.47 L 1736.97 228.676 L 1731.12 228.676 L 1731.12 227.47 " fill="#000000"/>
<path class="note" d="M 1742.16 222.017 Q 1743.1 222.017, 1743.84 222.424 Q 1744.57 222.831, 1744.98 223.569 Q 1745.39 224.307, 1745.39 225.241 Q 1745.39 226.28, 1744.92 227.094 Q 1744.47 227.892, 1743.66 228.344 Q 1742.84 228.796, 1741.8 228.796 Q 1739.9 228.796, 1738.94 227.516 Q 1737.99 226.22, 1737.99 223.659 Q 1737.99 220.827, 1739.17 219.366 Q 1740.36 217.89, 1742.63 217.89 Q 1743.29 217.89, 1743.85 218.041 Q 1744.42 218.191, 1744.97 218.508 L 1744.38 219.517 Q 1743.6 219.095, 1742.65 219.095 Q 1741.14 219.095, 1740.37 220.074 Q 1739.6 221.038, 1739.51 223.042 Q 1740.06 222.545, 1740.73 222.289 Q 1741.43 222.017, 1742.16 222.017 M 1741.82 227.561 Q 1742.39 227.561, 1742.86 227.26 Q 1743.34 226.958, 1743.61 226.431 Q 1743.88 225.904, 1743.88 225.256 Q 1743.88 224.307, 1743.35 223.765 Q 1742.83 223.223, 1741.89 223.223 Q 1741.25 223.223, 1740.6 223.494 Q 1739.97 223.75, 1739.51 224.202 Q 1739.57 225.964, 1740.13 226.762 Q 1740.69 227.561, 1741.82 227.561 " fill="#000000"/>
<path class="note" d="M 1806.83 222.724 L 1809.16 222.724 L 1809.16 214.756 L 1806.59 215.554 L 1806.24 214.666 L 1809.51 213.204 L 1810.58 213.385 L 1810.58 222.724 L 1812.67 222.724 L 1812.67 223.93 L 1806.83 223.93 L 1806.83 222.724 " fill="#000000"/>
<path class="note" d="M 1818.53 214.47 L 1812.94 214.47 L 1812.94 213.265 L 1820.02 213.265 L 1820.02 214.334 L 1815.71 223.93 L 1814.27 223.93 L 1818.53 214.47 " fill="#000000"/>
<path class="note" d="M 1834.19 166.541 L 1836.52 166.541 L 1836.52 158.572 L 1833.95 159.37 L 1833.6 158.482 L 1836.87 157.021 L 1837.94 157.201 L 1837.94 166.541 L 1840.03 166.541 L 1840.03 167.746 L 1834.19 167.746 L 1834.19 166.541 " fill="#000000"/>
<path class="note" d="M 1846.4 162.097 Q 1847.38 162.519, 1847.94 163.151 Q 1848.5 163.769, 1848.5 164.823 Q 1848.5 165.727, 1848.03 166.435 Q 1847.56 167.128, 1846.72 167.52 Q 1845.89 167.896, 1844.79 167.896 Q 1843.01 167.896, 1841.99 167.083 Q 1840.97 166.254, 1840.97 164.823 Q 1840.97 163.95, 1841.42 163.302 Q 1841.87 162.639, 1842.8 162.142 Q 1842.11 161.751, 1841.73 161.178 Q 1841.36 160.591, 1841.36 159.687 Q 1841.36 158.437, 1842.26 157.698 Q 1843.18 156.96, 1844.73 156.96 Q 1846.28 156.96, 1847.19 157.698 Q 1848.11 158.437, 1848.11 159.687 Q 1848.11 160.47, 1847.67 161.058 Q 1847.25 161.63, 1846.4 162.097 M 1844.73 158.09 Q 1843.84 158.09, 1843.35 158.512 Q 1842.86 158.934, 1842.86 159.687 Q 1842.86 160.244, 1843.2 160.621 Q 1843.53 160.982, 1843.99 161.193 Q 1844.48 161.404, 1845.39 161.72 Q 1846.04 161.268, 1846.31 160.786 Q 1846.6 160.304, 1846.6 159.687 Q 1846.6 158.934, 1846.1 158.512 Q 1845.62 158.09, 1844.73 158.09 M 1844.79 166.767 Q 1845.79 166.767, 1846.39 166.239 Q 1846.99 165.697, 1846.99 164.808 Q 1846.99 164.236, 1846.67 163.874 Q 1846.36 163.513, 1845.88 163.302 Q 1845.41 163.091, 1844.57 162.82 L 1843.89 162.594 Q 1843.13 163.046, 1842.8 163.588 Q 1842.47 164.115, 1842.47 164.808 Q 1842.47 165.697, 1843.1 166.239 Q 1843.74 166.767, 1844.79 166.767 " fill="#000000"/>
<path class="note" d="M 1947.06 159.467 L 1949.4 159.467 L 1949.4 151.498 L 1946.82 152.297 L 1946.47 151.408 L 1949.74 149.947 L 1950.81 150.128 L 1950.81 159.467 L 1952.91 159.467 L 1952.91 160.672 L 1947.06 160.672 L 1947.06 159.467 " fill="#000000"/>
<path class="note" d="M 1957.32 149.887 Q 1959.22 149.887, 1960.17 151.182 Q 1961.13 152.462, 1961.13 155.023 Q 1961.13 157.855, 1959.94 159.331 Q 1958.77 160.793, 1956.49 160.793 Q 1955.83 160.793, 1955.26 160.642 Q 1954.7 160.491, 1954.16 160.175 L 1954.74 159.166 Q 1955.53 159.587, 1956.48 159.587 Q 1957.98 159.587, 1958.75 158.623 Q 1959.52 157.644, 1959.61 155.641 Q 1959.07 156.138, 1958.37 156.409 Q 1957.7 156.665, 1956.96 156.665 Q 1956.02 156.665, 1955.29 156.258 Q 1954.55 155.852, 1954.14 155.114 Q 1953.74 154.376, 1953.74 153.442 Q 1953.74 152.402, 1954.19 151.604 Q 1954.65 150.79, 1955.47 150.338 Q 1956.28 149.887, 1957.32 149.887 M 1955.24 153.427 Q 1955.24 154.376, 1955.77 154.918 Q 1956.3 155.46, 1957.23 155.46 Q 1957.88 155.46, 1958.51 155.204 Q 1959.16 154.933, 1959.61 154.481 Q 1959.55 152.719, 1958.99 151.92 Q 1958.43 151.122, 1957.31 151.122 Q 1956.73 151.122, 1956.25 151.423 Q 1955.78 151.724, 1955.51 152.252 Q 1955.24 152.779, 1955.24 153.427 " fill="#000000"/>
<path class="note" d="M 1789.72 74.6589 Q 1790.11 73.6496, 1791.04 73.0923 Q 1791.98 72.5199, 1793.27 72.5199 Q 1794.89 72.5199, 1795.79 73.3936 Q 1796.69 74.2672, 1796.69 75.8188 Q 1796.69 77.4004, 1795.52 78.8767 Q 1794.36 80.3529, 1791.95 82.1002 L 1796.87 82.1002 L 1796.87 83.3053 L 1789.69 83.3053 L 1789.69 82.2961 Q 1791.68 80.8801, 1792.85 79.8257 Q 1794.04 78.7712, 1794.61 77.8222 Q 1795.19 76.8732, 1795.19 75.8941 Q 1795.19 74.8698, 1794.67 74.2974 Q 1794.16 73.7249, 1793.27 73.7249 Q 1792.41 73.7249, 1791.84 74.0714 Q 1791.27 74.4179, 1790.86 75.1861 L 1789.72 74.6589 " fill="#000000"/>
<path class="note" d="M 1801.69 83.4258 Q 1799.74 83.4258, 1798.76 81.9797 Q 1797.79 80.5336, 1797.79 77.9578 Q 1797.79 75.3819, 1798.76 73.9509 Q 1799.72 72.5199, 1801.69 72.5199 Q 1803.67 72.5199, 1804.63 73.9509 Q 1805.6 75.3819, 1805.6 77.9578 Q 1805.6 80.5336, 1804.62 81.9797 Q 1803.65 83.4258, 1801.69 83.4258 M 1801.69 82.2207 Q 1802.85 82.2207, 1803.47 81.1512 Q 1804.09 80.0667, 1804.09 77.9578 Q 1804.09 75.864, 1803.47 74.7945 Q 1802.85 73.7249, 1801.69 73.7249 Q 1800.55 73.7249, 1799.92 74.7945 Q 1799.3 75.864, 1799.3 77.9578 Q 1799.3 80.0667, 1799.92 81.1512 Q 1800.55 82.2207, 1801.69 82.2207 " fill="#000000"/>
<path class="note" d="M 1879.24 286.939 Q 1879.63 285.93, 1880.57 285.372 Q 1881.5 284.8, 1882.79 284.8 Q 1884.41 284.8, 1885.31 285.674 Q 1886.21 286.547, 1886.21 288.099 Q 1886.21 289.681, 1885.04 291.157 Q 1883.88 292.633, 1881.47 294.38 L 1886.39 294.38 L 1886.39 295.585 L 1879.21 295.585 L 1879.21 294.576 Q 1881.2 293.16, 1882.37 292.106 Q 1883.56 291.051, 1884.14 290.102 Q 1884.71 289.153, 1884.71 288.174 Q 1884.71 287.15, 1884.2 286.577 Q 1883.68 286.005, 1882.79 286.005 Q 1881.94 286.005, 1881.36 286.352 Q 1880.79 286.698, 1880.38 287.466 L 1879.24 286.939 " fill="#000000"/>
<path class="note" d="M 1887.8 294.38 L 1890.13 294.38 L 1890.13 286.412 L 1887.55 287.21 L 1887.21 286.321 L 1890.48 284.86 L 1891.55 285.041 L 1891.55 294.38 L 1893.64 294.38 L 1893.64 295.585 L 1887.8 295.585 L 1887.8 294.38 " fill="#000000"/>
<path class="note" d="M 2955.03 457.042 L 2957.36 457.042 L 2957.36 449.073 L 2954.79 449.871 L 2954.44 448.983 L 2957.71 447.521 L 2958.78 447.702 L 2958.78 457.042 L 2960.87 457.042 L 2960.87 458.247 L 2955.03 458.247 L 2955.03 457.042 " fill="#000000"/>
<path class="note" d="M 2901.68 404.661 Q 2902.07 403.652, 2903.01 403.095 Q 2903.94 402.522, 2905.24 402.522 Q 2906.85 402.522, 2907.75 403.396 Q 2908.65 404.27, 2908.65 405.821 Q 2908.65 407.403, 2907.48 408.879 Q 2906.32 410.355, 2903.91 412.103 L 2908.84 412.103 L 2908.84 413.308 L 2901.65 413.308 L 2901.65 412.299 Q 2903.64 410.883, 2904.81 409.828 Q 2906 408.774, 2906.58 407.825 Q 2907.15 406.876, 2907.15 405.897 Q 2907.15 404.872, 2906.64 404.3 Q 2906.12 403.727, 2905.24 403.727 Q 2904.38 403.727, 2903.8 404.074 Q 2903.23 404.42, 2902.83 405.189 L 2901.68 404.661 " fill="#000000"/>
<path class="note" d="M 2799.32 442.557 Q 2800.36 442.858, 2800.86 443.536 Q 2801.37 444.199, 2801.37 445.253 Q 2801.37 446.157, 2800.92 446.865 Q 2800.46 447.558, 2799.64 447.95 Q 2798.81 448.326, 2797.72 448.326 Q 2796.58 448.326, 2795.72 447.934 Q 2794.88 447.528, 2794.2 446.714 L 2795.06 445.841 Q 2795.72 446.564, 2796.28 446.85 Q 2796.83 447.121, 2797.72 447.121 Q 2798.69 447.121, 2799.27 446.609 Q 2799.86 446.082, 2799.86 445.238 Q 2799.86 444.154, 2799.24 443.671 Q 2798.64 443.174, 2797.33 443.174 L 2796.56 443.174 L 2796.56 442.09 L 2797.24 442.09 Q 2798.4 442.075, 2799.02 441.578 Q 2799.64 441.066, 2799.64 440.117 Q 2799.64 439.424, 2799.12 439.017 Q 2798.61 438.595, 2797.74 438.595 Q 2796.85 438.595, 2796.29 438.911 Q 2795.75 439.228, 2795.33 440.026 L 2794.29 439.469 Q 2794.66 438.58, 2795.57 437.993 Q 2796.47 437.39, 2797.74 437.39 Q 2799.3 437.39, 2800.22 438.128 Q 2801.14 438.866, 2801.14 440.117 Q 2801.14 440.975, 2800.67 441.593 Q 2800.21 442.21, 2799.32 442.557 " fill="#000000"/>
<path class="note" d="M 2935.7 332.048 L 2936.98 332.048 L 2936.98 333.253 L 2935.7 333.253 L 2935.7 335.708 L 2934.28 335.708 L 2934.28 333.253 L 2928.77 333.253 L 2928.77 332.304 L 2933.44 325.043 L 2935.7 325.043 L 2935.7 332.048 M 2930.52 332.048 L 2934.28 332.048 L 2934.28 326.007 L 2930.52 332.048 " fill="#000000"/>
<path class="note" d="M 2850.69 298.641 Q 2851.62 298.641, 2852.39 299.048 Q 2853.16 299.439, 2853.6 300.193 Q 2854.03 300.931, 2854.03 301.94 Q 2854.03 303.04, 2853.49 303.838 Q 2852.96 304.621, 2852.09 305.028 Q 2851.22 305.435, 2850.22 305.435 Q 2849.24 305.435, 2848.34 305.073 Q 2847.44 304.712, 2846.82 304.019 L 2847.72 303.085 Q 2848.22 303.627, 2848.9 303.928 Q 2849.58 304.215, 2850.27 304.215 Q 2851.22 304.215, 2851.86 303.627 Q 2852.53 303.04, 2852.53 301.97 Q 2852.53 300.84, 2851.86 300.313 Q 2851.22 299.771, 2850.18 299.771 Q 2849.24 299.771, 2848.2 300.177 L 2847.38 299.786 L 2847.89 294.649 L 2853.37 294.649 L 2853.22 295.854 L 2849.12 295.854 L 2848.81 299.018 Q 2849.76 298.641, 2850.69 298.641 " fill="#000000"/>
<path class="note" d="M 2779.26 321.961 Q 2780.19 321.961, 2780.93 322.368 Q 2781.67 322.775, 2782.08 323.513 Q 2782.48 324.251, 2782.48 325.185 Q 2782.48 326.224, 2782.02 327.038 Q 2781.57 327.836, 2780.75 328.288 Q 2779.94 328.74, 2778.9 328.74 Q 2777 328.74, 2776.04 327.46 Q 2775.09 326.164, 2775.09 323.603 Q 2775.09 320.771, 2776.26 319.31 Q 2777.45 317.834, 2779.73 317.834 Q 2780.39 317.834, 2780.95 317.985 Q 2781.52 318.135, 2782.06 318.452 L 2781.47 319.461 Q 2780.69 319.039, 2779.74 319.039 Q 2778.24 319.039, 2777.47 320.018 Q 2776.7 320.982, 2776.61 322.986 Q 2777.15 322.489, 2777.83 322.233 Q 2778.52 321.961, 2779.26 321.961 M 2778.91 327.505 Q 2779.49 327.505, 2779.95 327.204 Q 2780.44 326.902, 2780.71 326.375 Q 2780.98 325.848, 2780.98 325.2 Q 2780.98 324.251, 2780.45 323.709 Q 2779.92 323.167, 2778.99 323.167 Q 2778.34 323.167, 2777.69 323.438 Q 2777.06 323.694, 2776.61 324.146 Q 2776.67 325.908, 2777.23 326.706 Q 2777.78 327.505, 2778.91 327.505 " fill="#000000"/>
<path class="note" d="M 2724.88 268.679 L 2719.29 268.679 L 2719.29 267.474 L 2726.37 267.474 L 2726.37 268.544 L 2722.07 278.139 L 2720.62 278.139 L 2724.88 268.679 " fill="#000000"/>
<path class="note" d="M 2650.25 308.073 Q 2651.23 308.495, 2651.79 309.128 Q 2652.35 309.745, 2652.35 310.8 Q 2652.35 311.704, 2651.88 312.412 Q 2651.41 313.105, 2650.57 313.496 Q 2649.74 313.873, 2648.64 313.873 Q 2646.86 313.873, 2645.84 313.059 Q 2644.81 312.231, 2644.81 310.8 Q 2644.81 309.926, 2645.27 309.278 Q 2645.72 308.616, 2646.65 308.119 Q 2645.96 307.727, 2645.58 307.154 Q 2645.2 306.567, 2645.2 305.663 Q 2645.2 304.413, 2646.11 303.675 Q 2647.03 302.937, 2648.58 302.937 Q 2650.13 302.937, 2651.03 303.675 Q 2651.95 304.413, 2651.95 305.663 Q 2651.95 306.446, 2651.52 307.034 Q 2651.09 307.606, 2650.25 308.073 M 2648.58 304.066 Q 2647.69 304.066, 2647.19 304.488 Q 2646.71 304.91, 2646.71 305.663 Q 2646.71 306.221, 2647.04 306.597 Q 2647.37 306.959, 2647.84 307.17 Q 2648.32 307.38, 2649.24 307.697 Q 2649.89 307.245, 2650.16 306.763 Q 2650.45 306.281, 2650.45 305.663 Q 2650.45 304.91, 2649.95 304.488 Q 2649.47 304.066, 2648.58 304.066 M 2648.64 312.743 Q 2649.63 312.743, 2650.24 312.216 Q 2650.84 311.674, 2650.84 310.785 Q 2650.84 310.212, 2650.52 309.851 Q 2650.21 309.489, 2649.72 309.278 Q 2649.26 309.068, 2648.41 308.796 L 2647.74 308.57 Q 2646.98 309.022, 2646.65 309.565 Q 2646.32 310.092, 2646.32 310.785 Q 2646.32 311.674, 2646.95 312.216 Q 2647.59 312.743, 2648.64 312.743 " fill="#000000"/>
<path class="note" d="M 2600.36 215.684 Q 2602.26 215.684, 2603.21 216.98 Q 2604.17 218.26, 2604.17 220.821 Q 2604.17 223.653, 2602.98 225.129 Q 2601.81 226.59, 2599.53 226.59 Q 2598.87 226.59, 2598.3 226.439 Q 2597.74 226.289, 2597.2 225.972 L 2597.78 224.963 Q 2598.57 225.385, 2599.52 225.385 Q 2601.02 225.385, 2601.79 224.421 Q 2602.56 223.442, 2602.65 221.438 Q 2602.11 221.935, 2601.41 222.207 Q 2600.74 222.463, 2600 222.463 Q 2599.06 222.463, 2598.33 222.056 Q 2597.59 221.649, 2597.18 220.911 Q 2596.77 220.173, 2596.77 219.239 Q 2596.77 218.2, 2597.23 217.401 Q 2597.69 216.588, 2598.51 216.136 Q 2599.32 215.684, 2600.36 215.684 M 2598.28 219.224 Q 2598.28 220.173, 2598.81 220.715 Q 2599.34 221.258, 2600.27 221.258 Q 2600.92 221.258, 2601.55 221.002 Q 2602.2 220.73, 2602.65 220.279 Q 2602.59 218.516, 2602.03 217.718 Q 2601.47 216.919, 2600.34 216.919 Q 2599.77 216.919, 2599.29 217.221 Q 2598.82 217.522, 2598.55 218.049 Q 2598.28 218.576, 2598.28 219.224 " fill="#000000"/>
<path class="note" d="M 2521.24 236.232 L 2523.58 236.232 L 2523.58 228.264 L 2521 229.062 L 2520.65 228.173 L 2523.92 226.712 L 2524.99 226.893 L 2524.99 236.232 L 2527.09 236.232 L 2527.09 237.437 L 2521.24 237.437 L 2521.24 236.232 " fill="#000000"/>
<path class="note" d="M 2531.91 237.558 Q 2529.95 237.558, 2528.97 236.112 Q 2528.01 234.666, 2528.01 232.09 Q 2528.01 229.514, 2528.97 228.083 Q 2529.93 226.652, 2531.91 226.652 Q 2533.88 226.652, 2534.84 228.083 Q 2535.81 229.514, 2535.81 232.09 Q 2535.81 234.666, 2534.83 236.112 Q 2533.86 237.558, 2531.91 237.558 M 2531.91 236.353 Q 2533.07 236.353, 2533.68 235.283 Q 2534.3 234.199, 2534.3 232.09 Q 2534.3 229.996, 2533.68 228.926 Q 2533.07 227.857, 2531.91 227.857 Q 2530.76 227.857, 2530.13 228.926 Q 2529.51 229.996, 2529.51 232.09 Q 2529.51 234.199, 2530.13 235.283 Q 2530.76 236.353, 2531.91 236.353 " fill="#000000"/>
<path class="note" d="M 2463.41 198.06 L 2465.75 198.06 L 2465.75 190.091 L 2463.17 190.889 L 2462.83 190.001 L 2466.09 188.539 L 2467.16 188.72 L 2467.16 198.06 L 2469.26 198.06 L 2469.26 199.265 L 2463.41 199.265 L 2463.41 198.06 " fill="#000000"/>
<path class="note" d="M 2470.66 198.06 L 2472.99 198.06 L 2472.99 190.091 L 2470.42 190.889 L 2470.07 190.001 L 2473.34 188.539 L 2474.41 188.72 L 2474.41 198.06 L 2476.5 198.06 L 2476.5 199.265 L 2470.66 199.265 L 2470.66 198.06 " fill="#000000"/>
<path class="note" d="M 2379.49 225.209 L 2381.82 225.209 L 2381.82 217.24 L 2379.25 218.039 L 2378.9 217.15 L 2382.17 215.689 L 2383.24 215.87 L 2383.24 225.209 L 2385.33 225.209 L 2385.33 226.414 L 2379.49 226.414 L 2379.49 225.209 " fill="#000000"/>
<path class="note" d="M 2386.11 217.768 Q 2386.51 216.758, 2387.44 216.201 Q 2388.37 215.629, 2389.67 215.629 Q 2391.28 215.629, 2392.19 216.502 Q 2393.09 217.376, 2393.09 218.927 Q 2393.09 220.509, 2391.91 221.985 Q 2390.75 223.462, 2388.34 225.209 L 2393.27 225.209 L 2393.27 226.414 L 2386.08 226.414 L 2386.08 225.405 Q 2388.07 223.989, 2389.25 222.934 Q 2390.44 221.88, 2391.01 220.931 Q 2391.58 219.982, 2391.58 219.003 Q 2391.58 217.978, 2391.07 217.406 Q 2390.56 216.834, 2389.67 216.834 Q 2388.81 216.834, 2388.24 217.18 Q 2387.67 217.527, 2387.26 218.295 L 2386.11 217.768 " fill="#000000"/>
<path class="note" d="M 2361.25 311.152 L 2363.58 311.152 L 2363.58 303.183 L 2361.01 303.981 L 2360.66 303.093 L 2363.93 301.631 L 2365 301.812 L 2365 311.152 L 2367.09 311.152 L 2367.09 312.357 L 2361.25 312.357 L 2361.25 311.152 " fill="#000000"/>
<path class="note" d="M 2372.85 306.738 Q 2373.89 307.039, 2374.39 307.717 Q 2374.9 308.38, 2374.9 309.434 Q 2374.9 310.338, 2374.45 311.046 Q 2373.99 311.739, 2373.17 312.131 Q 2372.34 312.507, 2371.25 312.507 Q 2370.11 312.507, 2369.25 312.116 Q 2368.41 311.709, 2367.73 310.895 L 2368.59 310.022 Q 2369.25 310.745, 2369.81 311.031 Q 2370.36 311.302, 2371.25 311.302 Q 2372.22 311.302, 2372.8 310.79 Q 2373.39 310.263, 2373.39 309.419 Q 2373.39 308.335, 2372.77 307.853 Q 2372.17 307.356, 2370.86 307.356 L 2370.09 307.356 L 2370.09 306.271 L 2370.77 306.271 Q 2371.93 306.256, 2372.55 305.759 Q 2373.17 305.247, 2373.17 304.298 Q 2373.17 303.605, 2372.65 303.198 Q 2372.14 302.776, 2371.27 302.776 Q 2370.38 302.776, 2369.82 303.093 Q 2369.28 303.409, 2368.86 304.207 L 2367.82 303.65 Q 2368.19 302.761, 2369.1 302.174 Q 2370 301.571, 2371.27 301.571 Q 2372.83 301.571, 2373.75 302.309 Q 2374.67 303.047, 2374.67 304.298 Q 2374.67 305.156, 2374.2 305.774 Q 2373.74 306.392, 2372.85 306.738 " fill="#000000"/>
<path class="note" d="M 2426.1 369.945 L 2428.43 369.945 L 2428.43 361.976 L 2425.86 362.775 L 2425.51 361.886 L 2428.78 360.425 L 2429.85 360.605 L 2429.85 369.945 L 2431.94 369.945 L 2431.94 371.15 L 2426.1 371.15 L 2426.1 369.945 " fill="#000000"/>
<path class="note" d="M 2439.32 367.489 L 2440.6 367.489 L 2440.6 368.694 L 2439.32 368.694 L 2439.32 371.15 L 2437.91 371.15 L 2437.91 368.694 L 2432.39 368.694 L 2432.39 367.745 L 2437.06 360.485 L 2439.32 360.485 L 2439.32 367.489 M 2434.14 367.489 L 2437.91 367.489 L 2437.91 361.449 L 2434.14 367.489 " fill="#000000"/>
<path class="note" d="M 2510.05 342.825 L 2512.39 342.825 L 2512.39 334.857 L 2509.81 335.655 L 2509.47 334.767 L 2512.74 333.305 L 2513.81 333.486 L 2513.81 342.825 L 2515.9 342.825 L 2515.9 344.031 L 2510.05 344.031 L 2510.05 342.825 " fill="#000000"/>
<path class="note" d="M 2520.46 337.357 Q 2521.4 337.357, 2522.17 337.764 Q 2522.93 338.156, 2523.37 338.909 Q 2523.81 339.647, 2523.81 340.656 Q 2523.81 341.756, 2523.26 342.554 Q 2522.74 343.338, 2521.86 343.744 Q 2520.99 344.151, 2520 344.151 Q 2519.02 344.151, 2518.11 343.79 Q 2517.21 343.428, 2516.59 342.735 L 2517.5 341.801 Q 2517.99 342.343, 2518.67 342.645 Q 2519.35 342.931, 2520.04 342.931 Q 2520.99 342.931, 2521.64 342.343 Q 2522.3 341.756, 2522.3 340.686 Q 2522.3 339.557, 2521.64 339.029 Q 2520.99 338.487, 2519.95 338.487 Q 2519.02 338.487, 2517.98 338.894 L 2517.15 338.502 L 2517.66 333.366 L 2523.14 333.366 L 2522.99 334.571 L 2518.9 334.571 L 2518.58 337.734 Q 2519.53 337.357, 2520.46 337.357 " fill="#000000"/>
<path class="note" d="M 2721.76 182.648 L 2724.09 182.648 L 2724.09 174.68 L 2721.52 175.478 L 2721.17 174.59 L 2724.44 173.128 L 2725.51 173.309 L 2725.51 182.648 L 2727.6 182.648 L 2727.6 183.854 L 2721.76 183.854 L 2721.76 182.648 " fill="#000000"/>
<path class="note" d="M 2732.8 177.195 Q 2733.73 177.195, 2734.47 177.602 Q 2735.21 178.009, 2735.62 178.747 Q 2736.02 179.485, 2736.02 180.419 Q 2736.02 181.458, 2735.56 182.272 Q 2735.11 183.07, 2734.29 183.522 Q 2733.48 183.974, 2732.44 183.974 Q 2730.54 183.974, 2729.58 182.694 Q 2728.63 181.398, 2728.63 178.837 Q 2728.63 176.005, 2729.8 174.544 Q 2730.99 173.068, 2733.27 173.068 Q 2733.93 173.068, 2734.49 173.219 Q 2735.06 173.369, 2735.6 173.686 L 2735.01 174.695 Q 2734.23 174.273, 2733.28 174.273 Q 2731.78 174.273, 2731.01 175.252 Q 2730.24 176.216, 2730.15 178.22 Q 2730.69 177.723, 2731.37 177.467 Q 2732.06 177.195, 2732.8 177.195 M 2732.45 182.739 Q 2733.03 182.739, 2733.49 182.438 Q 2733.98 182.136, 2734.25 181.609 Q 2734.52 181.082, 2734.52 180.434 Q 2734.52 179.485, 2733.99 178.943 Q 2733.46 178.401, 2732.53 178.401 Q 2731.88 178.401, 2731.23 178.672 Q 2730.6 178.928, 2730.15 179.38 Q 2730.21 181.142, 2730.77 181.94 Q 2731.32 182.739, 2732.45 182.739 " fill="#000000"/>
<path class="note" d="M 2793.93 159.373 L 2796.27 159.373 L 2796.27 151.405 L 2793.69 152.203 L 2793.35 151.314 L 2796.62 149.853 L 2797.69 150.034 L 2797.69 159.373 L 2799.78 159.373 L 2799.78 160.578 L 2793.93 160.578 L 2793.93 159.373 " fill="#000000"/>
<path class="note" d="M 2805.64 151.118 L 2800.05 151.118 L 2800.05 149.913 L 2807.13 149.913 L 2807.13 150.983 L 2802.82 160.578 L 2801.38 160.578 L 2805.64 151.118 " fill="#000000"/>
<path class="note" d="M 2806.45 98.0158 L 2808.79 98.0158 L 2808.79 90.0472 L 2806.21 90.8456 L 2805.86 89.9568 L 2809.13 88.4956 L 2810.2 88.6764 L 2810.2 98.0158 L 2812.3 98.0158 L 2812.3 99.2208 L 2806.45 99.2208 L 2806.45 98.0158 " fill="#000000"/>
<path class="note" d="M 2818.67 93.572 Q 2819.65 93.9938, 2820.2 94.6265 Q 2820.76 95.2441, 2820.76 96.2985 Q 2820.76 97.2023, 2820.29 97.9103 Q 2819.83 98.6032, 2818.98 98.9949 Q 2818.16 99.3715, 2817.06 99.3715 Q 2815.28 99.3715, 2814.25 98.5581 Q 2813.23 97.7296, 2813.23 96.2985 Q 2813.23 95.4248, 2813.68 94.7771 Q 2814.13 94.1143, 2815.07 93.6172 Q 2814.37 93.2256, 2814 92.6532 Q 2813.62 92.0657, 2813.62 91.1619 Q 2813.62 89.9116, 2814.53 89.1735 Q 2815.44 88.4354, 2817 88.4354 Q 2818.55 88.4354, 2819.45 89.1735 Q 2820.37 89.9116, 2820.37 91.1619 Q 2820.37 91.9452, 2819.93 92.5327 Q 2819.51 93.1051, 2818.67 93.572 M 2817 89.5652 Q 2816.11 89.5652, 2815.61 89.9869 Q 2815.13 90.4087, 2815.13 91.1619 Q 2815.13 91.7192, 2815.46 92.0958 Q 2815.79 92.4573, 2816.26 92.6682 Q 2816.74 92.8791, 2817.66 93.1955 Q 2818.31 92.7435, 2818.58 92.2615 Q 2818.86 91.7795, 2818.86 91.1619 Q 2818.86 90.4087, 2818.37 89.9869 Q 2817.88 89.5652, 2817 89.5652 M 2817.06 98.2417 Q 2818.05 98.2417, 2818.65 97.7145 Q 2819.26 97.1722, 2819.26 96.2835 Q 2819.26 95.7111, 2818.94 95.3495 Q 2818.62 94.988, 2818.14 94.7771 Q 2817.67 94.5662, 2816.83 94.2951 L 2816.15 94.0691 Q 2815.4 94.521, 2815.07 95.0633 Q 2814.74 95.5905, 2814.74 96.2835 Q 2814.74 97.1722, 2815.37 97.7145 Q 2816 98.2417, 2817.06 98.2417 " fill="#000000"/>
<path class="note" d="M 2914.03 63.1481 L 2916.37 63.1481 L 2916.37 55.1795 L 2913.79 55.9779 L 2913.45 55.0891 L 2916.71 53.628 L 2917.78 53.8087 L 2917.78 63.1481 L 2919.88 63.1481 L 2919.88 64.3532 L 2914.03 64.3532 L 2914.03 63.1481 " fill="#000000"/>
<path class="note" d="M 2924.29 53.5677 Q 2926.19 53.5677, 2927.14 54.8632 Q 2928.1 56.1436, 2928.1 58.7044 Q 2928.1 61.5363, 2926.91 63.0125 Q 2925.74 64.4737, 2923.46 64.4737 Q 2922.8 64.4737, 2922.23 64.323 Q 2921.67 64.1724, 2921.13 63.8561 L 2921.72 62.8468 Q 2922.5 63.2686, 2923.45 63.2686 Q 2924.95 63.2686, 2925.72 62.3045 Q 2926.49 61.3254, 2926.58 59.322 Q 2926.04 59.8191, 2925.35 60.0902 Q 2924.67 60.3463, 2923.93 60.3463 Q 2923 60.3463, 2922.26 59.9396 Q 2921.52 59.5329, 2921.11 58.7947 Q 2920.71 58.0566, 2920.71 57.1227 Q 2920.71 56.0833, 2921.16 55.285 Q 2921.62 54.4715, 2922.44 54.0196 Q 2923.25 53.5677, 2924.29 53.5677 M 2922.21 57.1076 Q 2922.21 58.0566, 2922.74 58.5989 Q 2923.27 59.1412, 2924.2 59.1412 Q 2924.85 59.1412, 2925.48 58.8851 Q 2926.13 58.614, 2926.58 58.1621 Q 2926.52 56.3997, 2925.96 55.6013 Q 2925.41 54.8029, 2924.28 54.8029 Q 2923.7 54.8029, 2923.22 55.1042 Q 2922.75 55.4055, 2922.48 55.9327 Q 2922.21 56.4599, 2922.21 57.1076 " fill="#000000"/>
<path class="note" d="M 2742.35 19.4736 Q 2742.74 18.4643, 2743.68 17.907 Q 2744.61 17.3345, 2745.91 17.3345 Q 2747.52 17.3345, 2748.42 18.2082 Q 2749.33 19.0819, 2749.33 20.6334 Q 2749.33 22.2151, 2748.15 23.6913 Q 2746.99 25.1676, 2744.58 26.9149 L 2749.51 26.9149 L 2749.51 28.12 L 2742.32 28.12 L 2742.32 27.1107 Q 2744.31 25.6948, 2745.48 24.6403 Q 2746.67 23.5859, 2747.25 22.6369 Q 2747.82 21.6879, 2747.82 20.7088 Q 2747.82 19.6845, 2747.31 19.112 Q 2746.8 18.5396, 2745.91 18.5396 Q 2745.05 18.5396, 2744.48 18.8861 Q 2743.9 19.2325, 2743.5 20.0008 L 2742.35 19.4736 " fill="#000000"/>
<path class="note" d="M 2754.33 28.2405 Q 2752.37 28.2405, 2751.39 26.7944 Q 2750.43 25.3483, 2750.43 22.7725 Q 2750.43 20.1966, 2751.39 18.7656 Q 2752.35 17.3345, 2754.33 17.3345 Q 2756.3 17.3345, 2757.26 18.7656 Q 2758.23 20.1966, 2758.23 22.7725 Q 2758.23 25.3483, 2757.25 26.7944 Q 2756.29 28.2405, 2754.33 28.2405 M 2754.33 27.0354 Q 2755.49 27.0354, 2756.1 25.9659 Q 2756.72 24.8813, 2756.72 22.7725 Q 2756.72 20.6786, 2756.1 19.6091 Q 2755.49 18.5396, 2754.33 18.5396 Q 2753.18 18.5396, 2752.55 19.6091 Q 2751.93 20.6786, 2751.93 22.7725 Q 2751.93 24.8813, 2752.55 25.9659 Q 2753.18 27.0354, 2754.33 27.0354 " fill="#000000"/>
<path class="note" d="M 2881.83 203.037 Q 2882.22 202.028, 2883.16 201.47 Q 2884.09 200.898, 2885.39 200.898 Q 2887 200.898, 2887.9 201.772 Q 2888.81 202.645, 2888.81 204.197 Q 2888.81 205.779, 2887.63 207.255 Q 2886.47 208.731, 2884.06 210.478 L 2888.99 210.478 L 2888.99 211.683 L 2881.8 211.683 L 2881.8 210.674 Q 2883.79 209.258, 2884.97 208.204 Q 2886.16 207.149, 2886.73 206.2 Q 2887.3 205.251, 2887.3 204.272 Q 2887.3 203.248, 2886.79 202.675 Q 2886.28 202.103, 2885.39 202.103 Q 2884.53 202.103, 2883.96 202.449 Q 2883.38 202.796, 2882.98 203.564 L 2881.83 203.037 " fill="#000000"/>
<path class="note" d="M 2890.39 210.478 L 2892.72 210.478 L 2892.72 202.51 L 2890.15 203.308 L 2889.8 202.419 L 2893.07 200.958 L 2894.14 201.139 L 2894.14 210.478 L 2896.23 210.478 L 2896.23 211.683 L 2890.39 211.683 L 2890.39 210.478 " fill="#000000"/>
<path d="M 1262.77 248.553 L 1268.82 248.553 L 1268.82 242.185 L 1271.51 242.185 L 1271.51 248.553 L 1277.72 248.553 L 1277.72 250.857 L 1271.51 250.857 L 1271.51 257.257 L 1268.82 257.257 L 1268.82 250.857 L 1262.77 250.857 L 1262.77 248.553 " fill="#000000"/>
<path d="M 2037.97,250.857 L 2255.8,250.857" style="fill:none;fill-rule:evenodd;stroke:#000000;stroke-width:2.0px;stroke-linecap:butt;stroke-linejoin:miter;stroke-opacity:1"/>
<path d="M 2255.8,250.857 L 2246.37,245.411" style="fill:none;fill-rule:evenodd;stroke:#000000;stroke-width:2.0px;stroke-linecap:butt;stroke-linejoin:miter;stroke-opacity:1"/>
<path d="M 2255.8,250.857 L 2246.37,256.302" style="fill:none;fill-rule:evenodd;stroke:#000000;stroke-width:2.0px;stroke-linecap:butt;stroke-linejoin:miter;stroke-opacity:1"/>
</svg>