<svg xmlns="http://www.w3.org/2000/svg" xmlns:rdkit="http://www.rdkit.org/xml" xmlns:xlink="http://www.w3.org/1999/xlink" version="1.1" baseProfile="full" xml:space="preserve" width="4000px" height="500px" viewBox="0 0 4000 500">
<!-- END OF HEADER -->
<rect style="opacity:1.0;fill:#FFFFFF;stroke:none" width="4000" height="500" x="0" y="0"> </rect>
<path d="M 863.672,165.236 L 978.69,231.642" style="fill:none;fill-rule:evenodd;stroke:#FFFFAA;stroke-width:28.3px;stroke-linecap:butt;stroke-linejoin:miter;stroke-opacity:1"/>
<path d="M 978.69,231.642 L 1093.71,165.236" style="fill:none;fill-rule:evenodd;stroke:#FFFFAA;stroke-width:28.3px;stroke-linecap:butt;stroke-linejoin:miter;stroke-opacity:1"/>
<path d="M 978.69,231.642 L 978.69,364.454" style="fill:none;fill-rule:evenodd;stroke:#FFFFAA;stroke-width:28.3px;stroke-linecap:butt;stroke-linejoin:miter;stroke-opacity:1"/>
<path d="M 1455.44,314.913 L 1570.46,248.507" style="fill:none;fill-rule:evenodd;stroke:#FFCC99;stroke-width:28.3px;stroke-linecap:butt;stroke-linejoin:miter;stroke-opacity:1"/>
<path d="M 1570.46,248.507 L 1570.46,115.695" style="fill:none;fill-rule:evenodd;stroke:#FFCC99;stroke-width:28.3px;stroke-linecap:butt;stroke-linejoin:miter;stroke-opacity:1"/>
<path d="M 1570.46,248.507 L 1685.48,314.913" style="fill:none;fill-rule:evenodd;stroke:#FFCC99;stroke-width:28.3px;stroke-linecap:butt;stroke-linejoin:miter;stroke-opacity:1"/>
<path d="M 1570.46,115.695 L 1685.48,49.2896" style="fill:none;fill-rule:evenodd;stroke:#FFCC99;stroke-width:28.3px;stroke-linecap:butt;stroke-linejoin:miter;stroke-opacity:1"/>
<path d="M 1685.48,49.2896 L 1800.5,115.695" style="fill:none;fill-rule:evenodd;stroke:#FFCC99;stroke-width:28.3px;stroke-linecap:butt;stroke-linejoin:miter;stroke-opacity:1"/>
<path d="M 1800.5,115.695 L 1800.5,248.507" style="fill:none;fill-rule:evenodd;stroke:#FFCC99;stroke-width:28.3px;stroke-linecap:butt;stroke-linejoin:miter;stroke-opacity:1"/>
<path d="M 1800.5,248.507 L 1915.52,314.913" style="fill:none;fill-rule:evenodd;stroke:#FFCC99;stroke-width:28.3px;stroke-linecap:butt;stroke-linejoin:miter;stroke-opacity:1"/>
<path d="M 1800.5,248.507 L 1685.48,314.913" style="fill:none;fill-rule:evenodd;stroke:#FFCC99;stroke-width:28.3px;stroke-linecap:butt;stroke-linejoin:miter;stroke-opacity:1"/>
<path d="M 1685.48,314.913 L 1685.48,447.724" style="fill:none;fill-rule:evenodd;stroke:#FFCC99;stroke-width:28.3px;stroke-linecap:butt;stroke-linejoin:miter;stroke-opacity:1"/>
<path d="M 2637.77,321.25 L 2752.31,254.009" style="fill:none;fill-rule:evenodd;stroke:#FFFFAA;stroke-width:28.3px;stroke-linecap:butt;stroke-linejoin:miter;stroke-opacity:1"/>
<path d="M 2752.31,254.009 L 2751.34,121.201" style="fill:none;fill-rule:evenodd;stroke:#FFFFAA;stroke-width:28.3px;stroke-linecap:butt;stroke-linejoin:miter;stroke-opacity:1"/>
<path d="M 2867.8,319.576 L 2982.34,252.335" style="fill:none;fill-rule:evenodd;stroke:#FFCC99;stroke-width:28.3px;stroke-linecap:butt;stroke-linejoin:miter;stroke-opacity:1"/>
<path d="M 2982.34,252.335 L 2981.37,119.527" style="fill:none;fill-rule:evenodd;stroke:#FFCC99;stroke-width:28.3px;stroke-linecap:butt;stroke-linejoin:miter;stroke-opacity:1"/>
<path d="M 2982.34,252.335 L 3097.83,317.902" style="fill:none;fill-rule:evenodd;stroke:#FFCC99;stroke-width:28.3px;stroke-linecap:butt;stroke-linejoin:miter;stroke-opacity:1"/>
<path d="M 2981.37,119.527 L 3095.9,52.2863" style="fill:none;fill-rule:evenodd;stroke:#FFCC99;stroke-width:28.3px;stroke-linecap:butt;stroke-linejoin:miter;stroke-opacity:1"/>
<path d="M 3095.9,52.2863 L 3211.4,117.853" style="fill:none;fill-rule:evenodd;stroke:#FFCC99;stroke-width:28.3px;stroke-linecap:butt;stroke-linejoin:miter;stroke-opacity:1"/>
<path d="M 3211.4,117.853 L 3212.37,250.661" style="fill:none;fill-rule:evenodd;stroke:#FFCC99;stroke-width:28.3px;stroke-linecap:butt;stroke-linejoin:miter;stroke-opacity:1"/>
<path d="M 3212.37,250.661 L 3327.86,316.228" style="fill:none;fill-rule:evenodd;stroke:#FFCC99;stroke-width:28.3px;stroke-linecap:butt;stroke-linejoin:miter;stroke-opacity:1"/>
<path d="M 3212.37,250.661 L 3097.83,317.902" style="fill:none;fill-rule:evenodd;stroke:#FFCC99;stroke-width:28.3px;stroke-linecap:butt;stroke-linejoin:miter;stroke-opacity:1"/>
<path d="M 3097.83,317.902 L 3098.8,450.71" style="fill:none;fill-rule:evenodd;stroke:#FFCC99;stroke-width:28.3px;stroke-linecap:butt;stroke-linejoin:miter;stroke-opacity:1"/>
<ellipse cx="978.69" cy="231.642" rx="26.5623" ry="26.5623" style="fill:#FFFFAA;fill-rule:evenodd;stroke:#FFFFAA;stroke-width:1px;stroke-linecap:butt;stroke-linejoin:miter;stroke-opacity:1"/>
<ellipse cx="1093.71" cy="165.236" rx="26.5623" ry="26.5623" style="fill:#FFFFAA;fill-rule:evenodd;stroke:#FFFFAA;stroke-width:1px;stroke-linecap:butt;stroke-linejoin:miter;stroke-opacity:1"/>
<ellipse cx="978.69" cy="364.674" rx="26.5623" ry="26.5623" style="fill:#FFFFAA;fill-rule:evenodd;stroke:#FFFFAA;stroke-width:1px;stroke-linecap:butt;stroke-linejoin:miter;stroke-opacity:1"/>
<ellipse cx="1435.75" cy="321.993" rx="43.0436" ry="30.0379" style="fill:#FFCC99;fill-rule:evenodd;stroke:#FFCC99;stroke-width:1px;stroke-linecap:butt;stroke-linejoin:miter;stroke-opacity:1"/>
<ellipse cx="1570.46" cy="248.507" rx="26.5623" ry="26.5623" style="fill:#FFCC99;fill-rule:evenodd;stroke:#FFCC99;stroke-width:1px;stroke-linecap:butt;stroke-linejoin:miter;stroke-opacity:1"/>
<ellipse cx="1570.46" cy="115.695" rx="26.5623" ry="26.5623" style="fill:#FFCC99;fill-rule:evenodd;stroke:#FFCC99;stroke-width:1px;stroke-linecap:butt;stroke-linejoin:miter;stroke-opacity:1"/>
<ellipse cx="1685.48" cy="49.2896" rx="26.5623" ry="26.5623" style="fill:#FFCC99;fill-rule:evenodd;stroke:#FFCC99;stroke-width:1px;stroke-linecap:butt;stroke-linejoin:miter;stroke-opacity:1"/>
<ellipse cx="1800.5" cy="115.695" rx="26.5623" ry="26.5623" style="fill:#FFCC99;fill-rule:evenodd;stroke:#FFCC99;stroke-width:1px;stroke-linecap:butt;stroke-linejoin:miter;stroke-opacity:1"/>
<ellipse cx="1800.5" cy="248.507" rx="26.5623" ry="26.5623" style="fill:#FFCC99;fill-rule:evenodd;stroke:#FFCC99;stroke-width:1px;stroke-linecap:butt;stroke-linejoin:miter;stroke-opacity:1"/>
<ellipse cx="1915.52" cy="314.913" rx="26.5623" ry="26.5623" style="fill:#FFCC99;fill-rule:evenodd;stroke:#FFCC99;stroke-width:1px;stroke-linecap:butt;stroke-linejoin:miter;stroke-opacity:1"/>
<ellipse cx="1685.48" cy="314.913" rx="26.5623" ry="26.5623" style="fill:#FFCC99;fill-rule:evenodd;stroke:#FFCC99;stroke-width:1px;stroke-linecap:butt;stroke-linejoin:miter;stroke-opacity:1"/>
<ellipse cx="1685.48" cy="447.724" rx="26.5623" ry="26.5623" style="fill:#FFCC99;fill-rule:evenodd;stroke:#FFCC99;stroke-width:1px;stroke-linecap:butt;stroke-linejoin:miter;stroke-opacity:1"/>
<ellipse cx="2637.77" cy="321.25" rx="26.5623" ry="26.5623" style="fill:#FFFFAA;fill-rule:evenodd;stroke:#FFFFAA;stroke-width:1px;stroke-linecap:butt;stroke-linejoin:miter;stroke-opacity:1"/>
<ellipse cx="2752.31" cy="254.009" rx="26.5623" ry="26.5623" style="fill:#FFFFAA;fill-rule:evenodd;stroke:#FFFFAA;stroke-width:1px;stroke-linecap:butt;stroke-linejoin:miter;stroke-opacity:1"/>
<ellipse cx="2751.34" cy="121.421" rx="26.5623" ry="26.5623" style="fill:#FFFFAA;fill-rule:evenodd;stroke:#FFFFAA;stroke-width:1px;stroke-linecap:butt;stroke-linejoin:miter;stroke-opacity:1"/>
<ellipse cx="2867.8" cy="335.152" rx="26.5623" ry="42.0531" style="fill:#FFCC99;fill-rule:evenodd;stroke:#FFCC99;stroke-width:1px;stroke-linecap:butt;stroke-linejoin:miter;stroke-opacity:1"/>
<ellipse cx="2982.34" cy="252.335" rx="26.5623" ry="26.5623" style="fill:#FFCC99;fill-rule:evenodd;stroke:#FFCC99;stroke-width:1px;stroke-linecap:butt;stroke-linejoin:miter;stroke-opacity:1"/>
<ellipse cx="2981.37" cy="119.527" rx="26.5623" ry="26.5623" style="fill:#FFCC99;fill-rule:evenodd;stroke:#FFCC99;stroke-width:1px;stroke-linecap:butt;stroke-linejoin:miter;stroke-opacity:1"/>
<ellipse cx="3095.9" cy="52.2863" rx="26.5623" ry="26.5623" style="fill:#FFCC99;fill-rule:evenodd;stroke:#FFCC99;stroke-width:1px;stroke-linecap:butt;stroke-linejoin:miter;stroke-opacity:1"/>
<ellipse cx="3211.4" cy="117.853" rx="26.5623" ry="26.5623" style="fill:#FFCC99;fill-rule:evenodd;stroke:#FFCC99;stroke-width:1px;stroke-linecap:butt;stroke-linejoin:miter;stroke-opacity:1"/>
<ellipse cx="3212.37" cy="250.661" rx="26.5623" ry="26.5623" style="fill:#FFCC99;fill-rule:evenodd;stroke:#FFCC99;stroke-width:1px;stroke-linecap:butt;stroke-linejoin:miter;stroke-opacity:1"/>
<ellipse cx="3327.86" cy="316.228" rx="26.5623" ry="26.5623" style="fill:#FFCC99;fill-rule:evenodd;stroke:#FFCC99;stroke-width:1px;stroke-linecap:butt;stroke-linejoin:miter;stroke-opacity:1"/>
<ellipse cx="3097.83" cy="317.902" rx="26.5623" ry="26.5623" style="fill:#FFCC99;fill-rule:evenodd;stroke:#FFCC99;stroke-width:1px;stroke-linecap:butt;stroke-linejoin:miter;stroke-opacity:1"/>
<ellipse cx="3098.8" cy="450.71" rx="26.5623" ry="26.5623" style="fill:#FFCC99;fill-rule:evenodd;stroke:#FFCC99;stroke-width:1px;stroke-linecap:butt;stroke-linejoin:miter;stroke-opacity:1"/>
<path class="bond-0" d="M 633.636,165.236 L 748.654,231.642" style="fill:none;fill-rule:evenodd;stroke:#000000;stroke-width:2.0px;stroke-linecap:butt;stroke-linejoin:miter;stroke-opacity:1"/>
<path class="bond-1" d="M 735.373,231.642 L 735.373,289.228" style="fill:none;fill-rule:evenodd;stroke:#000000;stroke-width:2.0px;stroke-linecap:butt;stroke-linejoin:miter;stroke-opacity:1"/>
<path class="bond-1" d="M 735.373,289.228 L 735.373,346.813" style="fill:none;fill-rule:evenodd;stroke:#FF0000;stroke-width:2.0px;stroke-linecap:butt;stroke-linejoin:miter;stroke-opacity:1"/>
<path class="bond-1" d="M 761.935,231.642 L 761.935,289.228" style="fill:none;fill-rule:evenodd;stroke:#000000;stroke-width:2.0px;stroke-linecap:butt;stroke-linejoin:miter;stroke-opacity:1"/>
<path class="bond-1" d="M 761.935,289.228 L 761.935,346.813" style="fill:none;fill-rule:evenodd;stroke:#FF0000;stroke-width:2.0px;stroke-linecap:butt;stroke-linejoin:miter;stroke-opacity:1"/>
<path class="bond-2" d="M 748.654,231.642 L 798.003,203.15" style="fill:none;fill-rule:evenodd;stroke:#000000;stroke-width:2.0px;stroke-linecap:butt;stroke-linejoin:miter;stroke-opacity:1"/>
<path class="bond-2" d="M 798.003,203.15 L 847.352,174.659" style="fill:none;fill-rule:evenodd;stroke:#FF0000;stroke-width:2.0px;stroke-linecap:butt;stroke-linejoin:miter;stroke-opacity:1"/>
<path class="bond-3" d="M 879.993,174.659 L 929.341,203.15" style="fill:none;fill-rule:evenodd;stroke:#FF0000;stroke-width:2.0px;stroke-linecap:butt;stroke-linejoin:miter;stroke-opacity:1"/>
<path class="bond-3" d="M 929.341,203.15 L 978.69,231.642" style="fill:none;fill-rule:evenodd;stroke:#000000;stroke-width:2.0px;stroke-linecap:butt;stroke-linejoin:miter;stroke-opacity:1"/>
<path class="bond-4" d="M 978.69,231.642 L 1093.71,165.236" style="fill:none;fill-rule:evenodd;stroke:#000000;stroke-width:2.0px;stroke-linecap:butt;stroke-linejoin:miter;stroke-opacity:1"/>
<path class="bond-5" d="M 965.409,231.642 L 965.409,289.228" style="fill:none;fill-rule:evenodd;stroke:#000000;stroke-width:2.0px;stroke-linecap:butt;stroke-linejoin:miter;stroke-opacity:1"/>
<path class="bond-5" d="M 965.409,289.228 L 965.409,346.813" style="fill:none;fill-rule:evenodd;stroke:#FF0000;stroke-width:2.0px;stroke-linecap:butt;stroke-linejoin:miter;stroke-opacity:1"/>
<path class="bond-5" d="M 991.972,231.642 L 991.972,289.228" style="fill:none;fill-rule:evenodd;stroke:#000000;stroke-width:2.0px;stroke-linecap:butt;stroke-linejoin:miter;stroke-opacity:1"/>
<path class="bond-5" d="M 991.972,289.228 L 991.972,346.813" style="fill:none;fill-rule:evenodd;stroke:#FF0000;stroke-width:2.0px;stroke-linecap:butt;stroke-linejoin:miter;stroke-opacity:1"/>
<path class="bond-6" d="M 1469.5,306.795 L 1519.98,277.651" style="fill:none;fill-rule:evenodd;stroke:#0000FF;stroke-width:2.0px;stroke-linecap:butt;stroke-linejoin:miter;stroke-opacity:1"/>
<path class="bond-6" d="M 1519.98,277.651 L 1570.46,248.507" style="fill:none;fill-rule:evenodd;stroke:#000000;stroke-width:2.0px;stroke-linecap:butt;stroke-linejoin:miter;stroke-opacity:1"/>
<path class="bond-7" d="M 1570.46,248.507 L 1570.46,115.695" style="fill:none;fill-rule:evenodd;stroke:#000000;stroke-width:2.0px;stroke-linecap:butt;stroke-linejoin:miter;stroke-opacity:1"/>
<path class="bond-7" d="M 1597.02,228.585 L 1597.02,135.617" style="fill:none;fill-rule:evenodd;stroke:#000000;stroke-width:2.0px;stroke-linecap:butt;stroke-linejoin:miter;stroke-opacity:1;stroke-dasharray:6,6"/>
<path class="bond-14" d="M 1570.46,248.507 L 1685.48,314.913" style="fill:none;fill-rule:evenodd;stroke:#000000;stroke-width:2.0px;stroke-linecap:butt;stroke-linejoin:miter;stroke-opacity:1"/>
<path class="bond-14" d="M 1600.99,235.464 L 1681.51,281.948" style="fill:none;fill-rule:evenodd;stroke:#000000;stroke-width:2.0px;stroke-linecap:butt;stroke-linejoin:miter;stroke-opacity:1;stroke-dasharray:6,6"/>
<path class="bond-8" d="M 1570.46,115.695 L 1685.48,49.2896" style="fill:none;fill-rule:evenodd;stroke:#000000;stroke-width:2.0px;stroke-linecap:butt;stroke-linejoin:miter;stroke-opacity:1"/>
<path class="bond-8" d="M 1600.99,128.738 L 1681.51,82.2541" style="fill:none;fill-rule:evenodd;stroke:#000000;stroke-width:2.0px;stroke-linecap:butt;stroke-linejoin:miter;stroke-opacity:1;stroke-dasharray:6,6"/>
<path class="bond-9" d="M 1685.48,49.2896 L 1800.5,115.695" style="fill:none;fill-rule:evenodd;stroke:#000000;stroke-width:2.0px;stroke-linecap:butt;stroke-linejoin:miter;stroke-opacity:1"/>
<path class="bond-9" d="M 1689.45,82.2541 L 1769.96,128.738" style="fill:none;fill-rule:evenodd;stroke:#000000;stroke-width:2.0px;stroke-linecap:butt;stroke-linejoin:miter;stroke-opacity:1;stroke-dasharray:6,6"/>
<path class="bond-10" d="M 1800.5,115.695 L 1800.5,248.507" style="fill:none;fill-rule:evenodd;stroke:#000000;stroke-width:2.0px;stroke-linecap:butt;stroke-linejoin:miter;stroke-opacity:1"/>
<path class="bond-10" d="M 1773.93,135.617 L 1773.93,228.585" style="fill:none;fill-rule:evenodd;stroke:#000000;stroke-width:2.0px;stroke-linecap:butt;stroke-linejoin:miter;stroke-opacity:1;stroke-dasharray:6,6"/>
<path class="bond-11" d="M 1800.5,248.507 L 1852.14,278.321" style="fill:none;fill-rule:evenodd;stroke:#000000;stroke-width:2.0px;stroke-linecap:butt;stroke-linejoin:miter;stroke-opacity:1"/>
<path class="bond-11" d="M 1852.14,278.321 L 1903.77,308.134" style="fill:none;fill-rule:evenodd;stroke:#33CCCC;stroke-width:2.0px;stroke-linecap:butt;stroke-linejoin:miter;stroke-opacity:1"/>
<path class="bond-12" d="M 1800.5,248.507 L 1685.48,314.913" style="fill:none;fill-rule:evenodd;stroke:#000000;stroke-width:2.0px;stroke-linecap:butt;stroke-linejoin:miter;stroke-opacity:1"/>
<path class="bond-12" d="M 1769.96,235.464 L 1689.45,281.948" style="fill:none;fill-rule:evenodd;stroke:#000000;stroke-width:2.0px;stroke-linecap:butt;stroke-linejoin:miter;stroke-opacity:1;stroke-dasharray:6,6"/>
<path class="bond-13" d="M 1685.48,314.913 L 1685.48,447.724" style="fill:none;fill-rule:evenodd;stroke:#000000;stroke-width:2.0px;stroke-linecap:butt;stroke-linejoin:miter;stroke-opacity:1"/>
<path class="bond-15" d="M 2637.77,321.25 L 2752.31,254.009" style="fill:none;fill-rule:evenodd;stroke:#000000;stroke-width:2.0px;stroke-linecap:butt;stroke-linejoin:miter;stroke-opacity:1"/>
<path class="bond-16" d="M 2765.59,253.913 L 2765.17,196.549" style="fill:none;fill-rule:evenodd;stroke:#000000;stroke-width:2.0px;stroke-linecap:butt;stroke-linejoin:miter;stroke-opacity:1"/>
<path class="bond-16" d="M 2765.17,196.549 L 2764.75,139.185" style="fill:none;fill-rule:evenodd;stroke:#FF0000;stroke-width:2.0px;stroke-linecap:butt;stroke-linejoin:miter;stroke-opacity:1"/>
<path class="bond-16" d="M 2739.02,254.106 L 2738.61,196.742" style="fill:none;fill-rule:evenodd;stroke:#000000;stroke-width:2.0px;stroke-linecap:butt;stroke-linejoin:miter;stroke-opacity:1"/>
<path class="bond-16" d="M 2738.61,196.742 L 2738.19,139.378" style="fill:none;fill-rule:evenodd;stroke:#FF0000;stroke-width:2.0px;stroke-linecap:butt;stroke-linejoin:miter;stroke-opacity:1"/>
<path class="bond-17" d="M 2752.31,254.009 L 2803.02,282.802" style="fill:none;fill-rule:evenodd;stroke:#000000;stroke-width:2.0px;stroke-linecap:butt;stroke-linejoin:miter;stroke-opacity:1"/>
<path class="bond-17" d="M 2803.02,282.802 L 2853.74,311.594" style="fill:none;fill-rule:evenodd;stroke:#0000FF;stroke-width:2.0px;stroke-linecap:butt;stroke-linejoin:miter;stroke-opacity:1"/>
<path class="bond-18" d="M 2881.86,311.322 L 2932.1,281.828" style="fill:none;fill-rule:evenodd;stroke:#0000FF;stroke-width:2.0px;stroke-linecap:butt;stroke-linejoin:miter;stroke-opacity:1"/>
<path class="bond-18" d="M 2932.1,281.828 L 2982.34,252.335" style="fill:none;fill-rule:evenodd;stroke:#000000;stroke-width:2.0px;stroke-linecap:butt;stroke-linejoin:miter;stroke-opacity:1"/>
<path class="bond-19" d="M 2982.34,252.335 L 2981.37,119.527" style="fill:none;fill-rule:evenodd;stroke:#000000;stroke-width:2.0px;stroke-linecap:butt;stroke-linejoin:miter;stroke-opacity:1"/>
<path class="bond-19" d="M 3008.75,232.221 L 3008.08,139.255" style="fill:none;fill-rule:evenodd;stroke:#000000;stroke-width:2.0px;stroke-linecap:butt;stroke-linejoin:miter;stroke-opacity:1;stroke-dasharray:6,6"/>
<path class="bond-26" d="M 2982.34,252.335 L 3097.83,317.902" style="fill:none;fill-rule:evenodd;stroke:#000000;stroke-width:2.0px;stroke-linecap:butt;stroke-linejoin:miter;stroke-opacity:1"/>
<path class="bond-26" d="M 3012.77,239.071 L 3093.62,284.968" style="fill:none;fill-rule:evenodd;stroke:#000000;stroke-width:2.0px;stroke-linecap:butt;stroke-linejoin:miter;stroke-opacity:1;stroke-dasharray:6,6"/>
<path class="bond-20" d="M 2981.37,119.527 L 3095.9,52.2863" style="fill:none;fill-rule:evenodd;stroke:#000000;stroke-width:2.0px;stroke-linecap:butt;stroke-linejoin:miter;stroke-opacity:1"/>
<path class="bond-20" d="M 3012,132.348 L 3092.17,85.2788" style="fill:none;fill-rule:evenodd;stroke:#000000;stroke-width:2.0px;stroke-linecap:butt;stroke-linejoin:miter;stroke-opacity:1;stroke-dasharray:6,6"/>
<path class="bond-21" d="M 3095.9,52.2863 L 3211.4,117.853" style="fill:none;fill-rule:evenodd;stroke:#000000;stroke-width:2.0px;stroke-linecap:butt;stroke-linejoin:miter;stroke-opacity:1"/>
<path class="bond-21" d="M 3100.11,85.221 L 3180.96,131.118" style="fill:none;fill-rule:evenodd;stroke:#000000;stroke-width:2.0px;stroke-linecap:butt;stroke-linejoin:miter;stroke-opacity:1;stroke-dasharray:6,6"/>
<path class="bond-22" d="M 3211.4,117.853 L 3212.37,250.661" style="fill:none;fill-rule:evenodd;stroke:#000000;stroke-width:2.0px;stroke-linecap:butt;stroke-linejoin:miter;stroke-opacity:1"/>
<path class="bond-22" d="M 3184.98,137.968 L 3185.66,230.933" style="fill:none;fill-rule:evenodd;stroke:#000000;stroke-width:2.0px;stroke-linecap:butt;stroke-linejoin:miter;stroke-opacity:1;stroke-dasharray:6,6"/>
<path class="bond-23" d="M 3212.37,250.661 L 3264.25,280.112" style="fill:none;fill-rule:evenodd;stroke:#000000;stroke-width:2.0px;stroke-linecap:butt;stroke-linejoin:miter;stroke-opacity:1"/>
<path class="bond-23" d="M 3264.25,280.112 L 3316.12,309.564" style="fill:none;fill-rule:evenodd;stroke:#33CCCC;stroke-width:2.0px;stroke-linecap:butt;stroke-linejoin:miter;stroke-opacity:1"/>
<path class="bond-24" d="M 3212.37,250.661 L 3097.83,317.902" style="fill:none;fill-rule:evenodd;stroke:#000000;stroke-width:2.0px;stroke-linecap:butt;stroke-linejoin:miter;stroke-opacity:1"/>
<path class="bond-24" d="M 3181.74,237.841 L 3101.57,284.91" style="fill:none;fill-rule:evenodd;stroke:#000000;stroke-width:2.0px;stroke-linecap:butt;stroke-linejoin:miter;stroke-opacity:1;stroke-dasharray:6,6"/>
<path class="bond-25" d="M 3097.83,317.902 L 3098.8,450.71" style="fill:none;fill-rule:evenodd;stroke:#000000;stroke-width:2.0px;stroke-linecap:butt;stroke-linejoin:miter;stroke-opacity:1"/>
<path class="bond-27" d="M 2180.57,134.986 L 2232.33,105.104" style="fill:none;fill-rule:evenodd;stroke:#000000;stroke-width:2.0px;stroke-linecap:butt;stroke-linejoin:miter;stroke-opacity:1"/>
<path class="bond-28" d="M 2232.33,105.104 L 2250.96,115.861" style="fill:none;fill-rule:evenodd;stroke:#000000;stroke-width:2.0px;stroke-linecap:butt;stroke-linejoin:miter;stroke-opacity:1"/>
<path class="bond-28" d="M 2250.96,115.861 L 2269.59,126.618" style="fill:none;fill-rule:evenodd;stroke:#FF0000;stroke-width:2.0px;stroke-linecap:butt;stroke-linejoin:miter;stroke-opacity:1"/>
<path class="atom-2" d="M 735.654 364.534 Q 735.654 357.734, 739.014 353.934 Q 742.374 350.134, 748.654 350.134 Q 754.934 350.134, 758.294 353.934 Q 761.654 357.734, 761.654 364.534 Q 761.654 371.414, 758.254 375.334 Q 754.854 379.214, 748.654 379.214 Q 742.414 379.214, 739.014 375.334 Q 735.654 371.454, 735.654 364.534 M 748.654 376.014 Q 752.974 376.014, 755.294 373.134 Q 757.654 370.214, 757.654 364.534 Q 757.654 358.974, 755.294 356.174 Q 752.974 353.334, 748.654 353.334 Q 744.334 353.334, 741.974 356.134 Q 739.654 358.934, 739.654 364.534 Q 739.654 370.254, 741.974 373.134 Q 744.334 376.014, 748.654 376.014 " fill="#FF0000"/>
<path class="atom-3" d="M 850.672 165.316 Q 850.672 158.516, 854.032 154.716 Q 857.392 150.916, 863.672 150.916 Q 869.952 150.916, 873.312 154.716 Q 876.672 158.516, 876.672 165.316 Q 876.672 172.196, 873.272 176.116 Q 869.872 179.996, 863.672 179.996 Q 857.432 179.996, 854.032 176.116 Q 850.672 172.236, 850.672 165.316 M 863.672 176.796 Q 867.992 176.796, 870.312 173.916 Q 872.672 170.996, 872.672 165.316 Q 872.672 159.756, 870.312 156.956 Q 867.992 154.116, 863.672 154.116 Q 859.352 154.116, 856.992 156.916 Q 854.672 159.716, 854.672 165.316 Q 854.672 171.036, 856.992 173.916 Q 859.352 176.796, 863.672 176.796 " fill="#FF0000"/>
<path class="atom-6" d="M 965.69 364.534 Q 965.69 357.734, 969.05 353.934 Q 972.41 350.134, 978.69 350.134 Q 984.97 350.134, 988.33 353.934 Q 991.69 357.734, 991.69 364.534 Q 991.69 371.414, 988.29 375.334 Q 984.89 379.214, 978.69 379.214 Q 972.45 379.214, 969.05 375.334 Q 965.69 371.454, 965.69 364.534 M 978.69 376.014 Q 983.01 376.014, 985.33 373.134 Q 987.69 370.214, 987.69 364.534 Q 987.69 358.974, 985.33 356.174 Q 983.01 353.334, 978.69 353.334 Q 974.37 353.334, 972.01 356.134 Q 969.69 358.934, 969.69 364.534 Q 969.69 370.254, 972.01 373.134 Q 974.37 376.014, 978.69 376.014 " fill="#FF0000"/>
<path class="atom-7" d="M 1405.31 300.753 L 1409.15 300.753 L 1409.15 312.793 L 1423.63 312.793 L 1423.63 300.753 L 1427.47 300.753 L 1427.47 329.073 L 1423.63 329.073 L 1423.63 315.993 L 1409.15 315.993 L 1409.15 329.073 L 1405.31 329.073 L 1405.31 300.753 " fill="#0000FF"/>
<path class="atom-7" d="M 1428.84 328.079 Q 1429.53 326.31, 1431.17 325.333 Q 1432.8 324.33, 1435.07 324.33 Q 1437.9 324.33, 1439.48 325.861 Q 1441.07 327.393, 1441.07 330.112 Q 1441.07 332.884, 1439.01 335.471 Q 1436.97 338.058, 1432.75 341.121 L 1441.38 341.121 L 1441.38 343.233 L 1428.79 343.233 L 1428.79 341.464 Q 1432.27 338.982, 1434.33 337.134 Q 1436.42 335.286, 1437.42 333.623 Q 1438.43 331.96, 1438.43 330.244 Q 1438.43 328.449, 1437.53 327.445 Q 1436.63 326.442, 1435.07 326.442 Q 1433.57 326.442, 1432.56 327.049 Q 1431.56 327.657, 1430.85 329.003 L 1428.84 328.079 " fill="#0000FF"/>
<path class="atom-7" d="M 1449.18 300.753 L 1458.46 315.753 Q 1459.38 317.233, 1460.86 319.913 Q 1462.34 322.593, 1462.42 322.753 L 1462.42 300.753 L 1466.18 300.753 L 1466.18 329.073 L 1462.3 329.073 L 1452.34 312.673 Q 1451.18 310.753, 1449.94 308.553 Q 1448.74 306.353, 1448.38 305.673 L 1448.38 329.073 L 1444.7 329.073 L 1444.7 300.753 L 1449.18 300.753 " fill="#0000FF"/>
<path class="atom-13" d="M 1907.1 300.753 L 1923.94 300.753 L 1923.94 303.993 L 1910.9 303.993 L 1910.9 312.593 L 1922.5 312.593 L 1922.5 315.873 L 1910.9 315.873 L 1910.9 329.073 L 1907.1 329.073 L 1907.1 300.753 " fill="#33CCCC"/>
<path class="atom-18" d="M 2738.34 121.281 Q 2738.34 114.481, 2741.7 110.681 Q 2745.06 106.881, 2751.34 106.881 Q 2757.62 106.881, 2760.98 110.681 Q 2764.34 114.481, 2764.34 121.281 Q 2764.34 128.161, 2760.94 132.081 Q 2757.54 135.961, 2751.34 135.961 Q 2745.1 135.961, 2741.7 132.081 Q 2738.34 128.201, 2738.34 121.281 M 2751.34 132.761 Q 2755.66 132.761, 2757.98 129.881 Q 2760.34 126.961, 2760.34 121.281 Q 2760.34 115.721, 2757.98 112.921 Q 2755.66 110.081, 2751.34 110.081 Q 2747.02 110.081, 2744.66 112.881 Q 2742.34 115.681, 2742.34 121.281 Q 2742.34 127.001, 2744.66 129.881 Q 2747.02 132.761, 2751.34 132.761 " fill="#FF0000"/>
<path class="atom-19" d="M 2861.54 305.416 L 2870.82 320.416 Q 2871.74 321.896, 2873.22 324.576 Q 2874.7 327.256, 2874.78 327.416 L 2874.78 305.416 L 2878.54 305.416 L 2878.54 333.736 L 2874.66 333.736 L 2864.7 317.336 Q 2863.54 315.416, 2862.3 313.216 Q 2861.1 311.016, 2860.74 310.336 L 2860.74 333.736 L 2857.06 333.736 L 2857.06 305.416 L 2861.54 305.416 " fill="#0000FF"/>
<path class="atom-19" d="M 2856.72 336.568 L 2860.56 336.568 L 2860.56 348.608 L 2875.04 348.608 L 2875.04 336.568 L 2878.88 336.568 L 2878.88 364.888 L 2875.04 364.888 L 2875.04 351.808 L 2860.56 351.808 L 2860.56 364.888 L 2856.72 364.888 L 2856.72 336.568 " fill="#0000FF"/>
<path class="atom-25" d="M 3319.44 302.068 L 3336.28 302.068 L 3336.28 305.308 L 3323.24 305.308 L 3323.24 313.908 L 3334.84 313.908 L 3334.84 317.188 L 3323.24 317.188 L 3323.24 330.388 L 3319.44 330.388 L 3319.44 302.068 " fill="#33CCCC"/>
<path class="atom-30" d="M 2271.09 135.066 Q 2271.09 128.266, 2274.45 124.466 Q 2277.81 120.666, 2284.09 120.666 Q 2290.37 120.666, 2293.73 124.466 Q 2297.09 128.266, 2297.09 135.066 Q 2297.09 141.946, 2293.69 145.866 Q 2290.29 149.746, 2284.09 149.746 Q 2277.85 149.746, 2274.45 145.866 Q 2271.09 141.986, 2271.09 135.066 M 2284.09 146.546 Q 2288.41 146.546, 2290.73 143.666 Q 2293.09 140.746, 2293.09 135.066 Q 2293.09 129.506, 2290.73 126.706 Q 2288.41 123.866, 2284.09 123.866 Q 2279.77 123.866, 2277.41 126.666 Q 2275.09 129.466, 2275.09 135.066 Q 2275.09 140.786, 2277.41 143.666 Q 2279.77 146.546, 2284.09 146.546 " fill="#FF0000"/>
<path class="atom-30" d="M 2300.49 120.986 L 2304.33 120.986 L 2304.33 133.026 L 2318.81 133.026 L 2318.81 120.986 L 2322.65 120.986 L 2322.65 149.306 L 2318.81 149.306 L 2318.81 136.226 L 2304.33 136.226 L 2304.33 149.306 L 2300.49 149.306 L 2300.49 120.986 " fill="#FF0000"/>
<path class="note" d="M 973.96 205.187 Q 974.48 203.847, 975.72 203.107 Q 976.96 202.347, 978.68 202.347 Q 980.82 202.347, 982.02 203.507 Q 983.22 204.667, 983.22 206.727 Q 983.22 208.827, 981.66 210.787 Q 980.12 212.747, 976.92 215.067 L 983.46 215.067 L 983.46 216.667 L 973.92 216.667 L 973.92 215.327 Q 976.56 213.447, 978.12 212.047 Q 979.7 210.647, 980.46 209.387 Q 981.22 208.127, 981.22 206.827 Q 981.22 205.467, 980.54 204.707 Q 979.86 203.947, 978.68 203.947 Q 977.54 203.947, 976.78 204.407 Q 976.02 204.867, 975.48 205.887 L 973.96 205.187 " fill="#000000"/>
<path class="note" d="M 1079.15 151.586 L 1082.25 151.586 L 1082.25 141.006 L 1078.83 142.066 L 1078.37 140.886 L 1082.71 138.946 L 1084.13 139.186 L 1084.13 151.586 L 1086.91 151.586 L 1086.91 153.186 L 1079.15 153.186 L 1079.15 151.586 " fill="#000000"/>
<path class="note" d="M 980.73 408.424 Q 982.11 408.824, 982.77 409.724 Q 983.45 410.604, 983.45 412.004 Q 983.45 413.204, 982.85 414.144 Q 982.25 415.064, 981.15 415.584 Q 980.05 416.084, 978.61 416.084 Q 977.09 416.084, 975.95 415.564 Q 974.83 415.024, 973.93 413.944 L 975.07 412.784 Q 975.95 413.744, 976.69 414.124 Q 977.43 414.484, 978.61 414.484 Q 979.89 414.484, 980.67 413.804 Q 981.45 413.104, 981.45 411.984 Q 981.45 410.544, 980.63 409.904 Q 979.83 409.244, 978.09 409.244 L 977.07 409.244 L 977.07 407.804 L 977.97 407.804 Q 979.51 407.784, 980.33 407.124 Q 981.15 406.444, 981.15 405.184 Q 981.15 404.264, 980.47 403.724 Q 979.79 403.164, 978.63 403.164 Q 977.45 403.164, 976.71 403.584 Q 975.99 404.004, 975.43 405.064 L 974.05 404.324 Q 974.55 403.144, 975.75 402.364 Q 976.95 401.564, 978.63 401.564 Q 980.71 401.564, 981.93 402.544 Q 983.15 403.524, 983.15 405.184 Q 983.15 406.324, 982.53 407.144 Q 981.91 407.964, 980.73 408.424 " fill="#000000"/>
<path class="note" d="M 1459.19 361.403 L 1460.89 361.403 L 1460.89 363.003 L 1459.19 363.003 L 1459.19 366.263 L 1457.31 366.263 L 1457.31 363.003 L 1449.99 363.003 L 1449.99 361.743 L 1456.19 352.103 L 1459.19 352.103 L 1459.19 361.403 M 1452.31 361.403 L 1457.31 361.403 L 1457.31 353.383 L 1452.31 361.403 " fill="#000000"/>
<path class="note" d="M 1551.64 235.659 Q 1552.88 235.659, 1553.9 236.199 Q 1554.92 236.719, 1555.5 237.719 Q 1556.08 238.699, 1556.08 240.039 Q 1556.08 241.499, 1555.36 242.559 Q 1554.66 243.599, 1553.5 244.139 Q 1552.34 244.679, 1551.02 244.679 Q 1549.72 244.679, 1548.52 244.199 Q 1547.32 243.719, 1546.5 242.799 L 1547.7 241.559 Q 1548.36 242.279, 1549.26 242.679 Q 1550.16 243.059, 1551.08 243.059 Q 1552.34 243.059, 1553.2 242.279 Q 1554.08 241.499, 1554.08 240.079 Q 1554.08 238.579, 1553.2 237.879 Q 1552.34 237.159, 1550.96 237.159 Q 1549.72 237.159, 1548.34 237.699 L 1547.24 237.179 L 1547.92 230.359 L 1555.2 230.359 L 1555 231.959 L 1549.56 231.959 L 1549.14 236.159 Q 1550.4 235.659, 1551.64 235.659 " fill="#000000"/>
<path class="note" d="M 1551.92 102.948 Q 1553.16 102.948, 1554.14 103.488 Q 1555.12 104.028, 1555.66 105.008 Q 1556.2 105.988, 1556.2 107.228 Q 1556.2 108.608, 1555.58 109.688 Q 1554.98 110.748, 1553.9 111.348 Q 1552.82 111.948, 1551.44 111.948 Q 1548.92 111.948, 1547.64 110.248 Q 1546.38 108.528, 1546.38 105.128 Q 1546.38 101.368, 1547.94 99.4277 Q 1549.52 97.4677, 1552.54 97.4677 Q 1553.42 97.4677, 1554.16 97.6677 Q 1554.92 97.8677, 1555.64 98.2877 L 1554.86 99.6277 Q 1553.82 99.0677, 1552.56 99.0677 Q 1550.56 99.0677, 1549.54 100.368 Q 1548.52 101.648, 1548.4 104.308 Q 1549.12 103.648, 1550.02 103.308 Q 1550.94 102.948, 1551.92 102.948 M 1551.46 110.308 Q 1552.22 110.308, 1552.84 109.908 Q 1553.48 109.508, 1553.84 108.808 Q 1554.2 108.108, 1554.2 107.248 Q 1554.2 105.988, 1553.5 105.268 Q 1552.8 104.548, 1551.56 104.548 Q 1550.7 104.548, 1549.84 104.908 Q 1549 105.248, 1548.4 105.848 Q 1548.48 108.188, 1549.22 109.248 Q 1549.96 110.308, 1551.46 110.308 " fill="#000000"/>
<path class="note" d="M 1688.2 21.6743 L 1680.78 21.6743 L 1680.78 20.0743 L 1690.18 20.0743 L 1690.18 21.4943 L 1684.46 34.2343 L 1682.54 34.2343 L 1688.2 21.6743 " fill="#000000"/>
<path class="note" d="M 1821.89 104.288 Q 1823.19 104.848, 1823.93 105.688 Q 1824.67 106.508, 1824.67 107.908 Q 1824.67 109.108, 1824.05 110.048 Q 1823.43 110.968, 1822.31 111.488 Q 1821.21 111.988, 1819.75 111.988 Q 1817.39 111.988, 1816.03 110.908 Q 1814.67 109.808, 1814.67 107.908 Q 1814.67 106.748, 1815.27 105.888 Q 1815.87 105.008, 1817.11 104.348 Q 1816.19 103.828, 1815.69 103.068 Q 1815.19 102.288, 1815.19 101.088 Q 1815.19 99.4277, 1816.39 98.4477 Q 1817.61 97.4677, 1819.67 97.4677 Q 1821.73 97.4677, 1822.93 98.4477 Q 1824.15 99.4277, 1824.15 101.088 Q 1824.15 102.128, 1823.57 102.908 Q 1823.01 103.668, 1821.89 104.288 M 1819.67 98.9677 Q 1818.49 98.9677, 1817.83 99.5277 Q 1817.19 100.088, 1817.19 101.088 Q 1817.19 101.828, 1817.63 102.328 Q 1818.07 102.808, 1818.69 103.088 Q 1819.33 103.368, 1820.55 103.788 Q 1821.41 103.188, 1821.77 102.548 Q 1822.15 101.908, 1822.15 101.088 Q 1822.15 100.088, 1821.49 99.5277 Q 1820.85 98.9677, 1819.67 98.9677 M 1819.75 110.488 Q 1821.07 110.488, 1821.87 109.788 Q 1822.67 109.068, 1822.67 107.888 Q 1822.67 107.128, 1822.25 106.648 Q 1821.83 106.168, 1821.19 105.888 Q 1820.57 105.608, 1819.45 105.248 L 1818.55 104.948 Q 1817.55 105.548, 1817.11 106.268 Q 1816.67 106.968, 1816.67 107.888 Q 1816.67 109.068, 1817.51 109.788 Q 1818.35 110.488, 1819.75 110.488 " fill="#000000"/>
<path class="note" d="M 1819.52 230.279 Q 1822.04 230.279, 1823.3 231.999 Q 1824.58 233.699, 1824.58 237.099 Q 1824.58 240.859, 1823 242.819 Q 1821.44 244.759, 1818.42 244.759 Q 1817.54 244.759, 1816.78 244.559 Q 1816.04 244.359, 1815.32 243.939 L 1816.1 242.599 Q 1817.14 243.159, 1818.4 243.159 Q 1820.4 243.159, 1821.42 241.879 Q 1822.44 240.579, 1822.56 237.919 Q 1821.84 238.579, 1820.92 238.939 Q 1820.02 239.279, 1819.04 239.279 Q 1817.8 239.279, 1816.82 238.739 Q 1815.84 238.199, 1815.3 237.219 Q 1814.76 236.239, 1814.76 234.999 Q 1814.76 233.619, 1815.36 232.559 Q 1815.98 231.479, 1817.06 230.879 Q 1818.14 230.279, 1819.52 230.279 M 1816.76 234.979 Q 1816.76 236.239, 1817.46 236.959 Q 1818.16 237.679, 1819.4 237.679 Q 1820.26 237.679, 1821.1 237.339 Q 1821.96 236.979, 1822.56 236.379 Q 1822.48 234.039, 1821.74 232.979 Q 1821 231.919, 1819.5 231.919 Q 1818.74 231.919, 1818.1 232.319 Q 1817.48 232.719, 1817.12 233.419 Q 1816.76 234.119, 1816.76 234.979 " fill="#000000"/>
<path class="note" d="M 1940.3 342.608 L 1943.4 342.608 L 1943.4 332.028 L 1939.98 333.088 L 1939.52 331.908 L 1943.86 329.968 L 1945.28 330.208 L 1945.28 342.608 L 1948.06 342.608 L 1948.06 344.208 L 1940.3 344.208 L 1940.3 342.608 " fill="#000000"/>
<path class="note" d="M 1954.46 344.368 Q 1951.86 344.368, 1950.56 342.448 Q 1949.28 340.528, 1949.28 337.108 Q 1949.28 333.688, 1950.56 331.788 Q 1951.84 329.888, 1954.46 329.888 Q 1957.08 329.888, 1958.36 331.788 Q 1959.64 333.688, 1959.64 337.108 Q 1959.64 340.528, 1958.34 342.448 Q 1957.06 344.368, 1954.46 344.368 M 1954.46 342.768 Q 1956 342.768, 1956.82 341.348 Q 1957.64 339.908, 1957.64 337.108 Q 1957.64 334.328, 1956.82 332.908 Q 1956 331.488, 1954.46 331.488 Q 1952.94 331.488, 1952.1 332.908 Q 1951.28 334.328, 1951.28 337.108 Q 1951.28 339.908, 1952.1 341.348 Q 1952.94 342.768, 1954.46 342.768 " fill="#000000"/>
<path class="note" d="M 1653.74 331.5 L 1656.84 331.5 L 1656.84 320.92 L 1653.42 321.98 L 1652.96 320.8 L 1657.3 318.86 L 1658.72 319.1 L 1658.72 331.5 L 1661.5 331.5 L 1661.5 333.1 L 1653.74 333.1 L 1653.74 331.5 " fill="#000000"/>
<path class="note" d="M 1663.36 331.5 L 1666.46 331.5 L 1666.46 320.92 L 1663.04 321.98 L 1662.58 320.8 L 1666.92 318.86 L 1668.34 319.1 L 1668.34 331.5 L 1671.12 331.5 L 1671.12 333.1 L 1663.36 333.1 L 1663.36 331.5 " fill="#000000"/>
<path class="note" d="M 1694.58 453.284 L 1697.68 453.284 L 1697.68 442.704 L 1694.26 443.764 L 1693.8 442.584 L 1698.14 440.644 L 1699.56 440.884 L 1699.56 453.284 L 1702.34 453.284 L 1702.34 454.884 L 1694.58 454.884 L 1694.58 453.284 " fill="#000000"/>
<path class="note" d="M 1703.38 443.404 Q 1703.9 442.064, 1705.14 441.324 Q 1706.38 440.564, 1708.1 440.564 Q 1710.24 440.564, 1711.44 441.724 Q 1712.64 442.884, 1712.64 444.944 Q 1712.64 447.044, 1711.08 449.004 Q 1709.54 450.964, 1706.34 453.284 L 1712.88 453.284 L 1712.88 454.884 L 1703.34 454.884 L 1703.34 453.544 Q 1705.98 451.664, 1707.54 450.264 Q 1709.12 448.864, 1709.88 447.604 Q 1710.64 446.344, 1710.64 445.044 Q 1710.64 443.684, 1709.96 442.924 Q 1709.28 442.164, 1708.1 442.164 Q 1706.96 442.164, 1706.2 442.624 Q 1705.44 443.084, 1704.9 444.104 L 1703.38 443.404 " fill="#000000"/>
<path class="note" d="M 2645.49 345.859 L 2648.59 345.859 L 2648.59 335.279 L 2645.17 336.339 L 2644.71 335.159 L 2649.05 333.219 L 2650.47 333.459 L 2650.47 345.859 L 2653.25 345.859 L 2653.25 347.459 L 2645.49 347.459 L 2645.49 345.859 " fill="#000000"/>
<path class="note" d="M 2747.74 271.824 Q 2748.26 270.484, 2749.5 269.744 Q 2750.74 268.984, 2752.46 268.984 Q 2754.6 268.984, 2755.8 270.144 Q 2757 271.304, 2757 273.364 Q 2757 275.464, 2755.44 277.424 Q 2753.9 279.384, 2750.7 281.704 L 2757.24 281.704 L 2757.24 283.304 L 2747.7 283.304 L 2747.7 281.964 Q 2750.34 280.084, 2751.9 278.684 Q 2753.48 277.284, 2754.24 276.024 Q 2755 274.764, 2755 273.464 Q 2755 272.104, 2754.32 271.344 Q 2753.64 270.584, 2752.46 270.584 Q 2751.32 270.584, 2750.56 271.044 Q 2749.8 271.504, 2749.26 272.524 L 2747.74 271.824 " fill="#000000"/>
<path class="note" d="M 2753.06 76.6319 Q 2754.44 77.0319, 2755.1 77.9319 Q 2755.78 78.8119, 2755.78 80.2119 Q 2755.78 81.4119, 2755.18 82.3519 Q 2754.58 83.2719, 2753.48 83.7919 Q 2752.38 84.2919, 2750.94 84.2919 Q 2749.42 84.2919, 2748.28 83.7719 Q 2747.16 83.2319, 2746.26 82.1519 L 2747.4 80.9919 Q 2748.28 81.9519, 2749.02 82.3319 Q 2749.76 82.6919, 2750.94 82.6919 Q 2752.22 82.6919, 2753 82.0119 Q 2753.78 81.3119, 2753.78 80.1919 Q 2753.78 78.7519, 2752.96 78.1119 Q 2752.16 77.4519, 2750.42 77.4519 L 2749.4 77.4519 L 2749.4 76.0119 L 2750.3 76.0119 Q 2751.84 75.9919, 2752.66 75.3319 Q 2753.48 74.6519, 2753.48 73.3919 Q 2753.48 72.4719, 2752.8 71.9319 Q 2752.12 71.3719, 2750.96 71.3719 Q 2749.78 71.3719, 2749.04 71.7919 Q 2748.32 72.2119, 2747.76 73.2719 L 2746.38 72.5319 Q 2746.88 71.3519, 2748.08 70.5719 Q 2749.28 69.7719, 2750.96 69.7719 Q 2753.04 69.7719, 2754.26 70.7519 Q 2755.48 71.7319, 2755.48 73.3919 Q 2755.48 74.5319, 2754.86 75.3519 Q 2754.24 76.1719, 2753.06 76.6319 " fill="#000000"/>
<path class="note" d="M 2893.97 359.974 L 2895.67 359.974 L 2895.67 361.574 L 2893.97 361.574 L 2893.97 364.834 L 2892.09 364.834 L 2892.09 361.574 L 2884.77 361.574 L 2884.77 360.314 L 2890.97 350.674 L 2893.97 350.674 L 2893.97 359.974 M 2887.09 359.974 L 2892.09 359.974 L 2892.09 351.954 L 2887.09 359.974 " fill="#000000"/>
<path class="note" d="M 2963.44 239.627 Q 2964.68 239.627, 2965.7 240.167 Q 2966.72 240.687, 2967.3 241.687 Q 2967.88 242.667, 2967.88 244.007 Q 2967.88 245.467, 2967.16 246.527 Q 2966.46 247.567, 2965.3 248.107 Q 2964.14 248.647, 2962.82 248.647 Q 2961.52 248.647, 2960.32 248.167 Q 2959.12 247.687, 2958.3 246.767 L 2959.5 245.527 Q 2960.16 246.247, 2961.06 246.647 Q 2961.96 247.027, 2962.88 247.027 Q 2964.14 247.027, 2965 246.247 Q 2965.88 245.467, 2965.88 244.047 Q 2965.88 242.547, 2965 241.847 Q 2964.14 241.127, 2962.76 241.127 Q 2961.52 241.127, 2960.14 241.667 L 2959.04 241.147 L 2959.72 234.327 L 2967 234.327 L 2966.8 235.927 L 2961.36 235.927 L 2960.94 240.127 Q 2962.2 239.627, 2963.44 239.627 " fill="#000000"/>
<path class="note" d="M 2962.75 106.919 Q 2963.99 106.919, 2964.97 107.459 Q 2965.95 107.999, 2966.49 108.979 Q 2967.03 109.959, 2967.03 111.199 Q 2967.03 112.579, 2966.41 113.659 Q 2965.81 114.719, 2964.73 115.319 Q 2963.65 115.919, 2962.27 115.919 Q 2959.75 115.919, 2958.47 114.219 Q 2957.21 112.499, 2957.21 109.099 Q 2957.21 105.339, 2958.77 103.399 Q 2960.35 101.439, 2963.37 101.439 Q 2964.25 101.439, 2964.99 101.639 Q 2965.75 101.839, 2966.47 102.259 L 2965.69 103.599 Q 2964.65 103.039, 2963.39 103.039 Q 2961.39 103.039, 2960.37 104.339 Q 2959.35 105.619, 2959.23 108.279 Q 2959.95 107.619, 2960.85 107.279 Q 2961.77 106.919, 2962.75 106.919 M 2962.29 114.279 Q 2963.05 114.279, 2963.67 113.879 Q 2964.31 113.479, 2964.67 112.779 Q 2965.03 112.079, 2965.03 111.219 Q 2965.03 109.959, 2964.33 109.239 Q 2963.63 108.519, 2962.39 108.519 Q 2961.53 108.519, 2960.67 108.879 Q 2959.83 109.219, 2959.23 109.819 Q 2959.31 112.159, 2960.05 113.219 Q 2960.79 114.279, 2962.29 114.279 " fill="#000000"/>
<path class="note" d="M 3098.46 24.6716 L 3091.04 24.6716 L 3091.04 23.0716 L 3100.44 23.0716 L 3100.44 24.4916 L 3094.72 37.2316 L 3092.8 37.2316 L 3098.46 24.6716 " fill="#000000"/>
<path class="note" d="M 3232.71 106.306 Q 3234.01 106.866, 3234.75 107.706 Q 3235.49 108.526, 3235.49 109.926 Q 3235.49 111.126, 3234.87 112.066 Q 3234.25 112.986, 3233.13 113.506 Q 3232.03 114.006, 3230.57 114.006 Q 3228.21 114.006, 3226.85 112.926 Q 3225.49 111.826, 3225.49 109.926 Q 3225.49 108.766, 3226.09 107.906 Q 3226.69 107.026, 3227.93 106.366 Q 3227.01 105.846, 3226.51 105.086 Q 3226.01 104.306, 3226.01 103.106 Q 3226.01 101.446, 3227.21 100.466 Q 3228.43 99.4865, 3230.49 99.4865 Q 3232.55 99.4865, 3233.75 100.466 Q 3234.97 101.446, 3234.97 103.106 Q 3234.97 104.146, 3234.39 104.926 Q 3233.83 105.686, 3232.71 106.306 M 3230.49 100.986 Q 3229.31 100.986, 3228.65 101.546 Q 3228.01 102.106, 3228.01 103.106 Q 3228.01 103.846, 3228.45 104.346 Q 3228.89 104.826, 3229.51 105.106 Q 3230.15 105.386, 3231.37 105.806 Q 3232.23 105.206, 3232.59 104.566 Q 3232.97 103.926, 3232.97 103.106 Q 3232.97 102.106, 3232.31 101.546 Q 3231.67 100.986, 3230.49 100.986 M 3230.57 112.506 Q 3231.89 112.506, 3232.69 111.806 Q 3233.49 111.086, 3233.49 109.906 Q 3233.49 109.146, 3233.07 108.666 Q 3232.65 108.186, 3232.01 107.906 Q 3231.39 107.626, 3230.27 107.266 L 3229.37 106.966 Q 3228.37 107.566, 3227.93 108.286 Q 3227.49 108.986, 3227.49 109.906 Q 3227.49 111.086, 3228.33 111.806 Q 3229.17 112.506, 3230.57 112.506 " fill="#000000"/>
<path class="note" d="M 3231.3 232.295 Q 3233.82 232.295, 3235.08 234.015 Q 3236.36 235.715, 3236.36 239.115 Q 3236.36 242.875, 3234.78 244.835 Q 3233.22 246.775, 3230.2 246.775 Q 3229.32 246.775, 3228.56 246.575 Q 3227.82 246.375, 3227.1 245.955 L 3227.88 244.615 Q 3228.92 245.175, 3230.18 245.175 Q 3232.18 245.175, 3233.2 243.895 Q 3234.22 242.595, 3234.34 239.935 Q 3233.62 240.595, 3232.7 240.955 Q 3231.8 241.295, 3230.82 241.295 Q 3229.58 241.295, 3228.6 240.755 Q 3227.62 240.215, 3227.08 239.235 Q 3226.54 238.255, 3226.54 237.015 Q 3226.54 235.635, 3227.14 234.575 Q 3227.76 233.495, 3228.84 232.895 Q 3229.92 232.295, 3231.3 232.295 M 3228.54 236.995 Q 3228.54 238.255, 3229.24 238.975 Q 3229.94 239.695, 3231.18 239.695 Q 3232.04 239.695, 3232.88 239.355 Q 3233.74 238.995, 3234.34 238.395 Q 3234.26 236.055, 3233.52 234.995 Q 3232.78 233.935, 3231.28 233.935 Q 3230.52 233.935, 3229.88 234.335 Q 3229.26 234.735, 3228.9 235.435 Q 3228.54 236.135, 3228.54 236.995 " fill="#000000"/>
<path class="note" d="M 3352.81 343.644 L 3355.91 343.644 L 3355.91 333.064 L 3352.49 334.124 L 3352.03 332.944 L 3356.37 331.004 L 3357.79 331.244 L 3357.79 343.644 L 3360.57 343.644 L 3360.57 345.244 L 3352.81 345.244 L 3352.81 343.644 " fill="#000000"/>
<path class="note" d="M 3366.97 345.404 Q 3364.37 345.404, 3363.07 343.484 Q 3361.79 341.564, 3361.79 338.144 Q 3361.79 334.724, 3363.07 332.824 Q 3364.35 330.924, 3366.97 330.924 Q 3369.59 330.924, 3370.87 332.824 Q 3372.15 334.724, 3372.15 338.144 Q 3372.15 341.564, 3370.85 343.484 Q 3369.57 345.404, 3366.97 345.404 M 3366.97 343.804 Q 3368.51 343.804, 3369.33 342.384 Q 3370.15 340.944, 3370.15 338.144 Q 3370.15 335.364, 3369.33 333.944 Q 3368.51 332.524, 3366.97 332.524 Q 3365.45 332.524, 3364.61 333.944 Q 3363.79 335.364, 3363.79 338.144 Q 3363.79 340.944, 3364.61 342.384 Q 3365.45 343.804, 3366.97 343.804 " fill="#000000"/>
<path class="note" d="M 3066.18 334.629 L 3069.28 334.629 L 3069.28 324.049 L 3065.86 325.109 L 3065.4 323.929 L 3069.74 321.989 L 3071.16 322.229 L 3071.16 334.629 L 3073.94 334.629 L 3073.94 336.229 L 3066.18 336.229 L 3066.18 334.629 " fill="#000000"/>
<path class="note" d="M 3075.8 334.629 L 3078.9 334.629 L 3078.9 324.049 L 3075.48 325.109 L 3075.02 323.929 L 3079.36 321.989 L 3080.78 322.229 L 3080.78 334.629 L 3083.56 334.629 L 3083.56 336.229 L 3075.8 336.229 L 3075.8 334.629 " fill="#000000"/>
<path class="note" d="M 3107.91 456.109 L 3111.01 456.109 L 3111.01 445.529 L 3107.59 446.589 L 3107.13 445.409 L 3111.47 443.469 L 3112.89 443.709 L 3112.89 456.109 L 3115.67 456.109 L 3115.67 457.709 L 3107.91 457.709 L 3107.91 456.109 " fill="#000000"/>
<path class="note" d="M 3116.71 446.229 Q 3117.23 444.889, 3118.47 444.149 Q 3119.71 443.389, 3121.43 443.389 Q 3123.57 443.389, 3124.77 444.549 Q 3125.97 445.709, 3125.97 447.769 Q 3125.97 449.869, 3124.41 451.829 Q 3122.87 453.789, 3119.67 456.109 L 3126.21 456.109 L 3126.21 457.709 L 3116.67 457.709 L 3116.67 456.369 Q 3119.31 454.489, 3120.87 453.089 Q 3122.45 451.689, 3123.21 450.429 Q 3123.97 449.169, 3123.97 447.869 Q 3123.97 446.509, 3123.29 445.749 Q 3122.61 444.989, 3121.43 444.989 Q 3120.29 444.989, 3119.53 445.449 Q 3118.77 445.909, 3118.23 446.929 L 3116.71 446.229 " fill="#000000"/>
<path d="M 1238.63 247.696 L 1244.68 247.696 L 1244.68 241.328 L 1247.37 241.328 L 1247.37 247.696 L 1253.58 247.696 L 1253.58 250 L 1247.37 250 L 1247.37 256.4 L 1244.68 256.4 L 1244.68 250 L 1238.63 250 L 1238.63 247.696 " fill="#000000"/>
<path d="M 2092.03,250 L 2441.11,250" style="fill:none;fill-rule:evenodd;stroke:#000000;stroke-width:2.0px;stroke-linecap:butt;stroke-linejoin:miter;stroke-opacity:1"/>
<path d="M 2441.11,250 L 2425.99,241.273" style="fill:none;fill-rule:evenodd;stroke:#000000;stroke-width:2.0px;stroke-linecap:butt;stroke-linejoin:miter;stroke-opacity:1"/>
<path d="M 2441.11,250 L 2425.99,258.727" style="fill:none;fill-rule:evenodd;stroke:#000000;stroke-width:2.0px;stroke-linecap:butt;stroke-linejoin:miter;stroke-opacity:1"/>
</svg>