<svg xmlns="http://www.w3.org/2000/svg" xmlns:rdkit="http://www.rdkit.org/xml" xmlns:xlink="http://www.w3.org/1999/xlink" version="1.1" baseProfile="full" xml:space="preserve" width="4000px" height="500px" viewBox="0 0 4000 500">
<!-- END OF HEADER -->
<rect style="opacity:1.0;fill:#FFFFFF;stroke:none" width="4000" height="500" x="0" y="0"> </rect>
<path d="M 454.689,154.779 L 591.124,233.55" style="fill:none;fill-rule:evenodd;stroke:#FFFFAA;stroke-width:33.6px;stroke-linecap:butt;stroke-linejoin:miter;stroke-opacity:1"/>
<path d="M 591.124,233.55 L 727.56,154.779" style="fill:none;fill-rule:evenodd;stroke:#FFFFAA;stroke-width:33.6px;stroke-linecap:butt;stroke-linejoin:miter;stroke-opacity:1"/>
<path d="M 591.124,233.55 L 591.124,391.092" style="fill:none;fill-rule:evenodd;stroke:#FFFFAA;stroke-width:33.6px;stroke-linecap:butt;stroke-linejoin:miter;stroke-opacity:1"/>
<path d="M 1942.97,244.803 L 1785.43,244.803" style="fill:none;fill-rule:evenodd;stroke:#FFCC99;stroke-width:33.6px;stroke-linecap:butt;stroke-linejoin:miter;stroke-opacity:1"/>
<path d="M 1785.43,244.803 L 1627.89,244.803" style="fill:none;fill-rule:evenodd;stroke:#FFCC99;stroke-width:33.6px;stroke-linecap:butt;stroke-linejoin:miter;stroke-opacity:1"/>
<path d="M 1627.89,244.803 L 1549.12,381.238" style="fill:none;fill-rule:evenodd;stroke:#FFCC99;stroke-width:33.6px;stroke-linecap:butt;stroke-linejoin:miter;stroke-opacity:1"/>
<path d="M 1627.89,244.803 L 1549.12,108.368" style="fill:none;fill-rule:evenodd;stroke:#FFCC99;stroke-width:33.6px;stroke-linecap:butt;stroke-linejoin:miter;stroke-opacity:1"/>
<path d="M 1549.12,381.238 L 1391.58,381.238" style="fill:none;fill-rule:evenodd;stroke:#FFCC99;stroke-width:33.6px;stroke-linecap:butt;stroke-linejoin:miter;stroke-opacity:1"/>
<path d="M 1391.58,381.238 L 1312.81,244.803" style="fill:none;fill-rule:evenodd;stroke:#FFCC99;stroke-width:33.6px;stroke-linecap:butt;stroke-linejoin:miter;stroke-opacity:1"/>
<path d="M 1312.81,244.803 L 1155.26,244.803" style="fill:none;fill-rule:evenodd;stroke:#FFCC99;stroke-width:33.6px;stroke-linecap:butt;stroke-linejoin:miter;stroke-opacity:1"/>
<path d="M 1312.81,244.803 L 1391.58,108.368" style="fill:none;fill-rule:evenodd;stroke:#FFCC99;stroke-width:33.6px;stroke-linecap:butt;stroke-linejoin:miter;stroke-opacity:1"/>
<path d="M 1391.58,108.368 L 1549.12,108.368" style="fill:none;fill-rule:evenodd;stroke:#FFCC99;stroke-width:33.6px;stroke-linecap:butt;stroke-linejoin:miter;stroke-opacity:1"/>
<path d="M 2756.04,307.799 L 2910.4,276.319" style="fill:none;fill-rule:evenodd;stroke:#FFCC99;stroke-width:33.6px;stroke-linecap:butt;stroke-linejoin:miter;stroke-opacity:1"/>
<path d="M 2910.4,276.319 L 3064.77,244.839" style="fill:none;fill-rule:evenodd;stroke:#FFCC99;stroke-width:33.6px;stroke-linecap:butt;stroke-linejoin:miter;stroke-opacity:1"/>
<path d="M 3064.77,244.839 L 3114.69,95.4147" style="fill:none;fill-rule:evenodd;stroke:#FFCC99;stroke-width:33.6px;stroke-linecap:butt;stroke-linejoin:miter;stroke-opacity:1"/>
<path d="M 3064.77,244.839 L 3169.21,362.782" style="fill:none;fill-rule:evenodd;stroke:#FFCC99;stroke-width:33.6px;stroke-linecap:butt;stroke-linejoin:miter;stroke-opacity:1"/>
<path d="M 3114.69,95.4147 L 3269.05,63.9346" style="fill:none;fill-rule:evenodd;stroke:#FFCC99;stroke-width:33.6px;stroke-linecap:butt;stroke-linejoin:miter;stroke-opacity:1"/>
<path d="M 3269.05,63.9346 L 3373.5,181.878" style="fill:none;fill-rule:evenodd;stroke:#FFCC99;stroke-width:33.6px;stroke-linecap:butt;stroke-linejoin:miter;stroke-opacity:1"/>
<path d="M 3373.5,181.878 L 3527.86,150.398" style="fill:none;fill-rule:evenodd;stroke:#FFCC99;stroke-width:33.6px;stroke-linecap:butt;stroke-linejoin:miter;stroke-opacity:1"/>
<path d="M 3373.5,181.878 L 3323.58,331.302" style="fill:none;fill-rule:evenodd;stroke:#FFCC99;stroke-width:33.6px;stroke-linecap:butt;stroke-linejoin:miter;stroke-opacity:1"/>
<path d="M 3632.31,268.342 L 3786.67,236.862" style="fill:none;fill-rule:evenodd;stroke:#FFFFAA;stroke-width:33.6px;stroke-linecap:butt;stroke-linejoin:miter;stroke-opacity:1"/>
<path d="M 3632.31,268.342 L 3582.39,417.766" style="fill:none;fill-rule:evenodd;stroke:#FFFFAA;stroke-width:33.6px;stroke-linecap:butt;stroke-linejoin:miter;stroke-opacity:1"/>
<path d="M 3323.58,331.302 L 3169.21,362.782" style="fill:none;fill-rule:evenodd;stroke:#FFCC99;stroke-width:33.6px;stroke-linecap:butt;stroke-linejoin:miter;stroke-opacity:1"/>
<ellipse cx="591.124" cy="233.55" rx="31.5084" ry="31.5084" style="fill:#FFFFAA;fill-rule:evenodd;stroke:#FFFFAA;stroke-width:1px;stroke-linecap:butt;stroke-linejoin:miter;stroke-opacity:1"/>
<ellipse cx="727.56" cy="154.779" rx="31.5084" ry="31.5084" style="fill:#FFFFAA;fill-rule:evenodd;stroke:#FFFFAA;stroke-width:1px;stroke-linecap:butt;stroke-linejoin:miter;stroke-opacity:1"/>
<ellipse cx="591.124" cy="391.312" rx="31.5084" ry="31.5084" style="fill:#FFFFAA;fill-rule:evenodd;stroke:#FFFFAA;stroke-width:1px;stroke-linecap:butt;stroke-linejoin:miter;stroke-opacity:1"/>
<ellipse cx="1942.97" cy="244.803" rx="31.5084" ry="31.5084" style="fill:#FFCC99;fill-rule:evenodd;stroke:#FFCC99;stroke-width:1px;stroke-linecap:butt;stroke-linejoin:miter;stroke-opacity:1"/>
<ellipse cx="1785.43" cy="244.803" rx="31.5084" ry="31.5084" style="fill:#FFCC99;fill-rule:evenodd;stroke:#FFCC99;stroke-width:1px;stroke-linecap:butt;stroke-linejoin:miter;stroke-opacity:1"/>
<ellipse cx="1627.89" cy="244.803" rx="31.5084" ry="31.5084" style="fill:#FFCC99;fill-rule:evenodd;stroke:#FFCC99;stroke-width:1px;stroke-linecap:butt;stroke-linejoin:miter;stroke-opacity:1"/>
<ellipse cx="1549.12" cy="381.238" rx="31.5084" ry="31.5084" style="fill:#FFCC99;fill-rule:evenodd;stroke:#FFCC99;stroke-width:1px;stroke-linecap:butt;stroke-linejoin:miter;stroke-opacity:1"/>
<ellipse cx="1391.58" cy="381.238" rx="31.5084" ry="31.5084" style="fill:#FFCC99;fill-rule:evenodd;stroke:#FFCC99;stroke-width:1px;stroke-linecap:butt;stroke-linejoin:miter;stroke-opacity:1"/>
<ellipse cx="1312.81" cy="244.803" rx="31.5084" ry="31.5084" style="fill:#FFCC99;fill-rule:evenodd;stroke:#FFCC99;stroke-width:1px;stroke-linecap:butt;stroke-linejoin:miter;stroke-opacity:1"/>
<ellipse cx="1135.57" cy="251.883" rx="43.0436" ry="31.5084" style="fill:#FFCC99;fill-rule:evenodd;stroke:#FFCC99;stroke-width:1px;stroke-linecap:butt;stroke-linejoin:miter;stroke-opacity:1"/>
<ellipse cx="1391.58" cy="108.368" rx="31.5084" ry="31.5084" style="fill:#FFCC99;fill-rule:evenodd;stroke:#FFCC99;stroke-width:1px;stroke-linecap:butt;stroke-linejoin:miter;stroke-opacity:1"/>
<ellipse cx="1549.12" cy="108.368" rx="31.5084" ry="31.5084" style="fill:#FFCC99;fill-rule:evenodd;stroke:#FFCC99;stroke-width:1px;stroke-linecap:butt;stroke-linejoin:miter;stroke-opacity:1"/>
<ellipse cx="2756.04" cy="307.799" rx="31.5084" ry="31.5084" style="fill:#FFCC99;fill-rule:evenodd;stroke:#FFCC99;stroke-width:1px;stroke-linecap:butt;stroke-linejoin:miter;stroke-opacity:1"/>
<ellipse cx="2910.4" cy="276.319" rx="31.5084" ry="31.5084" style="fill:#FFCC99;fill-rule:evenodd;stroke:#FFCC99;stroke-width:1px;stroke-linecap:butt;stroke-linejoin:miter;stroke-opacity:1"/>
<ellipse cx="3064.77" cy="244.839" rx="31.5084" ry="31.5084" style="fill:#FFCC99;fill-rule:evenodd;stroke:#FFCC99;stroke-width:1px;stroke-linecap:butt;stroke-linejoin:miter;stroke-opacity:1"/>
<ellipse cx="3114.69" cy="95.4147" rx="31.5084" ry="31.5084" style="fill:#FFCC99;fill-rule:evenodd;stroke:#FFCC99;stroke-width:1px;stroke-linecap:butt;stroke-linejoin:miter;stroke-opacity:1"/>
<ellipse cx="3269.05" cy="63.9346" rx="31.5084" ry="31.5084" style="fill:#FFCC99;fill-rule:evenodd;stroke:#FFCC99;stroke-width:1px;stroke-linecap:butt;stroke-linejoin:miter;stroke-opacity:1"/>
<ellipse cx="3373.5" cy="181.878" rx="31.5084" ry="31.5084" style="fill:#FFCC99;fill-rule:evenodd;stroke:#FFCC99;stroke-width:1px;stroke-linecap:butt;stroke-linejoin:miter;stroke-opacity:1"/>
<ellipse cx="3527.86" cy="134.822" rx="31.5084" ry="42.0531" style="fill:#FFCC99;fill-rule:evenodd;stroke:#FFCC99;stroke-width:1px;stroke-linecap:butt;stroke-linejoin:miter;stroke-opacity:1"/>
<ellipse cx="3632.31" cy="268.342" rx="31.5084" ry="31.5084" style="fill:#FFFFAA;fill-rule:evenodd;stroke:#FFFFAA;stroke-width:1px;stroke-linecap:butt;stroke-linejoin:miter;stroke-opacity:1"/>
<ellipse cx="3786.67" cy="236.862" rx="31.5084" ry="31.5084" style="fill:#FFFFAA;fill-rule:evenodd;stroke:#FFFFAA;stroke-width:1px;stroke-linecap:butt;stroke-linejoin:miter;stroke-opacity:1"/>
<ellipse cx="3582.39" cy="417.986" rx="31.5084" ry="31.5084" style="fill:#FFFFAA;fill-rule:evenodd;stroke:#FFFFAA;stroke-width:1px;stroke-linecap:butt;stroke-linejoin:miter;stroke-opacity:1"/>
<ellipse cx="3323.58" cy="331.302" rx="31.5084" ry="31.5084" style="fill:#FFCC99;fill-rule:evenodd;stroke:#FFCC99;stroke-width:1px;stroke-linecap:butt;stroke-linejoin:miter;stroke-opacity:1"/>
<ellipse cx="3169.21" cy="362.782" rx="31.5084" ry="31.5084" style="fill:#FFCC99;fill-rule:evenodd;stroke:#FFCC99;stroke-width:1px;stroke-linecap:butt;stroke-linejoin:miter;stroke-opacity:1"/>
<path class="bond-0" d="M 181.818,154.779 L 318.254,233.55" style="fill:none;fill-rule:evenodd;stroke:#000000;stroke-width:2.0px;stroke-linecap:butt;stroke-linejoin:miter;stroke-opacity:1"/>
<path class="bond-1" d="M 302.499,233.55 L 302.499,303.192" style="fill:none;fill-rule:evenodd;stroke:#000000;stroke-width:2.0px;stroke-linecap:butt;stroke-linejoin:miter;stroke-opacity:1"/>
<path class="bond-1" d="M 302.499,303.192 L 302.499,372.833" style="fill:none;fill-rule:evenodd;stroke:#FF0000;stroke-width:2.0px;stroke-linecap:butt;stroke-linejoin:miter;stroke-opacity:1"/>
<path class="bond-1" d="M 334.008,233.55 L 334.008,303.192" style="fill:none;fill-rule:evenodd;stroke:#000000;stroke-width:2.0px;stroke-linecap:butt;stroke-linejoin:miter;stroke-opacity:1"/>
<path class="bond-1" d="M 334.008,303.192 L 334.008,372.833" style="fill:none;fill-rule:evenodd;stroke:#FF0000;stroke-width:2.0px;stroke-linecap:butt;stroke-linejoin:miter;stroke-opacity:1"/>
<path class="bond-2" d="M 318.254,233.55 L 378.002,199.054" style="fill:none;fill-rule:evenodd;stroke:#000000;stroke-width:2.0px;stroke-linecap:butt;stroke-linejoin:miter;stroke-opacity:1"/>
<path class="bond-2" d="M 378.002,199.054 L 437.75,164.558" style="fill:none;fill-rule:evenodd;stroke:#FF0000;stroke-width:2.0px;stroke-linecap:butt;stroke-linejoin:miter;stroke-opacity:1"/>
<path class="bond-3" d="M 471.627,164.558 L 531.376,199.054" style="fill:none;fill-rule:evenodd;stroke:#FF0000;stroke-width:2.0px;stroke-linecap:butt;stroke-linejoin:miter;stroke-opacity:1"/>
<path class="bond-3" d="M 531.376,199.054 L 591.124,233.55" style="fill:none;fill-rule:evenodd;stroke:#000000;stroke-width:2.0px;stroke-linecap:butt;stroke-linejoin:miter;stroke-opacity:1"/>
<path class="bond-4" d="M 591.124,233.55 L 727.56,154.779" style="fill:none;fill-rule:evenodd;stroke:#000000;stroke-width:2.0px;stroke-linecap:butt;stroke-linejoin:miter;stroke-opacity:1"/>
<path class="bond-5" d="M 575.37,233.55 L 575.37,303.192" style="fill:none;fill-rule:evenodd;stroke:#000000;stroke-width:2.0px;stroke-linecap:butt;stroke-linejoin:miter;stroke-opacity:1"/>
<path class="bond-5" d="M 575.37,303.192 L 575.37,372.833" style="fill:none;fill-rule:evenodd;stroke:#FF0000;stroke-width:2.0px;stroke-linecap:butt;stroke-linejoin:miter;stroke-opacity:1"/>
<path class="bond-5" d="M 606.879,233.55 L 606.879,303.192" style="fill:none;fill-rule:evenodd;stroke:#000000;stroke-width:2.0px;stroke-linecap:butt;stroke-linejoin:miter;stroke-opacity:1"/>
<path class="bond-5" d="M 606.879,303.192 L 606.879,372.833" style="fill:none;fill-rule:evenodd;stroke:#FF0000;stroke-width:2.0px;stroke-linecap:butt;stroke-linejoin:miter;stroke-opacity:1"/>
<path class="bond-6" d="M 1942.97,244.803 L 1785.43,244.803" style="fill:none;fill-rule:evenodd;stroke:#000000;stroke-width:2.0px;stroke-linecap:butt;stroke-linejoin:miter;stroke-opacity:1"/>
<path class="bond-6" d="M 1942.97,213.295 L 1809.06,213.295" style="fill:none;fill-rule:evenodd;stroke:#000000;stroke-width:2.0px;stroke-linecap:butt;stroke-linejoin:miter;stroke-opacity:1"/>
<path class="bond-6" d="M 1942.97,276.311 L 1809.06,276.311" style="fill:none;fill-rule:evenodd;stroke:#000000;stroke-width:2.0px;stroke-linecap:butt;stroke-linejoin:miter;stroke-opacity:1"/>
<path class="bond-7" d="M 1785.43,244.803 L 1627.89,244.803" style="fill:none;fill-rule:evenodd;stroke:#000000;stroke-width:2.0px;stroke-linecap:butt;stroke-linejoin:miter;stroke-opacity:1"/>
<path class="bond-8" d="M 1627.89,244.803 L 1549.12,381.238" style="fill:none;fill-rule:evenodd;stroke:#000000;stroke-width:2.0px;stroke-linecap:butt;stroke-linejoin:miter;stroke-opacity:1"/>
<path class="bond-8" d="M 1588.79,249.514 L 1533.65,345.019" style="fill:none;fill-rule:evenodd;stroke:#000000;stroke-width:2.0px;stroke-linecap:butt;stroke-linejoin:miter;stroke-opacity:1;stroke-dasharray:6,6"/>
<path class="bond-14" d="M 1627.89,244.803 L 1549.12,108.368" style="fill:none;fill-rule:evenodd;stroke:#000000;stroke-width:2.0px;stroke-linecap:butt;stroke-linejoin:miter;stroke-opacity:1"/>
<path class="bond-14" d="M 1588.79,240.092 L 1533.65,144.587" style="fill:none;fill-rule:evenodd;stroke:#000000;stroke-width:2.0px;stroke-linecap:butt;stroke-linejoin:miter;stroke-opacity:1;stroke-dasharray:6,6"/>
<path class="bond-9" d="M 1549.12,381.238 L 1391.58,381.238" style="fill:none;fill-rule:evenodd;stroke:#000000;stroke-width:2.0px;stroke-linecap:butt;stroke-linejoin:miter;stroke-opacity:1"/>
<path class="bond-9" d="M 1525.49,349.73 L 1415.21,349.73" style="fill:none;fill-rule:evenodd;stroke:#000000;stroke-width:2.0px;stroke-linecap:butt;stroke-linejoin:miter;stroke-opacity:1;stroke-dasharray:6,6"/>
<path class="bond-10" d="M 1391.58,381.238 L 1312.81,244.803" style="fill:none;fill-rule:evenodd;stroke:#000000;stroke-width:2.0px;stroke-linecap:butt;stroke-linejoin:miter;stroke-opacity:1"/>
<path class="bond-10" d="M 1407.05,345.019 L 1351.91,249.514" style="fill:none;fill-rule:evenodd;stroke:#000000;stroke-width:2.0px;stroke-linecap:butt;stroke-linejoin:miter;stroke-opacity:1;stroke-dasharray:6,6"/>
<path class="bond-11" d="M 1312.81,244.803 L 1241.37,244.803" style="fill:none;fill-rule:evenodd;stroke:#000000;stroke-width:2.0px;stroke-linecap:butt;stroke-linejoin:miter;stroke-opacity:1"/>
<path class="bond-11" d="M 1241.37,244.803 L 1169.94,244.803" style="fill:none;fill-rule:evenodd;stroke:#0000FF;stroke-width:2.0px;stroke-linecap:butt;stroke-linejoin:miter;stroke-opacity:1"/>
<path class="bond-12" d="M 1312.81,244.803 L 1391.58,108.368" style="fill:none;fill-rule:evenodd;stroke:#000000;stroke-width:2.0px;stroke-linecap:butt;stroke-linejoin:miter;stroke-opacity:1"/>
<path class="bond-12" d="M 1351.91,240.092 L 1407.05,144.587" style="fill:none;fill-rule:evenodd;stroke:#000000;stroke-width:2.0px;stroke-linecap:butt;stroke-linejoin:miter;stroke-opacity:1;stroke-dasharray:6,6"/>
<path class="bond-13" d="M 1391.58,108.368 L 1549.12,108.368" style="fill:none;fill-rule:evenodd;stroke:#000000;stroke-width:2.0px;stroke-linecap:butt;stroke-linejoin:miter;stroke-opacity:1"/>
<path class="bond-13" d="M 1415.21,139.876 L 1525.49,139.876" style="fill:none;fill-rule:evenodd;stroke:#000000;stroke-width:2.0px;stroke-linecap:butt;stroke-linejoin:miter;stroke-opacity:1;stroke-dasharray:6,6"/>
<path class="bond-15" d="M 2756.04,307.799 L 2910.4,276.319" style="fill:none;fill-rule:evenodd;stroke:#000000;stroke-width:2.0px;stroke-linecap:butt;stroke-linejoin:miter;stroke-opacity:1"/>
<path class="bond-15" d="M 2762.34,338.672 L 2893.55,311.914" style="fill:none;fill-rule:evenodd;stroke:#000000;stroke-width:2.0px;stroke-linecap:butt;stroke-linejoin:miter;stroke-opacity:1"/>
<path class="bond-15" d="M 2749.74,276.926 L 2880.95,250.168" style="fill:none;fill-rule:evenodd;stroke:#000000;stroke-width:2.0px;stroke-linecap:butt;stroke-linejoin:miter;stroke-opacity:1"/>
<path class="bond-16" d="M 2910.4,276.319 L 3064.77,244.839" style="fill:none;fill-rule:evenodd;stroke:#000000;stroke-width:2.0px;stroke-linecap:butt;stroke-linejoin:miter;stroke-opacity:1"/>
<path class="bond-17" d="M 3064.77,244.839 L 3114.69,95.4147" style="fill:none;fill-rule:evenodd;stroke:#000000;stroke-width:2.0px;stroke-linecap:butt;stroke-linejoin:miter;stroke-opacity:1"/>
<path class="bond-17" d="M 3102.14,232.409 L 3137.09,127.812" style="fill:none;fill-rule:evenodd;stroke:#000000;stroke-width:2.0px;stroke-linecap:butt;stroke-linejoin:miter;stroke-opacity:1;stroke-dasharray:6,6"/>
<path class="bond-26" d="M 3064.77,244.839 L 3169.21,362.782" style="fill:none;fill-rule:evenodd;stroke:#000000;stroke-width:2.0px;stroke-linecap:butt;stroke-linejoin:miter;stroke-opacity:1"/>
<path class="bond-26" d="M 3104.02,241.641 L 3177.14,324.202" style="fill:none;fill-rule:evenodd;stroke:#000000;stroke-width:2.0px;stroke-linecap:butt;stroke-linejoin:miter;stroke-opacity:1;stroke-dasharray:6,6"/>
<path class="bond-18" d="M 3114.69,95.4147 L 3269.05,63.9346" style="fill:none;fill-rule:evenodd;stroke:#000000;stroke-width:2.0px;stroke-linecap:butt;stroke-linejoin:miter;stroke-opacity:1"/>
<path class="bond-18" d="M 3144.14,121.566 L 3252.2,99.5295" style="fill:none;fill-rule:evenodd;stroke:#000000;stroke-width:2.0px;stroke-linecap:butt;stroke-linejoin:miter;stroke-opacity:1;stroke-dasharray:6,6"/>
<path class="bond-19" d="M 3269.05,63.9346 L 3373.5,181.878" style="fill:none;fill-rule:evenodd;stroke:#000000;stroke-width:2.0px;stroke-linecap:butt;stroke-linejoin:miter;stroke-opacity:1"/>
<path class="bond-19" d="M 3261.13,102.515 L 3334.24,185.076" style="fill:none;fill-rule:evenodd;stroke:#000000;stroke-width:2.0px;stroke-linecap:butt;stroke-linejoin:miter;stroke-opacity:1;stroke-dasharray:6,6"/>
<path class="bond-20" d="M 3373.5,181.878 L 3443.34,167.635" style="fill:none;fill-rule:evenodd;stroke:#000000;stroke-width:2.0px;stroke-linecap:butt;stroke-linejoin:miter;stroke-opacity:1"/>
<path class="bond-20" d="M 3443.34,167.635 L 3513.19,153.392" style="fill:none;fill-rule:evenodd;stroke:#0000FF;stroke-width:2.0px;stroke-linecap:butt;stroke-linejoin:miter;stroke-opacity:1"/>
<path class="bond-24" d="M 3373.5,181.878 L 3323.58,331.302" style="fill:none;fill-rule:evenodd;stroke:#000000;stroke-width:2.0px;stroke-linecap:butt;stroke-linejoin:miter;stroke-opacity:1"/>
<path class="bond-24" d="M 3336.13,194.308 L 3301.18,298.905" style="fill:none;fill-rule:evenodd;stroke:#000000;stroke-width:2.0px;stroke-linecap:butt;stroke-linejoin:miter;stroke-opacity:1;stroke-dasharray:6,6"/>
<path class="bond-21" d="M 3542.54,166.974 L 3587.43,217.658" style="fill:none;fill-rule:evenodd;stroke:#0000FF;stroke-width:2.0px;stroke-linecap:butt;stroke-linejoin:miter;stroke-opacity:1"/>
<path class="bond-21" d="M 3587.43,217.658 L 3632.31,268.342" style="fill:none;fill-rule:evenodd;stroke:#000000;stroke-width:2.0px;stroke-linecap:butt;stroke-linejoin:miter;stroke-opacity:1"/>
<path class="bond-22" d="M 3632.31,268.342 L 3786.67,236.862" style="fill:none;fill-rule:evenodd;stroke:#000000;stroke-width:2.0px;stroke-linecap:butt;stroke-linejoin:miter;stroke-opacity:1"/>
<path class="bond-23" d="M 3617.37,263.35 L 3595.46,328.933" style="fill:none;fill-rule:evenodd;stroke:#000000;stroke-width:2.0px;stroke-linecap:butt;stroke-linejoin:miter;stroke-opacity:1"/>
<path class="bond-23" d="M 3595.46,328.933 L 3573.55,394.515" style="fill:none;fill-rule:evenodd;stroke:#FF0000;stroke-width:2.0px;stroke-linecap:butt;stroke-linejoin:miter;stroke-opacity:1"/>
<path class="bond-23" d="M 3647.25,273.334 L 3625.34,338.917" style="fill:none;fill-rule:evenodd;stroke:#000000;stroke-width:2.0px;stroke-linecap:butt;stroke-linejoin:miter;stroke-opacity:1"/>
<path class="bond-23" d="M 3625.34,338.917 L 3603.43,404.499" style="fill:none;fill-rule:evenodd;stroke:#FF0000;stroke-width:2.0px;stroke-linecap:butt;stroke-linejoin:miter;stroke-opacity:1"/>
<path class="bond-25" d="M 3323.58,331.302 L 3169.21,362.782" style="fill:none;fill-rule:evenodd;stroke:#000000;stroke-width:2.0px;stroke-linecap:butt;stroke-linejoin:miter;stroke-opacity:1"/>
<path class="bond-25" d="M 3294.13,305.151 L 3186.07,327.187" style="fill:none;fill-rule:evenodd;stroke:#000000;stroke-width:2.0px;stroke-linecap:butt;stroke-linejoin:miter;stroke-opacity:1;stroke-dasharray:6,6"/>
<path class="bond-27" d="M 2359.41,128.274 L 2335.06,142.333" style="fill:none;fill-rule:evenodd;stroke:#00CC00;stroke-width:2.0px;stroke-linecap:butt;stroke-linejoin:miter;stroke-opacity:1"/>
<path class="bond-27" d="M 2335.06,142.333 L 2310.7,156.393" style="fill:none;fill-rule:evenodd;stroke:#000000;stroke-width:2.0px;stroke-linecap:butt;stroke-linejoin:miter;stroke-opacity:1"/>
<path class="bond-28" d="M 2310.7,156.393 L 2281.81,139.712" style="fill:none;fill-rule:evenodd;stroke:#000000;stroke-width:2.0px;stroke-linecap:butt;stroke-linejoin:miter;stroke-opacity:1"/>
<path class="bond-28" d="M 2281.81,139.712 L 2252.92,123.031" style="fill:none;fill-rule:evenodd;stroke:#00CC00;stroke-width:2.0px;stroke-linecap:butt;stroke-linejoin:miter;stroke-opacity:1"/>
<path class="atom-2" d="M 305.254 391.172 Q 305.254 384.372, 308.614 380.572 Q 311.974 376.772, 318.254 376.772 Q 324.534 376.772, 327.894 380.572 Q 331.254 384.372, 331.254 391.172 Q 331.254 398.052, 327.854 401.972 Q 324.454 405.852, 318.254 405.852 Q 312.014 405.852, 308.614 401.972 Q 305.254 398.092, 305.254 391.172 M 318.254 402.652 Q 322.574 402.652, 324.894 399.772 Q 327.254 396.852, 327.254 391.172 Q 327.254 385.612, 324.894 382.812 Q 322.574 379.972, 318.254 379.972 Q 313.934 379.972, 311.574 382.772 Q 309.254 385.572, 309.254 391.172 Q 309.254 396.892, 311.574 399.772 Q 313.934 402.652, 318.254 402.652 " fill="#FF0000"/>
<path class="atom-3" d="M 441.689 154.859 Q 441.689 148.059, 445.049 144.259 Q 448.409 140.459, 454.689 140.459 Q 460.969 140.459, 464.329 144.259 Q 467.689 148.059, 467.689 154.859 Q 467.689 161.739, 464.289 165.659 Q 460.889 169.539, 454.689 169.539 Q 448.449 169.539, 445.049 165.659 Q 441.689 161.779, 441.689 154.859 M 454.689 166.339 Q 459.009 166.339, 461.329 163.459 Q 463.689 160.539, 463.689 154.859 Q 463.689 149.299, 461.329 146.499 Q 459.009 143.659, 454.689 143.659 Q 450.369 143.659, 448.009 146.459 Q 445.689 149.259, 445.689 154.859 Q 445.689 160.579, 448.009 163.459 Q 450.369 166.339, 454.689 166.339 " fill="#FF0000"/>
<path class="atom-6" d="M 578.124 391.172 Q 578.124 384.372, 581.484 380.572 Q 584.844 376.772, 591.124 376.772 Q 597.404 376.772, 600.764 380.572 Q 604.124 384.372, 604.124 391.172 Q 604.124 398.052, 600.724 401.972 Q 597.324 405.852, 591.124 405.852 Q 584.884 405.852, 581.484 401.972 Q 578.124 398.092, 578.124 391.172 M 591.124 402.652 Q 595.444 402.652, 597.764 399.772 Q 600.124 396.852, 600.124 391.172 Q 600.124 385.612, 597.764 382.812 Q 595.444 379.972, 591.124 379.972 Q 586.804 379.972, 584.444 382.772 Q 582.124 385.572, 582.124 391.172 Q 582.124 396.892, 584.444 399.772 Q 586.804 402.652, 591.124 402.652 " fill="#FF0000"/>
<path class="atom-13" d="M 1105.13 230.643 L 1108.97 230.643 L 1108.97 242.683 L 1123.45 242.683 L 1123.45 230.643 L 1127.29 230.643 L 1127.29 258.963 L 1123.45 258.963 L 1123.45 245.883 L 1108.97 245.883 L 1108.97 258.963 L 1105.13 258.963 L 1105.13 230.643 " fill="#0000FF"/>
<path class="atom-13" d="M 1128.66 257.969 Q 1129.35 256.201, 1130.99 255.224 Q 1132.62 254.221, 1134.89 254.221 Q 1137.72 254.221, 1139.3 255.752 Q 1140.89 257.283, 1140.89 260.002 Q 1140.89 262.774, 1138.83 265.361 Q 1136.8 267.949, 1132.57 271.011 L 1141.2 271.011 L 1141.2 273.123 L 1128.61 273.123 L 1128.61 271.354 Q 1132.1 268.873, 1134.16 267.025 Q 1136.24 265.177, 1137.24 263.513 Q 1138.25 261.85, 1138.25 260.134 Q 1138.25 258.339, 1137.35 257.336 Q 1136.45 256.333, 1134.89 256.333 Q 1133.39 256.333, 1132.39 256.94 Q 1131.38 257.547, 1130.67 258.893 L 1128.66 257.969 " fill="#0000FF"/>
<path class="atom-13" d="M 1149 230.643 L 1158.28 245.643 Q 1159.2 247.123, 1160.68 249.803 Q 1162.16 252.483, 1162.24 252.643 L 1162.24 230.643 L 1166 230.643 L 1166 258.963 L 1162.12 258.963 L 1152.16 242.563 Q 1151 240.643, 1149.76 238.443 Q 1148.56 236.243, 1148.2 235.563 L 1148.2 258.963 L 1144.52 258.963 L 1144.52 230.643 L 1149 230.643 " fill="#0000FF"/>
<path class="atom-22" d="M 3521.6 136.238 L 3530.88 151.238 Q 3531.8 152.718, 3533.28 155.398 Q 3534.76 158.078, 3534.84 158.238 L 3534.84 136.238 L 3538.6 136.238 L 3538.6 164.558 L 3534.72 164.558 L 3524.76 148.158 Q 3523.6 146.238, 3522.36 144.038 Q 3521.16 141.838, 3520.8 141.158 L 3520.8 164.558 L 3517.12 164.558 L 3517.12 136.238 L 3521.6 136.238 " fill="#0000FF"/>
<path class="atom-22" d="M 3516.78 105.086 L 3520.62 105.086 L 3520.62 117.126 L 3535.1 117.126 L 3535.1 105.086 L 3538.94 105.086 L 3538.94 133.406 L 3535.1 133.406 L 3535.1 120.326 L 3520.62 120.326 L 3520.62 133.406 L 3516.78 133.406 L 3516.78 105.086 " fill="#0000FF"/>
<path class="atom-25" d="M 3569.39 417.846 Q 3569.39 411.046, 3572.75 407.246 Q 3576.11 403.446, 3582.39 403.446 Q 3588.67 403.446, 3592.03 407.246 Q 3595.39 411.046, 3595.39 417.846 Q 3595.39 424.726, 3591.99 428.646 Q 3588.59 432.526, 3582.39 432.526 Q 3576.15 432.526, 3572.75 428.646 Q 3569.39 424.766, 3569.39 417.846 M 3582.39 429.326 Q 3586.71 429.326, 3589.03 426.446 Q 3591.39 423.526, 3591.39 417.846 Q 3591.39 412.286, 3589.03 409.486 Q 3586.71 406.646, 3582.39 406.646 Q 3578.07 406.646, 3575.71 409.446 Q 3573.39 412.246, 3573.39 417.846 Q 3573.39 423.566, 3575.71 426.446 Q 3578.07 429.326, 3582.39 429.326 " fill="#FF0000"/>
<path class="atom-28" d="M 2361.18 121.926 Q 2361.18 114.886, 2364.46 111.206 Q 2367.78 107.486, 2374.06 107.486 Q 2379.9 107.486, 2383.02 111.606 L 2380.38 113.766 Q 2378.1 110.766, 2374.06 110.766 Q 2369.78 110.766, 2367.5 113.646 Q 2365.26 116.486, 2365.26 121.926 Q 2365.26 127.526, 2367.58 130.406 Q 2369.94 133.286, 2374.5 133.286 Q 2377.62 133.286, 2381.26 131.406 L 2382.38 134.406 Q 2380.9 135.366, 2378.66 135.926 Q 2376.42 136.486, 2373.94 136.486 Q 2367.78 136.486, 2364.46 132.726 Q 2361.18 128.966, 2361.18 121.926 " fill="#00CC00"/>
<path class="atom-28" d="M 2386.46 105.766 L 2390.14 105.766 L 2390.14 136.126 L 2386.46 136.126 L 2386.46 105.766 " fill="#00CC00"/>
<path class="atom-30" d="M 2222.19 121.926 Q 2222.19 114.886, 2225.47 111.206 Q 2228.79 107.486, 2235.07 107.486 Q 2240.91 107.486, 2244.03 111.606 L 2241.39 113.766 Q 2239.11 110.766, 2235.07 110.766 Q 2230.79 110.766, 2228.51 113.646 Q 2226.27 116.486, 2226.27 121.926 Q 2226.27 127.526, 2228.59 130.406 Q 2230.95 133.286, 2235.51 133.286 Q 2238.63 133.286, 2242.27 131.406 L 2243.39 134.406 Q 2241.91 135.366, 2239.67 135.926 Q 2237.43 136.486, 2234.95 136.486 Q 2228.79 136.486, 2225.47 132.726 Q 2222.19 128.966, 2222.19 121.926 " fill="#00CC00"/>
<path class="atom-30" d="M 2247.47 105.766 L 2251.15 105.766 L 2251.15 136.126 L 2247.47 136.126 L 2247.47 105.766 " fill="#00CC00"/>
<path class="note" d="M 593.344 206.953 Q 594.644 207.513, 595.384 208.353 Q 596.124 209.173, 596.124 210.573 Q 596.124 211.773, 595.504 212.713 Q 594.884 213.633, 593.764 214.153 Q 592.664 214.653, 591.204 214.653 Q 588.844 214.653, 587.484 213.573 Q 586.124 212.473, 586.124 210.573 Q 586.124 209.413, 586.724 208.553 Q 587.324 207.673, 588.564 207.013 Q 587.644 206.493, 587.144 205.733 Q 586.644 204.953, 586.644 203.753 Q 586.644 202.093, 587.844 201.113 Q 589.064 200.133, 591.124 200.133 Q 593.184 200.133, 594.384 201.113 Q 595.604 202.093, 595.604 203.753 Q 595.604 204.793, 595.024 205.573 Q 594.464 206.333, 593.344 206.953 M 591.124 201.633 Q 589.944 201.633, 589.284 202.193 Q 588.644 202.753, 588.644 203.753 Q 588.644 204.493, 589.084 204.993 Q 589.524 205.473, 590.144 205.753 Q 590.784 206.033, 592.004 206.453 Q 592.864 205.853, 593.224 205.213 Q 593.604 204.573, 593.604 203.753 Q 593.604 202.753, 592.944 202.193 Q 592.304 201.633, 591.124 201.633 M 591.204 213.153 Q 592.524 213.153, 593.324 212.453 Q 594.124 211.733, 594.124 210.553 Q 594.124 209.793, 593.704 209.313 Q 593.284 208.833, 592.644 208.553 Q 592.024 208.273, 590.904 207.913 L 590.004 207.613 Q 589.004 208.213, 588.564 208.933 Q 588.124 209.633, 588.124 210.553 Q 588.124 211.733, 588.964 212.453 Q 589.804 213.153, 591.204 213.153 " fill="#000000"/>
<path class="note" d="M 714.281 124.88 Q 716.801 124.88, 718.061 126.6 Q 719.341 128.3, 719.341 131.7 Q 719.341 135.46, 717.761 137.42 Q 716.201 139.36, 713.181 139.36 Q 712.301 139.36, 711.541 139.16 Q 710.801 138.96, 710.081 138.54 L 710.861 137.2 Q 711.901 137.76, 713.161 137.76 Q 715.161 137.76, 716.181 136.48 Q 717.201 135.18, 717.321 132.52 Q 716.601 133.18, 715.681 133.54 Q 714.781 133.88, 713.801 133.88 Q 712.561 133.88, 711.581 133.34 Q 710.601 132.8, 710.061 131.82 Q 709.521 130.84, 709.521 129.6 Q 709.521 128.22, 710.121 127.16 Q 710.741 126.08, 711.821 125.48 Q 712.901 124.88, 714.281 124.88 M 711.521 129.58 Q 711.521 130.84, 712.221 131.56 Q 712.921 132.28, 714.161 132.28 Q 715.021 132.28, 715.861 131.94 Q 716.721 131.58, 717.321 130.98 Q 717.241 128.64, 716.501 127.58 Q 715.761 126.52, 714.261 126.52 Q 713.501 126.52, 712.861 126.92 Q 712.241 127.32, 711.881 128.02 Q 711.521 128.72, 711.521 129.58 " fill="#000000"/>
<path class="note" d="M 577.574 449.166 L 580.674 449.166 L 580.674 438.586 L 577.254 439.646 L 576.794 438.466 L 581.134 436.526 L 582.554 436.766 L 582.554 449.166 L 585.334 449.166 L 585.334 450.766 L 577.574 450.766 L 577.574 449.166 " fill="#000000"/>
<path class="note" d="M 591.734 450.926 Q 589.134 450.926, 587.834 449.006 Q 586.554 447.086, 586.554 443.666 Q 586.554 440.246, 587.834 438.346 Q 589.114 436.446, 591.734 436.446 Q 594.354 436.446, 595.634 438.346 Q 596.914 440.246, 596.914 443.666 Q 596.914 447.086, 595.614 449.006 Q 594.334 450.926, 591.734 450.926 M 591.734 449.326 Q 593.274 449.326, 594.094 447.906 Q 594.914 446.466, 594.914 443.666 Q 594.914 440.886, 594.094 439.466 Q 593.274 438.046, 591.734 438.046 Q 590.214 438.046, 589.374 439.466 Q 588.554 440.886, 588.554 443.666 Q 588.554 446.466, 589.374 447.906 Q 590.214 449.326, 591.734 449.326 " fill="#000000"/>
<path class="note" d="M 1939.48 224.066 L 1942.58 224.066 L 1942.58 213.486 L 1939.16 214.546 L 1938.7 213.366 L 1943.04 211.426 L 1944.46 211.666 L 1944.46 224.066 L 1947.24 224.066 L 1947.24 225.666 L 1939.48 225.666 L 1939.48 224.066 " fill="#000000"/>
<path class="note" d="M 1780.7 214.226 Q 1781.22 212.886, 1782.46 212.146 Q 1783.7 211.386, 1785.42 211.386 Q 1787.56 211.386, 1788.76 212.546 Q 1789.96 213.706, 1789.96 215.766 Q 1789.96 217.866, 1788.4 219.826 Q 1786.86 221.786, 1783.66 224.106 L 1790.2 224.106 L 1790.2 225.706 L 1780.66 225.706 L 1780.66 224.366 Q 1783.3 222.486, 1784.86 221.086 Q 1786.44 219.686, 1787.2 218.426 Q 1787.96 217.166, 1787.96 215.866 Q 1787.96 214.506, 1787.28 213.746 Q 1786.6 212.986, 1785.42 212.986 Q 1784.28 212.986, 1783.52 213.446 Q 1782.76 213.906, 1782.22 214.926 L 1780.7 214.226 " fill="#000000"/>
<path class="note" d="M 1643.06 267.242 Q 1644.44 267.642, 1645.1 268.542 Q 1645.78 269.422, 1645.78 270.822 Q 1645.78 272.022, 1645.18 272.962 Q 1644.58 273.882, 1643.48 274.402 Q 1642.38 274.902, 1640.94 274.902 Q 1639.42 274.902, 1638.28 274.382 Q 1637.16 273.842, 1636.26 272.762 L 1637.4 271.602 Q 1638.28 272.562, 1639.02 272.942 Q 1639.76 273.302, 1640.94 273.302 Q 1642.22 273.302, 1643 272.622 Q 1643.78 271.922, 1643.78 270.802 Q 1643.78 269.362, 1642.96 268.722 Q 1642.16 268.062, 1640.42 268.062 L 1639.4 268.062 L 1639.4 266.622 L 1640.3 266.622 Q 1641.84 266.602, 1642.66 265.942 Q 1643.48 265.262, 1643.48 264.002 Q 1643.48 263.082, 1642.8 262.542 Q 1642.12 261.982, 1640.96 261.982 Q 1639.78 261.982, 1639.04 262.402 Q 1638.32 262.822, 1637.76 263.882 L 1636.38 263.142 Q 1636.88 261.962, 1638.08 261.182 Q 1639.28 260.382, 1640.96 260.382 Q 1643.04 260.382, 1644.26 261.362 Q 1645.48 262.342, 1645.48 264.002 Q 1645.48 265.142, 1644.86 265.962 Q 1644.24 266.782, 1643.06 267.242 " fill="#000000"/>
<path class="note" d="M 1566 406.198 L 1567.7 406.198 L 1567.7 407.798 L 1566 407.798 L 1566 411.058 L 1564.12 411.058 L 1564.12 407.798 L 1556.8 407.798 L 1556.8 406.538 L 1563 396.898 L 1566 396.898 L 1566 406.198 M 1559.12 406.198 L 1564.12 406.198 L 1564.12 398.178 L 1559.12 406.198 " fill="#000000"/>
<path class="note" d="M 1378.8 402.198 Q 1380.04 402.198, 1381.06 402.738 Q 1382.08 403.258, 1382.66 404.258 Q 1383.24 405.238, 1383.24 406.578 Q 1383.24 408.038, 1382.52 409.098 Q 1381.82 410.138, 1380.66 410.678 Q 1379.5 411.218, 1378.18 411.218 Q 1376.88 411.218, 1375.68 410.738 Q 1374.48 410.258, 1373.66 409.338 L 1374.86 408.098 Q 1375.52 408.818, 1376.42 409.218 Q 1377.32 409.598, 1378.24 409.598 Q 1379.5 409.598, 1380.36 408.818 Q 1381.24 408.038, 1381.24 406.618 Q 1381.24 405.118, 1380.36 404.418 Q 1379.5 403.698, 1378.12 403.698 Q 1376.88 403.698, 1375.5 404.238 L 1374.4 403.718 L 1375.08 396.898 L 1382.36 396.898 L 1382.16 398.498 L 1376.72 398.498 L 1376.3 402.698 Q 1377.56 402.198, 1378.8 402.198 " fill="#000000"/>
<path class="note" d="M 1300.31 265.862 Q 1301.55 265.862, 1302.53 266.402 Q 1303.51 266.942, 1304.05 267.922 Q 1304.59 268.902, 1304.59 270.142 Q 1304.59 271.522, 1303.97 272.602 Q 1303.37 273.662, 1302.29 274.262 Q 1301.21 274.862, 1299.83 274.862 Q 1297.31 274.862, 1296.03 273.162 Q 1294.77 271.442, 1294.77 268.042 Q 1294.77 264.282, 1296.33 262.342 Q 1297.91 260.382, 1300.93 260.382 Q 1301.81 260.382, 1302.55 260.582 Q 1303.31 260.782, 1304.03 261.202 L 1303.25 262.542 Q 1302.21 261.982, 1300.95 261.982 Q 1298.95 261.982, 1297.93 263.282 Q 1296.91 264.562, 1296.79 267.222 Q 1297.51 266.562, 1298.41 266.222 Q 1299.33 265.862, 1300.31 265.862 M 1299.85 273.222 Q 1300.61 273.222, 1301.23 272.822 Q 1301.87 272.422, 1302.23 271.722 Q 1302.59 271.022, 1302.59 270.162 Q 1302.59 268.902, 1301.89 268.182 Q 1301.19 267.462, 1299.95 267.462 Q 1299.09 267.462, 1298.23 267.822 Q 1297.39 268.162, 1296.79 268.762 Q 1296.87 271.102, 1297.61 272.162 Q 1298.35 273.222, 1299.85 273.222 " fill="#000000"/>
<path class="note" d="M 1157.98 291.837 L 1150.56 291.837 L 1150.56 290.237 L 1159.96 290.237 L 1159.96 291.657 L 1154.24 304.397 L 1152.32 304.397 L 1157.98 291.837 " fill="#000000"/>
<path class="note" d="M 1365.88 91.1484 L 1368.98 91.1484 L 1368.98 80.5684 L 1365.56 81.6284 L 1365.1 80.4484 L 1369.44 78.5084 L 1370.86 78.7484 L 1370.86 91.1484 L 1373.64 91.1484 L 1373.64 92.7484 L 1365.88 92.7484 L 1365.88 91.1484 " fill="#000000"/>
<path class="note" d="M 1375.5 91.1484 L 1378.6 91.1484 L 1378.6 80.5684 L 1375.18 81.6284 L 1374.72 80.4484 L 1379.06 78.5084 L 1380.48 78.7484 L 1380.48 91.1484 L 1383.26 91.1484 L 1383.26 92.7484 L 1375.5 92.7484 L 1375.5 91.1484 " fill="#000000"/>
<path class="note" d="M 1549.22 91.1884 L 1552.32 91.1884 L 1552.32 80.6084 L 1548.9 81.6684 L 1548.44 80.4884 L 1552.78 78.5484 L 1554.2 78.7884 L 1554.2 91.1884 L 1556.98 91.1884 L 1556.98 92.7884 L 1549.22 92.7884 L 1549.22 91.1884 " fill="#000000"/>
<path class="note" d="M 1558.02 81.3084 Q 1558.54 79.9684, 1559.78 79.2284 Q 1561.02 78.4684, 1562.74 78.4684 Q 1564.88 78.4684, 1566.08 79.6284 Q 1567.28 80.7884, 1567.28 82.8484 Q 1567.28 84.9484, 1565.72 86.9084 Q 1564.18 88.8684, 1560.98 91.1884 L 1567.52 91.1884 L 1567.52 92.7884 L 1557.98 92.7884 L 1557.98 91.4484 Q 1560.62 89.5684, 1562.18 88.1684 Q 1563.76 86.7684, 1564.52 85.5084 Q 1565.28 84.2484, 1565.28 82.9484 Q 1565.28 81.5884, 1564.6 80.8284 Q 1563.92 80.0684, 1562.74 80.0684 Q 1561.6 80.0684, 1560.84 80.5284 Q 1560.08 80.9884, 1559.54 82.0084 L 1558.02 81.3084 " fill="#000000"/>
<path class="note" d="M 2757.8 339.046 L 2760.9 339.046 L 2760.9 328.466 L 2757.48 329.526 L 2757.02 328.346 L 2761.36 326.406 L 2762.78 326.646 L 2762.78 339.046 L 2765.56 339.046 L 2765.56 340.646 L 2757.8 340.646 L 2757.8 339.046 " fill="#000000"/>
<path class="note" d="M 2910.92 297.726 Q 2911.44 296.386, 2912.68 295.646 Q 2913.92 294.886, 2915.64 294.886 Q 2917.78 294.886, 2918.98 296.046 Q 2920.18 297.206, 2920.18 299.266 Q 2920.18 301.366, 2918.62 303.326 Q 2917.08 305.286, 2913.88 307.606 L 2920.42 307.606 L 2920.42 309.206 L 2910.88 309.206 L 2910.88 307.866 Q 2913.52 305.986, 2915.08 304.586 Q 2916.66 303.186, 2917.42 301.926 Q 2918.18 300.666, 2918.18 299.366 Q 2918.18 298.006, 2917.5 297.246 Q 2916.82 296.486, 2915.64 296.486 Q 2914.5 296.486, 2913.74 296.946 Q 2912.98 297.406, 2912.44 298.426 L 2910.92 297.726 " fill="#000000"/>
<path class="note" d="M 3049.4 224.881 Q 3050.78 225.281, 3051.44 226.181 Q 3052.12 227.061, 3052.12 228.461 Q 3052.12 229.661, 3051.52 230.601 Q 3050.92 231.521, 3049.82 232.041 Q 3048.72 232.541, 3047.28 232.541 Q 3045.76 232.541, 3044.62 232.021 Q 3043.5 231.481, 3042.6 230.401 L 3043.74 229.241 Q 3044.62 230.201, 3045.36 230.581 Q 3046.1 230.941, 3047.28 230.941 Q 3048.56 230.941, 3049.34 230.261 Q 3050.12 229.561, 3050.12 228.441 Q 3050.12 227.001, 3049.3 226.361 Q 3048.5 225.701, 3046.76 225.701 L 3045.74 225.701 L 3045.74 224.261 L 3046.64 224.261 Q 3048.18 224.241, 3049 223.581 Q 3049.82 222.901, 3049.82 221.641 Q 3049.82 220.721, 3049.14 220.181 Q 3048.46 219.621, 3047.3 219.621 Q 3046.12 219.621, 3045.38 220.041 Q 3044.66 220.461, 3044.1 221.521 L 3042.72 220.781 Q 3043.22 219.601, 3044.42 218.821 Q 3045.62 218.021, 3047.3 218.021 Q 3049.38 218.021, 3050.6 219.001 Q 3051.82 219.981, 3051.82 221.641 Q 3051.82 222.781, 3051.2 223.601 Q 3050.58 224.421, 3049.4 224.881 " fill="#000000"/>
<path class="note" d="M 3101.03 77.9774 L 3102.73 77.9774 L 3102.73 79.5774 L 3101.03 79.5774 L 3101.03 82.8374 L 3099.15 82.8374 L 3099.15 79.5774 L 3091.83 79.5774 L 3091.83 78.3174 L 3098.03 68.6774 L 3101.03 68.6774 L 3101.03 77.9774 M 3094.15 77.9774 L 3099.15 77.9774 L 3099.15 69.9574 L 3094.15 77.9774 " fill="#000000"/>
<path class="note" d="M 3277.72 37.2506 Q 3278.96 37.2506, 3279.98 37.7906 Q 3281 38.3106, 3281.58 39.3106 Q 3282.16 40.2906, 3282.16 41.6306 Q 3282.16 43.0906, 3281.44 44.1506 Q 3280.74 45.1906, 3279.58 45.7306 Q 3278.42 46.2706, 3277.1 46.2706 Q 3275.8 46.2706, 3274.6 45.7906 Q 3273.4 45.3106, 3272.58 44.3906 L 3273.78 43.1506 Q 3274.44 43.8706, 3275.34 44.2706 Q 3276.24 44.6506, 3277.16 44.6506 Q 3278.42 44.6506, 3279.28 43.8706 Q 3280.16 43.0906, 3280.16 41.6706 Q 3280.16 40.1706, 3279.28 39.4706 Q 3278.42 38.7506, 3277.04 38.7506 Q 3275.8 38.7506, 3274.42 39.2906 L 3273.32 38.7706 L 3274 31.9506 L 3281.28 31.9506 L 3281.08 33.5506 L 3275.64 33.5506 L 3275.22 37.7506 Q 3276.48 37.2506, 3277.72 37.2506 " fill="#000000"/>
<path class="note" d="M 3382.45 155.294 Q 3383.69 155.294, 3384.67 155.834 Q 3385.65 156.374, 3386.19 157.354 Q 3386.73 158.334, 3386.73 159.574 Q 3386.73 160.954, 3386.11 162.034 Q 3385.51 163.094, 3384.43 163.694 Q 3383.35 164.294, 3381.97 164.294 Q 3379.45 164.294, 3378.17 162.594 Q 3376.91 160.874, 3376.91 157.474 Q 3376.91 153.714, 3378.47 151.774 Q 3380.05 149.814, 3383.07 149.814 Q 3383.95 149.814, 3384.69 150.014 Q 3385.45 150.214, 3386.17 150.634 L 3385.39 151.974 Q 3384.35 151.414, 3383.09 151.414 Q 3381.09 151.414, 3380.07 152.714 Q 3379.05 153.994, 3378.93 156.654 Q 3379.65 155.994, 3380.55 155.654 Q 3381.47 155.294, 3382.45 155.294 M 3381.99 162.654 Q 3382.75 162.654, 3383.37 162.254 Q 3384.01 161.854, 3384.37 161.154 Q 3384.73 160.454, 3384.73 159.594 Q 3384.73 158.334, 3384.03 157.614 Q 3383.33 156.894, 3382.09 156.894 Q 3381.23 156.894, 3380.37 157.254 Q 3379.53 157.594, 3378.93 158.194 Q 3379.01 160.534, 3379.75 161.594 Q 3380.49 162.654, 3381.99 162.654 " fill="#000000"/>
<path class="note" d="M 3495.77 105.604 L 3488.35 105.604 L 3488.35 104.004 L 3497.75 104.004 L 3497.75 105.424 L 3492.03 118.164 L 3490.11 118.164 L 3495.77 105.604 " fill="#000000"/>
<path class="note" d="M 3642.85 243.098 Q 3644.15 243.658, 3644.89 244.498 Q 3645.63 245.318, 3645.63 246.718 Q 3645.63 247.918, 3645.01 248.858 Q 3644.39 249.778, 3643.27 250.298 Q 3642.17 250.798, 3640.71 250.798 Q 3638.35 250.798, 3636.99 249.718 Q 3635.63 248.618, 3635.63 246.718 Q 3635.63 245.558, 3636.23 244.698 Q 3636.83 243.818, 3638.07 243.158 Q 3637.15 242.638, 3636.65 241.878 Q 3636.15 241.098, 3636.15 239.898 Q 3636.15 238.238, 3637.35 237.258 Q 3638.57 236.278, 3640.63 236.278 Q 3642.69 236.278, 3643.89 237.258 Q 3645.11 238.238, 3645.11 239.898 Q 3645.11 240.938, 3644.53 241.718 Q 3643.97 242.478, 3642.85 243.098 M 3640.63 237.778 Q 3639.45 237.778, 3638.79 238.338 Q 3638.15 238.898, 3638.15 239.898 Q 3638.15 240.638, 3638.59 241.138 Q 3639.03 241.618, 3639.65 241.898 Q 3640.29 242.178, 3641.51 242.598 Q 3642.37 241.998, 3642.73 241.358 Q 3643.11 240.718, 3643.11 239.898 Q 3643.11 238.898, 3642.45 238.338 Q 3641.81 237.778, 3640.63 237.778 M 3640.71 249.298 Q 3642.03 249.298, 3642.83 248.598 Q 3643.63 247.878, 3643.63 246.698 Q 3643.63 245.938, 3643.21 245.458 Q 3642.79 244.978, 3642.15 244.698 Q 3641.53 244.418, 3640.41 244.058 L 3639.51 243.758 Q 3638.51 244.358, 3638.07 245.078 Q 3637.63 245.778, 3637.63 246.698 Q 3637.63 247.878, 3638.47 248.598 Q 3639.31 249.298, 3640.71 249.298 " fill="#000000"/>
<path class="note" d="M 3781.28 203.974 Q 3783.8 203.974, 3785.06 205.694 Q 3786.34 207.394, 3786.34 210.794 Q 3786.34 214.554, 3784.76 216.514 Q 3783.2 218.454, 3780.18 218.454 Q 3779.3 218.454, 3778.54 218.254 Q 3777.8 218.054, 3777.08 217.634 L 3777.86 216.294 Q 3778.9 216.854, 3780.16 216.854 Q 3782.16 216.854, 3783.18 215.574 Q 3784.2 214.274, 3784.32 211.614 Q 3783.6 212.274, 3782.68 212.634 Q 3781.78 212.974, 3780.8 212.974 Q 3779.56 212.974, 3778.58 212.434 Q 3777.6 211.894, 3777.06 210.914 Q 3776.52 209.934, 3776.52 208.694 Q 3776.52 207.314, 3777.12 206.254 Q 3777.74 205.174, 3778.82 204.574 Q 3779.9 203.974, 3781.28 203.974 M 3778.52 208.674 Q 3778.52 209.934, 3779.22 210.654 Q 3779.92 211.374, 3781.16 211.374 Q 3782.02 211.374, 3782.86 211.034 Q 3783.72 210.674, 3784.32 210.074 Q 3784.24 207.734, 3783.5 206.674 Q 3782.76 205.614, 3781.26 205.614 Q 3780.5 205.614, 3779.86 206.014 Q 3779.24 206.414, 3778.88 207.114 Q 3778.52 207.814, 3778.52 208.674 " fill="#000000"/>
<path class="note" d="M 3552.2 473.134 L 3555.3 473.134 L 3555.3 462.554 L 3551.88 463.614 L 3551.42 462.434 L 3555.76 460.494 L 3557.18 460.734 L 3557.18 473.134 L 3559.96 473.134 L 3559.96 474.734 L 3552.2 474.734 L 3552.2 473.134 " fill="#000000"/>
<path class="note" d="M 3566.36 474.894 Q 3563.76 474.894, 3562.46 472.974 Q 3561.18 471.054, 3561.18 467.634 Q 3561.18 464.214, 3562.46 462.314 Q 3563.74 460.414, 3566.36 460.414 Q 3568.98 460.414, 3570.26 462.314 Q 3571.54 464.214, 3571.54 467.634 Q 3571.54 471.054, 3570.24 472.974 Q 3568.96 474.894, 3566.36 474.894 M 3566.36 473.294 Q 3567.9 473.294, 3568.72 471.874 Q 3569.54 470.434, 3569.54 467.634 Q 3569.54 464.854, 3568.72 463.434 Q 3567.9 462.014, 3566.36 462.014 Q 3564.84 462.014, 3564 463.434 Q 3563.18 464.854, 3563.18 467.634 Q 3563.18 470.434, 3564 471.874 Q 3564.84 473.294, 3566.36 473.294 " fill="#000000"/>
<path class="note" d="M 3328.42 356.48 L 3331.52 356.48 L 3331.52 345.9 L 3328.1 346.96 L 3327.64 345.78 L 3331.98 343.84 L 3333.4 344.08 L 3333.4 356.48 L 3336.18 356.48 L 3336.18 358.08 L 3328.42 358.08 L 3328.42 356.48 " fill="#000000"/>
<path class="note" d="M 3338.04 356.48 L 3341.14 356.48 L 3341.14 345.9 L 3337.72 346.96 L 3337.26 345.78 L 3341.6 343.84 L 3343.02 344.08 L 3343.02 356.48 L 3345.8 356.48 L 3345.8 358.08 L 3338.04 358.08 L 3338.04 356.48 " fill="#000000"/>
<path class="note" d="M 3147.86 393.246 L 3150.96 393.246 L 3150.96 382.666 L 3147.54 383.726 L 3147.08 382.546 L 3151.42 380.606 L 3152.84 380.846 L 3152.84 393.246 L 3155.62 393.246 L 3155.62 394.846 L 3147.86 394.846 L 3147.86 393.246 " fill="#000000"/>
<path class="note" d="M 3156.66 383.366 Q 3157.18 382.026, 3158.42 381.286 Q 3159.66 380.526, 3161.38 380.526 Q 3163.52 380.526, 3164.72 381.686 Q 3165.92 382.846, 3165.92 384.906 Q 3165.92 387.006, 3164.36 388.966 Q 3162.82 390.926, 3159.62 393.246 L 3166.16 393.246 L 3166.16 394.846 L 3156.62 394.846 L 3156.62 393.506 Q 3159.26 391.626, 3160.82 390.226 Q 3162.4 388.826, 3163.16 387.566 Q 3163.92 386.306, 3163.92 385.006 Q 3163.92 383.646, 3163.24 382.886 Q 3162.56 382.126, 3161.38 382.126 Q 3160.24 382.126, 3159.48 382.586 Q 3158.72 383.046, 3158.18 384.066 L 3156.66 383.366 " fill="#000000"/>
<path d="M 904.958 238.578 L 911.006 238.578 L 911.006 232.21 L 913.694 232.21 L 913.694 238.578 L 919.902 238.578 L 919.902 240.882 L 913.694 240.882 L 913.694 247.282 L 911.006 247.282 L 911.006 240.882 L 904.958 240.882 L 904.958 238.578 " fill="#000000"/>
<path d="M 2123.75,240.882 L 2522.75,240.882" style="fill:none;fill-rule:evenodd;stroke:#000000;stroke-width:2.0px;stroke-linecap:butt;stroke-linejoin:miter;stroke-opacity:1"/>
<path d="M 2522.75,240.882 L 2505.47,230.907" style="fill:none;fill-rule:evenodd;stroke:#000000;stroke-width:2.0px;stroke-linecap:butt;stroke-linejoin:miter;stroke-opacity:1"/>
<path d="M 2522.75,240.882 L 2505.47,250.857" style="fill:none;fill-rule:evenodd;stroke:#000000;stroke-width:2.0px;stroke-linecap:butt;stroke-linejoin:miter;stroke-opacity:1"/>
</svg>