<svg xmlns="http://www.w3.org/2000/svg" xmlns:rdkit="http://www.rdkit.org/xml" xmlns:xlink="http://www.w3.org/1999/xlink" version="1.1" baseProfile="full" xml:space="preserve" width="4000px" height="500px" viewBox="0 0 4000 500">
<!-- END OF HEADER -->
<rect style="opacity:1.0;fill:#FFFFFF;stroke:none" width="4000" height="500" x="0" y="0"> </rect>
<path d="M 425.06,169.751 L 546.681,239.969" style="fill:none;fill-rule:evenodd;stroke:#FFFFAA;stroke-width:30.0px;stroke-linecap:butt;stroke-linejoin:miter;stroke-opacity:1"/>
<path d="M 546.681,239.969 L 668.302,169.751" style="fill:none;fill-rule:evenodd;stroke:#FFFFAA;stroke-width:30.0px;stroke-linecap:butt;stroke-linejoin:miter;stroke-opacity:1"/>
<path d="M 1063.9,390.436 L 1185.52,320.218" style="fill:none;fill-rule:evenodd;stroke:#FFCC99;stroke-width:30.0px;stroke-linecap:butt;stroke-linejoin:miter;stroke-opacity:1"/>
<path d="M 1185.52,320.218 L 1307.14,390.436" style="fill:none;fill-rule:evenodd;stroke:#FFCC99;stroke-width:30.0px;stroke-linecap:butt;stroke-linejoin:miter;stroke-opacity:1"/>
<path d="M 1185.52,320.218 L 1185.52,179.782" style="fill:none;fill-rule:evenodd;stroke:#FFCC99;stroke-width:30.0px;stroke-linecap:butt;stroke-linejoin:miter;stroke-opacity:1"/>
<path d="M 1307.14,390.436 L 1428.76,320.218" style="fill:none;fill-rule:evenodd;stroke:#FFCC99;stroke-width:30.0px;stroke-linecap:butt;stroke-linejoin:miter;stroke-opacity:1"/>
<path d="M 1428.76,320.218 L 1550.38,390.436" style="fill:none;fill-rule:evenodd;stroke:#FFCC99;stroke-width:30.0px;stroke-linecap:butt;stroke-linejoin:miter;stroke-opacity:1"/>
<path d="M 1428.76,320.218 L 1428.76,179.782" style="fill:none;fill-rule:evenodd;stroke:#FFCC99;stroke-width:30.0px;stroke-linecap:butt;stroke-linejoin:miter;stroke-opacity:1"/>
<path d="M 1550.38,390.436 L 1672.01,320.218" style="fill:none;fill-rule:evenodd;stroke:#FFCC99;stroke-width:30.0px;stroke-linecap:butt;stroke-linejoin:miter;stroke-opacity:1"/>
<path d="M 1672.01,320.218 L 1793.63,390.436" style="fill:none;fill-rule:evenodd;stroke:#FFCC99;stroke-width:30.0px;stroke-linecap:butt;stroke-linejoin:miter;stroke-opacity:1"/>
<path d="M 1672.01,320.218 L 1672.01,179.782" style="fill:none;fill-rule:evenodd;stroke:#FFCC99;stroke-width:30.0px;stroke-linecap:butt;stroke-linejoin:miter;stroke-opacity:1"/>
<path d="M 1793.63,390.436 L 1915.25,320.218" style="fill:none;fill-rule:evenodd;stroke:#FFCC99;stroke-width:30.0px;stroke-linecap:butt;stroke-linejoin:miter;stroke-opacity:1"/>
<path d="M 1915.25,320.218 L 1915.25,179.782" style="fill:none;fill-rule:evenodd;stroke:#FFCC99;stroke-width:30.0px;stroke-linecap:butt;stroke-linejoin:miter;stroke-opacity:1"/>
<path d="M 1915.25,179.782 L 1793.63,109.564" style="fill:none;fill-rule:evenodd;stroke:#FFCC99;stroke-width:30.0px;stroke-linecap:butt;stroke-linejoin:miter;stroke-opacity:1"/>
<path d="M 1793.63,109.564 L 1672.01,179.782" style="fill:none;fill-rule:evenodd;stroke:#FFCC99;stroke-width:30.0px;stroke-linecap:butt;stroke-linejoin:miter;stroke-opacity:1"/>
<path d="M 1672.01,179.782 L 1550.38,109.564" style="fill:none;fill-rule:evenodd;stroke:#FFCC99;stroke-width:30.0px;stroke-linecap:butt;stroke-linejoin:miter;stroke-opacity:1"/>
<path d="M 1550.38,109.564 L 1428.76,179.782" style="fill:none;fill-rule:evenodd;stroke:#FFCC99;stroke-width:30.0px;stroke-linecap:butt;stroke-linejoin:miter;stroke-opacity:1"/>
<path d="M 1428.76,179.782 L 1307.14,109.564" style="fill:none;fill-rule:evenodd;stroke:#FFCC99;stroke-width:30.0px;stroke-linecap:butt;stroke-linejoin:miter;stroke-opacity:1"/>
<path d="M 1307.14,109.564 L 1185.52,179.782" style="fill:none;fill-rule:evenodd;stroke:#FFCC99;stroke-width:30.0px;stroke-linecap:butt;stroke-linejoin:miter;stroke-opacity:1"/>
<path d="M 1185.52,179.782 L 1063.9,109.564" style="fill:none;fill-rule:evenodd;stroke:#FFCC99;stroke-width:30.0px;stroke-linecap:butt;stroke-linejoin:miter;stroke-opacity:1"/>
<path d="M 2691.37,250 L 2831.81,250" style="fill:none;fill-rule:evenodd;stroke:#FFFFAA;stroke-width:30.0px;stroke-linecap:butt;stroke-linejoin:miter;stroke-opacity:1"/>
<path d="M 2914.35,363.615 L 3047.92,320.218" style="fill:none;fill-rule:evenodd;stroke:#FFCC99;stroke-width:30.0px;stroke-linecap:butt;stroke-linejoin:miter;stroke-opacity:1"/>
<path d="M 3047.92,320.218 L 3169.54,390.436" style="fill:none;fill-rule:evenodd;stroke:#FFCC99;stroke-width:30.0px;stroke-linecap:butt;stroke-linejoin:miter;stroke-opacity:1"/>
<path d="M 3047.92,320.218 L 3047.92,179.782" style="fill:none;fill-rule:evenodd;stroke:#FFCC99;stroke-width:30.0px;stroke-linecap:butt;stroke-linejoin:miter;stroke-opacity:1"/>
<path d="M 3169.54,390.436 L 3291.16,320.218" style="fill:none;fill-rule:evenodd;stroke:#FFCC99;stroke-width:30.0px;stroke-linecap:butt;stroke-linejoin:miter;stroke-opacity:1"/>
<path d="M 3291.16,320.218 L 3412.78,390.436" style="fill:none;fill-rule:evenodd;stroke:#FFCC99;stroke-width:30.0px;stroke-linecap:butt;stroke-linejoin:miter;stroke-opacity:1"/>
<path d="M 3291.16,320.218 L 3291.16,179.782" style="fill:none;fill-rule:evenodd;stroke:#FFCC99;stroke-width:30.0px;stroke-linecap:butt;stroke-linejoin:miter;stroke-opacity:1"/>
<path d="M 3412.78,390.436 L 3534.4,320.218" style="fill:none;fill-rule:evenodd;stroke:#FFCC99;stroke-width:30.0px;stroke-linecap:butt;stroke-linejoin:miter;stroke-opacity:1"/>
<path d="M 3534.4,320.218 L 3656.02,390.436" style="fill:none;fill-rule:evenodd;stroke:#FFCC99;stroke-width:30.0px;stroke-linecap:butt;stroke-linejoin:miter;stroke-opacity:1"/>
<path d="M 3534.4,320.218 L 3534.4,179.782" style="fill:none;fill-rule:evenodd;stroke:#FFCC99;stroke-width:30.0px;stroke-linecap:butt;stroke-linejoin:miter;stroke-opacity:1"/>
<path d="M 3656.02,390.436 L 3777.64,320.218" style="fill:none;fill-rule:evenodd;stroke:#FFCC99;stroke-width:30.0px;stroke-linecap:butt;stroke-linejoin:miter;stroke-opacity:1"/>
<path d="M 3777.64,320.218 L 3777.64,179.782" style="fill:none;fill-rule:evenodd;stroke:#FFCC99;stroke-width:30.0px;stroke-linecap:butt;stroke-linejoin:miter;stroke-opacity:1"/>
<path d="M 3777.64,179.782 L 3656.02,109.564" style="fill:none;fill-rule:evenodd;stroke:#FFCC99;stroke-width:30.0px;stroke-linecap:butt;stroke-linejoin:miter;stroke-opacity:1"/>
<path d="M 3656.02,109.564 L 3534.4,179.782" style="fill:none;fill-rule:evenodd;stroke:#FFCC99;stroke-width:30.0px;stroke-linecap:butt;stroke-linejoin:miter;stroke-opacity:1"/>
<path d="M 3534.4,179.782 L 3412.78,109.564" style="fill:none;fill-rule:evenodd;stroke:#FFCC99;stroke-width:30.0px;stroke-linecap:butt;stroke-linejoin:miter;stroke-opacity:1"/>
<path d="M 3412.78,109.564 L 3291.16,179.782" style="fill:none;fill-rule:evenodd;stroke:#FFCC99;stroke-width:30.0px;stroke-linecap:butt;stroke-linejoin:miter;stroke-opacity:1"/>
<path d="M 3291.16,179.782 L 3169.54,109.564" style="fill:none;fill-rule:evenodd;stroke:#FFCC99;stroke-width:30.0px;stroke-linecap:butt;stroke-linejoin:miter;stroke-opacity:1"/>
<path d="M 3169.54,109.564 L 3047.92,179.782" style="fill:none;fill-rule:evenodd;stroke:#FFCC99;stroke-width:30.0px;stroke-linecap:butt;stroke-linejoin:miter;stroke-opacity:1"/>
<path d="M 3047.92,179.782 L 2914.35,136.385" style="fill:none;fill-rule:evenodd;stroke:#FFCC99;stroke-width:30.0px;stroke-linecap:butt;stroke-linejoin:miter;stroke-opacity:1"/>
<ellipse cx="546.681" cy="239.969" rx="28.0872" ry="28.0872" style="fill:#FFFFAA;fill-rule:evenodd;stroke:#FFFFAA;stroke-width:1px;stroke-linecap:butt;stroke-linejoin:miter;stroke-opacity:1"/>
<ellipse cx="668.302" cy="169.751" rx="28.0872" ry="28.0872" style="fill:#FFFFAA;fill-rule:evenodd;stroke:#FFFFAA;stroke-width:1px;stroke-linecap:butt;stroke-linejoin:miter;stroke-opacity:1"/>
<ellipse cx="1044.2" cy="397.516" rx="43.0436" ry="30.0379" style="fill:#FFCC99;fill-rule:evenodd;stroke:#FFCC99;stroke-width:1px;stroke-linecap:butt;stroke-linejoin:miter;stroke-opacity:1"/>
<ellipse cx="1185.52" cy="320.218" rx="28.0872" ry="28.0872" style="fill:#FFCC99;fill-rule:evenodd;stroke:#FFCC99;stroke-width:1px;stroke-linecap:butt;stroke-linejoin:miter;stroke-opacity:1"/>
<ellipse cx="1307.14" cy="390.436" rx="28.0872" ry="28.0872" style="fill:#FFCC99;fill-rule:evenodd;stroke:#FFCC99;stroke-width:1px;stroke-linecap:butt;stroke-linejoin:miter;stroke-opacity:1"/>
<ellipse cx="1428.76" cy="320.218" rx="28.0872" ry="28.0872" style="fill:#FFCC99;fill-rule:evenodd;stroke:#FFCC99;stroke-width:1px;stroke-linecap:butt;stroke-linejoin:miter;stroke-opacity:1"/>
<ellipse cx="1550.38" cy="390.436" rx="28.0872" ry="28.0872" style="fill:#FFCC99;fill-rule:evenodd;stroke:#FFCC99;stroke-width:1px;stroke-linecap:butt;stroke-linejoin:miter;stroke-opacity:1"/>
<ellipse cx="1672.01" cy="320.218" rx="28.0872" ry="28.0872" style="fill:#FFCC99;fill-rule:evenodd;stroke:#FFCC99;stroke-width:1px;stroke-linecap:butt;stroke-linejoin:miter;stroke-opacity:1"/>
<ellipse cx="1793.63" cy="390.436" rx="28.0872" ry="28.0872" style="fill:#FFCC99;fill-rule:evenodd;stroke:#FFCC99;stroke-width:1px;stroke-linecap:butt;stroke-linejoin:miter;stroke-opacity:1"/>
<ellipse cx="1915.25" cy="320.218" rx="28.0872" ry="28.0872" style="fill:#FFCC99;fill-rule:evenodd;stroke:#FFCC99;stroke-width:1px;stroke-linecap:butt;stroke-linejoin:miter;stroke-opacity:1"/>
<ellipse cx="1915.25" cy="179.782" rx="28.0872" ry="28.0872" style="fill:#FFCC99;fill-rule:evenodd;stroke:#FFCC99;stroke-width:1px;stroke-linecap:butt;stroke-linejoin:miter;stroke-opacity:1"/>
<ellipse cx="1793.63" cy="109.564" rx="28.0872" ry="28.0872" style="fill:#FFCC99;fill-rule:evenodd;stroke:#FFCC99;stroke-width:1px;stroke-linecap:butt;stroke-linejoin:miter;stroke-opacity:1"/>
<ellipse cx="1672.01" cy="179.782" rx="28.0872" ry="28.0872" style="fill:#FFCC99;fill-rule:evenodd;stroke:#FFCC99;stroke-width:1px;stroke-linecap:butt;stroke-linejoin:miter;stroke-opacity:1"/>
<ellipse cx="1550.38" cy="109.564" rx="28.0872" ry="28.0872" style="fill:#FFCC99;fill-rule:evenodd;stroke:#FFCC99;stroke-width:1px;stroke-linecap:butt;stroke-linejoin:miter;stroke-opacity:1"/>
<ellipse cx="1428.76" cy="179.782" rx="28.0872" ry="28.0872" style="fill:#FFCC99;fill-rule:evenodd;stroke:#FFCC99;stroke-width:1px;stroke-linecap:butt;stroke-linejoin:miter;stroke-opacity:1"/>
<ellipse cx="1307.14" cy="109.564" rx="28.0872" ry="28.0872" style="fill:#FFCC99;fill-rule:evenodd;stroke:#FFCC99;stroke-width:1px;stroke-linecap:butt;stroke-linejoin:miter;stroke-opacity:1"/>
<ellipse cx="1185.52" cy="179.782" rx="28.0872" ry="28.0872" style="fill:#FFCC99;fill-rule:evenodd;stroke:#FFCC99;stroke-width:1px;stroke-linecap:butt;stroke-linejoin:miter;stroke-opacity:1"/>
<ellipse cx="1051.82" cy="109.784" rx="35.4685" ry="28.0872" style="fill:#FFCC99;fill-rule:evenodd;stroke:#FFCC99;stroke-width:1px;stroke-linecap:butt;stroke-linejoin:miter;stroke-opacity:1"/>
<ellipse cx="2691.37" cy="250" rx="28.0872" ry="28.0872" style="fill:#FFFFAA;fill-rule:evenodd;stroke:#FFFFAA;stroke-width:1px;stroke-linecap:butt;stroke-linejoin:miter;stroke-opacity:1"/>
<ellipse cx="2831.81" cy="250" rx="28.0872" ry="28.0872" style="fill:#FFFFAA;fill-rule:evenodd;stroke:#FFFFAA;stroke-width:1px;stroke-linecap:butt;stroke-linejoin:miter;stroke-opacity:1"/>
<ellipse cx="2914.35" cy="363.615" rx="28.0872" ry="28.0872" style="fill:#FFCC99;fill-rule:evenodd;stroke:#FFCC99;stroke-width:1px;stroke-linecap:butt;stroke-linejoin:miter;stroke-opacity:1"/>
<ellipse cx="3047.92" cy="320.218" rx="28.0872" ry="28.0872" style="fill:#FFCC99;fill-rule:evenodd;stroke:#FFCC99;stroke-width:1px;stroke-linecap:butt;stroke-linejoin:miter;stroke-opacity:1"/>
<ellipse cx="3169.54" cy="390.436" rx="28.0872" ry="28.0872" style="fill:#FFCC99;fill-rule:evenodd;stroke:#FFCC99;stroke-width:1px;stroke-linecap:butt;stroke-linejoin:miter;stroke-opacity:1"/>
<ellipse cx="3291.16" cy="320.218" rx="28.0872" ry="28.0872" style="fill:#FFCC99;fill-rule:evenodd;stroke:#FFCC99;stroke-width:1px;stroke-linecap:butt;stroke-linejoin:miter;stroke-opacity:1"/>
<ellipse cx="3412.78" cy="390.436" rx="28.0872" ry="28.0872" style="fill:#FFCC99;fill-rule:evenodd;stroke:#FFCC99;stroke-width:1px;stroke-linecap:butt;stroke-linejoin:miter;stroke-opacity:1"/>
<ellipse cx="3534.4" cy="320.218" rx="28.0872" ry="28.0872" style="fill:#FFCC99;fill-rule:evenodd;stroke:#FFCC99;stroke-width:1px;stroke-linecap:butt;stroke-linejoin:miter;stroke-opacity:1"/>
<ellipse cx="3656.02" cy="390.436" rx="28.0872" ry="28.0872" style="fill:#FFCC99;fill-rule:evenodd;stroke:#FFCC99;stroke-width:1px;stroke-linecap:butt;stroke-linejoin:miter;stroke-opacity:1"/>
<ellipse cx="3777.64" cy="320.218" rx="28.0872" ry="28.0872" style="fill:#FFCC99;fill-rule:evenodd;stroke:#FFCC99;stroke-width:1px;stroke-linecap:butt;stroke-linejoin:miter;stroke-opacity:1"/>
<ellipse cx="3777.64" cy="179.782" rx="28.0872" ry="28.0872" style="fill:#FFCC99;fill-rule:evenodd;stroke:#FFCC99;stroke-width:1px;stroke-linecap:butt;stroke-linejoin:miter;stroke-opacity:1"/>
<ellipse cx="3656.02" cy="109.564" rx="28.0872" ry="28.0872" style="fill:#FFCC99;fill-rule:evenodd;stroke:#FFCC99;stroke-width:1px;stroke-linecap:butt;stroke-linejoin:miter;stroke-opacity:1"/>
<ellipse cx="3534.4" cy="179.782" rx="28.0872" ry="28.0872" style="fill:#FFCC99;fill-rule:evenodd;stroke:#FFCC99;stroke-width:1px;stroke-linecap:butt;stroke-linejoin:miter;stroke-opacity:1"/>
<ellipse cx="3412.78" cy="109.564" rx="28.0872" ry="28.0872" style="fill:#FFCC99;fill-rule:evenodd;stroke:#FFCC99;stroke-width:1px;stroke-linecap:butt;stroke-linejoin:miter;stroke-opacity:1"/>
<ellipse cx="3291.16" cy="179.782" rx="28.0872" ry="28.0872" style="fill:#FFCC99;fill-rule:evenodd;stroke:#FFCC99;stroke-width:1px;stroke-linecap:butt;stroke-linejoin:miter;stroke-opacity:1"/>
<ellipse cx="3169.54" cy="109.564" rx="28.0872" ry="28.0872" style="fill:#FFCC99;fill-rule:evenodd;stroke:#FFCC99;stroke-width:1px;stroke-linecap:butt;stroke-linejoin:miter;stroke-opacity:1"/>
<ellipse cx="3047.92" cy="179.782" rx="28.0872" ry="28.0872" style="fill:#FFCC99;fill-rule:evenodd;stroke:#FFCC99;stroke-width:1px;stroke-linecap:butt;stroke-linejoin:miter;stroke-opacity:1"/>
<ellipse cx="2914.35" cy="136.605" rx="28.0872" ry="28.0872" style="fill:#FFCC99;fill-rule:evenodd;stroke:#FFCC99;stroke-width:1px;stroke-linecap:butt;stroke-linejoin:miter;stroke-opacity:1"/>
<path class="bond-0" d="M 181.818,169.751 L 303.439,239.969" style="fill:none;fill-rule:evenodd;stroke:#000000;stroke-width:2.0px;stroke-linecap:butt;stroke-linejoin:miter;stroke-opacity:1"/>
<path class="bond-1" d="M 289.396,239.969 L 289.396,301.271" style="fill:none;fill-rule:evenodd;stroke:#000000;stroke-width:2.0px;stroke-linecap:butt;stroke-linejoin:miter;stroke-opacity:1"/>
<path class="bond-1" d="M 289.396,301.271 L 289.396,362.574" style="fill:none;fill-rule:evenodd;stroke:#FF0000;stroke-width:2.0px;stroke-linecap:butt;stroke-linejoin:miter;stroke-opacity:1"/>
<path class="bond-1" d="M 317.483,239.969 L 317.483,301.271" style="fill:none;fill-rule:evenodd;stroke:#000000;stroke-width:2.0px;stroke-linecap:butt;stroke-linejoin:miter;stroke-opacity:1"/>
<path class="bond-1" d="M 317.483,301.271 L 317.483,362.574" style="fill:none;fill-rule:evenodd;stroke:#FF0000;stroke-width:2.0px;stroke-linecap:butt;stroke-linejoin:miter;stroke-opacity:1"/>
<path class="bond-2" d="M 303.439,239.969 L 355.994,209.626" style="fill:none;fill-rule:evenodd;stroke:#000000;stroke-width:2.0px;stroke-linecap:butt;stroke-linejoin:miter;stroke-opacity:1"/>
<path class="bond-2" d="M 355.994,209.626 L 408.549,179.284" style="fill:none;fill-rule:evenodd;stroke:#FF0000;stroke-width:2.0px;stroke-linecap:butt;stroke-linejoin:miter;stroke-opacity:1"/>
<path class="bond-3" d="M 441.571,179.284 L 494.126,209.626" style="fill:none;fill-rule:evenodd;stroke:#FF0000;stroke-width:2.0px;stroke-linecap:butt;stroke-linejoin:miter;stroke-opacity:1"/>
<path class="bond-3" d="M 494.126,209.626 L 546.681,239.969" style="fill:none;fill-rule:evenodd;stroke:#000000;stroke-width:2.0px;stroke-linecap:butt;stroke-linejoin:miter;stroke-opacity:1"/>
<path class="bond-4" d="M 532.638,239.969 L 532.638,301.271" style="fill:none;fill-rule:evenodd;stroke:#000000;stroke-width:2.0px;stroke-linecap:butt;stroke-linejoin:miter;stroke-opacity:1"/>
<path class="bond-4" d="M 532.638,301.271 L 532.638,362.574" style="fill:none;fill-rule:evenodd;stroke:#FF0000;stroke-width:2.0px;stroke-linecap:butt;stroke-linejoin:miter;stroke-opacity:1"/>
<path class="bond-4" d="M 560.725,239.969 L 560.725,301.271" style="fill:none;fill-rule:evenodd;stroke:#000000;stroke-width:2.0px;stroke-linecap:butt;stroke-linejoin:miter;stroke-opacity:1"/>
<path class="bond-4" d="M 560.725,301.271 L 560.725,362.574" style="fill:none;fill-rule:evenodd;stroke:#FF0000;stroke-width:2.0px;stroke-linecap:butt;stroke-linejoin:miter;stroke-opacity:1"/>
<path class="bond-5" d="M 546.681,239.969 L 668.302,169.751" style="fill:none;fill-rule:evenodd;stroke:#000000;stroke-width:2.0px;stroke-linecap:butt;stroke-linejoin:miter;stroke-opacity:1"/>
<path class="bond-6" d="M 1078.15,382.208 L 1131.84,351.213" style="fill:none;fill-rule:evenodd;stroke:#0000FF;stroke-width:2.0px;stroke-linecap:butt;stroke-linejoin:miter;stroke-opacity:1"/>
<path class="bond-6" d="M 1131.84,351.213 L 1185.52,320.218" style="fill:none;fill-rule:evenodd;stroke:#000000;stroke-width:2.0px;stroke-linecap:butt;stroke-linejoin:miter;stroke-opacity:1"/>
<path class="bond-7" d="M 1185.52,320.218 L 1307.14,390.436" style="fill:none;fill-rule:evenodd;stroke:#000000;stroke-width:2.0px;stroke-linecap:butt;stroke-linejoin:miter;stroke-opacity:1"/>
<path class="bond-7" d="M 1217.81,306.426 L 1302.94,355.579" style="fill:none;fill-rule:evenodd;stroke:#000000;stroke-width:2.0px;stroke-linecap:butt;stroke-linejoin:miter;stroke-opacity:1;stroke-dasharray:6,6"/>
<path class="bond-21" d="M 1185.52,320.218 L 1185.52,179.782" style="fill:none;fill-rule:evenodd;stroke:#000000;stroke-width:2.0px;stroke-linecap:butt;stroke-linejoin:miter;stroke-opacity:1"/>
<path class="bond-21" d="M 1213.61,299.153 L 1213.61,200.847" style="fill:none;fill-rule:evenodd;stroke:#000000;stroke-width:2.0px;stroke-linecap:butt;stroke-linejoin:miter;stroke-opacity:1;stroke-dasharray:6,6"/>
<path class="bond-8" d="M 1307.14,390.436 L 1428.76,320.218" style="fill:none;fill-rule:evenodd;stroke:#000000;stroke-width:2.0px;stroke-linecap:butt;stroke-linejoin:miter;stroke-opacity:1"/>
<path class="bond-8" d="M 1311.34,355.579 L 1396.48,306.426" style="fill:none;fill-rule:evenodd;stroke:#000000;stroke-width:2.0px;stroke-linecap:butt;stroke-linejoin:miter;stroke-opacity:1;stroke-dasharray:6,6"/>
<path class="bond-9" d="M 1428.76,320.218 L 1482.45,351.213" style="fill:none;fill-rule:evenodd;stroke:#000000;stroke-width:2.0px;stroke-linecap:butt;stroke-linejoin:miter;stroke-opacity:1"/>
<path class="bond-9" d="M 1482.45,351.213 L 1536.13,382.208" style="fill:none;fill-rule:evenodd;stroke:#0000FF;stroke-width:2.0px;stroke-linecap:butt;stroke-linejoin:miter;stroke-opacity:1"/>
<path class="bond-9" d="M 1458.91,305.192 L 1496.49,326.889" style="fill:none;fill-rule:evenodd;stroke:#000000;stroke-width:2.0px;stroke-linecap:butt;stroke-linejoin:miter;stroke-opacity:1;stroke-dasharray:6,6"/>
<path class="bond-9" d="M 1496.49,326.889 L 1534.07,348.585" style="fill:none;fill-rule:evenodd;stroke:#0000FF;stroke-width:2.0px;stroke-linecap:butt;stroke-linejoin:miter;stroke-opacity:1;stroke-dasharray:6,6"/>
<path class="bond-22" d="M 1428.76,320.218 L 1428.76,179.782" style="fill:none;fill-rule:evenodd;stroke:#000000;stroke-width:2.0px;stroke-linecap:butt;stroke-linejoin:miter;stroke-opacity:1"/>
<path class="bond-22" d="M 1400.68,299.153 L 1400.68,200.847" style="fill:none;fill-rule:evenodd;stroke:#000000;stroke-width:2.0px;stroke-linecap:butt;stroke-linejoin:miter;stroke-opacity:1;stroke-dasharray:6,6"/>
<path class="bond-10" d="M 1564.64,382.208 L 1618.32,351.213" style="fill:none;fill-rule:evenodd;stroke:#0000FF;stroke-width:2.0px;stroke-linecap:butt;stroke-linejoin:miter;stroke-opacity:1"/>
<path class="bond-10" d="M 1618.32,351.213 L 1672.01,320.218" style="fill:none;fill-rule:evenodd;stroke:#000000;stroke-width:2.0px;stroke-linecap:butt;stroke-linejoin:miter;stroke-opacity:1"/>
<path class="bond-10" d="M 1566.7,348.585 L 1604.28,326.889" style="fill:none;fill-rule:evenodd;stroke:#0000FF;stroke-width:2.0px;stroke-linecap:butt;stroke-linejoin:miter;stroke-opacity:1;stroke-dasharray:6,6"/>
<path class="bond-10" d="M 1604.28,326.889 L 1641.86,305.192" style="fill:none;fill-rule:evenodd;stroke:#000000;stroke-width:2.0px;stroke-linecap:butt;stroke-linejoin:miter;stroke-opacity:1;stroke-dasharray:6,6"/>
<path class="bond-11" d="M 1672.01,320.218 L 1793.63,390.436" style="fill:none;fill-rule:evenodd;stroke:#000000;stroke-width:2.0px;stroke-linecap:butt;stroke-linejoin:miter;stroke-opacity:1"/>
<path class="bond-11" d="M 1704.29,306.426 L 1789.43,355.579" style="fill:none;fill-rule:evenodd;stroke:#000000;stroke-width:2.0px;stroke-linecap:butt;stroke-linejoin:miter;stroke-opacity:1;stroke-dasharray:6,6"/>
<path class="bond-23" d="M 1672.01,320.218 L 1672.01,179.782" style="fill:none;fill-rule:evenodd;stroke:#000000;stroke-width:2.0px;stroke-linecap:butt;stroke-linejoin:miter;stroke-opacity:1"/>
<path class="bond-23" d="M 1643.92,299.153 L 1643.92,200.847" style="fill:none;fill-rule:evenodd;stroke:#000000;stroke-width:2.0px;stroke-linecap:butt;stroke-linejoin:miter;stroke-opacity:1;stroke-dasharray:6,6"/>
<path class="bond-12" d="M 1793.63,390.436 L 1915.25,320.218" style="fill:none;fill-rule:evenodd;stroke:#000000;stroke-width:2.0px;stroke-linecap:butt;stroke-linejoin:miter;stroke-opacity:1"/>
<path class="bond-12" d="M 1797.83,355.579 L 1882.96,306.426" style="fill:none;fill-rule:evenodd;stroke:#000000;stroke-width:2.0px;stroke-linecap:butt;stroke-linejoin:miter;stroke-opacity:1;stroke-dasharray:6,6"/>
<path class="bond-13" d="M 1915.25,320.218 L 1915.25,179.782" style="fill:none;fill-rule:evenodd;stroke:#000000;stroke-width:2.0px;stroke-linecap:butt;stroke-linejoin:miter;stroke-opacity:1"/>
<path class="bond-13" d="M 1887.16,299.153 L 1887.16,200.847" style="fill:none;fill-rule:evenodd;stroke:#000000;stroke-width:2.0px;stroke-linecap:butt;stroke-linejoin:miter;stroke-opacity:1;stroke-dasharray:6,6"/>
<path class="bond-14" d="M 1915.25,179.782 L 1793.63,109.564" style="fill:none;fill-rule:evenodd;stroke:#000000;stroke-width:2.0px;stroke-linecap:butt;stroke-linejoin:miter;stroke-opacity:1"/>
<path class="bond-14" d="M 1882.96,193.574 L 1797.83,144.421" style="fill:none;fill-rule:evenodd;stroke:#000000;stroke-width:2.0px;stroke-linecap:butt;stroke-linejoin:miter;stroke-opacity:1;stroke-dasharray:6,6"/>
<path class="bond-15" d="M 1793.63,109.564 L 1672.01,179.782" style="fill:none;fill-rule:evenodd;stroke:#000000;stroke-width:2.0px;stroke-linecap:butt;stroke-linejoin:miter;stroke-opacity:1"/>
<path class="bond-15" d="M 1789.43,144.421 L 1704.29,193.574" style="fill:none;fill-rule:evenodd;stroke:#000000;stroke-width:2.0px;stroke-linecap:butt;stroke-linejoin:miter;stroke-opacity:1;stroke-dasharray:6,6"/>
<path class="bond-16" d="M 1672.01,179.782 L 1618.32,148.787" style="fill:none;fill-rule:evenodd;stroke:#000000;stroke-width:2.0px;stroke-linecap:butt;stroke-linejoin:miter;stroke-opacity:1"/>
<path class="bond-16" d="M 1618.32,148.787 L 1564.64,117.792" style="fill:none;fill-rule:evenodd;stroke:#0000FF;stroke-width:2.0px;stroke-linecap:butt;stroke-linejoin:miter;stroke-opacity:1"/>
<path class="bond-16" d="M 1641.86,194.808 L 1604.28,173.111" style="fill:none;fill-rule:evenodd;stroke:#000000;stroke-width:2.0px;stroke-linecap:butt;stroke-linejoin:miter;stroke-opacity:1;stroke-dasharray:6,6"/>
<path class="bond-16" d="M 1604.28,173.111 L 1566.7,151.415" style="fill:none;fill-rule:evenodd;stroke:#0000FF;stroke-width:2.0px;stroke-linecap:butt;stroke-linejoin:miter;stroke-opacity:1;stroke-dasharray:6,6"/>
<path class="bond-17" d="M 1536.13,117.792 L 1482.45,148.787" style="fill:none;fill-rule:evenodd;stroke:#0000FF;stroke-width:2.0px;stroke-linecap:butt;stroke-linejoin:miter;stroke-opacity:1"/>
<path class="bond-17" d="M 1482.45,148.787 L 1428.76,179.782" style="fill:none;fill-rule:evenodd;stroke:#000000;stroke-width:2.0px;stroke-linecap:butt;stroke-linejoin:miter;stroke-opacity:1"/>
<path class="bond-17" d="M 1534.07,151.415 L 1496.49,173.111" style="fill:none;fill-rule:evenodd;stroke:#0000FF;stroke-width:2.0px;stroke-linecap:butt;stroke-linejoin:miter;stroke-opacity:1;stroke-dasharray:6,6"/>
<path class="bond-17" d="M 1496.49,173.111 L 1458.91,194.808" style="fill:none;fill-rule:evenodd;stroke:#000000;stroke-width:2.0px;stroke-linecap:butt;stroke-linejoin:miter;stroke-opacity:1;stroke-dasharray:6,6"/>
<path class="bond-18" d="M 1428.76,179.782 L 1307.14,109.564" style="fill:none;fill-rule:evenodd;stroke:#000000;stroke-width:2.0px;stroke-linecap:butt;stroke-linejoin:miter;stroke-opacity:1"/>
<path class="bond-18" d="M 1396.48,193.574 L 1311.34,144.421" style="fill:none;fill-rule:evenodd;stroke:#000000;stroke-width:2.0px;stroke-linecap:butt;stroke-linejoin:miter;stroke-opacity:1;stroke-dasharray:6,6"/>
<path class="bond-19" d="M 1307.14,109.564 L 1185.52,179.782" style="fill:none;fill-rule:evenodd;stroke:#000000;stroke-width:2.0px;stroke-linecap:butt;stroke-linejoin:miter;stroke-opacity:1"/>
<path class="bond-19" d="M 1302.94,144.421 L 1217.81,193.574" style="fill:none;fill-rule:evenodd;stroke:#000000;stroke-width:2.0px;stroke-linecap:butt;stroke-linejoin:miter;stroke-opacity:1;stroke-dasharray:6,6"/>
<path class="bond-20" d="M 1185.52,179.782 L 1132.97,149.439" style="fill:none;fill-rule:evenodd;stroke:#000000;stroke-width:2.0px;stroke-linecap:butt;stroke-linejoin:miter;stroke-opacity:1"/>
<path class="bond-20" d="M 1132.97,149.439 L 1080.41,119.097" style="fill:none;fill-rule:evenodd;stroke:#FF0000;stroke-width:2.0px;stroke-linecap:butt;stroke-linejoin:miter;stroke-opacity:1"/>
<path class="bond-24" d="M 2691.37,250 L 2831.81,250" style="fill:none;fill-rule:evenodd;stroke:#000000;stroke-width:2.0px;stroke-linecap:butt;stroke-linejoin:miter;stroke-opacity:1"/>
<path class="bond-25" d="M 2831.81,250 L 2866.66,297.972" style="fill:none;fill-rule:evenodd;stroke:#000000;stroke-width:2.0px;stroke-linecap:butt;stroke-linejoin:miter;stroke-opacity:1"/>
<path class="bond-25" d="M 2866.66,297.972 L 2901.51,345.944" style="fill:none;fill-rule:evenodd;stroke:#0000FF;stroke-width:2.0px;stroke-linecap:butt;stroke-linejoin:miter;stroke-opacity:1"/>
<path class="bond-25" d="M 2864.99,247.882 L 2889.38,281.463" style="fill:none;fill-rule:evenodd;stroke:#000000;stroke-width:2.0px;stroke-linecap:butt;stroke-linejoin:miter;stroke-opacity:1;stroke-dasharray:6,6"/>
<path class="bond-25" d="M 2889.38,281.463 L 2913.78,315.043" style="fill:none;fill-rule:evenodd;stroke:#0000FF;stroke-width:2.0px;stroke-linecap:butt;stroke-linejoin:miter;stroke-opacity:1;stroke-dasharray:6,6"/>
<path class="bond-41" d="M 2831.81,250 L 2866.44,202.328" style="fill:none;fill-rule:evenodd;stroke:#000000;stroke-width:2.0px;stroke-linecap:butt;stroke-linejoin:miter;stroke-opacity:1"/>
<path class="bond-41" d="M 2866.44,202.328 L 2901.08,154.656" style="fill:none;fill-rule:evenodd;stroke:#FF0000;stroke-width:2.0px;stroke-linecap:butt;stroke-linejoin:miter;stroke-opacity:1"/>
<path class="bond-41" d="M 2864.92,252.208 L 2889.17,218.837" style="fill:none;fill-rule:evenodd;stroke:#000000;stroke-width:2.0px;stroke-linecap:butt;stroke-linejoin:miter;stroke-opacity:1;stroke-dasharray:6,6"/>
<path class="bond-41" d="M 2889.17,218.837 L 2913.41,185.467" style="fill:none;fill-rule:evenodd;stroke:#FF0000;stroke-width:2.0px;stroke-linecap:butt;stroke-linejoin:miter;stroke-opacity:1;stroke-dasharray:6,6"/>
<path class="bond-26" d="M 2928.6,358.985 L 2988.26,339.601" style="fill:none;fill-rule:evenodd;stroke:#0000FF;stroke-width:2.0px;stroke-linecap:butt;stroke-linejoin:miter;stroke-opacity:1"/>
<path class="bond-26" d="M 2988.26,339.601 L 3047.92,320.218" style="fill:none;fill-rule:evenodd;stroke:#000000;stroke-width:2.0px;stroke-linecap:butt;stroke-linejoin:miter;stroke-opacity:1"/>
<path class="bond-26" d="M 2937.82,326.457 L 2979.58,312.889" style="fill:none;fill-rule:evenodd;stroke:#0000FF;stroke-width:2.0px;stroke-linecap:butt;stroke-linejoin:miter;stroke-opacity:1;stroke-dasharray:6,6"/>
<path class="bond-26" d="M 2979.58,312.889 L 3021.34,299.32" style="fill:none;fill-rule:evenodd;stroke:#000000;stroke-width:2.0px;stroke-linecap:butt;stroke-linejoin:miter;stroke-opacity:1;stroke-dasharray:6,6"/>
<path class="bond-27" d="M 3047.92,320.218 L 3169.54,390.436" style="fill:none;fill-rule:evenodd;stroke:#000000;stroke-width:2.0px;stroke-linecap:butt;stroke-linejoin:miter;stroke-opacity:1"/>
<path class="bond-27" d="M 3080.2,306.426 L 3165.34,355.579" style="fill:none;fill-rule:evenodd;stroke:#000000;stroke-width:2.0px;stroke-linecap:butt;stroke-linejoin:miter;stroke-opacity:1;stroke-dasharray:6,6"/>
<path class="bond-42" d="M 3047.92,320.218 L 3047.92,179.782" style="fill:none;fill-rule:evenodd;stroke:#000000;stroke-width:2.0px;stroke-linecap:butt;stroke-linejoin:miter;stroke-opacity:1"/>
<path class="bond-42" d="M 3019.83,299.153 L 3019.83,200.847" style="fill:none;fill-rule:evenodd;stroke:#000000;stroke-width:2.0px;stroke-linecap:butt;stroke-linejoin:miter;stroke-opacity:1;stroke-dasharray:6,6"/>
<path class="bond-28" d="M 3169.54,390.436 L 3291.16,320.218" style="fill:none;fill-rule:evenodd;stroke:#000000;stroke-width:2.0px;stroke-linecap:butt;stroke-linejoin:miter;stroke-opacity:1"/>
<path class="bond-28" d="M 3173.74,355.579 L 3258.87,306.426" style="fill:none;fill-rule:evenodd;stroke:#000000;stroke-width:2.0px;stroke-linecap:butt;stroke-linejoin:miter;stroke-opacity:1;stroke-dasharray:6,6"/>
<path class="bond-29" d="M 3291.16,320.218 L 3344.84,351.213" style="fill:none;fill-rule:evenodd;stroke:#000000;stroke-width:2.0px;stroke-linecap:butt;stroke-linejoin:miter;stroke-opacity:1"/>
<path class="bond-29" d="M 3344.84,351.213 L 3398.53,382.208" style="fill:none;fill-rule:evenodd;stroke:#0000FF;stroke-width:2.0px;stroke-linecap:butt;stroke-linejoin:miter;stroke-opacity:1"/>
<path class="bond-29" d="M 3321.31,305.192 L 3358.89,326.889" style="fill:none;fill-rule:evenodd;stroke:#000000;stroke-width:2.0px;stroke-linecap:butt;stroke-linejoin:miter;stroke-opacity:1;stroke-dasharray:6,6"/>
<path class="bond-29" d="M 3358.89,326.889 L 3396.47,348.585" style="fill:none;fill-rule:evenodd;stroke:#0000FF;stroke-width:2.0px;stroke-linecap:butt;stroke-linejoin:miter;stroke-opacity:1;stroke-dasharray:6,6"/>
<path class="bond-43" d="M 3291.16,320.218 L 3291.16,179.782" style="fill:none;fill-rule:evenodd;stroke:#000000;stroke-width:2.0px;stroke-linecap:butt;stroke-linejoin:miter;stroke-opacity:1"/>
<path class="bond-43" d="M 3263.07,299.153 L 3263.07,200.847" style="fill:none;fill-rule:evenodd;stroke:#000000;stroke-width:2.0px;stroke-linecap:butt;stroke-linejoin:miter;stroke-opacity:1;stroke-dasharray:6,6"/>
<path class="bond-30" d="M 3427.03,382.208 L 3480.71,351.213" style="fill:none;fill-rule:evenodd;stroke:#0000FF;stroke-width:2.0px;stroke-linecap:butt;stroke-linejoin:miter;stroke-opacity:1"/>
<path class="bond-30" d="M 3480.71,351.213 L 3534.4,320.218" style="fill:none;fill-rule:evenodd;stroke:#000000;stroke-width:2.0px;stroke-linecap:butt;stroke-linejoin:miter;stroke-opacity:1"/>
<path class="bond-30" d="M 3429.09,348.585 L 3466.67,326.889" style="fill:none;fill-rule:evenodd;stroke:#0000FF;stroke-width:2.0px;stroke-linecap:butt;stroke-linejoin:miter;stroke-opacity:1;stroke-dasharray:6,6"/>
<path class="bond-30" d="M 3466.67,326.889 L 3504.25,305.192" style="fill:none;fill-rule:evenodd;stroke:#000000;stroke-width:2.0px;stroke-linecap:butt;stroke-linejoin:miter;stroke-opacity:1;stroke-dasharray:6,6"/>
<path class="bond-31" d="M 3534.4,320.218 L 3656.02,390.436" style="fill:none;fill-rule:evenodd;stroke:#000000;stroke-width:2.0px;stroke-linecap:butt;stroke-linejoin:miter;stroke-opacity:1"/>
<path class="bond-31" d="M 3566.69,306.426 L 3651.82,355.579" style="fill:none;fill-rule:evenodd;stroke:#000000;stroke-width:2.0px;stroke-linecap:butt;stroke-linejoin:miter;stroke-opacity:1;stroke-dasharray:6,6"/>
<path class="bond-44" d="M 3534.4,320.218 L 3534.4,179.782" style="fill:none;fill-rule:evenodd;stroke:#000000;stroke-width:2.0px;stroke-linecap:butt;stroke-linejoin:miter;stroke-opacity:1"/>
<path class="bond-44" d="M 3506.31,299.153 L 3506.31,200.847" style="fill:none;fill-rule:evenodd;stroke:#000000;stroke-width:2.0px;stroke-linecap:butt;stroke-linejoin:miter;stroke-opacity:1;stroke-dasharray:6,6"/>
<path class="bond-32" d="M 3656.02,390.436 L 3777.64,320.218" style="fill:none;fill-rule:evenodd;stroke:#000000;stroke-width:2.0px;stroke-linecap:butt;stroke-linejoin:miter;stroke-opacity:1"/>
<path class="bond-32" d="M 3660.22,355.579 L 3745.35,306.426" style="fill:none;fill-rule:evenodd;stroke:#000000;stroke-width:2.0px;stroke-linecap:butt;stroke-linejoin:miter;stroke-opacity:1;stroke-dasharray:6,6"/>
<path class="bond-33" d="M 3777.64,320.218 L 3777.64,179.782" style="fill:none;fill-rule:evenodd;stroke:#000000;stroke-width:2.0px;stroke-linecap:butt;stroke-linejoin:miter;stroke-opacity:1"/>
<path class="bond-33" d="M 3749.55,299.153 L 3749.55,200.847" style="fill:none;fill-rule:evenodd;stroke:#000000;stroke-width:2.0px;stroke-linecap:butt;stroke-linejoin:miter;stroke-opacity:1;stroke-dasharray:6,6"/>
<path class="bond-34" d="M 3777.64,179.782 L 3656.02,109.564" style="fill:none;fill-rule:evenodd;stroke:#000000;stroke-width:2.0px;stroke-linecap:butt;stroke-linejoin:miter;stroke-opacity:1"/>
<path class="bond-34" d="M 3745.35,193.574 L 3660.22,144.421" style="fill:none;fill-rule:evenodd;stroke:#000000;stroke-width:2.0px;stroke-linecap:butt;stroke-linejoin:miter;stroke-opacity:1;stroke-dasharray:6,6"/>
<path class="bond-35" d="M 3656.02,109.564 L 3534.4,179.782" style="fill:none;fill-rule:evenodd;stroke:#000000;stroke-width:2.0px;stroke-linecap:butt;stroke-linejoin:miter;stroke-opacity:1"/>
<path class="bond-35" d="M 3651.82,144.421 L 3566.69,193.574" style="fill:none;fill-rule:evenodd;stroke:#000000;stroke-width:2.0px;stroke-linecap:butt;stroke-linejoin:miter;stroke-opacity:1;stroke-dasharray:6,6"/>
<path class="bond-36" d="M 3534.4,179.782 L 3480.71,148.787" style="fill:none;fill-rule:evenodd;stroke:#000000;stroke-width:2.0px;stroke-linecap:butt;stroke-linejoin:miter;stroke-opacity:1"/>
<path class="bond-36" d="M 3480.71,148.787 L 3427.03,117.792" style="fill:none;fill-rule:evenodd;stroke:#0000FF;stroke-width:2.0px;stroke-linecap:butt;stroke-linejoin:miter;stroke-opacity:1"/>
<path class="bond-36" d="M 3504.25,194.808 L 3466.67,173.111" style="fill:none;fill-rule:evenodd;stroke:#000000;stroke-width:2.0px;stroke-linecap:butt;stroke-linejoin:miter;stroke-opacity:1;stroke-dasharray:6,6"/>
<path class="bond-36" d="M 3466.67,173.111 L 3429.09,151.415" style="fill:none;fill-rule:evenodd;stroke:#0000FF;stroke-width:2.0px;stroke-linecap:butt;stroke-linejoin:miter;stroke-opacity:1;stroke-dasharray:6,6"/>
<path class="bond-37" d="M 3398.53,117.792 L 3344.84,148.787" style="fill:none;fill-rule:evenodd;stroke:#0000FF;stroke-width:2.0px;stroke-linecap:butt;stroke-linejoin:miter;stroke-opacity:1"/>
<path class="bond-37" d="M 3344.84,148.787 L 3291.16,179.782" style="fill:none;fill-rule:evenodd;stroke:#000000;stroke-width:2.0px;stroke-linecap:butt;stroke-linejoin:miter;stroke-opacity:1"/>
<path class="bond-37" d="M 3396.47,151.415 L 3358.89,173.111" style="fill:none;fill-rule:evenodd;stroke:#0000FF;stroke-width:2.0px;stroke-linecap:butt;stroke-linejoin:miter;stroke-opacity:1;stroke-dasharray:6,6"/>
<path class="bond-37" d="M 3358.89,173.111 L 3321.31,194.808" style="fill:none;fill-rule:evenodd;stroke:#000000;stroke-width:2.0px;stroke-linecap:butt;stroke-linejoin:miter;stroke-opacity:1;stroke-dasharray:6,6"/>
<path class="bond-38" d="M 3291.16,179.782 L 3169.54,109.564" style="fill:none;fill-rule:evenodd;stroke:#000000;stroke-width:2.0px;stroke-linecap:butt;stroke-linejoin:miter;stroke-opacity:1"/>
<path class="bond-38" d="M 3258.87,193.574 L 3173.74,144.421" style="fill:none;fill-rule:evenodd;stroke:#000000;stroke-width:2.0px;stroke-linecap:butt;stroke-linejoin:miter;stroke-opacity:1;stroke-dasharray:6,6"/>
<path class="bond-39" d="M 3169.54,109.564 L 3047.92,179.782" style="fill:none;fill-rule:evenodd;stroke:#000000;stroke-width:2.0px;stroke-linecap:butt;stroke-linejoin:miter;stroke-opacity:1"/>
<path class="bond-39" d="M 3165.34,144.421 L 3080.2,193.574" style="fill:none;fill-rule:evenodd;stroke:#000000;stroke-width:2.0px;stroke-linecap:butt;stroke-linejoin:miter;stroke-opacity:1;stroke-dasharray:6,6"/>
<path class="bond-40" d="M 3047.92,179.782 L 2989.39,160.766" style="fill:none;fill-rule:evenodd;stroke:#000000;stroke-width:2.0px;stroke-linecap:butt;stroke-linejoin:miter;stroke-opacity:1"/>
<path class="bond-40" d="M 2989.39,160.766 L 2930.86,141.75" style="fill:none;fill-rule:evenodd;stroke:#FF0000;stroke-width:2.0px;stroke-linecap:butt;stroke-linejoin:miter;stroke-opacity:1"/>
<path class="bond-40" d="M 3021.68,200.79 L 2980.71,187.478" style="fill:none;fill-rule:evenodd;stroke:#000000;stroke-width:2.0px;stroke-linecap:butt;stroke-linejoin:miter;stroke-opacity:1;stroke-dasharray:6,6"/>
<path class="bond-40" d="M 2980.71,187.478 L 2939.74,174.167" style="fill:none;fill-rule:evenodd;stroke:#FF0000;stroke-width:2.0px;stroke-linecap:butt;stroke-linejoin:miter;stroke-opacity:1;stroke-dasharray:6,6"/>
<path class="atom-2" d="M 290.439 380.485 Q 290.439 373.685, 293.799 369.885 Q 297.159 366.085, 303.439 366.085 Q 309.719 366.085, 313.079 369.885 Q 316.439 373.685, 316.439 380.485 Q 316.439 387.365, 313.039 391.285 Q 309.639 395.165, 303.439 395.165 Q 297.199 395.165, 293.799 391.285 Q 290.439 387.405, 290.439 380.485 M 303.439 391.965 Q 307.759 391.965, 310.079 389.085 Q 312.439 386.165, 312.439 380.485 Q 312.439 374.925, 310.079 372.125 Q 307.759 369.285, 303.439 369.285 Q 299.119 369.285, 296.759 372.085 Q 294.439 374.885, 294.439 380.485 Q 294.439 386.205, 296.759 389.085 Q 299.119 391.965, 303.439 391.965 " fill="#FF0000"/>
<path class="atom-3" d="M 412.06 169.831 Q 412.06 163.031, 415.42 159.231 Q 418.78 155.431, 425.06 155.431 Q 431.34 155.431, 434.7 159.231 Q 438.06 163.031, 438.06 169.831 Q 438.06 176.711, 434.66 180.631 Q 431.26 184.511, 425.06 184.511 Q 418.82 184.511, 415.42 180.631 Q 412.06 176.751, 412.06 169.831 M 425.06 181.311 Q 429.38 181.311, 431.7 178.431 Q 434.06 175.511, 434.06 169.831 Q 434.06 164.271, 431.7 161.471 Q 429.38 158.631, 425.06 158.631 Q 420.74 158.631, 418.38 161.431 Q 416.06 164.231, 416.06 169.831 Q 416.06 175.551, 418.38 178.431 Q 420.74 181.311, 425.06 181.311 " fill="#FF0000"/>
<path class="atom-5" d="M 533.681 380.485 Q 533.681 373.685, 537.041 369.885 Q 540.401 366.085, 546.681 366.085 Q 552.961 366.085, 556.321 369.885 Q 559.681 373.685, 559.681 380.485 Q 559.681 387.365, 556.281 391.285 Q 552.881 395.165, 546.681 395.165 Q 540.441 395.165, 537.041 391.285 Q 533.681 387.405, 533.681 380.485 M 546.681 391.965 Q 551.001 391.965, 553.321 389.085 Q 555.681 386.165, 555.681 380.485 Q 555.681 374.925, 553.321 372.125 Q 551.001 369.285, 546.681 369.285 Q 542.361 369.285, 540.001 372.085 Q 537.681 374.885, 537.681 380.485 Q 537.681 386.205, 540.001 389.085 Q 542.361 391.965, 546.681 391.965 " fill="#FF0000"/>
<path class="atom-7" d="M 1013.77 376.276 L 1017.61 376.276 L 1017.61 388.316 L 1032.09 388.316 L 1032.09 376.276 L 1035.93 376.276 L 1035.93 404.596 L 1032.09 404.596 L 1032.09 391.516 L 1017.61 391.516 L 1017.61 404.596 L 1013.77 404.596 L 1013.77 376.276 " fill="#0000FF"/>
<path class="atom-7" d="M 1037.3 403.602 Q 1037.99 401.833, 1039.62 400.857 Q 1041.26 399.853, 1043.53 399.853 Q 1046.36 399.853, 1047.94 401.385 Q 1049.52 402.916, 1049.52 405.635 Q 1049.52 408.407, 1047.46 410.994 Q 1045.43 413.581, 1041.21 416.644 L 1049.84 416.644 L 1049.84 418.756 L 1037.25 418.756 L 1037.25 416.987 Q 1040.73 414.505, 1042.79 412.657 Q 1044.88 410.809, 1045.88 409.146 Q 1046.88 407.483, 1046.88 405.767 Q 1046.88 403.972, 1045.99 402.969 Q 1045.09 401.965, 1043.53 401.965 Q 1042.03 401.965, 1041.02 402.573 Q 1040.02 403.18, 1039.31 404.526 L 1037.3 403.602 " fill="#0000FF"/>
<path class="atom-7" d="M 1057.64 376.276 L 1066.92 391.276 Q 1067.84 392.756, 1069.32 395.436 Q 1070.8 398.116, 1070.88 398.276 L 1070.88 376.276 L 1074.64 376.276 L 1074.64 404.596 L 1070.76 404.596 L 1060.8 388.196 Q 1059.64 386.276, 1058.4 384.076 Q 1057.2 381.876, 1056.84 381.196 L 1056.84 404.596 L 1053.16 404.596 L 1053.16 376.276 L 1057.64 376.276 " fill="#0000FF"/>
<path class="atom-11" d="M 1544.12 376.276 L 1553.4 391.276 Q 1554.32 392.756, 1555.8 395.436 Q 1557.28 398.116, 1557.36 398.276 L 1557.36 376.276 L 1561.12 376.276 L 1561.12 404.596 L 1557.24 404.596 L 1547.28 388.196 Q 1546.12 386.276, 1544.88 384.076 Q 1543.68 381.876, 1543.32 381.196 L 1543.32 404.596 L 1539.64 404.596 L 1539.64 376.276 L 1544.12 376.276 " fill="#0000FF"/>
<path class="atom-18" d="M 1544.12 95.4042 L 1553.4 110.404 Q 1554.32 111.884, 1555.8 114.564 Q 1557.28 117.244, 1557.36 117.404 L 1557.36 95.4042 L 1561.12 95.4042 L 1561.12 123.724 L 1557.24 123.724 L 1547.28 107.324 Q 1546.12 105.404, 1544.88 103.204 Q 1543.68 101.004, 1543.32 100.324 L 1543.32 123.724 L 1539.64 123.724 L 1539.64 95.4042 L 1544.12 95.4042 " fill="#0000FF"/>
<path class="atom-22" d="M 1026.74 95.5642 L 1030.58 95.5642 L 1030.58 107.604 L 1045.06 107.604 L 1045.06 95.5642 L 1048.9 95.5642 L 1048.9 123.884 L 1045.06 123.884 L 1045.06 110.804 L 1030.58 110.804 L 1030.58 123.884 L 1026.74 123.884 L 1026.74 95.5642 " fill="#FF0000"/>
<path class="atom-22" d="M 1050.9 109.644 Q 1050.9 102.844, 1054.26 99.0442 Q 1057.62 95.2442, 1063.9 95.2442 Q 1070.18 95.2442, 1073.54 99.0442 Q 1076.9 102.844, 1076.9 109.644 Q 1076.9 116.524, 1073.5 120.444 Q 1070.1 124.324, 1063.9 124.324 Q 1057.66 124.324, 1054.26 120.444 Q 1050.9 116.564, 1050.9 109.644 M 1063.9 121.124 Q 1068.22 121.124, 1070.54 118.244 Q 1072.9 115.324, 1072.9 109.644 Q 1072.9 104.084, 1070.54 101.284 Q 1068.22 98.4442, 1063.9 98.4442 Q 1059.58 98.4442, 1057.22 101.244 Q 1054.9 104.044, 1054.9 109.644 Q 1054.9 115.364, 1057.22 118.244 Q 1059.58 121.124, 1063.9 121.124 " fill="#FF0000"/>
<path class="atom-25" d="M 2908.09 349.455 L 2917.37 364.455 Q 2918.29 365.935, 2919.77 368.615 Q 2921.25 371.295, 2921.33 371.455 L 2921.33 349.455 L 2925.09 349.455 L 2925.09 377.775 L 2921.21 377.775 L 2911.25 361.375 Q 2910.09 359.455, 2908.85 357.255 Q 2907.65 355.055, 2907.29 354.375 L 2907.29 377.775 L 2903.61 377.775 L 2903.61 349.455 L 2908.09 349.455 " fill="#0000FF"/>
<path class="atom-29" d="M 3406.52 376.276 L 3415.8 391.276 Q 3416.72 392.756, 3418.2 395.436 Q 3419.68 398.116, 3419.76 398.276 L 3419.76 376.276 L 3423.52 376.276 L 3423.52 404.596 L 3419.64 404.596 L 3409.68 388.196 Q 3408.52 386.276, 3407.28 384.076 Q 3406.08 381.876, 3405.72 381.196 L 3405.72 404.596 L 3402.04 404.596 L 3402.04 376.276 L 3406.52 376.276 " fill="#0000FF"/>
<path class="atom-36" d="M 3406.52 95.4042 L 3415.8 110.404 Q 3416.72 111.884, 3418.2 114.564 Q 3419.68 117.244, 3419.76 117.404 L 3419.76 95.4042 L 3423.52 95.4042 L 3423.52 123.724 L 3419.64 123.724 L 3409.68 107.324 Q 3408.52 105.404, 3407.28 103.204 Q 3406.08 101.004, 3405.72 100.324 L 3405.72 123.724 L 3402.04 123.724 L 3402.04 95.4042 L 3406.52 95.4042 " fill="#0000FF"/>
<path class="atom-40" d="M 2901.35 136.465 Q 2901.35 129.665, 2904.71 125.865 Q 2908.07 122.065, 2914.35 122.065 Q 2920.63 122.065, 2923.99 125.865 Q 2927.35 129.665, 2927.35 136.465 Q 2927.35 143.345, 2923.95 147.265 Q 2920.55 151.145, 2914.35 151.145 Q 2908.11 151.145, 2904.71 147.265 Q 2901.35 143.385, 2901.35 136.465 M 2914.35 147.945 Q 2918.67 147.945, 2920.99 145.065 Q 2923.35 142.145, 2923.35 136.465 Q 2923.35 130.905, 2920.99 128.105 Q 2918.67 125.265, 2914.35 125.265 Q 2910.03 125.265, 2907.67 128.065 Q 2905.35 130.865, 2905.35 136.465 Q 2905.35 142.185, 2907.67 145.065 Q 2910.03 147.945, 2914.35 147.945 " fill="#FF0000"/>
<path class="note" d="M 541.951 212.243 Q 542.471 210.903, 543.711 210.163 Q 544.951 209.403, 546.671 209.403 Q 548.811 209.403, 550.011 210.563 Q 551.211 211.723, 551.211 213.783 Q 551.211 215.883, 549.651 217.843 Q 548.111 219.803, 544.911 222.123 L 551.451 222.123 L 551.451 223.723 L 541.911 223.723 L 541.911 222.383 Q 544.551 220.503, 546.111 219.103 Q 547.691 217.703, 548.451 216.443 Q 549.211 215.183, 549.211 213.883 Q 549.211 212.523, 548.531 211.763 Q 547.851 211.003, 546.671 211.003 Q 545.531 211.003, 544.771 211.463 Q 544.011 211.923, 543.471 212.943 L 541.951 212.243 " fill="#000000"/>
<path class="note" d="M 653.109 155.001 L 656.209 155.001 L 656.209 144.421 L 652.789 145.481 L 652.329 144.301 L 656.669 142.361 L 658.089 142.601 L 658.089 155.001 L 660.869 155.001 L 660.869 156.601 L 653.109 156.601 L 653.109 155.001 " fill="#000000"/>
<path class="note" d="M 1065.94 436.948 Q 1067.32 437.348, 1067.98 438.248 Q 1068.66 439.128, 1068.66 440.528 Q 1068.66 441.728, 1068.06 442.668 Q 1067.46 443.588, 1066.36 444.108 Q 1065.26 444.608, 1063.82 444.608 Q 1062.3 444.608, 1061.16 444.088 Q 1060.04 443.548, 1059.14 442.468 L 1060.28 441.308 Q 1061.16 442.268, 1061.9 442.648 Q 1062.64 443.008, 1063.82 443.008 Q 1065.1 443.008, 1065.88 442.328 Q 1066.66 441.628, 1066.66 440.508 Q 1066.66 439.068, 1065.84 438.428 Q 1065.04 437.768, 1063.3 437.768 L 1062.28 437.768 L 1062.28 436.328 L 1063.18 436.328 Q 1064.72 436.308, 1065.54 435.648 Q 1066.36 434.968, 1066.36 433.708 Q 1066.36 432.788, 1065.68 432.248 Q 1065 431.688, 1063.84 431.688 Q 1062.66 431.688, 1061.92 432.108 Q 1061.2 432.528, 1060.64 433.588 L 1059.26 432.848 Q 1059.76 431.668, 1060.96 430.888 Q 1062.16 430.088, 1063.84 430.088 Q 1065.92 430.088, 1067.14 431.068 Q 1068.36 432.048, 1068.36 433.708 Q 1068.36 434.848, 1067.74 435.668 Q 1067.12 436.488, 1065.94 436.948 " fill="#000000"/>
<path class="note" d="M 1189.27 345.844 L 1190.97 345.844 L 1190.97 347.444 L 1189.27 347.444 L 1189.27 350.704 L 1187.39 350.704 L 1187.39 347.444 L 1180.07 347.444 L 1180.07 346.184 L 1186.27 336.544 L 1189.27 336.544 L 1189.27 345.844 M 1182.39 345.844 L 1187.39 345.844 L 1187.39 337.824 L 1182.39 345.844 " fill="#000000"/>
<path class="note" d="M 1307.49 412.062 Q 1308.73 412.062, 1309.75 412.602 Q 1310.77 413.122, 1311.35 414.122 Q 1311.93 415.102, 1311.93 416.442 Q 1311.93 417.902, 1311.21 418.962 Q 1310.51 420.002, 1309.35 420.542 Q 1308.19 421.082, 1306.87 421.082 Q 1305.57 421.082, 1304.37 420.602 Q 1303.17 420.122, 1302.35 419.202 L 1303.55 417.962 Q 1304.21 418.682, 1305.11 419.082 Q 1306.01 419.462, 1306.93 419.462 Q 1308.19 419.462, 1309.05 418.682 Q 1309.93 417.902, 1309.93 416.482 Q 1309.93 414.982, 1309.05 414.282 Q 1308.19 413.562, 1306.81 413.562 Q 1305.57 413.562, 1304.19 414.102 L 1303.09 413.582 L 1303.77 406.762 L 1311.05 406.762 L 1310.85 408.362 L 1305.41 408.362 L 1304.99 412.562 Q 1306.25 412.062, 1307.49 412.062 " fill="#000000"/>
<path class="note" d="M 1429.39 341.944 Q 1430.63 341.944, 1431.61 342.484 Q 1432.59 343.024, 1433.13 344.004 Q 1433.67 344.984, 1433.67 346.224 Q 1433.67 347.604, 1433.05 348.684 Q 1432.45 349.744, 1431.37 350.344 Q 1430.29 350.944, 1428.91 350.944 Q 1426.39 350.944, 1425.11 349.244 Q 1423.85 347.524, 1423.85 344.124 Q 1423.85 340.364, 1425.41 338.424 Q 1426.99 336.464, 1430.01 336.464 Q 1430.89 336.464, 1431.63 336.664 Q 1432.39 336.864, 1433.11 337.284 L 1432.33 338.624 Q 1431.29 338.064, 1430.03 338.064 Q 1428.03 338.064, 1427.01 339.364 Q 1425.99 340.644, 1425.87 343.304 Q 1426.59 342.644, 1427.49 342.304 Q 1428.41 341.944, 1429.39 341.944 M 1428.93 349.304 Q 1429.69 349.304, 1430.31 348.904 Q 1430.95 348.504, 1431.31 347.804 Q 1431.67 347.104, 1431.67 346.244 Q 1431.67 344.984, 1430.97 344.264 Q 1430.27 343.544, 1429.03 343.544 Q 1428.17 343.544, 1427.31 343.904 Q 1426.47 344.244, 1425.87 344.844 Q 1425.95 347.184, 1426.69 348.244 Q 1427.43 349.304, 1428.93 349.304 " fill="#000000"/>
<path class="note" d="M 1553.1 431.768 L 1545.68 431.768 L 1545.68 430.168 L 1555.08 430.168 L 1555.08 431.588 L 1549.36 444.328 L 1547.44 444.328 L 1553.1 431.768 " fill="#000000"/>
<path class="note" d="M 1674.23 343.284 Q 1675.53 343.844, 1676.27 344.684 Q 1677.01 345.504, 1677.01 346.904 Q 1677.01 348.104, 1676.39 349.044 Q 1675.77 349.964, 1674.65 350.484 Q 1673.55 350.984, 1672.09 350.984 Q 1669.73 350.984, 1668.37 349.904 Q 1667.01 348.804, 1667.01 346.904 Q 1667.01 345.744, 1667.61 344.884 Q 1668.21 344.004, 1669.45 343.344 Q 1668.53 342.824, 1668.03 342.064 Q 1667.53 341.284, 1667.53 340.084 Q 1667.53 338.424, 1668.73 337.444 Q 1669.95 336.464, 1672.01 336.464 Q 1674.07 336.464, 1675.27 337.444 Q 1676.49 338.424, 1676.49 340.084 Q 1676.49 341.124, 1675.91 341.904 Q 1675.35 342.664, 1674.23 343.284 M 1672.01 337.964 Q 1670.83 337.964, 1670.17 338.524 Q 1669.53 339.084, 1669.53 340.084 Q 1669.53 340.824, 1669.97 341.324 Q 1670.41 341.804, 1671.03 342.084 Q 1671.67 342.364, 1672.89 342.784 Q 1673.75 342.184, 1674.11 341.544 Q 1674.49 340.904, 1674.49 340.084 Q 1674.49 339.084, 1673.83 338.524 Q 1673.19 337.964, 1672.01 337.964 M 1672.09 349.484 Q 1673.41 349.484, 1674.21 348.784 Q 1675.01 348.064, 1675.01 346.884 Q 1675.01 346.124, 1674.59 345.644 Q 1674.17 345.164, 1673.53 344.884 Q 1672.91 344.604, 1671.79 344.244 L 1670.89 343.944 Q 1669.89 344.544, 1669.45 345.264 Q 1669.01 345.964, 1669.01 346.884 Q 1669.01 348.064, 1669.85 348.784 Q 1670.69 349.484, 1672.09 349.484 " fill="#000000"/>
<path class="note" d="M 1793.48 406.682 Q 1796 406.682, 1797.26 408.402 Q 1798.54 410.102, 1798.54 413.502 Q 1798.54 417.262, 1796.96 419.222 Q 1795.4 421.162, 1792.38 421.162 Q 1791.5 421.162, 1790.74 420.962 Q 1790 420.762, 1789.28 420.342 L 1790.06 419.002 Q 1791.1 419.562, 1792.36 419.562 Q 1794.36 419.562, 1795.38 418.282 Q 1796.4 416.982, 1796.52 414.322 Q 1795.8 414.982, 1794.88 415.342 Q 1793.98 415.682, 1793 415.682 Q 1791.76 415.682, 1790.78 415.142 Q 1789.8 414.602, 1789.26 413.622 Q 1788.72 412.642, 1788.72 411.402 Q 1788.72 410.022, 1789.32 408.962 Q 1789.94 407.882, 1791.02 407.282 Q 1792.1 406.682, 1793.48 406.682 M 1790.72 411.382 Q 1790.72 412.642, 1791.42 413.362 Q 1792.12 414.082, 1793.36 414.082 Q 1794.22 414.082, 1795.06 413.742 Q 1795.92 413.382, 1796.52 412.782 Q 1796.44 410.442, 1795.7 409.382 Q 1794.96 408.322, 1793.46 408.322 Q 1792.7 408.322, 1792.06 408.722 Q 1791.44 409.122, 1791.08 409.822 Q 1790.72 410.522, 1790.72 411.382 " fill="#000000"/>
<path class="note" d="M 1942.24 349.184 L 1945.34 349.184 L 1945.34 338.604 L 1941.92 339.664 L 1941.46 338.484 L 1945.8 336.544 L 1947.22 336.784 L 1947.22 349.184 L 1950 349.184 L 1950 350.784 L 1942.24 350.784 L 1942.24 349.184 " fill="#000000"/>
<path class="note" d="M 1956.4 350.944 Q 1953.8 350.944, 1952.5 349.024 Q 1951.22 347.104, 1951.22 343.684 Q 1951.22 340.264, 1952.5 338.364 Q 1953.78 336.464, 1956.4 336.464 Q 1959.02 336.464, 1960.3 338.364 Q 1961.58 340.264, 1961.58 343.684 Q 1961.58 347.104, 1960.28 349.024 Q 1959 350.944, 1956.4 350.944 M 1956.4 349.344 Q 1957.94 349.344, 1958.76 347.924 Q 1959.58 346.484, 1959.58 343.684 Q 1959.58 340.904, 1958.76 339.484 Q 1957.94 338.064, 1956.4 338.064 Q 1954.88 338.064, 1954.04 339.484 Q 1953.22 340.904, 1953.22 343.684 Q 1953.22 346.484, 1954.04 347.924 Q 1954.88 349.344, 1956.4 349.344 " fill="#000000"/>
<path class="note" d="M 1914.38 165.032 L 1917.48 165.032 L 1917.48 154.452 L 1914.06 155.512 L 1913.6 154.332 L 1917.94 152.392 L 1919.36 152.632 L 1919.36 165.032 L 1922.14 165.032 L 1922.14 166.632 L 1914.38 166.632 L 1914.38 165.032 " fill="#000000"/>
<path class="note" d="M 1924 165.032 L 1927.1 165.032 L 1927.1 154.452 L 1923.68 155.512 L 1923.22 154.332 L 1927.56 152.392 L 1928.98 152.632 L 1928.98 165.032 L 1931.76 165.032 L 1931.76 166.632 L 1924 166.632 L 1924 165.032 " fill="#000000"/>
<path class="note" d="M 1780.6 91.7182 L 1783.7 91.7182 L 1783.7 81.1382 L 1780.28 82.1982 L 1779.82 81.0182 L 1784.16 79.0782 L 1785.58 79.3182 L 1785.58 91.7182 L 1788.36 91.7182 L 1788.36 93.3182 L 1780.6 93.3182 L 1780.6 91.7182 " fill="#000000"/>
<path class="note" d="M 1789.4 81.8382 Q 1789.92 80.4982, 1791.16 79.7582 Q 1792.4 78.9982, 1794.12 78.9982 Q 1796.26 78.9982, 1797.46 80.1582 Q 1798.66 81.3182, 1798.66 83.3782 Q 1798.66 85.4782, 1797.1 87.4382 Q 1795.56 89.3982, 1792.36 91.7182 L 1798.9 91.7182 L 1798.9 93.3182 L 1789.36 93.3182 L 1789.36 91.9782 Q 1792 90.0982, 1793.56 88.6982 Q 1795.14 87.2982, 1795.9 86.0382 Q 1796.66 84.7782, 1796.66 83.4782 Q 1796.66 82.1182, 1795.98 81.3582 Q 1795.3 80.5982, 1794.12 80.5982 Q 1792.98 80.5982, 1792.22 81.0582 Q 1791.46 81.5182, 1790.92 82.5382 L 1789.4 81.8382 " fill="#000000"/>
<path class="note" d="M 1659.07 138.53 L 1662.17 138.53 L 1662.17 127.95 L 1658.75 129.01 L 1658.29 127.83 L 1662.63 125.89 L 1664.05 126.13 L 1664.05 138.53 L 1666.83 138.53 L 1666.83 140.13 L 1659.07 140.13 L 1659.07 138.53 " fill="#000000"/>
<path class="note" d="M 1674.47 132.67 Q 1675.85 133.07, 1676.51 133.97 Q 1677.19 134.85, 1677.19 136.25 Q 1677.19 137.45, 1676.59 138.39 Q 1675.99 139.31, 1674.89 139.83 Q 1673.79 140.33, 1672.35 140.33 Q 1670.83 140.33, 1669.69 139.81 Q 1668.57 139.27, 1667.67 138.19 L 1668.81 137.03 Q 1669.69 137.99, 1670.43 138.37 Q 1671.17 138.73, 1672.35 138.73 Q 1673.63 138.73, 1674.41 138.05 Q 1675.19 137.35, 1675.19 136.23 Q 1675.19 134.79, 1674.37 134.15 Q 1673.57 133.49, 1671.83 133.49 L 1670.81 133.49 L 1670.81 132.05 L 1671.71 132.05 Q 1673.25 132.03, 1674.07 131.37 Q 1674.89 130.69, 1674.89 129.43 Q 1674.89 128.51, 1674.21 127.97 Q 1673.53 127.41, 1672.37 127.41 Q 1671.19 127.41, 1670.45 127.83 Q 1669.73 128.25, 1669.17 129.31 L 1667.79 128.57 Q 1668.29 127.39, 1669.49 126.61 Q 1670.69 125.81, 1672.37 125.81 Q 1674.45 125.81, 1675.67 126.79 Q 1676.89 127.77, 1676.89 129.43 Q 1676.89 130.57, 1676.27 131.39 Q 1675.65 132.21, 1674.47 132.67 " fill="#000000"/>
<path class="note" d="M 1536.87 68.2722 L 1539.97 68.2722 L 1539.97 57.6922 L 1536.55 58.7522 L 1536.09 57.5722 L 1540.43 55.6322 L 1541.85 55.8722 L 1541.85 68.2722 L 1544.63 68.2722 L 1544.63 69.8722 L 1536.87 69.8722 L 1536.87 68.2722 " fill="#000000"/>
<path class="note" d="M 1554.43 65.0122 L 1556.13 65.0122 L 1556.13 66.6122 L 1554.43 66.6122 L 1554.43 69.8722 L 1552.55 69.8722 L 1552.55 66.6122 L 1545.23 66.6122 L 1545.23 65.3522 L 1551.43 55.7122 L 1554.43 55.7122 L 1554.43 65.0122 M 1547.55 65.0122 L 1552.55 65.0122 L 1552.55 56.9922 L 1547.55 65.0122 " fill="#000000"/>
<path class="note" d="M 1415.75 138.49 L 1418.85 138.49 L 1418.85 127.91 L 1415.43 128.97 L 1414.97 127.79 L 1419.31 125.85 L 1420.73 126.09 L 1420.73 138.49 L 1423.51 138.49 L 1423.51 140.09 L 1415.75 140.09 L 1415.75 138.49 " fill="#000000"/>
<path class="note" d="M 1429.57 131.23 Q 1430.81 131.23, 1431.83 131.77 Q 1432.85 132.29, 1433.43 133.29 Q 1434.01 134.27, 1434.01 135.61 Q 1434.01 137.07, 1433.29 138.13 Q 1432.59 139.17, 1431.43 139.71 Q 1430.27 140.25, 1428.95 140.25 Q 1427.65 140.25, 1426.45 139.77 Q 1425.25 139.29, 1424.43 138.37 L 1425.63 137.13 Q 1426.29 137.85, 1427.19 138.25 Q 1428.09 138.63, 1429.01 138.63 Q 1430.27 138.63, 1431.13 137.85 Q 1432.01 137.07, 1432.01 135.65 Q 1432.01 134.15, 1431.13 133.45 Q 1430.27 132.73, 1428.89 132.73 Q 1427.65 132.73, 1426.27 133.27 L 1425.17 132.75 L 1425.85 125.93 L 1433.13 125.93 L 1432.93 127.53 L 1427.49 127.53 L 1427.07 131.73 Q 1428.33 131.23, 1429.57 131.23 " fill="#000000"/>
<path class="note" d="M 1293.79 91.7182 L 1296.89 91.7182 L 1296.89 81.1382 L 1293.47 82.1982 L 1293.01 81.0182 L 1297.35 79.0782 L 1298.77 79.3182 L 1298.77 91.7182 L 1301.55 91.7182 L 1301.55 93.3182 L 1293.79 93.3182 L 1293.79 91.7182 " fill="#000000"/>
<path class="note" d="M 1308.45 84.4782 Q 1309.69 84.4782, 1310.67 85.0182 Q 1311.65 85.5582, 1312.19 86.5382 Q 1312.73 87.5182, 1312.73 88.7582 Q 1312.73 90.1382, 1312.11 91.2182 Q 1311.51 92.2782, 1310.43 92.8782 Q 1309.35 93.4782, 1307.97 93.4782 Q 1305.45 93.4782, 1304.17 91.7782 Q 1302.91 90.0582, 1302.91 86.6582 Q 1302.91 82.8982, 1304.47 80.9582 Q 1306.05 78.9982, 1309.07 78.9982 Q 1309.95 78.9982, 1310.69 79.1982 Q 1311.45 79.3982, 1312.17 79.8182 L 1311.39 81.1582 Q 1310.35 80.5982, 1309.09 80.5982 Q 1307.09 80.5982, 1306.07 81.8982 Q 1305.05 83.1782, 1304.93 85.8382 Q 1305.65 85.1782, 1306.55 84.8382 Q 1307.47 84.4782, 1308.45 84.4782 M 1307.99 91.8382 Q 1308.75 91.8382, 1309.37 91.4382 Q 1310.01 91.0382, 1310.37 90.3382 Q 1310.73 89.6382, 1310.73 88.7782 Q 1310.73 87.5182, 1310.03 86.7982 Q 1309.33 86.0782, 1308.09 86.0782 Q 1307.23 86.0782, 1306.37 86.4382 Q 1305.53 86.7782, 1304.93 87.3782 Q 1305.01 89.7182, 1305.75 90.7782 Q 1306.49 91.8382, 1307.99 91.8382 " fill="#000000"/>
<path class="note" d="M 1152.61 197.005 L 1155.71 197.005 L 1155.71 186.425 L 1152.29 187.485 L 1151.83 186.305 L 1156.17 184.365 L 1157.59 184.605 L 1157.59 197.005 L 1160.37 197.005 L 1160.37 198.605 L 1152.61 198.605 L 1152.61 197.005 " fill="#000000"/>
<path class="note" d="M 1168.15 186.045 L 1160.73 186.045 L 1160.73 184.445 L 1170.13 184.445 L 1170.13 185.865 L 1164.41 198.605 L 1162.49 198.605 L 1168.15 186.045 " fill="#000000"/>
<path class="note" d="M 1027.11 155.664 L 1030.21 155.664 L 1030.21 145.084 L 1026.79 146.144 L 1026.33 144.964 L 1030.67 143.024 L 1032.09 143.264 L 1032.09 155.664 L 1034.87 155.664 L 1034.87 157.264 L 1027.11 157.264 L 1027.11 155.664 " fill="#000000"/>
<path class="note" d="M 1043.33 149.764 Q 1044.63 150.324, 1045.37 151.164 Q 1046.11 151.984, 1046.11 153.384 Q 1046.11 154.584, 1045.49 155.524 Q 1044.87 156.444, 1043.75 156.964 Q 1042.65 157.464, 1041.19 157.464 Q 1038.83 157.464, 1037.47 156.384 Q 1036.11 155.284, 1036.11 153.384 Q 1036.11 152.224, 1036.71 151.364 Q 1037.31 150.484, 1038.55 149.824 Q 1037.63 149.304, 1037.13 148.544 Q 1036.63 147.764, 1036.63 146.564 Q 1036.63 144.904, 1037.83 143.924 Q 1039.05 142.944, 1041.11 142.944 Q 1043.17 142.944, 1044.37 143.924 Q 1045.59 144.904, 1045.59 146.564 Q 1045.59 147.604, 1045.01 148.384 Q 1044.45 149.144, 1043.33 149.764 M 1041.11 144.444 Q 1039.93 144.444, 1039.27 145.004 Q 1038.63 145.564, 1038.63 146.564 Q 1038.63 147.304, 1039.07 147.804 Q 1039.51 148.284, 1040.13 148.564 Q 1040.77 148.844, 1041.99 149.264 Q 1042.85 148.664, 1043.21 148.024 Q 1043.59 147.384, 1043.59 146.564 Q 1043.59 145.564, 1042.93 145.004 Q 1042.29 144.444, 1041.11 144.444 M 1041.19 155.964 Q 1042.51 155.964, 1043.31 155.264 Q 1044.11 154.544, 1044.11 153.364 Q 1044.11 152.604, 1043.69 152.124 Q 1043.27 151.644, 1042.63 151.364 Q 1042.01 151.084, 1040.89 150.724 L 1039.99 150.424 Q 1038.99 151.024, 1038.55 151.744 Q 1038.11 152.444, 1038.11 153.364 Q 1038.11 154.544, 1038.95 155.264 Q 1039.79 155.964, 1041.19 155.964 " fill="#000000"/>
<path class="note" d="M 2687.88 278.926 L 2690.98 278.926 L 2690.98 268.346 L 2687.56 269.406 L 2687.1 268.226 L 2691.44 266.286 L 2692.86 266.526 L 2692.86 278.926 L 2695.64 278.926 L 2695.64 280.526 L 2687.88 280.526 L 2687.88 278.926 " fill="#000000"/>
<path class="note" d="M 2816.45 266.535 Q 2816.97 265.195, 2818.21 264.455 Q 2819.45 263.695, 2821.17 263.695 Q 2823.31 263.695, 2824.51 264.855 Q 2825.71 266.015, 2825.71 268.075 Q 2825.71 270.175, 2824.15 272.135 Q 2822.61 274.095, 2819.41 276.415 L 2825.95 276.415 L 2825.95 278.015 L 2816.41 278.015 L 2816.41 276.675 Q 2819.05 274.795, 2820.61 273.395 Q 2822.19 271.995, 2822.95 270.735 Q 2823.71 269.475, 2823.71 268.175 Q 2823.71 266.815, 2823.03 266.055 Q 2822.35 265.295, 2821.17 265.295 Q 2820.03 265.295, 2819.27 265.755 Q 2818.51 266.215, 2817.97 267.235 L 2816.45 266.535 " fill="#000000"/>
<path class="note" d="M 2901.93 407.836 Q 2903.31 408.236, 2903.97 409.136 Q 2904.65 410.016, 2904.65 411.416 Q 2904.65 412.616, 2904.05 413.556 Q 2903.45 414.476, 2902.35 414.996 Q 2901.25 415.496, 2899.81 415.496 Q 2898.29 415.496, 2897.15 414.976 Q 2896.03 414.436, 2895.13 413.356 L 2896.27 412.196 Q 2897.15 413.156, 2897.89 413.536 Q 2898.63 413.896, 2899.81 413.896 Q 2901.09 413.896, 2901.87 413.216 Q 2902.65 412.516, 2902.65 411.396 Q 2902.65 409.956, 2901.83 409.316 Q 2901.03 408.656, 2899.29 408.656 L 2898.27 408.656 L 2898.27 407.216 L 2899.17 407.216 Q 2900.71 407.196, 2901.53 406.536 Q 2902.35 405.856, 2902.35 404.596 Q 2902.35 403.676, 2901.67 403.136 Q 2900.99 402.576, 2899.83 402.576 Q 2898.65 402.576, 2897.91 402.996 Q 2897.19 403.416, 2896.63 404.476 L 2895.25 403.736 Q 2895.75 402.556, 2896.95 401.776 Q 2898.15 400.976, 2899.83 400.976 Q 2901.91 400.976, 2903.13 401.956 Q 2904.35 402.936, 2904.35 404.596 Q 2904.35 405.736, 2903.73 406.556 Q 2903.11 407.376, 2901.93 407.836 " fill="#000000"/>
<path class="note" d="M 3049.22 345.716 L 3050.92 345.716 L 3050.92 347.316 L 3049.22 347.316 L 3049.22 350.576 L 3047.34 350.576 L 3047.34 347.316 L 3040.02 347.316 L 3040.02 346.056 L 3046.22 336.416 L 3049.22 336.416 L 3049.22 345.716 M 3042.34 345.716 L 3047.34 345.716 L 3047.34 337.696 L 3042.34 345.716 " fill="#000000"/>
<path class="note" d="M 3169.89 412.062 Q 3171.13 412.062, 3172.15 412.602 Q 3173.17 413.122, 3173.75 414.122 Q 3174.33 415.102, 3174.33 416.442 Q 3174.33 417.902, 3173.61 418.962 Q 3172.91 420.002, 3171.75 420.542 Q 3170.59 421.082, 3169.27 421.082 Q 3167.97 421.082, 3166.77 420.602 Q 3165.57 420.122, 3164.75 419.202 L 3165.95 417.962 Q 3166.61 418.682, 3167.51 419.082 Q 3168.41 419.462, 3169.33 419.462 Q 3170.59 419.462, 3171.45 418.682 Q 3172.33 417.902, 3172.33 416.482 Q 3172.33 414.982, 3171.45 414.282 Q 3170.59 413.562, 3169.21 413.562 Q 3167.97 413.562, 3166.59 414.102 L 3165.49 413.582 L 3166.17 406.762 L 3173.45 406.762 L 3173.25 408.362 L 3167.81 408.362 L 3167.39 412.562 Q 3168.65 412.062, 3169.89 412.062 " fill="#000000"/>
<path class="note" d="M 3291.79 341.944 Q 3293.03 341.944, 3294.01 342.484 Q 3294.99 343.024, 3295.53 344.004 Q 3296.07 344.984, 3296.07 346.224 Q 3296.07 347.604, 3295.45 348.684 Q 3294.85 349.744, 3293.77 350.344 Q 3292.69 350.944, 3291.31 350.944 Q 3288.79 350.944, 3287.51 349.244 Q 3286.25 347.524, 3286.25 344.124 Q 3286.25 340.364, 3287.81 338.424 Q 3289.39 336.464, 3292.41 336.464 Q 3293.29 336.464, 3294.03 336.664 Q 3294.79 336.864, 3295.51 337.284 L 3294.73 338.624 Q 3293.69 338.064, 3292.43 338.064 Q 3290.43 338.064, 3289.41 339.364 Q 3288.39 340.644, 3288.27 343.304 Q 3288.99 342.644, 3289.89 342.304 Q 3290.81 341.944, 3291.79 341.944 M 3291.33 349.304 Q 3292.09 349.304, 3292.71 348.904 Q 3293.35 348.504, 3293.71 347.804 Q 3294.07 347.104, 3294.07 346.244 Q 3294.07 344.984, 3293.37 344.264 Q 3292.67 343.544, 3291.43 343.544 Q 3290.57 343.544, 3289.71 343.904 Q 3288.87 344.244, 3288.27 344.844 Q 3288.35 347.184, 3289.09 348.244 Q 3289.83 349.304, 3291.33 349.304 " fill="#000000"/>
<path class="note" d="M 3415.5 431.768 L 3408.08 431.768 L 3408.08 430.168 L 3417.48 430.168 L 3417.48 431.588 L 3411.76 444.328 L 3409.84 444.328 L 3415.5 431.768 " fill="#000000"/>
<path class="note" d="M 3536.62 343.284 Q 3537.92 343.844, 3538.66 344.684 Q 3539.4 345.504, 3539.4 346.904 Q 3539.4 348.104, 3538.78 349.044 Q 3538.16 349.964, 3537.04 350.484 Q 3535.94 350.984, 3534.48 350.984 Q 3532.12 350.984, 3530.76 349.904 Q 3529.4 348.804, 3529.4 346.904 Q 3529.4 345.744, 3530 344.884 Q 3530.6 344.004, 3531.84 343.344 Q 3530.92 342.824, 3530.42 342.064 Q 3529.92 341.284, 3529.92 340.084 Q 3529.92 338.424, 3531.12 337.444 Q 3532.34 336.464, 3534.4 336.464 Q 3536.46 336.464, 3537.66 337.444 Q 3538.88 338.424, 3538.88 340.084 Q 3538.88 341.124, 3538.3 341.904 Q 3537.74 342.664, 3536.62 343.284 M 3534.4 337.964 Q 3533.22 337.964, 3532.56 338.524 Q 3531.92 339.084, 3531.92 340.084 Q 3531.92 340.824, 3532.36 341.324 Q 3532.8 341.804, 3533.42 342.084 Q 3534.06 342.364, 3535.28 342.784 Q 3536.14 342.184, 3536.5 341.544 Q 3536.88 340.904, 3536.88 340.084 Q 3536.88 339.084, 3536.22 338.524 Q 3535.58 337.964, 3534.4 337.964 M 3534.48 349.484 Q 3535.8 349.484, 3536.6 348.784 Q 3537.4 348.064, 3537.4 346.884 Q 3537.4 346.124, 3536.98 345.644 Q 3536.56 345.164, 3535.92 344.884 Q 3535.3 344.604, 3534.18 344.244 L 3533.28 343.944 Q 3532.28 344.544, 3531.84 345.264 Q 3531.4 345.964, 3531.4 346.884 Q 3531.4 348.064, 3532.24 348.784 Q 3533.08 349.484, 3534.48 349.484 " fill="#000000"/>
<path class="note" d="M 3655.87 406.682 Q 3658.39 406.682, 3659.65 408.402 Q 3660.93 410.102, 3660.93 413.502 Q 3660.93 417.262, 3659.35 419.222 Q 3657.79 421.162, 3654.77 421.162 Q 3653.89 421.162, 3653.13 420.962 Q 3652.39 420.762, 3651.67 420.342 L 3652.45 419.002 Q 3653.49 419.562, 3654.75 419.562 Q 3656.75 419.562, 3657.77 418.282 Q 3658.79 416.982, 3658.91 414.322 Q 3658.19 414.982, 3657.27 415.342 Q 3656.37 415.682, 3655.39 415.682 Q 3654.15 415.682, 3653.17 415.142 Q 3652.19 414.602, 3651.65 413.622 Q 3651.11 412.642, 3651.11 411.402 Q 3651.11 410.022, 3651.71 408.962 Q 3652.33 407.882, 3653.41 407.282 Q 3654.49 406.682, 3655.87 406.682 M 3653.11 411.382 Q 3653.11 412.642, 3653.81 413.362 Q 3654.51 414.082, 3655.75 414.082 Q 3656.61 414.082, 3657.45 413.742 Q 3658.31 413.382, 3658.91 412.782 Q 3658.83 410.442, 3658.09 409.382 Q 3657.35 408.322, 3655.85 408.322 Q 3655.09 408.322, 3654.45 408.722 Q 3653.83 409.122, 3653.47 409.822 Q 3653.11 410.522, 3653.11 411.382 " fill="#000000"/>
<path class="note" d="M 3804.63 349.184 L 3807.73 349.184 L 3807.73 338.604 L 3804.31 339.664 L 3803.85 338.484 L 3808.19 336.544 L 3809.61 336.784 L 3809.61 349.184 L 3812.39 349.184 L 3812.39 350.784 L 3804.63 350.784 L 3804.63 349.184 " fill="#000000"/>
<path class="note" d="M 3818.79 350.944 Q 3816.19 350.944, 3814.89 349.024 Q 3813.61 347.104, 3813.61 343.684 Q 3813.61 340.264, 3814.89 338.364 Q 3816.17 336.464, 3818.79 336.464 Q 3821.41 336.464, 3822.69 338.364 Q 3823.97 340.264, 3823.97 343.684 Q 3823.97 347.104, 3822.67 349.024 Q 3821.39 350.944, 3818.79 350.944 M 3818.79 349.344 Q 3820.33 349.344, 3821.15 347.924 Q 3821.97 346.484, 3821.97 343.684 Q 3821.97 340.904, 3821.15 339.484 Q 3820.33 338.064, 3818.79 338.064 Q 3817.27 338.064, 3816.43 339.484 Q 3815.61 340.904, 3815.61 343.684 Q 3815.61 346.484, 3816.43 347.924 Q 3817.27 349.344, 3818.79 349.344 " fill="#000000"/>
<path class="note" d="M 3776.77 165.032 L 3779.87 165.032 L 3779.87 154.452 L 3776.45 155.512 L 3775.99 154.332 L 3780.33 152.392 L 3781.75 152.632 L 3781.75 165.032 L 3784.53 165.032 L 3784.53 166.632 L 3776.77 166.632 L 3776.77 165.032 " fill="#000000"/>
<path class="note" d="M 3786.39 165.032 L 3789.49 165.032 L 3789.49 154.452 L 3786.07 155.512 L 3785.61 154.332 L 3789.95 152.392 L 3791.37 152.632 L 3791.37 165.032 L 3794.15 165.032 L 3794.15 166.632 L 3786.39 166.632 L 3786.39 165.032 " fill="#000000"/>
<path class="note" d="M 3642.99 91.7182 L 3646.09 91.7182 L 3646.09 81.1382 L 3642.67 82.1982 L 3642.21 81.0182 L 3646.55 79.0782 L 3647.97 79.3182 L 3647.97 91.7182 L 3650.75 91.7182 L 3650.75 93.3182 L 3642.99 93.3182 L 3642.99 91.7182 " fill="#000000"/>
<path class="note" d="M 3651.79 81.8382 Q 3652.31 80.4982, 3653.55 79.7582 Q 3654.79 78.9982, 3656.51 78.9982 Q 3658.65 78.9982, 3659.85 80.1582 Q 3661.05 81.3182, 3661.05 83.3782 Q 3661.05 85.4782, 3659.49 87.4382 Q 3657.95 89.3982, 3654.75 91.7182 L 3661.29 91.7182 L 3661.29 93.3182 L 3651.75 93.3182 L 3651.75 91.9782 Q 3654.39 90.0982, 3655.95 88.6982 Q 3657.53 87.2982, 3658.29 86.0382 Q 3659.05 84.7782, 3659.05 83.4782 Q 3659.05 82.1182, 3658.37 81.3582 Q 3657.69 80.5982, 3656.51 80.5982 Q 3655.37 80.5982, 3654.61 81.0582 Q 3653.85 81.5182, 3653.31 82.5382 L 3651.79 81.8382 " fill="#000000"/>
<path class="note" d="M 3521.46 138.53 L 3524.56 138.53 L 3524.56 127.95 L 3521.14 129.01 L 3520.68 127.83 L 3525.02 125.89 L 3526.44 126.13 L 3526.44 138.53 L 3529.22 138.53 L 3529.22 140.13 L 3521.46 140.13 L 3521.46 138.53 " fill="#000000"/>
<path class="note" d="M 3536.86 132.67 Q 3538.24 133.07, 3538.9 133.97 Q 3539.58 134.85, 3539.58 136.25 Q 3539.58 137.45, 3538.98 138.39 Q 3538.38 139.31, 3537.28 139.83 Q 3536.18 140.33, 3534.74 140.33 Q 3533.22 140.33, 3532.08 139.81 Q 3530.96 139.27, 3530.06 138.19 L 3531.2 137.03 Q 3532.08 137.99, 3532.82 138.37 Q 3533.56 138.73, 3534.74 138.73 Q 3536.02 138.73, 3536.8 138.05 Q 3537.58 137.35, 3537.58 136.23 Q 3537.58 134.79, 3536.76 134.15 Q 3535.96 133.49, 3534.22 133.49 L 3533.2 133.49 L 3533.2 132.05 L 3534.1 132.05 Q 3535.64 132.03, 3536.46 131.37 Q 3537.28 130.69, 3537.28 129.43 Q 3537.28 128.51, 3536.6 127.97 Q 3535.92 127.41, 3534.76 127.41 Q 3533.58 127.41, 3532.84 127.83 Q 3532.12 128.25, 3531.56 129.31 L 3530.18 128.57 Q 3530.68 127.39, 3531.88 126.61 Q 3533.08 125.81, 3534.76 125.81 Q 3536.84 125.81, 3538.06 126.79 Q 3539.28 127.77, 3539.28 129.43 Q 3539.28 130.57, 3538.66 131.39 Q 3538.04 132.21, 3536.86 132.67 " fill="#000000"/>
<path class="note" d="M 3399.27 68.2722 L 3402.37 68.2722 L 3402.37 57.6922 L 3398.95 58.7522 L 3398.49 57.5722 L 3402.83 55.6322 L 3404.25 55.8722 L 3404.25 68.2722 L 3407.03 68.2722 L 3407.03 69.8722 L 3399.27 69.8722 L 3399.27 68.2722 " fill="#000000"/>
<path class="note" d="M 3416.83 65.0122 L 3418.53 65.0122 L 3418.53 66.6122 L 3416.83 66.6122 L 3416.83 69.8722 L 3414.95 69.8722 L 3414.95 66.6122 L 3407.63 66.6122 L 3407.63 65.3522 L 3413.83 55.7122 L 3416.83 55.7122 L 3416.83 65.0122 M 3409.95 65.0122 L 3414.95 65.0122 L 3414.95 56.9922 L 3409.95 65.0122 " fill="#000000"/>
<path class="note" d="M 3278.15 138.49 L 3281.25 138.49 L 3281.25 127.91 L 3277.83 128.97 L 3277.37 127.79 L 3281.71 125.85 L 3283.13 126.09 L 3283.13 138.49 L 3285.91 138.49 L 3285.91 140.09 L 3278.15 140.09 L 3278.15 138.49 " fill="#000000"/>
<path class="note" d="M 3291.97 131.23 Q 3293.21 131.23, 3294.23 131.77 Q 3295.25 132.29, 3295.83 133.29 Q 3296.41 134.27, 3296.41 135.61 Q 3296.41 137.07, 3295.69 138.13 Q 3294.99 139.17, 3293.83 139.71 Q 3292.67 140.25, 3291.35 140.25 Q 3290.05 140.25, 3288.85 139.77 Q 3287.65 139.29, 3286.83 138.37 L 3288.03 137.13 Q 3288.69 137.85, 3289.59 138.25 Q 3290.49 138.63, 3291.41 138.63 Q 3292.67 138.63, 3293.53 137.85 Q 3294.41 137.07, 3294.41 135.65 Q 3294.41 134.15, 3293.53 133.45 Q 3292.67 132.73, 3291.29 132.73 Q 3290.05 132.73, 3288.67 133.27 L 3287.57 132.75 L 3288.25 125.93 L 3295.53 125.93 L 3295.33 127.53 L 3289.89 127.53 L 3289.47 131.73 Q 3290.73 131.23, 3291.97 131.23 " fill="#000000"/>
<path class="note" d="M 3156.19 91.7182 L 3159.29 91.7182 L 3159.29 81.1382 L 3155.87 82.1982 L 3155.41 81.0182 L 3159.75 79.0782 L 3161.17 79.3182 L 3161.17 91.7182 L 3163.95 91.7182 L 3163.95 93.3182 L 3156.19 93.3182 L 3156.19 91.7182 " fill="#000000"/>
<path class="note" d="M 3170.85 84.4782 Q 3172.09 84.4782, 3173.07 85.0182 Q 3174.05 85.5582, 3174.59 86.5382 Q 3175.13 87.5182, 3175.13 88.7582 Q 3175.13 90.1382, 3174.51 91.2182 Q 3173.91 92.2782, 3172.83 92.8782 Q 3171.75 93.4782, 3170.37 93.4782 Q 3167.85 93.4782, 3166.57 91.7782 Q 3165.31 90.0582, 3165.31 86.6582 Q 3165.31 82.8982, 3166.87 80.9582 Q 3168.45 78.9982, 3171.47 78.9982 Q 3172.35 78.9982, 3173.09 79.1982 Q 3173.85 79.3982, 3174.57 79.8182 L 3173.79 81.1582 Q 3172.75 80.5982, 3171.49 80.5982 Q 3169.49 80.5982, 3168.47 81.8982 Q 3167.45 83.1782, 3167.33 85.8382 Q 3168.05 85.1782, 3168.95 84.8382 Q 3169.87 84.4782, 3170.85 84.4782 M 3170.39 91.8382 Q 3171.15 91.8382, 3171.77 91.4382 Q 3172.41 91.0382, 3172.77 90.3382 Q 3173.13 89.6382, 3173.13 88.7782 Q 3173.13 87.5182, 3172.43 86.7982 Q 3171.73 86.0782, 3170.49 86.0782 Q 3169.63 86.0782, 3168.77 86.4382 Q 3167.93 86.7782, 3167.33 87.3782 Q 3167.41 89.7182, 3168.15 90.7782 Q 3168.89 91.8382, 3170.39 91.8382 " fill="#000000"/>
<path class="note" d="M 3032.83 162.024 L 3035.93 162.024 L 3035.93 151.444 L 3032.51 152.504 L 3032.05 151.324 L 3036.39 149.384 L 3037.81 149.624 L 3037.81 162.024 L 3040.59 162.024 L 3040.59 163.624 L 3032.83 163.624 L 3032.83 162.024 " fill="#000000"/>
<path class="note" d="M 3048.37 151.064 L 3040.95 151.064 L 3040.95 149.464 L 3050.35 149.464 L 3050.35 150.884 L 3044.63 163.624 L 3042.71 163.624 L 3048.37 151.064 " fill="#000000"/>
<path class="note" d="M 2886.51 97.4242 L 2889.61 97.4242 L 2889.61 86.8442 L 2886.19 87.9042 L 2885.73 86.7242 L 2890.07 84.7842 L 2891.49 85.0242 L 2891.49 97.4242 L 2894.27 97.4242 L 2894.27 99.0242 L 2886.51 99.0242 L 2886.51 97.4242 " fill="#000000"/>
<path class="note" d="M 2902.73 91.5242 Q 2904.03 92.0842, 2904.77 92.9242 Q 2905.51 93.7442, 2905.51 95.1442 Q 2905.51 96.3442, 2904.89 97.2842 Q 2904.27 98.2042, 2903.15 98.7242 Q 2902.05 99.2242, 2900.59 99.2242 Q 2898.23 99.2242, 2896.87 98.1442 Q 2895.51 97.0442, 2895.51 95.1442 Q 2895.51 93.9842, 2896.11 93.1242 Q 2896.71 92.2442, 2897.95 91.5842 Q 2897.03 91.0642, 2896.53 90.3042 Q 2896.03 89.5242, 2896.03 88.3242 Q 2896.03 86.6642, 2897.23 85.6842 Q 2898.45 84.7042, 2900.51 84.7042 Q 2902.57 84.7042, 2903.77 85.6842 Q 2904.99 86.6642, 2904.99 88.3242 Q 2904.99 89.3642, 2904.41 90.1442 Q 2903.85 90.9042, 2902.73 91.5242 M 2900.51 86.2042 Q 2899.33 86.2042, 2898.67 86.7642 Q 2898.03 87.3242, 2898.03 88.3242 Q 2898.03 89.0642, 2898.47 89.5642 Q 2898.91 90.0442, 2899.53 90.3242 Q 2900.17 90.6042, 2901.39 91.0242 Q 2902.25 90.4242, 2902.61 89.7842 Q 2902.99 89.1442, 2902.99 88.3242 Q 2902.99 87.3242, 2902.33 86.7642 Q 2901.69 86.2042, 2900.51 86.2042 M 2900.59 97.7242 Q 2901.91 97.7242, 2902.71 97.0242 Q 2903.51 96.3042, 2903.51 95.1242 Q 2903.51 94.3642, 2903.09 93.8842 Q 2902.67 93.4042, 2902.03 93.1242 Q 2901.41 92.8442, 2900.29 92.4842 L 2899.39 92.1842 Q 2898.39 92.7842, 2897.95 93.5042 Q 2897.51 94.2042, 2897.51 95.1242 Q 2897.51 96.3042, 2898.35 97.0242 Q 2899.19 97.7242, 2900.59 97.7242 " fill="#000000"/>
<path d="M 821.976 252.513 L 828.024 252.513 L 828.024 246.145 L 830.712 246.145 L 830.712 252.513 L 836.92 252.513 L 836.92 254.817 L 830.712 254.817 L 830.712 261.217 L 828.024 261.217 L 828.024 254.817 L 821.976 254.817 L 821.976 252.513 " fill="#000000"/>
<path d="M 2108.92,254.817 L 2483.41,254.817" style="fill:none;fill-rule:evenodd;stroke:#000000;stroke-width:2.0px;stroke-linecap:butt;stroke-linejoin:miter;stroke-opacity:1"/>
<path d="M 2483.41,254.817 L 2467.2,245.455" style="fill:none;fill-rule:evenodd;stroke:#000000;stroke-width:2.0px;stroke-linecap:butt;stroke-linejoin:miter;stroke-opacity:1"/>
<path d="M 2483.41,254.817 L 2467.2,264.179" style="fill:none;fill-rule:evenodd;stroke:#000000;stroke-width:2.0px;stroke-linecap:butt;stroke-linejoin:miter;stroke-opacity:1"/>
</svg>