<svg xmlns="http://www.w3.org/2000/svg" xmlns:rdkit="http://www.rdkit.org/xml" xmlns:xlink="http://www.w3.org/1999/xlink" version="1.1" baseProfile="full" xml:space="preserve" width="4000px" height="500px" viewBox="0 0 4000 500">
<!-- END OF HEADER -->
<rect style="opacity:1.0;fill:#FFFFFF;stroke:none" width="4000" height="500" x="0" y="0"> </rect>
<path d="M 396.694,174.719 L 504.132,236.748" style="fill:none;fill-rule:evenodd;stroke:#FFFFAA;stroke-width:26.5px;stroke-linecap:butt;stroke-linejoin:miter;stroke-opacity:1"/>
<path d="M 504.132,236.748 L 611.569,174.719" style="fill:none;fill-rule:evenodd;stroke:#FFFFAA;stroke-width:26.5px;stroke-linecap:butt;stroke-linejoin:miter;stroke-opacity:1"/>
<path d="M 504.132,236.748 L 504.132,360.807" style="fill:none;fill-rule:evenodd;stroke:#FFFFAA;stroke-width:26.5px;stroke-linecap:butt;stroke-linejoin:miter;stroke-opacity:1"/>
<path d="M 920.144,178.284 L 1008.55,265.32" style="fill:none;fill-rule:evenodd;stroke:#FFCC99;stroke-width:26.5px;stroke-linecap:butt;stroke-linejoin:miter;stroke-opacity:1"/>
<path d="M 1008.55,265.32 L 1128.13,232.277" style="fill:none;fill-rule:evenodd;stroke:#FFCC99;stroke-width:26.5px;stroke-linecap:butt;stroke-linejoin:miter;stroke-opacity:1"/>
<path d="M 1128.13,232.277 L 1216.53,319.313" style="fill:none;fill-rule:evenodd;stroke:#FFCC99;stroke-width:26.5px;stroke-linecap:butt;stroke-linejoin:miter;stroke-opacity:1"/>
<path d="M 1216.53,319.313 L 1336.11,286.271" style="fill:none;fill-rule:evenodd;stroke:#FFCC99;stroke-width:26.5px;stroke-linecap:butt;stroke-linejoin:miter;stroke-opacity:1"/>
<path d="M 1336.11,286.271 L 1367.28,166.192" style="fill:none;fill-rule:evenodd;stroke:#FFCC99;stroke-width:26.5px;stroke-linecap:butt;stroke-linejoin:miter;stroke-opacity:1"/>
<path d="M 1336.11,286.271 L 1424.51,373.306" style="fill:none;fill-rule:evenodd;stroke:#FFCC99;stroke-width:26.5px;stroke-linecap:butt;stroke-linejoin:miter;stroke-opacity:1"/>
<path d="M 1367.28,166.192 L 1486.86,133.15" style="fill:none;fill-rule:evenodd;stroke:#FFCC99;stroke-width:26.5px;stroke-linecap:butt;stroke-linejoin:miter;stroke-opacity:1"/>
<path d="M 1486.86,133.15 L 1575.26,220.185" style="fill:none;fill-rule:evenodd;stroke:#FFCC99;stroke-width:26.5px;stroke-linecap:butt;stroke-linejoin:miter;stroke-opacity:1"/>
<path d="M 1575.26,220.185 L 1694.84,187.143" style="fill:none;fill-rule:evenodd;stroke:#FFCC99;stroke-width:26.5px;stroke-linecap:butt;stroke-linejoin:miter;stroke-opacity:1"/>
<path d="M 1575.26,220.185 L 1544.09,340.264" style="fill:none;fill-rule:evenodd;stroke:#FFCC99;stroke-width:26.5px;stroke-linecap:butt;stroke-linejoin:miter;stroke-opacity:1"/>
<path d="M 1544.09,340.264 L 1424.51,373.306" style="fill:none;fill-rule:evenodd;stroke:#FFCC99;stroke-width:26.5px;stroke-linecap:butt;stroke-linejoin:miter;stroke-opacity:1"/>
<path d="M 2808.77,192.429 L 2901.49,274.854" style="fill:none;fill-rule:evenodd;stroke:#FFCC99;stroke-width:26.5px;stroke-linecap:butt;stroke-linejoin:miter;stroke-opacity:1"/>
<path d="M 2901.49,274.854 L 3019.23,235.77" style="fill:none;fill-rule:evenodd;stroke:#FFCC99;stroke-width:26.5px;stroke-linecap:butt;stroke-linejoin:miter;stroke-opacity:1"/>
<path d="M 3019.23,235.77 L 3111.95,318.194" style="fill:none;fill-rule:evenodd;stroke:#FFCC99;stroke-width:26.5px;stroke-linecap:butt;stroke-linejoin:miter;stroke-opacity:1"/>
<path d="M 3111.95,318.194 L 3229.69,279.11" style="fill:none;fill-rule:evenodd;stroke:#FFCC99;stroke-width:26.5px;stroke-linecap:butt;stroke-linejoin:miter;stroke-opacity:1"/>
<path d="M 3229.69,279.11 L 3254.71,157.602" style="fill:none;fill-rule:evenodd;stroke:#FFCC99;stroke-width:26.5px;stroke-linecap:butt;stroke-linejoin:miter;stroke-opacity:1"/>
<path d="M 3229.69,279.11 L 3322.41,361.535" style="fill:none;fill-rule:evenodd;stroke:#FFCC99;stroke-width:26.5px;stroke-linecap:butt;stroke-linejoin:miter;stroke-opacity:1"/>
<path d="M 3254.71,157.602 L 3372.45,118.517" style="fill:none;fill-rule:evenodd;stroke:#FFCC99;stroke-width:26.5px;stroke-linecap:butt;stroke-linejoin:miter;stroke-opacity:1"/>
<path d="M 3372.45,118.517 L 3465.17,200.942" style="fill:none;fill-rule:evenodd;stroke:#FFCC99;stroke-width:26.5px;stroke-linecap:butt;stroke-linejoin:miter;stroke-opacity:1"/>
<path d="M 3465.17,200.942 L 3582.91,161.858" style="fill:none;fill-rule:evenodd;stroke:#FFCC99;stroke-width:26.5px;stroke-linecap:butt;stroke-linejoin:miter;stroke-opacity:1"/>
<path d="M 3465.17,200.942 L 3440.15,322.451" style="fill:none;fill-rule:evenodd;stroke:#FFCC99;stroke-width:26.5px;stroke-linecap:butt;stroke-linejoin:miter;stroke-opacity:1"/>
<path d="M 3675.63,244.283 L 3793.37,205.199" style="fill:none;fill-rule:evenodd;stroke:#FFFFAA;stroke-width:26.5px;stroke-linecap:butt;stroke-linejoin:miter;stroke-opacity:1"/>
<path d="M 3675.63,244.283 L 3650.61,365.791" style="fill:none;fill-rule:evenodd;stroke:#FFFFAA;stroke-width:26.5px;stroke-linecap:butt;stroke-linejoin:miter;stroke-opacity:1"/>
<path d="M 3440.15,322.451 L 3322.41,361.535" style="fill:none;fill-rule:evenodd;stroke:#FFCC99;stroke-width:26.5px;stroke-linecap:butt;stroke-linejoin:miter;stroke-opacity:1"/>
<ellipse cx="504.132" cy="236.748" rx="24.8117" ry="24.8117" style="fill:#FFFFAA;fill-rule:evenodd;stroke:#FFFFAA;stroke-width:1px;stroke-linecap:butt;stroke-linejoin:miter;stroke-opacity:1"/>
<ellipse cx="611.569" cy="174.719" rx="24.8117" ry="24.8117" style="fill:#FFFFAA;fill-rule:evenodd;stroke:#FFFFAA;stroke-width:1px;stroke-linecap:butt;stroke-linejoin:miter;stroke-opacity:1"/>
<ellipse cx="504.132" cy="361.027" rx="24.8117" ry="24.8117" style="fill:#FFFFAA;fill-rule:evenodd;stroke:#FFFFAA;stroke-width:1px;stroke-linecap:butt;stroke-linejoin:miter;stroke-opacity:1"/>
<ellipse cx="920.144" cy="178.284" rx="24.8117" ry="24.8117" style="fill:#FFCC99;fill-rule:evenodd;stroke:#FFCC99;stroke-width:1px;stroke-linecap:butt;stroke-linejoin:miter;stroke-opacity:1"/>
<ellipse cx="1008.55" cy="265.32" rx="24.8117" ry="24.8117" style="fill:#FFCC99;fill-rule:evenodd;stroke:#FFCC99;stroke-width:1px;stroke-linecap:butt;stroke-linejoin:miter;stroke-opacity:1"/>
<ellipse cx="1128.13" cy="232.277" rx="24.8117" ry="24.8117" style="fill:#FFCC99;fill-rule:evenodd;stroke:#FFCC99;stroke-width:1px;stroke-linecap:butt;stroke-linejoin:miter;stroke-opacity:1"/>
<ellipse cx="1216.53" cy="319.313" rx="24.8117" ry="24.8117" style="fill:#FFCC99;fill-rule:evenodd;stroke:#FFCC99;stroke-width:1px;stroke-linecap:butt;stroke-linejoin:miter;stroke-opacity:1"/>
<ellipse cx="1336.11" cy="286.271" rx="24.8117" ry="24.8117" style="fill:#FFCC99;fill-rule:evenodd;stroke:#FFCC99;stroke-width:1px;stroke-linecap:butt;stroke-linejoin:miter;stroke-opacity:1"/>
<ellipse cx="1367.28" cy="166.192" rx="24.8117" ry="24.8117" style="fill:#FFCC99;fill-rule:evenodd;stroke:#FFCC99;stroke-width:1px;stroke-linecap:butt;stroke-linejoin:miter;stroke-opacity:1"/>
<ellipse cx="1486.86" cy="133.15" rx="24.8117" ry="24.8117" style="fill:#FFCC99;fill-rule:evenodd;stroke:#FFCC99;stroke-width:1px;stroke-linecap:butt;stroke-linejoin:miter;stroke-opacity:1"/>
<ellipse cx="1575.26" cy="220.185" rx="24.8117" ry="24.8117" style="fill:#FFCC99;fill-rule:evenodd;stroke:#FFCC99;stroke-width:1px;stroke-linecap:butt;stroke-linejoin:miter;stroke-opacity:1"/>
<ellipse cx="1714.57" cy="194.223" rx="43.1001" ry="30.0379" style="fill:#FFCC99;fill-rule:evenodd;stroke:#FFCC99;stroke-width:1px;stroke-linecap:butt;stroke-linejoin:miter;stroke-opacity:1"/>
<ellipse cx="1544.09" cy="340.264" rx="24.8117" ry="24.8117" style="fill:#FFCC99;fill-rule:evenodd;stroke:#FFCC99;stroke-width:1px;stroke-linecap:butt;stroke-linejoin:miter;stroke-opacity:1"/>
<ellipse cx="1424.51" cy="373.306" rx="24.8117" ry="24.8117" style="fill:#FFCC99;fill-rule:evenodd;stroke:#FFCC99;stroke-width:1px;stroke-linecap:butt;stroke-linejoin:miter;stroke-opacity:1"/>
<ellipse cx="2808.77" cy="192.429" rx="24.8117" ry="24.8117" style="fill:#FFCC99;fill-rule:evenodd;stroke:#FFCC99;stroke-width:1px;stroke-linecap:butt;stroke-linejoin:miter;stroke-opacity:1"/>
<ellipse cx="2901.49" cy="274.854" rx="24.8117" ry="24.8117" style="fill:#FFCC99;fill-rule:evenodd;stroke:#FFCC99;stroke-width:1px;stroke-linecap:butt;stroke-linejoin:miter;stroke-opacity:1"/>
<ellipse cx="3019.23" cy="235.77" rx="24.8117" ry="24.8117" style="fill:#FFCC99;fill-rule:evenodd;stroke:#FFCC99;stroke-width:1px;stroke-linecap:butt;stroke-linejoin:miter;stroke-opacity:1"/>
<ellipse cx="3111.95" cy="318.194" rx="24.8117" ry="24.8117" style="fill:#FFCC99;fill-rule:evenodd;stroke:#FFCC99;stroke-width:1px;stroke-linecap:butt;stroke-linejoin:miter;stroke-opacity:1"/>
<ellipse cx="3229.69" cy="279.11" rx="24.8117" ry="24.8117" style="fill:#FFCC99;fill-rule:evenodd;stroke:#FFCC99;stroke-width:1px;stroke-linecap:butt;stroke-linejoin:miter;stroke-opacity:1"/>
<ellipse cx="3254.71" cy="157.602" rx="24.8117" ry="24.8117" style="fill:#FFCC99;fill-rule:evenodd;stroke:#FFCC99;stroke-width:1px;stroke-linecap:butt;stroke-linejoin:miter;stroke-opacity:1"/>
<ellipse cx="3372.45" cy="118.517" rx="24.8117" ry="24.8117" style="fill:#FFCC99;fill-rule:evenodd;stroke:#FFCC99;stroke-width:1px;stroke-linecap:butt;stroke-linejoin:miter;stroke-opacity:1"/>
<ellipse cx="3465.17" cy="200.942" rx="24.8117" ry="24.8117" style="fill:#FFCC99;fill-rule:evenodd;stroke:#FFCC99;stroke-width:1px;stroke-linecap:butt;stroke-linejoin:miter;stroke-opacity:1"/>
<ellipse cx="3582.91" cy="146.282" rx="24.8117" ry="42.0531" style="fill:#FFCC99;fill-rule:evenodd;stroke:#FFCC99;stroke-width:1px;stroke-linecap:butt;stroke-linejoin:miter;stroke-opacity:1"/>
<ellipse cx="3675.63" cy="244.283" rx="24.8117" ry="24.8117" style="fill:#FFFFAA;fill-rule:evenodd;stroke:#FFFFAA;stroke-width:1px;stroke-linecap:butt;stroke-linejoin:miter;stroke-opacity:1"/>
<ellipse cx="3793.37" cy="205.199" rx="24.8117" ry="24.8117" style="fill:#FFFFAA;fill-rule:evenodd;stroke:#FFFFAA;stroke-width:1px;stroke-linecap:butt;stroke-linejoin:miter;stroke-opacity:1"/>
<ellipse cx="3650.61" cy="366.011" rx="24.8117" ry="24.8117" style="fill:#FFFFAA;fill-rule:evenodd;stroke:#FFFFAA;stroke-width:1px;stroke-linecap:butt;stroke-linejoin:miter;stroke-opacity:1"/>
<ellipse cx="3440.15" cy="322.451" rx="24.8117" ry="24.8117" style="fill:#FFCC99;fill-rule:evenodd;stroke:#FFCC99;stroke-width:1px;stroke-linecap:butt;stroke-linejoin:miter;stroke-opacity:1"/>
<ellipse cx="3322.41" cy="361.535" rx="24.8117" ry="24.8117" style="fill:#FFCC99;fill-rule:evenodd;stroke:#FFCC99;stroke-width:1px;stroke-linecap:butt;stroke-linejoin:miter;stroke-opacity:1"/>
<path class="bond-0" d="M 181.818,174.719 L 289.256,236.748" style="fill:none;fill-rule:evenodd;stroke:#000000;stroke-width:2.0px;stroke-linecap:butt;stroke-linejoin:miter;stroke-opacity:1"/>
<path class="bond-1" d="M 276.85,236.748 L 276.85,290.067" style="fill:none;fill-rule:evenodd;stroke:#000000;stroke-width:2.0px;stroke-linecap:butt;stroke-linejoin:miter;stroke-opacity:1"/>
<path class="bond-1" d="M 276.85,290.067 L 276.85,343.385" style="fill:none;fill-rule:evenodd;stroke:#FF0000;stroke-width:2.0px;stroke-linecap:butt;stroke-linejoin:miter;stroke-opacity:1"/>
<path class="bond-1" d="M 301.662,236.748 L 301.662,290.067" style="fill:none;fill-rule:evenodd;stroke:#000000;stroke-width:2.0px;stroke-linecap:butt;stroke-linejoin:miter;stroke-opacity:1"/>
<path class="bond-1" d="M 301.662,290.067 L 301.662,343.385" style="fill:none;fill-rule:evenodd;stroke:#FF0000;stroke-width:2.0px;stroke-linecap:butt;stroke-linejoin:miter;stroke-opacity:1"/>
<path class="bond-2" d="M 289.256,236.748 L 334.924,210.382" style="fill:none;fill-rule:evenodd;stroke:#000000;stroke-width:2.0px;stroke-linecap:butt;stroke-linejoin:miter;stroke-opacity:1"/>
<path class="bond-2" d="M 334.924,210.382 L 380.592,184.015" style="fill:none;fill-rule:evenodd;stroke:#FF0000;stroke-width:2.0px;stroke-linecap:butt;stroke-linejoin:miter;stroke-opacity:1"/>
<path class="bond-3" d="M 412.795,184.015 L 458.463,210.382" style="fill:none;fill-rule:evenodd;stroke:#FF0000;stroke-width:2.0px;stroke-linecap:butt;stroke-linejoin:miter;stroke-opacity:1"/>
<path class="bond-3" d="M 458.463,210.382 L 504.132,236.748" style="fill:none;fill-rule:evenodd;stroke:#000000;stroke-width:2.0px;stroke-linecap:butt;stroke-linejoin:miter;stroke-opacity:1"/>
<path class="bond-4" d="M 504.132,236.748 L 611.569,174.719" style="fill:none;fill-rule:evenodd;stroke:#000000;stroke-width:2.0px;stroke-linecap:butt;stroke-linejoin:miter;stroke-opacity:1"/>
<path class="bond-5" d="M 491.726,236.748 L 491.726,290.067" style="fill:none;fill-rule:evenodd;stroke:#000000;stroke-width:2.0px;stroke-linecap:butt;stroke-linejoin:miter;stroke-opacity:1"/>
<path class="bond-5" d="M 491.726,290.067 L 491.726,343.385" style="fill:none;fill-rule:evenodd;stroke:#FF0000;stroke-width:2.0px;stroke-linecap:butt;stroke-linejoin:miter;stroke-opacity:1"/>
<path class="bond-5" d="M 516.537,236.748 L 516.537,290.067" style="fill:none;fill-rule:evenodd;stroke:#000000;stroke-width:2.0px;stroke-linecap:butt;stroke-linejoin:miter;stroke-opacity:1"/>
<path class="bond-5" d="M 516.537,290.067 L 516.537,343.385" style="fill:none;fill-rule:evenodd;stroke:#FF0000;stroke-width:2.0px;stroke-linecap:butt;stroke-linejoin:miter;stroke-opacity:1"/>
<path class="bond-6" d="M 920.144,178.284 L 1008.55,265.32" style="fill:none;fill-rule:evenodd;stroke:#000000;stroke-width:2.0px;stroke-linecap:butt;stroke-linejoin:miter;stroke-opacity:1"/>
<path class="bond-7" d="M 1008.55,265.32 L 1128.13,232.277" style="fill:none;fill-rule:evenodd;stroke:#000000;stroke-width:2.0px;stroke-linecap:butt;stroke-linejoin:miter;stroke-opacity:1"/>
<path class="bond-8" d="M 1128.13,232.277 L 1216.53,319.313" style="fill:none;fill-rule:evenodd;stroke:#000000;stroke-width:2.0px;stroke-linecap:butt;stroke-linejoin:miter;stroke-opacity:1"/>
<path class="bond-9" d="M 1216.53,319.313 L 1336.11,286.271" style="fill:none;fill-rule:evenodd;stroke:#000000;stroke-width:2.0px;stroke-linecap:butt;stroke-linejoin:miter;stroke-opacity:1"/>
<path class="bond-10" d="M 1336.11,286.271 L 1367.28,166.192" style="fill:none;fill-rule:evenodd;stroke:#000000;stroke-width:2.0px;stroke-linecap:butt;stroke-linejoin:miter;stroke-opacity:1"/>
<path class="bond-10" d="M 1364.8,274.493 L 1386.62,190.439" style="fill:none;fill-rule:evenodd;stroke:#000000;stroke-width:2.0px;stroke-linecap:butt;stroke-linejoin:miter;stroke-opacity:1;stroke-dasharray:6,6"/>
<path class="bond-16" d="M 1336.11,286.271 L 1424.51,373.306" style="fill:none;fill-rule:evenodd;stroke:#000000;stroke-width:2.0px;stroke-linecap:butt;stroke-linejoin:miter;stroke-opacity:1"/>
<path class="bond-16" d="M 1366.77,281.645 L 1428.66,342.57" style="fill:none;fill-rule:evenodd;stroke:#000000;stroke-width:2.0px;stroke-linecap:butt;stroke-linejoin:miter;stroke-opacity:1;stroke-dasharray:6,6"/>
<path class="bond-11" d="M 1367.28,166.192 L 1486.86,133.15" style="fill:none;fill-rule:evenodd;stroke:#000000;stroke-width:2.0px;stroke-linecap:butt;stroke-linejoin:miter;stroke-opacity:1"/>
<path class="bond-11" d="M 1391.83,185.151 L 1475.53,162.022" style="fill:none;fill-rule:evenodd;stroke:#000000;stroke-width:2.0px;stroke-linecap:butt;stroke-linejoin:miter;stroke-opacity:1;stroke-dasharray:6,6"/>
<path class="bond-12" d="M 1486.86,133.15 L 1575.26,220.185" style="fill:none;fill-rule:evenodd;stroke:#000000;stroke-width:2.0px;stroke-linecap:butt;stroke-linejoin:miter;stroke-opacity:1"/>
<path class="bond-12" d="M 1482.71,163.886 L 1544.59,224.811" style="fill:none;fill-rule:evenodd;stroke:#000000;stroke-width:2.0px;stroke-linecap:butt;stroke-linejoin:miter;stroke-opacity:1;stroke-dasharray:6,6"/>
<path class="bond-13" d="M 1575.26,220.185 L 1628.13,205.576" style="fill:none;fill-rule:evenodd;stroke:#000000;stroke-width:2.0px;stroke-linecap:butt;stroke-linejoin:miter;stroke-opacity:1"/>
<path class="bond-13" d="M 1628.13,205.576 L 1681,190.968" style="fill:none;fill-rule:evenodd;stroke:#0000FF;stroke-width:2.0px;stroke-linecap:butt;stroke-linejoin:miter;stroke-opacity:1"/>
<path class="bond-14" d="M 1575.26,220.185 L 1544.09,340.264" style="fill:none;fill-rule:evenodd;stroke:#000000;stroke-width:2.0px;stroke-linecap:butt;stroke-linejoin:miter;stroke-opacity:1"/>
<path class="bond-14" d="M 1546.57,231.963 L 1524.75,316.017" style="fill:none;fill-rule:evenodd;stroke:#000000;stroke-width:2.0px;stroke-linecap:butt;stroke-linejoin:miter;stroke-opacity:1;stroke-dasharray:6,6"/>
<path class="bond-15" d="M 1544.09,340.264 L 1424.51,373.306" style="fill:none;fill-rule:evenodd;stroke:#000000;stroke-width:2.0px;stroke-linecap:butt;stroke-linejoin:miter;stroke-opacity:1"/>
<path class="bond-15" d="M 1519.54,321.304 L 1435.84,344.434" style="fill:none;fill-rule:evenodd;stroke:#000000;stroke-width:2.0px;stroke-linecap:butt;stroke-linejoin:miter;stroke-opacity:1;stroke-dasharray:6,6"/>
<path class="bond-17" d="M 2808.77,192.429 L 2901.49,274.854" style="fill:none;fill-rule:evenodd;stroke:#000000;stroke-width:2.0px;stroke-linecap:butt;stroke-linejoin:miter;stroke-opacity:1"/>
<path class="bond-18" d="M 2901.49,274.854 L 3019.23,235.77" style="fill:none;fill-rule:evenodd;stroke:#000000;stroke-width:2.0px;stroke-linecap:butt;stroke-linejoin:miter;stroke-opacity:1"/>
<path class="bond-19" d="M 3019.23,235.77 L 3111.95,318.194" style="fill:none;fill-rule:evenodd;stroke:#000000;stroke-width:2.0px;stroke-linecap:butt;stroke-linejoin:miter;stroke-opacity:1"/>
<path class="bond-20" d="M 3111.95,318.194 L 3229.69,279.11" style="fill:none;fill-rule:evenodd;stroke:#000000;stroke-width:2.0px;stroke-linecap:butt;stroke-linejoin:miter;stroke-opacity:1"/>
<path class="bond-21" d="M 3229.69,279.11 L 3254.71,157.602" style="fill:none;fill-rule:evenodd;stroke:#000000;stroke-width:2.0px;stroke-linecap:butt;stroke-linejoin:miter;stroke-opacity:1"/>
<path class="bond-21" d="M 3257.74,265.888 L 3275.26,180.832" style="fill:none;fill-rule:evenodd;stroke:#000000;stroke-width:2.0px;stroke-linecap:butt;stroke-linejoin:miter;stroke-opacity:1;stroke-dasharray:6,6"/>
<path class="bond-30" d="M 3229.69,279.11 L 3322.41,361.535" style="fill:none;fill-rule:evenodd;stroke:#000000;stroke-width:2.0px;stroke-linecap:butt;stroke-linejoin:miter;stroke-opacity:1"/>
<path class="bond-30" d="M 3260.08,272.93 L 3324.98,330.628" style="fill:none;fill-rule:evenodd;stroke:#000000;stroke-width:2.0px;stroke-linecap:butt;stroke-linejoin:miter;stroke-opacity:1;stroke-dasharray:6,6"/>
<path class="bond-22" d="M 3254.71,157.602 L 3372.45,118.517" style="fill:none;fill-rule:evenodd;stroke:#000000;stroke-width:2.0px;stroke-linecap:butt;stroke-linejoin:miter;stroke-opacity:1"/>
<path class="bond-22" d="M 3280.19,175.287 L 3362.61,147.928" style="fill:none;fill-rule:evenodd;stroke:#000000;stroke-width:2.0px;stroke-linecap:butt;stroke-linejoin:miter;stroke-opacity:1;stroke-dasharray:6,6"/>
<path class="bond-23" d="M 3372.45,118.517 L 3465.17,200.942" style="fill:none;fill-rule:evenodd;stroke:#000000;stroke-width:2.0px;stroke-linecap:butt;stroke-linejoin:miter;stroke-opacity:1"/>
<path class="bond-23" d="M 3369.87,149.425 L 3434.78,207.122" style="fill:none;fill-rule:evenodd;stroke:#000000;stroke-width:2.0px;stroke-linecap:butt;stroke-linejoin:miter;stroke-opacity:1;stroke-dasharray:6,6"/>
<path class="bond-24" d="M 3465.17,200.942 L 3517.12,183.697" style="fill:none;fill-rule:evenodd;stroke:#000000;stroke-width:2.0px;stroke-linecap:butt;stroke-linejoin:miter;stroke-opacity:1"/>
<path class="bond-24" d="M 3517.12,183.697 L 3569.07,166.453" style="fill:none;fill-rule:evenodd;stroke:#0000FF;stroke-width:2.0px;stroke-linecap:butt;stroke-linejoin:miter;stroke-opacity:1"/>
<path class="bond-28" d="M 3465.17,200.942 L 3440.15,322.451" style="fill:none;fill-rule:evenodd;stroke:#000000;stroke-width:2.0px;stroke-linecap:butt;stroke-linejoin:miter;stroke-opacity:1"/>
<path class="bond-28" d="M 3437.11,214.164 L 3419.6,299.22" style="fill:none;fill-rule:evenodd;stroke:#000000;stroke-width:2.0px;stroke-linecap:butt;stroke-linejoin:miter;stroke-opacity:1;stroke-dasharray:6,6"/>
<path class="bond-25" d="M 3596.75,174.163 L 3636.19,209.223" style="fill:none;fill-rule:evenodd;stroke:#0000FF;stroke-width:2.0px;stroke-linecap:butt;stroke-linejoin:miter;stroke-opacity:1"/>
<path class="bond-25" d="M 3636.19,209.223 L 3675.63,244.283" style="fill:none;fill-rule:evenodd;stroke:#000000;stroke-width:2.0px;stroke-linecap:butt;stroke-linejoin:miter;stroke-opacity:1"/>
<path class="bond-26" d="M 3675.63,244.283 L 3793.37,205.199" style="fill:none;fill-rule:evenodd;stroke:#000000;stroke-width:2.0px;stroke-linecap:butt;stroke-linejoin:miter;stroke-opacity:1"/>
<path class="bond-27" d="M 3663.48,241.78 L 3652.76,293.824" style="fill:none;fill-rule:evenodd;stroke:#000000;stroke-width:2.0px;stroke-linecap:butt;stroke-linejoin:miter;stroke-opacity:1"/>
<path class="bond-27" d="M 3652.76,293.824 L 3642.04,345.868" style="fill:none;fill-rule:evenodd;stroke:#FF0000;stroke-width:2.0px;stroke-linecap:butt;stroke-linejoin:miter;stroke-opacity:1"/>
<path class="bond-27" d="M 3687.78,246.785 L 3677.06,298.829" style="fill:none;fill-rule:evenodd;stroke:#000000;stroke-width:2.0px;stroke-linecap:butt;stroke-linejoin:miter;stroke-opacity:1"/>
<path class="bond-27" d="M 3677.06,298.829 L 3666.34,350.872" style="fill:none;fill-rule:evenodd;stroke:#FF0000;stroke-width:2.0px;stroke-linecap:butt;stroke-linejoin:miter;stroke-opacity:1"/>
<path class="bond-29" d="M 3440.15,322.451 L 3322.41,361.535" style="fill:none;fill-rule:evenodd;stroke:#000000;stroke-width:2.0px;stroke-linecap:butt;stroke-linejoin:miter;stroke-opacity:1"/>
<path class="bond-29" d="M 3414.67,304.765 L 3332.25,332.124" style="fill:none;fill-rule:evenodd;stroke:#000000;stroke-width:2.0px;stroke-linecap:butt;stroke-linejoin:miter;stroke-opacity:1;stroke-dasharray:6,6"/>
<path class="bond-31" d="M 1971.65,175.12 L 2019.99,147.206" style="fill:none;fill-rule:evenodd;stroke:#000000;stroke-width:2.0px;stroke-linecap:butt;stroke-linejoin:miter;stroke-opacity:1"/>
<path class="bond-32" d="M 2019.99,147.206 L 2036.97,157.007" style="fill:none;fill-rule:evenodd;stroke:#000000;stroke-width:2.0px;stroke-linecap:butt;stroke-linejoin:miter;stroke-opacity:1"/>
<path class="bond-32" d="M 2036.97,157.007 L 2053.94,166.808" style="fill:none;fill-rule:evenodd;stroke:#FF0000;stroke-width:2.0px;stroke-linecap:butt;stroke-linejoin:miter;stroke-opacity:1"/>
<path class="bond-33" d="M 2382.49,165.815 L 2326.66,165.815" style="fill:none;fill-rule:evenodd;stroke:#000000;stroke-width:2.0px;stroke-linecap:butt;stroke-linejoin:miter;stroke-opacity:1"/>
<path class="bond-34" d="M 2326.66,165.815 L 2298.75,214.162" style="fill:none;fill-rule:evenodd;stroke:#000000;stroke-width:2.0px;stroke-linecap:butt;stroke-linejoin:miter;stroke-opacity:1"/>
<path class="bond-34" d="M 2309.58,165.624 L 2290.04,199.467" style="fill:none;fill-rule:evenodd;stroke:#000000;stroke-width:2.0px;stroke-linecap:butt;stroke-linejoin:miter;stroke-opacity:1;stroke-dasharray:6,6"/>
<path class="bond-39" d="M 2326.66,165.815 L 2298.75,117.468" style="fill:none;fill-rule:evenodd;stroke:#000000;stroke-width:2.0px;stroke-linecap:butt;stroke-linejoin:miter;stroke-opacity:1"/>
<path class="bond-39" d="M 2309.58,166.007 L 2290.04,132.164" style="fill:none;fill-rule:evenodd;stroke:#000000;stroke-width:2.0px;stroke-linecap:butt;stroke-linejoin:miter;stroke-opacity:1;stroke-dasharray:6,6"/>
<path class="bond-35" d="M 2298.75,214.162 L 2242.92,214.162" style="fill:none;fill-rule:evenodd;stroke:#000000;stroke-width:2.0px;stroke-linecap:butt;stroke-linejoin:miter;stroke-opacity:1"/>
<path class="bond-35" d="M 2290.38,199.275 L 2251.3,199.275" style="fill:none;fill-rule:evenodd;stroke:#000000;stroke-width:2.0px;stroke-linecap:butt;stroke-linejoin:miter;stroke-opacity:1;stroke-dasharray:6,6"/>
<path class="bond-36" d="M 2242.92,214.162 L 2215.01,165.815" style="fill:none;fill-rule:evenodd;stroke:#000000;stroke-width:2.0px;stroke-linecap:butt;stroke-linejoin:miter;stroke-opacity:1"/>
<path class="bond-36" d="M 2251.63,199.467 L 2232.09,165.624" style="fill:none;fill-rule:evenodd;stroke:#000000;stroke-width:2.0px;stroke-linecap:butt;stroke-linejoin:miter;stroke-opacity:1;stroke-dasharray:6,6"/>
<path class="bond-37" d="M 2215.01,165.815 L 2242.92,117.468" style="fill:none;fill-rule:evenodd;stroke:#000000;stroke-width:2.0px;stroke-linecap:butt;stroke-linejoin:miter;stroke-opacity:1"/>
<path class="bond-37" d="M 2232.09,166.007 L 2251.63,132.164" style="fill:none;fill-rule:evenodd;stroke:#000000;stroke-width:2.0px;stroke-linecap:butt;stroke-linejoin:miter;stroke-opacity:1;stroke-dasharray:6,6"/>
<path class="bond-38" d="M 2242.92,117.468 L 2298.75,117.468" style="fill:none;fill-rule:evenodd;stroke:#000000;stroke-width:2.0px;stroke-linecap:butt;stroke-linejoin:miter;stroke-opacity:1"/>
<path class="bond-38" d="M 2251.3,132.355 L 2290.38,132.355" style="fill:none;fill-rule:evenodd;stroke:#000000;stroke-width:2.0px;stroke-linecap:butt;stroke-linejoin:miter;stroke-opacity:1;stroke-dasharray:6,6"/>
<path class="atom-2" d="M 276.256 360.887 Q 276.256 354.087, 279.616 350.287 Q 282.976 346.487, 289.256 346.487 Q 295.536 346.487, 298.896 350.287 Q 302.256 354.087, 302.256 360.887 Q 302.256 367.767, 298.856 371.687 Q 295.456 375.567, 289.256 375.567 Q 283.016 375.567, 279.616 371.687 Q 276.256 367.807, 276.256 360.887 M 289.256 372.367 Q 293.576 372.367, 295.896 369.487 Q 298.256 366.567, 298.256 360.887 Q 298.256 355.327, 295.896 352.527 Q 293.576 349.687, 289.256 349.687 Q 284.936 349.687, 282.576 352.487 Q 280.256 355.287, 280.256 360.887 Q 280.256 366.607, 282.576 369.487 Q 284.936 372.367, 289.256 372.367 " fill="#FF0000"/>
<path class="atom-3" d="M 383.694 174.799 Q 383.694 167.999, 387.054 164.199 Q 390.414 160.399, 396.694 160.399 Q 402.974 160.399, 406.334 164.199 Q 409.694 167.999, 409.694 174.799 Q 409.694 181.679, 406.294 185.599 Q 402.894 189.479, 396.694 189.479 Q 390.454 189.479, 387.054 185.599 Q 383.694 181.719, 383.694 174.799 M 396.694 186.279 Q 401.014 186.279, 403.334 183.399 Q 405.694 180.479, 405.694 174.799 Q 405.694 169.239, 403.334 166.439 Q 401.014 163.599, 396.694 163.599 Q 392.374 163.599, 390.014 166.399 Q 387.694 169.199, 387.694 174.799 Q 387.694 180.519, 390.014 183.399 Q 392.374 186.279, 396.694 186.279 " fill="#FF0000"/>
<path class="atom-6" d="M 491.132 360.887 Q 491.132 354.087, 494.492 350.287 Q 497.852 346.487, 504.132 346.487 Q 510.412 346.487, 513.772 350.287 Q 517.132 354.087, 517.132 360.887 Q 517.132 367.767, 513.732 371.687 Q 510.332 375.567, 504.132 375.567 Q 497.892 375.567, 494.492 371.687 Q 491.132 367.807, 491.132 360.887 M 504.132 372.367 Q 508.452 372.367, 510.772 369.487 Q 513.132 366.567, 513.132 360.887 Q 513.132 355.327, 510.772 352.527 Q 508.452 349.687, 504.132 349.687 Q 499.812 349.687, 497.452 352.487 Q 495.132 355.287, 495.132 360.887 Q 495.132 366.607, 497.452 369.487 Q 499.812 372.367, 504.132 372.367 " fill="#FF0000"/>
<path class="atom-15" d="M 1688.58 172.983 L 1697.86 187.983 Q 1698.78 189.463, 1700.26 192.143 Q 1701.74 194.823, 1701.82 194.983 L 1701.82 172.983 L 1705.58 172.983 L 1705.58 201.303 L 1701.7 201.303 L 1691.74 184.903 Q 1690.58 182.983, 1689.34 180.783 Q 1688.14 178.583, 1687.78 177.903 L 1687.78 201.303 L 1684.1 201.303 L 1684.1 172.983 L 1688.58 172.983 " fill="#0000FF"/>
<path class="atom-15" d="M 1708.98 172.983 L 1712.82 172.983 L 1712.82 185.023 L 1727.3 185.023 L 1727.3 172.983 L 1731.14 172.983 L 1731.14 201.303 L 1727.3 201.303 L 1727.3 188.223 L 1712.82 188.223 L 1712.82 201.303 L 1708.98 201.303 L 1708.98 172.983 " fill="#0000FF"/>
<path class="atom-15" d="M 1732.51 200.309 Q 1733.2 198.54, 1734.83 197.564 Q 1736.47 196.56, 1738.74 196.56 Q 1741.57 196.56, 1743.15 198.092 Q 1744.73 199.623, 1744.73 202.342 Q 1744.73 205.114, 1742.68 207.701 Q 1740.64 210.288, 1736.42 213.351 L 1745.05 213.351 L 1745.05 215.463 L 1732.46 215.463 L 1732.46 213.694 Q 1735.94 211.212, 1738 209.364 Q 1740.09 207.516, 1741.09 205.853 Q 1742.09 204.19, 1742.09 202.474 Q 1742.09 200.679, 1741.2 199.676 Q 1740.3 198.672, 1738.74 198.672 Q 1737.24 198.672, 1736.23 199.28 Q 1735.23 199.887, 1734.52 201.233 L 1732.51 200.309 " fill="#0000FF"/>
<path class="atom-26" d="M 3576.65 147.698 L 3585.93 162.698 Q 3586.85 164.178, 3588.33 166.858 Q 3589.81 169.538, 3589.89 169.698 L 3589.89 147.698 L 3593.65 147.698 L 3593.65 176.018 L 3589.77 176.018 L 3579.81 159.618 Q 3578.65 157.698, 3577.41 155.498 Q 3576.21 153.298, 3575.85 152.618 L 3575.85 176.018 L 3572.17 176.018 L 3572.17 147.698 L 3576.65 147.698 " fill="#0000FF"/>
<path class="atom-26" d="M 3571.83 116.546 L 3575.67 116.546 L 3575.67 128.586 L 3590.15 128.586 L 3590.15 116.546 L 3593.99 116.546 L 3593.99 144.866 L 3590.15 144.866 L 3590.15 131.786 L 3575.67 131.786 L 3575.67 144.866 L 3571.83 144.866 L 3571.83 116.546 " fill="#0000FF"/>
<path class="atom-29" d="M 3637.61 365.871 Q 3637.61 359.071, 3640.97 355.271 Q 3644.33 351.471, 3650.61 351.471 Q 3656.89 351.471, 3660.25 355.271 Q 3663.61 359.071, 3663.61 365.871 Q 3663.61 372.751, 3660.21 376.671 Q 3656.81 380.551, 3650.61 380.551 Q 3644.37 380.551, 3640.97 376.671 Q 3637.61 372.791, 3637.61 365.871 M 3650.61 377.351 Q 3654.93 377.351, 3657.25 374.471 Q 3659.61 371.551, 3659.61 365.871 Q 3659.61 360.311, 3657.25 357.511 Q 3654.93 354.671, 3650.61 354.671 Q 3646.29 354.671, 3643.93 357.471 Q 3641.61 360.271, 3641.61 365.871 Q 3641.61 371.591, 3643.93 374.471 Q 3646.29 377.351, 3650.61 377.351 " fill="#FF0000"/>
<path class="atom-34" d="M 2055.34 175.2 Q 2055.34 168.4, 2058.7 164.6 Q 2062.06 160.8, 2068.34 160.8 Q 2074.62 160.8, 2077.98 164.6 Q 2081.34 168.4, 2081.34 175.2 Q 2081.34 182.08, 2077.94 186 Q 2074.54 189.88, 2068.34 189.88 Q 2062.1 189.88, 2058.7 186 Q 2055.34 182.12, 2055.34 175.2 M 2068.34 186.68 Q 2072.66 186.68, 2074.98 183.8 Q 2077.34 180.88, 2077.34 175.2 Q 2077.34 169.64, 2074.98 166.84 Q 2072.66 164, 2068.34 164 Q 2064.02 164, 2061.66 166.8 Q 2059.34 169.6, 2059.34 175.2 Q 2059.34 180.92, 2061.66 183.8 Q 2064.02 186.68, 2068.34 186.68 " fill="#FF0000"/>
<path class="atom-34" d="M 2084.74 161.12 L 2088.58 161.12 L 2088.58 173.16 L 2103.06 173.16 L 2103.06 161.12 L 2106.9 161.12 L 2106.9 189.44 L 2103.06 189.44 L 2103.06 176.36 L 2088.58 176.36 L 2088.58 189.44 L 2084.74 189.44 L 2084.74 161.12 " fill="#FF0000"/>
<path class="atom-42" d="M 2450.67 151.815 L 2454.51 151.815 L 2454.51 163.855 L 2468.99 163.855 L 2468.99 151.815 L 2472.83 151.815 L 2472.83 180.135 L 2468.99 180.135 L 2468.99 167.055 L 2454.51 167.055 L 2454.51 180.135 L 2450.67 180.135 L 2450.67 151.815 " fill="#FF0000"/>
<path class="atom-42" d="M 2474.21 179.142 Q 2474.89 177.373, 2476.53 176.396 Q 2478.17 175.393, 2480.44 175.393 Q 2483.26 175.393, 2484.84 176.924 Q 2486.43 178.455, 2486.43 181.174 Q 2486.43 183.946, 2484.37 186.534 Q 2482.34 189.121, 2478.11 192.183 L 2486.75 192.183 L 2486.75 194.295 L 2474.15 194.295 L 2474.15 192.526 Q 2477.64 190.045, 2479.7 188.197 Q 2481.78 186.349, 2482.79 184.686 Q 2483.79 183.022, 2483.79 181.306 Q 2483.79 179.511, 2482.89 178.508 Q 2481.99 177.505, 2480.44 177.505 Q 2478.93 177.505, 2477.93 178.112 Q 2476.92 178.719, 2476.21 180.066 L 2474.21 179.142 " fill="#FF0000"/>
<path class="atom-42" d="M 2488.75 165.895 Q 2488.75 159.095, 2492.11 155.295 Q 2495.47 151.495, 2501.75 151.495 Q 2508.03 151.495, 2511.39 155.295 Q 2514.75 159.095, 2514.75 165.895 Q 2514.75 172.775, 2511.35 176.695 Q 2507.95 180.575, 2501.75 180.575 Q 2495.51 180.575, 2492.11 176.695 Q 2488.75 172.815, 2488.75 165.895 M 2501.75 177.375 Q 2506.07 177.375, 2508.39 174.495 Q 2510.75 171.575, 2510.75 165.895 Q 2510.75 160.335, 2508.39 157.535 Q 2506.07 154.695, 2501.75 154.695 Q 2497.43 154.695, 2495.07 157.495 Q 2492.75 160.295, 2492.75 165.895 Q 2492.75 171.615, 2495.07 174.495 Q 2497.43 177.375, 2501.75 177.375 " fill="#FF0000"/>
<path class="note" d="M 490.582 200.955 L 493.682 200.955 L 493.682 190.375 L 490.262 191.435 L 489.802 190.255 L 494.142 188.315 L 495.562 188.555 L 495.562 200.955 L 498.342 200.955 L 498.342 202.555 L 490.582 202.555 L 490.582 200.955 " fill="#000000"/>
<path class="note" d="M 504.742 202.715 Q 502.142 202.715, 500.842 200.795 Q 499.562 198.875, 499.562 195.455 Q 499.562 192.035, 500.842 190.135 Q 502.122 188.235, 504.742 188.235 Q 507.362 188.235, 508.642 190.135 Q 509.922 192.035, 509.922 195.455 Q 509.922 198.875, 508.622 200.795 Q 507.342 202.715, 504.742 202.715 M 504.742 201.115 Q 506.282 201.115, 507.102 199.695 Q 507.922 198.255, 507.922 195.455 Q 507.922 192.675, 507.102 191.255 Q 506.282 189.835, 504.742 189.835 Q 503.222 189.835, 502.382 191.255 Q 501.562 192.675, 501.562 195.455 Q 501.562 198.255, 502.382 199.695 Q 503.222 201.115, 504.742 201.115 " fill="#000000"/>
<path class="note" d="M 588.661 162.333 L 591.761 162.333 L 591.761 151.753 L 588.341 152.813 L 587.881 151.633 L 592.221 149.693 L 593.641 149.933 L 593.641 162.333 L 596.421 162.333 L 596.421 163.933 L 588.661 163.933 L 588.661 162.333 " fill="#000000"/>
<path class="note" d="M 598.281 162.333 L 601.381 162.333 L 601.381 151.753 L 597.961 152.813 L 597.501 151.633 L 601.841 149.693 L 603.261 149.933 L 603.261 162.333 L 606.041 162.333 L 606.041 163.933 L 598.281 163.933 L 598.281 162.333 " fill="#000000"/>
<path class="note" d="M 491.102 407.72 L 494.202 407.72 L 494.202 397.14 L 490.782 398.2 L 490.322 397.02 L 494.662 395.08 L 496.082 395.32 L 496.082 407.72 L 498.862 407.72 L 498.862 409.32 L 491.102 409.32 L 491.102 407.72 " fill="#000000"/>
<path class="note" d="M 499.902 397.84 Q 500.422 396.5, 501.662 395.76 Q 502.902 395, 504.622 395 Q 506.762 395, 507.962 396.16 Q 509.162 397.32, 509.162 399.38 Q 509.162 401.48, 507.602 403.44 Q 506.062 405.4, 502.862 407.72 L 509.402 407.72 L 509.402 409.32 L 499.862 409.32 L 499.862 407.98 Q 502.502 406.1, 504.062 404.7 Q 505.642 403.3, 506.402 402.04 Q 507.162 400.78, 507.162 399.48 Q 507.162 398.12, 506.482 397.36 Q 505.802 396.6, 504.622 396.6 Q 503.482 396.6, 502.722 397.06 Q 501.962 397.52, 501.422 398.54 L 499.902 397.84 " fill="#000000"/>
<path class="note" d="M 902.148 198.539 L 905.248 198.539 L 905.248 187.959 L 901.828 189.019 L 901.368 187.839 L 905.708 185.899 L 907.128 186.139 L 907.128 198.539 L 909.908 198.539 L 909.908 200.139 L 902.148 200.139 L 902.148 198.539 " fill="#000000"/>
<path class="note" d="M 998.623 281.013 Q 999.143 279.673, 1000.38 278.933 Q 1001.62 278.173, 1003.34 278.173 Q 1005.48 278.173, 1006.68 279.333 Q 1007.88 280.493, 1007.88 282.553 Q 1007.88 284.653, 1006.32 286.613 Q 1004.78 288.573, 1001.58 290.893 L 1008.12 290.893 L 1008.12 292.493 L 998.583 292.493 L 998.583 291.153 Q 1001.22 289.273, 1002.78 287.873 Q 1004.36 286.473, 1005.12 285.213 Q 1005.88 283.953, 1005.88 282.653 Q 1005.88 281.293, 1005.2 280.533 Q 1004.52 279.773, 1003.34 279.773 Q 1002.2 279.773, 1001.44 280.233 Q 1000.68 280.693, 1000.14 281.713 L 998.623 281.013 " fill="#000000"/>
<path class="note" d="M 1135.36 211.964 Q 1136.74 212.364, 1137.4 213.264 Q 1138.08 214.144, 1138.08 215.544 Q 1138.08 216.744, 1137.48 217.684 Q 1136.88 218.604, 1135.78 219.124 Q 1134.68 219.624, 1133.24 219.624 Q 1131.72 219.624, 1130.58 219.104 Q 1129.46 218.564, 1128.56 217.484 L 1129.7 216.324 Q 1130.58 217.284, 1131.32 217.664 Q 1132.06 218.024, 1133.24 218.024 Q 1134.52 218.024, 1135.3 217.344 Q 1136.08 216.644, 1136.08 215.524 Q 1136.08 214.084, 1135.26 213.444 Q 1134.46 212.784, 1132.72 212.784 L 1131.7 212.784 L 1131.7 211.344 L 1132.6 211.344 Q 1134.14 211.324, 1134.96 210.664 Q 1135.78 209.984, 1135.78 208.724 Q 1135.78 207.804, 1135.1 207.264 Q 1134.42 206.704, 1133.26 206.704 Q 1132.08 206.704, 1131.34 207.124 Q 1130.62 207.544, 1130.06 208.604 L 1128.68 207.864 Q 1129.18 206.684, 1130.38 205.904 Q 1131.58 205.104, 1133.26 205.104 Q 1135.34 205.104, 1136.56 206.084 Q 1137.78 207.064, 1137.78 208.724 Q 1137.78 209.864, 1137.16 210.684 Q 1136.54 211.504, 1135.36 211.964 " fill="#000000"/>
<path class="note" d="M 1215.08 341.546 L 1216.78 341.546 L 1216.78 343.146 L 1215.08 343.146 L 1215.08 346.406 L 1213.2 346.406 L 1213.2 343.146 L 1205.88 343.146 L 1205.88 341.886 L 1212.08 332.246 L 1215.08 332.246 L 1215.08 341.546 M 1208.2 341.546 L 1213.2 341.546 L 1213.2 333.526 L 1208.2 341.546 " fill="#000000"/>
<path class="note" d="M 1321.72 269.985 Q 1322.96 269.985, 1323.98 270.525 Q 1325 271.045, 1325.58 272.045 Q 1326.16 273.025, 1326.16 274.365 Q 1326.16 275.825, 1325.44 276.885 Q 1324.74 277.925, 1323.58 278.465 Q 1322.42 279.005, 1321.1 279.005 Q 1319.8 279.005, 1318.6 278.525 Q 1317.4 278.045, 1316.58 277.125 L 1317.78 275.885 Q 1318.44 276.605, 1319.34 277.005 Q 1320.24 277.385, 1321.16 277.385 Q 1322.42 277.385, 1323.28 276.605 Q 1324.16 275.825, 1324.16 274.405 Q 1324.16 272.905, 1323.28 272.205 Q 1322.42 271.485, 1321.04 271.485 Q 1319.8 271.485, 1318.42 272.025 L 1317.32 271.505 L 1318 264.685 L 1325.28 264.685 L 1325.08 266.285 L 1319.64 266.285 L 1319.22 270.485 Q 1320.48 269.985, 1321.72 269.985 " fill="#000000"/>
<path class="note" d="M 1353.18 150.006 Q 1354.42 150.006, 1355.4 150.546 Q 1356.38 151.086, 1356.92 152.066 Q 1357.46 153.046, 1357.46 154.286 Q 1357.46 155.666, 1356.84 156.746 Q 1356.24 157.806, 1355.16 158.406 Q 1354.08 159.006, 1352.7 159.006 Q 1350.18 159.006, 1348.9 157.306 Q 1347.64 155.586, 1347.64 152.186 Q 1347.64 148.426, 1349.2 146.486 Q 1350.78 144.526, 1353.8 144.526 Q 1354.68 144.526, 1355.42 144.726 Q 1356.18 144.926, 1356.9 145.346 L 1356.12 146.686 Q 1355.08 146.126, 1353.82 146.126 Q 1351.82 146.126, 1350.8 147.426 Q 1349.78 148.706, 1349.66 151.366 Q 1350.38 150.706, 1351.28 150.366 Q 1352.2 150.006, 1353.18 150.006 M 1352.72 157.366 Q 1353.48 157.366, 1354.1 156.966 Q 1354.74 156.566, 1355.1 155.866 Q 1355.46 155.166, 1355.46 154.306 Q 1355.46 153.046, 1354.76 152.326 Q 1354.06 151.606, 1352.82 151.606 Q 1351.96 151.606, 1351.1 151.966 Q 1350.26 152.306, 1349.66 152.906 Q 1349.74 155.246, 1350.48 156.306 Q 1351.22 157.366, 1352.72 157.366 " fill="#000000"/>
<path class="note" d="M 1494.77 107.657 L 1487.35 107.657 L 1487.35 106.057 L 1496.75 106.057 L 1496.75 107.477 L 1491.03 120.217 L 1489.11 120.217 L 1494.77 107.657 " fill="#000000"/>
<path class="note" d="M 1582.68 199.832 Q 1583.98 200.392, 1584.72 201.232 Q 1585.46 202.052, 1585.46 203.452 Q 1585.46 204.652, 1584.84 205.592 Q 1584.22 206.512, 1583.1 207.032 Q 1582 207.532, 1580.54 207.532 Q 1578.18 207.532, 1576.82 206.452 Q 1575.46 205.352, 1575.46 203.452 Q 1575.46 202.292, 1576.06 201.432 Q 1576.66 200.552, 1577.9 199.892 Q 1576.98 199.372, 1576.48 198.612 Q 1575.98 197.832, 1575.98 196.632 Q 1575.98 194.972, 1577.18 193.992 Q 1578.4 193.012, 1580.46 193.012 Q 1582.52 193.012, 1583.72 193.992 Q 1584.94 194.972, 1584.94 196.632 Q 1584.94 197.672, 1584.36 198.452 Q 1583.8 199.212, 1582.68 199.832 M 1580.46 194.512 Q 1579.28 194.512, 1578.62 195.072 Q 1577.98 195.632, 1577.98 196.632 Q 1577.98 197.372, 1578.42 197.872 Q 1578.86 198.352, 1579.48 198.632 Q 1580.12 198.912, 1581.34 199.332 Q 1582.2 198.732, 1582.56 198.092 Q 1582.94 197.452, 1582.94 196.632 Q 1582.94 195.632, 1582.28 195.072 Q 1581.64 194.512, 1580.46 194.512 M 1580.54 206.032 Q 1581.86 206.032, 1582.66 205.332 Q 1583.46 204.612, 1583.46 203.432 Q 1583.46 202.672, 1583.04 202.192 Q 1582.62 201.712, 1581.98 201.432 Q 1581.36 201.152, 1580.24 200.792 L 1579.34 200.492 Q 1578.34 201.092, 1577.9 201.812 Q 1577.46 202.512, 1577.46 203.432 Q 1577.46 204.612, 1578.3 205.332 Q 1579.14 206.032, 1580.54 206.032 " fill="#000000"/>
<path class="note" d="M 1723.7 150.515 Q 1726.22 150.515, 1727.48 152.235 Q 1728.76 153.935, 1728.76 157.335 Q 1728.76 161.095, 1727.18 163.055 Q 1725.62 164.995, 1722.6 164.995 Q 1721.72 164.995, 1720.96 164.795 Q 1720.22 164.595, 1719.5 164.175 L 1720.28 162.835 Q 1721.32 163.395, 1722.58 163.395 Q 1724.58 163.395, 1725.6 162.115 Q 1726.62 160.815, 1726.74 158.155 Q 1726.02 158.815, 1725.1 159.175 Q 1724.2 159.515, 1723.22 159.515 Q 1721.98 159.515, 1721 158.975 Q 1720.02 158.435, 1719.48 157.455 Q 1718.94 156.475, 1718.94 155.235 Q 1718.94 153.855, 1719.54 152.795 Q 1720.16 151.715, 1721.24 151.115 Q 1722.32 150.515, 1723.7 150.515 M 1720.94 155.215 Q 1720.94 156.475, 1721.64 157.195 Q 1722.34 157.915, 1723.58 157.915 Q 1724.44 157.915, 1725.28 157.575 Q 1726.14 157.215, 1726.74 156.615 Q 1726.66 154.275, 1725.92 153.215 Q 1725.18 152.155, 1723.68 152.155 Q 1722.92 152.155, 1722.28 152.555 Q 1721.66 152.955, 1721.3 153.655 Q 1720.94 154.355, 1720.94 155.215 " fill="#000000"/>
<path class="note" d="M 1545.88 360.329 L 1548.98 360.329 L 1548.98 349.749 L 1545.56 350.809 L 1545.1 349.629 L 1549.44 347.689 L 1550.86 347.929 L 1550.86 360.329 L 1553.64 360.329 L 1553.64 361.929 L 1545.88 361.929 L 1545.88 360.329 " fill="#000000"/>
<path class="note" d="M 1561.28 354.469 Q 1562.66 354.869, 1563.32 355.769 Q 1564 356.649, 1564 358.049 Q 1564 359.249, 1563.4 360.189 Q 1562.8 361.109, 1561.7 361.629 Q 1560.6 362.129, 1559.16 362.129 Q 1557.64 362.129, 1556.5 361.609 Q 1555.38 361.069, 1554.48 359.989 L 1555.62 358.829 Q 1556.5 359.789, 1557.24 360.169 Q 1557.98 360.529, 1559.16 360.529 Q 1560.44 360.529, 1561.22 359.849 Q 1562 359.149, 1562 358.029 Q 1562 356.589, 1561.18 355.949 Q 1560.38 355.289, 1558.64 355.289 L 1557.62 355.289 L 1557.62 353.849 L 1558.52 353.849 Q 1560.06 353.829, 1560.88 353.169 Q 1561.7 352.489, 1561.7 351.229 Q 1561.7 350.309, 1561.02 349.769 Q 1560.34 349.209, 1559.18 349.209 Q 1558 349.209, 1557.26 349.629 Q 1556.54 350.049, 1555.98 351.109 L 1554.6 350.369 Q 1555.1 349.189, 1556.3 348.409 Q 1557.5 347.609, 1559.18 347.609 Q 1561.26 347.609, 1562.48 348.589 Q 1563.7 349.569, 1563.7 351.229 Q 1563.7 352.369, 1563.08 353.189 Q 1562.46 354.009, 1561.28 354.469 " fill="#000000"/>
<path class="note" d="M 1405.81 398.839 L 1408.91 398.839 L 1408.91 388.259 L 1405.49 389.319 L 1405.03 388.139 L 1409.37 386.199 L 1410.79 386.439 L 1410.79 398.839 L 1413.57 398.839 L 1413.57 400.439 L 1405.81 400.439 L 1405.81 398.839 " fill="#000000"/>
<path class="note" d="M 1423.37 395.579 L 1425.07 395.579 L 1425.07 397.179 L 1423.37 397.179 L 1423.37 400.439 L 1421.49 400.439 L 1421.49 397.179 L 1414.17 397.179 L 1414.17 395.919 L 1420.37 386.279 L 1423.37 386.279 L 1423.37 395.579 M 1416.49 395.579 L 1421.49 395.579 L 1421.49 387.559 L 1416.49 395.579 " fill="#000000"/>
<path class="note" d="M 2791.54 213.402 L 2794.64 213.402 L 2794.64 202.822 L 2791.22 203.882 L 2790.76 202.702 L 2795.1 200.762 L 2796.52 201.002 L 2796.52 213.402 L 2799.3 213.402 L 2799.3 215.002 L 2791.54 215.002 L 2791.54 213.402 " fill="#000000"/>
<path class="note" d="M 2892.59 290.785 Q 2893.11 289.445, 2894.35 288.705 Q 2895.59 287.945, 2897.31 287.945 Q 2899.45 287.945, 2900.65 289.105 Q 2901.85 290.265, 2901.85 292.325 Q 2901.85 294.425, 2900.29 296.385 Q 2898.75 298.345, 2895.55 300.665 L 2902.09 300.665 L 2902.09 302.265 L 2892.55 302.265 L 2892.55 300.925 Q 2895.19 299.045, 2896.75 297.645 Q 2898.33 296.245, 2899.09 294.985 Q 2899.85 293.725, 2899.85 292.425 Q 2899.85 291.065, 2899.17 290.305 Q 2898.49 289.545, 2897.31 289.545 Q 2896.17 289.545, 2895.41 290.005 Q 2894.65 290.465, 2894.11 291.485 L 2892.59 290.785 " fill="#000000"/>
<path class="note" d="M 3025.44 215.218 Q 3026.82 215.618, 3027.48 216.518 Q 3028.16 217.398, 3028.16 218.798 Q 3028.16 219.998, 3027.56 220.938 Q 3026.96 221.858, 3025.86 222.378 Q 3024.76 222.878, 3023.32 222.878 Q 3021.8 222.878, 3020.66 222.358 Q 3019.54 221.818, 3018.64 220.738 L 3019.78 219.578 Q 3020.66 220.538, 3021.4 220.918 Q 3022.14 221.278, 3023.32 221.278 Q 3024.6 221.278, 3025.38 220.598 Q 3026.16 219.898, 3026.16 218.778 Q 3026.16 217.338, 3025.34 216.698 Q 3024.54 216.038, 3022.8 216.038 L 3021.78 216.038 L 3021.78 214.598 L 3022.68 214.598 Q 3024.22 214.578, 3025.04 213.918 Q 3025.86 213.238, 3025.86 211.978 Q 3025.86 211.058, 3025.18 210.518 Q 3024.5 209.958, 3023.34 209.958 Q 3022.16 209.958, 3021.42 210.378 Q 3020.7 210.798, 3020.14 211.858 L 3018.76 211.118 Q 3019.26 209.938, 3020.46 209.158 Q 3021.66 208.358, 3023.34 208.358 Q 3025.42 208.358, 3026.64 209.338 Q 3027.86 210.318, 3027.86 211.978 Q 3027.86 213.118, 3027.24 213.938 Q 3026.62 214.758, 3025.44 215.218 " fill="#000000"/>
<path class="note" d="M 3111.53 340.666 L 3113.23 340.666 L 3113.23 342.266 L 3111.53 342.266 L 3111.53 345.526 L 3109.65 345.526 L 3109.65 342.266 L 3102.33 342.266 L 3102.33 341.006 L 3108.53 331.366 L 3111.53 331.366 L 3111.53 340.666 M 3104.65 340.666 L 3109.65 340.666 L 3109.65 332.646 L 3104.65 340.666 " fill="#000000"/>
<path class="note" d="M 3214.58 263.593 Q 3215.82 263.593, 3216.84 264.133 Q 3217.86 264.653, 3218.44 265.653 Q 3219.02 266.633, 3219.02 267.973 Q 3219.02 269.433, 3218.3 270.493 Q 3217.6 271.533, 3216.44 272.073 Q 3215.28 272.613, 3213.96 272.613 Q 3212.66 272.613, 3211.46 272.133 Q 3210.26 271.653, 3209.44 270.733 L 3210.64 269.493 Q 3211.3 270.213, 3212.2 270.613 Q 3213.1 270.993, 3214.02 270.993 Q 3215.28 270.993, 3216.14 270.213 Q 3217.02 269.433, 3217.02 268.013 Q 3217.02 266.513, 3216.14 265.813 Q 3215.28 265.093, 3213.9 265.093 Q 3212.66 265.093, 3211.28 265.633 L 3210.18 265.113 L 3210.86 258.293 L 3218.14 258.293 L 3217.94 259.893 L 3212.5 259.893 L 3212.08 264.093 Q 3213.34 263.593, 3214.58 263.593 " fill="#000000"/>
<path class="note" d="M 3239.89 142.184 Q 3241.13 142.184, 3242.11 142.724 Q 3243.09 143.264, 3243.63 144.244 Q 3244.17 145.224, 3244.17 146.464 Q 3244.17 147.844, 3243.55 148.924 Q 3242.95 149.984, 3241.87 150.584 Q 3240.79 151.184, 3239.41 151.184 Q 3236.89 151.184, 3235.61 149.484 Q 3234.35 147.764, 3234.35 144.364 Q 3234.35 140.604, 3235.91 138.664 Q 3237.49 136.704, 3240.51 136.704 Q 3241.39 136.704, 3242.13 136.904 Q 3242.89 137.104, 3243.61 137.524 L 3242.83 138.864 Q 3241.79 138.304, 3240.53 138.304 Q 3238.53 138.304, 3237.51 139.604 Q 3236.49 140.884, 3236.37 143.544 Q 3237.09 142.884, 3237.99 142.544 Q 3238.91 142.184, 3239.89 142.184 M 3239.43 149.544 Q 3240.19 149.544, 3240.81 149.144 Q 3241.45 148.744, 3241.81 148.044 Q 3242.17 147.344, 3242.17 146.484 Q 3242.17 145.224, 3241.47 144.504 Q 3240.77 143.784, 3239.53 143.784 Q 3238.67 143.784, 3237.81 144.144 Q 3236.97 144.484, 3236.37 145.084 Q 3236.45 147.424, 3237.19 148.484 Q 3237.93 149.544, 3239.43 149.544 " fill="#000000"/>
<path class="note" d="M 3379.34 92.786 L 3371.92 92.786 L 3371.92 91.186 L 3381.32 91.186 L 3381.32 92.606 L 3375.6 105.346 L 3373.68 105.346 L 3379.34 92.786 " fill="#000000"/>
<path class="note" d="M 3471.56 180.351 Q 3472.86 180.911, 3473.6 181.751 Q 3474.34 182.571, 3474.34 183.971 Q 3474.34 185.171, 3473.72 186.111 Q 3473.1 187.031, 3471.98 187.551 Q 3470.88 188.051, 3469.42 188.051 Q 3467.06 188.051, 3465.7 186.971 Q 3464.34 185.871, 3464.34 183.971 Q 3464.34 182.811, 3464.94 181.951 Q 3465.54 181.071, 3466.78 180.411 Q 3465.86 179.891, 3465.36 179.131 Q 3464.86 178.351, 3464.86 177.151 Q 3464.86 175.491, 3466.06 174.511 Q 3467.28 173.531, 3469.34 173.531 Q 3471.4 173.531, 3472.6 174.511 Q 3473.82 175.491, 3473.82 177.151 Q 3473.82 178.191, 3473.24 178.971 Q 3472.68 179.731, 3471.56 180.351 M 3469.34 175.031 Q 3468.16 175.031, 3467.5 175.591 Q 3466.86 176.151, 3466.86 177.151 Q 3466.86 177.891, 3467.3 178.391 Q 3467.74 178.871, 3468.36 179.151 Q 3469 179.431, 3470.22 179.851 Q 3471.08 179.251, 3471.44 178.611 Q 3471.82 177.971, 3471.82 177.151 Q 3471.82 176.151, 3471.16 175.591 Q 3470.52 175.031, 3469.34 175.031 M 3469.42 186.551 Q 3470.74 186.551, 3471.54 185.851 Q 3472.34 185.131, 3472.34 183.951 Q 3472.34 183.191, 3471.92 182.711 Q 3471.5 182.231, 3470.86 181.951 Q 3470.24 181.671, 3469.12 181.311 L 3468.22 181.011 Q 3467.22 181.611, 3466.78 182.331 Q 3466.34 183.031, 3466.34 183.951 Q 3466.34 185.131, 3467.18 185.851 Q 3468.02 186.551, 3469.42 186.551 " fill="#000000"/>
<path class="note" d="M 3551.85 127.223 Q 3554.37 127.223, 3555.63 128.943 Q 3556.91 130.643, 3556.91 134.043 Q 3556.91 137.803, 3555.33 139.763 Q 3553.77 141.703, 3550.75 141.703 Q 3549.87 141.703, 3549.11 141.503 Q 3548.37 141.303, 3547.65 140.883 L 3548.43 139.543 Q 3549.47 140.103, 3550.73 140.103 Q 3552.73 140.103, 3553.75 138.823 Q 3554.77 137.523, 3554.89 134.863 Q 3554.17 135.523, 3553.25 135.883 Q 3552.35 136.223, 3551.37 136.223 Q 3550.13 136.223, 3549.15 135.683 Q 3548.17 135.143, 3547.63 134.163 Q 3547.09 133.183, 3547.09 131.943 Q 3547.09 130.563, 3547.69 129.503 Q 3548.31 128.423, 3549.39 127.823 Q 3550.47 127.223, 3551.85 127.223 M 3549.09 131.923 Q 3549.09 133.183, 3549.79 133.903 Q 3550.49 134.623, 3551.73 134.623 Q 3552.59 134.623, 3553.43 134.283 Q 3554.29 133.923, 3554.89 133.323 Q 3554.81 130.983, 3554.07 129.923 Q 3553.33 128.863, 3551.83 128.863 Q 3551.07 128.863, 3550.43 129.263 Q 3549.81 129.663, 3549.45 130.363 Q 3549.09 131.063, 3549.09 131.923 " fill="#000000"/>
<path class="note" d="M 3670.42 209.34 L 3673.52 209.34 L 3673.52 198.76 L 3670.1 199.82 L 3669.64 198.64 L 3673.98 196.7 L 3675.4 196.94 L 3675.4 209.34 L 3678.18 209.34 L 3678.18 210.94 L 3670.42 210.94 L 3670.42 209.34 " fill="#000000"/>
<path class="note" d="M 3684.58 211.1 Q 3681.98 211.1, 3680.68 209.18 Q 3679.4 207.26, 3679.4 203.84 Q 3679.4 200.42, 3680.68 198.52 Q 3681.96 196.62, 3684.58 196.62 Q 3687.2 196.62, 3688.48 198.52 Q 3689.76 200.42, 3689.76 203.84 Q 3689.76 207.26, 3688.46 209.18 Q 3687.18 211.1, 3684.58 211.1 M 3684.58 209.5 Q 3686.12 209.5, 3686.94 208.08 Q 3687.76 206.64, 3687.76 203.84 Q 3687.76 201.06, 3686.94 199.64 Q 3686.12 198.22, 3684.58 198.22 Q 3683.06 198.22, 3682.22 199.64 Q 3681.4 201.06, 3681.4 203.84 Q 3681.4 206.64, 3682.22 208.08 Q 3683.06 209.5, 3684.58 209.5 " fill="#000000"/>
<path class="note" d="M 3774.29 191.095 L 3777.39 191.095 L 3777.39 180.515 L 3773.97 181.575 L 3773.51 180.395 L 3777.85 178.455 L 3779.27 178.695 L 3779.27 191.095 L 3782.05 191.095 L 3782.05 192.695 L 3774.29 192.695 L 3774.29 191.095 " fill="#000000"/>
<path class="note" d="M 3783.91 191.095 L 3787.01 191.095 L 3787.01 180.515 L 3783.59 181.575 L 3783.13 180.395 L 3787.47 178.455 L 3788.89 178.695 L 3788.89 191.095 L 3791.67 191.095 L 3791.67 192.695 L 3783.91 192.695 L 3783.91 191.095 " fill="#000000"/>
<path class="note" d="M 3629.24 411.854 L 3632.34 411.854 L 3632.34 401.274 L 3628.92 402.334 L 3628.46 401.154 L 3632.8 399.214 L 3634.22 399.454 L 3634.22 411.854 L 3637 411.854 L 3637 413.454 L 3629.24 413.454 L 3629.24 411.854 " fill="#000000"/>
<path class="note" d="M 3638.04 401.974 Q 3638.56 400.634, 3639.8 399.894 Q 3641.04 399.134, 3642.76 399.134 Q 3644.9 399.134, 3646.1 400.294 Q 3647.3 401.454, 3647.3 403.514 Q 3647.3 405.614, 3645.74 407.574 Q 3644.2 409.534, 3641 411.854 L 3647.54 411.854 L 3647.54 413.454 L 3638 413.454 L 3638 412.114 Q 3640.64 410.234, 3642.2 408.834 Q 3643.78 407.434, 3644.54 406.174 Q 3645.3 404.914, 3645.3 403.614 Q 3645.3 402.254, 3644.62 401.494 Q 3643.94 400.734, 3642.76 400.734 Q 3641.62 400.734, 3640.86 401.194 Q 3640.1 401.654, 3639.56 402.674 L 3638.04 401.974 " fill="#000000"/>
<path class="note" d="M 3442.66 341.748 L 3445.76 341.748 L 3445.76 331.168 L 3442.34 332.228 L 3441.88 331.048 L 3446.22 329.108 L 3447.64 329.348 L 3447.64 341.748 L 3450.42 341.748 L 3450.42 343.348 L 3442.66 343.348 L 3442.66 341.748 " fill="#000000"/>
<path class="note" d="M 3458.06 335.888 Q 3459.44 336.288, 3460.1 337.188 Q 3460.78 338.068, 3460.78 339.468 Q 3460.78 340.668, 3460.18 341.608 Q 3459.58 342.528, 3458.48 343.048 Q 3457.38 343.548, 3455.94 343.548 Q 3454.42 343.548, 3453.28 343.028 Q 3452.16 342.488, 3451.26 341.408 L 3452.4 340.248 Q 3453.28 341.208, 3454.02 341.588 Q 3454.76 341.948, 3455.94 341.948 Q 3457.22 341.948, 3458 341.268 Q 3458.78 340.568, 3458.78 339.448 Q 3458.78 338.008, 3457.96 337.368 Q 3457.16 336.708, 3455.42 336.708 L 3454.4 336.708 L 3454.4 335.268 L 3455.3 335.268 Q 3456.84 335.248, 3457.66 334.588 Q 3458.48 333.908, 3458.48 332.648 Q 3458.48 331.728, 3457.8 331.188 Q 3457.12 330.628, 3455.96 330.628 Q 3454.78 330.628, 3454.04 331.048 Q 3453.32 331.468, 3452.76 332.528 L 3451.38 331.788 Q 3451.88 330.608, 3453.08 329.828 Q 3454.28 329.028, 3455.96 329.028 Q 3458.04 329.028, 3459.26 330.008 Q 3460.48 330.988, 3460.48 332.648 Q 3460.48 333.788, 3459.86 334.608 Q 3459.24 335.428, 3458.06 335.888 " fill="#000000"/>
<path class="note" d="M 3304.73 387.306 L 3307.83 387.306 L 3307.83 376.726 L 3304.41 377.786 L 3303.95 376.606 L 3308.29 374.666 L 3309.71 374.906 L 3309.71 387.306 L 3312.49 387.306 L 3312.49 388.906 L 3304.73 388.906 L 3304.73 387.306 " fill="#000000"/>
<path class="note" d="M 3322.29 384.046 L 3323.99 384.046 L 3323.99 385.646 L 3322.29 385.646 L 3322.29 388.906 L 3320.41 388.906 L 3320.41 385.646 L 3313.09 385.646 L 3313.09 384.386 L 3319.29 374.746 L 3322.29 374.746 L 3322.29 384.046 M 3315.41 384.046 L 3320.41 384.046 L 3320.41 376.026 L 3315.41 384.046 " fill="#000000"/>
<path d="M 770.319 243.608 L 776.367 243.608 L 776.367 237.24 L 779.055 237.24 L 779.055 243.608 L 785.263 243.608 L 785.263 245.912 L 779.055 245.912 L 779.055 252.312 L 776.367 252.312 L 776.367 245.912 L 770.319 245.912 L 770.319 243.608 " fill="#000000"/>
<path d="M 1888.94,245.912 L 2625.06,245.912" style="fill:none;fill-rule:evenodd;stroke:#000000;stroke-width:2.0px;stroke-linecap:butt;stroke-linejoin:miter;stroke-opacity:1"/>
<path d="M 2625.06,245.912 L 2593.19,227.509" style="fill:none;fill-rule:evenodd;stroke:#000000;stroke-width:2.0px;stroke-linecap:butt;stroke-linejoin:miter;stroke-opacity:1"/>
<path d="M 2625.06,245.912 L 2593.19,264.315" style="fill:none;fill-rule:evenodd;stroke:#000000;stroke-width:2.0px;stroke-linecap:butt;stroke-linejoin:miter;stroke-opacity:1"/>
</svg>