<svg xmlns="http://www.w3.org/2000/svg" xmlns:rdkit="http://www.rdkit.org/xml" xmlns:xlink="http://www.w3.org/1999/xlink" version="1.1" baseProfile="full" xml:space="preserve" width="4000px" height="500px" viewBox="0 0 4000 500">
<!-- END OF HEADER -->
<rect style="opacity:1.0;fill:#FFFFFF;stroke:none" width="4000" height="500" x="0" y="0"> </rect>
<path d="M 987.225,176.936 L 1093.25,238.148" style="fill:none;fill-rule:evenodd;stroke:#FFFFAA;stroke-width:26.1px;stroke-linecap:butt;stroke-linejoin:miter;stroke-opacity:1"/>
<path d="M 1093.25,238.148 L 1199.27,176.936" style="fill:none;fill-rule:evenodd;stroke:#FFFFAA;stroke-width:26.1px;stroke-linecap:butt;stroke-linejoin:miter;stroke-opacity:1"/>
<path d="M 1093.25,238.148 L 1093.25,360.57" style="fill:none;fill-rule:evenodd;stroke:#FFFFAA;stroke-width:26.1px;stroke-linecap:butt;stroke-linejoin:miter;stroke-opacity:1"/>
<path d="M 1856.83,438.069 L 1822.85,320.458" style="fill:none;fill-rule:evenodd;stroke:#FFCC99;stroke-width:26.1px;stroke-linecap:butt;stroke-linejoin:miter;stroke-opacity:1"/>
<path d="M 1822.85,320.458 L 1907.71,232.221" style="fill:none;fill-rule:evenodd;stroke:#FFCC99;stroke-width:26.1px;stroke-linecap:butt;stroke-linejoin:miter;stroke-opacity:1"/>
<path d="M 1822.85,320.458 L 1704,291.083" style="fill:none;fill-rule:evenodd;stroke:#FFCC99;stroke-width:26.1px;stroke-linecap:butt;stroke-linejoin:miter;stroke-opacity:1"/>
<path d="M 1907.71,232.221 L 1873.73,114.61" style="fill:none;fill-rule:evenodd;stroke:#FFCC99;stroke-width:26.1px;stroke-linecap:butt;stroke-linejoin:miter;stroke-opacity:1"/>
<path d="M 1873.73,114.61 L 1754.88,85.2358" style="fill:none;fill-rule:evenodd;stroke:#FFCC99;stroke-width:26.1px;stroke-linecap:butt;stroke-linejoin:miter;stroke-opacity:1"/>
<path d="M 1754.88,85.2358 L 1670.02,173.472" style="fill:none;fill-rule:evenodd;stroke:#FFCC99;stroke-width:26.1px;stroke-linecap:butt;stroke-linejoin:miter;stroke-opacity:1"/>
<path d="M 1670.02,173.472 L 1704,291.083" style="fill:none;fill-rule:evenodd;stroke:#FFCC99;stroke-width:26.1px;stroke-linecap:butt;stroke-linejoin:miter;stroke-opacity:1"/>
<path d="M 1670.02,173.472 L 1547.66,169.449" style="fill:none;fill-rule:evenodd;stroke:#FFCC99;stroke-width:26.1px;stroke-linecap:butt;stroke-linejoin:miter;stroke-opacity:1"/>
<path d="M 1704,291.083 L 1602.65,359.748" style="fill:none;fill-rule:evenodd;stroke:#FFCC99;stroke-width:26.1px;stroke-linecap:butt;stroke-linejoin:miter;stroke-opacity:1"/>
<path d="M 1602.65,359.748 L 1506.03,284.574" style="fill:none;fill-rule:evenodd;stroke:#FFCC99;stroke-width:26.1px;stroke-linecap:butt;stroke-linejoin:miter;stroke-opacity:1"/>
<path d="M 1506.03,284.574 L 1547.66,169.449" style="fill:none;fill-rule:evenodd;stroke:#FFCC99;stroke-width:26.1px;stroke-linecap:butt;stroke-linejoin:miter;stroke-opacity:1"/>
<path d="M 3200.33,362.088 L 3106.57,283.369" style="fill:none;fill-rule:evenodd;stroke:#FFFFAA;stroke-width:26.1px;stroke-linecap:butt;stroke-linejoin:miter;stroke-opacity:1"/>
<path d="M 3106.57,283.369 L 3127.87,162.812" style="fill:none;fill-rule:evenodd;stroke:#FFFFAA;stroke-width:26.1px;stroke-linecap:butt;stroke-linejoin:miter;stroke-opacity:1"/>
<path d="M 2991.52,325.206 L 2897.76,246.487" style="fill:none;fill-rule:evenodd;stroke:#FFCC99;stroke-width:26.1px;stroke-linecap:butt;stroke-linejoin:miter;stroke-opacity:1"/>
<path d="M 2897.76,246.487 L 2919.06,125.931" style="fill:none;fill-rule:evenodd;stroke:#FFCC99;stroke-width:26.1px;stroke-linecap:butt;stroke-linejoin:miter;stroke-opacity:1"/>
<path d="M 2897.76,246.487 L 2782.71,288.325" style="fill:none;fill-rule:evenodd;stroke:#FFCC99;stroke-width:26.1px;stroke-linecap:butt;stroke-linejoin:miter;stroke-opacity:1"/>
<path d="M 2919.06,125.931 L 2825.3,47.2118" style="fill:none;fill-rule:evenodd;stroke:#FFCC99;stroke-width:26.1px;stroke-linecap:butt;stroke-linejoin:miter;stroke-opacity:1"/>
<path d="M 2825.3,47.2118 L 2710.25,89.0492" style="fill:none;fill-rule:evenodd;stroke:#FFCC99;stroke-width:26.1px;stroke-linecap:butt;stroke-linejoin:miter;stroke-opacity:1"/>
<path d="M 2710.25,89.0492 L 2688.95,209.606" style="fill:none;fill-rule:evenodd;stroke:#FFCC99;stroke-width:26.1px;stroke-linecap:butt;stroke-linejoin:miter;stroke-opacity:1"/>
<path d="M 2688.95,209.606 L 2782.71,288.325" style="fill:none;fill-rule:evenodd;stroke:#FFCC99;stroke-width:26.1px;stroke-linecap:butt;stroke-linejoin:miter;stroke-opacity:1"/>
<path d="M 2688.95,209.606 L 2585.12,274.449" style="fill:none;fill-rule:evenodd;stroke:#FFCC99;stroke-width:26.1px;stroke-linecap:butt;stroke-linejoin:miter;stroke-opacity:1"/>
<path d="M 2782.71,288.325 L 2736.82,401.819" style="fill:none;fill-rule:evenodd;stroke:#FFCC99;stroke-width:26.1px;stroke-linecap:butt;stroke-linejoin:miter;stroke-opacity:1"/>
<path d="M 2736.82,401.819 L 2614.7,393.244" style="fill:none;fill-rule:evenodd;stroke:#FFCC99;stroke-width:26.1px;stroke-linecap:butt;stroke-linejoin:miter;stroke-opacity:1"/>
<path d="M 2614.7,393.244 L 2585.12,274.449" style="fill:none;fill-rule:evenodd;stroke:#FFCC99;stroke-width:26.1px;stroke-linecap:butt;stroke-linejoin:miter;stroke-opacity:1"/>
<ellipse cx="1093.25" cy="238.148" rx="24.4845" ry="24.4845" style="fill:#FFFFAA;fill-rule:evenodd;stroke:#FFFFAA;stroke-width:1px;stroke-linecap:butt;stroke-linejoin:miter;stroke-opacity:1"/>
<ellipse cx="1199.27" cy="176.936" rx="24.4845" ry="24.4845" style="fill:#FFFFAA;fill-rule:evenodd;stroke:#FFFFAA;stroke-width:1px;stroke-linecap:butt;stroke-linejoin:miter;stroke-opacity:1"/>
<ellipse cx="1093.25" cy="360.79" rx="24.4845" ry="24.4845" style="fill:#FFFFAA;fill-rule:evenodd;stroke:#FFFFAA;stroke-width:1px;stroke-linecap:butt;stroke-linejoin:miter;stroke-opacity:1"/>
<ellipse cx="1876.57" cy="445.149" rx="43.1001" ry="30.0379" style="fill:#FFCC99;fill-rule:evenodd;stroke:#FFCC99;stroke-width:1px;stroke-linecap:butt;stroke-linejoin:miter;stroke-opacity:1"/>
<ellipse cx="1822.85" cy="320.458" rx="24.4845" ry="24.4845" style="fill:#FFCC99;fill-rule:evenodd;stroke:#FFCC99;stroke-width:1px;stroke-linecap:butt;stroke-linejoin:miter;stroke-opacity:1"/>
<ellipse cx="1907.71" cy="232.221" rx="24.4845" ry="24.4845" style="fill:#FFCC99;fill-rule:evenodd;stroke:#FFCC99;stroke-width:1px;stroke-linecap:butt;stroke-linejoin:miter;stroke-opacity:1"/>
<ellipse cx="1873.73" cy="114.61" rx="24.4845" ry="24.4845" style="fill:#FFCC99;fill-rule:evenodd;stroke:#FFCC99;stroke-width:1px;stroke-linecap:butt;stroke-linejoin:miter;stroke-opacity:1"/>
<ellipse cx="1754.88" cy="85.2358" rx="24.4845" ry="24.4845" style="fill:#FFCC99;fill-rule:evenodd;stroke:#FFCC99;stroke-width:1px;stroke-linecap:butt;stroke-linejoin:miter;stroke-opacity:1"/>
<ellipse cx="1670.02" cy="173.472" rx="24.4845" ry="24.4845" style="fill:#FFCC99;fill-rule:evenodd;stroke:#FFCC99;stroke-width:1px;stroke-linecap:butt;stroke-linejoin:miter;stroke-opacity:1"/>
<ellipse cx="1704" cy="291.083" rx="24.4845" ry="24.4845" style="fill:#FFCC99;fill-rule:evenodd;stroke:#FFCC99;stroke-width:1px;stroke-linecap:butt;stroke-linejoin:miter;stroke-opacity:1"/>
<ellipse cx="1602.65" cy="359.748" rx="24.4845" ry="24.4845" style="fill:#FFCC99;fill-rule:evenodd;stroke:#FFCC99;stroke-width:1px;stroke-linecap:butt;stroke-linejoin:miter;stroke-opacity:1"/>
<ellipse cx="1506.03" cy="284.574" rx="24.4845" ry="24.4845" style="fill:#FFCC99;fill-rule:evenodd;stroke:#FFCC99;stroke-width:1px;stroke-linecap:butt;stroke-linejoin:miter;stroke-opacity:1"/>
<ellipse cx="1547.66" cy="169.449" rx="24.4845" ry="24.4845" style="fill:#FFCC99;fill-rule:evenodd;stroke:#FFCC99;stroke-width:1px;stroke-linecap:butt;stroke-linejoin:miter;stroke-opacity:1"/>
<ellipse cx="3200.33" cy="362.088" rx="24.4845" ry="24.4845" style="fill:#FFFFAA;fill-rule:evenodd;stroke:#FFFFAA;stroke-width:1px;stroke-linecap:butt;stroke-linejoin:miter;stroke-opacity:1"/>
<ellipse cx="3106.57" cy="283.369" rx="24.4845" ry="24.4845" style="fill:#FFFFAA;fill-rule:evenodd;stroke:#FFFFAA;stroke-width:1px;stroke-linecap:butt;stroke-linejoin:miter;stroke-opacity:1"/>
<ellipse cx="3127.87" cy="163.032" rx="24.4845" ry="24.4845" style="fill:#FFFFAA;fill-rule:evenodd;stroke:#FFFFAA;stroke-width:1px;stroke-linecap:butt;stroke-linejoin:miter;stroke-opacity:1"/>
<ellipse cx="2991.52" cy="340.782" rx="24.4845" ry="42.0531" style="fill:#FFCC99;fill-rule:evenodd;stroke:#FFCC99;stroke-width:1px;stroke-linecap:butt;stroke-linejoin:miter;stroke-opacity:1"/>
<ellipse cx="2897.76" cy="246.487" rx="24.4845" ry="24.4845" style="fill:#FFCC99;fill-rule:evenodd;stroke:#FFCC99;stroke-width:1px;stroke-linecap:butt;stroke-linejoin:miter;stroke-opacity:1"/>
<ellipse cx="2919.06" cy="125.931" rx="24.4845" ry="24.4845" style="fill:#FFCC99;fill-rule:evenodd;stroke:#FFCC99;stroke-width:1px;stroke-linecap:butt;stroke-linejoin:miter;stroke-opacity:1"/>
<ellipse cx="2825.3" cy="47.2118" rx="24.4845" ry="24.4845" style="fill:#FFCC99;fill-rule:evenodd;stroke:#FFCC99;stroke-width:1px;stroke-linecap:butt;stroke-linejoin:miter;stroke-opacity:1"/>
<ellipse cx="2710.25" cy="89.0492" rx="24.4845" ry="24.4845" style="fill:#FFCC99;fill-rule:evenodd;stroke:#FFCC99;stroke-width:1px;stroke-linecap:butt;stroke-linejoin:miter;stroke-opacity:1"/>
<ellipse cx="2688.95" cy="209.606" rx="24.4845" ry="24.4845" style="fill:#FFCC99;fill-rule:evenodd;stroke:#FFCC99;stroke-width:1px;stroke-linecap:butt;stroke-linejoin:miter;stroke-opacity:1"/>
<ellipse cx="2782.71" cy="288.325" rx="24.4845" ry="24.4845" style="fill:#FFCC99;fill-rule:evenodd;stroke:#FFCC99;stroke-width:1px;stroke-linecap:butt;stroke-linejoin:miter;stroke-opacity:1"/>
<ellipse cx="2736.82" cy="401.819" rx="24.4845" ry="24.4845" style="fill:#FFCC99;fill-rule:evenodd;stroke:#FFCC99;stroke-width:1px;stroke-linecap:butt;stroke-linejoin:miter;stroke-opacity:1"/>
<ellipse cx="2614.7" cy="393.244" rx="24.4845" ry="24.4845" style="fill:#FFCC99;fill-rule:evenodd;stroke:#FFCC99;stroke-width:1px;stroke-linecap:butt;stroke-linejoin:miter;stroke-opacity:1"/>
<ellipse cx="2585.12" cy="274.449" rx="24.4845" ry="24.4845" style="fill:#FFCC99;fill-rule:evenodd;stroke:#FFCC99;stroke-width:1px;stroke-linecap:butt;stroke-linejoin:miter;stroke-opacity:1"/>
<path class="bond-0" d="M 775.183,176.936 L 881.204,238.148" style="fill:none;fill-rule:evenodd;stroke:#000000;stroke-width:2.0px;stroke-linecap:butt;stroke-linejoin:miter;stroke-opacity:1"/>
<path class="bond-1" d="M 868.962,238.148 L 868.962,290.669" style="fill:none;fill-rule:evenodd;stroke:#000000;stroke-width:2.0px;stroke-linecap:butt;stroke-linejoin:miter;stroke-opacity:1"/>
<path class="bond-1" d="M 868.962,290.669 L 868.962,343.19" style="fill:none;fill-rule:evenodd;stroke:#FF0000;stroke-width:2.0px;stroke-linecap:butt;stroke-linejoin:miter;stroke-opacity:1"/>
<path class="bond-1" d="M 893.446,238.148 L 893.446,290.669" style="fill:none;fill-rule:evenodd;stroke:#000000;stroke-width:2.0px;stroke-linecap:butt;stroke-linejoin:miter;stroke-opacity:1"/>
<path class="bond-1" d="M 893.446,290.669 L 893.446,343.19" style="fill:none;fill-rule:evenodd;stroke:#FF0000;stroke-width:2.0px;stroke-linecap:butt;stroke-linejoin:miter;stroke-opacity:1"/>
<path class="bond-2" d="M 881.204,238.148 L 926.184,212.178" style="fill:none;fill-rule:evenodd;stroke:#000000;stroke-width:2.0px;stroke-linecap:butt;stroke-linejoin:miter;stroke-opacity:1"/>
<path class="bond-2" d="M 926.184,212.178 L 971.165,186.209" style="fill:none;fill-rule:evenodd;stroke:#FF0000;stroke-width:2.0px;stroke-linecap:butt;stroke-linejoin:miter;stroke-opacity:1"/>
<path class="bond-3" d="M 1003.29,186.209 L 1048.27,212.178" style="fill:none;fill-rule:evenodd;stroke:#FF0000;stroke-width:2.0px;stroke-linecap:butt;stroke-linejoin:miter;stroke-opacity:1"/>
<path class="bond-3" d="M 1048.27,212.178 L 1093.25,238.148" style="fill:none;fill-rule:evenodd;stroke:#000000;stroke-width:2.0px;stroke-linecap:butt;stroke-linejoin:miter;stroke-opacity:1"/>
<path class="bond-4" d="M 1093.25,238.148 L 1199.27,176.936" style="fill:none;fill-rule:evenodd;stroke:#000000;stroke-width:2.0px;stroke-linecap:butt;stroke-linejoin:miter;stroke-opacity:1"/>
<path class="bond-5" d="M 1081,238.148 L 1081,290.669" style="fill:none;fill-rule:evenodd;stroke:#000000;stroke-width:2.0px;stroke-linecap:butt;stroke-linejoin:miter;stroke-opacity:1"/>
<path class="bond-5" d="M 1081,290.669 L 1081,343.19" style="fill:none;fill-rule:evenodd;stroke:#FF0000;stroke-width:2.0px;stroke-linecap:butt;stroke-linejoin:miter;stroke-opacity:1"/>
<path class="bond-5" d="M 1105.49,238.148 L 1105.49,290.669" style="fill:none;fill-rule:evenodd;stroke:#000000;stroke-width:2.0px;stroke-linecap:butt;stroke-linejoin:miter;stroke-opacity:1"/>
<path class="bond-5" d="M 1105.49,290.669 L 1105.49,343.19" style="fill:none;fill-rule:evenodd;stroke:#FF0000;stroke-width:2.0px;stroke-linecap:butt;stroke-linejoin:miter;stroke-opacity:1"/>
<path class="bond-6" d="M 1851.86,420.848 L 1837.35,370.653" style="fill:none;fill-rule:evenodd;stroke:#0000FF;stroke-width:2.0px;stroke-linecap:butt;stroke-linejoin:miter;stroke-opacity:1"/>
<path class="bond-6" d="M 1837.35,370.653 L 1822.85,320.458" style="fill:none;fill-rule:evenodd;stroke:#000000;stroke-width:2.0px;stroke-linecap:butt;stroke-linejoin:miter;stroke-opacity:1"/>
<path class="bond-7" d="M 1822.85,320.458 L 1907.71,232.221" style="fill:none;fill-rule:evenodd;stroke:#000000;stroke-width:2.0px;stroke-linecap:butt;stroke-linejoin:miter;stroke-opacity:1"/>
<path class="bond-7" d="M 1817.93,290.25 L 1877.33,228.484" style="fill:none;fill-rule:evenodd;stroke:#000000;stroke-width:2.0px;stroke-linecap:butt;stroke-linejoin:miter;stroke-opacity:1;stroke-dasharray:6,6"/>
<path class="bond-15" d="M 1822.85,320.458 L 1704,291.083" style="fill:none;fill-rule:evenodd;stroke:#000000;stroke-width:2.0px;stroke-linecap:butt;stroke-linejoin:miter;stroke-opacity:1"/>
<path class="bond-15" d="M 1810.9,292.283 L 1727.7,271.72" style="fill:none;fill-rule:evenodd;stroke:#000000;stroke-width:2.0px;stroke-linecap:butt;stroke-linejoin:miter;stroke-opacity:1;stroke-dasharray:6,6"/>
<path class="bond-8" d="M 1907.71,232.221 L 1873.73,114.61" style="fill:none;fill-rule:evenodd;stroke:#000000;stroke-width:2.0px;stroke-linecap:butt;stroke-linejoin:miter;stroke-opacity:1"/>
<path class="bond-8" d="M 1879.09,221.377 L 1855.3,139.049" style="fill:none;fill-rule:evenodd;stroke:#000000;stroke-width:2.0px;stroke-linecap:butt;stroke-linejoin:miter;stroke-opacity:1;stroke-dasharray:6,6"/>
<path class="bond-9" d="M 1873.73,114.61 L 1754.88,85.2358" style="fill:none;fill-rule:evenodd;stroke:#000000;stroke-width:2.0px;stroke-linecap:butt;stroke-linejoin:miter;stroke-opacity:1"/>
<path class="bond-9" d="M 1850.02,133.973 L 1766.83,113.411" style="fill:none;fill-rule:evenodd;stroke:#000000;stroke-width:2.0px;stroke-linecap:butt;stroke-linejoin:miter;stroke-opacity:1;stroke-dasharray:6,6"/>
<path class="bond-10" d="M 1754.88,85.2358 L 1670.02,173.472" style="fill:none;fill-rule:evenodd;stroke:#000000;stroke-width:2.0px;stroke-linecap:butt;stroke-linejoin:miter;stroke-opacity:1"/>
<path class="bond-10" d="M 1759.8,115.444 L 1700.39,177.209" style="fill:none;fill-rule:evenodd;stroke:#000000;stroke-width:2.0px;stroke-linecap:butt;stroke-linejoin:miter;stroke-opacity:1;stroke-dasharray:6,6"/>
<path class="bond-11" d="M 1670.02,173.472 L 1704,291.083" style="fill:none;fill-rule:evenodd;stroke:#000000;stroke-width:2.0px;stroke-linecap:butt;stroke-linejoin:miter;stroke-opacity:1"/>
<path class="bond-11" d="M 1698.64,184.317 L 1722.43,266.645" style="fill:none;fill-rule:evenodd;stroke:#000000;stroke-width:2.0px;stroke-linecap:butt;stroke-linejoin:miter;stroke-opacity:1;stroke-dasharray:6,6"/>
<path class="bond-16" d="M 1670.02,173.472 L 1547.66,169.449" style="fill:none;fill-rule:evenodd;stroke:#000000;stroke-width:2.0px;stroke-linecap:butt;stroke-linejoin:miter;stroke-opacity:1"/>
<path class="bond-12" d="M 1704,291.083 L 1602.65,359.748" style="fill:none;fill-rule:evenodd;stroke:#000000;stroke-width:2.0px;stroke-linecap:butt;stroke-linejoin:miter;stroke-opacity:1"/>
<path class="bond-13" d="M 1602.65,359.748 L 1506.03,284.574" style="fill:none;fill-rule:evenodd;stroke:#000000;stroke-width:2.0px;stroke-linecap:butt;stroke-linejoin:miter;stroke-opacity:1"/>
<path class="bond-14" d="M 1506.03,284.574 L 1547.66,169.449" style="fill:none;fill-rule:evenodd;stroke:#000000;stroke-width:2.0px;stroke-linecap:butt;stroke-linejoin:miter;stroke-opacity:1"/>
<path class="bond-17" d="M 3200.33,362.088 L 3106.57,283.369" style="fill:none;fill-rule:evenodd;stroke:#000000;stroke-width:2.0px;stroke-linecap:butt;stroke-linejoin:miter;stroke-opacity:1"/>
<path class="bond-18" d="M 3118.63,285.498 L 3127.7,234.13" style="fill:none;fill-rule:evenodd;stroke:#000000;stroke-width:2.0px;stroke-linecap:butt;stroke-linejoin:miter;stroke-opacity:1"/>
<path class="bond-18" d="M 3127.7,234.13 L 3136.78,182.762" style="fill:none;fill-rule:evenodd;stroke:#FF0000;stroke-width:2.0px;stroke-linecap:butt;stroke-linejoin:miter;stroke-opacity:1"/>
<path class="bond-18" d="M 3094.52,281.24 L 3103.59,229.872" style="fill:none;fill-rule:evenodd;stroke:#000000;stroke-width:2.0px;stroke-linecap:butt;stroke-linejoin:miter;stroke-opacity:1"/>
<path class="bond-18" d="M 3103.59,229.872 L 3112.66,178.504" style="fill:none;fill-rule:evenodd;stroke:#FF0000;stroke-width:2.0px;stroke-linecap:butt;stroke-linejoin:miter;stroke-opacity:1"/>
<path class="bond-19" d="M 3106.57,283.369 L 3055.95,301.778" style="fill:none;fill-rule:evenodd;stroke:#000000;stroke-width:2.0px;stroke-linecap:butt;stroke-linejoin:miter;stroke-opacity:1"/>
<path class="bond-19" d="M 3055.95,301.778 L 3005.32,320.188" style="fill:none;fill-rule:evenodd;stroke:#0000FF;stroke-width:2.0px;stroke-linecap:butt;stroke-linejoin:miter;stroke-opacity:1"/>
<path class="bond-20" d="M 2977.72,313.619 L 2937.74,280.053" style="fill:none;fill-rule:evenodd;stroke:#0000FF;stroke-width:2.0px;stroke-linecap:butt;stroke-linejoin:miter;stroke-opacity:1"/>
<path class="bond-20" d="M 2937.74,280.053 L 2897.76,246.487" style="fill:none;fill-rule:evenodd;stroke:#000000;stroke-width:2.0px;stroke-linecap:butt;stroke-linejoin:miter;stroke-opacity:1"/>
<path class="bond-21" d="M 2897.76,246.487 L 2919.06,125.931" style="fill:none;fill-rule:evenodd;stroke:#000000;stroke-width:2.0px;stroke-linecap:butt;stroke-linejoin:miter;stroke-opacity:1"/>
<path class="bond-21" d="M 2876.85,224.145 L 2891.75,139.756" style="fill:none;fill-rule:evenodd;stroke:#000000;stroke-width:2.0px;stroke-linecap:butt;stroke-linejoin:miter;stroke-opacity:1;stroke-dasharray:6,6"/>
<path class="bond-29" d="M 2897.76,246.487 L 2782.71,288.325" style="fill:none;fill-rule:evenodd;stroke:#000000;stroke-width:2.0px;stroke-linecap:butt;stroke-linejoin:miter;stroke-opacity:1"/>
<path class="bond-29" d="M 2872.14,229.753 L 2791.6,259.039" style="fill:none;fill-rule:evenodd;stroke:#000000;stroke-width:2.0px;stroke-linecap:butt;stroke-linejoin:miter;stroke-opacity:1;stroke-dasharray:6,6"/>
<path class="bond-22" d="M 2919.06,125.931 L 2825.3,47.2118" style="fill:none;fill-rule:evenodd;stroke:#000000;stroke-width:2.0px;stroke-linecap:butt;stroke-linejoin:miter;stroke-opacity:1"/>
<path class="bond-22" d="M 2889.25,132.875 L 2823.62,77.7713" style="fill:none;fill-rule:evenodd;stroke:#000000;stroke-width:2.0px;stroke-linecap:butt;stroke-linejoin:miter;stroke-opacity:1;stroke-dasharray:6,6"/>
<path class="bond-23" d="M 2825.3,47.2118 L 2710.25,89.0492" style="fill:none;fill-rule:evenodd;stroke:#000000;stroke-width:2.0px;stroke-linecap:butt;stroke-linejoin:miter;stroke-opacity:1"/>
<path class="bond-23" d="M 2816.41,76.4977 L 2735.87,105.784" style="fill:none;fill-rule:evenodd;stroke:#000000;stroke-width:2.0px;stroke-linecap:butt;stroke-linejoin:miter;stroke-opacity:1;stroke-dasharray:6,6"/>
<path class="bond-24" d="M 2710.25,89.0492 L 2688.95,209.606" style="fill:none;fill-rule:evenodd;stroke:#000000;stroke-width:2.0px;stroke-linecap:butt;stroke-linejoin:miter;stroke-opacity:1"/>
<path class="bond-24" d="M 2731.17,111.391 L 2716.26,195.781" style="fill:none;fill-rule:evenodd;stroke:#000000;stroke-width:2.0px;stroke-linecap:butt;stroke-linejoin:miter;stroke-opacity:1;stroke-dasharray:6,6"/>
<path class="bond-25" d="M 2688.95,209.606 L 2782.71,288.325" style="fill:none;fill-rule:evenodd;stroke:#000000;stroke-width:2.0px;stroke-linecap:butt;stroke-linejoin:miter;stroke-opacity:1"/>
<path class="bond-25" d="M 2718.76,202.662 L 2784.39,257.765" style="fill:none;fill-rule:evenodd;stroke:#000000;stroke-width:2.0px;stroke-linecap:butt;stroke-linejoin:miter;stroke-opacity:1;stroke-dasharray:6,6"/>
<path class="bond-30" d="M 2688.95,209.606 L 2585.12,274.449" style="fill:none;fill-rule:evenodd;stroke:#000000;stroke-width:2.0px;stroke-linecap:butt;stroke-linejoin:miter;stroke-opacity:1"/>
<path class="bond-26" d="M 2782.71,288.325 L 2736.82,401.819" style="fill:none;fill-rule:evenodd;stroke:#000000;stroke-width:2.0px;stroke-linecap:butt;stroke-linejoin:miter;stroke-opacity:1"/>
<path class="bond-27" d="M 2736.82,401.819 L 2614.7,393.244" style="fill:none;fill-rule:evenodd;stroke:#000000;stroke-width:2.0px;stroke-linecap:butt;stroke-linejoin:miter;stroke-opacity:1"/>
<path class="bond-28" d="M 2614.7,393.244 L 2585.12,274.449" style="fill:none;fill-rule:evenodd;stroke:#000000;stroke-width:2.0px;stroke-linecap:butt;stroke-linejoin:miter;stroke-opacity:1"/>
<path class="atom-2" d="M 868.204 360.65 Q 868.204 353.85, 871.564 350.05 Q 874.924 346.25, 881.204 346.25 Q 887.484 346.25, 890.844 350.05 Q 894.204 353.85, 894.204 360.65 Q 894.204 367.53, 890.804 371.45 Q 887.404 375.33, 881.204 375.33 Q 874.964 375.33, 871.564 371.45 Q 868.204 367.57, 868.204 360.65 M 881.204 372.13 Q 885.524 372.13, 887.844 369.25 Q 890.204 366.33, 890.204 360.65 Q 890.204 355.09, 887.844 352.29 Q 885.524 349.45, 881.204 349.45 Q 876.884 349.45, 874.524 352.25 Q 872.204 355.05, 872.204 360.65 Q 872.204 366.37, 874.524 369.25 Q 876.884 372.13, 881.204 372.13 " fill="#FF0000"/>
<path class="atom-3" d="M 974.225 177.016 Q 974.225 170.216, 977.585 166.416 Q 980.945 162.616, 987.225 162.616 Q 993.505 162.616, 996.865 166.416 Q 1000.23 170.216, 1000.23 177.016 Q 1000.23 183.896, 996.825 187.816 Q 993.425 191.696, 987.225 191.696 Q 980.985 191.696, 977.585 187.816 Q 974.225 183.936, 974.225 177.016 M 987.225 188.496 Q 991.545 188.496, 993.865 185.616 Q 996.225 182.696, 996.225 177.016 Q 996.225 171.456, 993.865 168.656 Q 991.545 165.816, 987.225 165.816 Q 982.905 165.816, 980.545 168.616 Q 978.225 171.416, 978.225 177.016 Q 978.225 182.736, 980.545 185.616 Q 982.905 188.496, 987.225 188.496 " fill="#FF0000"/>
<path class="atom-6" d="M 1080.25 360.65 Q 1080.25 353.85, 1083.61 350.05 Q 1086.97 346.25, 1093.25 346.25 Q 1099.53 346.25, 1102.89 350.05 Q 1106.25 353.85, 1106.25 360.65 Q 1106.25 367.53, 1102.85 371.45 Q 1099.45 375.33, 1093.25 375.33 Q 1087.01 375.33, 1083.61 371.45 Q 1080.25 367.57, 1080.25 360.65 M 1093.25 372.13 Q 1097.57 372.13, 1099.89 369.25 Q 1102.25 366.33, 1102.25 360.65 Q 1102.25 355.09, 1099.89 352.29 Q 1097.57 349.45, 1093.25 349.45 Q 1088.93 349.45, 1086.57 352.25 Q 1084.25 355.05, 1084.25 360.65 Q 1084.25 366.37, 1086.57 369.25 Q 1088.93 372.13, 1093.25 372.13 " fill="#FF0000"/>
<path class="atom-7" d="M 1850.57 423.909 L 1859.85 438.909 Q 1860.77 440.389, 1862.25 443.069 Q 1863.73 445.749, 1863.81 445.909 L 1863.81 423.909 L 1867.57 423.909 L 1867.57 452.229 L 1863.69 452.229 L 1853.73 435.829 Q 1852.57 433.909, 1851.33 431.709 Q 1850.13 429.509, 1849.77 428.829 L 1849.77 452.229 L 1846.09 452.229 L 1846.09 423.909 L 1850.57 423.909 " fill="#0000FF"/>
<path class="atom-7" d="M 1870.97 423.909 L 1874.81 423.909 L 1874.81 435.949 L 1889.29 435.949 L 1889.29 423.909 L 1893.13 423.909 L 1893.13 452.229 L 1889.29 452.229 L 1889.29 439.149 L 1874.81 439.149 L 1874.81 452.229 L 1870.97 452.229 L 1870.97 423.909 " fill="#0000FF"/>
<path class="atom-7" d="M 1894.51 451.235 Q 1895.19 449.467, 1896.83 448.49 Q 1898.47 447.487, 1900.74 447.487 Q 1903.56 447.487, 1905.14 449.018 Q 1906.73 450.549, 1906.73 453.268 Q 1906.73 456.04, 1904.67 458.627 Q 1902.64 461.215, 1898.41 464.277 L 1907.05 464.277 L 1907.05 466.389 L 1894.45 466.389 L 1894.45 464.62 Q 1897.94 462.139, 1900 460.291 Q 1902.08 458.443, 1903.09 456.779 Q 1904.09 455.116, 1904.09 453.4 Q 1904.09 451.605, 1903.19 450.602 Q 1902.29 449.599, 1900.74 449.599 Q 1899.23 449.599, 1898.23 450.206 Q 1897.22 450.813, 1896.51 452.159 L 1894.51 451.235 " fill="#0000FF"/>
<path class="atom-19" d="M 3114.87 162.892 Q 3114.87 156.092, 3118.23 152.292 Q 3121.59 148.492, 3127.87 148.492 Q 3134.15 148.492, 3137.51 152.292 Q 3140.87 156.092, 3140.87 162.892 Q 3140.87 169.772, 3137.47 173.692 Q 3134.07 177.572, 3127.87 177.572 Q 3121.63 177.572, 3118.23 173.692 Q 3114.87 169.812, 3114.87 162.892 M 3127.87 174.372 Q 3132.19 174.372, 3134.51 171.492 Q 3136.87 168.572, 3136.87 162.892 Q 3136.87 157.332, 3134.51 154.532 Q 3132.19 151.692, 3127.87 151.692 Q 3123.55 151.692, 3121.19 154.492 Q 3118.87 157.292, 3118.87 162.892 Q 3118.87 168.612, 3121.19 171.492 Q 3123.55 174.372, 3127.87 174.372 " fill="#FF0000"/>
<path class="atom-20" d="M 2985.26 311.046 L 2994.54 326.046 Q 2995.46 327.526, 2996.94 330.206 Q 2998.42 332.886, 2998.5 333.046 L 2998.5 311.046 L 3002.26 311.046 L 3002.26 339.366 L 2998.38 339.366 L 2988.42 322.966 Q 2987.26 321.046, 2986.02 318.846 Q 2984.82 316.646, 2984.46 315.966 L 2984.46 339.366 L 2980.78 339.366 L 2980.78 311.046 L 2985.26 311.046 " fill="#0000FF"/>
<path class="atom-20" d="M 2980.44 342.198 L 2984.28 342.198 L 2984.28 354.238 L 2998.76 354.238 L 2998.76 342.198 L 3002.6 342.198 L 3002.6 370.518 L 2998.76 370.518 L 2998.76 357.438 L 2984.28 357.438 L 2984.28 370.518 L 2980.44 370.518 L 2980.44 342.198 " fill="#0000FF"/>
<path class="note" d="M 1088.52 213.424 Q 1089.04 212.084, 1090.28 211.344 Q 1091.52 210.584, 1093.24 210.584 Q 1095.38 210.584, 1096.58 211.744 Q 1097.78 212.904, 1097.78 214.964 Q 1097.78 217.064, 1096.22 219.024 Q 1094.68 220.984, 1091.48 223.304 L 1098.02 223.304 L 1098.02 224.904 L 1088.48 224.904 L 1088.48 223.564 Q 1091.12 221.684, 1092.68 220.284 Q 1094.26 218.884, 1095.02 217.624 Q 1095.78 216.364, 1095.78 215.064 Q 1095.78 213.704, 1095.1 212.944 Q 1094.42 212.184, 1093.24 212.184 Q 1092.1 212.184, 1091.34 212.644 Q 1090.58 213.104, 1090.04 214.124 L 1088.52 213.424 " fill="#000000"/>
<path class="note" d="M 1185.58 164.786 L 1188.68 164.786 L 1188.68 154.206 L 1185.26 155.266 L 1184.8 154.086 L 1189.14 152.146 L 1190.56 152.386 L 1190.56 164.786 L 1193.34 164.786 L 1193.34 166.386 L 1185.58 166.386 L 1185.58 164.786 " fill="#000000"/>
<path class="note" d="M 1095.29 401.078 Q 1096.67 401.478, 1097.33 402.378 Q 1098.01 403.258, 1098.01 404.658 Q 1098.01 405.858, 1097.41 406.798 Q 1096.81 407.718, 1095.71 408.238 Q 1094.61 408.738, 1093.17 408.738 Q 1091.65 408.738, 1090.51 408.218 Q 1089.39 407.678, 1088.49 406.598 L 1089.63 405.438 Q 1090.51 406.398, 1091.25 406.778 Q 1091.99 407.138, 1093.17 407.138 Q 1094.45 407.138, 1095.23 406.458 Q 1096.01 405.758, 1096.01 404.638 Q 1096.01 403.198, 1095.19 402.558 Q 1094.39 401.898, 1092.65 401.898 L 1091.63 401.898 L 1091.63 400.458 L 1092.53 400.458 Q 1094.07 400.438, 1094.89 399.778 Q 1095.71 399.098, 1095.71 397.838 Q 1095.71 396.918, 1095.03 396.378 Q 1094.35 395.818, 1093.19 395.818 Q 1092.01 395.818, 1091.27 396.238 Q 1090.55 396.658, 1089.99 397.718 L 1088.61 396.978 Q 1089.11 395.798, 1090.31 395.018 Q 1091.51 394.218, 1093.19 394.218 Q 1095.27 394.218, 1096.49 395.198 Q 1097.71 396.178, 1097.71 397.838 Q 1097.71 398.978, 1097.09 399.798 Q 1096.47 400.618, 1095.29 401.078 " fill="#000000"/>
<path class="note" d="M 1871.91 479.493 L 1873.61 479.493 L 1873.61 481.093 L 1871.91 481.093 L 1871.91 484.353 L 1870.03 484.353 L 1870.03 481.093 L 1862.71 481.093 L 1862.71 479.833 L 1868.91 470.193 L 1871.91 470.193 L 1871.91 479.493 M 1865.03 479.493 L 1870.03 479.493 L 1870.03 471.473 L 1865.03 479.493 " fill="#000000"/>
<path class="note" d="M 1843.01 323.574 Q 1844.25 323.574, 1845.27 324.114 Q 1846.29 324.634, 1846.87 325.634 Q 1847.45 326.614, 1847.45 327.954 Q 1847.45 329.414, 1846.73 330.474 Q 1846.03 331.514, 1844.87 332.054 Q 1843.71 332.594, 1842.39 332.594 Q 1841.09 332.594, 1839.89 332.114 Q 1838.69 331.634, 1837.87 330.714 L 1839.07 329.474 Q 1839.73 330.194, 1840.63 330.594 Q 1841.53 330.974, 1842.45 330.974 Q 1843.71 330.974, 1844.57 330.194 Q 1845.45 329.414, 1845.45 327.994 Q 1845.45 326.494, 1844.57 325.794 Q 1843.71 325.074, 1842.33 325.074 Q 1841.09 325.074, 1839.71 325.614 L 1838.61 325.094 L 1839.29 318.274 L 1846.57 318.274 L 1846.37 319.874 L 1840.93 319.874 L 1840.51 324.074 Q 1841.77 323.574, 1843.01 323.574 " fill="#000000"/>
<path class="note" d="M 1928.15 235.437 Q 1929.39 235.437, 1930.37 235.977 Q 1931.35 236.517, 1931.89 237.497 Q 1932.43 238.477, 1932.43 239.717 Q 1932.43 241.097, 1931.81 242.177 Q 1931.21 243.237, 1930.13 243.837 Q 1929.05 244.437, 1927.67 244.437 Q 1925.15 244.437, 1923.87 242.737 Q 1922.61 241.017, 1922.61 237.617 Q 1922.61 233.857, 1924.17 231.917 Q 1925.75 229.957, 1928.77 229.957 Q 1929.65 229.957, 1930.39 230.157 Q 1931.15 230.357, 1931.87 230.777 L 1931.09 232.117 Q 1930.05 231.557, 1928.79 231.557 Q 1926.79 231.557, 1925.77 232.857 Q 1924.75 234.137, 1924.63 236.797 Q 1925.35 236.137, 1926.25 235.797 Q 1927.17 235.437, 1928.15 235.437 M 1927.69 242.797 Q 1928.45 242.797, 1929.07 242.397 Q 1929.71 241.997, 1930.07 241.297 Q 1930.43 240.597, 1930.43 239.737 Q 1930.43 238.477, 1929.73 237.757 Q 1929.03 237.037, 1927.79 237.037 Q 1926.93 237.037, 1926.07 237.397 Q 1925.23 237.737, 1924.63 238.337 Q 1924.71 240.677, 1925.45 241.737 Q 1926.19 242.797, 1927.69 242.797 " fill="#000000"/>
<path class="note" d="M 1890.59 94.4243 L 1883.17 94.4243 L 1883.17 92.8243 L 1892.57 92.8243 L 1892.57 94.2443 L 1886.85 106.984 L 1884.93 106.984 L 1890.59 94.4243 " fill="#000000"/>
<path class="note" d="M 1751.44 65.294 Q 1752.74 65.854, 1753.48 66.694 Q 1754.22 67.514, 1754.22 68.914 Q 1754.22 70.114, 1753.6 71.054 Q 1752.98 71.974, 1751.86 72.494 Q 1750.76 72.994, 1749.3 72.994 Q 1746.94 72.994, 1745.58 71.914 Q 1744.22 70.814, 1744.22 68.914 Q 1744.22 67.754, 1744.82 66.894 Q 1745.42 66.014, 1746.66 65.354 Q 1745.74 64.834, 1745.24 64.074 Q 1744.74 63.294, 1744.74 62.094 Q 1744.74 60.434, 1745.94 59.454 Q 1747.16 58.474, 1749.22 58.474 Q 1751.28 58.474, 1752.48 59.454 Q 1753.7 60.434, 1753.7 62.094 Q 1753.7 63.134, 1753.12 63.914 Q 1752.56 64.674, 1751.44 65.294 M 1749.22 59.974 Q 1748.04 59.974, 1747.38 60.534 Q 1746.74 61.094, 1746.74 62.094 Q 1746.74 62.834, 1747.18 63.334 Q 1747.62 63.814, 1748.24 64.094 Q 1748.88 64.374, 1750.1 64.794 Q 1750.96 64.194, 1751.32 63.554 Q 1751.7 62.914, 1751.7 62.094 Q 1751.7 61.094, 1751.04 60.534 Q 1750.4 59.974, 1749.22 59.974 M 1749.3 71.494 Q 1750.62 71.494, 1751.42 70.794 Q 1752.22 70.074, 1752.22 68.894 Q 1752.22 68.134, 1751.8 67.654 Q 1751.38 67.174, 1750.74 66.894 Q 1750.12 66.614, 1749 66.254 L 1748.1 65.954 Q 1747.1 66.554, 1746.66 67.274 Q 1746.22 67.974, 1746.22 68.894 Q 1746.22 70.074, 1747.06 70.794 Q 1747.9 71.494, 1749.3 71.494 " fill="#000000"/>
<path class="note" d="M 1664.2 146.711 Q 1666.72 146.711, 1667.98 148.431 Q 1669.26 150.131, 1669.26 153.531 Q 1669.26 157.291, 1667.68 159.251 Q 1666.12 161.191, 1663.1 161.191 Q 1662.22 161.191, 1661.46 160.991 Q 1660.72 160.791, 1660 160.371 L 1660.78 159.031 Q 1661.82 159.591, 1663.08 159.591 Q 1665.08 159.591, 1666.1 158.311 Q 1667.12 157.011, 1667.24 154.351 Q 1666.52 155.011, 1665.6 155.371 Q 1664.7 155.711, 1663.72 155.711 Q 1662.48 155.711, 1661.5 155.171 Q 1660.52 154.631, 1659.98 153.651 Q 1659.44 152.671, 1659.44 151.431 Q 1659.44 150.051, 1660.04 148.991 Q 1660.66 147.911, 1661.74 147.311 Q 1662.82 146.711, 1664.2 146.711 M 1661.44 151.411 Q 1661.44 152.671, 1662.14 153.391 Q 1662.84 154.111, 1664.08 154.111 Q 1664.94 154.111, 1665.78 153.771 Q 1666.64 153.411, 1667.24 152.811 Q 1667.16 150.471, 1666.42 149.411 Q 1665.68 148.351, 1664.18 148.351 Q 1663.42 148.351, 1662.78 148.751 Q 1662.16 149.151, 1661.8 149.851 Q 1661.44 150.551, 1661.44 151.411 " fill="#000000"/>
<path class="note" d="M 1671.26 289.704 L 1674.36 289.704 L 1674.36 279.124 L 1670.94 280.184 L 1670.48 279.004 L 1674.82 277.064 L 1676.24 277.304 L 1676.24 289.704 L 1679.02 289.704 L 1679.02 291.304 L 1671.26 291.304 L 1671.26 289.704 " fill="#000000"/>
<path class="note" d="M 1685.42 291.464 Q 1682.82 291.464, 1681.52 289.544 Q 1680.24 287.624, 1680.24 284.204 Q 1680.24 280.784, 1681.52 278.884 Q 1682.8 276.984, 1685.42 276.984 Q 1688.04 276.984, 1689.32 278.884 Q 1690.6 280.784, 1690.6 284.204 Q 1690.6 287.624, 1689.3 289.544 Q 1688.02 291.464, 1685.42 291.464 M 1685.42 289.864 Q 1686.96 289.864, 1687.78 288.444 Q 1688.6 287.004, 1688.6 284.204 Q 1688.6 281.424, 1687.78 280.004 Q 1686.96 278.584, 1685.42 278.584 Q 1683.9 278.584, 1683.06 280.004 Q 1682.24 281.424, 1682.24 284.204 Q 1682.24 287.004, 1683.06 288.444 Q 1683.9 289.864, 1685.42 289.864 " fill="#000000"/>
<path class="note" d="M 1589.41 385.661 L 1592.51 385.661 L 1592.51 375.081 L 1589.09 376.141 L 1588.63 374.961 L 1592.97 373.021 L 1594.39 373.261 L 1594.39 385.661 L 1597.17 385.661 L 1597.17 387.261 L 1589.41 387.261 L 1589.41 385.661 " fill="#000000"/>
<path class="note" d="M 1599.03 385.661 L 1602.13 385.661 L 1602.13 375.081 L 1598.71 376.141 L 1598.25 374.961 L 1602.59 373.021 L 1604.01 373.261 L 1604.01 385.661 L 1606.79 385.661 L 1606.79 387.261 L 1599.03 387.261 L 1599.03 385.661 " fill="#000000"/>
<path class="note" d="M 1473.39 295.798 L 1476.49 295.798 L 1476.49 285.218 L 1473.07 286.278 L 1472.61 285.098 L 1476.95 283.158 L 1478.37 283.398 L 1478.37 295.798 L 1481.15 295.798 L 1481.15 297.398 L 1473.39 297.398 L 1473.39 295.798 " fill="#000000"/>
<path class="note" d="M 1482.19 285.918 Q 1482.71 284.578, 1483.95 283.838 Q 1485.19 283.078, 1486.91 283.078 Q 1489.05 283.078, 1490.25 284.238 Q 1491.45 285.398, 1491.45 287.458 Q 1491.45 289.558, 1489.89 291.518 Q 1488.35 293.478, 1485.15 295.798 L 1491.69 295.798 L 1491.69 297.398 L 1482.15 297.398 L 1482.15 296.058 Q 1484.79 294.178, 1486.35 292.778 Q 1487.93 291.378, 1488.69 290.118 Q 1489.45 288.858, 1489.45 287.558 Q 1489.45 286.198, 1488.77 285.438 Q 1488.09 284.678, 1486.91 284.678 Q 1485.77 284.678, 1485.01 285.138 Q 1484.25 285.598, 1483.71 286.618 L 1482.19 285.918 " fill="#000000"/>
<path class="note" d="M 1523.28 158.117 L 1526.38 158.117 L 1526.38 147.537 L 1522.96 148.597 L 1522.5 147.417 L 1526.84 145.477 L 1528.26 145.717 L 1528.26 158.117 L 1531.04 158.117 L 1531.04 159.717 L 1523.28 159.717 L 1523.28 158.117 " fill="#000000"/>
<path class="note" d="M 1538.68 152.257 Q 1540.06 152.657, 1540.72 153.557 Q 1541.4 154.437, 1541.4 155.837 Q 1541.4 157.037, 1540.8 157.977 Q 1540.2 158.897, 1539.1 159.417 Q 1538 159.917, 1536.56 159.917 Q 1535.04 159.917, 1533.9 159.397 Q 1532.78 158.857, 1531.88 157.777 L 1533.02 156.617 Q 1533.9 157.577, 1534.64 157.957 Q 1535.38 158.317, 1536.56 158.317 Q 1537.84 158.317, 1538.62 157.637 Q 1539.4 156.937, 1539.4 155.817 Q 1539.4 154.377, 1538.58 153.737 Q 1537.78 153.077, 1536.04 153.077 L 1535.02 153.077 L 1535.02 151.637 L 1535.92 151.637 Q 1537.46 151.617, 1538.28 150.957 Q 1539.1 150.277, 1539.1 149.017 Q 1539.1 148.097, 1538.42 147.557 Q 1537.74 146.997, 1536.58 146.997 Q 1535.4 146.997, 1534.66 147.417 Q 1533.94 147.837, 1533.38 148.897 L 1532 148.157 Q 1532.5 146.977, 1533.7 146.197 Q 1534.9 145.397, 1536.58 145.397 Q 1538.66 145.397, 1539.88 146.377 Q 1541.1 147.357, 1541.1 149.017 Q 1541.1 150.157, 1540.48 150.977 Q 1539.86 151.797, 1538.68 152.257 " fill="#000000"/>
<path class="note" d="M 3209.96 351.982 L 3213.06 351.982 L 3213.06 341.402 L 3209.64 342.462 L 3209.18 341.282 L 3213.52 339.342 L 3214.94 339.582 L 3214.94 351.982 L 3217.72 351.982 L 3217.72 353.582 L 3209.96 353.582 L 3209.96 351.982 " fill="#000000"/>
<path class="note" d="M 3098.3 299.142 Q 3098.82 297.802, 3100.06 297.062 Q 3101.3 296.302, 3103.02 296.302 Q 3105.16 296.302, 3106.36 297.462 Q 3107.56 298.622, 3107.56 300.682 Q 3107.56 302.782, 3106 304.742 Q 3104.46 306.702, 3101.26 309.022 L 3107.8 309.022 L 3107.8 310.622 L 3098.26 310.622 L 3098.26 309.282 Q 3100.9 307.402, 3102.46 306.002 Q 3104.04 304.602, 3104.8 303.342 Q 3105.56 302.082, 3105.56 300.782 Q 3105.56 299.422, 3104.88 298.662 Q 3104.2 297.902, 3103.02 297.902 Q 3101.88 297.902, 3101.12 298.362 Q 3100.36 298.822, 3099.82 299.842 L 3098.3 299.142 " fill="#000000"/>
<path class="note" d="M 3137.01 122.327 Q 3138.39 122.727, 3139.05 123.627 Q 3139.73 124.507, 3139.73 125.907 Q 3139.73 127.107, 3139.13 128.047 Q 3138.53 128.967, 3137.43 129.487 Q 3136.33 129.987, 3134.89 129.987 Q 3133.37 129.987, 3132.23 129.467 Q 3131.11 128.927, 3130.21 127.847 L 3131.35 126.687 Q 3132.23 127.647, 3132.97 128.027 Q 3133.71 128.387, 3134.89 128.387 Q 3136.17 128.387, 3136.95 127.707 Q 3137.73 127.007, 3137.73 125.887 Q 3137.73 124.447, 3136.91 123.807 Q 3136.11 123.147, 3134.37 123.147 L 3133.35 123.147 L 3133.35 121.707 L 3134.25 121.707 Q 3135.79 121.687, 3136.61 121.027 Q 3137.43 120.347, 3137.43 119.087 Q 3137.43 118.167, 3136.75 117.627 Q 3136.07 117.067, 3134.91 117.067 Q 3133.73 117.067, 3132.99 117.487 Q 3132.27 117.907, 3131.71 118.967 L 3130.33 118.227 Q 3130.83 117.047, 3132.03 116.267 Q 3133.23 115.467, 3134.91 115.467 Q 3136.99 115.467, 3138.21 116.447 Q 3139.43 117.427, 3139.43 119.087 Q 3139.43 120.227, 3138.81 121.047 Q 3138.19 121.867, 3137.01 122.327 " fill="#000000"/>
<path class="note" d="M 3026.53 353.666 L 3028.23 353.666 L 3028.23 355.266 L 3026.53 355.266 L 3026.53 358.526 L 3024.65 358.526 L 3024.65 355.266 L 3017.33 355.266 L 3017.33 354.006 L 3023.53 344.366 L 3026.53 344.366 L 3026.53 353.666 M 3019.65 353.666 L 3024.65 353.666 L 3024.65 345.646 L 3019.65 353.666 " fill="#000000"/>
<path class="note" d="M 2917.29 237.734 Q 2918.53 237.734, 2919.55 238.274 Q 2920.57 238.794, 2921.15 239.794 Q 2921.73 240.774, 2921.73 242.114 Q 2921.73 243.574, 2921.01 244.634 Q 2920.31 245.674, 2919.15 246.214 Q 2917.99 246.754, 2916.67 246.754 Q 2915.37 246.754, 2914.17 246.274 Q 2912.97 245.794, 2912.15 244.874 L 2913.35 243.634 Q 2914.01 244.354, 2914.91 244.754 Q 2915.81 245.134, 2916.73 245.134 Q 2917.99 245.134, 2918.85 244.354 Q 2919.73 243.574, 2919.73 242.154 Q 2919.73 240.654, 2918.85 239.954 Q 2917.99 239.234, 2916.61 239.234 Q 2915.37 239.234, 2913.99 239.774 L 2912.89 239.254 L 2913.57 232.434 L 2920.85 232.434 L 2920.65 234.034 L 2915.21 234.034 L 2914.79 238.234 Q 2916.05 237.734, 2917.29 237.734 " fill="#000000"/>
<path class="note" d="M 2938.86 117.278 Q 2940.1 117.278, 2941.08 117.818 Q 2942.06 118.358, 2942.6 119.338 Q 2943.14 120.318, 2943.14 121.558 Q 2943.14 122.938, 2942.52 124.018 Q 2941.92 125.078, 2940.84 125.678 Q 2939.76 126.278, 2938.38 126.278 Q 2935.86 126.278, 2934.58 124.578 Q 2933.32 122.858, 2933.32 119.458 Q 2933.32 115.698, 2934.88 113.758 Q 2936.46 111.798, 2939.48 111.798 Q 2940.36 111.798, 2941.1 111.998 Q 2941.86 112.198, 2942.58 112.618 L 2941.8 113.958 Q 2940.76 113.398, 2939.5 113.398 Q 2937.5 113.398, 2936.48 114.698 Q 2935.46 115.978, 2935.34 118.638 Q 2936.06 117.978, 2936.96 117.638 Q 2937.88 117.278, 2938.86 117.278 M 2938.4 124.638 Q 2939.16 124.638, 2939.78 124.238 Q 2940.42 123.838, 2940.78 123.138 Q 2941.14 122.438, 2941.14 121.578 Q 2941.14 120.318, 2940.44 119.598 Q 2939.74 118.878, 2938.5 118.878 Q 2937.64 118.878, 2936.78 119.238 Q 2935.94 119.578, 2935.34 120.178 Q 2935.42 122.518, 2936.16 123.578 Q 2936.9 124.638, 2938.4 124.638 " fill="#000000"/>
<path class="note" d="M 2831.57 21.639 L 2824.15 21.639 L 2824.15 20.039 L 2833.55 20.039 L 2833.55 21.459 L 2827.83 34.199 L 2825.91 34.199 L 2831.57 21.639 " fill="#000000"/>
<path class="note" d="M 2696.84 75.5893 Q 2698.14 76.1493, 2698.88 76.9893 Q 2699.62 77.8093, 2699.62 79.2093 Q 2699.62 80.4093, 2699 81.3493 Q 2698.38 82.2693, 2697.26 82.7893 Q 2696.16 83.2893, 2694.7 83.2893 Q 2692.34 83.2893, 2690.98 82.2093 Q 2689.62 81.1093, 2689.62 79.2093 Q 2689.62 78.0493, 2690.22 77.1893 Q 2690.82 76.3093, 2692.06 75.6493 Q 2691.14 75.1293, 2690.64 74.3693 Q 2690.14 73.5893, 2690.14 72.3893 Q 2690.14 70.7293, 2691.34 69.7493 Q 2692.56 68.7693, 2694.62 68.7693 Q 2696.68 68.7693, 2697.88 69.7493 Q 2699.1 70.7293, 2699.1 72.3893 Q 2699.1 73.4293, 2698.52 74.2093 Q 2697.96 74.9693, 2696.84 75.5893 M 2694.62 70.2693 Q 2693.44 70.2693, 2692.78 70.8293 Q 2692.14 71.3893, 2692.14 72.3893 Q 2692.14 73.1293, 2692.58 73.6293 Q 2693.02 74.1093, 2693.64 74.3893 Q 2694.28 74.6693, 2695.5 75.0893 Q 2696.36 74.4893, 2696.72 73.8493 Q 2697.1 73.2093, 2697.1 72.3893 Q 2697.1 71.3893, 2696.44 70.8293 Q 2695.8 70.2693, 2694.62 70.2693 M 2694.7 81.7893 Q 2696.02 81.7893, 2696.82 81.0893 Q 2697.62 80.3693, 2697.62 79.1893 Q 2697.62 78.4293, 2697.2 77.9493 Q 2696.78 77.4693, 2696.14 77.1893 Q 2695.52 76.9093, 2694.4 76.5493 L 2693.5 76.2493 Q 2692.5 76.8493, 2692.06 77.5693 Q 2691.62 78.2693, 2691.62 79.1893 Q 2691.62 80.3693, 2692.46 81.0893 Q 2693.3 81.7893, 2694.7 81.7893 " fill="#000000"/>
<path class="note" d="M 2673.18 189.326 Q 2675.7 189.326, 2676.96 191.046 Q 2678.24 192.746, 2678.24 196.146 Q 2678.24 199.906, 2676.66 201.866 Q 2675.1 203.806, 2672.08 203.806 Q 2671.2 203.806, 2670.44 203.606 Q 2669.7 203.406, 2668.98 202.986 L 2669.76 201.646 Q 2670.8 202.206, 2672.06 202.206 Q 2674.06 202.206, 2675.08 200.926 Q 2676.1 199.626, 2676.22 196.966 Q 2675.5 197.626, 2674.58 197.986 Q 2673.68 198.326, 2672.7 198.326 Q 2671.46 198.326, 2670.48 197.786 Q 2669.5 197.246, 2668.96 196.266 Q 2668.42 195.286, 2668.42 194.046 Q 2668.42 192.666, 2669.02 191.606 Q 2669.64 190.526, 2670.72 189.926 Q 2671.8 189.326, 2673.18 189.326 M 2670.42 194.026 Q 2670.42 195.286, 2671.12 196.006 Q 2671.82 196.726, 2673.06 196.726 Q 2673.92 196.726, 2674.76 196.386 Q 2675.62 196.026, 2676.22 195.426 Q 2676.14 193.086, 2675.4 192.026 Q 2674.66 190.966, 2673.16 190.966 Q 2672.4 190.966, 2671.76 191.366 Q 2671.14 191.766, 2670.78 192.466 Q 2670.42 193.166, 2670.42 194.026 " fill="#000000"/>
<path class="note" d="M 2749.36 298.815 L 2752.46 298.815 L 2752.46 288.235 L 2749.04 289.295 L 2748.58 288.115 L 2752.92 286.175 L 2754.34 286.415 L 2754.34 298.815 L 2757.12 298.815 L 2757.12 300.415 L 2749.36 300.415 L 2749.36 298.815 " fill="#000000"/>
<path class="note" d="M 2763.52 300.575 Q 2760.92 300.575, 2759.62 298.655 Q 2758.34 296.735, 2758.34 293.315 Q 2758.34 289.895, 2759.62 287.995 Q 2760.9 286.095, 2763.52 286.095 Q 2766.14 286.095, 2767.42 287.995 Q 2768.7 289.895, 2768.7 293.315 Q 2768.7 296.735, 2767.4 298.655 Q 2766.12 300.575, 2763.52 300.575 M 2763.52 298.975 Q 2765.06 298.975, 2765.88 297.555 Q 2766.7 296.115, 2766.7 293.315 Q 2766.7 290.535, 2765.88 289.115 Q 2765.06 287.695, 2763.52 287.695 Q 2762 287.695, 2761.16 289.115 Q 2760.34 290.535, 2760.34 293.315 Q 2760.34 296.115, 2761.16 297.555 Q 2762 298.975, 2763.52 298.975 " fill="#000000"/>
<path class="note" d="M 2735.06 424.646 L 2738.16 424.646 L 2738.16 414.066 L 2734.74 415.126 L 2734.28 413.946 L 2738.62 412.006 L 2740.04 412.246 L 2740.04 424.646 L 2742.82 424.646 L 2742.82 426.246 L 2735.06 426.246 L 2735.06 424.646 " fill="#000000"/>
<path class="note" d="M 2744.68 424.646 L 2747.78 424.646 L 2747.78 414.066 L 2744.36 415.126 L 2743.9 413.946 L 2748.24 412.006 L 2749.66 412.246 L 2749.66 424.646 L 2752.44 424.646 L 2752.44 426.246 L 2744.68 426.246 L 2744.68 424.646 " fill="#000000"/>
<path class="note" d="M 2588.55 414.43 L 2591.65 414.43 L 2591.65 403.85 L 2588.23 404.91 L 2587.77 403.73 L 2592.11 401.79 L 2593.53 402.03 L 2593.53 414.43 L 2596.31 414.43 L 2596.31 416.03 L 2588.55 416.03 L 2588.55 414.43 " fill="#000000"/>
<path class="note" d="M 2597.35 404.55 Q 2597.87 403.21, 2599.11 402.47 Q 2600.35 401.71, 2602.07 401.71 Q 2604.21 401.71, 2605.41 402.87 Q 2606.61 404.03, 2606.61 406.09 Q 2606.61 408.19, 2605.05 410.15 Q 2603.51 412.11, 2600.31 414.43 L 2606.85 414.43 L 2606.85 416.03 L 2597.31 416.03 L 2597.31 414.69 Q 2599.95 412.81, 2601.51 411.41 Q 2603.09 410.01, 2603.85 408.75 Q 2604.61 407.49, 2604.61 406.19 Q 2604.61 404.83, 2603.93 404.07 Q 2603.25 403.31, 2602.07 403.31 Q 2600.93 403.31, 2600.17 403.77 Q 2599.41 404.23, 2598.87 405.25 L 2597.35 404.55 " fill="#000000"/>
<path class="note" d="M 2553.26 272.36 L 2556.36 272.36 L 2556.36 261.78 L 2552.94 262.84 L 2552.48 261.66 L 2556.82 259.72 L 2558.24 259.96 L 2558.24 272.36 L 2561.02 272.36 L 2561.02 273.96 L 2553.26 273.96 L 2553.26 272.36 " fill="#000000"/>
<path class="note" d="M 2568.66 266.5 Q 2570.04 266.9, 2570.7 267.8 Q 2571.38 268.68, 2571.38 270.08 Q 2571.38 271.28, 2570.78 272.22 Q 2570.18 273.14, 2569.08 273.66 Q 2567.98 274.16, 2566.54 274.16 Q 2565.02 274.16, 2563.88 273.64 Q 2562.76 273.1, 2561.86 272.02 L 2563 270.86 Q 2563.88 271.82, 2564.62 272.2 Q 2565.36 272.56, 2566.54 272.56 Q 2567.82 272.56, 2568.6 271.88 Q 2569.38 271.18, 2569.38 270.06 Q 2569.38 268.62, 2568.56 267.98 Q 2567.76 267.32, 2566.02 267.32 L 2565 267.32 L 2565 265.88 L 2565.9 265.88 Q 2567.44 265.86, 2568.26 265.2 Q 2569.08 264.52, 2569.08 263.26 Q 2569.08 262.34, 2568.4 261.8 Q 2567.72 261.24, 2566.56 261.24 Q 2565.38 261.24, 2564.64 261.66 Q 2563.92 262.08, 2563.36 263.14 L 2561.98 262.4 Q 2562.48 261.22, 2563.68 260.44 Q 2564.88 259.64, 2566.56 259.64 Q 2568.64 259.64, 2569.86 260.62 Q 2571.08 261.6, 2571.08 263.26 Q 2571.08 264.4, 2570.46 265.22 Q 2569.84 266.04, 2568.66 266.5 " fill="#000000"/>
<path d="M 1332.27 244.462 L 1338.32 244.462 L 1338.32 238.094 L 1341.01 238.094 L 1341.01 244.462 L 1347.22 244.462 L 1347.22 246.766 L 1341.01 246.766 L 1341.01 253.166 L 1338.32 253.166 L 1338.32 246.766 L 1332.27 246.766 L 1332.27 244.462 " fill="#000000"/>
<path d="M 2052.01,246.766 L 2378.47,246.766" style="fill:none;fill-rule:evenodd;stroke:#000000;stroke-width:2.0px;stroke-linecap:butt;stroke-linejoin:miter;stroke-opacity:1"/>
<path d="M 2378.47,246.766 L 2364.33,238.605" style="fill:none;fill-rule:evenodd;stroke:#000000;stroke-width:2.0px;stroke-linecap:butt;stroke-linejoin:miter;stroke-opacity:1"/>
<path d="M 2378.47,246.766 L 2364.33,254.928" style="fill:none;fill-rule:evenodd;stroke:#000000;stroke-width:2.0px;stroke-linecap:butt;stroke-linejoin:miter;stroke-opacity:1"/>
</svg>