<svg xmlns="http://www.w3.org/2000/svg" xmlns:rdkit="http://www.rdkit.org/xml" xmlns:xlink="http://www.w3.org/1999/xlink" version="1.1" baseProfile="full" xml:space="preserve" width="4000px" height="500px" viewBox="0 0 4000 500">
<!-- END OF HEADER -->
<rect style="opacity:1.0;fill:#FFFFFF;stroke:none" width="4000" height="500" x="0" y="0"> </rect>
<path d="M 1054.07,334.09 L 1054.07,247.802" style="fill:none;fill-rule:evenodd;stroke:#FFFFAA;stroke-width:18.4px;stroke-linecap:butt;stroke-linejoin:miter;stroke-opacity:1"/>
<path d="M 1054.07,247.802 L 979.345,204.658" style="fill:none;fill-rule:evenodd;stroke:#FFFFAA;stroke-width:18.4px;stroke-linecap:butt;stroke-linejoin:miter;stroke-opacity:1"/>
<path d="M 1054.07,247.802 L 1128.8,204.658" style="fill:none;fill-rule:evenodd;stroke:#FFFFAA;stroke-width:18.4px;stroke-linecap:butt;stroke-linejoin:miter;stroke-opacity:1"/>
<path d="M 1128.8,204.658 L 1203.53,247.802" style="fill:none;fill-rule:evenodd;stroke:#FFFFAA;stroke-width:18.4px;stroke-linecap:butt;stroke-linejoin:miter;stroke-opacity:1"/>
<path d="M 1203.53,247.802 L 1203.53,334.09" style="fill:none;fill-rule:evenodd;stroke:#FFFFAA;stroke-width:18.4px;stroke-linecap:butt;stroke-linejoin:miter;stroke-opacity:1"/>
<path d="M 1203.53,247.802 L 1278.25,204.658" style="fill:none;fill-rule:evenodd;stroke:#FFFFAA;stroke-width:18.4px;stroke-linecap:butt;stroke-linejoin:miter;stroke-opacity:1"/>
<path d="M 1754.23,253.966 L 1667.94,253.966" style="fill:none;fill-rule:evenodd;stroke:#FFCC99;stroke-width:18.4px;stroke-linecap:butt;stroke-linejoin:miter;stroke-opacity:1"/>
<path d="M 1667.94,253.966 L 1624.8,328.693" style="fill:none;fill-rule:evenodd;stroke:#FFCC99;stroke-width:18.4px;stroke-linecap:butt;stroke-linejoin:miter;stroke-opacity:1"/>
<path d="M 1667.94,253.966 L 1624.8,179.238" style="fill:none;fill-rule:evenodd;stroke:#FFCC99;stroke-width:18.4px;stroke-linecap:butt;stroke-linejoin:miter;stroke-opacity:1"/>
<path d="M 1624.8,328.693 L 1538.51,328.693" style="fill:none;fill-rule:evenodd;stroke:#FFCC99;stroke-width:18.4px;stroke-linecap:butt;stroke-linejoin:miter;stroke-opacity:1"/>
<path d="M 1538.51,328.693 L 1495.37,253.966" style="fill:none;fill-rule:evenodd;stroke:#FFCC99;stroke-width:18.4px;stroke-linecap:butt;stroke-linejoin:miter;stroke-opacity:1"/>
<path d="M 1495.37,253.966 L 1538.51,179.238" style="fill:none;fill-rule:evenodd;stroke:#FFCC99;stroke-width:18.4px;stroke-linecap:butt;stroke-linejoin:miter;stroke-opacity:1"/>
<path d="M 1538.51,179.238 L 1624.8,179.238" style="fill:none;fill-rule:evenodd;stroke:#FFCC99;stroke-width:18.4px;stroke-linecap:butt;stroke-linejoin:miter;stroke-opacity:1"/>
<path d="M 2477.53,135.342 L 2529.25,204.407" style="fill:none;fill-rule:evenodd;stroke:#FFFFAA;stroke-width:18.4px;stroke-linecap:butt;stroke-linejoin:miter;stroke-opacity:1"/>
<path d="M 2495.3,283.736 L 2409.63,294" style="fill:none;fill-rule:evenodd;stroke:#FFCC99;stroke-width:18.4px;stroke-linecap:butt;stroke-linejoin:miter;stroke-opacity:1"/>
<path d="M 2409.63,294 L 2357.9,224.936" style="fill:none;fill-rule:evenodd;stroke:#FFCC99;stroke-width:18.4px;stroke-linecap:butt;stroke-linejoin:miter;stroke-opacity:1"/>
<path d="M 2409.63,294 L 2375.68,373.329" style="fill:none;fill-rule:evenodd;stroke:#FFCC99;stroke-width:18.4px;stroke-linecap:butt;stroke-linejoin:miter;stroke-opacity:1"/>
<path d="M 2357.9,224.936 L 2272.23,235.2" style="fill:none;fill-rule:evenodd;stroke:#FFCC99;stroke-width:18.4px;stroke-linecap:butt;stroke-linejoin:miter;stroke-opacity:1"/>
<path d="M 2272.23,235.2 L 2238.28,314.529" style="fill:none;fill-rule:evenodd;stroke:#FFCC99;stroke-width:18.4px;stroke-linecap:butt;stroke-linejoin:miter;stroke-opacity:1"/>
<path d="M 2238.28,314.529 L 2290.01,383.594" style="fill:none;fill-rule:evenodd;stroke:#FFCC99;stroke-width:18.4px;stroke-linecap:butt;stroke-linejoin:miter;stroke-opacity:1"/>
<path d="M 2290.01,383.594 L 2375.68,373.329" style="fill:none;fill-rule:evenodd;stroke:#FFCC99;stroke-width:18.4px;stroke-linecap:butt;stroke-linejoin:miter;stroke-opacity:1"/>
<path d="M 2734.55,104.549 L 2648.88,114.813" style="fill:none;fill-rule:evenodd;stroke:#FFFFAA;stroke-width:18.4px;stroke-linecap:butt;stroke-linejoin:miter;stroke-opacity:1"/>
<ellipse cx="1054.07" cy="334.28" rx="17.2575" ry="17.743" style="fill:#FFFFAA;fill-rule:evenodd;stroke:#FFFFAA;stroke-width:1px;stroke-linecap:butt;stroke-linejoin:miter;stroke-opacity:1"/>
<ellipse cx="1054.07" cy="247.802" rx="17.2575" ry="17.2575" style="fill:#FFFFAA;fill-rule:evenodd;stroke:#FFFFAA;stroke-width:1px;stroke-linecap:butt;stroke-linejoin:miter;stroke-opacity:1"/>
<ellipse cx="979.345" cy="204.658" rx="17.2575" ry="17.2575" style="fill:#FFFFAA;fill-rule:evenodd;stroke:#FFFFAA;stroke-width:1px;stroke-linecap:butt;stroke-linejoin:miter;stroke-opacity:1"/>
<ellipse cx="1128.8" cy="204.848" rx="17.2575" ry="17.743" style="fill:#FFFFAA;fill-rule:evenodd;stroke:#FFFFAA;stroke-width:1px;stroke-linecap:butt;stroke-linejoin:miter;stroke-opacity:1"/>
<ellipse cx="1203.53" cy="247.802" rx="17.2575" ry="17.2575" style="fill:#FFFFAA;fill-rule:evenodd;stroke:#FFFFAA;stroke-width:1px;stroke-linecap:butt;stroke-linejoin:miter;stroke-opacity:1"/>
<ellipse cx="1203.53" cy="334.28" rx="17.2575" ry="17.743" style="fill:#FFFFAA;fill-rule:evenodd;stroke:#FFFFAA;stroke-width:1px;stroke-linecap:butt;stroke-linejoin:miter;stroke-opacity:1"/>
<ellipse cx="1278.25" cy="204.658" rx="17.2575" ry="17.2575" style="fill:#FFFFAA;fill-rule:evenodd;stroke:#FFFFAA;stroke-width:1px;stroke-linecap:butt;stroke-linejoin:miter;stroke-opacity:1"/>
<ellipse cx="1765.26" cy="254.155" rx="31.4591" ry="17.743" style="fill:#FFCC99;fill-rule:evenodd;stroke:#FFCC99;stroke-width:1px;stroke-linecap:butt;stroke-linejoin:miter;stroke-opacity:1"/>
<ellipse cx="1667.94" cy="253.966" rx="17.2575" ry="17.2575" style="fill:#FFCC99;fill-rule:evenodd;stroke:#FFCC99;stroke-width:1px;stroke-linecap:butt;stroke-linejoin:miter;stroke-opacity:1"/>
<ellipse cx="1624.8" cy="328.693" rx="17.2575" ry="17.2575" style="fill:#FFCC99;fill-rule:evenodd;stroke:#FFCC99;stroke-width:1px;stroke-linecap:butt;stroke-linejoin:miter;stroke-opacity:1"/>
<ellipse cx="1538.51" cy="328.693" rx="17.2575" ry="17.2575" style="fill:#FFCC99;fill-rule:evenodd;stroke:#FFCC99;stroke-width:1px;stroke-linecap:butt;stroke-linejoin:miter;stroke-opacity:1"/>
<ellipse cx="1495.37" cy="253.966" rx="17.2575" ry="17.2575" style="fill:#FFCC99;fill-rule:evenodd;stroke:#FFCC99;stroke-width:1px;stroke-linecap:butt;stroke-linejoin:miter;stroke-opacity:1"/>
<ellipse cx="1538.51" cy="179.238" rx="17.2575" ry="17.2575" style="fill:#FFCC99;fill-rule:evenodd;stroke:#FFCC99;stroke-width:1px;stroke-linecap:butt;stroke-linejoin:miter;stroke-opacity:1"/>
<ellipse cx="1624.8" cy="179.238" rx="17.2575" ry="17.2575" style="fill:#FFCC99;fill-rule:evenodd;stroke:#FFCC99;stroke-width:1px;stroke-linecap:butt;stroke-linejoin:miter;stroke-opacity:1"/>
<ellipse cx="2477.53" cy="135.532" rx="17.2575" ry="17.743" style="fill:#FFFFAA;fill-rule:evenodd;stroke:#FFFFAA;stroke-width:1px;stroke-linecap:butt;stroke-linejoin:miter;stroke-opacity:1"/>
<ellipse cx="2529.25" cy="204.407" rx="17.2575" ry="17.2575" style="fill:#FFFFAA;fill-rule:evenodd;stroke:#FFFFAA;stroke-width:1px;stroke-linecap:butt;stroke-linejoin:miter;stroke-opacity:1"/>
<ellipse cx="2495.3" cy="283.926" rx="17.2575" ry="17.743" style="fill:#FFCC99;fill-rule:evenodd;stroke:#FFCC99;stroke-width:1px;stroke-linecap:butt;stroke-linejoin:miter;stroke-opacity:1"/>
<ellipse cx="2409.63" cy="294" rx="17.2575" ry="17.2575" style="fill:#FFCC99;fill-rule:evenodd;stroke:#FFCC99;stroke-width:1px;stroke-linecap:butt;stroke-linejoin:miter;stroke-opacity:1"/>
<ellipse cx="2357.9" cy="224.936" rx="17.2575" ry="17.2575" style="fill:#FFCC99;fill-rule:evenodd;stroke:#FFCC99;stroke-width:1px;stroke-linecap:butt;stroke-linejoin:miter;stroke-opacity:1"/>
<ellipse cx="2272.23" cy="235.2" rx="17.2575" ry="17.2575" style="fill:#FFCC99;fill-rule:evenodd;stroke:#FFCC99;stroke-width:1px;stroke-linecap:butt;stroke-linejoin:miter;stroke-opacity:1"/>
<ellipse cx="2238.28" cy="314.529" rx="17.2575" ry="17.2575" style="fill:#FFCC99;fill-rule:evenodd;stroke:#FFCC99;stroke-width:1px;stroke-linecap:butt;stroke-linejoin:miter;stroke-opacity:1"/>
<ellipse cx="2290.01" cy="383.594" rx="17.2575" ry="17.2575" style="fill:#FFCC99;fill-rule:evenodd;stroke:#FFCC99;stroke-width:1px;stroke-linecap:butt;stroke-linejoin:miter;stroke-opacity:1"/>
<ellipse cx="2375.68" cy="373.329" rx="17.2575" ry="17.2575" style="fill:#FFCC99;fill-rule:evenodd;stroke:#FFCC99;stroke-width:1px;stroke-linecap:butt;stroke-linejoin:miter;stroke-opacity:1"/>
<ellipse cx="2889.73" cy="311.742" rx="17.2575" ry="17.2575" style="fill:#FFFFAA;fill-rule:evenodd;stroke:#FFFFAA;stroke-width:1px;stroke-linecap:butt;stroke-linejoin:miter;stroke-opacity:1"/>
<ellipse cx="3009.35" cy="222.338" rx="17.2575" ry="17.743" style="fill:#FFFFAA;fill-rule:evenodd;stroke:#FFFFAA;stroke-width:1px;stroke-linecap:butt;stroke-linejoin:miter;stroke-opacity:1"/>
<ellipse cx="2871.95" cy="163.538" rx="17.2575" ry="17.743" style="fill:#FFFFAA;fill-rule:evenodd;stroke:#FFFFAA;stroke-width:1px;stroke-linecap:butt;stroke-linejoin:miter;stroke-opacity:1"/>
<ellipse cx="2734.55" cy="104.549" rx="17.2575" ry="17.2575" style="fill:#FFFFAA;fill-rule:evenodd;stroke:#FFFFAA;stroke-width:1px;stroke-linecap:butt;stroke-linejoin:miter;stroke-opacity:1"/>
<ellipse cx="2648.88" cy="114.813" rx="17.2575" ry="17.2575" style="fill:#FFFFAA;fill-rule:evenodd;stroke:#FFFFAA;stroke-width:1px;stroke-linecap:butt;stroke-linejoin:miter;stroke-opacity:1"/>
<path class="bond-0" d="M 1062.7,319.576 L 1062.7,283.689" style="fill:none;fill-rule:evenodd;stroke:#FF0000;stroke-width:2.0px;stroke-linecap:butt;stroke-linejoin:miter;stroke-opacity:1"/>
<path class="bond-0" d="M 1062.7,283.689 L 1062.7,247.802" style="fill:none;fill-rule:evenodd;stroke:#000000;stroke-width:2.0px;stroke-linecap:butt;stroke-linejoin:miter;stroke-opacity:1"/>
<path class="bond-0" d="M 1045.44,319.576 L 1045.44,283.689" style="fill:none;fill-rule:evenodd;stroke:#FF0000;stroke-width:2.0px;stroke-linecap:butt;stroke-linejoin:miter;stroke-opacity:1"/>
<path class="bond-0" d="M 1045.44,283.689 L 1045.44,247.802" style="fill:none;fill-rule:evenodd;stroke:#000000;stroke-width:2.0px;stroke-linecap:butt;stroke-linejoin:miter;stroke-opacity:1"/>
<path class="bond-1" d="M 1054.07,247.802 L 979.345,204.658" style="fill:none;fill-rule:evenodd;stroke:#000000;stroke-width:2.0px;stroke-linecap:butt;stroke-linejoin:miter;stroke-opacity:1"/>
<path class="bond-2" d="M 1054.07,247.802 L 1084.75,230.091" style="fill:none;fill-rule:evenodd;stroke:#000000;stroke-width:2.0px;stroke-linecap:butt;stroke-linejoin:miter;stroke-opacity:1"/>
<path class="bond-2" d="M 1084.75,230.091 L 1115.43,212.38" style="fill:none;fill-rule:evenodd;stroke:#FF0000;stroke-width:2.0px;stroke-linecap:butt;stroke-linejoin:miter;stroke-opacity:1"/>
<path class="bond-3" d="M 1142.17,212.38 L 1172.85,230.091" style="fill:none;fill-rule:evenodd;stroke:#FF0000;stroke-width:2.0px;stroke-linecap:butt;stroke-linejoin:miter;stroke-opacity:1"/>
<path class="bond-3" d="M 1172.85,230.091 L 1203.53,247.802" style="fill:none;fill-rule:evenodd;stroke:#000000;stroke-width:2.0px;stroke-linecap:butt;stroke-linejoin:miter;stroke-opacity:1"/>
<path class="bond-4" d="M 1194.9,247.802 L 1194.9,283.689" style="fill:none;fill-rule:evenodd;stroke:#000000;stroke-width:2.0px;stroke-linecap:butt;stroke-linejoin:miter;stroke-opacity:1"/>
<path class="bond-4" d="M 1194.9,283.689 L 1194.9,319.576" style="fill:none;fill-rule:evenodd;stroke:#FF0000;stroke-width:2.0px;stroke-linecap:butt;stroke-linejoin:miter;stroke-opacity:1"/>
<path class="bond-4" d="M 1212.16,247.802 L 1212.16,283.689" style="fill:none;fill-rule:evenodd;stroke:#000000;stroke-width:2.0px;stroke-linecap:butt;stroke-linejoin:miter;stroke-opacity:1"/>
<path class="bond-4" d="M 1212.16,283.689 L 1212.16,319.576" style="fill:none;fill-rule:evenodd;stroke:#FF0000;stroke-width:2.0px;stroke-linecap:butt;stroke-linejoin:miter;stroke-opacity:1"/>
<path class="bond-5" d="M 1203.53,247.802 L 1278.25,204.658" style="fill:none;fill-rule:evenodd;stroke:#000000;stroke-width:2.0px;stroke-linecap:butt;stroke-linejoin:miter;stroke-opacity:1"/>
<path class="bond-6" d="M 1740.85,253.966 L 1704.4,253.966" style="fill:none;fill-rule:evenodd;stroke:#FF0000;stroke-width:2.0px;stroke-linecap:butt;stroke-linejoin:miter;stroke-opacity:1"/>
<path class="bond-6" d="M 1704.4,253.966 L 1667.94,253.966" style="fill:none;fill-rule:evenodd;stroke:#000000;stroke-width:2.0px;stroke-linecap:butt;stroke-linejoin:miter;stroke-opacity:1"/>
<path class="bond-7" d="M 1667.94,253.966 L 1624.8,328.693" style="fill:none;fill-rule:evenodd;stroke:#000000;stroke-width:2.0px;stroke-linecap:butt;stroke-linejoin:miter;stroke-opacity:1"/>
<path class="bond-7" d="M 1646.52,256.546 L 1616.32,308.855" style="fill:none;fill-rule:evenodd;stroke:#000000;stroke-width:2.0px;stroke-linecap:butt;stroke-linejoin:miter;stroke-opacity:1;stroke-dasharray:6,6"/>
<path class="bond-12" d="M 1667.94,253.966 L 1624.8,179.238" style="fill:none;fill-rule:evenodd;stroke:#000000;stroke-width:2.0px;stroke-linecap:butt;stroke-linejoin:miter;stroke-opacity:1"/>
<path class="bond-12" d="M 1646.52,251.385 L 1616.32,199.076" style="fill:none;fill-rule:evenodd;stroke:#000000;stroke-width:2.0px;stroke-linecap:butt;stroke-linejoin:miter;stroke-opacity:1;stroke-dasharray:6,6"/>
<path class="bond-8" d="M 1624.8,328.693 L 1538.51,328.693" style="fill:none;fill-rule:evenodd;stroke:#000000;stroke-width:2.0px;stroke-linecap:butt;stroke-linejoin:miter;stroke-opacity:1"/>
<path class="bond-8" d="M 1611.85,311.435 L 1551.45,311.435" style="fill:none;fill-rule:evenodd;stroke:#000000;stroke-width:2.0px;stroke-linecap:butt;stroke-linejoin:miter;stroke-opacity:1;stroke-dasharray:6,6"/>
<path class="bond-9" d="M 1538.51,328.693 L 1495.37,253.966" style="fill:none;fill-rule:evenodd;stroke:#000000;stroke-width:2.0px;stroke-linecap:butt;stroke-linejoin:miter;stroke-opacity:1"/>
<path class="bond-9" d="M 1546.98,308.855 L 1516.78,256.546" style="fill:none;fill-rule:evenodd;stroke:#000000;stroke-width:2.0px;stroke-linecap:butt;stroke-linejoin:miter;stroke-opacity:1;stroke-dasharray:6,6"/>
<path class="bond-10" d="M 1495.37,253.966 L 1538.51,179.238" style="fill:none;fill-rule:evenodd;stroke:#000000;stroke-width:2.0px;stroke-linecap:butt;stroke-linejoin:miter;stroke-opacity:1"/>
<path class="bond-10" d="M 1516.78,251.385 L 1546.98,199.076" style="fill:none;fill-rule:evenodd;stroke:#000000;stroke-width:2.0px;stroke-linecap:butt;stroke-linejoin:miter;stroke-opacity:1;stroke-dasharray:6,6"/>
<path class="bond-11" d="M 1538.51,179.238 L 1624.8,179.238" style="fill:none;fill-rule:evenodd;stroke:#000000;stroke-width:2.0px;stroke-linecap:butt;stroke-linejoin:miter;stroke-opacity:1"/>
<path class="bond-11" d="M 1551.45,196.496 L 1611.85,196.496" style="fill:none;fill-rule:evenodd;stroke:#000000;stroke-width:2.0px;stroke-linecap:butt;stroke-linejoin:miter;stroke-opacity:1;stroke-dasharray:6,6"/>
<path class="bond-13" d="M 2481.77,155.408 L 2502.06,182.494" style="fill:none;fill-rule:evenodd;stroke:#FF0000;stroke-width:2.0px;stroke-linecap:butt;stroke-linejoin:miter;stroke-opacity:1"/>
<path class="bond-13" d="M 2502.06,182.494 L 2522.35,209.579" style="fill:none;fill-rule:evenodd;stroke:#000000;stroke-width:2.0px;stroke-linecap:butt;stroke-linejoin:miter;stroke-opacity:1"/>
<path class="bond-13" d="M 2495.59,145.063 L 2515.87,172.148" style="fill:none;fill-rule:evenodd;stroke:#FF0000;stroke-width:2.0px;stroke-linecap:butt;stroke-linejoin:miter;stroke-opacity:1"/>
<path class="bond-13" d="M 2515.87,172.148 L 2536.16,199.234" style="fill:none;fill-rule:evenodd;stroke:#000000;stroke-width:2.0px;stroke-linecap:butt;stroke-linejoin:miter;stroke-opacity:1"/>
<path class="bond-14" d="M 2529.25,204.407 L 2515.38,236.814" style="fill:none;fill-rule:evenodd;stroke:#000000;stroke-width:2.0px;stroke-linecap:butt;stroke-linejoin:miter;stroke-opacity:1"/>
<path class="bond-14" d="M 2515.38,236.814 L 2501.52,269.222" style="fill:none;fill-rule:evenodd;stroke:#FF0000;stroke-width:2.0px;stroke-linecap:butt;stroke-linejoin:miter;stroke-opacity:1"/>
<path class="bond-21" d="M 2529.25,204.407 L 2574.77,198.953" style="fill:none;fill-rule:evenodd;stroke:#000000;stroke-width:2.0px;stroke-linecap:butt;stroke-linejoin:miter;stroke-opacity:1"/>
<path class="bond-15" d="M 2481.93,285.338 L 2445.78,289.669" style="fill:none;fill-rule:evenodd;stroke:#FF0000;stroke-width:2.0px;stroke-linecap:butt;stroke-linejoin:miter;stroke-opacity:1"/>
<path class="bond-15" d="M 2445.78,289.669 L 2409.63,294" style="fill:none;fill-rule:evenodd;stroke:#000000;stroke-width:2.0px;stroke-linecap:butt;stroke-linejoin:miter;stroke-opacity:1"/>
<path class="bond-16" d="M 2409.63,294 L 2357.9,224.936" style="fill:none;fill-rule:evenodd;stroke:#000000;stroke-width:2.0px;stroke-linecap:butt;stroke-linejoin:miter;stroke-opacity:1"/>
<path class="bond-16" d="M 2388.06,293.986 L 2351.85,245.641" style="fill:none;fill-rule:evenodd;stroke:#000000;stroke-width:2.0px;stroke-linecap:butt;stroke-linejoin:miter;stroke-opacity:1;stroke-dasharray:6,6"/>
<path class="bond-36" d="M 2409.63,294 L 2375.68,373.329" style="fill:none;fill-rule:evenodd;stroke:#000000;stroke-width:2.0px;stroke-linecap:butt;stroke-linejoin:miter;stroke-opacity:1"/>
<path class="bond-36" d="M 2388.67,299.11 L 2364.91,354.64" style="fill:none;fill-rule:evenodd;stroke:#000000;stroke-width:2.0px;stroke-linecap:butt;stroke-linejoin:miter;stroke-opacity:1;stroke-dasharray:6,6"/>
<path class="bond-17" d="M 2357.9,224.936 L 2272.23,235.2" style="fill:none;fill-rule:evenodd;stroke:#000000;stroke-width:2.0px;stroke-linecap:butt;stroke-linejoin:miter;stroke-opacity:1"/>
<path class="bond-17" d="M 2347.1,243.611 L 2287.13,250.796" style="fill:none;fill-rule:evenodd;stroke:#000000;stroke-width:2.0px;stroke-linecap:butt;stroke-linejoin:miter;stroke-opacity:1;stroke-dasharray:6,6"/>
<path class="bond-18" d="M 2272.23,235.2 L 2238.28,314.529" style="fill:none;fill-rule:evenodd;stroke:#000000;stroke-width:2.0px;stroke-linecap:butt;stroke-linejoin:miter;stroke-opacity:1"/>
<path class="bond-18" d="M 2283,253.889 L 2259.24,309.42" style="fill:none;fill-rule:evenodd;stroke:#000000;stroke-width:2.0px;stroke-linecap:butt;stroke-linejoin:miter;stroke-opacity:1;stroke-dasharray:6,6"/>
<path class="bond-19" d="M 2238.28,314.529 L 2290.01,383.594" style="fill:none;fill-rule:evenodd;stroke:#000000;stroke-width:2.0px;stroke-linecap:butt;stroke-linejoin:miter;stroke-opacity:1"/>
<path class="bond-19" d="M 2259.85,314.544 L 2296.06,362.889" style="fill:none;fill-rule:evenodd;stroke:#000000;stroke-width:2.0px;stroke-linecap:butt;stroke-linejoin:miter;stroke-opacity:1;stroke-dasharray:6,6"/>
<path class="bond-20" d="M 2290.01,383.594 L 2375.68,373.329" style="fill:none;fill-rule:evenodd;stroke:#000000;stroke-width:2.0px;stroke-linecap:butt;stroke-linejoin:miter;stroke-opacity:1"/>
<path class="bond-20" d="M 2300.8,364.919 L 2360.78,357.734" style="fill:none;fill-rule:evenodd;stroke:#000000;stroke-width:2.0px;stroke-linecap:butt;stroke-linejoin:miter;stroke-opacity:1;stroke-dasharray:6,6"/>
<path class="bond-22" d="M 2626,208.932 L 2656.23,249.293" style="fill:none;fill-rule:evenodd;stroke:#000000;stroke-width:2.0px;stroke-linecap:butt;stroke-linejoin:miter;stroke-opacity:1"/>
<path class="bond-22" d="M 2644.35,204.641 L 2665.51,232.893" style="fill:none;fill-rule:evenodd;stroke:#000000;stroke-width:2.0px;stroke-linecap:butt;stroke-linejoin:miter;stroke-opacity:1;stroke-dasharray:6,6"/>
<path class="bond-37" d="M 2621.14,179.629 L 2648.88,114.813" style="fill:none;fill-rule:evenodd;stroke:#000000;stroke-width:2.0px;stroke-linecap:butt;stroke-linejoin:miter;stroke-opacity:1"/>
<path class="bond-37" d="M 2641.16,176.696 L 2660.58,131.325" style="fill:none;fill-rule:evenodd;stroke:#000000;stroke-width:2.0px;stroke-linecap:butt;stroke-linejoin:miter;stroke-opacity:1;stroke-dasharray:6,6"/>
<path class="bond-23" d="M 2676.18,262.065 L 2713.04,257.649" style="fill:none;fill-rule:evenodd;stroke:#000000;stroke-width:2.0px;stroke-linecap:butt;stroke-linejoin:miter;stroke-opacity:1"/>
<path class="bond-23" d="M 2679.66,244.268 L 2705.46,241.177" style="fill:none;fill-rule:evenodd;stroke:#000000;stroke-width:2.0px;stroke-linecap:butt;stroke-linejoin:miter;stroke-opacity:1;stroke-dasharray:6,6"/>
<path class="bond-24" d="M 2763.2,267.456 L 2793.63,308.084" style="fill:none;fill-rule:evenodd;stroke:#000000;stroke-width:2.0px;stroke-linecap:butt;stroke-linejoin:miter;stroke-opacity:1"/>
<path class="bond-24" d="M 2781.58,263.205 L 2802.88,291.645" style="fill:none;fill-rule:evenodd;stroke:#000000;stroke-width:2.0px;stroke-linecap:butt;stroke-linejoin:miter;stroke-opacity:1;stroke-dasharray:6,6"/>
<path class="bond-38" d="M 2758.54,238.428 L 2780.24,187.732" style="fill:none;fill-rule:evenodd;stroke:#000000;stroke-width:2.0px;stroke-linecap:butt;stroke-linejoin:miter;stroke-opacity:1"/>
<path class="bond-38" d="M 2745.93,224.034 L 2761.12,188.547" style="fill:none;fill-rule:evenodd;stroke:#000000;stroke-width:2.0px;stroke-linecap:butt;stroke-linejoin:miter;stroke-opacity:1;stroke-dasharray:6,6"/>
<path class="bond-25" d="M 2814.43,320.764 L 2889.73,311.742" style="fill:none;fill-rule:evenodd;stroke:#000000;stroke-width:2.0px;stroke-linecap:butt;stroke-linejoin:miter;stroke-opacity:1"/>
<path class="bond-25" d="M 2823.67,302.276 L 2876.38,295.96" style="fill:none;fill-rule:evenodd;stroke:#000000;stroke-width:2.0px;stroke-linecap:butt;stroke-linejoin:miter;stroke-opacity:1;stroke-dasharray:6,6"/>
<path class="bond-39" d="M 2801.12,336.865 L 2790.08,392.801" style="fill:none;fill-rule:evenodd;stroke:#000000;stroke-width:2.0px;stroke-linecap:butt;stroke-linejoin:miter;stroke-opacity:1"/>
<path class="bond-26" d="M 2889.73,311.742 L 2917.47,246.926" style="fill:none;fill-rule:evenodd;stroke:#000000;stroke-width:2.0px;stroke-linecap:butt;stroke-linejoin:miter;stroke-opacity:1"/>
<path class="bond-26" d="M 2878.03,295.23 L 2897.44,249.859" style="fill:none;fill-rule:evenodd;stroke:#000000;stroke-width:2.0px;stroke-linecap:butt;stroke-linejoin:miter;stroke-opacity:1;stroke-dasharray:6,6"/>
<path class="bond-33" d="M 2889.73,311.742 L 2919.25,375.538" style="fill:none;fill-rule:evenodd;stroke:#000000;stroke-width:2.0px;stroke-linecap:butt;stroke-linejoin:miter;stroke-opacity:1"/>
<path class="bond-27" d="M 2949.11,238.057 L 2973.36,235.151" style="fill:none;fill-rule:evenodd;stroke:#000000;stroke-width:2.0px;stroke-linecap:butt;stroke-linejoin:miter;stroke-opacity:1"/>
<path class="bond-27" d="M 2973.36,235.151 L 2997.62,232.245" style="fill:none;fill-rule:evenodd;stroke:#FF0000;stroke-width:2.0px;stroke-linecap:butt;stroke-linejoin:miter;stroke-opacity:1"/>
<path class="bond-27" d="M 2947.05,220.922 L 2971.31,218.016" style="fill:none;fill-rule:evenodd;stroke:#000000;stroke-width:2.0px;stroke-linecap:butt;stroke-linejoin:miter;stroke-opacity:1"/>
<path class="bond-27" d="M 2971.31,218.016 L 2995.57,215.11" style="fill:none;fill-rule:evenodd;stroke:#FF0000;stroke-width:2.0px;stroke-linecap:butt;stroke-linejoin:miter;stroke-opacity:1"/>
<path class="bond-28" d="M 2912.91,218.037 L 2897.84,197.915" style="fill:none;fill-rule:evenodd;stroke:#000000;stroke-width:2.0px;stroke-linecap:butt;stroke-linejoin:miter;stroke-opacity:1"/>
<path class="bond-28" d="M 2897.84,197.915 L 2882.77,177.793" style="fill:none;fill-rule:evenodd;stroke:#FF0000;stroke-width:2.0px;stroke-linecap:butt;stroke-linejoin:miter;stroke-opacity:1"/>
<path class="bond-28" d="M 2894.58,222.346 L 2884.03,208.26" style="fill:none;fill-rule:evenodd;stroke:#000000;stroke-width:2.0px;stroke-linecap:butt;stroke-linejoin:miter;stroke-opacity:1;stroke-dasharray:6,6"/>
<path class="bond-28" d="M 2884.03,208.26 L 2873.48,194.175" style="fill:none;fill-rule:evenodd;stroke:#FF0000;stroke-width:2.0px;stroke-linecap:butt;stroke-linejoin:miter;stroke-opacity:1;stroke-dasharray:6,6"/>
<path class="bond-29" d="M 2858.58,164.951 L 2834.89,167.788" style="fill:none;fill-rule:evenodd;stroke:#FF0000;stroke-width:2.0px;stroke-linecap:butt;stroke-linejoin:miter;stroke-opacity:1"/>
<path class="bond-29" d="M 2834.89,167.788 L 2811.21,170.626" style="fill:none;fill-rule:evenodd;stroke:#000000;stroke-width:2.0px;stroke-linecap:butt;stroke-linejoin:miter;stroke-opacity:1"/>
<path class="bond-29" d="M 2853.53,182.937 L 2836.95,184.923" style="fill:none;fill-rule:evenodd;stroke:#FF0000;stroke-width:2.0px;stroke-linecap:butt;stroke-linejoin:miter;stroke-opacity:1;stroke-dasharray:6,6"/>
<path class="bond-29" d="M 2836.95,184.923 L 2820.37,186.91" style="fill:none;fill-rule:evenodd;stroke:#000000;stroke-width:2.0px;stroke-linecap:butt;stroke-linejoin:miter;stroke-opacity:1;stroke-dasharray:6,6"/>
<path class="bond-30" d="M 2775.51,159.238 L 2734.55,104.549" style="fill:none;fill-rule:evenodd;stroke:#000000;stroke-width:2.0px;stroke-linecap:butt;stroke-linejoin:miter;stroke-opacity:1"/>
<path class="bond-30" d="M 2755.55,161.38 L 2726.88,123.097" style="fill:none;fill-rule:evenodd;stroke:#000000;stroke-width:2.0px;stroke-linecap:butt;stroke-linejoin:miter;stroke-opacity:1;stroke-dasharray:6,6"/>
<path class="bond-31" d="M 2734.55,104.549 L 2648.88,114.813" style="fill:none;fill-rule:evenodd;stroke:#000000;stroke-width:2.0px;stroke-linecap:butt;stroke-linejoin:miter;stroke-opacity:1"/>
<path class="bond-31" d="M 2723.75,123.223 L 2663.78,130.408" style="fill:none;fill-rule:evenodd;stroke:#000000;stroke-width:2.0px;stroke-linecap:butt;stroke-linejoin:miter;stroke-opacity:1;stroke-dasharray:6,6"/>
<path class="bond-32" d="M 2648.88,114.813 L 2627.78,86.6405" style="fill:none;fill-rule:evenodd;stroke:#000000;stroke-width:2.0px;stroke-linecap:butt;stroke-linejoin:miter;stroke-opacity:1"/>
<path class="bond-32" d="M 2627.78,86.6405 L 2606.67,58.4678" style="fill:none;fill-rule:evenodd;stroke:#FF0000;stroke-width:2.0px;stroke-linecap:butt;stroke-linejoin:miter;stroke-opacity:1"/>
<path class="bond-34" d="M 2914.39,400.787 L 2877.92,434.596" style="fill:none;fill-rule:evenodd;stroke:#000000;stroke-width:2.0px;stroke-linecap:butt;stroke-linejoin:miter;stroke-opacity:1"/>
<path class="bond-35" d="M 2836.69,434.201 L 2798.16,412.698" style="fill:none;fill-rule:evenodd;stroke:#000000;stroke-width:2.0px;stroke-linecap:butt;stroke-linejoin:miter;stroke-opacity:1"/>
<path class="atom-0" d="M 1042.85 334.159 Q 1042.85 328.291, 1045.75 325.012 Q 1048.65 321.733, 1054.07 321.733 Q 1059.49 321.733, 1062.39 325.012 Q 1065.29 328.291, 1065.29 334.159 Q 1065.29 340.095, 1062.36 343.478 Q 1059.42 346.826, 1054.07 346.826 Q 1048.69 346.826, 1045.75 343.478 Q 1042.85 340.13, 1042.85 334.159 M 1054.07 344.065 Q 1057.8 344.065, 1059.8 341.58 Q 1061.84 339.06, 1061.84 334.159 Q 1061.84 329.361, 1059.8 326.945 Q 1057.8 324.495, 1054.07 324.495 Q 1050.34 324.495, 1048.31 326.911 Q 1046.31 329.327, 1046.31 334.159 Q 1046.31 339.094, 1048.31 341.58 Q 1050.34 344.065, 1054.07 344.065 " fill="#FF0000"/>
<path class="atom-3" d="M 1117.58 204.727 Q 1117.58 198.86, 1120.48 195.581 Q 1123.38 192.302, 1128.8 192.302 Q 1134.22 192.302, 1137.12 195.581 Q 1140.02 198.86, 1140.02 204.727 Q 1140.02 210.664, 1137.08 214.046 Q 1134.15 217.394, 1128.8 217.394 Q 1123.42 217.394, 1120.48 214.046 Q 1117.58 210.698, 1117.58 204.727 M 1128.8 214.633 Q 1132.53 214.633, 1134.53 212.148 Q 1136.57 209.628, 1136.57 204.727 Q 1136.57 199.93, 1134.53 197.514 Q 1132.53 195.063, 1128.8 195.063 Q 1125.07 195.063, 1123.04 197.479 Q 1121.03 199.895, 1121.03 204.727 Q 1121.03 209.663, 1123.04 212.148 Q 1125.07 214.633, 1128.8 214.633 " fill="#FF0000"/>
<path class="atom-5" d="M 1192.31 334.159 Q 1192.31 328.291, 1195.21 325.012 Q 1198.11 321.733, 1203.53 321.733 Q 1208.95 321.733, 1211.85 325.012 Q 1214.74 328.291, 1214.74 334.159 Q 1214.74 340.095, 1211.81 343.478 Q 1208.88 346.826, 1203.53 346.826 Q 1198.14 346.826, 1195.21 343.478 Q 1192.31 340.13, 1192.31 334.159 M 1203.53 344.065 Q 1207.25 344.065, 1209.26 341.58 Q 1211.29 339.06, 1211.29 334.159 Q 1211.29 329.361, 1209.26 326.945 Q 1207.25 324.495, 1203.53 324.495 Q 1199.8 324.495, 1197.76 326.911 Q 1195.76 329.327, 1195.76 334.159 Q 1195.76 339.094, 1197.76 341.58 Q 1199.8 344.065, 1203.53 344.065 " fill="#FF0000"/>
<path class="atom-7" d="M 1743.01 254.035 Q 1743.01 248.167, 1745.91 244.888 Q 1748.81 241.609, 1754.23 241.609 Q 1759.65 241.609, 1762.55 244.888 Q 1765.45 248.167, 1765.45 254.035 Q 1765.45 259.971, 1762.51 263.354 Q 1759.58 266.702, 1754.23 266.702 Q 1748.84 266.702, 1745.91 263.354 Q 1743.01 260.006, 1743.01 254.035 M 1754.23 263.94 Q 1757.96 263.94, 1759.96 261.455 Q 1761.99 258.936, 1761.99 254.035 Q 1761.99 249.237, 1759.96 246.821 Q 1757.96 244.37, 1754.23 244.37 Q 1750.5 244.37, 1748.46 246.786 Q 1746.46 249.202, 1746.46 254.035 Q 1746.46 258.97, 1748.46 261.455 Q 1750.5 263.94, 1754.23 263.94 " fill="#FF0000"/>
<path class="atom-7" d="M 1768.38 241.885 L 1771.69 241.885 L 1771.69 252.274 L 1784.19 252.274 L 1784.19 241.885 L 1787.5 241.885 L 1787.5 266.322 L 1784.19 266.322 L 1784.19 255.035 L 1771.69 255.035 L 1771.69 266.322 L 1768.38 266.322 L 1768.38 241.885 " fill="#FF0000"/>
<path class="atom-14" d="M 2466.31 135.411 Q 2466.31 129.544, 2469.21 126.265 Q 2472.11 122.986, 2477.53 122.986 Q 2482.94 122.986, 2485.84 126.265 Q 2488.74 129.544, 2488.74 135.411 Q 2488.74 141.348, 2485.81 144.73 Q 2482.88 148.078, 2477.53 148.078 Q 2472.14 148.078, 2469.21 144.73 Q 2466.31 141.382, 2466.31 135.411 M 2477.53 145.317 Q 2481.25 145.317, 2483.26 142.832 Q 2485.29 140.312, 2485.29 135.411 Q 2485.29 130.614, 2483.26 128.198 Q 2481.25 125.747, 2477.53 125.747 Q 2473.8 125.747, 2471.76 128.163 Q 2469.76 130.579, 2469.76 135.411 Q 2469.76 140.347, 2471.76 142.832 Q 2473.8 145.317, 2477.53 145.317 " fill="#FF0000"/>
<path class="atom-16" d="M 2484.09 283.805 Q 2484.09 277.937, 2486.99 274.658 Q 2489.89 271.379, 2495.3 271.379 Q 2500.72 271.379, 2503.62 274.658 Q 2506.52 277.937, 2506.52 283.805 Q 2506.52 289.741, 2503.59 293.124 Q 2500.65 296.472, 2495.3 296.472 Q 2489.92 296.472, 2486.99 293.124 Q 2484.09 289.776, 2484.09 283.805 M 2495.3 293.711 Q 2499.03 293.711, 2501.03 291.225 Q 2503.07 288.706, 2503.07 283.805 Q 2503.07 279.007, 2501.03 276.591 Q 2499.03 274.141, 2495.3 274.141 Q 2491.58 274.141, 2489.54 276.557 Q 2487.54 278.973, 2487.54 283.805 Q 2487.54 288.74, 2489.54 291.225 Q 2491.58 293.711, 2495.3 293.711 " fill="#FF0000"/>
<path class="atom-23" d="M 2576.93 194.246 Q 2576.93 188.171, 2579.76 184.996 Q 2582.63 181.786, 2588.04 181.786 Q 2593.08 181.786, 2595.78 185.341 L 2593.5 187.205 Q 2591.53 184.616, 2588.04 184.616 Q 2584.35 184.616, 2582.38 187.101 Q 2580.45 189.552, 2580.45 194.246 Q 2580.45 199.078, 2582.45 201.563 Q 2584.49 204.048, 2588.42 204.048 Q 2591.12 204.048, 2594.26 202.426 L 2595.22 205.014 Q 2593.95 205.843, 2592.01 206.326 Q 2590.08 206.809, 2587.94 206.809 Q 2582.63 206.809, 2579.76 203.565 Q 2576.93 200.32, 2576.93 194.246 " fill="#000000"/>
<path class="atom-23" d="M 2598.36 202.46 L 2601.82 202.46 L 2601.82 205.912 L 2598.36 205.912 L 2598.36 202.46 M 2598.36 190.587 L 2601.82 190.587 L 2601.82 194.039 L 2598.36 194.039 L 2598.36 190.587 " fill="#000000"/>
<path class="atom-23" d="M 2605.03 203.737 L 2610.38 203.737 L 2610.38 185.479 L 2604.47 187.308 L 2603.68 185.272 L 2611.17 181.924 L 2613.62 182.338 L 2613.62 203.737 L 2618.42 203.737 L 2618.42 206.499 L 2605.03 206.499 L 2605.03 203.737 " fill="#000000"/>
<path class="atom-23" d="M 2629.46 206.775 Q 2624.98 206.775, 2622.73 203.461 Q 2620.52 200.148, 2620.52 194.246 Q 2620.52 188.344, 2622.73 185.065 Q 2624.94 181.786, 2629.46 181.786 Q 2633.98 181.786, 2636.19 185.065 Q 2638.4 188.344, 2638.4 194.246 Q 2638.4 200.148, 2636.16 203.461 Q 2633.95 206.775, 2629.46 206.775 M 2629.46 204.013 Q 2632.12 204.013, 2633.54 201.563 Q 2634.95 199.078, 2634.95 194.246 Q 2634.95 189.448, 2633.54 186.998 Q 2632.12 184.547, 2629.46 184.547 Q 2626.84 184.547, 2625.39 186.998 Q 2623.97 189.448, 2623.97 194.246 Q 2623.97 199.078, 2625.39 201.563 Q 2626.84 204.013, 2629.46 204.013 " fill="#000000"/>
<path class="atom-24" d="M 2615.93 263.31 Q 2615.93 257.235, 2618.76 254.06 Q 2621.63 250.85, 2627.05 250.85 Q 2632.09 250.85, 2634.78 254.405 L 2632.5 256.269 Q 2630.53 253.68, 2627.05 253.68 Q 2623.36 253.68, 2621.39 256.166 Q 2619.45 258.616, 2619.45 263.31 Q 2619.45 268.142, 2621.46 270.627 Q 2623.49 273.112, 2627.43 273.112 Q 2630.12 273.112, 2633.26 271.49 L 2634.23 274.079 Q 2632.95 274.907, 2631.02 275.39 Q 2629.08 275.874, 2626.94 275.874 Q 2621.63 275.874, 2618.76 272.629 Q 2615.93 269.385, 2615.93 263.31 " fill="#000000"/>
<path class="atom-24" d="M 2637.37 271.525 L 2640.82 271.525 L 2640.82 274.976 L 2637.37 274.976 L 2637.37 271.525 M 2637.37 259.652 L 2640.82 259.652 L 2640.82 263.103 L 2637.37 263.103 L 2637.37 259.652 " fill="#000000"/>
<path class="atom-24" d="M 2644.03 272.802 L 2649.38 272.802 L 2649.38 254.543 L 2643.48 256.373 L 2642.68 254.336 L 2650.17 250.988 L 2652.62 251.402 L 2652.62 272.802 L 2657.42 272.802 L 2657.42 275.563 L 2644.03 275.563 L 2644.03 272.802 " fill="#000000"/>
<path class="atom-24" d="M 2660.63 272.802 L 2665.98 272.802 L 2665.98 254.543 L 2660.08 256.373 L 2659.29 254.336 L 2666.78 250.988 L 2669.23 251.402 L 2669.23 272.802 L 2674.02 272.802 L 2674.02 275.563 L 2660.63 275.563 L 2660.63 272.802 " fill="#000000"/>
<path class="atom-25" d="M 2714.96 253.046 Q 2714.96 246.971, 2717.79 243.796 Q 2720.65 240.586, 2726.07 240.586 Q 2731.11 240.586, 2733.8 244.141 L 2731.53 246.004 Q 2729.56 243.416, 2726.07 243.416 Q 2722.38 243.416, 2720.41 245.901 Q 2718.48 248.352, 2718.48 253.046 Q 2718.48 257.878, 2720.48 260.363 Q 2722.52 262.848, 2726.45 262.848 Q 2729.14 262.848, 2732.28 261.226 L 2733.25 263.814 Q 2731.97 264.643, 2730.04 265.126 Q 2728.11 265.609, 2725.97 265.609 Q 2720.65 265.609, 2717.79 262.365 Q 2714.96 259.12, 2714.96 253.046 " fill="#000000"/>
<path class="atom-25" d="M 2736.39 261.26 L 2739.84 261.26 L 2739.84 264.712 L 2736.39 264.712 L 2736.39 261.26 M 2736.39 249.387 L 2739.84 249.387 L 2739.84 252.838 L 2736.39 252.838 L 2736.39 249.387 " fill="#000000"/>
<path class="atom-25" d="M 2743.05 262.537 L 2748.4 262.537 L 2748.4 244.279 L 2742.5 246.108 L 2741.71 244.072 L 2749.2 240.724 L 2751.65 241.138 L 2751.65 262.537 L 2756.45 262.537 L 2756.45 265.298 L 2743.05 265.298 L 2743.05 262.537 " fill="#000000"/>
<path class="atom-25" d="M 2758.24 245.487 Q 2759.14 243.174, 2761.28 241.897 Q 2763.42 240.586, 2766.39 240.586 Q 2770.08 240.586, 2772.15 242.588 Q 2774.22 244.589, 2774.22 248.144 Q 2774.22 251.769, 2771.53 255.151 Q 2768.87 258.533, 2763.35 262.537 L 2774.63 262.537 L 2774.63 265.298 L 2758.17 265.298 L 2758.17 262.986 Q 2762.73 259.741, 2765.42 257.325 Q 2768.15 254.909, 2769.46 252.735 Q 2770.77 250.56, 2770.77 248.317 Q 2770.77 245.97, 2769.6 244.658 Q 2768.42 243.347, 2766.39 243.347 Q 2764.42 243.347, 2763.11 244.141 Q 2761.8 244.935, 2760.86 246.695 L 2758.24 245.487 " fill="#000000"/>
<path class="atom-26" d="M 2752.9 322.11 Q 2752.9 316.035, 2755.74 312.86 Q 2758.6 309.65, 2764.02 309.65 Q 2769.06 309.65, 2771.75 313.205 L 2769.47 315.069 Q 2767.5 312.48, 2764.02 312.48 Q 2760.33 312.48, 2758.36 314.965 Q 2756.43 317.416, 2756.43 322.11 Q 2756.43 326.942, 2758.43 329.427 Q 2760.46 331.912, 2764.4 331.912 Q 2767.09 331.912, 2770.23 330.29 L 2771.2 332.879 Q 2769.92 333.707, 2767.99 334.19 Q 2766.06 334.673, 2763.92 334.673 Q 2758.6 334.673, 2755.74 331.429 Q 2752.9 328.185, 2752.9 322.11 " fill="#000000"/>
<path class="atom-26" d="M 2774.34 330.325 L 2777.79 330.325 L 2777.79 333.776 L 2774.34 333.776 L 2774.34 330.325 M 2774.34 318.451 L 2777.79 318.451 L 2777.79 321.903 L 2774.34 321.903 L 2774.34 318.451 " fill="#000000"/>
<path class="atom-26" d="M 2781 331.602 L 2786.35 331.602 L 2786.35 313.343 L 2780.45 315.172 L 2779.65 313.136 L 2787.14 309.788 L 2789.59 310.202 L 2789.59 331.602 L 2794.39 331.602 L 2794.39 334.363 L 2781 334.363 L 2781 331.602 " fill="#000000"/>
<path class="atom-26" d="M 2807.58 321.489 Q 2809.96 322.179, 2811.1 323.732 Q 2812.27 325.251, 2812.27 327.667 Q 2812.27 329.738, 2811.24 331.36 Q 2810.2 332.948, 2808.3 333.845 Q 2806.4 334.708, 2803.92 334.708 Q 2801.29 334.708, 2799.33 333.811 Q 2797.39 332.879, 2795.84 331.015 L 2797.81 329.013 Q 2799.33 330.67, 2800.6 331.326 Q 2801.88 331.947, 2803.92 331.947 Q 2806.13 331.947, 2807.47 330.773 Q 2808.82 329.565, 2808.82 327.632 Q 2808.82 325.147, 2807.4 324.043 Q 2806.02 322.904, 2803.02 322.904 L 2801.26 322.904 L 2801.26 320.419 L 2802.81 320.419 Q 2805.47 320.384, 2806.89 319.245 Q 2808.3 318.072, 2808.3 315.897 Q 2808.3 314.31, 2807.13 313.378 Q 2805.95 312.411, 2803.95 312.411 Q 2801.92 312.411, 2800.64 313.136 Q 2799.4 313.861, 2798.43 315.69 L 2796.05 314.413 Q 2796.91 312.377, 2798.98 311.031 Q 2801.05 309.65, 2803.95 309.65 Q 2807.54 309.65, 2809.65 311.341 Q 2811.75 313.033, 2811.75 315.897 Q 2811.75 317.865, 2810.68 319.28 Q 2809.61 320.695, 2807.58 321.489 " fill="#000000"/>
<path class="atom-28" d="M 2886.32 232.516 Q 2886.32 226.442, 2889.15 223.266 Q 2892.01 220.057, 2897.43 220.057 Q 2902.47 220.057, 2905.16 223.612 L 2902.88 225.475 Q 2900.92 222.887, 2897.43 222.887 Q 2893.74 222.887, 2891.77 225.372 Q 2889.84 227.822, 2889.84 232.516 Q 2889.84 237.349, 2891.84 239.834 Q 2893.88 242.319, 2897.81 242.319 Q 2900.5 242.319, 2903.64 240.697 L 2904.61 243.285 Q 2903.33 244.114, 2901.4 244.597 Q 2899.47 245.08, 2897.33 245.08 Q 2892.01 245.08, 2889.15 241.836 Q 2886.32 238.591, 2886.32 232.516 " fill="#000000"/>
<path class="atom-28" d="M 2907.75 240.731 L 2911.2 240.731 L 2911.2 244.183 L 2907.75 244.183 L 2907.75 240.731 M 2907.75 228.858 L 2911.2 228.858 L 2911.2 232.309 L 2907.75 232.309 L 2907.75 228.858 " fill="#000000"/>
<path class="atom-28" d="M 2914.41 242.008 L 2919.76 242.008 L 2919.76 223.75 L 2913.86 225.579 L 2913.07 223.543 L 2920.56 220.195 L 2923.01 220.609 L 2923.01 242.008 L 2927.8 242.008 L 2927.8 244.769 L 2914.41 244.769 L 2914.41 242.008 " fill="#000000"/>
<path class="atom-28" d="M 2938.26 229.479 Q 2940.4 229.479, 2942.16 230.411 Q 2943.92 231.308, 2944.92 233.034 Q 2945.92 234.725, 2945.92 237.038 Q 2945.92 239.558, 2944.68 241.387 Q 2943.47 243.182, 2941.47 244.114 Q 2939.47 245.045, 2937.19 245.045 Q 2934.95 245.045, 2932.88 244.217 Q 2930.81 243.389, 2929.39 241.801 L 2931.46 239.661 Q 2932.6 240.904, 2934.15 241.594 Q 2935.71 242.25, 2937.3 242.25 Q 2939.47 242.25, 2940.95 240.904 Q 2942.47 239.558, 2942.47 237.107 Q 2942.47 234.518, 2940.95 233.31 Q 2939.47 232.068, 2937.09 232.068 Q 2934.95 232.068, 2932.57 233 L 2930.67 232.102 L 2931.84 220.333 L 2944.41 220.333 L 2944.06 223.094 L 2934.67 223.094 L 2933.95 230.342 Q 2936.12 229.479, 2938.26 229.479 " fill="#000000"/>
<path class="atom-29" d="M 2998.14 222.217 Q 2998.14 216.35, 3001.04 213.071 Q 3003.94 209.792, 3009.35 209.792 Q 3014.77 209.792, 3017.67 213.071 Q 3020.57 216.35, 3020.57 222.217 Q 3020.57 228.154, 3017.64 231.536 Q 3014.7 234.884, 3009.35 234.884 Q 3003.97 234.884, 3001.04 231.536 Q 2998.14 228.188, 2998.14 222.217 M 3009.35 232.123 Q 3013.08 232.123, 3015.08 229.638 Q 3017.12 227.119, 3017.12 222.217 Q 3017.12 217.42, 3015.08 215.004 Q 3013.08 212.553, 3009.35 212.553 Q 3005.63 212.553, 3003.59 214.969 Q 3001.59 217.385, 3001.59 222.217 Q 3001.59 227.153, 3003.59 229.638 Q 3005.63 232.123, 3009.35 232.123 " fill="#FF0000"/>
<path class="atom-30" d="M 2860.73 163.418 Q 2860.73 157.55, 2863.63 154.271 Q 2866.53 150.992, 2871.95 150.992 Q 2877.37 150.992, 2880.27 154.271 Q 2883.17 157.55, 2883.17 163.418 Q 2883.17 169.354, 2880.24 172.737 Q 2877.3 176.085, 2871.95 176.085 Q 2866.57 176.085, 2863.63 172.737 Q 2860.73 169.389, 2860.73 163.418 M 2871.95 173.323 Q 2875.68 173.323, 2877.68 170.838 Q 2879.72 168.319, 2879.72 163.418 Q 2879.72 158.62, 2877.68 156.204 Q 2875.68 153.753, 2871.95 153.753 Q 2868.22 153.753, 2866.19 156.169 Q 2864.19 158.585, 2864.19 163.418 Q 2864.19 168.353, 2866.19 170.838 Q 2868.22 173.323, 2871.95 173.323 " fill="#FF0000"/>
<path class="atom-31" d="M 2748.5 173.717 Q 2748.5 167.642, 2751.34 164.467 Q 2754.2 161.257, 2759.62 161.257 Q 2764.66 161.257, 2767.35 164.812 L 2765.07 166.676 Q 2763.1 164.087, 2759.62 164.087 Q 2755.93 164.087, 2753.96 166.572 Q 2752.03 169.023, 2752.03 173.717 Q 2752.03 178.549, 2754.03 181.034 Q 2756.06 183.519, 2760 183.519 Q 2762.69 183.519, 2765.83 181.897 L 2766.8 184.485 Q 2765.52 185.314, 2763.59 185.797 Q 2761.66 186.28, 2759.52 186.28 Q 2754.2 186.28, 2751.34 183.036 Q 2748.5 179.791, 2748.5 173.717 " fill="#000000"/>
<path class="atom-31" d="M 2769.94 181.931 L 2773.39 181.931 L 2773.39 185.383 L 2769.94 185.383 L 2769.94 181.931 M 2769.94 170.058 L 2773.39 170.058 L 2773.39 173.509 L 2769.94 173.509 L 2769.94 170.058 " fill="#000000"/>
<path class="atom-31" d="M 2776.6 183.208 L 2781.95 183.208 L 2781.95 164.95 L 2776.05 166.779 L 2775.25 164.743 L 2782.74 161.395 L 2785.19 161.809 L 2785.19 183.208 L 2789.99 183.208 L 2789.99 185.969 L 2776.6 185.969 L 2776.6 183.208 " fill="#000000"/>
<path class="atom-31" d="M 2804.59 173.026 Q 2806.84 173.993, 2808.11 175.442 Q 2809.39 176.857, 2809.39 179.274 Q 2809.39 181.344, 2808.32 182.967 Q 2807.25 184.554, 2805.32 185.452 Q 2803.42 186.315, 2800.9 186.315 Q 2796.83 186.315, 2794.48 184.451 Q 2792.13 182.552, 2792.13 179.274 Q 2792.13 177.272, 2793.17 175.787 Q 2794.2 174.269, 2796.34 173.13 Q 2794.76 172.232, 2793.89 170.921 Q 2793.03 169.575, 2793.03 167.504 Q 2793.03 164.639, 2795.1 162.948 Q 2797.21 161.257, 2800.76 161.257 Q 2804.32 161.257, 2806.39 162.948 Q 2808.49 164.639, 2808.49 167.504 Q 2808.49 169.299, 2807.49 170.645 Q 2806.52 171.956, 2804.59 173.026 M 2800.76 163.845 Q 2798.72 163.845, 2797.59 164.812 Q 2796.48 165.778, 2796.48 167.504 Q 2796.48 168.781, 2797.24 169.644 Q 2798 170.472, 2799.07 170.955 Q 2800.17 171.439, 2802.28 172.163 Q 2803.76 171.128, 2804.38 170.023 Q 2805.04 168.919, 2805.04 167.504 Q 2805.04 165.778, 2803.9 164.812 Q 2802.8 163.845, 2800.76 163.845 M 2800.9 183.726 Q 2803.18 183.726, 2804.56 182.518 Q 2805.94 181.275, 2805.94 179.239 Q 2805.94 177.927, 2805.21 177.099 Q 2804.49 176.271, 2803.38 175.787 Q 2802.31 175.304, 2800.38 174.683 L 2798.83 174.165 Q 2797.1 175.201, 2796.34 176.443 Q 2795.58 177.651, 2795.58 179.239 Q 2795.58 181.275, 2797.03 182.518 Q 2798.48 183.726, 2800.9 183.726 " fill="#000000"/>
<path class="atom-34" d="M 2520.4 33.6685 L 2523.72 33.6685 L 2523.72 44.0575 L 2536.21 44.0575 L 2536.21 33.6685 L 2539.53 33.6685 L 2539.53 58.1051 L 2536.21 58.1051 L 2536.21 46.8187 L 2523.72 46.8187 L 2523.72 58.1051 L 2520.4 58.1051 L 2520.4 33.6685 " fill="#FF0000"/>
<path class="atom-34" d="M 2541.25 45.8178 Q 2541.25 39.9502, 2544.15 36.6713 Q 2547.05 33.3924, 2552.47 33.3924 Q 2557.89 33.3924, 2560.79 36.6713 Q 2563.69 39.9502, 2563.69 45.8178 Q 2563.69 51.7544, 2560.75 55.1368 Q 2557.82 58.4848, 2552.47 58.4848 Q 2547.08 58.4848, 2544.15 55.1368 Q 2541.25 51.7889, 2541.25 45.8178 M 2552.47 55.7236 Q 2556.2 55.7236, 2558.2 53.2385 Q 2560.23 50.7189, 2560.23 45.8178 Q 2560.23 41.0202, 2558.2 38.6041 Q 2556.2 36.1536, 2552.47 36.1536 Q 2548.74 36.1536, 2546.7 38.5696 Q 2544.7 40.9857, 2544.7 45.8178 Q 2544.7 50.7534, 2546.7 53.2385 Q 2548.74 55.7236, 2552.47 55.7236 " fill="#FF0000"/>
<path class="atom-34" d="M 2566.27 54.0669 L 2569.73 54.0669 L 2569.73 57.5184 L 2566.27 57.5184 L 2566.27 54.0669 M 2566.27 42.1937 L 2569.73 42.1937 L 2569.73 45.6452 L 2566.27 45.6452 L 2566.27 42.1937 " fill="#FF0000"/>
<path class="atom-34" d="M 2571.52 38.2935 Q 2572.42 35.981, 2574.56 34.7039 Q 2576.7 33.3924, 2579.67 33.3924 Q 2583.36 33.3924, 2585.43 35.3942 Q 2587.5 37.3961, 2587.5 40.9512 Q 2587.5 44.5752, 2584.81 47.9577 Q 2582.15 51.3402, 2576.63 55.3439 L 2587.92 55.3439 L 2587.92 58.1051 L 2571.45 58.1051 L 2571.45 55.7926 Q 2576.01 52.5482, 2578.7 50.1322 Q 2581.43 47.7161, 2582.74 45.5417 Q 2584.05 43.3672, 2584.05 41.1237 Q 2584.05 38.7767, 2582.88 37.4651 Q 2581.7 36.1536, 2579.67 36.1536 Q 2577.7 36.1536, 2576.39 36.9474 Q 2575.08 37.7413, 2574.14 39.5015 L 2571.52 38.2935 " fill="#FF0000"/>
<path class="atom-34" d="M 2591.13 55.3439 L 2596.48 55.3439 L 2596.48 37.0855 L 2590.57 38.9148 L 2589.78 36.8784 L 2597.27 33.5304 L 2599.72 33.9446 L 2599.72 55.3439 L 2604.52 55.3439 L 2604.52 58.1051 L 2591.13 58.1051 L 2591.13 55.3439 " fill="#FF0000"/>
<path class="atom-35" d="M 2916.55 390.155 Q 2916.55 384.081, 2919.38 380.905 Q 2922.24 377.695, 2927.66 377.695 Q 2932.7 377.695, 2935.39 381.25 L 2933.11 383.114 Q 2931.15 380.526, 2927.66 380.526 Q 2923.97 380.526, 2922 383.011 Q 2920.07 385.461, 2920.07 390.155 Q 2920.07 394.987, 2922.07 397.472 Q 2924.1 399.958, 2928.04 399.958 Q 2930.73 399.958, 2933.87 398.335 L 2934.84 400.924 Q 2933.56 401.752, 2931.63 402.236 Q 2929.7 402.719, 2927.56 402.719 Q 2922.24 402.719, 2919.38 399.474 Q 2916.55 396.23, 2916.55 390.155 " fill="#000000"/>
<path class="atom-35" d="M 2937.98 398.37 L 2941.43 398.37 L 2941.43 401.821 L 2937.98 401.821 L 2937.98 398.37 M 2937.98 386.497 L 2941.43 386.497 L 2941.43 389.948 L 2937.98 389.948 L 2937.98 386.497 " fill="#000000"/>
<path class="atom-35" d="M 2943.23 382.596 Q 2944.12 380.284, 2946.26 379.007 Q 2948.4 377.695, 2951.37 377.695 Q 2955.06 377.695, 2957.14 379.697 Q 2959.21 381.699, 2959.21 385.254 Q 2959.21 388.878, 2956.51 392.261 Q 2953.86 395.643, 2948.33 399.647 L 2959.62 399.647 L 2959.62 402.408 L 2943.16 402.408 L 2943.16 400.096 Q 2947.71 396.851, 2950.4 394.435 Q 2953.13 392.019, 2954.44 389.845 Q 2955.75 387.67, 2955.75 385.427 Q 2955.75 383.08, 2954.58 381.768 Q 2953.41 380.457, 2951.37 380.457 Q 2949.4 380.457, 2948.09 381.25 Q 2946.78 382.044, 2945.85 383.804 L 2943.23 382.596 " fill="#000000"/>
<path class="atom-35" d="M 2961.42 382.596 Q 2962.31 380.284, 2964.45 379.007 Q 2966.59 377.695, 2969.56 377.695 Q 2973.25 377.695, 2975.32 379.697 Q 2977.4 381.699, 2977.4 385.254 Q 2977.4 388.878, 2974.7 392.261 Q 2972.05 395.643, 2966.52 399.647 L 2977.81 399.647 L 2977.81 402.408 L 2961.35 402.408 L 2961.35 400.096 Q 2965.9 396.851, 2968.59 394.435 Q 2971.32 392.019, 2972.63 389.845 Q 2973.94 387.67, 2973.94 385.427 Q 2973.94 383.08, 2972.77 381.768 Q 2971.6 380.457, 2969.56 380.457 Q 2967.59 380.457, 2966.28 381.25 Q 2964.97 382.044, 2964.04 383.804 L 2961.42 382.596 " fill="#000000"/>
<path class="atom-36" d="M 2824.42 448.818 Q 2824.42 442.743, 2827.26 439.568 Q 2830.12 436.358, 2835.54 436.358 Q 2840.58 436.358, 2843.27 439.913 L 2840.99 441.777 Q 2839.02 439.188, 2835.54 439.188 Q 2831.85 439.188, 2829.88 441.673 Q 2827.95 444.124, 2827.95 448.818 Q 2827.95 453.65, 2829.95 456.135 Q 2831.98 458.62, 2835.92 458.62 Q 2838.61 458.62, 2841.75 456.998 L 2842.72 459.587 Q 2841.44 460.415, 2839.51 460.898 Q 2837.58 461.381, 2835.44 461.381 Q 2830.12 461.381, 2827.26 458.137 Q 2824.42 454.893, 2824.42 448.818 " fill="#000000"/>
<path class="atom-36" d="M 2845.86 457.033 L 2849.31 457.033 L 2849.31 460.484 L 2845.86 460.484 L 2845.86 457.033 M 2845.86 445.159 L 2849.31 445.159 L 2849.31 448.611 L 2845.86 448.611 L 2845.86 445.159 " fill="#000000"/>
<path class="atom-36" d="M 2851.11 441.259 Q 2852 438.947, 2854.14 437.67 Q 2856.28 436.358, 2859.25 436.358 Q 2862.94 436.358, 2865.01 438.36 Q 2867.09 440.362, 2867.09 443.917 Q 2867.09 447.541, 2864.39 450.923 Q 2861.74 454.306, 2856.21 458.31 L 2867.5 458.31 L 2867.5 461.071 L 2851.04 461.071 L 2851.04 458.758 Q 2855.59 455.514, 2858.28 453.098 Q 2861.01 450.682, 2862.32 448.507 Q 2863.63 446.333, 2863.63 444.089 Q 2863.63 441.742, 2862.46 440.431 Q 2861.29 439.119, 2859.25 439.119 Q 2857.28 439.119, 2855.97 439.913 Q 2854.66 440.707, 2853.73 442.467 L 2851.11 441.259 " fill="#000000"/>
<path class="atom-36" d="M 2880.68 448.197 Q 2883.07 448.887, 2884.2 450.44 Q 2885.38 451.959, 2885.38 454.375 Q 2885.38 456.446, 2884.34 458.068 Q 2883.31 459.656, 2881.41 460.553 Q 2879.51 461.416, 2877.03 461.416 Q 2874.4 461.416, 2872.44 460.519 Q 2870.5 459.587, 2868.95 457.723 L 2870.92 455.721 Q 2872.44 457.378, 2873.71 458.033 Q 2874.99 458.655, 2877.03 458.655 Q 2879.23 458.655, 2880.58 457.481 Q 2881.93 456.273, 2881.93 454.34 Q 2881.93 451.855, 2880.51 450.751 Q 2879.13 449.612, 2876.13 449.612 L 2874.37 449.612 L 2874.37 447.127 L 2875.92 447.127 Q 2878.58 447.092, 2879.99 445.953 Q 2881.41 444.78, 2881.41 442.605 Q 2881.41 441.018, 2880.24 440.086 Q 2879.06 439.119, 2877.06 439.119 Q 2875.02 439.119, 2873.75 439.844 Q 2872.5 440.569, 2871.54 442.398 L 2869.16 441.121 Q 2870.02 439.085, 2872.09 437.739 Q 2874.16 436.358, 2877.06 436.358 Q 2880.65 436.358, 2882.76 438.049 Q 2884.86 439.74, 2884.86 442.605 Q 2884.86 444.573, 2883.79 445.988 Q 2882.72 447.403, 2880.68 448.197 " fill="#000000"/>
<path class="atom-37" d="M 2733.83 406.764 Q 2733.83 400.689, 2736.66 397.514 Q 2739.52 394.304, 2744.94 394.304 Q 2749.98 394.304, 2752.67 397.859 L 2750.39 399.723 Q 2748.43 397.134, 2744.94 397.134 Q 2741.25 397.134, 2739.28 399.619 Q 2737.35 402.07, 2737.35 406.764 Q 2737.35 411.596, 2739.35 414.081 Q 2741.39 416.566, 2745.32 416.566 Q 2748.01 416.566, 2751.15 414.944 L 2752.12 417.532 Q 2750.84 418.361, 2748.91 418.844 Q 2746.98 419.327, 2744.84 419.327 Q 2739.52 419.327, 2736.66 416.083 Q 2733.83 412.838, 2733.83 406.764 " fill="#000000"/>
<path class="atom-37" d="M 2755.26 414.978 L 2758.71 414.978 L 2758.71 418.43 L 2755.26 418.43 L 2755.26 414.978 M 2755.26 403.105 L 2758.71 403.105 L 2758.71 406.557 L 2755.26 406.557 L 2755.26 403.105 " fill="#000000"/>
<path class="atom-37" d="M 2760.51 399.205 Q 2761.41 396.892, 2763.55 395.615 Q 2765.69 394.304, 2768.65 394.304 Q 2772.35 394.304, 2774.42 396.306 Q 2776.49 398.307, 2776.49 401.863 Q 2776.49 405.487, 2773.8 408.869 Q 2771.14 412.252, 2765.62 416.255 L 2776.9 416.255 L 2776.9 419.017 L 2760.44 419.017 L 2760.44 416.704 Q 2764.99 413.46, 2767.69 411.044 Q 2770.41 408.627, 2771.73 406.453 Q 2773.04 404.279, 2773.04 402.035 Q 2773.04 399.688, 2771.86 398.377 Q 2770.69 397.065, 2768.65 397.065 Q 2766.69 397.065, 2765.37 397.859 Q 2764.06 398.653, 2763.13 400.413 L 2760.51 399.205 " fill="#000000"/>
<path class="atom-37" d="M 2793.81 410.629 L 2796.75 410.629 L 2796.75 413.391 L 2793.81 413.391 L 2793.81 419.017 L 2790.57 419.017 L 2790.57 413.391 L 2777.94 413.391 L 2777.94 411.216 L 2788.64 394.58 L 2793.81 394.58 L 2793.81 410.629 M 2781.94 410.629 L 2790.57 410.629 L 2790.57 396.789 L 2781.94 410.629 " fill="#000000"/>
<path class="note" d="M 1051.06 367.615 L 1053.74 367.615 L 1053.74 358.486 L 1050.78 359.401 L 1050.39 358.383 L 1054.13 356.709 L 1055.36 356.916 L 1055.36 367.615 L 1057.76 367.615 L 1057.76 368.996 L 1051.06 368.996 L 1051.06 367.615 " fill="#000000"/>
<path class="note" d="M 1049.99 229.693 Q 1050.44 228.537, 1051.51 227.898 Q 1052.58 227.243, 1054.06 227.243 Q 1055.91 227.243, 1056.95 228.244 Q 1057.98 229.245, 1057.98 231.022 Q 1057.98 232.834, 1056.64 234.525 Q 1055.31 236.217, 1052.55 238.218 L 1058.19 238.218 L 1058.19 239.599 L 1049.96 239.599 L 1049.96 238.443 Q 1052.23 236.821, 1053.58 235.613 Q 1054.94 234.405, 1055.6 233.317 Q 1056.26 232.23, 1056.26 231.108 Q 1056.26 229.935, 1055.67 229.279 Q 1055.08 228.623, 1054.06 228.623 Q 1053.08 228.623, 1052.42 229.02 Q 1051.77 229.417, 1051.3 230.297 L 1049.99 229.693 " fill="#000000"/>
<path class="note" d="M 960.497 221.876 L 963.172 221.876 L 963.172 212.747 L 960.221 213.661 L 959.824 212.643 L 963.569 210.969 L 964.794 211.176 L 964.794 221.876 L 967.193 221.876 L 967.193 223.257 L 960.497 223.257 L 960.497 221.876 " fill="#000000"/>
<path class="note" d="M 975.649 219.063 L 977.116 219.063 L 977.116 220.444 L 975.649 220.444 L 975.649 223.257 L 974.027 223.257 L 974.027 220.444 L 967.711 220.444 L 967.711 219.356 L 973.06 211.038 L 975.649 211.038 L 975.649 219.063 M 969.712 219.063 L 974.027 219.063 L 974.027 212.143 L 969.712 219.063 " fill="#000000"/>
<path class="note" d="M 1117.89 180.659 L 1120.57 180.659 L 1120.57 171.53 L 1117.62 172.444 L 1117.22 171.426 L 1120.96 169.752 L 1122.19 169.959 L 1122.19 180.659 L 1124.59 180.659 L 1124.59 182.039 L 1117.89 182.039 L 1117.89 180.659 " fill="#000000"/>
<path class="note" d="M 1131.3 171.202 L 1124.9 171.202 L 1124.9 169.821 L 1133.01 169.821 L 1133.01 171.046 L 1128.07 182.039 L 1126.42 182.039 L 1131.3 171.202 " fill="#000000"/>
<path class="note" d="M 1165.42 258.456 Q 1165.87 257.3, 1166.94 256.661 Q 1168.01 256.005, 1169.5 256.005 Q 1171.34 256.005, 1172.38 257.006 Q 1173.41 258.007, 1173.41 259.785 Q 1173.41 261.597, 1172.07 263.288 Q 1170.74 264.979, 1167.98 266.981 L 1173.62 266.981 L 1173.62 268.362 L 1165.39 268.362 L 1165.39 267.205 Q 1167.67 265.583, 1169.01 264.375 Q 1170.38 263.167, 1171.03 262.08 Q 1171.69 260.993, 1171.69 259.871 Q 1171.69 258.697, 1171.1 258.042 Q 1170.52 257.386, 1169.5 257.386 Q 1168.51 257.386, 1167.86 257.783 Q 1167.2 258.18, 1166.74 259.06 L 1165.42 258.456 " fill="#000000"/>
<path class="note" d="M 1179.14 268.5 Q 1176.9 268.5, 1175.78 266.843 Q 1174.67 265.186, 1174.67 262.235 Q 1174.67 259.284, 1175.78 257.645 Q 1176.88 256.005, 1179.14 256.005 Q 1181.4 256.005, 1182.51 257.645 Q 1183.61 259.284, 1183.61 262.235 Q 1183.61 265.186, 1182.49 266.843 Q 1181.39 268.5, 1179.14 268.5 M 1179.14 267.119 Q 1180.47 267.119, 1181.18 265.894 Q 1181.89 264.651, 1181.89 262.235 Q 1181.89 259.836, 1181.18 258.611 Q 1180.47 257.386, 1179.14 257.386 Q 1177.83 257.386, 1177.11 258.611 Q 1176.4 259.836, 1176.4 262.235 Q 1176.4 264.651, 1177.11 265.894 Q 1177.83 267.119, 1179.14 267.119 " fill="#000000"/>
<path class="note" d="M 1192.01 367.65 L 1194.68 367.65 L 1194.68 358.521 L 1191.73 359.435 L 1191.33 358.417 L 1195.08 356.743 L 1196.3 356.95 L 1196.3 367.65 L 1198.7 367.65 L 1198.7 369.031 L 1192.01 369.031 L 1192.01 367.65 " fill="#000000"/>
<path class="note" d="M 1204.66 361.403 Q 1205.73 361.403, 1206.57 361.869 Q 1207.42 362.335, 1207.88 363.18 Q 1208.35 364.026, 1208.35 365.096 Q 1208.35 366.287, 1207.82 367.218 Q 1207.3 368.133, 1206.37 368.651 Q 1205.43 369.169, 1204.24 369.169 Q 1202.07 369.169, 1200.96 367.702 Q 1199.88 366.218, 1199.88 363.284 Q 1199.88 360.039, 1201.22 358.365 Q 1202.59 356.674, 1205.19 356.674 Q 1205.95 356.674, 1206.59 356.847 Q 1207.25 357.019, 1207.87 357.382 L 1207.19 358.538 Q 1206.3 358.055, 1205.21 358.055 Q 1203.48 358.055, 1202.6 359.176 Q 1201.72 360.281, 1201.62 362.576 Q 1202.24 362.007, 1203.02 361.713 Q 1203.81 361.403, 1204.66 361.403 M 1204.26 367.753 Q 1204.92 367.753, 1205.45 367.408 Q 1206 367.063, 1206.31 366.459 Q 1206.62 365.855, 1206.62 365.113 Q 1206.62 364.026, 1206.02 363.405 Q 1205.42 362.783, 1204.35 362.783 Q 1203.6 362.783, 1202.86 363.094 Q 1202.14 363.387, 1201.62 363.905 Q 1201.69 365.924, 1202.33 366.839 Q 1202.97 367.753, 1204.26 367.753 " fill="#000000"/>
<path class="note" d="M 1259.66 197.001 L 1262.33 197.001 L 1262.33 187.872 L 1259.38 188.787 L 1258.98 187.769 L 1262.73 186.095 L 1263.95 186.302 L 1263.95 197.001 L 1266.35 197.001 L 1266.35 198.382 L 1259.66 198.382 L 1259.66 197.001 " fill="#000000"/>
<path class="note" d="M 1271.41 186.026 Q 1273.58 186.026, 1274.67 187.51 Q 1275.77 188.977, 1275.77 191.91 Q 1275.77 195.155, 1274.41 196.846 Q 1273.07 198.52, 1270.46 198.52 Q 1269.7 198.52, 1269.04 198.347 Q 1268.41 198.175, 1267.78 197.812 L 1268.46 196.656 Q 1269.36 197.139, 1270.44 197.139 Q 1272.17 197.139, 1273.05 196.035 Q 1273.93 194.913, 1274.03 192.618 Q 1273.41 193.187, 1272.62 193.498 Q 1271.84 193.791, 1270.99 193.791 Q 1269.92 193.791, 1269.08 193.325 Q 1268.23 192.86, 1267.77 192.014 Q 1267.3 191.168, 1267.3 190.098 Q 1267.3 188.908, 1267.82 187.993 Q 1268.35 187.061, 1269.29 186.543 Q 1270.22 186.026, 1271.41 186.026 M 1269.03 190.081 Q 1269.03 191.168, 1269.63 191.79 Q 1270.24 192.411, 1271.31 192.411 Q 1272.05 192.411, 1272.77 192.117 Q 1273.51 191.807, 1274.03 191.289 Q 1273.96 189.27, 1273.32 188.355 Q 1272.69 187.441, 1271.39 187.441 Q 1270.74 187.441, 1270.18 187.786 Q 1269.65 188.131, 1269.34 188.735 Q 1269.03 189.339, 1269.03 190.081 " fill="#000000"/>
<path class="note" d="M 1770.37 228.798 Q 1771.56 229.143, 1772.13 229.919 Q 1772.72 230.679, 1772.72 231.887 Q 1772.72 232.922, 1772.2 233.733 Q 1771.68 234.527, 1770.73 234.976 Q 1769.78 235.407, 1768.54 235.407 Q 1767.23 235.407, 1766.25 234.958 Q 1765.28 234.493, 1764.5 233.561 L 1765.49 232.56 Q 1766.25 233.388, 1766.88 233.716 Q 1767.52 234.027, 1768.54 234.027 Q 1769.65 234.027, 1770.32 233.44 Q 1770.99 232.836, 1770.99 231.869 Q 1770.99 230.627, 1770.28 230.075 Q 1769.59 229.505, 1768.09 229.505 L 1767.21 229.505 L 1767.21 228.263 L 1767.99 228.263 Q 1769.32 228.245, 1770.02 227.676 Q 1770.73 227.089, 1770.73 226.002 Q 1770.73 225.208, 1770.15 224.742 Q 1769.56 224.259, 1768.56 224.259 Q 1767.54 224.259, 1766.9 224.621 Q 1766.28 224.984, 1765.8 225.898 L 1764.61 225.26 Q 1765.04 224.242, 1766.07 223.569 Q 1767.11 222.878, 1768.56 222.878 Q 1770.35 222.878, 1771.41 223.724 Q 1772.46 224.569, 1772.46 226.002 Q 1772.46 226.986, 1771.92 227.693 Q 1771.39 228.401, 1770.37 228.798 " fill="#000000"/>
<path class="note" d="M 1678.37 268.336 L 1679.83 268.336 L 1679.83 269.716 L 1678.37 269.716 L 1678.37 272.529 L 1676.75 272.529 L 1676.75 269.716 L 1670.43 269.716 L 1670.43 268.629 L 1675.78 260.311 L 1678.37 260.311 L 1678.37 268.336 M 1672.43 268.336 L 1676.75 268.336 L 1676.75 261.415 L 1672.43 268.336 " fill="#000000"/>
<path class="note" d="M 1632.29 339.611 Q 1633.36 339.611, 1634.24 340.077 Q 1635.12 340.526, 1635.62 341.389 Q 1636.12 342.235, 1636.12 343.391 Q 1636.12 344.651, 1635.5 345.565 Q 1634.9 346.463, 1633.89 346.929 Q 1632.89 347.395, 1631.75 347.395 Q 1630.63 347.395, 1629.6 346.98 Q 1628.56 346.566, 1627.85 345.772 L 1628.89 344.702 Q 1629.46 345.324, 1630.24 345.669 Q 1631.01 345.997, 1631.81 345.997 Q 1632.89 345.997, 1633.64 345.324 Q 1634.4 344.651, 1634.4 343.425 Q 1634.4 342.131, 1633.64 341.527 Q 1632.89 340.906, 1631.7 340.906 Q 1630.63 340.906, 1629.44 341.372 L 1628.49 340.923 L 1629.08 335.038 L 1635.36 335.038 L 1635.19 336.419 L 1630.49 336.419 L 1630.13 340.043 Q 1631.22 339.611, 1632.29 339.611 " fill="#000000"/>
<path class="note" d="M 1531.86 339.698 Q 1532.93 339.698, 1533.78 340.164 Q 1534.62 340.63, 1535.09 341.475 Q 1535.56 342.321, 1535.56 343.391 Q 1535.56 344.582, 1535.02 345.514 Q 1534.5 346.428, 1533.57 346.946 Q 1532.64 347.464, 1531.45 347.464 Q 1529.27 347.464, 1528.17 345.997 Q 1527.08 344.513, 1527.08 341.579 Q 1527.08 338.334, 1528.43 336.66 Q 1529.79 334.969, 1532.4 334.969 Q 1533.16 334.969, 1533.8 335.142 Q 1534.45 335.314, 1535.07 335.677 L 1534.4 336.833 Q 1533.5 336.35, 1532.41 336.35 Q 1530.69 336.35, 1529.81 337.472 Q 1528.93 338.576, 1528.83 340.871 Q 1529.45 340.302, 1530.22 340.008 Q 1531.02 339.698, 1531.86 339.698 M 1531.47 346.049 Q 1532.12 346.049, 1532.66 345.703 Q 1533.21 345.358, 1533.52 344.754 Q 1533.83 344.15, 1533.83 343.408 Q 1533.83 342.321, 1533.23 341.7 Q 1532.62 341.078, 1531.55 341.078 Q 1530.81 341.078, 1530.07 341.389 Q 1529.34 341.682, 1528.83 342.2 Q 1528.89 344.219, 1529.53 345.134 Q 1530.17 346.049, 1531.47 346.049 " fill="#000000"/>
<path class="note" d="M 1483.33 249.237 L 1476.93 249.237 L 1476.93 247.856 L 1485.04 247.856 L 1485.04 249.082 L 1480.1 260.075 L 1478.45 260.075 L 1483.33 249.237 " fill="#000000"/>
<path class="note" d="M 1533.23 166.49 Q 1534.36 166.973, 1534.99 167.698 Q 1535.63 168.406, 1535.63 169.614 Q 1535.63 170.649, 1535.1 171.46 Q 1534.56 172.254, 1533.6 172.703 Q 1532.65 173.134, 1531.39 173.134 Q 1529.35 173.134, 1528.18 172.203 Q 1527 171.253, 1527 169.614 Q 1527 168.613, 1527.52 167.871 Q 1528.04 167.112, 1529.11 166.542 Q 1528.32 166.093, 1527.88 165.438 Q 1527.45 164.765, 1527.45 163.729 Q 1527.45 162.297, 1528.49 161.451 Q 1529.54 160.605, 1531.32 160.605 Q 1533.1 160.605, 1534.13 161.451 Q 1535.18 162.297, 1535.18 163.729 Q 1535.18 164.626, 1534.68 165.299 Q 1534.2 165.955, 1533.23 166.49 M 1531.32 161.9 Q 1530.3 161.9, 1529.73 162.383 Q 1529.18 162.866, 1529.18 163.729 Q 1529.18 164.368, 1529.56 164.799 Q 1529.94 165.213, 1530.47 165.455 Q 1531.03 165.696, 1532.08 166.059 Q 1532.82 165.541, 1533.13 164.989 Q 1533.46 164.437, 1533.46 163.729 Q 1533.46 162.866, 1532.89 162.383 Q 1532.34 161.9, 1531.32 161.9 M 1531.39 171.84 Q 1532.53 171.84, 1533.22 171.236 Q 1533.91 170.615, 1533.91 169.597 Q 1533.91 168.941, 1533.54 168.527 Q 1533.18 168.112, 1532.63 167.871 Q 1532.1 167.629, 1531.13 167.319 L 1530.35 167.06 Q 1529.49 167.577, 1529.11 168.199 Q 1528.73 168.803, 1528.73 169.597 Q 1528.73 170.615, 1529.45 171.236 Q 1530.18 171.84, 1531.39 171.84 " fill="#000000"/>
<path class="note" d="M 1631.86 160.605 Q 1634.03 160.605, 1635.12 162.09 Q 1636.22 163.556, 1636.22 166.49 Q 1636.22 169.735, 1634.86 171.426 Q 1633.52 173.1, 1630.91 173.1 Q 1630.15 173.1, 1629.49 172.927 Q 1628.86 172.755, 1628.23 172.392 L 1628.91 171.236 Q 1629.8 171.719, 1630.89 171.719 Q 1632.62 171.719, 1633.5 170.615 Q 1634.38 169.493, 1634.48 167.198 Q 1633.86 167.767, 1633.07 168.078 Q 1632.29 168.371, 1631.44 168.371 Q 1630.37 168.371, 1629.53 167.905 Q 1628.68 167.439, 1628.22 166.594 Q 1627.75 165.748, 1627.75 164.678 Q 1627.75 163.487, 1628.27 162.573 Q 1628.8 161.641, 1629.74 161.123 Q 1630.67 160.605, 1631.86 160.605 M 1629.48 164.661 Q 1629.48 165.748, 1630.08 166.369 Q 1630.68 166.991, 1631.75 166.991 Q 1632.5 166.991, 1633.22 166.697 Q 1633.96 166.387, 1634.48 165.869 Q 1634.41 163.85, 1633.77 162.935 Q 1633.14 162.021, 1631.84 162.021 Q 1631.19 162.021, 1630.63 162.366 Q 1630.1 162.711, 1629.79 163.315 Q 1629.48 163.919, 1629.48 164.661 " fill="#000000"/>
<path class="note" d="M 2457.27 117.084 L 2459.95 117.084 L 2459.95 107.955 L 2457 108.869 L 2456.6 107.851 L 2460.34 106.177 L 2461.57 106.384 L 2461.57 117.084 L 2463.97 117.084 L 2463.97 118.465 L 2457.27 118.465 L 2457.27 117.084 " fill="#000000"/>
<path class="note" d="M 2533.79 212.19 Q 2534.24 211.034, 2535.31 210.395 Q 2536.38 209.739, 2537.86 209.739 Q 2539.71 209.739, 2540.75 210.74 Q 2541.78 211.741, 2541.78 213.519 Q 2541.78 215.331, 2540.44 217.022 Q 2539.11 218.713, 2536.35 220.715 L 2541.99 220.715 L 2541.99 222.096 L 2533.76 222.096 L 2533.76 220.939 Q 2536.04 219.317, 2537.38 218.109 Q 2538.75 216.901, 2539.4 215.814 Q 2540.06 214.727, 2540.06 213.605 Q 2540.06 212.431, 2539.47 211.776 Q 2538.88 211.12, 2537.86 211.12 Q 2536.88 211.12, 2536.23 211.517 Q 2535.57 211.914, 2535.1 212.794 L 2533.79 212.19 " fill="#000000"/>
<path class="note" d="M 2514.31 306.498 Q 2515.5 306.843, 2516.07 307.62 Q 2516.65 308.379, 2516.65 309.587 Q 2516.65 310.623, 2516.14 311.434 Q 2515.62 312.228, 2514.67 312.677 Q 2513.72 313.108, 2512.48 313.108 Q 2511.17 313.108, 2510.18 312.659 Q 2509.22 312.193, 2508.44 311.261 L 2509.42 310.26 Q 2510.18 311.089, 2510.82 311.417 Q 2511.46 311.727, 2512.48 311.727 Q 2513.58 311.727, 2514.26 311.141 Q 2514.93 310.537, 2514.93 309.57 Q 2514.93 308.328, 2514.22 307.775 Q 2513.53 307.206, 2512.03 307.206 L 2511.15 307.206 L 2511.15 305.963 L 2511.93 305.963 Q 2513.25 305.946, 2513.96 305.377 Q 2514.67 304.79, 2514.67 303.703 Q 2514.67 302.909, 2514.08 302.443 Q 2513.5 301.96, 2512.49 301.96 Q 2511.48 301.96, 2510.84 302.322 Q 2510.22 302.684, 2509.73 303.599 L 2508.54 302.961 Q 2508.97 301.942, 2510.01 301.269 Q 2511.05 300.579, 2512.49 300.579 Q 2514.29 300.579, 2515.34 301.425 Q 2516.4 302.27, 2516.4 303.703 Q 2516.4 304.686, 2515.86 305.394 Q 2515.33 306.101, 2514.31 306.498 " fill="#000000"/>
<path class="note" d="M 2418.52 282.694 L 2419.99 282.694 L 2419.99 284.075 L 2418.52 284.075 L 2418.52 286.888 L 2416.9 286.888 L 2416.9 284.075 L 2410.58 284.075 L 2410.58 282.988 L 2415.93 274.67 L 2418.52 274.67 L 2418.52 282.694 M 2412.59 282.694 L 2416.9 282.694 L 2416.9 275.774 L 2412.59 282.694 " fill="#000000"/>
<path class="note" d="M 2363.86 210.178 Q 2364.93 210.178, 2365.81 210.644 Q 2366.69 211.093, 2367.19 211.956 Q 2367.69 212.802, 2367.69 213.958 Q 2367.69 215.218, 2367.07 216.132 Q 2366.47 217.03, 2365.47 217.496 Q 2364.47 217.962, 2363.33 217.962 Q 2362.21 217.962, 2361.17 217.547 Q 2360.13 217.133, 2359.43 216.339 L 2360.46 215.269 Q 2361.03 215.891, 2361.81 216.236 Q 2362.59 216.564, 2363.38 216.564 Q 2364.47 216.564, 2365.21 215.891 Q 2365.97 215.218, 2365.97 213.992 Q 2365.97 212.698, 2365.21 212.094 Q 2364.47 211.473, 2363.28 211.473 Q 2362.21 211.473, 2361.02 211.939 L 2360.07 211.49 L 2360.65 205.605 L 2366.93 205.605 L 2366.76 206.986 L 2362.07 206.986 L 2361.71 210.61 Q 2362.79 210.178, 2363.86 210.178 " fill="#000000"/>
<path class="note" d="M 2264.15 222.24 Q 2265.22 222.24, 2266.07 222.706 Q 2266.91 223.172, 2267.38 224.018 Q 2267.84 224.863, 2267.84 225.933 Q 2267.84 227.124, 2267.31 228.056 Q 2266.79 228.97, 2265.86 229.488 Q 2264.93 230.006, 2263.74 230.006 Q 2261.56 230.006, 2260.46 228.539 Q 2259.37 227.055, 2259.37 224.121 Q 2259.37 220.877, 2260.72 219.203 Q 2262.08 217.511, 2264.68 217.511 Q 2265.44 217.511, 2266.08 217.684 Q 2266.74 217.857, 2267.36 218.219 L 2266.69 219.375 Q 2265.79 218.892, 2264.7 218.892 Q 2262.98 218.892, 2262.1 220.014 Q 2261.22 221.118, 2261.11 223.414 Q 2261.73 222.844, 2262.51 222.551 Q 2263.3 222.24, 2264.15 222.24 M 2263.75 228.591 Q 2264.41 228.591, 2264.94 228.246 Q 2265.5 227.901, 2265.81 227.296 Q 2266.12 226.692, 2266.12 225.95 Q 2266.12 224.863, 2265.51 224.242 Q 2264.91 223.621, 2263.84 223.621 Q 2263.1 223.621, 2262.36 223.931 Q 2261.63 224.225, 2261.11 224.742 Q 2261.18 226.762, 2261.82 227.676 Q 2262.46 228.591, 2263.75 228.591 " fill="#000000"/>
<path class="note" d="M 2226.35 311.512 L 2219.94 311.512 L 2219.94 310.131 L 2228.06 310.131 L 2228.06 311.356 L 2223.12 322.349 L 2221.46 322.349 L 2226.35 311.512 " fill="#000000"/>
<path class="note" d="M 2286.26 396.522 Q 2287.39 397.005, 2288.02 397.73 Q 2288.66 398.438, 2288.66 399.646 Q 2288.66 400.681, 2288.13 401.492 Q 2287.59 402.286, 2286.63 402.735 Q 2285.68 403.166, 2284.42 403.166 Q 2282.38 403.166, 2281.21 402.234 Q 2280.03 401.285, 2280.03 399.646 Q 2280.03 398.645, 2280.55 397.903 Q 2281.07 397.143, 2282.14 396.574 Q 2281.35 396.125, 2280.91 395.469 Q 2280.48 394.796, 2280.48 393.761 Q 2280.48 392.328, 2281.52 391.483 Q 2282.57 390.637, 2284.35 390.637 Q 2286.13 390.637, 2287.16 391.483 Q 2288.21 392.328, 2288.21 393.761 Q 2288.21 394.658, 2287.71 395.331 Q 2287.23 395.987, 2286.26 396.522 M 2284.35 391.931 Q 2283.33 391.931, 2282.76 392.415 Q 2282.21 392.898, 2282.21 393.761 Q 2282.21 394.399, 2282.59 394.831 Q 2282.97 395.245, 2283.5 395.486 Q 2284.05 395.728, 2285.11 396.09 Q 2285.85 395.573, 2286.16 395.021 Q 2286.49 394.468, 2286.49 393.761 Q 2286.49 392.898, 2285.92 392.415 Q 2285.37 391.931, 2284.35 391.931 M 2284.42 401.872 Q 2285.56 401.872, 2286.25 401.268 Q 2286.94 400.646, 2286.94 399.628 Q 2286.94 398.973, 2286.57 398.558 Q 2286.21 398.144, 2285.66 397.903 Q 2285.12 397.661, 2284.16 397.35 L 2283.38 397.091 Q 2282.52 397.609, 2282.14 398.23 Q 2281.76 398.834, 2281.76 399.628 Q 2281.76 400.646, 2282.48 401.268 Q 2283.21 401.872, 2284.42 401.872 " fill="#000000"/>
<path class="note" d="M 2384.17 378.662 Q 2386.35 378.662, 2387.43 380.146 Q 2388.54 381.613, 2388.54 384.547 Q 2388.54 387.791, 2387.18 389.482 Q 2385.83 391.156, 2383.22 391.156 Q 2382.46 391.156, 2381.81 390.984 Q 2381.17 390.811, 2380.55 390.449 L 2381.22 389.292 Q 2382.12 389.776, 2383.21 389.776 Q 2384.93 389.776, 2385.81 388.671 Q 2386.69 387.549, 2386.8 385.254 Q 2386.17 385.824, 2385.38 386.134 Q 2384.6 386.428, 2383.76 386.428 Q 2382.69 386.428, 2381.84 385.962 Q 2381 385.496, 2380.53 384.65 Q 2380.07 383.805, 2380.07 382.735 Q 2380.07 381.544, 2380.58 380.629 Q 2381.12 379.697, 2382.05 379.18 Q 2382.98 378.662, 2384.17 378.662 M 2381.79 382.717 Q 2381.79 383.805, 2382.4 384.426 Q 2383 385.047, 2384.07 385.047 Q 2384.81 385.047, 2385.54 384.754 Q 2386.28 384.443, 2386.8 383.925 Q 2386.73 381.906, 2386.09 380.992 Q 2385.45 380.077, 2384.16 380.077 Q 2383.5 380.077, 2382.95 380.422 Q 2382.41 380.767, 2382.1 381.371 Q 2381.79 381.975, 2381.79 382.717 " fill="#000000"/>
<path class="note" d="M 2591.92 225.383 L 2594.59 225.383 L 2594.59 216.254 L 2591.64 217.168 L 2591.25 216.15 L 2594.99 214.476 L 2596.22 214.683 L 2596.22 225.383 L 2598.62 225.383 L 2598.62 226.763 L 2591.92 226.763 L 2591.92 225.383 " fill="#000000"/>
<path class="note" d="M 2604.14 226.901 Q 2601.89 226.901, 2600.77 225.245 Q 2599.67 223.588, 2599.67 220.637 Q 2599.67 217.686, 2600.77 216.046 Q 2601.88 214.407, 2604.14 214.407 Q 2606.4 214.407, 2607.5 216.046 Q 2608.61 217.686, 2608.61 220.637 Q 2608.61 223.588, 2607.49 225.245 Q 2606.38 226.901, 2604.14 226.901 M 2604.14 225.521 Q 2605.47 225.521, 2606.17 224.296 Q 2606.88 223.053, 2606.88 220.637 Q 2606.88 218.238, 2606.17 217.013 Q 2605.47 215.788, 2604.14 215.788 Q 2602.83 215.788, 2602.1 217.013 Q 2601.39 218.238, 2601.39 220.637 Q 2601.39 223.053, 2602.1 224.296 Q 2602.83 225.521, 2604.14 225.521 " fill="#000000"/>
<path class="note" d="M 2644.49 294.413 L 2647.17 294.413 L 2647.17 285.283 L 2644.22 286.198 L 2643.82 285.18 L 2647.56 283.506 L 2648.79 283.713 L 2648.79 294.413 L 2651.19 294.413 L 2651.19 295.793 L 2644.49 295.793 L 2644.49 294.413 " fill="#000000"/>
<path class="note" d="M 2652.79 294.413 L 2655.47 294.413 L 2655.47 285.283 L 2652.52 286.198 L 2652.12 285.18 L 2655.86 283.506 L 2657.09 283.713 L 2657.09 294.413 L 2659.49 294.413 L 2659.49 295.793 L 2652.79 295.793 L 2652.79 294.413 " fill="#000000"/>
<path class="note" d="M 2729.77 284.183 L 2732.44 284.183 L 2732.44 275.053 L 2729.49 275.968 L 2729.1 274.95 L 2732.84 273.276 L 2734.07 273.483 L 2734.07 284.183 L 2736.47 284.183 L 2736.47 285.563 L 2729.77 285.563 L 2729.77 284.183 " fill="#000000"/>
<path class="note" d="M 2737.36 275.657 Q 2737.81 274.501, 2738.88 273.863 Q 2739.95 273.207, 2741.44 273.207 Q 2743.28 273.207, 2744.32 274.208 Q 2745.35 275.209, 2745.35 276.986 Q 2745.35 278.798, 2744.01 280.49 Q 2742.68 282.181, 2739.92 284.183 L 2745.56 284.183 L 2745.56 285.563 L 2737.33 285.563 L 2737.33 284.407 Q 2739.61 282.785, 2740.95 281.577 Q 2742.32 280.369, 2742.97 279.281 Q 2743.63 278.194, 2743.63 277.073 Q 2743.63 275.899, 2743.04 275.243 Q 2742.45 274.587, 2741.44 274.587 Q 2740.45 274.587, 2739.8 274.984 Q 2739.14 275.381, 2738.67 276.261 L 2737.36 275.657 " fill="#000000"/>
<path class="note" d="M 2810.13 349.826 L 2812.81 349.826 L 2812.81 340.696 L 2809.86 341.611 L 2809.46 340.593 L 2813.2 338.919 L 2814.43 339.126 L 2814.43 349.826 L 2816.83 349.826 L 2816.83 351.206 L 2810.13 351.206 L 2810.13 349.826 " fill="#000000"/>
<path class="note" d="M 2823.42 344.769 Q 2824.61 345.114, 2825.18 345.891 Q 2825.77 346.65, 2825.77 347.858 Q 2825.77 348.894, 2825.25 349.705 Q 2824.73 350.499, 2823.78 350.947 Q 2822.83 351.379, 2821.59 351.379 Q 2820.28 351.379, 2819.3 350.93 Q 2818.33 350.464, 2817.55 349.532 L 2818.54 348.531 Q 2819.3 349.36, 2819.94 349.687 Q 2820.57 349.998, 2821.59 349.998 Q 2822.7 349.998, 2823.37 349.411 Q 2824.04 348.807, 2824.04 347.841 Q 2824.04 346.598, 2823.33 346.046 Q 2822.64 345.477, 2821.14 345.477 L 2820.26 345.477 L 2820.26 344.234 L 2821.04 344.234 Q 2822.37 344.217, 2823.08 343.647 Q 2823.78 343.061, 2823.78 341.973 Q 2823.78 341.179, 2823.2 340.714 Q 2822.61 340.23, 2821.61 340.23 Q 2820.59 340.23, 2819.95 340.593 Q 2819.33 340.955, 2818.85 341.87 L 2817.66 341.231 Q 2818.09 340.213, 2819.12 339.54 Q 2820.16 338.85, 2821.61 338.85 Q 2823.4 338.85, 2824.46 339.695 Q 2825.51 340.541, 2825.51 341.973 Q 2825.51 342.957, 2824.97 343.665 Q 2824.44 344.372, 2823.42 344.769 " fill="#000000"/>
<path class="note" d="M 2872.42 329.726 L 2875.09 329.726 L 2875.09 320.597 L 2872.14 321.512 L 2871.74 320.494 L 2875.49 318.82 L 2876.71 319.027 L 2876.71 329.726 L 2879.11 329.726 L 2879.11 331.107 L 2872.42 331.107 L 2872.42 329.726 " fill="#000000"/>
<path class="note" d="M 2887.57 326.913 L 2889.03 326.913 L 2889.03 328.294 L 2887.57 328.294 L 2887.57 331.107 L 2885.95 331.107 L 2885.95 328.294 L 2879.63 328.294 L 2879.63 327.207 L 2884.98 318.889 L 2887.57 318.889 L 2887.57 326.913 M 2881.63 326.913 L 2885.95 326.913 L 2885.95 319.993 L 2881.63 326.913 " fill="#000000"/>
<path class="note" d="M 2929.7 260.197 L 2932.37 260.197 L 2932.37 251.068 L 2929.42 251.983 L 2929.02 250.965 L 2932.77 249.291 L 2933.99 249.498 L 2933.99 260.197 L 2936.39 260.197 L 2936.39 261.578 L 2929.7 261.578 L 2929.7 260.197 " fill="#000000"/>
<path class="note" d="M 2941.62 253.933 Q 2942.69 253.933, 2943.57 254.399 Q 2944.45 254.848, 2944.95 255.71 Q 2945.45 256.556, 2945.45 257.712 Q 2945.45 258.972, 2944.83 259.887 Q 2944.23 260.784, 2943.23 261.25 Q 2942.22 261.716, 2941.09 261.716 Q 2939.96 261.716, 2938.93 261.302 Q 2937.89 260.888, 2937.19 260.094 L 2938.22 259.024 Q 2938.79 259.645, 2939.57 259.99 Q 2940.34 260.318, 2941.14 260.318 Q 2942.22 260.318, 2942.97 259.645 Q 2943.73 258.972, 2943.73 257.747 Q 2943.73 256.453, 2942.97 255.849 Q 2942.22 255.227, 2941.03 255.227 Q 2939.96 255.227, 2938.77 255.693 L 2937.82 255.245 L 2938.41 249.36 L 2944.69 249.36 L 2944.52 250.74 L 2939.83 250.74 L 2939.46 254.364 Q 2940.55 253.933, 2941.62 253.933 " fill="#000000"/>
<path class="note" d="M 3026.39 223.524 L 3029.07 223.524 L 3029.07 214.395 L 3026.12 215.31 L 3025.72 214.292 L 3029.46 212.618 L 3030.69 212.825 L 3030.69 223.524 L 3033.09 223.524 L 3033.09 224.905 L 3026.39 224.905 L 3026.39 223.524 " fill="#000000"/>
<path class="note" d="M 3039.04 217.277 Q 3040.11 217.277, 3040.96 217.743 Q 3041.8 218.209, 3042.27 219.055 Q 3042.74 219.9, 3042.74 220.97 Q 3042.74 222.161, 3042.2 223.093 Q 3041.68 224.008, 3040.75 224.525 Q 3039.82 225.043, 3038.63 225.043 Q 3036.45 225.043, 3035.35 223.576 Q 3034.26 222.092, 3034.26 219.158 Q 3034.26 215.914, 3035.61 214.24 Q 3036.97 212.549, 3039.58 212.549 Q 3040.34 212.549, 3040.98 212.721 Q 3041.63 212.894, 3042.25 213.256 L 3041.58 214.412 Q 3040.68 213.929, 3039.6 213.929 Q 3037.87 213.929, 3036.99 215.051 Q 3036.11 216.155, 3036.01 218.451 Q 3036.63 217.881, 3037.4 217.588 Q 3038.2 217.277, 3039.04 217.277 M 3038.65 223.628 Q 3039.3 223.628, 3039.84 223.283 Q 3040.39 222.938, 3040.7 222.334 Q 3041.01 221.73, 3041.01 220.988 Q 3041.01 219.9, 3040.41 219.279 Q 3039.8 218.658, 3038.73 218.658 Q 3037.99 218.658, 3037.25 218.968 Q 3036.52 219.262, 3036.01 219.78 Q 3036.07 221.799, 3036.71 222.713 Q 3037.35 223.628, 3038.65 223.628 " fill="#000000"/>
<path class="note" d="M 2872.36 141.669 L 2875.04 141.669 L 2875.04 132.539 L 2872.09 133.454 L 2871.69 132.436 L 2875.43 130.762 L 2876.66 130.969 L 2876.66 141.669 L 2879.06 141.669 L 2879.06 143.049 L 2872.36 143.049 L 2872.36 141.669 " fill="#000000"/>
<path class="note" d="M 2885.77 132.211 L 2879.37 132.211 L 2879.37 130.831 L 2887.48 130.831 L 2887.48 132.056 L 2882.54 143.049 L 2880.89 143.049 L 2885.77 132.211 " fill="#000000"/>
<path class="note" d="M 2786.05 151.968 L 2788.72 151.968 L 2788.72 142.838 L 2785.77 143.753 L 2785.38 142.735 L 2789.12 141.061 L 2790.35 141.268 L 2790.35 151.968 L 2792.74 151.968 L 2792.74 153.348 L 2786.05 153.348 L 2786.05 151.968 " fill="#000000"/>
<path class="note" d="M 2800.04 146.877 Q 2801.17 147.36, 2801.8 148.085 Q 2802.44 148.792, 2802.44 150 Q 2802.44 151.036, 2801.91 151.847 Q 2801.37 152.641, 2800.41 153.089 Q 2799.46 153.521, 2798.2 153.521 Q 2796.16 153.521, 2794.99 152.589 Q 2793.81 151.64, 2793.81 150 Q 2793.81 148.999, 2794.33 148.257 Q 2794.85 147.498, 2795.92 146.928 Q 2795.13 146.48, 2794.69 145.824 Q 2794.26 145.151, 2794.26 144.115 Q 2794.26 142.683, 2795.3 141.837 Q 2796.35 140.992, 2798.13 140.992 Q 2799.91 140.992, 2800.94 141.837 Q 2801.99 142.683, 2801.99 144.115 Q 2801.99 145.013, 2801.49 145.686 Q 2801.01 146.342, 2800.04 146.877 M 2798.13 142.286 Q 2797.11 142.286, 2796.54 142.769 Q 2795.99 143.253, 2795.99 144.115 Q 2795.99 144.754, 2796.37 145.185 Q 2796.75 145.6, 2797.28 145.841 Q 2797.84 146.083, 2798.89 146.445 Q 2799.63 145.928, 2799.94 145.375 Q 2800.27 144.823, 2800.27 144.115 Q 2800.27 143.253, 2799.7 142.769 Q 2799.15 142.286, 2798.13 142.286 M 2798.2 152.227 Q 2799.34 152.227, 2800.03 151.622 Q 2800.72 151.001, 2800.72 149.983 Q 2800.72 149.327, 2800.35 148.913 Q 2799.99 148.499, 2799.44 148.257 Q 2798.91 148.016, 2797.94 147.705 L 2797.16 147.446 Q 2796.3 147.964, 2795.92 148.585 Q 2795.54 149.189, 2795.54 149.983 Q 2795.54 151.001, 2796.26 151.622 Q 2796.99 152.227, 2798.2 152.227 " fill="#000000"/>
<path class="note" d="M 2728.8 96.1247 L 2731.48 96.1247 L 2731.48 86.9955 L 2728.53 87.9101 L 2728.13 86.8919 L 2731.87 85.2179 L 2733.1 85.425 L 2733.1 96.1247 L 2735.5 96.1247 L 2735.5 97.5053 L 2728.8 97.5053 L 2728.8 96.1247 " fill="#000000"/>
<path class="note" d="M 2740.55 85.1489 Q 2742.73 85.1489, 2743.82 86.6331 Q 2744.92 88.1, 2744.92 91.0337 Q 2744.92 94.2782, 2743.56 95.9694 Q 2742.21 97.6434, 2739.6 97.6434 Q 2738.85 97.6434, 2738.19 97.4708 Q 2737.55 97.2982, 2736.93 96.9358 L 2737.6 95.7796 Q 2738.5 96.2628, 2739.59 96.2628 Q 2741.31 96.2628, 2742.19 95.1583 Q 2743.07 94.0365, 2743.18 91.7413 Q 2742.56 92.3108, 2741.76 92.6214 Q 2740.99 92.9148, 2740.14 92.9148 Q 2739.07 92.9148, 2738.22 92.4489 Q 2737.38 91.9829, 2736.91 91.1373 Q 2736.45 90.2917, 2736.45 89.2217 Q 2736.45 88.0309, 2736.96 87.1163 Q 2737.5 86.1844, 2738.43 85.6666 Q 2739.36 85.1489, 2740.55 85.1489 M 2738.17 89.2044 Q 2738.17 90.2917, 2738.78 90.9129 Q 2739.38 91.5342, 2740.45 91.5342 Q 2741.19 91.5342, 2741.92 91.2408 Q 2742.66 90.9302, 2743.18 90.4125 Q 2743.11 88.3933, 2742.47 87.4787 Q 2741.83 86.564, 2740.54 86.564 Q 2739.88 86.564, 2739.33 86.9092 Q 2738.79 87.2543, 2738.48 87.8584 Q 2738.17 88.4624, 2738.17 89.2044 " fill="#000000"/>
<path class="note" d="M 2621.4 112.796 Q 2621.85 111.64, 2622.92 111.002 Q 2623.99 110.346, 2625.48 110.346 Q 2627.32 110.346, 2628.36 111.347 Q 2629.39 112.348, 2629.39 114.125 Q 2629.39 115.937, 2628.05 117.628 Q 2626.72 119.32, 2623.96 121.322 L 2629.6 121.322 L 2629.6 122.702 L 2621.37 122.702 L 2621.37 121.546 Q 2623.65 119.924, 2624.99 118.716 Q 2626.36 117.508, 2627.01 116.42 Q 2627.67 115.333, 2627.67 114.211 Q 2627.67 113.038, 2627.08 112.382 Q 2626.49 111.726, 2625.48 111.726 Q 2624.49 111.726, 2623.84 112.123 Q 2623.18 112.52, 2622.71 113.4 L 2621.4 112.796 " fill="#000000"/>
<path class="note" d="M 2635.12 122.84 Q 2632.88 122.84, 2631.76 121.183 Q 2630.65 119.527, 2630.65 116.576 Q 2630.65 113.625, 2631.76 111.985 Q 2632.86 110.346, 2635.12 110.346 Q 2637.38 110.346, 2638.49 111.985 Q 2639.59 113.625, 2639.59 116.576 Q 2639.59 119.527, 2638.47 121.183 Q 2637.37 122.84, 2635.12 122.84 M 2635.12 121.46 Q 2636.45 121.46, 2637.16 120.234 Q 2637.87 118.992, 2637.87 116.576 Q 2637.87 114.177, 2637.16 112.952 Q 2636.45 111.726, 2635.12 111.726 Q 2633.81 111.726, 2633.09 112.952 Q 2632.38 114.177, 2632.38 116.576 Q 2632.38 118.992, 2633.09 120.234 Q 2633.81 121.46, 2635.12 121.46 " fill="#000000"/>
<path class="note" d="M 2567.56 18.9996 Q 2568.01 17.8434, 2569.08 17.2049 Q 2570.15 16.5491, 2571.63 16.5491 Q 2573.48 16.5491, 2574.51 17.55 Q 2575.55 18.5509, 2575.55 20.3285 Q 2575.55 22.1405, 2574.2 23.8318 Q 2572.87 25.523, 2570.11 27.5249 L 2575.76 27.5249 L 2575.76 28.9055 L 2567.52 28.9055 L 2567.52 27.7492 Q 2569.8 26.127, 2571.15 24.919 Q 2572.51 23.711, 2573.17 22.6237 Q 2573.82 21.5365, 2573.82 20.4148 Q 2573.82 19.2413, 2573.24 18.5855 Q 2572.65 17.9297, 2571.63 17.9297 Q 2570.65 17.9297, 2569.99 18.3266 Q 2569.34 18.7235, 2568.87 19.6037 L 2567.56 18.9996 " fill="#000000"/>
<path class="note" d="M 2577.36 27.5249 L 2580.04 27.5249 L 2580.04 18.3956 L 2577.08 19.3103 L 2576.69 18.2921 L 2580.43 16.6181 L 2581.66 16.8252 L 2581.66 27.5249 L 2584.06 27.5249 L 2584.06 28.9055 L 2577.36 28.9055 L 2577.36 27.5249 " fill="#000000"/>
<path class="note" d="M 2932.16 364.672 Q 2932.61 363.516, 2933.68 362.877 Q 2934.75 362.222, 2936.23 362.222 Q 2938.08 362.222, 2939.11 363.223 Q 2940.15 364.223, 2940.15 366.001 Q 2940.15 367.813, 2938.8 369.504 Q 2937.47 371.195, 2934.71 373.197 L 2940.35 373.197 L 2940.35 374.578 L 2932.12 374.578 L 2932.12 373.422 Q 2934.4 371.8, 2935.75 370.591 Q 2937.11 369.383, 2937.77 368.296 Q 2938.42 367.209, 2938.42 366.087 Q 2938.42 364.914, 2937.83 364.258 Q 2937.25 363.602, 2936.23 363.602 Q 2935.25 363.602, 2934.59 363.999 Q 2933.93 364.396, 2933.47 365.276 L 2932.16 364.672 " fill="#000000"/>
<path class="note" d="M 2941.25 364.672 Q 2941.7 363.516, 2942.77 362.877 Q 2943.84 362.222, 2945.32 362.222 Q 2947.17 362.222, 2948.21 363.223 Q 2949.24 364.223, 2949.24 366.001 Q 2949.24 367.813, 2947.9 369.504 Q 2946.57 371.195, 2943.81 373.197 L 2949.45 373.197 L 2949.45 374.578 L 2941.22 374.578 L 2941.22 373.422 Q 2943.5 371.8, 2944.84 370.591 Q 2946.2 369.383, 2946.86 368.296 Q 2947.52 367.209, 2947.52 366.087 Q 2947.52 364.914, 2946.93 364.258 Q 2946.34 363.602, 2945.32 363.602 Q 2944.34 363.602, 2943.69 363.999 Q 2943.03 364.396, 2942.56 365.276 L 2941.25 364.672 " fill="#000000"/>
<path class="note" d="M 2853.44 473.545 Q 2853.89 472.389, 2854.96 471.75 Q 2856.03 471.095, 2857.52 471.095 Q 2859.36 471.095, 2860.4 472.095 Q 2861.43 473.096, 2861.43 474.874 Q 2861.43 476.686, 2860.09 478.377 Q 2858.76 480.068, 2856 482.07 L 2861.64 482.07 L 2861.64 483.451 L 2853.41 483.451 L 2853.41 482.295 Q 2855.69 480.672, 2857.03 479.464 Q 2858.4 478.256, 2859.05 477.169 Q 2859.71 476.082, 2859.71 474.96 Q 2859.71 473.787, 2859.12 473.131 Q 2858.53 472.475, 2857.52 472.475 Q 2856.53 472.475, 2855.88 472.872 Q 2855.22 473.269, 2854.76 474.149 L 2853.44 473.545 " fill="#000000"/>
<path class="note" d="M 2868.23 477.014 Q 2869.42 477.359, 2869.99 478.136 Q 2870.58 478.895, 2870.58 480.103 Q 2870.58 481.138, 2870.06 481.95 Q 2869.54 482.743, 2868.6 483.192 Q 2867.65 483.624, 2866.4 483.624 Q 2865.09 483.624, 2864.11 483.175 Q 2863.14 482.709, 2862.37 481.777 L 2863.35 480.776 Q 2864.11 481.604, 2864.75 481.932 Q 2865.39 482.243, 2866.4 482.243 Q 2867.51 482.243, 2868.18 481.656 Q 2868.85 481.052, 2868.85 480.086 Q 2868.85 478.843, 2868.15 478.291 Q 2867.46 477.721, 2865.96 477.721 L 2865.08 477.721 L 2865.08 476.479 L 2865.85 476.479 Q 2867.18 476.462, 2867.89 475.892 Q 2868.6 475.305, 2868.6 474.218 Q 2868.6 473.424, 2868.01 472.958 Q 2867.42 472.475, 2866.42 472.475 Q 2865.4 472.475, 2864.76 472.838 Q 2864.14 473.2, 2863.66 474.115 L 2862.47 473.476 Q 2862.9 472.458, 2863.94 471.785 Q 2864.97 471.095, 2866.42 471.095 Q 2868.22 471.095, 2869.27 471.94 Q 2870.32 472.786, 2870.32 474.218 Q 2870.32 475.202, 2869.79 475.909 Q 2869.25 476.617, 2868.23 477.014 " fill="#000000"/>
<path class="note" d="M 2757.62 426.445 Q 2758.07 425.289, 2759.14 424.65 Q 2760.21 423.994, 2761.69 423.994 Q 2763.54 423.994, 2764.57 424.995 Q 2765.61 425.996, 2765.61 427.774 Q 2765.61 429.586, 2764.26 431.277 Q 2762.93 432.968, 2760.17 434.97 L 2765.82 434.97 L 2765.82 436.351 L 2757.58 436.351 L 2757.58 435.194 Q 2759.86 433.572, 2761.21 432.364 Q 2762.57 431.156, 2763.23 430.069 Q 2763.88 428.982, 2763.88 427.86 Q 2763.88 426.687, 2763.3 426.031 Q 2762.71 425.375, 2761.69 425.375 Q 2760.71 425.375, 2760.05 425.772 Q 2759.4 426.169, 2758.93 427.049 L 2757.62 426.445 " fill="#000000"/>
<path class="note" d="M 2774.27 432.157 L 2775.74 432.157 L 2775.74 433.538 L 2774.27 433.538 L 2774.27 436.351 L 2772.65 436.351 L 2772.65 433.538 L 2766.33 433.538 L 2766.33 432.451 L 2771.68 424.132 L 2774.27 424.132 L 2774.27 432.157 M 2768.33 432.157 L 2772.65 432.157 L 2772.65 425.237 L 2768.33 432.157 " fill="#000000"/>
<path d="M 1388.64 244.919 L 1394.69 244.919 L 1394.69 238.551 L 1397.38 238.551 L 1397.38 244.919 L 1403.58 244.919 L 1403.58 247.223 L 1397.38 247.223 L 1397.38 253.623 L 1394.69 253.623 L 1394.69 247.223 L 1388.64 247.223 L 1388.64 244.919 " fill="#000000"/>
<path d="M 1880.16,247.223 L 2110.26,247.223" style="fill:none;fill-rule:evenodd;stroke:#000000;stroke-width:2.0px;stroke-linecap:butt;stroke-linejoin:miter;stroke-opacity:1"/>
<path d="M 2110.26,247.223 L 2100.3,241.47" style="fill:none;fill-rule:evenodd;stroke:#000000;stroke-width:2.0px;stroke-linecap:butt;stroke-linejoin:miter;stroke-opacity:1"/>
<path d="M 2110.26,247.223 L 2100.3,252.975" style="fill:none;fill-rule:evenodd;stroke:#000000;stroke-width:2.0px;stroke-linecap:butt;stroke-linejoin:miter;stroke-opacity:1"/>
</svg>