<svg xmlns="http://www.w3.org/2000/svg" xmlns:rdkit="http://www.rdkit.org/xml" xmlns:xlink="http://www.w3.org/1999/xlink" version="1.1" baseProfile="full" xml:space="preserve" width="4000px" height="500px" viewBox="0 0 4000 500">
<!-- END OF HEADER -->
<rect style="opacity:1.0;fill:#FFFFFF;stroke:none" width="4000" height="500" x="0" y="0"> </rect>
<path d="M 1435.13,254.928 L 1381.26,223.826" style="fill:none;fill-rule:evenodd;stroke:#FFFFAA;stroke-width:13.3px;stroke-linecap:butt;stroke-linejoin:miter;stroke-opacity:1"/>
<path d="M 1435.13,254.928 L 1489,223.826" style="fill:none;fill-rule:evenodd;stroke:#FFFFAA;stroke-width:13.3px;stroke-linecap:butt;stroke-linejoin:miter;stroke-opacity:1"/>
<path d="M 1435.13,254.928 L 1435.13,317.133" style="fill:none;fill-rule:evenodd;stroke:#FFFFAA;stroke-width:13.3px;stroke-linecap:butt;stroke-linejoin:miter;stroke-opacity:1"/>
<path d="M 1381.26,223.826 L 1327.39,254.928" style="fill:none;fill-rule:evenodd;stroke:#FFFFAA;stroke-width:13.3px;stroke-linecap:butt;stroke-linejoin:miter;stroke-opacity:1"/>
<path d="M 1327.39,254.928 L 1273.51,223.826" style="fill:none;fill-rule:evenodd;stroke:#FFFFAA;stroke-width:13.3px;stroke-linecap:butt;stroke-linejoin:miter;stroke-opacity:1"/>
<path d="M 1327.39,254.928 L 1327.39,317.133" style="fill:none;fill-rule:evenodd;stroke:#FFFFAA;stroke-width:13.3px;stroke-linecap:butt;stroke-linejoin:miter;stroke-opacity:1"/>
<path d="M 1665.37,341.681 L 1700.83,290.576" style="fill:none;fill-rule:evenodd;stroke:#FFCC99;stroke-width:13.3px;stroke-linecap:butt;stroke-linejoin:miter;stroke-opacity:1"/>
<path d="M 1700.83,290.576 L 1674.31,234.31" style="fill:none;fill-rule:evenodd;stroke:#FFCC99;stroke-width:13.3px;stroke-linecap:butt;stroke-linejoin:miter;stroke-opacity:1"/>
<path d="M 1700.83,290.576 L 1762.82,295.735" style="fill:none;fill-rule:evenodd;stroke:#FFCC99;stroke-width:13.3px;stroke-linecap:butt;stroke-linejoin:miter;stroke-opacity:1"/>
<path d="M 1674.31,234.31 L 1709.77,183.205" style="fill:none;fill-rule:evenodd;stroke:#FFCC99;stroke-width:13.3px;stroke-linecap:butt;stroke-linejoin:miter;stroke-opacity:1"/>
<path d="M 1709.77,183.205 L 1771.76,188.364" style="fill:none;fill-rule:evenodd;stroke:#FFCC99;stroke-width:13.3px;stroke-linecap:butt;stroke-linejoin:miter;stroke-opacity:1"/>
<path d="M 1771.76,188.364 L 1798.29,244.629" style="fill:none;fill-rule:evenodd;stroke:#FFCC99;stroke-width:13.3px;stroke-linecap:butt;stroke-linejoin:miter;stroke-opacity:1"/>
<path d="M 1798.29,244.629 L 1860.28,249.789" style="fill:none;fill-rule:evenodd;stroke:#FFCC99;stroke-width:13.3px;stroke-linecap:butt;stroke-linejoin:miter;stroke-opacity:1"/>
<path d="M 1798.29,244.629 L 1762.82,295.735" style="fill:none;fill-rule:evenodd;stroke:#FFCC99;stroke-width:13.3px;stroke-linecap:butt;stroke-linejoin:miter;stroke-opacity:1"/>
<path d="M 1860.28,249.789 L 1886.81,306.054" style="fill:none;fill-rule:evenodd;stroke:#FFCC99;stroke-width:13.3px;stroke-linecap:butt;stroke-linejoin:miter;stroke-opacity:1"/>
<path d="M 2719.2,357.94 L 2673.04,316.239" style="fill:none;fill-rule:evenodd;stroke:#FFCC99;stroke-width:13.3px;stroke-linecap:butt;stroke-linejoin:miter;stroke-opacity:1"/>
<path d="M 2673.04,316.239 L 2613.85,335.361" style="fill:none;fill-rule:evenodd;stroke:#FFCC99;stroke-width:13.3px;stroke-linecap:butt;stroke-linejoin:miter;stroke-opacity:1"/>
<path d="M 2380.84,143.434 L 2344.19,193.696" style="fill:none;fill-rule:evenodd;stroke:#FFCC99;stroke-width:13.3px;stroke-linecap:butt;stroke-linejoin:miter;stroke-opacity:1"/>
<path d="M 2344.19,193.696 L 2282.34,187.089" style="fill:none;fill-rule:evenodd;stroke:#FFCC99;stroke-width:13.3px;stroke-linecap:butt;stroke-linejoin:miter;stroke-opacity:1"/>
<path d="M 2344.19,193.696 L 2369.39,250.566" style="fill:none;fill-rule:evenodd;stroke:#FFCC99;stroke-width:13.3px;stroke-linecap:butt;stroke-linejoin:miter;stroke-opacity:1"/>
<path d="M 2282.34,187.089 L 2245.69,237.352" style="fill:none;fill-rule:evenodd;stroke:#FFCC99;stroke-width:13.3px;stroke-linecap:butt;stroke-linejoin:miter;stroke-opacity:1"/>
<path d="M 2270.89,294.222 L 2332.74,300.829" style="fill:none;fill-rule:evenodd;stroke:#FFFFAA;stroke-width:13.3px;stroke-linecap:butt;stroke-linejoin:miter;stroke-opacity:1"/>
<path d="M 2332.74,300.829 L 2357.95,357.699" style="fill:none;fill-rule:evenodd;stroke:#FFFFAA;stroke-width:13.3px;stroke-linecap:butt;stroke-linejoin:miter;stroke-opacity:1"/>
<ellipse cx="1435.13" cy="254.928" rx="12.441" ry="12.441" style="fill:#FFFFAA;fill-rule:evenodd;stroke:#FFFFAA;stroke-width:1px;stroke-linecap:butt;stroke-linejoin:miter;stroke-opacity:1"/>
<ellipse cx="1381.26" cy="223.963" rx="12.441" ry="12.791" style="fill:#FFFFAA;fill-rule:evenodd;stroke:#FFFFAA;stroke-width:1px;stroke-linecap:butt;stroke-linejoin:miter;stroke-opacity:1"/>
<ellipse cx="1327.39" cy="254.928" rx="12.441" ry="12.441" style="fill:#FFFFAA;fill-rule:evenodd;stroke:#FFFFAA;stroke-width:1px;stroke-linecap:butt;stroke-linejoin:miter;stroke-opacity:1"/>
<ellipse cx="1273.51" cy="223.826" rx="12.441" ry="12.441" style="fill:#FFFFAA;fill-rule:evenodd;stroke:#FFFFAA;stroke-width:1px;stroke-linecap:butt;stroke-linejoin:miter;stroke-opacity:1"/>
<ellipse cx="1327.39" cy="317.27" rx="12.441" ry="12.791" style="fill:#FFFFAA;fill-rule:evenodd;stroke:#FFFFAA;stroke-width:1px;stroke-linecap:butt;stroke-linejoin:miter;stroke-opacity:1"/>
<ellipse cx="1489" cy="223.826" rx="12.441" ry="12.441" style="fill:#FFFFAA;fill-rule:evenodd;stroke:#FFFFAA;stroke-width:1px;stroke-linecap:butt;stroke-linejoin:miter;stroke-opacity:1"/>
<ellipse cx="1435.13" cy="317.27" rx="12.441" ry="12.791" style="fill:#FFFFAA;fill-rule:evenodd;stroke:#FFFFAA;stroke-width:1px;stroke-linecap:butt;stroke-linejoin:miter;stroke-opacity:1"/>
<ellipse cx="1657.86" cy="341.818" rx="22.0632" ry="12.791" style="fill:#FFCC99;fill-rule:evenodd;stroke:#FFCC99;stroke-width:1px;stroke-linecap:butt;stroke-linejoin:miter;stroke-opacity:1"/>
<ellipse cx="1700.83" cy="290.576" rx="12.441" ry="12.441" style="fill:#FFCC99;fill-rule:evenodd;stroke:#FFCC99;stroke-width:1px;stroke-linecap:butt;stroke-linejoin:miter;stroke-opacity:1"/>
<ellipse cx="1674.31" cy="234.31" rx="12.441" ry="12.441" style="fill:#FFCC99;fill-rule:evenodd;stroke:#FFCC99;stroke-width:1px;stroke-linecap:butt;stroke-linejoin:miter;stroke-opacity:1"/>
<ellipse cx="1709.77" cy="183.205" rx="12.441" ry="12.441" style="fill:#FFCC99;fill-rule:evenodd;stroke:#FFCC99;stroke-width:1px;stroke-linecap:butt;stroke-linejoin:miter;stroke-opacity:1"/>
<ellipse cx="1771.76" cy="188.364" rx="12.441" ry="12.441" style="fill:#FFCC99;fill-rule:evenodd;stroke:#FFCC99;stroke-width:1px;stroke-linecap:butt;stroke-linejoin:miter;stroke-opacity:1"/>
<ellipse cx="1798.29" cy="244.629" rx="12.441" ry="12.441" style="fill:#FFCC99;fill-rule:evenodd;stroke:#FFCC99;stroke-width:1px;stroke-linecap:butt;stroke-linejoin:miter;stroke-opacity:1"/>
<ellipse cx="1860.28" cy="249.789" rx="12.441" ry="12.441" style="fill:#FFCC99;fill-rule:evenodd;stroke:#FFCC99;stroke-width:1px;stroke-linecap:butt;stroke-linejoin:miter;stroke-opacity:1"/>
<ellipse cx="1886.81" cy="306.191" rx="12.441" ry="12.791" style="fill:#FFCC99;fill-rule:evenodd;stroke:#FFCC99;stroke-width:1px;stroke-linecap:butt;stroke-linejoin:miter;stroke-opacity:1"/>
<ellipse cx="1762.82" cy="295.735" rx="12.441" ry="12.441" style="fill:#FFCC99;fill-rule:evenodd;stroke:#FFCC99;stroke-width:1px;stroke-linecap:butt;stroke-linejoin:miter;stroke-opacity:1"/>
<ellipse cx="2706.16" cy="418.764" rx="12.441" ry="12.441" style="fill:#FFFFAA;fill-rule:evenodd;stroke:#FFFFAA;stroke-width:1px;stroke-linecap:butt;stroke-linejoin:miter;stroke-opacity:1"/>
<ellipse cx="2719.2" cy="358.077" rx="12.441" ry="12.791" style="fill:#FFCC99;fill-rule:evenodd;stroke:#FFCC99;stroke-width:1px;stroke-linecap:butt;stroke-linejoin:miter;stroke-opacity:1"/>
<ellipse cx="2673.04" cy="316.239" rx="12.441" ry="12.441" style="fill:#FFCC99;fill-rule:evenodd;stroke:#FFCC99;stroke-width:1px;stroke-linecap:butt;stroke-linejoin:miter;stroke-opacity:1"/>
<ellipse cx="2613.85" cy="335.361" rx="12.441" ry="12.441" style="fill:#FFCC99;fill-rule:evenodd;stroke:#FFCC99;stroke-width:1px;stroke-linecap:butt;stroke-linejoin:miter;stroke-opacity:1"/>
<ellipse cx="2380.84" cy="143.434" rx="12.441" ry="12.441" style="fill:#FFCC99;fill-rule:evenodd;stroke:#FFCC99;stroke-width:1px;stroke-linecap:butt;stroke-linejoin:miter;stroke-opacity:1"/>
<ellipse cx="2344.19" cy="193.696" rx="12.441" ry="12.441" style="fill:#FFCC99;fill-rule:evenodd;stroke:#FFCC99;stroke-width:1px;stroke-linecap:butt;stroke-linejoin:miter;stroke-opacity:1"/>
<ellipse cx="2282.34" cy="187.089" rx="12.441" ry="12.441" style="fill:#FFCC99;fill-rule:evenodd;stroke:#FFCC99;stroke-width:1px;stroke-linecap:butt;stroke-linejoin:miter;stroke-opacity:1"/>
<ellipse cx="2245.69" cy="237.352" rx="12.441" ry="12.441" style="fill:#FFCC99;fill-rule:evenodd;stroke:#FFCC99;stroke-width:1px;stroke-linecap:butt;stroke-linejoin:miter;stroke-opacity:1"/>
<ellipse cx="2270.89" cy="294.222" rx="12.441" ry="12.441" style="fill:#FFFFAA;fill-rule:evenodd;stroke:#FFFFAA;stroke-width:1px;stroke-linecap:butt;stroke-linejoin:miter;stroke-opacity:1"/>
<ellipse cx="2332.74" cy="300.829" rx="12.441" ry="12.441" style="fill:#FFFFAA;fill-rule:evenodd;stroke:#FFFFAA;stroke-width:1px;stroke-linecap:butt;stroke-linejoin:miter;stroke-opacity:1"/>
<ellipse cx="2357.95" cy="357.836" rx="12.441" ry="12.791" style="fill:#FFFFAA;fill-rule:evenodd;stroke:#FFFFAA;stroke-width:1px;stroke-linecap:butt;stroke-linejoin:miter;stroke-opacity:1"/>
<ellipse cx="2346.51" cy="464.832" rx="12.441" ry="12.441" style="fill:#FFFFAA;fill-rule:evenodd;stroke:#FFFFAA;stroke-width:1px;stroke-linecap:butt;stroke-linejoin:miter;stroke-opacity:1"/>
<ellipse cx="2259.45" cy="401.492" rx="12.441" ry="12.791" style="fill:#FFFFAA;fill-rule:evenodd;stroke:#FFFFAA;stroke-width:1px;stroke-linecap:butt;stroke-linejoin:miter;stroke-opacity:1"/>
<ellipse cx="2369.39" cy="250.566" rx="12.441" ry="12.441" style="fill:#FFCC99;fill-rule:evenodd;stroke:#FFCC99;stroke-width:1px;stroke-linecap:butt;stroke-linejoin:miter;stroke-opacity:1"/>
<ellipse cx="2471.56" cy="43.1533" rx="12.441" ry="12.791" style="fill:#FFFFAA;fill-rule:evenodd;stroke:#FFFFAA;stroke-width:1px;stroke-linecap:butt;stroke-linejoin:miter;stroke-opacity:1"/>
<ellipse cx="2541.18" cy="129.418" rx="12.441" ry="12.791" style="fill:#FFCC99;fill-rule:evenodd;stroke:#FFCC99;stroke-width:1px;stroke-linecap:butt;stroke-linejoin:miter;stroke-opacity:1"/>
<path class="bond-0" d="M 1435.13,254.928 L 1413.01,242.16" style="fill:none;fill-rule:evenodd;stroke:#000000;stroke-width:2.0px;stroke-linecap:butt;stroke-linejoin:miter;stroke-opacity:1"/>
<path class="bond-0" d="M 1413.01,242.16 L 1390.9,229.392" style="fill:none;fill-rule:evenodd;stroke:#FF0000;stroke-width:2.0px;stroke-linecap:butt;stroke-linejoin:miter;stroke-opacity:1"/>
<path class="bond-4" d="M 1435.13,254.928 L 1489,223.826" style="fill:none;fill-rule:evenodd;stroke:#000000;stroke-width:2.0px;stroke-linecap:butt;stroke-linejoin:miter;stroke-opacity:1"/>
<path class="bond-5" d="M 1428.91,254.928 L 1428.91,280.799" style="fill:none;fill-rule:evenodd;stroke:#000000;stroke-width:2.0px;stroke-linecap:butt;stroke-linejoin:miter;stroke-opacity:1"/>
<path class="bond-5" d="M 1428.91,280.799 L 1428.91,306.67" style="fill:none;fill-rule:evenodd;stroke:#FF0000;stroke-width:2.0px;stroke-linecap:butt;stroke-linejoin:miter;stroke-opacity:1"/>
<path class="bond-5" d="M 1441.35,254.928 L 1441.35,280.799" style="fill:none;fill-rule:evenodd;stroke:#000000;stroke-width:2.0px;stroke-linecap:butt;stroke-linejoin:miter;stroke-opacity:1"/>
<path class="bond-5" d="M 1441.35,280.799 L 1441.35,306.67" style="fill:none;fill-rule:evenodd;stroke:#FF0000;stroke-width:2.0px;stroke-linecap:butt;stroke-linejoin:miter;stroke-opacity:1"/>
<path class="bond-1" d="M 1371.61,229.392 L 1349.5,242.16" style="fill:none;fill-rule:evenodd;stroke:#FF0000;stroke-width:2.0px;stroke-linecap:butt;stroke-linejoin:miter;stroke-opacity:1"/>
<path class="bond-1" d="M 1349.5,242.16 L 1327.39,254.928" style="fill:none;fill-rule:evenodd;stroke:#000000;stroke-width:2.0px;stroke-linecap:butt;stroke-linejoin:miter;stroke-opacity:1"/>
<path class="bond-2" d="M 1327.39,254.928 L 1273.51,223.826" style="fill:none;fill-rule:evenodd;stroke:#000000;stroke-width:2.0px;stroke-linecap:butt;stroke-linejoin:miter;stroke-opacity:1"/>
<path class="bond-3" d="M 1321.17,254.928 L 1321.17,280.799" style="fill:none;fill-rule:evenodd;stroke:#000000;stroke-width:2.0px;stroke-linecap:butt;stroke-linejoin:miter;stroke-opacity:1"/>
<path class="bond-3" d="M 1321.17,280.799 L 1321.17,306.67" style="fill:none;fill-rule:evenodd;stroke:#FF0000;stroke-width:2.0px;stroke-linecap:butt;stroke-linejoin:miter;stroke-opacity:1"/>
<path class="bond-3" d="M 1333.61,254.928 L 1333.61,280.799" style="fill:none;fill-rule:evenodd;stroke:#000000;stroke-width:2.0px;stroke-linecap:butt;stroke-linejoin:miter;stroke-opacity:1"/>
<path class="bond-3" d="M 1333.61,280.799 L 1333.61,306.67" style="fill:none;fill-rule:evenodd;stroke:#FF0000;stroke-width:2.0px;stroke-linecap:butt;stroke-linejoin:miter;stroke-opacity:1"/>
<path class="bond-6" d="M 1672.63,331.219 L 1686.73,310.897" style="fill:none;fill-rule:evenodd;stroke:#FF0000;stroke-width:2.0px;stroke-linecap:butt;stroke-linejoin:miter;stroke-opacity:1"/>
<path class="bond-6" d="M 1686.73,310.897 L 1700.83,290.576" style="fill:none;fill-rule:evenodd;stroke:#000000;stroke-width:2.0px;stroke-linecap:butt;stroke-linejoin:miter;stroke-opacity:1"/>
<path class="bond-7" d="M 1700.83,290.576 L 1674.31,234.31" style="fill:none;fill-rule:evenodd;stroke:#000000;stroke-width:2.0px;stroke-linecap:butt;stroke-linejoin:miter;stroke-opacity:1"/>
<path class="bond-7" d="M 1708.11,276.83 L 1689.54,237.445" style="fill:none;fill-rule:evenodd;stroke:#000000;stroke-width:2.0px;stroke-linecap:butt;stroke-linejoin:miter;stroke-opacity:1;stroke-dasharray:6,6"/>
<path class="bond-14" d="M 1700.83,290.576 L 1762.82,295.735" style="fill:none;fill-rule:evenodd;stroke:#000000;stroke-width:2.0px;stroke-linecap:butt;stroke-linejoin:miter;stroke-opacity:1"/>
<path class="bond-14" d="M 1711.16,278.951 L 1754.56,282.563" style="fill:none;fill-rule:evenodd;stroke:#000000;stroke-width:2.0px;stroke-linecap:butt;stroke-linejoin:miter;stroke-opacity:1;stroke-dasharray:6,6"/>
<path class="bond-8" d="M 1674.31,234.31 L 1709.77,183.205" style="fill:none;fill-rule:evenodd;stroke:#000000;stroke-width:2.0px;stroke-linecap:butt;stroke-linejoin:miter;stroke-opacity:1"/>
<path class="bond-8" d="M 1689.85,233.737 L 1714.67,197.963" style="fill:none;fill-rule:evenodd;stroke:#000000;stroke-width:2.0px;stroke-linecap:butt;stroke-linejoin:miter;stroke-opacity:1;stroke-dasharray:6,6"/>
<path class="bond-9" d="M 1709.77,183.205 L 1771.76,188.364" style="fill:none;fill-rule:evenodd;stroke:#000000;stroke-width:2.0px;stroke-linecap:butt;stroke-linejoin:miter;stroke-opacity:1"/>
<path class="bond-9" d="M 1718.04,196.377 L 1761.43,199.988" style="fill:none;fill-rule:evenodd;stroke:#000000;stroke-width:2.0px;stroke-linecap:butt;stroke-linejoin:miter;stroke-opacity:1;stroke-dasharray:6,6"/>
<path class="bond-10" d="M 1771.76,188.364 L 1798.29,244.629" style="fill:none;fill-rule:evenodd;stroke:#000000;stroke-width:2.0px;stroke-linecap:butt;stroke-linejoin:miter;stroke-opacity:1"/>
<path class="bond-10" d="M 1764.49,202.109 L 1783.06,241.495" style="fill:none;fill-rule:evenodd;stroke:#000000;stroke-width:2.0px;stroke-linecap:butt;stroke-linejoin:miter;stroke-opacity:1;stroke-dasharray:6,6"/>
<path class="bond-11" d="M 1798.29,244.629 L 1860.28,249.789" style="fill:none;fill-rule:evenodd;stroke:#000000;stroke-width:2.0px;stroke-linecap:butt;stroke-linejoin:miter;stroke-opacity:1"/>
<path class="bond-13" d="M 1798.29,244.629 L 1762.82,295.735" style="fill:none;fill-rule:evenodd;stroke:#000000;stroke-width:2.0px;stroke-linecap:butt;stroke-linejoin:miter;stroke-opacity:1"/>
<path class="bond-13" d="M 1782.75,245.202 L 1757.92,280.976" style="fill:none;fill-rule:evenodd;stroke:#000000;stroke-width:2.0px;stroke-linecap:butt;stroke-linejoin:miter;stroke-opacity:1;stroke-dasharray:6,6"/>
<path class="bond-12" d="M 1854.65,252.441 L 1865.45,275.342" style="fill:none;fill-rule:evenodd;stroke:#000000;stroke-width:2.0px;stroke-linecap:butt;stroke-linejoin:miter;stroke-opacity:1"/>
<path class="bond-12" d="M 1865.45,275.342 L 1876.25,298.244" style="fill:none;fill-rule:evenodd;stroke:#FF0000;stroke-width:2.0px;stroke-linecap:butt;stroke-linejoin:miter;stroke-opacity:1"/>
<path class="bond-12" d="M 1865.91,247.136 L 1876.7,270.037" style="fill:none;fill-rule:evenodd;stroke:#000000;stroke-width:2.0px;stroke-linecap:butt;stroke-linejoin:miter;stroke-opacity:1"/>
<path class="bond-12" d="M 1876.7,270.037 L 1887.5,292.938" style="fill:none;fill-rule:evenodd;stroke:#FF0000;stroke-width:2.0px;stroke-linecap:butt;stroke-linejoin:miter;stroke-opacity:1"/>
<path class="bond-15" d="M 2706.16,418.764 L 2711.53,393.72" style="fill:none;fill-rule:evenodd;stroke:#000000;stroke-width:2.0px;stroke-linecap:butt;stroke-linejoin:miter;stroke-opacity:1"/>
<path class="bond-15" d="M 2711.53,393.72 L 2716.89,368.677" style="fill:none;fill-rule:evenodd;stroke:#FF0000;stroke-width:2.0px;stroke-linecap:butt;stroke-linejoin:miter;stroke-opacity:1"/>
<path class="bond-16" d="M 2709.55,349.229 L 2691.3,332.734" style="fill:none;fill-rule:evenodd;stroke:#FF0000;stroke-width:2.0px;stroke-linecap:butt;stroke-linejoin:miter;stroke-opacity:1"/>
<path class="bond-16" d="M 2691.3,332.734 L 2673.04,316.239" style="fill:none;fill-rule:evenodd;stroke:#000000;stroke-width:2.0px;stroke-linecap:butt;stroke-linejoin:miter;stroke-opacity:1"/>
<path class="bond-17" d="M 2673.04,316.239 L 2613.85,335.361" style="fill:none;fill-rule:evenodd;stroke:#000000;stroke-width:2.0px;stroke-linecap:butt;stroke-linejoin:miter;stroke-opacity:1"/>
<path class="bond-17" d="M 2660.34,307.269 L 2618.9,320.654" style="fill:none;fill-rule:evenodd;stroke:#000000;stroke-width:2.0px;stroke-linecap:butt;stroke-linejoin:miter;stroke-opacity:1;stroke-dasharray:6,6"/>
<path class="bond-39" d="M 2673.04,316.239 L 2683.78,266.102" style="fill:none;fill-rule:evenodd;stroke:#000000;stroke-width:2.0px;stroke-linecap:butt;stroke-linejoin:miter;stroke-opacity:1"/>
<path class="bond-39" d="M 2662.49,306.111 L 2670.01,271.015" style="fill:none;fill-rule:evenodd;stroke:#000000;stroke-width:2.0px;stroke-linecap:butt;stroke-linejoin:miter;stroke-opacity:1;stroke-dasharray:6,6"/>
<path class="bond-18" d="M 2613.85,335.361 L 2575.2,300.448" style="fill:none;fill-rule:evenodd;stroke:#000000;stroke-width:2.0px;stroke-linecap:butt;stroke-linejoin:miter;stroke-opacity:1"/>
<path class="bond-18" d="M 2616.39,320.893 L 2589.34,296.454" style="fill:none;fill-rule:evenodd;stroke:#000000;stroke-width:2.0px;stroke-linecap:butt;stroke-linejoin:miter;stroke-opacity:1;stroke-dasharray:6,6"/>
<path class="bond-19" d="M 2569.89,283.396 L 2578.5,243.235" style="fill:none;fill-rule:evenodd;stroke:#000000;stroke-width:2.0px;stroke-linecap:butt;stroke-linejoin:miter;stroke-opacity:1"/>
<path class="bond-19" d="M 2583.34,279.979 L 2589.37,251.867" style="fill:none;fill-rule:evenodd;stroke:#000000;stroke-width:2.0px;stroke-linecap:butt;stroke-linejoin:miter;stroke-opacity:1;stroke-dasharray:6,6"/>
<path class="bond-20" d="M 2569.14,222.373 L 2545.72,201.207" style="fill:none;fill-rule:evenodd;stroke:#000000;stroke-width:2.0px;stroke-linecap:butt;stroke-linejoin:miter;stroke-opacity:1"/>
<path class="bond-37" d="M 2593.02,228.866 L 2610.53,223.207" style="fill:none;fill-rule:evenodd;stroke:#000000;stroke-width:2.0px;stroke-linecap:butt;stroke-linejoin:miter;stroke-opacity:1"/>
<path class="bond-37" d="M 2599.47,239.855 L 2611.73,235.894" style="fill:none;fill-rule:evenodd;stroke:#000000;stroke-width:2.0px;stroke-linecap:butt;stroke-linejoin:miter;stroke-opacity:1;stroke-dasharray:6,6"/>
<path class="bond-21" d="M 2526.22,192.894 L 2481.26,202.37" style="fill:none;fill-rule:evenodd;stroke:#000000;stroke-width:2.0px;stroke-linecap:butt;stroke-linejoin:miter;stroke-opacity:1"/>
<path class="bond-21" d="M 2516.91,182.142 L 2485.44,188.775" style="fill:none;fill-rule:evenodd;stroke:#000000;stroke-width:2.0px;stroke-linecap:butt;stroke-linejoin:miter;stroke-opacity:1"/>
<path class="bond-40" d="M 2535.69,180.671 L 2537.87,160.213" style="fill:none;fill-rule:evenodd;stroke:#000000;stroke-width:2.0px;stroke-linecap:butt;stroke-linejoin:miter;stroke-opacity:1"/>
<path class="bond-40" d="M 2537.87,160.213 L 2540.06,139.755" style="fill:none;fill-rule:evenodd;stroke:#FF0000;stroke-width:2.0px;stroke-linecap:butt;stroke-linejoin:miter;stroke-opacity:1"/>
<path class="bond-22" d="M 2467.68,193.501 L 2448.65,160.401" style="fill:none;fill-rule:evenodd;stroke:#000000;stroke-width:2.0px;stroke-linecap:butt;stroke-linejoin:miter;stroke-opacity:1"/>
<path class="bond-23" d="M 2415.72,147.16 L 2380.84,143.434" style="fill:none;fill-rule:evenodd;stroke:#000000;stroke-width:2.0px;stroke-linecap:butt;stroke-linejoin:miter;stroke-opacity:1"/>
<path class="bond-23" d="M 2409.16,158.971 L 2384.75,156.363" style="fill:none;fill-rule:evenodd;stroke:#000000;stroke-width:2.0px;stroke-linecap:butt;stroke-linejoin:miter;stroke-opacity:1"/>
<path class="bond-34" d="M 2450.35,141.558 L 2475.2,114.061" style="fill:none;fill-rule:evenodd;stroke:#000000;stroke-width:2.0px;stroke-linecap:butt;stroke-linejoin:miter;stroke-opacity:1"/>
<path class="bond-24" d="M 2380.84,143.434 L 2344.19,193.696" style="fill:none;fill-rule:evenodd;stroke:#000000;stroke-width:2.0px;stroke-linecap:butt;stroke-linejoin:miter;stroke-opacity:1"/>
<path class="bond-25" d="M 2344.19,193.696 L 2282.34,187.089" style="fill:none;fill-rule:evenodd;stroke:#000000;stroke-width:2.0px;stroke-linecap:butt;stroke-linejoin:miter;stroke-opacity:1"/>
<path class="bond-25" d="M 2333.59,205.076 L 2290.29,200.451" style="fill:none;fill-rule:evenodd;stroke:#000000;stroke-width:2.0px;stroke-linecap:butt;stroke-linejoin:miter;stroke-opacity:1;stroke-dasharray:6,6"/>
<path class="bond-41" d="M 2344.19,193.696 L 2369.39,250.566" style="fill:none;fill-rule:evenodd;stroke:#000000;stroke-width:2.0px;stroke-linecap:butt;stroke-linejoin:miter;stroke-opacity:1"/>
<path class="bond-41" d="M 2336.6,207.268 L 2354.24,247.077" style="fill:none;fill-rule:evenodd;stroke:#000000;stroke-width:2.0px;stroke-linecap:butt;stroke-linejoin:miter;stroke-opacity:1;stroke-dasharray:6,6"/>
<path class="bond-26" d="M 2282.34,187.089 L 2245.69,237.352" style="fill:none;fill-rule:evenodd;stroke:#000000;stroke-width:2.0px;stroke-linecap:butt;stroke-linejoin:miter;stroke-opacity:1"/>
<path class="bond-26" d="M 2286.89,201.959 L 2261.24,237.143" style="fill:none;fill-rule:evenodd;stroke:#000000;stroke-width:2.0px;stroke-linecap:butt;stroke-linejoin:miter;stroke-opacity:1;stroke-dasharray:6,6"/>
<path class="bond-27" d="M 2245.69,237.352 L 2270.89,294.222" style="fill:none;fill-rule:evenodd;stroke:#000000;stroke-width:2.0px;stroke-linecap:butt;stroke-linejoin:miter;stroke-opacity:1"/>
<path class="bond-27" d="M 2260.84,240.842 L 2278.49,280.651" style="fill:none;fill-rule:evenodd;stroke:#000000;stroke-width:2.0px;stroke-linecap:butt;stroke-linejoin:miter;stroke-opacity:1;stroke-dasharray:6,6"/>
<path class="bond-28" d="M 2270.89,294.222 L 2332.74,300.829" style="fill:none;fill-rule:evenodd;stroke:#000000;stroke-width:2.0px;stroke-linecap:butt;stroke-linejoin:miter;stroke-opacity:1"/>
<path class="bond-28" d="M 2281.49,282.843 L 2324.79,287.468" style="fill:none;fill-rule:evenodd;stroke:#000000;stroke-width:2.0px;stroke-linecap:butt;stroke-linejoin:miter;stroke-opacity:1;stroke-dasharray:6,6"/>
<path class="bond-29" d="M 2332.74,300.829 L 2343.03,324.033" style="fill:none;fill-rule:evenodd;stroke:#000000;stroke-width:2.0px;stroke-linecap:butt;stroke-linejoin:miter;stroke-opacity:1"/>
<path class="bond-29" d="M 2343.03,324.033 L 2353.31,347.236" style="fill:none;fill-rule:evenodd;stroke:#FF0000;stroke-width:2.0px;stroke-linecap:butt;stroke-linejoin:miter;stroke-opacity:1"/>
<path class="bond-33" d="M 2332.74,300.829 L 2369.39,250.566" style="fill:none;fill-rule:evenodd;stroke:#000000;stroke-width:2.0px;stroke-linecap:butt;stroke-linejoin:miter;stroke-opacity:1"/>
<path class="bond-33" d="M 2328.19,285.96 L 2353.84,250.776" style="fill:none;fill-rule:evenodd;stroke:#000000;stroke-width:2.0px;stroke-linecap:butt;stroke-linejoin:miter;stroke-opacity:1;stroke-dasharray:6,6"/>
<path class="bond-30" d="M 2350.12,368.436 L 2339.33,383.233" style="fill:none;fill-rule:evenodd;stroke:#FF0000;stroke-width:2.0px;stroke-linecap:butt;stroke-linejoin:miter;stroke-opacity:1"/>
<path class="bond-30" d="M 2339.33,383.233 L 2328.54,398.03" style="fill:none;fill-rule:evenodd;stroke:#000000;stroke-width:2.0px;stroke-linecap:butt;stroke-linejoin:miter;stroke-opacity:1"/>
<path class="bond-31" d="M 2325.94,418.425 L 2346.51,464.832" style="fill:none;fill-rule:evenodd;stroke:#000000;stroke-width:2.0px;stroke-linecap:butt;stroke-linejoin:miter;stroke-opacity:1"/>
<path class="bond-32" d="M 2293.73,398.761 L 2281.39,397.442" style="fill:none;fill-rule:evenodd;stroke:#000000;stroke-width:2.0px;stroke-linecap:butt;stroke-linejoin:miter;stroke-opacity:1"/>
<path class="bond-32" d="M 2281.39,397.442 L 2269.04,396.124" style="fill:none;fill-rule:evenodd;stroke:#FF0000;stroke-width:2.0px;stroke-linecap:butt;stroke-linejoin:miter;stroke-opacity:1"/>
<path class="bond-32" d="M 2292.41,411.132 L 2280.06,409.813" style="fill:none;fill-rule:evenodd;stroke:#000000;stroke-width:2.0px;stroke-linecap:butt;stroke-linejoin:miter;stroke-opacity:1"/>
<path class="bond-32" d="M 2280.06,409.813 L 2267.72,408.494" style="fill:none;fill-rule:evenodd;stroke:#FF0000;stroke-width:2.0px;stroke-linecap:butt;stroke-linejoin:miter;stroke-opacity:1"/>
<path class="bond-35" d="M 2488.27,92.138 L 2484.06,72.1703" style="fill:none;fill-rule:evenodd;stroke:#000000;stroke-width:2.0px;stroke-linecap:butt;stroke-linejoin:miter;stroke-opacity:1"/>
<path class="bond-35" d="M 2484.06,72.1703 L 2479.86,52.2027" style="fill:none;fill-rule:evenodd;stroke:#FF0000;stroke-width:2.0px;stroke-linecap:butt;stroke-linejoin:miter;stroke-opacity:1"/>
<path class="bond-35" d="M 2476.1,94.704 L 2471.89,74.7364" style="fill:none;fill-rule:evenodd;stroke:#000000;stroke-width:2.0px;stroke-linecap:butt;stroke-linejoin:miter;stroke-opacity:1"/>
<path class="bond-35" d="M 2471.89,74.7364 L 2467.68,54.7687" style="fill:none;fill-rule:evenodd;stroke:#FF0000;stroke-width:2.0px;stroke-linecap:butt;stroke-linejoin:miter;stroke-opacity:1"/>
<path class="bond-36" d="M 2501.77,111.655 L 2516.89,118.418" style="fill:none;fill-rule:evenodd;stroke:#000000;stroke-width:2.0px;stroke-linecap:butt;stroke-linejoin:miter;stroke-opacity:1"/>
<path class="bond-36" d="M 2516.89,118.418 L 2532.01,125.182" style="fill:none;fill-rule:evenodd;stroke:#FF0000;stroke-width:2.0px;stroke-linecap:butt;stroke-linejoin:miter;stroke-opacity:1"/>
<path class="bond-38" d="M 2651.5,224.177 L 2678.12,248.226" style="fill:none;fill-rule:evenodd;stroke:#000000;stroke-width:2.0px;stroke-linecap:butt;stroke-linejoin:miter;stroke-opacity:1"/>
<path class="bond-38" d="M 2647.15,237.015 L 2665.78,253.85" style="fill:none;fill-rule:evenodd;stroke:#000000;stroke-width:2.0px;stroke-linecap:butt;stroke-linejoin:miter;stroke-opacity:1;stroke-dasharray:6,6"/>
<path class="atom-1" d="M 1373.17 223.875 Q 1373.17 219.646, 1375.26 217.282 Q 1377.35 214.918, 1381.26 214.918 Q 1385.16 214.918, 1387.25 217.282 Q 1389.34 219.646, 1389.34 223.875 Q 1389.34 228.155, 1387.23 230.594 Q 1385.11 233.007, 1381.26 233.007 Q 1377.38 233.007, 1375.26 230.594 Q 1373.17 228.18, 1373.17 223.875 M 1381.26 231.017 Q 1383.94 231.017, 1385.39 229.225 Q 1386.86 227.409, 1386.86 223.875 Q 1386.86 220.417, 1385.39 218.675 Q 1383.94 216.909, 1381.26 216.909 Q 1378.57 216.909, 1377.1 218.65 Q 1375.66 220.392, 1375.66 223.875 Q 1375.66 227.434, 1377.1 229.225 Q 1378.57 231.017, 1381.26 231.017 " fill="#FF0000"/>
<path class="atom-4" d="M 1319.3 317.183 Q 1319.3 312.953, 1321.39 310.589 Q 1323.48 308.225, 1327.39 308.225 Q 1331.29 308.225, 1333.38 310.589 Q 1335.47 312.953, 1335.47 317.183 Q 1335.47 321.463, 1333.36 323.901 Q 1331.24 326.315, 1327.39 326.315 Q 1323.5 326.315, 1321.39 323.901 Q 1319.3 321.488, 1319.3 317.183 M 1327.39 324.324 Q 1330.07 324.324, 1331.52 322.533 Q 1332.98 320.716, 1332.98 317.183 Q 1332.98 313.724, 1331.52 311.983 Q 1330.07 310.216, 1327.39 310.216 Q 1324.7 310.216, 1323.23 311.958 Q 1321.79 313.699, 1321.79 317.183 Q 1321.79 320.741, 1323.23 322.533 Q 1324.7 324.324, 1327.39 324.324 " fill="#FF0000"/>
<path class="atom-6" d="M 1427.04 317.183 Q 1427.04 312.953, 1429.13 310.589 Q 1431.22 308.225, 1435.13 308.225 Q 1439.03 308.225, 1441.12 310.589 Q 1443.21 312.953, 1443.21 317.183 Q 1443.21 321.463, 1441.1 323.901 Q 1438.98 326.315, 1435.13 326.315 Q 1431.25 326.315, 1429.13 323.901 Q 1427.04 321.488, 1427.04 317.183 M 1435.13 324.324 Q 1437.81 324.324, 1439.26 322.533 Q 1440.73 320.716, 1440.73 317.183 Q 1440.73 313.724, 1439.26 311.983 Q 1437.81 310.216, 1435.13 310.216 Q 1432.44 310.216, 1430.97 311.958 Q 1429.53 313.699, 1429.53 317.183 Q 1429.53 320.741, 1430.97 322.533 Q 1432.44 324.324, 1435.13 324.324 " fill="#FF0000"/>
<path class="atom-7" d="M 1642.26 332.973 L 1644.64 332.973 L 1644.64 340.462 L 1653.65 340.462 L 1653.65 332.973 L 1656.04 332.973 L 1656.04 350.589 L 1653.65 350.589 L 1653.65 342.453 L 1644.64 342.453 L 1644.64 350.589 L 1642.26 350.589 L 1642.26 332.973 " fill="#FF0000"/>
<path class="atom-7" d="M 1657.28 341.731 Q 1657.28 337.501, 1659.37 335.137 Q 1661.46 332.774, 1665.37 332.774 Q 1669.28 332.774, 1671.37 335.137 Q 1673.46 337.501, 1673.46 341.731 Q 1673.46 346.011, 1671.34 348.449 Q 1669.23 350.863, 1665.37 350.863 Q 1661.49 350.863, 1659.37 348.449 Q 1657.28 346.036, 1657.28 341.731 M 1665.37 348.872 Q 1668.06 348.872, 1669.5 347.081 Q 1670.97 345.264, 1670.97 341.731 Q 1670.97 338.273, 1669.5 336.531 Q 1668.06 334.764, 1665.37 334.764 Q 1662.68 334.764, 1661.22 336.506 Q 1659.77 338.248, 1659.77 341.731 Q 1659.77 345.289, 1661.22 347.081 Q 1662.68 348.872, 1665.37 348.872 " fill="#FF0000"/>
<path class="atom-14" d="M 1878.72 306.104 Q 1878.72 301.874, 1880.81 299.51 Q 1882.9 297.146, 1886.81 297.146 Q 1890.71 297.146, 1892.8 299.51 Q 1894.89 301.874, 1894.89 306.104 Q 1894.89 310.383, 1892.78 312.822 Q 1890.66 315.235, 1886.81 315.235 Q 1882.92 315.235, 1880.81 312.822 Q 1878.72 310.408, 1878.72 306.104 M 1886.81 313.245 Q 1889.49 313.245, 1890.94 311.453 Q 1892.4 309.637, 1892.4 306.104 Q 1892.4 302.645, 1890.94 300.903 Q 1889.49 299.137, 1886.81 299.137 Q 1884.12 299.137, 1882.65 300.878 Q 1881.21 302.62, 1881.21 306.104 Q 1881.21 309.662, 1882.65 311.453 Q 1884.12 313.245, 1886.81 313.245 " fill="#FF0000"/>
<path class="atom-17" d="M 2711.11 357.99 Q 2711.11 353.76, 2713.2 351.396 Q 2715.29 349.033, 2719.2 349.033 Q 2723.1 349.033, 2725.19 351.396 Q 2727.28 353.76, 2727.28 357.99 Q 2727.28 362.27, 2725.17 364.708 Q 2723.05 367.122, 2719.2 367.122 Q 2715.31 367.122, 2713.2 364.708 Q 2711.11 362.295, 2711.11 357.99 M 2719.2 365.131 Q 2721.88 365.131, 2723.33 363.34 Q 2724.79 361.523, 2724.79 357.99 Q 2724.79 354.531, 2723.33 352.79 Q 2721.88 351.023, 2719.2 351.023 Q 2716.51 351.023, 2715.04 352.765 Q 2713.6 354.507, 2713.6 357.99 Q 2713.6 361.548, 2715.04 363.34 Q 2716.51 365.131, 2719.2 365.131 " fill="#FF0000"/>
<path class="atom-20" d="M 2542.65 293.734 Q 2542.65 289.355, 2544.69 287.066 Q 2546.75 284.752, 2550.66 284.752 Q 2554.29 284.752, 2556.23 287.314 L 2554.59 288.658 Q 2553.17 286.792, 2550.66 286.792 Q 2548 286.792, 2546.58 288.583 Q 2545.18 290.35, 2545.18 293.734 Q 2545.18 297.218, 2546.63 299.009 Q 2548.09 300.801, 2550.93 300.801 Q 2552.87 300.801, 2555.14 299.631 L 2555.83 301.497 Q 2554.91 302.094, 2553.52 302.443 Q 2552.13 302.791, 2550.58 302.791 Q 2546.75 302.791, 2544.69 300.452 Q 2542.65 298.113, 2542.65 293.734 " fill="#000000"/>
<path class="atom-20" d="M 2558.1 299.656 L 2560.59 299.656 L 2560.59 302.144 L 2558.1 302.144 L 2558.1 299.656 M 2558.1 291.097 L 2560.59 291.097 L 2560.59 293.585 L 2558.1 293.585 L 2558.1 291.097 " fill="#000000"/>
<path class="atom-20" d="M 2568.12 291.544 Q 2569.67 291.544, 2570.94 292.216 Q 2572.21 292.863, 2572.93 294.107 Q 2573.65 295.326, 2573.65 296.994 Q 2573.65 298.81, 2572.75 300.129 Q 2571.88 301.423, 2570.44 302.094 Q 2569 302.766, 2567.35 302.766 Q 2565.74 302.766, 2564.24 302.169 Q 2562.75 301.572, 2561.73 300.427 L 2563.22 298.885 Q 2564.04 299.78, 2565.16 300.278 Q 2566.28 300.751, 2567.43 300.751 Q 2569 300.751, 2570.07 299.78 Q 2571.16 298.81, 2571.16 297.043 Q 2571.16 295.177, 2570.07 294.306 Q 2569 293.411, 2567.28 293.411 Q 2565.74 293.411, 2564.02 294.082 L 2562.65 293.435 L 2563.5 284.951 L 2572.55 284.951 L 2572.3 286.941 L 2565.54 286.941 L 2565.01 292.166 Q 2566.58 291.544, 2568.12 291.544 " fill="#000000"/>
<path class="atom-21" d="M 2559.61 232.91 Q 2559.61 228.531, 2561.65 226.242 Q 2563.72 223.928, 2567.62 223.928 Q 2571.26 223.928, 2573.2 226.491 L 2571.55 227.834 Q 2570.14 225.968, 2567.62 225.968 Q 2564.96 225.968, 2563.54 227.76 Q 2562.15 229.526, 2562.15 232.91 Q 2562.15 236.394, 2563.59 238.185 Q 2565.06 239.977, 2567.9 239.977 Q 2569.84 239.977, 2572.1 238.807 L 2572.8 240.674 Q 2571.88 241.271, 2570.48 241.619 Q 2569.09 241.967, 2567.55 241.967 Q 2563.72 241.967, 2561.65 239.629 Q 2559.61 237.29, 2559.61 232.91 " fill="#000000"/>
<path class="atom-21" d="M 2575.06 238.832 L 2577.55 238.832 L 2577.55 241.321 L 2575.06 241.321 L 2575.06 238.832 M 2575.06 230.273 L 2577.55 230.273 L 2577.55 232.761 L 2575.06 232.761 L 2575.06 230.273 " fill="#000000"/>
<path class="atom-21" d="M 2586.14 230.746 Q 2587.68 230.746, 2588.9 231.417 Q 2590.12 232.089, 2590.79 233.309 Q 2591.46 234.528, 2591.46 236.07 Q 2591.46 237.787, 2590.69 239.131 Q 2589.94 240.45, 2588.6 241.196 Q 2587.25 241.943, 2585.54 241.943 Q 2582.4 241.943, 2580.81 239.828 Q 2579.24 237.688, 2579.24 233.458 Q 2579.24 228.78, 2581.18 226.366 Q 2583.15 223.928, 2586.91 223.928 Q 2588 223.928, 2588.92 224.177 Q 2589.87 224.426, 2590.76 224.948 L 2589.79 226.615 Q 2588.5 225.919, 2586.93 225.919 Q 2584.44 225.919, 2583.17 227.536 Q 2581.91 229.128, 2581.76 232.438 Q 2582.65 231.617, 2583.77 231.194 Q 2584.92 230.746, 2586.14 230.746 M 2585.56 239.902 Q 2586.51 239.902, 2587.28 239.405 Q 2588.08 238.907, 2588.52 238.036 Q 2588.97 237.165, 2588.97 236.095 Q 2588.97 234.528, 2588.1 233.632 Q 2587.23 232.736, 2585.69 232.736 Q 2584.62 232.736, 2583.55 233.184 Q 2582.5 233.607, 2581.76 234.354 Q 2581.86 237.265, 2582.78 238.584 Q 2583.7 239.902, 2585.56 239.902 " fill="#000000"/>
<path class="atom-22" d="M 2527.78 191.209 Q 2527.78 186.83, 2529.82 184.541 Q 2531.88 182.227, 2535.79 182.227 Q 2539.42 182.227, 2541.36 184.789 L 2539.72 186.133 Q 2538.3 184.267, 2535.79 184.267 Q 2533.13 184.267, 2531.71 186.058 Q 2530.31 187.825, 2530.31 191.209 Q 2530.31 194.692, 2531.76 196.484 Q 2533.23 198.275, 2536.06 198.275 Q 2538 198.275, 2540.27 197.106 L 2540.96 198.972 Q 2540.04 199.569, 2538.65 199.918 Q 2537.26 200.266, 2535.71 200.266 Q 2531.88 200.266, 2529.82 197.927 Q 2527.78 195.588, 2527.78 191.209 " fill="#000000"/>
<path class="atom-22" d="M 2543.23 197.131 L 2545.72 197.131 L 2545.72 199.619 L 2543.23 199.619 L 2543.23 197.131 M 2543.23 188.571 L 2545.72 188.571 L 2545.72 191.06 L 2543.23 191.06 L 2543.23 188.571 " fill="#000000"/>
<path class="atom-22" d="M 2555.39 184.416 L 2546.16 184.416 L 2546.16 182.426 L 2557.86 182.426 L 2557.86 184.192 L 2550.74 200.042 L 2548.35 200.042 L 2555.39 184.416 " fill="#000000"/>
<path class="atom-23" d="M 2448 204.039 Q 2448 199.66, 2450.04 197.371 Q 2452.1 195.057, 2456.01 195.057 Q 2459.64 195.057, 2461.58 197.619 L 2459.94 198.963 Q 2458.52 197.097, 2456.01 197.097 Q 2453.35 197.097, 2451.93 198.888 Q 2450.54 200.655, 2450.54 204.039 Q 2450.54 207.522, 2451.98 209.314 Q 2453.45 211.105, 2456.28 211.105 Q 2458.22 211.105, 2460.49 209.936 L 2461.19 211.802 Q 2460.26 212.399, 2458.87 212.748 Q 2457.48 213.096, 2455.94 213.096 Q 2452.1 213.096, 2450.04 210.757 Q 2448 208.418, 2448 204.039 " fill="#000000"/>
<path class="atom-23" d="M 2463.45 209.961 L 2465.94 209.961 L 2465.94 212.449 L 2463.45 212.449 L 2463.45 209.961 M 2463.45 201.401 L 2465.94 201.401 L 2465.94 203.89 L 2463.45 203.89 L 2463.45 201.401 " fill="#000000"/>
<path class="atom-23" d="M 2476.46 203.541 Q 2478.08 204.238, 2479 205.283 Q 2479.92 206.303, 2479.92 208.045 Q 2479.92 209.538, 2479.15 210.707 Q 2478.38 211.852, 2476.99 212.499 Q 2475.62 213.121, 2473.8 213.121 Q 2470.86 213.121, 2469.17 211.777 Q 2467.48 210.409, 2467.48 208.045 Q 2467.48 206.602, 2468.23 205.532 Q 2468.97 204.437, 2470.52 203.616 Q 2469.37 202.969, 2468.75 202.024 Q 2468.13 201.053, 2468.13 199.56 Q 2468.13 197.495, 2469.62 196.276 Q 2471.14 195.057, 2473.7 195.057 Q 2476.26 195.057, 2477.76 196.276 Q 2479.27 197.495, 2479.27 199.56 Q 2479.27 200.854, 2478.55 201.824 Q 2477.86 202.77, 2476.46 203.541 M 2473.7 196.923 Q 2472.23 196.923, 2471.41 197.619 Q 2470.62 198.316, 2470.62 199.56 Q 2470.62 200.481, 2471.16 201.103 Q 2471.71 201.7, 2472.48 202.048 Q 2473.28 202.397, 2474.8 202.919 Q 2475.87 202.173, 2476.31 201.377 Q 2476.79 200.58, 2476.79 199.56 Q 2476.79 198.316, 2475.97 197.619 Q 2475.17 196.923, 2473.7 196.923 M 2473.8 211.255 Q 2475.44 211.255, 2476.44 210.384 Q 2477.43 209.488, 2477.43 208.02 Q 2477.43 207.075, 2476.91 206.477 Q 2476.39 205.88, 2475.59 205.532 Q 2474.82 205.184, 2473.43 204.736 L 2472.31 204.362 Q 2471.06 205.109, 2470.52 206.005 Q 2469.97 206.875, 2469.97 208.02 Q 2469.97 209.488, 2471.01 210.384 Q 2472.06 211.255, 2473.8 211.255 " fill="#000000"/>
<path class="atom-24" d="M 2417.27 150.115 Q 2417.27 145.736, 2419.31 143.447 Q 2421.38 141.133, 2425.29 141.133 Q 2428.92 141.133, 2430.86 143.696 L 2429.22 145.039 Q 2427.8 143.173, 2425.29 143.173 Q 2422.62 143.173, 2421.2 144.965 Q 2419.81 146.731, 2419.81 150.115 Q 2419.81 153.599, 2421.25 155.39 Q 2422.72 157.182, 2425.56 157.182 Q 2427.5 157.182, 2429.76 156.012 L 2430.46 157.878 Q 2429.54 158.476, 2428.15 158.824 Q 2426.75 159.172, 2425.21 159.172 Q 2421.38 159.172, 2419.31 156.833 Q 2417.27 154.494, 2417.27 150.115 " fill="#000000"/>
<path class="atom-24" d="M 2432.72 156.037 L 2435.21 156.037 L 2435.21 158.525 L 2432.72 158.525 L 2432.72 156.037 M 2432.72 147.478 L 2435.21 147.478 L 2435.21 149.966 L 2432.72 149.966 L 2432.72 147.478 " fill="#000000"/>
<path class="atom-24" d="M 2442.5 141.133 Q 2445.64 141.133, 2447.21 143.273 Q 2448.8 145.388, 2448.8 149.618 Q 2448.8 154.295, 2446.83 156.734 Q 2444.89 159.147, 2441.13 159.147 Q 2440.04 159.147, 2439.09 158.899 Q 2438.17 158.65, 2437.28 158.127 L 2438.25 156.46 Q 2439.54 157.157, 2441.11 157.157 Q 2443.6 157.157, 2444.87 155.564 Q 2446.14 153.947, 2446.29 150.638 Q 2445.39 151.459, 2444.25 151.907 Q 2443.13 152.33, 2441.91 152.33 Q 2440.36 152.33, 2439.14 151.658 Q 2437.93 150.986, 2437.25 149.767 Q 2436.58 148.548, 2436.58 147.005 Q 2436.58 145.288, 2437.33 143.969 Q 2438.1 142.626, 2439.44 141.879 Q 2440.79 141.133, 2442.5 141.133 M 2439.07 146.98 Q 2439.07 148.548, 2439.94 149.443 Q 2440.81 150.339, 2442.35 150.339 Q 2443.42 150.339, 2444.47 149.916 Q 2445.54 149.468, 2446.29 148.722 Q 2446.19 145.811, 2445.27 144.492 Q 2444.34 143.173, 2442.48 143.173 Q 2441.53 143.173, 2440.74 143.671 Q 2439.97 144.168, 2439.52 145.039 Q 2439.07 145.91, 2439.07 146.98 " fill="#000000"/>
<path class="atom-31" d="M 2349.86 357.749 Q 2349.86 353.519, 2351.95 351.155 Q 2354.04 348.791, 2357.95 348.791 Q 2361.86 348.791, 2363.95 351.155 Q 2366.04 353.519, 2366.04 357.749 Q 2366.04 362.028, 2363.92 364.467 Q 2361.81 366.88, 2357.95 366.88 Q 2354.07 366.88, 2351.95 364.467 Q 2349.86 362.053, 2349.86 357.749 M 2357.95 364.89 Q 2360.64 364.89, 2362.08 363.098 Q 2363.55 361.282, 2363.55 357.749 Q 2363.55 354.29, 2362.08 352.548 Q 2360.64 350.782, 2357.95 350.782 Q 2355.26 350.782, 2353.79 352.524 Q 2352.35 354.265, 2352.35 357.749 Q 2352.35 361.307, 2353.79 363.098 Q 2355.26 364.89, 2357.95 364.89 " fill="#FF0000"/>
<path class="atom-32" d="M 2294.62 408.037 Q 2294.62 403.657, 2296.67 401.368 Q 2298.73 399.054, 2302.64 399.054 Q 2306.27 399.054, 2308.21 401.617 L 2306.57 402.961 Q 2305.15 401.094, 2302.64 401.094 Q 2299.97 401.094, 2298.56 402.886 Q 2297.16 404.653, 2297.16 408.037 Q 2297.16 411.52, 2298.61 413.312 Q 2300.07 415.103, 2302.91 415.103 Q 2304.85 415.103, 2307.12 413.934 L 2307.81 415.8 Q 2306.89 416.397, 2305.5 416.745 Q 2304.1 417.094, 2302.56 417.094 Q 2298.73 417.094, 2296.67 414.755 Q 2294.62 412.416, 2294.62 408.037 " fill="#000000"/>
<path class="atom-32" d="M 2310.08 413.958 L 2312.56 413.958 L 2312.56 416.447 L 2310.08 416.447 L 2310.08 413.958 M 2310.08 405.399 L 2312.56 405.399 L 2312.56 407.887 L 2310.08 407.887 L 2310.08 405.399 " fill="#000000"/>
<path class="atom-32" d="M 2314.88 414.879 L 2318.74 414.879 L 2318.74 401.717 L 2314.48 403.035 L 2313.91 401.567 L 2319.31 399.154 L 2321.07 399.452 L 2321.07 414.879 L 2324.53 414.879 L 2324.53 416.87 L 2314.88 416.87 L 2314.88 414.879 " fill="#000000"/>
<path class="atom-32" d="M 2334.21 401.244 L 2324.98 401.244 L 2324.98 399.253 L 2336.68 399.253 L 2336.68 401.02 L 2329.56 416.87 L 2327.17 416.87 L 2334.21 401.244 " fill="#000000"/>
<path class="atom-34" d="M 2251.36 401.405 Q 2251.36 397.175, 2253.45 394.811 Q 2255.54 392.447, 2259.45 392.447 Q 2263.35 392.447, 2265.44 394.811 Q 2267.53 397.175, 2267.53 401.405 Q 2267.53 405.684, 2265.42 408.123 Q 2263.3 410.536, 2259.45 410.536 Q 2255.57 410.536, 2253.45 408.123 Q 2251.36 405.709, 2251.36 401.405 M 2259.45 408.546 Q 2262.14 408.546, 2263.58 406.754 Q 2265.05 404.938, 2265.05 401.405 Q 2265.05 397.946, 2263.58 396.204 Q 2262.14 394.438, 2259.45 394.438 Q 2256.76 394.438, 2255.29 396.179 Q 2253.85 397.921, 2253.85 401.405 Q 2253.85 404.963, 2255.29 406.754 Q 2256.76 408.546, 2259.45 408.546 " fill="#FF0000"/>
<path class="atom-36" d="M 2457.19 103.959 Q 2457.19 99.5793, 2459.23 97.2902 Q 2461.29 94.9761, 2465.2 94.9761 Q 2468.83 94.9761, 2470.77 97.539 L 2469.13 98.8826 Q 2467.71 97.0165, 2465.2 97.0165 Q 2462.54 97.0165, 2461.12 98.808 Q 2459.73 100.575, 2459.73 103.959 Q 2459.73 107.442, 2461.17 109.234 Q 2462.64 111.025, 2465.48 111.025 Q 2467.42 111.025, 2469.68 109.856 L 2470.38 111.722 Q 2469.46 112.319, 2468.06 112.667 Q 2466.67 113.016, 2465.13 113.016 Q 2461.29 113.016, 2459.23 110.677 Q 2457.19 108.338, 2457.19 103.959 " fill="#000000"/>
<path class="atom-36" d="M 2472.64 109.88 L 2475.13 109.88 L 2475.13 112.369 L 2472.64 112.369 L 2472.64 109.88 M 2472.64 101.321 L 2475.13 101.321 L 2475.13 103.809 L 2472.64 103.809 L 2472.64 101.321 " fill="#000000"/>
<path class="atom-36" d="M 2476.42 98.5094 Q 2477.07 96.8423, 2478.61 95.9217 Q 2480.16 94.9761, 2482.3 94.9761 Q 2484.96 94.9761, 2486.45 96.4193 Q 2487.94 97.8624, 2487.94 100.425 Q 2487.94 103.038, 2486 105.476 Q 2484.09 107.915, 2480.11 110.801 L 2488.24 110.801 L 2488.24 112.792 L 2476.37 112.792 L 2476.37 111.125 Q 2479.66 108.786, 2481.6 107.044 Q 2483.56 105.302, 2484.51 103.735 Q 2485.46 102.167, 2485.46 100.55 Q 2485.46 98.8577, 2484.61 97.9122 Q 2483.76 96.9667, 2482.3 96.9667 Q 2480.88 96.9667, 2479.93 97.539 Q 2478.99 98.1113, 2478.31 99.3802 L 2476.42 98.5094 " fill="#000000"/>
<path class="atom-36" d="M 2490.56 110.801 L 2494.41 110.801 L 2494.41 97.6385 L 2490.16 98.9573 L 2489.59 97.4892 L 2494.99 95.0757 L 2496.75 95.3742 L 2496.75 110.801 L 2500.21 110.801 L 2500.21 112.792 L 2490.56 112.792 L 2490.56 110.801 " fill="#000000"/>
<path class="atom-37" d="M 2463.47 43.0662 Q 2463.47 38.8363, 2465.56 36.4725 Q 2467.66 34.1087, 2471.56 34.1087 Q 2475.47 34.1087, 2477.56 36.4725 Q 2479.65 38.8363, 2479.65 43.0662 Q 2479.65 47.3459, 2477.53 49.7843 Q 2475.42 52.1979, 2471.56 52.1979 Q 2467.68 52.1979, 2465.56 49.7843 Q 2463.47 47.3708, 2463.47 43.0662 M 2471.56 50.2073 Q 2474.25 50.2073, 2475.69 48.4158 Q 2477.16 46.5994, 2477.16 43.0662 Q 2477.16 39.6076, 2475.69 37.8659 Q 2474.25 36.0992, 2471.56 36.0992 Q 2468.87 36.0992, 2467.41 37.841 Q 2465.96 39.5827, 2465.96 43.0662 Q 2465.96 46.6243, 2467.41 48.4158 Q 2468.87 50.2073, 2471.56 50.2073 " fill="#FF0000"/>
<path class="atom-38" d="M 2533.09 129.331 Q 2533.09 125.101, 2535.18 122.737 Q 2537.27 120.373, 2541.18 120.373 Q 2545.08 120.373, 2547.17 122.737 Q 2549.26 125.101, 2549.26 129.331 Q 2549.26 133.611, 2547.15 136.049 Q 2545.03 138.463, 2541.18 138.463 Q 2537.29 138.463, 2535.18 136.049 Q 2533.09 133.636, 2533.09 129.331 M 2541.18 136.472 Q 2543.86 136.472, 2545.31 134.681 Q 2546.77 132.864, 2546.77 129.331 Q 2546.77 125.872, 2545.31 124.131 Q 2543.86 122.364, 2541.18 122.364 Q 2538.49 122.364, 2537.02 124.106 Q 2535.58 125.847, 2535.58 129.331 Q 2535.58 132.889, 2537.02 134.681 Q 2538.49 136.472, 2541.18 136.472 " fill="#FF0000"/>
<path class="atom-39" d="M 2611.76 213.788 Q 2611.76 209.409, 2613.8 207.12 Q 2615.87 204.806, 2619.78 204.806 Q 2623.41 204.806, 2625.35 207.369 L 2623.71 208.712 Q 2622.29 206.846, 2619.78 206.846 Q 2617.11 206.846, 2615.7 208.638 Q 2614.3 210.404, 2614.3 213.788 Q 2614.3 217.272, 2615.75 219.063 Q 2617.21 220.855, 2620.05 220.855 Q 2621.99 220.855, 2624.26 219.685 L 2624.95 221.551 Q 2624.03 222.149, 2622.64 222.497 Q 2621.24 222.845, 2619.7 222.845 Q 2615.87 222.845, 2613.8 220.506 Q 2611.76 218.168, 2611.76 213.788 " fill="#000000"/>
<path class="atom-39" d="M 2627.22 219.71 L 2629.7 219.71 L 2629.7 222.198 L 2627.22 222.198 L 2627.22 219.71 M 2627.22 211.151 L 2629.7 211.151 L 2629.7 213.639 L 2627.22 213.639 L 2627.22 211.151 " fill="#000000"/>
<path class="atom-39" d="M 2631 208.339 Q 2631.65 206.672, 2633.19 205.751 Q 2634.73 204.806, 2636.87 204.806 Q 2639.53 204.806, 2641.03 206.249 Q 2642.52 207.692, 2642.52 210.255 Q 2642.52 212.868, 2640.58 215.306 Q 2638.66 217.745, 2634.68 220.631 L 2642.82 220.631 L 2642.82 222.621 L 2630.95 222.621 L 2630.95 220.954 Q 2634.23 218.615, 2636.17 216.874 Q 2638.14 215.132, 2639.08 213.564 Q 2640.03 211.997, 2640.03 210.379 Q 2640.03 208.687, 2639.18 207.742 Q 2638.34 206.796, 2636.87 206.796 Q 2635.45 206.796, 2634.51 207.369 Q 2633.56 207.941, 2632.89 209.21 L 2631 208.339 " fill="#000000"/>
<path class="atom-39" d="M 2655.01 216.575 L 2657.12 216.575 L 2657.12 218.566 L 2655.01 218.566 L 2655.01 222.621 L 2652.67 222.621 L 2652.67 218.566 L 2643.56 218.566 L 2643.56 216.998 L 2651.28 205.005 L 2655.01 205.005 L 2655.01 216.575 M 2646.45 216.575 L 2652.67 216.575 L 2652.67 206.597 L 2646.45 216.575 " fill="#000000"/>
<path class="atom-40" d="M 2679.28 255.49 Q 2679.28 251.111, 2681.32 248.821 Q 2683.39 246.507, 2687.29 246.507 Q 2690.93 246.507, 2692.87 249.07 L 2691.23 250.414 Q 2689.81 248.548, 2687.29 248.548 Q 2684.63 248.548, 2683.21 250.339 Q 2681.82 252.106, 2681.82 255.49 Q 2681.82 258.973, 2683.26 260.765 Q 2684.73 262.556, 2687.57 262.556 Q 2689.51 262.556, 2691.77 261.387 L 2692.47 263.253 Q 2691.55 263.85, 2690.16 264.198 Q 2688.76 264.547, 2687.22 264.547 Q 2683.39 264.547, 2681.32 262.208 Q 2679.28 259.869, 2679.28 255.49 " fill="#000000"/>
<path class="atom-40" d="M 2694.73 261.412 L 2697.22 261.412 L 2697.22 263.9 L 2694.73 263.9 L 2694.73 261.412 M 2694.73 252.852 L 2697.22 252.852 L 2697.22 255.34 L 2694.73 255.34 L 2694.73 252.852 " fill="#000000"/>
<path class="atom-40" d="M 2698.52 250.041 Q 2699.16 248.374, 2700.71 247.453 Q 2702.25 246.507, 2704.39 246.507 Q 2707.05 246.507, 2708.54 247.951 Q 2710.04 249.394, 2710.04 251.957 Q 2710.04 254.569, 2708.1 257.008 Q 2706.18 259.446, 2702.2 262.332 L 2710.33 262.332 L 2710.33 264.323 L 2698.47 264.323 L 2698.47 262.656 Q 2701.75 260.317, 2703.69 258.575 Q 2705.66 256.833, 2706.6 255.266 Q 2707.55 253.698, 2707.55 252.081 Q 2707.55 250.389, 2706.7 249.443 Q 2705.86 248.498, 2704.39 248.498 Q 2702.97 248.498, 2702.02 249.07 Q 2701.08 249.643, 2700.41 250.911 L 2698.52 250.041 " fill="#000000"/>
<path class="atom-40" d="M 2717.87 253.3 Q 2719.42 253.3, 2720.69 253.972 Q 2721.95 254.619, 2722.68 255.863 Q 2723.4 257.082, 2723.4 258.749 Q 2723.4 260.566, 2722.5 261.884 Q 2721.63 263.178, 2720.19 263.85 Q 2718.75 264.522, 2717.1 264.522 Q 2715.49 264.522, 2713.99 263.925 Q 2712.5 263.328, 2711.48 262.183 L 2712.97 260.64 Q 2713.79 261.536, 2714.91 262.034 Q 2716.03 262.506, 2717.18 262.506 Q 2718.75 262.506, 2719.82 261.536 Q 2720.91 260.566, 2720.91 258.799 Q 2720.91 256.933, 2719.82 256.062 Q 2718.75 255.166, 2717.03 255.166 Q 2715.49 255.166, 2713.77 255.838 L 2712.4 255.191 L 2713.25 246.706 L 2722.3 246.706 L 2722.05 248.697 L 2715.29 248.697 L 2714.76 253.922 Q 2716.33 253.3, 2717.87 253.3 " fill="#000000"/>
<path class="note" d="M 1432.96 247.994 L 1434.89 247.994 L 1434.89 241.413 L 1432.76 242.073 L 1432.47 241.339 L 1435.17 240.132 L 1436.05 240.281 L 1436.05 247.994 L 1437.78 247.994 L 1437.78 248.99 L 1432.96 248.99 L 1432.96 247.994 " fill="#000000"/>
<path class="note" d="M 1372.95 206.549 L 1374.88 206.549 L 1374.88 199.968 L 1372.75 200.627 L 1372.47 199.893 L 1375.17 198.687 L 1376.05 198.836 L 1376.05 206.549 L 1377.78 206.549 L 1377.78 207.545 L 1372.95 207.545 L 1372.95 206.549 " fill="#000000"/>
<path class="note" d="M 1382.07 202.046 Q 1382.84 202.046, 1383.45 202.382 Q 1384.06 202.718, 1384.4 203.327 Q 1384.73 203.937, 1384.73 204.708 Q 1384.73 205.566, 1384.35 206.238 Q 1383.97 206.898, 1383.3 207.271 Q 1382.63 207.644, 1381.77 207.644 Q 1380.21 207.644, 1379.41 206.587 Q 1378.63 205.517, 1378.63 203.402 Q 1378.63 201.063, 1379.6 199.856 Q 1380.58 198.637, 1382.46 198.637 Q 1383 198.637, 1383.46 198.761 Q 1383.94 198.886, 1384.39 199.147 L 1383.9 199.98 Q 1383.25 199.632, 1382.47 199.632 Q 1381.23 199.632, 1380.59 200.441 Q 1379.96 201.237, 1379.88 202.892 Q 1380.33 202.481, 1380.89 202.27 Q 1381.46 202.046, 1382.07 202.046 M 1381.79 206.624 Q 1382.26 206.624, 1382.64 206.375 Q 1383.04 206.126, 1383.27 205.691 Q 1383.49 205.255, 1383.49 204.721 Q 1383.49 203.937, 1383.05 203.489 Q 1382.62 203.041, 1381.85 203.041 Q 1381.31 203.041, 1380.78 203.265 Q 1380.26 203.476, 1379.88 203.85 Q 1379.93 205.305, 1380.39 205.965 Q 1380.85 206.624, 1381.79 206.624 " fill="#000000"/>
<path class="note" d="M 1319.29 237.627 L 1321.22 237.627 L 1321.22 231.046 L 1319.09 231.705 L 1318.81 230.971 L 1321.51 229.764 L 1322.39 229.914 L 1322.39 237.627 L 1324.12 237.627 L 1324.12 238.622 L 1319.29 238.622 L 1319.29 237.627 " fill="#000000"/>
<path class="note" d="M 1327.89 233.111 Q 1328.66 233.111, 1329.3 233.447 Q 1329.93 233.77, 1330.29 234.392 Q 1330.65 235.002, 1330.65 235.835 Q 1330.65 236.744, 1330.2 237.403 Q 1329.77 238.05, 1329.05 238.386 Q 1328.32 238.722, 1327.5 238.722 Q 1326.7 238.722, 1325.95 238.423 Q 1325.2 238.125, 1324.69 237.552 L 1325.44 236.781 Q 1325.85 237.229, 1326.41 237.478 Q 1326.97 237.714, 1327.54 237.714 Q 1328.32 237.714, 1328.86 237.229 Q 1329.41 236.744, 1329.41 235.86 Q 1329.41 234.927, 1328.86 234.492 Q 1328.32 234.044, 1327.47 234.044 Q 1326.7 234.044, 1325.84 234.38 L 1325.15 234.056 L 1325.58 229.814 L 1330.1 229.814 L 1329.98 230.809 L 1326.6 230.809 L 1326.33 233.422 Q 1327.12 233.111, 1327.89 233.111 " fill="#000000"/>
<path class="note" d="M 1259.93 236.238 L 1261.86 236.238 L 1261.86 229.657 L 1259.73 230.316 L 1259.44 229.582 L 1262.14 228.375 L 1263.02 228.525 L 1263.02 236.238 L 1264.75 236.238 L 1264.75 237.233 L 1259.93 237.233 L 1259.93 236.238 " fill="#000000"/>
<path class="note" d="M 1270.85 234.21 L 1271.91 234.21 L 1271.91 235.205 L 1270.85 235.205 L 1270.85 237.233 L 1269.68 237.233 L 1269.68 235.205 L 1265.13 235.205 L 1265.13 234.422 L 1268.98 228.425 L 1270.85 228.425 L 1270.85 234.21 M 1266.57 234.21 L 1269.68 234.21 L 1269.68 229.221 L 1266.57 234.21 " fill="#000000"/>
<path class="note" d="M 1319.16 341.327 L 1321.09 341.327 L 1321.09 334.745 L 1318.96 335.405 L 1318.68 334.671 L 1321.38 333.464 L 1322.26 333.613 L 1322.26 341.327 L 1323.99 341.327 L 1323.99 342.322 L 1319.16 342.322 L 1319.16 341.327 " fill="#000000"/>
<path class="note" d="M 1327.63 333.414 Q 1329.2 333.414, 1329.99 334.484 Q 1330.78 335.542, 1330.78 337.657 Q 1330.78 339.996, 1329.8 341.215 Q 1328.83 342.422, 1326.95 342.422 Q 1326.4 342.422, 1325.93 342.297 Q 1325.47 342.173, 1325.02 341.911 L 1325.51 341.078 Q 1326.15 341.426, 1326.94 341.426 Q 1328.18 341.426, 1328.82 340.63 Q 1329.45 339.821, 1329.53 338.167 Q 1329.08 338.577, 1328.51 338.801 Q 1327.95 339.013, 1327.34 339.013 Q 1326.56 339.013, 1325.95 338.677 Q 1325.35 338.341, 1325.01 337.731 Q 1324.67 337.122, 1324.67 336.35 Q 1324.67 335.492, 1325.05 334.833 Q 1325.43 334.161, 1326.1 333.788 Q 1326.78 333.414, 1327.63 333.414 M 1325.92 336.338 Q 1325.92 337.122, 1326.35 337.57 Q 1326.79 338.017, 1327.56 338.017 Q 1328.09 338.017, 1328.62 337.806 Q 1329.15 337.582, 1329.53 337.209 Q 1329.48 335.753, 1329.02 335.094 Q 1328.55 334.434, 1327.62 334.434 Q 1327.15 334.434, 1326.75 334.683 Q 1326.37 334.932, 1326.14 335.368 Q 1325.92 335.803, 1325.92 336.338 " fill="#000000"/>
<path class="note" d="M 1475.49 218.306 L 1477.42 218.306 L 1477.42 211.725 L 1475.29 212.384 L 1475.01 211.65 L 1477.71 210.443 L 1478.59 210.592 L 1478.59 218.306 L 1480.32 218.306 L 1480.32 219.301 L 1475.49 219.301 L 1475.49 218.306 " fill="#000000"/>
<path class="note" d="M 1485.58 214.636 Q 1486.39 214.984, 1486.85 215.507 Q 1487.31 216.017, 1487.31 216.888 Q 1487.31 217.634, 1486.93 218.219 Q 1486.54 218.791, 1485.84 219.114 Q 1485.16 219.426, 1484.25 219.426 Q 1482.78 219.426, 1481.94 218.754 Q 1481.09 218.069, 1481.09 216.888 Q 1481.09 216.166, 1481.46 215.631 Q 1481.84 215.084, 1482.61 214.673 Q 1482.04 214.35, 1481.72 213.877 Q 1481.41 213.392, 1481.41 212.645 Q 1481.41 211.613, 1482.16 211.003 Q 1482.92 210.393, 1484.2 210.393 Q 1485.48 210.393, 1486.23 211.003 Q 1486.99 211.613, 1486.99 212.645 Q 1486.99 213.292, 1486.63 213.777 Q 1486.28 214.25, 1485.58 214.636 M 1484.2 211.326 Q 1483.47 211.326, 1483.06 211.675 Q 1482.66 212.023, 1482.66 212.645 Q 1482.66 213.105, 1482.93 213.417 Q 1483.21 213.715, 1483.59 213.889 Q 1483.99 214.063, 1484.75 214.325 Q 1485.28 213.951, 1485.51 213.553 Q 1485.74 213.155, 1485.74 212.645 Q 1485.74 212.023, 1485.33 211.675 Q 1484.93 211.326, 1484.2 211.326 M 1484.25 218.492 Q 1485.07 218.492, 1485.57 218.057 Q 1486.07 217.609, 1486.07 216.875 Q 1486.07 216.402, 1485.81 216.104 Q 1485.54 215.805, 1485.15 215.631 Q 1484.76 215.457, 1484.06 215.233 L 1483.5 215.046 Q 1482.88 215.42, 1482.61 215.867 Q 1482.33 216.303, 1482.33 216.875 Q 1482.33 217.609, 1482.86 218.057 Q 1483.38 218.492, 1484.25 218.492 " fill="#000000"/>
<path class="note" d="M 1425.94 335.181 Q 1426.26 334.347, 1427.03 333.887 Q 1427.81 333.414, 1428.88 333.414 Q 1430.21 333.414, 1430.95 334.136 Q 1431.7 334.857, 1431.7 336.139 Q 1431.7 337.445, 1430.73 338.664 Q 1429.77 339.884, 1427.78 341.327 L 1431.85 341.327 L 1431.85 342.322 L 1425.92 342.322 L 1425.92 341.488 Q 1427.56 340.319, 1428.53 339.448 Q 1429.51 338.577, 1429.98 337.794 Q 1430.46 337.01, 1430.46 336.201 Q 1430.46 335.355, 1430.03 334.882 Q 1429.61 334.41, 1428.88 334.41 Q 1428.17 334.41, 1427.69 334.696 Q 1427.22 334.982, 1426.89 335.616 L 1425.94 335.181 " fill="#000000"/>
<path class="note" d="M 1432.5 335.181 Q 1432.82 334.347, 1433.59 333.887 Q 1434.36 333.414, 1435.43 333.414 Q 1436.76 333.414, 1437.51 334.136 Q 1438.26 334.857, 1438.26 336.139 Q 1438.26 337.445, 1437.29 338.664 Q 1436.33 339.884, 1434.34 341.327 L 1438.41 341.327 L 1438.41 342.322 L 1432.47 342.322 L 1432.47 341.488 Q 1434.11 340.319, 1435.08 339.448 Q 1436.07 338.577, 1436.54 337.794 Q 1437.01 337.01, 1437.01 336.201 Q 1437.01 335.355, 1436.59 334.882 Q 1436.17 334.41, 1435.43 334.41 Q 1434.72 334.41, 1434.25 334.696 Q 1433.78 334.982, 1433.44 335.616 L 1432.5 335.181 " fill="#000000"/>
<path class="note" d="M 1650.61 356.029 Q 1650.93 355.196, 1651.7 354.736 Q 1652.47 354.263, 1653.54 354.263 Q 1654.87 354.263, 1655.62 354.984 Q 1656.37 355.706, 1656.37 356.987 Q 1656.37 358.294, 1655.4 359.513 Q 1654.44 360.732, 1652.45 362.175 L 1656.52 362.175 L 1656.52 363.171 L 1650.58 363.171 L 1650.58 362.337 Q 1652.22 361.168, 1653.19 360.297 Q 1654.18 359.426, 1654.65 358.642 Q 1655.12 357.858, 1655.12 357.05 Q 1655.12 356.204, 1654.7 355.731 Q 1654.28 355.258, 1653.54 355.258 Q 1652.83 355.258, 1652.36 355.544 Q 1651.89 355.83, 1651.55 356.465 L 1650.61 356.029 " fill="#000000"/>
<path class="note" d="M 1691.77 289.529 Q 1692.63 289.778, 1693.04 290.338 Q 1693.46 290.885, 1693.46 291.756 Q 1693.46 292.503, 1693.09 293.087 Q 1692.72 293.66, 1692.03 293.983 Q 1691.35 294.294, 1690.45 294.294 Q 1689.51 294.294, 1688.8 293.971 Q 1688.1 293.635, 1687.54 292.963 L 1688.25 292.241 Q 1688.8 292.838, 1689.26 293.075 Q 1689.72 293.299, 1690.45 293.299 Q 1691.25 293.299, 1691.73 292.876 Q 1692.22 292.44, 1692.22 291.744 Q 1692.22 290.848, 1691.71 290.45 Q 1691.21 290.039, 1690.13 290.039 L 1689.49 290.039 L 1689.49 289.143 L 1690.05 289.143 Q 1691.01 289.131, 1691.52 288.72 Q 1692.03 288.297, 1692.03 287.514 Q 1692.03 286.941, 1691.61 286.605 Q 1691.19 286.257, 1690.46 286.257 Q 1689.73 286.257, 1689.27 286.518 Q 1688.82 286.78, 1688.47 287.439 L 1687.62 286.979 Q 1687.93 286.245, 1688.67 285.759 Q 1689.42 285.262, 1690.46 285.262 Q 1691.76 285.262, 1692.52 285.871 Q 1693.28 286.481, 1693.28 287.514 Q 1693.28 288.223, 1692.89 288.733 Q 1692.51 289.243, 1691.77 289.529 " fill="#000000"/>
<path class="note" d="M 1666.31 234.832 L 1667.37 234.832 L 1667.37 235.827 L 1666.31 235.827 L 1666.31 237.855 L 1665.14 237.855 L 1665.14 235.827 L 1660.58 235.827 L 1660.58 235.043 L 1664.44 229.046 L 1666.31 229.046 L 1666.31 234.832 M 1662.03 234.832 L 1665.14 234.832 L 1665.14 229.843 L 1662.03 234.832 " fill="#000000"/>
<path class="note" d="M 1697.3 177.286 L 1699.23 177.286 L 1699.23 170.704 L 1697.1 171.364 L 1696.81 170.63 L 1699.51 169.423 L 1700.4 169.572 L 1700.4 177.286 L 1702.13 177.286 L 1702.13 178.281 L 1697.3 178.281 L 1697.3 177.286 " fill="#000000"/>
<path class="note" d="M 1706.88 173.641 Q 1707.74 173.889, 1708.15 174.449 Q 1708.57 174.997, 1708.57 175.867 Q 1708.57 176.614, 1708.2 177.199 Q 1707.82 177.771, 1707.14 178.094 Q 1706.46 178.405, 1705.56 178.405 Q 1704.62 178.405, 1703.91 178.082 Q 1703.21 177.746, 1702.65 177.074 L 1703.36 176.353 Q 1703.91 176.95, 1704.37 177.186 Q 1704.83 177.41, 1705.56 177.41 Q 1706.36 177.41, 1706.84 176.987 Q 1707.33 176.552, 1707.33 175.855 Q 1707.33 174.959, 1706.82 174.561 Q 1706.32 174.151, 1705.24 174.151 L 1704.6 174.151 L 1704.6 173.255 L 1705.16 173.255 Q 1706.12 173.242, 1706.63 172.832 Q 1707.14 172.409, 1707.14 171.625 Q 1707.14 171.053, 1706.72 170.717 Q 1706.29 170.369, 1705.57 170.369 Q 1704.84 170.369, 1704.38 170.63 Q 1703.93 170.891, 1703.58 171.55 L 1702.72 171.09 Q 1703.04 170.356, 1703.78 169.871 Q 1704.53 169.373, 1705.57 169.373 Q 1706.87 169.373, 1707.63 169.983 Q 1708.38 170.593, 1708.38 171.625 Q 1708.38 172.334, 1708 172.844 Q 1707.61 173.354, 1706.88 173.641 " fill="#000000"/>
<path class="note" d="M 1769.57 183.305 L 1771.49 183.305 L 1771.49 176.724 L 1769.37 177.383 L 1769.08 176.649 L 1771.78 175.442 L 1772.66 175.592 L 1772.66 183.305 L 1774.39 183.305 L 1774.39 184.3 L 1769.57 184.3 L 1769.57 183.305 " fill="#000000"/>
<path class="note" d="M 1775.04 177.159 Q 1775.36 176.326, 1776.14 175.865 Q 1776.91 175.393, 1777.98 175.393 Q 1779.31 175.393, 1780.05 176.114 Q 1780.8 176.836, 1780.8 178.117 Q 1780.8 179.423, 1779.83 180.643 Q 1778.87 181.862, 1776.88 183.305 L 1780.95 183.305 L 1780.95 184.3 L 1775.02 184.3 L 1775.02 183.467 Q 1776.66 182.297, 1777.63 181.426 Q 1778.61 180.556, 1779.08 179.772 Q 1779.56 178.988, 1779.56 178.179 Q 1779.56 177.333, 1779.13 176.861 Q 1778.71 176.388, 1777.98 176.388 Q 1777.27 176.388, 1776.79 176.674 Q 1776.32 176.96, 1775.99 177.595 L 1775.04 177.159 " fill="#000000"/>
<path class="note" d="M 1802.29 231.028 L 1804.22 231.028 L 1804.22 224.446 L 1802.09 225.106 L 1801.8 224.372 L 1804.5 223.165 L 1805.39 223.314 L 1805.39 231.028 L 1807.12 231.028 L 1807.12 232.023 L 1802.29 232.023 L 1802.29 231.028 " fill="#000000"/>
<path class="note" d="M 1808.27 231.028 L 1810.2 231.028 L 1810.2 224.446 L 1808.08 225.106 L 1807.79 224.372 L 1810.49 223.165 L 1811.37 223.314 L 1811.37 231.028 L 1813.1 231.028 L 1813.1 232.023 L 1808.27 232.023 L 1808.27 231.028 " fill="#000000"/>
<path class="note" d="M 1852.71 242.915 L 1854.64 242.915 L 1854.64 236.334 L 1852.51 236.994 L 1852.22 236.259 L 1854.92 235.053 L 1855.81 235.202 L 1855.81 242.915 L 1857.54 242.915 L 1857.54 243.911 L 1852.71 243.911 L 1852.71 242.915 " fill="#000000"/>
<path class="note" d="M 1861.52 244.01 Q 1859.9 244.01, 1859.09 242.816 Q 1858.3 241.622, 1858.3 239.494 Q 1858.3 237.367, 1859.09 236.185 Q 1859.89 235.003, 1861.52 235.003 Q 1863.15 235.003, 1863.94 236.185 Q 1864.74 237.367, 1864.74 239.494 Q 1864.74 241.622, 1863.93 242.816 Q 1863.14 244.01, 1861.52 244.01 M 1861.52 243.015 Q 1862.48 243.015, 1862.99 242.132 Q 1863.5 241.236, 1863.5 239.494 Q 1863.5 237.765, 1862.99 236.882 Q 1862.48 235.998, 1861.52 235.998 Q 1860.57 235.998, 1860.05 236.882 Q 1859.54 237.765, 1859.54 239.494 Q 1859.54 241.236, 1860.05 242.132 Q 1860.57 243.015, 1861.52 243.015 " fill="#000000"/>
<path class="note" d="M 1886.52 322.122 Q 1886.84 321.288, 1887.61 320.828 Q 1888.38 320.355, 1889.45 320.355 Q 1890.78 320.355, 1891.53 321.077 Q 1892.28 321.798, 1892.28 323.08 Q 1892.28 324.386, 1891.31 325.605 Q 1890.35 326.824, 1888.36 328.267 L 1892.43 328.267 L 1892.43 329.263 L 1886.49 329.263 L 1886.49 328.429 Q 1888.13 327.26, 1889.1 326.389 Q 1890.09 325.518, 1890.56 324.734 Q 1891.03 323.95, 1891.03 323.142 Q 1891.03 322.296, 1890.61 321.823 Q 1890.19 321.35, 1889.45 321.35 Q 1888.74 321.35, 1888.27 321.636 Q 1887.8 321.922, 1887.46 322.557 L 1886.52 322.122 " fill="#000000"/>
<path class="note" d="M 1897.18 324.622 Q 1898.04 324.871, 1898.45 325.431 Q 1898.87 325.978, 1898.87 326.849 Q 1898.87 327.596, 1898.5 328.18 Q 1898.12 328.753, 1897.44 329.076 Q 1896.76 329.387, 1895.86 329.387 Q 1894.91 329.387, 1894.21 329.064 Q 1893.51 328.728, 1892.95 328.056 L 1893.66 327.334 Q 1894.21 327.931, 1894.67 328.168 Q 1895.13 328.392, 1895.86 328.392 Q 1896.66 328.392, 1897.14 327.969 Q 1897.63 327.533, 1897.63 326.837 Q 1897.63 325.941, 1897.12 325.543 Q 1896.62 325.132, 1895.54 325.132 L 1894.9 325.132 L 1894.9 324.237 L 1895.46 324.237 Q 1896.42 324.224, 1896.93 323.814 Q 1897.44 323.391, 1897.44 322.607 Q 1897.44 322.034, 1897.02 321.699 Q 1896.59 321.35, 1895.87 321.35 Q 1895.14 321.35, 1894.68 321.611 Q 1894.23 321.873, 1893.88 322.532 L 1893.02 322.072 Q 1893.33 321.338, 1894.08 320.853 Q 1894.83 320.355, 1895.87 320.355 Q 1897.17 320.355, 1897.93 320.965 Q 1898.68 321.574, 1898.68 322.607 Q 1898.68 323.316, 1898.3 323.826 Q 1897.91 324.336, 1897.18 324.622 " fill="#000000"/>
<path class="note" d="M 1757.73 302.425 Q 1758.06 301.592, 1758.83 301.131 Q 1759.6 300.659, 1760.67 300.659 Q 1762 300.659, 1762.75 301.38 Q 1763.49 302.102, 1763.49 303.383 Q 1763.49 304.69, 1762.52 305.909 Q 1761.57 307.128, 1759.58 308.571 L 1763.64 308.571 L 1763.64 309.566 L 1757.71 309.566 L 1757.71 308.733 Q 1759.35 307.563, 1760.32 306.693 Q 1761.31 305.822, 1761.78 305.038 Q 1762.25 304.254, 1762.25 303.445 Q 1762.25 302.599, 1761.83 302.127 Q 1761.4 301.654, 1760.67 301.654 Q 1759.96 301.654, 1759.49 301.94 Q 1759.02 302.226, 1758.68 302.861 L 1757.73 302.425 " fill="#000000"/>
<path class="note" d="M 1767.63 309.666 Q 1766.01 309.666, 1765.2 308.472 Q 1764.4 307.277, 1764.4 305.15 Q 1764.4 303.022, 1765.2 301.841 Q 1766 300.659, 1767.63 300.659 Q 1769.26 300.659, 1770.05 301.841 Q 1770.85 303.022, 1770.85 305.15 Q 1770.85 307.277, 1770.04 308.472 Q 1769.24 309.666, 1767.63 309.666 M 1767.63 308.671 Q 1768.58 308.671, 1769.09 307.787 Q 1769.6 306.892, 1769.6 305.15 Q 1769.6 303.421, 1769.09 302.537 Q 1768.58 301.654, 1767.63 301.654 Q 1766.68 301.654, 1766.16 302.537 Q 1765.65 303.421, 1765.65 305.15 Q 1765.65 306.892, 1766.16 307.787 Q 1766.68 308.671, 1767.63 308.671 " fill="#000000"/>
<path class="note" d="M 2714.13 424.37 L 2716.05 424.37 L 2716.05 417.789 L 2713.93 418.448 L 2713.64 417.714 L 2716.34 416.508 L 2717.22 416.657 L 2717.22 424.37 L 2718.95 424.37 L 2718.95 425.366 L 2714.13 425.366 L 2714.13 424.37 " fill="#000000"/>
<path class="note" d="M 2735.98 348.879 Q 2736.31 348.045, 2737.08 347.585 Q 2737.85 347.112, 2738.92 347.112 Q 2740.25 347.112, 2741 347.834 Q 2741.74 348.556, 2741.74 349.837 Q 2741.74 351.143, 2740.77 352.362 Q 2739.82 353.582, 2737.83 355.025 L 2741.89 355.025 L 2741.89 356.02 L 2735.96 356.02 L 2735.96 355.187 Q 2737.6 354.017, 2738.57 353.146 Q 2739.55 352.275, 2740.03 351.492 Q 2740.5 350.708, 2740.5 349.899 Q 2740.5 349.053, 2740.08 348.58 Q 2739.65 348.108, 2738.92 348.108 Q 2738.21 348.108, 2737.74 348.394 Q 2737.27 348.68, 2736.93 349.314 L 2735.98 348.879 " fill="#000000"/>
<path class="note" d="M 2672.14 326.189 Q 2672.99 326.438, 2673.4 326.998 Q 2673.83 327.545, 2673.83 328.416 Q 2673.83 329.163, 2673.45 329.748 Q 2673.08 330.32, 2672.4 330.643 Q 2671.71 330.954, 2670.82 330.954 Q 2669.87 330.954, 2669.16 330.631 Q 2668.47 330.295, 2667.91 329.623 L 2668.61 328.902 Q 2669.16 329.499, 2669.62 329.735 Q 2670.08 329.959, 2670.82 329.959 Q 2671.61 329.959, 2672.1 329.536 Q 2672.58 329.101, 2672.58 328.404 Q 2672.58 327.508, 2672.07 327.11 Q 2671.58 326.7, 2670.49 326.7 L 2669.86 326.7 L 2669.86 325.804 L 2670.42 325.804 Q 2671.38 325.791, 2671.89 325.381 Q 2672.4 324.958, 2672.4 324.174 Q 2672.4 323.602, 2671.97 323.266 Q 2671.55 322.917, 2670.83 322.917 Q 2670.09 322.917, 2669.63 323.179 Q 2669.19 323.44, 2668.84 324.099 L 2667.98 323.639 Q 2668.29 322.905, 2669.04 322.42 Q 2669.78 321.922, 2670.83 321.922 Q 2672.12 321.922, 2672.88 322.532 Q 2673.64 323.141, 2673.64 324.174 Q 2673.64 324.883, 2673.25 325.393 Q 2672.87 325.903, 2672.14 326.189 " fill="#000000"/>
<path class="note" d="M 2614.01 346.879 L 2615.06 346.879 L 2615.06 347.874 L 2614.01 347.874 L 2614.01 349.902 L 2612.84 349.902 L 2612.84 347.874 L 2608.28 347.874 L 2608.28 347.091 L 2612.14 341.094 L 2614.01 341.094 L 2614.01 346.879 M 2609.73 346.879 L 2612.84 346.879 L 2612.84 341.89 L 2609.73 346.879 " fill="#000000"/>
<path class="note" d="M 2554.01 307.938 Q 2554.78 307.938, 2555.41 308.274 Q 2556.05 308.597, 2556.41 309.219 Q 2556.77 309.829, 2556.77 310.662 Q 2556.77 311.57, 2556.32 312.23 Q 2555.89 312.877, 2555.16 313.213 Q 2554.44 313.549, 2553.62 313.549 Q 2552.81 313.549, 2552.07 313.25 Q 2551.32 312.951, 2550.81 312.379 L 2551.56 311.608 Q 2551.97 312.056, 2552.53 312.305 Q 2553.09 312.541, 2553.66 312.541 Q 2554.44 312.541, 2554.98 312.056 Q 2555.52 311.57, 2555.52 310.687 Q 2555.52 309.754, 2554.98 309.319 Q 2554.44 308.871, 2553.58 308.871 Q 2552.81 308.871, 2551.95 309.207 L 2551.27 308.883 L 2551.69 304.641 L 2556.22 304.641 L 2556.1 305.636 L 2552.71 305.636 L 2552.45 308.249 Q 2553.24 307.938, 2554.01 307.938 " fill="#000000"/>
<path class="note" d="M 2567.22 247.176 Q 2567.99 247.176, 2568.6 247.512 Q 2569.21 247.848, 2569.54 248.458 Q 2569.88 249.067, 2569.88 249.839 Q 2569.88 250.697, 2569.49 251.369 Q 2569.12 252.028, 2568.45 252.402 Q 2567.78 252.775, 2566.92 252.775 Q 2565.35 252.775, 2564.55 251.717 Q 2563.77 250.647, 2563.77 248.532 Q 2563.77 246.193, 2564.74 244.987 Q 2565.72 243.767, 2567.6 243.767 Q 2568.15 243.767, 2568.61 243.892 Q 2569.08 244.016, 2569.53 244.278 L 2569.05 245.111 Q 2568.4 244.763, 2567.61 244.763 Q 2566.37 244.763, 2565.74 245.571 Q 2565.1 246.368, 2565.03 248.022 Q 2565.48 247.612, 2566.03 247.4 Q 2566.61 247.176, 2567.22 247.176 M 2566.93 251.755 Q 2567.4 251.755, 2567.79 251.506 Q 2568.19 251.257, 2568.41 250.822 Q 2568.64 250.386, 2568.64 249.851 Q 2568.64 249.067, 2568.2 248.619 Q 2567.76 248.172, 2566.99 248.172 Q 2566.46 248.172, 2565.92 248.396 Q 2565.4 248.607, 2565.03 248.98 Q 2565.08 250.436, 2565.54 251.095 Q 2566 251.755, 2566.93 251.755 " fill="#000000"/>
<path class="note" d="M 2530.86 207.745 L 2526.24 207.745 L 2526.24 206.749 L 2532.09 206.749 L 2532.09 207.633 L 2528.53 215.558 L 2527.34 215.558 L 2530.86 207.745 " fill="#000000"/>
<path class="note" d="M 2466.62 222.681 Q 2467.43 223.029, 2467.89 223.552 Q 2468.35 224.062, 2468.35 224.933 Q 2468.35 225.679, 2467.96 226.264 Q 2467.57 226.836, 2466.88 227.16 Q 2466.19 227.471, 2465.29 227.471 Q 2463.82 227.471, 2462.97 226.799 Q 2462.13 226.115, 2462.13 224.933 Q 2462.13 224.211, 2462.5 223.676 Q 2462.87 223.129, 2463.64 222.718 Q 2463.07 222.395, 2462.76 221.922 Q 2462.45 221.437, 2462.45 220.69 Q 2462.45 219.658, 2463.2 219.048 Q 2463.95 218.438, 2465.24 218.438 Q 2466.52 218.438, 2467.26 219.048 Q 2468.02 219.658, 2468.02 220.69 Q 2468.02 221.337, 2467.66 221.822 Q 2467.31 222.295, 2466.62 222.681 M 2465.24 219.372 Q 2464.5 219.372, 2464.09 219.72 Q 2463.69 220.068, 2463.69 220.69 Q 2463.69 221.151, 2463.97 221.462 Q 2464.24 221.76, 2464.63 221.934 Q 2465.02 222.109, 2465.78 222.37 Q 2466.32 221.997, 2466.54 221.598 Q 2466.78 221.2, 2466.78 220.69 Q 2466.78 220.068, 2466.37 219.72 Q 2465.97 219.372, 2465.24 219.372 M 2465.29 226.538 Q 2466.11 226.538, 2466.6 226.102 Q 2467.1 225.654, 2467.1 224.92 Q 2467.1 224.447, 2466.84 224.149 Q 2466.58 223.85, 2466.18 223.676 Q 2465.8 223.502, 2465.1 223.278 L 2464.54 223.091 Q 2463.92 223.465, 2463.64 223.913 Q 2463.37 224.348, 2463.37 224.92 Q 2463.37 225.654, 2463.89 226.102 Q 2464.41 226.538, 2465.29 226.538 " fill="#000000"/>
<path class="note" d="M 2441.48 166.291 Q 2443.04 166.291, 2443.83 167.361 Q 2444.62 168.419, 2444.62 170.534 Q 2444.62 172.873, 2443.64 174.092 Q 2442.67 175.299, 2440.79 175.299 Q 2440.24 175.299, 2439.77 175.174 Q 2439.31 175.05, 2438.86 174.789 L 2439.35 173.955 Q 2440 174.303, 2440.78 174.303 Q 2442.02 174.303, 2442.66 173.507 Q 2443.29 172.699, 2443.37 171.044 Q 2442.92 171.454, 2442.35 171.678 Q 2441.79 171.89, 2441.18 171.89 Q 2440.41 171.89, 2439.8 171.554 Q 2439.19 171.218, 2438.85 170.608 Q 2438.52 169.999, 2438.52 169.228 Q 2438.52 168.369, 2438.89 167.71 Q 2439.27 167.038, 2439.95 166.665 Q 2440.62 166.291, 2441.48 166.291 M 2439.76 169.215 Q 2439.76 169.999, 2440.2 170.447 Q 2440.63 170.895, 2441.4 170.895 Q 2441.94 170.895, 2442.46 170.683 Q 2442.99 170.459, 2443.37 170.086 Q 2443.32 168.63, 2442.86 167.971 Q 2442.4 167.312, 2441.46 167.312 Q 2440.99 167.312, 2440.59 167.56 Q 2440.21 167.809, 2439.98 168.245 Q 2439.76 168.68, 2439.76 169.215 " fill="#000000"/>
<path class="note" d="M 2368.21 137.414 L 2370.14 137.414 L 2370.14 130.833 L 2368.01 131.492 L 2367.72 130.758 L 2370.42 129.551 L 2371.31 129.7 L 2371.31 137.414 L 2373.03 137.414 L 2373.03 138.409 L 2368.21 138.409 L 2368.21 137.414 " fill="#000000"/>
<path class="note" d="M 2377.02 138.509 Q 2375.4 138.509, 2374.59 137.314 Q 2373.79 136.12, 2373.79 133.993 Q 2373.79 131.865, 2374.59 130.683 Q 2375.39 129.501, 2377.02 129.501 Q 2378.65 129.501, 2379.44 130.683 Q 2380.24 131.865, 2380.24 133.993 Q 2380.24 136.12, 2379.43 137.314 Q 2378.63 138.509, 2377.02 138.509 M 2377.02 137.513 Q 2377.97 137.513, 2378.48 136.63 Q 2378.99 135.734, 2378.99 133.993 Q 2378.99 132.263, 2378.48 131.38 Q 2377.97 130.497, 2377.02 130.497 Q 2376.07 130.497, 2375.55 131.38 Q 2375.04 132.263, 2375.04 133.993 Q 2375.04 135.734, 2375.55 136.63 Q 2376.07 137.513, 2377.02 137.513 " fill="#000000"/>
<path class="note" d="M 2332.17 187.652 L 2334.1 187.652 L 2334.1 181.071 L 2331.97 181.73 L 2331.68 180.996 L 2334.38 179.789 L 2335.27 179.938 L 2335.27 187.652 L 2337 187.652 L 2337 188.647 L 2332.17 188.647 L 2332.17 187.652 " fill="#000000"/>
<path class="note" d="M 2338.15 187.652 L 2340.08 187.652 L 2340.08 181.071 L 2337.95 181.73 L 2337.67 180.996 L 2340.37 179.789 L 2341.25 179.938 L 2341.25 187.652 L 2342.98 187.652 L 2342.98 188.647 L 2338.15 188.647 L 2338.15 187.652 " fill="#000000"/>
<path class="note" d="M 2270.03 181.07 L 2271.96 181.07 L 2271.96 174.488 L 2269.83 175.148 L 2269.54 174.414 L 2272.24 173.207 L 2273.13 173.356 L 2273.13 181.07 L 2274.86 181.07 L 2274.86 182.065 L 2270.03 182.065 L 2270.03 181.07 " fill="#000000"/>
<path class="note" d="M 2275.5 174.924 Q 2275.83 174.09, 2276.6 173.63 Q 2277.37 173.157, 2278.44 173.157 Q 2279.77 173.157, 2280.52 173.879 Q 2281.26 174.6, 2281.26 175.882 Q 2281.26 177.188, 2280.29 178.407 Q 2279.34 179.627, 2277.34 181.07 L 2281.41 181.07 L 2281.41 182.065 L 2275.48 182.065 L 2275.48 181.232 Q 2277.12 180.062, 2278.09 179.191 Q 2279.07 178.32, 2279.55 177.537 Q 2280.02 176.753, 2280.02 175.944 Q 2280.02 175.098, 2279.6 174.625 Q 2279.17 174.153, 2278.44 174.153 Q 2277.73 174.153, 2277.26 174.439 Q 2276.78 174.725, 2276.45 175.359 L 2275.5 174.924 " fill="#000000"/>
<path class="note" d="M 2227.33 239.71 L 2229.26 239.71 L 2229.26 233.128 L 2227.13 233.788 L 2226.84 233.054 L 2229.54 231.847 L 2230.43 231.996 L 2230.43 239.71 L 2232.16 239.71 L 2232.16 240.705 L 2227.33 240.705 L 2227.33 239.71 " fill="#000000"/>
<path class="note" d="M 2236.91 236.065 Q 2237.77 236.313, 2238.18 236.873 Q 2238.6 237.421, 2238.6 238.292 Q 2238.6 239.038, 2238.23 239.623 Q 2237.85 240.195, 2237.17 240.518 Q 2236.49 240.829, 2235.59 240.829 Q 2234.64 240.829, 2233.94 240.506 Q 2233.24 240.17, 2232.68 239.498 L 2233.39 238.777 Q 2233.94 239.374, 2234.4 239.61 Q 2234.86 239.834, 2235.59 239.834 Q 2236.39 239.834, 2236.87 239.411 Q 2237.36 238.976, 2237.36 238.279 Q 2237.36 237.383, 2236.85 236.985 Q 2236.35 236.575, 2235.27 236.575 L 2234.63 236.575 L 2234.63 235.679 L 2235.19 235.679 Q 2236.15 235.666, 2236.66 235.256 Q 2237.17 234.833, 2237.17 234.049 Q 2237.17 233.477, 2236.75 233.141 Q 2236.32 232.793, 2235.6 232.793 Q 2234.87 232.793, 2234.41 233.054 Q 2233.96 233.315, 2233.61 233.974 L 2232.75 233.514 Q 2233.06 232.78, 2233.81 232.295 Q 2234.56 231.797, 2235.6 231.797 Q 2236.9 231.797, 2237.65 232.407 Q 2238.41 233.017, 2238.41 234.049 Q 2238.41 234.758, 2238.03 235.268 Q 2237.64 235.778, 2236.91 236.065 " fill="#000000"/>
<path class="note" d="M 2256.38 306.033 L 2258.31 306.033 L 2258.31 299.452 L 2256.18 300.111 L 2255.89 299.377 L 2258.59 298.17 L 2259.48 298.32 L 2259.48 306.033 L 2261.21 306.033 L 2261.21 307.028 L 2256.38 307.028 L 2256.38 306.033 " fill="#000000"/>
<path class="note" d="M 2267.3 304.005 L 2268.36 304.005 L 2268.36 305 L 2267.3 305 L 2267.3 307.028 L 2266.13 307.028 L 2266.13 305 L 2261.58 305 L 2261.58 304.217 L 2265.44 298.22 L 2267.3 298.22 L 2267.3 304.005 M 2263.02 304.005 L 2266.13 304.005 L 2266.13 299.016 L 2263.02 304.005 " fill="#000000"/>
<path class="note" d="M 2318.54 312.64 L 2320.47 312.64 L 2320.47 306.059 L 2318.34 306.718 L 2318.06 305.984 L 2320.76 304.777 L 2321.64 304.927 L 2321.64 312.64 L 2323.37 312.64 L 2323.37 313.635 L 2318.54 313.635 L 2318.54 312.64 " fill="#000000"/>
<path class="note" d="M 2327.14 308.124 Q 2327.91 308.124, 2328.55 308.46 Q 2329.18 308.783, 2329.54 309.405 Q 2329.9 310.015, 2329.9 310.849 Q 2329.9 311.757, 2329.45 312.416 Q 2329.02 313.063, 2328.3 313.399 Q 2327.58 313.735, 2326.76 313.735 Q 2325.95 313.735, 2325.2 313.436 Q 2324.45 313.138, 2323.94 312.565 L 2324.69 311.794 Q 2325.1 312.242, 2325.66 312.491 Q 2326.22 312.727, 2326.79 312.727 Q 2327.58 312.727, 2328.11 312.242 Q 2328.66 311.757, 2328.66 310.873 Q 2328.66 309.94, 2328.11 309.505 Q 2327.58 309.057, 2326.72 309.057 Q 2325.95 309.057, 2325.09 309.393 L 2324.4 309.069 L 2324.83 304.827 L 2329.36 304.827 L 2329.23 305.822 L 2325.85 305.822 L 2325.59 308.435 Q 2326.37 308.124, 2327.14 308.124 " fill="#000000"/>
<path class="note" d="M 2370.26 363.36 L 2372.19 363.36 L 2372.19 356.779 L 2370.06 357.438 L 2369.78 356.704 L 2372.48 355.497 L 2373.36 355.647 L 2373.36 363.36 L 2375.09 363.36 L 2375.09 364.355 L 2370.26 364.355 L 2370.26 363.36 " fill="#000000"/>
<path class="note" d="M 2379.38 358.856 Q 2380.15 358.856, 2380.76 359.192 Q 2381.37 359.528, 2381.71 360.138 Q 2382.04 360.747, 2382.04 361.519 Q 2382.04 362.377, 2381.66 363.049 Q 2381.29 363.708, 2380.61 364.082 Q 2379.94 364.455, 2379.08 364.455 Q 2377.52 364.455, 2376.72 363.397 Q 2375.94 362.327, 2375.94 360.212 Q 2375.94 357.873, 2376.91 356.667 Q 2377.89 355.447, 2379.77 355.447 Q 2380.32 355.447, 2380.78 355.572 Q 2381.25 355.696, 2381.7 355.958 L 2381.21 356.791 Q 2380.56 356.443, 2379.78 356.443 Q 2378.54 356.443, 2377.9 357.251 Q 2377.27 358.048, 2377.19 359.702 Q 2377.64 359.292, 2378.2 359.08 Q 2378.77 358.856, 2379.38 358.856 M 2379.1 363.435 Q 2379.57 363.435, 2379.95 363.186 Q 2380.35 362.937, 2380.58 362.502 Q 2380.8 362.066, 2380.8 361.531 Q 2380.8 360.747, 2380.37 360.299 Q 2379.93 359.852, 2379.16 359.852 Q 2378.62 359.852, 2378.09 360.076 Q 2377.57 360.287, 2377.19 360.66 Q 2377.24 362.116, 2377.7 362.775 Q 2378.16 363.435, 2379.1 363.435 " fill="#000000"/>
<path class="note" d="M 2315.64 390.778 L 2317.57 390.778 L 2317.57 384.197 L 2315.44 384.856 L 2315.16 384.122 L 2317.86 382.915 L 2318.74 383.064 L 2318.74 390.778 L 2320.47 390.778 L 2320.47 391.773 L 2315.64 391.773 L 2315.64 390.778 " fill="#000000"/>
<path class="note" d="M 2325.31 383.96 L 2320.69 383.96 L 2320.69 382.965 L 2326.54 382.965 L 2326.54 383.848 L 2322.98 391.773 L 2321.79 391.773 L 2325.31 383.96 " fill="#000000"/>
<path class="note" d="M 2327.87 467.189 L 2329.8 467.189 L 2329.8 460.608 L 2327.68 461.267 L 2327.39 460.533 L 2330.09 459.326 L 2330.97 459.476 L 2330.97 467.189 L 2332.7 467.189 L 2332.7 468.184 L 2327.87 468.184 L 2327.87 467.189 " fill="#000000"/>
<path class="note" d="M 2337.96 463.519 Q 2338.77 463.867, 2339.23 464.39 Q 2339.69 464.9, 2339.69 465.771 Q 2339.69 466.517, 2339.31 467.102 Q 2338.92 467.674, 2338.23 467.998 Q 2337.54 468.309, 2336.63 468.309 Q 2335.16 468.309, 2334.32 467.637 Q 2333.47 466.953, 2333.47 465.771 Q 2333.47 465.049, 2333.85 464.514 Q 2334.22 463.967, 2334.99 463.556 Q 2334.42 463.233, 2334.11 462.76 Q 2333.8 462.275, 2333.8 461.529 Q 2333.8 460.496, 2334.54 459.886 Q 2335.3 459.277, 2336.58 459.277 Q 2337.86 459.277, 2338.61 459.886 Q 2339.37 460.496, 2339.37 461.529 Q 2339.37 462.175, 2339.01 462.661 Q 2338.66 463.133, 2337.96 463.519 M 2336.58 460.21 Q 2335.85 460.21, 2335.44 460.558 Q 2335.04 460.906, 2335.04 461.529 Q 2335.04 461.989, 2335.31 462.3 Q 2335.59 462.598, 2335.97 462.773 Q 2336.37 462.947, 2337.13 463.208 Q 2337.67 462.835, 2337.89 462.437 Q 2338.13 462.039, 2338.13 461.529 Q 2338.13 460.906, 2337.72 460.558 Q 2337.32 460.21, 2336.58 460.21 M 2336.63 467.376 Q 2337.45 467.376, 2337.95 466.94 Q 2338.45 466.492, 2338.45 465.758 Q 2338.45 465.286, 2338.19 464.987 Q 2337.93 464.689, 2337.53 464.514 Q 2337.14 464.34, 2336.45 464.116 L 2335.89 463.93 Q 2335.26 464.303, 2334.99 464.751 Q 2334.72 465.186, 2334.72 465.758 Q 2334.72 466.492, 2335.24 466.94 Q 2335.76 467.376, 2336.63 467.376 " fill="#000000"/>
<path class="note" d="M 2230.61 402.611 L 2232.54 402.611 L 2232.54 396.03 L 2230.41 396.689 L 2230.12 395.955 L 2232.82 394.748 L 2233.7 394.898 L 2233.7 402.611 L 2235.43 402.611 L 2235.43 403.606 L 2230.61 403.606 L 2230.61 402.611 " fill="#000000"/>
<path class="note" d="M 2239.08 394.699 Q 2240.65 394.699, 2241.43 395.769 Q 2242.23 396.826, 2242.23 398.941 Q 2242.23 401.28, 2241.24 402.499 Q 2240.27 403.706, 2238.4 403.706 Q 2237.85 403.706, 2237.37 403.582 Q 2236.91 403.457, 2236.47 403.196 L 2236.95 402.362 Q 2237.6 402.711, 2238.38 402.711 Q 2239.63 402.711, 2240.26 401.914 Q 2240.9 401.106, 2240.97 399.451 Q 2240.52 399.862, 2239.95 400.086 Q 2239.39 400.297, 2238.78 400.297 Q 2238.01 400.297, 2237.4 399.961 Q 2236.79 399.625, 2236.45 399.016 Q 2236.12 398.406, 2236.12 397.635 Q 2236.12 396.776, 2236.49 396.117 Q 2236.88 395.445, 2237.55 395.072 Q 2238.22 394.699, 2239.08 394.699 M 2237.36 397.622 Q 2237.36 398.406, 2237.8 398.854 Q 2238.23 399.302, 2239 399.302 Q 2239.54 399.302, 2240.06 399.09 Q 2240.6 398.866, 2240.97 398.493 Q 2240.92 397.038, 2240.46 396.378 Q 2240 395.719, 2239.07 395.719 Q 2238.59 395.719, 2238.2 395.968 Q 2237.81 396.216, 2237.59 396.652 Q 2237.36 397.087, 2237.36 397.622 " fill="#000000"/>
<path class="note" d="M 2380.5 250.081 Q 2380.82 249.248, 2381.59 248.788 Q 2382.37 248.315, 2383.44 248.315 Q 2384.77 248.315, 2385.51 249.036 Q 2386.26 249.758, 2386.26 251.039 Q 2386.26 252.346, 2385.29 253.565 Q 2384.33 254.784, 2382.34 256.227 L 2386.41 256.227 L 2386.41 257.223 L 2380.48 257.223 L 2380.48 256.389 Q 2382.12 255.22, 2383.09 254.349 Q 2384.07 253.478, 2384.54 252.694 Q 2385.02 251.91, 2385.02 251.102 Q 2385.02 250.256, 2384.59 249.783 Q 2384.17 249.31, 2383.44 249.31 Q 2382.73 249.31, 2382.25 249.596 Q 2381.78 249.882, 2381.45 250.517 L 2380.5 250.081 " fill="#000000"/>
<path class="note" d="M 2390.39 257.322 Q 2388.77 257.322, 2387.96 256.128 Q 2387.17 254.933, 2387.17 252.806 Q 2387.17 250.679, 2387.96 249.497 Q 2388.76 248.315, 2390.39 248.315 Q 2392.02 248.315, 2392.82 249.497 Q 2393.61 250.679, 2393.61 252.806 Q 2393.61 254.933, 2392.8 256.128 Q 2392.01 257.322, 2390.39 257.322 M 2390.39 256.327 Q 2391.35 256.327, 2391.86 255.443 Q 2392.37 254.548, 2392.37 252.806 Q 2392.37 251.077, 2391.86 250.193 Q 2391.35 249.31, 2390.39 249.31 Q 2389.44 249.31, 2388.92 250.193 Q 2388.41 251.077, 2388.41 252.806 Q 2388.41 254.548, 2388.92 255.443 Q 2389.44 256.327, 2390.39 256.327 " fill="#000000"/>
<path class="note" d="M 2480.82 121.234 Q 2481.15 120.401, 2481.92 119.94 Q 2482.69 119.468, 2483.76 119.468 Q 2485.09 119.468, 2485.84 120.189 Q 2486.58 120.911, 2486.58 122.192 Q 2486.58 123.498, 2485.61 124.718 Q 2484.65 125.937, 2482.66 127.38 L 2486.73 127.38 L 2486.73 128.375 L 2480.8 128.375 L 2480.8 127.542 Q 2482.44 126.372, 2483.41 125.501 Q 2484.39 124.631, 2484.87 123.847 Q 2485.34 123.063, 2485.34 122.254 Q 2485.34 121.408, 2484.92 120.936 Q 2484.49 120.463, 2483.76 120.463 Q 2483.05 120.463, 2482.58 120.749 Q 2482.1 121.035, 2481.77 121.67 L 2480.82 121.234 " fill="#000000"/>
<path class="note" d="M 2487.89 127.38 L 2489.82 127.38 L 2489.82 120.799 L 2487.69 121.458 L 2487.4 120.724 L 2490.1 119.517 L 2490.99 119.667 L 2490.99 127.38 L 2492.72 127.38 L 2492.72 128.375 L 2487.89 128.375 L 2487.89 127.38 " fill="#000000"/>
<path class="note" d="M 2458.1 20.04 Q 2458.42 19.2065, 2459.19 18.7462 Q 2459.96 18.2734, 2461.03 18.2734 Q 2462.36 18.2734, 2463.11 18.995 Q 2463.86 19.7166, 2463.86 20.998 Q 2463.86 22.3043, 2462.89 23.5235 Q 2461.93 24.7427, 2459.94 26.1859 L 2464.01 26.1859 L 2464.01 27.1811 L 2458.07 27.1811 L 2458.07 26.3476 Q 2459.71 25.1781, 2460.68 24.3073 Q 2461.67 23.4364, 2462.14 22.6526 Q 2462.61 21.8688, 2462.61 21.0602 Q 2462.61 20.2142, 2462.19 19.7414 Q 2461.77 19.2687, 2461.03 19.2687 Q 2460.32 19.2687, 2459.85 19.5548 Q 2459.38 19.841, 2459.04 20.4755 L 2458.1 20.04 " fill="#000000"/>
<path class="note" d="M 2464.65 20.04 Q 2464.98 19.2065, 2465.75 18.7462 Q 2466.52 18.2734, 2467.59 18.2734 Q 2468.92 18.2734, 2469.67 18.995 Q 2470.41 19.7166, 2470.41 20.998 Q 2470.41 22.3043, 2469.44 23.5235 Q 2468.49 24.7427, 2466.49 26.1859 L 2470.56 26.1859 L 2470.56 27.1811 L 2464.63 27.1811 L 2464.63 26.3476 Q 2466.27 25.1781, 2467.24 24.3073 Q 2468.22 23.4364, 2468.7 22.6526 Q 2469.17 21.8688, 2469.17 21.0602 Q 2469.17 20.2142, 2468.75 19.7414 Q 2468.32 19.2687, 2467.59 19.2687 Q 2466.88 19.2687, 2466.41 19.5548 Q 2465.94 19.841, 2465.6 20.4755 L 2464.65 20.04 " fill="#000000"/>
<path class="note" d="M 2550.02 116.257 Q 2550.34 115.423, 2551.11 114.963 Q 2551.88 114.49, 2552.95 114.49 Q 2554.29 114.49, 2555.03 115.212 Q 2555.78 115.933, 2555.78 117.215 Q 2555.78 118.521, 2554.81 119.74 Q 2553.85 120.96, 2551.86 122.403 L 2555.93 122.403 L 2555.93 123.398 L 2549.99 123.398 L 2549.99 122.564 Q 2551.64 121.395, 2552.61 120.524 Q 2553.59 119.653, 2554.06 118.869 Q 2554.53 118.086, 2554.53 117.277 Q 2554.53 116.431, 2554.11 115.958 Q 2553.69 115.486, 2552.95 115.486 Q 2552.25 115.486, 2551.77 115.772 Q 2551.3 116.058, 2550.96 116.692 L 2550.02 116.257 " fill="#000000"/>
<path class="note" d="M 2560.68 118.757 Q 2561.54 119.006, 2561.95 119.566 Q 2562.37 120.114, 2562.37 120.984 Q 2562.37 121.731, 2562 122.316 Q 2561.63 122.888, 2560.94 123.211 Q 2560.26 123.522, 2559.36 123.522 Q 2558.42 123.522, 2557.71 123.199 Q 2557.01 122.863, 2556.45 122.191 L 2557.16 121.47 Q 2557.71 122.067, 2558.17 122.303 Q 2558.63 122.527, 2559.36 122.527 Q 2560.16 122.527, 2560.64 122.104 Q 2561.13 121.669, 2561.13 120.972 Q 2561.13 120.076, 2560.62 119.678 Q 2560.12 119.268, 2559.04 119.268 L 2558.4 119.268 L 2558.4 118.372 L 2558.96 118.372 Q 2559.92 118.359, 2560.43 117.949 Q 2560.94 117.526, 2560.94 116.742 Q 2560.94 116.17, 2560.52 115.834 Q 2560.1 115.486, 2559.37 115.486 Q 2558.64 115.486, 2558.18 115.747 Q 2557.73 116.008, 2557.38 116.667 L 2556.53 116.207 Q 2556.84 115.473, 2557.58 114.988 Q 2558.33 114.49, 2559.37 114.49 Q 2560.67 114.49, 2561.43 115.1 Q 2562.19 115.709, 2562.19 116.742 Q 2562.19 117.451, 2561.8 117.961 Q 2561.41 118.471, 2560.68 118.757 " fill="#000000"/>
<path class="note" d="M 2634.78 190.752 Q 2635.1 189.918, 2635.87 189.458 Q 2636.64 188.985, 2637.71 188.985 Q 2639.04 188.985, 2639.79 189.707 Q 2640.54 190.428, 2640.54 191.71 Q 2640.54 193.016, 2639.57 194.235 Q 2638.61 195.455, 2636.62 196.898 L 2640.69 196.898 L 2640.69 197.893 L 2634.75 197.893 L 2634.75 197.059 Q 2636.39 195.89, 2637.37 195.019 Q 2638.35 194.148, 2638.82 193.364 Q 2639.29 192.581, 2639.29 191.772 Q 2639.29 190.926, 2638.87 190.453 Q 2638.45 189.98, 2637.71 189.98 Q 2637 189.98, 2636.53 190.267 Q 2636.06 190.553, 2635.72 191.187 L 2634.78 190.752 " fill="#000000"/>
<path class="note" d="M 2646.78 194.87 L 2647.84 194.87 L 2647.84 195.865 L 2646.78 195.865 L 2646.78 197.893 L 2645.61 197.893 L 2645.61 195.865 L 2641.06 195.865 L 2641.06 195.081 L 2644.92 189.085 L 2646.78 189.085 L 2646.78 194.87 M 2642.5 194.87 L 2645.61 194.87 L 2645.61 189.881 L 2642.5 194.87 " fill="#000000"/>
<path class="note" d="M 2690.8 237.342 Q 2691.12 236.509, 2691.9 236.048 Q 2692.67 235.576, 2693.74 235.576 Q 2695.07 235.576, 2695.81 236.297 Q 2696.56 237.019, 2696.56 238.3 Q 2696.56 239.607, 2695.59 240.826 Q 2694.63 242.045, 2692.64 243.488 L 2696.71 243.488 L 2696.71 244.483 L 2690.78 244.483 L 2690.78 243.65 Q 2692.42 242.48, 2693.39 241.61 Q 2694.37 240.739, 2694.84 239.955 Q 2695.32 239.171, 2695.32 238.362 Q 2695.32 237.516, 2694.89 237.044 Q 2694.47 236.571, 2693.74 236.571 Q 2693.03 236.571, 2692.55 236.857 Q 2692.08 237.143, 2691.75 237.778 L 2690.8 237.342 " fill="#000000"/>
<path class="note" d="M 2700.48 238.972 Q 2701.25 238.972, 2701.89 239.308 Q 2702.52 239.631, 2702.88 240.253 Q 2703.24 240.863, 2703.24 241.697 Q 2703.24 242.605, 2702.79 243.264 Q 2702.36 243.911, 2701.64 244.247 Q 2700.91 244.583, 2700.09 244.583 Q 2699.29 244.583, 2698.54 244.284 Q 2697.79 243.986, 2697.28 243.414 L 2698.03 242.642 Q 2698.44 243.09, 2699 243.339 Q 2699.56 243.575, 2700.13 243.575 Q 2700.91 243.575, 2701.45 243.09 Q 2702 242.605, 2702 241.722 Q 2702 240.788, 2701.45 240.353 Q 2700.91 239.905, 2700.06 239.905 Q 2699.29 239.905, 2698.43 240.241 L 2697.74 239.918 L 2698.17 235.675 L 2702.69 235.675 L 2702.57 236.67 L 2699.19 236.67 L 2698.92 239.283 Q 2699.71 238.972, 2700.48 238.972 " fill="#000000"/>
<path d="M 1566.89 251.614 L 1572.94 251.614 L 1572.94 245.246 L 1575.62 245.246 L 1575.62 251.614 L 1581.83 251.614 L 1581.83 253.918 L 1575.62 253.918 L 1575.62 260.318 L 1572.94 260.318 L 1572.94 253.918 L 1566.89 253.918 L 1566.89 251.614 " fill="#000000"/>
<path d="M 1974.81,253.918 L 2140.69,253.918" style="fill:none;fill-rule:evenodd;stroke:#000000;stroke-width:2.0px;stroke-linecap:butt;stroke-linejoin:miter;stroke-opacity:1"/>
<path d="M 2140.69,253.918 L 2133.5,249.771" style="fill:none;fill-rule:evenodd;stroke:#000000;stroke-width:2.0px;stroke-linecap:butt;stroke-linejoin:miter;stroke-opacity:1"/>
<path d="M 2140.69,253.918 L 2133.5,258.065" style="fill:none;fill-rule:evenodd;stroke:#000000;stroke-width:2.0px;stroke-linecap:butt;stroke-linejoin:miter;stroke-opacity:1"/>
</svg>