<svg xmlns="http://www.w3.org/2000/svg" xmlns:rdkit="http://www.rdkit.org/xml" xmlns:xlink="http://www.w3.org/1999/xlink" version="1.1" baseProfile="full" xml:space="preserve" width="4000px" height="500px" viewBox="0 0 4000 500">
<!-- END OF HEADER -->
<rect style="opacity:1.0;fill:#FFFFFF;stroke:none" width="4000" height="500" x="0" y="0"> </rect>
<path d="M 414.105,191.13 L 510.966,247.052" style="fill:none;fill-rule:evenodd;stroke:#FFFFAA;stroke-width:23.9px;stroke-linecap:butt;stroke-linejoin:miter;stroke-opacity:1"/>
<path d="M 510.966,247.052 L 510.966,358.898" style="fill:none;fill-rule:evenodd;stroke:#FFFFAA;stroke-width:23.9px;stroke-linecap:butt;stroke-linejoin:miter;stroke-opacity:1"/>
<path d="M 510.966,247.052 L 607.828,191.13" style="fill:none;fill-rule:evenodd;stroke:#FFFFAA;stroke-width:23.9px;stroke-linecap:butt;stroke-linejoin:miter;stroke-opacity:1"/>
<path d="M 607.828,191.13 L 704.689,247.052" style="fill:none;fill-rule:evenodd;stroke:#FFFFAA;stroke-width:23.9px;stroke-linecap:butt;stroke-linejoin:miter;stroke-opacity:1"/>
<path d="M 704.689,247.052 L 801.55,191.13" style="fill:none;fill-rule:evenodd;stroke:#FFFFAA;stroke-width:23.9px;stroke-linecap:butt;stroke-linejoin:miter;stroke-opacity:1"/>
<path d="M 704.689,247.052 L 704.689,358.898" style="fill:none;fill-rule:evenodd;stroke:#FFFFAA;stroke-width:23.9px;stroke-linecap:butt;stroke-linejoin:miter;stroke-opacity:1"/>
<path d="M 1172.57,258.407 L 1284.13,250.511" style="fill:none;fill-rule:evenodd;stroke:#FFCC99;stroke-width:23.9px;stroke-linecap:butt;stroke-linejoin:miter;stroke-opacity:1"/>
<path d="M 1172.57,258.407 L 1109.95,165.735" style="fill:none;fill-rule:evenodd;stroke:#FFCC99;stroke-width:23.9px;stroke-linecap:butt;stroke-linejoin:miter;stroke-opacity:1"/>
<path d="M 1284.13,250.511 L 1333.08,149.944" style="fill:none;fill-rule:evenodd;stroke:#FFCC99;stroke-width:23.9px;stroke-linecap:butt;stroke-linejoin:miter;stroke-opacity:1"/>
<path d="M 1284.13,250.511 L 1346.75,343.183" style="fill:none;fill-rule:evenodd;stroke:#FFCC99;stroke-width:23.9px;stroke-linecap:butt;stroke-linejoin:miter;stroke-opacity:1"/>
<path d="M 1333.08,149.944 L 1444.65,142.049" style="fill:none;fill-rule:evenodd;stroke:#FFCC99;stroke-width:23.9px;stroke-linecap:butt;stroke-linejoin:miter;stroke-opacity:1"/>
<path d="M 1444.65,142.049 L 1507.27,234.721" style="fill:none;fill-rule:evenodd;stroke:#FFCC99;stroke-width:23.9px;stroke-linecap:butt;stroke-linejoin:miter;stroke-opacity:1"/>
<path d="M 1507.27,234.721 L 1618.83,226.826" style="fill:none;fill-rule:evenodd;stroke:#FFCC99;stroke-width:23.9px;stroke-linecap:butt;stroke-linejoin:miter;stroke-opacity:1"/>
<path d="M 1507.27,234.721 L 1458.32,335.288" style="fill:none;fill-rule:evenodd;stroke:#FFCC99;stroke-width:23.9px;stroke-linecap:butt;stroke-linejoin:miter;stroke-opacity:1"/>
<path d="M 1458.32,335.288 L 1346.75,343.183" style="fill:none;fill-rule:evenodd;stroke:#FFCC99;stroke-width:23.9px;stroke-linecap:butt;stroke-linejoin:miter;stroke-opacity:1"/>
<path d="M 1346.75,343.183 L 1297.81,443.75" style="fill:none;fill-rule:evenodd;stroke:#FFCC99;stroke-width:23.9px;stroke-linecap:butt;stroke-linejoin:miter;stroke-opacity:1"/>
<path d="M 2454.31,347.89 L 2562.67,320.187" style="fill:none;fill-rule:evenodd;stroke:#FFFFAA;stroke-width:23.9px;stroke-linecap:butt;stroke-linejoin:miter;stroke-opacity:1"/>
<path d="M 2965.92,317.068 L 3074.28,289.364" style="fill:none;fill-rule:evenodd;stroke:#FFCC99;stroke-width:23.9px;stroke-linecap:butt;stroke-linejoin:miter;stroke-opacity:1"/>
<path d="M 3074.28,289.364 L 3152.45,369.355" style="fill:none;fill-rule:evenodd;stroke:#FFCC99;stroke-width:23.9px;stroke-linecap:butt;stroke-linejoin:miter;stroke-opacity:1"/>
<path d="M 3074.28,289.364 L 3104.47,181.67" style="fill:none;fill-rule:evenodd;stroke:#FFCC99;stroke-width:23.9px;stroke-linecap:butt;stroke-linejoin:miter;stroke-opacity:1"/>
<path d="M 3152.45,369.355 L 3260.81,341.652" style="fill:none;fill-rule:evenodd;stroke:#FFCC99;stroke-width:23.9px;stroke-linecap:butt;stroke-linejoin:miter;stroke-opacity:1"/>
<path d="M 3260.81,341.652 L 3291,233.957" style="fill:none;fill-rule:evenodd;stroke:#FFCC99;stroke-width:23.9px;stroke-linecap:butt;stroke-linejoin:miter;stroke-opacity:1"/>
<path d="M 3291,233.957 L 3399.36,206.254" style="fill:none;fill-rule:evenodd;stroke:#FFCC99;stroke-width:23.9px;stroke-linecap:butt;stroke-linejoin:miter;stroke-opacity:1"/>
<path d="M 3291,233.957 L 3212.83,153.966" style="fill:none;fill-rule:evenodd;stroke:#FFCC99;stroke-width:23.9px;stroke-linecap:butt;stroke-linejoin:miter;stroke-opacity:1"/>
<path d="M 3477.53,286.245 L 3585.89,258.541" style="fill:none;fill-rule:evenodd;stroke:#FFFFAA;stroke-width:23.9px;stroke-linecap:butt;stroke-linejoin:miter;stroke-opacity:1"/>
<path d="M 3477.53,286.245 L 3447.35,393.939" style="fill:none;fill-rule:evenodd;stroke:#FFFFAA;stroke-width:23.9px;stroke-linecap:butt;stroke-linejoin:miter;stroke-opacity:1"/>
<path d="M 3212.83,153.966 L 3104.47,181.67" style="fill:none;fill-rule:evenodd;stroke:#FFCC99;stroke-width:23.9px;stroke-linecap:butt;stroke-linejoin:miter;stroke-opacity:1"/>
<path d="M 3104.47,181.67 L 3026.3,101.679" style="fill:none;fill-rule:evenodd;stroke:#FFCC99;stroke-width:23.9px;stroke-linecap:butt;stroke-linejoin:miter;stroke-opacity:1"/>
<ellipse cx="414.105" cy="191.13" rx="22.3691" ry="22.3691" style="fill:#FFFFAA;fill-rule:evenodd;stroke:#FFFFAA;stroke-width:1px;stroke-linecap:butt;stroke-linejoin:miter;stroke-opacity:1"/>
<ellipse cx="510.966" cy="247.052" rx="22.3691" ry="22.3691" style="fill:#FFFFAA;fill-rule:evenodd;stroke:#FFFFAA;stroke-width:1px;stroke-linecap:butt;stroke-linejoin:miter;stroke-opacity:1"/>
<ellipse cx="510.966" cy="359.118" rx="22.3691" ry="22.3691" style="fill:#FFFFAA;fill-rule:evenodd;stroke:#FFFFAA;stroke-width:1px;stroke-linecap:butt;stroke-linejoin:miter;stroke-opacity:1"/>
<ellipse cx="607.828" cy="191.35" rx="22.3691" ry="22.3691" style="fill:#FFFFAA;fill-rule:evenodd;stroke:#FFFFAA;stroke-width:1px;stroke-linecap:butt;stroke-linejoin:miter;stroke-opacity:1"/>
<ellipse cx="704.689" cy="247.052" rx="22.3691" ry="22.3691" style="fill:#FFFFAA;fill-rule:evenodd;stroke:#FFFFAA;stroke-width:1px;stroke-linecap:butt;stroke-linejoin:miter;stroke-opacity:1"/>
<ellipse cx="801.55" cy="191.13" rx="22.3691" ry="22.3691" style="fill:#FFFFAA;fill-rule:evenodd;stroke:#FFFFAA;stroke-width:1px;stroke-linecap:butt;stroke-linejoin:miter;stroke-opacity:1"/>
<ellipse cx="704.689" cy="359.118" rx="22.3691" ry="22.3691" style="fill:#FFFFAA;fill-rule:evenodd;stroke:#FFFFAA;stroke-width:1px;stroke-linecap:butt;stroke-linejoin:miter;stroke-opacity:1"/>
<ellipse cx="1172.57" cy="258.407" rx="22.3691" ry="22.3691" style="fill:#FFCC99;fill-rule:evenodd;stroke:#FFCC99;stroke-width:1px;stroke-linecap:butt;stroke-linejoin:miter;stroke-opacity:1"/>
<ellipse cx="1284.13" cy="250.511" rx="22.3691" ry="22.3691" style="fill:#FFCC99;fill-rule:evenodd;stroke:#FFCC99;stroke-width:1px;stroke-linecap:butt;stroke-linejoin:miter;stroke-opacity:1"/>
<ellipse cx="1333.08" cy="149.944" rx="22.3691" ry="22.3691" style="fill:#FFCC99;fill-rule:evenodd;stroke:#FFCC99;stroke-width:1px;stroke-linecap:butt;stroke-linejoin:miter;stroke-opacity:1"/>
<ellipse cx="1444.65" cy="142.049" rx="22.3691" ry="22.3691" style="fill:#FFCC99;fill-rule:evenodd;stroke:#FFCC99;stroke-width:1px;stroke-linecap:butt;stroke-linejoin:miter;stroke-opacity:1"/>
<ellipse cx="1507.27" cy="234.721" rx="22.3691" ry="22.3691" style="fill:#FFCC99;fill-rule:evenodd;stroke:#FFCC99;stroke-width:1px;stroke-linecap:butt;stroke-linejoin:miter;stroke-opacity:1"/>
<ellipse cx="1631.61" cy="227.046" rx="36.4584" ry="22.3691" style="fill:#FFCC99;fill-rule:evenodd;stroke:#FFCC99;stroke-width:1px;stroke-linecap:butt;stroke-linejoin:miter;stroke-opacity:1"/>
<ellipse cx="1458.32" cy="335.288" rx="22.3691" ry="22.3691" style="fill:#FFCC99;fill-rule:evenodd;stroke:#FFCC99;stroke-width:1px;stroke-linecap:butt;stroke-linejoin:miter;stroke-opacity:1"/>
<ellipse cx="1346.75" cy="343.183" rx="22.3691" ry="22.3691" style="fill:#FFCC99;fill-rule:evenodd;stroke:#FFCC99;stroke-width:1px;stroke-linecap:butt;stroke-linejoin:miter;stroke-opacity:1"/>
<ellipse cx="1285.73" cy="443.97" rx="35.4685" ry="22.3691" style="fill:#FFCC99;fill-rule:evenodd;stroke:#FFCC99;stroke-width:1px;stroke-linecap:butt;stroke-linejoin:miter;stroke-opacity:1"/>
<ellipse cx="1109.95" cy="165.955" rx="22.3691" ry="22.3691" style="fill:#FFCC99;fill-rule:evenodd;stroke:#FFCC99;stroke-width:1px;stroke-linecap:butt;stroke-linejoin:miter;stroke-opacity:1"/>
<ellipse cx="2267.78" cy="295.603" rx="22.3691" ry="22.3691" style="fill:#FFFFAA;fill-rule:evenodd;stroke:#FFFFAA;stroke-width:1px;stroke-linecap:butt;stroke-linejoin:miter;stroke-opacity:1"/>
<ellipse cx="2406.32" cy="160.425" rx="22.3691" ry="22.3691" style="fill:#FFFFAA;fill-rule:evenodd;stroke:#FFFFAA;stroke-width:1px;stroke-linecap:butt;stroke-linejoin:miter;stroke-opacity:1"/>
<ellipse cx="2454.31" cy="348.11" rx="22.3691" ry="22.3691" style="fill:#FFFFAA;fill-rule:evenodd;stroke:#FFFFAA;stroke-width:1px;stroke-linecap:butt;stroke-linejoin:miter;stroke-opacity:1"/>
<ellipse cx="2562.67" cy="320.187" rx="22.3691" ry="22.3691" style="fill:#FFFFAA;fill-rule:evenodd;stroke:#FFFFAA;stroke-width:1px;stroke-linecap:butt;stroke-linejoin:miter;stroke-opacity:1"/>
<ellipse cx="2965.92" cy="317.068" rx="22.3691" ry="22.3691" style="fill:#FFCC99;fill-rule:evenodd;stroke:#FFCC99;stroke-width:1px;stroke-linecap:butt;stroke-linejoin:miter;stroke-opacity:1"/>
<ellipse cx="3074.28" cy="289.364" rx="22.3691" ry="22.3691" style="fill:#FFCC99;fill-rule:evenodd;stroke:#FFCC99;stroke-width:1px;stroke-linecap:butt;stroke-linejoin:miter;stroke-opacity:1"/>
<ellipse cx="3152.45" cy="369.355" rx="22.3691" ry="22.3691" style="fill:#FFCC99;fill-rule:evenodd;stroke:#FFCC99;stroke-width:1px;stroke-linecap:butt;stroke-linejoin:miter;stroke-opacity:1"/>
<ellipse cx="3260.81" cy="341.652" rx="22.3691" ry="22.3691" style="fill:#FFCC99;fill-rule:evenodd;stroke:#FFCC99;stroke-width:1px;stroke-linecap:butt;stroke-linejoin:miter;stroke-opacity:1"/>
<ellipse cx="3291" cy="233.957" rx="22.3691" ry="22.3691" style="fill:#FFCC99;fill-rule:evenodd;stroke:#FFCC99;stroke-width:1px;stroke-linecap:butt;stroke-linejoin:miter;stroke-opacity:1"/>
<ellipse cx="3399.36" cy="206.474" rx="22.3691" ry="22.3691" style="fill:#FFCC99;fill-rule:evenodd;stroke:#FFCC99;stroke-width:1px;stroke-linecap:butt;stroke-linejoin:miter;stroke-opacity:1"/>
<ellipse cx="3477.53" cy="286.245" rx="22.3691" ry="22.3691" style="fill:#FFFFAA;fill-rule:evenodd;stroke:#FFFFAA;stroke-width:1px;stroke-linecap:butt;stroke-linejoin:miter;stroke-opacity:1"/>
<ellipse cx="3585.89" cy="258.541" rx="22.3691" ry="22.3691" style="fill:#FFFFAA;fill-rule:evenodd;stroke:#FFFFAA;stroke-width:1px;stroke-linecap:butt;stroke-linejoin:miter;stroke-opacity:1"/>
<ellipse cx="3447.35" cy="394.159" rx="22.3691" ry="22.3691" style="fill:#FFFFAA;fill-rule:evenodd;stroke:#FFFFAA;stroke-width:1px;stroke-linecap:butt;stroke-linejoin:miter;stroke-opacity:1"/>
<ellipse cx="3212.83" cy="153.966" rx="22.3691" ry="22.3691" style="fill:#FFCC99;fill-rule:evenodd;stroke:#FFCC99;stroke-width:1px;stroke-linecap:butt;stroke-linejoin:miter;stroke-opacity:1"/>
<ellipse cx="3104.47" cy="181.67" rx="22.3691" ry="22.3691" style="fill:#FFCC99;fill-rule:evenodd;stroke:#FFCC99;stroke-width:1px;stroke-linecap:butt;stroke-linejoin:miter;stroke-opacity:1"/>
<ellipse cx="3026.3" cy="101.899" rx="22.3691" ry="22.3691" style="fill:#FFCC99;fill-rule:evenodd;stroke:#FFCC99;stroke-width:1px;stroke-linecap:butt;stroke-linejoin:miter;stroke-opacity:1"/>
<ellipse cx="2839.77" cy="49.611" rx="22.3691" ry="22.3691" style="fill:#FFCC99;fill-rule:evenodd;stroke:#FFCC99;stroke-width:1px;stroke-linecap:butt;stroke-linejoin:miter;stroke-opacity:1"/>
<path class="bond-0" d="M 414.105,191.13 L 510.966,247.052" style="fill:none;fill-rule:evenodd;stroke:#000000;stroke-width:2.0px;stroke-linecap:butt;stroke-linejoin:miter;stroke-opacity:1"/>
<path class="bond-1" d="M 499.782,247.052 L 499.782,294.417" style="fill:none;fill-rule:evenodd;stroke:#000000;stroke-width:2.0px;stroke-linecap:butt;stroke-linejoin:miter;stroke-opacity:1"/>
<path class="bond-1" d="M 499.782,294.417 L 499.782,341.782" style="fill:none;fill-rule:evenodd;stroke:#FF0000;stroke-width:2.0px;stroke-linecap:butt;stroke-linejoin:miter;stroke-opacity:1"/>
<path class="bond-1" d="M 522.151,247.052 L 522.151,294.417" style="fill:none;fill-rule:evenodd;stroke:#000000;stroke-width:2.0px;stroke-linecap:butt;stroke-linejoin:miter;stroke-opacity:1"/>
<path class="bond-1" d="M 522.151,294.417 L 522.151,341.782" style="fill:none;fill-rule:evenodd;stroke:#FF0000;stroke-width:2.0px;stroke-linecap:butt;stroke-linejoin:miter;stroke-opacity:1"/>
<path class="bond-2" d="M 510.966,247.052 L 551.499,223.651" style="fill:none;fill-rule:evenodd;stroke:#000000;stroke-width:2.0px;stroke-linecap:butt;stroke-linejoin:miter;stroke-opacity:1"/>
<path class="bond-2" d="M 551.499,223.651 L 592.031,200.25" style="fill:none;fill-rule:evenodd;stroke:#FF0000;stroke-width:2.0px;stroke-linecap:butt;stroke-linejoin:miter;stroke-opacity:1"/>
<path class="bond-3" d="M 623.624,200.25 L 664.156,223.651" style="fill:none;fill-rule:evenodd;stroke:#FF0000;stroke-width:2.0px;stroke-linecap:butt;stroke-linejoin:miter;stroke-opacity:1"/>
<path class="bond-3" d="M 664.156,223.651 L 704.689,247.052" style="fill:none;fill-rule:evenodd;stroke:#000000;stroke-width:2.0px;stroke-linecap:butt;stroke-linejoin:miter;stroke-opacity:1"/>
<path class="bond-4" d="M 704.689,247.052 L 801.55,191.13" style="fill:none;fill-rule:evenodd;stroke:#000000;stroke-width:2.0px;stroke-linecap:butt;stroke-linejoin:miter;stroke-opacity:1"/>
<path class="bond-5" d="M 693.504,247.052 L 693.504,294.417" style="fill:none;fill-rule:evenodd;stroke:#000000;stroke-width:2.0px;stroke-linecap:butt;stroke-linejoin:miter;stroke-opacity:1"/>
<path class="bond-5" d="M 693.504,294.417 L 693.504,341.782" style="fill:none;fill-rule:evenodd;stroke:#FF0000;stroke-width:2.0px;stroke-linecap:butt;stroke-linejoin:miter;stroke-opacity:1"/>
<path class="bond-5" d="M 715.873,247.052 L 715.873,294.417" style="fill:none;fill-rule:evenodd;stroke:#000000;stroke-width:2.0px;stroke-linecap:butt;stroke-linejoin:miter;stroke-opacity:1"/>
<path class="bond-5" d="M 715.873,294.417 L 715.873,341.782" style="fill:none;fill-rule:evenodd;stroke:#FF0000;stroke-width:2.0px;stroke-linecap:butt;stroke-linejoin:miter;stroke-opacity:1"/>
<path class="bond-6" d="M 1172.57,258.407 L 1284.13,250.511" style="fill:none;fill-rule:evenodd;stroke:#000000;stroke-width:2.0px;stroke-linecap:butt;stroke-linejoin:miter;stroke-opacity:1"/>
<path class="bond-14" d="M 1181.83,252.144 L 1156.45,214.587" style="fill:none;fill-rule:evenodd;stroke:#000000;stroke-width:2.0px;stroke-linecap:butt;stroke-linejoin:miter;stroke-opacity:1"/>
<path class="bond-14" d="M 1156.45,214.587 L 1131.08,177.029" style="fill:none;fill-rule:evenodd;stroke:#FF0000;stroke-width:2.0px;stroke-linecap:butt;stroke-linejoin:miter;stroke-opacity:1"/>
<path class="bond-14" d="M 1163.3,264.669 L 1137.92,227.111" style="fill:none;fill-rule:evenodd;stroke:#000000;stroke-width:2.0px;stroke-linecap:butt;stroke-linejoin:miter;stroke-opacity:1"/>
<path class="bond-14" d="M 1137.92,227.111 L 1112.54,189.553" style="fill:none;fill-rule:evenodd;stroke:#FF0000;stroke-width:2.0px;stroke-linecap:butt;stroke-linejoin:miter;stroke-opacity:1"/>
<path class="bond-7" d="M 1284.13,250.511 L 1333.08,149.944" style="fill:none;fill-rule:evenodd;stroke:#000000;stroke-width:2.0px;stroke-linecap:butt;stroke-linejoin:miter;stroke-opacity:1"/>
<path class="bond-7" d="M 1311.59,245.215 L 1345.85,174.819" style="fill:none;fill-rule:evenodd;stroke:#000000;stroke-width:2.0px;stroke-linecap:butt;stroke-linejoin:miter;stroke-opacity:1;stroke-dasharray:6,6"/>
<path class="bond-15" d="M 1284.13,250.511 L 1346.75,343.183" style="fill:none;fill-rule:evenodd;stroke:#000000;stroke-width:2.0px;stroke-linecap:butt;stroke-linejoin:miter;stroke-opacity:1"/>
<path class="bond-15" d="M 1312.06,251.888 L 1355.89,316.758" style="fill:none;fill-rule:evenodd;stroke:#000000;stroke-width:2.0px;stroke-linecap:butt;stroke-linejoin:miter;stroke-opacity:1;stroke-dasharray:6,6"/>
<path class="bond-8" d="M 1333.08,149.944 L 1444.65,142.049" style="fill:none;fill-rule:evenodd;stroke:#000000;stroke-width:2.0px;stroke-linecap:butt;stroke-linejoin:miter;stroke-opacity:1"/>
<path class="bond-8" d="M 1351.39,171.073 L 1429.49,165.547" style="fill:none;fill-rule:evenodd;stroke:#000000;stroke-width:2.0px;stroke-linecap:butt;stroke-linejoin:miter;stroke-opacity:1;stroke-dasharray:6,6"/>
<path class="bond-9" d="M 1444.65,142.049 L 1507.27,234.721" style="fill:none;fill-rule:evenodd;stroke:#000000;stroke-width:2.0px;stroke-linecap:butt;stroke-linejoin:miter;stroke-opacity:1"/>
<path class="bond-9" d="M 1435.5,168.474 L 1479.34,233.344" style="fill:none;fill-rule:evenodd;stroke:#000000;stroke-width:2.0px;stroke-linecap:butt;stroke-linejoin:miter;stroke-opacity:1;stroke-dasharray:6,6"/>
<path class="bond-10" d="M 1507.27,234.721 L 1555.15,231.332" style="fill:none;fill-rule:evenodd;stroke:#000000;stroke-width:2.0px;stroke-linecap:butt;stroke-linejoin:miter;stroke-opacity:1"/>
<path class="bond-10" d="M 1555.15,231.332 L 1603.04,227.944" style="fill:none;fill-rule:evenodd;stroke:#FF0000;stroke-width:2.0px;stroke-linecap:butt;stroke-linejoin:miter;stroke-opacity:1"/>
<path class="bond-11" d="M 1507.27,234.721 L 1458.32,335.288" style="fill:none;fill-rule:evenodd;stroke:#000000;stroke-width:2.0px;stroke-linecap:butt;stroke-linejoin:miter;stroke-opacity:1"/>
<path class="bond-11" d="M 1479.81,240.017 L 1445.55,310.414" style="fill:none;fill-rule:evenodd;stroke:#000000;stroke-width:2.0px;stroke-linecap:butt;stroke-linejoin:miter;stroke-opacity:1;stroke-dasharray:6,6"/>
<path class="bond-12" d="M 1458.32,335.288 L 1346.75,343.183" style="fill:none;fill-rule:evenodd;stroke:#000000;stroke-width:2.0px;stroke-linecap:butt;stroke-linejoin:miter;stroke-opacity:1"/>
<path class="bond-12" d="M 1440.01,314.159 L 1361.91,319.686" style="fill:none;fill-rule:evenodd;stroke:#000000;stroke-width:2.0px;stroke-linecap:butt;stroke-linejoin:miter;stroke-opacity:1;stroke-dasharray:6,6"/>
<path class="bond-13" d="M 1346.75,343.183 L 1326.45,384.909" style="fill:none;fill-rule:evenodd;stroke:#000000;stroke-width:2.0px;stroke-linecap:butt;stroke-linejoin:miter;stroke-opacity:1"/>
<path class="bond-13" d="M 1326.45,384.909 L 1306.14,426.634" style="fill:none;fill-rule:evenodd;stroke:#FF0000;stroke-width:2.0px;stroke-linecap:butt;stroke-linejoin:miter;stroke-opacity:1"/>
<path class="bond-16" d="M 2267.78,295.603 L 2339.87,277.171" style="fill:none;fill-rule:evenodd;stroke:#000000;stroke-width:2.0px;stroke-linecap:butt;stroke-linejoin:miter;stroke-opacity:1"/>
<path class="bond-17" d="M 2391.7,253.802 L 2402,217.069" style="fill:none;fill-rule:evenodd;stroke:#000000;stroke-width:2.0px;stroke-linecap:butt;stroke-linejoin:miter;stroke-opacity:1"/>
<path class="bond-17" d="M 2402,217.069 L 2412.3,180.335" style="fill:none;fill-rule:evenodd;stroke:#FF0000;stroke-width:2.0px;stroke-linecap:butt;stroke-linejoin:miter;stroke-opacity:1"/>
<path class="bond-17" d="M 2370.16,247.764 L 2380.46,211.031" style="fill:none;fill-rule:evenodd;stroke:#000000;stroke-width:2.0px;stroke-linecap:butt;stroke-linejoin:miter;stroke-opacity:1"/>
<path class="bond-17" d="M 2380.46,211.031 L 2390.76,174.298" style="fill:none;fill-rule:evenodd;stroke:#FF0000;stroke-width:2.0px;stroke-linecap:butt;stroke-linejoin:miter;stroke-opacity:1"/>
<path class="bond-18" d="M 2392.86,285.015 L 2415.99,308.677" style="fill:none;fill-rule:evenodd;stroke:#000000;stroke-width:2.0px;stroke-linecap:butt;stroke-linejoin:miter;stroke-opacity:1"/>
<path class="bond-18" d="M 2415.99,308.677 L 2439.11,332.339" style="fill:none;fill-rule:evenodd;stroke:#FF0000;stroke-width:2.0px;stroke-linecap:butt;stroke-linejoin:miter;stroke-opacity:1"/>
<path class="bond-19" d="M 2470.1,343.852 L 2516.39,332.019" style="fill:none;fill-rule:evenodd;stroke:#FF0000;stroke-width:2.0px;stroke-linecap:butt;stroke-linejoin:miter;stroke-opacity:1"/>
<path class="bond-19" d="M 2516.39,332.019 L 2562.67,320.187" style="fill:none;fill-rule:evenodd;stroke:#000000;stroke-width:2.0px;stroke-linecap:butt;stroke-linejoin:miter;stroke-opacity:1"/>
<path class="bond-20" d="M 2562.67,320.187 L 2587.97,229.929" style="fill:none;fill-rule:evenodd;stroke:#000000;stroke-width:2.0px;stroke-linecap:butt;stroke-linejoin:miter;stroke-opacity:1"/>
<path class="bond-20" d="M 2588,312.686 L 2605.71,249.505" style="fill:none;fill-rule:evenodd;stroke:#000000;stroke-width:2.0px;stroke-linecap:butt;stroke-linejoin:miter;stroke-opacity:1;stroke-dasharray:6,6"/>
<path class="bond-40" d="M 2562.67,320.187 L 2624.45,383.41" style="fill:none;fill-rule:evenodd;stroke:#000000;stroke-width:2.0px;stroke-linecap:butt;stroke-linejoin:miter;stroke-opacity:1"/>
<path class="bond-40" d="M 2587.93,314.036 L 2631.18,358.293" style="fill:none;fill-rule:evenodd;stroke:#000000;stroke-width:2.0px;stroke-linecap:butt;stroke-linejoin:miter;stroke-opacity:1;stroke-dasharray:6,6"/>
<path class="bond-21" d="M 2605.47,209.267 L 2665.82,193.839" style="fill:none;fill-rule:evenodd;stroke:#000000;stroke-width:2.0px;stroke-linecap:butt;stroke-linejoin:miter;stroke-opacity:1"/>
<path class="bond-21" d="M 2620.07,228.625 L 2662.31,217.825" style="fill:none;fill-rule:evenodd;stroke:#000000;stroke-width:2.0px;stroke-linecap:butt;stroke-linejoin:miter;stroke-opacity:1;stroke-dasharray:6,6"/>
<path class="bond-22" d="M 2717.94,201.905 L 2763.25,248.262" style="fill:none;fill-rule:evenodd;stroke:#000000;stroke-width:2.0px;stroke-linecap:butt;stroke-linejoin:miter;stroke-opacity:1"/>
<path class="bond-22" d="M 2708.74,224.493 L 2740.45,256.943" style="fill:none;fill-rule:evenodd;stroke:#000000;stroke-width:2.0px;stroke-linecap:butt;stroke-linejoin:miter;stroke-opacity:1;stroke-dasharray:6,6"/>
<path class="bond-23" d="M 2799.49,259.64 L 2851.7,246.292" style="fill:none;fill-rule:evenodd;stroke:#000000;stroke-width:2.0px;stroke-linecap:butt;stroke-linejoin:miter;stroke-opacity:1"/>
<path class="bond-38" d="M 2774.48,282.296 L 2753.87,355.813" style="fill:none;fill-rule:evenodd;stroke:#000000;stroke-width:2.0px;stroke-linecap:butt;stroke-linejoin:miter;stroke-opacity:1"/>
<path class="bond-38" d="M 2749.85,287.286 L 2735.42,338.748" style="fill:none;fill-rule:evenodd;stroke:#000000;stroke-width:2.0px;stroke-linecap:butt;stroke-linejoin:miter;stroke-opacity:1;stroke-dasharray:6,6"/>
<path class="bond-24" d="M 2904.79,254.513 L 2965.92,317.068" style="fill:none;fill-rule:evenodd;stroke:#000000;stroke-width:2.0px;stroke-linecap:butt;stroke-linejoin:miter;stroke-opacity:1"/>
<path class="bond-24" d="M 2929.96,248.261 L 2972.75,292.05" style="fill:none;fill-rule:evenodd;stroke:#000000;stroke-width:2.0px;stroke-linecap:butt;stroke-linejoin:miter;stroke-opacity:1;stroke-dasharray:6,6"/>
<path class="bond-41" d="M 2892.55,219.96 L 2913.26,146.054" style="fill:none;fill-rule:evenodd;stroke:#000000;stroke-width:2.0px;stroke-linecap:butt;stroke-linejoin:miter;stroke-opacity:1"/>
<path class="bond-41" d="M 2917.19,214.912 L 2931.7,163.177" style="fill:none;fill-rule:evenodd;stroke:#000000;stroke-width:2.0px;stroke-linecap:butt;stroke-linejoin:miter;stroke-opacity:1;stroke-dasharray:6,6"/>
<path class="bond-25" d="M 2965.92,317.068 L 3074.28,289.364" style="fill:none;fill-rule:evenodd;stroke:#000000;stroke-width:2.0px;stroke-linecap:butt;stroke-linejoin:miter;stroke-opacity:1"/>
<path class="bond-25" d="M 2976.63,291.24 L 3052.49,271.848" style="fill:none;fill-rule:evenodd;stroke:#000000;stroke-width:2.0px;stroke-linecap:butt;stroke-linejoin:miter;stroke-opacity:1;stroke-dasharray:6,6"/>
<path class="bond-26" d="M 3074.28,289.364 L 3152.45,369.355" style="fill:none;fill-rule:evenodd;stroke:#000000;stroke-width:2.0px;stroke-linecap:butt;stroke-linejoin:miter;stroke-opacity:1"/>
<path class="bond-26" d="M 3102.01,285.728 L 3156.73,341.722" style="fill:none;fill-rule:evenodd;stroke:#000000;stroke-width:2.0px;stroke-linecap:butt;stroke-linejoin:miter;stroke-opacity:1;stroke-dasharray:6,6"/>
<path class="bond-42" d="M 3074.28,289.364 L 3104.47,181.67" style="fill:none;fill-rule:evenodd;stroke:#000000;stroke-width:2.0px;stroke-linecap:butt;stroke-linejoin:miter;stroke-opacity:1"/>
<path class="bond-42" d="M 3057.27,267.172 L 3078.4,191.786" style="fill:none;fill-rule:evenodd;stroke:#000000;stroke-width:2.0px;stroke-linecap:butt;stroke-linejoin:miter;stroke-opacity:1;stroke-dasharray:6,6"/>
<path class="bond-27" d="M 3152.45,369.355 L 3260.81,341.652" style="fill:none;fill-rule:evenodd;stroke:#000000;stroke-width:2.0px;stroke-linecap:butt;stroke-linejoin:miter;stroke-opacity:1"/>
<path class="bond-27" d="M 3163.17,343.528 L 3239.02,324.135" style="fill:none;fill-rule:evenodd;stroke:#000000;stroke-width:2.0px;stroke-linecap:butt;stroke-linejoin:miter;stroke-opacity:1;stroke-dasharray:6,6"/>
<path class="bond-28" d="M 3260.81,341.652 L 3291,233.957" style="fill:none;fill-rule:evenodd;stroke:#000000;stroke-width:2.0px;stroke-linecap:butt;stroke-linejoin:miter;stroke-opacity:1"/>
<path class="bond-28" d="M 3243.8,319.46 L 3264.93,244.074" style="fill:none;fill-rule:evenodd;stroke:#000000;stroke-width:2.0px;stroke-linecap:butt;stroke-linejoin:miter;stroke-opacity:1;stroke-dasharray:6,6"/>
<path class="bond-29" d="M 3291,233.957 L 3337.28,222.125" style="fill:none;fill-rule:evenodd;stroke:#000000;stroke-width:2.0px;stroke-linecap:butt;stroke-linejoin:miter;stroke-opacity:1"/>
<path class="bond-29" d="M 3337.28,222.125 L 3383.57,210.292" style="fill:none;fill-rule:evenodd;stroke:#FF0000;stroke-width:2.0px;stroke-linecap:butt;stroke-linejoin:miter;stroke-opacity:1"/>
<path class="bond-33" d="M 3291,233.957 L 3212.83,153.966" style="fill:none;fill-rule:evenodd;stroke:#000000;stroke-width:2.0px;stroke-linecap:butt;stroke-linejoin:miter;stroke-opacity:1"/>
<path class="bond-33" d="M 3263.28,237.593 L 3208.56,181.599" style="fill:none;fill-rule:evenodd;stroke:#000000;stroke-width:2.0px;stroke-linecap:butt;stroke-linejoin:miter;stroke-opacity:1;stroke-dasharray:6,6"/>
<path class="bond-30" d="M 3415.16,222.417 L 3446.35,254.331" style="fill:none;fill-rule:evenodd;stroke:#FF0000;stroke-width:2.0px;stroke-linecap:butt;stroke-linejoin:miter;stroke-opacity:1"/>
<path class="bond-30" d="M 3446.35,254.331 L 3477.53,286.245" style="fill:none;fill-rule:evenodd;stroke:#000000;stroke-width:2.0px;stroke-linecap:butt;stroke-linejoin:miter;stroke-opacity:1"/>
<path class="bond-31" d="M 3477.53,286.245 L 3585.89,258.541" style="fill:none;fill-rule:evenodd;stroke:#000000;stroke-width:2.0px;stroke-linecap:butt;stroke-linejoin:miter;stroke-opacity:1"/>
<path class="bond-32" d="M 3466.76,283.226 L 3454.07,328.515" style="fill:none;fill-rule:evenodd;stroke:#000000;stroke-width:2.0px;stroke-linecap:butt;stroke-linejoin:miter;stroke-opacity:1"/>
<path class="bond-32" d="M 3454.07,328.515 L 3441.37,373.804" style="fill:none;fill-rule:evenodd;stroke:#FF0000;stroke-width:2.0px;stroke-linecap:butt;stroke-linejoin:miter;stroke-opacity:1"/>
<path class="bond-32" d="M 3488.3,289.264 L 3475.61,334.553" style="fill:none;fill-rule:evenodd;stroke:#000000;stroke-width:2.0px;stroke-linecap:butt;stroke-linejoin:miter;stroke-opacity:1"/>
<path class="bond-32" d="M 3475.61,334.553 L 3462.91,379.842" style="fill:none;fill-rule:evenodd;stroke:#FF0000;stroke-width:2.0px;stroke-linecap:butt;stroke-linejoin:miter;stroke-opacity:1"/>
<path class="bond-34" d="M 3212.83,153.966 L 3104.47,181.67" style="fill:none;fill-rule:evenodd;stroke:#000000;stroke-width:2.0px;stroke-linecap:butt;stroke-linejoin:miter;stroke-opacity:1"/>
<path class="bond-34" d="M 3202.12,179.794 L 3126.26,199.186" style="fill:none;fill-rule:evenodd;stroke:#000000;stroke-width:2.0px;stroke-linecap:butt;stroke-linejoin:miter;stroke-opacity:1;stroke-dasharray:6,6"/>
<path class="bond-35" d="M 3104.47,181.67 L 3073.28,149.756" style="fill:none;fill-rule:evenodd;stroke:#000000;stroke-width:2.0px;stroke-linecap:butt;stroke-linejoin:miter;stroke-opacity:1"/>
<path class="bond-35" d="M 3073.28,149.756 L 3042.09,117.842" style="fill:none;fill-rule:evenodd;stroke:#FF0000;stroke-width:2.0px;stroke-linecap:butt;stroke-linejoin:miter;stroke-opacity:1"/>
<path class="bond-35" d="M 3079.12,187.73 L 3057.28,165.39" style="fill:none;fill-rule:evenodd;stroke:#000000;stroke-width:2.0px;stroke-linecap:butt;stroke-linejoin:miter;stroke-opacity:1;stroke-dasharray:6,6"/>
<path class="bond-35" d="M 3057.28,165.39 L 3035.45,143.051" style="fill:none;fill-rule:evenodd;stroke:#FF0000;stroke-width:2.0px;stroke-linecap:butt;stroke-linejoin:miter;stroke-opacity:1;stroke-dasharray:6,6"/>
<path class="bond-36" d="M 3010.5,105.717 L 2978.69,113.849" style="fill:none;fill-rule:evenodd;stroke:#FF0000;stroke-width:2.0px;stroke-linecap:butt;stroke-linejoin:miter;stroke-opacity:1"/>
<path class="bond-36" d="M 2978.69,113.849 L 2946.89,121.981" style="fill:none;fill-rule:evenodd;stroke:#000000;stroke-width:2.0px;stroke-linecap:butt;stroke-linejoin:miter;stroke-opacity:1"/>
<path class="bond-36" d="M 3006.5,129.829 L 2984.23,135.521" style="fill:none;fill-rule:evenodd;stroke:#FF0000;stroke-width:2.0px;stroke-linecap:butt;stroke-linejoin:miter;stroke-opacity:1;stroke-dasharray:6,6"/>
<path class="bond-36" d="M 2984.23,135.521 L 2961.97,141.213" style="fill:none;fill-rule:evenodd;stroke:#000000;stroke-width:2.0px;stroke-linecap:butt;stroke-linejoin:miter;stroke-opacity:1;stroke-dasharray:6,6"/>
<path class="bond-37" d="M 2909.54,104.787 L 2886.26,80.9622" style="fill:none;fill-rule:evenodd;stroke:#000000;stroke-width:2.0px;stroke-linecap:butt;stroke-linejoin:miter;stroke-opacity:1"/>
<path class="bond-37" d="M 2886.26,80.9622 L 2862.97,57.1373" style="fill:none;fill-rule:evenodd;stroke:#FF0000;stroke-width:2.0px;stroke-linecap:butt;stroke-linejoin:miter;stroke-opacity:1"/>
<path class="bond-37" d="M 2893.54,120.422 L 2870.26,96.5966" style="fill:none;fill-rule:evenodd;stroke:#000000;stroke-width:2.0px;stroke-linecap:butt;stroke-linejoin:miter;stroke-opacity:1"/>
<path class="bond-37" d="M 2870.26,96.5966 L 2846.98,72.7717" style="fill:none;fill-rule:evenodd;stroke:#FF0000;stroke-width:2.0px;stroke-linecap:butt;stroke-linejoin:miter;stroke-opacity:1"/>
<path class="bond-39" d="M 2735.48,375.981 L 2669.77,392.781" style="fill:none;fill-rule:evenodd;stroke:#000000;stroke-width:2.0px;stroke-linecap:butt;stroke-linejoin:miter;stroke-opacity:1"/>
<path class="bond-39" d="M 2720.09,356.829 L 2674.09,368.589" style="fill:none;fill-rule:evenodd;stroke:#000000;stroke-width:2.0px;stroke-linecap:butt;stroke-linejoin:miter;stroke-opacity:1;stroke-dasharray:6,6"/>
<path class="atom-2" d="M 497.966 358.978 Q 497.966 352.178, 501.326 348.378 Q 504.686 344.578, 510.966 344.578 Q 517.246 344.578, 520.606 348.378 Q 523.966 352.178, 523.966 358.978 Q 523.966 365.858, 520.566 369.778 Q 517.166 373.658, 510.966 373.658 Q 504.726 373.658, 501.326 369.778 Q 497.966 365.898, 497.966 358.978 M 510.966 370.458 Q 515.286 370.458, 517.606 367.578 Q 519.966 364.658, 519.966 358.978 Q 519.966 353.418, 517.606 350.618 Q 515.286 347.778, 510.966 347.778 Q 506.646 347.778, 504.286 350.578 Q 501.966 353.378, 501.966 358.978 Q 501.966 364.698, 504.286 367.578 Q 506.646 370.458, 510.966 370.458 " fill="#FF0000"/>
<path class="atom-3" d="M 594.828 191.21 Q 594.828 184.41, 598.188 180.61 Q 601.548 176.81, 607.828 176.81 Q 614.108 176.81, 617.468 180.61 Q 620.828 184.41, 620.828 191.21 Q 620.828 198.09, 617.428 202.01 Q 614.028 205.89, 607.828 205.89 Q 601.588 205.89, 598.188 202.01 Q 594.828 198.13, 594.828 191.21 M 607.828 202.69 Q 612.148 202.69, 614.468 199.81 Q 616.828 196.89, 616.828 191.21 Q 616.828 185.65, 614.468 182.85 Q 612.148 180.01, 607.828 180.01 Q 603.508 180.01, 601.148 182.81 Q 598.828 185.61, 598.828 191.21 Q 598.828 196.93, 601.148 199.81 Q 603.508 202.69, 607.828 202.69 " fill="#FF0000"/>
<path class="atom-6" d="M 691.689 358.978 Q 691.689 352.178, 695.049 348.378 Q 698.409 344.578, 704.689 344.578 Q 710.969 344.578, 714.329 348.378 Q 717.689 352.178, 717.689 358.978 Q 717.689 365.858, 714.289 369.778 Q 710.889 373.658, 704.689 373.658 Q 698.449 373.658, 695.049 369.778 Q 691.689 365.898, 691.689 358.978 M 704.689 370.458 Q 709.009 370.458, 711.329 367.578 Q 713.689 364.658, 713.689 358.978 Q 713.689 353.418, 711.329 350.618 Q 709.009 347.778, 704.689 347.778 Q 700.369 347.778, 698.009 350.578 Q 695.689 353.378, 695.689 358.978 Q 695.689 364.698, 698.009 367.578 Q 700.369 370.458, 704.689 370.458 " fill="#FF0000"/>
<path class="atom-12" d="M 1605.83 226.906 Q 1605.83 220.106, 1609.19 216.306 Q 1612.55 212.506, 1618.83 212.506 Q 1625.11 212.506, 1628.47 216.306 Q 1631.83 220.106, 1631.83 226.906 Q 1631.83 233.786, 1628.43 237.706 Q 1625.03 241.586, 1618.83 241.586 Q 1612.59 241.586, 1609.19 237.706 Q 1605.83 233.826, 1605.83 226.906 M 1618.83 238.386 Q 1623.15 238.386, 1625.47 235.506 Q 1627.83 232.586, 1627.83 226.906 Q 1627.83 221.346, 1625.47 218.546 Q 1623.15 215.706, 1618.83 215.706 Q 1614.51 215.706, 1612.15 218.506 Q 1609.83 221.306, 1609.83 226.906 Q 1609.83 232.626, 1612.15 235.506 Q 1614.51 238.386, 1618.83 238.386 " fill="#FF0000"/>
<path class="atom-12" d="M 1635.23 212.826 L 1639.07 212.826 L 1639.07 224.866 L 1653.55 224.866 L 1653.55 212.826 L 1657.39 212.826 L 1657.39 241.146 L 1653.55 241.146 L 1653.55 228.066 L 1639.07 228.066 L 1639.07 241.146 L 1635.23 241.146 L 1635.23 212.826 " fill="#FF0000"/>
<path class="atom-15" d="M 1260.65 429.75 L 1264.49 429.75 L 1264.49 441.79 L 1278.97 441.79 L 1278.97 429.75 L 1282.81 429.75 L 1282.81 458.07 L 1278.97 458.07 L 1278.97 444.99 L 1264.49 444.99 L 1264.49 458.07 L 1260.65 458.07 L 1260.65 429.75 " fill="#FF0000"/>
<path class="atom-15" d="M 1284.81 443.83 Q 1284.81 437.03, 1288.17 433.23 Q 1291.53 429.43, 1297.81 429.43 Q 1304.09 429.43, 1307.45 433.23 Q 1310.81 437.03, 1310.81 443.83 Q 1310.81 450.71, 1307.41 454.63 Q 1304.01 458.51, 1297.81 458.51 Q 1291.57 458.51, 1288.17 454.63 Q 1284.81 450.75, 1284.81 443.83 M 1297.81 455.31 Q 1302.13 455.31, 1304.45 452.43 Q 1306.81 449.51, 1306.81 443.83 Q 1306.81 438.27, 1304.45 435.47 Q 1302.13 432.63, 1297.81 432.63 Q 1293.49 432.63, 1291.13 435.43 Q 1288.81 438.23, 1288.81 443.83 Q 1288.81 449.55, 1291.13 452.43 Q 1293.49 455.31, 1297.81 455.31 " fill="#FF0000"/>
<path class="atom-16" d="M 1096.95 165.815 Q 1096.95 159.015, 1100.31 155.215 Q 1103.67 151.415, 1109.95 151.415 Q 1116.23 151.415, 1119.59 155.215 Q 1122.95 159.015, 1122.95 165.815 Q 1122.95 172.695, 1119.55 176.615 Q 1116.15 180.495, 1109.95 180.495 Q 1103.71 180.495, 1100.31 176.615 Q 1096.95 172.735, 1096.95 165.815 M 1109.95 177.295 Q 1114.27 177.295, 1116.59 174.415 Q 1118.95 171.495, 1118.95 165.815 Q 1118.95 160.255, 1116.59 157.455 Q 1114.27 154.615, 1109.95 154.615 Q 1105.63 154.615, 1103.27 157.415 Q 1100.95 160.215, 1100.95 165.815 Q 1100.95 171.535, 1103.27 174.415 Q 1105.63 177.295, 1109.95 177.295 " fill="#FF0000"/>
<path class="atom-18" d="M 2342.67 268.019 Q 2342.67 260.979, 2345.95 257.299 Q 2349.27 253.579, 2355.55 253.579 Q 2361.39 253.579, 2364.51 257.699 L 2361.87 259.859 Q 2359.59 256.859, 2355.55 256.859 Q 2351.27 256.859, 2348.99 259.739 Q 2346.75 262.579, 2346.75 268.019 Q 2346.75 273.619, 2349.07 276.499 Q 2351.43 279.379, 2355.99 279.379 Q 2359.11 279.379, 2362.75 277.499 L 2363.87 280.499 Q 2362.39 281.459, 2360.15 282.019 Q 2357.91 282.579, 2355.43 282.579 Q 2349.27 282.579, 2345.95 278.819 Q 2342.67 275.059, 2342.67 268.019 " fill="#000000"/>
<path class="atom-18" d="M 2367.51 277.539 L 2371.51 277.539 L 2371.51 281.539 L 2367.51 281.539 L 2367.51 277.539 M 2367.51 263.779 L 2371.51 263.779 L 2371.51 267.779 L 2367.51 267.779 L 2367.51 263.779 " fill="#000000"/>
<path class="atom-18" d="M 2373.59 259.259 Q 2374.63 256.579, 2377.11 255.099 Q 2379.59 253.579, 2383.03 253.579 Q 2387.31 253.579, 2389.71 255.899 Q 2392.11 258.219, 2392.11 262.339 Q 2392.11 266.539, 2388.99 270.459 Q 2385.91 274.379, 2379.51 279.019 L 2392.59 279.019 L 2392.59 282.219 L 2373.51 282.219 L 2373.51 279.539 Q 2378.79 275.779, 2381.91 272.979 Q 2385.07 270.179, 2386.59 267.659 Q 2388.11 265.139, 2388.11 262.539 Q 2388.11 259.819, 2386.75 258.299 Q 2385.39 256.779, 2383.03 256.779 Q 2380.75 256.779, 2379.23 257.699 Q 2377.71 258.619, 2376.63 260.659 L 2373.59 259.259 " fill="#000000"/>
<path class="atom-19" d="M 2393.32 160.285 Q 2393.32 153.485, 2396.68 149.685 Q 2400.04 145.885, 2406.32 145.885 Q 2412.6 145.885, 2415.96 149.685 Q 2419.32 153.485, 2419.32 160.285 Q 2419.32 167.165, 2415.92 171.085 Q 2412.52 174.965, 2406.32 174.965 Q 2400.08 174.965, 2396.68 171.085 Q 2393.32 167.205, 2393.32 160.285 M 2406.32 171.765 Q 2410.64 171.765, 2412.96 168.885 Q 2415.32 165.965, 2415.32 160.285 Q 2415.32 154.725, 2412.96 151.925 Q 2410.64 149.085, 2406.32 149.085 Q 2402 149.085, 2399.64 151.885 Q 2397.32 154.685, 2397.32 160.285 Q 2397.32 166.005, 2399.64 168.885 Q 2402 171.765, 2406.32 171.765 " fill="#FF0000"/>
<path class="atom-20" d="M 2441.31 347.97 Q 2441.31 341.17, 2444.67 337.37 Q 2448.03 333.57, 2454.31 333.57 Q 2460.59 333.57, 2463.95 337.37 Q 2467.31 341.17, 2467.31 347.97 Q 2467.31 354.85, 2463.91 358.77 Q 2460.51 362.65, 2454.31 362.65 Q 2448.07 362.65, 2444.67 358.77 Q 2441.31 354.89, 2441.31 347.97 M 2454.31 359.45 Q 2458.63 359.45, 2460.95 356.57 Q 2463.31 353.65, 2463.31 347.97 Q 2463.31 342.41, 2460.95 339.61 Q 2458.63 336.77, 2454.31 336.77 Q 2449.99 336.77, 2447.63 339.57 Q 2445.31 342.37, 2445.31 347.97 Q 2445.31 353.69, 2447.63 356.57 Q 2449.99 359.45, 2454.31 359.45 " fill="#FF0000"/>
<path class="atom-22" d="M 2551.48 212.612 Q 2551.48 205.572, 2554.76 201.892 Q 2558.08 198.172, 2564.36 198.172 Q 2570.2 198.172, 2573.32 202.292 L 2570.68 204.452 Q 2568.4 201.452, 2564.36 201.452 Q 2560.08 201.452, 2557.8 204.332 Q 2555.56 207.172, 2555.56 212.612 Q 2555.56 218.212, 2557.88 221.092 Q 2560.24 223.972, 2564.8 223.972 Q 2567.92 223.972, 2571.56 222.092 L 2572.68 225.092 Q 2571.2 226.052, 2568.96 226.612 Q 2566.72 227.172, 2564.24 227.172 Q 2558.08 227.172, 2554.76 223.412 Q 2551.48 219.652, 2551.48 212.612 " fill="#000000"/>
<path class="atom-22" d="M 2576.32 222.132 L 2580.32 222.132 L 2580.32 226.132 L 2576.32 226.132 L 2576.32 222.132 M 2576.32 208.372 L 2580.32 208.372 L 2580.32 212.372 L 2576.32 212.372 L 2576.32 208.372 " fill="#000000"/>
<path class="atom-22" d="M 2594.12 209.132 Q 2596.6 209.132, 2598.56 210.212 Q 2600.52 211.292, 2601.6 213.252 Q 2602.68 215.212, 2602.68 217.692 Q 2602.68 220.452, 2601.44 222.612 Q 2600.24 224.732, 2598.08 225.932 Q 2595.92 227.132, 2593.16 227.132 Q 2588.12 227.132, 2585.56 223.732 Q 2583.04 220.292, 2583.04 213.492 Q 2583.04 205.972, 2586.16 202.092 Q 2589.32 198.172, 2595.36 198.172 Q 2597.12 198.172, 2598.6 198.572 Q 2600.12 198.972, 2601.56 199.812 L 2600 202.492 Q 2597.92 201.372, 2595.4 201.372 Q 2591.4 201.372, 2589.36 203.972 Q 2587.32 206.532, 2587.08 211.852 Q 2588.52 210.532, 2590.32 209.852 Q 2592.16 209.132, 2594.12 209.132 M 2593.2 223.852 Q 2594.72 223.852, 2595.96 223.052 Q 2597.24 222.252, 2597.96 220.852 Q 2598.68 219.452, 2598.68 217.732 Q 2598.68 215.212, 2597.28 213.772 Q 2595.88 212.332, 2593.4 212.332 Q 2591.68 212.332, 2589.96 213.052 Q 2588.28 213.732, 2587.08 214.932 Q 2587.24 219.612, 2588.72 221.732 Q 2590.2 223.852, 2593.2 223.852 " fill="#000000"/>
<path class="atom-23" d="M 2668.29 184.909 Q 2668.29 177.869, 2671.57 174.189 Q 2674.89 170.469, 2681.17 170.469 Q 2687.01 170.469, 2690.13 174.589 L 2687.49 176.749 Q 2685.21 173.749, 2681.17 173.749 Q 2676.89 173.749, 2674.61 176.629 Q 2672.37 179.469, 2672.37 184.909 Q 2672.37 190.509, 2674.69 193.389 Q 2677.05 196.269, 2681.61 196.269 Q 2684.73 196.269, 2688.37 194.389 L 2689.49 197.389 Q 2688.01 198.349, 2685.77 198.909 Q 2683.53 199.469, 2681.05 199.469 Q 2674.89 199.469, 2671.57 195.709 Q 2668.29 191.949, 2668.29 184.909 " fill="#000000"/>
<path class="atom-23" d="M 2693.13 194.429 L 2697.13 194.429 L 2697.13 198.429 L 2693.13 198.429 L 2693.13 194.429 M 2693.13 180.669 L 2697.13 180.669 L 2697.13 184.669 L 2693.13 184.669 L 2693.13 180.669 " fill="#000000"/>
<path class="atom-23" d="M 2712.69 173.989 L 2697.85 173.989 L 2697.85 170.789 L 2716.65 170.789 L 2716.65 173.629 L 2705.21 199.109 L 2701.37 199.109 L 2712.69 173.989 " fill="#000000"/>
<path class="atom-24" d="M 2745.38 264.9 Q 2745.38 257.86, 2748.66 254.18 Q 2751.98 250.46, 2758.26 250.46 Q 2764.1 250.46, 2767.22 254.58 L 2764.58 256.74 Q 2762.3 253.74, 2758.26 253.74 Q 2753.98 253.74, 2751.7 256.62 Q 2749.46 259.46, 2749.46 264.9 Q 2749.46 270.5, 2751.78 273.38 Q 2754.14 276.26, 2758.7 276.26 Q 2761.82 276.26, 2765.46 274.38 L 2766.58 277.38 Q 2765.1 278.34, 2762.86 278.9 Q 2760.62 279.46, 2758.14 279.46 Q 2751.98 279.46, 2748.66 275.7 Q 2745.38 271.94, 2745.38 264.9 " fill="#000000"/>
<path class="atom-24" d="M 2770.22 274.42 L 2774.22 274.42 L 2774.22 278.42 L 2770.22 278.42 L 2770.22 274.42 M 2770.22 260.66 L 2774.22 260.66 L 2774.22 264.66 L 2770.22 264.66 L 2770.22 260.66 " fill="#000000"/>
<path class="atom-24" d="M 2791.14 264.1 Q 2793.74 265.22, 2795.22 266.9 Q 2796.7 268.54, 2796.7 271.34 Q 2796.7 273.74, 2795.46 275.62 Q 2794.22 277.46, 2791.98 278.5 Q 2789.78 279.5, 2786.86 279.5 Q 2782.14 279.5, 2779.42 277.34 Q 2776.7 275.14, 2776.7 271.34 Q 2776.7 269.02, 2777.9 267.3 Q 2779.1 265.54, 2781.58 264.22 Q 2779.74 263.18, 2778.74 261.66 Q 2777.74 260.1, 2777.74 257.7 Q 2777.74 254.38, 2780.14 252.42 Q 2782.58 250.46, 2786.7 250.46 Q 2790.82 250.46, 2793.22 252.42 Q 2795.66 254.38, 2795.66 257.7 Q 2795.66 259.78, 2794.5 261.34 Q 2793.38 262.86, 2791.14 264.1 M 2786.7 253.46 Q 2784.34 253.46, 2783.02 254.58 Q 2781.74 255.7, 2781.74 257.7 Q 2781.74 259.18, 2782.62 260.18 Q 2783.5 261.14, 2784.74 261.7 Q 2786.02 262.26, 2788.46 263.1 Q 2790.18 261.9, 2790.9 260.62 Q 2791.66 259.34, 2791.66 257.7 Q 2791.66 255.7, 2790.34 254.58 Q 2789.06 253.46, 2786.7 253.46 M 2786.86 276.5 Q 2789.5 276.5, 2791.1 275.1 Q 2792.7 273.66, 2792.7 271.3 Q 2792.7 269.78, 2791.86 268.82 Q 2791.02 267.86, 2789.74 267.3 Q 2788.5 266.74, 2786.26 266.02 L 2784.46 265.42 Q 2782.46 266.62, 2781.58 268.06 Q 2780.7 269.46, 2780.7 271.3 Q 2780.7 273.66, 2782.38 275.1 Q 2784.06 276.5, 2786.86 276.5 " fill="#000000"/>
<path class="atom-25" d="M 2853.98 237.197 Q 2853.98 230.157, 2857.26 226.477 Q 2860.58 222.757, 2866.86 222.757 Q 2872.7 222.757, 2875.82 226.877 L 2873.18 229.037 Q 2870.9 226.037, 2866.86 226.037 Q 2862.58 226.037, 2860.3 228.917 Q 2858.06 231.757, 2858.06 237.197 Q 2858.06 242.797, 2860.38 245.677 Q 2862.74 248.557, 2867.3 248.557 Q 2870.42 248.557, 2874.06 246.677 L 2875.18 249.677 Q 2873.7 250.637, 2871.46 251.197 Q 2869.22 251.757, 2866.74 251.757 Q 2860.58 251.757, 2857.26 247.997 Q 2853.98 244.237, 2853.98 237.197 " fill="#000000"/>
<path class="atom-25" d="M 2878.82 246.717 L 2882.82 246.717 L 2882.82 250.717 L 2878.82 250.717 L 2878.82 246.717 M 2878.82 232.957 L 2882.82 232.957 L 2882.82 236.957 L 2878.82 236.957 L 2878.82 232.957 " fill="#000000"/>
<path class="atom-25" d="M 2894.54 222.757 Q 2899.58 222.757, 2902.1 226.197 Q 2904.66 229.597, 2904.66 236.397 Q 2904.66 243.917, 2901.5 247.837 Q 2898.38 251.717, 2892.34 251.717 Q 2890.58 251.717, 2889.06 251.317 Q 2887.58 250.917, 2886.14 250.077 L 2887.7 247.397 Q 2889.78 248.517, 2892.3 248.517 Q 2896.3 248.517, 2898.34 245.957 Q 2900.38 243.357, 2900.62 238.037 Q 2899.18 239.357, 2897.34 240.077 Q 2895.54 240.757, 2893.58 240.757 Q 2891.1 240.757, 2889.14 239.677 Q 2887.18 238.597, 2886.1 236.637 Q 2885.02 234.677, 2885.02 232.197 Q 2885.02 229.437, 2886.22 227.317 Q 2887.46 225.157, 2889.62 223.957 Q 2891.78 222.757, 2894.54 222.757 M 2889.02 232.157 Q 2889.02 234.677, 2890.42 236.117 Q 2891.82 237.557, 2894.3 237.557 Q 2896.02 237.557, 2897.7 236.877 Q 2899.42 236.157, 2900.62 234.957 Q 2900.46 230.277, 2898.98 228.157 Q 2897.5 226.037, 2894.5 226.037 Q 2892.98 226.037, 2891.7 226.837 Q 2890.46 227.637, 2889.74 229.037 Q 2889.02 230.437, 2889.02 232.157 " fill="#000000"/>
<path class="atom-31" d="M 3386.36 206.334 Q 3386.36 199.534, 3389.72 195.734 Q 3393.08 191.934, 3399.36 191.934 Q 3405.64 191.934, 3409 195.734 Q 3412.36 199.534, 3412.36 206.334 Q 3412.36 213.214, 3408.96 217.134 Q 3405.56 221.014, 3399.36 221.014 Q 3393.12 221.014, 3389.72 217.134 Q 3386.36 213.254, 3386.36 206.334 M 3399.36 217.814 Q 3403.68 217.814, 3406 214.934 Q 3408.36 212.014, 3408.36 206.334 Q 3408.36 200.774, 3406 197.974 Q 3403.68 195.134, 3399.36 195.134 Q 3395.04 195.134, 3392.68 197.934 Q 3390.36 200.734, 3390.36 206.334 Q 3390.36 212.054, 3392.68 214.934 Q 3395.04 217.814, 3399.36 217.814 " fill="#FF0000"/>
<path class="atom-34" d="M 3434.35 394.019 Q 3434.35 387.219, 3437.71 383.419 Q 3441.07 379.619, 3447.35 379.619 Q 3453.63 379.619, 3456.99 383.419 Q 3460.35 387.219, 3460.35 394.019 Q 3460.35 400.899, 3456.95 404.819 Q 3453.55 408.699, 3447.35 408.699 Q 3441.11 408.699, 3437.71 404.819 Q 3434.35 400.939, 3434.35 394.019 M 3447.35 405.499 Q 3451.67 405.499, 3453.99 402.619 Q 3456.35 399.699, 3456.35 394.019 Q 3456.35 388.459, 3453.99 385.659 Q 3451.67 382.819, 3447.35 382.819 Q 3443.03 382.819, 3440.67 385.619 Q 3438.35 388.419, 3438.35 394.019 Q 3438.35 399.739, 3440.67 402.619 Q 3443.03 405.499, 3447.35 405.499 " fill="#FF0000"/>
<path class="atom-37" d="M 3013.3 101.759 Q 3013.3 94.9585, 3016.66 91.1585 Q 3020.02 87.3585, 3026.3 87.3585 Q 3032.58 87.3585, 3035.94 91.1585 Q 3039.3 94.9585, 3039.3 101.759 Q 3039.3 108.639, 3035.9 112.559 Q 3032.5 116.439, 3026.3 116.439 Q 3020.06 116.439, 3016.66 112.559 Q 3013.3 108.679, 3013.3 101.759 M 3026.3 113.239 Q 3030.62 113.239, 3032.94 110.359 Q 3035.3 107.439, 3035.3 101.759 Q 3035.3 96.1985, 3032.94 93.3985 Q 3030.62 90.5585, 3026.3 90.5585 Q 3021.98 90.5585, 3019.62 93.3585 Q 3017.3 96.1585, 3017.3 101.759 Q 3017.3 107.479, 3019.62 110.359 Q 3021.98 113.239, 3026.3 113.239 " fill="#FF0000"/>
<path class="atom-38" d="M 2873.5 129.502 Q 2873.5 122.462, 2876.78 118.782 Q 2880.1 115.062, 2886.38 115.062 Q 2892.22 115.062, 2895.34 119.182 L 2892.7 121.342 Q 2890.42 118.342, 2886.38 118.342 Q 2882.1 118.342, 2879.82 121.222 Q 2877.58 124.062, 2877.58 129.502 Q 2877.58 135.102, 2879.9 137.982 Q 2882.26 140.862, 2886.82 140.862 Q 2889.94 140.862, 2893.58 138.982 L 2894.7 141.982 Q 2893.22 142.942, 2890.98 143.502 Q 2888.74 144.062, 2886.26 144.062 Q 2880.1 144.062, 2876.78 140.302 Q 2873.5 136.542, 2873.5 129.502 " fill="#000000"/>
<path class="atom-38" d="M 2898.34 139.022 L 2902.34 139.022 L 2902.34 143.022 L 2898.34 143.022 L 2898.34 139.022 M 2898.34 125.262 L 2902.34 125.262 L 2902.34 129.262 L 2898.34 129.262 L 2898.34 125.262 " fill="#000000"/>
<path class="atom-38" d="M 2904.42 120.742 Q 2905.46 118.062, 2907.94 116.582 Q 2910.42 115.062, 2913.86 115.062 Q 2918.14 115.062, 2920.54 117.382 Q 2922.94 119.702, 2922.94 123.822 Q 2922.94 128.022, 2919.82 131.942 Q 2916.74 135.862, 2910.34 140.502 L 2923.42 140.502 L 2923.42 143.702 L 2904.34 143.702 L 2904.34 141.022 Q 2909.62 137.262, 2912.74 134.462 Q 2915.9 131.662, 2917.42 129.142 Q 2918.94 126.622, 2918.94 124.022 Q 2918.94 121.302, 2917.58 119.782 Q 2916.22 118.262, 2913.86 118.262 Q 2911.58 118.262, 2910.06 119.182 Q 2908.54 120.102, 2907.46 122.142 L 2904.42 120.742 " fill="#000000"/>
<path class="atom-38" d="M 2925.5 120.742 Q 2926.54 118.062, 2929.02 116.582 Q 2931.5 115.062, 2934.94 115.062 Q 2939.22 115.062, 2941.62 117.382 Q 2944.02 119.702, 2944.02 123.822 Q 2944.02 128.022, 2940.9 131.942 Q 2937.82 135.862, 2931.42 140.502 L 2944.5 140.502 L 2944.5 143.702 L 2925.42 143.702 L 2925.42 141.022 Q 2930.7 137.262, 2933.82 134.462 Q 2936.98 131.662, 2938.5 129.142 Q 2940.02 126.622, 2940.02 124.022 Q 2940.02 121.302, 2938.66 119.782 Q 2937.3 118.262, 2934.94 118.262 Q 2932.66 118.262, 2931.14 119.182 Q 2929.62 120.102, 2928.54 122.142 L 2925.5 120.742 " fill="#000000"/>
<path class="atom-39" d="M 2826.77 49.471 Q 2826.77 42.671, 2830.13 38.871 Q 2833.49 35.071, 2839.77 35.071 Q 2846.05 35.071, 2849.41 38.871 Q 2852.77 42.671, 2852.77 49.471 Q 2852.77 56.351, 2849.37 60.271 Q 2845.97 64.151, 2839.77 64.151 Q 2833.53 64.151, 2830.13 60.271 Q 2826.77 56.391, 2826.77 49.471 M 2839.77 60.951 Q 2844.09 60.951, 2846.41 58.071 Q 2848.77 55.151, 2848.77 49.471 Q 2848.77 43.911, 2846.41 41.111 Q 2844.09 38.271, 2839.77 38.271 Q 2835.45 38.271, 2833.09 41.071 Q 2830.77 43.871, 2830.77 49.471 Q 2830.77 55.191, 2833.09 58.071 Q 2835.45 60.951, 2839.77 60.951 " fill="#FF0000"/>
<path class="atom-40" d="M 2738.28 372.594 Q 2738.28 365.554, 2741.56 361.874 Q 2744.88 358.154, 2751.16 358.154 Q 2757 358.154, 2760.12 362.274 L 2757.48 364.434 Q 2755.2 361.434, 2751.16 361.434 Q 2746.88 361.434, 2744.6 364.314 Q 2742.36 367.154, 2742.36 372.594 Q 2742.36 378.194, 2744.68 381.074 Q 2747.04 383.954, 2751.6 383.954 Q 2754.72 383.954, 2758.36 382.074 L 2759.48 385.074 Q 2758 386.034, 2755.76 386.594 Q 2753.52 387.154, 2751.04 387.154 Q 2744.88 387.154, 2741.56 383.394 Q 2738.28 379.634, 2738.28 372.594 " fill="#000000"/>
<path class="atom-40" d="M 2763.12 382.114 L 2767.12 382.114 L 2767.12 386.114 L 2763.12 386.114 L 2763.12 382.114 M 2763.12 368.354 L 2767.12 368.354 L 2767.12 372.354 L 2763.12 372.354 L 2763.12 368.354 " fill="#000000"/>
<path class="atom-40" d="M 2769.2 363.834 Q 2770.24 361.154, 2772.72 359.674 Q 2775.2 358.154, 2778.64 358.154 Q 2782.92 358.154, 2785.32 360.474 Q 2787.72 362.794, 2787.72 366.914 Q 2787.72 371.114, 2784.6 375.034 Q 2781.52 378.954, 2775.12 383.594 L 2788.2 383.594 L 2788.2 386.794 L 2769.12 386.794 L 2769.12 384.114 Q 2774.4 380.354, 2777.52 377.554 Q 2780.68 374.754, 2782.2 372.234 Q 2783.72 369.714, 2783.72 367.114 Q 2783.72 364.394, 2782.36 362.874 Q 2781 361.354, 2778.64 361.354 Q 2776.36 361.354, 2774.84 362.274 Q 2773.32 363.194, 2772.24 365.234 L 2769.2 363.834 " fill="#000000"/>
<path class="atom-40" d="M 2807.8 377.074 L 2811.2 377.074 L 2811.2 380.274 L 2807.8 380.274 L 2807.8 386.794 L 2804.04 386.794 L 2804.04 380.274 L 2789.4 380.274 L 2789.4 377.754 L 2801.8 358.474 L 2807.8 358.474 L 2807.8 377.074 M 2794.04 377.074 L 2804.04 377.074 L 2804.04 361.034 L 2794.04 377.074 " fill="#000000"/>
<path class="atom-41" d="M 2596.41 400.298 Q 2596.41 393.258, 2599.69 389.578 Q 2603.01 385.858, 2609.29 385.858 Q 2615.13 385.858, 2618.25 389.978 L 2615.61 392.138 Q 2613.33 389.138, 2609.29 389.138 Q 2605.01 389.138, 2602.73 392.018 Q 2600.49 394.858, 2600.49 400.298 Q 2600.49 405.898, 2602.81 408.778 Q 2605.17 411.658, 2609.73 411.658 Q 2612.85 411.658, 2616.49 409.778 L 2617.61 412.778 Q 2616.13 413.738, 2613.89 414.298 Q 2611.65 414.858, 2609.17 414.858 Q 2603.01 414.858, 2599.69 411.098 Q 2596.41 407.338, 2596.41 400.298 " fill="#000000"/>
<path class="atom-41" d="M 2621.25 409.818 L 2625.25 409.818 L 2625.25 413.818 L 2621.25 413.818 L 2621.25 409.818 M 2621.25 396.058 L 2625.25 396.058 L 2625.25 400.058 L 2621.25 400.058 L 2621.25 396.058 " fill="#000000"/>
<path class="atom-41" d="M 2627.33 391.538 Q 2628.37 388.858, 2630.85 387.378 Q 2633.33 385.858, 2636.77 385.858 Q 2641.05 385.858, 2643.45 388.178 Q 2645.85 390.498, 2645.85 394.618 Q 2645.85 398.818, 2642.73 402.738 Q 2639.65 406.658, 2633.25 411.298 L 2646.33 411.298 L 2646.33 414.498 L 2627.25 414.498 L 2627.25 411.818 Q 2632.53 408.058, 2635.65 405.258 Q 2638.81 402.458, 2640.33 399.938 Q 2641.85 397.418, 2641.85 394.818 Q 2641.85 392.098, 2640.49 390.578 Q 2639.13 389.058, 2636.77 389.058 Q 2634.49 389.058, 2632.97 389.978 Q 2631.45 390.898, 2630.37 392.938 L 2627.33 391.538 " fill="#000000"/>
<path class="atom-41" d="M 2658.45 396.778 Q 2660.93 396.778, 2662.97 397.858 Q 2665.01 398.898, 2666.17 400.898 Q 2667.33 402.858, 2667.33 405.538 Q 2667.33 408.458, 2665.89 410.578 Q 2664.49 412.658, 2662.17 413.738 Q 2659.85 414.818, 2657.21 414.818 Q 2654.61 414.818, 2652.21 413.858 Q 2649.81 412.898, 2648.17 411.058 L 2650.57 408.578 Q 2651.89 410.018, 2653.69 410.818 Q 2655.49 411.578, 2657.33 411.578 Q 2659.85 411.578, 2661.57 410.018 Q 2663.33 408.458, 2663.33 405.618 Q 2663.33 402.618, 2661.57 401.218 Q 2659.85 399.778, 2657.09 399.778 Q 2654.61 399.778, 2651.85 400.858 L 2649.65 399.818 L 2651.01 386.178 L 2665.57 386.178 L 2665.17 389.378 L 2654.29 389.378 L 2653.45 397.778 Q 2655.97 396.778, 2658.45 396.778 " fill="#000000"/>
<path class="note" d="M 401.295 212.793 L 404.395 212.793 L 404.395 202.213 L 400.975 203.273 L 400.515 202.093 L 404.855 200.153 L 406.275 200.393 L 406.275 212.793 L 409.055 212.793 L 409.055 214.393 L 401.295 214.393 L 401.295 212.793 " fill="#000000"/>
<path class="note" d="M 511.316 226.632 Q 512.556 226.632, 513.576 227.172 Q 514.596 227.692, 515.176 228.692 Q 515.756 229.672, 515.756 231.012 Q 515.756 232.472, 515.036 233.532 Q 514.336 234.572, 513.176 235.112 Q 512.016 235.652, 510.696 235.652 Q 509.396 235.652, 508.196 235.172 Q 506.996 234.692, 506.176 233.772 L 507.376 232.532 Q 508.036 233.252, 508.936 233.652 Q 509.836 234.032, 510.756 234.032 Q 512.016 234.032, 512.876 233.252 Q 513.756 232.472, 513.756 231.052 Q 513.756 229.552, 512.876 228.852 Q 512.016 228.132, 510.636 228.132 Q 509.396 228.132, 508.016 228.672 L 506.916 228.152 L 507.596 221.332 L 514.876 221.332 L 514.676 222.932 L 509.236 222.932 L 508.816 227.132 Q 510.076 226.632, 511.316 226.632 " fill="#000000"/>
<path class="note" d="M 513.006 395.88 Q 514.386 396.28, 515.046 397.18 Q 515.726 398.06, 515.726 399.46 Q 515.726 400.66, 515.126 401.6 Q 514.526 402.52, 513.426 403.04 Q 512.326 403.54, 510.886 403.54 Q 509.366 403.54, 508.226 403.02 Q 507.106 402.48, 506.206 401.4 L 507.346 400.24 Q 508.226 401.2, 508.966 401.58 Q 509.706 401.94, 510.886 401.94 Q 512.166 401.94, 512.946 401.26 Q 513.726 400.56, 513.726 399.44 Q 513.726 398, 512.906 397.36 Q 512.106 396.7, 510.366 396.7 L 509.346 396.7 L 509.346 395.26 L 510.246 395.26 Q 511.786 395.24, 512.606 394.58 Q 513.426 393.9, 513.426 392.64 Q 513.426 391.72, 512.746 391.18 Q 512.066 390.62, 510.906 390.62 Q 509.726 390.62, 508.986 391.04 Q 508.266 391.46, 507.706 392.52 L 506.326 391.78 Q 506.826 390.6, 508.026 389.82 Q 509.226 389.02, 510.906 389.02 Q 512.986 389.02, 514.206 390 Q 515.426 390.98, 515.426 392.64 Q 515.426 393.78, 514.806 394.6 Q 514.186 395.42, 513.006 395.88 " fill="#000000"/>
<path class="note" d="M 611.578 156.068 L 613.278 156.068 L 613.278 157.668 L 611.578 157.668 L 611.578 160.928 L 609.698 160.928 L 609.698 157.668 L 602.378 157.668 L 602.378 156.408 L 608.578 146.768 L 611.578 146.768 L 611.578 156.068 M 604.698 156.068 L 609.698 156.068 L 609.698 148.048 L 604.698 156.068 " fill="#000000"/>
<path class="note" d="M 691.339 215.331 L 694.439 215.331 L 694.439 204.751 L 691.019 205.811 L 690.559 204.631 L 694.899 202.691 L 696.319 202.931 L 696.319 215.331 L 699.099 215.331 L 699.099 216.931 L 691.339 216.931 L 691.339 215.331 " fill="#000000"/>
<path class="note" d="M 705.999 208.091 Q 707.239 208.091, 708.219 208.631 Q 709.199 209.171, 709.739 210.151 Q 710.279 211.131, 710.279 212.371 Q 710.279 213.751, 709.659 214.831 Q 709.059 215.891, 707.979 216.491 Q 706.899 217.091, 705.519 217.091 Q 702.999 217.091, 701.719 215.391 Q 700.459 213.671, 700.459 210.271 Q 700.459 206.511, 702.019 204.571 Q 703.599 202.611, 706.619 202.611 Q 707.499 202.611, 708.239 202.811 Q 708.999 203.011, 709.719 203.431 L 708.939 204.771 Q 707.899 204.211, 706.639 204.211 Q 704.639 204.211, 703.619 205.511 Q 702.599 206.791, 702.479 209.451 Q 703.199 208.791, 704.099 208.451 Q 705.019 208.091, 705.999 208.091 M 705.539 215.451 Q 706.299 215.451, 706.919 215.051 Q 707.559 214.651, 707.919 213.951 Q 708.279 213.251, 708.279 212.391 Q 708.279 211.131, 707.579 210.411 Q 706.879 209.691, 705.639 209.691 Q 704.779 209.691, 703.919 210.051 Q 703.079 210.391, 702.479 210.991 Q 702.559 213.331, 703.299 214.391 Q 704.039 215.451, 705.539 215.451 " fill="#000000"/>
<path class="note" d="M 779.589 180.506 L 782.689 180.506 L 782.689 169.926 L 779.269 170.986 L 778.809 169.806 L 783.149 167.866 L 784.569 168.106 L 784.569 180.506 L 787.349 180.506 L 787.349 182.106 L 779.589 182.106 L 779.589 180.506 " fill="#000000"/>
<path class="note" d="M 795.129 169.546 L 787.709 169.546 L 787.709 167.946 L 797.109 167.946 L 797.109 169.366 L 791.389 182.106 L 789.469 182.106 L 795.129 169.546 " fill="#000000"/>
<path class="note" d="M 691.309 401.74 L 694.409 401.74 L 694.409 391.16 L 690.989 392.22 L 690.529 391.04 L 694.869 389.1 L 696.289 389.34 L 696.289 401.74 L 699.069 401.74 L 699.069 403.34 L 691.309 403.34 L 691.309 401.74 " fill="#000000"/>
<path class="note" d="M 707.529 395.84 Q 708.829 396.4, 709.569 397.24 Q 710.309 398.06, 710.309 399.46 Q 710.309 400.66, 709.689 401.6 Q 709.069 402.52, 707.949 403.04 Q 706.849 403.54, 705.389 403.54 Q 703.029 403.54, 701.669 402.46 Q 700.309 401.36, 700.309 399.46 Q 700.309 398.3, 700.909 397.44 Q 701.509 396.56, 702.749 395.9 Q 701.829 395.38, 701.329 394.62 Q 700.829 393.84, 700.829 392.64 Q 700.829 390.98, 702.029 390 Q 703.249 389.02, 705.309 389.02 Q 707.369 389.02, 708.569 390 Q 709.789 390.98, 709.789 392.64 Q 709.789 393.68, 709.209 394.46 Q 708.649 395.22, 707.529 395.84 M 705.309 390.52 Q 704.129 390.52, 703.469 391.08 Q 702.829 391.64, 702.829 392.64 Q 702.829 393.38, 703.269 393.88 Q 703.709 394.36, 704.329 394.64 Q 704.969 394.92, 706.189 395.34 Q 707.049 394.74, 707.409 394.1 Q 707.789 393.46, 707.789 392.64 Q 707.789 391.64, 707.129 391.08 Q 706.489 390.52, 705.309 390.52 M 705.389 402.04 Q 706.709 402.04, 707.509 401.34 Q 708.309 400.62, 708.309 399.44 Q 708.309 398.68, 707.889 398.2 Q 707.469 397.72, 706.829 397.44 Q 706.209 397.16, 705.089 396.8 L 704.189 396.5 Q 703.189 397.1, 702.749 397.82 Q 702.309 398.52, 702.309 399.44 Q 702.309 400.62, 703.149 401.34 Q 703.989 402.04, 705.389 402.04 " fill="#000000"/>
<path class="note" d="M 1160.33 282.561 L 1163.43 282.561 L 1163.43 271.981 L 1160.01 273.041 L 1159.55 271.861 L 1163.89 269.921 L 1165.31 270.161 L 1165.31 282.561 L 1168.09 282.561 L 1168.09 284.161 L 1160.33 284.161 L 1160.33 282.561 " fill="#000000"/>
<path class="note" d="M 1174.49 284.321 Q 1171.89 284.321, 1170.59 282.401 Q 1169.31 280.481, 1169.31 277.061 Q 1169.31 273.641, 1170.59 271.741 Q 1171.87 269.841, 1174.49 269.841 Q 1177.11 269.841, 1178.39 271.741 Q 1179.67 273.641, 1179.67 277.061 Q 1179.67 280.481, 1178.37 282.401 Q 1177.09 284.321, 1174.49 284.321 M 1174.49 282.721 Q 1176.03 282.721, 1176.85 281.301 Q 1177.67 279.861, 1177.67 277.061 Q 1177.67 274.281, 1176.85 272.861 Q 1176.03 271.441, 1174.49 271.441 Q 1172.97 271.441, 1172.13 272.861 Q 1171.31 274.281, 1171.31 277.061 Q 1171.31 279.861, 1172.13 281.301 Q 1172.97 282.721, 1174.49 282.721 " fill="#000000"/>
<path class="note" d="M 1261.13 240.586 L 1264.23 240.586 L 1264.23 230.006 L 1260.81 231.066 L 1260.35 229.886 L 1264.69 227.946 L 1266.11 228.186 L 1266.11 240.586 L 1268.89 240.586 L 1268.89 242.186 L 1261.13 242.186 L 1261.13 240.586 " fill="#000000"/>
<path class="note" d="M 1270.75 240.586 L 1273.85 240.586 L 1273.85 230.006 L 1270.43 231.066 L 1269.97 229.886 L 1274.31 227.946 L 1275.73 228.186 L 1275.73 240.586 L 1278.51 240.586 L 1278.51 242.186 L 1270.75 242.186 L 1270.75 240.586 " fill="#000000"/>
<path class="note" d="M 1309.61 140.059 L 1312.71 140.059 L 1312.71 129.479 L 1309.29 130.539 L 1308.83 129.359 L 1313.17 127.419 L 1314.59 127.659 L 1314.59 140.059 L 1317.37 140.059 L 1317.37 141.659 L 1309.61 141.659 L 1309.61 140.059 " fill="#000000"/>
<path class="note" d="M 1318.41 130.179 Q 1318.93 128.839, 1320.17 128.099 Q 1321.41 127.339, 1323.13 127.339 Q 1325.27 127.339, 1326.47 128.499 Q 1327.67 129.659, 1327.67 131.719 Q 1327.67 133.819, 1326.11 135.779 Q 1324.57 137.739, 1321.37 140.059 L 1327.91 140.059 L 1327.91 141.659 L 1318.37 141.659 L 1318.37 140.319 Q 1321.01 138.439, 1322.57 137.039 Q 1324.15 135.639, 1324.91 134.379 Q 1325.67 133.119, 1325.67 131.819 Q 1325.67 130.459, 1324.99 129.699 Q 1324.31 128.939, 1323.13 128.939 Q 1321.99 128.939, 1321.23 129.399 Q 1320.47 129.859, 1319.93 130.879 L 1318.41 130.179 " fill="#000000"/>
<path class="note" d="M 1439.86 130.848 L 1442.96 130.848 L 1442.96 120.268 L 1439.54 121.328 L 1439.08 120.148 L 1443.42 118.208 L 1444.84 118.448 L 1444.84 130.848 L 1447.62 130.848 L 1447.62 132.448 L 1439.86 132.448 L 1439.86 130.848 " fill="#000000"/>
<path class="note" d="M 1455.26 124.988 Q 1456.64 125.388, 1457.3 126.288 Q 1457.98 127.168, 1457.98 128.568 Q 1457.98 129.768, 1457.38 130.708 Q 1456.78 131.628, 1455.68 132.148 Q 1454.58 132.648, 1453.14 132.648 Q 1451.62 132.648, 1450.48 132.128 Q 1449.36 131.588, 1448.46 130.508 L 1449.6 129.348 Q 1450.48 130.308, 1451.22 130.688 Q 1451.96 131.048, 1453.14 131.048 Q 1454.42 131.048, 1455.2 130.368 Q 1455.98 129.668, 1455.98 128.548 Q 1455.98 127.108, 1455.16 126.468 Q 1454.36 125.808, 1452.62 125.808 L 1451.6 125.808 L 1451.6 124.368 L 1452.5 124.368 Q 1454.04 124.348, 1454.86 123.688 Q 1455.68 123.008, 1455.68 121.748 Q 1455.68 120.828, 1455 120.288 Q 1454.32 119.728, 1453.16 119.728 Q 1451.98 119.728, 1451.24 120.148 Q 1450.52 120.568, 1449.96 121.628 L 1448.58 120.888 Q 1449.08 119.708, 1450.28 118.928 Q 1451.48 118.128, 1453.16 118.128 Q 1455.24 118.128, 1456.46 119.108 Q 1457.68 120.088, 1457.68 121.748 Q 1457.68 122.888, 1457.06 123.708 Q 1456.44 124.528, 1455.26 124.988 " fill="#000000"/>
<path class="note" d="M 1510.07 206.719 L 1513.17 206.719 L 1513.17 196.139 L 1509.75 197.199 L 1509.29 196.019 L 1513.63 194.079 L 1515.05 194.319 L 1515.05 206.719 L 1517.83 206.719 L 1517.83 208.319 L 1510.07 208.319 L 1510.07 206.719 " fill="#000000"/>
<path class="note" d="M 1527.63 203.459 L 1529.33 203.459 L 1529.33 205.059 L 1527.63 205.059 L 1527.63 208.319 L 1525.75 208.319 L 1525.75 205.059 L 1518.43 205.059 L 1518.43 203.799 L 1524.63 194.159 L 1527.63 194.159 L 1527.63 203.459 M 1520.75 203.459 L 1525.75 203.459 L 1525.75 195.439 L 1520.75 203.459 " fill="#000000"/>
<path class="note" d="M 1622.14 198.823 L 1625.24 198.823 L 1625.24 188.243 L 1621.82 189.303 L 1621.36 188.123 L 1625.7 186.183 L 1627.12 186.423 L 1627.12 198.823 L 1629.9 198.823 L 1629.9 200.423 L 1622.14 200.423 L 1622.14 198.823 " fill="#000000"/>
<path class="note" d="M 1635.96 191.563 Q 1637.2 191.563, 1638.22 192.103 Q 1639.24 192.623, 1639.82 193.623 Q 1640.4 194.603, 1640.4 195.943 Q 1640.4 197.403, 1639.68 198.463 Q 1638.98 199.503, 1637.82 200.043 Q 1636.66 200.583, 1635.34 200.583 Q 1634.04 200.583, 1632.84 200.103 Q 1631.64 199.623, 1630.82 198.703 L 1632.02 197.463 Q 1632.68 198.183, 1633.58 198.583 Q 1634.48 198.963, 1635.4 198.963 Q 1636.66 198.963, 1637.52 198.183 Q 1638.4 197.403, 1638.4 195.983 Q 1638.4 194.483, 1637.52 193.783 Q 1636.66 193.063, 1635.28 193.063 Q 1634.04 193.063, 1632.66 193.603 L 1631.56 193.083 L 1632.24 186.263 L 1639.52 186.263 L 1639.32 187.863 L 1633.88 187.863 L 1633.46 192.063 Q 1634.72 191.563, 1635.96 191.563 " fill="#000000"/>
<path class="note" d="M 1455.54 356.293 L 1458.64 356.293 L 1458.64 345.713 L 1455.22 346.773 L 1454.76 345.593 L 1459.1 343.653 L 1460.52 343.893 L 1460.52 356.293 L 1463.3 356.293 L 1463.3 357.893 L 1455.54 357.893 L 1455.54 356.293 " fill="#000000"/>
<path class="note" d="M 1469.16 343.573 Q 1471.68 343.573, 1472.94 345.293 Q 1474.22 346.993, 1474.22 350.393 Q 1474.22 354.153, 1472.64 356.113 Q 1471.08 358.053, 1468.06 358.053 Q 1467.18 358.053, 1466.42 357.853 Q 1465.68 357.653, 1464.96 357.233 L 1465.74 355.893 Q 1466.78 356.453, 1468.04 356.453 Q 1470.04 356.453, 1471.06 355.173 Q 1472.08 353.873, 1472.2 351.213 Q 1471.48 351.873, 1470.56 352.233 Q 1469.66 352.573, 1468.68 352.573 Q 1467.44 352.573, 1466.46 352.033 Q 1465.48 351.493, 1464.94 350.513 Q 1464.4 349.533, 1464.4 348.293 Q 1464.4 346.913, 1465 345.853 Q 1465.62 344.773, 1466.7 344.173 Q 1467.78 343.573, 1469.16 343.573 M 1466.4 348.273 Q 1466.4 349.533, 1467.1 350.253 Q 1467.8 350.973, 1469.04 350.973 Q 1469.9 350.973, 1470.74 350.633 Q 1471.6 350.273, 1472.2 349.673 Q 1472.12 347.333, 1471.38 346.273 Q 1470.64 345.213, 1469.14 345.213 Q 1468.38 345.213, 1467.74 345.613 Q 1467.12 346.013, 1466.76 346.713 Q 1466.4 347.413, 1466.4 348.273 " fill="#000000"/>
<path class="note" d="M 1312.87 340.179 Q 1313.39 338.839, 1314.63 338.099 Q 1315.87 337.339, 1317.59 337.339 Q 1319.73 337.339, 1320.93 338.499 Q 1322.13 339.659, 1322.13 341.719 Q 1322.13 343.819, 1320.57 345.779 Q 1319.03 347.739, 1315.83 350.059 L 1322.37 350.059 L 1322.37 351.659 L 1312.83 351.659 L 1312.83 350.319 Q 1315.47 348.439, 1317.03 347.039 Q 1318.61 345.639, 1319.37 344.379 Q 1320.13 343.119, 1320.13 341.819 Q 1320.13 340.459, 1319.45 339.699 Q 1318.77 338.939, 1317.59 338.939 Q 1316.45 338.939, 1315.69 339.399 Q 1314.93 339.859, 1314.39 340.879 L 1312.87 340.179 " fill="#000000"/>
<path class="note" d="M 1328.77 351.819 Q 1326.17 351.819, 1324.87 349.899 Q 1323.59 347.979, 1323.59 344.559 Q 1323.59 341.139, 1324.87 339.239 Q 1326.15 337.339, 1328.77 337.339 Q 1331.39 337.339, 1332.67 339.239 Q 1333.95 341.139, 1333.95 344.559 Q 1333.95 347.979, 1332.65 349.899 Q 1331.37 351.819, 1328.77 351.819 M 1328.77 350.219 Q 1330.31 350.219, 1331.13 348.799 Q 1331.95 347.359, 1331.95 344.559 Q 1331.95 341.779, 1331.13 340.359 Q 1330.31 338.939, 1328.77 338.939 Q 1327.25 338.939, 1326.41 340.359 Q 1325.59 341.779, 1325.59 344.559 Q 1325.59 347.359, 1326.41 348.799 Q 1327.25 350.219, 1328.77 350.219 " fill="#000000"/>
<path class="note" d="M 1267.18 472.953 Q 1267.7 471.613, 1268.94 470.873 Q 1270.18 470.113, 1271.9 470.113 Q 1274.04 470.113, 1275.24 471.273 Q 1276.44 472.433, 1276.44 474.493 Q 1276.44 476.593, 1274.88 478.553 Q 1273.34 480.513, 1270.14 482.833 L 1276.68 482.833 L 1276.68 484.433 L 1267.14 484.433 L 1267.14 483.093 Q 1269.78 481.213, 1271.34 479.813 Q 1272.92 478.413, 1273.68 477.153 Q 1274.44 475.893, 1274.44 474.593 Q 1274.44 473.233, 1273.76 472.473 Q 1273.08 471.713, 1271.9 471.713 Q 1270.76 471.713, 1270 472.173 Q 1269.24 472.633, 1268.7 473.653 L 1267.18 472.953 " fill="#000000"/>
<path class="note" d="M 1278.54 482.833 L 1281.64 482.833 L 1281.64 472.253 L 1278.22 473.313 L 1277.76 472.133 L 1282.1 470.193 L 1283.52 470.433 L 1283.52 482.833 L 1286.3 482.833 L 1286.3 484.433 L 1278.54 484.433 L 1278.54 482.833 " fill="#000000"/>
<path class="note" d="M 1074.39 130.524 Q 1074.91 129.184, 1076.15 128.444 Q 1077.39 127.684, 1079.11 127.684 Q 1081.25 127.684, 1082.45 128.844 Q 1083.65 130.004, 1083.65 132.064 Q 1083.65 134.164, 1082.09 136.124 Q 1080.55 138.084, 1077.35 140.404 L 1083.89 140.404 L 1083.89 142.004 L 1074.35 142.004 L 1074.35 140.664 Q 1076.99 138.784, 1078.55 137.384 Q 1080.13 135.984, 1080.89 134.724 Q 1081.65 133.464, 1081.65 132.164 Q 1081.65 130.804, 1080.97 130.044 Q 1080.29 129.284, 1079.11 129.284 Q 1077.97 129.284, 1077.21 129.744 Q 1076.45 130.204, 1075.91 131.224 L 1074.39 130.524 " fill="#000000"/>
<path class="note" d="M 1091.53 134.544 Q 1092.91 134.944, 1093.57 135.844 Q 1094.25 136.724, 1094.25 138.124 Q 1094.25 139.324, 1093.65 140.264 Q 1093.05 141.184, 1091.95 141.704 Q 1090.85 142.204, 1089.41 142.204 Q 1087.89 142.204, 1086.75 141.684 Q 1085.63 141.144, 1084.73 140.064 L 1085.87 138.904 Q 1086.75 139.864, 1087.49 140.244 Q 1088.23 140.604, 1089.41 140.604 Q 1090.69 140.604, 1091.47 139.924 Q 1092.25 139.224, 1092.25 138.104 Q 1092.25 136.664, 1091.43 136.024 Q 1090.63 135.364, 1088.89 135.364 L 1087.87 135.364 L 1087.87 133.924 L 1088.77 133.924 Q 1090.31 133.904, 1091.13 133.244 Q 1091.95 132.564, 1091.95 131.304 Q 1091.95 130.384, 1091.27 129.844 Q 1090.59 129.284, 1089.43 129.284 Q 1088.25 129.284, 1087.51 129.704 Q 1086.79 130.124, 1086.23 131.184 L 1084.85 130.444 Q 1085.35 129.264, 1086.55 128.484 Q 1087.75 127.684, 1089.43 127.684 Q 1091.51 127.684, 1092.73 128.664 Q 1093.95 129.644, 1093.95 131.304 Q 1093.95 132.444, 1093.33 133.264 Q 1092.71 134.084, 1091.53 134.544 " fill="#000000"/>
<path class="note" d="M 2268.9 319.183 L 2272 319.183 L 2272 308.603 L 2268.58 309.663 L 2268.12 308.483 L 2272.46 306.543 L 2273.88 306.783 L 2273.88 319.183 L 2276.66 319.183 L 2276.66 320.783 L 2268.9 320.783 L 2268.9 319.183 " fill="#000000"/>
<path class="note" d="M 2345.35 236.916 Q 2345.87 235.576, 2347.11 234.836 Q 2348.35 234.076, 2350.07 234.076 Q 2352.21 234.076, 2353.41 235.236 Q 2354.61 236.396, 2354.61 238.456 Q 2354.61 240.556, 2353.05 242.516 Q 2351.51 244.476, 2348.31 246.796 L 2354.85 246.796 L 2354.85 248.396 L 2345.31 248.396 L 2345.31 247.056 Q 2347.95 245.176, 2349.51 243.776 Q 2351.09 242.376, 2351.85 241.116 Q 2352.61 239.856, 2352.61 238.556 Q 2352.61 237.196, 2351.93 236.436 Q 2351.25 235.676, 2350.07 235.676 Q 2348.93 235.676, 2348.17 236.136 Q 2347.41 236.596, 2346.87 237.616 L 2345.35 236.916 " fill="#000000"/>
<path class="note" d="M 2418.43 124.007 Q 2419.81 124.407, 2420.47 125.307 Q 2421.15 126.187, 2421.15 127.587 Q 2421.15 128.787, 2420.55 129.727 Q 2419.95 130.647, 2418.85 131.167 Q 2417.75 131.667, 2416.31 131.667 Q 2414.79 131.667, 2413.65 131.147 Q 2412.53 130.607, 2411.63 129.527 L 2412.77 128.367 Q 2413.65 129.327, 2414.39 129.707 Q 2415.13 130.067, 2416.31 130.067 Q 2417.59 130.067, 2418.37 129.387 Q 2419.15 128.687, 2419.15 127.567 Q 2419.15 126.127, 2418.33 125.487 Q 2417.53 124.827, 2415.79 124.827 L 2414.77 124.827 L 2414.77 123.387 L 2415.67 123.387 Q 2417.21 123.367, 2418.03 122.707 Q 2418.85 122.027, 2418.85 120.767 Q 2418.85 119.847, 2418.17 119.307 Q 2417.49 118.747, 2416.33 118.747 Q 2415.15 118.747, 2414.41 119.167 Q 2413.69 119.587, 2413.13 120.647 L 2411.75 119.907 Q 2412.25 118.727, 2413.45 117.947 Q 2414.65 117.147, 2416.33 117.147 Q 2418.41 117.147, 2419.63 118.127 Q 2420.85 119.107, 2420.85 120.767 Q 2420.85 121.907, 2420.23 122.727 Q 2419.61 123.547, 2418.43 124.007 " fill="#000000"/>
<path class="note" d="M 2448 386.009 L 2449.7 386.009 L 2449.7 387.609 L 2448 387.609 L 2448 390.869 L 2446.12 390.869 L 2446.12 387.609 L 2438.8 387.609 L 2438.8 386.349 L 2445 376.709 L 2448 376.709 L 2448 386.009 M 2441.12 386.009 L 2446.12 386.009 L 2446.12 377.989 L 2441.12 386.009 " fill="#000000"/>
<path class="note" d="M 2549.99 305.075 Q 2551.23 305.075, 2552.25 305.615 Q 2553.27 306.135, 2553.85 307.135 Q 2554.43 308.115, 2554.43 309.455 Q 2554.43 310.915, 2553.71 311.975 Q 2553.01 313.015, 2551.85 313.555 Q 2550.69 314.095, 2549.37 314.095 Q 2548.07 314.095, 2546.87 313.615 Q 2545.67 313.135, 2544.85 312.215 L 2546.05 310.975 Q 2546.71 311.695, 2547.61 312.095 Q 2548.51 312.475, 2549.43 312.475 Q 2550.69 312.475, 2551.55 311.695 Q 2552.43 310.915, 2552.43 309.495 Q 2552.43 307.995, 2551.55 307.295 Q 2550.69 306.575, 2549.31 306.575 Q 2548.07 306.575, 2546.69 307.115 L 2545.59 306.595 L 2546.27 299.775 L 2553.55 299.775 L 2553.35 301.375 L 2547.91 301.375 L 2547.49 305.575 Q 2548.75 305.075, 2549.99 305.075 " fill="#000000"/>
<path class="note" d="M 2567.43 184.149 Q 2568.67 184.149, 2569.65 184.689 Q 2570.63 185.229, 2571.17 186.209 Q 2571.71 187.189, 2571.71 188.429 Q 2571.71 189.809, 2571.09 190.889 Q 2570.49 191.949, 2569.41 192.549 Q 2568.33 193.149, 2566.95 193.149 Q 2564.43 193.149, 2563.15 191.449 Q 2561.89 189.729, 2561.89 186.329 Q 2561.89 182.569, 2563.45 180.629 Q 2565.03 178.669, 2568.05 178.669 Q 2568.93 178.669, 2569.67 178.869 Q 2570.43 179.069, 2571.15 179.489 L 2570.37 180.829 Q 2569.33 180.269, 2568.07 180.269 Q 2566.07 180.269, 2565.05 181.569 Q 2564.03 182.849, 2563.91 185.509 Q 2564.63 184.849, 2565.53 184.509 Q 2566.45 184.149, 2567.43 184.149 M 2566.97 191.509 Q 2567.73 191.509, 2568.35 191.109 Q 2568.99 190.709, 2569.35 190.009 Q 2569.71 189.309, 2569.71 188.449 Q 2569.71 187.189, 2569.01 186.469 Q 2568.31 185.749, 2567.07 185.749 Q 2566.21 185.749, 2565.35 186.109 Q 2564.51 186.449, 2563.91 187.049 Q 2563.99 189.389, 2564.73 190.449 Q 2565.47 191.509, 2566.97 191.509 " fill="#000000"/>
<path class="note" d="M 2714 143.411 L 2706.58 143.411 L 2706.58 141.811 L 2715.98 141.811 L 2715.98 143.231 L 2710.26 155.971 L 2708.34 155.971 L 2714 143.411 " fill="#000000"/>
<path class="note" d="M 2791.67 228.542 Q 2792.97 229.102, 2793.71 229.942 Q 2794.45 230.762, 2794.45 232.162 Q 2794.45 233.362, 2793.83 234.302 Q 2793.21 235.222, 2792.09 235.742 Q 2790.99 236.242, 2789.53 236.242 Q 2787.17 236.242, 2785.81 235.162 Q 2784.45 234.062, 2784.45 232.162 Q 2784.45 231.002, 2785.05 230.142 Q 2785.65 229.262, 2786.89 228.602 Q 2785.97 228.082, 2785.47 227.322 Q 2784.97 226.542, 2784.97 225.342 Q 2784.97 223.682, 2786.17 222.702 Q 2787.39 221.722, 2789.45 221.722 Q 2791.51 221.722, 2792.71 222.702 Q 2793.93 223.682, 2793.93 225.342 Q 2793.93 226.382, 2793.35 227.162 Q 2792.79 227.922, 2791.67 228.542 M 2789.45 223.222 Q 2788.27 223.222, 2787.61 223.782 Q 2786.97 224.342, 2786.97 225.342 Q 2786.97 226.082, 2787.41 226.582 Q 2787.85 227.062, 2788.47 227.342 Q 2789.11 227.622, 2790.33 228.042 Q 2791.19 227.442, 2791.55 226.802 Q 2791.93 226.162, 2791.93 225.342 Q 2791.93 224.342, 2791.27 223.782 Q 2790.63 223.222, 2789.45 223.222 M 2789.53 234.742 Q 2790.85 234.742, 2791.65 234.042 Q 2792.45 233.322, 2792.45 232.142 Q 2792.45 231.382, 2792.03 230.902 Q 2791.61 230.422, 2790.97 230.142 Q 2790.35 229.862, 2789.23 229.502 L 2788.33 229.202 Q 2787.33 229.802, 2786.89 230.522 Q 2786.45 231.222, 2786.45 232.142 Q 2786.45 233.322, 2787.29 234.042 Q 2788.13 234.742, 2789.53 234.742 " fill="#000000"/>
<path class="note" d="M 2877.54 265.815 Q 2880.06 265.815, 2881.32 267.535 Q 2882.6 269.235, 2882.6 272.635 Q 2882.6 276.395, 2881.02 278.355 Q 2879.46 280.295, 2876.44 280.295 Q 2875.56 280.295, 2874.8 280.095 Q 2874.06 279.895, 2873.34 279.475 L 2874.12 278.135 Q 2875.16 278.695, 2876.42 278.695 Q 2878.42 278.695, 2879.44 277.415 Q 2880.46 276.115, 2880.58 273.455 Q 2879.86 274.115, 2878.94 274.475 Q 2878.04 274.815, 2877.06 274.815 Q 2875.82 274.815, 2874.84 274.275 Q 2873.86 273.735, 2873.32 272.755 Q 2872.78 271.775, 2872.78 270.535 Q 2872.78 269.155, 2873.38 268.095 Q 2874 267.015, 2875.08 266.415 Q 2876.16 265.815, 2877.54 265.815 M 2874.78 270.515 Q 2874.78 271.775, 2875.48 272.495 Q 2876.18 273.215, 2877.42 273.215 Q 2878.28 273.215, 2879.12 272.875 Q 2879.98 272.515, 2880.58 271.915 Q 2880.5 269.575, 2879.76 268.515 Q 2879.02 267.455, 2877.52 267.455 Q 2876.76 267.455, 2876.12 267.855 Q 2875.5 268.255, 2875.14 268.955 Q 2874.78 269.655, 2874.78 270.515 " fill="#000000"/>
<path class="note" d="M 2947.34 340.577 L 2950.44 340.577 L 2950.44 329.997 L 2947.02 331.057 L 2946.56 329.877 L 2950.9 327.937 L 2952.32 328.177 L 2952.32 340.577 L 2955.1 340.577 L 2955.1 342.177 L 2947.34 342.177 L 2947.34 340.577 " fill="#000000"/>
<path class="note" d="M 2961.5 342.337 Q 2958.9 342.337, 2957.6 340.417 Q 2956.32 338.497, 2956.32 335.077 Q 2956.32 331.657, 2957.6 329.757 Q 2958.88 327.857, 2961.5 327.857 Q 2964.12 327.857, 2965.4 329.757 Q 2966.68 331.657, 2966.68 335.077 Q 2966.68 338.497, 2965.38 340.417 Q 2964.1 342.337, 2961.5 342.337 M 2961.5 340.737 Q 2963.04 340.737, 2963.86 339.317 Q 2964.68 337.877, 2964.68 335.077 Q 2964.68 332.297, 2963.86 330.877 Q 2963.04 329.457, 2961.5 329.457 Q 2959.98 329.457, 2959.14 330.877 Q 2958.32 332.297, 2958.32 335.077 Q 2958.32 337.877, 2959.14 339.317 Q 2959.98 340.737, 2961.5 340.737 " fill="#000000"/>
<path class="note" d="M 3056.68 312.833 L 3059.78 312.833 L 3059.78 302.253 L 3056.36 303.313 L 3055.9 302.133 L 3060.24 300.193 L 3061.66 300.433 L 3061.66 312.833 L 3064.44 312.833 L 3064.44 314.433 L 3056.68 314.433 L 3056.68 312.833 " fill="#000000"/>
<path class="note" d="M 3066.3 312.833 L 3069.4 312.833 L 3069.4 302.253 L 3065.98 303.313 L 3065.52 302.133 L 3069.86 300.193 L 3071.28 300.433 L 3071.28 312.833 L 3074.06 312.833 L 3074.06 314.433 L 3066.3 314.433 L 3066.3 312.833 " fill="#000000"/>
<path class="note" d="M 3134.39 392.864 L 3137.49 392.864 L 3137.49 382.284 L 3134.07 383.344 L 3133.61 382.164 L 3137.95 380.224 L 3139.37 380.464 L 3139.37 392.864 L 3142.15 392.864 L 3142.15 394.464 L 3134.39 394.464 L 3134.39 392.864 " fill="#000000"/>
<path class="note" d="M 3143.19 382.984 Q 3143.71 381.644, 3144.95 380.904 Q 3146.19 380.144, 3147.91 380.144 Q 3150.05 380.144, 3151.25 381.304 Q 3152.45 382.464, 3152.45 384.524 Q 3152.45 386.624, 3150.89 388.584 Q 3149.35 390.544, 3146.15 392.864 L 3152.69 392.864 L 3152.69 394.464 L 3143.15 394.464 L 3143.15 393.124 Q 3145.79 391.244, 3147.35 389.844 Q 3148.93 388.444, 3149.69 387.184 Q 3150.45 385.924, 3150.45 384.624 Q 3150.45 383.264, 3149.77 382.504 Q 3149.09 381.744, 3147.91 381.744 Q 3146.77 381.744, 3146.01 382.204 Q 3145.25 382.664, 3144.71 383.684 L 3143.19 382.984 " fill="#000000"/>
<path class="note" d="M 3260.9 360.544 L 3264 360.544 L 3264 349.964 L 3260.58 351.024 L 3260.12 349.844 L 3264.46 347.904 L 3265.88 348.144 L 3265.88 360.544 L 3268.66 360.544 L 3268.66 362.144 L 3260.9 362.144 L 3260.9 360.544 " fill="#000000"/>
<path class="note" d="M 3276.3 354.684 Q 3277.68 355.084, 3278.34 355.984 Q 3279.02 356.864, 3279.02 358.264 Q 3279.02 359.464, 3278.42 360.404 Q 3277.82 361.324, 3276.72 361.844 Q 3275.62 362.344, 3274.18 362.344 Q 3272.66 362.344, 3271.52 361.824 Q 3270.4 361.284, 3269.5 360.204 L 3270.64 359.044 Q 3271.52 360.004, 3272.26 360.384 Q 3273 360.744, 3274.18 360.744 Q 3275.46 360.744, 3276.24 360.064 Q 3277.02 359.364, 3277.02 358.244 Q 3277.02 356.804, 3276.2 356.164 Q 3275.4 355.504, 3273.66 355.504 L 3272.64 355.504 L 3272.64 354.064 L 3273.54 354.064 Q 3275.08 354.044, 3275.9 353.384 Q 3276.72 352.704, 3276.72 351.444 Q 3276.72 350.524, 3276.04 349.984 Q 3275.36 349.424, 3274.2 349.424 Q 3273.02 349.424, 3272.28 349.844 Q 3271.56 350.264, 3271 351.324 L 3269.62 350.584 Q 3270.12 349.404, 3271.32 348.624 Q 3272.52 347.824, 3274.2 347.824 Q 3276.28 347.824, 3277.5 348.804 Q 3278.72 349.784, 3278.72 351.444 Q 3278.72 352.584, 3278.1 353.404 Q 3277.48 354.224, 3276.3 354.684 " fill="#000000"/>
<path class="note" d="M 3303.55 266.141 L 3306.65 266.141 L 3306.65 255.561 L 3303.23 256.621 L 3302.77 255.441 L 3307.11 253.501 L 3308.53 253.741 L 3308.53 266.141 L 3311.31 266.141 L 3311.31 267.741 L 3303.55 267.741 L 3303.55 266.141 " fill="#000000"/>
<path class="note" d="M 3321.11 262.881 L 3322.81 262.881 L 3322.81 264.481 L 3321.11 264.481 L 3321.11 267.741 L 3319.23 267.741 L 3319.23 264.481 L 3311.91 264.481 L 3311.91 263.221 L 3318.11 253.581 L 3321.11 253.581 L 3321.11 262.881 M 3314.23 262.881 L 3319.23 262.881 L 3319.23 254.861 L 3314.23 262.881 " fill="#000000"/>
<path class="note" d="M 3396.42 175.876 L 3399.52 175.876 L 3399.52 165.296 L 3396.1 166.356 L 3395.64 165.176 L 3399.98 163.236 L 3401.4 163.476 L 3401.4 175.876 L 3404.18 175.876 L 3404.18 177.476 L 3396.42 177.476 L 3396.42 175.876 " fill="#000000"/>
<path class="note" d="M 3410.24 168.616 Q 3411.48 168.616, 3412.5 169.156 Q 3413.52 169.676, 3414.1 170.676 Q 3414.68 171.656, 3414.68 172.996 Q 3414.68 174.456, 3413.96 175.516 Q 3413.26 176.556, 3412.1 177.096 Q 3410.94 177.636, 3409.62 177.636 Q 3408.32 177.636, 3407.12 177.156 Q 3405.92 176.676, 3405.1 175.756 L 3406.3 174.516 Q 3406.96 175.236, 3407.86 175.636 Q 3408.76 176.016, 3409.68 176.016 Q 3410.94 176.016, 3411.8 175.236 Q 3412.68 174.456, 3412.68 173.036 Q 3412.68 171.536, 3411.8 170.836 Q 3410.94 170.116, 3409.56 170.116 Q 3408.32 170.116, 3406.94 170.656 L 3405.84 170.136 L 3406.52 163.316 L 3413.8 163.316 L 3413.6 164.916 L 3408.16 164.916 L 3407.74 169.116 Q 3409 168.616, 3410.24 168.616 " fill="#000000"/>
<path class="note" d="M 3474.25 255.907 L 3477.35 255.907 L 3477.35 245.327 L 3473.93 246.387 L 3473.47 245.207 L 3477.81 243.267 L 3479.23 243.507 L 3479.23 255.907 L 3482.01 255.907 L 3482.01 257.507 L 3474.25 257.507 L 3474.25 255.907 " fill="#000000"/>
<path class="note" d="M 3488.91 248.667 Q 3490.15 248.667, 3491.13 249.207 Q 3492.11 249.747, 3492.65 250.727 Q 3493.19 251.707, 3493.19 252.947 Q 3493.19 254.327, 3492.57 255.407 Q 3491.97 256.467, 3490.89 257.067 Q 3489.81 257.667, 3488.43 257.667 Q 3485.91 257.667, 3484.63 255.967 Q 3483.37 254.247, 3483.37 250.847 Q 3483.37 247.087, 3484.93 245.147 Q 3486.51 243.187, 3489.53 243.187 Q 3490.41 243.187, 3491.15 243.387 Q 3491.91 243.587, 3492.63 244.007 L 3491.85 245.347 Q 3490.81 244.787, 3489.55 244.787 Q 3487.55 244.787, 3486.53 246.087 Q 3485.51 247.367, 3485.39 250.027 Q 3486.11 249.367, 3487.01 249.027 Q 3487.93 248.667, 3488.91 248.667 M 3488.45 256.027 Q 3489.21 256.027, 3489.83 255.627 Q 3490.47 255.227, 3490.83 254.527 Q 3491.19 253.827, 3491.19 252.967 Q 3491.19 251.707, 3490.49 250.987 Q 3489.79 250.267, 3488.55 250.267 Q 3487.69 250.267, 3486.83 250.627 Q 3485.99 250.967, 3485.39 251.567 Q 3485.47 253.907, 3486.21 254.967 Q 3486.95 256.027, 3488.45 256.027 " fill="#000000"/>
<path class="note" d="M 3568.64 246.001 L 3571.74 246.001 L 3571.74 235.421 L 3568.32 236.481 L 3567.86 235.301 L 3572.2 233.361 L 3573.62 233.601 L 3573.62 246.001 L 3576.4 246.001 L 3576.4 247.601 L 3568.64 247.601 L 3568.64 246.001 " fill="#000000"/>
<path class="note" d="M 3584.18 235.041 L 3576.76 235.041 L 3576.76 233.441 L 3586.16 233.441 L 3586.16 234.861 L 3580.44 247.601 L 3578.52 247.601 L 3584.18 235.041 " fill="#000000"/>
<path class="note" d="M 3423.9 435.397 L 3427 435.397 L 3427 424.817 L 3423.58 425.877 L 3423.12 424.697 L 3427.46 422.757 L 3428.88 422.997 L 3428.88 435.397 L 3431.66 435.397 L 3431.66 436.997 L 3423.9 436.997 L 3423.9 435.397 " fill="#000000"/>
<path class="note" d="M 3440.12 429.497 Q 3441.42 430.057, 3442.16 430.897 Q 3442.9 431.717, 3442.9 433.117 Q 3442.9 434.317, 3442.28 435.257 Q 3441.66 436.177, 3440.54 436.697 Q 3439.44 437.197, 3437.98 437.197 Q 3435.62 437.197, 3434.26 436.117 Q 3432.9 435.017, 3432.9 433.117 Q 3432.9 431.957, 3433.5 431.097 Q 3434.1 430.217, 3435.34 429.557 Q 3434.42 429.037, 3433.92 428.277 Q 3433.42 427.497, 3433.42 426.297 Q 3433.42 424.637, 3434.62 423.657 Q 3435.84 422.677, 3437.9 422.677 Q 3439.96 422.677, 3441.16 423.657 Q 3442.38 424.637, 3442.38 426.297 Q 3442.38 427.337, 3441.8 428.117 Q 3441.24 428.877, 3440.12 429.497 M 3437.9 424.177 Q 3436.72 424.177, 3436.06 424.737 Q 3435.42 425.297, 3435.42 426.297 Q 3435.42 427.037, 3435.86 427.537 Q 3436.3 428.017, 3436.92 428.297 Q 3437.56 428.577, 3438.78 428.997 Q 3439.64 428.397, 3440 427.757 Q 3440.38 427.117, 3440.38 426.297 Q 3440.38 425.297, 3439.72 424.737 Q 3439.08 424.177, 3437.9 424.177 M 3437.98 435.697 Q 3439.3 435.697, 3440.1 434.997 Q 3440.9 434.277, 3440.9 433.097 Q 3440.9 432.337, 3440.48 431.857 Q 3440.06 431.377, 3439.42 431.097 Q 3438.8 430.817, 3437.68 430.457 L 3436.78 430.157 Q 3435.78 430.757, 3435.34 431.477 Q 3434.9 432.177, 3434.9 433.097 Q 3434.9 434.277, 3435.74 434.997 Q 3436.58 435.697, 3437.98 435.697 " fill="#000000"/>
<path class="note" d="M 3204.64 141.577 L 3207.74 141.577 L 3207.74 130.997 L 3204.32 132.057 L 3203.86 130.877 L 3208.2 128.937 L 3209.62 129.177 L 3209.62 141.577 L 3212.4 141.577 L 3212.4 143.177 L 3204.64 143.177 L 3204.64 141.577 " fill="#000000"/>
<path class="note" d="M 3218.26 128.857 Q 3220.78 128.857, 3222.04 130.577 Q 3223.32 132.277, 3223.32 135.677 Q 3223.32 139.437, 3221.74 141.397 Q 3220.18 143.337, 3217.16 143.337 Q 3216.28 143.337, 3215.52 143.137 Q 3214.78 142.937, 3214.06 142.517 L 3214.84 141.177 Q 3215.88 141.737, 3217.14 141.737 Q 3219.14 141.737, 3220.16 140.457 Q 3221.18 139.157, 3221.3 136.497 Q 3220.58 137.157, 3219.66 137.517 Q 3218.76 137.857, 3217.78 137.857 Q 3216.54 137.857, 3215.56 137.317 Q 3214.58 136.777, 3214.04 135.797 Q 3213.5 134.817, 3213.5 133.577 Q 3213.5 132.197, 3214.1 131.137 Q 3214.72 130.057, 3215.8 129.457 Q 3216.88 128.857, 3218.26 128.857 M 3215.5 133.557 Q 3215.5 134.817, 3216.2 135.537 Q 3216.9 136.257, 3218.14 136.257 Q 3219 136.257, 3219.84 135.917 Q 3220.7 135.557, 3221.3 134.957 Q 3221.22 132.617, 3220.48 131.557 Q 3219.74 130.497, 3218.24 130.497 Q 3217.48 130.497, 3216.84 130.897 Q 3216.22 131.297, 3215.86 131.997 Q 3215.5 132.697, 3215.5 133.557 " fill="#000000"/>
<path class="note" d="M 3099.24 141.451 Q 3099.76 140.111, 3101 139.371 Q 3102.24 138.611, 3103.96 138.611 Q 3106.1 138.611, 3107.3 139.771 Q 3108.5 140.931, 3108.5 142.991 Q 3108.5 145.091, 3106.94 147.051 Q 3105.4 149.011, 3102.2 151.331 L 3108.74 151.331 L 3108.74 152.931 L 3099.2 152.931 L 3099.2 151.591 Q 3101.84 149.711, 3103.4 148.311 Q 3104.98 146.911, 3105.74 145.651 Q 3106.5 144.391, 3106.5 143.091 Q 3106.5 141.731, 3105.82 140.971 Q 3105.14 140.211, 3103.96 140.211 Q 3102.82 140.211, 3102.06 140.671 Q 3101.3 141.131, 3100.76 142.151 L 3099.24 141.451 " fill="#000000"/>
<path class="note" d="M 3115.14 153.091 Q 3112.54 153.091, 3111.24 151.171 Q 3109.96 149.251, 3109.96 145.831 Q 3109.96 142.411, 3111.24 140.511 Q 3112.52 138.611, 3115.14 138.611 Q 3117.76 138.611, 3119.04 140.511 Q 3120.32 142.411, 3120.32 145.831 Q 3120.32 149.251, 3119.02 151.171 Q 3117.74 153.091, 3115.14 153.091 M 3115.14 151.491 Q 3116.68 151.491, 3117.5 150.071 Q 3118.32 148.631, 3118.32 145.831 Q 3118.32 143.051, 3117.5 141.631 Q 3116.68 140.211, 3115.14 140.211 Q 3113.62 140.211, 3112.78 141.631 Q 3111.96 143.051, 3111.96 145.831 Q 3111.96 148.631, 3112.78 150.071 Q 3113.62 151.491, 3115.14 151.491 " fill="#000000"/>
<path class="note" d="M 3022.05 61.4604 Q 3022.57 60.1204, 3023.81 59.3804 Q 3025.05 58.6204, 3026.77 58.6204 Q 3028.91 58.6204, 3030.11 59.7804 Q 3031.31 60.9404, 3031.31 63.0004 Q 3031.31 65.1004, 3029.75 67.0604 Q 3028.21 69.0204, 3025.01 71.3404 L 3031.55 71.3404 L 3031.55 72.9404 L 3022.01 72.9404 L 3022.01 71.6004 Q 3024.65 69.7204, 3026.21 68.3204 Q 3027.79 66.9204, 3028.55 65.6604 Q 3029.31 64.4004, 3029.31 63.1004 Q 3029.31 61.7404, 3028.63 60.9804 Q 3027.95 60.2204, 3026.77 60.2204 Q 3025.63 60.2204, 3024.87 60.6804 Q 3024.11 61.1404, 3023.57 62.1604 L 3022.05 61.4604 " fill="#000000"/>
<path class="note" d="M 3033.41 71.3404 L 3036.51 71.3404 L 3036.51 60.7604 L 3033.09 61.8204 L 3032.63 60.6404 L 3036.97 58.7004 L 3038.39 58.9404 L 3038.39 71.3404 L 3041.17 71.3404 L 3041.17 72.9404 L 3033.41 72.9404 L 3033.41 71.3404 " fill="#000000"/>
<path class="note" d="M 2876.5 151.119 Q 2877.02 149.779, 2878.26 149.039 Q 2879.5 148.279, 2881.22 148.279 Q 2883.36 148.279, 2884.56 149.439 Q 2885.76 150.599, 2885.76 152.659 Q 2885.76 154.759, 2884.2 156.719 Q 2882.66 158.679, 2879.46 160.999 L 2886 160.999 L 2886 162.599 L 2876.46 162.599 L 2876.46 161.259 Q 2879.1 159.379, 2880.66 157.979 Q 2882.24 156.579, 2883 155.319 Q 2883.76 154.059, 2883.76 152.759 Q 2883.76 151.399, 2883.08 150.639 Q 2882.4 149.879, 2881.22 149.879 Q 2880.08 149.879, 2879.32 150.339 Q 2878.56 150.799, 2878.02 151.819 L 2876.5 151.119 " fill="#000000"/>
<path class="note" d="M 2887.04 151.119 Q 2887.56 149.779, 2888.8 149.039 Q 2890.04 148.279, 2891.76 148.279 Q 2893.9 148.279, 2895.1 149.439 Q 2896.3 150.599, 2896.3 152.659 Q 2896.3 154.759, 2894.74 156.719 Q 2893.2 158.679, 2890 160.999 L 2896.54 160.999 L 2896.54 162.599 L 2887 162.599 L 2887 161.259 Q 2889.64 159.379, 2891.2 157.979 Q 2892.78 156.579, 2893.54 155.319 Q 2894.3 154.059, 2894.3 152.759 Q 2894.3 151.399, 2893.62 150.639 Q 2892.94 149.879, 2891.76 149.879 Q 2890.62 149.879, 2889.86 150.339 Q 2889.1 150.799, 2888.56 151.819 L 2887.04 151.119 " fill="#000000"/>
<path class="note" d="M 2799.03 18.4073 Q 2799.55 17.0673, 2800.79 16.3273 Q 2802.03 15.5673, 2803.75 15.5673 Q 2805.89 15.5673, 2807.09 16.7273 Q 2808.29 17.8873, 2808.29 19.9473 Q 2808.29 22.0473, 2806.73 24.0073 Q 2805.19 25.9673, 2801.99 28.2873 L 2808.53 28.2873 L 2808.53 29.8873 L 2798.99 29.8873 L 2798.99 28.5473 Q 2801.63 26.6673, 2803.19 25.2673 Q 2804.77 23.8673, 2805.53 22.6073 Q 2806.29 21.3473, 2806.29 20.0473 Q 2806.29 18.6873, 2805.61 17.9273 Q 2804.93 17.1673, 2803.75 17.1673 Q 2802.61 17.1673, 2801.85 17.6273 Q 2801.09 18.0873, 2800.55 19.1073 L 2799.03 18.4073 " fill="#000000"/>
<path class="note" d="M 2816.17 22.4273 Q 2817.55 22.8273, 2818.21 23.7273 Q 2818.89 24.6073, 2818.89 26.0073 Q 2818.89 27.2073, 2818.29 28.1473 Q 2817.69 29.0673, 2816.59 29.5873 Q 2815.49 30.0873, 2814.05 30.0873 Q 2812.53 30.0873, 2811.39 29.5673 Q 2810.27 29.0273, 2809.37 27.9473 L 2810.51 26.7873 Q 2811.39 27.7473, 2812.13 28.1273 Q 2812.87 28.4873, 2814.05 28.4873 Q 2815.33 28.4873, 2816.11 27.8073 Q 2816.89 27.1073, 2816.89 25.9873 Q 2816.89 24.5473, 2816.07 23.9073 Q 2815.27 23.2473, 2813.53 23.2473 L 2812.51 23.2473 L 2812.51 21.8073 L 2813.41 21.8073 Q 2814.95 21.7873, 2815.77 21.1273 Q 2816.59 20.4473, 2816.59 19.1873 Q 2816.59 18.2673, 2815.91 17.7273 Q 2815.23 17.1673, 2814.07 17.1673 Q 2812.89 17.1673, 2812.15 17.5873 Q 2811.43 18.0073, 2810.87 19.0673 L 2809.49 18.3273 Q 2809.99 17.1473, 2811.19 16.3673 Q 2812.39 15.5673, 2814.07 15.5673 Q 2816.15 15.5673, 2817.37 16.5473 Q 2818.59 17.5273, 2818.59 19.1873 Q 2818.59 20.3273, 2817.97 21.1473 Q 2817.35 21.9673, 2816.17 22.4273 " fill="#000000"/>
<path class="note" d="M 2760.01 394.818 Q 2760.53 393.478, 2761.77 392.738 Q 2763.01 391.978, 2764.73 391.978 Q 2766.87 391.978, 2768.07 393.138 Q 2769.27 394.298, 2769.27 396.358 Q 2769.27 398.458, 2767.71 400.418 Q 2766.17 402.378, 2762.97 404.698 L 2769.51 404.698 L 2769.51 406.298 L 2759.97 406.298 L 2759.97 404.958 Q 2762.61 403.078, 2764.17 401.678 Q 2765.75 400.278, 2766.51 399.018 Q 2767.27 397.758, 2767.27 396.458 Q 2767.27 395.098, 2766.59 394.338 Q 2765.91 393.578, 2764.73 393.578 Q 2763.59 393.578, 2762.83 394.038 Q 2762.07 394.498, 2761.53 395.518 L 2760.01 394.818 " fill="#000000"/>
<path class="note" d="M 2779.31 401.438 L 2781.01 401.438 L 2781.01 403.038 L 2779.31 403.038 L 2779.31 406.298 L 2777.43 406.298 L 2777.43 403.038 L 2770.11 403.038 L 2770.11 401.778 L 2776.31 392.138 L 2779.31 392.138 L 2779.31 401.438 M 2772.43 401.438 L 2777.43 401.438 L 2777.43 393.418 L 2772.43 401.438 " fill="#000000"/>
<path class="note" d="M 2616.03 431.756 Q 2616.55 430.416, 2617.79 429.676 Q 2619.03 428.916, 2620.75 428.916 Q 2622.89 428.916, 2624.09 430.076 Q 2625.29 431.236, 2625.29 433.296 Q 2625.29 435.396, 2623.73 437.356 Q 2622.19 439.316, 2618.99 441.636 L 2625.53 441.636 L 2625.53 443.236 L 2615.99 443.236 L 2615.99 441.896 Q 2618.63 440.016, 2620.19 438.616 Q 2621.77 437.216, 2622.53 435.956 Q 2623.29 434.696, 2623.29 433.396 Q 2623.29 432.036, 2622.61 431.276 Q 2621.93 430.516, 2620.75 430.516 Q 2619.61 430.516, 2618.85 430.976 Q 2618.09 431.436, 2617.55 432.456 L 2616.03 431.756 " fill="#000000"/>
<path class="note" d="M 2631.59 434.376 Q 2632.83 434.376, 2633.85 434.916 Q 2634.87 435.436, 2635.45 436.436 Q 2636.03 437.416, 2636.03 438.756 Q 2636.03 440.216, 2635.31 441.276 Q 2634.61 442.316, 2633.45 442.856 Q 2632.29 443.396, 2630.97 443.396 Q 2629.67 443.396, 2628.47 442.916 Q 2627.27 442.436, 2626.45 441.516 L 2627.65 440.276 Q 2628.31 440.996, 2629.21 441.396 Q 2630.11 441.776, 2631.03 441.776 Q 2632.29 441.776, 2633.15 440.996 Q 2634.03 440.216, 2634.03 438.796 Q 2634.03 437.296, 2633.15 436.596 Q 2632.29 435.876, 2630.91 435.876 Q 2629.67 435.876, 2628.29 436.416 L 2627.19 435.896 L 2627.87 429.076 L 2635.15 429.076 L 2634.95 430.676 L 2629.51 430.676 L 2629.09 434.876 Q 2630.35 434.376, 2631.59 434.376 " fill="#000000"/>
<path d="M 944.249 244.267 L 950.297 244.267 L 950.297 237.899 L 952.985 237.899 L 952.985 244.267 L 959.193 244.267 L 959.193 246.571 L 952.985 246.571 L 952.985 252.971 L 950.297 252.971 L 950.297 246.571 L 944.249 246.571 L 944.249 244.267 " fill="#000000"/>
<path d="M 1803.9,246.571 L 2102.15,246.571" style="fill:none;fill-rule:evenodd;stroke:#000000;stroke-width:2.0px;stroke-linecap:butt;stroke-linejoin:miter;stroke-opacity:1"/>
<path d="M 2102.15,246.571 L 2089.24,239.114" style="fill:none;fill-rule:evenodd;stroke:#000000;stroke-width:2.0px;stroke-linecap:butt;stroke-linejoin:miter;stroke-opacity:1"/>
<path d="M 2102.15,246.571 L 2089.24,254.027" style="fill:none;fill-rule:evenodd;stroke:#000000;stroke-width:2.0px;stroke-linecap:butt;stroke-linejoin:miter;stroke-opacity:1"/>
</svg>