<svg xmlns="http://www.w3.org/2000/svg" xmlns:rdkit="http://www.rdkit.org/xml" xmlns:xlink="http://www.w3.org/1999/xlink" version="1.1" baseProfile="full" xml:space="preserve" width="4000px" height="500px" viewBox="0 0 4000 500">
<!-- END OF HEADER -->
<rect style="opacity:1.0;fill:#FFFFFF;stroke:none" width="4000" height="500" x="0" y="0"> </rect>
<path d="M 787.645,329.944 L 665.364,259.346" style="fill:none;fill-rule:evenodd;stroke:#FFFFAA;stroke-width:30.1px;stroke-linecap:butt;stroke-linejoin:miter;stroke-opacity:1"/>
<path d="M 665.364,259.346 L 543.084,329.944" style="fill:none;fill-rule:evenodd;stroke:#FFFFAA;stroke-width:30.1px;stroke-linecap:butt;stroke-linejoin:miter;stroke-opacity:1"/>
<path d="M 665.364,259.346 L 665.364,118.148" style="fill:none;fill-rule:evenodd;stroke:#FFFFAA;stroke-width:30.1px;stroke-linecap:butt;stroke-linejoin:miter;stroke-opacity:1"/>
<path d="M 1177.13,417.129 L 1274.84,315.202" style="fill:none;fill-rule:evenodd;stroke:#FFCC99;stroke-width:30.1px;stroke-linecap:butt;stroke-linejoin:miter;stroke-opacity:1"/>
<path d="M 1274.84,315.202 L 1235.43,179.618" style="fill:none;fill-rule:evenodd;stroke:#FFCC99;stroke-width:30.1px;stroke-linecap:butt;stroke-linejoin:miter;stroke-opacity:1"/>
<path d="M 1274.84,315.202 L 1411.97,348.86" style="fill:none;fill-rule:evenodd;stroke:#FFCC99;stroke-width:30.1px;stroke-linecap:butt;stroke-linejoin:miter;stroke-opacity:1"/>
<path d="M 1235.43,179.618 L 1333.14,77.6911" style="fill:none;fill-rule:evenodd;stroke:#FFCC99;stroke-width:30.1px;stroke-linecap:butt;stroke-linejoin:miter;stroke-opacity:1"/>
<path d="M 1333.14,77.6911 L 1470.27,111.349" style="fill:none;fill-rule:evenodd;stroke:#FFCC99;stroke-width:30.1px;stroke-linecap:butt;stroke-linejoin:miter;stroke-opacity:1"/>
<path d="M 1470.27,111.349 L 1509.68,246.933" style="fill:none;fill-rule:evenodd;stroke:#FFCC99;stroke-width:30.1px;stroke-linecap:butt;stroke-linejoin:miter;stroke-opacity:1"/>
<path d="M 1509.68,246.933 L 1646.81,280.591" style="fill:none;fill-rule:evenodd;stroke:#FFCC99;stroke-width:30.1px;stroke-linecap:butt;stroke-linejoin:miter;stroke-opacity:1"/>
<path d="M 1509.68,246.933 L 1411.97,348.86" style="fill:none;fill-rule:evenodd;stroke:#FFCC99;stroke-width:30.1px;stroke-linecap:butt;stroke-linejoin:miter;stroke-opacity:1"/>
<path d="M 1646.81,280.591 L 1783.94,314.248" style="fill:none;fill-rule:evenodd;stroke:#FFCC99;stroke-width:30.1px;stroke-linecap:butt;stroke-linejoin:miter;stroke-opacity:1"/>
<path d="M 1646.81,280.591 L 1613.15,417.718" style="fill:none;fill-rule:evenodd;stroke:#FFCC99;stroke-width:30.1px;stroke-linecap:butt;stroke-linejoin:miter;stroke-opacity:1"/>
<path d="M 1646.81,280.591 L 1680.47,143.463" style="fill:none;fill-rule:evenodd;stroke:#FFCC99;stroke-width:30.1px;stroke-linecap:butt;stroke-linejoin:miter;stroke-opacity:1"/>
<path d="M 2583.52,385.174 L 2697.34,301.622" style="fill:none;fill-rule:evenodd;stroke:#FFFFAA;stroke-width:30.1px;stroke-linecap:butt;stroke-linejoin:miter;stroke-opacity:1"/>
<path d="M 2697.34,301.622 L 2681.89,161.272" style="fill:none;fill-rule:evenodd;stroke:#FFFFAA;stroke-width:30.1px;stroke-linecap:butt;stroke-linejoin:miter;stroke-opacity:1"/>
<path d="M 2826.61,358.42 L 2940.43,274.868" style="fill:none;fill-rule:evenodd;stroke:#FFCC99;stroke-width:30.1px;stroke-linecap:butt;stroke-linejoin:miter;stroke-opacity:1"/>
<path d="M 2940.43,274.868 L 2924.99,134.519" style="fill:none;fill-rule:evenodd;stroke:#FFCC99;stroke-width:30.1px;stroke-linecap:butt;stroke-linejoin:miter;stroke-opacity:1"/>
<path d="M 2940.43,274.868 L 3069.7,331.667" style="fill:none;fill-rule:evenodd;stroke:#FFCC99;stroke-width:30.1px;stroke-linecap:butt;stroke-linejoin:miter;stroke-opacity:1"/>
<path d="M 2924.99,134.519 L 3038.81,50.9667" style="fill:none;fill-rule:evenodd;stroke:#FFCC99;stroke-width:30.1px;stroke-linecap:butt;stroke-linejoin:miter;stroke-opacity:1"/>
<path d="M 3038.81,50.9667 L 3168.08,107.765" style="fill:none;fill-rule:evenodd;stroke:#FFCC99;stroke-width:30.1px;stroke-linecap:butt;stroke-linejoin:miter;stroke-opacity:1"/>
<path d="M 3168.08,107.765 L 3183.53,248.115" style="fill:none;fill-rule:evenodd;stroke:#FFCC99;stroke-width:30.1px;stroke-linecap:butt;stroke-linejoin:miter;stroke-opacity:1"/>
<path d="M 3183.53,248.115 L 3312.8,304.913" style="fill:none;fill-rule:evenodd;stroke:#FFCC99;stroke-width:30.1px;stroke-linecap:butt;stroke-linejoin:miter;stroke-opacity:1"/>
<path d="M 3183.53,248.115 L 3069.7,331.667" style="fill:none;fill-rule:evenodd;stroke:#FFCC99;stroke-width:30.1px;stroke-linecap:butt;stroke-linejoin:miter;stroke-opacity:1"/>
<path d="M 3312.8,304.913 L 3442.07,361.711" style="fill:none;fill-rule:evenodd;stroke:#FFCC99;stroke-width:30.1px;stroke-linecap:butt;stroke-linejoin:miter;stroke-opacity:1"/>
<path d="M 3312.8,304.913 L 3256,434.183" style="fill:none;fill-rule:evenodd;stroke:#FFCC99;stroke-width:30.1px;stroke-linecap:butt;stroke-linejoin:miter;stroke-opacity:1"/>
<path d="M 3312.8,304.913 L 3369.59,175.643" style="fill:none;fill-rule:evenodd;stroke:#FFCC99;stroke-width:30.1px;stroke-linecap:butt;stroke-linejoin:miter;stroke-opacity:1"/>
<ellipse cx="665.364" cy="259.346" rx="28.2395" ry="28.2395" style="fill:#FFFFAA;fill-rule:evenodd;stroke:#FFFFAA;stroke-width:1px;stroke-linecap:butt;stroke-linejoin:miter;stroke-opacity:1"/>
<ellipse cx="543.084" cy="329.944" rx="28.2395" ry="28.2395" style="fill:#FFFFAA;fill-rule:evenodd;stroke:#FFFFAA;stroke-width:1px;stroke-linecap:butt;stroke-linejoin:miter;stroke-opacity:1"/>
<ellipse cx="665.364" cy="118.368" rx="28.2395" ry="28.2395" style="fill:#FFFFAA;fill-rule:evenodd;stroke:#FFFFAA;stroke-width:1px;stroke-linecap:butt;stroke-linejoin:miter;stroke-opacity:1"/>
<ellipse cx="1157.44" cy="424.209" rx="43.0436" ry="30.0379" style="fill:#FFCC99;fill-rule:evenodd;stroke:#FFCC99;stroke-width:1px;stroke-linecap:butt;stroke-linejoin:miter;stroke-opacity:1"/>
<ellipse cx="1274.84" cy="315.202" rx="28.2395" ry="28.2395" style="fill:#FFCC99;fill-rule:evenodd;stroke:#FFCC99;stroke-width:1px;stroke-linecap:butt;stroke-linejoin:miter;stroke-opacity:1"/>
<ellipse cx="1235.43" cy="179.618" rx="28.2395" ry="28.2395" style="fill:#FFCC99;fill-rule:evenodd;stroke:#FFCC99;stroke-width:1px;stroke-linecap:butt;stroke-linejoin:miter;stroke-opacity:1"/>
<ellipse cx="1333.14" cy="77.6911" rx="28.2395" ry="28.2395" style="fill:#FFCC99;fill-rule:evenodd;stroke:#FFCC99;stroke-width:1px;stroke-linecap:butt;stroke-linejoin:miter;stroke-opacity:1"/>
<ellipse cx="1470.27" cy="111.349" rx="28.2395" ry="28.2395" style="fill:#FFCC99;fill-rule:evenodd;stroke:#FFCC99;stroke-width:1px;stroke-linecap:butt;stroke-linejoin:miter;stroke-opacity:1"/>
<ellipse cx="1509.68" cy="246.933" rx="28.2395" ry="28.2395" style="fill:#FFCC99;fill-rule:evenodd;stroke:#FFCC99;stroke-width:1px;stroke-linecap:butt;stroke-linejoin:miter;stroke-opacity:1"/>
<ellipse cx="1646.81" cy="280.591" rx="28.2395" ry="28.2395" style="fill:#FFCC99;fill-rule:evenodd;stroke:#FFCC99;stroke-width:1px;stroke-linecap:butt;stroke-linejoin:miter;stroke-opacity:1"/>
<ellipse cx="1783.94" cy="314.248" rx="28.2395" ry="28.2395" style="fill:#FFCC99;fill-rule:evenodd;stroke:#FFCC99;stroke-width:1px;stroke-linecap:butt;stroke-linejoin:miter;stroke-opacity:1"/>
<ellipse cx="1613.15" cy="417.718" rx="28.2395" ry="28.2395" style="fill:#FFCC99;fill-rule:evenodd;stroke:#FFCC99;stroke-width:1px;stroke-linecap:butt;stroke-linejoin:miter;stroke-opacity:1"/>
<ellipse cx="1680.47" cy="143.463" rx="28.2395" ry="28.2395" style="fill:#FFCC99;fill-rule:evenodd;stroke:#FFCC99;stroke-width:1px;stroke-linecap:butt;stroke-linejoin:miter;stroke-opacity:1"/>
<ellipse cx="1411.97" cy="348.86" rx="28.2395" ry="28.2395" style="fill:#FFCC99;fill-rule:evenodd;stroke:#FFCC99;stroke-width:1px;stroke-linecap:butt;stroke-linejoin:miter;stroke-opacity:1"/>
<ellipse cx="2583.52" cy="385.174" rx="28.2395" ry="28.2395" style="fill:#FFFFAA;fill-rule:evenodd;stroke:#FFFFAA;stroke-width:1px;stroke-linecap:butt;stroke-linejoin:miter;stroke-opacity:1"/>
<ellipse cx="2697.34" cy="301.622" rx="28.2395" ry="28.2395" style="fill:#FFFFAA;fill-rule:evenodd;stroke:#FFFFAA;stroke-width:1px;stroke-linecap:butt;stroke-linejoin:miter;stroke-opacity:1"/>
<ellipse cx="2681.89" cy="161.492" rx="28.2395" ry="28.2395" style="fill:#FFFFAA;fill-rule:evenodd;stroke:#FFFFAA;stroke-width:1px;stroke-linecap:butt;stroke-linejoin:miter;stroke-opacity:1"/>
<ellipse cx="2826.61" cy="373.996" rx="28.2395" ry="42.0531" style="fill:#FFCC99;fill-rule:evenodd;stroke:#FFCC99;stroke-width:1px;stroke-linecap:butt;stroke-linejoin:miter;stroke-opacity:1"/>
<ellipse cx="2940.43" cy="274.868" rx="28.2395" ry="28.2395" style="fill:#FFCC99;fill-rule:evenodd;stroke:#FFCC99;stroke-width:1px;stroke-linecap:butt;stroke-linejoin:miter;stroke-opacity:1"/>
<ellipse cx="2924.99" cy="134.519" rx="28.2395" ry="28.2395" style="fill:#FFCC99;fill-rule:evenodd;stroke:#FFCC99;stroke-width:1px;stroke-linecap:butt;stroke-linejoin:miter;stroke-opacity:1"/>
<ellipse cx="3038.81" cy="50.9667" rx="28.2395" ry="28.2395" style="fill:#FFCC99;fill-rule:evenodd;stroke:#FFCC99;stroke-width:1px;stroke-linecap:butt;stroke-linejoin:miter;stroke-opacity:1"/>
<ellipse cx="3168.08" cy="107.765" rx="28.2395" ry="28.2395" style="fill:#FFCC99;fill-rule:evenodd;stroke:#FFCC99;stroke-width:1px;stroke-linecap:butt;stroke-linejoin:miter;stroke-opacity:1"/>
<ellipse cx="3183.53" cy="248.115" rx="28.2395" ry="28.2395" style="fill:#FFCC99;fill-rule:evenodd;stroke:#FFCC99;stroke-width:1px;stroke-linecap:butt;stroke-linejoin:miter;stroke-opacity:1"/>
<ellipse cx="3312.8" cy="304.913" rx="28.2395" ry="28.2395" style="fill:#FFCC99;fill-rule:evenodd;stroke:#FFCC99;stroke-width:1px;stroke-linecap:butt;stroke-linejoin:miter;stroke-opacity:1"/>
<ellipse cx="3442.07" cy="361.711" rx="28.2395" ry="28.2395" style="fill:#FFCC99;fill-rule:evenodd;stroke:#FFCC99;stroke-width:1px;stroke-linecap:butt;stroke-linejoin:miter;stroke-opacity:1"/>
<ellipse cx="3256" cy="434.183" rx="28.2395" ry="28.2395" style="fill:#FFCC99;fill-rule:evenodd;stroke:#FFCC99;stroke-width:1px;stroke-linecap:butt;stroke-linejoin:miter;stroke-opacity:1"/>
<ellipse cx="3369.59" cy="175.643" rx="28.2395" ry="28.2395" style="fill:#FFCC99;fill-rule:evenodd;stroke:#FFCC99;stroke-width:1px;stroke-linecap:butt;stroke-linejoin:miter;stroke-opacity:1"/>
<ellipse cx="3069.7" cy="331.667" rx="28.2395" ry="28.2395" style="fill:#FFCC99;fill-rule:evenodd;stroke:#FFCC99;stroke-width:1px;stroke-linecap:butt;stroke-linejoin:miter;stroke-opacity:1"/>
<path class="bond-0" d="M 771.115,320.401 L 718.239,289.873" style="fill:none;fill-rule:evenodd;stroke:#FF0000;stroke-width:2.0px;stroke-linecap:butt;stroke-linejoin:miter;stroke-opacity:1"/>
<path class="bond-0" d="M 718.239,289.873 L 665.364,259.346" style="fill:none;fill-rule:evenodd;stroke:#000000;stroke-width:2.0px;stroke-linecap:butt;stroke-linejoin:miter;stroke-opacity:1"/>
<path class="bond-1" d="M 665.364,259.346 L 543.084,329.944" style="fill:none;fill-rule:evenodd;stroke:#000000;stroke-width:2.0px;stroke-linecap:butt;stroke-linejoin:miter;stroke-opacity:1"/>
<path class="bond-2" d="M 679.484,259.346 L 679.484,197.892" style="fill:none;fill-rule:evenodd;stroke:#000000;stroke-width:2.0px;stroke-linecap:butt;stroke-linejoin:miter;stroke-opacity:1"/>
<path class="bond-2" d="M 679.484,197.892 L 679.484,136.438" style="fill:none;fill-rule:evenodd;stroke:#FF0000;stroke-width:2.0px;stroke-linecap:butt;stroke-linejoin:miter;stroke-opacity:1"/>
<path class="bond-2" d="M 651.244,259.346 L 651.244,197.892" style="fill:none;fill-rule:evenodd;stroke:#000000;stroke-width:2.0px;stroke-linecap:butt;stroke-linejoin:miter;stroke-opacity:1"/>
<path class="bond-2" d="M 651.244,197.892 L 651.244,136.438" style="fill:none;fill-rule:evenodd;stroke:#FF0000;stroke-width:2.0px;stroke-linecap:butt;stroke-linejoin:miter;stroke-opacity:1"/>
<path class="bond-3" d="M 1191.4,402.244 L 1233.12,358.723" style="fill:none;fill-rule:evenodd;stroke:#0000FF;stroke-width:2.0px;stroke-linecap:butt;stroke-linejoin:miter;stroke-opacity:1"/>
<path class="bond-3" d="M 1233.12,358.723 L 1274.84,315.202" style="fill:none;fill-rule:evenodd;stroke:#000000;stroke-width:2.0px;stroke-linecap:butt;stroke-linejoin:miter;stroke-opacity:1"/>
<path class="bond-4" d="M 1274.84,315.202 L 1235.43,179.618" style="fill:none;fill-rule:evenodd;stroke:#000000;stroke-width:2.0px;stroke-linecap:butt;stroke-linejoin:miter;stroke-opacity:1"/>
<path class="bond-4" d="M 1296.05,286.982 L 1268.46,192.073" style="fill:none;fill-rule:evenodd;stroke:#000000;stroke-width:2.0px;stroke-linecap:butt;stroke-linejoin:miter;stroke-opacity:1;stroke-dasharray:6,6"/>
<path class="bond-13" d="M 1274.84,315.202 L 1411.97,348.86" style="fill:none;fill-rule:evenodd;stroke:#000000;stroke-width:2.0px;stroke-linecap:butt;stroke-linejoin:miter;stroke-opacity:1"/>
<path class="bond-13" d="M 1302.14,292.826 L 1398.13,316.386" style="fill:none;fill-rule:evenodd;stroke:#000000;stroke-width:2.0px;stroke-linecap:butt;stroke-linejoin:miter;stroke-opacity:1;stroke-dasharray:6,6"/>
<path class="bond-5" d="M 1235.43,179.618 L 1333.14,77.6911" style="fill:none;fill-rule:evenodd;stroke:#000000;stroke-width:2.0px;stroke-linecap:butt;stroke-linejoin:miter;stroke-opacity:1"/>
<path class="bond-5" d="M 1270.47,183.871 L 1338.87,112.523" style="fill:none;fill-rule:evenodd;stroke:#000000;stroke-width:2.0px;stroke-linecap:butt;stroke-linejoin:miter;stroke-opacity:1;stroke-dasharray:6,6"/>
<path class="bond-6" d="M 1333.14,77.6911 L 1470.27,111.349" style="fill:none;fill-rule:evenodd;stroke:#000000;stroke-width:2.0px;stroke-linecap:butt;stroke-linejoin:miter;stroke-opacity:1"/>
<path class="bond-6" d="M 1346.98,110.165 L 1442.97,133.725" style="fill:none;fill-rule:evenodd;stroke:#000000;stroke-width:2.0px;stroke-linecap:butt;stroke-linejoin:miter;stroke-opacity:1;stroke-dasharray:6,6"/>
<path class="bond-7" d="M 1470.27,111.349 L 1509.68,246.933" style="fill:none;fill-rule:evenodd;stroke:#000000;stroke-width:2.0px;stroke-linecap:butt;stroke-linejoin:miter;stroke-opacity:1"/>
<path class="bond-7" d="M 1449.06,139.569 L 1476.65,234.478" style="fill:none;fill-rule:evenodd;stroke:#000000;stroke-width:2.0px;stroke-linecap:butt;stroke-linejoin:miter;stroke-opacity:1;stroke-dasharray:6,6"/>
<path class="bond-8" d="M 1509.68,246.933 L 1646.81,280.591" style="fill:none;fill-rule:evenodd;stroke:#000000;stroke-width:2.0px;stroke-linecap:butt;stroke-linejoin:miter;stroke-opacity:1"/>
<path class="bond-12" d="M 1509.68,246.933 L 1411.97,348.86" style="fill:none;fill-rule:evenodd;stroke:#000000;stroke-width:2.0px;stroke-linecap:butt;stroke-linejoin:miter;stroke-opacity:1"/>
<path class="bond-12" d="M 1474.64,242.68 L 1406.24,314.029" style="fill:none;fill-rule:evenodd;stroke:#000000;stroke-width:2.0px;stroke-linecap:butt;stroke-linejoin:miter;stroke-opacity:1;stroke-dasharray:6,6"/>
<path class="bond-9" d="M 1646.81,280.591 L 1709.4,295.953" style="fill:none;fill-rule:evenodd;stroke:#000000;stroke-width:2.0px;stroke-linecap:butt;stroke-linejoin:miter;stroke-opacity:1"/>
<path class="bond-9" d="M 1709.4,295.953 L 1771.99,311.315" style="fill:none;fill-rule:evenodd;stroke:#33CCCC;stroke-width:2.0px;stroke-linecap:butt;stroke-linejoin:miter;stroke-opacity:1"/>
<path class="bond-10" d="M 1646.81,280.591 L 1632.15,340.309" style="fill:none;fill-rule:evenodd;stroke:#000000;stroke-width:2.0px;stroke-linecap:butt;stroke-linejoin:miter;stroke-opacity:1"/>
<path class="bond-10" d="M 1632.15,340.309 L 1617.49,400.028" style="fill:none;fill-rule:evenodd;stroke:#33CCCC;stroke-width:2.0px;stroke-linecap:butt;stroke-linejoin:miter;stroke-opacity:1"/>
<path class="bond-11" d="M 1646.81,280.591 L 1661.47,220.872" style="fill:none;fill-rule:evenodd;stroke:#000000;stroke-width:2.0px;stroke-linecap:butt;stroke-linejoin:miter;stroke-opacity:1"/>
<path class="bond-11" d="M 1661.47,220.872 L 1676.13,161.153" style="fill:none;fill-rule:evenodd;stroke:#33CCCC;stroke-width:2.0px;stroke-linecap:butt;stroke-linejoin:miter;stroke-opacity:1"/>
<path class="bond-14" d="M 2583.52,385.174 L 2697.34,301.622" style="fill:none;fill-rule:evenodd;stroke:#000000;stroke-width:2.0px;stroke-linecap:butt;stroke-linejoin:miter;stroke-opacity:1"/>
<path class="bond-15" d="M 2711.37,300.077 L 2704.66,239.047" style="fill:none;fill-rule:evenodd;stroke:#000000;stroke-width:2.0px;stroke-linecap:butt;stroke-linejoin:miter;stroke-opacity:1"/>
<path class="bond-15" d="M 2704.66,239.047 L 2697.94,178.017" style="fill:none;fill-rule:evenodd;stroke:#FF0000;stroke-width:2.0px;stroke-linecap:butt;stroke-linejoin:miter;stroke-opacity:1"/>
<path class="bond-15" d="M 2683.3,303.167 L 2676.59,242.137" style="fill:none;fill-rule:evenodd;stroke:#000000;stroke-width:2.0px;stroke-linecap:butt;stroke-linejoin:miter;stroke-opacity:1"/>
<path class="bond-15" d="M 2676.59,242.137 L 2669.87,181.107" style="fill:none;fill-rule:evenodd;stroke:#FF0000;stroke-width:2.0px;stroke-linecap:butt;stroke-linejoin:miter;stroke-opacity:1"/>
<path class="bond-16" d="M 2697.34,301.622 L 2754.84,326.886" style="fill:none;fill-rule:evenodd;stroke:#000000;stroke-width:2.0px;stroke-linecap:butt;stroke-linejoin:miter;stroke-opacity:1"/>
<path class="bond-16" d="M 2754.84,326.886 L 2812.34,352.15" style="fill:none;fill-rule:evenodd;stroke:#0000FF;stroke-width:2.0px;stroke-linecap:butt;stroke-linejoin:miter;stroke-opacity:1"/>
<path class="bond-17" d="M 2840.88,347.945 L 2890.66,311.407" style="fill:none;fill-rule:evenodd;stroke:#0000FF;stroke-width:2.0px;stroke-linecap:butt;stroke-linejoin:miter;stroke-opacity:1"/>
<path class="bond-17" d="M 2890.66,311.407 L 2940.43,274.868" style="fill:none;fill-rule:evenodd;stroke:#000000;stroke-width:2.0px;stroke-linecap:butt;stroke-linejoin:miter;stroke-opacity:1"/>
<path class="bond-18" d="M 2940.43,274.868 L 2924.99,134.519" style="fill:none;fill-rule:evenodd;stroke:#000000;stroke-width:2.0px;stroke-linecap:butt;stroke-linejoin:miter;stroke-opacity:1"/>
<path class="bond-18" d="M 2966.19,250.727 L 2955.37,152.482" style="fill:none;fill-rule:evenodd;stroke:#000000;stroke-width:2.0px;stroke-linecap:butt;stroke-linejoin:miter;stroke-opacity:1;stroke-dasharray:6,6"/>
<path class="bond-27" d="M 2940.43,274.868 L 3069.7,331.667" style="fill:none;fill-rule:evenodd;stroke:#000000;stroke-width:2.0px;stroke-linecap:butt;stroke-linejoin:miter;stroke-opacity:1"/>
<path class="bond-27" d="M 2971.18,257.534 L 3061.67,297.293" style="fill:none;fill-rule:evenodd;stroke:#000000;stroke-width:2.0px;stroke-linecap:butt;stroke-linejoin:miter;stroke-opacity:1;stroke-dasharray:6,6"/>
<path class="bond-19" d="M 2924.99,134.519 L 3038.81,50.9667" style="fill:none;fill-rule:evenodd;stroke:#000000;stroke-width:2.0px;stroke-linecap:butt;stroke-linejoin:miter;stroke-opacity:1"/>
<path class="bond-19" d="M 2958.77,144.75 L 3038.45,86.2642" style="fill:none;fill-rule:evenodd;stroke:#000000;stroke-width:2.0px;stroke-linecap:butt;stroke-linejoin:miter;stroke-opacity:1;stroke-dasharray:6,6"/>
<path class="bond-20" d="M 3038.81,50.9667 L 3168.08,107.765" style="fill:none;fill-rule:evenodd;stroke:#000000;stroke-width:2.0px;stroke-linecap:butt;stroke-linejoin:miter;stroke-opacity:1"/>
<path class="bond-20" d="M 3046.84,85.3404 L 3137.33,125.099" style="fill:none;fill-rule:evenodd;stroke:#000000;stroke-width:2.0px;stroke-linecap:butt;stroke-linejoin:miter;stroke-opacity:1;stroke-dasharray:6,6"/>
<path class="bond-21" d="M 3168.08,107.765 L 3183.53,248.115" style="fill:none;fill-rule:evenodd;stroke:#000000;stroke-width:2.0px;stroke-linecap:butt;stroke-linejoin:miter;stroke-opacity:1"/>
<path class="bond-21" d="M 3142.33,131.907 L 3153.14,230.152" style="fill:none;fill-rule:evenodd;stroke:#000000;stroke-width:2.0px;stroke-linecap:butt;stroke-linejoin:miter;stroke-opacity:1;stroke-dasharray:6,6"/>
<path class="bond-22" d="M 3183.53,248.115 L 3312.8,304.913" style="fill:none;fill-rule:evenodd;stroke:#000000;stroke-width:2.0px;stroke-linecap:butt;stroke-linejoin:miter;stroke-opacity:1"/>
<path class="bond-26" d="M 3183.53,248.115 L 3069.7,331.667" style="fill:none;fill-rule:evenodd;stroke:#000000;stroke-width:2.0px;stroke-linecap:butt;stroke-linejoin:miter;stroke-opacity:1"/>
<path class="bond-26" d="M 3149.74,237.883 L 3070.07,296.369" style="fill:none;fill-rule:evenodd;stroke:#000000;stroke-width:2.0px;stroke-linecap:butt;stroke-linejoin:miter;stroke-opacity:1;stroke-dasharray:6,6"/>
<path class="bond-23" d="M 3312.8,304.913 L 3371.46,330.687" style="fill:none;fill-rule:evenodd;stroke:#000000;stroke-width:2.0px;stroke-linecap:butt;stroke-linejoin:miter;stroke-opacity:1"/>
<path class="bond-23" d="M 3371.46,330.687 L 3430.12,356.461" style="fill:none;fill-rule:evenodd;stroke:#33CCCC;stroke-width:2.0px;stroke-linecap:butt;stroke-linejoin:miter;stroke-opacity:1"/>
<path class="bond-24" d="M 3312.8,304.913 L 3288.28,360.703" style="fill:none;fill-rule:evenodd;stroke:#000000;stroke-width:2.0px;stroke-linecap:butt;stroke-linejoin:miter;stroke-opacity:1"/>
<path class="bond-24" d="M 3288.28,360.703 L 3263.77,416.493" style="fill:none;fill-rule:evenodd;stroke:#33CCCC;stroke-width:2.0px;stroke-linecap:butt;stroke-linejoin:miter;stroke-opacity:1"/>
<path class="bond-25" d="M 3312.8,304.913 L 3337.31,249.123" style="fill:none;fill-rule:evenodd;stroke:#000000;stroke-width:2.0px;stroke-linecap:butt;stroke-linejoin:miter;stroke-opacity:1"/>
<path class="bond-25" d="M 3337.31,249.123 L 3361.82,193.333" style="fill:none;fill-rule:evenodd;stroke:#33CCCC;stroke-width:2.0px;stroke-linecap:butt;stroke-linejoin:miter;stroke-opacity:1"/>
<path class="bond-28" d="M 2060.19,97.1689 L 2115.22,128.938" style="fill:none;fill-rule:evenodd;stroke:#000000;stroke-width:2.0px;stroke-linecap:butt;stroke-linejoin:miter;stroke-opacity:1"/>
<path class="bond-29" d="M 2106.75,128.938 L 2106.75,152.753" style="fill:none;fill-rule:evenodd;stroke:#000000;stroke-width:2.0px;stroke-linecap:butt;stroke-linejoin:miter;stroke-opacity:1"/>
<path class="bond-29" d="M 2106.75,152.753 L 2106.75,176.569" style="fill:none;fill-rule:evenodd;stroke:#FF0000;stroke-width:2.0px;stroke-linecap:butt;stroke-linejoin:miter;stroke-opacity:1"/>
<path class="bond-29" d="M 2123.69,128.938 L 2123.69,152.753" style="fill:none;fill-rule:evenodd;stroke:#000000;stroke-width:2.0px;stroke-linecap:butt;stroke-linejoin:miter;stroke-opacity:1"/>
<path class="bond-29" d="M 2123.69,152.753 L 2123.69,176.569" style="fill:none;fill-rule:evenodd;stroke:#FF0000;stroke-width:2.0px;stroke-linecap:butt;stroke-linejoin:miter;stroke-opacity:1"/>
<path class="bond-30" d="M 2115.22,128.938 L 2135.44,117.265" style="fill:none;fill-rule:evenodd;stroke:#000000;stroke-width:2.0px;stroke-linecap:butt;stroke-linejoin:miter;stroke-opacity:1"/>
<path class="bond-30" d="M 2135.44,117.265 L 2155.66,105.592" style="fill:none;fill-rule:evenodd;stroke:#FF0000;stroke-width:2.0px;stroke-linecap:butt;stroke-linejoin:miter;stroke-opacity:1"/>
<path class="bond-31" d="M 2184.84,105.592 L 2205.05,117.265" style="fill:none;fill-rule:evenodd;stroke:#FF0000;stroke-width:2.0px;stroke-linecap:butt;stroke-linejoin:miter;stroke-opacity:1"/>
<path class="bond-31" d="M 2205.05,117.265 L 2225.27,128.938" style="fill:none;fill-rule:evenodd;stroke:#000000;stroke-width:2.0px;stroke-linecap:butt;stroke-linejoin:miter;stroke-opacity:1"/>
<path class="bond-32" d="M 2225.27,128.938 L 2280.3,97.1689" style="fill:none;fill-rule:evenodd;stroke:#000000;stroke-width:2.0px;stroke-linecap:butt;stroke-linejoin:miter;stroke-opacity:1"/>
<path class="bond-33" d="M 2216.8,128.938 L 2216.8,152.753" style="fill:none;fill-rule:evenodd;stroke:#000000;stroke-width:2.0px;stroke-linecap:butt;stroke-linejoin:miter;stroke-opacity:1"/>
<path class="bond-33" d="M 2216.8,152.753 L 2216.8,176.569" style="fill:none;fill-rule:evenodd;stroke:#FF0000;stroke-width:2.0px;stroke-linecap:butt;stroke-linejoin:miter;stroke-opacity:1"/>
<path class="bond-33" d="M 2233.75,128.938 L 2233.75,152.753" style="fill:none;fill-rule:evenodd;stroke:#000000;stroke-width:2.0px;stroke-linecap:butt;stroke-linejoin:miter;stroke-opacity:1"/>
<path class="bond-33" d="M 2233.75,152.753 L 2233.75,176.569" style="fill:none;fill-rule:evenodd;stroke:#FF0000;stroke-width:2.0px;stroke-linecap:butt;stroke-linejoin:miter;stroke-opacity:1"/>
<path class="atom-0" d="M 774.645 330.024 Q 774.645 323.224, 778.005 319.424 Q 781.365 315.624, 787.645 315.624 Q 793.925 315.624, 797.285 319.424 Q 800.645 323.224, 800.645 330.024 Q 800.645 336.904, 797.245 340.824 Q 793.845 344.704, 787.645 344.704 Q 781.405 344.704, 778.005 340.824 Q 774.645 336.944, 774.645 330.024 M 787.645 341.504 Q 791.965 341.504, 794.285 338.624 Q 796.645 335.704, 796.645 330.024 Q 796.645 324.464, 794.285 321.664 Q 791.965 318.824, 787.645 318.824 Q 783.325 318.824, 780.965 321.624 Q 778.645 324.424, 778.645 330.024 Q 778.645 335.744, 780.965 338.624 Q 783.325 341.504, 787.645 341.504 " fill="#FF0000"/>
<path class="atom-0" d="M 804.045 315.944 L 807.885 315.944 L 807.885 327.984 L 822.365 327.984 L 822.365 315.944 L 826.205 315.944 L 826.205 344.264 L 822.365 344.264 L 822.365 331.184 L 807.885 331.184 L 807.885 344.264 L 804.045 344.264 L 804.045 315.944 " fill="#FF0000"/>
<path class="atom-3" d="M 652.364 118.228 Q 652.364 111.428, 655.724 107.628 Q 659.084 103.828, 665.364 103.828 Q 671.644 103.828, 675.004 107.628 Q 678.364 111.428, 678.364 118.228 Q 678.364 125.108, 674.964 129.028 Q 671.564 132.908, 665.364 132.908 Q 659.124 132.908, 655.724 129.028 Q 652.364 125.148, 652.364 118.228 M 665.364 129.708 Q 669.684 129.708, 672.004 126.828 Q 674.364 123.908, 674.364 118.228 Q 674.364 112.668, 672.004 109.868 Q 669.684 107.028, 665.364 107.028 Q 661.044 107.028, 658.684 109.828 Q 656.364 112.628, 656.364 118.228 Q 656.364 123.948, 658.684 126.828 Q 661.044 129.708, 665.364 129.708 " fill="#FF0000"/>
<path class="atom-4" d="M 1127 402.969 L 1130.84 402.969 L 1130.84 415.009 L 1145.32 415.009 L 1145.32 402.969 L 1149.16 402.969 L 1149.16 431.289 L 1145.32 431.289 L 1145.32 418.209 L 1130.84 418.209 L 1130.84 431.289 L 1127 431.289 L 1127 402.969 " fill="#0000FF"/>
<path class="atom-4" d="M 1150.53 430.296 Q 1151.22 428.527, 1152.86 427.55 Q 1154.49 426.547, 1156.76 426.547 Q 1159.59 426.547, 1161.17 428.078 Q 1162.76 429.609, 1162.76 432.328 Q 1162.76 435.1, 1160.7 437.688 Q 1158.66 440.275, 1154.44 443.337 L 1163.07 443.337 L 1163.07 445.449 L 1150.48 445.449 L 1150.48 443.68 Q 1153.96 441.199, 1156.02 439.351 Q 1158.11 437.503, 1159.11 435.84 Q 1160.12 434.176, 1160.12 432.46 Q 1160.12 430.665, 1159.22 429.662 Q 1158.32 428.659, 1156.76 428.659 Q 1155.26 428.659, 1154.25 429.266 Q 1153.25 429.873, 1152.54 431.22 L 1150.53 430.296 " fill="#0000FF"/>
<path class="atom-4" d="M 1170.87 402.969 L 1180.15 417.969 Q 1181.07 419.449, 1182.55 422.129 Q 1184.03 424.809, 1184.11 424.969 L 1184.11 402.969 L 1187.87 402.969 L 1187.87 431.289 L 1183.99 431.289 L 1174.03 414.889 Q 1172.87 412.969, 1171.63 410.769 Q 1170.43 408.569, 1170.07 407.889 L 1170.07 431.289 L 1166.39 431.289 L 1166.39 402.969 L 1170.87 402.969 " fill="#0000FF"/>
<path class="atom-11" d="M 1775.52 300.088 L 1792.36 300.088 L 1792.36 303.328 L 1779.32 303.328 L 1779.32 311.928 L 1790.92 311.928 L 1790.92 315.208 L 1779.32 315.208 L 1779.32 328.408 L 1775.52 328.408 L 1775.52 300.088 " fill="#33CCCC"/>
<path class="atom-12" d="M 1604.73 403.558 L 1621.57 403.558 L 1621.57 406.798 L 1608.53 406.798 L 1608.53 415.398 L 1620.13 415.398 L 1620.13 418.678 L 1608.53 418.678 L 1608.53 431.878 L 1604.73 431.878 L 1604.73 403.558 " fill="#33CCCC"/>
<path class="atom-13" d="M 1672.05 129.303 L 1688.89 129.303 L 1688.89 132.543 L 1675.85 132.543 L 1675.85 141.143 L 1687.45 141.143 L 1687.45 144.423 L 1675.85 144.423 L 1675.85 157.623 L 1672.05 157.623 L 1672.05 129.303 " fill="#33CCCC"/>
<path class="atom-17" d="M 2668.89 161.352 Q 2668.89 154.552, 2672.25 150.752 Q 2675.61 146.952, 2681.89 146.952 Q 2688.17 146.952, 2691.53 150.752 Q 2694.89 154.552, 2694.89 161.352 Q 2694.89 168.232, 2691.49 172.152 Q 2688.09 176.032, 2681.89 176.032 Q 2675.65 176.032, 2672.25 172.152 Q 2668.89 168.272, 2668.89 161.352 M 2681.89 172.832 Q 2686.21 172.832, 2688.53 169.952 Q 2690.89 167.032, 2690.89 161.352 Q 2690.89 155.792, 2688.53 152.992 Q 2686.21 150.152, 2681.89 150.152 Q 2677.57 150.152, 2675.21 152.952 Q 2672.89 155.752, 2672.89 161.352 Q 2672.89 167.072, 2675.21 169.952 Q 2677.57 172.832, 2681.89 172.832 " fill="#FF0000"/>
<path class="atom-18" d="M 2820.35 344.26 L 2829.63 359.26 Q 2830.55 360.74, 2832.03 363.42 Q 2833.51 366.1, 2833.59 366.26 L 2833.59 344.26 L 2837.35 344.26 L 2837.35 372.58 L 2833.47 372.58 L 2823.51 356.18 Q 2822.35 354.26, 2821.11 352.06 Q 2819.91 349.86, 2819.55 349.18 L 2819.55 372.58 L 2815.87 372.58 L 2815.87 344.26 L 2820.35 344.26 " fill="#0000FF"/>
<path class="atom-18" d="M 2815.53 375.412 L 2819.37 375.412 L 2819.37 387.452 L 2833.85 387.452 L 2833.85 375.412 L 2837.69 375.412 L 2837.69 403.732 L 2833.85 403.732 L 2833.85 390.652 L 2819.37 390.652 L 2819.37 403.732 L 2815.53 403.732 L 2815.53 375.412 " fill="#0000FF"/>
<path class="atom-25" d="M 3433.65 347.551 L 3450.49 347.551 L 3450.49 350.791 L 3437.45 350.791 L 3437.45 359.391 L 3449.05 359.391 L 3449.05 362.671 L 3437.45 362.671 L 3437.45 375.871 L 3433.65 375.871 L 3433.65 347.551 " fill="#33CCCC"/>
<path class="atom-26" d="M 3247.58 420.023 L 3264.42 420.023 L 3264.42 423.263 L 3251.38 423.263 L 3251.38 431.863 L 3262.98 431.863 L 3262.98 435.143 L 3251.38 435.143 L 3251.38 448.343 L 3247.58 448.343 L 3247.58 420.023 " fill="#33CCCC"/>
<path class="atom-27" d="M 3361.17 161.483 L 3378.01 161.483 L 3378.01 164.723 L 3364.97 164.723 L 3364.97 173.323 L 3376.57 173.323 L 3376.57 176.603 L 3364.97 176.603 L 3364.97 189.803 L 3361.17 189.803 L 3361.17 161.483 " fill="#33CCCC"/>
<path class="atom-31" d="M 2102.22 192.557 Q 2102.22 185.757, 2105.58 181.957 Q 2108.94 178.157, 2115.22 178.157 Q 2121.5 178.157, 2124.86 181.957 Q 2128.22 185.757, 2128.22 192.557 Q 2128.22 199.437, 2124.82 203.357 Q 2121.42 207.237, 2115.22 207.237 Q 2108.98 207.237, 2105.58 203.357 Q 2102.22 199.477, 2102.22 192.557 M 2115.22 204.037 Q 2119.54 204.037, 2121.86 201.157 Q 2124.22 198.237, 2124.22 192.557 Q 2124.22 186.997, 2121.86 184.197 Q 2119.54 181.357, 2115.22 181.357 Q 2110.9 181.357, 2108.54 184.157 Q 2106.22 186.957, 2106.22 192.557 Q 2106.22 198.277, 2108.54 201.157 Q 2110.9 204.037, 2115.22 204.037 " fill="#FF0000"/>
<path class="atom-32" d="M 2157.25 97.2489 Q 2157.25 90.4489, 2160.61 86.6489 Q 2163.97 82.8489, 2170.25 82.8489 Q 2176.53 82.8489, 2179.89 86.6489 Q 2183.25 90.4489, 2183.25 97.2489 Q 2183.25 104.129, 2179.85 108.049 Q 2176.45 111.929, 2170.25 111.929 Q 2164.01 111.929, 2160.61 108.049 Q 2157.25 104.169, 2157.25 97.2489 M 2170.25 108.729 Q 2174.57 108.729, 2176.89 105.849 Q 2179.25 102.929, 2179.25 97.2489 Q 2179.25 91.6889, 2176.89 88.8889 Q 2174.57 86.0489, 2170.25 86.0489 Q 2165.93 86.0489, 2163.57 88.8489 Q 2161.25 91.6489, 2161.25 97.2489 Q 2161.25 102.969, 2163.57 105.849 Q 2165.93 108.729, 2170.25 108.729 " fill="#FF0000"/>
<path class="atom-35" d="M 2212.27 192.557 Q 2212.27 185.757, 2215.63 181.957 Q 2218.99 178.157, 2225.27 178.157 Q 2231.55 178.157, 2234.91 181.957 Q 2238.27 185.757, 2238.27 192.557 Q 2238.27 199.437, 2234.87 203.357 Q 2231.47 207.237, 2225.27 207.237 Q 2219.03 207.237, 2215.63 203.357 Q 2212.27 199.477, 2212.27 192.557 M 2225.27 204.037 Q 2229.59 204.037, 2231.91 201.157 Q 2234.27 198.237, 2234.27 192.557 Q 2234.27 186.997, 2231.91 184.197 Q 2229.59 181.357, 2225.27 181.357 Q 2220.95 181.357, 2218.59 184.157 Q 2216.27 186.957, 2216.27 192.557 Q 2216.27 198.277, 2218.59 201.157 Q 2220.95 204.037, 2225.27 204.037 " fill="#FF0000"/>
<path class="note" d="M 660.634 278.559 Q 661.154 277.219, 662.394 276.479 Q 663.634 275.719, 665.354 275.719 Q 667.494 275.719, 668.694 276.879 Q 669.894 278.039, 669.894 280.099 Q 669.894 282.199, 668.334 284.159 Q 666.794 286.119, 663.594 288.439 L 670.134 288.439 L 670.134 290.039 L 660.594 290.039 L 660.594 288.699 Q 663.234 286.819, 664.794 285.419 Q 666.374 284.019, 667.134 282.759 Q 667.894 281.499, 667.894 280.199 Q 667.894 278.839, 667.214 278.079 Q 666.534 277.319, 665.354 277.319 Q 664.214 277.319, 663.454 277.779 Q 662.694 278.239, 662.154 279.259 L 660.634 278.559 " fill="#000000"/>
<path class="note" d="M 551.36 355.844 L 554.46 355.844 L 554.46 345.264 L 551.04 346.324 L 550.58 345.144 L 554.92 343.204 L 556.34 343.444 L 556.34 355.844 L 559.12 355.844 L 559.12 357.444 L 551.36 357.444 L 551.36 355.844 " fill="#000000"/>
<path class="note" d="M 667.404 70.7825 Q 668.784 71.1825, 669.444 72.0825 Q 670.124 72.9625, 670.124 74.3625 Q 670.124 75.5625, 669.524 76.5025 Q 668.924 77.4225, 667.824 77.9425 Q 666.724 78.4425, 665.284 78.4425 Q 663.764 78.4425, 662.624 77.9225 Q 661.504 77.3825, 660.604 76.3025 L 661.744 75.1425 Q 662.624 76.1025, 663.364 76.4825 Q 664.104 76.8425, 665.284 76.8425 Q 666.564 76.8425, 667.344 76.1625 Q 668.124 75.4625, 668.124 74.3425 Q 668.124 72.9025, 667.304 72.2625 Q 666.504 71.6025, 664.764 71.6025 L 663.744 71.6025 L 663.744 70.1625 L 664.644 70.1625 Q 666.184 70.1425, 667.004 69.4825 Q 667.824 68.8025, 667.824 67.5425 Q 667.824 66.6225, 667.144 66.0825 Q 666.464 65.5225, 665.304 65.5225 Q 664.124 65.5225, 663.384 65.9425 Q 662.664 66.3625, 662.104 67.4225 L 660.724 66.6825 Q 661.224 65.5025, 662.424 64.7225 Q 663.624 63.9225, 665.304 63.9225 Q 667.384 63.9225, 668.604 64.9025 Q 669.824 65.8825, 669.824 67.5425 Q 669.824 68.6825, 669.204 69.5025 Q 668.584 70.3225, 667.404 70.7825 " fill="#000000"/>
<path class="note" d="M 1169.66 465.058 L 1171.36 465.058 L 1171.36 466.658 L 1169.66 466.658 L 1169.66 469.918 L 1167.78 469.918 L 1167.78 466.658 L 1160.46 466.658 L 1160.46 465.398 L 1166.66 455.758 L 1169.66 455.758 L 1169.66 465.058 M 1162.78 465.058 L 1167.78 465.058 L 1167.78 457.038 L 1162.78 465.058 " fill="#000000"/>
<path class="note" d="M 1252.34 307.813 Q 1253.58 307.813, 1254.6 308.353 Q 1255.62 308.873, 1256.2 309.873 Q 1256.78 310.853, 1256.78 312.193 Q 1256.78 313.653, 1256.06 314.713 Q 1255.36 315.753, 1254.2 316.293 Q 1253.04 316.833, 1251.72 316.833 Q 1250.42 316.833, 1249.22 316.353 Q 1248.02 315.873, 1247.2 314.953 L 1248.4 313.713 Q 1249.06 314.433, 1249.96 314.833 Q 1250.86 315.213, 1251.78 315.213 Q 1253.04 315.213, 1253.9 314.433 Q 1254.78 313.653, 1254.78 312.233 Q 1254.78 310.733, 1253.9 310.033 Q 1253.04 309.313, 1251.66 309.313 Q 1250.42 309.313, 1249.04 309.853 L 1247.94 309.333 L 1248.62 302.513 L 1255.9 302.513 L 1255.7 304.113 L 1250.26 304.113 L 1249.84 308.313 Q 1251.1 307.813, 1252.34 307.813 " fill="#000000"/>
<path class="note" d="M 1213.2 172.328 Q 1214.44 172.328, 1215.42 172.868 Q 1216.4 173.408, 1216.94 174.388 Q 1217.48 175.368, 1217.48 176.608 Q 1217.48 177.988, 1216.86 179.068 Q 1216.26 180.128, 1215.18 180.728 Q 1214.1 181.328, 1212.72 181.328 Q 1210.2 181.328, 1208.92 179.628 Q 1207.66 177.908, 1207.66 174.508 Q 1207.66 170.748, 1209.22 168.808 Q 1210.8 166.848, 1213.82 166.848 Q 1214.7 166.848, 1215.44 167.048 Q 1216.2 167.248, 1216.92 167.668 L 1216.14 169.008 Q 1215.1 168.448, 1213.84 168.448 Q 1211.84 168.448, 1210.82 169.748 Q 1209.8 171.028, 1209.68 173.688 Q 1210.4 173.028, 1211.3 172.688 Q 1212.22 172.328, 1213.2 172.328 M 1212.74 179.688 Q 1213.5 179.688, 1214.12 179.288 Q 1214.76 178.888, 1215.12 178.188 Q 1215.48 177.488, 1215.48 176.628 Q 1215.48 175.368, 1214.78 174.648 Q 1214.08 173.928, 1212.84 173.928 Q 1211.98 173.928, 1211.12 174.288 Q 1210.28 174.628, 1209.68 175.228 Q 1209.76 177.568, 1210.5 178.628 Q 1211.24 179.688, 1212.74 179.688 " fill="#000000"/>
<path class="note" d="M 1329.29 49.6137 L 1321.87 49.6137 L 1321.87 48.0137 L 1331.27 48.0137 L 1331.27 49.4337 L 1325.55 62.1737 L 1323.63 62.1737 L 1329.29 49.6137 " fill="#000000"/>
<path class="note" d="M 1488.77 94.0208 Q 1490.07 94.5808, 1490.81 95.4208 Q 1491.55 96.2408, 1491.55 97.6408 Q 1491.55 98.8408, 1490.93 99.7808 Q 1490.31 100.701, 1489.19 101.221 Q 1488.09 101.721, 1486.63 101.721 Q 1484.27 101.721, 1482.91 100.641 Q 1481.55 99.5408, 1481.55 97.6408 Q 1481.55 96.4808, 1482.15 95.6208 Q 1482.75 94.7408, 1483.99 94.0808 Q 1483.07 93.5608, 1482.57 92.8008 Q 1482.07 92.0208, 1482.07 90.8208 Q 1482.07 89.1608, 1483.27 88.1808 Q 1484.49 87.2008, 1486.55 87.2008 Q 1488.61 87.2008, 1489.81 88.1808 Q 1491.03 89.1608, 1491.03 90.8208 Q 1491.03 91.8608, 1490.45 92.6408 Q 1489.89 93.4008, 1488.77 94.0208 M 1486.55 88.7008 Q 1485.37 88.7008, 1484.71 89.2608 Q 1484.07 89.8208, 1484.07 90.8208 Q 1484.07 91.5608, 1484.51 92.0608 Q 1484.95 92.5408, 1485.57 92.8208 Q 1486.21 93.1008, 1487.43 93.5208 Q 1488.29 92.9208, 1488.65 92.2808 Q 1489.03 91.6408, 1489.03 90.8208 Q 1489.03 89.8208, 1488.37 89.2608 Q 1487.73 88.7008, 1486.55 88.7008 M 1486.63 100.221 Q 1487.95 100.221, 1488.75 99.5208 Q 1489.55 98.8008, 1489.55 97.6208 Q 1489.55 96.8608, 1489.13 96.3808 Q 1488.71 95.9008, 1488.07 95.6208 Q 1487.45 95.3408, 1486.33 94.9808 L 1485.43 94.6808 Q 1484.43 95.2808, 1483.99 96.0008 Q 1483.55 96.7008, 1483.55 97.6208 Q 1483.55 98.8008, 1484.39 99.5208 Q 1485.23 100.221, 1486.63 100.221 " fill="#000000"/>
<path class="note" d="M 1525.82 222.785 Q 1528.34 222.785, 1529.6 224.505 Q 1530.88 226.205, 1530.88 229.605 Q 1530.88 233.365, 1529.3 235.325 Q 1527.74 237.265, 1524.72 237.265 Q 1523.84 237.265, 1523.08 237.065 Q 1522.34 236.865, 1521.62 236.445 L 1522.4 235.105 Q 1523.44 235.665, 1524.7 235.665 Q 1526.7 235.665, 1527.72 234.385 Q 1528.74 233.085, 1528.86 230.425 Q 1528.14 231.085, 1527.22 231.445 Q 1526.32 231.785, 1525.34 231.785 Q 1524.1 231.785, 1523.12 231.245 Q 1522.14 230.705, 1521.6 229.725 Q 1521.06 228.745, 1521.06 227.505 Q 1521.06 226.125, 1521.66 225.065 Q 1522.28 223.985, 1523.36 223.385 Q 1524.44 222.785, 1525.82 222.785 M 1523.06 227.485 Q 1523.06 228.745, 1523.76 229.465 Q 1524.46 230.185, 1525.7 230.185 Q 1526.56 230.185, 1527.4 229.845 Q 1528.26 229.485, 1528.86 228.885 Q 1528.78 226.545, 1528.04 225.485 Q 1527.3 224.425, 1525.8 224.425 Q 1525.04 224.425, 1524.4 224.825 Q 1523.78 225.225, 1523.42 225.925 Q 1523.06 226.625, 1523.06 227.485 " fill="#000000"/>
<path class="note" d="M 1613.13 298.345 L 1616.23 298.345 L 1616.23 287.765 L 1612.81 288.825 L 1612.35 287.645 L 1616.69 285.705 L 1618.11 285.945 L 1618.11 298.345 L 1620.89 298.345 L 1620.89 299.945 L 1613.13 299.945 L 1613.13 298.345 " fill="#000000"/>
<path class="note" d="M 1627.29 300.105 Q 1624.69 300.105, 1623.39 298.185 Q 1622.11 296.265, 1622.11 292.845 Q 1622.11 289.425, 1623.39 287.525 Q 1624.67 285.625, 1627.29 285.625 Q 1629.91 285.625, 1631.19 287.525 Q 1632.47 289.425, 1632.47 292.845 Q 1632.47 296.265, 1631.17 298.185 Q 1629.89 300.105, 1627.29 300.105 M 1627.29 298.505 Q 1628.83 298.505, 1629.65 297.085 Q 1630.47 295.645, 1630.47 292.845 Q 1630.47 290.065, 1629.65 288.645 Q 1628.83 287.225, 1627.29 287.225 Q 1625.77 287.225, 1624.93 288.645 Q 1624.11 290.065, 1624.11 292.845 Q 1624.11 295.645, 1624.93 297.085 Q 1625.77 298.505, 1627.29 298.505 " fill="#000000"/>
<path class="note" d="M 1817.08 330.987 L 1820.18 330.987 L 1820.18 320.407 L 1816.76 321.467 L 1816.3 320.287 L 1820.64 318.347 L 1822.06 318.587 L 1822.06 330.987 L 1824.84 330.987 L 1824.84 332.587 L 1817.08 332.587 L 1817.08 330.987 " fill="#000000"/>
<path class="note" d="M 1826.7 330.987 L 1829.8 330.987 L 1829.8 320.407 L 1826.38 321.467 L 1825.92 320.287 L 1830.26 318.347 L 1831.68 318.587 L 1831.68 330.987 L 1834.46 330.987 L 1834.46 332.587 L 1826.7 332.587 L 1826.7 330.987 " fill="#000000"/>
<path class="note" d="M 1588.9 468.987 L 1592 468.987 L 1592 458.407 L 1588.58 459.467 L 1588.12 458.287 L 1592.46 456.347 L 1593.88 456.587 L 1593.88 468.987 L 1596.66 468.987 L 1596.66 470.587 L 1588.9 470.587 L 1588.9 468.987 " fill="#000000"/>
<path class="note" d="M 1597.7 459.107 Q 1598.22 457.767, 1599.46 457.027 Q 1600.7 456.267, 1602.42 456.267 Q 1604.56 456.267, 1605.76 457.427 Q 1606.96 458.587, 1606.96 460.647 Q 1606.96 462.747, 1605.4 464.707 Q 1603.86 466.667, 1600.66 468.987 L 1607.2 468.987 L 1607.2 470.587 L 1597.66 470.587 L 1597.66 469.247 Q 1600.3 467.367, 1601.86 465.967 Q 1603.44 464.567, 1604.2 463.307 Q 1604.96 462.047, 1604.96 460.747 Q 1604.96 459.387, 1604.28 458.627 Q 1603.6 457.867, 1602.42 457.867 Q 1601.28 457.867, 1600.52 458.327 Q 1599.76 458.787, 1599.22 459.807 L 1597.7 459.107 " fill="#000000"/>
<path class="note" d="M 1678.75 103.314 L 1681.85 103.314 L 1681.85 92.7343 L 1678.43 93.7943 L 1677.97 92.6143 L 1682.31 90.6743 L 1683.73 90.9143 L 1683.73 103.314 L 1686.51 103.314 L 1686.51 104.914 L 1678.75 104.914 L 1678.75 103.314 " fill="#000000"/>
<path class="note" d="M 1694.15 97.4543 Q 1695.53 97.8543, 1696.19 98.7543 Q 1696.87 99.6343, 1696.87 101.034 Q 1696.87 102.234, 1696.27 103.174 Q 1695.67 104.094, 1694.57 104.614 Q 1693.47 105.114, 1692.03 105.114 Q 1690.51 105.114, 1689.37 104.594 Q 1688.25 104.054, 1687.35 102.974 L 1688.49 101.814 Q 1689.37 102.774, 1690.11 103.154 Q 1690.85 103.514, 1692.03 103.514 Q 1693.31 103.514, 1694.09 102.834 Q 1694.87 102.134, 1694.87 101.014 Q 1694.87 99.5743, 1694.05 98.9343 Q 1693.25 98.2743, 1691.51 98.2743 L 1690.49 98.2743 L 1690.49 96.8343 L 1691.39 96.8343 Q 1692.93 96.8143, 1693.75 96.1543 Q 1694.57 95.4743, 1694.57 94.2143 Q 1694.57 93.2943, 1693.89 92.7543 Q 1693.21 92.1943, 1692.05 92.1943 Q 1690.87 92.1943, 1690.13 92.6143 Q 1689.41 93.0343, 1688.85 94.0943 L 1687.47 93.3543 Q 1687.97 92.1743, 1689.17 91.3943 Q 1690.37 90.5943, 1692.05 90.5943 Q 1694.13 90.5943, 1695.35 91.5743 Q 1696.57 92.5543, 1696.57 94.2143 Q 1696.57 95.3543, 1695.95 96.1743 Q 1695.33 96.9943, 1694.15 97.4543 " fill="#000000"/>
<path class="note" d="M 1405.03 376.977 L 1408.13 376.977 L 1408.13 366.397 L 1404.71 367.457 L 1404.25 366.277 L 1408.59 364.337 L 1410.01 364.577 L 1410.01 376.977 L 1412.79 376.977 L 1412.79 378.577 L 1405.03 378.577 L 1405.03 376.977 " fill="#000000"/>
<path class="note" d="M 1422.59 373.717 L 1424.29 373.717 L 1424.29 375.317 L 1422.59 375.317 L 1422.59 378.577 L 1420.71 378.577 L 1420.71 375.317 L 1413.39 375.317 L 1413.39 374.057 L 1419.59 364.417 L 1422.59 364.417 L 1422.59 373.717 M 1415.71 373.717 L 1420.71 373.717 L 1420.71 365.697 L 1415.71 373.717 " fill="#000000"/>
<path class="note" d="M 2593.95 409.664 L 2597.05 409.664 L 2597.05 399.084 L 2593.63 400.144 L 2593.17 398.964 L 2597.51 397.024 L 2598.93 397.264 L 2598.93 409.664 L 2601.71 409.664 L 2601.71 411.264 L 2593.95 411.264 L 2593.95 409.664 " fill="#000000"/>
<path class="note" d="M 2695.18 320.694 Q 2695.7 319.354, 2696.94 318.614 Q 2698.18 317.854, 2699.9 317.854 Q 2702.04 317.854, 2703.24 319.014 Q 2704.44 320.174, 2704.44 322.234 Q 2704.44 324.334, 2702.88 326.294 Q 2701.34 328.254, 2698.14 330.574 L 2704.68 330.574 L 2704.68 332.174 L 2695.14 332.174 L 2695.14 330.834 Q 2697.78 328.954, 2699.34 327.554 Q 2700.92 326.154, 2701.68 324.894 Q 2702.44 323.634, 2702.44 322.334 Q 2702.44 320.974, 2701.76 320.214 Q 2701.08 319.454, 2699.9 319.454 Q 2698.76 319.454, 2698 319.914 Q 2697.24 320.374, 2696.7 321.394 L 2695.18 320.694 " fill="#000000"/>
<path class="note" d="M 2678.79 114.189 Q 2680.17 114.589, 2680.83 115.489 Q 2681.51 116.369, 2681.51 117.769 Q 2681.51 118.969, 2680.91 119.909 Q 2680.31 120.829, 2679.21 121.349 Q 2678.11 121.849, 2676.67 121.849 Q 2675.15 121.849, 2674.01 121.329 Q 2672.89 120.789, 2671.99 119.709 L 2673.13 118.549 Q 2674.01 119.509, 2674.75 119.889 Q 2675.49 120.249, 2676.67 120.249 Q 2677.95 120.249, 2678.73 119.569 Q 2679.51 118.869, 2679.51 117.749 Q 2679.51 116.309, 2678.69 115.669 Q 2677.89 115.009, 2676.15 115.009 L 2675.13 115.009 L 2675.13 113.569 L 2676.03 113.569 Q 2677.57 113.549, 2678.39 112.889 Q 2679.21 112.209, 2679.21 110.949 Q 2679.21 110.029, 2678.53 109.489 Q 2677.85 108.929, 2676.69 108.929 Q 2675.51 108.929, 2674.77 109.349 Q 2674.05 109.769, 2673.49 110.829 L 2672.11 110.089 Q 2672.61 108.909, 2673.81 108.129 Q 2675.01 107.329, 2676.69 107.329 Q 2678.77 107.329, 2679.99 108.309 Q 2681.21 109.289, 2681.21 110.949 Q 2681.21 112.089, 2680.59 112.909 Q 2679.97 113.729, 2678.79 114.189 " fill="#000000"/>
<path class="note" d="M 2858.21 398.581 L 2859.91 398.581 L 2859.91 400.181 L 2858.21 400.181 L 2858.21 403.441 L 2856.33 403.441 L 2856.33 400.181 L 2849.01 400.181 L 2849.01 398.921 L 2855.21 389.281 L 2858.21 389.281 L 2858.21 398.581 M 2851.33 398.581 L 2856.33 398.581 L 2856.33 390.561 L 2851.33 398.581 " fill="#000000"/>
<path class="note" d="M 2919.24 263.622 Q 2920.48 263.622, 2921.5 264.162 Q 2922.52 264.682, 2923.1 265.682 Q 2923.68 266.662, 2923.68 268.002 Q 2923.68 269.462, 2922.96 270.522 Q 2922.26 271.562, 2921.1 272.102 Q 2919.94 272.642, 2918.62 272.642 Q 2917.32 272.642, 2916.12 272.162 Q 2914.92 271.682, 2914.1 270.762 L 2915.3 269.522 Q 2915.96 270.242, 2916.86 270.642 Q 2917.76 271.022, 2918.68 271.022 Q 2919.94 271.022, 2920.8 270.242 Q 2921.68 269.462, 2921.68 268.042 Q 2921.68 266.542, 2920.8 265.842 Q 2919.94 265.122, 2918.56 265.122 Q 2917.32 265.122, 2915.94 265.662 L 2914.84 265.142 L 2915.52 258.322 L 2922.8 258.322 L 2922.6 259.922 L 2917.16 259.922 L 2916.74 264.122 Q 2918 263.622, 2919.24 263.622 " fill="#000000"/>
<path class="note" d="M 2904.07 123.372 Q 2905.31 123.372, 2906.29 123.912 Q 2907.27 124.452, 2907.81 125.432 Q 2908.35 126.412, 2908.35 127.652 Q 2908.35 129.032, 2907.73 130.112 Q 2907.13 131.172, 2906.05 131.772 Q 2904.97 132.372, 2903.59 132.372 Q 2901.07 132.372, 2899.79 130.672 Q 2898.53 128.952, 2898.53 125.552 Q 2898.53 121.792, 2900.09 119.852 Q 2901.67 117.892, 2904.69 117.892 Q 2905.57 117.892, 2906.31 118.092 Q 2907.07 118.292, 2907.79 118.712 L 2907.01 120.052 Q 2905.97 119.492, 2904.71 119.492 Q 2902.71 119.492, 2901.69 120.792 Q 2900.67 122.072, 2900.55 124.732 Q 2901.27 124.072, 2902.17 123.732 Q 2903.09 123.372, 2904.07 123.372 M 2903.61 130.732 Q 2904.37 130.732, 2904.99 130.332 Q 2905.63 129.932, 2905.99 129.232 Q 2906.35 128.532, 2906.35 127.672 Q 2906.35 126.412, 2905.65 125.692 Q 2904.95 124.972, 2903.71 124.972 Q 2902.85 124.972, 2901.99 125.332 Q 2901.15 125.672, 2900.55 126.272 Q 2900.63 128.612, 2901.37 129.672 Q 2902.11 130.732, 2903.61 130.732 " fill="#000000"/>
<path class="note" d="M 3038.96 22.0951 L 3031.54 22.0951 L 3031.54 20.4951 L 3040.94 20.4951 L 3040.94 21.9151 L 3035.22 34.6551 L 3033.3 34.6551 L 3038.96 22.0951 " fill="#000000"/>
<path class="note" d="M 3189.27 93.4996 Q 3190.57 94.0596, 3191.31 94.8996 Q 3192.05 95.7196, 3192.05 97.1196 Q 3192.05 98.3196, 3191.43 99.2596 Q 3190.81 100.18, 3189.69 100.7 Q 3188.59 101.2, 3187.13 101.2 Q 3184.77 101.2, 3183.41 100.12 Q 3182.05 99.0196, 3182.05 97.1196 Q 3182.05 95.9596, 3182.65 95.0996 Q 3183.25 94.2196, 3184.49 93.5596 Q 3183.57 93.0396, 3183.07 92.2796 Q 3182.57 91.4996, 3182.57 90.2996 Q 3182.57 88.6396, 3183.77 87.6596 Q 3184.99 86.6796, 3187.05 86.6796 Q 3189.11 86.6796, 3190.31 87.6596 Q 3191.53 88.6396, 3191.53 90.2996 Q 3191.53 91.3396, 3190.95 92.1196 Q 3190.39 92.8796, 3189.27 93.4996 M 3187.05 88.1796 Q 3185.87 88.1796, 3185.21 88.7396 Q 3184.57 89.2996, 3184.57 90.2996 Q 3184.57 91.0396, 3185.01 91.5396 Q 3185.45 92.0196, 3186.07 92.2996 Q 3186.71 92.5796, 3187.93 92.9996 Q 3188.79 92.3996, 3189.15 91.7596 Q 3189.53 91.1196, 3189.53 90.2996 Q 3189.53 89.2996, 3188.87 88.7396 Q 3188.23 88.1796, 3187.05 88.1796 M 3187.13 99.6996 Q 3188.45 99.6996, 3189.25 98.9996 Q 3190.05 98.2796, 3190.05 97.0996 Q 3190.05 96.3396, 3189.63 95.8596 Q 3189.21 95.3796, 3188.57 95.0996 Q 3187.95 94.8196, 3186.83 94.4596 L 3185.93 94.1596 Q 3184.93 94.7596, 3184.49 95.4796 Q 3184.05 96.1796, 3184.05 97.0996 Q 3184.05 98.2796, 3184.89 98.9996 Q 3185.73 99.6996, 3187.13 99.6996 " fill="#000000"/>
<path class="note" d="M 3202.35 227.03 Q 3204.87 227.03, 3206.13 228.75 Q 3207.41 230.45, 3207.41 233.85 Q 3207.41 237.61, 3205.83 239.57 Q 3204.27 241.51, 3201.25 241.51 Q 3200.37 241.51, 3199.61 241.31 Q 3198.87 241.11, 3198.15 240.69 L 3198.93 239.35 Q 3199.97 239.91, 3201.23 239.91 Q 3203.23 239.91, 3204.25 238.63 Q 3205.27 237.33, 3205.39 234.67 Q 3204.67 235.33, 3203.75 235.69 Q 3202.85 236.03, 3201.87 236.03 Q 3200.63 236.03, 3199.65 235.49 Q 3198.67 234.95, 3198.13 233.97 Q 3197.59 232.99, 3197.59 231.75 Q 3197.59 230.37, 3198.19 229.31 Q 3198.81 228.23, 3199.89 227.63 Q 3200.97 227.03, 3202.35 227.03 M 3199.59 231.73 Q 3199.59 232.99, 3200.29 233.71 Q 3200.99 234.43, 3202.23 234.43 Q 3203.09 234.43, 3203.93 234.09 Q 3204.79 233.73, 3205.39 233.13 Q 3205.31 230.79, 3204.57 229.73 Q 3203.83 228.67, 3202.33 228.67 Q 3201.57 228.67, 3200.93 229.07 Q 3200.31 229.47, 3199.95 230.17 Q 3199.59 230.87, 3199.59 231.73 " fill="#000000"/>
<path class="note" d="M 3255.39 327.555 L 3258.49 327.555 L 3258.49 316.975 L 3255.07 318.035 L 3254.61 316.855 L 3258.95 314.915 L 3260.37 315.155 L 3260.37 327.555 L 3263.15 327.555 L 3263.15 329.155 L 3255.39 329.155 L 3255.39 327.555 " fill="#000000"/>
<path class="note" d="M 3269.55 329.315 Q 3266.95 329.315, 3265.65 327.395 Q 3264.37 325.475, 3264.37 322.055 Q 3264.37 318.635, 3265.65 316.735 Q 3266.93 314.835, 3269.55 314.835 Q 3272.17 314.835, 3273.45 316.735 Q 3274.73 318.635, 3274.73 322.055 Q 3274.73 325.475, 3273.43 327.395 Q 3272.15 329.315, 3269.55 329.315 M 3269.55 327.715 Q 3271.09 327.715, 3271.91 326.295 Q 3272.73 324.855, 3272.73 322.055 Q 3272.73 319.275, 3271.91 317.855 Q 3271.09 316.435, 3269.55 316.435 Q 3268.03 316.435, 3267.19 317.855 Q 3266.37 319.275, 3266.37 322.055 Q 3266.37 324.855, 3267.19 326.295 Q 3268.03 327.715, 3269.55 327.715 " fill="#000000"/>
<path class="note" d="M 3472.59 386.164 L 3475.69 386.164 L 3475.69 375.584 L 3472.27 376.644 L 3471.81 375.464 L 3476.15 373.524 L 3477.57 373.764 L 3477.57 386.164 L 3480.35 386.164 L 3480.35 387.764 L 3472.59 387.764 L 3472.59 386.164 " fill="#000000"/>
<path class="note" d="M 3482.21 386.164 L 3485.31 386.164 L 3485.31 375.584 L 3481.89 376.644 L 3481.43 375.464 L 3485.77 373.524 L 3487.19 373.764 L 3487.19 386.164 L 3489.97 386.164 L 3489.97 387.764 L 3482.21 387.764 L 3482.21 386.164 " fill="#000000"/>
<path class="note" d="M 3224.04 482.833 L 3227.14 482.833 L 3227.14 472.253 L 3223.72 473.313 L 3223.26 472.133 L 3227.6 470.193 L 3229.02 470.433 L 3229.02 482.833 L 3231.8 482.833 L 3231.8 484.433 L 3224.04 484.433 L 3224.04 482.833 " fill="#000000"/>
<path class="note" d="M 3232.84 472.953 Q 3233.36 471.613, 3234.6 470.873 Q 3235.84 470.113, 3237.56 470.113 Q 3239.7 470.113, 3240.9 471.273 Q 3242.1 472.433, 3242.1 474.493 Q 3242.1 476.593, 3240.54 478.553 Q 3239 480.513, 3235.8 482.833 L 3242.34 482.833 L 3242.34 484.433 L 3232.8 484.433 L 3232.8 483.093 Q 3235.44 481.213, 3237 479.813 Q 3238.58 478.413, 3239.34 477.153 Q 3240.1 475.893, 3240.1 474.593 Q 3240.1 473.233, 3239.42 472.473 Q 3238.74 471.713, 3237.56 471.713 Q 3236.42 471.713, 3235.66 472.173 Q 3234.9 472.633, 3234.36 473.653 L 3232.84 472.953 " fill="#000000"/>
<path class="note" d="M 3375.59 138.113 L 3378.69 138.113 L 3378.69 127.533 L 3375.27 128.593 L 3374.81 127.413 L 3379.15 125.473 L 3380.57 125.713 L 3380.57 138.113 L 3383.35 138.113 L 3383.35 139.713 L 3375.59 139.713 L 3375.59 138.113 " fill="#000000"/>
<path class="note" d="M 3390.99 132.253 Q 3392.37 132.653, 3393.03 133.553 Q 3393.71 134.433, 3393.71 135.833 Q 3393.71 137.033, 3393.11 137.973 Q 3392.51 138.893, 3391.41 139.413 Q 3390.31 139.913, 3388.87 139.913 Q 3387.35 139.913, 3386.21 139.393 Q 3385.09 138.853, 3384.19 137.773 L 3385.33 136.613 Q 3386.21 137.573, 3386.95 137.953 Q 3387.69 138.313, 3388.87 138.313 Q 3390.15 138.313, 3390.93 137.633 Q 3391.71 136.933, 3391.71 135.813 Q 3391.71 134.373, 3390.89 133.733 Q 3390.09 133.073, 3388.35 133.073 L 3387.33 133.073 L 3387.33 131.633 L 3388.23 131.633 Q 3389.77 131.613, 3390.59 130.953 Q 3391.41 130.273, 3391.41 129.013 Q 3391.41 128.093, 3390.73 127.553 Q 3390.05 126.993, 3388.89 126.993 Q 3387.71 126.993, 3386.97 127.413 Q 3386.25 127.833, 3385.69 128.893 L 3384.31 128.153 Q 3384.81 126.973, 3386.01 126.193 Q 3387.21 125.393, 3388.89 125.393 Q 3390.97 125.393, 3392.19 126.373 Q 3393.41 127.353, 3393.41 129.013 Q 3393.41 130.153, 3392.79 130.973 Q 3392.17 131.793, 3390.99 132.253 " fill="#000000"/>
<path class="note" d="M 3058.77 360.578 L 3061.87 360.578 L 3061.87 349.998 L 3058.45 351.058 L 3057.99 349.878 L 3062.33 347.938 L 3063.75 348.178 L 3063.75 360.578 L 3066.53 360.578 L 3066.53 362.178 L 3058.77 362.178 L 3058.77 360.578 " fill="#000000"/>
<path class="note" d="M 3076.33 357.318 L 3078.03 357.318 L 3078.03 358.918 L 3076.33 358.918 L 3076.33 362.178 L 3074.45 362.178 L 3074.45 358.918 L 3067.13 358.918 L 3067.13 357.658 L 3073.33 348.018 L 3076.33 348.018 L 3076.33 357.318 M 3069.45 357.318 L 3074.45 357.318 L 3074.45 349.298 L 3069.45 357.318 " fill="#000000"/>
<path d="M 947.106 240.144 L 953.154 240.144 L 953.154 233.776 L 955.842 233.776 L 955.842 240.144 L 962.05 240.144 L 962.05 242.448 L 955.842 242.448 L 955.842 248.848 L 953.154 248.848 L 953.154 242.448 L 947.106 242.448 L 947.106 240.144 " fill="#000000"/>
<path d="M 1966.06,242.448 L 2374.43,242.448" style="fill:none;fill-rule:evenodd;stroke:#000000;stroke-width:2.0px;stroke-linecap:butt;stroke-linejoin:miter;stroke-opacity:1"/>
<path d="M 2374.43,242.448 L 2356.75,232.239" style="fill:none;fill-rule:evenodd;stroke:#000000;stroke-width:2.0px;stroke-linecap:butt;stroke-linejoin:miter;stroke-opacity:1"/>
<path d="M 2374.43,242.448 L 2356.75,252.657" style="fill:none;fill-rule:evenodd;stroke:#000000;stroke-width:2.0px;stroke-linecap:butt;stroke-linejoin:miter;stroke-opacity:1"/>
</svg>