<svg xmlns="http://www.w3.org/2000/svg" xmlns:rdkit="http://www.rdkit.org/xml" xmlns:xlink="http://www.w3.org/1999/xlink" version="1.1" baseProfile="full" xml:space="preserve" width="4000px" height="500px" viewBox="0 0 4000 500">
<!-- END OF HEADER -->
<rect style="opacity:1.0;fill:#FFFFFF;stroke:none" width="4000" height="500" x="0" y="0"> </rect>
<path d="M 899.808,202.886 L 976.316,247.058" style="fill:none;fill-rule:evenodd;stroke:#FFFFAA;stroke-width:18.8px;stroke-linecap:butt;stroke-linejoin:miter;stroke-opacity:1"/>
<path d="M 976.316,247.058 L 976.316,335.401" style="fill:none;fill-rule:evenodd;stroke:#FFFFAA;stroke-width:18.8px;stroke-linecap:butt;stroke-linejoin:miter;stroke-opacity:1"/>
<path d="M 976.316,247.058 L 1052.82,202.886" style="fill:none;fill-rule:evenodd;stroke:#FFFFAA;stroke-width:18.8px;stroke-linecap:butt;stroke-linejoin:miter;stroke-opacity:1"/>
<path d="M 1052.82,202.886 L 1129.33,247.058" style="fill:none;fill-rule:evenodd;stroke:#FFFFAA;stroke-width:18.8px;stroke-linecap:butt;stroke-linejoin:miter;stroke-opacity:1"/>
<path d="M 1129.33,247.058 L 1129.33,335.401" style="fill:none;fill-rule:evenodd;stroke:#FFFFAA;stroke-width:18.8px;stroke-linecap:butt;stroke-linejoin:miter;stroke-opacity:1"/>
<path d="M 1129.33,247.058 L 1205.84,202.886" style="fill:none;fill-rule:evenodd;stroke:#FFFFAA;stroke-width:18.8px;stroke-linecap:butt;stroke-linejoin:miter;stroke-opacity:1"/>
<path d="M 1748.12,370.903 L 1698.01,298.149" style="fill:none;fill-rule:evenodd;stroke:#FFCC99;stroke-width:18.8px;stroke-linecap:butt;stroke-linejoin:miter;stroke-opacity:1"/>
<path d="M 1748.12,370.903 L 1710.17,450.68" style="fill:none;fill-rule:evenodd;stroke:#FFCC99;stroke-width:18.8px;stroke-linecap:butt;stroke-linejoin:miter;stroke-opacity:1"/>
<path d="M 1698.01,298.149 L 1609.94,305.172" style="fill:none;fill-rule:evenodd;stroke:#FFCC99;stroke-width:18.8px;stroke-linecap:butt;stroke-linejoin:miter;stroke-opacity:1"/>
<path d="M 1698.01,298.149 L 1735.96,218.371" style="fill:none;fill-rule:evenodd;stroke:#FFCC99;stroke-width:18.8px;stroke-linecap:butt;stroke-linejoin:miter;stroke-opacity:1"/>
<path d="M 1609.94,305.172 L 1559.83,232.419" style="fill:none;fill-rule:evenodd;stroke:#FFCC99;stroke-width:18.8px;stroke-linecap:butt;stroke-linejoin:miter;stroke-opacity:1"/>
<path d="M 1559.83,232.419 L 1471.77,239.442" style="fill:none;fill-rule:evenodd;stroke:#FFCC99;stroke-width:18.8px;stroke-linecap:butt;stroke-linejoin:miter;stroke-opacity:1"/>
<path d="M 1559.83,232.419 L 1597.78,152.641" style="fill:none;fill-rule:evenodd;stroke:#FFCC99;stroke-width:18.8px;stroke-linecap:butt;stroke-linejoin:miter;stroke-opacity:1"/>
<path d="M 1597.78,152.641 L 1685.84,145.617" style="fill:none;fill-rule:evenodd;stroke:#FFCC99;stroke-width:18.8px;stroke-linecap:butt;stroke-linejoin:miter;stroke-opacity:1"/>
<path d="M 1685.84,145.617 L 1735.96,218.371" style="fill:none;fill-rule:evenodd;stroke:#FFCC99;stroke-width:18.8px;stroke-linecap:butt;stroke-linejoin:miter;stroke-opacity:1"/>
<path d="M 1735.96,218.371 L 1824.02,211.348" style="fill:none;fill-rule:evenodd;stroke:#FFCC99;stroke-width:18.8px;stroke-linecap:butt;stroke-linejoin:miter;stroke-opacity:1"/>
<path d="M 1824.02,211.348 L 1861.97,131.57" style="fill:none;fill-rule:evenodd;stroke:#FFCC99;stroke-width:18.8px;stroke-linecap:butt;stroke-linejoin:miter;stroke-opacity:1"/>
<path d="M 1824.02,211.348 L 1874.14,284.102" style="fill:none;fill-rule:evenodd;stroke:#FFCC99;stroke-width:18.8px;stroke-linecap:butt;stroke-linejoin:miter;stroke-opacity:1"/>
<path d="M 2635.12,296.402 L 2553.81,261.867" style="fill:none;fill-rule:evenodd;stroke:#FFCC99;stroke-width:18.8px;stroke-linecap:butt;stroke-linejoin:miter;stroke-opacity:1"/>
<path d="M 2553.81,261.867 L 2543.06,174.179" style="fill:none;fill-rule:evenodd;stroke:#FFCC99;stroke-width:18.8px;stroke-linecap:butt;stroke-linejoin:miter;stroke-opacity:1"/>
<path d="M 2553.81,261.867 L 2483.24,315.019" style="fill:none;fill-rule:evenodd;stroke:#FFCC99;stroke-width:18.8px;stroke-linecap:butt;stroke-linejoin:miter;stroke-opacity:1"/>
<path d="M 2543.06,174.179 L 2461.74,139.644" style="fill:none;fill-rule:evenodd;stroke:#FFCC99;stroke-width:18.8px;stroke-linecap:butt;stroke-linejoin:miter;stroke-opacity:1"/>
<path d="M 2461.74,139.644 L 2451,51.9564" style="fill:none;fill-rule:evenodd;stroke:#FFCC99;stroke-width:18.8px;stroke-linecap:butt;stroke-linejoin:miter;stroke-opacity:1"/>
<path d="M 2461.74,139.644 L 2391.18,192.796" style="fill:none;fill-rule:evenodd;stroke:#FFCC99;stroke-width:18.8px;stroke-linecap:butt;stroke-linejoin:miter;stroke-opacity:1"/>
<path d="M 2391.18,192.796 L 2401.93,280.483" style="fill:none;fill-rule:evenodd;stroke:#FFCC99;stroke-width:18.8px;stroke-linecap:butt;stroke-linejoin:miter;stroke-opacity:1"/>
<path d="M 2401.93,280.483 L 2483.24,315.019" style="fill:none;fill-rule:evenodd;stroke:#FFCC99;stroke-width:18.8px;stroke-linecap:butt;stroke-linejoin:miter;stroke-opacity:1"/>
<path d="M 2483.24,315.019 L 2493.99,402.706" style="fill:none;fill-rule:evenodd;stroke:#FFCC99;stroke-width:18.8px;stroke-linecap:butt;stroke-linejoin:miter;stroke-opacity:1"/>
<path d="M 2493.99,402.706 L 2423.42,455.858" style="fill:none;fill-rule:evenodd;stroke:#FFCC99;stroke-width:18.8px;stroke-linecap:butt;stroke-linejoin:miter;stroke-opacity:1"/>
<path d="M 2493.99,402.706 L 2575.3,437.241" style="fill:none;fill-rule:evenodd;stroke:#FFCC99;stroke-width:18.8px;stroke-linecap:butt;stroke-linejoin:miter;stroke-opacity:1"/>
<path d="M 2857.56,224.634 L 2938.88,259.169" style="fill:none;fill-rule:evenodd;stroke:#FFFFAA;stroke-width:18.8px;stroke-linecap:butt;stroke-linejoin:miter;stroke-opacity:1"/>
<path d="M 2938.88,259.169 L 3009.44,206.017" style="fill:none;fill-rule:evenodd;stroke:#FFFFAA;stroke-width:18.8px;stroke-linecap:butt;stroke-linejoin:miter;stroke-opacity:1"/>
<path d="M 3009.44,206.017 L 3090.76,240.552" style="fill:none;fill-rule:evenodd;stroke:#FFFFAA;stroke-width:18.8px;stroke-linecap:butt;stroke-linejoin:miter;stroke-opacity:1"/>
<path d="M 3009.44,206.017 L 2998.69,118.33" style="fill:none;fill-rule:evenodd;stroke:#FFFFAA;stroke-width:18.8px;stroke-linecap:butt;stroke-linejoin:miter;stroke-opacity:1"/>
<ellipse cx="899.808" cy="202.886" rx="17.6687" ry="17.6687" style="fill:#FFFFAA;fill-rule:evenodd;stroke:#FFFFAA;stroke-width:1px;stroke-linecap:butt;stroke-linejoin:miter;stroke-opacity:1"/>
<ellipse cx="976.316" cy="247.058" rx="17.6687" ry="17.6687" style="fill:#FFFFAA;fill-rule:evenodd;stroke:#FFFFAA;stroke-width:1px;stroke-linecap:butt;stroke-linejoin:miter;stroke-opacity:1"/>
<ellipse cx="976.316" cy="335.596" rx="17.6687" ry="18.1658" style="fill:#FFFFAA;fill-rule:evenodd;stroke:#FFFFAA;stroke-width:1px;stroke-linecap:butt;stroke-linejoin:miter;stroke-opacity:1"/>
<ellipse cx="1052.82" cy="203.08" rx="17.6687" ry="18.1658" style="fill:#FFFFAA;fill-rule:evenodd;stroke:#FFFFAA;stroke-width:1px;stroke-linecap:butt;stroke-linejoin:miter;stroke-opacity:1"/>
<ellipse cx="1129.33" cy="247.058" rx="17.6687" ry="17.6687" style="fill:#FFFFAA;fill-rule:evenodd;stroke:#FFFFAA;stroke-width:1px;stroke-linecap:butt;stroke-linejoin:miter;stroke-opacity:1"/>
<ellipse cx="1129.33" cy="335.596" rx="17.6687" ry="18.1658" style="fill:#FFFFAA;fill-rule:evenodd;stroke:#FFFFAA;stroke-width:1px;stroke-linecap:butt;stroke-linejoin:miter;stroke-opacity:1"/>
<ellipse cx="1205.84" cy="202.886" rx="17.6687" ry="17.6687" style="fill:#FFFFAA;fill-rule:evenodd;stroke:#FFFFAA;stroke-width:1px;stroke-linecap:butt;stroke-linejoin:miter;stroke-opacity:1"/>
<ellipse cx="1748.12" cy="370.903" rx="17.6687" ry="17.6687" style="fill:#FFCC99;fill-rule:evenodd;stroke:#FFCC99;stroke-width:1px;stroke-linecap:butt;stroke-linejoin:miter;stroke-opacity:1"/>
<ellipse cx="1698.01" cy="298.149" rx="17.6687" ry="17.6687" style="fill:#FFCC99;fill-rule:evenodd;stroke:#FFCC99;stroke-width:1px;stroke-linecap:butt;stroke-linejoin:miter;stroke-opacity:1"/>
<ellipse cx="1609.94" cy="305.172" rx="17.6687" ry="17.6687" style="fill:#FFCC99;fill-rule:evenodd;stroke:#FFCC99;stroke-width:1px;stroke-linecap:butt;stroke-linejoin:miter;stroke-opacity:1"/>
<ellipse cx="1559.83" cy="232.419" rx="17.6687" ry="17.6687" style="fill:#FFCC99;fill-rule:evenodd;stroke:#FFCC99;stroke-width:1px;stroke-linecap:butt;stroke-linejoin:miter;stroke-opacity:1"/>
<ellipse cx="1461.09" cy="239.636" rx="31.3342" ry="18.1658" style="fill:#FFCC99;fill-rule:evenodd;stroke:#FFCC99;stroke-width:1px;stroke-linecap:butt;stroke-linejoin:miter;stroke-opacity:1"/>
<ellipse cx="1597.78" cy="152.641" rx="17.6687" ry="17.6687" style="fill:#FFCC99;fill-rule:evenodd;stroke:#FFCC99;stroke-width:1px;stroke-linecap:butt;stroke-linejoin:miter;stroke-opacity:1"/>
<ellipse cx="1685.84" cy="145.617" rx="17.6687" ry="17.6687" style="fill:#FFCC99;fill-rule:evenodd;stroke:#FFCC99;stroke-width:1px;stroke-linecap:butt;stroke-linejoin:miter;stroke-opacity:1"/>
<ellipse cx="1735.96" cy="218.371" rx="17.6687" ry="17.6687" style="fill:#FFCC99;fill-rule:evenodd;stroke:#FFCC99;stroke-width:1px;stroke-linecap:butt;stroke-linejoin:miter;stroke-opacity:1"/>
<ellipse cx="1830.52" cy="211.282" rx="22.6041" ry="17.784" style="fill:#FFCC99;fill-rule:evenodd;stroke:#FFCC99;stroke-width:1px;stroke-linecap:butt;stroke-linejoin:miter;stroke-opacity:1"/>
<ellipse cx="1861.97" cy="131.765" rx="17.6687" ry="18.1658" style="fill:#FFCC99;fill-rule:evenodd;stroke:#FFCC99;stroke-width:1px;stroke-linecap:butt;stroke-linejoin:miter;stroke-opacity:1"/>
<ellipse cx="1879" cy="284.296" rx="23.1188" ry="18.1658" style="fill:#FFCC99;fill-rule:evenodd;stroke:#FFCC99;stroke-width:1px;stroke-linecap:butt;stroke-linejoin:miter;stroke-opacity:1"/>
<ellipse cx="1710.17" cy="450.875" rx="17.6687" ry="18.1658" style="fill:#FFCC99;fill-rule:evenodd;stroke:#FFCC99;stroke-width:1px;stroke-linecap:butt;stroke-linejoin:miter;stroke-opacity:1"/>
<ellipse cx="3030.94" cy="381.392" rx="17.6687" ry="17.6687" style="fill:#FFFFAA;fill-rule:evenodd;stroke:#FFFFAA;stroke-width:1px;stroke-linecap:butt;stroke-linejoin:miter;stroke-opacity:1"/>
<ellipse cx="2635.12" cy="296.402" rx="17.6687" ry="17.6687" style="fill:#FFCC99;fill-rule:evenodd;stroke:#FFCC99;stroke-width:1px;stroke-linecap:butt;stroke-linejoin:miter;stroke-opacity:1"/>
<ellipse cx="2553.81" cy="261.867" rx="17.6687" ry="17.6687" style="fill:#FFCC99;fill-rule:evenodd;stroke:#FFCC99;stroke-width:1px;stroke-linecap:butt;stroke-linejoin:miter;stroke-opacity:1"/>
<ellipse cx="2543.06" cy="174.179" rx="17.6687" ry="17.6687" style="fill:#FFCC99;fill-rule:evenodd;stroke:#FFCC99;stroke-width:1px;stroke-linecap:butt;stroke-linejoin:miter;stroke-opacity:1"/>
<ellipse cx="2461.74" cy="139.644" rx="17.6687" ry="17.6687" style="fill:#FFCC99;fill-rule:evenodd;stroke:#FFCC99;stroke-width:1px;stroke-linecap:butt;stroke-linejoin:miter;stroke-opacity:1"/>
<ellipse cx="2462.29" cy="52.1508" rx="32.2087" ry="18.1658" style="fill:#FFCC99;fill-rule:evenodd;stroke:#FFCC99;stroke-width:1px;stroke-linecap:butt;stroke-linejoin:miter;stroke-opacity:1"/>
<ellipse cx="2391.18" cy="192.796" rx="17.6687" ry="17.6687" style="fill:#FFCC99;fill-rule:evenodd;stroke:#FFCC99;stroke-width:1px;stroke-linecap:butt;stroke-linejoin:miter;stroke-opacity:1"/>
<ellipse cx="2401.93" cy="280.483" rx="17.6687" ry="17.6687" style="fill:#FFCC99;fill-rule:evenodd;stroke:#FFCC99;stroke-width:1px;stroke-linecap:butt;stroke-linejoin:miter;stroke-opacity:1"/>
<ellipse cx="2483.24" cy="315.019" rx="17.6687" ry="17.6687" style="fill:#FFCC99;fill-rule:evenodd;stroke:#FFCC99;stroke-width:1px;stroke-linecap:butt;stroke-linejoin:miter;stroke-opacity:1"/>
<ellipse cx="2500.48" cy="402.64" rx="22.6041" ry="17.784" style="fill:#FFCC99;fill-rule:evenodd;stroke:#FFCC99;stroke-width:1px;stroke-linecap:butt;stroke-linejoin:miter;stroke-opacity:1"/>
<ellipse cx="2423.42" cy="456.052" rx="17.6687" ry="18.1658" style="fill:#FFCC99;fill-rule:evenodd;stroke:#FFCC99;stroke-width:1px;stroke-linecap:butt;stroke-linejoin:miter;stroke-opacity:1"/>
<ellipse cx="2580.16" cy="437.436" rx="23.1188" ry="18.1658" style="fill:#FFCC99;fill-rule:evenodd;stroke:#FFCC99;stroke-width:1px;stroke-linecap:butt;stroke-linejoin:miter;stroke-opacity:1"/>
<ellipse cx="2613.62" cy="121.222" rx="17.6687" ry="18.1658" style="fill:#FFFFAA;fill-rule:evenodd;stroke:#FFFFAA;stroke-width:1px;stroke-linecap:butt;stroke-linejoin:miter;stroke-opacity:1"/>
<ellipse cx="2776.79" cy="102.605" rx="32.2087" ry="18.1658" style="fill:#FFCC99;fill-rule:evenodd;stroke:#FFCC99;stroke-width:1px;stroke-linecap:butt;stroke-linejoin:miter;stroke-opacity:1"/>
<ellipse cx="2857.56" cy="224.634" rx="17.6687" ry="17.6687" style="fill:#FFFFAA;fill-rule:evenodd;stroke:#FFFFAA;stroke-width:1px;stroke-linecap:butt;stroke-linejoin:miter;stroke-opacity:1"/>
<ellipse cx="2938.88" cy="259.169" rx="17.6687" ry="17.6687" style="fill:#FFFFAA;fill-rule:evenodd;stroke:#FFFFAA;stroke-width:1px;stroke-linecap:butt;stroke-linejoin:miter;stroke-opacity:1"/>
<ellipse cx="3009.44" cy="206.017" rx="17.6687" ry="17.6687" style="fill:#FFFFAA;fill-rule:evenodd;stroke:#FFFFAA;stroke-width:1px;stroke-linecap:butt;stroke-linejoin:miter;stroke-opacity:1"/>
<ellipse cx="3090.76" cy="240.747" rx="17.6687" ry="18.1658" style="fill:#FFFFAA;fill-rule:evenodd;stroke:#FFFFAA;stroke-width:1px;stroke-linecap:butt;stroke-linejoin:miter;stroke-opacity:1"/>
<ellipse cx="3009.98" cy="118.524" rx="32.2087" ry="18.1658" style="fill:#FFFFAA;fill-rule:evenodd;stroke:#FFFFAA;stroke-width:1px;stroke-linecap:butt;stroke-linejoin:miter;stroke-opacity:1"/>
<path class="bond-0" d="M 899.808,202.886 L 976.316,247.058" style="fill:none;fill-rule:evenodd;stroke:#000000;stroke-width:2.0px;stroke-linecap:butt;stroke-linejoin:miter;stroke-opacity:1"/>
<path class="bond-1" d="M 967.481,247.058 L 967.481,283.8" style="fill:none;fill-rule:evenodd;stroke:#000000;stroke-width:2.0px;stroke-linecap:butt;stroke-linejoin:miter;stroke-opacity:1"/>
<path class="bond-1" d="M 967.481,283.8 L 967.481,320.542" style="fill:none;fill-rule:evenodd;stroke:#FF0000;stroke-width:2.0px;stroke-linecap:butt;stroke-linejoin:miter;stroke-opacity:1"/>
<path class="bond-1" d="M 985.15,247.058 L 985.15,283.8" style="fill:none;fill-rule:evenodd;stroke:#000000;stroke-width:2.0px;stroke-linecap:butt;stroke-linejoin:miter;stroke-opacity:1"/>
<path class="bond-1" d="M 985.15,283.8 L 985.15,320.542" style="fill:none;fill-rule:evenodd;stroke:#FF0000;stroke-width:2.0px;stroke-linecap:butt;stroke-linejoin:miter;stroke-opacity:1"/>
<path class="bond-2" d="M 976.316,247.058 L 1007.72,228.925" style="fill:none;fill-rule:evenodd;stroke:#000000;stroke-width:2.0px;stroke-linecap:butt;stroke-linejoin:miter;stroke-opacity:1"/>
<path class="bond-2" d="M 1007.72,228.925 L 1039.13,210.792" style="fill:none;fill-rule:evenodd;stroke:#FF0000;stroke-width:2.0px;stroke-linecap:butt;stroke-linejoin:miter;stroke-opacity:1"/>
<path class="bond-3" d="M 1066.52,210.792 L 1097.92,228.925" style="fill:none;fill-rule:evenodd;stroke:#FF0000;stroke-width:2.0px;stroke-linecap:butt;stroke-linejoin:miter;stroke-opacity:1"/>
<path class="bond-3" d="M 1097.92,228.925 L 1129.33,247.058" style="fill:none;fill-rule:evenodd;stroke:#000000;stroke-width:2.0px;stroke-linecap:butt;stroke-linejoin:miter;stroke-opacity:1"/>
<path class="bond-4" d="M 1120.5,247.058 L 1120.5,283.8" style="fill:none;fill-rule:evenodd;stroke:#000000;stroke-width:2.0px;stroke-linecap:butt;stroke-linejoin:miter;stroke-opacity:1"/>
<path class="bond-4" d="M 1120.5,283.8 L 1120.5,320.542" style="fill:none;fill-rule:evenodd;stroke:#FF0000;stroke-width:2.0px;stroke-linecap:butt;stroke-linejoin:miter;stroke-opacity:1"/>
<path class="bond-4" d="M 1138.17,247.058 L 1138.17,283.8" style="fill:none;fill-rule:evenodd;stroke:#000000;stroke-width:2.0px;stroke-linecap:butt;stroke-linejoin:miter;stroke-opacity:1"/>
<path class="bond-4" d="M 1138.17,283.8 L 1138.17,320.542" style="fill:none;fill-rule:evenodd;stroke:#FF0000;stroke-width:2.0px;stroke-linecap:butt;stroke-linejoin:miter;stroke-opacity:1"/>
<path class="bond-5" d="M 1129.33,247.058 L 1205.84,202.886" style="fill:none;fill-rule:evenodd;stroke:#000000;stroke-width:2.0px;stroke-linecap:butt;stroke-linejoin:miter;stroke-opacity:1"/>
<path class="bond-6" d="M 1748.12,370.903 L 1698.01,298.149" style="fill:none;fill-rule:evenodd;stroke:#000000;stroke-width:2.0px;stroke-linecap:butt;stroke-linejoin:miter;stroke-opacity:1"/>
<path class="bond-16" d="M 1740.15,367.108 L 1724.7,399.567" style="fill:none;fill-rule:evenodd;stroke:#000000;stroke-width:2.0px;stroke-linecap:butt;stroke-linejoin:miter;stroke-opacity:1"/>
<path class="bond-16" d="M 1724.7,399.567 L 1709.26,432.026" style="fill:none;fill-rule:evenodd;stroke:#FF0000;stroke-width:2.0px;stroke-linecap:butt;stroke-linejoin:miter;stroke-opacity:1"/>
<path class="bond-16" d="M 1756.1,374.698 L 1740.66,407.157" style="fill:none;fill-rule:evenodd;stroke:#000000;stroke-width:2.0px;stroke-linecap:butt;stroke-linejoin:miter;stroke-opacity:1"/>
<path class="bond-16" d="M 1740.66,407.157 L 1725.22,439.616" style="fill:none;fill-rule:evenodd;stroke:#FF0000;stroke-width:2.0px;stroke-linecap:butt;stroke-linejoin:miter;stroke-opacity:1"/>
<path class="bond-7" d="M 1698.01,298.149 L 1609.94,305.172" style="fill:none;fill-rule:evenodd;stroke:#000000;stroke-width:2.0px;stroke-linecap:butt;stroke-linejoin:miter;stroke-opacity:1"/>
<path class="bond-7" d="M 1683.39,281.59 L 1621.75,286.506" style="fill:none;fill-rule:evenodd;stroke:#000000;stroke-width:2.0px;stroke-linecap:butt;stroke-linejoin:miter;stroke-opacity:1;stroke-dasharray:6,6"/>
<path class="bond-17" d="M 1698.01,298.149 L 1735.96,218.371" style="fill:none;fill-rule:evenodd;stroke:#000000;stroke-width:2.0px;stroke-linecap:butt;stroke-linejoin:miter;stroke-opacity:1"/>
<path class="bond-17" d="M 1687.75,278.592 L 1714.31,222.748" style="fill:none;fill-rule:evenodd;stroke:#000000;stroke-width:2.0px;stroke-linecap:butt;stroke-linejoin:miter;stroke-opacity:1;stroke-dasharray:6,6"/>
<path class="bond-8" d="M 1609.94,305.172 L 1559.83,232.419" style="fill:none;fill-rule:evenodd;stroke:#000000;stroke-width:2.0px;stroke-linecap:butt;stroke-linejoin:miter;stroke-opacity:1"/>
<path class="bond-8" d="M 1616.98,284.236 L 1581.9,233.309" style="fill:none;fill-rule:evenodd;stroke:#000000;stroke-width:2.0px;stroke-linecap:butt;stroke-linejoin:miter;stroke-opacity:1;stroke-dasharray:6,6"/>
<path class="bond-9" d="M 1559.83,232.419 L 1522.64,235.384" style="fill:none;fill-rule:evenodd;stroke:#000000;stroke-width:2.0px;stroke-linecap:butt;stroke-linejoin:miter;stroke-opacity:1"/>
<path class="bond-9" d="M 1522.64,235.384 L 1485.46,238.35" style="fill:none;fill-rule:evenodd;stroke:#FF0000;stroke-width:2.0px;stroke-linecap:butt;stroke-linejoin:miter;stroke-opacity:1"/>
<path class="bond-10" d="M 1559.83,232.419 L 1597.78,152.641" style="fill:none;fill-rule:evenodd;stroke:#000000;stroke-width:2.0px;stroke-linecap:butt;stroke-linejoin:miter;stroke-opacity:1"/>
<path class="bond-10" d="M 1581.48,228.042 L 1608.04,172.198" style="fill:none;fill-rule:evenodd;stroke:#000000;stroke-width:2.0px;stroke-linecap:butt;stroke-linejoin:miter;stroke-opacity:1;stroke-dasharray:6,6"/>
<path class="bond-11" d="M 1597.78,152.641 L 1685.84,145.617" style="fill:none;fill-rule:evenodd;stroke:#000000;stroke-width:2.0px;stroke-linecap:butt;stroke-linejoin:miter;stroke-opacity:1"/>
<path class="bond-11" d="M 1612.39,169.2 L 1674.04,164.284" style="fill:none;fill-rule:evenodd;stroke:#000000;stroke-width:2.0px;stroke-linecap:butt;stroke-linejoin:miter;stroke-opacity:1;stroke-dasharray:6,6"/>
<path class="bond-12" d="M 1685.84,145.617 L 1735.96,218.371" style="fill:none;fill-rule:evenodd;stroke:#000000;stroke-width:2.0px;stroke-linecap:butt;stroke-linejoin:miter;stroke-opacity:1"/>
<path class="bond-12" d="M 1678.81,166.553 L 1713.89,217.481" style="fill:none;fill-rule:evenodd;stroke:#000000;stroke-width:2.0px;stroke-linecap:butt;stroke-linejoin:miter;stroke-opacity:1;stroke-dasharray:6,6"/>
<path class="bond-13" d="M 1735.96,218.371 L 1774.14,215.326" style="fill:none;fill-rule:evenodd;stroke:#000000;stroke-width:2.0px;stroke-linecap:butt;stroke-linejoin:miter;stroke-opacity:1"/>
<path class="bond-13" d="M 1774.14,215.326 L 1812.32,212.281" style="fill:none;fill-rule:evenodd;stroke:#0000FF;stroke-width:2.0px;stroke-linecap:butt;stroke-linejoin:miter;stroke-opacity:1"/>
<path class="bond-14" d="M 1839,200.425 L 1850.94,175.315" style="fill:none;fill-rule:evenodd;stroke:#0000FF;stroke-width:2.0px;stroke-linecap:butt;stroke-linejoin:miter;stroke-opacity:1"/>
<path class="bond-14" d="M 1850.94,175.315 L 1862.89,150.206" style="fill:none;fill-rule:evenodd;stroke:#FF0000;stroke-width:2.0px;stroke-linecap:butt;stroke-linejoin:miter;stroke-opacity:1"/>
<path class="bond-14" d="M 1823.05,192.835 L 1834.99,167.725" style="fill:none;fill-rule:evenodd;stroke:#0000FF;stroke-width:2.0px;stroke-linecap:butt;stroke-linejoin:miter;stroke-opacity:1"/>
<path class="bond-14" d="M 1834.99,167.725 L 1846.93,142.616" style="fill:none;fill-rule:evenodd;stroke:#FF0000;stroke-width:2.0px;stroke-linecap:butt;stroke-linejoin:miter;stroke-opacity:1"/>
<path class="bond-15" d="M 1834.16,226.066 L 1849.18,247.877" style="fill:none;fill-rule:evenodd;stroke:#0000FF;stroke-width:2.0px;stroke-linecap:butt;stroke-linejoin:miter;stroke-opacity:1"/>
<path class="bond-15" d="M 1849.18,247.877 L 1864.21,269.689" style="fill:none;fill-rule:evenodd;stroke:#FF0000;stroke-width:2.0px;stroke-linecap:butt;stroke-linejoin:miter;stroke-opacity:1"/>
<path class="bond-18" d="M 3030.94,381.392 L 2966.37,353.967" style="fill:none;fill-rule:evenodd;stroke:#000000;stroke-width:2.0px;stroke-linecap:butt;stroke-linejoin:miter;stroke-opacity:1"/>
<path class="bond-19" d="M 2929.48,362.034 L 2894.96,388.031" style="fill:none;fill-rule:evenodd;stroke:#000000;stroke-width:2.0px;stroke-linecap:butt;stroke-linejoin:miter;stroke-opacity:1"/>
<path class="bond-19" d="M 2913.67,351.82 L 2889.51,370.018" style="fill:none;fill-rule:evenodd;stroke:#000000;stroke-width:2.0px;stroke-linecap:butt;stroke-linejoin:miter;stroke-opacity:1;stroke-dasharray:6,6"/>
<path class="bond-43" d="M 2947.8,331.997 L 2938.88,259.169" style="fill:none;fill-rule:evenodd;stroke:#000000;stroke-width:2.0px;stroke-linecap:butt;stroke-linejoin:miter;stroke-opacity:1"/>
<path class="bond-43" d="M 2928.93,323.222 L 2922.68,272.243" style="fill:none;fill-rule:evenodd;stroke:#000000;stroke-width:2.0px;stroke-linecap:butt;stroke-linejoin:miter;stroke-opacity:1;stroke-dasharray:6,6"/>
<path class="bond-20" d="M 2847.39,386.558 L 2808.72,370.135" style="fill:none;fill-rule:evenodd;stroke:#000000;stroke-width:2.0px;stroke-linecap:butt;stroke-linejoin:miter;stroke-opacity:1"/>
<path class="bond-20" d="M 2848.5,367.832 L 2821.43,356.336" style="fill:none;fill-rule:evenodd;stroke:#000000;stroke-width:2.0px;stroke-linecap:butt;stroke-linejoin:miter;stroke-opacity:1;stroke-dasharray:6,6"/>
<path class="bond-21" d="M 2795.96,350.896 L 2788.81,292.561" style="fill:none;fill-rule:evenodd;stroke:#000000;stroke-width:2.0px;stroke-linecap:butt;stroke-linejoin:miter;stroke-opacity:1"/>
<path class="bond-21" d="M 2812.42,339.996 L 2807.42,299.161" style="fill:none;fill-rule:evenodd;stroke:#000000;stroke-width:2.0px;stroke-linecap:butt;stroke-linejoin:miter;stroke-opacity:1;stroke-dasharray:6,6"/>
<path class="bond-22" d="M 2755.24,264.297 L 2722.28,250.297" style="fill:none;fill-rule:evenodd;stroke:#000000;stroke-width:2.0px;stroke-linecap:butt;stroke-linejoin:miter;stroke-opacity:1"/>
<path class="bond-37" d="M 2803.69,265.216 L 2857.56,224.634" style="fill:none;fill-rule:evenodd;stroke:#000000;stroke-width:2.0px;stroke-linecap:butt;stroke-linejoin:miter;stroke-opacity:1"/>
<path class="bond-37" d="M 2822.4,273.241 L 2860.11,244.834" style="fill:none;fill-rule:evenodd;stroke:#000000;stroke-width:2.0px;stroke-linecap:butt;stroke-linejoin:miter;stroke-opacity:1;stroke-dasharray:6,6"/>
<path class="bond-23" d="M 2685.53,258.428 L 2635.12,296.402" style="fill:none;fill-rule:evenodd;stroke:#000000;stroke-width:2.0px;stroke-linecap:butt;stroke-linejoin:miter;stroke-opacity:1"/>
<path class="bond-23" d="M 2688.6,278.237 L 2653.31,304.819" style="fill:none;fill-rule:evenodd;stroke:#000000;stroke-width:2.0px;stroke-linecap:butt;stroke-linejoin:miter;stroke-opacity:1"/>
<path class="bond-34" d="M 2703.86,228.391 L 2696.71,170.048" style="fill:none;fill-rule:evenodd;stroke:#000000;stroke-width:2.0px;stroke-linecap:butt;stroke-linejoin:miter;stroke-opacity:1"/>
<path class="bond-24" d="M 2635.12,296.402 L 2553.81,261.867" style="fill:none;fill-rule:evenodd;stroke:#000000;stroke-width:2.0px;stroke-linecap:butt;stroke-linejoin:miter;stroke-opacity:1"/>
<path class="bond-25" d="M 2553.81,261.867 L 2543.06,174.179" style="fill:none;fill-rule:evenodd;stroke:#000000;stroke-width:2.0px;stroke-linecap:butt;stroke-linejoin:miter;stroke-opacity:1"/>
<path class="bond-25" d="M 2534.66,250.863 L 2527.13,189.482" style="fill:none;fill-rule:evenodd;stroke:#000000;stroke-width:2.0px;stroke-linecap:butt;stroke-linejoin:miter;stroke-opacity:1;stroke-dasharray:6,6"/>
<path class="bond-44" d="M 2553.81,261.867 L 2483.24,315.019" style="fill:none;fill-rule:evenodd;stroke:#000000;stroke-width:2.0px;stroke-linecap:butt;stroke-linejoin:miter;stroke-opacity:1"/>
<path class="bond-44" d="M 2532.59,255.726 L 2483.19,292.933" style="fill:none;fill-rule:evenodd;stroke:#000000;stroke-width:2.0px;stroke-linecap:butt;stroke-linejoin:miter;stroke-opacity:1;stroke-dasharray:6,6"/>
<path class="bond-26" d="M 2543.06,174.179 L 2461.74,139.644" style="fill:none;fill-rule:evenodd;stroke:#000000;stroke-width:2.0px;stroke-linecap:butt;stroke-linejoin:miter;stroke-opacity:1"/>
<path class="bond-26" d="M 2523.95,185.262 L 2467.03,161.087" style="fill:none;fill-rule:evenodd;stroke:#000000;stroke-width:2.0px;stroke-linecap:butt;stroke-linejoin:miter;stroke-opacity:1;stroke-dasharray:6,6"/>
<path class="bond-27" d="M 2461.74,139.644 L 2457.3,103.424" style="fill:none;fill-rule:evenodd;stroke:#000000;stroke-width:2.0px;stroke-linecap:butt;stroke-linejoin:miter;stroke-opacity:1"/>
<path class="bond-27" d="M 2457.3,103.424 L 2452.86,67.2045" style="fill:none;fill-rule:evenodd;stroke:#FF0000;stroke-width:2.0px;stroke-linecap:butt;stroke-linejoin:miter;stroke-opacity:1"/>
<path class="bond-28" d="M 2461.74,139.644 L 2391.18,192.796" style="fill:none;fill-rule:evenodd;stroke:#000000;stroke-width:2.0px;stroke-linecap:butt;stroke-linejoin:miter;stroke-opacity:1"/>
<path class="bond-28" d="M 2461.79,161.73 L 2412.39,198.936" style="fill:none;fill-rule:evenodd;stroke:#000000;stroke-width:2.0px;stroke-linecap:butt;stroke-linejoin:miter;stroke-opacity:1;stroke-dasharray:6,6"/>
<path class="bond-29" d="M 2391.18,192.796 L 2401.93,280.483" style="fill:none;fill-rule:evenodd;stroke:#000000;stroke-width:2.0px;stroke-linecap:butt;stroke-linejoin:miter;stroke-opacity:1"/>
<path class="bond-29" d="M 2410.33,203.799 L 2417.85,265.18" style="fill:none;fill-rule:evenodd;stroke:#000000;stroke-width:2.0px;stroke-linecap:butt;stroke-linejoin:miter;stroke-opacity:1;stroke-dasharray:6,6"/>
<path class="bond-30" d="M 2401.93,280.483 L 2483.24,315.019" style="fill:none;fill-rule:evenodd;stroke:#000000;stroke-width:2.0px;stroke-linecap:butt;stroke-linejoin:miter;stroke-opacity:1"/>
<path class="bond-30" d="M 2421.03,269.401 L 2477.95,293.576" style="fill:none;fill-rule:evenodd;stroke:#000000;stroke-width:2.0px;stroke-linecap:butt;stroke-linejoin:miter;stroke-opacity:1;stroke-dasharray:6,6"/>
<path class="bond-31" d="M 2483.24,315.019 L 2487.71,351.503" style="fill:none;fill-rule:evenodd;stroke:#000000;stroke-width:2.0px;stroke-linecap:butt;stroke-linejoin:miter;stroke-opacity:1"/>
<path class="bond-31" d="M 2487.71,351.503 L 2492.18,387.988" style="fill:none;fill-rule:evenodd;stroke:#0000FF;stroke-width:2.0px;stroke-linecap:butt;stroke-linejoin:miter;stroke-opacity:1"/>
<path class="bond-32" d="M 2476.98,404.46 L 2454.21,421.611" style="fill:none;fill-rule:evenodd;stroke:#0000FF;stroke-width:2.0px;stroke-linecap:butt;stroke-linejoin:miter;stroke-opacity:1"/>
<path class="bond-32" d="M 2454.21,421.611 L 2431.44,438.763" style="fill:none;fill-rule:evenodd;stroke:#FF0000;stroke-width:2.0px;stroke-linecap:butt;stroke-linejoin:miter;stroke-opacity:1"/>
<path class="bond-32" d="M 2487.61,418.573 L 2464.84,435.724" style="fill:none;fill-rule:evenodd;stroke:#0000FF;stroke-width:2.0px;stroke-linecap:butt;stroke-linejoin:miter;stroke-opacity:1"/>
<path class="bond-32" d="M 2464.84,435.724 L 2442.07,452.876" style="fill:none;fill-rule:evenodd;stroke:#FF0000;stroke-width:2.0px;stroke-linecap:butt;stroke-linejoin:miter;stroke-opacity:1"/>
<path class="bond-33" d="M 2505.69,407.674 L 2533.81,419.617" style="fill:none;fill-rule:evenodd;stroke:#0000FF;stroke-width:2.0px;stroke-linecap:butt;stroke-linejoin:miter;stroke-opacity:1"/>
<path class="bond-33" d="M 2533.81,419.617 L 2561.93,431.561" style="fill:none;fill-rule:evenodd;stroke:#FF0000;stroke-width:2.0px;stroke-linecap:butt;stroke-linejoin:miter;stroke-opacity:1"/>
<path class="bond-35" d="M 2663.4,132.572 L 2646.61,125.44" style="fill:none;fill-rule:evenodd;stroke:#000000;stroke-width:2.0px;stroke-linecap:butt;stroke-linejoin:miter;stroke-opacity:1"/>
<path class="bond-35" d="M 2646.61,125.44 L 2629.82,118.308" style="fill:none;fill-rule:evenodd;stroke:#FF0000;stroke-width:2.0px;stroke-linecap:butt;stroke-linejoin:miter;stroke-opacity:1"/>
<path class="bond-35" d="M 2656.5,148.835 L 2639.7,141.703" style="fill:none;fill-rule:evenodd;stroke:#000000;stroke-width:2.0px;stroke-linecap:butt;stroke-linejoin:miter;stroke-opacity:1"/>
<path class="bond-35" d="M 2639.7,141.703 L 2622.91,134.571" style="fill:none;fill-rule:evenodd;stroke:#FF0000;stroke-width:2.0px;stroke-linecap:butt;stroke-linejoin:miter;stroke-opacity:1"/>
<path class="bond-36" d="M 2714.66,140.703 L 2733.54,126.482" style="fill:none;fill-rule:evenodd;stroke:#000000;stroke-width:2.0px;stroke-linecap:butt;stroke-linejoin:miter;stroke-opacity:1"/>
<path class="bond-36" d="M 2733.54,126.482 L 2752.43,112.26" style="fill:none;fill-rule:evenodd;stroke:#FF0000;stroke-width:2.0px;stroke-linecap:butt;stroke-linejoin:miter;stroke-opacity:1"/>
<path class="bond-38" d="M 2857.56,224.634 L 2848.68,152.124" style="fill:none;fill-rule:evenodd;stroke:#000000;stroke-width:2.0px;stroke-linecap:butt;stroke-linejoin:miter;stroke-opacity:1"/>
<path class="bond-39" d="M 2857.56,224.634 L 2938.88,259.169" style="fill:none;fill-rule:evenodd;stroke:#000000;stroke-width:2.0px;stroke-linecap:butt;stroke-linejoin:miter;stroke-opacity:1"/>
<path class="bond-39" d="M 2862.85,246.077 L 2919.77,270.251" style="fill:none;fill-rule:evenodd;stroke:#000000;stroke-width:2.0px;stroke-linecap:butt;stroke-linejoin:miter;stroke-opacity:1;stroke-dasharray:6,6"/>
<path class="bond-40" d="M 2938.88,259.169 L 3009.44,206.017" style="fill:none;fill-rule:evenodd;stroke:#000000;stroke-width:2.0px;stroke-linecap:butt;stroke-linejoin:miter;stroke-opacity:1"/>
<path class="bond-41" d="M 3005.99,214.148 L 3039.8,228.508" style="fill:none;fill-rule:evenodd;stroke:#000000;stroke-width:2.0px;stroke-linecap:butt;stroke-linejoin:miter;stroke-opacity:1"/>
<path class="bond-41" d="M 3039.8,228.508 L 3073.61,242.868" style="fill:none;fill-rule:evenodd;stroke:#FF0000;stroke-width:2.0px;stroke-linecap:butt;stroke-linejoin:miter;stroke-opacity:1"/>
<path class="bond-41" d="M 3012.9,197.886 L 3046.71,212.246" style="fill:none;fill-rule:evenodd;stroke:#000000;stroke-width:2.0px;stroke-linecap:butt;stroke-linejoin:miter;stroke-opacity:1"/>
<path class="bond-41" d="M 3046.71,212.246 L 3080.52,226.605" style="fill:none;fill-rule:evenodd;stroke:#FF0000;stroke-width:2.0px;stroke-linecap:butt;stroke-linejoin:miter;stroke-opacity:1"/>
<path class="bond-42" d="M 3009.44,206.017 L 3005,169.797" style="fill:none;fill-rule:evenodd;stroke:#000000;stroke-width:2.0px;stroke-linecap:butt;stroke-linejoin:miter;stroke-opacity:1"/>
<path class="bond-42" d="M 3005,169.797 L 3000.56,133.578" style="fill:none;fill-rule:evenodd;stroke:#FF0000;stroke-width:2.0px;stroke-linecap:butt;stroke-linejoin:miter;stroke-opacity:1"/>
<path class="atom-2" d="M 964.831 335.472 Q 964.831 329.465, 967.799 326.108 Q 970.768 322.75, 976.316 322.75 Q 981.864 322.75, 984.832 326.108 Q 987.8 329.465, 987.8 335.472 Q 987.8 341.55, 984.797 345.013 Q 981.793 348.441, 976.316 348.441 Q 970.803 348.441, 967.799 345.013 Q 964.831 341.585, 964.831 335.472 M 976.316 345.614 Q 980.132 345.614, 982.182 343.07 Q 984.267 340.49, 984.267 335.472 Q 984.267 330.56, 982.182 328.086 Q 980.132 325.577, 976.316 325.577 Q 972.499 325.577, 970.414 328.051 Q 968.365 330.525, 968.365 335.472 Q 968.365 340.525, 970.414 343.07 Q 972.499 345.614, 976.316 345.614 " fill="#FF0000"/>
<path class="atom-3" d="M 1041.34 202.956 Q 1041.34 196.949, 1044.31 193.592 Q 1047.28 190.235, 1052.82 190.235 Q 1058.37 190.235, 1061.34 193.592 Q 1064.31 196.949, 1064.31 202.956 Q 1064.31 209.035, 1061.3 212.498 Q 1058.3 215.925, 1052.82 215.925 Q 1047.31 215.925, 1044.31 212.498 Q 1041.34 209.07, 1041.34 202.956 M 1052.82 213.098 Q 1056.64 213.098, 1058.69 210.554 Q 1060.77 207.974, 1060.77 202.956 Q 1060.77 198.045, 1058.69 195.571 Q 1056.64 193.062, 1052.82 193.062 Q 1049.01 193.062, 1046.92 195.536 Q 1044.87 198.009, 1044.87 202.956 Q 1044.87 208.01, 1046.92 210.554 Q 1049.01 213.098, 1052.82 213.098 " fill="#FF0000"/>
<path class="atom-5" d="M 1117.85 335.472 Q 1117.85 329.465, 1120.82 326.108 Q 1123.78 322.75, 1129.33 322.75 Q 1134.88 322.75, 1137.85 326.108 Q 1140.82 329.465, 1140.82 335.472 Q 1140.82 341.55, 1137.81 345.013 Q 1134.81 348.441, 1129.33 348.441 Q 1123.82 348.441, 1120.82 345.013 Q 1117.85 341.585, 1117.85 335.472 M 1129.33 345.614 Q 1133.15 345.614, 1135.2 343.07 Q 1137.28 340.49, 1137.28 335.472 Q 1137.28 330.56, 1135.2 328.086 Q 1133.15 325.577, 1129.33 325.577 Q 1125.51 325.577, 1123.43 328.051 Q 1121.38 330.525, 1121.38 335.472 Q 1121.38 340.525, 1123.43 343.07 Q 1125.51 345.614, 1129.33 345.614 " fill="#FF0000"/>
<path class="atom-11" d="M 1438.94 227.074 L 1442.33 227.074 L 1442.33 237.711 L 1455.12 237.711 L 1455.12 227.074 L 1458.51 227.074 L 1458.51 252.093 L 1455.12 252.093 L 1455.12 240.538 L 1442.33 240.538 L 1442.33 252.093 L 1438.94 252.093 L 1438.94 227.074 " fill="#FF0000"/>
<path class="atom-11" d="M 1460.28 239.513 Q 1460.28 233.505, 1463.25 230.148 Q 1466.22 226.791, 1471.77 226.791 Q 1477.31 226.791, 1480.28 230.148 Q 1483.25 233.505, 1483.25 239.513 Q 1483.25 245.591, 1480.25 249.054 Q 1477.24 252.482, 1471.77 252.482 Q 1466.25 252.482, 1463.25 249.054 Q 1460.28 245.626, 1460.28 239.513 M 1471.77 249.655 Q 1475.58 249.655, 1477.63 247.11 Q 1479.72 244.531, 1479.72 239.513 Q 1479.72 234.601, 1477.63 232.127 Q 1475.58 229.618, 1471.77 229.618 Q 1467.95 229.618, 1465.86 232.092 Q 1463.81 234.566, 1463.81 239.513 Q 1463.81 244.566, 1465.86 247.11 Q 1467.95 249.655, 1471.77 249.655 " fill="#FF0000"/>
<path class="atom-15" d="M 1818.49 198.838 L 1826.69 212.09 Q 1827.5 213.397, 1828.81 215.765 Q 1830.12 218.133, 1830.19 218.274 L 1830.19 198.838 L 1833.51 198.838 L 1833.51 223.857 L 1830.08 223.857 L 1821.28 209.369 Q 1820.26 207.673, 1819.16 205.729 Q 1818.1 203.786, 1817.78 203.185 L 1817.78 223.857 L 1814.53 223.857 L 1814.53 198.838 L 1818.49 198.838 " fill="#0000FF"/>
<path class="atom-15" d="M 1835.61 203.348 L 1840.02 203.348 L 1840.02 198.707 L 1841.98 198.707 L 1841.98 203.348 L 1846.5 203.348 L 1846.5 205.027 L 1841.98 205.027 L 1841.98 209.692 L 1840.02 209.692 L 1840.02 205.027 L 1835.61 205.027 L 1835.61 203.348 " fill="#0000FF"/>
<path class="atom-16" d="M 1850.49 131.641 Q 1850.49 125.634, 1853.45 122.277 Q 1856.42 118.92, 1861.97 118.92 Q 1867.52 118.92, 1870.49 122.277 Q 1873.46 125.634, 1873.46 131.641 Q 1873.46 137.719, 1870.45 141.182 Q 1867.45 144.61, 1861.97 144.61 Q 1856.46 144.61, 1853.45 141.182 Q 1850.49 137.754, 1850.49 131.641 M 1861.97 141.783 Q 1865.79 141.783, 1867.84 139.239 Q 1869.92 136.659, 1869.92 131.641 Q 1869.92 126.729, 1867.84 124.255 Q 1865.79 121.747, 1861.97 121.747 Q 1858.15 121.747, 1856.07 124.22 Q 1854.02 126.694, 1854.02 131.641 Q 1854.02 136.694, 1856.07 139.239 Q 1858.15 141.783, 1861.97 141.783 " fill="#FF0000"/>
<path class="atom-17" d="M 1862.65 284.172 Q 1862.65 278.165, 1865.62 274.808 Q 1868.59 271.451, 1874.14 271.451 Q 1879.68 271.451, 1882.65 274.808 Q 1885.62 278.165, 1885.62 284.172 Q 1885.62 290.25, 1882.62 293.714 Q 1879.61 297.141, 1874.14 297.141 Q 1868.62 297.141, 1865.62 293.714 Q 1862.65 290.286, 1862.65 284.172 M 1874.14 294.314 Q 1877.95 294.314, 1880 291.77 Q 1882.09 289.19, 1882.09 284.172 Q 1882.09 279.26, 1880 276.787 Q 1877.95 274.278, 1874.14 274.278 Q 1870.32 274.278, 1868.23 276.752 Q 1866.19 279.225, 1866.19 284.172 Q 1866.19 289.226, 1868.23 291.77 Q 1870.32 294.314, 1874.14 294.314 " fill="#FF0000"/>
<path class="atom-17" d="M 1886.79 275.535 L 1895.35 275.535 L 1895.35 277.4 L 1886.79 277.4 L 1886.79 275.535 " fill="#FF0000"/>
<path class="atom-18" d="M 1698.69 450.751 Q 1698.69 444.744, 1701.66 441.386 Q 1704.63 438.029, 1710.17 438.029 Q 1715.72 438.029, 1718.69 441.386 Q 1721.66 444.744, 1721.66 450.751 Q 1721.66 456.829, 1718.65 460.292 Q 1715.65 463.72, 1710.17 463.72 Q 1704.66 463.72, 1701.66 460.292 Q 1698.69 456.864, 1698.69 450.751 M 1710.17 460.893 Q 1713.99 460.893, 1716.04 458.348 Q 1718.12 455.769, 1718.12 450.751 Q 1718.12 445.839, 1716.04 443.365 Q 1713.99 440.856, 1710.17 440.856 Q 1706.36 440.856, 1704.27 443.33 Q 1702.22 445.804, 1702.22 450.751 Q 1702.22 455.804, 1704.27 458.348 Q 1706.36 460.893, 1710.17 460.893 " fill="#FF0000"/>
<path class="atom-20" d="M 2920.06 346.962 Q 2920.06 340.743, 2922.95 337.492 Q 2925.89 334.206, 2931.44 334.206 Q 2936.59 334.206, 2939.35 337.845 L 2937.02 339.754 Q 2935 337.103, 2931.44 337.103 Q 2927.65 337.103, 2925.64 339.648 Q 2923.66 342.157, 2923.66 346.962 Q 2923.66 351.91, 2925.71 354.454 Q 2927.8 356.998, 2931.82 356.998 Q 2934.58 356.998, 2937.8 355.337 L 2938.79 357.988 Q 2937.48 358.836, 2935.5 359.331 Q 2933.52 359.825, 2931.33 359.825 Q 2925.89 359.825, 2922.95 356.504 Q 2920.06 353.182, 2920.06 346.962 " fill="#000000"/>
<path class="atom-20" d="M 2942 355.373 L 2945.54 355.373 L 2945.54 358.906 L 2942 358.906 L 2942 355.373 M 2942 343.217 L 2945.54 343.217 L 2945.54 346.75 L 2942 346.75 L 2942 343.217 " fill="#000000"/>
<path class="atom-20" d="M 2947.37 339.224 Q 2948.29 336.856, 2950.48 335.548 Q 2952.67 334.206, 2955.71 334.206 Q 2959.49 334.206, 2961.61 336.255 Q 2963.73 338.305, 2963.73 341.945 Q 2963.73 345.655, 2960.98 349.118 Q 2958.26 352.581, 2952.6 356.68 L 2964.16 356.68 L 2964.16 359.507 L 2947.3 359.507 L 2947.3 357.14 Q 2951.97 353.818, 2954.72 351.344 Q 2957.51 348.871, 2958.86 346.644 Q 2960.2 344.418, 2960.2 342.121 Q 2960.2 339.718, 2959 338.375 Q 2957.8 337.033, 2955.71 337.033 Q 2953.7 337.033, 2952.36 337.845 Q 2951.01 338.658, 2950.06 340.46 L 2947.37 339.224 " fill="#000000"/>
<path class="atom-21" d="M 2849.6 400.114 Q 2849.6 393.895, 2852.5 390.644 Q 2855.43 387.358, 2860.98 387.358 Q 2866.14 387.358, 2868.89 390.997 L 2866.56 392.906 Q 2864.55 390.255, 2860.98 390.255 Q 2857.2 390.255, 2855.18 392.8 Q 2853.2 395.308, 2853.2 400.114 Q 2853.2 405.062, 2855.25 407.606 Q 2857.34 410.15, 2861.37 410.15 Q 2864.12 410.15, 2867.34 408.489 L 2868.33 411.14 Q 2867.02 411.988, 2865.04 412.483 Q 2863.06 412.977, 2860.87 412.977 Q 2855.43 412.977, 2852.5 409.656 Q 2849.6 406.334, 2849.6 400.114 " fill="#000000"/>
<path class="atom-21" d="M 2871.55 408.525 L 2875.08 408.525 L 2875.08 412.058 L 2871.55 412.058 L 2871.55 408.525 M 2871.55 396.369 L 2875.08 396.369 L 2875.08 399.902 L 2871.55 399.902 L 2871.55 396.369 " fill="#000000"/>
<path class="atom-21" d="M 2888.58 399.478 Q 2891.02 400.185, 2892.18 401.775 Q 2893.38 403.33, 2893.38 405.804 Q 2893.38 407.924, 2892.32 409.585 Q 2891.26 411.21, 2889.32 412.129 Q 2887.38 413.013, 2884.83 413.013 Q 2882.15 413.013, 2880.13 412.094 Q 2878.15 411.14, 2876.56 409.231 L 2878.58 407.182 Q 2880.13 408.878, 2881.44 409.549 Q 2882.75 410.186, 2884.83 410.186 Q 2887.09 410.186, 2888.47 408.984 Q 2889.85 407.747, 2889.85 405.768 Q 2889.85 403.224, 2888.4 402.093 Q 2886.99 400.927, 2883.91 400.927 L 2882.11 400.927 L 2882.11 398.383 L 2883.7 398.383 Q 2886.42 398.348, 2887.87 397.181 Q 2889.32 395.98, 2889.32 393.754 Q 2889.32 392.128, 2888.12 391.174 Q 2886.92 390.185, 2884.87 390.185 Q 2882.78 390.185, 2881.47 390.927 Q 2880.2 391.669, 2879.21 393.542 L 2876.78 392.234 Q 2877.66 390.149, 2879.78 388.771 Q 2881.9 387.358, 2884.87 387.358 Q 2888.54 387.358, 2890.7 389.089 Q 2892.85 390.821, 2892.85 393.754 Q 2892.85 395.768, 2891.76 397.217 Q 2890.66 398.666, 2888.58 399.478 " fill="#000000"/>
<path class="atom-22" d="M 2761.58 365.579 Q 2761.58 359.36, 2764.48 356.109 Q 2767.41 352.822, 2772.96 352.822 Q 2778.12 352.822, 2780.87 356.462 L 2778.54 358.37 Q 2776.53 355.72, 2772.96 355.72 Q 2769.18 355.72, 2767.16 358.264 Q 2765.18 360.773, 2765.18 365.579 Q 2765.18 370.526, 2767.23 373.07 Q 2769.32 375.615, 2773.35 375.615 Q 2776.1 375.615, 2779.32 373.954 L 2780.31 376.604 Q 2779 377.452, 2777.02 377.947 Q 2775.04 378.442, 2772.85 378.442 Q 2767.41 378.442, 2764.48 375.12 Q 2761.58 371.798, 2761.58 365.579 " fill="#000000"/>
<path class="atom-22" d="M 2783.52 373.989 L 2787.06 373.989 L 2787.06 377.523 L 2783.52 377.523 L 2783.52 373.989 M 2783.52 361.833 L 2787.06 361.833 L 2787.06 365.367 L 2783.52 365.367 L 2783.52 361.833 " fill="#000000"/>
<path class="atom-22" d="M 2804.37 369.537 L 2807.38 369.537 L 2807.38 372.364 L 2804.37 372.364 L 2804.37 378.124 L 2801.05 378.124 L 2801.05 372.364 L 2788.12 372.364 L 2788.12 370.137 L 2799.07 353.105 L 2804.37 353.105 L 2804.37 369.537 M 2792.22 369.537 L 2801.05 369.537 L 2801.05 355.366 L 2792.22 369.537 " fill="#000000"/>
<path class="atom-23" d="M 2757.45 277.892 Q 2757.45 271.672, 2760.35 268.421 Q 2763.28 265.135, 2768.83 265.135 Q 2773.99 265.135, 2776.74 268.774 L 2774.41 270.683 Q 2772.4 268.032, 2768.83 268.032 Q 2765.04 268.032, 2763.03 270.577 Q 2761.05 273.086, 2761.05 277.892 Q 2761.05 282.839, 2763.1 285.383 Q 2765.19 287.927, 2769.21 287.927 Q 2771.97 287.927, 2775.19 286.267 L 2776.18 288.917 Q 2774.87 289.765, 2772.89 290.26 Q 2770.91 290.754, 2768.72 290.754 Q 2763.28 290.754, 2760.35 287.433 Q 2757.45 284.111, 2757.45 277.892 " fill="#000000"/>
<path class="atom-23" d="M 2779.39 286.302 L 2782.93 286.302 L 2782.93 289.836 L 2779.39 289.836 L 2779.39 286.302 M 2779.39 274.146 L 2782.93 274.146 L 2782.93 277.68 L 2779.39 277.68 L 2779.39 274.146 " fill="#000000"/>
<path class="atom-23" d="M 2793.63 274.782 Q 2795.82 274.782, 2797.63 275.736 Q 2799.43 276.655, 2800.45 278.422 Q 2801.48 280.153, 2801.48 282.521 Q 2801.48 285.1, 2800.21 286.973 Q 2798.97 288.811, 2796.92 289.765 Q 2794.87 290.719, 2792.54 290.719 Q 2790.24 290.719, 2788.12 289.871 Q 2786 289.023, 2784.55 287.397 L 2786.67 285.206 Q 2787.84 286.479, 2789.43 287.185 Q 2791.02 287.857, 2792.64 287.857 Q 2794.87 287.857, 2796.39 286.479 Q 2797.94 285.1, 2797.94 282.591 Q 2797.94 279.941, 2796.39 278.704 Q 2794.87 277.432, 2792.43 277.432 Q 2790.24 277.432, 2787.8 278.386 L 2785.86 277.468 L 2787.06 265.417 L 2799.92 265.417 L 2799.57 268.244 L 2789.96 268.244 L 2789.22 275.665 Q 2791.44 274.782, 2793.63 274.782 " fill="#000000"/>
<path class="atom-24" d="M 2675.7 243.356 Q 2675.7 237.137, 2678.6 233.886 Q 2681.53 230.599, 2687.08 230.599 Q 2692.24 230.599, 2694.99 234.239 L 2692.66 236.147 Q 2690.65 233.497, 2687.08 233.497 Q 2683.3 233.497, 2681.28 236.041 Q 2679.3 238.55, 2679.3 243.356 Q 2679.3 248.303, 2681.35 250.848 Q 2683.44 253.392, 2687.47 253.392 Q 2690.22 253.392, 2693.44 251.731 L 2694.43 254.381 Q 2693.12 255.23, 2691.14 255.724 Q 2689.16 256.219, 2686.97 256.219 Q 2681.53 256.219, 2678.6 252.897 Q 2675.7 249.576, 2675.7 243.356 " fill="#000000"/>
<path class="atom-24" d="M 2697.64 251.766 L 2701.18 251.766 L 2701.18 255.3 L 2697.64 255.3 L 2697.64 251.766 M 2697.64 239.61 L 2701.18 239.61 L 2701.18 243.144 L 2697.64 243.144 L 2697.64 239.61 " fill="#000000"/>
<path class="atom-24" d="M 2713.37 240.282 Q 2715.56 240.282, 2717.29 241.236 Q 2719.02 242.19, 2719.98 243.922 Q 2720.93 245.653, 2720.93 247.844 Q 2720.93 250.282, 2719.83 252.19 Q 2718.77 254.063, 2716.87 255.124 Q 2714.96 256.184, 2712.52 256.184 Q 2708.07 256.184, 2705.81 253.18 Q 2703.58 250.141, 2703.58 244.134 Q 2703.58 237.49, 2706.34 234.062 Q 2709.13 230.599, 2714.46 230.599 Q 2716.02 230.599, 2717.33 230.953 Q 2718.67 231.306, 2719.94 232.048 L 2718.56 234.416 Q 2716.72 233.426, 2714.5 233.426 Q 2710.96 233.426, 2709.16 235.723 Q 2707.36 237.985, 2707.15 242.685 Q 2708.42 241.519, 2710.01 240.918 Q 2711.64 240.282, 2713.37 240.282 M 2712.55 253.286 Q 2713.9 253.286, 2714.99 252.579 Q 2716.12 251.872, 2716.76 250.636 Q 2717.4 249.399, 2717.4 247.879 Q 2717.4 245.653, 2716.16 244.381 Q 2714.92 243.109, 2712.73 243.109 Q 2711.21 243.109, 2709.69 243.745 Q 2708.21 244.346, 2707.15 245.406 Q 2707.29 249.54, 2708.6 251.413 Q 2709.9 253.286, 2712.55 253.286 " fill="#000000"/>
<path class="atom-29" d="M 2439.51 52.0271 Q 2439.51 46.0197, 2442.48 42.6627 Q 2445.45 39.3056, 2451 39.3056 Q 2456.54 39.3056, 2459.51 42.6627 Q 2462.48 46.0197, 2462.48 52.0271 Q 2462.48 58.1051, 2459.48 61.5682 Q 2456.47 64.9959, 2451 64.9959 Q 2445.48 64.9959, 2442.48 61.5682 Q 2439.51 58.1405, 2439.51 52.0271 M 2451 62.1689 Q 2454.81 62.1689, 2456.86 59.6246 Q 2458.95 57.045, 2458.95 52.0271 Q 2458.95 47.1152, 2456.86 44.6415 Q 2454.81 42.1326, 2451 42.1326 Q 2447.18 42.1326, 2445.09 44.6062 Q 2443.04 47.0798, 2443.04 52.0271 Q 2443.04 57.0803, 2445.09 59.6246 Q 2447.18 62.1689, 2451 62.1689 " fill="#FF0000"/>
<path class="atom-29" d="M 2465.48 39.5883 L 2468.88 39.5883 L 2468.88 50.2249 L 2481.67 50.2249 L 2481.67 39.5883 L 2485.06 39.5883 L 2485.06 64.6072 L 2481.67 64.6072 L 2481.67 53.0519 L 2468.88 53.0519 L 2468.88 64.6072 L 2465.48 64.6072 L 2465.48 39.5883 " fill="#FF0000"/>
<path class="atom-33" d="M 2488.46 390.197 L 2496.66 403.448 Q 2497.47 404.756, 2498.78 407.123 Q 2500.08 409.491, 2500.15 409.632 L 2500.15 390.197 L 2503.48 390.197 L 2503.48 415.215 L 2500.05 415.215 L 2491.25 400.727 Q 2490.23 399.031, 2489.13 397.087 Q 2488.07 395.144, 2487.75 394.543 L 2487.75 415.215 L 2484.5 415.215 L 2484.5 390.197 L 2488.46 390.197 " fill="#0000FF"/>
<path class="atom-33" d="M 2505.58 394.706 L 2509.98 394.706 L 2509.98 390.065 L 2511.94 390.065 L 2511.94 394.706 L 2516.47 394.706 L 2516.47 396.386 L 2511.94 396.386 L 2511.94 401.05 L 2509.98 401.05 L 2509.98 396.386 L 2505.58 396.386 L 2505.58 394.706 " fill="#0000FF"/>
<path class="atom-34" d="M 2411.94 455.929 Q 2411.94 449.921, 2414.91 446.564 Q 2417.88 443.207, 2423.42 443.207 Q 2428.97 443.207, 2431.94 446.564 Q 2434.91 449.921, 2434.91 455.929 Q 2434.91 462.007, 2431.9 465.47 Q 2428.9 468.897, 2423.42 468.897 Q 2417.91 468.897, 2414.91 465.47 Q 2411.94 462.042, 2411.94 455.929 M 2423.42 466.07 Q 2427.24 466.07, 2429.29 463.526 Q 2431.37 460.947, 2431.37 455.929 Q 2431.37 451.017, 2429.29 448.543 Q 2427.24 446.034, 2423.42 446.034 Q 2419.61 446.034, 2417.52 448.508 Q 2415.47 450.981, 2415.47 455.929 Q 2415.47 460.982, 2417.52 463.526 Q 2419.61 466.07, 2423.42 466.07 " fill="#FF0000"/>
<path class="atom-35" d="M 2563.82 437.312 Q 2563.82 431.305, 2566.79 427.948 Q 2569.75 424.591, 2575.3 424.591 Q 2580.85 424.591, 2583.82 427.948 Q 2586.79 431.305, 2586.79 437.312 Q 2586.79 443.39, 2583.78 446.853 Q 2580.78 450.281, 2575.3 450.281 Q 2569.79 450.281, 2566.79 446.853 Q 2563.82 443.425, 2563.82 437.312 M 2575.3 447.454 Q 2579.12 447.454, 2581.17 444.91 Q 2583.25 442.33, 2583.25 437.312 Q 2583.25 432.4, 2581.17 429.927 Q 2579.12 427.418, 2575.3 427.418 Q 2571.49 427.418, 2569.4 429.891 Q 2567.35 432.365, 2567.35 437.312 Q 2567.35 442.365, 2569.4 444.91 Q 2571.49 447.454, 2575.3 447.454 " fill="#FF0000"/>
<path class="atom-35" d="M 2587.95 428.674 L 2596.51 428.674 L 2596.51 430.54 L 2587.95 430.54 L 2587.95 428.674 " fill="#FF0000"/>
<path class="atom-36" d="M 2656.26 155.669 Q 2656.26 149.449, 2659.16 146.198 Q 2662.09 142.912, 2667.64 142.912 Q 2672.8 142.912, 2675.56 146.552 L 2673.23 148.46 Q 2671.21 145.81, 2667.64 145.81 Q 2663.86 145.81, 2661.85 148.354 Q 2659.87 150.863, 2659.87 155.669 Q 2659.87 160.616, 2661.92 163.16 Q 2664 165.705, 2668.03 165.705 Q 2670.79 165.705, 2674 164.044 L 2674.99 166.694 Q 2673.69 167.542, 2671.71 168.037 Q 2669.73 168.532, 2667.54 168.532 Q 2662.09 168.532, 2659.16 165.21 Q 2656.26 161.888, 2656.26 155.669 " fill="#000000"/>
<path class="atom-36" d="M 2678.21 164.079 L 2681.74 164.079 L 2681.74 167.613 L 2678.21 167.613 L 2678.21 164.079 M 2678.21 151.923 L 2681.74 151.923 L 2681.74 155.457 L 2678.21 155.457 L 2678.21 151.923 " fill="#000000"/>
<path class="atom-36" d="M 2685.03 165.387 L 2690.51 165.387 L 2690.51 146.693 L 2684.46 148.566 L 2683.65 146.481 L 2691.32 143.053 L 2693.83 143.477 L 2693.83 165.387 L 2698.74 165.387 L 2698.74 168.214 L 2685.03 168.214 L 2685.03 165.387 " fill="#000000"/>
<path class="atom-36" d="M 2713.69 154.962 Q 2715.98 155.951, 2717.29 157.436 Q 2718.6 158.884, 2718.6 161.358 Q 2718.6 163.478, 2717.5 165.139 Q 2716.41 166.765, 2714.43 167.683 Q 2712.49 168.567, 2709.91 168.567 Q 2705.74 168.567, 2703.33 166.659 Q 2700.93 164.715, 2700.93 161.358 Q 2700.93 159.308, 2701.99 157.789 Q 2703.05 156.234, 2705.24 155.068 Q 2703.62 154.149, 2702.73 152.806 Q 2701.85 151.428, 2701.85 149.308 Q 2701.85 146.375, 2703.97 144.643 Q 2706.13 142.912, 2709.76 142.912 Q 2713.4 142.912, 2715.52 144.643 Q 2717.68 146.375, 2717.68 149.308 Q 2717.68 151.146, 2716.66 152.524 Q 2715.67 153.867, 2713.69 154.962 M 2709.76 145.562 Q 2707.68 145.562, 2706.51 146.552 Q 2705.38 147.541, 2705.38 149.308 Q 2705.38 150.615, 2706.16 151.499 Q 2706.94 152.347, 2708.03 152.842 Q 2709.16 153.336, 2711.32 154.079 Q 2712.84 153.018, 2713.48 151.888 Q 2714.15 150.757, 2714.15 149.308 Q 2714.15 147.541, 2712.98 146.552 Q 2711.85 145.562, 2709.76 145.562 M 2709.91 165.917 Q 2712.24 165.917, 2713.65 164.68 Q 2715.07 163.408, 2715.07 161.323 Q 2715.07 159.98, 2714.32 159.132 Q 2713.58 158.284, 2712.45 157.789 Q 2711.36 157.294, 2709.38 156.658 L 2707.79 156.128 Q 2706.02 157.188, 2705.24 158.46 Q 2704.46 159.697, 2704.46 161.323 Q 2704.46 163.408, 2705.95 164.68 Q 2707.43 165.917, 2709.91 165.917 " fill="#000000"/>
<path class="atom-37" d="M 2602.14 121.098 Q 2602.14 115.091, 2605.11 111.734 Q 2608.07 108.376, 2613.62 108.376 Q 2619.17 108.376, 2622.14 111.734 Q 2625.11 115.091, 2625.11 121.098 Q 2625.11 127.176, 2622.1 130.639 Q 2619.1 134.067, 2613.62 134.067 Q 2608.11 134.067, 2605.11 130.639 Q 2602.14 127.211, 2602.14 121.098 M 2613.62 131.24 Q 2617.44 131.24, 2619.49 128.696 Q 2621.57 126.116, 2621.57 121.098 Q 2621.57 116.186, 2619.49 113.712 Q 2617.44 111.203, 2613.62 111.203 Q 2609.81 111.203, 2607.72 113.677 Q 2605.67 116.151, 2605.67 121.098 Q 2605.67 126.151, 2607.72 128.696 Q 2609.81 131.24, 2613.62 131.24 " fill="#FF0000"/>
<path class="atom-38" d="M 2754.02 102.481 Q 2754.02 96.4741, 2756.99 93.117 Q 2759.95 89.7599, 2765.5 89.7599 Q 2771.05 89.7599, 2774.02 93.117 Q 2776.99 96.4741, 2776.99 102.481 Q 2776.99 108.559, 2773.98 112.023 Q 2770.98 115.45, 2765.5 115.45 Q 2759.99 115.45, 2756.99 112.023 Q 2754.02 108.595, 2754.02 102.481 M 2765.5 112.623 Q 2769.32 112.623, 2771.37 110.079 Q 2773.45 107.499, 2773.45 102.481 Q 2773.45 97.5695, 2771.37 95.0959 Q 2769.32 92.5869, 2765.5 92.5869 Q 2761.69 92.5869, 2759.6 95.0606 Q 2757.55 97.5342, 2757.55 102.481 Q 2757.55 107.535, 2759.6 110.079 Q 2761.69 112.623, 2765.5 112.623 " fill="#FF0000"/>
<path class="atom-38" d="M 2779.99 90.0426 L 2783.38 90.0426 L 2783.38 100.679 L 2796.17 100.679 L 2796.17 90.0426 L 2799.57 90.0426 L 2799.57 115.062 L 2796.17 115.062 L 2796.17 103.506 L 2783.38 103.506 L 2783.38 115.062 L 2779.99 115.062 L 2779.99 90.0426 " fill="#FF0000"/>
<path class="atom-40" d="M 2837.17 137.052 Q 2837.17 130.833, 2840.07 127.582 Q 2843 124.295, 2848.55 124.295 Q 2853.71 124.295, 2856.46 127.935 L 2854.13 129.843 Q 2852.12 127.193, 2848.55 127.193 Q 2844.77 127.193, 2842.75 129.737 Q 2840.77 132.246, 2840.77 137.052 Q 2840.77 141.999, 2842.82 144.544 Q 2844.91 147.088, 2848.94 147.088 Q 2851.69 147.088, 2854.91 145.427 L 2855.9 148.077 Q 2854.59 148.926, 2852.61 149.42 Q 2850.63 149.915, 2848.44 149.915 Q 2843 149.915, 2840.07 146.593 Q 2837.17 143.272, 2837.17 137.052 " fill="#000000"/>
<path class="atom-40" d="M 2859.11 145.463 L 2862.65 145.463 L 2862.65 148.996 L 2859.11 148.996 L 2859.11 145.463 M 2859.11 133.306 L 2862.65 133.306 L 2862.65 136.84 L 2859.11 136.84 L 2859.11 133.306 " fill="#000000"/>
<path class="atom-40" d="M 2864.48 129.313 Q 2865.4 126.946, 2867.59 125.638 Q 2869.78 124.295, 2872.82 124.295 Q 2876.6 124.295, 2878.73 126.345 Q 2880.85 128.395, 2880.85 132.034 Q 2880.85 135.745, 2878.09 139.208 Q 2875.37 142.671, 2869.71 146.77 L 2881.27 146.77 L 2881.27 149.597 L 2864.41 149.597 L 2864.41 147.229 Q 2869.08 143.908, 2871.83 141.434 Q 2874.63 138.96, 2875.97 136.734 Q 2877.31 134.508, 2877.31 132.211 Q 2877.31 129.808, 2876.11 128.465 Q 2874.91 127.122, 2872.82 127.122 Q 2870.81 127.122, 2869.47 127.935 Q 2868.12 128.748, 2867.17 130.55 L 2864.48 129.313 " fill="#000000"/>
<path class="atom-40" d="M 2883.11 129.313 Q 2884.03 126.946, 2886.22 125.638 Q 2888.41 124.295, 2891.45 124.295 Q 2895.23 124.295, 2897.35 126.345 Q 2899.47 128.395, 2899.47 132.034 Q 2899.47 135.745, 2896.71 139.208 Q 2893.99 142.671, 2888.34 146.77 L 2899.89 146.77 L 2899.89 149.597 L 2883.04 149.597 L 2883.04 147.229 Q 2887.7 143.908, 2890.46 141.434 Q 2893.25 138.96, 2894.59 136.734 Q 2895.93 134.508, 2895.93 132.211 Q 2895.93 129.808, 2894.73 128.465 Q 2893.53 127.122, 2891.45 127.122 Q 2889.43 127.122, 2888.09 127.935 Q 2886.75 128.748, 2885.79 130.55 L 2883.11 129.313 " fill="#000000"/>
<path class="atom-43" d="M 3079.27 240.623 Q 3079.27 234.616, 3082.24 231.259 Q 3085.21 227.902, 3090.76 227.902 Q 3096.3 227.902, 3099.27 231.259 Q 3102.24 234.616, 3102.24 240.623 Q 3102.24 246.701, 3099.24 250.164 Q 3096.23 253.592, 3090.76 253.592 Q 3085.24 253.592, 3082.24 250.164 Q 3079.27 246.737, 3079.27 240.623 M 3090.76 250.765 Q 3094.57 250.765, 3096.62 248.221 Q 3098.71 245.641, 3098.71 240.623 Q 3098.71 235.711, 3096.62 233.238 Q 3094.57 230.729, 3090.76 230.729 Q 3086.94 230.729, 3084.85 233.202 Q 3082.81 235.676, 3082.81 240.623 Q 3082.81 245.676, 3084.85 248.221 Q 3086.94 250.765, 3090.76 250.765 " fill="#FF0000"/>
<path class="atom-44" d="M 2987.21 118.4 Q 2987.21 112.393, 2990.18 109.036 Q 2993.15 105.679, 2998.69 105.679 Q 3004.24 105.679, 3007.21 109.036 Q 3010.18 112.393, 3010.18 118.4 Q 3010.18 124.478, 3007.18 127.941 Q 3004.17 131.369, 2998.69 131.369 Q 2993.18 131.369, 2990.18 127.941 Q 2987.21 124.514, 2987.21 118.4 M 2998.69 128.542 Q 3002.51 128.542, 3004.56 125.998 Q 3006.65 123.418, 3006.65 118.4 Q 3006.65 113.488, 3004.56 111.015 Q 3002.51 108.506, 2998.69 108.506 Q 2994.88 108.506, 2992.79 110.979 Q 2990.74 113.453, 2990.74 118.4 Q 2990.74 123.454, 2992.79 125.998 Q 2994.88 128.542, 2998.69 128.542 " fill="#FF0000"/>
<path class="atom-44" d="M 3013.18 105.962 L 3016.58 105.962 L 3016.58 116.598 L 3029.37 116.598 L 3029.37 105.962 L 3032.76 105.962 L 3032.76 130.98 L 3029.37 130.98 L 3029.37 119.425 L 3016.58 119.425 L 3016.58 130.98 L 3013.18 130.98 L 3013.18 105.962 " fill="#FF0000"/>
<path class="note" d="M 889.363 220.514 L 892.101 220.514 L 892.101 211.167 L 889.08 212.103 L 888.674 211.061 L 892.508 209.347 L 893.762 209.559 L 893.762 220.514 L 896.218 220.514 L 896.218 221.927 L 889.363 221.927 L 889.363 220.514 " fill="#000000"/>
<path class="note" d="M 937.341 257.965 Q 937.8 256.781, 938.896 256.128 Q 939.991 255.456, 941.51 255.456 Q 943.401 255.456, 944.461 256.481 Q 945.521 257.506, 945.521 259.326 Q 945.521 261.181, 944.143 262.912 Q 942.783 264.644, 939.956 266.693 L 945.733 266.693 L 945.733 268.107 L 937.305 268.107 L 937.305 266.923 Q 939.638 265.262, 941.016 264.025 Q 942.412 262.789, 943.083 261.676 Q 943.754 260.562, 943.754 259.414 Q 943.754 258.212, 943.154 257.541 Q 942.553 256.87, 941.51 256.87 Q 940.503 256.87, 939.832 257.276 Q 939.161 257.682, 938.684 258.584 L 937.341 257.965 " fill="#000000"/>
<path class="note" d="M 954.391 263.813 L 955.893 263.813 L 955.893 265.227 L 954.391 265.227 L 954.391 268.107 L 952.73 268.107 L 952.73 265.227 L 946.263 265.227 L 946.263 264.114 L 951.741 255.598 L 954.391 255.598 L 954.391 263.813 M 948.313 263.813 L 952.73 263.813 L 952.73 256.728 L 948.313 263.813 " fill="#000000"/>
<path class="note" d="M 963.285 361.033 Q 963.744 359.849, 964.84 359.195 Q 965.935 358.524, 967.455 358.524 Q 969.345 358.524, 970.406 359.549 Q 971.466 360.573, 971.466 362.393 Q 971.466 364.248, 970.087 365.98 Q 968.727 367.712, 965.9 369.761 L 971.678 369.761 L 971.678 371.175 L 963.25 371.175 L 963.25 369.991 Q 965.582 368.33, 966.96 367.093 Q 968.356 365.856, 969.027 364.743 Q 969.699 363.63, 969.699 362.482 Q 969.699 361.28, 969.098 360.609 Q 968.497 359.937, 967.455 359.937 Q 966.448 359.937, 965.776 360.344 Q 965.105 360.75, 964.628 361.651 L 963.285 361.033 " fill="#000000"/>
<path class="note" d="M 977.031 363.347 Q 978.127 363.347, 979.028 363.824 Q 979.929 364.284, 980.441 365.167 Q 980.954 366.033, 980.954 367.217 Q 980.954 368.507, 980.318 369.443 Q 979.699 370.362, 978.674 370.839 Q 977.65 371.316, 976.484 371.316 Q 975.335 371.316, 974.275 370.892 Q 973.215 370.468, 972.49 369.655 L 973.551 368.56 Q 974.134 369.196, 974.929 369.549 Q 975.724 369.885, 976.537 369.885 Q 977.65 369.885, 978.409 369.196 Q 979.187 368.507, 979.187 367.252 Q 979.187 365.927, 978.409 365.309 Q 977.65 364.673, 976.431 364.673 Q 975.335 364.673, 974.116 365.15 L 973.144 364.69 L 973.745 358.665 L 980.176 358.665 L 980 360.079 L 975.194 360.079 L 974.823 363.789 Q 975.936 363.347, 977.031 363.347 " fill="#000000"/>
<path class="note" d="M 1039.49 169.621 Q 1039.95 168.438, 1041.05 167.784 Q 1042.14 167.112, 1043.66 167.112 Q 1045.55 167.112, 1046.61 168.137 Q 1047.67 169.162, 1047.67 170.982 Q 1047.67 172.837, 1046.29 174.569 Q 1044.93 176.3, 1042.11 178.35 L 1047.89 178.35 L 1047.89 179.763 L 1039.46 179.763 L 1039.46 178.579 Q 1041.79 176.919, 1043.17 175.682 Q 1044.56 174.445, 1045.23 173.332 Q 1045.91 172.219, 1045.91 171.07 Q 1045.91 169.869, 1045.31 169.197 Q 1044.7 168.526, 1043.66 168.526 Q 1042.66 168.526, 1041.98 168.932 Q 1041.31 169.339, 1040.84 170.24 L 1039.49 169.621 " fill="#000000"/>
<path class="note" d="M 1053.98 171.954 Q 1055.08 171.954, 1055.94 172.431 Q 1056.81 172.908, 1057.28 173.774 Q 1057.76 174.639, 1057.76 175.735 Q 1057.76 176.954, 1057.21 177.908 Q 1056.68 178.845, 1055.73 179.375 Q 1054.78 179.905, 1053.56 179.905 Q 1051.33 179.905, 1050.2 178.403 Q 1049.09 176.883, 1049.09 173.88 Q 1049.09 170.558, 1050.46 168.844 Q 1051.86 167.112, 1054.53 167.112 Q 1055.31 167.112, 1055.96 167.289 Q 1056.63 167.466, 1057.27 167.837 L 1056.58 169.021 Q 1055.66 168.526, 1054.55 168.526 Q 1052.78 168.526, 1051.88 169.674 Q 1050.98 170.805, 1050.87 173.155 Q 1051.51 172.572, 1052.3 172.272 Q 1053.12 171.954, 1053.98 171.954 M 1053.57 178.456 Q 1054.25 178.456, 1054.79 178.102 Q 1055.36 177.749, 1055.68 177.131 Q 1056 176.512, 1056 175.753 Q 1056 174.639, 1055.38 174.003 Q 1054.76 173.367, 1053.66 173.367 Q 1052.9 173.367, 1052.14 173.685 Q 1051.4 173.986, 1050.87 174.516 Q 1050.94 176.583, 1051.6 177.519 Q 1052.25 178.456, 1053.57 178.456 " fill="#000000"/>
<path class="note" d="M 1091.19 257.965 Q 1091.65 256.781, 1092.74 256.128 Q 1093.84 255.456, 1095.36 255.456 Q 1097.25 255.456, 1098.31 256.481 Q 1099.37 257.506, 1099.37 259.326 Q 1099.37 261.181, 1097.99 262.912 Q 1096.63 264.644, 1093.8 266.693 L 1099.58 266.693 L 1099.58 268.107 L 1091.15 268.107 L 1091.15 266.923 Q 1093.48 265.262, 1094.86 264.025 Q 1096.26 262.789, 1096.93 261.676 Q 1097.6 260.562, 1097.6 259.414 Q 1097.6 258.212, 1097 257.541 Q 1096.4 256.87, 1095.36 256.87 Q 1094.35 256.87, 1093.68 257.276 Q 1093.01 257.682, 1092.53 258.584 L 1091.19 257.965 " fill="#000000"/>
<path class="note" d="M 1101.22 266.693 L 1103.96 266.693 L 1103.96 257.347 L 1100.94 258.283 L 1100.53 257.241 L 1104.37 255.527 L 1105.62 255.739 L 1105.62 266.693 L 1108.08 266.693 L 1108.08 268.107 L 1101.22 268.107 L 1101.22 266.693 " fill="#000000"/>
<path class="note" d="M 1117.65 369.761 L 1120.39 369.761 L 1120.39 360.414 L 1117.37 361.351 L 1116.96 360.308 L 1120.8 358.594 L 1122.05 358.806 L 1122.05 369.761 L 1124.51 369.761 L 1124.51 371.175 L 1117.65 371.175 L 1117.65 369.761 " fill="#000000"/>
<path class="note" d="M 1129.68 358.524 Q 1131.91 358.524, 1133.02 360.043 Q 1134.16 361.545, 1134.16 364.549 Q 1134.16 367.871, 1132.76 369.602 Q 1131.38 371.316, 1128.71 371.316 Q 1127.94 371.316, 1127.26 371.139 Q 1126.61 370.963, 1125.97 370.592 L 1126.66 369.408 Q 1127.58 369.902, 1128.7 369.902 Q 1130.46 369.902, 1131.36 368.772 Q 1132.26 367.623, 1132.37 365.273 Q 1131.73 365.856, 1130.92 366.174 Q 1130.13 366.475, 1129.26 366.475 Q 1128.17 366.475, 1127.3 365.998 Q 1126.43 365.521, 1125.96 364.655 Q 1125.48 363.789, 1125.48 362.694 Q 1125.48 361.474, 1126.01 360.538 Q 1126.56 359.584, 1127.51 359.054 Q 1128.47 358.524, 1129.68 358.524 M 1127.25 362.676 Q 1127.25 363.789, 1127.86 364.425 Q 1128.48 365.061, 1129.58 365.061 Q 1130.34 365.061, 1131.08 364.761 Q 1131.84 364.443, 1132.37 363.913 Q 1132.3 361.846, 1131.65 360.909 Q 1130.99 359.973, 1129.67 359.973 Q 1129 359.973, 1128.43 360.326 Q 1127.88 360.679, 1127.56 361.298 Q 1127.25 361.916, 1127.25 362.676 " fill="#000000"/>
<path class="note" d="M 1185.51 186.318 Q 1185.97 185.134, 1187.06 184.48 Q 1188.16 183.809, 1189.68 183.809 Q 1191.57 183.809, 1192.63 184.834 Q 1193.69 185.859, 1193.69 187.679 Q 1193.69 189.534, 1192.31 191.265 Q 1190.95 192.997, 1188.12 195.046 L 1193.9 195.046 L 1193.9 196.46 L 1185.47 196.46 L 1185.47 195.276 Q 1187.81 193.615, 1189.18 192.378 Q 1190.58 191.142, 1191.25 190.028 Q 1191.92 188.915, 1191.92 187.767 Q 1191.92 186.565, 1191.32 185.894 Q 1190.72 185.223, 1189.68 185.223 Q 1188.67 185.223, 1188 185.629 Q 1187.33 186.035, 1186.85 186.936 L 1185.51 186.318 " fill="#000000"/>
<path class="note" d="M 1200.65 189.869 Q 1201.87 190.223, 1202.45 191.018 Q 1203.05 191.795, 1203.05 193.032 Q 1203.05 194.092, 1202.52 194.923 Q 1201.99 195.735, 1201.02 196.195 Q 1200.05 196.637, 1198.78 196.637 Q 1197.43 196.637, 1196.43 196.177 Q 1195.44 195.7, 1194.64 194.746 L 1195.65 193.721 Q 1196.43 194.569, 1197.08 194.905 Q 1197.74 195.223, 1198.78 195.223 Q 1199.91 195.223, 1200.6 194.622 Q 1201.29 194.004, 1201.29 193.014 Q 1201.29 191.742, 1200.56 191.177 Q 1199.86 190.594, 1198.32 190.594 L 1197.42 190.594 L 1197.42 189.322 L 1198.21 189.322 Q 1199.57 189.304, 1200.3 188.721 Q 1201.02 188.12, 1201.02 187.007 Q 1201.02 186.194, 1200.42 185.717 Q 1199.82 185.223, 1198.8 185.223 Q 1197.75 185.223, 1197.1 185.594 Q 1196.46 185.965, 1195.97 186.901 L 1194.75 186.247 Q 1195.19 185.205, 1196.25 184.516 Q 1197.31 183.809, 1198.8 183.809 Q 1200.63 183.809, 1201.71 184.675 Q 1202.79 185.541, 1202.79 187.007 Q 1202.79 188.014, 1202.24 188.739 Q 1201.69 189.463, 1200.65 189.869 " fill="#000000"/>
<path class="note" d="M 1765.2 364.891 L 1758.65 364.891 L 1758.65 363.477 L 1766.95 363.477 L 1766.95 364.732 L 1761.9 375.987 L 1760.2 375.987 L 1765.2 364.891 " fill="#000000"/>
<path class="note" d="M 1693.64 311.145 Q 1694.79 311.639, 1695.45 312.382 Q 1696.1 313.106, 1696.1 314.343 Q 1696.1 315.403, 1695.55 316.233 Q 1695.01 317.046, 1694.02 317.505 Q 1693.04 317.947, 1691.75 317.947 Q 1689.67 317.947, 1688.47 316.993 Q 1687.27 316.021, 1687.27 314.343 Q 1687.27 313.318, 1687.8 312.558 Q 1688.33 311.781, 1689.42 311.198 Q 1688.61 310.738, 1688.17 310.067 Q 1687.73 309.378, 1687.73 308.318 Q 1687.73 306.851, 1688.79 305.985 Q 1689.86 305.12, 1691.68 305.12 Q 1693.5 305.12, 1694.56 305.985 Q 1695.64 306.851, 1695.64 308.318 Q 1695.64 309.237, 1695.13 309.926 Q 1694.63 310.597, 1693.64 311.145 M 1691.68 306.445 Q 1690.64 306.445, 1690.06 306.94 Q 1689.49 307.434, 1689.49 308.318 Q 1689.49 308.971, 1689.88 309.413 Q 1690.27 309.837, 1690.82 310.085 Q 1691.38 310.332, 1692.46 310.703 Q 1693.22 310.173, 1693.54 309.608 Q 1693.87 309.042, 1693.87 308.318 Q 1693.87 307.434, 1693.29 306.94 Q 1692.73 306.445, 1691.68 306.445 M 1691.75 316.622 Q 1692.92 316.622, 1693.63 316.004 Q 1694.33 315.368, 1694.33 314.325 Q 1694.33 313.654, 1693.96 313.23 Q 1693.59 312.806, 1693.03 312.558 Q 1692.48 312.311, 1691.49 311.993 L 1690.69 311.728 Q 1689.81 312.258, 1689.42 312.894 Q 1689.03 313.512, 1689.03 314.325 Q 1689.03 315.368, 1689.78 316.004 Q 1690.52 316.622, 1691.75 316.622 " fill="#000000"/>
<path class="note" d="M 1603.49 312.143 Q 1605.71 312.143, 1606.83 313.663 Q 1607.96 315.165, 1607.96 318.168 Q 1607.96 321.49, 1606.56 323.222 Q 1605.18 324.935, 1602.51 324.935 Q 1601.74 324.935, 1601.07 324.759 Q 1600.41 324.582, 1599.78 324.211 L 1600.47 323.027 Q 1601.38 323.522, 1602.5 323.522 Q 1604.26 323.522, 1605.17 322.391 Q 1606.07 321.243, 1606.17 318.893 Q 1605.54 319.476, 1604.72 319.794 Q 1603.93 320.094, 1603.06 320.094 Q 1601.97 320.094, 1601.1 319.617 Q 1600.24 319.14, 1599.76 318.274 Q 1599.28 317.409, 1599.28 316.313 Q 1599.28 315.094, 1599.81 314.157 Q 1600.36 313.203, 1601.31 312.673 Q 1602.27 312.143, 1603.49 312.143 M 1601.05 316.295 Q 1601.05 317.409, 1601.67 318.045 Q 1602.29 318.681, 1603.38 318.681 Q 1604.14 318.681, 1604.88 318.38 Q 1605.64 318.062, 1606.17 317.532 Q 1606.1 315.465, 1605.45 314.529 Q 1604.79 313.592, 1603.47 313.592 Q 1602.8 313.592, 1602.23 313.945 Q 1601.68 314.299, 1601.37 314.917 Q 1601.05 315.536, 1601.05 316.295 " fill="#000000"/>
<path class="note" d="M 1541.53 250.627 L 1544.27 250.627 L 1544.27 241.28 L 1541.25 242.216 L 1540.85 241.174 L 1544.68 239.46 L 1545.93 239.672 L 1545.93 250.627 L 1548.39 250.627 L 1548.39 252.04 L 1541.53 252.04 L 1541.53 250.627 " fill="#000000"/>
<path class="note" d="M 1554.04 252.182 Q 1551.75 252.182, 1550.6 250.485 Q 1549.47 248.789, 1549.47 245.768 Q 1549.47 242.746, 1550.6 241.068 Q 1551.73 239.389, 1554.04 239.389 Q 1556.36 239.389, 1557.49 241.068 Q 1558.62 242.746, 1558.62 245.768 Q 1558.62 248.789, 1557.47 250.485 Q 1556.34 252.182, 1554.04 252.182 M 1554.04 250.768 Q 1555.4 250.768, 1556.13 249.514 Q 1556.85 248.241, 1556.85 245.768 Q 1556.85 243.312, 1556.13 242.057 Q 1555.4 240.803, 1554.04 240.803 Q 1552.7 240.803, 1551.96 242.057 Q 1551.23 243.312, 1551.23 245.768 Q 1551.23 248.241, 1551.96 249.514 Q 1552.7 250.768, 1554.04 250.768 " fill="#000000"/>
<path class="note" d="M 1448.01 270.911 L 1450.75 270.911 L 1450.75 261.564 L 1447.73 262.501 L 1447.32 261.458 L 1451.16 259.744 L 1452.41 259.957 L 1452.41 270.911 L 1454.87 270.911 L 1454.87 272.325 L 1448.01 272.325 L 1448.01 270.911 " fill="#000000"/>
<path class="note" d="M 1456.51 270.911 L 1459.25 270.911 L 1459.25 261.564 L 1456.23 262.501 L 1455.82 261.458 L 1459.65 259.744 L 1460.91 259.957 L 1460.91 270.911 L 1463.37 270.911 L 1463.37 272.325 L 1456.51 272.325 L 1456.51 270.911 " fill="#000000"/>
<path class="note" d="M 1577.92 145.427 L 1580.65 145.427 L 1580.65 136.081 L 1577.63 137.017 L 1577.23 135.975 L 1581.06 134.261 L 1582.31 134.473 L 1582.31 145.427 L 1584.77 145.427 L 1584.77 146.841 L 1577.92 146.841 L 1577.92 145.427 " fill="#000000"/>
<path class="note" d="M 1585.69 136.699 Q 1586.15 135.515, 1587.24 134.861 Q 1588.34 134.19, 1589.86 134.19 Q 1591.75 134.19, 1592.81 135.215 Q 1593.87 136.24, 1593.87 138.059 Q 1593.87 139.915, 1592.49 141.646 Q 1591.13 143.378, 1588.3 145.427 L 1594.08 145.427 L 1594.08 146.841 L 1585.65 146.841 L 1585.65 145.657 Q 1587.99 143.996, 1589.36 142.759 Q 1590.76 141.523, 1591.43 140.409 Q 1592.1 139.296, 1592.1 138.148 Q 1592.1 136.946, 1591.5 136.275 Q 1590.9 135.603, 1589.86 135.603 Q 1588.85 135.603, 1588.18 136.01 Q 1587.51 136.416, 1587.03 137.317 L 1585.69 136.699 " fill="#000000"/>
<path class="note" d="M 1680.74 137.233 L 1683.47 137.233 L 1683.47 127.886 L 1680.45 128.823 L 1680.05 127.78 L 1683.88 126.066 L 1685.14 126.279 L 1685.14 137.233 L 1687.59 137.233 L 1687.59 138.647 L 1680.74 138.647 L 1680.74 137.233 " fill="#000000"/>
<path class="note" d="M 1694.34 132.056 Q 1695.56 132.41, 1696.14 133.205 Q 1696.74 133.982, 1696.74 135.219 Q 1696.74 136.279, 1696.21 137.109 Q 1695.68 137.922, 1694.71 138.382 Q 1693.74 138.823, 1692.47 138.823 Q 1691.13 138.823, 1690.12 138.364 Q 1689.13 137.887, 1688.33 136.933 L 1689.34 135.908 Q 1690.12 136.756, 1690.77 137.092 Q 1691.43 137.41, 1692.47 137.41 Q 1693.6 137.41, 1694.29 136.809 Q 1694.98 136.191, 1694.98 135.201 Q 1694.98 133.929, 1694.25 133.364 Q 1693.55 132.781, 1692.01 132.781 L 1691.11 132.781 L 1691.11 131.508 L 1691.9 131.508 Q 1693.26 131.491, 1693.99 130.908 Q 1694.71 130.307, 1694.71 129.194 Q 1694.71 128.381, 1694.11 127.904 Q 1693.51 127.409, 1692.49 127.409 Q 1691.44 127.409, 1690.79 127.78 Q 1690.15 128.151, 1689.66 129.088 L 1688.44 128.434 Q 1688.88 127.392, 1689.94 126.703 Q 1691 125.996, 1692.49 125.996 Q 1694.32 125.996, 1695.4 126.862 Q 1696.48 127.727, 1696.48 129.194 Q 1696.48 130.201, 1695.93 130.925 Q 1695.38 131.65, 1694.34 132.056 " fill="#000000"/>
<path class="note" d="M 1736.67 196.655 L 1739.41 196.655 L 1739.41 187.309 L 1736.39 188.245 L 1735.98 187.203 L 1739.82 185.489 L 1741.07 185.701 L 1741.07 196.655 L 1743.53 196.655 L 1743.53 198.069 L 1736.67 198.069 L 1736.67 196.655 " fill="#000000"/>
<path class="note" d="M 1752.19 193.775 L 1753.69 193.775 L 1753.69 195.189 L 1752.19 195.189 L 1752.19 198.069 L 1750.52 198.069 L 1750.52 195.189 L 1744.06 195.189 L 1744.06 194.076 L 1749.54 185.559 L 1752.19 185.559 L 1752.19 193.775 M 1746.11 193.775 L 1750.52 193.775 L 1750.52 186.69 L 1746.11 193.775 " fill="#000000"/>
<path class="note" d="M 1795.82 191.973 L 1798.56 191.973 L 1798.56 182.626 L 1795.54 183.563 L 1795.13 182.52 L 1798.97 180.806 L 1800.22 181.018 L 1800.22 191.973 L 1802.68 191.973 L 1802.68 193.387 L 1795.82 193.387 L 1795.82 191.973 " fill="#000000"/>
<path class="note" d="M 1808.03 185.559 Q 1809.13 185.559, 1810.03 186.036 Q 1810.93 186.496, 1811.44 187.379 Q 1811.95 188.245, 1811.95 189.429 Q 1811.95 190.719, 1811.32 191.655 Q 1810.7 192.574, 1809.68 193.051 Q 1808.65 193.528, 1807.48 193.528 Q 1806.34 193.528, 1805.28 193.104 Q 1804.22 192.68, 1803.49 191.867 L 1804.55 190.772 Q 1805.13 191.408, 1805.93 191.761 Q 1806.72 192.097, 1807.54 192.097 Q 1808.65 192.097, 1809.41 191.408 Q 1810.19 190.719, 1810.19 189.464 Q 1810.19 188.139, 1809.41 187.521 Q 1808.65 186.884, 1807.43 186.884 Q 1806.34 186.884, 1805.12 187.362 L 1804.15 186.902 L 1804.75 180.877 L 1811.18 180.877 L 1811 182.291 L 1806.19 182.291 L 1805.82 186.001 Q 1806.94 185.559, 1808.03 185.559 " fill="#000000"/>
<path class="note" d="M 1862.83 109.89 L 1865.57 109.89 L 1865.57 100.543 L 1862.54 101.479 L 1862.14 100.437 L 1865.97 98.7231 L 1867.23 98.9351 L 1867.23 109.89 L 1869.68 109.89 L 1869.68 111.303 L 1862.83 111.303 L 1862.83 109.89 " fill="#000000"/>
<path class="note" d="M 1875.78 103.494 Q 1876.87 103.494, 1877.74 103.971 Q 1878.61 104.448, 1879.08 105.314 Q 1879.56 106.179, 1879.56 107.275 Q 1879.56 108.494, 1879.01 109.448 Q 1878.48 110.384, 1877.53 110.915 Q 1876.57 111.445, 1875.35 111.445 Q 1873.13 111.445, 1872 109.943 Q 1870.88 108.423, 1870.88 105.42 Q 1870.88 102.098, 1872.26 100.384 Q 1873.66 98.6524, 1876.33 98.6524 Q 1877.1 98.6524, 1877.76 98.8291 Q 1878.43 99.0058, 1879.06 99.3769 L 1878.38 100.561 Q 1877.46 100.066, 1876.34 100.066 Q 1874.58 100.066, 1873.68 101.214 Q 1872.77 102.345, 1872.67 104.695 Q 1873.3 104.112, 1874.1 103.812 Q 1874.91 103.494, 1875.78 103.494 M 1875.37 109.996 Q 1876.04 109.996, 1876.59 109.642 Q 1877.16 109.289, 1877.47 108.671 Q 1877.79 108.052, 1877.79 107.292 Q 1877.79 106.179, 1877.17 105.543 Q 1876.56 104.907, 1875.46 104.907 Q 1874.7 104.907, 1873.94 105.225 Q 1873.2 105.526, 1872.67 106.056 Q 1872.74 108.123, 1873.39 109.059 Q 1874.05 109.996, 1875.37 109.996 " fill="#000000"/>
<path class="note" d="M 1879.67 313.23 L 1882.41 313.23 L 1882.41 303.883 L 1879.39 304.819 L 1878.99 303.777 L 1882.82 302.063 L 1884.07 302.275 L 1884.07 313.23 L 1886.53 313.23 L 1886.53 314.643 L 1879.67 314.643 L 1879.67 313.23 " fill="#000000"/>
<path class="note" d="M 1893.4 303.547 L 1886.85 303.547 L 1886.85 302.134 L 1895.15 302.134 L 1895.15 303.388 L 1890.1 314.643 L 1888.4 314.643 L 1893.4 303.547 " fill="#000000"/>
<path class="note" d="M 1684.02 473.456 Q 1684.48 472.272, 1685.57 471.619 Q 1686.67 470.947, 1688.19 470.947 Q 1690.08 470.947, 1691.14 471.972 Q 1692.2 472.997, 1692.2 474.817 Q 1692.2 476.672, 1690.82 478.404 Q 1689.46 480.135, 1686.63 482.185 L 1692.41 482.185 L 1692.41 483.598 L 1683.98 483.598 L 1683.98 482.414 Q 1686.31 480.753, 1687.69 479.517 Q 1689.09 478.28, 1689.76 477.167 Q 1690.43 476.054, 1690.43 474.905 Q 1690.43 473.704, 1689.83 473.032 Q 1689.23 472.361, 1688.19 472.361 Q 1687.18 472.361, 1686.51 472.767 Q 1685.84 473.174, 1685.36 474.075 L 1684.02 473.456 " fill="#000000"/>
<path class="note" d="M 1698.06 483.739 Q 1695.77 483.739, 1694.62 482.043 Q 1693.49 480.347, 1693.49 477.326 Q 1693.49 474.304, 1694.62 472.626 Q 1695.75 470.947, 1698.06 470.947 Q 1700.38 470.947, 1701.51 472.626 Q 1702.64 474.304, 1702.64 477.326 Q 1702.64 480.347, 1701.49 482.043 Q 1700.36 483.739, 1698.06 483.739 M 1698.06 482.326 Q 1699.42 482.326, 1700.15 481.072 Q 1700.87 479.799, 1700.87 477.326 Q 1700.87 474.87, 1700.15 473.615 Q 1699.42 472.361, 1698.06 472.361 Q 1696.72 472.361, 1695.98 473.615 Q 1695.25 474.87, 1695.25 477.326 Q 1695.25 479.799, 1695.98 481.072 Q 1696.72 482.326, 1698.06 482.326 " fill="#000000"/>
<path class="note" d="M 3033.61 372.716 L 3036.35 372.716 L 3036.35 363.369 L 3033.33 364.306 L 3032.92 363.263 L 3036.76 361.55 L 3038.01 361.762 L 3038.01 372.716 L 3040.47 372.716 L 3040.47 374.13 L 3033.61 374.13 L 3033.61 372.716 " fill="#000000"/>
<path class="note" d="M 2949.03 372.269 Q 2949.49 371.085, 2950.58 370.432 Q 2951.68 369.76, 2953.2 369.76 Q 2955.09 369.76, 2956.15 370.785 Q 2957.21 371.81, 2957.21 373.63 Q 2957.21 375.485, 2955.83 377.216 Q 2954.47 378.948, 2951.64 380.997 L 2957.42 380.997 L 2957.42 382.411 L 2948.99 382.411 L 2948.99 381.227 Q 2951.33 379.566, 2952.7 378.329 Q 2954.1 377.093, 2954.77 375.98 Q 2955.44 374.866, 2955.44 373.718 Q 2955.44 372.516, 2954.84 371.845 Q 2954.24 371.174, 2953.2 371.174 Q 2952.19 371.174, 2951.52 371.58 Q 2950.85 371.986, 2950.37 372.888 L 2949.03 372.269 " fill="#000000"/>
<path class="note" d="M 2884.45 428.972 Q 2885.66 429.326, 2886.25 430.121 Q 2886.85 430.898, 2886.85 432.135 Q 2886.85 433.195, 2886.32 434.026 Q 2885.79 434.839, 2884.82 435.298 Q 2883.84 435.74, 2882.57 435.74 Q 2881.23 435.74, 2880.22 435.28 Q 2879.23 434.803, 2878.44 433.849 L 2879.44 432.824 Q 2880.22 433.672, 2880.88 434.008 Q 2881.53 434.326, 2882.57 434.326 Q 2883.7 434.326, 2884.39 433.725 Q 2885.08 433.107, 2885.08 432.118 Q 2885.08 430.845, 2884.36 430.28 Q 2883.65 429.697, 2882.11 429.697 L 2881.21 429.697 L 2881.21 428.425 L 2882.01 428.425 Q 2883.37 428.407, 2884.09 427.824 Q 2884.82 427.223, 2884.82 426.11 Q 2884.82 425.297, 2884.22 424.82 Q 2883.61 424.326, 2882.59 424.326 Q 2881.55 424.326, 2880.89 424.697 Q 2880.26 425.068, 2879.76 426.004 L 2878.54 425.35 Q 2878.99 424.308, 2880.05 423.619 Q 2881.11 422.912, 2882.59 422.912 Q 2884.43 422.912, 2885.51 423.778 Q 2886.58 424.644, 2886.58 426.11 Q 2886.58 427.117, 2886.04 427.842 Q 2885.49 428.566, 2884.45 428.972 " fill="#000000"/>
<path class="note" d="M 2789.55 394.539 L 2791.05 394.539 L 2791.05 395.952 L 2789.55 395.952 L 2789.55 398.832 L 2787.89 398.832 L 2787.89 395.952 L 2781.42 395.952 L 2781.42 394.839 L 2786.9 386.323 L 2789.55 386.323 L 2789.55 394.539 M 2783.47 394.539 L 2787.89 394.539 L 2787.89 387.454 L 2783.47 394.539 " fill="#000000"/>
<path class="note" d="M 2775.8 303.318 Q 2776.89 303.318, 2777.79 303.795 Q 2778.69 304.254, 2779.21 305.137 Q 2779.72 306.003, 2779.72 307.187 Q 2779.72 308.477, 2779.08 309.413 Q 2778.46 310.332, 2777.44 310.809 Q 2776.41 311.286, 2775.25 311.286 Q 2774.1 311.286, 2773.04 310.862 Q 2771.98 310.438, 2771.25 309.625 L 2772.31 308.53 Q 2772.9 309.166, 2773.69 309.519 Q 2774.49 309.855, 2775.3 309.855 Q 2776.41 309.855, 2777.17 309.166 Q 2777.95 308.477, 2777.95 307.222 Q 2777.95 305.897, 2777.17 305.279 Q 2776.41 304.643, 2775.19 304.643 Q 2774.1 304.643, 2772.88 305.12 L 2771.91 304.66 L 2772.51 298.635 L 2778.94 298.635 L 2778.76 300.049 L 2773.96 300.049 L 2773.59 303.759 Q 2774.7 303.318, 2775.8 303.318 " fill="#000000"/>
<path class="note" d="M 2723.96 265.288 Q 2725.05 265.288, 2725.92 265.765 Q 2726.79 266.242, 2727.26 267.108 Q 2727.74 267.973, 2727.74 269.069 Q 2727.74 270.288, 2727.19 271.242 Q 2726.66 272.179, 2725.71 272.709 Q 2724.75 273.239, 2723.53 273.239 Q 2721.31 273.239, 2720.18 271.737 Q 2719.06 270.217, 2719.06 267.214 Q 2719.06 263.892, 2720.44 262.178 Q 2721.84 260.446, 2724.51 260.446 Q 2725.28 260.446, 2725.94 260.623 Q 2726.61 260.8, 2727.24 261.171 L 2726.56 262.355 Q 2725.64 261.86, 2724.52 261.86 Q 2722.76 261.86, 2721.86 263.008 Q 2720.95 264.139, 2720.85 266.489 Q 2721.48 265.906, 2722.28 265.606 Q 2723.09 265.288, 2723.96 265.288 M 2723.55 271.79 Q 2724.22 271.79, 2724.77 271.436 Q 2725.34 271.083, 2725.65 270.465 Q 2725.97 269.846, 2725.97 269.087 Q 2725.97 267.973, 2725.35 267.337 Q 2724.74 266.701, 2723.64 266.701 Q 2722.88 266.701, 2722.12 267.019 Q 2721.38 267.32, 2720.85 267.85 Q 2720.92 269.917, 2721.57 270.853 Q 2722.23 271.79, 2723.55 271.79 " fill="#000000"/>
<path class="note" d="M 2639.31 306.175 L 2632.76 306.175 L 2632.76 304.762 L 2641.06 304.762 L 2641.06 306.016 L 2636.01 317.271 L 2634.31 317.271 L 2639.31 306.175 " fill="#000000"/>
<path class="note" d="M 2567.53 252.708 Q 2568.68 253.202, 2569.33 253.944 Q 2569.98 254.669, 2569.98 255.906 Q 2569.98 256.966, 2569.44 257.796 Q 2568.89 258.609, 2567.9 259.068 Q 2566.93 259.51, 2565.64 259.51 Q 2563.55 259.51, 2562.35 258.556 Q 2561.15 257.584, 2561.15 255.906 Q 2561.15 254.881, 2561.68 254.121 Q 2562.21 253.344, 2563.3 252.761 Q 2562.49 252.301, 2562.05 251.63 Q 2561.61 250.941, 2561.61 249.881 Q 2561.61 248.414, 2562.67 247.548 Q 2563.75 246.683, 2565.57 246.683 Q 2567.39 246.683, 2568.45 247.548 Q 2569.52 248.414, 2569.52 249.881 Q 2569.52 250.799, 2569.01 251.488 Q 2568.52 252.16, 2567.53 252.708 M 2565.57 248.008 Q 2564.52 248.008, 2563.94 248.502 Q 2563.38 248.997, 2563.38 249.881 Q 2563.38 250.534, 2563.76 250.976 Q 2564.15 251.4, 2564.7 251.647 Q 2565.27 251.895, 2566.34 252.266 Q 2567.1 251.736, 2567.42 251.17 Q 2567.76 250.605, 2567.76 249.881 Q 2567.76 248.997, 2567.17 248.502 Q 2566.61 248.008, 2565.57 248.008 M 2565.64 258.185 Q 2566.8 258.185, 2567.51 257.567 Q 2568.22 256.93, 2568.22 255.888 Q 2568.22 255.217, 2567.85 254.793 Q 2567.47 254.368, 2566.91 254.121 Q 2566.36 253.874, 2565.37 253.556 L 2564.58 253.291 Q 2563.69 253.821, 2563.3 254.457 Q 2562.92 255.075, 2562.92 255.888 Q 2562.92 256.93, 2563.66 257.567 Q 2564.4 258.185, 2565.64 258.185 " fill="#000000"/>
<path class="note" d="M 2554.69 158.995 Q 2556.91 158.995, 2558.03 160.515 Q 2559.16 162.017, 2559.16 165.02 Q 2559.16 168.342, 2557.76 170.073 Q 2556.38 171.787, 2553.71 171.787 Q 2552.94 171.787, 2552.27 171.611 Q 2551.61 171.434, 2550.98 171.063 L 2551.66 169.879 Q 2552.58 170.374, 2553.7 170.374 Q 2555.46 170.374, 2556.36 169.243 Q 2557.27 168.095, 2557.37 165.745 Q 2556.74 166.328, 2555.92 166.646 Q 2555.13 166.946, 2554.26 166.946 Q 2553.17 166.946, 2552.3 166.469 Q 2551.43 165.992, 2550.96 165.126 Q 2550.48 164.26, 2550.48 163.165 Q 2550.48 161.946, 2551.01 161.009 Q 2551.56 160.055, 2552.51 159.525 Q 2553.47 158.995, 2554.69 158.995 M 2552.25 163.147 Q 2552.25 164.26, 2552.87 164.897 Q 2553.48 165.533, 2554.58 165.533 Q 2555.34 165.533, 2556.08 165.232 Q 2556.84 164.914, 2557.37 164.384 Q 2557.3 162.317, 2556.65 161.38 Q 2555.99 160.444, 2554.67 160.444 Q 2554 160.444, 2553.43 160.797 Q 2552.88 161.151, 2552.57 161.769 Q 2552.25 162.388, 2552.25 163.147 " fill="#000000"/>
<path class="note" d="M 2436.22 138.8 L 2438.96 138.8 L 2438.96 129.453 L 2435.94 130.389 L 2435.53 129.347 L 2439.37 127.633 L 2440.62 127.845 L 2440.62 138.8 L 2443.08 138.8 L 2443.08 140.213 L 2436.22 140.213 L 2436.22 138.8 " fill="#000000"/>
<path class="note" d="M 2448.73 140.355 Q 2446.43 140.355, 2445.28 138.658 Q 2444.15 136.962, 2444.15 133.941 Q 2444.15 130.92, 2445.28 129.241 Q 2446.42 127.562, 2448.73 127.562 Q 2451.04 127.562, 2452.18 129.241 Q 2453.31 130.92, 2453.31 133.941 Q 2453.31 136.962, 2452.16 138.658 Q 2451.03 140.355, 2448.73 140.355 M 2448.73 138.941 Q 2450.09 138.941, 2450.82 137.687 Q 2451.54 136.415, 2451.54 133.941 Q 2451.54 131.485, 2450.82 130.23 Q 2450.09 128.976, 2448.73 128.976 Q 2447.39 128.976, 2446.65 130.23 Q 2445.92 131.485, 2445.92 133.941 Q 2445.92 136.415, 2446.65 137.687 Q 2447.39 138.941, 2448.73 138.941 " fill="#000000"/>
<path class="note" d="M 2436.31 27.6038 L 2439.05 27.6038 L 2439.05 18.2571 L 2436.03 19.1935 L 2435.62 18.1511 L 2439.45 16.4372 L 2440.71 16.6492 L 2440.71 27.6038 L 2443.16 27.6038 L 2443.16 29.0173 L 2436.31 29.0173 L 2436.31 27.6038 " fill="#000000"/>
<path class="note" d="M 2444.81 27.6038 L 2447.55 27.6038 L 2447.55 18.2571 L 2444.52 19.1935 L 2444.12 18.1511 L 2447.95 16.4372 L 2449.21 16.6492 L 2449.21 27.6038 L 2451.66 27.6038 L 2451.66 29.0173 L 2444.81 29.0173 L 2444.81 27.6038 " fill="#000000"/>
<path class="note" d="M 2366.11 191.952 L 2368.85 191.952 L 2368.85 182.605 L 2365.83 183.541 L 2365.43 182.499 L 2369.26 180.785 L 2370.51 180.997 L 2370.51 191.952 L 2372.97 191.952 L 2372.97 193.365 L 2366.11 193.365 L 2366.11 191.952 " fill="#000000"/>
<path class="note" d="M 2373.89 183.223 Q 2374.35 182.04, 2375.44 181.386 Q 2376.54 180.714, 2378.06 180.714 Q 2379.95 180.714, 2381.01 181.739 Q 2382.07 182.764, 2382.07 184.584 Q 2382.07 186.439, 2380.69 188.171 Q 2379.33 189.902, 2376.5 191.952 L 2382.28 191.952 L 2382.28 193.365 L 2373.85 193.365 L 2373.85 192.181 Q 2376.19 190.521, 2377.56 189.284 Q 2378.96 188.047, 2379.63 186.934 Q 2380.3 185.821, 2380.3 184.672 Q 2380.3 183.471, 2379.7 182.799 Q 2379.1 182.128, 2378.06 182.128 Q 2377.05 182.128, 2376.38 182.534 Q 2375.71 182.941, 2375.23 183.842 L 2373.89 183.223 " fill="#000000"/>
<path class="note" d="M 2378.73 294.254 L 2381.47 294.254 L 2381.47 284.907 L 2378.45 285.843 L 2378.04 284.801 L 2381.88 283.087 L 2383.13 283.299 L 2383.13 294.254 L 2385.59 294.254 L 2385.59 295.667 L 2378.73 295.667 L 2378.73 294.254 " fill="#000000"/>
<path class="note" d="M 2392.34 289.077 Q 2393.56 289.43, 2394.14 290.225 Q 2394.74 291.003, 2394.74 292.239 Q 2394.74 293.3, 2394.21 294.13 Q 2393.68 294.943, 2392.71 295.402 Q 2391.74 295.844, 2390.47 295.844 Q 2389.12 295.844, 2388.12 295.385 Q 2387.13 294.907, 2386.33 293.953 L 2387.34 292.929 Q 2388.12 293.777, 2388.77 294.112 Q 2389.42 294.43, 2390.47 294.43 Q 2391.6 294.43, 2392.29 293.83 Q 2392.98 293.211, 2392.98 292.222 Q 2392.98 290.95, 2392.25 290.384 Q 2391.54 289.801, 2390.01 289.801 L 2389.11 289.801 L 2389.11 288.529 L 2389.9 288.529 Q 2391.26 288.511, 2391.99 287.928 Q 2392.71 287.328, 2392.71 286.214 Q 2392.71 285.402, 2392.11 284.925 Q 2391.51 284.43, 2390.48 284.43 Q 2389.44 284.43, 2388.79 284.801 Q 2388.15 285.172, 2387.66 286.108 L 2386.44 285.455 Q 2386.88 284.412, 2387.94 283.723 Q 2389 283.016, 2390.48 283.016 Q 2392.32 283.016, 2393.4 283.882 Q 2394.48 284.748, 2394.48 286.214 Q 2394.48 287.222, 2393.93 287.946 Q 2393.38 288.67, 2392.34 289.077 " fill="#000000"/>
<path class="note" d="M 2459.54 328.754 L 2462.28 328.754 L 2462.28 319.407 L 2459.26 320.344 L 2458.86 319.301 L 2462.69 317.587 L 2463.94 317.799 L 2463.94 328.754 L 2466.4 328.754 L 2466.4 330.167 L 2459.54 330.167 L 2459.54 328.754 " fill="#000000"/>
<path class="note" d="M 2475.06 325.874 L 2476.56 325.874 L 2476.56 327.287 L 2475.06 327.287 L 2475.06 330.167 L 2473.4 330.167 L 2473.4 327.287 L 2466.93 327.287 L 2466.93 326.174 L 2472.41 317.658 L 2475.06 317.658 L 2475.06 325.874 M 2468.98 325.874 L 2473.4 325.874 L 2473.4 318.789 L 2468.98 325.874 " fill="#000000"/>
<path class="note" d="M 2455.39 396.071 L 2458.13 396.071 L 2458.13 386.724 L 2455.11 387.66 L 2454.7 386.618 L 2458.54 384.904 L 2459.79 385.116 L 2459.79 396.071 L 2462.25 396.071 L 2462.25 397.484 L 2455.39 397.484 L 2455.39 396.071 " fill="#000000"/>
<path class="note" d="M 2467.6 389.657 Q 2468.69 389.657, 2469.6 390.134 Q 2470.5 390.593, 2471.01 391.477 Q 2471.52 392.343, 2471.52 393.526 Q 2471.52 394.816, 2470.89 395.753 Q 2470.27 396.671, 2469.24 397.149 Q 2468.22 397.626, 2467.05 397.626 Q 2465.9 397.626, 2464.84 397.202 Q 2463.78 396.778, 2463.06 395.965 L 2464.12 394.869 Q 2464.7 395.505, 2465.5 395.859 Q 2466.29 396.194, 2467.1 396.194 Q 2468.22 396.194, 2468.98 395.505 Q 2469.76 394.816, 2469.76 393.562 Q 2469.76 392.237, 2468.98 391.618 Q 2468.22 390.982, 2467 390.982 Q 2465.9 390.982, 2464.68 391.459 L 2463.71 391 L 2464.31 384.975 L 2470.74 384.975 L 2470.57 386.388 L 2465.76 386.388 L 2465.39 390.099 Q 2466.5 389.657, 2467.6 389.657 " fill="#000000"/>
<path class="note" d="M 2388.11 478.487 L 2390.85 478.487 L 2390.85 469.14 L 2387.82 470.077 L 2387.42 469.034 L 2391.25 467.321 L 2392.51 467.533 L 2392.51 478.487 L 2394.96 478.487 L 2394.96 479.901 L 2388.11 479.901 L 2388.11 478.487 " fill="#000000"/>
<path class="note" d="M 2401.06 472.091 Q 2402.15 472.091, 2403.02 472.568 Q 2403.89 473.045, 2404.36 473.911 Q 2404.84 474.777, 2404.84 475.872 Q 2404.84 477.091, 2404.29 478.045 Q 2403.76 478.982, 2402.81 479.512 Q 2401.85 480.042, 2400.63 480.042 Q 2398.41 480.042, 2397.28 478.54 Q 2396.16 477.021, 2396.16 474.017 Q 2396.16 470.695, 2397.54 468.981 Q 2398.94 467.25, 2401.61 467.25 Q 2402.38 467.25, 2403.04 467.427 Q 2403.71 467.603, 2404.34 467.974 L 2403.66 469.158 Q 2402.74 468.663, 2401.62 468.663 Q 2399.86 468.663, 2398.96 469.812 Q 2398.05 470.943, 2397.95 473.293 Q 2398.58 472.71, 2399.38 472.409 Q 2400.19 472.091, 2401.06 472.091 M 2400.65 478.593 Q 2401.32 478.593, 2401.87 478.24 Q 2402.44 477.886, 2402.75 477.268 Q 2403.07 476.65, 2403.07 475.89 Q 2403.07 474.777, 2402.45 474.141 Q 2401.84 473.505, 2400.74 473.505 Q 2399.98 473.505, 2399.22 473.823 Q 2398.48 474.123, 2397.95 474.653 Q 2398.02 476.72, 2398.67 477.657 Q 2399.33 478.593, 2400.65 478.593 " fill="#000000"/>
<path class="note" d="M 2591.24 453.63 L 2593.98 453.63 L 2593.98 444.283 L 2590.96 445.219 L 2590.55 444.177 L 2594.39 442.463 L 2595.64 442.675 L 2595.64 453.63 L 2598.1 453.63 L 2598.1 455.043 L 2591.24 455.043 L 2591.24 453.63 " fill="#000000"/>
<path class="note" d="M 2604.97 443.947 L 2598.41 443.947 L 2598.41 442.534 L 2606.72 442.534 L 2606.72 443.788 L 2601.66 455.043 L 2599.97 455.043 L 2604.97 443.947 " fill="#000000"/>
<path class="note" d="M 2671.6 187.579 L 2674.34 187.579 L 2674.34 178.232 L 2671.32 179.169 L 2670.92 178.126 L 2674.75 176.413 L 2676 176.625 L 2676 187.579 L 2678.46 187.579 L 2678.46 188.993 L 2671.6 188.993 L 2671.6 187.579 " fill="#000000"/>
<path class="note" d="M 2685.93 182.367 Q 2687.08 182.862, 2687.74 183.604 Q 2688.39 184.328, 2688.39 185.565 Q 2688.39 186.625, 2687.84 187.455 Q 2687.29 188.268, 2686.3 188.728 Q 2685.33 189.169, 2684.04 189.169 Q 2681.96 189.169, 2680.76 188.215 Q 2679.56 187.243, 2679.56 185.565 Q 2679.56 184.54, 2680.09 183.78 Q 2680.62 183.003, 2681.71 182.42 Q 2680.9 181.961, 2680.46 181.289 Q 2680.01 180.6, 2680.01 179.54 Q 2680.01 178.073, 2681.07 177.208 Q 2682.15 176.342, 2683.97 176.342 Q 2685.79 176.342, 2686.85 177.208 Q 2687.93 178.073, 2687.93 179.54 Q 2687.93 180.459, 2687.42 181.148 Q 2686.92 181.819, 2685.93 182.367 M 2683.97 177.667 Q 2682.93 177.667, 2682.35 178.162 Q 2681.78 178.656, 2681.78 179.54 Q 2681.78 180.194, 2682.17 180.635 Q 2682.56 181.059, 2683.11 181.307 Q 2683.67 181.554, 2684.75 181.925 Q 2685.51 181.395, 2685.83 180.83 Q 2686.16 180.264, 2686.16 179.54 Q 2686.16 178.656, 2685.58 178.162 Q 2685.01 177.667, 2683.97 177.667 M 2684.04 187.844 Q 2685.21 187.844, 2685.92 187.226 Q 2686.62 186.59, 2686.62 185.547 Q 2686.62 184.876, 2686.25 184.452 Q 2685.88 184.028, 2685.32 183.78 Q 2684.77 183.533, 2683.78 183.215 L 2682.98 182.95 Q 2682.1 183.48, 2681.71 184.116 Q 2681.32 184.735, 2681.32 185.547 Q 2681.32 186.59, 2682.06 187.226 Q 2682.81 187.844, 2684.04 187.844 " fill="#000000"/>
<path class="note" d="M 2574.84 114.427 L 2577.58 114.427 L 2577.58 105.081 L 2574.56 106.017 L 2574.15 104.975 L 2577.98 103.261 L 2579.24 103.473 L 2579.24 114.427 L 2581.69 114.427 L 2581.69 115.841 L 2574.84 115.841 L 2574.84 114.427 " fill="#000000"/>
<path class="note" d="M 2586.87 103.19 Q 2589.1 103.19, 2590.21 104.71 Q 2591.34 106.211, 2591.34 109.215 Q 2591.34 112.537, 2589.95 114.268 Q 2588.57 115.982, 2585.9 115.982 Q 2585.12 115.982, 2584.45 115.806 Q 2583.8 115.629, 2583.16 115.258 L 2583.85 114.074 Q 2584.77 114.569, 2585.88 114.569 Q 2587.65 114.569, 2588.55 113.438 Q 2589.45 112.289, 2589.56 109.94 Q 2588.92 110.523, 2588.11 110.841 Q 2587.31 111.141, 2586.45 111.141 Q 2585.35 111.141, 2584.49 110.664 Q 2583.62 110.187, 2583.14 109.321 Q 2582.67 108.455, 2582.67 107.36 Q 2582.67 106.141, 2583.2 105.204 Q 2583.74 104.25, 2584.7 103.72 Q 2585.65 103.19, 2586.87 103.19 M 2584.43 107.342 Q 2584.43 108.455, 2585.05 109.091 Q 2585.67 109.727, 2586.77 109.727 Q 2587.53 109.727, 2588.27 109.427 Q 2589.03 109.109, 2589.56 108.579 Q 2589.49 106.512, 2588.83 105.575 Q 2588.18 104.639, 2586.85 104.639 Q 2586.18 104.639, 2585.62 104.992 Q 2585.07 105.346, 2584.75 105.964 Q 2584.43 106.582, 2584.43 107.342 " fill="#000000"/>
<path class="note" d="M 2763.51 71.4898 Q 2763.97 70.306, 2765.06 69.6522 Q 2766.16 68.9808, 2767.68 68.9808 Q 2769.57 68.9808, 2770.63 70.0056 Q 2771.69 71.0304, 2771.69 72.8503 Q 2771.69 74.7055, 2770.31 76.437 Q 2768.95 78.1685, 2766.12 80.2181 L 2771.9 80.2181 L 2771.9 81.6316 L 2763.47 81.6316 L 2763.47 80.4478 Q 2765.8 78.7869, 2767.18 77.5501 Q 2768.58 76.3133, 2769.25 75.2002 Q 2769.92 74.0871, 2769.92 72.9386 Q 2769.92 71.7371, 2769.32 71.0657 Q 2768.72 70.3943, 2767.68 70.3943 Q 2766.67 70.3943, 2766 70.8007 Q 2765.33 71.2071, 2764.85 72.1082 L 2763.51 71.4898 " fill="#000000"/>
<path class="note" d="M 2777.55 81.773 Q 2775.26 81.773, 2774.11 80.0768 Q 2772.98 78.3806, 2772.98 75.3592 Q 2772.98 72.3379, 2774.11 70.6593 Q 2775.24 68.9808, 2777.55 68.9808 Q 2779.87 68.9808, 2781 70.6593 Q 2782.13 72.3379, 2782.13 75.3592 Q 2782.13 78.3806, 2780.98 80.0768 Q 2779.85 81.773, 2777.55 81.773 M 2777.55 80.3595 Q 2778.91 80.3595, 2779.64 79.105 Q 2780.36 77.8328, 2780.36 75.3592 Q 2780.36 72.9033, 2779.64 71.6488 Q 2778.91 70.3943, 2777.55 70.3943 Q 2776.21 70.3943, 2775.47 71.6488 Q 2774.74 72.9033, 2774.74 75.3592 Q 2774.74 77.8328, 2775.47 79.105 Q 2776.21 80.3595, 2777.55 80.3595 " fill="#000000"/>
<path class="note" d="M 2831.37 215.061 Q 2831.83 213.877, 2832.92 213.224 Q 2834.02 212.552, 2835.54 212.552 Q 2837.43 212.552, 2838.49 213.577 Q 2839.55 214.602, 2839.55 216.422 Q 2839.55 218.277, 2838.17 220.008 Q 2836.81 221.74, 2833.98 223.79 L 2839.76 223.79 L 2839.76 225.203 L 2831.33 225.203 L 2831.33 224.019 Q 2833.67 222.358, 2835.04 221.122 Q 2836.44 219.885, 2837.11 218.772 Q 2837.78 217.659, 2837.78 216.51 Q 2837.78 215.309, 2837.18 214.637 Q 2836.58 213.966, 2835.54 213.966 Q 2834.53 213.966, 2833.86 214.372 Q 2833.19 214.779, 2832.71 215.68 L 2831.37 215.061 " fill="#000000"/>
<path class="note" d="M 2841.41 223.79 L 2844.14 223.79 L 2844.14 214.443 L 2841.12 215.379 L 2840.72 214.337 L 2844.55 212.623 L 2845.8 212.835 L 2845.8 223.79 L 2848.26 223.79 L 2848.26 225.203 L 2841.41 225.203 L 2841.41 223.79 " fill="#000000"/>
<path class="note" d="M 2830.18 103.901 Q 2830.64 102.717, 2831.74 102.063 Q 2832.83 101.392, 2834.35 101.392 Q 2836.24 101.392, 2837.3 102.416 Q 2838.36 103.441, 2838.36 105.261 Q 2838.36 107.116, 2836.99 108.848 Q 2835.63 110.579, 2832.8 112.629 L 2838.58 112.629 L 2838.58 114.042 L 2830.15 114.042 L 2830.15 112.859 Q 2832.48 111.198, 2833.86 109.961 Q 2835.26 108.724, 2835.93 107.611 Q 2836.6 106.498, 2836.6 105.349 Q 2836.6 104.148, 2836 103.477 Q 2835.4 102.805, 2834.35 102.805 Q 2833.35 102.805, 2832.68 103.212 Q 2832 103.618, 2831.53 104.519 L 2830.18 103.901 " fill="#000000"/>
<path class="note" d="M 2839.5 103.901 Q 2839.96 102.717, 2841.05 102.063 Q 2842.15 101.392, 2843.67 101.392 Q 2845.56 101.392, 2846.62 102.416 Q 2847.68 103.441, 2847.68 105.261 Q 2847.68 107.116, 2846.3 108.848 Q 2844.94 110.579, 2842.11 112.629 L 2847.89 112.629 L 2847.89 114.042 L 2839.46 114.042 L 2839.46 112.859 Q 2841.79 111.198, 2843.17 109.961 Q 2844.57 108.724, 2845.24 107.611 Q 2845.91 106.498, 2845.91 105.349 Q 2845.91 104.148, 2845.31 103.477 Q 2844.71 102.805, 2843.67 102.805 Q 2842.66 102.805, 2841.99 103.212 Q 2841.32 103.618, 2840.84 104.519 L 2839.5 103.901 " fill="#000000"/>
<path class="note" d="M 2922.33 226.123 Q 2922.79 224.94, 2923.88 224.286 Q 2924.98 223.614, 2926.5 223.614 Q 2928.39 223.614, 2929.45 224.639 Q 2930.51 225.664, 2930.51 227.484 Q 2930.51 229.339, 2929.13 231.071 Q 2927.77 232.802, 2924.94 234.852 L 2930.72 234.852 L 2930.72 236.265 L 2922.29 236.265 L 2922.29 235.081 Q 2924.62 233.421, 2926 232.184 Q 2927.4 230.947, 2928.07 229.834 Q 2928.74 228.721, 2928.74 227.572 Q 2928.74 226.371, 2928.14 225.699 Q 2927.54 225.028, 2926.5 225.028 Q 2925.49 225.028, 2924.82 225.434 Q 2924.15 225.841, 2923.67 226.742 L 2922.33 226.123 " fill="#000000"/>
<path class="note" d="M 2937.47 229.675 Q 2938.69 230.028, 2939.27 230.823 Q 2939.87 231.601, 2939.87 232.838 Q 2939.87 233.898, 2939.34 234.728 Q 2938.81 235.541, 2937.84 236 Q 2936.87 236.442, 2935.59 236.442 Q 2934.25 236.442, 2933.24 235.983 Q 2932.26 235.506, 2931.46 234.551 L 2932.47 233.527 Q 2933.24 234.375, 2933.9 234.71 Q 2934.55 235.028, 2935.59 235.028 Q 2936.73 235.028, 2937.41 234.428 Q 2938.1 233.809, 2938.1 232.82 Q 2938.1 231.548, 2937.38 230.982 Q 2936.67 230.399, 2935.14 230.399 L 2934.23 230.399 L 2934.23 229.127 L 2935.03 229.127 Q 2936.39 229.109, 2937.11 228.526 Q 2937.84 227.926, 2937.84 226.813 Q 2937.84 226, 2937.24 225.523 Q 2936.64 225.028, 2935.61 225.028 Q 2934.57 225.028, 2933.92 225.399 Q 2933.28 225.77, 2932.79 226.707 L 2931.57 226.053 Q 2932.01 225.01, 2933.07 224.321 Q 2934.13 223.614, 2935.61 223.614 Q 2937.45 223.614, 2938.53 224.48 Q 2939.61 225.346, 2939.61 226.813 Q 2939.61 227.82, 2939.06 228.544 Q 2938.51 229.268, 2937.47 229.675 " fill="#000000"/>
<path class="note" d="M 2982.42 196.445 Q 2982.88 195.261, 2983.97 194.607 Q 2985.07 193.936, 2986.59 193.936 Q 2988.48 193.936, 2989.54 194.961 Q 2990.6 195.985, 2990.6 197.805 Q 2990.6 199.66, 2989.22 201.392 Q 2987.86 203.123, 2985.03 205.173 L 2990.81 205.173 L 2990.81 206.587 L 2982.38 206.587 L 2982.38 205.403 Q 2984.71 203.742, 2986.09 202.505 Q 2987.49 201.268, 2988.16 200.155 Q 2988.83 199.042, 2988.83 197.894 Q 2988.83 196.692, 2988.23 196.021 Q 2987.63 195.349, 2986.59 195.349 Q 2985.58 195.349, 2984.91 195.756 Q 2984.24 196.162, 2983.76 197.063 L 2982.42 196.445 " fill="#000000"/>
<path class="note" d="M 2999.47 202.293 L 3000.97 202.293 L 3000.97 203.707 L 2999.47 203.707 L 2999.47 206.587 L 2997.81 206.587 L 2997.81 203.707 L 2991.34 203.707 L 2991.34 202.593 L 2996.82 194.077 L 2999.47 194.077 L 2999.47 202.293 M 2993.39 202.293 L 2997.81 202.293 L 2997.81 195.208 L 2993.39 202.293 " fill="#000000"/>
<path class="note" d="M 3104.83 248.248 Q 3105.29 247.064, 3106.39 246.41 Q 3107.48 245.739, 3109 245.739 Q 3110.89 245.739, 3111.95 246.764 Q 3113.01 247.788, 3113.01 249.608 Q 3113.01 251.464, 3111.63 253.195 Q 3110.27 254.927, 3107.45 256.976 L 3113.22 256.976 L 3113.22 258.39 L 3104.79 258.39 L 3104.79 257.206 Q 3107.13 255.545, 3108.51 254.308 Q 3109.9 253.071, 3110.57 251.958 Q 3111.24 250.845, 3111.24 249.697 Q 3111.24 248.495, 3110.64 247.824 Q 3110.04 247.152, 3109 247.152 Q 3107.99 247.152, 3107.32 247.559 Q 3106.65 247.965, 3106.17 248.866 L 3104.83 248.248 " fill="#000000"/>
<path class="note" d="M 3118.58 250.562 Q 3119.67 250.562, 3120.57 251.04 Q 3121.47 251.499, 3121.99 252.382 Q 3122.5 253.248, 3122.5 254.432 Q 3122.5 255.722, 3121.86 256.658 Q 3121.24 257.577, 3120.22 258.054 Q 3119.19 258.531, 3118.03 258.531 Q 3116.88 258.531, 3115.82 258.107 Q 3114.76 257.683, 3114.04 256.87 L 3115.1 255.775 Q 3115.68 256.411, 3116.47 256.764 Q 3117.27 257.1, 3118.08 257.1 Q 3119.19 257.1, 3119.95 256.411 Q 3120.73 255.722, 3120.73 254.467 Q 3120.73 253.142, 3119.95 252.524 Q 3119.19 251.888, 3117.98 251.888 Q 3116.88 251.888, 3115.66 252.365 L 3114.69 251.905 L 3115.29 245.88 L 3121.72 245.88 L 3121.54 247.294 L 3116.74 247.294 L 3116.37 251.004 Q 3117.48 250.562, 3118.58 250.562 " fill="#000000"/>
<path class="note" d="M 2981.78 85.2841 Q 2982.24 84.1003, 2983.34 83.4465 Q 2984.43 82.7751, 2985.95 82.7751 Q 2987.84 82.7751, 2988.9 83.7999 Q 2989.96 84.8247, 2989.96 86.6446 Q 2989.96 88.4998, 2988.58 90.2313 Q 2987.22 91.9629, 2984.4 94.0124 L 2990.17 94.0124 L 2990.17 95.4259 L 2981.75 95.4259 L 2981.75 94.2421 Q 2984.08 92.5813, 2985.46 91.3445 Q 2986.85 90.1077, 2987.52 88.9945 Q 2988.19 87.8814, 2988.19 86.7329 Q 2988.19 85.5314, 2987.59 84.86 Q 2986.99 84.1886, 2985.95 84.1886 Q 2984.94 84.1886, 2984.27 84.595 Q 2983.6 85.0014, 2983.12 85.9025 L 2981.78 85.2841 " fill="#000000"/>
<path class="note" d="M 2996.27 87.6164 Q 2997.36 87.6164, 2998.23 88.0934 Q 2999.1 88.5705, 2999.57 89.4362 Q 3000.05 90.302, 3000.05 91.3975 Q 3000.05 92.6166, 2999.5 93.5707 Q 2998.97 94.5072, 2998.02 95.0372 Q 2997.06 95.5673, 2995.84 95.5673 Q 2993.62 95.5673, 2992.49 94.0654 Q 2991.37 92.5459, 2991.37 89.5423 Q 2991.37 86.2205, 2992.75 84.5067 Q 2994.15 82.7751, 2996.82 82.7751 Q 2997.59 82.7751, 2998.25 82.9518 Q 2998.92 83.1285, 2999.56 83.4995 L 2998.87 84.6833 Q 2997.95 84.1886, 2996.83 84.1886 Q 2995.07 84.1886, 2994.17 85.3371 Q 2993.27 86.4679, 2993.16 88.8178 Q 2993.8 88.2348, 2994.59 87.9344 Q 2995.4 87.6164, 2996.27 87.6164 M 2995.86 94.1185 Q 2996.53 94.1185, 2997.08 93.7651 Q 2997.65 93.4117, 2997.97 92.7933 Q 2998.28 92.1749, 2998.28 91.4151 Q 2998.28 90.302, 2997.66 89.6659 Q 2997.05 89.0299, 2995.95 89.0299 Q 2995.19 89.0299, 2994.43 89.3479 Q 2993.69 89.6483, 2993.16 90.1783 Q 2993.23 92.2456, 2993.88 93.182 Q 2994.54 94.1185, 2995.86 94.1185 " fill="#000000"/>
<path d="M 1319.67 251.603 L 1325.72 251.603 L 1325.72 245.235 L 1328.41 245.235 L 1328.41 251.603 L 1334.61 251.603 L 1334.61 253.907 L 1328.41 253.907 L 1328.41 260.307 L 1325.72 260.307 L 1325.72 253.907 L 1319.67 253.907 L 1319.67 251.603 " fill="#000000"/>
<path d="M 2006.15,253.907 L 2241.74,253.907" style="fill:none;fill-rule:evenodd;stroke:#000000;stroke-width:2.0px;stroke-linecap:butt;stroke-linejoin:miter;stroke-opacity:1"/>
<path d="M 2241.74,253.907 L 2231.54,248.018" style="fill:none;fill-rule:evenodd;stroke:#000000;stroke-width:2.0px;stroke-linecap:butt;stroke-linejoin:miter;stroke-opacity:1"/>
<path d="M 2241.74,253.907 L 2231.54,259.797" style="fill:none;fill-rule:evenodd;stroke:#000000;stroke-width:2.0px;stroke-linecap:butt;stroke-linejoin:miter;stroke-opacity:1"/>
</svg>