<svg xmlns="http://www.w3.org/2000/svg" xmlns:rdkit="http://www.rdkit.org/xml" xmlns:xlink="http://www.w3.org/1999/xlink" version="1.1" baseProfile="full" xml:space="preserve" width="4000px" height="500px" viewBox="0 0 4000 500">
<!-- END OF HEADER -->
<rect style="opacity:1.0;fill:#FFFFFF;stroke:none" width="4000" height="500" x="0" y="0"> </rect>
<path d="M 212.378,162.685 L 344.707,239.086" style="fill:none;fill-rule:evenodd;stroke:#FFFFAA;stroke-width:32.6px;stroke-linecap:butt;stroke-linejoin:miter;stroke-opacity:1"/>
<path d="M 344.707,239.086 L 344.707,391.886" style="fill:none;fill-rule:evenodd;stroke:#FFFFAA;stroke-width:32.6px;stroke-linecap:butt;stroke-linejoin:miter;stroke-opacity:1"/>
<path d="M 344.707,239.086 L 477.036,162.685" style="fill:none;fill-rule:evenodd;stroke:#FFFFAA;stroke-width:32.6px;stroke-linecap:butt;stroke-linejoin:miter;stroke-opacity:1"/>
<path d="M 477.036,162.685 L 609.365,239.086" style="fill:none;fill-rule:evenodd;stroke:#FFFFAA;stroke-width:32.6px;stroke-linecap:butt;stroke-linejoin:miter;stroke-opacity:1"/>
<path d="M 609.365,239.086 L 741.694,162.685" style="fill:none;fill-rule:evenodd;stroke:#FFFFAA;stroke-width:32.6px;stroke-linecap:butt;stroke-linejoin:miter;stroke-opacity:1"/>
<path d="M 609.365,239.086 L 609.365,391.886" style="fill:none;fill-rule:evenodd;stroke:#FFFFAA;stroke-width:32.6px;stroke-linecap:butt;stroke-linejoin:miter;stroke-opacity:1"/>
<path d="M 1389.11,402.8 L 1389.11,250" style="fill:none;fill-rule:evenodd;stroke:#FFCC99;stroke-width:32.6px;stroke-linecap:butt;stroke-linejoin:miter;stroke-opacity:1"/>
<path d="M 1389.11,250 L 1256.78,173.6" style="fill:none;fill-rule:evenodd;stroke:#FFCC99;stroke-width:32.6px;stroke-linecap:butt;stroke-linejoin:miter;stroke-opacity:1"/>
<path d="M 1389.11,250 L 1521.44,173.6" style="fill:none;fill-rule:evenodd;stroke:#FFCC99;stroke-width:32.6px;stroke-linecap:butt;stroke-linejoin:miter;stroke-opacity:1"/>
<path d="M 1256.78,173.6 L 1124.45,250" style="fill:none;fill-rule:evenodd;stroke:#FFCC99;stroke-width:32.6px;stroke-linecap:butt;stroke-linejoin:miter;stroke-opacity:1"/>
<path d="M 1521.44,173.6 L 1653.77,250" style="fill:none;fill-rule:evenodd;stroke:#FFCC99;stroke-width:32.6px;stroke-linecap:butt;stroke-linejoin:miter;stroke-opacity:1"/>
<path d="M 2495.04,326.4 L 2627.37,250" style="fill:none;fill-rule:evenodd;stroke:#FFFFAA;stroke-width:32.6px;stroke-linecap:butt;stroke-linejoin:miter;stroke-opacity:1"/>
<path d="M 2627.37,250 L 2759.7,326.4" style="fill:none;fill-rule:evenodd;stroke:#FFFFAA;stroke-width:32.6px;stroke-linecap:butt;stroke-linejoin:miter;stroke-opacity:1"/>
<path d="M 2627.37,250 L 2627.37,97.1996" style="fill:none;fill-rule:evenodd;stroke:#FFFFAA;stroke-width:32.6px;stroke-linecap:butt;stroke-linejoin:miter;stroke-opacity:1"/>
<path d="M 3121.68,185.085 L 3262.9,243.416" style="fill:none;fill-rule:evenodd;stroke:#FFFFAA;stroke-width:32.6px;stroke-linecap:butt;stroke-linejoin:miter;stroke-opacity:1"/>
<path d="M 3262.9,243.416 L 3283,394.888" style="fill:none;fill-rule:evenodd;stroke:#FFFFAA;stroke-width:32.6px;stroke-linecap:butt;stroke-linejoin:miter;stroke-opacity:1"/>
<path d="M 3384.03,150.273 L 3525.26,208.603" style="fill:none;fill-rule:evenodd;stroke:#FFCC99;stroke-width:32.6px;stroke-linecap:butt;stroke-linejoin:miter;stroke-opacity:1"/>
<path d="M 3525.26,208.603 L 3646.39,115.461" style="fill:none;fill-rule:evenodd;stroke:#FFCC99;stroke-width:32.6px;stroke-linecap:butt;stroke-linejoin:miter;stroke-opacity:1"/>
<path d="M 3525.26,208.603 L 3545.36,360.076" style="fill:none;fill-rule:evenodd;stroke:#FFCC99;stroke-width:32.6px;stroke-linecap:butt;stroke-linejoin:miter;stroke-opacity:1"/>
<path d="M 3646.39,115.461 L 3787.62,173.791" style="fill:none;fill-rule:evenodd;stroke:#FFCC99;stroke-width:32.6px;stroke-linecap:butt;stroke-linejoin:miter;stroke-opacity:1"/>
<path d="M 3545.36,360.076 L 3686.59,418.406" style="fill:none;fill-rule:evenodd;stroke:#FFCC99;stroke-width:32.6px;stroke-linecap:butt;stroke-linejoin:miter;stroke-opacity:1"/>
<ellipse cx="212.378" cy="162.685" rx="30.5601" ry="30.5601" style="fill:#FFFFAA;fill-rule:evenodd;stroke:#FFFFAA;stroke-width:1px;stroke-linecap:butt;stroke-linejoin:miter;stroke-opacity:1"/>
<ellipse cx="344.707" cy="239.086" rx="30.5601" ry="30.5601" style="fill:#FFFFAA;fill-rule:evenodd;stroke:#FFFFAA;stroke-width:1px;stroke-linecap:butt;stroke-linejoin:miter;stroke-opacity:1"/>
<ellipse cx="344.707" cy="392.106" rx="30.5601" ry="30.5601" style="fill:#FFFFAA;fill-rule:evenodd;stroke:#FFFFAA;stroke-width:1px;stroke-linecap:butt;stroke-linejoin:miter;stroke-opacity:1"/>
<ellipse cx="477.036" cy="162.905" rx="30.5601" ry="30.5601" style="fill:#FFFFAA;fill-rule:evenodd;stroke:#FFFFAA;stroke-width:1px;stroke-linecap:butt;stroke-linejoin:miter;stroke-opacity:1"/>
<ellipse cx="609.365" cy="239.086" rx="30.5601" ry="30.5601" style="fill:#FFFFAA;fill-rule:evenodd;stroke:#FFFFAA;stroke-width:1px;stroke-linecap:butt;stroke-linejoin:miter;stroke-opacity:1"/>
<ellipse cx="741.694" cy="162.685" rx="30.5601" ry="30.5601" style="fill:#FFFFAA;fill-rule:evenodd;stroke:#FFFFAA;stroke-width:1px;stroke-linecap:butt;stroke-linejoin:miter;stroke-opacity:1"/>
<ellipse cx="609.365" cy="392.106" rx="30.5601" ry="30.5601" style="fill:#FFFFAA;fill-rule:evenodd;stroke:#FFFFAA;stroke-width:1px;stroke-linecap:butt;stroke-linejoin:miter;stroke-opacity:1"/>
<ellipse cx="1401.89" cy="403.02" rx="36.4584" ry="30.5601" style="fill:#FFCC99;fill-rule:evenodd;stroke:#FFCC99;stroke-width:1px;stroke-linecap:butt;stroke-linejoin:miter;stroke-opacity:1"/>
<ellipse cx="1389.11" cy="250" rx="30.5601" ry="30.5601" style="fill:#FFCC99;fill-rule:evenodd;stroke:#FFCC99;stroke-width:1px;stroke-linecap:butt;stroke-linejoin:miter;stroke-opacity:1"/>
<ellipse cx="1256.78" cy="173.6" rx="30.5601" ry="30.5601" style="fill:#FFCC99;fill-rule:evenodd;stroke:#FFCC99;stroke-width:1px;stroke-linecap:butt;stroke-linejoin:miter;stroke-opacity:1"/>
<ellipse cx="1124.45" cy="250" rx="30.5601" ry="30.5601" style="fill:#FFCC99;fill-rule:evenodd;stroke:#FFCC99;stroke-width:1px;stroke-linecap:butt;stroke-linejoin:miter;stroke-opacity:1"/>
<ellipse cx="1521.44" cy="173.6" rx="30.5601" ry="30.5601" style="fill:#FFCC99;fill-rule:evenodd;stroke:#FFCC99;stroke-width:1px;stroke-linecap:butt;stroke-linejoin:miter;stroke-opacity:1"/>
<ellipse cx="1653.77" cy="250" rx="30.5601" ry="30.5601" style="fill:#FFCC99;fill-rule:evenodd;stroke:#FFCC99;stroke-width:1px;stroke-linecap:butt;stroke-linejoin:miter;stroke-opacity:1"/>
<ellipse cx="2495.04" cy="326.4" rx="30.5601" ry="30.5601" style="fill:#FFFFAA;fill-rule:evenodd;stroke:#FFFFAA;stroke-width:1px;stroke-linecap:butt;stroke-linejoin:miter;stroke-opacity:1"/>
<ellipse cx="2627.37" cy="250" rx="30.5601" ry="30.5601" style="fill:#FFFFAA;fill-rule:evenodd;stroke:#FFFFAA;stroke-width:1px;stroke-linecap:butt;stroke-linejoin:miter;stroke-opacity:1"/>
<ellipse cx="2759.7" cy="326.62" rx="30.5601" ry="30.5601" style="fill:#FFFFAA;fill-rule:evenodd;stroke:#FFFFAA;stroke-width:1px;stroke-linecap:butt;stroke-linejoin:miter;stroke-opacity:1"/>
<ellipse cx="2640.15" cy="97.4196" rx="36.4584" ry="30.5601" style="fill:#FFFFAA;fill-rule:evenodd;stroke:#FFFFAA;stroke-width:1px;stroke-linecap:butt;stroke-linejoin:miter;stroke-opacity:1"/>
<ellipse cx="3121.68" cy="185.085" rx="30.5601" ry="30.5601" style="fill:#FFFFAA;fill-rule:evenodd;stroke:#FFFFAA;stroke-width:1px;stroke-linecap:butt;stroke-linejoin:miter;stroke-opacity:1"/>
<ellipse cx="3262.9" cy="243.416" rx="30.5601" ry="30.5601" style="fill:#FFFFAA;fill-rule:evenodd;stroke:#FFFFAA;stroke-width:1px;stroke-linecap:butt;stroke-linejoin:miter;stroke-opacity:1"/>
<ellipse cx="3283" cy="395.108" rx="30.5601" ry="30.5601" style="fill:#FFFFAA;fill-rule:evenodd;stroke:#FFFFAA;stroke-width:1px;stroke-linecap:butt;stroke-linejoin:miter;stroke-opacity:1"/>
<ellipse cx="3384.03" cy="150.493" rx="30.5601" ry="30.5601" style="fill:#FFCC99;fill-rule:evenodd;stroke:#FFCC99;stroke-width:1px;stroke-linecap:butt;stroke-linejoin:miter;stroke-opacity:1"/>
<ellipse cx="3525.26" cy="208.603" rx="30.5601" ry="30.5601" style="fill:#FFCC99;fill-rule:evenodd;stroke:#FFCC99;stroke-width:1px;stroke-linecap:butt;stroke-linejoin:miter;stroke-opacity:1"/>
<ellipse cx="3646.39" cy="115.461" rx="30.5601" ry="30.5601" style="fill:#FFCC99;fill-rule:evenodd;stroke:#FFCC99;stroke-width:1px;stroke-linecap:butt;stroke-linejoin:miter;stroke-opacity:1"/>
<ellipse cx="3787.62" cy="173.791" rx="30.5601" ry="30.5601" style="fill:#FFCC99;fill-rule:evenodd;stroke:#FFCC99;stroke-width:1px;stroke-linecap:butt;stroke-linejoin:miter;stroke-opacity:1"/>
<ellipse cx="3545.36" cy="360.076" rx="30.5601" ry="30.5601" style="fill:#FFCC99;fill-rule:evenodd;stroke:#FFCC99;stroke-width:1px;stroke-linecap:butt;stroke-linejoin:miter;stroke-opacity:1"/>
<ellipse cx="3686.59" cy="418.406" rx="30.5601" ry="30.5601" style="fill:#FFCC99;fill-rule:evenodd;stroke:#FFCC99;stroke-width:1px;stroke-linecap:butt;stroke-linejoin:miter;stroke-opacity:1"/>
<path class="bond-0" d="M 212.378,162.685 L 344.707,239.086" style="fill:none;fill-rule:evenodd;stroke:#000000;stroke-width:2.0px;stroke-linecap:butt;stroke-linejoin:miter;stroke-opacity:1"/>
<path class="bond-1" d="M 329.427,239.086 L 329.427,306.416" style="fill:none;fill-rule:evenodd;stroke:#000000;stroke-width:2.0px;stroke-linecap:butt;stroke-linejoin:miter;stroke-opacity:1"/>
<path class="bond-1" d="M 329.427,306.416 L 329.427,373.746" style="fill:none;fill-rule:evenodd;stroke:#FF0000;stroke-width:2.0px;stroke-linecap:butt;stroke-linejoin:miter;stroke-opacity:1"/>
<path class="bond-1" d="M 359.987,239.086 L 359.987,306.416" style="fill:none;fill-rule:evenodd;stroke:#000000;stroke-width:2.0px;stroke-linecap:butt;stroke-linejoin:miter;stroke-opacity:1"/>
<path class="bond-1" d="M 359.987,306.416 L 359.987,373.746" style="fill:none;fill-rule:evenodd;stroke:#FF0000;stroke-width:2.0px;stroke-linecap:butt;stroke-linejoin:miter;stroke-opacity:1"/>
<path class="bond-2" d="M 344.707,239.086 L 402.462,205.741" style="fill:none;fill-rule:evenodd;stroke:#000000;stroke-width:2.0px;stroke-linecap:butt;stroke-linejoin:miter;stroke-opacity:1"/>
<path class="bond-2" d="M 402.462,205.741 L 460.216,172.397" style="fill:none;fill-rule:evenodd;stroke:#FF0000;stroke-width:2.0px;stroke-linecap:butt;stroke-linejoin:miter;stroke-opacity:1"/>
<path class="bond-3" d="M 493.856,172.397 L 551.611,205.741" style="fill:none;fill-rule:evenodd;stroke:#FF0000;stroke-width:2.0px;stroke-linecap:butt;stroke-linejoin:miter;stroke-opacity:1"/>
<path class="bond-3" d="M 551.611,205.741 L 609.365,239.086" style="fill:none;fill-rule:evenodd;stroke:#000000;stroke-width:2.0px;stroke-linecap:butt;stroke-linejoin:miter;stroke-opacity:1"/>
<path class="bond-4" d="M 609.365,239.086 L 741.694,162.685" style="fill:none;fill-rule:evenodd;stroke:#000000;stroke-width:2.0px;stroke-linecap:butt;stroke-linejoin:miter;stroke-opacity:1"/>
<path class="bond-5" d="M 594.085,239.086 L 594.085,306.416" style="fill:none;fill-rule:evenodd;stroke:#000000;stroke-width:2.0px;stroke-linecap:butt;stroke-linejoin:miter;stroke-opacity:1"/>
<path class="bond-5" d="M 594.085,306.416 L 594.085,373.746" style="fill:none;fill-rule:evenodd;stroke:#FF0000;stroke-width:2.0px;stroke-linecap:butt;stroke-linejoin:miter;stroke-opacity:1"/>
<path class="bond-5" d="M 624.645,239.086 L 624.645,306.416" style="fill:none;fill-rule:evenodd;stroke:#000000;stroke-width:2.0px;stroke-linecap:butt;stroke-linejoin:miter;stroke-opacity:1"/>
<path class="bond-5" d="M 624.645,306.416 L 624.645,373.746" style="fill:none;fill-rule:evenodd;stroke:#FF0000;stroke-width:2.0px;stroke-linecap:butt;stroke-linejoin:miter;stroke-opacity:1"/>
<path class="bond-6" d="M 1389.11,384.66 L 1389.11,317.33" style="fill:none;fill-rule:evenodd;stroke:#FF0000;stroke-width:2.0px;stroke-linecap:butt;stroke-linejoin:miter;stroke-opacity:1"/>
<path class="bond-6" d="M 1389.11,317.33 L 1389.11,250" style="fill:none;fill-rule:evenodd;stroke:#000000;stroke-width:2.0px;stroke-linecap:butt;stroke-linejoin:miter;stroke-opacity:1"/>
<path class="bond-7" d="M 1389.11,250 L 1256.78,173.6" style="fill:none;fill-rule:evenodd;stroke:#000000;stroke-width:2.0px;stroke-linecap:butt;stroke-linejoin:miter;stroke-opacity:1"/>
<path class="bond-7" d="M 1353.98,265.006 L 1261.35,211.526" style="fill:none;fill-rule:evenodd;stroke:#000000;stroke-width:2.0px;stroke-linecap:butt;stroke-linejoin:miter;stroke-opacity:1;stroke-dasharray:6,6"/>
<path class="bond-9" d="M 1389.11,250 L 1521.44,173.6" style="fill:none;fill-rule:evenodd;stroke:#000000;stroke-width:2.0px;stroke-linecap:butt;stroke-linejoin:miter;stroke-opacity:1"/>
<path class="bond-9" d="M 1424.24,265.006 L 1516.87,211.526" style="fill:none;fill-rule:evenodd;stroke:#000000;stroke-width:2.0px;stroke-linecap:butt;stroke-linejoin:miter;stroke-opacity:1;stroke-dasharray:6,6"/>
<path class="bond-8" d="M 1249.14,160.367 L 1116.81,236.767" style="fill:none;fill-rule:evenodd;stroke:#000000;stroke-width:2.0px;stroke-linecap:butt;stroke-linejoin:miter;stroke-opacity:1"/>
<path class="bond-8" d="M 1264.42,186.833 L 1132.09,263.233" style="fill:none;fill-rule:evenodd;stroke:#000000;stroke-width:2.0px;stroke-linecap:butt;stroke-linejoin:miter;stroke-opacity:1;stroke-dasharray:6,6"/>
<path class="bond-10" d="M 1513.8,186.833 L 1646.13,263.233" style="fill:none;fill-rule:evenodd;stroke:#000000;stroke-width:2.0px;stroke-linecap:butt;stroke-linejoin:miter;stroke-opacity:1"/>
<path class="bond-10" d="M 1529.08,160.367 L 1661.41,236.767" style="fill:none;fill-rule:evenodd;stroke:#000000;stroke-width:2.0px;stroke-linecap:butt;stroke-linejoin:miter;stroke-opacity:1;stroke-dasharray:6,6"/>
<path class="bond-11" d="M 2495.04,326.4 L 2627.37,250" style="fill:none;fill-rule:evenodd;stroke:#000000;stroke-width:2.0px;stroke-linecap:butt;stroke-linejoin:miter;stroke-opacity:1"/>
<path class="bond-12" d="M 2619.73,263.233 L 2677.49,296.577" style="fill:none;fill-rule:evenodd;stroke:#000000;stroke-width:2.0px;stroke-linecap:butt;stroke-linejoin:miter;stroke-opacity:1"/>
<path class="bond-12" d="M 2677.49,296.577 L 2735.24,329.922" style="fill:none;fill-rule:evenodd;stroke:#FF0000;stroke-width:2.0px;stroke-linecap:butt;stroke-linejoin:miter;stroke-opacity:1"/>
<path class="bond-12" d="M 2635.01,236.767 L 2692.77,270.112" style="fill:none;fill-rule:evenodd;stroke:#000000;stroke-width:2.0px;stroke-linecap:butt;stroke-linejoin:miter;stroke-opacity:1"/>
<path class="bond-12" d="M 2692.77,270.112 L 2750.52,303.456" style="fill:none;fill-rule:evenodd;stroke:#FF0000;stroke-width:2.0px;stroke-linecap:butt;stroke-linejoin:miter;stroke-opacity:1"/>
<path class="bond-13" d="M 2627.37,250 L 2627.37,182.89" style="fill:none;fill-rule:evenodd;stroke:#000000;stroke-width:2.0px;stroke-linecap:butt;stroke-linejoin:miter;stroke-opacity:1"/>
<path class="bond-13" d="M 2627.37,182.89 L 2627.37,115.78" style="fill:none;fill-rule:evenodd;stroke:#FF0000;stroke-width:2.0px;stroke-linecap:butt;stroke-linejoin:miter;stroke-opacity:1"/>
<path class="bond-14" d="M 3121.68,185.085 L 3262.9,243.416" style="fill:none;fill-rule:evenodd;stroke:#000000;stroke-width:2.0px;stroke-linecap:butt;stroke-linejoin:miter;stroke-opacity:1"/>
<path class="bond-15" d="M 3247.76,245.426 L 3256.6,312.092" style="fill:none;fill-rule:evenodd;stroke:#000000;stroke-width:2.0px;stroke-linecap:butt;stroke-linejoin:miter;stroke-opacity:1"/>
<path class="bond-15" d="M 3256.6,312.092 L 3265.45,378.758" style="fill:none;fill-rule:evenodd;stroke:#FF0000;stroke-width:2.0px;stroke-linecap:butt;stroke-linejoin:miter;stroke-opacity:1"/>
<path class="bond-15" d="M 3278.05,241.406 L 3286.9,308.072" style="fill:none;fill-rule:evenodd;stroke:#000000;stroke-width:2.0px;stroke-linecap:butt;stroke-linejoin:miter;stroke-opacity:1"/>
<path class="bond-15" d="M 3286.9,308.072 L 3295.74,374.739" style="fill:none;fill-rule:evenodd;stroke:#FF0000;stroke-width:2.0px;stroke-linecap:butt;stroke-linejoin:miter;stroke-opacity:1"/>
<path class="bond-16" d="M 3262.9,243.416 L 3315.06,203.311" style="fill:none;fill-rule:evenodd;stroke:#000000;stroke-width:2.0px;stroke-linecap:butt;stroke-linejoin:miter;stroke-opacity:1"/>
<path class="bond-16" d="M 3315.06,203.311 L 3367.21,163.207" style="fill:none;fill-rule:evenodd;stroke:#FF0000;stroke-width:2.0px;stroke-linecap:butt;stroke-linejoin:miter;stroke-opacity:1"/>
<path class="bond-17" d="M 3400.85,157.22 L 3463.06,182.912" style="fill:none;fill-rule:evenodd;stroke:#FF0000;stroke-width:2.0px;stroke-linecap:butt;stroke-linejoin:miter;stroke-opacity:1"/>
<path class="bond-17" d="M 3463.06,182.912 L 3525.26,208.603" style="fill:none;fill-rule:evenodd;stroke:#000000;stroke-width:2.0px;stroke-linecap:butt;stroke-linejoin:miter;stroke-opacity:1"/>
<path class="bond-18" d="M 3525.26,208.603 L 3646.39,115.461" style="fill:none;fill-rule:evenodd;stroke:#000000;stroke-width:2.0px;stroke-linecap:butt;stroke-linejoin:miter;stroke-opacity:1"/>
<path class="bond-18" d="M 3524.8,170.406 L 3609.6,105.206" style="fill:none;fill-rule:evenodd;stroke:#000000;stroke-width:2.0px;stroke-linecap:butt;stroke-linejoin:miter;stroke-opacity:1;stroke-dasharray:6,6"/>
<path class="bond-20" d="M 3525.26,208.603 L 3545.36,360.076" style="fill:none;fill-rule:evenodd;stroke:#000000;stroke-width:2.0px;stroke-linecap:butt;stroke-linejoin:miter;stroke-opacity:1"/>
<path class="bond-20" d="M 3497.98,235.344 L 3512.05,341.375" style="fill:none;fill-rule:evenodd;stroke:#000000;stroke-width:2.0px;stroke-linecap:butt;stroke-linejoin:miter;stroke-opacity:1;stroke-dasharray:6,6"/>
<path class="bond-19" d="M 3640.56,129.584 L 3781.79,187.914" style="fill:none;fill-rule:evenodd;stroke:#000000;stroke-width:2.0px;stroke-linecap:butt;stroke-linejoin:miter;stroke-opacity:1"/>
<path class="bond-19" d="M 3652.23,101.338 L 3793.45,159.668" style="fill:none;fill-rule:evenodd;stroke:#000000;stroke-width:2.0px;stroke-linecap:butt;stroke-linejoin:miter;stroke-opacity:1;stroke-dasharray:6,6"/>
<path class="bond-21" d="M 3539.53,374.199 L 3680.76,432.529" style="fill:none;fill-rule:evenodd;stroke:#000000;stroke-width:2.0px;stroke-linecap:butt;stroke-linejoin:miter;stroke-opacity:1"/>
<path class="bond-21" d="M 3551.2,345.953 L 3692.42,404.283" style="fill:none;fill-rule:evenodd;stroke:#000000;stroke-width:2.0px;stroke-linecap:butt;stroke-linejoin:miter;stroke-opacity:1;stroke-dasharray:6,6"/>
<path class="atom-2" d="M 331.707 391.966 Q 331.707 385.166, 335.067 381.366 Q 338.427 377.566, 344.707 377.566 Q 350.987 377.566, 354.347 381.366 Q 357.707 385.166, 357.707 391.966 Q 357.707 398.846, 354.307 402.766 Q 350.907 406.646, 344.707 406.646 Q 338.467 406.646, 335.067 402.766 Q 331.707 398.886, 331.707 391.966 M 344.707 403.446 Q 349.027 403.446, 351.347 400.566 Q 353.707 397.646, 353.707 391.966 Q 353.707 386.406, 351.347 383.606 Q 349.027 380.766, 344.707 380.766 Q 340.387 380.766, 338.027 383.566 Q 335.707 386.366, 335.707 391.966 Q 335.707 397.686, 338.027 400.566 Q 340.387 403.446, 344.707 403.446 " fill="#FF0000"/>
<path class="atom-3" d="M 464.036 162.765 Q 464.036 155.965, 467.396 152.165 Q 470.756 148.365, 477.036 148.365 Q 483.316 148.365, 486.676 152.165 Q 490.036 155.965, 490.036 162.765 Q 490.036 169.645, 486.636 173.565 Q 483.236 177.445, 477.036 177.445 Q 470.796 177.445, 467.396 173.565 Q 464.036 169.685, 464.036 162.765 M 477.036 174.245 Q 481.356 174.245, 483.676 171.365 Q 486.036 168.445, 486.036 162.765 Q 486.036 157.205, 483.676 154.405 Q 481.356 151.565, 477.036 151.565 Q 472.716 151.565, 470.356 154.365 Q 468.036 157.165, 468.036 162.765 Q 468.036 168.485, 470.356 171.365 Q 472.716 174.245, 477.036 174.245 " fill="#FF0000"/>
<path class="atom-6" d="M 596.365 391.966 Q 596.365 385.166, 599.725 381.366 Q 603.085 377.566, 609.365 377.566 Q 615.645 377.566, 619.005 381.366 Q 622.365 385.166, 622.365 391.966 Q 622.365 398.846, 618.965 402.766 Q 615.565 406.646, 609.365 406.646 Q 603.125 406.646, 599.725 402.766 Q 596.365 398.886, 596.365 391.966 M 609.365 403.446 Q 613.685 403.446, 616.005 400.566 Q 618.365 397.646, 618.365 391.966 Q 618.365 386.406, 616.005 383.606 Q 613.685 380.766, 609.365 380.766 Q 605.045 380.766, 602.685 383.566 Q 600.365 386.366, 600.365 391.966 Q 600.365 397.686, 602.685 400.566 Q 605.045 403.446, 609.365 403.446 " fill="#FF0000"/>
<path class="atom-7" d="M 1376.11 402.88 Q 1376.11 396.08, 1379.47 392.28 Q 1382.83 388.48, 1389.11 388.48 Q 1395.39 388.48, 1398.75 392.28 Q 1402.11 396.08, 1402.11 402.88 Q 1402.11 409.76, 1398.71 413.68 Q 1395.31 417.56, 1389.11 417.56 Q 1382.87 417.56, 1379.47 413.68 Q 1376.11 409.8, 1376.11 402.88 M 1389.11 414.36 Q 1393.43 414.36, 1395.75 411.48 Q 1398.11 408.56, 1398.11 402.88 Q 1398.11 397.32, 1395.75 394.52 Q 1393.43 391.68, 1389.11 391.68 Q 1384.79 391.68, 1382.43 394.48 Q 1380.11 397.28, 1380.11 402.88 Q 1380.11 408.6, 1382.43 411.48 Q 1384.79 414.36, 1389.11 414.36 " fill="#FF0000"/>
<path class="atom-7" d="M 1405.51 388.8 L 1409.35 388.8 L 1409.35 400.84 L 1423.83 400.84 L 1423.83 388.8 L 1427.67 388.8 L 1427.67 417.12 L 1423.83 417.12 L 1423.83 404.04 L 1409.35 404.04 L 1409.35 417.12 L 1405.51 417.12 L 1405.51 388.8 " fill="#FF0000"/>
<path class="atom-15" d="M 2746.7 326.48 Q 2746.7 319.68, 2750.06 315.88 Q 2753.42 312.08, 2759.7 312.08 Q 2765.98 312.08, 2769.34 315.88 Q 2772.7 319.68, 2772.7 326.48 Q 2772.7 333.36, 2769.3 337.28 Q 2765.9 341.16, 2759.7 341.16 Q 2753.46 341.16, 2750.06 337.28 Q 2746.7 333.4, 2746.7 326.48 M 2759.7 337.96 Q 2764.02 337.96, 2766.34 335.08 Q 2768.7 332.16, 2768.7 326.48 Q 2768.7 320.92, 2766.34 318.12 Q 2764.02 315.28, 2759.7 315.28 Q 2755.38 315.28, 2753.02 318.08 Q 2750.7 320.88, 2750.7 326.48 Q 2750.7 332.2, 2753.02 335.08 Q 2755.38 337.96, 2759.7 337.96 " fill="#FF0000"/>
<path class="atom-16" d="M 2614.37 97.2796 Q 2614.37 90.4796, 2617.73 86.6796 Q 2621.09 82.8796, 2627.37 82.8796 Q 2633.65 82.8796, 2637.01 86.6796 Q 2640.37 90.4796, 2640.37 97.2796 Q 2640.37 104.16, 2636.97 108.08 Q 2633.57 111.96, 2627.37 111.96 Q 2621.13 111.96, 2617.73 108.08 Q 2614.37 104.2, 2614.37 97.2796 M 2627.37 108.76 Q 2631.69 108.76, 2634.01 105.88 Q 2636.37 102.96, 2636.37 97.2796 Q 2636.37 91.7196, 2634.01 88.9196 Q 2631.69 86.0796, 2627.37 86.0796 Q 2623.05 86.0796, 2620.69 88.8796 Q 2618.37 91.6796, 2618.37 97.2796 Q 2618.37 103, 2620.69 105.88 Q 2623.05 108.76, 2627.37 108.76 " fill="#FF0000"/>
<path class="atom-16" d="M 2643.77 83.1996 L 2647.61 83.1996 L 2647.61 95.2396 L 2662.09 95.2396 L 2662.09 83.1996 L 2665.93 83.1996 L 2665.93 111.52 L 2662.09 111.52 L 2662.09 98.4396 L 2647.61 98.4396 L 2647.61 111.52 L 2643.77 111.52 L 2643.77 83.1996 " fill="#FF0000"/>
<path class="atom-19" d="M 3270 394.968 Q 3270 388.168, 3273.36 384.368 Q 3276.72 380.568, 3283 380.568 Q 3289.28 380.568, 3292.64 384.368 Q 3296 388.168, 3296 394.968 Q 3296 401.848, 3292.6 405.768 Q 3289.2 409.648, 3283 409.648 Q 3276.76 409.648, 3273.36 405.768 Q 3270 401.888, 3270 394.968 M 3283 406.448 Q 3287.32 406.448, 3289.64 403.568 Q 3292 400.648, 3292 394.968 Q 3292 389.408, 3289.64 386.608 Q 3287.32 383.768, 3283 383.768 Q 3278.68 383.768, 3276.32 386.568 Q 3274 389.368, 3274 394.968 Q 3274 400.688, 3276.32 403.568 Q 3278.68 406.448, 3283 406.448 " fill="#FF0000"/>
<path class="atom-20" d="M 3371.03 150.353 Q 3371.03 143.553, 3374.39 139.753 Q 3377.75 135.953, 3384.03 135.953 Q 3390.31 135.953, 3393.67 139.753 Q 3397.03 143.553, 3397.03 150.353 Q 3397.03 157.233, 3393.63 161.153 Q 3390.23 165.033, 3384.03 165.033 Q 3377.79 165.033, 3374.39 161.153 Q 3371.03 157.273, 3371.03 150.353 M 3384.03 161.833 Q 3388.35 161.833, 3390.67 158.953 Q 3393.03 156.033, 3393.03 150.353 Q 3393.03 144.793, 3390.67 141.993 Q 3388.35 139.153, 3384.03 139.153 Q 3379.71 139.153, 3377.35 141.953 Q 3375.03 144.753, 3375.03 150.353 Q 3375.03 156.073, 3377.35 158.953 Q 3379.71 161.833, 3384.03 161.833 " fill="#FF0000"/>
<path class="note" d="M 196.155 190.26 L 199.255 190.26 L 199.255 179.68 L 195.835 180.74 L 195.375 179.56 L 199.715 177.62 L 201.135 177.86 L 201.135 190.26 L 203.915 190.26 L 203.915 191.86 L 196.155 191.86 L 196.155 190.26 " fill="#000000"/>
<path class="note" d="M 339.977 209.299 Q 340.497 207.959, 341.737 207.219 Q 342.977 206.459, 344.697 206.459 Q 346.837 206.459, 348.037 207.619 Q 349.237 208.779, 349.237 210.839 Q 349.237 212.939, 347.677 214.899 Q 346.137 216.859, 342.937 219.179 L 349.477 219.179 L 349.477 220.779 L 339.937 220.779 L 339.937 219.439 Q 342.577 217.559, 344.137 216.159 Q 345.717 214.759, 346.477 213.499 Q 347.237 212.239, 347.237 210.939 Q 347.237 209.579, 346.557 208.819 Q 345.877 208.059, 344.697 208.059 Q 343.557 208.059, 342.797 208.519 Q 342.037 208.979, 341.497 209.999 L 339.977 209.299 " fill="#000000"/>
<path class="note" d="M 346.747 442.52 Q 348.127 442.92, 348.787 443.82 Q 349.467 444.7, 349.467 446.1 Q 349.467 447.3, 348.867 448.24 Q 348.267 449.16, 347.167 449.68 Q 346.067 450.18, 344.627 450.18 Q 343.107 450.18, 341.967 449.66 Q 340.847 449.12, 339.947 448.04 L 341.087 446.88 Q 341.967 447.84, 342.707 448.22 Q 343.447 448.58, 344.627 448.58 Q 345.907 448.58, 346.687 447.9 Q 347.467 447.2, 347.467 446.08 Q 347.467 444.64, 346.647 444 Q 345.847 443.34, 344.107 443.34 L 343.087 443.34 L 343.087 441.9 L 343.987 441.9 Q 345.527 441.88, 346.347 441.22 Q 347.167 440.54, 347.167 439.28 Q 347.167 438.36, 346.487 437.82 Q 345.807 437.26, 344.647 437.26 Q 343.467 437.26, 342.727 437.68 Q 342.007 438.1, 341.447 439.16 L 340.067 438.42 Q 340.567 437.24, 341.767 436.46 Q 342.967 435.66, 344.647 435.66 Q 346.727 435.66, 347.947 436.64 Q 349.167 437.62, 349.167 439.28 Q 349.167 440.42, 348.547 441.24 Q 347.927 442.06, 346.747 442.52 " fill="#000000"/>
<path class="note" d="M 480.786 113.972 L 482.486 113.972 L 482.486 115.572 L 480.786 115.572 L 480.786 118.832 L 478.906 118.832 L 478.906 115.572 L 471.586 115.572 L 471.586 114.312 L 477.786 104.672 L 480.786 104.672 L 480.786 113.972 M 473.906 113.972 L 478.906 113.972 L 478.906 105.952 L 473.906 113.972 " fill="#000000"/>
<path class="note" d="M 609.995 211.939 Q 611.235 211.939, 612.215 212.479 Q 613.195 213.019, 613.735 213.999 Q 614.275 214.979, 614.275 216.219 Q 614.275 217.599, 613.655 218.679 Q 613.055 219.739, 611.975 220.339 Q 610.895 220.939, 609.515 220.939 Q 606.995 220.939, 605.715 219.239 Q 604.455 217.519, 604.455 214.119 Q 604.455 210.359, 606.015 208.419 Q 607.595 206.459, 610.615 206.459 Q 611.495 206.459, 612.235 206.659 Q 612.995 206.859, 613.715 207.279 L 612.935 208.619 Q 611.895 208.059, 610.635 208.059 Q 608.635 208.059, 607.615 209.359 Q 606.595 210.639, 606.475 213.299 Q 607.195 212.639, 608.095 212.299 Q 609.015 211.939, 609.995 211.939 M 609.535 219.299 Q 610.295 219.299, 610.915 218.899 Q 611.555 218.499, 611.915 217.799 Q 612.275 217.099, 612.275 216.239 Q 612.275 214.979, 611.575 214.259 Q 610.875 213.539, 609.635 213.539 Q 608.775 213.539, 607.915 213.899 Q 607.075 214.239, 606.475 214.839 Q 606.555 217.179, 607.295 218.239 Q 608.035 219.299, 609.535 219.299 " fill="#000000"/>
<path class="note" d="M 729.311 138.851 Q 730.551 138.851, 731.571 139.391 Q 732.591 139.911, 733.171 140.911 Q 733.751 141.891, 733.751 143.231 Q 733.751 144.691, 733.031 145.751 Q 732.331 146.791, 731.171 147.331 Q 730.011 147.871, 728.691 147.871 Q 727.391 147.871, 726.191 147.391 Q 724.991 146.911, 724.171 145.991 L 725.371 144.751 Q 726.031 145.471, 726.931 145.871 Q 727.831 146.251, 728.751 146.251 Q 730.011 146.251, 730.871 145.471 Q 731.751 144.691, 731.751 143.271 Q 731.751 141.771, 730.871 141.071 Q 730.011 140.351, 728.631 140.351 Q 727.391 140.351, 726.011 140.891 L 724.911 140.371 L 725.591 133.551 L 732.871 133.551 L 732.671 135.151 L 727.231 135.151 L 726.811 139.351 Q 728.071 138.851, 729.311 138.851 " fill="#000000"/>
<path class="note" d="M 612.085 437.34 L 604.665 437.34 L 604.665 435.74 L 614.065 435.74 L 614.065 437.16 L 608.345 449.9 L 606.425 449.9 L 612.085 437.34 " fill="#000000"/>
<path class="note" d="M 1391.33 453.394 Q 1392.63 453.954, 1393.37 454.794 Q 1394.11 455.614, 1394.11 457.014 Q 1394.11 458.214, 1393.49 459.154 Q 1392.87 460.074, 1391.75 460.594 Q 1390.65 461.094, 1389.19 461.094 Q 1386.83 461.094, 1385.47 460.014 Q 1384.11 458.914, 1384.11 457.014 Q 1384.11 455.854, 1384.71 454.994 Q 1385.31 454.114, 1386.55 453.454 Q 1385.63 452.934, 1385.13 452.174 Q 1384.63 451.394, 1384.63 450.194 Q 1384.63 448.534, 1385.83 447.554 Q 1387.05 446.574, 1389.11 446.574 Q 1391.17 446.574, 1392.37 447.554 Q 1393.59 448.534, 1393.59 450.194 Q 1393.59 451.234, 1393.01 452.014 Q 1392.45 452.774, 1391.33 453.394 M 1389.11 448.074 Q 1387.93 448.074, 1387.27 448.634 Q 1386.63 449.194, 1386.63 450.194 Q 1386.63 450.934, 1387.07 451.434 Q 1387.51 451.914, 1388.13 452.194 Q 1388.77 452.474, 1389.99 452.894 Q 1390.85 452.294, 1391.21 451.654 Q 1391.59 451.014, 1391.59 450.194 Q 1391.59 449.194, 1390.93 448.634 Q 1390.29 448.074, 1389.11 448.074 M 1389.19 459.594 Q 1390.51 459.594, 1391.31 458.894 Q 1392.11 458.174, 1392.11 456.994 Q 1392.11 456.234, 1391.69 455.754 Q 1391.27 455.274, 1390.63 454.994 Q 1390.01 454.714, 1388.89 454.354 L 1387.99 454.054 Q 1386.99 454.654, 1386.55 455.374 Q 1386.11 456.074, 1386.11 456.994 Q 1386.11 458.174, 1386.95 458.894 Q 1387.79 459.594, 1389.19 459.594 " fill="#000000"/>
<path class="note" d="M 1366.9 255.573 Q 1369.42 255.573, 1370.68 257.293 Q 1371.96 258.993, 1371.96 262.393 Q 1371.96 266.153, 1370.38 268.113 Q 1368.82 270.053, 1365.8 270.053 Q 1364.92 270.053, 1364.16 269.853 Q 1363.42 269.653, 1362.7 269.233 L 1363.48 267.893 Q 1364.52 268.453, 1365.78 268.453 Q 1367.78 268.453, 1368.8 267.173 Q 1369.82 265.873, 1369.94 263.213 Q 1369.22 263.873, 1368.3 264.233 Q 1367.4 264.573, 1366.42 264.573 Q 1365.18 264.573, 1364.2 264.033 Q 1363.22 263.493, 1362.68 262.513 Q 1362.14 261.533, 1362.14 260.293 Q 1362.14 258.913, 1362.74 257.853 Q 1363.36 256.773, 1364.44 256.173 Q 1365.52 255.573, 1366.9 255.573 M 1364.14 260.273 Q 1364.14 261.533, 1364.84 262.253 Q 1365.54 262.973, 1366.78 262.973 Q 1367.64 262.973, 1368.48 262.633 Q 1369.34 262.273, 1369.94 261.673 Q 1369.86 259.333, 1369.12 258.273 Q 1368.38 257.213, 1366.88 257.213 Q 1366.12 257.213, 1365.48 257.613 Q 1364.86 258.013, 1364.5 258.713 Q 1364.14 259.413, 1364.14 260.273 " fill="#000000"/>
<path class="note" d="M 1243.23 128.226 L 1246.33 128.226 L 1246.33 117.646 L 1242.91 118.706 L 1242.45 117.526 L 1246.79 115.586 L 1248.21 115.826 L 1248.21 128.226 L 1250.99 128.226 L 1250.99 129.826 L 1243.23 129.826 L 1243.23 128.226 " fill="#000000"/>
<path class="note" d="M 1257.39 129.986 Q 1254.79 129.986, 1253.49 128.066 Q 1252.21 126.146, 1252.21 122.726 Q 1252.21 119.306, 1253.49 117.406 Q 1254.77 115.506, 1257.39 115.506 Q 1260.01 115.506, 1261.29 117.406 Q 1262.57 119.306, 1262.57 122.726 Q 1262.57 126.146, 1261.27 128.066 Q 1259.99 129.986, 1257.39 129.986 M 1257.39 128.386 Q 1258.93 128.386, 1259.75 126.966 Q 1260.57 125.526, 1260.57 122.726 Q 1260.57 119.946, 1259.75 118.526 Q 1258.93 117.106, 1257.39 117.106 Q 1255.87 117.106, 1255.03 118.526 Q 1254.21 119.946, 1254.21 122.726 Q 1254.21 125.526, 1255.03 126.966 Q 1255.87 128.386, 1257.39 128.386 " fill="#000000"/>
<path class="note" d="M 1089.82 242.787 L 1092.92 242.787 L 1092.92 232.207 L 1089.5 233.267 L 1089.04 232.087 L 1093.38 230.147 L 1094.8 230.387 L 1094.8 242.787 L 1097.58 242.787 L 1097.58 244.387 L 1089.82 244.387 L 1089.82 242.787 " fill="#000000"/>
<path class="note" d="M 1099.44 242.787 L 1102.54 242.787 L 1102.54 232.207 L 1099.12 233.267 L 1098.66 232.087 L 1103 230.147 L 1104.42 230.387 L 1104.42 242.787 L 1107.2 242.787 L 1107.2 244.387 L 1099.44 244.387 L 1099.44 242.787 " fill="#000000"/>
<path class="note" d="M 1493.95 147.225 Q 1494.47 145.885, 1495.71 145.145 Q 1496.95 144.385, 1498.67 144.385 Q 1500.81 144.385, 1502.01 145.545 Q 1503.21 146.705, 1503.21 148.765 Q 1503.21 150.865, 1501.65 152.825 Q 1500.11 154.785, 1496.91 157.105 L 1503.45 157.105 L 1503.45 158.705 L 1493.91 158.705 L 1493.91 157.365 Q 1496.55 155.485, 1498.11 154.085 Q 1499.69 152.685, 1500.45 151.425 Q 1501.21 150.165, 1501.21 148.865 Q 1501.21 147.505, 1500.53 146.745 Q 1499.85 145.985, 1498.67 145.985 Q 1497.53 145.985, 1496.77 146.445 Q 1496.01 146.905, 1495.47 147.925 L 1493.95 147.225 " fill="#000000"/>
<path class="note" d="M 1509.51 149.845 Q 1510.75 149.845, 1511.77 150.385 Q 1512.79 150.905, 1513.37 151.905 Q 1513.95 152.885, 1513.95 154.225 Q 1513.95 155.685, 1513.23 156.745 Q 1512.53 157.785, 1511.37 158.325 Q 1510.21 158.865, 1508.89 158.865 Q 1507.59 158.865, 1506.39 158.385 Q 1505.19 157.905, 1504.37 156.985 L 1505.57 155.745 Q 1506.23 156.465, 1507.13 156.865 Q 1508.03 157.245, 1508.95 157.245 Q 1510.21 157.245, 1511.07 156.465 Q 1511.95 155.685, 1511.95 154.265 Q 1511.95 152.765, 1511.07 152.065 Q 1510.21 151.345, 1508.83 151.345 Q 1507.59 151.345, 1506.21 151.885 L 1505.11 151.365 L 1505.79 144.545 L 1513.07 144.545 L 1512.87 146.145 L 1507.43 146.145 L 1507.01 150.345 Q 1508.27 149.845, 1509.51 149.845 " fill="#000000"/>
<path class="note" d="M 1664.92 201.57 Q 1665.44 200.23, 1666.68 199.49 Q 1667.92 198.73, 1669.64 198.73 Q 1671.78 198.73, 1672.98 199.89 Q 1674.18 201.05, 1674.18 203.11 Q 1674.18 205.21, 1672.62 207.17 Q 1671.08 209.13, 1667.88 211.45 L 1674.42 211.45 L 1674.42 213.05 L 1664.88 213.05 L 1664.88 211.71 Q 1667.52 209.83, 1669.08 208.43 Q 1670.66 207.03, 1671.42 205.77 Q 1672.18 204.51, 1672.18 203.21 Q 1672.18 201.85, 1671.5 201.09 Q 1670.82 200.33, 1669.64 200.33 Q 1668.5 200.33, 1667.74 200.79 Q 1666.98 201.25, 1666.44 202.27 L 1664.92 201.57 " fill="#000000"/>
<path class="note" d="M 1676.28 211.45 L 1679.38 211.45 L 1679.38 200.87 L 1675.96 201.93 L 1675.5 200.75 L 1679.84 198.81 L 1681.26 199.05 L 1681.26 211.45 L 1684.04 211.45 L 1684.04 213.05 L 1676.28 213.05 L 1676.28 211.45 " fill="#000000"/>
<path class="note" d="M 2504.29 353.975 L 2507.39 353.975 L 2507.39 343.395 L 2503.97 344.455 L 2503.51 343.275 L 2507.85 341.335 L 2509.27 341.575 L 2509.27 353.975 L 2512.05 353.975 L 2512.05 355.575 L 2504.29 355.575 L 2504.29 353.975 " fill="#000000"/>
<path class="note" d="M 2609.91 223.625 Q 2610.43 222.285, 2611.67 221.545 Q 2612.91 220.785, 2614.63 220.785 Q 2616.77 220.785, 2617.97 221.945 Q 2619.17 223.105, 2619.17 225.165 Q 2619.17 227.265, 2617.61 229.225 Q 2616.07 231.185, 2612.87 233.505 L 2619.41 233.505 L 2619.41 235.105 L 2609.87 235.105 L 2609.87 233.765 Q 2612.51 231.885, 2614.07 230.485 Q 2615.65 229.085, 2616.41 227.825 Q 2617.17 226.565, 2617.17 225.265 Q 2617.17 223.905, 2616.49 223.145 Q 2615.81 222.385, 2614.63 222.385 Q 2613.49 222.385, 2612.73 222.845 Q 2611.97 223.305, 2611.43 224.325 L 2609.91 223.625 " fill="#000000"/>
<path class="note" d="M 2805.85 351.567 Q 2807.23 351.967, 2807.89 352.867 Q 2808.57 353.747, 2808.57 355.147 Q 2808.57 356.347, 2807.97 357.287 Q 2807.37 358.207, 2806.27 358.727 Q 2805.17 359.227, 2803.73 359.227 Q 2802.21 359.227, 2801.07 358.707 Q 2799.95 358.167, 2799.05 357.087 L 2800.19 355.927 Q 2801.07 356.887, 2801.81 357.267 Q 2802.55 357.627, 2803.73 357.627 Q 2805.01 357.627, 2805.79 356.947 Q 2806.57 356.247, 2806.57 355.127 Q 2806.57 353.687, 2805.75 353.047 Q 2804.95 352.387, 2803.21 352.387 L 2802.19 352.387 L 2802.19 350.947 L 2803.09 350.947 Q 2804.63 350.927, 2805.45 350.267 Q 2806.27 349.587, 2806.27 348.327 Q 2806.27 347.407, 2805.59 346.867 Q 2804.91 346.307, 2803.75 346.307 Q 2802.57 346.307, 2801.83 346.727 Q 2801.11 347.147, 2800.55 348.207 L 2799.17 347.467 Q 2799.67 346.287, 2800.87 345.507 Q 2802.07 344.707, 2803.75 344.707 Q 2805.83 344.707, 2807.05 345.687 Q 2808.27 346.667, 2808.27 348.327 Q 2808.27 349.467, 2807.65 350.287 Q 2807.03 351.107, 2805.85 351.567 " fill="#000000"/>
<path class="note" d="M 2631.12 48.4861 L 2632.82 48.4861 L 2632.82 50.0861 L 2631.12 50.0861 L 2631.12 53.3461 L 2629.24 53.3461 L 2629.24 50.0861 L 2621.92 50.0861 L 2621.92 48.8261 L 2628.12 39.1861 L 2631.12 39.1861 L 2631.12 48.4861 M 2624.24 48.4861 L 2629.24 48.4861 L 2629.24 40.4661 L 2624.24 48.4861 " fill="#000000"/>
<path class="note" d="M 3112.3 206.844 Q 3113.54 206.844, 3114.56 207.384 Q 3115.58 207.904, 3116.16 208.904 Q 3116.74 209.884, 3116.74 211.224 Q 3116.74 212.684, 3116.02 213.744 Q 3115.32 214.784, 3114.16 215.324 Q 3113 215.864, 3111.68 215.864 Q 3110.38 215.864, 3109.18 215.384 Q 3107.98 214.904, 3107.16 213.984 L 3108.36 212.744 Q 3109.02 213.464, 3109.92 213.864 Q 3110.82 214.244, 3111.74 214.244 Q 3113 214.244, 3113.86 213.464 Q 3114.74 212.684, 3114.74 211.264 Q 3114.74 209.764, 3113.86 209.064 Q 3113 208.344, 3111.62 208.344 Q 3110.38 208.344, 3109 208.884 L 3107.9 208.364 L 3108.58 201.544 L 3115.86 201.544 L 3115.66 203.144 L 3110.22 203.144 L 3109.8 207.344 Q 3111.06 206.844, 3112.3 206.844 " fill="#000000"/>
<path class="note" d="M 3260.18 216.49 Q 3261.42 216.49, 3262.4 217.03 Q 3263.38 217.57, 3263.92 218.55 Q 3264.46 219.53, 3264.46 220.77 Q 3264.46 222.15, 3263.84 223.23 Q 3263.24 224.29, 3262.16 224.89 Q 3261.08 225.49, 3259.7 225.49 Q 3257.18 225.49, 3255.9 223.79 Q 3254.64 222.07, 3254.64 218.67 Q 3254.64 214.91, 3256.2 212.97 Q 3257.78 211.01, 3260.8 211.01 Q 3261.68 211.01, 3262.42 211.21 Q 3263.18 211.41, 3263.9 211.83 L 3263.12 213.17 Q 3262.08 212.61, 3260.82 212.61 Q 3258.82 212.61, 3257.8 213.91 Q 3256.78 215.19, 3256.66 217.85 Q 3257.38 217.19, 3258.28 216.85 Q 3259.2 216.49, 3260.18 216.49 M 3259.72 223.85 Q 3260.48 223.85, 3261.1 223.45 Q 3261.74 223.05, 3262.1 222.35 Q 3262.46 221.65, 3262.46 220.79 Q 3262.46 219.53, 3261.76 218.81 Q 3261.06 218.09, 3259.82 218.09 Q 3258.96 218.09, 3258.1 218.45 Q 3257.26 218.79, 3256.66 219.39 Q 3256.74 221.73, 3257.48 222.79 Q 3258.22 223.85, 3259.72 223.85 " fill="#000000"/>
<path class="note" d="M 3292.42 439.899 L 3285 439.899 L 3285 438.299 L 3294.4 438.299 L 3294.4 439.719 L 3288.68 452.459 L 3286.76 452.459 L 3292.42 439.899 " fill="#000000"/>
<path class="note" d="M 3379.55 99.4422 Q 3380.85 100.002, 3381.59 100.842 Q 3382.33 101.662, 3382.33 103.062 Q 3382.33 104.262, 3381.71 105.202 Q 3381.09 106.122, 3379.97 106.642 Q 3378.87 107.142, 3377.41 107.142 Q 3375.05 107.142, 3373.69 106.062 Q 3372.33 104.962, 3372.33 103.062 Q 3372.33 101.902, 3372.93 101.042 Q 3373.53 100.162, 3374.77 99.5022 Q 3373.85 98.9822, 3373.35 98.2222 Q 3372.85 97.4422, 3372.85 96.2422 Q 3372.85 94.5822, 3374.05 93.6022 Q 3375.27 92.6222, 3377.33 92.6222 Q 3379.39 92.6222, 3380.59 93.6022 Q 3381.81 94.5822, 3381.81 96.2422 Q 3381.81 97.2822, 3381.23 98.0622 Q 3380.67 98.8222, 3379.55 99.4422 M 3377.33 94.1222 Q 3376.15 94.1222, 3375.49 94.6822 Q 3374.85 95.2422, 3374.85 96.2422 Q 3374.85 96.9822, 3375.29 97.4822 Q 3375.73 97.9622, 3376.35 98.2422 Q 3376.99 98.5222, 3378.21 98.9422 Q 3379.07 98.3422, 3379.43 97.7022 Q 3379.81 97.0622, 3379.81 96.2422 Q 3379.81 95.2422, 3379.15 94.6822 Q 3378.51 94.1222, 3377.33 94.1222 M 3377.41 105.642 Q 3378.73 105.642, 3379.53 104.942 Q 3380.33 104.222, 3380.33 103.042 Q 3380.33 102.282, 3379.91 101.802 Q 3379.49 101.322, 3378.85 101.042 Q 3378.23 100.762, 3377.11 100.402 L 3376.21 100.102 Q 3375.21 100.702, 3374.77 101.422 Q 3374.33 102.122, 3374.33 103.042 Q 3374.33 104.222, 3375.17 104.942 Q 3376.01 105.642, 3377.41 105.642 " fill="#000000"/>
<path class="note" d="M 3548.65 211.165 Q 3551.17 211.165, 3552.43 212.885 Q 3553.71 214.585, 3553.71 217.985 Q 3553.71 221.745, 3552.13 223.705 Q 3550.57 225.645, 3547.55 225.645 Q 3546.67 225.645, 3545.91 225.445 Q 3545.17 225.245, 3544.45 224.825 L 3545.23 223.485 Q 3546.27 224.045, 3547.53 224.045 Q 3549.53 224.045, 3550.55 222.765 Q 3551.57 221.465, 3551.69 218.805 Q 3550.97 219.465, 3550.05 219.825 Q 3549.15 220.165, 3548.17 220.165 Q 3546.93 220.165, 3545.95 219.625 Q 3544.97 219.085, 3544.43 218.105 Q 3543.89 217.125, 3543.89 215.885 Q 3543.89 214.505, 3544.49 213.445 Q 3545.11 212.365, 3546.19 211.765 Q 3547.27 211.165, 3548.65 211.165 M 3545.89 215.865 Q 3545.89 217.125, 3546.59 217.845 Q 3547.29 218.565, 3548.53 218.565 Q 3549.39 218.565, 3550.23 218.225 Q 3551.09 217.865, 3551.69 217.265 Q 3551.61 214.925, 3550.87 213.865 Q 3550.13 212.805, 3548.63 212.805 Q 3547.87 212.805, 3547.23 213.205 Q 3546.61 213.605, 3546.25 214.305 Q 3545.89 215.005, 3545.89 215.865 " fill="#000000"/>
<path class="note" d="M 3626.14 70.5298 L 3629.24 70.5298 L 3629.24 59.9498 L 3625.82 61.0098 L 3625.36 59.8298 L 3629.7 57.8898 L 3631.12 58.1298 L 3631.12 70.5298 L 3633.9 70.5298 L 3633.9 72.1298 L 3626.14 72.1298 L 3626.14 70.5298 " fill="#000000"/>
<path class="note" d="M 3640.3 72.2898 Q 3637.7 72.2898, 3636.4 70.3698 Q 3635.12 68.4498, 3635.12 65.0298 Q 3635.12 61.6098, 3636.4 59.7098 Q 3637.68 57.8098, 3640.3 57.8098 Q 3642.92 57.8098, 3644.2 59.7098 Q 3645.48 61.6098, 3645.48 65.0298 Q 3645.48 68.4498, 3644.18 70.3698 Q 3642.9 72.2898, 3640.3 72.2898 M 3640.3 70.6898 Q 3641.84 70.6898, 3642.66 69.2698 Q 3643.48 67.8298, 3643.48 65.0298 Q 3643.48 62.2498, 3642.66 60.8298 Q 3641.84 59.4098, 3640.3 59.4098 Q 3638.78 59.4098, 3637.94 60.8298 Q 3637.12 62.2498, 3637.12 65.0298 Q 3637.12 67.8298, 3637.94 69.2698 Q 3638.78 70.6898, 3640.3 70.6898 " fill="#000000"/>
<path class="note" d="M 3794.5 132.235 L 3797.6 132.235 L 3797.6 121.655 L 3794.18 122.715 L 3793.72 121.535 L 3798.06 119.595 L 3799.48 119.835 L 3799.48 132.235 L 3802.26 132.235 L 3802.26 133.835 L 3794.5 133.835 L 3794.5 132.235 " fill="#000000"/>
<path class="note" d="M 3804.12 132.235 L 3807.22 132.235 L 3807.22 121.655 L 3803.8 122.715 L 3803.34 121.535 L 3807.68 119.595 L 3809.1 119.835 L 3809.1 132.235 L 3811.88 132.235 L 3811.88 133.835 L 3804.12 133.835 L 3804.12 132.235 " fill="#000000"/>
<path class="note" d="M 3510.42 371.28 Q 3510.94 369.94, 3512.18 369.2 Q 3513.42 368.44, 3515.14 368.44 Q 3517.28 368.44, 3518.48 369.6 Q 3519.68 370.76, 3519.68 372.82 Q 3519.68 374.92, 3518.12 376.88 Q 3516.58 378.84, 3513.38 381.16 L 3519.92 381.16 L 3519.92 382.76 L 3510.38 382.76 L 3510.38 381.42 Q 3513.02 379.54, 3514.58 378.14 Q 3516.16 376.74, 3516.92 375.48 Q 3517.68 374.22, 3517.68 372.92 Q 3517.68 371.56, 3517 370.8 Q 3516.32 370.04, 3515.14 370.04 Q 3514 370.04, 3513.24 370.5 Q 3512.48 370.96, 3511.94 371.98 L 3510.42 371.28 " fill="#000000"/>
<path class="note" d="M 3525.98 373.9 Q 3527.22 373.9, 3528.24 374.44 Q 3529.26 374.96, 3529.84 375.96 Q 3530.42 376.94, 3530.42 378.28 Q 3530.42 379.74, 3529.7 380.8 Q 3529 381.84, 3527.84 382.38 Q 3526.68 382.92, 3525.36 382.92 Q 3524.06 382.92, 3522.86 382.44 Q 3521.66 381.96, 3520.84 381.04 L 3522.04 379.8 Q 3522.7 380.52, 3523.6 380.92 Q 3524.5 381.3, 3525.42 381.3 Q 3526.68 381.3, 3527.54 380.52 Q 3528.42 379.74, 3528.42 378.32 Q 3528.42 376.82, 3527.54 376.12 Q 3526.68 375.4, 3525.3 375.4 Q 3524.06 375.4, 3522.68 375.94 L 3521.58 375.42 L 3522.26 368.6 L 3529.54 368.6 L 3529.34 370.2 L 3523.9 370.2 L 3523.48 374.4 Q 3524.74 373.9, 3525.98 373.9 " fill="#000000"/>
<path class="note" d="M 3691.72 367.01 Q 3692.24 365.67, 3693.48 364.93 Q 3694.72 364.17, 3696.44 364.17 Q 3698.58 364.17, 3699.78 365.33 Q 3700.98 366.49, 3700.98 368.55 Q 3700.98 370.65, 3699.42 372.61 Q 3697.88 374.57, 3694.68 376.89 L 3701.22 376.89 L 3701.22 378.49 L 3691.68 378.49 L 3691.68 377.15 Q 3694.32 375.27, 3695.88 373.87 Q 3697.46 372.47, 3698.22 371.21 Q 3698.98 369.95, 3698.98 368.65 Q 3698.98 367.29, 3698.3 366.53 Q 3697.62 365.77, 3696.44 365.77 Q 3695.3 365.77, 3694.54 366.23 Q 3693.78 366.69, 3693.24 367.71 L 3691.72 367.01 " fill="#000000"/>
<path class="note" d="M 3703.08 376.89 L 3706.18 376.89 L 3706.18 366.31 L 3702.76 367.37 L 3702.3 366.19 L 3706.64 364.25 L 3708.06 364.49 L 3708.06 376.89 L 3710.84 376.89 L 3710.84 378.49 L 3703.08 378.49 L 3703.08 376.89 " fill="#000000"/>
<path d="M 1115.54,250 L 1115.53,249.828 L 1115.51,249.657 L 1115.47,249.489 L 1115.42,249.325 L 1115.36,249.166 L 1115.28,249.012 L 1115.19,248.867 L 1115.08,248.729 L 1114.97,248.601 L 1114.84,248.483 L 1114.71,248.377 L 1114.56,248.282 L 1114.41,248.201 L 1114.26,248.132 L 1114.09,248.078 L 1113.93,248.037 L 1113.75,248.012 L 1113.58,248 L 1113.41,248.004 L 1113.24,248.023 L 1113.07,248.056 L 1112.91,248.103 L 1112.75,248.165 L 1112.59,248.24 L 1112.44,248.328 L 1112.3,248.429 L 1112.17,248.541 L 1112.05,248.664 L 1111.94,248.797 L 1111.85,248.939 L 1111.76,249.088 L 1111.69,249.245 L 1111.63,249.407 L 1111.59,249.573 L 1111.56,249.743 L 1111.54,249.914 L 1111.54,250.086 L 1111.56,250.257 L 1111.59,250.427 L 1111.63,250.593 L 1111.69,250.755 L 1111.76,250.912 L 1111.85,251.061 L 1111.94,251.203 L 1112.05,251.336 L 1112.17,251.459 L 1112.3,251.571 L 1112.44,251.672 L 1112.59,251.76 L 1112.75,251.835 L 1112.91,251.897 L 1113.07,251.944 L 1113.24,251.977 L 1113.41,251.996 L 1113.58,252 L 1113.75,251.988 L 1113.93,251.963 L 1114.09,251.922 L 1114.26,251.868 L 1114.41,251.799 L 1114.56,251.718 L 1114.71,251.623 L 1114.84,251.517 L 1114.97,251.399 L 1115.08,251.271 L 1115.19,251.133 L 1115.28,250.988 L 1115.36,250.834 L 1115.42,250.675 L 1115.47,250.511 L 1115.51,250.343 L 1115.53,250.172 L 1115.54,250 L 1113.54,250 Z" style="fill:#000000;fill-rule:evenodd;fill-opacity:1;stroke:#000000;stroke-width:0px;stroke-linecap:butt;stroke-linejoin:miter;stroke-opacity:1;"/>
<path d="M 1115.54,263.28 L 1115.53,263.108 L 1115.51,262.937 L 1115.47,262.769 L 1115.42,262.605 L 1115.36,262.446 L 1115.28,262.292 L 1115.19,262.147 L 1115.08,262.009 L 1114.97,261.881 L 1114.84,261.763 L 1114.71,261.657 L 1114.56,261.563 L 1114.41,261.481 L 1114.26,261.412 L 1114.09,261.358 L 1113.93,261.317 L 1113.75,261.292 L 1113.58,261.281 L 1113.41,261.284 L 1113.24,261.303 L 1113.07,261.336 L 1112.91,261.383 L 1112.75,261.445 L 1112.59,261.52 L 1112.44,261.608 L 1112.3,261.709 L 1112.17,261.821 L 1112.05,261.944 L 1111.94,262.077 L 1111.85,262.219 L 1111.76,262.368 L 1111.69,262.525 L 1111.63,262.687 L 1111.59,262.853 L 1111.56,263.023 L 1111.54,263.194 L 1111.54,263.366 L 1111.56,263.538 L 1111.59,263.707 L 1111.63,263.873 L 1111.69,264.035 L 1111.76,264.192 L 1111.85,264.342 L 1111.94,264.483 L 1112.05,264.616 L 1112.17,264.739 L 1112.3,264.851 L 1112.44,264.952 L 1112.59,265.04 L 1112.75,265.115 L 1112.91,265.177 L 1113.07,265.224 L 1113.24,265.257 L 1113.41,265.276 L 1113.58,265.28 L 1113.75,265.268 L 1113.93,265.243 L 1114.09,265.202 L 1114.26,265.148 L 1114.41,265.079 L 1114.56,264.998 L 1114.71,264.903 L 1114.84,264.797 L 1114.97,264.679 L 1115.08,264.551 L 1115.19,264.413 L 1115.28,264.268 L 1115.36,264.114 L 1115.42,263.955 L 1115.47,263.791 L 1115.51,263.623 L 1115.53,263.452 L 1115.54,263.28 L 1113.54,263.28 Z" style="fill:#000000;fill-rule:evenodd;fill-opacity:1;stroke:#000000;stroke-width:0px;stroke-linecap:butt;stroke-linejoin:miter;stroke-opacity:1;"/>
<path d="M 1115.54,236.72 L 1115.53,236.548 L 1115.51,236.377 L 1115.47,236.209 L 1115.42,236.045 L 1115.36,235.886 L 1115.28,235.732 L 1115.19,235.587 L 1115.08,235.449 L 1114.97,235.321 L 1114.84,235.203 L 1114.71,235.097 L 1114.56,235.002 L 1114.41,234.921 L 1114.26,234.852 L 1114.09,234.798 L 1113.93,234.757 L 1113.75,234.732 L 1113.58,234.72 L 1113.41,234.724 L 1113.24,234.743 L 1113.07,234.776 L 1112.91,234.823 L 1112.75,234.885 L 1112.59,234.96 L 1112.44,235.048 L 1112.3,235.149 L 1112.17,235.261 L 1112.05,235.384 L 1111.94,235.517 L 1111.85,235.658 L 1111.76,235.808 L 1111.69,235.965 L 1111.63,236.127 L 1111.59,236.293 L 1111.56,236.462 L 1111.54,236.634 L 1111.54,236.806 L 1111.56,236.977 L 1111.59,237.147 L 1111.63,237.313 L 1111.69,237.475 L 1111.76,237.632 L 1111.85,237.781 L 1111.94,237.923 L 1112.05,238.056 L 1112.17,238.179 L 1112.3,238.291 L 1112.44,238.392 L 1112.59,238.48 L 1112.75,238.555 L 1112.91,238.617 L 1113.07,238.664 L 1113.24,238.697 L 1113.41,238.716 L 1113.58,238.719 L 1113.75,238.708 L 1113.93,238.683 L 1114.09,238.642 L 1114.26,238.588 L 1114.41,238.519 L 1114.56,238.437 L 1114.71,238.343 L 1114.84,238.237 L 1114.97,238.119 L 1115.08,237.991 L 1115.19,237.853 L 1115.28,237.708 L 1115.36,237.554 L 1115.42,237.395 L 1115.47,237.231 L 1115.51,237.063 L 1115.53,236.892 L 1115.54,236.72 L 1113.54,236.72 Z" style="fill:#000000;fill-rule:evenodd;fill-opacity:1;stroke:#000000;stroke-width:0px;stroke-linecap:butt;stroke-linejoin:miter;stroke-opacity:1;"/>
<path d="M 1115.54,250 L 1115.53,249.828 L 1115.51,249.657 L 1115.47,249.489 L 1115.42,249.325 L 1115.36,249.166 L 1115.28,249.012 L 1115.19,248.867 L 1115.08,248.729 L 1114.97,248.601 L 1114.84,248.483 L 1114.71,248.377 L 1114.56,248.282 L 1114.41,248.201 L 1114.26,248.132 L 1114.09,248.078 L 1113.93,248.037 L 1113.75,248.012 L 1113.58,248 L 1113.41,248.004 L 1113.24,248.023 L 1113.07,248.056 L 1112.91,248.103 L 1112.75,248.165 L 1112.59,248.24 L 1112.44,248.328 L 1112.3,248.429 L 1112.17,248.541 L 1112.05,248.664 L 1111.94,248.797 L 1111.85,248.939 L 1111.76,249.088 L 1111.69,249.245 L 1111.63,249.407 L 1111.59,249.573 L 1111.56,249.743 L 1111.54,249.914 L 1111.54,250.086 L 1111.56,250.257 L 1111.59,250.427 L 1111.63,250.593 L 1111.69,250.755 L 1111.76,250.912 L 1111.85,251.061 L 1111.94,251.203 L 1112.05,251.336 L 1112.17,251.459 L 1112.3,251.571 L 1112.44,251.672 L 1112.59,251.76 L 1112.75,251.835 L 1112.91,251.897 L 1113.07,251.944 L 1113.24,251.977 L 1113.41,251.996 L 1113.58,252 L 1113.75,251.988 L 1113.93,251.963 L 1114.09,251.922 L 1114.26,251.868 L 1114.41,251.799 L 1114.56,251.718 L 1114.71,251.623 L 1114.84,251.517 L 1114.97,251.399 L 1115.08,251.271 L 1115.19,251.133 L 1115.28,250.988 L 1115.36,250.834 L 1115.42,250.675 L 1115.47,250.511 L 1115.51,250.343 L 1115.53,250.172 L 1115.54,250 L 1113.54,250 Z" style="fill:#000000;fill-rule:evenodd;fill-opacity:1;stroke:#000000;stroke-width:0px;stroke-linecap:butt;stroke-linejoin:miter;stroke-opacity:1;"/>
<path d="M 1666.67,250 L 1666.67,249.828 L 1666.65,249.657 L 1666.61,249.489 L 1666.56,249.325 L 1666.49,249.166 L 1666.41,249.012 L 1666.32,248.867 L 1666.22,248.729 L 1666.1,248.601 L 1665.98,248.483 L 1665.84,248.377 L 1665.7,248.282 L 1665.55,248.201 L 1665.39,248.132 L 1665.23,248.078 L 1665.06,248.037 L 1664.89,248.012 L 1664.72,248 L 1664.55,248.004 L 1664.37,248.023 L 1664.21,248.056 L 1664.04,248.103 L 1663.88,248.165 L 1663.72,248.24 L 1663.58,248.328 L 1663.44,248.429 L 1663.31,248.541 L 1663.19,248.664 L 1663.08,248.797 L 1662.98,248.939 L 1662.89,249.088 L 1662.82,249.245 L 1662.76,249.407 L 1662.72,249.573 L 1662.69,249.743 L 1662.68,249.914 L 1662.68,250.086 L 1662.69,250.257 L 1662.72,250.427 L 1662.76,250.593 L 1662.82,250.755 L 1662.89,250.912 L 1662.98,251.061 L 1663.08,251.203 L 1663.19,251.336 L 1663.31,251.459 L 1663.44,251.571 L 1663.58,251.672 L 1663.72,251.76 L 1663.88,251.835 L 1664.04,251.897 L 1664.21,251.944 L 1664.37,251.977 L 1664.55,251.996 L 1664.72,252 L 1664.89,251.988 L 1665.06,251.963 L 1665.23,251.922 L 1665.39,251.868 L 1665.55,251.799 L 1665.7,251.718 L 1665.84,251.623 L 1665.98,251.517 L 1666.1,251.399 L 1666.22,251.271 L 1666.32,251.133 L 1666.41,250.988 L 1666.49,250.834 L 1666.56,250.675 L 1666.61,250.511 L 1666.65,250.343 L 1666.67,250.172 L 1666.67,250 L 1664.67,250 Z" style="fill:#000000;fill-rule:evenodd;fill-opacity:1;stroke:#000000;stroke-width:0px;stroke-linecap:butt;stroke-linejoin:miter;stroke-opacity:1;"/>
<path d="M 1666.67,263.28 L 1666.67,263.108 L 1666.65,262.937 L 1666.61,262.769 L 1666.56,262.605 L 1666.49,262.446 L 1666.41,262.292 L 1666.32,262.147 L 1666.22,262.009 L 1666.1,261.881 L 1665.98,261.763 L 1665.84,261.657 L 1665.7,261.563 L 1665.55,261.481 L 1665.39,261.412 L 1665.23,261.358 L 1665.06,261.317 L 1664.89,261.292 L 1664.72,261.281 L 1664.55,261.284 L 1664.37,261.303 L 1664.21,261.336 L 1664.04,261.383 L 1663.88,261.445 L 1663.72,261.52 L 1663.58,261.608 L 1663.44,261.709 L 1663.31,261.821 L 1663.19,261.944 L 1663.08,262.077 L 1662.98,262.219 L 1662.89,262.368 L 1662.82,262.525 L 1662.76,262.687 L 1662.72,262.853 L 1662.69,263.023 L 1662.68,263.194 L 1662.68,263.366 L 1662.69,263.538 L 1662.72,263.707 L 1662.76,263.873 L 1662.82,264.035 L 1662.89,264.192 L 1662.98,264.342 L 1663.08,264.483 L 1663.19,264.616 L 1663.31,264.739 L 1663.44,264.851 L 1663.58,264.952 L 1663.72,265.04 L 1663.88,265.115 L 1664.04,265.177 L 1664.21,265.224 L 1664.37,265.257 L 1664.55,265.276 L 1664.72,265.28 L 1664.89,265.268 L 1665.06,265.243 L 1665.23,265.202 L 1665.39,265.148 L 1665.55,265.079 L 1665.7,264.998 L 1665.84,264.903 L 1665.98,264.797 L 1666.1,264.679 L 1666.22,264.551 L 1666.32,264.413 L 1666.41,264.268 L 1666.49,264.114 L 1666.56,263.955 L 1666.61,263.791 L 1666.65,263.623 L 1666.67,263.452 L 1666.67,263.28 L 1664.67,263.28 Z" style="fill:#000000;fill-rule:evenodd;fill-opacity:1;stroke:#000000;stroke-width:0px;stroke-linecap:butt;stroke-linejoin:miter;stroke-opacity:1;"/>
<path d="M 1666.67,236.72 L 1666.67,236.548 L 1666.65,236.377 L 1666.61,236.209 L 1666.56,236.045 L 1666.49,235.886 L 1666.41,235.732 L 1666.32,235.587 L 1666.22,235.449 L 1666.1,235.321 L 1665.98,235.203 L 1665.84,235.097 L 1665.7,235.002 L 1665.55,234.921 L 1665.39,234.852 L 1665.23,234.798 L 1665.06,234.757 L 1664.89,234.732 L 1664.72,234.72 L 1664.55,234.724 L 1664.37,234.743 L 1664.21,234.776 L 1664.04,234.823 L 1663.88,234.885 L 1663.72,234.96 L 1663.58,235.048 L 1663.44,235.149 L 1663.31,235.261 L 1663.19,235.384 L 1663.08,235.517 L 1662.98,235.658 L 1662.89,235.808 L 1662.82,235.965 L 1662.76,236.127 L 1662.72,236.293 L 1662.69,236.462 L 1662.68,236.634 L 1662.68,236.806 L 1662.69,236.977 L 1662.72,237.147 L 1662.76,237.313 L 1662.82,237.475 L 1662.89,237.632 L 1662.98,237.781 L 1663.08,237.923 L 1663.19,238.056 L 1663.31,238.179 L 1663.44,238.291 L 1663.58,238.392 L 1663.72,238.48 L 1663.88,238.555 L 1664.04,238.617 L 1664.21,238.664 L 1664.37,238.697 L 1664.55,238.716 L 1664.72,238.719 L 1664.89,238.708 L 1665.06,238.683 L 1665.23,238.642 L 1665.39,238.588 L 1665.55,238.519 L 1665.7,238.437 L 1665.84,238.343 L 1665.98,238.237 L 1666.1,238.119 L 1666.22,237.991 L 1666.32,237.853 L 1666.41,237.708 L 1666.49,237.554 L 1666.56,237.395 L 1666.61,237.231 L 1666.65,237.063 L 1666.67,236.892 L 1666.67,236.72 L 1664.67,236.72 Z" style="fill:#000000;fill-rule:evenodd;fill-opacity:1;stroke:#000000;stroke-width:0px;stroke-linecap:butt;stroke-linejoin:miter;stroke-opacity:1;"/>
<path d="M 1666.67,250 L 1666.67,249.828 L 1666.65,249.657 L 1666.61,249.489 L 1666.56,249.325 L 1666.49,249.166 L 1666.41,249.012 L 1666.32,248.867 L 1666.22,248.729 L 1666.1,248.601 L 1665.98,248.483 L 1665.84,248.377 L 1665.7,248.282 L 1665.55,248.201 L 1665.39,248.132 L 1665.23,248.078 L 1665.06,248.037 L 1664.89,248.012 L 1664.72,248 L 1664.55,248.004 L 1664.37,248.023 L 1664.21,248.056 L 1664.04,248.103 L 1663.88,248.165 L 1663.72,248.24 L 1663.58,248.328 L 1663.44,248.429 L 1663.31,248.541 L 1663.19,248.664 L 1663.08,248.797 L 1662.98,248.939 L 1662.89,249.088 L 1662.82,249.245 L 1662.76,249.407 L 1662.72,249.573 L 1662.69,249.743 L 1662.68,249.914 L 1662.68,250.086 L 1662.69,250.257 L 1662.72,250.427 L 1662.76,250.593 L 1662.82,250.755 L 1662.89,250.912 L 1662.98,251.061 L 1663.08,251.203 L 1663.19,251.336 L 1663.31,251.459 L 1663.44,251.571 L 1663.58,251.672 L 1663.72,251.76 L 1663.88,251.835 L 1664.04,251.897 L 1664.21,251.944 L 1664.37,251.977 L 1664.55,251.996 L 1664.72,252 L 1664.89,251.988 L 1665.06,251.963 L 1665.23,251.922 L 1665.39,251.868 L 1665.55,251.799 L 1665.7,251.718 L 1665.84,251.623 L 1665.98,251.517 L 1666.1,251.399 L 1666.22,251.271 L 1666.32,251.133 L 1666.41,250.988 L 1666.49,250.834 L 1666.56,250.675 L 1666.61,250.511 L 1666.65,250.343 L 1666.67,250.172 L 1666.67,250 L 1664.67,250 Z" style="fill:#000000;fill-rule:evenodd;fill-opacity:1;stroke:#000000;stroke-width:0px;stroke-linecap:butt;stroke-linejoin:miter;stroke-opacity:1;"/>
<path d="M 3800.53,173.791 L 3800.52,173.619 L 3800.5,173.448 L 3800.46,173.28 L 3800.41,173.116 L 3800.35,172.957 L 3800.27,172.803 L 3800.18,172.658 L 3800.08,172.52 L 3799.96,172.392 L 3799.83,172.274 L 3799.7,172.168 L 3799.56,172.073 L 3799.4,171.992 L 3799.25,171.923 L 3799.08,171.869 L 3798.92,171.828 L 3798.75,171.802 L 3798.57,171.791 L 3798.4,171.795 L 3798.23,171.814 L 3798.06,171.847 L 3797.9,171.894 L 3797.74,171.956 L 3797.58,172.031 L 3797.43,172.119 L 3797.29,172.22 L 3797.16,172.332 L 3797.04,172.455 L 3796.93,172.588 L 3796.84,172.729 L 3796.75,172.879 L 3796.68,173.036 L 3796.62,173.197 L 3796.58,173.364 L 3796.55,173.533 L 3796.53,173.705 L 3796.53,173.877 L 3796.55,174.048 L 3796.58,174.218 L 3796.62,174.384 L 3796.68,174.546 L 3796.75,174.703 L 3796.84,174.852 L 3796.93,174.994 L 3797.04,175.127 L 3797.16,175.25 L 3797.29,175.362 L 3797.43,175.463 L 3797.58,175.551 L 3797.74,175.626 L 3797.9,175.688 L 3798.06,175.735 L 3798.23,175.768 L 3798.4,175.787 L 3798.57,175.79 L 3798.75,175.779 L 3798.92,175.754 L 3799.08,175.713 L 3799.25,175.659 L 3799.4,175.59 L 3799.56,175.508 L 3799.7,175.414 L 3799.83,175.308 L 3799.96,175.19 L 3800.08,175.062 L 3800.18,174.924 L 3800.27,174.778 L 3800.35,174.625 L 3800.41,174.466 L 3800.46,174.302 L 3800.5,174.134 L 3800.52,173.963 L 3800.53,173.791 L 3798.53,173.791 Z" style="fill:#000000;fill-rule:evenodd;fill-opacity:1;stroke:#000000;stroke-width:0px;stroke-linecap:butt;stroke-linejoin:miter;stroke-opacity:1;"/>
<path d="M 3800.53,187.071 L 3800.52,186.899 L 3800.5,186.728 L 3800.46,186.56 L 3800.41,186.396 L 3800.35,186.237 L 3800.27,186.083 L 3800.18,185.938 L 3800.08,185.8 L 3799.96,185.672 L 3799.83,185.554 L 3799.7,185.448 L 3799.56,185.353 L 3799.4,185.272 L 3799.25,185.203 L 3799.08,185.149 L 3798.92,185.108 L 3798.75,185.083 L 3798.57,185.071 L 3798.4,185.075 L 3798.23,185.094 L 3798.06,185.127 L 3797.9,185.174 L 3797.74,185.236 L 3797.58,185.311 L 3797.43,185.399 L 3797.29,185.5 L 3797.16,185.612 L 3797.04,185.735 L 3796.93,185.868 L 3796.84,186.01 L 3796.75,186.159 L 3796.68,186.316 L 3796.62,186.478 L 3796.58,186.644 L 3796.55,186.813 L 3796.53,186.985 L 3796.53,187.157 L 3796.55,187.328 L 3796.58,187.498 L 3796.62,187.664 L 3796.68,187.826 L 3796.75,187.983 L 3796.84,188.132 L 3796.93,188.274 L 3797.04,188.407 L 3797.16,188.53 L 3797.29,188.642 L 3797.43,188.743 L 3797.58,188.831 L 3797.74,188.906 L 3797.9,188.968 L 3798.06,189.015 L 3798.23,189.048 L 3798.4,189.067 L 3798.57,189.071 L 3798.75,189.059 L 3798.92,189.034 L 3799.08,188.993 L 3799.25,188.939 L 3799.4,188.87 L 3799.56,188.788 L 3799.7,188.694 L 3799.83,188.588 L 3799.96,188.47 L 3800.08,188.342 L 3800.18,188.204 L 3800.27,188.059 L 3800.35,187.905 L 3800.41,187.746 L 3800.46,187.582 L 3800.5,187.414 L 3800.52,187.243 L 3800.53,187.071 L 3798.53,187.071 Z" style="fill:#000000;fill-rule:evenodd;fill-opacity:1;stroke:#000000;stroke-width:0px;stroke-linecap:butt;stroke-linejoin:miter;stroke-opacity:1;"/>
<path d="M 3800.53,160.511 L 3800.52,160.339 L 3800.5,160.168 L 3800.46,160 L 3800.41,159.836 L 3800.35,159.676 L 3800.27,159.523 L 3800.18,159.377 L 3800.08,159.24 L 3799.96,159.112 L 3799.83,158.994 L 3799.7,158.888 L 3799.56,158.793 L 3799.4,158.712 L 3799.25,158.643 L 3799.08,158.589 L 3798.92,158.548 L 3798.75,158.522 L 3798.57,158.511 L 3798.4,158.515 L 3798.23,158.534 L 3798.06,158.567 L 3797.9,158.614 L 3797.74,158.676 L 3797.58,158.751 L 3797.43,158.839 L 3797.29,158.94 L 3797.16,159.052 L 3797.04,159.175 L 3796.93,159.308 L 3796.84,159.449 L 3796.75,159.599 L 3796.68,159.755 L 3796.62,159.917 L 3796.58,160.084 L 3796.55,160.253 L 3796.53,160.425 L 3796.53,160.597 L 3796.55,160.768 L 3796.58,160.938 L 3796.62,161.104 L 3796.68,161.266 L 3796.75,161.423 L 3796.84,161.572 L 3796.93,161.714 L 3797.04,161.847 L 3797.16,161.97 L 3797.29,162.082 L 3797.43,162.183 L 3797.58,162.271 L 3797.74,162.346 L 3797.9,162.408 L 3798.06,162.455 L 3798.23,162.488 L 3798.4,162.507 L 3798.57,162.51 L 3798.75,162.499 L 3798.92,162.473 L 3799.08,162.433 L 3799.25,162.379 L 3799.4,162.31 L 3799.56,162.228 L 3799.7,162.134 L 3799.83,162.027 L 3799.96,161.91 L 3800.08,161.782 L 3800.18,161.644 L 3800.27,161.498 L 3800.35,161.345 L 3800.41,161.186 L 3800.46,161.022 L 3800.5,160.853 L 3800.52,160.683 L 3800.53,160.511 L 3798.53,160.511 Z" style="fill:#000000;fill-rule:evenodd;fill-opacity:1;stroke:#000000;stroke-width:0px;stroke-linecap:butt;stroke-linejoin:miter;stroke-opacity:1;"/>
<path d="M 3800.53,173.791 L 3800.52,173.619 L 3800.5,173.448 L 3800.46,173.28 L 3800.41,173.116 L 3800.35,172.957 L 3800.27,172.803 L 3800.18,172.658 L 3800.08,172.52 L 3799.96,172.392 L 3799.83,172.274 L 3799.7,172.168 L 3799.56,172.073 L 3799.4,171.992 L 3799.25,171.923 L 3799.08,171.869 L 3798.92,171.828 L 3798.75,171.802 L 3798.57,171.791 L 3798.4,171.795 L 3798.23,171.814 L 3798.06,171.847 L 3797.9,171.894 L 3797.74,171.956 L 3797.58,172.031 L 3797.43,172.119 L 3797.29,172.22 L 3797.16,172.332 L 3797.04,172.455 L 3796.93,172.588 L 3796.84,172.729 L 3796.75,172.879 L 3796.68,173.036 L 3796.62,173.197 L 3796.58,173.364 L 3796.55,173.533 L 3796.53,173.705 L 3796.53,173.877 L 3796.55,174.048 L 3796.58,174.218 L 3796.62,174.384 L 3796.68,174.546 L 3796.75,174.703 L 3796.84,174.852 L 3796.93,174.994 L 3797.04,175.127 L 3797.16,175.25 L 3797.29,175.362 L 3797.43,175.463 L 3797.58,175.551 L 3797.74,175.626 L 3797.9,175.688 L 3798.06,175.735 L 3798.23,175.768 L 3798.4,175.787 L 3798.57,175.79 L 3798.75,175.779 L 3798.92,175.754 L 3799.08,175.713 L 3799.25,175.659 L 3799.4,175.59 L 3799.56,175.508 L 3799.7,175.414 L 3799.83,175.308 L 3799.96,175.19 L 3800.08,175.062 L 3800.18,174.924 L 3800.27,174.778 L 3800.35,174.625 L 3800.41,174.466 L 3800.46,174.302 L 3800.5,174.134 L 3800.52,173.963 L 3800.53,173.791 L 3798.53,173.791 Z" style="fill:#000000;fill-rule:evenodd;fill-opacity:1;stroke:#000000;stroke-width:0px;stroke-linecap:butt;stroke-linejoin:miter;stroke-opacity:1;"/>
<path d="M 3699.5,418.406 L 3699.49,418.234 L 3699.47,418.064 L 3699.43,417.896 L 3699.38,417.731 L 3699.32,417.572 L 3699.24,417.419 L 3699.15,417.273 L 3699.04,417.135 L 3698.93,417.007 L 3698.8,416.89 L 3698.67,416.783 L 3698.52,416.689 L 3698.37,416.607 L 3698.22,416.539 L 3698.05,416.484 L 3697.88,416.444 L 3697.71,416.418 L 3697.54,416.407 L 3697.37,416.41 L 3697.2,416.429 L 3697.03,416.462 L 3696.87,416.51 L 3696.7,416.571 L 3696.55,416.646 L 3696.4,416.734 L 3696.26,416.835 L 3696.13,416.947 L 3696.01,417.07 L 3695.9,417.203 L 3695.8,417.345 L 3695.72,417.494 L 3695.65,417.651 L 3695.59,417.813 L 3695.55,417.979 L 3695.52,418.149 L 3695.5,418.32 L 3695.5,418.492 L 3695.52,418.664 L 3695.55,418.833 L 3695.59,419 L 3695.65,419.162 L 3695.72,419.318 L 3695.8,419.468 L 3695.9,419.61 L 3696.01,419.742 L 3696.13,419.865 L 3696.26,419.978 L 3696.4,420.078 L 3696.55,420.166 L 3696.7,420.241 L 3696.87,420.303 L 3697.03,420.351 L 3697.2,420.384 L 3697.37,420.402 L 3697.54,420.406 L 3697.71,420.395 L 3697.88,420.369 L 3698.05,420.329 L 3698.22,420.274 L 3698.37,420.206 L 3698.52,420.124 L 3698.67,420.029 L 3698.8,419.923 L 3698.93,419.805 L 3699.04,419.677 L 3699.15,419.54 L 3699.24,419.394 L 3699.32,419.241 L 3699.38,419.081 L 3699.43,418.917 L 3699.47,418.749 L 3699.49,418.578 L 3699.5,418.406 L 3697.5,418.406 Z" style="fill:#000000;fill-rule:evenodd;fill-opacity:1;stroke:#000000;stroke-width:0px;stroke-linecap:butt;stroke-linejoin:miter;stroke-opacity:1;"/>
<path d="M 3699.5,431.686 L 3699.49,431.514 L 3699.47,431.344 L 3699.43,431.176 L 3699.38,431.011 L 3699.32,430.852 L 3699.24,430.699 L 3699.15,430.553 L 3699.04,430.415 L 3698.93,430.287 L 3698.8,430.17 L 3698.67,430.063 L 3698.52,429.969 L 3698.37,429.887 L 3698.22,429.819 L 3698.05,429.764 L 3697.88,429.724 L 3697.71,429.698 L 3697.54,429.687 L 3697.37,429.69 L 3697.2,429.709 L 3697.03,429.742 L 3696.87,429.79 L 3696.7,429.851 L 3696.55,429.926 L 3696.4,430.014 L 3696.26,430.115 L 3696.13,430.227 L 3696.01,430.35 L 3695.9,430.483 L 3695.8,430.625 L 3695.72,430.774 L 3695.65,430.931 L 3695.59,431.093 L 3695.55,431.259 L 3695.52,431.429 L 3695.5,431.6 L 3695.5,431.772 L 3695.52,431.944 L 3695.55,432.113 L 3695.59,432.28 L 3695.65,432.442 L 3695.72,432.598 L 3695.8,432.748 L 3695.9,432.89 L 3696.01,433.022 L 3696.13,433.145 L 3696.26,433.258 L 3696.4,433.358 L 3696.55,433.446 L 3696.7,433.521 L 3696.87,433.583 L 3697.03,433.631 L 3697.2,433.664 L 3697.37,433.682 L 3697.54,433.686 L 3697.71,433.675 L 3697.88,433.649 L 3698.05,433.609 L 3698.22,433.554 L 3698.37,433.486 L 3698.52,433.404 L 3698.67,433.309 L 3698.8,433.203 L 3698.93,433.085 L 3699.04,432.957 L 3699.15,432.82 L 3699.24,432.674 L 3699.32,432.521 L 3699.38,432.361 L 3699.43,432.197 L 3699.47,432.029 L 3699.49,431.858 L 3699.5,431.686 L 3697.5,431.686 Z" style="fill:#000000;fill-rule:evenodd;fill-opacity:1;stroke:#000000;stroke-width:0px;stroke-linecap:butt;stroke-linejoin:miter;stroke-opacity:1;"/>
<path d="M 3699.5,405.126 L 3699.49,404.954 L 3699.47,404.784 L 3699.43,404.616 L 3699.38,404.451 L 3699.32,404.292 L 3699.24,404.139 L 3699.15,403.993 L 3699.04,403.855 L 3698.93,403.727 L 3698.8,403.61 L 3698.67,403.503 L 3698.52,403.409 L 3698.37,403.327 L 3698.22,403.259 L 3698.05,403.204 L 3697.88,403.164 L 3697.71,403.138 L 3697.54,403.127 L 3697.37,403.13 L 3697.2,403.149 L 3697.03,403.182 L 3696.87,403.23 L 3696.7,403.291 L 3696.55,403.366 L 3696.4,403.454 L 3696.26,403.555 L 3696.13,403.667 L 3696.01,403.79 L 3695.9,403.923 L 3695.8,404.065 L 3695.72,404.214 L 3695.65,404.371 L 3695.59,404.533 L 3695.55,404.699 L 3695.52,404.869 L 3695.5,405.04 L 3695.5,405.212 L 3695.52,405.384 L 3695.55,405.553 L 3695.59,405.72 L 3695.65,405.882 L 3695.72,406.038 L 3695.8,406.188 L 3695.9,406.329 L 3696.01,406.462 L 3696.13,406.585 L 3696.26,406.698 L 3696.4,406.798 L 3696.55,406.886 L 3696.7,406.961 L 3696.87,407.023 L 3697.03,407.07 L 3697.2,407.104 L 3697.37,407.122 L 3697.54,407.126 L 3697.71,407.115 L 3697.88,407.089 L 3698.05,407.048 L 3698.22,406.994 L 3698.37,406.925 L 3698.52,406.844 L 3698.67,406.749 L 3698.8,406.643 L 3698.93,406.525 L 3699.04,406.397 L 3699.15,406.26 L 3699.24,406.114 L 3699.32,405.961 L 3699.38,405.801 L 3699.43,405.637 L 3699.47,405.469 L 3699.49,405.298 L 3699.5,405.126 L 3697.5,405.126 Z" style="fill:#000000;fill-rule:evenodd;fill-opacity:1;stroke:#000000;stroke-width:0px;stroke-linecap:butt;stroke-linejoin:miter;stroke-opacity:1;"/>
<path d="M 3699.5,418.406 L 3699.49,418.234 L 3699.47,418.064 L 3699.43,417.896 L 3699.38,417.731 L 3699.32,417.572 L 3699.24,417.419 L 3699.15,417.273 L 3699.04,417.135 L 3698.93,417.007 L 3698.8,416.89 L 3698.67,416.783 L 3698.52,416.689 L 3698.37,416.607 L 3698.22,416.539 L 3698.05,416.484 L 3697.88,416.444 L 3697.71,416.418 L 3697.54,416.407 L 3697.37,416.41 L 3697.2,416.429 L 3697.03,416.462 L 3696.87,416.51 L 3696.7,416.571 L 3696.55,416.646 L 3696.4,416.734 L 3696.26,416.835 L 3696.13,416.947 L 3696.01,417.07 L 3695.9,417.203 L 3695.8,417.345 L 3695.72,417.494 L 3695.65,417.651 L 3695.59,417.813 L 3695.55,417.979 L 3695.52,418.149 L 3695.5,418.32 L 3695.5,418.492 L 3695.52,418.664 L 3695.55,418.833 L 3695.59,419 L 3695.65,419.162 L 3695.72,419.318 L 3695.8,419.468 L 3695.9,419.61 L 3696.01,419.742 L 3696.13,419.865 L 3696.26,419.978 L 3696.4,420.078 L 3696.55,420.166 L 3696.7,420.241 L 3696.87,420.303 L 3697.03,420.351 L 3697.2,420.384 L 3697.37,420.402 L 3697.54,420.406 L 3697.71,420.395 L 3697.88,420.369 L 3698.05,420.329 L 3698.22,420.274 L 3698.37,420.206 L 3698.52,420.124 L 3698.67,420.029 L 3698.8,419.923 L 3698.93,419.805 L 3699.04,419.677 L 3699.15,419.54 L 3699.24,419.394 L 3699.32,419.241 L 3699.38,419.081 L 3699.43,418.917 L 3699.47,418.749 L 3699.49,418.578 L 3699.5,418.406 L 3697.5,418.406 Z" style="fill:#000000;fill-rule:evenodd;fill-opacity:1;stroke:#000000;stroke-width:0px;stroke-linecap:butt;stroke-linejoin:miter;stroke-opacity:1;"/>
<path d="M 912.245 255.468 L 918.293 255.468 L 918.293 249.1 L 920.981 249.1 L 920.981 255.468 L 927.189 255.468 L 927.189 257.772 L 920.981 257.772 L 920.981 264.172 L 918.293 264.172 L 918.293 257.772 L 912.245 257.772 L 912.245 255.468 " fill="#000000"/>
<path d="M 2936.18 255.468 L 2942.23 255.468 L 2942.23 249.1 L 2944.92 249.1 L 2944.92 255.468 L 2951.13 255.468 L 2951.13 257.772 L 2944.92 257.772 L 2944.92 264.172 L 2942.23 264.172 L 2942.23 257.772 L 2936.18 257.772 L 2936.18 255.468 " fill="#000000"/>
<path d="M 1861.31,257.772 L 2268.78,257.772" style="fill:none;fill-rule:evenodd;stroke:#000000;stroke-width:2.0px;stroke-linecap:butt;stroke-linejoin:miter;stroke-opacity:1"/>
<path d="M 2268.78,257.772 L 2251.13,247.586" style="fill:none;fill-rule:evenodd;stroke:#000000;stroke-width:2.0px;stroke-linecap:butt;stroke-linejoin:miter;stroke-opacity:1"/>
<path d="M 2268.78,257.772 L 2251.13,267.959" style="fill:none;fill-rule:evenodd;stroke:#000000;stroke-width:2.0px;stroke-linecap:butt;stroke-linejoin:miter;stroke-opacity:1"/>
</svg>