<svg xmlns="http://www.w3.org/2000/svg" xmlns:rdkit="http://www.rdkit.org/xml" xmlns:xlink="http://www.w3.org/1999/xlink" version="1.1" baseProfile="full" xml:space="preserve" width="4000px" height="500px" viewBox="0 0 4000 500">
<!-- END OF HEADER -->
<rect style="opacity:1.0;fill:#FFFFFF;stroke:none" width="4000" height="500" x="0" y="0"> </rect>
<path d="M 215.439,159.945 L 361.019,243.996" style="fill:none;fill-rule:evenodd;stroke:#FFFFAA;stroke-width:35.9px;stroke-linecap:butt;stroke-linejoin:miter;stroke-opacity:1"/>
<path d="M 361.019,243.996 L 361.019,412.098" style="fill:none;fill-rule:evenodd;stroke:#FFFFAA;stroke-width:35.9px;stroke-linecap:butt;stroke-linejoin:miter;stroke-opacity:1"/>
<path d="M 361.019,243.996 L 506.6,159.945" style="fill:none;fill-rule:evenodd;stroke:#FFFFAA;stroke-width:35.9px;stroke-linecap:butt;stroke-linejoin:miter;stroke-opacity:1"/>
<path d="M 506.6,159.945 L 652.18,243.996" style="fill:none;fill-rule:evenodd;stroke:#FFFFAA;stroke-width:35.9px;stroke-linecap:butt;stroke-linejoin:miter;stroke-opacity:1"/>
<path d="M 652.18,243.996 L 797.761,159.945" style="fill:none;fill-rule:evenodd;stroke:#FFFFAA;stroke-width:35.9px;stroke-linecap:butt;stroke-linejoin:miter;stroke-opacity:1"/>
<path d="M 652.18,243.996 L 652.18,412.098" style="fill:none;fill-rule:evenodd;stroke:#FFFFAA;stroke-width:35.9px;stroke-linecap:butt;stroke-linejoin:miter;stroke-opacity:1"/>
<path d="M 1371.96,87.9018 L 1371.96,256.004" style="fill:none;fill-rule:evenodd;stroke:#FFCC99;stroke-width:35.9px;stroke-linecap:butt;stroke-linejoin:miter;stroke-opacity:1"/>
<path d="M 1371.96,256.004 L 1226.38,340.055" style="fill:none;fill-rule:evenodd;stroke:#FFCC99;stroke-width:35.9px;stroke-linecap:butt;stroke-linejoin:miter;stroke-opacity:1"/>
<path d="M 1371.96,256.004 L 1517.54,340.055" style="fill:none;fill-rule:evenodd;stroke:#FFCC99;stroke-width:35.9px;stroke-linecap:butt;stroke-linejoin:miter;stroke-opacity:1"/>
<path d="M 2480.51,340.055 L 2626.09,256.004" style="fill:none;fill-rule:evenodd;stroke:#FFFFAA;stroke-width:35.9px;stroke-linecap:butt;stroke-linejoin:miter;stroke-opacity:1"/>
<path d="M 2626.09,256.004 L 2771.67,340.055" style="fill:none;fill-rule:evenodd;stroke:#FFFFAA;stroke-width:35.9px;stroke-linecap:butt;stroke-linejoin:miter;stroke-opacity:1"/>
<path d="M 2626.09,256.004 L 2626.09,87.9018" style="fill:none;fill-rule:evenodd;stroke:#FFFFAA;stroke-width:35.9px;stroke-linecap:butt;stroke-linejoin:miter;stroke-opacity:1"/>
<path d="M 3202.24,352.062 L 3347.82,268.011" style="fill:none;fill-rule:evenodd;stroke:#FFFFAA;stroke-width:35.9px;stroke-linecap:butt;stroke-linejoin:miter;stroke-opacity:1"/>
<path d="M 3347.82,268.011 L 3347.82,99.909" style="fill:none;fill-rule:evenodd;stroke:#FFFFAA;stroke-width:35.9px;stroke-linecap:butt;stroke-linejoin:miter;stroke-opacity:1"/>
<path d="M 3493.4,352.062 L 3638.98,268.011" style="fill:none;fill-rule:evenodd;stroke:#FFCC99;stroke-width:35.9px;stroke-linecap:butt;stroke-linejoin:miter;stroke-opacity:1"/>
<path d="M 3638.98,268.011 L 3784.56,352.062" style="fill:none;fill-rule:evenodd;stroke:#FFCC99;stroke-width:35.9px;stroke-linecap:butt;stroke-linejoin:miter;stroke-opacity:1"/>
<path d="M 3638.98,268.011 L 3638.98,99.909" style="fill:none;fill-rule:evenodd;stroke:#FFCC99;stroke-width:35.9px;stroke-linecap:butt;stroke-linejoin:miter;stroke-opacity:1"/>
<ellipse cx="215.439" cy="159.945" rx="33.6204" ry="33.6204" style="fill:#FFFFAA;fill-rule:evenodd;stroke:#FFFFAA;stroke-width:1px;stroke-linecap:butt;stroke-linejoin:miter;stroke-opacity:1"/>
<ellipse cx="361.019" cy="243.996" rx="33.6204" ry="33.6204" style="fill:#FFFFAA;fill-rule:evenodd;stroke:#FFFFAA;stroke-width:1px;stroke-linecap:butt;stroke-linejoin:miter;stroke-opacity:1"/>
<ellipse cx="361.019" cy="412.318" rx="33.6204" ry="33.6204" style="fill:#FFFFAA;fill-rule:evenodd;stroke:#FFFFAA;stroke-width:1px;stroke-linecap:butt;stroke-linejoin:miter;stroke-opacity:1"/>
<ellipse cx="506.6" cy="160.165" rx="33.6204" ry="33.6204" style="fill:#FFFFAA;fill-rule:evenodd;stroke:#FFFFAA;stroke-width:1px;stroke-linecap:butt;stroke-linejoin:miter;stroke-opacity:1"/>
<ellipse cx="652.18" cy="243.996" rx="33.6204" ry="33.6204" style="fill:#FFFFAA;fill-rule:evenodd;stroke:#FFFFAA;stroke-width:1px;stroke-linecap:butt;stroke-linejoin:miter;stroke-opacity:1"/>
<ellipse cx="797.761" cy="159.945" rx="33.6204" ry="33.6204" style="fill:#FFFFAA;fill-rule:evenodd;stroke:#FFFFAA;stroke-width:1px;stroke-linecap:butt;stroke-linejoin:miter;stroke-opacity:1"/>
<ellipse cx="652.18" cy="412.318" rx="33.6204" ry="33.6204" style="fill:#FFFFAA;fill-rule:evenodd;stroke:#FFFFAA;stroke-width:1px;stroke-linecap:butt;stroke-linejoin:miter;stroke-opacity:1"/>
<ellipse cx="1391.69" cy="94.9818" rx="43.1001" ry="33.6204" style="fill:#FFCC99;fill-rule:evenodd;stroke:#FFCC99;stroke-width:1px;stroke-linecap:butt;stroke-linejoin:miter;stroke-opacity:1"/>
<ellipse cx="1371.96" cy="256.004" rx="33.6204" ry="33.6204" style="fill:#FFCC99;fill-rule:evenodd;stroke:#FFCC99;stroke-width:1px;stroke-linecap:butt;stroke-linejoin:miter;stroke-opacity:1"/>
<ellipse cx="1226.38" cy="340.055" rx="33.6204" ry="33.6204" style="fill:#FFCC99;fill-rule:evenodd;stroke:#FFCC99;stroke-width:1px;stroke-linecap:butt;stroke-linejoin:miter;stroke-opacity:1"/>
<ellipse cx="1517.54" cy="340.055" rx="33.6204" ry="33.6204" style="fill:#FFCC99;fill-rule:evenodd;stroke:#FFCC99;stroke-width:1px;stroke-linecap:butt;stroke-linejoin:miter;stroke-opacity:1"/>
<ellipse cx="2480.51" cy="340.055" rx="33.6204" ry="33.6204" style="fill:#FFFFAA;fill-rule:evenodd;stroke:#FFFFAA;stroke-width:1px;stroke-linecap:butt;stroke-linejoin:miter;stroke-opacity:1"/>
<ellipse cx="2626.09" cy="256.004" rx="33.6204" ry="33.6204" style="fill:#FFFFAA;fill-rule:evenodd;stroke:#FFFFAA;stroke-width:1px;stroke-linecap:butt;stroke-linejoin:miter;stroke-opacity:1"/>
<ellipse cx="2771.67" cy="340.275" rx="33.6204" ry="33.6204" style="fill:#FFFFAA;fill-rule:evenodd;stroke:#FFFFAA;stroke-width:1px;stroke-linecap:butt;stroke-linejoin:miter;stroke-opacity:1"/>
<ellipse cx="2638.87" cy="88.1218" rx="36.4584" ry="33.6204" style="fill:#FFFFAA;fill-rule:evenodd;stroke:#FFFFAA;stroke-width:1px;stroke-linecap:butt;stroke-linejoin:miter;stroke-opacity:1"/>
<ellipse cx="3202.24" cy="352.062" rx="33.6204" ry="33.6204" style="fill:#FFFFAA;fill-rule:evenodd;stroke:#FFFFAA;stroke-width:1px;stroke-linecap:butt;stroke-linejoin:miter;stroke-opacity:1"/>
<ellipse cx="3347.82" cy="268.011" rx="33.6204" ry="33.6204" style="fill:#FFFFAA;fill-rule:evenodd;stroke:#FFFFAA;stroke-width:1px;stroke-linecap:butt;stroke-linejoin:miter;stroke-opacity:1"/>
<ellipse cx="3347.82" cy="100.129" rx="33.6204" ry="33.6204" style="fill:#FFFFAA;fill-rule:evenodd;stroke:#FFFFAA;stroke-width:1px;stroke-linecap:butt;stroke-linejoin:miter;stroke-opacity:1"/>
<ellipse cx="3493.4" cy="367.638" rx="33.6204" ry="42.0531" style="fill:#FFCC99;fill-rule:evenodd;stroke:#FFCC99;stroke-width:1px;stroke-linecap:butt;stroke-linejoin:miter;stroke-opacity:1"/>
<ellipse cx="3638.98" cy="268.011" rx="33.6204" ry="33.6204" style="fill:#FFCC99;fill-rule:evenodd;stroke:#FFCC99;stroke-width:1px;stroke-linecap:butt;stroke-linejoin:miter;stroke-opacity:1"/>
<ellipse cx="3784.56" cy="352.062" rx="33.6204" ry="33.6204" style="fill:#FFCC99;fill-rule:evenodd;stroke:#FFCC99;stroke-width:1px;stroke-linecap:butt;stroke-linejoin:miter;stroke-opacity:1"/>
<ellipse cx="3638.98" cy="99.909" rx="33.6204" ry="33.6204" style="fill:#FFCC99;fill-rule:evenodd;stroke:#FFCC99;stroke-width:1px;stroke-linecap:butt;stroke-linejoin:miter;stroke-opacity:1"/>
<path class="bond-0" d="M 215.439,159.945 L 361.019,243.996" style="fill:none;fill-rule:evenodd;stroke:#000000;stroke-width:2.0px;stroke-linecap:butt;stroke-linejoin:miter;stroke-opacity:1"/>
<path class="bond-1" d="M 344.209,243.996 L 344.209,318.786" style="fill:none;fill-rule:evenodd;stroke:#000000;stroke-width:2.0px;stroke-linecap:butt;stroke-linejoin:miter;stroke-opacity:1"/>
<path class="bond-1" d="M 344.209,318.786 L 344.209,393.576" style="fill:none;fill-rule:evenodd;stroke:#FF0000;stroke-width:2.0px;stroke-linecap:butt;stroke-linejoin:miter;stroke-opacity:1"/>
<path class="bond-1" d="M 377.829,243.996 L 377.829,318.786" style="fill:none;fill-rule:evenodd;stroke:#000000;stroke-width:2.0px;stroke-linecap:butt;stroke-linejoin:miter;stroke-opacity:1"/>
<path class="bond-1" d="M 377.829,318.786 L 377.829,393.576" style="fill:none;fill-rule:evenodd;stroke:#FF0000;stroke-width:2.0px;stroke-linecap:butt;stroke-linejoin:miter;stroke-opacity:1"/>
<path class="bond-2" d="M 361.019,243.996 L 425.208,206.937" style="fill:none;fill-rule:evenodd;stroke:#000000;stroke-width:2.0px;stroke-linecap:butt;stroke-linejoin:miter;stroke-opacity:1"/>
<path class="bond-2" d="M 425.208,206.937 L 489.397,169.877" style="fill:none;fill-rule:evenodd;stroke:#FF0000;stroke-width:2.0px;stroke-linecap:butt;stroke-linejoin:miter;stroke-opacity:1"/>
<path class="bond-3" d="M 523.802,169.877 L 587.991,206.937" style="fill:none;fill-rule:evenodd;stroke:#FF0000;stroke-width:2.0px;stroke-linecap:butt;stroke-linejoin:miter;stroke-opacity:1"/>
<path class="bond-3" d="M 587.991,206.937 L 652.18,243.996" style="fill:none;fill-rule:evenodd;stroke:#000000;stroke-width:2.0px;stroke-linecap:butt;stroke-linejoin:miter;stroke-opacity:1"/>
<path class="bond-4" d="M 652.18,243.996 L 797.761,159.945" style="fill:none;fill-rule:evenodd;stroke:#000000;stroke-width:2.0px;stroke-linecap:butt;stroke-linejoin:miter;stroke-opacity:1"/>
<path class="bond-5" d="M 635.37,243.996 L 635.37,318.786" style="fill:none;fill-rule:evenodd;stroke:#000000;stroke-width:2.0px;stroke-linecap:butt;stroke-linejoin:miter;stroke-opacity:1"/>
<path class="bond-5" d="M 635.37,318.786 L 635.37,393.576" style="fill:none;fill-rule:evenodd;stroke:#FF0000;stroke-width:2.0px;stroke-linecap:butt;stroke-linejoin:miter;stroke-opacity:1"/>
<path class="bond-5" d="M 668.99,243.996 L 668.99,318.786" style="fill:none;fill-rule:evenodd;stroke:#000000;stroke-width:2.0px;stroke-linecap:butt;stroke-linejoin:miter;stroke-opacity:1"/>
<path class="bond-5" d="M 668.99,318.786 L 668.99,393.576" style="fill:none;fill-rule:evenodd;stroke:#FF0000;stroke-width:2.0px;stroke-linecap:butt;stroke-linejoin:miter;stroke-opacity:1"/>
<path class="bond-6" d="M 1371.96,106.264 L 1371.96,181.134" style="fill:none;fill-rule:evenodd;stroke:#0000FF;stroke-width:2.0px;stroke-linecap:butt;stroke-linejoin:miter;stroke-opacity:1"/>
<path class="bond-6" d="M 1371.96,181.134 L 1371.96,256.004" style="fill:none;fill-rule:evenodd;stroke:#000000;stroke-width:2.0px;stroke-linecap:butt;stroke-linejoin:miter;stroke-opacity:1"/>
<path class="bond-7" d="M 1363.55,241.446 L 1217.97,325.497" style="fill:none;fill-rule:evenodd;stroke:#000000;stroke-width:2.0px;stroke-linecap:butt;stroke-linejoin:miter;stroke-opacity:1"/>
<path class="bond-7" d="M 1380.36,270.562 L 1234.78,354.613" style="fill:none;fill-rule:evenodd;stroke:#000000;stroke-width:2.0px;stroke-linecap:butt;stroke-linejoin:miter;stroke-opacity:1;stroke-dasharray:6,6"/>
<path class="bond-8" d="M 1363.55,270.562 L 1509.13,354.613" style="fill:none;fill-rule:evenodd;stroke:#000000;stroke-width:2.0px;stroke-linecap:butt;stroke-linejoin:miter;stroke-opacity:1"/>
<path class="bond-8" d="M 1380.36,241.446 L 1525.94,325.497" style="fill:none;fill-rule:evenodd;stroke:#000000;stroke-width:2.0px;stroke-linecap:butt;stroke-linejoin:miter;stroke-opacity:1;stroke-dasharray:6,6"/>
<path class="bond-9" d="M 2480.51,340.055 L 2626.09,256.004" style="fill:none;fill-rule:evenodd;stroke:#000000;stroke-width:2.0px;stroke-linecap:butt;stroke-linejoin:miter;stroke-opacity:1"/>
<path class="bond-10" d="M 2617.69,270.562 L 2681.88,307.621" style="fill:none;fill-rule:evenodd;stroke:#000000;stroke-width:2.0px;stroke-linecap:butt;stroke-linejoin:miter;stroke-opacity:1"/>
<path class="bond-10" d="M 2681.88,307.621 L 2746.07,344.681" style="fill:none;fill-rule:evenodd;stroke:#FF0000;stroke-width:2.0px;stroke-linecap:butt;stroke-linejoin:miter;stroke-opacity:1"/>
<path class="bond-10" d="M 2634.5,241.446 L 2698.69,278.505" style="fill:none;fill-rule:evenodd;stroke:#000000;stroke-width:2.0px;stroke-linecap:butt;stroke-linejoin:miter;stroke-opacity:1"/>
<path class="bond-10" d="M 2698.69,278.505 L 2762.88,315.565" style="fill:none;fill-rule:evenodd;stroke:#FF0000;stroke-width:2.0px;stroke-linecap:butt;stroke-linejoin:miter;stroke-opacity:1"/>
<path class="bond-11" d="M 2626.09,256.004 L 2626.09,181.434" style="fill:none;fill-rule:evenodd;stroke:#000000;stroke-width:2.0px;stroke-linecap:butt;stroke-linejoin:miter;stroke-opacity:1"/>
<path class="bond-11" d="M 2626.09,181.434 L 2626.09,106.864" style="fill:none;fill-rule:evenodd;stroke:#FF0000;stroke-width:2.0px;stroke-linecap:butt;stroke-linejoin:miter;stroke-opacity:1"/>
<path class="bond-12" d="M 3202.24,352.062 L 3347.82,268.011" style="fill:none;fill-rule:evenodd;stroke:#000000;stroke-width:2.0px;stroke-linecap:butt;stroke-linejoin:miter;stroke-opacity:1"/>
<path class="bond-13" d="M 3364.63,268.011 L 3364.63,193.441" style="fill:none;fill-rule:evenodd;stroke:#000000;stroke-width:2.0px;stroke-linecap:butt;stroke-linejoin:miter;stroke-opacity:1"/>
<path class="bond-13" d="M 3364.63,193.441 L 3364.63,118.872" style="fill:none;fill-rule:evenodd;stroke:#FF0000;stroke-width:2.0px;stroke-linecap:butt;stroke-linejoin:miter;stroke-opacity:1"/>
<path class="bond-13" d="M 3331.01,268.011 L 3331.01,193.441" style="fill:none;fill-rule:evenodd;stroke:#000000;stroke-width:2.0px;stroke-linecap:butt;stroke-linejoin:miter;stroke-opacity:1"/>
<path class="bond-13" d="M 3331.01,193.441 L 3331.01,118.872" style="fill:none;fill-rule:evenodd;stroke:#FF0000;stroke-width:2.0px;stroke-linecap:butt;stroke-linejoin:miter;stroke-opacity:1"/>
<path class="bond-14" d="M 3347.82,268.011 L 3413.14,305.723" style="fill:none;fill-rule:evenodd;stroke:#000000;stroke-width:2.0px;stroke-linecap:butt;stroke-linejoin:miter;stroke-opacity:1"/>
<path class="bond-14" d="M 3413.14,305.723 L 3478.46,343.435" style="fill:none;fill-rule:evenodd;stroke:#0000FF;stroke-width:2.0px;stroke-linecap:butt;stroke-linejoin:miter;stroke-opacity:1"/>
<path class="bond-15" d="M 3508.34,343.435 L 3573.66,305.723" style="fill:none;fill-rule:evenodd;stroke:#0000FF;stroke-width:2.0px;stroke-linecap:butt;stroke-linejoin:miter;stroke-opacity:1"/>
<path class="bond-15" d="M 3573.66,305.723 L 3638.98,268.011" style="fill:none;fill-rule:evenodd;stroke:#000000;stroke-width:2.0px;stroke-linecap:butt;stroke-linejoin:miter;stroke-opacity:1"/>
<path class="bond-16" d="M 3630.58,282.569 L 3776.16,366.62" style="fill:none;fill-rule:evenodd;stroke:#000000;stroke-width:2.0px;stroke-linecap:butt;stroke-linejoin:miter;stroke-opacity:1"/>
<path class="bond-16" d="M 3647.39,253.453 L 3792.97,337.504" style="fill:none;fill-rule:evenodd;stroke:#000000;stroke-width:2.0px;stroke-linecap:butt;stroke-linejoin:miter;stroke-opacity:1;stroke-dasharray:6,6"/>
<path class="bond-17" d="M 3655.79,268.011 L 3655.79,99.909" style="fill:none;fill-rule:evenodd;stroke:#000000;stroke-width:2.0px;stroke-linecap:butt;stroke-linejoin:miter;stroke-opacity:1"/>
<path class="bond-17" d="M 3622.17,268.011 L 3622.17,99.909" style="fill:none;fill-rule:evenodd;stroke:#000000;stroke-width:2.0px;stroke-linecap:butt;stroke-linejoin:miter;stroke-opacity:1;stroke-dasharray:6,6"/>
<path class="atom-2" d="M 348.019 412.178 Q 348.019 405.378, 351.379 401.578 Q 354.739 397.778, 361.019 397.778 Q 367.299 397.778, 370.659 401.578 Q 374.019 405.378, 374.019 412.178 Q 374.019 419.058, 370.619 422.978 Q 367.219 426.858, 361.019 426.858 Q 354.779 426.858, 351.379 422.978 Q 348.019 419.098, 348.019 412.178 M 361.019 423.658 Q 365.339 423.658, 367.659 420.778 Q 370.019 417.858, 370.019 412.178 Q 370.019 406.618, 367.659 403.818 Q 365.339 400.978, 361.019 400.978 Q 356.699 400.978, 354.339 403.778 Q 352.019 406.578, 352.019 412.178 Q 352.019 417.898, 354.339 420.778 Q 356.699 423.658, 361.019 423.658 " fill="#FF0000"/>
<path class="atom-3" d="M 493.6 160.025 Q 493.6 153.225, 496.96 149.425 Q 500.32 145.625, 506.6 145.625 Q 512.88 145.625, 516.24 149.425 Q 519.6 153.225, 519.6 160.025 Q 519.6 166.905, 516.2 170.825 Q 512.8 174.705, 506.6 174.705 Q 500.36 174.705, 496.96 170.825 Q 493.6 166.945, 493.6 160.025 M 506.6 171.505 Q 510.92 171.505, 513.24 168.625 Q 515.6 165.705, 515.6 160.025 Q 515.6 154.465, 513.24 151.665 Q 510.92 148.825, 506.6 148.825 Q 502.28 148.825, 499.92 151.625 Q 497.6 154.425, 497.6 160.025 Q 497.6 165.745, 499.92 168.625 Q 502.28 171.505, 506.6 171.505 " fill="#FF0000"/>
<path class="atom-6" d="M 639.18 412.178 Q 639.18 405.378, 642.54 401.578 Q 645.9 397.778, 652.18 397.778 Q 658.46 397.778, 661.82 401.578 Q 665.18 405.378, 665.18 412.178 Q 665.18 419.058, 661.78 422.978 Q 658.38 426.858, 652.18 426.858 Q 645.94 426.858, 642.54 422.978 Q 639.18 419.098, 639.18 412.178 M 652.18 423.658 Q 656.5 423.658, 658.82 420.778 Q 661.18 417.858, 661.18 412.178 Q 661.18 406.618, 658.82 403.818 Q 656.5 400.978, 652.18 400.978 Q 647.86 400.978, 645.5 403.778 Q 643.18 406.578, 643.18 412.178 Q 643.18 417.898, 645.5 420.778 Q 647.86 423.658, 652.18 423.658 " fill="#FF0000"/>
<path class="atom-7" d="M 1365.7 73.7418 L 1374.98 88.7418 Q 1375.9 90.2218, 1377.38 92.9018 Q 1378.86 95.5818, 1378.94 95.7418 L 1378.94 73.7418 L 1382.7 73.7418 L 1382.7 102.062 L 1378.82 102.062 L 1368.86 85.6618 Q 1367.7 83.7418, 1366.46 81.5418 Q 1365.26 79.3418, 1364.9 78.6618 L 1364.9 102.062 L 1361.22 102.062 L 1361.22 73.7418 L 1365.7 73.7418 " fill="#0000FF"/>
<path class="atom-7" d="M 1386.1 73.7418 L 1389.94 73.7418 L 1389.94 85.7818 L 1404.42 85.7818 L 1404.42 73.7418 L 1408.26 73.7418 L 1408.26 102.062 L 1404.42 102.062 L 1404.42 88.9818 L 1389.94 88.9818 L 1389.94 102.062 L 1386.1 102.062 L 1386.1 73.7418 " fill="#0000FF"/>
<path class="atom-7" d="M 1409.63 101.068 Q 1410.32 99.2994, 1411.95 98.3226 Q 1413.59 97.3194, 1415.86 97.3194 Q 1418.68 97.3194, 1420.27 98.8506 Q 1421.85 100.382, 1421.85 103.101 Q 1421.85 105.873, 1419.79 108.46 Q 1417.76 111.047, 1413.54 114.11 L 1422.17 114.11 L 1422.17 116.222 L 1409.58 116.222 L 1409.58 114.453 Q 1413.06 111.971, 1415.12 110.123 Q 1417.21 108.275, 1418.21 106.612 Q 1419.21 104.949, 1419.21 103.233 Q 1419.21 101.438, 1418.31 100.435 Q 1417.42 99.4314, 1415.86 99.4314 Q 1414.35 99.4314, 1413.35 100.039 Q 1412.35 100.646, 1411.64 101.992 L 1409.63 101.068 " fill="#0000FF"/>
<path class="atom-13" d="M 2758.67 340.135 Q 2758.67 333.335, 2762.03 329.535 Q 2765.39 325.735, 2771.67 325.735 Q 2777.95 325.735, 2781.31 329.535 Q 2784.67 333.335, 2784.67 340.135 Q 2784.67 347.015, 2781.27 350.935 Q 2777.87 354.815, 2771.67 354.815 Q 2765.43 354.815, 2762.03 350.935 Q 2758.67 347.055, 2758.67 340.135 M 2771.67 351.615 Q 2775.99 351.615, 2778.31 348.735 Q 2780.67 345.815, 2780.67 340.135 Q 2780.67 334.575, 2778.31 331.775 Q 2775.99 328.935, 2771.67 328.935 Q 2767.35 328.935, 2764.99 331.735 Q 2762.67 334.535, 2762.67 340.135 Q 2762.67 345.855, 2764.99 348.735 Q 2767.35 351.615, 2771.67 351.615 " fill="#FF0000"/>
<path class="atom-14" d="M 2613.09 87.9818 Q 2613.09 81.1818, 2616.45 77.3818 Q 2619.81 73.5818, 2626.09 73.5818 Q 2632.37 73.5818, 2635.73 77.3818 Q 2639.09 81.1818, 2639.09 87.9818 Q 2639.09 94.8618, 2635.69 98.7818 Q 2632.29 102.662, 2626.09 102.662 Q 2619.85 102.662, 2616.45 98.7818 Q 2613.09 94.9018, 2613.09 87.9818 M 2626.09 99.4618 Q 2630.41 99.4618, 2632.73 96.5818 Q 2635.09 93.6618, 2635.09 87.9818 Q 2635.09 82.4218, 2632.73 79.6218 Q 2630.41 76.7818, 2626.09 76.7818 Q 2621.77 76.7818, 2619.41 79.5818 Q 2617.09 82.3818, 2617.09 87.9818 Q 2617.09 93.7018, 2619.41 96.5818 Q 2621.77 99.4618, 2626.09 99.4618 " fill="#FF0000"/>
<path class="atom-14" d="M 2642.49 73.9018 L 2646.33 73.9018 L 2646.33 85.9418 L 2660.81 85.9418 L 2660.81 73.9018 L 2664.65 73.9018 L 2664.65 102.222 L 2660.81 102.222 L 2660.81 89.1418 L 2646.33 89.1418 L 2646.33 102.222 L 2642.49 102.222 L 2642.49 73.9018 " fill="#FF0000"/>
<path class="atom-17" d="M 3334.82 99.989 Q 3334.82 93.189, 3338.18 89.389 Q 3341.54 85.589, 3347.82 85.589 Q 3354.1 85.589, 3357.46 89.389 Q 3360.82 93.189, 3360.82 99.989 Q 3360.82 106.869, 3357.42 110.789 Q 3354.02 114.669, 3347.82 114.669 Q 3341.58 114.669, 3338.18 110.789 Q 3334.82 106.909, 3334.82 99.989 M 3347.82 111.469 Q 3352.14 111.469, 3354.46 108.589 Q 3356.82 105.669, 3356.82 99.989 Q 3356.82 94.429, 3354.46 91.629 Q 3352.14 88.789, 3347.82 88.789 Q 3343.5 88.789, 3341.14 91.589 Q 3338.82 94.389, 3338.82 99.989 Q 3338.82 105.709, 3341.14 108.589 Q 3343.5 111.469, 3347.82 111.469 " fill="#FF0000"/>
<path class="atom-18" d="M 3487.14 337.902 L 3496.42 352.902 Q 3497.34 354.382, 3498.82 357.062 Q 3500.3 359.742, 3500.38 359.902 L 3500.38 337.902 L 3504.14 337.902 L 3504.14 366.222 L 3500.26 366.222 L 3490.3 349.822 Q 3489.14 347.902, 3487.9 345.702 Q 3486.7 343.502, 3486.34 342.822 L 3486.34 366.222 L 3482.66 366.222 L 3482.66 337.902 L 3487.14 337.902 " fill="#0000FF"/>
<path class="atom-18" d="M 3482.32 369.054 L 3486.16 369.054 L 3486.16 381.094 L 3500.64 381.094 L 3500.64 369.054 L 3504.48 369.054 L 3504.48 397.374 L 3500.64 397.374 L 3500.64 384.294 L 3486.16 384.294 L 3486.16 397.374 L 3482.32 397.374 L 3482.32 369.054 " fill="#0000FF"/>
<path class="note" d="M 197.94 189.729 L 201.04 189.729 L 201.04 179.149 L 197.62 180.209 L 197.16 179.029 L 201.5 177.089 L 202.92 177.329 L 202.92 189.729 L 205.7 189.729 L 205.7 191.329 L 197.94 191.329 L 197.94 189.729 " fill="#000000"/>
<path class="note" d="M 356.289 211.659 Q 356.809 210.319, 358.049 209.579 Q 359.289 208.819, 361.009 208.819 Q 363.149 208.819, 364.349 209.979 Q 365.549 211.139, 365.549 213.199 Q 365.549 215.299, 363.989 217.259 Q 362.449 219.219, 359.249 221.539 L 365.789 221.539 L 365.789 223.139 L 356.249 223.139 L 356.249 221.799 Q 358.889 219.919, 360.449 218.519 Q 362.029 217.119, 362.789 215.859 Q 363.549 214.599, 363.549 213.299 Q 363.549 211.939, 362.869 211.179 Q 362.189 210.419, 361.009 210.419 Q 359.869 210.419, 359.109 210.879 Q 358.349 211.339, 357.809 212.359 L 356.289 211.659 " fill="#000000"/>
<path class="note" d="M 363.059 467.832 Q 364.439 468.232, 365.099 469.132 Q 365.779 470.012, 365.779 471.412 Q 365.779 472.612, 365.179 473.552 Q 364.579 474.472, 363.479 474.992 Q 362.379 475.492, 360.939 475.492 Q 359.419 475.492, 358.279 474.972 Q 357.159 474.432, 356.259 473.352 L 357.399 472.192 Q 358.279 473.152, 359.019 473.532 Q 359.759 473.892, 360.939 473.892 Q 362.219 473.892, 362.999 473.212 Q 363.779 472.512, 363.779 471.392 Q 363.779 469.952, 362.959 469.312 Q 362.159 468.652, 360.419 468.652 L 359.399 468.652 L 359.399 467.212 L 360.299 467.212 Q 361.839 467.192, 362.659 466.532 Q 363.479 465.852, 363.479 464.592 Q 363.479 463.672, 362.799 463.132 Q 362.119 462.572, 360.959 462.572 Q 359.779 462.572, 359.039 462.992 Q 358.319 463.412, 357.759 464.472 L 356.379 463.732 Q 356.879 462.552, 358.079 461.772 Q 359.279 460.972, 360.959 460.972 Q 363.039 460.972, 364.259 461.952 Q 365.479 462.932, 365.479 464.592 Q 365.479 465.732, 364.859 466.552 Q 364.239 467.372, 363.059 467.832 " fill="#000000"/>
<path class="note" d="M 493.38 109.471 L 496.48 109.471 L 496.48 98.8915 L 493.06 99.9515 L 492.6 98.7715 L 496.94 96.8315 L 498.36 97.0715 L 498.36 109.471 L 501.14 109.471 L 501.14 111.071 L 493.38 111.071 L 493.38 109.471 " fill="#000000"/>
<path class="note" d="M 507 96.7515 Q 509.52 96.7515, 510.78 98.4715 Q 512.06 100.171, 512.06 103.571 Q 512.06 107.331, 510.48 109.291 Q 508.92 111.231, 505.9 111.231 Q 505.02 111.231, 504.26 111.031 Q 503.52 110.831, 502.8 110.411 L 503.58 109.071 Q 504.62 109.631, 505.88 109.631 Q 507.88 109.631, 508.9 108.351 Q 509.92 107.051, 510.04 104.391 Q 509.32 105.051, 508.4 105.411 Q 507.5 105.751, 506.52 105.751 Q 505.28 105.751, 504.3 105.211 Q 503.32 104.671, 502.78 103.691 Q 502.24 102.711, 502.24 101.471 Q 502.24 100.091, 502.84 99.0315 Q 503.46 97.9515, 504.54 97.3515 Q 505.62 96.7515, 507 96.7515 M 504.24 101.451 Q 504.24 102.711, 504.94 103.431 Q 505.64 104.151, 506.88 104.151 Q 507.74 104.151, 508.58 103.811 Q 509.44 103.451, 510.04 102.851 Q 509.96 100.511, 509.22 99.4515 Q 508.48 98.3915, 506.98 98.3915 Q 506.22 98.3915, 505.58 98.7915 Q 504.96 99.1915, 504.6 99.8915 Q 504.24 100.591, 504.24 101.451 " fill="#000000"/>
<path class="note" d="M 639.54 193.482 L 642.64 193.482 L 642.64 182.902 L 639.22 183.962 L 638.76 182.782 L 643.1 180.842 L 644.52 181.082 L 644.52 193.482 L 647.3 193.482 L 647.3 195.082 L 639.54 195.082 L 639.54 193.482 " fill="#000000"/>
<path class="note" d="M 655.08 182.522 L 647.66 182.522 L 647.66 180.922 L 657.06 180.922 L 657.06 182.342 L 651.34 195.082 L 649.42 195.082 L 655.08 182.522 " fill="#000000"/>
<path class="note" d="M 770.402 141.242 L 773.502 141.242 L 773.502 130.662 L 770.082 131.722 L 769.622 130.542 L 773.962 128.602 L 775.382 128.842 L 775.382 141.242 L 778.162 141.242 L 778.162 142.842 L 770.402 142.842 L 770.402 141.242 " fill="#000000"/>
<path class="note" d="M 785.062 134.002 Q 786.302 134.002, 787.282 134.542 Q 788.262 135.082, 788.802 136.062 Q 789.342 137.042, 789.342 138.282 Q 789.342 139.662, 788.722 140.742 Q 788.122 141.802, 787.042 142.402 Q 785.962 143.002, 784.582 143.002 Q 782.062 143.002, 780.782 141.302 Q 779.522 139.582, 779.522 136.182 Q 779.522 132.422, 781.082 130.482 Q 782.662 128.522, 785.682 128.522 Q 786.562 128.522, 787.302 128.722 Q 788.062 128.922, 788.782 129.342 L 788.002 130.682 Q 786.962 130.122, 785.702 130.122 Q 783.702 130.122, 782.682 131.422 Q 781.662 132.702, 781.542 135.362 Q 782.262 134.702, 783.162 134.362 Q 784.082 134.002, 785.062 134.002 M 784.602 141.362 Q 785.362 141.362, 785.982 140.962 Q 786.622 140.562, 786.982 139.862 Q 787.342 139.162, 787.342 138.302 Q 787.342 137.042, 786.642 136.322 Q 785.942 135.602, 784.702 135.602 Q 783.842 135.602, 782.982 135.962 Q 782.142 136.302, 781.542 136.902 Q 781.622 139.242, 782.362 140.302 Q 783.102 141.362, 784.602 141.362 " fill="#000000"/>
<path class="note" d="M 638.8 473.692 L 641.9 473.692 L 641.9 463.112 L 638.48 464.172 L 638.02 462.992 L 642.36 461.052 L 643.78 461.292 L 643.78 473.692 L 646.56 473.692 L 646.56 475.292 L 638.8 475.292 L 638.8 473.692 " fill="#000000"/>
<path class="note" d="M 655.02 467.792 Q 656.32 468.352, 657.06 469.192 Q 657.8 470.012, 657.8 471.412 Q 657.8 472.612, 657.18 473.552 Q 656.56 474.472, 655.44 474.992 Q 654.34 475.492, 652.88 475.492 Q 650.52 475.492, 649.16 474.412 Q 647.8 473.312, 647.8 471.412 Q 647.8 470.252, 648.4 469.392 Q 649 468.512, 650.24 467.852 Q 649.32 467.332, 648.82 466.572 Q 648.32 465.792, 648.32 464.592 Q 648.32 462.932, 649.52 461.952 Q 650.74 460.972, 652.8 460.972 Q 654.86 460.972, 656.06 461.952 Q 657.28 462.932, 657.28 464.592 Q 657.28 465.632, 656.7 466.412 Q 656.14 467.172, 655.02 467.792 M 652.8 462.472 Q 651.62 462.472, 650.96 463.032 Q 650.32 463.592, 650.32 464.592 Q 650.32 465.332, 650.76 465.832 Q 651.2 466.312, 651.82 466.592 Q 652.46 466.872, 653.68 467.292 Q 654.54 466.692, 654.9 466.052 Q 655.28 465.412, 655.28 464.592 Q 655.28 463.592, 654.62 463.032 Q 653.98 462.472, 652.8 462.472 M 652.88 473.992 Q 654.2 473.992, 655 473.292 Q 655.8 472.572, 655.8 471.392 Q 655.8 470.632, 655.38 470.152 Q 654.96 469.672, 654.32 469.392 Q 653.7 469.112, 652.58 468.752 L 651.68 468.452 Q 650.68 469.052, 650.24 469.772 Q 649.8 470.472, 649.8 471.392 Q 649.8 472.572, 650.64 473.292 Q 651.48 473.992, 652.88 473.992 " fill="#000000"/>
<path class="note" d="M 1375.71 34.0878 L 1377.41 34.0878 L 1377.41 35.6878 L 1375.71 35.6878 L 1375.71 38.9478 L 1373.83 38.9478 L 1373.83 35.6878 L 1366.51 35.6878 L 1366.51 34.4278 L 1372.71 24.7878 L 1375.71 24.7878 L 1375.71 34.0878 M 1368.83 34.0878 L 1373.83 34.0878 L 1373.83 26.0678 L 1368.83 34.0878 " fill="#000000"/>
<path class="note" d="M 1323.78 226.207 Q 1325.02 226.207, 1326.04 226.747 Q 1327.06 227.267, 1327.64 228.267 Q 1328.22 229.247, 1328.22 230.587 Q 1328.22 232.047, 1327.5 233.107 Q 1326.8 234.147, 1325.64 234.687 Q 1324.48 235.227, 1323.16 235.227 Q 1321.86 235.227, 1320.66 234.747 Q 1319.46 234.267, 1318.64 233.347 L 1319.84 232.107 Q 1320.5 232.827, 1321.4 233.227 Q 1322.3 233.607, 1323.22 233.607 Q 1324.48 233.607, 1325.34 232.827 Q 1326.22 232.047, 1326.22 230.627 Q 1326.22 229.127, 1325.34 228.427 Q 1324.48 227.707, 1323.1 227.707 Q 1321.86 227.707, 1320.48 228.247 L 1319.38 227.727 L 1320.06 220.907 L 1327.34 220.907 L 1327.14 222.507 L 1321.7 222.507 L 1321.28 226.707 Q 1322.54 226.207, 1323.78 226.207 " fill="#000000"/>
<path class="note" d="M 1202.74 324.366 Q 1203.98 324.366, 1204.96 324.906 Q 1205.94 325.446, 1206.48 326.426 Q 1207.02 327.406, 1207.02 328.646 Q 1207.02 330.026, 1206.4 331.106 Q 1205.8 332.166, 1204.72 332.766 Q 1203.64 333.366, 1202.26 333.366 Q 1199.74 333.366, 1198.46 331.666 Q 1197.2 329.946, 1197.2 326.546 Q 1197.2 322.786, 1198.76 320.846 Q 1200.34 318.886, 1203.36 318.886 Q 1204.24 318.886, 1204.98 319.086 Q 1205.74 319.286, 1206.46 319.706 L 1205.68 321.046 Q 1204.64 320.486, 1203.38 320.486 Q 1201.38 320.486, 1200.36 321.786 Q 1199.34 323.066, 1199.22 325.726 Q 1199.94 325.066, 1200.84 324.726 Q 1201.76 324.366, 1202.74 324.366 M 1202.28 331.726 Q 1203.04 331.726, 1203.66 331.326 Q 1204.3 330.926, 1204.66 330.226 Q 1205.02 329.526, 1205.02 328.666 Q 1205.02 327.406, 1204.32 326.686 Q 1203.62 325.966, 1202.38 325.966 Q 1201.52 325.966, 1200.66 326.326 Q 1199.82 326.666, 1199.22 327.266 Q 1199.3 329.606, 1200.04 330.666 Q 1200.78 331.726, 1202.28 331.726 " fill="#000000"/>
<path class="note" d="M 1532.54 297.048 L 1535.64 297.048 L 1535.64 286.468 L 1532.22 287.528 L 1531.76 286.348 L 1536.1 284.408 L 1537.52 284.648 L 1537.52 297.048 L 1540.3 297.048 L 1540.3 298.648 L 1532.54 298.648 L 1532.54 297.048 " fill="#000000"/>
<path class="note" d="M 1546.36 289.788 Q 1547.6 289.788, 1548.62 290.328 Q 1549.64 290.848, 1550.22 291.848 Q 1550.8 292.828, 1550.8 294.168 Q 1550.8 295.628, 1550.08 296.688 Q 1549.38 297.728, 1548.22 298.268 Q 1547.06 298.808, 1545.74 298.808 Q 1544.44 298.808, 1543.24 298.328 Q 1542.04 297.848, 1541.22 296.928 L 1542.42 295.688 Q 1543.08 296.408, 1543.98 296.808 Q 1544.88 297.188, 1545.8 297.188 Q 1547.06 297.188, 1547.92 296.408 Q 1548.8 295.628, 1548.8 294.208 Q 1548.8 292.708, 1547.92 292.008 Q 1547.06 291.288, 1545.68 291.288 Q 1544.44 291.288, 1543.06 291.828 L 1541.96 291.308 L 1542.64 284.488 L 1549.92 284.488 L 1549.72 286.088 L 1544.28 286.088 L 1543.86 290.288 Q 1545.12 289.788, 1546.36 289.788 " fill="#000000"/>
<path class="note" d="M 2481.17 369.878 L 2484.27 369.878 L 2484.27 359.298 L 2480.85 360.358 L 2480.39 359.178 L 2484.73 357.238 L 2486.15 357.478 L 2486.15 369.878 L 2488.93 369.878 L 2488.93 371.478 L 2481.17 371.478 L 2481.17 369.878 " fill="#000000"/>
<path class="note" d="M 2495.83 362.638 Q 2497.07 362.638, 2498.05 363.178 Q 2499.03 363.718, 2499.57 364.698 Q 2500.11 365.678, 2500.11 366.918 Q 2500.11 368.298, 2499.49 369.378 Q 2498.89 370.438, 2497.81 371.038 Q 2496.73 371.638, 2495.35 371.638 Q 2492.83 371.638, 2491.55 369.938 Q 2490.29 368.218, 2490.29 364.818 Q 2490.29 361.058, 2491.85 359.118 Q 2493.43 357.158, 2496.45 357.158 Q 2497.33 357.158, 2498.07 357.358 Q 2498.83 357.558, 2499.55 357.978 L 2498.77 359.318 Q 2497.73 358.758, 2496.47 358.758 Q 2494.47 358.758, 2493.45 360.058 Q 2492.43 361.338, 2492.31 363.998 Q 2493.03 363.338, 2493.93 362.998 Q 2494.85 362.638, 2495.83 362.638 M 2495.37 369.998 Q 2496.13 369.998, 2496.75 369.598 Q 2497.39 369.198, 2497.75 368.498 Q 2498.11 367.798, 2498.11 366.938 Q 2498.11 365.678, 2497.41 364.958 Q 2496.71 364.238, 2495.47 364.238 Q 2494.61 364.238, 2493.75 364.598 Q 2492.91 364.938, 2492.31 365.538 Q 2492.39 367.878, 2493.13 368.938 Q 2493.87 369.998, 2495.37 369.998 " fill="#000000"/>
<path class="note" d="M 2599.45 237.26 L 2602.55 237.26 L 2602.55 226.68 L 2599.13 227.74 L 2598.67 226.56 L 2603.01 224.62 L 2604.43 224.86 L 2604.43 237.26 L 2607.21 237.26 L 2607.21 238.86 L 2599.45 238.86 L 2599.45 237.26 " fill="#000000"/>
<path class="note" d="M 2614.99 226.3 L 2607.57 226.3 L 2607.57 224.7 L 2616.97 224.7 L 2616.97 226.12 L 2611.25 238.86 L 2609.33 238.86 L 2614.99 226.3 " fill="#000000"/>
<path class="note" d="M 2806.82 373.632 L 2809.92 373.632 L 2809.92 363.052 L 2806.5 364.112 L 2806.04 362.932 L 2810.38 360.992 L 2811.8 361.232 L 2811.8 373.632 L 2814.58 373.632 L 2814.58 375.232 L 2806.82 375.232 L 2806.82 373.632 " fill="#000000"/>
<path class="note" d="M 2823.04 367.732 Q 2824.34 368.292, 2825.08 369.132 Q 2825.82 369.952, 2825.82 371.352 Q 2825.82 372.552, 2825.2 373.492 Q 2824.58 374.412, 2823.46 374.932 Q 2822.36 375.432, 2820.9 375.432 Q 2818.54 375.432, 2817.18 374.352 Q 2815.82 373.252, 2815.82 371.352 Q 2815.82 370.192, 2816.42 369.332 Q 2817.02 368.452, 2818.26 367.792 Q 2817.34 367.272, 2816.84 366.512 Q 2816.34 365.732, 2816.34 364.532 Q 2816.34 362.872, 2817.54 361.892 Q 2818.76 360.912, 2820.82 360.912 Q 2822.88 360.912, 2824.08 361.892 Q 2825.3 362.872, 2825.3 364.532 Q 2825.3 365.572, 2824.72 366.352 Q 2824.16 367.112, 2823.04 367.732 M 2820.82 362.412 Q 2819.64 362.412, 2818.98 362.972 Q 2818.34 363.532, 2818.34 364.532 Q 2818.34 365.272, 2818.78 365.772 Q 2819.22 366.252, 2819.84 366.532 Q 2820.48 366.812, 2821.7 367.232 Q 2822.56 366.632, 2822.92 365.992 Q 2823.3 365.352, 2823.3 364.532 Q 2823.3 363.532, 2822.64 362.972 Q 2822 362.412, 2820.82 362.412 M 2820.9 373.932 Q 2822.22 373.932, 2823.02 373.232 Q 2823.82 372.512, 2823.82 371.332 Q 2823.82 370.572, 2823.4 370.092 Q 2822.98 369.612, 2822.34 369.332 Q 2821.72 369.052, 2820.6 368.692 L 2819.7 368.392 Q 2818.7 368.992, 2818.26 369.712 Q 2817.82 370.412, 2817.82 371.332 Q 2817.82 372.512, 2818.66 373.232 Q 2819.5 373.932, 2820.9 373.932 " fill="#000000"/>
<path class="note" d="M 2612.87 37.4278 L 2615.97 37.4278 L 2615.97 26.8478 L 2612.55 27.9078 L 2612.09 26.7278 L 2616.43 24.7878 L 2617.85 25.0278 L 2617.85 37.4278 L 2620.63 37.4278 L 2620.63 39.0278 L 2612.87 39.0278 L 2612.87 37.4278 " fill="#000000"/>
<path class="note" d="M 2626.49 24.7078 Q 2629.01 24.7078, 2630.27 26.4278 Q 2631.55 28.1278, 2631.55 31.5278 Q 2631.55 35.2878, 2629.97 37.2478 Q 2628.41 39.1878, 2625.39 39.1878 Q 2624.51 39.1878, 2623.75 38.9878 Q 2623.01 38.7878, 2622.29 38.3678 L 2623.07 37.0278 Q 2624.11 37.5878, 2625.37 37.5878 Q 2627.37 37.5878, 2628.39 36.3078 Q 2629.41 35.0078, 2629.53 32.3478 Q 2628.81 33.0078, 2627.89 33.3678 Q 2626.99 33.7078, 2626.01 33.7078 Q 2624.77 33.7078, 2623.79 33.1678 Q 2622.81 32.6278, 2622.27 31.6478 Q 2621.73 30.6678, 2621.73 29.4278 Q 2621.73 28.0478, 2622.33 26.9878 Q 2622.95 25.9078, 2624.03 25.3078 Q 2625.11 24.7078, 2626.49 24.7078 M 2623.73 29.4078 Q 2623.73 30.6678, 2624.43 31.3878 Q 2625.13 32.1078, 2626.37 32.1078 Q 2627.23 32.1078, 2628.07 31.7678 Q 2628.93 31.4078, 2629.53 30.8078 Q 2629.45 28.4678, 2628.71 27.4078 Q 2627.97 26.3478, 2626.47 26.3478 Q 2625.71 26.3478, 2625.07 26.7478 Q 2624.45 27.1478, 2624.09 27.8478 Q 2623.73 28.5478, 2623.73 29.4078 " fill="#000000"/>
<path class="note" d="M 3212.76 381.845 L 3215.86 381.845 L 3215.86 371.265 L 3212.44 372.325 L 3211.98 371.145 L 3216.32 369.205 L 3217.74 369.445 L 3217.74 381.845 L 3220.52 381.845 L 3220.52 383.445 L 3212.76 383.445 L 3212.76 381.845 " fill="#000000"/>
<path class="note" d="M 3343.09 291.708 Q 3343.61 290.368, 3344.85 289.628 Q 3346.09 288.868, 3347.81 288.868 Q 3349.95 288.868, 3351.15 290.028 Q 3352.35 291.188, 3352.35 293.248 Q 3352.35 295.348, 3350.79 297.308 Q 3349.25 299.268, 3346.05 301.588 L 3352.59 301.588 L 3352.59 303.188 L 3343.05 303.188 L 3343.05 301.848 Q 3345.69 299.968, 3347.25 298.568 Q 3348.83 297.168, 3349.59 295.908 Q 3350.35 294.648, 3350.35 293.348 Q 3350.35 291.988, 3349.67 291.228 Q 3348.99 290.468, 3347.81 290.468 Q 3346.67 290.468, 3345.91 290.928 Q 3345.15 291.388, 3344.61 292.408 L 3343.09 291.708 " fill="#000000"/>
<path class="note" d="M 3349.86 43.5751 Q 3351.24 43.9751, 3351.9 44.8751 Q 3352.58 45.7551, 3352.58 47.1551 Q 3352.58 48.3551, 3351.98 49.2951 Q 3351.38 50.2151, 3350.28 50.7351 Q 3349.18 51.2351, 3347.74 51.2351 Q 3346.22 51.2351, 3345.08 50.7151 Q 3343.96 50.1751, 3343.06 49.0951 L 3344.2 47.9351 Q 3345.08 48.8951, 3345.82 49.2751 Q 3346.56 49.6351, 3347.74 49.6351 Q 3349.02 49.6351, 3349.8 48.9551 Q 3350.58 48.2551, 3350.58 47.1351 Q 3350.58 45.6951, 3349.76 45.0551 Q 3348.96 44.3951, 3347.22 44.3951 L 3346.2 44.3951 L 3346.2 42.9551 L 3347.1 42.9551 Q 3348.64 42.9351, 3349.46 42.2751 Q 3350.28 41.5951, 3350.28 40.3351 Q 3350.28 39.4151, 3349.6 38.8751 Q 3348.92 38.3151, 3347.76 38.3151 Q 3346.58 38.3151, 3345.84 38.7351 Q 3345.12 39.1551, 3344.56 40.2151 L 3343.18 39.4751 Q 3343.68 38.2951, 3344.88 37.5151 Q 3346.08 36.7151, 3347.76 36.7151 Q 3349.84 36.7151, 3351.06 37.6951 Q 3352.28 38.6751, 3352.28 40.3351 Q 3352.28 41.4751, 3351.66 42.2951 Q 3351.04 43.1151, 3349.86 43.5751 " fill="#000000"/>
<path class="note" d="M 3525.17 402.809 L 3526.87 402.809 L 3526.87 404.409 L 3525.17 404.409 L 3525.17 407.669 L 3523.29 407.669 L 3523.29 404.409 L 3515.97 404.409 L 3515.97 403.149 L 3522.17 393.509 L 3525.17 393.509 L 3525.17 402.809 M 3518.29 402.809 L 3523.29 402.809 L 3523.29 394.789 L 3518.29 402.809 " fill="#000000"/>
<path class="note" d="M 3639.33 322.265 Q 3640.57 322.265, 3641.59 322.805 Q 3642.61 323.325, 3643.19 324.325 Q 3643.77 325.305, 3643.77 326.645 Q 3643.77 328.105, 3643.05 329.165 Q 3642.35 330.205, 3641.19 330.745 Q 3640.03 331.285, 3638.71 331.285 Q 3637.41 331.285, 3636.21 330.805 Q 3635.01 330.325, 3634.19 329.405 L 3635.39 328.165 Q 3636.05 328.885, 3636.95 329.285 Q 3637.85 329.665, 3638.77 329.665 Q 3640.03 329.665, 3640.89 328.885 Q 3641.77 328.105, 3641.77 326.685 Q 3641.77 325.185, 3640.89 324.485 Q 3640.03 323.765, 3638.65 323.765 Q 3637.41 323.765, 3636.03 324.305 L 3634.93 323.785 L 3635.61 316.965 L 3642.89 316.965 L 3642.69 318.565 L 3637.25 318.565 L 3636.83 322.765 Q 3638.09 322.265, 3639.33 322.265 " fill="#000000"/>
<path class="note" d="M 3799.2 374.645 Q 3800.44 374.645, 3801.42 375.185 Q 3802.4 375.725, 3802.94 376.705 Q 3803.48 377.685, 3803.48 378.925 Q 3803.48 380.305, 3802.86 381.385 Q 3802.26 382.445, 3801.18 383.045 Q 3800.1 383.645, 3798.72 383.645 Q 3796.2 383.645, 3794.92 381.945 Q 3793.66 380.225, 3793.66 376.825 Q 3793.66 373.065, 3795.22 371.125 Q 3796.8 369.165, 3799.82 369.165 Q 3800.7 369.165, 3801.44 369.365 Q 3802.2 369.565, 3802.92 369.985 L 3802.14 371.325 Q 3801.1 370.765, 3799.84 370.765 Q 3797.84 370.765, 3796.82 372.065 Q 3795.8 373.345, 3795.68 376.005 Q 3796.4 375.345, 3797.3 375.005 Q 3798.22 374.645, 3799.2 374.645 M 3798.74 382.005 Q 3799.5 382.005, 3800.12 381.605 Q 3800.76 381.205, 3801.12 380.505 Q 3801.48 379.805, 3801.48 378.945 Q 3801.48 377.685, 3800.78 376.965 Q 3800.08 376.245, 3798.84 376.245 Q 3797.98 376.245, 3797.12 376.605 Q 3796.28 376.945, 3795.68 377.545 Q 3795.76 379.885, 3796.5 380.945 Q 3797.24 382.005, 3798.74 382.005 " fill="#000000"/>
<path class="note" d="M 3639.98 81.1656 L 3643.08 81.1656 L 3643.08 70.5856 L 3639.66 71.6456 L 3639.2 70.4656 L 3643.54 68.5256 L 3644.96 68.7656 L 3644.96 81.1656 L 3647.74 81.1656 L 3647.74 82.7656 L 3639.98 82.7656 L 3639.98 81.1656 " fill="#000000"/>
<path class="note" d="M 3653.8 73.9056 Q 3655.04 73.9056, 3656.06 74.4456 Q 3657.08 74.9656, 3657.66 75.9656 Q 3658.24 76.9456, 3658.24 78.2856 Q 3658.24 79.7456, 3657.52 80.8056 Q 3656.82 81.8456, 3655.66 82.3856 Q 3654.5 82.9256, 3653.18 82.9256 Q 3651.88 82.9256, 3650.68 82.4456 Q 3649.48 81.9656, 3648.66 81.0456 L 3649.86 79.8056 Q 3650.52 80.5256, 3651.42 80.9256 Q 3652.32 81.3056, 3653.24 81.3056 Q 3654.5 81.3056, 3655.36 80.5256 Q 3656.24 79.7456, 3656.24 78.3256 Q 3656.24 76.8256, 3655.36 76.1256 Q 3654.5 75.4056, 3653.12 75.4056 Q 3651.88 75.4056, 3650.5 75.9456 L 3649.4 75.4256 L 3650.08 68.6056 L 3657.36 68.6056 L 3657.16 70.2056 L 3651.72 70.2056 L 3651.3 74.4056 Q 3652.56 73.9056, 3653.8 73.9056 " fill="#000000"/>
<path d="M 1217.47,336.055 L 1217.46,335.883 L 1217.44,335.712 L 1217.4,335.544 L 1217.35,335.38 L 1217.28,335.22 L 1217.21,335.067 L 1217.11,334.921 L 1217.01,334.784 L 1216.9,334.656 L 1216.77,334.538 L 1216.63,334.431 L 1216.49,334.337 L 1216.34,334.255 L 1216.18,334.187 L 1216.02,334.132 L 1215.85,334.092 L 1215.68,334.066 L 1215.51,334.055 L 1215.34,334.059 L 1215.17,334.077 L 1215,334.11 L 1214.83,334.158 L 1214.67,334.219 L 1214.52,334.295 L 1214.37,334.383 L 1214.23,334.483 L 1214.1,334.595 L 1213.98,334.718 L 1213.87,334.851 L 1213.77,334.993 L 1213.69,335.143 L 1213.61,335.299 L 1213.56,335.461 L 1213.51,335.628 L 1213.48,335.797 L 1213.47,335.969 L 1213.47,336.141 L 1213.48,336.312 L 1213.51,336.482 L 1213.56,336.648 L 1213.61,336.81 L 1213.69,336.966 L 1213.77,337.116 L 1213.87,337.258 L 1213.98,337.391 L 1214.1,337.514 L 1214.23,337.626 L 1214.37,337.726 L 1214.52,337.815 L 1214.67,337.89 L 1214.83,337.951 L 1215,337.999 L 1215.17,338.032 L 1215.34,338.05 L 1215.51,338.054 L 1215.68,338.043 L 1215.85,338.017 L 1216.02,337.977 L 1216.18,337.922 L 1216.34,337.854 L 1216.49,337.772 L 1216.63,337.678 L 1216.77,337.571 L 1216.9,337.453 L 1217.01,337.325 L 1217.11,337.188 L 1217.21,337.042 L 1217.28,336.889 L 1217.35,336.73 L 1217.4,336.565 L 1217.44,336.397 L 1217.46,336.227 L 1217.47,336.055 L 1215.47,336.055 Z" style="fill:#000000;fill-rule:evenodd;fill-opacity:1;stroke:#000000;stroke-width:0px;stroke-linecap:butt;stroke-linejoin:miter;stroke-opacity:1;"/>
<path d="M 1217.47,344.055 L 1217.46,343.883 L 1217.44,343.712 L 1217.4,343.544 L 1217.35,343.38 L 1217.28,343.22 L 1217.21,343.067 L 1217.11,342.921 L 1217.01,342.784 L 1216.9,342.656 L 1216.77,342.538 L 1216.63,342.431 L 1216.49,342.337 L 1216.34,342.255 L 1216.18,342.187 L 1216.02,342.132 L 1215.85,342.092 L 1215.68,342.066 L 1215.51,342.055 L 1215.34,342.059 L 1215.17,342.077 L 1215,342.11 L 1214.83,342.158 L 1214.67,342.219 L 1214.52,342.295 L 1214.37,342.383 L 1214.23,342.483 L 1214.1,342.595 L 1213.98,342.718 L 1213.87,342.851 L 1213.77,342.993 L 1213.69,343.143 L 1213.61,343.299 L 1213.56,343.461 L 1213.51,343.628 L 1213.48,343.797 L 1213.47,343.969 L 1213.47,344.141 L 1213.48,344.312 L 1213.51,344.482 L 1213.56,344.648 L 1213.61,344.81 L 1213.69,344.966 L 1213.77,345.116 L 1213.87,345.258 L 1213.98,345.391 L 1214.1,345.514 L 1214.23,345.626 L 1214.37,345.726 L 1214.52,345.815 L 1214.67,345.89 L 1214.83,345.951 L 1215,345.999 L 1215.17,346.032 L 1215.34,346.05 L 1215.51,346.054 L 1215.68,346.043 L 1215.85,346.017 L 1216.02,345.977 L 1216.18,345.922 L 1216.34,345.854 L 1216.49,345.772 L 1216.63,345.678 L 1216.77,345.571 L 1216.9,345.453 L 1217.01,345.325 L 1217.11,345.188 L 1217.21,345.042 L 1217.28,344.889 L 1217.35,344.73 L 1217.4,344.565 L 1217.44,344.397 L 1217.46,344.227 L 1217.47,344.055 L 1215.47,344.055 Z" style="fill:#000000;fill-rule:evenodd;fill-opacity:1;stroke:#000000;stroke-width:0px;stroke-linecap:butt;stroke-linejoin:miter;stroke-opacity:1;"/>
<path d="M 1530.45,336.055 L 1530.44,335.883 L 1530.42,335.712 L 1530.38,335.544 L 1530.33,335.38 L 1530.26,335.22 L 1530.18,335.067 L 1530.09,334.921 L 1529.99,334.784 L 1529.87,334.656 L 1529.75,334.538 L 1529.61,334.431 L 1529.47,334.337 L 1529.32,334.255 L 1529.16,334.187 L 1529,334.132 L 1528.83,334.092 L 1528.66,334.066 L 1528.49,334.055 L 1528.32,334.059 L 1528.15,334.077 L 1527.98,334.11 L 1527.81,334.158 L 1527.65,334.219 L 1527.5,334.295 L 1527.35,334.383 L 1527.21,334.483 L 1527.08,334.595 L 1526.96,334.718 L 1526.85,334.851 L 1526.75,334.993 L 1526.67,335.143 L 1526.59,335.299 L 1526.54,335.461 L 1526.49,335.628 L 1526.46,335.797 L 1526.45,335.969 L 1526.45,336.141 L 1526.46,336.312 L 1526.49,336.482 L 1526.54,336.648 L 1526.59,336.81 L 1526.67,336.966 L 1526.75,337.116 L 1526.85,337.258 L 1526.96,337.391 L 1527.08,337.514 L 1527.21,337.626 L 1527.35,337.726 L 1527.5,337.815 L 1527.65,337.89 L 1527.81,337.951 L 1527.98,337.999 L 1528.15,338.032 L 1528.32,338.05 L 1528.49,338.054 L 1528.66,338.043 L 1528.83,338.017 L 1529,337.977 L 1529.16,337.922 L 1529.32,337.854 L 1529.47,337.772 L 1529.61,337.678 L 1529.75,337.571 L 1529.87,337.453 L 1529.99,337.325 L 1530.09,337.188 L 1530.18,337.042 L 1530.26,336.889 L 1530.33,336.73 L 1530.38,336.565 L 1530.42,336.397 L 1530.44,336.227 L 1530.45,336.055 L 1528.45,336.055 Z" style="fill:#000000;fill-rule:evenodd;fill-opacity:1;stroke:#000000;stroke-width:0px;stroke-linecap:butt;stroke-linejoin:miter;stroke-opacity:1;"/>
<path d="M 1530.45,344.055 L 1530.44,343.883 L 1530.42,343.712 L 1530.38,343.544 L 1530.33,343.38 L 1530.26,343.22 L 1530.18,343.067 L 1530.09,342.921 L 1529.99,342.784 L 1529.87,342.656 L 1529.75,342.538 L 1529.61,342.431 L 1529.47,342.337 L 1529.32,342.255 L 1529.16,342.187 L 1529,342.132 L 1528.83,342.092 L 1528.66,342.066 L 1528.49,342.055 L 1528.32,342.059 L 1528.15,342.077 L 1527.98,342.11 L 1527.81,342.158 L 1527.65,342.219 L 1527.5,342.295 L 1527.35,342.383 L 1527.21,342.483 L 1527.08,342.595 L 1526.96,342.718 L 1526.85,342.851 L 1526.75,342.993 L 1526.67,343.143 L 1526.59,343.299 L 1526.54,343.461 L 1526.49,343.628 L 1526.46,343.797 L 1526.45,343.969 L 1526.45,344.141 L 1526.46,344.312 L 1526.49,344.482 L 1526.54,344.648 L 1526.59,344.81 L 1526.67,344.966 L 1526.75,345.116 L 1526.85,345.258 L 1526.96,345.391 L 1527.08,345.514 L 1527.21,345.626 L 1527.35,345.726 L 1527.5,345.815 L 1527.65,345.89 L 1527.81,345.951 L 1527.98,345.999 L 1528.15,346.032 L 1528.32,346.05 L 1528.49,346.054 L 1528.66,346.043 L 1528.83,346.017 L 1529,345.977 L 1529.16,345.922 L 1529.32,345.854 L 1529.47,345.772 L 1529.61,345.678 L 1529.75,345.571 L 1529.87,345.453 L 1529.99,345.325 L 1530.09,345.188 L 1530.18,345.042 L 1530.26,344.889 L 1530.33,344.73 L 1530.38,344.565 L 1530.42,344.397 L 1530.44,344.227 L 1530.45,344.055 L 1528.45,344.055 Z" style="fill:#000000;fill-rule:evenodd;fill-opacity:1;stroke:#000000;stroke-width:0px;stroke-linecap:butt;stroke-linejoin:miter;stroke-opacity:1;"/>
<path d="M 3797.47,348.062 L 3797.46,347.89 L 3797.44,347.719 L 3797.4,347.551 L 3797.35,347.387 L 3797.29,347.227 L 3797.21,347.074 L 3797.12,346.928 L 3797.01,346.791 L 3796.9,346.663 L 3796.77,346.545 L 3796.64,346.439 L 3796.5,346.344 L 3796.34,346.263 L 3796.19,346.194 L 3796.02,346.14 L 3795.86,346.099 L 3795.69,346.073 L 3795.51,346.062 L 3795.34,346.066 L 3795.17,346.084 L 3795,346.118 L 3794.84,346.165 L 3794.68,346.227 L 3794.52,346.302 L 3794.37,346.39 L 3794.23,346.491 L 3794.1,346.603 L 3793.98,346.726 L 3793.87,346.859 L 3793.78,347 L 3793.69,347.15 L 3793.62,347.306 L 3793.56,347.468 L 3793.52,347.635 L 3793.49,347.804 L 3793.47,347.976 L 3793.47,348.148 L 3793.49,348.319 L 3793.52,348.489 L 3793.56,348.655 L 3793.62,348.817 L 3793.69,348.974 L 3793.78,349.123 L 3793.87,349.265 L 3793.98,349.398 L 3794.1,349.521 L 3794.23,349.633 L 3794.37,349.734 L 3794.52,349.822 L 3794.68,349.897 L 3794.84,349.959 L 3795,350.006 L 3795.17,350.039 L 3795.34,350.058 L 3795.51,350.061 L 3795.69,350.05 L 3795.86,350.024 L 3796.02,349.984 L 3796.19,349.93 L 3796.34,349.861 L 3796.5,349.779 L 3796.64,349.685 L 3796.77,349.578 L 3796.9,349.461 L 3797.01,349.333 L 3797.12,349.195 L 3797.21,349.049 L 3797.29,348.896 L 3797.35,348.737 L 3797.4,348.573 L 3797.44,348.404 L 3797.46,348.234 L 3797.47,348.062 L 3795.47,348.062 Z" style="fill:#000000;fill-rule:evenodd;fill-opacity:1;stroke:#000000;stroke-width:0px;stroke-linecap:butt;stroke-linejoin:miter;stroke-opacity:1;"/>
<path d="M 3797.47,356.062 L 3797.46,355.89 L 3797.44,355.719 L 3797.4,355.551 L 3797.35,355.387 L 3797.29,355.227 L 3797.21,355.074 L 3797.12,354.928 L 3797.01,354.791 L 3796.9,354.663 L 3796.77,354.545 L 3796.64,354.439 L 3796.5,354.344 L 3796.34,354.263 L 3796.19,354.194 L 3796.02,354.14 L 3795.86,354.099 L 3795.69,354.073 L 3795.51,354.062 L 3795.34,354.066 L 3795.17,354.084 L 3795,354.118 L 3794.84,354.165 L 3794.68,354.227 L 3794.52,354.302 L 3794.37,354.39 L 3794.23,354.491 L 3794.1,354.603 L 3793.98,354.726 L 3793.87,354.859 L 3793.78,355 L 3793.69,355.15 L 3793.62,355.306 L 3793.56,355.468 L 3793.52,355.635 L 3793.49,355.804 L 3793.47,355.976 L 3793.47,356.148 L 3793.49,356.319 L 3793.52,356.489 L 3793.56,356.655 L 3793.62,356.817 L 3793.69,356.974 L 3793.78,357.123 L 3793.87,357.265 L 3793.98,357.398 L 3794.1,357.521 L 3794.23,357.633 L 3794.37,357.734 L 3794.52,357.822 L 3794.68,357.897 L 3794.84,357.959 L 3795,358.006 L 3795.17,358.039 L 3795.34,358.058 L 3795.51,358.061 L 3795.69,358.05 L 3795.86,358.024 L 3796.02,357.984 L 3796.19,357.93 L 3796.34,357.861 L 3796.5,357.779 L 3796.64,357.685 L 3796.77,357.578 L 3796.9,357.461 L 3797.01,357.333 L 3797.12,357.195 L 3797.21,357.049 L 3797.29,356.896 L 3797.35,356.737 L 3797.4,356.573 L 3797.44,356.404 L 3797.46,356.234 L 3797.47,356.062 L 3795.47,356.062 Z" style="fill:#000000;fill-rule:evenodd;fill-opacity:1;stroke:#000000;stroke-width:0px;stroke-linecap:butt;stroke-linejoin:miter;stroke-opacity:1;"/>
<path d="M 3651.89,95.909 L 3651.88,95.7371 L 3651.86,95.5665 L 3651.82,95.3983 L 3651.77,95.234 L 3651.71,95.0747 L 3651.63,94.9215 L 3651.54,94.7756 L 3651.43,94.6382 L 3651.32,94.5101 L 3651.19,94.3924 L 3651.06,94.286 L 3650.91,94.1915 L 3650.76,94.1098 L 3650.61,94.0414 L 3650.44,93.9868 L 3650.27,93.9464 L 3650.1,93.9206 L 3649.93,93.9095 L 3649.76,93.9132 L 3649.59,93.9317 L 3649.42,93.9648 L 3649.26,94.0123 L 3649.09,94.0739 L 3648.94,94.149 L 3648.79,94.2372 L 3648.65,94.3377 L 3648.52,94.4499 L 3648.4,94.5729 L 3648.29,94.7058 L 3648.19,94.8476 L 3648.11,94.9972 L 3648.04,95.1536 L 3647.98,95.3156 L 3647.94,95.482 L 3647.91,95.6515 L 3647.89,95.823 L 3647.89,95.9951 L 3647.91,96.1665 L 3647.94,96.3361 L 3647.98,96.5025 L 3648.04,96.6645 L 3648.11,96.8209 L 3648.19,96.9705 L 3648.29,97.1123 L 3648.4,97.2452 L 3648.52,97.3682 L 3648.65,97.4803 L 3648.79,97.5809 L 3648.94,97.6691 L 3649.09,97.7442 L 3649.26,97.8058 L 3649.42,97.8533 L 3649.59,97.8864 L 3649.76,97.9049 L 3649.93,97.9086 L 3650.1,97.8975 L 3650.27,97.8717 L 3650.44,97.8313 L 3650.61,97.7767 L 3650.76,97.7083 L 3650.91,97.6266 L 3651.06,97.5321 L 3651.19,97.4257 L 3651.32,97.308 L 3651.43,97.1799 L 3651.54,97.0424 L 3651.63,96.8966 L 3651.71,96.7434 L 3651.77,96.5841 L 3651.82,96.4198 L 3651.86,96.2516 L 3651.88,96.081 L 3651.89,95.909 L 3649.89,95.909 Z" style="fill:#000000;fill-rule:evenodd;fill-opacity:1;stroke:#000000;stroke-width:0px;stroke-linecap:butt;stroke-linejoin:miter;stroke-opacity:1;"/>
<path d="M 3651.89,103.909 L 3651.88,103.737 L 3651.86,103.566 L 3651.82,103.398 L 3651.77,103.234 L 3651.71,103.075 L 3651.63,102.921 L 3651.54,102.776 L 3651.43,102.638 L 3651.32,102.51 L 3651.19,102.392 L 3651.06,102.286 L 3650.91,102.192 L 3650.76,102.11 L 3650.61,102.041 L 3650.44,101.987 L 3650.27,101.946 L 3650.1,101.921 L 3649.93,101.91 L 3649.76,101.913 L 3649.59,101.932 L 3649.42,101.965 L 3649.26,102.012 L 3649.09,102.074 L 3648.94,102.149 L 3648.79,102.237 L 3648.65,102.338 L 3648.52,102.45 L 3648.4,102.573 L 3648.29,102.706 L 3648.19,102.848 L 3648.11,102.997 L 3648.04,103.154 L 3647.98,103.316 L 3647.94,103.482 L 3647.91,103.652 L 3647.89,103.823 L 3647.89,103.995 L 3647.91,104.167 L 3647.94,104.336 L 3647.98,104.502 L 3648.04,104.664 L 3648.11,104.821 L 3648.19,104.971 L 3648.29,105.112 L 3648.4,105.245 L 3648.52,105.368 L 3648.65,105.48 L 3648.79,105.581 L 3648.94,105.669 L 3649.09,105.744 L 3649.26,105.806 L 3649.42,105.853 L 3649.59,105.886 L 3649.76,105.905 L 3649.93,105.909 L 3650.1,105.897 L 3650.27,105.872 L 3650.44,105.831 L 3650.61,105.777 L 3650.76,105.708 L 3650.91,105.627 L 3651.06,105.532 L 3651.19,105.426 L 3651.32,105.308 L 3651.43,105.18 L 3651.54,105.042 L 3651.63,104.897 L 3651.71,104.743 L 3651.77,104.584 L 3651.82,104.42 L 3651.86,104.252 L 3651.88,104.081 L 3651.89,103.909 L 3649.89,103.909 Z" style="fill:#000000;fill-rule:evenodd;fill-opacity:1;stroke:#000000;stroke-width:0px;stroke-linecap:butt;stroke-linejoin:miter;stroke-opacity:1;"/>
<path d="M 1020.77 242.065 L 1026.82 242.065 L 1026.82 235.697 L 1029.5 235.697 L 1029.5 242.065 L 1035.71 242.065 L 1035.71 244.369 L 1029.5 244.369 L 1029.5 250.769 L 1026.82 250.769 L 1026.82 244.369 L 1020.77 244.369 L 1020.77 242.065 " fill="#000000"/>
<path d="M 3001.88 242.065 L 3007.92 242.065 L 3007.92 235.697 L 3010.61 235.697 L 3010.61 242.065 L 3016.82 242.065 L 3016.82 244.369 L 3010.61 244.369 L 3010.61 250.769 L 3007.92 250.769 L 3007.92 244.369 L 3001.88 244.369 L 3001.88 242.065 " fill="#000000"/>
<path d="M 1745.73,244.369 L 2194,244.369" style="fill:none;fill-rule:evenodd;stroke:#000000;stroke-width:2.0px;stroke-linecap:butt;stroke-linejoin:miter;stroke-opacity:1"/>
<path d="M 2194,244.369 L 2174.59,233.162" style="fill:none;fill-rule:evenodd;stroke:#000000;stroke-width:2.0px;stroke-linecap:butt;stroke-linejoin:miter;stroke-opacity:1"/>
<path d="M 2194,244.369 L 2174.59,255.575" style="fill:none;fill-rule:evenodd;stroke:#000000;stroke-width:2.0px;stroke-linecap:butt;stroke-linejoin:miter;stroke-opacity:1"/>
</svg>