<svg xmlns="http://www.w3.org/2000/svg" xmlns:rdkit="http://www.rdkit.org/xml" xmlns:xlink="http://www.w3.org/1999/xlink" version="1.1" baseProfile="full" xml:space="preserve" width="4000px" height="500px" viewBox="0 0 4000 500">
<!-- END OF HEADER -->
<rect style="opacity:1.0;fill:#FFFFFF;stroke:none" width="4000" height="500" x="0" y="0"> </rect>
<path d="M 215.498,159.787 L 361.334,243.986" style="fill:none;fill-rule:evenodd;stroke:#FFFFAA;stroke-width:35.9px;stroke-linecap:butt;stroke-linejoin:miter;stroke-opacity:1"/>
<path d="M 361.334,243.986 L 361.334,412.383" style="fill:none;fill-rule:evenodd;stroke:#FFFFAA;stroke-width:35.9px;stroke-linecap:butt;stroke-linejoin:miter;stroke-opacity:1"/>
<path d="M 361.334,243.986 L 507.171,159.787" style="fill:none;fill-rule:evenodd;stroke:#FFFFAA;stroke-width:35.9px;stroke-linecap:butt;stroke-linejoin:miter;stroke-opacity:1"/>
<path d="M 507.171,159.787 L 653.008,243.986" style="fill:none;fill-rule:evenodd;stroke:#FFFFAA;stroke-width:35.9px;stroke-linecap:butt;stroke-linejoin:miter;stroke-opacity:1"/>
<path d="M 653.008,243.986 L 798.844,159.787" style="fill:none;fill-rule:evenodd;stroke:#FFFFAA;stroke-width:35.9px;stroke-linecap:butt;stroke-linejoin:miter;stroke-opacity:1"/>
<path d="M 653.008,243.986 L 653.008,412.383" style="fill:none;fill-rule:evenodd;stroke:#FFFFAA;stroke-width:35.9px;stroke-linecap:butt;stroke-linejoin:miter;stroke-opacity:1"/>
<path d="M 1371.89,87.6165 L 1371.89,256.014" style="fill:none;fill-rule:evenodd;stroke:#FFCC99;stroke-width:35.9px;stroke-linecap:butt;stroke-linejoin:miter;stroke-opacity:1"/>
<path d="M 1371.89,256.014 L 1226.06,340.213" style="fill:none;fill-rule:evenodd;stroke:#FFCC99;stroke-width:35.9px;stroke-linecap:butt;stroke-linejoin:miter;stroke-opacity:1"/>
<path d="M 1371.89,256.014 L 1517.73,340.213" style="fill:none;fill-rule:evenodd;stroke:#FFCC99;stroke-width:35.9px;stroke-linecap:butt;stroke-linejoin:miter;stroke-opacity:1"/>
<path d="M 2477.28,340.213 L 2623.12,256.014" style="fill:none;fill-rule:evenodd;stroke:#FFFFAA;stroke-width:35.9px;stroke-linecap:butt;stroke-linejoin:miter;stroke-opacity:1"/>
<path d="M 2623.12,256.014 L 2768.96,340.213" style="fill:none;fill-rule:evenodd;stroke:#FFFFAA;stroke-width:35.9px;stroke-linecap:butt;stroke-linejoin:miter;stroke-opacity:1"/>
<path d="M 2623.12,256.014 L 2623.12,87.6165" style="fill:none;fill-rule:evenodd;stroke:#FFFFAA;stroke-width:35.9px;stroke-linecap:butt;stroke-linejoin:miter;stroke-opacity:1"/>
<path d="M 3201.16,352.241 L 3346.99,268.043" style="fill:none;fill-rule:evenodd;stroke:#FFFFAA;stroke-width:35.9px;stroke-linecap:butt;stroke-linejoin:miter;stroke-opacity:1"/>
<path d="M 3346.99,268.043 L 3346.99,99.6449" style="fill:none;fill-rule:evenodd;stroke:#FFFFAA;stroke-width:35.9px;stroke-linecap:butt;stroke-linejoin:miter;stroke-opacity:1"/>
<path d="M 3492.83,352.241 L 3638.67,268.043" style="fill:none;fill-rule:evenodd;stroke:#FFCC99;stroke-width:35.9px;stroke-linecap:butt;stroke-linejoin:miter;stroke-opacity:1"/>
<path d="M 3638.67,268.043 L 3784.5,352.241" style="fill:none;fill-rule:evenodd;stroke:#FFCC99;stroke-width:35.9px;stroke-linecap:butt;stroke-linejoin:miter;stroke-opacity:1"/>
<path d="M 3638.67,268.043 L 3638.67,99.6449" style="fill:none;fill-rule:evenodd;stroke:#FFCC99;stroke-width:35.9px;stroke-linecap:butt;stroke-linejoin:miter;stroke-opacity:1"/>
<ellipse cx="215.498" cy="159.787" rx="33.6795" ry="33.6795" style="fill:#FFFFAA;fill-rule:evenodd;stroke:#FFFFAA;stroke-width:1px;stroke-linecap:butt;stroke-linejoin:miter;stroke-opacity:1"/>
<ellipse cx="361.334" cy="243.986" rx="33.6795" ry="33.6795" style="fill:#FFFFAA;fill-rule:evenodd;stroke:#FFFFAA;stroke-width:1px;stroke-linecap:butt;stroke-linejoin:miter;stroke-opacity:1"/>
<ellipse cx="361.334" cy="412.603" rx="33.6795" ry="33.6795" style="fill:#FFFFAA;fill-rule:evenodd;stroke:#FFFFAA;stroke-width:1px;stroke-linecap:butt;stroke-linejoin:miter;stroke-opacity:1"/>
<ellipse cx="507.171" cy="160.007" rx="33.6795" ry="33.6795" style="fill:#FFFFAA;fill-rule:evenodd;stroke:#FFFFAA;stroke-width:1px;stroke-linecap:butt;stroke-linejoin:miter;stroke-opacity:1"/>
<ellipse cx="653.008" cy="243.986" rx="33.6795" ry="33.6795" style="fill:#FFFFAA;fill-rule:evenodd;stroke:#FFFFAA;stroke-width:1px;stroke-linecap:butt;stroke-linejoin:miter;stroke-opacity:1"/>
<ellipse cx="798.844" cy="159.787" rx="33.6795" ry="33.6795" style="fill:#FFFFAA;fill-rule:evenodd;stroke:#FFFFAA;stroke-width:1px;stroke-linecap:butt;stroke-linejoin:miter;stroke-opacity:1"/>
<ellipse cx="653.008" cy="412.603" rx="33.6795" ry="33.6795" style="fill:#FFFFAA;fill-rule:evenodd;stroke:#FFFFAA;stroke-width:1px;stroke-linecap:butt;stroke-linejoin:miter;stroke-opacity:1"/>
<ellipse cx="1391.63" cy="94.6965" rx="43.1001" ry="33.6795" style="fill:#FFCC99;fill-rule:evenodd;stroke:#FFCC99;stroke-width:1px;stroke-linecap:butt;stroke-linejoin:miter;stroke-opacity:1"/>
<ellipse cx="1371.89" cy="256.014" rx="33.6795" ry="33.6795" style="fill:#FFCC99;fill-rule:evenodd;stroke:#FFCC99;stroke-width:1px;stroke-linecap:butt;stroke-linejoin:miter;stroke-opacity:1"/>
<ellipse cx="1226.06" cy="340.213" rx="33.6795" ry="33.6795" style="fill:#FFCC99;fill-rule:evenodd;stroke:#FFCC99;stroke-width:1px;stroke-linecap:butt;stroke-linejoin:miter;stroke-opacity:1"/>
<ellipse cx="1517.73" cy="340.213" rx="33.6795" ry="33.6795" style="fill:#FFCC99;fill-rule:evenodd;stroke:#FFCC99;stroke-width:1px;stroke-linecap:butt;stroke-linejoin:miter;stroke-opacity:1"/>
<ellipse cx="2477.28" cy="340.213" rx="33.6795" ry="33.6795" style="fill:#FFFFAA;fill-rule:evenodd;stroke:#FFFFAA;stroke-width:1px;stroke-linecap:butt;stroke-linejoin:miter;stroke-opacity:1"/>
<ellipse cx="2623.12" cy="256.014" rx="33.6795" ry="33.6795" style="fill:#FFFFAA;fill-rule:evenodd;stroke:#FFFFAA;stroke-width:1px;stroke-linecap:butt;stroke-linejoin:miter;stroke-opacity:1"/>
<ellipse cx="2768.96" cy="340.433" rx="33.6795" ry="33.6795" style="fill:#FFFFAA;fill-rule:evenodd;stroke:#FFFFAA;stroke-width:1px;stroke-linecap:butt;stroke-linejoin:miter;stroke-opacity:1"/>
<ellipse cx="2635.9" cy="87.8365" rx="36.4584" ry="33.6795" style="fill:#FFFFAA;fill-rule:evenodd;stroke:#FFFFAA;stroke-width:1px;stroke-linecap:butt;stroke-linejoin:miter;stroke-opacity:1"/>
<ellipse cx="3201.16" cy="352.241" rx="33.6795" ry="33.6795" style="fill:#FFFFAA;fill-rule:evenodd;stroke:#FFFFAA;stroke-width:1px;stroke-linecap:butt;stroke-linejoin:miter;stroke-opacity:1"/>
<ellipse cx="3346.99" cy="268.043" rx="33.6795" ry="33.6795" style="fill:#FFFFAA;fill-rule:evenodd;stroke:#FFFFAA;stroke-width:1px;stroke-linecap:butt;stroke-linejoin:miter;stroke-opacity:1"/>
<ellipse cx="3346.99" cy="99.8649" rx="33.6795" ry="33.6795" style="fill:#FFFFAA;fill-rule:evenodd;stroke:#FFFFAA;stroke-width:1px;stroke-linecap:butt;stroke-linejoin:miter;stroke-opacity:1"/>
<ellipse cx="3492.83" cy="367.817" rx="33.6795" ry="42.0531" style="fill:#FFCC99;fill-rule:evenodd;stroke:#FFCC99;stroke-width:1px;stroke-linecap:butt;stroke-linejoin:miter;stroke-opacity:1"/>
<ellipse cx="3638.67" cy="268.043" rx="33.6795" ry="33.6795" style="fill:#FFCC99;fill-rule:evenodd;stroke:#FFCC99;stroke-width:1px;stroke-linecap:butt;stroke-linejoin:miter;stroke-opacity:1"/>
<ellipse cx="3784.5" cy="352.241" rx="33.6795" ry="33.6795" style="fill:#FFCC99;fill-rule:evenodd;stroke:#FFCC99;stroke-width:1px;stroke-linecap:butt;stroke-linejoin:miter;stroke-opacity:1"/>
<ellipse cx="3638.67" cy="99.6449" rx="33.6795" ry="33.6795" style="fill:#FFCC99;fill-rule:evenodd;stroke:#FFCC99;stroke-width:1px;stroke-linecap:butt;stroke-linejoin:miter;stroke-opacity:1"/>
<path class="bond-0" d="M 215.498,159.787 L 361.334,243.986" style="fill:none;fill-rule:evenodd;stroke:#000000;stroke-width:2.0px;stroke-linecap:butt;stroke-linejoin:miter;stroke-opacity:1"/>
<path class="bond-1" d="M 344.495,243.986 L 344.495,318.92" style="fill:none;fill-rule:evenodd;stroke:#000000;stroke-width:2.0px;stroke-linecap:butt;stroke-linejoin:miter;stroke-opacity:1"/>
<path class="bond-1" d="M 344.495,318.92 L 344.495,393.854" style="fill:none;fill-rule:evenodd;stroke:#FF0000;stroke-width:2.0px;stroke-linecap:butt;stroke-linejoin:miter;stroke-opacity:1"/>
<path class="bond-1" d="M 378.174,243.986 L 378.174,318.92" style="fill:none;fill-rule:evenodd;stroke:#000000;stroke-width:2.0px;stroke-linecap:butt;stroke-linejoin:miter;stroke-opacity:1"/>
<path class="bond-1" d="M 378.174,318.92 L 378.174,393.854" style="fill:none;fill-rule:evenodd;stroke:#FF0000;stroke-width:2.0px;stroke-linecap:butt;stroke-linejoin:miter;stroke-opacity:1"/>
<path class="bond-2" d="M 361.334,243.986 L 425.648,206.854" style="fill:none;fill-rule:evenodd;stroke:#000000;stroke-width:2.0px;stroke-linecap:butt;stroke-linejoin:miter;stroke-opacity:1"/>
<path class="bond-2" d="M 425.648,206.854 L 489.961,169.723" style="fill:none;fill-rule:evenodd;stroke:#FF0000;stroke-width:2.0px;stroke-linecap:butt;stroke-linejoin:miter;stroke-opacity:1"/>
<path class="bond-3" d="M 524.381,169.723 L 588.694,206.854" style="fill:none;fill-rule:evenodd;stroke:#FF0000;stroke-width:2.0px;stroke-linecap:butt;stroke-linejoin:miter;stroke-opacity:1"/>
<path class="bond-3" d="M 588.694,206.854 L 653.008,243.986" style="fill:none;fill-rule:evenodd;stroke:#000000;stroke-width:2.0px;stroke-linecap:butt;stroke-linejoin:miter;stroke-opacity:1"/>
<path class="bond-4" d="M 653.008,243.986 L 798.844,159.787" style="fill:none;fill-rule:evenodd;stroke:#000000;stroke-width:2.0px;stroke-linecap:butt;stroke-linejoin:miter;stroke-opacity:1"/>
<path class="bond-5" d="M 636.168,243.986 L 636.168,318.92" style="fill:none;fill-rule:evenodd;stroke:#000000;stroke-width:2.0px;stroke-linecap:butt;stroke-linejoin:miter;stroke-opacity:1"/>
<path class="bond-5" d="M 636.168,318.92 L 636.168,393.854" style="fill:none;fill-rule:evenodd;stroke:#FF0000;stroke-width:2.0px;stroke-linecap:butt;stroke-linejoin:miter;stroke-opacity:1"/>
<path class="bond-5" d="M 669.848,243.986 L 669.848,318.92" style="fill:none;fill-rule:evenodd;stroke:#000000;stroke-width:2.0px;stroke-linecap:butt;stroke-linejoin:miter;stroke-opacity:1"/>
<path class="bond-5" d="M 669.848,318.92 L 669.848,393.854" style="fill:none;fill-rule:evenodd;stroke:#FF0000;stroke-width:2.0px;stroke-linecap:butt;stroke-linejoin:miter;stroke-opacity:1"/>
<path class="bond-6" d="M 1371.89,105.986 L 1371.89,181" style="fill:none;fill-rule:evenodd;stroke:#0000FF;stroke-width:2.0px;stroke-linecap:butt;stroke-linejoin:miter;stroke-opacity:1"/>
<path class="bond-6" d="M 1371.89,181 L 1371.89,256.014" style="fill:none;fill-rule:evenodd;stroke:#000000;stroke-width:2.0px;stroke-linecap:butt;stroke-linejoin:miter;stroke-opacity:1"/>
<path class="bond-7" d="M 1363.47,241.431 L 1217.64,325.629" style="fill:none;fill-rule:evenodd;stroke:#000000;stroke-width:2.0px;stroke-linecap:butt;stroke-linejoin:miter;stroke-opacity:1"/>
<path class="bond-7" d="M 1380.31,270.598 L 1234.48,354.797" style="fill:none;fill-rule:evenodd;stroke:#000000;stroke-width:2.0px;stroke-linecap:butt;stroke-linejoin:miter;stroke-opacity:1;stroke-dasharray:6,6"/>
<path class="bond-8" d="M 1363.47,270.598 L 1509.31,354.797" style="fill:none;fill-rule:evenodd;stroke:#000000;stroke-width:2.0px;stroke-linecap:butt;stroke-linejoin:miter;stroke-opacity:1"/>
<path class="bond-8" d="M 1380.31,241.431 L 1526.15,325.629" style="fill:none;fill-rule:evenodd;stroke:#000000;stroke-width:2.0px;stroke-linecap:butt;stroke-linejoin:miter;stroke-opacity:1;stroke-dasharray:6,6"/>
<path class="bond-9" d="M 2477.28,340.213 L 2623.12,256.014" style="fill:none;fill-rule:evenodd;stroke:#000000;stroke-width:2.0px;stroke-linecap:butt;stroke-linejoin:miter;stroke-opacity:1"/>
<path class="bond-10" d="M 2614.7,270.598 L 2679.01,307.729" style="fill:none;fill-rule:evenodd;stroke:#000000;stroke-width:2.0px;stroke-linecap:butt;stroke-linejoin:miter;stroke-opacity:1"/>
<path class="bond-10" d="M 2679.01,307.729 L 2743.33,344.861" style="fill:none;fill-rule:evenodd;stroke:#FF0000;stroke-width:2.0px;stroke-linecap:butt;stroke-linejoin:miter;stroke-opacity:1"/>
<path class="bond-10" d="M 2631.54,241.431 L 2695.85,278.562" style="fill:none;fill-rule:evenodd;stroke:#000000;stroke-width:2.0px;stroke-linecap:butt;stroke-linejoin:miter;stroke-opacity:1"/>
<path class="bond-10" d="M 2695.85,278.562 L 2760.17,315.693" style="fill:none;fill-rule:evenodd;stroke:#FF0000;stroke-width:2.0px;stroke-linecap:butt;stroke-linejoin:miter;stroke-opacity:1"/>
<path class="bond-11" d="M 2623.12,256.014 L 2623.12,181.3" style="fill:none;fill-rule:evenodd;stroke:#000000;stroke-width:2.0px;stroke-linecap:butt;stroke-linejoin:miter;stroke-opacity:1"/>
<path class="bond-11" d="M 2623.12,181.3 L 2623.12,106.586" style="fill:none;fill-rule:evenodd;stroke:#FF0000;stroke-width:2.0px;stroke-linecap:butt;stroke-linejoin:miter;stroke-opacity:1"/>
<path class="bond-12" d="M 3201.16,352.241 L 3346.99,268.043" style="fill:none;fill-rule:evenodd;stroke:#000000;stroke-width:2.0px;stroke-linecap:butt;stroke-linejoin:miter;stroke-opacity:1"/>
<path class="bond-13" d="M 3363.83,268.043 L 3363.83,193.329" style="fill:none;fill-rule:evenodd;stroke:#000000;stroke-width:2.0px;stroke-linecap:butt;stroke-linejoin:miter;stroke-opacity:1"/>
<path class="bond-13" d="M 3363.83,193.329 L 3363.83,118.615" style="fill:none;fill-rule:evenodd;stroke:#FF0000;stroke-width:2.0px;stroke-linecap:butt;stroke-linejoin:miter;stroke-opacity:1"/>
<path class="bond-13" d="M 3330.15,268.043 L 3330.15,193.329" style="fill:none;fill-rule:evenodd;stroke:#000000;stroke-width:2.0px;stroke-linecap:butt;stroke-linejoin:miter;stroke-opacity:1"/>
<path class="bond-13" d="M 3330.15,193.329 L 3330.15,118.615" style="fill:none;fill-rule:evenodd;stroke:#FF0000;stroke-width:2.0px;stroke-linecap:butt;stroke-linejoin:miter;stroke-opacity:1"/>
<path class="bond-14" d="M 3346.99,268.043 L 3412.44,305.826" style="fill:none;fill-rule:evenodd;stroke:#000000;stroke-width:2.0px;stroke-linecap:butt;stroke-linejoin:miter;stroke-opacity:1"/>
<path class="bond-14" d="M 3412.44,305.826 L 3477.88,343.61" style="fill:none;fill-rule:evenodd;stroke:#0000FF;stroke-width:2.0px;stroke-linecap:butt;stroke-linejoin:miter;stroke-opacity:1"/>
<path class="bond-15" d="M 3507.78,343.61 L 3573.22,305.826" style="fill:none;fill-rule:evenodd;stroke:#0000FF;stroke-width:2.0px;stroke-linecap:butt;stroke-linejoin:miter;stroke-opacity:1"/>
<path class="bond-15" d="M 3573.22,305.826 L 3638.67,268.043" style="fill:none;fill-rule:evenodd;stroke:#000000;stroke-width:2.0px;stroke-linecap:butt;stroke-linejoin:miter;stroke-opacity:1"/>
<path class="bond-16" d="M 3630.25,282.626 L 3776.08,366.825" style="fill:none;fill-rule:evenodd;stroke:#000000;stroke-width:2.0px;stroke-linecap:butt;stroke-linejoin:miter;stroke-opacity:1"/>
<path class="bond-16" d="M 3647.09,253.459 L 3792.92,337.658" style="fill:none;fill-rule:evenodd;stroke:#000000;stroke-width:2.0px;stroke-linecap:butt;stroke-linejoin:miter;stroke-opacity:1;stroke-dasharray:6,6"/>
<path class="bond-17" d="M 3655.51,268.043 L 3655.51,99.6449" style="fill:none;fill-rule:evenodd;stroke:#000000;stroke-width:2.0px;stroke-linecap:butt;stroke-linejoin:miter;stroke-opacity:1"/>
<path class="bond-17" d="M 3621.83,268.043 L 3621.83,99.6449" style="fill:none;fill-rule:evenodd;stroke:#000000;stroke-width:2.0px;stroke-linecap:butt;stroke-linejoin:miter;stroke-opacity:1;stroke-dasharray:6,6"/>
<path class="atom-2" d="M 348.334 412.463 Q 348.334 405.663, 351.694 401.863 Q 355.054 398.063, 361.334 398.063 Q 367.614 398.063, 370.974 401.863 Q 374.334 405.663, 374.334 412.463 Q 374.334 419.343, 370.934 423.263 Q 367.534 427.143, 361.334 427.143 Q 355.094 427.143, 351.694 423.263 Q 348.334 419.383, 348.334 412.463 M 361.334 423.943 Q 365.654 423.943, 367.974 421.063 Q 370.334 418.143, 370.334 412.463 Q 370.334 406.903, 367.974 404.103 Q 365.654 401.263, 361.334 401.263 Q 357.014 401.263, 354.654 404.063 Q 352.334 406.863, 352.334 412.463 Q 352.334 418.183, 354.654 421.063 Q 357.014 423.943, 361.334 423.943 " fill="#FF0000"/>
<path class="atom-3" d="M 494.171 159.867 Q 494.171 153.067, 497.531 149.267 Q 500.891 145.467, 507.171 145.467 Q 513.451 145.467, 516.811 149.267 Q 520.171 153.067, 520.171 159.867 Q 520.171 166.747, 516.771 170.667 Q 513.371 174.547, 507.171 174.547 Q 500.931 174.547, 497.531 170.667 Q 494.171 166.787, 494.171 159.867 M 507.171 171.347 Q 511.491 171.347, 513.811 168.467 Q 516.171 165.547, 516.171 159.867 Q 516.171 154.307, 513.811 151.507 Q 511.491 148.667, 507.171 148.667 Q 502.851 148.667, 500.491 151.467 Q 498.171 154.267, 498.171 159.867 Q 498.171 165.587, 500.491 168.467 Q 502.851 171.347, 507.171 171.347 " fill="#FF0000"/>
<path class="atom-6" d="M 640.008 412.463 Q 640.008 405.663, 643.368 401.863 Q 646.728 398.063, 653.008 398.063 Q 659.288 398.063, 662.648 401.863 Q 666.008 405.663, 666.008 412.463 Q 666.008 419.343, 662.608 423.263 Q 659.208 427.143, 653.008 427.143 Q 646.768 427.143, 643.368 423.263 Q 640.008 419.383, 640.008 412.463 M 653.008 423.943 Q 657.328 423.943, 659.648 421.063 Q 662.008 418.143, 662.008 412.463 Q 662.008 406.903, 659.648 404.103 Q 657.328 401.263, 653.008 401.263 Q 648.688 401.263, 646.328 404.063 Q 644.008 406.863, 644.008 412.463 Q 644.008 418.183, 646.328 421.063 Q 648.688 423.943, 653.008 423.943 " fill="#FF0000"/>
<path class="atom-7" d="M 1365.63 73.4565 L 1374.91 88.4565 Q 1375.83 89.9365, 1377.31 92.6165 Q 1378.79 95.2965, 1378.87 95.4565 L 1378.87 73.4565 L 1382.63 73.4565 L 1382.63 101.777 L 1378.75 101.777 L 1368.79 85.3765 Q 1367.63 83.4565, 1366.39 81.2565 Q 1365.19 79.0565, 1364.83 78.3765 L 1364.83 101.777 L 1361.15 101.777 L 1361.15 73.4565 L 1365.63 73.4565 " fill="#0000FF"/>
<path class="atom-7" d="M 1386.03 73.4565 L 1389.87 73.4565 L 1389.87 85.4965 L 1404.35 85.4965 L 1404.35 73.4565 L 1408.19 73.4565 L 1408.19 101.777 L 1404.35 101.777 L 1404.35 88.6965 L 1389.87 88.6965 L 1389.87 101.777 L 1386.03 101.777 L 1386.03 73.4565 " fill="#0000FF"/>
<path class="atom-7" d="M 1409.57 100.783 Q 1410.25 99.0141, 1411.89 98.0373 Q 1413.53 97.0341, 1415.8 97.0341 Q 1418.62 97.0341, 1420.21 98.5653 Q 1421.79 100.097, 1421.79 102.816 Q 1421.79 105.588, 1419.73 108.175 Q 1417.7 110.762, 1413.47 113.825 L 1422.11 113.825 L 1422.11 115.937 L 1409.51 115.937 L 1409.51 114.168 Q 1413 111.686, 1415.06 109.838 Q 1417.14 107.99, 1418.15 106.327 Q 1419.15 104.664, 1419.15 102.948 Q 1419.15 101.153, 1418.25 100.149 Q 1417.36 99.1461, 1415.8 99.1461 Q 1414.29 99.1461, 1413.29 99.7533 Q 1412.29 100.361, 1411.57 101.707 L 1409.57 100.783 " fill="#0000FF"/>
<path class="atom-13" d="M 2755.96 340.293 Q 2755.96 333.493, 2759.32 329.693 Q 2762.68 325.893, 2768.96 325.893 Q 2775.24 325.893, 2778.6 329.693 Q 2781.96 333.493, 2781.96 340.293 Q 2781.96 347.173, 2778.56 351.093 Q 2775.16 354.973, 2768.96 354.973 Q 2762.72 354.973, 2759.32 351.093 Q 2755.96 347.213, 2755.96 340.293 M 2768.96 351.773 Q 2773.28 351.773, 2775.6 348.893 Q 2777.96 345.973, 2777.96 340.293 Q 2777.96 334.733, 2775.6 331.933 Q 2773.28 329.093, 2768.96 329.093 Q 2764.64 329.093, 2762.28 331.893 Q 2759.96 334.693, 2759.96 340.293 Q 2759.96 346.013, 2762.28 348.893 Q 2764.64 351.773, 2768.96 351.773 " fill="#FF0000"/>
<path class="atom-14" d="M 2610.12 87.6965 Q 2610.12 80.8965, 2613.48 77.0965 Q 2616.84 73.2965, 2623.12 73.2965 Q 2629.4 73.2965, 2632.76 77.0965 Q 2636.12 80.8965, 2636.12 87.6965 Q 2636.12 94.5765, 2632.72 98.4965 Q 2629.32 102.377, 2623.12 102.377 Q 2616.88 102.377, 2613.48 98.4965 Q 2610.12 94.6165, 2610.12 87.6965 M 2623.12 99.1765 Q 2627.44 99.1765, 2629.76 96.2965 Q 2632.12 93.3765, 2632.12 87.6965 Q 2632.12 82.1365, 2629.76 79.3365 Q 2627.44 76.4965, 2623.12 76.4965 Q 2618.8 76.4965, 2616.44 79.2965 Q 2614.12 82.0965, 2614.12 87.6965 Q 2614.12 93.4165, 2616.44 96.2965 Q 2618.8 99.1765, 2623.12 99.1765 " fill="#FF0000"/>
<path class="atom-14" d="M 2639.52 73.6165 L 2643.36 73.6165 L 2643.36 85.6565 L 2657.84 85.6565 L 2657.84 73.6165 L 2661.68 73.6165 L 2661.68 101.937 L 2657.84 101.937 L 2657.84 88.8565 L 2643.36 88.8565 L 2643.36 101.937 L 2639.52 101.937 L 2639.52 73.6165 " fill="#FF0000"/>
<path class="atom-17" d="M 3333.99 99.7249 Q 3333.99 92.9249, 3337.35 89.1249 Q 3340.71 85.3249, 3346.99 85.3249 Q 3353.27 85.3249, 3356.63 89.1249 Q 3359.99 92.9249, 3359.99 99.7249 Q 3359.99 106.605, 3356.59 110.525 Q 3353.19 114.405, 3346.99 114.405 Q 3340.75 114.405, 3337.35 110.525 Q 3333.99 106.645, 3333.99 99.7249 M 3346.99 111.205 Q 3351.31 111.205, 3353.63 108.325 Q 3355.99 105.405, 3355.99 99.7249 Q 3355.99 94.1649, 3353.63 91.3649 Q 3351.31 88.5249, 3346.99 88.5249 Q 3342.67 88.5249, 3340.31 91.3249 Q 3337.99 94.1249, 3337.99 99.7249 Q 3337.99 105.445, 3340.31 108.325 Q 3342.67 111.205, 3346.99 111.205 " fill="#FF0000"/>
<path class="atom-18" d="M 3486.57 338.081 L 3495.85 353.081 Q 3496.77 354.561, 3498.25 357.241 Q 3499.73 359.921, 3499.81 360.081 L 3499.81 338.081 L 3503.57 338.081 L 3503.57 366.401 L 3499.69 366.401 L 3489.73 350.001 Q 3488.57 348.081, 3487.33 345.881 Q 3486.13 343.681, 3485.77 343.001 L 3485.77 366.401 L 3482.09 366.401 L 3482.09 338.081 L 3486.57 338.081 " fill="#0000FF"/>
<path class="atom-18" d="M 3481.75 369.233 L 3485.59 369.233 L 3485.59 381.273 L 3500.07 381.273 L 3500.07 369.233 L 3503.91 369.233 L 3503.91 397.553 L 3500.07 397.553 L 3500.07 384.473 L 3485.59 384.473 L 3485.59 397.553 L 3481.75 397.553 L 3481.75 369.233 " fill="#0000FF"/>
<path class="note" d="M 197.975 189.613 L 201.075 189.613 L 201.075 179.033 L 197.655 180.093 L 197.195 178.913 L 201.535 176.973 L 202.955 177.213 L 202.955 189.613 L 205.735 189.613 L 205.735 191.213 L 197.975 191.213 L 197.975 189.613 " fill="#000000"/>
<path class="note" d="M 356.604 211.6 Q 357.124 210.26, 358.364 209.52 Q 359.604 208.76, 361.324 208.76 Q 363.464 208.76, 364.664 209.92 Q 365.864 211.08, 365.864 213.14 Q 365.864 215.24, 364.304 217.2 Q 362.764 219.16, 359.564 221.48 L 366.104 221.48 L 366.104 223.08 L 356.564 223.08 L 356.564 221.74 Q 359.204 219.86, 360.764 218.46 Q 362.344 217.06, 363.104 215.8 Q 363.864 214.54, 363.864 213.24 Q 363.864 211.88, 363.184 211.12 Q 362.504 210.36, 361.324 210.36 Q 360.184 210.36, 359.424 210.82 Q 358.664 211.28, 358.124 212.3 L 356.604 211.6 " fill="#000000"/>
<path class="note" d="M 363.374 468.216 Q 364.754 468.616, 365.414 469.516 Q 366.094 470.396, 366.094 471.796 Q 366.094 472.996, 365.494 473.936 Q 364.894 474.856, 363.794 475.376 Q 362.694 475.876, 361.254 475.876 Q 359.734 475.876, 358.594 475.356 Q 357.474 474.816, 356.574 473.736 L 357.714 472.576 Q 358.594 473.536, 359.334 473.916 Q 360.074 474.276, 361.254 474.276 Q 362.534 474.276, 363.314 473.596 Q 364.094 472.896, 364.094 471.776 Q 364.094 470.336, 363.274 469.696 Q 362.474 469.036, 360.734 469.036 L 359.714 469.036 L 359.714 467.596 L 360.614 467.596 Q 362.154 467.576, 362.974 466.916 Q 363.794 466.236, 363.794 464.976 Q 363.794 464.056, 363.114 463.516 Q 362.434 462.956, 361.274 462.956 Q 360.094 462.956, 359.354 463.376 Q 358.634 463.796, 358.074 464.856 L 356.694 464.116 Q 357.194 462.936, 358.394 462.156 Q 359.594 461.356, 361.274 461.356 Q 363.354 461.356, 364.574 462.336 Q 365.794 463.316, 365.794 464.976 Q 365.794 466.116, 365.174 466.936 Q 364.554 467.756, 363.374 468.216 " fill="#000000"/>
<path class="note" d="M 494.161 109.174 L 497.261 109.174 L 497.261 98.5944 L 493.841 99.6544 L 493.381 98.4744 L 497.721 96.5344 L 499.141 96.7744 L 499.141 109.174 L 501.921 109.174 L 501.921 110.774 L 494.161 110.774 L 494.161 109.174 " fill="#000000"/>
<path class="note" d="M 507.981 101.914 Q 509.221 101.914, 510.241 102.454 Q 511.261 102.974, 511.841 103.974 Q 512.421 104.954, 512.421 106.294 Q 512.421 107.754, 511.701 108.814 Q 511.001 109.854, 509.841 110.394 Q 508.681 110.934, 507.361 110.934 Q 506.061 110.934, 504.861 110.454 Q 503.661 109.974, 502.841 109.054 L 504.041 107.814 Q 504.701 108.534, 505.601 108.934 Q 506.501 109.314, 507.421 109.314 Q 508.681 109.314, 509.541 108.534 Q 510.421 107.754, 510.421 106.334 Q 510.421 104.834, 509.541 104.134 Q 508.681 103.414, 507.301 103.414 Q 506.061 103.414, 504.681 103.954 L 503.581 103.434 L 504.261 96.6144 L 511.541 96.6144 L 511.341 98.2144 L 505.901 98.2144 L 505.481 102.414 Q 506.741 101.914, 507.981 101.914 " fill="#000000"/>
<path class="note" d="M 640.068 193.413 L 643.168 193.413 L 643.168 182.833 L 639.748 183.893 L 639.288 182.713 L 643.628 180.773 L 645.048 181.013 L 645.048 193.413 L 647.828 193.413 L 647.828 195.013 L 640.068 195.013 L 640.068 193.413 " fill="#000000"/>
<path class="note" d="M 655.468 187.553 Q 656.848 187.953, 657.508 188.853 Q 658.188 189.733, 658.188 191.133 Q 658.188 192.333, 657.588 193.273 Q 656.988 194.193, 655.888 194.713 Q 654.788 195.213, 653.348 195.213 Q 651.828 195.213, 650.688 194.693 Q 649.568 194.153, 648.668 193.073 L 649.808 191.913 Q 650.688 192.873, 651.428 193.253 Q 652.168 193.613, 653.348 193.613 Q 654.628 193.613, 655.408 192.933 Q 656.188 192.233, 656.188 191.113 Q 656.188 189.673, 655.368 189.033 Q 654.568 188.373, 652.828 188.373 L 651.808 188.373 L 651.808 186.933 L 652.708 186.933 Q 654.248 186.913, 655.068 186.253 Q 655.888 185.573, 655.888 184.313 Q 655.888 183.393, 655.208 182.853 Q 654.528 182.293, 653.368 182.293 Q 652.188 182.293, 651.448 182.713 Q 650.728 183.133, 650.168 184.193 L 648.788 183.453 Q 649.288 182.273, 650.488 181.493 Q 651.688 180.693, 653.368 180.693 Q 655.448 180.693, 656.668 181.673 Q 657.888 182.653, 657.888 184.313 Q 657.888 185.453, 657.268 186.273 Q 656.648 187.093, 655.468 187.553 " fill="#000000"/>
<path class="note" d="M 771.781 141.041 L 774.881 141.041 L 774.881 130.461 L 771.461 131.521 L 771.001 130.341 L 775.341 128.401 L 776.761 128.641 L 776.761 141.041 L 779.541 141.041 L 779.541 142.641 L 771.781 142.641 L 771.781 141.041 " fill="#000000"/>
<path class="note" d="M 780.581 131.161 Q 781.101 129.821, 782.341 129.081 Q 783.581 128.321, 785.301 128.321 Q 787.441 128.321, 788.641 129.481 Q 789.841 130.641, 789.841 132.701 Q 789.841 134.801, 788.281 136.761 Q 786.741 138.721, 783.541 141.041 L 790.081 141.041 L 790.081 142.641 L 780.541 142.641 L 780.541 141.301 Q 783.181 139.421, 784.741 138.021 Q 786.321 136.621, 787.081 135.361 Q 787.841 134.101, 787.841 132.801 Q 787.841 131.441, 787.161 130.681 Q 786.481 129.921, 785.301 129.921 Q 784.161 129.921, 783.401 130.381 Q 782.641 130.841, 782.101 131.861 L 780.581 131.161 " fill="#000000"/>
<path class="note" d="M 639.498 474.036 L 642.598 474.036 L 642.598 463.456 L 639.178 464.516 L 638.718 463.336 L 643.058 461.396 L 644.478 461.636 L 644.478 474.036 L 647.258 474.036 L 647.258 475.636 L 639.498 475.636 L 639.498 474.036 " fill="#000000"/>
<path class="note" d="M 657.058 470.776 L 658.758 470.776 L 658.758 472.376 L 657.058 472.376 L 657.058 475.636 L 655.178 475.636 L 655.178 472.376 L 647.858 472.376 L 647.858 471.116 L 654.058 461.476 L 657.058 461.476 L 657.058 470.776 M 650.178 470.776 L 655.178 470.776 L 655.178 462.756 L 650.178 470.776 " fill="#000000"/>
<path class="note" d="M 1375.64 33.704 L 1377.34 33.704 L 1377.34 35.304 L 1375.64 35.304 L 1375.64 38.564 L 1373.76 38.564 L 1373.76 35.304 L 1366.44 35.304 L 1366.44 34.044 L 1372.64 24.404 L 1375.64 24.404 L 1375.64 33.704 M 1368.76 33.704 L 1373.76 33.704 L 1373.76 25.684 L 1368.76 33.704 " fill="#000000"/>
<path class="note" d="M 1323.63 226.168 Q 1324.87 226.168, 1325.89 226.708 Q 1326.91 227.228, 1327.49 228.228 Q 1328.07 229.208, 1328.07 230.548 Q 1328.07 232.008, 1327.35 233.068 Q 1326.65 234.108, 1325.49 234.648 Q 1324.33 235.188, 1323.01 235.188 Q 1321.71 235.188, 1320.51 234.708 Q 1319.31 234.228, 1318.49 233.308 L 1319.69 232.068 Q 1320.35 232.788, 1321.25 233.188 Q 1322.15 233.568, 1323.07 233.568 Q 1324.33 233.568, 1325.19 232.788 Q 1326.07 232.008, 1326.07 230.588 Q 1326.07 229.088, 1325.19 228.388 Q 1324.33 227.668, 1322.95 227.668 Q 1321.71 227.668, 1320.33 228.208 L 1319.23 227.688 L 1319.91 220.868 L 1327.19 220.868 L 1326.99 222.468 L 1321.55 222.468 L 1321.13 226.668 Q 1322.39 226.168, 1323.63 226.168 " fill="#000000"/>
<path class="note" d="M 1202.38 324.5 Q 1203.62 324.5, 1204.6 325.04 Q 1205.58 325.58, 1206.12 326.56 Q 1206.66 327.54, 1206.66 328.78 Q 1206.66 330.16, 1206.04 331.24 Q 1205.44 332.3, 1204.36 332.9 Q 1203.28 333.5, 1201.9 333.5 Q 1199.38 333.5, 1198.1 331.8 Q 1196.84 330.08, 1196.84 326.68 Q 1196.84 322.92, 1198.4 320.98 Q 1199.98 319.02, 1203 319.02 Q 1203.88 319.02, 1204.62 319.22 Q 1205.38 319.42, 1206.1 319.84 L 1205.32 321.18 Q 1204.28 320.62, 1203.02 320.62 Q 1201.02 320.62, 1200 321.92 Q 1198.98 323.2, 1198.86 325.86 Q 1199.58 325.2, 1200.48 324.86 Q 1201.4 324.5, 1202.38 324.5 M 1201.92 331.86 Q 1202.68 331.86, 1203.3 331.46 Q 1203.94 331.06, 1204.3 330.36 Q 1204.66 329.66, 1204.66 328.8 Q 1204.66 327.54, 1203.96 326.82 Q 1203.26 326.1, 1202.02 326.1 Q 1201.16 326.1, 1200.3 326.46 Q 1199.46 326.8, 1198.86 327.4 Q 1198.94 329.74, 1199.68 330.8 Q 1200.42 331.86, 1201.92 331.86 " fill="#000000"/>
<path class="note" d="M 1533.23 297.121 L 1536.33 297.121 L 1536.33 286.541 L 1532.91 287.601 L 1532.45 286.421 L 1536.79 284.481 L 1538.21 284.721 L 1538.21 297.121 L 1540.99 297.121 L 1540.99 298.721 L 1533.23 298.721 L 1533.23 297.121 " fill="#000000"/>
<path class="note" d="M 1542.85 297.121 L 1545.95 297.121 L 1545.95 286.541 L 1542.53 287.601 L 1542.07 286.421 L 1546.41 284.481 L 1547.83 284.721 L 1547.83 297.121 L 1550.61 297.121 L 1550.61 298.721 L 1542.85 298.721 L 1542.85 297.121 " fill="#000000"/>
<path class="note" d="M 2478.29 370.079 L 2481.39 370.079 L 2481.39 359.499 L 2477.97 360.559 L 2477.51 359.379 L 2481.85 357.439 L 2483.27 357.679 L 2483.27 370.079 L 2486.05 370.079 L 2486.05 371.679 L 2478.29 371.679 L 2478.29 370.079 " fill="#000000"/>
<path class="note" d="M 2487.09 360.199 Q 2487.61 358.859, 2488.85 358.119 Q 2490.09 357.359, 2491.81 357.359 Q 2493.95 357.359, 2495.15 358.519 Q 2496.35 359.679, 2496.35 361.739 Q 2496.35 363.839, 2494.79 365.799 Q 2493.25 367.759, 2490.05 370.079 L 2496.59 370.079 L 2496.59 371.679 L 2487.05 371.679 L 2487.05 370.339 Q 2489.69 368.459, 2491.25 367.059 Q 2492.83 365.659, 2493.59 364.399 Q 2494.35 363.139, 2494.35 361.839 Q 2494.35 360.479, 2493.67 359.719 Q 2492.99 358.959, 2491.81 358.959 Q 2490.67 358.959, 2489.91 359.419 Q 2489.15 359.879, 2488.61 360.899 L 2487.09 360.199 " fill="#000000"/>
<path class="note" d="M 2596.15 237.268 L 2599.25 237.268 L 2599.25 226.688 L 2595.83 227.748 L 2595.37 226.568 L 2599.71 224.628 L 2601.13 224.868 L 2601.13 237.268 L 2603.91 237.268 L 2603.91 238.868 L 2596.15 238.868 L 2596.15 237.268 " fill="#000000"/>
<path class="note" d="M 2611.55 231.408 Q 2612.93 231.808, 2613.59 232.708 Q 2614.27 233.588, 2614.27 234.988 Q 2614.27 236.188, 2613.67 237.128 Q 2613.07 238.048, 2611.97 238.568 Q 2610.87 239.068, 2609.43 239.068 Q 2607.91 239.068, 2606.77 238.548 Q 2605.65 238.008, 2604.75 236.928 L 2605.89 235.768 Q 2606.77 236.728, 2607.51 237.108 Q 2608.25 237.468, 2609.43 237.468 Q 2610.71 237.468, 2611.49 236.788 Q 2612.27 236.088, 2612.27 234.968 Q 2612.27 233.528, 2611.45 232.888 Q 2610.65 232.228, 2608.91 232.228 L 2607.89 232.228 L 2607.89 230.788 L 2608.79 230.788 Q 2610.33 230.768, 2611.15 230.108 Q 2611.97 229.428, 2611.97 228.168 Q 2611.97 227.248, 2611.29 226.708 Q 2610.61 226.148, 2609.45 226.148 Q 2608.27 226.148, 2607.53 226.568 Q 2606.81 226.988, 2606.25 228.048 L 2604.87 227.308 Q 2605.37 226.128, 2606.57 225.348 Q 2607.77 224.548, 2609.45 224.548 Q 2611.53 224.548, 2612.75 225.528 Q 2613.97 226.508, 2613.97 228.168 Q 2613.97 229.308, 2613.35 230.128 Q 2612.73 230.948, 2611.55 231.408 " fill="#000000"/>
<path class="note" d="M 2804.06 373.799 L 2807.16 373.799 L 2807.16 363.219 L 2803.74 364.279 L 2803.28 363.099 L 2807.62 361.159 L 2809.04 361.399 L 2809.04 373.799 L 2811.82 373.799 L 2811.82 375.399 L 2804.06 375.399 L 2804.06 373.799 " fill="#000000"/>
<path class="note" d="M 2821.62 370.539 L 2823.32 370.539 L 2823.32 372.139 L 2821.62 372.139 L 2821.62 375.399 L 2819.74 375.399 L 2819.74 372.139 L 2812.42 372.139 L 2812.42 370.879 L 2818.62 361.239 L 2821.62 361.239 L 2821.62 370.539 M 2814.74 370.539 L 2819.74 370.539 L 2819.74 362.519 L 2814.74 370.539 " fill="#000000"/>
<path class="note" d="M 2610.11 37.004 L 2613.21 37.004 L 2613.21 26.424 L 2609.79 27.484 L 2609.33 26.304 L 2613.67 24.364 L 2615.09 24.604 L 2615.09 37.004 L 2617.87 37.004 L 2617.87 38.604 L 2610.11 38.604 L 2610.11 37.004 " fill="#000000"/>
<path class="note" d="M 2623.93 29.744 Q 2625.17 29.744, 2626.19 30.284 Q 2627.21 30.804, 2627.79 31.804 Q 2628.37 32.784, 2628.37 34.124 Q 2628.37 35.584, 2627.65 36.644 Q 2626.95 37.684, 2625.79 38.224 Q 2624.63 38.764, 2623.31 38.764 Q 2622.01 38.764, 2620.81 38.284 Q 2619.61 37.804, 2618.79 36.884 L 2619.99 35.644 Q 2620.65 36.364, 2621.55 36.764 Q 2622.45 37.144, 2623.37 37.144 Q 2624.63 37.144, 2625.49 36.364 Q 2626.37 35.584, 2626.37 34.164 Q 2626.37 32.664, 2625.49 31.964 Q 2624.63 31.244, 2623.25 31.244 Q 2622.01 31.244, 2620.63 31.784 L 2619.53 31.264 L 2620.21 24.444 L 2627.49 24.444 L 2627.29 26.044 L 2621.85 26.044 L 2621.43 30.244 Q 2622.69 29.744, 2623.93 29.744 " fill="#000000"/>
<path class="note" d="M 3211.7 382.068 L 3214.8 382.068 L 3214.8 371.488 L 3211.38 372.548 L 3210.92 371.368 L 3215.26 369.428 L 3216.68 369.668 L 3216.68 382.068 L 3219.46 382.068 L 3219.46 383.668 L 3211.7 383.668 L 3211.7 382.068 " fill="#000000"/>
<path class="note" d="M 3342.26 291.789 Q 3342.78 290.449, 3344.02 289.709 Q 3345.26 288.949, 3346.98 288.949 Q 3349.12 288.949, 3350.32 290.109 Q 3351.52 291.269, 3351.52 293.329 Q 3351.52 295.429, 3349.96 297.389 Q 3348.42 299.349, 3345.22 301.669 L 3351.76 301.669 L 3351.76 303.269 L 3342.22 303.269 L 3342.22 301.929 Q 3344.86 300.049, 3346.42 298.649 Q 3348 297.249, 3348.76 295.989 Q 3349.52 294.729, 3349.52 293.429 Q 3349.52 292.069, 3348.84 291.309 Q 3348.16 290.549, 3346.98 290.549 Q 3345.84 290.549, 3345.08 291.009 Q 3344.32 291.469, 3343.78 292.489 L 3342.26 291.789 " fill="#000000"/>
<path class="note" d="M 3349.03 43.2124 Q 3350.41 43.6124, 3351.07 44.5124 Q 3351.75 45.3924, 3351.75 46.7924 Q 3351.75 47.9924, 3351.15 48.9324 Q 3350.55 49.8524, 3349.45 50.3724 Q 3348.35 50.8724, 3346.91 50.8724 Q 3345.39 50.8724, 3344.25 50.3524 Q 3343.13 49.8124, 3342.23 48.7324 L 3343.37 47.5724 Q 3344.25 48.5324, 3344.99 48.9124 Q 3345.73 49.2724, 3346.91 49.2724 Q 3348.19 49.2724, 3348.97 48.5924 Q 3349.75 47.8924, 3349.75 46.7724 Q 3349.75 45.3324, 3348.93 44.6924 Q 3348.13 44.0324, 3346.39 44.0324 L 3345.37 44.0324 L 3345.37 42.5924 L 3346.27 42.5924 Q 3347.81 42.5724, 3348.63 41.9124 Q 3349.45 41.2324, 3349.45 39.9724 Q 3349.45 39.0524, 3348.77 38.5124 Q 3348.09 37.9524, 3346.93 37.9524 Q 3345.75 37.9524, 3345.01 38.3724 Q 3344.29 38.7924, 3343.73 39.8524 L 3342.35 39.1124 Q 3342.85 37.9324, 3344.05 37.1524 Q 3345.25 36.3524, 3346.93 36.3524 Q 3349.01 36.3524, 3350.23 37.3324 Q 3351.45 38.3124, 3351.45 39.9724 Q 3351.45 41.1124, 3350.83 41.9324 Q 3350.21 42.7524, 3349.03 43.2124 " fill="#000000"/>
<path class="note" d="M 3524.65 403.074 L 3526.35 403.074 L 3526.35 404.674 L 3524.65 404.674 L 3524.65 407.934 L 3522.77 407.934 L 3522.77 404.674 L 3515.45 404.674 L 3515.45 403.414 L 3521.65 393.774 L 3524.65 393.774 L 3524.65 403.074 M 3517.77 403.074 L 3522.77 403.074 L 3522.77 395.054 L 3517.77 403.074 " fill="#000000"/>
<path class="note" d="M 3639.02 322.395 Q 3640.26 322.395, 3641.28 322.935 Q 3642.3 323.455, 3642.88 324.455 Q 3643.46 325.435, 3643.46 326.775 Q 3643.46 328.235, 3642.74 329.295 Q 3642.04 330.335, 3640.88 330.875 Q 3639.72 331.415, 3638.4 331.415 Q 3637.1 331.415, 3635.9 330.935 Q 3634.7 330.455, 3633.88 329.535 L 3635.08 328.295 Q 3635.74 329.015, 3636.64 329.415 Q 3637.54 329.795, 3638.46 329.795 Q 3639.72 329.795, 3640.58 329.015 Q 3641.46 328.235, 3641.46 326.815 Q 3641.46 325.315, 3640.58 324.615 Q 3639.72 323.895, 3638.34 323.895 Q 3637.1 323.895, 3635.72 324.435 L 3634.62 323.915 L 3635.3 317.095 L 3642.58 317.095 L 3642.38 318.695 L 3636.94 318.695 L 3636.52 322.895 Q 3637.78 322.395, 3639.02 322.395 " fill="#000000"/>
<path class="note" d="M 3799.17 374.868 Q 3800.41 374.868, 3801.39 375.408 Q 3802.37 375.948, 3802.91 376.928 Q 3803.45 377.908, 3803.45 379.148 Q 3803.45 380.528, 3802.83 381.608 Q 3802.23 382.668, 3801.15 383.268 Q 3800.07 383.868, 3798.69 383.868 Q 3796.17 383.868, 3794.89 382.168 Q 3793.63 380.448, 3793.63 377.048 Q 3793.63 373.288, 3795.19 371.348 Q 3796.77 369.388, 3799.79 369.388 Q 3800.67 369.388, 3801.41 369.588 Q 3802.17 369.788, 3802.89 370.208 L 3802.11 371.548 Q 3801.07 370.988, 3799.81 370.988 Q 3797.81 370.988, 3796.79 372.288 Q 3795.77 373.568, 3795.65 376.228 Q 3796.37 375.568, 3797.27 375.228 Q 3798.19 374.868, 3799.17 374.868 M 3798.71 382.228 Q 3799.47 382.228, 3800.09 381.828 Q 3800.73 381.428, 3801.09 380.728 Q 3801.45 380.028, 3801.45 379.168 Q 3801.45 377.908, 3800.75 377.188 Q 3800.05 376.468, 3798.81 376.468 Q 3797.95 376.468, 3797.09 376.828 Q 3796.25 377.168, 3795.65 377.768 Q 3795.73 380.108, 3796.47 381.168 Q 3797.21 382.228, 3798.71 382.228 " fill="#000000"/>
<path class="note" d="M 3640.13 80.8588 L 3643.23 80.8588 L 3643.23 70.2788 L 3639.81 71.3388 L 3639.35 70.1588 L 3643.69 68.2188 L 3645.11 68.4588 L 3645.11 80.8588 L 3647.89 80.8588 L 3647.89 82.4588 L 3640.13 82.4588 L 3640.13 80.8588 " fill="#000000"/>
<path class="note" d="M 3649.75 80.8588 L 3652.85 80.8588 L 3652.85 70.2788 L 3649.43 71.3388 L 3648.97 70.1588 L 3653.31 68.2188 L 3654.73 68.4588 L 3654.73 80.8588 L 3657.51 80.8588 L 3657.51 82.4588 L 3649.75 82.4588 L 3649.75 80.8588 " fill="#000000"/>
<path d="M 1217.15,336.213 L 1217.14,336.041 L 1217.12,335.87 L 1217.08,335.702 L 1217.03,335.538 L 1216.97,335.379 L 1216.89,335.225 L 1216.8,335.08 L 1216.69,334.942 L 1216.58,334.814 L 1216.45,334.696 L 1216.32,334.59 L 1216.17,334.496 L 1216.02,334.414 L 1215.86,334.345 L 1215.7,334.291 L 1215.53,334.25 L 1215.36,334.225 L 1215.19,334.214 L 1215.02,334.217 L 1214.85,334.236 L 1214.68,334.269 L 1214.51,334.316 L 1214.35,334.378 L 1214.2,334.453 L 1214.05,334.541 L 1213.91,334.642 L 1213.78,334.754 L 1213.66,334.877 L 1213.55,335.01 L 1213.45,335.152 L 1213.37,335.301 L 1213.3,335.458 L 1213.24,335.62 L 1213.2,335.786 L 1213.17,335.956 L 1213.15,336.127 L 1213.15,336.299 L 1213.17,336.471 L 1213.2,336.64 L 1213.24,336.806 L 1213.3,336.968 L 1213.37,337.125 L 1213.45,337.275 L 1213.55,337.416 L 1213.66,337.549 L 1213.78,337.672 L 1213.91,337.784 L 1214.05,337.885 L 1214.2,337.973 L 1214.35,338.048 L 1214.51,338.11 L 1214.68,338.157 L 1214.85,338.19 L 1215.02,338.209 L 1215.19,338.213 L 1215.36,338.201 L 1215.53,338.176 L 1215.7,338.135 L 1215.86,338.081 L 1216.02,338.012 L 1216.17,337.931 L 1216.32,337.836 L 1216.45,337.73 L 1216.58,337.612 L 1216.69,337.484 L 1216.8,337.346 L 1216.89,337.201 L 1216.97,337.047 L 1217.03,336.888 L 1217.08,336.724 L 1217.12,336.556 L 1217.14,336.385 L 1217.15,336.213 L 1215.15,336.213 Z" style="fill:#000000;fill-rule:evenodd;fill-opacity:1;stroke:#000000;stroke-width:0px;stroke-linecap:butt;stroke-linejoin:miter;stroke-opacity:1;"/>
<path d="M 1217.15,344.213 L 1217.14,344.041 L 1217.12,343.87 L 1217.08,343.702 L 1217.03,343.538 L 1216.97,343.379 L 1216.89,343.225 L 1216.8,343.08 L 1216.69,342.942 L 1216.58,342.814 L 1216.45,342.696 L 1216.32,342.59 L 1216.17,342.496 L 1216.02,342.414 L 1215.86,342.345 L 1215.7,342.291 L 1215.53,342.25 L 1215.36,342.225 L 1215.19,342.214 L 1215.02,342.217 L 1214.85,342.236 L 1214.68,342.269 L 1214.51,342.316 L 1214.35,342.378 L 1214.2,342.453 L 1214.05,342.541 L 1213.91,342.642 L 1213.78,342.754 L 1213.66,342.877 L 1213.55,343.01 L 1213.45,343.152 L 1213.37,343.301 L 1213.3,343.458 L 1213.24,343.62 L 1213.2,343.786 L 1213.17,343.956 L 1213.15,344.127 L 1213.15,344.299 L 1213.17,344.471 L 1213.2,344.64 L 1213.24,344.806 L 1213.3,344.968 L 1213.37,345.125 L 1213.45,345.275 L 1213.55,345.416 L 1213.66,345.549 L 1213.78,345.672 L 1213.91,345.784 L 1214.05,345.885 L 1214.2,345.973 L 1214.35,346.048 L 1214.51,346.11 L 1214.68,346.157 L 1214.85,346.19 L 1215.02,346.209 L 1215.19,346.213 L 1215.36,346.201 L 1215.53,346.176 L 1215.7,346.135 L 1215.86,346.081 L 1216.02,346.012 L 1216.17,345.931 L 1216.32,345.836 L 1216.45,345.73 L 1216.58,345.612 L 1216.69,345.484 L 1216.8,345.346 L 1216.89,345.201 L 1216.97,345.047 L 1217.03,344.888 L 1217.08,344.724 L 1217.12,344.556 L 1217.14,344.385 L 1217.15,344.213 L 1215.15,344.213 Z" style="fill:#000000;fill-rule:evenodd;fill-opacity:1;stroke:#000000;stroke-width:0px;stroke-linecap:butt;stroke-linejoin:miter;stroke-opacity:1;"/>
<path d="M 1530.64,336.213 L 1530.63,336.041 L 1530.61,335.87 L 1530.57,335.702 L 1530.52,335.538 L 1530.46,335.379 L 1530.38,335.225 L 1530.29,335.08 L 1530.18,334.942 L 1530.07,334.814 L 1529.94,334.696 L 1529.81,334.59 L 1529.67,334.496 L 1529.51,334.414 L 1529.36,334.345 L 1529.19,334.291 L 1529.03,334.25 L 1528.86,334.225 L 1528.68,334.214 L 1528.51,334.217 L 1528.34,334.236 L 1528.17,334.269 L 1528.01,334.316 L 1527.85,334.378 L 1527.69,334.453 L 1527.54,334.541 L 1527.4,334.642 L 1527.27,334.754 L 1527.15,334.877 L 1527.04,335.01 L 1526.95,335.152 L 1526.86,335.301 L 1526.79,335.458 L 1526.73,335.62 L 1526.69,335.786 L 1526.66,335.956 L 1526.64,336.127 L 1526.64,336.299 L 1526.66,336.471 L 1526.69,336.64 L 1526.73,336.806 L 1526.79,336.968 L 1526.86,337.125 L 1526.95,337.275 L 1527.04,337.416 L 1527.15,337.549 L 1527.27,337.672 L 1527.4,337.784 L 1527.54,337.885 L 1527.69,337.973 L 1527.85,338.048 L 1528.01,338.11 L 1528.17,338.157 L 1528.34,338.19 L 1528.51,338.209 L 1528.68,338.213 L 1528.86,338.201 L 1529.03,338.176 L 1529.19,338.135 L 1529.36,338.081 L 1529.51,338.012 L 1529.67,337.931 L 1529.81,337.836 L 1529.94,337.73 L 1530.07,337.612 L 1530.18,337.484 L 1530.29,337.346 L 1530.38,337.201 L 1530.46,337.047 L 1530.52,336.888 L 1530.57,336.724 L 1530.61,336.556 L 1530.63,336.385 L 1530.64,336.213 L 1528.64,336.213 Z" style="fill:#000000;fill-rule:evenodd;fill-opacity:1;stroke:#000000;stroke-width:0px;stroke-linecap:butt;stroke-linejoin:miter;stroke-opacity:1;"/>
<path d="M 1530.64,344.213 L 1530.63,344.041 L 1530.61,343.87 L 1530.57,343.702 L 1530.52,343.538 L 1530.46,343.379 L 1530.38,343.225 L 1530.29,343.08 L 1530.18,342.942 L 1530.07,342.814 L 1529.94,342.696 L 1529.81,342.59 L 1529.67,342.496 L 1529.51,342.414 L 1529.36,342.345 L 1529.19,342.291 L 1529.03,342.25 L 1528.86,342.225 L 1528.68,342.214 L 1528.51,342.217 L 1528.34,342.236 L 1528.17,342.269 L 1528.01,342.316 L 1527.85,342.378 L 1527.69,342.453 L 1527.54,342.541 L 1527.4,342.642 L 1527.27,342.754 L 1527.15,342.877 L 1527.04,343.01 L 1526.95,343.152 L 1526.86,343.301 L 1526.79,343.458 L 1526.73,343.62 L 1526.69,343.786 L 1526.66,343.956 L 1526.64,344.127 L 1526.64,344.299 L 1526.66,344.471 L 1526.69,344.64 L 1526.73,344.806 L 1526.79,344.968 L 1526.86,345.125 L 1526.95,345.275 L 1527.04,345.416 L 1527.15,345.549 L 1527.27,345.672 L 1527.4,345.784 L 1527.54,345.885 L 1527.69,345.973 L 1527.85,346.048 L 1528.01,346.11 L 1528.17,346.157 L 1528.34,346.19 L 1528.51,346.209 L 1528.68,346.213 L 1528.86,346.201 L 1529.03,346.176 L 1529.19,346.135 L 1529.36,346.081 L 1529.51,346.012 L 1529.67,345.931 L 1529.81,345.836 L 1529.94,345.73 L 1530.07,345.612 L 1530.18,345.484 L 1530.29,345.346 L 1530.38,345.201 L 1530.46,345.047 L 1530.52,344.888 L 1530.57,344.724 L 1530.61,344.556 L 1530.63,344.385 L 1530.64,344.213 L 1528.64,344.213 Z" style="fill:#000000;fill-rule:evenodd;fill-opacity:1;stroke:#000000;stroke-width:0px;stroke-linecap:butt;stroke-linejoin:miter;stroke-opacity:1;"/>
<path d="M 3797.41,348.241 L 3797.4,348.07 L 3797.38,347.899 L 3797.35,347.731 L 3797.29,347.566 L 3797.23,347.407 L 3797.15,347.254 L 3797.06,347.108 L 3796.96,346.971 L 3796.84,346.843 L 3796.72,346.725 L 3796.58,346.618 L 3796.44,346.524 L 3796.28,346.442 L 3796.13,346.374 L 3795.96,346.319 L 3795.8,346.279 L 3795.63,346.253 L 3795.45,346.242 L 3795.28,346.246 L 3795.11,346.264 L 3794.94,346.297 L 3794.78,346.345 L 3794.62,346.406 L 3794.46,346.481 L 3794.31,346.57 L 3794.17,346.67 L 3794.04,346.782 L 3793.92,346.905 L 3793.81,347.038 L 3793.72,347.18 L 3793.63,347.33 L 3793.56,347.486 L 3793.5,347.648 L 3793.46,347.814 L 3793.43,347.984 L 3793.41,348.155 L 3793.41,348.327 L 3793.43,348.499 L 3793.46,348.668 L 3793.5,348.835 L 3793.56,348.997 L 3793.63,349.153 L 3793.72,349.303 L 3793.81,349.445 L 3793.92,349.578 L 3794.04,349.701 L 3794.17,349.813 L 3794.31,349.913 L 3794.46,350.001 L 3794.62,350.077 L 3794.78,350.138 L 3794.94,350.186 L 3795.11,350.219 L 3795.28,350.237 L 3795.45,350.241 L 3795.63,350.23 L 3795.8,350.204 L 3795.96,350.164 L 3796.13,350.109 L 3796.28,350.041 L 3796.44,349.959 L 3796.58,349.865 L 3796.72,349.758 L 3796.84,349.64 L 3796.96,349.512 L 3797.06,349.375 L 3797.15,349.229 L 3797.23,349.076 L 3797.29,348.916 L 3797.35,348.752 L 3797.38,348.584 L 3797.4,348.413 L 3797.41,348.241 L 3795.41,348.241 Z" style="fill:#000000;fill-rule:evenodd;fill-opacity:1;stroke:#000000;stroke-width:0px;stroke-linecap:butt;stroke-linejoin:miter;stroke-opacity:1;"/>
<path d="M 3797.41,356.241 L 3797.4,356.07 L 3797.38,355.899 L 3797.35,355.731 L 3797.29,355.566 L 3797.23,355.407 L 3797.15,355.254 L 3797.06,355.108 L 3796.96,354.971 L 3796.84,354.843 L 3796.72,354.725 L 3796.58,354.618 L 3796.44,354.524 L 3796.28,354.442 L 3796.13,354.374 L 3795.96,354.319 L 3795.8,354.279 L 3795.63,354.253 L 3795.45,354.242 L 3795.28,354.246 L 3795.11,354.264 L 3794.94,354.297 L 3794.78,354.345 L 3794.62,354.406 L 3794.46,354.481 L 3794.31,354.57 L 3794.17,354.67 L 3794.04,354.782 L 3793.92,354.905 L 3793.81,355.038 L 3793.72,355.18 L 3793.63,355.33 L 3793.56,355.486 L 3793.5,355.648 L 3793.46,355.814 L 3793.43,355.984 L 3793.41,356.155 L 3793.41,356.327 L 3793.43,356.499 L 3793.46,356.668 L 3793.5,356.835 L 3793.56,356.997 L 3793.63,357.153 L 3793.72,357.303 L 3793.81,357.445 L 3793.92,357.578 L 3794.04,357.701 L 3794.17,357.813 L 3794.31,357.913 L 3794.46,358.001 L 3794.62,358.077 L 3794.78,358.138 L 3794.94,358.186 L 3795.11,358.219 L 3795.28,358.237 L 3795.45,358.241 L 3795.63,358.23 L 3795.8,358.204 L 3795.96,358.164 L 3796.13,358.109 L 3796.28,358.041 L 3796.44,357.959 L 3796.58,357.865 L 3796.72,357.758 L 3796.84,357.64 L 3796.96,357.512 L 3797.06,357.375 L 3797.15,357.229 L 3797.23,357.076 L 3797.29,356.916 L 3797.35,356.752 L 3797.38,356.584 L 3797.4,356.413 L 3797.41,356.241 L 3795.41,356.241 Z" style="fill:#000000;fill-rule:evenodd;fill-opacity:1;stroke:#000000;stroke-width:0px;stroke-linecap:butt;stroke-linejoin:miter;stroke-opacity:1;"/>
<path d="M 3651.57,95.6449 L 3651.57,95.473 L 3651.55,95.3023 L 3651.51,95.1342 L 3651.46,94.9699 L 3651.39,94.8105 L 3651.31,94.6574 L 3651.22,94.5115 L 3651.12,94.3741 L 3651,94.246 L 3650.88,94.1283 L 3650.74,94.0218 L 3650.6,93.9274 L 3650.45,93.8457 L 3650.29,93.7772 L 3650.13,93.7227 L 3649.96,93.6823 L 3649.79,93.6565 L 3649.62,93.6454 L 3649.45,93.6491 L 3649.27,93.6676 L 3649.11,93.7007 L 3648.94,93.7482 L 3648.78,93.8098 L 3648.62,93.8849 L 3648.48,93.9731 L 3648.34,94.0736 L 3648.21,94.1858 L 3648.09,94.3088 L 3647.98,94.4417 L 3647.88,94.5835 L 3647.79,94.7331 L 3647.72,94.8895 L 3647.66,95.0515 L 3647.62,95.2179 L 3647.59,95.3874 L 3647.58,95.5589 L 3647.58,95.731 L 3647.59,95.9024 L 3647.62,96.072 L 3647.66,96.2383 L 3647.72,96.4003 L 3647.79,96.5567 L 3647.88,96.7064 L 3647.98,96.8482 L 3648.09,96.981 L 3648.21,97.104 L 3648.34,97.2162 L 3648.48,97.3168 L 3648.62,97.4049 L 3648.78,97.4801 L 3648.94,97.5416 L 3649.11,97.5892 L 3649.27,97.6223 L 3649.45,97.6408 L 3649.62,97.6445 L 3649.79,97.6334 L 3649.96,97.6075 L 3650.13,97.5672 L 3650.29,97.5126 L 3650.45,97.4442 L 3650.6,97.3624 L 3650.74,97.268 L 3650.88,97.1615 L 3651,97.0438 L 3651.12,96.9158 L 3651.22,96.7783 L 3651.31,96.6325 L 3651.39,96.4793 L 3651.46,96.32 L 3651.51,96.1556 L 3651.55,95.9875 L 3651.57,95.8169 L 3651.57,95.6449 L 3649.57,95.6449 Z" style="fill:#000000;fill-rule:evenodd;fill-opacity:1;stroke:#000000;stroke-width:0px;stroke-linecap:butt;stroke-linejoin:miter;stroke-opacity:1;"/>
<path d="M 3651.57,103.645 L 3651.57,103.473 L 3651.55,103.302 L 3651.51,103.134 L 3651.46,102.97 L 3651.39,102.811 L 3651.31,102.657 L 3651.22,102.512 L 3651.12,102.374 L 3651,102.246 L 3650.88,102.128 L 3650.74,102.022 L 3650.6,101.927 L 3650.45,101.846 L 3650.29,101.777 L 3650.13,101.723 L 3649.96,101.682 L 3649.79,101.656 L 3649.62,101.645 L 3649.45,101.649 L 3649.27,101.668 L 3649.11,101.701 L 3648.94,101.748 L 3648.78,101.81 L 3648.62,101.885 L 3648.48,101.973 L 3648.34,102.074 L 3648.21,102.186 L 3648.09,102.309 L 3647.98,102.442 L 3647.88,102.583 L 3647.79,102.733 L 3647.72,102.89 L 3647.66,103.051 L 3647.62,103.218 L 3647.59,103.387 L 3647.58,103.559 L 3647.58,103.731 L 3647.59,103.902 L 3647.62,104.072 L 3647.66,104.238 L 3647.72,104.4 L 3647.79,104.557 L 3647.88,104.706 L 3647.98,104.848 L 3648.09,104.981 L 3648.21,105.104 L 3648.34,105.216 L 3648.48,105.317 L 3648.62,105.405 L 3648.78,105.48 L 3648.94,105.542 L 3649.11,105.589 L 3649.27,105.622 L 3649.45,105.641 L 3649.62,105.644 L 3649.79,105.633 L 3649.96,105.608 L 3650.13,105.567 L 3650.29,105.513 L 3650.45,105.444 L 3650.6,105.362 L 3650.74,105.268 L 3650.88,105.162 L 3651,105.044 L 3651.12,104.916 L 3651.22,104.778 L 3651.31,104.632 L 3651.39,104.479 L 3651.46,104.32 L 3651.51,104.156 L 3651.55,103.988 L 3651.57,103.817 L 3651.57,103.645 L 3649.57,103.645 Z" style="fill:#000000;fill-rule:evenodd;fill-opacity:1;stroke:#000000;stroke-width:0px;stroke-linecap:butt;stroke-linejoin:miter;stroke-opacity:1;"/>
<path d="M 1020.1 242.055 L 1026.15 242.055 L 1026.15 235.687 L 1028.84 235.687 L 1028.84 242.055 L 1035.05 242.055 L 1035.05 244.359 L 1028.84 244.359 L 1028.84 250.759 L 1026.15 250.759 L 1026.15 244.359 L 1020.1 244.359 L 1020.1 242.055 " fill="#000000"/>
<path d="M 3000.45 242.055 L 3006.5 242.055 L 3006.5 235.687 L 3009.19 235.687 L 3009.19 242.055 L 3015.4 242.055 L 3015.4 244.359 L 3009.19 244.359 L 3009.19 250.759 L 3006.5 250.759 L 3006.5 244.359 L 3000.45 244.359 L 3000.45 242.055 " fill="#000000"/>
<path d="M 1743.36,244.359 L 2192.42,244.359" style="fill:none;fill-rule:evenodd;stroke:#000000;stroke-width:2.0px;stroke-linecap:butt;stroke-linejoin:miter;stroke-opacity:1"/>
<path d="M 2192.42,244.359 L 2172.98,233.132" style="fill:none;fill-rule:evenodd;stroke:#000000;stroke-width:2.0px;stroke-linecap:butt;stroke-linejoin:miter;stroke-opacity:1"/>
<path d="M 2192.42,244.359 L 2172.98,255.585" style="fill:none;fill-rule:evenodd;stroke:#000000;stroke-width:2.0px;stroke-linecap:butt;stroke-linejoin:miter;stroke-opacity:1"/>
</svg>