<svg xmlns="http://www.w3.org/2000/svg" xmlns:rdkit="http://www.rdkit.org/xml" xmlns:xlink="http://www.w3.org/1999/xlink" version="1.1" baseProfile="full" xml:space="preserve" width="4000px" height="500px" viewBox="0 0 4000 500">
<!-- END OF HEADER -->
<rect style="opacity:1.0;fill:#FFFFFF;stroke:none" width="4000" height="500" x="0" y="0"> </rect>
<path d="M 215.54,159.673 L 361.561,243.978" style="fill:none;fill-rule:evenodd;stroke:#FFFFAA;stroke-width:36.0px;stroke-linecap:butt;stroke-linejoin:miter;stroke-opacity:1"/>
<path d="M 361.561,243.978 L 361.561,412.588" style="fill:none;fill-rule:evenodd;stroke:#FFFFAA;stroke-width:36.0px;stroke-linecap:butt;stroke-linejoin:miter;stroke-opacity:1"/>
<path d="M 361.561,243.978 L 507.581,159.673" style="fill:none;fill-rule:evenodd;stroke:#FFFFAA;stroke-width:36.0px;stroke-linecap:butt;stroke-linejoin:miter;stroke-opacity:1"/>
<path d="M 507.581,159.673 L 653.602,243.978" style="fill:none;fill-rule:evenodd;stroke:#FFFFAA;stroke-width:36.0px;stroke-linecap:butt;stroke-linejoin:miter;stroke-opacity:1"/>
<path d="M 653.602,243.978 L 799.623,159.673" style="fill:none;fill-rule:evenodd;stroke:#FFFFAA;stroke-width:36.0px;stroke-linecap:butt;stroke-linejoin:miter;stroke-opacity:1"/>
<path d="M 653.602,243.978 L 653.602,412.588" style="fill:none;fill-rule:evenodd;stroke:#FFFFAA;stroke-width:36.0px;stroke-linecap:butt;stroke-linejoin:miter;stroke-opacity:1"/>
<path d="M 1372.79,87.4117 L 1372.79,256.022" style="fill:none;fill-rule:evenodd;stroke:#FFCC99;stroke-width:36.0px;stroke-linecap:butt;stroke-linejoin:miter;stroke-opacity:1"/>
<path d="M 1372.79,256.022 L 1226.77,340.327" style="fill:none;fill-rule:evenodd;stroke:#FFCC99;stroke-width:36.0px;stroke-linecap:butt;stroke-linejoin:miter;stroke-opacity:1"/>
<path d="M 1372.79,256.022 L 1518.81,340.327" style="fill:none;fill-rule:evenodd;stroke:#FFCC99;stroke-width:36.0px;stroke-linecap:butt;stroke-linejoin:miter;stroke-opacity:1"/>
<path d="M 2478.97,340.327 L 2624.99,256.022" style="fill:none;fill-rule:evenodd;stroke:#FFFFAA;stroke-width:36.0px;stroke-linecap:butt;stroke-linejoin:miter;stroke-opacity:1"/>
<path d="M 2624.99,256.022 L 2771.01,340.327" style="fill:none;fill-rule:evenodd;stroke:#FFFFAA;stroke-width:36.0px;stroke-linecap:butt;stroke-linejoin:miter;stroke-opacity:1"/>
<path d="M 2624.99,256.022 L 2624.99,87.4117" style="fill:none;fill-rule:evenodd;stroke:#FFFFAA;stroke-width:36.0px;stroke-linecap:butt;stroke-linejoin:miter;stroke-opacity:1"/>
<path d="M 3200.38,352.37 L 3346.4,268.065" style="fill:none;fill-rule:evenodd;stroke:#FFFFAA;stroke-width:36.0px;stroke-linecap:butt;stroke-linejoin:miter;stroke-opacity:1"/>
<path d="M 3346.4,268.065 L 3346.4,99.4553" style="fill:none;fill-rule:evenodd;stroke:#FFFFAA;stroke-width:36.0px;stroke-linecap:butt;stroke-linejoin:miter;stroke-opacity:1"/>
<path d="M 3492.42,352.37 L 3638.44,268.065" style="fill:none;fill-rule:evenodd;stroke:#FFCC99;stroke-width:36.0px;stroke-linecap:butt;stroke-linejoin:miter;stroke-opacity:1"/>
<path d="M 3638.44,268.065 L 3784.46,352.37" style="fill:none;fill-rule:evenodd;stroke:#FFCC99;stroke-width:36.0px;stroke-linecap:butt;stroke-linejoin:miter;stroke-opacity:1"/>
<path d="M 3638.44,268.065 L 3638.44,99.4553" style="fill:none;fill-rule:evenodd;stroke:#FFCC99;stroke-width:36.0px;stroke-linecap:butt;stroke-linejoin:miter;stroke-opacity:1"/>
<ellipse cx="215.54" cy="159.673" rx="33.722" ry="33.722" style="fill:#FFFFAA;fill-rule:evenodd;stroke:#FFFFAA;stroke-width:1px;stroke-linecap:butt;stroke-linejoin:miter;stroke-opacity:1"/>
<ellipse cx="361.561" cy="243.978" rx="33.722" ry="33.722" style="fill:#FFFFAA;fill-rule:evenodd;stroke:#FFFFAA;stroke-width:1px;stroke-linecap:butt;stroke-linejoin:miter;stroke-opacity:1"/>
<ellipse cx="361.561" cy="412.808" rx="33.722" ry="33.722" style="fill:#FFFFAA;fill-rule:evenodd;stroke:#FFFFAA;stroke-width:1px;stroke-linecap:butt;stroke-linejoin:miter;stroke-opacity:1"/>
<ellipse cx="507.581" cy="159.893" rx="33.722" ry="33.722" style="fill:#FFFFAA;fill-rule:evenodd;stroke:#FFFFAA;stroke-width:1px;stroke-linecap:butt;stroke-linejoin:miter;stroke-opacity:1"/>
<ellipse cx="653.602" cy="243.978" rx="33.722" ry="33.722" style="fill:#FFFFAA;fill-rule:evenodd;stroke:#FFFFAA;stroke-width:1px;stroke-linecap:butt;stroke-linejoin:miter;stroke-opacity:1"/>
<ellipse cx="799.623" cy="159.673" rx="33.722" ry="33.722" style="fill:#FFFFAA;fill-rule:evenodd;stroke:#FFFFAA;stroke-width:1px;stroke-linecap:butt;stroke-linejoin:miter;stroke-opacity:1"/>
<ellipse cx="653.602" cy="412.808" rx="33.722" ry="33.722" style="fill:#FFFFAA;fill-rule:evenodd;stroke:#FFFFAA;stroke-width:1px;stroke-linecap:butt;stroke-linejoin:miter;stroke-opacity:1"/>
<ellipse cx="1392.53" cy="94.4917" rx="43.1001" ry="33.722" style="fill:#FFCC99;fill-rule:evenodd;stroke:#FFCC99;stroke-width:1px;stroke-linecap:butt;stroke-linejoin:miter;stroke-opacity:1"/>
<ellipse cx="1372.79" cy="256.022" rx="33.722" ry="33.722" style="fill:#FFCC99;fill-rule:evenodd;stroke:#FFCC99;stroke-width:1px;stroke-linecap:butt;stroke-linejoin:miter;stroke-opacity:1"/>
<ellipse cx="1226.77" cy="340.327" rx="33.722" ry="33.722" style="fill:#FFCC99;fill-rule:evenodd;stroke:#FFCC99;stroke-width:1px;stroke-linecap:butt;stroke-linejoin:miter;stroke-opacity:1"/>
<ellipse cx="1518.81" cy="340.327" rx="33.722" ry="33.722" style="fill:#FFCC99;fill-rule:evenodd;stroke:#FFCC99;stroke-width:1px;stroke-linecap:butt;stroke-linejoin:miter;stroke-opacity:1"/>
<ellipse cx="2478.97" cy="340.327" rx="33.722" ry="33.722" style="fill:#FFFFAA;fill-rule:evenodd;stroke:#FFFFAA;stroke-width:1px;stroke-linecap:butt;stroke-linejoin:miter;stroke-opacity:1"/>
<ellipse cx="2624.99" cy="256.022" rx="33.722" ry="33.722" style="fill:#FFFFAA;fill-rule:evenodd;stroke:#FFFFAA;stroke-width:1px;stroke-linecap:butt;stroke-linejoin:miter;stroke-opacity:1"/>
<ellipse cx="2771.01" cy="340.547" rx="33.722" ry="33.722" style="fill:#FFFFAA;fill-rule:evenodd;stroke:#FFFFAA;stroke-width:1px;stroke-linecap:butt;stroke-linejoin:miter;stroke-opacity:1"/>
<ellipse cx="2637.77" cy="87.6317" rx="36.4584" ry="33.722" style="fill:#FFFFAA;fill-rule:evenodd;stroke:#FFFFAA;stroke-width:1px;stroke-linecap:butt;stroke-linejoin:miter;stroke-opacity:1"/>
<ellipse cx="3200.38" cy="352.37" rx="33.722" ry="33.722" style="fill:#FFFFAA;fill-rule:evenodd;stroke:#FFFFAA;stroke-width:1px;stroke-linecap:butt;stroke-linejoin:miter;stroke-opacity:1"/>
<ellipse cx="3346.4" cy="268.065" rx="33.722" ry="33.722" style="fill:#FFFFAA;fill-rule:evenodd;stroke:#FFFFAA;stroke-width:1px;stroke-linecap:butt;stroke-linejoin:miter;stroke-opacity:1"/>
<ellipse cx="3346.4" cy="99.6753" rx="33.722" ry="33.722" style="fill:#FFFFAA;fill-rule:evenodd;stroke:#FFFFAA;stroke-width:1px;stroke-linecap:butt;stroke-linejoin:miter;stroke-opacity:1"/>
<ellipse cx="3492.42" cy="367.946" rx="33.722" ry="42.0531" style="fill:#FFCC99;fill-rule:evenodd;stroke:#FFCC99;stroke-width:1px;stroke-linecap:butt;stroke-linejoin:miter;stroke-opacity:1"/>
<ellipse cx="3638.44" cy="268.065" rx="33.722" ry="33.722" style="fill:#FFCC99;fill-rule:evenodd;stroke:#FFCC99;stroke-width:1px;stroke-linecap:butt;stroke-linejoin:miter;stroke-opacity:1"/>
<ellipse cx="3784.46" cy="352.37" rx="33.722" ry="33.722" style="fill:#FFCC99;fill-rule:evenodd;stroke:#FFCC99;stroke-width:1px;stroke-linecap:butt;stroke-linejoin:miter;stroke-opacity:1"/>
<ellipse cx="3638.44" cy="99.4553" rx="33.722" ry="33.722" style="fill:#FFCC99;fill-rule:evenodd;stroke:#FFCC99;stroke-width:1px;stroke-linecap:butt;stroke-linejoin:miter;stroke-opacity:1"/>
<path class="bond-0" d="M 215.54,159.673 L 361.561,243.978" style="fill:none;fill-rule:evenodd;stroke:#000000;stroke-width:2.0px;stroke-linecap:butt;stroke-linejoin:miter;stroke-opacity:1"/>
<path class="bond-1" d="M 344.7,243.978 L 344.7,319.016" style="fill:none;fill-rule:evenodd;stroke:#000000;stroke-width:2.0px;stroke-linecap:butt;stroke-linejoin:miter;stroke-opacity:1"/>
<path class="bond-1" d="M 344.7,319.016 L 344.7,394.053" style="fill:none;fill-rule:evenodd;stroke:#FF0000;stroke-width:2.0px;stroke-linecap:butt;stroke-linejoin:miter;stroke-opacity:1"/>
<path class="bond-1" d="M 378.422,243.978 L 378.422,319.016" style="fill:none;fill-rule:evenodd;stroke:#000000;stroke-width:2.0px;stroke-linecap:butt;stroke-linejoin:miter;stroke-opacity:1"/>
<path class="bond-1" d="M 378.422,319.016 L 378.422,394.053" style="fill:none;fill-rule:evenodd;stroke:#FF0000;stroke-width:2.0px;stroke-linecap:butt;stroke-linejoin:miter;stroke-opacity:1"/>
<path class="bond-2" d="M 361.561,243.978 L 425.963,206.795" style="fill:none;fill-rule:evenodd;stroke:#000000;stroke-width:2.0px;stroke-linecap:butt;stroke-linejoin:miter;stroke-opacity:1"/>
<path class="bond-2" d="M 425.963,206.795 L 490.366,169.612" style="fill:none;fill-rule:evenodd;stroke:#FF0000;stroke-width:2.0px;stroke-linecap:butt;stroke-linejoin:miter;stroke-opacity:1"/>
<path class="bond-3" d="M 524.797,169.612 L 589.199,206.795" style="fill:none;fill-rule:evenodd;stroke:#FF0000;stroke-width:2.0px;stroke-linecap:butt;stroke-linejoin:miter;stroke-opacity:1"/>
<path class="bond-3" d="M 589.199,206.795 L 653.602,243.978" style="fill:none;fill-rule:evenodd;stroke:#000000;stroke-width:2.0px;stroke-linecap:butt;stroke-linejoin:miter;stroke-opacity:1"/>
<path class="bond-4" d="M 653.602,243.978 L 799.623,159.673" style="fill:none;fill-rule:evenodd;stroke:#000000;stroke-width:2.0px;stroke-linecap:butt;stroke-linejoin:miter;stroke-opacity:1"/>
<path class="bond-5" d="M 636.741,243.978 L 636.741,319.016" style="fill:none;fill-rule:evenodd;stroke:#000000;stroke-width:2.0px;stroke-linecap:butt;stroke-linejoin:miter;stroke-opacity:1"/>
<path class="bond-5" d="M 636.741,319.016 L 636.741,394.053" style="fill:none;fill-rule:evenodd;stroke:#FF0000;stroke-width:2.0px;stroke-linecap:butt;stroke-linejoin:miter;stroke-opacity:1"/>
<path class="bond-5" d="M 670.463,243.978 L 670.463,319.016" style="fill:none;fill-rule:evenodd;stroke:#000000;stroke-width:2.0px;stroke-linecap:butt;stroke-linejoin:miter;stroke-opacity:1"/>
<path class="bond-5" d="M 670.463,319.016 L 670.463,394.053" style="fill:none;fill-rule:evenodd;stroke:#FF0000;stroke-width:2.0px;stroke-linecap:butt;stroke-linejoin:miter;stroke-opacity:1"/>
<path class="bond-6" d="M 1372.79,105.787 L 1372.79,180.904" style="fill:none;fill-rule:evenodd;stroke:#0000FF;stroke-width:2.0px;stroke-linecap:butt;stroke-linejoin:miter;stroke-opacity:1"/>
<path class="bond-6" d="M 1372.79,180.904 L 1372.79,256.022" style="fill:none;fill-rule:evenodd;stroke:#000000;stroke-width:2.0px;stroke-linecap:butt;stroke-linejoin:miter;stroke-opacity:1"/>
<path class="bond-7" d="M 1364.36,241.42 L 1218.34,325.725" style="fill:none;fill-rule:evenodd;stroke:#000000;stroke-width:2.0px;stroke-linecap:butt;stroke-linejoin:miter;stroke-opacity:1"/>
<path class="bond-7" d="M 1381.22,270.624 L 1235.2,354.929" style="fill:none;fill-rule:evenodd;stroke:#000000;stroke-width:2.0px;stroke-linecap:butt;stroke-linejoin:miter;stroke-opacity:1;stroke-dasharray:6,6"/>
<path class="bond-8" d="M 1364.36,270.624 L 1510.38,354.929" style="fill:none;fill-rule:evenodd;stroke:#000000;stroke-width:2.0px;stroke-linecap:butt;stroke-linejoin:miter;stroke-opacity:1"/>
<path class="bond-8" d="M 1381.22,241.42 L 1527.24,325.725" style="fill:none;fill-rule:evenodd;stroke:#000000;stroke-width:2.0px;stroke-linecap:butt;stroke-linejoin:miter;stroke-opacity:1;stroke-dasharray:6,6"/>
<path class="bond-9" d="M 2478.97,340.327 L 2624.99,256.022" style="fill:none;fill-rule:evenodd;stroke:#000000;stroke-width:2.0px;stroke-linecap:butt;stroke-linejoin:miter;stroke-opacity:1"/>
<path class="bond-10" d="M 2616.56,270.624 L 2680.96,307.807" style="fill:none;fill-rule:evenodd;stroke:#000000;stroke-width:2.0px;stroke-linecap:butt;stroke-linejoin:miter;stroke-opacity:1"/>
<path class="bond-10" d="M 2680.96,307.807 L 2745.36,344.99" style="fill:none;fill-rule:evenodd;stroke:#FF0000;stroke-width:2.0px;stroke-linecap:butt;stroke-linejoin:miter;stroke-opacity:1"/>
<path class="bond-10" d="M 2633.42,241.42 L 2697.82,278.603" style="fill:none;fill-rule:evenodd;stroke:#000000;stroke-width:2.0px;stroke-linecap:butt;stroke-linejoin:miter;stroke-opacity:1"/>
<path class="bond-10" d="M 2697.82,278.603 L 2762.22,315.786" style="fill:none;fill-rule:evenodd;stroke:#FF0000;stroke-width:2.0px;stroke-linecap:butt;stroke-linejoin:miter;stroke-opacity:1"/>
<path class="bond-11" d="M 2624.99,256.022 L 2624.99,181.204" style="fill:none;fill-rule:evenodd;stroke:#000000;stroke-width:2.0px;stroke-linecap:butt;stroke-linejoin:miter;stroke-opacity:1"/>
<path class="bond-11" d="M 2624.99,181.204 L 2624.99,106.387" style="fill:none;fill-rule:evenodd;stroke:#FF0000;stroke-width:2.0px;stroke-linecap:butt;stroke-linejoin:miter;stroke-opacity:1"/>
<path class="bond-12" d="M 3200.38,352.37 L 3346.4,268.065" style="fill:none;fill-rule:evenodd;stroke:#000000;stroke-width:2.0px;stroke-linecap:butt;stroke-linejoin:miter;stroke-opacity:1"/>
<path class="bond-13" d="M 3363.26,268.065 L 3363.26,193.248" style="fill:none;fill-rule:evenodd;stroke:#000000;stroke-width:2.0px;stroke-linecap:butt;stroke-linejoin:miter;stroke-opacity:1"/>
<path class="bond-13" d="M 3363.26,193.248 L 3363.26,118.431" style="fill:none;fill-rule:evenodd;stroke:#FF0000;stroke-width:2.0px;stroke-linecap:butt;stroke-linejoin:miter;stroke-opacity:1"/>
<path class="bond-13" d="M 3329.54,268.065 L 3329.54,193.248" style="fill:none;fill-rule:evenodd;stroke:#000000;stroke-width:2.0px;stroke-linecap:butt;stroke-linejoin:miter;stroke-opacity:1"/>
<path class="bond-13" d="M 3329.54,193.248 L 3329.54,118.431" style="fill:none;fill-rule:evenodd;stroke:#FF0000;stroke-width:2.0px;stroke-linecap:butt;stroke-linejoin:miter;stroke-opacity:1"/>
<path class="bond-14" d="M 3346.4,268.065 L 3411.93,305.901" style="fill:none;fill-rule:evenodd;stroke:#000000;stroke-width:2.0px;stroke-linecap:butt;stroke-linejoin:miter;stroke-opacity:1"/>
<path class="bond-14" d="M 3411.93,305.901 L 3477.46,343.736" style="fill:none;fill-rule:evenodd;stroke:#0000FF;stroke-width:2.0px;stroke-linecap:butt;stroke-linejoin:miter;stroke-opacity:1"/>
<path class="bond-15" d="M 3507.37,343.736 L 3572.91,305.901" style="fill:none;fill-rule:evenodd;stroke:#0000FF;stroke-width:2.0px;stroke-linecap:butt;stroke-linejoin:miter;stroke-opacity:1"/>
<path class="bond-15" d="M 3572.91,305.901 L 3638.44,268.065" style="fill:none;fill-rule:evenodd;stroke:#000000;stroke-width:2.0px;stroke-linecap:butt;stroke-linejoin:miter;stroke-opacity:1"/>
<path class="bond-16" d="M 3630.01,282.667 L 3776.03,366.972" style="fill:none;fill-rule:evenodd;stroke:#000000;stroke-width:2.0px;stroke-linecap:butt;stroke-linejoin:miter;stroke-opacity:1"/>
<path class="bond-16" d="M 3646.87,253.463 L 3792.89,337.768" style="fill:none;fill-rule:evenodd;stroke:#000000;stroke-width:2.0px;stroke-linecap:butt;stroke-linejoin:miter;stroke-opacity:1;stroke-dasharray:6,6"/>
<path class="bond-17" d="M 3655.3,268.065 L 3655.3,99.4553" style="fill:none;fill-rule:evenodd;stroke:#000000;stroke-width:2.0px;stroke-linecap:butt;stroke-linejoin:miter;stroke-opacity:1"/>
<path class="bond-17" d="M 3621.58,268.065 L 3621.58,99.4553" style="fill:none;fill-rule:evenodd;stroke:#000000;stroke-width:2.0px;stroke-linecap:butt;stroke-linejoin:miter;stroke-opacity:1;stroke-dasharray:6,6"/>
<path class="atom-2" d="M 348.561 412.668 Q 348.561 405.868, 351.921 402.068 Q 355.281 398.268, 361.561 398.268 Q 367.841 398.268, 371.201 402.068 Q 374.561 405.868, 374.561 412.668 Q 374.561 419.548, 371.161 423.468 Q 367.761 427.348, 361.561 427.348 Q 355.321 427.348, 351.921 423.468 Q 348.561 419.588, 348.561 412.668 M 361.561 424.148 Q 365.881 424.148, 368.201 421.268 Q 370.561 418.348, 370.561 412.668 Q 370.561 407.108, 368.201 404.308 Q 365.881 401.468, 361.561 401.468 Q 357.241 401.468, 354.881 404.268 Q 352.561 407.068, 352.561 412.668 Q 352.561 418.388, 354.881 421.268 Q 357.241 424.148, 361.561 424.148 " fill="#FF0000"/>
<path class="atom-3" d="M 494.581 159.753 Q 494.581 152.953, 497.941 149.153 Q 501.301 145.353, 507.581 145.353 Q 513.861 145.353, 517.221 149.153 Q 520.581 152.953, 520.581 159.753 Q 520.581 166.633, 517.181 170.553 Q 513.781 174.433, 507.581 174.433 Q 501.341 174.433, 497.941 170.553 Q 494.581 166.673, 494.581 159.753 M 507.581 171.233 Q 511.901 171.233, 514.221 168.353 Q 516.581 165.433, 516.581 159.753 Q 516.581 154.193, 514.221 151.393 Q 511.901 148.553, 507.581 148.553 Q 503.261 148.553, 500.901 151.353 Q 498.581 154.153, 498.581 159.753 Q 498.581 165.473, 500.901 168.353 Q 503.261 171.233, 507.581 171.233 " fill="#FF0000"/>
<path class="atom-6" d="M 640.602 412.668 Q 640.602 405.868, 643.962 402.068 Q 647.322 398.268, 653.602 398.268 Q 659.882 398.268, 663.242 402.068 Q 666.602 405.868, 666.602 412.668 Q 666.602 419.548, 663.202 423.468 Q 659.802 427.348, 653.602 427.348 Q 647.362 427.348, 643.962 423.468 Q 640.602 419.588, 640.602 412.668 M 653.602 424.148 Q 657.922 424.148, 660.242 421.268 Q 662.602 418.348, 662.602 412.668 Q 662.602 407.108, 660.242 404.308 Q 657.922 401.468, 653.602 401.468 Q 649.282 401.468, 646.922 404.268 Q 644.602 407.068, 644.602 412.668 Q 644.602 418.388, 646.922 421.268 Q 649.282 424.148, 653.602 424.148 " fill="#FF0000"/>
<path class="atom-7" d="M 1366.53 73.2517 L 1375.81 88.2517 Q 1376.73 89.7317, 1378.21 92.4117 Q 1379.69 95.0917, 1379.77 95.2517 L 1379.77 73.2517 L 1383.53 73.2517 L 1383.53 101.572 L 1379.65 101.572 L 1369.69 85.1717 Q 1368.53 83.2517, 1367.29 81.0517 Q 1366.09 78.8517, 1365.73 78.1717 L 1365.73 101.572 L 1362.05 101.572 L 1362.05 73.2517 L 1366.53 73.2517 " fill="#0000FF"/>
<path class="atom-7" d="M 1386.93 73.2517 L 1390.77 73.2517 L 1390.77 85.2917 L 1405.25 85.2917 L 1405.25 73.2517 L 1409.09 73.2517 L 1409.09 101.572 L 1405.25 101.572 L 1405.25 88.4917 L 1390.77 88.4917 L 1390.77 101.572 L 1386.93 101.572 L 1386.93 73.2517 " fill="#0000FF"/>
<path class="atom-7" d="M 1410.46 100.578 Q 1411.15 98.8093, 1412.78 97.8325 Q 1414.42 96.8293, 1416.69 96.8293 Q 1419.52 96.8293, 1421.1 98.3605 Q 1422.68 99.8917, 1422.68 102.611 Q 1422.68 105.383, 1420.63 107.97 Q 1418.59 110.557, 1414.37 113.62 L 1423 113.62 L 1423 115.732 L 1410.41 115.732 L 1410.41 113.963 Q 1413.89 111.481, 1415.95 109.633 Q 1418.04 107.785, 1419.04 106.122 Q 1420.04 104.459, 1420.04 102.743 Q 1420.04 100.948, 1419.15 99.9445 Q 1418.25 98.9413, 1416.69 98.9413 Q 1415.19 98.9413, 1414.18 99.5485 Q 1413.18 100.156, 1412.47 101.502 L 1410.46 100.578 " fill="#0000FF"/>
<path class="atom-13" d="M 2758.01 340.407 Q 2758.01 333.607, 2761.37 329.807 Q 2764.73 326.007, 2771.01 326.007 Q 2777.29 326.007, 2780.65 329.807 Q 2784.01 333.607, 2784.01 340.407 Q 2784.01 347.287, 2780.61 351.207 Q 2777.21 355.087, 2771.01 355.087 Q 2764.77 355.087, 2761.37 351.207 Q 2758.01 347.327, 2758.01 340.407 M 2771.01 351.887 Q 2775.33 351.887, 2777.65 349.007 Q 2780.01 346.087, 2780.01 340.407 Q 2780.01 334.847, 2777.65 332.047 Q 2775.33 329.207, 2771.01 329.207 Q 2766.69 329.207, 2764.33 332.007 Q 2762.01 334.807, 2762.01 340.407 Q 2762.01 346.127, 2764.33 349.007 Q 2766.69 351.887, 2771.01 351.887 " fill="#FF0000"/>
<path class="atom-14" d="M 2611.99 87.4917 Q 2611.99 80.6917, 2615.35 76.8917 Q 2618.71 73.0917, 2624.99 73.0917 Q 2631.27 73.0917, 2634.63 76.8917 Q 2637.99 80.6917, 2637.99 87.4917 Q 2637.99 94.3717, 2634.59 98.2917 Q 2631.19 102.172, 2624.99 102.172 Q 2618.75 102.172, 2615.35 98.2917 Q 2611.99 94.4117, 2611.99 87.4917 M 2624.99 98.9717 Q 2629.31 98.9717, 2631.63 96.0917 Q 2633.99 93.1717, 2633.99 87.4917 Q 2633.99 81.9317, 2631.63 79.1317 Q 2629.31 76.2917, 2624.99 76.2917 Q 2620.67 76.2917, 2618.31 79.0917 Q 2615.99 81.8917, 2615.99 87.4917 Q 2615.99 93.2117, 2618.31 96.0917 Q 2620.67 98.9717, 2624.99 98.9717 " fill="#FF0000"/>
<path class="atom-14" d="M 2641.39 73.4117 L 2645.23 73.4117 L 2645.23 85.4517 L 2659.71 85.4517 L 2659.71 73.4117 L 2663.55 73.4117 L 2663.55 101.732 L 2659.71 101.732 L 2659.71 88.6517 L 2645.23 88.6517 L 2645.23 101.732 L 2641.39 101.732 L 2641.39 73.4117 " fill="#FF0000"/>
<path class="atom-17" d="M 3333.4 99.5353 Q 3333.4 92.7353, 3336.76 88.9353 Q 3340.12 85.1353, 3346.4 85.1353 Q 3352.68 85.1353, 3356.04 88.9353 Q 3359.4 92.7353, 3359.4 99.5353 Q 3359.4 106.415, 3356 110.335 Q 3352.6 114.215, 3346.4 114.215 Q 3340.16 114.215, 3336.76 110.335 Q 3333.4 106.455, 3333.4 99.5353 M 3346.4 111.015 Q 3350.72 111.015, 3353.04 108.135 Q 3355.4 105.215, 3355.4 99.5353 Q 3355.4 93.9753, 3353.04 91.1753 Q 3350.72 88.3353, 3346.4 88.3353 Q 3342.08 88.3353, 3339.72 91.1353 Q 3337.4 93.9353, 3337.4 99.5353 Q 3337.4 105.255, 3339.72 108.135 Q 3342.08 111.015, 3346.4 111.015 " fill="#FF0000"/>
<path class="atom-18" d="M 3486.16 338.21 L 3495.44 353.21 Q 3496.36 354.69, 3497.84 357.37 Q 3499.32 360.05, 3499.4 360.21 L 3499.4 338.21 L 3503.16 338.21 L 3503.16 366.53 L 3499.28 366.53 L 3489.32 350.13 Q 3488.16 348.21, 3486.92 346.01 Q 3485.72 343.81, 3485.36 343.13 L 3485.36 366.53 L 3481.68 366.53 L 3481.68 338.21 L 3486.16 338.21 " fill="#0000FF"/>
<path class="atom-18" d="M 3481.34 369.362 L 3485.18 369.362 L 3485.18 381.402 L 3499.66 381.402 L 3499.66 369.362 L 3503.5 369.362 L 3503.5 397.682 L 3499.66 397.682 L 3499.66 384.602 L 3485.18 384.602 L 3485.18 397.682 L 3481.34 397.682 L 3481.34 369.362 " fill="#0000FF"/>
<path class="note" d="M 197.999 189.53 L 201.099 189.53 L 201.099 178.95 L 197.679 180.01 L 197.219 178.83 L 201.559 176.89 L 202.979 177.13 L 202.979 189.53 L 205.759 189.53 L 205.759 191.13 L 197.999 191.13 L 197.999 189.53 " fill="#000000"/>
<path class="note" d="M 356.831 211.557 Q 357.351 210.217, 358.591 209.477 Q 359.831 208.717, 361.551 208.717 Q 363.691 208.717, 364.891 209.877 Q 366.091 211.037, 366.091 213.097 Q 366.091 215.197, 364.531 217.157 Q 362.991 219.117, 359.791 221.437 L 366.331 221.437 L 366.331 223.037 L 356.791 223.037 L 356.791 221.697 Q 359.431 219.817, 360.991 218.417 Q 362.571 217.017, 363.331 215.757 Q 364.091 214.497, 364.091 213.197 Q 364.091 211.837, 363.411 211.077 Q 362.731 210.317, 361.551 210.317 Q 360.411 210.317, 359.651 210.777 Q 358.891 211.237, 358.351 212.257 L 356.831 211.557 " fill="#000000"/>
<path class="note" d="M 363.601 468.492 Q 364.981 468.892, 365.641 469.792 Q 366.321 470.672, 366.321 472.072 Q 366.321 473.272, 365.721 474.212 Q 365.121 475.132, 364.021 475.652 Q 362.921 476.152, 361.481 476.152 Q 359.961 476.152, 358.821 475.632 Q 357.701 475.092, 356.801 474.012 L 357.941 472.852 Q 358.821 473.812, 359.561 474.192 Q 360.301 474.552, 361.481 474.552 Q 362.761 474.552, 363.541 473.872 Q 364.321 473.172, 364.321 472.052 Q 364.321 470.612, 363.501 469.972 Q 362.701 469.312, 360.961 469.312 L 359.941 469.312 L 359.941 467.872 L 360.841 467.872 Q 362.381 467.852, 363.201 467.192 Q 364.021 466.512, 364.021 465.252 Q 364.021 464.332, 363.341 463.792 Q 362.661 463.232, 361.501 463.232 Q 360.321 463.232, 359.581 463.652 Q 358.861 464.072, 358.301 465.132 L 356.921 464.392 Q 357.421 463.212, 358.621 462.432 Q 359.821 461.632, 361.501 461.632 Q 363.581 461.632, 364.801 462.612 Q 366.021 463.592, 366.021 465.252 Q 366.021 466.392, 365.401 467.212 Q 364.781 468.032, 363.601 468.492 " fill="#000000"/>
<path class="note" d="M 494.231 109.03 L 497.331 109.03 L 497.331 98.4498 L 493.911 99.5098 L 493.451 98.3298 L 497.791 96.3898 L 499.211 96.6298 L 499.211 109.03 L 501.991 109.03 L 501.991 110.63 L 494.231 110.63 L 494.231 109.03 " fill="#000000"/>
<path class="note" d="M 508.891 101.79 Q 510.131 101.79, 511.111 102.33 Q 512.091 102.87, 512.631 103.85 Q 513.171 104.83, 513.171 106.07 Q 513.171 107.45, 512.551 108.53 Q 511.951 109.59, 510.871 110.19 Q 509.791 110.79, 508.411 110.79 Q 505.891 110.79, 504.611 109.09 Q 503.351 107.37, 503.351 103.97 Q 503.351 100.21, 504.911 98.2698 Q 506.491 96.3098, 509.511 96.3098 Q 510.391 96.3098, 511.131 96.5098 Q 511.891 96.7098, 512.611 97.1298 L 511.831 98.4698 Q 510.791 97.9098, 509.531 97.9098 Q 507.531 97.9098, 506.511 99.2098 Q 505.491 100.49, 505.371 103.15 Q 506.091 102.49, 506.991 102.15 Q 507.911 101.79, 508.891 101.79 M 508.431 109.15 Q 509.191 109.15, 509.811 108.75 Q 510.451 108.35, 510.811 107.65 Q 511.171 106.95, 511.171 106.09 Q 511.171 104.83, 510.471 104.11 Q 509.771 103.39, 508.531 103.39 Q 507.671 103.39, 506.811 103.75 Q 505.971 104.09, 505.371 104.69 Q 505.451 107.03, 506.191 108.09 Q 506.931 109.15, 508.431 109.15 " fill="#000000"/>
<path class="note" d="M 640.092 193.295 L 643.192 193.295 L 643.192 182.715 L 639.772 183.775 L 639.312 182.595 L 643.652 180.655 L 645.072 180.895 L 645.072 193.295 L 647.852 193.295 L 647.852 194.895 L 640.092 194.895 L 640.092 193.295 " fill="#000000"/>
<path class="note" d="M 657.652 190.035 L 659.352 190.035 L 659.352 191.635 L 657.652 191.635 L 657.652 194.895 L 655.772 194.895 L 655.772 191.635 L 648.452 191.635 L 648.452 190.375 L 654.652 180.735 L 657.652 180.735 L 657.652 190.035 M 650.772 190.035 L 655.772 190.035 L 655.772 182.015 L 650.772 190.035 " fill="#000000"/>
<path class="note" d="M 772.632 140.896 L 775.732 140.896 L 775.732 130.316 L 772.312 131.376 L 771.852 130.196 L 776.192 128.256 L 777.612 128.496 L 777.612 140.896 L 780.392 140.896 L 780.392 142.496 L 772.632 142.496 L 772.632 140.896 " fill="#000000"/>
<path class="note" d="M 788.032 135.036 Q 789.412 135.436, 790.072 136.336 Q 790.752 137.216, 790.752 138.616 Q 790.752 139.816, 790.152 140.756 Q 789.552 141.676, 788.452 142.196 Q 787.352 142.696, 785.912 142.696 Q 784.392 142.696, 783.252 142.176 Q 782.132 141.636, 781.232 140.556 L 782.372 139.396 Q 783.252 140.356, 783.992 140.736 Q 784.732 141.096, 785.912 141.096 Q 787.192 141.096, 787.972 140.416 Q 788.752 139.716, 788.752 138.596 Q 788.752 137.156, 787.932 136.516 Q 787.132 135.856, 785.392 135.856 L 784.372 135.856 L 784.372 134.416 L 785.272 134.416 Q 786.812 134.396, 787.632 133.736 Q 788.452 133.056, 788.452 131.796 Q 788.452 130.876, 787.772 130.336 Q 787.092 129.776, 785.932 129.776 Q 784.752 129.776, 784.012 130.196 Q 783.292 130.616, 782.732 131.676 L 781.352 130.936 Q 781.852 129.756, 783.052 128.976 Q 784.252 128.176, 785.932 128.176 Q 788.012 128.176, 789.232 129.156 Q 790.452 130.136, 790.452 131.796 Q 790.452 132.936, 789.832 133.756 Q 789.212 134.576, 788.032 135.036 " fill="#000000"/>
<path class="note" d="M 640.592 474.312 L 643.692 474.312 L 643.692 463.732 L 640.272 464.792 L 639.812 463.612 L 644.152 461.672 L 645.572 461.912 L 645.572 474.312 L 648.352 474.312 L 648.352 475.912 L 640.592 475.912 L 640.592 474.312 " fill="#000000"/>
<path class="note" d="M 654.412 467.052 Q 655.652 467.052, 656.672 467.592 Q 657.692 468.112, 658.272 469.112 Q 658.852 470.092, 658.852 471.432 Q 658.852 472.892, 658.132 473.952 Q 657.432 474.992, 656.272 475.532 Q 655.112 476.072, 653.792 476.072 Q 652.492 476.072, 651.292 475.592 Q 650.092 475.112, 649.272 474.192 L 650.472 472.952 Q 651.132 473.672, 652.032 474.072 Q 652.932 474.452, 653.852 474.452 Q 655.112 474.452, 655.972 473.672 Q 656.852 472.892, 656.852 471.472 Q 656.852 469.972, 655.972 469.272 Q 655.112 468.552, 653.732 468.552 Q 652.492 468.552, 651.112 469.092 L 650.012 468.572 L 650.692 461.752 L 657.972 461.752 L 657.772 463.352 L 652.332 463.352 L 651.912 467.552 Q 653.172 467.052, 654.412 467.052 " fill="#000000"/>
<path class="note" d="M 1376.54 33.4284 L 1378.24 33.4284 L 1378.24 35.0284 L 1376.54 35.0284 L 1376.54 38.2884 L 1374.66 38.2884 L 1374.66 35.0284 L 1367.34 35.0284 L 1367.34 33.7684 L 1373.54 24.1284 L 1376.54 24.1284 L 1376.54 33.4284 M 1369.66 33.4284 L 1374.66 33.4284 L 1374.66 25.4084 L 1369.66 33.4284 " fill="#000000"/>
<path class="note" d="M 1324.47 226.14 Q 1325.71 226.14, 1326.73 226.68 Q 1327.75 227.2, 1328.33 228.2 Q 1328.91 229.18, 1328.91 230.52 Q 1328.91 231.98, 1328.19 233.04 Q 1327.49 234.08, 1326.33 234.62 Q 1325.17 235.16, 1323.85 235.16 Q 1322.55 235.16, 1321.35 234.68 Q 1320.15 234.2, 1319.33 233.28 L 1320.53 232.04 Q 1321.19 232.76, 1322.09 233.16 Q 1322.99 233.54, 1323.91 233.54 Q 1325.17 233.54, 1326.03 232.76 Q 1326.91 231.98, 1326.91 230.56 Q 1326.91 229.06, 1326.03 228.36 Q 1325.17 227.64, 1323.79 227.64 Q 1322.55 227.64, 1321.17 228.18 L 1320.07 227.66 L 1320.75 220.84 L 1328.03 220.84 L 1327.83 222.44 L 1322.39 222.44 L 1321.97 226.64 Q 1323.23 226.14, 1324.47 226.14 " fill="#000000"/>
<path class="note" d="M 1203.06 324.596 Q 1204.3 324.596, 1205.28 325.136 Q 1206.26 325.676, 1206.8 326.656 Q 1207.34 327.636, 1207.34 328.876 Q 1207.34 330.256, 1206.72 331.336 Q 1206.12 332.396, 1205.04 332.996 Q 1203.96 333.596, 1202.58 333.596 Q 1200.06 333.596, 1198.78 331.896 Q 1197.52 330.176, 1197.52 326.776 Q 1197.52 323.016, 1199.08 321.076 Q 1200.66 319.116, 1203.68 319.116 Q 1204.56 319.116, 1205.3 319.316 Q 1206.06 319.516, 1206.78 319.936 L 1206 321.276 Q 1204.96 320.716, 1203.7 320.716 Q 1201.7 320.716, 1200.68 322.016 Q 1199.66 323.296, 1199.54 325.956 Q 1200.26 325.296, 1201.16 324.956 Q 1202.08 324.596, 1203.06 324.596 M 1202.6 331.956 Q 1203.36 331.956, 1203.98 331.556 Q 1204.62 331.156, 1204.98 330.456 Q 1205.34 329.756, 1205.34 328.896 Q 1205.34 327.636, 1204.64 326.916 Q 1203.94 326.196, 1202.7 326.196 Q 1201.84 326.196, 1200.98 326.556 Q 1200.14 326.896, 1199.54 327.496 Q 1199.62 329.836, 1200.36 330.896 Q 1201.1 331.956, 1202.6 331.956 " fill="#000000"/>
<path class="note" d="M 1534.34 297.173 L 1537.44 297.173 L 1537.44 286.593 L 1534.02 287.653 L 1533.56 286.473 L 1537.9 284.533 L 1539.32 284.773 L 1539.32 297.173 L 1542.1 297.173 L 1542.1 298.773 L 1534.34 298.773 L 1534.34 297.173 " fill="#000000"/>
<path class="note" d="M 1543.96 297.173 L 1547.06 297.173 L 1547.06 286.593 L 1543.64 287.653 L 1543.18 286.473 L 1547.52 284.533 L 1548.94 284.773 L 1548.94 297.173 L 1551.72 297.173 L 1551.72 298.773 L 1543.96 298.773 L 1543.96 297.173 " fill="#000000"/>
<path class="note" d="M 2480.08 370.224 L 2483.18 370.224 L 2483.18 359.644 L 2479.76 360.704 L 2479.3 359.524 L 2483.64 357.584 L 2485.06 357.824 L 2485.06 370.224 L 2487.84 370.224 L 2487.84 371.824 L 2480.08 371.824 L 2480.08 370.224 " fill="#000000"/>
<path class="note" d="M 2495.48 364.364 Q 2496.86 364.764, 2497.52 365.664 Q 2498.2 366.544, 2498.2 367.944 Q 2498.2 369.144, 2497.6 370.084 Q 2497 371.004, 2495.9 371.524 Q 2494.8 372.024, 2493.36 372.024 Q 2491.84 372.024, 2490.7 371.504 Q 2489.58 370.964, 2488.68 369.884 L 2489.82 368.724 Q 2490.7 369.684, 2491.44 370.064 Q 2492.18 370.424, 2493.36 370.424 Q 2494.64 370.424, 2495.42 369.744 Q 2496.2 369.044, 2496.2 367.924 Q 2496.2 366.484, 2495.38 365.844 Q 2494.58 365.184, 2492.84 365.184 L 2491.82 365.184 L 2491.82 363.744 L 2492.72 363.744 Q 2494.26 363.724, 2495.08 363.064 Q 2495.9 362.384, 2495.9 361.124 Q 2495.9 360.204, 2495.22 359.664 Q 2494.54 359.104, 2493.38 359.104 Q 2492.2 359.104, 2491.46 359.524 Q 2490.74 359.944, 2490.18 361.004 L 2488.8 360.264 Q 2489.3 359.084, 2490.5 358.304 Q 2491.7 357.504, 2493.38 357.504 Q 2495.46 357.504, 2496.68 358.484 Q 2497.9 359.464, 2497.9 361.124 Q 2497.9 362.264, 2497.28 363.084 Q 2496.66 363.904, 2495.48 364.364 " fill="#000000"/>
<path class="note" d="M 2587.14 247.491 L 2590.24 247.491 L 2590.24 236.911 L 2586.82 237.971 L 2586.36 236.791 L 2590.7 234.851 L 2592.12 235.091 L 2592.12 247.491 L 2594.9 247.491 L 2594.9 249.091 L 2587.14 249.091 L 2587.14 247.491 " fill="#000000"/>
<path class="note" d="M 2604.7 244.231 L 2606.4 244.231 L 2606.4 245.831 L 2604.7 245.831 L 2604.7 249.091 L 2602.82 249.091 L 2602.82 245.831 L 2595.5 245.831 L 2595.5 244.571 L 2601.7 234.931 L 2604.7 234.931 L 2604.7 244.231 M 2597.82 244.231 L 2602.82 244.231 L 2602.82 236.211 L 2597.82 244.231 " fill="#000000"/>
<path class="note" d="M 2806.67 373.949 L 2809.77 373.949 L 2809.77 363.369 L 2806.35 364.429 L 2805.89 363.249 L 2810.23 361.309 L 2811.65 361.549 L 2811.65 373.949 L 2814.43 373.949 L 2814.43 375.549 L 2806.67 375.549 L 2806.67 373.949 " fill="#000000"/>
<path class="note" d="M 2820.49 366.689 Q 2821.73 366.689, 2822.75 367.229 Q 2823.77 367.749, 2824.35 368.749 Q 2824.93 369.729, 2824.93 371.069 Q 2824.93 372.529, 2824.21 373.589 Q 2823.51 374.629, 2822.35 375.169 Q 2821.19 375.709, 2819.87 375.709 Q 2818.57 375.709, 2817.37 375.229 Q 2816.17 374.749, 2815.35 373.829 L 2816.55 372.589 Q 2817.21 373.309, 2818.11 373.709 Q 2819.01 374.089, 2819.93 374.089 Q 2821.19 374.089, 2822.05 373.309 Q 2822.93 372.529, 2822.93 371.109 Q 2822.93 369.609, 2822.05 368.909 Q 2821.19 368.189, 2819.81 368.189 Q 2818.57 368.189, 2817.19 368.729 L 2816.09 368.209 L 2816.77 361.389 L 2824.05 361.389 L 2823.85 362.989 L 2818.41 362.989 L 2817.99 367.189 Q 2819.25 366.689, 2820.49 366.689 " fill="#000000"/>
<path class="note" d="M 2611.64 36.7684 L 2614.74 36.7684 L 2614.74 26.1884 L 2611.32 27.2484 L 2610.86 26.0684 L 2615.2 24.1284 L 2616.62 24.3684 L 2616.62 36.7684 L 2619.4 36.7684 L 2619.4 38.3684 L 2611.64 38.3684 L 2611.64 36.7684 " fill="#000000"/>
<path class="note" d="M 2626.3 29.5284 Q 2627.54 29.5284, 2628.52 30.0684 Q 2629.5 30.6084, 2630.04 31.5884 Q 2630.58 32.5684, 2630.58 33.8084 Q 2630.58 35.1884, 2629.96 36.2684 Q 2629.36 37.3284, 2628.28 37.9284 Q 2627.2 38.5284, 2625.82 38.5284 Q 2623.3 38.5284, 2622.02 36.8284 Q 2620.76 35.1084, 2620.76 31.7084 Q 2620.76 27.9484, 2622.32 26.0084 Q 2623.9 24.0484, 2626.92 24.0484 Q 2627.8 24.0484, 2628.54 24.2484 Q 2629.3 24.4484, 2630.02 24.8684 L 2629.24 26.2084 Q 2628.2 25.6484, 2626.94 25.6484 Q 2624.94 25.6484, 2623.92 26.9484 Q 2622.9 28.2284, 2622.78 30.8884 Q 2623.5 30.2284, 2624.4 29.8884 Q 2625.32 29.5284, 2626.3 29.5284 M 2625.84 36.8884 Q 2626.6 36.8884, 2627.22 36.4884 Q 2627.86 36.0884, 2628.22 35.3884 Q 2628.58 34.6884, 2628.58 33.8284 Q 2628.58 32.5684, 2627.88 31.8484 Q 2627.18 31.1284, 2625.94 31.1284 Q 2625.08 31.1284, 2624.22 31.4884 Q 2623.38 31.8284, 2622.78 32.4284 Q 2622.86 34.7684, 2623.6 35.8284 Q 2624.34 36.8884, 2625.84 36.8884 " fill="#000000"/>
<path class="note" d="M 3210.94 382.227 L 3214.04 382.227 L 3214.04 371.647 L 3210.62 372.707 L 3210.16 371.527 L 3214.5 369.587 L 3215.92 369.827 L 3215.92 382.227 L 3218.7 382.227 L 3218.7 383.827 L 3210.94 383.827 L 3210.94 382.227 " fill="#000000"/>
<path class="note" d="M 3341.67 291.847 Q 3342.19 290.507, 3343.43 289.767 Q 3344.67 289.007, 3346.39 289.007 Q 3348.53 289.007, 3349.73 290.167 Q 3350.93 291.327, 3350.93 293.387 Q 3350.93 295.487, 3349.37 297.447 Q 3347.83 299.407, 3344.63 301.727 L 3351.17 301.727 L 3351.17 303.327 L 3341.63 303.327 L 3341.63 301.987 Q 3344.27 300.107, 3345.83 298.707 Q 3347.41 297.307, 3348.17 296.047 Q 3348.93 294.787, 3348.93 293.487 Q 3348.93 292.127, 3348.25 291.367 Q 3347.57 290.607, 3346.39 290.607 Q 3345.25 290.607, 3344.49 291.067 Q 3343.73 291.527, 3343.19 292.547 L 3341.67 291.847 " fill="#000000"/>
<path class="note" d="M 3348.44 42.9519 Q 3349.82 43.3519, 3350.48 44.2519 Q 3351.16 45.1319, 3351.16 46.5319 Q 3351.16 47.7319, 3350.56 48.6719 Q 3349.96 49.5919, 3348.86 50.1119 Q 3347.76 50.6119, 3346.32 50.6119 Q 3344.8 50.6119, 3343.66 50.0919 Q 3342.54 49.5519, 3341.64 48.4719 L 3342.78 47.3119 Q 3343.66 48.2719, 3344.4 48.6519 Q 3345.14 49.0119, 3346.32 49.0119 Q 3347.6 49.0119, 3348.38 48.3319 Q 3349.16 47.6319, 3349.16 46.5119 Q 3349.16 45.0719, 3348.34 44.4319 Q 3347.54 43.7719, 3345.8 43.7719 L 3344.78 43.7719 L 3344.78 42.3319 L 3345.68 42.3319 Q 3347.22 42.3119, 3348.04 41.6519 Q 3348.86 40.9719, 3348.86 39.7119 Q 3348.86 38.7919, 3348.18 38.2519 Q 3347.5 37.6919, 3346.34 37.6919 Q 3345.16 37.6919, 3344.42 38.1119 Q 3343.7 38.5319, 3343.14 39.5919 L 3341.76 38.8519 Q 3342.26 37.6719, 3343.46 36.8919 Q 3344.66 36.0919, 3346.34 36.0919 Q 3348.42 36.0919, 3349.64 37.0719 Q 3350.86 38.0519, 3350.86 39.7119 Q 3350.86 40.8519, 3350.24 41.6719 Q 3349.62 42.4919, 3348.44 42.9519 " fill="#000000"/>
<path class="note" d="M 3524.27 403.264 L 3525.97 403.264 L 3525.97 404.864 L 3524.27 404.864 L 3524.27 408.124 L 3522.39 408.124 L 3522.39 404.864 L 3515.07 404.864 L 3515.07 403.604 L 3521.27 393.964 L 3524.27 393.964 L 3524.27 403.264 M 3517.39 403.264 L 3522.39 403.264 L 3522.39 395.244 L 3517.39 403.264 " fill="#000000"/>
<path class="note" d="M 3638.79 322.489 Q 3640.03 322.489, 3641.05 323.029 Q 3642.07 323.549, 3642.65 324.549 Q 3643.23 325.529, 3643.23 326.869 Q 3643.23 328.329, 3642.51 329.389 Q 3641.81 330.429, 3640.65 330.969 Q 3639.49 331.509, 3638.17 331.509 Q 3636.87 331.509, 3635.67 331.029 Q 3634.47 330.549, 3633.65 329.629 L 3634.85 328.389 Q 3635.51 329.109, 3636.41 329.509 Q 3637.31 329.889, 3638.23 329.889 Q 3639.49 329.889, 3640.35 329.109 Q 3641.23 328.329, 3641.23 326.909 Q 3641.23 325.409, 3640.35 324.709 Q 3639.49 323.989, 3638.11 323.989 Q 3636.87 323.989, 3635.49 324.529 L 3634.39 324.009 L 3635.07 317.189 L 3642.35 317.189 L 3642.15 318.789 L 3636.71 318.789 L 3636.29 322.989 Q 3637.55 322.489, 3638.79 322.489 " fill="#000000"/>
<path class="note" d="M 3799.14 375.027 Q 3800.38 375.027, 3801.36 375.567 Q 3802.34 376.107, 3802.88 377.087 Q 3803.42 378.067, 3803.42 379.307 Q 3803.42 380.687, 3802.8 381.767 Q 3802.2 382.827, 3801.12 383.427 Q 3800.04 384.027, 3798.66 384.027 Q 3796.14 384.027, 3794.86 382.327 Q 3793.6 380.607, 3793.6 377.207 Q 3793.6 373.447, 3795.16 371.507 Q 3796.74 369.547, 3799.76 369.547 Q 3800.64 369.547, 3801.38 369.747 Q 3802.14 369.947, 3802.86 370.367 L 3802.08 371.707 Q 3801.04 371.147, 3799.78 371.147 Q 3797.78 371.147, 3796.76 372.447 Q 3795.74 373.727, 3795.62 376.387 Q 3796.34 375.727, 3797.24 375.387 Q 3798.16 375.027, 3799.14 375.027 M 3798.68 382.387 Q 3799.44 382.387, 3800.06 381.987 Q 3800.7 381.587, 3801.06 380.887 Q 3801.42 380.187, 3801.42 379.327 Q 3801.42 378.067, 3800.72 377.347 Q 3800.02 376.627, 3798.78 376.627 Q 3797.92 376.627, 3797.06 376.987 Q 3796.22 377.327, 3795.62 377.927 Q 3795.7 380.267, 3796.44 381.327 Q 3797.18 382.387, 3798.68 382.387 " fill="#000000"/>
<path class="note" d="M 3639.92 80.6385 L 3643.02 80.6385 L 3643.02 70.0585 L 3639.6 71.1185 L 3639.14 69.9385 L 3643.48 67.9985 L 3644.9 68.2385 L 3644.9 80.6385 L 3647.68 80.6385 L 3647.68 82.2385 L 3639.92 82.2385 L 3639.92 80.6385 " fill="#000000"/>
<path class="note" d="M 3649.54 80.6385 L 3652.64 80.6385 L 3652.64 70.0585 L 3649.22 71.1185 L 3648.76 69.9385 L 3653.1 67.9985 L 3654.52 68.2385 L 3654.52 80.6385 L 3657.3 80.6385 L 3657.3 82.2385 L 3649.54 82.2385 L 3649.54 80.6385 " fill="#000000"/>
<path d="M 1217.86,336.327 L 1217.85,336.155 L 1217.83,335.984 L 1217.79,335.816 L 1217.74,335.652 L 1217.68,335.492 L 1217.6,335.339 L 1217.51,335.193 L 1217.4,335.056 L 1217.29,334.928 L 1217.16,334.81 L 1217.03,334.704 L 1216.88,334.609 L 1216.73,334.528 L 1216.57,334.459 L 1216.41,334.405 L 1216.24,334.364 L 1216.07,334.338 L 1215.9,334.327 L 1215.73,334.331 L 1215.56,334.349 L 1215.39,334.383 L 1215.22,334.43 L 1215.06,334.492 L 1214.91,334.567 L 1214.76,334.655 L 1214.62,334.756 L 1214.49,334.868 L 1214.37,334.991 L 1214.26,335.124 L 1214.16,335.265 L 1214.08,335.415 L 1214.01,335.571 L 1213.95,335.733 L 1213.91,335.9 L 1213.88,336.069 L 1213.86,336.241 L 1213.86,336.413 L 1213.88,336.584 L 1213.91,336.754 L 1213.95,336.92 L 1214.01,337.082 L 1214.08,337.239 L 1214.16,337.388 L 1214.26,337.53 L 1214.37,337.663 L 1214.49,337.786 L 1214.62,337.898 L 1214.76,337.999 L 1214.91,338.087 L 1215.06,338.162 L 1215.22,338.224 L 1215.39,338.271 L 1215.56,338.304 L 1215.73,338.323 L 1215.9,338.326 L 1216.07,338.315 L 1216.24,338.289 L 1216.41,338.249 L 1216.57,338.194 L 1216.73,338.126 L 1216.88,338.044 L 1217.03,337.95 L 1217.16,337.843 L 1217.29,337.726 L 1217.4,337.598 L 1217.51,337.46 L 1217.6,337.314 L 1217.68,337.161 L 1217.74,337.002 L 1217.79,336.838 L 1217.83,336.669 L 1217.85,336.499 L 1217.86,336.327 L 1215.86,336.327 Z" style="fill:#000000;fill-rule:evenodd;fill-opacity:1;stroke:#000000;stroke-width:0px;stroke-linecap:butt;stroke-linejoin:miter;stroke-opacity:1;"/>
<path d="M 1217.86,344.327 L 1217.85,344.155 L 1217.83,343.984 L 1217.79,343.816 L 1217.74,343.652 L 1217.68,343.492 L 1217.6,343.339 L 1217.51,343.193 L 1217.4,343.056 L 1217.29,342.928 L 1217.16,342.81 L 1217.03,342.704 L 1216.88,342.609 L 1216.73,342.528 L 1216.57,342.459 L 1216.41,342.405 L 1216.24,342.364 L 1216.07,342.338 L 1215.9,342.327 L 1215.73,342.331 L 1215.56,342.349 L 1215.39,342.383 L 1215.22,342.43 L 1215.06,342.492 L 1214.91,342.567 L 1214.76,342.655 L 1214.62,342.756 L 1214.49,342.868 L 1214.37,342.991 L 1214.26,343.124 L 1214.16,343.265 L 1214.08,343.415 L 1214.01,343.571 L 1213.95,343.733 L 1213.91,343.9 L 1213.88,344.069 L 1213.86,344.241 L 1213.86,344.413 L 1213.88,344.584 L 1213.91,344.754 L 1213.95,344.92 L 1214.01,345.082 L 1214.08,345.239 L 1214.16,345.388 L 1214.26,345.53 L 1214.37,345.663 L 1214.49,345.786 L 1214.62,345.898 L 1214.76,345.999 L 1214.91,346.087 L 1215.06,346.162 L 1215.22,346.224 L 1215.39,346.271 L 1215.56,346.304 L 1215.73,346.323 L 1215.9,346.326 L 1216.07,346.315 L 1216.24,346.289 L 1216.41,346.249 L 1216.57,346.194 L 1216.73,346.126 L 1216.88,346.044 L 1217.03,345.95 L 1217.16,345.843 L 1217.29,345.726 L 1217.4,345.598 L 1217.51,345.46 L 1217.6,345.314 L 1217.68,345.161 L 1217.74,345.002 L 1217.79,344.838 L 1217.83,344.669 L 1217.85,344.499 L 1217.86,344.327 L 1215.86,344.327 Z" style="fill:#000000;fill-rule:evenodd;fill-opacity:1;stroke:#000000;stroke-width:0px;stroke-linecap:butt;stroke-linejoin:miter;stroke-opacity:1;"/>
<path d="M 1531.72,340.327 L 1531.71,340.155 L 1531.69,339.984 L 1531.65,339.816 L 1531.6,339.652 L 1531.54,339.492 L 1531.46,339.339 L 1531.37,339.193 L 1531.26,339.056 L 1531.15,338.928 L 1531.02,338.81 L 1530.89,338.704 L 1530.74,338.609 L 1530.59,338.528 L 1530.43,338.459 L 1530.27,338.405 L 1530.1,338.364 L 1529.93,338.338 L 1529.76,338.327 L 1529.59,338.331 L 1529.42,338.349 L 1529.25,338.383 L 1529.08,338.43 L 1528.92,338.492 L 1528.77,338.567 L 1528.62,338.655 L 1528.48,338.756 L 1528.35,338.868 L 1528.23,338.991 L 1528.12,339.124 L 1528.02,339.265 L 1527.94,339.415 L 1527.87,339.571 L 1527.81,339.733 L 1527.76,339.9 L 1527.74,340.069 L 1527.72,340.241 L 1527.72,340.413 L 1527.74,340.584 L 1527.76,340.754 L 1527.81,340.92 L 1527.87,341.082 L 1527.94,341.239 L 1528.02,341.388 L 1528.12,341.53 L 1528.23,341.663 L 1528.35,341.786 L 1528.48,341.898 L 1528.62,341.999 L 1528.77,342.087 L 1528.92,342.162 L 1529.08,342.224 L 1529.25,342.271 L 1529.42,342.304 L 1529.59,342.323 L 1529.76,342.326 L 1529.93,342.315 L 1530.1,342.289 L 1530.27,342.249 L 1530.43,342.194 L 1530.59,342.126 L 1530.74,342.044 L 1530.89,341.95 L 1531.02,341.843 L 1531.15,341.726 L 1531.26,341.598 L 1531.37,341.46 L 1531.46,341.314 L 1531.54,341.161 L 1531.6,341.002 L 1531.65,340.838 L 1531.69,340.669 L 1531.71,340.499 L 1531.72,340.327 L 1529.72,340.327 Z" style="fill:#000000;fill-rule:evenodd;fill-opacity:1;stroke:#000000;stroke-width:0px;stroke-linecap:butt;stroke-linejoin:miter;stroke-opacity:1;"/>
<path d="M 1531.72,355.188 L 1531.71,355.016 L 1531.69,354.845 L 1531.65,354.677 L 1531.6,354.513 L 1531.54,354.353 L 1531.46,354.2 L 1531.37,354.054 L 1531.26,353.917 L 1531.15,353.789 L 1531.02,353.671 L 1530.89,353.565 L 1530.74,353.47 L 1530.59,353.389 L 1530.43,353.32 L 1530.27,353.266 L 1530.1,353.225 L 1529.93,353.199 L 1529.76,353.188 L 1529.59,353.192 L 1529.42,353.21 L 1529.25,353.244 L 1529.08,353.291 L 1528.92,353.353 L 1528.77,353.428 L 1528.62,353.516 L 1528.48,353.617 L 1528.35,353.729 L 1528.23,353.852 L 1528.12,353.985 L 1528.02,354.126 L 1527.94,354.276 L 1527.87,354.432 L 1527.81,354.594 L 1527.76,354.761 L 1527.74,354.93 L 1527.72,355.102 L 1527.72,355.274 L 1527.74,355.445 L 1527.76,355.615 L 1527.81,355.781 L 1527.87,355.943 L 1527.94,356.1 L 1528.02,356.249 L 1528.12,356.391 L 1528.23,356.524 L 1528.35,356.647 L 1528.48,356.759 L 1528.62,356.86 L 1528.77,356.948 L 1528.92,357.023 L 1529.08,357.085 L 1529.25,357.132 L 1529.42,357.165 L 1529.59,357.184 L 1529.76,357.187 L 1529.93,357.176 L 1530.1,357.15 L 1530.27,357.11 L 1530.43,357.056 L 1530.59,356.987 L 1530.74,356.905 L 1530.89,356.811 L 1531.02,356.704 L 1531.15,356.587 L 1531.26,356.459 L 1531.37,356.321 L 1531.46,356.175 L 1531.54,356.022 L 1531.6,355.863 L 1531.65,355.699 L 1531.69,355.53 L 1531.71,355.36 L 1531.72,355.188 L 1529.72,355.188 Z" style="fill:#000000;fill-rule:evenodd;fill-opacity:1;stroke:#000000;stroke-width:0px;stroke-linecap:butt;stroke-linejoin:miter;stroke-opacity:1;"/>
<path d="M 1531.72,325.466 L 1531.71,325.294 L 1531.69,325.123 L 1531.65,324.955 L 1531.6,324.791 L 1531.54,324.631 L 1531.46,324.478 L 1531.37,324.332 L 1531.26,324.195 L 1531.15,324.067 L 1531.02,323.949 L 1530.89,323.843 L 1530.74,323.748 L 1530.59,323.667 L 1530.43,323.598 L 1530.27,323.544 L 1530.1,323.503 L 1529.93,323.477 L 1529.76,323.466 L 1529.59,323.47 L 1529.42,323.488 L 1529.25,323.522 L 1529.08,323.569 L 1528.92,323.631 L 1528.77,323.706 L 1528.62,323.794 L 1528.48,323.895 L 1528.35,324.007 L 1528.23,324.13 L 1528.12,324.263 L 1528.02,324.404 L 1527.94,324.554 L 1527.87,324.71 L 1527.81,324.872 L 1527.76,325.039 L 1527.74,325.208 L 1527.72,325.38 L 1527.72,325.552 L 1527.74,325.723 L 1527.76,325.893 L 1527.81,326.059 L 1527.87,326.221 L 1527.94,326.378 L 1528.02,326.527 L 1528.12,326.669 L 1528.23,326.802 L 1528.35,326.925 L 1528.48,327.037 L 1528.62,327.138 L 1528.77,327.226 L 1528.92,327.301 L 1529.08,327.363 L 1529.25,327.41 L 1529.42,327.443 L 1529.59,327.462 L 1529.76,327.465 L 1529.93,327.454 L 1530.1,327.428 L 1530.27,327.388 L 1530.43,327.333 L 1530.59,327.265 L 1530.74,327.183 L 1530.89,327.089 L 1531.02,326.982 L 1531.15,326.865 L 1531.26,326.737 L 1531.37,326.599 L 1531.46,326.453 L 1531.54,326.3 L 1531.6,326.141 L 1531.65,325.977 L 1531.69,325.808 L 1531.71,325.638 L 1531.72,325.466 L 1529.72,325.466 Z" style="fill:#000000;fill-rule:evenodd;fill-opacity:1;stroke:#000000;stroke-width:0px;stroke-linecap:butt;stroke-linejoin:miter;stroke-opacity:1;"/>
<path d="M 1531.72,340.327 L 1531.71,340.155 L 1531.69,339.984 L 1531.65,339.816 L 1531.6,339.652 L 1531.54,339.492 L 1531.46,339.339 L 1531.37,339.193 L 1531.26,339.056 L 1531.15,338.928 L 1531.02,338.81 L 1530.89,338.704 L 1530.74,338.609 L 1530.59,338.528 L 1530.43,338.459 L 1530.27,338.405 L 1530.1,338.364 L 1529.93,338.338 L 1529.76,338.327 L 1529.59,338.331 L 1529.42,338.349 L 1529.25,338.383 L 1529.08,338.43 L 1528.92,338.492 L 1528.77,338.567 L 1528.62,338.655 L 1528.48,338.756 L 1528.35,338.868 L 1528.23,338.991 L 1528.12,339.124 L 1528.02,339.265 L 1527.94,339.415 L 1527.87,339.571 L 1527.81,339.733 L 1527.76,339.9 L 1527.74,340.069 L 1527.72,340.241 L 1527.72,340.413 L 1527.74,340.584 L 1527.76,340.754 L 1527.81,340.92 L 1527.87,341.082 L 1527.94,341.239 L 1528.02,341.388 L 1528.12,341.53 L 1528.23,341.663 L 1528.35,341.786 L 1528.48,341.898 L 1528.62,341.999 L 1528.77,342.087 L 1528.92,342.162 L 1529.08,342.224 L 1529.25,342.271 L 1529.42,342.304 L 1529.59,342.323 L 1529.76,342.326 L 1529.93,342.315 L 1530.1,342.289 L 1530.27,342.249 L 1530.43,342.194 L 1530.59,342.126 L 1530.74,342.044 L 1530.89,341.95 L 1531.02,341.843 L 1531.15,341.726 L 1531.26,341.598 L 1531.37,341.46 L 1531.46,341.314 L 1531.54,341.161 L 1531.6,341.002 L 1531.65,340.838 L 1531.69,340.669 L 1531.71,340.499 L 1531.72,340.327 L 1529.72,340.327 Z" style="fill:#000000;fill-rule:evenodd;fill-opacity:1;stroke:#000000;stroke-width:0px;stroke-linecap:butt;stroke-linejoin:miter;stroke-opacity:1;"/>
<path d="M 3797.37,348.37 L 3797.36,348.198 L 3797.34,348.028 L 3797.3,347.86 L 3797.25,347.695 L 3797.19,347.536 L 3797.11,347.383 L 3797.02,347.237 L 3796.91,347.1 L 3796.8,346.971 L 3796.67,346.854 L 3796.54,346.747 L 3796.39,346.653 L 3796.24,346.571 L 3796.08,346.503 L 3795.92,346.448 L 3795.75,346.408 L 3795.58,346.382 L 3795.41,346.371 L 3795.24,346.375 L 3795.07,346.393 L 3794.9,346.426 L 3794.73,346.474 L 3794.57,346.535 L 3794.42,346.61 L 3794.27,346.699 L 3794.13,346.799 L 3794,346.911 L 3793.88,347.034 L 3793.77,347.167 L 3793.67,347.309 L 3793.59,347.459 L 3793.52,347.615 L 3793.46,347.777 L 3793.42,347.943 L 3793.39,348.113 L 3793.37,348.284 L 3793.37,348.456 L 3793.39,348.628 L 3793.42,348.797 L 3793.46,348.964 L 3793.52,349.126 L 3793.59,349.282 L 3793.67,349.432 L 3793.77,349.574 L 3793.88,349.707 L 3794,349.83 L 3794.13,349.942 L 3794.27,350.042 L 3794.42,350.13 L 3794.57,350.206 L 3794.73,350.267 L 3794.9,350.315 L 3795.07,350.348 L 3795.24,350.366 L 3795.41,350.37 L 3795.58,350.359 L 3795.75,350.333 L 3795.92,350.293 L 3796.08,350.238 L 3796.24,350.17 L 3796.39,350.088 L 3796.54,349.993 L 3796.67,349.887 L 3796.8,349.769 L 3796.91,349.641 L 3797.02,349.504 L 3797.11,349.358 L 3797.19,349.205 L 3797.25,349.045 L 3797.3,348.881 L 3797.34,348.713 L 3797.36,348.542 L 3797.37,348.37 L 3795.37,348.37 Z" style="fill:#000000;fill-rule:evenodd;fill-opacity:1;stroke:#000000;stroke-width:0px;stroke-linecap:butt;stroke-linejoin:miter;stroke-opacity:1;"/>
<path d="M 3797.37,356.37 L 3797.36,356.198 L 3797.34,356.028 L 3797.3,355.86 L 3797.25,355.695 L 3797.19,355.536 L 3797.11,355.383 L 3797.02,355.237 L 3796.91,355.1 L 3796.8,354.971 L 3796.67,354.854 L 3796.54,354.747 L 3796.39,354.653 L 3796.24,354.571 L 3796.08,354.503 L 3795.92,354.448 L 3795.75,354.408 L 3795.58,354.382 L 3795.41,354.371 L 3795.24,354.375 L 3795.07,354.393 L 3794.9,354.426 L 3794.73,354.474 L 3794.57,354.535 L 3794.42,354.61 L 3794.27,354.699 L 3794.13,354.799 L 3794,354.911 L 3793.88,355.034 L 3793.77,355.167 L 3793.67,355.309 L 3793.59,355.459 L 3793.52,355.615 L 3793.46,355.777 L 3793.42,355.943 L 3793.39,356.113 L 3793.37,356.284 L 3793.37,356.456 L 3793.39,356.628 L 3793.42,356.797 L 3793.46,356.964 L 3793.52,357.126 L 3793.59,357.282 L 3793.67,357.432 L 3793.77,357.574 L 3793.88,357.707 L 3794,357.83 L 3794.13,357.942 L 3794.27,358.042 L 3794.42,358.13 L 3794.57,358.206 L 3794.73,358.267 L 3794.9,358.315 L 3795.07,358.348 L 3795.24,358.366 L 3795.41,358.37 L 3795.58,358.359 L 3795.75,358.333 L 3795.92,358.293 L 3796.08,358.238 L 3796.24,358.17 L 3796.39,358.088 L 3796.54,357.993 L 3796.67,357.887 L 3796.8,357.769 L 3796.91,357.641 L 3797.02,357.504 L 3797.11,357.358 L 3797.19,357.205 L 3797.25,357.045 L 3797.3,356.881 L 3797.34,356.713 L 3797.36,356.542 L 3797.37,356.37 L 3795.37,356.37 Z" style="fill:#000000;fill-rule:evenodd;fill-opacity:1;stroke:#000000;stroke-width:0px;stroke-linecap:butt;stroke-linejoin:miter;stroke-opacity:1;"/>
<path d="M 3651.35,99.4553 L 3651.34,99.2834 L 3651.32,99.1127 L 3651.28,98.9446 L 3651.23,98.7802 L 3651.17,98.6209 L 3651.09,98.4677 L 3651,98.3219 L 3650.89,98.1844 L 3650.78,98.0564 L 3650.65,97.9387 L 3650.52,97.8322 L 3650.37,97.7378 L 3650.22,97.656 L 3650.06,97.5876 L 3649.9,97.533 L 3649.73,97.4927 L 3649.56,97.4669 L 3649.39,97.4558 L 3649.22,97.4595 L 3649.05,97.4779 L 3648.88,97.5111 L 3648.71,97.5586 L 3648.55,97.6201 L 3648.4,97.6953 L 3648.25,97.7834 L 3648.11,97.884 L 3647.98,97.9962 L 3647.86,98.1192 L 3647.75,98.252 L 3647.65,98.3938 L 3647.57,98.5435 L 3647.5,98.6999 L 3647.44,98.8619 L 3647.39,99.0283 L 3647.36,99.1978 L 3647.35,99.3692 L 3647.35,99.5413 L 3647.36,99.7128 L 3647.39,99.8823 L 3647.44,100.049 L 3647.5,100.211 L 3647.57,100.367 L 3647.65,100.517 L 3647.75,100.659 L 3647.86,100.791 L 3647.98,100.914 L 3648.11,101.027 L 3648.25,101.127 L 3648.4,101.215 L 3648.55,101.29 L 3648.71,101.352 L 3648.88,101.4 L 3649.05,101.433 L 3649.22,101.451 L 3649.39,101.455 L 3649.56,101.444 L 3649.73,101.418 L 3649.9,101.378 L 3650.06,101.323 L 3650.22,101.255 L 3650.37,101.173 L 3650.52,101.078 L 3650.65,100.972 L 3650.78,100.854 L 3650.89,100.726 L 3651,100.589 L 3651.09,100.443 L 3651.17,100.29 L 3651.23,100.13 L 3651.28,99.966 L 3651.32,99.7979 L 3651.34,99.6272 L 3651.35,99.4553 L 3649.35,99.4553 Z" style="fill:#000000;fill-rule:evenodd;fill-opacity:1;stroke:#000000;stroke-width:0px;stroke-linecap:butt;stroke-linejoin:miter;stroke-opacity:1;"/>
<path d="M 3651.35,114.316 L 3651.34,114.144 L 3651.32,113.974 L 3651.28,113.806 L 3651.23,113.641 L 3651.17,113.482 L 3651.09,113.329 L 3651,113.183 L 3650.89,113.045 L 3650.78,112.917 L 3650.65,112.8 L 3650.52,112.693 L 3650.37,112.599 L 3650.22,112.517 L 3650.06,112.449 L 3649.9,112.394 L 3649.73,112.354 L 3649.56,112.328 L 3649.39,112.317 L 3649.22,112.32 L 3649.05,112.339 L 3648.88,112.372 L 3648.71,112.42 L 3648.55,112.481 L 3648.4,112.556 L 3648.25,112.644 L 3648.11,112.745 L 3647.98,112.857 L 3647.86,112.98 L 3647.75,113.113 L 3647.65,113.255 L 3647.57,113.404 L 3647.5,113.561 L 3647.44,113.723 L 3647.39,113.889 L 3647.36,114.059 L 3647.35,114.23 L 3647.35,114.402 L 3647.36,114.574 L 3647.39,114.743 L 3647.44,114.91 L 3647.5,115.072 L 3647.57,115.228 L 3647.65,115.378 L 3647.75,115.52 L 3647.86,115.652 L 3647.98,115.775 L 3648.11,115.888 L 3648.25,115.988 L 3648.4,116.076 L 3648.55,116.151 L 3648.71,116.213 L 3648.88,116.261 L 3649.05,116.294 L 3649.22,116.312 L 3649.39,116.316 L 3649.56,116.305 L 3649.73,116.279 L 3649.9,116.239 L 3650.06,116.184 L 3650.22,116.116 L 3650.37,116.034 L 3650.52,115.939 L 3650.65,115.833 L 3650.78,115.715 L 3650.89,115.587 L 3651,115.45 L 3651.09,115.304 L 3651.17,115.151 L 3651.23,114.991 L 3651.28,114.827 L 3651.32,114.659 L 3651.34,114.488 L 3651.35,114.316 L 3649.35,114.316 Z" style="fill:#000000;fill-rule:evenodd;fill-opacity:1;stroke:#000000;stroke-width:0px;stroke-linecap:butt;stroke-linejoin:miter;stroke-opacity:1;"/>
<path d="M 3651.35,84.5943 L 3651.34,84.4224 L 3651.32,84.2517 L 3651.28,84.0836 L 3651.23,83.9192 L 3651.17,83.7599 L 3651.09,83.6067 L 3651,83.4609 L 3650.89,83.3234 L 3650.78,83.1954 L 3650.65,83.0777 L 3650.52,82.9712 L 3650.37,82.8768 L 3650.22,82.795 L 3650.06,82.7266 L 3649.9,82.672 L 3649.73,82.6317 L 3649.56,82.6059 L 3649.39,82.5947 L 3649.22,82.5985 L 3649.05,82.6169 L 3648.88,82.6501 L 3648.71,82.6976 L 3648.55,82.7591 L 3648.4,82.8343 L 3648.25,82.9224 L 3648.11,83.023 L 3647.98,83.1352 L 3647.86,83.2582 L 3647.75,83.391 L 3647.65,83.5328 L 3647.57,83.6825 L 3647.5,83.8389 L 3647.44,84.0009 L 3647.39,84.1672 L 3647.36,84.3368 L 3647.35,84.5082 L 3647.35,84.6803 L 3647.36,84.8518 L 3647.39,85.0213 L 3647.44,85.1877 L 3647.5,85.3497 L 3647.57,85.5061 L 3647.65,85.6557 L 3647.75,85.7975 L 3647.86,85.9304 L 3647.98,86.0534 L 3648.11,86.1656 L 3648.25,86.2661 L 3648.4,86.3543 L 3648.55,86.4295 L 3648.71,86.491 L 3648.88,86.5385 L 3649.05,86.5716 L 3649.22,86.5901 L 3649.39,86.5938 L 3649.56,86.5827 L 3649.73,86.5569 L 3649.9,86.5165 L 3650.06,86.462 L 3650.22,86.3935 L 3650.37,86.3118 L 3650.52,86.2174 L 3650.65,86.1109 L 3650.78,85.9932 L 3650.89,85.8652 L 3651,85.7277 L 3651.09,85.5818 L 3651.17,85.4287 L 3651.23,85.2693 L 3651.28,85.105 L 3651.32,84.9369 L 3651.34,84.7662 L 3651.35,84.5943 L 3649.35,84.5943 Z" style="fill:#000000;fill-rule:evenodd;fill-opacity:1;stroke:#000000;stroke-width:0px;stroke-linecap:butt;stroke-linejoin:miter;stroke-opacity:1;"/>
<path d="M 3651.35,99.4553 L 3651.34,99.2834 L 3651.32,99.1127 L 3651.28,98.9446 L 3651.23,98.7802 L 3651.17,98.6209 L 3651.09,98.4677 L 3651,98.3219 L 3650.89,98.1844 L 3650.78,98.0564 L 3650.65,97.9387 L 3650.52,97.8322 L 3650.37,97.7378 L 3650.22,97.656 L 3650.06,97.5876 L 3649.9,97.533 L 3649.73,97.4927 L 3649.56,97.4669 L 3649.39,97.4558 L 3649.22,97.4595 L 3649.05,97.4779 L 3648.88,97.5111 L 3648.71,97.5586 L 3648.55,97.6201 L 3648.4,97.6953 L 3648.25,97.7834 L 3648.11,97.884 L 3647.98,97.9962 L 3647.86,98.1192 L 3647.75,98.252 L 3647.65,98.3938 L 3647.57,98.5435 L 3647.5,98.6999 L 3647.44,98.8619 L 3647.39,99.0283 L 3647.36,99.1978 L 3647.35,99.3692 L 3647.35,99.5413 L 3647.36,99.7128 L 3647.39,99.8823 L 3647.44,100.049 L 3647.5,100.211 L 3647.57,100.367 L 3647.65,100.517 L 3647.75,100.659 L 3647.86,100.791 L 3647.98,100.914 L 3648.11,101.027 L 3648.25,101.127 L 3648.4,101.215 L 3648.55,101.29 L 3648.71,101.352 L 3648.88,101.4 L 3649.05,101.433 L 3649.22,101.451 L 3649.39,101.455 L 3649.56,101.444 L 3649.73,101.418 L 3649.9,101.378 L 3650.06,101.323 L 3650.22,101.255 L 3650.37,101.173 L 3650.52,101.078 L 3650.65,100.972 L 3650.78,100.854 L 3650.89,100.726 L 3651,100.589 L 3651.09,100.443 L 3651.17,100.29 L 3651.23,100.13 L 3651.28,99.966 L 3651.32,99.7979 L 3651.34,99.6272 L 3651.35,99.4553 L 3649.35,99.4553 Z" style="fill:#000000;fill-rule:evenodd;fill-opacity:1;stroke:#000000;stroke-width:0px;stroke-linecap:butt;stroke-linejoin:miter;stroke-opacity:1;"/>
<path d="M 1020.56 242.048 L 1026.61 242.048 L 1026.61 235.68 L 1029.3 235.68 L 1029.3 242.048 L 1035.51 242.048 L 1035.51 244.352 L 1029.3 244.352 L 1029.3 250.752 L 1026.61 250.752 L 1026.61 244.352 L 1020.56 244.352 L 1020.56 242.048 " fill="#000000"/>
<path d="M 2999.43 242.048 L 3005.48 242.048 L 3005.48 235.68 L 3008.17 235.68 L 3008.17 242.048 L 3014.37 242.048 L 3014.37 244.352 L 3008.17 244.352 L 3008.17 250.752 L 3005.48 250.752 L 3005.48 244.352 L 2999.43 244.352 L 2999.43 242.048 " fill="#000000"/>
<path d="M 1744.72,244.352 L 2194.35,244.352" style="fill:none;fill-rule:evenodd;stroke:#000000;stroke-width:2.0px;stroke-linecap:butt;stroke-linejoin:miter;stroke-opacity:1"/>
<path d="M 2194.35,244.352 L 2174.88,233.111" style="fill:none;fill-rule:evenodd;stroke:#000000;stroke-width:2.0px;stroke-linecap:butt;stroke-linejoin:miter;stroke-opacity:1"/>
<path d="M 2194.35,244.352 L 2174.88,255.592" style="fill:none;fill-rule:evenodd;stroke:#000000;stroke-width:2.0px;stroke-linecap:butt;stroke-linejoin:miter;stroke-opacity:1"/>
</svg>