<svg xmlns="http://www.w3.org/2000/svg" xmlns:rdkit="http://www.rdkit.org/xml" xmlns:xlink="http://www.w3.org/1999/xlink" version="1.1" baseProfile="full" xml:space="preserve" width="4000px" height="500px" viewBox="0 0 4000 500">
<!-- END OF HEADER -->
<rect style="opacity:1.0;fill:#FFFFFF;stroke:none" width="4000" height="500" x="0" y="0"> </rect>
<path d="M 562.806,354.031 L 719.306,263.676" style="fill:none;fill-rule:evenodd;stroke:#FFFFAA;stroke-width:38.6px;stroke-linecap:butt;stroke-linejoin:miter;stroke-opacity:1"/>
<path d="M 719.306,263.676 L 719.306,82.9643" style="fill:none;fill-rule:evenodd;stroke:#FFFFAA;stroke-width:38.6px;stroke-linecap:butt;stroke-linejoin:miter;stroke-opacity:1"/>
<path d="M 719.306,263.676 L 875.807,354.031" style="fill:none;fill-rule:evenodd;stroke:#FFFFAA;stroke-width:38.6px;stroke-linecap:butt;stroke-linejoin:miter;stroke-opacity:1"/>
<path d="M 1525.24,82.9643 L 1525.24,263.676" style="fill:none;fill-rule:evenodd;stroke:#FFCC99;stroke-width:38.6px;stroke-linecap:butt;stroke-linejoin:miter;stroke-opacity:1"/>
<path d="M 1525.24,263.676 L 1368.74,354.031" style="fill:none;fill-rule:evenodd;stroke:#FFCC99;stroke-width:38.6px;stroke-linecap:butt;stroke-linejoin:miter;stroke-opacity:1"/>
<path d="M 1525.24,263.676 L 1681.74,354.031" style="fill:none;fill-rule:evenodd;stroke:#FFCC99;stroke-width:38.6px;stroke-linecap:butt;stroke-linejoin:miter;stroke-opacity:1"/>
<path d="M 2685.87,145.372 L 2822.47,263.676" style="fill:none;fill-rule:evenodd;stroke:#FFFFAA;stroke-width:38.6px;stroke-linecap:butt;stroke-linejoin:miter;stroke-opacity:1"/>
<path d="M 2822.47,263.676 L 2993.23,204.524" style="fill:none;fill-rule:evenodd;stroke:#FFFFAA;stroke-width:38.6px;stroke-linecap:butt;stroke-linejoin:miter;stroke-opacity:1"/>
<path d="M 2822.47,263.676 L 2788.32,441.13" style="fill:none;fill-rule:evenodd;stroke:#FFFFAA;stroke-width:38.6px;stroke-linecap:butt;stroke-linejoin:miter;stroke-opacity:1"/>
<path d="M 3129.83,322.827 L 3300.59,263.676" style="fill:none;fill-rule:evenodd;stroke:#FFCC99;stroke-width:38.6px;stroke-linecap:butt;stroke-linejoin:miter;stroke-opacity:1"/>
<path d="M 3300.59,263.676 L 3437.19,381.979" style="fill:none;fill-rule:evenodd;stroke:#FFCC99;stroke-width:38.6px;stroke-linecap:butt;stroke-linejoin:miter;stroke-opacity:1"/>
<path d="M 3300.59,263.676 L 3334.74,86.2207" style="fill:none;fill-rule:evenodd;stroke:#FFCC99;stroke-width:38.6px;stroke-linecap:butt;stroke-linejoin:miter;stroke-opacity:1"/>
<ellipse cx="562.806" cy="354.031" rx="36.1422" ry="36.1422" style="fill:#FFFFAA;fill-rule:evenodd;stroke:#FFFFAA;stroke-width:1px;stroke-linecap:butt;stroke-linejoin:miter;stroke-opacity:1"/>
<ellipse cx="719.306" cy="263.676" rx="36.1422" ry="36.1422" style="fill:#FFFFAA;fill-rule:evenodd;stroke:#FFFFAA;stroke-width:1px;stroke-linecap:butt;stroke-linejoin:miter;stroke-opacity:1"/>
<ellipse cx="739.043" cy="90.0443" rx="43.1001" ry="36.1422" style="fill:#FFFFAA;fill-rule:evenodd;stroke:#FFFFAA;stroke-width:1px;stroke-linecap:butt;stroke-linejoin:miter;stroke-opacity:1"/>
<ellipse cx="875.807" cy="354.031" rx="36.1422" ry="36.1422" style="fill:#FFFFAA;fill-rule:evenodd;stroke:#FFFFAA;stroke-width:1px;stroke-linecap:butt;stroke-linejoin:miter;stroke-opacity:1"/>
<ellipse cx="1544.98" cy="90.0443" rx="43.1001" ry="36.1422" style="fill:#FFCC99;fill-rule:evenodd;stroke:#FFCC99;stroke-width:1px;stroke-linecap:butt;stroke-linejoin:miter;stroke-opacity:1"/>
<ellipse cx="1525.24" cy="263.676" rx="36.1422" ry="36.1422" style="fill:#FFCC99;fill-rule:evenodd;stroke:#FFCC99;stroke-width:1px;stroke-linecap:butt;stroke-linejoin:miter;stroke-opacity:1"/>
<ellipse cx="1368.74" cy="354.031" rx="36.1422" ry="36.1422" style="fill:#FFCC99;fill-rule:evenodd;stroke:#FFCC99;stroke-width:1px;stroke-linecap:butt;stroke-linejoin:miter;stroke-opacity:1"/>
<ellipse cx="1681.74" cy="354.031" rx="36.1422" ry="36.1422" style="fill:#FFCC99;fill-rule:evenodd;stroke:#FFCC99;stroke-width:1px;stroke-linecap:butt;stroke-linejoin:miter;stroke-opacity:1"/>
<ellipse cx="2685.87" cy="145.372" rx="36.1422" ry="36.1422" style="fill:#FFFFAA;fill-rule:evenodd;stroke:#FFFFAA;stroke-width:1px;stroke-linecap:butt;stroke-linejoin:miter;stroke-opacity:1"/>
<ellipse cx="2822.47" cy="263.676" rx="36.1422" ry="36.1422" style="fill:#FFFFAA;fill-rule:evenodd;stroke:#FFFFAA;stroke-width:1px;stroke-linecap:butt;stroke-linejoin:miter;stroke-opacity:1"/>
<ellipse cx="2993.23" cy="204.524" rx="36.1422" ry="36.1422" style="fill:#FFFFAA;fill-rule:evenodd;stroke:#FFFFAA;stroke-width:1px;stroke-linecap:butt;stroke-linejoin:miter;stroke-opacity:1"/>
<ellipse cx="3129.83" cy="322.827" rx="36.1422" ry="36.1422" style="fill:#FFCC99;fill-rule:evenodd;stroke:#FFCC99;stroke-width:1px;stroke-linecap:butt;stroke-linejoin:miter;stroke-opacity:1"/>
<ellipse cx="3300.59" cy="263.676" rx="36.1422" ry="36.1422" style="fill:#FFCC99;fill-rule:evenodd;stroke:#FFCC99;stroke-width:1px;stroke-linecap:butt;stroke-linejoin:miter;stroke-opacity:1"/>
<ellipse cx="3437.19" cy="381.979" rx="36.1422" ry="36.1422" style="fill:#FFCC99;fill-rule:evenodd;stroke:#FFCC99;stroke-width:1px;stroke-linecap:butt;stroke-linejoin:miter;stroke-opacity:1"/>
<ellipse cx="3334.74" cy="86.2207" rx="36.1422" ry="36.1422" style="fill:#FFCC99;fill-rule:evenodd;stroke:#FFCC99;stroke-width:1px;stroke-linecap:butt;stroke-linejoin:miter;stroke-opacity:1"/>
<ellipse cx="2788.32" cy="441.13" rx="36.1422" ry="36.1422" style="fill:#FFFFAA;fill-rule:evenodd;stroke:#FFFFAA;stroke-width:1px;stroke-linecap:butt;stroke-linejoin:miter;stroke-opacity:1"/>
<path class="bond-0" d="M 571.841,369.681 L 728.342,279.326" style="fill:none;fill-rule:evenodd;stroke:#000000;stroke-width:2.0px;stroke-linecap:butt;stroke-linejoin:miter;stroke-opacity:1"/>
<path class="bond-0" d="M 553.77,338.381 L 710.271,248.026" style="fill:none;fill-rule:evenodd;stroke:#000000;stroke-width:2.0px;stroke-linecap:butt;stroke-linejoin:miter;stroke-opacity:1;stroke-dasharray:6,6"/>
<path class="bond-1" d="M 719.306,263.676 L 719.306,182.659" style="fill:none;fill-rule:evenodd;stroke:#000000;stroke-width:2.0px;stroke-linecap:butt;stroke-linejoin:miter;stroke-opacity:1"/>
<path class="bond-1" d="M 719.306,182.659 L 719.306,101.642" style="fill:none;fill-rule:evenodd;stroke:#0000FF;stroke-width:2.0px;stroke-linecap:butt;stroke-linejoin:miter;stroke-opacity:1"/>
<path class="bond-2" d="M 710.271,279.326 L 866.771,369.681" style="fill:none;fill-rule:evenodd;stroke:#000000;stroke-width:2.0px;stroke-linecap:butt;stroke-linejoin:miter;stroke-opacity:1"/>
<path class="bond-2" d="M 728.342,248.026 L 884.842,338.381" style="fill:none;fill-rule:evenodd;stroke:#000000;stroke-width:2.0px;stroke-linecap:butt;stroke-linejoin:miter;stroke-opacity:1;stroke-dasharray:6,6"/>
<path class="bond-3" d="M 1525.24,101.642 L 1525.24,182.659" style="fill:none;fill-rule:evenodd;stroke:#0000FF;stroke-width:2.0px;stroke-linecap:butt;stroke-linejoin:miter;stroke-opacity:1"/>
<path class="bond-3" d="M 1525.24,182.659 L 1525.24,263.676" style="fill:none;fill-rule:evenodd;stroke:#000000;stroke-width:2.0px;stroke-linecap:butt;stroke-linejoin:miter;stroke-opacity:1"/>
<path class="bond-4" d="M 1516.2,248.026 L 1359.7,338.381" style="fill:none;fill-rule:evenodd;stroke:#000000;stroke-width:2.0px;stroke-linecap:butt;stroke-linejoin:miter;stroke-opacity:1"/>
<path class="bond-4" d="M 1534.27,279.326 L 1377.77,369.681" style="fill:none;fill-rule:evenodd;stroke:#000000;stroke-width:2.0px;stroke-linecap:butt;stroke-linejoin:miter;stroke-opacity:1;stroke-dasharray:6,6"/>
<path class="bond-5" d="M 1516.2,279.326 L 1672.7,369.681" style="fill:none;fill-rule:evenodd;stroke:#000000;stroke-width:2.0px;stroke-linecap:butt;stroke-linejoin:miter;stroke-opacity:1"/>
<path class="bond-5" d="M 1534.27,248.026 L 1690.78,338.381" style="fill:none;fill-rule:evenodd;stroke:#000000;stroke-width:2.0px;stroke-linecap:butt;stroke-linejoin:miter;stroke-opacity:1;stroke-dasharray:6,6"/>
<path class="bond-6" d="M 2674.04,159.033 L 2810.64,277.336" style="fill:none;fill-rule:evenodd;stroke:#000000;stroke-width:2.0px;stroke-linecap:butt;stroke-linejoin:miter;stroke-opacity:1"/>
<path class="bond-6" d="M 2697.7,131.712 L 2834.3,250.015" style="fill:none;fill-rule:evenodd;stroke:#000000;stroke-width:2.0px;stroke-linecap:butt;stroke-linejoin:miter;stroke-opacity:1;stroke-dasharray:6,6"/>
<path class="bond-7" d="M 2822.47,263.676 L 2900.22,236.742" style="fill:none;fill-rule:evenodd;stroke:#000000;stroke-width:2.0px;stroke-linecap:butt;stroke-linejoin:miter;stroke-opacity:1"/>
<path class="bond-7" d="M 2900.22,236.742 L 2977.97,209.809" style="fill:none;fill-rule:evenodd;stroke:#0000FF;stroke-width:2.0px;stroke-linecap:butt;stroke-linejoin:miter;stroke-opacity:1"/>
<path class="bond-12" d="M 2804.73,260.26 L 2770.58,437.715" style="fill:none;fill-rule:evenodd;stroke:#000000;stroke-width:2.0px;stroke-linecap:butt;stroke-linejoin:miter;stroke-opacity:1"/>
<path class="bond-12" d="M 2840.22,267.091 L 2806.07,444.546" style="fill:none;fill-rule:evenodd;stroke:#000000;stroke-width:2.0px;stroke-linecap:butt;stroke-linejoin:miter;stroke-opacity:1;stroke-dasharray:6,6"/>
<path class="bond-8" d="M 3008.49,217.738 L 3115.08,310.051" style="fill:none;fill-rule:evenodd;stroke:#0000FF;stroke-width:2.0px;stroke-linecap:butt;stroke-linejoin:miter;stroke-opacity:1"/>
<path class="bond-8" d="M 3000.81,258.905 L 3075.43,323.525" style="fill:none;fill-rule:evenodd;stroke:#0000FF;stroke-width:2.0px;stroke-linecap:butt;stroke-linejoin:miter;stroke-opacity:1"/>
<path class="bond-9" d="M 3145.09,317.542 L 3222.84,290.609" style="fill:none;fill-rule:evenodd;stroke:#0000FF;stroke-width:2.0px;stroke-linecap:butt;stroke-linejoin:miter;stroke-opacity:1"/>
<path class="bond-9" d="M 3222.84,290.609 L 3300.59,263.676" style="fill:none;fill-rule:evenodd;stroke:#000000;stroke-width:2.0px;stroke-linecap:butt;stroke-linejoin:miter;stroke-opacity:1"/>
<path class="bond-10" d="M 3288.76,277.336 L 3425.36,395.639" style="fill:none;fill-rule:evenodd;stroke:#000000;stroke-width:2.0px;stroke-linecap:butt;stroke-linejoin:miter;stroke-opacity:1"/>
<path class="bond-10" d="M 3312.42,250.015 L 3449.02,368.318" style="fill:none;fill-rule:evenodd;stroke:#000000;stroke-width:2.0px;stroke-linecap:butt;stroke-linejoin:miter;stroke-opacity:1;stroke-dasharray:6,6"/>
<path class="bond-11" d="M 3318.34,267.091 L 3352.49,89.6358" style="fill:none;fill-rule:evenodd;stroke:#000000;stroke-width:2.0px;stroke-linecap:butt;stroke-linejoin:miter;stroke-opacity:1"/>
<path class="bond-11" d="M 3282.84,260.26 L 3317,82.8056" style="fill:none;fill-rule:evenodd;stroke:#000000;stroke-width:2.0px;stroke-linecap:butt;stroke-linejoin:miter;stroke-opacity:1;stroke-dasharray:6,6"/>
<path class="atom-2" d="M 713.046 68.8043 L 722.326 83.8043 Q 723.246 85.2843, 724.726 87.9643 Q 726.206 90.6443, 726.286 90.8043 L 726.286 68.8043 L 730.046 68.8043 L 730.046 97.1243 L 726.166 97.1243 L 716.206 80.7243 Q 715.046 78.8043, 713.806 76.6043 Q 712.606 74.4043, 712.246 73.7243 L 712.246 97.1243 L 708.566 97.1243 L 708.566 68.8043 L 713.046 68.8043 " fill="#0000FF"/>
<path class="atom-2" d="M 733.446 68.8043 L 737.286 68.8043 L 737.286 80.8443 L 751.766 80.8443 L 751.766 68.8043 L 755.606 68.8043 L 755.606 97.1243 L 751.766 97.1243 L 751.766 84.0443 L 737.286 84.0443 L 737.286 97.1243 L 733.446 97.1243 L 733.446 68.8043 " fill="#0000FF"/>
<path class="atom-2" d="M 756.979 96.1307 Q 757.665 94.3619, 759.302 93.3851 Q 760.939 92.3819, 763.209 92.3819 Q 766.034 92.3819, 767.618 93.9131 Q 769.202 95.4443, 769.202 98.1635 Q 769.202 100.936, 767.143 103.523 Q 765.11 106.11, 760.886 109.172 L 769.519 109.172 L 769.519 111.284 L 756.926 111.284 L 756.926 109.516 Q 760.411 107.034, 762.47 105.186 Q 764.556 103.338, 765.559 101.675 Q 766.562 100.012, 766.562 98.2955 Q 766.562 96.5003, 765.665 95.4971 Q 764.767 94.4939, 763.209 94.4939 Q 761.705 94.4939, 760.701 95.1011 Q 759.698 95.7083, 758.985 97.0547 L 756.979 96.1307 " fill="#0000FF"/>
<path class="atom-4" d="M 1518.98 68.8043 L 1528.26 83.8043 Q 1529.18 85.2843, 1530.66 87.9643 Q 1532.14 90.6443, 1532.22 90.8043 L 1532.22 68.8043 L 1535.98 68.8043 L 1535.98 97.1243 L 1532.1 97.1243 L 1522.14 80.7243 Q 1520.98 78.8043, 1519.74 76.6043 Q 1518.54 74.4043, 1518.18 73.7243 L 1518.18 97.1243 L 1514.5 97.1243 L 1514.5 68.8043 L 1518.98 68.8043 " fill="#0000FF"/>
<path class="atom-4" d="M 1539.38 68.8043 L 1543.22 68.8043 L 1543.22 80.8443 L 1557.7 80.8443 L 1557.7 68.8043 L 1561.54 68.8043 L 1561.54 97.1243 L 1557.7 97.1243 L 1557.7 84.0443 L 1543.22 84.0443 L 1543.22 97.1243 L 1539.38 97.1243 L 1539.38 68.8043 " fill="#0000FF"/>
<path class="atom-4" d="M 1562.91 96.1307 Q 1563.6 94.3619, 1565.24 93.3851 Q 1566.87 92.3819, 1569.14 92.3819 Q 1571.97 92.3819, 1573.55 93.9131 Q 1575.14 95.4443, 1575.14 98.1635 Q 1575.14 100.936, 1573.08 103.523 Q 1571.04 106.11, 1566.82 109.172 L 1575.45 109.172 L 1575.45 111.284 L 1562.86 111.284 L 1562.86 109.516 Q 1566.34 107.034, 1568.4 105.186 Q 1570.49 103.338, 1571.49 101.675 Q 1572.5 100.012, 1572.5 98.2955 Q 1572.5 96.5003, 1571.6 95.4971 Q 1570.7 94.4939, 1569.14 94.4939 Q 1567.64 94.4939, 1566.63 95.1011 Q 1565.63 95.7083, 1564.92 97.0547 L 1562.91 96.1307 " fill="#0000FF"/>
<path class="atom-10" d="M 2986.97 190.364 L 2996.25 205.364 Q 2997.17 206.844, 2998.65 209.524 Q 3000.13 212.204, 3000.21 212.364 L 3000.21 190.364 L 3003.97 190.364 L 3003.97 218.684 L 3000.09 218.684 L 2990.13 202.284 Q 2988.97 200.364, 2987.73 198.164 Q 2986.53 195.964, 2986.17 195.284 L 2986.17 218.684 L 2982.49 218.684 L 2982.49 190.364 L 2986.97 190.364 " fill="#0000FF"/>
<path class="atom-11" d="M 3123.57 308.667 L 3132.85 323.667 Q 3133.77 325.147, 3135.25 327.827 Q 3136.73 330.507, 3136.81 330.667 L 3136.81 308.667 L 3140.57 308.667 L 3140.57 336.987 L 3136.69 336.987 L 3126.73 320.587 Q 3125.57 318.667, 3124.33 316.467 Q 3123.13 314.267, 3122.77 313.587 L 3122.77 336.987 L 3119.09 336.987 L 3119.09 308.667 L 3123.57 308.667 " fill="#0000FF"/>
<path class="note" d="M 538.942 338.632 Q 540.242 339.192, 540.982 340.032 Q 541.722 340.852, 541.722 342.252 Q 541.722 343.452, 541.102 344.392 Q 540.482 345.312, 539.362 345.832 Q 538.262 346.332, 536.802 346.332 Q 534.442 346.332, 533.082 345.252 Q 531.722 344.152, 531.722 342.252 Q 531.722 341.092, 532.322 340.232 Q 532.922 339.352, 534.162 338.692 Q 533.242 338.172, 532.742 337.412 Q 532.242 336.632, 532.242 335.432 Q 532.242 333.772, 533.442 332.792 Q 534.662 331.812, 536.722 331.812 Q 538.782 331.812, 539.982 332.792 Q 541.202 333.772, 541.202 335.432 Q 541.202 336.472, 540.622 337.252 Q 540.062 338.012, 538.942 338.632 M 536.722 333.312 Q 535.542 333.312, 534.882 333.872 Q 534.242 334.432, 534.242 335.432 Q 534.242 336.172, 534.682 336.672 Q 535.122 337.152, 535.742 337.432 Q 536.382 337.712, 537.602 338.132 Q 538.462 337.532, 538.822 336.892 Q 539.202 336.252, 539.202 335.432 Q 539.202 334.432, 538.542 333.872 Q 537.902 333.312, 536.722 333.312 M 536.802 344.832 Q 538.122 344.832, 538.922 344.132 Q 539.722 343.412, 539.722 342.232 Q 539.722 341.472, 539.302 340.992 Q 538.882 340.512, 538.242 340.232 Q 537.622 339.952, 536.502 339.592 L 535.602 339.292 Q 534.602 339.892, 534.162 340.612 Q 533.722 341.312, 533.722 342.232 Q 533.722 343.412, 534.562 344.132 Q 535.402 344.832, 536.802 344.832 " fill="#000000"/>
<path class="note" d="M 666.989 226.397 Q 669.509 226.397, 670.769 228.117 Q 672.049 229.817, 672.049 233.217 Q 672.049 236.977, 670.469 238.937 Q 668.909 240.877, 665.889 240.877 Q 665.009 240.877, 664.249 240.677 Q 663.509 240.477, 662.789 240.057 L 663.569 238.717 Q 664.609 239.277, 665.869 239.277 Q 667.869 239.277, 668.889 237.997 Q 669.909 236.697, 670.029 234.037 Q 669.309 234.697, 668.389 235.057 Q 667.489 235.397, 666.509 235.397 Q 665.269 235.397, 664.289 234.857 Q 663.309 234.317, 662.769 233.337 Q 662.229 232.357, 662.229 231.117 Q 662.229 229.737, 662.829 228.677 Q 663.449 227.597, 664.529 226.997 Q 665.609 226.397, 666.989 226.397 M 664.229 231.097 Q 664.229 232.357, 664.929 233.077 Q 665.629 233.797, 666.869 233.797 Q 667.729 233.797, 668.569 233.457 Q 669.429 233.097, 670.029 232.497 Q 669.949 230.157, 669.209 229.097 Q 668.469 228.037, 666.969 228.037 Q 666.209 228.037, 665.569 228.437 Q 664.949 228.837, 664.589 229.537 Q 664.229 230.237, 664.229 231.097 " fill="#000000"/>
<path class="note" d="M 705.756 28.2873 L 708.856 28.2873 L 708.856 17.7073 L 705.436 18.7673 L 704.976 17.5873 L 709.316 15.6473 L 710.736 15.8873 L 710.736 28.2873 L 713.516 28.2873 L 713.516 29.8873 L 705.756 29.8873 L 705.756 28.2873 " fill="#000000"/>
<path class="note" d="M 719.916 30.0473 Q 717.316 30.0473, 716.016 28.1273 Q 714.736 26.2073, 714.736 22.7873 Q 714.736 19.3673, 716.016 17.4673 Q 717.296 15.5673, 719.916 15.5673 Q 722.536 15.5673, 723.816 17.4673 Q 725.096 19.3673, 725.096 22.7873 Q 725.096 26.2073, 723.796 28.1273 Q 722.516 30.0473, 719.916 30.0473 M 719.916 28.4473 Q 721.456 28.4473, 722.276 27.0273 Q 723.096 25.5873, 723.096 22.7873 Q 723.096 20.0073, 722.276 18.5873 Q 721.456 17.1673, 719.916 17.1673 Q 718.396 17.1673, 717.556 18.5873 Q 716.736 20.0073, 716.736 22.7873 Q 716.736 25.5873, 717.556 27.0273 Q 718.396 28.4473, 719.916 28.4473 " fill="#000000"/>
<path class="note" d="M 891.245 297.544 Q 891.765 296.204, 893.005 295.464 Q 894.245 294.704, 895.965 294.704 Q 898.105 294.704, 899.305 295.864 Q 900.505 297.024, 900.505 299.084 Q 900.505 301.184, 898.945 303.144 Q 897.405 305.104, 894.205 307.424 L 900.745 307.424 L 900.745 309.024 L 891.205 309.024 L 891.205 307.684 Q 893.845 305.804, 895.405 304.404 Q 896.985 303.004, 897.745 301.744 Q 898.505 300.484, 898.505 299.184 Q 898.505 297.824, 897.825 297.064 Q 897.145 296.304, 895.965 296.304 Q 894.825 296.304, 894.065 296.764 Q 893.305 297.224, 892.765 298.244 L 891.245 297.544 " fill="#000000"/>
<path class="note" d="M 908.385 301.564 Q 909.765 301.964, 910.425 302.864 Q 911.105 303.744, 911.105 305.144 Q 911.105 306.344, 910.505 307.284 Q 909.905 308.204, 908.805 308.724 Q 907.705 309.224, 906.265 309.224 Q 904.745 309.224, 903.605 308.704 Q 902.485 308.164, 901.585 307.084 L 902.725 305.924 Q 903.605 306.884, 904.345 307.264 Q 905.085 307.624, 906.265 307.624 Q 907.545 307.624, 908.325 306.944 Q 909.105 306.244, 909.105 305.124 Q 909.105 303.684, 908.285 303.044 Q 907.485 302.384, 905.745 302.384 L 904.725 302.384 L 904.725 300.944 L 905.625 300.944 Q 907.165 300.924, 907.985 300.264 Q 908.805 299.584, 908.805 298.324 Q 908.805 297.404, 908.125 296.864 Q 907.445 296.304, 906.285 296.304 Q 905.105 296.304, 904.365 296.724 Q 903.645 297.144, 903.085 298.204 L 901.705 297.464 Q 902.205 296.284, 903.405 295.504 Q 904.605 294.704, 906.285 294.704 Q 908.365 294.704, 909.585 295.684 Q 910.805 296.664, 910.805 298.324 Q 910.805 299.464, 910.185 300.284 Q 909.565 301.104, 908.385 301.564 " fill="#000000"/>
<path class="note" d="M 1512.67 28.2473 L 1515.77 28.2473 L 1515.77 17.6673 L 1512.35 18.7273 L 1511.89 17.5473 L 1516.23 15.6073 L 1517.65 15.8473 L 1517.65 28.2473 L 1520.43 28.2473 L 1520.43 29.8473 L 1512.67 29.8473 L 1512.67 28.2473 " fill="#000000"/>
<path class="note" d="M 1522.29 28.2473 L 1525.39 28.2473 L 1525.39 17.6673 L 1521.97 18.7273 L 1521.51 17.5473 L 1525.85 15.6073 L 1527.27 15.8473 L 1527.27 28.2473 L 1530.05 28.2473 L 1530.05 29.8473 L 1522.29 29.8473 L 1522.29 28.2473 " fill="#000000"/>
<path class="note" d="M 1460.04 239.117 L 1463.14 239.117 L 1463.14 228.537 L 1459.72 229.597 L 1459.26 228.417 L 1463.6 226.477 L 1465.02 226.717 L 1465.02 239.117 L 1467.8 239.117 L 1467.8 240.717 L 1460.04 240.717 L 1460.04 239.117 " fill="#000000"/>
<path class="note" d="M 1468.84 229.237 Q 1469.36 227.897, 1470.6 227.157 Q 1471.84 226.397, 1473.56 226.397 Q 1475.7 226.397, 1476.9 227.557 Q 1478.1 228.717, 1478.1 230.777 Q 1478.1 232.877, 1476.54 234.837 Q 1475 236.797, 1471.8 239.117 L 1478.34 239.117 L 1478.34 240.717 L 1468.8 240.717 L 1468.8 239.377 Q 1471.44 237.497, 1473 236.097 Q 1474.58 234.697, 1475.34 233.437 Q 1476.1 232.177, 1476.1 230.877 Q 1476.1 229.517, 1475.42 228.757 Q 1474.74 227.997, 1473.56 227.997 Q 1472.42 227.997, 1471.66 228.457 Q 1470.9 228.917, 1470.36 229.937 L 1468.84 229.237 " fill="#000000"/>
<path class="note" d="M 1329.72 344.532 L 1332.82 344.532 L 1332.82 333.952 L 1329.4 335.012 L 1328.94 333.832 L 1333.28 331.892 L 1334.7 332.132 L 1334.7 344.532 L 1337.48 344.532 L 1337.48 346.132 L 1329.72 346.132 L 1329.72 344.532 " fill="#000000"/>
<path class="note" d="M 1345.12 338.672 Q 1346.5 339.072, 1347.16 339.972 Q 1347.84 340.852, 1347.84 342.252 Q 1347.84 343.452, 1347.24 344.392 Q 1346.64 345.312, 1345.54 345.832 Q 1344.44 346.332, 1343 346.332 Q 1341.48 346.332, 1340.34 345.812 Q 1339.22 345.272, 1338.32 344.192 L 1339.46 343.032 Q 1340.34 343.992, 1341.08 344.372 Q 1341.82 344.732, 1343 344.732 Q 1344.28 344.732, 1345.06 344.052 Q 1345.84 343.352, 1345.84 342.232 Q 1345.84 340.792, 1345.02 340.152 Q 1344.22 339.492, 1342.48 339.492 L 1341.46 339.492 L 1341.46 338.052 L 1342.36 338.052 Q 1343.9 338.032, 1344.72 337.372 Q 1345.54 336.692, 1345.54 335.432 Q 1345.54 334.512, 1344.86 333.972 Q 1344.18 333.412, 1343.02 333.412 Q 1341.84 333.412, 1341.1 333.832 Q 1340.38 334.252, 1339.82 335.312 L 1338.44 334.572 Q 1338.94 333.392, 1340.14 332.612 Q 1341.34 331.812, 1343.02 331.812 Q 1345.1 331.812, 1346.32 332.792 Q 1347.54 333.772, 1347.54 335.432 Q 1347.54 336.572, 1346.92 337.392 Q 1346.3 338.212, 1345.12 338.672 " fill="#000000"/>
<path class="note" d="M 1697.09 297.544 Q 1697.61 296.204, 1698.85 295.464 Q 1700.09 294.704, 1701.81 294.704 Q 1703.95 294.704, 1705.15 295.864 Q 1706.35 297.024, 1706.35 299.084 Q 1706.35 301.184, 1704.79 303.144 Q 1703.25 305.104, 1700.05 307.424 L 1706.59 307.424 L 1706.59 309.024 L 1697.05 309.024 L 1697.05 307.684 Q 1699.69 305.804, 1701.25 304.404 Q 1702.83 303.004, 1703.59 301.744 Q 1704.35 300.484, 1704.35 299.184 Q 1704.35 297.824, 1703.67 297.064 Q 1702.99 296.304, 1701.81 296.304 Q 1700.67 296.304, 1699.91 296.764 Q 1699.15 297.224, 1698.61 298.244 L 1697.09 297.544 " fill="#000000"/>
<path class="note" d="M 1707.63 297.544 Q 1708.15 296.204, 1709.39 295.464 Q 1710.63 294.704, 1712.35 294.704 Q 1714.49 294.704, 1715.69 295.864 Q 1716.89 297.024, 1716.89 299.084 Q 1716.89 301.184, 1715.33 303.144 Q 1713.79 305.104, 1710.59 307.424 L 1717.13 307.424 L 1717.13 309.024 L 1707.59 309.024 L 1707.59 307.684 Q 1710.23 305.804, 1711.79 304.404 Q 1713.37 303.004, 1714.13 301.744 Q 1714.89 300.484, 1714.89 299.184 Q 1714.89 297.824, 1714.21 297.064 Q 1713.53 296.304, 1712.35 296.304 Q 1711.21 296.304, 1710.45 296.764 Q 1709.69 297.224, 1709.15 298.244 L 1707.63 297.544 " fill="#000000"/>
<path class="note" d="M 2678.23 116.573 Q 2679.53 117.133, 2680.27 117.973 Q 2681.01 118.793, 2681.01 120.193 Q 2681.01 121.393, 2680.39 122.333 Q 2679.77 123.253, 2678.65 123.773 Q 2677.55 124.273, 2676.09 124.273 Q 2673.73 124.273, 2672.37 123.193 Q 2671.01 122.093, 2671.01 120.193 Q 2671.01 119.033, 2671.61 118.173 Q 2672.21 117.293, 2673.45 116.633 Q 2672.53 116.113, 2672.03 115.353 Q 2671.53 114.573, 2671.53 113.373 Q 2671.53 111.713, 2672.73 110.733 Q 2673.95 109.753, 2676.01 109.753 Q 2678.07 109.753, 2679.27 110.733 Q 2680.49 111.713, 2680.49 113.373 Q 2680.49 114.413, 2679.91 115.193 Q 2679.35 115.953, 2678.23 116.573 M 2676.01 111.253 Q 2674.83 111.253, 2674.17 111.813 Q 2673.53 112.373, 2673.53 113.373 Q 2673.53 114.113, 2673.97 114.613 Q 2674.41 115.093, 2675.03 115.373 Q 2675.67 115.653, 2676.89 116.073 Q 2677.75 115.473, 2678.11 114.833 Q 2678.49 114.193, 2678.49 113.373 Q 2678.49 112.373, 2677.83 111.813 Q 2677.19 111.253, 2676.01 111.253 M 2676.09 122.773 Q 2677.41 122.773, 2678.21 122.073 Q 2679.01 121.353, 2679.01 120.173 Q 2679.01 119.413, 2678.59 118.933 Q 2678.17 118.453, 2677.53 118.173 Q 2676.91 117.893, 2675.79 117.533 L 2674.89 117.233 Q 2673.89 117.833, 2673.45 118.553 Q 2673.01 119.253, 2673.01 120.173 Q 2673.01 121.353, 2673.85 122.073 Q 2674.69 122.773, 2676.09 122.773 " fill="#000000"/>
<path class="note" d="M 2833.71 197.364 Q 2836.23 197.364, 2837.49 199.084 Q 2838.77 200.784, 2838.77 204.184 Q 2838.77 207.944, 2837.19 209.904 Q 2835.63 211.844, 2832.61 211.844 Q 2831.73 211.844, 2830.97 211.644 Q 2830.23 211.444, 2829.51 211.024 L 2830.29 209.684 Q 2831.33 210.244, 2832.59 210.244 Q 2834.59 210.244, 2835.61 208.964 Q 2836.63 207.664, 2836.75 205.004 Q 2836.03 205.664, 2835.11 206.024 Q 2834.21 206.364, 2833.23 206.364 Q 2831.99 206.364, 2831.01 205.824 Q 2830.03 205.284, 2829.49 204.304 Q 2828.95 203.324, 2828.95 202.084 Q 2828.95 200.704, 2829.55 199.644 Q 2830.17 198.564, 2831.25 197.964 Q 2832.33 197.364, 2833.71 197.364 M 2830.95 202.064 Q 2830.95 203.324, 2831.65 204.044 Q 2832.35 204.764, 2833.59 204.764 Q 2834.45 204.764, 2835.29 204.424 Q 2836.15 204.064, 2836.75 203.464 Q 2836.67 201.124, 2835.93 200.064 Q 2835.19 199.004, 2833.69 199.004 Q 2832.93 199.004, 2832.29 199.404 Q 2831.67 199.804, 2831.31 200.504 Q 2830.95 201.204, 2830.95 202.064 " fill="#000000"/>
<path class="note" d="M 2991.06 150.932 L 2994.16 150.932 L 2994.16 140.352 L 2990.74 141.412 L 2990.28 140.232 L 2994.62 138.292 L 2996.04 138.532 L 2996.04 150.932 L 2998.82 150.932 L 2998.82 152.532 L 2991.06 152.532 L 2991.06 150.932 " fill="#000000"/>
<path class="note" d="M 3005.22 152.692 Q 3002.62 152.692, 3001.32 150.772 Q 3000.04 148.852, 3000.04 145.432 Q 3000.04 142.012, 3001.32 140.112 Q 3002.6 138.212, 3005.22 138.212 Q 3007.84 138.212, 3009.12 140.112 Q 3010.4 142.012, 3010.4 145.432 Q 3010.4 148.852, 3009.1 150.772 Q 3007.82 152.692, 3005.22 152.692 M 3005.22 151.092 Q 3006.76 151.092, 3007.58 149.672 Q 3008.4 148.232, 3008.4 145.432 Q 3008.4 142.652, 3007.58 141.232 Q 3006.76 139.812, 3005.22 139.812 Q 3003.7 139.812, 3002.86 141.232 Q 3002.04 142.652, 3002.04 145.432 Q 3002.04 148.232, 3002.86 149.672 Q 3003.7 151.092, 3005.22 151.092 " fill="#000000"/>
<path class="note" d="M 3105.88 387.499 L 3108.98 387.499 L 3108.98 376.919 L 3105.56 377.979 L 3105.1 376.799 L 3109.44 374.859 L 3110.86 375.099 L 3110.86 387.499 L 3113.64 387.499 L 3113.64 389.099 L 3105.88 389.099 L 3105.88 387.499 " fill="#000000"/>
<path class="note" d="M 3115.5 387.499 L 3118.6 387.499 L 3118.6 376.919 L 3115.18 377.979 L 3114.72 376.799 L 3119.06 374.859 L 3120.48 375.099 L 3120.48 387.499 L 3123.26 387.499 L 3123.26 389.099 L 3115.5 389.099 L 3115.5 387.499 " fill="#000000"/>
<path class="note" d="M 3276.18 328.387 L 3279.28 328.387 L 3279.28 317.807 L 3275.86 318.867 L 3275.4 317.687 L 3279.74 315.747 L 3281.16 315.987 L 3281.16 328.387 L 3283.94 328.387 L 3283.94 329.987 L 3276.18 329.987 L 3276.18 328.387 " fill="#000000"/>
<path class="note" d="M 3284.98 318.507 Q 3285.5 317.167, 3286.74 316.427 Q 3287.98 315.667, 3289.7 315.667 Q 3291.84 315.667, 3293.04 316.827 Q 3294.24 317.987, 3294.24 320.047 Q 3294.24 322.147, 3292.68 324.107 Q 3291.14 326.067, 3287.94 328.387 L 3294.48 328.387 L 3294.48 329.987 L 3284.94 329.987 L 3284.94 328.647 Q 3287.58 326.767, 3289.14 325.367 Q 3290.72 323.967, 3291.48 322.707 Q 3292.24 321.447, 3292.24 320.147 Q 3292.24 318.787, 3291.56 318.027 Q 3290.88 317.267, 3289.7 317.267 Q 3288.56 317.267, 3287.8 317.727 Q 3287.04 318.187, 3286.5 319.207 L 3284.98 318.507 " fill="#000000"/>
<path class="note" d="M 3447.02 407.256 L 3450.12 407.256 L 3450.12 396.676 L 3446.7 397.736 L 3446.24 396.556 L 3450.58 394.616 L 3452 394.856 L 3452 407.256 L 3454.78 407.256 L 3454.78 408.856 L 3447.02 408.856 L 3447.02 407.256 " fill="#000000"/>
<path class="note" d="M 3462.42 401.396 Q 3463.8 401.796, 3464.46 402.696 Q 3465.14 403.576, 3465.14 404.976 Q 3465.14 406.176, 3464.54 407.116 Q 3463.94 408.036, 3462.84 408.556 Q 3461.74 409.056, 3460.3 409.056 Q 3458.78 409.056, 3457.64 408.536 Q 3456.52 407.996, 3455.62 406.916 L 3456.76 405.756 Q 3457.64 406.716, 3458.38 407.096 Q 3459.12 407.456, 3460.3 407.456 Q 3461.58 407.456, 3462.36 406.776 Q 3463.14 406.076, 3463.14 404.956 Q 3463.14 403.516, 3462.32 402.876 Q 3461.52 402.216, 3459.78 402.216 L 3458.76 402.216 L 3458.76 400.776 L 3459.66 400.776 Q 3461.2 400.756, 3462.02 400.096 Q 3462.84 399.416, 3462.84 398.156 Q 3462.84 397.236, 3462.16 396.696 Q 3461.48 396.136, 3460.32 396.136 Q 3459.14 396.136, 3458.4 396.556 Q 3457.68 396.976, 3457.12 398.036 L 3455.74 397.296 Q 3456.24 396.116, 3457.44 395.336 Q 3458.64 394.536, 3460.32 394.536 Q 3462.4 394.536, 3463.62 395.516 Q 3464.84 396.496, 3464.84 398.156 Q 3464.84 399.296, 3464.22 400.116 Q 3463.6 400.936, 3462.42 401.396 " fill="#000000"/>
<path class="note" d="M 3339.69 59.1332 Q 3340.21 57.7932, 3341.45 57.0532 Q 3342.69 56.2932, 3344.41 56.2932 Q 3346.55 56.2932, 3347.75 57.4532 Q 3348.95 58.6132, 3348.95 60.6732 Q 3348.95 62.7732, 3347.39 64.7332 Q 3345.85 66.6932, 3342.65 69.0132 L 3349.19 69.0132 L 3349.19 70.6132 L 3339.65 70.6132 L 3339.65 69.2732 Q 3342.29 67.3932, 3343.85 65.9932 Q 3345.43 64.5932, 3346.19 63.3332 Q 3346.95 62.0732, 3346.95 60.7732 Q 3346.95 59.4132, 3346.27 58.6532 Q 3345.59 57.8932, 3344.41 57.8932 Q 3343.27 57.8932, 3342.51 58.3532 Q 3341.75 58.8132, 3341.21 59.8332 L 3339.69 59.1332 " fill="#000000"/>
<path class="note" d="M 3350.23 59.1332 Q 3350.75 57.7932, 3351.99 57.0532 Q 3353.23 56.2932, 3354.95 56.2932 Q 3357.09 56.2932, 3358.29 57.4532 Q 3359.49 58.6132, 3359.49 60.6732 Q 3359.49 62.7732, 3357.93 64.7332 Q 3356.39 66.6932, 3353.19 69.0132 L 3359.73 69.0132 L 3359.73 70.6132 L 3350.19 70.6132 L 3350.19 69.2732 Q 3352.83 67.3932, 3354.39 65.9932 Q 3355.97 64.5932, 3356.73 63.3332 Q 3357.49 62.0732, 3357.49 60.7732 Q 3357.49 59.4132, 3356.81 58.6532 Q 3356.13 57.8932, 3354.95 57.8932 Q 3353.81 57.8932, 3353.05 58.3532 Q 3352.29 58.8132, 3351.75 59.8332 L 3350.23 59.1332 " fill="#000000"/>
<path class="note" d="M 2753.92 459.578 Q 2754.44 458.238, 2755.68 457.498 Q 2756.92 456.738, 2758.64 456.738 Q 2760.78 456.738, 2761.98 457.898 Q 2763.18 459.058, 2763.18 461.118 Q 2763.18 463.218, 2761.62 465.178 Q 2760.08 467.138, 2756.88 469.458 L 2763.42 469.458 L 2763.42 471.058 L 2753.88 471.058 L 2753.88 469.718 Q 2756.52 467.838, 2758.08 466.438 Q 2759.66 465.038, 2760.42 463.778 Q 2761.18 462.518, 2761.18 461.218 Q 2761.18 459.858, 2760.5 459.098 Q 2759.82 458.338, 2758.64 458.338 Q 2757.5 458.338, 2756.74 458.798 Q 2755.98 459.258, 2755.44 460.278 L 2753.92 459.578 " fill="#000000"/>
<path class="note" d="M 2771.06 463.598 Q 2772.44 463.998, 2773.1 464.898 Q 2773.78 465.778, 2773.78 467.178 Q 2773.78 468.378, 2773.18 469.318 Q 2772.58 470.238, 2771.48 470.758 Q 2770.38 471.258, 2768.94 471.258 Q 2767.42 471.258, 2766.28 470.738 Q 2765.16 470.198, 2764.26 469.118 L 2765.4 467.958 Q 2766.28 468.918, 2767.02 469.298 Q 2767.76 469.658, 2768.94 469.658 Q 2770.22 469.658, 2771 468.978 Q 2771.78 468.278, 2771.78 467.158 Q 2771.78 465.718, 2770.96 465.078 Q 2770.16 464.418, 2768.42 464.418 L 2767.4 464.418 L 2767.4 462.978 L 2768.3 462.978 Q 2769.84 462.958, 2770.66 462.298 Q 2771.48 461.618, 2771.48 460.358 Q 2771.48 459.438, 2770.8 458.898 Q 2770.12 458.338, 2768.96 458.338 Q 2767.78 458.338, 2767.04 458.758 Q 2766.32 459.178, 2765.76 460.238 L 2764.38 459.498 Q 2764.88 458.318, 2766.08 457.538 Q 2767.28 456.738, 2768.96 456.738 Q 2771.04 456.738, 2772.26 457.718 Q 2773.48 458.698, 2773.48 460.358 Q 2773.48 461.498, 2772.86 462.318 Q 2772.24 463.138, 2771.06 463.598 " fill="#000000"/>
<path d="M 553.897,350.031 L 553.889,349.859 L 553.867,349.689 L 553.83,349.52 L 553.779,349.356 L 553.714,349.197 L 553.636,349.044 L 553.544,348.898 L 553.441,348.76 L 553.326,348.632 L 553.2,348.515 L 553.065,348.408 L 552.921,348.314 L 552.77,348.232 L 552.612,348.164 L 552.449,348.109 L 552.281,348.069 L 552.111,348.043 L 551.94,348.032 L 551.768,348.035 L 551.596,348.054 L 551.428,348.087 L 551.262,348.134 L 551.101,348.196 L 550.947,348.271 L 550.799,348.359 L 550.659,348.46 L 550.529,348.572 L 550.408,348.695 L 550.299,348.828 L 550.201,348.97 L 550.116,349.119 L 550.045,349.276 L 549.987,349.438 L 549.943,349.604 L 549.913,349.774 L 549.898,349.945 L 549.898,350.117 L 549.913,350.289 L 549.943,350.458 L 549.987,350.625 L 550.045,350.787 L 550.116,350.943 L 550.201,351.093 L 550.299,351.234 L 550.408,351.367 L 550.529,351.49 L 550.659,351.602 L 550.799,351.703 L 550.947,351.791 L 551.101,351.866 L 551.262,351.928 L 551.428,351.975 L 551.596,352.009 L 551.768,352.027 L 551.94,352.031 L 552.111,352.02 L 552.281,351.994 L 552.449,351.953 L 552.612,351.899 L 552.77,351.83 L 552.921,351.749 L 553.065,351.654 L 553.2,351.548 L 553.326,351.43 L 553.441,351.302 L 553.544,351.165 L 553.636,351.019 L 553.714,350.866 L 553.779,350.706 L 553.83,350.542 L 553.867,350.374 L 553.889,350.203 L 553.897,350.031 L 551.897,350.031 Z" style="fill:#000000;fill-rule:evenodd;fill-opacity:1;stroke:#000000;stroke-width:0px;stroke-linecap:butt;stroke-linejoin:miter;stroke-opacity:1;"/>
<path d="M 553.897,358.031 L 553.889,357.859 L 553.867,357.689 L 553.83,357.52 L 553.779,357.356 L 553.714,357.197 L 553.636,357.044 L 553.544,356.898 L 553.441,356.76 L 553.326,356.632 L 553.2,356.515 L 553.065,356.408 L 552.921,356.314 L 552.77,356.232 L 552.612,356.164 L 552.449,356.109 L 552.281,356.069 L 552.111,356.043 L 551.94,356.032 L 551.768,356.035 L 551.596,356.054 L 551.428,356.087 L 551.262,356.134 L 551.101,356.196 L 550.947,356.271 L 550.799,356.359 L 550.659,356.46 L 550.529,356.572 L 550.408,356.695 L 550.299,356.828 L 550.201,356.97 L 550.116,357.119 L 550.045,357.276 L 549.987,357.438 L 549.943,357.604 L 549.913,357.774 L 549.898,357.945 L 549.898,358.117 L 549.913,358.289 L 549.943,358.458 L 549.987,358.625 L 550.045,358.787 L 550.116,358.943 L 550.201,359.093 L 550.299,359.234 L 550.408,359.367 L 550.529,359.49 L 550.659,359.602 L 550.799,359.703 L 550.947,359.791 L 551.101,359.866 L 551.262,359.928 L 551.428,359.975 L 551.596,360.009 L 551.768,360.027 L 551.94,360.031 L 552.111,360.02 L 552.281,359.994 L 552.449,359.953 L 552.612,359.899 L 552.77,359.83 L 552.921,359.749 L 553.065,359.654 L 553.2,359.548 L 553.326,359.43 L 553.441,359.302 L 553.544,359.165 L 553.636,359.019 L 553.714,358.866 L 553.779,358.706 L 553.83,358.542 L 553.867,358.374 L 553.889,358.203 L 553.897,358.031 L 551.897,358.031 Z" style="fill:#000000;fill-rule:evenodd;fill-opacity:1;stroke:#000000;stroke-width:0px;stroke-linecap:butt;stroke-linejoin:miter;stroke-opacity:1;"/>
<path d="M 888.716,350.031 L 888.708,349.859 L 888.686,349.689 L 888.649,349.52 L 888.598,349.356 L 888.533,349.197 L 888.455,349.044 L 888.364,348.898 L 888.26,348.76 L 888.145,348.632 L 888.02,348.515 L 887.884,348.408 L 887.74,348.314 L 887.589,348.232 L 887.431,348.164 L 887.268,348.109 L 887.101,348.069 L 886.931,348.043 L 886.759,348.032 L 886.587,348.035 L 886.416,348.054 L 886.247,348.087 L 886.081,348.134 L 885.921,348.196 L 885.766,348.271 L 885.618,348.359 L 885.478,348.46 L 885.348,348.572 L 885.228,348.695 L 885.118,348.828 L 885.021,348.97 L 884.936,349.119 L 884.864,349.276 L 884.806,349.438 L 884.762,349.604 L 884.732,349.774 L 884.718,349.945 L 884.718,350.117 L 884.732,350.289 L 884.762,350.458 L 884.806,350.625 L 884.864,350.787 L 884.936,350.943 L 885.021,351.093 L 885.118,351.234 L 885.228,351.367 L 885.348,351.49 L 885.478,351.602 L 885.618,351.703 L 885.766,351.791 L 885.921,351.866 L 886.081,351.928 L 886.247,351.975 L 886.416,352.009 L 886.587,352.027 L 886.759,352.031 L 886.931,352.02 L 887.101,351.994 L 887.268,351.953 L 887.431,351.899 L 887.589,351.83 L 887.74,351.749 L 887.884,351.654 L 888.02,351.548 L 888.145,351.43 L 888.26,351.302 L 888.364,351.165 L 888.455,351.019 L 888.533,350.866 L 888.598,350.706 L 888.649,350.542 L 888.686,350.374 L 888.708,350.203 L 888.716,350.031 L 886.716,350.031 Z" style="fill:#000000;fill-rule:evenodd;fill-opacity:1;stroke:#000000;stroke-width:0px;stroke-linecap:butt;stroke-linejoin:miter;stroke-opacity:1;"/>
<path d="M 888.716,358.031 L 888.708,357.859 L 888.686,357.689 L 888.649,357.52 L 888.598,357.356 L 888.533,357.197 L 888.455,357.044 L 888.364,356.898 L 888.26,356.76 L 888.145,356.632 L 888.02,356.515 L 887.884,356.408 L 887.74,356.314 L 887.589,356.232 L 887.431,356.164 L 887.268,356.109 L 887.101,356.069 L 886.931,356.043 L 886.759,356.032 L 886.587,356.035 L 886.416,356.054 L 886.247,356.087 L 886.081,356.134 L 885.921,356.196 L 885.766,356.271 L 885.618,356.359 L 885.478,356.46 L 885.348,356.572 L 885.228,356.695 L 885.118,356.828 L 885.021,356.97 L 884.936,357.119 L 884.864,357.276 L 884.806,357.438 L 884.762,357.604 L 884.732,357.774 L 884.718,357.945 L 884.718,358.117 L 884.732,358.289 L 884.762,358.458 L 884.806,358.625 L 884.864,358.787 L 884.936,358.943 L 885.021,359.093 L 885.118,359.234 L 885.228,359.367 L 885.348,359.49 L 885.478,359.602 L 885.618,359.703 L 885.766,359.791 L 885.921,359.866 L 886.081,359.928 L 886.247,359.975 L 886.416,360.009 L 886.587,360.027 L 886.759,360.031 L 886.931,360.02 L 887.101,359.994 L 887.268,359.953 L 887.431,359.899 L 887.589,359.83 L 887.74,359.749 L 887.884,359.654 L 888.02,359.548 L 888.145,359.43 L 888.26,359.302 L 888.364,359.165 L 888.455,359.019 L 888.533,358.866 L 888.598,358.706 L 888.649,358.542 L 888.686,358.374 L 888.708,358.203 L 888.716,358.031 L 886.716,358.031 Z" style="fill:#000000;fill-rule:evenodd;fill-opacity:1;stroke:#000000;stroke-width:0px;stroke-linecap:butt;stroke-linejoin:miter;stroke-opacity:1;"/>
<path d="M 1359.83,350.031 L 1359.82,349.859 L 1359.8,349.689 L 1359.76,349.52 L 1359.71,349.356 L 1359.65,349.197 L 1359.57,349.044 L 1359.48,348.898 L 1359.37,348.76 L 1359.26,348.632 L 1359.13,348.515 L 1359,348.408 L 1358.85,348.314 L 1358.7,348.232 L 1358.55,348.164 L 1358.38,348.109 L 1358.21,348.069 L 1358.04,348.043 L 1357.87,348.032 L 1357.7,348.035 L 1357.53,348.054 L 1357.36,348.087 L 1357.2,348.134 L 1357.03,348.196 L 1356.88,348.271 L 1356.73,348.359 L 1356.59,348.46 L 1356.46,348.572 L 1356.34,348.695 L 1356.23,348.828 L 1356.13,348.97 L 1356.05,349.119 L 1355.98,349.276 L 1355.92,349.438 L 1355.88,349.604 L 1355.85,349.774 L 1355.83,349.945 L 1355.83,350.117 L 1355.85,350.289 L 1355.88,350.458 L 1355.92,350.625 L 1355.98,350.787 L 1356.05,350.943 L 1356.13,351.093 L 1356.23,351.234 L 1356.34,351.367 L 1356.46,351.49 L 1356.59,351.602 L 1356.73,351.703 L 1356.88,351.791 L 1357.03,351.866 L 1357.2,351.928 L 1357.36,351.975 L 1357.53,352.009 L 1357.7,352.027 L 1357.87,352.031 L 1358.04,352.02 L 1358.21,351.994 L 1358.38,351.953 L 1358.55,351.899 L 1358.7,351.83 L 1358.85,351.749 L 1359,351.654 L 1359.13,351.548 L 1359.26,351.43 L 1359.37,351.302 L 1359.48,351.165 L 1359.57,351.019 L 1359.65,350.866 L 1359.71,350.706 L 1359.76,350.542 L 1359.8,350.374 L 1359.82,350.203 L 1359.83,350.031 L 1357.83,350.031 Z" style="fill:#000000;fill-rule:evenodd;fill-opacity:1;stroke:#000000;stroke-width:0px;stroke-linecap:butt;stroke-linejoin:miter;stroke-opacity:1;"/>
<path d="M 1359.83,358.031 L 1359.82,357.859 L 1359.8,357.689 L 1359.76,357.52 L 1359.71,357.356 L 1359.65,357.197 L 1359.57,357.044 L 1359.48,356.898 L 1359.37,356.76 L 1359.26,356.632 L 1359.13,356.515 L 1359,356.408 L 1358.85,356.314 L 1358.7,356.232 L 1358.55,356.164 L 1358.38,356.109 L 1358.21,356.069 L 1358.04,356.043 L 1357.87,356.032 L 1357.7,356.035 L 1357.53,356.054 L 1357.36,356.087 L 1357.2,356.134 L 1357.03,356.196 L 1356.88,356.271 L 1356.73,356.359 L 1356.59,356.46 L 1356.46,356.572 L 1356.34,356.695 L 1356.23,356.828 L 1356.13,356.97 L 1356.05,357.119 L 1355.98,357.276 L 1355.92,357.438 L 1355.88,357.604 L 1355.85,357.774 L 1355.83,357.945 L 1355.83,358.117 L 1355.85,358.289 L 1355.88,358.458 L 1355.92,358.625 L 1355.98,358.787 L 1356.05,358.943 L 1356.13,359.093 L 1356.23,359.234 L 1356.34,359.367 L 1356.46,359.49 L 1356.59,359.602 L 1356.73,359.703 L 1356.88,359.791 L 1357.03,359.866 L 1357.2,359.928 L 1357.36,359.975 L 1357.53,360.009 L 1357.7,360.027 L 1357.87,360.031 L 1358.04,360.02 L 1358.21,359.994 L 1358.38,359.953 L 1358.55,359.899 L 1358.7,359.83 L 1358.85,359.749 L 1359,359.654 L 1359.13,359.548 L 1359.26,359.43 L 1359.37,359.302 L 1359.48,359.165 L 1359.57,359.019 L 1359.65,358.866 L 1359.71,358.706 L 1359.76,358.542 L 1359.8,358.374 L 1359.82,358.203 L 1359.83,358.031 L 1357.83,358.031 Z" style="fill:#000000;fill-rule:evenodd;fill-opacity:1;stroke:#000000;stroke-width:0px;stroke-linecap:butt;stroke-linejoin:miter;stroke-opacity:1;"/>
<path d="M 1694.65,350.031 L 1694.64,349.859 L 1694.62,349.689 L 1694.58,349.52 L 1694.53,349.356 L 1694.47,349.197 L 1694.39,349.044 L 1694.3,348.898 L 1694.19,348.76 L 1694.08,348.632 L 1693.95,348.515 L 1693.82,348.408 L 1693.67,348.314 L 1693.52,348.232 L 1693.36,348.164 L 1693.2,348.109 L 1693.03,348.069 L 1692.86,348.043 L 1692.69,348.032 L 1692.52,348.035 L 1692.35,348.054 L 1692.18,348.087 L 1692.01,348.134 L 1691.85,348.196 L 1691.7,348.271 L 1691.55,348.359 L 1691.41,348.46 L 1691.28,348.572 L 1691.16,348.695 L 1691.05,348.828 L 1690.95,348.97 L 1690.87,349.119 L 1690.8,349.276 L 1690.74,349.438 L 1690.69,349.604 L 1690.67,349.774 L 1690.65,349.945 L 1690.65,350.117 L 1690.67,350.289 L 1690.69,350.458 L 1690.74,350.625 L 1690.8,350.787 L 1690.87,350.943 L 1690.95,351.093 L 1691.05,351.234 L 1691.16,351.367 L 1691.28,351.49 L 1691.41,351.602 L 1691.55,351.703 L 1691.7,351.791 L 1691.85,351.866 L 1692.01,351.928 L 1692.18,351.975 L 1692.35,352.009 L 1692.52,352.027 L 1692.69,352.031 L 1692.86,352.02 L 1693.03,351.994 L 1693.2,351.953 L 1693.36,351.899 L 1693.52,351.83 L 1693.67,351.749 L 1693.82,351.654 L 1693.95,351.548 L 1694.08,351.43 L 1694.19,351.302 L 1694.3,351.165 L 1694.39,351.019 L 1694.47,350.866 L 1694.53,350.706 L 1694.58,350.542 L 1694.62,350.374 L 1694.64,350.203 L 1694.65,350.031 L 1692.65,350.031 Z" style="fill:#000000;fill-rule:evenodd;fill-opacity:1;stroke:#000000;stroke-width:0px;stroke-linecap:butt;stroke-linejoin:miter;stroke-opacity:1;"/>
<path d="M 1694.65,358.031 L 1694.64,357.859 L 1694.62,357.689 L 1694.58,357.52 L 1694.53,357.356 L 1694.47,357.197 L 1694.39,357.044 L 1694.3,356.898 L 1694.19,356.76 L 1694.08,356.632 L 1693.95,356.515 L 1693.82,356.408 L 1693.67,356.314 L 1693.52,356.232 L 1693.36,356.164 L 1693.2,356.109 L 1693.03,356.069 L 1692.86,356.043 L 1692.69,356.032 L 1692.52,356.035 L 1692.35,356.054 L 1692.18,356.087 L 1692.01,356.134 L 1691.85,356.196 L 1691.7,356.271 L 1691.55,356.359 L 1691.41,356.46 L 1691.28,356.572 L 1691.16,356.695 L 1691.05,356.828 L 1690.95,356.97 L 1690.87,357.119 L 1690.8,357.276 L 1690.74,357.438 L 1690.69,357.604 L 1690.67,357.774 L 1690.65,357.945 L 1690.65,358.117 L 1690.67,358.289 L 1690.69,358.458 L 1690.74,358.625 L 1690.8,358.787 L 1690.87,358.943 L 1690.95,359.093 L 1691.05,359.234 L 1691.16,359.367 L 1691.28,359.49 L 1691.41,359.602 L 1691.55,359.703 L 1691.7,359.791 L 1691.85,359.866 L 1692.01,359.928 L 1692.18,359.975 L 1692.35,360.009 L 1692.52,360.027 L 1692.69,360.031 L 1692.86,360.02 L 1693.03,359.994 L 1693.2,359.953 L 1693.36,359.899 L 1693.52,359.83 L 1693.67,359.749 L 1693.82,359.654 L 1693.95,359.548 L 1694.08,359.43 L 1694.19,359.302 L 1694.3,359.165 L 1694.39,359.019 L 1694.47,358.866 L 1694.53,358.706 L 1694.58,358.542 L 1694.62,358.374 L 1694.64,358.203 L 1694.65,358.031 L 1692.65,358.031 Z" style="fill:#000000;fill-rule:evenodd;fill-opacity:1;stroke:#000000;stroke-width:0px;stroke-linecap:butt;stroke-linejoin:miter;stroke-opacity:1;"/>
<path d="M 2676.96,141.372 L 2676.95,141.2 L 2676.93,141.03 L 2676.89,140.862 L 2676.84,140.697 L 2676.78,140.538 L 2676.7,140.385 L 2676.61,140.239 L 2676.5,140.101 L 2676.39,139.973 L 2676.26,139.856 L 2676.13,139.749 L 2675.98,139.655 L 2675.83,139.573 L 2675.67,139.505 L 2675.51,139.45 L 2675.34,139.41 L 2675.17,139.384 L 2675,139.373 L 2674.83,139.376 L 2674.66,139.395 L 2674.49,139.428 L 2674.32,139.476 L 2674.16,139.537 L 2674.01,139.612 L 2673.86,139.7 L 2673.72,139.801 L 2673.59,139.913 L 2673.47,140.036 L 2673.36,140.169 L 2673.26,140.311 L 2673.18,140.46 L 2673.11,140.617 L 2673.05,140.779 L 2673,140.945 L 2672.98,141.115 L 2672.96,141.286 L 2672.96,141.458 L 2672.98,141.63 L 2673,141.799 L 2673.05,141.966 L 2673.11,142.128 L 2673.18,142.284 L 2673.26,142.434 L 2673.36,142.576 L 2673.47,142.708 L 2673.59,142.831 L 2673.72,142.944 L 2673.86,143.044 L 2674.01,143.132 L 2674.16,143.207 L 2674.32,143.269 L 2674.49,143.317 L 2674.66,143.35 L 2674.83,143.368 L 2675,143.372 L 2675.17,143.361 L 2675.34,143.335 L 2675.51,143.295 L 2675.67,143.24 L 2675.83,143.172 L 2675.98,143.09 L 2676.13,142.995 L 2676.26,142.889 L 2676.39,142.771 L 2676.5,142.643 L 2676.61,142.506 L 2676.7,142.36 L 2676.78,142.207 L 2676.84,142.047 L 2676.89,141.883 L 2676.93,141.715 L 2676.95,141.544 L 2676.96,141.372 L 2674.96,141.372 Z" style="fill:#000000;fill-rule:evenodd;fill-opacity:1;stroke:#000000;stroke-width:0px;stroke-linecap:butt;stroke-linejoin:miter;stroke-opacity:1;"/>
<path d="M 2676.96,149.372 L 2676.95,149.2 L 2676.93,149.03 L 2676.89,148.862 L 2676.84,148.697 L 2676.78,148.538 L 2676.7,148.385 L 2676.61,148.239 L 2676.5,148.101 L 2676.39,147.973 L 2676.26,147.856 L 2676.13,147.749 L 2675.98,147.655 L 2675.83,147.573 L 2675.67,147.505 L 2675.51,147.45 L 2675.34,147.41 L 2675.17,147.384 L 2675,147.373 L 2674.83,147.376 L 2674.66,147.395 L 2674.49,147.428 L 2674.32,147.476 L 2674.16,147.537 L 2674.01,147.612 L 2673.86,147.7 L 2673.72,147.801 L 2673.59,147.913 L 2673.47,148.036 L 2673.36,148.169 L 2673.26,148.311 L 2673.18,148.46 L 2673.11,148.617 L 2673.05,148.779 L 2673,148.945 L 2672.98,149.115 L 2672.96,149.286 L 2672.96,149.458 L 2672.98,149.63 L 2673,149.799 L 2673.05,149.966 L 2673.11,150.128 L 2673.18,150.284 L 2673.26,150.434 L 2673.36,150.576 L 2673.47,150.708 L 2673.59,150.831 L 2673.72,150.944 L 2673.86,151.044 L 2674.01,151.132 L 2674.16,151.207 L 2674.32,151.269 L 2674.49,151.317 L 2674.66,151.35 L 2674.83,151.368 L 2675,151.372 L 2675.17,151.361 L 2675.34,151.335 L 2675.51,151.295 L 2675.67,151.24 L 2675.83,151.172 L 2675.98,151.09 L 2676.13,150.995 L 2676.26,150.889 L 2676.39,150.771 L 2676.5,150.643 L 2676.61,150.506 L 2676.7,150.36 L 2676.78,150.207 L 2676.84,150.047 L 2676.89,149.883 L 2676.93,149.715 L 2676.95,149.544 L 2676.96,149.372 L 2674.96,149.372 Z" style="fill:#000000;fill-rule:evenodd;fill-opacity:1;stroke:#000000;stroke-width:0px;stroke-linecap:butt;stroke-linejoin:miter;stroke-opacity:1;"/>
<path d="M 3450.1,377.979 L 3450.1,377.807 L 3450.07,377.636 L 3450.04,377.468 L 3449.99,377.304 L 3449.92,377.144 L 3449.84,376.991 L 3449.75,376.845 L 3449.65,376.708 L 3449.53,376.58 L 3449.41,376.462 L 3449.27,376.356 L 3449.13,376.261 L 3448.98,376.18 L 3448.82,376.111 L 3448.66,376.057 L 3448.49,376.016 L 3448.32,375.99 L 3448.15,375.979 L 3447.97,375.983 L 3447.8,376.001 L 3447.63,376.035 L 3447.47,376.082 L 3447.31,376.144 L 3447.15,376.219 L 3447.01,376.307 L 3446.87,376.408 L 3446.74,376.52 L 3446.62,376.643 L 3446.51,376.776 L 3446.41,376.917 L 3446.32,377.067 L 3446.25,377.223 L 3446.19,377.385 L 3446.15,377.552 L 3446.12,377.721 L 3446.11,377.893 L 3446.11,378.065 L 3446.12,378.236 L 3446.15,378.406 L 3446.19,378.572 L 3446.25,378.734 L 3446.32,378.891 L 3446.41,379.04 L 3446.51,379.182 L 3446.62,379.315 L 3446.74,379.438 L 3446.87,379.55 L 3447.01,379.651 L 3447.15,379.739 L 3447.31,379.814 L 3447.47,379.876 L 3447.63,379.923 L 3447.8,379.956 L 3447.97,379.975 L 3448.15,379.978 L 3448.32,379.967 L 3448.49,379.941 L 3448.66,379.901 L 3448.82,379.847 L 3448.98,379.778 L 3449.13,379.696 L 3449.27,379.602 L 3449.41,379.495 L 3449.53,379.378 L 3449.65,379.25 L 3449.75,379.112 L 3449.84,378.966 L 3449.92,378.813 L 3449.99,378.654 L 3450.04,378.49 L 3450.07,378.321 L 3450.1,378.151 L 3450.1,377.979 L 3448.1,377.979 Z" style="fill:#000000;fill-rule:evenodd;fill-opacity:1;stroke:#000000;stroke-width:0px;stroke-linecap:butt;stroke-linejoin:miter;stroke-opacity:1;"/>
<path d="M 3450.1,385.979 L 3450.1,385.807 L 3450.07,385.636 L 3450.04,385.468 L 3449.99,385.304 L 3449.92,385.144 L 3449.84,384.991 L 3449.75,384.845 L 3449.65,384.708 L 3449.53,384.58 L 3449.41,384.462 L 3449.27,384.356 L 3449.13,384.261 L 3448.98,384.18 L 3448.82,384.111 L 3448.66,384.057 L 3448.49,384.016 L 3448.32,383.99 L 3448.15,383.979 L 3447.97,383.983 L 3447.8,384.001 L 3447.63,384.035 L 3447.47,384.082 L 3447.31,384.144 L 3447.15,384.219 L 3447.01,384.307 L 3446.87,384.408 L 3446.74,384.52 L 3446.62,384.643 L 3446.51,384.776 L 3446.41,384.917 L 3446.32,385.067 L 3446.25,385.223 L 3446.19,385.385 L 3446.15,385.552 L 3446.12,385.721 L 3446.11,385.893 L 3446.11,386.065 L 3446.12,386.236 L 3446.15,386.406 L 3446.19,386.572 L 3446.25,386.734 L 3446.32,386.891 L 3446.41,387.04 L 3446.51,387.182 L 3446.62,387.315 L 3446.74,387.438 L 3446.87,387.55 L 3447.01,387.651 L 3447.15,387.739 L 3447.31,387.814 L 3447.47,387.876 L 3447.63,387.923 L 3447.8,387.956 L 3447.97,387.975 L 3448.15,387.978 L 3448.32,387.967 L 3448.49,387.941 L 3448.66,387.901 L 3448.82,387.847 L 3448.98,387.778 L 3449.13,387.696 L 3449.27,387.602 L 3449.41,387.495 L 3449.53,387.378 L 3449.65,387.25 L 3449.75,387.112 L 3449.84,386.966 L 3449.92,386.813 L 3449.99,386.654 L 3450.04,386.49 L 3450.07,386.321 L 3450.1,386.151 L 3450.1,385.979 L 3448.1,385.979 Z" style="fill:#000000;fill-rule:evenodd;fill-opacity:1;stroke:#000000;stroke-width:0px;stroke-linecap:butt;stroke-linejoin:miter;stroke-opacity:1;"/>
<path d="M 3347.65,82.2207 L 3347.64,82.0487 L 3347.62,81.8781 L 3347.58,81.71 L 3347.53,81.5456 L 3347.47,81.3863 L 3347.39,81.2331 L 3347.3,81.0873 L 3347.19,80.9498 L 3347.08,80.8218 L 3346.95,80.7041 L 3346.82,80.5976 L 3346.67,80.5031 L 3346.52,80.4214 L 3346.37,80.353 L 3346.2,80.2984 L 3346.03,80.2581 L 3345.86,80.2322 L 3345.69,80.2211 L 3345.52,80.2248 L 3345.35,80.2433 L 3345.18,80.2764 L 3345.02,80.324 L 3344.85,80.3855 L 3344.7,80.4606 L 3344.55,80.5488 L 3344.41,80.6494 L 3344.28,80.7616 L 3344.16,80.8845 L 3344.05,81.0174 L 3343.95,81.1592 L 3343.87,81.3089 L 3343.8,81.4653 L 3343.74,81.6272 L 3343.7,81.7936 L 3343.67,81.9632 L 3343.65,82.1346 L 3343.65,82.3067 L 3343.67,82.4782 L 3343.7,82.6477 L 3343.74,82.8141 L 3343.8,82.9761 L 3343.87,83.1325 L 3343.95,83.2821 L 3344.05,83.4239 L 3344.16,83.5568 L 3344.28,83.6798 L 3344.41,83.792 L 3344.55,83.8925 L 3344.7,83.9807 L 3344.85,84.0558 L 3345.02,84.1174 L 3345.18,84.1649 L 3345.35,84.198 L 3345.52,84.2165 L 3345.69,84.2202 L 3345.86,84.2091 L 3346.03,84.1833 L 3346.2,84.1429 L 3346.37,84.0883 L 3346.52,84.0199 L 3346.67,83.9382 L 3346.82,83.8438 L 3346.95,83.7373 L 3347.08,83.6196 L 3347.19,83.4915 L 3347.3,83.3541 L 3347.39,83.2082 L 3347.47,83.0551 L 3347.53,82.8957 L 3347.58,82.7314 L 3347.62,82.5633 L 3347.64,82.3926 L 3347.65,82.2207 L 3345.65,82.2207 Z" style="fill:#000000;fill-rule:evenodd;fill-opacity:1;stroke:#000000;stroke-width:0px;stroke-linecap:butt;stroke-linejoin:miter;stroke-opacity:1;"/>
<path d="M 3347.65,90.2207 L 3347.64,90.0487 L 3347.62,89.8781 L 3347.58,89.71 L 3347.53,89.5456 L 3347.47,89.3863 L 3347.39,89.2331 L 3347.3,89.0873 L 3347.19,88.9498 L 3347.08,88.8218 L 3346.95,88.7041 L 3346.82,88.5976 L 3346.67,88.5031 L 3346.52,88.4214 L 3346.37,88.353 L 3346.2,88.2984 L 3346.03,88.2581 L 3345.86,88.2322 L 3345.69,88.2211 L 3345.52,88.2248 L 3345.35,88.2433 L 3345.18,88.2764 L 3345.02,88.324 L 3344.85,88.3855 L 3344.7,88.4606 L 3344.55,88.5488 L 3344.41,88.6494 L 3344.28,88.7616 L 3344.16,88.8845 L 3344.05,89.0174 L 3343.95,89.1592 L 3343.87,89.3089 L 3343.8,89.4653 L 3343.74,89.6272 L 3343.7,89.7936 L 3343.67,89.9632 L 3343.65,90.1346 L 3343.65,90.3067 L 3343.67,90.4782 L 3343.7,90.6477 L 3343.74,90.8141 L 3343.8,90.9761 L 3343.87,91.1325 L 3343.95,91.2821 L 3344.05,91.4239 L 3344.16,91.5568 L 3344.28,91.6798 L 3344.41,91.792 L 3344.55,91.8925 L 3344.7,91.9807 L 3344.85,92.0558 L 3345.02,92.1174 L 3345.18,92.1649 L 3345.35,92.198 L 3345.52,92.2165 L 3345.69,92.2202 L 3345.86,92.2091 L 3346.03,92.1833 L 3346.2,92.1429 L 3346.37,92.0883 L 3346.52,92.0199 L 3346.67,91.9382 L 3346.82,91.8438 L 3346.95,91.7373 L 3347.08,91.6196 L 3347.19,91.4915 L 3347.3,91.3541 L 3347.39,91.2082 L 3347.47,91.0551 L 3347.53,90.8957 L 3347.58,90.7314 L 3347.62,90.5633 L 3347.64,90.3926 L 3347.65,90.2207 L 3345.65,90.2207 Z" style="fill:#000000;fill-rule:evenodd;fill-opacity:1;stroke:#000000;stroke-width:0px;stroke-linecap:butt;stroke-linejoin:miter;stroke-opacity:1;"/>
<path d="M 2801.23,437.13 L 2801.22,436.959 L 2801.2,436.788 L 2801.16,436.62 L 2801.11,436.455 L 2801.05,436.296 L 2800.97,436.143 L 2800.88,435.997 L 2800.77,435.86 L 2800.66,435.732 L 2800.53,435.614 L 2800.4,435.507 L 2800.26,435.413 L 2800.1,435.331 L 2799.95,435.263 L 2799.78,435.208 L 2799.62,435.168 L 2799.45,435.142 L 2799.27,435.131 L 2799.1,435.135 L 2798.93,435.153 L 2798.76,435.186 L 2798.6,435.234 L 2798.44,435.295 L 2798.28,435.37 L 2798.13,435.459 L 2797.99,435.559 L 2797.86,435.671 L 2797.74,435.794 L 2797.63,435.927 L 2797.54,436.069 L 2797.45,436.219 L 2797.38,436.375 L 2797.32,436.537 L 2797.28,436.703 L 2797.25,436.873 L 2797.23,437.044 L 2797.23,437.217 L 2797.25,437.388 L 2797.28,437.558 L 2797.32,437.724 L 2797.38,437.886 L 2797.45,438.042 L 2797.54,438.192 L 2797.63,438.334 L 2797.74,438.467 L 2797.86,438.59 L 2797.99,438.702 L 2798.13,438.802 L 2798.28,438.891 L 2798.44,438.966 L 2798.6,439.027 L 2798.76,439.075 L 2798.93,439.108 L 2799.1,439.126 L 2799.27,439.13 L 2799.45,439.119 L 2799.62,439.093 L 2799.78,439.053 L 2799.95,438.998 L 2800.1,438.93 L 2800.26,438.848 L 2800.4,438.754 L 2800.53,438.647 L 2800.66,438.529 L 2800.77,438.401 L 2800.88,438.264 L 2800.97,438.118 L 2801.05,437.965 L 2801.11,437.806 L 2801.16,437.641 L 2801.2,437.473 L 2801.22,437.302 L 2801.23,437.13 L 2799.23,437.13 Z" style="fill:#000000;fill-rule:evenodd;fill-opacity:1;stroke:#000000;stroke-width:0px;stroke-linecap:butt;stroke-linejoin:miter;stroke-opacity:1;"/>
<path d="M 2801.23,445.13 L 2801.22,444.959 L 2801.2,444.788 L 2801.16,444.62 L 2801.11,444.455 L 2801.05,444.296 L 2800.97,444.143 L 2800.88,443.997 L 2800.77,443.86 L 2800.66,443.732 L 2800.53,443.614 L 2800.4,443.507 L 2800.26,443.413 L 2800.1,443.331 L 2799.95,443.263 L 2799.78,443.208 L 2799.62,443.168 L 2799.45,443.142 L 2799.27,443.131 L 2799.1,443.135 L 2798.93,443.153 L 2798.76,443.186 L 2798.6,443.234 L 2798.44,443.295 L 2798.28,443.37 L 2798.13,443.459 L 2797.99,443.559 L 2797.86,443.671 L 2797.74,443.794 L 2797.63,443.927 L 2797.54,444.069 L 2797.45,444.219 L 2797.38,444.375 L 2797.32,444.537 L 2797.28,444.703 L 2797.25,444.873 L 2797.23,445.044 L 2797.23,445.217 L 2797.25,445.388 L 2797.28,445.558 L 2797.32,445.724 L 2797.38,445.886 L 2797.45,446.042 L 2797.54,446.192 L 2797.63,446.334 L 2797.74,446.467 L 2797.86,446.59 L 2797.99,446.702 L 2798.13,446.802 L 2798.28,446.891 L 2798.44,446.966 L 2798.6,447.027 L 2798.76,447.075 L 2798.93,447.108 L 2799.1,447.126 L 2799.27,447.13 L 2799.45,447.119 L 2799.62,447.093 L 2799.78,447.053 L 2799.95,446.998 L 2800.1,446.93 L 2800.26,446.848 L 2800.4,446.754 L 2800.53,446.647 L 2800.66,446.529 L 2800.77,446.401 L 2800.88,446.264 L 2800.97,446.118 L 2801.05,445.965 L 2801.11,445.806 L 2801.16,445.641 L 2801.2,445.473 L 2801.22,445.302 L 2801.23,445.13 L 2799.23,445.13 Z" style="fill:#000000;fill-rule:evenodd;fill-opacity:1;stroke:#000000;stroke-width:0px;stroke-linecap:butt;stroke-linejoin:miter;stroke-opacity:1;"/>
<path d="M 1116.46 253.527 L 1122.51 253.527 L 1122.51 247.159 L 1125.2 247.159 L 1125.2 253.527 L 1131.41 253.527 L 1131.41 255.831 L 1125.2 255.831 L 1125.2 262.231 L 1122.51 262.231 L 1122.51 255.831 L 1116.46 255.831 L 1116.46 253.527 " fill="#000000"/>
<path d="M 1930.52,255.831 L 2412.42,255.831" style="fill:none;fill-rule:evenodd;stroke:#000000;stroke-width:2.0px;stroke-linecap:butt;stroke-linejoin:miter;stroke-opacity:1"/>
<path d="M 2412.42,255.831 L 2391.55,243.784" style="fill:none;fill-rule:evenodd;stroke:#000000;stroke-width:2.0px;stroke-linecap:butt;stroke-linejoin:miter;stroke-opacity:1"/>
<path d="M 2412.42,255.831 L 2391.55,267.878" style="fill:none;fill-rule:evenodd;stroke:#000000;stroke-width:2.0px;stroke-linecap:butt;stroke-linejoin:miter;stroke-opacity:1"/>
</svg>