<svg xmlns="http://www.w3.org/2000/svg" xmlns:rdkit="http://www.rdkit.org/xml" xmlns:xlink="http://www.w3.org/1999/xlink" version="1.1" baseProfile="full" xml:space="preserve" width="4000px" height="500px" viewBox="0 0 4000 500">
<!-- END OF HEADER -->
<rect style="opacity:1.0;fill:#FFFFFF;stroke:none" width="4000" height="500" x="0" y="0"> </rect>
<path d="M 1041.97,417.175 L 1090.49,343.057" style="fill:none;fill-rule:evenodd;stroke:#FFFFAA;stroke-width:18.9px;stroke-linecap:butt;stroke-linejoin:miter;stroke-opacity:1"/>
<path d="M 1090.49,343.057 L 1050.56,263.981" style="fill:none;fill-rule:evenodd;stroke:#FFFFAA;stroke-width:18.9px;stroke-linecap:butt;stroke-linejoin:miter;stroke-opacity:1"/>
<path d="M 1090.49,343.057 L 1178.93,348.015" style="fill:none;fill-rule:evenodd;stroke:#FFFFAA;stroke-width:18.9px;stroke-linecap:butt;stroke-linejoin:miter;stroke-opacity:1"/>
<path d="M 1050.56,263.981 L 962.109,259.022" style="fill:none;fill-rule:evenodd;stroke:#FFFFAA;stroke-width:18.9px;stroke-linecap:butt;stroke-linejoin:miter;stroke-opacity:1"/>
<path d="M 1050.56,263.981 L 1099.07,189.863" style="fill:none;fill-rule:evenodd;stroke:#FFFFAA;stroke-width:18.9px;stroke-linecap:butt;stroke-linejoin:miter;stroke-opacity:1"/>
<path d="M 962.109,259.022 L 922.18,179.946" style="fill:none;fill-rule:evenodd;stroke:#FFFFAA;stroke-width:18.9px;stroke-linecap:butt;stroke-linejoin:miter;stroke-opacity:1"/>
<path d="M 962.109,259.022 L 913.592,333.14" style="fill:none;fill-rule:evenodd;stroke:#FFFFAA;stroke-width:18.9px;stroke-linecap:butt;stroke-linejoin:miter;stroke-opacity:1"/>
<path d="M 1099.07,189.863 L 1187.52,194.821" style="fill:none;fill-rule:evenodd;stroke:#FFFFAA;stroke-width:18.9px;stroke-linecap:butt;stroke-linejoin:miter;stroke-opacity:1"/>
<path d="M 1187.52,194.821 L 1227.45,273.897" style="fill:none;fill-rule:evenodd;stroke:#FFFFAA;stroke-width:18.9px;stroke-linecap:butt;stroke-linejoin:miter;stroke-opacity:1"/>
<path d="M 1227.45,273.897 L 1315.9,278.855" style="fill:none;fill-rule:evenodd;stroke:#FFFFAA;stroke-width:18.9px;stroke-linecap:butt;stroke-linejoin:miter;stroke-opacity:1"/>
<path d="M 1227.45,273.897 L 1178.93,348.015" style="fill:none;fill-rule:evenodd;stroke:#FFFFAA;stroke-width:18.9px;stroke-linecap:butt;stroke-linejoin:miter;stroke-opacity:1"/>
<path d="M 1833.39,280.161 L 1744.8,280.161" style="fill:none;fill-rule:evenodd;stroke:#FFCC99;stroke-width:18.9px;stroke-linecap:butt;stroke-linejoin:miter;stroke-opacity:1"/>
<path d="M 1744.8,280.161 L 1700.51,356.878" style="fill:none;fill-rule:evenodd;stroke:#FFCC99;stroke-width:18.9px;stroke-linecap:butt;stroke-linejoin:miter;stroke-opacity:1"/>
<path d="M 1744.8,280.161 L 1700.51,203.444" style="fill:none;fill-rule:evenodd;stroke:#FFCC99;stroke-width:18.9px;stroke-linecap:butt;stroke-linejoin:miter;stroke-opacity:1"/>
<path d="M 1700.51,356.878 L 1611.93,356.878" style="fill:none;fill-rule:evenodd;stroke:#FFCC99;stroke-width:18.9px;stroke-linecap:butt;stroke-linejoin:miter;stroke-opacity:1"/>
<path d="M 1611.93,356.878 L 1567.63,280.161" style="fill:none;fill-rule:evenodd;stroke:#FFCC99;stroke-width:18.9px;stroke-linecap:butt;stroke-linejoin:miter;stroke-opacity:1"/>
<path d="M 1567.63,280.161 L 1611.93,203.444" style="fill:none;fill-rule:evenodd;stroke:#FFCC99;stroke-width:18.9px;stroke-linecap:butt;stroke-linejoin:miter;stroke-opacity:1"/>
<path d="M 1611.93,203.444 L 1700.51,203.444" style="fill:none;fill-rule:evenodd;stroke:#FFCC99;stroke-width:18.9px;stroke-linecap:butt;stroke-linejoin:miter;stroke-opacity:1"/>
<path d="M 2570.4,424.886 L 2654.77,397.868" style="fill:none;fill-rule:evenodd;stroke:#FFFFAA;stroke-width:18.9px;stroke-linecap:butt;stroke-linejoin:miter;stroke-opacity:1"/>
<path d="M 2654.77,397.868 L 2720.35,457.422" style="fill:none;fill-rule:evenodd;stroke:#FFFFAA;stroke-width:18.9px;stroke-linecap:butt;stroke-linejoin:miter;stroke-opacity:1"/>
<path d="M 2654.77,397.868 L 2673.55,311.297" style="fill:none;fill-rule:evenodd;stroke:#FFFFAA;stroke-width:18.9px;stroke-linecap:butt;stroke-linejoin:miter;stroke-opacity:1"/>
<path d="M 2673.55,311.297 L 2607.97,251.744" style="fill:none;fill-rule:evenodd;stroke:#FFFFAA;stroke-width:18.9px;stroke-linecap:butt;stroke-linejoin:miter;stroke-opacity:1"/>
<path d="M 2673.55,311.297 L 2757.92,284.28" style="fill:none;fill-rule:evenodd;stroke:#FFFFAA;stroke-width:18.9px;stroke-linecap:butt;stroke-linejoin:miter;stroke-opacity:1"/>
<path d="M 2607.97,251.744 L 2626.76,165.173" style="fill:none;fill-rule:evenodd;stroke:#FFFFAA;stroke-width:18.9px;stroke-linecap:butt;stroke-linejoin:miter;stroke-opacity:1"/>
<path d="M 2626.76,165.173 L 2711.12,138.155" style="fill:none;fill-rule:evenodd;stroke:#FFFFAA;stroke-width:18.9px;stroke-linecap:butt;stroke-linejoin:miter;stroke-opacity:1"/>
<path d="M 2711.12,138.155 L 2729.91,51.5843" style="fill:none;fill-rule:evenodd;stroke:#FFFFAA;stroke-width:18.9px;stroke-linecap:butt;stroke-linejoin:miter;stroke-opacity:1"/>
<path d="M 2711.12,138.155 L 2776.7,197.709" style="fill:none;fill-rule:evenodd;stroke:#FFFFAA;stroke-width:18.9px;stroke-linecap:butt;stroke-linejoin:miter;stroke-opacity:1"/>
<path d="M 2776.7,197.709 L 2757.92,284.28" style="fill:none;fill-rule:evenodd;stroke:#FFFFAA;stroke-width:18.9px;stroke-linecap:butt;stroke-linejoin:miter;stroke-opacity:1"/>
<path d="M 2823.5,343.833 L 2907.86,316.815" style="fill:none;fill-rule:evenodd;stroke:#FFCC99;stroke-width:18.9px;stroke-linecap:butt;stroke-linejoin:miter;stroke-opacity:1"/>
<path d="M 2907.86,316.815 L 2973.44,376.369" style="fill:none;fill-rule:evenodd;stroke:#FFCC99;stroke-width:18.9px;stroke-linecap:butt;stroke-linejoin:miter;stroke-opacity:1"/>
<path d="M 2907.86,316.815 L 2926.65,230.244" style="fill:none;fill-rule:evenodd;stroke:#FFCC99;stroke-width:18.9px;stroke-linecap:butt;stroke-linejoin:miter;stroke-opacity:1"/>
<path d="M 2973.44,376.369 L 3057.81,349.351" style="fill:none;fill-rule:evenodd;stroke:#FFCC99;stroke-width:18.9px;stroke-linecap:butt;stroke-linejoin:miter;stroke-opacity:1"/>
<path d="M 3057.81,349.351 L 3076.59,262.78" style="fill:none;fill-rule:evenodd;stroke:#FFCC99;stroke-width:18.9px;stroke-linecap:butt;stroke-linejoin:miter;stroke-opacity:1"/>
<path d="M 3076.59,262.78 L 3011.01,203.227" style="fill:none;fill-rule:evenodd;stroke:#FFCC99;stroke-width:18.9px;stroke-linecap:butt;stroke-linejoin:miter;stroke-opacity:1"/>
<path d="M 3011.01,203.227 L 2926.65,230.244" style="fill:none;fill-rule:evenodd;stroke:#FFCC99;stroke-width:18.9px;stroke-linecap:butt;stroke-linejoin:miter;stroke-opacity:1"/>
<ellipse cx="1041.97" cy="417.175" rx="17.7171" ry="17.7395" style="fill:#FFFFAA;fill-rule:evenodd;stroke:#FFFFAA;stroke-width:1px;stroke-linecap:butt;stroke-linejoin:miter;stroke-opacity:1"/>
<ellipse cx="1090.49" cy="343.057" rx="17.7171" ry="17.7171" style="fill:#FFFFAA;fill-rule:evenodd;stroke:#FFFFAA;stroke-width:1px;stroke-linecap:butt;stroke-linejoin:miter;stroke-opacity:1"/>
<ellipse cx="1050.56" cy="263.981" rx="17.7171" ry="17.7171" style="fill:#FFFFAA;fill-rule:evenodd;stroke:#FFFFAA;stroke-width:1px;stroke-linecap:butt;stroke-linejoin:miter;stroke-opacity:1"/>
<ellipse cx="968.623" cy="258.956" rx="22.666" ry="17.8327" style="fill:#FFFFAA;fill-rule:evenodd;stroke:#FFFFAA;stroke-width:1px;stroke-linecap:butt;stroke-linejoin:miter;stroke-opacity:1"/>
<ellipse cx="922.18" cy="180.141" rx="17.7171" ry="18.2155" style="fill:#FFFFAA;fill-rule:evenodd;stroke:#FFFFAA;stroke-width:1px;stroke-linecap:butt;stroke-linejoin:miter;stroke-opacity:1"/>
<ellipse cx="918.468" cy="333.335" rx="23.1821" ry="18.2155" style="fill:#FFFFAA;fill-rule:evenodd;stroke:#FFFFAA;stroke-width:1px;stroke-linecap:butt;stroke-linejoin:miter;stroke-opacity:1"/>
<ellipse cx="1099.07" cy="189.863" rx="17.7171" ry="17.7171" style="fill:#FFFFAA;fill-rule:evenodd;stroke:#FFFFAA;stroke-width:1px;stroke-linecap:butt;stroke-linejoin:miter;stroke-opacity:1"/>
<ellipse cx="1187.52" cy="194.821" rx="17.7171" ry="17.7171" style="fill:#FFFFAA;fill-rule:evenodd;stroke:#FFFFAA;stroke-width:1px;stroke-linecap:butt;stroke-linejoin:miter;stroke-opacity:1"/>
<ellipse cx="1227.45" cy="273.897" rx="17.7171" ry="17.7171" style="fill:#FFFFAA;fill-rule:evenodd;stroke:#FFFFAA;stroke-width:1px;stroke-linecap:butt;stroke-linejoin:miter;stroke-opacity:1"/>
<ellipse cx="1327.22" cy="279.05" rx="32.2969" ry="18.2155" style="fill:#FFFFAA;fill-rule:evenodd;stroke:#FFFFAA;stroke-width:1px;stroke-linecap:butt;stroke-linejoin:miter;stroke-opacity:1"/>
<ellipse cx="1178.93" cy="348.015" rx="17.7171" ry="17.7171" style="fill:#FFFFAA;fill-rule:evenodd;stroke:#FFFFAA;stroke-width:1px;stroke-linecap:butt;stroke-linejoin:miter;stroke-opacity:1"/>
<ellipse cx="1850.87" cy="286.433" rx="38.1805" ry="26.6092" style="fill:#FFCC99;fill-rule:evenodd;stroke:#FFCC99;stroke-width:1px;stroke-linecap:butt;stroke-linejoin:miter;stroke-opacity:1"/>
<ellipse cx="1744.8" cy="280.161" rx="17.7171" ry="17.7171" style="fill:#FFCC99;fill-rule:evenodd;stroke:#FFCC99;stroke-width:1px;stroke-linecap:butt;stroke-linejoin:miter;stroke-opacity:1"/>
<ellipse cx="1700.51" cy="356.878" rx="17.7171" ry="17.7171" style="fill:#FFCC99;fill-rule:evenodd;stroke:#FFCC99;stroke-width:1px;stroke-linecap:butt;stroke-linejoin:miter;stroke-opacity:1"/>
<ellipse cx="1611.93" cy="356.878" rx="17.7171" ry="17.7171" style="fill:#FFCC99;fill-rule:evenodd;stroke:#FFCC99;stroke-width:1px;stroke-linecap:butt;stroke-linejoin:miter;stroke-opacity:1"/>
<ellipse cx="1567.63" cy="280.161" rx="17.7171" ry="17.7171" style="fill:#FFCC99;fill-rule:evenodd;stroke:#FFCC99;stroke-width:1px;stroke-linecap:butt;stroke-linejoin:miter;stroke-opacity:1"/>
<ellipse cx="1611.93" cy="203.444" rx="17.7171" ry="17.7171" style="fill:#FFCC99;fill-rule:evenodd;stroke:#FFCC99;stroke-width:1px;stroke-linecap:butt;stroke-linejoin:miter;stroke-opacity:1"/>
<ellipse cx="1700.51" cy="203.444" rx="17.7171" ry="17.7171" style="fill:#FFCC99;fill-rule:evenodd;stroke:#FFCC99;stroke-width:1px;stroke-linecap:butt;stroke-linejoin:miter;stroke-opacity:1"/>
<ellipse cx="2362.66" cy="280.161" rx="26.5591" ry="17.7395" style="fill:#FFFFAA;fill-rule:evenodd;stroke:#FFFFAA;stroke-width:1px;stroke-linecap:butt;stroke-linejoin:miter;stroke-opacity:1"/>
<ellipse cx="2570.4" cy="425.081" rx="17.7171" ry="18.2155" style="fill:#FFFFAA;fill-rule:evenodd;stroke:#FFFFAA;stroke-width:1px;stroke-linecap:butt;stroke-linejoin:miter;stroke-opacity:1"/>
<ellipse cx="2661.28" cy="397.802" rx="22.666" ry="17.8327" style="fill:#FFFFAA;fill-rule:evenodd;stroke:#FFFFAA;stroke-width:1px;stroke-linecap:butt;stroke-linejoin:miter;stroke-opacity:1"/>
<ellipse cx="2725.22" cy="457.616" rx="23.1821" ry="18.2155" style="fill:#FFFFAA;fill-rule:evenodd;stroke:#FFFFAA;stroke-width:1px;stroke-linecap:butt;stroke-linejoin:miter;stroke-opacity:1"/>
<ellipse cx="2673.55" cy="311.297" rx="17.7171" ry="17.7171" style="fill:#FFFFAA;fill-rule:evenodd;stroke:#FFFFAA;stroke-width:1px;stroke-linecap:butt;stroke-linejoin:miter;stroke-opacity:1"/>
<ellipse cx="2607.97" cy="251.744" rx="17.7171" ry="17.7171" style="fill:#FFFFAA;fill-rule:evenodd;stroke:#FFFFAA;stroke-width:1px;stroke-linecap:butt;stroke-linejoin:miter;stroke-opacity:1"/>
<ellipse cx="2626.76" cy="165.173" rx="17.7171" ry="17.7171" style="fill:#FFFFAA;fill-rule:evenodd;stroke:#FFFFAA;stroke-width:1px;stroke-linecap:butt;stroke-linejoin:miter;stroke-opacity:1"/>
<ellipse cx="2711.12" cy="138.155" rx="17.7171" ry="17.7171" style="fill:#FFFFAA;fill-rule:evenodd;stroke:#FFFFAA;stroke-width:1px;stroke-linecap:butt;stroke-linejoin:miter;stroke-opacity:1"/>
<ellipse cx="2741.23" cy="51.7792" rx="32.2969" ry="18.2155" style="fill:#FFFFAA;fill-rule:evenodd;stroke:#FFFFAA;stroke-width:1px;stroke-linecap:butt;stroke-linejoin:miter;stroke-opacity:1"/>
<ellipse cx="2776.7" cy="197.709" rx="17.7171" ry="17.7171" style="fill:#FFFFAA;fill-rule:evenodd;stroke:#FFFFAA;stroke-width:1px;stroke-linecap:butt;stroke-linejoin:miter;stroke-opacity:1"/>
<ellipse cx="2757.92" cy="284.28" rx="17.7171" ry="17.7171" style="fill:#FFFFAA;fill-rule:evenodd;stroke:#FFFFAA;stroke-width:1px;stroke-linecap:butt;stroke-linejoin:miter;stroke-opacity:1"/>
<ellipse cx="2823.5" cy="357.631" rx="17.7171" ry="37.2529" style="fill:#FFCC99;fill-rule:evenodd;stroke:#FFCC99;stroke-width:1px;stroke-linecap:butt;stroke-linejoin:miter;stroke-opacity:1"/>
<ellipse cx="2907.86" cy="316.815" rx="17.7171" ry="17.7171" style="fill:#FFCC99;fill-rule:evenodd;stroke:#FFCC99;stroke-width:1px;stroke-linecap:butt;stroke-linejoin:miter;stroke-opacity:1"/>
<ellipse cx="2973.44" cy="376.369" rx="17.7171" ry="17.7171" style="fill:#FFCC99;fill-rule:evenodd;stroke:#FFCC99;stroke-width:1px;stroke-linecap:butt;stroke-linejoin:miter;stroke-opacity:1"/>
<ellipse cx="3057.81" cy="349.351" rx="17.7171" ry="17.7171" style="fill:#FFCC99;fill-rule:evenodd;stroke:#FFCC99;stroke-width:1px;stroke-linecap:butt;stroke-linejoin:miter;stroke-opacity:1"/>
<ellipse cx="3076.59" cy="262.78" rx="17.7171" ry="17.7171" style="fill:#FFCC99;fill-rule:evenodd;stroke:#FFCC99;stroke-width:1px;stroke-linecap:butt;stroke-linejoin:miter;stroke-opacity:1"/>
<ellipse cx="3011.01" cy="203.227" rx="17.7171" ry="17.7171" style="fill:#FFCC99;fill-rule:evenodd;stroke:#FFCC99;stroke-width:1px;stroke-linecap:butt;stroke-linejoin:miter;stroke-opacity:1"/>
<ellipse cx="2926.65" cy="230.244" rx="17.7171" ry="17.7171" style="fill:#FFCC99;fill-rule:evenodd;stroke:#FFCC99;stroke-width:1px;stroke-linecap:butt;stroke-linejoin:miter;stroke-opacity:1"/>
<path class="bond-0" d="M 1051.63,402.416 L 1071.06,372.736" style="fill:none;fill-rule:evenodd;stroke:#33CCCC;stroke-width:2.0px;stroke-linecap:butt;stroke-linejoin:miter;stroke-opacity:1"/>
<path class="bond-0" d="M 1071.06,372.736 L 1090.49,343.057" style="fill:none;fill-rule:evenodd;stroke:#000000;stroke-width:2.0px;stroke-linecap:butt;stroke-linejoin:miter;stroke-opacity:1"/>
<path class="bond-1" d="M 1090.49,343.057 L 1050.56,263.981" style="fill:none;fill-rule:evenodd;stroke:#000000;stroke-width:2.0px;stroke-linecap:butt;stroke-linejoin:miter;stroke-opacity:1"/>
<path class="bond-1" d="M 1100.31,323.209 L 1072.36,267.856" style="fill:none;fill-rule:evenodd;stroke:#000000;stroke-width:2.0px;stroke-linecap:butt;stroke-linejoin:miter;stroke-opacity:1;stroke-dasharray:6,6"/>
<path class="bond-10" d="M 1090.49,343.057 L 1178.93,348.015" style="fill:none;fill-rule:evenodd;stroke:#000000;stroke-width:2.0px;stroke-linecap:butt;stroke-linejoin:miter;stroke-opacity:1"/>
<path class="bond-10" d="M 1104.74,326.111 L 1166.66,329.582" style="fill:none;fill-rule:evenodd;stroke:#000000;stroke-width:2.0px;stroke-linecap:butt;stroke-linejoin:miter;stroke-opacity:1;stroke-dasharray:6,6"/>
<path class="bond-2" d="M 1050.56,263.981 L 1012.2,261.83" style="fill:none;fill-rule:evenodd;stroke:#000000;stroke-width:2.0px;stroke-linecap:butt;stroke-linejoin:miter;stroke-opacity:1"/>
<path class="bond-2" d="M 1012.2,261.83 L 973.838,259.68" style="fill:none;fill-rule:evenodd;stroke:#0000FF;stroke-width:2.0px;stroke-linecap:butt;stroke-linejoin:miter;stroke-opacity:1"/>
<path class="bond-5" d="M 1050.56,263.981 L 1099.07,189.863" style="fill:none;fill-rule:evenodd;stroke:#000000;stroke-width:2.0px;stroke-linecap:butt;stroke-linejoin:miter;stroke-opacity:1"/>
<path class="bond-5" d="M 1072.66,262.566 L 1106.62,210.684" style="fill:none;fill-rule:evenodd;stroke:#000000;stroke-width:2.0px;stroke-linecap:butt;stroke-linejoin:miter;stroke-opacity:1;stroke-dasharray:6,6"/>
<path class="bond-3" d="M 962.565,240.271 L 950.082,215.55" style="fill:none;fill-rule:evenodd;stroke:#0000FF;stroke-width:2.0px;stroke-linecap:butt;stroke-linejoin:miter;stroke-opacity:1"/>
<path class="bond-3" d="M 950.082,215.55 L 937.6,190.83" style="fill:none;fill-rule:evenodd;stroke:#FF0000;stroke-width:2.0px;stroke-linecap:butt;stroke-linejoin:miter;stroke-opacity:1"/>
<path class="bond-3" d="M 946.75,248.257 L 934.267,223.536" style="fill:none;fill-rule:evenodd;stroke:#0000FF;stroke-width:2.0px;stroke-linecap:butt;stroke-linejoin:miter;stroke-opacity:1"/>
<path class="bond-3" d="M 934.267,223.536 L 921.784,198.816" style="fill:none;fill-rule:evenodd;stroke:#FF0000;stroke-width:2.0px;stroke-linecap:butt;stroke-linejoin:miter;stroke-opacity:1"/>
<path class="bond-4" d="M 952.449,273.781 L 937.753,296.231" style="fill:none;fill-rule:evenodd;stroke:#0000FF;stroke-width:2.0px;stroke-linecap:butt;stroke-linejoin:miter;stroke-opacity:1"/>
<path class="bond-4" d="M 937.753,296.231 L 923.057,318.681" style="fill:none;fill-rule:evenodd;stroke:#FF0000;stroke-width:2.0px;stroke-linecap:butt;stroke-linejoin:miter;stroke-opacity:1"/>
<path class="bond-6" d="M 1099.07,189.863 L 1187.52,194.821" style="fill:none;fill-rule:evenodd;stroke:#000000;stroke-width:2.0px;stroke-linecap:butt;stroke-linejoin:miter;stroke-opacity:1"/>
<path class="bond-6" d="M 1111.35,208.296 L 1173.26,211.766" style="fill:none;fill-rule:evenodd;stroke:#000000;stroke-width:2.0px;stroke-linecap:butt;stroke-linejoin:miter;stroke-opacity:1;stroke-dasharray:6,6"/>
<path class="bond-7" d="M 1187.52,194.821 L 1227.45,273.897" style="fill:none;fill-rule:evenodd;stroke:#000000;stroke-width:2.0px;stroke-linecap:butt;stroke-linejoin:miter;stroke-opacity:1"/>
<path class="bond-7" d="M 1177.69,214.668 L 1205.64,270.021" style="fill:none;fill-rule:evenodd;stroke:#000000;stroke-width:2.0px;stroke-linecap:butt;stroke-linejoin:miter;stroke-opacity:1;stroke-dasharray:6,6"/>
<path class="bond-8" d="M 1227.45,273.897 L 1264.81,275.991" style="fill:none;fill-rule:evenodd;stroke:#000000;stroke-width:2.0px;stroke-linecap:butt;stroke-linejoin:miter;stroke-opacity:1"/>
<path class="bond-8" d="M 1264.81,275.991 L 1302.17,278.085" style="fill:none;fill-rule:evenodd;stroke:#FF0000;stroke-width:2.0px;stroke-linecap:butt;stroke-linejoin:miter;stroke-opacity:1"/>
<path class="bond-9" d="M 1227.45,273.897 L 1178.93,348.015" style="fill:none;fill-rule:evenodd;stroke:#000000;stroke-width:2.0px;stroke-linecap:butt;stroke-linejoin:miter;stroke-opacity:1"/>
<path class="bond-9" d="M 1205.35,275.311 L 1171.39,327.194" style="fill:none;fill-rule:evenodd;stroke:#000000;stroke-width:2.0px;stroke-linecap:butt;stroke-linejoin:miter;stroke-opacity:1;stroke-dasharray:6,6"/>
<path class="bond-11" d="M 1821.66,280.161 L 1783.23,280.161" style="fill:none;fill-rule:evenodd;stroke:#0000FF;stroke-width:2.0px;stroke-linecap:butt;stroke-linejoin:miter;stroke-opacity:1"/>
<path class="bond-11" d="M 1783.23,280.161 L 1744.8,280.161" style="fill:none;fill-rule:evenodd;stroke:#000000;stroke-width:2.0px;stroke-linecap:butt;stroke-linejoin:miter;stroke-opacity:1"/>
<path class="bond-12" d="M 1744.8,280.161 L 1700.51,356.878" style="fill:none;fill-rule:evenodd;stroke:#000000;stroke-width:2.0px;stroke-linecap:butt;stroke-linejoin:miter;stroke-opacity:1"/>
<path class="bond-12" d="M 1722.82,282.81 L 1691.81,336.512" style="fill:none;fill-rule:evenodd;stroke:#000000;stroke-width:2.0px;stroke-linecap:butt;stroke-linejoin:miter;stroke-opacity:1;stroke-dasharray:6,6"/>
<path class="bond-17" d="M 1744.8,280.161 L 1700.51,203.444" style="fill:none;fill-rule:evenodd;stroke:#000000;stroke-width:2.0px;stroke-linecap:butt;stroke-linejoin:miter;stroke-opacity:1"/>
<path class="bond-17" d="M 1722.82,277.512 L 1691.81,223.81" style="fill:none;fill-rule:evenodd;stroke:#000000;stroke-width:2.0px;stroke-linecap:butt;stroke-linejoin:miter;stroke-opacity:1;stroke-dasharray:6,6"/>
<path class="bond-13" d="M 1700.51,356.878 L 1611.93,356.878" style="fill:none;fill-rule:evenodd;stroke:#000000;stroke-width:2.0px;stroke-linecap:butt;stroke-linejoin:miter;stroke-opacity:1"/>
<path class="bond-13" d="M 1687.22,339.161 L 1625.21,339.161" style="fill:none;fill-rule:evenodd;stroke:#000000;stroke-width:2.0px;stroke-linecap:butt;stroke-linejoin:miter;stroke-opacity:1;stroke-dasharray:6,6"/>
<path class="bond-14" d="M 1611.93,356.878 L 1567.63,280.161" style="fill:none;fill-rule:evenodd;stroke:#000000;stroke-width:2.0px;stroke-linecap:butt;stroke-linejoin:miter;stroke-opacity:1"/>
<path class="bond-14" d="M 1620.62,336.512 L 1589.62,282.81" style="fill:none;fill-rule:evenodd;stroke:#000000;stroke-width:2.0px;stroke-linecap:butt;stroke-linejoin:miter;stroke-opacity:1;stroke-dasharray:6,6"/>
<path class="bond-15" d="M 1567.63,280.161 L 1611.93,203.444" style="fill:none;fill-rule:evenodd;stroke:#000000;stroke-width:2.0px;stroke-linecap:butt;stroke-linejoin:miter;stroke-opacity:1"/>
<path class="bond-15" d="M 1589.62,277.512 L 1620.62,223.81" style="fill:none;fill-rule:evenodd;stroke:#000000;stroke-width:2.0px;stroke-linecap:butt;stroke-linejoin:miter;stroke-opacity:1;stroke-dasharray:6,6"/>
<path class="bond-16" d="M 1611.93,203.444 L 1700.51,203.444" style="fill:none;fill-rule:evenodd;stroke:#000000;stroke-width:2.0px;stroke-linecap:butt;stroke-linejoin:miter;stroke-opacity:1"/>
<path class="bond-16" d="M 1625.21,221.161 L 1687.22,221.161" style="fill:none;fill-rule:evenodd;stroke:#000000;stroke-width:2.0px;stroke-linecap:butt;stroke-linejoin:miter;stroke-opacity:1;stroke-dasharray:6,6"/>
<path class="bond-18" d="M 2586.83,428.925 L 2616.47,419.435" style="fill:none;fill-rule:evenodd;stroke:#FF0000;stroke-width:2.0px;stroke-linecap:butt;stroke-linejoin:miter;stroke-opacity:1"/>
<path class="bond-18" d="M 2616.47,419.435 L 2646.1,409.945" style="fill:none;fill-rule:evenodd;stroke:#0000FF;stroke-width:2.0px;stroke-linecap:butt;stroke-linejoin:miter;stroke-opacity:1"/>
<path class="bond-18" d="M 2581.43,412.052 L 2611.06,402.562" style="fill:none;fill-rule:evenodd;stroke:#FF0000;stroke-width:2.0px;stroke-linecap:butt;stroke-linejoin:miter;stroke-opacity:1"/>
<path class="bond-18" d="M 2611.06,402.562 L 2640.7,393.072" style="fill:none;fill-rule:evenodd;stroke:#0000FF;stroke-width:2.0px;stroke-linecap:butt;stroke-linejoin:miter;stroke-opacity:1"/>
<path class="bond-19" d="M 2666.5,408.519 L 2686.75,426.916" style="fill:none;fill-rule:evenodd;stroke:#0000FF;stroke-width:2.0px;stroke-linecap:butt;stroke-linejoin:miter;stroke-opacity:1"/>
<path class="bond-19" d="M 2686.75,426.916 L 2707.01,445.312" style="fill:none;fill-rule:evenodd;stroke:#FF0000;stroke-width:2.0px;stroke-linecap:butt;stroke-linejoin:miter;stroke-opacity:1"/>
<path class="bond-20" d="M 2657.97,383.11 L 2665.76,347.204" style="fill:none;fill-rule:evenodd;stroke:#0000FF;stroke-width:2.0px;stroke-linecap:butt;stroke-linejoin:miter;stroke-opacity:1"/>
<path class="bond-20" d="M 2665.76,347.204 L 2673.55,311.297" style="fill:none;fill-rule:evenodd;stroke:#000000;stroke-width:2.0px;stroke-linecap:butt;stroke-linejoin:miter;stroke-opacity:1"/>
<path class="bond-21" d="M 2673.55,311.297 L 2607.97,251.744" style="fill:none;fill-rule:evenodd;stroke:#000000;stroke-width:2.0px;stroke-linecap:butt;stroke-linejoin:miter;stroke-opacity:1"/>
<path class="bond-21" d="M 2675.63,289.248 L 2629.72,247.561" style="fill:none;fill-rule:evenodd;stroke:#000000;stroke-width:2.0px;stroke-linecap:butt;stroke-linejoin:miter;stroke-opacity:1;stroke-dasharray:6,6"/>
<path class="bond-34" d="M 2673.55,311.297 L 2757.92,284.28" style="fill:none;fill-rule:evenodd;stroke:#000000;stroke-width:2.0px;stroke-linecap:butt;stroke-linejoin:miter;stroke-opacity:1"/>
<path class="bond-34" d="M 2680.8,290.372 L 2739.86,271.459" style="fill:none;fill-rule:evenodd;stroke:#000000;stroke-width:2.0px;stroke-linecap:butt;stroke-linejoin:miter;stroke-opacity:1;stroke-dasharray:6,6"/>
<path class="bond-22" d="M 2607.97,251.744 L 2626.76,165.173" style="fill:none;fill-rule:evenodd;stroke:#000000;stroke-width:2.0px;stroke-linecap:butt;stroke-linejoin:miter;stroke-opacity:1"/>
<path class="bond-22" d="M 2628.1,242.515 L 2641.25,181.915" style="fill:none;fill-rule:evenodd;stroke:#000000;stroke-width:2.0px;stroke-linecap:butt;stroke-linejoin:miter;stroke-opacity:1;stroke-dasharray:6,6"/>
<path class="bond-23" d="M 2626.76,165.173 L 2711.12,138.155" style="fill:none;fill-rule:evenodd;stroke:#000000;stroke-width:2.0px;stroke-linecap:butt;stroke-linejoin:miter;stroke-opacity:1"/>
<path class="bond-23" d="M 2644.81,177.993 L 2703.87,159.081" style="fill:none;fill-rule:evenodd;stroke:#000000;stroke-width:2.0px;stroke-linecap:butt;stroke-linejoin:miter;stroke-opacity:1;stroke-dasharray:6,6"/>
<path class="bond-24" d="M 2711.12,138.155 L 2718.85,102.515" style="fill:none;fill-rule:evenodd;stroke:#000000;stroke-width:2.0px;stroke-linecap:butt;stroke-linejoin:miter;stroke-opacity:1"/>
<path class="bond-24" d="M 2718.85,102.515 L 2726.59,66.8741" style="fill:none;fill-rule:evenodd;stroke:#FF0000;stroke-width:2.0px;stroke-linecap:butt;stroke-linejoin:miter;stroke-opacity:1"/>
<path class="bond-25" d="M 2711.12,138.155 L 2776.7,197.709" style="fill:none;fill-rule:evenodd;stroke:#000000;stroke-width:2.0px;stroke-linecap:butt;stroke-linejoin:miter;stroke-opacity:1"/>
<path class="bond-25" d="M 2709.05,160.204 L 2754.95,201.892" style="fill:none;fill-rule:evenodd;stroke:#000000;stroke-width:2.0px;stroke-linecap:butt;stroke-linejoin:miter;stroke-opacity:1;stroke-dasharray:6,6"/>
<path class="bond-26" d="M 2776.7,197.709 L 2757.92,284.28" style="fill:none;fill-rule:evenodd;stroke:#000000;stroke-width:2.0px;stroke-linecap:butt;stroke-linejoin:miter;stroke-opacity:1"/>
<path class="bond-26" d="M 2756.57,206.937 L 2743.42,267.537" style="fill:none;fill-rule:evenodd;stroke:#000000;stroke-width:2.0px;stroke-linecap:butt;stroke-linejoin:miter;stroke-opacity:1;stroke-dasharray:6,6"/>
<path class="bond-27" d="M 2757.92,284.28 L 2784.84,308.731" style="fill:none;fill-rule:evenodd;stroke:#000000;stroke-width:2.0px;stroke-linecap:butt;stroke-linejoin:miter;stroke-opacity:1"/>
<path class="bond-27" d="M 2784.84,308.731 L 2811.77,333.182" style="fill:none;fill-rule:evenodd;stroke:#0000FF;stroke-width:2.0px;stroke-linecap:butt;stroke-linejoin:miter;stroke-opacity:1"/>
<path class="bond-28" d="M 2835.23,340.077 L 2871.54,328.446" style="fill:none;fill-rule:evenodd;stroke:#0000FF;stroke-width:2.0px;stroke-linecap:butt;stroke-linejoin:miter;stroke-opacity:1"/>
<path class="bond-28" d="M 2871.54,328.446 L 2907.86,316.815" style="fill:none;fill-rule:evenodd;stroke:#000000;stroke-width:2.0px;stroke-linecap:butt;stroke-linejoin:miter;stroke-opacity:1"/>
<path class="bond-29" d="M 2907.86,316.815 L 2973.44,376.369" style="fill:none;fill-rule:evenodd;stroke:#000000;stroke-width:2.0px;stroke-linecap:butt;stroke-linejoin:miter;stroke-opacity:1"/>
<path class="bond-29" d="M 2929.61,312.632 L 2975.52,354.32" style="fill:none;fill-rule:evenodd;stroke:#000000;stroke-width:2.0px;stroke-linecap:butt;stroke-linejoin:miter;stroke-opacity:1;stroke-dasharray:6,6"/>
<path class="bond-35" d="M 2907.86,316.815 L 2926.65,230.244" style="fill:none;fill-rule:evenodd;stroke:#000000;stroke-width:2.0px;stroke-linecap:butt;stroke-linejoin:miter;stroke-opacity:1"/>
<path class="bond-35" d="M 2927.99,307.587 L 2941.14,246.987" style="fill:none;fill-rule:evenodd;stroke:#000000;stroke-width:2.0px;stroke-linecap:butt;stroke-linejoin:miter;stroke-opacity:1;stroke-dasharray:6,6"/>
<path class="bond-30" d="M 2973.44,376.369 L 3057.81,349.351" style="fill:none;fill-rule:evenodd;stroke:#000000;stroke-width:2.0px;stroke-linecap:butt;stroke-linejoin:miter;stroke-opacity:1"/>
<path class="bond-30" d="M 2980.69,355.443 L 3039.75,336.531" style="fill:none;fill-rule:evenodd;stroke:#000000;stroke-width:2.0px;stroke-linecap:butt;stroke-linejoin:miter;stroke-opacity:1;stroke-dasharray:6,6"/>
<path class="bond-31" d="M 3057.81,349.351 L 3076.59,262.78" style="fill:none;fill-rule:evenodd;stroke:#000000;stroke-width:2.0px;stroke-linecap:butt;stroke-linejoin:miter;stroke-opacity:1"/>
<path class="bond-31" d="M 3043.31,332.609 L 3056.46,272.009" style="fill:none;fill-rule:evenodd;stroke:#000000;stroke-width:2.0px;stroke-linecap:butt;stroke-linejoin:miter;stroke-opacity:1;stroke-dasharray:6,6"/>
<path class="bond-32" d="M 3076.59,262.78 L 3011.01,203.227" style="fill:none;fill-rule:evenodd;stroke:#000000;stroke-width:2.0px;stroke-linecap:butt;stroke-linejoin:miter;stroke-opacity:1"/>
<path class="bond-32" d="M 3054.84,266.963 L 3008.94,225.276" style="fill:none;fill-rule:evenodd;stroke:#000000;stroke-width:2.0px;stroke-linecap:butt;stroke-linejoin:miter;stroke-opacity:1;stroke-dasharray:6,6"/>
<path class="bond-33" d="M 3011.01,203.227 L 2926.65,230.244" style="fill:none;fill-rule:evenodd;stroke:#000000;stroke-width:2.0px;stroke-linecap:butt;stroke-linejoin:miter;stroke-opacity:1"/>
<path class="bond-33" d="M 3003.76,224.152 L 2944.71,243.065" style="fill:none;fill-rule:evenodd;stroke:#000000;stroke-width:2.0px;stroke-linecap:butt;stroke-linejoin:miter;stroke-opacity:1;stroke-dasharray:6,6"/>
<path class="atom-0" d="M 1034.51 404.631 L 1049.43 404.631 L 1049.43 407.501 L 1037.88 407.501 L 1037.88 415.119 L 1048.15 415.119 L 1048.15 418.025 L 1037.88 418.025 L 1037.88 429.718 L 1034.51 429.718 L 1034.51 404.631 " fill="#33CCCC"/>
<path class="atom-3" d="M 956.564 246.479 L 964.785 259.766 Q 965.6 261.078, 966.911 263.452 Q 968.222 265.826, 968.293 265.967 L 968.293 246.479 L 971.624 246.479 L 971.624 271.566 L 968.186 271.566 L 959.363 257.038 Q 958.336 255.337, 957.237 253.388 Q 956.174 251.439, 955.855 250.837 L 955.855 271.566 L 952.595 271.566 L 952.595 246.479 L 956.564 246.479 " fill="#0000FF"/>
<path class="atom-3" d="M 973.728 251.001 L 978.148 251.001 L 978.148 246.347 L 980.113 246.347 L 980.113 251.001 L 984.65 251.001 L 984.65 252.685 L 980.113 252.685 L 980.113 257.362 L 978.148 257.362 L 978.148 252.685 L 973.728 252.685 L 973.728 251.001 " fill="#0000FF"/>
<path class="atom-4" d="M 910.664 180.017 Q 910.664 173.993, 913.64 170.627 Q 916.617 167.261, 922.18 167.261 Q 927.743 167.261, 930.72 170.627 Q 933.696 173.993, 933.696 180.017 Q 933.696 186.112, 930.684 189.584 Q 927.672 193.021, 922.18 193.021 Q 916.652 193.021, 913.64 189.584 Q 910.664 186.147, 910.664 180.017 M 922.18 190.187 Q 926.007 190.187, 928.062 187.635 Q 930.153 185.049, 930.153 180.017 Q 930.153 175.092, 928.062 172.611 Q 926.007 170.095, 922.18 170.095 Q 918.353 170.095, 916.263 172.576 Q 914.207 175.056, 914.207 180.017 Q 914.207 185.084, 916.263 187.635 Q 918.353 190.187, 922.18 190.187 " fill="#FF0000"/>
<path class="atom-5" d="M 902.076 333.211 Q 902.076 327.187, 905.053 323.821 Q 908.029 320.455, 913.592 320.455 Q 919.155 320.455, 922.132 323.821 Q 925.108 327.187, 925.108 333.211 Q 925.108 339.306, 922.096 342.778 Q 919.085 346.216, 913.592 346.216 Q 908.064 346.216, 905.053 342.778 Q 902.076 339.341, 902.076 333.211 M 913.592 343.381 Q 917.419 343.381, 919.474 340.83 Q 921.565 338.243, 921.565 333.211 Q 921.565 328.286, 919.474 325.805 Q 917.419 323.29, 913.592 323.29 Q 909.765 323.29, 907.675 325.77 Q 905.62 328.25, 905.62 333.211 Q 905.62 338.278, 907.675 340.83 Q 909.765 343.381, 913.592 343.381 " fill="#FF0000"/>
<path class="atom-5" d="M 926.278 324.55 L 934.861 324.55 L 934.861 326.421 L 926.278 326.421 L 926.278 324.55 " fill="#FF0000"/>
<path class="atom-9" d="M 1304.38 278.926 Q 1304.38 272.902, 1307.36 269.536 Q 1310.33 266.17, 1315.9 266.17 Q 1321.46 266.17, 1324.44 269.536 Q 1327.41 272.902, 1327.41 278.926 Q 1327.41 285.021, 1324.4 288.493 Q 1321.39 291.93, 1315.9 291.93 Q 1310.37 291.93, 1307.36 288.493 Q 1304.38 285.056, 1304.38 278.926 M 1315.9 289.096 Q 1319.72 289.096, 1321.78 286.544 Q 1323.87 283.958, 1323.87 278.926 Q 1323.87 274.001, 1321.78 271.52 Q 1319.72 269.004, 1315.9 269.004 Q 1312.07 269.004, 1309.98 271.485 Q 1307.92 273.965, 1307.92 278.926 Q 1307.92 283.993, 1309.98 286.544 Q 1312.07 289.096, 1315.9 289.096 " fill="#FF0000"/>
<path class="atom-9" d="M 1330.42 266.453 L 1333.83 266.453 L 1333.83 277.119 L 1346.65 277.119 L 1346.65 266.453 L 1350.05 266.453 L 1350.05 291.541 L 1346.65 291.541 L 1346.65 279.954 L 1333.83 279.954 L 1333.83 291.541 L 1330.42 291.541 L 1330.42 266.453 " fill="#FF0000"/>
<path class="atom-11" d="M 1827.84 267.617 L 1836.06 280.905 Q 1836.88 282.216, 1838.19 284.59 Q 1839.5 286.964, 1839.57 287.106 L 1839.57 267.617 L 1842.9 267.617 L 1842.9 292.705 L 1839.47 292.705 L 1830.64 278.177 Q 1829.62 276.476, 1828.52 274.527 Q 1827.45 272.578, 1827.13 271.976 L 1827.13 292.705 L 1823.88 292.705 L 1823.88 267.617 L 1827.84 267.617 " fill="#0000FF"/>
<path class="atom-11" d="M 1845.92 267.617 L 1849.32 267.617 L 1849.32 278.283 L 1862.14 278.283 L 1862.14 267.617 L 1865.55 267.617 L 1865.55 292.705 L 1862.14 292.705 L 1862.14 281.118 L 1849.32 281.118 L 1849.32 292.705 L 1845.92 292.705 L 1845.92 267.617 " fill="#0000FF"/>
<path class="atom-11" d="M 1866.76 291.825 Q 1867.37 290.258, 1868.82 289.392 Q 1870.27 288.504, 1872.28 288.504 Q 1874.78 288.504, 1876.19 289.86 Q 1877.59 291.216, 1877.59 293.625 Q 1877.59 296.081, 1875.77 298.373 Q 1873.96 300.665, 1870.22 303.377 L 1877.87 303.377 L 1877.87 305.248 L 1866.71 305.248 L 1866.71 303.682 Q 1869.8 301.483, 1871.63 299.846 Q 1873.47 298.209, 1874.36 296.736 Q 1875.25 295.262, 1875.25 293.742 Q 1875.25 292.152, 1874.46 291.263 Q 1873.66 290.375, 1872.28 290.375 Q 1870.95 290.375, 1870.06 290.912 Q 1869.17 291.45, 1868.54 292.643 L 1866.76 291.825 " fill="#0000FF"/>
<path class="atom-18" d="M 2343.88 267.617 L 2347.28 267.617 L 2347.28 278.283 L 2360.11 278.283 L 2360.11 267.617 L 2363.51 267.617 L 2363.51 292.705 L 2360.11 292.705 L 2360.11 281.118 L 2347.28 281.118 L 2347.28 292.705 L 2343.88 292.705 L 2343.88 267.617 " fill="#33CCCC"/>
<path class="atom-18" d="M 2366.52 267.617 L 2381.44 267.617 L 2381.44 270.487 L 2369.89 270.487 L 2369.89 278.106 L 2380.16 278.106 L 2380.16 281.011 L 2369.89 281.011 L 2369.89 292.705 L 2366.52 292.705 L 2366.52 267.617 " fill="#33CCCC"/>
<path class="atom-19" d="M 2558.89 424.957 Q 2558.89 418.933, 2561.86 415.567 Q 2564.84 412.2, 2570.4 412.2 Q 2575.97 412.2, 2578.94 415.567 Q 2581.92 418.933, 2581.92 424.957 Q 2581.92 431.051, 2578.91 434.524 Q 2575.89 437.961, 2570.4 437.961 Q 2564.87 437.961, 2561.86 434.524 Q 2558.89 431.087, 2558.89 424.957 M 2570.4 435.126 Q 2574.23 435.126, 2576.28 432.575 Q 2578.38 429.988, 2578.38 424.957 Q 2578.38 420.031, 2576.28 417.551 Q 2574.23 415.035, 2570.4 415.035 Q 2566.58 415.035, 2564.48 417.516 Q 2562.43 419.996, 2562.43 424.957 Q 2562.43 430.024, 2564.48 432.575 Q 2566.58 435.126, 2570.4 435.126 " fill="#FF0000"/>
<path class="atom-20" d="M 2649.22 385.325 L 2657.44 398.612 Q 2658.26 399.923, 2659.57 402.298 Q 2660.88 404.672, 2660.95 404.813 L 2660.95 385.325 L 2664.28 385.325 L 2664.28 410.412 L 2660.84 410.412 L 2652.02 395.884 Q 2650.99 394.183, 2649.9 392.234 Q 2648.83 390.285, 2648.51 389.683 L 2648.51 410.412 L 2645.25 410.412 L 2645.25 385.325 L 2649.22 385.325 " fill="#0000FF"/>
<path class="atom-20" d="M 2666.39 389.847 L 2670.81 389.847 L 2670.81 385.193 L 2672.77 385.193 L 2672.77 389.847 L 2677.31 389.847 L 2677.31 391.53 L 2672.77 391.53 L 2672.77 396.208 L 2670.81 396.208 L 2670.81 391.53 L 2666.39 391.53 L 2666.39 389.847 " fill="#0000FF"/>
<path class="atom-21" d="M 2708.83 457.492 Q 2708.83 451.469, 2711.81 448.102 Q 2714.78 444.736, 2720.35 444.736 Q 2725.91 444.736, 2728.89 448.102 Q 2731.86 451.469, 2731.86 457.492 Q 2731.86 463.587, 2728.85 467.06 Q 2725.84 470.497, 2720.35 470.497 Q 2714.82 470.497, 2711.81 467.06 Q 2708.83 463.623, 2708.83 457.492 M 2720.35 467.662 Q 2724.17 467.662, 2726.23 465.111 Q 2728.32 462.524, 2728.32 457.492 Q 2728.32 452.567, 2726.23 450.087 Q 2724.17 447.571, 2720.35 447.571 Q 2716.52 447.571, 2714.43 450.051 Q 2712.38 452.532, 2712.38 457.492 Q 2712.38 462.56, 2714.43 465.111 Q 2716.52 467.662, 2720.35 467.662 " fill="#FF0000"/>
<path class="atom-21" d="M 2733.03 448.831 L 2741.62 448.831 L 2741.62 450.702 L 2733.03 450.702 L 2733.03 448.831 " fill="#FF0000"/>
<path class="atom-26" d="M 2718.39 51.6551 Q 2718.39 45.6313, 2721.37 42.2651 Q 2724.34 38.8988, 2729.91 38.8988 Q 2735.47 38.8988, 2738.45 42.2651 Q 2741.42 45.6313, 2741.42 51.6551 Q 2741.42 57.7498, 2738.41 61.2224 Q 2735.4 64.6595, 2729.91 64.6595 Q 2724.38 64.6595, 2721.37 61.2224 Q 2718.39 57.7853, 2718.39 51.6551 M 2729.91 61.8248 Q 2733.73 61.8248, 2735.79 59.2735 Q 2737.88 56.6868, 2737.88 51.6551 Q 2737.88 46.7298, 2735.79 44.2494 Q 2733.73 41.7336, 2729.91 41.7336 Q 2726.08 41.7336, 2723.99 44.214 Q 2721.93 46.6943, 2721.93 51.6551 Q 2721.93 56.7222, 2723.99 59.2735 Q 2726.08 61.8248, 2729.91 61.8248 " fill="#FF0000"/>
<path class="atom-26" d="M 2744.43 39.1823 L 2747.84 39.1823 L 2747.84 49.848 L 2760.66 49.848 L 2760.66 39.1823 L 2764.06 39.1823 L 2764.06 64.2697 L 2760.66 64.2697 L 2760.66 52.6827 L 2747.84 52.6827 L 2747.84 64.2697 L 2744.43 64.2697 L 2744.43 39.1823 " fill="#FF0000"/>
<path class="atom-29" d="M 2817.95 331.289 L 2826.17 344.577 Q 2826.99 345.888, 2828.3 348.262 Q 2829.61 350.636, 2829.68 350.778 L 2829.68 331.289 L 2833.01 331.289 L 2833.01 356.377 L 2829.57 356.377 L 2820.75 341.849 Q 2819.72 340.148, 2818.63 338.199 Q 2817.56 336.25, 2817.24 335.648 L 2817.24 356.377 L 2813.98 356.377 L 2813.98 331.289 L 2817.95 331.289 " fill="#0000FF"/>
<path class="atom-29" d="M 2813.68 358.885 L 2817.08 358.885 L 2817.08 369.551 L 2829.91 369.551 L 2829.91 358.885 L 2833.31 358.885 L 2833.31 383.973 L 2829.91 383.973 L 2829.91 372.386 L 2817.08 372.386 L 2817.08 383.973 L 2813.68 383.973 L 2813.68 358.885 " fill="#0000FF"/>
<path class="note" d="M 1022.7 446.771 L 1025.45 446.771 L 1025.45 437.398 L 1022.42 438.337 L 1022.01 437.292 L 1025.86 435.573 L 1027.12 435.786 L 1027.12 446.771 L 1029.58 446.771 L 1029.58 448.188 L 1022.7 448.188 L 1022.7 446.771 " fill="#000000"/>
<path class="note" d="M 1064.61 347.12 L 1067.36 347.12 L 1067.36 337.748 L 1064.33 338.687 L 1063.92 337.642 L 1067.76 335.923 L 1069.02 336.136 L 1069.02 347.12 L 1071.48 347.12 L 1071.48 348.538 L 1064.61 348.538 L 1064.61 347.12 " fill="#000000"/>
<path class="note" d="M 1073.13 347.12 L 1075.88 347.12 L 1075.88 337.748 L 1072.85 338.687 L 1072.44 337.642 L 1076.28 335.923 L 1077.54 336.136 L 1077.54 347.12 L 1080.01 347.12 L 1080.01 348.538 L 1073.13 348.538 L 1073.13 347.12 " fill="#000000"/>
<path class="note" d="M 1042.78 274.757 Q 1043.88 274.757, 1044.78 275.235 Q 1045.69 275.696, 1046.2 276.582 Q 1046.71 277.45, 1046.71 278.637 Q 1046.71 279.93, 1046.08 280.869 Q 1045.46 281.79, 1044.43 282.269 Q 1043.4 282.747, 1042.23 282.747 Q 1041.08 282.747, 1040.02 282.322 Q 1038.95 281.897, 1038.23 281.082 L 1039.29 279.983 Q 1039.87 280.621, 1040.67 280.975 Q 1041.47 281.312, 1042.28 281.312 Q 1043.4 281.312, 1044.16 280.621 Q 1044.94 279.93, 1044.94 278.672 Q 1044.94 277.343, 1044.16 276.723 Q 1043.4 276.085, 1042.18 276.085 Q 1041.08 276.085, 1039.86 276.564 L 1038.88 276.103 L 1039.48 270.062 L 1045.93 270.062 L 1045.76 271.479 L 1040.94 271.479 L 1040.57 275.2 Q 1041.68 274.757, 1042.78 274.757 " fill="#000000"/>
<path class="note" d="M 980.089 234.051 Q 981.312 234.405, 981.896 235.202 Q 982.499 235.982, 982.499 237.222 Q 982.499 238.285, 981.967 239.118 Q 981.436 239.933, 980.461 240.393 Q 979.487 240.836, 978.211 240.836 Q 976.865 240.836, 975.855 240.376 Q 974.863 239.897, 974.065 238.941 L 975.075 237.913 Q 975.855 238.763, 976.51 239.1 Q 977.166 239.419, 978.211 239.419 Q 979.345 239.419, 980.036 238.816 Q 980.727 238.196, 980.727 237.204 Q 980.727 235.929, 980 235.362 Q 979.292 234.777, 977.75 234.777 L 976.847 234.777 L 976.847 233.501 L 977.644 233.501 Q 979.008 233.484, 979.735 232.899 Q 980.461 232.297, 980.461 231.18 Q 980.461 230.365, 979.859 229.887 Q 979.256 229.391, 978.229 229.391 Q 977.183 229.391, 976.528 229.763 Q 975.89 230.135, 975.394 231.074 L 974.172 230.419 Q 974.614 229.373, 975.677 228.682 Q 976.741 227.974, 978.229 227.974 Q 980.071 227.974, 981.152 228.842 Q 982.233 229.71, 982.233 231.18 Q 982.233 232.19, 981.684 232.917 Q 981.134 233.643, 980.089 234.051 " fill="#000000"/>
<path class="note" d="M 904.68 149.761 Q 905.141 148.574, 906.239 147.918 Q 907.338 147.245, 908.861 147.245 Q 910.757 147.245, 911.82 148.272 Q 912.883 149.3, 912.883 151.125 Q 912.883 152.985, 911.501 154.721 Q 910.137 156.458, 907.302 158.513 L 913.096 158.513 L 913.096 159.93 L 904.645 159.93 L 904.645 158.743 Q 906.983 157.078, 908.365 155.838 Q 909.765 154.597, 910.438 153.481 Q 911.112 152.365, 911.112 151.213 Q 911.112 150.009, 910.509 149.335 Q 909.907 148.662, 908.861 148.662 Q 907.852 148.662, 907.178 149.07 Q 906.505 149.477, 906.027 150.381 L 904.68 149.761 " fill="#000000"/>
<path class="note" d="M 900.742 359.813 L 902.248 359.813 L 902.248 361.23 L 900.742 361.23 L 900.742 364.118 L 899.076 364.118 L 899.076 361.23 L 892.592 361.23 L 892.592 360.114 L 898.084 351.574 L 900.742 351.574 L 900.742 359.813 M 894.647 359.813 L 899.076 359.813 L 899.076 352.708 L 894.647 359.813 " fill="#000000"/>
<path class="note" d="M 1092.98 175.195 Q 1094.08 175.195, 1094.94 175.673 Q 1095.81 176.152, 1096.29 177.02 Q 1096.77 177.888, 1096.77 178.986 Q 1096.77 180.209, 1096.22 181.166 Q 1095.69 182.105, 1094.73 182.636 Q 1093.77 183.168, 1092.55 183.168 Q 1090.32 183.168, 1089.19 181.662 Q 1088.07 180.138, 1088.07 177.126 Q 1088.07 173.795, 1089.45 172.077 Q 1090.85 170.341, 1093.53 170.341 Q 1094.31 170.341, 1094.96 170.518 Q 1095.63 170.695, 1096.27 171.067 L 1095.58 172.254 Q 1094.66 171.758, 1093.54 171.758 Q 1091.77 171.758, 1090.87 172.909 Q 1089.96 174.043, 1089.86 176.4 Q 1090.5 175.815, 1091.29 175.514 Q 1092.11 175.195, 1092.98 175.195 M 1092.57 181.715 Q 1093.24 181.715, 1093.79 181.361 Q 1094.36 181.006, 1094.68 180.386 Q 1095 179.766, 1095 179.004 Q 1095 177.888, 1094.38 177.25 Q 1093.76 176.612, 1092.66 176.612 Q 1091.9 176.612, 1091.13 176.931 Q 1090.39 177.232, 1089.86 177.764 Q 1089.93 179.837, 1090.58 180.776 Q 1091.24 181.715, 1092.57 181.715 " fill="#000000"/>
<path class="note" d="M 1198.02 177.613 L 1191.44 177.613 L 1191.44 176.196 L 1199.77 176.196 L 1199.77 177.454 L 1194.7 188.74 L 1193 188.74 L 1198.02 177.613 " fill="#000000"/>
<path class="note" d="M 1237.5 261.243 Q 1238.65 261.739, 1239.31 262.483 Q 1239.96 263.209, 1239.96 264.45 Q 1239.96 265.513, 1239.42 266.345 Q 1238.87 267.16, 1237.87 267.621 Q 1236.9 268.064, 1235.61 268.064 Q 1233.52 268.064, 1232.31 267.107 Q 1231.11 266.133, 1231.11 264.45 Q 1231.11 263.422, 1231.64 262.66 Q 1232.17 261.881, 1233.27 261.296 Q 1232.45 260.835, 1232.01 260.162 Q 1231.57 259.471, 1231.57 258.408 Q 1231.57 256.938, 1232.63 256.069 Q 1233.71 255.201, 1235.54 255.201 Q 1237.36 255.201, 1238.42 256.069 Q 1239.5 256.938, 1239.5 258.408 Q 1239.5 259.329, 1238.99 260.02 Q 1238.49 260.694, 1237.5 261.243 M 1235.54 256.53 Q 1234.49 256.53, 1233.91 257.026 Q 1233.34 257.522, 1233.34 258.408 Q 1233.34 259.064, 1233.73 259.506 Q 1234.12 259.932, 1234.67 260.18 Q 1235.23 260.428, 1236.32 260.8 Q 1237.08 260.268, 1237.4 259.701 Q 1237.73 259.134, 1237.73 258.408 Q 1237.73 257.522, 1237.15 257.026 Q 1236.58 256.53, 1235.54 256.53 M 1235.61 266.735 Q 1236.78 266.735, 1237.48 266.115 Q 1238.19 265.477, 1238.19 264.432 Q 1238.19 263.759, 1237.82 263.333 Q 1237.45 262.908, 1236.88 262.66 Q 1236.33 262.412, 1235.34 262.093 L 1234.54 261.827 Q 1233.66 262.359, 1233.27 262.997 Q 1232.88 263.617, 1232.88 264.432 Q 1232.88 265.477, 1233.62 266.115 Q 1234.37 266.735, 1235.61 266.735 " fill="#000000"/>
<path class="note" d="M 1331.94 247.806 Q 1334.17 247.806, 1335.28 249.33 Q 1336.42 250.836, 1336.42 253.848 Q 1336.42 257.179, 1335.02 258.915 Q 1333.64 260.634, 1330.96 260.634 Q 1330.18 260.634, 1329.51 260.456 Q 1328.85 260.279, 1328.22 259.907 L 1328.91 258.72 Q 1329.83 259.216, 1330.94 259.216 Q 1332.72 259.216, 1333.62 258.082 Q 1334.52 256.931, 1334.63 254.574 Q 1333.99 255.159, 1333.18 255.478 Q 1332.38 255.779, 1331.51 255.779 Q 1330.41 255.779, 1329.54 255.301 Q 1328.68 254.822, 1328.2 253.954 Q 1327.72 253.086, 1327.72 251.988 Q 1327.72 250.765, 1328.25 249.826 Q 1328.8 248.869, 1329.76 248.338 Q 1330.71 247.806, 1331.94 247.806 M 1329.49 251.97 Q 1329.49 253.086, 1330.11 253.724 Q 1330.73 254.362, 1331.83 254.362 Q 1332.59 254.362, 1333.34 254.061 Q 1334.1 253.742, 1334.63 253.21 Q 1334.56 251.137, 1333.9 250.198 Q 1333.25 249.259, 1331.92 249.259 Q 1331.24 249.259, 1330.68 249.614 Q 1330.13 249.968, 1329.81 250.588 Q 1329.49 251.208, 1329.49 251.97 " fill="#000000"/>
<path class="note" d="M 1173.58 366.12 L 1176.33 366.12 L 1176.33 356.747 L 1173.3 357.686 L 1172.89 356.641 L 1176.74 354.922 L 1178 355.135 L 1178 366.12 L 1180.46 366.12 L 1180.46 367.537 L 1173.58 367.537 L 1173.58 366.12 " fill="#000000"/>
<path class="note" d="M 1186.13 367.679 Q 1183.82 367.679, 1182.67 365.978 Q 1181.54 364.277, 1181.54 361.247 Q 1181.54 358.218, 1182.67 356.535 Q 1183.81 354.852, 1186.13 354.852 Q 1188.45 354.852, 1189.58 356.535 Q 1190.72 358.218, 1190.72 361.247 Q 1190.72 364.277, 1189.56 365.978 Q 1188.43 367.679, 1186.13 367.679 M 1186.13 366.261 Q 1187.49 366.261, 1188.22 365.003 Q 1188.94 363.728, 1188.94 361.247 Q 1188.94 358.785, 1188.22 357.527 Q 1187.49 356.269, 1186.13 356.269 Q 1184.78 356.269, 1184.04 357.527 Q 1183.31 358.785, 1183.31 361.247 Q 1183.31 363.728, 1184.04 365.003 Q 1184.78 366.261, 1186.13 366.261 " fill="#000000"/>
<path class="note" d="M 1836.61 259.514 L 1839.36 259.514 L 1839.36 250.142 L 1836.33 251.081 L 1835.92 250.035 L 1839.76 248.317 L 1841.02 248.529 L 1841.02 259.514 L 1843.48 259.514 L 1843.48 260.931 L 1836.61 260.931 L 1836.61 259.514 " fill="#000000"/>
<path class="note" d="M 1844.41 250.762 Q 1844.87 249.575, 1845.97 248.919 Q 1847.06 248.246, 1848.59 248.246 Q 1850.48 248.246, 1851.55 249.273 Q 1852.61 250.301, 1852.61 252.126 Q 1852.61 253.986, 1851.23 255.722 Q 1849.86 257.459, 1847.03 259.514 L 1852.82 259.514 L 1852.82 260.931 L 1844.37 260.931 L 1844.37 259.744 Q 1846.71 258.079, 1848.09 256.839 Q 1849.49 255.598, 1850.16 254.482 Q 1850.84 253.366, 1850.84 252.214 Q 1850.84 251.01, 1850.24 250.336 Q 1849.63 249.663, 1848.59 249.663 Q 1847.58 249.663, 1846.9 250.071 Q 1846.23 250.478, 1845.75 251.382 L 1844.41 250.762 " fill="#000000"/>
<path class="note" d="M 1748.1 310.659 L 1750.85 310.659 L 1750.85 301.286 L 1747.82 302.225 L 1747.41 301.18 L 1751.26 299.462 L 1752.52 299.674 L 1752.52 310.659 L 1754.98 310.659 L 1754.98 312.076 L 1748.1 312.076 L 1748.1 310.659 " fill="#000000"/>
<path class="note" d="M 1761.75 305.468 Q 1762.97 305.822, 1763.55 306.619 Q 1764.16 307.399, 1764.16 308.639 Q 1764.16 309.702, 1763.63 310.535 Q 1763.09 311.35, 1762.12 311.81 Q 1761.14 312.253, 1759.87 312.253 Q 1758.52 312.253, 1757.51 311.793 Q 1756.52 311.314, 1755.72 310.358 L 1756.73 309.33 Q 1757.51 310.18, 1758.17 310.517 Q 1758.82 310.836, 1759.87 310.836 Q 1761 310.836, 1761.69 310.234 Q 1762.38 309.613, 1762.38 308.621 Q 1762.38 307.346, 1761.66 306.779 Q 1760.95 306.194, 1759.41 306.194 L 1758.5 306.194 L 1758.5 304.918 L 1759.3 304.918 Q 1760.67 304.901, 1761.39 304.316 Q 1762.12 303.714, 1762.12 302.598 Q 1762.12 301.783, 1761.52 301.304 Q 1760.91 300.808, 1759.89 300.808 Q 1758.84 300.808, 1758.19 301.18 Q 1757.55 301.552, 1757.05 302.491 L 1755.83 301.836 Q 1756.27 300.79, 1757.34 300.099 Q 1758.4 299.391, 1759.89 299.391 Q 1761.73 299.391, 1762.81 300.259 Q 1763.89 301.127, 1763.89 302.598 Q 1763.89 303.607, 1763.34 304.334 Q 1762.79 305.06, 1761.75 305.468 " fill="#000000"/>
<path class="note" d="M 1695.93 374.554 L 1698.67 374.554 L 1698.67 365.182 L 1695.64 366.121 L 1695.23 365.076 L 1699.08 363.357 L 1700.34 363.57 L 1700.34 374.554 L 1702.8 374.554 L 1702.8 375.972 L 1695.93 375.972 L 1695.93 374.554 " fill="#000000"/>
<path class="note" d="M 1711.48 371.667 L 1712.99 371.667 L 1712.99 373.084 L 1711.48 373.084 L 1711.48 375.972 L 1709.82 375.972 L 1709.82 373.084 L 1703.33 373.084 L 1703.33 371.968 L 1708.82 363.428 L 1711.48 363.428 L 1711.48 371.667 M 1705.39 371.667 L 1709.82 371.667 L 1709.82 364.562 L 1705.39 371.667 " fill="#000000"/>
<path class="note" d="M 1593.02 374.554 L 1595.76 374.554 L 1595.76 365.182 L 1592.73 366.121 L 1592.33 365.076 L 1596.17 363.357 L 1597.43 363.57 L 1597.43 374.554 L 1599.89 374.554 L 1599.89 375.972 L 1593.02 375.972 L 1593.02 374.554 " fill="#000000"/>
<path class="note" d="M 1605.26 368.123 Q 1606.36 368.123, 1607.26 368.602 Q 1608.17 369.062, 1608.68 369.948 Q 1609.19 370.816, 1609.19 372.003 Q 1609.19 373.297, 1608.56 374.236 Q 1607.94 375.157, 1606.91 375.635 Q 1605.88 376.114, 1604.71 376.114 Q 1603.56 376.114, 1602.5 375.688 Q 1601.43 375.263, 1600.71 374.448 L 1601.77 373.35 Q 1602.36 373.988, 1603.15 374.342 Q 1603.95 374.678, 1604.76 374.678 Q 1605.88 374.678, 1606.64 373.988 Q 1607.42 373.297, 1607.42 372.039 Q 1607.42 370.71, 1606.64 370.09 Q 1605.88 369.452, 1604.66 369.452 Q 1603.56 369.452, 1602.34 369.93 L 1601.36 369.47 L 1601.97 363.428 L 1608.41 363.428 L 1608.24 364.845 L 1603.42 364.845 L 1603.05 368.566 Q 1604.16 368.123, 1605.26 368.123 " fill="#000000"/>
<path class="note" d="M 1541.04 285.086 L 1543.79 285.086 L 1543.79 275.714 L 1540.76 276.653 L 1540.35 275.608 L 1544.2 273.889 L 1545.45 274.102 L 1545.45 285.086 L 1547.92 285.086 L 1547.92 286.504 L 1541.04 286.504 L 1541.04 285.086 " fill="#000000"/>
<path class="note" d="M 1554.03 278.673 Q 1555.13 278.673, 1556 279.151 Q 1556.86 279.629, 1557.34 280.498 Q 1557.82 281.366, 1557.82 282.464 Q 1557.82 283.687, 1557.27 284.643 Q 1556.74 285.582, 1555.78 286.114 Q 1554.83 286.645, 1553.6 286.645 Q 1551.37 286.645, 1550.24 285.14 Q 1549.12 283.616, 1549.12 280.604 Q 1549.12 277.273, 1550.5 275.555 Q 1551.9 273.818, 1554.58 273.818 Q 1555.36 273.818, 1556.01 273.995 Q 1556.69 274.173, 1557.32 274.545 L 1556.63 275.732 Q 1555.71 275.236, 1554.6 275.236 Q 1552.82 275.236, 1551.92 276.387 Q 1551.02 277.521, 1550.91 279.878 Q 1551.55 279.293, 1552.35 278.992 Q 1553.16 278.673, 1554.03 278.673 M 1553.62 285.193 Q 1554.29 285.193, 1554.84 284.838 Q 1555.41 284.484, 1555.73 283.864 Q 1556.05 283.244, 1556.05 282.482 Q 1556.05 281.366, 1555.43 280.728 Q 1554.81 280.09, 1553.71 280.09 Q 1552.95 280.09, 1552.19 280.409 Q 1551.44 280.71, 1550.91 281.242 Q 1550.98 283.315, 1551.64 284.254 Q 1552.29 285.193, 1553.62 285.193 " fill="#000000"/>
<path class="note" d="M 1593.35 195.547 L 1596.09 195.547 L 1596.09 186.175 L 1593.06 187.114 L 1592.66 186.069 L 1596.5 184.35 L 1597.76 184.563 L 1597.76 195.547 L 1600.22 195.547 L 1600.22 196.965 L 1593.35 196.965 L 1593.35 195.547 " fill="#000000"/>
<path class="note" d="M 1607.11 185.838 L 1600.54 185.838 L 1600.54 184.421 L 1608.87 184.421 L 1608.87 185.679 L 1603.8 196.965 L 1602.1 196.965 L 1607.11 185.838 " fill="#000000"/>
<path class="note" d="M 1696.04 195.583 L 1698.79 195.583 L 1698.79 186.21 L 1695.76 187.149 L 1695.35 186.104 L 1699.19 184.386 L 1700.45 184.598 L 1700.45 195.583 L 1702.91 195.583 L 1702.91 197 L 1696.04 197 L 1696.04 195.583 " fill="#000000"/>
<path class="note" d="M 1710.41 190.356 Q 1711.56 190.852, 1712.22 191.596 Q 1712.87 192.323, 1712.87 193.563 Q 1712.87 194.626, 1712.32 195.459 Q 1711.77 196.274, 1710.78 196.734 Q 1709.81 197.177, 1708.51 197.177 Q 1706.42 197.177, 1705.22 196.221 Q 1704.01 195.246, 1704.01 193.563 Q 1704.01 192.535, 1704.54 191.774 Q 1705.08 190.994, 1706.17 190.409 Q 1705.36 189.949, 1704.92 189.276 Q 1704.47 188.585, 1704.47 187.522 Q 1704.47 186.051, 1705.54 185.183 Q 1706.62 184.315, 1708.44 184.315 Q 1710.27 184.315, 1711.33 185.183 Q 1712.41 186.051, 1712.41 187.522 Q 1712.41 188.443, 1711.9 189.134 Q 1711.4 189.807, 1710.41 190.356 M 1708.44 185.644 Q 1707.4 185.644, 1706.81 186.14 Q 1706.25 186.636, 1706.25 187.522 Q 1706.25 188.177, 1706.64 188.62 Q 1707.02 189.045, 1707.57 189.293 Q 1708.14 189.541, 1709.22 189.913 Q 1709.98 189.382, 1710.3 188.815 Q 1710.64 188.248, 1710.64 187.522 Q 1710.64 186.636, 1710.05 186.14 Q 1709.49 185.644, 1708.44 185.644 M 1708.51 195.849 Q 1709.68 195.849, 1710.39 195.228 Q 1711.1 194.591, 1711.1 193.545 Q 1711.1 192.872, 1710.73 192.447 Q 1710.36 192.022, 1709.79 191.774 Q 1709.24 191.526, 1708.25 191.207 L 1707.45 190.941 Q 1706.56 191.472, 1706.17 192.11 Q 1705.78 192.73, 1705.78 193.545 Q 1705.78 194.591, 1706.53 195.228 Q 1707.27 195.849, 1708.51 195.849 " fill="#000000"/>
<path class="note" d="M 2370.89 255.522 L 2373.63 255.522 L 2373.63 246.15 L 2370.6 247.089 L 2370.2 246.044 L 2374.04 244.325 L 2375.3 244.538 L 2375.3 255.522 L 2377.76 255.522 L 2377.76 256.94 L 2370.89 256.94 L 2370.89 255.522 " fill="#000000"/>
<path class="note" d="M 2538.09 430.065 Q 2538.55 428.878, 2539.65 428.222 Q 2540.75 427.549, 2542.27 427.549 Q 2544.17 427.549, 2545.23 428.577 Q 2546.29 429.604, 2546.29 431.429 Q 2546.29 433.289, 2544.91 435.026 Q 2543.55 436.762, 2540.71 438.817 L 2546.51 438.817 L 2546.51 440.234 L 2538.06 440.234 L 2538.06 439.047 Q 2540.39 437.382, 2541.78 436.142 Q 2543.18 434.902, 2543.85 433.785 Q 2544.52 432.669, 2544.52 431.518 Q 2544.52 430.313, 2543.92 429.64 Q 2543.32 428.966, 2542.27 428.966 Q 2541.26 428.966, 2540.59 429.374 Q 2539.92 429.781, 2539.44 430.685 L 2538.09 430.065 " fill="#000000"/>
<path class="note" d="M 2650.31 426.459 Q 2651.54 426.814, 2652.12 427.611 Q 2652.72 428.391, 2652.72 429.631 Q 2652.72 430.694, 2652.19 431.527 Q 2651.66 432.342, 2650.69 432.802 Q 2649.71 433.245, 2648.44 433.245 Q 2647.09 433.245, 2646.08 432.784 Q 2645.09 432.306, 2644.29 431.349 L 2645.3 430.322 Q 2646.08 431.172, 2646.73 431.509 Q 2647.39 431.828, 2648.44 431.828 Q 2649.57 431.828, 2650.26 431.225 Q 2650.95 430.605, 2650.95 429.613 Q 2650.95 428.337, 2650.22 427.771 Q 2649.52 427.186, 2647.97 427.186 L 2647.07 427.186 L 2647.07 425.91 L 2647.87 425.91 Q 2649.23 425.893, 2649.96 425.308 Q 2650.69 424.705, 2650.69 423.589 Q 2650.69 422.774, 2650.08 422.296 Q 2649.48 421.8, 2648.45 421.8 Q 2647.41 421.8, 2646.75 422.172 Q 2646.11 422.544, 2645.62 423.483 L 2644.4 422.827 Q 2644.84 421.782, 2645.9 421.091 Q 2646.96 420.382, 2648.45 420.382 Q 2650.3 420.382, 2651.38 421.251 Q 2652.46 422.119, 2652.46 423.589 Q 2652.46 424.599, 2651.91 425.326 Q 2651.36 426.052, 2650.31 426.459 " fill="#000000"/>
<path class="note" d="M 2745.53 479.239 L 2747.04 479.239 L 2747.04 480.657 L 2745.53 480.657 L 2745.53 483.545 L 2743.86 483.545 L 2743.86 480.657 L 2737.38 480.657 L 2737.38 479.541 L 2742.87 471.001 L 2745.53 471.001 L 2745.53 479.239 M 2739.44 479.239 L 2743.86 479.239 L 2743.86 472.135 L 2739.44 479.239 " fill="#000000"/>
<path class="note" d="M 2659.8 314.223 Q 2660.9 314.223, 2661.8 314.702 Q 2662.71 315.162, 2663.22 316.048 Q 2663.73 316.916, 2663.73 318.103 Q 2663.73 319.397, 2663.1 320.336 Q 2662.48 321.257, 2661.45 321.735 Q 2660.42 322.214, 2659.25 322.214 Q 2658.1 322.214, 2657.04 321.789 Q 2655.97 321.363, 2655.25 320.548 L 2656.31 319.45 Q 2656.9 320.088, 2657.69 320.442 Q 2658.49 320.779, 2659.31 320.779 Q 2660.42 320.779, 2661.18 320.088 Q 2661.96 319.397, 2661.96 318.139 Q 2661.96 316.81, 2661.18 316.19 Q 2660.42 315.552, 2659.2 315.552 Q 2658.1 315.552, 2656.88 316.03 L 2655.9 315.57 L 2656.51 309.528 L 2662.95 309.528 L 2662.78 310.946 L 2657.96 310.946 L 2657.59 314.666 Q 2658.7 314.223, 2659.8 314.223 " fill="#000000"/>
<path class="note" d="M 2594.47 254.759 Q 2595.57 254.759, 2596.44 255.237 Q 2597.3 255.715, 2597.78 256.583 Q 2598.26 257.452, 2598.26 258.55 Q 2598.26 259.772, 2597.71 260.729 Q 2597.18 261.668, 2596.22 262.2 Q 2595.27 262.731, 2594.04 262.731 Q 2591.81 262.731, 2590.68 261.225 Q 2589.56 259.702, 2589.56 256.69 Q 2589.56 253.359, 2590.94 251.64 Q 2592.34 249.904, 2595.02 249.904 Q 2595.8 249.904, 2596.45 250.081 Q 2597.13 250.258, 2597.76 250.63 L 2597.07 251.818 Q 2596.15 251.321, 2595.04 251.321 Q 2593.26 251.321, 2592.36 252.473 Q 2591.46 253.607, 2591.35 255.963 Q 2591.99 255.379, 2592.79 255.077 Q 2593.6 254.759, 2594.47 254.759 M 2594.06 261.278 Q 2594.73 261.278, 2595.28 260.924 Q 2595.85 260.57, 2596.17 259.95 Q 2596.49 259.33, 2596.49 258.568 Q 2596.49 257.452, 2595.87 256.814 Q 2595.25 256.176, 2594.15 256.176 Q 2593.39 256.176, 2592.63 256.495 Q 2591.88 256.796, 2591.35 257.328 Q 2591.42 259.4, 2592.08 260.339 Q 2592.73 261.278, 2594.06 261.278 " fill="#000000"/>
<path class="note" d="M 2618.24 150.393 L 2611.66 150.393 L 2611.66 148.975 L 2619.99 148.975 L 2619.99 150.233 L 2614.92 161.519 L 2613.22 161.519 L 2618.24 150.393 " fill="#000000"/>
<path class="note" d="M 2702.16 127.929 Q 2703.31 128.425, 2703.96 129.169 Q 2704.62 129.895, 2704.62 131.135 Q 2704.62 132.198, 2704.07 133.031 Q 2703.52 133.846, 2702.53 134.307 Q 2701.56 134.75, 2700.26 134.75 Q 2698.17 134.75, 2696.97 133.793 Q 2695.76 132.818, 2695.76 131.135 Q 2695.76 130.108, 2696.29 129.346 Q 2696.82 128.566, 2697.92 127.982 Q 2697.11 127.521, 2696.67 126.848 Q 2696.22 126.157, 2696.22 125.094 Q 2696.22 123.623, 2697.29 122.755 Q 2698.37 121.887, 2700.19 121.887 Q 2702.02 121.887, 2703.08 122.755 Q 2704.16 123.623, 2704.16 125.094 Q 2704.16 126.015, 2703.65 126.706 Q 2703.15 127.379, 2702.16 127.929 M 2700.19 123.216 Q 2699.15 123.216, 2698.56 123.712 Q 2697.99 124.208, 2697.99 125.094 Q 2697.99 125.749, 2698.38 126.192 Q 2698.77 126.617, 2699.32 126.865 Q 2699.89 127.114, 2700.97 127.486 Q 2701.73 126.954, 2702.05 126.387 Q 2702.39 125.82, 2702.39 125.094 Q 2702.39 124.208, 2701.8 123.712 Q 2701.24 123.216, 2700.19 123.216 M 2700.26 133.421 Q 2701.43 133.421, 2702.14 132.801 Q 2702.85 132.163, 2702.85 131.118 Q 2702.85 130.444, 2702.48 130.019 Q 2702.1 129.594, 2701.54 129.346 Q 2700.99 129.098, 2700 128.779 L 2699.2 128.513 Q 2698.31 129.045, 2697.92 129.682 Q 2697.53 130.303, 2697.53 131.118 Q 2697.53 132.163, 2698.28 132.801 Q 2699.02 133.421, 2700.26 133.421 " fill="#000000"/>
<path class="note" d="M 2736.03 16.3845 Q 2738.27 16.3845, 2739.38 17.9082 Q 2740.52 19.4142, 2740.52 22.4261 Q 2740.52 25.7569, 2739.12 27.4932 Q 2737.74 29.2117, 2735.06 29.2117 Q 2734.28 29.2117, 2733.61 29.0346 Q 2732.95 28.8574, 2732.31 28.4853 L 2733 27.2983 Q 2733.93 27.7944, 2735.04 27.7944 Q 2736.81 27.7944, 2737.72 26.6605 Q 2738.62 25.5089, 2738.73 23.1525 Q 2738.09 23.7371, 2737.27 24.0561 Q 2736.48 24.3572, 2735.61 24.3572 Q 2734.51 24.3572, 2733.64 23.8789 Q 2732.77 23.4005, 2732.3 22.5324 Q 2731.82 21.6642, 2731.82 20.5658 Q 2731.82 19.3433, 2732.35 18.4043 Q 2732.9 17.4476, 2733.85 16.9161 Q 2734.81 16.3845, 2736.03 16.3845 M 2733.59 20.5481 Q 2733.59 21.6642, 2734.21 22.3021 Q 2734.83 22.9399, 2735.93 22.9399 Q 2736.69 22.9399, 2737.43 22.6387 Q 2738.2 22.3198, 2738.73 21.7883 Q 2738.66 19.7154, 2738 18.7764 Q 2737.35 17.8374, 2736.02 17.8374 Q 2735.34 17.8374, 2734.78 18.1917 Q 2734.23 18.546, 2733.91 19.1661 Q 2733.59 19.7862, 2733.59 20.5481 " fill="#000000"/>
<path class="note" d="M 2792.82 193.628 L 2795.57 193.628 L 2795.57 184.256 L 2792.54 185.195 L 2792.13 184.149 L 2795.97 182.431 L 2797.23 182.644 L 2797.23 193.628 L 2799.69 193.628 L 2799.69 195.045 L 2792.82 195.045 L 2792.82 193.628 " fill="#000000"/>
<path class="note" d="M 2805.36 195.187 Q 2803.06 195.187, 2801.91 193.486 Q 2800.77 191.786, 2800.77 188.756 Q 2800.77 185.726, 2801.91 184.043 Q 2803.04 182.36, 2805.36 182.36 Q 2807.68 182.36, 2808.82 184.043 Q 2809.95 185.726, 2809.95 188.756 Q 2809.95 191.786, 2808.8 193.486 Q 2807.67 195.187, 2805.36 195.187 M 2805.36 193.77 Q 2806.73 193.77, 2807.45 192.512 Q 2808.18 191.236, 2808.18 188.756 Q 2808.18 186.293, 2807.45 185.035 Q 2806.73 183.777, 2805.36 183.777 Q 2804.02 183.777, 2803.27 185.035 Q 2802.55 186.293, 2802.55 188.756 Q 2802.55 191.236, 2803.27 192.512 Q 2804.02 193.77, 2805.36 193.77 " fill="#000000"/>
<path class="note" d="M 2743.65 303.598 L 2746.4 303.598 L 2746.4 294.226 L 2743.37 295.165 L 2742.96 294.119 L 2746.8 292.401 L 2748.06 292.613 L 2748.06 303.598 L 2750.53 303.598 L 2750.53 305.015 L 2743.65 305.015 L 2743.65 303.598 " fill="#000000"/>
<path class="note" d="M 2752.17 303.598 L 2754.92 303.598 L 2754.92 294.226 L 2751.89 295.165 L 2751.48 294.119 L 2755.33 292.401 L 2756.58 292.613 L 2756.58 303.598 L 2759.05 303.598 L 2759.05 305.015 L 2752.17 305.015 L 2752.17 303.598 " fill="#000000"/>
<path class="note" d="M 2840.81 355.02 L 2843.56 355.02 L 2843.56 345.648 L 2840.53 346.587 L 2840.12 345.541 L 2843.97 343.823 L 2845.22 344.035 L 2845.22 355.02 L 2847.69 355.02 L 2847.69 356.437 L 2840.81 356.437 L 2840.81 355.02 " fill="#000000"/>
<path class="note" d="M 2848.61 346.268 Q 2849.07 345.081, 2850.17 344.425 Q 2851.26 343.752, 2852.79 343.752 Q 2854.68 343.752, 2855.75 344.779 Q 2856.81 345.807, 2856.81 347.632 Q 2856.81 349.492, 2855.43 351.228 Q 2854.06 352.965, 2851.23 355.02 L 2857.02 355.02 L 2857.02 356.437 L 2848.57 356.437 L 2848.57 355.25 Q 2850.91 353.585, 2852.29 352.345 Q 2853.69 351.104, 2854.37 349.988 Q 2855.04 348.872, 2855.04 347.72 Q 2855.04 346.516, 2854.44 345.842 Q 2853.83 345.169, 2852.79 345.169 Q 2851.78 345.169, 2851.11 345.577 Q 2850.43 345.984, 2849.95 346.888 L 2848.61 346.268 " fill="#000000"/>
<path class="note" d="M 2893.27 336.169 L 2896.01 336.169 L 2896.01 326.797 L 2892.99 327.736 L 2892.58 326.691 L 2896.42 324.972 L 2897.68 325.185 L 2897.68 336.169 L 2900.14 336.169 L 2900.14 337.587 L 2893.27 337.587 L 2893.27 336.169 " fill="#000000"/>
<path class="note" d="M 2906.91 330.978 Q 2908.13 331.332, 2908.72 332.13 Q 2909.32 332.909, 2909.32 334.149 Q 2909.32 335.213, 2908.79 336.045 Q 2908.26 336.86, 2907.28 337.321 Q 2906.31 337.764, 2905.03 337.764 Q 2903.69 337.764, 2902.68 337.303 Q 2901.68 336.825, 2900.89 335.868 L 2901.9 334.84 Q 2902.68 335.691, 2903.33 336.028 Q 2903.99 336.346, 2905.03 336.346 Q 2906.17 336.346, 2906.86 335.744 Q 2907.55 335.124, 2907.55 334.132 Q 2907.55 332.856, 2906.82 332.289 Q 2906.11 331.705, 2904.57 331.705 L 2903.67 331.705 L 2903.67 330.429 L 2904.47 330.429 Q 2905.83 330.411, 2906.56 329.827 Q 2907.28 329.224, 2907.28 328.108 Q 2907.28 327.293, 2906.68 326.815 Q 2906.08 326.319, 2905.05 326.319 Q 2904.01 326.319, 2903.35 326.691 Q 2902.71 327.063, 2902.22 328.002 L 2900.99 327.346 Q 2901.44 326.301, 2902.5 325.61 Q 2903.56 324.901, 2905.05 324.901 Q 2906.89 324.901, 2907.97 325.769 Q 2909.05 326.637, 2909.05 328.108 Q 2909.05 329.118, 2908.51 329.844 Q 2907.96 330.571, 2906.91 330.978 " fill="#000000"/>
<path class="note" d="M 2958.34 395.687 L 2961.09 395.687 L 2961.09 386.315 L 2958.06 387.254 L 2957.65 386.209 L 2961.5 384.49 L 2962.76 384.703 L 2962.76 395.687 L 2965.22 395.687 L 2965.22 397.105 L 2958.34 397.105 L 2958.34 395.687 " fill="#000000"/>
<path class="note" d="M 2973.9 392.799 L 2975.41 392.799 L 2975.41 394.217 L 2973.9 394.217 L 2973.9 397.105 L 2972.23 397.105 L 2972.23 394.217 L 2965.75 394.217 L 2965.75 393.1 L 2971.24 384.561 L 2973.9 384.561 L 2973.9 392.799 M 2967.8 392.799 L 2972.23 392.799 L 2972.23 385.695 L 2967.8 392.799 " fill="#000000"/>
<path class="note" d="M 3057.21 364.167 L 3059.96 364.167 L 3059.96 354.794 L 3056.93 355.733 L 3056.52 354.688 L 3060.37 352.969 L 3061.62 353.182 L 3061.62 364.167 L 3064.09 364.167 L 3064.09 365.584 L 3057.21 365.584 L 3057.21 364.167 " fill="#000000"/>
<path class="note" d="M 3069.46 357.735 Q 3070.55 357.735, 3071.46 358.214 Q 3072.36 358.674, 3072.87 359.56 Q 3073.39 360.428, 3073.39 361.615 Q 3073.39 362.909, 3072.75 363.848 Q 3072.13 364.769, 3071.1 365.247 Q 3070.08 365.726, 3068.91 365.726 Q 3067.75 365.726, 3066.69 365.301 Q 3065.63 364.875, 3064.9 364.06 L 3065.96 362.962 Q 3066.55 363.6, 3067.35 363.954 Q 3068.14 364.291, 3068.96 364.291 Q 3070.08 364.291, 3070.84 363.6 Q 3071.62 362.909, 3071.62 361.651 Q 3071.62 360.322, 3070.84 359.702 Q 3070.08 359.064, 3068.85 359.064 Q 3067.75 359.064, 3066.53 359.542 L 3065.56 359.082 L 3066.16 353.04 L 3072.61 353.04 L 3072.43 354.458 L 3067.61 354.458 L 3067.24 358.178 Q 3068.36 357.735, 3069.46 357.735 " fill="#000000"/>
<path class="note" d="M 3092.89 258.7 L 3095.63 258.7 L 3095.63 249.327 L 3092.6 250.266 L 3092.2 249.221 L 3096.04 247.502 L 3097.3 247.715 L 3097.3 258.7 L 3099.76 258.7 L 3099.76 260.117 L 3092.89 260.117 L 3092.89 258.7 " fill="#000000"/>
<path class="note" d="M 3105.87 252.286 Q 3106.97 252.286, 3107.84 252.764 Q 3108.71 253.243, 3109.19 254.111 Q 3109.67 254.979, 3109.67 256.078 Q 3109.67 257.3, 3109.12 258.257 Q 3108.58 259.196, 3107.63 259.727 Q 3106.67 260.259, 3105.45 260.259 Q 3103.22 260.259, 3102.08 258.753 Q 3100.97 257.229, 3100.97 254.217 Q 3100.97 250.886, 3102.35 249.168 Q 3103.75 247.432, 3106.42 247.432 Q 3107.2 247.432, 3107.86 247.609 Q 3108.53 247.786, 3109.17 248.158 L 3108.48 249.345 Q 3107.56 248.849, 3106.44 248.849 Q 3104.67 248.849, 3103.77 250.001 Q 3102.86 251.134, 3102.76 253.491 Q 3103.39 252.906, 3104.19 252.605 Q 3105.01 252.286, 3105.87 252.286 M 3105.47 258.806 Q 3106.14 258.806, 3106.69 258.452 Q 3107.26 258.097, 3107.58 257.477 Q 3107.89 256.857, 3107.89 256.095 Q 3107.89 254.979, 3107.27 254.341 Q 3106.65 253.703, 3105.56 253.703 Q 3104.79 253.703, 3104.03 254.022 Q 3103.29 254.324, 3102.76 254.855 Q 3102.83 256.928, 3103.48 257.867 Q 3104.14 258.806, 3105.47 258.806 " fill="#000000"/>
<path class="note" d="M 3002.95 193.688 L 3005.69 193.688 L 3005.69 184.316 L 3002.66 185.255 L 3002.25 184.21 L 3006.1 182.491 L 3007.36 182.704 L 3007.36 193.688 L 3009.82 193.688 L 3009.82 195.106 L 3002.95 195.106 L 3002.95 193.688 " fill="#000000"/>
<path class="note" d="M 3016.71 183.979 L 3010.14 183.979 L 3010.14 182.562 L 3018.47 182.562 L 3018.47 183.82 L 3013.4 195.106 L 3011.7 195.106 L 3016.71 183.979 " fill="#000000"/>
<path class="note" d="M 2903.86 225.244 L 2906.61 225.244 L 2906.61 215.872 L 2903.58 216.811 L 2903.17 215.766 L 2907.02 214.047 L 2908.28 214.26 L 2908.28 225.244 L 2910.74 225.244 L 2910.74 226.662 L 2903.86 226.662 L 2903.86 225.244 " fill="#000000"/>
<path class="note" d="M 2918.23 220.018 Q 2919.38 220.514, 2920.04 221.258 Q 2920.7 221.984, 2920.7 223.224 Q 2920.7 224.287, 2920.15 225.12 Q 2919.6 225.935, 2918.6 226.396 Q 2917.63 226.839, 2916.34 226.839 Q 2914.25 226.839, 2913.04 225.882 Q 2911.84 224.908, 2911.84 223.224 Q 2911.84 222.197, 2912.37 221.435 Q 2912.9 220.655, 2914 220.071 Q 2913.18 219.61, 2912.74 218.937 Q 2912.3 218.246, 2912.3 217.183 Q 2912.3 215.712, 2913.36 214.844 Q 2914.44 213.976, 2916.27 213.976 Q 2918.09 213.976, 2919.15 214.844 Q 2920.23 215.712, 2920.23 217.183 Q 2920.23 218.104, 2919.72 218.795 Q 2919.22 219.468, 2918.23 220.018 M 2916.27 215.305 Q 2915.22 215.305, 2914.64 215.801 Q 2914.07 216.297, 2914.07 217.183 Q 2914.07 217.838, 2914.46 218.281 Q 2914.85 218.707, 2915.4 218.955 Q 2915.96 219.203, 2917.05 219.575 Q 2917.81 219.043, 2918.13 218.476 Q 2918.46 217.909, 2918.46 217.183 Q 2918.46 216.297, 2917.88 215.801 Q 2917.31 215.305, 2916.27 215.305 M 2916.34 225.51 Q 2917.51 225.51, 2918.21 224.89 Q 2918.92 224.252, 2918.92 223.207 Q 2918.92 222.533, 2918.55 222.108 Q 2918.18 221.683, 2917.61 221.435 Q 2917.06 221.187, 2916.07 220.868 L 2915.27 220.602 Q 2914.39 221.134, 2914 221.772 Q 2913.61 222.392, 2913.61 223.207 Q 2913.61 224.252, 2914.35 224.89 Q 2915.1 225.51, 2916.34 225.51 " fill="#000000"/>
<path d="M 1438.7 252.199 L 1444.75 252.199 L 1444.75 245.831 L 1447.44 245.831 L 1447.44 252.199 L 1453.65 252.199 L 1453.65 254.503 L 1447.44 254.503 L 1447.44 260.903 L 1444.75 260.903 L 1444.75 254.503 L 1438.7 254.503 L 1438.7 252.199 " fill="#000000"/>
<path d="M 2455.97 252.199 L 2462.01 252.199 L 2462.01 245.831 L 2464.7 245.831 L 2464.7 252.199 L 2470.91 252.199 L 2470.91 254.503 L 2464.7 254.503 L 2464.7 260.903 L 2462.01 260.903 L 2462.01 254.503 L 2455.97 254.503 L 2455.97 252.199 " fill="#000000"/>
<path d="M 1988.36,254.503 L 2224.59,254.503" style="fill:none;fill-rule:evenodd;stroke:#000000;stroke-width:2.0px;stroke-linecap:butt;stroke-linejoin:miter;stroke-opacity:1"/>
<path d="M 2224.59,254.503 L 2214.36,248.597" style="fill:none;fill-rule:evenodd;stroke:#000000;stroke-width:2.0px;stroke-linecap:butt;stroke-linejoin:miter;stroke-opacity:1"/>
<path d="M 2224.59,254.503 L 2214.36,260.409" style="fill:none;fill-rule:evenodd;stroke:#000000;stroke-width:2.0px;stroke-linecap:butt;stroke-linejoin:miter;stroke-opacity:1"/>
</svg>