<svg xmlns="http://www.w3.org/2000/svg" xmlns:rdkit="http://www.rdkit.org/xml" xmlns:xlink="http://www.w3.org/1999/xlink" version="1.1" baseProfile="full" xml:space="preserve" width="4000px" height="500px" viewBox="0 0 4000 500">
<!-- END OF HEADER -->
<rect style="opacity:1.0;fill:#FFFFFF;stroke:none" width="4000" height="500" x="0" y="0"> </rect>
<path d="M 209.415,156.906 L 328.913,225.898" style="fill:none;fill-rule:evenodd;stroke:#FFFFAA;stroke-width:29.4px;stroke-linecap:butt;stroke-linejoin:miter;stroke-opacity:1"/>
<path d="M 328.913,225.898 L 328.913,363.882" style="fill:none;fill-rule:evenodd;stroke:#FFFFAA;stroke-width:29.4px;stroke-linecap:butt;stroke-linejoin:miter;stroke-opacity:1"/>
<path d="M 328.913,225.898 L 448.411,156.906" style="fill:none;fill-rule:evenodd;stroke:#FFFFAA;stroke-width:29.4px;stroke-linecap:butt;stroke-linejoin:miter;stroke-opacity:1"/>
<path d="M 448.411,156.906 L 567.909,225.898" style="fill:none;fill-rule:evenodd;stroke:#FFFFAA;stroke-width:29.4px;stroke-linecap:butt;stroke-linejoin:miter;stroke-opacity:1"/>
<path d="M 567.909,225.898 L 687.407,156.906" style="fill:none;fill-rule:evenodd;stroke:#FFFFAA;stroke-width:29.4px;stroke-linecap:butt;stroke-linejoin:miter;stroke-opacity:1"/>
<path d="M 567.909,225.898 L 567.909,363.882" style="fill:none;fill-rule:evenodd;stroke:#FFFFAA;stroke-width:29.4px;stroke-linecap:butt;stroke-linejoin:miter;stroke-opacity:1"/>
<path d="M 1091.82,276.241 L 1226.18,244.815" style="fill:none;fill-rule:evenodd;stroke:#FFCC99;stroke-width:29.4px;stroke-linecap:butt;stroke-linejoin:miter;stroke-opacity:1"/>
<path d="M 1226.18,244.815 L 1266.14,112.744" style="fill:none;fill-rule:evenodd;stroke:#FFCC99;stroke-width:29.4px;stroke-linecap:butt;stroke-linejoin:miter;stroke-opacity:1"/>
<path d="M 1226.18,244.815 L 1320.57,345.459" style="fill:none;fill-rule:evenodd;stroke:#FFCC99;stroke-width:29.4px;stroke-linecap:butt;stroke-linejoin:miter;stroke-opacity:1"/>
<path d="M 1266.14,112.744 L 1400.5,81.3179" style="fill:none;fill-rule:evenodd;stroke:#FFCC99;stroke-width:29.4px;stroke-linecap:butt;stroke-linejoin:miter;stroke-opacity:1"/>
<path d="M 1400.5,81.3179 L 1494.89,181.962" style="fill:none;fill-rule:evenodd;stroke:#FFCC99;stroke-width:29.4px;stroke-linecap:butt;stroke-linejoin:miter;stroke-opacity:1"/>
<path d="M 1494.89,181.962 L 1629.25,150.536" style="fill:none;fill-rule:evenodd;stroke:#FFCC99;stroke-width:29.4px;stroke-linecap:butt;stroke-linejoin:miter;stroke-opacity:1"/>
<path d="M 1494.89,181.962 L 1454.93,314.033" style="fill:none;fill-rule:evenodd;stroke:#FFCC99;stroke-width:29.4px;stroke-linecap:butt;stroke-linejoin:miter;stroke-opacity:1"/>
<path d="M 1454.93,314.033 L 1549.33,414.677" style="fill:none;fill-rule:evenodd;stroke:#FFCC99;stroke-width:29.4px;stroke-linecap:butt;stroke-linejoin:miter;stroke-opacity:1"/>
<path d="M 1454.93,314.033 L 1320.57,345.459" style="fill:none;fill-rule:evenodd;stroke:#FFCC99;stroke-width:29.4px;stroke-linecap:butt;stroke-linejoin:miter;stroke-opacity:1"/>
<path d="M 2433.06,304.746 L 2552.55,235.754" style="fill:none;fill-rule:evenodd;stroke:#FFFFAA;stroke-width:29.4px;stroke-linecap:butt;stroke-linejoin:miter;stroke-opacity:1"/>
<path d="M 2552.55,235.754 L 2672.05,304.746" style="fill:none;fill-rule:evenodd;stroke:#FFFFAA;stroke-width:29.4px;stroke-linecap:butt;stroke-linejoin:miter;stroke-opacity:1"/>
<path d="M 2552.55,235.754 L 2552.55,97.7695" style="fill:none;fill-rule:evenodd;stroke:#FFFFAA;stroke-width:29.4px;stroke-linecap:butt;stroke-linejoin:miter;stroke-opacity:1"/>
<path d="M 3023.43,290.373 L 3151.85,239.873" style="fill:none;fill-rule:evenodd;stroke:#FFFFAA;stroke-width:29.4px;stroke-linecap:butt;stroke-linejoin:miter;stroke-opacity:1"/>
<path d="M 3151.85,239.873 L 3172.32,103.416" style="fill:none;fill-rule:evenodd;stroke:#FFFFAA;stroke-width:29.4px;stroke-linecap:butt;stroke-linejoin:miter;stroke-opacity:1"/>
<path d="M 3259.79,325.83 L 3388.2,275.33" style="fill:none;fill-rule:evenodd;stroke:#FFCC99;stroke-width:29.4px;stroke-linecap:butt;stroke-linejoin:miter;stroke-opacity:1"/>
<path d="M 3388.2,275.33 L 3408.67,138.873" style="fill:none;fill-rule:evenodd;stroke:#FFCC99;stroke-width:29.4px;stroke-linecap:butt;stroke-linejoin:miter;stroke-opacity:1"/>
<path d="M 3388.2,275.33 L 3496.14,361.287" style="fill:none;fill-rule:evenodd;stroke:#FFCC99;stroke-width:29.4px;stroke-linecap:butt;stroke-linejoin:miter;stroke-opacity:1"/>
<path d="M 3408.67,138.873 L 3537.08,88.3726" style="fill:none;fill-rule:evenodd;stroke:#FFCC99;stroke-width:29.4px;stroke-linecap:butt;stroke-linejoin:miter;stroke-opacity:1"/>
<path d="M 3537.08,88.3726 L 3645.02,174.33" style="fill:none;fill-rule:evenodd;stroke:#FFCC99;stroke-width:29.4px;stroke-linecap:butt;stroke-linejoin:miter;stroke-opacity:1"/>
<path d="M 3645.02,174.33 L 3773.43,123.83" style="fill:none;fill-rule:evenodd;stroke:#FFCC99;stroke-width:29.4px;stroke-linecap:butt;stroke-linejoin:miter;stroke-opacity:1"/>
<path d="M 3645.02,174.33 L 3624.55,310.787" style="fill:none;fill-rule:evenodd;stroke:#FFCC99;stroke-width:29.4px;stroke-linecap:butt;stroke-linejoin:miter;stroke-opacity:1"/>
<path d="M 3624.55,310.787 L 3732.49,396.745" style="fill:none;fill-rule:evenodd;stroke:#FFCC99;stroke-width:29.4px;stroke-linecap:butt;stroke-linejoin:miter;stroke-opacity:1"/>
<path d="M 3624.55,310.787 L 3496.14,361.287" style="fill:none;fill-rule:evenodd;stroke:#FFCC99;stroke-width:29.4px;stroke-linecap:butt;stroke-linejoin:miter;stroke-opacity:1"/>
<ellipse cx="209.415" cy="156.906" rx="27.5969" ry="27.5969" style="fill:#FFFFAA;fill-rule:evenodd;stroke:#FFFFAA;stroke-width:1px;stroke-linecap:butt;stroke-linejoin:miter;stroke-opacity:1"/>
<ellipse cx="328.913" cy="225.898" rx="27.5969" ry="27.5969" style="fill:#FFFFAA;fill-rule:evenodd;stroke:#FFFFAA;stroke-width:1px;stroke-linecap:butt;stroke-linejoin:miter;stroke-opacity:1"/>
<ellipse cx="328.913" cy="364.102" rx="27.5969" ry="27.5969" style="fill:#FFFFAA;fill-rule:evenodd;stroke:#FFFFAA;stroke-width:1px;stroke-linecap:butt;stroke-linejoin:miter;stroke-opacity:1"/>
<ellipse cx="448.411" cy="157.126" rx="27.5969" ry="27.5969" style="fill:#FFFFAA;fill-rule:evenodd;stroke:#FFFFAA;stroke-width:1px;stroke-linecap:butt;stroke-linejoin:miter;stroke-opacity:1"/>
<ellipse cx="567.909" cy="225.898" rx="27.5969" ry="27.5969" style="fill:#FFFFAA;fill-rule:evenodd;stroke:#FFFFAA;stroke-width:1px;stroke-linecap:butt;stroke-linejoin:miter;stroke-opacity:1"/>
<ellipse cx="687.407" cy="156.906" rx="27.5969" ry="27.5969" style="fill:#FFFFAA;fill-rule:evenodd;stroke:#FFFFAA;stroke-width:1px;stroke-linecap:butt;stroke-linejoin:miter;stroke-opacity:1"/>
<ellipse cx="567.909" cy="364.102" rx="27.5969" ry="27.5969" style="fill:#FFFFAA;fill-rule:evenodd;stroke:#FFFFAA;stroke-width:1px;stroke-linecap:butt;stroke-linejoin:miter;stroke-opacity:1"/>
<ellipse cx="1072.12" cy="283.321" rx="43.0436" ry="30.0379" style="fill:#FFCC99;fill-rule:evenodd;stroke:#FFCC99;stroke-width:1px;stroke-linecap:butt;stroke-linejoin:miter;stroke-opacity:1"/>
<ellipse cx="1226.18" cy="244.815" rx="27.5969" ry="27.5969" style="fill:#FFCC99;fill-rule:evenodd;stroke:#FFCC99;stroke-width:1px;stroke-linecap:butt;stroke-linejoin:miter;stroke-opacity:1"/>
<ellipse cx="1266.14" cy="112.744" rx="27.5969" ry="27.5969" style="fill:#FFCC99;fill-rule:evenodd;stroke:#FFCC99;stroke-width:1px;stroke-linecap:butt;stroke-linejoin:miter;stroke-opacity:1"/>
<ellipse cx="1400.5" cy="81.3179" rx="27.5969" ry="27.5969" style="fill:#FFCC99;fill-rule:evenodd;stroke:#FFCC99;stroke-width:1px;stroke-linecap:butt;stroke-linejoin:miter;stroke-opacity:1"/>
<ellipse cx="1494.89" cy="181.962" rx="27.5969" ry="27.5969" style="fill:#FFCC99;fill-rule:evenodd;stroke:#FFCC99;stroke-width:1px;stroke-linecap:butt;stroke-linejoin:miter;stroke-opacity:1"/>
<ellipse cx="1642.03" cy="150.756" rx="36.4584" ry="27.5969" style="fill:#FFCC99;fill-rule:evenodd;stroke:#FFCC99;stroke-width:1px;stroke-linecap:butt;stroke-linejoin:miter;stroke-opacity:1"/>
<ellipse cx="1454.93" cy="314.033" rx="27.5969" ry="27.5969" style="fill:#FFCC99;fill-rule:evenodd;stroke:#FFCC99;stroke-width:1px;stroke-linecap:butt;stroke-linejoin:miter;stroke-opacity:1"/>
<ellipse cx="1552.89" cy="414.857" rx="27.5969" ry="27.5969" style="fill:#FFCC99;fill-rule:evenodd;stroke:#FFCC99;stroke-width:1px;stroke-linecap:butt;stroke-linejoin:miter;stroke-opacity:1"/>
<ellipse cx="1320.57" cy="345.459" rx="27.5969" ry="27.5969" style="fill:#FFCC99;fill-rule:evenodd;stroke:#FFCC99;stroke-width:1px;stroke-linecap:butt;stroke-linejoin:miter;stroke-opacity:1"/>
<ellipse cx="2433.06" cy="304.746" rx="27.5969" ry="27.5969" style="fill:#FFFFAA;fill-rule:evenodd;stroke:#FFFFAA;stroke-width:1px;stroke-linecap:butt;stroke-linejoin:miter;stroke-opacity:1"/>
<ellipse cx="2552.55" cy="235.754" rx="27.5969" ry="27.5969" style="fill:#FFFFAA;fill-rule:evenodd;stroke:#FFFFAA;stroke-width:1px;stroke-linecap:butt;stroke-linejoin:miter;stroke-opacity:1"/>
<ellipse cx="2672.05" cy="304.966" rx="27.5969" ry="27.5969" style="fill:#FFFFAA;fill-rule:evenodd;stroke:#FFFFAA;stroke-width:1px;stroke-linecap:butt;stroke-linejoin:miter;stroke-opacity:1"/>
<ellipse cx="2565.33" cy="97.9895" rx="36.4584" ry="27.5969" style="fill:#FFFFAA;fill-rule:evenodd;stroke:#FFFFAA;stroke-width:1px;stroke-linecap:butt;stroke-linejoin:miter;stroke-opacity:1"/>
<ellipse cx="3023.43" cy="290.373" rx="27.5969" ry="27.5969" style="fill:#FFFFAA;fill-rule:evenodd;stroke:#FFFFAA;stroke-width:1px;stroke-linecap:butt;stroke-linejoin:miter;stroke-opacity:1"/>
<ellipse cx="3151.85" cy="239.873" rx="27.5969" ry="27.5969" style="fill:#FFFFAA;fill-rule:evenodd;stroke:#FFFFAA;stroke-width:1px;stroke-linecap:butt;stroke-linejoin:miter;stroke-opacity:1"/>
<ellipse cx="3172.32" cy="103.636" rx="27.5969" ry="27.5969" style="fill:#FFFFAA;fill-rule:evenodd;stroke:#FFFFAA;stroke-width:1px;stroke-linecap:butt;stroke-linejoin:miter;stroke-opacity:1"/>
<ellipse cx="3259.79" cy="341.406" rx="27.5969" ry="42.0531" style="fill:#FFCC99;fill-rule:evenodd;stroke:#FFCC99;stroke-width:1px;stroke-linecap:butt;stroke-linejoin:miter;stroke-opacity:1"/>
<ellipse cx="3388.2" cy="275.33" rx="27.5969" ry="27.5969" style="fill:#FFCC99;fill-rule:evenodd;stroke:#FFCC99;stroke-width:1px;stroke-linecap:butt;stroke-linejoin:miter;stroke-opacity:1"/>
<ellipse cx="3408.67" cy="138.873" rx="27.5969" ry="27.5969" style="fill:#FFCC99;fill-rule:evenodd;stroke:#FFCC99;stroke-width:1px;stroke-linecap:butt;stroke-linejoin:miter;stroke-opacity:1"/>
<ellipse cx="3537.08" cy="88.3726" rx="27.5969" ry="27.5969" style="fill:#FFCC99;fill-rule:evenodd;stroke:#FFCC99;stroke-width:1px;stroke-linecap:butt;stroke-linejoin:miter;stroke-opacity:1"/>
<ellipse cx="3645.02" cy="174.33" rx="27.5969" ry="27.5969" style="fill:#FFCC99;fill-rule:evenodd;stroke:#FFCC99;stroke-width:1px;stroke-linecap:butt;stroke-linejoin:miter;stroke-opacity:1"/>
<ellipse cx="3786.21" cy="124.05" rx="36.4584" ry="27.5969" style="fill:#FFCC99;fill-rule:evenodd;stroke:#FFCC99;stroke-width:1px;stroke-linecap:butt;stroke-linejoin:miter;stroke-opacity:1"/>
<ellipse cx="3624.55" cy="310.787" rx="27.5969" ry="27.5969" style="fill:#FFCC99;fill-rule:evenodd;stroke:#FFCC99;stroke-width:1px;stroke-linecap:butt;stroke-linejoin:miter;stroke-opacity:1"/>
<ellipse cx="3736.05" cy="396.925" rx="27.5969" ry="27.5969" style="fill:#FFCC99;fill-rule:evenodd;stroke:#FFCC99;stroke-width:1px;stroke-linecap:butt;stroke-linejoin:miter;stroke-opacity:1"/>
<ellipse cx="3496.14" cy="361.287" rx="27.5969" ry="27.5969" style="fill:#FFCC99;fill-rule:evenodd;stroke:#FFCC99;stroke-width:1px;stroke-linecap:butt;stroke-linejoin:miter;stroke-opacity:1"/>
<path class="bond-0" d="M 209.415,156.906 L 328.913,225.898" style="fill:none;fill-rule:evenodd;stroke:#000000;stroke-width:2.0px;stroke-linecap:butt;stroke-linejoin:miter;stroke-opacity:1"/>
<path class="bond-1" d="M 315.115,225.898 L 315.115,286.005" style="fill:none;fill-rule:evenodd;stroke:#000000;stroke-width:2.0px;stroke-linecap:butt;stroke-linejoin:miter;stroke-opacity:1"/>
<path class="bond-1" d="M 315.115,286.005 L 315.115,346.113" style="fill:none;fill-rule:evenodd;stroke:#FF0000;stroke-width:2.0px;stroke-linecap:butt;stroke-linejoin:miter;stroke-opacity:1"/>
<path class="bond-1" d="M 342.711,225.898 L 342.711,286.005" style="fill:none;fill-rule:evenodd;stroke:#000000;stroke-width:2.0px;stroke-linecap:butt;stroke-linejoin:miter;stroke-opacity:1"/>
<path class="bond-1" d="M 342.711,286.005 L 342.711,346.113" style="fill:none;fill-rule:evenodd;stroke:#FF0000;stroke-width:2.0px;stroke-linecap:butt;stroke-linejoin:miter;stroke-opacity:1"/>
<path class="bond-2" d="M 328.913,225.898 L 380.437,196.15" style="fill:none;fill-rule:evenodd;stroke:#000000;stroke-width:2.0px;stroke-linecap:butt;stroke-linejoin:miter;stroke-opacity:1"/>
<path class="bond-2" d="M 380.437,196.15 L 431.961,166.403" style="fill:none;fill-rule:evenodd;stroke:#FF0000;stroke-width:2.0px;stroke-linecap:butt;stroke-linejoin:miter;stroke-opacity:1"/>
<path class="bond-3" d="M 464.861,166.403 L 516.385,196.15" style="fill:none;fill-rule:evenodd;stroke:#FF0000;stroke-width:2.0px;stroke-linecap:butt;stroke-linejoin:miter;stroke-opacity:1"/>
<path class="bond-3" d="M 516.385,196.15 L 567.909,225.898" style="fill:none;fill-rule:evenodd;stroke:#000000;stroke-width:2.0px;stroke-linecap:butt;stroke-linejoin:miter;stroke-opacity:1"/>
<path class="bond-4" d="M 567.909,225.898 L 687.407,156.906" style="fill:none;fill-rule:evenodd;stroke:#000000;stroke-width:2.0px;stroke-linecap:butt;stroke-linejoin:miter;stroke-opacity:1"/>
<path class="bond-5" d="M 554.111,225.898 L 554.111,286.005" style="fill:none;fill-rule:evenodd;stroke:#000000;stroke-width:2.0px;stroke-linecap:butt;stroke-linejoin:miter;stroke-opacity:1"/>
<path class="bond-5" d="M 554.111,286.005 L 554.111,346.113" style="fill:none;fill-rule:evenodd;stroke:#FF0000;stroke-width:2.0px;stroke-linecap:butt;stroke-linejoin:miter;stroke-opacity:1"/>
<path class="bond-5" d="M 581.707,225.898 L 581.707,286.005" style="fill:none;fill-rule:evenodd;stroke:#000000;stroke-width:2.0px;stroke-linecap:butt;stroke-linejoin:miter;stroke-opacity:1"/>
<path class="bond-5" d="M 581.707,286.005 L 581.707,346.113" style="fill:none;fill-rule:evenodd;stroke:#FF0000;stroke-width:2.0px;stroke-linecap:butt;stroke-linejoin:miter;stroke-opacity:1"/>
<path class="bond-6" d="M 1106.01,272.922 L 1166.09,258.868" style="fill:none;fill-rule:evenodd;stroke:#0000FF;stroke-width:2.0px;stroke-linecap:butt;stroke-linejoin:miter;stroke-opacity:1"/>
<path class="bond-6" d="M 1166.09,258.868 L 1226.18,244.815" style="fill:none;fill-rule:evenodd;stroke:#000000;stroke-width:2.0px;stroke-linecap:butt;stroke-linejoin:miter;stroke-opacity:1"/>
<path class="bond-7" d="M 1226.18,244.815 L 1266.14,112.744" style="fill:none;fill-rule:evenodd;stroke:#000000;stroke-width:2.0px;stroke-linecap:butt;stroke-linejoin:miter;stroke-opacity:1"/>
<path class="bond-7" d="M 1258.59,232.997 L 1286.56,140.547" style="fill:none;fill-rule:evenodd;stroke:#000000;stroke-width:2.0px;stroke-linecap:butt;stroke-linejoin:miter;stroke-opacity:1;stroke-dasharray:6,6"/>
<path class="bond-14" d="M 1226.18,244.815 L 1320.57,345.459" style="fill:none;fill-rule:evenodd;stroke:#000000;stroke-width:2.0px;stroke-linecap:butt;stroke-linejoin:miter;stroke-opacity:1"/>
<path class="bond-14" d="M 1260.47,241.032 L 1326.54,311.483" style="fill:none;fill-rule:evenodd;stroke:#000000;stroke-width:2.0px;stroke-linecap:butt;stroke-linejoin:miter;stroke-opacity:1;stroke-dasharray:6,6"/>
<path class="bond-8" d="M 1266.14,112.744 L 1400.5,81.3179" style="fill:none;fill-rule:evenodd;stroke:#000000;stroke-width:2.0px;stroke-linecap:butt;stroke-linejoin:miter;stroke-opacity:1"/>
<path class="bond-8" d="M 1292.58,134.902 L 1386.63,112.903" style="fill:none;fill-rule:evenodd;stroke:#000000;stroke-width:2.0px;stroke-linecap:butt;stroke-linejoin:miter;stroke-opacity:1;stroke-dasharray:6,6"/>
<path class="bond-9" d="M 1400.5,81.3179 L 1494.89,181.962" style="fill:none;fill-rule:evenodd;stroke:#000000;stroke-width:2.0px;stroke-linecap:butt;stroke-linejoin:miter;stroke-opacity:1"/>
<path class="bond-9" d="M 1394.53,115.294 L 1460.61,185.745" style="fill:none;fill-rule:evenodd;stroke:#000000;stroke-width:2.0px;stroke-linecap:butt;stroke-linejoin:miter;stroke-opacity:1;stroke-dasharray:6,6"/>
<path class="bond-10" d="M 1494.89,181.962 L 1553.85,168.173" style="fill:none;fill-rule:evenodd;stroke:#000000;stroke-width:2.0px;stroke-linecap:butt;stroke-linejoin:miter;stroke-opacity:1"/>
<path class="bond-10" d="M 1553.85,168.173 L 1612.8,154.384" style="fill:none;fill-rule:evenodd;stroke:#FF0000;stroke-width:2.0px;stroke-linecap:butt;stroke-linejoin:miter;stroke-opacity:1"/>
<path class="bond-11" d="M 1494.89,181.962 L 1454.93,314.033" style="fill:none;fill-rule:evenodd;stroke:#000000;stroke-width:2.0px;stroke-linecap:butt;stroke-linejoin:miter;stroke-opacity:1"/>
<path class="bond-11" d="M 1462.49,193.78 L 1434.51,286.23" style="fill:none;fill-rule:evenodd;stroke:#000000;stroke-width:2.0px;stroke-linecap:butt;stroke-linejoin:miter;stroke-opacity:1;stroke-dasharray:6,6"/>
<path class="bond-12" d="M 1454.93,314.033 L 1494.94,356.695" style="fill:none;fill-rule:evenodd;stroke:#000000;stroke-width:2.0px;stroke-linecap:butt;stroke-linejoin:miter;stroke-opacity:1"/>
<path class="bond-12" d="M 1494.94,356.695 L 1534.96,399.356" style="fill:none;fill-rule:evenodd;stroke:#00CC00;stroke-width:2.0px;stroke-linecap:butt;stroke-linejoin:miter;stroke-opacity:1"/>
<path class="bond-13" d="M 1454.93,314.033 L 1320.57,345.459" style="fill:none;fill-rule:evenodd;stroke:#000000;stroke-width:2.0px;stroke-linecap:butt;stroke-linejoin:miter;stroke-opacity:1"/>
<path class="bond-13" d="M 1428.49,291.875 L 1334.44,313.873" style="fill:none;fill-rule:evenodd;stroke:#000000;stroke-width:2.0px;stroke-linecap:butt;stroke-linejoin:miter;stroke-opacity:1;stroke-dasharray:6,6"/>
<path class="bond-15" d="M 2433.06,304.746 L 2552.55,235.754" style="fill:none;fill-rule:evenodd;stroke:#000000;stroke-width:2.0px;stroke-linecap:butt;stroke-linejoin:miter;stroke-opacity:1"/>
<path class="bond-16" d="M 2545.66,247.704 L 2597.18,277.451" style="fill:none;fill-rule:evenodd;stroke:#000000;stroke-width:2.0px;stroke-linecap:butt;stroke-linejoin:miter;stroke-opacity:1"/>
<path class="bond-16" d="M 2597.18,277.451 L 2648.7,307.199" style="fill:none;fill-rule:evenodd;stroke:#FF0000;stroke-width:2.0px;stroke-linecap:butt;stroke-linejoin:miter;stroke-opacity:1"/>
<path class="bond-16" d="M 2559.45,223.804 L 2610.98,253.552" style="fill:none;fill-rule:evenodd;stroke:#000000;stroke-width:2.0px;stroke-linecap:butt;stroke-linejoin:miter;stroke-opacity:1"/>
<path class="bond-16" d="M 2610.98,253.552 L 2662.5,283.299" style="fill:none;fill-rule:evenodd;stroke:#FF0000;stroke-width:2.0px;stroke-linecap:butt;stroke-linejoin:miter;stroke-opacity:1"/>
<path class="bond-17" d="M 2552.55,235.754 L 2552.55,175.866" style="fill:none;fill-rule:evenodd;stroke:#000000;stroke-width:2.0px;stroke-linecap:butt;stroke-linejoin:miter;stroke-opacity:1"/>
<path class="bond-17" d="M 2552.55,175.866 L 2552.55,115.979" style="fill:none;fill-rule:evenodd;stroke:#FF0000;stroke-width:2.0px;stroke-linecap:butt;stroke-linejoin:miter;stroke-opacity:1"/>
<path class="bond-18" d="M 3023.43,290.373 L 3151.85,239.873" style="fill:none;fill-rule:evenodd;stroke:#000000;stroke-width:2.0px;stroke-linecap:butt;stroke-linejoin:miter;stroke-opacity:1"/>
<path class="bond-19" d="M 3165.49,241.92 L 3174.36,182.796" style="fill:none;fill-rule:evenodd;stroke:#000000;stroke-width:2.0px;stroke-linecap:butt;stroke-linejoin:miter;stroke-opacity:1"/>
<path class="bond-19" d="M 3174.36,182.796 L 3183.23,123.672" style="fill:none;fill-rule:evenodd;stroke:#FF0000;stroke-width:2.0px;stroke-linecap:butt;stroke-linejoin:miter;stroke-opacity:1"/>
<path class="bond-19" d="M 3138.2,237.826 L 3147.07,178.702" style="fill:none;fill-rule:evenodd;stroke:#000000;stroke-width:2.0px;stroke-linecap:butt;stroke-linejoin:miter;stroke-opacity:1"/>
<path class="bond-19" d="M 3147.07,178.702 L 3155.94,119.578" style="fill:none;fill-rule:evenodd;stroke:#FF0000;stroke-width:2.0px;stroke-linecap:butt;stroke-linejoin:miter;stroke-opacity:1"/>
<path class="bond-20" d="M 3151.85,239.873 L 3198.72,277.202" style="fill:none;fill-rule:evenodd;stroke:#000000;stroke-width:2.0px;stroke-linecap:butt;stroke-linejoin:miter;stroke-opacity:1"/>
<path class="bond-20" d="M 3198.72,277.202 L 3245.6,314.53" style="fill:none;fill-rule:evenodd;stroke:#0000FF;stroke-width:2.0px;stroke-linecap:butt;stroke-linejoin:miter;stroke-opacity:1"/>
<path class="bond-21" d="M 3273.98,320.25 L 3331.09,297.79" style="fill:none;fill-rule:evenodd;stroke:#0000FF;stroke-width:2.0px;stroke-linecap:butt;stroke-linejoin:miter;stroke-opacity:1"/>
<path class="bond-21" d="M 3331.09,297.79 L 3388.2,275.33" style="fill:none;fill-rule:evenodd;stroke:#000000;stroke-width:2.0px;stroke-linecap:butt;stroke-linejoin:miter;stroke-opacity:1"/>
<path class="bond-22" d="M 3388.2,275.33 L 3408.67,138.873" style="fill:none;fill-rule:evenodd;stroke:#000000;stroke-width:2.0px;stroke-linecap:butt;stroke-linejoin:miter;stroke-opacity:1"/>
<path class="bond-22" d="M 3418.56,258.956 L 3432.89,163.436" style="fill:none;fill-rule:evenodd;stroke:#000000;stroke-width:2.0px;stroke-linecap:butt;stroke-linejoin:miter;stroke-opacity:1;stroke-dasharray:6,6"/>
<path class="bond-29" d="M 3388.2,275.33 L 3496.14,361.287" style="fill:none;fill-rule:evenodd;stroke:#000000;stroke-width:2.0px;stroke-linecap:butt;stroke-linejoin:miter;stroke-opacity:1"/>
<path class="bond-29" d="M 3421.58,266.636 L 3497.14,326.806" style="fill:none;fill-rule:evenodd;stroke:#000000;stroke-width:2.0px;stroke-linecap:butt;stroke-linejoin:miter;stroke-opacity:1;stroke-dasharray:6,6"/>
<path class="bond-23" d="M 3408.67,138.873 L 3537.08,88.3726" style="fill:none;fill-rule:evenodd;stroke:#000000;stroke-width:2.0px;stroke-linecap:butt;stroke-linejoin:miter;stroke-opacity:1"/>
<path class="bond-23" d="M 3438.03,156.98 L 3527.92,121.63" style="fill:none;fill-rule:evenodd;stroke:#000000;stroke-width:2.0px;stroke-linecap:butt;stroke-linejoin:miter;stroke-opacity:1;stroke-dasharray:6,6"/>
<path class="bond-24" d="M 3537.08,88.3726 L 3645.02,174.33" style="fill:none;fill-rule:evenodd;stroke:#000000;stroke-width:2.0px;stroke-linecap:butt;stroke-linejoin:miter;stroke-opacity:1"/>
<path class="bond-24" d="M 3536.08,122.854 L 3611.64,183.024" style="fill:none;fill-rule:evenodd;stroke:#000000;stroke-width:2.0px;stroke-linecap:butt;stroke-linejoin:miter;stroke-opacity:1;stroke-dasharray:6,6"/>
<path class="bond-25" d="M 3645.02,174.33 L 3701,152.314" style="fill:none;fill-rule:evenodd;stroke:#000000;stroke-width:2.0px;stroke-linecap:butt;stroke-linejoin:miter;stroke-opacity:1"/>
<path class="bond-25" d="M 3701,152.314 L 3756.98,130.299" style="fill:none;fill-rule:evenodd;stroke:#FF0000;stroke-width:2.0px;stroke-linecap:butt;stroke-linejoin:miter;stroke-opacity:1"/>
<path class="bond-26" d="M 3645.02,174.33 L 3624.55,310.787" style="fill:none;fill-rule:evenodd;stroke:#000000;stroke-width:2.0px;stroke-linecap:butt;stroke-linejoin:miter;stroke-opacity:1"/>
<path class="bond-26" d="M 3614.66,190.704 L 3600.33,286.224" style="fill:none;fill-rule:evenodd;stroke:#000000;stroke-width:2.0px;stroke-linecap:butt;stroke-linejoin:miter;stroke-opacity:1;stroke-dasharray:6,6"/>
<path class="bond-27" d="M 3624.55,310.787 L 3671.33,348.044" style="fill:none;fill-rule:evenodd;stroke:#000000;stroke-width:2.0px;stroke-linecap:butt;stroke-linejoin:miter;stroke-opacity:1"/>
<path class="bond-27" d="M 3671.33,348.044 L 3718.12,385.301" style="fill:none;fill-rule:evenodd;stroke:#00CC00;stroke-width:2.0px;stroke-linecap:butt;stroke-linejoin:miter;stroke-opacity:1"/>
<path class="bond-28" d="M 3624.55,310.787 L 3496.14,361.287" style="fill:none;fill-rule:evenodd;stroke:#000000;stroke-width:2.0px;stroke-linecap:butt;stroke-linejoin:miter;stroke-opacity:1"/>
<path class="bond-28" d="M 3595.19,292.68 L 3505.3,328.03" style="fill:none;fill-rule:evenodd;stroke:#000000;stroke-width:2.0px;stroke-linecap:butt;stroke-linejoin:miter;stroke-opacity:1;stroke-dasharray:6,6"/>
<path class="atom-2" d="M 315.913 363.962 Q 315.913 357.162, 319.273 353.362 Q 322.633 349.562, 328.913 349.562 Q 335.193 349.562, 338.553 353.362 Q 341.913 357.162, 341.913 363.962 Q 341.913 370.842, 338.513 374.762 Q 335.113 378.642, 328.913 378.642 Q 322.673 378.642, 319.273 374.762 Q 315.913 370.882, 315.913 363.962 M 328.913 375.442 Q 333.233 375.442, 335.553 372.562 Q 337.913 369.642, 337.913 363.962 Q 337.913 358.402, 335.553 355.602 Q 333.233 352.762, 328.913 352.762 Q 324.593 352.762, 322.233 355.562 Q 319.913 358.362, 319.913 363.962 Q 319.913 369.682, 322.233 372.562 Q 324.593 375.442, 328.913 375.442 " fill="#FF0000"/>
<path class="atom-3" d="M 435.411 156.986 Q 435.411 150.186, 438.771 146.386 Q 442.131 142.586, 448.411 142.586 Q 454.691 142.586, 458.051 146.386 Q 461.411 150.186, 461.411 156.986 Q 461.411 163.866, 458.011 167.786 Q 454.611 171.666, 448.411 171.666 Q 442.171 171.666, 438.771 167.786 Q 435.411 163.906, 435.411 156.986 M 448.411 168.466 Q 452.731 168.466, 455.051 165.586 Q 457.411 162.666, 457.411 156.986 Q 457.411 151.426, 455.051 148.626 Q 452.731 145.786, 448.411 145.786 Q 444.091 145.786, 441.731 148.586 Q 439.411 151.386, 439.411 156.986 Q 439.411 162.706, 441.731 165.586 Q 444.091 168.466, 448.411 168.466 " fill="#FF0000"/>
<path class="atom-6" d="M 554.909 363.962 Q 554.909 357.162, 558.269 353.362 Q 561.629 349.562, 567.909 349.562 Q 574.189 349.562, 577.549 353.362 Q 580.909 357.162, 580.909 363.962 Q 580.909 370.842, 577.509 374.762 Q 574.109 378.642, 567.909 378.642 Q 561.669 378.642, 558.269 374.762 Q 554.909 370.882, 554.909 363.962 M 567.909 375.442 Q 572.229 375.442, 574.549 372.562 Q 576.909 369.642, 576.909 363.962 Q 576.909 358.402, 574.549 355.602 Q 572.229 352.762, 567.909 352.762 Q 563.589 352.762, 561.229 355.562 Q 558.909 358.362, 558.909 363.962 Q 558.909 369.682, 561.229 372.562 Q 563.589 375.442, 567.909 375.442 " fill="#FF0000"/>
<path class="atom-7" d="M 1041.69 262.081 L 1045.53 262.081 L 1045.53 274.121 L 1060.01 274.121 L 1060.01 262.081 L 1063.85 262.081 L 1063.85 290.401 L 1060.01 290.401 L 1060.01 277.321 L 1045.53 277.321 L 1045.53 290.401 L 1041.69 290.401 L 1041.69 262.081 " fill="#0000FF"/>
<path class="atom-7" d="M 1065.22 289.407 Q 1065.91 287.638, 1067.54 286.662 Q 1069.18 285.658, 1071.45 285.658 Q 1074.28 285.658, 1075.86 287.19 Q 1077.44 288.721, 1077.44 291.44 Q 1077.44 294.212, 1075.38 296.799 Q 1073.35 299.386, 1069.13 302.449 L 1077.76 302.449 L 1077.76 304.561 L 1065.17 304.561 L 1065.17 302.792 Q 1068.65 300.31, 1070.71 298.462 Q 1072.8 296.614, 1073.8 294.951 Q 1074.8 293.288, 1074.8 291.572 Q 1074.8 289.777, 1073.91 288.774 Q 1073.01 287.77, 1071.45 287.77 Q 1069.95 287.77, 1068.94 288.378 Q 1067.94 288.985, 1067.23 290.331 L 1065.22 289.407 " fill="#0000FF"/>
<path class="atom-7" d="M 1085.56 262.081 L 1094.84 277.081 Q 1095.76 278.561, 1097.24 281.241 Q 1098.72 283.921, 1098.8 284.081 L 1098.8 262.081 L 1102.56 262.081 L 1102.56 290.401 L 1098.68 290.401 L 1088.72 274.001 Q 1087.56 272.081, 1086.32 269.881 Q 1085.12 267.681, 1084.76 267.001 L 1084.76 290.401 L 1081.08 290.401 L 1081.08 262.081 L 1085.56 262.081 " fill="#0000FF"/>
<path class="atom-12" d="M 1616.25 150.616 Q 1616.25 143.816, 1619.61 140.016 Q 1622.97 136.216, 1629.25 136.216 Q 1635.53 136.216, 1638.89 140.016 Q 1642.25 143.816, 1642.25 150.616 Q 1642.25 157.496, 1638.85 161.416 Q 1635.45 165.296, 1629.25 165.296 Q 1623.01 165.296, 1619.61 161.416 Q 1616.25 157.536, 1616.25 150.616 M 1629.25 162.096 Q 1633.57 162.096, 1635.89 159.216 Q 1638.25 156.296, 1638.25 150.616 Q 1638.25 145.056, 1635.89 142.256 Q 1633.57 139.416, 1629.25 139.416 Q 1624.93 139.416, 1622.57 142.216 Q 1620.25 145.016, 1620.25 150.616 Q 1620.25 156.336, 1622.57 159.216 Q 1624.93 162.096, 1629.25 162.096 " fill="#FF0000"/>
<path class="atom-12" d="M 1645.65 136.536 L 1649.49 136.536 L 1649.49 148.576 L 1663.97 148.576 L 1663.97 136.536 L 1667.81 136.536 L 1667.81 164.856 L 1663.97 164.856 L 1663.97 151.776 L 1649.49 151.776 L 1649.49 164.856 L 1645.65 164.856 L 1645.65 136.536 " fill="#FF0000"/>
<path class="atom-14" d="M 1538.41 415.657 Q 1538.41 408.617, 1541.69 404.937 Q 1545.01 401.217, 1551.29 401.217 Q 1557.13 401.217, 1560.25 405.337 L 1557.61 407.497 Q 1555.33 404.497, 1551.29 404.497 Q 1547.01 404.497, 1544.73 407.377 Q 1542.49 410.217, 1542.49 415.657 Q 1542.49 421.257, 1544.81 424.137 Q 1547.17 427.017, 1551.73 427.017 Q 1554.85 427.017, 1558.49 425.137 L 1559.61 428.137 Q 1558.13 429.097, 1555.89 429.657 Q 1553.65 430.217, 1551.17 430.217 Q 1545.01 430.217, 1541.69 426.457 Q 1538.41 422.697, 1538.41 415.657 " fill="#00CC00"/>
<path class="atom-14" d="M 1563.69 399.497 L 1567.37 399.497 L 1567.37 429.857 L 1563.69 429.857 L 1563.69 399.497 " fill="#00CC00"/>
<path class="atom-18" d="M 2659.05 304.826 Q 2659.05 298.026, 2662.41 294.226 Q 2665.77 290.426, 2672.05 290.426 Q 2678.33 290.426, 2681.69 294.226 Q 2685.05 298.026, 2685.05 304.826 Q 2685.05 311.706, 2681.65 315.626 Q 2678.25 319.506, 2672.05 319.506 Q 2665.81 319.506, 2662.41 315.626 Q 2659.05 311.746, 2659.05 304.826 M 2672.05 316.306 Q 2676.37 316.306, 2678.69 313.426 Q 2681.05 310.506, 2681.05 304.826 Q 2681.05 299.266, 2678.69 296.466 Q 2676.37 293.626, 2672.05 293.626 Q 2667.73 293.626, 2665.37 296.426 Q 2663.05 299.226, 2663.05 304.826 Q 2663.05 310.546, 2665.37 313.426 Q 2667.73 316.306, 2672.05 316.306 " fill="#FF0000"/>
<path class="atom-19" d="M 2539.55 97.8495 Q 2539.55 91.0495, 2542.91 87.2495 Q 2546.27 83.4495, 2552.55 83.4495 Q 2558.83 83.4495, 2562.19 87.2495 Q 2565.55 91.0495, 2565.55 97.8495 Q 2565.55 104.729, 2562.15 108.649 Q 2558.75 112.529, 2552.55 112.529 Q 2546.31 112.529, 2542.91 108.649 Q 2539.55 104.769, 2539.55 97.8495 M 2552.55 109.329 Q 2556.87 109.329, 2559.19 106.449 Q 2561.55 103.529, 2561.55 97.8495 Q 2561.55 92.2895, 2559.19 89.4895 Q 2556.87 86.6495, 2552.55 86.6495 Q 2548.23 86.6495, 2545.87 89.4495 Q 2543.55 92.2495, 2543.55 97.8495 Q 2543.55 103.569, 2545.87 106.449 Q 2548.23 109.329, 2552.55 109.329 " fill="#FF0000"/>
<path class="atom-19" d="M 2568.95 83.7695 L 2572.79 83.7695 L 2572.79 95.8095 L 2587.27 95.8095 L 2587.27 83.7695 L 2591.11 83.7695 L 2591.11 112.089 L 2587.27 112.089 L 2587.27 99.0095 L 2572.79 99.0095 L 2572.79 112.089 L 2568.95 112.089 L 2568.95 83.7695 " fill="#FF0000"/>
<path class="atom-22" d="M 3159.32 103.496 Q 3159.32 96.6956, 3162.68 92.8956 Q 3166.04 89.0956, 3172.32 89.0956 Q 3178.6 89.0956, 3181.96 92.8956 Q 3185.32 96.6956, 3185.32 103.496 Q 3185.32 110.376, 3181.92 114.296 Q 3178.52 118.176, 3172.32 118.176 Q 3166.08 118.176, 3162.68 114.296 Q 3159.32 110.416, 3159.32 103.496 M 3172.32 114.976 Q 3176.64 114.976, 3178.96 112.096 Q 3181.32 109.176, 3181.32 103.496 Q 3181.32 97.9356, 3178.96 95.1356 Q 3176.64 92.2956, 3172.32 92.2956 Q 3168 92.2956, 3165.64 95.0956 Q 3163.32 97.8956, 3163.32 103.496 Q 3163.32 109.216, 3165.64 112.096 Q 3168 114.976, 3172.32 114.976 " fill="#FF0000"/>
<path class="atom-23" d="M 3253.53 311.67 L 3262.81 326.67 Q 3263.73 328.15, 3265.21 330.83 Q 3266.69 333.51, 3266.77 333.67 L 3266.77 311.67 L 3270.53 311.67 L 3270.53 339.99 L 3266.65 339.99 L 3256.69 323.59 Q 3255.53 321.67, 3254.29 319.47 Q 3253.09 317.27, 3252.73 316.59 L 3252.73 339.99 L 3249.05 339.99 L 3249.05 311.67 L 3253.53 311.67 " fill="#0000FF"/>
<path class="atom-23" d="M 3248.71 342.822 L 3252.55 342.822 L 3252.55 354.862 L 3267.03 354.862 L 3267.03 342.822 L 3270.87 342.822 L 3270.87 371.142 L 3267.03 371.142 L 3267.03 358.062 L 3252.55 358.062 L 3252.55 371.142 L 3248.71 371.142 L 3248.71 342.822 " fill="#0000FF"/>
<path class="atom-28" d="M 3760.43 123.91 Q 3760.43 117.11, 3763.79 113.31 Q 3767.15 109.51, 3773.43 109.51 Q 3779.71 109.51, 3783.07 113.31 Q 3786.43 117.11, 3786.43 123.91 Q 3786.43 130.79, 3783.03 134.71 Q 3779.63 138.59, 3773.43 138.59 Q 3767.19 138.59, 3763.79 134.71 Q 3760.43 130.83, 3760.43 123.91 M 3773.43 135.39 Q 3777.75 135.39, 3780.07 132.51 Q 3782.43 129.59, 3782.43 123.91 Q 3782.43 118.35, 3780.07 115.55 Q 3777.75 112.71, 3773.43 112.71 Q 3769.11 112.71, 3766.75 115.51 Q 3764.43 118.31, 3764.43 123.91 Q 3764.43 129.63, 3766.75 132.51 Q 3769.11 135.39, 3773.43 135.39 " fill="#FF0000"/>
<path class="atom-28" d="M 3789.83 109.83 L 3793.67 109.83 L 3793.67 121.87 L 3808.15 121.87 L 3808.15 109.83 L 3811.99 109.83 L 3811.99 138.15 L 3808.15 138.15 L 3808.15 125.07 L 3793.67 125.07 L 3793.67 138.15 L 3789.83 138.15 L 3789.83 109.83 " fill="#FF0000"/>
<path class="atom-30" d="M 3721.57 397.725 Q 3721.57 390.685, 3724.85 387.005 Q 3728.17 383.285, 3734.45 383.285 Q 3740.29 383.285, 3743.41 387.405 L 3740.77 389.565 Q 3738.49 386.565, 3734.45 386.565 Q 3730.17 386.565, 3727.89 389.445 Q 3725.65 392.285, 3725.65 397.725 Q 3725.65 403.325, 3727.97 406.205 Q 3730.33 409.085, 3734.89 409.085 Q 3738.01 409.085, 3741.65 407.205 L 3742.77 410.205 Q 3741.29 411.165, 3739.05 411.725 Q 3736.81 412.285, 3734.33 412.285 Q 3728.17 412.285, 3724.85 408.525 Q 3721.57 404.765, 3721.57 397.725 " fill="#00CC00"/>
<path class="atom-30" d="M 3746.85 381.565 L 3750.53 381.565 L 3750.53 411.925 L 3746.85 411.925 L 3746.85 381.565 " fill="#00CC00"/>
<path class="note" d="M 194.426 182.342 L 197.526 182.342 L 197.526 171.762 L 194.106 172.822 L 193.646 171.642 L 197.986 169.702 L 199.406 169.942 L 199.406 182.342 L 202.186 182.342 L 202.186 183.942 L 194.426 183.942 L 194.426 182.342 " fill="#000000"/>
<path class="note" d="M 324.183 198.58 Q 324.703 197.24, 325.943 196.5 Q 327.183 195.74, 328.903 195.74 Q 331.043 195.74, 332.243 196.9 Q 333.443 198.06, 333.443 200.12 Q 333.443 202.22, 331.883 204.18 Q 330.343 206.14, 327.143 208.46 L 333.683 208.46 L 333.683 210.06 L 324.143 210.06 L 324.143 208.72 Q 326.783 206.84, 328.343 205.44 Q 329.923 204.04, 330.683 202.78 Q 331.443 201.52, 331.443 200.22 Q 331.443 198.86, 330.763 198.1 Q 330.083 197.34, 328.903 197.34 Q 327.763 197.34, 327.003 197.8 Q 326.243 198.26, 325.703 199.28 L 324.183 198.58 " fill="#000000"/>
<path class="note" d="M 330.953 409.577 Q 332.333 409.977, 332.993 410.877 Q 333.673 411.757, 333.673 413.157 Q 333.673 414.357, 333.073 415.297 Q 332.473 416.217, 331.373 416.737 Q 330.273 417.237, 328.833 417.237 Q 327.313 417.237, 326.173 416.717 Q 325.053 416.177, 324.153 415.097 L 325.293 413.937 Q 326.173 414.897, 326.913 415.277 Q 327.653 415.637, 328.833 415.637 Q 330.113 415.637, 330.893 414.957 Q 331.673 414.257, 331.673 413.137 Q 331.673 411.697, 330.853 411.057 Q 330.053 410.397, 328.313 410.397 L 327.293 410.397 L 327.293 408.957 L 328.193 408.957 Q 329.733 408.937, 330.553 408.277 Q 331.373 407.597, 331.373 406.337 Q 331.373 405.417, 330.693 404.877 Q 330.013 404.317, 328.853 404.317 Q 327.673 404.317, 326.933 404.737 Q 326.213 405.157, 325.653 406.217 L 324.273 405.477 Q 324.773 404.297, 325.973 403.517 Q 327.173 402.717, 328.853 402.717 Q 330.933 402.717, 332.153 403.697 Q 333.373 404.677, 333.373 406.337 Q 333.373 407.477, 332.753 408.297 Q 332.133 409.117, 330.953 409.577 " fill="#000000"/>
<path class="note" d="M 435.061 116.471 L 438.161 116.471 L 438.161 105.891 L 434.741 106.951 L 434.281 105.771 L 438.621 103.831 L 440.041 104.071 L 440.041 116.471 L 442.821 116.471 L 442.821 118.071 L 435.061 118.071 L 435.061 116.471 " fill="#000000"/>
<path class="note" d="M 449.721 109.231 Q 450.961 109.231, 451.941 109.771 Q 452.921 110.311, 453.461 111.291 Q 454.001 112.271, 454.001 113.511 Q 454.001 114.891, 453.381 115.971 Q 452.781 117.031, 451.701 117.631 Q 450.621 118.231, 449.241 118.231 Q 446.721 118.231, 445.441 116.531 Q 444.181 114.811, 444.181 111.411 Q 444.181 107.651, 445.741 105.711 Q 447.321 103.751, 450.341 103.751 Q 451.221 103.751, 451.961 103.951 Q 452.721 104.151, 453.441 104.571 L 452.661 105.911 Q 451.621 105.351, 450.361 105.351 Q 448.361 105.351, 447.341 106.651 Q 446.321 107.931, 446.201 110.591 Q 446.921 109.931, 447.821 109.591 Q 448.741 109.231, 449.721 109.231 M 449.261 116.591 Q 450.021 116.591, 450.641 116.191 Q 451.281 115.791, 451.641 115.091 Q 452.001 114.391, 452.001 113.531 Q 452.001 112.271, 451.301 111.551 Q 450.601 110.831, 449.361 110.831 Q 448.501 110.831, 447.641 111.191 Q 446.801 111.531, 446.201 112.131 Q 446.281 114.471, 447.021 115.531 Q 447.761 116.591, 449.261 116.591 " fill="#000000"/>
<path class="note" d="M 554.399 185.423 L 557.499 185.423 L 557.499 174.843 L 554.079 175.903 L 553.619 174.723 L 557.959 172.783 L 559.379 173.023 L 559.379 185.423 L 562.159 185.423 L 562.159 187.023 L 554.399 187.023 L 554.399 185.423 " fill="#000000"/>
<path class="note" d="M 571.959 182.163 L 573.659 182.163 L 573.659 183.763 L 571.959 183.763 L 571.959 187.023 L 570.079 187.023 L 570.079 183.763 L 562.759 183.763 L 562.759 182.503 L 568.959 172.863 L 571.959 172.863 L 571.959 182.163 M 565.079 182.163 L 570.079 182.163 L 570.079 174.143 L 565.079 182.163 " fill="#000000"/>
<path class="note" d="M 662.968 142.549 L 666.068 142.549 L 666.068 131.969 L 662.648 133.029 L 662.188 131.849 L 666.528 129.909 L 667.948 130.149 L 667.948 142.549 L 670.728 142.549 L 670.728 144.149 L 662.968 144.149 L 662.968 142.549 " fill="#000000"/>
<path class="note" d="M 678.368 136.689 Q 679.748 137.089, 680.408 137.989 Q 681.088 138.869, 681.088 140.269 Q 681.088 141.469, 680.488 142.409 Q 679.888 143.329, 678.788 143.849 Q 677.688 144.349, 676.248 144.349 Q 674.728 144.349, 673.588 143.829 Q 672.468 143.289, 671.568 142.209 L 672.708 141.049 Q 673.588 142.009, 674.328 142.389 Q 675.068 142.749, 676.248 142.749 Q 677.528 142.749, 678.308 142.069 Q 679.088 141.369, 679.088 140.249 Q 679.088 138.809, 678.268 138.169 Q 677.468 137.509, 675.728 137.509 L 674.708 137.509 L 674.708 136.069 L 675.608 136.069 Q 677.148 136.049, 677.968 135.389 Q 678.788 134.709, 678.788 133.449 Q 678.788 132.529, 678.108 131.989 Q 677.428 131.429, 676.268 131.429 Q 675.088 131.429, 674.348 131.849 Q 673.628 132.269, 673.068 133.329 L 671.688 132.589 Q 672.188 131.409, 673.388 130.629 Q 674.588 129.829, 676.268 129.829 Q 678.348 129.829, 679.568 130.809 Q 680.788 131.789, 680.788 133.449 Q 680.788 134.589, 680.168 135.409 Q 679.548 136.229, 678.368 136.689 " fill="#000000"/>
<path class="note" d="M 554.899 415.397 L 557.999 415.397 L 557.999 404.817 L 554.579 405.877 L 554.119 404.697 L 558.459 402.757 L 559.879 402.997 L 559.879 415.397 L 562.659 415.397 L 562.659 416.997 L 554.899 416.997 L 554.899 415.397 " fill="#000000"/>
<path class="note" d="M 568.719 408.137 Q 569.959 408.137, 570.979 408.677 Q 571.999 409.197, 572.579 410.197 Q 573.159 411.177, 573.159 412.517 Q 573.159 413.977, 572.439 415.037 Q 571.739 416.077, 570.579 416.617 Q 569.419 417.157, 568.099 417.157 Q 566.799 417.157, 565.599 416.677 Q 564.399 416.197, 563.579 415.277 L 564.779 414.037 Q 565.439 414.757, 566.339 415.157 Q 567.239 415.537, 568.159 415.537 Q 569.419 415.537, 570.279 414.757 Q 571.159 413.977, 571.159 412.557 Q 571.159 411.057, 570.279 410.357 Q 569.419 409.637, 568.039 409.637 Q 566.799 409.637, 565.419 410.177 L 564.319 409.657 L 564.999 402.837 L 572.279 402.837 L 572.079 404.437 L 566.639 404.437 L 566.219 408.637 Q 567.479 408.137, 568.719 408.137 " fill="#000000"/>
<path class="note" d="M 1106.05 323.247 L 1107.75 323.247 L 1107.75 324.847 L 1106.05 324.847 L 1106.05 328.107 L 1104.17 328.107 L 1104.17 324.847 L 1096.85 324.847 L 1096.85 323.587 L 1103.05 313.947 L 1106.05 313.947 L 1106.05 323.247 M 1099.17 323.247 L 1104.17 323.247 L 1104.17 315.227 L 1099.17 323.247 " fill="#000000"/>
<path class="note" d="M 1210.8 226.261 Q 1212.04 226.261, 1213.06 226.801 Q 1214.08 227.321, 1214.66 228.321 Q 1215.24 229.301, 1215.24 230.641 Q 1215.24 232.101, 1214.52 233.161 Q 1213.82 234.201, 1212.66 234.741 Q 1211.5 235.281, 1210.18 235.281 Q 1208.88 235.281, 1207.68 234.801 Q 1206.48 234.321, 1205.66 233.401 L 1206.86 232.161 Q 1207.52 232.881, 1208.42 233.281 Q 1209.32 233.661, 1210.24 233.661 Q 1211.5 233.661, 1212.36 232.881 Q 1213.24 232.101, 1213.24 230.681 Q 1213.24 229.181, 1212.36 228.481 Q 1211.5 227.761, 1210.12 227.761 Q 1208.88 227.761, 1207.5 228.301 L 1206.4 227.781 L 1207.08 220.961 L 1214.36 220.961 L 1214.16 222.561 L 1208.72 222.561 L 1208.3 226.761 Q 1209.56 226.261, 1210.8 226.261 " fill="#000000"/>
<path class="note" d="M 1251.04 94.29 Q 1252.28 94.29, 1253.26 94.83 Q 1254.24 95.37, 1254.78 96.35 Q 1255.32 97.33, 1255.32 98.57 Q 1255.32 99.95, 1254.7 101.03 Q 1254.1 102.09, 1253.02 102.69 Q 1251.94 103.29, 1250.56 103.29 Q 1248.04 103.29, 1246.76 101.59 Q 1245.5 99.87, 1245.5 96.47 Q 1245.5 92.71, 1247.06 90.77 Q 1248.64 88.81, 1251.66 88.81 Q 1252.54 88.81, 1253.28 89.01 Q 1254.04 89.21, 1254.76 89.63 L 1253.98 90.97 Q 1252.94 90.41, 1251.68 90.41 Q 1249.68 90.41, 1248.66 91.71 Q 1247.64 92.99, 1247.52 95.65 Q 1248.24 94.99, 1249.14 94.65 Q 1250.06 94.29, 1251.04 94.29 M 1250.58 101.65 Q 1251.34 101.65, 1251.96 101.25 Q 1252.6 100.85, 1252.96 100.15 Q 1253.32 99.45, 1253.32 98.59 Q 1253.32 97.33, 1252.62 96.61 Q 1251.92 95.89, 1250.68 95.89 Q 1249.82 95.89, 1248.96 96.25 Q 1248.12 96.59, 1247.52 97.19 Q 1247.6 99.53, 1248.34 100.59 Q 1249.08 101.65, 1250.58 101.65 " fill="#000000"/>
<path class="note" d="M 1409.88 53.8261 L 1402.46 53.8261 L 1402.46 52.2261 L 1411.86 52.2261 L 1411.86 53.6461 L 1406.14 66.3861 L 1404.22 66.3861 L 1409.88 53.8261 " fill="#000000"/>
<path class="note" d="M 1503.77 159.61 Q 1505.07 160.17, 1505.81 161.01 Q 1506.55 161.83, 1506.55 163.23 Q 1506.55 164.43, 1505.93 165.37 Q 1505.31 166.29, 1504.19 166.81 Q 1503.09 167.31, 1501.63 167.31 Q 1499.27 167.31, 1497.91 166.23 Q 1496.55 165.13, 1496.55 163.23 Q 1496.55 162.07, 1497.15 161.21 Q 1497.75 160.33, 1498.99 159.67 Q 1498.07 159.15, 1497.57 158.39 Q 1497.07 157.61, 1497.07 156.41 Q 1497.07 154.75, 1498.27 153.77 Q 1499.49 152.79, 1501.55 152.79 Q 1503.61 152.79, 1504.81 153.77 Q 1506.03 154.75, 1506.03 156.41 Q 1506.03 157.45, 1505.45 158.23 Q 1504.89 158.99, 1503.77 159.61 M 1501.55 154.29 Q 1500.37 154.29, 1499.71 154.85 Q 1499.07 155.41, 1499.07 156.41 Q 1499.07 157.15, 1499.51 157.65 Q 1499.95 158.13, 1500.57 158.41 Q 1501.21 158.69, 1502.43 159.11 Q 1503.29 158.51, 1503.65 157.87 Q 1504.03 157.23, 1504.03 156.41 Q 1504.03 155.41, 1503.37 154.85 Q 1502.73 154.29, 1501.55 154.29 M 1501.63 165.81 Q 1502.95 165.81, 1503.75 165.11 Q 1504.55 164.39, 1504.55 163.21 Q 1504.55 162.45, 1504.13 161.97 Q 1503.71 161.49, 1503.07 161.21 Q 1502.45 160.93, 1501.33 160.57 L 1500.43 160.27 Q 1499.43 160.87, 1498.99 161.59 Q 1498.55 162.29, 1498.55 163.21 Q 1498.55 164.39, 1499.39 165.11 Q 1500.23 165.81, 1501.63 165.81 " fill="#000000"/>
<path class="note" d="M 1662.65 111.911 Q 1665.17 111.911, 1666.43 113.631 Q 1667.71 115.331, 1667.71 118.731 Q 1667.71 122.491, 1666.13 124.451 Q 1664.57 126.391, 1661.55 126.391 Q 1660.67 126.391, 1659.91 126.191 Q 1659.17 125.991, 1658.45 125.571 L 1659.23 124.231 Q 1660.27 124.791, 1661.53 124.791 Q 1663.53 124.791, 1664.55 123.511 Q 1665.57 122.211, 1665.69 119.551 Q 1664.97 120.211, 1664.05 120.571 Q 1663.15 120.911, 1662.17 120.911 Q 1660.93 120.911, 1659.95 120.371 Q 1658.97 119.831, 1658.43 118.851 Q 1657.89 117.871, 1657.89 116.631 Q 1657.89 115.251, 1658.49 114.191 Q 1659.11 113.111, 1660.19 112.511 Q 1661.27 111.911, 1662.65 111.911 M 1659.89 116.611 Q 1659.89 117.871, 1660.59 118.591 Q 1661.29 119.311, 1662.53 119.311 Q 1663.39 119.311, 1664.23 118.971 Q 1665.09 118.611, 1665.69 118.011 Q 1665.61 115.671, 1664.87 114.611 Q 1664.13 113.551, 1662.63 113.551 Q 1661.87 113.551, 1661.23 113.951 Q 1660.61 114.351, 1660.25 115.051 Q 1659.89 115.751, 1659.89 116.611 " fill="#000000"/>
<path class="note" d="M 1434.72 341.605 L 1437.82 341.605 L 1437.82 331.025 L 1434.4 332.085 L 1433.94 330.905 L 1438.28 328.965 L 1439.7 329.205 L 1439.7 341.605 L 1442.48 341.605 L 1442.48 343.205 L 1434.72 343.205 L 1434.72 341.605 " fill="#000000"/>
<path class="note" d="M 1448.88 343.365 Q 1446.28 343.365, 1444.98 341.445 Q 1443.7 339.525, 1443.7 336.105 Q 1443.7 332.685, 1444.98 330.785 Q 1446.26 328.885, 1448.88 328.885 Q 1451.5 328.885, 1452.78 330.785 Q 1454.06 332.685, 1454.06 336.105 Q 1454.06 339.525, 1452.76 341.445 Q 1451.48 343.365, 1448.88 343.365 M 1448.88 341.765 Q 1450.42 341.765, 1451.24 340.345 Q 1452.06 338.905, 1452.06 336.105 Q 1452.06 333.325, 1451.24 331.905 Q 1450.42 330.485, 1448.88 330.485 Q 1447.36 330.485, 1446.52 331.905 Q 1445.7 333.325, 1445.7 336.105 Q 1445.7 338.905, 1446.52 340.345 Q 1447.36 341.765, 1448.88 341.765 " fill="#000000"/>
<path class="note" d="M 1568.22 453.745 L 1571.32 453.745 L 1571.32 443.165 L 1567.9 444.225 L 1567.44 443.045 L 1571.78 441.105 L 1573.2 441.345 L 1573.2 453.745 L 1575.98 453.745 L 1575.98 455.345 L 1568.22 455.345 L 1568.22 453.745 " fill="#000000"/>
<path class="note" d="M 1577.84 453.745 L 1580.94 453.745 L 1580.94 443.165 L 1577.52 444.225 L 1577.06 443.045 L 1581.4 441.105 L 1582.82 441.345 L 1582.82 453.745 L 1585.6 453.745 L 1585.6 455.345 L 1577.84 455.345 L 1577.84 453.745 " fill="#000000"/>
<path class="note" d="M 1300.88 373.031 L 1303.98 373.031 L 1303.98 362.451 L 1300.56 363.511 L 1300.1 362.331 L 1304.44 360.391 L 1305.86 360.631 L 1305.86 373.031 L 1308.64 373.031 L 1308.64 374.631 L 1300.88 374.631 L 1300.88 373.031 " fill="#000000"/>
<path class="note" d="M 1309.68 363.151 Q 1310.2 361.811, 1311.44 361.071 Q 1312.68 360.311, 1314.4 360.311 Q 1316.54 360.311, 1317.74 361.471 Q 1318.94 362.631, 1318.94 364.691 Q 1318.94 366.791, 1317.38 368.751 Q 1315.84 370.711, 1312.64 373.031 L 1319.18 373.031 L 1319.18 374.631 L 1309.64 374.631 L 1309.64 373.291 Q 1312.28 371.411, 1313.84 370.011 Q 1315.42 368.611, 1316.18 367.351 Q 1316.94 366.091, 1316.94 364.791 Q 1316.94 363.431, 1316.26 362.671 Q 1315.58 361.911, 1314.4 361.911 Q 1313.26 361.911, 1312.5 362.371 Q 1311.74 362.831, 1311.2 363.851 L 1309.68 363.151 " fill="#000000"/>
<path class="note" d="M 2431.62 330.222 L 2434.72 330.222 L 2434.72 319.642 L 2431.3 320.702 L 2430.84 319.522 L 2435.18 317.582 L 2436.6 317.822 L 2436.6 330.222 L 2439.38 330.222 L 2439.38 331.822 L 2431.62 331.822 L 2431.62 330.222 " fill="#000000"/>
<path class="note" d="M 2447.02 324.362 Q 2448.4 324.762, 2449.06 325.662 Q 2449.74 326.542, 2449.74 327.942 Q 2449.74 329.142, 2449.14 330.082 Q 2448.54 331.002, 2447.44 331.522 Q 2446.34 332.022, 2444.9 332.022 Q 2443.38 332.022, 2442.24 331.502 Q 2441.12 330.962, 2440.22 329.882 L 2441.36 328.722 Q 2442.24 329.682, 2442.98 330.062 Q 2443.72 330.422, 2444.9 330.422 Q 2446.18 330.422, 2446.96 329.742 Q 2447.74 329.042, 2447.74 327.922 Q 2447.74 326.482, 2446.92 325.842 Q 2446.12 325.182, 2444.38 325.182 L 2443.36 325.182 L 2443.36 323.742 L 2444.26 323.742 Q 2445.8 323.722, 2446.62 323.062 Q 2447.44 322.382, 2447.44 321.122 Q 2447.44 320.202, 2446.76 319.662 Q 2446.08 319.102, 2444.92 319.102 Q 2443.74 319.102, 2443 319.522 Q 2442.28 319.942, 2441.72 321.002 L 2440.34 320.262 Q 2440.84 319.082, 2442.04 318.302 Q 2443.24 317.502, 2444.92 317.502 Q 2447 317.502, 2448.22 318.482 Q 2449.44 319.462, 2449.44 321.122 Q 2449.44 322.262, 2448.82 323.082 Q 2448.2 323.902, 2447.02 324.362 " fill="#000000"/>
<path class="note" d="M 2519.13 229.775 L 2522.23 229.775 L 2522.23 219.195 L 2518.81 220.255 L 2518.35 219.075 L 2522.69 217.135 L 2524.11 217.375 L 2524.11 229.775 L 2526.89 229.775 L 2526.89 231.375 L 2519.13 231.375 L 2519.13 229.775 " fill="#000000"/>
<path class="note" d="M 2536.69 226.515 L 2538.39 226.515 L 2538.39 228.115 L 2536.69 228.115 L 2536.69 231.375 L 2534.81 231.375 L 2534.81 228.115 L 2527.49 228.115 L 2527.49 226.855 L 2533.69 217.215 L 2536.69 217.215 L 2536.69 226.515 M 2529.81 226.515 L 2534.81 226.515 L 2534.81 218.495 L 2529.81 226.515 " fill="#000000"/>
<path class="note" d="M 2698.88 333.263 L 2701.98 333.263 L 2701.98 322.683 L 2698.56 323.743 L 2698.1 322.563 L 2702.44 320.623 L 2703.86 320.863 L 2703.86 333.263 L 2706.64 333.263 L 2706.64 334.863 L 2698.88 334.863 L 2698.88 333.263 " fill="#000000"/>
<path class="note" d="M 2712.7 326.003 Q 2713.94 326.003, 2714.96 326.543 Q 2715.98 327.063, 2716.56 328.063 Q 2717.14 329.043, 2717.14 330.383 Q 2717.14 331.843, 2716.42 332.903 Q 2715.72 333.943, 2714.56 334.483 Q 2713.4 335.023, 2712.08 335.023 Q 2710.78 335.023, 2709.58 334.543 Q 2708.38 334.063, 2707.56 333.143 L 2708.76 331.903 Q 2709.42 332.623, 2710.32 333.023 Q 2711.22 333.403, 2712.14 333.403 Q 2713.4 333.403, 2714.26 332.623 Q 2715.14 331.843, 2715.14 330.423 Q 2715.14 328.923, 2714.26 328.223 Q 2713.4 327.503, 2712.02 327.503 Q 2710.78 327.503, 2709.4 328.043 L 2708.3 327.523 L 2708.98 320.703 L 2716.26 320.703 L 2716.06 322.303 L 2710.62 322.303 L 2710.2 326.503 Q 2711.46 326.003, 2712.7 326.003 " fill="#000000"/>
<path class="note" d="M 2539.2 57.3347 L 2542.3 57.3347 L 2542.3 46.7547 L 2538.88 47.8147 L 2538.42 46.6347 L 2542.76 44.6947 L 2544.18 44.9347 L 2544.18 57.3347 L 2546.96 57.3347 L 2546.96 58.9347 L 2539.2 58.9347 L 2539.2 57.3347 " fill="#000000"/>
<path class="note" d="M 2553.86 50.0947 Q 2555.1 50.0947, 2556.08 50.6347 Q 2557.06 51.1747, 2557.6 52.1547 Q 2558.14 53.1347, 2558.14 54.3747 Q 2558.14 55.7547, 2557.52 56.8347 Q 2556.92 57.8947, 2555.84 58.4947 Q 2554.76 59.0947, 2553.38 59.0947 Q 2550.86 59.0947, 2549.58 57.3947 Q 2548.32 55.6747, 2548.32 52.2747 Q 2548.32 48.5147, 2549.88 46.5747 Q 2551.46 44.6147, 2554.48 44.6147 Q 2555.36 44.6147, 2556.1 44.8147 Q 2556.86 45.0147, 2557.58 45.4347 L 2556.8 46.7747 Q 2555.76 46.2147, 2554.5 46.2147 Q 2552.5 46.2147, 2551.48 47.5147 Q 2550.46 48.7947, 2550.34 51.4547 Q 2551.06 50.7947, 2551.96 50.4547 Q 2552.88 50.0947, 2553.86 50.0947 M 2553.4 57.4547 Q 2554.16 57.4547, 2554.78 57.0547 Q 2555.42 56.6547, 2555.78 55.9547 Q 2556.14 55.2547, 2556.14 54.3947 Q 2556.14 53.1347, 2555.44 52.4147 Q 2554.74 51.6947, 2553.5 51.6947 Q 2552.64 51.6947, 2551.78 52.0547 Q 2550.94 52.3947, 2550.34 52.9947 Q 2550.42 55.3347, 2551.16 56.3947 Q 2551.9 57.4547, 2553.4 57.4547 " fill="#000000"/>
<path class="note" d="M 3028.36 317.295 L 3031.46 317.295 L 3031.46 306.715 L 3028.04 307.775 L 3027.58 306.595 L 3031.92 304.655 L 3033.34 304.895 L 3033.34 317.295 L 3036.12 317.295 L 3036.12 318.895 L 3028.36 318.895 L 3028.36 317.295 " fill="#000000"/>
<path class="note" d="M 3143.7 258.296 Q 3144.22 256.956, 3145.46 256.216 Q 3146.7 255.456, 3148.42 255.456 Q 3150.56 255.456, 3151.76 256.616 Q 3152.96 257.776, 3152.96 259.836 Q 3152.96 261.936, 3151.4 263.896 Q 3149.86 265.856, 3146.66 268.176 L 3153.2 268.176 L 3153.2 269.776 L 3143.66 269.776 L 3143.66 268.436 Q 3146.3 266.556, 3147.86 265.156 Q 3149.44 263.756, 3150.2 262.496 Q 3150.96 261.236, 3150.96 259.936 Q 3150.96 258.576, 3150.28 257.816 Q 3149.6 257.056, 3148.42 257.056 Q 3147.28 257.056, 3146.52 257.516 Q 3145.76 257.976, 3145.22 258.996 L 3143.7 258.296 " fill="#000000"/>
<path class="note" d="M 3181.18 57.6298 Q 3182.56 58.0298, 3183.22 58.9298 Q 3183.9 59.8098, 3183.9 61.2098 Q 3183.9 62.4098, 3183.3 63.3498 Q 3182.7 64.2698, 3181.6 64.7898 Q 3180.5 65.2898, 3179.06 65.2898 Q 3177.54 65.2898, 3176.4 64.7698 Q 3175.28 64.2298, 3174.38 63.1498 L 3175.52 61.9898 Q 3176.4 62.9498, 3177.14 63.3298 Q 3177.88 63.6898, 3179.06 63.6898 Q 3180.34 63.6898, 3181.12 63.0098 Q 3181.9 62.3098, 3181.9 61.1898 Q 3181.9 59.7498, 3181.08 59.1098 Q 3180.28 58.4498, 3178.54 58.4498 L 3177.52 58.4498 L 3177.52 57.0098 L 3178.42 57.0098 Q 3179.96 56.9898, 3180.78 56.3298 Q 3181.6 55.6498, 3181.6 54.3898 Q 3181.6 53.4698, 3180.92 52.9298 Q 3180.24 52.3698, 3179.08 52.3698 Q 3177.9 52.3698, 3177.16 52.7898 Q 3176.44 53.2098, 3175.88 54.2698 L 3174.5 53.5298 Q 3175 52.3498, 3176.2 51.5698 Q 3177.4 50.7698, 3179.08 50.7698 Q 3181.16 50.7698, 3182.38 51.7498 Q 3183.6 52.7298, 3183.6 54.3898 Q 3183.6 55.5298, 3182.98 56.3498 Q 3182.36 57.1698, 3181.18 57.6298 " fill="#000000"/>
<path class="note" d="M 3299.52 356.703 L 3301.22 356.703 L 3301.22 358.303 L 3299.52 358.303 L 3299.52 361.563 L 3297.64 361.563 L 3297.64 358.303 L 3290.32 358.303 L 3290.32 357.043 L 3296.52 347.403 L 3299.52 347.403 L 3299.52 356.703 M 3292.64 356.703 L 3297.64 356.703 L 3297.64 348.683 L 3292.64 356.703 " fill="#000000"/>
<path class="note" d="M 3370.56 259.224 Q 3371.8 259.224, 3372.82 259.764 Q 3373.84 260.284, 3374.42 261.284 Q 3375 262.264, 3375 263.604 Q 3375 265.064, 3374.28 266.124 Q 3373.58 267.164, 3372.42 267.704 Q 3371.26 268.244, 3369.94 268.244 Q 3368.64 268.244, 3367.44 267.764 Q 3366.24 267.284, 3365.42 266.364 L 3366.62 265.124 Q 3367.28 265.844, 3368.18 266.244 Q 3369.08 266.624, 3370 266.624 Q 3371.26 266.624, 3372.12 265.844 Q 3373 265.064, 3373 263.644 Q 3373 262.144, 3372.12 261.444 Q 3371.26 260.724, 3369.88 260.724 Q 3368.64 260.724, 3367.26 261.264 L 3366.16 260.744 L 3366.84 253.924 L 3374.12 253.924 L 3373.92 255.524 L 3368.48 255.524 L 3368.06 259.724 Q 3369.32 259.224, 3370.56 259.224 " fill="#000000"/>
<path class="note" d="M 3391.31 122.867 Q 3392.55 122.867, 3393.53 123.407 Q 3394.51 123.947, 3395.05 124.927 Q 3395.59 125.907, 3395.59 127.147 Q 3395.59 128.527, 3394.97 129.607 Q 3394.37 130.667, 3393.29 131.267 Q 3392.21 131.867, 3390.83 131.867 Q 3388.31 131.867, 3387.03 130.167 Q 3385.77 128.447, 3385.77 125.047 Q 3385.77 121.287, 3387.33 119.347 Q 3388.91 117.387, 3391.93 117.387 Q 3392.81 117.387, 3393.55 117.587 Q 3394.31 117.787, 3395.03 118.207 L 3394.25 119.547 Q 3393.21 118.987, 3391.95 118.987 Q 3389.95 118.987, 3388.93 120.287 Q 3387.91 121.567, 3387.79 124.227 Q 3388.51 123.567, 3389.41 123.227 Q 3390.33 122.867, 3391.31 122.867 M 3390.85 130.227 Q 3391.61 130.227, 3392.23 129.827 Q 3392.87 129.427, 3393.23 128.727 Q 3393.59 128.027, 3393.59 127.167 Q 3393.59 125.907, 3392.89 125.187 Q 3392.19 124.467, 3390.95 124.467 Q 3390.09 124.467, 3389.23 124.827 Q 3388.39 125.167, 3387.79 125.767 Q 3387.87 128.107, 3388.61 129.167 Q 3389.35 130.227, 3390.85 130.227 " fill="#000000"/>
<path class="note" d="M 3543.21 60.1497 L 3535.79 60.1497 L 3535.79 58.5497 L 3545.19 58.5497 L 3545.19 59.9697 L 3539.47 72.7097 L 3537.55 72.7097 L 3543.21 60.1497 " fill="#000000"/>
<path class="note" d="M 3650.65 151.247 Q 3651.95 151.807, 3652.69 152.647 Q 3653.43 153.467, 3653.43 154.867 Q 3653.43 156.067, 3652.81 157.007 Q 3652.19 157.927, 3651.07 158.447 Q 3649.97 158.947, 3648.51 158.947 Q 3646.15 158.947, 3644.79 157.867 Q 3643.43 156.767, 3643.43 154.867 Q 3643.43 153.707, 3644.03 152.847 Q 3644.63 151.967, 3645.87 151.307 Q 3644.95 150.787, 3644.45 150.027 Q 3643.95 149.247, 3643.95 148.047 Q 3643.95 146.387, 3645.15 145.407 Q 3646.37 144.427, 3648.43 144.427 Q 3650.49 144.427, 3651.69 145.407 Q 3652.91 146.387, 3652.91 148.047 Q 3652.91 149.087, 3652.33 149.867 Q 3651.77 150.627, 3650.65 151.247 M 3648.43 145.927 Q 3647.25 145.927, 3646.59 146.487 Q 3645.95 147.047, 3645.95 148.047 Q 3645.95 148.787, 3646.39 149.287 Q 3646.83 149.767, 3647.45 150.047 Q 3648.09 150.327, 3649.31 150.747 Q 3650.17 150.147, 3650.53 149.507 Q 3650.91 148.867, 3650.91 148.047 Q 3650.91 147.047, 3650.25 146.487 Q 3649.61 145.927, 3648.43 145.927 M 3648.51 157.447 Q 3649.83 157.447, 3650.63 156.747 Q 3651.43 156.027, 3651.43 154.847 Q 3651.43 154.087, 3651.01 153.607 Q 3650.59 153.127, 3649.95 152.847 Q 3649.33 152.567, 3648.21 152.207 L 3647.31 151.907 Q 3646.31 152.507, 3645.87 153.227 Q 3645.43 153.927, 3645.43 154.847 Q 3645.43 156.027, 3646.27 156.747 Q 3647.11 157.447, 3648.51 157.447 " fill="#000000"/>
<path class="note" d="M 3801.93 80.6898 Q 3804.45 80.6898, 3805.71 82.4098 Q 3806.99 84.1098, 3806.99 87.5098 Q 3806.99 91.2698, 3805.41 93.2298 Q 3803.85 95.1698, 3800.83 95.1698 Q 3799.95 95.1698, 3799.19 94.9698 Q 3798.45 94.7698, 3797.73 94.3498 L 3798.51 93.0098 Q 3799.55 93.5698, 3800.81 93.5698 Q 3802.81 93.5698, 3803.83 92.2898 Q 3804.85 90.9898, 3804.97 88.3298 Q 3804.25 88.9898, 3803.33 89.3498 Q 3802.43 89.6898, 3801.45 89.6898 Q 3800.21 89.6898, 3799.23 89.1498 Q 3798.25 88.6098, 3797.71 87.6298 Q 3797.17 86.6498, 3797.17 85.4098 Q 3797.17 84.0298, 3797.77 82.9698 Q 3798.39 81.8898, 3799.47 81.2898 Q 3800.55 80.6898, 3801.93 80.6898 M 3799.17 85.3898 Q 3799.17 86.6498, 3799.87 87.3698 Q 3800.57 88.0898, 3801.81 88.0898 Q 3802.67 88.0898, 3803.51 87.7498 Q 3804.37 87.3898, 3804.97 86.7898 Q 3804.89 84.4498, 3804.15 83.3898 Q 3803.41 82.3298, 3801.91 82.3298 Q 3801.15 82.3298, 3800.51 82.7298 Q 3799.89 83.1298, 3799.53 83.8298 Q 3799.17 84.5298, 3799.17 85.3898 " fill="#000000"/>
<path class="note" d="M 3653.8 299.514 L 3656.9 299.514 L 3656.9 288.934 L 3653.48 289.994 L 3653.02 288.814 L 3657.36 286.874 L 3658.78 287.114 L 3658.78 299.514 L 3661.56 299.514 L 3661.56 301.114 L 3653.8 301.114 L 3653.8 299.514 " fill="#000000"/>
<path class="note" d="M 3667.96 301.274 Q 3665.36 301.274, 3664.06 299.354 Q 3662.78 297.434, 3662.78 294.014 Q 3662.78 290.594, 3664.06 288.694 Q 3665.34 286.794, 3667.96 286.794 Q 3670.58 286.794, 3671.86 288.694 Q 3673.14 290.594, 3673.14 294.014 Q 3673.14 297.434, 3671.84 299.354 Q 3670.56 301.274, 3667.96 301.274 M 3667.96 299.674 Q 3669.5 299.674, 3670.32 298.254 Q 3671.14 296.814, 3671.14 294.014 Q 3671.14 291.234, 3670.32 289.814 Q 3669.5 288.394, 3667.96 288.394 Q 3666.44 288.394, 3665.6 289.814 Q 3664.78 291.234, 3664.78 294.014 Q 3664.78 296.814, 3665.6 298.254 Q 3666.44 299.674, 3667.96 299.674 " fill="#000000"/>
<path class="note" d="M 3765.4 409.088 L 3768.5 409.088 L 3768.5 398.508 L 3765.08 399.568 L 3764.62 398.388 L 3768.96 396.448 L 3770.38 396.688 L 3770.38 409.088 L 3773.16 409.088 L 3773.16 410.688 L 3765.4 410.688 L 3765.4 409.088 " fill="#000000"/>
<path class="note" d="M 3775.02 409.088 L 3778.12 409.088 L 3778.12 398.508 L 3774.7 399.568 L 3774.24 398.388 L 3778.58 396.448 L 3780 396.688 L 3780 409.088 L 3782.78 409.088 L 3782.78 410.688 L 3775.02 410.688 L 3775.02 409.088 " fill="#000000"/>
<path class="note" d="M 3479.7 389.59 L 3482.8 389.59 L 3482.8 379.01 L 3479.38 380.07 L 3478.92 378.89 L 3483.26 376.95 L 3484.68 377.19 L 3484.68 389.59 L 3487.46 389.59 L 3487.46 391.19 L 3479.7 391.19 L 3479.7 389.59 " fill="#000000"/>
<path class="note" d="M 3488.5 379.71 Q 3489.02 378.37, 3490.26 377.63 Q 3491.5 376.87, 3493.22 376.87 Q 3495.36 376.87, 3496.56 378.03 Q 3497.76 379.19, 3497.76 381.25 Q 3497.76 383.35, 3496.2 385.31 Q 3494.66 387.27, 3491.46 389.59 L 3498 389.59 L 3498 391.19 L 3488.46 391.19 L 3488.46 389.85 Q 3491.1 387.97, 3492.66 386.57 Q 3494.24 385.17, 3495 383.91 Q 3495.76 382.65, 3495.76 381.35 Q 3495.76 379.99, 3495.08 379.23 Q 3494.4 378.47, 3493.22 378.47 Q 3492.08 378.47, 3491.32 378.93 Q 3490.56 379.39, 3490.02 380.41 L 3488.5 379.71 " fill="#000000"/>
<path d="M 866.858 246.287 L 872.906 246.287 L 872.906 239.919 L 875.594 239.919 L 875.594 246.287 L 881.802 246.287 L 881.802 248.591 L 875.594 248.591 L 875.594 254.991 L 872.906 254.991 L 872.906 248.591 L 866.858 248.591 L 866.858 246.287 " fill="#000000"/>
<path d="M 2857.63 246.287 L 2863.68 246.287 L 2863.68 239.919 L 2866.37 239.919 L 2866.37 246.287 L 2872.57 246.287 L 2872.57 248.591 L 2866.37 248.591 L 2866.37 254.991 L 2863.68 254.991 L 2863.68 248.591 L 2857.63 248.591 L 2857.63 246.287 " fill="#000000"/>
<path d="M 1832.18,248.591 L 2200.14,248.591" style="fill:none;fill-rule:evenodd;stroke:#000000;stroke-width:2.0px;stroke-linecap:butt;stroke-linejoin:miter;stroke-opacity:1"/>
<path d="M 2200.14,248.591 L 2184.21,239.392" style="fill:none;fill-rule:evenodd;stroke:#000000;stroke-width:2.0px;stroke-linecap:butt;stroke-linejoin:miter;stroke-opacity:1"/>
<path d="M 2200.14,248.591 L 2184.21,257.79" style="fill:none;fill-rule:evenodd;stroke:#000000;stroke-width:2.0px;stroke-linecap:butt;stroke-linejoin:miter;stroke-opacity:1"/>
</svg>