<svg xmlns="http://www.w3.org/2000/svg" xmlns:rdkit="http://www.rdkit.org/xml" xmlns:xlink="http://www.w3.org/1999/xlink" version="1.1" baseProfile="full" xml:space="preserve" width="4000px" height="500px" viewBox="0 0 4000 500">
<!-- END OF HEADER -->
<rect style="opacity:1.0;fill:#FFFFFF;stroke:none" width="4000" height="500" x="0" y="0"> </rect>
<path d="M 359.85,144.078 L 469.235,207.232" style="fill:none;fill-rule:evenodd;stroke:#FFFFAA;stroke-width:26.9px;stroke-linecap:butt;stroke-linejoin:miter;stroke-opacity:1"/>
<path d="M 469.235,207.232 L 469.235,333.538" style="fill:none;fill-rule:evenodd;stroke:#FFFFAA;stroke-width:26.9px;stroke-linecap:butt;stroke-linejoin:miter;stroke-opacity:1"/>
<path d="M 469.235,207.232 L 578.619,144.078" style="fill:none;fill-rule:evenodd;stroke:#FFFFAA;stroke-width:26.9px;stroke-linecap:butt;stroke-linejoin:miter;stroke-opacity:1"/>
<path d="M 578.619,144.078 L 688.004,207.232" style="fill:none;fill-rule:evenodd;stroke:#FFFFAA;stroke-width:26.9px;stroke-linecap:butt;stroke-linejoin:miter;stroke-opacity:1"/>
<path d="M 688.004,207.232 L 797.388,144.078" style="fill:none;fill-rule:evenodd;stroke:#FFFFAA;stroke-width:26.9px;stroke-linecap:butt;stroke-linejoin:miter;stroke-opacity:1"/>
<path d="M 688.004,207.232 L 688.004,333.538" style="fill:none;fill-rule:evenodd;stroke:#FFFFAA;stroke-width:26.9px;stroke-linecap:butt;stroke-linejoin:miter;stroke-opacity:1"/>
<path d="M 1168.03,319.595 L 1277.41,256.442" style="fill:none;fill-rule:evenodd;stroke:#FFCC99;stroke-width:26.9px;stroke-linecap:butt;stroke-linejoin:miter;stroke-opacity:1"/>
<path d="M 1277.41,256.442 L 1277.41,130.136" style="fill:none;fill-rule:evenodd;stroke:#FFCC99;stroke-width:26.9px;stroke-linecap:butt;stroke-linejoin:miter;stroke-opacity:1"/>
<path d="M 1277.41,256.442 L 1386.8,319.595" style="fill:none;fill-rule:evenodd;stroke:#FFCC99;stroke-width:26.9px;stroke-linecap:butt;stroke-linejoin:miter;stroke-opacity:1"/>
<path d="M 1277.41,130.136 L 1168.03,66.9823" style="fill:none;fill-rule:evenodd;stroke:#FFCC99;stroke-width:26.9px;stroke-linecap:butt;stroke-linejoin:miter;stroke-opacity:1"/>
<path d="M 1277.41,130.136 L 1386.8,66.9823" style="fill:none;fill-rule:evenodd;stroke:#FFCC99;stroke-width:26.9px;stroke-linecap:butt;stroke-linejoin:miter;stroke-opacity:1"/>
<path d="M 1386.8,66.9823 L 1496.18,130.136" style="fill:none;fill-rule:evenodd;stroke:#FFCC99;stroke-width:26.9px;stroke-linecap:butt;stroke-linejoin:miter;stroke-opacity:1"/>
<path d="M 1496.18,130.136 L 1605.57,66.9823" style="fill:none;fill-rule:evenodd;stroke:#FFCC99;stroke-width:26.9px;stroke-linecap:butt;stroke-linejoin:miter;stroke-opacity:1"/>
<path d="M 1496.18,130.136 L 1496.18,256.442" style="fill:none;fill-rule:evenodd;stroke:#FFCC99;stroke-width:26.9px;stroke-linecap:butt;stroke-linejoin:miter;stroke-opacity:1"/>
<path d="M 1496.18,256.442 L 1605.57,319.595" style="fill:none;fill-rule:evenodd;stroke:#FFCC99;stroke-width:26.9px;stroke-linecap:butt;stroke-linejoin:miter;stroke-opacity:1"/>
<path d="M 1496.18,256.442 L 1386.8,319.595" style="fill:none;fill-rule:evenodd;stroke:#FFCC99;stroke-width:26.9px;stroke-linecap:butt;stroke-linejoin:miter;stroke-opacity:1"/>
<path d="M 1386.8,319.595 L 1386.8,445.902" style="fill:none;fill-rule:evenodd;stroke:#FFCC99;stroke-width:26.9px;stroke-linecap:butt;stroke-linejoin:miter;stroke-opacity:1"/>
<path d="M 2341.14,270.198 L 2457.77,221.716" style="fill:none;fill-rule:evenodd;stroke:#FFFFAA;stroke-width:26.9px;stroke-linecap:butt;stroke-linejoin:miter;stroke-opacity:1"/>
<path d="M 2457.77,221.716 L 2474.1,96.4699" style="fill:none;fill-rule:evenodd;stroke:#FFFFAA;stroke-width:26.9px;stroke-linecap:butt;stroke-linejoin:miter;stroke-opacity:1"/>
<path d="M 2558.08,298.481 L 2674.71,250" style="fill:none;fill-rule:evenodd;stroke:#FFCC99;stroke-width:26.9px;stroke-linecap:butt;stroke-linejoin:miter;stroke-opacity:1"/>
<path d="M 2674.71,250 L 2691.04,124.754" style="fill:none;fill-rule:evenodd;stroke:#FFCC99;stroke-width:26.9px;stroke-linecap:butt;stroke-linejoin:miter;stroke-opacity:1"/>
<path d="M 2674.71,250 L 2775.01,326.765" style="fill:none;fill-rule:evenodd;stroke:#FFCC99;stroke-width:26.9px;stroke-linecap:butt;stroke-linejoin:miter;stroke-opacity:1"/>
<path d="M 2691.04,124.754 L 2590.74,47.9886" style="fill:none;fill-rule:evenodd;stroke:#FFCC99;stroke-width:26.9px;stroke-linecap:butt;stroke-linejoin:miter;stroke-opacity:1"/>
<path d="M 2691.04,124.754 L 2807.67,76.2723" style="fill:none;fill-rule:evenodd;stroke:#FFCC99;stroke-width:26.9px;stroke-linecap:butt;stroke-linejoin:miter;stroke-opacity:1"/>
<path d="M 2807.67,76.2723 L 2907.97,153.037" style="fill:none;fill-rule:evenodd;stroke:#FFCC99;stroke-width:26.9px;stroke-linecap:butt;stroke-linejoin:miter;stroke-opacity:1"/>
<path d="M 2907.97,153.037 L 3024.6,104.556" style="fill:none;fill-rule:evenodd;stroke:#FFCC99;stroke-width:26.9px;stroke-linecap:butt;stroke-linejoin:miter;stroke-opacity:1"/>
<path d="M 2907.97,153.037 L 2891.64,278.284" style="fill:none;fill-rule:evenodd;stroke:#FFCC99;stroke-width:26.9px;stroke-linecap:butt;stroke-linejoin:miter;stroke-opacity:1"/>
<path d="M 3124.9,181.321 L 3241.53,132.84" style="fill:none;fill-rule:evenodd;stroke:#FFFFAA;stroke-width:26.9px;stroke-linecap:butt;stroke-linejoin:miter;stroke-opacity:1"/>
<path d="M 3124.9,181.321 L 3108.57,306.567" style="fill:none;fill-rule:evenodd;stroke:#FFFFAA;stroke-width:26.9px;stroke-linecap:butt;stroke-linejoin:miter;stroke-opacity:1"/>
<path d="M 2891.64,278.284 L 2991.94,355.049" style="fill:none;fill-rule:evenodd;stroke:#FFCC99;stroke-width:26.9px;stroke-linecap:butt;stroke-linejoin:miter;stroke-opacity:1"/>
<path d="M 2891.64,278.284 L 2775.01,326.765" style="fill:none;fill-rule:evenodd;stroke:#FFCC99;stroke-width:26.9px;stroke-linecap:butt;stroke-linejoin:miter;stroke-opacity:1"/>
<path d="M 2775.01,326.765 L 2758.68,452.011" style="fill:none;fill-rule:evenodd;stroke:#FFCC99;stroke-width:26.9px;stroke-linecap:butt;stroke-linejoin:miter;stroke-opacity:1"/>
<ellipse cx="359.85" cy="144.078" rx="25.2613" ry="25.2613" style="fill:#FFFFAA;fill-rule:evenodd;stroke:#FFFFAA;stroke-width:1px;stroke-linecap:butt;stroke-linejoin:miter;stroke-opacity:1"/>
<ellipse cx="469.235" cy="207.232" rx="25.2613" ry="25.2613" style="fill:#FFFFAA;fill-rule:evenodd;stroke:#FFFFAA;stroke-width:1px;stroke-linecap:butt;stroke-linejoin:miter;stroke-opacity:1"/>
<ellipse cx="469.235" cy="333.758" rx="25.2613" ry="25.2613" style="fill:#FFFFAA;fill-rule:evenodd;stroke:#FFFFAA;stroke-width:1px;stroke-linecap:butt;stroke-linejoin:miter;stroke-opacity:1"/>
<ellipse cx="578.619" cy="144.298" rx="25.2613" ry="25.2613" style="fill:#FFFFAA;fill-rule:evenodd;stroke:#FFFFAA;stroke-width:1px;stroke-linecap:butt;stroke-linejoin:miter;stroke-opacity:1"/>
<ellipse cx="688.004" cy="207.232" rx="25.2613" ry="25.2613" style="fill:#FFFFAA;fill-rule:evenodd;stroke:#FFFFAA;stroke-width:1px;stroke-linecap:butt;stroke-linejoin:miter;stroke-opacity:1"/>
<ellipse cx="797.388" cy="144.078" rx="25.2613" ry="25.2613" style="fill:#FFFFAA;fill-rule:evenodd;stroke:#FFFFAA;stroke-width:1px;stroke-linecap:butt;stroke-linejoin:miter;stroke-opacity:1"/>
<ellipse cx="688.004" cy="333.758" rx="25.2613" ry="25.2613" style="fill:#FFFFAA;fill-rule:evenodd;stroke:#FFFFAA;stroke-width:1px;stroke-linecap:butt;stroke-linejoin:miter;stroke-opacity:1"/>
<ellipse cx="1148.33" cy="326.675" rx="43.0436" ry="30.0379" style="fill:#FFCC99;fill-rule:evenodd;stroke:#FFCC99;stroke-width:1px;stroke-linecap:butt;stroke-linejoin:miter;stroke-opacity:1"/>
<ellipse cx="1277.41" cy="256.442" rx="25.2613" ry="25.2613" style="fill:#FFCC99;fill-rule:evenodd;stroke:#FFCC99;stroke-width:1px;stroke-linecap:butt;stroke-linejoin:miter;stroke-opacity:1"/>
<ellipse cx="1277.41" cy="130.136" rx="25.2613" ry="25.2613" style="fill:#FFCC99;fill-rule:evenodd;stroke:#FFCC99;stroke-width:1px;stroke-linecap:butt;stroke-linejoin:miter;stroke-opacity:1"/>
<ellipse cx="1168.03" cy="66.9823" rx="25.2613" ry="25.2613" style="fill:#FFCC99;fill-rule:evenodd;stroke:#FFCC99;stroke-width:1px;stroke-linecap:butt;stroke-linejoin:miter;stroke-opacity:1"/>
<ellipse cx="1386.8" cy="66.9823" rx="25.2613" ry="25.2613" style="fill:#FFCC99;fill-rule:evenodd;stroke:#FFCC99;stroke-width:1px;stroke-linecap:butt;stroke-linejoin:miter;stroke-opacity:1"/>
<ellipse cx="1496.18" cy="130.136" rx="25.2613" ry="25.2613" style="fill:#FFCC99;fill-rule:evenodd;stroke:#FFCC99;stroke-width:1px;stroke-linecap:butt;stroke-linejoin:miter;stroke-opacity:1"/>
<ellipse cx="1618.35" cy="67.2023" rx="36.4584" ry="25.2613" style="fill:#FFCC99;fill-rule:evenodd;stroke:#FFCC99;stroke-width:1px;stroke-linecap:butt;stroke-linejoin:miter;stroke-opacity:1"/>
<ellipse cx="1496.18" cy="256.442" rx="25.2613" ry="25.2613" style="fill:#FFCC99;fill-rule:evenodd;stroke:#FFCC99;stroke-width:1px;stroke-linecap:butt;stroke-linejoin:miter;stroke-opacity:1"/>
<ellipse cx="1605.57" cy="319.595" rx="25.2613" ry="25.2613" style="fill:#FFCC99;fill-rule:evenodd;stroke:#FFCC99;stroke-width:1px;stroke-linecap:butt;stroke-linejoin:miter;stroke-opacity:1"/>
<ellipse cx="1386.8" cy="319.595" rx="25.2613" ry="25.2613" style="fill:#FFCC99;fill-rule:evenodd;stroke:#FFCC99;stroke-width:1px;stroke-linecap:butt;stroke-linejoin:miter;stroke-opacity:1"/>
<ellipse cx="1386.8" cy="445.902" rx="25.2613" ry="25.2613" style="fill:#FFCC99;fill-rule:evenodd;stroke:#FFCC99;stroke-width:1px;stroke-linecap:butt;stroke-linejoin:miter;stroke-opacity:1"/>
<ellipse cx="2341.14" cy="270.198" rx="25.2613" ry="25.2613" style="fill:#FFFFAA;fill-rule:evenodd;stroke:#FFFFAA;stroke-width:1px;stroke-linecap:butt;stroke-linejoin:miter;stroke-opacity:1"/>
<ellipse cx="2457.77" cy="221.716" rx="25.2613" ry="25.2613" style="fill:#FFFFAA;fill-rule:evenodd;stroke:#FFFFAA;stroke-width:1px;stroke-linecap:butt;stroke-linejoin:miter;stroke-opacity:1"/>
<ellipse cx="2474.1" cy="96.6899" rx="25.2613" ry="25.2613" style="fill:#FFFFAA;fill-rule:evenodd;stroke:#FFFFAA;stroke-width:1px;stroke-linecap:butt;stroke-linejoin:miter;stroke-opacity:1"/>
<ellipse cx="2558.08" cy="314.057" rx="25.2613" ry="42.0531" style="fill:#FFCC99;fill-rule:evenodd;stroke:#FFCC99;stroke-width:1px;stroke-linecap:butt;stroke-linejoin:miter;stroke-opacity:1"/>
<ellipse cx="2674.71" cy="250" rx="25.2613" ry="25.2613" style="fill:#FFCC99;fill-rule:evenodd;stroke:#FFCC99;stroke-width:1px;stroke-linecap:butt;stroke-linejoin:miter;stroke-opacity:1"/>
<ellipse cx="2691.04" cy="124.754" rx="25.2613" ry="25.2613" style="fill:#FFCC99;fill-rule:evenodd;stroke:#FFCC99;stroke-width:1px;stroke-linecap:butt;stroke-linejoin:miter;stroke-opacity:1"/>
<ellipse cx="2590.74" cy="47.9886" rx="25.2613" ry="25.2613" style="fill:#FFCC99;fill-rule:evenodd;stroke:#FFCC99;stroke-width:1px;stroke-linecap:butt;stroke-linejoin:miter;stroke-opacity:1"/>
<ellipse cx="2807.67" cy="76.2723" rx="25.2613" ry="25.2613" style="fill:#FFCC99;fill-rule:evenodd;stroke:#FFCC99;stroke-width:1px;stroke-linecap:butt;stroke-linejoin:miter;stroke-opacity:1"/>
<ellipse cx="2907.97" cy="153.037" rx="25.2613" ry="25.2613" style="fill:#FFCC99;fill-rule:evenodd;stroke:#FFCC99;stroke-width:1px;stroke-linecap:butt;stroke-linejoin:miter;stroke-opacity:1"/>
<ellipse cx="3024.6" cy="104.776" rx="25.2613" ry="25.2613" style="fill:#FFCC99;fill-rule:evenodd;stroke:#FFCC99;stroke-width:1px;stroke-linecap:butt;stroke-linejoin:miter;stroke-opacity:1"/>
<ellipse cx="3124.9" cy="181.321" rx="25.2613" ry="25.2613" style="fill:#FFFFAA;fill-rule:evenodd;stroke:#FFFFAA;stroke-width:1px;stroke-linecap:butt;stroke-linejoin:miter;stroke-opacity:1"/>
<ellipse cx="3241.53" cy="132.84" rx="25.2613" ry="25.2613" style="fill:#FFFFAA;fill-rule:evenodd;stroke:#FFFFAA;stroke-width:1px;stroke-linecap:butt;stroke-linejoin:miter;stroke-opacity:1"/>
<ellipse cx="3108.57" cy="306.787" rx="25.2613" ry="25.2613" style="fill:#FFFFAA;fill-rule:evenodd;stroke:#FFFFAA;stroke-width:1px;stroke-linecap:butt;stroke-linejoin:miter;stroke-opacity:1"/>
<ellipse cx="2891.64" cy="278.284" rx="25.2613" ry="25.2613" style="fill:#FFCC99;fill-rule:evenodd;stroke:#FFCC99;stroke-width:1px;stroke-linecap:butt;stroke-linejoin:miter;stroke-opacity:1"/>
<ellipse cx="2991.94" cy="355.049" rx="25.2613" ry="25.2613" style="fill:#FFCC99;fill-rule:evenodd;stroke:#FFCC99;stroke-width:1px;stroke-linecap:butt;stroke-linejoin:miter;stroke-opacity:1"/>
<ellipse cx="2775.01" cy="326.765" rx="25.2613" ry="25.2613" style="fill:#FFCC99;fill-rule:evenodd;stroke:#FFCC99;stroke-width:1px;stroke-linecap:butt;stroke-linejoin:miter;stroke-opacity:1"/>
<ellipse cx="2758.68" cy="452.011" rx="25.2613" ry="25.2613" style="fill:#FFCC99;fill-rule:evenodd;stroke:#FFCC99;stroke-width:1px;stroke-linecap:butt;stroke-linejoin:miter;stroke-opacity:1"/>
<ellipse cx="3622.49" cy="223.334" rx="45.3063" ry="30.2642" style="fill:#FFFFAA;fill-rule:evenodd;stroke:#FFFFAA;stroke-width:1px;stroke-linecap:butt;stroke-linejoin:miter;stroke-opacity:1"/>
<path class="bond-0" d="M 359.85,144.078 L 469.235,207.232" style="fill:none;fill-rule:evenodd;stroke:#000000;stroke-width:2.0px;stroke-linecap:butt;stroke-linejoin:miter;stroke-opacity:1"/>
<path class="bond-1" d="M 456.604,207.232 L 456.604,261.646" style="fill:none;fill-rule:evenodd;stroke:#000000;stroke-width:2.0px;stroke-linecap:butt;stroke-linejoin:miter;stroke-opacity:1"/>
<path class="bond-1" d="M 456.604,261.646 L 456.604,316.06" style="fill:none;fill-rule:evenodd;stroke:#FF0000;stroke-width:2.0px;stroke-linecap:butt;stroke-linejoin:miter;stroke-opacity:1"/>
<path class="bond-1" d="M 481.865,207.232 L 481.865,261.646" style="fill:none;fill-rule:evenodd;stroke:#000000;stroke-width:2.0px;stroke-linecap:butt;stroke-linejoin:miter;stroke-opacity:1"/>
<path class="bond-1" d="M 481.865,261.646 L 481.865,316.06" style="fill:none;fill-rule:evenodd;stroke:#FF0000;stroke-width:2.0px;stroke-linecap:butt;stroke-linejoin:miter;stroke-opacity:1"/>
<path class="bond-2" d="M 469.235,207.232 L 515.848,180.319" style="fill:none;fill-rule:evenodd;stroke:#000000;stroke-width:2.0px;stroke-linecap:butt;stroke-linejoin:miter;stroke-opacity:1"/>
<path class="bond-2" d="M 515.848,180.319 L 562.462,153.407" style="fill:none;fill-rule:evenodd;stroke:#FF0000;stroke-width:2.0px;stroke-linecap:butt;stroke-linejoin:miter;stroke-opacity:1"/>
<path class="bond-3" d="M 594.777,153.407 L 641.39,180.319" style="fill:none;fill-rule:evenodd;stroke:#FF0000;stroke-width:2.0px;stroke-linecap:butt;stroke-linejoin:miter;stroke-opacity:1"/>
<path class="bond-3" d="M 641.39,180.319 L 688.004,207.232" style="fill:none;fill-rule:evenodd;stroke:#000000;stroke-width:2.0px;stroke-linecap:butt;stroke-linejoin:miter;stroke-opacity:1"/>
<path class="bond-4" d="M 688.004,207.232 L 797.388,144.078" style="fill:none;fill-rule:evenodd;stroke:#000000;stroke-width:2.0px;stroke-linecap:butt;stroke-linejoin:miter;stroke-opacity:1"/>
<path class="bond-5" d="M 675.373,207.232 L 675.373,261.646" style="fill:none;fill-rule:evenodd;stroke:#000000;stroke-width:2.0px;stroke-linecap:butt;stroke-linejoin:miter;stroke-opacity:1"/>
<path class="bond-5" d="M 675.373,261.646 L 675.373,316.06" style="fill:none;fill-rule:evenodd;stroke:#FF0000;stroke-width:2.0px;stroke-linecap:butt;stroke-linejoin:miter;stroke-opacity:1"/>
<path class="bond-5" d="M 700.634,207.232 L 700.634,261.646" style="fill:none;fill-rule:evenodd;stroke:#000000;stroke-width:2.0px;stroke-linecap:butt;stroke-linejoin:miter;stroke-opacity:1"/>
<path class="bond-5" d="M 700.634,261.646 L 700.634,316.06" style="fill:none;fill-rule:evenodd;stroke:#FF0000;stroke-width:2.0px;stroke-linecap:butt;stroke-linejoin:miter;stroke-opacity:1"/>
<path class="bond-6" d="M 1181.93,311.571 L 1229.67,284.007" style="fill:none;fill-rule:evenodd;stroke:#0000FF;stroke-width:2.0px;stroke-linecap:butt;stroke-linejoin:miter;stroke-opacity:1"/>
<path class="bond-6" d="M 1229.67,284.007 L 1277.41,256.442" style="fill:none;fill-rule:evenodd;stroke:#000000;stroke-width:2.0px;stroke-linecap:butt;stroke-linejoin:miter;stroke-opacity:1"/>
<path class="bond-7" d="M 1277.41,256.442 L 1277.41,130.136" style="fill:none;fill-rule:evenodd;stroke:#000000;stroke-width:2.0px;stroke-linecap:butt;stroke-linejoin:miter;stroke-opacity:1"/>
<path class="bond-7" d="M 1302.68,237.496 L 1302.68,149.081" style="fill:none;fill-rule:evenodd;stroke:#000000;stroke-width:2.0px;stroke-linecap:butt;stroke-linejoin:miter;stroke-opacity:1;stroke-dasharray:6,6"/>
<path class="bond-16" d="M 1277.41,256.442 L 1386.8,319.595" style="fill:none;fill-rule:evenodd;stroke:#000000;stroke-width:2.0px;stroke-linecap:butt;stroke-linejoin:miter;stroke-opacity:1"/>
<path class="bond-16" d="M 1306.45,244.038 L 1383.02,288.245" style="fill:none;fill-rule:evenodd;stroke:#000000;stroke-width:2.0px;stroke-linecap:butt;stroke-linejoin:miter;stroke-opacity:1;stroke-dasharray:6,6"/>
<path class="bond-8" d="M 1277.41,130.136 L 1168.03,66.9823" style="fill:none;fill-rule:evenodd;stroke:#000000;stroke-width:2.0px;stroke-linecap:butt;stroke-linejoin:miter;stroke-opacity:1"/>
<path class="bond-9" d="M 1277.41,130.136 L 1386.8,66.9823" style="fill:none;fill-rule:evenodd;stroke:#000000;stroke-width:2.0px;stroke-linecap:butt;stroke-linejoin:miter;stroke-opacity:1"/>
<path class="bond-9" d="M 1306.45,142.539 L 1383.02,98.3322" style="fill:none;fill-rule:evenodd;stroke:#000000;stroke-width:2.0px;stroke-linecap:butt;stroke-linejoin:miter;stroke-opacity:1;stroke-dasharray:6,6"/>
<path class="bond-10" d="M 1386.8,66.9823 L 1496.18,130.136" style="fill:none;fill-rule:evenodd;stroke:#000000;stroke-width:2.0px;stroke-linecap:butt;stroke-linejoin:miter;stroke-opacity:1"/>
<path class="bond-10" d="M 1390.58,98.3322 L 1467.15,142.539" style="fill:none;fill-rule:evenodd;stroke:#000000;stroke-width:2.0px;stroke-linecap:butt;stroke-linejoin:miter;stroke-opacity:1;stroke-dasharray:6,6"/>
<path class="bond-11" d="M 1496.18,130.136 L 1542.8,103.223" style="fill:none;fill-rule:evenodd;stroke:#000000;stroke-width:2.0px;stroke-linecap:butt;stroke-linejoin:miter;stroke-opacity:1"/>
<path class="bond-11" d="M 1542.8,103.223 L 1589.41,76.3109" style="fill:none;fill-rule:evenodd;stroke:#FF0000;stroke-width:2.0px;stroke-linecap:butt;stroke-linejoin:miter;stroke-opacity:1"/>
<path class="bond-12" d="M 1496.18,130.136 L 1496.18,256.442" style="fill:none;fill-rule:evenodd;stroke:#000000;stroke-width:2.0px;stroke-linecap:butt;stroke-linejoin:miter;stroke-opacity:1"/>
<path class="bond-12" d="M 1470.92,149.081 L 1470.92,237.496" style="fill:none;fill-rule:evenodd;stroke:#000000;stroke-width:2.0px;stroke-linecap:butt;stroke-linejoin:miter;stroke-opacity:1;stroke-dasharray:6,6"/>
<path class="bond-13" d="M 1496.18,256.442 L 1605.57,319.595" style="fill:none;fill-rule:evenodd;stroke:#000000;stroke-width:2.0px;stroke-linecap:butt;stroke-linejoin:miter;stroke-opacity:1"/>
<path class="bond-14" d="M 1496.18,256.442 L 1386.8,319.595" style="fill:none;fill-rule:evenodd;stroke:#000000;stroke-width:2.0px;stroke-linecap:butt;stroke-linejoin:miter;stroke-opacity:1"/>
<path class="bond-14" d="M 1467.15,244.038 L 1390.58,288.245" style="fill:none;fill-rule:evenodd;stroke:#000000;stroke-width:2.0px;stroke-linecap:butt;stroke-linejoin:miter;stroke-opacity:1;stroke-dasharray:6,6"/>
<path class="bond-15" d="M 1386.8,319.595 L 1386.8,445.902" style="fill:none;fill-rule:evenodd;stroke:#000000;stroke-width:2.0px;stroke-linecap:butt;stroke-linejoin:miter;stroke-opacity:1"/>
<path class="bond-17" d="M 2341.14,270.198 L 2457.77,221.716" style="fill:none;fill-rule:evenodd;stroke:#000000;stroke-width:2.0px;stroke-linecap:butt;stroke-linejoin:miter;stroke-opacity:1"/>
<path class="bond-18" d="M 2470.3,223.349 L 2477.3,169.685" style="fill:none;fill-rule:evenodd;stroke:#000000;stroke-width:2.0px;stroke-linecap:butt;stroke-linejoin:miter;stroke-opacity:1"/>
<path class="bond-18" d="M 2477.3,169.685 L 2484.29,116.021" style="fill:none;fill-rule:evenodd;stroke:#FF0000;stroke-width:2.0px;stroke-linecap:butt;stroke-linejoin:miter;stroke-opacity:1"/>
<path class="bond-18" d="M 2445.25,220.083 L 2452.25,166.419" style="fill:none;fill-rule:evenodd;stroke:#000000;stroke-width:2.0px;stroke-linecap:butt;stroke-linejoin:miter;stroke-opacity:1"/>
<path class="bond-18" d="M 2452.25,166.419 L 2459.24,112.755" style="fill:none;fill-rule:evenodd;stroke:#FF0000;stroke-width:2.0px;stroke-linecap:butt;stroke-linejoin:miter;stroke-opacity:1"/>
<path class="bond-19" d="M 2457.77,221.716 L 2500.98,254.781" style="fill:none;fill-rule:evenodd;stroke:#000000;stroke-width:2.0px;stroke-linecap:butt;stroke-linejoin:miter;stroke-opacity:1"/>
<path class="bond-19" d="M 2500.98,254.781 L 2544.18,287.845" style="fill:none;fill-rule:evenodd;stroke:#0000FF;stroke-width:2.0px;stroke-linecap:butt;stroke-linejoin:miter;stroke-opacity:1"/>
<path class="bond-20" d="M 2571.97,292.704 L 2623.34,271.352" style="fill:none;fill-rule:evenodd;stroke:#0000FF;stroke-width:2.0px;stroke-linecap:butt;stroke-linejoin:miter;stroke-opacity:1"/>
<path class="bond-20" d="M 2623.34,271.352 L 2674.71,250" style="fill:none;fill-rule:evenodd;stroke:#000000;stroke-width:2.0px;stroke-linecap:butt;stroke-linejoin:miter;stroke-opacity:1"/>
<path class="bond-21" d="M 2674.71,250 L 2691.04,124.754" style="fill:none;fill-rule:evenodd;stroke:#000000;stroke-width:2.0px;stroke-linecap:butt;stroke-linejoin:miter;stroke-opacity:1"/>
<path class="bond-21" d="M 2702.21,234.479 L 2713.64,146.806" style="fill:none;fill-rule:evenodd;stroke:#000000;stroke-width:2.0px;stroke-linecap:butt;stroke-linejoin:miter;stroke-opacity:1;stroke-dasharray:6,6"/>
<path class="bond-33" d="M 2674.71,250 L 2775.01,326.765" style="fill:none;fill-rule:evenodd;stroke:#000000;stroke-width:2.0px;stroke-linecap:butt;stroke-linejoin:miter;stroke-opacity:1"/>
<path class="bond-33" d="M 2705.11,241.454 L 2775.32,295.19" style="fill:none;fill-rule:evenodd;stroke:#000000;stroke-width:2.0px;stroke-linecap:butt;stroke-linejoin:miter;stroke-opacity:1;stroke-dasharray:6,6"/>
<path class="bond-22" d="M 2691.04,124.754 L 2590.74,47.9886" style="fill:none;fill-rule:evenodd;stroke:#000000;stroke-width:2.0px;stroke-linecap:butt;stroke-linejoin:miter;stroke-opacity:1"/>
<path class="bond-23" d="M 2691.04,124.754 L 2807.67,76.2723" style="fill:none;fill-rule:evenodd;stroke:#000000;stroke-width:2.0px;stroke-linecap:butt;stroke-linejoin:miter;stroke-opacity:1"/>
<path class="bond-23" d="M 2718.23,140.808 L 2799.87,106.871" style="fill:none;fill-rule:evenodd;stroke:#000000;stroke-width:2.0px;stroke-linecap:butt;stroke-linejoin:miter;stroke-opacity:1;stroke-dasharray:6,6"/>
<path class="bond-24" d="M 2807.67,76.2723 L 2907.97,153.037" style="fill:none;fill-rule:evenodd;stroke:#000000;stroke-width:2.0px;stroke-linecap:butt;stroke-linejoin:miter;stroke-opacity:1"/>
<path class="bond-24" d="M 2807.36,107.847 L 2877.57,161.583" style="fill:none;fill-rule:evenodd;stroke:#000000;stroke-width:2.0px;stroke-linecap:butt;stroke-linejoin:miter;stroke-opacity:1;stroke-dasharray:6,6"/>
<path class="bond-25" d="M 2907.97,153.037 L 2958.21,132.155" style="fill:none;fill-rule:evenodd;stroke:#000000;stroke-width:2.0px;stroke-linecap:butt;stroke-linejoin:miter;stroke-opacity:1"/>
<path class="bond-25" d="M 2958.21,132.155 L 3008.44,111.272" style="fill:none;fill-rule:evenodd;stroke:#FF0000;stroke-width:2.0px;stroke-linecap:butt;stroke-linejoin:miter;stroke-opacity:1"/>
<path class="bond-29" d="M 2907.97,153.037 L 2891.64,278.284" style="fill:none;fill-rule:evenodd;stroke:#000000;stroke-width:2.0px;stroke-linecap:butt;stroke-linejoin:miter;stroke-opacity:1"/>
<path class="bond-29" d="M 2880.47,168.558 L 2869.04,256.231" style="fill:none;fill-rule:evenodd;stroke:#000000;stroke-width:2.0px;stroke-linecap:butt;stroke-linejoin:miter;stroke-opacity:1;stroke-dasharray:6,6"/>
<path class="bond-26" d="M 3040.76,116.922 L 3082.83,149.122" style="fill:none;fill-rule:evenodd;stroke:#FF0000;stroke-width:2.0px;stroke-linecap:butt;stroke-linejoin:miter;stroke-opacity:1"/>
<path class="bond-26" d="M 3082.83,149.122 L 3124.9,181.321" style="fill:none;fill-rule:evenodd;stroke:#000000;stroke-width:2.0px;stroke-linecap:butt;stroke-linejoin:miter;stroke-opacity:1"/>
<path class="bond-27" d="M 3124.9,181.321 L 3241.53,132.84" style="fill:none;fill-rule:evenodd;stroke:#000000;stroke-width:2.0px;stroke-linecap:butt;stroke-linejoin:miter;stroke-opacity:1"/>
<path class="bond-28" d="M 3112.38,179.688 L 3105.35,233.572" style="fill:none;fill-rule:evenodd;stroke:#000000;stroke-width:2.0px;stroke-linecap:butt;stroke-linejoin:miter;stroke-opacity:1"/>
<path class="bond-28" d="M 3105.35,233.572 L 3098.33,287.457" style="fill:none;fill-rule:evenodd;stroke:#FF0000;stroke-width:2.0px;stroke-linecap:butt;stroke-linejoin:miter;stroke-opacity:1"/>
<path class="bond-28" d="M 3137.43,182.954 L 3130.4,236.838" style="fill:none;fill-rule:evenodd;stroke:#000000;stroke-width:2.0px;stroke-linecap:butt;stroke-linejoin:miter;stroke-opacity:1"/>
<path class="bond-28" d="M 3130.4,236.838 L 3123.38,290.723" style="fill:none;fill-rule:evenodd;stroke:#FF0000;stroke-width:2.0px;stroke-linecap:butt;stroke-linejoin:miter;stroke-opacity:1"/>
<path class="bond-30" d="M 2891.64,278.284 L 2991.94,355.049" style="fill:none;fill-rule:evenodd;stroke:#000000;stroke-width:2.0px;stroke-linecap:butt;stroke-linejoin:miter;stroke-opacity:1"/>
<path class="bond-31" d="M 2891.64,278.284 L 2775.01,326.765" style="fill:none;fill-rule:evenodd;stroke:#000000;stroke-width:2.0px;stroke-linecap:butt;stroke-linejoin:miter;stroke-opacity:1"/>
<path class="bond-31" d="M 2864.45,262.23 L 2782.81,296.167" style="fill:none;fill-rule:evenodd;stroke:#000000;stroke-width:2.0px;stroke-linecap:butt;stroke-linejoin:miter;stroke-opacity:1;stroke-dasharray:6,6"/>
<path class="bond-32" d="M 2775.01,326.765 L 2758.68,452.011" style="fill:none;fill-rule:evenodd;stroke:#000000;stroke-width:2.0px;stroke-linecap:butt;stroke-linejoin:miter;stroke-opacity:1"/>
<path class="atom-2" d="M 456.235 333.618 Q 456.235 326.818, 459.595 323.018 Q 462.955 319.218, 469.235 319.218 Q 475.515 319.218, 478.875 323.018 Q 482.235 326.818, 482.235 333.618 Q 482.235 340.498, 478.835 344.418 Q 475.435 348.298, 469.235 348.298 Q 462.995 348.298, 459.595 344.418 Q 456.235 340.538, 456.235 333.618 M 469.235 345.098 Q 473.555 345.098, 475.875 342.218 Q 478.235 339.298, 478.235 333.618 Q 478.235 328.058, 475.875 325.258 Q 473.555 322.418, 469.235 322.418 Q 464.915 322.418, 462.555 325.218 Q 460.235 328.018, 460.235 333.618 Q 460.235 339.338, 462.555 342.218 Q 464.915 345.098, 469.235 345.098 " fill="#FF0000"/>
<path class="atom-3" d="M 565.619 144.158 Q 565.619 137.358, 568.979 133.558 Q 572.339 129.758, 578.619 129.758 Q 584.899 129.758, 588.259 133.558 Q 591.619 137.358, 591.619 144.158 Q 591.619 151.038, 588.219 154.958 Q 584.819 158.838, 578.619 158.838 Q 572.379 158.838, 568.979 154.958 Q 565.619 151.078, 565.619 144.158 M 578.619 155.638 Q 582.939 155.638, 585.259 152.758 Q 587.619 149.838, 587.619 144.158 Q 587.619 138.598, 585.259 135.798 Q 582.939 132.958, 578.619 132.958 Q 574.299 132.958, 571.939 135.758 Q 569.619 138.558, 569.619 144.158 Q 569.619 149.878, 571.939 152.758 Q 574.299 155.638, 578.619 155.638 " fill="#FF0000"/>
<path class="atom-6" d="M 675.004 333.618 Q 675.004 326.818, 678.364 323.018 Q 681.724 319.218, 688.004 319.218 Q 694.284 319.218, 697.644 323.018 Q 701.004 326.818, 701.004 333.618 Q 701.004 340.498, 697.604 344.418 Q 694.204 348.298, 688.004 348.298 Q 681.764 348.298, 678.364 344.418 Q 675.004 340.538, 675.004 333.618 M 688.004 345.098 Q 692.324 345.098, 694.644 342.218 Q 697.004 339.298, 697.004 333.618 Q 697.004 328.058, 694.644 325.258 Q 692.324 322.418, 688.004 322.418 Q 683.684 322.418, 681.324 325.218 Q 679.004 328.018, 679.004 333.618 Q 679.004 339.338, 681.324 342.218 Q 683.684 345.098, 688.004 345.098 " fill="#FF0000"/>
<path class="atom-7" d="M 1117.9 305.435 L 1121.74 305.435 L 1121.74 317.475 L 1136.22 317.475 L 1136.22 305.435 L 1140.06 305.435 L 1140.06 333.755 L 1136.22 333.755 L 1136.22 320.675 L 1121.74 320.675 L 1121.74 333.755 L 1117.9 333.755 L 1117.9 305.435 " fill="#0000FF"/>
<path class="atom-7" d="M 1141.43 332.762 Q 1142.12 330.993, 1143.75 330.016 Q 1145.39 329.013, 1147.66 329.013 Q 1150.48 329.013, 1152.07 330.544 Q 1153.65 332.075, 1153.65 334.794 Q 1153.65 337.566, 1151.59 340.154 Q 1149.56 342.741, 1145.34 345.803 L 1153.97 345.803 L 1153.97 347.915 L 1141.38 347.915 L 1141.38 346.146 Q 1144.86 343.665, 1146.92 341.817 Q 1149.01 339.969, 1150.01 338.306 Q 1151.01 336.642, 1151.01 334.926 Q 1151.01 333.131, 1150.12 332.128 Q 1149.22 331.125, 1147.66 331.125 Q 1146.16 331.125, 1145.15 331.732 Q 1144.15 332.339, 1143.44 333.686 L 1141.43 332.762 " fill="#0000FF"/>
<path class="atom-7" d="M 1161.77 305.435 L 1171.05 320.435 Q 1171.97 321.915, 1173.45 324.595 Q 1174.93 327.275, 1175.01 327.435 L 1175.01 305.435 L 1178.77 305.435 L 1178.77 333.755 L 1174.89 333.755 L 1164.93 317.355 Q 1163.77 315.435, 1162.53 313.235 Q 1161.33 311.035, 1160.97 310.355 L 1160.97 333.755 L 1157.29 333.755 L 1157.29 305.435 L 1161.77 305.435 " fill="#0000FF"/>
<path class="atom-13" d="M 1592.57 67.0623 Q 1592.57 60.2623, 1595.93 56.4623 Q 1599.29 52.6623, 1605.57 52.6623 Q 1611.85 52.6623, 1615.21 56.4623 Q 1618.57 60.2623, 1618.57 67.0623 Q 1618.57 73.9423, 1615.17 77.8623 Q 1611.77 81.7423, 1605.57 81.7423 Q 1599.33 81.7423, 1595.93 77.8623 Q 1592.57 73.9823, 1592.57 67.0623 M 1605.57 78.5423 Q 1609.89 78.5423, 1612.21 75.6623 Q 1614.57 72.7423, 1614.57 67.0623 Q 1614.57 61.5023, 1612.21 58.7023 Q 1609.89 55.8623, 1605.57 55.8623 Q 1601.25 55.8623, 1598.89 58.6623 Q 1596.57 61.4623, 1596.57 67.0623 Q 1596.57 72.7823, 1598.89 75.6623 Q 1601.25 78.5423, 1605.57 78.5423 " fill="#FF0000"/>
<path class="atom-13" d="M 1621.97 52.9823 L 1625.81 52.9823 L 1625.81 65.0223 L 1640.29 65.0223 L 1640.29 52.9823 L 1644.13 52.9823 L 1644.13 81.3023 L 1640.29 81.3023 L 1640.29 68.2223 L 1625.81 68.2223 L 1625.81 81.3023 L 1621.97 81.3023 L 1621.97 52.9823 " fill="#FF0000"/>
<path class="atom-20" d="M 2461.1 96.5499 Q 2461.1 89.7499, 2464.46 85.9499 Q 2467.82 82.1499, 2474.1 82.1499 Q 2480.38 82.1499, 2483.74 85.9499 Q 2487.1 89.7499, 2487.1 96.5499 Q 2487.1 103.43, 2483.7 107.35 Q 2480.3 111.23, 2474.1 111.23 Q 2467.86 111.23, 2464.46 107.35 Q 2461.1 103.47, 2461.1 96.5499 M 2474.1 108.03 Q 2478.42 108.03, 2480.74 105.15 Q 2483.1 102.23, 2483.1 96.5499 Q 2483.1 90.9899, 2480.74 88.1899 Q 2478.42 85.3499, 2474.1 85.3499 Q 2469.78 85.3499, 2467.42 88.1499 Q 2465.1 90.9499, 2465.1 96.5499 Q 2465.1 102.27, 2467.42 105.15 Q 2469.78 108.03, 2474.1 108.03 " fill="#FF0000"/>
<path class="atom-21" d="M 2551.82 284.321 L 2561.1 299.321 Q 2562.02 300.801, 2563.5 303.481 Q 2564.98 306.161, 2565.06 306.321 L 2565.06 284.321 L 2568.82 284.321 L 2568.82 312.641 L 2564.94 312.641 L 2554.98 296.241 Q 2553.82 294.321, 2552.58 292.121 Q 2551.38 289.921, 2551.02 289.241 L 2551.02 312.641 L 2547.34 312.641 L 2547.34 284.321 L 2551.82 284.321 " fill="#0000FF"/>
<path class="atom-21" d="M 2547 315.473 L 2550.84 315.473 L 2550.84 327.513 L 2565.32 327.513 L 2565.32 315.473 L 2569.16 315.473 L 2569.16 343.793 L 2565.32 343.793 L 2565.32 330.713 L 2550.84 330.713 L 2550.84 343.793 L 2547 343.793 L 2547 315.473 " fill="#0000FF"/>
<path class="atom-27" d="M 3011.6 104.636 Q 3011.6 97.836, 3014.96 94.036 Q 3018.32 90.236, 3024.6 90.236 Q 3030.88 90.236, 3034.24 94.036 Q 3037.6 97.836, 3037.6 104.636 Q 3037.6 111.516, 3034.2 115.436 Q 3030.8 119.316, 3024.6 119.316 Q 3018.36 119.316, 3014.96 115.436 Q 3011.6 111.556, 3011.6 104.636 M 3024.6 116.116 Q 3028.92 116.116, 3031.24 113.236 Q 3033.6 110.316, 3033.6 104.636 Q 3033.6 99.076, 3031.24 96.276 Q 3028.92 93.436, 3024.6 93.436 Q 3020.28 93.436, 3017.92 96.236 Q 3015.6 99.036, 3015.6 104.636 Q 3015.6 110.356, 3017.92 113.236 Q 3020.28 116.116, 3024.6 116.116 " fill="#FF0000"/>
<path class="atom-30" d="M 3095.57 306.647 Q 3095.57 299.847, 3098.93 296.047 Q 3102.29 292.247, 3108.57 292.247 Q 3114.85 292.247, 3118.21 296.047 Q 3121.57 299.847, 3121.57 306.647 Q 3121.57 313.527, 3118.17 317.447 Q 3114.77 321.327, 3108.57 321.327 Q 3102.33 321.327, 3098.93 317.447 Q 3095.57 313.567, 3095.57 306.647 M 3108.57 318.127 Q 3112.89 318.127, 3115.21 315.247 Q 3117.57 312.327, 3117.57 306.647 Q 3117.57 301.087, 3115.21 298.287 Q 3112.89 295.447, 3108.57 295.447 Q 3104.25 295.447, 3101.89 298.247 Q 3099.57 301.047, 3099.57 306.647 Q 3099.57 312.367, 3101.89 315.247 Q 3104.25 318.127, 3108.57 318.127 " fill="#FF0000"/>
<path class="atom-35" d="M 3590.46 202.254 L 3594.3 202.254 L 3594.3 214.294 L 3608.78 214.294 L 3608.78 202.254 L 3612.62 202.254 L 3612.62 230.574 L 3608.78 230.574 L 3608.78 217.494 L 3594.3 217.494 L 3594.3 230.574 L 3590.46 230.574 L 3590.46 202.254 " fill="#FF0000"/>
<path class="atom-35" d="M 3613.99 229.58 Q 3614.68 227.811, 3616.31 226.834 Q 3617.95 225.831, 3620.22 225.831 Q 3623.04 225.831, 3624.63 227.362 Q 3626.21 228.894, 3626.21 231.613 Q 3626.21 234.385, 3624.15 236.972 Q 3622.12 239.559, 3617.9 242.622 L 3626.53 242.622 L 3626.53 244.734 L 3613.94 244.734 L 3613.94 242.965 Q 3617.42 240.483, 3619.48 238.635 Q 3621.57 236.787, 3622.57 235.124 Q 3623.57 233.461, 3623.57 231.745 Q 3623.57 229.95, 3622.68 228.946 Q 3621.78 227.943, 3620.22 227.943 Q 3618.72 227.943, 3617.71 228.55 Q 3616.71 229.158, 3616 230.504 L 3613.99 229.58 " fill="#FF0000"/>
<path class="atom-35" d="M 3628.53 216.334 Q 3628.53 209.534, 3631.89 205.734 Q 3635.25 201.934, 3641.53 201.934 Q 3647.81 201.934, 3651.17 205.734 Q 3654.53 209.534, 3654.53 216.334 Q 3654.53 223.214, 3651.13 227.134 Q 3647.73 231.014, 3641.53 231.014 Q 3635.29 231.014, 3631.89 227.134 Q 3628.53 223.254, 3628.53 216.334 M 3641.53 227.814 Q 3645.85 227.814, 3648.17 224.934 Q 3650.53 222.014, 3650.53 216.334 Q 3650.53 210.774, 3648.17 207.974 Q 3645.85 205.134, 3641.53 205.134 Q 3637.21 205.134, 3634.85 207.934 Q 3632.53 210.734, 3632.53 216.334 Q 3632.53 222.054, 3634.85 224.934 Q 3637.21 227.814, 3641.53 227.814 " fill="#FF0000"/>
<path class="note" d="M 345.834 167.829 L 348.934 167.829 L 348.934 157.249 L 345.514 158.309 L 345.054 157.129 L 349.394 155.189 L 350.814 155.429 L 350.814 167.829 L 353.594 167.829 L 353.594 169.429 L 345.834 169.429 L 345.834 167.829 " fill="#000000"/>
<path class="note" d="M 464.505 181.861 Q 465.025 180.521, 466.265 179.781 Q 467.505 179.021, 469.225 179.021 Q 471.365 179.021, 472.565 180.181 Q 473.765 181.341, 473.765 183.401 Q 473.765 185.501, 472.205 187.461 Q 470.665 189.421, 467.465 191.741 L 474.005 191.741 L 474.005 193.341 L 464.465 193.341 L 464.465 192.001 Q 467.105 190.121, 468.665 188.721 Q 470.245 187.321, 471.005 186.061 Q 471.765 184.801, 471.765 183.501 Q 471.765 182.141, 471.085 181.381 Q 470.405 180.621, 469.225 180.621 Q 468.085 180.621, 467.325 181.081 Q 466.565 181.541, 466.025 182.561 L 464.505 181.861 " fill="#000000"/>
<path class="note" d="M 471.275 375.34 Q 472.655 375.74, 473.315 376.64 Q 473.995 377.52, 473.995 378.92 Q 473.995 380.12, 473.395 381.06 Q 472.795 381.98, 471.695 382.5 Q 470.595 383, 469.155 383 Q 467.635 383, 466.495 382.48 Q 465.375 381.94, 464.475 380.86 L 465.615 379.7 Q 466.495 380.66, 467.235 381.04 Q 467.975 381.4, 469.155 381.4 Q 470.435 381.4, 471.215 380.72 Q 471.995 380.02, 471.995 378.9 Q 471.995 377.46, 471.175 376.82 Q 470.375 376.16, 468.635 376.16 L 467.615 376.16 L 467.615 374.72 L 468.515 374.72 Q 470.055 374.7, 470.875 374.04 Q 471.695 373.36, 471.695 372.1 Q 471.695 371.18, 471.015 370.64 Q 470.335 370.08, 469.175 370.08 Q 467.995 370.08, 467.255 370.5 Q 466.535 370.92, 465.975 371.98 L 464.595 371.24 Q 465.095 370.06, 466.295 369.28 Q 467.495 368.48, 469.175 368.48 Q 471.255 368.48, 472.475 369.46 Q 473.695 370.44, 473.695 372.1 Q 473.695 373.24, 473.075 374.06 Q 472.455 374.88, 471.275 375.34 " fill="#000000"/>
<path class="note" d="M 565.239 107.536 L 568.339 107.536 L 568.339 96.9563 L 564.919 98.0163 L 564.459 96.8363 L 568.799 94.8963 L 570.219 95.1363 L 570.219 107.536 L 572.999 107.536 L 572.999 109.136 L 565.239 109.136 L 565.239 107.536 " fill="#000000"/>
<path class="note" d="M 581.459 101.636 Q 582.759 102.196, 583.499 103.036 Q 584.239 103.856, 584.239 105.256 Q 584.239 106.456, 583.619 107.396 Q 582.999 108.316, 581.879 108.836 Q 580.779 109.336, 579.319 109.336 Q 576.959 109.336, 575.599 108.256 Q 574.239 107.156, 574.239 105.256 Q 574.239 104.096, 574.839 103.236 Q 575.439 102.356, 576.679 101.696 Q 575.759 101.176, 575.259 100.416 Q 574.759 99.6363, 574.759 98.4363 Q 574.759 96.7763, 575.959 95.7963 Q 577.179 94.8163, 579.239 94.8163 Q 581.299 94.8163, 582.499 95.7963 Q 583.719 96.7763, 583.719 98.4363 Q 583.719 99.4763, 583.139 100.256 Q 582.579 101.016, 581.459 101.636 M 579.239 96.3163 Q 578.059 96.3163, 577.399 96.8763 Q 576.759 97.4363, 576.759 98.4363 Q 576.759 99.1763, 577.199 99.6763 Q 577.639 100.156, 578.259 100.436 Q 578.899 100.716, 580.119 101.136 Q 580.979 100.536, 581.339 99.8963 Q 581.719 99.2563, 581.719 98.4363 Q 581.719 97.4363, 581.059 96.8763 Q 580.419 96.3163, 579.239 96.3163 M 579.319 107.836 Q 580.639 107.836, 581.439 107.136 Q 582.239 106.416, 582.239 105.236 Q 582.239 104.476, 581.819 103.996 Q 581.399 103.516, 580.759 103.236 Q 580.139 102.956, 579.019 102.596 L 578.119 102.296 Q 577.119 102.896, 576.679 103.616 Q 576.239 104.316, 576.239 105.236 Q 576.239 106.416, 577.079 107.136 Q 577.919 107.836, 579.319 107.836 " fill="#000000"/>
<path class="note" d="M 675.434 170.649 L 678.534 170.649 L 678.534 160.069 L 675.114 161.129 L 674.654 159.949 L 678.994 158.009 L 680.414 158.249 L 680.414 170.649 L 683.194 170.649 L 683.194 172.249 L 675.434 172.249 L 675.434 170.649 " fill="#000000"/>
<path class="note" d="M 685.054 170.649 L 688.154 170.649 L 688.154 160.069 L 684.734 161.129 L 684.274 159.949 L 688.614 158.009 L 690.034 158.249 L 690.034 170.649 L 692.814 170.649 L 692.814 172.249 L 685.054 172.249 L 685.054 170.649 " fill="#000000"/>
<path class="note" d="M 773.833 131.408 L 776.933 131.408 L 776.933 120.828 L 773.513 121.888 L 773.053 120.708 L 777.393 118.768 L 778.813 119.008 L 778.813 131.408 L 781.593 131.408 L 781.593 133.008 L 773.833 133.008 L 773.833 131.408 " fill="#000000"/>
<path class="note" d="M 782.633 121.528 Q 783.153 120.188, 784.393 119.448 Q 785.633 118.688, 787.353 118.688 Q 789.493 118.688, 790.693 119.848 Q 791.893 121.008, 791.893 123.068 Q 791.893 125.168, 790.333 127.128 Q 788.793 129.088, 785.593 131.408 L 792.133 131.408 L 792.133 133.008 L 782.593 133.008 L 782.593 131.668 Q 785.233 129.788, 786.793 128.388 Q 788.373 126.988, 789.133 125.728 Q 789.893 124.468, 789.893 123.168 Q 789.893 121.808, 789.213 121.048 Q 788.533 120.288, 787.353 120.288 Q 786.213 120.288, 785.453 120.748 Q 784.693 121.208, 784.153 122.228 L 782.633 121.528 " fill="#000000"/>
<path class="note" d="M 675.064 381.2 L 678.164 381.2 L 678.164 370.62 L 674.744 371.68 L 674.284 370.5 L 678.624 368.56 L 680.044 368.8 L 680.044 381.2 L 682.824 381.2 L 682.824 382.8 L 675.064 382.8 L 675.064 381.2 " fill="#000000"/>
<path class="note" d="M 690.464 375.34 Q 691.844 375.74, 692.504 376.64 Q 693.184 377.52, 693.184 378.92 Q 693.184 380.12, 692.584 381.06 Q 691.984 381.98, 690.884 382.5 Q 689.784 383, 688.344 383 Q 686.824 383, 685.684 382.48 Q 684.564 381.94, 683.664 380.86 L 684.804 379.7 Q 685.684 380.66, 686.424 381.04 Q 687.164 381.4, 688.344 381.4 Q 689.624 381.4, 690.404 380.72 Q 691.184 380.02, 691.184 378.9 Q 691.184 377.46, 690.364 376.82 Q 689.564 376.16, 687.824 376.16 L 686.804 376.16 L 686.804 374.72 L 687.704 374.72 Q 689.244 374.7, 690.064 374.04 Q 690.884 373.36, 690.884 372.1 Q 690.884 371.18, 690.204 370.64 Q 689.524 370.08, 688.364 370.08 Q 687.184 370.08, 686.444 370.5 Q 685.724 370.92, 685.164 371.98 L 683.784 371.24 Q 684.284 370.06, 685.484 369.28 Q 686.684 368.48, 688.364 368.48 Q 690.444 368.48, 691.664 369.46 Q 692.884 370.44, 692.884 372.1 Q 692.884 373.24, 692.264 374.06 Q 691.644 374.88, 690.464 375.34 " fill="#000000"/>
<path class="note" d="M 1171.78 363.917 L 1173.48 363.917 L 1173.48 365.517 L 1171.78 365.517 L 1171.78 368.777 L 1169.9 368.777 L 1169.9 365.517 L 1162.58 365.517 L 1162.58 364.257 L 1168.78 354.617 L 1171.78 354.617 L 1171.78 363.917 M 1164.9 363.917 L 1169.9 363.917 L 1169.9 355.897 L 1164.9 363.917 " fill="#000000"/>
<path class="note" d="M 1259.53 244.136 Q 1260.77 244.136, 1261.79 244.676 Q 1262.81 245.196, 1263.39 246.196 Q 1263.97 247.176, 1263.97 248.516 Q 1263.97 249.976, 1263.25 251.036 Q 1262.55 252.076, 1261.39 252.616 Q 1260.23 253.156, 1258.91 253.156 Q 1257.61 253.156, 1256.41 252.676 Q 1255.21 252.196, 1254.39 251.276 L 1255.59 250.036 Q 1256.25 250.756, 1257.15 251.156 Q 1258.05 251.536, 1258.97 251.536 Q 1260.23 251.536, 1261.09 250.756 Q 1261.97 249.976, 1261.97 248.556 Q 1261.97 247.056, 1261.09 246.356 Q 1260.23 245.636, 1258.85 245.636 Q 1257.61 245.636, 1256.23 246.176 L 1255.13 245.656 L 1255.81 238.836 L 1263.09 238.836 L 1262.89 240.436 L 1257.45 240.436 L 1257.03 244.636 Q 1258.29 244.136, 1259.53 244.136 " fill="#000000"/>
<path class="note" d="M 1259.81 138.981 Q 1261.05 138.981, 1262.03 139.521 Q 1263.01 140.061, 1263.55 141.041 Q 1264.09 142.021, 1264.09 143.261 Q 1264.09 144.641, 1263.47 145.721 Q 1262.87 146.781, 1261.79 147.381 Q 1260.71 147.981, 1259.33 147.981 Q 1256.81 147.981, 1255.53 146.281 Q 1254.27 144.561, 1254.27 141.161 Q 1254.27 137.401, 1255.83 135.461 Q 1257.41 133.501, 1260.43 133.501 Q 1261.31 133.501, 1262.05 133.701 Q 1262.81 133.901, 1263.53 134.321 L 1262.75 135.661 Q 1261.71 135.101, 1260.45 135.101 Q 1258.45 135.101, 1257.43 136.401 Q 1256.41 137.681, 1256.29 140.341 Q 1257.01 139.681, 1257.91 139.341 Q 1258.83 138.981, 1259.81 138.981 M 1259.35 146.341 Q 1260.11 146.341, 1260.73 145.941 Q 1261.37 145.541, 1261.73 144.841 Q 1262.09 144.141, 1262.09 143.281 Q 1262.09 142.021, 1261.39 141.301 Q 1260.69 140.581, 1259.45 140.581 Q 1258.59 140.581, 1257.73 140.941 Q 1256.89 141.281, 1256.29 141.881 Q 1256.37 144.221, 1257.11 145.281 Q 1257.85 146.341, 1259.35 146.341 " fill="#000000"/>
<path class="note" d="M 1160.22 79.7331 L 1152.8 79.7331 L 1152.8 78.1331 L 1162.2 78.1331 L 1162.2 79.5531 L 1156.48 92.2931 L 1154.56 92.2931 L 1160.22 79.7331 " fill="#000000"/>
<path class="note" d="M 1389.02 45.5912 Q 1390.32 46.1512, 1391.06 46.9912 Q 1391.8 47.8112, 1391.8 49.2112 Q 1391.8 50.4112, 1391.18 51.3512 Q 1390.56 52.2712, 1389.44 52.7912 Q 1388.34 53.2912, 1386.88 53.2912 Q 1384.52 53.2912, 1383.16 52.2112 Q 1381.8 51.1112, 1381.8 49.2112 Q 1381.8 48.0512, 1382.4 47.1912 Q 1383 46.3112, 1384.24 45.6512 Q 1383.32 45.1312, 1382.82 44.3712 Q 1382.32 43.5912, 1382.32 42.3912 Q 1382.32 40.7312, 1383.52 39.7512 Q 1384.74 38.7712, 1386.8 38.7712 Q 1388.86 38.7712, 1390.06 39.7512 Q 1391.28 40.7312, 1391.28 42.3912 Q 1391.28 43.4312, 1390.7 44.2112 Q 1390.14 44.9712, 1389.02 45.5912 M 1386.8 40.2712 Q 1385.62 40.2712, 1384.96 40.8312 Q 1384.32 41.3912, 1384.32 42.3912 Q 1384.32 43.1312, 1384.76 43.6312 Q 1385.2 44.1112, 1385.82 44.3912 Q 1386.46 44.6712, 1387.68 45.0912 Q 1388.54 44.4912, 1388.9 43.8512 Q 1389.28 43.2112, 1389.28 42.3912 Q 1389.28 41.3912, 1388.62 40.8312 Q 1387.98 40.2712, 1386.8 40.2712 M 1386.88 51.7912 Q 1388.2 51.7912, 1389 51.0912 Q 1389.8 50.3712, 1389.8 49.1912 Q 1389.8 48.4312, 1389.38 47.9512 Q 1388.96 47.4712, 1388.32 47.1912 Q 1387.7 46.9112, 1386.58 46.5512 L 1385.68 46.2512 Q 1384.68 46.8512, 1384.24 47.5712 Q 1383.8 48.2712, 1383.8 49.1912 Q 1383.8 50.3712, 1384.64 51.0912 Q 1385.48 51.7912, 1386.88 51.7912 " fill="#000000"/>
<path class="note" d="M 1496.03 101.924 Q 1498.55 101.924, 1499.81 103.644 Q 1501.09 105.344, 1501.09 108.744 Q 1501.09 112.504, 1499.51 114.464 Q 1497.95 116.404, 1494.93 116.404 Q 1494.05 116.404, 1493.29 116.204 Q 1492.55 116.004, 1491.83 115.584 L 1492.61 114.244 Q 1493.65 114.804, 1494.91 114.804 Q 1496.91 114.804, 1497.93 113.524 Q 1498.95 112.224, 1499.07 109.564 Q 1498.35 110.224, 1497.43 110.584 Q 1496.53 110.924, 1495.55 110.924 Q 1494.31 110.924, 1493.33 110.384 Q 1492.35 109.844, 1491.81 108.864 Q 1491.27 107.884, 1491.27 106.644 Q 1491.27 105.264, 1491.87 104.204 Q 1492.49 103.124, 1493.57 102.524 Q 1494.65 101.924, 1496.03 101.924 M 1493.27 106.624 Q 1493.27 107.884, 1493.97 108.604 Q 1494.67 109.324, 1495.91 109.324 Q 1496.77 109.324, 1497.61 108.984 Q 1498.47 108.624, 1499.07 108.024 Q 1498.99 105.684, 1498.25 104.624 Q 1497.51 103.564, 1496.01 103.564 Q 1495.25 103.564, 1494.61 103.964 Q 1493.99 104.364, 1493.63 105.064 Q 1493.27 105.764, 1493.27 106.624 " fill="#000000"/>
<path class="note" d="M 1613.07 36.0808 L 1616.17 36.0808 L 1616.17 25.5008 L 1612.75 26.5608 L 1612.29 25.3808 L 1616.63 23.4408 L 1618.05 23.6808 L 1618.05 36.0808 L 1620.83 36.0808 L 1620.83 37.6808 L 1613.07 37.6808 L 1613.07 36.0808 " fill="#000000"/>
<path class="note" d="M 1627.23 37.8408 Q 1624.63 37.8408, 1623.33 35.9208 Q 1622.05 34.0008, 1622.05 30.5808 Q 1622.05 27.1608, 1623.33 25.2608 Q 1624.61 23.3608, 1627.23 23.3608 Q 1629.85 23.3608, 1631.13 25.2608 Q 1632.41 27.1608, 1632.41 30.5808 Q 1632.41 34.0008, 1631.11 35.9208 Q 1629.83 37.8408, 1627.23 37.8408 M 1627.23 36.2408 Q 1628.77 36.2408, 1629.59 34.8208 Q 1630.41 33.3808, 1630.41 30.5808 Q 1630.41 27.8008, 1629.59 26.3808 Q 1628.77 24.9608, 1627.23 24.9608 Q 1625.71 24.9608, 1624.87 26.3808 Q 1624.05 27.8008, 1624.05 30.5808 Q 1624.05 33.3808, 1624.87 34.8208 Q 1625.71 36.2408, 1627.23 36.2408 " fill="#000000"/>
<path class="note" d="M 1519.13 240.911 L 1522.23 240.911 L 1522.23 230.331 L 1518.81 231.391 L 1518.35 230.211 L 1522.69 228.271 L 1524.11 228.511 L 1524.11 240.911 L 1526.89 240.911 L 1526.89 242.511 L 1519.13 242.511 L 1519.13 240.911 " fill="#000000"/>
<path class="note" d="M 1536.69 237.651 L 1538.39 237.651 L 1538.39 239.251 L 1536.69 239.251 L 1536.69 242.511 L 1534.81 242.511 L 1534.81 239.251 L 1527.49 239.251 L 1527.49 237.991 L 1533.69 228.351 L 1536.69 228.351 L 1536.69 237.651 M 1529.81 237.651 L 1534.81 237.651 L 1534.81 229.631 L 1529.81 237.651 " fill="#000000"/>
<path class="note" d="M 1574.33 335.641 L 1577.43 335.641 L 1577.43 325.061 L 1574.01 326.121 L 1573.55 324.941 L 1577.89 323.001 L 1579.31 323.241 L 1579.31 335.641 L 1582.09 335.641 L 1582.09 337.241 L 1574.33 337.241 L 1574.33 335.641 " fill="#000000"/>
<path class="note" d="M 1588.15 328.381 Q 1589.39 328.381, 1590.41 328.921 Q 1591.43 329.441, 1592.01 330.441 Q 1592.59 331.421, 1592.59 332.761 Q 1592.59 334.221, 1591.87 335.281 Q 1591.17 336.321, 1590.01 336.861 Q 1588.85 337.401, 1587.53 337.401 Q 1586.23 337.401, 1585.03 336.921 Q 1583.83 336.441, 1583.01 335.521 L 1584.21 334.281 Q 1584.87 335.001, 1585.77 335.401 Q 1586.67 335.781, 1587.59 335.781 Q 1588.85 335.781, 1589.71 335.001 Q 1590.59 334.221, 1590.59 332.801 Q 1590.59 331.301, 1589.71 330.601 Q 1588.85 329.881, 1587.47 329.881 Q 1586.23 329.881, 1584.85 330.421 L 1583.75 329.901 L 1584.43 323.081 L 1591.71 323.081 L 1591.51 324.681 L 1586.07 324.681 L 1585.65 328.881 Q 1586.91 328.381, 1588.15 328.381 " fill="#000000"/>
<path class="note" d="M 1355.22 335.681 L 1358.32 335.681 L 1358.32 325.101 L 1354.9 326.161 L 1354.44 324.981 L 1358.78 323.041 L 1360.2 323.281 L 1360.2 335.681 L 1362.98 335.681 L 1362.98 337.281 L 1355.22 337.281 L 1355.22 335.681 " fill="#000000"/>
<path class="note" d="M 1369.88 328.441 Q 1371.12 328.441, 1372.1 328.981 Q 1373.08 329.521, 1373.62 330.501 Q 1374.16 331.481, 1374.16 332.721 Q 1374.16 334.101, 1373.54 335.181 Q 1372.94 336.241, 1371.86 336.841 Q 1370.78 337.441, 1369.4 337.441 Q 1366.88 337.441, 1365.6 335.741 Q 1364.34 334.021, 1364.34 330.621 Q 1364.34 326.861, 1365.9 324.921 Q 1367.48 322.961, 1370.5 322.961 Q 1371.38 322.961, 1372.12 323.161 Q 1372.88 323.361, 1373.6 323.781 L 1372.82 325.121 Q 1371.78 324.561, 1370.52 324.561 Q 1368.52 324.561, 1367.5 325.861 Q 1366.48 327.141, 1366.36 329.801 Q 1367.08 329.141, 1367.98 328.801 Q 1368.9 328.441, 1369.88 328.441 M 1369.42 335.801 Q 1370.18 335.801, 1370.8 335.401 Q 1371.44 335.001, 1371.8 334.301 Q 1372.16 333.601, 1372.16 332.741 Q 1372.16 331.481, 1371.46 330.761 Q 1370.76 330.041, 1369.52 330.041 Q 1368.66 330.041, 1367.8 330.401 Q 1366.96 330.741, 1366.36 331.341 Q 1366.44 333.681, 1367.18 334.741 Q 1367.92 335.801, 1369.42 335.801 " fill="#000000"/>
<path class="note" d="M 1395.21 451.422 L 1398.31 451.422 L 1398.31 440.842 L 1394.89 441.902 L 1394.43 440.722 L 1398.77 438.782 L 1400.19 439.022 L 1400.19 451.422 L 1402.97 451.422 L 1402.97 453.022 L 1395.21 453.022 L 1395.21 451.422 " fill="#000000"/>
<path class="note" d="M 1410.75 440.462 L 1403.33 440.462 L 1403.33 438.862 L 1412.73 438.862 L 1412.73 440.282 L 1407.01 453.022 L 1405.09 453.022 L 1410.75 440.462 " fill="#000000"/>
<path class="note" d="M 2345.73 295.156 L 2348.83 295.156 L 2348.83 284.576 L 2345.41 285.636 L 2344.95 284.456 L 2349.29 282.516 L 2350.71 282.756 L 2350.71 295.156 L 2353.49 295.156 L 2353.49 296.756 L 2345.73 296.756 L 2345.73 295.156 " fill="#000000"/>
<path class="note" d="M 2450.32 238.271 Q 2450.84 236.931, 2452.08 236.191 Q 2453.32 235.431, 2455.04 235.431 Q 2457.18 235.431, 2458.38 236.591 Q 2459.58 237.751, 2459.58 239.811 Q 2459.58 241.911, 2458.02 243.871 Q 2456.48 245.831, 2453.28 248.151 L 2459.82 248.151 L 2459.82 249.751 L 2450.28 249.751 L 2450.28 248.411 Q 2452.92 246.531, 2454.48 245.131 Q 2456.06 243.731, 2456.82 242.471 Q 2457.58 241.211, 2457.58 239.911 Q 2457.58 238.551, 2456.9 237.791 Q 2456.22 237.031, 2455.04 237.031 Q 2453.9 237.031, 2453.14 237.491 Q 2452.38 237.951, 2451.84 238.971 L 2450.32 238.271 " fill="#000000"/>
<path class="note" d="M 2481.59 54.4211 Q 2482.97 54.8211, 2483.63 55.7211 Q 2484.31 56.6011, 2484.31 58.0011 Q 2484.31 59.2011, 2483.71 60.1411 Q 2483.11 61.0611, 2482.01 61.5811 Q 2480.91 62.0811, 2479.47 62.0811 Q 2477.95 62.0811, 2476.81 61.5611 Q 2475.69 61.0211, 2474.79 59.9411 L 2475.93 58.7811 Q 2476.81 59.7411, 2477.55 60.1211 Q 2478.29 60.4811, 2479.47 60.4811 Q 2480.75 60.4811, 2481.53 59.8011 Q 2482.31 59.1011, 2482.31 57.9811 Q 2482.31 56.5411, 2481.49 55.9011 Q 2480.69 55.2411, 2478.95 55.2411 L 2477.93 55.2411 L 2477.93 53.8011 L 2478.83 53.8011 Q 2480.37 53.7811, 2481.19 53.1211 Q 2482.01 52.4411, 2482.01 51.1811 Q 2482.01 50.2611, 2481.33 49.7211 Q 2480.65 49.1611, 2479.49 49.1611 Q 2478.31 49.1611, 2477.57 49.5811 Q 2476.85 50.0011, 2476.29 51.0611 L 2474.91 50.3211 Q 2475.41 49.1411, 2476.61 48.3611 Q 2477.81 47.5611, 2479.49 47.5611 Q 2481.57 47.5611, 2482.79 48.5411 Q 2484.01 49.5211, 2484.01 51.1811 Q 2484.01 52.3211, 2483.39 53.1411 Q 2482.77 53.9611, 2481.59 54.4211 " fill="#000000"/>
<path class="note" d="M 2595.26 326.29 L 2596.96 326.29 L 2596.96 327.89 L 2595.26 327.89 L 2595.26 331.15 L 2593.38 331.15 L 2593.38 327.89 L 2586.06 327.89 L 2586.06 326.63 L 2592.26 316.99 L 2595.26 316.99 L 2595.26 326.29 M 2588.38 326.29 L 2593.38 326.29 L 2593.38 318.27 L 2588.38 326.29 " fill="#000000"/>
<path class="note" d="M 2658.34 235.426 Q 2659.58 235.426, 2660.6 235.966 Q 2661.62 236.486, 2662.2 237.486 Q 2662.78 238.466, 2662.78 239.806 Q 2662.78 241.266, 2662.06 242.326 Q 2661.36 243.366, 2660.2 243.906 Q 2659.04 244.446, 2657.72 244.446 Q 2656.42 244.446, 2655.22 243.966 Q 2654.02 243.486, 2653.2 242.566 L 2654.4 241.326 Q 2655.06 242.046, 2655.96 242.446 Q 2656.86 242.826, 2657.78 242.826 Q 2659.04 242.826, 2659.9 242.046 Q 2660.78 241.266, 2660.78 239.846 Q 2660.78 238.346, 2659.9 237.646 Q 2659.04 236.926, 2657.66 236.926 Q 2656.42 236.926, 2655.04 237.466 L 2653.94 236.946 L 2654.62 230.126 L 2661.9 230.126 L 2661.7 231.726 L 2656.26 231.726 L 2655.84 235.926 Q 2657.1 235.426, 2658.34 235.426 " fill="#000000"/>
<path class="note" d="M 2672.23 131.154 Q 2673.47 131.154, 2674.45 131.694 Q 2675.43 132.234, 2675.97 133.214 Q 2676.51 134.194, 2676.51 135.434 Q 2676.51 136.814, 2675.89 137.894 Q 2675.29 138.954, 2674.21 139.554 Q 2673.13 140.154, 2671.75 140.154 Q 2669.23 140.154, 2667.95 138.454 Q 2666.69 136.734, 2666.69 133.334 Q 2666.69 129.574, 2668.25 127.634 Q 2669.83 125.674, 2672.85 125.674 Q 2673.73 125.674, 2674.47 125.874 Q 2675.23 126.074, 2675.95 126.494 L 2675.17 127.834 Q 2674.13 127.274, 2672.87 127.274 Q 2670.87 127.274, 2669.85 128.574 Q 2668.83 129.854, 2668.71 132.514 Q 2669.43 131.854, 2670.33 131.514 Q 2671.25 131.154, 2672.23 131.154 M 2671.77 138.514 Q 2672.53 138.514, 2673.15 138.114 Q 2673.79 137.714, 2674.15 137.014 Q 2674.51 136.314, 2674.51 135.454 Q 2674.51 134.194, 2673.81 133.474 Q 2673.11 132.754, 2671.87 132.754 Q 2671.01 132.754, 2670.15 133.114 Q 2669.31 133.454, 2668.71 134.054 Q 2668.79 136.394, 2669.53 137.454 Q 2670.27 138.514, 2671.77 138.514 " fill="#000000"/>
<path class="note" d="M 2580.66 59.2255 L 2573.24 59.2255 L 2573.24 57.6255 L 2582.64 57.6255 L 2582.64 59.0455 L 2576.92 71.7855 L 2575 71.7855 L 2580.66 59.2255 " fill="#000000"/>
<path class="note" d="M 2812.61 55.0579 Q 2813.91 55.6179, 2814.65 56.4579 Q 2815.39 57.2779, 2815.39 58.6779 Q 2815.39 59.8779, 2814.77 60.8179 Q 2814.15 61.7379, 2813.03 62.2579 Q 2811.93 62.7579, 2810.47 62.7579 Q 2808.11 62.7579, 2806.75 61.6779 Q 2805.39 60.5779, 2805.39 58.6779 Q 2805.39 57.5179, 2805.99 56.6579 Q 2806.59 55.7779, 2807.83 55.1179 Q 2806.91 54.5979, 2806.41 53.8379 Q 2805.91 53.0579, 2805.91 51.8579 Q 2805.91 50.1979, 2807.11 49.2179 Q 2808.33 48.2379, 2810.39 48.2379 Q 2812.45 48.2379, 2813.65 49.2179 Q 2814.87 50.1979, 2814.87 51.8579 Q 2814.87 52.8979, 2814.29 53.6779 Q 2813.73 54.4379, 2812.61 55.0579 M 2810.39 49.7379 Q 2809.21 49.7379, 2808.55 50.2979 Q 2807.91 50.8579, 2807.91 51.8579 Q 2807.91 52.5979, 2808.35 53.0979 Q 2808.79 53.5779, 2809.41 53.8579 Q 2810.05 54.1379, 2811.27 54.5579 Q 2812.13 53.9579, 2812.49 53.3179 Q 2812.87 52.6779, 2812.87 51.8579 Q 2812.87 50.8579, 2812.21 50.2979 Q 2811.57 49.7379, 2810.39 49.7379 M 2810.47 61.2579 Q 2811.79 61.2579, 2812.59 60.5579 Q 2813.39 59.8379, 2813.39 58.6579 Q 2813.39 57.8979, 2812.97 57.4179 Q 2812.55 56.9379, 2811.91 56.6579 Q 2811.29 56.3779, 2810.17 56.0179 L 2809.27 55.7179 Q 2808.27 56.3179, 2807.83 57.0379 Q 2807.39 57.7379, 2807.39 58.6579 Q 2807.39 59.8379, 2808.23 60.5579 Q 2809.07 61.2579, 2810.47 61.2579 " fill="#000000"/>
<path class="note" d="M 2910.54 125.003 Q 2913.06 125.003, 2914.32 126.723 Q 2915.6 128.423, 2915.6 131.823 Q 2915.6 135.583, 2914.02 137.543 Q 2912.46 139.483, 2909.44 139.483 Q 2908.56 139.483, 2907.8 139.283 Q 2907.06 139.083, 2906.34 138.663 L 2907.12 137.323 Q 2908.16 137.883, 2909.42 137.883 Q 2911.42 137.883, 2912.44 136.603 Q 2913.46 135.303, 2913.58 132.643 Q 2912.86 133.303, 2911.94 133.663 Q 2911.04 134.003, 2910.06 134.003 Q 2908.82 134.003, 2907.84 133.463 Q 2906.86 132.923, 2906.32 131.943 Q 2905.78 130.963, 2905.78 129.723 Q 2905.78 128.343, 2906.38 127.283 Q 2907 126.203, 2908.08 125.603 Q 2909.16 125.003, 2910.54 125.003 M 2907.78 129.703 Q 2907.78 130.963, 2908.48 131.683 Q 2909.18 132.403, 2910.42 132.403 Q 2911.28 132.403, 2912.12 132.063 Q 2912.98 131.703, 2913.58 131.103 Q 2913.5 128.763, 2912.76 127.703 Q 2912.02 126.643, 2910.52 126.643 Q 2909.76 126.643, 2909.12 127.043 Q 2908.5 127.443, 2908.14 128.143 Q 2907.78 128.843, 2907.78 129.703 " fill="#000000"/>
<path class="note" d="M 3016.49 68.3672 L 3019.59 68.3672 L 3019.59 57.7872 L 3016.17 58.8472 L 3015.71 57.6672 L 3020.05 55.7272 L 3021.47 55.9672 L 3021.47 68.3672 L 3024.25 68.3672 L 3024.25 69.9672 L 3016.49 69.9672 L 3016.49 68.3672 " fill="#000000"/>
<path class="note" d="M 3030.65 70.1272 Q 3028.05 70.1272, 3026.75 68.2072 Q 3025.47 66.2872, 3025.47 62.8672 Q 3025.47 59.4472, 3026.75 57.5472 Q 3028.03 55.6472, 3030.65 55.6472 Q 3033.27 55.6472, 3034.55 57.5472 Q 3035.83 59.4472, 3035.83 62.8672 Q 3035.83 66.2872, 3034.53 68.2072 Q 3033.25 70.1272, 3030.65 70.1272 M 3030.65 68.5272 Q 3032.19 68.5272, 3033.01 67.1072 Q 3033.83 65.6672, 3033.83 62.8672 Q 3033.83 60.0872, 3033.01 58.6672 Q 3032.19 57.2472, 3030.65 57.2472 Q 3029.13 57.2472, 3028.29 58.6672 Q 3027.47 60.0872, 3027.47 62.8672 Q 3027.47 65.6672, 3028.29 67.1072 Q 3029.13 68.5272, 3030.65 68.5272 " fill="#000000"/>
<path class="note" d="M 3117.78 145.092 L 3120.88 145.092 L 3120.88 134.512 L 3117.46 135.572 L 3117 134.392 L 3121.34 132.452 L 3122.76 132.692 L 3122.76 145.092 L 3125.54 145.092 L 3125.54 146.692 L 3117.78 146.692 L 3117.78 145.092 " fill="#000000"/>
<path class="note" d="M 3127.4 145.092 L 3130.5 145.092 L 3130.5 134.512 L 3127.08 135.572 L 3126.62 134.392 L 3130.96 132.452 L 3132.38 132.692 L 3132.38 145.092 L 3135.16 145.092 L 3135.16 146.692 L 3127.4 146.692 L 3127.4 145.092 " fill="#000000"/>
<path class="note" d="M 3220.42 118.961 L 3223.52 118.961 L 3223.52 108.381 L 3220.1 109.441 L 3219.64 108.261 L 3223.98 106.321 L 3225.4 106.561 L 3225.4 118.961 L 3228.18 118.961 L 3228.18 120.561 L 3220.42 120.561 L 3220.42 118.961 " fill="#000000"/>
<path class="note" d="M 3229.22 109.081 Q 3229.74 107.741, 3230.98 107.001 Q 3232.22 106.241, 3233.94 106.241 Q 3236.08 106.241, 3237.28 107.401 Q 3238.48 108.561, 3238.48 110.621 Q 3238.48 112.721, 3236.92 114.681 Q 3235.38 116.641, 3232.18 118.961 L 3238.72 118.961 L 3238.72 120.561 L 3229.18 120.561 L 3229.18 119.221 Q 3231.82 117.341, 3233.38 115.941 Q 3234.96 114.541, 3235.72 113.281 Q 3236.48 112.021, 3236.48 110.721 Q 3236.48 109.361, 3235.8 108.601 Q 3235.12 107.841, 3233.94 107.841 Q 3232.8 107.841, 3232.04 108.301 Q 3231.28 108.761, 3230.74 109.781 L 3229.22 109.081 " fill="#000000"/>
<path class="note" d="M 3090.19 353.876 L 3093.29 353.876 L 3093.29 343.296 L 3089.87 344.356 L 3089.41 343.176 L 3093.75 341.236 L 3095.17 341.476 L 3095.17 353.876 L 3097.95 353.876 L 3097.95 355.476 L 3090.19 355.476 L 3090.19 353.876 " fill="#000000"/>
<path class="note" d="M 3105.59 348.016 Q 3106.97 348.416, 3107.63 349.316 Q 3108.31 350.196, 3108.31 351.596 Q 3108.31 352.796, 3107.71 353.736 Q 3107.11 354.656, 3106.01 355.176 Q 3104.91 355.676, 3103.47 355.676 Q 3101.95 355.676, 3100.81 355.156 Q 3099.69 354.616, 3098.79 353.536 L 3099.93 352.376 Q 3100.81 353.336, 3101.55 353.716 Q 3102.29 354.076, 3103.47 354.076 Q 3104.75 354.076, 3105.53 353.396 Q 3106.31 352.696, 3106.31 351.576 Q 3106.31 350.136, 3105.49 349.496 Q 3104.69 348.836, 3102.95 348.836 L 3101.93 348.836 L 3101.93 347.396 L 3102.83 347.396 Q 3104.37 347.376, 3105.19 346.716 Q 3106.01 346.036, 3106.01 344.776 Q 3106.01 343.856, 3105.33 343.316 Q 3104.65 342.756, 3103.49 342.756 Q 3102.31 342.756, 3101.57 343.176 Q 3100.85 343.596, 3100.29 344.656 L 3098.91 343.916 Q 3099.41 342.736, 3100.61 341.956 Q 3101.81 341.156, 3103.49 341.156 Q 3105.57 341.156, 3106.79 342.136 Q 3108.01 343.116, 3108.01 344.776 Q 3108.01 345.916, 3107.39 346.736 Q 3106.77 347.556, 3105.59 348.016 " fill="#000000"/>
<path class="note" d="M 2917.01 267.643 L 2920.11 267.643 L 2920.11 257.063 L 2916.69 258.123 L 2916.23 256.943 L 2920.57 255.003 L 2921.99 255.243 L 2921.99 267.643 L 2924.77 267.643 L 2924.77 269.243 L 2917.01 269.243 L 2917.01 267.643 " fill="#000000"/>
<path class="note" d="M 2934.57 264.383 L 2936.27 264.383 L 2936.27 265.983 L 2934.57 265.983 L 2934.57 269.243 L 2932.69 269.243 L 2932.69 265.983 L 2925.37 265.983 L 2925.37 264.723 L 2931.57 255.083 L 2934.57 255.083 L 2934.57 264.383 M 2927.69 264.383 L 2932.69 264.383 L 2932.69 256.363 L 2927.69 264.383 " fill="#000000"/>
<path class="note" d="M 2959.49 368.649 L 2962.59 368.649 L 2962.59 358.069 L 2959.17 359.129 L 2958.71 357.949 L 2963.05 356.009 L 2964.47 356.249 L 2964.47 368.649 L 2967.25 368.649 L 2967.25 370.249 L 2959.49 370.249 L 2959.49 368.649 " fill="#000000"/>
<path class="note" d="M 2973.31 361.389 Q 2974.55 361.389, 2975.57 361.929 Q 2976.59 362.449, 2977.17 363.449 Q 2977.75 364.429, 2977.75 365.769 Q 2977.75 367.229, 2977.03 368.289 Q 2976.33 369.329, 2975.17 369.869 Q 2974.01 370.409, 2972.69 370.409 Q 2971.39 370.409, 2970.19 369.929 Q 2968.99 369.449, 2968.17 368.529 L 2969.37 367.289 Q 2970.03 368.009, 2970.93 368.409 Q 2971.83 368.789, 2972.75 368.789 Q 2974.01 368.789, 2974.87 368.009 Q 2975.75 367.229, 2975.75 365.809 Q 2975.75 364.309, 2974.87 363.609 Q 2974.01 362.889, 2972.63 362.889 Q 2971.39 362.889, 2970.01 363.429 L 2968.91 362.909 L 2969.59 356.089 L 2976.87 356.089 L 2976.67 357.689 L 2971.23 357.689 L 2970.81 361.889 Q 2972.07 361.389, 2973.31 361.389 " fill="#000000"/>
<path class="note" d="M 2742.22 340.405 L 2745.32 340.405 L 2745.32 329.825 L 2741.9 330.885 L 2741.44 329.705 L 2745.78 327.765 L 2747.2 328.005 L 2747.2 340.405 L 2749.98 340.405 L 2749.98 342.005 L 2742.22 342.005 L 2742.22 340.405 " fill="#000000"/>
<path class="note" d="M 2756.88 333.165 Q 2758.12 333.165, 2759.1 333.705 Q 2760.08 334.245, 2760.62 335.225 Q 2761.16 336.205, 2761.16 337.445 Q 2761.16 338.825, 2760.54 339.905 Q 2759.94 340.965, 2758.86 341.565 Q 2757.78 342.165, 2756.4 342.165 Q 2753.88 342.165, 2752.6 340.465 Q 2751.34 338.745, 2751.34 335.345 Q 2751.34 331.585, 2752.9 329.645 Q 2754.48 327.685, 2757.5 327.685 Q 2758.38 327.685, 2759.12 327.885 Q 2759.88 328.085, 2760.6 328.505 L 2759.82 329.845 Q 2758.78 329.285, 2757.52 329.285 Q 2755.52 329.285, 2754.5 330.585 Q 2753.48 331.865, 2753.36 334.525 Q 2754.08 333.865, 2754.98 333.525 Q 2755.9 333.165, 2756.88 333.165 M 2756.42 340.525 Q 2757.18 340.525, 2757.8 340.125 Q 2758.44 339.725, 2758.8 339.025 Q 2759.16 338.325, 2759.16 337.465 Q 2759.16 336.205, 2758.46 335.485 Q 2757.76 334.765, 2756.52 334.765 Q 2755.66 334.765, 2754.8 335.125 Q 2753.96 335.465, 2753.36 336.065 Q 2753.44 338.405, 2754.18 339.465 Q 2754.92 340.525, 2756.42 340.525 " fill="#000000"/>
<path class="note" d="M 2729.32 444.737 L 2732.42 444.737 L 2732.42 434.157 L 2729 435.217 L 2728.54 434.037 L 2732.88 432.097 L 2734.3 432.337 L 2734.3 444.737 L 2737.08 444.737 L 2737.08 446.337 L 2729.32 446.337 L 2729.32 444.737 " fill="#000000"/>
<path class="note" d="M 2744.86 433.777 L 2737.44 433.777 L 2737.44 432.177 L 2746.84 432.177 L 2746.84 433.597 L 2741.12 446.337 L 2739.2 446.337 L 2744.86 433.777 " fill="#000000"/>
<path class="note" d="M 3628.15 179.711 L 3631.25 179.711 L 3631.25 169.131 L 3627.83 170.191 L 3627.37 169.011 L 3631.71 167.071 L 3633.13 167.311 L 3633.13 179.711 L 3635.91 179.711 L 3635.91 181.311 L 3628.15 181.311 L 3628.15 179.711 " fill="#000000"/>
<path class="note" d="M 3644.37 173.811 Q 3645.67 174.371, 3646.41 175.211 Q 3647.15 176.031, 3647.15 177.431 Q 3647.15 178.631, 3646.53 179.571 Q 3645.91 180.491, 3644.79 181.011 Q 3643.69 181.511, 3642.23 181.511 Q 3639.87 181.511, 3638.51 180.431 Q 3637.15 179.331, 3637.15 177.431 Q 3637.15 176.271, 3637.75 175.411 Q 3638.35 174.531, 3639.59 173.871 Q 3638.67 173.351, 3638.17 172.591 Q 3637.67 171.811, 3637.67 170.611 Q 3637.67 168.951, 3638.87 167.971 Q 3640.09 166.991, 3642.15 166.991 Q 3644.21 166.991, 3645.41 167.971 Q 3646.63 168.951, 3646.63 170.611 Q 3646.63 171.651, 3646.05 172.431 Q 3645.49 173.191, 3644.37 173.811 M 3642.15 168.491 Q 3640.97 168.491, 3640.31 169.051 Q 3639.67 169.611, 3639.67 170.611 Q 3639.67 171.351, 3640.11 171.851 Q 3640.55 172.331, 3641.17 172.611 Q 3641.81 172.891, 3643.03 173.311 Q 3643.89 172.711, 3644.25 172.071 Q 3644.63 171.431, 3644.63 170.611 Q 3644.63 169.611, 3643.97 169.051 Q 3643.33 168.491, 3642.15 168.491 M 3642.23 180.011 Q 3643.55 180.011, 3644.35 179.311 Q 3645.15 178.591, 3645.15 177.411 Q 3645.15 176.651, 3644.73 176.171 Q 3644.31 175.691, 3643.67 175.411 Q 3643.05 175.131, 3641.93 174.771 L 3641.03 174.471 Q 3640.03 175.071, 3639.59 175.791 Q 3639.15 176.491, 3639.15 177.411 Q 3639.15 178.591, 3639.99 179.311 Q 3640.83 180.011, 3642.23 180.011 " fill="#000000"/>
<path d="M 961.474 247.696 L 967.522 247.696 L 967.522 241.328 L 970.21 241.328 L 970.21 247.696 L 976.418 247.696 L 976.418 250 L 970.21 250 L 970.21 256.4 L 967.522 256.4 L 967.522 250 L 961.474 250 L 961.474 247.696 " fill="#000000"/>
<path d="M 3405.62 247.696 L 3411.67 247.696 L 3411.67 241.328 L 3414.36 241.328 L 3414.36 247.696 L 3420.56 247.696 L 3420.56 250 L 3414.36 250 L 3414.36 256.4 L 3411.67 256.4 L 3411.67 250 L 3405.62 250 L 3405.62 247.696 " fill="#000000"/>
<path d="M 1817.29,250 L 2154.11,250" style="fill:none;fill-rule:evenodd;stroke:#000000;stroke-width:2.0px;stroke-linecap:butt;stroke-linejoin:miter;stroke-opacity:1"/>
<path d="M 2154.11,250 L 2139.52,241.58" style="fill:none;fill-rule:evenodd;stroke:#000000;stroke-width:2.0px;stroke-linecap:butt;stroke-linejoin:miter;stroke-opacity:1"/>
<path d="M 2154.11,250 L 2139.52,258.42" style="fill:none;fill-rule:evenodd;stroke:#000000;stroke-width:2.0px;stroke-linecap:butt;stroke-linejoin:miter;stroke-opacity:1"/>
</svg>