<svg xmlns="http://www.w3.org/2000/svg" xmlns:rdkit="http://www.rdkit.org/xml" xmlns:xlink="http://www.w3.org/1999/xlink" version="1.1" baseProfile="full" xml:space="preserve" width="4000px" height="500px" viewBox="0 0 4000 500">
<!-- END OF HEADER -->
<rect style="opacity:1.0;fill:#FFFFFF;stroke:none" width="4000" height="500" x="0" y="0"> </rect>
<path d="M 686.859,201.03 L 765.607,246.496" style="fill:none;fill-rule:evenodd;stroke:#FFFFAA;stroke-width:19.4px;stroke-linecap:butt;stroke-linejoin:miter;stroke-opacity:1"/>
<path d="M 765.607,246.496 L 765.607,337.426" style="fill:none;fill-rule:evenodd;stroke:#FFFFAA;stroke-width:19.4px;stroke-linecap:butt;stroke-linejoin:miter;stroke-opacity:1"/>
<path d="M 765.607,246.496 L 844.355,201.03" style="fill:none;fill-rule:evenodd;stroke:#FFFFAA;stroke-width:19.4px;stroke-linecap:butt;stroke-linejoin:miter;stroke-opacity:1"/>
<path d="M 844.355,201.03 L 923.103,246.496" style="fill:none;fill-rule:evenodd;stroke:#FFFFAA;stroke-width:19.4px;stroke-linecap:butt;stroke-linejoin:miter;stroke-opacity:1"/>
<path d="M 923.103,246.496 L 1001.85,201.03" style="fill:none;fill-rule:evenodd;stroke:#FFFFAA;stroke-width:19.4px;stroke-linecap:butt;stroke-linejoin:miter;stroke-opacity:1"/>
<path d="M 923.103,246.496 L 923.103,337.426" style="fill:none;fill-rule:evenodd;stroke:#FFFFAA;stroke-width:19.4px;stroke-linecap:butt;stroke-linejoin:miter;stroke-opacity:1"/>
<path d="M 1401.63,424.714 L 1400.19,333.795" style="fill:none;fill-rule:evenodd;stroke:#FFCC99;stroke-width:19.4px;stroke-linecap:butt;stroke-linejoin:miter;stroke-opacity:1"/>
<path d="M 1400.19,333.795 L 1320.72,289.59" style="fill:none;fill-rule:evenodd;stroke:#FFCC99;stroke-width:19.4px;stroke-linecap:butt;stroke-linejoin:miter;stroke-opacity:1"/>
<path d="M 1400.19,333.795 L 1478.2,287.081" style="fill:none;fill-rule:evenodd;stroke:#FFCC99;stroke-width:19.4px;stroke-linecap:butt;stroke-linejoin:miter;stroke-opacity:1"/>
<path d="M 1320.72,289.59 L 1319.27,198.671" style="fill:none;fill-rule:evenodd;stroke:#FFCC99;stroke-width:19.4px;stroke-linecap:butt;stroke-linejoin:miter;stroke-opacity:1"/>
<path d="M 1319.27,198.671 L 1239.81,154.466" style="fill:none;fill-rule:evenodd;stroke:#FFCC99;stroke-width:19.4px;stroke-linecap:butt;stroke-linejoin:miter;stroke-opacity:1"/>
<path d="M 1319.27,198.671 L 1397.29,151.957" style="fill:none;fill-rule:evenodd;stroke:#FFCC99;stroke-width:19.4px;stroke-linecap:butt;stroke-linejoin:miter;stroke-opacity:1"/>
<path d="M 1397.29,151.957 L 1476.75,196.162" style="fill:none;fill-rule:evenodd;stroke:#FFCC99;stroke-width:19.4px;stroke-linecap:butt;stroke-linejoin:miter;stroke-opacity:1"/>
<path d="M 1476.75,196.162 L 1478.2,287.081" style="fill:none;fill-rule:evenodd;stroke:#FFCC99;stroke-width:19.4px;stroke-linecap:butt;stroke-linejoin:miter;stroke-opacity:1"/>
<path d="M 1478.2,287.081 L 1557.66,331.285" style="fill:none;fill-rule:evenodd;stroke:#FFCC99;stroke-width:19.4px;stroke-linecap:butt;stroke-linejoin:miter;stroke-opacity:1"/>
<path d="M 1557.66,331.285 L 1635.68,284.571" style="fill:none;fill-rule:evenodd;stroke:#FFCC99;stroke-width:19.4px;stroke-linecap:butt;stroke-linejoin:miter;stroke-opacity:1"/>
<path d="M 1635.68,284.571 L 1715.14,328.776" style="fill:none;fill-rule:evenodd;stroke:#FFCC99;stroke-width:19.4px;stroke-linecap:butt;stroke-linejoin:miter;stroke-opacity:1"/>
<path d="M 1635.68,284.571 L 1634.23,193.652" style="fill:none;fill-rule:evenodd;stroke:#FFCC99;stroke-width:19.4px;stroke-linecap:butt;stroke-linejoin:miter;stroke-opacity:1"/>
<path d="M 1715.14,328.776 L 1793.15,282.062" style="fill:none;fill-rule:evenodd;stroke:#FFCC99;stroke-width:19.4px;stroke-linecap:butt;stroke-linejoin:miter;stroke-opacity:1"/>
<path d="M 1793.15,282.062 L 1791.7,191.143" style="fill:none;fill-rule:evenodd;stroke:#FFCC99;stroke-width:19.4px;stroke-linecap:butt;stroke-linejoin:miter;stroke-opacity:1"/>
<path d="M 1791.7,191.143 L 1712.24,146.938" style="fill:none;fill-rule:evenodd;stroke:#FFCC99;stroke-width:19.4px;stroke-linecap:butt;stroke-linejoin:miter;stroke-opacity:1"/>
<path d="M 1712.24,146.938 L 1634.23,193.652" style="fill:none;fill-rule:evenodd;stroke:#FFCC99;stroke-width:19.4px;stroke-linecap:butt;stroke-linejoin:miter;stroke-opacity:1"/>
<path d="M 2313.58,298.456 L 2392.33,252.991" style="fill:none;fill-rule:evenodd;stroke:#FFFFAA;stroke-width:19.4px;stroke-linecap:butt;stroke-linejoin:miter;stroke-opacity:1"/>
<path d="M 2392.33,252.991 L 2471.07,298.456" style="fill:none;fill-rule:evenodd;stroke:#FFFFAA;stroke-width:19.4px;stroke-linecap:butt;stroke-linejoin:miter;stroke-opacity:1"/>
<path d="M 2392.33,252.991 L 2392.33,162.06" style="fill:none;fill-rule:evenodd;stroke:#FFFFAA;stroke-width:19.4px;stroke-linecap:butt;stroke-linejoin:miter;stroke-opacity:1"/>
<path d="M 2742.4,459.087 L 2769.47,372.28" style="fill:none;fill-rule:evenodd;stroke:#FFFFAA;stroke-width:19.4px;stroke-linecap:butt;stroke-linejoin:miter;stroke-opacity:1"/>
<path d="M 2769.47,372.28 L 2707.83,305.43" style="fill:none;fill-rule:evenodd;stroke:#FFFFAA;stroke-width:19.4px;stroke-linecap:butt;stroke-linejoin:miter;stroke-opacity:1"/>
<path d="M 2858.19,352.325 L 2885.26,265.519" style="fill:none;fill-rule:evenodd;stroke:#FFCC99;stroke-width:19.4px;stroke-linecap:butt;stroke-linejoin:miter;stroke-opacity:1"/>
<path d="M 2885.26,265.519 L 2823.62,198.668" style="fill:none;fill-rule:evenodd;stroke:#FFCC99;stroke-width:19.4px;stroke-linecap:butt;stroke-linejoin:miter;stroke-opacity:1"/>
<path d="M 2885.26,265.519 L 2973.98,245.563" style="fill:none;fill-rule:evenodd;stroke:#FFCC99;stroke-width:19.4px;stroke-linecap:butt;stroke-linejoin:miter;stroke-opacity:1"/>
<path d="M 2823.62,198.668 L 2850.7,111.862" style="fill:none;fill-rule:evenodd;stroke:#FFCC99;stroke-width:19.4px;stroke-linecap:butt;stroke-linejoin:miter;stroke-opacity:1"/>
<path d="M 2850.7,111.862 L 2789.06,45.0108" style="fill:none;fill-rule:evenodd;stroke:#FFCC99;stroke-width:19.4px;stroke-linecap:butt;stroke-linejoin:miter;stroke-opacity:1"/>
<path d="M 2850.7,111.862 L 2939.41,91.906" style="fill:none;fill-rule:evenodd;stroke:#FFCC99;stroke-width:19.4px;stroke-linecap:butt;stroke-linejoin:miter;stroke-opacity:1"/>
<path d="M 2939.41,91.906 L 3001.05,158.757" style="fill:none;fill-rule:evenodd;stroke:#FFCC99;stroke-width:19.4px;stroke-linecap:butt;stroke-linejoin:miter;stroke-opacity:1"/>
<path d="M 3001.05,158.757 L 2973.98,245.563" style="fill:none;fill-rule:evenodd;stroke:#FFCC99;stroke-width:19.4px;stroke-linecap:butt;stroke-linejoin:miter;stroke-opacity:1"/>
<path d="M 2973.98,245.563 L 3035.61,312.414" style="fill:none;fill-rule:evenodd;stroke:#FFCC99;stroke-width:19.4px;stroke-linecap:butt;stroke-linejoin:miter;stroke-opacity:1"/>
<path d="M 3035.61,312.414 L 3124.33,292.458" style="fill:none;fill-rule:evenodd;stroke:#FFCC99;stroke-width:19.4px;stroke-linecap:butt;stroke-linejoin:miter;stroke-opacity:1"/>
<path d="M 3124.33,292.458 L 3185.97,359.309" style="fill:none;fill-rule:evenodd;stroke:#FFCC99;stroke-width:19.4px;stroke-linecap:butt;stroke-linejoin:miter;stroke-opacity:1"/>
<path d="M 3124.33,292.458 L 3151.4,205.652" style="fill:none;fill-rule:evenodd;stroke:#FFCC99;stroke-width:19.4px;stroke-linecap:butt;stroke-linejoin:miter;stroke-opacity:1"/>
<path d="M 3185.97,359.309 L 3274.68,339.353" style="fill:none;fill-rule:evenodd;stroke:#FFCC99;stroke-width:19.4px;stroke-linecap:butt;stroke-linejoin:miter;stroke-opacity:1"/>
<path d="M 3274.68,339.353 L 3301.76,252.547" style="fill:none;fill-rule:evenodd;stroke:#FFCC99;stroke-width:19.4px;stroke-linecap:butt;stroke-linejoin:miter;stroke-opacity:1"/>
<path d="M 3301.76,252.547 L 3240.12,185.696" style="fill:none;fill-rule:evenodd;stroke:#FFCC99;stroke-width:19.4px;stroke-linecap:butt;stroke-linejoin:miter;stroke-opacity:1"/>
<path d="M 3240.12,185.696 L 3151.4,205.652" style="fill:none;fill-rule:evenodd;stroke:#FFCC99;stroke-width:19.4px;stroke-linecap:butt;stroke-linejoin:miter;stroke-opacity:1"/>
<ellipse cx="686.859" cy="201.03" rx="18.1861" ry="18.1861" style="fill:#FFFFAA;fill-rule:evenodd;stroke:#FFFFAA;stroke-width:1px;stroke-linecap:butt;stroke-linejoin:miter;stroke-opacity:1"/>
<ellipse cx="765.607" cy="246.496" rx="18.1861" ry="18.1861" style="fill:#FFFFAA;fill-rule:evenodd;stroke:#FFFFAA;stroke-width:1px;stroke-linecap:butt;stroke-linejoin:miter;stroke-opacity:1"/>
<ellipse cx="765.607" cy="337.626" rx="18.1861" ry="18.6978" style="fill:#FFFFAA;fill-rule:evenodd;stroke:#FFFFAA;stroke-width:1px;stroke-linecap:butt;stroke-linejoin:miter;stroke-opacity:1"/>
<ellipse cx="844.355" cy="201.23" rx="18.1861" ry="18.6978" style="fill:#FFFFAA;fill-rule:evenodd;stroke:#FFFFAA;stroke-width:1px;stroke-linecap:butt;stroke-linejoin:miter;stroke-opacity:1"/>
<ellipse cx="923.103" cy="246.496" rx="18.1861" ry="18.1861" style="fill:#FFFFAA;fill-rule:evenodd;stroke:#FFFFAA;stroke-width:1px;stroke-linecap:butt;stroke-linejoin:miter;stroke-opacity:1"/>
<ellipse cx="1001.85" cy="201.03" rx="18.1861" ry="18.1861" style="fill:#FFFFAA;fill-rule:evenodd;stroke:#FFFFAA;stroke-width:1px;stroke-linecap:butt;stroke-linejoin:miter;stroke-opacity:1"/>
<ellipse cx="923.103" cy="337.626" rx="18.1861" ry="18.6978" style="fill:#FFFFAA;fill-rule:evenodd;stroke:#FFFFAA;stroke-width:1px;stroke-linecap:butt;stroke-linejoin:miter;stroke-opacity:1"/>
<ellipse cx="1419.58" cy="431.152" rx="39.1912" ry="27.3136" style="fill:#FFCC99;fill-rule:evenodd;stroke:#FFCC99;stroke-width:1px;stroke-linecap:butt;stroke-linejoin:miter;stroke-opacity:1"/>
<ellipse cx="1400.19" cy="333.795" rx="18.1861" ry="18.1861" style="fill:#FFCC99;fill-rule:evenodd;stroke:#FFCC99;stroke-width:1px;stroke-linecap:butt;stroke-linejoin:miter;stroke-opacity:1"/>
<ellipse cx="1320.72" cy="289.59" rx="18.1861" ry="18.1861" style="fill:#FFCC99;fill-rule:evenodd;stroke:#FFCC99;stroke-width:1px;stroke-linecap:butt;stroke-linejoin:miter;stroke-opacity:1"/>
<ellipse cx="1319.27" cy="198.671" rx="18.1861" ry="18.1861" style="fill:#FFCC99;fill-rule:evenodd;stroke:#FFCC99;stroke-width:1px;stroke-linecap:butt;stroke-linejoin:miter;stroke-opacity:1"/>
<ellipse cx="1228.32" cy="154.63" rx="18.6206" ry="19.7522" style="fill:#FFCC99;fill-rule:evenodd;stroke:#FFCC99;stroke-width:1px;stroke-linecap:butt;stroke-linejoin:miter;stroke-opacity:1"/>
<ellipse cx="1397.29" cy="151.957" rx="18.1861" ry="18.1861" style="fill:#FFCC99;fill-rule:evenodd;stroke:#FFCC99;stroke-width:1px;stroke-linecap:butt;stroke-linejoin:miter;stroke-opacity:1"/>
<ellipse cx="1476.75" cy="196.162" rx="18.1861" ry="18.1861" style="fill:#FFCC99;fill-rule:evenodd;stroke:#FFCC99;stroke-width:1px;stroke-linecap:butt;stroke-linejoin:miter;stroke-opacity:1"/>
<ellipse cx="1478.2" cy="287.081" rx="18.1861" ry="18.1861" style="fill:#FFCC99;fill-rule:evenodd;stroke:#FFCC99;stroke-width:1px;stroke-linecap:butt;stroke-linejoin:miter;stroke-opacity:1"/>
<ellipse cx="1557.66" cy="331.486" rx="18.1861" ry="18.6978" style="fill:#FFCC99;fill-rule:evenodd;stroke:#FFCC99;stroke-width:1px;stroke-linecap:butt;stroke-linejoin:miter;stroke-opacity:1"/>
<ellipse cx="1635.68" cy="284.571" rx="18.1861" ry="18.1861" style="fill:#FFCC99;fill-rule:evenodd;stroke:#FFCC99;stroke-width:1px;stroke-linecap:butt;stroke-linejoin:miter;stroke-opacity:1"/>
<ellipse cx="1715.14" cy="328.776" rx="18.1861" ry="18.1861" style="fill:#FFCC99;fill-rule:evenodd;stroke:#FFCC99;stroke-width:1px;stroke-linecap:butt;stroke-linejoin:miter;stroke-opacity:1"/>
<ellipse cx="1793.15" cy="282.062" rx="18.1861" ry="18.1861" style="fill:#FFCC99;fill-rule:evenodd;stroke:#FFCC99;stroke-width:1px;stroke-linecap:butt;stroke-linejoin:miter;stroke-opacity:1"/>
<ellipse cx="1791.7" cy="191.143" rx="18.1861" ry="18.1861" style="fill:#FFCC99;fill-rule:evenodd;stroke:#FFCC99;stroke-width:1px;stroke-linecap:butt;stroke-linejoin:miter;stroke-opacity:1"/>
<ellipse cx="1712.24" cy="146.938" rx="18.1861" ry="18.1861" style="fill:#FFCC99;fill-rule:evenodd;stroke:#FFCC99;stroke-width:1px;stroke-linecap:butt;stroke-linejoin:miter;stroke-opacity:1"/>
<ellipse cx="1634.23" cy="193.652" rx="18.1861" ry="18.1861" style="fill:#FFCC99;fill-rule:evenodd;stroke:#FFCC99;stroke-width:1px;stroke-linecap:butt;stroke-linejoin:miter;stroke-opacity:1"/>
<ellipse cx="2313.58" cy="298.456" rx="18.1861" ry="18.1861" style="fill:#FFFFAA;fill-rule:evenodd;stroke:#FFFFAA;stroke-width:1px;stroke-linecap:butt;stroke-linejoin:miter;stroke-opacity:1"/>
<ellipse cx="2392.33" cy="252.991" rx="18.1861" ry="18.1861" style="fill:#FFFFAA;fill-rule:evenodd;stroke:#FFFFAA;stroke-width:1px;stroke-linecap:butt;stroke-linejoin:miter;stroke-opacity:1"/>
<ellipse cx="2471.07" cy="298.656" rx="18.1861" ry="18.6978" style="fill:#FFFFAA;fill-rule:evenodd;stroke:#FFFFAA;stroke-width:1px;stroke-linecap:butt;stroke-linejoin:miter;stroke-opacity:1"/>
<ellipse cx="2403.95" cy="162.26" rx="33.1519" ry="18.6978" style="fill:#FFFFAA;fill-rule:evenodd;stroke:#FFFFAA;stroke-width:1px;stroke-linecap:butt;stroke-linejoin:miter;stroke-opacity:1"/>
<ellipse cx="2742.4" cy="459.087" rx="18.1861" ry="18.1861" style="fill:#FFFFAA;fill-rule:evenodd;stroke:#FFFFAA;stroke-width:1px;stroke-linecap:butt;stroke-linejoin:miter;stroke-opacity:1"/>
<ellipse cx="2769.47" cy="372.28" rx="18.1861" ry="18.1861" style="fill:#FFFFAA;fill-rule:evenodd;stroke:#FFFFAA;stroke-width:1px;stroke-linecap:butt;stroke-linejoin:miter;stroke-opacity:1"/>
<ellipse cx="2707.83" cy="305.63" rx="18.1861" ry="18.6978" style="fill:#FFFFAA;fill-rule:evenodd;stroke:#FFFFAA;stroke-width:1px;stroke-linecap:butt;stroke-linejoin:miter;stroke-opacity:1"/>
<ellipse cx="2869.81" cy="352.325" rx="30.2456" ry="18.2091" style="fill:#FFCC99;fill-rule:evenodd;stroke:#FFCC99;stroke-width:1px;stroke-linecap:butt;stroke-linejoin:miter;stroke-opacity:1"/>
<ellipse cx="2885.26" cy="265.519" rx="18.1861" ry="18.1861" style="fill:#FFCC99;fill-rule:evenodd;stroke:#FFCC99;stroke-width:1px;stroke-linecap:butt;stroke-linejoin:miter;stroke-opacity:1"/>
<ellipse cx="2823.62" cy="198.668" rx="18.1861" ry="18.1861" style="fill:#FFCC99;fill-rule:evenodd;stroke:#FFCC99;stroke-width:1px;stroke-linecap:butt;stroke-linejoin:miter;stroke-opacity:1"/>
<ellipse cx="2850.7" cy="111.862" rx="18.1861" ry="18.1861" style="fill:#FFCC99;fill-rule:evenodd;stroke:#FFCC99;stroke-width:1px;stroke-linecap:butt;stroke-linejoin:miter;stroke-opacity:1"/>
<ellipse cx="2777.56" cy="45.1745" rx="18.6206" ry="19.7522" style="fill:#FFCC99;fill-rule:evenodd;stroke:#FFCC99;stroke-width:1px;stroke-linecap:butt;stroke-linejoin:miter;stroke-opacity:1"/>
<ellipse cx="2939.41" cy="91.906" rx="18.1861" ry="18.1861" style="fill:#FFCC99;fill-rule:evenodd;stroke:#FFCC99;stroke-width:1px;stroke-linecap:butt;stroke-linejoin:miter;stroke-opacity:1"/>
<ellipse cx="3001.05" cy="158.757" rx="18.1861" ry="18.1861" style="fill:#FFCC99;fill-rule:evenodd;stroke:#FFCC99;stroke-width:1px;stroke-linecap:butt;stroke-linejoin:miter;stroke-opacity:1"/>
<ellipse cx="2973.98" cy="245.563" rx="18.1861" ry="18.1861" style="fill:#FFCC99;fill-rule:evenodd;stroke:#FFCC99;stroke-width:1px;stroke-linecap:butt;stroke-linejoin:miter;stroke-opacity:1"/>
<ellipse cx="3035.61" cy="312.614" rx="18.1861" ry="18.6978" style="fill:#FFCC99;fill-rule:evenodd;stroke:#FFCC99;stroke-width:1px;stroke-linecap:butt;stroke-linejoin:miter;stroke-opacity:1"/>
<ellipse cx="3124.33" cy="292.458" rx="18.1861" ry="18.1861" style="fill:#FFCC99;fill-rule:evenodd;stroke:#FFCC99;stroke-width:1px;stroke-linecap:butt;stroke-linejoin:miter;stroke-opacity:1"/>
<ellipse cx="3185.97" cy="359.309" rx="18.1861" ry="18.1861" style="fill:#FFCC99;fill-rule:evenodd;stroke:#FFCC99;stroke-width:1px;stroke-linecap:butt;stroke-linejoin:miter;stroke-opacity:1"/>
<ellipse cx="3274.68" cy="339.353" rx="18.1861" ry="18.1861" style="fill:#FFCC99;fill-rule:evenodd;stroke:#FFCC99;stroke-width:1px;stroke-linecap:butt;stroke-linejoin:miter;stroke-opacity:1"/>
<ellipse cx="3301.76" cy="252.547" rx="18.1861" ry="18.1861" style="fill:#FFCC99;fill-rule:evenodd;stroke:#FFCC99;stroke-width:1px;stroke-linecap:butt;stroke-linejoin:miter;stroke-opacity:1"/>
<ellipse cx="3240.12" cy="185.696" rx="18.1861" ry="18.1861" style="fill:#FFCC99;fill-rule:evenodd;stroke:#FFCC99;stroke-width:1px;stroke-linecap:butt;stroke-linejoin:miter;stroke-opacity:1"/>
<ellipse cx="3151.4" cy="205.652" rx="18.1861" ry="18.1861" style="fill:#FFCC99;fill-rule:evenodd;stroke:#FFCC99;stroke-width:1px;stroke-linecap:butt;stroke-linejoin:miter;stroke-opacity:1"/>
<path class="bond-0" d="M 686.859,201.03 L 765.607,246.496" style="fill:none;fill-rule:evenodd;stroke:#000000;stroke-width:2.0px;stroke-linecap:butt;stroke-linejoin:miter;stroke-opacity:1"/>
<path class="bond-1" d="M 756.514,246.496 L 756.514,284.314" style="fill:none;fill-rule:evenodd;stroke:#000000;stroke-width:2.0px;stroke-linecap:butt;stroke-linejoin:miter;stroke-opacity:1"/>
<path class="bond-1" d="M 756.514,284.314 L 756.514,322.132" style="fill:none;fill-rule:evenodd;stroke:#FF0000;stroke-width:2.0px;stroke-linecap:butt;stroke-linejoin:miter;stroke-opacity:1"/>
<path class="bond-1" d="M 774.7,246.496 L 774.7,284.314" style="fill:none;fill-rule:evenodd;stroke:#000000;stroke-width:2.0px;stroke-linecap:butt;stroke-linejoin:miter;stroke-opacity:1"/>
<path class="bond-1" d="M 774.7,284.314 L 774.7,322.132" style="fill:none;fill-rule:evenodd;stroke:#FF0000;stroke-width:2.0px;stroke-linecap:butt;stroke-linejoin:miter;stroke-opacity:1"/>
<path class="bond-2" d="M 765.607,246.496 L 797.934,227.832" style="fill:none;fill-rule:evenodd;stroke:#000000;stroke-width:2.0px;stroke-linecap:butt;stroke-linejoin:miter;stroke-opacity:1"/>
<path class="bond-2" d="M 797.934,227.832 L 830.261,209.168" style="fill:none;fill-rule:evenodd;stroke:#FF0000;stroke-width:2.0px;stroke-linecap:butt;stroke-linejoin:miter;stroke-opacity:1"/>
<path class="bond-3" d="M 858.449,209.168 L 890.776,227.832" style="fill:none;fill-rule:evenodd;stroke:#FF0000;stroke-width:2.0px;stroke-linecap:butt;stroke-linejoin:miter;stroke-opacity:1"/>
<path class="bond-3" d="M 890.776,227.832 L 923.103,246.496" style="fill:none;fill-rule:evenodd;stroke:#000000;stroke-width:2.0px;stroke-linecap:butt;stroke-linejoin:miter;stroke-opacity:1"/>
<path class="bond-4" d="M 923.103,246.496 L 1001.85,201.03" style="fill:none;fill-rule:evenodd;stroke:#000000;stroke-width:2.0px;stroke-linecap:butt;stroke-linejoin:miter;stroke-opacity:1"/>
<path class="bond-5" d="M 914.01,246.496 L 914.01,284.314" style="fill:none;fill-rule:evenodd;stroke:#000000;stroke-width:2.0px;stroke-linecap:butt;stroke-linejoin:miter;stroke-opacity:1"/>
<path class="bond-5" d="M 914.01,284.314 L 914.01,322.132" style="fill:none;fill-rule:evenodd;stroke:#FF0000;stroke-width:2.0px;stroke-linecap:butt;stroke-linejoin:miter;stroke-opacity:1"/>
<path class="bond-5" d="M 932.196,246.496 L 932.196,284.314" style="fill:none;fill-rule:evenodd;stroke:#000000;stroke-width:2.0px;stroke-linecap:butt;stroke-linejoin:miter;stroke-opacity:1"/>
<path class="bond-5" d="M 932.196,284.314 L 932.196,322.132" style="fill:none;fill-rule:evenodd;stroke:#FF0000;stroke-width:2.0px;stroke-linecap:butt;stroke-linejoin:miter;stroke-opacity:1"/>
<path class="bond-6" d="M 1401.39,409.565 L 1400.79,371.68" style="fill:none;fill-rule:evenodd;stroke:#0000FF;stroke-width:2.0px;stroke-linecap:butt;stroke-linejoin:miter;stroke-opacity:1"/>
<path class="bond-6" d="M 1400.79,371.68 L 1400.19,333.795" style="fill:none;fill-rule:evenodd;stroke:#000000;stroke-width:2.0px;stroke-linecap:butt;stroke-linejoin:miter;stroke-opacity:1"/>
<path class="bond-7" d="M 1400.19,333.795 L 1320.72,289.59" style="fill:none;fill-rule:evenodd;stroke:#000000;stroke-width:2.0px;stroke-linecap:butt;stroke-linejoin:miter;stroke-opacity:1"/>
<path class="bond-7" d="M 1397.11,311.272 L 1341.48,280.328" style="fill:none;fill-rule:evenodd;stroke:#000000;stroke-width:2.0px;stroke-linecap:butt;stroke-linejoin:miter;stroke-opacity:1;stroke-dasharray:6,6"/>
<path class="bond-20" d="M 1400.19,333.795 L 1478.2,287.081" style="fill:none;fill-rule:evenodd;stroke:#000000;stroke-width:2.0px;stroke-linecap:butt;stroke-linejoin:miter;stroke-opacity:1"/>
<path class="bond-20" d="M 1402.54,311.185 L 1457.15,278.485" style="fill:none;fill-rule:evenodd;stroke:#000000;stroke-width:2.0px;stroke-linecap:butt;stroke-linejoin:miter;stroke-opacity:1;stroke-dasharray:6,6"/>
<path class="bond-8" d="M 1320.72,289.59 L 1319.27,198.671" style="fill:none;fill-rule:evenodd;stroke:#000000;stroke-width:2.0px;stroke-linecap:butt;stroke-linejoin:miter;stroke-opacity:1"/>
<path class="bond-8" d="M 1338.69,275.662 L 1337.67,212.019" style="fill:none;fill-rule:evenodd;stroke:#000000;stroke-width:2.0px;stroke-linecap:butt;stroke-linejoin:miter;stroke-opacity:1;stroke-dasharray:6,6"/>
<path class="bond-9" d="M 1319.27,198.671 L 1281.52,177.666" style="fill:none;fill-rule:evenodd;stroke:#000000;stroke-width:2.0px;stroke-linecap:butt;stroke-linejoin:miter;stroke-opacity:1"/>
<path class="bond-9" d="M 1281.52,177.666 L 1243.76,156.661" style="fill:none;fill-rule:evenodd;stroke:#00CC00;stroke-width:2.0px;stroke-linecap:butt;stroke-linejoin:miter;stroke-opacity:1"/>
<path class="bond-10" d="M 1319.27,198.671 L 1397.29,151.957" style="fill:none;fill-rule:evenodd;stroke:#000000;stroke-width:2.0px;stroke-linecap:butt;stroke-linejoin:miter;stroke-opacity:1"/>
<path class="bond-10" d="M 1340.32,207.267 L 1394.93,174.567" style="fill:none;fill-rule:evenodd;stroke:#000000;stroke-width:2.0px;stroke-linecap:butt;stroke-linejoin:miter;stroke-opacity:1;stroke-dasharray:6,6"/>
<path class="bond-11" d="M 1397.29,151.957 L 1476.75,196.162" style="fill:none;fill-rule:evenodd;stroke:#000000;stroke-width:2.0px;stroke-linecap:butt;stroke-linejoin:miter;stroke-opacity:1"/>
<path class="bond-11" d="M 1400.37,174.48 L 1455.99,205.423" style="fill:none;fill-rule:evenodd;stroke:#000000;stroke-width:2.0px;stroke-linecap:butt;stroke-linejoin:miter;stroke-opacity:1;stroke-dasharray:6,6"/>
<path class="bond-12" d="M 1476.75,196.162 L 1478.2,287.081" style="fill:none;fill-rule:evenodd;stroke:#000000;stroke-width:2.0px;stroke-linecap:butt;stroke-linejoin:miter;stroke-opacity:1"/>
<path class="bond-12" d="M 1458.78,210.089 L 1459.8,273.733" style="fill:none;fill-rule:evenodd;stroke:#000000;stroke-width:2.0px;stroke-linecap:butt;stroke-linejoin:miter;stroke-opacity:1;stroke-dasharray:6,6"/>
<path class="bond-13" d="M 1478.2,287.081 L 1510.88,305.263" style="fill:none;fill-rule:evenodd;stroke:#000000;stroke-width:2.0px;stroke-linecap:butt;stroke-linejoin:miter;stroke-opacity:1"/>
<path class="bond-13" d="M 1510.88,305.263 L 1543.57,323.445" style="fill:none;fill-rule:evenodd;stroke:#FF0000;stroke-width:2.0px;stroke-linecap:butt;stroke-linejoin:miter;stroke-opacity:1"/>
<path class="bond-14" d="M 1571.76,322.846 L 1603.72,303.709" style="fill:none;fill-rule:evenodd;stroke:#FF0000;stroke-width:2.0px;stroke-linecap:butt;stroke-linejoin:miter;stroke-opacity:1"/>
<path class="bond-14" d="M 1603.72,303.709 L 1635.68,284.571" style="fill:none;fill-rule:evenodd;stroke:#000000;stroke-width:2.0px;stroke-linecap:butt;stroke-linejoin:miter;stroke-opacity:1"/>
<path class="bond-15" d="M 1635.68,284.571 L 1715.14,328.776" style="fill:none;fill-rule:evenodd;stroke:#000000;stroke-width:2.0px;stroke-linecap:butt;stroke-linejoin:miter;stroke-opacity:1"/>
<path class="bond-15" d="M 1656.44,275.309 L 1712.06,306.253" style="fill:none;fill-rule:evenodd;stroke:#000000;stroke-width:2.0px;stroke-linecap:butt;stroke-linejoin:miter;stroke-opacity:1;stroke-dasharray:6,6"/>
<path class="bond-21" d="M 1635.68,284.571 L 1634.23,193.652" style="fill:none;fill-rule:evenodd;stroke:#000000;stroke-width:2.0px;stroke-linecap:butt;stroke-linejoin:miter;stroke-opacity:1"/>
<path class="bond-21" d="M 1653.64,270.644 L 1652.63,207" style="fill:none;fill-rule:evenodd;stroke:#000000;stroke-width:2.0px;stroke-linecap:butt;stroke-linejoin:miter;stroke-opacity:1;stroke-dasharray:6,6"/>
<path class="bond-16" d="M 1715.14,328.776 L 1793.15,282.062" style="fill:none;fill-rule:evenodd;stroke:#000000;stroke-width:2.0px;stroke-linecap:butt;stroke-linejoin:miter;stroke-opacity:1"/>
<path class="bond-16" d="M 1717.5,306.166 L 1772.11,273.466" style="fill:none;fill-rule:evenodd;stroke:#000000;stroke-width:2.0px;stroke-linecap:butt;stroke-linejoin:miter;stroke-opacity:1;stroke-dasharray:6,6"/>
<path class="bond-17" d="M 1793.15,282.062 L 1791.7,191.143" style="fill:none;fill-rule:evenodd;stroke:#000000;stroke-width:2.0px;stroke-linecap:butt;stroke-linejoin:miter;stroke-opacity:1"/>
<path class="bond-17" d="M 1774.75,268.714 L 1773.74,205.07" style="fill:none;fill-rule:evenodd;stroke:#000000;stroke-width:2.0px;stroke-linecap:butt;stroke-linejoin:miter;stroke-opacity:1;stroke-dasharray:6,6"/>
<path class="bond-18" d="M 1791.7,191.143 L 1712.24,146.938" style="fill:none;fill-rule:evenodd;stroke:#000000;stroke-width:2.0px;stroke-linecap:butt;stroke-linejoin:miter;stroke-opacity:1"/>
<path class="bond-18" d="M 1770.94,200.405 L 1715.32,169.461" style="fill:none;fill-rule:evenodd;stroke:#000000;stroke-width:2.0px;stroke-linecap:butt;stroke-linejoin:miter;stroke-opacity:1;stroke-dasharray:6,6"/>
<path class="bond-19" d="M 1712.24,146.938 L 1634.23,193.652" style="fill:none;fill-rule:evenodd;stroke:#000000;stroke-width:2.0px;stroke-linecap:butt;stroke-linejoin:miter;stroke-opacity:1"/>
<path class="bond-19" d="M 1709.88,169.548 L 1655.27,202.248" style="fill:none;fill-rule:evenodd;stroke:#000000;stroke-width:2.0px;stroke-linecap:butt;stroke-linejoin:miter;stroke-opacity:1;stroke-dasharray:6,6"/>
<path class="bond-22" d="M 2313.58,298.456 L 2392.33,252.991" style="fill:none;fill-rule:evenodd;stroke:#000000;stroke-width:2.0px;stroke-linecap:butt;stroke-linejoin:miter;stroke-opacity:1"/>
<path class="bond-23" d="M 2387.78,260.866 L 2420.11,279.53" style="fill:none;fill-rule:evenodd;stroke:#000000;stroke-width:2.0px;stroke-linecap:butt;stroke-linejoin:miter;stroke-opacity:1"/>
<path class="bond-23" d="M 2420.11,279.53 L 2452.43,298.194" style="fill:none;fill-rule:evenodd;stroke:#FF0000;stroke-width:2.0px;stroke-linecap:butt;stroke-linejoin:miter;stroke-opacity:1"/>
<path class="bond-23" d="M 2396.87,245.116 L 2429.2,263.78" style="fill:none;fill-rule:evenodd;stroke:#000000;stroke-width:2.0px;stroke-linecap:butt;stroke-linejoin:miter;stroke-opacity:1"/>
<path class="bond-23" d="M 2429.2,263.78 L 2461.53,282.444" style="fill:none;fill-rule:evenodd;stroke:#FF0000;stroke-width:2.0px;stroke-linecap:butt;stroke-linejoin:miter;stroke-opacity:1"/>
<path class="bond-24" d="M 2392.33,252.991 L 2392.33,215.373" style="fill:none;fill-rule:evenodd;stroke:#000000;stroke-width:2.0px;stroke-linecap:butt;stroke-linejoin:miter;stroke-opacity:1"/>
<path class="bond-24" d="M 2392.33,215.373 L 2392.33,177.755" style="fill:none;fill-rule:evenodd;stroke:#FF0000;stroke-width:2.0px;stroke-linecap:butt;stroke-linejoin:miter;stroke-opacity:1"/>
<path class="bond-25" d="M 2742.4,459.087 L 2769.47,372.28" style="fill:none;fill-rule:evenodd;stroke:#000000;stroke-width:2.0px;stroke-linecap:butt;stroke-linejoin:miter;stroke-opacity:1"/>
<path class="bond-26" d="M 2776.16,366.116 L 2752.39,340.334" style="fill:none;fill-rule:evenodd;stroke:#000000;stroke-width:2.0px;stroke-linecap:butt;stroke-linejoin:miter;stroke-opacity:1"/>
<path class="bond-26" d="M 2752.39,340.334 L 2728.61,314.552" style="fill:none;fill-rule:evenodd;stroke:#FF0000;stroke-width:2.0px;stroke-linecap:butt;stroke-linejoin:miter;stroke-opacity:1"/>
<path class="bond-26" d="M 2762.79,378.444 L 2739.02,352.662" style="fill:none;fill-rule:evenodd;stroke:#000000;stroke-width:2.0px;stroke-linecap:butt;stroke-linejoin:miter;stroke-opacity:1"/>
<path class="bond-26" d="M 2739.02,352.662 L 2715.24,326.879" style="fill:none;fill-rule:evenodd;stroke:#FF0000;stroke-width:2.0px;stroke-linecap:butt;stroke-linejoin:miter;stroke-opacity:1"/>
<path class="bond-27" d="M 2769.47,372.28 L 2807.81,363.657" style="fill:none;fill-rule:evenodd;stroke:#000000;stroke-width:2.0px;stroke-linecap:butt;stroke-linejoin:miter;stroke-opacity:1"/>
<path class="bond-27" d="M 2807.81,363.657 L 2846.15,355.033" style="fill:none;fill-rule:evenodd;stroke:#0000FF;stroke-width:2.0px;stroke-linecap:butt;stroke-linejoin:miter;stroke-opacity:1"/>
<path class="bond-28" d="M 2862.91,337.176 L 2874.09,301.347" style="fill:none;fill-rule:evenodd;stroke:#0000FF;stroke-width:2.0px;stroke-linecap:butt;stroke-linejoin:miter;stroke-opacity:1"/>
<path class="bond-28" d="M 2874.09,301.347 L 2885.26,265.519" style="fill:none;fill-rule:evenodd;stroke:#000000;stroke-width:2.0px;stroke-linecap:butt;stroke-linejoin:miter;stroke-opacity:1"/>
<path class="bond-29" d="M 2885.26,265.519 L 2823.62,198.668" style="fill:none;fill-rule:evenodd;stroke:#000000;stroke-width:2.0px;stroke-linecap:butt;stroke-linejoin:miter;stroke-opacity:1"/>
<path class="bond-29" d="M 2889.39,243.163 L 2846.24,196.368" style="fill:none;fill-rule:evenodd;stroke:#000000;stroke-width:2.0px;stroke-linecap:butt;stroke-linejoin:miter;stroke-opacity:1;stroke-dasharray:6,6"/>
<path class="bond-42" d="M 2885.26,265.519 L 2973.98,245.563" style="fill:none;fill-rule:evenodd;stroke:#000000;stroke-width:2.0px;stroke-linecap:butt;stroke-linejoin:miter;stroke-opacity:1"/>
<path class="bond-42" d="M 2894.58,244.782 L 2956.68,230.814" style="fill:none;fill-rule:evenodd;stroke:#000000;stroke-width:2.0px;stroke-linecap:butt;stroke-linejoin:miter;stroke-opacity:1;stroke-dasharray:6,6"/>
<path class="bond-30" d="M 2823.62,198.668 L 2850.7,111.862" style="fill:none;fill-rule:evenodd;stroke:#000000;stroke-width:2.0px;stroke-linecap:butt;stroke-linejoin:miter;stroke-opacity:1"/>
<path class="bond-30" d="M 2845.05,191.062 L 2864,130.297" style="fill:none;fill-rule:evenodd;stroke:#000000;stroke-width:2.0px;stroke-linecap:butt;stroke-linejoin:miter;stroke-opacity:1;stroke-dasharray:6,6"/>
<path class="bond-31" d="M 2850.7,111.862 L 2821.85,80.5762" style="fill:none;fill-rule:evenodd;stroke:#000000;stroke-width:2.0px;stroke-linecap:butt;stroke-linejoin:miter;stroke-opacity:1"/>
<path class="bond-31" d="M 2821.85,80.5762 L 2793,49.2909" style="fill:none;fill-rule:evenodd;stroke:#00CC00;stroke-width:2.0px;stroke-linecap:butt;stroke-linejoin:miter;stroke-opacity:1"/>
<path class="bond-32" d="M 2850.7,111.862 L 2939.41,91.906" style="fill:none;fill-rule:evenodd;stroke:#000000;stroke-width:2.0px;stroke-linecap:butt;stroke-linejoin:miter;stroke-opacity:1"/>
<path class="bond-32" d="M 2868,126.611 L 2930.1,112.642" style="fill:none;fill-rule:evenodd;stroke:#000000;stroke-width:2.0px;stroke-linecap:butt;stroke-linejoin:miter;stroke-opacity:1;stroke-dasharray:6,6"/>
<path class="bond-33" d="M 2939.41,91.906 L 3001.05,158.757" style="fill:none;fill-rule:evenodd;stroke:#000000;stroke-width:2.0px;stroke-linecap:butt;stroke-linejoin:miter;stroke-opacity:1"/>
<path class="bond-33" d="M 2935.29,114.261 L 2978.43,161.057" style="fill:none;fill-rule:evenodd;stroke:#000000;stroke-width:2.0px;stroke-linecap:butt;stroke-linejoin:miter;stroke-opacity:1;stroke-dasharray:6,6"/>
<path class="bond-34" d="M 3001.05,158.757 L 2973.98,245.563" style="fill:none;fill-rule:evenodd;stroke:#000000;stroke-width:2.0px;stroke-linecap:butt;stroke-linejoin:miter;stroke-opacity:1"/>
<path class="bond-34" d="M 2979.63,166.363 L 2960.68,227.127" style="fill:none;fill-rule:evenodd;stroke:#000000;stroke-width:2.0px;stroke-linecap:butt;stroke-linejoin:miter;stroke-opacity:1;stroke-dasharray:6,6"/>
<path class="bond-35" d="M 2973.98,245.563 L 2997.75,271.345" style="fill:none;fill-rule:evenodd;stroke:#000000;stroke-width:2.0px;stroke-linecap:butt;stroke-linejoin:miter;stroke-opacity:1"/>
<path class="bond-35" d="M 2997.75,271.345 L 3021.52,297.128" style="fill:none;fill-rule:evenodd;stroke:#FF0000;stroke-width:2.0px;stroke-linecap:butt;stroke-linejoin:miter;stroke-opacity:1"/>
<path class="bond-36" d="M 3049.71,309.243 L 3087.02,300.851" style="fill:none;fill-rule:evenodd;stroke:#FF0000;stroke-width:2.0px;stroke-linecap:butt;stroke-linejoin:miter;stroke-opacity:1"/>
<path class="bond-36" d="M 3087.02,300.851 L 3124.33,292.458" style="fill:none;fill-rule:evenodd;stroke:#000000;stroke-width:2.0px;stroke-linecap:butt;stroke-linejoin:miter;stroke-opacity:1"/>
<path class="bond-37" d="M 3124.33,292.458 L 3185.97,359.309" style="fill:none;fill-rule:evenodd;stroke:#000000;stroke-width:2.0px;stroke-linecap:butt;stroke-linejoin:miter;stroke-opacity:1"/>
<path class="bond-37" d="M 3146.94,290.158 L 3190.09,336.953" style="fill:none;fill-rule:evenodd;stroke:#000000;stroke-width:2.0px;stroke-linecap:butt;stroke-linejoin:miter;stroke-opacity:1;stroke-dasharray:6,6"/>
<path class="bond-43" d="M 3124.33,292.458 L 3151.4,205.652" style="fill:none;fill-rule:evenodd;stroke:#000000;stroke-width:2.0px;stroke-linecap:butt;stroke-linejoin:miter;stroke-opacity:1"/>
<path class="bond-43" d="M 3145.75,284.852 L 3164.7,224.088" style="fill:none;fill-rule:evenodd;stroke:#000000;stroke-width:2.0px;stroke-linecap:butt;stroke-linejoin:miter;stroke-opacity:1;stroke-dasharray:6,6"/>
<path class="bond-38" d="M 3185.97,359.309 L 3274.68,339.353" style="fill:none;fill-rule:evenodd;stroke:#000000;stroke-width:2.0px;stroke-linecap:butt;stroke-linejoin:miter;stroke-opacity:1"/>
<path class="bond-38" d="M 3195.28,338.573 L 3257.38,324.604" style="fill:none;fill-rule:evenodd;stroke:#000000;stroke-width:2.0px;stroke-linecap:butt;stroke-linejoin:miter;stroke-opacity:1;stroke-dasharray:6,6"/>
<path class="bond-39" d="M 3274.68,339.353 L 3301.76,252.547" style="fill:none;fill-rule:evenodd;stroke:#000000;stroke-width:2.0px;stroke-linecap:butt;stroke-linejoin:miter;stroke-opacity:1"/>
<path class="bond-39" d="M 3261.38,320.917 L 3280.33,260.153" style="fill:none;fill-rule:evenodd;stroke:#000000;stroke-width:2.0px;stroke-linecap:butt;stroke-linejoin:miter;stroke-opacity:1;stroke-dasharray:6,6"/>
<path class="bond-40" d="M 3301.76,252.547 L 3240.12,185.696" style="fill:none;fill-rule:evenodd;stroke:#000000;stroke-width:2.0px;stroke-linecap:butt;stroke-linejoin:miter;stroke-opacity:1"/>
<path class="bond-40" d="M 3279.14,254.847 L 3235.99,208.052" style="fill:none;fill-rule:evenodd;stroke:#000000;stroke-width:2.0px;stroke-linecap:butt;stroke-linejoin:miter;stroke-opacity:1;stroke-dasharray:6,6"/>
<path class="bond-41" d="M 3240.12,185.696 L 3151.4,205.652" style="fill:none;fill-rule:evenodd;stroke:#000000;stroke-width:2.0px;stroke-linecap:butt;stroke-linejoin:miter;stroke-opacity:1"/>
<path class="bond-41" d="M 3230.8,206.432 L 3168.7,220.401" style="fill:none;fill-rule:evenodd;stroke:#000000;stroke-width:2.0px;stroke-linecap:butt;stroke-linejoin:miter;stroke-opacity:1;stroke-dasharray:6,6"/>
<path class="atom-2" d="M 753.786 337.499 Q 753.786 331.316, 756.841 327.86 Q 759.897 324.405, 765.607 324.405 Q 771.317 324.405, 774.373 327.86 Q 777.428 331.316, 777.428 337.499 Q 777.428 343.755, 774.336 347.32 Q 771.245 350.848, 765.607 350.848 Q 759.933 350.848, 756.841 347.32 Q 753.786 343.792, 753.786 337.499 M 765.607 347.938 Q 769.535 347.938, 771.645 345.319 Q 773.791 342.664, 773.791 337.499 Q 773.791 332.443, 771.645 329.897 Q 769.535 327.315, 765.607 327.315 Q 761.679 327.315, 759.533 329.861 Q 757.423 332.407, 757.423 337.499 Q 757.423 342.7, 759.533 345.319 Q 761.679 347.938, 765.607 347.938 " fill="#FF0000"/>
<path class="atom-3" d="M 832.534 201.103 Q 832.534 194.92, 835.589 191.465 Q 838.645 188.009, 844.355 188.009 Q 850.066 188.009, 853.121 191.465 Q 856.176 194.92, 856.176 201.103 Q 856.176 207.359, 853.085 210.924 Q 849.993 214.452, 844.355 214.452 Q 838.681 214.452, 835.589 210.924 Q 832.534 207.396, 832.534 201.103 M 844.355 211.542 Q 848.283 211.542, 850.393 208.923 Q 852.539 206.268, 852.539 201.103 Q 852.539 196.047, 850.393 193.501 Q 848.283 190.919, 844.355 190.919 Q 840.427 190.919, 838.281 193.465 Q 836.171 196.011, 836.171 201.103 Q 836.171 206.304, 838.281 208.923 Q 840.427 211.542, 844.355 211.542 " fill="#FF0000"/>
<path class="atom-6" d="M 911.282 337.499 Q 911.282 331.316, 914.338 327.86 Q 917.393 324.405, 923.103 324.405 Q 928.814 324.405, 931.869 327.86 Q 934.924 331.316, 934.924 337.499 Q 934.924 343.755, 931.833 347.32 Q 928.741 350.848, 923.103 350.848 Q 917.429 350.848, 914.338 347.32 Q 911.282 343.792, 911.282 337.499 M 923.103 347.938 Q 927.032 347.938, 929.141 345.319 Q 931.287 342.664, 931.287 337.499 Q 931.287 332.443, 929.141 329.897 Q 927.032 327.315, 923.103 327.315 Q 919.175 327.315, 917.029 329.861 Q 914.92 332.407, 914.92 337.499 Q 914.92 342.7, 917.029 345.319 Q 919.175 347.938, 923.103 347.938 " fill="#FF0000"/>
<path class="atom-7" d="M 1395.94 411.838 L 1404.38 425.478 Q 1405.22 426.824, 1406.56 429.26 Q 1407.91 431.697, 1407.98 431.843 L 1407.98 411.838 L 1411.4 411.838 L 1411.4 437.59 L 1407.87 437.59 L 1398.82 422.677 Q 1397.76 420.931, 1396.63 418.931 Q 1395.54 416.93, 1395.21 416.312 L 1395.21 437.59 L 1391.87 437.59 L 1391.87 411.838 L 1395.94 411.838 " fill="#0000FF"/>
<path class="atom-7" d="M 1414.49 411.838 L 1417.98 411.838 L 1417.98 422.786 L 1431.15 422.786 L 1431.15 411.838 L 1434.64 411.838 L 1434.64 437.59 L 1431.15 437.59 L 1431.15 425.696 L 1417.98 425.696 L 1417.98 437.59 L 1414.49 437.59 L 1414.49 411.838 " fill="#0000FF"/>
<path class="atom-7" d="M 1435.89 436.686 Q 1436.51 435.078, 1438 434.19 Q 1439.49 433.277, 1441.56 433.277 Q 1444.12 433.277, 1445.56 434.67 Q 1447 436.062, 1447 438.535 Q 1447 441.055, 1445.13 443.408 Q 1443.28 445.76, 1439.44 448.545 L 1447.29 448.545 L 1447.29 450.466 L 1435.84 450.466 L 1435.84 448.857 Q 1439.01 446.601, 1440.88 444.92 Q 1442.78 443.24, 1443.69 441.727 Q 1444.6 440.215, 1444.6 438.655 Q 1444.6 437.022, 1443.79 436.11 Q 1442.97 435.198, 1441.56 435.198 Q 1440.19 435.198, 1439.27 435.75 Q 1438.36 436.302, 1437.71 437.526 L 1435.89 436.686 " fill="#0000FF"/>
<path class="atom-11" d="M 1215.15 155.357 Q 1215.15 148.956, 1218.13 145.609 Q 1221.15 142.227, 1226.86 142.227 Q 1232.17 142.227, 1235.01 145.973 L 1232.61 147.937 Q 1230.54 145.209, 1226.86 145.209 Q 1222.97 145.209, 1220.9 147.828 Q 1218.86 150.411, 1218.86 155.357 Q 1218.86 160.449, 1220.97 163.068 Q 1223.12 165.687, 1227.26 165.687 Q 1230.1 165.687, 1233.41 163.977 L 1234.43 166.705 Q 1233.08 167.578, 1231.05 168.088 Q 1229.01 168.597, 1226.75 168.597 Q 1221.15 168.597, 1218.13 165.178 Q 1215.15 161.759, 1215.15 155.357 " fill="#00CC00"/>
<path class="atom-11" d="M 1238.14 140.663 L 1241.48 140.663 L 1241.48 168.269 L 1238.14 168.269 L 1238.14 140.663 " fill="#00CC00"/>
<path class="atom-15" d="M 1545.84 331.358 Q 1545.84 325.175, 1548.9 321.72 Q 1551.95 318.264, 1557.66 318.264 Q 1563.37 318.264, 1566.43 321.72 Q 1569.48 325.175, 1569.48 331.358 Q 1569.48 337.614, 1566.39 341.179 Q 1563.3 344.707, 1557.66 344.707 Q 1551.99 344.707, 1548.9 341.179 Q 1545.84 337.651, 1545.84 331.358 M 1557.66 341.797 Q 1561.59 341.797, 1563.7 339.178 Q 1565.85 336.523, 1565.85 331.358 Q 1565.85 326.302, 1563.7 323.756 Q 1561.59 321.174, 1557.66 321.174 Q 1553.73 321.174, 1551.59 323.72 Q 1549.48 326.266, 1549.48 331.358 Q 1549.48 336.559, 1551.59 339.178 Q 1553.73 341.797, 1557.66 341.797 " fill="#FF0000"/>
<path class="atom-24" d="M 2459.25 298.529 Q 2459.25 292.346, 2462.31 288.89 Q 2465.36 285.435, 2471.07 285.435 Q 2476.79 285.435, 2479.84 288.89 Q 2482.9 292.346, 2482.9 298.529 Q 2482.9 304.785, 2479.8 308.349 Q 2476.71 311.877, 2471.07 311.877 Q 2465.4 311.877, 2462.31 308.349 Q 2459.25 304.821, 2459.25 298.529 M 2471.07 308.968 Q 2475 308.968, 2477.11 306.349 Q 2479.26 303.694, 2479.26 298.529 Q 2479.26 293.473, 2477.11 290.927 Q 2475 288.345, 2471.07 288.345 Q 2467.15 288.345, 2465 290.891 Q 2462.89 293.437, 2462.89 298.529 Q 2462.89 303.73, 2465 306.349 Q 2467.15 308.968, 2471.07 308.968 " fill="#FF0000"/>
<path class="atom-25" d="M 2380.51 162.133 Q 2380.51 155.95, 2383.56 152.494 Q 2386.62 149.039, 2392.33 149.039 Q 2398.04 149.039, 2401.09 152.494 Q 2404.15 155.95, 2404.15 162.133 Q 2404.15 168.389, 2401.06 171.953 Q 2397.96 175.482, 2392.33 175.482 Q 2386.65 175.482, 2383.56 171.953 Q 2380.51 168.425, 2380.51 162.133 M 2392.33 172.572 Q 2396.25 172.572, 2398.36 169.953 Q 2400.51 167.298, 2400.51 162.133 Q 2400.51 157.077, 2398.36 154.531 Q 2396.25 151.949, 2392.33 151.949 Q 2388.4 151.949, 2386.25 154.495 Q 2384.14 157.041, 2384.14 162.133 Q 2384.14 167.334, 2386.25 169.953 Q 2388.4 172.572, 2392.33 172.572 " fill="#FF0000"/>
<path class="atom-25" d="M 2407.24 149.33 L 2410.73 149.33 L 2410.73 160.278 L 2423.9 160.278 L 2423.9 149.33 L 2427.39 149.33 L 2427.39 175.081 L 2423.9 175.081 L 2423.9 163.188 L 2410.73 163.188 L 2410.73 175.081 L 2407.24 175.081 L 2407.24 149.33 " fill="#FF0000"/>
<path class="atom-28" d="M 2696.01 305.502 Q 2696.01 299.319, 2699.07 295.864 Q 2702.12 292.408, 2707.83 292.408 Q 2713.54 292.408, 2716.6 295.864 Q 2719.65 299.319, 2719.65 305.502 Q 2719.65 311.758, 2716.56 315.323 Q 2713.47 318.851, 2707.83 318.851 Q 2702.16 318.851, 2699.07 315.323 Q 2696.01 311.795, 2696.01 305.502 M 2707.83 315.941 Q 2711.76 315.941, 2713.87 313.322 Q 2716.02 310.667, 2716.02 305.502 Q 2716.02 300.447, 2713.87 297.901 Q 2711.76 295.318, 2707.83 295.318 Q 2703.91 295.318, 2701.76 297.864 Q 2699.65 300.41, 2699.65 305.502 Q 2699.65 310.704, 2701.76 313.322 Q 2703.91 315.941, 2707.83 315.941 " fill="#FF0000"/>
<path class="atom-29" d="M 2852.49 339.449 L 2860.93 353.089 Q 2861.77 354.434, 2863.12 356.871 Q 2864.46 359.308, 2864.53 359.454 L 2864.53 339.449 L 2867.95 339.449 L 2867.95 365.201 L 2864.42 365.201 L 2855.37 350.288 Q 2854.31 348.542, 2853.19 346.542 Q 2852.09 344.541, 2851.77 343.923 L 2851.77 365.201 L 2848.42 365.201 L 2848.42 339.449 L 2852.49 339.449 " fill="#0000FF"/>
<path class="atom-29" d="M 2871.04 339.449 L 2874.54 339.449 L 2874.54 350.397 L 2887.7 350.397 L 2887.7 339.449 L 2891.19 339.449 L 2891.19 365.201 L 2887.7 365.201 L 2887.7 353.307 L 2874.54 353.307 L 2874.54 365.201 L 2871.04 365.201 L 2871.04 339.449 " fill="#0000FF"/>
<path class="atom-33" d="M 2764.4 45.902 Q 2764.4 39.5004, 2767.38 36.1542 Q 2770.4 32.7716, 2776.11 32.7716 Q 2781.42 32.7716, 2784.26 36.5179 L 2781.86 38.482 Q 2779.78 35.7541, 2776.11 35.7541 Q 2772.22 35.7541, 2770.14 38.3729 Q 2768.11 40.9553, 2768.11 45.902 Q 2768.11 50.9941, 2770.22 53.6129 Q 2772.36 56.2317, 2776.51 56.2317 Q 2779.35 56.2317, 2782.66 54.5222 L 2783.68 57.2501 Q 2782.33 58.123, 2780.29 58.6322 Q 2778.26 59.1415, 2776 59.1415 Q 2770.4 59.1415, 2767.38 55.7225 Q 2764.4 52.3035, 2764.4 45.902 " fill="#00CC00"/>
<path class="atom-33" d="M 2787.39 31.2076 L 2790.73 31.2076 L 2790.73 58.8141 L 2787.39 58.8141 L 2787.39 31.2076 " fill="#00CC00"/>
<path class="atom-37" d="M 3023.79 312.486 Q 3023.79 306.303, 3026.85 302.848 Q 3029.9 299.392, 3035.61 299.392 Q 3041.32 299.392, 3044.38 302.848 Q 3047.44 306.303, 3047.44 312.486 Q 3047.44 318.742, 3044.34 322.307 Q 3041.25 325.835, 3035.61 325.835 Q 3029.94 325.835, 3026.85 322.307 Q 3023.79 318.779, 3023.79 312.486 M 3035.61 322.925 Q 3039.54 322.925, 3041.65 320.306 Q 3043.8 317.651, 3043.8 312.486 Q 3043.8 307.431, 3041.65 304.885 Q 3039.54 302.302, 3035.61 302.302 Q 3031.69 302.302, 3029.54 304.848 Q 3027.43 307.394, 3027.43 312.486 Q 3027.43 317.688, 3029.54 320.306 Q 3031.69 322.925, 3035.61 322.925 " fill="#FF0000"/>
<path class="note" d="M 676.108 219.175 L 678.927 219.175 L 678.927 209.554 L 675.817 210.518 L 675.398 209.445 L 679.345 207.681 L 680.636 207.899 L 680.636 219.175 L 683.164 219.175 L 683.164 220.629 L 676.108 220.629 L 676.108 219.175 " fill="#000000"/>
<path class="note" d="M 761.306 227.412 Q 761.779 226.194, 762.906 225.521 Q 764.034 224.83, 765.598 224.83 Q 767.544 224.83, 768.635 225.885 Q 769.726 226.94, 769.726 228.813 Q 769.726 230.722, 768.308 232.505 Q 766.907 234.287, 763.997 236.396 L 769.944 236.396 L 769.944 237.851 L 761.27 237.851 L 761.27 236.633 Q 763.67 234.923, 765.089 233.65 Q 766.525 232.377, 767.216 231.232 Q 767.908 230.086, 767.908 228.904 Q 767.908 227.667, 767.289 226.976 Q 766.671 226.285, 765.598 226.285 Q 764.561 226.285, 763.87 226.703 Q 763.179 227.121, 762.688 228.049 L 761.306 227.412 " fill="#000000"/>
<path class="note" d="M 767.462 367.464 Q 768.717 367.828, 769.317 368.646 Q 769.935 369.446, 769.935 370.719 Q 769.935 371.81, 769.39 372.665 Q 768.844 373.502, 767.844 373.974 Q 766.844 374.429, 765.534 374.429 Q 764.152 374.429, 763.115 373.956 Q 762.097 373.465, 761.279 372.483 L 762.315 371.428 Q 763.115 372.301, 763.788 372.647 Q 764.461 372.974, 765.534 372.974 Q 766.698 372.974, 767.407 372.356 Q 768.117 371.719, 768.117 370.701 Q 768.117 369.392, 767.371 368.81 Q 766.644 368.209, 765.061 368.209 L 764.134 368.209 L 764.134 366.9 L 764.952 366.9 Q 766.353 366.882, 767.098 366.282 Q 767.844 365.663, 767.844 364.518 Q 767.844 363.681, 767.226 363.19 Q 766.607 362.681, 765.552 362.681 Q 764.479 362.681, 763.807 363.063 Q 763.152 363.445, 762.643 364.409 L 761.388 363.736 Q 761.842 362.663, 762.934 361.953 Q 764.025 361.226, 765.552 361.226 Q 767.444 361.226, 768.553 362.117 Q 769.662 363.008, 769.662 364.518 Q 769.662 365.554, 769.099 366.3 Q 768.535 367.046, 767.462 367.464 " fill="#000000"/>
<path class="note" d="M 830.925 166.792 Q 831.398 165.574, 832.525 164.901 Q 833.653 164.21, 835.217 164.21 Q 837.163 164.21, 838.254 165.264 Q 839.345 166.319, 839.345 168.192 Q 839.345 170.102, 837.926 171.884 Q 836.526 173.666, 833.616 175.776 L 839.563 175.776 L 839.563 177.231 L 830.888 177.231 L 830.888 176.012 Q 833.289 174.303, 834.707 173.03 Q 836.144 171.757, 836.835 170.611 Q 837.526 169.465, 837.526 168.283 Q 837.526 167.047, 836.908 166.356 Q 836.29 165.664, 835.217 165.664 Q 834.18 165.664, 833.489 166.083 Q 832.798 166.501, 832.307 167.429 L 830.925 166.792 " fill="#000000"/>
<path class="note" d="M 840.509 166.792 Q 840.982 165.574, 842.109 164.901 Q 843.237 164.21, 844.801 164.21 Q 846.747 164.21, 847.838 165.264 Q 848.929 166.319, 848.929 168.192 Q 848.929 170.102, 847.51 171.884 Q 846.11 173.666, 843.2 175.776 L 849.147 175.776 L 849.147 177.231 L 840.472 177.231 L 840.472 176.012 Q 842.873 174.303, 844.292 173.03 Q 845.728 171.757, 846.419 170.611 Q 847.11 169.465, 847.11 168.283 Q 847.11 167.047, 846.492 166.356 Q 845.874 165.664, 844.801 165.664 Q 843.764 165.664, 843.073 166.083 Q 842.382 166.501, 841.891 167.429 L 840.509 166.792 " fill="#000000"/>
<path class="note" d="M 909.2 212.257 Q 909.673 211.039, 910.801 210.366 Q 911.928 209.675, 913.492 209.675 Q 915.438 209.675, 916.529 210.73 Q 917.62 211.785, 917.62 213.658 Q 917.62 215.567, 916.202 217.349 Q 914.801 219.132, 911.892 221.241 L 917.839 221.241 L 917.839 222.696 L 909.164 222.696 L 909.164 221.478 Q 911.564 219.768, 912.983 218.495 Q 914.42 217.222, 915.111 216.076 Q 915.802 214.931, 915.802 213.749 Q 915.802 212.512, 915.183 211.821 Q 914.565 211.13, 913.492 211.13 Q 912.455 211.13, 911.764 211.548 Q 911.073 211.966, 910.582 212.894 L 909.2 212.257 " fill="#000000"/>
<path class="note" d="M 923.658 222.842 Q 921.294 222.842, 920.112 221.096 Q 918.948 219.35, 918.948 216.24 Q 918.948 213.13, 920.112 211.403 Q 921.276 209.675, 923.658 209.675 Q 926.04 209.675, 927.204 211.403 Q 928.368 213.13, 928.368 216.24 Q 928.368 219.35, 927.186 221.096 Q 926.022 222.842, 923.658 222.842 M 923.658 221.387 Q 925.058 221.387, 925.804 220.096 Q 926.55 218.786, 926.55 216.24 Q 926.55 213.712, 925.804 212.421 Q 925.058 211.13, 923.658 211.13 Q 922.276 211.13, 921.512 212.421 Q 920.767 213.712, 920.767 216.24 Q 920.767 218.786, 921.512 220.096 Q 922.276 221.387, 923.658 221.387 " fill="#000000"/>
<path class="note" d="M 982.253 192.961 L 985.072 192.961 L 985.072 183.341 L 981.962 184.305 L 981.544 183.232 L 985.49 181.468 L 986.781 181.686 L 986.781 192.961 L 989.309 192.961 L 989.309 194.416 L 982.253 194.416 L 982.253 192.961 " fill="#000000"/>
<path class="note" d="M 994.638 181.395 Q 996.929 181.395, 998.075 182.959 Q 999.239 184.505, 999.239 187.597 Q 999.239 191.016, 997.802 192.798 Q 996.384 194.562, 993.638 194.562 Q 992.837 194.562, 992.146 194.38 Q 991.473 194.198, 990.819 193.816 L 991.528 192.598 Q 992.474 193.107, 993.619 193.107 Q 995.438 193.107, 996.366 191.943 Q 997.293 190.761, 997.402 188.342 Q 996.747 188.942, 995.911 189.27 Q 995.092 189.579, 994.201 189.579 Q 993.074 189.579, 992.183 189.088 Q 991.292 188.597, 990.801 187.706 Q 990.31 186.815, 990.31 185.687 Q 990.31 184.432, 990.855 183.468 Q 991.419 182.486, 992.401 181.941 Q 993.383 181.395, 994.638 181.395 M 992.128 185.669 Q 992.128 186.815, 992.765 187.469 Q 993.401 188.124, 994.529 188.124 Q 995.311 188.124, 996.075 187.815 Q 996.857 187.487, 997.402 186.942 Q 997.329 184.814, 996.656 183.85 Q 995.984 182.886, 994.62 182.886 Q 993.929 182.886, 993.347 183.25 Q 992.783 183.614, 992.455 184.25 Q 992.128 184.887, 992.128 185.669 " fill="#000000"/>
<path class="note" d="M 910.091 363.808 Q 910.564 362.59, 911.692 361.917 Q 912.819 361.226, 914.383 361.226 Q 916.329 361.226, 917.42 362.281 Q 918.511 363.336, 918.511 365.209 Q 918.511 367.118, 917.093 368.901 Q 915.693 370.683, 912.783 372.792 L 918.73 372.792 L 918.73 374.247 L 910.055 374.247 L 910.055 373.029 Q 912.455 371.319, 913.874 370.046 Q 915.311 368.773, 916.002 367.627 Q 916.693 366.482, 916.693 365.3 Q 916.693 364.063, 916.074 363.372 Q 915.456 362.681, 914.383 362.681 Q 913.347 362.681, 912.656 363.099 Q 911.964 363.517, 911.473 364.445 L 910.091 363.808 " fill="#000000"/>
<path class="note" d="M 920.421 372.792 L 923.24 372.792 L 923.24 363.172 L 920.13 364.136 L 919.712 363.063 L 923.658 361.299 L 924.949 361.517 L 924.949 372.792 L 927.477 372.792 L 927.477 374.247 L 920.421 374.247 L 920.421 372.792 " fill="#000000"/>
<path class="note" d="M 1405.53 457.039 L 1407.07 457.039 L 1407.07 458.494 L 1405.53 458.494 L 1405.53 461.458 L 1403.82 461.458 L 1403.82 458.494 L 1397.16 458.494 L 1397.16 457.348 L 1402.8 448.582 L 1405.53 448.582 L 1405.53 457.039 M 1399.27 457.039 L 1403.82 457.039 L 1403.82 449.746 L 1399.27 457.039 " fill="#000000"/>
<path class="note" d="M 1387.5 339.962 Q 1388.63 339.962, 1389.56 340.453 Q 1390.48 340.926, 1391.01 341.835 Q 1391.54 342.726, 1391.54 343.945 Q 1391.54 345.272, 1390.88 346.236 Q 1390.25 347.182, 1389.19 347.673 Q 1388.14 348.164, 1386.94 348.164 Q 1385.76 348.164, 1384.66 347.727 Q 1383.57 347.291, 1382.83 346.454 L 1383.92 345.327 Q 1384.52 345.982, 1385.34 346.345 Q 1386.16 346.691, 1386.99 346.691 Q 1388.14 346.691, 1388.92 345.982 Q 1389.72 345.272, 1389.72 343.981 Q 1389.72 342.617, 1388.92 341.981 Q 1388.14 341.326, 1386.88 341.326 Q 1385.76 341.326, 1384.5 341.817 L 1383.5 341.344 L 1384.12 335.143 L 1390.74 335.143 L 1390.56 336.598 L 1385.61 336.598 L 1385.23 340.417 Q 1386.37 339.962, 1387.5 339.962 " fill="#000000"/>
<path class="note" d="M 1308.29 295.848 Q 1309.42 295.848, 1310.31 296.339 Q 1311.2 296.83, 1311.69 297.721 Q 1312.18 298.612, 1312.18 299.74 Q 1312.18 300.995, 1311.62 301.977 Q 1311.08 302.941, 1310.09 303.486 Q 1309.11 304.032, 1307.86 304.032 Q 1305.57 304.032, 1304.4 302.486 Q 1303.26 300.922, 1303.26 297.83 Q 1303.26 294.411, 1304.67 292.647 Q 1306.11 290.865, 1308.86 290.865 Q 1309.66 290.865, 1310.33 291.047 Q 1311.02 291.229, 1311.68 291.611 L 1310.97 292.829 Q 1310.02 292.32, 1308.88 292.32 Q 1307.06 292.32, 1306.13 293.502 Q 1305.2 294.666, 1305.09 297.085 Q 1305.75 296.485, 1306.57 296.175 Q 1307.4 295.848, 1308.29 295.848 M 1307.87 302.541 Q 1308.57 302.541, 1309.13 302.177 Q 1309.71 301.813, 1310.04 301.177 Q 1310.37 300.54, 1310.37 299.758 Q 1310.37 298.612, 1309.73 297.958 Q 1309.09 297.303, 1307.97 297.303 Q 1307.18 297.303, 1306.4 297.63 Q 1305.64 297.94, 1305.09 298.485 Q 1305.17 300.613, 1305.84 301.577 Q 1306.51 302.541, 1307.87 302.541 " fill="#000000"/>
<path class="note" d="M 1308.74 201.474 L 1302 201.474 L 1302 200.019 L 1310.55 200.019 L 1310.55 201.31 L 1305.34 212.895 L 1303.6 212.895 L 1308.74 201.474 " fill="#000000"/>
<path class="note" d="M 1211.52 154.64 Q 1212.71 155.149, 1213.38 155.913 Q 1214.05 156.659, 1214.05 157.932 Q 1214.05 159.023, 1213.49 159.877 Q 1212.92 160.714, 1211.91 161.187 Q 1210.91 161.642, 1209.58 161.642 Q 1207.43 161.642, 1206.19 160.659 Q 1204.96 159.659, 1204.96 157.932 Q 1204.96 156.877, 1205.5 156.095 Q 1206.05 155.295, 1207.18 154.694 Q 1206.34 154.222, 1205.89 153.531 Q 1205.43 152.821, 1205.43 151.73 Q 1205.43 150.221, 1206.52 149.33 Q 1207.63 148.438, 1209.5 148.438 Q 1211.38 148.438, 1212.47 149.33 Q 1213.58 150.221, 1213.58 151.73 Q 1213.58 152.676, 1213.05 153.385 Q 1212.54 154.076, 1211.52 154.64 M 1209.5 149.802 Q 1208.43 149.802, 1207.83 150.312 Q 1207.25 150.821, 1207.25 151.73 Q 1207.25 152.403, 1207.65 152.858 Q 1208.05 153.294, 1208.61 153.549 Q 1209.2 153.803, 1210.3 154.185 Q 1211.09 153.64, 1211.41 153.058 Q 1211.76 152.476, 1211.76 151.73 Q 1211.76 150.821, 1211.16 150.312 Q 1210.58 149.802, 1209.5 149.802 M 1209.58 160.278 Q 1210.78 160.278, 1211.51 159.641 Q 1212.23 158.986, 1212.23 157.913 Q 1212.23 157.222, 1211.85 156.786 Q 1211.47 156.349, 1210.89 156.095 Q 1210.32 155.84, 1209.3 155.513 L 1208.49 155.24 Q 1207.58 155.786, 1207.18 156.44 Q 1206.78 157.077, 1206.78 157.913 Q 1206.78 158.986, 1207.54 159.641 Q 1208.3 160.278, 1209.58 160.278 " fill="#000000"/>
<path class="note" d="M 1396.91 130.293 Q 1399.2 130.293, 1400.35 131.857 Q 1401.51 133.403, 1401.51 136.494 Q 1401.51 139.913, 1400.07 141.696 Q 1398.66 143.46, 1395.91 143.46 Q 1395.11 143.46, 1394.42 143.278 Q 1393.75 143.096, 1393.09 142.714 L 1393.8 141.496 Q 1394.75 142.005, 1395.89 142.005 Q 1397.71 142.005, 1398.64 140.841 Q 1399.56 139.659, 1399.67 137.24 Q 1399.02 137.84, 1398.18 138.167 Q 1397.36 138.477, 1396.47 138.477 Q 1395.35 138.477, 1394.45 137.986 Q 1393.56 137.495, 1393.07 136.603 Q 1392.58 135.712, 1392.58 134.585 Q 1392.58 133.33, 1393.13 132.366 Q 1393.69 131.384, 1394.67 130.838 Q 1395.65 130.293, 1396.91 130.293 M 1394.4 134.567 Q 1394.4 135.712, 1395.04 136.367 Q 1395.67 137.022, 1396.8 137.022 Q 1397.58 137.022, 1398.35 136.713 Q 1399.13 136.385, 1399.67 135.84 Q 1399.6 133.712, 1398.93 132.748 Q 1398.26 131.784, 1396.89 131.784 Q 1396.2 131.784, 1395.62 132.148 Q 1395.05 132.512, 1394.73 133.148 Q 1394.4 133.785, 1394.4 134.567 " fill="#000000"/>
<path class="note" d="M 1490.43 185.646 L 1493.25 185.646 L 1493.25 176.025 L 1490.14 176.989 L 1489.72 175.916 L 1493.67 174.152 L 1494.96 174.37 L 1494.96 185.646 L 1497.49 185.646 L 1497.49 187.101 L 1490.43 187.101 L 1490.43 185.646 " fill="#000000"/>
<path class="note" d="M 1503.31 187.246 Q 1500.95 187.246, 1499.76 185.5 Q 1498.6 183.755, 1498.6 180.645 Q 1498.6 177.535, 1499.76 175.807 Q 1500.93 174.079, 1503.31 174.079 Q 1505.69 174.079, 1506.86 175.807 Q 1508.02 177.535, 1508.02 180.645 Q 1508.02 183.755, 1506.84 185.5 Q 1505.67 187.246, 1503.31 187.246 M 1503.31 185.791 Q 1504.71 185.791, 1505.46 184.5 Q 1506.2 183.191, 1506.2 180.645 Q 1506.2 178.117, 1505.46 176.826 Q 1504.71 175.534, 1503.31 175.534 Q 1501.93 175.534, 1501.16 176.826 Q 1500.42 178.117, 1500.42 180.645 Q 1500.42 183.191, 1501.16 184.5 Q 1501.93 185.791, 1503.31 185.791 " fill="#000000"/>
<path class="note" d="M 1492.77 276.529 L 1495.59 276.529 L 1495.59 266.908 L 1492.48 267.872 L 1492.06 266.799 L 1496.01 265.035 L 1497.3 265.253 L 1497.3 276.529 L 1499.83 276.529 L 1499.83 277.983 L 1492.77 277.983 L 1492.77 276.529 " fill="#000000"/>
<path class="note" d="M 1501.52 276.529 L 1504.34 276.529 L 1504.34 266.908 L 1501.23 267.872 L 1500.81 266.799 L 1504.76 265.035 L 1506.05 265.253 L 1506.05 276.529 L 1508.58 276.529 L 1508.58 277.983 L 1501.52 277.983 L 1501.52 276.529 " fill="#000000"/>
<path class="note" d="M 1546.3 366.648 L 1549.12 366.648 L 1549.12 357.027 L 1546.01 357.991 L 1545.59 356.918 L 1549.53 355.154 L 1550.82 355.372 L 1550.82 366.648 L 1553.35 366.648 L 1553.35 368.102 L 1546.3 368.102 L 1546.3 366.648 " fill="#000000"/>
<path class="note" d="M 1554.3 357.664 Q 1554.77 356.445, 1555.9 355.772 Q 1557.03 355.081, 1558.59 355.081 Q 1560.54 355.081, 1561.63 356.136 Q 1562.72 357.191, 1562.72 359.064 Q 1562.72 360.974, 1561.3 362.756 Q 1559.9 364.538, 1556.99 366.648 L 1562.94 366.648 L 1562.94 368.102 L 1554.26 368.102 L 1554.26 366.884 Q 1556.66 365.174, 1558.08 363.901 Q 1559.52 362.628, 1560.21 361.483 Q 1560.9 360.337, 1560.9 359.155 Q 1560.9 357.918, 1560.28 357.227 Q 1559.66 356.536, 1558.59 356.536 Q 1557.55 356.536, 1556.86 356.954 Q 1556.17 357.373, 1555.68 358.3 L 1554.3 357.664 " fill="#000000"/>
<path class="note" d="M 1616.12 276.625 L 1618.94 276.625 L 1618.94 267.004 L 1615.83 267.968 L 1615.41 266.895 L 1619.36 265.131 L 1620.65 265.349 L 1620.65 276.625 L 1623.18 276.625 L 1623.18 278.08 L 1616.12 278.08 L 1616.12 276.625 " fill="#000000"/>
<path class="note" d="M 1630.13 271.296 Q 1631.38 271.66, 1631.98 272.478 Q 1632.6 273.278, 1632.6 274.551 Q 1632.6 275.643, 1632.05 276.497 Q 1631.51 277.334, 1630.51 277.807 Q 1629.51 278.261, 1628.2 278.261 Q 1626.82 278.261, 1625.78 277.789 Q 1624.76 277.298, 1623.94 276.316 L 1624.98 275.261 Q 1625.78 276.134, 1626.45 276.479 Q 1627.13 276.807, 1628.2 276.807 Q 1629.36 276.807, 1630.07 276.188 Q 1630.78 275.552, 1630.78 274.533 Q 1630.78 273.224, 1630.04 272.642 Q 1629.31 272.042, 1627.73 272.042 L 1626.8 272.042 L 1626.8 270.732 L 1627.62 270.732 Q 1629.02 270.714, 1629.76 270.114 Q 1630.51 269.496, 1630.51 268.35 Q 1630.51 267.513, 1629.89 267.022 Q 1629.27 266.513, 1628.22 266.513 Q 1627.14 266.513, 1626.47 266.895 Q 1625.82 267.277, 1625.31 268.241 L 1624.05 267.568 Q 1624.51 266.495, 1625.6 265.786 Q 1626.69 265.058, 1628.22 265.058 Q 1630.11 265.058, 1631.22 265.949 Q 1632.33 266.841, 1632.33 268.35 Q 1632.33 269.387, 1631.76 270.132 Q 1631.2 270.878, 1630.13 271.296 " fill="#000000"/>
<path class="note" d="M 1703.09 348.949 L 1705.91 348.949 L 1705.91 339.328 L 1702.8 340.292 L 1702.39 339.219 L 1706.33 337.455 L 1707.62 337.673 L 1707.62 348.949 L 1710.15 348.949 L 1710.15 350.404 L 1703.09 350.404 L 1703.09 348.949 " fill="#000000"/>
<path class="note" d="M 1719.06 345.984 L 1720.61 345.984 L 1720.61 347.439 L 1719.06 347.439 L 1719.06 350.404 L 1717.35 350.404 L 1717.35 347.439 L 1710.7 347.439 L 1710.7 346.293 L 1716.33 337.528 L 1719.06 337.528 L 1719.06 345.984 M 1712.81 345.984 L 1717.35 345.984 L 1717.35 338.692 L 1712.81 345.984 " fill="#000000"/>
<path class="note" d="M 1796.48 286.84 L 1799.29 286.84 L 1799.29 277.219 L 1796.18 278.183 L 1795.77 277.11 L 1799.71 275.346 L 1801 275.564 L 1801 286.84 L 1803.53 286.84 L 1803.53 288.295 L 1796.48 288.295 L 1796.48 286.84 " fill="#000000"/>
<path class="note" d="M 1809.04 280.238 Q 1810.17 280.238, 1811.1 280.729 Q 1812.02 281.202, 1812.55 282.111 Q 1813.08 283.002, 1813.08 284.221 Q 1813.08 285.549, 1812.42 286.512 Q 1811.79 287.458, 1810.73 287.949 Q 1809.68 288.44, 1808.48 288.44 Q 1807.3 288.44, 1806.2 288.004 Q 1805.11 287.567, 1804.37 286.731 L 1805.46 285.603 Q 1806.06 286.258, 1806.88 286.621 Q 1807.7 286.967, 1808.53 286.967 Q 1809.68 286.967, 1810.46 286.258 Q 1811.26 285.549, 1811.26 284.257 Q 1811.26 282.893, 1810.46 282.257 Q 1809.68 281.602, 1808.42 281.602 Q 1807.3 281.602, 1806.04 282.093 L 1805.04 281.62 L 1805.66 275.419 L 1812.28 275.419 L 1812.1 276.874 L 1807.15 276.874 L 1806.77 280.693 Q 1807.91 280.238, 1809.04 280.238 " fill="#000000"/>
<path class="note" d="M 1805.57 180.627 L 1808.39 180.627 L 1808.39 171.007 L 1805.28 171.97 L 1804.86 170.897 L 1808.81 169.133 L 1810.1 169.352 L 1810.1 180.627 L 1812.62 180.627 L 1812.62 182.082 L 1805.57 182.082 L 1805.57 180.627 " fill="#000000"/>
<path class="note" d="M 1818.9 174.044 Q 1820.03 174.044, 1820.92 174.535 Q 1821.81 175.026, 1822.3 175.917 Q 1822.79 176.808, 1822.79 177.936 Q 1822.79 179.19, 1822.23 180.172 Q 1821.68 181.136, 1820.7 181.682 Q 1819.72 182.227, 1818.46 182.227 Q 1816.17 182.227, 1815.01 180.682 Q 1813.86 179.118, 1813.86 176.026 Q 1813.86 172.607, 1815.28 170.843 Q 1816.72 169.061, 1819.46 169.061 Q 1820.26 169.061, 1820.94 169.243 Q 1821.63 169.424, 1822.28 169.806 L 1821.57 171.025 Q 1820.63 170.516, 1819.48 170.516 Q 1817.66 170.516, 1816.73 171.698 Q 1815.81 172.862, 1815.7 175.28 Q 1816.35 174.68, 1817.17 174.371 Q 1818.01 174.044, 1818.9 174.044 M 1818.48 180.736 Q 1819.17 180.736, 1819.74 180.372 Q 1820.32 180.009, 1820.64 179.372 Q 1820.97 178.736, 1820.97 177.954 Q 1820.97 176.808, 1820.34 176.153 Q 1819.7 175.499, 1818.57 175.499 Q 1817.79 175.499, 1817.01 175.826 Q 1816.24 176.135, 1815.7 176.681 Q 1815.77 178.808, 1816.44 179.772 Q 1817.12 180.736, 1818.48 180.736 " fill="#000000"/>
<path class="note" d="M 1700.51 136.804 L 1703.32 136.804 L 1703.32 127.184 L 1700.21 128.147 L 1699.8 127.075 L 1703.74 125.31 L 1705.03 125.529 L 1705.03 136.804 L 1707.56 136.804 L 1707.56 138.259 L 1700.51 138.259 L 1700.51 136.804 " fill="#000000"/>
<path class="note" d="M 1714.64 126.838 L 1707.89 126.838 L 1707.89 125.383 L 1716.44 125.383 L 1716.44 126.674 L 1711.24 138.259 L 1709.49 138.259 L 1714.64 126.838 " fill="#000000"/>
<path class="note" d="M 1608.82 191.34 L 1611.64 191.34 L 1611.64 181.72 L 1608.53 182.684 L 1608.11 181.611 L 1612.05 179.847 L 1613.34 180.065 L 1613.34 191.34 L 1615.87 191.34 L 1615.87 192.795 L 1608.82 192.795 L 1608.82 191.34 " fill="#000000"/>
<path class="note" d="M 1623.57 185.976 Q 1624.75 186.485, 1625.42 187.249 Q 1626.09 187.994, 1626.09 189.267 Q 1626.09 190.358, 1625.53 191.213 Q 1624.97 192.05, 1623.95 192.523 Q 1622.95 192.977, 1621.62 192.977 Q 1619.47 192.977, 1618.24 191.995 Q 1617 190.995, 1617 189.267 Q 1617 188.212, 1617.55 187.43 Q 1618.09 186.63, 1619.22 186.03 Q 1618.38 185.557, 1617.93 184.866 Q 1617.47 184.157, 1617.47 183.066 Q 1617.47 181.556, 1618.56 180.665 Q 1619.67 179.774, 1621.55 179.774 Q 1623.42 179.774, 1624.51 180.665 Q 1625.62 181.556, 1625.62 183.066 Q 1625.62 184.011, 1625.09 184.721 Q 1624.58 185.412, 1623.57 185.976 M 1621.55 181.138 Q 1620.47 181.138, 1619.87 181.647 Q 1619.29 182.156, 1619.29 183.066 Q 1619.29 183.739, 1619.69 184.193 Q 1620.09 184.63, 1620.66 184.884 Q 1621.24 185.139, 1622.35 185.521 Q 1623.13 184.975, 1623.46 184.393 Q 1623.8 183.811, 1623.8 183.066 Q 1623.8 182.156, 1623.2 181.647 Q 1622.62 181.138, 1621.55 181.138 M 1621.62 191.613 Q 1622.82 191.613, 1623.55 190.977 Q 1624.27 190.322, 1624.27 189.249 Q 1624.27 188.558, 1623.89 188.121 Q 1623.51 187.685, 1622.93 187.43 Q 1622.37 187.176, 1621.35 186.848 L 1620.53 186.576 Q 1619.62 187.121, 1619.22 187.776 Q 1618.82 188.412, 1618.82 189.249 Q 1618.82 190.322, 1619.58 190.977 Q 1620.35 191.613, 1621.62 191.613 " fill="#000000"/>
<path class="note" d="M 2309.13 316.637 L 2311.95 316.637 L 2311.95 307.016 L 2308.84 307.98 L 2308.43 306.907 L 2312.37 305.143 L 2313.66 305.361 L 2313.66 316.637 L 2316.19 316.637 L 2316.19 318.091 L 2309.13 318.091 L 2309.13 316.637 " fill="#000000"/>
<path class="note" d="M 2321.52 305.07 Q 2323.81 305.07, 2324.96 306.634 Q 2326.12 308.18, 2326.12 311.272 Q 2326.12 314.691, 2324.68 316.473 Q 2323.27 318.237, 2320.52 318.237 Q 2319.72 318.237, 2319.03 318.055 Q 2318.36 317.873, 2317.7 317.491 L 2318.41 316.273 Q 2319.36 316.782, 2320.5 316.782 Q 2322.32 316.782, 2323.25 315.618 Q 2324.17 314.436, 2324.28 312.017 Q 2323.63 312.617, 2322.79 312.945 Q 2321.97 313.254, 2321.08 313.254 Q 2319.96 313.254, 2319.06 312.763 Q 2318.17 312.272, 2317.68 311.381 Q 2317.19 310.49, 2317.19 309.362 Q 2317.19 308.107, 2317.74 307.143 Q 2318.3 306.161, 2319.28 305.616 Q 2320.26 305.07, 2321.52 305.07 M 2319.01 309.344 Q 2319.01 310.49, 2319.65 311.144 Q 2320.28 311.799, 2321.41 311.799 Q 2322.19 311.799, 2322.96 311.49 Q 2323.74 311.163, 2324.28 310.617 Q 2324.21 308.489, 2323.54 307.525 Q 2322.87 306.561, 2321.5 306.561 Q 2320.81 306.561, 2320.23 306.925 Q 2319.66 307.289, 2319.34 307.925 Q 2319.01 308.562, 2319.01 309.344 " fill="#000000"/>
<path class="note" d="M 2365.3 241.485 Q 2365.77 240.267, 2366.9 239.594 Q 2368.03 238.903, 2369.59 238.903 Q 2371.54 238.903, 2372.63 239.957 Q 2373.72 241.012, 2373.72 242.885 Q 2373.72 244.795, 2372.3 246.577 Q 2370.9 248.359, 2367.99 250.469 L 2373.94 250.469 L 2373.94 251.924 L 2365.26 251.924 L 2365.26 250.705 Q 2367.66 248.996, 2369.08 247.723 Q 2370.52 246.45, 2371.21 245.304 Q 2371.9 244.158, 2371.9 242.976 Q 2371.9 241.74, 2371.28 241.049 Q 2370.66 240.358, 2369.59 240.358 Q 2368.55 240.358, 2367.86 240.776 Q 2367.17 241.194, 2366.68 242.122 L 2365.3 241.485 " fill="#000000"/>
<path class="note" d="M 2379.76 252.069 Q 2377.39 252.069, 2376.21 250.324 Q 2375.05 248.578, 2375.05 245.468 Q 2375.05 242.358, 2376.21 240.63 Q 2377.37 238.903, 2379.76 238.903 Q 2382.14 238.903, 2383.3 240.63 Q 2384.47 242.358, 2384.47 245.468 Q 2384.47 248.578, 2383.28 250.324 Q 2382.12 252.069, 2379.76 252.069 M 2379.76 250.614 Q 2381.16 250.614, 2381.9 249.323 Q 2382.65 248.014, 2382.65 245.468 Q 2382.65 242.94, 2381.9 241.649 Q 2381.16 240.358, 2379.76 240.358 Q 2378.37 240.358, 2377.61 241.649 Q 2376.86 242.94, 2376.86 245.468 Q 2376.86 248.014, 2377.61 249.323 Q 2378.37 250.614, 2379.76 250.614 " fill="#000000"/>
<path class="note" d="M 2484.31 309.683 Q 2484.78 308.465, 2485.91 307.792 Q 2487.04 307.101, 2488.6 307.101 Q 2490.55 307.101, 2491.64 308.155 Q 2492.73 309.21, 2492.73 311.083 Q 2492.73 312.993, 2491.31 314.775 Q 2489.91 316.557, 2487 318.667 L 2492.95 318.667 L 2492.95 320.122 L 2484.28 320.122 L 2484.28 318.903 Q 2486.68 317.194, 2488.09 315.921 Q 2489.53 314.648, 2490.22 313.502 Q 2490.91 312.356, 2490.91 311.174 Q 2490.91 309.938, 2490.3 309.247 Q 2489.68 308.555, 2488.6 308.555 Q 2487.57 308.555, 2486.88 308.974 Q 2486.19 309.392, 2485.69 310.32 L 2484.31 309.683 " fill="#000000"/>
<path class="note" d="M 2494.64 318.667 L 2497.46 318.667 L 2497.46 309.047 L 2494.35 310.01 L 2493.93 308.937 L 2497.88 307.173 L 2499.17 307.392 L 2499.17 318.667 L 2501.7 318.667 L 2501.7 320.122 L 2494.64 320.122 L 2494.64 318.667 " fill="#000000"/>
<path class="note" d="M 2378.9 127.822 Q 2379.37 126.603, 2380.5 125.93 Q 2381.62 125.239, 2383.19 125.239 Q 2385.13 125.239, 2386.22 126.294 Q 2387.32 127.349, 2387.32 129.222 Q 2387.32 131.132, 2385.9 132.914 Q 2384.5 134.696, 2381.59 136.806 L 2387.53 136.806 L 2387.53 138.261 L 2378.86 138.261 L 2378.86 137.042 Q 2381.26 135.333, 2382.68 134.06 Q 2384.12 132.787, 2384.81 131.641 Q 2385.5 130.495, 2385.5 129.313 Q 2385.5 128.076, 2384.88 127.385 Q 2384.26 126.694, 2383.19 126.694 Q 2382.15 126.694, 2381.46 127.113 Q 2380.77 127.531, 2380.28 128.458 L 2378.9 127.822 " fill="#000000"/>
<path class="note" d="M 2388.48 127.822 Q 2388.95 126.603, 2390.08 125.93 Q 2391.21 125.239, 2392.77 125.239 Q 2394.72 125.239, 2395.81 126.294 Q 2396.9 127.349, 2396.9 129.222 Q 2396.9 131.132, 2395.48 132.914 Q 2394.08 134.696, 2391.17 136.806 L 2397.12 136.806 L 2397.12 138.261 L 2388.44 138.261 L 2388.44 137.042 Q 2390.84 135.333, 2392.26 134.06 Q 2393.7 132.787, 2394.39 131.641 Q 2395.08 130.495, 2395.08 129.313 Q 2395.08 128.076, 2394.46 127.385 Q 2393.84 126.694, 2392.77 126.694 Q 2391.74 126.694, 2391.04 127.113 Q 2390.35 127.531, 2389.86 128.458 L 2388.48 127.822 " fill="#000000"/>
<path class="note" d="M 2753.69 468.618 L 2756.51 468.618 L 2756.51 458.998 L 2753.4 459.962 L 2752.98 458.889 L 2756.93 457.125 L 2758.22 457.343 L 2758.22 468.618 L 2760.75 468.618 L 2760.75 470.073 L 2753.69 470.073 L 2753.69 468.618 " fill="#000000"/>
<path class="note" d="M 2775.44 379.494 Q 2775.92 378.275, 2777.05 377.603 Q 2778.17 376.911, 2779.74 376.911 Q 2781.68 376.911, 2782.77 377.966 Q 2783.87 379.021, 2783.87 380.894 Q 2783.87 382.804, 2782.45 384.586 Q 2781.05 386.368, 2778.14 388.478 L 2784.08 388.478 L 2784.08 389.933 L 2775.41 389.933 L 2775.41 388.714 Q 2777.81 387.005, 2779.23 385.732 Q 2780.66 384.459, 2781.36 383.313 Q 2782.05 382.167, 2782.05 380.985 Q 2782.05 379.749, 2781.43 379.057 Q 2780.81 378.366, 2779.74 378.366 Q 2778.7 378.366, 2778.01 378.785 Q 2777.32 379.203, 2776.83 380.13 L 2775.44 379.494 " fill="#000000"/>
<path class="note" d="M 2689.14 282.873 Q 2690.4 283.237, 2691 284.055 Q 2691.62 284.856, 2691.62 286.129 Q 2691.62 287.22, 2691.07 288.075 Q 2690.52 288.911, 2689.52 289.384 Q 2688.52 289.839, 2687.21 289.839 Q 2685.83 289.839, 2684.8 289.366 Q 2683.78 288.875, 2682.96 287.893 L 2684 286.838 Q 2684.8 287.711, 2685.47 288.056 Q 2686.14 288.384, 2687.21 288.384 Q 2688.38 288.384, 2689.09 287.765 Q 2689.8 287.129, 2689.8 286.11 Q 2689.8 284.801, 2689.05 284.219 Q 2688.32 283.619, 2686.74 283.619 L 2685.81 283.619 L 2685.81 282.31 L 2686.63 282.31 Q 2688.03 282.291, 2688.78 281.691 Q 2689.52 281.073, 2689.52 279.927 Q 2689.52 279.091, 2688.91 278.6 Q 2688.29 278.09, 2687.23 278.09 Q 2686.16 278.09, 2685.49 278.472 Q 2684.83 278.854, 2684.32 279.818 L 2683.07 279.145 Q 2683.52 278.072, 2684.61 277.363 Q 2685.71 276.635, 2687.23 276.635 Q 2689.12 276.635, 2690.23 277.527 Q 2691.34 278.418, 2691.34 279.927 Q 2691.34 280.964, 2690.78 281.709 Q 2690.22 282.455, 2689.14 282.873 " fill="#000000"/>
<path class="note" d="M 2882.14 376.627 L 2883.69 376.627 L 2883.69 378.082 L 2882.14 378.082 L 2882.14 381.046 L 2880.43 381.046 L 2880.43 378.082 L 2873.78 378.082 L 2873.78 376.936 L 2879.41 368.17 L 2882.14 368.17 L 2882.14 376.627 M 2875.89 376.627 L 2880.43 376.627 L 2880.43 369.334 L 2875.89 376.627 " fill="#000000"/>
<path class="note" d="M 2870.79 267.226 Q 2871.92 267.226, 2872.85 267.717 Q 2873.78 268.19, 2874.3 269.099 Q 2874.83 269.99, 2874.83 271.209 Q 2874.83 272.536, 2874.18 273.5 Q 2873.54 274.446, 2872.49 274.937 Q 2871.43 275.428, 2870.23 275.428 Q 2869.05 275.428, 2867.96 274.991 Q 2866.87 274.555, 2866.12 273.718 L 2867.21 272.591 Q 2867.81 273.245, 2868.63 273.609 Q 2869.45 273.955, 2870.28 273.955 Q 2871.43 273.955, 2872.21 273.245 Q 2873.01 272.536, 2873.01 271.245 Q 2873.01 269.881, 2872.21 269.245 Q 2871.43 268.59, 2870.18 268.59 Q 2869.05 268.59, 2867.79 269.081 L 2866.79 268.608 L 2867.41 262.407 L 2874.03 262.407 L 2873.85 263.861 L 2868.9 263.861 L 2868.52 267.681 Q 2869.67 267.226, 2870.79 267.226 " fill="#000000"/>
<path class="note" d="M 2809.41 200.466 Q 2810.54 200.466, 2811.43 200.957 Q 2812.32 201.448, 2812.81 202.339 Q 2813.3 203.23, 2813.3 204.358 Q 2813.3 205.613, 2812.74 206.595 Q 2812.19 207.559, 2811.21 208.104 Q 2810.23 208.65, 2808.97 208.65 Q 2806.68 208.65, 2805.52 207.104 Q 2804.37 205.54, 2804.37 202.448 Q 2804.37 199.029, 2805.79 197.265 Q 2807.23 195.483, 2809.97 195.483 Q 2810.77 195.483, 2811.45 195.665 Q 2812.14 195.847, 2812.79 196.229 L 2812.08 197.447 Q 2811.14 196.938, 2809.99 196.938 Q 2808.17 196.938, 2807.25 198.12 Q 2806.32 199.284, 2806.21 201.703 Q 2806.86 201.103, 2807.68 200.793 Q 2808.52 200.466, 2809.41 200.466 M 2808.99 207.159 Q 2809.68 207.159, 2810.25 206.795 Q 2810.83 206.431, 2811.16 205.795 Q 2811.48 205.158, 2811.48 204.376 Q 2811.48 203.23, 2810.85 202.576 Q 2810.21 201.921, 2809.08 201.921 Q 2808.3 201.921, 2807.52 202.248 Q 2806.75 202.558, 2806.21 203.103 Q 2806.28 205.231, 2806.95 206.195 Q 2807.63 207.159, 2808.99 207.159 " fill="#000000"/>
<path class="note" d="M 2838.39 110.204 L 2831.64 110.204 L 2831.64 108.75 L 2840.19 108.75 L 2840.19 110.041 L 2834.98 121.625 L 2833.24 121.625 L 2838.39 110.204 " fill="#000000"/>
<path class="note" d="M 2770.53 22.4181 Q 2771.71 22.9273, 2772.39 23.6911 Q 2773.06 24.4368, 2773.06 25.7098 Q 2773.06 26.801, 2772.49 27.6557 Q 2771.93 28.4923, 2770.91 28.9651 Q 2769.91 29.4198, 2768.58 29.4198 Q 2766.44 29.4198, 2765.2 28.4377 Q 2763.97 27.4375, 2763.97 25.7098 Q 2763.97 24.655, 2764.51 23.873 Q 2765.06 23.0728, 2766.18 22.4727 Q 2765.35 21.9998, 2764.89 21.3088 Q 2764.44 20.5995, 2764.44 19.5083 Q 2764.44 17.9989, 2765.53 17.1078 Q 2766.64 16.2166, 2768.51 16.2166 Q 2770.39 16.2166, 2771.48 17.1078 Q 2772.59 17.9989, 2772.59 19.5083 Q 2772.59 20.454, 2772.06 21.1633 Q 2771.55 21.8543, 2770.53 22.4181 M 2768.51 17.5806 Q 2767.44 17.5806, 2766.84 18.0898 Q 2766.26 18.599, 2766.26 19.5083 Q 2766.26 20.1812, 2766.66 20.6359 Q 2767.06 21.0723, 2767.62 21.3269 Q 2768.2 21.5815, 2769.31 21.9635 Q 2770.09 21.4179, 2770.42 20.8359 Q 2770.77 20.254, 2770.77 19.5083 Q 2770.77 18.599, 2770.17 18.0898 Q 2769.59 17.5806, 2768.51 17.5806 M 2768.58 28.0558 Q 2769.79 28.0558, 2770.51 27.4193 Q 2771.24 26.7646, 2771.24 25.6916 Q 2771.24 25.0005, 2770.86 24.5641 Q 2770.48 24.1276, 2769.89 23.873 Q 2769.33 23.6184, 2768.31 23.291 L 2767.49 23.0183 Q 2766.58 23.5638, 2766.18 24.2185 Q 2765.78 24.855, 2765.78 25.6916 Q 2765.78 26.7646, 2766.55 27.4193 Q 2767.31 28.0558, 2768.58 28.0558 " fill="#000000"/>
<path class="note" d="M 2943.79 70.9276 Q 2946.08 70.9276, 2947.22 72.4916 Q 2948.39 74.0375, 2948.39 77.1291 Q 2948.39 80.5481, 2946.95 82.3303 Q 2945.53 84.0944, 2942.79 84.0944 Q 2941.99 84.0944, 2941.3 83.9125 Q 2940.62 83.7307, 2939.97 83.3488 L 2940.68 82.1303 Q 2941.62 82.6395, 2942.77 82.6395 Q 2944.59 82.6395, 2945.52 81.4756 Q 2946.44 80.2935, 2946.55 77.8747 Q 2945.9 78.4749, 2945.06 78.8022 Q 2944.24 79.1114, 2943.35 79.1114 Q 2942.22 79.1114, 2941.33 78.6204 Q 2940.44 78.1293, 2939.95 77.2382 Q 2939.46 76.3471, 2939.46 75.2196 Q 2939.46 73.9647, 2940 73.0009 Q 2940.57 72.0188, 2941.55 71.4732 Q 2942.53 70.9276, 2943.79 70.9276 M 2941.28 75.2014 Q 2941.28 76.3471, 2941.91 77.0018 Q 2942.55 77.6565, 2943.68 77.6565 Q 2944.46 77.6565, 2945.22 77.3473 Q 2946.01 77.02, 2946.55 76.4744 Q 2946.48 74.3466, 2945.81 73.3828 Q 2945.13 72.4189, 2943.77 72.4189 Q 2943.08 72.4189, 2942.5 72.7826 Q 2941.93 73.1463, 2941.61 73.7829 Q 2941.28 74.4194, 2941.28 75.2014 " fill="#000000"/>
<path class="note" d="M 3018.3 157.161 L 3021.12 157.161 L 3021.12 147.54 L 3018.01 148.504 L 3017.59 147.431 L 3021.54 145.667 L 3022.83 145.885 L 3022.83 157.161 L 3025.36 157.161 L 3025.36 158.615 L 3018.3 158.615 L 3018.3 157.161 " fill="#000000"/>
<path class="note" d="M 3031.18 158.761 Q 3028.81 158.761, 3027.63 157.015 Q 3026.47 155.269, 3026.47 152.159 Q 3026.47 149.05, 3027.63 147.322 Q 3028.79 145.594, 3031.18 145.594 Q 3033.56 145.594, 3034.72 147.322 Q 3035.89 149.05, 3035.89 152.159 Q 3035.89 155.269, 3034.7 157.015 Q 3033.54 158.761, 3031.18 158.761 M 3031.18 157.306 Q 3032.58 157.306, 3033.32 156.015 Q 3034.07 154.705, 3034.07 152.159 Q 3034.07 149.632, 3033.32 148.34 Q 3032.58 147.049, 3031.18 147.049 Q 3029.79 147.049, 3029.03 148.34 Q 3028.28 149.632, 3028.28 152.159 Q 3028.28 154.705, 3029.03 156.015 Q 3029.79 157.306, 3031.18 157.306 " fill="#000000"/>
<path class="note" d="M 2958.03 265.05 L 2960.85 265.05 L 2960.85 255.43 L 2957.74 256.393 L 2957.32 255.32 L 2961.27 253.556 L 2962.56 253.775 L 2962.56 265.05 L 2965.09 265.05 L 2965.09 266.505 L 2958.03 266.505 L 2958.03 265.05 " fill="#000000"/>
<path class="note" d="M 2966.78 265.05 L 2969.6 265.05 L 2969.6 255.43 L 2966.49 256.393 L 2966.07 255.32 L 2970.02 253.556 L 2971.31 253.775 L 2971.31 265.05 L 2973.84 265.05 L 2973.84 266.505 L 2966.78 266.505 L 2966.78 265.05 " fill="#000000"/>
<path class="note" d="M 3014.74 346.405 L 3017.56 346.405 L 3017.56 336.784 L 3014.45 337.748 L 3014.03 336.675 L 3017.98 334.911 L 3019.27 335.129 L 3019.27 346.405 L 3021.8 346.405 L 3021.8 347.86 L 3014.74 347.86 L 3014.74 346.405 " fill="#000000"/>
<path class="note" d="M 3022.74 337.421 Q 3023.22 336.202, 3024.34 335.53 Q 3025.47 334.838, 3027.04 334.838 Q 3028.98 334.838, 3030.07 335.893 Q 3031.16 336.948, 3031.16 338.821 Q 3031.16 340.731, 3029.74 342.513 Q 3028.34 344.295, 3025.43 346.405 L 3031.38 346.405 L 3031.38 347.86 L 3022.71 347.86 L 3022.71 346.641 Q 3025.11 344.932, 3026.53 343.659 Q 3027.96 342.386, 3028.65 341.24 Q 3029.34 340.094, 3029.34 338.912 Q 3029.34 337.675, 3028.73 336.984 Q 3028.11 336.293, 3027.04 336.293 Q 3026 336.293, 3025.31 336.712 Q 3024.62 337.13, 3024.13 338.057 L 3022.74 337.421 " fill="#000000"/>
<path class="note" d="M 3108.05 311.982 L 3110.87 311.982 L 3110.87 302.361 L 3107.76 303.325 L 3107.34 302.252 L 3111.29 300.488 L 3112.58 300.706 L 3112.58 311.982 L 3115.11 311.982 L 3115.11 313.436 L 3108.05 313.436 L 3108.05 311.982 " fill="#000000"/>
<path class="note" d="M 3122.05 306.653 Q 3123.31 307.017, 3123.91 307.835 Q 3124.53 308.635, 3124.53 309.908 Q 3124.53 311, 3123.98 311.854 Q 3123.43 312.691, 3122.43 313.164 Q 3121.43 313.618, 3120.12 313.618 Q 3118.74 313.618, 3117.71 313.145 Q 3116.69 312.654, 3115.87 311.672 L 3116.91 310.618 Q 3117.71 311.491, 3118.38 311.836 Q 3119.05 312.163, 3120.12 312.163 Q 3121.29 312.163, 3122 311.545 Q 3122.71 310.909, 3122.71 309.89 Q 3122.71 308.581, 3121.96 307.999 Q 3121.23 307.399, 3119.65 307.399 L 3118.72 307.399 L 3118.72 306.089 L 3119.54 306.089 Q 3120.94 306.071, 3121.69 305.471 Q 3122.43 304.853, 3122.43 303.707 Q 3122.43 302.87, 3121.82 302.379 Q 3121.2 301.87, 3120.14 301.87 Q 3119.07 301.87, 3118.4 302.252 Q 3117.74 302.634, 3117.23 303.598 L 3115.98 302.925 Q 3116.43 301.852, 3117.52 301.143 Q 3118.62 300.415, 3120.14 300.415 Q 3122.03 300.415, 3123.14 301.306 Q 3124.25 302.197, 3124.25 303.707 Q 3124.25 304.743, 3123.69 305.489 Q 3123.13 306.235, 3122.05 306.653 " fill="#000000"/>
<path class="note" d="M 3169.17 378.796 L 3171.99 378.796 L 3171.99 369.175 L 3168.88 370.139 L 3168.46 369.066 L 3172.41 367.302 L 3173.7 367.52 L 3173.7 378.796 L 3176.23 378.796 L 3176.23 380.251 L 3169.17 380.251 L 3169.17 378.796 " fill="#000000"/>
<path class="note" d="M 3185.14 375.832 L 3186.68 375.832 L 3186.68 377.286 L 3185.14 377.286 L 3185.14 380.251 L 3183.43 380.251 L 3183.43 377.286 L 3176.77 377.286 L 3176.77 376.141 L 3182.41 367.375 L 3185.14 367.375 L 3185.14 375.832 M 3178.88 375.832 L 3183.43 375.832 L 3183.43 368.539 L 3178.88 375.832 " fill="#000000"/>
<path class="note" d="M 3273.12 355.514 L 3275.94 355.514 L 3275.94 345.894 L 3272.83 346.858 L 3272.42 345.785 L 3276.36 344.021 L 3277.65 344.239 L 3277.65 355.514 L 3280.18 355.514 L 3280.18 356.969 L 3273.12 356.969 L 3273.12 355.514 " fill="#000000"/>
<path class="note" d="M 3285.69 348.913 Q 3286.82 348.913, 3287.75 349.404 Q 3288.67 349.877, 3289.2 350.786 Q 3289.73 351.677, 3289.73 352.896 Q 3289.73 354.223, 3289.07 355.187 Q 3288.44 356.133, 3287.38 356.624 Q 3286.33 357.115, 3285.13 357.115 Q 3283.95 357.115, 3282.85 356.678 Q 3281.76 356.242, 3281.02 355.405 L 3282.11 354.278 Q 3282.71 354.932, 3283.53 355.296 Q 3284.35 355.642, 3285.18 355.642 Q 3286.33 355.642, 3287.11 354.932 Q 3287.91 354.223, 3287.91 352.932 Q 3287.91 351.568, 3287.11 350.931 Q 3286.33 350.277, 3285.07 350.277 Q 3283.95 350.277, 3282.69 350.768 L 3281.69 350.295 L 3282.31 344.094 L 3288.93 344.094 L 3288.75 345.548 L 3283.8 345.548 L 3283.42 349.367 Q 3284.56 348.913, 3285.69 348.913 " fill="#000000"/>
<path class="note" d="M 3319.19 250.951 L 3322.01 250.951 L 3322.01 241.33 L 3318.9 242.294 L 3318.48 241.221 L 3322.43 239.457 L 3323.72 239.675 L 3323.72 250.951 L 3326.24 250.951 L 3326.24 252.406 L 3319.19 252.406 L 3319.19 250.951 " fill="#000000"/>
<path class="note" d="M 3332.52 244.367 Q 3333.65 244.367, 3334.54 244.859 Q 3335.43 245.35, 3335.92 246.241 Q 3336.41 247.132, 3336.41 248.259 Q 3336.41 249.514, 3335.85 250.496 Q 3335.3 251.46, 3334.32 252.006 Q 3333.34 252.551, 3332.08 252.551 Q 3329.79 252.551, 3328.63 251.005 Q 3327.48 249.441, 3327.48 246.35 Q 3327.48 242.931, 3328.9 241.167 Q 3330.34 239.384, 3333.08 239.384 Q 3333.88 239.384, 3334.56 239.566 Q 3335.25 239.748, 3335.9 240.13 L 3335.19 241.349 Q 3334.25 240.839, 3333.1 240.839 Q 3331.28 240.839, 3330.35 242.021 Q 3329.43 243.185, 3329.32 245.604 Q 3329.97 245.004, 3330.79 244.695 Q 3331.63 244.367, 3332.52 244.367 M 3332.1 251.06 Q 3332.79 251.06, 3333.36 250.696 Q 3333.94 250.333, 3334.26 249.696 Q 3334.59 249.06, 3334.59 248.278 Q 3334.59 247.132, 3333.96 246.477 Q 3333.32 245.822, 3332.19 245.822 Q 3331.41 245.822, 3330.63 246.15 Q 3329.86 246.459, 3329.32 247.004 Q 3329.39 249.132, 3330.06 250.096 Q 3330.74 251.06, 3332.1 251.06 " fill="#000000"/>
<path class="note" d="M 3233.14 176.248 L 3235.95 176.248 L 3235.95 166.627 L 3232.85 167.591 L 3232.43 166.518 L 3236.37 164.754 L 3237.66 164.973 L 3237.66 176.248 L 3240.19 176.248 L 3240.19 177.703 L 3233.14 177.703 L 3233.14 176.248 " fill="#000000"/>
<path class="note" d="M 3247.27 166.282 L 3240.52 166.282 L 3240.52 164.827 L 3249.07 164.827 L 3249.07 166.118 L 3243.87 177.703 L 3242.12 177.703 L 3247.27 166.282 " fill="#000000"/>
<path class="note" d="M 3128.96 199.566 L 3131.78 199.566 L 3131.78 189.945 L 3128.67 190.909 L 3128.25 189.836 L 3132.2 188.072 L 3133.49 188.29 L 3133.49 199.566 L 3136.02 199.566 L 3136.02 201.021 L 3128.96 201.021 L 3128.96 199.566 " fill="#000000"/>
<path class="note" d="M 3143.71 194.201 Q 3144.89 194.71, 3145.57 195.474 Q 3146.24 196.22, 3146.24 197.493 Q 3146.24 198.584, 3145.68 199.438 Q 3145.11 200.275, 3144.09 200.748 Q 3143.09 201.203, 3141.77 201.203 Q 3139.62 201.203, 3138.38 200.22 Q 3137.15 199.22, 3137.15 197.493 Q 3137.15 196.438, 3137.69 195.656 Q 3138.24 194.856, 3139.37 194.255 Q 3138.53 193.783, 3138.07 193.092 Q 3137.62 192.382, 3137.62 191.291 Q 3137.62 189.782, 3138.71 188.891 Q 3139.82 187.999, 3141.69 187.999 Q 3143.57 187.999, 3144.66 188.891 Q 3145.77 189.782, 3145.77 191.291 Q 3145.77 192.237, 3145.24 192.946 Q 3144.73 193.637, 3143.71 194.201 M 3141.69 189.363 Q 3140.62 189.363, 3140.02 189.873 Q 3139.44 190.382, 3139.44 191.291 Q 3139.44 191.964, 3139.84 192.419 Q 3140.24 192.855, 3140.8 193.11 Q 3141.38 193.364, 3142.49 193.746 Q 3143.28 193.201, 3143.6 192.619 Q 3143.95 192.037, 3143.95 191.291 Q 3143.95 190.382, 3143.35 189.873 Q 3142.77 189.363, 3141.69 189.363 M 3141.77 199.839 Q 3142.97 199.839, 3143.69 199.202 Q 3144.42 198.547, 3144.42 197.474 Q 3144.42 196.783, 3144.04 196.347 Q 3143.66 195.91, 3143.08 195.656 Q 3142.51 195.401, 3141.49 195.074 L 3140.68 194.801 Q 3139.77 195.347, 3139.37 196.001 Q 3138.97 196.638, 3138.97 197.474 Q 3138.97 198.547, 3139.73 199.202 Q 3140.49 199.839, 3141.77 199.839 " fill="#000000"/>
<path d="M 1118.58 249.345 L 1124.63 249.345 L 1124.63 242.977 L 1127.31 242.977 L 1127.31 249.345 L 1133.52 249.345 L 1133.52 251.649 L 1127.31 251.649 L 1127.31 258.049 L 1124.63 258.049 L 1124.63 251.649 L 1118.58 251.649 L 1118.58 249.345 " fill="#000000"/>
<path d="M 2590.89 249.345 L 2596.94 249.345 L 2596.94 242.977 L 2599.63 242.977 L 2599.63 249.345 L 2605.84 249.345 L 2605.84 251.649 L 2599.63 251.649 L 2599.63 258.049 L 2596.94 258.049 L 2596.94 251.649 L 2590.89 251.649 L 2590.89 249.345 " fill="#000000"/>
<path d="M 1916.59,251.649 L 2159.07,251.649" style="fill:none;fill-rule:evenodd;stroke:#000000;stroke-width:2.0px;stroke-linecap:butt;stroke-linejoin:miter;stroke-opacity:1"/>
<path d="M 2159.07,251.649 L 2148.57,245.587" style="fill:none;fill-rule:evenodd;stroke:#000000;stroke-width:2.0px;stroke-linecap:butt;stroke-linejoin:miter;stroke-opacity:1"/>
<path d="M 2159.07,251.649 L 2148.57,257.711" style="fill:none;fill-rule:evenodd;stroke:#000000;stroke-width:2.0px;stroke-linecap:butt;stroke-linejoin:miter;stroke-opacity:1"/>
</svg>