<svg xmlns="http://www.w3.org/2000/svg" xmlns:rdkit="http://www.rdkit.org/xml" xmlns:xlink="http://www.w3.org/1999/xlink" version="1.1" baseProfile="full" xml:space="preserve" width="4000px" height="500px" viewBox="0 0 4000 500">
<!-- END OF HEADER -->
<rect style="opacity:1.0;fill:#FFFFFF;stroke:none" width="4000" height="500" x="0" y="0"> </rect>
<path d="M 209.894,182.987 L 331.464,253.175" style="fill:none;fill-rule:evenodd;stroke:#FFFFAA;stroke-width:29.9px;stroke-linecap:butt;stroke-linejoin:miter;stroke-opacity:1"/>
<path d="M 331.464,253.175 L 331.464,393.552" style="fill:none;fill-rule:evenodd;stroke:#FFFFAA;stroke-width:29.9px;stroke-linecap:butt;stroke-linejoin:miter;stroke-opacity:1"/>
<path d="M 331.464,253.175 L 453.034,182.987" style="fill:none;fill-rule:evenodd;stroke:#FFFFAA;stroke-width:29.9px;stroke-linecap:butt;stroke-linejoin:miter;stroke-opacity:1"/>
<path d="M 453.034,182.987 L 574.604,253.175" style="fill:none;fill-rule:evenodd;stroke:#FFFFAA;stroke-width:29.9px;stroke-linecap:butt;stroke-linejoin:miter;stroke-opacity:1"/>
<path d="M 574.604,253.175 L 696.174,182.987" style="fill:none;fill-rule:evenodd;stroke:#FFFFAA;stroke-width:29.9px;stroke-linecap:butt;stroke-linejoin:miter;stroke-opacity:1"/>
<path d="M 574.604,253.175 L 574.604,393.552" style="fill:none;fill-rule:evenodd;stroke:#FFFFAA;stroke-width:29.9px;stroke-linecap:butt;stroke-linejoin:miter;stroke-opacity:1"/>
<path d="M 1108.11,368.485 L 1229.68,298.296" style="fill:none;fill-rule:evenodd;stroke:#FFCC99;stroke-width:29.9px;stroke-linecap:butt;stroke-linejoin:miter;stroke-opacity:1"/>
<path d="M 1229.68,298.296 L 1229.68,157.919" style="fill:none;fill-rule:evenodd;stroke:#FFCC99;stroke-width:29.9px;stroke-linecap:butt;stroke-linejoin:miter;stroke-opacity:1"/>
<path d="M 1229.68,298.296 L 1351.25,368.485" style="fill:none;fill-rule:evenodd;stroke:#FFCC99;stroke-width:29.9px;stroke-linecap:butt;stroke-linejoin:miter;stroke-opacity:1"/>
<path d="M 1229.68,157.919 L 1351.25,87.7308" style="fill:none;fill-rule:evenodd;stroke:#FFCC99;stroke-width:29.9px;stroke-linecap:butt;stroke-linejoin:miter;stroke-opacity:1"/>
<path d="M 1351.25,87.7308 L 1472.82,157.919" style="fill:none;fill-rule:evenodd;stroke:#FFCC99;stroke-width:29.9px;stroke-linecap:butt;stroke-linejoin:miter;stroke-opacity:1"/>
<path d="M 1472.82,157.919 L 1472.82,298.296" style="fill:none;fill-rule:evenodd;stroke:#FFCC99;stroke-width:29.9px;stroke-linecap:butt;stroke-linejoin:miter;stroke-opacity:1"/>
<path d="M 1472.82,298.296 L 1594.39,368.485" style="fill:none;fill-rule:evenodd;stroke:#FFCC99;stroke-width:29.9px;stroke-linecap:butt;stroke-linejoin:miter;stroke-opacity:1"/>
<path d="M 1472.82,298.296 L 1351.25,368.485" style="fill:none;fill-rule:evenodd;stroke:#FFCC99;stroke-width:29.9px;stroke-linecap:butt;stroke-linejoin:miter;stroke-opacity:1"/>
<path d="M 2441.5,333.391 L 2563.07,263.202" style="fill:none;fill-rule:evenodd;stroke:#FFFFAA;stroke-width:29.9px;stroke-linecap:butt;stroke-linejoin:miter;stroke-opacity:1"/>
<path d="M 2563.07,263.202 L 2684.64,333.391" style="fill:none;fill-rule:evenodd;stroke:#FFFFAA;stroke-width:29.9px;stroke-linecap:butt;stroke-linejoin:miter;stroke-opacity:1"/>
<path d="M 2563.07,263.202 L 2563.07,122.825" style="fill:none;fill-rule:evenodd;stroke:#FFFFAA;stroke-width:29.9px;stroke-linecap:butt;stroke-linejoin:miter;stroke-opacity:1"/>
<path d="M 3044.92,346.412 L 3169.84,282.379" style="fill:none;fill-rule:evenodd;stroke:#FFFFAA;stroke-width:29.9px;stroke-linecap:butt;stroke-linejoin:miter;stroke-opacity:1"/>
<path d="M 3169.84,282.379 L 3176.85,142.177" style="fill:none;fill-rule:evenodd;stroke:#FFFFAA;stroke-width:29.9px;stroke-linecap:butt;stroke-linejoin:miter;stroke-opacity:1"/>
<path d="M 3287.76,358.548 L 3412.68,294.515" style="fill:none;fill-rule:evenodd;stroke:#FFCC99;stroke-width:29.9px;stroke-linecap:butt;stroke-linejoin:miter;stroke-opacity:1"/>
<path d="M 3412.68,294.515 L 3419.68,154.312" style="fill:none;fill-rule:evenodd;stroke:#FFCC99;stroke-width:29.9px;stroke-linecap:butt;stroke-linejoin:miter;stroke-opacity:1"/>
<path d="M 3412.68,294.515 L 3530.59,370.684" style="fill:none;fill-rule:evenodd;stroke:#FFCC99;stroke-width:29.9px;stroke-linecap:butt;stroke-linejoin:miter;stroke-opacity:1"/>
<path d="M 3419.68,154.312 L 3544.61,90.2794" style="fill:none;fill-rule:evenodd;stroke:#FFCC99;stroke-width:29.9px;stroke-linecap:butt;stroke-linejoin:miter;stroke-opacity:1"/>
<path d="M 3544.61,90.2794 L 3662.52,166.448" style="fill:none;fill-rule:evenodd;stroke:#FFCC99;stroke-width:29.9px;stroke-linecap:butt;stroke-linejoin:miter;stroke-opacity:1"/>
<path d="M 3662.52,166.448 L 3655.52,306.651" style="fill:none;fill-rule:evenodd;stroke:#FFCC99;stroke-width:29.9px;stroke-linecap:butt;stroke-linejoin:miter;stroke-opacity:1"/>
<path d="M 3655.52,306.651 L 3773.43,382.82" style="fill:none;fill-rule:evenodd;stroke:#FFCC99;stroke-width:29.9px;stroke-linecap:butt;stroke-linejoin:miter;stroke-opacity:1"/>
<path d="M 3655.52,306.651 L 3530.59,370.684" style="fill:none;fill-rule:evenodd;stroke:#FFCC99;stroke-width:29.9px;stroke-linecap:butt;stroke-linejoin:miter;stroke-opacity:1"/>
<ellipse cx="209.894" cy="182.987" rx="28.0754" ry="28.0754" style="fill:#FFFFAA;fill-rule:evenodd;stroke:#FFFFAA;stroke-width:1px;stroke-linecap:butt;stroke-linejoin:miter;stroke-opacity:1"/>
<ellipse cx="331.464" cy="253.175" rx="28.0754" ry="28.0754" style="fill:#FFFFAA;fill-rule:evenodd;stroke:#FFFFAA;stroke-width:1px;stroke-linecap:butt;stroke-linejoin:miter;stroke-opacity:1"/>
<ellipse cx="331.464" cy="393.772" rx="28.0754" ry="28.0754" style="fill:#FFFFAA;fill-rule:evenodd;stroke:#FFFFAA;stroke-width:1px;stroke-linecap:butt;stroke-linejoin:miter;stroke-opacity:1"/>
<ellipse cx="453.034" cy="183.207" rx="28.0754" ry="28.0754" style="fill:#FFFFAA;fill-rule:evenodd;stroke:#FFFFAA;stroke-width:1px;stroke-linecap:butt;stroke-linejoin:miter;stroke-opacity:1"/>
<ellipse cx="574.604" cy="253.175" rx="28.0754" ry="28.0754" style="fill:#FFFFAA;fill-rule:evenodd;stroke:#FFFFAA;stroke-width:1px;stroke-linecap:butt;stroke-linejoin:miter;stroke-opacity:1"/>
<ellipse cx="696.174" cy="182.987" rx="28.0754" ry="28.0754" style="fill:#FFFFAA;fill-rule:evenodd;stroke:#FFFFAA;stroke-width:1px;stroke-linecap:butt;stroke-linejoin:miter;stroke-opacity:1"/>
<ellipse cx="574.604" cy="393.772" rx="28.0754" ry="28.0754" style="fill:#FFFFAA;fill-rule:evenodd;stroke:#FFFFAA;stroke-width:1px;stroke-linecap:butt;stroke-linejoin:miter;stroke-opacity:1"/>
<ellipse cx="1088.41" cy="375.565" rx="43.0436" ry="30.0379" style="fill:#FFCC99;fill-rule:evenodd;stroke:#FFCC99;stroke-width:1px;stroke-linecap:butt;stroke-linejoin:miter;stroke-opacity:1"/>
<ellipse cx="1229.68" cy="298.296" rx="28.0754" ry="28.0754" style="fill:#FFCC99;fill-rule:evenodd;stroke:#FFCC99;stroke-width:1px;stroke-linecap:butt;stroke-linejoin:miter;stroke-opacity:1"/>
<ellipse cx="1229.68" cy="157.919" rx="28.0754" ry="28.0754" style="fill:#FFCC99;fill-rule:evenodd;stroke:#FFCC99;stroke-width:1px;stroke-linecap:butt;stroke-linejoin:miter;stroke-opacity:1"/>
<ellipse cx="1351.25" cy="87.7308" rx="28.0754" ry="28.0754" style="fill:#FFCC99;fill-rule:evenodd;stroke:#FFCC99;stroke-width:1px;stroke-linecap:butt;stroke-linejoin:miter;stroke-opacity:1"/>
<ellipse cx="1472.82" cy="157.919" rx="28.0754" ry="28.0754" style="fill:#FFCC99;fill-rule:evenodd;stroke:#FFCC99;stroke-width:1px;stroke-linecap:butt;stroke-linejoin:miter;stroke-opacity:1"/>
<ellipse cx="1472.82" cy="298.296" rx="28.0754" ry="28.0754" style="fill:#FFCC99;fill-rule:evenodd;stroke:#FFCC99;stroke-width:1px;stroke-linecap:butt;stroke-linejoin:miter;stroke-opacity:1"/>
<ellipse cx="1607.17" cy="368.705" rx="36.4584" ry="28.0754" style="fill:#FFCC99;fill-rule:evenodd;stroke:#FFCC99;stroke-width:1px;stroke-linecap:butt;stroke-linejoin:miter;stroke-opacity:1"/>
<ellipse cx="1351.25" cy="368.485" rx="28.0754" ry="28.0754" style="fill:#FFCC99;fill-rule:evenodd;stroke:#FFCC99;stroke-width:1px;stroke-linecap:butt;stroke-linejoin:miter;stroke-opacity:1"/>
<ellipse cx="2441.5" cy="333.391" rx="28.0754" ry="28.0754" style="fill:#FFFFAA;fill-rule:evenodd;stroke:#FFFFAA;stroke-width:1px;stroke-linecap:butt;stroke-linejoin:miter;stroke-opacity:1"/>
<ellipse cx="2563.07" cy="263.202" rx="28.0754" ry="28.0754" style="fill:#FFFFAA;fill-rule:evenodd;stroke:#FFFFAA;stroke-width:1px;stroke-linecap:butt;stroke-linejoin:miter;stroke-opacity:1"/>
<ellipse cx="2684.64" cy="333.611" rx="28.0754" ry="28.0754" style="fill:#FFFFAA;fill-rule:evenodd;stroke:#FFFFAA;stroke-width:1px;stroke-linecap:butt;stroke-linejoin:miter;stroke-opacity:1"/>
<ellipse cx="2575.85" cy="123.045" rx="36.4584" ry="28.0754" style="fill:#FFFFAA;fill-rule:evenodd;stroke:#FFFFAA;stroke-width:1px;stroke-linecap:butt;stroke-linejoin:miter;stroke-opacity:1"/>
<ellipse cx="3044.92" cy="346.412" rx="28.0754" ry="28.0754" style="fill:#FFFFAA;fill-rule:evenodd;stroke:#FFFFAA;stroke-width:1px;stroke-linecap:butt;stroke-linejoin:miter;stroke-opacity:1"/>
<ellipse cx="3169.84" cy="282.379" rx="28.0754" ry="28.0754" style="fill:#FFFFAA;fill-rule:evenodd;stroke:#FFFFAA;stroke-width:1px;stroke-linecap:butt;stroke-linejoin:miter;stroke-opacity:1"/>
<ellipse cx="3176.85" cy="142.397" rx="28.0754" ry="28.0754" style="fill:#FFFFAA;fill-rule:evenodd;stroke:#FFFFAA;stroke-width:1px;stroke-linecap:butt;stroke-linejoin:miter;stroke-opacity:1"/>
<ellipse cx="3287.76" cy="374.124" rx="28.0754" ry="42.0531" style="fill:#FFCC99;fill-rule:evenodd;stroke:#FFCC99;stroke-width:1px;stroke-linecap:butt;stroke-linejoin:miter;stroke-opacity:1"/>
<ellipse cx="3412.68" cy="294.515" rx="28.0754" ry="28.0754" style="fill:#FFCC99;fill-rule:evenodd;stroke:#FFCC99;stroke-width:1px;stroke-linecap:butt;stroke-linejoin:miter;stroke-opacity:1"/>
<ellipse cx="3419.68" cy="154.312" rx="28.0754" ry="28.0754" style="fill:#FFCC99;fill-rule:evenodd;stroke:#FFCC99;stroke-width:1px;stroke-linecap:butt;stroke-linejoin:miter;stroke-opacity:1"/>
<ellipse cx="3544.61" cy="90.2794" rx="28.0754" ry="28.0754" style="fill:#FFCC99;fill-rule:evenodd;stroke:#FFCC99;stroke-width:1px;stroke-linecap:butt;stroke-linejoin:miter;stroke-opacity:1"/>
<ellipse cx="3662.52" cy="166.448" rx="28.0754" ry="28.0754" style="fill:#FFCC99;fill-rule:evenodd;stroke:#FFCC99;stroke-width:1px;stroke-linecap:butt;stroke-linejoin:miter;stroke-opacity:1"/>
<ellipse cx="3655.52" cy="306.651" rx="28.0754" ry="28.0754" style="fill:#FFCC99;fill-rule:evenodd;stroke:#FFCC99;stroke-width:1px;stroke-linecap:butt;stroke-linejoin:miter;stroke-opacity:1"/>
<ellipse cx="3786.21" cy="383.04" rx="36.4584" ry="28.0754" style="fill:#FFCC99;fill-rule:evenodd;stroke:#FFCC99;stroke-width:1px;stroke-linecap:butt;stroke-linejoin:miter;stroke-opacity:1"/>
<ellipse cx="3530.59" cy="370.684" rx="28.0754" ry="28.0754" style="fill:#FFCC99;fill-rule:evenodd;stroke:#FFCC99;stroke-width:1px;stroke-linecap:butt;stroke-linejoin:miter;stroke-opacity:1"/>
<path class="bond-0" d="M 209.894,182.987 L 331.464,253.175" style="fill:none;fill-rule:evenodd;stroke:#000000;stroke-width:2.0px;stroke-linecap:butt;stroke-linejoin:miter;stroke-opacity:1"/>
<path class="bond-1" d="M 317.426,253.175 L 317.426,314.449" style="fill:none;fill-rule:evenodd;stroke:#000000;stroke-width:2.0px;stroke-linecap:butt;stroke-linejoin:miter;stroke-opacity:1"/>
<path class="bond-1" d="M 317.426,314.449 L 317.426,375.723" style="fill:none;fill-rule:evenodd;stroke:#FF0000;stroke-width:2.0px;stroke-linecap:butt;stroke-linejoin:miter;stroke-opacity:1"/>
<path class="bond-1" d="M 345.501,253.175 L 345.501,314.449" style="fill:none;fill-rule:evenodd;stroke:#000000;stroke-width:2.0px;stroke-linecap:butt;stroke-linejoin:miter;stroke-opacity:1"/>
<path class="bond-1" d="M 345.501,314.449 L 345.501,375.723" style="fill:none;fill-rule:evenodd;stroke:#FF0000;stroke-width:2.0px;stroke-linecap:butt;stroke-linejoin:miter;stroke-opacity:1"/>
<path class="bond-2" d="M 331.464,253.175 L 383.994,222.847" style="fill:none;fill-rule:evenodd;stroke:#000000;stroke-width:2.0px;stroke-linecap:butt;stroke-linejoin:miter;stroke-opacity:1"/>
<path class="bond-2" d="M 383.994,222.847 L 436.524,192.518" style="fill:none;fill-rule:evenodd;stroke:#FF0000;stroke-width:2.0px;stroke-linecap:butt;stroke-linejoin:miter;stroke-opacity:1"/>
<path class="bond-3" d="M 469.543,192.518 L 522.074,222.847" style="fill:none;fill-rule:evenodd;stroke:#FF0000;stroke-width:2.0px;stroke-linecap:butt;stroke-linejoin:miter;stroke-opacity:1"/>
<path class="bond-3" d="M 522.074,222.847 L 574.604,253.175" style="fill:none;fill-rule:evenodd;stroke:#000000;stroke-width:2.0px;stroke-linecap:butt;stroke-linejoin:miter;stroke-opacity:1"/>
<path class="bond-4" d="M 574.604,253.175 L 696.174,182.987" style="fill:none;fill-rule:evenodd;stroke:#000000;stroke-width:2.0px;stroke-linecap:butt;stroke-linejoin:miter;stroke-opacity:1"/>
<path class="bond-5" d="M 560.566,253.175 L 560.566,314.449" style="fill:none;fill-rule:evenodd;stroke:#000000;stroke-width:2.0px;stroke-linecap:butt;stroke-linejoin:miter;stroke-opacity:1"/>
<path class="bond-5" d="M 560.566,314.449 L 560.566,375.723" style="fill:none;fill-rule:evenodd;stroke:#FF0000;stroke-width:2.0px;stroke-linecap:butt;stroke-linejoin:miter;stroke-opacity:1"/>
<path class="bond-5" d="M 588.642,253.175 L 588.642,314.449" style="fill:none;fill-rule:evenodd;stroke:#000000;stroke-width:2.0px;stroke-linecap:butt;stroke-linejoin:miter;stroke-opacity:1"/>
<path class="bond-5" d="M 588.642,314.449 L 588.642,375.723" style="fill:none;fill-rule:evenodd;stroke:#FF0000;stroke-width:2.0px;stroke-linecap:butt;stroke-linejoin:miter;stroke-opacity:1"/>
<path class="bond-6" d="M 1122.35,360.258 L 1176.02,329.277" style="fill:none;fill-rule:evenodd;stroke:#0000FF;stroke-width:2.0px;stroke-linecap:butt;stroke-linejoin:miter;stroke-opacity:1"/>
<path class="bond-6" d="M 1176.02,329.277 L 1229.68,298.296" style="fill:none;fill-rule:evenodd;stroke:#000000;stroke-width:2.0px;stroke-linecap:butt;stroke-linejoin:miter;stroke-opacity:1"/>
<path class="bond-7" d="M 1229.68,298.296 L 1229.68,157.919" style="fill:none;fill-rule:evenodd;stroke:#000000;stroke-width:2.0px;stroke-linecap:butt;stroke-linejoin:miter;stroke-opacity:1"/>
<path class="bond-7" d="M 1257.75,277.24 L 1257.75,178.976" style="fill:none;fill-rule:evenodd;stroke:#000000;stroke-width:2.0px;stroke-linecap:butt;stroke-linejoin:miter;stroke-opacity:1;stroke-dasharray:6,6"/>
<path class="bond-13" d="M 1229.68,298.296 L 1351.25,368.485" style="fill:none;fill-rule:evenodd;stroke:#000000;stroke-width:2.0px;stroke-linecap:butt;stroke-linejoin:miter;stroke-opacity:1"/>
<path class="bond-13" d="M 1261.95,284.511 L 1347.05,333.643" style="fill:none;fill-rule:evenodd;stroke:#000000;stroke-width:2.0px;stroke-linecap:butt;stroke-linejoin:miter;stroke-opacity:1;stroke-dasharray:6,6"/>
<path class="bond-8" d="M 1229.68,157.919 L 1351.25,87.7308" style="fill:none;fill-rule:evenodd;stroke:#000000;stroke-width:2.0px;stroke-linecap:butt;stroke-linejoin:miter;stroke-opacity:1"/>
<path class="bond-8" d="M 1261.95,171.705 L 1347.05,122.573" style="fill:none;fill-rule:evenodd;stroke:#000000;stroke-width:2.0px;stroke-linecap:butt;stroke-linejoin:miter;stroke-opacity:1;stroke-dasharray:6,6"/>
<path class="bond-9" d="M 1351.25,87.7308 L 1472.82,157.919" style="fill:none;fill-rule:evenodd;stroke:#000000;stroke-width:2.0px;stroke-linecap:butt;stroke-linejoin:miter;stroke-opacity:1"/>
<path class="bond-9" d="M 1355.44,122.573 L 1440.54,171.705" style="fill:none;fill-rule:evenodd;stroke:#000000;stroke-width:2.0px;stroke-linecap:butt;stroke-linejoin:miter;stroke-opacity:1;stroke-dasharray:6,6"/>
<path class="bond-10" d="M 1472.82,157.919 L 1472.82,298.296" style="fill:none;fill-rule:evenodd;stroke:#000000;stroke-width:2.0px;stroke-linecap:butt;stroke-linejoin:miter;stroke-opacity:1"/>
<path class="bond-10" d="M 1444.74,178.976 L 1444.74,277.24" style="fill:none;fill-rule:evenodd;stroke:#000000;stroke-width:2.0px;stroke-linecap:butt;stroke-linejoin:miter;stroke-opacity:1;stroke-dasharray:6,6"/>
<path class="bond-11" d="M 1472.82,298.296 L 1525.35,328.625" style="fill:none;fill-rule:evenodd;stroke:#000000;stroke-width:2.0px;stroke-linecap:butt;stroke-linejoin:miter;stroke-opacity:1"/>
<path class="bond-11" d="M 1525.35,328.625 L 1577.88,358.953" style="fill:none;fill-rule:evenodd;stroke:#FF0000;stroke-width:2.0px;stroke-linecap:butt;stroke-linejoin:miter;stroke-opacity:1"/>
<path class="bond-12" d="M 1472.82,298.296 L 1351.25,368.485" style="fill:none;fill-rule:evenodd;stroke:#000000;stroke-width:2.0px;stroke-linecap:butt;stroke-linejoin:miter;stroke-opacity:1"/>
<path class="bond-12" d="M 1440.54,284.511 L 1355.44,333.643" style="fill:none;fill-rule:evenodd;stroke:#000000;stroke-width:2.0px;stroke-linecap:butt;stroke-linejoin:miter;stroke-opacity:1;stroke-dasharray:6,6"/>
<path class="bond-14" d="M 2441.5,333.391 L 2563.07,263.202" style="fill:none;fill-rule:evenodd;stroke:#000000;stroke-width:2.0px;stroke-linecap:butt;stroke-linejoin:miter;stroke-opacity:1"/>
<path class="bond-15" d="M 2556.05,275.359 L 2608.58,305.688" style="fill:none;fill-rule:evenodd;stroke:#000000;stroke-width:2.0px;stroke-linecap:butt;stroke-linejoin:miter;stroke-opacity:1"/>
<path class="bond-15" d="M 2608.58,305.688 L 2661.11,336.016" style="fill:none;fill-rule:evenodd;stroke:#FF0000;stroke-width:2.0px;stroke-linecap:butt;stroke-linejoin:miter;stroke-opacity:1"/>
<path class="bond-15" d="M 2570.09,251.045 L 2622.62,281.374" style="fill:none;fill-rule:evenodd;stroke:#000000;stroke-width:2.0px;stroke-linecap:butt;stroke-linejoin:miter;stroke-opacity:1"/>
<path class="bond-15" d="M 2622.62,281.374 L 2675.15,311.702" style="fill:none;fill-rule:evenodd;stroke:#FF0000;stroke-width:2.0px;stroke-linecap:butt;stroke-linejoin:miter;stroke-opacity:1"/>
<path class="bond-16" d="M 2563.07,263.202 L 2563.07,202.148" style="fill:none;fill-rule:evenodd;stroke:#000000;stroke-width:2.0px;stroke-linecap:butt;stroke-linejoin:miter;stroke-opacity:1"/>
<path class="bond-16" d="M 2563.07,202.148 L 2563.07,141.094" style="fill:none;fill-rule:evenodd;stroke:#FF0000;stroke-width:2.0px;stroke-linecap:butt;stroke-linejoin:miter;stroke-opacity:1"/>
<path class="bond-17" d="M 3044.92,346.412 L 3169.84,282.379" style="fill:none;fill-rule:evenodd;stroke:#000000;stroke-width:2.0px;stroke-linecap:butt;stroke-linejoin:miter;stroke-opacity:1"/>
<path class="bond-18" d="M 3183.86,283.079 L 3186.91,222.113" style="fill:none;fill-rule:evenodd;stroke:#000000;stroke-width:2.0px;stroke-linecap:butt;stroke-linejoin:miter;stroke-opacity:1"/>
<path class="bond-18" d="M 3186.91,222.113 L 3189.95,161.147" style="fill:none;fill-rule:evenodd;stroke:#FF0000;stroke-width:2.0px;stroke-linecap:butt;stroke-linejoin:miter;stroke-opacity:1"/>
<path class="bond-18" d="M 3155.82,281.678 L 3158.87,220.712" style="fill:none;fill-rule:evenodd;stroke:#000000;stroke-width:2.0px;stroke-linecap:butt;stroke-linejoin:miter;stroke-opacity:1"/>
<path class="bond-18" d="M 3158.87,220.712 L 3161.91,159.745" style="fill:none;fill-rule:evenodd;stroke:#FF0000;stroke-width:2.0px;stroke-linecap:butt;stroke-linejoin:miter;stroke-opacity:1"/>
<path class="bond-19" d="M 3169.84,282.379 L 3221.67,315.861" style="fill:none;fill-rule:evenodd;stroke:#000000;stroke-width:2.0px;stroke-linecap:butt;stroke-linejoin:miter;stroke-opacity:1"/>
<path class="bond-19" d="M 3221.67,315.861 L 3273.51,349.343" style="fill:none;fill-rule:evenodd;stroke:#0000FF;stroke-width:2.0px;stroke-linecap:butt;stroke-linejoin:miter;stroke-opacity:1"/>
<path class="bond-20" d="M 3302.01,351.244 L 3357.34,322.879" style="fill:none;fill-rule:evenodd;stroke:#0000FF;stroke-width:2.0px;stroke-linecap:butt;stroke-linejoin:miter;stroke-opacity:1"/>
<path class="bond-20" d="M 3357.34,322.879 L 3412.68,294.515" style="fill:none;fill-rule:evenodd;stroke:#000000;stroke-width:2.0px;stroke-linecap:butt;stroke-linejoin:miter;stroke-opacity:1"/>
<path class="bond-21" d="M 3412.68,294.515 L 3419.68,154.312" style="fill:none;fill-rule:evenodd;stroke:#000000;stroke-width:2.0px;stroke-linecap:butt;stroke-linejoin:miter;stroke-opacity:1"/>
<path class="bond-21" d="M 3441.77,274.886 L 3446.67,176.744" style="fill:none;fill-rule:evenodd;stroke:#000000;stroke-width:2.0px;stroke-linecap:butt;stroke-linejoin:miter;stroke-opacity:1;stroke-dasharray:6,6"/>
<path class="bond-27" d="M 3412.68,294.515 L 3530.59,370.684" style="fill:none;fill-rule:evenodd;stroke:#000000;stroke-width:2.0px;stroke-linecap:butt;stroke-linejoin:miter;stroke-opacity:1"/>
<path class="bond-27" d="M 3445.6,282.357 L 3528.14,335.675" style="fill:none;fill-rule:evenodd;stroke:#000000;stroke-width:2.0px;stroke-linecap:butt;stroke-linejoin:miter;stroke-opacity:1;stroke-dasharray:6,6"/>
<path class="bond-22" d="M 3419.68,154.312 L 3544.61,90.2794" style="fill:none;fill-rule:evenodd;stroke:#000000;stroke-width:2.0px;stroke-linecap:butt;stroke-linejoin:miter;stroke-opacity:1"/>
<path class="bond-22" d="M 3451.23,169.692 L 3538.67,124.869" style="fill:none;fill-rule:evenodd;stroke:#000000;stroke-width:2.0px;stroke-linecap:butt;stroke-linejoin:miter;stroke-opacity:1;stroke-dasharray:6,6"/>
<path class="bond-23" d="M 3544.61,90.2794 L 3662.52,166.448" style="fill:none;fill-rule:evenodd;stroke:#000000;stroke-width:2.0px;stroke-linecap:butt;stroke-linejoin:miter;stroke-opacity:1"/>
<path class="bond-23" d="M 3547.06,125.288 L 3629.6,178.606" style="fill:none;fill-rule:evenodd;stroke:#000000;stroke-width:2.0px;stroke-linecap:butt;stroke-linejoin:miter;stroke-opacity:1;stroke-dasharray:6,6"/>
<path class="bond-24" d="M 3662.52,166.448 L 3655.52,306.651" style="fill:none;fill-rule:evenodd;stroke:#000000;stroke-width:2.0px;stroke-linecap:butt;stroke-linejoin:miter;stroke-opacity:1"/>
<path class="bond-24" d="M 3633.43,186.077 L 3628.53,284.219" style="fill:none;fill-rule:evenodd;stroke:#000000;stroke-width:2.0px;stroke-linecap:butt;stroke-linejoin:miter;stroke-opacity:1;stroke-dasharray:6,6"/>
<path class="bond-25" d="M 3655.52,306.651 L 3706.22,339.403" style="fill:none;fill-rule:evenodd;stroke:#000000;stroke-width:2.0px;stroke-linecap:butt;stroke-linejoin:miter;stroke-opacity:1"/>
<path class="bond-25" d="M 3706.22,339.403 L 3756.92,372.155" style="fill:none;fill-rule:evenodd;stroke:#FF0000;stroke-width:2.0px;stroke-linecap:butt;stroke-linejoin:miter;stroke-opacity:1"/>
<path class="bond-26" d="M 3655.52,306.651 L 3530.59,370.684" style="fill:none;fill-rule:evenodd;stroke:#000000;stroke-width:2.0px;stroke-linecap:butt;stroke-linejoin:miter;stroke-opacity:1"/>
<path class="bond-26" d="M 3623.97,291.271 L 3536.52,336.094" style="fill:none;fill-rule:evenodd;stroke:#000000;stroke-width:2.0px;stroke-linecap:butt;stroke-linejoin:miter;stroke-opacity:1;stroke-dasharray:6,6"/>
<path class="atom-2" d="M 318.464 393.632 Q 318.464 386.832, 321.824 383.032 Q 325.184 379.232, 331.464 379.232 Q 337.744 379.232, 341.104 383.032 Q 344.464 386.832, 344.464 393.632 Q 344.464 400.512, 341.064 404.432 Q 337.664 408.312, 331.464 408.312 Q 325.224 408.312, 321.824 404.432 Q 318.464 400.552, 318.464 393.632 M 331.464 405.112 Q 335.784 405.112, 338.104 402.232 Q 340.464 399.312, 340.464 393.632 Q 340.464 388.072, 338.104 385.272 Q 335.784 382.432, 331.464 382.432 Q 327.144 382.432, 324.784 385.232 Q 322.464 388.032, 322.464 393.632 Q 322.464 399.352, 324.784 402.232 Q 327.144 405.112, 331.464 405.112 " fill="#FF0000"/>
<path class="atom-3" d="M 440.034 183.067 Q 440.034 176.267, 443.394 172.467 Q 446.754 168.667, 453.034 168.667 Q 459.314 168.667, 462.674 172.467 Q 466.034 176.267, 466.034 183.067 Q 466.034 189.947, 462.634 193.867 Q 459.234 197.747, 453.034 197.747 Q 446.794 197.747, 443.394 193.867 Q 440.034 189.987, 440.034 183.067 M 453.034 194.547 Q 457.354 194.547, 459.674 191.667 Q 462.034 188.747, 462.034 183.067 Q 462.034 177.507, 459.674 174.707 Q 457.354 171.867, 453.034 171.867 Q 448.714 171.867, 446.354 174.667 Q 444.034 177.467, 444.034 183.067 Q 444.034 188.787, 446.354 191.667 Q 448.714 194.547, 453.034 194.547 " fill="#FF0000"/>
<path class="atom-6" d="M 561.604 393.632 Q 561.604 386.832, 564.964 383.032 Q 568.324 379.232, 574.604 379.232 Q 580.884 379.232, 584.244 383.032 Q 587.604 386.832, 587.604 393.632 Q 587.604 400.512, 584.204 404.432 Q 580.804 408.312, 574.604 408.312 Q 568.364 408.312, 564.964 404.432 Q 561.604 400.552, 561.604 393.632 M 574.604 405.112 Q 578.924 405.112, 581.244 402.232 Q 583.604 399.312, 583.604 393.632 Q 583.604 388.072, 581.244 385.272 Q 578.924 382.432, 574.604 382.432 Q 570.284 382.432, 567.924 385.232 Q 565.604 388.032, 565.604 393.632 Q 565.604 399.352, 567.924 402.232 Q 570.284 405.112, 574.604 405.112 " fill="#FF0000"/>
<path class="atom-7" d="M 1057.97 354.325 L 1061.81 354.325 L 1061.81 366.365 L 1076.29 366.365 L 1076.29 354.325 L 1080.13 354.325 L 1080.13 382.645 L 1076.29 382.645 L 1076.29 369.565 L 1061.81 369.565 L 1061.81 382.645 L 1057.97 382.645 L 1057.97 354.325 " fill="#0000FF"/>
<path class="atom-7" d="M 1081.51 381.651 Q 1082.19 379.883, 1083.83 378.906 Q 1085.47 377.903, 1087.74 377.903 Q 1090.56 377.903, 1092.14 379.434 Q 1093.73 380.965, 1093.73 383.684 Q 1093.73 386.456, 1091.67 389.043 Q 1089.64 391.631, 1085.41 394.693 L 1094.05 394.693 L 1094.05 396.805 L 1081.45 396.805 L 1081.45 395.036 Q 1084.94 392.555, 1087 390.707 Q 1089.08 388.859, 1090.09 387.195 Q 1091.09 385.532, 1091.09 383.816 Q 1091.09 382.021, 1090.19 381.018 Q 1089.29 380.015, 1087.74 380.015 Q 1086.23 380.015, 1085.23 380.622 Q 1084.22 381.229, 1083.51 382.575 L 1081.51 381.651 " fill="#0000FF"/>
<path class="atom-7" d="M 1101.85 354.325 L 1111.13 369.325 Q 1112.05 370.805, 1113.53 373.485 Q 1115.01 376.165, 1115.09 376.325 L 1115.09 354.325 L 1118.85 354.325 L 1118.85 382.645 L 1114.97 382.645 L 1105.01 366.245 Q 1103.85 364.325, 1102.61 362.125 Q 1101.41 359.925, 1101.05 359.245 L 1101.05 382.645 L 1097.37 382.645 L 1097.37 354.325 L 1101.85 354.325 " fill="#0000FF"/>
<path class="atom-13" d="M 1581.39 368.565 Q 1581.39 361.765, 1584.75 357.965 Q 1588.11 354.165, 1594.39 354.165 Q 1600.67 354.165, 1604.03 357.965 Q 1607.39 361.765, 1607.39 368.565 Q 1607.39 375.445, 1603.99 379.365 Q 1600.59 383.245, 1594.39 383.245 Q 1588.15 383.245, 1584.75 379.365 Q 1581.39 375.485, 1581.39 368.565 M 1594.39 380.045 Q 1598.71 380.045, 1601.03 377.165 Q 1603.39 374.245, 1603.39 368.565 Q 1603.39 363.005, 1601.03 360.205 Q 1598.71 357.365, 1594.39 357.365 Q 1590.07 357.365, 1587.71 360.165 Q 1585.39 362.965, 1585.39 368.565 Q 1585.39 374.285, 1587.71 377.165 Q 1590.07 380.045, 1594.39 380.045 " fill="#FF0000"/>
<path class="atom-13" d="M 1610.79 354.485 L 1614.63 354.485 L 1614.63 366.525 L 1629.11 366.525 L 1629.11 354.485 L 1632.95 354.485 L 1632.95 382.805 L 1629.11 382.805 L 1629.11 369.725 L 1614.63 369.725 L 1614.63 382.805 L 1610.79 382.805 L 1610.79 354.485 " fill="#FF0000"/>
<path class="atom-17" d="M 2671.64 333.471 Q 2671.64 326.671, 2675 322.871 Q 2678.36 319.071, 2684.64 319.071 Q 2690.92 319.071, 2694.28 322.871 Q 2697.64 326.671, 2697.64 333.471 Q 2697.64 340.351, 2694.24 344.271 Q 2690.84 348.151, 2684.64 348.151 Q 2678.4 348.151, 2675 344.271 Q 2671.64 340.391, 2671.64 333.471 M 2684.64 344.951 Q 2688.96 344.951, 2691.28 342.071 Q 2693.64 339.151, 2693.64 333.471 Q 2693.64 327.911, 2691.28 325.111 Q 2688.96 322.271, 2684.64 322.271 Q 2680.32 322.271, 2677.96 325.071 Q 2675.64 327.871, 2675.64 333.471 Q 2675.64 339.191, 2677.96 342.071 Q 2680.32 344.951, 2684.64 344.951 " fill="#FF0000"/>
<path class="atom-18" d="M 2550.07 122.905 Q 2550.07 116.105, 2553.43 112.305 Q 2556.79 108.505, 2563.07 108.505 Q 2569.35 108.505, 2572.71 112.305 Q 2576.07 116.105, 2576.07 122.905 Q 2576.07 129.785, 2572.67 133.705 Q 2569.27 137.585, 2563.07 137.585 Q 2556.83 137.585, 2553.43 133.705 Q 2550.07 129.825, 2550.07 122.905 M 2563.07 134.385 Q 2567.39 134.385, 2569.71 131.505 Q 2572.07 128.585, 2572.07 122.905 Q 2572.07 117.345, 2569.71 114.545 Q 2567.39 111.705, 2563.07 111.705 Q 2558.75 111.705, 2556.39 114.505 Q 2554.07 117.305, 2554.07 122.905 Q 2554.07 128.625, 2556.39 131.505 Q 2558.75 134.385, 2563.07 134.385 " fill="#FF0000"/>
<path class="atom-18" d="M 2579.47 108.825 L 2583.31 108.825 L 2583.31 120.865 L 2597.79 120.865 L 2597.79 108.825 L 2601.63 108.825 L 2601.63 137.145 L 2597.79 137.145 L 2597.79 124.065 L 2583.31 124.065 L 2583.31 137.145 L 2579.47 137.145 L 2579.47 108.825 " fill="#FF0000"/>
<path class="atom-21" d="M 3163.85 142.257 Q 3163.85 135.457, 3167.21 131.657 Q 3170.57 127.857, 3176.85 127.857 Q 3183.13 127.857, 3186.49 131.657 Q 3189.85 135.457, 3189.85 142.257 Q 3189.85 149.137, 3186.45 153.057 Q 3183.05 156.937, 3176.85 156.937 Q 3170.61 156.937, 3167.21 153.057 Q 3163.85 149.177, 3163.85 142.257 M 3176.85 153.737 Q 3181.17 153.737, 3183.49 150.857 Q 3185.85 147.937, 3185.85 142.257 Q 3185.85 136.697, 3183.49 133.897 Q 3181.17 131.057, 3176.85 131.057 Q 3172.53 131.057, 3170.17 133.857 Q 3167.85 136.657, 3167.85 142.257 Q 3167.85 147.977, 3170.17 150.857 Q 3172.53 153.737, 3176.85 153.737 " fill="#FF0000"/>
<path class="atom-22" d="M 3281.5 344.388 L 3290.78 359.388 Q 3291.7 360.868, 3293.18 363.548 Q 3294.66 366.228, 3294.74 366.388 L 3294.74 344.388 L 3298.5 344.388 L 3298.5 372.708 L 3294.62 372.708 L 3284.66 356.308 Q 3283.5 354.388, 3282.26 352.188 Q 3281.06 349.988, 3280.7 349.308 L 3280.7 372.708 L 3277.02 372.708 L 3277.02 344.388 L 3281.5 344.388 " fill="#0000FF"/>
<path class="atom-22" d="M 3276.68 375.54 L 3280.52 375.54 L 3280.52 387.58 L 3295 387.58 L 3295 375.54 L 3298.84 375.54 L 3298.84 403.86 L 3295 403.86 L 3295 390.78 L 3280.52 390.78 L 3280.52 403.86 L 3276.68 403.86 L 3276.68 375.54 " fill="#0000FF"/>
<path class="atom-28" d="M 3760.43 382.9 Q 3760.43 376.1, 3763.79 372.3 Q 3767.15 368.5, 3773.43 368.5 Q 3779.71 368.5, 3783.07 372.3 Q 3786.43 376.1, 3786.43 382.9 Q 3786.43 389.78, 3783.03 393.7 Q 3779.63 397.58, 3773.43 397.58 Q 3767.19 397.58, 3763.79 393.7 Q 3760.43 389.82, 3760.43 382.9 M 3773.43 394.38 Q 3777.75 394.38, 3780.07 391.5 Q 3782.43 388.58, 3782.43 382.9 Q 3782.43 377.34, 3780.07 374.54 Q 3777.75 371.7, 3773.43 371.7 Q 3769.11 371.7, 3766.75 374.5 Q 3764.43 377.3, 3764.43 382.9 Q 3764.43 388.62, 3766.75 391.5 Q 3769.11 394.38, 3773.43 394.38 " fill="#FF0000"/>
<path class="atom-28" d="M 3789.83 368.82 L 3793.67 368.82 L 3793.67 380.86 L 3808.15 380.86 L 3808.15 368.82 L 3811.99 368.82 L 3811.99 397.14 L 3808.15 397.14 L 3808.15 384.06 L 3793.67 384.06 L 3793.67 397.14 L 3789.83 397.14 L 3789.83 368.82 " fill="#FF0000"/>
<path class="note" d="M 194.706 208.768 L 197.806 208.768 L 197.806 198.188 L 194.386 199.248 L 193.926 198.068 L 198.266 196.128 L 199.686 196.368 L 199.686 208.768 L 202.466 208.768 L 202.466 210.368 L 194.706 210.368 L 194.706 208.768 " fill="#000000"/>
<path class="note" d="M 326.734 225.459 Q 327.254 224.119, 328.494 223.379 Q 329.734 222.619, 331.454 222.619 Q 333.594 222.619, 334.794 223.779 Q 335.994 224.939, 335.994 226.999 Q 335.994 229.099, 334.434 231.059 Q 332.894 233.019, 329.694 235.339 L 336.234 235.339 L 336.234 236.939 L 326.694 236.939 L 326.694 235.599 Q 329.334 233.719, 330.894 232.319 Q 332.474 230.919, 333.234 229.659 Q 333.994 228.399, 333.994 227.099 Q 333.994 225.739, 333.314 224.979 Q 332.634 224.219, 331.454 224.219 Q 330.314 224.219, 329.554 224.679 Q 328.794 225.139, 328.254 226.159 L 326.734 225.459 " fill="#000000"/>
<path class="note" d="M 333.504 440.045 Q 334.884 440.445, 335.544 441.345 Q 336.224 442.225, 336.224 443.625 Q 336.224 444.825, 335.624 445.765 Q 335.024 446.685, 333.924 447.205 Q 332.824 447.705, 331.384 447.705 Q 329.864 447.705, 328.724 447.185 Q 327.604 446.645, 326.704 445.565 L 327.844 444.405 Q 328.724 445.365, 329.464 445.745 Q 330.204 446.105, 331.384 446.105 Q 332.664 446.105, 333.444 445.425 Q 334.224 444.725, 334.224 443.605 Q 334.224 442.165, 333.404 441.525 Q 332.604 440.865, 330.864 440.865 L 329.844 440.865 L 329.844 439.425 L 330.744 439.425 Q 332.284 439.405, 333.104 438.745 Q 333.924 438.065, 333.924 436.805 Q 333.924 435.885, 333.244 435.345 Q 332.564 434.785, 331.404 434.785 Q 330.224 434.785, 329.484 435.205 Q 328.764 435.625, 328.204 436.685 L 326.824 435.945 Q 327.324 434.765, 328.524 433.985 Q 329.724 433.185, 331.404 433.185 Q 333.484 433.185, 334.704 434.165 Q 335.924 435.145, 335.924 436.805 Q 335.924 437.945, 335.304 438.765 Q 334.684 439.585, 333.504 440.045 " fill="#000000"/>
<path class="note" d="M 440.024 141.714 L 443.124 141.714 L 443.124 131.134 L 439.704 132.194 L 439.244 131.014 L 443.584 129.074 L 445.004 129.314 L 445.004 141.714 L 447.784 141.714 L 447.784 143.314 L 440.024 143.314 L 440.024 141.714 " fill="#000000"/>
<path class="note" d="M 453.844 134.454 Q 455.084 134.454, 456.104 134.994 Q 457.124 135.514, 457.704 136.514 Q 458.284 137.494, 458.284 138.834 Q 458.284 140.294, 457.564 141.354 Q 456.864 142.394, 455.704 142.934 Q 454.544 143.474, 453.224 143.474 Q 451.924 143.474, 450.724 142.994 Q 449.524 142.514, 448.704 141.594 L 449.904 140.354 Q 450.564 141.074, 451.464 141.474 Q 452.364 141.854, 453.284 141.854 Q 454.544 141.854, 455.404 141.074 Q 456.284 140.294, 456.284 138.874 Q 456.284 137.374, 455.404 136.674 Q 454.544 135.954, 453.164 135.954 Q 451.924 135.954, 450.544 136.494 L 449.444 135.974 L 450.124 129.154 L 457.404 129.154 L 457.204 130.754 L 451.764 130.754 L 451.344 134.954 Q 452.604 134.454, 453.844 134.454 " fill="#000000"/>
<path class="note" d="M 561.664 211.943 L 564.764 211.943 L 564.764 201.363 L 561.344 202.423 L 560.884 201.243 L 565.224 199.303 L 566.644 199.543 L 566.644 211.943 L 569.424 211.943 L 569.424 213.543 L 561.664 213.543 L 561.664 211.943 " fill="#000000"/>
<path class="note" d="M 577.064 206.083 Q 578.444 206.483, 579.104 207.383 Q 579.784 208.263, 579.784 209.663 Q 579.784 210.863, 579.184 211.803 Q 578.584 212.723, 577.484 213.243 Q 576.384 213.743, 574.944 213.743 Q 573.424 213.743, 572.284 213.223 Q 571.164 212.683, 570.264 211.603 L 571.404 210.443 Q 572.284 211.403, 573.024 211.783 Q 573.764 212.143, 574.944 212.143 Q 576.224 212.143, 577.004 211.463 Q 577.784 210.763, 577.784 209.643 Q 577.784 208.203, 576.964 207.563 Q 576.164 206.903, 574.424 206.903 L 573.404 206.903 L 573.404 205.463 L 574.304 205.463 Q 575.844 205.443, 576.664 204.783 Q 577.484 204.103, 577.484 202.843 Q 577.484 201.923, 576.804 201.383 Q 576.124 200.823, 574.964 200.823 Q 573.784 200.823, 573.044 201.243 Q 572.324 201.663, 571.764 202.723 L 570.384 201.983 Q 570.884 200.803, 572.084 200.023 Q 573.284 199.223, 574.964 199.223 Q 577.044 199.223, 578.264 200.203 Q 579.484 201.183, 579.484 202.843 Q 579.484 203.983, 578.864 204.803 Q 578.244 205.623, 577.064 206.083 " fill="#000000"/>
<path class="note" d="M 671.446 168.285 L 674.546 168.285 L 674.546 157.705 L 671.126 158.765 L 670.666 157.585 L 675.006 155.645 L 676.426 155.885 L 676.426 168.285 L 679.206 168.285 L 679.206 169.885 L 671.446 169.885 L 671.446 168.285 " fill="#000000"/>
<path class="note" d="M 680.246 158.405 Q 680.766 157.065, 682.006 156.325 Q 683.246 155.565, 684.966 155.565 Q 687.106 155.565, 688.306 156.725 Q 689.506 157.885, 689.506 159.945 Q 689.506 162.045, 687.946 164.005 Q 686.406 165.965, 683.206 168.285 L 689.746 168.285 L 689.746 169.885 L 680.206 169.885 L 680.206 168.545 Q 682.846 166.665, 684.406 165.265 Q 685.986 163.865, 686.746 162.605 Q 687.506 161.345, 687.506 160.045 Q 687.506 158.685, 686.826 157.925 Q 686.146 157.165, 684.966 157.165 Q 683.826 157.165, 683.066 157.625 Q 682.306 158.085, 681.766 159.105 L 680.246 158.405 " fill="#000000"/>
<path class="note" d="M 561.094 445.865 L 564.194 445.865 L 564.194 435.285 L 560.774 436.345 L 560.314 435.165 L 564.654 433.225 L 566.074 433.465 L 566.074 445.865 L 568.854 445.865 L 568.854 447.465 L 561.094 447.465 L 561.094 445.865 " fill="#000000"/>
<path class="note" d="M 578.654 442.605 L 580.354 442.605 L 580.354 444.205 L 578.654 444.205 L 578.654 447.465 L 576.774 447.465 L 576.774 444.205 L 569.454 444.205 L 569.454 442.945 L 575.654 433.305 L 578.654 433.305 L 578.654 442.605 M 571.774 442.605 L 576.774 442.605 L 576.774 434.585 L 571.774 442.605 " fill="#000000"/>
<path class="note" d="M 1111.86 417.497 L 1113.56 417.497 L 1113.56 419.097 L 1111.86 419.097 L 1111.86 422.357 L 1109.98 422.357 L 1109.98 419.097 L 1102.66 419.097 L 1102.66 417.837 L 1108.86 408.197 L 1111.86 408.197 L 1111.86 417.497 M 1104.98 417.497 L 1109.98 417.497 L 1109.98 409.477 L 1104.98 417.497 " fill="#000000"/>
<path class="note" d="M 1209.76 284.818 Q 1211 284.818, 1212.02 285.358 Q 1213.04 285.878, 1213.62 286.878 Q 1214.2 287.858, 1214.2 289.198 Q 1214.2 290.658, 1213.48 291.718 Q 1212.78 292.758, 1211.62 293.298 Q 1210.46 293.838, 1209.14 293.838 Q 1207.84 293.838, 1206.64 293.358 Q 1205.44 292.878, 1204.62 291.958 L 1205.82 290.718 Q 1206.48 291.438, 1207.38 291.838 Q 1208.28 292.218, 1209.2 292.218 Q 1210.46 292.218, 1211.32 291.438 Q 1212.2 290.658, 1212.2 289.238 Q 1212.2 287.738, 1211.32 287.038 Q 1210.46 286.318, 1209.08 286.318 Q 1207.84 286.318, 1206.46 286.858 L 1205.36 286.338 L 1206.04 279.518 L 1213.32 279.518 L 1213.12 281.118 L 1207.68 281.118 L 1207.26 285.318 Q 1208.52 284.818, 1209.76 284.818 " fill="#000000"/>
<path class="note" d="M 1210.04 144.541 Q 1211.28 144.541, 1212.26 145.081 Q 1213.24 145.621, 1213.78 146.601 Q 1214.32 147.581, 1214.32 148.821 Q 1214.32 150.201, 1213.7 151.281 Q 1213.1 152.341, 1212.02 152.941 Q 1210.94 153.541, 1209.56 153.541 Q 1207.04 153.541, 1205.76 151.841 Q 1204.5 150.121, 1204.5 146.721 Q 1204.5 142.961, 1206.06 141.021 Q 1207.64 139.061, 1210.66 139.061 Q 1211.54 139.061, 1212.28 139.261 Q 1213.04 139.461, 1213.76 139.881 L 1212.98 141.221 Q 1211.94 140.661, 1210.68 140.661 Q 1208.68 140.661, 1207.66 141.961 Q 1206.64 143.241, 1206.52 145.901 Q 1207.24 145.241, 1208.14 144.901 Q 1209.06 144.541, 1210.04 144.541 M 1209.58 151.901 Q 1210.34 151.901, 1210.96 151.501 Q 1211.6 151.101, 1211.96 150.401 Q 1212.32 149.701, 1212.32 148.841 Q 1212.32 147.581, 1211.62 146.861 Q 1210.92 146.141, 1209.68 146.141 Q 1208.82 146.141, 1207.96 146.501 Q 1207.12 146.841, 1206.52 147.441 Q 1206.6 149.781, 1207.34 150.841 Q 1208.08 151.901, 1209.58 151.901 " fill="#000000"/>
<path class="note" d="M 1353.97 58.8546 L 1346.55 58.8546 L 1346.55 57.2546 L 1355.95 57.2546 L 1355.95 58.6746 L 1350.23 71.4146 L 1348.31 71.4146 L 1353.97 58.8546 " fill="#000000"/>
<path class="note" d="M 1495.3 145.881 Q 1496.6 146.441, 1497.34 147.281 Q 1498.08 148.101, 1498.08 149.501 Q 1498.08 150.701, 1497.46 151.641 Q 1496.84 152.561, 1495.72 153.081 Q 1494.62 153.581, 1493.16 153.581 Q 1490.8 153.581, 1489.44 152.501 Q 1488.08 151.401, 1488.08 149.501 Q 1488.08 148.341, 1488.68 147.481 Q 1489.28 146.601, 1490.52 145.941 Q 1489.6 145.421, 1489.1 144.661 Q 1488.6 143.881, 1488.6 142.681 Q 1488.6 141.021, 1489.8 140.041 Q 1491.02 139.061, 1493.08 139.061 Q 1495.14 139.061, 1496.34 140.041 Q 1497.56 141.021, 1497.56 142.681 Q 1497.56 143.721, 1496.98 144.501 Q 1496.42 145.261, 1495.3 145.881 M 1493.08 140.561 Q 1491.9 140.561, 1491.24 141.121 Q 1490.6 141.681, 1490.6 142.681 Q 1490.6 143.421, 1491.04 143.921 Q 1491.48 144.401, 1492.1 144.681 Q 1492.74 144.961, 1493.96 145.381 Q 1494.82 144.781, 1495.18 144.141 Q 1495.56 143.501, 1495.56 142.681 Q 1495.56 141.681, 1494.9 141.121 Q 1494.26 140.561, 1493.08 140.561 M 1493.16 152.081 Q 1494.48 152.081, 1495.28 151.381 Q 1496.08 150.661, 1496.08 149.481 Q 1496.08 148.721, 1495.66 148.241 Q 1495.24 147.761, 1494.6 147.481 Q 1493.98 147.201, 1492.86 146.841 L 1491.96 146.541 Q 1490.96 147.141, 1490.52 147.861 Q 1490.08 148.561, 1490.08 149.481 Q 1490.08 150.661, 1490.92 151.381 Q 1491.76 152.081, 1493.16 152.081 " fill="#000000"/>
<path class="note" d="M 1492.93 279.438 Q 1495.45 279.438, 1496.71 281.158 Q 1497.99 282.858, 1497.99 286.258 Q 1497.99 290.018, 1496.41 291.978 Q 1494.85 293.918, 1491.83 293.918 Q 1490.95 293.918, 1490.19 293.718 Q 1489.45 293.518, 1488.73 293.098 L 1489.51 291.758 Q 1490.55 292.318, 1491.81 292.318 Q 1493.81 292.318, 1494.83 291.038 Q 1495.85 289.738, 1495.97 287.078 Q 1495.25 287.738, 1494.33 288.098 Q 1493.43 288.438, 1492.45 288.438 Q 1491.21 288.438, 1490.23 287.898 Q 1489.25 287.358, 1488.71 286.378 Q 1488.17 285.398, 1488.17 284.158 Q 1488.17 282.778, 1488.77 281.718 Q 1489.39 280.638, 1490.47 280.038 Q 1491.55 279.438, 1492.93 279.438 M 1490.17 284.138 Q 1490.17 285.398, 1490.87 286.118 Q 1491.57 286.838, 1492.81 286.838 Q 1493.67 286.838, 1494.51 286.498 Q 1495.37 286.138, 1495.97 285.538 Q 1495.89 283.198, 1495.15 282.138 Q 1494.41 281.078, 1492.91 281.078 Q 1492.15 281.078, 1491.51 281.478 Q 1490.89 281.878, 1490.53 282.578 Q 1490.17 283.278, 1490.17 284.138 " fill="#000000"/>
<path class="note" d="M 1604.23 333.522 L 1607.33 333.522 L 1607.33 322.942 L 1603.91 324.002 L 1603.45 322.822 L 1607.79 320.882 L 1609.21 321.122 L 1609.21 333.522 L 1611.99 333.522 L 1611.99 335.122 L 1604.23 335.122 L 1604.23 333.522 " fill="#000000"/>
<path class="note" d="M 1618.39 335.282 Q 1615.79 335.282, 1614.49 333.362 Q 1613.21 331.442, 1613.21 328.022 Q 1613.21 324.602, 1614.49 322.702 Q 1615.77 320.802, 1618.39 320.802 Q 1621.01 320.802, 1622.29 322.702 Q 1623.57 324.602, 1623.57 328.022 Q 1623.57 331.442, 1622.27 333.362 Q 1620.99 335.282, 1618.39 335.282 M 1618.39 333.682 Q 1619.93 333.682, 1620.75 332.262 Q 1621.57 330.822, 1621.57 328.022 Q 1621.57 325.242, 1620.75 323.822 Q 1619.93 322.402, 1618.39 322.402 Q 1616.87 322.402, 1616.03 323.822 Q 1615.21 325.242, 1615.21 328.022 Q 1615.21 330.822, 1616.03 332.262 Q 1616.87 333.682, 1618.39 333.682 " fill="#000000"/>
<path class="note" d="M 1338.68 397.401 L 1341.78 397.401 L 1341.78 386.821 L 1338.36 387.881 L 1337.9 386.701 L 1342.24 384.761 L 1343.66 385.001 L 1343.66 397.401 L 1346.44 397.401 L 1346.44 399.001 L 1338.68 399.001 L 1338.68 397.401 " fill="#000000"/>
<path class="note" d="M 1348.3 397.401 L 1351.4 397.401 L 1351.4 386.821 L 1347.98 387.881 L 1347.52 386.701 L 1351.86 384.761 L 1353.28 385.001 L 1353.28 397.401 L 1356.06 397.401 L 1356.06 399.001 L 1348.3 399.001 L 1348.3 397.401 " fill="#000000"/>
<path class="note" d="M 2440.16 359.212 L 2443.26 359.212 L 2443.26 348.632 L 2439.84 349.692 L 2439.38 348.512 L 2443.72 346.572 L 2445.14 346.812 L 2445.14 359.212 L 2447.92 359.212 L 2447.92 360.812 L 2440.16 360.812 L 2440.16 359.212 " fill="#000000"/>
<path class="note" d="M 2448.96 349.332 Q 2449.48 347.992, 2450.72 347.252 Q 2451.96 346.492, 2453.68 346.492 Q 2455.82 346.492, 2457.02 347.652 Q 2458.22 348.812, 2458.22 350.872 Q 2458.22 352.972, 2456.66 354.932 Q 2455.12 356.892, 2451.92 359.212 L 2458.46 359.212 L 2458.46 360.812 L 2448.92 360.812 L 2448.92 359.472 Q 2451.56 357.592, 2453.12 356.192 Q 2454.7 354.792, 2455.46 353.532 Q 2456.22 352.272, 2456.22 350.972 Q 2456.22 349.612, 2455.54 348.852 Q 2454.86 348.092, 2453.68 348.092 Q 2452.54 348.092, 2451.78 348.552 Q 2451.02 349.012, 2450.48 350.032 L 2448.96 349.332 " fill="#000000"/>
<path class="note" d="M 2538.43 248.5 L 2541.53 248.5 L 2541.53 237.92 L 2538.11 238.98 L 2537.65 237.8 L 2541.99 235.86 L 2543.41 236.1 L 2543.41 248.5 L 2546.19 248.5 L 2546.19 250.1 L 2538.43 250.1 L 2538.43 248.5 " fill="#000000"/>
<path class="note" d="M 2553.83 242.64 Q 2555.21 243.04, 2555.87 243.94 Q 2556.55 244.82, 2556.55 246.22 Q 2556.55 247.42, 2555.95 248.36 Q 2555.35 249.28, 2554.25 249.8 Q 2553.15 250.3, 2551.71 250.3 Q 2550.19 250.3, 2549.05 249.78 Q 2547.93 249.24, 2547.03 248.16 L 2548.17 247 Q 2549.05 247.96, 2549.79 248.34 Q 2550.53 248.7, 2551.71 248.7 Q 2552.99 248.7, 2553.77 248.02 Q 2554.55 247.32, 2554.55 246.2 Q 2554.55 244.76, 2553.73 244.12 Q 2552.93 243.46, 2551.19 243.46 L 2550.17 243.46 L 2550.17 242.02 L 2551.07 242.02 Q 2552.61 242, 2553.43 241.34 Q 2554.25 240.66, 2554.25 239.4 Q 2554.25 238.48, 2553.57 237.94 Q 2552.89 237.38, 2551.73 237.38 Q 2550.55 237.38, 2549.81 237.8 Q 2549.09 238.22, 2548.53 239.28 L 2547.15 238.54 Q 2547.65 237.36, 2548.85 236.58 Q 2550.05 235.78, 2551.73 235.78 Q 2553.81 235.78, 2555.03 236.76 Q 2556.25 237.74, 2556.25 239.4 Q 2556.25 240.54, 2555.63 241.36 Q 2555.01 242.18, 2553.83 242.64 " fill="#000000"/>
<path class="note" d="M 2711.65 362.307 L 2714.75 362.307 L 2714.75 351.727 L 2711.33 352.787 L 2710.87 351.607 L 2715.21 349.667 L 2716.63 349.907 L 2716.63 362.307 L 2719.41 362.307 L 2719.41 363.907 L 2711.65 363.907 L 2711.65 362.307 " fill="#000000"/>
<path class="note" d="M 2729.21 359.047 L 2730.91 359.047 L 2730.91 360.647 L 2729.21 360.647 L 2729.21 363.907 L 2727.33 363.907 L 2727.33 360.647 L 2720.01 360.647 L 2720.01 359.387 L 2726.21 349.747 L 2729.21 349.747 L 2729.21 359.047 M 2722.33 359.047 L 2727.33 359.047 L 2727.33 351.027 L 2722.33 359.047 " fill="#000000"/>
<path class="note" d="M 2550.06 81.5527 L 2553.16 81.5527 L 2553.16 70.9727 L 2549.74 72.0327 L 2549.28 70.8527 L 2553.62 68.9127 L 2555.04 69.1527 L 2555.04 81.5527 L 2557.82 81.5527 L 2557.82 83.1527 L 2550.06 83.1527 L 2550.06 81.5527 " fill="#000000"/>
<path class="note" d="M 2563.88 74.2927 Q 2565.12 74.2927, 2566.14 74.8327 Q 2567.16 75.3527, 2567.74 76.3527 Q 2568.32 77.3327, 2568.32 78.6727 Q 2568.32 80.1327, 2567.6 81.1927 Q 2566.9 82.2327, 2565.74 82.7727 Q 2564.58 83.3127, 2563.26 83.3127 Q 2561.96 83.3127, 2560.76 82.8327 Q 2559.56 82.3527, 2558.74 81.4327 L 2559.94 80.1927 Q 2560.6 80.9127, 2561.5 81.3127 Q 2562.4 81.6927, 2563.32 81.6927 Q 2564.58 81.6927, 2565.44 80.9127 Q 2566.32 80.1327, 2566.32 78.7127 Q 2566.32 77.2127, 2565.44 76.5127 Q 2564.58 75.7927, 2563.2 75.7927 Q 2561.96 75.7927, 2560.58 76.3327 L 2559.48 75.8127 L 2560.16 68.9927 L 2567.44 68.9927 L 2567.24 70.5927 L 2561.8 70.5927 L 2561.38 74.7927 Q 2562.64 74.2927, 2563.88 74.2927 " fill="#000000"/>
<path class="note" d="M 3052.1 372.752 L 3055.2 372.752 L 3055.2 362.172 L 3051.78 363.232 L 3051.32 362.052 L 3055.66 360.112 L 3057.08 360.352 L 3057.08 372.752 L 3059.86 372.752 L 3059.86 374.352 L 3052.1 374.352 L 3052.1 372.752 " fill="#000000"/>
<path class="note" d="M 3163.94 301.426 Q 3164.46 300.086, 3165.7 299.346 Q 3166.94 298.586, 3168.66 298.586 Q 3170.8 298.586, 3172 299.746 Q 3173.2 300.906, 3173.2 302.966 Q 3173.2 305.066, 3171.64 307.026 Q 3170.1 308.986, 3166.9 311.306 L 3173.44 311.306 L 3173.44 312.906 L 3163.9 312.906 L 3163.9 311.566 Q 3166.54 309.686, 3168.1 308.286 Q 3169.68 306.886, 3170.44 305.626 Q 3171.2 304.366, 3171.2 303.066 Q 3171.2 301.706, 3170.52 300.946 Q 3169.84 300.186, 3168.66 300.186 Q 3167.52 300.186, 3166.76 300.646 Q 3166 301.106, 3165.46 302.126 L 3163.94 301.426 " fill="#000000"/>
<path class="note" d="M 3181.22 95.1425 Q 3182.6 95.5425, 3183.26 96.4425 Q 3183.94 97.3225, 3183.94 98.7225 Q 3183.94 99.9225, 3183.34 100.863 Q 3182.74 101.783, 3181.64 102.303 Q 3180.54 102.803, 3179.1 102.803 Q 3177.58 102.803, 3176.44 102.283 Q 3175.32 101.743, 3174.42 100.663 L 3175.56 99.5025 Q 3176.44 100.463, 3177.18 100.843 Q 3177.92 101.203, 3179.1 101.203 Q 3180.38 101.203, 3181.16 100.523 Q 3181.94 99.8225, 3181.94 98.7025 Q 3181.94 97.2625, 3181.12 96.6225 Q 3180.32 95.9625, 3178.58 95.9625 L 3177.56 95.9625 L 3177.56 94.5225 L 3178.46 94.5225 Q 3180 94.5025, 3180.82 93.8425 Q 3181.64 93.1625, 3181.64 91.9025 Q 3181.64 90.9825, 3180.96 90.4425 Q 3180.28 89.8825, 3179.12 89.8825 Q 3177.94 89.8825, 3177.2 90.3025 Q 3176.48 90.7225, 3175.92 91.7825 L 3174.54 91.0425 Q 3175.04 89.8625, 3176.24 89.0825 Q 3177.44 88.2825, 3179.12 88.2825 Q 3181.2 88.2825, 3182.42 89.2625 Q 3183.64 90.2425, 3183.64 91.9025 Q 3183.64 93.0425, 3183.02 93.8625 Q 3182.4 94.6825, 3181.22 95.1425 " fill="#000000"/>
<path class="note" d="M 3330.81 386.157 L 3332.51 386.157 L 3332.51 387.757 L 3330.81 387.757 L 3330.81 391.017 L 3328.93 391.017 L 3328.93 387.757 L 3321.61 387.757 L 3321.61 386.497 L 3327.81 376.857 L 3330.81 376.857 L 3330.81 386.157 M 3323.93 386.157 L 3328.93 386.157 L 3328.93 378.137 L 3323.93 386.157 " fill="#000000"/>
<path class="note" d="M 3393.38 280.04 Q 3394.62 280.04, 3395.64 280.58 Q 3396.66 281.1, 3397.24 282.1 Q 3397.82 283.08, 3397.82 284.42 Q 3397.82 285.88, 3397.1 286.94 Q 3396.4 287.98, 3395.24 288.52 Q 3394.08 289.06, 3392.76 289.06 Q 3391.46 289.06, 3390.26 288.58 Q 3389.06 288.1, 3388.24 287.18 L 3389.44 285.94 Q 3390.1 286.66, 3391 287.06 Q 3391.9 287.44, 3392.82 287.44 Q 3394.08 287.44, 3394.94 286.66 Q 3395.82 285.88, 3395.82 284.46 Q 3395.82 282.96, 3394.94 282.26 Q 3394.08 281.54, 3392.7 281.54 Q 3391.46 281.54, 3390.08 282.08 L 3388.98 281.56 L 3389.66 274.74 L 3396.94 274.74 L 3396.74 276.34 L 3391.3 276.34 L 3390.88 280.54 Q 3392.14 280.04, 3393.38 280.04 " fill="#000000"/>
<path class="note" d="M 3400.66 139.938 Q 3401.9 139.938, 3402.88 140.478 Q 3403.86 141.018, 3404.4 141.998 Q 3404.94 142.978, 3404.94 144.218 Q 3404.94 145.598, 3404.32 146.678 Q 3403.72 147.738, 3402.64 148.338 Q 3401.56 148.938, 3400.18 148.938 Q 3397.66 148.938, 3396.38 147.238 Q 3395.12 145.518, 3395.12 142.118 Q 3395.12 138.358, 3396.68 136.418 Q 3398.26 134.458, 3401.28 134.458 Q 3402.16 134.458, 3402.9 134.658 Q 3403.66 134.858, 3404.38 135.278 L 3403.6 136.618 Q 3402.56 136.058, 3401.3 136.058 Q 3399.3 136.058, 3398.28 137.358 Q 3397.26 138.638, 3397.14 141.298 Q 3397.86 140.638, 3398.76 140.298 Q 3399.68 139.938, 3400.66 139.938 M 3400.2 147.298 Q 3400.96 147.298, 3401.58 146.898 Q 3402.22 146.498, 3402.58 145.798 Q 3402.94 145.098, 3402.94 144.238 Q 3402.94 142.978, 3402.24 142.258 Q 3401.54 141.538, 3400.3 141.538 Q 3399.44 141.538, 3398.58 141.898 Q 3397.74 142.238, 3397.14 142.838 Q 3397.22 145.178, 3397.96 146.238 Q 3398.7 147.298, 3400.2 147.298 " fill="#000000"/>
<path class="note" d="M 3548.49 61.4324 L 3541.07 61.4324 L 3541.07 59.8324 L 3550.47 59.8324 L 3550.47 61.2524 L 3544.75 73.9924 L 3542.83 73.9924 L 3548.49 61.4324 " fill="#000000"/>
<path class="note" d="M 3685.56 155.436 Q 3686.86 155.996, 3687.6 156.836 Q 3688.34 157.656, 3688.34 159.056 Q 3688.34 160.256, 3687.72 161.196 Q 3687.1 162.116, 3685.98 162.636 Q 3684.88 163.136, 3683.42 163.136 Q 3681.06 163.136, 3679.7 162.056 Q 3678.34 160.956, 3678.34 159.056 Q 3678.34 157.896, 3678.94 157.036 Q 3679.54 156.156, 3680.78 155.496 Q 3679.86 154.976, 3679.36 154.216 Q 3678.86 153.436, 3678.86 152.236 Q 3678.86 150.576, 3680.06 149.596 Q 3681.28 148.616, 3683.34 148.616 Q 3685.4 148.616, 3686.6 149.596 Q 3687.82 150.576, 3687.82 152.236 Q 3687.82 153.276, 3687.24 154.056 Q 3686.68 154.816, 3685.56 155.436 M 3683.34 150.116 Q 3682.16 150.116, 3681.5 150.676 Q 3680.86 151.236, 3680.86 152.236 Q 3680.86 152.976, 3681.3 153.476 Q 3681.74 153.956, 3682.36 154.236 Q 3683 154.516, 3684.22 154.936 Q 3685.08 154.336, 3685.44 153.696 Q 3685.82 153.056, 3685.82 152.236 Q 3685.82 151.236, 3685.16 150.676 Q 3684.52 150.116, 3683.34 150.116 M 3683.42 161.636 Q 3684.74 161.636, 3685.54 160.936 Q 3686.34 160.216, 3686.34 159.036 Q 3686.34 158.276, 3685.92 157.796 Q 3685.5 157.316, 3684.86 157.036 Q 3684.24 156.756, 3683.12 156.396 L 3682.22 156.096 Q 3681.22 156.696, 3680.78 157.416 Q 3680.34 158.116, 3680.34 159.036 Q 3680.34 160.216, 3681.18 160.936 Q 3682.02 161.636, 3683.42 161.636 " fill="#000000"/>
<path class="note" d="M 3676.19 288.818 Q 3678.71 288.818, 3679.97 290.538 Q 3681.25 292.238, 3681.25 295.638 Q 3681.25 299.398, 3679.67 301.358 Q 3678.11 303.298, 3675.09 303.298 Q 3674.21 303.298, 3673.45 303.098 Q 3672.71 302.898, 3671.99 302.478 L 3672.77 301.138 Q 3673.81 301.698, 3675.07 301.698 Q 3677.07 301.698, 3678.09 300.418 Q 3679.11 299.118, 3679.23 296.458 Q 3678.51 297.118, 3677.59 297.478 Q 3676.69 297.818, 3675.71 297.818 Q 3674.47 297.818, 3673.49 297.278 Q 3672.51 296.738, 3671.97 295.758 Q 3671.43 294.778, 3671.43 293.538 Q 3671.43 292.158, 3672.03 291.098 Q 3672.65 290.018, 3673.73 289.418 Q 3674.81 288.818, 3676.19 288.818 M 3673.43 293.518 Q 3673.43 294.778, 3674.13 295.498 Q 3674.83 296.218, 3676.07 296.218 Q 3676.93 296.218, 3677.77 295.878 Q 3678.63 295.518, 3679.23 294.918 Q 3679.15 292.578, 3678.41 291.518 Q 3677.67 290.458, 3676.17 290.458 Q 3675.41 290.458, 3674.77 290.858 Q 3674.15 291.258, 3673.79 291.958 Q 3673.43 292.658, 3673.43 293.518 " fill="#000000"/>
<path class="note" d="M 3785.27 349.074 L 3788.37 349.074 L 3788.37 338.494 L 3784.95 339.554 L 3784.49 338.374 L 3788.83 336.434 L 3790.25 336.674 L 3790.25 349.074 L 3793.03 349.074 L 3793.03 350.674 L 3785.27 350.674 L 3785.27 349.074 " fill="#000000"/>
<path class="note" d="M 3799.43 350.834 Q 3796.83 350.834, 3795.53 348.914 Q 3794.25 346.994, 3794.25 343.574 Q 3794.25 340.154, 3795.53 338.254 Q 3796.81 336.354, 3799.43 336.354 Q 3802.05 336.354, 3803.33 338.254 Q 3804.61 340.154, 3804.61 343.574 Q 3804.61 346.994, 3803.31 348.914 Q 3802.03 350.834, 3799.43 350.834 M 3799.43 349.234 Q 3800.97 349.234, 3801.79 347.814 Q 3802.61 346.374, 3802.61 343.574 Q 3802.61 340.794, 3801.79 339.374 Q 3800.97 337.954, 3799.43 337.954 Q 3797.91 337.954, 3797.07 339.374 Q 3796.25 340.794, 3796.25 343.574 Q 3796.25 346.374, 3797.07 347.814 Q 3797.91 349.234, 3799.43 349.234 " fill="#000000"/>
<path class="note" d="M 3516.86 399.571 L 3519.96 399.571 L 3519.96 388.991 L 3516.54 390.051 L 3516.08 388.871 L 3520.42 386.931 L 3521.84 387.171 L 3521.84 399.571 L 3524.62 399.571 L 3524.62 401.171 L 3516.86 401.171 L 3516.86 399.571 " fill="#000000"/>
<path class="note" d="M 3526.48 399.571 L 3529.58 399.571 L 3529.58 388.991 L 3526.16 390.051 L 3525.7 388.871 L 3530.04 386.931 L 3531.46 387.171 L 3531.46 399.571 L 3534.24 399.571 L 3534.24 401.171 L 3526.48 401.171 L 3526.48 399.571 " fill="#000000"/>
<path d="M 879.372 238.366 L 885.42 238.366 L 885.42 231.998 L 888.108 231.998 L 888.108 238.366 L 894.316 238.366 L 894.316 240.67 L 888.108 240.67 L 888.108 247.07 L 885.42 247.07 L 885.42 240.67 L 879.372 240.67 L 879.372 238.366 " fill="#000000"/>
<path d="M 2876.37 238.366 L 2882.42 238.366 L 2882.42 231.998 L 2885.1 231.998 L 2885.1 238.366 L 2891.31 238.366 L 2891.31 240.67 L 2885.1 240.67 L 2885.1 247.07 L 2882.42 247.07 L 2882.42 240.67 L 2876.37 240.67 L 2876.37 238.366 " fill="#000000"/>
<path d="M 1829.7,240.67 L 2204.03,240.67" style="fill:none;fill-rule:evenodd;stroke:#000000;stroke-width:2.0px;stroke-linecap:butt;stroke-linejoin:miter;stroke-opacity:1"/>
<path d="M 2204.03,240.67 L 2187.82,231.311" style="fill:none;fill-rule:evenodd;stroke:#000000;stroke-width:2.0px;stroke-linecap:butt;stroke-linejoin:miter;stroke-opacity:1"/>
<path d="M 2204.03,240.67 L 2187.82,250.028" style="fill:none;fill-rule:evenodd;stroke:#000000;stroke-width:2.0px;stroke-linecap:butt;stroke-linejoin:miter;stroke-opacity:1"/>
</svg>