<svg xmlns="http://www.w3.org/2000/svg" xmlns:rdkit="http://www.rdkit.org/xml" xmlns:xlink="http://www.w3.org/1999/xlink" version="1.1" baseProfile="full" xml:space="preserve" width="4000px" height="500px" viewBox="0 0 4000 500">
<!-- END OF HEADER -->
<rect style="opacity:1.0;fill:#FFFFFF;stroke:none" width="4000" height="500" x="0" y="0"> </rect>
<path d="M 846.758,160.794 L 928.859,208.196" style="fill:none;fill-rule:evenodd;stroke:#FFFFAA;stroke-width:20.2px;stroke-linecap:butt;stroke-linejoin:miter;stroke-opacity:1"/>
<path d="M 928.859,208.196 L 928.859,302.999" style="fill:none;fill-rule:evenodd;stroke:#FFFFAA;stroke-width:20.2px;stroke-linecap:butt;stroke-linejoin:miter;stroke-opacity:1"/>
<path d="M 928.859,208.196 L 1010.96,160.794" style="fill:none;fill-rule:evenodd;stroke:#FFFFAA;stroke-width:20.2px;stroke-linecap:butt;stroke-linejoin:miter;stroke-opacity:1"/>
<path d="M 1010.96,160.794 L 1093.06,208.196" style="fill:none;fill-rule:evenodd;stroke:#FFFFAA;stroke-width:20.2px;stroke-linecap:butt;stroke-linejoin:miter;stroke-opacity:1"/>
<path d="M 1093.06,208.196 L 1175.16,160.794" style="fill:none;fill-rule:evenodd;stroke:#FFFFAA;stroke-width:20.2px;stroke-linecap:butt;stroke-linejoin:miter;stroke-opacity:1"/>
<path d="M 1093.06,208.196 L 1093.06,302.999" style="fill:none;fill-rule:evenodd;stroke:#FFFFAA;stroke-width:20.2px;stroke-linecap:butt;stroke-linejoin:miter;stroke-opacity:1"/>
<path d="M 1455.18,267.636 L 1537.28,220.234" style="fill:none;fill-rule:evenodd;stroke:#FFCC99;stroke-width:20.2px;stroke-linecap:butt;stroke-linejoin:miter;stroke-opacity:1"/>
<path d="M 1537.28,220.234 L 1537.28,125.431" style="fill:none;fill-rule:evenodd;stroke:#FFCC99;stroke-width:20.2px;stroke-linecap:butt;stroke-linejoin:miter;stroke-opacity:1"/>
<path d="M 1537.28,220.234 L 1619.38,267.636" style="fill:none;fill-rule:evenodd;stroke:#FFCC99;stroke-width:20.2px;stroke-linecap:butt;stroke-linejoin:miter;stroke-opacity:1"/>
<path d="M 1537.28,125.431 L 1619.38,78.0299" style="fill:none;fill-rule:evenodd;stroke:#FFCC99;stroke-width:20.2px;stroke-linecap:butt;stroke-linejoin:miter;stroke-opacity:1"/>
<path d="M 1619.38,78.0299 L 1701.49,125.431" style="fill:none;fill-rule:evenodd;stroke:#FFCC99;stroke-width:20.2px;stroke-linecap:butt;stroke-linejoin:miter;stroke-opacity:1"/>
<path d="M 1701.49,125.431 L 1701.49,220.234" style="fill:none;fill-rule:evenodd;stroke:#FFCC99;stroke-width:20.2px;stroke-linecap:butt;stroke-linejoin:miter;stroke-opacity:1"/>
<path d="M 1701.49,220.234 L 1783.59,267.636" style="fill:none;fill-rule:evenodd;stroke:#FFCC99;stroke-width:20.2px;stroke-linecap:butt;stroke-linejoin:miter;stroke-opacity:1"/>
<path d="M 1701.49,220.234 L 1619.38,267.636" style="fill:none;fill-rule:evenodd;stroke:#FFCC99;stroke-width:20.2px;stroke-linecap:butt;stroke-linejoin:miter;stroke-opacity:1"/>
<path d="M 1619.38,267.636 L 1619.38,362.439" style="fill:none;fill-rule:evenodd;stroke:#FFCC99;stroke-width:20.2px;stroke-linecap:butt;stroke-linejoin:miter;stroke-opacity:1"/>
<path d="M 2335.7,176.259 L 2425.71,146.502" style="fill:none;fill-rule:evenodd;stroke:#FFFFAA;stroke-width:20.2px;stroke-linecap:butt;stroke-linejoin:miter;stroke-opacity:1"/>
<path d="M 2425.71,146.502 L 2444.94,53.671" style="fill:none;fill-rule:evenodd;stroke:#FFFFAA;stroke-width:20.2px;stroke-linecap:butt;stroke-linejoin:miter;stroke-opacity:1"/>
<path d="M 2496.48,209.576 L 2586.5,179.819" style="fill:none;fill-rule:evenodd;stroke:#FFCC99;stroke-width:20.2px;stroke-linecap:butt;stroke-linejoin:miter;stroke-opacity:1"/>
<path d="M 2586.5,179.819 L 2605.73,86.9879" style="fill:none;fill-rule:evenodd;stroke:#FFCC99;stroke-width:20.2px;stroke-linecap:butt;stroke-linejoin:miter;stroke-opacity:1"/>
<path d="M 2586.5,179.819 L 2657.27,242.893" style="fill:none;fill-rule:evenodd;stroke:#FFCC99;stroke-width:20.2px;stroke-linecap:butt;stroke-linejoin:miter;stroke-opacity:1"/>
<path d="M 2605.73,86.9879 L 2695.74,57.2309" style="fill:none;fill-rule:evenodd;stroke:#FFCC99;stroke-width:20.2px;stroke-linecap:butt;stroke-linejoin:miter;stroke-opacity:1"/>
<path d="M 2695.74,57.2309 L 2766.52,120.305" style="fill:none;fill-rule:evenodd;stroke:#FFCC99;stroke-width:20.2px;stroke-linecap:butt;stroke-linejoin:miter;stroke-opacity:1"/>
<path d="M 2766.52,120.305 L 2747.28,213.136" style="fill:none;fill-rule:evenodd;stroke:#FFCC99;stroke-width:20.2px;stroke-linecap:butt;stroke-linejoin:miter;stroke-opacity:1"/>
<path d="M 2747.28,213.136 L 2818.06,276.21" style="fill:none;fill-rule:evenodd;stroke:#FFCC99;stroke-width:20.2px;stroke-linecap:butt;stroke-linejoin:miter;stroke-opacity:1"/>
<path d="M 2747.28,213.136 L 2657.27,242.893" style="fill:none;fill-rule:evenodd;stroke:#FFCC99;stroke-width:20.2px;stroke-linecap:butt;stroke-linejoin:miter;stroke-opacity:1"/>
<path d="M 2657.27,242.893 L 2638.04,335.724" style="fill:none;fill-rule:evenodd;stroke:#FFCC99;stroke-width:20.2px;stroke-linecap:butt;stroke-linejoin:miter;stroke-opacity:1"/>
<path d="M 2548.02,365.481 L 2528.79,458.312" style="fill:none;fill-rule:evenodd;stroke:#FFFFAA;stroke-width:20.2px;stroke-linecap:butt;stroke-linejoin:miter;stroke-opacity:1"/>
<path d="M 2548.02,365.481 L 2477.25,302.407" style="fill:none;fill-rule:evenodd;stroke:#FFFFAA;stroke-width:20.2px;stroke-linecap:butt;stroke-linejoin:miter;stroke-opacity:1"/>
<ellipse cx="846.758" cy="160.794" rx="18.9606" ry="18.9606" style="fill:#FFFFAA;fill-rule:evenodd;stroke:#FFFFAA;stroke-width:1px;stroke-linecap:butt;stroke-linejoin:miter;stroke-opacity:1"/>
<ellipse cx="928.859" cy="208.196" rx="18.9606" ry="18.9606" style="fill:#FFFFAA;fill-rule:evenodd;stroke:#FFFFAA;stroke-width:1px;stroke-linecap:butt;stroke-linejoin:miter;stroke-opacity:1"/>
<ellipse cx="928.859" cy="303.208" rx="18.9606" ry="19.494" style="fill:#FFFFAA;fill-rule:evenodd;stroke:#FFFFAA;stroke-width:1px;stroke-linecap:butt;stroke-linejoin:miter;stroke-opacity:1"/>
<ellipse cx="1010.96" cy="161.003" rx="18.9606" ry="19.494" style="fill:#FFFFAA;fill-rule:evenodd;stroke:#FFFFAA;stroke-width:1px;stroke-linecap:butt;stroke-linejoin:miter;stroke-opacity:1"/>
<ellipse cx="1093.06" cy="208.196" rx="18.9606" ry="18.9606" style="fill:#FFFFAA;fill-rule:evenodd;stroke:#FFFFAA;stroke-width:1px;stroke-linecap:butt;stroke-linejoin:miter;stroke-opacity:1"/>
<ellipse cx="1175.16" cy="160.794" rx="18.9606" ry="18.9606" style="fill:#FFFFAA;fill-rule:evenodd;stroke:#FFFFAA;stroke-width:1px;stroke-linecap:butt;stroke-linejoin:miter;stroke-opacity:1"/>
<ellipse cx="1093.06" cy="303.208" rx="18.9606" ry="19.494" style="fill:#FFFFAA;fill-rule:evenodd;stroke:#FFFFAA;stroke-width:1px;stroke-linecap:butt;stroke-linejoin:miter;stroke-opacity:1"/>
<ellipse cx="1436.51" cy="274.348" rx="40.8066" ry="28.4768" style="fill:#FFCC99;fill-rule:evenodd;stroke:#FFCC99;stroke-width:1px;stroke-linecap:butt;stroke-linejoin:miter;stroke-opacity:1"/>
<ellipse cx="1537.28" cy="220.234" rx="18.9606" ry="18.9606" style="fill:#FFCC99;fill-rule:evenodd;stroke:#FFCC99;stroke-width:1px;stroke-linecap:butt;stroke-linejoin:miter;stroke-opacity:1"/>
<ellipse cx="1537.28" cy="125.431" rx="18.9606" ry="18.9606" style="fill:#FFCC99;fill-rule:evenodd;stroke:#FFCC99;stroke-width:1px;stroke-linecap:butt;stroke-linejoin:miter;stroke-opacity:1"/>
<ellipse cx="1619.38" cy="78.0299" rx="18.9606" ry="18.9606" style="fill:#FFCC99;fill-rule:evenodd;stroke:#FFCC99;stroke-width:1px;stroke-linecap:butt;stroke-linejoin:miter;stroke-opacity:1"/>
<ellipse cx="1701.49" cy="125.431" rx="18.9606" ry="18.9606" style="fill:#FFCC99;fill-rule:evenodd;stroke:#FFCC99;stroke-width:1px;stroke-linecap:butt;stroke-linejoin:miter;stroke-opacity:1"/>
<ellipse cx="1701.49" cy="220.234" rx="18.9606" ry="18.9606" style="fill:#FFCC99;fill-rule:evenodd;stroke:#FFCC99;stroke-width:1px;stroke-linecap:butt;stroke-linejoin:miter;stroke-opacity:1"/>
<ellipse cx="1795.7" cy="267.844" rx="34.5637" ry="19.494" style="fill:#FFCC99;fill-rule:evenodd;stroke:#FFCC99;stroke-width:1px;stroke-linecap:butt;stroke-linejoin:miter;stroke-opacity:1"/>
<ellipse cx="1619.38" cy="267.636" rx="18.9606" ry="18.9606" style="fill:#FFCC99;fill-rule:evenodd;stroke:#FFCC99;stroke-width:1px;stroke-linecap:butt;stroke-linejoin:miter;stroke-opacity:1"/>
<ellipse cx="1638.1" cy="369.151" rx="40.8602" ry="28.4768" style="fill:#FFCC99;fill-rule:evenodd;stroke:#FFCC99;stroke-width:1px;stroke-linecap:butt;stroke-linejoin:miter;stroke-opacity:1"/>
<ellipse cx="2335.7" cy="176.259" rx="18.9606" ry="18.9606" style="fill:#FFFFAA;fill-rule:evenodd;stroke:#FFFFAA;stroke-width:1px;stroke-linecap:butt;stroke-linejoin:miter;stroke-opacity:1"/>
<ellipse cx="2425.71" cy="146.502" rx="18.9606" ry="18.9606" style="fill:#FFFFAA;fill-rule:evenodd;stroke:#FFFFAA;stroke-width:1px;stroke-linecap:butt;stroke-linejoin:miter;stroke-opacity:1"/>
<ellipse cx="2444.94" cy="53.8795" rx="18.9606" ry="19.494" style="fill:#FFFFAA;fill-rule:evenodd;stroke:#FFFFAA;stroke-width:1px;stroke-linecap:butt;stroke-linejoin:miter;stroke-opacity:1"/>
<ellipse cx="2496.48" cy="224.343" rx="18.9606" ry="39.8676" style="fill:#FFCC99;fill-rule:evenodd;stroke:#FFCC99;stroke-width:1px;stroke-linecap:butt;stroke-linejoin:miter;stroke-opacity:1"/>
<ellipse cx="2586.5" cy="179.819" rx="18.9606" ry="18.9606" style="fill:#FFCC99;fill-rule:evenodd;stroke:#FFCC99;stroke-width:1px;stroke-linecap:butt;stroke-linejoin:miter;stroke-opacity:1"/>
<ellipse cx="2605.73" cy="86.9879" rx="18.9606" ry="18.9606" style="fill:#FFCC99;fill-rule:evenodd;stroke:#FFCC99;stroke-width:1px;stroke-linecap:butt;stroke-linejoin:miter;stroke-opacity:1"/>
<ellipse cx="2695.74" cy="57.2309" rx="18.9606" ry="18.9606" style="fill:#FFCC99;fill-rule:evenodd;stroke:#FFCC99;stroke-width:1px;stroke-linecap:butt;stroke-linejoin:miter;stroke-opacity:1"/>
<ellipse cx="2766.52" cy="120.305" rx="18.9606" ry="18.9606" style="fill:#FFCC99;fill-rule:evenodd;stroke:#FFCC99;stroke-width:1px;stroke-linecap:butt;stroke-linejoin:miter;stroke-opacity:1"/>
<ellipse cx="2747.28" cy="213.136" rx="18.9606" ry="18.9606" style="fill:#FFCC99;fill-rule:evenodd;stroke:#FFCC99;stroke-width:1px;stroke-linecap:butt;stroke-linejoin:miter;stroke-opacity:1"/>
<ellipse cx="2830.18" cy="276.419" rx="34.5637" ry="19.494" style="fill:#FFCC99;fill-rule:evenodd;stroke:#FFCC99;stroke-width:1px;stroke-linecap:butt;stroke-linejoin:miter;stroke-opacity:1"/>
<ellipse cx="2657.27" cy="242.893" rx="18.9606" ry="18.9606" style="fill:#FFCC99;fill-rule:evenodd;stroke:#FFCC99;stroke-width:1px;stroke-linecap:butt;stroke-linejoin:miter;stroke-opacity:1"/>
<ellipse cx="2650.15" cy="335.724" rx="31.5337" ry="18.9846" style="fill:#FFCC99;fill-rule:evenodd;stroke:#FFCC99;stroke-width:1px;stroke-linecap:butt;stroke-linejoin:miter;stroke-opacity:1"/>
<ellipse cx="2548.02" cy="365.481" rx="18.9606" ry="18.9606" style="fill:#FFFFAA;fill-rule:evenodd;stroke:#FFFFAA;stroke-width:1px;stroke-linecap:butt;stroke-linejoin:miter;stroke-opacity:1"/>
<ellipse cx="2528.79" cy="458.312" rx="18.9606" ry="18.9606" style="fill:#FFFFAA;fill-rule:evenodd;stroke:#FFFFAA;stroke-width:1px;stroke-linecap:butt;stroke-linejoin:miter;stroke-opacity:1"/>
<ellipse cx="2477.25" cy="302.616" rx="18.9606" ry="19.494" style="fill:#FFFFAA;fill-rule:evenodd;stroke:#FFFFAA;stroke-width:1px;stroke-linecap:butt;stroke-linejoin:miter;stroke-opacity:1"/>
<ellipse cx="3130.27" cy="221.68" rx="42.9517" ry="28.6913" style="fill:#FFFFAA;fill-rule:evenodd;stroke:#FFFFAA;stroke-width:1px;stroke-linecap:butt;stroke-linejoin:miter;stroke-opacity:1"/>
<path class="bond-0" d="M 846.758,160.794 L 928.859,208.196" style="fill:none;fill-rule:evenodd;stroke:#000000;stroke-width:2.0px;stroke-linecap:butt;stroke-linejoin:miter;stroke-opacity:1"/>
<path class="bond-1" d="M 919.379,208.196 L 919.379,247.625" style="fill:none;fill-rule:evenodd;stroke:#000000;stroke-width:2.0px;stroke-linecap:butt;stroke-linejoin:miter;stroke-opacity:1"/>
<path class="bond-1" d="M 919.379,247.625 L 919.379,287.053" style="fill:none;fill-rule:evenodd;stroke:#FF0000;stroke-width:2.0px;stroke-linecap:butt;stroke-linejoin:miter;stroke-opacity:1"/>
<path class="bond-1" d="M 938.34,208.196 L 938.34,247.625" style="fill:none;fill-rule:evenodd;stroke:#000000;stroke-width:2.0px;stroke-linecap:butt;stroke-linejoin:miter;stroke-opacity:1"/>
<path class="bond-1" d="M 938.34,247.625 L 938.34,287.053" style="fill:none;fill-rule:evenodd;stroke:#FF0000;stroke-width:2.0px;stroke-linecap:butt;stroke-linejoin:miter;stroke-opacity:1"/>
<path class="bond-2" d="M 928.859,208.196 L 962.563,188.737" style="fill:none;fill-rule:evenodd;stroke:#000000;stroke-width:2.0px;stroke-linecap:butt;stroke-linejoin:miter;stroke-opacity:1"/>
<path class="bond-2" d="M 962.563,188.737 L 996.267,169.278" style="fill:none;fill-rule:evenodd;stroke:#FF0000;stroke-width:2.0px;stroke-linecap:butt;stroke-linejoin:miter;stroke-opacity:1"/>
<path class="bond-3" d="M 1025.66,169.278 L 1059.36,188.737" style="fill:none;fill-rule:evenodd;stroke:#FF0000;stroke-width:2.0px;stroke-linecap:butt;stroke-linejoin:miter;stroke-opacity:1"/>
<path class="bond-3" d="M 1059.36,188.737 L 1093.06,208.196" style="fill:none;fill-rule:evenodd;stroke:#000000;stroke-width:2.0px;stroke-linecap:butt;stroke-linejoin:miter;stroke-opacity:1"/>
<path class="bond-4" d="M 1093.06,208.196 L 1175.16,160.794" style="fill:none;fill-rule:evenodd;stroke:#000000;stroke-width:2.0px;stroke-linecap:butt;stroke-linejoin:miter;stroke-opacity:1"/>
<path class="bond-5" d="M 1083.58,208.196 L 1083.58,247.625" style="fill:none;fill-rule:evenodd;stroke:#000000;stroke-width:2.0px;stroke-linecap:butt;stroke-linejoin:miter;stroke-opacity:1"/>
<path class="bond-5" d="M 1083.58,247.625 L 1083.58,287.053" style="fill:none;fill-rule:evenodd;stroke:#FF0000;stroke-width:2.0px;stroke-linecap:butt;stroke-linejoin:miter;stroke-opacity:1"/>
<path class="bond-5" d="M 1102.54,208.196 L 1102.54,247.625" style="fill:none;fill-rule:evenodd;stroke:#000000;stroke-width:2.0px;stroke-linecap:butt;stroke-linejoin:miter;stroke-opacity:1"/>
<path class="bond-5" d="M 1102.54,247.625 L 1102.54,287.053" style="fill:none;fill-rule:evenodd;stroke:#FF0000;stroke-width:2.0px;stroke-linecap:butt;stroke-linejoin:miter;stroke-opacity:1"/>
<path class="bond-6" d="M 1467.73,260.389 L 1502.51,240.312" style="fill:none;fill-rule:evenodd;stroke:#0000FF;stroke-width:2.0px;stroke-linecap:butt;stroke-linejoin:miter;stroke-opacity:1"/>
<path class="bond-6" d="M 1502.51,240.312 L 1537.28,220.234" style="fill:none;fill-rule:evenodd;stroke:#000000;stroke-width:2.0px;stroke-linecap:butt;stroke-linejoin:miter;stroke-opacity:1"/>
<path class="bond-7" d="M 1537.28,220.234 L 1537.28,125.431" style="fill:none;fill-rule:evenodd;stroke:#000000;stroke-width:2.0px;stroke-linecap:butt;stroke-linejoin:miter;stroke-opacity:1"/>
<path class="bond-7" d="M 1556.24,206.014 L 1556.24,139.652" style="fill:none;fill-rule:evenodd;stroke:#000000;stroke-width:2.0px;stroke-linecap:butt;stroke-linejoin:miter;stroke-opacity:1;stroke-dasharray:6,6"/>
<path class="bond-14" d="M 1537.28,220.234 L 1619.38,267.636" style="fill:none;fill-rule:evenodd;stroke:#000000;stroke-width:2.0px;stroke-linecap:butt;stroke-linejoin:miter;stroke-opacity:1"/>
<path class="bond-14" d="M 1559.08,210.924 L 1616.55,244.105" style="fill:none;fill-rule:evenodd;stroke:#000000;stroke-width:2.0px;stroke-linecap:butt;stroke-linejoin:miter;stroke-opacity:1;stroke-dasharray:6,6"/>
<path class="bond-8" d="M 1537.28,125.431 L 1619.38,78.0299" style="fill:none;fill-rule:evenodd;stroke:#000000;stroke-width:2.0px;stroke-linecap:butt;stroke-linejoin:miter;stroke-opacity:1"/>
<path class="bond-8" d="M 1559.08,134.742 L 1616.55,101.56" style="fill:none;fill-rule:evenodd;stroke:#000000;stroke-width:2.0px;stroke-linecap:butt;stroke-linejoin:miter;stroke-opacity:1;stroke-dasharray:6,6"/>
<path class="bond-9" d="M 1619.38,78.0299 L 1701.49,125.431" style="fill:none;fill-rule:evenodd;stroke:#000000;stroke-width:2.0px;stroke-linecap:butt;stroke-linejoin:miter;stroke-opacity:1"/>
<path class="bond-9" d="M 1622.22,101.56 L 1679.69,134.742" style="fill:none;fill-rule:evenodd;stroke:#000000;stroke-width:2.0px;stroke-linecap:butt;stroke-linejoin:miter;stroke-opacity:1;stroke-dasharray:6,6"/>
<path class="bond-10" d="M 1701.49,125.431 L 1701.49,220.234" style="fill:none;fill-rule:evenodd;stroke:#000000;stroke-width:2.0px;stroke-linecap:butt;stroke-linejoin:miter;stroke-opacity:1"/>
<path class="bond-10" d="M 1682.53,139.652 L 1682.53,206.014" style="fill:none;fill-rule:evenodd;stroke:#000000;stroke-width:2.0px;stroke-linecap:butt;stroke-linejoin:miter;stroke-opacity:1;stroke-dasharray:6,6"/>
<path class="bond-11" d="M 1701.49,220.234 L 1735.19,239.693" style="fill:none;fill-rule:evenodd;stroke:#000000;stroke-width:2.0px;stroke-linecap:butt;stroke-linejoin:miter;stroke-opacity:1"/>
<path class="bond-11" d="M 1735.19,239.693 L 1768.89,259.152" style="fill:none;fill-rule:evenodd;stroke:#FF0000;stroke-width:2.0px;stroke-linecap:butt;stroke-linejoin:miter;stroke-opacity:1"/>
<path class="bond-12" d="M 1701.49,220.234 L 1619.38,267.636" style="fill:none;fill-rule:evenodd;stroke:#000000;stroke-width:2.0px;stroke-linecap:butt;stroke-linejoin:miter;stroke-opacity:1"/>
<path class="bond-12" d="M 1679.69,210.924 L 1622.22,244.105" style="fill:none;fill-rule:evenodd;stroke:#000000;stroke-width:2.0px;stroke-linecap:butt;stroke-linejoin:miter;stroke-opacity:1;stroke-dasharray:6,6"/>
<path class="bond-13" d="M 1619.38,267.636 L 1619.38,307.14" style="fill:none;fill-rule:evenodd;stroke:#000000;stroke-width:2.0px;stroke-linecap:butt;stroke-linejoin:miter;stroke-opacity:1"/>
<path class="bond-13" d="M 1619.38,307.14 L 1619.38,346.645" style="fill:none;fill-rule:evenodd;stroke:#0000FF;stroke-width:2.0px;stroke-linecap:butt;stroke-linejoin:miter;stroke-opacity:1"/>
<path class="bond-15" d="M 2335.7,176.259 L 2425.71,146.502" style="fill:none;fill-rule:evenodd;stroke:#000000;stroke-width:2.0px;stroke-linecap:butt;stroke-linejoin:miter;stroke-opacity:1"/>
<path class="bond-16" d="M 2434.99,148.426 L 2442.91,110.192" style="fill:none;fill-rule:evenodd;stroke:#000000;stroke-width:2.0px;stroke-linecap:butt;stroke-linejoin:miter;stroke-opacity:1"/>
<path class="bond-16" d="M 2442.91,110.192 L 2450.84,71.9575" style="fill:none;fill-rule:evenodd;stroke:#FF0000;stroke-width:2.0px;stroke-linecap:butt;stroke-linejoin:miter;stroke-opacity:1"/>
<path class="bond-16" d="M 2416.42,144.578 L 2424.35,106.344" style="fill:none;fill-rule:evenodd;stroke:#000000;stroke-width:2.0px;stroke-linecap:butt;stroke-linejoin:miter;stroke-opacity:1"/>
<path class="bond-16" d="M 2424.35,106.344 L 2432.27,68.1104" style="fill:none;fill-rule:evenodd;stroke:#FF0000;stroke-width:2.0px;stroke-linecap:butt;stroke-linejoin:miter;stroke-opacity:1"/>
<path class="bond-17" d="M 2425.71,146.502 L 2454.82,172.446" style="fill:none;fill-rule:evenodd;stroke:#000000;stroke-width:2.0px;stroke-linecap:butt;stroke-linejoin:miter;stroke-opacity:1"/>
<path class="bond-17" d="M 2454.82,172.446 L 2483.93,198.39" style="fill:none;fill-rule:evenodd;stroke:#0000FF;stroke-width:2.0px;stroke-linecap:butt;stroke-linejoin:miter;stroke-opacity:1"/>
<path class="bond-18" d="M 2509.04,205.426 L 2547.77,192.623" style="fill:none;fill-rule:evenodd;stroke:#0000FF;stroke-width:2.0px;stroke-linecap:butt;stroke-linejoin:miter;stroke-opacity:1"/>
<path class="bond-18" d="M 2547.77,192.623 L 2586.5,179.819" style="fill:none;fill-rule:evenodd;stroke:#000000;stroke-width:2.0px;stroke-linecap:butt;stroke-linejoin:miter;stroke-opacity:1"/>
<path class="bond-19" d="M 2586.5,179.819 L 2605.73,86.9879" style="fill:none;fill-rule:evenodd;stroke:#000000;stroke-width:2.0px;stroke-linecap:butt;stroke-linejoin:miter;stroke-opacity:1"/>
<path class="bond-19" d="M 2607.95,169.741 L 2621.41,104.76" style="fill:none;fill-rule:evenodd;stroke:#000000;stroke-width:2.0px;stroke-linecap:butt;stroke-linejoin:miter;stroke-opacity:1;stroke-dasharray:6,6"/>
<path class="bond-29" d="M 2586.5,179.819 L 2657.27,242.893" style="fill:none;fill-rule:evenodd;stroke:#000000;stroke-width:2.0px;stroke-linecap:butt;stroke-linejoin:miter;stroke-opacity:1"/>
<path class="bond-29" d="M 2609.73,175.125 L 2659.27,219.277" style="fill:none;fill-rule:evenodd;stroke:#000000;stroke-width:2.0px;stroke-linecap:butt;stroke-linejoin:miter;stroke-opacity:1;stroke-dasharray:6,6"/>
<path class="bond-20" d="M 2605.73,86.9879 L 2695.74,57.2309" style="fill:none;fill-rule:evenodd;stroke:#000000;stroke-width:2.0px;stroke-linecap:butt;stroke-linejoin:miter;stroke-opacity:1"/>
<path class="bond-20" d="M 2625.18,100.527 L 2688.19,79.6968" style="fill:none;fill-rule:evenodd;stroke:#000000;stroke-width:2.0px;stroke-linecap:butt;stroke-linejoin:miter;stroke-opacity:1;stroke-dasharray:6,6"/>
<path class="bond-21" d="M 2695.74,57.2309 L 2766.52,120.305" style="fill:none;fill-rule:evenodd;stroke:#000000;stroke-width:2.0px;stroke-linecap:butt;stroke-linejoin:miter;stroke-opacity:1"/>
<path class="bond-21" d="M 2693.74,80.8472 L 2743.29,124.999" style="fill:none;fill-rule:evenodd;stroke:#000000;stroke-width:2.0px;stroke-linecap:butt;stroke-linejoin:miter;stroke-opacity:1;stroke-dasharray:6,6"/>
<path class="bond-22" d="M 2766.52,120.305 L 2747.28,213.136" style="fill:none;fill-rule:evenodd;stroke:#000000;stroke-width:2.0px;stroke-linecap:butt;stroke-linejoin:miter;stroke-opacity:1"/>
<path class="bond-22" d="M 2745.07,130.382 L 2731.6,195.364" style="fill:none;fill-rule:evenodd;stroke:#000000;stroke-width:2.0px;stroke-linecap:butt;stroke-linejoin:miter;stroke-opacity:1;stroke-dasharray:6,6"/>
<path class="bond-23" d="M 2747.28,213.136 L 2775.32,238.125" style="fill:none;fill-rule:evenodd;stroke:#000000;stroke-width:2.0px;stroke-linecap:butt;stroke-linejoin:miter;stroke-opacity:1"/>
<path class="bond-23" d="M 2775.32,238.125 L 2803.37,263.115" style="fill:none;fill-rule:evenodd;stroke:#FF0000;stroke-width:2.0px;stroke-linecap:butt;stroke-linejoin:miter;stroke-opacity:1"/>
<path class="bond-24" d="M 2747.28,213.136 L 2657.27,242.893" style="fill:none;fill-rule:evenodd;stroke:#000000;stroke-width:2.0px;stroke-linecap:butt;stroke-linejoin:miter;stroke-opacity:1"/>
<path class="bond-24" d="M 2727.83,199.597 L 2664.82,220.427" style="fill:none;fill-rule:evenodd;stroke:#000000;stroke-width:2.0px;stroke-linecap:butt;stroke-linejoin:miter;stroke-opacity:1;stroke-dasharray:6,6"/>
<path class="bond-25" d="M 2657.27,242.893 L 2649.29,281.411" style="fill:none;fill-rule:evenodd;stroke:#000000;stroke-width:2.0px;stroke-linecap:butt;stroke-linejoin:miter;stroke-opacity:1"/>
<path class="bond-25" d="M 2649.29,281.411 L 2641.31,319.93" style="fill:none;fill-rule:evenodd;stroke:#0000FF;stroke-width:2.0px;stroke-linecap:butt;stroke-linejoin:miter;stroke-opacity:1"/>
<path class="bond-26" d="M 2625.48,339.874 L 2586.75,352.677" style="fill:none;fill-rule:evenodd;stroke:#0000FF;stroke-width:2.0px;stroke-linecap:butt;stroke-linejoin:miter;stroke-opacity:1"/>
<path class="bond-26" d="M 2586.75,352.677 L 2548.02,365.481" style="fill:none;fill-rule:evenodd;stroke:#000000;stroke-width:2.0px;stroke-linecap:butt;stroke-linejoin:miter;stroke-opacity:1"/>
<path class="bond-27" d="M 2548.02,365.481 L 2528.79,458.312" style="fill:none;fill-rule:evenodd;stroke:#000000;stroke-width:2.0px;stroke-linecap:butt;stroke-linejoin:miter;stroke-opacity:1"/>
<path class="bond-28" d="M 2554.33,358.403 L 2526.29,333.414" style="fill:none;fill-rule:evenodd;stroke:#000000;stroke-width:2.0px;stroke-linecap:butt;stroke-linejoin:miter;stroke-opacity:1"/>
<path class="bond-28" d="M 2526.29,333.414 L 2498.25,308.425" style="fill:none;fill-rule:evenodd;stroke:#FF0000;stroke-width:2.0px;stroke-linecap:butt;stroke-linejoin:miter;stroke-opacity:1"/>
<path class="bond-28" d="M 2541.72,372.559 L 2513.68,347.569" style="fill:none;fill-rule:evenodd;stroke:#000000;stroke-width:2.0px;stroke-linecap:butt;stroke-linejoin:miter;stroke-opacity:1"/>
<path class="bond-28" d="M 2513.68,347.569 L 2485.64,322.58" style="fill:none;fill-rule:evenodd;stroke:#FF0000;stroke-width:2.0px;stroke-linecap:butt;stroke-linejoin:miter;stroke-opacity:1"/>
<path class="atom-2" d="M 916.535 303.075 Q 916.535 296.628, 919.72 293.026 Q 922.906 289.423, 928.859 289.423 Q 934.813 289.423, 937.998 293.026 Q 941.184 296.628, 941.184 303.075 Q 941.184 309.597, 937.96 313.314 Q 934.737 316.992, 928.859 316.992 Q 922.944 316.992, 919.72 313.314 Q 916.535 309.635, 916.535 303.075 M 928.859 313.958 Q 932.955 313.958, 935.154 311.228 Q 937.392 308.46, 937.392 303.075 Q 937.392 297.804, 935.154 295.149 Q 932.955 292.457, 928.859 292.457 Q 924.764 292.457, 922.526 295.111 Q 920.327 297.766, 920.327 303.075 Q 920.327 308.498, 922.526 311.228 Q 924.764 313.958, 928.859 313.958 " fill="#FF0000"/>
<path class="atom-3" d="M 998.637 160.87 Q 998.637 154.424, 1001.82 150.821 Q 1005.01 147.219, 1010.96 147.219 Q 1016.91 147.219, 1020.1 150.821 Q 1023.29 154.424, 1023.29 160.87 Q 1023.29 167.393, 1020.06 171.109 Q 1016.84 174.787, 1010.96 174.787 Q 1005.05 174.787, 1001.82 171.109 Q 998.637 167.431, 998.637 160.87 M 1010.96 171.754 Q 1015.06 171.754, 1017.26 169.023 Q 1019.49 166.255, 1019.49 160.87 Q 1019.49 155.599, 1017.26 152.945 Q 1015.06 150.252, 1010.96 150.252 Q 1006.87 150.252, 1004.63 152.907 Q 1002.43 155.561, 1002.43 160.87 Q 1002.43 166.293, 1004.63 169.023 Q 1006.87 171.754, 1010.96 171.754 " fill="#FF0000"/>
<path class="atom-6" d="M 1080.74 303.075 Q 1080.74 296.628, 1083.92 293.026 Q 1087.11 289.423, 1093.06 289.423 Q 1099.02 289.423, 1102.2 293.026 Q 1105.39 296.628, 1105.39 303.075 Q 1105.39 309.597, 1102.16 313.314 Q 1098.94 316.992, 1093.06 316.992 Q 1087.15 316.992, 1083.92 313.314 Q 1080.74 309.635, 1080.74 303.075 M 1093.06 313.958 Q 1097.16 313.958, 1099.36 311.228 Q 1101.6 308.46, 1101.6 303.075 Q 1101.6 297.804, 1099.36 295.149 Q 1097.16 292.457, 1093.06 292.457 Q 1088.97 292.457, 1086.73 295.111 Q 1084.53 297.766, 1084.53 303.075 Q 1084.53 308.498, 1086.73 311.228 Q 1088.97 313.958, 1093.06 313.958 " fill="#FF0000"/>
<path class="atom-7" d="M 1407.65 254.212 L 1411.29 254.212 L 1411.29 265.626 L 1425.02 265.626 L 1425.02 254.212 L 1428.66 254.212 L 1428.66 281.06 L 1425.02 281.06 L 1425.02 268.66 L 1411.29 268.66 L 1411.29 281.06 L 1407.65 281.06 L 1407.65 254.212 " fill="#0000FF"/>
<path class="atom-7" d="M 1429.96 280.118 Q 1430.61 278.441, 1432.17 277.515 Q 1433.72 276.564, 1435.87 276.564 Q 1438.55 276.564, 1440.05 278.016 Q 1441.55 279.467, 1441.55 282.045 Q 1441.55 284.673, 1439.6 287.126 Q 1437.67 289.579, 1433.67 292.482 L 1441.85 292.482 L 1441.85 294.484 L 1429.91 294.484 L 1429.91 292.807 Q 1433.22 290.455, 1435.17 288.703 Q 1437.15 286.951, 1438.1 285.374 Q 1439.05 283.797, 1439.05 282.17 Q 1439.05 280.468, 1438.2 279.517 Q 1437.35 278.566, 1435.87 278.566 Q 1434.44 278.566, 1433.49 279.142 Q 1432.54 279.718, 1431.87 280.994 L 1429.96 280.118 " fill="#0000FF"/>
<path class="atom-7" d="M 1449.25 254.212 L 1458.04 268.432 Q 1458.92 269.835, 1460.32 272.376 Q 1461.72 274.917, 1461.8 275.068 L 1461.8 254.212 L 1465.36 254.212 L 1465.36 281.06 L 1461.68 281.06 L 1452.24 265.512 Q 1451.14 263.692, 1449.97 261.606 Q 1448.83 259.521, 1448.49 258.876 L 1448.49 281.06 L 1445 281.06 L 1445 254.212 L 1449.25 254.212 " fill="#0000FF"/>
<path class="atom-13" d="M 1771.26 267.712 Q 1771.26 261.265, 1774.45 257.663 Q 1777.63 254.06, 1783.59 254.06 Q 1789.54 254.06, 1792.73 257.663 Q 1795.91 261.265, 1795.91 267.712 Q 1795.91 274.234, 1792.69 277.95 Q 1789.47 281.629, 1783.59 281.629 Q 1777.67 281.629, 1774.45 277.95 Q 1771.26 274.272, 1771.26 267.712 M 1783.59 278.595 Q 1787.68 278.595, 1789.88 275.865 Q 1792.12 273.097, 1792.12 267.712 Q 1792.12 262.441, 1789.88 259.786 Q 1787.68 257.094, 1783.59 257.094 Q 1779.49 257.094, 1777.26 259.748 Q 1775.06 262.403, 1775.06 267.712 Q 1775.06 273.135, 1777.26 275.865 Q 1779.49 278.595, 1783.59 278.595 " fill="#FF0000"/>
<path class="atom-13" d="M 1799.14 254.364 L 1802.78 254.364 L 1802.78 265.778 L 1816.5 265.778 L 1816.5 254.364 L 1820.14 254.364 L 1820.14 281.212 L 1816.5 281.212 L 1816.5 268.811 L 1802.78 268.811 L 1802.78 281.212 L 1799.14 281.212 L 1799.14 254.364 " fill="#FF0000"/>
<path class="atom-15" d="M 1613.45 349.015 L 1622.25 363.235 Q 1623.12 364.638, 1624.52 367.179 Q 1625.93 369.72, 1626 369.871 L 1626 349.015 L 1629.57 349.015 L 1629.57 375.863 L 1625.89 375.863 L 1616.45 360.315 Q 1615.35 358.495, 1614.17 356.409 Q 1613.03 354.324, 1612.69 353.679 L 1612.69 375.863 L 1609.2 375.863 L 1609.2 349.015 L 1613.45 349.015 " fill="#0000FF"/>
<path class="atom-15" d="M 1632.79 349.015 L 1636.43 349.015 L 1636.43 360.429 L 1650.16 360.429 L 1650.16 349.015 L 1653.8 349.015 L 1653.8 375.863 L 1650.16 375.863 L 1650.16 363.463 L 1636.43 363.463 L 1636.43 375.863 L 1632.79 375.863 L 1632.79 349.015 " fill="#0000FF"/>
<path class="atom-15" d="M 1655.1 374.921 Q 1655.75 373.244, 1657.3 372.318 Q 1658.85 371.367, 1661.01 371.367 Q 1663.68 371.367, 1665.19 372.819 Q 1666.69 374.27, 1666.69 376.848 Q 1666.69 379.476, 1664.74 381.929 Q 1662.81 384.382, 1658.8 387.285 L 1666.99 387.285 L 1666.99 389.287 L 1655.05 389.287 L 1655.05 387.61 Q 1658.35 385.258, 1660.31 383.506 Q 1662.28 381.754, 1663.23 380.177 Q 1664.18 378.6, 1664.18 376.973 Q 1664.18 375.271, 1663.33 374.32 Q 1662.48 373.369, 1661.01 373.369 Q 1659.58 373.369, 1658.63 373.945 Q 1657.68 374.521, 1657 375.797 L 1655.1 374.921 " fill="#0000FF"/>
<path class="atom-18" d="M 2432.62 53.7468 Q 2432.62 47.3002, 2435.8 43.6977 Q 2438.99 40.0952, 2444.94 40.0952 Q 2450.9 40.0952, 2454.08 43.6977 Q 2457.27 47.3002, 2457.27 53.7468 Q 2457.27 60.2692, 2454.04 63.9855 Q 2450.82 67.6639, 2444.94 67.6639 Q 2439.03 67.6639, 2435.8 63.9855 Q 2432.62 60.3072, 2432.62 53.7468 M 2444.94 64.6302 Q 2449.04 64.6302, 2451.24 61.8999 Q 2453.48 59.1316, 2453.48 53.7468 Q 2453.48 48.4758, 2451.24 45.8213 Q 2449.04 43.1289, 2444.94 43.1289 Q 2440.85 43.1289, 2438.61 45.7833 Q 2436.41 48.4378, 2436.41 53.7468 Q 2436.41 59.1695, 2438.61 61.8999 Q 2440.85 64.6302, 2444.94 64.6302 " fill="#FF0000"/>
<path class="atom-19" d="M 2490.55 196.152 L 2499.35 210.372 Q 2500.22 211.775, 2501.62 214.316 Q 2503.02 216.857, 2503.1 217.009 L 2503.1 196.152 L 2506.67 196.152 L 2506.67 223 L 2502.99 223 L 2493.54 207.452 Q 2492.44 205.632, 2491.27 203.547 Q 2490.13 201.461, 2489.79 200.816 L 2489.79 223 L 2486.3 223 L 2486.3 196.152 L 2490.55 196.152 " fill="#0000FF"/>
<path class="atom-19" d="M 2485.98 225.685 L 2489.62 225.685 L 2489.62 237.099 L 2503.35 237.099 L 2503.35 225.685 L 2506.99 225.685 L 2506.99 252.533 L 2503.35 252.533 L 2503.35 240.133 L 2489.62 240.133 L 2489.62 252.533 L 2485.98 252.533 L 2485.98 225.685 " fill="#0000FF"/>
<path class="atom-25" d="M 2805.74 276.286 Q 2805.74 269.839, 2808.92 266.237 Q 2812.11 262.634, 2818.06 262.634 Q 2824.01 262.634, 2827.2 266.237 Q 2830.38 269.839, 2830.38 276.286 Q 2830.38 282.808, 2827.16 286.525 Q 2823.94 290.203, 2818.06 290.203 Q 2812.14 290.203, 2808.92 286.525 Q 2805.74 282.846, 2805.74 276.286 M 2818.06 287.169 Q 2822.16 287.169, 2824.35 284.439 Q 2826.59 281.671, 2826.59 276.286 Q 2826.59 271.015, 2824.35 268.36 Q 2822.16 265.668, 2818.06 265.668 Q 2813.96 265.668, 2811.73 268.322 Q 2809.53 270.977, 2809.53 276.286 Q 2809.53 281.709, 2811.73 284.439 Q 2813.96 287.169, 2818.06 287.169 " fill="#FF0000"/>
<path class="atom-25" d="M 2833.61 262.938 L 2837.25 262.938 L 2837.25 274.352 L 2850.98 274.352 L 2850.98 262.938 L 2854.62 262.938 L 2854.62 289.786 L 2850.98 289.786 L 2850.98 277.386 L 2837.25 277.386 L 2837.25 289.786 L 2833.61 289.786 L 2833.61 262.938 " fill="#FF0000"/>
<path class="atom-27" d="M 2632.1 322.3 L 2640.9 336.52 Q 2641.77 337.923, 2643.17 340.464 Q 2644.58 343.005, 2644.65 343.157 L 2644.65 322.3 L 2648.22 322.3 L 2648.22 349.148 L 2644.54 349.148 L 2635.1 333.6 Q 2634 331.78, 2632.82 329.695 Q 2631.68 327.609, 2631.34 326.964 L 2631.34 349.148 L 2627.85 349.148 L 2627.85 322.3 L 2632.1 322.3 " fill="#0000FF"/>
<path class="atom-27" d="M 2651.44 322.3 L 2655.08 322.3 L 2655.08 333.714 L 2668.81 333.714 L 2668.81 322.3 L 2672.45 322.3 L 2672.45 349.148 L 2668.81 349.148 L 2668.81 336.748 L 2655.08 336.748 L 2655.08 349.148 L 2651.44 349.148 L 2651.44 322.3 " fill="#0000FF"/>
<path class="atom-30" d="M 2464.92 302.483 Q 2464.92 296.036, 2468.11 292.434 Q 2471.29 288.831, 2477.25 288.831 Q 2483.2 288.831, 2486.39 292.434 Q 2489.57 296.036, 2489.57 302.483 Q 2489.57 309.005, 2486.35 312.722 Q 2483.13 316.4, 2477.25 316.4 Q 2471.33 316.4, 2468.11 312.722 Q 2464.92 309.043, 2464.92 302.483 M 2477.25 313.366 Q 2481.34 313.366, 2483.54 310.636 Q 2485.78 307.868, 2485.78 302.483 Q 2485.78 297.212, 2483.54 294.557 Q 2481.34 291.865, 2477.25 291.865 Q 2473.15 291.865, 2470.92 294.519 Q 2468.72 297.174, 2468.72 302.483 Q 2468.72 307.906, 2470.92 310.636 Q 2473.15 313.366, 2477.25 313.366 " fill="#FF0000"/>
<path class="atom-31" d="M 3099.9 201.695 L 3103.54 201.695 L 3103.54 213.109 L 3117.27 213.109 L 3117.27 201.695 L 3120.91 201.695 L 3120.91 228.543 L 3117.27 228.543 L 3117.27 216.143 L 3103.54 216.143 L 3103.54 228.543 L 3099.9 228.543 L 3099.9 201.695 " fill="#FF0000"/>
<path class="atom-31" d="M 3122.21 227.601 Q 3122.86 225.925, 3124.42 224.999 Q 3125.97 224.047, 3128.12 224.047 Q 3130.8 224.047, 3132.3 225.499 Q 3133.8 226.951, 3133.8 229.529 Q 3133.8 232.157, 3131.85 234.609 Q 3129.92 237.062, 3125.92 239.965 L 3134.1 239.965 L 3134.1 241.967 L 3122.16 241.967 L 3122.16 240.291 Q 3125.47 237.938, 3127.42 236.186 Q 3129.4 234.434, 3130.35 232.857 Q 3131.3 231.281, 3131.3 229.654 Q 3131.3 227.952, 3130.45 227.001 Q 3129.6 226.05, 3128.12 226.05 Q 3126.69 226.05, 3125.74 226.625 Q 3124.79 227.201, 3124.11 228.477 L 3122.21 227.601 " fill="#FF0000"/>
<path class="atom-31" d="M 3136 215.043 Q 3136 208.597, 3139.18 204.994 Q 3142.37 201.392, 3148.32 201.392 Q 3154.27 201.392, 3157.46 204.994 Q 3160.65 208.597, 3160.65 215.043 Q 3160.65 221.566, 3157.42 225.282 Q 3154.2 228.961, 3148.32 228.961 Q 3142.41 228.961, 3139.18 225.282 Q 3136 221.604, 3136 215.043 M 3148.32 225.927 Q 3152.42 225.927, 3154.62 223.196 Q 3156.85 220.428, 3156.85 215.043 Q 3156.85 209.772, 3154.62 207.118 Q 3152.42 204.425, 3148.32 204.425 Q 3144.23 204.425, 3141.99 207.08 Q 3139.79 209.734, 3139.79 215.043 Q 3139.79 220.466, 3141.99 223.196 Q 3144.23 225.927, 3148.32 225.927 " fill="#FF0000"/>
<path class="note" d="M 835.549 179.711 L 838.488 179.711 L 838.488 169.681 L 835.245 170.686 L 834.809 169.567 L 838.924 167.728 L 840.27 167.956 L 840.27 179.711 L 842.905 179.711 L 842.905 181.228 L 835.549 181.228 L 835.549 179.711 " fill="#000000"/>
<path class="note" d="M 924.375 188.3 Q 924.868 187.03, 926.044 186.328 Q 927.219 185.608, 928.85 185.608 Q 930.879 185.608, 932.016 186.707 Q 933.154 187.807, 933.154 189.76 Q 933.154 191.751, 931.675 193.609 Q 930.215 195.467, 927.181 197.666 L 933.381 197.666 L 933.381 199.183 L 924.337 199.183 L 924.337 197.913 Q 926.84 196.131, 928.319 194.803 Q 929.817 193.476, 930.537 192.282 Q 931.258 191.087, 931.258 189.855 Q 931.258 188.565, 930.613 187.845 Q 929.969 187.124, 928.85 187.124 Q 927.769 187.124, 927.049 187.56 Q 926.328 187.997, 925.816 188.964 L 924.375 188.3 " fill="#000000"/>
<path class="note" d="M 930.793 334.316 Q 932.102 334.695, 932.727 335.548 Q 933.372 336.382, 933.372 337.709 Q 933.372 338.847, 932.803 339.738 Q 932.234 340.61, 931.191 341.103 Q 930.149 341.577, 928.783 341.577 Q 927.342 341.577, 926.262 341.084 Q 925.2 340.573, 924.347 339.549 L 925.427 338.449 Q 926.262 339.359, 926.963 339.719 Q 927.665 340.061, 928.783 340.061 Q 929.997 340.061, 930.736 339.416 Q 931.476 338.752, 931.476 337.691 Q 931.476 336.325, 930.699 335.719 Q 929.94 335.093, 928.291 335.093 L 927.324 335.093 L 927.324 333.728 L 928.177 333.728 Q 929.637 333.709, 930.414 333.083 Q 931.191 332.438, 931.191 331.244 Q 931.191 330.372, 930.547 329.86 Q 929.902 329.329, 928.802 329.329 Q 927.684 329.329, 926.982 329.727 Q 926.3 330.125, 925.769 331.13 L 924.46 330.429 Q 924.934 329.31, 926.072 328.57 Q 927.21 327.812, 928.802 327.812 Q 930.774 327.812, 931.931 328.741 Q 933.088 329.67, 933.088 331.244 Q 933.088 332.325, 932.5 333.102 Q 931.912 333.879, 930.793 334.316 " fill="#000000"/>
<path class="note" d="M 998.305 134.464 L 1001.24 134.464 L 1001.24 124.434 L 998.002 125.439 L 997.565 124.321 L 1001.68 122.481 L 1003.03 122.709 L 1003.03 134.464 L 1005.66 134.464 L 1005.66 135.981 L 998.305 135.981 L 998.305 134.464 " fill="#000000"/>
<path class="note" d="M 1012.2 127.601 Q 1013.38 127.601, 1014.31 128.113 Q 1015.24 128.625, 1015.75 129.554 Q 1016.26 130.483, 1016.26 131.658 Q 1016.26 132.967, 1015.67 133.99 Q 1015.1 134.995, 1014.08 135.564 Q 1013.06 136.133, 1011.75 136.133 Q 1009.36 136.133, 1008.15 134.521 Q 1006.95 132.891, 1006.95 129.667 Q 1006.95 126.103, 1008.43 124.264 Q 1009.93 122.406, 1012.79 122.406 Q 1013.63 122.406, 1014.33 122.595 Q 1015.05 122.785, 1015.73 123.183 L 1014.99 124.453 Q 1014 123.922, 1012.81 123.922 Q 1010.91 123.922, 1009.95 125.155 Q 1008.98 126.368, 1008.87 128.89 Q 1009.55 128.264, 1010.4 127.942 Q 1011.27 127.601, 1012.2 127.601 M 1011.77 134.578 Q 1012.49 134.578, 1013.08 134.199 Q 1013.68 133.82, 1014.02 133.156 Q 1014.36 132.493, 1014.36 131.677 Q 1014.36 130.483, 1013.7 129.8 Q 1013.04 129.118, 1011.86 129.118 Q 1011.05 129.118, 1010.23 129.459 Q 1009.43 129.781, 1008.87 130.35 Q 1008.94 132.568, 1009.64 133.573 Q 1010.34 134.578, 1011.77 134.578 " fill="#000000"/>
<path class="note" d="M 1080.8 181.866 L 1083.73 181.866 L 1083.73 171.836 L 1080.49 172.841 L 1080.06 171.722 L 1084.17 169.883 L 1085.52 170.11 L 1085.52 181.866 L 1088.15 181.866 L 1088.15 183.383 L 1080.8 183.383 L 1080.8 181.866 " fill="#000000"/>
<path class="note" d="M 1095.4 176.311 Q 1096.7 176.69, 1097.33 177.543 Q 1097.97 178.377, 1097.97 179.704 Q 1097.97 180.842, 1097.4 181.733 Q 1096.84 182.605, 1095.79 183.098 Q 1094.75 183.572, 1093.39 183.572 Q 1091.94 183.572, 1090.86 183.079 Q 1089.8 182.568, 1088.95 181.544 L 1090.03 180.444 Q 1090.86 181.354, 1091.57 181.714 Q 1092.27 182.056, 1093.39 182.056 Q 1094.6 182.056, 1095.34 181.411 Q 1096.08 180.747, 1096.08 179.686 Q 1096.08 178.32, 1095.3 177.714 Q 1094.54 177.088, 1092.89 177.088 L 1091.93 177.088 L 1091.93 175.723 L 1092.78 175.723 Q 1094.24 175.704, 1095.02 175.078 Q 1095.79 174.433, 1095.79 173.239 Q 1095.79 172.367, 1095.15 171.855 Q 1094.5 171.324, 1093.4 171.324 Q 1092.29 171.324, 1091.58 171.722 Q 1090.9 172.12, 1090.37 173.125 L 1089.06 172.424 Q 1089.54 171.305, 1090.67 170.565 Q 1091.81 169.807, 1093.4 169.807 Q 1095.38 169.807, 1096.53 170.736 Q 1097.69 171.665, 1097.69 173.239 Q 1097.69 174.32, 1097.1 175.097 Q 1096.51 175.874, 1095.4 176.311 " fill="#000000"/>
<path class="note" d="M 1154.46 152.344 L 1157.4 152.344 L 1157.4 142.314 L 1154.15 143.319 L 1153.72 142.2 L 1157.83 140.361 L 1159.18 140.588 L 1159.18 152.344 L 1161.81 152.344 L 1161.81 153.861 L 1154.46 153.861 L 1154.46 152.344 " fill="#000000"/>
<path class="note" d="M 1171.1 149.253 L 1172.72 149.253 L 1172.72 150.77 L 1171.1 150.77 L 1171.1 153.861 L 1169.32 153.861 L 1169.32 150.77 L 1162.38 150.77 L 1162.38 149.576 L 1168.26 140.437 L 1171.1 140.437 L 1171.1 149.253 M 1164.58 149.253 L 1169.32 149.253 L 1169.32 141.65 L 1164.58 149.253 " fill="#000000"/>
<path class="note" d="M 1080.73 339.833 L 1083.67 339.833 L 1083.67 329.803 L 1080.43 330.808 L 1079.99 329.689 L 1084.1 327.85 L 1085.45 328.078 L 1085.45 339.833 L 1088.09 339.833 L 1088.09 341.35 L 1080.73 341.35 L 1080.73 339.833 " fill="#000000"/>
<path class="note" d="M 1093.83 332.95 Q 1095.01 332.95, 1095.97 333.462 Q 1096.94 333.955, 1097.49 334.903 Q 1098.04 335.832, 1098.04 337.103 Q 1098.04 338.487, 1097.36 339.492 Q 1096.69 340.478, 1095.59 340.99 Q 1094.49 341.502, 1093.24 341.502 Q 1092.01 341.502, 1090.87 341.047 Q 1089.74 340.592, 1088.96 339.719 L 1090.1 338.544 Q 1090.72 339.226, 1091.57 339.606 Q 1092.43 339.966, 1093.3 339.966 Q 1094.49 339.966, 1095.31 339.226 Q 1096.14 338.487, 1096.14 337.141 Q 1096.14 335.719, 1095.31 335.055 Q 1094.49 334.372, 1093.19 334.372 Q 1092.01 334.372, 1090.7 334.884 L 1089.66 334.391 L 1090.3 327.926 L 1097.21 327.926 L 1097.02 329.443 L 1091.86 329.443 L 1091.46 333.424 Q 1092.66 332.95, 1093.83 332.95 " fill="#000000"/>
<path class="note" d="M 1458.74 301.342 L 1460.35 301.342 L 1460.35 302.858 L 1458.74 302.858 L 1458.74 305.949 L 1456.95 305.949 L 1456.95 302.858 L 1450.01 302.858 L 1450.01 301.664 L 1455.89 292.525 L 1458.74 292.525 L 1458.74 301.342 M 1452.21 301.342 L 1456.95 301.342 L 1456.95 293.738 L 1452.21 301.342 " fill="#000000"/>
<path class="note" d="M 1523.93 210.647 Q 1525.11 210.647, 1526.07 211.159 Q 1527.04 211.652, 1527.59 212.6 Q 1528.14 213.529, 1528.14 214.799 Q 1528.14 216.183, 1527.46 217.188 Q 1526.79 218.174, 1525.69 218.686 Q 1524.59 219.198, 1523.34 219.198 Q 1522.11 219.198, 1520.97 218.743 Q 1519.84 218.288, 1519.06 217.416 L 1520.2 216.24 Q 1520.82 216.923, 1521.67 217.302 Q 1522.53 217.662, 1523.4 217.662 Q 1524.59 217.662, 1525.41 216.923 Q 1526.24 216.183, 1526.24 214.837 Q 1526.24 213.415, 1525.41 212.751 Q 1524.59 212.069, 1523.29 212.069 Q 1522.11 212.069, 1520.8 212.581 L 1519.76 212.088 L 1520.4 205.622 L 1527.31 205.622 L 1527.12 207.139 L 1521.96 207.139 L 1521.56 211.121 Q 1522.76 210.647, 1523.93 210.647 " fill="#000000"/>
<path class="note" d="M 1524.2 115.938 Q 1525.37 115.938, 1526.3 116.45 Q 1527.23 116.962, 1527.74 117.891 Q 1528.25 118.82, 1528.25 119.996 Q 1528.25 121.304, 1527.67 122.328 Q 1527.1 123.333, 1526.07 123.902 Q 1525.05 124.471, 1523.74 124.471 Q 1521.35 124.471, 1520.14 122.859 Q 1518.94 121.228, 1518.94 118.005 Q 1518.94 114.441, 1520.42 112.601 Q 1521.92 110.743, 1524.78 110.743 Q 1525.62 110.743, 1526.32 110.933 Q 1527.04 111.122, 1527.72 111.521 L 1526.98 112.791 Q 1526 112.26, 1524.8 112.26 Q 1522.91 112.26, 1521.94 113.493 Q 1520.97 114.706, 1520.86 117.228 Q 1521.54 116.602, 1522.39 116.28 Q 1523.27 115.938, 1524.2 115.938 M 1523.76 122.916 Q 1524.48 122.916, 1525.07 122.537 Q 1525.68 122.158, 1526.02 121.494 Q 1526.36 120.83, 1526.36 120.015 Q 1526.36 118.82, 1525.69 118.138 Q 1525.03 117.455, 1523.85 117.455 Q 1523.04 117.455, 1522.22 117.797 Q 1521.43 118.119, 1520.86 118.688 Q 1520.93 120.906, 1521.64 121.911 Q 1522.34 122.916, 1523.76 122.916 " fill="#000000"/>
<path class="note" d="M 1621.96 57.0342 L 1614.93 57.0342 L 1614.93 55.5174 L 1623.84 55.5174 L 1623.84 56.8636 L 1618.42 68.9415 L 1616.6 68.9415 L 1621.96 57.0342 " fill="#000000"/>
<path class="note" d="M 1717.27 117.209 Q 1718.51 117.74, 1719.21 118.536 Q 1719.91 119.313, 1719.91 120.641 Q 1719.91 121.778, 1719.32 122.669 Q 1718.73 123.542, 1717.67 124.035 Q 1716.63 124.509, 1715.25 124.509 Q 1713.01 124.509, 1711.72 123.485 Q 1710.43 122.442, 1710.43 120.641 Q 1710.43 119.541, 1711 118.726 Q 1711.57 117.891, 1712.74 117.266 Q 1711.87 116.773, 1711.4 116.052 Q 1710.92 115.313, 1710.92 114.175 Q 1710.92 112.601, 1712.06 111.672 Q 1713.22 110.743, 1715.17 110.743 Q 1717.12 110.743, 1718.26 111.672 Q 1719.42 112.601, 1719.42 114.175 Q 1719.42 115.161, 1718.87 115.901 Q 1718.34 116.621, 1717.27 117.209 M 1715.17 112.165 Q 1714.05 112.165, 1713.43 112.696 Q 1712.82 113.227, 1712.82 114.175 Q 1712.82 114.877, 1713.24 115.351 Q 1713.65 115.806, 1714.24 116.071 Q 1714.85 116.337, 1716 116.735 Q 1716.82 116.166, 1717.16 115.559 Q 1717.52 114.953, 1717.52 114.175 Q 1717.52 113.227, 1716.9 112.696 Q 1716.29 112.165, 1715.17 112.165 M 1715.25 123.087 Q 1716.5 123.087, 1717.26 122.423 Q 1718.01 121.74, 1718.01 120.622 Q 1718.01 119.901, 1717.62 119.446 Q 1717.22 118.991, 1716.61 118.726 Q 1716.02 118.46, 1714.96 118.119 L 1714.11 117.835 Q 1713.16 118.403, 1712.74 119.086 Q 1712.33 119.75, 1712.33 120.622 Q 1712.33 121.74, 1713.12 122.423 Q 1713.92 123.087, 1715.25 123.087 " fill="#000000"/>
<path class="note" d="M 1715.03 205.546 Q 1717.42 205.546, 1718.61 207.177 Q 1719.82 208.789, 1719.82 212.012 Q 1719.82 215.576, 1718.33 217.435 Q 1716.85 219.274, 1713.98 219.274 Q 1713.15 219.274, 1712.43 219.084 Q 1711.73 218.895, 1711.05 218.496 L 1711.79 217.226 Q 1712.77 217.757, 1713.97 217.757 Q 1715.86 217.757, 1716.83 216.543 Q 1717.8 215.311, 1717.91 212.789 Q 1717.23 213.415, 1716.35 213.756 Q 1715.5 214.079, 1714.57 214.079 Q 1713.4 214.079, 1712.47 213.567 Q 1711.54 213.055, 1711.03 212.126 Q 1710.52 211.197, 1710.52 210.021 Q 1710.52 208.713, 1711.08 207.708 Q 1711.67 206.684, 1712.7 206.115 Q 1713.72 205.546, 1715.03 205.546 M 1712.41 210.002 Q 1712.41 211.197, 1713.07 211.879 Q 1713.74 212.562, 1714.91 212.562 Q 1715.73 212.562, 1716.53 212.239 Q 1717.34 211.898, 1717.91 211.329 Q 1717.83 209.111, 1717.13 208.106 Q 1716.43 207.101, 1715.01 207.101 Q 1714.29 207.101, 1713.68 207.48 Q 1713.09 207.859, 1712.75 208.523 Q 1712.41 209.187, 1712.41 210.002 " fill="#000000"/>
<path class="note" d="M 1786.54 245.54 L 1789.48 245.54 L 1789.48 235.51 L 1786.24 236.514 L 1785.8 235.396 L 1789.92 233.557 L 1791.26 233.784 L 1791.26 245.54 L 1793.9 245.54 L 1793.9 247.057 L 1786.54 247.057 L 1786.54 245.54 " fill="#000000"/>
<path class="note" d="M 1799.97 247.208 Q 1797.5 247.208, 1796.27 245.388 Q 1795.06 243.568, 1795.06 240.326 Q 1795.06 237.083, 1796.27 235.282 Q 1797.48 233.481, 1799.97 233.481 Q 1802.45 233.481, 1803.66 235.282 Q 1804.88 237.083, 1804.88 240.326 Q 1804.88 243.568, 1803.65 245.388 Q 1802.43 247.208, 1799.97 247.208 M 1799.97 245.691 Q 1801.43 245.691, 1802.2 244.345 Q 1802.98 242.98, 1802.98 240.326 Q 1802.98 237.69, 1802.2 236.344 Q 1801.43 234.998, 1799.97 234.998 Q 1798.53 234.998, 1797.73 236.344 Q 1796.95 237.69, 1796.95 240.326 Q 1796.95 242.98, 1797.73 244.345 Q 1798.53 245.691, 1799.97 245.691 " fill="#000000"/>
<path class="note" d="M 1593.78 280.769 L 1596.72 280.769 L 1596.72 270.739 L 1593.48 271.744 L 1593.04 270.625 L 1597.16 268.786 L 1598.51 269.014 L 1598.51 280.769 L 1601.14 280.769 L 1601.14 282.286 L 1593.78 282.286 L 1593.78 280.769 " fill="#000000"/>
<path class="note" d="M 1602.9 280.769 L 1605.84 280.769 L 1605.84 270.739 L 1602.6 271.744 L 1602.16 270.625 L 1606.28 268.786 L 1607.63 269.014 L 1607.63 280.769 L 1610.26 280.769 L 1610.26 282.286 L 1602.9 282.286 L 1602.9 280.769 " fill="#000000"/>
<path class="note" d="M 1607.03 399.311 L 1609.97 399.311 L 1609.97 389.281 L 1606.73 390.286 L 1606.29 389.167 L 1610.41 387.328 L 1611.75 387.555 L 1611.75 399.311 L 1614.39 399.311 L 1614.39 400.828 L 1607.03 400.828 L 1607.03 399.311 " fill="#000000"/>
<path class="note" d="M 1615.37 389.944 Q 1615.87 388.674, 1617.04 387.973 Q 1618.22 387.252, 1619.85 387.252 Q 1621.88 387.252, 1623.02 388.352 Q 1624.15 389.451, 1624.15 391.404 Q 1624.15 393.395, 1622.67 395.253 Q 1621.21 397.112, 1618.18 399.311 L 1624.38 399.311 L 1624.38 400.828 L 1615.34 400.828 L 1615.34 399.557 Q 1617.84 397.775, 1619.32 396.448 Q 1620.82 395.121, 1621.54 393.926 Q 1622.26 392.732, 1622.26 391.499 Q 1622.26 390.21, 1621.61 389.489 Q 1620.97 388.769, 1619.85 388.769 Q 1618.77 388.769, 1618.05 389.205 Q 1617.33 389.641, 1616.82 390.608 L 1615.37 389.944 " fill="#000000"/>
<path class="note" d="M 2337.35 196.494 L 2340.29 196.494 L 2340.29 186.464 L 2337.04 187.469 L 2336.61 186.35 L 2340.72 184.511 L 2342.07 184.739 L 2342.07 196.494 L 2344.7 196.494 L 2344.7 198.011 L 2337.35 198.011 L 2337.35 196.494 " fill="#000000"/>
<path class="note" d="M 2418.02 157.878 Q 2418.51 156.608, 2419.69 155.906 Q 2420.86 155.186, 2422.49 155.186 Q 2424.52 155.186, 2425.66 156.286 Q 2426.8 157.385, 2426.8 159.338 Q 2426.8 161.329, 2425.32 163.187 Q 2423.86 165.045, 2420.82 167.245 L 2427.02 167.245 L 2427.02 168.762 L 2417.98 168.762 L 2417.98 167.491 Q 2420.48 165.709, 2421.96 164.382 Q 2423.46 163.055, 2424.18 161.86 Q 2424.9 160.666, 2424.9 159.433 Q 2424.9 158.144, 2424.26 157.423 Q 2423.61 156.703, 2422.49 156.703 Q 2421.41 156.703, 2420.69 157.139 Q 2419.97 157.575, 2419.46 158.542 L 2418.02 157.878 " fill="#000000"/>
<path class="note" d="M 2453.29 22.4429 Q 2454.6 22.8221, 2455.22 23.6753 Q 2455.87 24.5096, 2455.87 25.8368 Q 2455.87 26.9744, 2455.3 27.8656 Q 2454.73 28.7378, 2453.69 29.2308 Q 2452.64 29.7048, 2451.28 29.7048 Q 2449.84 29.7048, 2448.76 29.2118 Q 2447.7 28.6999, 2446.84 27.676 L 2447.92 26.5763 Q 2448.76 27.4864, 2449.46 27.8466 Q 2450.16 28.1879, 2451.28 28.1879 Q 2452.49 28.1879, 2453.23 27.5433 Q 2453.97 26.8796, 2453.97 25.8179 Q 2453.97 24.4527, 2453.19 23.8459 Q 2452.44 23.2202, 2450.79 23.2202 L 2449.82 23.2202 L 2449.82 21.8551 L 2450.67 21.8551 Q 2452.13 21.8361, 2452.91 21.2104 Q 2453.69 20.5658, 2453.69 19.3712 Q 2453.69 18.4991, 2453.04 17.9871 Q 2452.4 17.4562, 2451.3 17.4562 Q 2450.18 17.4562, 2449.48 17.8544 Q 2448.8 18.2526, 2448.26 19.2575 L 2446.96 18.5559 Q 2447.43 17.4373, 2448.57 16.6978 Q 2449.71 15.9394, 2451.3 15.9394 Q 2453.27 15.9394, 2454.43 16.8684 Q 2455.58 17.7975, 2455.58 19.3712 Q 2455.58 20.452, 2455 21.2294 Q 2454.41 22.0068, 2453.29 22.4429 " fill="#000000"/>
<path class="note" d="M 2523.63 232.705 L 2525.24 232.705 L 2525.24 234.222 L 2523.63 234.222 L 2523.63 237.313 L 2521.85 237.313 L 2521.85 234.222 L 2514.91 234.222 L 2514.91 233.028 L 2520.79 223.889 L 2523.63 223.889 L 2523.63 232.705 M 2517.11 232.705 L 2521.85 232.705 L 2521.85 225.102 L 2517.11 232.705 " fill="#000000"/>
<path class="note" d="M 2575.03 167.619 Q 2576.21 167.619, 2577.17 168.131 Q 2578.14 168.624, 2578.69 169.572 Q 2579.24 170.501, 2579.24 171.772 Q 2579.24 173.156, 2578.56 174.161 Q 2577.89 175.147, 2576.79 175.658 Q 2575.69 176.17, 2574.44 176.17 Q 2573.21 176.17, 2572.07 175.715 Q 2570.94 175.26, 2570.16 174.388 L 2571.3 173.213 Q 2571.92 173.895, 2572.77 174.274 Q 2573.63 174.635, 2574.5 174.635 Q 2575.69 174.635, 2576.51 173.895 Q 2577.34 173.156, 2577.34 171.809 Q 2577.34 170.387, 2576.51 169.724 Q 2575.69 169.041, 2574.39 169.041 Q 2573.21 169.041, 2571.9 169.553 L 2570.86 169.06 L 2571.5 162.595 L 2578.41 162.595 L 2578.22 164.111 L 2573.06 164.111 L 2572.66 168.093 Q 2573.86 167.619, 2575.03 167.619 " fill="#000000"/>
<path class="note" d="M 2594.53 74.8829 Q 2595.71 74.8829, 2596.64 75.3948 Q 2597.57 75.9068, 2598.08 76.8358 Q 2598.59 77.7649, 2598.59 78.9405 Q 2598.59 80.2487, 2598 81.2726 Q 2597.43 82.2775, 2596.41 82.8463 Q 2595.39 83.4152, 2594.08 83.4152 Q 2591.69 83.4152, 2590.47 81.8035 Q 2589.28 80.1729, 2589.28 76.9496 Q 2589.28 73.385, 2590.76 71.5458 Q 2592.26 69.6877, 2595.12 69.6877 Q 2595.95 69.6877, 2596.66 69.8773 Q 2597.38 70.0669, 2598.06 70.4651 L 2597.32 71.7354 Q 2596.33 71.2045, 2595.14 71.2045 Q 2593.24 71.2045, 2592.28 72.437 Q 2591.31 73.6505, 2591.2 76.1722 Q 2591.88 75.5465, 2592.73 75.2242 Q 2593.6 74.8829, 2594.53 74.8829 M 2594.1 81.8604 Q 2594.82 81.8604, 2595.4 81.4812 Q 2596.01 81.102, 2596.35 80.4384 Q 2596.69 79.7747, 2596.69 78.9594 Q 2596.69 77.7649, 2596.03 77.0823 Q 2595.37 76.3997, 2594.19 76.3997 Q 2593.38 76.3997, 2592.56 76.741 Q 2591.76 77.0634, 2591.2 77.6322 Q 2591.27 79.8506, 2591.97 80.8555 Q 2592.67 81.8604, 2594.1 81.8604 " fill="#000000"/>
<path class="note" d="M 2701.53 36.5638 L 2694.49 36.5638 L 2694.49 35.047 L 2703.4 35.047 L 2703.4 36.3932 L 2697.98 48.4711 L 2696.16 48.4711 L 2701.53 36.5638 " fill="#000000"/>
<path class="note" d="M 2783.63 115.023 Q 2784.86 115.554, 2785.56 116.35 Q 2786.26 117.128, 2786.26 118.455 Q 2786.26 119.593, 2785.67 120.484 Q 2785.09 121.356, 2784.02 121.849 Q 2782.98 122.323, 2781.6 122.323 Q 2779.36 122.323, 2778.07 121.299 Q 2776.78 120.256, 2776.78 118.455 Q 2776.78 117.355, 2777.35 116.54 Q 2777.92 115.706, 2779.09 115.08 Q 2778.22 114.587, 2777.75 113.866 Q 2777.27 113.127, 2777.27 111.989 Q 2777.27 110.416, 2778.41 109.487 Q 2779.57 108.557, 2781.52 108.557 Q 2783.47 108.557, 2784.61 109.487 Q 2785.77 110.416, 2785.77 111.989 Q 2785.77 112.975, 2785.22 113.715 Q 2784.69 114.435, 2783.63 115.023 M 2781.52 109.98 Q 2780.4 109.98, 2779.78 110.51 Q 2779.17 111.041, 2779.17 111.989 Q 2779.17 112.691, 2779.59 113.165 Q 2780 113.62, 2780.59 113.885 Q 2781.2 114.151, 2782.36 114.549 Q 2783.17 113.98, 2783.51 113.373 Q 2783.87 112.767, 2783.87 111.989 Q 2783.87 111.041, 2783.25 110.51 Q 2782.64 109.98, 2781.52 109.98 M 2781.6 120.901 Q 2782.85 120.901, 2783.61 120.237 Q 2784.37 119.555, 2784.37 118.436 Q 2784.37 117.715, 2783.97 117.26 Q 2783.57 116.805, 2782.96 116.54 Q 2782.37 116.274, 2781.31 115.933 L 2780.46 115.649 Q 2779.51 116.218, 2779.09 116.9 Q 2778.68 117.564, 2778.68 118.436 Q 2778.68 119.555, 2779.47 120.237 Q 2780.27 120.901, 2781.6 120.901 " fill="#000000"/>
<path class="note" d="M 2762.14 201.389 Q 2764.53 201.389, 2765.73 203.019 Q 2766.94 204.631, 2766.94 207.854 Q 2766.94 211.419, 2765.44 213.277 Q 2763.96 215.116, 2761.1 215.116 Q 2760.27 215.116, 2759.55 214.926 Q 2758.84 214.737, 2758.16 214.339 L 2758.9 213.068 Q 2759.89 213.599, 2761.08 213.599 Q 2762.98 213.599, 2763.94 212.386 Q 2764.91 211.153, 2765.03 208.631 Q 2764.34 209.257, 2763.47 209.598 Q 2762.62 209.921, 2761.69 209.921 Q 2760.51 209.921, 2759.58 209.409 Q 2758.65 208.897, 2758.14 207.968 Q 2757.63 207.039, 2757.63 205.863 Q 2757.63 204.555, 2758.2 203.55 Q 2758.79 202.526, 2759.81 201.957 Q 2760.83 201.389, 2762.14 201.389 M 2759.53 205.844 Q 2759.53 207.039, 2760.19 207.721 Q 2760.85 208.404, 2762.03 208.404 Q 2762.84 208.404, 2763.64 208.082 Q 2764.46 207.74, 2765.03 207.172 Q 2764.95 204.953, 2764.25 203.948 Q 2763.55 202.943, 2762.12 202.943 Q 2761.4 202.943, 2760.8 203.323 Q 2760.21 203.702, 2759.87 204.365 Q 2759.53 205.029, 2759.53 205.844 " fill="#000000"/>
<path class="note" d="M 2828.81 302.506 L 2831.74 302.506 L 2831.74 292.476 L 2828.5 293.48 L 2828.07 292.362 L 2832.18 290.523 L 2833.53 290.75 L 2833.53 302.506 L 2836.16 302.506 L 2836.16 304.023 L 2828.81 304.023 L 2828.81 302.506 " fill="#000000"/>
<path class="note" d="M 2842.23 304.174 Q 2839.77 304.174, 2838.53 302.354 Q 2837.32 300.534, 2837.32 297.291 Q 2837.32 294.049, 2838.53 292.248 Q 2839.75 290.447, 2842.23 290.447 Q 2844.71 290.447, 2845.93 292.248 Q 2847.14 294.049, 2847.14 297.291 Q 2847.14 300.534, 2845.91 302.354 Q 2844.7 304.174, 2842.23 304.174 M 2842.23 302.657 Q 2843.69 302.657, 2844.47 301.311 Q 2845.24 299.946, 2845.24 297.291 Q 2845.24 294.656, 2844.47 293.31 Q 2843.69 291.964, 2842.23 291.964 Q 2840.79 291.964, 2839.99 293.31 Q 2839.22 294.656, 2839.22 297.291 Q 2839.22 299.946, 2839.99 301.311 Q 2840.79 302.657, 2842.23 302.657 " fill="#000000"/>
<path class="note" d="M 2630.35 253.086 L 2633.29 253.086 L 2633.29 243.055 L 2630.05 244.06 L 2629.61 242.942 L 2633.73 241.103 L 2635.07 241.33 L 2635.07 253.086 L 2637.71 253.086 L 2637.71 254.602 L 2630.35 254.602 L 2630.35 253.086 " fill="#000000"/>
<path class="note" d="M 2639.47 253.086 L 2642.41 253.086 L 2642.41 243.055 L 2639.17 244.06 L 2638.73 242.942 L 2642.85 241.103 L 2644.19 241.33 L 2644.19 253.086 L 2646.83 253.086 L 2646.83 254.602 L 2639.47 254.602 L 2639.47 253.086 " fill="#000000"/>
<path class="note" d="M 2649.28 362.02 L 2652.21 362.02 L 2652.21 351.99 L 2648.97 352.995 L 2648.54 351.876 L 2652.65 350.037 L 2654 350.264 L 2654 362.02 L 2656.63 362.02 L 2656.63 363.537 L 2649.28 363.537 L 2649.28 362.02 " fill="#000000"/>
<path class="note" d="M 2657.62 352.653 Q 2658.11 351.383, 2659.29 350.681 Q 2660.46 349.961, 2662.09 349.961 Q 2664.12 349.961, 2665.26 351.061 Q 2666.4 352.16, 2666.4 354.113 Q 2666.4 356.104, 2664.92 357.962 Q 2663.46 359.82, 2660.42 362.02 L 2666.62 362.02 L 2666.62 363.537 L 2657.58 363.537 L 2657.58 362.266 Q 2660.08 360.484, 2661.56 359.157 Q 2663.06 357.829, 2663.78 356.635 Q 2664.5 355.44, 2664.5 354.208 Q 2664.5 352.919, 2663.86 352.198 Q 2663.21 351.478, 2662.09 351.478 Q 2661.01 351.478, 2660.29 351.914 Q 2659.57 352.35, 2659.06 353.317 L 2657.62 352.653 " fill="#000000"/>
<path class="note" d="M 2559.35 391.777 L 2562.29 391.777 L 2562.29 381.747 L 2559.05 382.752 L 2558.61 381.633 L 2562.72 379.794 L 2564.07 380.021 L 2564.07 391.777 L 2566.71 391.777 L 2566.71 393.294 L 2559.35 393.294 L 2559.35 391.777 " fill="#000000"/>
<path class="note" d="M 2573.95 386.221 Q 2575.26 386.601, 2575.88 387.454 Q 2576.53 388.288, 2576.53 389.615 Q 2576.53 390.753, 2575.96 391.644 Q 2575.39 392.516, 2574.35 393.009 Q 2573.3 393.483, 2571.94 393.483 Q 2570.5 393.483, 2569.42 392.99 Q 2568.36 392.478, 2567.5 391.454 L 2568.58 390.355 Q 2569.42 391.265, 2570.12 391.625 Q 2570.82 391.966, 2571.94 391.966 Q 2573.15 391.966, 2573.89 391.322 Q 2574.63 390.658, 2574.63 389.596 Q 2574.63 388.231, 2573.85 387.624 Q 2573.1 386.999, 2571.45 386.999 L 2570.48 386.999 L 2570.48 385.634 L 2571.33 385.634 Q 2572.79 385.615, 2573.57 384.989 Q 2574.35 384.344, 2574.35 383.15 Q 2574.35 382.278, 2573.7 381.766 Q 2573.06 381.235, 2571.96 381.235 Q 2570.84 381.235, 2570.14 381.633 Q 2569.45 382.031, 2568.92 383.036 L 2567.62 382.334 Q 2568.09 381.216, 2569.23 380.476 Q 2570.36 379.718, 2571.96 379.718 Q 2573.93 379.718, 2575.09 380.647 Q 2576.24 381.576, 2576.24 383.15 Q 2576.24 384.23, 2575.65 385.008 Q 2575.07 385.785, 2573.95 386.221 " fill="#000000"/>
<path class="note" d="M 2504.18 453.033 L 2507.12 453.033 L 2507.12 443.003 L 2503.88 444.008 L 2503.45 442.889 L 2507.56 441.05 L 2508.91 441.277 L 2508.91 453.033 L 2511.54 453.033 L 2511.54 454.55 L 2504.18 454.55 L 2504.18 453.033 " fill="#000000"/>
<path class="note" d="M 2520.83 449.942 L 2522.44 449.942 L 2522.44 451.459 L 2520.83 451.459 L 2520.83 454.55 L 2519.05 454.55 L 2519.05 451.459 L 2512.11 451.459 L 2512.11 450.265 L 2517.99 441.126 L 2520.83 441.126 L 2520.83 449.942 M 2514.31 449.942 L 2519.05 449.942 L 2519.05 442.339 L 2514.31 449.942 " fill="#000000"/>
<path class="note" d="M 2441.32 286.616 L 2444.26 286.616 L 2444.26 276.585 L 2441.02 277.59 L 2440.58 276.472 L 2444.7 274.632 L 2446.04 274.86 L 2446.04 286.616 L 2448.68 286.616 L 2448.68 288.132 L 2441.32 288.132 L 2441.32 286.616 " fill="#000000"/>
<path class="note" d="M 2454.42 279.733 Q 2455.6 279.733, 2456.57 280.245 Q 2457.53 280.738, 2458.08 281.686 Q 2458.63 282.615, 2458.63 283.885 Q 2458.63 285.269, 2457.95 286.274 Q 2457.29 287.26, 2456.19 287.772 Q 2455.09 288.284, 2453.84 288.284 Q 2452.6 288.284, 2451.47 287.829 Q 2450.33 287.374, 2449.55 286.502 L 2450.69 285.326 Q 2451.31 286.009, 2452.17 286.388 Q 2453.02 286.748, 2453.89 286.748 Q 2455.09 286.748, 2455.9 286.009 Q 2456.74 285.269, 2456.74 283.923 Q 2456.74 282.501, 2455.9 281.837 Q 2455.09 281.155, 2453.78 281.155 Q 2452.6 281.155, 2451.3 281.667 L 2450.25 281.174 L 2450.9 274.708 L 2457.8 274.708 L 2457.61 276.225 L 2452.45 276.225 L 2452.05 280.207 Q 2453.25 279.733, 2454.42 279.733 " fill="#000000"/>
<path class="note" d="M 3135.67 188.638 L 3138.6 188.638 L 3138.6 178.607 L 3135.36 179.612 L 3134.93 178.494 L 3139.04 176.655 L 3140.39 176.882 L 3140.39 188.638 L 3143.02 188.638 L 3143.02 190.154 L 3135.67 190.154 L 3135.67 188.638 " fill="#000000"/>
<path class="note" d="M 3149.56 181.774 Q 3150.74 181.774, 3151.67 182.286 Q 3152.6 182.798, 3153.11 183.727 Q 3153.62 184.656, 3153.62 185.831 Q 3153.62 187.14, 3153.03 188.164 Q 3152.46 189.169, 3151.44 189.737 Q 3150.42 190.306, 3149.11 190.306 Q 3146.72 190.306, 3145.51 188.695 Q 3144.31 187.064, 3144.31 183.841 Q 3144.31 180.276, 3145.79 178.437 Q 3147.29 176.579, 3150.15 176.579 Q 3150.99 176.579, 3151.69 176.768 Q 3152.41 176.958, 3153.09 177.356 L 3152.35 178.626 Q 3151.36 178.096, 3150.17 178.096 Q 3148.27 178.096, 3147.31 179.328 Q 3146.34 180.541, 3146.23 183.063 Q 3146.91 182.438, 3147.76 182.115 Q 3148.63 181.774, 3149.56 181.774 M 3149.13 188.751 Q 3149.85 188.751, 3150.44 188.372 Q 3151.04 187.993, 3151.38 187.329 Q 3151.72 186.666, 3151.72 185.85 Q 3151.72 184.656, 3151.06 183.973 Q 3150.4 183.291, 3149.22 183.291 Q 3148.41 183.291, 3147.59 183.632 Q 3146.8 183.954, 3146.23 184.523 Q 3146.3 186.742, 3147 187.746 Q 3147.71 188.751, 3149.13 188.751 " fill="#000000"/>
<path d="M 1298.28 253.669 L 1304.33 253.669 L 1304.33 247.301 L 1307.02 247.301 L 1307.02 253.669 L 1313.22 253.669 L 1313.22 255.973 L 1307.02 255.973 L 1307.02 262.373 L 1304.33 262.373 L 1304.33 255.973 L 1298.28 255.973 L 1298.28 253.669 " fill="#000000"/>
<path d="M 2969.5 253.669 L 2975.55 253.669 L 2975.55 247.301 L 2978.24 247.301 L 2978.24 253.669 L 2984.45 253.669 L 2984.45 255.973 L 2978.24 255.973 L 2978.24 262.373 L 2975.55 262.373 L 2975.55 255.973 L 2969.5 255.973 L 2969.5 253.669 " fill="#000000"/>
<path d="M 1942.5,255.973 L 2195.31,255.973" style="fill:none;fill-rule:evenodd;stroke:#000000;stroke-width:2.0px;stroke-linecap:butt;stroke-linejoin:miter;stroke-opacity:1"/>
<path d="M 2195.31,255.973 L 2184.36,249.652" style="fill:none;fill-rule:evenodd;stroke:#000000;stroke-width:2.0px;stroke-linecap:butt;stroke-linejoin:miter;stroke-opacity:1"/>
<path d="M 2195.31,255.973 L 2184.36,262.293" style="fill:none;fill-rule:evenodd;stroke:#000000;stroke-width:2.0px;stroke-linecap:butt;stroke-linejoin:miter;stroke-opacity:1"/>
</svg>