<svg xmlns="http://www.w3.org/2000/svg" xmlns:rdkit="http://www.rdkit.org/xml" xmlns:xlink="http://www.w3.org/1999/xlink" version="1.1" baseProfile="full" xml:space="preserve" width="4000px" height="500px" viewBox="0 0 4000 500">
<!-- END OF HEADER -->
<rect style="opacity:1.0;fill:#FFFFFF;stroke:none" width="4000" height="500" x="0" y="0"> </rect>
<path d="M 204.116,194.624 L 300.666,250.368" style="fill:none;fill-rule:evenodd;stroke:#FFFFAA;stroke-width:23.8px;stroke-linecap:butt;stroke-linejoin:miter;stroke-opacity:1"/>
<path d="M 300.666,250.368 L 300.666,361.855" style="fill:none;fill-rule:evenodd;stroke:#FFFFAA;stroke-width:23.8px;stroke-linecap:butt;stroke-linejoin:miter;stroke-opacity:1"/>
<path d="M 300.666,250.368 L 397.217,194.624" style="fill:none;fill-rule:evenodd;stroke:#FFFFAA;stroke-width:23.8px;stroke-linecap:butt;stroke-linejoin:miter;stroke-opacity:1"/>
<path d="M 397.217,194.624 L 493.768,250.368" style="fill:none;fill-rule:evenodd;stroke:#FFFFAA;stroke-width:23.8px;stroke-linecap:butt;stroke-linejoin:miter;stroke-opacity:1"/>
<path d="M 493.768,250.368 L 590.319,194.624" style="fill:none;fill-rule:evenodd;stroke:#FFFFAA;stroke-width:23.8px;stroke-linecap:butt;stroke-linejoin:miter;stroke-opacity:1"/>
<path d="M 493.768,250.368 L 493.768,361.855" style="fill:none;fill-rule:evenodd;stroke:#FFFFAA;stroke-width:23.8px;stroke-linecap:butt;stroke-linejoin:miter;stroke-opacity:1"/>
<path d="M 918.321,362.386 L 1014.87,306.642" style="fill:none;fill-rule:evenodd;stroke:#FFCC99;stroke-width:23.8px;stroke-linecap:butt;stroke-linejoin:miter;stroke-opacity:1"/>
<path d="M 1014.87,306.642 L 1014.87,195.155" style="fill:none;fill-rule:evenodd;stroke:#FFCC99;stroke-width:23.8px;stroke-linecap:butt;stroke-linejoin:miter;stroke-opacity:1"/>
<path d="M 1014.87,306.642 L 1111.42,362.386" style="fill:none;fill-rule:evenodd;stroke:#FFCC99;stroke-width:23.8px;stroke-linecap:butt;stroke-linejoin:miter;stroke-opacity:1"/>
<path d="M 1014.87,195.155 L 1111.42,139.411" style="fill:none;fill-rule:evenodd;stroke:#FFCC99;stroke-width:23.8px;stroke-linecap:butt;stroke-linejoin:miter;stroke-opacity:1"/>
<path d="M 1111.42,139.411 L 1207.97,195.155" style="fill:none;fill-rule:evenodd;stroke:#FFCC99;stroke-width:23.8px;stroke-linecap:butt;stroke-linejoin:miter;stroke-opacity:1"/>
<path d="M 1207.97,195.155 L 1304.52,139.411" style="fill:none;fill-rule:evenodd;stroke:#FFCC99;stroke-width:23.8px;stroke-linecap:butt;stroke-linejoin:miter;stroke-opacity:1"/>
<path d="M 1207.97,195.155 L 1207.97,306.642" style="fill:none;fill-rule:evenodd;stroke:#FFCC99;stroke-width:23.8px;stroke-linecap:butt;stroke-linejoin:miter;stroke-opacity:1"/>
<path d="M 1304.52,139.411 L 1401.07,195.155" style="fill:none;fill-rule:evenodd;stroke:#FFCC99;stroke-width:23.8px;stroke-linecap:butt;stroke-linejoin:miter;stroke-opacity:1"/>
<path d="M 1401.07,195.155 L 1401.07,306.642" style="fill:none;fill-rule:evenodd;stroke:#FFCC99;stroke-width:23.8px;stroke-linecap:butt;stroke-linejoin:miter;stroke-opacity:1"/>
<path d="M 1401.07,195.155 L 1497.63,139.411" style="fill:none;fill-rule:evenodd;stroke:#FFCC99;stroke-width:23.8px;stroke-linecap:butt;stroke-linejoin:miter;stroke-opacity:1"/>
<path d="M 1401.07,306.642 L 1497.63,362.386" style="fill:none;fill-rule:evenodd;stroke:#FFCC99;stroke-width:23.8px;stroke-linecap:butt;stroke-linejoin:miter;stroke-opacity:1"/>
<path d="M 1497.63,362.386 L 1594.18,306.642" style="fill:none;fill-rule:evenodd;stroke:#FFCC99;stroke-width:23.8px;stroke-linecap:butt;stroke-linejoin:miter;stroke-opacity:1"/>
<path d="M 1594.18,306.642 L 1690.73,362.386" style="fill:none;fill-rule:evenodd;stroke:#FFCC99;stroke-width:23.8px;stroke-linecap:butt;stroke-linejoin:miter;stroke-opacity:1"/>
<path d="M 1594.18,306.642 L 1594.18,195.155" style="fill:none;fill-rule:evenodd;stroke:#FFCC99;stroke-width:23.8px;stroke-linecap:butt;stroke-linejoin:miter;stroke-opacity:1"/>
<path d="M 1594.18,195.155 L 1497.63,139.411" style="fill:none;fill-rule:evenodd;stroke:#FFCC99;stroke-width:23.8px;stroke-linecap:butt;stroke-linejoin:miter;stroke-opacity:1"/>
<path d="M 1207.97,306.642 L 1111.42,362.386" style="fill:none;fill-rule:evenodd;stroke:#FFCC99;stroke-width:23.8px;stroke-linecap:butt;stroke-linejoin:miter;stroke-opacity:1"/>
<path d="M 2338.97,314.075 L 2435.52,258.331" style="fill:none;fill-rule:evenodd;stroke:#FFFFAA;stroke-width:23.8px;stroke-linecap:butt;stroke-linejoin:miter;stroke-opacity:1"/>
<path d="M 2435.52,258.331 L 2532.07,314.075" style="fill:none;fill-rule:evenodd;stroke:#FFFFAA;stroke-width:23.8px;stroke-linecap:butt;stroke-linejoin:miter;stroke-opacity:1"/>
<path d="M 2435.52,258.331 L 2435.52,146.844" style="fill:none;fill-rule:evenodd;stroke:#FFFFAA;stroke-width:23.8px;stroke-linecap:butt;stroke-linejoin:miter;stroke-opacity:1"/>
<path d="M 2816.07,340.933 L 2914.42,288.437" style="fill:none;fill-rule:evenodd;stroke:#FFFFAA;stroke-width:23.8px;stroke-linecap:butt;stroke-linejoin:miter;stroke-opacity:1"/>
<path d="M 2914.42,288.437 L 2918.14,177.012" style="fill:none;fill-rule:evenodd;stroke:#FFFFAA;stroke-width:23.8px;stroke-linecap:butt;stroke-linejoin:miter;stroke-opacity:1"/>
<path d="M 3009.06,347.367 L 3107.42,294.871" style="fill:none;fill-rule:evenodd;stroke:#FFCC99;stroke-width:23.8px;stroke-linecap:butt;stroke-linejoin:miter;stroke-opacity:1"/>
<path d="M 3107.42,294.871 L 3111.13,183.446" style="fill:none;fill-rule:evenodd;stroke:#FFCC99;stroke-width:23.8px;stroke-linecap:butt;stroke-linejoin:miter;stroke-opacity:1"/>
<path d="M 3107.42,294.871 L 3202.06,353.801" style="fill:none;fill-rule:evenodd;stroke:#FFCC99;stroke-width:23.8px;stroke-linecap:butt;stroke-linejoin:miter;stroke-opacity:1"/>
<path d="M 3111.13,183.446 L 3209.49,130.951" style="fill:none;fill-rule:evenodd;stroke:#FFCC99;stroke-width:23.8px;stroke-linecap:butt;stroke-linejoin:miter;stroke-opacity:1"/>
<path d="M 3209.49,130.951 L 3304.13,189.88" style="fill:none;fill-rule:evenodd;stroke:#FFCC99;stroke-width:23.8px;stroke-linecap:butt;stroke-linejoin:miter;stroke-opacity:1"/>
<path d="M 3304.13,189.88 L 3402.48,137.385" style="fill:none;fill-rule:evenodd;stroke:#FFCC99;stroke-width:23.8px;stroke-linecap:butt;stroke-linejoin:miter;stroke-opacity:1"/>
<path d="M 3304.13,189.88 L 3300.41,301.306" style="fill:none;fill-rule:evenodd;stroke:#FFCC99;stroke-width:23.8px;stroke-linecap:butt;stroke-linejoin:miter;stroke-opacity:1"/>
<path d="M 3402.48,137.385 L 3497.12,196.315" style="fill:none;fill-rule:evenodd;stroke:#FFCC99;stroke-width:23.8px;stroke-linecap:butt;stroke-linejoin:miter;stroke-opacity:1"/>
<path d="M 3497.12,196.315 L 3493.41,307.74" style="fill:none;fill-rule:evenodd;stroke:#FFCC99;stroke-width:23.8px;stroke-linecap:butt;stroke-linejoin:miter;stroke-opacity:1"/>
<path d="M 3497.12,196.315 L 3595.48,143.819" style="fill:none;fill-rule:evenodd;stroke:#FFCC99;stroke-width:23.8px;stroke-linecap:butt;stroke-linejoin:miter;stroke-opacity:1"/>
<path d="M 3493.41,307.74 L 3588.05,366.67" style="fill:none;fill-rule:evenodd;stroke:#FFCC99;stroke-width:23.8px;stroke-linecap:butt;stroke-linejoin:miter;stroke-opacity:1"/>
<path d="M 3588.05,366.67 L 3686.4,314.174" style="fill:none;fill-rule:evenodd;stroke:#FFCC99;stroke-width:23.8px;stroke-linecap:butt;stroke-linejoin:miter;stroke-opacity:1"/>
<path d="M 3686.4,314.174 L 3781.04,373.104" style="fill:none;fill-rule:evenodd;stroke:#FFCC99;stroke-width:23.8px;stroke-linecap:butt;stroke-linejoin:miter;stroke-opacity:1"/>
<path d="M 3686.4,314.174 L 3690.12,202.749" style="fill:none;fill-rule:evenodd;stroke:#FFCC99;stroke-width:23.8px;stroke-linecap:butt;stroke-linejoin:miter;stroke-opacity:1"/>
<path d="M 3690.12,202.749 L 3595.48,143.819" style="fill:none;fill-rule:evenodd;stroke:#FFCC99;stroke-width:23.8px;stroke-linecap:butt;stroke-linejoin:miter;stroke-opacity:1"/>
<path d="M 3300.41,301.306 L 3202.06,353.801" style="fill:none;fill-rule:evenodd;stroke:#FFCC99;stroke-width:23.8px;stroke-linecap:butt;stroke-linejoin:miter;stroke-opacity:1"/>
<ellipse cx="204.116" cy="194.624" rx="22.2974" ry="22.2974" style="fill:#FFFFAA;fill-rule:evenodd;stroke:#FFFFAA;stroke-width:1px;stroke-linecap:butt;stroke-linejoin:miter;stroke-opacity:1"/>
<ellipse cx="300.666" cy="250.368" rx="22.2974" ry="22.2974" style="fill:#FFFFAA;fill-rule:evenodd;stroke:#FFFFAA;stroke-width:1px;stroke-linecap:butt;stroke-linejoin:miter;stroke-opacity:1"/>
<ellipse cx="300.666" cy="362.075" rx="22.2974" ry="22.2974" style="fill:#FFFFAA;fill-rule:evenodd;stroke:#FFFFAA;stroke-width:1px;stroke-linecap:butt;stroke-linejoin:miter;stroke-opacity:1"/>
<ellipse cx="397.217" cy="194.844" rx="22.2974" ry="22.2974" style="fill:#FFFFAA;fill-rule:evenodd;stroke:#FFFFAA;stroke-width:1px;stroke-linecap:butt;stroke-linejoin:miter;stroke-opacity:1"/>
<ellipse cx="493.768" cy="250.368" rx="22.2974" ry="22.2974" style="fill:#FFFFAA;fill-rule:evenodd;stroke:#FFFFAA;stroke-width:1px;stroke-linecap:butt;stroke-linejoin:miter;stroke-opacity:1"/>
<ellipse cx="590.319" cy="194.624" rx="22.2974" ry="22.2974" style="fill:#FFFFAA;fill-rule:evenodd;stroke:#FFFFAA;stroke-width:1px;stroke-linecap:butt;stroke-linejoin:miter;stroke-opacity:1"/>
<ellipse cx="493.768" cy="362.075" rx="22.2974" ry="22.2974" style="fill:#FFFFAA;fill-rule:evenodd;stroke:#FFFFAA;stroke-width:1px;stroke-linecap:butt;stroke-linejoin:miter;stroke-opacity:1"/>
<ellipse cx="898.624" cy="369.466" rx="43.0436" ry="30.0379" style="fill:#FFCC99;fill-rule:evenodd;stroke:#FFCC99;stroke-width:1px;stroke-linecap:butt;stroke-linejoin:miter;stroke-opacity:1"/>
<ellipse cx="1014.87" cy="306.642" rx="22.2974" ry="22.2974" style="fill:#FFCC99;fill-rule:evenodd;stroke:#FFCC99;stroke-width:1px;stroke-linecap:butt;stroke-linejoin:miter;stroke-opacity:1"/>
<ellipse cx="1014.87" cy="195.155" rx="22.2974" ry="22.2974" style="fill:#FFCC99;fill-rule:evenodd;stroke:#FFCC99;stroke-width:1px;stroke-linecap:butt;stroke-linejoin:miter;stroke-opacity:1"/>
<ellipse cx="1111.42" cy="139.411" rx="22.2974" ry="22.2974" style="fill:#FFCC99;fill-rule:evenodd;stroke:#FFCC99;stroke-width:1px;stroke-linecap:butt;stroke-linejoin:miter;stroke-opacity:1"/>
<ellipse cx="1207.97" cy="195.155" rx="22.2974" ry="22.2974" style="fill:#FFCC99;fill-rule:evenodd;stroke:#FFCC99;stroke-width:1px;stroke-linecap:butt;stroke-linejoin:miter;stroke-opacity:1"/>
<ellipse cx="1304.52" cy="139.631" rx="22.2974" ry="22.2974" style="fill:#FFCC99;fill-rule:evenodd;stroke:#FFCC99;stroke-width:1px;stroke-linecap:butt;stroke-linejoin:miter;stroke-opacity:1"/>
<ellipse cx="1401.07" cy="195.155" rx="22.2974" ry="22.2974" style="fill:#FFCC99;fill-rule:evenodd;stroke:#FFCC99;stroke-width:1px;stroke-linecap:butt;stroke-linejoin:miter;stroke-opacity:1"/>
<ellipse cx="1401.07" cy="306.642" rx="22.2974" ry="22.2974" style="fill:#FFCC99;fill-rule:evenodd;stroke:#FFCC99;stroke-width:1px;stroke-linecap:butt;stroke-linejoin:miter;stroke-opacity:1"/>
<ellipse cx="1497.63" cy="362.386" rx="22.2974" ry="22.2974" style="fill:#FFCC99;fill-rule:evenodd;stroke:#FFCC99;stroke-width:1px;stroke-linecap:butt;stroke-linejoin:miter;stroke-opacity:1"/>
<ellipse cx="1594.18" cy="306.642" rx="22.2974" ry="22.2974" style="fill:#FFCC99;fill-rule:evenodd;stroke:#FFCC99;stroke-width:1px;stroke-linecap:butt;stroke-linejoin:miter;stroke-opacity:1"/>
<ellipse cx="1694.29" cy="362.566" rx="22.2974" ry="22.2974" style="fill:#FFCC99;fill-rule:evenodd;stroke:#FFCC99;stroke-width:1px;stroke-linecap:butt;stroke-linejoin:miter;stroke-opacity:1"/>
<ellipse cx="1594.18" cy="195.155" rx="22.2974" ry="22.2974" style="fill:#FFCC99;fill-rule:evenodd;stroke:#FFCC99;stroke-width:1px;stroke-linecap:butt;stroke-linejoin:miter;stroke-opacity:1"/>
<ellipse cx="1497.63" cy="139.411" rx="22.2974" ry="22.2974" style="fill:#FFCC99;fill-rule:evenodd;stroke:#FFCC99;stroke-width:1px;stroke-linecap:butt;stroke-linejoin:miter;stroke-opacity:1"/>
<ellipse cx="1207.97" cy="306.642" rx="22.2974" ry="22.2974" style="fill:#FFCC99;fill-rule:evenodd;stroke:#FFCC99;stroke-width:1px;stroke-linecap:butt;stroke-linejoin:miter;stroke-opacity:1"/>
<ellipse cx="1111.42" cy="362.386" rx="22.2974" ry="22.2974" style="fill:#FFCC99;fill-rule:evenodd;stroke:#FFCC99;stroke-width:1px;stroke-linecap:butt;stroke-linejoin:miter;stroke-opacity:1"/>
<ellipse cx="2338.97" cy="314.075" rx="22.2974" ry="22.2974" style="fill:#FFFFAA;fill-rule:evenodd;stroke:#FFFFAA;stroke-width:1px;stroke-linecap:butt;stroke-linejoin:miter;stroke-opacity:1"/>
<ellipse cx="2435.52" cy="258.331" rx="22.2974" ry="22.2974" style="fill:#FFFFAA;fill-rule:evenodd;stroke:#FFFFAA;stroke-width:1px;stroke-linecap:butt;stroke-linejoin:miter;stroke-opacity:1"/>
<ellipse cx="2532.07" cy="314.295" rx="22.2974" ry="22.2974" style="fill:#FFFFAA;fill-rule:evenodd;stroke:#FFFFAA;stroke-width:1px;stroke-linecap:butt;stroke-linejoin:miter;stroke-opacity:1"/>
<ellipse cx="2448.3" cy="147.064" rx="36.4584" ry="22.2974" style="fill:#FFFFAA;fill-rule:evenodd;stroke:#FFFFAA;stroke-width:1px;stroke-linecap:butt;stroke-linejoin:miter;stroke-opacity:1"/>
<ellipse cx="2816.07" cy="340.933" rx="22.2974" ry="22.2974" style="fill:#FFFFAA;fill-rule:evenodd;stroke:#FFFFAA;stroke-width:1px;stroke-linecap:butt;stroke-linejoin:miter;stroke-opacity:1"/>
<ellipse cx="2914.42" cy="288.437" rx="22.2974" ry="22.2974" style="fill:#FFFFAA;fill-rule:evenodd;stroke:#FFFFAA;stroke-width:1px;stroke-linecap:butt;stroke-linejoin:miter;stroke-opacity:1"/>
<ellipse cx="2918.14" cy="177.232" rx="22.2974" ry="22.2974" style="fill:#FFFFAA;fill-rule:evenodd;stroke:#FFFFAA;stroke-width:1px;stroke-linecap:butt;stroke-linejoin:miter;stroke-opacity:1"/>
<ellipse cx="3009.06" cy="362.943" rx="22.2974" ry="42.0531" style="fill:#FFCC99;fill-rule:evenodd;stroke:#FFCC99;stroke-width:1px;stroke-linecap:butt;stroke-linejoin:miter;stroke-opacity:1"/>
<ellipse cx="3107.42" cy="294.871" rx="22.2974" ry="22.2974" style="fill:#FFCC99;fill-rule:evenodd;stroke:#FFCC99;stroke-width:1px;stroke-linecap:butt;stroke-linejoin:miter;stroke-opacity:1"/>
<ellipse cx="3111.13" cy="183.446" rx="22.2974" ry="22.2974" style="fill:#FFCC99;fill-rule:evenodd;stroke:#FFCC99;stroke-width:1px;stroke-linecap:butt;stroke-linejoin:miter;stroke-opacity:1"/>
<ellipse cx="3209.49" cy="130.951" rx="22.2974" ry="22.2974" style="fill:#FFCC99;fill-rule:evenodd;stroke:#FFCC99;stroke-width:1px;stroke-linecap:butt;stroke-linejoin:miter;stroke-opacity:1"/>
<ellipse cx="3304.13" cy="189.88" rx="22.2974" ry="22.2974" style="fill:#FFCC99;fill-rule:evenodd;stroke:#FFCC99;stroke-width:1px;stroke-linecap:butt;stroke-linejoin:miter;stroke-opacity:1"/>
<ellipse cx="3402.48" cy="137.605" rx="22.2974" ry="22.2974" style="fill:#FFCC99;fill-rule:evenodd;stroke:#FFCC99;stroke-width:1px;stroke-linecap:butt;stroke-linejoin:miter;stroke-opacity:1"/>
<ellipse cx="3497.12" cy="196.315" rx="22.2974" ry="22.2974" style="fill:#FFCC99;fill-rule:evenodd;stroke:#FFCC99;stroke-width:1px;stroke-linecap:butt;stroke-linejoin:miter;stroke-opacity:1"/>
<ellipse cx="3493.41" cy="307.74" rx="22.2974" ry="22.2974" style="fill:#FFCC99;fill-rule:evenodd;stroke:#FFCC99;stroke-width:1px;stroke-linecap:butt;stroke-linejoin:miter;stroke-opacity:1"/>
<ellipse cx="3588.05" cy="366.67" rx="22.2974" ry="22.2974" style="fill:#FFCC99;fill-rule:evenodd;stroke:#FFCC99;stroke-width:1px;stroke-linecap:butt;stroke-linejoin:miter;stroke-opacity:1"/>
<ellipse cx="3686.4" cy="314.174" rx="22.2974" ry="22.2974" style="fill:#FFCC99;fill-rule:evenodd;stroke:#FFCC99;stroke-width:1px;stroke-linecap:butt;stroke-linejoin:miter;stroke-opacity:1"/>
<ellipse cx="3784.6" cy="373.284" rx="22.2974" ry="22.2974" style="fill:#FFCC99;fill-rule:evenodd;stroke:#FFCC99;stroke-width:1px;stroke-linecap:butt;stroke-linejoin:miter;stroke-opacity:1"/>
<ellipse cx="3690.12" cy="202.749" rx="22.2974" ry="22.2974" style="fill:#FFCC99;fill-rule:evenodd;stroke:#FFCC99;stroke-width:1px;stroke-linecap:butt;stroke-linejoin:miter;stroke-opacity:1"/>
<ellipse cx="3595.48" cy="143.819" rx="22.2974" ry="22.2974" style="fill:#FFCC99;fill-rule:evenodd;stroke:#FFCC99;stroke-width:1px;stroke-linecap:butt;stroke-linejoin:miter;stroke-opacity:1"/>
<ellipse cx="3300.41" cy="301.306" rx="22.2974" ry="22.2974" style="fill:#FFCC99;fill-rule:evenodd;stroke:#FFCC99;stroke-width:1px;stroke-linecap:butt;stroke-linejoin:miter;stroke-opacity:1"/>
<ellipse cx="3202.06" cy="353.801" rx="22.2974" ry="22.2974" style="fill:#FFCC99;fill-rule:evenodd;stroke:#FFCC99;stroke-width:1px;stroke-linecap:butt;stroke-linejoin:miter;stroke-opacity:1"/>
<path class="bond-0" d="M 204.116,194.624 L 300.666,250.368" style="fill:none;fill-rule:evenodd;stroke:#000000;stroke-width:2.0px;stroke-linecap:butt;stroke-linejoin:miter;stroke-opacity:1"/>
<path class="bond-1" d="M 289.518,250.368 L 289.518,297.558" style="fill:none;fill-rule:evenodd;stroke:#000000;stroke-width:2.0px;stroke-linecap:butt;stroke-linejoin:miter;stroke-opacity:1"/>
<path class="bond-1" d="M 289.518,297.558 L 289.518,344.748" style="fill:none;fill-rule:evenodd;stroke:#FF0000;stroke-width:2.0px;stroke-linecap:butt;stroke-linejoin:miter;stroke-opacity:1"/>
<path class="bond-1" d="M 311.815,250.368 L 311.815,297.558" style="fill:none;fill-rule:evenodd;stroke:#000000;stroke-width:2.0px;stroke-linecap:butt;stroke-linejoin:miter;stroke-opacity:1"/>
<path class="bond-1" d="M 311.815,297.558 L 311.815,344.748" style="fill:none;fill-rule:evenodd;stroke:#FF0000;stroke-width:2.0px;stroke-linecap:butt;stroke-linejoin:miter;stroke-opacity:1"/>
<path class="bond-2" d="M 300.666,250.368 L 341.048,227.053" style="fill:none;fill-rule:evenodd;stroke:#000000;stroke-width:2.0px;stroke-linecap:butt;stroke-linejoin:miter;stroke-opacity:1"/>
<path class="bond-2" d="M 341.048,227.053 L 381.43,203.739" style="fill:none;fill-rule:evenodd;stroke:#FF0000;stroke-width:2.0px;stroke-linecap:butt;stroke-linejoin:miter;stroke-opacity:1"/>
<path class="bond-3" d="M 413.004,203.739 L 453.386,227.053" style="fill:none;fill-rule:evenodd;stroke:#FF0000;stroke-width:2.0px;stroke-linecap:butt;stroke-linejoin:miter;stroke-opacity:1"/>
<path class="bond-3" d="M 453.386,227.053 L 493.768,250.368" style="fill:none;fill-rule:evenodd;stroke:#000000;stroke-width:2.0px;stroke-linecap:butt;stroke-linejoin:miter;stroke-opacity:1"/>
<path class="bond-4" d="M 493.768,250.368 L 590.319,194.624" style="fill:none;fill-rule:evenodd;stroke:#000000;stroke-width:2.0px;stroke-linecap:butt;stroke-linejoin:miter;stroke-opacity:1"/>
<path class="bond-5" d="M 482.619,250.368 L 482.619,297.558" style="fill:none;fill-rule:evenodd;stroke:#000000;stroke-width:2.0px;stroke-linecap:butt;stroke-linejoin:miter;stroke-opacity:1"/>
<path class="bond-5" d="M 482.619,297.558 L 482.619,344.748" style="fill:none;fill-rule:evenodd;stroke:#FF0000;stroke-width:2.0px;stroke-linecap:butt;stroke-linejoin:miter;stroke-opacity:1"/>
<path class="bond-5" d="M 504.917,250.368 L 504.917,297.558" style="fill:none;fill-rule:evenodd;stroke:#000000;stroke-width:2.0px;stroke-linecap:butt;stroke-linejoin:miter;stroke-opacity:1"/>
<path class="bond-5" d="M 504.917,297.558 L 504.917,344.748" style="fill:none;fill-rule:evenodd;stroke:#FF0000;stroke-width:2.0px;stroke-linecap:butt;stroke-linejoin:miter;stroke-opacity:1"/>
<path class="bond-6" d="M 931.848,354.576 L 973.36,330.609" style="fill:none;fill-rule:evenodd;stroke:#0000FF;stroke-width:2.0px;stroke-linecap:butt;stroke-linejoin:miter;stroke-opacity:1"/>
<path class="bond-6" d="M 973.36,330.609 L 1014.87,306.642" style="fill:none;fill-rule:evenodd;stroke:#000000;stroke-width:2.0px;stroke-linecap:butt;stroke-linejoin:miter;stroke-opacity:1"/>
<path class="bond-7" d="M 1014.87,306.642 L 1014.87,195.155" style="fill:none;fill-rule:evenodd;stroke:#000000;stroke-width:2.0px;stroke-linecap:butt;stroke-linejoin:miter;stroke-opacity:1"/>
<path class="bond-7" d="M 1037.17,289.919 L 1037.17,211.878" style="fill:none;fill-rule:evenodd;stroke:#000000;stroke-width:2.0px;stroke-linecap:butt;stroke-linejoin:miter;stroke-opacity:1;stroke-dasharray:6,6"/>
<path class="bond-20" d="M 1014.87,306.642 L 1111.42,362.386" style="fill:none;fill-rule:evenodd;stroke:#000000;stroke-width:2.0px;stroke-linecap:butt;stroke-linejoin:miter;stroke-opacity:1"/>
<path class="bond-20" d="M 1040.5,295.694 L 1108.09,334.714" style="fill:none;fill-rule:evenodd;stroke:#000000;stroke-width:2.0px;stroke-linecap:butt;stroke-linejoin:miter;stroke-opacity:1;stroke-dasharray:6,6"/>
<path class="bond-8" d="M 1014.87,195.155 L 1111.42,139.411" style="fill:none;fill-rule:evenodd;stroke:#000000;stroke-width:2.0px;stroke-linecap:butt;stroke-linejoin:miter;stroke-opacity:1"/>
<path class="bond-8" d="M 1040.5,206.104 L 1108.09,167.083" style="fill:none;fill-rule:evenodd;stroke:#000000;stroke-width:2.0px;stroke-linecap:butt;stroke-linejoin:miter;stroke-opacity:1;stroke-dasharray:6,6"/>
<path class="bond-9" d="M 1111.42,139.411 L 1207.97,195.155" style="fill:none;fill-rule:evenodd;stroke:#000000;stroke-width:2.0px;stroke-linecap:butt;stroke-linejoin:miter;stroke-opacity:1"/>
<path class="bond-9" d="M 1114.76,167.083 L 1182.34,206.104" style="fill:none;fill-rule:evenodd;stroke:#000000;stroke-width:2.0px;stroke-linecap:butt;stroke-linejoin:miter;stroke-opacity:1;stroke-dasharray:6,6"/>
<path class="bond-10" d="M 1207.97,195.155 L 1248.35,171.841" style="fill:none;fill-rule:evenodd;stroke:#000000;stroke-width:2.0px;stroke-linecap:butt;stroke-linejoin:miter;stroke-opacity:1"/>
<path class="bond-10" d="M 1248.35,171.841 L 1288.74,148.526" style="fill:none;fill-rule:evenodd;stroke:#FF0000;stroke-width:2.0px;stroke-linecap:butt;stroke-linejoin:miter;stroke-opacity:1"/>
<path class="bond-18" d="M 1207.97,195.155 L 1207.97,306.642" style="fill:none;fill-rule:evenodd;stroke:#000000;stroke-width:2.0px;stroke-linecap:butt;stroke-linejoin:miter;stroke-opacity:1"/>
<path class="bond-18" d="M 1185.68,211.878 L 1185.68,289.919" style="fill:none;fill-rule:evenodd;stroke:#000000;stroke-width:2.0px;stroke-linecap:butt;stroke-linejoin:miter;stroke-opacity:1;stroke-dasharray:6,6"/>
<path class="bond-11" d="M 1320.31,148.526 L 1360.69,171.841" style="fill:none;fill-rule:evenodd;stroke:#FF0000;stroke-width:2.0px;stroke-linecap:butt;stroke-linejoin:miter;stroke-opacity:1"/>
<path class="bond-11" d="M 1360.69,171.841 L 1401.07,195.155" style="fill:none;fill-rule:evenodd;stroke:#000000;stroke-width:2.0px;stroke-linecap:butt;stroke-linejoin:miter;stroke-opacity:1"/>
<path class="bond-12" d="M 1401.07,195.155 L 1401.07,242.425" style="fill:none;fill-rule:evenodd;stroke:#000000;stroke-width:2.0px;stroke-linecap:butt;stroke-linejoin:miter;stroke-opacity:1"/>
<path class="bond-12" d="M 1401.07,242.425 L 1401.07,289.695" style="fill:none;fill-rule:evenodd;stroke:#0000FF;stroke-width:2.0px;stroke-linecap:butt;stroke-linejoin:miter;stroke-opacity:1"/>
<path class="bond-12" d="M 1423.37,209.336 L 1423.37,242.425" style="fill:none;fill-rule:evenodd;stroke:#000000;stroke-width:2.0px;stroke-linecap:butt;stroke-linejoin:miter;stroke-opacity:1;stroke-dasharray:6,6"/>
<path class="bond-12" d="M 1423.37,242.425 L 1423.37,275.514" style="fill:none;fill-rule:evenodd;stroke:#0000FF;stroke-width:2.0px;stroke-linecap:butt;stroke-linejoin:miter;stroke-opacity:1;stroke-dasharray:6,6"/>
<path class="bond-21" d="M 1401.07,195.155 L 1442.59,171.188" style="fill:none;fill-rule:evenodd;stroke:#000000;stroke-width:2.0px;stroke-linecap:butt;stroke-linejoin:miter;stroke-opacity:1"/>
<path class="bond-21" d="M 1442.59,171.188 L 1484.1,147.221" style="fill:none;fill-rule:evenodd;stroke:#0000FF;stroke-width:2.0px;stroke-linecap:butt;stroke-linejoin:miter;stroke-opacity:1"/>
<path class="bond-21" d="M 1424.68,207.275 L 1453.73,190.498" style="fill:none;fill-rule:evenodd;stroke:#000000;stroke-width:2.0px;stroke-linecap:butt;stroke-linejoin:miter;stroke-opacity:1;stroke-dasharray:6,6"/>
<path class="bond-21" d="M 1453.73,190.498 L 1482.79,173.721" style="fill:none;fill-rule:evenodd;stroke:#0000FF;stroke-width:2.0px;stroke-linecap:butt;stroke-linejoin:miter;stroke-opacity:1;stroke-dasharray:6,6"/>
<path class="bond-13" d="M 1414.6,314.452 L 1456.11,338.419" style="fill:none;fill-rule:evenodd;stroke:#0000FF;stroke-width:2.0px;stroke-linecap:butt;stroke-linejoin:miter;stroke-opacity:1"/>
<path class="bond-13" d="M 1456.11,338.419 L 1497.63,362.386" style="fill:none;fill-rule:evenodd;stroke:#000000;stroke-width:2.0px;stroke-linecap:butt;stroke-linejoin:miter;stroke-opacity:1"/>
<path class="bond-13" d="M 1438.2,302.332 L 1467.26,319.109" style="fill:none;fill-rule:evenodd;stroke:#0000FF;stroke-width:2.0px;stroke-linecap:butt;stroke-linejoin:miter;stroke-opacity:1;stroke-dasharray:6,6"/>
<path class="bond-13" d="M 1467.26,319.109 L 1496.32,335.886" style="fill:none;fill-rule:evenodd;stroke:#000000;stroke-width:2.0px;stroke-linecap:butt;stroke-linejoin:miter;stroke-opacity:1;stroke-dasharray:6,6"/>
<path class="bond-14" d="M 1497.63,362.386 L 1594.18,306.642" style="fill:none;fill-rule:evenodd;stroke:#000000;stroke-width:2.0px;stroke-linecap:butt;stroke-linejoin:miter;stroke-opacity:1"/>
<path class="bond-14" d="M 1500.96,334.714 L 1568.54,295.694" style="fill:none;fill-rule:evenodd;stroke:#000000;stroke-width:2.0px;stroke-linecap:butt;stroke-linejoin:miter;stroke-opacity:1;stroke-dasharray:6,6"/>
<path class="bond-15" d="M 1594.18,306.642 L 1635.6,330.557" style="fill:none;fill-rule:evenodd;stroke:#000000;stroke-width:2.0px;stroke-linecap:butt;stroke-linejoin:miter;stroke-opacity:1"/>
<path class="bond-15" d="M 1635.6,330.557 L 1677.02,354.472" style="fill:none;fill-rule:evenodd;stroke:#00CC00;stroke-width:2.0px;stroke-linecap:butt;stroke-linejoin:miter;stroke-opacity:1"/>
<path class="bond-16" d="M 1594.18,306.642 L 1594.18,195.155" style="fill:none;fill-rule:evenodd;stroke:#000000;stroke-width:2.0px;stroke-linecap:butt;stroke-linejoin:miter;stroke-opacity:1"/>
<path class="bond-16" d="M 1571.88,289.919 L 1571.88,211.878" style="fill:none;fill-rule:evenodd;stroke:#000000;stroke-width:2.0px;stroke-linecap:butt;stroke-linejoin:miter;stroke-opacity:1;stroke-dasharray:6,6"/>
<path class="bond-17" d="M 1594.18,195.155 L 1552.66,171.188" style="fill:none;fill-rule:evenodd;stroke:#000000;stroke-width:2.0px;stroke-linecap:butt;stroke-linejoin:miter;stroke-opacity:1"/>
<path class="bond-17" d="M 1552.66,171.188 L 1511.15,147.221" style="fill:none;fill-rule:evenodd;stroke:#0000FF;stroke-width:2.0px;stroke-linecap:butt;stroke-linejoin:miter;stroke-opacity:1"/>
<path class="bond-17" d="M 1570.57,207.275 L 1541.52,190.498" style="fill:none;fill-rule:evenodd;stroke:#000000;stroke-width:2.0px;stroke-linecap:butt;stroke-linejoin:miter;stroke-opacity:1;stroke-dasharray:6,6"/>
<path class="bond-17" d="M 1541.52,190.498 L 1512.46,173.721" style="fill:none;fill-rule:evenodd;stroke:#0000FF;stroke-width:2.0px;stroke-linecap:butt;stroke-linejoin:miter;stroke-opacity:1;stroke-dasharray:6,6"/>
<path class="bond-19" d="M 1207.97,306.642 L 1111.42,362.386" style="fill:none;fill-rule:evenodd;stroke:#000000;stroke-width:2.0px;stroke-linecap:butt;stroke-linejoin:miter;stroke-opacity:1"/>
<path class="bond-19" d="M 1182.34,295.694 L 1114.76,334.714" style="fill:none;fill-rule:evenodd;stroke:#000000;stroke-width:2.0px;stroke-linecap:butt;stroke-linejoin:miter;stroke-opacity:1;stroke-dasharray:6,6"/>
<path class="bond-22" d="M 2338.97,314.075 L 2435.52,258.331" style="fill:none;fill-rule:evenodd;stroke:#000000;stroke-width:2.0px;stroke-linecap:butt;stroke-linejoin:miter;stroke-opacity:1"/>
<path class="bond-23" d="M 2429.95,267.986 L 2470.33,291.301" style="fill:none;fill-rule:evenodd;stroke:#000000;stroke-width:2.0px;stroke-linecap:butt;stroke-linejoin:miter;stroke-opacity:1"/>
<path class="bond-23" d="M 2470.33,291.301 L 2510.71,314.615" style="fill:none;fill-rule:evenodd;stroke:#FF0000;stroke-width:2.0px;stroke-linecap:butt;stroke-linejoin:miter;stroke-opacity:1"/>
<path class="bond-23" d="M 2441.1,248.676 L 2481.48,271.99" style="fill:none;fill-rule:evenodd;stroke:#000000;stroke-width:2.0px;stroke-linecap:butt;stroke-linejoin:miter;stroke-opacity:1"/>
<path class="bond-23" d="M 2481.48,271.99 L 2521.86,295.305" style="fill:none;fill-rule:evenodd;stroke:#FF0000;stroke-width:2.0px;stroke-linecap:butt;stroke-linejoin:miter;stroke-opacity:1"/>
<path class="bond-24" d="M 2435.52,258.331 L 2435.52,211.361" style="fill:none;fill-rule:evenodd;stroke:#000000;stroke-width:2.0px;stroke-linecap:butt;stroke-linejoin:miter;stroke-opacity:1"/>
<path class="bond-24" d="M 2435.52,211.361 L 2435.52,164.391" style="fill:none;fill-rule:evenodd;stroke:#FF0000;stroke-width:2.0px;stroke-linecap:butt;stroke-linejoin:miter;stroke-opacity:1"/>
<path class="bond-25" d="M 2816.07,340.933 L 2914.42,288.437" style="fill:none;fill-rule:evenodd;stroke:#000000;stroke-width:2.0px;stroke-linecap:butt;stroke-linejoin:miter;stroke-opacity:1"/>
<path class="bond-26" d="M 2925.57,288.809 L 2927.13,241.87" style="fill:none;fill-rule:evenodd;stroke:#000000;stroke-width:2.0px;stroke-linecap:butt;stroke-linejoin:miter;stroke-opacity:1"/>
<path class="bond-26" d="M 2927.13,241.87 L 2928.7,194.93" style="fill:none;fill-rule:evenodd;stroke:#FF0000;stroke-width:2.0px;stroke-linecap:butt;stroke-linejoin:miter;stroke-opacity:1"/>
<path class="bond-26" d="M 2903.28,288.066 L 2904.85,241.127" style="fill:none;fill-rule:evenodd;stroke:#000000;stroke-width:2.0px;stroke-linecap:butt;stroke-linejoin:miter;stroke-opacity:1"/>
<path class="bond-26" d="M 2904.85,241.127 L 2906.41,194.188" style="fill:none;fill-rule:evenodd;stroke:#FF0000;stroke-width:2.0px;stroke-linecap:butt;stroke-linejoin:miter;stroke-opacity:1"/>
<path class="bond-27" d="M 2914.42,288.437 L 2954.98,313.69" style="fill:none;fill-rule:evenodd;stroke:#000000;stroke-width:2.0px;stroke-linecap:butt;stroke-linejoin:miter;stroke-opacity:1"/>
<path class="bond-27" d="M 2954.98,313.69 L 2995.54,338.944" style="fill:none;fill-rule:evenodd;stroke:#0000FF;stroke-width:2.0px;stroke-linecap:butt;stroke-linejoin:miter;stroke-opacity:1"/>
<path class="bond-28" d="M 3022.59,340.147 L 3065,317.509" style="fill:none;fill-rule:evenodd;stroke:#0000FF;stroke-width:2.0px;stroke-linecap:butt;stroke-linejoin:miter;stroke-opacity:1"/>
<path class="bond-28" d="M 3065,317.509 L 3107.42,294.871" style="fill:none;fill-rule:evenodd;stroke:#000000;stroke-width:2.0px;stroke-linecap:butt;stroke-linejoin:miter;stroke-opacity:1"/>
<path class="bond-29" d="M 3107.42,294.871 L 3111.13,183.446" style="fill:none;fill-rule:evenodd;stroke:#000000;stroke-width:2.0px;stroke-linecap:butt;stroke-linejoin:miter;stroke-opacity:1"/>
<path class="bond-29" d="M 3130.26,278.901 L 3132.86,200.903" style="fill:none;fill-rule:evenodd;stroke:#000000;stroke-width:2.0px;stroke-linecap:butt;stroke-linejoin:miter;stroke-opacity:1;stroke-dasharray:6,6"/>
<path class="bond-42" d="M 3107.42,294.871 L 3202.06,353.801" style="fill:none;fill-rule:evenodd;stroke:#000000;stroke-width:2.0px;stroke-linecap:butt;stroke-linejoin:miter;stroke-opacity:1"/>
<path class="bond-42" d="M 3133.4,284.783 L 3199.65,326.034" style="fill:none;fill-rule:evenodd;stroke:#000000;stroke-width:2.0px;stroke-linecap:butt;stroke-linejoin:miter;stroke-opacity:1;stroke-dasharray:6,6"/>
<path class="bond-30" d="M 3111.13,183.446 L 3209.49,130.951" style="fill:none;fill-rule:evenodd;stroke:#000000;stroke-width:2.0px;stroke-linecap:butt;stroke-linejoin:miter;stroke-opacity:1"/>
<path class="bond-30" d="M 3136.38,195.243 L 3205.23,158.496" style="fill:none;fill-rule:evenodd;stroke:#000000;stroke-width:2.0px;stroke-linecap:butt;stroke-linejoin:miter;stroke-opacity:1;stroke-dasharray:6,6"/>
<path class="bond-31" d="M 3209.49,130.951 L 3304.13,189.88" style="fill:none;fill-rule:evenodd;stroke:#000000;stroke-width:2.0px;stroke-linecap:butt;stroke-linejoin:miter;stroke-opacity:1"/>
<path class="bond-31" d="M 3211.9,158.718 L 3278.14,199.969" style="fill:none;fill-rule:evenodd;stroke:#000000;stroke-width:2.0px;stroke-linecap:butt;stroke-linejoin:miter;stroke-opacity:1;stroke-dasharray:6,6"/>
<path class="bond-32" d="M 3304.13,189.88 L 3345.41,167.846" style="fill:none;fill-rule:evenodd;stroke:#000000;stroke-width:2.0px;stroke-linecap:butt;stroke-linejoin:miter;stroke-opacity:1"/>
<path class="bond-32" d="M 3345.41,167.846 L 3386.69,145.811" style="fill:none;fill-rule:evenodd;stroke:#FF0000;stroke-width:2.0px;stroke-linecap:butt;stroke-linejoin:miter;stroke-opacity:1"/>
<path class="bond-40" d="M 3304.13,189.88 L 3300.41,301.306" style="fill:none;fill-rule:evenodd;stroke:#000000;stroke-width:2.0px;stroke-linecap:butt;stroke-linejoin:miter;stroke-opacity:1"/>
<path class="bond-40" d="M 3281.28,205.851 L 3278.68,283.849" style="fill:none;fill-rule:evenodd;stroke:#000000;stroke-width:2.0px;stroke-linecap:butt;stroke-linejoin:miter;stroke-opacity:1;stroke-dasharray:6,6"/>
<path class="bond-33" d="M 3418.27,147.215 L 3457.69,171.765" style="fill:none;fill-rule:evenodd;stroke:#FF0000;stroke-width:2.0px;stroke-linecap:butt;stroke-linejoin:miter;stroke-opacity:1"/>
<path class="bond-33" d="M 3457.69,171.765 L 3497.12,196.315" style="fill:none;fill-rule:evenodd;stroke:#000000;stroke-width:2.0px;stroke-linecap:butt;stroke-linejoin:miter;stroke-opacity:1"/>
<path class="bond-34" d="M 3497.12,196.315 L 3495.55,243.554" style="fill:none;fill-rule:evenodd;stroke:#000000;stroke-width:2.0px;stroke-linecap:butt;stroke-linejoin:miter;stroke-opacity:1"/>
<path class="bond-34" d="M 3495.55,243.554 L 3493.97,290.793" style="fill:none;fill-rule:evenodd;stroke:#0000FF;stroke-width:2.0px;stroke-linecap:butt;stroke-linejoin:miter;stroke-opacity:1"/>
<path class="bond-34" d="M 3518.93,211.229 L 3517.83,244.297" style="fill:none;fill-rule:evenodd;stroke:#000000;stroke-width:2.0px;stroke-linecap:butt;stroke-linejoin:miter;stroke-opacity:1;stroke-dasharray:6,6"/>
<path class="bond-34" d="M 3517.83,244.297 L 3516.73,277.364" style="fill:none;fill-rule:evenodd;stroke:#0000FF;stroke-width:2.0px;stroke-linecap:butt;stroke-linejoin:miter;stroke-opacity:1;stroke-dasharray:6,6"/>
<path class="bond-43" d="M 3497.12,196.315 L 3539.53,173.677" style="fill:none;fill-rule:evenodd;stroke:#000000;stroke-width:2.0px;stroke-linecap:butt;stroke-linejoin:miter;stroke-opacity:1"/>
<path class="bond-43" d="M 3539.53,173.677 L 3581.95,151.039" style="fill:none;fill-rule:evenodd;stroke:#0000FF;stroke-width:2.0px;stroke-linecap:butt;stroke-linejoin:miter;stroke-opacity:1"/>
<path class="bond-43" d="M 3520.34,209.194 L 3550.03,193.348" style="fill:none;fill-rule:evenodd;stroke:#000000;stroke-width:2.0px;stroke-linecap:butt;stroke-linejoin:miter;stroke-opacity:1;stroke-dasharray:6,6"/>
<path class="bond-43" d="M 3550.03,193.348 L 3579.72,177.501" style="fill:none;fill-rule:evenodd;stroke:#0000FF;stroke-width:2.0px;stroke-linecap:butt;stroke-linejoin:miter;stroke-opacity:1;stroke-dasharray:6,6"/>
<path class="bond-35" d="M 3506.93,316.163 L 3547.49,341.416" style="fill:none;fill-rule:evenodd;stroke:#0000FF;stroke-width:2.0px;stroke-linecap:butt;stroke-linejoin:miter;stroke-opacity:1"/>
<path class="bond-35" d="M 3547.49,341.416 L 3588.05,366.67" style="fill:none;fill-rule:evenodd;stroke:#000000;stroke-width:2.0px;stroke-linecap:butt;stroke-linejoin:miter;stroke-opacity:1"/>
<path class="bond-35" d="M 3530.89,304.811 L 3559.28,322.488" style="fill:none;fill-rule:evenodd;stroke:#0000FF;stroke-width:2.0px;stroke-linecap:butt;stroke-linejoin:miter;stroke-opacity:1;stroke-dasharray:6,6"/>
<path class="bond-35" d="M 3559.28,322.488 L 3587.66,340.166" style="fill:none;fill-rule:evenodd;stroke:#000000;stroke-width:2.0px;stroke-linecap:butt;stroke-linejoin:miter;stroke-opacity:1;stroke-dasharray:6,6"/>
<path class="bond-36" d="M 3588.05,366.67 L 3686.4,314.174" style="fill:none;fill-rule:evenodd;stroke:#000000;stroke-width:2.0px;stroke-linecap:butt;stroke-linejoin:miter;stroke-opacity:1"/>
<path class="bond-36" d="M 3592.3,339.124 L 3661.15,302.378" style="fill:none;fill-rule:evenodd;stroke:#000000;stroke-width:2.0px;stroke-linecap:butt;stroke-linejoin:miter;stroke-opacity:1;stroke-dasharray:6,6"/>
<path class="bond-37" d="M 3686.4,314.174 L 3726.87,339.371" style="fill:none;fill-rule:evenodd;stroke:#000000;stroke-width:2.0px;stroke-linecap:butt;stroke-linejoin:miter;stroke-opacity:1"/>
<path class="bond-37" d="M 3726.87,339.371 L 3767.33,364.569" style="fill:none;fill-rule:evenodd;stroke:#00CC00;stroke-width:2.0px;stroke-linecap:butt;stroke-linejoin:miter;stroke-opacity:1"/>
<path class="bond-38" d="M 3686.4,314.174 L 3690.12,202.749" style="fill:none;fill-rule:evenodd;stroke:#000000;stroke-width:2.0px;stroke-linecap:butt;stroke-linejoin:miter;stroke-opacity:1"/>
<path class="bond-38" d="M 3664.67,296.717 L 3667.27,218.72" style="fill:none;fill-rule:evenodd;stroke:#000000;stroke-width:2.0px;stroke-linecap:butt;stroke-linejoin:miter;stroke-opacity:1;stroke-dasharray:6,6"/>
<path class="bond-39" d="M 3690.12,202.749 L 3649.56,177.496" style="fill:none;fill-rule:evenodd;stroke:#000000;stroke-width:2.0px;stroke-linecap:butt;stroke-linejoin:miter;stroke-opacity:1"/>
<path class="bond-39" d="M 3649.56,177.496 L 3609,152.242" style="fill:none;fill-rule:evenodd;stroke:#0000FF;stroke-width:2.0px;stroke-linecap:butt;stroke-linejoin:miter;stroke-opacity:1"/>
<path class="bond-39" d="M 3666.16,214.101 L 3637.77,196.423" style="fill:none;fill-rule:evenodd;stroke:#000000;stroke-width:2.0px;stroke-linecap:butt;stroke-linejoin:miter;stroke-opacity:1;stroke-dasharray:6,6"/>
<path class="bond-39" d="M 3637.77,196.423 L 3609.38,178.746" style="fill:none;fill-rule:evenodd;stroke:#0000FF;stroke-width:2.0px;stroke-linecap:butt;stroke-linejoin:miter;stroke-opacity:1;stroke-dasharray:6,6"/>
<path class="bond-41" d="M 3300.41,301.306 L 3202.06,353.801" style="fill:none;fill-rule:evenodd;stroke:#000000;stroke-width:2.0px;stroke-linecap:butt;stroke-linejoin:miter;stroke-opacity:1"/>
<path class="bond-41" d="M 3275.16,289.509 L 3206.31,326.256" style="fill:none;fill-rule:evenodd;stroke:#000000;stroke-width:2.0px;stroke-linecap:butt;stroke-linejoin:miter;stroke-opacity:1;stroke-dasharray:6,6"/>
<path class="atom-2" d="M 287.666 361.935 Q 287.666 355.135, 291.026 351.335 Q 294.386 347.535, 300.666 347.535 Q 306.946 347.535, 310.306 351.335 Q 313.666 355.135, 313.666 361.935 Q 313.666 368.815, 310.266 372.735 Q 306.866 376.615, 300.666 376.615 Q 294.426 376.615, 291.026 372.735 Q 287.666 368.855, 287.666 361.935 M 300.666 373.415 Q 304.986 373.415, 307.306 370.535 Q 309.666 367.615, 309.666 361.935 Q 309.666 356.375, 307.306 353.575 Q 304.986 350.735, 300.666 350.735 Q 296.346 350.735, 293.986 353.535 Q 291.666 356.335, 291.666 361.935 Q 291.666 367.655, 293.986 370.535 Q 296.346 373.415, 300.666 373.415 " fill="#FF0000"/>
<path class="atom-3" d="M 384.217 194.704 Q 384.217 187.904, 387.577 184.104 Q 390.937 180.304, 397.217 180.304 Q 403.497 180.304, 406.857 184.104 Q 410.217 187.904, 410.217 194.704 Q 410.217 201.584, 406.817 205.504 Q 403.417 209.384, 397.217 209.384 Q 390.977 209.384, 387.577 205.504 Q 384.217 201.624, 384.217 194.704 M 397.217 206.184 Q 401.537 206.184, 403.857 203.304 Q 406.217 200.384, 406.217 194.704 Q 406.217 189.144, 403.857 186.344 Q 401.537 183.504, 397.217 183.504 Q 392.897 183.504, 390.537 186.304 Q 388.217 189.104, 388.217 194.704 Q 388.217 200.424, 390.537 203.304 Q 392.897 206.184, 397.217 206.184 " fill="#FF0000"/>
<path class="atom-6" d="M 480.768 361.935 Q 480.768 355.135, 484.128 351.335 Q 487.488 347.535, 493.768 347.535 Q 500.048 347.535, 503.408 351.335 Q 506.768 355.135, 506.768 361.935 Q 506.768 368.815, 503.368 372.735 Q 499.968 376.615, 493.768 376.615 Q 487.528 376.615, 484.128 372.735 Q 480.768 368.855, 480.768 361.935 M 493.768 373.415 Q 498.088 373.415, 500.408 370.535 Q 502.768 367.615, 502.768 361.935 Q 502.768 356.375, 500.408 353.575 Q 498.088 350.735, 493.768 350.735 Q 489.448 350.735, 487.088 353.535 Q 484.768 356.335, 484.768 361.935 Q 484.768 367.655, 487.088 370.535 Q 489.448 373.415, 493.768 373.415 " fill="#FF0000"/>
<path class="atom-7" d="M 868.188 348.226 L 872.028 348.226 L 872.028 360.266 L 886.508 360.266 L 886.508 348.226 L 890.348 348.226 L 890.348 376.546 L 886.508 376.546 L 886.508 363.466 L 872.028 363.466 L 872.028 376.546 L 868.188 376.546 L 868.188 348.226 " fill="#0000FF"/>
<path class="atom-7" d="M 891.721 375.552 Q 892.407 373.783, 894.044 372.807 Q 895.681 371.803, 897.951 371.803 Q 900.776 371.803, 902.36 373.335 Q 903.944 374.866, 903.944 377.585 Q 903.944 380.357, 901.885 382.944 Q 899.852 385.531, 895.628 388.594 L 904.261 388.594 L 904.261 390.706 L 891.668 390.706 L 891.668 388.937 Q 895.153 386.455, 897.212 384.607 Q 899.297 382.759, 900.301 381.096 Q 901.304 379.433, 901.304 377.717 Q 901.304 375.922, 900.406 374.919 Q 899.509 373.915, 897.951 373.915 Q 896.446 373.915, 895.443 374.523 Q 894.44 375.13, 893.727 376.476 L 891.721 375.552 " fill="#0000FF"/>
<path class="atom-7" d="M 912.061 348.226 L 921.341 363.226 Q 922.261 364.706, 923.741 367.386 Q 925.221 370.066, 925.301 370.226 L 925.301 348.226 L 929.061 348.226 L 929.061 376.546 L 925.181 376.546 L 915.221 360.146 Q 914.061 358.226, 912.821 356.026 Q 911.621 353.826, 911.261 353.146 L 911.261 376.546 L 907.581 376.546 L 907.581 348.226 L 912.061 348.226 " fill="#0000FF"/>
<path class="atom-12" d="M 1291.52 139.491 Q 1291.52 132.691, 1294.88 128.891 Q 1298.24 125.091, 1304.52 125.091 Q 1310.8 125.091, 1314.16 128.891 Q 1317.52 132.691, 1317.52 139.491 Q 1317.52 146.371, 1314.12 150.291 Q 1310.72 154.171, 1304.52 154.171 Q 1298.28 154.171, 1294.88 150.291 Q 1291.52 146.411, 1291.52 139.491 M 1304.52 150.971 Q 1308.84 150.971, 1311.16 148.091 Q 1313.52 145.171, 1313.52 139.491 Q 1313.52 133.931, 1311.16 131.131 Q 1308.84 128.291, 1304.52 128.291 Q 1300.2 128.291, 1297.84 131.091 Q 1295.52 133.891, 1295.52 139.491 Q 1295.52 145.211, 1297.84 148.091 Q 1300.2 150.971, 1304.52 150.971 " fill="#FF0000"/>
<path class="atom-14" d="M 1394.81 292.482 L 1404.09 307.482 Q 1405.01 308.962, 1406.49 311.642 Q 1407.97 314.322, 1408.05 314.482 L 1408.05 292.482 L 1411.81 292.482 L 1411.81 320.802 L 1407.93 320.802 L 1397.97 304.402 Q 1396.81 302.482, 1395.57 300.282 Q 1394.37 298.082, 1394.01 297.402 L 1394.01 320.802 L 1390.33 320.802 L 1390.33 292.482 L 1394.81 292.482 " fill="#0000FF"/>
<path class="atom-17" d="M 1679.81 363.366 Q 1679.81 356.326, 1683.09 352.646 Q 1686.41 348.926, 1692.69 348.926 Q 1698.53 348.926, 1701.65 353.046 L 1699.01 355.206 Q 1696.73 352.206, 1692.69 352.206 Q 1688.41 352.206, 1686.13 355.086 Q 1683.89 357.926, 1683.89 363.366 Q 1683.89 368.966, 1686.21 371.846 Q 1688.57 374.726, 1693.13 374.726 Q 1696.25 374.726, 1699.89 372.846 L 1701.01 375.846 Q 1699.53 376.806, 1697.29 377.366 Q 1695.05 377.926, 1692.57 377.926 Q 1686.41 377.926, 1683.09 374.166 Q 1679.81 370.406, 1679.81 363.366 " fill="#00CC00"/>
<path class="atom-17" d="M 1705.09 347.206 L 1708.77 347.206 L 1708.77 377.566 L 1705.09 377.566 L 1705.09 347.206 " fill="#00CC00"/>
<path class="atom-19" d="M 1491.37 125.251 L 1500.65 140.251 Q 1501.57 141.731, 1503.05 144.411 Q 1504.53 147.091, 1504.61 147.251 L 1504.61 125.251 L 1508.37 125.251 L 1508.37 153.571 L 1504.49 153.571 L 1494.53 137.171 Q 1493.37 135.251, 1492.13 133.051 Q 1490.93 130.851, 1490.57 130.171 L 1490.57 153.571 L 1486.89 153.571 L 1486.89 125.251 L 1491.37 125.251 " fill="#0000FF"/>
<path class="atom-24" d="M 2519.07 314.155 Q 2519.07 307.355, 2522.43 303.555 Q 2525.79 299.755, 2532.07 299.755 Q 2538.35 299.755, 2541.71 303.555 Q 2545.07 307.355, 2545.07 314.155 Q 2545.07 321.035, 2541.67 324.955 Q 2538.27 328.835, 2532.07 328.835 Q 2525.83 328.835, 2522.43 324.955 Q 2519.07 321.075, 2519.07 314.155 M 2532.07 325.635 Q 2536.39 325.635, 2538.71 322.755 Q 2541.07 319.835, 2541.07 314.155 Q 2541.07 308.595, 2538.71 305.795 Q 2536.39 302.955, 2532.07 302.955 Q 2527.75 302.955, 2525.39 305.755 Q 2523.07 308.555, 2523.07 314.155 Q 2523.07 319.875, 2525.39 322.755 Q 2527.75 325.635, 2532.07 325.635 " fill="#FF0000"/>
<path class="atom-25" d="M 2422.52 146.924 Q 2422.52 140.124, 2425.88 136.324 Q 2429.24 132.524, 2435.52 132.524 Q 2441.8 132.524, 2445.16 136.324 Q 2448.52 140.124, 2448.52 146.924 Q 2448.52 153.804, 2445.12 157.724 Q 2441.72 161.604, 2435.52 161.604 Q 2429.28 161.604, 2425.88 157.724 Q 2422.52 153.844, 2422.52 146.924 M 2435.52 158.404 Q 2439.84 158.404, 2442.16 155.524 Q 2444.52 152.604, 2444.52 146.924 Q 2444.52 141.364, 2442.16 138.564 Q 2439.84 135.724, 2435.52 135.724 Q 2431.2 135.724, 2428.84 138.524 Q 2426.52 141.324, 2426.52 146.924 Q 2426.52 152.644, 2428.84 155.524 Q 2431.2 158.404, 2435.52 158.404 " fill="#FF0000"/>
<path class="atom-25" d="M 2451.92 132.844 L 2455.76 132.844 L 2455.76 144.884 L 2470.24 144.884 L 2470.24 132.844 L 2474.08 132.844 L 2474.08 161.164 L 2470.24 161.164 L 2470.24 148.084 L 2455.76 148.084 L 2455.76 161.164 L 2451.92 161.164 L 2451.92 132.844 " fill="#FF0000"/>
<path class="atom-28" d="M 2905.14 177.092 Q 2905.14 170.292, 2908.5 166.492 Q 2911.86 162.692, 2918.14 162.692 Q 2924.42 162.692, 2927.78 166.492 Q 2931.14 170.292, 2931.14 177.092 Q 2931.14 183.972, 2927.74 187.892 Q 2924.34 191.772, 2918.14 191.772 Q 2911.9 191.772, 2908.5 187.892 Q 2905.14 184.012, 2905.14 177.092 M 2918.14 188.572 Q 2922.46 188.572, 2924.78 185.692 Q 2927.14 182.772, 2927.14 177.092 Q 2927.14 171.532, 2924.78 168.732 Q 2922.46 165.892, 2918.14 165.892 Q 2913.82 165.892, 2911.46 168.692 Q 2909.14 171.492, 2909.14 177.092 Q 2909.14 182.812, 2911.46 185.692 Q 2913.82 188.572, 2918.14 188.572 " fill="#FF0000"/>
<path class="atom-29" d="M 3002.8 333.207 L 3012.08 348.207 Q 3013 349.687, 3014.48 352.367 Q 3015.96 355.047, 3016.04 355.207 L 3016.04 333.207 L 3019.8 333.207 L 3019.8 361.527 L 3015.92 361.527 L 3005.96 345.127 Q 3004.8 343.207, 3003.56 341.007 Q 3002.36 338.807, 3002 338.127 L 3002 361.527 L 2998.32 361.527 L 2998.32 333.207 L 3002.8 333.207 " fill="#0000FF"/>
<path class="atom-29" d="M 2997.98 364.359 L 3001.82 364.359 L 3001.82 376.399 L 3016.3 376.399 L 3016.3 364.359 L 3020.14 364.359 L 3020.14 392.679 L 3016.3 392.679 L 3016.3 379.599 L 3001.82 379.599 L 3001.82 392.679 L 2997.98 392.679 L 2997.98 364.359 " fill="#0000FF"/>
<path class="atom-34" d="M 3389.48 137.465 Q 3389.48 130.665, 3392.84 126.865 Q 3396.2 123.065, 3402.48 123.065 Q 3408.76 123.065, 3412.12 126.865 Q 3415.48 130.665, 3415.48 137.465 Q 3415.48 144.345, 3412.08 148.265 Q 3408.68 152.145, 3402.48 152.145 Q 3396.24 152.145, 3392.84 148.265 Q 3389.48 144.385, 3389.48 137.465 M 3402.48 148.945 Q 3406.8 148.945, 3409.12 146.065 Q 3411.48 143.145, 3411.48 137.465 Q 3411.48 131.905, 3409.12 129.105 Q 3406.8 126.265, 3402.48 126.265 Q 3398.16 126.265, 3395.8 129.065 Q 3393.48 131.865, 3393.48 137.465 Q 3393.48 143.185, 3395.8 146.065 Q 3398.16 148.945, 3402.48 148.945 " fill="#FF0000"/>
<path class="atom-36" d="M 3487.15 293.58 L 3496.43 308.58 Q 3497.35 310.06, 3498.83 312.74 Q 3500.31 315.42, 3500.39 315.58 L 3500.39 293.58 L 3504.15 293.58 L 3504.15 321.9 L 3500.27 321.9 L 3490.31 305.5 Q 3489.15 303.58, 3487.91 301.38 Q 3486.71 299.18, 3486.35 298.5 L 3486.35 321.9 L 3482.67 321.9 L 3482.67 293.58 L 3487.15 293.58 " fill="#0000FF"/>
<path class="atom-39" d="M 3770.12 374.084 Q 3770.12 367.044, 3773.4 363.364 Q 3776.72 359.644, 3783 359.644 Q 3788.84 359.644, 3791.96 363.764 L 3789.32 365.924 Q 3787.04 362.924, 3783 362.924 Q 3778.72 362.924, 3776.44 365.804 Q 3774.2 368.644, 3774.2 374.084 Q 3774.2 379.684, 3776.52 382.564 Q 3778.88 385.444, 3783.44 385.444 Q 3786.56 385.444, 3790.2 383.564 L 3791.32 386.564 Q 3789.84 387.524, 3787.6 388.084 Q 3785.36 388.644, 3782.88 388.644 Q 3776.72 388.644, 3773.4 384.884 Q 3770.12 381.124, 3770.12 374.084 " fill="#00CC00"/>
<path class="atom-39" d="M 3795.4 357.924 L 3799.08 357.924 L 3799.08 388.284 L 3795.4 388.284 L 3795.4 357.924 " fill="#00CC00"/>
<path class="atom-41" d="M 3589.22 129.659 L 3598.5 144.659 Q 3599.42 146.139, 3600.9 148.819 Q 3602.38 151.499, 3602.46 151.659 L 3602.46 129.659 L 3606.22 129.659 L 3606.22 157.979 L 3602.34 157.979 L 3592.38 141.579 Q 3591.22 139.659, 3589.98 137.459 Q 3588.78 135.259, 3588.42 134.579 L 3588.42 157.979 L 3584.74 157.979 L 3584.74 129.659 L 3589.22 129.659 " fill="#0000FF"/>
<path class="note" d="M 191.335 216.236 L 194.435 216.236 L 194.435 205.656 L 191.015 206.716 L 190.555 205.536 L 194.895 203.596 L 196.315 203.836 L 196.315 216.236 L 199.095 216.236 L 199.095 217.836 L 191.335 217.836 L 191.335 216.236 " fill="#000000"/>
<path class="note" d="M 295.936 227.466 Q 296.456 226.126, 297.696 225.386 Q 298.936 224.626, 300.656 224.626 Q 302.796 224.626, 303.996 225.786 Q 305.196 226.946, 305.196 229.006 Q 305.196 231.106, 303.636 233.066 Q 302.096 235.026, 298.896 237.346 L 305.436 237.346 L 305.436 238.946 L 295.896 238.946 L 295.896 237.606 Q 298.536 235.726, 300.096 234.326 Q 301.676 232.926, 302.436 231.666 Q 303.196 230.406, 303.196 229.106 Q 303.196 227.746, 302.516 226.986 Q 301.836 226.226, 300.656 226.226 Q 299.516 226.226, 298.756 226.686 Q 297.996 227.146, 297.456 228.166 L 295.936 227.466 " fill="#000000"/>
<path class="note" d="M 302.706 398.717 Q 304.086 399.117, 304.746 400.017 Q 305.426 400.897, 305.426 402.297 Q 305.426 403.497, 304.826 404.437 Q 304.226 405.357, 303.126 405.877 Q 302.026 406.377, 300.586 406.377 Q 299.066 406.377, 297.926 405.857 Q 296.806 405.317, 295.906 404.237 L 297.046 403.077 Q 297.926 404.037, 298.666 404.417 Q 299.406 404.777, 300.586 404.777 Q 301.866 404.777, 302.646 404.097 Q 303.426 403.397, 303.426 402.277 Q 303.426 400.837, 302.606 400.197 Q 301.806 399.537, 300.066 399.537 L 299.046 399.537 L 299.046 398.097 L 299.946 398.097 Q 301.486 398.077, 302.306 397.417 Q 303.126 396.737, 303.126 395.477 Q 303.126 394.557, 302.446 394.017 Q 301.766 393.457, 300.606 393.457 Q 299.426 393.457, 298.686 393.877 Q 297.966 394.297, 297.406 395.357 L 296.026 394.617 Q 296.526 393.437, 297.726 392.657 Q 298.926 391.857, 300.606 391.857 Q 302.686 391.857, 303.906 392.837 Q 305.126 393.817, 305.126 395.477 Q 305.126 396.617, 304.506 397.437 Q 303.886 398.257, 302.706 398.717 " fill="#000000"/>
<path class="note" d="M 382.447 153.142 Q 382.967 151.802, 384.207 151.062 Q 385.447 150.302, 387.167 150.302 Q 389.307 150.302, 390.507 151.462 Q 391.707 152.622, 391.707 154.682 Q 391.707 156.782, 390.147 158.742 Q 388.607 160.702, 385.407 163.022 L 391.947 163.022 L 391.947 164.622 L 382.407 164.622 L 382.407 163.282 Q 385.047 161.402, 386.607 160.002 Q 388.187 158.602, 388.947 157.342 Q 389.707 156.082, 389.707 154.782 Q 389.707 153.422, 389.027 152.662 Q 388.347 151.902, 387.167 151.902 Q 386.027 151.902, 385.267 152.362 Q 384.507 152.822, 383.967 153.842 L 382.447 153.142 " fill="#000000"/>
<path class="note" d="M 392.987 153.142 Q 393.507 151.802, 394.747 151.062 Q 395.987 150.302, 397.707 150.302 Q 399.847 150.302, 401.047 151.462 Q 402.247 152.622, 402.247 154.682 Q 402.247 156.782, 400.687 158.742 Q 399.147 160.702, 395.947 163.022 L 402.487 163.022 L 402.487 164.622 L 392.947 164.622 L 392.947 163.282 Q 395.587 161.402, 397.147 160.002 Q 398.727 158.602, 399.487 157.342 Q 400.247 156.082, 400.247 154.782 Q 400.247 153.422, 399.567 152.662 Q 398.887 151.902, 397.707 151.902 Q 396.567 151.902, 395.807 152.362 Q 395.047 152.822, 394.507 153.842 L 392.987 153.142 " fill="#000000"/>
<path class="note" d="M 478.478 208.885 Q 478.998 207.545, 480.238 206.805 Q 481.478 206.045, 483.198 206.045 Q 485.338 206.045, 486.538 207.205 Q 487.738 208.365, 487.738 210.425 Q 487.738 212.525, 486.178 214.485 Q 484.638 216.445, 481.438 218.765 L 487.978 218.765 L 487.978 220.365 L 478.438 220.365 L 478.438 219.025 Q 481.078 217.145, 482.638 215.745 Q 484.218 214.345, 484.978 213.085 Q 485.738 211.825, 485.738 210.525 Q 485.738 209.165, 485.058 208.405 Q 484.378 207.645, 483.198 207.645 Q 482.058 207.645, 481.298 208.105 Q 480.538 208.565, 479.998 209.585 L 478.478 208.885 " fill="#000000"/>
<path class="note" d="M 494.378 220.525 Q 491.778 220.525, 490.478 218.605 Q 489.198 216.685, 489.198 213.265 Q 489.198 209.845, 490.478 207.945 Q 491.758 206.045, 494.378 206.045 Q 496.998 206.045, 498.278 207.945 Q 499.558 209.845, 499.558 213.265 Q 499.558 216.685, 498.258 218.605 Q 496.978 220.525, 494.378 220.525 M 494.378 218.925 Q 495.918 218.925, 496.738 217.505 Q 497.558 216.065, 497.558 213.265 Q 497.558 210.485, 496.738 209.065 Q 495.918 207.645, 494.378 207.645 Q 492.858 207.645, 492.018 209.065 Q 491.198 210.485, 491.198 213.265 Q 491.198 216.065, 492.018 217.505 Q 492.858 218.925, 494.378 218.925 " fill="#000000"/>
<path class="note" d="M 567.808 184.092 L 570.908 184.092 L 570.908 173.512 L 567.488 174.572 L 567.028 173.392 L 571.368 171.452 L 572.788 171.692 L 572.788 184.092 L 575.568 184.092 L 575.568 185.692 L 567.808 185.692 L 567.808 184.092 " fill="#000000"/>
<path class="note" d="M 581.428 171.372 Q 583.948 171.372, 585.208 173.092 Q 586.488 174.792, 586.488 178.192 Q 586.488 181.952, 584.908 183.912 Q 583.348 185.852, 580.328 185.852 Q 579.448 185.852, 578.688 185.652 Q 577.948 185.452, 577.228 185.032 L 578.008 183.692 Q 579.048 184.252, 580.308 184.252 Q 582.308 184.252, 583.328 182.972 Q 584.348 181.672, 584.468 179.012 Q 583.748 179.672, 582.828 180.032 Q 581.928 180.372, 580.948 180.372 Q 579.708 180.372, 578.728 179.832 Q 577.748 179.292, 577.208 178.312 Q 576.668 177.332, 576.668 176.092 Q 576.668 174.712, 577.268 173.652 Q 577.888 172.572, 578.968 171.972 Q 580.048 171.372, 581.428 171.372 M 578.668 176.072 Q 578.668 177.332, 579.368 178.052 Q 580.068 178.772, 581.308 178.772 Q 582.168 178.772, 583.008 178.432 Q 583.868 178.072, 584.468 177.472 Q 584.388 175.132, 583.648 174.072 Q 582.908 173.012, 581.408 173.012 Q 580.648 173.012, 580.008 173.412 Q 579.388 173.812, 579.028 174.512 Q 578.668 175.212, 578.668 176.072 " fill="#000000"/>
<path class="note" d="M 479.458 394.697 Q 479.978 393.357, 481.218 392.617 Q 482.458 391.857, 484.178 391.857 Q 486.318 391.857, 487.518 393.017 Q 488.718 394.177, 488.718 396.237 Q 488.718 398.337, 487.158 400.297 Q 485.618 402.257, 482.418 404.577 L 488.958 404.577 L 488.958 406.177 L 479.418 406.177 L 479.418 404.837 Q 482.058 402.957, 483.618 401.557 Q 485.198 400.157, 485.958 398.897 Q 486.718 397.637, 486.718 396.337 Q 486.718 394.977, 486.038 394.217 Q 485.358 393.457, 484.178 393.457 Q 483.038 393.457, 482.278 393.917 Q 481.518 394.377, 480.978 395.397 L 479.458 394.697 " fill="#000000"/>
<path class="note" d="M 490.818 404.577 L 493.918 404.577 L 493.918 393.997 L 490.498 395.057 L 490.038 393.877 L 494.378 391.937 L 495.798 392.177 L 495.798 404.577 L 498.578 404.577 L 498.578 406.177 L 490.818 406.177 L 490.818 404.577 " fill="#000000"/>
<path class="note" d="M 922.071 401.768 L 923.771 401.768 L 923.771 403.368 L 922.071 403.368 L 922.071 406.628 L 920.191 406.628 L 920.191 403.368 L 912.871 403.368 L 912.871 402.108 L 919.071 392.468 L 922.071 392.468 L 922.071 401.768 M 915.191 401.768 L 920.191 401.768 L 920.191 393.748 L 915.191 401.768 " fill="#000000"/>
<path class="note" d="M 999.13 295.572 Q 1000.37 295.572, 1001.39 296.112 Q 1002.41 296.632, 1002.99 297.632 Q 1003.57 298.612, 1003.57 299.952 Q 1003.57 301.412, 1002.85 302.472 Q 1002.15 303.512, 1000.99 304.052 Q 999.83 304.592, 998.51 304.592 Q 997.21 304.592, 996.01 304.112 Q 994.81 303.632, 993.99 302.712 L 995.19 301.472 Q 995.85 302.192, 996.75 302.592 Q 997.65 302.972, 998.57 302.972 Q 999.83 302.972, 1000.69 302.192 Q 1001.57 301.412, 1001.57 299.992 Q 1001.57 298.492, 1000.69 297.792 Q 999.83 297.072, 998.45 297.072 Q 997.21 297.072, 995.83 297.612 L 994.73 297.092 L 995.41 290.272 L 1002.69 290.272 L 1002.49 291.872 L 997.05 291.872 L 996.63 296.072 Q 997.89 295.572, 999.13 295.572 " fill="#000000"/>
<path class="note" d="M 999.41 184.184 Q 1000.65 184.184, 1001.63 184.724 Q 1002.61 185.264, 1003.15 186.244 Q 1003.69 187.224, 1003.69 188.464 Q 1003.69 189.844, 1003.07 190.924 Q 1002.47 191.984, 1001.39 192.584 Q 1000.31 193.184, 998.93 193.184 Q 996.41 193.184, 995.13 191.484 Q 993.87 189.764, 993.87 186.364 Q 993.87 182.604, 995.43 180.664 Q 997.01 178.704, 1000.03 178.704 Q 1000.91 178.704, 1001.65 178.904 Q 1002.41 179.104, 1003.13 179.524 L 1002.35 180.864 Q 1001.31 180.304, 1000.05 180.304 Q 998.05 180.304, 997.03 181.604 Q 996.01 182.884, 995.89 185.544 Q 996.61 184.884, 997.51 184.544 Q 998.43 184.184, 999.41 184.184 M 998.95 191.544 Q 999.71 191.544, 1000.33 191.144 Q 1000.97 190.744, 1001.33 190.044 Q 1001.69 189.344, 1001.69 188.484 Q 1001.69 187.224, 1000.99 186.504 Q 1000.29 185.784, 999.05 185.784 Q 998.19 185.784, 997.33 186.144 Q 996.49 186.484, 995.89 187.084 Q 995.97 189.424, 996.71 190.484 Q 997.45 191.544, 998.95 191.544 " fill="#000000"/>
<path class="note" d="M 1114.14 115.35 L 1106.72 115.35 L 1106.72 113.75 L 1116.12 113.75 L 1116.12 115.17 L 1110.4 127.91 L 1108.48 127.91 L 1114.14 115.35 " fill="#000000"/>
<path class="note" d="M 1210.19 176.234 Q 1211.49 176.794, 1212.23 177.634 Q 1212.97 178.454, 1212.97 179.854 Q 1212.97 181.054, 1212.35 181.994 Q 1211.73 182.914, 1210.61 183.434 Q 1209.51 183.934, 1208.05 183.934 Q 1205.69 183.934, 1204.33 182.854 Q 1202.97 181.754, 1202.97 179.854 Q 1202.97 178.694, 1203.57 177.834 Q 1204.17 176.954, 1205.41 176.294 Q 1204.49 175.774, 1203.99 175.014 Q 1203.49 174.234, 1203.49 173.034 Q 1203.49 171.374, 1204.69 170.394 Q 1205.91 169.414, 1207.97 169.414 Q 1210.03 169.414, 1211.23 170.394 Q 1212.45 171.374, 1212.45 173.034 Q 1212.45 174.074, 1211.87 174.854 Q 1211.31 175.614, 1210.19 176.234 M 1207.97 170.914 Q 1206.79 170.914, 1206.13 171.474 Q 1205.49 172.034, 1205.49 173.034 Q 1205.49 173.774, 1205.93 174.274 Q 1206.37 174.754, 1206.99 175.034 Q 1207.63 175.314, 1208.85 175.734 Q 1209.71 175.134, 1210.07 174.494 Q 1210.45 173.854, 1210.45 173.034 Q 1210.45 172.034, 1209.79 171.474 Q 1209.15 170.914, 1207.97 170.914 M 1208.05 182.434 Q 1209.37 182.434, 1210.17 181.734 Q 1210.97 181.014, 1210.97 179.834 Q 1210.97 179.074, 1210.55 178.594 Q 1210.13 178.114, 1209.49 177.834 Q 1208.87 177.554, 1207.75 177.194 L 1206.85 176.894 Q 1205.85 177.494, 1205.41 178.214 Q 1204.97 178.914, 1204.97 179.834 Q 1204.97 181.014, 1205.81 181.734 Q 1206.65 182.434, 1208.05 182.434 " fill="#000000"/>
<path class="note" d="M 1304.37 95.089 Q 1306.89 95.089, 1308.15 96.809 Q 1309.43 98.509, 1309.43 101.909 Q 1309.43 105.669, 1307.85 107.629 Q 1306.29 109.569, 1303.27 109.569 Q 1302.39 109.569, 1301.63 109.369 Q 1300.89 109.169, 1300.17 108.749 L 1300.95 107.409 Q 1301.99 107.969, 1303.25 107.969 Q 1305.25 107.969, 1306.27 106.689 Q 1307.29 105.389, 1307.41 102.729 Q 1306.69 103.389, 1305.77 103.749 Q 1304.87 104.089, 1303.89 104.089 Q 1302.65 104.089, 1301.67 103.549 Q 1300.69 103.009, 1300.15 102.029 Q 1299.61 101.049, 1299.61 99.809 Q 1299.61 98.429, 1300.21 97.369 Q 1300.83 96.289, 1301.91 95.689 Q 1302.99 95.089, 1304.37 95.089 M 1301.61 99.789 Q 1301.61 101.049, 1302.31 101.769 Q 1303.01 102.489, 1304.25 102.489 Q 1305.11 102.489, 1305.95 102.149 Q 1306.81 101.789, 1307.41 101.189 Q 1307.33 98.849, 1306.59 97.789 Q 1305.85 96.729, 1304.35 96.729 Q 1303.59 96.729, 1302.95 97.129 Q 1302.33 97.529, 1301.97 98.229 Q 1301.61 98.929, 1301.61 99.789 " fill="#000000"/>
<path class="note" d="M 1371.43 210.006 L 1374.53 210.006 L 1374.53 199.426 L 1371.11 200.486 L 1370.65 199.306 L 1374.99 197.366 L 1376.41 197.606 L 1376.41 210.006 L 1379.19 210.006 L 1379.19 211.606 L 1371.43 211.606 L 1371.43 210.006 " fill="#000000"/>
<path class="note" d="M 1385.59 211.766 Q 1382.99 211.766, 1381.69 209.846 Q 1380.41 207.926, 1380.41 204.506 Q 1380.41 201.086, 1381.69 199.186 Q 1382.97 197.286, 1385.59 197.286 Q 1388.21 197.286, 1389.49 199.186 Q 1390.77 201.086, 1390.77 204.506 Q 1390.77 207.926, 1389.47 209.846 Q 1388.19 211.766, 1385.59 211.766 M 1385.59 210.166 Q 1387.13 210.166, 1387.95 208.746 Q 1388.77 207.306, 1388.77 204.506 Q 1388.77 201.726, 1387.95 200.306 Q 1387.13 198.886, 1385.59 198.886 Q 1384.07 198.886, 1383.23 200.306 Q 1382.41 201.726, 1382.41 204.506 Q 1382.41 207.306, 1383.23 208.746 Q 1384.07 210.166, 1385.59 210.166 " fill="#000000"/>
<path class="note" d="M 1356.32 330.743 L 1359.42 330.743 L 1359.42 320.163 L 1356 321.223 L 1355.54 320.043 L 1359.88 318.103 L 1361.3 318.343 L 1361.3 330.743 L 1364.08 330.743 L 1364.08 332.343 L 1356.32 332.343 L 1356.32 330.743 " fill="#000000"/>
<path class="note" d="M 1365.94 330.743 L 1369.04 330.743 L 1369.04 320.163 L 1365.62 321.223 L 1365.16 320.043 L 1369.5 318.103 L 1370.92 318.343 L 1370.92 330.743 L 1373.7 330.743 L 1373.7 332.343 L 1365.94 332.343 L 1365.94 330.743 " fill="#000000"/>
<path class="note" d="M 1484.6 386.527 L 1487.7 386.527 L 1487.7 375.947 L 1484.28 377.007 L 1483.82 375.827 L 1488.16 373.887 L 1489.58 374.127 L 1489.58 386.527 L 1492.36 386.527 L 1492.36 388.127 L 1484.6 388.127 L 1484.6 386.527 " fill="#000000"/>
<path class="note" d="M 1493.4 376.647 Q 1493.92 375.307, 1495.16 374.567 Q 1496.4 373.807, 1498.12 373.807 Q 1500.26 373.807, 1501.46 374.967 Q 1502.66 376.127, 1502.66 378.187 Q 1502.66 380.287, 1501.1 382.247 Q 1499.56 384.207, 1496.36 386.527 L 1502.9 386.527 L 1502.9 388.127 L 1493.36 388.127 L 1493.36 386.787 Q 1496 384.907, 1497.56 383.507 Q 1499.14 382.107, 1499.9 380.847 Q 1500.66 379.587, 1500.66 378.287 Q 1500.66 376.927, 1499.98 376.167 Q 1499.3 375.407, 1498.12 375.407 Q 1496.98 375.407, 1496.22 375.867 Q 1495.46 376.327, 1494.92 377.347 L 1493.4 376.647 " fill="#000000"/>
<path class="note" d="M 1581.24 349.365 L 1584.34 349.365 L 1584.34 338.785 L 1580.92 339.845 L 1580.46 338.665 L 1584.8 336.725 L 1586.22 336.965 L 1586.22 349.365 L 1589 349.365 L 1589 350.965 L 1581.24 350.965 L 1581.24 349.365 " fill="#000000"/>
<path class="note" d="M 1596.64 343.505 Q 1598.02 343.905, 1598.68 344.805 Q 1599.36 345.685, 1599.36 347.085 Q 1599.36 348.285, 1598.76 349.225 Q 1598.16 350.145, 1597.06 350.665 Q 1595.96 351.165, 1594.52 351.165 Q 1593 351.165, 1591.86 350.645 Q 1590.74 350.105, 1589.84 349.025 L 1590.98 347.865 Q 1591.86 348.825, 1592.6 349.205 Q 1593.34 349.565, 1594.52 349.565 Q 1595.8 349.565, 1596.58 348.885 Q 1597.36 348.185, 1597.36 347.065 Q 1597.36 345.625, 1596.54 344.985 Q 1595.74 344.325, 1594 344.325 L 1592.98 344.325 L 1592.98 342.885 L 1593.88 342.885 Q 1595.42 342.865, 1596.24 342.205 Q 1597.06 341.525, 1597.06 340.265 Q 1597.06 339.345, 1596.38 338.805 Q 1595.7 338.245, 1594.54 338.245 Q 1593.36 338.245, 1592.62 338.665 Q 1591.9 339.085, 1591.34 340.145 L 1589.96 339.405 Q 1590.46 338.225, 1591.66 337.445 Q 1592.86 336.645, 1594.54 336.645 Q 1596.62 336.645, 1597.84 337.625 Q 1599.06 338.605, 1599.06 340.265 Q 1599.06 341.405, 1598.44 342.225 Q 1597.82 343.045, 1596.64 343.505 " fill="#000000"/>
<path class="note" d="M 1714.38 367.906 L 1717.48 367.906 L 1717.48 357.326 L 1714.06 358.386 L 1713.6 357.206 L 1717.94 355.266 L 1719.36 355.506 L 1719.36 367.906 L 1722.14 367.906 L 1722.14 369.506 L 1714.38 369.506 L 1714.38 367.906 " fill="#000000"/>
<path class="note" d="M 1731.94 364.646 L 1733.64 364.646 L 1733.64 366.246 L 1731.94 366.246 L 1731.94 369.506 L 1730.06 369.506 L 1730.06 366.246 L 1722.74 366.246 L 1722.74 364.986 L 1728.94 355.346 L 1731.94 355.346 L 1731.94 364.646 M 1725.06 364.646 L 1730.06 364.646 L 1730.06 356.626 L 1725.06 364.646 " fill="#000000"/>
<path class="note" d="M 1599.75 200.675 L 1602.85 200.675 L 1602.85 190.095 L 1599.43 191.155 L 1598.97 189.975 L 1603.31 188.035 L 1604.73 188.275 L 1604.73 200.675 L 1607.51 200.675 L 1607.51 202.275 L 1599.75 202.275 L 1599.75 200.675 " fill="#000000"/>
<path class="note" d="M 1613.57 193.415 Q 1614.81 193.415, 1615.83 193.955 Q 1616.85 194.475, 1617.43 195.475 Q 1618.01 196.455, 1618.01 197.795 Q 1618.01 199.255, 1617.29 200.315 Q 1616.59 201.355, 1615.43 201.895 Q 1614.27 202.435, 1612.95 202.435 Q 1611.65 202.435, 1610.45 201.955 Q 1609.25 201.475, 1608.43 200.555 L 1609.63 199.315 Q 1610.29 200.035, 1611.19 200.435 Q 1612.09 200.815, 1613.01 200.815 Q 1614.27 200.815, 1615.13 200.035 Q 1616.01 199.255, 1616.01 197.835 Q 1616.01 196.335, 1615.13 195.635 Q 1614.27 194.915, 1612.89 194.915 Q 1611.65 194.915, 1610.27 195.455 L 1609.17 194.935 L 1609.85 188.115 L 1617.13 188.115 L 1616.93 189.715 L 1611.49 189.715 L 1611.07 193.915 Q 1612.33 193.415, 1613.57 193.415 " fill="#000000"/>
<path class="note" d="M 1484.28 107.809 L 1487.38 107.809 L 1487.38 97.229 L 1483.96 98.289 L 1483.5 97.109 L 1487.84 95.169 L 1489.26 95.409 L 1489.26 107.809 L 1492.04 107.809 L 1492.04 109.409 L 1484.28 109.409 L 1484.28 107.809 " fill="#000000"/>
<path class="note" d="M 1498.94 100.569 Q 1500.18 100.569, 1501.16 101.109 Q 1502.14 101.649, 1502.68 102.629 Q 1503.22 103.609, 1503.22 104.849 Q 1503.22 106.229, 1502.6 107.309 Q 1502 108.369, 1500.92 108.969 Q 1499.84 109.569, 1498.46 109.569 Q 1495.94 109.569, 1494.66 107.869 Q 1493.4 106.149, 1493.4 102.749 Q 1493.4 98.989, 1494.96 97.049 Q 1496.54 95.089, 1499.56 95.089 Q 1500.44 95.089, 1501.18 95.289 Q 1501.94 95.489, 1502.66 95.909 L 1501.88 97.249 Q 1500.84 96.689, 1499.58 96.689 Q 1497.58 96.689, 1496.56 97.989 Q 1495.54 99.269, 1495.42 101.929 Q 1496.14 101.269, 1497.04 100.929 Q 1497.96 100.569, 1498.94 100.569 M 1498.48 107.929 Q 1499.24 107.929, 1499.86 107.529 Q 1500.5 107.129, 1500.86 106.429 Q 1501.22 105.729, 1501.22 104.869 Q 1501.22 103.609, 1500.52 102.889 Q 1499.82 102.169, 1498.58 102.169 Q 1497.72 102.169, 1496.86 102.529 Q 1496.02 102.869, 1495.42 103.469 Q 1495.5 105.809, 1496.24 106.869 Q 1496.98 107.929, 1498.48 107.929 " fill="#000000"/>
<path class="note" d="M 1213.91 312.162 L 1217.01 312.162 L 1217.01 301.582 L 1213.59 302.642 L 1213.13 301.462 L 1217.47 299.522 L 1218.89 299.762 L 1218.89 312.162 L 1221.67 312.162 L 1221.67 313.762 L 1213.91 313.762 L 1213.91 312.162 " fill="#000000"/>
<path class="note" d="M 1229.45 301.202 L 1222.03 301.202 L 1222.03 299.602 L 1231.43 299.602 L 1231.43 301.022 L 1225.71 313.762 L 1223.79 313.762 L 1229.45 301.202 " fill="#000000"/>
<path class="note" d="M 1098.04 386.527 L 1101.14 386.527 L 1101.14 375.947 L 1097.72 377.007 L 1097.26 375.827 L 1101.6 373.887 L 1103.02 374.127 L 1103.02 386.527 L 1105.8 386.527 L 1105.8 388.127 L 1098.04 388.127 L 1098.04 386.527 " fill="#000000"/>
<path class="note" d="M 1114.26 380.627 Q 1115.56 381.187, 1116.3 382.027 Q 1117.04 382.847, 1117.04 384.247 Q 1117.04 385.447, 1116.42 386.387 Q 1115.8 387.307, 1114.68 387.827 Q 1113.58 388.327, 1112.12 388.327 Q 1109.76 388.327, 1108.4 387.247 Q 1107.04 386.147, 1107.04 384.247 Q 1107.04 383.087, 1107.64 382.227 Q 1108.24 381.347, 1109.48 380.687 Q 1108.56 380.167, 1108.06 379.407 Q 1107.56 378.627, 1107.56 377.427 Q 1107.56 375.767, 1108.76 374.787 Q 1109.98 373.807, 1112.04 373.807 Q 1114.1 373.807, 1115.3 374.787 Q 1116.52 375.767, 1116.52 377.427 Q 1116.52 378.467, 1115.94 379.247 Q 1115.38 380.007, 1114.26 380.627 M 1112.04 375.307 Q 1110.86 375.307, 1110.2 375.867 Q 1109.56 376.427, 1109.56 377.427 Q 1109.56 378.167, 1110 378.667 Q 1110.44 379.147, 1111.06 379.427 Q 1111.7 379.707, 1112.92 380.127 Q 1113.78 379.527, 1114.14 378.887 Q 1114.52 378.247, 1114.52 377.427 Q 1114.52 376.427, 1113.86 375.867 Q 1113.22 375.307, 1112.04 375.307 M 1112.12 386.827 Q 1113.44 386.827, 1114.24 386.127 Q 1115.04 385.407, 1115.04 384.227 Q 1115.04 383.467, 1114.62 382.987 Q 1114.2 382.507, 1113.56 382.227 Q 1112.94 381.947, 1111.82 381.587 L 1110.92 381.287 Q 1109.92 381.887, 1109.48 382.607 Q 1109.04 383.307, 1109.04 384.227 Q 1109.04 385.407, 1109.88 386.127 Q 1110.72 386.827, 1112.12 386.827 " fill="#000000"/>
<path class="note" d="M 2335.04 335.726 L 2338.14 335.726 L 2338.14 325.146 L 2334.72 326.206 L 2334.26 325.026 L 2338.6 323.086 L 2340.02 323.326 L 2340.02 335.726 L 2342.8 335.726 L 2342.8 337.326 L 2335.04 337.326 L 2335.04 335.726 " fill="#000000"/>
<path class="note" d="M 2348.66 323.006 Q 2351.18 323.006, 2352.44 324.726 Q 2353.72 326.426, 2353.72 329.826 Q 2353.72 333.586, 2352.14 335.546 Q 2350.58 337.486, 2347.56 337.486 Q 2346.68 337.486, 2345.92 337.286 Q 2345.18 337.086, 2344.46 336.666 L 2345.24 335.326 Q 2346.28 335.886, 2347.54 335.886 Q 2349.54 335.886, 2350.56 334.606 Q 2351.58 333.306, 2351.7 330.646 Q 2350.98 331.306, 2350.06 331.666 Q 2349.16 332.006, 2348.18 332.006 Q 2346.94 332.006, 2345.96 331.466 Q 2344.98 330.926, 2344.44 329.946 Q 2343.9 328.966, 2343.9 327.726 Q 2343.9 326.346, 2344.5 325.286 Q 2345.12 324.206, 2346.2 323.606 Q 2347.28 323.006, 2348.66 323.006 M 2345.9 327.706 Q 2345.9 328.966, 2346.6 329.686 Q 2347.3 330.406, 2348.54 330.406 Q 2349.4 330.406, 2350.24 330.066 Q 2351.1 329.706, 2351.7 329.106 Q 2351.62 326.766, 2350.88 325.706 Q 2350.14 324.646, 2348.64 324.646 Q 2347.88 324.646, 2347.24 325.046 Q 2346.62 325.446, 2346.26 326.146 Q 2345.9 326.846, 2345.9 327.706 " fill="#000000"/>
<path class="note" d="M 2404.14 244.72 Q 2404.66 243.38, 2405.9 242.64 Q 2407.14 241.88, 2408.86 241.88 Q 2411 241.88, 2412.2 243.04 Q 2413.4 244.2, 2413.4 246.26 Q 2413.4 248.36, 2411.84 250.32 Q 2410.3 252.28, 2407.1 254.6 L 2413.64 254.6 L 2413.64 256.2 L 2404.1 256.2 L 2404.1 254.86 Q 2406.74 252.98, 2408.3 251.58 Q 2409.88 250.18, 2410.64 248.92 Q 2411.4 247.66, 2411.4 246.36 Q 2411.4 245, 2410.72 244.24 Q 2410.04 243.48, 2408.86 243.48 Q 2407.72 243.48, 2406.96 243.94 Q 2406.2 244.4, 2405.66 245.42 L 2404.14 244.72 " fill="#000000"/>
<path class="note" d="M 2420.04 256.36 Q 2417.44 256.36, 2416.14 254.44 Q 2414.86 252.52, 2414.86 249.1 Q 2414.86 245.68, 2416.14 243.78 Q 2417.42 241.88, 2420.04 241.88 Q 2422.66 241.88, 2423.94 243.78 Q 2425.22 245.68, 2425.22 249.1 Q 2425.22 252.52, 2423.92 254.44 Q 2422.64 256.36, 2420.04 256.36 M 2420.04 254.76 Q 2421.58 254.76, 2422.4 253.34 Q 2423.22 251.9, 2423.22 249.1 Q 2423.22 246.32, 2422.4 244.9 Q 2421.58 243.48, 2420.04 243.48 Q 2418.52 243.48, 2417.68 244.9 Q 2416.86 246.32, 2416.86 249.1 Q 2416.86 251.9, 2417.68 253.34 Q 2418.52 254.76, 2420.04 254.76 " fill="#000000"/>
<path class="note" d="M 2549.95 328.336 Q 2550.47 326.996, 2551.71 326.256 Q 2552.95 325.496, 2554.67 325.496 Q 2556.81 325.496, 2558.01 326.656 Q 2559.21 327.816, 2559.21 329.876 Q 2559.21 331.976, 2557.65 333.936 Q 2556.11 335.896, 2552.91 338.216 L 2559.45 338.216 L 2559.45 339.816 L 2549.91 339.816 L 2549.91 338.476 Q 2552.55 336.596, 2554.11 335.196 Q 2555.69 333.796, 2556.45 332.536 Q 2557.21 331.276, 2557.21 329.976 Q 2557.21 328.616, 2556.53 327.856 Q 2555.85 327.096, 2554.67 327.096 Q 2553.53 327.096, 2552.77 327.556 Q 2552.01 328.016, 2551.47 329.036 L 2549.95 328.336 " fill="#000000"/>
<path class="note" d="M 2561.31 338.216 L 2564.41 338.216 L 2564.41 327.636 L 2560.99 328.696 L 2560.53 327.516 L 2564.87 325.576 L 2566.29 325.816 L 2566.29 338.216 L 2569.07 338.216 L 2569.07 339.816 L 2561.31 339.816 L 2561.31 338.216 " fill="#000000"/>
<path class="note" d="M 2420.75 105.361 Q 2421.27 104.021, 2422.51 103.281 Q 2423.75 102.521, 2425.47 102.521 Q 2427.61 102.521, 2428.81 103.681 Q 2430.01 104.841, 2430.01 106.901 Q 2430.01 109.001, 2428.45 110.961 Q 2426.91 112.921, 2423.71 115.241 L 2430.25 115.241 L 2430.25 116.841 L 2420.71 116.841 L 2420.71 115.501 Q 2423.35 113.621, 2424.91 112.221 Q 2426.49 110.821, 2427.25 109.561 Q 2428.01 108.301, 2428.01 107.001 Q 2428.01 105.641, 2427.33 104.881 Q 2426.65 104.121, 2425.47 104.121 Q 2424.33 104.121, 2423.57 104.581 Q 2422.81 105.041, 2422.27 106.061 L 2420.75 105.361 " fill="#000000"/>
<path class="note" d="M 2431.29 105.361 Q 2431.81 104.021, 2433.05 103.281 Q 2434.29 102.521, 2436.01 102.521 Q 2438.15 102.521, 2439.35 103.681 Q 2440.55 104.841, 2440.55 106.901 Q 2440.55 109.001, 2438.99 110.961 Q 2437.45 112.921, 2434.25 115.241 L 2440.79 115.241 L 2440.79 116.841 L 2431.25 116.841 L 2431.25 115.501 Q 2433.89 113.621, 2435.45 112.221 Q 2437.03 110.821, 2437.79 109.561 Q 2438.55 108.301, 2438.55 107.001 Q 2438.55 105.641, 2437.87 104.881 Q 2437.19 104.121, 2436.01 104.121 Q 2434.87 104.121, 2434.11 104.581 Q 2433.35 105.041, 2432.81 106.061 L 2431.29 105.361 " fill="#000000"/>
<path class="note" d="M 2821.33 362.845 L 2824.43 362.845 L 2824.43 352.265 L 2821.01 353.325 L 2820.55 352.145 L 2824.89 350.205 L 2826.31 350.445 L 2826.31 362.845 L 2829.09 362.845 L 2829.09 364.445 L 2821.33 364.445 L 2821.33 362.845 " fill="#000000"/>
<path class="note" d="M 2909.07 302.688 Q 2909.59 301.348, 2910.83 300.608 Q 2912.07 299.848, 2913.79 299.848 Q 2915.93 299.848, 2917.13 301.008 Q 2918.33 302.168, 2918.33 304.228 Q 2918.33 306.328, 2916.77 308.288 Q 2915.23 310.248, 2912.03 312.568 L 2918.57 312.568 L 2918.57 314.168 L 2909.03 314.168 L 2909.03 312.828 Q 2911.67 310.948, 2913.23 309.548 Q 2914.81 308.148, 2915.57 306.888 Q 2916.33 305.628, 2916.33 304.328 Q 2916.33 302.968, 2915.65 302.208 Q 2914.97 301.448, 2913.79 301.448 Q 2912.65 301.448, 2911.89 301.908 Q 2911.13 302.368, 2910.59 303.388 L 2909.07 302.688 " fill="#000000"/>
<path class="note" d="M 2921.42 139.57 Q 2922.8 139.97, 2923.46 140.87 Q 2924.14 141.75, 2924.14 143.15 Q 2924.14 144.35, 2923.54 145.29 Q 2922.94 146.21, 2921.84 146.73 Q 2920.74 147.23, 2919.3 147.23 Q 2917.78 147.23, 2916.64 146.71 Q 2915.52 146.17, 2914.62 145.09 L 2915.76 143.93 Q 2916.64 144.89, 2917.38 145.27 Q 2918.12 145.63, 2919.3 145.63 Q 2920.58 145.63, 2921.36 144.95 Q 2922.14 144.25, 2922.14 143.13 Q 2922.14 141.69, 2921.32 141.05 Q 2920.52 140.39, 2918.78 140.39 L 2917.76 140.39 L 2917.76 138.95 L 2918.66 138.95 Q 2920.2 138.93, 2921.02 138.27 Q 2921.84 137.59, 2921.84 136.33 Q 2921.84 135.41, 2921.16 134.87 Q 2920.48 134.31, 2919.32 134.31 Q 2918.14 134.31, 2917.4 134.73 Q 2916.68 135.15, 2916.12 136.21 L 2914.74 135.47 Q 2915.24 134.29, 2916.44 133.51 Q 2917.64 132.71, 2919.32 132.71 Q 2921.4 132.71, 2922.62 133.69 Q 2923.84 134.67, 2923.84 136.33 Q 2923.84 137.47, 2923.22 138.29 Q 2922.6 139.11, 2921.42 139.57 " fill="#000000"/>
<path class="note" d="M 3044.36 369.23 L 3046.06 369.23 L 3046.06 370.83 L 3044.36 370.83 L 3044.36 374.09 L 3042.48 374.09 L 3042.48 370.83 L 3035.16 370.83 L 3035.16 369.57 L 3041.36 359.93 L 3044.36 359.93 L 3044.36 369.23 M 3037.48 369.23 L 3042.48 369.23 L 3042.48 361.21 L 3037.48 369.23 " fill="#000000"/>
<path class="note" d="M 3091.99 283.27 Q 3093.23 283.27, 3094.25 283.81 Q 3095.27 284.33, 3095.85 285.33 Q 3096.43 286.31, 3096.43 287.65 Q 3096.43 289.11, 3095.71 290.17 Q 3095.01 291.21, 3093.85 291.75 Q 3092.69 292.29, 3091.37 292.29 Q 3090.07 292.29, 3088.87 291.81 Q 3087.67 291.33, 3086.85 290.41 L 3088.05 289.17 Q 3088.71 289.89, 3089.61 290.29 Q 3090.51 290.67, 3091.43 290.67 Q 3092.69 290.67, 3093.55 289.89 Q 3094.43 289.11, 3094.43 287.69 Q 3094.43 286.19, 3093.55 285.49 Q 3092.69 284.77, 3091.31 284.77 Q 3090.07 284.77, 3088.69 285.31 L 3087.59 284.79 L 3088.27 277.97 L 3095.55 277.97 L 3095.35 279.57 L 3089.91 279.57 L 3089.49 283.77 Q 3090.75 283.27, 3091.99 283.27 " fill="#000000"/>
<path class="note" d="M 3095.99 171.944 Q 3097.23 171.944, 3098.21 172.484 Q 3099.19 173.024, 3099.73 174.004 Q 3100.27 174.984, 3100.27 176.224 Q 3100.27 177.604, 3099.65 178.684 Q 3099.05 179.744, 3097.97 180.344 Q 3096.89 180.944, 3095.51 180.944 Q 3092.99 180.944, 3091.71 179.244 Q 3090.45 177.524, 3090.45 174.124 Q 3090.45 170.364, 3092.01 168.424 Q 3093.59 166.464, 3096.61 166.464 Q 3097.49 166.464, 3098.23 166.664 Q 3098.99 166.864, 3099.71 167.284 L 3098.93 168.624 Q 3097.89 168.064, 3096.63 168.064 Q 3094.63 168.064, 3093.61 169.364 Q 3092.59 170.644, 3092.47 173.304 Q 3093.19 172.644, 3094.09 172.304 Q 3095.01 171.944, 3095.99 171.944 M 3095.53 179.304 Q 3096.29 179.304, 3096.91 178.904 Q 3097.55 178.504, 3097.91 177.804 Q 3098.27 177.104, 3098.27 176.244 Q 3098.27 174.984, 3097.57 174.264 Q 3096.87 173.544, 3095.63 173.544 Q 3094.77 173.544, 3093.91 173.904 Q 3093.07 174.244, 3092.47 174.844 Q 3092.55 177.184, 3093.29 178.244 Q 3094.03 179.304, 3095.53 179.304 " fill="#000000"/>
<path class="note" d="M 3212.83 106.9 L 3205.41 106.9 L 3205.41 105.3 L 3214.81 105.3 L 3214.81 106.72 L 3209.09 119.46 L 3207.17 119.46 L 3212.83 106.9 " fill="#000000"/>
<path class="note" d="M 3306.97 170.969 Q 3308.27 171.529, 3309.01 172.369 Q 3309.75 173.189, 3309.75 174.589 Q 3309.75 175.789, 3309.13 176.729 Q 3308.51 177.649, 3307.39 178.169 Q 3306.29 178.669, 3304.83 178.669 Q 3302.47 178.669, 3301.11 177.589 Q 3299.75 176.489, 3299.75 174.589 Q 3299.75 173.429, 3300.35 172.569 Q 3300.95 171.689, 3302.19 171.029 Q 3301.27 170.509, 3300.77 169.749 Q 3300.27 168.969, 3300.27 167.769 Q 3300.27 166.109, 3301.47 165.129 Q 3302.69 164.149, 3304.75 164.149 Q 3306.81 164.149, 3308.01 165.129 Q 3309.23 166.109, 3309.23 167.769 Q 3309.23 168.809, 3308.65 169.589 Q 3308.09 170.349, 3306.97 170.969 M 3304.75 165.649 Q 3303.57 165.649, 3302.91 166.209 Q 3302.27 166.769, 3302.27 167.769 Q 3302.27 168.509, 3302.71 169.009 Q 3303.15 169.489, 3303.77 169.769 Q 3304.41 170.049, 3305.63 170.469 Q 3306.49 169.869, 3306.85 169.229 Q 3307.23 168.589, 3307.23 167.769 Q 3307.23 166.769, 3306.57 166.209 Q 3305.93 165.649, 3304.75 165.649 M 3304.83 177.169 Q 3306.15 177.169, 3306.95 176.469 Q 3307.75 175.749, 3307.75 174.569 Q 3307.75 173.809, 3307.33 173.329 Q 3306.91 172.849, 3306.27 172.569 Q 3305.65 172.289, 3304.53 171.929 L 3303.63 171.629 Q 3302.63 172.229, 3302.19 172.949 Q 3301.75 173.649, 3301.75 174.569 Q 3301.75 175.749, 3302.59 176.469 Q 3303.43 177.169, 3304.83 177.169 " fill="#000000"/>
<path class="note" d="M 3403.57 93.0831 Q 3406.09 93.0831, 3407.35 94.8031 Q 3408.63 96.5031, 3408.63 99.9031 Q 3408.63 103.663, 3407.05 105.623 Q 3405.49 107.563, 3402.47 107.563 Q 3401.59 107.563, 3400.83 107.363 Q 3400.09 107.163, 3399.37 106.743 L 3400.15 105.403 Q 3401.19 105.963, 3402.45 105.963 Q 3404.45 105.963, 3405.47 104.683 Q 3406.49 103.383, 3406.61 100.723 Q 3405.89 101.383, 3404.97 101.743 Q 3404.07 102.083, 3403.09 102.083 Q 3401.85 102.083, 3400.87 101.543 Q 3399.89 101.003, 3399.35 100.023 Q 3398.81 99.0431, 3398.81 97.8031 Q 3398.81 96.4231, 3399.41 95.3631 Q 3400.03 94.2831, 3401.11 93.6831 Q 3402.19 93.0831, 3403.57 93.0831 M 3400.81 97.7831 Q 3400.81 99.0431, 3401.51 99.7631 Q 3402.21 100.483, 3403.45 100.483 Q 3404.31 100.483, 3405.15 100.143 Q 3406.01 99.7831, 3406.61 99.1831 Q 3406.53 96.8431, 3405.79 95.7831 Q 3405.05 94.7231, 3403.55 94.7231 Q 3402.79 94.7231, 3402.15 95.1231 Q 3401.53 95.5231, 3401.17 96.2231 Q 3400.81 96.9231, 3400.81 97.7831 " fill="#000000"/>
<path class="note" d="M 3467.18 210.624 L 3470.28 210.624 L 3470.28 200.044 L 3466.86 201.104 L 3466.4 199.924 L 3470.74 197.984 L 3472.16 198.224 L 3472.16 210.624 L 3474.94 210.624 L 3474.94 212.224 L 3467.18 212.224 L 3467.18 210.624 " fill="#000000"/>
<path class="note" d="M 3481.34 212.384 Q 3478.74 212.384, 3477.44 210.464 Q 3476.16 208.544, 3476.16 205.124 Q 3476.16 201.704, 3477.44 199.804 Q 3478.72 197.904, 3481.34 197.904 Q 3483.96 197.904, 3485.24 199.804 Q 3486.52 201.704, 3486.52 205.124 Q 3486.52 208.544, 3485.22 210.464 Q 3483.94 212.384, 3481.34 212.384 M 3481.34 210.784 Q 3482.88 210.784, 3483.7 209.364 Q 3484.52 207.924, 3484.52 205.124 Q 3484.52 202.344, 3483.7 200.924 Q 3482.88 199.504, 3481.34 199.504 Q 3479.82 199.504, 3478.98 200.924 Q 3478.16 202.344, 3478.16 205.124 Q 3478.16 207.924, 3478.98 209.364 Q 3479.82 210.784, 3481.34 210.784 " fill="#000000"/>
<path class="note" d="M 3448.05 330.758 L 3451.15 330.758 L 3451.15 320.178 L 3447.73 321.238 L 3447.27 320.058 L 3451.61 318.118 L 3453.03 318.358 L 3453.03 330.758 L 3455.81 330.758 L 3455.81 332.358 L 3448.05 332.358 L 3448.05 330.758 " fill="#000000"/>
<path class="note" d="M 3457.67 330.758 L 3460.77 330.758 L 3460.77 320.178 L 3457.35 321.238 L 3456.89 320.058 L 3461.23 318.118 L 3462.65 318.358 L 3462.65 330.758 L 3465.43 330.758 L 3465.43 332.358 L 3457.67 332.358 L 3457.67 330.758 " fill="#000000"/>
<path class="note" d="M 3574.4 390.801 L 3577.5 390.801 L 3577.5 380.221 L 3574.08 381.281 L 3573.62 380.101 L 3577.96 378.161 L 3579.38 378.401 L 3579.38 390.801 L 3582.16 390.801 L 3582.16 392.401 L 3574.4 392.401 L 3574.4 390.801 " fill="#000000"/>
<path class="note" d="M 3583.2 380.921 Q 3583.72 379.581, 3584.96 378.841 Q 3586.2 378.081, 3587.92 378.081 Q 3590.06 378.081, 3591.26 379.241 Q 3592.46 380.401, 3592.46 382.461 Q 3592.46 384.561, 3590.9 386.521 Q 3589.36 388.481, 3586.16 390.801 L 3592.7 390.801 L 3592.7 392.401 L 3583.16 392.401 L 3583.16 391.061 Q 3585.8 389.181, 3587.36 387.781 Q 3588.94 386.381, 3589.7 385.121 Q 3590.46 383.861, 3590.46 382.561 Q 3590.46 381.201, 3589.78 380.441 Q 3589.1 379.681, 3587.92 379.681 Q 3586.78 379.681, 3586.02 380.141 Q 3585.26 380.601, 3584.72 381.621 L 3583.2 380.921 " fill="#000000"/>
<path class="note" d="M 3672.22 356.876 L 3675.32 356.876 L 3675.32 346.296 L 3671.9 347.356 L 3671.44 346.176 L 3675.78 344.236 L 3677.2 344.476 L 3677.2 356.876 L 3679.98 356.876 L 3679.98 358.476 L 3672.22 358.476 L 3672.22 356.876 " fill="#000000"/>
<path class="note" d="M 3687.62 351.016 Q 3689 351.416, 3689.66 352.316 Q 3690.34 353.196, 3690.34 354.596 Q 3690.34 355.796, 3689.74 356.736 Q 3689.14 357.656, 3688.04 358.176 Q 3686.94 358.676, 3685.5 358.676 Q 3683.98 358.676, 3682.84 358.156 Q 3681.72 357.616, 3680.82 356.536 L 3681.96 355.376 Q 3682.84 356.336, 3683.58 356.716 Q 3684.32 357.076, 3685.5 357.076 Q 3686.78 357.076, 3687.56 356.396 Q 3688.34 355.696, 3688.34 354.576 Q 3688.34 353.136, 3687.52 352.496 Q 3686.72 351.836, 3684.98 351.836 L 3683.96 351.836 L 3683.96 350.396 L 3684.86 350.396 Q 3686.4 350.376, 3687.22 349.716 Q 3688.04 349.036, 3688.04 347.776 Q 3688.04 346.856, 3687.36 346.316 Q 3686.68 345.756, 3685.52 345.756 Q 3684.34 345.756, 3683.6 346.176 Q 3682.88 346.596, 3682.32 347.656 L 3680.94 346.916 Q 3681.44 345.736, 3682.64 344.956 Q 3683.84 344.156, 3685.52 344.156 Q 3687.6 344.156, 3688.82 345.136 Q 3690.04 346.116, 3690.04 347.776 Q 3690.04 348.916, 3689.42 349.736 Q 3688.8 350.556, 3687.62 351.016 " fill="#000000"/>
<path class="note" d="M 3804.67 379.862 L 3807.77 379.862 L 3807.77 369.282 L 3804.35 370.342 L 3803.89 369.162 L 3808.23 367.222 L 3809.65 367.462 L 3809.65 379.862 L 3812.43 379.862 L 3812.43 381.462 L 3804.67 381.462 L 3804.67 379.862 " fill="#000000"/>
<path class="note" d="M 3822.23 376.602 L 3823.93 376.602 L 3823.93 378.202 L 3822.23 378.202 L 3822.23 381.462 L 3820.35 381.462 L 3820.35 378.202 L 3813.03 378.202 L 3813.03 376.942 L 3819.23 367.302 L 3822.23 367.302 L 3822.23 376.602 M 3815.35 376.602 L 3820.35 376.602 L 3820.35 368.582 L 3815.35 376.602 " fill="#000000"/>
<path class="note" d="M 3695.68 208.888 L 3698.78 208.888 L 3698.78 198.308 L 3695.36 199.368 L 3694.9 198.188 L 3699.24 196.248 L 3700.66 196.488 L 3700.66 208.888 L 3703.44 208.888 L 3703.44 210.488 L 3695.68 210.488 L 3695.68 208.888 " fill="#000000"/>
<path class="note" d="M 3709.5 201.628 Q 3710.74 201.628, 3711.76 202.168 Q 3712.78 202.688, 3713.36 203.688 Q 3713.94 204.668, 3713.94 206.008 Q 3713.94 207.468, 3713.22 208.528 Q 3712.52 209.568, 3711.36 210.108 Q 3710.2 210.648, 3708.88 210.648 Q 3707.58 210.648, 3706.38 210.168 Q 3705.18 209.688, 3704.36 208.768 L 3705.56 207.528 Q 3706.22 208.248, 3707.12 208.648 Q 3708.02 209.028, 3708.94 209.028 Q 3710.2 209.028, 3711.06 208.248 Q 3711.94 207.468, 3711.94 206.048 Q 3711.94 204.548, 3711.06 203.848 Q 3710.2 203.128, 3708.82 203.128 Q 3707.58 203.128, 3706.2 203.668 L 3705.1 203.148 L 3705.78 196.328 L 3713.06 196.328 L 3712.86 197.928 L 3707.42 197.928 L 3707 202.128 Q 3708.26 201.628, 3709.5 201.628 " fill="#000000"/>
<path class="note" d="M 3583.36 112.237 L 3586.46 112.237 L 3586.46 101.657 L 3583.04 102.717 L 3582.58 101.537 L 3586.92 99.5973 L 3588.34 99.8373 L 3588.34 112.237 L 3591.12 112.237 L 3591.12 113.837 L 3583.36 113.837 L 3583.36 112.237 " fill="#000000"/>
<path class="note" d="M 3598.02 104.997 Q 3599.26 104.997, 3600.24 105.537 Q 3601.22 106.077, 3601.76 107.057 Q 3602.3 108.037, 3602.3 109.277 Q 3602.3 110.657, 3601.68 111.737 Q 3601.08 112.797, 3600 113.397 Q 3598.92 113.997, 3597.54 113.997 Q 3595.02 113.997, 3593.74 112.297 Q 3592.48 110.577, 3592.48 107.177 Q 3592.48 103.417, 3594.04 101.477 Q 3595.62 99.5173, 3598.64 99.5173 Q 3599.52 99.5173, 3600.26 99.7173 Q 3601.02 99.9173, 3601.74 100.337 L 3600.96 101.677 Q 3599.92 101.117, 3598.66 101.117 Q 3596.66 101.117, 3595.64 102.417 Q 3594.62 103.697, 3594.5 106.357 Q 3595.22 105.697, 3596.12 105.357 Q 3597.04 104.997, 3598.02 104.997 M 3597.56 112.357 Q 3598.32 112.357, 3598.94 111.957 Q 3599.58 111.557, 3599.94 110.857 Q 3600.3 110.157, 3600.3 109.297 Q 3600.3 108.037, 3599.6 107.317 Q 3598.9 106.597, 3597.66 106.597 Q 3596.8 106.597, 3595.94 106.957 Q 3595.1 107.297, 3594.5 107.897 Q 3594.58 110.237, 3595.32 111.297 Q 3596.06 112.357, 3597.56 112.357 " fill="#000000"/>
<path class="note" d="M 3306.34 307.445 L 3309.44 307.445 L 3309.44 296.865 L 3306.02 297.925 L 3305.56 296.745 L 3309.9 294.805 L 3311.32 295.045 L 3311.32 307.445 L 3314.1 307.445 L 3314.1 309.045 L 3306.34 309.045 L 3306.34 307.445 " fill="#000000"/>
<path class="note" d="M 3321.88 296.485 L 3314.46 296.485 L 3314.46 294.885 L 3323.86 294.885 L 3323.86 296.305 L 3318.14 309.045 L 3316.22 309.045 L 3321.88 296.485 " fill="#000000"/>
<path class="note" d="M 3188.06 377.932 L 3191.16 377.932 L 3191.16 367.352 L 3187.74 368.412 L 3187.28 367.232 L 3191.62 365.292 L 3193.04 365.532 L 3193.04 377.932 L 3195.82 377.932 L 3195.82 379.532 L 3188.06 379.532 L 3188.06 377.932 " fill="#000000"/>
<path class="note" d="M 3204.28 372.032 Q 3205.58 372.592, 3206.32 373.432 Q 3207.06 374.252, 3207.06 375.652 Q 3207.06 376.852, 3206.44 377.792 Q 3205.82 378.712, 3204.7 379.232 Q 3203.6 379.732, 3202.14 379.732 Q 3199.78 379.732, 3198.42 378.652 Q 3197.06 377.552, 3197.06 375.652 Q 3197.06 374.492, 3197.66 373.632 Q 3198.26 372.752, 3199.5 372.092 Q 3198.58 371.572, 3198.08 370.812 Q 3197.58 370.032, 3197.58 368.832 Q 3197.58 367.172, 3198.78 366.192 Q 3200 365.212, 3202.06 365.212 Q 3204.12 365.212, 3205.32 366.192 Q 3206.54 367.172, 3206.54 368.832 Q 3206.54 369.872, 3205.96 370.652 Q 3205.4 371.412, 3204.28 372.032 M 3202.06 366.712 Q 3200.88 366.712, 3200.22 367.272 Q 3199.58 367.832, 3199.58 368.832 Q 3199.58 369.572, 3200.02 370.072 Q 3200.46 370.552, 3201.08 370.832 Q 3201.72 371.112, 3202.94 371.532 Q 3203.8 370.932, 3204.16 370.292 Q 3204.54 369.652, 3204.54 368.832 Q 3204.54 367.832, 3203.88 367.272 Q 3203.24 366.712, 3202.06 366.712 M 3202.14 378.232 Q 3203.46 378.232, 3204.26 377.532 Q 3205.06 376.812, 3205.06 375.632 Q 3205.06 374.872, 3204.64 374.392 Q 3204.22 373.912, 3203.58 373.632 Q 3202.96 373.352, 3201.84 372.992 L 3200.94 372.692 Q 3199.94 373.292, 3199.5 374.012 Q 3199.06 374.712, 3199.06 375.632 Q 3199.06 376.812, 3199.9 377.532 Q 3200.74 378.232, 3202.14 378.232 " fill="#000000"/>
<path d="M 735.123 250.203 L 741.171 250.203 L 741.171 243.835 L 743.859 243.835 L 743.859 250.203 L 750.067 250.203 L 750.067 252.507 L 743.859 252.507 L 743.859 258.907 L 741.171 258.907 L 741.171 252.507 L 735.123 252.507 L 735.123 250.203 " fill="#000000"/>
<path d="M 2680.67 250.203 L 2686.72 250.203 L 2686.72 243.835 L 2689.41 243.835 L 2689.41 250.203 L 2695.61 250.203 L 2695.61 252.507 L 2689.41 252.507 L 2689.41 258.907 L 2686.72 258.907 L 2686.72 252.507 L 2680.67 252.507 L 2680.67 250.203 " fill="#000000"/>
<path d="M 1852.23,252.507 L 2149.53,252.507" style="fill:none;fill-rule:evenodd;stroke:#000000;stroke-width:2.0px;stroke-linecap:butt;stroke-linejoin:miter;stroke-opacity:1"/>
<path d="M 2149.53,252.507 L 2136.66,245.074" style="fill:none;fill-rule:evenodd;stroke:#000000;stroke-width:2.0px;stroke-linecap:butt;stroke-linejoin:miter;stroke-opacity:1"/>
<path d="M 2149.53,252.507 L 2136.66,259.939" style="fill:none;fill-rule:evenodd;stroke:#000000;stroke-width:2.0px;stroke-linecap:butt;stroke-linejoin:miter;stroke-opacity:1"/>
</svg>