<svg xmlns="http://www.w3.org/2000/svg" xmlns:rdkit="http://www.rdkit.org/xml" xmlns:xlink="http://www.w3.org/1999/xlink" version="1.1" baseProfile="full" xml:space="preserve" width="4000px" height="500px" viewBox="0 0 4000 500">
<!-- END OF HEADER -->
<rect style="opacity:1.0;fill:#FFFFFF;stroke:none" width="4000" height="500" x="0" y="0"> </rect>
<path d="M 204.514,178.334 L 302.789,235.073" style="fill:none;fill-rule:evenodd;stroke:#FFFFAA;stroke-width:24.2px;stroke-linecap:butt;stroke-linejoin:miter;stroke-opacity:1"/>
<path d="M 302.789,235.073 L 302.789,348.552" style="fill:none;fill-rule:evenodd;stroke:#FFFFAA;stroke-width:24.2px;stroke-linecap:butt;stroke-linejoin:miter;stroke-opacity:1"/>
<path d="M 302.789,235.073 L 401.064,178.334" style="fill:none;fill-rule:evenodd;stroke:#FFFFAA;stroke-width:24.2px;stroke-linecap:butt;stroke-linejoin:miter;stroke-opacity:1"/>
<path d="M 401.064,178.334 L 499.339,235.073" style="fill:none;fill-rule:evenodd;stroke:#FFFFAA;stroke-width:24.2px;stroke-linecap:butt;stroke-linejoin:miter;stroke-opacity:1"/>
<path d="M 499.339,235.073 L 597.615,178.334" style="fill:none;fill-rule:evenodd;stroke:#FFFFAA;stroke-width:24.2px;stroke-linecap:butt;stroke-linejoin:miter;stroke-opacity:1"/>
<path d="M 499.339,235.073 L 499.339,348.552" style="fill:none;fill-rule:evenodd;stroke:#FFFFAA;stroke-width:24.2px;stroke-linecap:butt;stroke-linejoin:miter;stroke-opacity:1"/>
<path d="M 1016.65,409.41 L 1062.26,305.5" style="fill:none;fill-rule:evenodd;stroke:#FFCC99;stroke-width:24.2px;stroke-linecap:butt;stroke-linejoin:miter;stroke-opacity:1"/>
<path d="M 1062.26,305.5 L 995.072,214.047" style="fill:none;fill-rule:evenodd;stroke:#FFCC99;stroke-width:24.2px;stroke-linecap:butt;stroke-linejoin:miter;stroke-opacity:1"/>
<path d="M 1062.26,305.5 L 1175.05,293.043" style="fill:none;fill-rule:evenodd;stroke:#FFCC99;stroke-width:24.2px;stroke-linecap:butt;stroke-linejoin:miter;stroke-opacity:1"/>
<path d="M 995.072,214.047 L 882.279,226.504" style="fill:none;fill-rule:evenodd;stroke:#FFCC99;stroke-width:24.2px;stroke-linecap:butt;stroke-linejoin:miter;stroke-opacity:1"/>
<path d="M 995.072,214.047 L 1040.68,110.137" style="fill:none;fill-rule:evenodd;stroke:#FFCC99;stroke-width:24.2px;stroke-linecap:butt;stroke-linejoin:miter;stroke-opacity:1"/>
<path d="M 1040.68,110.137 L 1153.47,97.6803" style="fill:none;fill-rule:evenodd;stroke:#FFCC99;stroke-width:24.2px;stroke-linecap:butt;stroke-linejoin:miter;stroke-opacity:1"/>
<path d="M 1153.47,97.6803 L 1220.66,189.133" style="fill:none;fill-rule:evenodd;stroke:#FFCC99;stroke-width:24.2px;stroke-linecap:butt;stroke-linejoin:miter;stroke-opacity:1"/>
<path d="M 1220.66,189.133 L 1333.45,176.676" style="fill:none;fill-rule:evenodd;stroke:#FFCC99;stroke-width:24.2px;stroke-linecap:butt;stroke-linejoin:miter;stroke-opacity:1"/>
<path d="M 1220.66,189.133 L 1175.05,293.043" style="fill:none;fill-rule:evenodd;stroke:#FFCC99;stroke-width:24.2px;stroke-linecap:butt;stroke-linejoin:miter;stroke-opacity:1"/>
<path d="M 1333.45,176.676 L 1400.63,268.129" style="fill:none;fill-rule:evenodd;stroke:#FFCC99;stroke-width:24.2px;stroke-linecap:butt;stroke-linejoin:miter;stroke-opacity:1"/>
<path d="M 1400.63,268.129 L 1513.43,255.671" style="fill:none;fill-rule:evenodd;stroke:#FFCC99;stroke-width:24.2px;stroke-linecap:butt;stroke-linejoin:miter;stroke-opacity:1"/>
<path d="M 1513.43,255.671 L 1580.61,347.124" style="fill:none;fill-rule:evenodd;stroke:#FFCC99;stroke-width:24.2px;stroke-linecap:butt;stroke-linejoin:miter;stroke-opacity:1"/>
<path d="M 1513.43,255.671 L 1559.03,151.762" style="fill:none;fill-rule:evenodd;stroke:#FFCC99;stroke-width:24.2px;stroke-linecap:butt;stroke-linejoin:miter;stroke-opacity:1"/>
<path d="M 1580.61,347.124 L 1693.4,334.667" style="fill:none;fill-rule:evenodd;stroke:#FFCC99;stroke-width:24.2px;stroke-linecap:butt;stroke-linejoin:miter;stroke-opacity:1"/>
<path d="M 1693.4,334.667 L 1739.01,230.757" style="fill:none;fill-rule:evenodd;stroke:#FFCC99;stroke-width:24.2px;stroke-linecap:butt;stroke-linejoin:miter;stroke-opacity:1"/>
<path d="M 1739.01,230.757 L 1671.83,139.305" style="fill:none;fill-rule:evenodd;stroke:#FFCC99;stroke-width:24.2px;stroke-linecap:butt;stroke-linejoin:miter;stroke-opacity:1"/>
<path d="M 1671.83,139.305 L 1559.03,151.762" style="fill:none;fill-rule:evenodd;stroke:#FFCC99;stroke-width:24.2px;stroke-linecap:butt;stroke-linejoin:miter;stroke-opacity:1"/>
<path d="M 1175.05,293.043 L 1242.23,384.495" style="fill:none;fill-rule:evenodd;stroke:#FFCC99;stroke-width:24.2px;stroke-linecap:butt;stroke-linejoin:miter;stroke-opacity:1"/>
<path d="M 2366.42,443.466 L 2425.75,346.733" style="fill:none;fill-rule:evenodd;stroke:#FFFFAA;stroke-width:24.2px;stroke-linecap:butt;stroke-linejoin:miter;stroke-opacity:1"/>
<path d="M 2425.75,346.733 L 2371.65,246.985" style="fill:none;fill-rule:evenodd;stroke:#FFFFAA;stroke-width:24.2px;stroke-linecap:butt;stroke-linejoin:miter;stroke-opacity:1"/>
<path d="M 2539.19,349.748 L 2598.52,253.015" style="fill:none;fill-rule:evenodd;stroke:#FFCC99;stroke-width:24.2px;stroke-linecap:butt;stroke-linejoin:miter;stroke-opacity:1"/>
<path d="M 2598.52,253.015 L 2544.41,153.267" style="fill:none;fill-rule:evenodd;stroke:#FFCC99;stroke-width:24.2px;stroke-linecap:butt;stroke-linejoin:miter;stroke-opacity:1"/>
<path d="M 2598.52,253.015 L 2711.96,256.03" style="fill:none;fill-rule:evenodd;stroke:#FFCC99;stroke-width:24.2px;stroke-linecap:butt;stroke-linejoin:miter;stroke-opacity:1"/>
<path d="M 2544.41,153.267 L 2430.98,150.252" style="fill:none;fill-rule:evenodd;stroke:#FFCC99;stroke-width:24.2px;stroke-linecap:butt;stroke-linejoin:miter;stroke-opacity:1"/>
<path d="M 2544.41,153.267 L 2603.75,56.5343" style="fill:none;fill-rule:evenodd;stroke:#FFCC99;stroke-width:24.2px;stroke-linecap:butt;stroke-linejoin:miter;stroke-opacity:1"/>
<path d="M 2603.75,56.5343 L 2717.18,59.5495" style="fill:none;fill-rule:evenodd;stroke:#FFCC99;stroke-width:24.2px;stroke-linecap:butt;stroke-linejoin:miter;stroke-opacity:1"/>
<path d="M 2717.18,59.5495 L 2771.29,159.298" style="fill:none;fill-rule:evenodd;stroke:#FFCC99;stroke-width:24.2px;stroke-linecap:butt;stroke-linejoin:miter;stroke-opacity:1"/>
<path d="M 2771.29,159.298 L 2884.73,162.313" style="fill:none;fill-rule:evenodd;stroke:#FFCC99;stroke-width:24.2px;stroke-linecap:butt;stroke-linejoin:miter;stroke-opacity:1"/>
<path d="M 2771.29,159.298 L 2711.96,256.03" style="fill:none;fill-rule:evenodd;stroke:#FFCC99;stroke-width:24.2px;stroke-linecap:butt;stroke-linejoin:miter;stroke-opacity:1"/>
<path d="M 2884.73,162.313 L 2938.84,262.061" style="fill:none;fill-rule:evenodd;stroke:#FFCC99;stroke-width:24.2px;stroke-linecap:butt;stroke-linejoin:miter;stroke-opacity:1"/>
<path d="M 2938.84,262.061 L 3052.28,265.076" style="fill:none;fill-rule:evenodd;stroke:#FFCC99;stroke-width:24.2px;stroke-linecap:butt;stroke-linejoin:miter;stroke-opacity:1"/>
<path d="M 3052.28,265.076 L 3106.38,364.824" style="fill:none;fill-rule:evenodd;stroke:#FFCC99;stroke-width:24.2px;stroke-linecap:butt;stroke-linejoin:miter;stroke-opacity:1"/>
<path d="M 3052.28,265.076 L 3111.61,168.343" style="fill:none;fill-rule:evenodd;stroke:#FFCC99;stroke-width:24.2px;stroke-linecap:butt;stroke-linejoin:miter;stroke-opacity:1"/>
<path d="M 3106.38,364.824 L 3219.82,367.839" style="fill:none;fill-rule:evenodd;stroke:#FFCC99;stroke-width:24.2px;stroke-linecap:butt;stroke-linejoin:miter;stroke-opacity:1"/>
<path d="M 3219.82,367.839 L 3279.15,271.106" style="fill:none;fill-rule:evenodd;stroke:#FFCC99;stroke-width:24.2px;stroke-linecap:butt;stroke-linejoin:miter;stroke-opacity:1"/>
<path d="M 3279.15,271.106 L 3225.04,171.358" style="fill:none;fill-rule:evenodd;stroke:#FFCC99;stroke-width:24.2px;stroke-linecap:butt;stroke-linejoin:miter;stroke-opacity:1"/>
<path d="M 3225.04,171.358 L 3111.61,168.343" style="fill:none;fill-rule:evenodd;stroke:#FFCC99;stroke-width:24.2px;stroke-linecap:butt;stroke-linejoin:miter;stroke-opacity:1"/>
<path d="M 2711.96,256.03 L 2766.07,355.779" style="fill:none;fill-rule:evenodd;stroke:#FFCC99;stroke-width:24.2px;stroke-linecap:butt;stroke-linejoin:miter;stroke-opacity:1"/>
<path d="M 3588.87,299.918 L 3687.15,243.179" style="fill:none;fill-rule:evenodd;stroke:#FFFFAA;stroke-width:24.2px;stroke-linecap:butt;stroke-linejoin:miter;stroke-opacity:1"/>
<path d="M 3687.15,243.179 L 3785.42,299.918" style="fill:none;fill-rule:evenodd;stroke:#FFFFAA;stroke-width:24.2px;stroke-linecap:butt;stroke-linejoin:miter;stroke-opacity:1"/>
<path d="M 3687.15,243.179 L 3687.15,129.7" style="fill:none;fill-rule:evenodd;stroke:#FFFFAA;stroke-width:24.2px;stroke-linecap:butt;stroke-linejoin:miter;stroke-opacity:1"/>
<ellipse cx="204.514" cy="178.334" rx="22.6957" ry="22.6957" style="fill:#FFFFAA;fill-rule:evenodd;stroke:#FFFFAA;stroke-width:1px;stroke-linecap:butt;stroke-linejoin:miter;stroke-opacity:1"/>
<ellipse cx="302.789" cy="235.073" rx="22.6957" ry="22.6957" style="fill:#FFFFAA;fill-rule:evenodd;stroke:#FFFFAA;stroke-width:1px;stroke-linecap:butt;stroke-linejoin:miter;stroke-opacity:1"/>
<ellipse cx="302.789" cy="348.772" rx="22.6957" ry="22.6957" style="fill:#FFFFAA;fill-rule:evenodd;stroke:#FFFFAA;stroke-width:1px;stroke-linecap:butt;stroke-linejoin:miter;stroke-opacity:1"/>
<ellipse cx="401.064" cy="178.554" rx="22.6957" ry="22.6957" style="fill:#FFFFAA;fill-rule:evenodd;stroke:#FFFFAA;stroke-width:1px;stroke-linecap:butt;stroke-linejoin:miter;stroke-opacity:1"/>
<ellipse cx="499.339" cy="235.073" rx="22.6957" ry="22.6957" style="fill:#FFFFAA;fill-rule:evenodd;stroke:#FFFFAA;stroke-width:1px;stroke-linecap:butt;stroke-linejoin:miter;stroke-opacity:1"/>
<ellipse cx="597.615" cy="178.334" rx="22.6957" ry="22.6957" style="fill:#FFFFAA;fill-rule:evenodd;stroke:#FFFFAA;stroke-width:1px;stroke-linecap:butt;stroke-linejoin:miter;stroke-opacity:1"/>
<ellipse cx="499.339" cy="348.772" rx="22.6957" ry="22.6957" style="fill:#FFFFAA;fill-rule:evenodd;stroke:#FFFFAA;stroke-width:1px;stroke-linecap:butt;stroke-linejoin:miter;stroke-opacity:1"/>
<ellipse cx="996.951" cy="416.49" rx="43.0436" ry="30.0379" style="fill:#FFCC99;fill-rule:evenodd;stroke:#FFCC99;stroke-width:1px;stroke-linecap:butt;stroke-linejoin:miter;stroke-opacity:1"/>
<ellipse cx="1062.26" cy="305.5" rx="22.6957" ry="22.6957" style="fill:#FFCC99;fill-rule:evenodd;stroke:#FFCC99;stroke-width:1px;stroke-linecap:butt;stroke-linejoin:miter;stroke-opacity:1"/>
<ellipse cx="995.072" cy="214.047" rx="22.6957" ry="22.6957" style="fill:#FFCC99;fill-rule:evenodd;stroke:#FFCC99;stroke-width:1px;stroke-linecap:butt;stroke-linejoin:miter;stroke-opacity:1"/>
<ellipse cx="882.279" cy="226.504" rx="22.6957" ry="22.6957" style="fill:#FFCC99;fill-rule:evenodd;stroke:#FFCC99;stroke-width:1px;stroke-linecap:butt;stroke-linejoin:miter;stroke-opacity:1"/>
<ellipse cx="1040.68" cy="110.137" rx="22.6957" ry="22.6957" style="fill:#FFCC99;fill-rule:evenodd;stroke:#FFCC99;stroke-width:1px;stroke-linecap:butt;stroke-linejoin:miter;stroke-opacity:1"/>
<ellipse cx="1153.47" cy="97.6803" rx="22.6957" ry="22.6957" style="fill:#FFCC99;fill-rule:evenodd;stroke:#FFCC99;stroke-width:1px;stroke-linecap:butt;stroke-linejoin:miter;stroke-opacity:1"/>
<ellipse cx="1220.66" cy="189.133" rx="22.6957" ry="22.6957" style="fill:#FFCC99;fill-rule:evenodd;stroke:#FFCC99;stroke-width:1px;stroke-linecap:butt;stroke-linejoin:miter;stroke-opacity:1"/>
<ellipse cx="1333.45" cy="176.896" rx="22.6957" ry="22.6957" style="fill:#FFCC99;fill-rule:evenodd;stroke:#FFCC99;stroke-width:1px;stroke-linecap:butt;stroke-linejoin:miter;stroke-opacity:1"/>
<ellipse cx="1400.63" cy="268.129" rx="22.6957" ry="22.6957" style="fill:#FFCC99;fill-rule:evenodd;stroke:#FFCC99;stroke-width:1px;stroke-linecap:butt;stroke-linejoin:miter;stroke-opacity:1"/>
<ellipse cx="1513.43" cy="255.671" rx="22.6957" ry="22.6957" style="fill:#FFCC99;fill-rule:evenodd;stroke:#FFCC99;stroke-width:1px;stroke-linecap:butt;stroke-linejoin:miter;stroke-opacity:1"/>
<ellipse cx="1580.61" cy="347.124" rx="22.6957" ry="22.6957" style="fill:#FFCC99;fill-rule:evenodd;stroke:#FFCC99;stroke-width:1px;stroke-linecap:butt;stroke-linejoin:miter;stroke-opacity:1"/>
<ellipse cx="1693.4" cy="334.667" rx="22.6957" ry="22.6957" style="fill:#FFCC99;fill-rule:evenodd;stroke:#FFCC99;stroke-width:1px;stroke-linecap:butt;stroke-linejoin:miter;stroke-opacity:1"/>
<ellipse cx="1739.01" cy="230.757" rx="22.6957" ry="22.6957" style="fill:#FFCC99;fill-rule:evenodd;stroke:#FFCC99;stroke-width:1px;stroke-linecap:butt;stroke-linejoin:miter;stroke-opacity:1"/>
<ellipse cx="1671.83" cy="139.305" rx="22.6957" ry="22.6957" style="fill:#FFCC99;fill-rule:evenodd;stroke:#FFCC99;stroke-width:1px;stroke-linecap:butt;stroke-linejoin:miter;stroke-opacity:1"/>
<ellipse cx="1559.03" cy="151.762" rx="22.6957" ry="22.6957" style="fill:#FFCC99;fill-rule:evenodd;stroke:#FFCC99;stroke-width:1px;stroke-linecap:butt;stroke-linejoin:miter;stroke-opacity:1"/>
<ellipse cx="1175.05" cy="293.043" rx="22.6957" ry="22.6957" style="fill:#FFCC99;fill-rule:evenodd;stroke:#FFCC99;stroke-width:1px;stroke-linecap:butt;stroke-linejoin:miter;stroke-opacity:1"/>
<ellipse cx="1242.23" cy="384.495" rx="22.6957" ry="22.6957" style="fill:#FFCC99;fill-rule:evenodd;stroke:#FFCC99;stroke-width:1px;stroke-linecap:butt;stroke-linejoin:miter;stroke-opacity:1"/>
<ellipse cx="2366.42" cy="443.466" rx="22.6957" ry="22.6957" style="fill:#FFFFAA;fill-rule:evenodd;stroke:#FFFFAA;stroke-width:1px;stroke-linecap:butt;stroke-linejoin:miter;stroke-opacity:1"/>
<ellipse cx="2425.75" cy="346.733" rx="22.6957" ry="22.6957" style="fill:#FFFFAA;fill-rule:evenodd;stroke:#FFFFAA;stroke-width:1px;stroke-linecap:butt;stroke-linejoin:miter;stroke-opacity:1"/>
<ellipse cx="2371.65" cy="247.205" rx="22.6957" ry="22.6957" style="fill:#FFFFAA;fill-rule:evenodd;stroke:#FFFFAA;stroke-width:1px;stroke-linecap:butt;stroke-linejoin:miter;stroke-opacity:1"/>
<ellipse cx="2551.97" cy="349.748" rx="33.2623" ry="22.6957" style="fill:#FFCC99;fill-rule:evenodd;stroke:#FFCC99;stroke-width:1px;stroke-linecap:butt;stroke-linejoin:miter;stroke-opacity:1"/>
<ellipse cx="2598.52" cy="253.015" rx="22.6957" ry="22.6957" style="fill:#FFCC99;fill-rule:evenodd;stroke:#FFCC99;stroke-width:1px;stroke-linecap:butt;stroke-linejoin:miter;stroke-opacity:1"/>
<ellipse cx="2544.41" cy="153.267" rx="22.6957" ry="22.6957" style="fill:#FFCC99;fill-rule:evenodd;stroke:#FFCC99;stroke-width:1px;stroke-linecap:butt;stroke-linejoin:miter;stroke-opacity:1"/>
<ellipse cx="2430.98" cy="150.252" rx="22.6957" ry="22.6957" style="fill:#FFCC99;fill-rule:evenodd;stroke:#FFCC99;stroke-width:1px;stroke-linecap:butt;stroke-linejoin:miter;stroke-opacity:1"/>
<ellipse cx="2603.75" cy="56.5343" rx="22.6957" ry="22.6957" style="fill:#FFCC99;fill-rule:evenodd;stroke:#FFCC99;stroke-width:1px;stroke-linecap:butt;stroke-linejoin:miter;stroke-opacity:1"/>
<ellipse cx="2717.18" cy="59.5495" rx="22.6957" ry="22.6957" style="fill:#FFCC99;fill-rule:evenodd;stroke:#FFCC99;stroke-width:1px;stroke-linecap:butt;stroke-linejoin:miter;stroke-opacity:1"/>
<ellipse cx="2771.29" cy="159.298" rx="22.6957" ry="22.6957" style="fill:#FFCC99;fill-rule:evenodd;stroke:#FFCC99;stroke-width:1px;stroke-linecap:butt;stroke-linejoin:miter;stroke-opacity:1"/>
<ellipse cx="2884.73" cy="162.533" rx="22.6957" ry="22.6957" style="fill:#FFCC99;fill-rule:evenodd;stroke:#FFCC99;stroke-width:1px;stroke-linecap:butt;stroke-linejoin:miter;stroke-opacity:1"/>
<ellipse cx="2938.84" cy="262.061" rx="22.6957" ry="22.6957" style="fill:#FFCC99;fill-rule:evenodd;stroke:#FFCC99;stroke-width:1px;stroke-linecap:butt;stroke-linejoin:miter;stroke-opacity:1"/>
<ellipse cx="3052.28" cy="265.076" rx="22.6957" ry="22.6957" style="fill:#FFCC99;fill-rule:evenodd;stroke:#FFCC99;stroke-width:1px;stroke-linecap:butt;stroke-linejoin:miter;stroke-opacity:1"/>
<ellipse cx="3106.38" cy="364.824" rx="22.6957" ry="22.6957" style="fill:#FFCC99;fill-rule:evenodd;stroke:#FFCC99;stroke-width:1px;stroke-linecap:butt;stroke-linejoin:miter;stroke-opacity:1"/>
<ellipse cx="3219.82" cy="367.839" rx="22.6957" ry="22.6957" style="fill:#FFCC99;fill-rule:evenodd;stroke:#FFCC99;stroke-width:1px;stroke-linecap:butt;stroke-linejoin:miter;stroke-opacity:1"/>
<ellipse cx="3279.15" cy="271.106" rx="22.6957" ry="22.6957" style="fill:#FFCC99;fill-rule:evenodd;stroke:#FFCC99;stroke-width:1px;stroke-linecap:butt;stroke-linejoin:miter;stroke-opacity:1"/>
<ellipse cx="3225.04" cy="171.358" rx="22.6957" ry="22.6957" style="fill:#FFCC99;fill-rule:evenodd;stroke:#FFCC99;stroke-width:1px;stroke-linecap:butt;stroke-linejoin:miter;stroke-opacity:1"/>
<ellipse cx="3111.61" cy="168.343" rx="22.6957" ry="22.6957" style="fill:#FFCC99;fill-rule:evenodd;stroke:#FFCC99;stroke-width:1px;stroke-linecap:butt;stroke-linejoin:miter;stroke-opacity:1"/>
<ellipse cx="2711.96" cy="256.03" rx="22.6957" ry="22.6957" style="fill:#FFCC99;fill-rule:evenodd;stroke:#FFCC99;stroke-width:1px;stroke-linecap:butt;stroke-linejoin:miter;stroke-opacity:1"/>
<ellipse cx="2766.07" cy="355.779" rx="22.6957" ry="22.6957" style="fill:#FFCC99;fill-rule:evenodd;stroke:#FFCC99;stroke-width:1px;stroke-linecap:butt;stroke-linejoin:miter;stroke-opacity:1"/>
<ellipse cx="3588.87" cy="299.918" rx="22.6957" ry="22.6957" style="fill:#FFFFAA;fill-rule:evenodd;stroke:#FFFFAA;stroke-width:1px;stroke-linecap:butt;stroke-linejoin:miter;stroke-opacity:1"/>
<ellipse cx="3687.15" cy="243.179" rx="22.6957" ry="22.6957" style="fill:#FFFFAA;fill-rule:evenodd;stroke:#FFFFAA;stroke-width:1px;stroke-linecap:butt;stroke-linejoin:miter;stroke-opacity:1"/>
<ellipse cx="3785.42" cy="300.138" rx="22.6957" ry="22.6957" style="fill:#FFFFAA;fill-rule:evenodd;stroke:#FFFFAA;stroke-width:1px;stroke-linecap:butt;stroke-linejoin:miter;stroke-opacity:1"/>
<ellipse cx="3699.93" cy="129.92" rx="36.4584" ry="22.6957" style="fill:#FFFFAA;fill-rule:evenodd;stroke:#FFFFAA;stroke-width:1px;stroke-linecap:butt;stroke-linejoin:miter;stroke-opacity:1"/>
<path class="bond-0" d="M 204.514,178.334 L 302.789,235.073" style="fill:none;fill-rule:evenodd;stroke:#000000;stroke-width:2.0px;stroke-linecap:butt;stroke-linejoin:miter;stroke-opacity:1"/>
<path class="bond-1" d="M 291.441,235.073 L 291.441,283.234" style="fill:none;fill-rule:evenodd;stroke:#000000;stroke-width:2.0px;stroke-linecap:butt;stroke-linejoin:miter;stroke-opacity:1"/>
<path class="bond-1" d="M 291.441,283.234 L 291.441,331.395" style="fill:none;fill-rule:evenodd;stroke:#FF0000;stroke-width:2.0px;stroke-linecap:butt;stroke-linejoin:miter;stroke-opacity:1"/>
<path class="bond-1" d="M 314.137,235.073 L 314.137,283.234" style="fill:none;fill-rule:evenodd;stroke:#000000;stroke-width:2.0px;stroke-linecap:butt;stroke-linejoin:miter;stroke-opacity:1"/>
<path class="bond-1" d="M 314.137,283.234 L 314.137,331.395" style="fill:none;fill-rule:evenodd;stroke:#FF0000;stroke-width:2.0px;stroke-linecap:butt;stroke-linejoin:miter;stroke-opacity:1"/>
<path class="bond-2" d="M 302.789,235.073 L 344.008,211.275" style="fill:none;fill-rule:evenodd;stroke:#000000;stroke-width:2.0px;stroke-linecap:butt;stroke-linejoin:miter;stroke-opacity:1"/>
<path class="bond-2" d="M 344.008,211.275 L 385.227,187.478" style="fill:none;fill-rule:evenodd;stroke:#FF0000;stroke-width:2.0px;stroke-linecap:butt;stroke-linejoin:miter;stroke-opacity:1"/>
<path class="bond-3" d="M 416.901,187.478 L 458.12,211.275" style="fill:none;fill-rule:evenodd;stroke:#FF0000;stroke-width:2.0px;stroke-linecap:butt;stroke-linejoin:miter;stroke-opacity:1"/>
<path class="bond-3" d="M 458.12,211.275 L 499.339,235.073" style="fill:none;fill-rule:evenodd;stroke:#000000;stroke-width:2.0px;stroke-linecap:butt;stroke-linejoin:miter;stroke-opacity:1"/>
<path class="bond-4" d="M 499.339,235.073 L 597.615,178.334" style="fill:none;fill-rule:evenodd;stroke:#000000;stroke-width:2.0px;stroke-linecap:butt;stroke-linejoin:miter;stroke-opacity:1"/>
<path class="bond-5" d="M 487.992,235.073 L 487.992,283.234" style="fill:none;fill-rule:evenodd;stroke:#000000;stroke-width:2.0px;stroke-linecap:butt;stroke-linejoin:miter;stroke-opacity:1"/>
<path class="bond-5" d="M 487.992,283.234 L 487.992,331.395" style="fill:none;fill-rule:evenodd;stroke:#FF0000;stroke-width:2.0px;stroke-linecap:butt;stroke-linejoin:miter;stroke-opacity:1"/>
<path class="bond-5" d="M 510.687,235.073 L 510.687,283.234" style="fill:none;fill-rule:evenodd;stroke:#000000;stroke-width:2.0px;stroke-linecap:butt;stroke-linejoin:miter;stroke-opacity:1"/>
<path class="bond-5" d="M 510.687,283.234 L 510.687,331.395" style="fill:none;fill-rule:evenodd;stroke:#FF0000;stroke-width:2.0px;stroke-linecap:butt;stroke-linejoin:miter;stroke-opacity:1"/>
<path class="bond-6" d="M 1024.11,392.413 L 1043.18,348.956" style="fill:none;fill-rule:evenodd;stroke:#0000FF;stroke-width:2.0px;stroke-linecap:butt;stroke-linejoin:miter;stroke-opacity:1"/>
<path class="bond-6" d="M 1043.18,348.956 L 1062.26,305.5" style="fill:none;fill-rule:evenodd;stroke:#000000;stroke-width:2.0px;stroke-linecap:butt;stroke-linejoin:miter;stroke-opacity:1"/>
<path class="bond-7" d="M 1062.26,305.5 L 995.072,214.047" style="fill:none;fill-rule:evenodd;stroke:#000000;stroke-width:2.0px;stroke-linecap:butt;stroke-linejoin:miter;stroke-opacity:1"/>
<path class="bond-7" d="M 1070.47,278.345 L 1023.44,214.328" style="fill:none;fill-rule:evenodd;stroke:#000000;stroke-width:2.0px;stroke-linecap:butt;stroke-linejoin:miter;stroke-opacity:1;stroke-dasharray:6,6"/>
<path class="bond-22" d="M 1062.26,305.5 L 1175.05,293.043" style="fill:none;fill-rule:evenodd;stroke:#000000;stroke-width:2.0px;stroke-linecap:butt;stroke-linejoin:miter;stroke-opacity:1"/>
<path class="bond-22" d="M 1076.68,281.073 L 1155.64,272.353" style="fill:none;fill-rule:evenodd;stroke:#000000;stroke-width:2.0px;stroke-linecap:butt;stroke-linejoin:miter;stroke-opacity:1;stroke-dasharray:6,6"/>
<path class="bond-8" d="M 995.072,214.047 L 882.279,226.504" style="fill:none;fill-rule:evenodd;stroke:#000000;stroke-width:2.0px;stroke-linecap:butt;stroke-linejoin:miter;stroke-opacity:1"/>
<path class="bond-9" d="M 995.072,214.047 L 1040.68,110.137" style="fill:none;fill-rule:evenodd;stroke:#000000;stroke-width:2.0px;stroke-linecap:butt;stroke-linejoin:miter;stroke-opacity:1"/>
<path class="bond-9" d="M 1022.69,207.582 L 1054.62,134.845" style="fill:none;fill-rule:evenodd;stroke:#000000;stroke-width:2.0px;stroke-linecap:butt;stroke-linejoin:miter;stroke-opacity:1;stroke-dasharray:6,6"/>
<path class="bond-10" d="M 1040.68,110.137 L 1153.47,97.6803" style="fill:none;fill-rule:evenodd;stroke:#000000;stroke-width:2.0px;stroke-linecap:butt;stroke-linejoin:miter;stroke-opacity:1"/>
<path class="bond-10" d="M 1060.09,130.827 L 1139.04,122.107" style="fill:none;fill-rule:evenodd;stroke:#000000;stroke-width:2.0px;stroke-linecap:butt;stroke-linejoin:miter;stroke-opacity:1;stroke-dasharray:6,6"/>
<path class="bond-11" d="M 1153.47,97.6803 L 1220.66,189.133" style="fill:none;fill-rule:evenodd;stroke:#000000;stroke-width:2.0px;stroke-linecap:butt;stroke-linejoin:miter;stroke-opacity:1"/>
<path class="bond-11" d="M 1145.26,124.835 L 1192.29,188.852" style="fill:none;fill-rule:evenodd;stroke:#000000;stroke-width:2.0px;stroke-linecap:butt;stroke-linejoin:miter;stroke-opacity:1;stroke-dasharray:6,6"/>
<path class="bond-12" d="M 1220.66,189.133 L 1269.13,183.779" style="fill:none;fill-rule:evenodd;stroke:#000000;stroke-width:2.0px;stroke-linecap:butt;stroke-linejoin:miter;stroke-opacity:1"/>
<path class="bond-12" d="M 1269.13,183.779 L 1317.61,178.425" style="fill:none;fill-rule:evenodd;stroke:#FF0000;stroke-width:2.0px;stroke-linecap:butt;stroke-linejoin:miter;stroke-opacity:1"/>
<path class="bond-20" d="M 1220.66,189.133 L 1175.05,293.043" style="fill:none;fill-rule:evenodd;stroke:#000000;stroke-width:2.0px;stroke-linecap:butt;stroke-linejoin:miter;stroke-opacity:1"/>
<path class="bond-20" d="M 1193.03,195.598 L 1161.11,268.335" style="fill:none;fill-rule:evenodd;stroke:#000000;stroke-width:2.0px;stroke-linecap:butt;stroke-linejoin:miter;stroke-opacity:1;stroke-dasharray:6,6"/>
<path class="bond-13" d="M 1346.38,194.273 L 1373.51,231.201" style="fill:none;fill-rule:evenodd;stroke:#FF0000;stroke-width:2.0px;stroke-linecap:butt;stroke-linejoin:miter;stroke-opacity:1"/>
<path class="bond-13" d="M 1373.51,231.201 L 1400.63,268.129" style="fill:none;fill-rule:evenodd;stroke:#000000;stroke-width:2.0px;stroke-linecap:butt;stroke-linejoin:miter;stroke-opacity:1"/>
<path class="bond-14" d="M 1400.63,268.129 L 1513.43,255.671" style="fill:none;fill-rule:evenodd;stroke:#000000;stroke-width:2.0px;stroke-linecap:butt;stroke-linejoin:miter;stroke-opacity:1"/>
<path class="bond-15" d="M 1513.43,255.671 L 1580.61,347.124" style="fill:none;fill-rule:evenodd;stroke:#000000;stroke-width:2.0px;stroke-linecap:butt;stroke-linejoin:miter;stroke-opacity:1"/>
<path class="bond-15" d="M 1541.79,255.952 L 1588.82,319.969" style="fill:none;fill-rule:evenodd;stroke:#000000;stroke-width:2.0px;stroke-linecap:butt;stroke-linejoin:miter;stroke-opacity:1;stroke-dasharray:6,6"/>
<path class="bond-23" d="M 1513.43,255.671 L 1559.03,151.762" style="fill:none;fill-rule:evenodd;stroke:#000000;stroke-width:2.0px;stroke-linecap:butt;stroke-linejoin:miter;stroke-opacity:1"/>
<path class="bond-23" d="M 1541.05,249.207 L 1572.98,176.47" style="fill:none;fill-rule:evenodd;stroke:#000000;stroke-width:2.0px;stroke-linecap:butt;stroke-linejoin:miter;stroke-opacity:1;stroke-dasharray:6,6"/>
<path class="bond-16" d="M 1580.61,347.124 L 1693.4,334.667" style="fill:none;fill-rule:evenodd;stroke:#000000;stroke-width:2.0px;stroke-linecap:butt;stroke-linejoin:miter;stroke-opacity:1"/>
<path class="bond-16" d="M 1595.04,322.697 L 1673.99,313.977" style="fill:none;fill-rule:evenodd;stroke:#000000;stroke-width:2.0px;stroke-linecap:butt;stroke-linejoin:miter;stroke-opacity:1;stroke-dasharray:6,6"/>
<path class="bond-17" d="M 1693.4,334.667 L 1739.01,230.757" style="fill:none;fill-rule:evenodd;stroke:#000000;stroke-width:2.0px;stroke-linecap:butt;stroke-linejoin:miter;stroke-opacity:1"/>
<path class="bond-17" d="M 1679.46,309.959 L 1711.39,237.222" style="fill:none;fill-rule:evenodd;stroke:#000000;stroke-width:2.0px;stroke-linecap:butt;stroke-linejoin:miter;stroke-opacity:1;stroke-dasharray:6,6"/>
<path class="bond-18" d="M 1739.01,230.757 L 1671.83,139.305" style="fill:none;fill-rule:evenodd;stroke:#000000;stroke-width:2.0px;stroke-linecap:butt;stroke-linejoin:miter;stroke-opacity:1"/>
<path class="bond-18" d="M 1710.64,230.476 L 1663.61,166.459" style="fill:none;fill-rule:evenodd;stroke:#000000;stroke-width:2.0px;stroke-linecap:butt;stroke-linejoin:miter;stroke-opacity:1;stroke-dasharray:6,6"/>
<path class="bond-19" d="M 1671.83,139.305 L 1559.03,151.762" style="fill:none;fill-rule:evenodd;stroke:#000000;stroke-width:2.0px;stroke-linecap:butt;stroke-linejoin:miter;stroke-opacity:1"/>
<path class="bond-19" d="M 1657.4,163.732 L 1578.44,172.452" style="fill:none;fill-rule:evenodd;stroke:#000000;stroke-width:2.0px;stroke-linecap:butt;stroke-linejoin:miter;stroke-opacity:1;stroke-dasharray:6,6"/>
<path class="bond-21" d="M 1175.05,293.043 L 1242.23,384.495" style="fill:none;fill-rule:evenodd;stroke:#000000;stroke-width:2.0px;stroke-linecap:butt;stroke-linejoin:miter;stroke-opacity:1"/>
<path class="bond-24" d="M 2366.42,443.466 L 2425.75,346.733" style="fill:none;fill-rule:evenodd;stroke:#000000;stroke-width:2.0px;stroke-linecap:butt;stroke-linejoin:miter;stroke-opacity:1"/>
<path class="bond-25" d="M 2435.73,341.322 L 2413.45,300.247" style="fill:none;fill-rule:evenodd;stroke:#000000;stroke-width:2.0px;stroke-linecap:butt;stroke-linejoin:miter;stroke-opacity:1"/>
<path class="bond-25" d="M 2413.45,300.247 L 2391.17,259.171" style="fill:none;fill-rule:evenodd;stroke:#FF0000;stroke-width:2.0px;stroke-linecap:butt;stroke-linejoin:miter;stroke-opacity:1"/>
<path class="bond-25" d="M 2415.78,352.144 L 2393.5,311.068" style="fill:none;fill-rule:evenodd;stroke:#000000;stroke-width:2.0px;stroke-linecap:butt;stroke-linejoin:miter;stroke-opacity:1"/>
<path class="bond-25" d="M 2393.5,311.068 L 2371.22,269.993" style="fill:none;fill-rule:evenodd;stroke:#FF0000;stroke-width:2.0px;stroke-linecap:butt;stroke-linejoin:miter;stroke-opacity:1"/>
<path class="bond-26" d="M 2425.75,346.733 L 2475.68,348.06" style="fill:none;fill-rule:evenodd;stroke:#000000;stroke-width:2.0px;stroke-linecap:butt;stroke-linejoin:miter;stroke-opacity:1"/>
<path class="bond-26" d="M 2475.68,348.06 L 2525.62,349.387" style="fill:none;fill-rule:evenodd;stroke:#0000FF;stroke-width:2.0px;stroke-linecap:butt;stroke-linejoin:miter;stroke-opacity:1"/>
<path class="bond-27" d="M 2549.62,332.751 L 2574.07,292.883" style="fill:none;fill-rule:evenodd;stroke:#0000FF;stroke-width:2.0px;stroke-linecap:butt;stroke-linejoin:miter;stroke-opacity:1"/>
<path class="bond-27" d="M 2574.07,292.883 L 2598.52,253.015" style="fill:none;fill-rule:evenodd;stroke:#000000;stroke-width:2.0px;stroke-linecap:butt;stroke-linejoin:miter;stroke-opacity:1"/>
<path class="bond-28" d="M 2598.52,253.015 L 2544.41,153.267" style="fill:none;fill-rule:evenodd;stroke:#000000;stroke-width:2.0px;stroke-linecap:butt;stroke-linejoin:miter;stroke-opacity:1"/>
<path class="bond-28" d="M 2610.36,227.231 L 2572.48,157.408" style="fill:none;fill-rule:evenodd;stroke:#000000;stroke-width:2.0px;stroke-linecap:butt;stroke-linejoin:miter;stroke-opacity:1;stroke-dasharray:6,6"/>
<path class="bond-43" d="M 2598.52,253.015 L 2711.96,256.03" style="fill:none;fill-rule:evenodd;stroke:#000000;stroke-width:2.0px;stroke-linecap:butt;stroke-linejoin:miter;stroke-opacity:1"/>
<path class="bond-43" d="M 2616.14,230.78 L 2695.55,232.89" style="fill:none;fill-rule:evenodd;stroke:#000000;stroke-width:2.0px;stroke-linecap:butt;stroke-linejoin:miter;stroke-opacity:1;stroke-dasharray:6,6"/>
<path class="bond-29" d="M 2544.41,153.267 L 2430.98,150.252" style="fill:none;fill-rule:evenodd;stroke:#000000;stroke-width:2.0px;stroke-linecap:butt;stroke-linejoin:miter;stroke-opacity:1"/>
<path class="bond-30" d="M 2544.41,153.267 L 2603.75,56.5343" style="fill:none;fill-rule:evenodd;stroke:#000000;stroke-width:2.0px;stroke-linecap:butt;stroke-linejoin:miter;stroke-opacity:1"/>
<path class="bond-30" d="M 2572.66,150.623 L 2614.19,82.9103" style="fill:none;fill-rule:evenodd;stroke:#000000;stroke-width:2.0px;stroke-linecap:butt;stroke-linejoin:miter;stroke-opacity:1;stroke-dasharray:6,6"/>
<path class="bond-31" d="M 2603.75,56.5343 L 2717.18,59.5495" style="fill:none;fill-rule:evenodd;stroke:#000000;stroke-width:2.0px;stroke-linecap:butt;stroke-linejoin:miter;stroke-opacity:1"/>
<path class="bond-31" d="M 2620.16,79.6742 L 2699.56,81.7848" style="fill:none;fill-rule:evenodd;stroke:#000000;stroke-width:2.0px;stroke-linecap:butt;stroke-linejoin:miter;stroke-opacity:1;stroke-dasharray:6,6"/>
<path class="bond-32" d="M 2717.18,59.5495 L 2771.29,159.298" style="fill:none;fill-rule:evenodd;stroke:#000000;stroke-width:2.0px;stroke-linecap:butt;stroke-linejoin:miter;stroke-opacity:1"/>
<path class="bond-32" d="M 2705.35,85.3333 L 2743.23,155.157" style="fill:none;fill-rule:evenodd;stroke:#000000;stroke-width:2.0px;stroke-linecap:butt;stroke-linejoin:miter;stroke-opacity:1;stroke-dasharray:6,6"/>
<path class="bond-33" d="M 2771.29,159.298 L 2820.09,160.595" style="fill:none;fill-rule:evenodd;stroke:#000000;stroke-width:2.0px;stroke-linecap:butt;stroke-linejoin:miter;stroke-opacity:1"/>
<path class="bond-33" d="M 2820.09,160.595 L 2868.89,161.892" style="fill:none;fill-rule:evenodd;stroke:#FF0000;stroke-width:2.0px;stroke-linecap:butt;stroke-linejoin:miter;stroke-opacity:1"/>
<path class="bond-41" d="M 2771.29,159.298 L 2711.96,256.03" style="fill:none;fill-rule:evenodd;stroke:#000000;stroke-width:2.0px;stroke-linecap:butt;stroke-linejoin:miter;stroke-opacity:1"/>
<path class="bond-41" d="M 2743.05,161.941 L 2701.51,229.654" style="fill:none;fill-rule:evenodd;stroke:#000000;stroke-width:2.0px;stroke-linecap:butt;stroke-linejoin:miter;stroke-opacity:1;stroke-dasharray:6,6"/>
<path class="bond-34" d="M 2894.28,179.91 L 2916.56,220.985" style="fill:none;fill-rule:evenodd;stroke:#FF0000;stroke-width:2.0px;stroke-linecap:butt;stroke-linejoin:miter;stroke-opacity:1"/>
<path class="bond-34" d="M 2916.56,220.985 L 2938.84,262.061" style="fill:none;fill-rule:evenodd;stroke:#000000;stroke-width:2.0px;stroke-linecap:butt;stroke-linejoin:miter;stroke-opacity:1"/>
<path class="bond-35" d="M 2938.84,262.061 L 3052.28,265.076" style="fill:none;fill-rule:evenodd;stroke:#000000;stroke-width:2.0px;stroke-linecap:butt;stroke-linejoin:miter;stroke-opacity:1"/>
<path class="bond-36" d="M 3052.28,265.076 L 3106.38,364.824" style="fill:none;fill-rule:evenodd;stroke:#000000;stroke-width:2.0px;stroke-linecap:butt;stroke-linejoin:miter;stroke-opacity:1"/>
<path class="bond-36" d="M 3080.34,269.217 L 3118.22,339.04" style="fill:none;fill-rule:evenodd;stroke:#000000;stroke-width:2.0px;stroke-linecap:butt;stroke-linejoin:miter;stroke-opacity:1;stroke-dasharray:6,6"/>
<path class="bond-44" d="M 3052.28,265.076 L 3111.61,168.343" style="fill:none;fill-rule:evenodd;stroke:#000000;stroke-width:2.0px;stroke-linecap:butt;stroke-linejoin:miter;stroke-opacity:1"/>
<path class="bond-44" d="M 3080.52,262.432 L 3122.05,194.719" style="fill:none;fill-rule:evenodd;stroke:#000000;stroke-width:2.0px;stroke-linecap:butt;stroke-linejoin:miter;stroke-opacity:1;stroke-dasharray:6,6"/>
<path class="bond-37" d="M 3106.38,364.824 L 3219.82,367.839" style="fill:none;fill-rule:evenodd;stroke:#000000;stroke-width:2.0px;stroke-linecap:butt;stroke-linejoin:miter;stroke-opacity:1"/>
<path class="bond-37" d="M 3124,342.589 L 3203.41,344.699" style="fill:none;fill-rule:evenodd;stroke:#000000;stroke-width:2.0px;stroke-linecap:butt;stroke-linejoin:miter;stroke-opacity:1;stroke-dasharray:6,6"/>
<path class="bond-38" d="M 3219.82,367.839 L 3279.15,271.106" style="fill:none;fill-rule:evenodd;stroke:#000000;stroke-width:2.0px;stroke-linecap:butt;stroke-linejoin:miter;stroke-opacity:1"/>
<path class="bond-38" d="M 3209.38,341.463 L 3250.91,273.75" style="fill:none;fill-rule:evenodd;stroke:#000000;stroke-width:2.0px;stroke-linecap:butt;stroke-linejoin:miter;stroke-opacity:1;stroke-dasharray:6,6"/>
<path class="bond-39" d="M 3279.15,271.106 L 3225.04,171.358" style="fill:none;fill-rule:evenodd;stroke:#000000;stroke-width:2.0px;stroke-linecap:butt;stroke-linejoin:miter;stroke-opacity:1"/>
<path class="bond-39" d="M 3251.09,266.966 L 3213.21,197.142" style="fill:none;fill-rule:evenodd;stroke:#000000;stroke-width:2.0px;stroke-linecap:butt;stroke-linejoin:miter;stroke-opacity:1;stroke-dasharray:6,6"/>
<path class="bond-40" d="M 3225.04,171.358 L 3111.61,168.343" style="fill:none;fill-rule:evenodd;stroke:#000000;stroke-width:2.0px;stroke-linecap:butt;stroke-linejoin:miter;stroke-opacity:1"/>
<path class="bond-40" d="M 3207.43,193.594 L 3128.02,191.483" style="fill:none;fill-rule:evenodd;stroke:#000000;stroke-width:2.0px;stroke-linecap:butt;stroke-linejoin:miter;stroke-opacity:1;stroke-dasharray:6,6"/>
<path class="bond-42" d="M 2711.96,256.03 L 2766.07,355.779" style="fill:none;fill-rule:evenodd;stroke:#000000;stroke-width:2.0px;stroke-linecap:butt;stroke-linejoin:miter;stroke-opacity:1"/>
<path class="bond-45" d="M 3588.87,299.918 L 3687.15,243.179" style="fill:none;fill-rule:evenodd;stroke:#000000;stroke-width:2.0px;stroke-linecap:butt;stroke-linejoin:miter;stroke-opacity:1"/>
<path class="bond-46" d="M 3681.47,253.006 L 3722.69,276.804" style="fill:none;fill-rule:evenodd;stroke:#000000;stroke-width:2.0px;stroke-linecap:butt;stroke-linejoin:miter;stroke-opacity:1"/>
<path class="bond-46" d="M 3722.69,276.804 L 3763.91,300.602" style="fill:none;fill-rule:evenodd;stroke:#FF0000;stroke-width:2.0px;stroke-linecap:butt;stroke-linejoin:miter;stroke-opacity:1"/>
<path class="bond-46" d="M 3692.82,233.351 L 3734.04,257.149" style="fill:none;fill-rule:evenodd;stroke:#000000;stroke-width:2.0px;stroke-linecap:butt;stroke-linejoin:miter;stroke-opacity:1"/>
<path class="bond-46" d="M 3734.04,257.149 L 3775.26,280.947" style="fill:none;fill-rule:evenodd;stroke:#FF0000;stroke-width:2.0px;stroke-linecap:butt;stroke-linejoin:miter;stroke-opacity:1"/>
<path class="bond-47" d="M 3687.15,243.179 L 3687.15,195.238" style="fill:none;fill-rule:evenodd;stroke:#000000;stroke-width:2.0px;stroke-linecap:butt;stroke-linejoin:miter;stroke-opacity:1"/>
<path class="bond-47" d="M 3687.15,195.238 L 3687.15,147.297" style="fill:none;fill-rule:evenodd;stroke:#FF0000;stroke-width:2.0px;stroke-linecap:butt;stroke-linejoin:miter;stroke-opacity:1"/>
<path class="atom-2" d="M 289.789 348.632 Q 289.789 341.832, 293.149 338.032 Q 296.509 334.232, 302.789 334.232 Q 309.069 334.232, 312.429 338.032 Q 315.789 341.832, 315.789 348.632 Q 315.789 355.512, 312.389 359.432 Q 308.989 363.312, 302.789 363.312 Q 296.549 363.312, 293.149 359.432 Q 289.789 355.552, 289.789 348.632 M 302.789 360.112 Q 307.109 360.112, 309.429 357.232 Q 311.789 354.312, 311.789 348.632 Q 311.789 343.072, 309.429 340.272 Q 307.109 337.432, 302.789 337.432 Q 298.469 337.432, 296.109 340.232 Q 293.789 343.032, 293.789 348.632 Q 293.789 354.352, 296.109 357.232 Q 298.469 360.112, 302.789 360.112 " fill="#FF0000"/>
<path class="atom-3" d="M 388.064 178.414 Q 388.064 171.614, 391.424 167.814 Q 394.784 164.014, 401.064 164.014 Q 407.344 164.014, 410.704 167.814 Q 414.064 171.614, 414.064 178.414 Q 414.064 185.294, 410.664 189.214 Q 407.264 193.094, 401.064 193.094 Q 394.824 193.094, 391.424 189.214 Q 388.064 185.334, 388.064 178.414 M 401.064 189.894 Q 405.384 189.894, 407.704 187.014 Q 410.064 184.094, 410.064 178.414 Q 410.064 172.854, 407.704 170.054 Q 405.384 167.214, 401.064 167.214 Q 396.744 167.214, 394.384 170.014 Q 392.064 172.814, 392.064 178.414 Q 392.064 184.134, 394.384 187.014 Q 396.744 189.894, 401.064 189.894 " fill="#FF0000"/>
<path class="atom-6" d="M 486.339 348.632 Q 486.339 341.832, 489.699 338.032 Q 493.059 334.232, 499.339 334.232 Q 505.619 334.232, 508.979 338.032 Q 512.339 341.832, 512.339 348.632 Q 512.339 355.512, 508.939 359.432 Q 505.539 363.312, 499.339 363.312 Q 493.099 363.312, 489.699 359.432 Q 486.339 355.552, 486.339 348.632 M 499.339 360.112 Q 503.659 360.112, 505.979 357.232 Q 508.339 354.312, 508.339 348.632 Q 508.339 343.072, 505.979 340.272 Q 503.659 337.432, 499.339 337.432 Q 495.019 337.432, 492.659 340.232 Q 490.339 343.032, 490.339 348.632 Q 490.339 354.352, 492.659 357.232 Q 495.019 360.112, 499.339 360.112 " fill="#FF0000"/>
<path class="atom-7" d="M 966.515 395.25 L 970.355 395.25 L 970.355 407.29 L 984.835 407.29 L 984.835 395.25 L 988.675 395.25 L 988.675 423.57 L 984.835 423.57 L 984.835 410.49 L 970.355 410.49 L 970.355 423.57 L 966.515 423.57 L 966.515 395.25 " fill="#0000FF"/>
<path class="atom-7" d="M 990.048 422.576 Q 990.734 420.807, 992.371 419.83 Q 994.008 418.827, 996.278 418.827 Q 999.103 418.827, 1000.69 420.358 Q 1002.27 421.89, 1002.27 424.609 Q 1002.27 427.381, 1000.21 429.968 Q 998.179 432.555, 993.955 435.618 L 1002.59 435.618 L 1002.59 437.73 L 989.995 437.73 L 989.995 435.961 Q 993.48 433.479, 995.539 431.631 Q 997.625 429.783, 998.628 428.12 Q 999.631 426.457, 999.631 424.741 Q 999.631 422.946, 998.733 421.942 Q 997.836 420.939, 996.278 420.939 Q 994.773 420.939, 993.77 421.546 Q 992.767 422.154, 992.054 423.5 L 990.048 422.576 " fill="#0000FF"/>
<path class="atom-7" d="M 1010.39 395.25 L 1019.67 410.25 Q 1020.59 411.73, 1022.07 414.41 Q 1023.55 417.09, 1023.63 417.25 L 1023.63 395.25 L 1027.39 395.25 L 1027.39 423.57 L 1023.51 423.57 L 1013.55 407.17 Q 1012.39 405.25, 1011.15 403.05 Q 1009.95 400.85, 1009.59 400.17 L 1009.59 423.57 L 1005.91 423.57 L 1005.91 395.25 L 1010.39 395.25 " fill="#0000FF"/>
<path class="atom-14" d="M 1320.45 176.756 Q 1320.45 169.956, 1323.81 166.156 Q 1327.17 162.356, 1333.45 162.356 Q 1339.73 162.356, 1343.09 166.156 Q 1346.45 169.956, 1346.45 176.756 Q 1346.45 183.636, 1343.05 187.556 Q 1339.65 191.436, 1333.45 191.436 Q 1327.21 191.436, 1323.81 187.556 Q 1320.45 183.676, 1320.45 176.756 M 1333.45 188.236 Q 1337.77 188.236, 1340.09 185.356 Q 1342.45 182.436, 1342.45 176.756 Q 1342.45 171.196, 1340.09 168.396 Q 1337.77 165.556, 1333.45 165.556 Q 1329.13 165.556, 1326.77 168.356 Q 1324.45 171.156, 1324.45 176.756 Q 1324.45 182.476, 1326.77 185.356 Q 1329.13 188.236, 1333.45 188.236 " fill="#FF0000"/>
<path class="atom-26" d="M 2358.65 247.065 Q 2358.65 240.265, 2362.01 236.465 Q 2365.37 232.665, 2371.65 232.665 Q 2377.93 232.665, 2381.29 236.465 Q 2384.65 240.265, 2384.65 247.065 Q 2384.65 253.945, 2381.25 257.865 Q 2377.85 261.745, 2371.65 261.745 Q 2365.41 261.745, 2362.01 257.865 Q 2358.65 253.985, 2358.65 247.065 M 2371.65 258.545 Q 2375.97 258.545, 2378.29 255.665 Q 2380.65 252.745, 2380.65 247.065 Q 2380.65 241.505, 2378.29 238.705 Q 2375.97 235.865, 2371.65 235.865 Q 2367.33 235.865, 2364.97 238.665 Q 2362.65 241.465, 2362.65 247.065 Q 2362.65 252.785, 2364.97 255.665 Q 2367.33 258.545, 2371.65 258.545 " fill="#FF0000"/>
<path class="atom-27" d="M 2532.93 335.588 L 2542.21 350.588 Q 2543.13 352.068, 2544.61 354.748 Q 2546.09 357.428, 2546.17 357.588 L 2546.17 335.588 L 2549.93 335.588 L 2549.93 363.908 L 2546.05 363.908 L 2536.09 347.508 Q 2534.93 345.588, 2533.69 343.388 Q 2532.49 341.188, 2532.13 340.508 L 2532.13 363.908 L 2528.45 363.908 L 2528.45 335.588 L 2532.93 335.588 " fill="#0000FF"/>
<path class="atom-27" d="M 2553.33 335.588 L 2557.17 335.588 L 2557.17 347.628 L 2571.65 347.628 L 2571.65 335.588 L 2575.49 335.588 L 2575.49 363.908 L 2571.65 363.908 L 2571.65 350.828 L 2557.17 350.828 L 2557.17 363.908 L 2553.33 363.908 L 2553.33 335.588 " fill="#0000FF"/>
<path class="atom-34" d="M 2871.73 162.393 Q 2871.73 155.593, 2875.09 151.793 Q 2878.45 147.993, 2884.73 147.993 Q 2891.01 147.993, 2894.37 151.793 Q 2897.73 155.593, 2897.73 162.393 Q 2897.73 169.273, 2894.33 173.193 Q 2890.93 177.073, 2884.73 177.073 Q 2878.49 177.073, 2875.09 173.193 Q 2871.73 169.313, 2871.73 162.393 M 2884.73 173.873 Q 2889.05 173.873, 2891.37 170.993 Q 2893.73 168.073, 2893.73 162.393 Q 2893.73 156.833, 2891.37 154.033 Q 2889.05 151.193, 2884.73 151.193 Q 2880.41 151.193, 2878.05 153.993 Q 2875.73 156.793, 2875.73 162.393 Q 2875.73 168.113, 2878.05 170.993 Q 2880.41 173.873, 2884.73 173.873 " fill="#FF0000"/>
<path class="atom-46" d="M 3772.42 299.998 Q 3772.42 293.198, 3775.78 289.398 Q 3779.14 285.598, 3785.42 285.598 Q 3791.7 285.598, 3795.06 289.398 Q 3798.42 293.198, 3798.42 299.998 Q 3798.42 306.878, 3795.02 310.798 Q 3791.62 314.678, 3785.42 314.678 Q 3779.18 314.678, 3775.78 310.798 Q 3772.42 306.918, 3772.42 299.998 M 3785.42 311.478 Q 3789.74 311.478, 3792.06 308.598 Q 3794.42 305.678, 3794.42 299.998 Q 3794.42 294.438, 3792.06 291.638 Q 3789.74 288.798, 3785.42 288.798 Q 3781.1 288.798, 3778.74 291.598 Q 3776.42 294.398, 3776.42 299.998 Q 3776.42 305.718, 3778.74 308.598 Q 3781.1 311.478, 3785.42 311.478 " fill="#FF0000"/>
<path class="atom-47" d="M 3674.15 129.78 Q 3674.15 122.98, 3677.51 119.18 Q 3680.87 115.38, 3687.15 115.38 Q 3693.43 115.38, 3696.79 119.18 Q 3700.15 122.98, 3700.15 129.78 Q 3700.15 136.66, 3696.75 140.58 Q 3693.35 144.46, 3687.15 144.46 Q 3680.91 144.46, 3677.51 140.58 Q 3674.15 136.7, 3674.15 129.78 M 3687.15 141.26 Q 3691.47 141.26, 3693.79 138.38 Q 3696.15 135.46, 3696.15 129.78 Q 3696.15 124.22, 3693.79 121.42 Q 3691.47 118.58, 3687.15 118.58 Q 3682.83 118.58, 3680.47 121.38 Q 3678.15 124.18, 3678.15 129.78 Q 3678.15 135.5, 3680.47 138.38 Q 3682.83 141.26, 3687.15 141.26 " fill="#FF0000"/>
<path class="atom-47" d="M 3703.55 115.7 L 3707.39 115.7 L 3707.39 127.74 L 3721.87 127.74 L 3721.87 115.7 L 3725.71 115.7 L 3725.71 144.02 L 3721.87 144.02 L 3721.87 130.94 L 3707.39 130.94 L 3707.39 144.02 L 3703.55 144.02 L 3703.55 115.7 " fill="#FF0000"/>
<path class="note" d="M 191.567 200.233 L 194.667 200.233 L 194.667 189.653 L 191.247 190.713 L 190.787 189.533 L 195.127 187.593 L 196.547 187.833 L 196.547 200.233 L 199.327 200.233 L 199.327 201.833 L 191.567 201.833 L 191.567 200.233 " fill="#000000"/>
<path class="note" d="M 298.059 211.84 Q 298.579 210.5, 299.819 209.76 Q 301.059 209, 302.779 209 Q 304.919 209, 306.119 210.16 Q 307.319 211.32, 307.319 213.38 Q 307.319 215.48, 305.759 217.44 Q 304.219 219.4, 301.019 221.72 L 307.559 221.72 L 307.559 223.32 L 298.019 223.32 L 298.019 221.98 Q 300.659 220.1, 302.219 218.7 Q 303.799 217.3, 304.559 216.04 Q 305.319 214.78, 305.319 213.48 Q 305.319 212.12, 304.639 211.36 Q 303.959 210.6, 302.779 210.6 Q 301.639 210.6, 300.879 211.06 Q 300.119 211.52, 299.579 212.54 L 298.059 211.84 " fill="#000000"/>
<path class="note" d="M 304.829 386.078 Q 306.209 386.478, 306.869 387.378 Q 307.549 388.258, 307.549 389.658 Q 307.549 390.858, 306.949 391.798 Q 306.349 392.718, 305.249 393.238 Q 304.149 393.738, 302.709 393.738 Q 301.189 393.738, 300.049 393.218 Q 298.929 392.678, 298.029 391.598 L 299.169 390.438 Q 300.049 391.398, 300.789 391.778 Q 301.529 392.138, 302.709 392.138 Q 303.989 392.138, 304.769 391.458 Q 305.549 390.758, 305.549 389.638 Q 305.549 388.198, 304.729 387.558 Q 303.929 386.898, 302.189 386.898 L 301.169 386.898 L 301.169 385.458 L 302.069 385.458 Q 303.609 385.438, 304.429 384.778 Q 305.249 384.098, 305.249 382.838 Q 305.249 381.918, 304.569 381.378 Q 303.889 380.818, 302.729 380.818 Q 301.549 380.818, 300.809 381.238 Q 300.089 381.658, 299.529 382.718 L 298.149 381.978 Q 298.649 380.798, 299.849 380.018 Q 301.049 379.218, 302.729 379.218 Q 304.809 379.218, 306.029 380.198 Q 307.249 381.178, 307.249 382.838 Q 307.249 383.978, 306.629 384.798 Q 306.009 385.618, 304.829 386.078 " fill="#000000"/>
<path class="note" d="M 385.814 136.188 Q 386.334 134.848, 387.574 134.108 Q 388.814 133.348, 390.534 133.348 Q 392.674 133.348, 393.874 134.508 Q 395.074 135.668, 395.074 137.728 Q 395.074 139.828, 393.514 141.788 Q 391.974 143.748, 388.774 146.068 L 395.314 146.068 L 395.314 147.668 L 385.774 147.668 L 385.774 146.328 Q 388.414 144.448, 389.974 143.048 Q 391.554 141.648, 392.314 140.388 Q 393.074 139.128, 393.074 137.828 Q 393.074 136.468, 392.394 135.708 Q 391.714 134.948, 390.534 134.948 Q 389.394 134.948, 388.634 135.408 Q 387.874 135.868, 387.334 136.888 L 385.814 136.188 " fill="#000000"/>
<path class="note" d="M 405.114 142.808 L 406.814 142.808 L 406.814 144.408 L 405.114 144.408 L 405.114 147.668 L 403.234 147.668 L 403.234 144.408 L 395.914 144.408 L 395.914 143.148 L 402.114 133.508 L 405.114 133.508 L 405.114 142.808 M 398.234 142.808 L 403.234 142.808 L 403.234 134.788 L 398.234 142.808 " fill="#000000"/>
<path class="note" d="M 484.569 192.927 Q 485.089 191.587, 486.329 190.847 Q 487.569 190.087, 489.289 190.087 Q 491.429 190.087, 492.629 191.247 Q 493.829 192.407, 493.829 194.467 Q 493.829 196.567, 492.269 198.527 Q 490.729 200.487, 487.529 202.807 L 494.069 202.807 L 494.069 204.407 L 484.529 204.407 L 484.529 203.067 Q 487.169 201.187, 488.729 199.787 Q 490.309 198.387, 491.069 197.127 Q 491.829 195.867, 491.829 194.567 Q 491.829 193.207, 491.149 192.447 Q 490.469 191.687, 489.289 191.687 Q 488.149 191.687, 487.389 192.147 Q 486.629 192.607, 486.089 193.627 L 484.569 192.927 " fill="#000000"/>
<path class="note" d="M 495.109 192.927 Q 495.629 191.587, 496.869 190.847 Q 498.109 190.087, 499.829 190.087 Q 501.969 190.087, 503.169 191.247 Q 504.369 192.407, 504.369 194.467 Q 504.369 196.567, 502.809 198.527 Q 501.269 200.487, 498.069 202.807 L 504.609 202.807 L 504.609 204.407 L 495.069 204.407 L 495.069 203.067 Q 497.709 201.187, 499.269 199.787 Q 500.849 198.387, 501.609 197.127 Q 502.369 195.867, 502.369 194.567 Q 502.369 193.207, 501.689 192.447 Q 501.009 191.687, 499.829 191.687 Q 498.689 191.687, 497.929 192.147 Q 497.169 192.607, 496.629 193.627 L 495.109 192.927 " fill="#000000"/>
<path class="note" d="M 573.848 157.635 Q 574.368 156.295, 575.608 155.555 Q 576.848 154.795, 578.568 154.795 Q 580.708 154.795, 581.908 155.955 Q 583.108 157.115, 583.108 159.175 Q 583.108 161.275, 581.548 163.235 Q 580.008 165.195, 576.808 167.515 L 583.348 167.515 L 583.348 169.115 L 573.808 169.115 L 573.808 167.775 Q 576.448 165.895, 578.008 164.495 Q 579.588 163.095, 580.348 161.835 Q 581.108 160.575, 581.108 159.275 Q 581.108 157.915, 580.428 157.155 Q 579.748 156.395, 578.568 156.395 Q 577.428 156.395, 576.668 156.855 Q 575.908 157.315, 575.368 158.335 L 573.848 157.635 " fill="#000000"/>
<path class="note" d="M 585.208 167.515 L 588.308 167.515 L 588.308 156.935 L 584.888 157.995 L 584.428 156.815 L 588.768 154.875 L 590.188 155.115 L 590.188 167.515 L 592.968 167.515 L 592.968 169.115 L 585.208 169.115 L 585.208 167.515 " fill="#000000"/>
<path class="note" d="M 484.659 382.058 Q 485.179 380.718, 486.419 379.978 Q 487.659 379.218, 489.379 379.218 Q 491.519 379.218, 492.719 380.378 Q 493.919 381.538, 493.919 383.598 Q 493.919 385.698, 492.359 387.658 Q 490.819 389.618, 487.619 391.938 L 494.159 391.938 L 494.159 393.538 L 484.619 393.538 L 484.619 392.198 Q 487.259 390.318, 488.819 388.918 Q 490.399 387.518, 491.159 386.258 Q 491.919 384.998, 491.919 383.698 Q 491.919 382.338, 491.239 381.578 Q 490.559 380.818, 489.379 380.818 Q 488.239 380.818, 487.479 381.278 Q 486.719 381.738, 486.179 382.758 L 484.659 382.058 " fill="#000000"/>
<path class="note" d="M 501.799 386.078 Q 503.179 386.478, 503.839 387.378 Q 504.519 388.258, 504.519 389.658 Q 504.519 390.858, 503.919 391.798 Q 503.319 392.718, 502.219 393.238 Q 501.119 393.738, 499.679 393.738 Q 498.159 393.738, 497.019 393.218 Q 495.899 392.678, 494.999 391.598 L 496.139 390.438 Q 497.019 391.398, 497.759 391.778 Q 498.499 392.138, 499.679 392.138 Q 500.959 392.138, 501.739 391.458 Q 502.519 390.758, 502.519 389.638 Q 502.519 388.198, 501.699 387.558 Q 500.899 386.898, 499.159 386.898 L 498.139 386.898 L 498.139 385.458 L 499.039 385.458 Q 500.579 385.438, 501.399 384.778 Q 502.219 384.098, 502.219 382.838 Q 502.219 381.918, 501.539 381.378 Q 500.859 380.818, 499.699 380.818 Q 498.519 380.818, 497.779 381.238 Q 497.059 381.658, 496.499 382.718 L 495.119 381.978 Q 495.619 380.798, 496.819 380.018 Q 498.019 379.218, 499.699 379.218 Q 501.779 379.218, 502.999 380.198 Q 504.219 381.178, 504.219 382.838 Q 504.219 383.978, 503.599 384.798 Q 502.979 385.618, 501.799 386.078 " fill="#000000"/>
<path class="note" d="M 1024.55 449.227 L 1026.25 449.227 L 1026.25 450.827 L 1024.55 450.827 L 1024.55 454.087 L 1022.67 454.087 L 1022.67 450.827 L 1015.35 450.827 L 1015.35 449.567 L 1021.55 439.927 L 1024.55 439.927 L 1024.55 449.227 M 1017.67 449.227 L 1022.67 449.227 L 1022.67 441.207 L 1017.67 449.227 " fill="#000000"/>
<path class="note" d="M 1043.81 305.796 Q 1045.05 305.796, 1046.07 306.336 Q 1047.09 306.856, 1047.67 307.856 Q 1048.25 308.836, 1048.25 310.176 Q 1048.25 311.636, 1047.53 312.696 Q 1046.83 313.736, 1045.67 314.276 Q 1044.51 314.816, 1043.19 314.816 Q 1041.89 314.816, 1040.69 314.336 Q 1039.49 313.856, 1038.67 312.936 L 1039.87 311.696 Q 1040.53 312.416, 1041.43 312.816 Q 1042.33 313.196, 1043.25 313.196 Q 1044.51 313.196, 1045.37 312.416 Q 1046.25 311.636, 1046.25 310.216 Q 1046.25 308.716, 1045.37 308.016 Q 1044.51 307.296, 1043.13 307.296 Q 1041.89 307.296, 1040.51 307.836 L 1039.41 307.316 L 1040.09 300.496 L 1047.37 300.496 L 1047.17 302.096 L 1041.73 302.096 L 1041.31 306.296 Q 1042.57 305.796, 1043.81 305.796 " fill="#000000"/>
<path class="note" d="M 988.1 229.685 Q 989.34 229.685, 990.32 230.225 Q 991.3 230.765, 991.84 231.745 Q 992.38 232.725, 992.38 233.965 Q 992.38 235.345, 991.76 236.425 Q 991.16 237.485, 990.08 238.085 Q 989 238.685, 987.62 238.685 Q 985.1 238.685, 983.82 236.985 Q 982.56 235.265, 982.56 231.865 Q 982.56 228.105, 984.12 226.165 Q 985.7 224.205, 988.72 224.205 Q 989.6 224.205, 990.34 224.405 Q 991.1 224.605, 991.82 225.025 L 991.04 226.365 Q 990 225.805, 988.74 225.805 Q 986.74 225.805, 985.72 227.105 Q 984.7 228.385, 984.58 231.045 Q 985.3 230.385, 986.2 230.045 Q 987.12 229.685, 988.1 229.685 M 987.64 237.045 Q 988.4 237.045, 989.02 236.645 Q 989.66 236.245, 990.02 235.545 Q 990.38 234.845, 990.38 233.985 Q 990.38 232.725, 989.68 232.005 Q 988.98 231.285, 987.74 231.285 Q 986.88 231.285, 986.02 231.645 Q 985.18 231.985, 984.58 232.585 Q 984.66 234.925, 985.4 235.985 Q 986.14 237.045, 987.64 237.045 " fill="#000000"/>
<path class="note" d="M 887.075 239.823 L 879.655 239.823 L 879.655 238.223 L 889.055 238.223 L 889.055 239.643 L 883.335 252.383 L 881.415 252.383 L 887.075 239.823 " fill="#000000"/>
<path class="note" d="M 1031.7 94.5553 Q 1033 95.1153, 1033.74 95.9553 Q 1034.48 96.7753, 1034.48 98.1753 Q 1034.48 99.3753, 1033.86 100.315 Q 1033.24 101.235, 1032.12 101.755 Q 1031.02 102.255, 1029.56 102.255 Q 1027.2 102.255, 1025.84 101.175 Q 1024.48 100.075, 1024.48 98.1753 Q 1024.48 97.0153, 1025.08 96.1553 Q 1025.68 95.2753, 1026.92 94.6153 Q 1026 94.0953, 1025.5 93.3353 Q 1025 92.5553, 1025 91.3553 Q 1025 89.6953, 1026.2 88.7153 Q 1027.42 87.7353, 1029.48 87.7353 Q 1031.54 87.7353, 1032.74 88.7153 Q 1033.96 89.6953, 1033.96 91.3553 Q 1033.96 92.3953, 1033.38 93.1753 Q 1032.82 93.9353, 1031.7 94.5553 M 1029.48 89.2353 Q 1028.3 89.2353, 1027.64 89.7953 Q 1027 90.3553, 1027 91.3553 Q 1027 92.0953, 1027.44 92.5953 Q 1027.88 93.0753, 1028.5 93.3553 Q 1029.14 93.6353, 1030.36 94.0553 Q 1031.22 93.4553, 1031.58 92.8153 Q 1031.96 92.1753, 1031.96 91.3553 Q 1031.96 90.3553, 1031.3 89.7953 Q 1030.66 89.2353, 1029.48 89.2353 M 1029.56 100.755 Q 1030.88 100.755, 1031.68 100.055 Q 1032.48 99.3353, 1032.48 98.1553 Q 1032.48 97.3953, 1032.06 96.9153 Q 1031.64 96.4353, 1031 96.1553 Q 1030.38 95.8753, 1029.26 95.5153 L 1028.36 95.2153 Q 1027.36 95.8153, 1026.92 96.5353 Q 1026.48 97.2353, 1026.48 98.1553 Q 1026.48 99.3353, 1027.32 100.055 Q 1028.16 100.755, 1029.56 100.755 " fill="#000000"/>
<path class="note" d="M 1160.92 73.202 Q 1163.44 73.202, 1164.7 74.922 Q 1165.98 76.622, 1165.98 80.022 Q 1165.98 83.782, 1164.4 85.742 Q 1162.84 87.682, 1159.82 87.682 Q 1158.94 87.682, 1158.18 87.482 Q 1157.44 87.282, 1156.72 86.862 L 1157.5 85.522 Q 1158.54 86.082, 1159.8 86.082 Q 1161.8 86.082, 1162.82 84.802 Q 1163.84 83.502, 1163.96 80.842 Q 1163.24 81.502, 1162.32 81.862 Q 1161.42 82.202, 1160.44 82.202 Q 1159.2 82.202, 1158.22 81.662 Q 1157.24 81.122, 1156.7 80.142 Q 1156.16 79.162, 1156.16 77.922 Q 1156.16 76.542, 1156.76 75.482 Q 1157.38 74.402, 1158.46 73.802 Q 1159.54 73.202, 1160.92 73.202 M 1158.16 77.902 Q 1158.16 79.162, 1158.86 79.882 Q 1159.56 80.602, 1160.8 80.602 Q 1161.66 80.602, 1162.5 80.262 Q 1163.36 79.902, 1163.96 79.302 Q 1163.88 76.962, 1163.14 75.902 Q 1162.4 74.842, 1160.9 74.842 Q 1160.14 74.842, 1159.5 75.242 Q 1158.88 75.642, 1158.52 76.342 Q 1158.16 77.042, 1158.16 77.902 " fill="#000000"/>
<path class="note" d="M 1222.31 160.056 L 1225.41 160.056 L 1225.41 149.476 L 1221.99 150.536 L 1221.53 149.356 L 1225.87 147.416 L 1227.29 147.656 L 1227.29 160.056 L 1230.07 160.056 L 1230.07 161.656 L 1222.31 161.656 L 1222.31 160.056 " fill="#000000"/>
<path class="note" d="M 1236.47 161.816 Q 1233.87 161.816, 1232.57 159.896 Q 1231.29 157.976, 1231.29 154.556 Q 1231.29 151.136, 1232.57 149.236 Q 1233.85 147.336, 1236.47 147.336 Q 1239.09 147.336, 1240.37 149.236 Q 1241.65 151.136, 1241.65 154.556 Q 1241.65 157.976, 1240.35 159.896 Q 1239.07 161.816, 1236.47 161.816 M 1236.47 160.216 Q 1238.01 160.216, 1238.83 158.796 Q 1239.65 157.356, 1239.65 154.556 Q 1239.65 151.776, 1238.83 150.356 Q 1238.01 148.936, 1236.47 148.936 Q 1234.95 148.936, 1234.11 150.356 Q 1233.29 151.776, 1233.29 154.556 Q 1233.29 157.356, 1234.11 158.796 Q 1234.95 160.216, 1236.47 160.216 " fill="#000000"/>
<path class="note" d="M 1336.08 147.559 L 1339.18 147.559 L 1339.18 136.979 L 1335.76 138.039 L 1335.3 136.859 L 1339.64 134.919 L 1341.06 135.159 L 1341.06 147.559 L 1343.84 147.559 L 1343.84 149.159 L 1336.08 149.159 L 1336.08 147.559 " fill="#000000"/>
<path class="note" d="M 1345.7 147.559 L 1348.8 147.559 L 1348.8 136.979 L 1345.38 138.039 L 1344.92 136.859 L 1349.26 134.919 L 1350.68 135.159 L 1350.68 147.559 L 1353.46 147.559 L 1353.46 149.159 L 1345.7 149.159 L 1345.7 147.559 " fill="#000000"/>
<path class="note" d="M 1380 291.007 L 1383.1 291.007 L 1383.1 280.427 L 1379.68 281.487 L 1379.22 280.307 L 1383.56 278.367 L 1384.98 278.607 L 1384.98 291.007 L 1387.76 291.007 L 1387.76 292.607 L 1380 292.607 L 1380 291.007 " fill="#000000"/>
<path class="note" d="M 1388.8 281.127 Q 1389.32 279.787, 1390.56 279.047 Q 1391.8 278.287, 1393.52 278.287 Q 1395.66 278.287, 1396.86 279.447 Q 1398.06 280.607, 1398.06 282.667 Q 1398.06 284.767, 1396.5 286.727 Q 1394.96 288.687, 1391.76 291.007 L 1398.3 291.007 L 1398.3 292.607 L 1388.76 292.607 L 1388.76 291.267 Q 1391.4 289.387, 1392.96 287.987 Q 1394.54 286.587, 1395.3 285.327 Q 1396.06 284.067, 1396.06 282.767 Q 1396.06 281.407, 1395.38 280.647 Q 1394.7 279.887, 1393.52 279.887 Q 1392.38 279.887, 1391.62 280.347 Q 1390.86 280.807, 1390.32 281.827 L 1388.8 281.127 " fill="#000000"/>
<path class="note" d="M 1492.88 278.55 L 1495.98 278.55 L 1495.98 267.97 L 1492.56 269.03 L 1492.1 267.85 L 1496.44 265.91 L 1497.86 266.15 L 1497.86 278.55 L 1500.64 278.55 L 1500.64 280.15 L 1492.88 280.15 L 1492.88 278.55 " fill="#000000"/>
<path class="note" d="M 1508.28 272.69 Q 1509.66 273.09, 1510.32 273.99 Q 1511 274.87, 1511 276.27 Q 1511 277.47, 1510.4 278.41 Q 1509.8 279.33, 1508.7 279.85 Q 1507.6 280.35, 1506.16 280.35 Q 1504.64 280.35, 1503.5 279.83 Q 1502.38 279.29, 1501.48 278.21 L 1502.62 277.05 Q 1503.5 278.01, 1504.24 278.39 Q 1504.98 278.75, 1506.16 278.75 Q 1507.44 278.75, 1508.22 278.07 Q 1509 277.37, 1509 276.25 Q 1509 274.81, 1508.18 274.17 Q 1507.38 273.51, 1505.64 273.51 L 1504.62 273.51 L 1504.62 272.07 L 1505.52 272.07 Q 1507.06 272.05, 1507.88 271.39 Q 1508.7 270.71, 1508.7 269.45 Q 1508.7 268.53, 1508.02 267.99 Q 1507.34 267.43, 1506.18 267.43 Q 1505 267.43, 1504.26 267.85 Q 1503.54 268.27, 1502.98 269.33 L 1501.6 268.59 Q 1502.1 267.41, 1503.3 266.63 Q 1504.5 265.83, 1506.18 265.83 Q 1508.26 265.83, 1509.48 266.81 Q 1510.7 267.79, 1510.7 269.45 Q 1510.7 270.59, 1510.08 271.41 Q 1509.46 272.23, 1508.28 272.69 " fill="#000000"/>
<path class="note" d="M 1559.5 369.962 L 1562.6 369.962 L 1562.6 359.382 L 1559.18 360.442 L 1558.72 359.262 L 1563.06 357.322 L 1564.48 357.562 L 1564.48 369.962 L 1567.26 369.962 L 1567.26 371.562 L 1559.5 371.562 L 1559.5 369.962 " fill="#000000"/>
<path class="note" d="M 1577.06 366.702 L 1578.76 366.702 L 1578.76 368.302 L 1577.06 368.302 L 1577.06 371.562 L 1575.18 371.562 L 1575.18 368.302 L 1567.86 368.302 L 1567.86 367.042 L 1574.06 357.402 L 1577.06 357.402 L 1577.06 366.702 M 1570.18 366.702 L 1575.18 366.702 L 1575.18 358.682 L 1570.18 366.702 " fill="#000000"/>
<path class="note" d="M 1691.59 355.429 L 1694.69 355.429 L 1694.69 344.849 L 1691.27 345.909 L 1690.81 344.729 L 1695.15 342.789 L 1696.57 343.029 L 1696.57 355.429 L 1699.35 355.429 L 1699.35 357.029 L 1691.59 357.029 L 1691.59 355.429 " fill="#000000"/>
<path class="note" d="M 1705.41 348.169 Q 1706.65 348.169, 1707.67 348.709 Q 1708.69 349.229, 1709.27 350.229 Q 1709.85 351.209, 1709.85 352.549 Q 1709.85 354.009, 1709.13 355.069 Q 1708.43 356.109, 1707.27 356.649 Q 1706.11 357.189, 1704.79 357.189 Q 1703.49 357.189, 1702.29 356.709 Q 1701.09 356.229, 1700.27 355.309 L 1701.47 354.069 Q 1702.13 354.789, 1703.03 355.189 Q 1703.93 355.569, 1704.85 355.569 Q 1706.11 355.569, 1706.97 354.789 Q 1707.85 354.009, 1707.85 352.589 Q 1707.85 351.089, 1706.97 350.389 Q 1706.11 349.669, 1704.73 349.669 Q 1703.49 349.669, 1702.11 350.209 L 1701.01 349.689 L 1701.69 342.869 L 1708.97 342.869 L 1708.77 344.469 L 1703.33 344.469 L 1702.91 348.669 Q 1704.17 348.169, 1705.41 348.169 " fill="#000000"/>
<path class="note" d="M 1763.26 232.165 L 1766.36 232.165 L 1766.36 221.585 L 1762.94 222.645 L 1762.48 221.465 L 1766.82 219.525 L 1768.24 219.765 L 1768.24 232.165 L 1771.02 232.165 L 1771.02 233.765 L 1763.26 233.765 L 1763.26 232.165 " fill="#000000"/>
<path class="note" d="M 1777.92 224.925 Q 1779.16 224.925, 1780.14 225.465 Q 1781.12 226.005, 1781.66 226.985 Q 1782.2 227.965, 1782.2 229.205 Q 1782.2 230.585, 1781.58 231.665 Q 1780.98 232.725, 1779.9 233.325 Q 1778.82 233.925, 1777.44 233.925 Q 1774.92 233.925, 1773.64 232.225 Q 1772.38 230.505, 1772.38 227.105 Q 1772.38 223.345, 1773.94 221.405 Q 1775.52 219.445, 1778.54 219.445 Q 1779.42 219.445, 1780.16 219.645 Q 1780.92 219.845, 1781.64 220.265 L 1780.86 221.605 Q 1779.82 221.045, 1778.56 221.045 Q 1776.56 221.045, 1775.54 222.345 Q 1774.52 223.625, 1774.4 226.285 Q 1775.12 225.625, 1776.02 225.285 Q 1776.94 224.925, 1777.92 224.925 M 1777.46 232.285 Q 1778.22 232.285, 1778.84 231.885 Q 1779.48 231.485, 1779.84 230.785 Q 1780.2 230.085, 1780.2 229.225 Q 1780.2 227.965, 1779.5 227.245 Q 1778.8 226.525, 1777.56 226.525 Q 1776.7 226.525, 1775.84 226.885 Q 1775 227.225, 1774.4 227.825 Q 1774.48 230.165, 1775.22 231.225 Q 1775.96 232.285, 1777.46 232.285 " fill="#000000"/>
<path class="note" d="M 1666.79 127.506 L 1669.89 127.506 L 1669.89 116.926 L 1666.47 117.986 L 1666.01 116.806 L 1670.35 114.866 L 1671.77 115.106 L 1671.77 127.506 L 1674.55 127.506 L 1674.55 129.106 L 1666.79 129.106 L 1666.79 127.506 " fill="#000000"/>
<path class="note" d="M 1682.33 116.546 L 1674.91 116.546 L 1674.91 114.946 L 1684.31 114.946 L 1684.31 116.366 L 1678.59 129.106 L 1676.67 129.106 L 1682.33 116.546 " fill="#000000"/>
<path class="note" d="M 1534.46 142.08 L 1537.56 142.08 L 1537.56 131.5 L 1534.14 132.56 L 1533.68 131.38 L 1538.02 129.44 L 1539.44 129.68 L 1539.44 142.08 L 1542.22 142.08 L 1542.22 143.68 L 1534.46 143.68 L 1534.46 142.08 " fill="#000000"/>
<path class="note" d="M 1550.68 136.18 Q 1551.98 136.74, 1552.72 137.58 Q 1553.46 138.4, 1553.46 139.8 Q 1553.46 141, 1552.84 141.94 Q 1552.22 142.86, 1551.1 143.38 Q 1550 143.88, 1548.54 143.88 Q 1546.18 143.88, 1544.82 142.8 Q 1543.46 141.7, 1543.46 139.8 Q 1543.46 138.64, 1544.06 137.78 Q 1544.66 136.9, 1545.9 136.24 Q 1544.98 135.72, 1544.48 134.96 Q 1543.98 134.18, 1543.98 132.98 Q 1543.98 131.32, 1545.18 130.34 Q 1546.4 129.36, 1548.46 129.36 Q 1550.52 129.36, 1551.72 130.34 Q 1552.94 131.32, 1552.94 132.98 Q 1552.94 134.02, 1552.36 134.8 Q 1551.8 135.56, 1550.68 136.18 M 1548.46 130.86 Q 1547.28 130.86, 1546.62 131.42 Q 1545.98 131.98, 1545.98 132.98 Q 1545.98 133.72, 1546.42 134.22 Q 1546.86 134.7, 1547.48 134.98 Q 1548.12 135.26, 1549.34 135.68 Q 1550.2 135.08, 1550.56 134.44 Q 1550.94 133.8, 1550.94 132.98 Q 1550.94 131.98, 1550.28 131.42 Q 1549.64 130.86, 1548.46 130.86 M 1548.54 142.38 Q 1549.86 142.38, 1550.66 141.68 Q 1551.46 140.96, 1551.46 139.78 Q 1551.46 139.02, 1551.04 138.54 Q 1550.62 138.06, 1549.98 137.78 Q 1549.36 137.5, 1548.24 137.14 L 1547.34 136.84 Q 1546.34 137.44, 1545.9 138.16 Q 1545.46 138.86, 1545.46 139.78 Q 1545.46 140.96, 1546.3 141.68 Q 1547.14 142.38, 1548.54 142.38 " fill="#000000"/>
<path class="note" d="M 1154.23 315.921 L 1157.33 315.921 L 1157.33 305.341 L 1153.91 306.401 L 1153.45 305.221 L 1157.79 303.281 L 1159.21 303.521 L 1159.21 315.921 L 1161.99 315.921 L 1161.99 317.521 L 1154.23 317.521 L 1154.23 315.921 " fill="#000000"/>
<path class="note" d="M 1167.85 303.201 Q 1170.37 303.201, 1171.63 304.921 Q 1172.91 306.621, 1172.91 310.021 Q 1172.91 313.781, 1171.33 315.741 Q 1169.77 317.681, 1166.75 317.681 Q 1165.87 317.681, 1165.11 317.481 Q 1164.37 317.281, 1163.65 316.861 L 1164.43 315.521 Q 1165.47 316.081, 1166.73 316.081 Q 1168.73 316.081, 1169.75 314.801 Q 1170.77 313.501, 1170.89 310.841 Q 1170.17 311.501, 1169.25 311.861 Q 1168.35 312.201, 1167.37 312.201 Q 1166.13 312.201, 1165.15 311.661 Q 1164.17 311.121, 1163.63 310.141 Q 1163.09 309.161, 1163.09 307.921 Q 1163.09 306.541, 1163.69 305.481 Q 1164.31 304.401, 1165.39 303.801 Q 1166.47 303.201, 1167.85 303.201 M 1165.09 307.901 Q 1165.09 309.161, 1165.79 309.881 Q 1166.49 310.601, 1167.73 310.601 Q 1168.59 310.601, 1169.43 310.261 Q 1170.29 309.901, 1170.89 309.301 Q 1170.81 306.961, 1170.07 305.901 Q 1169.33 304.841, 1167.83 304.841 Q 1167.07 304.841, 1166.43 305.241 Q 1165.81 305.641, 1165.45 306.341 Q 1165.09 307.041, 1165.09 307.901 " fill="#000000"/>
<path class="note" d="M 1208.14 382.252 Q 1208.66 380.912, 1209.9 380.172 Q 1211.14 379.412, 1212.86 379.412 Q 1215 379.412, 1216.2 380.572 Q 1217.4 381.732, 1217.4 383.792 Q 1217.4 385.892, 1215.84 387.852 Q 1214.3 389.812, 1211.1 392.132 L 1217.64 392.132 L 1217.64 393.732 L 1208.1 393.732 L 1208.1 392.392 Q 1210.74 390.512, 1212.3 389.112 Q 1213.88 387.712, 1214.64 386.452 Q 1215.4 385.192, 1215.4 383.892 Q 1215.4 382.532, 1214.72 381.772 Q 1214.04 381.012, 1212.86 381.012 Q 1211.72 381.012, 1210.96 381.472 Q 1210.2 381.932, 1209.66 382.952 L 1208.14 382.252 " fill="#000000"/>
<path class="note" d="M 1224.04 393.892 Q 1221.44 393.892, 1220.14 391.972 Q 1218.86 390.052, 1218.86 386.632 Q 1218.86 383.212, 1220.14 381.312 Q 1221.42 379.412, 1224.04 379.412 Q 1226.66 379.412, 1227.94 381.312 Q 1229.22 383.212, 1229.22 386.632 Q 1229.22 390.052, 1227.92 391.972 Q 1226.64 393.892, 1224.04 393.892 M 1224.04 392.292 Q 1225.58 392.292, 1226.4 390.872 Q 1227.22 389.432, 1227.22 386.632 Q 1227.22 383.852, 1226.4 382.432 Q 1225.58 381.012, 1224.04 381.012 Q 1222.52 381.012, 1221.68 382.432 Q 1220.86 383.852, 1220.86 386.632 Q 1220.86 389.432, 1221.68 390.872 Q 1222.52 392.292, 1224.04 392.292 " fill="#000000"/>
<path class="note" d="M 2379.06 458.874 L 2382.16 458.874 L 2382.16 448.294 L 2378.74 449.354 L 2378.28 448.174 L 2382.62 446.234 L 2384.04 446.474 L 2384.04 458.874 L 2386.82 458.874 L 2386.82 460.474 L 2379.06 460.474 L 2379.06 458.874 " fill="#000000"/>
<path class="note" d="M 2430.04 359.038 Q 2430.56 357.698, 2431.8 356.958 Q 2433.04 356.198, 2434.76 356.198 Q 2436.9 356.198, 2438.1 357.358 Q 2439.3 358.518, 2439.3 360.578 Q 2439.3 362.678, 2437.74 364.638 Q 2436.2 366.598, 2433 368.918 L 2439.54 368.918 L 2439.54 370.518 L 2430 370.518 L 2430 369.178 Q 2432.64 367.298, 2434.2 365.898 Q 2435.78 364.498, 2436.54 363.238 Q 2437.3 361.978, 2437.3 360.678 Q 2437.3 359.318, 2436.62 358.558 Q 2435.94 357.798, 2434.76 357.798 Q 2433.62 357.798, 2432.86 358.258 Q 2432.1 358.718, 2431.56 359.738 L 2430.04 359.038 " fill="#000000"/>
<path class="note" d="M 2355.65 213.435 Q 2357.03 213.835, 2357.69 214.735 Q 2358.37 215.615, 2358.37 217.015 Q 2358.37 218.215, 2357.77 219.155 Q 2357.17 220.075, 2356.07 220.595 Q 2354.97 221.095, 2353.53 221.095 Q 2352.01 221.095, 2350.87 220.575 Q 2349.75 220.035, 2348.85 218.955 L 2349.99 217.795 Q 2350.87 218.755, 2351.61 219.135 Q 2352.35 219.495, 2353.53 219.495 Q 2354.81 219.495, 2355.59 218.815 Q 2356.37 218.115, 2356.37 216.995 Q 2356.37 215.555, 2355.55 214.915 Q 2354.75 214.255, 2353.01 214.255 L 2351.99 214.255 L 2351.99 212.815 L 2352.89 212.815 Q 2354.43 212.795, 2355.25 212.135 Q 2356.07 211.455, 2356.07 210.195 Q 2356.07 209.275, 2355.39 208.735 Q 2354.71 208.175, 2353.55 208.175 Q 2352.37 208.175, 2351.63 208.595 Q 2350.91 209.015, 2350.35 210.075 L 2348.97 209.335 Q 2349.47 208.155, 2350.67 207.375 Q 2351.87 206.575, 2353.55 206.575 Q 2355.63 206.575, 2356.85 207.555 Q 2358.07 208.535, 2358.07 210.195 Q 2358.07 211.335, 2357.45 212.155 Q 2356.83 212.975, 2355.65 213.435 " fill="#000000"/>
<path class="note" d="M 2560.98 385.217 L 2562.68 385.217 L 2562.68 386.817 L 2560.98 386.817 L 2560.98 390.077 L 2559.1 390.077 L 2559.1 386.817 L 2551.78 386.817 L 2551.78 385.557 L 2557.98 375.917 L 2560.98 375.917 L 2560.98 385.217 M 2554.1 385.217 L 2559.1 385.217 L 2559.1 377.197 L 2554.1 385.217 " fill="#000000"/>
<path class="note" d="M 2579.97 250.733 Q 2581.21 250.733, 2582.23 251.273 Q 2583.25 251.793, 2583.83 252.793 Q 2584.41 253.773, 2584.41 255.113 Q 2584.41 256.573, 2583.69 257.633 Q 2582.99 258.673, 2581.83 259.213 Q 2580.67 259.753, 2579.35 259.753 Q 2578.05 259.753, 2576.85 259.273 Q 2575.65 258.793, 2574.83 257.873 L 2576.03 256.633 Q 2576.69 257.353, 2577.59 257.753 Q 2578.49 258.133, 2579.41 258.133 Q 2580.67 258.133, 2581.53 257.353 Q 2582.41 256.573, 2582.41 255.153 Q 2582.41 253.653, 2581.53 252.953 Q 2580.67 252.233, 2579.29 252.233 Q 2578.05 252.233, 2576.67 252.773 L 2575.57 252.253 L 2576.25 245.433 L 2583.53 245.433 L 2583.33 247.033 L 2577.89 247.033 L 2577.47 251.233 Q 2578.73 250.733, 2579.97 250.733 " fill="#000000"/>
<path class="note" d="M 2535.16 167.709 Q 2536.4 167.709, 2537.38 168.249 Q 2538.36 168.789, 2538.9 169.769 Q 2539.44 170.749, 2539.44 171.989 Q 2539.44 173.369, 2538.82 174.449 Q 2538.22 175.509, 2537.14 176.109 Q 2536.06 176.709, 2534.68 176.709 Q 2532.16 176.709, 2530.88 175.009 Q 2529.62 173.289, 2529.62 169.889 Q 2529.62 166.129, 2531.18 164.189 Q 2532.76 162.229, 2535.78 162.229 Q 2536.66 162.229, 2537.4 162.429 Q 2538.16 162.629, 2538.88 163.049 L 2538.1 164.389 Q 2537.06 163.829, 2535.8 163.829 Q 2533.8 163.829, 2532.78 165.129 Q 2531.76 166.409, 2531.64 169.069 Q 2532.36 168.409, 2533.26 168.069 Q 2534.18 167.709, 2535.16 167.709 M 2534.7 175.069 Q 2535.46 175.069, 2536.08 174.669 Q 2536.72 174.269, 2537.08 173.569 Q 2537.44 172.869, 2537.44 172.009 Q 2537.44 170.749, 2536.74 170.029 Q 2536.04 169.309, 2534.8 169.309 Q 2533.94 169.309, 2533.08 169.669 Q 2532.24 170.009, 2531.64 170.609 Q 2531.72 172.949, 2532.46 174.009 Q 2533.2 175.069, 2534.7 175.069 " fill="#000000"/>
<path class="note" d="M 2433.19 163.678 L 2425.77 163.678 L 2425.77 162.078 L 2435.17 162.078 L 2435.17 163.498 L 2429.45 176.238 L 2427.53 176.238 L 2433.19 163.678 " fill="#000000"/>
<path class="note" d="M 2596.95 39.5696 Q 2598.25 40.1296, 2598.99 40.9696 Q 2599.73 41.7896, 2599.73 43.1896 Q 2599.73 44.3896, 2599.11 45.3296 Q 2598.49 46.2496, 2597.37 46.7696 Q 2596.27 47.2696, 2594.81 47.2696 Q 2592.45 47.2696, 2591.09 46.1896 Q 2589.73 45.0896, 2589.73 43.1896 Q 2589.73 42.0296, 2590.33 41.1696 Q 2590.93 40.2896, 2592.17 39.6296 Q 2591.25 39.1096, 2590.75 38.3496 Q 2590.25 37.5696, 2590.25 36.3696 Q 2590.25 34.7096, 2591.45 33.7296 Q 2592.67 32.7496, 2594.73 32.7496 Q 2596.79 32.7496, 2597.99 33.7296 Q 2599.21 34.7096, 2599.21 36.3696 Q 2599.21 37.4096, 2598.63 38.1896 Q 2598.07 38.9496, 2596.95 39.5696 M 2594.73 34.2496 Q 2593.55 34.2496, 2592.89 34.8096 Q 2592.25 35.3696, 2592.25 36.3696 Q 2592.25 37.1096, 2592.69 37.6096 Q 2593.13 38.0896, 2593.75 38.3696 Q 2594.39 38.6496, 2595.61 39.0696 Q 2596.47 38.4696, 2596.83 37.8296 Q 2597.21 37.1896, 2597.21 36.3696 Q 2597.21 35.3696, 2596.55 34.8096 Q 2595.91 34.2496, 2594.73 34.2496 M 2594.81 45.7696 Q 2596.13 45.7696, 2596.93 45.0696 Q 2597.73 44.3496, 2597.73 43.1696 Q 2597.73 42.4096, 2597.31 41.9296 Q 2596.89 41.4496, 2596.25 41.1696 Q 2595.63 40.8896, 2594.51 40.5296 L 2593.61 40.2296 Q 2592.61 40.8296, 2592.17 41.5496 Q 2591.73 42.2496, 2591.73 43.1696 Q 2591.73 44.3496, 2592.57 45.0696 Q 2593.41 45.7696, 2594.81 45.7696 " fill="#000000"/>
<path class="note" d="M 2726.92 36.2673 Q 2729.44 36.2673, 2730.7 37.9873 Q 2731.98 39.6873, 2731.98 43.0873 Q 2731.98 46.8473, 2730.4 48.8073 Q 2728.84 50.7473, 2725.82 50.7473 Q 2724.94 50.7473, 2724.18 50.5473 Q 2723.44 50.3473, 2722.72 49.9273 L 2723.5 48.5873 Q 2724.54 49.1473, 2725.8 49.1473 Q 2727.8 49.1473, 2728.82 47.8673 Q 2729.84 46.5673, 2729.96 43.9073 Q 2729.24 44.5673, 2728.32 44.9273 Q 2727.42 45.2673, 2726.44 45.2673 Q 2725.2 45.2673, 2724.22 44.7273 Q 2723.24 44.1873, 2722.7 43.2073 Q 2722.16 42.2273, 2722.16 40.9873 Q 2722.16 39.6073, 2722.76 38.5473 Q 2723.38 37.4673, 2724.46 36.8673 Q 2725.54 36.2673, 2726.92 36.2673 M 2724.16 40.9673 Q 2724.16 42.2273, 2724.86 42.9473 Q 2725.56 43.6673, 2726.8 43.6673 Q 2727.66 43.6673, 2728.5 43.3273 Q 2729.36 42.9673, 2729.96 42.3673 Q 2729.88 40.0273, 2729.14 38.9673 Q 2728.4 37.9073, 2726.9 37.9073 Q 2726.14 37.9073, 2725.5 38.3073 Q 2724.88 38.7073, 2724.52 39.4073 Q 2724.16 40.1073, 2724.16 40.9673 " fill="#000000"/>
<path class="note" d="M 2777.52 132.613 L 2780.62 132.613 L 2780.62 122.033 L 2777.2 123.093 L 2776.74 121.913 L 2781.08 119.973 L 2782.5 120.213 L 2782.5 132.613 L 2785.28 132.613 L 2785.28 134.213 L 2777.52 134.213 L 2777.52 132.613 " fill="#000000"/>
<path class="note" d="M 2791.68 134.373 Q 2789.08 134.373, 2787.78 132.453 Q 2786.5 130.533, 2786.5 127.113 Q 2786.5 123.693, 2787.78 121.793 Q 2789.06 119.893, 2791.68 119.893 Q 2794.3 119.893, 2795.58 121.793 Q 2796.86 123.693, 2796.86 127.113 Q 2796.86 130.533, 2795.56 132.453 Q 2794.28 134.373, 2791.68 134.373 M 2791.68 132.773 Q 2793.22 132.773, 2794.04 131.353 Q 2794.86 129.913, 2794.86 127.113 Q 2794.86 124.333, 2794.04 122.913 Q 2793.22 121.493, 2791.68 121.493 Q 2790.16 121.493, 2789.32 122.913 Q 2788.5 124.333, 2788.5 127.113 Q 2788.5 129.913, 2789.32 131.353 Q 2790.16 132.773, 2791.68 132.773 " fill="#000000"/>
<path class="note" d="M 2891.94 135.588 L 2895.04 135.588 L 2895.04 125.008 L 2891.62 126.068 L 2891.16 124.888 L 2895.5 122.948 L 2896.92 123.188 L 2896.92 135.588 L 2899.7 135.588 L 2899.7 137.188 L 2891.94 137.188 L 2891.94 135.588 " fill="#000000"/>
<path class="note" d="M 2901.56 135.588 L 2904.66 135.588 L 2904.66 125.008 L 2901.24 126.068 L 2900.78 124.888 L 2905.12 122.948 L 2906.54 123.188 L 2906.54 135.588 L 2909.32 135.588 L 2909.32 137.188 L 2901.56 137.188 L 2901.56 135.588 " fill="#000000"/>
<path class="note" d="M 2915.92 283.743 L 2919.02 283.743 L 2919.02 273.163 L 2915.6 274.223 L 2915.14 273.043 L 2919.48 271.103 L 2920.9 271.343 L 2920.9 283.743 L 2923.68 283.743 L 2923.68 285.343 L 2915.92 285.343 L 2915.92 283.743 " fill="#000000"/>
<path class="note" d="M 2924.72 273.863 Q 2925.24 272.523, 2926.48 271.783 Q 2927.72 271.023, 2929.44 271.023 Q 2931.58 271.023, 2932.78 272.183 Q 2933.98 273.343, 2933.98 275.403 Q 2933.98 277.503, 2932.42 279.463 Q 2930.88 281.423, 2927.68 283.743 L 2934.22 283.743 L 2934.22 285.343 L 2924.68 285.343 L 2924.68 284.003 Q 2927.32 282.123, 2928.88 280.723 Q 2930.46 279.323, 2931.22 278.063 Q 2931.98 276.803, 2931.98 275.503 Q 2931.98 274.143, 2931.3 273.383 Q 2930.62 272.623, 2929.44 272.623 Q 2928.3 272.623, 2927.54 273.083 Q 2926.78 273.543, 2926.24 274.563 L 2924.72 273.863 " fill="#000000"/>
<path class="note" d="M 3029.45 286.758 L 3032.55 286.758 L 3032.55 276.178 L 3029.13 277.238 L 3028.67 276.058 L 3033.01 274.118 L 3034.43 274.358 L 3034.43 286.758 L 3037.21 286.758 L 3037.21 288.358 L 3029.45 288.358 L 3029.45 286.758 " fill="#000000"/>
<path class="note" d="M 3044.85 280.898 Q 3046.23 281.298, 3046.89 282.198 Q 3047.57 283.078, 3047.57 284.478 Q 3047.57 285.678, 3046.97 286.618 Q 3046.37 287.538, 3045.27 288.058 Q 3044.17 288.558, 3042.73 288.558 Q 3041.21 288.558, 3040.07 288.038 Q 3038.95 287.498, 3038.05 286.418 L 3039.19 285.258 Q 3040.07 286.218, 3040.81 286.598 Q 3041.55 286.958, 3042.73 286.958 Q 3044.01 286.958, 3044.79 286.278 Q 3045.57 285.578, 3045.57 284.458 Q 3045.57 283.018, 3044.75 282.378 Q 3043.95 281.718, 3042.21 281.718 L 3041.19 281.718 L 3041.19 280.278 L 3042.09 280.278 Q 3043.63 280.258, 3044.45 279.598 Q 3045.27 278.918, 3045.27 277.658 Q 3045.27 276.738, 3044.59 276.198 Q 3043.91 275.638, 3042.75 275.638 Q 3041.57 275.638, 3040.83 276.058 Q 3040.11 276.478, 3039.55 277.538 L 3038.17 276.798 Q 3038.67 275.618, 3039.87 274.838 Q 3041.07 274.038, 3042.75 274.038 Q 3044.83 274.038, 3046.05 275.018 Q 3047.27 275.998, 3047.27 277.658 Q 3047.27 278.798, 3046.65 279.618 Q 3046.03 280.438, 3044.85 280.898 " fill="#000000"/>
<path class="note" d="M 3082.99 386.466 L 3086.09 386.466 L 3086.09 375.886 L 3082.67 376.946 L 3082.21 375.766 L 3086.55 373.826 L 3087.97 374.066 L 3087.97 386.466 L 3090.75 386.466 L 3090.75 388.066 L 3082.99 388.066 L 3082.99 386.466 " fill="#000000"/>
<path class="note" d="M 3100.55 383.206 L 3102.25 383.206 L 3102.25 384.806 L 3100.55 384.806 L 3100.55 388.066 L 3098.67 388.066 L 3098.67 384.806 L 3091.35 384.806 L 3091.35 383.546 L 3097.55 373.906 L 3100.55 373.906 L 3100.55 383.206 M 3093.67 383.206 L 3098.67 383.206 L 3098.67 375.186 L 3093.67 383.206 " fill="#000000"/>
<path class="note" d="M 3215.83 389.984 L 3218.93 389.984 L 3218.93 379.404 L 3215.51 380.464 L 3215.05 379.284 L 3219.39 377.344 L 3220.81 377.584 L 3220.81 389.984 L 3223.59 389.984 L 3223.59 391.584 L 3215.83 391.584 L 3215.83 389.984 " fill="#000000"/>
<path class="note" d="M 3229.65 382.724 Q 3230.89 382.724, 3231.91 383.264 Q 3232.93 383.784, 3233.51 384.784 Q 3234.09 385.764, 3234.09 387.104 Q 3234.09 388.564, 3233.37 389.624 Q 3232.67 390.664, 3231.51 391.204 Q 3230.35 391.744, 3229.03 391.744 Q 3227.73 391.744, 3226.53 391.264 Q 3225.33 390.784, 3224.51 389.864 L 3225.71 388.624 Q 3226.37 389.344, 3227.27 389.744 Q 3228.17 390.124, 3229.09 390.124 Q 3230.35 390.124, 3231.21 389.344 Q 3232.09 388.564, 3232.09 387.144 Q 3232.09 385.644, 3231.21 384.944 Q 3230.35 384.224, 3228.97 384.224 Q 3227.73 384.224, 3226.35 384.764 L 3225.25 384.244 L 3225.93 377.424 L 3233.21 377.424 L 3233.01 379.024 L 3227.57 379.024 L 3227.15 383.224 Q 3228.41 382.724, 3229.65 382.724 " fill="#000000"/>
<path class="note" d="M 3303.62 277.672 L 3306.72 277.672 L 3306.72 267.092 L 3303.3 268.152 L 3302.84 266.972 L 3307.18 265.032 L 3308.6 265.272 L 3308.6 277.672 L 3311.38 277.672 L 3311.38 279.272 L 3303.62 279.272 L 3303.62 277.672 " fill="#000000"/>
<path class="note" d="M 3318.28 270.432 Q 3319.52 270.432, 3320.5 270.972 Q 3321.48 271.512, 3322.02 272.492 Q 3322.56 273.472, 3322.56 274.712 Q 3322.56 276.092, 3321.94 277.172 Q 3321.34 278.232, 3320.26 278.832 Q 3319.18 279.432, 3317.8 279.432 Q 3315.28 279.432, 3314 277.732 Q 3312.74 276.012, 3312.74 272.612 Q 3312.74 268.852, 3314.3 266.912 Q 3315.88 264.952, 3318.9 264.952 Q 3319.78 264.952, 3320.52 265.152 Q 3321.28 265.352, 3322 265.772 L 3321.22 267.112 Q 3320.18 266.552, 3318.92 266.552 Q 3316.92 266.552, 3315.9 267.852 Q 3314.88 269.132, 3314.76 271.792 Q 3315.48 271.132, 3316.38 270.792 Q 3317.3 270.432, 3318.28 270.432 M 3317.82 277.792 Q 3318.58 277.792, 3319.2 277.392 Q 3319.84 276.992, 3320.2 276.292 Q 3320.56 275.592, 3320.56 274.732 Q 3320.56 273.472, 3319.86 272.752 Q 3319.16 272.032, 3317.92 272.032 Q 3317.06 272.032, 3316.2 272.392 Q 3315.36 272.732, 3314.76 273.332 Q 3314.84 275.672, 3315.58 276.732 Q 3316.32 277.792, 3317.82 277.792 " fill="#000000"/>
<path class="note" d="M 3222.29 160.756 L 3225.39 160.756 L 3225.39 150.176 L 3221.97 151.236 L 3221.51 150.056 L 3225.85 148.116 L 3227.27 148.356 L 3227.27 160.756 L 3230.05 160.756 L 3230.05 162.356 L 3222.29 162.356 L 3222.29 160.756 " fill="#000000"/>
<path class="note" d="M 3237.83 149.796 L 3230.41 149.796 L 3230.41 148.196 L 3239.81 148.196 L 3239.81 149.616 L 3234.09 162.356 L 3232.17 162.356 L 3237.83 149.796 " fill="#000000"/>
<path class="note" d="M 3089.21 157.278 L 3092.31 157.278 L 3092.31 146.698 L 3088.89 147.758 L 3088.43 146.578 L 3092.77 144.638 L 3094.19 144.878 L 3094.19 157.278 L 3096.97 157.278 L 3096.97 158.878 L 3089.21 158.878 L 3089.21 157.278 " fill="#000000"/>
<path class="note" d="M 3105.43 151.378 Q 3106.73 151.938, 3107.47 152.778 Q 3108.21 153.598, 3108.21 154.998 Q 3108.21 156.198, 3107.59 157.138 Q 3106.97 158.058, 3105.85 158.578 Q 3104.75 159.078, 3103.29 159.078 Q 3100.93 159.078, 3099.57 157.998 Q 3098.21 156.898, 3098.21 154.998 Q 3098.21 153.838, 3098.81 152.978 Q 3099.41 152.098, 3100.65 151.438 Q 3099.73 150.918, 3099.23 150.158 Q 3098.73 149.378, 3098.73 148.178 Q 3098.73 146.518, 3099.93 145.538 Q 3101.15 144.558, 3103.21 144.558 Q 3105.27 144.558, 3106.47 145.538 Q 3107.69 146.518, 3107.69 148.178 Q 3107.69 149.218, 3107.11 149.998 Q 3106.55 150.758, 3105.43 151.378 M 3103.21 146.058 Q 3102.03 146.058, 3101.37 146.618 Q 3100.73 147.178, 3100.73 148.178 Q 3100.73 148.918, 3101.17 149.418 Q 3101.61 149.898, 3102.23 150.178 Q 3102.87 150.458, 3104.09 150.878 Q 3104.95 150.278, 3105.31 149.638 Q 3105.69 148.998, 3105.69 148.178 Q 3105.69 147.178, 3105.03 146.618 Q 3104.39 146.058, 3103.21 146.058 M 3103.29 157.578 Q 3104.61 157.578, 3105.41 156.878 Q 3106.21 156.158, 3106.21 154.978 Q 3106.21 154.218, 3105.79 153.738 Q 3105.37 153.258, 3104.73 152.978 Q 3104.11 152.698, 3102.99 152.338 L 3102.09 152.038 Q 3101.09 152.638, 3100.65 153.358 Q 3100.21 154.058, 3100.21 154.978 Q 3100.21 156.158, 3101.05 156.878 Q 3101.89 157.578, 3103.29 157.578 " fill="#000000"/>
<path class="note" d="M 2688.85 277.713 L 2691.95 277.713 L 2691.95 267.133 L 2688.53 268.193 L 2688.07 267.013 L 2692.41 265.073 L 2693.83 265.313 L 2693.83 277.713 L 2696.61 277.713 L 2696.61 279.313 L 2688.85 279.313 L 2688.85 277.713 " fill="#000000"/>
<path class="note" d="M 2702.47 264.993 Q 2704.99 264.993, 2706.25 266.713 Q 2707.53 268.413, 2707.53 271.813 Q 2707.53 275.573, 2705.95 277.533 Q 2704.39 279.473, 2701.37 279.473 Q 2700.49 279.473, 2699.73 279.273 Q 2698.99 279.073, 2698.27 278.653 L 2699.05 277.313 Q 2700.09 277.873, 2701.35 277.873 Q 2703.35 277.873, 2704.37 276.593 Q 2705.39 275.293, 2705.51 272.633 Q 2704.79 273.293, 2703.87 273.653 Q 2702.97 273.993, 2701.99 273.993 Q 2700.75 273.993, 2699.77 273.453 Q 2698.79 272.913, 2698.25 271.933 Q 2697.71 270.953, 2697.71 269.713 Q 2697.71 268.333, 2698.31 267.273 Q 2698.93 266.193, 2700.01 265.593 Q 2701.09 264.993, 2702.47 264.993 M 2699.71 269.693 Q 2699.71 270.953, 2700.41 271.673 Q 2701.11 272.393, 2702.35 272.393 Q 2703.21 272.393, 2704.05 272.053 Q 2704.91 271.693, 2705.51 271.093 Q 2705.43 268.753, 2704.69 267.693 Q 2703.95 266.633, 2702.45 266.633 Q 2701.69 266.633, 2701.05 267.033 Q 2700.43 267.433, 2700.07 268.133 Q 2699.71 268.833, 2699.71 269.693 " fill="#000000"/>
<path class="note" d="M 2731.87 350.956 Q 2732.39 349.616, 2733.63 348.876 Q 2734.87 348.116, 2736.59 348.116 Q 2738.73 348.116, 2739.93 349.276 Q 2741.13 350.436, 2741.13 352.496 Q 2741.13 354.596, 2739.57 356.556 Q 2738.03 358.516, 2734.83 360.836 L 2741.37 360.836 L 2741.37 362.436 L 2731.83 362.436 L 2731.83 361.096 Q 2734.47 359.216, 2736.03 357.816 Q 2737.61 356.416, 2738.37 355.156 Q 2739.13 353.896, 2739.13 352.596 Q 2739.13 351.236, 2738.45 350.476 Q 2737.77 349.716, 2736.59 349.716 Q 2735.45 349.716, 2734.69 350.176 Q 2733.93 350.636, 2733.39 351.656 L 2731.87 350.956 " fill="#000000"/>
<path class="note" d="M 2747.77 362.596 Q 2745.17 362.596, 2743.87 360.676 Q 2742.59 358.756, 2742.59 355.336 Q 2742.59 351.916, 2743.87 350.016 Q 2745.15 348.116, 2747.77 348.116 Q 2750.39 348.116, 2751.67 350.016 Q 2752.95 351.916, 2752.95 355.336 Q 2752.95 358.756, 2751.65 360.676 Q 2750.37 362.596, 2747.77 362.596 M 2747.77 360.996 Q 2749.31 360.996, 2750.13 359.576 Q 2750.95 358.136, 2750.95 355.336 Q 2750.95 352.556, 2750.13 351.136 Q 2749.31 349.716, 2747.77 349.716 Q 2746.25 349.716, 2745.41 351.136 Q 2744.59 352.556, 2744.59 355.336 Q 2744.59 358.136, 2745.41 359.576 Q 2746.25 360.996, 2747.77 360.996 " fill="#000000"/>
<path class="note" d="M 3584.02 311.977 Q 3584.54 310.637, 3585.78 309.897 Q 3587.02 309.137, 3588.74 309.137 Q 3590.88 309.137, 3592.08 310.297 Q 3593.28 311.457, 3593.28 313.517 Q 3593.28 315.617, 3591.72 317.577 Q 3590.18 319.537, 3586.98 321.857 L 3593.52 321.857 L 3593.52 323.457 L 3583.98 323.457 L 3583.98 322.117 Q 3586.62 320.237, 3588.18 318.837 Q 3589.76 317.437, 3590.52 316.177 Q 3591.28 314.917, 3591.28 313.617 Q 3591.28 312.257, 3590.6 311.497 Q 3589.92 310.737, 3588.74 310.737 Q 3587.6 310.737, 3586.84 311.197 Q 3586.08 311.657, 3585.54 312.677 L 3584.02 311.977 " fill="#000000"/>
<path class="note" d="M 3595.38 321.857 L 3598.48 321.857 L 3598.48 311.277 L 3595.06 312.337 L 3594.6 311.157 L 3598.94 309.217 L 3600.36 309.457 L 3600.36 321.857 L 3603.14 321.857 L 3603.14 323.457 L 3595.38 323.457 L 3595.38 321.857 " fill="#000000"/>
<path class="note" d="M 3662.92 222.48 Q 3663.44 221.14, 3664.68 220.4 Q 3665.92 219.64, 3667.64 219.64 Q 3669.78 219.64, 3670.98 220.8 Q 3672.18 221.96, 3672.18 224.02 Q 3672.18 226.12, 3670.62 228.08 Q 3669.08 230.04, 3665.88 232.36 L 3672.42 232.36 L 3672.42 233.96 L 3662.88 233.96 L 3662.88 232.62 Q 3665.52 230.74, 3667.08 229.34 Q 3668.66 227.94, 3669.42 226.68 Q 3670.18 225.42, 3670.18 224.12 Q 3670.18 222.76, 3669.5 222 Q 3668.82 221.24, 3667.64 221.24 Q 3666.5 221.24, 3665.74 221.7 Q 3664.98 222.16, 3664.44 223.18 L 3662.92 222.48 " fill="#000000"/>
<path class="note" d="M 3673.46 222.48 Q 3673.98 221.14, 3675.22 220.4 Q 3676.46 219.64, 3678.18 219.64 Q 3680.32 219.64, 3681.52 220.8 Q 3682.72 221.96, 3682.72 224.02 Q 3682.72 226.12, 3681.16 228.08 Q 3679.62 230.04, 3676.42 232.36 L 3682.96 232.36 L 3682.96 233.96 L 3673.42 233.96 L 3673.42 232.62 Q 3676.06 230.74, 3677.62 229.34 Q 3679.2 227.94, 3679.96 226.68 Q 3680.72 225.42, 3680.72 224.12 Q 3680.72 222.76, 3680.04 222 Q 3679.36 221.24, 3678.18 221.24 Q 3677.04 221.24, 3676.28 221.7 Q 3675.52 222.16, 3674.98 223.18 L 3673.46 222.48 " fill="#000000"/>
<path class="note" d="M 3803.5 314.511 Q 3804.02 313.171, 3805.26 312.431 Q 3806.5 311.671, 3808.22 311.671 Q 3810.36 311.671, 3811.56 312.831 Q 3812.76 313.991, 3812.76 316.051 Q 3812.76 318.151, 3811.2 320.111 Q 3809.66 322.071, 3806.46 324.391 L 3813 324.391 L 3813 325.991 L 3803.46 325.991 L 3803.46 324.651 Q 3806.1 322.771, 3807.66 321.371 Q 3809.24 319.971, 3810 318.711 Q 3810.76 317.451, 3810.76 316.151 Q 3810.76 314.791, 3810.08 314.031 Q 3809.4 313.271, 3808.22 313.271 Q 3807.08 313.271, 3806.32 313.731 Q 3805.56 314.191, 3805.02 315.211 L 3803.5 314.511 " fill="#000000"/>
<path class="note" d="M 3820.64 318.531 Q 3822.02 318.931, 3822.68 319.831 Q 3823.36 320.711, 3823.36 322.111 Q 3823.36 323.311, 3822.76 324.251 Q 3822.16 325.171, 3821.06 325.691 Q 3819.96 326.191, 3818.52 326.191 Q 3817 326.191, 3815.86 325.671 Q 3814.74 325.131, 3813.84 324.051 L 3814.98 322.891 Q 3815.86 323.851, 3816.6 324.231 Q 3817.34 324.591, 3818.52 324.591 Q 3819.8 324.591, 3820.58 323.911 Q 3821.36 323.211, 3821.36 322.091 Q 3821.36 320.651, 3820.54 320.011 Q 3819.74 319.351, 3818 319.351 L 3816.98 319.351 L 3816.98 317.911 L 3817.88 317.911 Q 3819.42 317.891, 3820.24 317.231 Q 3821.06 316.551, 3821.06 315.291 Q 3821.06 314.371, 3820.38 313.831 Q 3819.7 313.271, 3818.54 313.271 Q 3817.36 313.271, 3816.62 313.691 Q 3815.9 314.111, 3815.34 315.171 L 3813.96 314.431 Q 3814.46 313.251, 3815.66 312.471 Q 3816.86 311.671, 3818.54 311.671 Q 3820.62 311.671, 3821.84 312.651 Q 3823.06 313.631, 3823.06 315.291 Q 3823.06 316.431, 3822.44 317.251 Q 3821.82 318.071, 3820.64 318.531 " fill="#000000"/>
<path class="note" d="M 3671.9 87.5543 Q 3672.42 86.2143, 3673.66 85.4743 Q 3674.9 84.7143, 3676.62 84.7143 Q 3678.76 84.7143, 3679.96 85.8743 Q 3681.16 87.0343, 3681.16 89.0943 Q 3681.16 91.1943, 3679.6 93.1543 Q 3678.06 95.1143, 3674.86 97.4343 L 3681.4 97.4343 L 3681.4 99.0343 L 3671.86 99.0343 L 3671.86 97.6943 Q 3674.5 95.8143, 3676.06 94.4143 Q 3677.64 93.0143, 3678.4 91.7543 Q 3679.16 90.4943, 3679.16 89.1943 Q 3679.16 87.8343, 3678.48 87.0743 Q 3677.8 86.3143, 3676.62 86.3143 Q 3675.48 86.3143, 3674.72 86.7743 Q 3673.96 87.2343, 3673.42 88.2543 L 3671.9 87.5543 " fill="#000000"/>
<path class="note" d="M 3691.2 94.1743 L 3692.9 94.1743 L 3692.9 95.7743 L 3691.2 95.7743 L 3691.2 99.0343 L 3689.32 99.0343 L 3689.32 95.7743 L 3682 95.7743 L 3682 94.5143 L 3688.2 84.8743 L 3691.2 84.8743 L 3691.2 94.1743 M 3684.32 94.1743 L 3689.32 94.1743 L 3689.32 86.1543 L 3684.32 94.1743 " fill="#000000"/>
<path d="M 744.276 247.685 L 750.324 247.685 L 750.324 241.317 L 753.012 241.317 L 753.012 247.685 L 759.22 247.685 L 759.22 249.989 L 753.012 249.989 L 753.012 256.389 L 750.324 256.389 L 750.324 249.989 L 744.276 249.989 L 744.276 247.685 " fill="#000000"/>
<path d="M 3427.27 247.685 L 3433.32 247.685 L 3433.32 241.317 L 3436 241.317 L 3436 247.685 L 3442.21 247.685 L 3442.21 249.989 L 3436 249.989 L 3436 256.389 L 3433.32 256.389 L 3433.32 249.989 L 3427.27 249.989 L 3427.27 247.685 " fill="#000000"/>
<path d="M 1894.6,249.989 L 2197.21,249.989" style="fill:none;fill-rule:evenodd;stroke:#000000;stroke-width:2.0px;stroke-linecap:butt;stroke-linejoin:miter;stroke-opacity:1"/>
<path d="M 2197.21,249.989 L 2184.1,242.423" style="fill:none;fill-rule:evenodd;stroke:#000000;stroke-width:2.0px;stroke-linecap:butt;stroke-linejoin:miter;stroke-opacity:1"/>
<path d="M 2197.21,249.989 L 2184.1,257.554" style="fill:none;fill-rule:evenodd;stroke:#000000;stroke-width:2.0px;stroke-linecap:butt;stroke-linejoin:miter;stroke-opacity:1"/>
</svg>