<svg xmlns="http://www.w3.org/2000/svg" xmlns:rdkit="http://www.rdkit.org/xml" xmlns:xlink="http://www.w3.org/1999/xlink" version="1.1" baseProfile="full" xml:space="preserve" width="4000px" height="500px" viewBox="0 0 4000 500">
<!-- END OF HEADER -->
<rect style="opacity:1.0;fill:#FFFFFF;stroke:none" width="4000" height="500" x="0" y="0"> </rect>
<path d="M 206.482,179.261 L 313.282,240.922" style="fill:none;fill-rule:evenodd;stroke:#FFFFAA;stroke-width:26.3px;stroke-linecap:butt;stroke-linejoin:miter;stroke-opacity:1"/>
<path d="M 313.282,240.922 L 313.282,364.243" style="fill:none;fill-rule:evenodd;stroke:#FFFFAA;stroke-width:26.3px;stroke-linecap:butt;stroke-linejoin:miter;stroke-opacity:1"/>
<path d="M 313.282,240.922 L 420.081,179.261" style="fill:none;fill-rule:evenodd;stroke:#FFFFAA;stroke-width:26.3px;stroke-linecap:butt;stroke-linejoin:miter;stroke-opacity:1"/>
<path d="M 420.081,179.261 L 526.88,240.922" style="fill:none;fill-rule:evenodd;stroke:#FFFFAA;stroke-width:26.3px;stroke-linecap:butt;stroke-linejoin:miter;stroke-opacity:1"/>
<path d="M 526.88,240.922 L 633.68,179.261" style="fill:none;fill-rule:evenodd;stroke:#FFFFAA;stroke-width:26.3px;stroke-linecap:butt;stroke-linejoin:miter;stroke-opacity:1"/>
<path d="M 526.88,240.922 L 526.88,364.243" style="fill:none;fill-rule:evenodd;stroke:#FFFFAA;stroke-width:26.3px;stroke-linecap:butt;stroke-linejoin:miter;stroke-opacity:1"/>
<path d="M 997.14,296.839 L 1115.18,261.123" style="fill:none;fill-rule:evenodd;stroke:#FFCC99;stroke-width:26.3px;stroke-linecap:butt;stroke-linejoin:miter;stroke-opacity:1"/>
<path d="M 1115.18,261.123 L 1143.26,141.043" style="fill:none;fill-rule:evenodd;stroke:#FFCC99;stroke-width:26.3px;stroke-linecap:butt;stroke-linejoin:miter;stroke-opacity:1"/>
<path d="M 1115.18,261.123 L 1205.12,345.487" style="fill:none;fill-rule:evenodd;stroke:#FFCC99;stroke-width:26.3px;stroke-linecap:butt;stroke-linejoin:miter;stroke-opacity:1"/>
<path d="M 1143.26,141.043 L 1261.3,105.326" style="fill:none;fill-rule:evenodd;stroke:#FFCC99;stroke-width:26.3px;stroke-linecap:butt;stroke-linejoin:miter;stroke-opacity:1"/>
<path d="M 1261.3,105.326 L 1351.25,189.69" style="fill:none;fill-rule:evenodd;stroke:#FFCC99;stroke-width:26.3px;stroke-linecap:butt;stroke-linejoin:miter;stroke-opacity:1"/>
<path d="M 1351.25,189.69 L 1469.28,153.974" style="fill:none;fill-rule:evenodd;stroke:#FFCC99;stroke-width:26.3px;stroke-linecap:butt;stroke-linejoin:miter;stroke-opacity:1"/>
<path d="M 1351.25,189.69 L 1323.16,309.771" style="fill:none;fill-rule:evenodd;stroke:#FFCC99;stroke-width:26.3px;stroke-linecap:butt;stroke-linejoin:miter;stroke-opacity:1"/>
<path d="M 1469.28,153.974 L 1559.23,238.338" style="fill:none;fill-rule:evenodd;stroke:#FFCC99;stroke-width:26.3px;stroke-linecap:butt;stroke-linejoin:miter;stroke-opacity:1"/>
<path d="M 1559.23,238.338 L 1677.27,202.621" style="fill:none;fill-rule:evenodd;stroke:#FFCC99;stroke-width:26.3px;stroke-linecap:butt;stroke-linejoin:miter;stroke-opacity:1"/>
<path d="M 1559.23,238.338 L 1531.15,358.418" style="fill:none;fill-rule:evenodd;stroke:#FFCC99;stroke-width:26.3px;stroke-linecap:butt;stroke-linejoin:miter;stroke-opacity:1"/>
<path d="M 1531.15,358.418 L 1413.11,394.134" style="fill:none;fill-rule:evenodd;stroke:#FFCC99;stroke-width:26.3px;stroke-linecap:butt;stroke-linejoin:miter;stroke-opacity:1"/>
<path d="M 1413.11,394.134 L 1323.16,309.771" style="fill:none;fill-rule:evenodd;stroke:#FFCC99;stroke-width:26.3px;stroke-linecap:butt;stroke-linejoin:miter;stroke-opacity:1"/>
<path d="M 1323.16,309.771 L 1205.12,345.487" style="fill:none;fill-rule:evenodd;stroke:#FFCC99;stroke-width:26.3px;stroke-linecap:butt;stroke-linejoin:miter;stroke-opacity:1"/>
<path d="M 2381.55,311.391 L 2488.35,249.73" style="fill:none;fill-rule:evenodd;stroke:#FFFFAA;stroke-width:26.3px;stroke-linecap:butt;stroke-linejoin:miter;stroke-opacity:1"/>
<path d="M 2488.35,249.73 L 2595.15,311.391" style="fill:none;fill-rule:evenodd;stroke:#FFFFAA;stroke-width:26.3px;stroke-linecap:butt;stroke-linejoin:miter;stroke-opacity:1"/>
<path d="M 2488.35,249.73 L 2488.35,126.409" style="fill:none;fill-rule:evenodd;stroke:#FFFFAA;stroke-width:26.3px;stroke-linecap:butt;stroke-linejoin:miter;stroke-opacity:1"/>
<path d="M 2911.01,294.17 L 3026.16,250.023" style="fill:none;fill-rule:evenodd;stroke:#FFFFAA;stroke-width:26.3px;stroke-linecap:butt;stroke-linejoin:miter;stroke-opacity:1"/>
<path d="M 3026.16,250.023 L 3045.5,128.228" style="fill:none;fill-rule:evenodd;stroke:#FFFFAA;stroke-width:26.3px;stroke-linecap:butt;stroke-linejoin:miter;stroke-opacity:1"/>
<path d="M 3121.97,327.671 L 3237.12,283.524" style="fill:none;fill-rule:evenodd;stroke:#FFCC99;stroke-width:26.3px;stroke-linecap:butt;stroke-linejoin:miter;stroke-opacity:1"/>
<path d="M 3237.12,283.524 L 3256.46,161.729" style="fill:none;fill-rule:evenodd;stroke:#FFCC99;stroke-width:26.3px;stroke-linecap:butt;stroke-linejoin:miter;stroke-opacity:1"/>
<path d="M 3237.12,283.524 L 3332.92,361.172" style="fill:none;fill-rule:evenodd;stroke:#FFCC99;stroke-width:26.3px;stroke-linecap:butt;stroke-linejoin:miter;stroke-opacity:1"/>
<path d="M 3256.46,161.729 L 3371.61,117.582" style="fill:none;fill-rule:evenodd;stroke:#FFCC99;stroke-width:26.3px;stroke-linecap:butt;stroke-linejoin:miter;stroke-opacity:1"/>
<path d="M 3371.61,117.582 L 3467.41,195.23" style="fill:none;fill-rule:evenodd;stroke:#FFCC99;stroke-width:26.3px;stroke-linecap:butt;stroke-linejoin:miter;stroke-opacity:1"/>
<path d="M 3467.41,195.23 L 3582.56,151.084" style="fill:none;fill-rule:evenodd;stroke:#FFCC99;stroke-width:26.3px;stroke-linecap:butt;stroke-linejoin:miter;stroke-opacity:1"/>
<path d="M 3467.41,195.23 L 3448.07,317.025" style="fill:none;fill-rule:evenodd;stroke:#FFCC99;stroke-width:26.3px;stroke-linecap:butt;stroke-linejoin:miter;stroke-opacity:1"/>
<path d="M 3582.56,151.084 L 3678.37,228.732" style="fill:none;fill-rule:evenodd;stroke:#FFCC99;stroke-width:26.3px;stroke-linecap:butt;stroke-linejoin:miter;stroke-opacity:1"/>
<path d="M 3678.37,228.732 L 3793.52,184.585" style="fill:none;fill-rule:evenodd;stroke:#FFCC99;stroke-width:26.3px;stroke-linecap:butt;stroke-linejoin:miter;stroke-opacity:1"/>
<path d="M 3678.37,228.732 L 3659.03,350.527" style="fill:none;fill-rule:evenodd;stroke:#FFCC99;stroke-width:26.3px;stroke-linecap:butt;stroke-linejoin:miter;stroke-opacity:1"/>
<path d="M 3659.03,350.527 L 3543.88,394.674" style="fill:none;fill-rule:evenodd;stroke:#FFCC99;stroke-width:26.3px;stroke-linecap:butt;stroke-linejoin:miter;stroke-opacity:1"/>
<path d="M 3543.88,394.674 L 3448.07,317.025" style="fill:none;fill-rule:evenodd;stroke:#FFCC99;stroke-width:26.3px;stroke-linecap:butt;stroke-linejoin:miter;stroke-opacity:1"/>
<path d="M 3448.07,317.025 L 3332.92,361.172" style="fill:none;fill-rule:evenodd;stroke:#FFCC99;stroke-width:26.3px;stroke-linecap:butt;stroke-linejoin:miter;stroke-opacity:1"/>
<ellipse cx="206.482" cy="179.261" rx="24.6642" ry="24.6642" style="fill:#FFFFAA;fill-rule:evenodd;stroke:#FFFFAA;stroke-width:1px;stroke-linecap:butt;stroke-linejoin:miter;stroke-opacity:1"/>
<ellipse cx="313.282" cy="240.922" rx="24.6642" ry="24.6642" style="fill:#FFFFAA;fill-rule:evenodd;stroke:#FFFFAA;stroke-width:1px;stroke-linecap:butt;stroke-linejoin:miter;stroke-opacity:1"/>
<ellipse cx="313.282" cy="364.463" rx="24.6642" ry="24.6642" style="fill:#FFFFAA;fill-rule:evenodd;stroke:#FFFFAA;stroke-width:1px;stroke-linecap:butt;stroke-linejoin:miter;stroke-opacity:1"/>
<ellipse cx="420.081" cy="179.481" rx="24.6642" ry="24.6642" style="fill:#FFFFAA;fill-rule:evenodd;stroke:#FFFFAA;stroke-width:1px;stroke-linecap:butt;stroke-linejoin:miter;stroke-opacity:1"/>
<ellipse cx="526.88" cy="240.922" rx="24.6642" ry="24.6642" style="fill:#FFFFAA;fill-rule:evenodd;stroke:#FFFFAA;stroke-width:1px;stroke-linecap:butt;stroke-linejoin:miter;stroke-opacity:1"/>
<ellipse cx="633.68" cy="179.261" rx="24.6642" ry="24.6642" style="fill:#FFFFAA;fill-rule:evenodd;stroke:#FFFFAA;stroke-width:1px;stroke-linecap:butt;stroke-linejoin:miter;stroke-opacity:1"/>
<ellipse cx="526.88" cy="364.463" rx="24.6642" ry="24.6642" style="fill:#FFFFAA;fill-rule:evenodd;stroke:#FFFFAA;stroke-width:1px;stroke-linecap:butt;stroke-linejoin:miter;stroke-opacity:1"/>
<ellipse cx="977.443" cy="303.919" rx="43.0436" ry="30.0379" style="fill:#FFCC99;fill-rule:evenodd;stroke:#FFCC99;stroke-width:1px;stroke-linecap:butt;stroke-linejoin:miter;stroke-opacity:1"/>
<ellipse cx="1115.18" cy="261.123" rx="24.6642" ry="24.6642" style="fill:#FFCC99;fill-rule:evenodd;stroke:#FFCC99;stroke-width:1px;stroke-linecap:butt;stroke-linejoin:miter;stroke-opacity:1"/>
<ellipse cx="1143.26" cy="141.043" rx="24.6642" ry="24.6642" style="fill:#FFCC99;fill-rule:evenodd;stroke:#FFCC99;stroke-width:1px;stroke-linecap:butt;stroke-linejoin:miter;stroke-opacity:1"/>
<ellipse cx="1261.3" cy="105.326" rx="24.6642" ry="24.6642" style="fill:#FFCC99;fill-rule:evenodd;stroke:#FFCC99;stroke-width:1px;stroke-linecap:butt;stroke-linejoin:miter;stroke-opacity:1"/>
<ellipse cx="1351.25" cy="189.69" rx="24.6642" ry="24.6642" style="fill:#FFCC99;fill-rule:evenodd;stroke:#FFCC99;stroke-width:1px;stroke-linecap:butt;stroke-linejoin:miter;stroke-opacity:1"/>
<ellipse cx="1469.28" cy="153.974" rx="24.6642" ry="24.6642" style="fill:#FFCC99;fill-rule:evenodd;stroke:#FFCC99;stroke-width:1px;stroke-linecap:butt;stroke-linejoin:miter;stroke-opacity:1"/>
<ellipse cx="1559.23" cy="238.338" rx="24.6642" ry="24.6642" style="fill:#FFCC99;fill-rule:evenodd;stroke:#FFCC99;stroke-width:1px;stroke-linecap:butt;stroke-linejoin:miter;stroke-opacity:1"/>
<ellipse cx="1677.27" cy="202.621" rx="24.6642" ry="24.6642" style="fill:#FFCC99;fill-rule:evenodd;stroke:#FFCC99;stroke-width:1px;stroke-linecap:butt;stroke-linejoin:miter;stroke-opacity:1"/>
<ellipse cx="1531.15" cy="358.418" rx="24.6642" ry="24.6642" style="fill:#FFCC99;fill-rule:evenodd;stroke:#FFCC99;stroke-width:1px;stroke-linecap:butt;stroke-linejoin:miter;stroke-opacity:1"/>
<ellipse cx="1413.11" cy="394.134" rx="24.6642" ry="24.6642" style="fill:#FFCC99;fill-rule:evenodd;stroke:#FFCC99;stroke-width:1px;stroke-linecap:butt;stroke-linejoin:miter;stroke-opacity:1"/>
<ellipse cx="1323.16" cy="309.771" rx="24.6642" ry="24.6642" style="fill:#FFCC99;fill-rule:evenodd;stroke:#FFCC99;stroke-width:1px;stroke-linecap:butt;stroke-linejoin:miter;stroke-opacity:1"/>
<ellipse cx="1205.12" cy="345.487" rx="24.6642" ry="24.6642" style="fill:#FFCC99;fill-rule:evenodd;stroke:#FFCC99;stroke-width:1px;stroke-linecap:butt;stroke-linejoin:miter;stroke-opacity:1"/>
<ellipse cx="2381.55" cy="311.391" rx="24.6642" ry="24.6642" style="fill:#FFFFAA;fill-rule:evenodd;stroke:#FFFFAA;stroke-width:1px;stroke-linecap:butt;stroke-linejoin:miter;stroke-opacity:1"/>
<ellipse cx="2488.35" cy="249.73" rx="24.6642" ry="24.6642" style="fill:#FFFFAA;fill-rule:evenodd;stroke:#FFFFAA;stroke-width:1px;stroke-linecap:butt;stroke-linejoin:miter;stroke-opacity:1"/>
<ellipse cx="2595.15" cy="311.611" rx="24.6642" ry="24.6642" style="fill:#FFFFAA;fill-rule:evenodd;stroke:#FFFFAA;stroke-width:1px;stroke-linecap:butt;stroke-linejoin:miter;stroke-opacity:1"/>
<ellipse cx="2501.13" cy="126.629" rx="36.4584" ry="24.6642" style="fill:#FFFFAA;fill-rule:evenodd;stroke:#FFFFAA;stroke-width:1px;stroke-linecap:butt;stroke-linejoin:miter;stroke-opacity:1"/>
<ellipse cx="2911.01" cy="294.17" rx="24.6642" ry="24.6642" style="fill:#FFFFAA;fill-rule:evenodd;stroke:#FFFFAA;stroke-width:1px;stroke-linecap:butt;stroke-linejoin:miter;stroke-opacity:1"/>
<ellipse cx="3026.16" cy="250.023" rx="24.6642" ry="24.6642" style="fill:#FFFFAA;fill-rule:evenodd;stroke:#FFFFAA;stroke-width:1px;stroke-linecap:butt;stroke-linejoin:miter;stroke-opacity:1"/>
<ellipse cx="3045.5" cy="128.448" rx="24.6642" ry="24.6642" style="fill:#FFFFAA;fill-rule:evenodd;stroke:#FFFFAA;stroke-width:1px;stroke-linecap:butt;stroke-linejoin:miter;stroke-opacity:1"/>
<ellipse cx="3121.97" cy="343.247" rx="24.6642" ry="42.0531" style="fill:#FFCC99;fill-rule:evenodd;stroke:#FFCC99;stroke-width:1px;stroke-linecap:butt;stroke-linejoin:miter;stroke-opacity:1"/>
<ellipse cx="3237.12" cy="283.524" rx="24.6642" ry="24.6642" style="fill:#FFCC99;fill-rule:evenodd;stroke:#FFCC99;stroke-width:1px;stroke-linecap:butt;stroke-linejoin:miter;stroke-opacity:1"/>
<ellipse cx="3256.46" cy="161.729" rx="24.6642" ry="24.6642" style="fill:#FFCC99;fill-rule:evenodd;stroke:#FFCC99;stroke-width:1px;stroke-linecap:butt;stroke-linejoin:miter;stroke-opacity:1"/>
<ellipse cx="3371.61" cy="117.582" rx="24.6642" ry="24.6642" style="fill:#FFCC99;fill-rule:evenodd;stroke:#FFCC99;stroke-width:1px;stroke-linecap:butt;stroke-linejoin:miter;stroke-opacity:1"/>
<ellipse cx="3467.41" cy="195.23" rx="24.6642" ry="24.6642" style="fill:#FFCC99;fill-rule:evenodd;stroke:#FFCC99;stroke-width:1px;stroke-linecap:butt;stroke-linejoin:miter;stroke-opacity:1"/>
<ellipse cx="3582.56" cy="151.084" rx="24.6642" ry="24.6642" style="fill:#FFCC99;fill-rule:evenodd;stroke:#FFCC99;stroke-width:1px;stroke-linecap:butt;stroke-linejoin:miter;stroke-opacity:1"/>
<ellipse cx="3678.37" cy="228.732" rx="24.6642" ry="24.6642" style="fill:#FFCC99;fill-rule:evenodd;stroke:#FFCC99;stroke-width:1px;stroke-linecap:butt;stroke-linejoin:miter;stroke-opacity:1"/>
<ellipse cx="3793.52" cy="184.585" rx="24.6642" ry="24.6642" style="fill:#FFCC99;fill-rule:evenodd;stroke:#FFCC99;stroke-width:1px;stroke-linecap:butt;stroke-linejoin:miter;stroke-opacity:1"/>
<ellipse cx="3659.03" cy="350.527" rx="24.6642" ry="24.6642" style="fill:#FFCC99;fill-rule:evenodd;stroke:#FFCC99;stroke-width:1px;stroke-linecap:butt;stroke-linejoin:miter;stroke-opacity:1"/>
<ellipse cx="3543.88" cy="394.674" rx="24.6642" ry="24.6642" style="fill:#FFCC99;fill-rule:evenodd;stroke:#FFCC99;stroke-width:1px;stroke-linecap:butt;stroke-linejoin:miter;stroke-opacity:1"/>
<ellipse cx="3448.07" cy="317.025" rx="24.6642" ry="24.6642" style="fill:#FFCC99;fill-rule:evenodd;stroke:#FFCC99;stroke-width:1px;stroke-linecap:butt;stroke-linejoin:miter;stroke-opacity:1"/>
<ellipse cx="3332.92" cy="361.172" rx="24.6642" ry="24.6642" style="fill:#FFCC99;fill-rule:evenodd;stroke:#FFCC99;stroke-width:1px;stroke-linecap:butt;stroke-linejoin:miter;stroke-opacity:1"/>
<path class="bond-0" d="M 206.482,179.261 L 313.282,240.922" style="fill:none;fill-rule:evenodd;stroke:#000000;stroke-width:2.0px;stroke-linecap:butt;stroke-linejoin:miter;stroke-opacity:1"/>
<path class="bond-1" d="M 300.95,240.922 L 300.95,293.881" style="fill:none;fill-rule:evenodd;stroke:#000000;stroke-width:2.0px;stroke-linecap:butt;stroke-linejoin:miter;stroke-opacity:1"/>
<path class="bond-1" d="M 300.95,293.881 L 300.95,346.84" style="fill:none;fill-rule:evenodd;stroke:#FF0000;stroke-width:2.0px;stroke-linecap:butt;stroke-linejoin:miter;stroke-opacity:1"/>
<path class="bond-1" d="M 325.614,240.922 L 325.614,293.881" style="fill:none;fill-rule:evenodd;stroke:#000000;stroke-width:2.0px;stroke-linecap:butt;stroke-linejoin:miter;stroke-opacity:1"/>
<path class="bond-1" d="M 325.614,293.881 L 325.614,346.84" style="fill:none;fill-rule:evenodd;stroke:#FF0000;stroke-width:2.0px;stroke-linecap:butt;stroke-linejoin:miter;stroke-opacity:1"/>
<path class="bond-2" d="M 313.282,240.922 L 358.64,214.734" style="fill:none;fill-rule:evenodd;stroke:#000000;stroke-width:2.0px;stroke-linecap:butt;stroke-linejoin:miter;stroke-opacity:1"/>
<path class="bond-2" d="M 358.64,214.734 L 403.998,188.547" style="fill:none;fill-rule:evenodd;stroke:#FF0000;stroke-width:2.0px;stroke-linecap:butt;stroke-linejoin:miter;stroke-opacity:1"/>
<path class="bond-3" d="M 436.164,188.547 L 481.522,214.734" style="fill:none;fill-rule:evenodd;stroke:#FF0000;stroke-width:2.0px;stroke-linecap:butt;stroke-linejoin:miter;stroke-opacity:1"/>
<path class="bond-3" d="M 481.522,214.734 L 526.88,240.922" style="fill:none;fill-rule:evenodd;stroke:#000000;stroke-width:2.0px;stroke-linecap:butt;stroke-linejoin:miter;stroke-opacity:1"/>
<path class="bond-4" d="M 526.88,240.922 L 633.68,179.261" style="fill:none;fill-rule:evenodd;stroke:#000000;stroke-width:2.0px;stroke-linecap:butt;stroke-linejoin:miter;stroke-opacity:1"/>
<path class="bond-5" d="M 514.548,240.922 L 514.548,293.881" style="fill:none;fill-rule:evenodd;stroke:#000000;stroke-width:2.0px;stroke-linecap:butt;stroke-linejoin:miter;stroke-opacity:1"/>
<path class="bond-5" d="M 514.548,293.881 L 514.548,346.84" style="fill:none;fill-rule:evenodd;stroke:#FF0000;stroke-width:2.0px;stroke-linecap:butt;stroke-linejoin:miter;stroke-opacity:1"/>
<path class="bond-5" d="M 539.213,240.922 L 539.213,293.881" style="fill:none;fill-rule:evenodd;stroke:#000000;stroke-width:2.0px;stroke-linecap:butt;stroke-linejoin:miter;stroke-opacity:1"/>
<path class="bond-5" d="M 539.213,293.881 L 539.213,346.84" style="fill:none;fill-rule:evenodd;stroke:#FF0000;stroke-width:2.0px;stroke-linecap:butt;stroke-linejoin:miter;stroke-opacity:1"/>
<path class="bond-6" d="M 1010.96,292.657 L 1063.07,276.89" style="fill:none;fill-rule:evenodd;stroke:#0000FF;stroke-width:2.0px;stroke-linecap:butt;stroke-linejoin:miter;stroke-opacity:1"/>
<path class="bond-6" d="M 1063.07,276.89 L 1115.18,261.123" style="fill:none;fill-rule:evenodd;stroke:#000000;stroke-width:2.0px;stroke-linecap:butt;stroke-linejoin:miter;stroke-opacity:1"/>
<path class="bond-7" d="M 1115.18,261.123 L 1143.26,141.043" style="fill:none;fill-rule:evenodd;stroke:#000000;stroke-width:2.0px;stroke-linecap:butt;stroke-linejoin:miter;stroke-opacity:1"/>
<path class="bond-7" d="M 1143.4,248.728 L 1163.07,164.672" style="fill:none;fill-rule:evenodd;stroke:#000000;stroke-width:2.0px;stroke-linecap:butt;stroke-linejoin:miter;stroke-opacity:1;stroke-dasharray:6,6"/>
<path class="bond-17" d="M 1115.18,261.123 L 1205.12,345.487" style="fill:none;fill-rule:evenodd;stroke:#000000;stroke-width:2.0px;stroke-linecap:butt;stroke-linejoin:miter;stroke-opacity:1"/>
<path class="bond-17" d="M 1145.54,255.788 L 1208.51,314.843" style="fill:none;fill-rule:evenodd;stroke:#000000;stroke-width:2.0px;stroke-linecap:butt;stroke-linejoin:miter;stroke-opacity:1;stroke-dasharray:6,6"/>
<path class="bond-8" d="M 1143.26,141.043 L 1261.3,105.326" style="fill:none;fill-rule:evenodd;stroke:#000000;stroke-width:2.0px;stroke-linecap:butt;stroke-linejoin:miter;stroke-opacity:1"/>
<path class="bond-8" d="M 1168.11,159.293 L 1250.74,134.291" style="fill:none;fill-rule:evenodd;stroke:#000000;stroke-width:2.0px;stroke-linecap:butt;stroke-linejoin:miter;stroke-opacity:1;stroke-dasharray:6,6"/>
<path class="bond-9" d="M 1261.3,105.326 L 1351.25,189.69" style="fill:none;fill-rule:evenodd;stroke:#000000;stroke-width:2.0px;stroke-linecap:butt;stroke-linejoin:miter;stroke-opacity:1"/>
<path class="bond-9" d="M 1257.92,135.971 L 1320.88,195.026" style="fill:none;fill-rule:evenodd;stroke:#000000;stroke-width:2.0px;stroke-linecap:butt;stroke-linejoin:miter;stroke-opacity:1;stroke-dasharray:6,6"/>
<path class="bond-10" d="M 1351.25,189.69 L 1403.35,173.923" style="fill:none;fill-rule:evenodd;stroke:#000000;stroke-width:2.0px;stroke-linecap:butt;stroke-linejoin:miter;stroke-opacity:1"/>
<path class="bond-10" d="M 1403.35,173.923 L 1455.46,158.157" style="fill:none;fill-rule:evenodd;stroke:#0000FF;stroke-width:2.0px;stroke-linecap:butt;stroke-linejoin:miter;stroke-opacity:1"/>
<path class="bond-10" d="M 1374.02,208.567 L 1410.5,197.531" style="fill:none;fill-rule:evenodd;stroke:#000000;stroke-width:2.0px;stroke-linecap:butt;stroke-linejoin:miter;stroke-opacity:1;stroke-dasharray:6,6"/>
<path class="bond-10" d="M 1410.5,197.531 L 1446.97,186.494" style="fill:none;fill-rule:evenodd;stroke:#0000FF;stroke-width:2.0px;stroke-linecap:butt;stroke-linejoin:miter;stroke-opacity:1;stroke-dasharray:6,6"/>
<path class="bond-18" d="M 1351.25,189.69 L 1323.16,309.771" style="fill:none;fill-rule:evenodd;stroke:#000000;stroke-width:2.0px;stroke-linecap:butt;stroke-linejoin:miter;stroke-opacity:1"/>
<path class="bond-18" d="M 1323.02,202.085 L 1303.36,286.141" style="fill:none;fill-rule:evenodd;stroke:#000000;stroke-width:2.0px;stroke-linecap:butt;stroke-linejoin:miter;stroke-opacity:1;stroke-dasharray:6,6"/>
<path class="bond-11" d="M 1483.11,166.939 L 1521.17,202.638" style="fill:none;fill-rule:evenodd;stroke:#0000FF;stroke-width:2.0px;stroke-linecap:butt;stroke-linejoin:miter;stroke-opacity:1"/>
<path class="bond-11" d="M 1521.17,202.638 L 1559.23,238.338" style="fill:none;fill-rule:evenodd;stroke:#000000;stroke-width:2.0px;stroke-linecap:butt;stroke-linejoin:miter;stroke-opacity:1"/>
<path class="bond-11" d="M 1477.65,195.638 L 1504.3,220.628" style="fill:none;fill-rule:evenodd;stroke:#0000FF;stroke-width:2.0px;stroke-linecap:butt;stroke-linejoin:miter;stroke-opacity:1;stroke-dasharray:6,6"/>
<path class="bond-11" d="M 1504.3,220.628 L 1530.94,245.618" style="fill:none;fill-rule:evenodd;stroke:#000000;stroke-width:2.0px;stroke-linecap:butt;stroke-linejoin:miter;stroke-opacity:1;stroke-dasharray:6,6"/>
<path class="bond-12" d="M 1559.23,238.338 L 1677.27,202.621" style="fill:none;fill-rule:evenodd;stroke:#000000;stroke-width:2.0px;stroke-linecap:butt;stroke-linejoin:miter;stroke-opacity:1"/>
<path class="bond-13" d="M 1559.23,238.338 L 1531.15,358.418" style="fill:none;fill-rule:evenodd;stroke:#000000;stroke-width:2.0px;stroke-linecap:butt;stroke-linejoin:miter;stroke-opacity:1"/>
<path class="bond-13" d="M 1531,250.733 L 1511.34,334.789" style="fill:none;fill-rule:evenodd;stroke:#000000;stroke-width:2.0px;stroke-linecap:butt;stroke-linejoin:miter;stroke-opacity:1;stroke-dasharray:6,6"/>
<path class="bond-14" d="M 1531.15,358.418 L 1413.11,394.134" style="fill:none;fill-rule:evenodd;stroke:#000000;stroke-width:2.0px;stroke-linecap:butt;stroke-linejoin:miter;stroke-opacity:1"/>
<path class="bond-14" d="M 1506.3,340.168 L 1423.67,365.17" style="fill:none;fill-rule:evenodd;stroke:#000000;stroke-width:2.0px;stroke-linecap:butt;stroke-linejoin:miter;stroke-opacity:1;stroke-dasharray:6,6"/>
<path class="bond-15" d="M 1413.11,394.134 L 1323.16,309.771" style="fill:none;fill-rule:evenodd;stroke:#000000;stroke-width:2.0px;stroke-linecap:butt;stroke-linejoin:miter;stroke-opacity:1"/>
<path class="bond-15" d="M 1416.49,363.49 L 1353.53,304.435" style="fill:none;fill-rule:evenodd;stroke:#000000;stroke-width:2.0px;stroke-linecap:butt;stroke-linejoin:miter;stroke-opacity:1;stroke-dasharray:6,6"/>
<path class="bond-16" d="M 1323.16,309.771 L 1205.12,345.487" style="fill:none;fill-rule:evenodd;stroke:#000000;stroke-width:2.0px;stroke-linecap:butt;stroke-linejoin:miter;stroke-opacity:1"/>
<path class="bond-16" d="M 1298.31,291.521 L 1215.69,316.522" style="fill:none;fill-rule:evenodd;stroke:#000000;stroke-width:2.0px;stroke-linecap:butt;stroke-linejoin:miter;stroke-opacity:1;stroke-dasharray:6,6"/>
<path class="bond-19" d="M 2381.55,311.391 L 2488.35,249.73" style="fill:none;fill-rule:evenodd;stroke:#000000;stroke-width:2.0px;stroke-linecap:butt;stroke-linejoin:miter;stroke-opacity:1"/>
<path class="bond-20" d="M 2482.18,260.41 L 2527.54,286.598" style="fill:none;fill-rule:evenodd;stroke:#000000;stroke-width:2.0px;stroke-linecap:butt;stroke-linejoin:miter;stroke-opacity:1"/>
<path class="bond-20" d="M 2527.54,286.598 L 2572.9,312.785" style="fill:none;fill-rule:evenodd;stroke:#FF0000;stroke-width:2.0px;stroke-linecap:butt;stroke-linejoin:miter;stroke-opacity:1"/>
<path class="bond-20" d="M 2494.51,239.051 L 2539.87,265.238" style="fill:none;fill-rule:evenodd;stroke:#000000;stroke-width:2.0px;stroke-linecap:butt;stroke-linejoin:miter;stroke-opacity:1"/>
<path class="bond-20" d="M 2539.87,265.238 L 2585.23,291.426" style="fill:none;fill-rule:evenodd;stroke:#FF0000;stroke-width:2.0px;stroke-linecap:butt;stroke-linejoin:miter;stroke-opacity:1"/>
<path class="bond-21" d="M 2488.35,249.73 L 2488.35,196.991" style="fill:none;fill-rule:evenodd;stroke:#000000;stroke-width:2.0px;stroke-linecap:butt;stroke-linejoin:miter;stroke-opacity:1"/>
<path class="bond-21" d="M 2488.35,196.991 L 2488.35,144.252" style="fill:none;fill-rule:evenodd;stroke:#FF0000;stroke-width:2.0px;stroke-linecap:butt;stroke-linejoin:miter;stroke-opacity:1"/>
<path class="bond-22" d="M 2911.01,294.17 L 3026.16,250.023" style="fill:none;fill-rule:evenodd;stroke:#000000;stroke-width:2.0px;stroke-linecap:butt;stroke-linejoin:miter;stroke-opacity:1"/>
<path class="bond-23" d="M 3038.34,251.957 L 3046.6,199.981" style="fill:none;fill-rule:evenodd;stroke:#000000;stroke-width:2.0px;stroke-linecap:butt;stroke-linejoin:miter;stroke-opacity:1"/>
<path class="bond-23" d="M 3046.6,199.981 L 3054.85,148.005" style="fill:none;fill-rule:evenodd;stroke:#FF0000;stroke-width:2.0px;stroke-linecap:butt;stroke-linejoin:miter;stroke-opacity:1"/>
<path class="bond-23" d="M 3013.98,248.089 L 3022.24,196.113" style="fill:none;fill-rule:evenodd;stroke:#000000;stroke-width:2.0px;stroke-linecap:butt;stroke-linejoin:miter;stroke-opacity:1"/>
<path class="bond-23" d="M 3022.24,196.113 L 3030.49,144.137" style="fill:none;fill-rule:evenodd;stroke:#FF0000;stroke-width:2.0px;stroke-linecap:butt;stroke-linejoin:miter;stroke-opacity:1"/>
<path class="bond-24" d="M 3026.16,250.023 L 3067.15,283.246" style="fill:none;fill-rule:evenodd;stroke:#000000;stroke-width:2.0px;stroke-linecap:butt;stroke-linejoin:miter;stroke-opacity:1"/>
<path class="bond-24" d="M 3067.15,283.246 L 3108.15,316.468" style="fill:none;fill-rule:evenodd;stroke:#0000FF;stroke-width:2.0px;stroke-linecap:butt;stroke-linejoin:miter;stroke-opacity:1"/>
<path class="bond-25" d="M 3135.79,322.372 L 3186.45,302.948" style="fill:none;fill-rule:evenodd;stroke:#0000FF;stroke-width:2.0px;stroke-linecap:butt;stroke-linejoin:miter;stroke-opacity:1"/>
<path class="bond-25" d="M 3186.45,302.948 L 3237.12,283.524" style="fill:none;fill-rule:evenodd;stroke:#000000;stroke-width:2.0px;stroke-linecap:butt;stroke-linejoin:miter;stroke-opacity:1"/>
<path class="bond-26" d="M 3237.12,283.524 L 3256.46,161.729" style="fill:none;fill-rule:evenodd;stroke:#000000;stroke-width:2.0px;stroke-linecap:butt;stroke-linejoin:miter;stroke-opacity:1"/>
<path class="bond-26" d="M 3264.38,269.123 L 3277.92,183.867" style="fill:none;fill-rule:evenodd;stroke:#000000;stroke-width:2.0px;stroke-linecap:butt;stroke-linejoin:miter;stroke-opacity:1;stroke-dasharray:6,6"/>
<path class="bond-36" d="M 3237.12,283.524 L 3332.92,361.172" style="fill:none;fill-rule:evenodd;stroke:#000000;stroke-width:2.0px;stroke-linecap:butt;stroke-linejoin:miter;stroke-opacity:1"/>
<path class="bond-36" d="M 3267.02,276.01 L 3334.08,330.364" style="fill:none;fill-rule:evenodd;stroke:#000000;stroke-width:2.0px;stroke-linecap:butt;stroke-linejoin:miter;stroke-opacity:1;stroke-dasharray:6,6"/>
<path class="bond-27" d="M 3256.46,161.729 L 3371.61,117.582" style="fill:none;fill-rule:evenodd;stroke:#000000;stroke-width:2.0px;stroke-linecap:butt;stroke-linejoin:miter;stroke-opacity:1"/>
<path class="bond-27" d="M 3282.56,178.137 L 3363.16,147.234" style="fill:none;fill-rule:evenodd;stroke:#000000;stroke-width:2.0px;stroke-linecap:butt;stroke-linejoin:miter;stroke-opacity:1;stroke-dasharray:6,6"/>
<path class="bond-28" d="M 3371.61,117.582 L 3467.41,195.23" style="fill:none;fill-rule:evenodd;stroke:#000000;stroke-width:2.0px;stroke-linecap:butt;stroke-linejoin:miter;stroke-opacity:1"/>
<path class="bond-28" d="M 3370.45,148.391 L 3437.51,202.745" style="fill:none;fill-rule:evenodd;stroke:#000000;stroke-width:2.0px;stroke-linecap:butt;stroke-linejoin:miter;stroke-opacity:1;stroke-dasharray:6,6"/>
<path class="bond-29" d="M 3467.41,195.23 L 3518.08,175.807" style="fill:none;fill-rule:evenodd;stroke:#000000;stroke-width:2.0px;stroke-linecap:butt;stroke-linejoin:miter;stroke-opacity:1"/>
<path class="bond-29" d="M 3518.08,175.807 L 3568.74,156.383" style="fill:none;fill-rule:evenodd;stroke:#0000FF;stroke-width:2.0px;stroke-linecap:butt;stroke-linejoin:miter;stroke-opacity:1"/>
<path class="bond-29" d="M 3491.44,212.433 L 3526.91,198.837" style="fill:none;fill-rule:evenodd;stroke:#000000;stroke-width:2.0px;stroke-linecap:butt;stroke-linejoin:miter;stroke-opacity:1;stroke-dasharray:6,6"/>
<path class="bond-29" d="M 3526.91,198.837 L 3562.37,185.24" style="fill:none;fill-rule:evenodd;stroke:#0000FF;stroke-width:2.0px;stroke-linecap:butt;stroke-linejoin:miter;stroke-opacity:1;stroke-dasharray:6,6"/>
<path class="bond-37" d="M 3467.41,195.23 L 3448.07,317.025" style="fill:none;fill-rule:evenodd;stroke:#000000;stroke-width:2.0px;stroke-linecap:butt;stroke-linejoin:miter;stroke-opacity:1"/>
<path class="bond-37" d="M 3440.15,209.631 L 3426.61,294.888" style="fill:none;fill-rule:evenodd;stroke:#000000;stroke-width:2.0px;stroke-linecap:butt;stroke-linejoin:miter;stroke-opacity:1;stroke-dasharray:6,6"/>
<path class="bond-30" d="M 3596.39,162.287 L 3637.38,195.509" style="fill:none;fill-rule:evenodd;stroke:#0000FF;stroke-width:2.0px;stroke-linecap:butt;stroke-linejoin:miter;stroke-opacity:1"/>
<path class="bond-30" d="M 3637.38,195.509 L 3678.37,228.732" style="fill:none;fill-rule:evenodd;stroke:#000000;stroke-width:2.0px;stroke-linecap:butt;stroke-linejoin:miter;stroke-opacity:1"/>
<path class="bond-30" d="M 3593.15,191.415 L 3621.85,214.67" style="fill:none;fill-rule:evenodd;stroke:#0000FF;stroke-width:2.0px;stroke-linecap:butt;stroke-linejoin:miter;stroke-opacity:1;stroke-dasharray:6,6"/>
<path class="bond-30" d="M 3621.85,214.67 L 3650.54,237.926" style="fill:none;fill-rule:evenodd;stroke:#000000;stroke-width:2.0px;stroke-linecap:butt;stroke-linejoin:miter;stroke-opacity:1;stroke-dasharray:6,6"/>
<path class="bond-31" d="M 3678.37,228.732 L 3793.52,184.585" style="fill:none;fill-rule:evenodd;stroke:#000000;stroke-width:2.0px;stroke-linecap:butt;stroke-linejoin:miter;stroke-opacity:1"/>
<path class="bond-32" d="M 3678.37,228.732 L 3659.03,350.527" style="fill:none;fill-rule:evenodd;stroke:#000000;stroke-width:2.0px;stroke-linecap:butt;stroke-linejoin:miter;stroke-opacity:1"/>
<path class="bond-32" d="M 3651.11,243.132 L 3637.57,328.389" style="fill:none;fill-rule:evenodd;stroke:#000000;stroke-width:2.0px;stroke-linecap:butt;stroke-linejoin:miter;stroke-opacity:1;stroke-dasharray:6,6"/>
<path class="bond-33" d="M 3659.03,350.527 L 3543.88,394.674" style="fill:none;fill-rule:evenodd;stroke:#000000;stroke-width:2.0px;stroke-linecap:butt;stroke-linejoin:miter;stroke-opacity:1"/>
<path class="bond-33" d="M 3632.93,334.119 L 3552.32,365.022" style="fill:none;fill-rule:evenodd;stroke:#000000;stroke-width:2.0px;stroke-linecap:butt;stroke-linejoin:miter;stroke-opacity:1;stroke-dasharray:6,6"/>
<path class="bond-34" d="M 3543.88,394.674 L 3448.07,317.025" style="fill:none;fill-rule:evenodd;stroke:#000000;stroke-width:2.0px;stroke-linecap:butt;stroke-linejoin:miter;stroke-opacity:1"/>
<path class="bond-34" d="M 3545.04,363.865 L 3477.97,309.511" style="fill:none;fill-rule:evenodd;stroke:#000000;stroke-width:2.0px;stroke-linecap:butt;stroke-linejoin:miter;stroke-opacity:1;stroke-dasharray:6,6"/>
<path class="bond-35" d="M 3448.07,317.025 L 3332.92,361.172" style="fill:none;fill-rule:evenodd;stroke:#000000;stroke-width:2.0px;stroke-linecap:butt;stroke-linejoin:miter;stroke-opacity:1"/>
<path class="bond-35" d="M 3421.97,300.618 L 3341.37,331.521" style="fill:none;fill-rule:evenodd;stroke:#000000;stroke-width:2.0px;stroke-linecap:butt;stroke-linejoin:miter;stroke-opacity:1;stroke-dasharray:6,6"/>
<path class="atom-2" d="M 300.282 364.323 Q 300.282 357.523, 303.642 353.723 Q 307.002 349.923, 313.282 349.923 Q 319.562 349.923, 322.922 353.723 Q 326.282 357.523, 326.282 364.323 Q 326.282 371.203, 322.882 375.123 Q 319.482 379.003, 313.282 379.003 Q 307.042 379.003, 303.642 375.123 Q 300.282 371.243, 300.282 364.323 M 313.282 375.803 Q 317.602 375.803, 319.922 372.923 Q 322.282 370.003, 322.282 364.323 Q 322.282 358.763, 319.922 355.963 Q 317.602 353.123, 313.282 353.123 Q 308.962 353.123, 306.602 355.923 Q 304.282 358.723, 304.282 364.323 Q 304.282 370.043, 306.602 372.923 Q 308.962 375.803, 313.282 375.803 " fill="#FF0000"/>
<path class="atom-3" d="M 407.081 179.341 Q 407.081 172.541, 410.441 168.741 Q 413.801 164.941, 420.081 164.941 Q 426.361 164.941, 429.721 168.741 Q 433.081 172.541, 433.081 179.341 Q 433.081 186.221, 429.681 190.141 Q 426.281 194.021, 420.081 194.021 Q 413.841 194.021, 410.441 190.141 Q 407.081 186.261, 407.081 179.341 M 420.081 190.821 Q 424.401 190.821, 426.721 187.941 Q 429.081 185.021, 429.081 179.341 Q 429.081 173.781, 426.721 170.981 Q 424.401 168.141, 420.081 168.141 Q 415.761 168.141, 413.401 170.941 Q 411.081 173.741, 411.081 179.341 Q 411.081 185.061, 413.401 187.941 Q 415.761 190.821, 420.081 190.821 " fill="#FF0000"/>
<path class="atom-6" d="M 513.88 364.323 Q 513.88 357.523, 517.24 353.723 Q 520.6 349.923, 526.88 349.923 Q 533.16 349.923, 536.52 353.723 Q 539.88 357.523, 539.88 364.323 Q 539.88 371.203, 536.48 375.123 Q 533.08 379.003, 526.88 379.003 Q 520.64 379.003, 517.24 375.123 Q 513.88 371.243, 513.88 364.323 M 526.88 375.803 Q 531.2 375.803, 533.52 372.923 Q 535.88 370.003, 535.88 364.323 Q 535.88 358.763, 533.52 355.963 Q 531.2 353.123, 526.88 353.123 Q 522.56 353.123, 520.2 355.923 Q 517.88 358.723, 517.88 364.323 Q 517.88 370.043, 520.2 372.923 Q 522.56 375.803, 526.88 375.803 " fill="#FF0000"/>
<path class="atom-7" d="M 947.007 282.679 L 950.847 282.679 L 950.847 294.719 L 965.327 294.719 L 965.327 282.679 L 969.167 282.679 L 969.167 310.999 L 965.327 310.999 L 965.327 297.919 L 950.847 297.919 L 950.847 310.999 L 947.007 310.999 L 947.007 282.679 " fill="#0000FF"/>
<path class="atom-7" d="M 970.54 310.006 Q 971.226 308.237, 972.863 307.26 Q 974.5 306.257, 976.77 306.257 Q 979.595 306.257, 981.179 307.788 Q 982.763 309.319, 982.763 312.039 Q 982.763 314.811, 980.704 317.398 Q 978.671 319.985, 974.447 323.047 L 983.08 323.047 L 983.08 325.159 L 970.487 325.159 L 970.487 323.391 Q 973.972 320.909, 976.031 319.061 Q 978.117 317.213, 979.12 315.55 Q 980.123 313.887, 980.123 312.171 Q 980.123 310.375, 979.225 309.372 Q 978.328 308.369, 976.77 308.369 Q 975.265 308.369, 974.262 308.976 Q 973.259 309.583, 972.546 310.93 L 970.54 310.006 " fill="#0000FF"/>
<path class="atom-7" d="M 990.88 282.679 L 1000.16 297.679 Q 1001.08 299.159, 1002.56 301.839 Q 1004.04 304.519, 1004.12 304.679 L 1004.12 282.679 L 1007.88 282.679 L 1007.88 310.999 L 1004 310.999 L 994.04 294.599 Q 992.88 292.679, 991.64 290.479 Q 990.44 288.279, 990.08 287.599 L 990.08 310.999 L 986.4 310.999 L 986.4 282.679 L 990.88 282.679 " fill="#0000FF"/>
<path class="atom-12" d="M 1463.02 139.814 L 1472.3 154.814 Q 1473.22 156.294, 1474.7 158.974 Q 1476.18 161.654, 1476.26 161.814 L 1476.26 139.814 L 1480.02 139.814 L 1480.02 168.134 L 1476.14 168.134 L 1466.18 151.734 Q 1465.02 149.814, 1463.78 147.614 Q 1462.58 145.414, 1462.22 144.734 L 1462.22 168.134 L 1458.54 168.134 L 1458.54 139.814 L 1463.02 139.814 " fill="#0000FF"/>
<path class="atom-21" d="M 2582.15 311.471 Q 2582.15 304.671, 2585.51 300.871 Q 2588.87 297.071, 2595.15 297.071 Q 2601.43 297.071, 2604.79 300.871 Q 2608.15 304.671, 2608.15 311.471 Q 2608.15 318.351, 2604.75 322.271 Q 2601.35 326.151, 2595.15 326.151 Q 2588.91 326.151, 2585.51 322.271 Q 2582.15 318.391, 2582.15 311.471 M 2595.15 322.951 Q 2599.47 322.951, 2601.79 320.071 Q 2604.15 317.151, 2604.15 311.471 Q 2604.15 305.911, 2601.79 303.111 Q 2599.47 300.271, 2595.15 300.271 Q 2590.83 300.271, 2588.47 303.071 Q 2586.15 305.871, 2586.15 311.471 Q 2586.15 317.191, 2588.47 320.071 Q 2590.83 322.951, 2595.15 322.951 " fill="#FF0000"/>
<path class="atom-22" d="M 2475.35 126.489 Q 2475.35 119.689, 2478.71 115.889 Q 2482.07 112.089, 2488.35 112.089 Q 2494.63 112.089, 2497.99 115.889 Q 2501.35 119.689, 2501.35 126.489 Q 2501.35 133.369, 2497.95 137.289 Q 2494.55 141.169, 2488.35 141.169 Q 2482.11 141.169, 2478.71 137.289 Q 2475.35 133.409, 2475.35 126.489 M 2488.35 137.969 Q 2492.67 137.969, 2494.99 135.089 Q 2497.35 132.169, 2497.35 126.489 Q 2497.35 120.929, 2494.99 118.129 Q 2492.67 115.289, 2488.35 115.289 Q 2484.03 115.289, 2481.67 118.089 Q 2479.35 120.889, 2479.35 126.489 Q 2479.35 132.209, 2481.67 135.089 Q 2484.03 137.969, 2488.35 137.969 " fill="#FF0000"/>
<path class="atom-22" d="M 2504.75 112.409 L 2508.59 112.409 L 2508.59 124.449 L 2523.07 124.449 L 2523.07 112.409 L 2526.91 112.409 L 2526.91 140.729 L 2523.07 140.729 L 2523.07 127.649 L 2508.59 127.649 L 2508.59 140.729 L 2504.75 140.729 L 2504.75 112.409 " fill="#FF0000"/>
<path class="atom-25" d="M 3032.5 128.308 Q 3032.5 121.508, 3035.86 117.708 Q 3039.22 113.908, 3045.5 113.908 Q 3051.78 113.908, 3055.14 117.708 Q 3058.5 121.508, 3058.5 128.308 Q 3058.5 135.188, 3055.1 139.108 Q 3051.7 142.988, 3045.5 142.988 Q 3039.26 142.988, 3035.86 139.108 Q 3032.5 135.228, 3032.5 128.308 M 3045.5 139.788 Q 3049.82 139.788, 3052.14 136.908 Q 3054.5 133.988, 3054.5 128.308 Q 3054.5 122.748, 3052.14 119.948 Q 3049.82 117.108, 3045.5 117.108 Q 3041.18 117.108, 3038.82 119.908 Q 3036.5 122.708, 3036.5 128.308 Q 3036.5 134.028, 3038.82 136.908 Q 3041.18 139.788, 3045.5 139.788 " fill="#FF0000"/>
<path class="atom-26" d="M 3115.71 313.511 L 3124.99 328.511 Q 3125.91 329.991, 3127.39 332.671 Q 3128.87 335.351, 3128.95 335.511 L 3128.95 313.511 L 3132.71 313.511 L 3132.71 341.831 L 3128.83 341.831 L 3118.87 325.431 Q 3117.71 323.511, 3116.47 321.311 Q 3115.27 319.111, 3114.91 318.431 L 3114.91 341.831 L 3111.23 341.831 L 3111.23 313.511 L 3115.71 313.511 " fill="#0000FF"/>
<path class="atom-26" d="M 3110.89 344.663 L 3114.73 344.663 L 3114.73 356.703 L 3129.21 356.703 L 3129.21 344.663 L 3133.05 344.663 L 3133.05 372.983 L 3129.21 372.983 L 3129.21 359.903 L 3114.73 359.903 L 3114.73 372.983 L 3110.89 372.983 L 3110.89 344.663 " fill="#0000FF"/>
<path class="atom-31" d="M 3576.3 136.924 L 3585.58 151.924 Q 3586.5 153.404, 3587.98 156.084 Q 3589.46 158.764, 3589.54 158.924 L 3589.54 136.924 L 3593.3 136.924 L 3593.3 165.244 L 3589.42 165.244 L 3579.46 148.844 Q 3578.3 146.924, 3577.06 144.724 Q 3575.86 142.524, 3575.5 141.844 L 3575.5 165.244 L 3571.82 165.244 L 3571.82 136.924 L 3576.3 136.924 " fill="#0000FF"/>
<path class="note" d="M 192.716 202.581 L 195.816 202.581 L 195.816 192.001 L 192.396 193.061 L 191.936 191.881 L 196.276 189.941 L 197.696 190.181 L 197.696 202.581 L 200.476 202.581 L 200.476 204.181 L 192.716 204.181 L 192.716 202.581 " fill="#000000"/>
<path class="note" d="M 308.552 216.048 Q 309.072 214.708, 310.312 213.968 Q 311.552 213.208, 313.272 213.208 Q 315.412 213.208, 316.612 214.368 Q 317.812 215.528, 317.812 217.588 Q 317.812 219.688, 316.252 221.648 Q 314.712 223.608, 311.512 225.928 L 318.052 225.928 L 318.052 227.528 L 308.512 227.528 L 308.512 226.188 Q 311.152 224.308, 312.712 222.908 Q 314.292 221.508, 315.052 220.248 Q 315.812 218.988, 315.812 217.688 Q 315.812 216.328, 315.132 215.568 Q 314.452 214.808, 313.272 214.808 Q 312.132 214.808, 311.372 215.268 Q 310.612 215.728, 310.072 216.748 L 308.552 216.048 " fill="#000000"/>
<path class="note" d="M 315.322 405.05 Q 316.702 405.45, 317.362 406.35 Q 318.042 407.23, 318.042 408.63 Q 318.042 409.83, 317.442 410.77 Q 316.842 411.69, 315.742 412.21 Q 314.642 412.71, 313.202 412.71 Q 311.682 412.71, 310.542 412.19 Q 309.422 411.65, 308.522 410.57 L 309.662 409.41 Q 310.542 410.37, 311.282 410.75 Q 312.022 411.11, 313.202 411.11 Q 314.482 411.11, 315.262 410.43 Q 316.042 409.73, 316.042 408.61 Q 316.042 407.17, 315.222 406.53 Q 314.422 405.87, 312.682 405.87 L 311.662 405.87 L 311.662 404.43 L 312.562 404.43 Q 314.102 404.41, 314.922 403.75 Q 315.742 403.07, 315.742 401.81 Q 315.742 400.89, 315.062 400.35 Q 314.382 399.79, 313.222 399.79 Q 312.042 399.79, 311.302 400.21 Q 310.582 400.63, 310.022 401.69 L 308.642 400.95 Q 309.142 399.77, 310.342 398.99 Q 311.542 398.19, 313.222 398.19 Q 315.302 398.19, 316.522 399.17 Q 317.742 400.15, 317.742 401.81 Q 317.742 402.95, 317.122 403.77 Q 316.502 404.59, 315.322 405.05 " fill="#000000"/>
<path class="note" d="M 406.861 143.714 L 409.961 143.714 L 409.961 133.134 L 406.541 134.194 L 406.081 133.014 L 410.421 131.074 L 411.841 131.314 L 411.841 143.714 L 414.621 143.714 L 414.621 145.314 L 406.861 145.314 L 406.861 143.714 " fill="#000000"/>
<path class="note" d="M 420.481 130.994 Q 423.001 130.994, 424.261 132.714 Q 425.541 134.414, 425.541 137.814 Q 425.541 141.574, 423.961 143.534 Q 422.401 145.474, 419.381 145.474 Q 418.501 145.474, 417.741 145.274 Q 417.001 145.074, 416.281 144.654 L 417.061 143.314 Q 418.101 143.874, 419.361 143.874 Q 421.361 143.874, 422.381 142.594 Q 423.401 141.294, 423.521 138.634 Q 422.801 139.294, 421.881 139.654 Q 420.981 139.994, 420.001 139.994 Q 418.761 139.994, 417.781 139.454 Q 416.801 138.914, 416.261 137.934 Q 415.721 136.954, 415.721 135.714 Q 415.721 134.334, 416.321 133.274 Q 416.941 132.194, 418.021 131.594 Q 419.101 130.994, 420.481 130.994 M 417.721 135.694 Q 417.721 136.954, 418.421 137.674 Q 419.121 138.394, 420.361 138.394 Q 421.221 138.394, 422.061 138.054 Q 422.921 137.694, 423.521 137.094 Q 423.441 134.754, 422.701 133.694 Q 421.961 132.634, 420.461 132.634 Q 419.701 132.634, 419.061 133.034 Q 418.441 133.434, 418.081 134.134 Q 417.721 134.834, 417.721 135.694 " fill="#000000"/>
<path class="note" d="M 514.24 205.335 L 517.34 205.335 L 517.34 194.755 L 513.92 195.815 L 513.46 194.635 L 517.8 192.695 L 519.22 192.935 L 519.22 205.335 L 522 205.335 L 522 206.935 L 514.24 206.935 L 514.24 205.335 " fill="#000000"/>
<path class="note" d="M 529.78 194.375 L 522.36 194.375 L 522.36 192.775 L 531.76 192.775 L 531.76 194.195 L 526.04 206.935 L 524.12 206.935 L 529.78 194.375 " fill="#000000"/>
<path class="note" d="M 610.053 167.021 L 613.153 167.021 L 613.153 156.441 L 609.733 157.501 L 609.273 156.321 L 613.613 154.381 L 615.033 154.621 L 615.033 167.021 L 617.813 167.021 L 617.813 168.621 L 610.053 168.621 L 610.053 167.021 " fill="#000000"/>
<path class="note" d="M 624.713 159.781 Q 625.953 159.781, 626.933 160.321 Q 627.913 160.861, 628.453 161.841 Q 628.993 162.821, 628.993 164.061 Q 628.993 165.441, 628.373 166.521 Q 627.773 167.581, 626.693 168.181 Q 625.613 168.781, 624.233 168.781 Q 621.713 168.781, 620.433 167.081 Q 619.173 165.361, 619.173 161.961 Q 619.173 158.201, 620.733 156.261 Q 622.313 154.301, 625.333 154.301 Q 626.213 154.301, 626.953 154.501 Q 627.713 154.701, 628.433 155.121 L 627.653 156.461 Q 626.613 155.901, 625.353 155.901 Q 623.353 155.901, 622.333 157.201 Q 621.313 158.481, 621.193 161.141 Q 621.913 160.481, 622.813 160.141 Q 623.733 159.781, 624.713 159.781 M 624.253 167.141 Q 625.013 167.141, 625.633 166.741 Q 626.273 166.341, 626.633 165.641 Q 626.993 164.941, 626.993 164.081 Q 626.993 162.821, 626.293 162.101 Q 625.593 161.381, 624.353 161.381 Q 623.493 161.381, 622.633 161.741 Q 621.793 162.081, 621.193 162.681 Q 621.273 165.021, 622.013 166.081 Q 622.753 167.141, 624.253 167.141 " fill="#000000"/>
<path class="note" d="M 513.5 410.91 L 516.6 410.91 L 516.6 400.33 L 513.18 401.39 L 512.72 400.21 L 517.06 398.27 L 518.48 398.51 L 518.48 410.91 L 521.26 410.91 L 521.26 412.51 L 513.5 412.51 L 513.5 410.91 " fill="#000000"/>
<path class="note" d="M 529.72 405.01 Q 531.02 405.57, 531.76 406.41 Q 532.5 407.23, 532.5 408.63 Q 532.5 409.83, 531.88 410.77 Q 531.26 411.69, 530.14 412.21 Q 529.04 412.71, 527.58 412.71 Q 525.22 412.71, 523.86 411.63 Q 522.5 410.53, 522.5 408.63 Q 522.5 407.47, 523.1 406.61 Q 523.7 405.73, 524.94 405.07 Q 524.02 404.55, 523.52 403.79 Q 523.02 403.01, 523.02 401.81 Q 523.02 400.15, 524.22 399.17 Q 525.44 398.19, 527.5 398.19 Q 529.56 398.19, 530.76 399.17 Q 531.98 400.15, 531.98 401.81 Q 531.98 402.85, 531.4 403.63 Q 530.84 404.39, 529.72 405.01 M 527.5 399.69 Q 526.32 399.69, 525.66 400.25 Q 525.02 400.81, 525.02 401.81 Q 525.02 402.55, 525.46 403.05 Q 525.9 403.53, 526.52 403.81 Q 527.16 404.09, 528.38 404.51 Q 529.24 403.91, 529.6 403.27 Q 529.98 402.63, 529.98 401.81 Q 529.98 400.81, 529.32 400.25 Q 528.68 399.69, 527.5 399.69 M 527.58 411.21 Q 528.9 411.21, 529.7 410.51 Q 530.5 409.79, 530.5 408.61 Q 530.5 407.85, 530.08 407.37 Q 529.66 406.89, 529.02 406.61 Q 528.4 406.33, 527.28 405.97 L 526.38 405.67 Q 525.38 406.27, 524.94 406.99 Q 524.5 407.69, 524.5 408.61 Q 524.5 409.79, 525.34 410.51 Q 526.18 411.21, 527.58 411.21 " fill="#000000"/>
<path class="note" d="M 991.527 339.086 L 993.227 339.086 L 993.227 340.686 L 991.527 340.686 L 991.527 343.946 L 989.647 343.946 L 989.647 340.686 L 982.327 340.686 L 982.327 339.426 L 988.527 329.786 L 991.527 329.786 L 991.527 339.086 M 984.647 339.086 L 989.647 339.086 L 989.647 331.066 L 984.647 339.086 " fill="#000000"/>
<path class="note" d="M 1100.53 245.282 Q 1101.77 245.282, 1102.79 245.822 Q 1103.81 246.342, 1104.39 247.342 Q 1104.97 248.322, 1104.97 249.662 Q 1104.97 251.122, 1104.25 252.182 Q 1103.55 253.222, 1102.39 253.762 Q 1101.23 254.302, 1099.91 254.302 Q 1098.61 254.302, 1097.41 253.822 Q 1096.21 253.342, 1095.39 252.422 L 1096.59 251.182 Q 1097.25 251.902, 1098.15 252.302 Q 1099.05 252.682, 1099.97 252.682 Q 1101.23 252.682, 1102.09 251.902 Q 1102.97 251.122, 1102.97 249.702 Q 1102.97 248.202, 1102.09 247.502 Q 1101.23 246.782, 1099.85 246.782 Q 1098.61 246.782, 1097.23 247.322 L 1096.13 246.802 L 1096.81 239.982 L 1104.09 239.982 L 1103.89 241.582 L 1098.45 241.582 L 1098.03 245.782 Q 1099.29 245.282, 1100.53 245.282 " fill="#000000"/>
<path class="note" d="M 1128.9 125.302 Q 1130.14 125.302, 1131.12 125.842 Q 1132.1 126.382, 1132.64 127.362 Q 1133.18 128.342, 1133.18 129.582 Q 1133.18 130.962, 1132.56 132.042 Q 1131.96 133.102, 1130.88 133.702 Q 1129.8 134.302, 1128.42 134.302 Q 1125.9 134.302, 1124.62 132.602 Q 1123.36 130.882, 1123.36 127.482 Q 1123.36 123.722, 1124.92 121.782 Q 1126.5 119.822, 1129.52 119.822 Q 1130.4 119.822, 1131.14 120.022 Q 1131.9 120.222, 1132.62 120.642 L 1131.84 121.982 Q 1130.8 121.422, 1129.54 121.422 Q 1127.54 121.422, 1126.52 122.722 Q 1125.5 124.002, 1125.38 126.662 Q 1126.1 126.002, 1127 125.662 Q 1127.92 125.302, 1128.9 125.302 M 1128.44 132.662 Q 1129.2 132.662, 1129.82 132.262 Q 1130.46 131.862, 1130.82 131.162 Q 1131.18 130.462, 1131.18 129.602 Q 1131.18 128.342, 1130.48 127.622 Q 1129.78 126.902, 1128.54 126.902 Q 1127.68 126.902, 1126.82 127.262 Q 1125.98 127.602, 1125.38 128.202 Q 1125.46 130.542, 1126.2 131.602 Q 1126.94 132.662, 1128.44 132.662 " fill="#000000"/>
<path class="note" d="M 1268.7 79.8331 L 1261.28 79.8331 L 1261.28 78.2331 L 1270.68 78.2331 L 1270.68 79.6531 L 1264.96 92.3931 L 1263.04 92.3931 L 1268.7 79.8331 " fill="#000000"/>
<path class="note" d="M 1358.15 169.337 Q 1359.45 169.897, 1360.19 170.737 Q 1360.93 171.557, 1360.93 172.957 Q 1360.93 174.157, 1360.31 175.097 Q 1359.69 176.017, 1358.57 176.537 Q 1357.47 177.037, 1356.01 177.037 Q 1353.65 177.037, 1352.29 175.957 Q 1350.93 174.857, 1350.93 172.957 Q 1350.93 171.797, 1351.53 170.937 Q 1352.13 170.057, 1353.37 169.397 Q 1352.45 168.877, 1351.95 168.117 Q 1351.45 167.337, 1351.45 166.137 Q 1351.45 164.477, 1352.65 163.497 Q 1353.87 162.517, 1355.93 162.517 Q 1357.99 162.517, 1359.19 163.497 Q 1360.41 164.477, 1360.41 166.137 Q 1360.41 167.177, 1359.83 167.957 Q 1359.27 168.717, 1358.15 169.337 M 1355.93 164.017 Q 1354.75 164.017, 1354.09 164.577 Q 1353.45 165.137, 1353.45 166.137 Q 1353.45 166.877, 1353.89 167.377 Q 1354.33 167.857, 1354.95 168.137 Q 1355.59 168.417, 1356.81 168.837 Q 1357.67 168.237, 1358.03 167.597 Q 1358.41 166.957, 1358.41 166.137 Q 1358.41 165.137, 1357.75 164.577 Q 1357.11 164.017, 1355.93 164.017 M 1356.01 175.537 Q 1357.33 175.537, 1358.13 174.837 Q 1358.93 174.117, 1358.93 172.937 Q 1358.93 172.177, 1358.51 171.697 Q 1358.09 171.217, 1357.45 170.937 Q 1356.83 170.657, 1355.71 170.297 L 1354.81 169.997 Q 1353.81 170.597, 1353.37 171.317 Q 1352.93 172.017, 1352.93 172.937 Q 1352.93 174.117, 1353.77 174.837 Q 1354.61 175.537, 1356.01 175.537 " fill="#000000"/>
<path class="note" d="M 1478.5 106.787 Q 1481.02 106.787, 1482.28 108.507 Q 1483.56 110.207, 1483.56 113.607 Q 1483.56 117.367, 1481.98 119.327 Q 1480.42 121.267, 1477.4 121.267 Q 1476.52 121.267, 1475.76 121.067 Q 1475.02 120.867, 1474.3 120.447 L 1475.08 119.107 Q 1476.12 119.667, 1477.38 119.667 Q 1479.38 119.667, 1480.4 118.387 Q 1481.42 117.087, 1481.54 114.427 Q 1480.82 115.087, 1479.9 115.447 Q 1479 115.787, 1478.02 115.787 Q 1476.78 115.787, 1475.8 115.247 Q 1474.82 114.707, 1474.28 113.727 Q 1473.74 112.747, 1473.74 111.507 Q 1473.74 110.127, 1474.34 109.067 Q 1474.96 107.987, 1476.04 107.387 Q 1477.12 106.787, 1478.5 106.787 M 1475.74 111.487 Q 1475.74 112.747, 1476.44 113.467 Q 1477.14 114.187, 1478.38 114.187 Q 1479.24 114.187, 1480.08 113.847 Q 1480.94 113.487, 1481.54 112.887 Q 1481.46 110.547, 1480.72 109.487 Q 1479.98 108.427, 1478.48 108.427 Q 1477.72 108.427, 1477.08 108.827 Q 1476.46 109.227, 1476.1 109.927 Q 1475.74 110.627, 1475.74 111.487 " fill="#000000"/>
<path class="note" d="M 1555.04 203.871 L 1558.14 203.871 L 1558.14 193.291 L 1554.72 194.351 L 1554.26 193.171 L 1558.6 191.231 L 1560.02 191.471 L 1560.02 203.871 L 1562.8 203.871 L 1562.8 205.471 L 1555.04 205.471 L 1555.04 203.871 " fill="#000000"/>
<path class="note" d="M 1569.2 205.631 Q 1566.6 205.631, 1565.3 203.711 Q 1564.02 201.791, 1564.02 198.371 Q 1564.02 194.951, 1565.3 193.051 Q 1566.58 191.151, 1569.2 191.151 Q 1571.82 191.151, 1573.1 193.051 Q 1574.38 194.951, 1574.38 198.371 Q 1574.38 201.791, 1573.08 203.711 Q 1571.8 205.631, 1569.2 205.631 M 1569.2 204.031 Q 1570.74 204.031, 1571.56 202.611 Q 1572.38 201.171, 1572.38 198.371 Q 1572.38 195.591, 1571.56 194.171 Q 1570.74 192.751, 1569.2 192.751 Q 1567.68 192.751, 1566.84 194.171 Q 1566.02 195.591, 1566.02 198.371 Q 1566.02 201.171, 1566.84 202.611 Q 1567.68 204.031, 1569.2 204.031 " fill="#000000"/>
<path class="note" d="M 1658.75 188.469 L 1661.85 188.469 L 1661.85 177.889 L 1658.43 178.949 L 1657.97 177.769 L 1662.31 175.829 L 1663.73 176.069 L 1663.73 188.469 L 1666.51 188.469 L 1666.51 190.069 L 1658.75 190.069 L 1658.75 188.469 " fill="#000000"/>
<path class="note" d="M 1668.37 188.469 L 1671.47 188.469 L 1671.47 177.889 L 1668.05 178.949 L 1667.59 177.769 L 1671.93 175.829 L 1673.35 176.069 L 1673.35 188.469 L 1676.13 188.469 L 1676.13 190.069 L 1668.37 190.069 L 1668.37 188.469 " fill="#000000"/>
<path class="note" d="M 1533.11 378.039 L 1536.21 378.039 L 1536.21 367.459 L 1532.79 368.519 L 1532.33 367.339 L 1536.67 365.399 L 1538.09 365.639 L 1538.09 378.039 L 1540.87 378.039 L 1540.87 379.639 L 1533.11 379.639 L 1533.11 378.039 " fill="#000000"/>
<path class="note" d="M 1541.91 368.159 Q 1542.43 366.819, 1543.67 366.079 Q 1544.91 365.319, 1546.63 365.319 Q 1548.77 365.319, 1549.97 366.479 Q 1551.17 367.639, 1551.17 369.699 Q 1551.17 371.799, 1549.61 373.759 Q 1548.07 375.719, 1544.87 378.039 L 1551.41 378.039 L 1551.41 379.639 L 1541.87 379.639 L 1541.87 378.299 Q 1544.51 376.419, 1546.07 375.019 Q 1547.65 373.619, 1548.41 372.359 Q 1549.17 371.099, 1549.17 369.799 Q 1549.17 368.439, 1548.49 367.679 Q 1547.81 366.919, 1546.63 366.919 Q 1545.49 366.919, 1544.73 367.379 Q 1543.97 367.839, 1543.43 368.859 L 1541.91 368.159 " fill="#000000"/>
<path class="note" d="M 1395.49 419.708 L 1398.59 419.708 L 1398.59 409.128 L 1395.17 410.188 L 1394.71 409.008 L 1399.05 407.068 L 1400.47 407.308 L 1400.47 419.708 L 1403.25 419.708 L 1403.25 421.308 L 1395.49 421.308 L 1395.49 419.708 " fill="#000000"/>
<path class="note" d="M 1410.89 413.848 Q 1412.27 414.248, 1412.93 415.148 Q 1413.61 416.028, 1413.61 417.428 Q 1413.61 418.628, 1413.01 419.568 Q 1412.41 420.488, 1411.31 421.008 Q 1410.21 421.508, 1408.77 421.508 Q 1407.25 421.508, 1406.11 420.988 Q 1404.99 420.448, 1404.09 419.368 L 1405.23 418.208 Q 1406.11 419.168, 1406.85 419.548 Q 1407.59 419.908, 1408.77 419.908 Q 1410.05 419.908, 1410.83 419.228 Q 1411.61 418.528, 1411.61 417.408 Q 1411.61 415.968, 1410.79 415.328 Q 1409.99 414.668, 1408.25 414.668 L 1407.23 414.668 L 1407.23 413.228 L 1408.13 413.228 Q 1409.67 413.208, 1410.49 412.548 Q 1411.31 411.868, 1411.31 410.608 Q 1411.31 409.688, 1410.63 409.148 Q 1409.95 408.588, 1408.79 408.588 Q 1407.61 408.588, 1406.87 409.008 Q 1406.15 409.428, 1405.59 410.488 L 1404.21 409.748 Q 1404.71 408.568, 1405.91 407.788 Q 1407.11 406.988, 1408.79 406.988 Q 1410.87 406.988, 1412.09 407.968 Q 1413.31 408.948, 1413.31 410.608 Q 1413.31 411.748, 1412.69 412.568 Q 1412.07 413.388, 1410.89 413.848 " fill="#000000"/>
<path class="note" d="M 1304.97 335.304 L 1308.07 335.304 L 1308.07 324.724 L 1304.65 325.784 L 1304.19 324.604 L 1308.53 322.664 L 1309.95 322.904 L 1309.95 335.304 L 1312.73 335.304 L 1312.73 336.904 L 1304.97 336.904 L 1304.97 335.304 " fill="#000000"/>
<path class="note" d="M 1322.53 332.044 L 1324.23 332.044 L 1324.23 333.644 L 1322.53 333.644 L 1322.53 336.904 L 1320.65 336.904 L 1320.65 333.644 L 1313.33 333.644 L 1313.33 332.384 L 1319.53 322.744 L 1322.53 322.744 L 1322.53 332.044 M 1315.65 332.044 L 1320.65 332.044 L 1320.65 324.024 L 1315.65 332.044 " fill="#000000"/>
<path class="note" d="M 1187.43 371.02 L 1190.53 371.02 L 1190.53 360.44 L 1187.11 361.5 L 1186.65 360.32 L 1190.99 358.38 L 1192.41 358.62 L 1192.41 371.02 L 1195.19 371.02 L 1195.19 372.62 L 1187.43 372.62 L 1187.43 371.02 " fill="#000000"/>
<path class="note" d="M 1201.25 363.76 Q 1202.49 363.76, 1203.51 364.3 Q 1204.53 364.82, 1205.11 365.82 Q 1205.69 366.8, 1205.69 368.14 Q 1205.69 369.6, 1204.97 370.66 Q 1204.27 371.7, 1203.11 372.24 Q 1201.95 372.78, 1200.63 372.78 Q 1199.33 372.78, 1198.13 372.3 Q 1196.93 371.82, 1196.11 370.9 L 1197.31 369.66 Q 1197.97 370.38, 1198.87 370.78 Q 1199.77 371.16, 1200.69 371.16 Q 1201.95 371.16, 1202.81 370.38 Q 1203.69 369.6, 1203.69 368.18 Q 1203.69 366.68, 1202.81 365.98 Q 1201.95 365.26, 1200.57 365.26 Q 1199.33 365.26, 1197.95 365.8 L 1196.85 365.28 L 1197.53 358.46 L 1204.81 358.46 L 1204.61 360.06 L 1199.17 360.06 L 1198.75 364.26 Q 1200.01 363.76, 1201.25 363.76 " fill="#000000"/>
<path class="note" d="M 2378.47 334.751 L 2381.57 334.751 L 2381.57 324.171 L 2378.15 325.231 L 2377.69 324.051 L 2382.03 322.111 L 2383.45 322.351 L 2383.45 334.751 L 2386.23 334.751 L 2386.23 336.351 L 2378.47 336.351 L 2378.47 334.751 " fill="#000000"/>
<path class="note" d="M 2393.13 327.511 Q 2394.37 327.511, 2395.35 328.051 Q 2396.33 328.591, 2396.87 329.571 Q 2397.41 330.551, 2397.41 331.791 Q 2397.41 333.171, 2396.79 334.251 Q 2396.19 335.311, 2395.11 335.911 Q 2394.03 336.511, 2392.65 336.511 Q 2390.13 336.511, 2388.85 334.811 Q 2387.59 333.091, 2387.59 329.691 Q 2387.59 325.931, 2389.15 323.991 Q 2390.73 322.031, 2393.75 322.031 Q 2394.63 322.031, 2395.37 322.231 Q 2396.13 322.431, 2396.85 322.851 L 2396.07 324.191 Q 2395.03 323.631, 2393.77 323.631 Q 2391.77 323.631, 2390.75 324.931 Q 2389.73 326.211, 2389.61 328.871 Q 2390.33 328.211, 2391.23 327.871 Q 2392.15 327.511, 2393.13 327.511 M 2392.67 334.871 Q 2393.43 334.871, 2394.05 334.471 Q 2394.69 334.071, 2395.05 333.371 Q 2395.41 332.671, 2395.41 331.811 Q 2395.41 330.551, 2394.71 329.831 Q 2394.01 329.111, 2392.77 329.111 Q 2391.91 329.111, 2391.05 329.471 Q 2390.21 329.811, 2389.61 330.411 Q 2389.69 332.751, 2390.43 333.811 Q 2391.17 334.871, 2392.67 334.871 " fill="#000000"/>
<path class="note" d="M 2465.43 237.451 L 2468.53 237.451 L 2468.53 226.871 L 2465.11 227.931 L 2464.65 226.751 L 2468.99 224.811 L 2470.41 225.051 L 2470.41 237.451 L 2473.19 237.451 L 2473.19 239.051 L 2465.43 239.051 L 2465.43 237.451 " fill="#000000"/>
<path class="note" d="M 2480.97 226.491 L 2473.55 226.491 L 2473.55 224.891 L 2482.95 224.891 L 2482.95 226.311 L 2477.23 239.051 L 2475.31 239.051 L 2480.97 226.491 " fill="#000000"/>
<path class="note" d="M 2617.37 337.505 L 2620.47 337.505 L 2620.47 326.925 L 2617.05 327.985 L 2616.59 326.805 L 2620.93 324.865 L 2622.35 325.105 L 2622.35 337.505 L 2625.13 337.505 L 2625.13 339.105 L 2617.37 339.105 L 2617.37 337.505 " fill="#000000"/>
<path class="note" d="M 2633.59 331.605 Q 2634.89 332.165, 2635.63 333.005 Q 2636.37 333.825, 2636.37 335.225 Q 2636.37 336.425, 2635.75 337.365 Q 2635.13 338.285, 2634.01 338.805 Q 2632.91 339.305, 2631.45 339.305 Q 2629.09 339.305, 2627.73 338.225 Q 2626.37 337.125, 2626.37 335.225 Q 2626.37 334.065, 2626.97 333.205 Q 2627.57 332.325, 2628.81 331.665 Q 2627.89 331.145, 2627.39 330.385 Q 2626.89 329.605, 2626.89 328.405 Q 2626.89 326.745, 2628.09 325.765 Q 2629.31 324.785, 2631.37 324.785 Q 2633.43 324.785, 2634.63 325.765 Q 2635.85 326.745, 2635.85 328.405 Q 2635.85 329.445, 2635.27 330.225 Q 2634.71 330.985, 2633.59 331.605 M 2631.37 326.285 Q 2630.19 326.285, 2629.53 326.845 Q 2628.89 327.405, 2628.89 328.405 Q 2628.89 329.145, 2629.33 329.645 Q 2629.77 330.125, 2630.39 330.405 Q 2631.03 330.685, 2632.25 331.105 Q 2633.11 330.505, 2633.47 329.865 Q 2633.85 329.225, 2633.85 328.405 Q 2633.85 327.405, 2633.19 326.845 Q 2632.55 326.285, 2631.37 326.285 M 2631.45 337.805 Q 2632.77 337.805, 2633.57 337.105 Q 2634.37 336.385, 2634.37 335.205 Q 2634.37 334.445, 2633.95 333.965 Q 2633.53 333.485, 2632.89 333.205 Q 2632.27 332.925, 2631.15 332.565 L 2630.25 332.265 Q 2629.25 332.865, 2628.81 333.585 Q 2628.37 334.285, 2628.37 335.205 Q 2628.37 336.385, 2629.21 337.105 Q 2630.05 337.805, 2631.45 337.805 " fill="#000000"/>
<path class="note" d="M 2475.13 90.8621 L 2478.23 90.8621 L 2478.23 80.2821 L 2474.81 81.3421 L 2474.35 80.1621 L 2478.69 78.2221 L 2480.11 78.4621 L 2480.11 90.8621 L 2482.89 90.8621 L 2482.89 92.4621 L 2475.13 92.4621 L 2475.13 90.8621 " fill="#000000"/>
<path class="note" d="M 2488.75 78.1421 Q 2491.27 78.1421, 2492.53 79.8621 Q 2493.81 81.5621, 2493.81 84.9621 Q 2493.81 88.7221, 2492.23 90.6821 Q 2490.67 92.6221, 2487.65 92.6221 Q 2486.77 92.6221, 2486.01 92.4221 Q 2485.27 92.2221, 2484.55 91.8021 L 2485.33 90.4621 Q 2486.37 91.0221, 2487.63 91.0221 Q 2489.63 91.0221, 2490.65 89.7421 Q 2491.67 88.4421, 2491.79 85.7821 Q 2491.07 86.4421, 2490.15 86.8021 Q 2489.25 87.1421, 2488.27 87.1421 Q 2487.03 87.1421, 2486.05 86.6021 Q 2485.07 86.0621, 2484.53 85.0821 Q 2483.99 84.1021, 2483.99 82.8621 Q 2483.99 81.4821, 2484.59 80.4221 Q 2485.21 79.3421, 2486.29 78.7421 Q 2487.37 78.1421, 2488.75 78.1421 M 2485.99 82.8421 Q 2485.99 84.1021, 2486.69 84.8221 Q 2487.39 85.5421, 2488.63 85.5421 Q 2489.49 85.5421, 2490.33 85.2021 Q 2491.19 84.8421, 2491.79 84.2421 Q 2491.71 81.9021, 2490.97 80.8421 Q 2490.23 79.7821, 2488.73 79.7821 Q 2487.97 79.7821, 2487.33 80.1821 Q 2486.71 80.5821, 2486.35 81.2821 Q 2485.99 81.9821, 2485.99 82.8421 " fill="#000000"/>
<path class="note" d="M 2914.88 318.882 L 2917.98 318.882 L 2917.98 308.302 L 2914.56 309.362 L 2914.1 308.182 L 2918.44 306.242 L 2919.86 306.482 L 2919.86 318.882 L 2922.64 318.882 L 2922.64 320.482 L 2914.88 320.482 L 2914.88 318.882 " fill="#000000"/>
<path class="note" d="M 3018.21 266.002 Q 3018.73 264.662, 3019.97 263.922 Q 3021.21 263.162, 3022.93 263.162 Q 3025.07 263.162, 3026.27 264.322 Q 3027.47 265.482, 3027.47 267.542 Q 3027.47 269.642, 3025.91 271.602 Q 3024.37 273.562, 3021.17 275.882 L 3027.71 275.882 L 3027.71 277.482 L 3018.17 277.482 L 3018.17 276.142 Q 3020.81 274.262, 3022.37 272.862 Q 3023.95 271.462, 3024.71 270.202 Q 3025.47 268.942, 3025.47 267.642 Q 3025.47 266.282, 3024.79 265.522 Q 3024.11 264.762, 3022.93 264.762 Q 3021.79 264.762, 3021.03 265.222 Q 3020.27 265.682, 3019.73 266.702 L 3018.21 266.002 " fill="#000000"/>
<path class="note" d="M 3053.99 87.3298 Q 3055.37 87.7298, 3056.03 88.6298 Q 3056.71 89.5098, 3056.71 90.9098 Q 3056.71 92.1098, 3056.11 93.0498 Q 3055.51 93.9698, 3054.41 94.4898 Q 3053.31 94.9898, 3051.87 94.9898 Q 3050.35 94.9898, 3049.21 94.4698 Q 3048.09 93.9298, 3047.19 92.8498 L 3048.33 91.6898 Q 3049.21 92.6498, 3049.95 93.0298 Q 3050.69 93.3898, 3051.87 93.3898 Q 3053.15 93.3898, 3053.93 92.7098 Q 3054.71 92.0098, 3054.71 90.8898 Q 3054.71 89.4498, 3053.89 88.8098 Q 3053.09 88.1498, 3051.35 88.1498 L 3050.33 88.1498 L 3050.33 86.7098 L 3051.23 86.7098 Q 3052.77 86.6898, 3053.59 86.0298 Q 3054.41 85.3498, 3054.41 84.0898 Q 3054.41 83.1698, 3053.73 82.6298 Q 3053.05 82.0698, 3051.89 82.0698 Q 3050.71 82.0698, 3049.97 82.4898 Q 3049.25 82.9098, 3048.69 83.9698 L 3047.31 83.2298 Q 3047.81 82.0498, 3049.01 81.2698 Q 3050.21 80.4698, 3051.89 80.4698 Q 3053.97 80.4698, 3055.19 81.4498 Q 3056.41 82.4298, 3056.41 84.0898 Q 3056.41 85.2298, 3055.79 86.0498 Q 3055.17 86.8698, 3053.99 87.3298 " fill="#000000"/>
<path class="note" d="M 3157.65 355.774 L 3159.35 355.774 L 3159.35 357.374 L 3157.65 357.374 L 3157.65 360.634 L 3155.77 360.634 L 3155.77 357.374 L 3148.45 357.374 L 3148.45 356.114 L 3154.65 346.474 L 3157.65 346.474 L 3157.65 355.774 M 3150.77 355.774 L 3155.77 355.774 L 3155.77 347.754 L 3150.77 355.774 " fill="#000000"/>
<path class="note" d="M 3221.5 268.803 Q 3222.74 268.803, 3223.76 269.343 Q 3224.78 269.863, 3225.36 270.863 Q 3225.94 271.843, 3225.94 273.183 Q 3225.94 274.643, 3225.22 275.703 Q 3224.52 276.743, 3223.36 277.283 Q 3222.2 277.823, 3220.88 277.823 Q 3219.58 277.823, 3218.38 277.343 Q 3217.18 276.863, 3216.36 275.943 L 3217.56 274.703 Q 3218.22 275.423, 3219.12 275.823 Q 3220.02 276.203, 3220.94 276.203 Q 3222.2 276.203, 3223.06 275.423 Q 3223.94 274.643, 3223.94 273.223 Q 3223.94 271.723, 3223.06 271.023 Q 3222.2 270.303, 3220.82 270.303 Q 3219.58 270.303, 3218.2 270.843 L 3217.1 270.323 L 3217.78 263.503 L 3225.06 263.503 L 3224.86 265.103 L 3219.42 265.103 L 3219 269.303 Q 3220.26 268.803, 3221.5 268.803 " fill="#000000"/>
<path class="note" d="M 3241.12 147.108 Q 3242.36 147.108, 3243.34 147.648 Q 3244.32 148.188, 3244.86 149.168 Q 3245.4 150.148, 3245.4 151.388 Q 3245.4 152.768, 3244.78 153.848 Q 3244.18 154.908, 3243.1 155.508 Q 3242.02 156.108, 3240.64 156.108 Q 3238.12 156.108, 3236.84 154.408 Q 3235.58 152.688, 3235.58 149.288 Q 3235.58 145.528, 3237.14 143.588 Q 3238.72 141.628, 3241.74 141.628 Q 3242.62 141.628, 3243.36 141.828 Q 3244.12 142.028, 3244.84 142.448 L 3244.06 143.788 Q 3243.02 143.228, 3241.76 143.228 Q 3239.76 143.228, 3238.74 144.528 Q 3237.72 145.808, 3237.6 148.468 Q 3238.32 147.808, 3239.22 147.468 Q 3240.14 147.108, 3241.12 147.108 M 3240.66 154.468 Q 3241.42 154.468, 3242.04 154.068 Q 3242.68 153.668, 3243.04 152.968 Q 3243.4 152.268, 3243.4 151.408 Q 3243.4 150.148, 3242.7 149.428 Q 3242 148.708, 3240.76 148.708 Q 3239.9 148.708, 3239.04 149.068 Q 3238.2 149.408, 3237.6 150.008 Q 3237.68 152.348, 3238.42 153.408 Q 3239.16 154.468, 3240.66 154.468 " fill="#000000"/>
<path class="note" d="M 3377.55 91.8032 L 3370.13 91.8032 L 3370.13 90.2032 L 3379.53 90.2032 L 3379.53 91.6232 L 3373.81 104.363 L 3371.89 104.363 L 3377.55 91.8032 " fill="#000000"/>
<path class="note" d="M 3472.86 174.591 Q 3474.16 175.151, 3474.9 175.991 Q 3475.64 176.811, 3475.64 178.211 Q 3475.64 179.411, 3475.02 180.351 Q 3474.4 181.271, 3473.28 181.791 Q 3472.18 182.291, 3470.72 182.291 Q 3468.36 182.291, 3467 181.211 Q 3465.64 180.111, 3465.64 178.211 Q 3465.64 177.051, 3466.24 176.191 Q 3466.84 175.311, 3468.08 174.651 Q 3467.16 174.131, 3466.66 173.371 Q 3466.16 172.591, 3466.16 171.391 Q 3466.16 169.731, 3467.36 168.751 Q 3468.58 167.771, 3470.64 167.771 Q 3472.7 167.771, 3473.9 168.751 Q 3475.12 169.731, 3475.12 171.391 Q 3475.12 172.431, 3474.54 173.211 Q 3473.98 173.971, 3472.86 174.591 M 3470.64 169.271 Q 3469.46 169.271, 3468.8 169.831 Q 3468.16 170.391, 3468.16 171.391 Q 3468.16 172.131, 3468.6 172.631 Q 3469.04 173.111, 3469.66 173.391 Q 3470.3 173.671, 3471.52 174.091 Q 3472.38 173.491, 3472.74 172.851 Q 3473.12 172.211, 3473.12 171.391 Q 3473.12 170.391, 3472.46 169.831 Q 3471.82 169.271, 3470.64 169.271 M 3470.72 180.791 Q 3472.04 180.791, 3472.84 180.091 Q 3473.64 179.371, 3473.64 178.191 Q 3473.64 177.431, 3473.22 176.951 Q 3472.8 176.471, 3472.16 176.191 Q 3471.54 175.911, 3470.42 175.551 L 3469.52 175.251 Q 3468.52 175.851, 3468.08 176.571 Q 3467.64 177.271, 3467.64 178.191 Q 3467.64 179.371, 3468.48 180.091 Q 3469.32 180.791, 3470.72 180.791 " fill="#000000"/>
<path class="note" d="M 3588.86 103.325 Q 3591.38 103.325, 3592.64 105.045 Q 3593.92 106.745, 3593.92 110.145 Q 3593.92 113.905, 3592.34 115.865 Q 3590.78 117.805, 3587.76 117.805 Q 3586.88 117.805, 3586.12 117.605 Q 3585.38 117.405, 3584.66 116.985 L 3585.44 115.645 Q 3586.48 116.205, 3587.74 116.205 Q 3589.74 116.205, 3590.76 114.925 Q 3591.78 113.625, 3591.9 110.965 Q 3591.18 111.625, 3590.26 111.985 Q 3589.36 112.325, 3588.38 112.325 Q 3587.14 112.325, 3586.16 111.785 Q 3585.18 111.245, 3584.64 110.265 Q 3584.1 109.285, 3584.1 108.045 Q 3584.1 106.665, 3584.7 105.605 Q 3585.32 104.525, 3586.4 103.925 Q 3587.48 103.325, 3588.86 103.325 M 3586.1 108.025 Q 3586.1 109.285, 3586.8 110.005 Q 3587.5 110.725, 3588.74 110.725 Q 3589.6 110.725, 3590.44 110.385 Q 3591.3 110.025, 3591.9 109.425 Q 3591.82 107.085, 3591.08 106.025 Q 3590.34 104.965, 3588.84 104.965 Q 3588.08 104.965, 3587.44 105.365 Q 3586.82 105.765, 3586.46 106.465 Q 3586.1 107.165, 3586.1 108.025 " fill="#000000"/>
<path class="note" d="M 3671.27 193.693 L 3674.37 193.693 L 3674.37 183.113 L 3670.95 184.173 L 3670.49 182.993 L 3674.83 181.053 L 3676.25 181.293 L 3676.25 193.693 L 3679.03 193.693 L 3679.03 195.293 L 3671.27 195.293 L 3671.27 193.693 " fill="#000000"/>
<path class="note" d="M 3685.43 195.453 Q 3682.83 195.453, 3681.53 193.533 Q 3680.25 191.613, 3680.25 188.193 Q 3680.25 184.773, 3681.53 182.873 Q 3682.81 180.973, 3685.43 180.973 Q 3688.05 180.973, 3689.33 182.873 Q 3690.61 184.773, 3690.61 188.193 Q 3690.61 191.613, 3689.31 193.533 Q 3688.03 195.453, 3685.43 195.453 M 3685.43 193.853 Q 3686.97 193.853, 3687.79 192.433 Q 3688.61 190.993, 3688.61 188.193 Q 3688.61 185.413, 3687.79 183.993 Q 3686.97 182.573, 3685.43 182.573 Q 3683.91 182.573, 3683.07 183.993 Q 3682.25 185.413, 3682.25 188.193 Q 3682.25 190.993, 3683.07 192.433 Q 3683.91 193.853, 3685.43 193.853 " fill="#000000"/>
<path class="note" d="M 3773.59 170.913 L 3776.69 170.913 L 3776.69 160.333 L 3773.27 161.393 L 3772.81 160.213 L 3777.15 158.273 L 3778.57 158.513 L 3778.57 170.913 L 3781.35 170.913 L 3781.35 172.513 L 3773.59 172.513 L 3773.59 170.913 " fill="#000000"/>
<path class="note" d="M 3783.21 170.913 L 3786.31 170.913 L 3786.31 160.333 L 3782.89 161.393 L 3782.43 160.213 L 3786.77 158.273 L 3788.19 158.513 L 3788.19 170.913 L 3790.97 170.913 L 3790.97 172.513 L 3783.21 172.513 L 3783.21 170.913 " fill="#000000"/>
<path class="note" d="M 3653.35 375.278 L 3656.45 375.278 L 3656.45 364.698 L 3653.03 365.758 L 3652.57 364.578 L 3656.91 362.638 L 3658.33 362.878 L 3658.33 375.278 L 3661.11 375.278 L 3661.11 376.878 L 3653.35 376.878 L 3653.35 375.278 " fill="#000000"/>
<path class="note" d="M 3662.15 365.398 Q 3662.67 364.058, 3663.91 363.318 Q 3665.15 362.558, 3666.87 362.558 Q 3669.01 362.558, 3670.21 363.718 Q 3671.41 364.878, 3671.41 366.938 Q 3671.41 369.038, 3669.85 370.998 Q 3668.31 372.958, 3665.11 375.278 L 3671.65 375.278 L 3671.65 376.878 L 3662.11 376.878 L 3662.11 375.538 Q 3664.75 373.658, 3666.31 372.258 Q 3667.89 370.858, 3668.65 369.598 Q 3669.41 368.338, 3669.41 367.038 Q 3669.41 365.678, 3668.73 364.918 Q 3668.05 364.158, 3666.87 364.158 Q 3665.73 364.158, 3664.97 364.618 Q 3664.21 365.078, 3663.67 366.098 L 3662.15 365.398 " fill="#000000"/>
<path class="note" d="M 3527.72 420.533 L 3530.82 420.533 L 3530.82 409.953 L 3527.4 411.013 L 3526.94 409.833 L 3531.28 407.893 L 3532.7 408.133 L 3532.7 420.533 L 3535.48 420.533 L 3535.48 422.133 L 3527.72 422.133 L 3527.72 420.533 " fill="#000000"/>
<path class="note" d="M 3543.12 414.673 Q 3544.5 415.073, 3545.16 415.973 Q 3545.84 416.853, 3545.84 418.253 Q 3545.84 419.453, 3545.24 420.393 Q 3544.64 421.313, 3543.54 421.833 Q 3542.44 422.333, 3541 422.333 Q 3539.48 422.333, 3538.34 421.813 Q 3537.22 421.273, 3536.32 420.193 L 3537.46 419.033 Q 3538.34 419.993, 3539.08 420.373 Q 3539.82 420.733, 3541 420.733 Q 3542.28 420.733, 3543.06 420.053 Q 3543.84 419.353, 3543.84 418.233 Q 3543.84 416.793, 3543.02 416.153 Q 3542.22 415.493, 3540.48 415.493 L 3539.46 415.493 L 3539.46 414.053 L 3540.36 414.053 Q 3541.9 414.033, 3542.72 413.373 Q 3543.54 412.693, 3543.54 411.433 Q 3543.54 410.513, 3542.86 409.973 Q 3542.18 409.413, 3541.02 409.413 Q 3539.84 409.413, 3539.1 409.833 Q 3538.38 410.253, 3537.82 411.313 L 3536.44 410.573 Q 3536.94 409.393, 3538.14 408.613 Q 3539.34 407.813, 3541.02 407.813 Q 3543.1 407.813, 3544.32 408.793 Q 3545.54 409.773, 3545.54 411.433 Q 3545.54 412.573, 3544.92 413.393 Q 3544.3 414.213, 3543.12 414.673 " fill="#000000"/>
<path class="note" d="M 3428.11 363.144 L 3431.21 363.144 L 3431.21 352.564 L 3427.79 353.624 L 3427.33 352.444 L 3431.67 350.504 L 3433.09 350.744 L 3433.09 363.144 L 3435.87 363.144 L 3435.87 364.744 L 3428.11 364.744 L 3428.11 363.144 " fill="#000000"/>
<path class="note" d="M 3445.67 359.884 L 3447.37 359.884 L 3447.37 361.484 L 3445.67 361.484 L 3445.67 364.744 L 3443.79 364.744 L 3443.79 361.484 L 3436.47 361.484 L 3436.47 360.224 L 3442.67 350.584 L 3445.67 350.584 L 3445.67 359.884 M 3438.79 359.884 L 3443.79 359.884 L 3443.79 351.864 L 3438.79 359.884 " fill="#000000"/>
<path class="note" d="M 3316.69 386.992 L 3319.79 386.992 L 3319.79 376.412 L 3316.37 377.472 L 3315.91 376.292 L 3320.25 374.352 L 3321.67 374.592 L 3321.67 386.992 L 3324.45 386.992 L 3324.45 388.592 L 3316.69 388.592 L 3316.69 386.992 " fill="#000000"/>
<path class="note" d="M 3330.51 379.732 Q 3331.75 379.732, 3332.77 380.272 Q 3333.79 380.792, 3334.37 381.792 Q 3334.95 382.772, 3334.95 384.112 Q 3334.95 385.572, 3334.23 386.632 Q 3333.53 387.672, 3332.37 388.212 Q 3331.21 388.752, 3329.89 388.752 Q 3328.59 388.752, 3327.39 388.272 Q 3326.19 387.792, 3325.37 386.872 L 3326.57 385.632 Q 3327.23 386.352, 3328.13 386.752 Q 3329.03 387.132, 3329.95 387.132 Q 3331.21 387.132, 3332.07 386.352 Q 3332.95 385.572, 3332.95 384.152 Q 3332.95 382.652, 3332.07 381.952 Q 3331.21 381.232, 3329.83 381.232 Q 3328.59 381.232, 3327.21 381.772 L 3326.11 381.252 L 3326.79 374.432 L 3334.07 374.432 L 3333.87 376.032 L 3328.43 376.032 L 3328.01 380.232 Q 3329.27 379.732, 3330.51 379.732 " fill="#000000"/>
<path d="M 795.289 247.708 L 801.337 247.708 L 801.337 241.34 L 804.025 241.34 L 804.025 247.708 L 810.233 247.708 L 810.233 250.012 L 804.025 250.012 L 804.025 256.412 L 801.337 256.412 L 801.337 250.012 L 795.289 250.012 L 795.289 247.708 " fill="#000000"/>
<path d="M 2762.03 247.708 L 2768.08 247.708 L 2768.08 241.34 L 2770.77 241.34 L 2770.77 247.708 L 2776.98 247.708 L 2776.98 250.012 L 2770.77 250.012 L 2770.77 256.412 L 2768.08 256.412 L 2768.08 250.012 L 2762.03 250.012 L 2762.03 247.708 " fill="#000000"/>
<path d="M 1842.5,250.012 L 2171.36,250.012" style="fill:none;fill-rule:evenodd;stroke:#000000;stroke-width:2.0px;stroke-linecap:butt;stroke-linejoin:miter;stroke-opacity:1"/>
<path d="M 2171.36,250.012 L 2157.12,241.791" style="fill:none;fill-rule:evenodd;stroke:#000000;stroke-width:2.0px;stroke-linecap:butt;stroke-linejoin:miter;stroke-opacity:1"/>
<path d="M 2171.36,250.012 L 2157.12,258.234" style="fill:none;fill-rule:evenodd;stroke:#000000;stroke-width:2.0px;stroke-linecap:butt;stroke-linejoin:miter;stroke-opacity:1"/>
</svg>