<svg xmlns="http://www.w3.org/2000/svg" xmlns:rdkit="http://www.rdkit.org/xml" xmlns:xlink="http://www.w3.org/1999/xlink" version="1.1" baseProfile="full" xml:space="preserve" width="4000px" height="500px" viewBox="0 0 4000 500">
<!-- END OF HEADER -->
<rect style="opacity:1.0;fill:#FFFFFF;stroke:none" width="4000" height="500" x="0" y="0"> </rect>
<path d="M 436.737,140.595 L 542.145,201.452" style="fill:none;fill-rule:evenodd;stroke:#FFFFAA;stroke-width:26.0px;stroke-linecap:butt;stroke-linejoin:miter;stroke-opacity:1"/>
<path d="M 542.145,201.452 L 542.145,323.166" style="fill:none;fill-rule:evenodd;stroke:#FFFFAA;stroke-width:26.0px;stroke-linecap:butt;stroke-linejoin:miter;stroke-opacity:1"/>
<path d="M 542.145,201.452 L 647.552,140.595" style="fill:none;fill-rule:evenodd;stroke:#FFFFAA;stroke-width:26.0px;stroke-linecap:butt;stroke-linejoin:miter;stroke-opacity:1"/>
<path d="M 647.552,140.595 L 752.96,201.452" style="fill:none;fill-rule:evenodd;stroke:#FFFFAA;stroke-width:26.0px;stroke-linecap:butt;stroke-linejoin:miter;stroke-opacity:1"/>
<path d="M 752.96,201.452 L 858.368,140.595" style="fill:none;fill-rule:evenodd;stroke:#FFFFAA;stroke-width:26.0px;stroke-linecap:butt;stroke-linejoin:miter;stroke-opacity:1"/>
<path d="M 752.96,201.452 L 752.96,323.166" style="fill:none;fill-rule:evenodd;stroke:#FFFFAA;stroke-width:26.0px;stroke-linecap:butt;stroke-linejoin:miter;stroke-opacity:1"/>
<path d="M 1634.06,285.316 L 1515.54,257.595" style="fill:none;fill-rule:evenodd;stroke:#FFCC99;stroke-width:26.0px;stroke-linecap:butt;stroke-linejoin:miter;stroke-opacity:1"/>
<path d="M 1515.54,257.595 L 1432.27,346.372" style="fill:none;fill-rule:evenodd;stroke:#FFCC99;stroke-width:26.0px;stroke-linecap:butt;stroke-linejoin:miter;stroke-opacity:1"/>
<path d="M 1515.54,257.595 L 1480.29,141.097" style="fill:none;fill-rule:evenodd;stroke:#FFCC99;stroke-width:26.0px;stroke-linecap:butt;stroke-linejoin:miter;stroke-opacity:1"/>
<path d="M 1432.27,346.372 L 1313.76,318.651" style="fill:none;fill-rule:evenodd;stroke:#FFCC99;stroke-width:26.0px;stroke-linecap:butt;stroke-linejoin:miter;stroke-opacity:1"/>
<path d="M 1313.76,318.651 L 1278.51,202.153" style="fill:none;fill-rule:evenodd;stroke:#FFCC99;stroke-width:26.0px;stroke-linecap:butt;stroke-linejoin:miter;stroke-opacity:1"/>
<path d="M 1278.51,202.153 L 1159.99,174.433" style="fill:none;fill-rule:evenodd;stroke:#FFCC99;stroke-width:26.0px;stroke-linecap:butt;stroke-linejoin:miter;stroke-opacity:1"/>
<path d="M 1278.51,202.153 L 1361.77,113.376" style="fill:none;fill-rule:evenodd;stroke:#FFCC99;stroke-width:26.0px;stroke-linecap:butt;stroke-linejoin:miter;stroke-opacity:1"/>
<path d="M 1361.77,113.376 L 1480.29,141.097" style="fill:none;fill-rule:evenodd;stroke:#FFCC99;stroke-width:26.0px;stroke-linecap:butt;stroke-linejoin:miter;stroke-opacity:1"/>
<path d="M 1480.29,141.097 L 1563.55,52.3197" style="fill:none;fill-rule:evenodd;stroke:#FFCC99;stroke-width:26.0px;stroke-linecap:butt;stroke-linejoin:miter;stroke-opacity:1"/>
<path d="M 2355.93,271.003 L 2461.33,210.146" style="fill:none;fill-rule:evenodd;stroke:#FFFFAA;stroke-width:26.0px;stroke-linecap:butt;stroke-linejoin:miter;stroke-opacity:1"/>
<path d="M 2461.33,210.146 L 2566.74,271.003" style="fill:none;fill-rule:evenodd;stroke:#FFFFAA;stroke-width:26.0px;stroke-linecap:butt;stroke-linejoin:miter;stroke-opacity:1"/>
<path d="M 2461.33,210.146 L 2461.33,88.4315" style="fill:none;fill-rule:evenodd;stroke:#FFFFAA;stroke-width:26.0px;stroke-linecap:butt;stroke-linejoin:miter;stroke-opacity:1"/>
<path d="M 2876.69,220.246 L 2993.47,185.928" style="fill:none;fill-rule:evenodd;stroke:#FFFFAA;stroke-width:26.0px;stroke-linecap:butt;stroke-linejoin:miter;stroke-opacity:1"/>
<path d="M 2993.47,185.928 L 3022.14,67.6375" style="fill:none;fill-rule:evenodd;stroke:#FFFFAA;stroke-width:26.0px;stroke-linecap:butt;stroke-linejoin:miter;stroke-opacity:1"/>
<path d="M 3081.58,269.899 L 3198.35,235.581" style="fill:none;fill-rule:evenodd;stroke:#FFCC99;stroke-width:26.0px;stroke-linecap:butt;stroke-linejoin:miter;stroke-opacity:1"/>
<path d="M 3198.35,235.581 L 3227.02,117.29" style="fill:none;fill-rule:evenodd;stroke:#FFCC99;stroke-width:26.0px;stroke-linecap:butt;stroke-linejoin:miter;stroke-opacity:1"/>
<path d="M 3198.35,235.581 L 3286.46,319.552" style="fill:none;fill-rule:evenodd;stroke:#FFCC99;stroke-width:26.0px;stroke-linecap:butt;stroke-linejoin:miter;stroke-opacity:1"/>
<path d="M 3227.02,117.29 L 3343.8,82.9717" style="fill:none;fill-rule:evenodd;stroke:#FFCC99;stroke-width:26.0px;stroke-linecap:butt;stroke-linejoin:miter;stroke-opacity:1"/>
<path d="M 3343.8,82.9717 L 3431.9,166.943" style="fill:none;fill-rule:evenodd;stroke:#FFCC99;stroke-width:26.0px;stroke-linecap:butt;stroke-linejoin:miter;stroke-opacity:1"/>
<path d="M 3431.9,166.943 L 3548.68,132.625" style="fill:none;fill-rule:evenodd;stroke:#FFCC99;stroke-width:26.0px;stroke-linecap:butt;stroke-linejoin:miter;stroke-opacity:1"/>
<path d="M 3431.9,166.943 L 3403.24,285.234" style="fill:none;fill-rule:evenodd;stroke:#FFCC99;stroke-width:26.0px;stroke-linecap:butt;stroke-linejoin:miter;stroke-opacity:1"/>
<path d="M 3403.24,285.234 L 3286.46,319.552" style="fill:none;fill-rule:evenodd;stroke:#FFCC99;stroke-width:26.0px;stroke-linecap:butt;stroke-linejoin:miter;stroke-opacity:1"/>
<path d="M 3286.46,319.552 L 3257.79,437.843" style="fill:none;fill-rule:evenodd;stroke:#FFCC99;stroke-width:26.0px;stroke-linecap:butt;stroke-linejoin:miter;stroke-opacity:1"/>
<ellipse cx="436.737" cy="140.595" rx="24.3429" ry="24.3429" style="fill:#FFFFAA;fill-rule:evenodd;stroke:#FFFFAA;stroke-width:1px;stroke-linecap:butt;stroke-linejoin:miter;stroke-opacity:1"/>
<ellipse cx="542.145" cy="201.452" rx="24.3429" ry="24.3429" style="fill:#FFFFAA;fill-rule:evenodd;stroke:#FFFFAA;stroke-width:1px;stroke-linecap:butt;stroke-linejoin:miter;stroke-opacity:1"/>
<ellipse cx="542.145" cy="323.386" rx="24.3429" ry="24.3429" style="fill:#FFFFAA;fill-rule:evenodd;stroke:#FFFFAA;stroke-width:1px;stroke-linecap:butt;stroke-linejoin:miter;stroke-opacity:1"/>
<ellipse cx="647.552" cy="140.815" rx="24.3429" ry="24.3429" style="fill:#FFFFAA;fill-rule:evenodd;stroke:#FFFFAA;stroke-width:1px;stroke-linecap:butt;stroke-linejoin:miter;stroke-opacity:1"/>
<ellipse cx="752.96" cy="201.452" rx="24.3429" ry="24.3429" style="fill:#FFFFAA;fill-rule:evenodd;stroke:#FFFFAA;stroke-width:1px;stroke-linecap:butt;stroke-linejoin:miter;stroke-opacity:1"/>
<ellipse cx="858.368" cy="140.595" rx="24.3429" ry="24.3429" style="fill:#FFFFAA;fill-rule:evenodd;stroke:#FFFFAA;stroke-width:1px;stroke-linecap:butt;stroke-linejoin:miter;stroke-opacity:1"/>
<ellipse cx="752.96" cy="323.386" rx="24.3429" ry="24.3429" style="fill:#FFFFAA;fill-rule:evenodd;stroke:#FFFFAA;stroke-width:1px;stroke-linecap:butt;stroke-linejoin:miter;stroke-opacity:1"/>
<ellipse cx="1653.79" cy="292.396" rx="43.1001" ry="30.0379" style="fill:#FFCC99;fill-rule:evenodd;stroke:#FFCC99;stroke-width:1px;stroke-linecap:butt;stroke-linejoin:miter;stroke-opacity:1"/>
<ellipse cx="1515.54" cy="257.595" rx="24.3429" ry="24.3429" style="fill:#FFCC99;fill-rule:evenodd;stroke:#FFCC99;stroke-width:1px;stroke-linecap:butt;stroke-linejoin:miter;stroke-opacity:1"/>
<ellipse cx="1432.27" cy="346.372" rx="24.3429" ry="24.3429" style="fill:#FFCC99;fill-rule:evenodd;stroke:#FFCC99;stroke-width:1px;stroke-linecap:butt;stroke-linejoin:miter;stroke-opacity:1"/>
<ellipse cx="1313.76" cy="318.651" rx="24.3429" ry="24.3429" style="fill:#FFCC99;fill-rule:evenodd;stroke:#FFCC99;stroke-width:1px;stroke-linecap:butt;stroke-linejoin:miter;stroke-opacity:1"/>
<ellipse cx="1278.51" cy="202.153" rx="24.3429" ry="24.3429" style="fill:#FFCC99;fill-rule:evenodd;stroke:#FFCC99;stroke-width:1px;stroke-linecap:butt;stroke-linejoin:miter;stroke-opacity:1"/>
<ellipse cx="1159.99" cy="174.433" rx="24.3429" ry="24.3429" style="fill:#FFCC99;fill-rule:evenodd;stroke:#FFCC99;stroke-width:1px;stroke-linecap:butt;stroke-linejoin:miter;stroke-opacity:1"/>
<ellipse cx="1361.77" cy="113.376" rx="24.3429" ry="24.3429" style="fill:#FFCC99;fill-rule:evenodd;stroke:#FFCC99;stroke-width:1px;stroke-linecap:butt;stroke-linejoin:miter;stroke-opacity:1"/>
<ellipse cx="1480.29" cy="141.097" rx="24.3429" ry="24.3429" style="fill:#FFCC99;fill-rule:evenodd;stroke:#FFCC99;stroke-width:1px;stroke-linecap:butt;stroke-linejoin:miter;stroke-opacity:1"/>
<ellipse cx="1576.33" cy="52.5397" rx="36.4584" ry="24.3429" style="fill:#FFCC99;fill-rule:evenodd;stroke:#FFCC99;stroke-width:1px;stroke-linecap:butt;stroke-linejoin:miter;stroke-opacity:1"/>
<ellipse cx="2355.93" cy="271.003" rx="24.3429" ry="24.3429" style="fill:#FFFFAA;fill-rule:evenodd;stroke:#FFFFAA;stroke-width:1px;stroke-linecap:butt;stroke-linejoin:miter;stroke-opacity:1"/>
<ellipse cx="2461.33" cy="210.146" rx="24.3429" ry="24.3429" style="fill:#FFFFAA;fill-rule:evenodd;stroke:#FFFFAA;stroke-width:1px;stroke-linecap:butt;stroke-linejoin:miter;stroke-opacity:1"/>
<ellipse cx="2566.74" cy="271.223" rx="24.3429" ry="24.3429" style="fill:#FFFFAA;fill-rule:evenodd;stroke:#FFFFAA;stroke-width:1px;stroke-linecap:butt;stroke-linejoin:miter;stroke-opacity:1"/>
<ellipse cx="2474.11" cy="88.6515" rx="36.4584" ry="24.3429" style="fill:#FFFFAA;fill-rule:evenodd;stroke:#FFFFAA;stroke-width:1px;stroke-linecap:butt;stroke-linejoin:miter;stroke-opacity:1"/>
<ellipse cx="2876.69" cy="220.246" rx="24.3429" ry="24.3429" style="fill:#FFFFAA;fill-rule:evenodd;stroke:#FFFFAA;stroke-width:1px;stroke-linecap:butt;stroke-linejoin:miter;stroke-opacity:1"/>
<ellipse cx="2993.47" cy="185.928" rx="24.3429" ry="24.3429" style="fill:#FFFFAA;fill-rule:evenodd;stroke:#FFFFAA;stroke-width:1px;stroke-linecap:butt;stroke-linejoin:miter;stroke-opacity:1"/>
<ellipse cx="3022.14" cy="67.8575" rx="24.3429" ry="24.3429" style="fill:#FFFFAA;fill-rule:evenodd;stroke:#FFFFAA;stroke-width:1px;stroke-linecap:butt;stroke-linejoin:miter;stroke-opacity:1"/>
<ellipse cx="3081.58" cy="285.475" rx="24.3429" ry="42.0531" style="fill:#FFCC99;fill-rule:evenodd;stroke:#FFCC99;stroke-width:1px;stroke-linecap:butt;stroke-linejoin:miter;stroke-opacity:1"/>
<ellipse cx="3198.35" cy="235.581" rx="24.3429" ry="24.3429" style="fill:#FFCC99;fill-rule:evenodd;stroke:#FFCC99;stroke-width:1px;stroke-linecap:butt;stroke-linejoin:miter;stroke-opacity:1"/>
<ellipse cx="3227.02" cy="117.29" rx="24.3429" ry="24.3429" style="fill:#FFCC99;fill-rule:evenodd;stroke:#FFCC99;stroke-width:1px;stroke-linecap:butt;stroke-linejoin:miter;stroke-opacity:1"/>
<ellipse cx="3343.8" cy="82.9717" rx="24.3429" ry="24.3429" style="fill:#FFCC99;fill-rule:evenodd;stroke:#FFCC99;stroke-width:1px;stroke-linecap:butt;stroke-linejoin:miter;stroke-opacity:1"/>
<ellipse cx="3431.9" cy="166.943" rx="24.3429" ry="24.3429" style="fill:#FFCC99;fill-rule:evenodd;stroke:#FFCC99;stroke-width:1px;stroke-linecap:butt;stroke-linejoin:miter;stroke-opacity:1"/>
<ellipse cx="3548.68" cy="132.625" rx="24.3429" ry="24.3429" style="fill:#FFCC99;fill-rule:evenodd;stroke:#FFCC99;stroke-width:1px;stroke-linecap:butt;stroke-linejoin:miter;stroke-opacity:1"/>
<ellipse cx="3403.24" cy="285.234" rx="24.3429" ry="24.3429" style="fill:#FFCC99;fill-rule:evenodd;stroke:#FFCC99;stroke-width:1px;stroke-linecap:butt;stroke-linejoin:miter;stroke-opacity:1"/>
<ellipse cx="3286.46" cy="319.552" rx="24.3429" ry="24.3429" style="fill:#FFCC99;fill-rule:evenodd;stroke:#FFCC99;stroke-width:1px;stroke-linecap:butt;stroke-linejoin:miter;stroke-opacity:1"/>
<ellipse cx="3270.57" cy="438.063" rx="36.4584" ry="24.3429" style="fill:#FFCC99;fill-rule:evenodd;stroke:#FFCC99;stroke-width:1px;stroke-linecap:butt;stroke-linejoin:miter;stroke-opacity:1"/>
<path class="bond-0" d="M 436.737,140.595 L 542.145,201.452" style="fill:none;fill-rule:evenodd;stroke:#000000;stroke-width:2.0px;stroke-linecap:butt;stroke-linejoin:miter;stroke-opacity:1"/>
<path class="bond-1" d="M 529.973,201.452 L 529.973,253.628" style="fill:none;fill-rule:evenodd;stroke:#000000;stroke-width:2.0px;stroke-linecap:butt;stroke-linejoin:miter;stroke-opacity:1"/>
<path class="bond-1" d="M 529.973,253.628 L 529.973,305.804" style="fill:none;fill-rule:evenodd;stroke:#FF0000;stroke-width:2.0px;stroke-linecap:butt;stroke-linejoin:miter;stroke-opacity:1"/>
<path class="bond-1" d="M 554.316,201.452 L 554.316,253.628" style="fill:none;fill-rule:evenodd;stroke:#000000;stroke-width:2.0px;stroke-linecap:butt;stroke-linejoin:miter;stroke-opacity:1"/>
<path class="bond-1" d="M 554.316,253.628 L 554.316,305.804" style="fill:none;fill-rule:evenodd;stroke:#FF0000;stroke-width:2.0px;stroke-linecap:butt;stroke-linejoin:miter;stroke-opacity:1"/>
<path class="bond-2" d="M 542.145,201.452 L 586.827,175.655" style="fill:none;fill-rule:evenodd;stroke:#000000;stroke-width:2.0px;stroke-linecap:butt;stroke-linejoin:miter;stroke-opacity:1"/>
<path class="bond-2" d="M 586.827,175.655 L 631.51,149.857" style="fill:none;fill-rule:evenodd;stroke:#FF0000;stroke-width:2.0px;stroke-linecap:butt;stroke-linejoin:miter;stroke-opacity:1"/>
<path class="bond-3" d="M 663.595,149.857 L 708.278,175.655" style="fill:none;fill-rule:evenodd;stroke:#FF0000;stroke-width:2.0px;stroke-linecap:butt;stroke-linejoin:miter;stroke-opacity:1"/>
<path class="bond-3" d="M 708.278,175.655 L 752.96,201.452" style="fill:none;fill-rule:evenodd;stroke:#000000;stroke-width:2.0px;stroke-linecap:butt;stroke-linejoin:miter;stroke-opacity:1"/>
<path class="bond-4" d="M 752.96,201.452 L 858.368,140.595" style="fill:none;fill-rule:evenodd;stroke:#000000;stroke-width:2.0px;stroke-linecap:butt;stroke-linejoin:miter;stroke-opacity:1"/>
<path class="bond-5" d="M 740.789,201.452 L 740.789,253.628" style="fill:none;fill-rule:evenodd;stroke:#000000;stroke-width:2.0px;stroke-linecap:butt;stroke-linejoin:miter;stroke-opacity:1"/>
<path class="bond-5" d="M 740.789,253.628 L 740.789,305.804" style="fill:none;fill-rule:evenodd;stroke:#FF0000;stroke-width:2.0px;stroke-linecap:butt;stroke-linejoin:miter;stroke-opacity:1"/>
<path class="bond-5" d="M 765.132,201.452 L 765.132,253.628" style="fill:none;fill-rule:evenodd;stroke:#000000;stroke-width:2.0px;stroke-linecap:butt;stroke-linejoin:miter;stroke-opacity:1"/>
<path class="bond-5" d="M 765.132,253.628 L 765.132,305.804" style="fill:none;fill-rule:evenodd;stroke:#FF0000;stroke-width:2.0px;stroke-linecap:butt;stroke-linejoin:miter;stroke-opacity:1"/>
<path class="bond-6" d="M 1620.27,282.092 L 1567.91,269.843" style="fill:none;fill-rule:evenodd;stroke:#0000FF;stroke-width:2.0px;stroke-linecap:butt;stroke-linejoin:miter;stroke-opacity:1"/>
<path class="bond-6" d="M 1567.91,269.843 L 1515.54,257.595" style="fill:none;fill-rule:evenodd;stroke:#000000;stroke-width:2.0px;stroke-linecap:butt;stroke-linejoin:miter;stroke-opacity:1"/>
<path class="bond-7" d="M 1515.54,257.595 L 1432.27,346.372" style="fill:none;fill-rule:evenodd;stroke:#000000;stroke-width:2.0px;stroke-linecap:butt;stroke-linejoin:miter;stroke-opacity:1"/>
<path class="bond-7" d="M 1485.29,254.258 L 1427.01,316.403" style="fill:none;fill-rule:evenodd;stroke:#000000;stroke-width:2.0px;stroke-linecap:butt;stroke-linejoin:miter;stroke-opacity:1;stroke-dasharray:6,6"/>
<path class="bond-14" d="M 1515.54,257.595 L 1480.29,141.097" style="fill:none;fill-rule:evenodd;stroke:#000000;stroke-width:2.0px;stroke-linecap:butt;stroke-linejoin:miter;stroke-opacity:1"/>
<path class="bond-14" d="M 1486.95,247.17 L 1462.28,165.622" style="fill:none;fill-rule:evenodd;stroke:#000000;stroke-width:2.0px;stroke-linecap:butt;stroke-linejoin:miter;stroke-opacity:1;stroke-dasharray:6,6"/>
<path class="bond-8" d="M 1432.27,346.372 L 1313.76,318.651" style="fill:none;fill-rule:evenodd;stroke:#000000;stroke-width:2.0px;stroke-linecap:butt;stroke-linejoin:miter;stroke-opacity:1"/>
<path class="bond-8" d="M 1420.04,318.511 L 1337.08,299.106" style="fill:none;fill-rule:evenodd;stroke:#000000;stroke-width:2.0px;stroke-linecap:butt;stroke-linejoin:miter;stroke-opacity:1;stroke-dasharray:6,6"/>
<path class="bond-9" d="M 1313.76,318.651 L 1278.51,202.153" style="fill:none;fill-rule:evenodd;stroke:#000000;stroke-width:2.0px;stroke-linecap:butt;stroke-linejoin:miter;stroke-opacity:1"/>
<path class="bond-9" d="M 1331.77,294.126 L 1307.1,212.578" style="fill:none;fill-rule:evenodd;stroke:#000000;stroke-width:2.0px;stroke-linecap:butt;stroke-linejoin:miter;stroke-opacity:1;stroke-dasharray:6,6"/>
<path class="bond-10" d="M 1278.51,202.153 L 1224.98,189.634" style="fill:none;fill-rule:evenodd;stroke:#000000;stroke-width:2.0px;stroke-linecap:butt;stroke-linejoin:miter;stroke-opacity:1"/>
<path class="bond-10" d="M 1224.98,189.634 L 1171.46,177.114" style="fill:none;fill-rule:evenodd;stroke:#33CCCC;stroke-width:2.0px;stroke-linecap:butt;stroke-linejoin:miter;stroke-opacity:1"/>
<path class="bond-11" d="M 1278.51,202.153 L 1361.77,113.376" style="fill:none;fill-rule:evenodd;stroke:#000000;stroke-width:2.0px;stroke-linecap:butt;stroke-linejoin:miter;stroke-opacity:1"/>
<path class="bond-11" d="M 1308.75,205.49 L 1367.04,143.346" style="fill:none;fill-rule:evenodd;stroke:#000000;stroke-width:2.0px;stroke-linecap:butt;stroke-linejoin:miter;stroke-opacity:1;stroke-dasharray:6,6"/>
<path class="bond-12" d="M 1361.77,113.376 L 1480.29,141.097" style="fill:none;fill-rule:evenodd;stroke:#000000;stroke-width:2.0px;stroke-linecap:butt;stroke-linejoin:miter;stroke-opacity:1"/>
<path class="bond-12" d="M 1374.01,141.237 L 1456.97,160.642" style="fill:none;fill-rule:evenodd;stroke:#000000;stroke-width:2.0px;stroke-linecap:butt;stroke-linejoin:miter;stroke-opacity:1;stroke-dasharray:6,6"/>
<path class="bond-13" d="M 1480.29,141.097 L 1513.9,105.261" style="fill:none;fill-rule:evenodd;stroke:#000000;stroke-width:2.0px;stroke-linecap:butt;stroke-linejoin:miter;stroke-opacity:1"/>
<path class="bond-13" d="M 1513.9,105.261 L 1547.51,69.4247" style="fill:none;fill-rule:evenodd;stroke:#FF0000;stroke-width:2.0px;stroke-linecap:butt;stroke-linejoin:miter;stroke-opacity:1"/>
<path class="bond-15" d="M 2355.93,271.003 L 2461.33,210.146" style="fill:none;fill-rule:evenodd;stroke:#000000;stroke-width:2.0px;stroke-linecap:butt;stroke-linejoin:miter;stroke-opacity:1"/>
<path class="bond-16" d="M 2455.25,220.687 L 2499.93,246.484" style="fill:none;fill-rule:evenodd;stroke:#000000;stroke-width:2.0px;stroke-linecap:butt;stroke-linejoin:miter;stroke-opacity:1"/>
<path class="bond-16" d="M 2499.93,246.484 L 2544.61,272.282" style="fill:none;fill-rule:evenodd;stroke:#FF0000;stroke-width:2.0px;stroke-linecap:butt;stroke-linejoin:miter;stroke-opacity:1"/>
<path class="bond-16" d="M 2467.42,199.605 L 2512.1,225.403" style="fill:none;fill-rule:evenodd;stroke:#000000;stroke-width:2.0px;stroke-linecap:butt;stroke-linejoin:miter;stroke-opacity:1"/>
<path class="bond-16" d="M 2512.1,225.403 L 2556.78,251.2" style="fill:none;fill-rule:evenodd;stroke:#FF0000;stroke-width:2.0px;stroke-linecap:butt;stroke-linejoin:miter;stroke-opacity:1"/>
<path class="bond-17" d="M 2461.33,210.146 L 2461.33,158.19" style="fill:none;fill-rule:evenodd;stroke:#000000;stroke-width:2.0px;stroke-linecap:butt;stroke-linejoin:miter;stroke-opacity:1"/>
<path class="bond-17" d="M 2461.33,158.19 L 2461.33,106.234" style="fill:none;fill-rule:evenodd;stroke:#FF0000;stroke-width:2.0px;stroke-linecap:butt;stroke-linejoin:miter;stroke-opacity:1"/>
<path class="bond-18" d="M 2876.69,220.246 L 2993.47,185.928" style="fill:none;fill-rule:evenodd;stroke:#000000;stroke-width:2.0px;stroke-linecap:butt;stroke-linejoin:miter;stroke-opacity:1"/>
<path class="bond-19" d="M 3005.3,188.794 L 3017.47,138.551" style="fill:none;fill-rule:evenodd;stroke:#000000;stroke-width:2.0px;stroke-linecap:butt;stroke-linejoin:miter;stroke-opacity:1"/>
<path class="bond-19" d="M 3017.47,138.551 L 3029.65,88.307" style="fill:none;fill-rule:evenodd;stroke:#FF0000;stroke-width:2.0px;stroke-linecap:butt;stroke-linejoin:miter;stroke-opacity:1"/>
<path class="bond-19" d="M 2981.64,183.061 L 2993.82,132.817" style="fill:none;fill-rule:evenodd;stroke:#000000;stroke-width:2.0px;stroke-linecap:butt;stroke-linejoin:miter;stroke-opacity:1"/>
<path class="bond-19" d="M 2993.82,132.817 L 3005.99,82.5736" style="fill:none;fill-rule:evenodd;stroke:#FF0000;stroke-width:2.0px;stroke-linecap:butt;stroke-linejoin:miter;stroke-opacity:1"/>
<path class="bond-20" d="M 2993.47,185.928 L 3030.63,221.346" style="fill:none;fill-rule:evenodd;stroke:#000000;stroke-width:2.0px;stroke-linecap:butt;stroke-linejoin:miter;stroke-opacity:1"/>
<path class="bond-20" d="M 3030.63,221.346 L 3067.79,256.764" style="fill:none;fill-rule:evenodd;stroke:#0000FF;stroke-width:2.0px;stroke-linecap:butt;stroke-linejoin:miter;stroke-opacity:1"/>
<path class="bond-21" d="M 3095.36,265.849 L 3146.86,250.715" style="fill:none;fill-rule:evenodd;stroke:#0000FF;stroke-width:2.0px;stroke-linecap:butt;stroke-linejoin:miter;stroke-opacity:1"/>
<path class="bond-21" d="M 3146.86,250.715 L 3198.35,235.581" style="fill:none;fill-rule:evenodd;stroke:#000000;stroke-width:2.0px;stroke-linecap:butt;stroke-linejoin:miter;stroke-opacity:1"/>
<path class="bond-22" d="M 3198.35,235.581 L 3227.02,117.29" style="fill:none;fill-rule:evenodd;stroke:#000000;stroke-width:2.0px;stroke-linecap:butt;stroke-linejoin:miter;stroke-opacity:1"/>
<path class="bond-22" d="M 3226.31,223.571 L 3246.38,140.767" style="fill:none;fill-rule:evenodd;stroke:#000000;stroke-width:2.0px;stroke-linecap:butt;stroke-linejoin:miter;stroke-opacity:1;stroke-dasharray:6,6"/>
<path class="bond-29" d="M 3198.35,235.581 L 3286.46,319.552" style="fill:none;fill-rule:evenodd;stroke:#000000;stroke-width:2.0px;stroke-linecap:butt;stroke-linejoin:miter;stroke-opacity:1"/>
<path class="bond-29" d="M 3228.36,230.555 L 3290.04,289.335" style="fill:none;fill-rule:evenodd;stroke:#000000;stroke-width:2.0px;stroke-linecap:butt;stroke-linejoin:miter;stroke-opacity:1;stroke-dasharray:6,6"/>
<path class="bond-23" d="M 3227.02,117.29 L 3343.8,82.9717" style="fill:none;fill-rule:evenodd;stroke:#000000;stroke-width:2.0px;stroke-linecap:butt;stroke-linejoin:miter;stroke-opacity:1"/>
<path class="bond-23" d="M 3251.4,135.498 L 3333.14,111.475" style="fill:none;fill-rule:evenodd;stroke:#000000;stroke-width:2.0px;stroke-linecap:butt;stroke-linejoin:miter;stroke-opacity:1;stroke-dasharray:6,6"/>
<path class="bond-24" d="M 3343.8,82.9717 L 3431.9,166.943" style="fill:none;fill-rule:evenodd;stroke:#000000;stroke-width:2.0px;stroke-linecap:butt;stroke-linejoin:miter;stroke-opacity:1"/>
<path class="bond-24" d="M 3340.22,113.189 L 3401.89,171.969" style="fill:none;fill-rule:evenodd;stroke:#000000;stroke-width:2.0px;stroke-linecap:butt;stroke-linejoin:miter;stroke-opacity:1;stroke-dasharray:6,6"/>
<path class="bond-25" d="M 3431.9,166.943 L 3484.56,151.468" style="fill:none;fill-rule:evenodd;stroke:#000000;stroke-width:2.0px;stroke-linecap:butt;stroke-linejoin:miter;stroke-opacity:1"/>
<path class="bond-25" d="M 3484.56,151.468 L 3537.22,135.993" style="fill:none;fill-rule:evenodd;stroke:#33CCCC;stroke-width:2.0px;stroke-linecap:butt;stroke-linejoin:miter;stroke-opacity:1"/>
<path class="bond-26" d="M 3431.9,166.943 L 3403.24,285.234" style="fill:none;fill-rule:evenodd;stroke:#000000;stroke-width:2.0px;stroke-linecap:butt;stroke-linejoin:miter;stroke-opacity:1"/>
<path class="bond-26" d="M 3403.95,178.953 L 3383.88,261.757" style="fill:none;fill-rule:evenodd;stroke:#000000;stroke-width:2.0px;stroke-linecap:butt;stroke-linejoin:miter;stroke-opacity:1;stroke-dasharray:6,6"/>
<path class="bond-27" d="M 3403.24,285.234 L 3286.46,319.552" style="fill:none;fill-rule:evenodd;stroke:#000000;stroke-width:2.0px;stroke-linecap:butt;stroke-linejoin:miter;stroke-opacity:1"/>
<path class="bond-27" d="M 3378.86,267.026 L 3297.11,291.049" style="fill:none;fill-rule:evenodd;stroke:#000000;stroke-width:2.0px;stroke-linecap:butt;stroke-linejoin:miter;stroke-opacity:1;stroke-dasharray:6,6"/>
<path class="bond-28" d="M 3286.46,319.552 L 3274.23,370.016" style="fill:none;fill-rule:evenodd;stroke:#000000;stroke-width:2.0px;stroke-linecap:butt;stroke-linejoin:miter;stroke-opacity:1"/>
<path class="bond-28" d="M 3274.23,370.016 L 3262,420.48" style="fill:none;fill-rule:evenodd;stroke:#FF0000;stroke-width:2.0px;stroke-linecap:butt;stroke-linejoin:miter;stroke-opacity:1"/>
<path class="atom-2" d="M 529.145 323.246 Q 529.145 316.446, 532.505 312.646 Q 535.865 308.846, 542.145 308.846 Q 548.425 308.846, 551.785 312.646 Q 555.145 316.446, 555.145 323.246 Q 555.145 330.126, 551.745 334.046 Q 548.345 337.926, 542.145 337.926 Q 535.905 337.926, 532.505 334.046 Q 529.145 330.166, 529.145 323.246 M 542.145 334.726 Q 546.465 334.726, 548.785 331.846 Q 551.145 328.926, 551.145 323.246 Q 551.145 317.686, 548.785 314.886 Q 546.465 312.046, 542.145 312.046 Q 537.825 312.046, 535.465 314.846 Q 533.145 317.646, 533.145 323.246 Q 533.145 328.966, 535.465 331.846 Q 537.825 334.726, 542.145 334.726 " fill="#FF0000"/>
<path class="atom-3" d="M 634.552 140.675 Q 634.552 133.875, 637.912 130.075 Q 641.272 126.275, 647.552 126.275 Q 653.832 126.275, 657.192 130.075 Q 660.552 133.875, 660.552 140.675 Q 660.552 147.555, 657.152 151.475 Q 653.752 155.355, 647.552 155.355 Q 641.312 155.355, 637.912 151.475 Q 634.552 147.595, 634.552 140.675 M 647.552 152.155 Q 651.872 152.155, 654.192 149.275 Q 656.552 146.355, 656.552 140.675 Q 656.552 135.115, 654.192 132.315 Q 651.872 129.475, 647.552 129.475 Q 643.232 129.475, 640.872 132.275 Q 638.552 135.075, 638.552 140.675 Q 638.552 146.395, 640.872 149.275 Q 643.232 152.155, 647.552 152.155 " fill="#FF0000"/>
<path class="atom-6" d="M 739.96 323.246 Q 739.96 316.446, 743.32 312.646 Q 746.68 308.846, 752.96 308.846 Q 759.24 308.846, 762.6 312.646 Q 765.96 316.446, 765.96 323.246 Q 765.96 330.126, 762.56 334.046 Q 759.16 337.926, 752.96 337.926 Q 746.72 337.926, 743.32 334.046 Q 739.96 330.166, 739.96 323.246 M 752.96 334.726 Q 757.28 334.726, 759.6 331.846 Q 761.96 328.926, 761.96 323.246 Q 761.96 317.686, 759.6 314.886 Q 757.28 312.046, 752.96 312.046 Q 748.64 312.046, 746.28 314.846 Q 743.96 317.646, 743.96 323.246 Q 743.96 328.966, 746.28 331.846 Q 748.64 334.726, 752.96 334.726 " fill="#FF0000"/>
<path class="atom-7" d="M 1627.8 271.156 L 1637.08 286.156 Q 1638 287.636, 1639.48 290.316 Q 1640.96 292.996, 1641.04 293.156 L 1641.04 271.156 L 1644.8 271.156 L 1644.8 299.476 L 1640.92 299.476 L 1630.96 283.076 Q 1629.8 281.156, 1628.56 278.956 Q 1627.36 276.756, 1627 276.076 L 1627 299.476 L 1623.32 299.476 L 1623.32 271.156 L 1627.8 271.156 " fill="#0000FF"/>
<path class="atom-7" d="M 1648.2 271.156 L 1652.04 271.156 L 1652.04 283.196 L 1666.52 283.196 L 1666.52 271.156 L 1670.36 271.156 L 1670.36 299.476 L 1666.52 299.476 L 1666.52 286.396 L 1652.04 286.396 L 1652.04 299.476 L 1648.2 299.476 L 1648.2 271.156 " fill="#0000FF"/>
<path class="atom-7" d="M 1671.73 298.482 Q 1672.41 296.713, 1674.05 295.736 Q 1675.69 294.733, 1677.96 294.733 Q 1680.78 294.733, 1682.37 296.264 Q 1683.95 297.796, 1683.95 300.515 Q 1683.95 303.287, 1681.89 305.874 Q 1679.86 308.461, 1675.64 311.524 L 1684.27 311.524 L 1684.27 313.636 L 1671.68 313.636 L 1671.68 311.867 Q 1675.16 309.385, 1677.22 307.537 Q 1679.3 305.689, 1680.31 304.026 Q 1681.31 302.363, 1681.31 300.647 Q 1681.31 298.852, 1680.41 297.848 Q 1679.52 296.845, 1677.96 296.845 Q 1676.45 296.845, 1675.45 297.452 Q 1674.45 298.06, 1673.73 299.406 L 1671.73 298.482 " fill="#0000FF"/>
<path class="atom-12" d="M 1151.57 160.273 L 1168.41 160.273 L 1168.41 163.513 L 1155.37 163.513 L 1155.37 172.113 L 1166.97 172.113 L 1166.97 175.393 L 1155.37 175.393 L 1155.37 188.593 L 1151.57 188.593 L 1151.57 160.273 " fill="#33CCCC"/>
<path class="atom-15" d="M 1550.55 52.3997 Q 1550.55 45.5997, 1553.91 41.7997 Q 1557.27 37.9997, 1563.55 37.9997 Q 1569.83 37.9997, 1573.19 41.7997 Q 1576.55 45.5997, 1576.55 52.3997 Q 1576.55 59.2797, 1573.15 63.1997 Q 1569.75 67.0797, 1563.55 67.0797 Q 1557.31 67.0797, 1553.91 63.1997 Q 1550.55 59.3197, 1550.55 52.3997 M 1563.55 63.8797 Q 1567.87 63.8797, 1570.19 60.9997 Q 1572.55 58.0797, 1572.55 52.3997 Q 1572.55 46.8397, 1570.19 44.0397 Q 1567.87 41.1997, 1563.55 41.1997 Q 1559.23 41.1997, 1556.87 43.9997 Q 1554.55 46.7997, 1554.55 52.3997 Q 1554.55 58.1197, 1556.87 60.9997 Q 1559.23 63.8797, 1563.55 63.8797 " fill="#FF0000"/>
<path class="atom-15" d="M 1579.95 38.3197 L 1583.79 38.3197 L 1583.79 50.3597 L 1598.27 50.3597 L 1598.27 38.3197 L 1602.11 38.3197 L 1602.11 66.6397 L 1598.27 66.6397 L 1598.27 53.5597 L 1583.79 53.5597 L 1583.79 66.6397 L 1579.95 66.6397 L 1579.95 38.3197 " fill="#FF0000"/>
<path class="atom-18" d="M 2553.74 271.083 Q 2553.74 264.283, 2557.1 260.483 Q 2560.46 256.683, 2566.74 256.683 Q 2573.02 256.683, 2576.38 260.483 Q 2579.74 264.283, 2579.74 271.083 Q 2579.74 277.963, 2576.34 281.883 Q 2572.94 285.763, 2566.74 285.763 Q 2560.5 285.763, 2557.1 281.883 Q 2553.74 278.003, 2553.74 271.083 M 2566.74 282.563 Q 2571.06 282.563, 2573.38 279.683 Q 2575.74 276.763, 2575.74 271.083 Q 2575.74 265.523, 2573.38 262.723 Q 2571.06 259.883, 2566.74 259.883 Q 2562.42 259.883, 2560.06 262.683 Q 2557.74 265.483, 2557.74 271.083 Q 2557.74 276.803, 2560.06 279.683 Q 2562.42 282.563, 2566.74 282.563 " fill="#FF0000"/>
<path class="atom-19" d="M 2448.33 88.5115 Q 2448.33 81.7115, 2451.69 77.9115 Q 2455.05 74.1115, 2461.33 74.1115 Q 2467.61 74.1115, 2470.97 77.9115 Q 2474.33 81.7115, 2474.33 88.5115 Q 2474.33 95.3915, 2470.93 99.3115 Q 2467.53 103.191, 2461.33 103.191 Q 2455.09 103.191, 2451.69 99.3115 Q 2448.33 95.4315, 2448.33 88.5115 M 2461.33 99.9915 Q 2465.65 99.9915, 2467.97 97.1115 Q 2470.33 94.1915, 2470.33 88.5115 Q 2470.33 82.9515, 2467.97 80.1515 Q 2465.65 77.3115, 2461.33 77.3115 Q 2457.01 77.3115, 2454.65 80.1115 Q 2452.33 82.9115, 2452.33 88.5115 Q 2452.33 94.2315, 2454.65 97.1115 Q 2457.01 99.9915, 2461.33 99.9915 " fill="#FF0000"/>
<path class="atom-19" d="M 2477.73 74.4315 L 2481.57 74.4315 L 2481.57 86.4715 L 2496.05 86.4715 L 2496.05 74.4315 L 2499.89 74.4315 L 2499.89 102.751 L 2496.05 102.751 L 2496.05 89.6715 L 2481.57 89.6715 L 2481.57 102.751 L 2477.73 102.751 L 2477.73 74.4315 " fill="#FF0000"/>
<path class="atom-22" d="M 3009.14 67.7175 Q 3009.14 60.9175, 3012.5 57.1175 Q 3015.86 53.3175, 3022.14 53.3175 Q 3028.42 53.3175, 3031.78 57.1175 Q 3035.14 60.9175, 3035.14 67.7175 Q 3035.14 74.5975, 3031.74 78.5175 Q 3028.34 82.3975, 3022.14 82.3975 Q 3015.9 82.3975, 3012.5 78.5175 Q 3009.14 74.6375, 3009.14 67.7175 M 3022.14 79.1975 Q 3026.46 79.1975, 3028.78 76.3175 Q 3031.14 73.3975, 3031.14 67.7175 Q 3031.14 62.1575, 3028.78 59.3575 Q 3026.46 56.5175, 3022.14 56.5175 Q 3017.82 56.5175, 3015.46 59.3175 Q 3013.14 62.1175, 3013.14 67.7175 Q 3013.14 73.4375, 3015.46 76.3175 Q 3017.82 79.1975, 3022.14 79.1975 " fill="#FF0000"/>
<path class="atom-23" d="M 3075.32 255.739 L 3084.6 270.739 Q 3085.52 272.219, 3087 274.899 Q 3088.48 277.579, 3088.56 277.739 L 3088.56 255.739 L 3092.32 255.739 L 3092.32 284.059 L 3088.44 284.059 L 3078.48 267.659 Q 3077.32 265.739, 3076.08 263.539 Q 3074.88 261.339, 3074.52 260.659 L 3074.52 284.059 L 3070.84 284.059 L 3070.84 255.739 L 3075.32 255.739 " fill="#0000FF"/>
<path class="atom-23" d="M 3070.5 286.891 L 3074.34 286.891 L 3074.34 298.931 L 3088.82 298.931 L 3088.82 286.891 L 3092.66 286.891 L 3092.66 315.211 L 3088.82 315.211 L 3088.82 302.131 L 3074.34 302.131 L 3074.34 315.211 L 3070.5 315.211 L 3070.5 286.891 " fill="#0000FF"/>
<path class="atom-28" d="M 3540.26 118.465 L 3557.1 118.465 L 3557.1 121.705 L 3544.06 121.705 L 3544.06 130.305 L 3555.66 130.305 L 3555.66 133.585 L 3544.06 133.585 L 3544.06 146.785 L 3540.26 146.785 L 3540.26 118.465 " fill="#33CCCC"/>
<path class="atom-31" d="M 3244.79 437.923 Q 3244.79 431.123, 3248.15 427.323 Q 3251.51 423.523, 3257.79 423.523 Q 3264.07 423.523, 3267.43 427.323 Q 3270.79 431.123, 3270.79 437.923 Q 3270.79 444.803, 3267.39 448.723 Q 3263.99 452.603, 3257.79 452.603 Q 3251.55 452.603, 3248.15 448.723 Q 3244.79 444.843, 3244.79 437.923 M 3257.79 449.403 Q 3262.11 449.403, 3264.43 446.523 Q 3266.79 443.603, 3266.79 437.923 Q 3266.79 432.363, 3264.43 429.563 Q 3262.11 426.723, 3257.79 426.723 Q 3253.47 426.723, 3251.11 429.523 Q 3248.79 432.323, 3248.79 437.923 Q 3248.79 443.643, 3251.11 446.523 Q 3253.47 449.403, 3257.79 449.403 " fill="#FF0000"/>
<path class="atom-31" d="M 3274.19 423.843 L 3278.03 423.843 L 3278.03 435.883 L 3292.51 435.883 L 3292.51 423.843 L 3296.35 423.843 L 3296.35 452.163 L 3292.51 452.163 L 3292.51 439.083 L 3278.03 439.083 L 3278.03 452.163 L 3274.19 452.163 L 3274.19 423.843 " fill="#FF0000"/>
<path class="note" d="M 423.104 163.683 L 426.204 163.683 L 426.204 153.103 L 422.784 154.163 L 422.324 152.983 L 426.664 151.043 L 428.084 151.283 L 428.084 163.683 L 430.864 163.683 L 430.864 165.283 L 423.104 165.283 L 423.104 163.683 " fill="#000000"/>
<path class="note" d="M 537.415 176.846 Q 537.935 175.506, 539.175 174.766 Q 540.415 174.006, 542.135 174.006 Q 544.275 174.006, 545.475 175.166 Q 546.675 176.326, 546.675 178.386 Q 546.675 180.486, 545.115 182.446 Q 543.575 184.406, 540.375 186.726 L 546.915 186.726 L 546.915 188.326 L 537.375 188.326 L 537.375 186.986 Q 540.015 185.106, 541.575 183.706 Q 543.155 182.306, 543.915 181.046 Q 544.675 179.786, 544.675 178.486 Q 544.675 177.126, 543.995 176.366 Q 543.315 175.606, 542.135 175.606 Q 540.995 175.606, 540.235 176.066 Q 539.475 176.526, 538.935 177.546 L 537.415 176.846 " fill="#000000"/>
<path class="note" d="M 544.185 363.438 Q 545.565 363.838, 546.225 364.738 Q 546.905 365.618, 546.905 367.018 Q 546.905 368.218, 546.305 369.158 Q 545.705 370.078, 544.605 370.598 Q 543.505 371.098, 542.065 371.098 Q 540.545 371.098, 539.405 370.578 Q 538.285 370.038, 537.385 368.958 L 538.525 367.798 Q 539.405 368.758, 540.145 369.138 Q 540.885 369.498, 542.065 369.498 Q 543.345 369.498, 544.125 368.818 Q 544.905 368.118, 544.905 366.998 Q 544.905 365.558, 544.085 364.918 Q 543.285 364.258, 541.545 364.258 L 540.525 364.258 L 540.525 362.818 L 541.425 362.818 Q 542.965 362.798, 543.785 362.138 Q 544.605 361.458, 544.605 360.198 Q 544.605 359.278, 543.925 358.738 Q 543.245 358.178, 542.085 358.178 Q 540.905 358.178, 540.165 358.598 Q 539.445 359.018, 538.885 360.078 L 537.505 359.338 Q 538.005 358.158, 539.205 357.378 Q 540.405 356.578, 542.085 356.578 Q 544.165 356.578, 545.385 357.558 Q 546.605 358.538, 546.605 360.198 Q 546.605 361.338, 545.985 362.158 Q 545.365 362.978, 544.185 363.438 " fill="#000000"/>
<path class="note" d="M 634.202 105.583 L 637.302 105.583 L 637.302 95.0033 L 633.882 96.0633 L 633.422 94.8833 L 637.762 92.9433 L 639.182 93.1833 L 639.182 105.583 L 641.962 105.583 L 641.962 107.183 L 634.202 107.183 L 634.202 105.583 " fill="#000000"/>
<path class="note" d="M 648.862 98.3433 Q 650.102 98.3433, 651.082 98.8833 Q 652.062 99.4233, 652.602 100.403 Q 653.142 101.383, 653.142 102.623 Q 653.142 104.003, 652.522 105.083 Q 651.922 106.143, 650.842 106.743 Q 649.762 107.343, 648.382 107.343 Q 645.862 107.343, 644.582 105.643 Q 643.322 103.923, 643.322 100.523 Q 643.322 96.7633, 644.882 94.8233 Q 646.462 92.8633, 649.482 92.8633 Q 650.362 92.8633, 651.102 93.0633 Q 651.862 93.2633, 652.582 93.6833 L 651.802 95.0233 Q 650.762 94.4633, 649.502 94.4633 Q 647.502 94.4633, 646.482 95.7633 Q 645.462 97.0433, 645.342 99.7033 Q 646.062 99.0433, 646.962 98.7033 Q 647.882 98.3433, 648.862 98.3433 M 648.402 105.703 Q 649.162 105.703, 649.782 105.303 Q 650.422 104.903, 650.782 104.203 Q 651.142 103.503, 651.142 102.643 Q 651.142 101.383, 650.442 100.663 Q 649.742 99.9433, 648.502 99.9433 Q 647.642 99.9433, 646.782 100.303 Q 645.942 100.643, 645.342 101.243 Q 645.422 103.583, 646.162 104.643 Q 646.902 105.703, 648.402 105.703 " fill="#000000"/>
<path class="note" d="M 739.45 166.401 L 742.55 166.401 L 742.55 155.821 L 739.13 156.881 L 738.67 155.701 L 743.01 153.761 L 744.43 154.001 L 744.43 166.401 L 747.21 166.401 L 747.21 168.001 L 739.45 168.001 L 739.45 166.401 " fill="#000000"/>
<path class="note" d="M 757.01 163.141 L 758.71 163.141 L 758.71 164.741 L 757.01 164.741 L 757.01 168.001 L 755.13 168.001 L 755.13 164.741 L 747.81 164.741 L 747.81 163.481 L 754.01 153.841 L 757.01 153.841 L 757.01 163.141 M 750.13 163.141 L 755.13 163.141 L 755.13 155.121 L 750.13 163.141 " fill="#000000"/>
<path class="note" d="M 835.285 128.587 L 838.385 128.587 L 838.385 118.007 L 834.965 119.067 L 834.505 117.887 L 838.845 115.947 L 840.265 116.187 L 840.265 128.587 L 843.045 128.587 L 843.045 130.187 L 835.285 130.187 L 835.285 128.587 " fill="#000000"/>
<path class="note" d="M 850.685 122.727 Q 852.065 123.127, 852.725 124.027 Q 853.405 124.907, 853.405 126.307 Q 853.405 127.507, 852.805 128.447 Q 852.205 129.367, 851.105 129.887 Q 850.005 130.387, 848.565 130.387 Q 847.045 130.387, 845.905 129.867 Q 844.785 129.327, 843.885 128.247 L 845.025 127.087 Q 845.905 128.047, 846.645 128.427 Q 847.385 128.787, 848.565 128.787 Q 849.845 128.787, 850.625 128.107 Q 851.405 127.407, 851.405 126.287 Q 851.405 124.847, 850.585 124.207 Q 849.785 123.547, 848.045 123.547 L 847.025 123.547 L 847.025 122.107 L 847.925 122.107 Q 849.465 122.087, 850.285 121.427 Q 851.105 120.747, 851.105 119.487 Q 851.105 118.567, 850.425 118.027 Q 849.745 117.467, 848.585 117.467 Q 847.405 117.467, 846.665 117.887 Q 845.945 118.307, 845.385 119.367 L 844.005 118.627 Q 844.505 117.447, 845.705 116.667 Q 846.905 115.867, 848.585 115.867 Q 850.665 115.867, 851.885 116.847 Q 853.105 117.827, 853.105 119.487 Q 853.105 120.627, 852.485 121.447 Q 851.865 122.267, 850.685 122.727 " fill="#000000"/>
<path class="note" d="M 739.95 369.258 L 743.05 369.258 L 743.05 358.678 L 739.63 359.738 L 739.17 358.558 L 743.51 356.618 L 744.93 356.858 L 744.93 369.258 L 747.71 369.258 L 747.71 370.858 L 739.95 370.858 L 739.95 369.258 " fill="#000000"/>
<path class="note" d="M 753.77 361.998 Q 755.01 361.998, 756.03 362.538 Q 757.05 363.058, 757.63 364.058 Q 758.21 365.038, 758.21 366.378 Q 758.21 367.838, 757.49 368.898 Q 756.79 369.938, 755.63 370.478 Q 754.47 371.018, 753.15 371.018 Q 751.85 371.018, 750.65 370.538 Q 749.45 370.058, 748.63 369.138 L 749.83 367.898 Q 750.49 368.618, 751.39 369.018 Q 752.29 369.398, 753.21 369.398 Q 754.47 369.398, 755.33 368.618 Q 756.21 367.838, 756.21 366.418 Q 756.21 364.918, 755.33 364.218 Q 754.47 363.498, 753.09 363.498 Q 751.85 363.498, 750.47 364.038 L 749.37 363.518 L 750.05 356.698 L 757.33 356.698 L 757.13 358.298 L 751.69 358.298 L 751.27 362.498 Q 752.53 361.998, 753.77 361.998 " fill="#000000"/>
<path class="note" d="M 1665.56 257.943 L 1667.26 257.943 L 1667.26 259.543 L 1665.56 259.543 L 1665.56 262.803 L 1663.68 262.803 L 1663.68 259.543 L 1656.36 259.543 L 1656.36 258.283 L 1662.56 248.643 L 1665.56 248.643 L 1665.56 257.943 M 1658.68 257.943 L 1663.68 257.943 L 1663.68 249.923 L 1658.68 257.943 " fill="#000000"/>
<path class="note" d="M 1521.76 275.231 Q 1523 275.231, 1524.02 275.771 Q 1525.04 276.291, 1525.62 277.291 Q 1526.2 278.271, 1526.2 279.611 Q 1526.2 281.071, 1525.48 282.131 Q 1524.78 283.171, 1523.62 283.711 Q 1522.46 284.251, 1521.14 284.251 Q 1519.84 284.251, 1518.64 283.771 Q 1517.44 283.291, 1516.62 282.371 L 1517.82 281.131 Q 1518.48 281.851, 1519.38 282.251 Q 1520.28 282.631, 1521.2 282.631 Q 1522.46 282.631, 1523.32 281.851 Q 1524.2 281.071, 1524.2 279.651 Q 1524.2 278.151, 1523.32 277.451 Q 1522.46 276.731, 1521.08 276.731 Q 1519.84 276.731, 1518.46 277.271 L 1517.36 276.751 L 1518.04 269.931 L 1525.32 269.931 L 1525.12 271.531 L 1519.68 271.531 L 1519.26 275.731 Q 1520.52 275.231, 1521.76 275.231 " fill="#000000"/>
<path class="note" d="M 1438.78 364.108 Q 1440.02 364.108, 1441 364.648 Q 1441.98 365.188, 1442.52 366.168 Q 1443.06 367.148, 1443.06 368.388 Q 1443.06 369.768, 1442.44 370.848 Q 1441.84 371.908, 1440.76 372.508 Q 1439.68 373.108, 1438.3 373.108 Q 1435.78 373.108, 1434.5 371.408 Q 1433.24 369.688, 1433.24 366.288 Q 1433.24 362.528, 1434.8 360.588 Q 1436.38 358.628, 1439.4 358.628 Q 1440.28 358.628, 1441.02 358.828 Q 1441.78 359.028, 1442.5 359.448 L 1441.72 360.788 Q 1440.68 360.228, 1439.42 360.228 Q 1437.42 360.228, 1436.4 361.528 Q 1435.38 362.808, 1435.26 365.468 Q 1435.98 364.808, 1436.88 364.468 Q 1437.8 364.108, 1438.78 364.108 M 1438.32 371.468 Q 1439.08 371.468, 1439.7 371.068 Q 1440.34 370.668, 1440.7 369.968 Q 1441.06 369.268, 1441.06 368.408 Q 1441.06 367.148, 1440.36 366.428 Q 1439.66 365.708, 1438.42 365.708 Q 1437.56 365.708, 1436.7 366.068 Q 1435.86 366.408, 1435.26 367.008 Q 1435.34 369.348, 1436.08 370.408 Q 1436.82 371.468, 1438.32 371.468 " fill="#000000"/>
<path class="note" d="M 1302.6 327.968 L 1295.18 327.968 L 1295.18 326.368 L 1304.58 326.368 L 1304.58 327.788 L 1298.86 340.528 L 1296.94 340.528 L 1302.6 327.968 " fill="#000000"/>
<path class="note" d="M 1266.85 216.61 Q 1268.15 217.17, 1268.89 218.01 Q 1269.63 218.83, 1269.63 220.23 Q 1269.63 221.43, 1269.01 222.37 Q 1268.39 223.29, 1267.27 223.81 Q 1266.17 224.31, 1264.71 224.31 Q 1262.35 224.31, 1260.99 223.23 Q 1259.63 222.13, 1259.63 220.23 Q 1259.63 219.07, 1260.23 218.21 Q 1260.83 217.33, 1262.07 216.67 Q 1261.15 216.15, 1260.65 215.39 Q 1260.15 214.61, 1260.15 213.41 Q 1260.15 211.75, 1261.35 210.77 Q 1262.57 209.79, 1264.63 209.79 Q 1266.69 209.79, 1267.89 210.77 Q 1269.11 211.75, 1269.11 213.41 Q 1269.11 214.45, 1268.53 215.23 Q 1267.97 215.99, 1266.85 216.61 M 1264.63 211.29 Q 1263.45 211.29, 1262.79 211.85 Q 1262.15 212.41, 1262.15 213.41 Q 1262.15 214.15, 1262.59 214.65 Q 1263.03 215.13, 1263.65 215.41 Q 1264.29 215.69, 1265.51 216.11 Q 1266.37 215.51, 1266.73 214.87 Q 1267.11 214.23, 1267.11 213.41 Q 1267.11 212.41, 1266.45 211.85 Q 1265.81 211.29, 1264.63 211.29 M 1264.71 222.81 Q 1266.03 222.81, 1266.83 222.11 Q 1267.63 221.39, 1267.63 220.21 Q 1267.63 219.45, 1267.21 218.97 Q 1266.79 218.49, 1266.15 218.21 Q 1265.53 217.93, 1264.41 217.57 L 1263.51 217.27 Q 1262.51 217.87, 1262.07 218.59 Q 1261.63 219.29, 1261.63 220.21 Q 1261.63 221.39, 1262.47 222.11 Q 1263.31 222.81, 1264.71 222.81 " fill="#000000"/>
<path class="note" d="M 1120.34 158.033 Q 1122.86 158.033, 1124.12 159.753 Q 1125.4 161.453, 1125.4 164.853 Q 1125.4 168.613, 1123.82 170.573 Q 1122.26 172.513, 1119.24 172.513 Q 1118.36 172.513, 1117.6 172.313 Q 1116.86 172.113, 1116.14 171.693 L 1116.92 170.353 Q 1117.96 170.913, 1119.22 170.913 Q 1121.22 170.913, 1122.24 169.633 Q 1123.26 168.333, 1123.38 165.673 Q 1122.66 166.333, 1121.74 166.693 Q 1120.84 167.033, 1119.86 167.033 Q 1118.62 167.033, 1117.64 166.493 Q 1116.66 165.953, 1116.12 164.973 Q 1115.58 163.993, 1115.58 162.753 Q 1115.58 161.373, 1116.18 160.313 Q 1116.8 159.233, 1117.88 158.633 Q 1118.96 158.033, 1120.34 158.033 M 1117.58 162.733 Q 1117.58 163.993, 1118.28 164.713 Q 1118.98 165.433, 1120.22 165.433 Q 1121.08 165.433, 1121.92 165.093 Q 1122.78 164.733, 1123.38 164.133 Q 1123.3 161.793, 1122.56 160.733 Q 1121.82 159.673, 1120.32 159.673 Q 1119.56 159.673, 1118.92 160.073 Q 1118.3 160.473, 1117.94 161.173 Q 1117.58 161.873, 1117.58 162.733 " fill="#000000"/>
<path class="note" d="M 1342.35 99.5199 L 1345.45 99.5199 L 1345.45 88.9399 L 1342.03 89.9999 L 1341.57 88.8199 L 1345.91 86.8799 L 1347.33 87.1199 L 1347.33 99.5199 L 1350.11 99.5199 L 1350.11 101.12 L 1342.35 101.12 L 1342.35 99.5199 " fill="#000000"/>
<path class="note" d="M 1356.51 101.28 Q 1353.91 101.28, 1352.61 99.3599 Q 1351.33 97.4399, 1351.33 94.0199 Q 1351.33 90.5999, 1352.61 88.6999 Q 1353.89 86.7999, 1356.51 86.7999 Q 1359.13 86.7999, 1360.41 88.6999 Q 1361.69 90.5999, 1361.69 94.0199 Q 1361.69 97.4399, 1360.39 99.3599 Q 1359.11 101.28, 1356.51 101.28 M 1356.51 99.6799 Q 1358.05 99.6799, 1358.87 98.2599 Q 1359.69 96.8199, 1359.69 94.0199 Q 1359.69 91.2399, 1358.87 89.8199 Q 1358.05 88.3999, 1356.51 88.3999 Q 1354.99 88.3999, 1354.15 89.8199 Q 1353.33 91.2399, 1353.33 94.0199 Q 1353.33 96.8199, 1354.15 98.2599 Q 1354.99 99.6799, 1356.51 99.6799 " fill="#000000"/>
<path class="note" d="M 1461.84 127.201 L 1464.94 127.201 L 1464.94 116.621 L 1461.52 117.681 L 1461.06 116.501 L 1465.4 114.561 L 1466.82 114.801 L 1466.82 127.201 L 1469.6 127.201 L 1469.6 128.801 L 1461.84 128.801 L 1461.84 127.201 " fill="#000000"/>
<path class="note" d="M 1471.46 127.201 L 1474.56 127.201 L 1474.56 116.621 L 1471.14 117.681 L 1470.68 116.501 L 1475.02 114.561 L 1476.44 114.801 L 1476.44 127.201 L 1479.22 127.201 L 1479.22 128.801 L 1471.46 128.801 L 1471.46 127.201 " fill="#000000"/>
<path class="note" d="M 1578.28 28.2873 L 1581.38 28.2873 L 1581.38 17.7073 L 1577.96 18.7673 L 1577.5 17.5873 L 1581.84 15.6473 L 1583.26 15.8873 L 1583.26 28.2873 L 1586.04 28.2873 L 1586.04 29.8873 L 1578.28 29.8873 L 1578.28 28.2873 " fill="#000000"/>
<path class="note" d="M 1587.08 18.4073 Q 1587.6 17.0673, 1588.84 16.3273 Q 1590.08 15.5673, 1591.8 15.5673 Q 1593.94 15.5673, 1595.14 16.7273 Q 1596.34 17.8873, 1596.34 19.9473 Q 1596.34 22.0473, 1594.78 24.0073 Q 1593.24 25.9673, 1590.04 28.2873 L 1596.58 28.2873 L 1596.58 29.8873 L 1587.04 29.8873 L 1587.04 28.5473 Q 1589.68 26.6673, 1591.24 25.2673 Q 1592.82 23.8673, 1593.58 22.6073 Q 1594.34 21.3473, 1594.34 20.0473 Q 1594.34 18.6873, 1593.66 17.9273 Q 1592.98 17.1673, 1591.8 17.1673 Q 1590.66 17.1673, 1589.9 17.6273 Q 1589.14 18.0873, 1588.6 19.1073 L 1587.08 18.4073 " fill="#000000"/>
<path class="note" d="M 2353.13 294.131 L 2356.23 294.131 L 2356.23 283.551 L 2352.81 284.611 L 2352.35 283.431 L 2356.69 281.491 L 2358.11 281.731 L 2358.11 294.131 L 2360.89 294.131 L 2360.89 295.731 L 2353.13 295.731 L 2353.13 294.131 " fill="#000000"/>
<path class="note" d="M 2368.53 288.271 Q 2369.91 288.671, 2370.57 289.571 Q 2371.25 290.451, 2371.25 291.851 Q 2371.25 293.051, 2370.65 293.991 Q 2370.05 294.911, 2368.95 295.431 Q 2367.85 295.931, 2366.41 295.931 Q 2364.89 295.931, 2363.75 295.411 Q 2362.63 294.871, 2361.73 293.791 L 2362.87 292.631 Q 2363.75 293.591, 2364.49 293.971 Q 2365.23 294.331, 2366.41 294.331 Q 2367.69 294.331, 2368.47 293.651 Q 2369.25 292.951, 2369.25 291.831 Q 2369.25 290.391, 2368.43 289.751 Q 2367.63 289.091, 2365.89 289.091 L 2364.87 289.091 L 2364.87 287.651 L 2365.77 287.651 Q 2367.31 287.631, 2368.13 286.971 Q 2368.95 286.291, 2368.95 285.031 Q 2368.95 284.111, 2368.27 283.571 Q 2367.59 283.011, 2366.43 283.011 Q 2365.25 283.011, 2364.51 283.431 Q 2363.79 283.851, 2363.23 284.911 L 2361.85 284.171 Q 2362.35 282.991, 2363.55 282.211 Q 2364.75 281.411, 2366.43 281.411 Q 2368.51 281.411, 2369.73 282.391 Q 2370.95 283.371, 2370.95 285.031 Q 2370.95 286.171, 2370.33 286.991 Q 2369.71 287.811, 2368.53 288.271 " fill="#000000"/>
<path class="note" d="M 2430.26 205.523 L 2433.36 205.523 L 2433.36 194.943 L 2429.94 196.003 L 2429.48 194.823 L 2433.82 192.883 L 2435.24 193.123 L 2435.24 205.523 L 2438.02 205.523 L 2438.02 207.123 L 2430.26 207.123 L 2430.26 205.523 " fill="#000000"/>
<path class="note" d="M 2447.82 202.263 L 2449.52 202.263 L 2449.52 203.863 L 2447.82 203.863 L 2447.82 207.123 L 2445.94 207.123 L 2445.94 203.863 L 2438.62 203.863 L 2438.62 202.603 L 2444.82 192.963 L 2447.82 192.963 L 2447.82 202.263 M 2440.94 202.263 L 2445.94 202.263 L 2445.94 194.243 L 2440.94 202.263 " fill="#000000"/>
<path class="note" d="M 2588.87 296.809 L 2591.97 296.809 L 2591.97 286.229 L 2588.55 287.289 L 2588.09 286.109 L 2592.43 284.169 L 2593.85 284.409 L 2593.85 296.809 L 2596.63 296.809 L 2596.63 298.409 L 2588.87 298.409 L 2588.87 296.809 " fill="#000000"/>
<path class="note" d="M 2602.69 289.549 Q 2603.93 289.549, 2604.95 290.089 Q 2605.97 290.609, 2606.55 291.609 Q 2607.13 292.589, 2607.13 293.929 Q 2607.13 295.389, 2606.41 296.449 Q 2605.71 297.489, 2604.55 298.029 Q 2603.39 298.569, 2602.07 298.569 Q 2600.77 298.569, 2599.57 298.089 Q 2598.37 297.609, 2597.55 296.689 L 2598.75 295.449 Q 2599.41 296.169, 2600.31 296.569 Q 2601.21 296.949, 2602.13 296.949 Q 2603.39 296.949, 2604.25 296.169 Q 2605.13 295.389, 2605.13 293.969 Q 2605.13 292.469, 2604.25 291.769 Q 2603.39 291.049, 2602.01 291.049 Q 2600.77 291.049, 2599.39 291.589 L 2598.29 291.069 L 2598.97 284.249 L 2606.25 284.249 L 2606.05 285.849 L 2600.61 285.849 L 2600.19 290.049 Q 2601.45 289.549, 2602.69 289.549 " fill="#000000"/>
<path class="note" d="M 2447.98 53.42 L 2451.08 53.42 L 2451.08 42.84 L 2447.66 43.9 L 2447.2 42.72 L 2451.54 40.78 L 2452.96 41.02 L 2452.96 53.42 L 2455.74 53.42 L 2455.74 55.02 L 2447.98 55.02 L 2447.98 53.42 " fill="#000000"/>
<path class="note" d="M 2462.64 46.18 Q 2463.88 46.18, 2464.86 46.72 Q 2465.84 47.26, 2466.38 48.24 Q 2466.92 49.22, 2466.92 50.46 Q 2466.92 51.84, 2466.3 52.92 Q 2465.7 53.98, 2464.62 54.58 Q 2463.54 55.18, 2462.16 55.18 Q 2459.64 55.18, 2458.36 53.48 Q 2457.1 51.76, 2457.1 48.36 Q 2457.1 44.6, 2458.66 42.66 Q 2460.24 40.7, 2463.26 40.7 Q 2464.14 40.7, 2464.88 40.9 Q 2465.64 41.1, 2466.36 41.52 L 2465.58 42.86 Q 2464.54 42.3, 2463.28 42.3 Q 2461.28 42.3, 2460.26 43.6 Q 2459.24 44.88, 2459.12 47.54 Q 2459.84 46.88, 2460.74 46.54 Q 2461.66 46.18, 2462.64 46.18 M 2462.18 53.54 Q 2462.94 53.54, 2463.56 53.14 Q 2464.2 52.74, 2464.56 52.04 Q 2464.92 51.34, 2464.92 50.48 Q 2464.92 49.22, 2464.22 48.5 Q 2463.52 47.78, 2462.28 47.78 Q 2461.42 47.78, 2460.56 48.14 Q 2459.72 48.48, 2459.12 49.08 Q 2459.2 51.42, 2459.94 52.48 Q 2460.68 53.54, 2462.18 53.54 " fill="#000000"/>
<path class="note" d="M 2878.92 245.229 L 2882.02 245.229 L 2882.02 234.649 L 2878.6 235.709 L 2878.14 234.529 L 2882.48 232.589 L 2883.9 232.829 L 2883.9 245.229 L 2886.68 245.229 L 2886.68 246.829 L 2878.92 246.829 L 2878.92 245.229 " fill="#000000"/>
<path class="note" d="M 2983.96 201.323 Q 2984.48 199.983, 2985.72 199.243 Q 2986.96 198.483, 2988.68 198.483 Q 2990.82 198.483, 2992.02 199.643 Q 2993.22 200.803, 2993.22 202.863 Q 2993.22 204.963, 2991.66 206.923 Q 2990.12 208.883, 2986.92 211.203 L 2993.46 211.203 L 2993.46 212.803 L 2983.92 212.803 L 2983.92 211.463 Q 2986.56 209.583, 2988.12 208.183 Q 2989.7 206.783, 2990.46 205.523 Q 2991.22 204.263, 2991.22 202.963 Q 2991.22 201.603, 2990.54 200.843 Q 2989.86 200.083, 2988.68 200.083 Q 2987.54 200.083, 2986.78 200.543 Q 2986.02 201.003, 2985.48 202.023 L 2983.96 201.323 " fill="#000000"/>
<path class="note" d="M 3033.73 27.9074 Q 3035.11 28.3074, 3035.77 29.2074 Q 3036.45 30.0874, 3036.45 31.4874 Q 3036.45 32.6874, 3035.85 33.6274 Q 3035.25 34.5474, 3034.15 35.0674 Q 3033.05 35.5674, 3031.61 35.5674 Q 3030.09 35.5674, 3028.95 35.0474 Q 3027.83 34.5074, 3026.93 33.4274 L 3028.07 32.2674 Q 3028.95 33.2274, 3029.69 33.6074 Q 3030.43 33.9674, 3031.61 33.9674 Q 3032.89 33.9674, 3033.67 33.2874 Q 3034.45 32.5874, 3034.45 31.4674 Q 3034.45 30.0274, 3033.63 29.3874 Q 3032.83 28.7274, 3031.09 28.7274 L 3030.07 28.7274 L 3030.07 27.2874 L 3030.97 27.2874 Q 3032.51 27.2674, 3033.33 26.6074 Q 3034.15 25.9274, 3034.15 24.6674 Q 3034.15 23.7474, 3033.47 23.2074 Q 3032.79 22.6474, 3031.63 22.6474 Q 3030.45 22.6474, 3029.71 23.0674 Q 3028.99 23.4874, 3028.43 24.5474 L 3027.05 23.8074 Q 3027.55 22.6274, 3028.75 21.8474 Q 3029.95 21.0474, 3031.63 21.0474 Q 3033.71 21.0474, 3034.93 22.0274 Q 3036.15 23.0074, 3036.15 24.6674 Q 3036.15 25.8074, 3035.53 26.6274 Q 3034.91 27.4474, 3033.73 27.9074 " fill="#000000"/>
<path class="note" d="M 3114.7 300.11 L 3116.4 300.11 L 3116.4 301.71 L 3114.7 301.71 L 3114.7 304.97 L 3112.82 304.97 L 3112.82 301.71 L 3105.5 301.71 L 3105.5 300.45 L 3111.7 290.81 L 3114.7 290.81 L 3114.7 300.11 M 3107.82 300.11 L 3112.82 300.11 L 3112.82 292.09 L 3107.82 300.11 " fill="#000000"/>
<path class="note" d="M 3184.02 219.805 Q 3185.26 219.805, 3186.28 220.345 Q 3187.3 220.865, 3187.88 221.865 Q 3188.46 222.845, 3188.46 224.185 Q 3188.46 225.645, 3187.74 226.705 Q 3187.04 227.745, 3185.88 228.285 Q 3184.72 228.825, 3183.4 228.825 Q 3182.1 228.825, 3180.9 228.345 Q 3179.7 227.865, 3178.88 226.945 L 3180.08 225.705 Q 3180.74 226.425, 3181.64 226.825 Q 3182.54 227.205, 3183.46 227.205 Q 3184.72 227.205, 3185.58 226.425 Q 3186.46 225.645, 3186.46 224.225 Q 3186.46 222.725, 3185.58 222.025 Q 3184.72 221.305, 3183.34 221.305 Q 3182.1 221.305, 3180.72 221.845 L 3179.62 221.325 L 3180.3 214.505 L 3187.58 214.505 L 3187.38 216.105 L 3181.94 216.105 L 3181.52 220.305 Q 3182.78 219.805, 3184.02 219.805 " fill="#000000"/>
<path class="note" d="M 3212.97 101.615 Q 3214.21 101.615, 3215.19 102.155 Q 3216.17 102.695, 3216.71 103.675 Q 3217.25 104.655, 3217.25 105.895 Q 3217.25 107.275, 3216.63 108.355 Q 3216.03 109.415, 3214.95 110.015 Q 3213.87 110.615, 3212.49 110.615 Q 3209.97 110.615, 3208.69 108.915 Q 3207.43 107.195, 3207.43 103.795 Q 3207.43 100.035, 3208.99 98.0951 Q 3210.57 96.1351, 3213.59 96.1351 Q 3214.47 96.1351, 3215.21 96.3351 Q 3215.97 96.5351, 3216.69 96.9551 L 3215.91 98.2951 Q 3214.87 97.7351, 3213.61 97.7351 Q 3211.61 97.7351, 3210.59 99.0351 Q 3209.57 100.315, 3209.45 102.975 Q 3210.17 102.315, 3211.07 101.975 Q 3211.99 101.615, 3212.97 101.615 M 3212.51 108.975 Q 3213.27 108.975, 3213.89 108.575 Q 3214.53 108.175, 3214.89 107.475 Q 3215.25 106.775, 3215.25 105.915 Q 3215.25 104.655, 3214.55 103.935 Q 3213.85 103.215, 3212.61 103.215 Q 3211.75 103.215, 3210.89 103.575 Q 3210.05 103.915, 3209.45 104.515 Q 3209.53 106.855, 3210.27 107.915 Q 3211.01 108.975, 3212.51 108.975 " fill="#000000"/>
<path class="note" d="M 3351.29 57.7767 L 3343.87 57.7767 L 3343.87 56.1767 L 3353.27 56.1767 L 3353.27 57.5967 L 3347.55 70.3367 L 3345.63 70.3367 L 3351.29 57.7767 " fill="#000000"/>
<path class="note" d="M 3438.9 146.888 Q 3440.2 147.448, 3440.94 148.288 Q 3441.68 149.108, 3441.68 150.508 Q 3441.68 151.708, 3441.06 152.648 Q 3440.44 153.568, 3439.32 154.088 Q 3438.22 154.588, 3436.76 154.588 Q 3434.4 154.588, 3433.04 153.508 Q 3431.68 152.408, 3431.68 150.508 Q 3431.68 149.348, 3432.28 148.488 Q 3432.88 147.608, 3434.12 146.948 Q 3433.2 146.428, 3432.7 145.668 Q 3432.2 144.888, 3432.2 143.688 Q 3432.2 142.028, 3433.4 141.048 Q 3434.62 140.068, 3436.68 140.068 Q 3438.74 140.068, 3439.94 141.048 Q 3441.16 142.028, 3441.16 143.688 Q 3441.16 144.728, 3440.58 145.508 Q 3440.02 146.268, 3438.9 146.888 M 3436.68 141.568 Q 3435.5 141.568, 3434.84 142.128 Q 3434.2 142.688, 3434.2 143.688 Q 3434.2 144.428, 3434.64 144.928 Q 3435.08 145.408, 3435.7 145.688 Q 3436.34 145.968, 3437.56 146.388 Q 3438.42 145.788, 3438.78 145.148 Q 3439.16 144.508, 3439.16 143.688 Q 3439.16 142.688, 3438.5 142.128 Q 3437.86 141.568, 3436.68 141.568 M 3436.76 153.088 Q 3438.08 153.088, 3438.88 152.388 Q 3439.68 151.668, 3439.68 150.488 Q 3439.68 149.728, 3439.26 149.248 Q 3438.84 148.768, 3438.2 148.488 Q 3437.58 148.208, 3436.46 147.848 L 3435.56 147.548 Q 3434.56 148.148, 3434.12 148.868 Q 3433.68 149.568, 3433.68 150.488 Q 3433.68 151.668, 3434.52 152.388 Q 3435.36 153.088, 3436.76 153.088 " fill="#000000"/>
<path class="note" d="M 3587.46 114.025 Q 3589.98 114.025, 3591.24 115.745 Q 3592.52 117.445, 3592.52 120.845 Q 3592.52 124.605, 3590.94 126.565 Q 3589.38 128.505, 3586.36 128.505 Q 3585.48 128.505, 3584.72 128.305 Q 3583.98 128.105, 3583.26 127.685 L 3584.04 126.345 Q 3585.08 126.905, 3586.34 126.905 Q 3588.34 126.905, 3589.36 125.625 Q 3590.38 124.325, 3590.5 121.665 Q 3589.78 122.325, 3588.86 122.685 Q 3587.96 123.025, 3586.98 123.025 Q 3585.74 123.025, 3584.76 122.485 Q 3583.78 121.945, 3583.24 120.965 Q 3582.7 119.985, 3582.7 118.745 Q 3582.7 117.365, 3583.3 116.305 Q 3583.92 115.225, 3585 114.625 Q 3586.08 114.025, 3587.46 114.025 M 3584.7 118.725 Q 3584.7 119.985, 3585.4 120.705 Q 3586.1 121.425, 3587.34 121.425 Q 3588.2 121.425, 3589.04 121.085 Q 3589.9 120.725, 3590.5 120.125 Q 3590.42 117.785, 3589.68 116.725 Q 3588.94 115.665, 3587.44 115.665 Q 3586.68 115.665, 3586.04 116.065 Q 3585.42 116.465, 3585.06 117.165 Q 3584.7 117.865, 3584.7 118.725 " fill="#000000"/>
<path class="note" d="M 3404.37 304.789 L 3407.47 304.789 L 3407.47 294.209 L 3404.05 295.269 L 3403.59 294.089 L 3407.93 292.149 L 3409.35 292.389 L 3409.35 304.789 L 3412.13 304.789 L 3412.13 306.389 L 3404.37 306.389 L 3404.37 304.789 " fill="#000000"/>
<path class="note" d="M 3418.53 306.549 Q 3415.93 306.549, 3414.63 304.629 Q 3413.35 302.709, 3413.35 299.289 Q 3413.35 295.869, 3414.63 293.969 Q 3415.91 292.069, 3418.53 292.069 Q 3421.15 292.069, 3422.43 293.969 Q 3423.71 295.869, 3423.71 299.289 Q 3423.71 302.709, 3422.41 304.629 Q 3421.13 306.549, 3418.53 306.549 M 3418.53 304.949 Q 3420.07 304.949, 3420.89 303.529 Q 3421.71 302.089, 3421.71 299.289 Q 3421.71 296.509, 3420.89 295.089 Q 3420.07 293.669, 3418.53 293.669 Q 3417.01 293.669, 3416.17 295.089 Q 3415.35 296.509, 3415.35 299.289 Q 3415.35 302.089, 3416.17 303.529 Q 3417.01 304.949, 3418.53 304.949 " fill="#000000"/>
<path class="note" d="M 3254.43 330.792 L 3257.53 330.792 L 3257.53 320.212 L 3254.11 321.272 L 3253.65 320.092 L 3257.99 318.152 L 3259.41 318.392 L 3259.41 330.792 L 3262.19 330.792 L 3262.19 332.392 L 3254.43 332.392 L 3254.43 330.792 " fill="#000000"/>
<path class="note" d="M 3264.05 330.792 L 3267.15 330.792 L 3267.15 320.212 L 3263.73 321.272 L 3263.27 320.092 L 3267.61 318.152 L 3269.03 318.392 L 3269.03 330.792 L 3271.81 330.792 L 3271.81 332.392 L 3264.05 332.392 L 3264.05 330.792 " fill="#000000"/>
<path class="note" d="M 3235.21 482.833 L 3238.31 482.833 L 3238.31 472.253 L 3234.89 473.313 L 3234.43 472.133 L 3238.77 470.193 L 3240.19 470.433 L 3240.19 482.833 L 3242.97 482.833 L 3242.97 484.433 L 3235.21 484.433 L 3235.21 482.833 " fill="#000000"/>
<path class="note" d="M 3244.01 472.953 Q 3244.53 471.613, 3245.77 470.873 Q 3247.01 470.113, 3248.73 470.113 Q 3250.87 470.113, 3252.07 471.273 Q 3253.27 472.433, 3253.27 474.493 Q 3253.27 476.593, 3251.71 478.553 Q 3250.17 480.513, 3246.97 482.833 L 3253.51 482.833 L 3253.51 484.433 L 3243.97 484.433 L 3243.97 483.093 Q 3246.61 481.213, 3248.17 479.813 Q 3249.75 478.413, 3250.51 477.153 Q 3251.27 475.893, 3251.27 474.593 Q 3251.27 473.233, 3250.59 472.473 Q 3249.91 471.713, 3248.73 471.713 Q 3247.59 471.713, 3246.83 472.173 Q 3246.07 472.633, 3245.53 473.653 L 3244.01 472.953 " fill="#000000"/>
<path d="M 1015.78 242.777 L 1021.83 242.777 L 1021.83 236.409 L 1024.51 236.409 L 1024.51 242.777 L 1030.72 242.777 L 1030.72 245.081 L 1024.51 245.081 L 1024.51 251.481 L 1021.83 251.481 L 1021.83 245.081 L 1015.78 245.081 L 1015.78 242.777 " fill="#000000"/>
<path d="M 2729.56 242.777 L 2735.6 242.777 L 2735.6 236.409 L 2738.29 236.409 L 2738.29 242.777 L 2744.5 242.777 L 2744.5 245.081 L 2738.29 245.081 L 2738.29 251.481 L 2735.6 251.481 L 2735.6 245.081 L 2729.56 245.081 L 2729.56 242.777 " fill="#000000"/>
<path d="M 1825.9,245.081 L 2150.47,245.081" style="fill:none;fill-rule:evenodd;stroke:#000000;stroke-width:2.0px;stroke-linecap:butt;stroke-linejoin:miter;stroke-opacity:1"/>
<path d="M 2150.47,245.081 L 2136.42,236.967" style="fill:none;fill-rule:evenodd;stroke:#000000;stroke-width:2.0px;stroke-linecap:butt;stroke-linejoin:miter;stroke-opacity:1"/>
<path d="M 2150.47,245.081 L 2136.42,253.195" style="fill:none;fill-rule:evenodd;stroke:#000000;stroke-width:2.0px;stroke-linecap:butt;stroke-linejoin:miter;stroke-opacity:1"/>
</svg>