<svg xmlns="http://www.w3.org/2000/svg" xmlns:rdkit="http://www.rdkit.org/xml" xmlns:xlink="http://www.w3.org/1999/xlink" version="1.1" baseProfile="full" xml:space="preserve" width="4000px" height="500px" viewBox="0 0 4000 500">
<!-- END OF HEADER -->
<rect style="opacity:1.0;fill:#FFFFFF;stroke:none" width="4000" height="500" x="0" y="0"> </rect>
<path d="M 687.895,242.973 L 769.585,290.136" style="fill:none;fill-rule:evenodd;stroke:#FFFFAA;stroke-width:20.1px;stroke-linecap:butt;stroke-linejoin:miter;stroke-opacity:1"/>
<path d="M 769.585,290.136 L 769.585,384.464" style="fill:none;fill-rule:evenodd;stroke:#FFFFAA;stroke-width:20.1px;stroke-linecap:butt;stroke-linejoin:miter;stroke-opacity:1"/>
<path d="M 769.585,290.136 L 851.275,242.973" style="fill:none;fill-rule:evenodd;stroke:#FFFFAA;stroke-width:20.1px;stroke-linecap:butt;stroke-linejoin:miter;stroke-opacity:1"/>
<path d="M 851.275,242.973 L 932.965,290.136" style="fill:none;fill-rule:evenodd;stroke:#FFFFAA;stroke-width:20.1px;stroke-linecap:butt;stroke-linejoin:miter;stroke-opacity:1"/>
<path d="M 932.965,290.136 L 1014.66,242.973" style="fill:none;fill-rule:evenodd;stroke:#FFFFAA;stroke-width:20.1px;stroke-linecap:butt;stroke-linejoin:miter;stroke-opacity:1"/>
<path d="M 932.965,290.136 L 932.965,384.464" style="fill:none;fill-rule:evenodd;stroke:#FFFFAA;stroke-width:20.1px;stroke-linecap:butt;stroke-linejoin:miter;stroke-opacity:1"/>
<path d="M 1253.39,372.752 L 1347.51,366.51" style="fill:none;fill-rule:evenodd;stroke:#FFCC99;stroke-width:20.1px;stroke-linecap:butt;stroke-linejoin:miter;stroke-opacity:1"/>
<path d="M 1347.51,366.51 L 1389.17,281.878" style="fill:none;fill-rule:evenodd;stroke:#FFCC99;stroke-width:20.1px;stroke-linecap:butt;stroke-linejoin:miter;stroke-opacity:1"/>
<path d="M 1389.17,281.878 L 1336.7,203.488" style="fill:none;fill-rule:evenodd;stroke:#FFCC99;stroke-width:20.1px;stroke-linecap:butt;stroke-linejoin:miter;stroke-opacity:1"/>
<path d="M 1389.17,281.878 L 1483.29,275.635" style="fill:none;fill-rule:evenodd;stroke:#FFCC99;stroke-width:20.1px;stroke-linecap:butt;stroke-linejoin:miter;stroke-opacity:1"/>
<path d="M 1483.29,275.635 L 1524.94,191.003" style="fill:none;fill-rule:evenodd;stroke:#FFCC99;stroke-width:20.1px;stroke-linecap:butt;stroke-linejoin:miter;stroke-opacity:1"/>
<path d="M 1483.29,275.635 L 1535.75,354.025" style="fill:none;fill-rule:evenodd;stroke:#FFCC99;stroke-width:20.1px;stroke-linecap:butt;stroke-linejoin:miter;stroke-opacity:1"/>
<path d="M 1524.94,191.003 L 1619.06,184.761" style="fill:none;fill-rule:evenodd;stroke:#FFCC99;stroke-width:20.1px;stroke-linecap:butt;stroke-linejoin:miter;stroke-opacity:1"/>
<path d="M 1619.06,184.761 L 1671.53,263.15" style="fill:none;fill-rule:evenodd;stroke:#FFCC99;stroke-width:20.1px;stroke-linecap:butt;stroke-linejoin:miter;stroke-opacity:1"/>
<path d="M 1671.53,263.15 L 1765.65,256.908" style="fill:none;fill-rule:evenodd;stroke:#FFCC99;stroke-width:20.1px;stroke-linecap:butt;stroke-linejoin:miter;stroke-opacity:1"/>
<path d="M 1671.53,263.15 L 1629.87,347.782" style="fill:none;fill-rule:evenodd;stroke:#FFCC99;stroke-width:20.1px;stroke-linecap:butt;stroke-linejoin:miter;stroke-opacity:1"/>
<path d="M 1765.65,256.908 L 1818.12,335.297" style="fill:none;fill-rule:evenodd;stroke:#FFCC99;stroke-width:20.1px;stroke-linecap:butt;stroke-linejoin:miter;stroke-opacity:1"/>
<path d="M 1629.87,347.782 L 1682.34,426.172" style="fill:none;fill-rule:evenodd;stroke:#FFCC99;stroke-width:20.1px;stroke-linecap:butt;stroke-linejoin:miter;stroke-opacity:1"/>
<path d="M 1629.87,347.782 L 1535.75,354.025" style="fill:none;fill-rule:evenodd;stroke:#FFCC99;stroke-width:20.1px;stroke-linecap:butt;stroke-linejoin:miter;stroke-opacity:1"/>
<path d="M 2339.27,344.038 L 2420.96,296.874" style="fill:none;fill-rule:evenodd;stroke:#FFFFAA;stroke-width:20.1px;stroke-linecap:butt;stroke-linejoin:miter;stroke-opacity:1"/>
<path d="M 2420.96,296.874 L 2502.65,344.038" style="fill:none;fill-rule:evenodd;stroke:#FFFFAA;stroke-width:20.1px;stroke-linecap:butt;stroke-linejoin:miter;stroke-opacity:1"/>
<path d="M 2420.96,296.874 L 2420.96,202.547" style="fill:none;fill-rule:evenodd;stroke:#FFFFAA;stroke-width:20.1px;stroke-linecap:butt;stroke-linejoin:miter;stroke-opacity:1"/>
<path d="M 3312.1,286.663 L 3217.78,286.663" style="fill:none;fill-rule:evenodd;stroke:#FFCC99;stroke-width:20.1px;stroke-linecap:butt;stroke-linejoin:miter;stroke-opacity:1"/>
<path d="M 3217.78,286.663 L 3170.61,368.353" style="fill:none;fill-rule:evenodd;stroke:#FFCC99;stroke-width:20.1px;stroke-linecap:butt;stroke-linejoin:miter;stroke-opacity:1"/>
<path d="M 3170.61,368.353 L 3217.78,450.043" style="fill:none;fill-rule:evenodd;stroke:#FFCC99;stroke-width:20.1px;stroke-linecap:butt;stroke-linejoin:miter;stroke-opacity:1"/>
<path d="M 3170.61,368.353 L 3076.29,368.353" style="fill:none;fill-rule:evenodd;stroke:#FFCC99;stroke-width:20.1px;stroke-linecap:butt;stroke-linejoin:miter;stroke-opacity:1"/>
<path d="M 3076.29,368.353 L 3029.12,450.043" style="fill:none;fill-rule:evenodd;stroke:#FFCC99;stroke-width:20.1px;stroke-linecap:butt;stroke-linejoin:miter;stroke-opacity:1"/>
<path d="M 3076.29,368.353 L 3029.12,286.663" style="fill:none;fill-rule:evenodd;stroke:#FFCC99;stroke-width:20.1px;stroke-linecap:butt;stroke-linejoin:miter;stroke-opacity:1"/>
<path d="M 3029.12,450.043 L 2934.79,450.043" style="fill:none;fill-rule:evenodd;stroke:#FFCC99;stroke-width:20.1px;stroke-linecap:butt;stroke-linejoin:miter;stroke-opacity:1"/>
<path d="M 2934.79,450.043 L 2887.63,368.353" style="fill:none;fill-rule:evenodd;stroke:#FFCC99;stroke-width:20.1px;stroke-linecap:butt;stroke-linejoin:miter;stroke-opacity:1"/>
<path d="M 2887.63,368.353 L 2793.3,368.353" style="fill:none;fill-rule:evenodd;stroke:#FFCC99;stroke-width:20.1px;stroke-linecap:butt;stroke-linejoin:miter;stroke-opacity:1"/>
<path d="M 2887.63,368.353 L 2934.79,286.663" style="fill:none;fill-rule:evenodd;stroke:#FFCC99;stroke-width:20.1px;stroke-linecap:butt;stroke-linejoin:miter;stroke-opacity:1"/>
<path d="M 2793.3,368.353 L 2746.14,286.663" style="fill:none;fill-rule:evenodd;stroke:#FFCC99;stroke-width:20.1px;stroke-linecap:butt;stroke-linejoin:miter;stroke-opacity:1"/>
<path d="M 2934.79,286.663 L 3029.12,286.663" style="fill:none;fill-rule:evenodd;stroke:#FFCC99;stroke-width:20.1px;stroke-linecap:butt;stroke-linejoin:miter;stroke-opacity:1"/>
<path d="M 3029.12,286.663 L 3076.29,204.973" style="fill:none;fill-rule:evenodd;stroke:#FFCC99;stroke-width:20.1px;stroke-linecap:butt;stroke-linejoin:miter;stroke-opacity:1"/>
<path d="M 3029.12,123.283 L 3076.29,41.5928" style="fill:none;fill-rule:evenodd;stroke:#FFFFAA;stroke-width:20.1px;stroke-linecap:butt;stroke-linejoin:miter;stroke-opacity:1"/>
<path d="M 3029.12,123.283 L 2934.79,123.283" style="fill:none;fill-rule:evenodd;stroke:#FFFFAA;stroke-width:20.1px;stroke-linecap:butt;stroke-linejoin:miter;stroke-opacity:1"/>
<ellipse cx="687.895" cy="242.973" rx="18.8655" ry="18.8655" style="fill:#FFFFAA;fill-rule:evenodd;stroke:#FFFFAA;stroke-width:1px;stroke-linecap:butt;stroke-linejoin:miter;stroke-opacity:1"/>
<ellipse cx="769.585" cy="290.136" rx="18.8655" ry="18.8655" style="fill:#FFFFAA;fill-rule:evenodd;stroke:#FFFFAA;stroke-width:1px;stroke-linecap:butt;stroke-linejoin:miter;stroke-opacity:1"/>
<ellipse cx="769.585" cy="384.671" rx="18.8655" ry="19.3962" style="fill:#FFFFAA;fill-rule:evenodd;stroke:#FFFFAA;stroke-width:1px;stroke-linecap:butt;stroke-linejoin:miter;stroke-opacity:1"/>
<ellipse cx="851.275" cy="243.18" rx="18.8655" ry="19.3962" style="fill:#FFFFAA;fill-rule:evenodd;stroke:#FFFFAA;stroke-width:1px;stroke-linecap:butt;stroke-linejoin:miter;stroke-opacity:1"/>
<ellipse cx="932.965" cy="290.136" rx="18.8655" ry="18.8655" style="fill:#FFFFAA;fill-rule:evenodd;stroke:#FFFFAA;stroke-width:1px;stroke-linecap:butt;stroke-linejoin:miter;stroke-opacity:1"/>
<ellipse cx="1014.66" cy="242.973" rx="18.8655" ry="18.8655" style="fill:#FFFFAA;fill-rule:evenodd;stroke:#FFFFAA;stroke-width:1px;stroke-linecap:butt;stroke-linejoin:miter;stroke-opacity:1"/>
<ellipse cx="932.965" cy="384.671" rx="18.8655" ry="19.3962" style="fill:#FFFFAA;fill-rule:evenodd;stroke:#FFFFAA;stroke-width:1px;stroke-linecap:butt;stroke-linejoin:miter;stroke-opacity:1"/>
<ellipse cx="1253.39" cy="372.752" rx="18.8655" ry="18.8655" style="fill:#FFCC99;fill-rule:evenodd;stroke:#FFCC99;stroke-width:1px;stroke-linecap:butt;stroke-linejoin:miter;stroke-opacity:1"/>
<ellipse cx="1347.51" cy="366.717" rx="18.8655" ry="19.3962" style="fill:#FFCC99;fill-rule:evenodd;stroke:#FFCC99;stroke-width:1px;stroke-linecap:butt;stroke-linejoin:miter;stroke-opacity:1"/>
<ellipse cx="1389.17" cy="281.878" rx="18.8655" ry="18.8655" style="fill:#FFCC99;fill-rule:evenodd;stroke:#FFCC99;stroke-width:1px;stroke-linecap:butt;stroke-linejoin:miter;stroke-opacity:1"/>
<ellipse cx="1336.7" cy="203.696" rx="18.8655" ry="19.3962" style="fill:#FFCC99;fill-rule:evenodd;stroke:#FFCC99;stroke-width:1px;stroke-linecap:butt;stroke-linejoin:miter;stroke-opacity:1"/>
<ellipse cx="1483.29" cy="275.635" rx="18.8655" ry="18.8655" style="fill:#FFCC99;fill-rule:evenodd;stroke:#FFCC99;stroke-width:1px;stroke-linecap:butt;stroke-linejoin:miter;stroke-opacity:1"/>
<ellipse cx="1524.94" cy="191.003" rx="18.8655" ry="18.8655" style="fill:#FFCC99;fill-rule:evenodd;stroke:#FFCC99;stroke-width:1px;stroke-linecap:butt;stroke-linejoin:miter;stroke-opacity:1"/>
<ellipse cx="1619.06" cy="184.761" rx="18.8655" ry="18.8655" style="fill:#FFCC99;fill-rule:evenodd;stroke:#FFCC99;stroke-width:1px;stroke-linecap:butt;stroke-linejoin:miter;stroke-opacity:1"/>
<ellipse cx="1671.53" cy="263.15" rx="18.8655" ry="18.8655" style="fill:#FFCC99;fill-rule:evenodd;stroke:#FFCC99;stroke-width:1px;stroke-linecap:butt;stroke-linejoin:miter;stroke-opacity:1"/>
<ellipse cx="1765.65" cy="257.115" rx="18.8655" ry="19.3962" style="fill:#FFCC99;fill-rule:evenodd;stroke:#FFCC99;stroke-width:1px;stroke-linecap:butt;stroke-linejoin:miter;stroke-opacity:1"/>
<ellipse cx="1818.12" cy="335.297" rx="18.8655" ry="18.8655" style="fill:#FFCC99;fill-rule:evenodd;stroke:#FFCC99;stroke-width:1px;stroke-linecap:butt;stroke-linejoin:miter;stroke-opacity:1"/>
<ellipse cx="1629.87" cy="347.782" rx="18.8655" ry="18.8655" style="fill:#FFCC99;fill-rule:evenodd;stroke:#FFCC99;stroke-width:1px;stroke-linecap:butt;stroke-linejoin:miter;stroke-opacity:1"/>
<ellipse cx="1700.96" cy="432.85" rx="40.6553" ry="28.334" style="fill:#FFCC99;fill-rule:evenodd;stroke:#FFCC99;stroke-width:1px;stroke-linecap:butt;stroke-linejoin:miter;stroke-opacity:1"/>
<ellipse cx="1535.75" cy="354.025" rx="18.8655" ry="18.8655" style="fill:#FFCC99;fill-rule:evenodd;stroke:#FFCC99;stroke-width:1px;stroke-linecap:butt;stroke-linejoin:miter;stroke-opacity:1"/>
<ellipse cx="2339.27" cy="344.038" rx="18.8655" ry="18.8655" style="fill:#FFFFAA;fill-rule:evenodd;stroke:#FFFFAA;stroke-width:1px;stroke-linecap:butt;stroke-linejoin:miter;stroke-opacity:1"/>
<ellipse cx="2420.96" cy="296.874" rx="18.8655" ry="18.8655" style="fill:#FFFFAA;fill-rule:evenodd;stroke:#FFFFAA;stroke-width:1px;stroke-linecap:butt;stroke-linejoin:miter;stroke-opacity:1"/>
<ellipse cx="2502.65" cy="344.245" rx="18.8655" ry="19.3962" style="fill:#FFFFAA;fill-rule:evenodd;stroke:#FFFFAA;stroke-width:1px;stroke-linecap:butt;stroke-linejoin:miter;stroke-opacity:1"/>
<ellipse cx="2433.01" cy="202.754" rx="34.3903" ry="19.3962" style="fill:#FFFFAA;fill-rule:evenodd;stroke:#FFFFAA;stroke-width:1px;stroke-linecap:butt;stroke-linejoin:miter;stroke-opacity:1"/>
<ellipse cx="3312.1" cy="286.663" rx="18.8655" ry="18.8655" style="fill:#FFCC99;fill-rule:evenodd;stroke:#FFCC99;stroke-width:1px;stroke-linecap:butt;stroke-linejoin:miter;stroke-opacity:1"/>
<ellipse cx="3217.78" cy="286.87" rx="18.8655" ry="19.3962" style="fill:#FFCC99;fill-rule:evenodd;stroke:#FFCC99;stroke-width:1px;stroke-linecap:butt;stroke-linejoin:miter;stroke-opacity:1"/>
<ellipse cx="3170.61" cy="368.353" rx="18.8655" ry="18.8655" style="fill:#FFCC99;fill-rule:evenodd;stroke:#FFCC99;stroke-width:1px;stroke-linecap:butt;stroke-linejoin:miter;stroke-opacity:1"/>
<ellipse cx="3217.78" cy="450.25" rx="18.8655" ry="19.3962" style="fill:#FFCC99;fill-rule:evenodd;stroke:#FFCC99;stroke-width:1px;stroke-linecap:butt;stroke-linejoin:miter;stroke-opacity:1"/>
<ellipse cx="3076.29" cy="368.353" rx="18.8655" ry="18.8655" style="fill:#FFCC99;fill-rule:evenodd;stroke:#FFCC99;stroke-width:1px;stroke-linecap:butt;stroke-linejoin:miter;stroke-opacity:1"/>
<ellipse cx="3029.12" cy="450.043" rx="18.8655" ry="18.8655" style="fill:#FFCC99;fill-rule:evenodd;stroke:#FFCC99;stroke-width:1px;stroke-linecap:butt;stroke-linejoin:miter;stroke-opacity:1"/>
<ellipse cx="2934.79" cy="450.043" rx="18.8655" ry="18.8655" style="fill:#FFCC99;fill-rule:evenodd;stroke:#FFCC99;stroke-width:1px;stroke-linecap:butt;stroke-linejoin:miter;stroke-opacity:1"/>
<ellipse cx="2887.63" cy="368.353" rx="18.8655" ry="18.8655" style="fill:#FFCC99;fill-rule:evenodd;stroke:#FFCC99;stroke-width:1px;stroke-linecap:butt;stroke-linejoin:miter;stroke-opacity:1"/>
<ellipse cx="2793.3" cy="368.56" rx="18.8655" ry="19.3962" style="fill:#FFCC99;fill-rule:evenodd;stroke:#FFCC99;stroke-width:1px;stroke-linecap:butt;stroke-linejoin:miter;stroke-opacity:1"/>
<ellipse cx="2746.14" cy="286.663" rx="18.8655" ry="18.8655" style="fill:#FFCC99;fill-rule:evenodd;stroke:#FFCC99;stroke-width:1px;stroke-linecap:butt;stroke-linejoin:miter;stroke-opacity:1"/>
<ellipse cx="2934.79" cy="286.663" rx="18.8655" ry="18.8655" style="fill:#FFCC99;fill-rule:evenodd;stroke:#FFCC99;stroke-width:1px;stroke-linecap:butt;stroke-linejoin:miter;stroke-opacity:1"/>
<ellipse cx="3029.12" cy="286.663" rx="18.8655" ry="18.8655" style="fill:#FFCC99;fill-rule:evenodd;stroke:#FFCC99;stroke-width:1px;stroke-linecap:butt;stroke-linejoin:miter;stroke-opacity:1"/>
<ellipse cx="3088.34" cy="204.973" rx="31.3755" ry="18.8893" style="fill:#FFCC99;fill-rule:evenodd;stroke:#FFCC99;stroke-width:1px;stroke-linecap:butt;stroke-linejoin:miter;stroke-opacity:1"/>
<ellipse cx="3029.12" cy="123.283" rx="18.8655" ry="18.8655" style="fill:#FFFFAA;fill-rule:evenodd;stroke:#FFFFAA;stroke-width:1px;stroke-linecap:butt;stroke-linejoin:miter;stroke-opacity:1"/>
<ellipse cx="3076.29" cy="41.5928" rx="18.8655" ry="18.8655" style="fill:#FFFFAA;fill-rule:evenodd;stroke:#FFFFAA;stroke-width:1px;stroke-linecap:butt;stroke-linejoin:miter;stroke-opacity:1"/>
<ellipse cx="2934.79" cy="123.49" rx="18.8655" ry="19.3962" style="fill:#FFFFAA;fill-rule:evenodd;stroke:#FFFFAA;stroke-width:1px;stroke-linecap:butt;stroke-linejoin:miter;stroke-opacity:1"/>
<path class="bond-0" d="M 687.895,242.973 L 769.585,290.136" style="fill:none;fill-rule:evenodd;stroke:#000000;stroke-width:2.0px;stroke-linecap:butt;stroke-linejoin:miter;stroke-opacity:1"/>
<path class="bond-1" d="M 760.153,290.136 L 760.153,329.367" style="fill:none;fill-rule:evenodd;stroke:#000000;stroke-width:2.0px;stroke-linecap:butt;stroke-linejoin:miter;stroke-opacity:1"/>
<path class="bond-1" d="M 760.153,329.367 L 760.153,368.598" style="fill:none;fill-rule:evenodd;stroke:#FF0000;stroke-width:2.0px;stroke-linecap:butt;stroke-linejoin:miter;stroke-opacity:1"/>
<path class="bond-1" d="M 779.018,290.136 L 779.018,329.367" style="fill:none;fill-rule:evenodd;stroke:#000000;stroke-width:2.0px;stroke-linecap:butt;stroke-linejoin:miter;stroke-opacity:1"/>
<path class="bond-1" d="M 779.018,329.367 L 779.018,368.598" style="fill:none;fill-rule:evenodd;stroke:#FF0000;stroke-width:2.0px;stroke-linecap:butt;stroke-linejoin:miter;stroke-opacity:1"/>
<path class="bond-2" d="M 769.585,290.136 L 803.12,270.775" style="fill:none;fill-rule:evenodd;stroke:#000000;stroke-width:2.0px;stroke-linecap:butt;stroke-linejoin:miter;stroke-opacity:1"/>
<path class="bond-2" d="M 803.12,270.775 L 836.655,251.414" style="fill:none;fill-rule:evenodd;stroke:#FF0000;stroke-width:2.0px;stroke-linecap:butt;stroke-linejoin:miter;stroke-opacity:1"/>
<path class="bond-3" d="M 865.896,251.414 L 899.431,270.775" style="fill:none;fill-rule:evenodd;stroke:#FF0000;stroke-width:2.0px;stroke-linecap:butt;stroke-linejoin:miter;stroke-opacity:1"/>
<path class="bond-3" d="M 899.431,270.775 L 932.965,290.136" style="fill:none;fill-rule:evenodd;stroke:#000000;stroke-width:2.0px;stroke-linecap:butt;stroke-linejoin:miter;stroke-opacity:1"/>
<path class="bond-4" d="M 932.965,290.136 L 1014.66,242.973" style="fill:none;fill-rule:evenodd;stroke:#000000;stroke-width:2.0px;stroke-linecap:butt;stroke-linejoin:miter;stroke-opacity:1"/>
<path class="bond-5" d="M 923.533,290.136 L 923.533,329.367" style="fill:none;fill-rule:evenodd;stroke:#000000;stroke-width:2.0px;stroke-linecap:butt;stroke-linejoin:miter;stroke-opacity:1"/>
<path class="bond-5" d="M 923.533,329.367 L 923.533,368.598" style="fill:none;fill-rule:evenodd;stroke:#FF0000;stroke-width:2.0px;stroke-linecap:butt;stroke-linejoin:miter;stroke-opacity:1"/>
<path class="bond-5" d="M 942.398,290.136 L 942.398,329.367" style="fill:none;fill-rule:evenodd;stroke:#000000;stroke-width:2.0px;stroke-linecap:butt;stroke-linejoin:miter;stroke-opacity:1"/>
<path class="bond-5" d="M 942.398,329.367 L 942.398,368.598" style="fill:none;fill-rule:evenodd;stroke:#FF0000;stroke-width:2.0px;stroke-linecap:butt;stroke-linejoin:miter;stroke-opacity:1"/>
<path class="bond-6" d="M 1253.39,372.752 L 1293.14,370.116" style="fill:none;fill-rule:evenodd;stroke:#000000;stroke-width:2.0px;stroke-linecap:butt;stroke-linejoin:miter;stroke-opacity:1"/>
<path class="bond-6" d="M 1293.14,370.116 L 1332.89,367.48" style="fill:none;fill-rule:evenodd;stroke:#FF0000;stroke-width:2.0px;stroke-linecap:butt;stroke-linejoin:miter;stroke-opacity:1"/>
<path class="bond-7" d="M 1355.32,350.644 L 1372.24,316.261" style="fill:none;fill-rule:evenodd;stroke:#FF0000;stroke-width:2.0px;stroke-linecap:butt;stroke-linejoin:miter;stroke-opacity:1"/>
<path class="bond-7" d="M 1372.24,316.261 L 1389.17,281.878" style="fill:none;fill-rule:evenodd;stroke:#000000;stroke-width:2.0px;stroke-linecap:butt;stroke-linejoin:miter;stroke-opacity:1"/>
<path class="bond-8" d="M 1397.01,276.631 L 1376.22,245.577" style="fill:none;fill-rule:evenodd;stroke:#000000;stroke-width:2.0px;stroke-linecap:butt;stroke-linejoin:miter;stroke-opacity:1"/>
<path class="bond-8" d="M 1376.22,245.577 L 1355.44,214.522" style="fill:none;fill-rule:evenodd;stroke:#FF0000;stroke-width:2.0px;stroke-linecap:butt;stroke-linejoin:miter;stroke-opacity:1"/>
<path class="bond-8" d="M 1381.33,287.124 L 1360.54,256.07" style="fill:none;fill-rule:evenodd;stroke:#000000;stroke-width:2.0px;stroke-linecap:butt;stroke-linejoin:miter;stroke-opacity:1"/>
<path class="bond-8" d="M 1360.54,256.07 L 1339.76,225.016" style="fill:none;fill-rule:evenodd;stroke:#FF0000;stroke-width:2.0px;stroke-linecap:butt;stroke-linejoin:miter;stroke-opacity:1"/>
<path class="bond-9" d="M 1389.17,281.878 L 1483.29,275.635" style="fill:none;fill-rule:evenodd;stroke:#000000;stroke-width:2.0px;stroke-linecap:butt;stroke-linejoin:miter;stroke-opacity:1"/>
<path class="bond-10" d="M 1483.29,275.635 L 1524.94,191.003" style="fill:none;fill-rule:evenodd;stroke:#000000;stroke-width:2.0px;stroke-linecap:butt;stroke-linejoin:miter;stroke-opacity:1"/>
<path class="bond-10" d="M 1506.46,271.271 L 1535.62,212.029" style="fill:none;fill-rule:evenodd;stroke:#000000;stroke-width:2.0px;stroke-linecap:butt;stroke-linejoin:miter;stroke-opacity:1;stroke-dasharray:6,6"/>
<path class="bond-18" d="M 1483.29,275.635 L 1535.75,354.025" style="fill:none;fill-rule:evenodd;stroke:#000000;stroke-width:2.0px;stroke-linecap:butt;stroke-linejoin:miter;stroke-opacity:1"/>
<path class="bond-18" d="M 1506.84,276.9 L 1543.56,331.773" style="fill:none;fill-rule:evenodd;stroke:#000000;stroke-width:2.0px;stroke-linecap:butt;stroke-linejoin:miter;stroke-opacity:1;stroke-dasharray:6,6"/>
<path class="bond-11" d="M 1524.94,191.003 L 1619.06,184.761" style="fill:none;fill-rule:evenodd;stroke:#000000;stroke-width:2.0px;stroke-linecap:butt;stroke-linejoin:miter;stroke-opacity:1"/>
<path class="bond-11" d="M 1540.31,208.891 L 1606.19,204.521" style="fill:none;fill-rule:evenodd;stroke:#000000;stroke-width:2.0px;stroke-linecap:butt;stroke-linejoin:miter;stroke-opacity:1;stroke-dasharray:6,6"/>
<path class="bond-12" d="M 1619.06,184.761 L 1671.53,263.15" style="fill:none;fill-rule:evenodd;stroke:#000000;stroke-width:2.0px;stroke-linecap:butt;stroke-linejoin:miter;stroke-opacity:1"/>
<path class="bond-12" d="M 1611.25,207.012 L 1647.98,261.885" style="fill:none;fill-rule:evenodd;stroke:#000000;stroke-width:2.0px;stroke-linecap:butt;stroke-linejoin:miter;stroke-opacity:1;stroke-dasharray:6,6"/>
<path class="bond-13" d="M 1671.53,263.15 L 1711.28,260.514" style="fill:none;fill-rule:evenodd;stroke:#000000;stroke-width:2.0px;stroke-linecap:butt;stroke-linejoin:miter;stroke-opacity:1"/>
<path class="bond-13" d="M 1711.28,260.514 L 1751.03,257.877" style="fill:none;fill-rule:evenodd;stroke:#FF0000;stroke-width:2.0px;stroke-linecap:butt;stroke-linejoin:miter;stroke-opacity:1"/>
<path class="bond-15" d="M 1671.53,263.15 L 1629.87,347.782" style="fill:none;fill-rule:evenodd;stroke:#000000;stroke-width:2.0px;stroke-linecap:butt;stroke-linejoin:miter;stroke-opacity:1"/>
<path class="bond-15" d="M 1648.35,267.514 L 1619.2,326.757" style="fill:none;fill-rule:evenodd;stroke:#000000;stroke-width:2.0px;stroke-linecap:butt;stroke-linejoin:miter;stroke-opacity:1;stroke-dasharray:6,6"/>
<path class="bond-14" d="M 1776.55,273.189 L 1797.33,304.243" style="fill:none;fill-rule:evenodd;stroke:#FF0000;stroke-width:2.0px;stroke-linecap:butt;stroke-linejoin:miter;stroke-opacity:1"/>
<path class="bond-14" d="M 1797.33,304.243 L 1818.12,335.297" style="fill:none;fill-rule:evenodd;stroke:#000000;stroke-width:2.0px;stroke-linecap:butt;stroke-linejoin:miter;stroke-opacity:1"/>
<path class="bond-16" d="M 1629.87,347.782 L 1650.85,379.12" style="fill:none;fill-rule:evenodd;stroke:#000000;stroke-width:2.0px;stroke-linecap:butt;stroke-linejoin:miter;stroke-opacity:1"/>
<path class="bond-16" d="M 1650.85,379.12 L 1671.82,410.457" style="fill:none;fill-rule:evenodd;stroke:#0000FF;stroke-width:2.0px;stroke-linecap:butt;stroke-linejoin:miter;stroke-opacity:1"/>
<path class="bond-17" d="M 1629.87,347.782 L 1535.75,354.025" style="fill:none;fill-rule:evenodd;stroke:#000000;stroke-width:2.0px;stroke-linecap:butt;stroke-linejoin:miter;stroke-opacity:1"/>
<path class="bond-17" d="M 1614.51,329.895 L 1548.62,334.264" style="fill:none;fill-rule:evenodd;stroke:#000000;stroke-width:2.0px;stroke-linecap:butt;stroke-linejoin:miter;stroke-opacity:1;stroke-dasharray:6,6"/>
<path class="bond-19" d="M 2339.27,344.038 L 2420.96,296.874" style="fill:none;fill-rule:evenodd;stroke:#000000;stroke-width:2.0px;stroke-linecap:butt;stroke-linejoin:miter;stroke-opacity:1"/>
<path class="bond-20" d="M 2416.24,305.043 L 2449.78,324.404" style="fill:none;fill-rule:evenodd;stroke:#000000;stroke-width:2.0px;stroke-linecap:butt;stroke-linejoin:miter;stroke-opacity:1"/>
<path class="bond-20" d="M 2449.78,324.404 L 2483.31,343.765" style="fill:none;fill-rule:evenodd;stroke:#FF0000;stroke-width:2.0px;stroke-linecap:butt;stroke-linejoin:miter;stroke-opacity:1"/>
<path class="bond-20" d="M 2425.68,288.705 L 2459.21,308.066" style="fill:none;fill-rule:evenodd;stroke:#000000;stroke-width:2.0px;stroke-linecap:butt;stroke-linejoin:miter;stroke-opacity:1"/>
<path class="bond-20" d="M 2459.21,308.066 L 2492.74,327.427" style="fill:none;fill-rule:evenodd;stroke:#FF0000;stroke-width:2.0px;stroke-linecap:butt;stroke-linejoin:miter;stroke-opacity:1"/>
<path class="bond-21" d="M 2420.96,296.874 L 2420.96,257.851" style="fill:none;fill-rule:evenodd;stroke:#000000;stroke-width:2.0px;stroke-linecap:butt;stroke-linejoin:miter;stroke-opacity:1"/>
<path class="bond-21" d="M 2420.96,257.851 L 2420.96,218.827" style="fill:none;fill-rule:evenodd;stroke:#FF0000;stroke-width:2.0px;stroke-linecap:butt;stroke-linejoin:miter;stroke-opacity:1"/>
<path class="bond-22" d="M 3312.1,286.663 L 3272.25,286.663" style="fill:none;fill-rule:evenodd;stroke:#000000;stroke-width:2.0px;stroke-linecap:butt;stroke-linejoin:miter;stroke-opacity:1"/>
<path class="bond-22" d="M 3272.25,286.663 L 3232.4,286.663" style="fill:none;fill-rule:evenodd;stroke:#FF0000;stroke-width:2.0px;stroke-linecap:butt;stroke-linejoin:miter;stroke-opacity:1"/>
<path class="bond-23" d="M 3208.38,302.944 L 3189.5,335.648" style="fill:none;fill-rule:evenodd;stroke:#FF0000;stroke-width:2.0px;stroke-linecap:butt;stroke-linejoin:miter;stroke-opacity:1"/>
<path class="bond-23" d="M 3189.5,335.648 L 3170.61,368.353" style="fill:none;fill-rule:evenodd;stroke:#000000;stroke-width:2.0px;stroke-linecap:butt;stroke-linejoin:miter;stroke-opacity:1"/>
<path class="bond-24" d="M 3162.44,373.069 L 3181.45,405.981" style="fill:none;fill-rule:evenodd;stroke:#000000;stroke-width:2.0px;stroke-linecap:butt;stroke-linejoin:miter;stroke-opacity:1"/>
<path class="bond-24" d="M 3181.45,405.981 L 3200.45,438.893" style="fill:none;fill-rule:evenodd;stroke:#FF0000;stroke-width:2.0px;stroke-linecap:butt;stroke-linejoin:miter;stroke-opacity:1"/>
<path class="bond-24" d="M 3178.78,363.636 L 3197.78,396.548" style="fill:none;fill-rule:evenodd;stroke:#000000;stroke-width:2.0px;stroke-linecap:butt;stroke-linejoin:miter;stroke-opacity:1"/>
<path class="bond-24" d="M 3197.78,396.548 L 3216.79,429.46" style="fill:none;fill-rule:evenodd;stroke:#FF0000;stroke-width:2.0px;stroke-linecap:butt;stroke-linejoin:miter;stroke-opacity:1"/>
<path class="bond-25" d="M 3170.61,368.353 L 3076.29,368.353" style="fill:none;fill-rule:evenodd;stroke:#000000;stroke-width:2.0px;stroke-linecap:butt;stroke-linejoin:miter;stroke-opacity:1"/>
<path class="bond-26" d="M 3076.29,368.353 L 3029.12,450.043" style="fill:none;fill-rule:evenodd;stroke:#000000;stroke-width:2.0px;stroke-linecap:butt;stroke-linejoin:miter;stroke-opacity:1"/>
<path class="bond-26" d="M 3052.87,371.173 L 3019.86,428.356" style="fill:none;fill-rule:evenodd;stroke:#000000;stroke-width:2.0px;stroke-linecap:butt;stroke-linejoin:miter;stroke-opacity:1;stroke-dasharray:6,6"/>
<path class="bond-37" d="M 3076.29,368.353 L 3029.12,286.663" style="fill:none;fill-rule:evenodd;stroke:#000000;stroke-width:2.0px;stroke-linecap:butt;stroke-linejoin:miter;stroke-opacity:1"/>
<path class="bond-37" d="M 3052.87,365.532 L 3019.86,308.349" style="fill:none;fill-rule:evenodd;stroke:#000000;stroke-width:2.0px;stroke-linecap:butt;stroke-linejoin:miter;stroke-opacity:1;stroke-dasharray:6,6"/>
<path class="bond-27" d="M 3029.12,450.043 L 2934.79,450.043" style="fill:none;fill-rule:evenodd;stroke:#000000;stroke-width:2.0px;stroke-linecap:butt;stroke-linejoin:miter;stroke-opacity:1"/>
<path class="bond-27" d="M 3014.97,431.177 L 2948.94,431.177" style="fill:none;fill-rule:evenodd;stroke:#000000;stroke-width:2.0px;stroke-linecap:butt;stroke-linejoin:miter;stroke-opacity:1;stroke-dasharray:6,6"/>
<path class="bond-28" d="M 2934.79,450.043 L 2887.63,368.353" style="fill:none;fill-rule:evenodd;stroke:#000000;stroke-width:2.0px;stroke-linecap:butt;stroke-linejoin:miter;stroke-opacity:1"/>
<path class="bond-28" d="M 2944.06,428.356 L 2911.04,371.173" style="fill:none;fill-rule:evenodd;stroke:#000000;stroke-width:2.0px;stroke-linecap:butt;stroke-linejoin:miter;stroke-opacity:1;stroke-dasharray:6,6"/>
<path class="bond-29" d="M 2887.63,368.353 L 2847.78,368.353" style="fill:none;fill-rule:evenodd;stroke:#000000;stroke-width:2.0px;stroke-linecap:butt;stroke-linejoin:miter;stroke-opacity:1"/>
<path class="bond-29" d="M 2847.78,368.353 L 2807.92,368.353" style="fill:none;fill-rule:evenodd;stroke:#FF0000;stroke-width:2.0px;stroke-linecap:butt;stroke-linejoin:miter;stroke-opacity:1"/>
<path class="bond-31" d="M 2887.63,368.353 L 2934.79,286.663" style="fill:none;fill-rule:evenodd;stroke:#000000;stroke-width:2.0px;stroke-linecap:butt;stroke-linejoin:miter;stroke-opacity:1"/>
<path class="bond-31" d="M 2911.04,365.532 L 2944.06,308.349" style="fill:none;fill-rule:evenodd;stroke:#000000;stroke-width:2.0px;stroke-linecap:butt;stroke-linejoin:miter;stroke-opacity:1;stroke-dasharray:6,6"/>
<path class="bond-30" d="M 2784.14,352.487 L 2765.14,319.575" style="fill:none;fill-rule:evenodd;stroke:#FF0000;stroke-width:2.0px;stroke-linecap:butt;stroke-linejoin:miter;stroke-opacity:1"/>
<path class="bond-30" d="M 2765.14,319.575 L 2746.14,286.663" style="fill:none;fill-rule:evenodd;stroke:#000000;stroke-width:2.0px;stroke-linecap:butt;stroke-linejoin:miter;stroke-opacity:1"/>
<path class="bond-32" d="M 2934.79,286.663 L 3029.12,286.663" style="fill:none;fill-rule:evenodd;stroke:#000000;stroke-width:2.0px;stroke-linecap:butt;stroke-linejoin:miter;stroke-opacity:1"/>
<path class="bond-32" d="M 2948.94,305.528 L 3014.97,305.528" style="fill:none;fill-rule:evenodd;stroke:#000000;stroke-width:2.0px;stroke-linecap:butt;stroke-linejoin:miter;stroke-opacity:1;stroke-dasharray:6,6"/>
<path class="bond-33" d="M 3029.12,286.663 L 3048.17,253.675" style="fill:none;fill-rule:evenodd;stroke:#000000;stroke-width:2.0px;stroke-linecap:butt;stroke-linejoin:miter;stroke-opacity:1"/>
<path class="bond-33" d="M 3048.17,253.675 L 3067.21,220.688" style="fill:none;fill-rule:evenodd;stroke:#0000FF;stroke-width:2.0px;stroke-linecap:butt;stroke-linejoin:miter;stroke-opacity:1"/>
<path class="bond-34" d="M 3067.21,189.258 L 3048.17,156.27" style="fill:none;fill-rule:evenodd;stroke:#0000FF;stroke-width:2.0px;stroke-linecap:butt;stroke-linejoin:miter;stroke-opacity:1"/>
<path class="bond-34" d="M 3048.17,156.27 L 3029.12,123.283" style="fill:none;fill-rule:evenodd;stroke:#000000;stroke-width:2.0px;stroke-linecap:butt;stroke-linejoin:miter;stroke-opacity:1"/>
<path class="bond-35" d="M 3029.12,123.283 L 3076.29,41.5928" style="fill:none;fill-rule:evenodd;stroke:#000000;stroke-width:2.0px;stroke-linecap:butt;stroke-linejoin:miter;stroke-opacity:1"/>
<path class="bond-36" d="M 3029.12,113.85 L 2989.27,113.85" style="fill:none;fill-rule:evenodd;stroke:#000000;stroke-width:2.0px;stroke-linecap:butt;stroke-linejoin:miter;stroke-opacity:1"/>
<path class="bond-36" d="M 2989.27,113.85 L 2949.42,113.85" style="fill:none;fill-rule:evenodd;stroke:#FF0000;stroke-width:2.0px;stroke-linecap:butt;stroke-linejoin:miter;stroke-opacity:1"/>
<path class="bond-36" d="M 3029.12,132.716 L 2989.27,132.716" style="fill:none;fill-rule:evenodd;stroke:#000000;stroke-width:2.0px;stroke-linecap:butt;stroke-linejoin:miter;stroke-opacity:1"/>
<path class="bond-36" d="M 2989.27,132.716 L 2949.42,132.716" style="fill:none;fill-rule:evenodd;stroke:#FF0000;stroke-width:2.0px;stroke-linecap:butt;stroke-linejoin:miter;stroke-opacity:1"/>
<path class="atom-2" d="M 757.323 384.539 Q 757.323 378.125, 760.492 374.541 Q 763.662 370.956, 769.585 370.956 Q 775.509 370.956, 778.679 374.541 Q 781.848 378.125, 781.848 384.539 Q 781.848 391.029, 778.641 394.727 Q 775.434 398.387, 769.585 398.387 Q 763.699 398.387, 760.492 394.727 Q 757.323 391.067, 757.323 384.539 M 769.585 395.368 Q 773.66 395.368, 775.849 392.651 Q 778.075 389.897, 778.075 384.539 Q 778.075 379.295, 775.849 376.653 Q 773.66 373.975, 769.585 373.975 Q 765.51 373.975, 763.284 376.616 Q 761.096 379.257, 761.096 384.539 Q 761.096 389.935, 763.284 392.651 Q 765.51 395.368, 769.585 395.368 " fill="#FF0000"/>
<path class="atom-3" d="M 839.013 243.048 Q 839.013 236.634, 842.182 233.049 Q 845.352 229.465, 851.275 229.465 Q 857.199 229.465, 860.369 233.049 Q 863.538 236.634, 863.538 243.048 Q 863.538 249.538, 860.331 253.235 Q 857.124 256.895, 851.275 256.895 Q 845.389 256.895, 842.182 253.235 Q 839.013 249.576, 839.013 243.048 M 851.275 253.877 Q 855.35 253.877, 857.539 251.16 Q 859.765 248.406, 859.765 243.048 Q 859.765 237.803, 857.539 235.162 Q 855.35 232.483, 851.275 232.483 Q 847.2 232.483, 844.974 235.125 Q 842.786 237.766, 842.786 243.048 Q 842.786 248.444, 844.974 251.16 Q 847.2 253.877, 851.275 253.877 " fill="#FF0000"/>
<path class="atom-6" d="M 920.703 384.539 Q 920.703 378.125, 923.872 374.541 Q 927.042 370.956, 932.965 370.956 Q 938.889 370.956, 942.059 374.541 Q 945.228 378.125, 945.228 384.539 Q 945.228 391.029, 942.021 394.727 Q 938.814 398.387, 932.965 398.387 Q 927.079 398.387, 923.872 394.727 Q 920.703 391.067, 920.703 384.539 M 932.965 395.368 Q 937.04 395.368, 939.229 392.651 Q 941.455 389.897, 941.455 384.539 Q 941.455 379.295, 939.229 376.653 Q 937.04 373.975, 932.965 373.975 Q 928.89 373.975, 926.664 376.616 Q 924.476 379.257, 924.476 384.539 Q 924.476 389.935, 926.664 392.651 Q 928.89 395.368, 932.965 395.368 " fill="#FF0000"/>
<path class="atom-8" d="M 1335.25 366.585 Q 1335.25 360.171, 1338.42 356.587 Q 1341.59 353.002, 1347.51 353.002 Q 1353.44 353.002, 1356.61 356.587 Q 1359.78 360.171, 1359.78 366.585 Q 1359.78 373.075, 1356.57 376.773 Q 1353.36 380.433, 1347.51 380.433 Q 1341.63 380.433, 1338.42 376.773 Q 1335.25 373.113, 1335.25 366.585 M 1347.51 377.414 Q 1351.59 377.414, 1353.78 374.698 Q 1356 371.943, 1356 366.585 Q 1356 361.341, 1353.78 358.7 Q 1351.59 356.021, 1347.51 356.021 Q 1343.44 356.021, 1341.21 358.662 Q 1339.02 361.303, 1339.02 366.585 Q 1339.02 371.981, 1341.21 374.698 Q 1343.44 377.414, 1347.51 377.414 " fill="#FF0000"/>
<path class="atom-10" d="M 1324.44 203.564 Q 1324.44 197.149, 1327.61 193.565 Q 1330.78 189.98, 1336.7 189.98 Q 1342.62 189.98, 1345.79 193.565 Q 1348.96 197.149, 1348.96 203.564 Q 1348.96 210.053, 1345.76 213.751 Q 1342.55 217.411, 1336.7 217.411 Q 1330.81 217.411, 1327.61 213.751 Q 1324.44 210.091, 1324.44 203.564 M 1336.7 214.392 Q 1340.78 214.392, 1342.96 211.676 Q 1345.19 208.921, 1345.19 203.564 Q 1345.19 198.319, 1342.96 195.678 Q 1340.78 192.999, 1336.7 192.999 Q 1332.63 192.999, 1330.4 195.64 Q 1328.21 198.281, 1328.21 203.564 Q 1328.21 208.959, 1330.4 211.676 Q 1332.63 214.392, 1336.7 214.392 " fill="#FF0000"/>
<path class="atom-15" d="M 1753.39 256.983 Q 1753.39 250.569, 1756.56 246.985 Q 1759.73 243.4, 1765.65 243.4 Q 1771.57 243.4, 1774.74 246.985 Q 1777.91 250.569, 1777.91 256.983 Q 1777.91 263.473, 1774.71 267.171 Q 1771.5 270.831, 1765.65 270.831 Q 1759.76 270.831, 1756.56 267.171 Q 1753.39 263.511, 1753.39 256.983 M 1765.65 267.812 Q 1769.72 267.812, 1771.91 265.095 Q 1774.14 262.341, 1774.14 256.983 Q 1774.14 251.739, 1771.91 249.097 Q 1769.72 246.419, 1765.65 246.419 Q 1761.57 246.419, 1759.35 249.06 Q 1757.16 251.701, 1757.16 256.983 Q 1757.16 262.379, 1759.35 265.095 Q 1761.57 267.812, 1765.65 267.812 " fill="#FF0000"/>
<path class="atom-18" d="M 1676.44 412.815 L 1685.19 426.964 Q 1686.06 428.36, 1687.45 430.888 Q 1688.85 433.416, 1688.93 433.567 L 1688.93 412.815 L 1692.47 412.815 L 1692.47 439.529 L 1688.81 439.529 L 1679.42 424.059 Q 1678.32 422.248, 1677.15 420.173 Q 1676.02 418.098, 1675.68 417.456 L 1675.68 439.529 L 1672.21 439.529 L 1672.21 412.815 L 1676.44 412.815 " fill="#0000FF"/>
<path class="atom-18" d="M 1695.68 412.815 L 1699.3 412.815 L 1699.3 424.172 L 1712.96 424.172 L 1712.96 412.815 L 1716.58 412.815 L 1716.58 439.529 L 1712.96 439.529 L 1712.96 427.191 L 1699.3 427.191 L 1699.3 439.529 L 1695.68 439.529 L 1695.68 412.815 " fill="#0000FF"/>
<path class="atom-18" d="M 1717.88 438.592 Q 1718.52 436.923, 1720.07 436.002 Q 1721.61 435.055, 1723.75 435.055 Q 1726.42 435.055, 1727.91 436.5 Q 1729.41 437.944, 1729.41 440.509 Q 1729.41 443.124, 1727.46 445.564 Q 1725.55 448.005, 1721.56 450.893 L 1729.71 450.893 L 1729.71 452.886 L 1717.83 452.886 L 1717.83 451.217 Q 1721.11 448.876, 1723.06 447.133 Q 1725.02 445.39, 1725.97 443.821 Q 1726.92 442.252, 1726.92 440.634 Q 1726.92 438.94, 1726.07 437.994 Q 1725.22 437.048, 1723.75 437.048 Q 1722.33 437.048, 1721.39 437.62 Q 1720.44 438.193, 1719.77 439.463 L 1717.88 438.592 " fill="#0000FF"/>
<path class="atom-22" d="M 2490.39 344.113 Q 2490.39 337.699, 2493.56 334.114 Q 2496.73 330.53, 2502.65 330.53 Q 2508.57 330.53, 2511.74 334.114 Q 2514.91 337.699, 2514.91 344.113 Q 2514.91 350.603, 2511.7 354.301 Q 2508.5 357.96, 2502.65 357.96 Q 2496.76 357.96, 2493.56 354.301 Q 2490.39 350.641, 2490.39 344.113 M 2502.65 354.942 Q 2506.72 354.942, 2508.91 352.225 Q 2511.14 349.471, 2511.14 344.113 Q 2511.14 338.869, 2508.91 336.227 Q 2506.72 333.549, 2502.65 333.549 Q 2498.57 333.549, 2496.35 336.19 Q 2494.16 338.831, 2494.16 344.113 Q 2494.16 349.509, 2496.35 352.225 Q 2498.57 354.942, 2502.65 354.942 " fill="#FF0000"/>
<path class="atom-23" d="M 2408.7 202.622 Q 2408.7 196.208, 2411.87 192.623 Q 2415.04 189.039, 2420.96 189.039 Q 2426.88 189.039, 2430.05 192.623 Q 2433.22 196.208, 2433.22 202.622 Q 2433.22 209.112, 2430.01 212.809 Q 2426.81 216.469, 2420.96 216.469 Q 2415.07 216.469, 2411.87 212.809 Q 2408.7 209.149, 2408.7 202.622 M 2420.96 213.451 Q 2425.03 213.451, 2427.22 210.734 Q 2429.45 207.98, 2429.45 202.622 Q 2429.45 197.377, 2427.22 194.736 Q 2425.03 192.057, 2420.96 192.057 Q 2416.88 192.057, 2414.66 194.698 Q 2412.47 197.34, 2412.47 202.622 Q 2412.47 208.018, 2414.66 210.734 Q 2416.88 213.451, 2420.96 213.451 " fill="#FF0000"/>
<path class="atom-23" d="M 2436.43 189.341 L 2440.05 189.341 L 2440.05 200.698 L 2453.71 200.698 L 2453.71 189.341 L 2457.33 189.341 L 2457.33 216.054 L 2453.71 216.054 L 2453.71 203.716 L 2440.05 203.716 L 2440.05 216.054 L 2436.43 216.054 L 2436.43 189.341 " fill="#FF0000"/>
<path class="atom-25" d="M 3205.51 286.738 Q 3205.51 280.324, 3208.68 276.739 Q 3211.85 273.155, 3217.78 273.155 Q 3223.7 273.155, 3226.87 276.739 Q 3230.04 280.324, 3230.04 286.738 Q 3230.04 293.228, 3226.83 296.926 Q 3223.63 300.585, 3217.78 300.585 Q 3211.89 300.585, 3208.68 296.926 Q 3205.51 293.266, 3205.51 286.738 M 3217.78 297.567 Q 3221.85 297.567, 3224.04 294.85 Q 3226.27 292.096, 3226.27 286.738 Q 3226.27 281.494, 3224.04 278.852 Q 3221.85 276.174, 3217.78 276.174 Q 3213.7 276.174, 3211.48 278.815 Q 3209.29 281.456, 3209.29 286.738 Q 3209.29 292.134, 3211.48 294.85 Q 3213.7 297.567, 3217.78 297.567 " fill="#FF0000"/>
<path class="atom-27" d="M 3205.51 450.118 Q 3205.51 443.704, 3208.68 440.119 Q 3211.85 436.535, 3217.78 436.535 Q 3223.7 436.535, 3226.87 440.119 Q 3230.04 443.704, 3230.04 450.118 Q 3230.04 456.608, 3226.83 460.306 Q 3223.63 463.965, 3217.78 463.965 Q 3211.89 463.965, 3208.68 460.306 Q 3205.51 456.646, 3205.51 450.118 M 3217.78 460.947 Q 3221.85 460.947, 3224.04 458.23 Q 3226.27 455.476, 3226.27 450.118 Q 3226.27 444.874, 3224.04 442.232 Q 3221.85 439.554, 3217.78 439.554 Q 3213.7 439.554, 3211.48 442.195 Q 3209.29 444.836, 3209.29 450.118 Q 3209.29 455.514, 3211.48 458.23 Q 3213.7 460.947, 3217.78 460.947 " fill="#FF0000"/>
<path class="atom-32" d="M 2781.04 368.428 Q 2781.04 362.014, 2784.21 358.429 Q 2787.38 354.845, 2793.3 354.845 Q 2799.23 354.845, 2802.4 358.429 Q 2805.57 362.014, 2805.57 368.428 Q 2805.57 374.918, 2802.36 378.616 Q 2799.15 382.275, 2793.3 382.275 Q 2787.42 382.275, 2784.21 378.616 Q 2781.04 374.956, 2781.04 368.428 M 2793.3 379.257 Q 2797.38 379.257, 2799.57 376.54 Q 2801.79 373.786, 2801.79 368.428 Q 2801.79 363.184, 2799.57 360.542 Q 2797.38 357.864, 2793.3 357.864 Q 2789.23 357.864, 2787 360.505 Q 2784.81 363.146, 2784.81 368.428 Q 2784.81 373.824, 2787 376.54 Q 2789.23 379.257, 2793.3 379.257 " fill="#FF0000"/>
<path class="atom-36" d="M 3070.38 191.616 L 3079.13 205.765 Q 3080 207.161, 3081.4 209.689 Q 3082.79 212.217, 3082.87 212.368 L 3082.87 191.616 L 3086.42 191.616 L 3086.42 218.33 L 3082.76 218.33 L 3073.36 202.86 Q 3072.27 201.049, 3071.1 198.974 Q 3069.97 196.898, 3069.63 196.257 L 3069.63 218.33 L 3066.16 218.33 L 3066.16 191.616 L 3070.38 191.616 " fill="#0000FF"/>
<path class="atom-36" d="M 3089.62 191.616 L 3093.25 191.616 L 3093.25 202.973 L 3106.9 202.973 L 3106.9 191.616 L 3110.53 191.616 L 3110.53 218.33 L 3106.9 218.33 L 3106.9 205.991 L 3093.25 205.991 L 3093.25 218.33 L 3089.62 218.33 L 3089.62 191.616 " fill="#0000FF"/>
<path class="atom-39" d="M 2922.53 123.358 Q 2922.53 116.944, 2925.7 113.36 Q 2928.87 109.775, 2934.79 109.775 Q 2940.72 109.775, 2943.89 113.36 Q 2947.06 116.944, 2947.06 123.358 Q 2947.06 129.848, 2943.85 133.546 Q 2940.64 137.205, 2934.79 137.205 Q 2928.91 137.205, 2925.7 133.546 Q 2922.53 129.886, 2922.53 123.358 M 2934.79 134.187 Q 2938.87 134.187, 2941.06 131.47 Q 2943.28 128.716, 2943.28 123.358 Q 2943.28 118.114, 2941.06 115.472 Q 2938.87 112.794, 2934.79 112.794 Q 2930.72 112.794, 2928.49 115.435 Q 2926.31 118.076, 2926.31 123.358 Q 2926.31 128.754, 2928.49 131.47 Q 2930.72 134.187, 2934.79 134.187 " fill="#FF0000"/>
<path class="note" d="M 676.743 261.794 L 679.667 261.794 L 679.667 251.815 L 676.441 252.814 L 676.007 251.701 L 680.101 249.871 L 681.44 250.098 L 681.44 261.794 L 684.063 261.794 L 684.063 263.304 L 676.743 263.304 L 676.743 261.794 " fill="#000000"/>
<path class="note" d="M 765.124 270.34 Q 765.614 269.076, 766.784 268.378 Q 767.954 267.661, 769.576 267.661 Q 771.595 267.661, 772.726 268.755 Q 773.858 269.85, 773.858 271.793 Q 773.858 273.774, 772.387 275.622 Q 770.934 277.471, 767.916 279.66 L 774.085 279.66 L 774.085 281.169 L 765.086 281.169 L 765.086 279.905 Q 767.576 278.132, 769.048 276.811 Q 770.538 275.49, 771.255 274.302 Q 771.972 273.113, 771.972 271.887 Q 771.972 270.604, 771.33 269.887 Q 770.689 269.17, 769.576 269.17 Q 768.501 269.17, 767.784 269.604 Q 767.067 270.038, 766.557 271 L 765.124 270.34 " fill="#000000"/>
<path class="note" d="M 771.51 415.623 Q 772.811 416.001, 773.434 416.85 Q 774.075 417.68, 774.075 419 Q 774.075 420.132, 773.509 421.019 Q 772.943 421.887, 771.906 422.377 Q 770.868 422.849, 769.51 422.849 Q 768.076 422.849, 767.001 422.358 Q 765.944 421.849, 765.095 420.83 L 766.171 419.736 Q 767.001 420.642, 767.699 421 Q 768.397 421.34, 769.51 421.34 Q 770.717 421.34, 771.453 420.698 Q 772.189 420.038, 772.189 418.981 Q 772.189 417.623, 771.415 417.019 Q 770.661 416.397, 769.019 416.397 L 768.057 416.397 L 768.057 415.038 L 768.906 415.038 Q 770.359 415.02, 771.132 414.397 Q 771.906 413.756, 771.906 412.567 Q 771.906 411.699, 771.264 411.19 Q 770.623 410.662, 769.529 410.662 Q 768.416 410.662, 767.718 411.058 Q 767.039 411.454, 766.51 412.454 L 765.209 411.756 Q 765.68 410.643, 766.812 409.907 Q 767.944 409.152, 769.529 409.152 Q 771.491 409.152, 772.642 410.077 Q 773.792 411.001, 773.792 412.567 Q 773.792 413.642, 773.208 414.416 Q 772.623 415.189, 771.51 415.623 " fill="#000000"/>
<path class="note" d="M 854.813 213.624 L 856.416 213.624 L 856.416 215.133 L 854.813 215.133 L 854.813 218.208 L 853.039 218.208 L 853.039 215.133 L 846.135 215.133 L 846.135 213.945 L 851.983 204.852 L 854.813 204.852 L 854.813 213.624 M 848.323 213.624 L 853.039 213.624 L 853.039 206.059 L 848.323 213.624 " fill="#000000"/>
<path class="note" d="M 920.344 263.938 L 923.269 263.938 L 923.269 253.959 L 920.043 254.958 L 919.609 253.845 L 923.702 252.015 L 925.042 252.242 L 925.042 263.938 L 927.664 263.938 L 927.664 265.448 L 920.344 265.448 L 920.344 263.938 " fill="#000000"/>
<path class="note" d="M 935.644 258.373 Q 936.871 258.901, 937.569 259.694 Q 938.267 260.467, 938.267 261.788 Q 938.267 262.92, 937.682 263.806 Q 937.097 264.674, 936.04 265.165 Q 935.003 265.636, 933.626 265.636 Q 931.4 265.636, 930.117 264.618 Q 928.834 263.58, 928.834 261.788 Q 928.834 260.694, 929.4 259.882 Q 929.966 259.052, 931.135 258.43 Q 930.268 257.939, 929.796 257.222 Q 929.324 256.487, 929.324 255.355 Q 929.324 253.789, 930.456 252.864 Q 931.607 251.94, 933.55 251.94 Q 935.493 251.94, 936.625 252.864 Q 937.776 253.789, 937.776 255.355 Q 937.776 256.336, 937.229 257.071 Q 936.701 257.788, 935.644 258.373 M 933.55 253.355 Q 932.437 253.355, 931.815 253.883 Q 931.211 254.411, 931.211 255.355 Q 931.211 256.053, 931.626 256.524 Q 932.041 256.977, 932.626 257.241 Q 933.229 257.505, 934.38 257.901 Q 935.191 257.336, 935.531 256.732 Q 935.89 256.128, 935.89 255.355 Q 935.89 254.411, 935.267 253.883 Q 934.663 253.355, 933.55 253.355 M 933.626 264.221 Q 934.871 264.221, 935.625 263.561 Q 936.38 262.882, 936.38 261.769 Q 936.38 261.052, 935.984 260.599 Q 935.588 260.146, 934.984 259.882 Q 934.399 259.618, 933.343 259.279 L 932.494 258.996 Q 931.55 259.562, 931.135 260.241 Q 930.72 260.901, 930.72 261.769 Q 930.72 262.882, 931.513 263.561 Q 932.305 264.221, 933.626 264.221 " fill="#000000"/>
<path class="note" d="M 994.325 234.602 L 997.249 234.602 L 997.249 224.622 L 994.023 225.622 L 993.589 224.509 L 997.683 222.679 L 999.022 222.906 L 999.022 234.602 L 1001.64 234.602 L 1001.64 236.111 L 994.325 236.111 L 994.325 234.602 " fill="#000000"/>
<path class="note" d="M 1007.17 222.604 Q 1009.55 222.604, 1010.74 224.226 Q 1011.95 225.83, 1011.95 229.037 Q 1011.95 232.584, 1010.45 234.432 Q 1008.98 236.262, 1006.13 236.262 Q 1005.3 236.262, 1004.59 236.074 Q 1003.89 235.885, 1003.21 235.489 L 1003.95 234.225 Q 1004.93 234.753, 1006.12 234.753 Q 1008 234.753, 1008.96 233.546 Q 1009.93 232.319, 1010.04 229.81 Q 1009.36 230.433, 1008.49 230.772 Q 1007.64 231.093, 1006.72 231.093 Q 1005.55 231.093, 1004.63 230.584 Q 1003.7 230.074, 1003.19 229.15 Q 1002.68 228.226, 1002.68 227.056 Q 1002.68 225.754, 1003.25 224.754 Q 1003.83 223.736, 1004.85 223.17 Q 1005.87 222.604, 1007.17 222.604 M 1004.57 227.037 Q 1004.57 228.226, 1005.23 228.905 Q 1005.89 229.584, 1007.06 229.584 Q 1007.87 229.584, 1008.66 229.263 Q 1009.47 228.924, 1010.04 228.358 Q 1009.96 226.15, 1009.27 225.151 Q 1008.57 224.151, 1007.15 224.151 Q 1006.44 224.151, 1005.83 224.528 Q 1005.25 224.905, 1004.91 225.566 Q 1004.57 226.226, 1004.57 227.037 " fill="#000000"/>
<path class="note" d="M 918.543 411.831 Q 919.033 410.567, 920.203 409.869 Q 921.373 409.152, 922.995 409.152 Q 925.014 409.152, 926.145 410.247 Q 927.277 411.341, 927.277 413.284 Q 927.277 415.265, 925.806 417.114 Q 924.353 418.962, 921.335 421.151 L 927.504 421.151 L 927.504 422.66 L 918.505 422.66 L 918.505 421.396 Q 920.995 419.623, 922.467 418.302 Q 923.957 416.982, 924.674 415.793 Q 925.391 414.605, 925.391 413.378 Q 925.391 412.095, 924.749 411.379 Q 924.108 410.662, 922.995 410.662 Q 921.92 410.662, 921.203 411.096 Q 920.486 411.529, 919.976 412.492 L 918.543 411.831 " fill="#000000"/>
<path class="note" d="M 933.541 422.811 Q 931.088 422.811, 929.862 421 Q 928.655 419.189, 928.655 415.963 Q 928.655 412.737, 929.862 410.945 Q 931.069 409.152, 933.541 409.152 Q 936.012 409.152, 937.22 410.945 Q 938.427 412.737, 938.427 415.963 Q 938.427 419.189, 937.201 421 Q 935.993 422.811, 933.541 422.811 M 933.541 421.302 Q 934.993 421.302, 935.767 419.962 Q 936.54 418.604, 936.54 415.963 Q 936.54 413.341, 935.767 412.001 Q 934.993 410.662, 933.541 410.662 Q 932.107 410.662, 931.315 412.001 Q 930.541 413.341, 930.541 415.963 Q 930.541 418.604, 931.315 419.962 Q 932.107 421.302, 933.541 421.302 " fill="#000000"/>
<path class="note" d="M 1254.76 386.76 Q 1255.93 386.76, 1256.89 387.269 Q 1257.86 387.76, 1258.4 388.703 Q 1258.95 389.628, 1258.95 390.892 Q 1258.95 392.269, 1258.27 393.269 Q 1257.61 394.25, 1256.52 394.759 Q 1255.42 395.268, 1254.18 395.268 Q 1252.95 395.268, 1251.82 394.816 Q 1250.69 394.363, 1249.91 393.495 L 1251.05 392.325 Q 1251.67 393.005, 1252.52 393.382 Q 1253.37 393.74, 1254.23 393.74 Q 1255.42 393.74, 1256.23 393.005 Q 1257.06 392.269, 1257.06 390.929 Q 1257.06 389.514, 1256.23 388.854 Q 1255.42 388.175, 1254.12 388.175 Q 1252.95 388.175, 1251.65 388.684 L 1250.61 388.194 L 1251.25 381.761 L 1258.12 381.761 L 1257.93 383.27 L 1252.8 383.27 L 1252.4 387.232 Q 1253.59 386.76, 1254.76 386.76 " fill="#000000"/>
<path class="note" d="M 1365.6 391.055 Q 1366.77 391.055, 1367.69 391.564 Q 1368.61 392.074, 1369.12 392.998 Q 1369.63 393.923, 1369.63 395.092 Q 1369.63 396.394, 1369.05 397.413 Q 1368.48 398.413, 1367.46 398.979 Q 1366.44 399.545, 1365.14 399.545 Q 1362.77 399.545, 1361.56 397.941 Q 1360.37 396.319, 1360.37 393.111 Q 1360.37 389.565, 1361.84 387.735 Q 1363.33 385.886, 1366.18 385.886 Q 1367.01 385.886, 1367.71 386.075 Q 1368.43 386.263, 1369.1 386.659 L 1368.37 387.923 Q 1367.39 387.395, 1366.2 387.395 Q 1364.31 387.395, 1363.35 388.621 Q 1362.39 389.829, 1362.28 392.338 Q 1362.95 391.715, 1363.8 391.395 Q 1364.67 391.055, 1365.6 391.055 M 1365.16 397.998 Q 1365.88 397.998, 1366.46 397.62 Q 1367.07 397.243, 1367.41 396.583 Q 1367.75 395.922, 1367.75 395.111 Q 1367.75 393.923, 1367.09 393.243 Q 1366.43 392.564, 1365.26 392.564 Q 1364.44 392.564, 1363.63 392.904 Q 1362.84 393.225, 1362.28 393.791 Q 1362.35 395.998, 1363.05 396.998 Q 1363.75 397.998, 1365.16 397.998 " fill="#000000"/>
<path class="note" d="M 1400.48 289.774 L 1393.48 289.774 L 1393.48 288.264 L 1402.34 288.264 L 1402.34 289.604 L 1396.95 301.621 L 1395.14 301.621 L 1400.48 289.774 " fill="#000000"/>
<path class="note" d="M 1321.31 177.037 Q 1322.53 177.566, 1323.23 178.358 Q 1323.93 179.132, 1323.93 180.452 Q 1323.93 181.584, 1323.34 182.471 Q 1322.76 183.339, 1321.7 183.829 Q 1320.66 184.301, 1319.29 184.301 Q 1317.06 184.301, 1315.78 183.282 Q 1314.5 182.244, 1314.5 180.452 Q 1314.5 179.358, 1315.06 178.547 Q 1315.63 177.717, 1316.8 177.094 Q 1315.93 176.604, 1315.46 175.887 Q 1314.99 175.151, 1314.99 174.019 Q 1314.99 172.453, 1316.12 171.529 Q 1317.27 170.604, 1319.21 170.604 Q 1321.15 170.604, 1322.29 171.529 Q 1323.44 172.453, 1323.44 174.019 Q 1323.44 175, 1322.89 175.736 Q 1322.36 176.453, 1321.31 177.037 M 1319.21 172.019 Q 1318.1 172.019, 1317.48 172.547 Q 1316.87 173.076, 1316.87 174.019 Q 1316.87 174.717, 1317.29 175.189 Q 1317.7 175.641, 1318.29 175.906 Q 1318.89 176.17, 1320.04 176.566 Q 1320.85 176, 1321.19 175.396 Q 1321.55 174.792, 1321.55 174.019 Q 1321.55 173.076, 1320.93 172.547 Q 1320.32 172.019, 1319.21 172.019 M 1319.29 182.886 Q 1320.53 182.886, 1321.29 182.225 Q 1322.04 181.546, 1322.04 180.433 Q 1322.04 179.716, 1321.65 179.264 Q 1321.25 178.811, 1320.65 178.547 Q 1320.06 178.283, 1319 177.943 L 1318.16 177.66 Q 1317.21 178.226, 1316.8 178.905 Q 1316.38 179.565, 1316.38 180.433 Q 1316.38 181.546, 1317.17 182.225 Q 1317.97 182.886, 1319.29 182.886 " fill="#000000"/>
<path class="note" d="M 1474.4 255.816 Q 1476.78 255.816, 1477.97 257.439 Q 1479.17 259.042, 1479.17 262.25 Q 1479.17 265.796, 1477.68 267.645 Q 1476.21 269.475, 1473.36 269.475 Q 1472.53 269.475, 1471.82 269.286 Q 1471.12 269.098, 1470.44 268.702 L 1471.18 267.438 Q 1472.16 267.966, 1473.35 267.966 Q 1475.23 267.966, 1476.19 266.758 Q 1477.16 265.532, 1477.27 263.023 Q 1476.59 263.646, 1475.72 263.985 Q 1474.87 264.306, 1473.95 264.306 Q 1472.78 264.306, 1471.85 263.797 Q 1470.93 263.287, 1470.42 262.363 Q 1469.91 261.438, 1469.91 260.269 Q 1469.91 258.967, 1470.48 257.967 Q 1471.06 256.948, 1472.08 256.382 Q 1473.1 255.816, 1474.4 255.816 M 1471.8 260.25 Q 1471.8 261.438, 1472.46 262.118 Q 1473.12 262.797, 1474.29 262.797 Q 1475.1 262.797, 1475.89 262.476 Q 1476.7 262.136, 1477.27 261.57 Q 1477.19 259.363, 1476.5 258.363 Q 1475.8 257.363, 1474.38 257.363 Q 1473.67 257.363, 1473.06 257.741 Q 1472.48 258.118, 1472.14 258.778 Q 1471.8 259.439, 1471.8 260.25 " fill="#000000"/>
<path class="note" d="M 1503.42 183.183 L 1506.34 183.183 L 1506.34 173.203 L 1503.11 174.203 L 1502.68 173.09 L 1506.77 171.26 L 1508.11 171.486 L 1508.11 183.183 L 1510.74 183.183 L 1510.74 184.692 L 1503.42 184.692 L 1503.42 183.183 " fill="#000000"/>
<path class="note" d="M 1516.77 184.843 Q 1514.32 184.843, 1513.09 183.032 Q 1511.89 181.221, 1511.89 177.995 Q 1511.89 174.769, 1513.09 172.977 Q 1514.3 171.184, 1516.77 171.184 Q 1519.24 171.184, 1520.45 172.977 Q 1521.66 174.769, 1521.66 177.995 Q 1521.66 181.221, 1520.43 183.032 Q 1519.23 184.843, 1516.77 184.843 M 1516.77 183.334 Q 1518.23 183.334, 1519 181.994 Q 1519.77 180.636, 1519.77 177.995 Q 1519.77 175.372, 1519 174.033 Q 1518.23 172.694, 1516.77 172.694 Q 1515.34 172.694, 1514.55 174.033 Q 1513.77 175.372, 1513.77 177.995 Q 1513.77 180.636, 1514.55 181.994 Q 1515.34 183.334, 1516.77 183.334 " fill="#000000"/>
<path class="note" d="M 1614.15 175.862 L 1617.07 175.862 L 1617.07 165.882 L 1613.85 166.882 L 1613.41 165.769 L 1617.51 163.939 L 1618.85 164.166 L 1618.85 175.862 L 1621.47 175.862 L 1621.47 177.371 L 1614.15 177.371 L 1614.15 175.862 " fill="#000000"/>
<path class="note" d="M 1623.22 175.862 L 1626.15 175.862 L 1626.15 165.882 L 1622.92 166.882 L 1622.49 165.769 L 1626.58 163.939 L 1627.92 164.166 L 1627.92 175.862 L 1630.54 175.862 L 1630.54 177.371 L 1623.22 177.371 L 1623.22 175.862 " fill="#000000"/>
<path class="note" d="M 1673.12 240.184 L 1676.05 240.184 L 1676.05 230.204 L 1672.82 231.204 L 1672.39 230.091 L 1676.48 228.261 L 1677.82 228.488 L 1677.82 240.184 L 1680.44 240.184 L 1680.44 241.693 L 1673.12 241.693 L 1673.12 240.184 " fill="#000000"/>
<path class="note" d="M 1681.42 230.865 Q 1681.91 229.601, 1683.08 228.903 Q 1684.25 228.186, 1685.88 228.186 Q 1687.89 228.186, 1689.03 229.28 Q 1690.16 230.374, 1690.16 232.317 Q 1690.16 234.298, 1688.69 236.147 Q 1687.23 237.996, 1684.22 240.184 L 1690.38 240.184 L 1690.38 241.693 L 1681.39 241.693 L 1681.39 240.429 Q 1683.88 238.656, 1685.35 237.335 Q 1686.84 236.015, 1687.55 234.826 Q 1688.27 233.638, 1688.27 232.412 Q 1688.27 231.129, 1687.63 230.412 Q 1686.99 229.695, 1685.88 229.695 Q 1684.8 229.695, 1684.08 230.129 Q 1683.37 230.563, 1682.86 231.525 L 1681.42 230.865 " fill="#000000"/>
<path class="note" d="M 1767.33 233.942 L 1770.25 233.942 L 1770.25 223.962 L 1767.03 224.962 L 1766.59 223.849 L 1770.69 222.019 L 1772.03 222.245 L 1772.03 233.942 L 1774.65 233.942 L 1774.65 235.451 L 1767.33 235.451 L 1767.33 233.942 " fill="#000000"/>
<path class="note" d="M 1781.85 228.414 Q 1783.16 228.791, 1783.78 229.64 Q 1784.42 230.47, 1784.42 231.791 Q 1784.42 232.923, 1783.85 233.81 Q 1783.29 234.677, 1782.25 235.168 Q 1781.21 235.64, 1779.86 235.64 Q 1778.42 235.64, 1777.35 235.149 Q 1776.29 234.64, 1775.44 233.621 L 1776.52 232.527 Q 1777.35 233.432, 1778.04 233.791 Q 1778.74 234.13, 1779.86 234.13 Q 1781.06 234.13, 1781.8 233.489 Q 1782.53 232.829, 1782.53 231.772 Q 1782.53 230.414, 1781.76 229.81 Q 1781.01 229.188, 1779.36 229.188 L 1778.4 229.188 L 1778.4 227.829 L 1779.25 227.829 Q 1780.7 227.81, 1781.48 227.188 Q 1782.25 226.546, 1782.25 225.358 Q 1782.25 224.49, 1781.61 223.981 Q 1780.97 223.452, 1779.87 223.452 Q 1778.76 223.452, 1778.06 223.849 Q 1777.38 224.245, 1776.86 225.245 L 1775.55 224.547 Q 1776.03 223.434, 1777.16 222.698 Q 1778.29 221.943, 1779.87 221.943 Q 1781.84 221.943, 1782.99 222.868 Q 1784.14 223.792, 1784.14 225.358 Q 1784.14 226.433, 1783.55 227.207 Q 1782.97 227.98, 1781.85 228.414 " fill="#000000"/>
<path class="note" d="M 1789.69 341.545 L 1792.61 341.545 L 1792.61 331.565 L 1789.38 332.565 L 1788.95 331.452 L 1793.04 329.622 L 1794.38 329.848 L 1794.38 341.545 L 1797.01 341.545 L 1797.01 343.054 L 1789.69 343.054 L 1789.69 341.545 " fill="#000000"/>
<path class="note" d="M 1806.25 338.47 L 1807.85 338.47 L 1807.85 339.979 L 1806.25 339.979 L 1806.25 343.054 L 1804.48 343.054 L 1804.48 339.979 L 1797.57 339.979 L 1797.57 338.79 L 1803.42 329.697 L 1806.25 329.697 L 1806.25 338.47 M 1799.76 338.47 L 1804.48 338.47 L 1804.48 330.905 L 1799.76 338.47 " fill="#000000"/>
<path class="note" d="M 1610.34 367.132 L 1613.26 367.132 L 1613.26 357.153 L 1610.04 358.152 L 1609.6 357.039 L 1613.7 355.209 L 1615.04 355.436 L 1615.04 367.132 L 1617.66 367.132 L 1617.66 368.642 L 1610.34 368.642 L 1610.34 367.132 " fill="#000000"/>
<path class="note" d="M 1624.17 360.303 Q 1625.34 360.303, 1626.26 360.812 Q 1627.19 361.322, 1627.7 362.246 Q 1628.21 363.171, 1628.21 364.34 Q 1628.21 365.642, 1627.62 366.661 Q 1627.05 367.661, 1626.04 368.227 Q 1625.02 368.793, 1623.72 368.793 Q 1621.34 368.793, 1620.13 367.189 Q 1618.94 365.567, 1618.94 362.359 Q 1618.94 358.813, 1620.41 356.983 Q 1621.9 355.134, 1624.75 355.134 Q 1625.58 355.134, 1626.28 355.323 Q 1627 355.511, 1627.68 355.907 L 1626.94 357.171 Q 1625.96 356.643, 1624.77 356.643 Q 1622.89 356.643, 1621.92 357.869 Q 1620.96 359.077, 1620.85 361.586 Q 1621.53 360.963, 1622.38 360.643 Q 1623.24 360.303, 1624.17 360.303 M 1623.73 367.246 Q 1624.45 367.246, 1625.04 366.868 Q 1625.64 366.491, 1625.98 365.831 Q 1626.32 365.17, 1626.32 364.359 Q 1626.32 363.171, 1625.66 362.491 Q 1625 361.812, 1623.83 361.812 Q 1623.02 361.812, 1622.21 362.152 Q 1621.41 362.473, 1620.85 363.039 Q 1620.92 365.246, 1621.62 366.246 Q 1622.32 367.246, 1623.73 367.246 " fill="#000000"/>
<path class="note" d="M 1687.91 457.509 L 1690.83 457.509 L 1690.83 447.529 L 1687.61 448.529 L 1687.17 447.416 L 1691.27 445.586 L 1692.6 445.812 L 1692.6 457.509 L 1695.23 457.509 L 1695.23 459.018 L 1687.91 459.018 L 1687.91 457.509 " fill="#000000"/>
<path class="note" d="M 1702.57 447.171 L 1695.57 447.171 L 1695.57 445.661 L 1704.43 445.661 L 1704.43 447.001 L 1699.04 459.018 L 1697.23 459.018 L 1702.57 447.171 " fill="#000000"/>
<path class="note" d="M 1516.54 373.337 L 1519.46 373.337 L 1519.46 363.357 L 1516.24 364.357 L 1515.8 363.244 L 1519.9 361.414 L 1521.24 361.641 L 1521.24 373.337 L 1523.86 373.337 L 1523.86 374.846 L 1516.54 374.846 L 1516.54 373.337 " fill="#000000"/>
<path class="note" d="M 1529.58 366.489 Q 1530.75 366.489, 1531.71 366.998 Q 1532.67 367.489, 1533.22 368.432 Q 1533.76 369.357, 1533.76 370.621 Q 1533.76 371.998, 1533.08 372.998 Q 1532.42 373.979, 1531.33 374.488 Q 1530.24 374.997, 1528.99 374.997 Q 1527.76 374.997, 1526.63 374.545 Q 1525.5 374.092, 1524.73 373.224 L 1525.86 372.054 Q 1526.48 372.733, 1527.33 373.111 Q 1528.18 373.469, 1529.05 373.469 Q 1530.24 373.469, 1531.05 372.733 Q 1531.88 371.998, 1531.88 370.658 Q 1531.88 369.243, 1531.05 368.583 Q 1530.24 367.904, 1528.93 367.904 Q 1527.76 367.904, 1526.46 368.413 L 1525.43 367.923 L 1526.07 361.49 L 1532.93 361.49 L 1532.75 362.999 L 1527.61 362.999 L 1527.22 366.961 Q 1528.41 366.489, 1529.58 366.489 " fill="#000000"/>
<path class="note" d="M 2343.84 362.86 L 2346.76 362.86 L 2346.76 352.88 L 2343.54 353.88 L 2343.1 352.767 L 2347.2 350.937 L 2348.54 351.163 L 2348.54 362.86 L 2351.16 362.86 L 2351.16 364.369 L 2343.84 364.369 L 2343.84 362.86 " fill="#000000"/>
<path class="note" d="M 2408.64 279.184 Q 2409.13 277.92, 2410.3 277.222 Q 2411.47 276.505, 2413.09 276.505 Q 2415.11 276.505, 2416.24 277.599 Q 2417.37 278.694, 2417.37 280.637 Q 2417.37 282.618, 2415.9 284.466 Q 2414.45 286.315, 2411.43 288.504 L 2417.6 288.504 L 2417.6 290.013 L 2408.6 290.013 L 2408.6 288.749 Q 2411.09 286.975, 2412.56 285.655 Q 2414.05 284.334, 2414.77 283.146 Q 2415.48 281.957, 2415.48 280.731 Q 2415.48 279.448, 2414.84 278.731 Q 2414.2 278.014, 2413.09 278.014 Q 2412.01 278.014, 2411.3 278.448 Q 2410.58 278.882, 2410.07 279.844 L 2408.64 279.184 " fill="#000000"/>
<path class="note" d="M 2531.8 359.476 Q 2533.11 359.853, 2533.73 360.702 Q 2534.37 361.532, 2534.37 362.853 Q 2534.37 363.985, 2533.8 364.872 Q 2533.24 365.739, 2532.2 366.23 Q 2531.16 366.701, 2529.8 366.701 Q 2528.37 366.701, 2527.29 366.211 Q 2526.24 365.702, 2525.39 364.683 L 2526.46 363.589 Q 2527.29 364.494, 2527.99 364.853 Q 2528.69 365.192, 2529.8 365.192 Q 2531.01 365.192, 2531.75 364.551 Q 2532.48 363.891, 2532.48 362.834 Q 2532.48 361.476, 2531.71 360.872 Q 2530.95 360.249, 2529.31 360.249 L 2528.35 360.249 L 2528.35 358.891 L 2529.2 358.891 Q 2530.65 358.872, 2531.43 358.25 Q 2532.2 357.608, 2532.2 356.42 Q 2532.2 355.552, 2531.56 355.043 Q 2530.92 354.514, 2529.82 354.514 Q 2528.71 354.514, 2528.01 354.911 Q 2527.33 355.307, 2526.8 356.307 L 2525.5 355.609 Q 2525.97 354.496, 2527.11 353.76 Q 2528.24 353.005, 2529.82 353.005 Q 2531.78 353.005, 2532.94 353.93 Q 2534.09 354.854, 2534.09 356.42 Q 2534.09 357.495, 2533.5 358.269 Q 2532.92 359.042, 2531.8 359.476 " fill="#000000"/>
<path class="note" d="M 2424.5 173.198 L 2426.1 173.198 L 2426.1 174.707 L 2424.5 174.707 L 2424.5 177.782 L 2422.72 177.782 L 2422.72 174.707 L 2415.82 174.707 L 2415.82 173.519 L 2421.67 164.426 L 2424.5 164.426 L 2424.5 173.198 M 2418.01 173.198 L 2422.72 173.198 L 2422.72 165.633 L 2418.01 173.198 " fill="#000000"/>
<path class="note" d="M 3312.43 269.262 Q 3313.6 269.262, 3314.57 269.772 Q 3315.53 270.262, 3316.08 271.206 Q 3316.62 272.13, 3316.62 273.394 Q 3316.62 274.771, 3315.94 275.771 Q 3315.28 276.752, 3314.19 277.261 Q 3313.1 277.771, 3311.85 277.771 Q 3310.62 277.771, 3309.49 277.318 Q 3308.36 276.865, 3307.59 275.997 L 3308.72 274.828 Q 3309.34 275.507, 3310.19 275.884 Q 3311.04 276.243, 3311.91 276.243 Q 3313.1 276.243, 3313.91 275.507 Q 3314.74 274.771, 3314.74 273.432 Q 3314.74 272.017, 3313.91 271.357 Q 3313.1 270.677, 3311.79 270.677 Q 3310.62 270.677, 3309.32 271.187 L 3308.28 270.696 L 3308.93 264.263 L 3315.79 264.263 L 3315.6 265.772 L 3310.47 265.772 L 3310.08 269.734 Q 3311.27 269.262, 3312.43 269.262 " fill="#000000"/>
<path class="note" d="M 3202.65 257.848 Q 3203.82 257.848, 3204.74 258.357 Q 3205.67 258.867, 3206.18 259.791 Q 3206.69 260.716, 3206.69 261.885 Q 3206.69 263.187, 3206.1 264.206 Q 3205.54 265.206, 3204.52 265.772 Q 3203.5 266.338, 3202.2 266.338 Q 3199.82 266.338, 3198.61 264.734 Q 3197.42 263.112, 3197.42 259.904 Q 3197.42 256.358, 3198.9 254.528 Q 3200.39 252.679, 3203.23 252.679 Q 3204.07 252.679, 3204.76 252.868 Q 3205.48 253.056, 3206.16 253.452 L 3205.42 254.716 Q 3204.44 254.188, 3203.25 254.188 Q 3201.37 254.188, 3200.41 255.414 Q 3199.44 256.622, 3199.33 259.131 Q 3200.01 258.508, 3200.86 258.188 Q 3201.73 257.848, 3202.65 257.848 M 3202.22 264.791 Q 3202.93 264.791, 3203.52 264.413 Q 3204.12 264.036, 3204.46 263.376 Q 3204.8 262.715, 3204.8 261.904 Q 3204.8 260.716, 3204.14 260.036 Q 3203.48 259.357, 3202.31 259.357 Q 3201.5 259.357, 3200.69 259.697 Q 3199.9 260.018, 3199.33 260.584 Q 3199.41 262.791, 3200.1 263.791 Q 3200.8 264.791, 3202.22 264.791 " fill="#000000"/>
<path class="note" d="M 3165.32 349.569 L 3158.32 349.569 L 3158.32 348.059 L 3167.19 348.059 L 3167.19 349.399 L 3161.79 361.416 L 3159.98 361.416 L 3165.32 349.569 " fill="#000000"/>
<path class="note" d="M 3235.59 476.952 Q 3236.82 477.48, 3237.52 478.273 Q 3238.21 479.046, 3238.21 480.367 Q 3238.21 481.499, 3237.63 482.385 Q 3237.05 483.253, 3235.99 483.744 Q 3234.95 484.215, 3233.57 484.215 Q 3231.35 484.215, 3230.06 483.196 Q 3228.78 482.159, 3228.78 480.367 Q 3228.78 479.272, 3229.35 478.461 Q 3229.91 477.631, 3231.08 477.009 Q 3230.22 476.518, 3229.74 475.801 Q 3229.27 475.065, 3229.27 473.934 Q 3229.27 472.368, 3230.4 471.443 Q 3231.56 470.519, 3233.5 470.519 Q 3235.44 470.519, 3236.57 471.443 Q 3237.72 472.368, 3237.72 473.934 Q 3237.72 474.915, 3237.18 475.65 Q 3236.65 476.367, 3235.59 476.952 M 3233.5 471.934 Q 3232.39 471.934, 3231.76 472.462 Q 3231.16 472.99, 3231.16 473.934 Q 3231.16 474.632, 3231.57 475.103 Q 3231.99 475.556, 3232.57 475.82 Q 3233.18 476.084, 3234.33 476.48 Q 3235.14 475.914, 3235.48 475.311 Q 3235.84 474.707, 3235.84 473.934 Q 3235.84 472.99, 3235.22 472.462 Q 3234.61 471.934, 3233.5 471.934 M 3233.57 482.8 Q 3234.82 482.8, 3235.57 482.14 Q 3236.33 481.461, 3236.33 480.348 Q 3236.33 479.631, 3235.93 479.178 Q 3235.54 478.725, 3234.93 478.461 Q 3234.35 478.197, 3233.29 477.858 L 3232.44 477.575 Q 3231.5 478.141, 3231.08 478.82 Q 3230.67 479.48, 3230.67 480.348 Q 3230.67 481.461, 3231.46 482.14 Q 3232.25 482.8, 3233.57 482.8 " fill="#000000"/>
<path class="note" d="M 3084.01 375.214 Q 3086.38 375.214, 3087.57 376.836 Q 3088.78 378.44, 3088.78 381.647 Q 3088.78 385.194, 3087.29 387.043 Q 3085.82 388.873, 3082.97 388.873 Q 3082.14 388.873, 3081.42 388.684 Q 3080.72 388.495, 3080.04 388.099 L 3080.78 386.835 Q 3081.76 387.363, 3082.95 387.363 Q 3084.84 387.363, 3085.8 386.156 Q 3086.76 384.93, 3086.87 382.421 Q 3086.19 383.043, 3085.33 383.383 Q 3084.48 383.703, 3083.55 383.703 Q 3082.38 383.703, 3081.46 383.194 Q 3080.53 382.685, 3080.02 381.76 Q 3079.52 380.836, 3079.52 379.666 Q 3079.52 378.364, 3080.08 377.365 Q 3080.67 376.346, 3081.68 375.78 Q 3082.7 375.214, 3084.01 375.214 M 3081.4 379.647 Q 3081.4 380.836, 3082.06 381.515 Q 3082.72 382.194, 3083.89 382.194 Q 3084.7 382.194, 3085.5 381.873 Q 3086.31 381.534, 3086.87 380.968 Q 3086.8 378.761, 3086.1 377.761 Q 3085.4 376.761, 3083.99 376.761 Q 3083.27 376.761, 3082.67 377.138 Q 3082.08 377.515, 3081.74 378.176 Q 3081.4 378.836, 3081.4 379.647 " fill="#000000"/>
<path class="note" d="M 3024.2 468.902 L 3027.13 468.902 L 3027.13 458.922 L 3023.9 459.922 L 3023.47 458.809 L 3027.56 456.979 L 3028.9 457.206 L 3028.9 468.902 L 3031.52 468.902 L 3031.52 470.412 L 3024.2 470.412 L 3024.2 468.902 " fill="#000000"/>
<path class="note" d="M 3037.56 470.562 Q 3035.11 470.562, 3033.88 468.751 Q 3032.67 466.94, 3032.67 463.714 Q 3032.67 460.488, 3033.88 458.696 Q 3035.09 456.904, 3037.56 456.904 Q 3040.03 456.904, 3041.24 458.696 Q 3042.44 460.488, 3042.44 463.714 Q 3042.44 466.94, 3041.22 468.751 Q 3040.01 470.562, 3037.56 470.562 M 3037.56 469.053 Q 3039.01 469.053, 3039.78 467.714 Q 3040.56 466.355, 3040.56 463.714 Q 3040.56 461.092, 3039.78 459.753 Q 3039.01 458.413, 3037.56 458.413 Q 3036.12 458.413, 3035.33 459.753 Q 3034.56 461.092, 3034.56 463.714 Q 3034.56 466.355, 3035.33 467.714 Q 3036.12 469.053, 3037.56 469.053 " fill="#000000"/>
<path class="note" d="M 2915.08 468.865 L 2918 468.865 L 2918 458.885 L 2914.78 459.885 L 2914.34 458.772 L 2918.44 456.942 L 2919.77 457.168 L 2919.77 468.865 L 2922.4 468.865 L 2922.4 470.374 L 2915.08 470.374 L 2915.08 468.865 " fill="#000000"/>
<path class="note" d="M 2924.15 468.865 L 2927.08 468.865 L 2927.08 458.885 L 2923.85 459.885 L 2923.42 458.772 L 2927.51 456.942 L 2928.85 457.168 L 2928.85 468.865 L 2931.47 468.865 L 2931.47 470.374 L 2924.15 470.374 L 2924.15 468.865 " fill="#000000"/>
<path class="note" d="M 2867.48 387.212 L 2870.4 387.212 L 2870.4 377.232 L 2867.18 378.232 L 2866.74 377.119 L 2870.84 375.289 L 2872.18 375.516 L 2872.18 387.212 L 2874.8 387.212 L 2874.8 388.722 L 2867.48 388.722 L 2867.48 387.212 " fill="#000000"/>
<path class="note" d="M 2875.78 377.893 Q 2876.27 376.629, 2877.44 375.931 Q 2878.61 375.214, 2880.23 375.214 Q 2882.25 375.214, 2883.38 376.308 Q 2884.52 377.402, 2884.52 379.345 Q 2884.52 381.326, 2883.04 383.175 Q 2881.59 385.024, 2878.57 387.212 L 2884.74 387.212 L 2884.74 388.722 L 2875.74 388.722 L 2875.74 387.458 Q 2878.23 385.684, 2879.7 384.364 Q 2881.19 383.043, 2881.91 381.855 Q 2882.63 380.666, 2882.63 379.44 Q 2882.63 378.157, 2881.99 377.44 Q 2881.35 376.723, 2880.23 376.723 Q 2879.16 376.723, 2878.44 377.157 Q 2877.72 377.591, 2877.21 378.553 L 2875.78 377.893 " fill="#000000"/>
<path class="note" d="M 2765.38 400.827 L 2768.3 400.827 L 2768.3 390.847 L 2765.07 391.847 L 2764.64 390.734 L 2768.73 388.904 L 2770.07 389.131 L 2770.07 400.827 L 2772.7 400.827 L 2772.7 402.337 L 2765.38 402.337 L 2765.38 400.827 " fill="#000000"/>
<path class="note" d="M 2779.9 395.3 Q 2781.2 395.677, 2781.83 396.526 Q 2782.47 397.356, 2782.47 398.677 Q 2782.47 399.809, 2781.9 400.695 Q 2781.34 401.563, 2780.3 402.054 Q 2779.26 402.525, 2777.9 402.525 Q 2776.47 402.525, 2775.39 402.035 Q 2774.34 401.525, 2773.49 400.507 L 2774.56 399.412 Q 2775.39 400.318, 2776.09 400.676 Q 2776.79 401.016, 2777.9 401.016 Q 2779.11 401.016, 2779.85 400.375 Q 2780.58 399.714, 2780.58 398.658 Q 2780.58 397.299, 2779.81 396.696 Q 2779.05 396.073, 2777.41 396.073 L 2776.45 396.073 L 2776.45 394.715 L 2777.3 394.715 Q 2778.75 394.696, 2779.53 394.073 Q 2780.3 393.432, 2780.3 392.244 Q 2780.3 391.376, 2779.66 390.866 Q 2779.02 390.338, 2777.92 390.338 Q 2776.81 390.338, 2776.11 390.734 Q 2775.43 391.13, 2774.9 392.13 L 2773.6 391.432 Q 2774.07 390.319, 2775.21 389.584 Q 2776.34 388.829, 2777.92 388.829 Q 2779.88 388.829, 2781.03 389.753 Q 2782.19 390.678, 2782.19 392.244 Q 2782.19 393.319, 2781.6 394.092 Q 2781.02 394.866, 2779.9 395.3 " fill="#000000"/>
<path class="note" d="M 2719.78 299.73 L 2722.71 299.73 L 2722.71 289.75 L 2719.48 290.75 L 2719.05 289.637 L 2723.14 287.807 L 2724.48 288.034 L 2724.48 299.73 L 2727.1 299.73 L 2727.1 301.239 L 2719.78 301.239 L 2719.78 299.73 " fill="#000000"/>
<path class="note" d="M 2736.35 296.655 L 2737.95 296.655 L 2737.95 298.164 L 2736.35 298.164 L 2736.35 301.239 L 2734.57 301.239 L 2734.57 298.164 L 2727.67 298.164 L 2727.67 296.976 L 2733.52 287.883 L 2736.35 287.883 L 2736.35 296.655 M 2729.86 296.655 L 2734.57 296.655 L 2734.57 289.09 L 2729.86 296.655 " fill="#000000"/>
<path class="note" d="M 2914.66 278.255 L 2917.59 278.255 L 2917.59 268.275 L 2914.36 269.275 L 2913.93 268.162 L 2918.02 266.332 L 2919.36 266.558 L 2919.36 278.255 L 2921.98 278.255 L 2921.98 279.764 L 2914.66 279.764 L 2914.66 278.255 " fill="#000000"/>
<path class="note" d="M 2927.7 271.406 Q 2928.87 271.406, 2929.83 271.916 Q 2930.79 272.406, 2931.34 273.35 Q 2931.89 274.274, 2931.89 275.538 Q 2931.89 276.915, 2931.21 277.915 Q 2930.55 278.896, 2929.45 279.405 Q 2928.36 279.915, 2927.11 279.915 Q 2925.89 279.915, 2924.76 279.462 Q 2923.62 279.009, 2922.85 278.141 L 2923.98 276.972 Q 2924.6 277.651, 2925.45 278.028 Q 2926.3 278.387, 2927.17 278.387 Q 2928.36 278.387, 2929.17 277.651 Q 2930 276.915, 2930 275.576 Q 2930 274.161, 2929.17 273.501 Q 2928.36 272.821, 2927.06 272.821 Q 2925.89 272.821, 2924.59 273.331 L 2923.55 272.84 L 2924.19 266.407 L 2931.06 266.407 L 2930.87 267.916 L 2925.74 267.916 L 2925.34 271.878 Q 2926.53 271.406, 2927.7 271.406 " fill="#000000"/>
<path class="note" d="M 3008.67 278.292 L 3011.59 278.292 L 3011.59 268.313 L 3008.37 269.312 L 3007.93 268.199 L 3012.03 266.369 L 3013.37 266.596 L 3013.37 278.292 L 3015.99 278.292 L 3015.99 279.802 L 3008.67 279.802 L 3008.67 278.292 " fill="#000000"/>
<path class="note" d="M 3022.5 271.463 Q 3023.67 271.463, 3024.59 271.972 Q 3025.52 272.482, 3026.03 273.406 Q 3026.53 274.331, 3026.53 275.5 Q 3026.53 276.802, 3025.95 277.821 Q 3025.38 278.821, 3024.36 279.387 Q 3023.35 279.953, 3022.04 279.953 Q 3019.67 279.953, 3018.46 278.349 Q 3017.27 276.727, 3017.27 273.519 Q 3017.27 269.973, 3018.74 268.143 Q 3020.23 266.294, 3023.08 266.294 Q 3023.91 266.294, 3024.61 266.483 Q 3025.33 266.671, 3026.01 267.067 L 3025.27 268.331 Q 3024.29 267.803, 3023.1 267.803 Q 3021.21 267.803, 3020.25 269.029 Q 3019.29 270.237, 3019.18 272.746 Q 3019.86 272.123, 3020.71 271.803 Q 3021.57 271.463, 3022.5 271.463 M 3022.06 278.406 Q 3022.78 278.406, 3023.37 278.028 Q 3023.97 277.651, 3024.31 276.991 Q 3024.65 276.33, 3024.65 275.519 Q 3024.65 274.331, 3023.99 273.651 Q 3023.33 272.972, 3022.16 272.972 Q 3021.35 272.972, 3020.54 273.312 Q 3019.74 273.633, 3019.18 274.199 Q 3019.25 276.406, 3019.95 277.406 Q 3020.65 278.406, 3022.06 278.406 " fill="#000000"/>
<path class="note" d="M 3080.08 182.95 L 3083.01 182.95 L 3083.01 172.97 L 3079.78 173.97 L 3079.35 172.857 L 3083.44 171.027 L 3084.78 171.253 L 3084.78 182.95 L 3087.4 182.95 L 3087.4 184.459 L 3080.08 184.459 L 3080.08 182.95 " fill="#000000"/>
<path class="note" d="M 3094.74 172.611 L 3087.74 172.611 L 3087.74 171.102 L 3096.61 171.102 L 3096.61 172.442 L 3091.21 184.459 L 3089.4 184.459 L 3094.74 172.611 " fill="#000000"/>
<path class="note" d="M 3047.94 128.527 L 3050.87 128.527 L 3050.87 118.548 L 3047.64 119.547 L 3047.21 118.434 L 3051.3 116.604 L 3052.64 116.831 L 3052.64 128.527 L 3055.26 128.527 L 3055.26 130.037 L 3047.94 130.037 L 3047.94 128.527 " fill="#000000"/>
<path class="note" d="M 3063.24 122.962 Q 3064.47 123.49, 3065.17 124.283 Q 3065.87 125.056, 3065.87 126.377 Q 3065.87 127.509, 3065.28 128.395 Q 3064.7 129.263, 3063.64 129.754 Q 3062.6 130.225, 3061.22 130.225 Q 3059 130.225, 3057.72 129.207 Q 3056.43 128.169, 3056.43 126.377 Q 3056.43 125.283, 3057 124.471 Q 3057.57 123.641, 3058.73 123.019 Q 3057.87 122.528, 3057.4 121.811 Q 3056.92 121.075, 3056.92 119.944 Q 3056.92 118.378, 3058.06 117.453 Q 3059.21 116.529, 3061.15 116.529 Q 3063.09 116.529, 3064.22 117.453 Q 3065.38 118.378, 3065.38 119.944 Q 3065.38 120.925, 3064.83 121.66 Q 3064.3 122.377, 3063.24 122.962 M 3061.15 117.944 Q 3060.04 117.944, 3059.41 118.472 Q 3058.81 119, 3058.81 119.944 Q 3058.81 120.642, 3059.23 121.113 Q 3059.64 121.566, 3060.23 121.83 Q 3060.83 122.094, 3061.98 122.49 Q 3062.79 121.924, 3063.13 121.321 Q 3063.49 120.717, 3063.49 119.944 Q 3063.49 119, 3062.87 118.472 Q 3062.26 117.944, 3061.15 117.944 M 3061.22 128.81 Q 3062.47 128.81, 3063.22 128.15 Q 3063.98 127.471, 3063.98 126.358 Q 3063.98 125.641, 3063.58 125.188 Q 3063.19 124.735, 3062.58 124.471 Q 3062 124.207, 3060.94 123.868 L 3060.09 123.585 Q 3059.15 124.151, 3058.73 124.83 Q 3058.32 125.49, 3058.32 126.358 Q 3058.32 127.471, 3059.11 128.15 Q 3059.9 128.81, 3061.22 128.81 " fill="#000000"/>
<path class="note" d="M 3050.2 38.9768 L 3053.12 38.9768 L 3053.12 28.9969 L 3049.9 29.9968 L 3049.47 28.8837 L 3053.56 27.0538 L 3054.9 27.2801 L 3054.9 38.9768 L 3057.52 38.9768 L 3057.52 40.486 L 3050.2 40.486 L 3050.2 38.9768 " fill="#000000"/>
<path class="note" d="M 3063.05 26.9783 Q 3065.43 26.9783, 3066.61 28.6007 Q 3067.82 30.2043, 3067.82 33.4114 Q 3067.82 36.9581, 3066.33 38.807 Q 3064.86 40.6369, 3062.01 40.6369 Q 3061.18 40.6369, 3060.46 40.4483 Q 3059.77 40.2596, 3059.09 39.8634 L 3059.82 38.5994 Q 3060.8 39.1277, 3061.99 39.1277 Q 3063.88 39.1277, 3064.84 37.9203 Q 3065.8 36.694, 3065.92 34.1849 Q 3065.24 34.8075, 3064.37 35.1471 Q 3063.52 35.4678, 3062.6 35.4678 Q 3061.43 35.4678, 3060.5 34.9584 Q 3059.58 34.449, 3059.07 33.5246 Q 3058.56 32.6002, 3058.56 31.4306 Q 3058.56 30.1288, 3059.12 29.129 Q 3059.71 28.1102, 3060.73 27.5443 Q 3061.75 26.9783, 3063.05 26.9783 M 3060.44 31.4117 Q 3060.44 32.6002, 3061.11 33.2794 Q 3061.77 33.9585, 3062.94 33.9585 Q 3063.75 33.9585, 3064.54 33.6378 Q 3065.35 33.2982, 3065.92 32.7323 Q 3065.84 30.525, 3065.14 29.5251 Q 3064.44 28.5253, 3063.03 28.5253 Q 3062.31 28.5253, 3061.71 28.9026 Q 3061.12 29.2799, 3060.78 29.9402 Q 3060.44 30.6005, 3060.44 31.4117 " fill="#000000"/>
<path class="note" d="M 2888.93 119.208 Q 2889.42 117.944, 2890.59 117.246 Q 2891.76 116.529, 2893.38 116.529 Q 2895.4 116.529, 2896.53 117.623 Q 2897.66 118.717, 2897.66 120.66 Q 2897.66 122.641, 2896.19 124.49 Q 2894.74 126.339, 2891.72 128.527 L 2897.89 128.527 L 2897.89 130.037 L 2888.89 130.037 L 2888.89 128.773 Q 2891.38 126.999, 2892.85 125.679 Q 2894.34 124.358, 2895.06 123.17 Q 2895.78 121.981, 2895.78 120.755 Q 2895.78 119.472, 2895.14 118.755 Q 2894.49 118.038, 2893.38 118.038 Q 2892.31 118.038, 2891.59 118.472 Q 2890.87 118.906, 2890.36 119.868 L 2888.93 119.208 " fill="#000000"/>
<path class="note" d="M 2903.93 130.188 Q 2901.48 130.188, 2900.25 128.376 Q 2899.04 126.565, 2899.04 123.339 Q 2899.04 120.113, 2900.25 118.321 Q 2901.46 116.529, 2903.93 116.529 Q 2906.4 116.529, 2907.61 118.321 Q 2908.81 120.113, 2908.81 123.339 Q 2908.81 126.565, 2907.59 128.376 Q 2906.38 130.188, 2903.93 130.188 M 2903.93 128.678 Q 2905.38 128.678, 2906.15 127.339 Q 2906.93 125.981, 2906.93 123.339 Q 2906.93 120.717, 2906.15 119.378 Q 2905.38 118.038, 2903.93 118.038 Q 2902.49 118.038, 2901.7 119.378 Q 2900.93 120.717, 2900.93 123.339 Q 2900.93 125.981, 2901.7 127.339 Q 2902.49 128.678, 2903.93 128.678 " fill="#000000"/>
<path d="M 1136.02 243.533 L 1142.07 243.533 L 1142.07 237.165 L 1144.76 237.165 L 1144.76 243.533 L 1150.97 243.533 L 1150.97 245.837 L 1144.76 245.837 L 1144.76 252.237 L 1142.07 252.237 L 1142.07 245.837 L 1136.02 245.837 L 1136.02 243.533 " fill="#000000"/>
<path d="M 2608.73 243.533 L 2614.78 243.533 L 2614.78 237.165 L 2617.47 237.165 L 2617.47 243.533 L 2623.68 243.533 L 2623.68 245.837 L 2617.47 245.837 L 2617.47 252.237 L 2614.78 252.237 L 2614.78 245.837 L 2608.73 245.837 L 2608.73 243.533 " fill="#000000"/>
<path d="M 1948.05,245.837 L 2199.59,245.837" style="fill:none;fill-rule:evenodd;stroke:#000000;stroke-width:2.0px;stroke-linecap:butt;stroke-linejoin:miter;stroke-opacity:1"/>
<path d="M 2199.59,245.837 L 2188.7,239.548" style="fill:none;fill-rule:evenodd;stroke:#000000;stroke-width:2.0px;stroke-linecap:butt;stroke-linejoin:miter;stroke-opacity:1"/>
<path d="M 2199.59,245.837 L 2188.7,252.125" style="fill:none;fill-rule:evenodd;stroke:#000000;stroke-width:2.0px;stroke-linecap:butt;stroke-linejoin:miter;stroke-opacity:1"/>
</svg>