<svg xmlns="http://www.w3.org/2000/svg" xmlns:rdkit="http://www.rdkit.org/xml" xmlns:xlink="http://www.w3.org/1999/xlink" version="1.1" baseProfile="full" xml:space="preserve" width="4000px" height="500px" viewBox="0 0 4000 500">
<!-- END OF HEADER -->
<rect style="opacity:1.0;fill:#FFFFFF;stroke:none" width="4000" height="500" x="0" y="0"> </rect>
<path d="M 205.615,184.276 L 308.657,243.768" style="fill:none;fill-rule:evenodd;stroke:#FFFFAA;stroke-width:25.4px;stroke-linecap:butt;stroke-linejoin:miter;stroke-opacity:1"/>
<path d="M 308.657,243.768 L 308.657,362.751" style="fill:none;fill-rule:evenodd;stroke:#FFFFAA;stroke-width:25.4px;stroke-linecap:butt;stroke-linejoin:miter;stroke-opacity:1"/>
<path d="M 308.657,243.768 L 411.699,184.276" style="fill:none;fill-rule:evenodd;stroke:#FFFFAA;stroke-width:25.4px;stroke-linecap:butt;stroke-linejoin:miter;stroke-opacity:1"/>
<path d="M 411.699,184.276 L 514.742,243.768" style="fill:none;fill-rule:evenodd;stroke:#FFFFAA;stroke-width:25.4px;stroke-linecap:butt;stroke-linejoin:miter;stroke-opacity:1"/>
<path d="M 514.742,243.768 L 617.784,184.276" style="fill:none;fill-rule:evenodd;stroke:#FFFFAA;stroke-width:25.4px;stroke-linecap:butt;stroke-linejoin:miter;stroke-opacity:1"/>
<path d="M 514.742,243.768 L 514.742,362.751" style="fill:none;fill-rule:evenodd;stroke:#FFFFAA;stroke-width:25.4px;stroke-linecap:butt;stroke-linejoin:miter;stroke-opacity:1"/>
<path d="M 917.922,187.696 L 1002.71,271.171" style="fill:none;fill-rule:evenodd;stroke:#FFCC99;stroke-width:25.4px;stroke-linecap:butt;stroke-linejoin:miter;stroke-opacity:1"/>
<path d="M 1002.71,271.171 L 1117.39,239.48" style="fill:none;fill-rule:evenodd;stroke:#FFCC99;stroke-width:25.4px;stroke-linecap:butt;stroke-linejoin:miter;stroke-opacity:1"/>
<path d="M 1117.39,239.48 L 1202.18,322.955" style="fill:none;fill-rule:evenodd;stroke:#FFCC99;stroke-width:25.4px;stroke-linecap:butt;stroke-linejoin:miter;stroke-opacity:1"/>
<path d="M 1202.18,322.955 L 1316.87,291.264" style="fill:none;fill-rule:evenodd;stroke:#FFCC99;stroke-width:25.4px;stroke-linecap:butt;stroke-linejoin:miter;stroke-opacity:1"/>
<path d="M 1316.87,291.264 L 1346.76,176.099" style="fill:none;fill-rule:evenodd;stroke:#FFCC99;stroke-width:25.4px;stroke-linecap:butt;stroke-linejoin:miter;stroke-opacity:1"/>
<path d="M 1316.87,291.264 L 1401.65,374.739" style="fill:none;fill-rule:evenodd;stroke:#FFCC99;stroke-width:25.4px;stroke-linecap:butt;stroke-linejoin:miter;stroke-opacity:1"/>
<path d="M 1346.76,176.099 L 1461.45,144.408" style="fill:none;fill-rule:evenodd;stroke:#FFCC99;stroke-width:25.4px;stroke-linecap:butt;stroke-linejoin:miter;stroke-opacity:1"/>
<path d="M 1461.45,144.408 L 1546.24,227.883" style="fill:none;fill-rule:evenodd;stroke:#FFCC99;stroke-width:25.4px;stroke-linecap:butt;stroke-linejoin:miter;stroke-opacity:1"/>
<path d="M 1546.24,227.883 L 1660.92,196.192" style="fill:none;fill-rule:evenodd;stroke:#FFCC99;stroke-width:25.4px;stroke-linecap:butt;stroke-linejoin:miter;stroke-opacity:1"/>
<path d="M 1546.24,227.883 L 1516.34,343.048" style="fill:none;fill-rule:evenodd;stroke:#FFCC99;stroke-width:25.4px;stroke-linecap:butt;stroke-linejoin:miter;stroke-opacity:1"/>
<path d="M 1516.34,343.048 L 1401.65,374.739" style="fill:none;fill-rule:evenodd;stroke:#FFCC99;stroke-width:25.4px;stroke-linecap:butt;stroke-linejoin:miter;stroke-opacity:1"/>
<path d="M 2362.12,311.758 L 2465.16,252.267" style="fill:none;fill-rule:evenodd;stroke:#FFFFAA;stroke-width:25.4px;stroke-linecap:butt;stroke-linejoin:miter;stroke-opacity:1"/>
<path d="M 2465.16,252.267 L 2568.2,311.758" style="fill:none;fill-rule:evenodd;stroke:#FFFFAA;stroke-width:25.4px;stroke-linecap:butt;stroke-linejoin:miter;stroke-opacity:1"/>
<path d="M 2465.16,252.267 L 2465.16,133.284" style="fill:none;fill-rule:evenodd;stroke:#FFFFAA;stroke-width:25.4px;stroke-linecap:butt;stroke-linejoin:miter;stroke-opacity:1"/>
<path d="M 2850.07,201.262 L 2938.99,280.314" style="fill:none;fill-rule:evenodd;stroke:#FFCC99;stroke-width:25.4px;stroke-linecap:butt;stroke-linejoin:miter;stroke-opacity:1"/>
<path d="M 2938.99,280.314 L 3051.92,242.829" style="fill:none;fill-rule:evenodd;stroke:#FFCC99;stroke-width:25.4px;stroke-linecap:butt;stroke-linejoin:miter;stroke-opacity:1"/>
<path d="M 3051.92,242.829 L 3140.84,321.882" style="fill:none;fill-rule:evenodd;stroke:#FFCC99;stroke-width:25.4px;stroke-linecap:butt;stroke-linejoin:miter;stroke-opacity:1"/>
<path d="M 3140.84,321.882 L 3253.76,284.397" style="fill:none;fill-rule:evenodd;stroke:#FFCC99;stroke-width:25.4px;stroke-linecap:butt;stroke-linejoin:miter;stroke-opacity:1"/>
<path d="M 3253.76,284.397 L 3277.76,167.859" style="fill:none;fill-rule:evenodd;stroke:#FFCC99;stroke-width:25.4px;stroke-linecap:butt;stroke-linejoin:miter;stroke-opacity:1"/>
<path d="M 3253.76,284.397 L 3342.69,363.449" style="fill:none;fill-rule:evenodd;stroke:#FFCC99;stroke-width:25.4px;stroke-linecap:butt;stroke-linejoin:miter;stroke-opacity:1"/>
<path d="M 3277.76,167.859 L 3390.69,130.374" style="fill:none;fill-rule:evenodd;stroke:#FFCC99;stroke-width:25.4px;stroke-linecap:butt;stroke-linejoin:miter;stroke-opacity:1"/>
<path d="M 3390.69,130.374 L 3479.61,209.427" style="fill:none;fill-rule:evenodd;stroke:#FFCC99;stroke-width:25.4px;stroke-linecap:butt;stroke-linejoin:miter;stroke-opacity:1"/>
<path d="M 3479.61,209.427 L 3592.54,171.941" style="fill:none;fill-rule:evenodd;stroke:#FFCC99;stroke-width:25.4px;stroke-linecap:butt;stroke-linejoin:miter;stroke-opacity:1"/>
<path d="M 3479.61,209.427 L 3455.61,325.964" style="fill:none;fill-rule:evenodd;stroke:#FFCC99;stroke-width:25.4px;stroke-linecap:butt;stroke-linejoin:miter;stroke-opacity:1"/>
<path d="M 3681.46,250.994 L 3794.39,213.509" style="fill:none;fill-rule:evenodd;stroke:#FFFFAA;stroke-width:25.4px;stroke-linecap:butt;stroke-linejoin:miter;stroke-opacity:1"/>
<path d="M 3681.46,250.994 L 3657.46,367.531" style="fill:none;fill-rule:evenodd;stroke:#FFFFAA;stroke-width:25.4px;stroke-linecap:butt;stroke-linejoin:miter;stroke-opacity:1"/>
<path d="M 3455.61,325.964 L 3342.69,363.449" style="fill:none;fill-rule:evenodd;stroke:#FFCC99;stroke-width:25.4px;stroke-linecap:butt;stroke-linejoin:miter;stroke-opacity:1"/>
<ellipse cx="205.615" cy="184.276" rx="23.7966" ry="23.7966" style="fill:#FFFFAA;fill-rule:evenodd;stroke:#FFFFAA;stroke-width:1px;stroke-linecap:butt;stroke-linejoin:miter;stroke-opacity:1"/>
<ellipse cx="308.657" cy="243.768" rx="23.7966" ry="23.7966" style="fill:#FFFFAA;fill-rule:evenodd;stroke:#FFFFAA;stroke-width:1px;stroke-linecap:butt;stroke-linejoin:miter;stroke-opacity:1"/>
<ellipse cx="308.657" cy="362.971" rx="23.7966" ry="23.7966" style="fill:#FFFFAA;fill-rule:evenodd;stroke:#FFFFAA;stroke-width:1px;stroke-linecap:butt;stroke-linejoin:miter;stroke-opacity:1"/>
<ellipse cx="411.699" cy="184.496" rx="23.7966" ry="23.7966" style="fill:#FFFFAA;fill-rule:evenodd;stroke:#FFFFAA;stroke-width:1px;stroke-linecap:butt;stroke-linejoin:miter;stroke-opacity:1"/>
<ellipse cx="514.742" cy="243.768" rx="23.7966" ry="23.7966" style="fill:#FFFFAA;fill-rule:evenodd;stroke:#FFFFAA;stroke-width:1px;stroke-linecap:butt;stroke-linejoin:miter;stroke-opacity:1"/>
<ellipse cx="617.784" cy="184.276" rx="23.7966" ry="23.7966" style="fill:#FFFFAA;fill-rule:evenodd;stroke:#FFFFAA;stroke-width:1px;stroke-linecap:butt;stroke-linejoin:miter;stroke-opacity:1"/>
<ellipse cx="514.742" cy="362.971" rx="23.7966" ry="23.7966" style="fill:#FFFFAA;fill-rule:evenodd;stroke:#FFFFAA;stroke-width:1px;stroke-linecap:butt;stroke-linejoin:miter;stroke-opacity:1"/>
<ellipse cx="917.922" cy="187.696" rx="23.7966" ry="23.7966" style="fill:#FFCC99;fill-rule:evenodd;stroke:#FFCC99;stroke-width:1px;stroke-linecap:butt;stroke-linejoin:miter;stroke-opacity:1"/>
<ellipse cx="1002.71" cy="271.171" rx="23.7966" ry="23.7966" style="fill:#FFCC99;fill-rule:evenodd;stroke:#FFCC99;stroke-width:1px;stroke-linecap:butt;stroke-linejoin:miter;stroke-opacity:1"/>
<ellipse cx="1117.39" cy="239.48" rx="23.7966" ry="23.7966" style="fill:#FFCC99;fill-rule:evenodd;stroke:#FFCC99;stroke-width:1px;stroke-linecap:butt;stroke-linejoin:miter;stroke-opacity:1"/>
<ellipse cx="1202.18" cy="322.955" rx="23.7966" ry="23.7966" style="fill:#FFCC99;fill-rule:evenodd;stroke:#FFCC99;stroke-width:1px;stroke-linecap:butt;stroke-linejoin:miter;stroke-opacity:1"/>
<ellipse cx="1316.87" cy="291.264" rx="23.7966" ry="23.7966" style="fill:#FFCC99;fill-rule:evenodd;stroke:#FFCC99;stroke-width:1px;stroke-linecap:butt;stroke-linejoin:miter;stroke-opacity:1"/>
<ellipse cx="1346.76" cy="176.099" rx="23.7966" ry="23.7966" style="fill:#FFCC99;fill-rule:evenodd;stroke:#FFCC99;stroke-width:1px;stroke-linecap:butt;stroke-linejoin:miter;stroke-opacity:1"/>
<ellipse cx="1461.45" cy="144.408" rx="23.7966" ry="23.7966" style="fill:#FFCC99;fill-rule:evenodd;stroke:#FFCC99;stroke-width:1px;stroke-linecap:butt;stroke-linejoin:miter;stroke-opacity:1"/>
<ellipse cx="1546.24" cy="227.883" rx="23.7966" ry="23.7966" style="fill:#FFCC99;fill-rule:evenodd;stroke:#FFCC99;stroke-width:1px;stroke-linecap:butt;stroke-linejoin:miter;stroke-opacity:1"/>
<ellipse cx="1680.66" cy="203.272" rx="43.1001" ry="30.0379" style="fill:#FFCC99;fill-rule:evenodd;stroke:#FFCC99;stroke-width:1px;stroke-linecap:butt;stroke-linejoin:miter;stroke-opacity:1"/>
<ellipse cx="1516.34" cy="343.048" rx="23.7966" ry="23.7966" style="fill:#FFCC99;fill-rule:evenodd;stroke:#FFCC99;stroke-width:1px;stroke-linecap:butt;stroke-linejoin:miter;stroke-opacity:1"/>
<ellipse cx="1401.65" cy="374.739" rx="23.7966" ry="23.7966" style="fill:#FFCC99;fill-rule:evenodd;stroke:#FFCC99;stroke-width:1px;stroke-linecap:butt;stroke-linejoin:miter;stroke-opacity:1"/>
<ellipse cx="2362.12" cy="311.758" rx="23.7966" ry="23.7966" style="fill:#FFFFAA;fill-rule:evenodd;stroke:#FFFFAA;stroke-width:1px;stroke-linecap:butt;stroke-linejoin:miter;stroke-opacity:1"/>
<ellipse cx="2465.16" cy="252.267" rx="23.7966" ry="23.7966" style="fill:#FFFFAA;fill-rule:evenodd;stroke:#FFFFAA;stroke-width:1px;stroke-linecap:butt;stroke-linejoin:miter;stroke-opacity:1"/>
<ellipse cx="2568.2" cy="311.978" rx="23.7966" ry="23.7966" style="fill:#FFFFAA;fill-rule:evenodd;stroke:#FFFFAA;stroke-width:1px;stroke-linecap:butt;stroke-linejoin:miter;stroke-opacity:1"/>
<ellipse cx="2477.94" cy="133.504" rx="36.4584" ry="23.7966" style="fill:#FFFFAA;fill-rule:evenodd;stroke:#FFFFAA;stroke-width:1px;stroke-linecap:butt;stroke-linejoin:miter;stroke-opacity:1"/>
<ellipse cx="2850.07" cy="201.262" rx="23.7966" ry="23.7966" style="fill:#FFCC99;fill-rule:evenodd;stroke:#FFCC99;stroke-width:1px;stroke-linecap:butt;stroke-linejoin:miter;stroke-opacity:1"/>
<ellipse cx="2938.99" cy="280.314" rx="23.7966" ry="23.7966" style="fill:#FFCC99;fill-rule:evenodd;stroke:#FFCC99;stroke-width:1px;stroke-linecap:butt;stroke-linejoin:miter;stroke-opacity:1"/>
<ellipse cx="3051.92" cy="242.829" rx="23.7966" ry="23.7966" style="fill:#FFCC99;fill-rule:evenodd;stroke:#FFCC99;stroke-width:1px;stroke-linecap:butt;stroke-linejoin:miter;stroke-opacity:1"/>
<ellipse cx="3140.84" cy="321.882" rx="23.7966" ry="23.7966" style="fill:#FFCC99;fill-rule:evenodd;stroke:#FFCC99;stroke-width:1px;stroke-linecap:butt;stroke-linejoin:miter;stroke-opacity:1"/>
<ellipse cx="3253.76" cy="284.397" rx="23.7966" ry="23.7966" style="fill:#FFCC99;fill-rule:evenodd;stroke:#FFCC99;stroke-width:1px;stroke-linecap:butt;stroke-linejoin:miter;stroke-opacity:1"/>
<ellipse cx="3277.76" cy="167.859" rx="23.7966" ry="23.7966" style="fill:#FFCC99;fill-rule:evenodd;stroke:#FFCC99;stroke-width:1px;stroke-linecap:butt;stroke-linejoin:miter;stroke-opacity:1"/>
<ellipse cx="3390.69" cy="130.374" rx="23.7966" ry="23.7966" style="fill:#FFCC99;fill-rule:evenodd;stroke:#FFCC99;stroke-width:1px;stroke-linecap:butt;stroke-linejoin:miter;stroke-opacity:1"/>
<ellipse cx="3479.61" cy="209.427" rx="23.7966" ry="23.7966" style="fill:#FFCC99;fill-rule:evenodd;stroke:#FFCC99;stroke-width:1px;stroke-linecap:butt;stroke-linejoin:miter;stroke-opacity:1"/>
<ellipse cx="3592.54" cy="156.365" rx="23.7966" ry="42.0531" style="fill:#FFCC99;fill-rule:evenodd;stroke:#FFCC99;stroke-width:1px;stroke-linecap:butt;stroke-linejoin:miter;stroke-opacity:1"/>
<ellipse cx="3681.46" cy="250.994" rx="23.7966" ry="23.7966" style="fill:#FFFFAA;fill-rule:evenodd;stroke:#FFFFAA;stroke-width:1px;stroke-linecap:butt;stroke-linejoin:miter;stroke-opacity:1"/>
<ellipse cx="3794.39" cy="213.509" rx="23.7966" ry="23.7966" style="fill:#FFFFAA;fill-rule:evenodd;stroke:#FFFFAA;stroke-width:1px;stroke-linecap:butt;stroke-linejoin:miter;stroke-opacity:1"/>
<ellipse cx="3657.46" cy="367.751" rx="23.7966" ry="23.7966" style="fill:#FFFFAA;fill-rule:evenodd;stroke:#FFFFAA;stroke-width:1px;stroke-linecap:butt;stroke-linejoin:miter;stroke-opacity:1"/>
<ellipse cx="3455.61" cy="325.964" rx="23.7966" ry="23.7966" style="fill:#FFCC99;fill-rule:evenodd;stroke:#FFCC99;stroke-width:1px;stroke-linecap:butt;stroke-linejoin:miter;stroke-opacity:1"/>
<ellipse cx="3342.69" cy="363.449" rx="23.7966" ry="23.7966" style="fill:#FFCC99;fill-rule:evenodd;stroke:#FFCC99;stroke-width:1px;stroke-linecap:butt;stroke-linejoin:miter;stroke-opacity:1"/>
<path class="bond-0" d="M 205.615,184.276 L 308.657,243.768" style="fill:none;fill-rule:evenodd;stroke:#000000;stroke-width:2.0px;stroke-linecap:butt;stroke-linejoin:miter;stroke-opacity:1"/>
<path class="bond-1" d="M 296.759,243.768 L 296.759,294.612" style="fill:none;fill-rule:evenodd;stroke:#000000;stroke-width:2.0px;stroke-linecap:butt;stroke-linejoin:miter;stroke-opacity:1"/>
<path class="bond-1" d="M 296.759,294.612 L 296.759,345.456" style="fill:none;fill-rule:evenodd;stroke:#FF0000;stroke-width:2.0px;stroke-linecap:butt;stroke-linejoin:miter;stroke-opacity:1"/>
<path class="bond-1" d="M 320.555,243.768 L 320.555,294.612" style="fill:none;fill-rule:evenodd;stroke:#000000;stroke-width:2.0px;stroke-linecap:butt;stroke-linejoin:miter;stroke-opacity:1"/>
<path class="bond-1" d="M 320.555,294.612 L 320.555,345.456" style="fill:none;fill-rule:evenodd;stroke:#FF0000;stroke-width:2.0px;stroke-linecap:butt;stroke-linejoin:miter;stroke-opacity:1"/>
<path class="bond-2" d="M 308.657,243.768 L 352.191,218.634" style="fill:none;fill-rule:evenodd;stroke:#000000;stroke-width:2.0px;stroke-linecap:butt;stroke-linejoin:miter;stroke-opacity:1"/>
<path class="bond-2" d="M 352.191,218.634 L 395.725,193.499" style="fill:none;fill-rule:evenodd;stroke:#FF0000;stroke-width:2.0px;stroke-linecap:butt;stroke-linejoin:miter;stroke-opacity:1"/>
<path class="bond-3" d="M 427.674,193.499 L 471.208,218.634" style="fill:none;fill-rule:evenodd;stroke:#FF0000;stroke-width:2.0px;stroke-linecap:butt;stroke-linejoin:miter;stroke-opacity:1"/>
<path class="bond-3" d="M 471.208,218.634 L 514.742,243.768" style="fill:none;fill-rule:evenodd;stroke:#000000;stroke-width:2.0px;stroke-linecap:butt;stroke-linejoin:miter;stroke-opacity:1"/>
<path class="bond-4" d="M 514.742,243.768 L 617.784,184.276" style="fill:none;fill-rule:evenodd;stroke:#000000;stroke-width:2.0px;stroke-linecap:butt;stroke-linejoin:miter;stroke-opacity:1"/>
<path class="bond-5" d="M 502.843,243.768 L 502.843,294.612" style="fill:none;fill-rule:evenodd;stroke:#000000;stroke-width:2.0px;stroke-linecap:butt;stroke-linejoin:miter;stroke-opacity:1"/>
<path class="bond-5" d="M 502.843,294.612 L 502.843,345.456" style="fill:none;fill-rule:evenodd;stroke:#FF0000;stroke-width:2.0px;stroke-linecap:butt;stroke-linejoin:miter;stroke-opacity:1"/>
<path class="bond-5" d="M 526.64,243.768 L 526.64,294.612" style="fill:none;fill-rule:evenodd;stroke:#000000;stroke-width:2.0px;stroke-linecap:butt;stroke-linejoin:miter;stroke-opacity:1"/>
<path class="bond-5" d="M 526.64,294.612 L 526.64,345.456" style="fill:none;fill-rule:evenodd;stroke:#FF0000;stroke-width:2.0px;stroke-linecap:butt;stroke-linejoin:miter;stroke-opacity:1"/>
<path class="bond-6" d="M 917.922,187.696 L 1002.71,271.171" style="fill:none;fill-rule:evenodd;stroke:#000000;stroke-width:2.0px;stroke-linecap:butt;stroke-linejoin:miter;stroke-opacity:1"/>
<path class="bond-7" d="M 1002.71,271.171 L 1117.39,239.48" style="fill:none;fill-rule:evenodd;stroke:#000000;stroke-width:2.0px;stroke-linecap:butt;stroke-linejoin:miter;stroke-opacity:1"/>
<path class="bond-8" d="M 1117.39,239.48 L 1202.18,322.955" style="fill:none;fill-rule:evenodd;stroke:#000000;stroke-width:2.0px;stroke-linecap:butt;stroke-linejoin:miter;stroke-opacity:1"/>
<path class="bond-9" d="M 1202.18,322.955 L 1316.87,291.264" style="fill:none;fill-rule:evenodd;stroke:#000000;stroke-width:2.0px;stroke-linecap:butt;stroke-linejoin:miter;stroke-opacity:1"/>
<path class="bond-10" d="M 1316.87,291.264 L 1346.76,176.099" style="fill:none;fill-rule:evenodd;stroke:#000000;stroke-width:2.0px;stroke-linecap:butt;stroke-linejoin:miter;stroke-opacity:1"/>
<path class="bond-10" d="M 1344.38,279.969 L 1365.31,199.353" style="fill:none;fill-rule:evenodd;stroke:#000000;stroke-width:2.0px;stroke-linecap:butt;stroke-linejoin:miter;stroke-opacity:1;stroke-dasharray:6,6"/>
<path class="bond-16" d="M 1316.87,291.264 L 1401.65,374.739" style="fill:none;fill-rule:evenodd;stroke:#000000;stroke-width:2.0px;stroke-linecap:butt;stroke-linejoin:miter;stroke-opacity:1"/>
<path class="bond-16" d="M 1346.28,286.828 L 1405.63,345.26" style="fill:none;fill-rule:evenodd;stroke:#000000;stroke-width:2.0px;stroke-linecap:butt;stroke-linejoin:miter;stroke-opacity:1;stroke-dasharray:6,6"/>
<path class="bond-11" d="M 1346.76,176.099 L 1461.45,144.408" style="fill:none;fill-rule:evenodd;stroke:#000000;stroke-width:2.0px;stroke-linecap:butt;stroke-linejoin:miter;stroke-opacity:1"/>
<path class="bond-11" d="M 1370.31,194.282 L 1450.58,172.098" style="fill:none;fill-rule:evenodd;stroke:#000000;stroke-width:2.0px;stroke-linecap:butt;stroke-linejoin:miter;stroke-opacity:1;stroke-dasharray:6,6"/>
<path class="bond-12" d="M 1461.45,144.408 L 1546.24,227.883" style="fill:none;fill-rule:evenodd;stroke:#000000;stroke-width:2.0px;stroke-linecap:butt;stroke-linejoin:miter;stroke-opacity:1"/>
<path class="bond-12" d="M 1457.47,173.887 L 1516.82,232.319" style="fill:none;fill-rule:evenodd;stroke:#000000;stroke-width:2.0px;stroke-linecap:butt;stroke-linejoin:miter;stroke-opacity:1;stroke-dasharray:6,6"/>
<path class="bond-13" d="M 1546.24,227.883 L 1596.72,213.932" style="fill:none;fill-rule:evenodd;stroke:#000000;stroke-width:2.0px;stroke-linecap:butt;stroke-linejoin:miter;stroke-opacity:1"/>
<path class="bond-13" d="M 1596.72,213.932 L 1647.21,199.982" style="fill:none;fill-rule:evenodd;stroke:#0000FF;stroke-width:2.0px;stroke-linecap:butt;stroke-linejoin:miter;stroke-opacity:1"/>
<path class="bond-14" d="M 1546.24,227.883 L 1516.34,343.048" style="fill:none;fill-rule:evenodd;stroke:#000000;stroke-width:2.0px;stroke-linecap:butt;stroke-linejoin:miter;stroke-opacity:1"/>
<path class="bond-14" d="M 1518.72,239.178 L 1497.79,319.794" style="fill:none;fill-rule:evenodd;stroke:#000000;stroke-width:2.0px;stroke-linecap:butt;stroke-linejoin:miter;stroke-opacity:1;stroke-dasharray:6,6"/>
<path class="bond-15" d="M 1516.34,343.048 L 1401.65,374.739" style="fill:none;fill-rule:evenodd;stroke:#000000;stroke-width:2.0px;stroke-linecap:butt;stroke-linejoin:miter;stroke-opacity:1"/>
<path class="bond-15" d="M 1492.8,324.865 L 1412.52,347.048" style="fill:none;fill-rule:evenodd;stroke:#000000;stroke-width:2.0px;stroke-linecap:butt;stroke-linejoin:miter;stroke-opacity:1;stroke-dasharray:6,6"/>
<path class="bond-17" d="M 2362.12,311.758 L 2465.16,252.267" style="fill:none;fill-rule:evenodd;stroke:#000000;stroke-width:2.0px;stroke-linecap:butt;stroke-linejoin:miter;stroke-opacity:1"/>
<path class="bond-18" d="M 2459.21,262.571 L 2502.75,287.705" style="fill:none;fill-rule:evenodd;stroke:#000000;stroke-width:2.0px;stroke-linecap:butt;stroke-linejoin:miter;stroke-opacity:1"/>
<path class="bond-18" d="M 2502.75,287.705 L 2546.28,312.839" style="fill:none;fill-rule:evenodd;stroke:#FF0000;stroke-width:2.0px;stroke-linecap:butt;stroke-linejoin:miter;stroke-opacity:1"/>
<path class="bond-18" d="M 2471.11,241.962 L 2514.64,267.097" style="fill:none;fill-rule:evenodd;stroke:#000000;stroke-width:2.0px;stroke-linecap:butt;stroke-linejoin:miter;stroke-opacity:1"/>
<path class="bond-18" d="M 2514.64,267.097 L 2558.18,292.231" style="fill:none;fill-rule:evenodd;stroke:#FF0000;stroke-width:2.0px;stroke-linecap:butt;stroke-linejoin:miter;stroke-opacity:1"/>
<path class="bond-19" d="M 2465.16,252.267 L 2465.16,201.642" style="fill:none;fill-rule:evenodd;stroke:#000000;stroke-width:2.0px;stroke-linecap:butt;stroke-linejoin:miter;stroke-opacity:1"/>
<path class="bond-19" d="M 2465.16,201.642 L 2465.16,151.018" style="fill:none;fill-rule:evenodd;stroke:#FF0000;stroke-width:2.0px;stroke-linecap:butt;stroke-linejoin:miter;stroke-opacity:1"/>
<path class="bond-20" d="M 2850.07,201.262 L 2938.99,280.314" style="fill:none;fill-rule:evenodd;stroke:#000000;stroke-width:2.0px;stroke-linecap:butt;stroke-linejoin:miter;stroke-opacity:1"/>
<path class="bond-21" d="M 2938.99,280.314 L 3051.92,242.829" style="fill:none;fill-rule:evenodd;stroke:#000000;stroke-width:2.0px;stroke-linecap:butt;stroke-linejoin:miter;stroke-opacity:1"/>
<path class="bond-22" d="M 3051.92,242.829 L 3140.84,321.882" style="fill:none;fill-rule:evenodd;stroke:#000000;stroke-width:2.0px;stroke-linecap:butt;stroke-linejoin:miter;stroke-opacity:1"/>
<path class="bond-23" d="M 3140.84,321.882 L 3253.76,284.397" style="fill:none;fill-rule:evenodd;stroke:#000000;stroke-width:2.0px;stroke-linecap:butt;stroke-linejoin:miter;stroke-opacity:1"/>
<path class="bond-24" d="M 3253.76,284.397 L 3277.76,167.859" style="fill:none;fill-rule:evenodd;stroke:#000000;stroke-width:2.0px;stroke-linecap:butt;stroke-linejoin:miter;stroke-opacity:1"/>
<path class="bond-24" d="M 3280.67,271.716 L 3297.47,190.14" style="fill:none;fill-rule:evenodd;stroke:#000000;stroke-width:2.0px;stroke-linecap:butt;stroke-linejoin:miter;stroke-opacity:1;stroke-dasharray:6,6"/>
<path class="bond-33" d="M 3253.76,284.397 L 3342.69,363.449" style="fill:none;fill-rule:evenodd;stroke:#000000;stroke-width:2.0px;stroke-linecap:butt;stroke-linejoin:miter;stroke-opacity:1"/>
<path class="bond-33" d="M 3282.91,278.47 L 3345.16,333.806" style="fill:none;fill-rule:evenodd;stroke:#000000;stroke-width:2.0px;stroke-linecap:butt;stroke-linejoin:miter;stroke-opacity:1;stroke-dasharray:6,6"/>
<path class="bond-25" d="M 3277.76,167.859 L 3390.69,130.374" style="fill:none;fill-rule:evenodd;stroke:#000000;stroke-width:2.0px;stroke-linecap:butt;stroke-linejoin:miter;stroke-opacity:1"/>
<path class="bond-25" d="M 3302.2,184.821 L 3381.25,158.582" style="fill:none;fill-rule:evenodd;stroke:#000000;stroke-width:2.0px;stroke-linecap:butt;stroke-linejoin:miter;stroke-opacity:1;stroke-dasharray:6,6"/>
<path class="bond-26" d="M 3390.69,130.374 L 3479.61,209.427" style="fill:none;fill-rule:evenodd;stroke:#000000;stroke-width:2.0px;stroke-linecap:butt;stroke-linejoin:miter;stroke-opacity:1"/>
<path class="bond-26" d="M 3388.22,160.017 L 3450.46,215.354" style="fill:none;fill-rule:evenodd;stroke:#000000;stroke-width:2.0px;stroke-linecap:butt;stroke-linejoin:miter;stroke-opacity:1;stroke-dasharray:6,6"/>
<path class="bond-27" d="M 3479.61,209.427 L 3529.22,192.96" style="fill:none;fill-rule:evenodd;stroke:#000000;stroke-width:2.0px;stroke-linecap:butt;stroke-linejoin:miter;stroke-opacity:1"/>
<path class="bond-27" d="M 3529.22,192.96 L 3578.82,176.494" style="fill:none;fill-rule:evenodd;stroke:#0000FF;stroke-width:2.0px;stroke-linecap:butt;stroke-linejoin:miter;stroke-opacity:1"/>
<path class="bond-31" d="M 3479.61,209.427 L 3455.61,325.964" style="fill:none;fill-rule:evenodd;stroke:#000000;stroke-width:2.0px;stroke-linecap:butt;stroke-linejoin:miter;stroke-opacity:1"/>
<path class="bond-31" d="M 3452.71,222.107 L 3435.91,303.684" style="fill:none;fill-rule:evenodd;stroke:#000000;stroke-width:2.0px;stroke-linecap:butt;stroke-linejoin:miter;stroke-opacity:1;stroke-dasharray:6,6"/>
<path class="bond-28" d="M 3606.25,184.133 L 3643.86,217.564" style="fill:none;fill-rule:evenodd;stroke:#0000FF;stroke-width:2.0px;stroke-linecap:butt;stroke-linejoin:miter;stroke-opacity:1"/>
<path class="bond-28" d="M 3643.86,217.564 L 3681.46,250.994" style="fill:none;fill-rule:evenodd;stroke:#000000;stroke-width:2.0px;stroke-linecap:butt;stroke-linejoin:miter;stroke-opacity:1"/>
<path class="bond-29" d="M 3681.46,250.994 L 3794.39,213.509" style="fill:none;fill-rule:evenodd;stroke:#000000;stroke-width:2.0px;stroke-linecap:butt;stroke-linejoin:miter;stroke-opacity:1"/>
<path class="bond-30" d="M 3669.81,248.594 L 3659.59,298.216" style="fill:none;fill-rule:evenodd;stroke:#000000;stroke-width:2.0px;stroke-linecap:butt;stroke-linejoin:miter;stroke-opacity:1"/>
<path class="bond-30" d="M 3659.59,298.216 L 3649.37,347.837" style="fill:none;fill-rule:evenodd;stroke:#FF0000;stroke-width:2.0px;stroke-linecap:butt;stroke-linejoin:miter;stroke-opacity:1"/>
<path class="bond-30" d="M 3693.12,253.394 L 3682.9,303.015" style="fill:none;fill-rule:evenodd;stroke:#000000;stroke-width:2.0px;stroke-linecap:butt;stroke-linejoin:miter;stroke-opacity:1"/>
<path class="bond-30" d="M 3682.9,303.015 L 3672.68,352.637" style="fill:none;fill-rule:evenodd;stroke:#FF0000;stroke-width:2.0px;stroke-linecap:butt;stroke-linejoin:miter;stroke-opacity:1"/>
<path class="bond-32" d="M 3455.61,325.964 L 3342.69,363.449" style="fill:none;fill-rule:evenodd;stroke:#000000;stroke-width:2.0px;stroke-linecap:butt;stroke-linejoin:miter;stroke-opacity:1"/>
<path class="bond-32" d="M 3431.18,309.002 L 3352.13,335.242" style="fill:none;fill-rule:evenodd;stroke:#000000;stroke-width:2.0px;stroke-linecap:butt;stroke-linejoin:miter;stroke-opacity:1;stroke-dasharray:6,6"/>
<path class="atom-2" d="M 295.657 362.831 Q 295.657 356.031, 299.017 352.231 Q 302.377 348.431, 308.657 348.431 Q 314.937 348.431, 318.297 352.231 Q 321.657 356.031, 321.657 362.831 Q 321.657 369.711, 318.257 373.631 Q 314.857 377.511, 308.657 377.511 Q 302.417 377.511, 299.017 373.631 Q 295.657 369.751, 295.657 362.831 M 308.657 374.311 Q 312.977 374.311, 315.297 371.431 Q 317.657 368.511, 317.657 362.831 Q 317.657 357.271, 315.297 354.471 Q 312.977 351.631, 308.657 351.631 Q 304.337 351.631, 301.977 354.431 Q 299.657 357.231, 299.657 362.831 Q 299.657 368.551, 301.977 371.431 Q 304.337 374.311, 308.657 374.311 " fill="#FF0000"/>
<path class="atom-3" d="M 398.699 184.356 Q 398.699 177.556, 402.059 173.756 Q 405.419 169.956, 411.699 169.956 Q 417.979 169.956, 421.339 173.756 Q 424.699 177.556, 424.699 184.356 Q 424.699 191.236, 421.299 195.156 Q 417.899 199.036, 411.699 199.036 Q 405.459 199.036, 402.059 195.156 Q 398.699 191.276, 398.699 184.356 M 411.699 195.836 Q 416.019 195.836, 418.339 192.956 Q 420.699 190.036, 420.699 184.356 Q 420.699 178.796, 418.339 175.996 Q 416.019 173.156, 411.699 173.156 Q 407.379 173.156, 405.019 175.956 Q 402.699 178.756, 402.699 184.356 Q 402.699 190.076, 405.019 192.956 Q 407.379 195.836, 411.699 195.836 " fill="#FF0000"/>
<path class="atom-6" d="M 501.742 362.831 Q 501.742 356.031, 505.102 352.231 Q 508.462 348.431, 514.742 348.431 Q 521.022 348.431, 524.382 352.231 Q 527.742 356.031, 527.742 362.831 Q 527.742 369.711, 524.342 373.631 Q 520.942 377.511, 514.742 377.511 Q 508.502 377.511, 505.102 373.631 Q 501.742 369.751, 501.742 362.831 M 514.742 374.311 Q 519.062 374.311, 521.382 371.431 Q 523.742 368.511, 523.742 362.831 Q 523.742 357.271, 521.382 354.471 Q 519.062 351.631, 514.742 351.631 Q 510.422 351.631, 508.062 354.431 Q 505.742 357.231, 505.742 362.831 Q 505.742 368.551, 508.062 371.431 Q 510.422 374.311, 514.742 374.311 " fill="#FF0000"/>
<path class="atom-15" d="M 1654.66 182.032 L 1663.94 197.032 Q 1664.86 198.512, 1666.34 201.192 Q 1667.82 203.872, 1667.9 204.032 L 1667.9 182.032 L 1671.66 182.032 L 1671.66 210.352 L 1667.78 210.352 L 1657.82 193.952 Q 1656.66 192.032, 1655.42 189.832 Q 1654.22 187.632, 1653.86 186.952 L 1653.86 210.352 L 1650.18 210.352 L 1650.18 182.032 L 1654.66 182.032 " fill="#0000FF"/>
<path class="atom-15" d="M 1675.06 182.032 L 1678.9 182.032 L 1678.9 194.072 L 1693.38 194.072 L 1693.38 182.032 L 1697.22 182.032 L 1697.22 210.352 L 1693.38 210.352 L 1693.38 197.272 L 1678.9 197.272 L 1678.9 210.352 L 1675.06 210.352 L 1675.06 182.032 " fill="#0000FF"/>
<path class="atom-15" d="M 1698.59 209.358 Q 1699.28 207.589, 1700.92 206.613 Q 1702.55 205.609, 1704.83 205.609 Q 1707.65 205.609, 1709.23 207.141 Q 1710.82 208.672, 1710.82 211.391 Q 1710.82 214.163, 1708.76 216.75 Q 1706.73 219.337, 1702.5 222.4 L 1711.13 222.4 L 1711.13 224.512 L 1698.54 224.512 L 1698.54 222.743 Q 1702.03 220.261, 1704.09 218.413 Q 1706.17 216.565, 1707.17 214.902 Q 1708.18 213.239, 1708.18 211.523 Q 1708.18 209.728, 1707.28 208.725 Q 1706.38 207.721, 1704.83 207.721 Q 1703.32 207.721, 1702.32 208.329 Q 1701.31 208.936, 1700.6 210.282 L 1698.59 209.358 " fill="#0000FF"/>
<path class="atom-20" d="M 2555.2 311.838 Q 2555.2 305.038, 2558.56 301.238 Q 2561.92 297.438, 2568.2 297.438 Q 2574.48 297.438, 2577.84 301.238 Q 2581.2 305.038, 2581.2 311.838 Q 2581.2 318.718, 2577.8 322.638 Q 2574.4 326.518, 2568.2 326.518 Q 2561.96 326.518, 2558.56 322.638 Q 2555.2 318.758, 2555.2 311.838 M 2568.2 323.318 Q 2572.52 323.318, 2574.84 320.438 Q 2577.2 317.518, 2577.2 311.838 Q 2577.2 306.278, 2574.84 303.478 Q 2572.52 300.638, 2568.2 300.638 Q 2563.88 300.638, 2561.52 303.438 Q 2559.2 306.238, 2559.2 311.838 Q 2559.2 317.558, 2561.52 320.438 Q 2563.88 323.318, 2568.2 323.318 " fill="#FF0000"/>
<path class="atom-21" d="M 2452.16 133.364 Q 2452.16 126.564, 2455.52 122.764 Q 2458.88 118.964, 2465.16 118.964 Q 2471.44 118.964, 2474.8 122.764 Q 2478.16 126.564, 2478.16 133.364 Q 2478.16 140.244, 2474.76 144.164 Q 2471.36 148.044, 2465.16 148.044 Q 2458.92 148.044, 2455.52 144.164 Q 2452.16 140.284, 2452.16 133.364 M 2465.16 144.844 Q 2469.48 144.844, 2471.8 141.964 Q 2474.16 139.044, 2474.16 133.364 Q 2474.16 127.804, 2471.8 125.004 Q 2469.48 122.164, 2465.16 122.164 Q 2460.84 122.164, 2458.48 124.964 Q 2456.16 127.764, 2456.16 133.364 Q 2456.16 139.084, 2458.48 141.964 Q 2460.84 144.844, 2465.16 144.844 " fill="#FF0000"/>
<path class="atom-21" d="M 2481.56 119.284 L 2485.4 119.284 L 2485.4 131.324 L 2499.88 131.324 L 2499.88 119.284 L 2503.72 119.284 L 2503.72 147.604 L 2499.88 147.604 L 2499.88 134.524 L 2485.4 134.524 L 2485.4 147.604 L 2481.56 147.604 L 2481.56 119.284 " fill="#FF0000"/>
<path class="atom-30" d="M 3586.28 157.781 L 3595.56 172.781 Q 3596.48 174.261, 3597.96 176.941 Q 3599.44 179.621, 3599.52 179.781 L 3599.52 157.781 L 3603.28 157.781 L 3603.28 186.101 L 3599.4 186.101 L 3589.44 169.701 Q 3588.28 167.781, 3587.04 165.581 Q 3585.84 163.381, 3585.48 162.701 L 3585.48 186.101 L 3581.8 186.101 L 3581.8 157.781 L 3586.28 157.781 " fill="#0000FF"/>
<path class="atom-30" d="M 3581.46 126.629 L 3585.3 126.629 L 3585.3 138.669 L 3599.78 138.669 L 3599.78 126.629 L 3603.62 126.629 L 3603.62 154.949 L 3599.78 154.949 L 3599.78 141.869 L 3585.3 141.869 L 3585.3 154.949 L 3581.46 154.949 L 3581.46 126.629 " fill="#0000FF"/>
<path class="atom-33" d="M 3644.46 367.611 Q 3644.46 360.811, 3647.82 357.011 Q 3651.18 353.211, 3657.46 353.211 Q 3663.74 353.211, 3667.1 357.011 Q 3670.46 360.811, 3670.46 367.611 Q 3670.46 374.491, 3667.06 378.411 Q 3663.66 382.291, 3657.46 382.291 Q 3651.22 382.291, 3647.82 378.411 Q 3644.46 374.531, 3644.46 367.611 M 3657.46 379.091 Q 3661.78 379.091, 3664.1 376.211 Q 3666.46 373.291, 3666.46 367.611 Q 3666.46 362.051, 3664.1 359.251 Q 3661.78 356.411, 3657.46 356.411 Q 3653.14 356.411, 3650.78 359.211 Q 3648.46 362.011, 3648.46 367.611 Q 3648.46 373.331, 3650.78 376.211 Q 3653.14 379.091, 3657.46 379.091 " fill="#FF0000"/>
<path class="note" d="M 192.21 206.97 L 195.31 206.97 L 195.31 196.39 L 191.89 197.45 L 191.43 196.27 L 195.77 194.33 L 197.19 194.57 L 197.19 206.97 L 199.97 206.97 L 199.97 208.57 L 192.21 208.57 L 192.21 206.97 " fill="#000000"/>
<path class="note" d="M 303.927 219.617 Q 304.447 218.277, 305.687 217.537 Q 306.927 216.777, 308.647 216.777 Q 310.787 216.777, 311.987 217.937 Q 313.187 219.097, 313.187 221.157 Q 313.187 223.257, 311.627 225.217 Q 310.087 227.177, 306.887 229.497 L 313.427 229.497 L 313.427 231.097 L 303.887 231.097 L 303.887 229.757 Q 306.527 227.877, 308.087 226.477 Q 309.667 225.077, 310.427 223.817 Q 311.187 222.557, 311.187 221.257 Q 311.187 219.897, 310.507 219.137 Q 309.827 218.377, 308.647 218.377 Q 307.507 218.377, 306.747 218.837 Q 305.987 219.297, 305.447 220.317 L 303.927 219.617 " fill="#000000"/>
<path class="note" d="M 310.697 402.112 Q 312.077 402.512, 312.737 403.412 Q 313.417 404.292, 313.417 405.692 Q 313.417 406.892, 312.817 407.832 Q 312.217 408.752, 311.117 409.272 Q 310.017 409.772, 308.577 409.772 Q 307.057 409.772, 305.917 409.252 Q 304.797 408.712, 303.897 407.632 L 305.037 406.472 Q 305.917 407.432, 306.657 407.812 Q 307.397 408.172, 308.577 408.172 Q 309.857 408.172, 310.637 407.492 Q 311.417 406.792, 311.417 405.672 Q 311.417 404.232, 310.597 403.592 Q 309.797 402.932, 308.057 402.932 L 307.037 402.932 L 307.037 401.492 L 307.937 401.492 Q 309.477 401.472, 310.297 400.812 Q 311.117 400.132, 311.117 398.872 Q 311.117 397.952, 310.437 397.412 Q 309.757 396.852, 308.597 396.852 Q 307.417 396.852, 306.677 397.272 Q 305.957 397.692, 305.397 398.752 L 304.017 398.012 Q 304.517 396.832, 305.717 396.052 Q 306.917 395.252, 308.597 395.252 Q 310.677 395.252, 311.897 396.232 Q 313.117 397.212, 313.117 398.872 Q 313.117 400.012, 312.497 400.832 Q 311.877 401.652, 310.697 402.112 " fill="#000000"/>
<path class="note" d="M 415.449 146.835 L 417.149 146.835 L 417.149 148.435 L 415.449 148.435 L 415.449 151.695 L 413.569 151.695 L 413.569 148.435 L 406.249 148.435 L 406.249 147.175 L 412.449 137.535 L 415.449 137.535 L 415.449 146.835 M 408.569 146.835 L 413.569 146.835 L 413.569 138.815 L 408.569 146.835 " fill="#000000"/>
<path class="note" d="M 501.232 209.627 L 504.332 209.627 L 504.332 199.047 L 500.912 200.107 L 500.452 198.927 L 504.792 196.987 L 506.212 197.227 L 506.212 209.627 L 508.992 209.627 L 508.992 211.227 L 501.232 211.227 L 501.232 209.627 " fill="#000000"/>
<path class="note" d="M 518.792 206.367 L 520.492 206.367 L 520.492 207.967 L 518.792 207.967 L 518.792 211.227 L 516.912 211.227 L 516.912 207.967 L 509.592 207.967 L 509.592 206.707 L 515.792 197.067 L 518.792 197.067 L 518.792 206.367 M 511.912 206.367 L 516.912 206.367 L 516.912 198.347 L 511.912 206.367 " fill="#000000"/>
<path class="note" d="M 594.859 172.623 L 597.959 172.623 L 597.959 162.043 L 594.539 163.103 L 594.079 161.923 L 598.419 159.983 L 599.839 160.223 L 599.839 172.623 L 602.619 172.623 L 602.619 174.223 L 594.859 174.223 L 594.859 172.623 " fill="#000000"/>
<path class="note" d="M 608.679 165.363 Q 609.919 165.363, 610.939 165.903 Q 611.959 166.423, 612.539 167.423 Q 613.119 168.403, 613.119 169.743 Q 613.119 171.203, 612.399 172.263 Q 611.699 173.303, 610.539 173.843 Q 609.379 174.383, 608.059 174.383 Q 606.759 174.383, 605.559 173.903 Q 604.359 173.423, 603.539 172.503 L 604.739 171.263 Q 605.399 171.983, 606.299 172.383 Q 607.199 172.763, 608.119 172.763 Q 609.379 172.763, 610.239 171.983 Q 611.119 171.203, 611.119 169.783 Q 611.119 168.283, 610.239 167.583 Q 609.379 166.863, 607.999 166.863 Q 606.759 166.863, 605.379 167.403 L 604.279 166.883 L 604.959 160.063 L 612.239 160.063 L 612.039 161.663 L 606.599 161.663 L 606.179 165.863 Q 607.439 165.363, 608.679 165.363 " fill="#000000"/>
<path class="note" d="M 501.392 407.972 L 504.492 407.972 L 504.492 397.392 L 501.072 398.452 L 500.612 397.272 L 504.952 395.332 L 506.372 395.572 L 506.372 407.972 L 509.152 407.972 L 509.152 409.572 L 501.392 409.572 L 501.392 407.972 " fill="#000000"/>
<path class="note" d="M 516.052 400.732 Q 517.292 400.732, 518.272 401.272 Q 519.252 401.812, 519.792 402.792 Q 520.332 403.772, 520.332 405.012 Q 520.332 406.392, 519.712 407.472 Q 519.112 408.532, 518.032 409.132 Q 516.952 409.732, 515.572 409.732 Q 513.052 409.732, 511.772 408.032 Q 510.512 406.312, 510.512 402.912 Q 510.512 399.152, 512.072 397.212 Q 513.652 395.252, 516.672 395.252 Q 517.552 395.252, 518.292 395.452 Q 519.052 395.652, 519.772 396.072 L 518.992 397.412 Q 517.952 396.852, 516.692 396.852 Q 514.692 396.852, 513.672 398.152 Q 512.652 399.432, 512.532 402.092 Q 513.252 401.432, 514.152 401.092 Q 515.072 400.732, 516.052 400.732 M 515.592 408.092 Q 516.352 408.092, 516.972 407.692 Q 517.612 407.292, 517.972 406.592 Q 518.332 405.892, 518.332 405.032 Q 518.332 403.772, 517.632 403.052 Q 516.932 402.332, 515.692 402.332 Q 514.832 402.332, 513.972 402.692 Q 513.132 403.032, 512.532 403.632 Q 512.612 405.972, 513.352 407.032 Q 514.092 408.092, 515.592 408.092 " fill="#000000"/>
<path class="note" d="M 904.36 200.047 Q 905.6 200.047, 906.62 200.587 Q 907.64 201.107, 908.22 202.107 Q 908.8 203.087, 908.8 204.427 Q 908.8 205.887, 908.08 206.947 Q 907.38 207.987, 906.22 208.527 Q 905.06 209.067, 903.74 209.067 Q 902.44 209.067, 901.24 208.587 Q 900.04 208.107, 899.22 207.187 L 900.42 205.947 Q 901.08 206.667, 901.98 207.067 Q 902.88 207.447, 903.8 207.447 Q 905.06 207.447, 905.92 206.667 Q 906.8 205.887, 906.8 204.467 Q 906.8 202.967, 905.92 202.267 Q 905.06 201.547, 903.68 201.547 Q 902.44 201.547, 901.06 202.087 L 899.96 201.567 L 900.64 194.747 L 907.92 194.747 L 907.72 196.347 L 902.28 196.347 L 901.86 200.547 Q 903.12 200.047, 904.36 200.047 " fill="#000000"/>
<path class="note" d="M 998.357 288.685 Q 999.597 288.685, 1000.58 289.225 Q 1001.56 289.765, 1002.1 290.745 Q 1002.64 291.725, 1002.64 292.965 Q 1002.64 294.345, 1002.02 295.425 Q 1001.42 296.485, 1000.34 297.085 Q 999.257 297.685, 997.877 297.685 Q 995.357 297.685, 994.077 295.985 Q 992.817 294.265, 992.817 290.865 Q 992.817 287.105, 994.377 285.165 Q 995.957 283.205, 998.977 283.205 Q 999.857 283.205, 1000.6 283.405 Q 1001.36 283.605, 1002.08 284.025 L 1001.3 285.365 Q 1000.26 284.805, 998.997 284.805 Q 996.997 284.805, 995.977 286.105 Q 994.957 287.385, 994.837 290.045 Q 995.557 289.385, 996.457 289.045 Q 997.377 288.685, 998.357 288.685 M 997.897 296.045 Q 998.657 296.045, 999.277 295.645 Q 999.917 295.245, 1000.28 294.545 Q 1000.64 293.845, 1000.64 292.985 Q 1000.64 291.725, 999.937 291.005 Q 999.237 290.285, 997.997 290.285 Q 997.137 290.285, 996.277 290.645 Q 995.437 290.985, 994.837 291.585 Q 994.917 293.925, 995.657 294.985 Q 996.397 296.045, 997.897 296.045 " fill="#000000"/>
<path class="note" d="M 1125.1 214.806 L 1117.68 214.806 L 1117.68 213.206 L 1127.08 213.206 L 1127.08 214.626 L 1121.36 227.366 L 1119.44 227.366 L 1125.1 214.806 " fill="#000000"/>
<path class="note" d="M 1199.42 341.809 Q 1200.72 342.369, 1201.46 343.209 Q 1202.2 344.029, 1202.2 345.429 Q 1202.2 346.629, 1201.58 347.569 Q 1200.96 348.489, 1199.84 349.009 Q 1198.74 349.509, 1197.28 349.509 Q 1194.92 349.509, 1193.56 348.429 Q 1192.2 347.329, 1192.2 345.429 Q 1192.2 344.269, 1192.8 343.409 Q 1193.4 342.529, 1194.64 341.869 Q 1193.72 341.349, 1193.22 340.589 Q 1192.72 339.809, 1192.72 338.609 Q 1192.72 336.949, 1193.92 335.969 Q 1195.14 334.989, 1197.2 334.989 Q 1199.26 334.989, 1200.46 335.969 Q 1201.68 336.949, 1201.68 338.609 Q 1201.68 339.649, 1201.1 340.429 Q 1200.54 341.189, 1199.42 341.809 M 1197.2 336.489 Q 1196.02 336.489, 1195.36 337.049 Q 1194.72 337.609, 1194.72 338.609 Q 1194.72 339.349, 1195.16 339.849 Q 1195.6 340.329, 1196.22 340.609 Q 1196.86 340.889, 1198.08 341.309 Q 1198.94 340.709, 1199.3 340.069 Q 1199.68 339.429, 1199.68 338.609 Q 1199.68 337.609, 1199.02 337.049 Q 1198.38 336.489, 1197.2 336.489 M 1197.28 348.009 Q 1198.6 348.009, 1199.4 347.309 Q 1200.2 346.589, 1200.2 345.409 Q 1200.2 344.649, 1199.78 344.169 Q 1199.36 343.689, 1198.72 343.409 Q 1198.1 343.129, 1196.98 342.769 L 1196.08 342.469 Q 1195.08 343.069, 1194.64 343.789 Q 1194.2 344.489, 1194.2 345.409 Q 1194.2 346.589, 1195.04 347.309 Q 1195.88 348.009, 1197.28 348.009 " fill="#000000"/>
<path class="note" d="M 1302.59 270.192 Q 1305.11 270.192, 1306.37 271.912 Q 1307.65 273.612, 1307.65 277.012 Q 1307.65 280.772, 1306.07 282.732 Q 1304.51 284.672, 1301.49 284.672 Q 1300.61 284.672, 1299.85 284.472 Q 1299.11 284.272, 1298.39 283.852 L 1299.17 282.512 Q 1300.21 283.072, 1301.47 283.072 Q 1303.47 283.072, 1304.49 281.792 Q 1305.51 280.492, 1305.63 277.832 Q 1304.91 278.492, 1303.99 278.852 Q 1303.09 279.192, 1302.11 279.192 Q 1300.87 279.192, 1299.89 278.652 Q 1298.91 278.112, 1298.37 277.132 Q 1297.83 276.152, 1297.83 274.912 Q 1297.83 273.532, 1298.43 272.472 Q 1299.05 271.392, 1300.13 270.792 Q 1301.21 270.192, 1302.59 270.192 M 1299.83 274.892 Q 1299.83 276.152, 1300.53 276.872 Q 1301.23 277.592, 1302.47 277.592 Q 1303.33 277.592, 1304.17 277.252 Q 1305.03 276.892, 1305.63 276.292 Q 1305.55 273.952, 1304.81 272.892 Q 1304.07 271.832, 1302.57 271.832 Q 1301.81 271.832, 1301.17 272.232 Q 1300.55 272.632, 1300.19 273.332 Q 1299.83 274.032, 1299.83 274.892 " fill="#000000"/>
<path class="note" d="M 1319.08 167.746 L 1322.18 167.746 L 1322.18 157.166 L 1318.76 158.226 L 1318.3 157.046 L 1322.64 155.106 L 1324.06 155.346 L 1324.06 167.746 L 1326.84 167.746 L 1326.84 169.346 L 1319.08 169.346 L 1319.08 167.746 " fill="#000000"/>
<path class="note" d="M 1333.24 169.506 Q 1330.64 169.506, 1329.34 167.586 Q 1328.06 165.666, 1328.06 162.246 Q 1328.06 158.826, 1329.34 156.926 Q 1330.62 155.026, 1333.24 155.026 Q 1335.86 155.026, 1337.14 156.926 Q 1338.42 158.826, 1338.42 162.246 Q 1338.42 165.666, 1337.12 167.586 Q 1335.84 169.506, 1333.24 169.506 M 1333.24 167.906 Q 1334.78 167.906, 1335.6 166.486 Q 1336.42 165.046, 1336.42 162.246 Q 1336.42 159.466, 1335.6 158.046 Q 1334.78 156.626, 1333.24 156.626 Q 1331.72 156.626, 1330.88 158.046 Q 1330.06 159.466, 1330.06 162.246 Q 1330.06 165.046, 1330.88 166.486 Q 1331.72 167.906, 1333.24 167.906 " fill="#000000"/>
<path class="note" d="M 1453.86 130.734 L 1456.96 130.734 L 1456.96 120.154 L 1453.54 121.214 L 1453.08 120.034 L 1457.42 118.094 L 1458.84 118.334 L 1458.84 130.734 L 1461.62 130.734 L 1461.62 132.334 L 1453.86 132.334 L 1453.86 130.734 " fill="#000000"/>
<path class="note" d="M 1463.48 130.734 L 1466.58 130.734 L 1466.58 120.154 L 1463.16 121.214 L 1462.7 120.034 L 1467.04 118.094 L 1468.46 118.334 L 1468.46 130.734 L 1471.24 130.734 L 1471.24 132.334 L 1463.48 132.334 L 1463.48 130.734 " fill="#000000"/>
<path class="note" d="M 1543.17 195.054 L 1546.27 195.054 L 1546.27 184.474 L 1542.85 185.534 L 1542.39 184.354 L 1546.73 182.414 L 1548.15 182.654 L 1548.15 195.054 L 1550.93 195.054 L 1550.93 196.654 L 1543.17 196.654 L 1543.17 195.054 " fill="#000000"/>
<path class="note" d="M 1551.97 185.174 Q 1552.49 183.834, 1553.73 183.094 Q 1554.97 182.334, 1556.69 182.334 Q 1558.83 182.334, 1560.03 183.494 Q 1561.23 184.654, 1561.23 186.714 Q 1561.23 188.814, 1559.67 190.774 Q 1558.13 192.734, 1554.93 195.054 L 1561.47 195.054 L 1561.47 196.654 L 1551.93 196.654 L 1551.93 195.314 Q 1554.57 193.434, 1556.13 192.034 Q 1557.71 190.634, 1558.47 189.374 Q 1559.23 188.114, 1559.23 186.814 Q 1559.23 185.454, 1558.55 184.694 Q 1557.87 183.934, 1556.69 183.934 Q 1555.55 183.934, 1554.79 184.394 Q 1554.03 184.854, 1553.49 185.874 L 1551.97 185.174 " fill="#000000"/>
<path class="note" d="M 1675.81 173.489 L 1678.91 173.489 L 1678.91 162.909 L 1675.49 163.969 L 1675.03 162.789 L 1679.37 160.849 L 1680.79 161.089 L 1680.79 173.489 L 1683.57 173.489 L 1683.57 175.089 L 1675.81 175.089 L 1675.81 173.489 " fill="#000000"/>
<path class="note" d="M 1691.21 167.629 Q 1692.59 168.029, 1693.25 168.929 Q 1693.93 169.809, 1693.93 171.209 Q 1693.93 172.409, 1693.33 173.349 Q 1692.73 174.269, 1691.63 174.789 Q 1690.53 175.289, 1689.09 175.289 Q 1687.57 175.289, 1686.43 174.769 Q 1685.31 174.229, 1684.41 173.149 L 1685.55 171.989 Q 1686.43 172.949, 1687.17 173.329 Q 1687.91 173.689, 1689.09 173.689 Q 1690.37 173.689, 1691.15 173.009 Q 1691.93 172.309, 1691.93 171.189 Q 1691.93 169.749, 1691.11 169.109 Q 1690.31 168.449, 1688.57 168.449 L 1687.55 168.449 L 1687.55 167.009 L 1688.45 167.009 Q 1689.99 166.989, 1690.81 166.329 Q 1691.63 165.649, 1691.63 164.389 Q 1691.63 163.469, 1690.95 162.929 Q 1690.27 162.369, 1689.11 162.369 Q 1687.93 162.369, 1687.19 162.789 Q 1686.47 163.209, 1685.91 164.269 L 1684.53 163.529 Q 1685.03 162.349, 1686.23 161.569 Q 1687.43 160.769, 1689.11 160.769 Q 1691.19 160.769, 1692.41 161.749 Q 1693.63 162.729, 1693.63 164.389 Q 1693.63 165.529, 1693.01 166.349 Q 1692.39 167.169, 1691.21 167.629 " fill="#000000"/>
<path class="note" d="M 1517.83 362.48 L 1520.93 362.48 L 1520.93 351.9 L 1517.51 352.96 L 1517.05 351.78 L 1521.39 349.84 L 1522.81 350.08 L 1522.81 362.48 L 1525.59 362.48 L 1525.59 364.08 L 1517.83 364.08 L 1517.83 362.48 " fill="#000000"/>
<path class="note" d="M 1533.37 351.52 L 1525.95 351.52 L 1525.95 349.92 L 1535.35 349.92 L 1535.35 351.34 L 1529.63 364.08 L 1527.71 364.08 L 1533.37 351.52 " fill="#000000"/>
<path class="note" d="M 1383.29 399.493 L 1386.39 399.493 L 1386.39 388.913 L 1382.97 389.973 L 1382.51 388.793 L 1386.85 386.853 L 1388.27 387.093 L 1388.27 399.493 L 1391.05 399.493 L 1391.05 401.093 L 1383.29 401.093 L 1383.29 399.493 " fill="#000000"/>
<path class="note" d="M 1399.51 393.593 Q 1400.81 394.153, 1401.55 394.993 Q 1402.29 395.813, 1402.29 397.213 Q 1402.29 398.413, 1401.67 399.353 Q 1401.05 400.273, 1399.93 400.793 Q 1398.83 401.293, 1397.37 401.293 Q 1395.01 401.293, 1393.65 400.213 Q 1392.29 399.113, 1392.29 397.213 Q 1392.29 396.053, 1392.89 395.193 Q 1393.49 394.313, 1394.73 393.653 Q 1393.81 393.133, 1393.31 392.373 Q 1392.81 391.593, 1392.81 390.393 Q 1392.81 388.733, 1394.01 387.753 Q 1395.23 386.773, 1397.29 386.773 Q 1399.35 386.773, 1400.55 387.753 Q 1401.77 388.733, 1401.77 390.393 Q 1401.77 391.433, 1401.19 392.213 Q 1400.63 392.973, 1399.51 393.593 M 1397.29 388.273 Q 1396.11 388.273, 1395.45 388.833 Q 1394.81 389.393, 1394.81 390.393 Q 1394.81 391.133, 1395.25 391.633 Q 1395.69 392.113, 1396.31 392.393 Q 1396.95 392.673, 1398.17 393.093 Q 1399.03 392.493, 1399.39 391.853 Q 1399.77 391.213, 1399.77 390.393 Q 1399.77 389.393, 1399.11 388.833 Q 1398.47 388.273, 1397.29 388.273 M 1397.37 399.793 Q 1398.69 399.793, 1399.49 399.093 Q 1400.29 398.373, 1400.29 397.193 Q 1400.29 396.433, 1399.87 395.953 Q 1399.45 395.473, 1398.81 395.193 Q 1398.19 394.913, 1397.07 394.553 L 1396.17 394.253 Q 1395.17 394.853, 1394.73 395.573 Q 1394.29 396.273, 1394.29 397.193 Q 1394.29 398.373, 1395.13 399.093 Q 1395.97 399.793, 1397.37 399.793 " fill="#000000"/>
<path class="note" d="M 2368.54 334.452 L 2371.64 334.452 L 2371.64 323.872 L 2368.22 324.932 L 2367.76 323.752 L 2372.1 321.812 L 2373.52 322.052 L 2373.52 334.452 L 2376.3 334.452 L 2376.3 336.052 L 2368.54 336.052 L 2368.54 334.452 " fill="#000000"/>
<path class="note" d="M 2450.52 230.773 Q 2451.04 229.433, 2452.28 228.693 Q 2453.52 227.933, 2455.24 227.933 Q 2457.38 227.933, 2458.58 229.093 Q 2459.78 230.253, 2459.78 232.313 Q 2459.78 234.413, 2458.22 236.373 Q 2456.68 238.333, 2453.48 240.653 L 2460.02 240.653 L 2460.02 242.253 L 2450.48 242.253 L 2450.48 240.913 Q 2453.12 239.033, 2454.68 237.633 Q 2456.26 236.233, 2457.02 234.973 Q 2457.78 233.713, 2457.78 232.413 Q 2457.78 231.053, 2457.1 230.293 Q 2456.42 229.533, 2455.24 229.533 Q 2454.1 229.533, 2453.34 229.993 Q 2452.58 230.453, 2452.04 231.473 L 2450.52 230.773 " fill="#000000"/>
<path class="note" d="M 2604.59 331.289 Q 2605.97 331.689, 2606.63 332.589 Q 2607.31 333.469, 2607.31 334.869 Q 2607.31 336.069, 2606.71 337.009 Q 2606.11 337.929, 2605.01 338.449 Q 2603.91 338.949, 2602.47 338.949 Q 2600.95 338.949, 2599.81 338.429 Q 2598.69 337.889, 2597.79 336.809 L 2598.93 335.649 Q 2599.81 336.609, 2600.55 336.989 Q 2601.29 337.349, 2602.47 337.349 Q 2603.75 337.349, 2604.53 336.669 Q 2605.31 335.969, 2605.31 334.849 Q 2605.31 333.409, 2604.49 332.769 Q 2603.69 332.109, 2601.95 332.109 L 2600.93 332.109 L 2600.93 330.669 L 2601.83 330.669 Q 2603.37 330.649, 2604.19 329.989 Q 2605.01 329.309, 2605.01 328.049 Q 2605.01 327.129, 2604.33 326.589 Q 2603.65 326.029, 2602.49 326.029 Q 2601.31 326.029, 2600.57 326.449 Q 2599.85 326.869, 2599.29 327.929 L 2597.91 327.189 Q 2598.41 326.009, 2599.61 325.229 Q 2600.81 324.429, 2602.49 324.429 Q 2604.57 324.429, 2605.79 325.409 Q 2607.01 326.389, 2607.01 328.049 Q 2607.01 329.189, 2606.39 330.009 Q 2605.77 330.829, 2604.59 331.289 " fill="#000000"/>
<path class="note" d="M 2468.91 95.8427 L 2470.61 95.8427 L 2470.61 97.4427 L 2468.91 97.4427 L 2468.91 100.703 L 2467.03 100.703 L 2467.03 97.4427 L 2459.71 97.4427 L 2459.71 96.1827 L 2465.91 86.5427 L 2468.91 86.5427 L 2468.91 95.8427 M 2462.03 95.8427 L 2467.03 95.8427 L 2467.03 87.8227 L 2462.03 95.8427 " fill="#000000"/>
<path class="note" d="M 2837.24 214.303 Q 2838.48 214.303, 2839.5 214.843 Q 2840.52 215.363, 2841.1 216.363 Q 2841.68 217.343, 2841.68 218.683 Q 2841.68 220.143, 2840.96 221.203 Q 2840.26 222.243, 2839.1 222.783 Q 2837.94 223.323, 2836.62 223.323 Q 2835.32 223.323, 2834.12 222.843 Q 2832.92 222.363, 2832.1 221.443 L 2833.3 220.203 Q 2833.96 220.923, 2834.86 221.323 Q 2835.76 221.703, 2836.68 221.703 Q 2837.94 221.703, 2838.8 220.923 Q 2839.68 220.143, 2839.68 218.723 Q 2839.68 217.223, 2838.8 216.523 Q 2837.94 215.803, 2836.56 215.803 Q 2835.32 215.803, 2833.94 216.343 L 2832.84 215.823 L 2833.52 209.003 L 2840.8 209.003 L 2840.6 210.603 L 2835.16 210.603 L 2834.74 214.803 Q 2836 214.303, 2837.24 214.303 " fill="#000000"/>
<path class="note" d="M 2935.62 298.057 Q 2936.86 298.057, 2937.84 298.597 Q 2938.82 299.137, 2939.36 300.117 Q 2939.9 301.097, 2939.9 302.337 Q 2939.9 303.717, 2939.28 304.797 Q 2938.68 305.857, 2937.6 306.457 Q 2936.52 307.057, 2935.14 307.057 Q 2932.62 307.057, 2931.34 305.357 Q 2930.08 303.637, 2930.08 300.237 Q 2930.08 296.477, 2931.64 294.537 Q 2933.22 292.577, 2936.24 292.577 Q 2937.12 292.577, 2937.86 292.777 Q 2938.62 292.977, 2939.34 293.397 L 2938.56 294.737 Q 2937.52 294.177, 2936.26 294.177 Q 2934.26 294.177, 2933.24 295.477 Q 2932.22 296.757, 2932.1 299.417 Q 2932.82 298.757, 2933.72 298.417 Q 2934.64 298.057, 2935.62 298.057 M 2935.16 305.417 Q 2935.92 305.417, 2936.54 305.017 Q 2937.18 304.617, 2937.54 303.917 Q 2937.9 303.217, 2937.9 302.357 Q 2937.9 301.097, 2937.2 300.377 Q 2936.5 299.657, 2935.26 299.657 Q 2934.4 299.657, 2933.54 300.017 Q 2932.7 300.357, 2932.1 300.957 Q 2932.18 303.297, 2932.92 304.357 Q 2933.66 305.417, 2935.16 305.417 " fill="#000000"/>
<path class="note" d="M 3058.64 217.926 L 3051.22 217.926 L 3051.22 216.326 L 3060.62 216.326 L 3060.62 217.746 L 3054.9 230.486 L 3052.98 230.486 L 3058.64 217.926 " fill="#000000"/>
<path class="note" d="M 3139.06 340.965 Q 3140.36 341.525, 3141.1 342.365 Q 3141.84 343.185, 3141.84 344.585 Q 3141.84 345.785, 3141.22 346.725 Q 3140.6 347.645, 3139.48 348.165 Q 3138.38 348.665, 3136.92 348.665 Q 3134.56 348.665, 3133.2 347.585 Q 3131.84 346.485, 3131.84 344.585 Q 3131.84 343.425, 3132.44 342.565 Q 3133.04 341.685, 3134.28 341.025 Q 3133.36 340.505, 3132.86 339.745 Q 3132.36 338.965, 3132.36 337.765 Q 3132.36 336.105, 3133.56 335.125 Q 3134.78 334.145, 3136.84 334.145 Q 3138.9 334.145, 3140.1 335.125 Q 3141.32 336.105, 3141.32 337.765 Q 3141.32 338.805, 3140.74 339.585 Q 3140.18 340.345, 3139.06 340.965 M 3136.84 335.645 Q 3135.66 335.645, 3135 336.205 Q 3134.36 336.765, 3134.36 337.765 Q 3134.36 338.505, 3134.8 339.005 Q 3135.24 339.485, 3135.86 339.765 Q 3136.5 340.045, 3137.72 340.465 Q 3138.58 339.865, 3138.94 339.225 Q 3139.32 338.585, 3139.32 337.765 Q 3139.32 336.765, 3138.66 336.205 Q 3138.02 335.645, 3136.84 335.645 M 3136.92 347.165 Q 3138.24 347.165, 3139.04 346.465 Q 3139.84 345.745, 3139.84 344.565 Q 3139.84 343.805, 3139.42 343.325 Q 3139 342.845, 3138.36 342.565 Q 3137.74 342.285, 3136.62 341.925 L 3135.72 341.625 Q 3134.72 342.225, 3134.28 342.945 Q 3133.84 343.645, 3133.84 344.565 Q 3133.84 345.745, 3134.68 346.465 Q 3135.52 347.165, 3136.92 347.165 " fill="#000000"/>
<path class="note" d="M 3238.79 264.061 Q 3241.31 264.061, 3242.57 265.781 Q 3243.85 267.481, 3243.85 270.881 Q 3243.85 274.641, 3242.27 276.601 Q 3240.71 278.541, 3237.69 278.541 Q 3236.81 278.541, 3236.05 278.341 Q 3235.31 278.141, 3234.59 277.721 L 3235.37 276.381 Q 3236.41 276.941, 3237.67 276.941 Q 3239.67 276.941, 3240.69 275.661 Q 3241.71 274.361, 3241.83 271.701 Q 3241.11 272.361, 3240.19 272.721 Q 3239.29 273.061, 3238.31 273.061 Q 3237.07 273.061, 3236.09 272.521 Q 3235.11 271.981, 3234.57 271.001 Q 3234.03 270.021, 3234.03 268.781 Q 3234.03 267.401, 3234.63 266.341 Q 3235.25 265.261, 3236.33 264.661 Q 3237.41 264.061, 3238.79 264.061 M 3236.03 268.761 Q 3236.03 270.021, 3236.73 270.741 Q 3237.43 271.461, 3238.67 271.461 Q 3239.53 271.461, 3240.37 271.121 Q 3241.23 270.761, 3241.83 270.161 Q 3241.75 267.821, 3241.01 266.761 Q 3240.27 265.701, 3238.77 265.701 Q 3238.01 265.701, 3237.37 266.101 Q 3236.75 266.501, 3236.39 267.201 Q 3236.03 267.901, 3236.03 268.761 " fill="#000000"/>
<path class="note" d="M 3249.39 160.244 L 3252.49 160.244 L 3252.49 149.664 L 3249.07 150.724 L 3248.61 149.544 L 3252.95 147.604 L 3254.37 147.844 L 3254.37 160.244 L 3257.15 160.244 L 3257.15 161.844 L 3249.39 161.844 L 3249.39 160.244 " fill="#000000"/>
<path class="note" d="M 3263.55 162.004 Q 3260.95 162.004, 3259.65 160.084 Q 3258.37 158.164, 3258.37 154.744 Q 3258.37 151.324, 3259.65 149.424 Q 3260.93 147.524, 3263.55 147.524 Q 3266.17 147.524, 3267.45 149.424 Q 3268.73 151.324, 3268.73 154.744 Q 3268.73 158.164, 3267.43 160.084 Q 3266.15 162.004, 3263.55 162.004 M 3263.55 160.404 Q 3265.09 160.404, 3265.91 158.984 Q 3266.73 157.544, 3266.73 154.744 Q 3266.73 151.964, 3265.91 150.544 Q 3265.09 149.124, 3263.55 149.124 Q 3262.03 149.124, 3261.19 150.544 Q 3260.37 151.964, 3260.37 154.744 Q 3260.37 157.544, 3261.19 158.984 Q 3262.03 160.404, 3263.55 160.404 " fill="#000000"/>
<path class="note" d="M 3382.12 116.471 L 3385.22 116.471 L 3385.22 105.891 L 3381.8 106.951 L 3381.34 105.771 L 3385.68 103.831 L 3387.1 104.071 L 3387.1 116.471 L 3389.88 116.471 L 3389.88 118.071 L 3382.12 118.071 L 3382.12 116.471 " fill="#000000"/>
<path class="note" d="M 3391.74 116.471 L 3394.84 116.471 L 3394.84 105.891 L 3391.42 106.951 L 3390.96 105.771 L 3395.3 103.831 L 3396.72 104.071 L 3396.72 116.471 L 3399.5 116.471 L 3399.5 118.071 L 3391.74 118.071 L 3391.74 116.471 " fill="#000000"/>
<path class="note" d="M 3474.58 176.141 L 3477.68 176.141 L 3477.68 165.561 L 3474.26 166.621 L 3473.8 165.441 L 3478.14 163.501 L 3479.56 163.741 L 3479.56 176.141 L 3482.34 176.141 L 3482.34 177.741 L 3474.58 177.741 L 3474.58 176.141 " fill="#000000"/>
<path class="note" d="M 3483.38 166.261 Q 3483.9 164.921, 3485.14 164.181 Q 3486.38 163.421, 3488.1 163.421 Q 3490.24 163.421, 3491.44 164.581 Q 3492.64 165.741, 3492.64 167.801 Q 3492.64 169.901, 3491.08 171.861 Q 3489.54 173.821, 3486.34 176.141 L 3492.88 176.141 L 3492.88 177.741 L 3483.34 177.741 L 3483.34 176.401 Q 3485.98 174.521, 3487.54 173.121 Q 3489.12 171.721, 3489.88 170.461 Q 3490.64 169.201, 3490.64 167.901 Q 3490.64 166.541, 3489.96 165.781 Q 3489.28 165.021, 3488.1 165.021 Q 3486.96 165.021, 3486.2 165.481 Q 3485.44 165.941, 3484.9 166.961 L 3483.38 166.261 " fill="#000000"/>
<path class="note" d="M 3549.95 151.151 L 3553.05 151.151 L 3553.05 140.571 L 3549.63 141.631 L 3549.17 140.451 L 3553.51 138.511 L 3554.93 138.751 L 3554.93 151.151 L 3557.71 151.151 L 3557.71 152.751 L 3549.95 152.751 L 3549.95 151.151 " fill="#000000"/>
<path class="note" d="M 3565.35 145.291 Q 3566.73 145.691, 3567.39 146.591 Q 3568.07 147.471, 3568.07 148.871 Q 3568.07 150.071, 3567.47 151.011 Q 3566.87 151.931, 3565.77 152.451 Q 3564.67 152.951, 3563.23 152.951 Q 3561.71 152.951, 3560.57 152.431 Q 3559.45 151.891, 3558.55 150.811 L 3559.69 149.651 Q 3560.57 150.611, 3561.31 150.991 Q 3562.05 151.351, 3563.23 151.351 Q 3564.51 151.351, 3565.29 150.671 Q 3566.07 149.971, 3566.07 148.851 Q 3566.07 147.411, 3565.25 146.771 Q 3564.45 146.111, 3562.71 146.111 L 3561.69 146.111 L 3561.69 144.671 L 3562.59 144.671 Q 3564.13 144.651, 3564.95 143.991 Q 3565.77 143.311, 3565.77 142.051 Q 3565.77 141.131, 3565.09 140.591 Q 3564.41 140.031, 3563.25 140.031 Q 3562.07 140.031, 3561.33 140.451 Q 3560.61 140.871, 3560.05 141.931 L 3558.67 141.191 Q 3559.17 140.011, 3560.37 139.231 Q 3561.57 138.431, 3563.25 138.431 Q 3565.33 138.431, 3566.55 139.411 Q 3567.77 140.391, 3567.77 142.051 Q 3567.77 143.191, 3567.15 144.011 Q 3566.53 144.831, 3565.35 145.291 " fill="#000000"/>
<path class="note" d="M 3675.95 217.668 L 3679.05 217.668 L 3679.05 207.088 L 3675.63 208.148 L 3675.17 206.968 L 3679.51 205.028 L 3680.93 205.268 L 3680.93 217.668 L 3683.71 217.668 L 3683.71 219.268 L 3675.95 219.268 L 3675.95 217.668 " fill="#000000"/>
<path class="note" d="M 3693.51 214.408 L 3695.21 214.408 L 3695.21 216.008 L 3693.51 216.008 L 3693.51 219.268 L 3691.63 219.268 L 3691.63 216.008 L 3684.31 216.008 L 3684.31 214.748 L 3690.51 205.108 L 3693.51 205.108 L 3693.51 214.408 M 3686.63 214.408 L 3691.63 214.408 L 3691.63 206.388 L 3686.63 214.408 " fill="#000000"/>
<path class="note" d="M 3775.13 200.208 L 3778.23 200.208 L 3778.23 189.628 L 3774.81 190.688 L 3774.35 189.508 L 3778.69 187.568 L 3780.11 187.808 L 3780.11 200.208 L 3782.89 200.208 L 3782.89 201.808 L 3775.13 201.808 L 3775.13 200.208 " fill="#000000"/>
<path class="note" d="M 3788.95 192.948 Q 3790.19 192.948, 3791.21 193.488 Q 3792.23 194.008, 3792.81 195.008 Q 3793.39 195.988, 3793.39 197.328 Q 3793.39 198.788, 3792.67 199.848 Q 3791.97 200.888, 3790.81 201.428 Q 3789.65 201.968, 3788.33 201.968 Q 3787.03 201.968, 3785.83 201.488 Q 3784.63 201.008, 3783.81 200.088 L 3785.01 198.848 Q 3785.67 199.568, 3786.57 199.968 Q 3787.47 200.348, 3788.39 200.348 Q 3789.65 200.348, 3790.51 199.568 Q 3791.39 198.788, 3791.39 197.368 Q 3791.39 195.868, 3790.51 195.168 Q 3789.65 194.448, 3788.27 194.448 Q 3787.03 194.448, 3785.65 194.988 L 3784.55 194.468 L 3785.23 187.648 L 3792.51 187.648 L 3792.31 189.248 L 3786.87 189.248 L 3786.45 193.448 Q 3787.71 192.948, 3788.95 192.948 " fill="#000000"/>
<path class="note" d="M 3636.11 411.937 L 3639.21 411.937 L 3639.21 401.357 L 3635.79 402.417 L 3635.33 401.237 L 3639.67 399.297 L 3641.09 399.537 L 3641.09 411.937 L 3643.87 411.937 L 3643.87 413.537 L 3636.11 413.537 L 3636.11 411.937 " fill="#000000"/>
<path class="note" d="M 3650.77 404.697 Q 3652.01 404.697, 3652.99 405.237 Q 3653.97 405.777, 3654.51 406.757 Q 3655.05 407.737, 3655.05 408.977 Q 3655.05 410.357, 3654.43 411.437 Q 3653.83 412.497, 3652.75 413.097 Q 3651.67 413.697, 3650.29 413.697 Q 3647.77 413.697, 3646.49 411.997 Q 3645.23 410.277, 3645.23 406.877 Q 3645.23 403.117, 3646.79 401.177 Q 3648.37 399.217, 3651.39 399.217 Q 3652.27 399.217, 3653.01 399.417 Q 3653.77 399.617, 3654.49 400.037 L 3653.71 401.377 Q 3652.67 400.817, 3651.41 400.817 Q 3649.41 400.817, 3648.39 402.117 Q 3647.37 403.397, 3647.25 406.057 Q 3647.97 405.397, 3648.87 405.057 Q 3649.79 404.697, 3650.77 404.697 M 3650.31 412.057 Q 3651.07 412.057, 3651.69 411.657 Q 3652.33 411.257, 3652.69 410.557 Q 3653.05 409.857, 3653.05 408.997 Q 3653.05 407.737, 3652.35 407.017 Q 3651.65 406.297, 3650.41 406.297 Q 3649.55 406.297, 3648.69 406.657 Q 3647.85 406.997, 3647.25 407.597 Q 3647.33 409.937, 3648.07 410.997 Q 3648.81 412.057, 3650.31 412.057 " fill="#000000"/>
<path class="note" d="M 3457.79 344.659 L 3460.89 344.659 L 3460.89 334.079 L 3457.47 335.139 L 3457.01 333.959 L 3461.35 332.019 L 3462.77 332.259 L 3462.77 344.659 L 3465.55 344.659 L 3465.55 346.259 L 3457.79 346.259 L 3457.79 344.659 " fill="#000000"/>
<path class="note" d="M 3473.33 333.699 L 3465.91 333.699 L 3465.91 332.099 L 3475.31 332.099 L 3475.31 333.519 L 3469.59 346.259 L 3467.67 346.259 L 3473.33 333.699 " fill="#000000"/>
<path class="note" d="M 3325.31 388.432 L 3328.41 388.432 L 3328.41 377.852 L 3324.99 378.912 L 3324.53 377.732 L 3328.87 375.792 L 3330.29 376.032 L 3330.29 388.432 L 3333.07 388.432 L 3333.07 390.032 L 3325.31 390.032 L 3325.31 388.432 " fill="#000000"/>
<path class="note" d="M 3341.53 382.532 Q 3342.83 383.092, 3343.57 383.932 Q 3344.31 384.752, 3344.31 386.152 Q 3344.31 387.352, 3343.69 388.292 Q 3343.07 389.212, 3341.95 389.732 Q 3340.85 390.232, 3339.39 390.232 Q 3337.03 390.232, 3335.67 389.152 Q 3334.31 388.052, 3334.31 386.152 Q 3334.31 384.992, 3334.91 384.132 Q 3335.51 383.252, 3336.75 382.592 Q 3335.83 382.072, 3335.33 381.312 Q 3334.83 380.532, 3334.83 379.332 Q 3334.83 377.672, 3336.03 376.692 Q 3337.25 375.712, 3339.31 375.712 Q 3341.37 375.712, 3342.57 376.692 Q 3343.79 377.672, 3343.79 379.332 Q 3343.79 380.372, 3343.21 381.152 Q 3342.65 381.912, 3341.53 382.532 M 3339.31 377.212 Q 3338.13 377.212, 3337.47 377.772 Q 3336.83 378.332, 3336.83 379.332 Q 3336.83 380.072, 3337.27 380.572 Q 3337.71 381.052, 3338.33 381.332 Q 3338.97 381.612, 3340.19 382.032 Q 3341.05 381.432, 3341.41 380.792 Q 3341.79 380.152, 3341.79 379.332 Q 3341.79 378.332, 3341.13 377.772 Q 3340.49 377.212, 3339.31 377.212 M 3339.39 388.732 Q 3340.71 388.732, 3341.51 388.032 Q 3342.31 387.312, 3342.31 386.132 Q 3342.31 385.372, 3341.89 384.892 Q 3341.47 384.412, 3340.83 384.132 Q 3340.21 383.852, 3339.09 383.492 L 3338.19 383.192 Q 3337.19 383.792, 3336.75 384.512 Q 3336.31 385.212, 3336.31 386.132 Q 3336.31 387.312, 3337.15 388.032 Q 3337.99 388.732, 3339.39 388.732 " fill="#000000"/>
<path d="M 771.827 250.264 L 777.875 250.264 L 777.875 243.896 L 780.563 243.896 L 780.563 250.264 L 786.771 250.264 L 786.771 252.568 L 780.563 252.568 L 780.563 258.968 L 777.875 258.968 L 777.875 252.568 L 771.827 252.568 L 771.827 250.264 " fill="#000000"/>
<path d="M 2703.97 250.264 L 2710.02 250.264 L 2710.02 243.896 L 2712.71 243.896 L 2712.71 250.264 L 2718.92 250.264 L 2718.92 252.568 L 2712.71 252.568 L 2712.71 258.968 L 2710.02 258.968 L 2710.02 252.568 L 2703.97 252.568 L 2703.97 250.264 " fill="#000000"/>
<path d="M 1868.64,252.568 L 2185.93,252.568" style="fill:none;fill-rule:evenodd;stroke:#000000;stroke-width:2.0px;stroke-linecap:butt;stroke-linejoin:miter;stroke-opacity:1"/>
<path d="M 2185.93,252.568 L 2172.19,244.636" style="fill:none;fill-rule:evenodd;stroke:#000000;stroke-width:2.0px;stroke-linecap:butt;stroke-linejoin:miter;stroke-opacity:1"/>
<path d="M 2185.93,252.568 L 2172.19,260.501" style="fill:none;fill-rule:evenodd;stroke:#000000;stroke-width:2.0px;stroke-linecap:butt;stroke-linejoin:miter;stroke-opacity:1"/>
</svg>