<svg xmlns="http://www.w3.org/2000/svg" xmlns:rdkit="http://www.rdkit.org/xml" xmlns:xlink="http://www.w3.org/1999/xlink" version="1.1" baseProfile="full" xml:space="preserve" width="4000px" height="500px" viewBox="0 0 4000 500">
<!-- END OF HEADER -->
<rect style="opacity:1.0;fill:#FFFFFF;stroke:none" width="4000" height="500" x="0" y="0"> </rect>
<path d="M 259.583,173.873 L 372.93,239.314" style="fill:none;fill-rule:evenodd;stroke:#FFFFAA;stroke-width:27.9px;stroke-linecap:butt;stroke-linejoin:miter;stroke-opacity:1"/>
<path d="M 372.93,239.314 L 372.93,370.197" style="fill:none;fill-rule:evenodd;stroke:#FFFFAA;stroke-width:27.9px;stroke-linecap:butt;stroke-linejoin:miter;stroke-opacity:1"/>
<path d="M 372.93,239.314 L 486.277,173.873" style="fill:none;fill-rule:evenodd;stroke:#FFFFAA;stroke-width:27.9px;stroke-linecap:butt;stroke-linejoin:miter;stroke-opacity:1"/>
<path d="M 486.277,173.873 L 599.624,239.314" style="fill:none;fill-rule:evenodd;stroke:#FFFFAA;stroke-width:27.9px;stroke-linecap:butt;stroke-linejoin:miter;stroke-opacity:1"/>
<path d="M 599.624,239.314 L 712.972,173.873" style="fill:none;fill-rule:evenodd;stroke:#FFFFAA;stroke-width:27.9px;stroke-linecap:butt;stroke-linejoin:miter;stroke-opacity:1"/>
<path d="M 599.624,239.314 L 599.624,370.197" style="fill:none;fill-rule:evenodd;stroke:#FFFFAA;stroke-width:27.9px;stroke-linecap:butt;stroke-linejoin:miter;stroke-opacity:1"/>
<path d="M 1058.78,246.734 L 1189.46,239.408" style="fill:none;fill-rule:evenodd;stroke:#FFCC99;stroke-width:27.9px;stroke-linecap:butt;stroke-linejoin:miter;stroke-opacity:1"/>
<path d="M 1189.46,239.408 L 1248.45,122.576" style="fill:none;fill-rule:evenodd;stroke:#FFCC99;stroke-width:27.9px;stroke-linecap:butt;stroke-linejoin:miter;stroke-opacity:1"/>
<path d="M 1189.46,239.408 L 1261.14,348.915" style="fill:none;fill-rule:evenodd;stroke:#FFCC99;stroke-width:27.9px;stroke-linecap:butt;stroke-linejoin:miter;stroke-opacity:1"/>
<path d="M 1248.45,122.576 L 1379.13,115.25" style="fill:none;fill-rule:evenodd;stroke:#FFCC99;stroke-width:27.9px;stroke-linecap:butt;stroke-linejoin:miter;stroke-opacity:1"/>
<path d="M 1379.13,115.25 L 1450.81,224.757" style="fill:none;fill-rule:evenodd;stroke:#FFCC99;stroke-width:27.9px;stroke-linecap:butt;stroke-linejoin:miter;stroke-opacity:1"/>
<path d="M 1450.81,224.757 L 1581.49,217.432" style="fill:none;fill-rule:evenodd;stroke:#FFCC99;stroke-width:27.9px;stroke-linecap:butt;stroke-linejoin:miter;stroke-opacity:1"/>
<path d="M 1450.81,224.757 L 1391.82,341.589" style="fill:none;fill-rule:evenodd;stroke:#FFCC99;stroke-width:27.9px;stroke-linecap:butt;stroke-linejoin:miter;stroke-opacity:1"/>
<path d="M 1581.49,217.432 L 1653.17,326.938" style="fill:none;fill-rule:evenodd;stroke:#FFCC99;stroke-width:27.9px;stroke-linecap:butt;stroke-linejoin:miter;stroke-opacity:1"/>
<path d="M 1581.49,217.432 L 1640.48,100.599" style="fill:none;fill-rule:evenodd;stroke:#FFCC99;stroke-width:27.9px;stroke-linecap:butt;stroke-linejoin:miter;stroke-opacity:1"/>
<path d="M 1391.82,341.589 L 1463.5,451.096" style="fill:none;fill-rule:evenodd;stroke:#FFCC99;stroke-width:27.9px;stroke-linecap:butt;stroke-linejoin:miter;stroke-opacity:1"/>
<path d="M 1391.82,341.589 L 1261.14,348.915" style="fill:none;fill-rule:evenodd;stroke:#FFCC99;stroke-width:27.9px;stroke-linecap:butt;stroke-linejoin:miter;stroke-opacity:1"/>
<path d="M 2381.73,314.104 L 2495.08,248.663" style="fill:none;fill-rule:evenodd;stroke:#FFFFAA;stroke-width:27.9px;stroke-linecap:butt;stroke-linejoin:miter;stroke-opacity:1"/>
<path d="M 2495.08,248.663 L 2608.42,314.104" style="fill:none;fill-rule:evenodd;stroke:#FFFFAA;stroke-width:27.9px;stroke-linecap:butt;stroke-linejoin:miter;stroke-opacity:1"/>
<path d="M 2495.08,248.663 L 2495.08,117.781" style="fill:none;fill-rule:evenodd;stroke:#FFFFAA;stroke-width:27.9px;stroke-linecap:butt;stroke-linejoin:miter;stroke-opacity:1"/>
<path d="M 2918.48,269.138 L 3044.85,235.095" style="fill:none;fill-rule:evenodd;stroke:#FFFFAA;stroke-width:27.9px;stroke-linecap:butt;stroke-linejoin:miter;stroke-opacity:1"/>
<path d="M 3044.85,235.095 L 3078.56,108.628" style="fill:none;fill-rule:evenodd;stroke:#FFFFAA;stroke-width:27.9px;stroke-linecap:butt;stroke-linejoin:miter;stroke-opacity:1"/>
<path d="M 3137.52,327.52 L 3263.9,293.478" style="fill:none;fill-rule:evenodd;stroke:#FFCC99;stroke-width:27.9px;stroke-linecap:butt;stroke-linejoin:miter;stroke-opacity:1"/>
<path d="M 3263.9,293.478 L 3297.61,167.01" style="fill:none;fill-rule:evenodd;stroke:#FFCC99;stroke-width:27.9px;stroke-linecap:butt;stroke-linejoin:miter;stroke-opacity:1"/>
<path d="M 3263.9,293.478 L 3356.57,385.902" style="fill:none;fill-rule:evenodd;stroke:#FFCC99;stroke-width:27.9px;stroke-linecap:butt;stroke-linejoin:miter;stroke-opacity:1"/>
<path d="M 3297.61,167.01 L 3423.99,132.968" style="fill:none;fill-rule:evenodd;stroke:#FFCC99;stroke-width:27.9px;stroke-linecap:butt;stroke-linejoin:miter;stroke-opacity:1"/>
<path d="M 3423.99,132.968 L 3516.66,225.393" style="fill:none;fill-rule:evenodd;stroke:#FFCC99;stroke-width:27.9px;stroke-linecap:butt;stroke-linejoin:miter;stroke-opacity:1"/>
<path d="M 3516.66,225.393 L 3643.03,191.35" style="fill:none;fill-rule:evenodd;stroke:#FFCC99;stroke-width:27.9px;stroke-linecap:butt;stroke-linejoin:miter;stroke-opacity:1"/>
<path d="M 3516.66,225.393 L 3482.95,351.86" style="fill:none;fill-rule:evenodd;stroke:#FFCC99;stroke-width:27.9px;stroke-linecap:butt;stroke-linejoin:miter;stroke-opacity:1"/>
<path d="M 3643.03,191.35 L 3735.7,283.775" style="fill:none;fill-rule:evenodd;stroke:#FFCC99;stroke-width:27.9px;stroke-linecap:butt;stroke-linejoin:miter;stroke-opacity:1"/>
<path d="M 3643.03,191.35 L 3676.74,64.883" style="fill:none;fill-rule:evenodd;stroke:#FFCC99;stroke-width:27.9px;stroke-linecap:butt;stroke-linejoin:miter;stroke-opacity:1"/>
<path d="M 3482.95,351.86 L 3575.62,444.285" style="fill:none;fill-rule:evenodd;stroke:#FFCC99;stroke-width:27.9px;stroke-linecap:butt;stroke-linejoin:miter;stroke-opacity:1"/>
<path d="M 3482.95,351.86 L 3356.57,385.902" style="fill:none;fill-rule:evenodd;stroke:#FFCC99;stroke-width:27.9px;stroke-linecap:butt;stroke-linejoin:miter;stroke-opacity:1"/>
<ellipse cx="259.583" cy="173.873" rx="26.1764" ry="26.1764" style="fill:#FFFFAA;fill-rule:evenodd;stroke:#FFFFAA;stroke-width:1px;stroke-linecap:butt;stroke-linejoin:miter;stroke-opacity:1"/>
<ellipse cx="372.93" cy="239.314" rx="26.1764" ry="26.1764" style="fill:#FFFFAA;fill-rule:evenodd;stroke:#FFFFAA;stroke-width:1px;stroke-linecap:butt;stroke-linejoin:miter;stroke-opacity:1"/>
<ellipse cx="372.93" cy="370.417" rx="26.1764" ry="26.1764" style="fill:#FFFFAA;fill-rule:evenodd;stroke:#FFFFAA;stroke-width:1px;stroke-linecap:butt;stroke-linejoin:miter;stroke-opacity:1"/>
<ellipse cx="486.277" cy="174.093" rx="26.1764" ry="26.1764" style="fill:#FFFFAA;fill-rule:evenodd;stroke:#FFFFAA;stroke-width:1px;stroke-linecap:butt;stroke-linejoin:miter;stroke-opacity:1"/>
<ellipse cx="599.624" cy="239.314" rx="26.1764" ry="26.1764" style="fill:#FFFFAA;fill-rule:evenodd;stroke:#FFFFAA;stroke-width:1px;stroke-linecap:butt;stroke-linejoin:miter;stroke-opacity:1"/>
<ellipse cx="712.972" cy="173.873" rx="26.1764" ry="26.1764" style="fill:#FFFFAA;fill-rule:evenodd;stroke:#FFFFAA;stroke-width:1px;stroke-linecap:butt;stroke-linejoin:miter;stroke-opacity:1"/>
<ellipse cx="599.624" cy="370.417" rx="26.1764" ry="26.1764" style="fill:#FFFFAA;fill-rule:evenodd;stroke:#FFFFAA;stroke-width:1px;stroke-linecap:butt;stroke-linejoin:miter;stroke-opacity:1"/>
<ellipse cx="1046.7" cy="246.954" rx="35.4685" ry="26.1764" style="fill:#FFCC99;fill-rule:evenodd;stroke:#FFCC99;stroke-width:1px;stroke-linecap:butt;stroke-linejoin:miter;stroke-opacity:1"/>
<ellipse cx="1189.46" cy="239.408" rx="26.1764" ry="26.1764" style="fill:#FFCC99;fill-rule:evenodd;stroke:#FFCC99;stroke-width:1px;stroke-linecap:butt;stroke-linejoin:miter;stroke-opacity:1"/>
<ellipse cx="1248.45" cy="122.576" rx="26.1764" ry="26.1764" style="fill:#FFCC99;fill-rule:evenodd;stroke:#FFCC99;stroke-width:1px;stroke-linecap:butt;stroke-linejoin:miter;stroke-opacity:1"/>
<ellipse cx="1379.13" cy="115.25" rx="26.1764" ry="26.1764" style="fill:#FFCC99;fill-rule:evenodd;stroke:#FFCC99;stroke-width:1px;stroke-linecap:butt;stroke-linejoin:miter;stroke-opacity:1"/>
<ellipse cx="1450.81" cy="224.757" rx="26.1764" ry="26.1764" style="fill:#FFCC99;fill-rule:evenodd;stroke:#FFCC99;stroke-width:1px;stroke-linecap:butt;stroke-linejoin:miter;stroke-opacity:1"/>
<ellipse cx="1588.84" cy="217.357" rx="26.1764" ry="26.1764" style="fill:#FFCC99;fill-rule:evenodd;stroke:#FFCC99;stroke-width:1px;stroke-linecap:butt;stroke-linejoin:miter;stroke-opacity:1"/>
<ellipse cx="1653.17" cy="327.158" rx="26.1764" ry="26.1764" style="fill:#FFCC99;fill-rule:evenodd;stroke:#FFCC99;stroke-width:1px;stroke-linecap:butt;stroke-linejoin:miter;stroke-opacity:1"/>
<ellipse cx="1645.99" cy="100.819" rx="26.1764" ry="26.1764" style="fill:#FFCC99;fill-rule:evenodd;stroke:#FFCC99;stroke-width:1px;stroke-linecap:butt;stroke-linejoin:miter;stroke-opacity:1"/>
<ellipse cx="1391.82" cy="341.589" rx="26.1764" ry="26.1764" style="fill:#FFCC99;fill-rule:evenodd;stroke:#FFCC99;stroke-width:1px;stroke-linecap:butt;stroke-linejoin:miter;stroke-opacity:1"/>
<ellipse cx="1463.5" cy="451.096" rx="26.1764" ry="26.1764" style="fill:#FFCC99;fill-rule:evenodd;stroke:#FFCC99;stroke-width:1px;stroke-linecap:butt;stroke-linejoin:miter;stroke-opacity:1"/>
<ellipse cx="1261.14" cy="348.915" rx="26.1764" ry="26.1764" style="fill:#FFCC99;fill-rule:evenodd;stroke:#FFCC99;stroke-width:1px;stroke-linecap:butt;stroke-linejoin:miter;stroke-opacity:1"/>
<ellipse cx="2381.73" cy="314.104" rx="26.1764" ry="26.1764" style="fill:#FFFFAA;fill-rule:evenodd;stroke:#FFFFAA;stroke-width:1px;stroke-linecap:butt;stroke-linejoin:miter;stroke-opacity:1"/>
<ellipse cx="2495.08" cy="248.663" rx="26.1764" ry="26.1764" style="fill:#FFFFAA;fill-rule:evenodd;stroke:#FFFFAA;stroke-width:1px;stroke-linecap:butt;stroke-linejoin:miter;stroke-opacity:1"/>
<ellipse cx="2608.42" cy="314.324" rx="26.1764" ry="26.1764" style="fill:#FFFFAA;fill-rule:evenodd;stroke:#FFFFAA;stroke-width:1px;stroke-linecap:butt;stroke-linejoin:miter;stroke-opacity:1"/>
<ellipse cx="2507.86" cy="118.001" rx="36.4584" ry="26.1764" style="fill:#FFFFAA;fill-rule:evenodd;stroke:#FFFFAA;stroke-width:1px;stroke-linecap:butt;stroke-linejoin:miter;stroke-opacity:1"/>
<ellipse cx="2918.48" cy="269.138" rx="26.1764" ry="26.1764" style="fill:#FFFFAA;fill-rule:evenodd;stroke:#FFFFAA;stroke-width:1px;stroke-linecap:butt;stroke-linejoin:miter;stroke-opacity:1"/>
<ellipse cx="3044.85" cy="235.095" rx="26.1764" ry="26.1764" style="fill:#FFFFAA;fill-rule:evenodd;stroke:#FFFFAA;stroke-width:1px;stroke-linecap:butt;stroke-linejoin:miter;stroke-opacity:1"/>
<ellipse cx="3078.56" cy="108.848" rx="26.1764" ry="26.1764" style="fill:#FFFFAA;fill-rule:evenodd;stroke:#FFFFAA;stroke-width:1px;stroke-linecap:butt;stroke-linejoin:miter;stroke-opacity:1"/>
<ellipse cx="3137.52" cy="327.74" rx="26.1764" ry="26.1764" style="fill:#FFCC99;fill-rule:evenodd;stroke:#FFCC99;stroke-width:1px;stroke-linecap:butt;stroke-linejoin:miter;stroke-opacity:1"/>
<ellipse cx="3263.9" cy="293.478" rx="26.1764" ry="26.1764" style="fill:#FFCC99;fill-rule:evenodd;stroke:#FFCC99;stroke-width:1px;stroke-linecap:butt;stroke-linejoin:miter;stroke-opacity:1"/>
<ellipse cx="3297.61" cy="167.01" rx="26.1764" ry="26.1764" style="fill:#FFCC99;fill-rule:evenodd;stroke:#FFCC99;stroke-width:1px;stroke-linecap:butt;stroke-linejoin:miter;stroke-opacity:1"/>
<ellipse cx="3423.99" cy="132.968" rx="26.1764" ry="26.1764" style="fill:#FFCC99;fill-rule:evenodd;stroke:#FFCC99;stroke-width:1px;stroke-linecap:butt;stroke-linejoin:miter;stroke-opacity:1"/>
<ellipse cx="3516.66" cy="225.393" rx="26.1764" ry="26.1764" style="fill:#FFCC99;fill-rule:evenodd;stroke:#FFCC99;stroke-width:1px;stroke-linecap:butt;stroke-linejoin:miter;stroke-opacity:1"/>
<ellipse cx="3650.39" cy="191.276" rx="26.1764" ry="26.1764" style="fill:#FFCC99;fill-rule:evenodd;stroke:#FFCC99;stroke-width:1px;stroke-linecap:butt;stroke-linejoin:miter;stroke-opacity:1"/>
<ellipse cx="3735.7" cy="283.995" rx="26.1764" ry="26.1764" style="fill:#FFCC99;fill-rule:evenodd;stroke:#FFCC99;stroke-width:1px;stroke-linecap:butt;stroke-linejoin:miter;stroke-opacity:1"/>
<ellipse cx="3682.24" cy="65.103" rx="26.1764" ry="26.1764" style="fill:#FFCC99;fill-rule:evenodd;stroke:#FFCC99;stroke-width:1px;stroke-linecap:butt;stroke-linejoin:miter;stroke-opacity:1"/>
<ellipse cx="3482.95" cy="351.86" rx="26.1764" ry="26.1764" style="fill:#FFCC99;fill-rule:evenodd;stroke:#FFCC99;stroke-width:1px;stroke-linecap:butt;stroke-linejoin:miter;stroke-opacity:1"/>
<ellipse cx="3575.62" cy="444.285" rx="26.1764" ry="26.1764" style="fill:#FFCC99;fill-rule:evenodd;stroke:#FFCC99;stroke-width:1px;stroke-linecap:butt;stroke-linejoin:miter;stroke-opacity:1"/>
<ellipse cx="3356.57" cy="385.902" rx="26.1764" ry="26.1764" style="fill:#FFCC99;fill-rule:evenodd;stroke:#FFCC99;stroke-width:1px;stroke-linecap:butt;stroke-linejoin:miter;stroke-opacity:1"/>
<path class="bond-0" d="M 259.583,173.873 L 372.93,239.314" style="fill:none;fill-rule:evenodd;stroke:#000000;stroke-width:2.0px;stroke-linecap:butt;stroke-linejoin:miter;stroke-opacity:1"/>
<path class="bond-1" d="M 359.842,239.314 L 359.842,295.96" style="fill:none;fill-rule:evenodd;stroke:#000000;stroke-width:2.0px;stroke-linecap:butt;stroke-linejoin:miter;stroke-opacity:1"/>
<path class="bond-1" d="M 359.842,295.96 L 359.842,352.605" style="fill:none;fill-rule:evenodd;stroke:#FF0000;stroke-width:2.0px;stroke-linecap:butt;stroke-linejoin:miter;stroke-opacity:1"/>
<path class="bond-1" d="M 386.018,239.314 L 386.018,295.96" style="fill:none;fill-rule:evenodd;stroke:#000000;stroke-width:2.0px;stroke-linecap:butt;stroke-linejoin:miter;stroke-opacity:1"/>
<path class="bond-1" d="M 386.018,295.96 L 386.018,352.605" style="fill:none;fill-rule:evenodd;stroke:#FF0000;stroke-width:2.0px;stroke-linecap:butt;stroke-linejoin:miter;stroke-opacity:1"/>
<path class="bond-2" d="M 372.93,239.314 L 421.468,211.291" style="fill:none;fill-rule:evenodd;stroke:#000000;stroke-width:2.0px;stroke-linecap:butt;stroke-linejoin:miter;stroke-opacity:1"/>
<path class="bond-2" d="M 421.468,211.291 L 470.005,183.268" style="fill:none;fill-rule:evenodd;stroke:#FF0000;stroke-width:2.0px;stroke-linecap:butt;stroke-linejoin:miter;stroke-opacity:1"/>
<path class="bond-3" d="M 502.549,183.268 L 551.087,211.291" style="fill:none;fill-rule:evenodd;stroke:#FF0000;stroke-width:2.0px;stroke-linecap:butt;stroke-linejoin:miter;stroke-opacity:1"/>
<path class="bond-3" d="M 551.087,211.291 L 599.624,239.314" style="fill:none;fill-rule:evenodd;stroke:#000000;stroke-width:2.0px;stroke-linecap:butt;stroke-linejoin:miter;stroke-opacity:1"/>
<path class="bond-4" d="M 599.624,239.314 L 712.972,173.873" style="fill:none;fill-rule:evenodd;stroke:#000000;stroke-width:2.0px;stroke-linecap:butt;stroke-linejoin:miter;stroke-opacity:1"/>
<path class="bond-5" d="M 586.536,239.314 L 586.536,295.96" style="fill:none;fill-rule:evenodd;stroke:#000000;stroke-width:2.0px;stroke-linecap:butt;stroke-linejoin:miter;stroke-opacity:1"/>
<path class="bond-5" d="M 586.536,295.96 L 586.536,352.605" style="fill:none;fill-rule:evenodd;stroke:#FF0000;stroke-width:2.0px;stroke-linecap:butt;stroke-linejoin:miter;stroke-opacity:1"/>
<path class="bond-5" d="M 612.713,239.314 L 612.713,295.96" style="fill:none;fill-rule:evenodd;stroke:#000000;stroke-width:2.0px;stroke-linecap:butt;stroke-linejoin:miter;stroke-opacity:1"/>
<path class="bond-5" d="M 612.713,295.96 L 612.713,352.605" style="fill:none;fill-rule:evenodd;stroke:#FF0000;stroke-width:2.0px;stroke-linecap:butt;stroke-linejoin:miter;stroke-opacity:1"/>
<path class="bond-6" d="M 1075.05,245.822 L 1132.25,242.615" style="fill:none;fill-rule:evenodd;stroke:#FF0000;stroke-width:2.0px;stroke-linecap:butt;stroke-linejoin:miter;stroke-opacity:1"/>
<path class="bond-6" d="M 1132.25,242.615 L 1189.46,239.408" style="fill:none;fill-rule:evenodd;stroke:#000000;stroke-width:2.0px;stroke-linecap:butt;stroke-linejoin:miter;stroke-opacity:1"/>
<path class="bond-7" d="M 1189.46,239.408 L 1248.45,122.576" style="fill:none;fill-rule:evenodd;stroke:#000000;stroke-width:2.0px;stroke-linecap:butt;stroke-linejoin:miter;stroke-opacity:1"/>
<path class="bond-7" d="M 1221.67,233.682 L 1262.97,151.9" style="fill:none;fill-rule:evenodd;stroke:#000000;stroke-width:2.0px;stroke-linecap:butt;stroke-linejoin:miter;stroke-opacity:1;stroke-dasharray:6,6"/>
<path class="bond-16" d="M 1189.46,239.408 L 1261.14,348.915" style="fill:none;fill-rule:evenodd;stroke:#000000;stroke-width:2.0px;stroke-linecap:butt;stroke-linejoin:miter;stroke-opacity:1"/>
<path class="bond-16" d="M 1222.11,241.498 L 1272.29,318.153" style="fill:none;fill-rule:evenodd;stroke:#000000;stroke-width:2.0px;stroke-linecap:butt;stroke-linejoin:miter;stroke-opacity:1;stroke-dasharray:6,6"/>
<path class="bond-8" d="M 1248.45,122.576 L 1379.13,115.25" style="fill:none;fill-rule:evenodd;stroke:#000000;stroke-width:2.0px;stroke-linecap:butt;stroke-linejoin:miter;stroke-opacity:1"/>
<path class="bond-8" d="M 1269.52,147.612 L 1360.99,142.485" style="fill:none;fill-rule:evenodd;stroke:#000000;stroke-width:2.0px;stroke-linecap:butt;stroke-linejoin:miter;stroke-opacity:1;stroke-dasharray:6,6"/>
<path class="bond-9" d="M 1379.13,115.25 L 1450.81,224.757" style="fill:none;fill-rule:evenodd;stroke:#000000;stroke-width:2.0px;stroke-linecap:butt;stroke-linejoin:miter;stroke-opacity:1"/>
<path class="bond-9" d="M 1367.98,146.013 L 1418.16,222.668" style="fill:none;fill-rule:evenodd;stroke:#000000;stroke-width:2.0px;stroke-linecap:butt;stroke-linejoin:miter;stroke-opacity:1;stroke-dasharray:6,6"/>
<path class="bond-10" d="M 1450.81,224.757 L 1509.14,221.487" style="fill:none;fill-rule:evenodd;stroke:#000000;stroke-width:2.0px;stroke-linecap:butt;stroke-linejoin:miter;stroke-opacity:1"/>
<path class="bond-10" d="M 1509.14,221.487 L 1567.48,218.217" style="fill:none;fill-rule:evenodd;stroke:#0000FF;stroke-width:2.0px;stroke-linecap:butt;stroke-linejoin:miter;stroke-opacity:1"/>
<path class="bond-13" d="M 1450.81,224.757 L 1391.82,341.589" style="fill:none;fill-rule:evenodd;stroke:#000000;stroke-width:2.0px;stroke-linecap:butt;stroke-linejoin:miter;stroke-opacity:1"/>
<path class="bond-13" d="M 1418.6,230.483 L 1377.3,312.266" style="fill:none;fill-rule:evenodd;stroke:#000000;stroke-width:2.0px;stroke-linecap:butt;stroke-linejoin:miter;stroke-opacity:1;stroke-dasharray:6,6"/>
<path class="bond-11" d="M 1581.95,242.032 L 1606.5,279.534" style="fill:none;fill-rule:evenodd;stroke:#0000FF;stroke-width:2.0px;stroke-linecap:butt;stroke-linejoin:miter;stroke-opacity:1"/>
<path class="bond-11" d="M 1606.5,279.534 L 1631.05,317.035" style="fill:none;fill-rule:evenodd;stroke:#FF0000;stroke-width:2.0px;stroke-linecap:butt;stroke-linejoin:miter;stroke-opacity:1"/>
<path class="bond-11" d="M 1603.85,227.695 L 1628.4,265.197" style="fill:none;fill-rule:evenodd;stroke:#0000FF;stroke-width:2.0px;stroke-linecap:butt;stroke-linejoin:miter;stroke-opacity:1"/>
<path class="bond-11" d="M 1628.4,265.197 L 1652.95,302.699" style="fill:none;fill-rule:evenodd;stroke:#FF0000;stroke-width:2.0px;stroke-linecap:butt;stroke-linejoin:miter;stroke-opacity:1"/>
<path class="bond-12" d="M 1590.29,199.999 L 1610.96,159.071" style="fill:none;fill-rule:evenodd;stroke:#0000FF;stroke-width:2.0px;stroke-linecap:butt;stroke-linejoin:miter;stroke-opacity:1"/>
<path class="bond-12" d="M 1610.96,159.071 L 1631.62,118.143" style="fill:none;fill-rule:evenodd;stroke:#FF0000;stroke-width:2.0px;stroke-linecap:butt;stroke-linejoin:miter;stroke-opacity:1"/>
<path class="bond-14" d="M 1391.82,341.589 L 1463.5,451.096" style="fill:none;fill-rule:evenodd;stroke:#000000;stroke-width:2.0px;stroke-linecap:butt;stroke-linejoin:miter;stroke-opacity:1"/>
<path class="bond-15" d="M 1391.82,341.589 L 1261.14,348.915" style="fill:none;fill-rule:evenodd;stroke:#000000;stroke-width:2.0px;stroke-linecap:butt;stroke-linejoin:miter;stroke-opacity:1"/>
<path class="bond-15" d="M 1370.75,316.553 L 1279.28,321.681" style="fill:none;fill-rule:evenodd;stroke:#000000;stroke-width:2.0px;stroke-linecap:butt;stroke-linejoin:miter;stroke-opacity:1;stroke-dasharray:6,6"/>
<path class="bond-17" d="M 2381.73,314.104 L 2495.08,248.663" style="fill:none;fill-rule:evenodd;stroke:#000000;stroke-width:2.0px;stroke-linecap:butt;stroke-linejoin:miter;stroke-opacity:1"/>
<path class="bond-18" d="M 2488.53,259.998 L 2537.07,288.021" style="fill:none;fill-rule:evenodd;stroke:#000000;stroke-width:2.0px;stroke-linecap:butt;stroke-linejoin:miter;stroke-opacity:1"/>
<path class="bond-18" d="M 2537.07,288.021 L 2585.61,316.044" style="fill:none;fill-rule:evenodd;stroke:#FF0000;stroke-width:2.0px;stroke-linecap:butt;stroke-linejoin:miter;stroke-opacity:1"/>
<path class="bond-18" d="M 2501.62,237.328 L 2550.16,265.352" style="fill:none;fill-rule:evenodd;stroke:#000000;stroke-width:2.0px;stroke-linecap:butt;stroke-linejoin:miter;stroke-opacity:1"/>
<path class="bond-18" d="M 2550.16,265.352 L 2598.7,293.375" style="fill:none;fill-rule:evenodd;stroke:#FF0000;stroke-width:2.0px;stroke-linecap:butt;stroke-linejoin:miter;stroke-opacity:1"/>
<path class="bond-19" d="M 2495.08,248.663 L 2495.08,192.238" style="fill:none;fill-rule:evenodd;stroke:#000000;stroke-width:2.0px;stroke-linecap:butt;stroke-linejoin:miter;stroke-opacity:1"/>
<path class="bond-19" d="M 2495.08,192.238 L 2495.08,135.813" style="fill:none;fill-rule:evenodd;stroke:#FF0000;stroke-width:2.0px;stroke-linecap:butt;stroke-linejoin:miter;stroke-opacity:1"/>
<path class="bond-20" d="M 2918.48,269.138 L 3044.85,235.095" style="fill:none;fill-rule:evenodd;stroke:#000000;stroke-width:2.0px;stroke-linecap:butt;stroke-linejoin:miter;stroke-opacity:1"/>
<path class="bond-21" d="M 3057.5,238.466 L 3071.95,184.248" style="fill:none;fill-rule:evenodd;stroke:#000000;stroke-width:2.0px;stroke-linecap:butt;stroke-linejoin:miter;stroke-opacity:1"/>
<path class="bond-21" d="M 3071.95,184.248 L 3086.4,130.031" style="fill:none;fill-rule:evenodd;stroke:#FF0000;stroke-width:2.0px;stroke-linecap:butt;stroke-linejoin:miter;stroke-opacity:1"/>
<path class="bond-21" d="M 3032.21,231.724 L 3046.66,177.507" style="fill:none;fill-rule:evenodd;stroke:#000000;stroke-width:2.0px;stroke-linecap:butt;stroke-linejoin:miter;stroke-opacity:1"/>
<path class="bond-21" d="M 3046.66,177.507 L 3061.11,123.289" style="fill:none;fill-rule:evenodd;stroke:#FF0000;stroke-width:2.0px;stroke-linecap:butt;stroke-linejoin:miter;stroke-opacity:1"/>
<path class="bond-22" d="M 3044.85,235.095 L 3083.05,273.193" style="fill:none;fill-rule:evenodd;stroke:#000000;stroke-width:2.0px;stroke-linecap:butt;stroke-linejoin:miter;stroke-opacity:1"/>
<path class="bond-22" d="M 3083.05,273.193 L 3121.25,311.291" style="fill:none;fill-rule:evenodd;stroke:#FF0000;stroke-width:2.0px;stroke-linecap:butt;stroke-linejoin:miter;stroke-opacity:1"/>
<path class="bond-23" d="M 3153.8,323.137 L 3208.85,308.307" style="fill:none;fill-rule:evenodd;stroke:#FF0000;stroke-width:2.0px;stroke-linecap:butt;stroke-linejoin:miter;stroke-opacity:1"/>
<path class="bond-23" d="M 3208.85,308.307 L 3263.9,293.478" style="fill:none;fill-rule:evenodd;stroke:#000000;stroke-width:2.0px;stroke-linecap:butt;stroke-linejoin:miter;stroke-opacity:1"/>
<path class="bond-24" d="M 3263.9,293.478 L 3297.61,167.01" style="fill:none;fill-rule:evenodd;stroke:#000000;stroke-width:2.0px;stroke-linecap:butt;stroke-linejoin:miter;stroke-opacity:1"/>
<path class="bond-24" d="M 3294.25,281.249 L 3317.85,192.722" style="fill:none;fill-rule:evenodd;stroke:#000000;stroke-width:2.0px;stroke-linecap:butt;stroke-linejoin:miter;stroke-opacity:1;stroke-dasharray:6,6"/>
<path class="bond-33" d="M 3263.9,293.478 L 3356.57,385.902" style="fill:none;fill-rule:evenodd;stroke:#000000;stroke-width:2.0px;stroke-linecap:butt;stroke-linejoin:miter;stroke-opacity:1"/>
<path class="bond-33" d="M 3296.29,288.807 L 3361.16,353.505" style="fill:none;fill-rule:evenodd;stroke:#000000;stroke-width:2.0px;stroke-linecap:butt;stroke-linejoin:miter;stroke-opacity:1;stroke-dasharray:6,6"/>
<path class="bond-25" d="M 3297.61,167.01 L 3423.99,132.968" style="fill:none;fill-rule:evenodd;stroke:#000000;stroke-width:2.0px;stroke-linecap:butt;stroke-linejoin:miter;stroke-opacity:1"/>
<path class="bond-25" d="M 3323.37,187.179 L 3411.84,163.35" style="fill:none;fill-rule:evenodd;stroke:#000000;stroke-width:2.0px;stroke-linecap:butt;stroke-linejoin:miter;stroke-opacity:1;stroke-dasharray:6,6"/>
<path class="bond-26" d="M 3423.99,132.968 L 3516.66,225.393" style="fill:none;fill-rule:evenodd;stroke:#000000;stroke-width:2.0px;stroke-linecap:butt;stroke-linejoin:miter;stroke-opacity:1"/>
<path class="bond-26" d="M 3419.4,165.366 L 3484.27,230.063" style="fill:none;fill-rule:evenodd;stroke:#000000;stroke-width:2.0px;stroke-linecap:butt;stroke-linejoin:miter;stroke-opacity:1;stroke-dasharray:6,6"/>
<path class="bond-27" d="M 3516.66,225.393 L 3572.84,210.259" style="fill:none;fill-rule:evenodd;stroke:#000000;stroke-width:2.0px;stroke-linecap:butt;stroke-linejoin:miter;stroke-opacity:1"/>
<path class="bond-27" d="M 3572.84,210.259 L 3629.02,195.125" style="fill:none;fill-rule:evenodd;stroke:#0000FF;stroke-width:2.0px;stroke-linecap:butt;stroke-linejoin:miter;stroke-opacity:1"/>
<path class="bond-30" d="M 3516.66,225.393 L 3482.95,351.86" style="fill:none;fill-rule:evenodd;stroke:#000000;stroke-width:2.0px;stroke-linecap:butt;stroke-linejoin:miter;stroke-opacity:1"/>
<path class="bond-30" d="M 3486.31,237.621 L 3462.71,326.148" style="fill:none;fill-rule:evenodd;stroke:#000000;stroke-width:2.0px;stroke-linecap:butt;stroke-linejoin:miter;stroke-opacity:1;stroke-dasharray:6,6"/>
<path class="bond-28" d="M 3647.8,214.592 L 3679.24,245.949" style="fill:none;fill-rule:evenodd;stroke:#0000FF;stroke-width:2.0px;stroke-linecap:butt;stroke-linejoin:miter;stroke-opacity:1"/>
<path class="bond-28" d="M 3679.24,245.949 L 3710.68,277.307" style="fill:none;fill-rule:evenodd;stroke:#FF0000;stroke-width:2.0px;stroke-linecap:butt;stroke-linejoin:miter;stroke-opacity:1"/>
<path class="bond-28" d="M 3666.29,196.058 L 3697.73,227.415" style="fill:none;fill-rule:evenodd;stroke:#0000FF;stroke-width:2.0px;stroke-linecap:butt;stroke-linejoin:miter;stroke-opacity:1"/>
<path class="bond-28" d="M 3697.73,227.415 L 3729.17,258.773" style="fill:none;fill-rule:evenodd;stroke:#FF0000;stroke-width:2.0px;stroke-linecap:butt;stroke-linejoin:miter;stroke-opacity:1"/>
<path class="bond-29" d="M 3647.68,173.918 L 3659.87,128.191" style="fill:none;fill-rule:evenodd;stroke:#0000FF;stroke-width:2.0px;stroke-linecap:butt;stroke-linejoin:miter;stroke-opacity:1"/>
<path class="bond-29" d="M 3659.87,128.191 L 3672.05,82.4641" style="fill:none;fill-rule:evenodd;stroke:#FF0000;stroke-width:2.0px;stroke-linecap:butt;stroke-linejoin:miter;stroke-opacity:1"/>
<path class="bond-31" d="M 3482.95,351.86 L 3575.62,444.285" style="fill:none;fill-rule:evenodd;stroke:#000000;stroke-width:2.0px;stroke-linecap:butt;stroke-linejoin:miter;stroke-opacity:1"/>
<path class="bond-32" d="M 3482.95,351.86 L 3356.57,385.902" style="fill:none;fill-rule:evenodd;stroke:#000000;stroke-width:2.0px;stroke-linecap:butt;stroke-linejoin:miter;stroke-opacity:1"/>
<path class="bond-32" d="M 3457.18,331.691 L 3368.72,355.521" style="fill:none;fill-rule:evenodd;stroke:#000000;stroke-width:2.0px;stroke-linecap:butt;stroke-linejoin:miter;stroke-opacity:1;stroke-dasharray:6,6"/>
<path class="atom-2" d="M 359.93 370.277 Q 359.93 363.477, 363.29 359.677 Q 366.65 355.877, 372.93 355.877 Q 379.21 355.877, 382.57 359.677 Q 385.93 363.477, 385.93 370.277 Q 385.93 377.157, 382.53 381.077 Q 379.13 384.957, 372.93 384.957 Q 366.69 384.957, 363.29 381.077 Q 359.93 377.197, 359.93 370.277 M 372.93 381.757 Q 377.25 381.757, 379.57 378.877 Q 381.93 375.957, 381.93 370.277 Q 381.93 364.717, 379.57 361.917 Q 377.25 359.077, 372.93 359.077 Q 368.61 359.077, 366.25 361.877 Q 363.93 364.677, 363.93 370.277 Q 363.93 375.997, 366.25 378.877 Q 368.61 381.757, 372.93 381.757 " fill="#FF0000"/>
<path class="atom-3" d="M 473.277 173.953 Q 473.277 167.153, 476.637 163.353 Q 479.997 159.553, 486.277 159.553 Q 492.557 159.553, 495.917 163.353 Q 499.277 167.153, 499.277 173.953 Q 499.277 180.833, 495.877 184.753 Q 492.477 188.633, 486.277 188.633 Q 480.037 188.633, 476.637 184.753 Q 473.277 180.873, 473.277 173.953 M 486.277 185.433 Q 490.597 185.433, 492.917 182.553 Q 495.277 179.633, 495.277 173.953 Q 495.277 168.393, 492.917 165.593 Q 490.597 162.753, 486.277 162.753 Q 481.957 162.753, 479.597 165.553 Q 477.277 168.353, 477.277 173.953 Q 477.277 179.673, 479.597 182.553 Q 481.957 185.433, 486.277 185.433 " fill="#FF0000"/>
<path class="atom-6" d="M 586.624 370.277 Q 586.624 363.477, 589.984 359.677 Q 593.344 355.877, 599.624 355.877 Q 605.904 355.877, 609.264 359.677 Q 612.624 363.477, 612.624 370.277 Q 612.624 377.157, 609.224 381.077 Q 605.824 384.957, 599.624 384.957 Q 593.384 384.957, 589.984 381.077 Q 586.624 377.197, 586.624 370.277 M 599.624 381.757 Q 603.944 381.757, 606.264 378.877 Q 608.624 375.957, 608.624 370.277 Q 608.624 364.717, 606.264 361.917 Q 603.944 359.077, 599.624 359.077 Q 595.304 359.077, 592.944 361.877 Q 590.624 364.677, 590.624 370.277 Q 590.624 375.997, 592.944 378.877 Q 595.304 381.757, 599.624 381.757 " fill="#FF0000"/>
<path class="atom-7" d="M 1021.62 232.734 L 1025.46 232.734 L 1025.46 244.774 L 1039.94 244.774 L 1039.94 232.734 L 1043.78 232.734 L 1043.78 261.054 L 1039.94 261.054 L 1039.94 247.974 L 1025.46 247.974 L 1025.46 261.054 L 1021.62 261.054 L 1021.62 232.734 " fill="#FF0000"/>
<path class="atom-7" d="M 1045.78 246.814 Q 1045.78 240.014, 1049.14 236.214 Q 1052.5 232.414, 1058.78 232.414 Q 1065.06 232.414, 1068.42 236.214 Q 1071.78 240.014, 1071.78 246.814 Q 1071.78 253.694, 1068.38 257.614 Q 1064.98 261.494, 1058.78 261.494 Q 1052.54 261.494, 1049.14 257.614 Q 1045.78 253.734, 1045.78 246.814 M 1058.78 258.294 Q 1063.1 258.294, 1065.42 255.414 Q 1067.78 252.494, 1067.78 246.814 Q 1067.78 241.254, 1065.42 238.454 Q 1063.1 235.614, 1058.78 235.614 Q 1054.46 235.614, 1052.1 238.414 Q 1049.78 241.214, 1049.78 246.814 Q 1049.78 252.534, 1052.1 255.414 Q 1054.46 258.294, 1058.78 258.294 " fill="#FF0000"/>
<path class="atom-12" d="M 1575.23 203.272 L 1584.51 218.272 Q 1585.43 219.752, 1586.91 222.432 Q 1588.39 225.112, 1588.47 225.272 L 1588.47 203.272 L 1592.23 203.272 L 1592.23 231.592 L 1588.35 231.592 L 1578.39 215.192 Q 1577.23 213.272, 1575.99 211.072 Q 1574.79 208.872, 1574.43 208.192 L 1574.43 231.592 L 1570.75 231.592 L 1570.75 203.272 L 1575.23 203.272 " fill="#0000FF"/>
<path class="atom-12" d="M 1594.6 208.376 L 1599.59 208.376 L 1599.59 203.123 L 1601.81 203.123 L 1601.81 208.376 L 1606.93 208.376 L 1606.93 210.277 L 1601.81 210.277 L 1601.81 215.557 L 1599.59 215.557 L 1599.59 210.277 L 1594.6 210.277 L 1594.6 208.376 " fill="#0000FF"/>
<path class="atom-13" d="M 1640.17 327.018 Q 1640.17 320.218, 1643.53 316.418 Q 1646.89 312.618, 1653.17 312.618 Q 1659.45 312.618, 1662.81 316.418 Q 1666.17 320.218, 1666.17 327.018 Q 1666.17 333.898, 1662.77 337.818 Q 1659.37 341.698, 1653.17 341.698 Q 1646.93 341.698, 1643.53 337.818 Q 1640.17 333.938, 1640.17 327.018 M 1653.17 338.498 Q 1657.49 338.498, 1659.81 335.618 Q 1662.17 332.698, 1662.17 327.018 Q 1662.17 321.458, 1659.81 318.658 Q 1657.49 315.818, 1653.17 315.818 Q 1648.85 315.818, 1646.49 318.618 Q 1644.17 321.418, 1644.17 327.018 Q 1644.17 332.738, 1646.49 335.618 Q 1648.85 338.498, 1653.17 338.498 " fill="#FF0000"/>
<path class="atom-14" d="M 1627.48 100.679 Q 1627.48 93.8792, 1630.84 90.0792 Q 1634.2 86.2792, 1640.48 86.2792 Q 1646.76 86.2792, 1650.12 90.0792 Q 1653.48 93.8792, 1653.48 100.679 Q 1653.48 107.559, 1650.08 111.479 Q 1646.68 115.359, 1640.48 115.359 Q 1634.24 115.359, 1630.84 111.479 Q 1627.48 107.599, 1627.48 100.679 M 1640.48 112.159 Q 1644.8 112.159, 1647.12 109.279 Q 1649.48 106.359, 1649.48 100.679 Q 1649.48 95.1192, 1647.12 92.3192 Q 1644.8 89.4792, 1640.48 89.4792 Q 1636.16 89.4792, 1633.8 92.2792 Q 1631.48 95.0792, 1631.48 100.679 Q 1631.48 106.399, 1633.8 109.279 Q 1636.16 112.159, 1640.48 112.159 " fill="#FF0000"/>
<path class="atom-14" d="M 1654.8 90.9016 L 1664.49 90.9016 L 1664.49 93.0136 L 1654.8 93.0136 L 1654.8 90.9016 " fill="#FF0000"/>
<path class="atom-20" d="M 2595.42 314.184 Q 2595.42 307.384, 2598.78 303.584 Q 2602.14 299.784, 2608.42 299.784 Q 2614.7 299.784, 2618.06 303.584 Q 2621.42 307.384, 2621.42 314.184 Q 2621.42 321.064, 2618.02 324.984 Q 2614.62 328.864, 2608.42 328.864 Q 2602.18 328.864, 2598.78 324.984 Q 2595.42 321.104, 2595.42 314.184 M 2608.42 325.664 Q 2612.74 325.664, 2615.06 322.784 Q 2617.42 319.864, 2617.42 314.184 Q 2617.42 308.624, 2615.06 305.824 Q 2612.74 302.984, 2608.42 302.984 Q 2604.1 302.984, 2601.74 305.784 Q 2599.42 308.584, 2599.42 314.184 Q 2599.42 319.904, 2601.74 322.784 Q 2604.1 325.664, 2608.42 325.664 " fill="#FF0000"/>
<path class="atom-21" d="M 2482.08 117.861 Q 2482.08 111.061, 2485.44 107.261 Q 2488.8 103.461, 2495.08 103.461 Q 2501.36 103.461, 2504.72 107.261 Q 2508.08 111.061, 2508.08 117.861 Q 2508.08 124.741, 2504.68 128.661 Q 2501.28 132.541, 2495.08 132.541 Q 2488.84 132.541, 2485.44 128.661 Q 2482.08 124.781, 2482.08 117.861 M 2495.08 129.341 Q 2499.4 129.341, 2501.72 126.461 Q 2504.08 123.541, 2504.08 117.861 Q 2504.08 112.301, 2501.72 109.501 Q 2499.4 106.661, 2495.08 106.661 Q 2490.76 106.661, 2488.4 109.461 Q 2486.08 112.261, 2486.08 117.861 Q 2486.08 123.581, 2488.4 126.461 Q 2490.76 129.341, 2495.08 129.341 " fill="#FF0000"/>
<path class="atom-21" d="M 2511.48 103.781 L 2515.32 103.781 L 2515.32 115.821 L 2529.8 115.821 L 2529.8 103.781 L 2533.64 103.781 L 2533.64 132.101 L 2529.8 132.101 L 2529.8 119.021 L 2515.32 119.021 L 2515.32 132.101 L 2511.48 132.101 L 2511.48 103.781 " fill="#FF0000"/>
<path class="atom-24" d="M 3065.56 108.708 Q 3065.56 101.908, 3068.92 98.1079 Q 3072.28 94.3079, 3078.56 94.3079 Q 3084.84 94.3079, 3088.2 98.1079 Q 3091.56 101.908, 3091.56 108.708 Q 3091.56 115.588, 3088.16 119.508 Q 3084.76 123.388, 3078.56 123.388 Q 3072.32 123.388, 3068.92 119.508 Q 3065.56 115.628, 3065.56 108.708 M 3078.56 120.188 Q 3082.88 120.188, 3085.2 117.308 Q 3087.56 114.388, 3087.56 108.708 Q 3087.56 103.148, 3085.2 100.348 Q 3082.88 97.5079, 3078.56 97.5079 Q 3074.24 97.5079, 3071.88 100.308 Q 3069.56 103.108, 3069.56 108.708 Q 3069.56 114.428, 3071.88 117.308 Q 3074.24 120.188, 3078.56 120.188 " fill="#FF0000"/>
<path class="atom-25" d="M 3124.52 327.6 Q 3124.52 320.8, 3127.88 317 Q 3131.24 313.2, 3137.52 313.2 Q 3143.8 313.2, 3147.16 317 Q 3150.52 320.8, 3150.52 327.6 Q 3150.52 334.48, 3147.12 338.4 Q 3143.72 342.28, 3137.52 342.28 Q 3131.28 342.28, 3127.88 338.4 Q 3124.52 334.52, 3124.52 327.6 M 3137.52 339.08 Q 3141.84 339.08, 3144.16 336.2 Q 3146.52 333.28, 3146.52 327.6 Q 3146.52 322.04, 3144.16 319.24 Q 3141.84 316.4, 3137.52 316.4 Q 3133.2 316.4, 3130.84 319.2 Q 3128.52 322, 3128.52 327.6 Q 3128.52 333.32, 3130.84 336.2 Q 3133.2 339.08, 3137.52 339.08 " fill="#FF0000"/>
<path class="atom-30" d="M 3636.77 177.19 L 3646.05 192.19 Q 3646.97 193.67, 3648.45 196.35 Q 3649.93 199.03, 3650.01 199.19 L 3650.01 177.19 L 3653.77 177.19 L 3653.77 205.51 L 3649.89 205.51 L 3639.93 189.11 Q 3638.77 187.19, 3637.53 184.99 Q 3636.33 182.79, 3635.97 182.11 L 3635.97 205.51 L 3632.29 205.51 L 3632.29 177.19 L 3636.77 177.19 " fill="#0000FF"/>
<path class="atom-30" d="M 3656.15 182.295 L 3661.14 182.295 L 3661.14 177.042 L 3663.36 177.042 L 3663.36 182.295 L 3668.48 182.295 L 3668.48 184.196 L 3663.36 184.196 L 3663.36 189.476 L 3661.14 189.476 L 3661.14 184.196 L 3656.15 184.196 L 3656.15 182.295 " fill="#0000FF"/>
<path class="atom-31" d="M 3722.7 283.855 Q 3722.7 277.055, 3726.06 273.255 Q 3729.42 269.455, 3735.7 269.455 Q 3741.98 269.455, 3745.34 273.255 Q 3748.7 277.055, 3748.7 283.855 Q 3748.7 290.735, 3745.3 294.655 Q 3741.9 298.535, 3735.7 298.535 Q 3729.46 298.535, 3726.06 294.655 Q 3722.7 290.775, 3722.7 283.855 M 3735.7 295.335 Q 3740.02 295.335, 3742.34 292.455 Q 3744.7 289.535, 3744.7 283.855 Q 3744.7 278.295, 3742.34 275.495 Q 3740.02 272.655, 3735.7 272.655 Q 3731.38 272.655, 3729.02 275.455 Q 3726.7 278.255, 3726.7 283.855 Q 3726.7 289.575, 3729.02 292.455 Q 3731.38 295.335, 3735.7 295.335 " fill="#FF0000"/>
<path class="atom-32" d="M 3663.74 64.963 Q 3663.74 58.163, 3667.1 54.363 Q 3670.46 50.563, 3676.74 50.563 Q 3683.02 50.563, 3686.38 54.363 Q 3689.74 58.163, 3689.74 64.963 Q 3689.74 71.843, 3686.34 75.763 Q 3682.94 79.643, 3676.74 79.643 Q 3670.5 79.643, 3667.1 75.763 Q 3663.74 71.883, 3663.74 64.963 M 3676.74 76.443 Q 3681.06 76.443, 3683.38 73.563 Q 3685.74 70.643, 3685.74 64.963 Q 3685.74 59.403, 3683.38 56.603 Q 3681.06 53.763, 3676.74 53.763 Q 3672.42 53.763, 3670.06 56.563 Q 3667.74 59.363, 3667.74 64.963 Q 3667.74 70.683, 3670.06 73.563 Q 3672.42 76.443, 3676.74 76.443 " fill="#FF0000"/>
<path class="atom-32" d="M 3691.06 55.1854 L 3700.75 55.1854 L 3700.75 57.2974 L 3691.06 57.2974 L 3691.06 55.1854 " fill="#FF0000"/>
<path class="note" d="M 245.186 198.285 L 248.286 198.285 L 248.286 187.705 L 244.866 188.765 L 244.406 187.585 L 248.746 185.645 L 250.166 185.885 L 250.166 198.285 L 252.946 198.285 L 252.946 199.885 L 245.186 199.885 L 245.186 198.285 " fill="#000000"/>
<path class="note" d="M 368.2 213.181 Q 368.72 211.841, 369.96 211.101 Q 371.2 210.341, 372.92 210.341 Q 375.06 210.341, 376.26 211.501 Q 377.46 212.661, 377.46 214.721 Q 377.46 216.821, 375.9 218.781 Q 374.36 220.741, 371.16 223.061 L 377.7 223.061 L 377.7 224.661 L 368.16 224.661 L 368.16 223.321 Q 370.8 221.441, 372.36 220.041 Q 373.94 218.641, 374.7 217.381 Q 375.46 216.121, 375.46 214.821 Q 375.46 213.461, 374.78 212.701 Q 374.1 211.941, 372.92 211.941 Q 371.78 211.941, 371.02 212.401 Q 370.26 212.861, 369.72 213.881 L 368.2 213.181 " fill="#000000"/>
<path class="note" d="M 374.97 413.524 Q 376.35 413.924, 377.01 414.824 Q 377.69 415.704, 377.69 417.104 Q 377.69 418.304, 377.09 419.244 Q 376.49 420.164, 375.39 420.684 Q 374.29 421.184, 372.85 421.184 Q 371.33 421.184, 370.19 420.664 Q 369.07 420.124, 368.17 419.044 L 369.31 417.884 Q 370.19 418.844, 370.93 419.224 Q 371.67 419.584, 372.85 419.584 Q 374.13 419.584, 374.91 418.904 Q 375.69 418.204, 375.69 417.084 Q 375.69 415.644, 374.87 415.004 Q 374.07 414.344, 372.33 414.344 L 371.31 414.344 L 371.31 412.904 L 372.21 412.904 Q 373.75 412.884, 374.57 412.224 Q 375.39 411.544, 375.39 410.284 Q 375.39 409.364, 374.71 408.824 Q 374.03 408.264, 372.87 408.264 Q 371.69 408.264, 370.95 408.684 Q 370.23 409.104, 369.67 410.164 L 368.29 409.424 Q 368.79 408.244, 369.99 407.464 Q 371.19 406.664, 372.87 406.664 Q 374.95 406.664, 376.17 407.644 Q 377.39 408.624, 377.39 410.284 Q 377.39 411.424, 376.77 412.244 Q 376.15 413.064, 374.97 413.524 " fill="#000000"/>
<path class="note" d="M 490.027 132.466 L 491.727 132.466 L 491.727 134.066 L 490.027 134.066 L 490.027 137.326 L 488.147 137.326 L 488.147 134.066 L 480.827 134.066 L 480.827 132.806 L 487.027 123.166 L 490.027 123.166 L 490.027 132.466 M 483.147 132.466 L 488.147 132.466 L 488.147 124.446 L 483.147 132.466 " fill="#000000"/>
<path class="note" d="M 600.254 215.821 Q 601.494 215.821, 602.474 216.361 Q 603.454 216.901, 603.994 217.881 Q 604.534 218.861, 604.534 220.101 Q 604.534 221.481, 603.914 222.561 Q 603.314 223.621, 602.234 224.221 Q 601.154 224.821, 599.774 224.821 Q 597.254 224.821, 595.974 223.121 Q 594.714 221.401, 594.714 218.001 Q 594.714 214.241, 596.274 212.301 Q 597.854 210.341, 600.874 210.341 Q 601.754 210.341, 602.494 210.541 Q 603.254 210.741, 603.974 211.161 L 603.194 212.501 Q 602.154 211.941, 600.894 211.941 Q 598.894 211.941, 597.874 213.241 Q 596.854 214.521, 596.734 217.181 Q 597.454 216.521, 598.354 216.181 Q 599.274 215.821, 600.254 215.821 M 599.794 223.181 Q 600.554 223.181, 601.174 222.781 Q 601.814 222.381, 602.174 221.681 Q 602.534 220.981, 602.534 220.121 Q 602.534 218.861, 601.834 218.141 Q 601.134 217.421, 599.894 217.421 Q 599.034 217.421, 598.174 217.781 Q 597.334 218.121, 596.734 218.721 Q 596.814 221.061, 597.554 222.121 Q 598.294 223.181, 599.794 223.181 " fill="#000000"/>
<path class="note" d="M 702.415 153.202 Q 703.655 153.202, 704.675 153.742 Q 705.695 154.262, 706.275 155.262 Q 706.855 156.242, 706.855 157.582 Q 706.855 159.042, 706.135 160.102 Q 705.435 161.142, 704.275 161.682 Q 703.115 162.222, 701.795 162.222 Q 700.495 162.222, 699.295 161.742 Q 698.095 161.262, 697.275 160.342 L 698.475 159.102 Q 699.135 159.822, 700.035 160.222 Q 700.935 160.602, 701.855 160.602 Q 703.115 160.602, 703.975 159.822 Q 704.855 159.042, 704.855 157.622 Q 704.855 156.122, 703.975 155.422 Q 703.115 154.702, 701.735 154.702 Q 700.495 154.702, 699.115 155.242 L 698.015 154.722 L 698.695 147.902 L 705.975 147.902 L 705.775 149.502 L 700.335 149.502 L 699.915 153.702 Q 701.175 153.202, 702.415 153.202 " fill="#000000"/>
<path class="note" d="M 602.344 408.344 L 594.924 408.344 L 594.924 406.744 L 604.324 406.744 L 604.324 408.164 L 598.604 420.904 L 596.684 420.904 L 602.344 408.344 " fill="#000000"/>
<path class="note" d="M 1041.34 285.338 Q 1042.64 285.898, 1043.38 286.738 Q 1044.12 287.558, 1044.12 288.958 Q 1044.12 290.158, 1043.5 291.098 Q 1042.88 292.018, 1041.76 292.538 Q 1040.66 293.038, 1039.2 293.038 Q 1036.84 293.038, 1035.48 291.958 Q 1034.12 290.858, 1034.12 288.958 Q 1034.12 287.798, 1034.72 286.938 Q 1035.32 286.058, 1036.56 285.398 Q 1035.64 284.878, 1035.14 284.118 Q 1034.64 283.338, 1034.64 282.138 Q 1034.64 280.478, 1035.84 279.498 Q 1037.06 278.518, 1039.12 278.518 Q 1041.18 278.518, 1042.38 279.498 Q 1043.6 280.478, 1043.6 282.138 Q 1043.6 283.178, 1043.02 283.958 Q 1042.46 284.718, 1041.34 285.338 M 1039.12 280.018 Q 1037.94 280.018, 1037.28 280.578 Q 1036.64 281.138, 1036.64 282.138 Q 1036.64 282.878, 1037.08 283.378 Q 1037.52 283.858, 1038.14 284.138 Q 1038.78 284.418, 1040 284.838 Q 1040.86 284.238, 1041.22 283.598 Q 1041.6 282.958, 1041.6 282.138 Q 1041.6 281.138, 1040.94 280.578 Q 1040.3 280.018, 1039.12 280.018 M 1039.2 291.538 Q 1040.52 291.538, 1041.32 290.838 Q 1042.12 290.118, 1042.12 288.938 Q 1042.12 288.178, 1041.7 287.698 Q 1041.28 287.218, 1040.64 286.938 Q 1040.02 286.658, 1038.9 286.298 L 1038 285.998 Q 1037 286.598, 1036.56 287.318 Q 1036.12 288.018, 1036.12 288.938 Q 1036.12 290.118, 1036.96 290.838 Q 1037.8 291.538, 1039.2 291.538 " fill="#000000"/>
<path class="note" d="M 1177.36 213.997 Q 1179.88 213.997, 1181.14 215.717 Q 1182.42 217.417, 1182.42 220.817 Q 1182.42 224.577, 1180.84 226.537 Q 1179.28 228.477, 1176.26 228.477 Q 1175.38 228.477, 1174.62 228.277 Q 1173.88 228.077, 1173.16 227.657 L 1173.94 226.317 Q 1174.98 226.877, 1176.24 226.877 Q 1178.24 226.877, 1179.26 225.597 Q 1180.28 224.297, 1180.4 221.637 Q 1179.68 222.297, 1178.76 222.657 Q 1177.86 222.997, 1176.88 222.997 Q 1175.64 222.997, 1174.66 222.457 Q 1173.68 221.917, 1173.14 220.937 Q 1172.6 219.957, 1172.6 218.717 Q 1172.6 217.337, 1173.2 216.277 Q 1173.82 215.197, 1174.9 214.597 Q 1175.98 213.997, 1177.36 213.997 M 1174.6 218.697 Q 1174.6 219.957, 1175.3 220.677 Q 1176 221.397, 1177.24 221.397 Q 1178.1 221.397, 1178.94 221.057 Q 1179.8 220.697, 1180.4 220.097 Q 1180.32 217.757, 1179.58 216.697 Q 1178.84 215.637, 1177.34 215.637 Q 1176.58 215.637, 1175.94 216.037 Q 1175.32 216.437, 1174.96 217.137 Q 1174.6 217.837, 1174.6 218.697 " fill="#000000"/>
<path class="note" d="M 1222.95 109.885 L 1226.05 109.885 L 1226.05 99.3048 L 1222.63 100.365 L 1222.17 99.1848 L 1226.51 97.2448 L 1227.93 97.4848 L 1227.93 109.885 L 1230.71 109.885 L 1230.71 111.485 L 1222.95 111.485 L 1222.95 109.885 " fill="#000000"/>
<path class="note" d="M 1237.11 111.645 Q 1234.51 111.645, 1233.21 109.725 Q 1231.93 107.805, 1231.93 104.385 Q 1231.93 100.965, 1233.21 99.0648 Q 1234.49 97.1648, 1237.11 97.1648 Q 1239.73 97.1648, 1241.01 99.0648 Q 1242.29 100.965, 1242.29 104.385 Q 1242.29 107.805, 1240.99 109.725 Q 1239.71 111.645, 1237.11 111.645 M 1237.11 110.045 Q 1238.65 110.045, 1239.47 108.625 Q 1240.29 107.185, 1240.29 104.385 Q 1240.29 101.605, 1239.47 100.185 Q 1238.65 98.7648, 1237.11 98.7648 Q 1235.59 98.7648, 1234.75 100.185 Q 1233.93 101.605, 1233.93 104.385 Q 1233.93 107.185, 1234.75 108.625 Q 1235.59 110.045, 1237.11 110.045 " fill="#000000"/>
<path class="note" d="M 1376.39 101.298 L 1379.49 101.298 L 1379.49 90.7183 L 1376.07 91.7783 L 1375.61 90.5983 L 1379.95 88.6583 L 1381.37 88.8983 L 1381.37 101.298 L 1384.15 101.298 L 1384.15 102.898 L 1376.39 102.898 L 1376.39 101.298 " fill="#000000"/>
<path class="note" d="M 1386.01 101.298 L 1389.11 101.298 L 1389.11 90.7183 L 1385.69 91.7783 L 1385.23 90.5983 L 1389.57 88.6583 L 1390.99 88.8983 L 1390.99 101.298 L 1393.77 101.298 L 1393.77 102.898 L 1386.01 102.898 L 1386.01 101.298 " fill="#000000"/>
<path class="note" d="M 1457.45 191.373 L 1460.55 191.373 L 1460.55 180.793 L 1457.13 181.853 L 1456.67 180.673 L 1461.01 178.733 L 1462.43 178.973 L 1462.43 191.373 L 1465.21 191.373 L 1465.21 192.973 L 1457.45 192.973 L 1457.45 191.373 " fill="#000000"/>
<path class="note" d="M 1466.25 181.493 Q 1466.77 180.153, 1468.01 179.413 Q 1469.25 178.653, 1470.97 178.653 Q 1473.11 178.653, 1474.31 179.813 Q 1475.51 180.973, 1475.51 183.033 Q 1475.51 185.133, 1473.95 187.093 Q 1472.41 189.053, 1469.21 191.373 L 1475.75 191.373 L 1475.75 192.973 L 1466.21 192.973 L 1466.21 191.633 Q 1468.85 189.753, 1470.41 188.353 Q 1471.99 186.953, 1472.75 185.693 Q 1473.51 184.433, 1473.51 183.133 Q 1473.51 181.773, 1472.83 181.013 Q 1472.15 180.253, 1470.97 180.253 Q 1469.83 180.253, 1469.07 180.713 Q 1468.31 181.173, 1467.77 182.193 L 1466.25 181.493 " fill="#000000"/>
<path class="note" d="M 1548.88 261.936 L 1551.98 261.936 L 1551.98 251.356 L 1548.56 252.416 L 1548.1 251.236 L 1552.44 249.296 L 1553.86 249.536 L 1553.86 261.936 L 1556.64 261.936 L 1556.64 263.536 L 1548.88 263.536 L 1548.88 261.936 " fill="#000000"/>
<path class="note" d="M 1564.28 256.076 Q 1565.66 256.476, 1566.32 257.376 Q 1567 258.256, 1567 259.656 Q 1567 260.856, 1566.4 261.796 Q 1565.8 262.716, 1564.7 263.236 Q 1563.6 263.736, 1562.16 263.736 Q 1560.64 263.736, 1559.5 263.216 Q 1558.38 262.676, 1557.48 261.596 L 1558.62 260.436 Q 1559.5 261.396, 1560.24 261.776 Q 1560.98 262.136, 1562.16 262.136 Q 1563.44 262.136, 1564.22 261.456 Q 1565 260.756, 1565 259.636 Q 1565 258.196, 1564.18 257.556 Q 1563.38 256.896, 1561.64 256.896 L 1560.62 256.896 L 1560.62 255.456 L 1561.52 255.456 Q 1563.06 255.436, 1563.88 254.776 Q 1564.7 254.096, 1564.7 252.836 Q 1564.7 251.916, 1564.02 251.376 Q 1563.34 250.816, 1562.18 250.816 Q 1561 250.816, 1560.26 251.236 Q 1559.54 251.656, 1558.98 252.716 L 1557.6 251.976 Q 1558.1 250.796, 1559.3 250.016 Q 1560.5 249.216, 1562.18 249.216 Q 1564.26 249.216, 1565.48 250.196 Q 1566.7 251.176, 1566.7 252.836 Q 1566.7 253.976, 1566.08 254.796 Q 1565.46 255.616, 1564.28 256.076 " fill="#000000"/>
<path class="note" d="M 1663.55 368.961 L 1666.65 368.961 L 1666.65 358.381 L 1663.23 359.441 L 1662.77 358.261 L 1667.11 356.321 L 1668.53 356.561 L 1668.53 368.961 L 1671.31 368.961 L 1671.31 370.561 L 1663.55 370.561 L 1663.55 368.961 " fill="#000000"/>
<path class="note" d="M 1681.11 365.701 L 1682.81 365.701 L 1682.81 367.301 L 1681.11 367.301 L 1681.11 370.561 L 1679.23 370.561 L 1679.23 367.301 L 1671.91 367.301 L 1671.91 366.041 L 1678.11 356.401 L 1681.11 356.401 L 1681.11 365.701 M 1674.23 365.701 L 1679.23 365.701 L 1679.23 357.681 L 1674.23 365.701 " fill="#000000"/>
<path class="note" d="M 1647.14 67.175 L 1650.24 67.175 L 1650.24 56.595 L 1646.82 57.655 L 1646.36 56.475 L 1650.7 54.535 L 1652.12 54.775 L 1652.12 67.175 L 1654.9 67.175 L 1654.9 68.775 L 1647.14 68.775 L 1647.14 67.175 " fill="#000000"/>
<path class="note" d="M 1660.96 59.915 Q 1662.2 59.915, 1663.22 60.455 Q 1664.24 60.975, 1664.82 61.975 Q 1665.4 62.955, 1665.4 64.295 Q 1665.4 65.755, 1664.68 66.815 Q 1663.98 67.855, 1662.82 68.395 Q 1661.66 68.935, 1660.34 68.935 Q 1659.04 68.935, 1657.84 68.455 Q 1656.64 67.975, 1655.82 67.055 L 1657.02 65.815 Q 1657.68 66.535, 1658.58 66.935 Q 1659.48 67.315, 1660.4 67.315 Q 1661.66 67.315, 1662.52 66.535 Q 1663.4 65.755, 1663.4 64.335 Q 1663.4 62.835, 1662.52 62.135 Q 1661.66 61.415, 1660.28 61.415 Q 1659.04 61.415, 1657.66 61.955 L 1656.56 61.435 L 1657.24 54.615 L 1664.52 54.615 L 1664.32 56.215 L 1658.88 56.215 L 1658.46 60.415 Q 1659.72 59.915, 1660.96 59.915 " fill="#000000"/>
<path class="note" d="M 1368.63 366.622 L 1371.73 366.622 L 1371.73 356.042 L 1368.31 357.102 L 1367.85 355.922 L 1372.19 353.982 L 1373.61 354.222 L 1373.61 366.622 L 1376.39 366.622 L 1376.39 368.222 L 1368.63 368.222 L 1368.63 366.622 " fill="#000000"/>
<path class="note" d="M 1383.29 359.382 Q 1384.53 359.382, 1385.51 359.922 Q 1386.49 360.462, 1387.03 361.442 Q 1387.57 362.422, 1387.57 363.662 Q 1387.57 365.042, 1386.95 366.122 Q 1386.35 367.182, 1385.27 367.782 Q 1384.19 368.382, 1382.81 368.382 Q 1380.29 368.382, 1379.01 366.682 Q 1377.75 364.962, 1377.75 361.562 Q 1377.75 357.802, 1379.31 355.862 Q 1380.89 353.902, 1383.91 353.902 Q 1384.79 353.902, 1385.53 354.102 Q 1386.29 354.302, 1387.01 354.722 L 1386.23 356.062 Q 1385.19 355.502, 1383.93 355.502 Q 1381.93 355.502, 1380.91 356.802 Q 1379.89 358.082, 1379.77 360.742 Q 1380.49 360.082, 1381.39 359.742 Q 1382.31 359.382, 1383.29 359.382 M 1382.83 366.742 Q 1383.59 366.742, 1384.21 366.342 Q 1384.85 365.942, 1385.21 365.242 Q 1385.57 364.542, 1385.57 363.682 Q 1385.57 362.422, 1384.87 361.702 Q 1384.17 360.982, 1382.93 360.982 Q 1382.07 360.982, 1381.21 361.342 Q 1380.37 361.682, 1379.77 362.282 Q 1379.85 364.622, 1380.59 365.682 Q 1381.33 366.742, 1382.83 366.742 " fill="#000000"/>
<path class="note" d="M 1429.08 457.837 L 1432.18 457.837 L 1432.18 447.257 L 1428.76 448.317 L 1428.3 447.137 L 1432.64 445.197 L 1434.06 445.437 L 1434.06 457.837 L 1436.84 457.837 L 1436.84 459.437 L 1429.08 459.437 L 1429.08 457.837 " fill="#000000"/>
<path class="note" d="M 1444.62 446.877 L 1437.2 446.877 L 1437.2 445.277 L 1446.6 445.277 L 1446.6 446.697 L 1440.88 459.437 L 1438.96 459.437 L 1444.62 446.877 " fill="#000000"/>
<path class="note" d="M 1237.93 373.947 L 1241.03 373.947 L 1241.03 363.367 L 1237.61 364.427 L 1237.15 363.247 L 1241.49 361.307 L 1242.91 361.547 L 1242.91 373.947 L 1245.69 373.947 L 1245.69 375.547 L 1237.93 375.547 L 1237.93 373.947 " fill="#000000"/>
<path class="note" d="M 1254.15 368.047 Q 1255.45 368.607, 1256.19 369.447 Q 1256.93 370.267, 1256.93 371.667 Q 1256.93 372.867, 1256.31 373.807 Q 1255.69 374.727, 1254.57 375.247 Q 1253.47 375.747, 1252.01 375.747 Q 1249.65 375.747, 1248.29 374.667 Q 1246.93 373.567, 1246.93 371.667 Q 1246.93 370.507, 1247.53 369.647 Q 1248.13 368.767, 1249.37 368.107 Q 1248.45 367.587, 1247.95 366.827 Q 1247.45 366.047, 1247.45 364.847 Q 1247.45 363.187, 1248.65 362.207 Q 1249.87 361.227, 1251.93 361.227 Q 1253.99 361.227, 1255.19 362.207 Q 1256.41 363.187, 1256.41 364.847 Q 1256.41 365.887, 1255.83 366.667 Q 1255.27 367.427, 1254.15 368.047 M 1251.93 362.727 Q 1250.75 362.727, 1250.09 363.287 Q 1249.45 363.847, 1249.45 364.847 Q 1249.45 365.587, 1249.89 366.087 Q 1250.33 366.567, 1250.95 366.847 Q 1251.59 367.127, 1252.81 367.547 Q 1253.67 366.947, 1254.03 366.307 Q 1254.41 365.667, 1254.41 364.847 Q 1254.41 363.847, 1253.75 363.287 Q 1253.11 362.727, 1251.93 362.727 M 1252.01 374.247 Q 1253.33 374.247, 1254.13 373.547 Q 1254.93 372.827, 1254.93 371.647 Q 1254.93 370.887, 1254.51 370.407 Q 1254.09 369.927, 1253.45 369.647 Q 1252.83 369.367, 1251.71 369.007 L 1250.81 368.707 Q 1249.81 369.307, 1249.37 370.027 Q 1248.93 370.727, 1248.93 371.647 Q 1248.93 372.827, 1249.77 373.547 Q 1250.61 374.247, 1252.01 374.247 " fill="#000000"/>
<path class="note" d="M 2389.15 338.516 L 2392.25 338.516 L 2392.25 327.936 L 2388.83 328.996 L 2388.37 327.816 L 2392.71 325.876 L 2394.13 326.116 L 2394.13 338.516 L 2396.91 338.516 L 2396.91 340.116 L 2389.15 340.116 L 2389.15 338.516 " fill="#000000"/>
<path class="note" d="M 2479.44 225.452 Q 2479.96 224.112, 2481.2 223.372 Q 2482.44 222.612, 2484.16 222.612 Q 2486.3 222.612, 2487.5 223.772 Q 2488.7 224.932, 2488.7 226.992 Q 2488.7 229.092, 2487.14 231.052 Q 2485.6 233.012, 2482.4 235.332 L 2488.94 235.332 L 2488.94 236.932 L 2479.4 236.932 L 2479.4 235.592 Q 2482.04 233.712, 2483.6 232.312 Q 2485.18 230.912, 2485.94 229.652 Q 2486.7 228.392, 2486.7 227.092 Q 2486.7 225.732, 2486.02 224.972 Q 2485.34 224.212, 2484.16 224.212 Q 2483.02 224.212, 2482.26 224.672 Q 2481.5 225.132, 2480.96 226.152 L 2479.44 225.452 " fill="#000000"/>
<path class="note" d="M 2648.25 335.618 Q 2649.63 336.018, 2650.29 336.918 Q 2650.97 337.798, 2650.97 339.198 Q 2650.97 340.398, 2650.37 341.338 Q 2649.77 342.258, 2648.67 342.778 Q 2647.57 343.278, 2646.13 343.278 Q 2644.61 343.278, 2643.47 342.758 Q 2642.35 342.218, 2641.45 341.138 L 2642.59 339.978 Q 2643.47 340.938, 2644.21 341.318 Q 2644.95 341.678, 2646.13 341.678 Q 2647.41 341.678, 2648.19 340.998 Q 2648.97 340.298, 2648.97 339.178 Q 2648.97 337.738, 2648.15 337.098 Q 2647.35 336.438, 2645.61 336.438 L 2644.59 336.438 L 2644.59 334.998 L 2645.49 334.998 Q 2647.03 334.978, 2647.85 334.318 Q 2648.67 333.638, 2648.67 332.378 Q 2648.67 331.458, 2647.99 330.918 Q 2647.31 330.358, 2646.15 330.358 Q 2644.97 330.358, 2644.23 330.778 Q 2643.51 331.198, 2642.95 332.258 L 2641.57 331.518 Q 2642.07 330.338, 2643.27 329.558 Q 2644.47 328.758, 2646.15 328.758 Q 2648.23 328.758, 2649.45 329.738 Q 2650.67 330.718, 2650.67 332.378 Q 2650.67 333.518, 2650.05 334.338 Q 2649.43 335.158, 2648.25 335.618 " fill="#000000"/>
<path class="note" d="M 2498.83 76.3737 L 2500.53 76.3737 L 2500.53 77.9737 L 2498.83 77.9737 L 2498.83 81.2337 L 2496.95 81.2337 L 2496.95 77.9737 L 2489.63 77.9737 L 2489.63 76.7137 L 2495.83 67.0737 L 2498.83 67.0737 L 2498.83 76.3737 M 2491.95 76.3737 L 2496.95 76.3737 L 2496.95 68.3537 L 2491.95 76.3737 " fill="#000000"/>
<path class="note" d="M 2924.5 288.421 Q 2925.74 288.421, 2926.76 288.961 Q 2927.78 289.481, 2928.36 290.481 Q 2928.94 291.461, 2928.94 292.801 Q 2928.94 294.261, 2928.22 295.321 Q 2927.52 296.361, 2926.36 296.901 Q 2925.2 297.441, 2923.88 297.441 Q 2922.58 297.441, 2921.38 296.961 Q 2920.18 296.481, 2919.36 295.561 L 2920.56 294.321 Q 2921.22 295.041, 2922.12 295.441 Q 2923.02 295.821, 2923.94 295.821 Q 2925.2 295.821, 2926.06 295.041 Q 2926.94 294.261, 2926.94 292.841 Q 2926.94 291.341, 2926.06 290.641 Q 2925.2 289.921, 2923.82 289.921 Q 2922.58 289.921, 2921.2 290.461 L 2920.1 289.941 L 2920.78 283.121 L 2928.06 283.121 L 2927.86 284.721 L 2922.42 284.721 L 2922 288.921 Q 2923.26 288.421, 2924.5 288.421 " fill="#000000"/>
<path class="note" d="M 3039.87 254.493 Q 3041.11 254.493, 3042.09 255.033 Q 3043.07 255.573, 3043.61 256.553 Q 3044.15 257.533, 3044.15 258.773 Q 3044.15 260.153, 3043.53 261.233 Q 3042.93 262.293, 3041.85 262.893 Q 3040.77 263.493, 3039.39 263.493 Q 3036.87 263.493, 3035.59 261.793 Q 3034.33 260.073, 3034.33 256.673 Q 3034.33 252.913, 3035.89 250.973 Q 3037.47 249.013, 3040.49 249.013 Q 3041.37 249.013, 3042.11 249.213 Q 3042.87 249.413, 3043.59 249.833 L 3042.81 251.173 Q 3041.77 250.613, 3040.51 250.613 Q 3038.51 250.613, 3037.49 251.913 Q 3036.47 253.193, 3036.35 255.853 Q 3037.07 255.193, 3037.97 254.853 Q 3038.89 254.493, 3039.87 254.493 M 3039.41 261.853 Q 3040.17 261.853, 3040.79 261.453 Q 3041.43 261.053, 3041.79 260.353 Q 3042.15 259.653, 3042.15 258.793 Q 3042.15 257.533, 3041.45 256.813 Q 3040.75 256.093, 3039.51 256.093 Q 3038.65 256.093, 3037.79 256.453 Q 3036.95 256.793, 3036.35 257.393 Q 3036.43 259.733, 3037.17 260.793 Q 3037.91 261.853, 3039.41 261.853 " fill="#000000"/>
<path class="note" d="M 3092.52 60.9921 L 3085.1 60.9921 L 3085.1 59.3921 L 3094.5 59.3921 L 3094.5 60.8121 L 3088.78 73.5521 L 3086.86 73.5521 L 3092.52 60.9921 " fill="#000000"/>
<path class="note" d="M 3128.51 369.336 Q 3129.81 369.896, 3130.55 370.736 Q 3131.29 371.556, 3131.29 372.956 Q 3131.29 374.156, 3130.67 375.096 Q 3130.05 376.016, 3128.93 376.536 Q 3127.83 377.036, 3126.37 377.036 Q 3124.01 377.036, 3122.65 375.956 Q 3121.29 374.856, 3121.29 372.956 Q 3121.29 371.796, 3121.89 370.936 Q 3122.49 370.056, 3123.73 369.396 Q 3122.81 368.876, 3122.31 368.116 Q 3121.81 367.336, 3121.81 366.136 Q 3121.81 364.476, 3123.01 363.496 Q 3124.23 362.516, 3126.29 362.516 Q 3128.35 362.516, 3129.55 363.496 Q 3130.77 364.476, 3130.77 366.136 Q 3130.77 367.176, 3130.19 367.956 Q 3129.63 368.716, 3128.51 369.336 M 3126.29 364.016 Q 3125.11 364.016, 3124.45 364.576 Q 3123.81 365.136, 3123.81 366.136 Q 3123.81 366.876, 3124.25 367.376 Q 3124.69 367.856, 3125.31 368.136 Q 3125.95 368.416, 3127.17 368.836 Q 3128.03 368.236, 3128.39 367.596 Q 3128.77 366.956, 3128.77 366.136 Q 3128.77 365.136, 3128.11 364.576 Q 3127.47 364.016, 3126.29 364.016 M 3126.37 375.536 Q 3127.69 375.536, 3128.49 374.836 Q 3129.29 374.116, 3129.29 372.936 Q 3129.29 372.176, 3128.87 371.696 Q 3128.45 371.216, 3127.81 370.936 Q 3127.19 370.656, 3126.07 370.296 L 3125.17 369.996 Q 3124.17 370.596, 3123.73 371.316 Q 3123.29 372.016, 3123.29 372.936 Q 3123.29 374.116, 3124.13 374.836 Q 3124.97 375.536, 3126.37 375.536 " fill="#000000"/>
<path class="note" d="M 3248.31 270.913 Q 3250.83 270.913, 3252.09 272.633 Q 3253.37 274.333, 3253.37 277.733 Q 3253.37 281.493, 3251.79 283.453 Q 3250.23 285.393, 3247.21 285.393 Q 3246.33 285.393, 3245.57 285.193 Q 3244.83 284.993, 3244.11 284.573 L 3244.89 283.233 Q 3245.93 283.793, 3247.19 283.793 Q 3249.19 283.793, 3250.21 282.513 Q 3251.23 281.213, 3251.35 278.553 Q 3250.63 279.213, 3249.71 279.573 Q 3248.81 279.913, 3247.83 279.913 Q 3246.59 279.913, 3245.61 279.373 Q 3244.63 278.833, 3244.09 277.853 Q 3243.55 276.873, 3243.55 275.633 Q 3243.55 274.253, 3244.15 273.193 Q 3244.77 272.113, 3245.85 271.513 Q 3246.93 270.913, 3248.31 270.913 M 3245.55 275.613 Q 3245.55 276.873, 3246.25 277.593 Q 3246.95 278.313, 3248.19 278.313 Q 3249.05 278.313, 3249.89 277.973 Q 3250.75 277.613, 3251.35 277.013 Q 3251.27 274.673, 3250.53 273.613 Q 3249.79 272.553, 3248.29 272.553 Q 3247.53 272.553, 3246.89 272.953 Q 3246.27 273.353, 3245.91 274.053 Q 3245.55 274.753, 3245.55 275.613 " fill="#000000"/>
<path class="note" d="M 3268.61 157.166 L 3271.71 157.166 L 3271.71 146.586 L 3268.29 147.646 L 3267.83 146.466 L 3272.17 144.526 L 3273.59 144.766 L 3273.59 157.166 L 3276.37 157.166 L 3276.37 158.766 L 3268.61 158.766 L 3268.61 157.166 " fill="#000000"/>
<path class="note" d="M 3282.77 158.926 Q 3280.17 158.926, 3278.87 157.006 Q 3277.59 155.086, 3277.59 151.666 Q 3277.59 148.246, 3278.87 146.346 Q 3280.15 144.446, 3282.77 144.446 Q 3285.39 144.446, 3286.67 146.346 Q 3287.95 148.246, 3287.95 151.666 Q 3287.95 155.086, 3286.65 157.006 Q 3285.37 158.926, 3282.77 158.926 M 3282.77 157.326 Q 3284.31 157.326, 3285.13 155.906 Q 3285.95 154.466, 3285.95 151.666 Q 3285.95 148.886, 3285.13 147.466 Q 3284.31 146.046, 3282.77 146.046 Q 3281.25 146.046, 3280.41 147.466 Q 3279.59 148.886, 3279.59 151.666 Q 3279.59 154.466, 3280.41 155.906 Q 3281.25 157.326, 3282.77 157.326 " fill="#000000"/>
<path class="note" d="M 3417.03 117.41 L 3420.13 117.41 L 3420.13 106.83 L 3416.71 107.89 L 3416.25 106.71 L 3420.59 104.77 L 3422.01 105.01 L 3422.01 117.41 L 3424.79 117.41 L 3424.79 119.01 L 3417.03 119.01 L 3417.03 117.41 " fill="#000000"/>
<path class="note" d="M 3426.65 117.41 L 3429.75 117.41 L 3429.75 106.83 L 3426.33 107.89 L 3425.87 106.71 L 3430.21 104.77 L 3431.63 105.01 L 3431.63 117.41 L 3434.41 117.41 L 3434.41 119.01 L 3426.65 119.01 L 3426.65 117.41 " fill="#000000"/>
<path class="note" d="M 3514.86 188.797 L 3517.96 188.797 L 3517.96 178.217 L 3514.54 179.277 L 3514.08 178.097 L 3518.42 176.157 L 3519.84 176.397 L 3519.84 188.797 L 3522.62 188.797 L 3522.62 190.397 L 3514.86 190.397 L 3514.86 188.797 " fill="#000000"/>
<path class="note" d="M 3523.66 178.917 Q 3524.18 177.577, 3525.42 176.837 Q 3526.66 176.077, 3528.38 176.077 Q 3530.52 176.077, 3531.72 177.237 Q 3532.92 178.397, 3532.92 180.457 Q 3532.92 182.557, 3531.36 184.517 Q 3529.82 186.477, 3526.62 188.797 L 3533.16 188.797 L 3533.16 190.397 L 3523.62 190.397 L 3523.62 189.057 Q 3526.26 187.177, 3527.82 185.777 Q 3529.4 184.377, 3530.16 183.117 Q 3530.92 181.857, 3530.92 180.557 Q 3530.92 179.197, 3530.24 178.437 Q 3529.56 177.677, 3528.38 177.677 Q 3527.24 177.677, 3526.48 178.137 Q 3525.72 178.597, 3525.18 179.617 L 3523.66 178.917 " fill="#000000"/>
<path class="note" d="M 3618.86 239.066 L 3621.96 239.066 L 3621.96 228.486 L 3618.54 229.546 L 3618.08 228.366 L 3622.42 226.426 L 3623.84 226.666 L 3623.84 239.066 L 3626.62 239.066 L 3626.62 240.666 L 3618.86 240.666 L 3618.86 239.066 " fill="#000000"/>
<path class="note" d="M 3634.26 233.206 Q 3635.64 233.606, 3636.3 234.506 Q 3636.98 235.386, 3636.98 236.786 Q 3636.98 237.986, 3636.38 238.926 Q 3635.78 239.846, 3634.68 240.366 Q 3633.58 240.866, 3632.14 240.866 Q 3630.62 240.866, 3629.48 240.346 Q 3628.36 239.806, 3627.46 238.726 L 3628.6 237.566 Q 3629.48 238.526, 3630.22 238.906 Q 3630.96 239.266, 3632.14 239.266 Q 3633.42 239.266, 3634.2 238.586 Q 3634.98 237.886, 3634.98 236.766 Q 3634.98 235.326, 3634.16 234.686 Q 3633.36 234.026, 3631.62 234.026 L 3630.6 234.026 L 3630.6 232.586 L 3631.5 232.586 Q 3633.04 232.566, 3633.86 231.906 Q 3634.68 231.226, 3634.68 229.966 Q 3634.68 229.046, 3634 228.506 Q 3633.32 227.946, 3632.16 227.946 Q 3630.98 227.946, 3630.24 228.366 Q 3629.52 228.786, 3628.96 229.846 L 3627.58 229.106 Q 3628.08 227.926, 3629.28 227.146 Q 3630.48 226.346, 3632.16 226.346 Q 3634.24 226.346, 3635.46 227.326 Q 3636.68 228.306, 3636.68 229.966 Q 3636.68 231.106, 3636.06 231.926 Q 3635.44 232.746, 3634.26 233.206 " fill="#000000"/>
<path class="note" d="M 3753.08 320.103 L 3756.18 320.103 L 3756.18 309.523 L 3752.76 310.583 L 3752.3 309.403 L 3756.64 307.463 L 3758.06 307.703 L 3758.06 320.103 L 3760.84 320.103 L 3760.84 321.703 L 3753.08 321.703 L 3753.08 320.103 " fill="#000000"/>
<path class="note" d="M 3770.64 316.843 L 3772.34 316.843 L 3772.34 318.443 L 3770.64 318.443 L 3770.64 321.703 L 3768.76 321.703 L 3768.76 318.443 L 3761.44 318.443 L 3761.44 317.183 L 3767.64 307.543 L 3770.64 307.543 L 3770.64 316.843 M 3763.76 316.843 L 3768.76 316.843 L 3768.76 308.823 L 3763.76 316.843 " fill="#000000"/>
<path class="note" d="M 3674.97 28.2473 L 3678.07 28.2473 L 3678.07 17.6673 L 3674.65 18.7273 L 3674.19 17.5473 L 3678.53 15.6073 L 3679.95 15.8473 L 3679.95 28.2473 L 3682.73 28.2473 L 3682.73 29.8473 L 3674.97 29.8473 L 3674.97 28.2473 " fill="#000000"/>
<path class="note" d="M 3688.79 20.9873 Q 3690.03 20.9873, 3691.05 21.5273 Q 3692.07 22.0473, 3692.65 23.0473 Q 3693.23 24.0273, 3693.23 25.3673 Q 3693.23 26.8273, 3692.51 27.8873 Q 3691.81 28.9273, 3690.65 29.4673 Q 3689.49 30.0073, 3688.17 30.0073 Q 3686.87 30.0073, 3685.67 29.5273 Q 3684.47 29.0473, 3683.65 28.1273 L 3684.85 26.8873 Q 3685.51 27.6073, 3686.41 28.0073 Q 3687.31 28.3873, 3688.23 28.3873 Q 3689.49 28.3873, 3690.35 27.6073 Q 3691.23 26.8273, 3691.23 25.4073 Q 3691.23 23.9073, 3690.35 23.2073 Q 3689.49 22.4873, 3688.11 22.4873 Q 3686.87 22.4873, 3685.49 23.0273 L 3684.39 22.5073 L 3685.07 15.6873 L 3692.35 15.6873 L 3692.15 17.2873 L 3686.71 17.2873 L 3686.29 21.4873 Q 3687.55 20.9873, 3688.79 20.9873 " fill="#000000"/>
<path class="note" d="M 3463.98 378.498 L 3467.08 378.498 L 3467.08 367.918 L 3463.66 368.978 L 3463.2 367.798 L 3467.54 365.858 L 3468.96 366.098 L 3468.96 378.498 L 3471.74 378.498 L 3471.74 380.098 L 3463.98 380.098 L 3463.98 378.498 " fill="#000000"/>
<path class="note" d="M 3478.64 371.258 Q 3479.88 371.258, 3480.86 371.798 Q 3481.84 372.338, 3482.38 373.318 Q 3482.92 374.298, 3482.92 375.538 Q 3482.92 376.918, 3482.3 377.998 Q 3481.7 379.058, 3480.62 379.658 Q 3479.54 380.258, 3478.16 380.258 Q 3475.64 380.258, 3474.36 378.558 Q 3473.1 376.838, 3473.1 373.438 Q 3473.1 369.678, 3474.66 367.738 Q 3476.24 365.778, 3479.26 365.778 Q 3480.14 365.778, 3480.88 365.978 Q 3481.64 366.178, 3482.36 366.598 L 3481.58 367.938 Q 3480.54 367.378, 3479.28 367.378 Q 3477.28 367.378, 3476.26 368.678 Q 3475.24 369.958, 3475.12 372.618 Q 3475.84 371.958, 3476.74 371.618 Q 3477.66 371.258, 3478.64 371.258 M 3478.18 378.618 Q 3478.94 378.618, 3479.56 378.218 Q 3480.2 377.818, 3480.56 377.118 Q 3480.92 376.418, 3480.92 375.558 Q 3480.92 374.298, 3480.22 373.578 Q 3479.52 372.858, 3478.28 372.858 Q 3477.42 372.858, 3476.56 373.218 Q 3475.72 373.558, 3475.12 374.158 Q 3475.2 376.498, 3475.94 377.558 Q 3476.68 378.618, 3478.18 378.618 " fill="#000000"/>
<path class="note" d="M 3541.92 455.479 L 3545.02 455.479 L 3545.02 444.899 L 3541.6 445.959 L 3541.14 444.779 L 3545.48 442.839 L 3546.9 443.079 L 3546.9 455.479 L 3549.68 455.479 L 3549.68 457.079 L 3541.92 457.079 L 3541.92 455.479 " fill="#000000"/>
<path class="note" d="M 3557.46 444.519 L 3550.04 444.519 L 3550.04 442.919 L 3559.44 442.919 L 3559.44 444.339 L 3553.72 457.079 L 3551.8 457.079 L 3557.46 444.519 " fill="#000000"/>
<path class="note" d="M 3337.57 412.54 L 3340.67 412.54 L 3340.67 401.96 L 3337.25 403.02 L 3336.79 401.84 L 3341.13 399.9 L 3342.55 400.14 L 3342.55 412.54 L 3345.33 412.54 L 3345.33 414.14 L 3337.57 414.14 L 3337.57 412.54 " fill="#000000"/>
<path class="note" d="M 3353.79 406.64 Q 3355.09 407.2, 3355.83 408.04 Q 3356.57 408.86, 3356.57 410.26 Q 3356.57 411.46, 3355.95 412.4 Q 3355.33 413.32, 3354.21 413.84 Q 3353.11 414.34, 3351.65 414.34 Q 3349.29 414.34, 3347.93 413.26 Q 3346.57 412.16, 3346.57 410.26 Q 3346.57 409.1, 3347.17 408.24 Q 3347.77 407.36, 3349.01 406.7 Q 3348.09 406.18, 3347.59 405.42 Q 3347.09 404.64, 3347.09 403.44 Q 3347.09 401.78, 3348.29 400.8 Q 3349.51 399.82, 3351.57 399.82 Q 3353.63 399.82, 3354.83 400.8 Q 3356.05 401.78, 3356.05 403.44 Q 3356.05 404.48, 3355.47 405.26 Q 3354.91 406.02, 3353.79 406.64 M 3351.57 401.32 Q 3350.39 401.32, 3349.73 401.88 Q 3349.09 402.44, 3349.09 403.44 Q 3349.09 404.18, 3349.53 404.68 Q 3349.97 405.16, 3350.59 405.44 Q 3351.23 405.72, 3352.45 406.14 Q 3353.31 405.54, 3353.67 404.9 Q 3354.05 404.26, 3354.05 403.44 Q 3354.05 402.44, 3353.39 401.88 Q 3352.75 401.32, 3351.57 401.32 M 3351.65 412.84 Q 3352.97 412.84, 3353.77 412.14 Q 3354.57 411.42, 3354.57 410.24 Q 3354.57 409.48, 3354.15 409 Q 3353.73 408.52, 3353.09 408.24 Q 3352.47 407.96, 3351.35 407.6 L 3350.45 407.3 Q 3349.45 407.9, 3349.01 408.62 Q 3348.57 409.32, 3348.57 410.24 Q 3348.57 411.42, 3349.41 412.14 Q 3350.25 412.84, 3351.65 412.84 " fill="#000000"/>
<path d="M 857.986 255.659 L 864.034 255.659 L 864.034 249.291 L 866.722 249.291 L 866.722 255.659 L 872.93 255.659 L 872.93 257.963 L 866.722 257.963 L 866.722 264.363 L 864.034 264.363 L 864.034 257.963 L 857.986 257.963 L 857.986 255.659 " fill="#000000"/>
<path d="M 2758.52 255.659 L 2764.57 255.659 L 2764.57 249.291 L 2767.25 249.291 L 2767.25 255.659 L 2773.46 255.659 L 2773.46 257.963 L 2767.25 257.963 L 2767.25 264.363 L 2764.57 264.363 L 2764.57 257.963 L 2758.52 257.963 L 2758.52 255.659 " fill="#000000"/>
<path d="M 1838.9,257.963 L 2187.92,257.963" style="fill:none;fill-rule:evenodd;stroke:#000000;stroke-width:2.0px;stroke-linecap:butt;stroke-linejoin:miter;stroke-opacity:1"/>
<path d="M 2187.92,257.963 L 2172.81,249.238" style="fill:none;fill-rule:evenodd;stroke:#000000;stroke-width:2.0px;stroke-linecap:butt;stroke-linejoin:miter;stroke-opacity:1"/>
<path d="M 2187.92,257.963 L 2172.81,266.689" style="fill:none;fill-rule:evenodd;stroke:#000000;stroke-width:2.0px;stroke-linecap:butt;stroke-linejoin:miter;stroke-opacity:1"/>
</svg>