<svg xmlns="http://www.w3.org/2000/svg" xmlns:rdkit="http://www.rdkit.org/xml" xmlns:xlink="http://www.w3.org/1999/xlink" version="1.1" baseProfile="full" xml:space="preserve" width="4000px" height="500px" viewBox="0 0 4000 500">
<!-- END OF HEADER -->
<rect style="opacity:1.0;fill:#FFFFFF;stroke:none" width="4000" height="500" x="0" y="0"> </rect>
<path d="M 832.793,223.767 L 909.98,268.331" style="fill:none;fill-rule:evenodd;stroke:#FFFFAA;stroke-width:19.0px;stroke-linecap:butt;stroke-linejoin:miter;stroke-opacity:1"/>
<path d="M 909.98,268.331 L 909.98,357.459" style="fill:none;fill-rule:evenodd;stroke:#FFFFAA;stroke-width:19.0px;stroke-linecap:butt;stroke-linejoin:miter;stroke-opacity:1"/>
<path d="M 909.98,268.331 L 987.168,223.767" style="fill:none;fill-rule:evenodd;stroke:#FFFFAA;stroke-width:19.0px;stroke-linecap:butt;stroke-linejoin:miter;stroke-opacity:1"/>
<path d="M 987.168,223.767 L 1064.35,268.331" style="fill:none;fill-rule:evenodd;stroke:#FFFFAA;stroke-width:19.0px;stroke-linecap:butt;stroke-linejoin:miter;stroke-opacity:1"/>
<path d="M 1064.35,268.331 L 1141.54,223.767" style="fill:none;fill-rule:evenodd;stroke:#FFFFAA;stroke-width:19.0px;stroke-linecap:butt;stroke-linejoin:miter;stroke-opacity:1"/>
<path d="M 1064.35,268.331 L 1064.35,357.459" style="fill:none;fill-rule:evenodd;stroke:#FFFFAA;stroke-width:19.0px;stroke-linecap:butt;stroke-linejoin:miter;stroke-opacity:1"/>
<path d="M 1365.05,232.6 L 1421.56,301.524" style="fill:none;fill-rule:evenodd;stroke:#FFCC99;stroke-width:19.0px;stroke-linecap:butt;stroke-linejoin:miter;stroke-opacity:1"/>
<path d="M 1421.56,301.524 L 1509.51,287.049" style="fill:none;fill-rule:evenodd;stroke:#FFCC99;stroke-width:19.0px;stroke-linecap:butt;stroke-linejoin:miter;stroke-opacity:1"/>
<path d="M 1509.51,287.049 L 1540.94,203.648" style="fill:none;fill-rule:evenodd;stroke:#FFCC99;stroke-width:19.0px;stroke-linecap:butt;stroke-linejoin:miter;stroke-opacity:1"/>
<path d="M 1509.51,287.049 L 1566.01,355.973" style="fill:none;fill-rule:evenodd;stroke:#FFCC99;stroke-width:19.0px;stroke-linecap:butt;stroke-linejoin:miter;stroke-opacity:1"/>
<path d="M 1540.94,203.648 L 1628.89,189.172" style="fill:none;fill-rule:evenodd;stroke:#FFCC99;stroke-width:19.0px;stroke-linecap:butt;stroke-linejoin:miter;stroke-opacity:1"/>
<path d="M 1628.89,189.172 L 1685.4,258.097" style="fill:none;fill-rule:evenodd;stroke:#FFCC99;stroke-width:19.0px;stroke-linecap:butt;stroke-linejoin:miter;stroke-opacity:1"/>
<path d="M 1685.4,258.097 L 1773.34,243.621" style="fill:none;fill-rule:evenodd;stroke:#FFCC99;stroke-width:19.0px;stroke-linecap:butt;stroke-linejoin:miter;stroke-opacity:1"/>
<path d="M 1685.4,258.097 L 1653.96,341.497" style="fill:none;fill-rule:evenodd;stroke:#FFCC99;stroke-width:19.0px;stroke-linecap:butt;stroke-linejoin:miter;stroke-opacity:1"/>
<path d="M 1773.34,243.621 L 1829.85,312.546" style="fill:none;fill-rule:evenodd;stroke:#FFCC99;stroke-width:19.0px;stroke-linecap:butt;stroke-linejoin:miter;stroke-opacity:1"/>
<path d="M 1773.34,243.621 L 1804.78,160.221" style="fill:none;fill-rule:evenodd;stroke:#FFCC99;stroke-width:19.0px;stroke-linecap:butt;stroke-linejoin:miter;stroke-opacity:1"/>
<path d="M 1653.96,341.497 L 1710.47,410.422" style="fill:none;fill-rule:evenodd;stroke:#FFCC99;stroke-width:19.0px;stroke-linecap:butt;stroke-linejoin:miter;stroke-opacity:1"/>
<path d="M 1653.96,341.497 L 1566.01,355.973" style="fill:none;fill-rule:evenodd;stroke:#FFCC99;stroke-width:19.0px;stroke-linecap:butt;stroke-linejoin:miter;stroke-opacity:1"/>
<path d="M 2324.27,319.262 L 2401.46,274.697" style="fill:none;fill-rule:evenodd;stroke:#FFFFAA;stroke-width:19.0px;stroke-linecap:butt;stroke-linejoin:miter;stroke-opacity:1"/>
<path d="M 2401.46,274.697 L 2478.65,319.262" style="fill:none;fill-rule:evenodd;stroke:#FFFFAA;stroke-width:19.0px;stroke-linecap:butt;stroke-linejoin:miter;stroke-opacity:1"/>
<path d="M 2401.46,274.697 L 2401.46,185.569" style="fill:none;fill-rule:evenodd;stroke:#FFFFAA;stroke-width:19.0px;stroke-linecap:butt;stroke-linejoin:miter;stroke-opacity:1"/>
<path d="M 2689.79,309.323 L 2770.71,346.68" style="fill:none;fill-rule:evenodd;stroke:#FFCC99;stroke-width:19.0px;stroke-linecap:butt;stroke-linejoin:miter;stroke-opacity:1"/>
<path d="M 2770.71,346.68 L 2843.52,295.278" style="fill:none;fill-rule:evenodd;stroke:#FFCC99;stroke-width:19.0px;stroke-linecap:butt;stroke-linejoin:miter;stroke-opacity:1"/>
<path d="M 2843.52,295.278 L 2835.41,206.519" style="fill:none;fill-rule:evenodd;stroke:#FFCC99;stroke-width:19.0px;stroke-linecap:butt;stroke-linejoin:miter;stroke-opacity:1"/>
<path d="M 2843.52,295.278 L 2924.44,332.634" style="fill:none;fill-rule:evenodd;stroke:#FFCC99;stroke-width:19.0px;stroke-linecap:butt;stroke-linejoin:miter;stroke-opacity:1"/>
<path d="M 2835.41,206.519 L 2908.22,155.117" style="fill:none;fill-rule:evenodd;stroke:#FFCC99;stroke-width:19.0px;stroke-linecap:butt;stroke-linejoin:miter;stroke-opacity:1"/>
<path d="M 2908.22,155.117 L 2989.15,192.474" style="fill:none;fill-rule:evenodd;stroke:#FFCC99;stroke-width:19.0px;stroke-linecap:butt;stroke-linejoin:miter;stroke-opacity:1"/>
<path d="M 2989.15,192.474 L 3061.96,141.072" style="fill:none;fill-rule:evenodd;stroke:#FFCC99;stroke-width:19.0px;stroke-linecap:butt;stroke-linejoin:miter;stroke-opacity:1"/>
<path d="M 2989.15,192.474 L 2997.25,281.232" style="fill:none;fill-rule:evenodd;stroke:#FFCC99;stroke-width:19.0px;stroke-linecap:butt;stroke-linejoin:miter;stroke-opacity:1"/>
<path d="M 3061.96,141.072 L 3142.88,178.429" style="fill:none;fill-rule:evenodd;stroke:#FFCC99;stroke-width:19.0px;stroke-linecap:butt;stroke-linejoin:miter;stroke-opacity:1"/>
<path d="M 3061.96,141.072 L 3053.85,52.3134" style="fill:none;fill-rule:evenodd;stroke:#FFCC99;stroke-width:19.0px;stroke-linecap:butt;stroke-linejoin:miter;stroke-opacity:1"/>
<path d="M 2997.25,281.232 L 3078.18,318.589" style="fill:none;fill-rule:evenodd;stroke:#FFCC99;stroke-width:19.0px;stroke-linecap:butt;stroke-linejoin:miter;stroke-opacity:1"/>
<path d="M 2997.25,281.232 L 2924.44,332.634" style="fill:none;fill-rule:evenodd;stroke:#FFCC99;stroke-width:19.0px;stroke-linecap:butt;stroke-linejoin:miter;stroke-opacity:1"/>
<path d="M 3086.29,407.348 L 3167.21,444.704" style="fill:none;fill-rule:evenodd;stroke:#FFFFAA;stroke-width:19.0px;stroke-linecap:butt;stroke-linejoin:miter;stroke-opacity:1"/>
<path d="M 3086.29,407.348 L 3013.47,458.75" style="fill:none;fill-rule:evenodd;stroke:#FFFFAA;stroke-width:19.0px;stroke-linecap:butt;stroke-linejoin:miter;stroke-opacity:1"/>
<ellipse cx="832.793" cy="223.767" rx="17.8256" ry="17.8256" style="fill:#FFFFAA;fill-rule:evenodd;stroke:#FFFFAA;stroke-width:1px;stroke-linecap:butt;stroke-linejoin:miter;stroke-opacity:1"/>
<ellipse cx="909.98" cy="268.331" rx="17.8256" ry="17.8256" style="fill:#FFFFAA;fill-rule:evenodd;stroke:#FFFFAA;stroke-width:1px;stroke-linecap:butt;stroke-linejoin:miter;stroke-opacity:1"/>
<ellipse cx="909.98" cy="357.655" rx="17.8256" ry="18.3271" style="fill:#FFFFAA;fill-rule:evenodd;stroke:#FFFFAA;stroke-width:1px;stroke-linecap:butt;stroke-linejoin:miter;stroke-opacity:1"/>
<ellipse cx="987.168" cy="223.963" rx="17.8256" ry="18.3271" style="fill:#FFFFAA;fill-rule:evenodd;stroke:#FFFFAA;stroke-width:1px;stroke-linecap:butt;stroke-linejoin:miter;stroke-opacity:1"/>
<ellipse cx="1064.35" cy="268.331" rx="17.8256" ry="17.8256" style="fill:#FFFFAA;fill-rule:evenodd;stroke:#FFFFAA;stroke-width:1px;stroke-linecap:butt;stroke-linejoin:miter;stroke-opacity:1"/>
<ellipse cx="1141.54" cy="223.767" rx="17.8256" ry="17.8256" style="fill:#FFFFAA;fill-rule:evenodd;stroke:#FFFFAA;stroke-width:1px;stroke-linecap:butt;stroke-linejoin:miter;stroke-opacity:1"/>
<ellipse cx="1064.35" cy="357.655" rx="17.8256" ry="18.3271" style="fill:#FFFFAA;fill-rule:evenodd;stroke:#FFFFAA;stroke-width:1px;stroke-linecap:butt;stroke-linejoin:miter;stroke-opacity:1"/>
<ellipse cx="1365.05" cy="232.6" rx="17.8256" ry="17.8256" style="fill:#FFCC99;fill-rule:evenodd;stroke:#FFCC99;stroke-width:1px;stroke-linecap:butt;stroke-linejoin:miter;stroke-opacity:1"/>
<ellipse cx="1421.56" cy="301.72" rx="17.8256" ry="18.3271" style="fill:#FFCC99;fill-rule:evenodd;stroke:#FFCC99;stroke-width:1px;stroke-linecap:butt;stroke-linejoin:miter;stroke-opacity:1"/>
<ellipse cx="1509.51" cy="287.049" rx="17.8256" ry="17.8256" style="fill:#FFCC99;fill-rule:evenodd;stroke:#FFCC99;stroke-width:1px;stroke-linecap:butt;stroke-linejoin:miter;stroke-opacity:1"/>
<ellipse cx="1540.94" cy="203.648" rx="17.8256" ry="17.8256" style="fill:#FFCC99;fill-rule:evenodd;stroke:#FFCC99;stroke-width:1px;stroke-linecap:butt;stroke-linejoin:miter;stroke-opacity:1"/>
<ellipse cx="1628.89" cy="189.172" rx="17.8256" ry="17.8256" style="fill:#FFCC99;fill-rule:evenodd;stroke:#FFCC99;stroke-width:1px;stroke-linecap:butt;stroke-linejoin:miter;stroke-opacity:1"/>
<ellipse cx="1685.4" cy="258.097" rx="17.8256" ry="17.8256" style="fill:#FFCC99;fill-rule:evenodd;stroke:#FFCC99;stroke-width:1px;stroke-linecap:butt;stroke-linejoin:miter;stroke-opacity:1"/>
<ellipse cx="1779.89" cy="243.555" rx="22.8048" ry="17.9419" style="fill:#FFCC99;fill-rule:evenodd;stroke:#FFCC99;stroke-width:1px;stroke-linecap:butt;stroke-linejoin:miter;stroke-opacity:1"/>
<ellipse cx="1829.85" cy="312.742" rx="17.8256" ry="18.3271" style="fill:#FFCC99;fill-rule:evenodd;stroke:#FFCC99;stroke-width:1px;stroke-linecap:butt;stroke-linejoin:miter;stroke-opacity:1"/>
<ellipse cx="1809.68" cy="160.417" rx="23.3241" ry="18.3271" style="fill:#FFCC99;fill-rule:evenodd;stroke:#FFCC99;stroke-width:1px;stroke-linecap:butt;stroke-linejoin:miter;stroke-opacity:1"/>
<ellipse cx="1653.96" cy="341.497" rx="17.8256" ry="17.8256" style="fill:#FFCC99;fill-rule:evenodd;stroke:#FFCC99;stroke-width:1px;stroke-linecap:butt;stroke-linejoin:miter;stroke-opacity:1"/>
<ellipse cx="1728.06" cy="416.732" rx="38.4144" ry="26.7722" style="fill:#FFCC99;fill-rule:evenodd;stroke:#FFCC99;stroke-width:1px;stroke-linecap:butt;stroke-linejoin:miter;stroke-opacity:1"/>
<ellipse cx="1566.01" cy="355.973" rx="17.8256" ry="17.8256" style="fill:#FFCC99;fill-rule:evenodd;stroke:#FFCC99;stroke-width:1px;stroke-linecap:butt;stroke-linejoin:miter;stroke-opacity:1"/>
<ellipse cx="2324.27" cy="319.262" rx="17.8256" ry="17.8256" style="fill:#FFFFAA;fill-rule:evenodd;stroke:#FFFFAA;stroke-width:1px;stroke-linecap:butt;stroke-linejoin:miter;stroke-opacity:1"/>
<ellipse cx="2401.46" cy="274.697" rx="17.8256" ry="17.8256" style="fill:#FFFFAA;fill-rule:evenodd;stroke:#FFFFAA;stroke-width:1px;stroke-linecap:butt;stroke-linejoin:miter;stroke-opacity:1"/>
<ellipse cx="2478.65" cy="319.458" rx="17.8256" ry="18.3271" style="fill:#FFFFAA;fill-rule:evenodd;stroke:#FFFFAA;stroke-width:1px;stroke-linecap:butt;stroke-linejoin:miter;stroke-opacity:1"/>
<ellipse cx="2412.85" cy="185.765" rx="32.4947" ry="18.3271" style="fill:#FFFFAA;fill-rule:evenodd;stroke:#FFFFAA;stroke-width:1px;stroke-linecap:butt;stroke-linejoin:miter;stroke-opacity:1"/>
<ellipse cx="2689.79" cy="309.323" rx="17.8256" ry="17.8256" style="fill:#FFCC99;fill-rule:evenodd;stroke:#FFCC99;stroke-width:1px;stroke-linecap:butt;stroke-linejoin:miter;stroke-opacity:1"/>
<ellipse cx="2770.71" cy="346.876" rx="17.8256" ry="18.3271" style="fill:#FFCC99;fill-rule:evenodd;stroke:#FFCC99;stroke-width:1px;stroke-linecap:butt;stroke-linejoin:miter;stroke-opacity:1"/>
<ellipse cx="2843.52" cy="295.278" rx="17.8256" ry="17.8256" style="fill:#FFCC99;fill-rule:evenodd;stroke:#FFCC99;stroke-width:1px;stroke-linecap:butt;stroke-linejoin:miter;stroke-opacity:1"/>
<ellipse cx="2835.41" cy="206.519" rx="17.8256" ry="17.8256" style="fill:#FFCC99;fill-rule:evenodd;stroke:#FFCC99;stroke-width:1px;stroke-linecap:butt;stroke-linejoin:miter;stroke-opacity:1"/>
<ellipse cx="2908.22" cy="155.117" rx="17.8256" ry="17.8256" style="fill:#FFCC99;fill-rule:evenodd;stroke:#FFCC99;stroke-width:1px;stroke-linecap:butt;stroke-linejoin:miter;stroke-opacity:1"/>
<ellipse cx="2989.15" cy="192.474" rx="17.8256" ry="17.8256" style="fill:#FFCC99;fill-rule:evenodd;stroke:#FFCC99;stroke-width:1px;stroke-linecap:butt;stroke-linejoin:miter;stroke-opacity:1"/>
<ellipse cx="3068.51" cy="141.006" rx="22.8048" ry="17.9419" style="fill:#FFCC99;fill-rule:evenodd;stroke:#FFCC99;stroke-width:1px;stroke-linecap:butt;stroke-linejoin:miter;stroke-opacity:1"/>
<ellipse cx="3142.88" cy="178.625" rx="17.8256" ry="18.3271" style="fill:#FFCC99;fill-rule:evenodd;stroke:#FFCC99;stroke-width:1px;stroke-linecap:butt;stroke-linejoin:miter;stroke-opacity:1"/>
<ellipse cx="3058.75" cy="52.5095" rx="23.3241" ry="18.3271" style="fill:#FFCC99;fill-rule:evenodd;stroke:#FFCC99;stroke-width:1px;stroke-linecap:butt;stroke-linejoin:miter;stroke-opacity:1"/>
<ellipse cx="2997.25" cy="281.232" rx="17.8256" ry="17.8256" style="fill:#FFCC99;fill-rule:evenodd;stroke:#FFCC99;stroke-width:1px;stroke-linecap:butt;stroke-linejoin:miter;stroke-opacity:1"/>
<ellipse cx="3089.57" cy="318.589" rx="29.6461" ry="17.8482" style="fill:#FFCC99;fill-rule:evenodd;stroke:#FFCC99;stroke-width:1px;stroke-linecap:butt;stroke-linejoin:miter;stroke-opacity:1"/>
<ellipse cx="3086.29" cy="407.348" rx="17.8256" ry="17.8256" style="fill:#FFFFAA;fill-rule:evenodd;stroke:#FFFFAA;stroke-width:1px;stroke-linecap:butt;stroke-linejoin:miter;stroke-opacity:1"/>
<ellipse cx="3167.21" cy="444.704" rx="17.8256" ry="17.8256" style="fill:#FFFFAA;fill-rule:evenodd;stroke:#FFFFAA;stroke-width:1px;stroke-linecap:butt;stroke-linejoin:miter;stroke-opacity:1"/>
<ellipse cx="3013.47" cy="458.946" rx="17.8256" ry="18.3271" style="fill:#FFFFAA;fill-rule:evenodd;stroke:#FFFFAA;stroke-width:1px;stroke-linecap:butt;stroke-linejoin:miter;stroke-opacity:1"/>
<ellipse cx="2924.44" cy="332.634" rx="17.8256" ry="17.8256" style="fill:#FFCC99;fill-rule:evenodd;stroke:#FFCC99;stroke-width:1px;stroke-linecap:butt;stroke-linejoin:miter;stroke-opacity:1"/>
<path class="bond-0" d="M 832.793,223.767 L 909.98,268.331" style="fill:none;fill-rule:evenodd;stroke:#000000;stroke-width:2.0px;stroke-linecap:butt;stroke-linejoin:miter;stroke-opacity:1"/>
<path class="bond-1" d="M 901.068,268.331 L 901.068,305.4" style="fill:none;fill-rule:evenodd;stroke:#000000;stroke-width:2.0px;stroke-linecap:butt;stroke-linejoin:miter;stroke-opacity:1"/>
<path class="bond-1" d="M 901.068,305.4 L 901.068,342.468" style="fill:none;fill-rule:evenodd;stroke:#FF0000;stroke-width:2.0px;stroke-linecap:butt;stroke-linejoin:miter;stroke-opacity:1"/>
<path class="bond-1" d="M 918.893,268.331 L 918.893,305.4" style="fill:none;fill-rule:evenodd;stroke:#000000;stroke-width:2.0px;stroke-linecap:butt;stroke-linejoin:miter;stroke-opacity:1"/>
<path class="bond-1" d="M 918.893,305.4 L 918.893,342.468" style="fill:none;fill-rule:evenodd;stroke:#FF0000;stroke-width:2.0px;stroke-linecap:butt;stroke-linejoin:miter;stroke-opacity:1"/>
<path class="bond-2" d="M 909.98,268.331 L 941.667,250.037" style="fill:none;fill-rule:evenodd;stroke:#000000;stroke-width:2.0px;stroke-linecap:butt;stroke-linejoin:miter;stroke-opacity:1"/>
<path class="bond-2" d="M 941.667,250.037 L 973.353,231.743" style="fill:none;fill-rule:evenodd;stroke:#FF0000;stroke-width:2.0px;stroke-linecap:butt;stroke-linejoin:miter;stroke-opacity:1"/>
<path class="bond-3" d="M 1000.98,231.743 L 1032.67,250.037" style="fill:none;fill-rule:evenodd;stroke:#FF0000;stroke-width:2.0px;stroke-linecap:butt;stroke-linejoin:miter;stroke-opacity:1"/>
<path class="bond-3" d="M 1032.67,250.037 L 1064.35,268.331" style="fill:none;fill-rule:evenodd;stroke:#000000;stroke-width:2.0px;stroke-linecap:butt;stroke-linejoin:miter;stroke-opacity:1"/>
<path class="bond-4" d="M 1064.35,268.331 L 1141.54,223.767" style="fill:none;fill-rule:evenodd;stroke:#000000;stroke-width:2.0px;stroke-linecap:butt;stroke-linejoin:miter;stroke-opacity:1"/>
<path class="bond-5" d="M 1055.44,268.331 L 1055.44,305.4" style="fill:none;fill-rule:evenodd;stroke:#000000;stroke-width:2.0px;stroke-linecap:butt;stroke-linejoin:miter;stroke-opacity:1"/>
<path class="bond-5" d="M 1055.44,305.4 L 1055.44,342.468" style="fill:none;fill-rule:evenodd;stroke:#FF0000;stroke-width:2.0px;stroke-linecap:butt;stroke-linejoin:miter;stroke-opacity:1"/>
<path class="bond-5" d="M 1073.27,268.331 L 1073.27,305.4" style="fill:none;fill-rule:evenodd;stroke:#000000;stroke-width:2.0px;stroke-linecap:butt;stroke-linejoin:miter;stroke-opacity:1"/>
<path class="bond-5" d="M 1073.27,305.4 L 1073.27,342.468" style="fill:none;fill-rule:evenodd;stroke:#FF0000;stroke-width:2.0px;stroke-linecap:butt;stroke-linejoin:miter;stroke-opacity:1"/>
<path class="bond-6" d="M 1365.05,232.6 L 1387.16,259.566" style="fill:none;fill-rule:evenodd;stroke:#000000;stroke-width:2.0px;stroke-linecap:butt;stroke-linejoin:miter;stroke-opacity:1"/>
<path class="bond-6" d="M 1387.16,259.566 L 1409.27,286.533" style="fill:none;fill-rule:evenodd;stroke:#FF0000;stroke-width:2.0px;stroke-linecap:butt;stroke-linejoin:miter;stroke-opacity:1"/>
<path class="bond-7" d="M 1435.38,299.25 L 1472.44,293.149" style="fill:none;fill-rule:evenodd;stroke:#FF0000;stroke-width:2.0px;stroke-linecap:butt;stroke-linejoin:miter;stroke-opacity:1"/>
<path class="bond-7" d="M 1472.44,293.149 L 1509.51,287.049" style="fill:none;fill-rule:evenodd;stroke:#000000;stroke-width:2.0px;stroke-linecap:butt;stroke-linejoin:miter;stroke-opacity:1"/>
<path class="bond-8" d="M 1509.51,287.049 L 1540.94,203.648" style="fill:none;fill-rule:evenodd;stroke:#000000;stroke-width:2.0px;stroke-linecap:butt;stroke-linejoin:miter;stroke-opacity:1"/>
<path class="bond-8" d="M 1530.9,280.826 L 1552.91,222.445" style="fill:none;fill-rule:evenodd;stroke:#000000;stroke-width:2.0px;stroke-linecap:butt;stroke-linejoin:miter;stroke-opacity:1;stroke-dasharray:6,6"/>
<path class="bond-17" d="M 1509.51,287.049 L 1566.01,355.973" style="fill:none;fill-rule:evenodd;stroke:#000000;stroke-width:2.0px;stroke-linecap:butt;stroke-linejoin:miter;stroke-opacity:1"/>
<path class="bond-17" d="M 1531.77,286.085 L 1571.32,334.333" style="fill:none;fill-rule:evenodd;stroke:#000000;stroke-width:2.0px;stroke-linecap:butt;stroke-linejoin:miter;stroke-opacity:1;stroke-dasharray:6,6"/>
<path class="bond-9" d="M 1540.94,203.648 L 1628.89,189.172" style="fill:none;fill-rule:evenodd;stroke:#000000;stroke-width:2.0px;stroke-linecap:butt;stroke-linejoin:miter;stroke-opacity:1"/>
<path class="bond-9" d="M 1557.03,219.066 L 1618.59,208.933" style="fill:none;fill-rule:evenodd;stroke:#000000;stroke-width:2.0px;stroke-linecap:butt;stroke-linejoin:miter;stroke-opacity:1;stroke-dasharray:6,6"/>
<path class="bond-10" d="M 1628.89,189.172 L 1685.4,258.097" style="fill:none;fill-rule:evenodd;stroke:#000000;stroke-width:2.0px;stroke-linecap:butt;stroke-linejoin:miter;stroke-opacity:1"/>
<path class="bond-10" d="M 1623.58,210.813 L 1663.13,259.06" style="fill:none;fill-rule:evenodd;stroke:#000000;stroke-width:2.0px;stroke-linecap:butt;stroke-linejoin:miter;stroke-opacity:1;stroke-dasharray:6,6"/>
<path class="bond-11" d="M 1685.4,258.097 L 1723.47,251.83" style="fill:none;fill-rule:evenodd;stroke:#000000;stroke-width:2.0px;stroke-linecap:butt;stroke-linejoin:miter;stroke-opacity:1"/>
<path class="bond-11" d="M 1723.47,251.83 L 1761.54,245.564" style="fill:none;fill-rule:evenodd;stroke:#0000FF;stroke-width:2.0px;stroke-linecap:butt;stroke-linejoin:miter;stroke-opacity:1"/>
<path class="bond-14" d="M 1685.4,258.097 L 1653.96,341.497" style="fill:none;fill-rule:evenodd;stroke:#000000;stroke-width:2.0px;stroke-linecap:butt;stroke-linejoin:miter;stroke-opacity:1"/>
<path class="bond-14" d="M 1664,264.32 L 1641.99,322.7" style="fill:none;fill-rule:evenodd;stroke:#000000;stroke-width:2.0px;stroke-linecap:butt;stroke-linejoin:miter;stroke-opacity:1;stroke-dasharray:6,6"/>
<path class="bond-12" d="M 1778.25,263.665 L 1794.65,283.668" style="fill:none;fill-rule:evenodd;stroke:#0000FF;stroke-width:2.0px;stroke-linecap:butt;stroke-linejoin:miter;stroke-opacity:1"/>
<path class="bond-12" d="M 1794.65,283.668 L 1811.05,303.67" style="fill:none;fill-rule:evenodd;stroke:#FF0000;stroke-width:2.0px;stroke-linecap:butt;stroke-linejoin:miter;stroke-opacity:1"/>
<path class="bond-12" d="M 1792.03,252.364 L 1808.43,272.366" style="fill:none;fill-rule:evenodd;stroke:#0000FF;stroke-width:2.0px;stroke-linecap:butt;stroke-linejoin:miter;stroke-opacity:1"/>
<path class="bond-12" d="M 1808.43,272.366 L 1824.83,292.369" style="fill:none;fill-rule:evenodd;stroke:#FF0000;stroke-width:2.0px;stroke-linecap:butt;stroke-linejoin:miter;stroke-opacity:1"/>
<path class="bond-13" d="M 1778.94,228.772 L 1789.03,201.99" style="fill:none;fill-rule:evenodd;stroke:#0000FF;stroke-width:2.0px;stroke-linecap:butt;stroke-linejoin:miter;stroke-opacity:1"/>
<path class="bond-13" d="M 1789.03,201.99 L 1799.13,175.208" style="fill:none;fill-rule:evenodd;stroke:#FF0000;stroke-width:2.0px;stroke-linecap:butt;stroke-linejoin:miter;stroke-opacity:1"/>
<path class="bond-15" d="M 1653.96,341.497 L 1676.31,368.763" style="fill:none;fill-rule:evenodd;stroke:#000000;stroke-width:2.0px;stroke-linecap:butt;stroke-linejoin:miter;stroke-opacity:1"/>
<path class="bond-15" d="M 1676.31,368.763 L 1698.67,396.028" style="fill:none;fill-rule:evenodd;stroke:#0000FF;stroke-width:2.0px;stroke-linecap:butt;stroke-linejoin:miter;stroke-opacity:1"/>
<path class="bond-16" d="M 1653.96,341.497 L 1566.01,355.973" style="fill:none;fill-rule:evenodd;stroke:#000000;stroke-width:2.0px;stroke-linecap:butt;stroke-linejoin:miter;stroke-opacity:1"/>
<path class="bond-16" d="M 1637.87,326.08 L 1576.31,336.213" style="fill:none;fill-rule:evenodd;stroke:#000000;stroke-width:2.0px;stroke-linecap:butt;stroke-linejoin:miter;stroke-opacity:1;stroke-dasharray:6,6"/>
<path class="bond-18" d="M 2324.27,319.262 L 2401.46,274.697" style="fill:none;fill-rule:evenodd;stroke:#000000;stroke-width:2.0px;stroke-linecap:butt;stroke-linejoin:miter;stroke-opacity:1"/>
<path class="bond-19" d="M 2397,282.416 L 2428.69,300.71" style="fill:none;fill-rule:evenodd;stroke:#000000;stroke-width:2.0px;stroke-linecap:butt;stroke-linejoin:miter;stroke-opacity:1"/>
<path class="bond-19" d="M 2428.69,300.71 L 2460.38,319.004" style="fill:none;fill-rule:evenodd;stroke:#FF0000;stroke-width:2.0px;stroke-linecap:butt;stroke-linejoin:miter;stroke-opacity:1"/>
<path class="bond-19" d="M 2405.92,266.979 L 2437.6,285.273" style="fill:none;fill-rule:evenodd;stroke:#000000;stroke-width:2.0px;stroke-linecap:butt;stroke-linejoin:miter;stroke-opacity:1"/>
<path class="bond-19" d="M 2437.6,285.273 L 2469.29,303.567" style="fill:none;fill-rule:evenodd;stroke:#FF0000;stroke-width:2.0px;stroke-linecap:butt;stroke-linejoin:miter;stroke-opacity:1"/>
<path class="bond-20" d="M 2401.46,274.697 L 2401.46,237.825" style="fill:none;fill-rule:evenodd;stroke:#000000;stroke-width:2.0px;stroke-linecap:butt;stroke-linejoin:miter;stroke-opacity:1"/>
<path class="bond-20" d="M 2401.46,237.825 L 2401.46,200.953" style="fill:none;fill-rule:evenodd;stroke:#FF0000;stroke-width:2.0px;stroke-linecap:butt;stroke-linejoin:miter;stroke-opacity:1"/>
<path class="bond-21" d="M 2689.79,309.323 L 2723.34,324.813" style="fill:none;fill-rule:evenodd;stroke:#000000;stroke-width:2.0px;stroke-linecap:butt;stroke-linejoin:miter;stroke-opacity:1"/>
<path class="bond-21" d="M 2723.34,324.813 L 2756.89,340.302" style="fill:none;fill-rule:evenodd;stroke:#FF0000;stroke-width:2.0px;stroke-linecap:butt;stroke-linejoin:miter;stroke-opacity:1"/>
<path class="bond-22" d="M 2784.52,336.927 L 2814.02,316.103" style="fill:none;fill-rule:evenodd;stroke:#FF0000;stroke-width:2.0px;stroke-linecap:butt;stroke-linejoin:miter;stroke-opacity:1"/>
<path class="bond-22" d="M 2814.02,316.103 L 2843.52,295.278" style="fill:none;fill-rule:evenodd;stroke:#000000;stroke-width:2.0px;stroke-linecap:butt;stroke-linejoin:miter;stroke-opacity:1"/>
<path class="bond-23" d="M 2843.52,295.278 L 2835.41,206.519" style="fill:none;fill-rule:evenodd;stroke:#000000;stroke-width:2.0px;stroke-linecap:butt;stroke-linejoin:miter;stroke-opacity:1"/>
<path class="bond-23" d="M 2860.06,280.342 L 2854.38,218.211" style="fill:none;fill-rule:evenodd;stroke:#000000;stroke-width:2.0px;stroke-linecap:butt;stroke-linejoin:miter;stroke-opacity:1;stroke-dasharray:6,6"/>
<path class="bond-35" d="M 2843.52,295.278 L 2924.44,332.634" style="fill:none;fill-rule:evenodd;stroke:#000000;stroke-width:2.0px;stroke-linecap:butt;stroke-linejoin:miter;stroke-opacity:1"/>
<path class="bond-35" d="M 2863.13,284.697 L 2919.77,310.847" style="fill:none;fill-rule:evenodd;stroke:#000000;stroke-width:2.0px;stroke-linecap:butt;stroke-linejoin:miter;stroke-opacity:1;stroke-dasharray:6,6"/>
<path class="bond-24" d="M 2835.41,206.519 L 2908.22,155.117" style="fill:none;fill-rule:evenodd;stroke:#000000;stroke-width:2.0px;stroke-linecap:butt;stroke-linejoin:miter;stroke-opacity:1"/>
<path class="bond-24" d="M 2856.61,213.372 L 2907.58,177.39" style="fill:none;fill-rule:evenodd;stroke:#000000;stroke-width:2.0px;stroke-linecap:butt;stroke-linejoin:miter;stroke-opacity:1;stroke-dasharray:6,6"/>
<path class="bond-25" d="M 2908.22,155.117 L 2989.15,192.474" style="fill:none;fill-rule:evenodd;stroke:#000000;stroke-width:2.0px;stroke-linecap:butt;stroke-linejoin:miter;stroke-opacity:1"/>
<path class="bond-25" d="M 2912.89,176.905 L 2969.54,203.055" style="fill:none;fill-rule:evenodd;stroke:#000000;stroke-width:2.0px;stroke-linecap:butt;stroke-linejoin:miter;stroke-opacity:1;stroke-dasharray:6,6"/>
<path class="bond-26" d="M 2989.15,192.474 L 3019.65,170.938" style="fill:none;fill-rule:evenodd;stroke:#000000;stroke-width:2.0px;stroke-linecap:butt;stroke-linejoin:miter;stroke-opacity:1"/>
<path class="bond-26" d="M 3019.65,170.938 L 3050.16,149.403" style="fill:none;fill-rule:evenodd;stroke:#0000FF;stroke-width:2.0px;stroke-linecap:butt;stroke-linejoin:miter;stroke-opacity:1"/>
<path class="bond-29" d="M 2989.15,192.474 L 2997.25,281.232" style="fill:none;fill-rule:evenodd;stroke:#000000;stroke-width:2.0px;stroke-linecap:butt;stroke-linejoin:miter;stroke-opacity:1"/>
<path class="bond-29" d="M 2972.61,207.41 L 2978.29,269.54" style="fill:none;fill-rule:evenodd;stroke:#000000;stroke-width:2.0px;stroke-linecap:butt;stroke-linejoin:miter;stroke-opacity:1;stroke-dasharray:6,6"/>
<path class="bond-27" d="M 3070.02,154.612 L 3097.84,167.452" style="fill:none;fill-rule:evenodd;stroke:#0000FF;stroke-width:2.0px;stroke-linecap:butt;stroke-linejoin:miter;stroke-opacity:1"/>
<path class="bond-27" d="M 3097.84,167.452 L 3125.65,180.293" style="fill:none;fill-rule:evenodd;stroke:#FF0000;stroke-width:2.0px;stroke-linecap:butt;stroke-linejoin:miter;stroke-opacity:1"/>
<path class="bond-27" d="M 3077.49,138.427 L 3105.31,151.268" style="fill:none;fill-rule:evenodd;stroke:#0000FF;stroke-width:2.0px;stroke-linecap:butt;stroke-linejoin:miter;stroke-opacity:1"/>
<path class="bond-27" d="M 3105.31,151.268 L 3133.13,164.109" style="fill:none;fill-rule:evenodd;stroke:#FF0000;stroke-width:2.0px;stroke-linecap:butt;stroke-linejoin:miter;stroke-opacity:1"/>
<path class="bond-28" d="M 3060.6,126.223 L 3057.91,96.7737" style="fill:none;fill-rule:evenodd;stroke:#0000FF;stroke-width:2.0px;stroke-linecap:butt;stroke-linejoin:miter;stroke-opacity:1"/>
<path class="bond-28" d="M 3057.91,96.7737 L 3055.22,67.3242" style="fill:none;fill-rule:evenodd;stroke:#FF0000;stroke-width:2.0px;stroke-linecap:butt;stroke-linejoin:miter;stroke-opacity:1"/>
<path class="bond-30" d="M 2997.25,281.232 L 3031.81,297.187" style="fill:none;fill-rule:evenodd;stroke:#000000;stroke-width:2.0px;stroke-linecap:butt;stroke-linejoin:miter;stroke-opacity:1"/>
<path class="bond-30" d="M 3031.81,297.187 L 3066.38,313.141" style="fill:none;fill-rule:evenodd;stroke:#0000FF;stroke-width:2.0px;stroke-linecap:butt;stroke-linejoin:miter;stroke-opacity:1"/>
<path class="bond-34" d="M 2997.25,281.232 L 2924.44,332.634" style="fill:none;fill-rule:evenodd;stroke:#000000;stroke-width:2.0px;stroke-linecap:butt;stroke-linejoin:miter;stroke-opacity:1"/>
<path class="bond-34" d="M 2976.05,274.38 L 2925.08,310.362" style="fill:none;fill-rule:evenodd;stroke:#000000;stroke-width:2.0px;stroke-linecap:butt;stroke-linejoin:miter;stroke-opacity:1;stroke-dasharray:6,6"/>
<path class="bond-31" d="M 3079.53,333.438 L 3082.91,370.393" style="fill:none;fill-rule:evenodd;stroke:#0000FF;stroke-width:2.0px;stroke-linecap:butt;stroke-linejoin:miter;stroke-opacity:1"/>
<path class="bond-31" d="M 3082.91,370.393 L 3086.29,407.348" style="fill:none;fill-rule:evenodd;stroke:#000000;stroke-width:2.0px;stroke-linecap:butt;stroke-linejoin:miter;stroke-opacity:1"/>
<path class="bond-32" d="M 3086.29,407.348 L 3167.21,444.704" style="fill:none;fill-rule:evenodd;stroke:#000000;stroke-width:2.0px;stroke-linecap:butt;stroke-linejoin:miter;stroke-opacity:1"/>
<path class="bond-33" d="M 3081.14,400.066 L 3051.65,420.891" style="fill:none;fill-rule:evenodd;stroke:#000000;stroke-width:2.0px;stroke-linecap:butt;stroke-linejoin:miter;stroke-opacity:1"/>
<path class="bond-33" d="M 3051.65,420.891 L 3022.15,441.716" style="fill:none;fill-rule:evenodd;stroke:#FF0000;stroke-width:2.0px;stroke-linecap:butt;stroke-linejoin:miter;stroke-opacity:1"/>
<path class="bond-33" d="M 3091.43,414.629 L 3061.93,435.454" style="fill:none;fill-rule:evenodd;stroke:#000000;stroke-width:2.0px;stroke-linecap:butt;stroke-linejoin:miter;stroke-opacity:1"/>
<path class="bond-33" d="M 3061.93,435.454 L 3032.43,456.278" style="fill:none;fill-rule:evenodd;stroke:#FF0000;stroke-width:2.0px;stroke-linecap:butt;stroke-linejoin:miter;stroke-opacity:1"/>
<path class="atom-2" d="M 898.394 357.531 Q 898.394 351.47, 901.388 348.083 Q 904.383 344.696, 909.98 344.696 Q 915.578 344.696, 918.572 348.083 Q 921.567 351.47, 921.567 357.531 Q 921.567 363.663, 918.537 367.157 Q 915.506 370.615, 909.98 370.615 Q 904.419 370.615, 901.388 367.157 Q 898.394 363.698, 898.394 357.531 M 909.98 367.763 Q 913.831 367.763, 915.899 365.196 Q 918.002 362.593, 918.002 357.531 Q 918.002 352.575, 915.899 350.08 Q 913.831 347.548, 909.98 347.548 Q 906.13 347.548, 904.027 350.044 Q 901.959 352.54, 901.959 357.531 Q 901.959 362.629, 904.027 365.196 Q 906.13 367.763, 909.98 367.763 " fill="#FF0000"/>
<path class="atom-3" d="M 975.581 223.838 Q 975.581 217.778, 978.576 214.391 Q 981.57 211.004, 987.168 211.004 Q 992.765 211.004, 995.76 214.391 Q 998.754 217.778, 998.754 223.838 Q 998.754 229.97, 995.724 233.464 Q 992.694 236.922, 987.168 236.922 Q 981.606 236.922, 978.576 233.464 Q 975.581 230.006, 975.581 223.838 M 987.168 234.07 Q 991.018 234.07, 993.086 231.503 Q 995.189 228.901, 995.189 223.838 Q 995.189 218.883, 993.086 216.387 Q 991.018 213.856, 987.168 213.856 Q 983.317 213.856, 981.214 216.352 Q 979.146 218.847, 979.146 223.838 Q 979.146 228.937, 981.214 231.503 Q 983.317 234.07, 987.168 234.07 " fill="#FF0000"/>
<path class="atom-6" d="M 1052.77 357.531 Q 1052.77 351.47, 1055.76 348.083 Q 1058.76 344.696, 1064.35 344.696 Q 1069.95 344.696, 1072.95 348.083 Q 1075.94 351.47, 1075.94 357.531 Q 1075.94 363.663, 1072.91 367.157 Q 1069.88 370.615, 1064.35 370.615 Q 1058.79 370.615, 1055.76 367.157 Q 1052.77 363.698, 1052.77 357.531 M 1064.35 367.763 Q 1068.21 367.763, 1070.27 365.196 Q 1072.38 362.593, 1072.38 357.531 Q 1072.38 352.575, 1070.27 350.08 Q 1068.21 347.548, 1064.35 347.548 Q 1060.5 347.548, 1058.4 350.044 Q 1056.33 352.54, 1056.33 357.531 Q 1056.33 362.629, 1058.4 365.196 Q 1060.5 367.763, 1064.35 367.763 " fill="#FF0000"/>
<path class="atom-8" d="M 1409.97 301.596 Q 1409.97 295.535, 1412.97 292.148 Q 1415.96 288.761, 1421.56 288.761 Q 1427.16 288.761, 1430.15 292.148 Q 1433.15 295.535, 1433.15 301.596 Q 1433.15 307.728, 1430.12 311.221 Q 1427.09 314.68, 1421.56 314.68 Q 1416 314.68, 1412.97 311.221 Q 1409.97 307.763, 1409.97 301.596 M 1421.56 311.828 Q 1425.41 311.828, 1427.48 309.261 Q 1429.58 306.658, 1429.58 301.596 Q 1429.58 296.64, 1427.48 294.145 Q 1425.41 291.613, 1421.56 291.613 Q 1417.71 291.613, 1415.61 294.109 Q 1413.54 296.604, 1413.54 301.596 Q 1413.54 306.694, 1415.61 309.261 Q 1417.71 311.828, 1421.56 311.828 " fill="#FF0000"/>
<path class="atom-13" d="M 1767.76 231.001 L 1776.03 244.37 Q 1776.85 245.689, 1778.17 248.078 Q 1779.49 250.466, 1779.56 250.609 L 1779.56 231.001 L 1782.91 231.001 L 1782.91 256.242 L 1779.45 256.242 L 1770.58 241.625 Q 1769.54 239.913, 1768.44 237.953 Q 1767.37 235.992, 1767.05 235.386 L 1767.05 256.242 L 1763.77 256.242 L 1763.77 231.001 L 1767.76 231.001 " fill="#0000FF"/>
<path class="atom-13" d="M 1785.03 235.55 L 1789.48 235.55 L 1789.48 230.868 L 1791.45 230.868 L 1791.45 235.55 L 1796.02 235.55 L 1796.02 237.245 L 1791.45 237.245 L 1791.45 241.951 L 1789.48 241.951 L 1789.48 237.245 L 1785.03 237.245 L 1785.03 235.55 " fill="#0000FF"/>
<path class="atom-14" d="M 1818.26 312.617 Q 1818.26 306.556, 1821.26 303.169 Q 1824.25 299.782, 1829.85 299.782 Q 1835.45 299.782, 1838.44 303.169 Q 1841.44 306.556, 1841.44 312.617 Q 1841.44 318.749, 1838.41 322.243 Q 1835.37 325.701, 1829.85 325.701 Q 1824.29 325.701, 1821.26 322.243 Q 1818.26 318.785, 1818.26 312.617 M 1829.85 322.849 Q 1833.7 322.849, 1835.77 320.282 Q 1837.87 317.679, 1837.87 312.617 Q 1837.87 307.661, 1835.77 305.166 Q 1833.7 302.635, 1829.85 302.635 Q 1826 302.635, 1823.89 305.13 Q 1821.83 307.626, 1821.83 312.617 Q 1821.83 317.715, 1823.89 320.282 Q 1826 322.849, 1829.85 322.849 " fill="#FF0000"/>
<path class="atom-15" d="M 1793.19 160.292 Q 1793.19 154.231, 1796.18 150.845 Q 1799.18 147.458, 1804.78 147.458 Q 1810.37 147.458, 1813.37 150.845 Q 1816.36 154.231, 1816.36 160.292 Q 1816.36 166.424, 1813.33 169.918 Q 1810.3 173.376, 1804.78 173.376 Q 1799.21 173.376, 1796.18 169.918 Q 1793.19 166.46, 1793.19 160.292 M 1804.78 170.524 Q 1808.63 170.524, 1810.69 167.957 Q 1812.8 165.355, 1812.8 160.292 Q 1812.8 155.337, 1810.69 152.841 Q 1808.63 150.31, 1804.78 150.31 Q 1800.93 150.31, 1798.82 152.805 Q 1796.75 155.301, 1796.75 160.292 Q 1796.75 165.39, 1798.82 167.957 Q 1800.93 170.524, 1804.78 170.524 " fill="#FF0000"/>
<path class="atom-15" d="M 1817.54 151.578 L 1826.17 151.578 L 1826.17 153.46 L 1817.54 153.46 L 1817.54 151.578 " fill="#FF0000"/>
<path class="atom-17" d="M 1704.89 397.801 L 1713.16 411.17 Q 1713.98 412.49, 1715.3 414.878 Q 1716.62 417.267, 1716.69 417.409 L 1716.69 397.801 L 1720.04 397.801 L 1720.04 423.042 L 1716.58 423.042 L 1707.71 408.425 Q 1706.67 406.714, 1705.57 404.753 Q 1704.5 402.792, 1704.18 402.186 L 1704.18 423.042 L 1700.9 423.042 L 1700.9 397.801 L 1704.89 397.801 " fill="#0000FF"/>
<path class="atom-17" d="M 1723.07 397.801 L 1726.49 397.801 L 1726.49 408.532 L 1739.4 408.532 L 1739.4 397.801 L 1742.82 397.801 L 1742.82 423.042 L 1739.4 423.042 L 1739.4 411.384 L 1726.49 411.384 L 1726.49 423.042 L 1723.07 423.042 L 1723.07 397.801 " fill="#0000FF"/>
<path class="atom-17" d="M 1744.05 422.157 Q 1744.66 420.58, 1746.12 419.71 Q 1747.57 418.816, 1749.6 418.816 Q 1752.12 418.816, 1753.53 420.18 Q 1754.94 421.545, 1754.94 423.969 Q 1754.94 426.439, 1753.1 428.745 Q 1751.29 431.051, 1747.53 433.78 L 1755.22 433.78 L 1755.22 435.663 L 1744 435.663 L 1744 434.086 Q 1747.1 431.875, 1748.94 430.227 Q 1750.8 428.58, 1751.69 427.098 Q 1752.59 425.616, 1752.59 424.086 Q 1752.59 422.486, 1751.79 421.592 Q 1750.99 420.698, 1749.6 420.698 Q 1748.26 420.698, 1747.36 421.239 Q 1746.47 421.78, 1745.83 422.98 L 1744.05 422.157 " fill="#0000FF"/>
<path class="atom-21" d="M 2467.06 319.333 Q 2467.06 313.272, 2470.06 309.885 Q 2473.05 306.498, 2478.65 306.498 Q 2484.24 306.498, 2487.24 309.885 Q 2490.23 313.272, 2490.23 319.333 Q 2490.23 325.465, 2487.2 328.959 Q 2484.17 332.417, 2478.65 332.417 Q 2473.09 332.417, 2470.06 328.959 Q 2467.06 325.501, 2467.06 319.333 M 2478.65 329.565 Q 2482.5 329.565, 2484.57 326.998 Q 2486.67 324.395, 2486.67 319.333 Q 2486.67 314.377, 2484.57 311.882 Q 2482.5 309.351, 2478.65 309.351 Q 2474.8 309.351, 2472.69 311.846 Q 2470.63 314.342, 2470.63 319.333 Q 2470.63 324.431, 2472.69 326.998 Q 2474.8 329.565, 2478.65 329.565 " fill="#FF0000"/>
<path class="atom-22" d="M 2389.87 185.641 Q 2389.87 179.58, 2392.87 176.193 Q 2395.86 172.806, 2401.46 172.806 Q 2407.06 172.806, 2410.05 176.193 Q 2413.05 179.58, 2413.05 185.641 Q 2413.05 191.773, 2410.02 195.266 Q 2406.99 198.725, 2401.46 198.725 Q 2395.9 198.725, 2392.87 195.266 Q 2389.87 191.808, 2389.87 185.641 M 2401.46 195.873 Q 2405.31 195.873, 2407.38 193.306 Q 2409.48 190.703, 2409.48 185.641 Q 2409.48 180.685, 2407.38 178.189 Q 2405.31 175.658, 2401.46 175.658 Q 2397.61 175.658, 2395.51 178.154 Q 2393.44 180.649, 2393.44 185.641 Q 2393.44 190.739, 2395.51 193.306 Q 2397.61 195.873, 2401.46 195.873 " fill="#FF0000"/>
<path class="atom-22" d="M 2416.08 173.091 L 2419.5 173.091 L 2419.5 183.822 L 2432.41 183.822 L 2432.41 173.091 L 2435.83 173.091 L 2435.83 198.332 L 2432.41 198.332 L 2432.41 186.675 L 2419.5 186.675 L 2419.5 198.332 L 2416.08 198.332 L 2416.08 173.091 " fill="#FF0000"/>
<path class="atom-24" d="M 2759.12 346.751 Q 2759.12 340.69, 2762.12 337.303 Q 2765.11 333.917, 2770.71 333.917 Q 2776.3 333.917, 2779.3 337.303 Q 2782.29 340.69, 2782.29 346.751 Q 2782.29 352.883, 2779.26 356.377 Q 2776.23 359.835, 2770.71 359.835 Q 2765.15 359.835, 2762.12 356.377 Q 2759.12 352.919, 2759.12 346.751 M 2770.71 356.983 Q 2774.56 356.983, 2776.63 354.416 Q 2778.73 351.814, 2778.73 346.751 Q 2778.73 341.796, 2776.63 339.3 Q 2774.56 336.769, 2770.71 336.769 Q 2766.86 336.769, 2764.75 339.264 Q 2762.69 341.76, 2762.69 346.751 Q 2762.69 351.849, 2764.75 354.416 Q 2766.86 356.983, 2770.71 356.983 " fill="#FF0000"/>
<path class="atom-29" d="M 3056.38 128.451 L 3064.65 141.821 Q 3065.47 143.14, 3066.79 145.528 Q 3068.11 147.917, 3068.18 148.06 L 3068.18 128.451 L 3071.53 128.451 L 3071.53 153.693 L 3068.07 153.693 L 3059.19 139.076 Q 3058.16 137.364, 3057.06 135.403 Q 3055.99 133.443, 3055.67 132.837 L 3055.67 153.693 L 3052.39 153.693 L 3052.39 128.451 L 3056.38 128.451 " fill="#0000FF"/>
<path class="atom-29" d="M 3073.65 133.001 L 3078.1 133.001 L 3078.1 128.319 L 3080.07 128.319 L 3080.07 133.001 L 3084.64 133.001 L 3084.64 134.695 L 3080.07 134.695 L 3080.07 139.401 L 3078.1 139.401 L 3078.1 134.695 L 3073.65 134.695 L 3073.65 133.001 " fill="#0000FF"/>
<path class="atom-30" d="M 3131.29 178.5 Q 3131.29 172.439, 3134.29 169.052 Q 3137.28 165.665, 3142.88 165.665 Q 3148.48 165.665, 3151.47 169.052 Q 3154.47 172.439, 3154.47 178.5 Q 3154.47 184.632, 3151.44 188.126 Q 3148.41 191.584, 3142.88 191.584 Q 3137.32 191.584, 3134.29 188.126 Q 3131.29 184.668, 3131.29 178.5 M 3142.88 188.732 Q 3146.73 188.732, 3148.8 186.165 Q 3150.9 183.562, 3150.9 178.5 Q 3150.9 173.544, 3148.8 171.049 Q 3146.73 168.518, 3142.88 168.518 Q 3139.03 168.518, 3136.93 171.013 Q 3134.86 173.509, 3134.86 178.5 Q 3134.86 183.598, 3136.93 186.165 Q 3139.03 188.732, 3142.88 188.732 " fill="#FF0000"/>
<path class="atom-31" d="M 3042.26 52.3848 Q 3042.26 46.324, 3045.26 42.9372 Q 3048.25 39.5503, 3053.85 39.5503 Q 3059.45 39.5503, 3062.44 42.9372 Q 3065.44 46.324, 3065.44 52.3848 Q 3065.44 58.5168, 3062.41 62.0106 Q 3059.37 65.4688, 3053.85 65.4688 Q 3048.29 65.4688, 3045.26 62.0106 Q 3042.26 58.5524, 3042.26 52.3848 M 3053.85 62.6167 Q 3057.7 62.6167, 3059.77 60.0498 Q 3061.87 57.4472, 3061.87 52.3848 Q 3061.87 47.4292, 3059.77 44.9336 Q 3057.7 42.4024, 3053.85 42.4024 Q 3050 42.4024, 3047.89 44.898 Q 3045.83 47.3936, 3045.83 52.3848 Q 3045.83 57.4829, 3047.89 60.0498 Q 3050 62.6167, 3053.85 62.6167 " fill="#FF0000"/>
<path class="atom-31" d="M 3066.61 43.6702 L 3075.25 43.6702 L 3075.25 45.5525 L 3066.61 45.5525 L 3066.61 43.6702 " fill="#FF0000"/>
<path class="atom-33" d="M 3072.6 305.968 L 3080.87 319.338 Q 3081.69 320.657, 3083.01 323.045 Q 3084.33 325.434, 3084.4 325.577 L 3084.4 305.968 L 3087.75 305.968 L 3087.75 331.21 L 3084.29 331.21 L 3075.41 316.593 Q 3074.38 314.881, 3073.27 312.92 Q 3072.2 310.96, 3071.88 310.354 L 3071.88 331.21 L 3068.6 331.21 L 3068.6 305.968 L 3072.6 305.968 " fill="#0000FF"/>
<path class="atom-33" d="M 3090.78 305.968 L 3094.2 305.968 L 3094.2 316.7 L 3107.11 316.7 L 3107.11 305.968 L 3110.53 305.968 L 3110.53 331.21 L 3107.11 331.21 L 3107.11 319.552 L 3094.2 319.552 L 3094.2 331.21 L 3090.78 331.21 L 3090.78 305.968 " fill="#0000FF"/>
<path class="atom-36" d="M 3001.89 458.821 Q 3001.89 452.76, 3004.88 449.373 Q 3007.88 445.986, 3013.47 445.986 Q 3019.07 445.986, 3022.06 449.373 Q 3025.06 452.76, 3025.06 458.821 Q 3025.06 464.953, 3022.03 468.447 Q 3019 471.905, 3013.47 471.905 Q 3007.91 471.905, 3004.88 468.447 Q 3001.89 464.988, 3001.89 458.821 M 3013.47 469.053 Q 3017.32 469.053, 3019.39 466.486 Q 3021.49 463.883, 3021.49 458.821 Q 3021.49 453.865, 3019.39 451.37 Q 3017.32 448.838, 3013.47 448.838 Q 3009.62 448.838, 3007.52 451.334 Q 3005.45 453.83, 3005.45 458.821 Q 3005.45 463.919, 3007.52 466.486 Q 3009.62 469.053, 3013.47 469.053 " fill="#FF0000"/>
<path class="note" d="M 822.255 241.552 L 825.018 241.552 L 825.018 232.122 L 821.97 233.067 L 821.56 232.015 L 825.428 230.286 L 826.694 230.5 L 826.694 241.552 L 829.172 241.552 L 829.172 242.978 L 822.255 242.978 L 822.255 241.552 " fill="#000000"/>
<path class="note" d="M 905.765 249.626 Q 906.228 248.432, 907.333 247.772 Q 908.439 247.095, 909.972 247.095 Q 911.879 247.095, 912.948 248.129 Q 914.018 249.163, 914.018 250.999 Q 914.018 252.87, 912.628 254.617 Q 911.255 256.364, 908.403 258.432 L 914.232 258.432 L 914.232 259.858 L 905.729 259.858 L 905.729 258.664 Q 908.082 256.988, 909.472 255.74 Q 910.881 254.493, 911.558 253.37 Q 912.235 252.247, 912.235 251.088 Q 912.235 249.876, 911.629 249.198 Q 911.023 248.521, 909.972 248.521 Q 908.955 248.521, 908.278 248.931 Q 907.601 249.341, 907.119 250.25 L 905.765 249.626 " fill="#000000"/>
<path class="note" d="M 911.799 386.901 Q 913.029 387.258, 913.617 388.06 Q 914.223 388.844, 914.223 390.092 Q 914.223 391.162, 913.688 392 Q 913.153 392.82, 912.173 393.283 Q 911.193 393.729, 909.909 393.729 Q 908.554 393.729, 907.538 393.265 Q 906.54 392.784, 905.738 391.821 L 906.754 390.787 Q 907.538 391.643, 908.198 391.982 Q 908.857 392.303, 909.909 392.303 Q 911.05 392.303, 911.745 391.696 Q 912.44 391.073, 912.44 390.074 Q 912.44 388.791, 911.71 388.22 Q 910.997 387.632, 909.446 387.632 L 908.537 387.632 L 908.537 386.349 L 909.339 386.349 Q 910.711 386.331, 911.442 385.743 Q 912.173 385.137, 912.173 384.014 Q 912.173 383.194, 911.567 382.712 Q 910.961 382.213, 909.927 382.213 Q 908.875 382.213, 908.216 382.588 Q 907.574 382.962, 907.075 383.907 L 905.845 383.247 Q 906.291 382.195, 907.36 381.5 Q 908.43 380.787, 909.927 380.787 Q 911.781 380.787, 912.868 381.661 Q 913.956 382.534, 913.956 384.014 Q 913.956 385.03, 913.403 385.761 Q 912.85 386.491, 911.799 386.901 " fill="#000000"/>
<path class="note" d="M 990.51 196.036 L 992.025 196.036 L 992.025 197.462 L 990.51 197.462 L 990.51 200.368 L 988.834 200.368 L 988.834 197.462 L 982.31 197.462 L 982.31 196.339 L 987.836 187.747 L 990.51 187.747 L 990.51 196.036 M 984.378 196.036 L 988.834 196.036 L 988.834 188.888 L 984.378 196.036 " fill="#000000"/>
<path class="note" d="M 1052.46 243.577 L 1055.22 243.577 L 1055.22 234.148 L 1052.17 235.092 L 1051.76 234.041 L 1055.63 232.312 L 1056.89 232.525 L 1056.89 243.577 L 1059.37 243.577 L 1059.37 245.003 L 1052.46 245.003 L 1052.46 243.577 " fill="#000000"/>
<path class="note" d="M 1065.52 237.124 Q 1066.63 237.124, 1067.5 237.606 Q 1068.37 238.087, 1068.86 238.96 Q 1069.34 239.834, 1069.34 240.939 Q 1069.34 242.169, 1068.78 243.132 Q 1068.25 244.076, 1067.29 244.611 Q 1066.32 245.146, 1065.09 245.146 Q 1062.85 245.146, 1061.71 243.631 Q 1060.58 242.098, 1060.58 239.067 Q 1060.58 235.716, 1061.98 233.987 Q 1063.38 232.24, 1066.08 232.24 Q 1066.86 232.24, 1067.52 232.418 Q 1068.2 232.597, 1068.84 232.971 L 1068.14 234.165 Q 1067.22 233.666, 1066.09 233.666 Q 1064.31 233.666, 1063.4 234.825 Q 1062.49 235.966, 1062.39 238.337 Q 1063.03 237.748, 1063.83 237.445 Q 1064.65 237.124, 1065.52 237.124 M 1065.11 243.684 Q 1065.79 243.684, 1066.34 243.328 Q 1066.91 242.971, 1067.23 242.347 Q 1067.55 241.723, 1067.55 240.957 Q 1067.55 239.834, 1066.93 239.192 Q 1066.31 238.551, 1065.2 238.551 Q 1064.44 238.551, 1063.67 238.871 Q 1062.92 239.174, 1062.39 239.709 Q 1062.46 241.795, 1063.12 242.74 Q 1063.78 243.684, 1065.11 243.684 " fill="#000000"/>
<path class="note" d="M 1122.85 215.822 L 1125.61 215.822 L 1125.61 206.393 L 1122.56 207.337 L 1122.15 206.286 L 1126.02 204.557 L 1127.29 204.771 L 1127.29 215.822 L 1129.77 215.822 L 1129.77 217.248 L 1122.85 217.248 L 1122.85 215.822 " fill="#000000"/>
<path class="note" d="M 1136.7 206.054 L 1130.09 206.054 L 1130.09 204.628 L 1138.46 204.628 L 1138.46 205.894 L 1133.37 217.248 L 1131.65 217.248 L 1136.7 206.054 " fill="#000000"/>
<path class="note" d="M 1052.43 392.124 L 1055.19 392.124 L 1055.19 382.695 L 1052.14 383.639 L 1051.73 382.588 L 1055.6 380.859 L 1056.87 381.072 L 1056.87 392.124 L 1059.35 392.124 L 1059.35 393.55 L 1052.43 393.55 L 1052.43 392.124 " fill="#000000"/>
<path class="note" d="M 1066.89 386.866 Q 1068.04 387.365, 1068.7 388.114 Q 1069.36 388.844, 1069.36 390.092 Q 1069.36 391.162, 1068.81 392 Q 1068.26 392.82, 1067.26 393.283 Q 1066.28 393.729, 1064.98 393.729 Q 1062.88 393.729, 1061.66 392.766 Q 1060.45 391.786, 1060.45 390.092 Q 1060.45 389.058, 1060.99 388.292 Q 1061.52 387.507, 1062.63 386.919 Q 1061.81 386.456, 1061.36 385.778 Q 1060.91 385.083, 1060.91 384.014 Q 1060.91 382.534, 1061.98 381.661 Q 1063.07 380.787, 1064.91 380.787 Q 1066.74 380.787, 1067.81 381.661 Q 1068.9 382.534, 1068.9 384.014 Q 1068.9 384.941, 1068.38 385.636 Q 1067.88 386.313, 1066.89 386.866 M 1064.91 382.124 Q 1063.86 382.124, 1063.27 382.623 Q 1062.7 383.122, 1062.7 384.014 Q 1062.7 384.673, 1063.09 385.119 Q 1063.48 385.547, 1064.03 385.796 Q 1064.6 386.046, 1065.69 386.42 Q 1066.46 385.885, 1066.78 385.315 Q 1067.12 384.744, 1067.12 384.014 Q 1067.12 383.122, 1066.53 382.623 Q 1065.96 382.124, 1064.91 382.124 M 1064.98 392.392 Q 1066.16 392.392, 1066.87 391.768 Q 1067.58 391.126, 1067.58 390.074 Q 1067.58 389.397, 1067.21 388.969 Q 1066.83 388.541, 1066.26 388.292 Q 1065.71 388.042, 1064.71 387.721 L 1063.91 387.454 Q 1063.02 387.989, 1062.63 388.63 Q 1062.23 389.254, 1062.23 390.074 Q 1062.23 391.126, 1062.98 391.768 Q 1063.73 392.392, 1064.98 392.392 " fill="#000000"/>
<path class="note" d="M 1353.88 240.431 Q 1354.98 240.431, 1355.89 240.913 Q 1356.8 241.376, 1357.32 242.268 Q 1357.83 243.141, 1357.83 244.335 Q 1357.83 245.637, 1357.19 246.581 Q 1356.57 247.508, 1355.53 247.99 Q 1354.5 248.471, 1353.32 248.471 Q 1352.17 248.471, 1351.1 248.043 Q 1350.03 247.615, 1349.3 246.795 L 1350.36 245.69 Q 1350.95 246.332, 1351.76 246.688 Q 1352.56 247.027, 1353.38 247.027 Q 1354.5 247.027, 1355.27 246.332 Q 1356.05 245.637, 1356.05 244.371 Q 1356.05 243.034, 1355.27 242.41 Q 1354.5 241.768, 1353.27 241.768 Q 1352.17 241.768, 1350.94 242.25 L 1349.95 241.786 L 1350.56 235.708 L 1357.05 235.708 L 1356.87 237.134 L 1352.02 237.134 L 1351.65 240.877 Q 1352.77 240.431, 1353.88 240.431 " fill="#000000"/>
<path class="note" d="M 1411.64 327.827 Q 1412.75 327.827, 1413.62 328.308 Q 1414.5 328.79, 1414.98 329.663 Q 1415.46 330.537, 1415.46 331.642 Q 1415.46 332.872, 1414.91 333.834 Q 1414.37 334.779, 1413.41 335.314 Q 1412.45 335.849, 1411.22 335.849 Q 1408.97 335.849, 1407.83 334.333 Q 1406.71 332.8, 1406.71 329.77 Q 1406.71 326.419, 1408.1 324.69 Q 1409.5 322.943, 1412.2 322.943 Q 1412.98 322.943, 1413.64 323.121 Q 1414.32 323.299, 1414.96 323.674 L 1414.26 324.868 Q 1413.34 324.369, 1412.21 324.369 Q 1410.43 324.369, 1409.52 325.528 Q 1408.61 326.668, 1408.51 329.039 Q 1409.15 328.451, 1409.95 328.148 Q 1410.77 327.827, 1411.64 327.827 M 1411.23 334.387 Q 1411.91 334.387, 1412.46 334.03 Q 1413.03 333.674, 1413.35 333.05 Q 1413.68 332.426, 1413.68 331.66 Q 1413.68 330.537, 1413.05 329.895 Q 1412.43 329.253, 1411.32 329.253 Q 1410.56 329.253, 1409.79 329.574 Q 1409.04 329.877, 1408.51 330.412 Q 1408.58 332.497, 1409.24 333.442 Q 1409.9 334.387, 1411.23 334.387 " fill="#000000"/>
<path class="note" d="M 1502.51 270.677 L 1495.9 270.677 L 1495.9 269.251 L 1504.28 269.251 L 1504.28 270.516 L 1499.18 281.871 L 1497.47 281.871 L 1502.51 270.677 " fill="#000000"/>
<path class="note" d="M 1533.5 191.858 Q 1534.66 192.357, 1535.32 193.106 Q 1535.98 193.836, 1535.98 195.084 Q 1535.98 196.154, 1535.43 196.992 Q 1534.87 197.812, 1533.88 198.275 Q 1532.9 198.721, 1531.59 198.721 Q 1529.49 198.721, 1528.28 197.758 Q 1527.07 196.778, 1527.07 195.084 Q 1527.07 194.05, 1527.6 193.284 Q 1528.14 192.499, 1529.24 191.911 Q 1528.42 191.448, 1527.98 190.77 Q 1527.53 190.075, 1527.53 189.006 Q 1527.53 187.526, 1528.6 186.653 Q 1529.69 185.779, 1531.52 185.779 Q 1533.36 185.779, 1534.43 186.653 Q 1535.52 187.526, 1535.52 189.006 Q 1535.52 189.933, 1535 190.628 Q 1534.5 191.305, 1533.5 191.858 M 1531.52 187.116 Q 1530.47 187.116, 1529.88 187.615 Q 1529.31 188.114, 1529.31 189.006 Q 1529.31 189.665, 1529.71 190.111 Q 1530.1 190.539, 1530.65 190.788 Q 1531.22 191.038, 1532.31 191.412 Q 1533.07 190.877, 1533.4 190.307 Q 1533.73 189.737, 1533.73 189.006 Q 1533.73 188.114, 1533.15 187.615 Q 1532.58 187.116, 1531.52 187.116 M 1531.59 197.384 Q 1532.77 197.384, 1533.48 196.76 Q 1534.2 196.118, 1534.2 195.066 Q 1534.2 194.389, 1533.82 193.961 Q 1533.45 193.533, 1532.88 193.284 Q 1532.33 193.034, 1531.33 192.713 L 1530.53 192.446 Q 1529.63 192.981, 1529.24 193.623 Q 1528.85 194.246, 1528.85 195.066 Q 1528.85 196.118, 1529.6 196.76 Q 1530.35 197.384, 1531.59 197.384 " fill="#000000"/>
<path class="note" d="M 1633.99 168.891 Q 1636.24 168.891, 1637.36 170.424 Q 1638.5 171.939, 1638.5 174.969 Q 1638.5 178.321, 1637.09 180.067 Q 1635.7 181.797, 1633.01 181.797 Q 1632.23 181.797, 1631.55 181.618 Q 1630.89 181.44, 1630.25 181.066 L 1630.94 179.871 Q 1631.87 180.371, 1632.99 180.371 Q 1634.78 180.371, 1635.69 179.23 Q 1636.59 178.071, 1636.7 175.7 Q 1636.06 176.288, 1635.24 176.609 Q 1634.44 176.912, 1633.56 176.912 Q 1632.46 176.912, 1631.59 176.431 Q 1630.71 175.95, 1630.23 175.076 Q 1629.75 174.203, 1629.75 173.098 Q 1629.75 171.868, 1630.28 170.923 Q 1630.84 169.96, 1631.8 169.426 Q 1632.76 168.891, 1633.99 168.891 M 1631.53 173.08 Q 1631.53 174.203, 1632.16 174.845 Q 1632.78 175.486, 1633.89 175.486 Q 1634.65 175.486, 1635.4 175.183 Q 1636.17 174.862, 1636.7 174.328 Q 1636.63 172.242, 1635.97 171.297 Q 1635.31 170.352, 1633.97 170.352 Q 1633.3 170.352, 1632.73 170.709 Q 1632.17 171.066, 1631.85 171.689 Q 1631.53 172.313, 1631.53 173.08 " fill="#000000"/>
<path class="note" d="M 1683.8 235.252 L 1686.56 235.252 L 1686.56 225.823 L 1683.51 226.767 L 1683.1 225.716 L 1686.97 223.987 L 1688.24 224.2 L 1688.24 235.252 L 1690.71 235.252 L 1690.71 236.678 L 1683.8 236.678 L 1683.8 235.252 " fill="#000000"/>
<path class="note" d="M 1696.42 236.821 Q 1694.1 236.821, 1692.94 235.11 Q 1691.8 233.398, 1691.8 230.35 Q 1691.8 227.302, 1692.94 225.609 Q 1694.08 223.915, 1696.42 223.915 Q 1698.75 223.915, 1699.89 225.609 Q 1701.03 227.302, 1701.03 230.35 Q 1701.03 233.398, 1699.88 235.11 Q 1698.73 236.821, 1696.42 236.821 M 1696.42 235.395 Q 1697.79 235.395, 1698.52 234.129 Q 1699.25 232.846, 1699.25 230.35 Q 1699.25 227.873, 1698.52 226.607 Q 1697.79 225.341, 1696.42 225.341 Q 1695.06 225.341, 1694.31 226.607 Q 1693.58 227.873, 1693.58 230.35 Q 1693.58 232.846, 1694.31 234.129 Q 1695.06 235.395, 1696.42 235.395 " fill="#000000"/>
<path class="note" d="M 1751.66 276.341 L 1754.42 276.341 L 1754.42 266.911 L 1751.37 267.856 L 1750.96 266.804 L 1754.83 265.075 L 1756.1 265.289 L 1756.1 276.341 L 1758.57 276.341 L 1758.57 277.767 L 1751.66 277.767 L 1751.66 276.341 " fill="#000000"/>
<path class="note" d="M 1760.23 276.341 L 1762.99 276.341 L 1762.99 266.911 L 1759.95 267.856 L 1759.54 266.804 L 1763.4 265.075 L 1764.67 265.289 L 1764.67 276.341 L 1767.15 276.341 L 1767.15 277.767 L 1760.23 277.767 L 1760.23 276.341 " fill="#000000"/>
<path class="note" d="M 1837.07 340.476 L 1839.83 340.476 L 1839.83 331.046 L 1836.79 331.991 L 1836.38 330.939 L 1840.24 329.21 L 1841.51 329.424 L 1841.51 340.476 L 1843.99 340.476 L 1843.99 341.902 L 1837.07 341.902 L 1837.07 340.476 " fill="#000000"/>
<path class="note" d="M 1844.91 331.67 Q 1845.38 330.476, 1846.48 329.816 Q 1847.59 329.139, 1849.12 329.139 Q 1851.03 329.139, 1852.1 330.173 Q 1853.17 331.207, 1853.17 333.043 Q 1853.17 334.914, 1851.78 336.661 Q 1850.41 338.408, 1847.55 340.476 L 1853.38 340.476 L 1853.38 341.902 L 1844.88 341.902 L 1844.88 340.708 Q 1847.23 339.032, 1848.62 337.784 Q 1850.03 336.537, 1850.71 335.414 Q 1851.39 334.291, 1851.39 333.132 Q 1851.39 331.92, 1850.78 331.242 Q 1850.17 330.565, 1849.12 330.565 Q 1848.11 330.565, 1847.43 330.975 Q 1846.75 331.385, 1846.27 332.294 L 1844.91 331.67 " fill="#000000"/>
<path class="note" d="M 1803.72 137.376 L 1806.48 137.376 L 1806.48 127.946 L 1803.44 128.891 L 1803.03 127.84 L 1806.89 126.11 L 1808.16 126.324 L 1808.16 137.376 L 1810.64 137.376 L 1810.64 138.802 L 1803.72 138.802 L 1803.72 137.376 " fill="#000000"/>
<path class="note" d="M 1817.45 132.153 Q 1818.68 132.51, 1819.27 133.312 Q 1819.87 134.096, 1819.87 135.344 Q 1819.87 136.414, 1819.34 137.251 Q 1818.8 138.071, 1817.82 138.535 Q 1816.84 138.981, 1815.56 138.981 Q 1814.2 138.981, 1813.19 138.517 Q 1812.19 138.036, 1811.39 137.073 L 1812.4 136.039 Q 1813.19 136.895, 1813.85 137.234 Q 1814.51 137.554, 1815.56 137.554 Q 1816.7 137.554, 1817.39 136.948 Q 1818.09 136.325, 1818.09 135.326 Q 1818.09 134.043, 1817.36 133.472 Q 1816.64 132.884, 1815.09 132.884 L 1814.19 132.884 L 1814.19 131.601 L 1814.99 131.601 Q 1816.36 131.583, 1817.09 130.995 Q 1817.82 130.389, 1817.82 129.266 Q 1817.82 128.446, 1817.22 127.964 Q 1816.61 127.465, 1815.58 127.465 Q 1814.52 127.465, 1813.86 127.84 Q 1813.22 128.214, 1812.72 129.159 L 1811.49 128.499 Q 1811.94 127.447, 1813.01 126.752 Q 1814.08 126.039, 1815.58 126.039 Q 1817.43 126.039, 1818.52 126.913 Q 1819.6 127.786, 1819.6 129.266 Q 1819.6 130.282, 1819.05 131.012 Q 1818.5 131.743, 1817.45 132.153 " fill="#000000"/>
<path class="note" d="M 1636.68 360.317 L 1639.44 360.317 L 1639.44 350.887 L 1636.39 351.832 L 1635.98 350.78 L 1639.85 349.051 L 1641.12 349.265 L 1641.12 360.317 L 1643.59 360.317 L 1643.59 361.743 L 1636.68 361.743 L 1636.68 360.317 " fill="#000000"/>
<path class="note" d="M 1652.33 357.412 L 1653.84 357.412 L 1653.84 358.838 L 1652.33 358.838 L 1652.33 361.743 L 1650.65 361.743 L 1650.65 358.838 L 1644.13 358.838 L 1644.13 357.715 L 1649.66 349.123 L 1652.33 349.123 L 1652.33 357.412 M 1646.2 357.412 L 1650.65 357.412 L 1650.65 350.264 L 1646.2 357.412 " fill="#000000"/>
<path class="note" d="M 1717.71 438.316 L 1720.47 438.316 L 1720.47 428.887 L 1717.42 429.831 L 1717.01 428.78 L 1720.88 427.051 L 1722.15 427.265 L 1722.15 438.316 L 1724.63 438.316 L 1724.63 439.743 L 1717.71 439.743 L 1717.71 438.316 " fill="#000000"/>
<path class="note" d="M 1730.03 431.846 Q 1731.13 431.846, 1732.04 432.327 Q 1732.95 432.791, 1733.47 433.682 Q 1733.98 434.555, 1733.98 435.75 Q 1733.98 437.051, 1733.34 437.996 Q 1732.72 438.923, 1731.68 439.404 Q 1730.65 439.885, 1729.47 439.885 Q 1728.31 439.885, 1727.25 439.457 Q 1726.18 439.03, 1725.44 438.21 L 1726.51 437.104 Q 1727.1 437.746, 1727.9 438.103 Q 1728.71 438.441, 1729.53 438.441 Q 1730.65 438.441, 1731.42 437.746 Q 1732.2 437.051, 1732.2 435.785 Q 1732.2 434.448, 1731.42 433.824 Q 1730.65 433.183, 1729.42 433.183 Q 1728.31 433.183, 1727.08 433.664 L 1726.1 433.201 L 1726.71 427.122 L 1733.2 427.122 L 1733.02 428.548 L 1728.17 428.548 L 1727.8 432.291 Q 1728.92 431.846, 1730.03 431.846 " fill="#000000"/>
<path class="note" d="M 1548.99 374.829 L 1551.76 374.829 L 1551.76 365.399 L 1548.71 366.344 L 1548.3 365.292 L 1552.17 363.563 L 1553.43 363.777 L 1553.43 374.829 L 1555.91 374.829 L 1555.91 376.255 L 1548.99 376.255 L 1548.99 374.829 " fill="#000000"/>
<path class="note" d="M 1561.13 363.492 Q 1563.38 363.492, 1564.5 365.025 Q 1565.64 366.54, 1565.64 369.57 Q 1565.64 372.921, 1564.23 374.668 Q 1562.84 376.397, 1560.15 376.397 Q 1559.37 376.397, 1558.69 376.219 Q 1558.03 376.041, 1557.39 375.666 L 1558.08 374.472 Q 1559.01 374.971, 1560.13 374.971 Q 1561.92 374.971, 1562.83 373.83 Q 1563.73 372.672, 1563.84 370.301 Q 1563.2 370.889, 1562.38 371.21 Q 1561.58 371.513, 1560.7 371.513 Q 1559.6 371.513, 1558.73 371.032 Q 1557.85 370.55, 1557.37 369.677 Q 1556.89 368.804, 1556.89 367.698 Q 1556.89 366.468, 1557.42 365.524 Q 1557.98 364.561, 1558.94 364.026 Q 1559.9 363.492, 1561.13 363.492 M 1558.67 367.681 Q 1558.67 368.804, 1559.3 369.445 Q 1559.92 370.087, 1561.02 370.087 Q 1561.79 370.087, 1562.54 369.784 Q 1563.31 369.463, 1563.84 368.928 Q 1563.77 366.843, 1563.11 365.898 Q 1562.45 364.953, 1561.11 364.953 Q 1560.44 364.953, 1559.87 365.31 Q 1559.31 365.666, 1558.99 366.29 Q 1558.67 366.914, 1558.67 367.681 " fill="#000000"/>
<path class="note" d="M 2328.59 337.046 L 2331.35 337.046 L 2331.35 327.616 L 2328.3 328.561 L 2327.89 327.509 L 2331.76 325.78 L 2333.03 325.994 L 2333.03 337.046 L 2335.51 337.046 L 2335.51 338.472 L 2328.59 338.472 L 2328.59 337.046 " fill="#000000"/>
<path class="note" d="M 2389.82 257.983 Q 2390.28 256.788, 2391.39 256.129 Q 2392.49 255.451, 2394.02 255.451 Q 2395.93 255.451, 2397 256.485 Q 2398.07 257.519, 2398.07 259.355 Q 2398.07 261.227, 2396.68 262.974 Q 2395.31 264.721, 2392.45 266.788 L 2398.28 266.788 L 2398.28 268.215 L 2389.78 268.215 L 2389.78 267.02 Q 2392.13 265.345, 2393.52 264.097 Q 2394.93 262.849, 2395.61 261.726 Q 2396.29 260.603, 2396.29 259.444 Q 2396.29 258.232, 2395.68 257.555 Q 2395.08 256.877, 2394.02 256.877 Q 2393.01 256.877, 2392.33 257.287 Q 2391.65 257.697, 2391.17 258.607 L 2389.82 257.983 " fill="#000000"/>
<path class="note" d="M 2506.19 333.849 Q 2507.42 334.205, 2508.01 335.008 Q 2508.62 335.792, 2508.62 337.04 Q 2508.62 338.109, 2508.08 338.947 Q 2507.55 339.767, 2506.57 340.23 Q 2505.59 340.676, 2504.3 340.676 Q 2502.95 340.676, 2501.93 340.213 Q 2500.94 339.731, 2500.13 338.769 L 2501.15 337.735 Q 2501.93 338.591, 2502.59 338.929 Q 2503.25 339.25, 2504.3 339.25 Q 2505.45 339.25, 2506.14 338.644 Q 2506.84 338.02, 2506.84 337.022 Q 2506.84 335.738, 2506.11 335.168 Q 2505.39 334.58, 2503.84 334.58 L 2502.93 334.58 L 2502.93 333.296 L 2503.73 333.296 Q 2505.11 333.278, 2505.84 332.69 Q 2506.57 332.084, 2506.57 330.961 Q 2506.57 330.141, 2505.96 329.66 Q 2505.36 329.161, 2504.32 329.161 Q 2503.27 329.161, 2502.61 329.535 Q 2501.97 329.909, 2501.47 330.854 L 2500.24 330.195 Q 2500.69 329.143, 2501.76 328.448 Q 2502.83 327.735, 2504.32 327.735 Q 2506.18 327.735, 2507.26 328.608 Q 2508.35 329.482, 2508.35 330.961 Q 2508.35 331.977, 2507.8 332.708 Q 2507.25 333.439, 2506.19 333.849 " fill="#000000"/>
<path class="note" d="M 2404.8 157.839 L 2406.32 157.839 L 2406.32 159.265 L 2404.8 159.265 L 2404.8 162.17 L 2403.13 162.17 L 2403.13 159.265 L 2396.6 159.265 L 2396.6 158.142 L 2402.13 149.55 L 2404.8 149.55 L 2404.8 157.839 M 2398.67 157.839 L 2403.13 157.839 L 2403.13 150.69 L 2398.67 157.839 " fill="#000000"/>
<path class="note" d="M 2683.87 321.224 Q 2684.98 321.224, 2685.89 321.705 Q 2686.8 322.168, 2687.31 323.06 Q 2687.83 323.933, 2687.83 325.127 Q 2687.83 326.429, 2687.19 327.374 Q 2686.56 328.3, 2685.53 328.782 Q 2684.5 329.263, 2683.32 329.263 Q 2682.16 329.263, 2681.09 328.835 Q 2680.02 328.407, 2679.29 327.587 L 2680.36 326.482 Q 2680.95 327.124, 2681.75 327.48 Q 2682.55 327.819, 2683.37 327.819 Q 2684.5 327.819, 2685.26 327.124 Q 2686.05 326.429, 2686.05 325.163 Q 2686.05 323.826, 2685.26 323.202 Q 2684.5 322.561, 2683.27 322.561 Q 2682.16 322.561, 2680.93 323.042 L 2679.95 322.578 L 2680.56 316.5 L 2687.04 316.5 L 2686.87 317.926 L 2682.02 317.926 L 2681.64 321.669 Q 2682.77 321.224, 2683.87 321.224 " fill="#000000"/>
<path class="note" d="M 2773.97 374.769 Q 2775.08 374.769, 2775.95 375.25 Q 2776.82 375.731, 2777.31 376.605 Q 2777.79 377.478, 2777.79 378.583 Q 2777.79 379.813, 2777.23 380.776 Q 2776.7 381.721, 2775.74 382.255 Q 2774.77 382.79, 2773.54 382.79 Q 2771.3 382.79, 2770.16 381.275 Q 2769.03 379.742, 2769.03 376.712 Q 2769.03 373.36, 2770.42 371.631 Q 2771.83 369.884, 2774.52 369.884 Q 2775.31 369.884, 2775.97 370.063 Q 2776.65 370.241, 2777.29 370.615 L 2776.59 371.81 Q 2775.67 371.31, 2774.54 371.31 Q 2772.76 371.31, 2771.85 372.469 Q 2770.94 373.61, 2770.83 375.981 Q 2771.48 375.393, 2772.28 375.089 Q 2773.1 374.769, 2773.97 374.769 M 2773.56 381.328 Q 2774.24 381.328, 2774.79 380.972 Q 2775.36 380.615, 2775.68 379.992 Q 2776 379.368, 2776 378.601 Q 2776 377.478, 2775.38 376.836 Q 2774.76 376.195, 2773.65 376.195 Q 2772.88 376.195, 2772.12 376.516 Q 2771.37 376.819, 2770.83 377.353 Q 2770.91 379.439, 2771.57 380.384 Q 2772.23 381.328, 2773.56 381.328 " fill="#000000"/>
<path class="note" d="M 2832.46 284.168 L 2825.84 284.168 L 2825.84 282.741 L 2834.22 282.741 L 2834.22 284.007 L 2829.12 295.362 L 2827.41 295.362 L 2832.46 284.168 " fill="#000000"/>
<path class="note" d="M 2823.9 199.99 Q 2825.06 200.489, 2825.72 201.238 Q 2826.38 201.969, 2826.38 203.217 Q 2826.38 204.286, 2825.83 205.124 Q 2825.28 205.944, 2824.28 206.407 Q 2823.3 206.853, 2822 206.853 Q 2819.89 206.853, 2818.68 205.89 Q 2817.47 204.91, 2817.47 203.217 Q 2817.47 202.183, 2818 201.416 Q 2818.54 200.632, 2819.64 200.044 Q 2818.82 199.58, 2818.38 198.903 Q 2817.93 198.208, 2817.93 197.138 Q 2817.93 195.659, 2819 194.785 Q 2820.09 193.912, 2821.92 193.912 Q 2823.76 193.912, 2824.83 194.785 Q 2825.92 195.659, 2825.92 197.138 Q 2825.92 198.065, 2825.4 198.76 Q 2824.9 199.438, 2823.9 199.99 M 2821.92 195.249 Q 2820.87 195.249, 2820.28 195.748 Q 2819.71 196.247, 2819.71 197.138 Q 2819.71 197.798, 2820.11 198.243 Q 2820.5 198.671, 2821.05 198.921 Q 2821.62 199.17, 2822.71 199.545 Q 2823.47 199.01, 2823.8 198.439 Q 2824.13 197.869, 2824.13 197.138 Q 2824.13 196.247, 2823.55 195.748 Q 2822.98 195.249, 2821.92 195.249 M 2822 205.516 Q 2823.17 205.516, 2823.88 204.892 Q 2824.6 204.25, 2824.6 203.199 Q 2824.6 202.521, 2824.22 202.094 Q 2823.85 201.666, 2823.28 201.416 Q 2822.73 201.167, 2821.73 200.846 L 2820.93 200.578 Q 2820.03 201.113, 2819.64 201.755 Q 2819.25 202.379, 2819.25 203.199 Q 2819.25 204.25, 2820 204.892 Q 2820.75 205.516, 2822 205.516 " fill="#000000"/>
<path class="note" d="M 2906.74 133.943 Q 2908.98 133.943, 2910.11 135.476 Q 2911.25 136.991, 2911.25 140.021 Q 2911.25 143.372, 2909.84 145.119 Q 2908.45 146.848, 2905.76 146.848 Q 2904.97 146.848, 2904.3 146.67 Q 2903.64 146.492, 2902.99 146.118 L 2903.69 144.923 Q 2904.62 145.422, 2905.74 145.422 Q 2907.52 145.422, 2908.43 144.282 Q 2909.34 143.123, 2909.45 140.752 Q 2908.81 141.34, 2907.99 141.661 Q 2907.18 141.964, 2906.31 141.964 Q 2905.21 141.964, 2904.33 141.483 Q 2903.46 141.002, 2902.98 140.128 Q 2902.5 139.255, 2902.5 138.15 Q 2902.5 136.92, 2903.03 135.975 Q 2903.58 135.012, 2904.55 134.477 Q 2905.51 133.943, 2906.74 133.943 M 2904.28 138.132 Q 2904.28 139.255, 2904.9 139.896 Q 2905.53 140.538, 2906.63 140.538 Q 2907.4 140.538, 2908.15 140.235 Q 2908.91 139.914, 2909.45 139.38 Q 2909.38 137.294, 2908.72 136.349 Q 2908.06 135.404, 2906.72 135.404 Q 2906.04 135.404, 2905.47 135.761 Q 2904.92 136.117, 2904.6 136.741 Q 2904.28 137.365, 2904.28 138.132 " fill="#000000"/>
<path class="note" d="M 2974.37 167.843 L 2977.13 167.843 L 2977.13 158.414 L 2974.08 159.358 L 2973.67 158.307 L 2977.54 156.577 L 2978.8 156.791 L 2978.8 167.843 L 2981.28 167.843 L 2981.28 169.269 L 2974.37 169.269 L 2974.37 167.843 " fill="#000000"/>
<path class="note" d="M 2986.99 169.412 Q 2984.67 169.412, 2983.51 167.701 Q 2982.37 165.989, 2982.37 162.941 Q 2982.37 159.893, 2983.51 158.2 Q 2984.65 156.506, 2986.99 156.506 Q 2989.32 156.506, 2990.46 158.2 Q 2991.6 159.893, 2991.6 162.941 Q 2991.6 165.989, 2990.44 167.701 Q 2989.3 169.412, 2986.99 169.412 M 2986.99 167.986 Q 2988.36 167.986, 2989.09 166.72 Q 2989.82 165.437, 2989.82 162.941 Q 2989.82 160.463, 2989.09 159.198 Q 2988.36 157.932, 2986.99 157.932 Q 2985.63 157.932, 2984.88 159.198 Q 2984.15 160.463, 2984.15 162.941 Q 2984.15 165.437, 2984.88 166.72 Q 2985.63 167.986, 2986.99 167.986 " fill="#000000"/>
<path class="note" d="M 3053.46 175.578 L 3056.22 175.578 L 3056.22 166.148 L 3053.17 167.093 L 3052.76 166.041 L 3056.63 164.312 L 3057.9 164.526 L 3057.9 175.578 L 3060.37 175.578 L 3060.37 177.004 L 3053.46 177.004 L 3053.46 175.578 " fill="#000000"/>
<path class="note" d="M 3062.03 175.578 L 3064.79 175.578 L 3064.79 166.148 L 3061.75 167.093 L 3061.34 166.041 L 3065.2 164.312 L 3066.47 164.526 L 3066.47 175.578 L 3068.95 175.578 L 3068.95 177.004 L 3062.03 177.004 L 3062.03 175.578 " fill="#000000"/>
<path class="note" d="M 3158.24 195.836 L 3161 195.836 L 3161 186.407 L 3157.95 187.351 L 3157.54 186.3 L 3161.41 184.57 L 3162.68 184.784 L 3162.68 195.836 L 3165.16 195.836 L 3165.16 197.262 L 3158.24 197.262 L 3158.24 195.836 " fill="#000000"/>
<path class="note" d="M 3166.08 187.03 Q 3166.55 185.836, 3167.65 185.177 Q 3168.76 184.499, 3170.29 184.499 Q 3172.2 184.499, 3173.27 185.533 Q 3174.34 186.567, 3174.34 188.403 Q 3174.34 190.275, 3172.95 192.022 Q 3171.57 193.769, 3168.72 195.836 L 3174.55 195.836 L 3174.55 197.262 L 3166.05 197.262 L 3166.05 196.068 Q 3168.4 194.392, 3169.79 193.145 Q 3171.2 191.897, 3171.88 190.774 Q 3172.55 189.651, 3172.55 188.492 Q 3172.55 187.28, 3171.95 186.603 Q 3171.34 185.925, 3170.29 185.925 Q 3169.27 185.925, 3168.6 186.335 Q 3167.92 186.745, 3167.44 187.654 L 3166.08 187.03 " fill="#000000"/>
<path class="note" d="M 3039.61 27.6828 L 3042.38 27.6828 L 3042.38 18.253 L 3039.33 19.1978 L 3038.92 18.1461 L 3042.79 16.417 L 3044.05 16.6309 L 3044.05 27.6828 L 3046.53 27.6828 L 3046.53 29.1089 L 3039.61 29.1089 L 3039.61 27.6828 " fill="#000000"/>
<path class="note" d="M 3053.34 22.4599 Q 3054.57 22.8164, 3055.16 23.6186 Q 3055.76 24.4029, 3055.76 25.6507 Q 3055.76 26.7202, 3055.23 27.558 Q 3054.69 28.378, 3053.71 28.8415 Q 3052.73 29.2871, 3051.45 29.2871 Q 3050.09 29.2871, 3049.08 28.8236 Q 3048.08 28.3423, 3047.28 27.3798 L 3048.29 26.3459 Q 3049.08 27.2015, 3049.74 27.5402 Q 3050.4 27.8611, 3051.45 27.8611 Q 3052.59 27.8611, 3053.28 27.255 Q 3053.98 26.6311, 3053.98 25.6329 Q 3053.98 24.3494, 3053.25 23.779 Q 3052.54 23.1907, 3050.99 23.1907 L 3050.08 23.1907 L 3050.08 21.9073 L 3050.88 21.9073 Q 3052.25 21.8895, 3052.98 21.3012 Q 3053.71 20.6952, 3053.71 19.5721 Q 3053.71 18.7522, 3053.11 18.2709 Q 3052.5 17.7717, 3051.47 17.7717 Q 3050.41 17.7717, 3049.76 18.1461 Q 3049.11 18.5204, 3048.61 19.4652 L 3047.38 18.8056 Q 3047.83 17.7539, 3048.9 17.0587 Q 3049.97 16.3457, 3051.47 16.3457 Q 3053.32 16.3457, 3054.41 17.2192 Q 3055.5 18.0926, 3055.5 19.5721 Q 3055.5 20.5882, 3054.94 21.319 Q 3054.39 22.0499, 3053.34 22.4599 " fill="#000000"/>
<path class="note" d="M 3009.48 269.018 L 3012.25 269.018 L 3012.25 259.589 L 3009.2 260.533 L 3008.79 259.482 L 3012.66 257.753 L 3013.92 257.966 L 3013.92 269.018 L 3016.4 269.018 L 3016.4 270.444 L 3009.48 270.444 L 3009.48 269.018 " fill="#000000"/>
<path class="note" d="M 3025.13 266.113 L 3026.65 266.113 L 3026.65 267.539 L 3025.13 267.539 L 3025.13 270.444 L 3023.46 270.444 L 3023.46 267.539 L 3016.94 267.539 L 3016.94 266.416 L 3022.46 257.824 L 3025.13 257.824 L 3025.13 266.113 M 3019 266.113 L 3023.46 266.113 L 3023.46 258.965 L 3019 266.113 " fill="#000000"/>
<path class="note" d="M 3079.03 296.535 L 3081.8 296.535 L 3081.8 287.105 L 3078.75 288.05 L 3078.34 286.998 L 3082.21 285.269 L 3083.47 285.483 L 3083.47 296.535 L 3085.95 296.535 L 3085.95 297.961 L 3079.03 297.961 L 3079.03 296.535 " fill="#000000"/>
<path class="note" d="M 3091.35 290.064 Q 3092.46 290.064, 3093.36 290.546 Q 3094.27 291.009, 3094.79 291.9 Q 3095.31 292.774, 3095.31 293.968 Q 3095.31 295.269, 3094.67 296.214 Q 3094.04 297.141, 3093.01 297.622 Q 3091.97 298.104, 3090.8 298.104 Q 3089.64 298.104, 3088.57 297.676 Q 3087.5 297.248, 3086.77 296.428 L 3087.84 295.323 Q 3088.43 295.965, 3089.23 296.321 Q 3090.03 296.66, 3090.85 296.66 Q 3091.97 296.66, 3092.74 295.965 Q 3093.52 295.269, 3093.52 294.004 Q 3093.52 292.667, 3092.74 292.043 Q 3091.97 291.401, 3090.74 291.401 Q 3089.64 291.401, 3088.41 291.883 L 3087.43 291.419 L 3088.03 285.341 L 3094.52 285.341 L 3094.34 286.767 L 3089.5 286.767 L 3089.12 290.51 Q 3090.24 290.064, 3091.35 290.064 " fill="#000000"/>
<path class="note" d="M 3098.66 395.169 L 3101.42 395.169 L 3101.42 385.739 L 3098.37 386.684 L 3097.96 385.632 L 3101.83 383.903 L 3103.1 384.117 L 3103.1 395.169 L 3105.57 395.169 L 3105.57 396.595 L 3098.66 396.595 L 3098.66 395.169 " fill="#000000"/>
<path class="note" d="M 3111.72 388.716 Q 3112.83 388.716, 3113.7 389.198 Q 3114.58 389.679, 3115.06 390.552 Q 3115.54 391.426, 3115.54 392.531 Q 3115.54 393.761, 3114.99 394.723 Q 3114.45 395.668, 3113.49 396.203 Q 3112.53 396.738, 3111.3 396.738 Q 3109.05 396.738, 3107.91 395.223 Q 3106.79 393.69, 3106.79 390.659 Q 3106.79 387.308, 3108.18 385.579 Q 3109.58 383.832, 3112.28 383.832 Q 3113.06 383.832, 3113.72 384.01 Q 3114.4 384.189, 3115.04 384.563 L 3114.34 385.757 Q 3113.42 385.258, 3112.29 385.258 Q 3110.51 385.258, 3109.6 386.417 Q 3108.69 387.558, 3108.59 389.928 Q 3109.23 389.34, 3110.03 389.037 Q 3110.85 388.716, 3111.72 388.716 M 3111.31 395.276 Q 3111.99 395.276, 3112.54 394.92 Q 3113.11 394.563, 3113.43 393.939 Q 3113.76 393.315, 3113.76 392.549 Q 3113.76 391.426, 3113.13 390.784 Q 3112.51 390.142, 3111.4 390.142 Q 3110.64 390.142, 3109.87 390.463 Q 3109.12 390.766, 3108.59 391.301 Q 3108.66 393.387, 3109.32 394.331 Q 3109.98 395.276, 3111.31 395.276 " fill="#000000"/>
<path class="note" d="M 3162.17 436.137 L 3164.93 436.137 L 3164.93 426.707 L 3161.88 427.652 L 3161.47 426.6 L 3165.34 424.871 L 3166.61 425.085 L 3166.61 436.137 L 3169.08 436.137 L 3169.08 437.563 L 3162.17 437.563 L 3162.17 436.137 " fill="#000000"/>
<path class="note" d="M 3176.02 426.369 L 3169.4 426.369 L 3169.4 424.943 L 3177.78 424.943 L 3177.78 426.208 L 3172.68 437.563 L 3170.97 437.563 L 3176.02 426.369 " fill="#000000"/>
<path class="note" d="M 2977.28 480.839 L 2980.04 480.839 L 2980.04 471.409 L 2976.99 472.354 L 2976.58 471.302 L 2980.45 469.573 L 2981.71 469.787 L 2981.71 480.839 L 2984.19 480.839 L 2984.19 482.265 L 2977.28 482.265 L 2977.28 480.839 " fill="#000000"/>
<path class="note" d="M 2991.73 475.58 Q 2992.89 476.08, 2993.55 476.828 Q 2994.21 477.559, 2994.21 478.807 Q 2994.21 479.876, 2993.66 480.714 Q 2993.11 481.534, 2992.11 481.998 Q 2991.13 482.443, 2989.83 482.443 Q 2987.72 482.443, 2986.51 481.481 Q 2985.3 480.5, 2985.3 478.807 Q 2985.3 477.773, 2985.83 477.007 Q 2986.37 476.222, 2987.47 475.634 Q 2986.65 475.17, 2986.21 474.493 Q 2985.76 473.798, 2985.76 472.728 Q 2985.76 471.249, 2986.83 470.375 Q 2987.92 469.502, 2989.75 469.502 Q 2991.59 469.502, 2992.66 470.375 Q 2993.75 471.249, 2993.75 472.728 Q 2993.75 473.655, 2993.23 474.35 Q 2992.73 475.028, 2991.73 475.58 M 2989.75 470.839 Q 2988.7 470.839, 2988.11 471.338 Q 2987.54 471.837, 2987.54 472.728 Q 2987.54 473.388, 2987.94 473.834 Q 2988.33 474.261, 2988.88 474.511 Q 2989.45 474.76, 2990.54 475.135 Q 2991.31 474.6, 2991.63 474.03 Q 2991.96 473.459, 2991.96 472.728 Q 2991.96 471.837, 2991.38 471.338 Q 2990.81 470.839, 2989.75 470.839 M 2989.83 481.106 Q 2991 481.106, 2991.72 480.483 Q 2992.43 479.841, 2992.43 478.789 Q 2992.43 478.112, 2992.05 477.684 Q 2991.68 477.256, 2991.11 477.007 Q 2990.56 476.757, 2989.56 476.436 L 2988.76 476.169 Q 2987.86 476.703, 2987.47 477.345 Q 2987.08 477.969, 2987.08 478.789 Q 2987.08 479.841, 2987.83 480.483 Q 2988.58 481.106, 2989.83 481.106 " fill="#000000"/>
<path class="note" d="M 2914.01 352.383 L 2916.77 352.383 L 2916.77 342.953 L 2913.73 343.898 L 2913.32 342.846 L 2917.18 341.117 L 2918.45 341.331 L 2918.45 352.383 L 2920.93 352.383 L 2920.93 353.809 L 2914.01 353.809 L 2914.01 352.383 " fill="#000000"/>
<path class="note" d="M 2926.15 341.046 Q 2928.4 341.046, 2929.52 342.579 Q 2930.66 344.094, 2930.66 347.124 Q 2930.66 350.476, 2929.25 352.223 Q 2927.86 353.952, 2925.17 353.952 Q 2924.39 353.952, 2923.71 353.773 Q 2923.05 353.595, 2922.41 353.221 L 2923.1 352.027 Q 2924.03 352.526, 2925.15 352.526 Q 2926.93 352.526, 2927.84 351.385 Q 2928.75 350.226, 2928.86 347.855 Q 2928.22 348.444, 2927.4 348.764 Q 2926.6 349.067, 2925.72 349.067 Q 2924.62 349.067, 2923.74 348.586 Q 2922.87 348.105, 2922.39 347.231 Q 2921.91 346.358, 2921.91 345.253 Q 2921.91 344.023, 2922.44 343.078 Q 2922.99 342.115, 2923.96 341.581 Q 2924.92 341.046, 2926.15 341.046 M 2923.69 345.235 Q 2923.69 346.358, 2924.31 347 Q 2924.94 347.641, 2926.04 347.641 Q 2926.81 347.641, 2927.56 347.338 Q 2928.32 347.018, 2928.86 346.483 Q 2928.79 344.397, 2928.13 343.452 Q 2927.47 342.508, 2926.13 342.508 Q 2925.45 342.508, 2924.88 342.864 Q 2924.33 343.221, 2924.01 343.845 Q 2923.69 344.468, 2923.69 345.235 " fill="#000000"/>
<path d="M 1253.74 253.227 L 1259.79 253.227 L 1259.79 246.859 L 1262.48 246.859 L 1262.48 253.227 L 1268.68 253.227 L 1268.68 255.531 L 1262.48 255.531 L 1262.48 261.931 L 1259.79 261.931 L 1259.79 255.531 L 1253.74 255.531 L 1253.74 253.227 " fill="#000000"/>
<path d="M 2578.47 253.227 L 2584.52 253.227 L 2584.52 246.859 L 2587.21 246.859 L 2587.21 253.227 L 2593.42 253.227 L 2593.42 255.531 L 2587.21 255.531 L 2587.21 261.931 L 2584.52 261.931 L 2584.52 255.531 L 2578.47 255.531 L 2578.47 253.227 " fill="#000000"/>
<path d="M 1954.62,255.531 L 2192.29,255.531" style="fill:none;fill-rule:evenodd;stroke:#000000;stroke-width:2.0px;stroke-linecap:butt;stroke-linejoin:miter;stroke-opacity:1"/>
<path d="M 2192.29,255.531 L 2182,249.59" style="fill:none;fill-rule:evenodd;stroke:#000000;stroke-width:2.0px;stroke-linecap:butt;stroke-linejoin:miter;stroke-opacity:1"/>
<path d="M 2192.29,255.531 L 2182,261.473" style="fill:none;fill-rule:evenodd;stroke:#000000;stroke-width:2.0px;stroke-linecap:butt;stroke-linejoin:miter;stroke-opacity:1"/>
</svg>