<svg xmlns="http://www.w3.org/2000/svg" xmlns:rdkit="http://www.rdkit.org/xml" xmlns:xlink="http://www.w3.org/1999/xlink" version="1.1" baseProfile="full" xml:space="preserve" width="4000px" height="500px" viewBox="0 0 4000 500">
<!-- END OF HEADER -->
<rect style="opacity:1.0;fill:#FFFFFF;stroke:none" width="4000" height="500" x="0" y="0"> </rect>
<path d="M 496.538,176.936 L 602.559,238.148" style="fill:none;fill-rule:evenodd;stroke:#FFFFAA;stroke-width:26.1px;stroke-linecap:butt;stroke-linejoin:miter;stroke-opacity:1"/>
<path d="M 602.559,238.148 L 602.559,360.57" style="fill:none;fill-rule:evenodd;stroke:#FFFFAA;stroke-width:26.1px;stroke-linecap:butt;stroke-linejoin:miter;stroke-opacity:1"/>
<path d="M 602.559,238.148 L 708.58,176.936" style="fill:none;fill-rule:evenodd;stroke:#FFFFAA;stroke-width:26.1px;stroke-linecap:butt;stroke-linejoin:miter;stroke-opacity:1"/>
<path d="M 708.58,176.936 L 814.601,238.148" style="fill:none;fill-rule:evenodd;stroke:#FFFFAA;stroke-width:26.1px;stroke-linecap:butt;stroke-linejoin:miter;stroke-opacity:1"/>
<path d="M 814.601,238.148 L 920.622,176.936" style="fill:none;fill-rule:evenodd;stroke:#FFFFAA;stroke-width:26.1px;stroke-linecap:butt;stroke-linejoin:miter;stroke-opacity:1"/>
<path d="M 814.601,238.148 L 814.601,360.57" style="fill:none;fill-rule:evenodd;stroke:#FFFFAA;stroke-width:26.1px;stroke-linecap:butt;stroke-linejoin:miter;stroke-opacity:1"/>
<path d="M 1606.34,438.069 L 1572.36,320.458" style="fill:none;fill-rule:evenodd;stroke:#FFCC99;stroke-width:26.1px;stroke-linecap:butt;stroke-linejoin:miter;stroke-opacity:1"/>
<path d="M 1572.36,320.458 L 1657.22,232.221" style="fill:none;fill-rule:evenodd;stroke:#FFCC99;stroke-width:26.1px;stroke-linecap:butt;stroke-linejoin:miter;stroke-opacity:1"/>
<path d="M 1572.36,320.458 L 1453.51,291.083" style="fill:none;fill-rule:evenodd;stroke:#FFCC99;stroke-width:26.1px;stroke-linecap:butt;stroke-linejoin:miter;stroke-opacity:1"/>
<path d="M 1657.22,232.221 L 1623.24,114.61" style="fill:none;fill-rule:evenodd;stroke:#FFCC99;stroke-width:26.1px;stroke-linecap:butt;stroke-linejoin:miter;stroke-opacity:1"/>
<path d="M 1623.24,114.61 L 1504.39,85.2358" style="fill:none;fill-rule:evenodd;stroke:#FFCC99;stroke-width:26.1px;stroke-linecap:butt;stroke-linejoin:miter;stroke-opacity:1"/>
<path d="M 1504.39,85.2358 L 1419.53,173.472" style="fill:none;fill-rule:evenodd;stroke:#FFCC99;stroke-width:26.1px;stroke-linecap:butt;stroke-linejoin:miter;stroke-opacity:1"/>
<path d="M 1419.53,173.472 L 1453.51,291.083" style="fill:none;fill-rule:evenodd;stroke:#FFCC99;stroke-width:26.1px;stroke-linecap:butt;stroke-linejoin:miter;stroke-opacity:1"/>
<path d="M 1419.53,173.472 L 1297.17,169.449" style="fill:none;fill-rule:evenodd;stroke:#FFCC99;stroke-width:26.1px;stroke-linecap:butt;stroke-linejoin:miter;stroke-opacity:1"/>
<path d="M 1453.51,291.083 L 1352.16,359.748" style="fill:none;fill-rule:evenodd;stroke:#FFCC99;stroke-width:26.1px;stroke-linecap:butt;stroke-linejoin:miter;stroke-opacity:1"/>
<path d="M 1352.16,359.748 L 1255.54,284.574" style="fill:none;fill-rule:evenodd;stroke:#FFCC99;stroke-width:26.1px;stroke-linecap:butt;stroke-linejoin:miter;stroke-opacity:1"/>
<path d="M 1255.54,284.574 L 1297.17,169.449" style="fill:none;fill-rule:evenodd;stroke:#FFCC99;stroke-width:26.1px;stroke-linecap:butt;stroke-linejoin:miter;stroke-opacity:1"/>
<path d="M 2337.42,308.103 L 2443.44,246.892" style="fill:none;fill-rule:evenodd;stroke:#FFFFAA;stroke-width:26.1px;stroke-linecap:butt;stroke-linejoin:miter;stroke-opacity:1"/>
<path d="M 2443.44,246.892 L 2549.46,308.103" style="fill:none;fill-rule:evenodd;stroke:#FFFFAA;stroke-width:26.1px;stroke-linecap:butt;stroke-linejoin:miter;stroke-opacity:1"/>
<path d="M 2443.44,246.892 L 2443.44,124.47" style="fill:none;fill-rule:evenodd;stroke:#FFFFAA;stroke-width:26.1px;stroke-linecap:butt;stroke-linejoin:miter;stroke-opacity:1"/>
<path d="M 3503.46,362.088 L 3409.7,283.369" style="fill:none;fill-rule:evenodd;stroke:#FFFFAA;stroke-width:26.1px;stroke-linecap:butt;stroke-linejoin:miter;stroke-opacity:1"/>
<path d="M 3409.7,283.369 L 3431,162.812" style="fill:none;fill-rule:evenodd;stroke:#FFFFAA;stroke-width:26.1px;stroke-linecap:butt;stroke-linejoin:miter;stroke-opacity:1"/>
<path d="M 3294.65,325.206 L 3200.89,246.487" style="fill:none;fill-rule:evenodd;stroke:#FFCC99;stroke-width:26.1px;stroke-linecap:butt;stroke-linejoin:miter;stroke-opacity:1"/>
<path d="M 3200.89,246.487 L 3222.19,125.931" style="fill:none;fill-rule:evenodd;stroke:#FFCC99;stroke-width:26.1px;stroke-linecap:butt;stroke-linejoin:miter;stroke-opacity:1"/>
<path d="M 3200.89,246.487 L 3085.84,288.325" style="fill:none;fill-rule:evenodd;stroke:#FFCC99;stroke-width:26.1px;stroke-linecap:butt;stroke-linejoin:miter;stroke-opacity:1"/>
<path d="M 3222.19,125.931 L 3128.43,47.2118" style="fill:none;fill-rule:evenodd;stroke:#FFCC99;stroke-width:26.1px;stroke-linecap:butt;stroke-linejoin:miter;stroke-opacity:1"/>
<path d="M 3128.43,47.2118 L 3013.38,89.0492" style="fill:none;fill-rule:evenodd;stroke:#FFCC99;stroke-width:26.1px;stroke-linecap:butt;stroke-linejoin:miter;stroke-opacity:1"/>
<path d="M 3013.38,89.0492 L 2992.08,209.606" style="fill:none;fill-rule:evenodd;stroke:#FFCC99;stroke-width:26.1px;stroke-linecap:butt;stroke-linejoin:miter;stroke-opacity:1"/>
<path d="M 2992.08,209.606 L 3085.84,288.325" style="fill:none;fill-rule:evenodd;stroke:#FFCC99;stroke-width:26.1px;stroke-linecap:butt;stroke-linejoin:miter;stroke-opacity:1"/>
<path d="M 2992.08,209.606 L 2888.24,274.449" style="fill:none;fill-rule:evenodd;stroke:#FFCC99;stroke-width:26.1px;stroke-linecap:butt;stroke-linejoin:miter;stroke-opacity:1"/>
<path d="M 3085.84,288.325 L 3039.95,401.819" style="fill:none;fill-rule:evenodd;stroke:#FFCC99;stroke-width:26.1px;stroke-linecap:butt;stroke-linejoin:miter;stroke-opacity:1"/>
<path d="M 3039.95,401.819 L 2917.83,393.244" style="fill:none;fill-rule:evenodd;stroke:#FFCC99;stroke-width:26.1px;stroke-linecap:butt;stroke-linejoin:miter;stroke-opacity:1"/>
<path d="M 2917.83,393.244 L 2888.24,274.449" style="fill:none;fill-rule:evenodd;stroke:#FFCC99;stroke-width:26.1px;stroke-linecap:butt;stroke-linejoin:miter;stroke-opacity:1"/>
<ellipse cx="496.538" cy="176.936" rx="24.4845" ry="24.4845" style="fill:#FFFFAA;fill-rule:evenodd;stroke:#FFFFAA;stroke-width:1px;stroke-linecap:butt;stroke-linejoin:miter;stroke-opacity:1"/>
<ellipse cx="602.559" cy="238.148" rx="24.4845" ry="24.4845" style="fill:#FFFFAA;fill-rule:evenodd;stroke:#FFFFAA;stroke-width:1px;stroke-linecap:butt;stroke-linejoin:miter;stroke-opacity:1"/>
<ellipse cx="602.559" cy="360.79" rx="24.4845" ry="24.4845" style="fill:#FFFFAA;fill-rule:evenodd;stroke:#FFFFAA;stroke-width:1px;stroke-linecap:butt;stroke-linejoin:miter;stroke-opacity:1"/>
<ellipse cx="708.58" cy="177.156" rx="24.4845" ry="24.4845" style="fill:#FFFFAA;fill-rule:evenodd;stroke:#FFFFAA;stroke-width:1px;stroke-linecap:butt;stroke-linejoin:miter;stroke-opacity:1"/>
<ellipse cx="814.601" cy="238.148" rx="24.4845" ry="24.4845" style="fill:#FFFFAA;fill-rule:evenodd;stroke:#FFFFAA;stroke-width:1px;stroke-linecap:butt;stroke-linejoin:miter;stroke-opacity:1"/>
<ellipse cx="920.622" cy="176.936" rx="24.4845" ry="24.4845" style="fill:#FFFFAA;fill-rule:evenodd;stroke:#FFFFAA;stroke-width:1px;stroke-linecap:butt;stroke-linejoin:miter;stroke-opacity:1"/>
<ellipse cx="814.601" cy="360.79" rx="24.4845" ry="24.4845" style="fill:#FFFFAA;fill-rule:evenodd;stroke:#FFFFAA;stroke-width:1px;stroke-linecap:butt;stroke-linejoin:miter;stroke-opacity:1"/>
<ellipse cx="1626.08" cy="445.149" rx="43.1001" ry="30.0379" style="fill:#FFCC99;fill-rule:evenodd;stroke:#FFCC99;stroke-width:1px;stroke-linecap:butt;stroke-linejoin:miter;stroke-opacity:1"/>
<ellipse cx="1572.36" cy="320.458" rx="24.4845" ry="24.4845" style="fill:#FFCC99;fill-rule:evenodd;stroke:#FFCC99;stroke-width:1px;stroke-linecap:butt;stroke-linejoin:miter;stroke-opacity:1"/>
<ellipse cx="1657.22" cy="232.221" rx="24.4845" ry="24.4845" style="fill:#FFCC99;fill-rule:evenodd;stroke:#FFCC99;stroke-width:1px;stroke-linecap:butt;stroke-linejoin:miter;stroke-opacity:1"/>
<ellipse cx="1623.24" cy="114.61" rx="24.4845" ry="24.4845" style="fill:#FFCC99;fill-rule:evenodd;stroke:#FFCC99;stroke-width:1px;stroke-linecap:butt;stroke-linejoin:miter;stroke-opacity:1"/>
<ellipse cx="1504.39" cy="85.2358" rx="24.4845" ry="24.4845" style="fill:#FFCC99;fill-rule:evenodd;stroke:#FFCC99;stroke-width:1px;stroke-linecap:butt;stroke-linejoin:miter;stroke-opacity:1"/>
<ellipse cx="1419.53" cy="173.472" rx="24.4845" ry="24.4845" style="fill:#FFCC99;fill-rule:evenodd;stroke:#FFCC99;stroke-width:1px;stroke-linecap:butt;stroke-linejoin:miter;stroke-opacity:1"/>
<ellipse cx="1453.51" cy="291.083" rx="24.4845" ry="24.4845" style="fill:#FFCC99;fill-rule:evenodd;stroke:#FFCC99;stroke-width:1px;stroke-linecap:butt;stroke-linejoin:miter;stroke-opacity:1"/>
<ellipse cx="1352.16" cy="359.748" rx="24.4845" ry="24.4845" style="fill:#FFCC99;fill-rule:evenodd;stroke:#FFCC99;stroke-width:1px;stroke-linecap:butt;stroke-linejoin:miter;stroke-opacity:1"/>
<ellipse cx="1255.54" cy="284.574" rx="24.4845" ry="24.4845" style="fill:#FFCC99;fill-rule:evenodd;stroke:#FFCC99;stroke-width:1px;stroke-linecap:butt;stroke-linejoin:miter;stroke-opacity:1"/>
<ellipse cx="1297.17" cy="169.449" rx="24.4845" ry="24.4845" style="fill:#FFCC99;fill-rule:evenodd;stroke:#FFCC99;stroke-width:1px;stroke-linecap:butt;stroke-linejoin:miter;stroke-opacity:1"/>
<ellipse cx="2337.42" cy="308.103" rx="24.4845" ry="24.4845" style="fill:#FFFFAA;fill-rule:evenodd;stroke:#FFFFAA;stroke-width:1px;stroke-linecap:butt;stroke-linejoin:miter;stroke-opacity:1"/>
<ellipse cx="2443.44" cy="246.892" rx="24.4845" ry="24.4845" style="fill:#FFFFAA;fill-rule:evenodd;stroke:#FFFFAA;stroke-width:1px;stroke-linecap:butt;stroke-linejoin:miter;stroke-opacity:1"/>
<ellipse cx="2549.46" cy="308.323" rx="24.4845" ry="24.4845" style="fill:#FFFFAA;fill-rule:evenodd;stroke:#FFFFAA;stroke-width:1px;stroke-linecap:butt;stroke-linejoin:miter;stroke-opacity:1"/>
<ellipse cx="2456.22" cy="124.69" rx="36.4584" ry="24.4845" style="fill:#FFFFAA;fill-rule:evenodd;stroke:#FFFFAA;stroke-width:1px;stroke-linecap:butt;stroke-linejoin:miter;stroke-opacity:1"/>
<ellipse cx="3503.46" cy="362.088" rx="24.4845" ry="24.4845" style="fill:#FFFFAA;fill-rule:evenodd;stroke:#FFFFAA;stroke-width:1px;stroke-linecap:butt;stroke-linejoin:miter;stroke-opacity:1"/>
<ellipse cx="3409.7" cy="283.369" rx="24.4845" ry="24.4845" style="fill:#FFFFAA;fill-rule:evenodd;stroke:#FFFFAA;stroke-width:1px;stroke-linecap:butt;stroke-linejoin:miter;stroke-opacity:1"/>
<ellipse cx="3431" cy="163.032" rx="24.4845" ry="24.4845" style="fill:#FFFFAA;fill-rule:evenodd;stroke:#FFFFAA;stroke-width:1px;stroke-linecap:butt;stroke-linejoin:miter;stroke-opacity:1"/>
<ellipse cx="3294.65" cy="340.782" rx="24.4845" ry="42.0531" style="fill:#FFCC99;fill-rule:evenodd;stroke:#FFCC99;stroke-width:1px;stroke-linecap:butt;stroke-linejoin:miter;stroke-opacity:1"/>
<ellipse cx="3200.89" cy="246.487" rx="24.4845" ry="24.4845" style="fill:#FFCC99;fill-rule:evenodd;stroke:#FFCC99;stroke-width:1px;stroke-linecap:butt;stroke-linejoin:miter;stroke-opacity:1"/>
<ellipse cx="3222.19" cy="125.931" rx="24.4845" ry="24.4845" style="fill:#FFCC99;fill-rule:evenodd;stroke:#FFCC99;stroke-width:1px;stroke-linecap:butt;stroke-linejoin:miter;stroke-opacity:1"/>
<ellipse cx="3128.43" cy="47.2118" rx="24.4845" ry="24.4845" style="fill:#FFCC99;fill-rule:evenodd;stroke:#FFCC99;stroke-width:1px;stroke-linecap:butt;stroke-linejoin:miter;stroke-opacity:1"/>
<ellipse cx="3013.38" cy="89.0492" rx="24.4845" ry="24.4845" style="fill:#FFCC99;fill-rule:evenodd;stroke:#FFCC99;stroke-width:1px;stroke-linecap:butt;stroke-linejoin:miter;stroke-opacity:1"/>
<ellipse cx="2992.08" cy="209.606" rx="24.4845" ry="24.4845" style="fill:#FFCC99;fill-rule:evenodd;stroke:#FFCC99;stroke-width:1px;stroke-linecap:butt;stroke-linejoin:miter;stroke-opacity:1"/>
<ellipse cx="3085.84" cy="288.325" rx="24.4845" ry="24.4845" style="fill:#FFCC99;fill-rule:evenodd;stroke:#FFCC99;stroke-width:1px;stroke-linecap:butt;stroke-linejoin:miter;stroke-opacity:1"/>
<ellipse cx="3039.95" cy="401.819" rx="24.4845" ry="24.4845" style="fill:#FFCC99;fill-rule:evenodd;stroke:#FFCC99;stroke-width:1px;stroke-linecap:butt;stroke-linejoin:miter;stroke-opacity:1"/>
<ellipse cx="2917.83" cy="393.244" rx="24.4845" ry="24.4845" style="fill:#FFCC99;fill-rule:evenodd;stroke:#FFCC99;stroke-width:1px;stroke-linecap:butt;stroke-linejoin:miter;stroke-opacity:1"/>
<ellipse cx="2888.24" cy="274.449" rx="24.4845" ry="24.4845" style="fill:#FFCC99;fill-rule:evenodd;stroke:#FFCC99;stroke-width:1px;stroke-linecap:butt;stroke-linejoin:miter;stroke-opacity:1"/>
<path class="bond-0" d="M 496.538,176.936 L 602.559,238.148" style="fill:none;fill-rule:evenodd;stroke:#000000;stroke-width:2.0px;stroke-linecap:butt;stroke-linejoin:miter;stroke-opacity:1"/>
<path class="bond-1" d="M 590.317,238.148 L 590.317,290.669" style="fill:none;fill-rule:evenodd;stroke:#000000;stroke-width:2.0px;stroke-linecap:butt;stroke-linejoin:miter;stroke-opacity:1"/>
<path class="bond-1" d="M 590.317,290.669 L 590.317,343.19" style="fill:none;fill-rule:evenodd;stroke:#FF0000;stroke-width:2.0px;stroke-linecap:butt;stroke-linejoin:miter;stroke-opacity:1"/>
<path class="bond-1" d="M 614.802,238.148 L 614.802,290.669" style="fill:none;fill-rule:evenodd;stroke:#000000;stroke-width:2.0px;stroke-linecap:butt;stroke-linejoin:miter;stroke-opacity:1"/>
<path class="bond-1" d="M 614.802,290.669 L 614.802,343.19" style="fill:none;fill-rule:evenodd;stroke:#FF0000;stroke-width:2.0px;stroke-linecap:butt;stroke-linejoin:miter;stroke-opacity:1"/>
<path class="bond-2" d="M 602.559,238.148 L 647.54,212.178" style="fill:none;fill-rule:evenodd;stroke:#000000;stroke-width:2.0px;stroke-linecap:butt;stroke-linejoin:miter;stroke-opacity:1"/>
<path class="bond-2" d="M 647.54,212.178 L 692.52,186.209" style="fill:none;fill-rule:evenodd;stroke:#FF0000;stroke-width:2.0px;stroke-linecap:butt;stroke-linejoin:miter;stroke-opacity:1"/>
<path class="bond-3" d="M 724.641,186.209 L 769.621,212.178" style="fill:none;fill-rule:evenodd;stroke:#FF0000;stroke-width:2.0px;stroke-linecap:butt;stroke-linejoin:miter;stroke-opacity:1"/>
<path class="bond-3" d="M 769.621,212.178 L 814.601,238.148" style="fill:none;fill-rule:evenodd;stroke:#000000;stroke-width:2.0px;stroke-linecap:butt;stroke-linejoin:miter;stroke-opacity:1"/>
<path class="bond-4" d="M 814.601,238.148 L 920.622,176.936" style="fill:none;fill-rule:evenodd;stroke:#000000;stroke-width:2.0px;stroke-linecap:butt;stroke-linejoin:miter;stroke-opacity:1"/>
<path class="bond-5" d="M 802.359,238.148 L 802.359,290.669" style="fill:none;fill-rule:evenodd;stroke:#000000;stroke-width:2.0px;stroke-linecap:butt;stroke-linejoin:miter;stroke-opacity:1"/>
<path class="bond-5" d="M 802.359,290.669 L 802.359,343.19" style="fill:none;fill-rule:evenodd;stroke:#FF0000;stroke-width:2.0px;stroke-linecap:butt;stroke-linejoin:miter;stroke-opacity:1"/>
<path class="bond-5" d="M 826.844,238.148 L 826.844,290.669" style="fill:none;fill-rule:evenodd;stroke:#000000;stroke-width:2.0px;stroke-linecap:butt;stroke-linejoin:miter;stroke-opacity:1"/>
<path class="bond-5" d="M 826.844,290.669 L 826.844,343.19" style="fill:none;fill-rule:evenodd;stroke:#FF0000;stroke-width:2.0px;stroke-linecap:butt;stroke-linejoin:miter;stroke-opacity:1"/>
<path class="bond-6" d="M 1601.37,420.848 L 1586.86,370.653" style="fill:none;fill-rule:evenodd;stroke:#0000FF;stroke-width:2.0px;stroke-linecap:butt;stroke-linejoin:miter;stroke-opacity:1"/>
<path class="bond-6" d="M 1586.86,370.653 L 1572.36,320.458" style="fill:none;fill-rule:evenodd;stroke:#000000;stroke-width:2.0px;stroke-linecap:butt;stroke-linejoin:miter;stroke-opacity:1"/>
<path class="bond-7" d="M 1572.36,320.458 L 1657.22,232.221" style="fill:none;fill-rule:evenodd;stroke:#000000;stroke-width:2.0px;stroke-linecap:butt;stroke-linejoin:miter;stroke-opacity:1"/>
<path class="bond-7" d="M 1567.44,290.25 L 1626.85,228.484" style="fill:none;fill-rule:evenodd;stroke:#000000;stroke-width:2.0px;stroke-linecap:butt;stroke-linejoin:miter;stroke-opacity:1;stroke-dasharray:6,6"/>
<path class="bond-15" d="M 1572.36,320.458 L 1453.51,291.083" style="fill:none;fill-rule:evenodd;stroke:#000000;stroke-width:2.0px;stroke-linecap:butt;stroke-linejoin:miter;stroke-opacity:1"/>
<path class="bond-15" d="M 1560.41,292.283 L 1477.22,271.72" style="fill:none;fill-rule:evenodd;stroke:#000000;stroke-width:2.0px;stroke-linecap:butt;stroke-linejoin:miter;stroke-opacity:1;stroke-dasharray:6,6"/>
<path class="bond-8" d="M 1657.22,232.221 L 1623.24,114.61" style="fill:none;fill-rule:evenodd;stroke:#000000;stroke-width:2.0px;stroke-linecap:butt;stroke-linejoin:miter;stroke-opacity:1"/>
<path class="bond-8" d="M 1628.6,221.377 L 1604.81,139.049" style="fill:none;fill-rule:evenodd;stroke:#000000;stroke-width:2.0px;stroke-linecap:butt;stroke-linejoin:miter;stroke-opacity:1;stroke-dasharray:6,6"/>
<path class="bond-9" d="M 1623.24,114.61 L 1504.39,85.2358" style="fill:none;fill-rule:evenodd;stroke:#000000;stroke-width:2.0px;stroke-linecap:butt;stroke-linejoin:miter;stroke-opacity:1"/>
<path class="bond-9" d="M 1599.54,133.973 L 1516.34,113.411" style="fill:none;fill-rule:evenodd;stroke:#000000;stroke-width:2.0px;stroke-linecap:butt;stroke-linejoin:miter;stroke-opacity:1;stroke-dasharray:6,6"/>
<path class="bond-10" d="M 1504.39,85.2358 L 1419.53,173.472" style="fill:none;fill-rule:evenodd;stroke:#000000;stroke-width:2.0px;stroke-linecap:butt;stroke-linejoin:miter;stroke-opacity:1"/>
<path class="bond-10" d="M 1509.31,115.444 L 1449.91,177.209" style="fill:none;fill-rule:evenodd;stroke:#000000;stroke-width:2.0px;stroke-linecap:butt;stroke-linejoin:miter;stroke-opacity:1;stroke-dasharray:6,6"/>
<path class="bond-11" d="M 1419.53,173.472 L 1453.51,291.083" style="fill:none;fill-rule:evenodd;stroke:#000000;stroke-width:2.0px;stroke-linecap:butt;stroke-linejoin:miter;stroke-opacity:1"/>
<path class="bond-11" d="M 1448.15,184.317 L 1471.94,266.645" style="fill:none;fill-rule:evenodd;stroke:#000000;stroke-width:2.0px;stroke-linecap:butt;stroke-linejoin:miter;stroke-opacity:1;stroke-dasharray:6,6"/>
<path class="bond-16" d="M 1419.53,173.472 L 1297.17,169.449" style="fill:none;fill-rule:evenodd;stroke:#000000;stroke-width:2.0px;stroke-linecap:butt;stroke-linejoin:miter;stroke-opacity:1"/>
<path class="bond-12" d="M 1453.51,291.083 L 1352.16,359.748" style="fill:none;fill-rule:evenodd;stroke:#000000;stroke-width:2.0px;stroke-linecap:butt;stroke-linejoin:miter;stroke-opacity:1"/>
<path class="bond-13" d="M 1352.16,359.748 L 1255.54,284.574" style="fill:none;fill-rule:evenodd;stroke:#000000;stroke-width:2.0px;stroke-linecap:butt;stroke-linejoin:miter;stroke-opacity:1"/>
<path class="bond-14" d="M 1255.54,284.574 L 1297.17,169.449" style="fill:none;fill-rule:evenodd;stroke:#000000;stroke-width:2.0px;stroke-linecap:butt;stroke-linejoin:miter;stroke-opacity:1"/>
<path class="bond-17" d="M 2337.42,308.103 L 2443.44,246.892" style="fill:none;fill-rule:evenodd;stroke:#000000;stroke-width:2.0px;stroke-linecap:butt;stroke-linejoin:miter;stroke-opacity:1"/>
<path class="bond-18" d="M 2437.32,257.494 L 2482.3,283.464" style="fill:none;fill-rule:evenodd;stroke:#000000;stroke-width:2.0px;stroke-linecap:butt;stroke-linejoin:miter;stroke-opacity:1"/>
<path class="bond-18" d="M 2482.3,283.464 L 2527.28,309.433" style="fill:none;fill-rule:evenodd;stroke:#FF0000;stroke-width:2.0px;stroke-linecap:butt;stroke-linejoin:miter;stroke-opacity:1"/>
<path class="bond-18" d="M 2449.56,236.29 L 2494.54,262.259" style="fill:none;fill-rule:evenodd;stroke:#000000;stroke-width:2.0px;stroke-linecap:butt;stroke-linejoin:miter;stroke-opacity:1"/>
<path class="bond-18" d="M 2494.54,262.259 L 2539.52,288.229" style="fill:none;fill-rule:evenodd;stroke:#FF0000;stroke-width:2.0px;stroke-linecap:butt;stroke-linejoin:miter;stroke-opacity:1"/>
<path class="bond-19" d="M 2443.44,246.892 L 2443.44,194.591" style="fill:none;fill-rule:evenodd;stroke:#000000;stroke-width:2.0px;stroke-linecap:butt;stroke-linejoin:miter;stroke-opacity:1"/>
<path class="bond-19" d="M 2443.44,194.591 L 2443.44,142.29" style="fill:none;fill-rule:evenodd;stroke:#FF0000;stroke-width:2.0px;stroke-linecap:butt;stroke-linejoin:miter;stroke-opacity:1"/>
<path class="bond-20" d="M 3503.46,362.088 L 3409.7,283.369" style="fill:none;fill-rule:evenodd;stroke:#000000;stroke-width:2.0px;stroke-linecap:butt;stroke-linejoin:miter;stroke-opacity:1"/>
<path class="bond-21" d="M 3421.76,285.498 L 3430.83,234.13" style="fill:none;fill-rule:evenodd;stroke:#000000;stroke-width:2.0px;stroke-linecap:butt;stroke-linejoin:miter;stroke-opacity:1"/>
<path class="bond-21" d="M 3430.83,234.13 L 3439.91,182.762" style="fill:none;fill-rule:evenodd;stroke:#FF0000;stroke-width:2.0px;stroke-linecap:butt;stroke-linejoin:miter;stroke-opacity:1"/>
<path class="bond-21" d="M 3397.65,281.24 L 3406.72,229.872" style="fill:none;fill-rule:evenodd;stroke:#000000;stroke-width:2.0px;stroke-linecap:butt;stroke-linejoin:miter;stroke-opacity:1"/>
<path class="bond-21" d="M 3406.72,229.872 L 3415.79,178.504" style="fill:none;fill-rule:evenodd;stroke:#FF0000;stroke-width:2.0px;stroke-linecap:butt;stroke-linejoin:miter;stroke-opacity:1"/>
<path class="bond-22" d="M 3409.7,283.369 L 3359.08,301.778" style="fill:none;fill-rule:evenodd;stroke:#000000;stroke-width:2.0px;stroke-linecap:butt;stroke-linejoin:miter;stroke-opacity:1"/>
<path class="bond-22" d="M 3359.08,301.778 L 3308.45,320.188" style="fill:none;fill-rule:evenodd;stroke:#0000FF;stroke-width:2.0px;stroke-linecap:butt;stroke-linejoin:miter;stroke-opacity:1"/>
<path class="bond-23" d="M 3280.85,313.619 L 3240.87,280.053" style="fill:none;fill-rule:evenodd;stroke:#0000FF;stroke-width:2.0px;stroke-linecap:butt;stroke-linejoin:miter;stroke-opacity:1"/>
<path class="bond-23" d="M 3240.87,280.053 L 3200.89,246.487" style="fill:none;fill-rule:evenodd;stroke:#000000;stroke-width:2.0px;stroke-linecap:butt;stroke-linejoin:miter;stroke-opacity:1"/>
<path class="bond-24" d="M 3200.89,246.487 L 3222.19,125.931" style="fill:none;fill-rule:evenodd;stroke:#000000;stroke-width:2.0px;stroke-linecap:butt;stroke-linejoin:miter;stroke-opacity:1"/>
<path class="bond-24" d="M 3179.98,224.145 L 3194.88,139.756" style="fill:none;fill-rule:evenodd;stroke:#000000;stroke-width:2.0px;stroke-linecap:butt;stroke-linejoin:miter;stroke-opacity:1;stroke-dasharray:6,6"/>
<path class="bond-32" d="M 3200.89,246.487 L 3085.84,288.325" style="fill:none;fill-rule:evenodd;stroke:#000000;stroke-width:2.0px;stroke-linecap:butt;stroke-linejoin:miter;stroke-opacity:1"/>
<path class="bond-32" d="M 3175.27,229.753 L 3094.73,259.039" style="fill:none;fill-rule:evenodd;stroke:#000000;stroke-width:2.0px;stroke-linecap:butt;stroke-linejoin:miter;stroke-opacity:1;stroke-dasharray:6,6"/>
<path class="bond-25" d="M 3222.19,125.931 L 3128.43,47.2118" style="fill:none;fill-rule:evenodd;stroke:#000000;stroke-width:2.0px;stroke-linecap:butt;stroke-linejoin:miter;stroke-opacity:1"/>
<path class="bond-25" d="M 3192.38,132.875 L 3126.75,77.7713" style="fill:none;fill-rule:evenodd;stroke:#000000;stroke-width:2.0px;stroke-linecap:butt;stroke-linejoin:miter;stroke-opacity:1;stroke-dasharray:6,6"/>
<path class="bond-26" d="M 3128.43,47.2118 L 3013.38,89.0492" style="fill:none;fill-rule:evenodd;stroke:#000000;stroke-width:2.0px;stroke-linecap:butt;stroke-linejoin:miter;stroke-opacity:1"/>
<path class="bond-26" d="M 3119.54,76.4977 L 3039,105.784" style="fill:none;fill-rule:evenodd;stroke:#000000;stroke-width:2.0px;stroke-linecap:butt;stroke-linejoin:miter;stroke-opacity:1;stroke-dasharray:6,6"/>
<path class="bond-27" d="M 3013.38,89.0492 L 2992.08,209.606" style="fill:none;fill-rule:evenodd;stroke:#000000;stroke-width:2.0px;stroke-linecap:butt;stroke-linejoin:miter;stroke-opacity:1"/>
<path class="bond-27" d="M 3034.29,111.391 L 3019.39,195.781" style="fill:none;fill-rule:evenodd;stroke:#000000;stroke-width:2.0px;stroke-linecap:butt;stroke-linejoin:miter;stroke-opacity:1;stroke-dasharray:6,6"/>
<path class="bond-28" d="M 2992.08,209.606 L 3085.84,288.325" style="fill:none;fill-rule:evenodd;stroke:#000000;stroke-width:2.0px;stroke-linecap:butt;stroke-linejoin:miter;stroke-opacity:1"/>
<path class="bond-28" d="M 3021.89,202.662 L 3087.52,257.765" style="fill:none;fill-rule:evenodd;stroke:#000000;stroke-width:2.0px;stroke-linecap:butt;stroke-linejoin:miter;stroke-opacity:1;stroke-dasharray:6,6"/>
<path class="bond-33" d="M 2992.08,209.606 L 2888.24,274.449" style="fill:none;fill-rule:evenodd;stroke:#000000;stroke-width:2.0px;stroke-linecap:butt;stroke-linejoin:miter;stroke-opacity:1"/>
<path class="bond-29" d="M 3085.84,288.325 L 3039.95,401.819" style="fill:none;fill-rule:evenodd;stroke:#000000;stroke-width:2.0px;stroke-linecap:butt;stroke-linejoin:miter;stroke-opacity:1"/>
<path class="bond-30" d="M 3039.95,401.819 L 2917.83,393.244" style="fill:none;fill-rule:evenodd;stroke:#000000;stroke-width:2.0px;stroke-linecap:butt;stroke-linejoin:miter;stroke-opacity:1"/>
<path class="bond-31" d="M 2917.83,393.244 L 2888.24,274.449" style="fill:none;fill-rule:evenodd;stroke:#000000;stroke-width:2.0px;stroke-linecap:butt;stroke-linejoin:miter;stroke-opacity:1"/>
<path class="atom-2" d="M 589.559 360.65 Q 589.559 353.85, 592.919 350.05 Q 596.279 346.25, 602.559 346.25 Q 608.839 346.25, 612.199 350.05 Q 615.559 353.85, 615.559 360.65 Q 615.559 367.53, 612.159 371.45 Q 608.759 375.33, 602.559 375.33 Q 596.319 375.33, 592.919 371.45 Q 589.559 367.57, 589.559 360.65 M 602.559 372.13 Q 606.879 372.13, 609.199 369.25 Q 611.559 366.33, 611.559 360.65 Q 611.559 355.09, 609.199 352.29 Q 606.879 349.45, 602.559 349.45 Q 598.239 349.45, 595.879 352.25 Q 593.559 355.05, 593.559 360.65 Q 593.559 366.37, 595.879 369.25 Q 598.239 372.13, 602.559 372.13 " fill="#FF0000"/>
<path class="atom-3" d="M 695.58 177.016 Q 695.58 170.216, 698.94 166.416 Q 702.3 162.616, 708.58 162.616 Q 714.86 162.616, 718.22 166.416 Q 721.58 170.216, 721.58 177.016 Q 721.58 183.896, 718.18 187.816 Q 714.78 191.696, 708.58 191.696 Q 702.34 191.696, 698.94 187.816 Q 695.58 183.936, 695.58 177.016 M 708.58 188.496 Q 712.9 188.496, 715.22 185.616 Q 717.58 182.696, 717.58 177.016 Q 717.58 171.456, 715.22 168.656 Q 712.9 165.816, 708.58 165.816 Q 704.26 165.816, 701.9 168.616 Q 699.58 171.416, 699.58 177.016 Q 699.58 182.736, 701.9 185.616 Q 704.26 188.496, 708.58 188.496 " fill="#FF0000"/>
<path class="atom-6" d="M 801.601 360.65 Q 801.601 353.85, 804.961 350.05 Q 808.321 346.25, 814.601 346.25 Q 820.881 346.25, 824.241 350.05 Q 827.601 353.85, 827.601 360.65 Q 827.601 367.53, 824.201 371.45 Q 820.801 375.33, 814.601 375.33 Q 808.361 375.33, 804.961 371.45 Q 801.601 367.57, 801.601 360.65 M 814.601 372.13 Q 818.921 372.13, 821.241 369.25 Q 823.601 366.33, 823.601 360.65 Q 823.601 355.09, 821.241 352.29 Q 818.921 349.45, 814.601 349.45 Q 810.281 349.45, 807.921 352.25 Q 805.601 355.05, 805.601 360.65 Q 805.601 366.37, 807.921 369.25 Q 810.281 372.13, 814.601 372.13 " fill="#FF0000"/>
<path class="atom-7" d="M 1600.08 423.909 L 1609.36 438.909 Q 1610.28 440.389, 1611.76 443.069 Q 1613.24 445.749, 1613.32 445.909 L 1613.32 423.909 L 1617.08 423.909 L 1617.08 452.229 L 1613.2 452.229 L 1603.24 435.829 Q 1602.08 433.909, 1600.84 431.709 Q 1599.64 429.509, 1599.28 428.829 L 1599.28 452.229 L 1595.6 452.229 L 1595.6 423.909 L 1600.08 423.909 " fill="#0000FF"/>
<path class="atom-7" d="M 1620.48 423.909 L 1624.32 423.909 L 1624.32 435.949 L 1638.8 435.949 L 1638.8 423.909 L 1642.64 423.909 L 1642.64 452.229 L 1638.8 452.229 L 1638.8 439.149 L 1624.32 439.149 L 1624.32 452.229 L 1620.48 452.229 L 1620.48 423.909 " fill="#0000FF"/>
<path class="atom-7" d="M 1644.02 451.235 Q 1644.7 449.467, 1646.34 448.49 Q 1647.98 447.487, 1650.25 447.487 Q 1653.07 447.487, 1654.66 449.018 Q 1656.24 450.549, 1656.24 453.268 Q 1656.24 456.04, 1654.18 458.627 Q 1652.15 461.215, 1647.92 464.277 L 1656.56 464.277 L 1656.56 466.389 L 1643.96 466.389 L 1643.96 464.62 Q 1647.45 462.139, 1649.51 460.291 Q 1651.59 458.443, 1652.6 456.779 Q 1653.6 455.116, 1653.6 453.4 Q 1653.6 451.605, 1652.7 450.602 Q 1651.81 449.599, 1650.25 449.599 Q 1648.74 449.599, 1647.74 450.206 Q 1646.74 450.813, 1646.02 452.159 L 1644.02 451.235 " fill="#0000FF"/>
<path class="atom-19" d="M 2536.46 308.183 Q 2536.46 301.383, 2539.82 297.583 Q 2543.18 293.783, 2549.46 293.783 Q 2555.74 293.783, 2559.1 297.583 Q 2562.46 301.383, 2562.46 308.183 Q 2562.46 315.063, 2559.06 318.983 Q 2555.66 322.863, 2549.46 322.863 Q 2543.22 322.863, 2539.82 318.983 Q 2536.46 315.103, 2536.46 308.183 M 2549.46 319.663 Q 2553.78 319.663, 2556.1 316.783 Q 2558.46 313.863, 2558.46 308.183 Q 2558.46 302.623, 2556.1 299.823 Q 2553.78 296.983, 2549.46 296.983 Q 2545.14 296.983, 2542.78 299.783 Q 2540.46 302.583, 2540.46 308.183 Q 2540.46 313.903, 2542.78 316.783 Q 2545.14 319.663, 2549.46 319.663 " fill="#FF0000"/>
<path class="atom-20" d="M 2430.44 124.55 Q 2430.44 117.75, 2433.8 113.95 Q 2437.16 110.15, 2443.44 110.15 Q 2449.72 110.15, 2453.08 113.95 Q 2456.44 117.75, 2456.44 124.55 Q 2456.44 131.43, 2453.04 135.35 Q 2449.64 139.23, 2443.44 139.23 Q 2437.2 139.23, 2433.8 135.35 Q 2430.44 131.47, 2430.44 124.55 M 2443.44 136.03 Q 2447.76 136.03, 2450.08 133.15 Q 2452.44 130.23, 2452.44 124.55 Q 2452.44 118.99, 2450.08 116.19 Q 2447.76 113.35, 2443.44 113.35 Q 2439.12 113.35, 2436.76 116.15 Q 2434.44 118.95, 2434.44 124.55 Q 2434.44 130.27, 2436.76 133.15 Q 2439.12 136.03, 2443.44 136.03 " fill="#FF0000"/>
<path class="atom-20" d="M 2459.84 110.47 L 2463.68 110.47 L 2463.68 122.51 L 2478.16 122.51 L 2478.16 110.47 L 2482 110.47 L 2482 138.79 L 2478.16 138.79 L 2478.16 125.71 L 2463.68 125.71 L 2463.68 138.79 L 2459.84 138.79 L 2459.84 110.47 " fill="#FF0000"/>
<path class="atom-23" d="M 3418 162.892 Q 3418 156.092, 3421.36 152.292 Q 3424.72 148.492, 3431 148.492 Q 3437.28 148.492, 3440.64 152.292 Q 3444 156.092, 3444 162.892 Q 3444 169.772, 3440.6 173.692 Q 3437.2 177.572, 3431 177.572 Q 3424.76 177.572, 3421.36 173.692 Q 3418 169.812, 3418 162.892 M 3431 174.372 Q 3435.32 174.372, 3437.64 171.492 Q 3440 168.572, 3440 162.892 Q 3440 157.332, 3437.64 154.532 Q 3435.32 151.692, 3431 151.692 Q 3426.68 151.692, 3424.32 154.492 Q 3422 157.292, 3422 162.892 Q 3422 168.612, 3424.32 171.492 Q 3426.68 174.372, 3431 174.372 " fill="#FF0000"/>
<path class="atom-24" d="M 3288.39 311.046 L 3297.67 326.046 Q 3298.59 327.526, 3300.07 330.206 Q 3301.55 332.886, 3301.63 333.046 L 3301.63 311.046 L 3305.39 311.046 L 3305.39 339.366 L 3301.51 339.366 L 3291.55 322.966 Q 3290.39 321.046, 3289.15 318.846 Q 3287.95 316.646, 3287.59 315.966 L 3287.59 339.366 L 3283.91 339.366 L 3283.91 311.046 L 3288.39 311.046 " fill="#0000FF"/>
<path class="atom-24" d="M 3283.57 342.198 L 3287.41 342.198 L 3287.41 354.238 L 3301.89 354.238 L 3301.89 342.198 L 3305.73 342.198 L 3305.73 370.518 L 3301.89 370.518 L 3301.89 357.438 L 3287.41 357.438 L 3287.41 370.518 L 3283.57 370.518 L 3283.57 342.198 " fill="#0000FF"/>
<path class="note" d="M 482.846 200.127 L 485.946 200.127 L 485.946 189.547 L 482.526 190.607 L 482.066 189.427 L 486.406 187.487 L 487.826 187.727 L 487.826 200.127 L 490.606 200.127 L 490.606 201.727 L 482.846 201.727 L 482.846 200.127 " fill="#000000"/>
<path class="note" d="M 597.829 213.424 Q 598.349 212.084, 599.589 211.344 Q 600.829 210.584, 602.549 210.584 Q 604.689 210.584, 605.889 211.744 Q 607.089 212.904, 607.089 214.964 Q 607.089 217.064, 605.529 219.024 Q 603.989 220.984, 600.789 223.304 L 607.329 223.304 L 607.329 224.904 L 597.789 224.904 L 597.789 223.564 Q 600.429 221.684, 601.989 220.284 Q 603.569 218.884, 604.329 217.624 Q 605.089 216.364, 605.089 215.064 Q 605.089 213.704, 604.409 212.944 Q 603.729 212.184, 602.549 212.184 Q 601.409 212.184, 600.649 212.644 Q 599.889 213.104, 599.349 214.124 L 597.829 213.424 " fill="#000000"/>
<path class="note" d="M 604.599 401.078 Q 605.979 401.478, 606.639 402.378 Q 607.319 403.258, 607.319 404.658 Q 607.319 405.858, 606.719 406.798 Q 606.119 407.718, 605.019 408.238 Q 603.919 408.738, 602.479 408.738 Q 600.959 408.738, 599.819 408.218 Q 598.699 407.678, 597.799 406.598 L 598.939 405.438 Q 599.819 406.398, 600.559 406.778 Q 601.299 407.138, 602.479 407.138 Q 603.759 407.138, 604.539 406.458 Q 605.319 405.758, 605.319 404.638 Q 605.319 403.198, 604.499 402.558 Q 603.699 401.898, 601.959 401.898 L 600.939 401.898 L 600.939 400.458 L 601.839 400.458 Q 603.379 400.438, 604.199 399.778 Q 605.019 399.098, 605.019 397.838 Q 605.019 396.918, 604.339 396.378 Q 603.659 395.818, 602.499 395.818 Q 601.319 395.818, 600.579 396.238 Q 599.859 396.658, 599.299 397.718 L 597.919 396.978 Q 598.419 395.798, 599.619 395.018 Q 600.819 394.218, 602.499 394.218 Q 604.579 394.218, 605.799 395.198 Q 607.019 396.178, 607.019 397.838 Q 607.019 398.978, 606.399 399.798 Q 605.779 400.618, 604.599 401.078 " fill="#000000"/>
<path class="note" d="M 695.94 141.649 L 699.04 141.649 L 699.04 131.069 L 695.62 132.129 L 695.16 130.949 L 699.5 129.009 L 700.92 129.249 L 700.92 141.649 L 703.7 141.649 L 703.7 143.249 L 695.94 143.249 L 695.94 141.649 " fill="#000000"/>
<path class="note" d="M 711.48 130.689 L 704.06 130.689 L 704.06 129.089 L 713.46 129.089 L 713.46 130.509 L 707.74 143.249 L 705.82 143.249 L 711.48 130.689 " fill="#000000"/>
<path class="note" d="M 801.591 202.86 L 804.691 202.86 L 804.691 192.28 L 801.271 193.34 L 800.811 192.16 L 805.151 190.22 L 806.571 190.46 L 806.571 202.86 L 809.351 202.86 L 809.351 204.46 L 801.591 204.46 L 801.591 202.86 " fill="#000000"/>
<path class="note" d="M 815.411 195.6 Q 816.651 195.6, 817.671 196.14 Q 818.691 196.66, 819.271 197.66 Q 819.851 198.64, 819.851 199.98 Q 819.851 201.44, 819.131 202.5 Q 818.431 203.54, 817.271 204.08 Q 816.111 204.62, 814.791 204.62 Q 813.491 204.62, 812.291 204.14 Q 811.091 203.66, 810.271 202.74 L 811.471 201.5 Q 812.131 202.22, 813.031 202.62 Q 813.931 203, 814.851 203 Q 816.111 203, 816.971 202.22 Q 817.851 201.44, 817.851 200.02 Q 817.851 198.52, 816.971 197.82 Q 816.111 197.1, 814.731 197.1 Q 813.491 197.1, 812.111 197.64 L 811.011 197.12 L 811.691 190.3 L 818.971 190.3 L 818.771 191.9 L 813.331 191.9 L 812.911 196.1 Q 814.171 195.6, 815.411 195.6 " fill="#000000"/>
<path class="note" d="M 896.91 164.786 L 900.01 164.786 L 900.01 154.206 L 896.59 155.266 L 896.13 154.086 L 900.47 152.146 L 901.89 152.386 L 901.89 164.786 L 904.67 164.786 L 904.67 166.386 L 896.91 166.386 L 896.91 164.786 " fill="#000000"/>
<path class="note" d="M 914.47 161.526 L 916.17 161.526 L 916.17 163.126 L 914.47 163.126 L 914.47 166.386 L 912.59 166.386 L 912.59 163.126 L 905.27 163.126 L 905.27 161.866 L 911.47 152.226 L 914.47 152.226 L 914.47 161.526 M 907.59 161.526 L 912.59 161.526 L 912.59 153.506 L 907.59 161.526 " fill="#000000"/>
<path class="note" d="M 801.251 406.938 L 804.351 406.938 L 804.351 396.358 L 800.931 397.418 L 800.471 396.238 L 804.811 394.298 L 806.231 394.538 L 806.231 406.938 L 809.011 406.938 L 809.011 408.538 L 801.251 408.538 L 801.251 406.938 " fill="#000000"/>
<path class="note" d="M 815.911 399.698 Q 817.151 399.698, 818.131 400.238 Q 819.111 400.778, 819.651 401.758 Q 820.191 402.738, 820.191 403.978 Q 820.191 405.358, 819.571 406.438 Q 818.971 407.498, 817.891 408.098 Q 816.811 408.698, 815.431 408.698 Q 812.911 408.698, 811.631 406.998 Q 810.371 405.278, 810.371 401.878 Q 810.371 398.118, 811.931 396.178 Q 813.511 394.218, 816.531 394.218 Q 817.411 394.218, 818.151 394.418 Q 818.911 394.618, 819.631 395.038 L 818.851 396.378 Q 817.811 395.818, 816.551 395.818 Q 814.551 395.818, 813.531 397.118 Q 812.511 398.398, 812.391 401.058 Q 813.111 400.398, 814.011 400.058 Q 814.931 399.698, 815.911 399.698 M 815.451 407.058 Q 816.211 407.058, 816.831 406.658 Q 817.471 406.258, 817.831 405.558 Q 818.191 404.858, 818.191 403.998 Q 818.191 402.738, 817.491 402.018 Q 816.791 401.298, 815.551 401.298 Q 814.691 401.298, 813.831 401.658 Q 812.991 401.998, 812.391 402.598 Q 812.471 404.938, 813.211 405.998 Q 813.951 407.058, 815.451 407.058 " fill="#000000"/>
<path class="note" d="M 1621.42 479.493 L 1623.12 479.493 L 1623.12 481.093 L 1621.42 481.093 L 1621.42 484.353 L 1619.54 484.353 L 1619.54 481.093 L 1612.22 481.093 L 1612.22 479.833 L 1618.42 470.193 L 1621.42 470.193 L 1621.42 479.493 M 1614.54 479.493 L 1619.54 479.493 L 1619.54 471.473 L 1614.54 479.493 " fill="#000000"/>
<path class="note" d="M 1592.52 323.574 Q 1593.76 323.574, 1594.78 324.114 Q 1595.8 324.634, 1596.38 325.634 Q 1596.96 326.614, 1596.96 327.954 Q 1596.96 329.414, 1596.24 330.474 Q 1595.54 331.514, 1594.38 332.054 Q 1593.22 332.594, 1591.9 332.594 Q 1590.6 332.594, 1589.4 332.114 Q 1588.2 331.634, 1587.38 330.714 L 1588.58 329.474 Q 1589.24 330.194, 1590.14 330.594 Q 1591.04 330.974, 1591.96 330.974 Q 1593.22 330.974, 1594.08 330.194 Q 1594.96 329.414, 1594.96 327.994 Q 1594.96 326.494, 1594.08 325.794 Q 1593.22 325.074, 1591.84 325.074 Q 1590.6 325.074, 1589.22 325.614 L 1588.12 325.094 L 1588.8 318.274 L 1596.08 318.274 L 1595.88 319.874 L 1590.44 319.874 L 1590.02 324.074 Q 1591.28 323.574, 1592.52 323.574 " fill="#000000"/>
<path class="note" d="M 1677.66 235.437 Q 1678.9 235.437, 1679.88 235.977 Q 1680.86 236.517, 1681.4 237.497 Q 1681.94 238.477, 1681.94 239.717 Q 1681.94 241.097, 1681.32 242.177 Q 1680.72 243.237, 1679.64 243.837 Q 1678.56 244.437, 1677.18 244.437 Q 1674.66 244.437, 1673.38 242.737 Q 1672.12 241.017, 1672.12 237.617 Q 1672.12 233.857, 1673.68 231.917 Q 1675.26 229.957, 1678.28 229.957 Q 1679.16 229.957, 1679.9 230.157 Q 1680.66 230.357, 1681.38 230.777 L 1680.6 232.117 Q 1679.56 231.557, 1678.3 231.557 Q 1676.3 231.557, 1675.28 232.857 Q 1674.26 234.137, 1674.14 236.797 Q 1674.86 236.137, 1675.76 235.797 Q 1676.68 235.437, 1677.66 235.437 M 1677.2 242.797 Q 1677.96 242.797, 1678.58 242.397 Q 1679.22 241.997, 1679.58 241.297 Q 1679.94 240.597, 1679.94 239.737 Q 1679.94 238.477, 1679.24 237.757 Q 1678.54 237.037, 1677.3 237.037 Q 1676.44 237.037, 1675.58 237.397 Q 1674.74 237.737, 1674.14 238.337 Q 1674.22 240.677, 1674.96 241.737 Q 1675.7 242.797, 1677.2 242.797 " fill="#000000"/>
<path class="note" d="M 1640.1 94.4243 L 1632.68 94.4243 L 1632.68 92.8243 L 1642.08 92.8243 L 1642.08 94.2443 L 1636.36 106.984 L 1634.44 106.984 L 1640.1 94.4243 " fill="#000000"/>
<path class="note" d="M 1500.95 65.294 Q 1502.25 65.854, 1502.99 66.694 Q 1503.73 67.514, 1503.73 68.914 Q 1503.73 70.114, 1503.11 71.054 Q 1502.49 71.974, 1501.37 72.494 Q 1500.27 72.994, 1498.81 72.994 Q 1496.45 72.994, 1495.09 71.914 Q 1493.73 70.814, 1493.73 68.914 Q 1493.73 67.754, 1494.33 66.894 Q 1494.93 66.014, 1496.17 65.354 Q 1495.25 64.834, 1494.75 64.074 Q 1494.25 63.294, 1494.25 62.094 Q 1494.25 60.434, 1495.45 59.454 Q 1496.67 58.474, 1498.73 58.474 Q 1500.79 58.474, 1501.99 59.454 Q 1503.21 60.434, 1503.21 62.094 Q 1503.21 63.134, 1502.63 63.914 Q 1502.07 64.674, 1500.95 65.294 M 1498.73 59.974 Q 1497.55 59.974, 1496.89 60.534 Q 1496.25 61.094, 1496.25 62.094 Q 1496.25 62.834, 1496.69 63.334 Q 1497.13 63.814, 1497.75 64.094 Q 1498.39 64.374, 1499.61 64.794 Q 1500.47 64.194, 1500.83 63.554 Q 1501.21 62.914, 1501.21 62.094 Q 1501.21 61.094, 1500.55 60.534 Q 1499.91 59.974, 1498.73 59.974 M 1498.81 71.494 Q 1500.13 71.494, 1500.93 70.794 Q 1501.73 70.074, 1501.73 68.894 Q 1501.73 68.134, 1501.31 67.654 Q 1500.89 67.174, 1500.25 66.894 Q 1499.63 66.614, 1498.51 66.254 L 1497.61 65.954 Q 1496.61 66.554, 1496.17 67.274 Q 1495.73 67.974, 1495.73 68.894 Q 1495.73 70.074, 1496.57 70.794 Q 1497.41 71.494, 1498.81 71.494 " fill="#000000"/>
<path class="note" d="M 1413.72 146.711 Q 1416.24 146.711, 1417.5 148.431 Q 1418.78 150.131, 1418.78 153.531 Q 1418.78 157.291, 1417.2 159.251 Q 1415.64 161.191, 1412.62 161.191 Q 1411.74 161.191, 1410.98 160.991 Q 1410.24 160.791, 1409.52 160.371 L 1410.3 159.031 Q 1411.34 159.591, 1412.6 159.591 Q 1414.6 159.591, 1415.62 158.311 Q 1416.64 157.011, 1416.76 154.351 Q 1416.04 155.011, 1415.12 155.371 Q 1414.22 155.711, 1413.24 155.711 Q 1412 155.711, 1411.02 155.171 Q 1410.04 154.631, 1409.5 153.651 Q 1408.96 152.671, 1408.96 151.431 Q 1408.96 150.051, 1409.56 148.991 Q 1410.18 147.911, 1411.26 147.311 Q 1412.34 146.711, 1413.72 146.711 M 1410.96 151.411 Q 1410.96 152.671, 1411.66 153.391 Q 1412.36 154.111, 1413.6 154.111 Q 1414.46 154.111, 1415.3 153.771 Q 1416.16 153.411, 1416.76 152.811 Q 1416.68 150.471, 1415.94 149.411 Q 1415.2 148.351, 1413.7 148.351 Q 1412.94 148.351, 1412.3 148.751 Q 1411.68 149.151, 1411.32 149.851 Q 1410.96 150.551, 1410.96 151.411 " fill="#000000"/>
<path class="note" d="M 1420.78 289.704 L 1423.88 289.704 L 1423.88 279.124 L 1420.46 280.184 L 1420 279.004 L 1424.34 277.064 L 1425.76 277.304 L 1425.76 289.704 L 1428.54 289.704 L 1428.54 291.304 L 1420.78 291.304 L 1420.78 289.704 " fill="#000000"/>
<path class="note" d="M 1434.94 291.464 Q 1432.34 291.464, 1431.04 289.544 Q 1429.76 287.624, 1429.76 284.204 Q 1429.76 280.784, 1431.04 278.884 Q 1432.32 276.984, 1434.94 276.984 Q 1437.56 276.984, 1438.84 278.884 Q 1440.12 280.784, 1440.12 284.204 Q 1440.12 287.624, 1438.82 289.544 Q 1437.54 291.464, 1434.94 291.464 M 1434.94 289.864 Q 1436.48 289.864, 1437.3 288.444 Q 1438.12 287.004, 1438.12 284.204 Q 1438.12 281.424, 1437.3 280.004 Q 1436.48 278.584, 1434.94 278.584 Q 1433.42 278.584, 1432.58 280.004 Q 1431.76 281.424, 1431.76 284.204 Q 1431.76 287.004, 1432.58 288.444 Q 1433.42 289.864, 1434.94 289.864 " fill="#000000"/>
<path class="note" d="M 1338.92 385.661 L 1342.02 385.661 L 1342.02 375.081 L 1338.6 376.141 L 1338.14 374.961 L 1342.48 373.021 L 1343.9 373.261 L 1343.9 385.661 L 1346.68 385.661 L 1346.68 387.261 L 1338.92 387.261 L 1338.92 385.661 " fill="#000000"/>
<path class="note" d="M 1348.54 385.661 L 1351.64 385.661 L 1351.64 375.081 L 1348.22 376.141 L 1347.76 374.961 L 1352.1 373.021 L 1353.52 373.261 L 1353.52 385.661 L 1356.3 385.661 L 1356.3 387.261 L 1348.54 387.261 L 1348.54 385.661 " fill="#000000"/>
<path class="note" d="M 1222.91 295.798 L 1226.01 295.798 L 1226.01 285.218 L 1222.59 286.278 L 1222.13 285.098 L 1226.47 283.158 L 1227.89 283.398 L 1227.89 295.798 L 1230.67 295.798 L 1230.67 297.398 L 1222.91 297.398 L 1222.91 295.798 " fill="#000000"/>
<path class="note" d="M 1231.71 285.918 Q 1232.23 284.578, 1233.47 283.838 Q 1234.71 283.078, 1236.43 283.078 Q 1238.57 283.078, 1239.77 284.238 Q 1240.97 285.398, 1240.97 287.458 Q 1240.97 289.558, 1239.41 291.518 Q 1237.87 293.478, 1234.67 295.798 L 1241.21 295.798 L 1241.21 297.398 L 1231.67 297.398 L 1231.67 296.058 Q 1234.31 294.178, 1235.87 292.778 Q 1237.45 291.378, 1238.21 290.118 Q 1238.97 288.858, 1238.97 287.558 Q 1238.97 286.198, 1238.29 285.438 Q 1237.61 284.678, 1236.43 284.678 Q 1235.29 284.678, 1234.53 285.138 Q 1233.77 285.598, 1233.23 286.618 L 1231.71 285.918 " fill="#000000"/>
<path class="note" d="M 1272.79 158.117 L 1275.89 158.117 L 1275.89 147.537 L 1272.47 148.597 L 1272.01 147.417 L 1276.35 145.477 L 1277.77 145.717 L 1277.77 158.117 L 1280.55 158.117 L 1280.55 159.717 L 1272.79 159.717 L 1272.79 158.117 " fill="#000000"/>
<path class="note" d="M 1288.19 152.257 Q 1289.57 152.657, 1290.23 153.557 Q 1290.91 154.437, 1290.91 155.837 Q 1290.91 157.037, 1290.31 157.977 Q 1289.71 158.897, 1288.61 159.417 Q 1287.51 159.917, 1286.07 159.917 Q 1284.55 159.917, 1283.41 159.397 Q 1282.29 158.857, 1281.39 157.777 L 1282.53 156.617 Q 1283.41 157.577, 1284.15 157.957 Q 1284.89 158.317, 1286.07 158.317 Q 1287.35 158.317, 1288.13 157.637 Q 1288.91 156.937, 1288.91 155.817 Q 1288.91 154.377, 1288.09 153.737 Q 1287.29 153.077, 1285.55 153.077 L 1284.53 153.077 L 1284.53 151.637 L 1285.43 151.637 Q 1286.97 151.617, 1287.79 150.957 Q 1288.61 150.277, 1288.61 149.017 Q 1288.61 148.097, 1287.93 147.557 Q 1287.25 146.997, 1286.09 146.997 Q 1284.91 146.997, 1284.17 147.417 Q 1283.45 147.837, 1282.89 148.897 L 1281.51 148.157 Q 1282.01 146.977, 1283.21 146.197 Q 1284.41 145.397, 1286.09 145.397 Q 1288.17 145.397, 1289.39 146.377 Q 1290.61 147.357, 1290.61 149.017 Q 1290.61 150.157, 1289.99 150.977 Q 1289.37 151.797, 1288.19 152.257 " fill="#000000"/>
<path class="note" d="M 2334.11 331.294 L 2337.21 331.294 L 2337.21 320.714 L 2333.79 321.774 L 2333.33 320.594 L 2337.67 318.654 L 2339.09 318.894 L 2339.09 331.294 L 2341.87 331.294 L 2341.87 332.894 L 2334.11 332.894 L 2334.11 331.294 " fill="#000000"/>
<path class="note" d="M 2351.67 328.034 L 2353.37 328.034 L 2353.37 329.634 L 2351.67 329.634 L 2351.67 332.894 L 2349.79 332.894 L 2349.79 329.634 L 2342.47 329.634 L 2342.47 328.374 L 2348.67 318.734 L 2351.67 318.734 L 2351.67 328.034 M 2344.79 328.034 L 2349.79 328.034 L 2349.79 320.014 L 2344.79 328.034 " fill="#000000"/>
<path class="note" d="M 2420.23 234.742 L 2423.33 234.742 L 2423.33 224.162 L 2419.91 225.222 L 2419.45 224.042 L 2423.79 222.102 L 2425.21 222.342 L 2425.21 234.742 L 2427.99 234.742 L 2427.99 236.342 L 2420.23 236.342 L 2420.23 234.742 " fill="#000000"/>
<path class="note" d="M 2434.05 227.482 Q 2435.29 227.482, 2436.31 228.022 Q 2437.33 228.542, 2437.91 229.542 Q 2438.49 230.522, 2438.49 231.862 Q 2438.49 233.322, 2437.77 234.382 Q 2437.07 235.422, 2435.91 235.962 Q 2434.75 236.502, 2433.43 236.502 Q 2432.13 236.502, 2430.93 236.022 Q 2429.73 235.542, 2428.91 234.622 L 2430.11 233.382 Q 2430.77 234.102, 2431.67 234.502 Q 2432.57 234.882, 2433.49 234.882 Q 2434.75 234.882, 2435.61 234.102 Q 2436.49 233.322, 2436.49 231.902 Q 2436.49 230.402, 2435.61 229.702 Q 2434.75 228.982, 2433.37 228.982 Q 2432.13 228.982, 2430.75 229.522 L 2429.65 229.002 L 2430.33 222.182 L 2437.61 222.182 L 2437.41 223.782 L 2431.97 223.782 L 2431.55 227.982 Q 2432.81 227.482, 2434.05 227.482 " fill="#000000"/>
<path class="note" d="M 2571.45 334.067 L 2574.55 334.067 L 2574.55 323.487 L 2571.13 324.547 L 2570.67 323.367 L 2575.01 321.427 L 2576.43 321.667 L 2576.43 334.067 L 2579.21 334.067 L 2579.21 335.667 L 2571.45 335.667 L 2571.45 334.067 " fill="#000000"/>
<path class="note" d="M 2586.11 326.827 Q 2587.35 326.827, 2588.33 327.367 Q 2589.31 327.907, 2589.85 328.887 Q 2590.39 329.867, 2590.39 331.107 Q 2590.39 332.487, 2589.77 333.567 Q 2589.17 334.627, 2588.09 335.227 Q 2587.01 335.827, 2585.63 335.827 Q 2583.11 335.827, 2581.83 334.127 Q 2580.57 332.407, 2580.57 329.007 Q 2580.57 325.247, 2582.13 323.307 Q 2583.71 321.347, 2586.73 321.347 Q 2587.61 321.347, 2588.35 321.547 Q 2589.11 321.747, 2589.83 322.167 L 2589.05 323.507 Q 2588.01 322.947, 2586.75 322.947 Q 2584.75 322.947, 2583.73 324.247 Q 2582.71 325.527, 2582.59 328.187 Q 2583.31 327.527, 2584.21 327.187 Q 2585.13 326.827, 2586.11 326.827 M 2585.65 334.187 Q 2586.41 334.187, 2587.03 333.787 Q 2587.67 333.387, 2588.03 332.687 Q 2588.39 331.987, 2588.39 331.127 Q 2588.39 329.867, 2587.69 329.147 Q 2586.99 328.427, 2585.75 328.427 Q 2584.89 328.427, 2584.03 328.787 Q 2583.19 329.127, 2582.59 329.727 Q 2582.67 332.067, 2583.41 333.127 Q 2584.15 334.187, 2585.65 334.187 " fill="#000000"/>
<path class="note" d="M 2430.8 89.1821 L 2433.9 89.1821 L 2433.9 78.6021 L 2430.48 79.6621 L 2430.02 78.4821 L 2434.36 76.5421 L 2435.78 76.7821 L 2435.78 89.1821 L 2438.56 89.1821 L 2438.56 90.7821 L 2430.8 90.7821 L 2430.8 89.1821 " fill="#000000"/>
<path class="note" d="M 2446.34 78.2221 L 2438.92 78.2221 L 2438.92 76.6221 L 2448.32 76.6221 L 2448.32 78.0421 L 2442.6 90.7821 L 2440.68 90.7821 L 2446.34 78.2221 " fill="#000000"/>
<path class="note" d="M 3513.09 351.982 L 3516.19 351.982 L 3516.19 341.402 L 3512.77 342.462 L 3512.31 341.282 L 3516.65 339.342 L 3518.07 339.582 L 3518.07 351.982 L 3520.85 351.982 L 3520.85 353.582 L 3513.09 353.582 L 3513.09 351.982 " fill="#000000"/>
<path class="note" d="M 3401.42 299.142 Q 3401.94 297.802, 3403.18 297.062 Q 3404.42 296.302, 3406.14 296.302 Q 3408.28 296.302, 3409.48 297.462 Q 3410.68 298.622, 3410.68 300.682 Q 3410.68 302.782, 3409.12 304.742 Q 3407.58 306.702, 3404.38 309.022 L 3410.92 309.022 L 3410.92 310.622 L 3401.38 310.622 L 3401.38 309.282 Q 3404.02 307.402, 3405.58 306.002 Q 3407.16 304.602, 3407.92 303.342 Q 3408.68 302.082, 3408.68 300.782 Q 3408.68 299.422, 3408 298.662 Q 3407.32 297.902, 3406.14 297.902 Q 3405 297.902, 3404.24 298.362 Q 3403.48 298.822, 3402.94 299.842 L 3401.42 299.142 " fill="#000000"/>
<path class="note" d="M 3440.14 122.327 Q 3441.52 122.727, 3442.18 123.627 Q 3442.86 124.507, 3442.86 125.907 Q 3442.86 127.107, 3442.26 128.047 Q 3441.66 128.967, 3440.56 129.487 Q 3439.46 129.987, 3438.02 129.987 Q 3436.5 129.987, 3435.36 129.467 Q 3434.24 128.927, 3433.34 127.847 L 3434.48 126.687 Q 3435.36 127.647, 3436.1 128.027 Q 3436.84 128.387, 3438.02 128.387 Q 3439.3 128.387, 3440.08 127.707 Q 3440.86 127.007, 3440.86 125.887 Q 3440.86 124.447, 3440.04 123.807 Q 3439.24 123.147, 3437.5 123.147 L 3436.48 123.147 L 3436.48 121.707 L 3437.38 121.707 Q 3438.92 121.687, 3439.74 121.027 Q 3440.56 120.347, 3440.56 119.087 Q 3440.56 118.167, 3439.88 117.627 Q 3439.2 117.067, 3438.04 117.067 Q 3436.86 117.067, 3436.12 117.487 Q 3435.4 117.907, 3434.84 118.967 L 3433.46 118.227 Q 3433.96 117.047, 3435.16 116.267 Q 3436.36 115.467, 3438.04 115.467 Q 3440.12 115.467, 3441.34 116.447 Q 3442.56 117.427, 3442.56 119.087 Q 3442.56 120.227, 3441.94 121.047 Q 3441.32 121.867, 3440.14 122.327 " fill="#000000"/>
<path class="note" d="M 3329.65 353.666 L 3331.35 353.666 L 3331.35 355.266 L 3329.65 355.266 L 3329.65 358.526 L 3327.77 358.526 L 3327.77 355.266 L 3320.45 355.266 L 3320.45 354.006 L 3326.65 344.366 L 3329.65 344.366 L 3329.65 353.666 M 3322.77 353.666 L 3327.77 353.666 L 3327.77 345.646 L 3322.77 353.666 " fill="#000000"/>
<path class="note" d="M 3220.42 237.734 Q 3221.66 237.734, 3222.68 238.274 Q 3223.7 238.794, 3224.28 239.794 Q 3224.86 240.774, 3224.86 242.114 Q 3224.86 243.574, 3224.14 244.634 Q 3223.44 245.674, 3222.28 246.214 Q 3221.12 246.754, 3219.8 246.754 Q 3218.5 246.754, 3217.3 246.274 Q 3216.1 245.794, 3215.28 244.874 L 3216.48 243.634 Q 3217.14 244.354, 3218.04 244.754 Q 3218.94 245.134, 3219.86 245.134 Q 3221.12 245.134, 3221.98 244.354 Q 3222.86 243.574, 3222.86 242.154 Q 3222.86 240.654, 3221.98 239.954 Q 3221.12 239.234, 3219.74 239.234 Q 3218.5 239.234, 3217.12 239.774 L 3216.02 239.254 L 3216.7 232.434 L 3223.98 232.434 L 3223.78 234.034 L 3218.34 234.034 L 3217.92 238.234 Q 3219.18 237.734, 3220.42 237.734 " fill="#000000"/>
<path class="note" d="M 3241.99 117.278 Q 3243.23 117.278, 3244.21 117.818 Q 3245.19 118.358, 3245.73 119.338 Q 3246.27 120.318, 3246.27 121.558 Q 3246.27 122.938, 3245.65 124.018 Q 3245.05 125.078, 3243.97 125.678 Q 3242.89 126.278, 3241.51 126.278 Q 3238.99 126.278, 3237.71 124.578 Q 3236.45 122.858, 3236.45 119.458 Q 3236.45 115.698, 3238.01 113.758 Q 3239.59 111.798, 3242.61 111.798 Q 3243.49 111.798, 3244.23 111.998 Q 3244.99 112.198, 3245.71 112.618 L 3244.93 113.958 Q 3243.89 113.398, 3242.63 113.398 Q 3240.63 113.398, 3239.61 114.698 Q 3238.59 115.978, 3238.47 118.638 Q 3239.19 117.978, 3240.09 117.638 Q 3241.01 117.278, 3241.99 117.278 M 3241.53 124.638 Q 3242.29 124.638, 3242.91 124.238 Q 3243.55 123.838, 3243.91 123.138 Q 3244.27 122.438, 3244.27 121.578 Q 3244.27 120.318, 3243.57 119.598 Q 3242.87 118.878, 3241.63 118.878 Q 3240.77 118.878, 3239.91 119.238 Q 3239.07 119.578, 3238.47 120.178 Q 3238.55 122.518, 3239.29 123.578 Q 3240.03 124.638, 3241.53 124.638 " fill="#000000"/>
<path class="note" d="M 3134.7 21.639 L 3127.28 21.639 L 3127.28 20.039 L 3136.68 20.039 L 3136.68 21.459 L 3130.96 34.199 L 3129.04 34.199 L 3134.7 21.639 " fill="#000000"/>
<path class="note" d="M 2999.97 75.5893 Q 3001.27 76.1493, 3002.01 76.9893 Q 3002.75 77.8093, 3002.75 79.2093 Q 3002.75 80.4093, 3002.13 81.3493 Q 3001.51 82.2693, 3000.39 82.7893 Q 2999.29 83.2893, 2997.83 83.2893 Q 2995.47 83.2893, 2994.11 82.2093 Q 2992.75 81.1093, 2992.75 79.2093 Q 2992.75 78.0493, 2993.35 77.1893 Q 2993.95 76.3093, 2995.19 75.6493 Q 2994.27 75.1293, 2993.77 74.3693 Q 2993.27 73.5893, 2993.27 72.3893 Q 2993.27 70.7293, 2994.47 69.7493 Q 2995.69 68.7693, 2997.75 68.7693 Q 2999.81 68.7693, 3001.01 69.7493 Q 3002.23 70.7293, 3002.23 72.3893 Q 3002.23 73.4293, 3001.65 74.2093 Q 3001.09 74.9693, 2999.97 75.5893 M 2997.75 70.2693 Q 2996.57 70.2693, 2995.91 70.8293 Q 2995.27 71.3893, 2995.27 72.3893 Q 2995.27 73.1293, 2995.71 73.6293 Q 2996.15 74.1093, 2996.77 74.3893 Q 2997.41 74.6693, 2998.63 75.0893 Q 2999.49 74.4893, 2999.85 73.8493 Q 3000.23 73.2093, 3000.23 72.3893 Q 3000.23 71.3893, 2999.57 70.8293 Q 2998.93 70.2693, 2997.75 70.2693 M 2997.83 81.7893 Q 2999.15 81.7893, 2999.95 81.0893 Q 3000.75 80.3693, 3000.75 79.1893 Q 3000.75 78.4293, 3000.33 77.9493 Q 2999.91 77.4693, 2999.27 77.1893 Q 2998.65 76.9093, 2997.53 76.5493 L 2996.63 76.2493 Q 2995.63 76.8493, 2995.19 77.5693 Q 2994.75 78.2693, 2994.75 79.1893 Q 2994.75 80.3693, 2995.59 81.0893 Q 2996.43 81.7893, 2997.83 81.7893 " fill="#000000"/>
<path class="note" d="M 2976.31 189.326 Q 2978.83 189.326, 2980.09 191.046 Q 2981.37 192.746, 2981.37 196.146 Q 2981.37 199.906, 2979.79 201.866 Q 2978.23 203.806, 2975.21 203.806 Q 2974.33 203.806, 2973.57 203.606 Q 2972.83 203.406, 2972.11 202.986 L 2972.89 201.646 Q 2973.93 202.206, 2975.19 202.206 Q 2977.19 202.206, 2978.21 200.926 Q 2979.23 199.626, 2979.35 196.966 Q 2978.63 197.626, 2977.71 197.986 Q 2976.81 198.326, 2975.83 198.326 Q 2974.59 198.326, 2973.61 197.786 Q 2972.63 197.246, 2972.09 196.266 Q 2971.55 195.286, 2971.55 194.046 Q 2971.55 192.666, 2972.15 191.606 Q 2972.77 190.526, 2973.85 189.926 Q 2974.93 189.326, 2976.31 189.326 M 2973.55 194.026 Q 2973.55 195.286, 2974.25 196.006 Q 2974.95 196.726, 2976.19 196.726 Q 2977.05 196.726, 2977.89 196.386 Q 2978.75 196.026, 2979.35 195.426 Q 2979.27 193.086, 2978.53 192.026 Q 2977.79 190.966, 2976.29 190.966 Q 2975.53 190.966, 2974.89 191.366 Q 2974.27 191.766, 2973.91 192.466 Q 2973.55 193.166, 2973.55 194.026 " fill="#000000"/>
<path class="note" d="M 3052.49 298.815 L 3055.59 298.815 L 3055.59 288.235 L 3052.17 289.295 L 3051.71 288.115 L 3056.05 286.175 L 3057.47 286.415 L 3057.47 298.815 L 3060.25 298.815 L 3060.25 300.415 L 3052.49 300.415 L 3052.49 298.815 " fill="#000000"/>
<path class="note" d="M 3066.65 300.575 Q 3064.05 300.575, 3062.75 298.655 Q 3061.47 296.735, 3061.47 293.315 Q 3061.47 289.895, 3062.75 287.995 Q 3064.03 286.095, 3066.65 286.095 Q 3069.27 286.095, 3070.55 287.995 Q 3071.83 289.895, 3071.83 293.315 Q 3071.83 296.735, 3070.53 298.655 Q 3069.25 300.575, 3066.65 300.575 M 3066.65 298.975 Q 3068.19 298.975, 3069.01 297.555 Q 3069.83 296.115, 3069.83 293.315 Q 3069.83 290.535, 3069.01 289.115 Q 3068.19 287.695, 3066.65 287.695 Q 3065.13 287.695, 3064.29 289.115 Q 3063.47 290.535, 3063.47 293.315 Q 3063.47 296.115, 3064.29 297.555 Q 3065.13 298.975, 3066.65 298.975 " fill="#000000"/>
<path class="note" d="M 3038.19 424.646 L 3041.29 424.646 L 3041.29 414.066 L 3037.87 415.126 L 3037.41 413.946 L 3041.75 412.006 L 3043.17 412.246 L 3043.17 424.646 L 3045.95 424.646 L 3045.95 426.246 L 3038.19 426.246 L 3038.19 424.646 " fill="#000000"/>
<path class="note" d="M 3047.81 424.646 L 3050.91 424.646 L 3050.91 414.066 L 3047.49 415.126 L 3047.03 413.946 L 3051.37 412.006 L 3052.79 412.246 L 3052.79 424.646 L 3055.57 424.646 L 3055.57 426.246 L 3047.81 426.246 L 3047.81 424.646 " fill="#000000"/>
<path class="note" d="M 2891.68 414.43 L 2894.78 414.43 L 2894.78 403.85 L 2891.36 404.91 L 2890.9 403.73 L 2895.24 401.79 L 2896.66 402.03 L 2896.66 414.43 L 2899.44 414.43 L 2899.44 416.03 L 2891.68 416.03 L 2891.68 414.43 " fill="#000000"/>
<path class="note" d="M 2900.48 404.55 Q 2901 403.21, 2902.24 402.47 Q 2903.48 401.71, 2905.2 401.71 Q 2907.34 401.71, 2908.54 402.87 Q 2909.74 404.03, 2909.74 406.09 Q 2909.74 408.19, 2908.18 410.15 Q 2906.64 412.11, 2903.44 414.43 L 2909.98 414.43 L 2909.98 416.03 L 2900.44 416.03 L 2900.44 414.69 Q 2903.08 412.81, 2904.64 411.41 Q 2906.22 410.01, 2906.98 408.75 Q 2907.74 407.49, 2907.74 406.19 Q 2907.74 404.83, 2907.06 404.07 Q 2906.38 403.31, 2905.2 403.31 Q 2904.06 403.31, 2903.3 403.77 Q 2902.54 404.23, 2902 405.25 L 2900.48 404.55 " fill="#000000"/>
<path class="note" d="M 2856.39 272.36 L 2859.49 272.36 L 2859.49 261.78 L 2856.07 262.84 L 2855.61 261.66 L 2859.95 259.72 L 2861.37 259.96 L 2861.37 272.36 L 2864.15 272.36 L 2864.15 273.96 L 2856.39 273.96 L 2856.39 272.36 " fill="#000000"/>
<path class="note" d="M 2871.79 266.5 Q 2873.17 266.9, 2873.83 267.8 Q 2874.51 268.68, 2874.51 270.08 Q 2874.51 271.28, 2873.91 272.22 Q 2873.31 273.14, 2872.21 273.66 Q 2871.11 274.16, 2869.67 274.16 Q 2868.15 274.16, 2867.01 273.64 Q 2865.89 273.1, 2864.99 272.02 L 2866.13 270.86 Q 2867.01 271.82, 2867.75 272.2 Q 2868.49 272.56, 2869.67 272.56 Q 2870.95 272.56, 2871.73 271.88 Q 2872.51 271.18, 2872.51 270.06 Q 2872.51 268.62, 2871.69 267.98 Q 2870.89 267.32, 2869.15 267.32 L 2868.13 267.32 L 2868.13 265.88 L 2869.03 265.88 Q 2870.57 265.86, 2871.39 265.2 Q 2872.21 264.52, 2872.21 263.26 Q 2872.21 262.34, 2871.53 261.8 Q 2870.85 261.24, 2869.69 261.24 Q 2868.51 261.24, 2867.77 261.66 Q 2867.05 262.08, 2866.49 263.14 L 2865.11 262.4 Q 2865.61 261.22, 2866.81 260.44 Q 2868.01 259.64, 2869.69 259.64 Q 2871.77 259.64, 2872.99 260.62 Q 2874.21 261.6, 2874.21 263.26 Q 2874.21 264.4, 2873.59 265.22 Q 2872.97 266.04, 2871.79 266.5 " fill="#000000"/>
<path d="M 1081.78 244.462 L 1087.83 244.462 L 1087.83 238.094 L 1090.52 238.094 L 1090.52 244.462 L 1096.73 244.462 L 1096.73 246.766 L 1090.52 246.766 L 1090.52 253.166 L 1087.83 253.166 L 1087.83 246.766 L 1081.78 246.766 L 1081.78 244.462 " fill="#000000"/>
<path d="M 2714.93 244.462 L 2720.98 244.462 L 2720.98 238.094 L 2723.67 238.094 L 2723.67 244.462 L 2729.88 244.462 L 2729.88 246.766 L 2723.67 246.766 L 2723.67 253.166 L 2720.98 253.166 L 2720.98 246.766 L 2714.93 246.766 L 2714.93 244.462 " fill="#000000"/>
<path d="M 1801.52,246.766 L 2127.98,246.766" style="fill:none;fill-rule:evenodd;stroke:#000000;stroke-width:2.0px;stroke-linecap:butt;stroke-linejoin:miter;stroke-opacity:1"/>
<path d="M 2127.98,246.766 L 2113.84,238.605" style="fill:none;fill-rule:evenodd;stroke:#000000;stroke-width:2.0px;stroke-linecap:butt;stroke-linejoin:miter;stroke-opacity:1"/>
<path d="M 2127.98,246.766 L 2113.84,254.928" style="fill:none;fill-rule:evenodd;stroke:#000000;stroke-width:2.0px;stroke-linecap:butt;stroke-linejoin:miter;stroke-opacity:1"/>
</svg>