<svg xmlns="http://www.w3.org/2000/svg" xmlns:rdkit="http://www.rdkit.org/xml" xmlns:xlink="http://www.w3.org/1999/xlink" version="1.1" baseProfile="full" xml:space="preserve" width="4000px" height="500px" viewBox="0 0 4000 500">
<!-- END OF HEADER -->
<rect style="opacity:1.0;fill:#FFFFFF;stroke:none" width="4000" height="500" x="0" y="0"> </rect>
<path d="M 206.091,197.44 L 311.197,258.123" style="fill:none;fill-rule:evenodd;stroke:#FFFFAA;stroke-width:25.9px;stroke-linecap:butt;stroke-linejoin:miter;stroke-opacity:1"/>
<path d="M 311.197,258.123 L 311.197,379.49" style="fill:none;fill-rule:evenodd;stroke:#FFFFAA;stroke-width:25.9px;stroke-linecap:butt;stroke-linejoin:miter;stroke-opacity:1"/>
<path d="M 311.197,258.123 L 416.304,197.44" style="fill:none;fill-rule:evenodd;stroke:#FFFFAA;stroke-width:25.9px;stroke-linecap:butt;stroke-linejoin:miter;stroke-opacity:1"/>
<path d="M 416.304,197.44 L 521.41,258.123" style="fill:none;fill-rule:evenodd;stroke:#FFFFAA;stroke-width:25.9px;stroke-linecap:butt;stroke-linejoin:miter;stroke-opacity:1"/>
<path d="M 521.41,258.123 L 626.516,197.44" style="fill:none;fill-rule:evenodd;stroke:#FFFFAA;stroke-width:25.9px;stroke-linecap:butt;stroke-linejoin:miter;stroke-opacity:1"/>
<path d="M 521.41,258.123 L 521.41,379.49" style="fill:none;fill-rule:evenodd;stroke:#FFFFAA;stroke-width:25.9px;stroke-linecap:butt;stroke-linejoin:miter;stroke-opacity:1"/>
<path d="M 932.86,305.715 L 1047.77,344.775" style="fill:none;fill-rule:evenodd;stroke:#FFCC99;stroke-width:25.9px;stroke-linecap:butt;stroke-linejoin:miter;stroke-opacity:1"/>
<path d="M 1047.77,344.775 L 1162.68,383.835" style="fill:none;fill-rule:evenodd;stroke:#FFCC99;stroke-width:25.9px;stroke-linecap:butt;stroke-linejoin:miter;stroke-opacity:1"/>
<path d="M 1162.68,383.835 L 1253.96,303.851" style="fill:none;fill-rule:evenodd;stroke:#FFCC99;stroke-width:25.9px;stroke-linecap:butt;stroke-linejoin:miter;stroke-opacity:1"/>
<path d="M 1253.96,303.851 L 1230.33,184.808" style="fill:none;fill-rule:evenodd;stroke:#FFCC99;stroke-width:25.9px;stroke-linecap:butt;stroke-linejoin:miter;stroke-opacity:1"/>
<path d="M 1253.96,303.851 L 1368.87,342.912" style="fill:none;fill-rule:evenodd;stroke:#FFCC99;stroke-width:25.9px;stroke-linecap:butt;stroke-linejoin:miter;stroke-opacity:1"/>
<path d="M 1230.33,184.808 L 1115.42,145.747" style="fill:none;fill-rule:evenodd;stroke:#FFCC99;stroke-width:25.9px;stroke-linecap:butt;stroke-linejoin:miter;stroke-opacity:1"/>
<path d="M 1230.33,184.808 L 1321.61,104.824" style="fill:none;fill-rule:evenodd;stroke:#FFCC99;stroke-width:25.9px;stroke-linecap:butt;stroke-linejoin:miter;stroke-opacity:1"/>
<path d="M 1321.61,104.824 L 1436.52,143.884" style="fill:none;fill-rule:evenodd;stroke:#FFCC99;stroke-width:25.9px;stroke-linecap:butt;stroke-linejoin:miter;stroke-opacity:1"/>
<path d="M 1436.52,143.884 L 1460.15,262.928" style="fill:none;fill-rule:evenodd;stroke:#FFCC99;stroke-width:25.9px;stroke-linecap:butt;stroke-linejoin:miter;stroke-opacity:1"/>
<path d="M 1460.15,262.928 L 1575.06,301.988" style="fill:none;fill-rule:evenodd;stroke:#FFCC99;stroke-width:25.9px;stroke-linecap:butt;stroke-linejoin:miter;stroke-opacity:1"/>
<path d="M 1460.15,262.928 L 1368.87,342.912" style="fill:none;fill-rule:evenodd;stroke:#FFCC99;stroke-width:25.9px;stroke-linecap:butt;stroke-linejoin:miter;stroke-opacity:1"/>
<path d="M 1575.06,301.988 L 1598.68,421.032" style="fill:none;fill-rule:evenodd;stroke:#FFCC99;stroke-width:25.9px;stroke-linecap:butt;stroke-linejoin:miter;stroke-opacity:1"/>
<path d="M 1575.06,301.988 L 1666.34,222.004" style="fill:none;fill-rule:evenodd;stroke:#FFCC99;stroke-width:25.9px;stroke-linecap:butt;stroke-linejoin:miter;stroke-opacity:1"/>
<path d="M 2362.85,327.475 L 2467.96,266.792" style="fill:none;fill-rule:evenodd;stroke:#FFFFAA;stroke-width:25.9px;stroke-linecap:butt;stroke-linejoin:miter;stroke-opacity:1"/>
<path d="M 2467.96,266.792 L 2573.06,327.475" style="fill:none;fill-rule:evenodd;stroke:#FFFFAA;stroke-width:25.9px;stroke-linecap:butt;stroke-linejoin:miter;stroke-opacity:1"/>
<path d="M 2467.96,266.792 L 2467.96,145.426" style="fill:none;fill-rule:evenodd;stroke:#FFFFAA;stroke-width:25.9px;stroke-linecap:butt;stroke-linejoin:miter;stroke-opacity:1"/>
<path d="M 2883.14,216.314 L 3004.51,215.855" style="fill:none;fill-rule:evenodd;stroke:#FFFFAA;stroke-width:25.9px;stroke-linecap:butt;stroke-linejoin:miter;stroke-opacity:1"/>
<path d="M 3004.51,215.855 L 3064.8,110.521" style="fill:none;fill-rule:evenodd;stroke:#FFFFAA;stroke-width:25.9px;stroke-linecap:butt;stroke-linejoin:miter;stroke-opacity:1"/>
<path d="M 3065.59,320.732 L 3186.95,320.273" style="fill:none;fill-rule:evenodd;stroke:#FFCC99;stroke-width:25.9px;stroke-linecap:butt;stroke-linejoin:miter;stroke-opacity:1"/>
<path d="M 3186.95,320.273 L 3258.66,418.19" style="fill:none;fill-rule:evenodd;stroke:#FFCC99;stroke-width:25.9px;stroke-linecap:butt;stroke-linejoin:miter;stroke-opacity:1"/>
<path d="M 3186.95,320.273 L 3257.92,221.817" style="fill:none;fill-rule:evenodd;stroke:#FFCC99;stroke-width:25.9px;stroke-linecap:butt;stroke-linejoin:miter;stroke-opacity:1"/>
<path d="M 3258.66,418.19 L 3373.95,380.25" style="fill:none;fill-rule:evenodd;stroke:#FFCC99;stroke-width:25.9px;stroke-linecap:butt;stroke-linejoin:miter;stroke-opacity:1"/>
<path d="M 3373.95,380.25 L 3479.28,440.536" style="fill:none;fill-rule:evenodd;stroke:#FFCC99;stroke-width:25.9px;stroke-linecap:butt;stroke-linejoin:miter;stroke-opacity:1"/>
<path d="M 3373.95,380.25 L 3373.49,258.885" style="fill:none;fill-rule:evenodd;stroke:#FFCC99;stroke-width:25.9px;stroke-linecap:butt;stroke-linejoin:miter;stroke-opacity:1"/>
<path d="M 3479.28,440.536 L 3584.16,379.456" style="fill:none;fill-rule:evenodd;stroke:#FFCC99;stroke-width:25.9px;stroke-linecap:butt;stroke-linejoin:miter;stroke-opacity:1"/>
<path d="M 3584.16,379.456 L 3583.7,258.091" style="fill:none;fill-rule:evenodd;stroke:#FFCC99;stroke-width:25.9px;stroke-linecap:butt;stroke-linejoin:miter;stroke-opacity:1"/>
<path d="M 3583.7,258.091 L 3688.57,197.011" style="fill:none;fill-rule:evenodd;stroke:#FFCC99;stroke-width:25.9px;stroke-linecap:butt;stroke-linejoin:miter;stroke-opacity:1"/>
<path d="M 3583.7,258.091 L 3478.36,197.805" style="fill:none;fill-rule:evenodd;stroke:#FFCC99;stroke-width:25.9px;stroke-linecap:butt;stroke-linejoin:miter;stroke-opacity:1"/>
<path d="M 3688.57,197.011 L 3793.91,257.297" style="fill:none;fill-rule:evenodd;stroke:#FFCC99;stroke-width:25.9px;stroke-linecap:butt;stroke-linejoin:miter;stroke-opacity:1"/>
<path d="M 3688.57,197.011 L 3688.12,75.6461" style="fill:none;fill-rule:evenodd;stroke:#FFCC99;stroke-width:25.9px;stroke-linecap:butt;stroke-linejoin:miter;stroke-opacity:1"/>
<path d="M 3478.36,197.805 L 3373.49,258.885" style="fill:none;fill-rule:evenodd;stroke:#FFCC99;stroke-width:25.9px;stroke-linecap:butt;stroke-linejoin:miter;stroke-opacity:1"/>
<path d="M 3373.49,258.885 L 3257.92,221.817" style="fill:none;fill-rule:evenodd;stroke:#FFCC99;stroke-width:25.9px;stroke-linecap:butt;stroke-linejoin:miter;stroke-opacity:1"/>
<ellipse cx="206.091" cy="197.44" rx="24.2732" ry="24.2732" style="fill:#FFFFAA;fill-rule:evenodd;stroke:#FFFFAA;stroke-width:1px;stroke-linecap:butt;stroke-linejoin:miter;stroke-opacity:1"/>
<ellipse cx="311.197" cy="258.123" rx="24.2732" ry="24.2732" style="fill:#FFFFAA;fill-rule:evenodd;stroke:#FFFFAA;stroke-width:1px;stroke-linecap:butt;stroke-linejoin:miter;stroke-opacity:1"/>
<ellipse cx="311.197" cy="379.71" rx="24.2732" ry="24.2732" style="fill:#FFFFAA;fill-rule:evenodd;stroke:#FFFFAA;stroke-width:1px;stroke-linecap:butt;stroke-linejoin:miter;stroke-opacity:1"/>
<ellipse cx="416.304" cy="197.66" rx="24.2732" ry="24.2732" style="fill:#FFFFAA;fill-rule:evenodd;stroke:#FFFFAA;stroke-width:1px;stroke-linecap:butt;stroke-linejoin:miter;stroke-opacity:1"/>
<ellipse cx="521.41" cy="258.123" rx="24.2732" ry="24.2732" style="fill:#FFFFAA;fill-rule:evenodd;stroke:#FFFFAA;stroke-width:1px;stroke-linecap:butt;stroke-linejoin:miter;stroke-opacity:1"/>
<ellipse cx="626.516" cy="197.44" rx="24.2732" ry="24.2732" style="fill:#FFFFAA;fill-rule:evenodd;stroke:#FFFFAA;stroke-width:1px;stroke-linecap:butt;stroke-linejoin:miter;stroke-opacity:1"/>
<ellipse cx="521.41" cy="379.71" rx="24.2732" ry="24.2732" style="fill:#FFFFAA;fill-rule:evenodd;stroke:#FFFFAA;stroke-width:1px;stroke-linecap:butt;stroke-linejoin:miter;stroke-opacity:1"/>
<ellipse cx="932.86" cy="305.715" rx="24.2732" ry="24.2732" style="fill:#FFCC99;fill-rule:evenodd;stroke:#FFCC99;stroke-width:1px;stroke-linecap:butt;stroke-linejoin:miter;stroke-opacity:1"/>
<ellipse cx="1047.77" cy="344.775" rx="24.2732" ry="24.2732" style="fill:#FFCC99;fill-rule:evenodd;stroke:#FFCC99;stroke-width:1px;stroke-linecap:butt;stroke-linejoin:miter;stroke-opacity:1"/>
<ellipse cx="1162.68" cy="384.215" rx="24.2732" ry="24.2732" style="fill:#FFCC99;fill-rule:evenodd;stroke:#FFCC99;stroke-width:1px;stroke-linecap:butt;stroke-linejoin:miter;stroke-opacity:1"/>
<ellipse cx="1253.96" cy="303.851" rx="24.2732" ry="24.2732" style="fill:#FFCC99;fill-rule:evenodd;stroke:#FFCC99;stroke-width:1px;stroke-linecap:butt;stroke-linejoin:miter;stroke-opacity:1"/>
<ellipse cx="1230.33" cy="184.808" rx="24.2732" ry="24.2732" style="fill:#FFCC99;fill-rule:evenodd;stroke:#FFCC99;stroke-width:1px;stroke-linecap:butt;stroke-linejoin:miter;stroke-opacity:1"/>
<ellipse cx="1095.73" cy="152.827" rx="43.0436" ry="30.0379" style="fill:#FFCC99;fill-rule:evenodd;stroke:#FFCC99;stroke-width:1px;stroke-linecap:butt;stroke-linejoin:miter;stroke-opacity:1"/>
<ellipse cx="1321.61" cy="104.824" rx="24.2732" ry="24.2732" style="fill:#FFCC99;fill-rule:evenodd;stroke:#FFCC99;stroke-width:1px;stroke-linecap:butt;stroke-linejoin:miter;stroke-opacity:1"/>
<ellipse cx="1436.52" cy="143.884" rx="24.2732" ry="24.2732" style="fill:#FFCC99;fill-rule:evenodd;stroke:#FFCC99;stroke-width:1px;stroke-linecap:butt;stroke-linejoin:miter;stroke-opacity:1"/>
<ellipse cx="1460.15" cy="262.928" rx="24.2732" ry="24.2732" style="fill:#FFCC99;fill-rule:evenodd;stroke:#FFCC99;stroke-width:1px;stroke-linecap:butt;stroke-linejoin:miter;stroke-opacity:1"/>
<ellipse cx="1575.06" cy="301.988" rx="24.2732" ry="24.2732" style="fill:#FFCC99;fill-rule:evenodd;stroke:#FFCC99;stroke-width:1px;stroke-linecap:butt;stroke-linejoin:miter;stroke-opacity:1"/>
<ellipse cx="1598.68" cy="421.032" rx="24.2732" ry="24.2732" style="fill:#FFCC99;fill-rule:evenodd;stroke:#FFCC99;stroke-width:1px;stroke-linecap:butt;stroke-linejoin:miter;stroke-opacity:1"/>
<ellipse cx="1666.34" cy="222.224" rx="24.2732" ry="24.2732" style="fill:#FFCC99;fill-rule:evenodd;stroke:#FFCC99;stroke-width:1px;stroke-linecap:butt;stroke-linejoin:miter;stroke-opacity:1"/>
<ellipse cx="1368.87" cy="342.912" rx="24.2732" ry="24.2732" style="fill:#FFCC99;fill-rule:evenodd;stroke:#FFCC99;stroke-width:1px;stroke-linecap:butt;stroke-linejoin:miter;stroke-opacity:1"/>
<ellipse cx="2362.85" cy="327.475" rx="24.2732" ry="24.2732" style="fill:#FFFFAA;fill-rule:evenodd;stroke:#FFFFAA;stroke-width:1px;stroke-linecap:butt;stroke-linejoin:miter;stroke-opacity:1"/>
<ellipse cx="2467.96" cy="266.792" rx="24.2732" ry="24.2732" style="fill:#FFFFAA;fill-rule:evenodd;stroke:#FFFFAA;stroke-width:1px;stroke-linecap:butt;stroke-linejoin:miter;stroke-opacity:1"/>
<ellipse cx="2573.06" cy="327.695" rx="24.2732" ry="24.2732" style="fill:#FFFFAA;fill-rule:evenodd;stroke:#FFFFAA;stroke-width:1px;stroke-linecap:butt;stroke-linejoin:miter;stroke-opacity:1"/>
<ellipse cx="2480.74" cy="145.646" rx="36.4584" ry="24.2732" style="fill:#FFFFAA;fill-rule:evenodd;stroke:#FFFFAA;stroke-width:1px;stroke-linecap:butt;stroke-linejoin:miter;stroke-opacity:1"/>
<ellipse cx="2883.14" cy="216.314" rx="24.2732" ry="24.2732" style="fill:#FFFFAA;fill-rule:evenodd;stroke:#FFFFAA;stroke-width:1px;stroke-linecap:butt;stroke-linejoin:miter;stroke-opacity:1"/>
<ellipse cx="3004.51" cy="215.855" rx="24.2732" ry="24.2732" style="fill:#FFFFAA;fill-rule:evenodd;stroke:#FFFFAA;stroke-width:1px;stroke-linecap:butt;stroke-linejoin:miter;stroke-opacity:1"/>
<ellipse cx="3064.8" cy="110.741" rx="24.2732" ry="24.2732" style="fill:#FFFFAA;fill-rule:evenodd;stroke:#FFFFAA;stroke-width:1px;stroke-linecap:butt;stroke-linejoin:miter;stroke-opacity:1"/>
<ellipse cx="3052.85" cy="320.732" rx="33.2057" ry="24.2732" style="fill:#FFCC99;fill-rule:evenodd;stroke:#FFCC99;stroke-width:1px;stroke-linecap:butt;stroke-linejoin:miter;stroke-opacity:1"/>
<ellipse cx="3186.95" cy="320.273" rx="24.2732" ry="24.2732" style="fill:#FFCC99;fill-rule:evenodd;stroke:#FFCC99;stroke-width:1px;stroke-linecap:butt;stroke-linejoin:miter;stroke-opacity:1"/>
<ellipse cx="3258.66" cy="418.19" rx="24.2732" ry="24.2732" style="fill:#FFCC99;fill-rule:evenodd;stroke:#FFCC99;stroke-width:1px;stroke-linecap:butt;stroke-linejoin:miter;stroke-opacity:1"/>
<ellipse cx="3373.95" cy="380.25" rx="24.2732" ry="24.2732" style="fill:#FFCC99;fill-rule:evenodd;stroke:#FFCC99;stroke-width:1px;stroke-linecap:butt;stroke-linejoin:miter;stroke-opacity:1"/>
<ellipse cx="3479.28" cy="440.536" rx="24.2732" ry="24.2732" style="fill:#FFCC99;fill-rule:evenodd;stroke:#FFCC99;stroke-width:1px;stroke-linecap:butt;stroke-linejoin:miter;stroke-opacity:1"/>
<ellipse cx="3584.16" cy="379.456" rx="24.2732" ry="24.2732" style="fill:#FFCC99;fill-rule:evenodd;stroke:#FFCC99;stroke-width:1px;stroke-linecap:butt;stroke-linejoin:miter;stroke-opacity:1"/>
<ellipse cx="3583.7" cy="258.091" rx="24.2732" ry="24.2732" style="fill:#FFCC99;fill-rule:evenodd;stroke:#FFCC99;stroke-width:1px;stroke-linecap:butt;stroke-linejoin:miter;stroke-opacity:1"/>
<ellipse cx="3688.57" cy="197.011" rx="24.2732" ry="24.2732" style="fill:#FFCC99;fill-rule:evenodd;stroke:#FFCC99;stroke-width:1px;stroke-linecap:butt;stroke-linejoin:miter;stroke-opacity:1"/>
<ellipse cx="3793.91" cy="257.297" rx="24.2732" ry="24.2732" style="fill:#FFCC99;fill-rule:evenodd;stroke:#FFCC99;stroke-width:1px;stroke-linecap:butt;stroke-linejoin:miter;stroke-opacity:1"/>
<ellipse cx="3688.12" cy="75.8661" rx="24.2732" ry="24.2732" style="fill:#FFCC99;fill-rule:evenodd;stroke:#FFCC99;stroke-width:1px;stroke-linecap:butt;stroke-linejoin:miter;stroke-opacity:1"/>
<ellipse cx="3478.36" cy="197.805" rx="24.2732" ry="24.2732" style="fill:#FFCC99;fill-rule:evenodd;stroke:#FFCC99;stroke-width:1px;stroke-linecap:butt;stroke-linejoin:miter;stroke-opacity:1"/>
<ellipse cx="3373.49" cy="258.885" rx="24.2732" ry="24.2732" style="fill:#FFCC99;fill-rule:evenodd;stroke:#FFCC99;stroke-width:1px;stroke-linecap:butt;stroke-linejoin:miter;stroke-opacity:1"/>
<ellipse cx="3257.92" cy="222.197" rx="24.2732" ry="24.2732" style="fill:#FFCC99;fill-rule:evenodd;stroke:#FFCC99;stroke-width:1px;stroke-linecap:butt;stroke-linejoin:miter;stroke-opacity:1"/>
<path class="bond-0" d="M 206.091,197.44 L 311.197,258.123" style="fill:none;fill-rule:evenodd;stroke:#000000;stroke-width:2.0px;stroke-linecap:butt;stroke-linejoin:miter;stroke-opacity:1"/>
<path class="bond-1" d="M 299.061,258.123 L 299.061,310.129" style="fill:none;fill-rule:evenodd;stroke:#000000;stroke-width:2.0px;stroke-linecap:butt;stroke-linejoin:miter;stroke-opacity:1"/>
<path class="bond-1" d="M 299.061,310.129 L 299.061,362.135" style="fill:none;fill-rule:evenodd;stroke:#FF0000;stroke-width:2.0px;stroke-linecap:butt;stroke-linejoin:miter;stroke-opacity:1"/>
<path class="bond-1" d="M 323.334,258.123 L 323.334,310.129" style="fill:none;fill-rule:evenodd;stroke:#000000;stroke-width:2.0px;stroke-linecap:butt;stroke-linejoin:miter;stroke-opacity:1"/>
<path class="bond-1" d="M 323.334,310.129 L 323.334,362.135" style="fill:none;fill-rule:evenodd;stroke:#FF0000;stroke-width:2.0px;stroke-linecap:butt;stroke-linejoin:miter;stroke-opacity:1"/>
<path class="bond-2" d="M 311.197,258.123 L 355.733,232.411" style="fill:none;fill-rule:evenodd;stroke:#000000;stroke-width:2.0px;stroke-linecap:butt;stroke-linejoin:miter;stroke-opacity:1"/>
<path class="bond-2" d="M 355.733,232.411 L 400.269,206.698" style="fill:none;fill-rule:evenodd;stroke:#FF0000;stroke-width:2.0px;stroke-linecap:butt;stroke-linejoin:miter;stroke-opacity:1"/>
<path class="bond-3" d="M 432.338,206.698 L 476.874,232.411" style="fill:none;fill-rule:evenodd;stroke:#FF0000;stroke-width:2.0px;stroke-linecap:butt;stroke-linejoin:miter;stroke-opacity:1"/>
<path class="bond-3" d="M 476.874,232.411 L 521.41,258.123" style="fill:none;fill-rule:evenodd;stroke:#000000;stroke-width:2.0px;stroke-linecap:butt;stroke-linejoin:miter;stroke-opacity:1"/>
<path class="bond-4" d="M 521.41,258.123 L 626.516,197.44" style="fill:none;fill-rule:evenodd;stroke:#000000;stroke-width:2.0px;stroke-linecap:butt;stroke-linejoin:miter;stroke-opacity:1"/>
<path class="bond-5" d="M 509.273,258.123 L 509.273,310.129" style="fill:none;fill-rule:evenodd;stroke:#000000;stroke-width:2.0px;stroke-linecap:butt;stroke-linejoin:miter;stroke-opacity:1"/>
<path class="bond-5" d="M 509.273,310.129 L 509.273,362.135" style="fill:none;fill-rule:evenodd;stroke:#FF0000;stroke-width:2.0px;stroke-linecap:butt;stroke-linejoin:miter;stroke-opacity:1"/>
<path class="bond-5" d="M 533.546,258.123 L 533.546,310.129" style="fill:none;fill-rule:evenodd;stroke:#000000;stroke-width:2.0px;stroke-linecap:butt;stroke-linejoin:miter;stroke-opacity:1"/>
<path class="bond-5" d="M 533.546,310.129 L 533.546,362.135" style="fill:none;fill-rule:evenodd;stroke:#FF0000;stroke-width:2.0px;stroke-linecap:butt;stroke-linejoin:miter;stroke-opacity:1"/>
<path class="bond-6" d="M 946.634,310.397 L 997.201,327.586" style="fill:none;fill-rule:evenodd;stroke:#0000FF;stroke-width:2.0px;stroke-linecap:butt;stroke-linejoin:miter;stroke-opacity:1"/>
<path class="bond-6" d="M 997.201,327.586 L 1047.77,344.775" style="fill:none;fill-rule:evenodd;stroke:#000000;stroke-width:2.0px;stroke-linecap:butt;stroke-linejoin:miter;stroke-opacity:1"/>
<path class="bond-6" d="M 938.822,333.379 L 981.804,347.99" style="fill:none;fill-rule:evenodd;stroke:#0000FF;stroke-width:2.0px;stroke-linecap:butt;stroke-linejoin:miter;stroke-opacity:1"/>
<path class="bond-6" d="M 981.804,347.99 L 1024.79,362.6" style="fill:none;fill-rule:evenodd;stroke:#000000;stroke-width:2.0px;stroke-linecap:butt;stroke-linejoin:miter;stroke-opacity:1"/>
<path class="bond-6" d="M 954.446,287.416 L 997.428,302.026" style="fill:none;fill-rule:evenodd;stroke:#0000FF;stroke-width:2.0px;stroke-linecap:butt;stroke-linejoin:miter;stroke-opacity:1"/>
<path class="bond-6" d="M 997.428,302.026 L 1040.41,316.637" style="fill:none;fill-rule:evenodd;stroke:#000000;stroke-width:2.0px;stroke-linecap:butt;stroke-linejoin:miter;stroke-opacity:1"/>
<path class="bond-7" d="M 1047.77,344.775 L 1099.17,362.246" style="fill:none;fill-rule:evenodd;stroke:#000000;stroke-width:2.0px;stroke-linecap:butt;stroke-linejoin:miter;stroke-opacity:1"/>
<path class="bond-7" d="M 1099.17,362.246 L 1150.56,379.717" style="fill:none;fill-rule:evenodd;stroke:#CCCC00;stroke-width:2.0px;stroke-linecap:butt;stroke-linejoin:miter;stroke-opacity:1"/>
<path class="bond-8" d="M 1174.79,373.221 L 1214.38,338.536" style="fill:none;fill-rule:evenodd;stroke:#CCCC00;stroke-width:2.0px;stroke-linecap:butt;stroke-linejoin:miter;stroke-opacity:1"/>
<path class="bond-8" d="M 1214.38,338.536 L 1253.96,303.851" style="fill:none;fill-rule:evenodd;stroke:#000000;stroke-width:2.0px;stroke-linecap:butt;stroke-linejoin:miter;stroke-opacity:1"/>
<path class="bond-9" d="M 1253.96,303.851 L 1230.33,184.808" style="fill:none;fill-rule:evenodd;stroke:#000000;stroke-width:2.0px;stroke-linecap:butt;stroke-linejoin:miter;stroke-opacity:1"/>
<path class="bond-9" d="M 1274.22,281.269 L 1257.68,197.939" style="fill:none;fill-rule:evenodd;stroke:#000000;stroke-width:2.0px;stroke-linecap:butt;stroke-linejoin:miter;stroke-opacity:1;stroke-dasharray:6,6"/>
<path class="bond-18" d="M 1253.96,303.851 L 1368.87,342.912" style="fill:none;fill-rule:evenodd;stroke:#000000;stroke-width:2.0px;stroke-linecap:butt;stroke-linejoin:miter;stroke-opacity:1"/>
<path class="bond-18" d="M 1279.01,286.729 L 1359.44,314.071" style="fill:none;fill-rule:evenodd;stroke:#000000;stroke-width:2.0px;stroke-linecap:butt;stroke-linejoin:miter;stroke-opacity:1;stroke-dasharray:6,6"/>
<path class="bond-10" d="M 1230.33,184.808 L 1179.76,167.619" style="fill:none;fill-rule:evenodd;stroke:#000000;stroke-width:2.0px;stroke-linecap:butt;stroke-linejoin:miter;stroke-opacity:1"/>
<path class="bond-10" d="M 1179.76,167.619 L 1129.2,150.43" style="fill:none;fill-rule:evenodd;stroke:#0000FF;stroke-width:2.0px;stroke-linecap:butt;stroke-linejoin:miter;stroke-opacity:1"/>
<path class="bond-11" d="M 1230.33,184.808 L 1321.61,104.824" style="fill:none;fill-rule:evenodd;stroke:#000000;stroke-width:2.0px;stroke-linecap:butt;stroke-linejoin:miter;stroke-opacity:1"/>
<path class="bond-11" d="M 1260.02,191.066 L 1323.92,135.078" style="fill:none;fill-rule:evenodd;stroke:#000000;stroke-width:2.0px;stroke-linecap:butt;stroke-linejoin:miter;stroke-opacity:1;stroke-dasharray:6,6"/>
<path class="bond-12" d="M 1321.61,104.824 L 1436.52,143.884" style="fill:none;fill-rule:evenodd;stroke:#000000;stroke-width:2.0px;stroke-linecap:butt;stroke-linejoin:miter;stroke-opacity:1"/>
<path class="bond-12" d="M 1331.04,133.664 L 1411.47,161.006" style="fill:none;fill-rule:evenodd;stroke:#000000;stroke-width:2.0px;stroke-linecap:butt;stroke-linejoin:miter;stroke-opacity:1;stroke-dasharray:6,6"/>
<path class="bond-13" d="M 1436.52,143.884 L 1460.15,262.928" style="fill:none;fill-rule:evenodd;stroke:#000000;stroke-width:2.0px;stroke-linecap:butt;stroke-linejoin:miter;stroke-opacity:1"/>
<path class="bond-13" d="M 1416.26,166.466 L 1432.8,249.797" style="fill:none;fill-rule:evenodd;stroke:#000000;stroke-width:2.0px;stroke-linecap:butt;stroke-linejoin:miter;stroke-opacity:1;stroke-dasharray:6,6"/>
<path class="bond-14" d="M 1460.15,262.928 L 1575.06,301.988" style="fill:none;fill-rule:evenodd;stroke:#000000;stroke-width:2.0px;stroke-linecap:butt;stroke-linejoin:miter;stroke-opacity:1"/>
<path class="bond-17" d="M 1460.15,262.928 L 1368.87,342.912" style="fill:none;fill-rule:evenodd;stroke:#000000;stroke-width:2.0px;stroke-linecap:butt;stroke-linejoin:miter;stroke-opacity:1"/>
<path class="bond-17" d="M 1430.46,256.669 L 1366.56,312.658" style="fill:none;fill-rule:evenodd;stroke:#000000;stroke-width:2.0px;stroke-linecap:butt;stroke-linejoin:miter;stroke-opacity:1;stroke-dasharray:6,6"/>
<path class="bond-15" d="M 1575.06,301.988 L 1598.68,421.032" style="fill:none;fill-rule:evenodd;stroke:#000000;stroke-width:2.0px;stroke-linecap:butt;stroke-linejoin:miter;stroke-opacity:1"/>
<path class="bond-16" d="M 1583.06,311.116 L 1620.68,278.149" style="fill:none;fill-rule:evenodd;stroke:#000000;stroke-width:2.0px;stroke-linecap:butt;stroke-linejoin:miter;stroke-opacity:1"/>
<path class="bond-16" d="M 1620.68,278.149 L 1658.3,245.182" style="fill:none;fill-rule:evenodd;stroke:#FF0000;stroke-width:2.0px;stroke-linecap:butt;stroke-linejoin:miter;stroke-opacity:1"/>
<path class="bond-16" d="M 1567.06,292.86 L 1604.68,259.892" style="fill:none;fill-rule:evenodd;stroke:#000000;stroke-width:2.0px;stroke-linecap:butt;stroke-linejoin:miter;stroke-opacity:1"/>
<path class="bond-16" d="M 1604.68,259.892 L 1642.31,226.925" style="fill:none;fill-rule:evenodd;stroke:#FF0000;stroke-width:2.0px;stroke-linecap:butt;stroke-linejoin:miter;stroke-opacity:1"/>
<path class="bond-19" d="M 2362.85,327.475 L 2467.96,266.792" style="fill:none;fill-rule:evenodd;stroke:#000000;stroke-width:2.0px;stroke-linecap:butt;stroke-linejoin:miter;stroke-opacity:1"/>
<path class="bond-20" d="M 2461.89,277.303 L 2506.42,303.016" style="fill:none;fill-rule:evenodd;stroke:#000000;stroke-width:2.0px;stroke-linecap:butt;stroke-linejoin:miter;stroke-opacity:1"/>
<path class="bond-20" d="M 2506.42,303.016 L 2550.96,328.729" style="fill:none;fill-rule:evenodd;stroke:#FF0000;stroke-width:2.0px;stroke-linecap:butt;stroke-linejoin:miter;stroke-opacity:1"/>
<path class="bond-20" d="M 2474.02,256.282 L 2518.56,281.995" style="fill:none;fill-rule:evenodd;stroke:#000000;stroke-width:2.0px;stroke-linecap:butt;stroke-linejoin:miter;stroke-opacity:1"/>
<path class="bond-20" d="M 2518.56,281.995 L 2563.1,307.708" style="fill:none;fill-rule:evenodd;stroke:#FF0000;stroke-width:2.0px;stroke-linecap:butt;stroke-linejoin:miter;stroke-opacity:1"/>
<path class="bond-21" d="M 2467.96,266.792 L 2467.96,215.007" style="fill:none;fill-rule:evenodd;stroke:#000000;stroke-width:2.0px;stroke-linecap:butt;stroke-linejoin:miter;stroke-opacity:1"/>
<path class="bond-21" d="M 2467.96,215.007 L 2467.96,163.221" style="fill:none;fill-rule:evenodd;stroke:#FF0000;stroke-width:2.0px;stroke-linecap:butt;stroke-linejoin:miter;stroke-opacity:1"/>
<path class="bond-22" d="M 2883.14,216.314 L 3004.51,215.855" style="fill:none;fill-rule:evenodd;stroke:#000000;stroke-width:2.0px;stroke-linecap:butt;stroke-linejoin:miter;stroke-opacity:1"/>
<path class="bond-23" d="M 3015.04,221.884 L 3040.09,178.114" style="fill:none;fill-rule:evenodd;stroke:#000000;stroke-width:2.0px;stroke-linecap:butt;stroke-linejoin:miter;stroke-opacity:1"/>
<path class="bond-23" d="M 3040.09,178.114 L 3065.14,134.344" style="fill:none;fill-rule:evenodd;stroke:#FF0000;stroke-width:2.0px;stroke-linecap:butt;stroke-linejoin:miter;stroke-opacity:1"/>
<path class="bond-23" d="M 2993.98,209.827 L 3019.03,166.057" style="fill:none;fill-rule:evenodd;stroke:#000000;stroke-width:2.0px;stroke-linecap:butt;stroke-linejoin:miter;stroke-opacity:1"/>
<path class="bond-23" d="M 3019.03,166.057 L 3044.08,122.286" style="fill:none;fill-rule:evenodd;stroke:#FF0000;stroke-width:2.0px;stroke-linecap:butt;stroke-linejoin:miter;stroke-opacity:1"/>
<path class="bond-24" d="M 3004.51,215.855 L 3030.04,259.696" style="fill:none;fill-rule:evenodd;stroke:#000000;stroke-width:2.0px;stroke-linecap:butt;stroke-linejoin:miter;stroke-opacity:1"/>
<path class="bond-24" d="M 3030.04,259.696 L 3055.58,303.537" style="fill:none;fill-rule:evenodd;stroke:#0000FF;stroke-width:2.0px;stroke-linecap:butt;stroke-linejoin:miter;stroke-opacity:1"/>
<path class="bond-25" d="M 3079.36,320.679 L 3133.16,320.476" style="fill:none;fill-rule:evenodd;stroke:#0000FF;stroke-width:2.0px;stroke-linecap:butt;stroke-linejoin:miter;stroke-opacity:1"/>
<path class="bond-25" d="M 3133.16,320.476 L 3186.95,320.273" style="fill:none;fill-rule:evenodd;stroke:#000000;stroke-width:2.0px;stroke-linecap:butt;stroke-linejoin:miter;stroke-opacity:1"/>
<path class="bond-26" d="M 3186.95,320.273 L 3216.51,360.635" style="fill:none;fill-rule:evenodd;stroke:#000000;stroke-width:2.0px;stroke-linecap:butt;stroke-linejoin:miter;stroke-opacity:1"/>
<path class="bond-26" d="M 3216.51,360.635 L 3246.07,400.996" style="fill:none;fill-rule:evenodd;stroke:#0000FF;stroke-width:2.0px;stroke-linecap:butt;stroke-linejoin:miter;stroke-opacity:1"/>
<path class="bond-26" d="M 3215.41,318.04 L 3236.1,346.293" style="fill:none;fill-rule:evenodd;stroke:#000000;stroke-width:2.0px;stroke-linecap:butt;stroke-linejoin:miter;stroke-opacity:1;stroke-dasharray:6,6"/>
<path class="bond-26" d="M 3236.1,346.293 L 3256.79,374.546" style="fill:none;fill-rule:evenodd;stroke:#0000FF;stroke-width:2.0px;stroke-linecap:butt;stroke-linejoin:miter;stroke-opacity:1;stroke-dasharray:6,6"/>
<path class="bond-37" d="M 3186.95,320.273 L 3216.38,279.449" style="fill:none;fill-rule:evenodd;stroke:#000000;stroke-width:2.0px;stroke-linecap:butt;stroke-linejoin:miter;stroke-opacity:1"/>
<path class="bond-37" d="M 3216.38,279.449 L 3245.81,238.624" style="fill:none;fill-rule:evenodd;stroke:#CCCC00;stroke-width:2.0px;stroke-linecap:butt;stroke-linejoin:miter;stroke-opacity:1"/>
<path class="bond-37" d="M 3215.47,322.219 L 3236.07,293.642" style="fill:none;fill-rule:evenodd;stroke:#000000;stroke-width:2.0px;stroke-linecap:butt;stroke-linejoin:miter;stroke-opacity:1;stroke-dasharray:6,6"/>
<path class="bond-37" d="M 3236.07,293.642 L 3256.67,265.064" style="fill:none;fill-rule:evenodd;stroke:#CCCC00;stroke-width:2.0px;stroke-linecap:butt;stroke-linejoin:miter;stroke-opacity:1;stroke-dasharray:6,6"/>
<path class="bond-27" d="M 3272.44,413.657 L 3323.19,396.954" style="fill:none;fill-rule:evenodd;stroke:#0000FF;stroke-width:2.0px;stroke-linecap:butt;stroke-linejoin:miter;stroke-opacity:1"/>
<path class="bond-27" d="M 3323.19,396.954 L 3373.95,380.25" style="fill:none;fill-rule:evenodd;stroke:#000000;stroke-width:2.0px;stroke-linecap:butt;stroke-linejoin:miter;stroke-opacity:1"/>
<path class="bond-27" d="M 3280.07,385.589 L 3315.6,373.897" style="fill:none;fill-rule:evenodd;stroke:#0000FF;stroke-width:2.0px;stroke-linecap:butt;stroke-linejoin:miter;stroke-opacity:1;stroke-dasharray:6,6"/>
<path class="bond-27" d="M 3315.6,373.897 L 3351.13,362.204" style="fill:none;fill-rule:evenodd;stroke:#000000;stroke-width:2.0px;stroke-linecap:butt;stroke-linejoin:miter;stroke-opacity:1;stroke-dasharray:6,6"/>
<path class="bond-28" d="M 3373.95,380.25 L 3479.28,440.536" style="fill:none;fill-rule:evenodd;stroke:#000000;stroke-width:2.0px;stroke-linecap:butt;stroke-linejoin:miter;stroke-opacity:1"/>
<path class="bond-28" d="M 3401.8,368.226 L 3475.54,410.426" style="fill:none;fill-rule:evenodd;stroke:#000000;stroke-width:2.0px;stroke-linecap:butt;stroke-linejoin:miter;stroke-opacity:1;stroke-dasharray:6,6"/>
<path class="bond-38" d="M 3373.95,380.25 L 3373.49,258.885" style="fill:none;fill-rule:evenodd;stroke:#000000;stroke-width:2.0px;stroke-linecap:butt;stroke-linejoin:miter;stroke-opacity:1"/>
<path class="bond-38" d="M 3349.6,362.137 L 3349.28,277.181" style="fill:none;fill-rule:evenodd;stroke:#000000;stroke-width:2.0px;stroke-linecap:butt;stroke-linejoin:miter;stroke-opacity:1;stroke-dasharray:6,6"/>
<path class="bond-29" d="M 3479.28,440.536 L 3584.16,379.456" style="fill:none;fill-rule:evenodd;stroke:#000000;stroke-width:2.0px;stroke-linecap:butt;stroke-linejoin:miter;stroke-opacity:1"/>
<path class="bond-29" d="M 3482.8,410.399 L 3556.21,367.643" style="fill:none;fill-rule:evenodd;stroke:#000000;stroke-width:2.0px;stroke-linecap:butt;stroke-linejoin:miter;stroke-opacity:1;stroke-dasharray:6,6"/>
<path class="bond-30" d="M 3584.16,379.456 L 3583.7,258.091" style="fill:none;fill-rule:evenodd;stroke:#000000;stroke-width:2.0px;stroke-linecap:butt;stroke-linejoin:miter;stroke-opacity:1"/>
<path class="bond-30" d="M 3559.81,361.343 L 3559.49,276.387" style="fill:none;fill-rule:evenodd;stroke:#000000;stroke-width:2.0px;stroke-linecap:butt;stroke-linejoin:miter;stroke-opacity:1;stroke-dasharray:6,6"/>
<path class="bond-31" d="M 3583.7,258.091 L 3688.57,197.011" style="fill:none;fill-rule:evenodd;stroke:#000000;stroke-width:2.0px;stroke-linecap:butt;stroke-linejoin:miter;stroke-opacity:1"/>
<path class="bond-34" d="M 3583.7,258.091 L 3478.36,197.805" style="fill:none;fill-rule:evenodd;stroke:#000000;stroke-width:2.0px;stroke-linecap:butt;stroke-linejoin:miter;stroke-opacity:1"/>
<path class="bond-34" d="M 3555.84,270.115 L 3482.11,227.915" style="fill:none;fill-rule:evenodd;stroke:#000000;stroke-width:2.0px;stroke-linecap:butt;stroke-linejoin:miter;stroke-opacity:1;stroke-dasharray:6,6"/>
<path class="bond-32" d="M 3688.57,197.011 L 3793.91,257.297" style="fill:none;fill-rule:evenodd;stroke:#000000;stroke-width:2.0px;stroke-linecap:butt;stroke-linejoin:miter;stroke-opacity:1"/>
<path class="bond-33" d="M 3700.71,196.965 L 3700.51,145.18" style="fill:none;fill-rule:evenodd;stroke:#000000;stroke-width:2.0px;stroke-linecap:butt;stroke-linejoin:miter;stroke-opacity:1"/>
<path class="bond-33" d="M 3700.51,145.18 L 3700.32,93.3944" style="fill:none;fill-rule:evenodd;stroke:#FF0000;stroke-width:2.0px;stroke-linecap:butt;stroke-linejoin:miter;stroke-opacity:1"/>
<path class="bond-33" d="M 3676.44,197.057 L 3676.24,145.272" style="fill:none;fill-rule:evenodd;stroke:#000000;stroke-width:2.0px;stroke-linecap:butt;stroke-linejoin:miter;stroke-opacity:1"/>
<path class="bond-33" d="M 3676.24,145.272 L 3676.05,93.4861" style="fill:none;fill-rule:evenodd;stroke:#FF0000;stroke-width:2.0px;stroke-linecap:butt;stroke-linejoin:miter;stroke-opacity:1"/>
<path class="bond-35" d="M 3478.36,197.805 L 3373.49,258.885" style="fill:none;fill-rule:evenodd;stroke:#000000;stroke-width:2.0px;stroke-linecap:butt;stroke-linejoin:miter;stroke-opacity:1"/>
<path class="bond-35" d="M 3474.85,227.943 L 3401.43,270.698" style="fill:none;fill-rule:evenodd;stroke:#000000;stroke-width:2.0px;stroke-linecap:butt;stroke-linejoin:miter;stroke-opacity:1;stroke-dasharray:6,6"/>
<path class="bond-36" d="M 3373.49,258.885 L 3321.76,242.294" style="fill:none;fill-rule:evenodd;stroke:#000000;stroke-width:2.0px;stroke-linecap:butt;stroke-linejoin:miter;stroke-opacity:1"/>
<path class="bond-36" d="M 3321.76,242.294 L 3270.03,225.703" style="fill:none;fill-rule:evenodd;stroke:#CCCC00;stroke-width:2.0px;stroke-linecap:butt;stroke-linejoin:miter;stroke-opacity:1"/>
<path class="bond-36" d="M 3350.56,277.021 L 3314.35,265.407" style="fill:none;fill-rule:evenodd;stroke:#000000;stroke-width:2.0px;stroke-linecap:butt;stroke-linejoin:miter;stroke-opacity:1;stroke-dasharray:6,6"/>
<path class="bond-36" d="M 3314.35,265.407 L 3278.14,253.793" style="fill:none;fill-rule:evenodd;stroke:#CCCC00;stroke-width:2.0px;stroke-linecap:butt;stroke-linejoin:miter;stroke-opacity:1;stroke-dasharray:6,6"/>
<path class="atom-2" d="M 298.197 379.57 Q 298.197 372.77, 301.557 368.97 Q 304.917 365.17, 311.197 365.17 Q 317.477 365.17, 320.837 368.97 Q 324.197 372.77, 324.197 379.57 Q 324.197 386.45, 320.797 390.37 Q 317.397 394.25, 311.197 394.25 Q 304.957 394.25, 301.557 390.37 Q 298.197 386.49, 298.197 379.57 M 311.197 391.05 Q 315.517 391.05, 317.837 388.17 Q 320.197 385.25, 320.197 379.57 Q 320.197 374.01, 317.837 371.21 Q 315.517 368.37, 311.197 368.37 Q 306.877 368.37, 304.517 371.17 Q 302.197 373.97, 302.197 379.57 Q 302.197 385.29, 304.517 388.17 Q 306.877 391.05, 311.197 391.05 " fill="#FF0000"/>
<path class="atom-3" d="M 403.304 197.52 Q 403.304 190.72, 406.664 186.92 Q 410.024 183.12, 416.304 183.12 Q 422.584 183.12, 425.944 186.92 Q 429.304 190.72, 429.304 197.52 Q 429.304 204.4, 425.904 208.32 Q 422.504 212.2, 416.304 212.2 Q 410.064 212.2, 406.664 208.32 Q 403.304 204.44, 403.304 197.52 M 416.304 209 Q 420.624 209, 422.944 206.12 Q 425.304 203.2, 425.304 197.52 Q 425.304 191.96, 422.944 189.16 Q 420.624 186.32, 416.304 186.32 Q 411.984 186.32, 409.624 189.12 Q 407.304 191.92, 407.304 197.52 Q 407.304 203.24, 409.624 206.12 Q 411.984 209, 416.304 209 " fill="#FF0000"/>
<path class="atom-6" d="M 508.41 379.57 Q 508.41 372.77, 511.77 368.97 Q 515.13 365.17, 521.41 365.17 Q 527.69 365.17, 531.05 368.97 Q 534.41 372.77, 534.41 379.57 Q 534.41 386.45, 531.01 390.37 Q 527.61 394.25, 521.41 394.25 Q 515.17 394.25, 511.77 390.37 Q 508.41 386.49, 508.41 379.57 M 521.41 391.05 Q 525.73 391.05, 528.05 388.17 Q 530.41 385.25, 530.41 379.57 Q 530.41 374.01, 528.05 371.21 Q 525.73 368.37, 521.41 368.37 Q 517.09 368.37, 514.73 371.17 Q 512.41 373.97, 512.41 379.57 Q 512.41 385.29, 514.73 388.17 Q 517.09 391.05, 521.41 391.05 " fill="#FF0000"/>
<path class="atom-7" d="M 926.6 291.555 L 935.88 306.555 Q 936.8 308.035, 938.28 310.715 Q 939.76 313.395, 939.84 313.555 L 939.84 291.555 L 943.6 291.555 L 943.6 319.875 L 939.72 319.875 L 929.76 303.475 Q 928.6 301.555, 927.36 299.355 Q 926.16 297.155, 925.8 296.475 L 925.8 319.875 L 922.12 319.875 L 922.12 291.555 L 926.6 291.555 " fill="#0000FF"/>
<path class="atom-9" d="M 1154.68 393.555 Q 1155 393.675, 1156.32 394.235 Q 1157.64 394.795, 1159.08 395.155 Q 1160.56 395.475, 1162 395.475 Q 1164.68 395.475, 1166.24 394.195 Q 1167.8 392.875, 1167.8 390.595 Q 1167.8 389.035, 1167 388.075 Q 1166.24 387.115, 1165.04 386.595 Q 1163.84 386.075, 1161.84 385.475 Q 1159.32 384.715, 1157.8 383.995 Q 1156.32 383.275, 1155.24 381.755 Q 1154.2 380.235, 1154.2 377.675 Q 1154.2 374.115, 1156.6 371.915 Q 1159.04 369.715, 1163.84 369.715 Q 1167.12 369.715, 1170.84 371.275 L 1169.92 374.355 Q 1166.52 372.955, 1163.96 372.955 Q 1161.2 372.955, 1159.68 374.115 Q 1158.16 375.235, 1158.2 377.195 Q 1158.2 378.715, 1158.96 379.635 Q 1159.76 380.555, 1160.88 381.075 Q 1162.04 381.595, 1163.96 382.195 Q 1166.52 382.995, 1168.04 383.795 Q 1169.56 384.595, 1170.64 386.235 Q 1171.76 387.835, 1171.76 390.595 Q 1171.76 394.515, 1169.12 396.635 Q 1166.52 398.715, 1162.16 398.715 Q 1159.64 398.715, 1157.72 398.155 Q 1155.84 397.635, 1153.6 396.715 L 1154.68 393.555 " fill="#CCCC00"/>
<path class="atom-12" d="M 1065.29 131.587 L 1069.13 131.587 L 1069.13 143.627 L 1083.61 143.627 L 1083.61 131.587 L 1087.45 131.587 L 1087.45 159.907 L 1083.61 159.907 L 1083.61 146.827 L 1069.13 146.827 L 1069.13 159.907 L 1065.29 159.907 L 1065.29 131.587 " fill="#0000FF"/>
<path class="atom-12" d="M 1088.82 158.914 Q 1089.51 157.145, 1091.15 156.168 Q 1092.78 155.165, 1095.05 155.165 Q 1097.88 155.165, 1099.46 156.696 Q 1101.05 158.227, 1101.05 160.947 Q 1101.05 163.719, 1098.99 166.306 Q 1096.95 168.893, 1092.73 171.955 L 1101.36 171.955 L 1101.36 174.067 L 1088.77 174.067 L 1088.77 172.299 Q 1092.25 169.817, 1094.31 167.969 Q 1096.4 166.121, 1097.4 164.458 Q 1098.41 162.795, 1098.41 161.079 Q 1098.41 159.283, 1097.51 158.28 Q 1096.61 157.277, 1095.05 157.277 Q 1093.55 157.277, 1092.54 157.884 Q 1091.54 158.491, 1090.83 159.838 L 1088.82 158.914 " fill="#0000FF"/>
<path class="atom-12" d="M 1109.16 131.587 L 1118.44 146.587 Q 1119.36 148.067, 1120.84 150.747 Q 1122.32 153.427, 1122.4 153.587 L 1122.4 131.587 L 1126.16 131.587 L 1126.16 159.907 L 1122.28 159.907 L 1112.32 143.507 Q 1111.16 141.587, 1109.92 139.387 Q 1108.72 137.187, 1108.36 136.507 L 1108.36 159.907 L 1104.68 159.907 L 1104.68 131.587 L 1109.16 131.587 " fill="#0000FF"/>
<path class="atom-18" d="M 1653.34 222.084 Q 1653.34 215.284, 1656.7 211.484 Q 1660.06 207.684, 1666.34 207.684 Q 1672.62 207.684, 1675.98 211.484 Q 1679.34 215.284, 1679.34 222.084 Q 1679.34 228.964, 1675.94 232.884 Q 1672.54 236.764, 1666.34 236.764 Q 1660.1 236.764, 1656.7 232.884 Q 1653.34 229.004, 1653.34 222.084 M 1666.34 233.564 Q 1670.66 233.564, 1672.98 230.684 Q 1675.34 227.764, 1675.34 222.084 Q 1675.34 216.524, 1672.98 213.724 Q 1670.66 210.884, 1666.34 210.884 Q 1662.02 210.884, 1659.66 213.684 Q 1657.34 216.484, 1657.34 222.084 Q 1657.34 227.804, 1659.66 230.684 Q 1662.02 233.564, 1666.34 233.564 " fill="#FF0000"/>
<path class="atom-22" d="M 2560.06 327.555 Q 2560.06 320.755, 2563.42 316.955 Q 2566.78 313.155, 2573.06 313.155 Q 2579.34 313.155, 2582.7 316.955 Q 2586.06 320.755, 2586.06 327.555 Q 2586.06 334.435, 2582.66 338.355 Q 2579.26 342.235, 2573.06 342.235 Q 2566.82 342.235, 2563.42 338.355 Q 2560.06 334.475, 2560.06 327.555 M 2573.06 339.035 Q 2577.38 339.035, 2579.7 336.155 Q 2582.06 333.235, 2582.06 327.555 Q 2582.06 321.995, 2579.7 319.195 Q 2577.38 316.355, 2573.06 316.355 Q 2568.74 316.355, 2566.38 319.155 Q 2564.06 321.955, 2564.06 327.555 Q 2564.06 333.275, 2566.38 336.155 Q 2568.74 339.035, 2573.06 339.035 " fill="#FF0000"/>
<path class="atom-23" d="M 2454.96 145.506 Q 2454.96 138.706, 2458.32 134.906 Q 2461.68 131.106, 2467.96 131.106 Q 2474.24 131.106, 2477.6 134.906 Q 2480.96 138.706, 2480.96 145.506 Q 2480.96 152.386, 2477.56 156.306 Q 2474.16 160.186, 2467.96 160.186 Q 2461.72 160.186, 2458.32 156.306 Q 2454.96 152.426, 2454.96 145.506 M 2467.96 156.986 Q 2472.28 156.986, 2474.6 154.106 Q 2476.96 151.186, 2476.96 145.506 Q 2476.96 139.946, 2474.6 137.146 Q 2472.28 134.306, 2467.96 134.306 Q 2463.64 134.306, 2461.28 137.106 Q 2458.96 139.906, 2458.96 145.506 Q 2458.96 151.226, 2461.28 154.106 Q 2463.64 156.986, 2467.96 156.986 " fill="#FF0000"/>
<path class="atom-23" d="M 2484.36 131.426 L 2488.2 131.426 L 2488.2 143.466 L 2502.68 143.466 L 2502.68 131.426 L 2506.52 131.426 L 2506.52 159.746 L 2502.68 159.746 L 2502.68 146.666 L 2488.2 146.666 L 2488.2 159.746 L 2484.36 159.746 L 2484.36 131.426 " fill="#FF0000"/>
<path class="atom-26" d="M 3051.8 110.601 Q 3051.8 103.801, 3055.16 100.001 Q 3058.52 96.2009, 3064.8 96.2009 Q 3071.08 96.2009, 3074.44 100.001 Q 3077.8 103.801, 3077.8 110.601 Q 3077.8 117.481, 3074.4 121.401 Q 3071 125.281, 3064.8 125.281 Q 3058.56 125.281, 3055.16 121.401 Q 3051.8 117.521, 3051.8 110.601 M 3064.8 122.081 Q 3069.12 122.081, 3071.44 119.201 Q 3073.8 116.281, 3073.8 110.601 Q 3073.8 105.041, 3071.44 102.241 Q 3069.12 99.4009, 3064.8 99.4009 Q 3060.48 99.4009, 3058.12 102.201 Q 3055.8 105.001, 3055.8 110.601 Q 3055.8 116.321, 3058.12 119.201 Q 3060.48 122.081, 3064.8 122.081 " fill="#FF0000"/>
<path class="atom-27" d="M 3029.37 306.572 L 3033.21 306.572 L 3033.21 318.612 L 3047.69 318.612 L 3047.69 306.572 L 3051.53 306.572 L 3051.53 334.892 L 3047.69 334.892 L 3047.69 321.812 L 3033.21 321.812 L 3033.21 334.892 L 3029.37 334.892 L 3029.37 306.572 " fill="#0000FF"/>
<path class="atom-27" d="M 3059.33 306.572 L 3068.61 321.572 Q 3069.53 323.052, 3071.01 325.732 Q 3072.49 328.412, 3072.57 328.572 L 3072.57 306.572 L 3076.33 306.572 L 3076.33 334.892 L 3072.45 334.892 L 3062.49 318.492 Q 3061.33 316.572, 3060.09 314.372 Q 3058.89 312.172, 3058.53 311.492 L 3058.53 334.892 L 3054.85 334.892 L 3054.85 306.572 L 3059.33 306.572 " fill="#0000FF"/>
<path class="atom-29" d="M 3252.4 404.03 L 3261.68 419.03 Q 3262.6 420.51, 3264.08 423.19 Q 3265.56 425.87, 3265.64 426.03 L 3265.64 404.03 L 3269.4 404.03 L 3269.4 432.35 L 3265.52 432.35 L 3255.56 415.95 Q 3254.4 414.03, 3253.16 411.83 Q 3251.96 409.63, 3251.6 408.95 L 3251.6 432.35 L 3247.92 432.35 L 3247.92 404.03 L 3252.4 404.03 " fill="#0000FF"/>
<path class="atom-36" d="M 3675.12 75.7261 Q 3675.12 68.9261, 3678.48 65.1261 Q 3681.84 61.3261, 3688.12 61.3261 Q 3694.4 61.3261, 3697.76 65.1261 Q 3701.12 68.9261, 3701.12 75.7261 Q 3701.12 82.6061, 3697.72 86.5261 Q 3694.32 90.4061, 3688.12 90.4061 Q 3681.88 90.4061, 3678.48 86.5261 Q 3675.12 82.6461, 3675.12 75.7261 M 3688.12 87.2061 Q 3692.44 87.2061, 3694.76 84.3261 Q 3697.12 81.4061, 3697.12 75.7261 Q 3697.12 70.1661, 3694.76 67.3661 Q 3692.44 64.5261, 3688.12 64.5261 Q 3683.8 64.5261, 3681.44 67.3261 Q 3679.12 70.1261, 3679.12 75.7261 Q 3679.12 81.4461, 3681.44 84.3261 Q 3683.8 87.2061, 3688.12 87.2061 " fill="#FF0000"/>
<path class="atom-39" d="M 3249.92 231.537 Q 3250.24 231.657, 3251.56 232.217 Q 3252.88 232.777, 3254.32 233.137 Q 3255.8 233.457, 3257.24 233.457 Q 3259.92 233.457, 3261.48 232.177 Q 3263.04 230.857, 3263.04 228.577 Q 3263.04 227.017, 3262.24 226.057 Q 3261.48 225.097, 3260.28 224.577 Q 3259.08 224.057, 3257.08 223.457 Q 3254.56 222.697, 3253.04 221.977 Q 3251.56 221.257, 3250.48 219.737 Q 3249.44 218.217, 3249.44 215.657 Q 3249.44 212.097, 3251.84 209.897 Q 3254.28 207.697, 3259.08 207.697 Q 3262.36 207.697, 3266.08 209.257 L 3265.16 212.337 Q 3261.76 210.937, 3259.2 210.937 Q 3256.44 210.937, 3254.92 212.097 Q 3253.4 213.217, 3253.44 215.177 Q 3253.44 216.697, 3254.2 217.617 Q 3255 218.537, 3256.12 219.057 Q 3257.28 219.577, 3259.2 220.177 Q 3261.76 220.977, 3263.28 221.777 Q 3264.8 222.577, 3265.88 224.217 Q 3267 225.817, 3267 228.577 Q 3267 232.497, 3264.36 234.617 Q 3261.76 236.697, 3257.4 236.697 Q 3254.88 236.697, 3252.96 236.137 Q 3251.08 235.617, 3248.84 234.697 L 3249.92 231.537 " fill="#CCCC00"/>
<path class="note" d="M 192.488 220.478 L 195.588 220.478 L 195.588 209.898 L 192.168 210.958 L 191.708 209.778 L 196.048 207.838 L 197.468 208.078 L 197.468 220.478 L 200.248 220.478 L 200.248 222.078 L 192.488 222.078 L 192.488 220.478 " fill="#000000"/>
<path class="note" d="M 306.467 233.576 Q 306.987 232.236, 308.227 231.496 Q 309.467 230.736, 311.187 230.736 Q 313.327 230.736, 314.527 231.896 Q 315.727 233.056, 315.727 235.116 Q 315.727 237.216, 314.167 239.176 Q 312.627 241.136, 309.427 243.456 L 315.967 243.456 L 315.967 245.056 L 306.427 245.056 L 306.427 243.716 Q 309.067 241.836, 310.627 240.436 Q 312.207 239.036, 312.967 237.776 Q 313.727 236.516, 313.727 235.216 Q 313.727 233.856, 313.047 233.096 Q 312.367 232.336, 311.187 232.336 Q 310.047 232.336, 309.287 232.796 Q 308.527 233.256, 307.987 234.276 L 306.467 233.576 " fill="#000000"/>
<path class="note" d="M 313.237 419.645 Q 314.617 420.045, 315.277 420.945 Q 315.957 421.825, 315.957 423.225 Q 315.957 424.425, 315.357 425.365 Q 314.757 426.285, 313.657 426.805 Q 312.557 427.305, 311.117 427.305 Q 309.597 427.305, 308.457 426.785 Q 307.337 426.245, 306.437 425.165 L 307.577 424.005 Q 308.457 424.965, 309.197 425.345 Q 309.937 425.705, 311.117 425.705 Q 312.397 425.705, 313.177 425.025 Q 313.957 424.325, 313.957 423.205 Q 313.957 421.765, 313.137 421.125 Q 312.337 420.465, 310.597 420.465 L 309.577 420.465 L 309.577 419.025 L 310.477 419.025 Q 312.017 419.005, 312.837 418.345 Q 313.657 417.665, 313.657 416.405 Q 313.657 415.485, 312.977 414.945 Q 312.297 414.385, 311.137 414.385 Q 309.957 414.385, 309.217 414.805 Q 308.497 415.225, 307.937 416.285 L 306.557 415.545 Q 307.057 414.365, 308.257 413.585 Q 309.457 412.785, 311.137 412.785 Q 313.217 412.785, 314.437 413.765 Q 315.657 414.745, 315.657 416.405 Q 315.657 417.545, 315.037 418.365 Q 314.417 419.185, 313.237 419.645 " fill="#000000"/>
<path class="note" d="M 401.014 152.665 Q 401.534 151.325, 402.774 150.585 Q 404.014 149.825, 405.734 149.825 Q 407.874 149.825, 409.074 150.985 Q 410.274 152.145, 410.274 154.205 Q 410.274 156.305, 408.714 158.265 Q 407.174 160.225, 403.974 162.545 L 410.514 162.545 L 410.514 164.145 L 400.974 164.145 L 400.974 162.805 Q 403.614 160.925, 405.174 159.525 Q 406.754 158.125, 407.514 156.865 Q 408.274 155.605, 408.274 154.305 Q 408.274 152.945, 407.594 152.185 Q 406.914 151.425, 405.734 151.425 Q 404.594 151.425, 403.834 151.885 Q 403.074 152.345, 402.534 153.365 L 401.014 152.665 " fill="#000000"/>
<path class="note" d="M 416.914 164.305 Q 414.314 164.305, 413.014 162.385 Q 411.734 160.465, 411.734 157.045 Q 411.734 153.625, 413.014 151.725 Q 414.294 149.825, 416.914 149.825 Q 419.534 149.825, 420.814 151.725 Q 422.094 153.625, 422.094 157.045 Q 422.094 160.465, 420.794 162.385 Q 419.514 164.305, 416.914 164.305 M 416.914 162.705 Q 418.454 162.705, 419.274 161.285 Q 420.094 159.845, 420.094 157.045 Q 420.094 154.265, 419.274 152.845 Q 418.454 151.425, 416.914 151.425 Q 415.394 151.425, 414.554 152.845 Q 413.734 154.265, 413.734 157.045 Q 413.734 159.845, 414.554 161.285 Q 415.394 162.705, 416.914 162.705 " fill="#000000"/>
<path class="note" d="M 508.03 223.228 L 511.13 223.228 L 511.13 212.648 L 507.71 213.708 L 507.25 212.528 L 511.59 210.588 L 513.01 210.828 L 513.01 223.228 L 515.79 223.228 L 515.79 224.828 L 508.03 224.828 L 508.03 223.228 " fill="#000000"/>
<path class="note" d="M 524.25 217.328 Q 525.55 217.888, 526.29 218.728 Q 527.03 219.548, 527.03 220.948 Q 527.03 222.148, 526.41 223.088 Q 525.79 224.008, 524.67 224.528 Q 523.57 225.028, 522.11 225.028 Q 519.75 225.028, 518.39 223.948 Q 517.03 222.848, 517.03 220.948 Q 517.03 219.788, 517.63 218.928 Q 518.23 218.048, 519.47 217.388 Q 518.55 216.868, 518.05 216.108 Q 517.55 215.328, 517.55 214.128 Q 517.55 212.468, 518.75 211.488 Q 519.97 210.508, 522.03 210.508 Q 524.09 210.508, 525.29 211.488 Q 526.51 212.468, 526.51 214.128 Q 526.51 215.168, 525.93 215.948 Q 525.37 216.708, 524.25 217.328 M 522.03 212.008 Q 520.85 212.008, 520.19 212.568 Q 519.55 213.128, 519.55 214.128 Q 519.55 214.868, 519.99 215.368 Q 520.43 215.848, 521.05 216.128 Q 521.69 216.408, 522.91 216.828 Q 523.77 216.228, 524.13 215.588 Q 524.51 214.948, 524.51 214.128 Q 524.51 213.128, 523.85 212.568 Q 523.21 212.008, 522.03 212.008 M 522.11 223.528 Q 523.43 223.528, 524.23 222.828 Q 525.03 222.108, 525.03 220.928 Q 525.03 220.168, 524.61 219.688 Q 524.19 219.208, 523.55 218.928 Q 522.93 218.648, 521.81 218.288 L 520.91 217.988 Q 519.91 218.588, 519.47 219.308 Q 519.03 220.008, 519.03 220.928 Q 519.03 222.108, 519.87 222.828 Q 520.71 223.528, 522.11 223.528 " fill="#000000"/>
<path class="note" d="M 603.762 185.443 L 606.862 185.443 L 606.862 174.863 L 603.442 175.923 L 602.982 174.743 L 607.322 172.803 L 608.742 173.043 L 608.742 185.443 L 611.522 185.443 L 611.522 187.043 L 603.762 187.043 L 603.762 185.443 " fill="#000000"/>
<path class="note" d="M 619.302 174.483 L 611.882 174.483 L 611.882 172.883 L 621.282 172.883 L 621.282 174.303 L 615.562 187.043 L 613.642 187.043 L 619.302 174.483 " fill="#000000"/>
<path class="note" d="M 508.19 425.505 L 511.29 425.505 L 511.29 414.925 L 507.87 415.985 L 507.41 414.805 L 511.75 412.865 L 513.17 413.105 L 513.17 425.505 L 515.95 425.505 L 515.95 427.105 L 508.19 427.105 L 508.19 425.505 " fill="#000000"/>
<path class="note" d="M 521.81 412.785 Q 524.33 412.785, 525.59 414.505 Q 526.87 416.205, 526.87 419.605 Q 526.87 423.365, 525.29 425.325 Q 523.73 427.265, 520.71 427.265 Q 519.83 427.265, 519.07 427.065 Q 518.33 426.865, 517.61 426.445 L 518.39 425.105 Q 519.43 425.665, 520.69 425.665 Q 522.69 425.665, 523.71 424.385 Q 524.73 423.085, 524.85 420.425 Q 524.13 421.085, 523.21 421.445 Q 522.31 421.785, 521.33 421.785 Q 520.09 421.785, 519.11 421.245 Q 518.13 420.705, 517.59 419.725 Q 517.05 418.745, 517.05 417.505 Q 517.05 416.125, 517.65 415.065 Q 518.27 413.985, 519.35 413.385 Q 520.43 412.785, 521.81 412.785 M 519.05 417.485 Q 519.05 418.745, 519.75 419.465 Q 520.45 420.185, 521.69 420.185 Q 522.55 420.185, 523.39 419.845 Q 524.25 419.485, 524.85 418.885 Q 524.77 416.545, 524.03 415.485 Q 523.29 414.425, 521.79 414.425 Q 521.03 414.425, 520.39 414.825 Q 519.77 415.225, 519.41 415.925 Q 519.05 416.625, 519.05 417.485 " fill="#000000"/>
<path class="note" d="M 898.307 294.915 L 900.007 294.915 L 900.007 296.515 L 898.307 296.515 L 898.307 299.775 L 896.427 299.775 L 896.427 296.515 L 889.107 296.515 L 889.107 295.255 L 895.307 285.615 L 898.307 285.615 L 898.307 294.915 M 891.427 294.915 L 896.427 294.915 L 896.427 286.895 L 891.427 294.915 " fill="#000000"/>
<path class="note" d="M 1041.61 362.147 Q 1042.85 362.147, 1043.87 362.687 Q 1044.89 363.207, 1045.47 364.207 Q 1046.05 365.187, 1046.05 366.527 Q 1046.05 367.987, 1045.33 369.047 Q 1044.63 370.087, 1043.47 370.627 Q 1042.31 371.167, 1040.99 371.167 Q 1039.69 371.167, 1038.49 370.687 Q 1037.29 370.207, 1036.47 369.287 L 1037.67 368.047 Q 1038.33 368.767, 1039.23 369.167 Q 1040.13 369.547, 1041.05 369.547 Q 1042.31 369.547, 1043.17 368.767 Q 1044.05 367.987, 1044.05 366.567 Q 1044.05 365.067, 1043.17 364.367 Q 1042.31 363.647, 1040.93 363.647 Q 1039.69 363.647, 1038.31 364.187 L 1037.21 363.667 L 1037.89 356.847 L 1045.17 356.847 L 1044.97 358.447 L 1039.53 358.447 L 1039.11 362.647 Q 1040.37 362.147, 1041.61 362.147 " fill="#000000"/>
<path class="note" d="M 1157.2 429.077 L 1160.3 429.077 L 1160.3 418.497 L 1156.88 419.557 L 1156.42 418.377 L 1160.76 416.437 L 1162.18 416.677 L 1162.18 429.077 L 1164.96 429.077 L 1164.96 430.677 L 1157.2 430.677 L 1157.2 429.077 " fill="#000000"/>
<path class="note" d="M 1171.86 421.837 Q 1173.1 421.837, 1174.08 422.377 Q 1175.06 422.917, 1175.6 423.897 Q 1176.14 424.877, 1176.14 426.117 Q 1176.14 427.497, 1175.52 428.577 Q 1174.92 429.637, 1173.84 430.237 Q 1172.76 430.837, 1171.38 430.837 Q 1168.86 430.837, 1167.58 429.137 Q 1166.32 427.417, 1166.32 424.017 Q 1166.32 420.257, 1167.88 418.317 Q 1169.46 416.357, 1172.48 416.357 Q 1173.36 416.357, 1174.1 416.557 Q 1174.86 416.757, 1175.58 417.177 L 1174.8 418.517 Q 1173.76 417.957, 1172.5 417.957 Q 1170.5 417.957, 1169.48 419.257 Q 1168.46 420.537, 1168.34 423.197 Q 1169.06 422.537, 1169.96 422.197 Q 1170.88 421.837, 1171.86 421.837 M 1171.4 429.197 Q 1172.16 429.197, 1172.78 428.797 Q 1173.42 428.397, 1173.78 427.697 Q 1174.14 426.997, 1174.14 426.137 Q 1174.14 424.877, 1173.44 424.157 Q 1172.74 423.437, 1171.5 423.437 Q 1170.64 423.437, 1169.78 423.797 Q 1168.94 424.137, 1168.34 424.737 Q 1168.42 427.077, 1169.16 428.137 Q 1169.9 429.197, 1171.4 429.197 " fill="#000000"/>
<path class="note" d="M 1221.8 302.861 L 1224.9 302.861 L 1224.9 292.281 L 1221.48 293.341 L 1221.02 292.161 L 1225.36 290.221 L 1226.78 290.461 L 1226.78 302.861 L 1229.56 302.861 L 1229.56 304.461 L 1221.8 304.461 L 1221.8 302.861 " fill="#000000"/>
<path class="note" d="M 1235.62 295.601 Q 1236.86 295.601, 1237.88 296.141 Q 1238.9 296.661, 1239.48 297.661 Q 1240.06 298.641, 1240.06 299.981 Q 1240.06 301.441, 1239.34 302.501 Q 1238.64 303.541, 1237.48 304.081 Q 1236.32 304.621, 1235 304.621 Q 1233.7 304.621, 1232.5 304.141 Q 1231.3 303.661, 1230.48 302.741 L 1231.68 301.501 Q 1232.34 302.221, 1233.24 302.621 Q 1234.14 303.001, 1235.06 303.001 Q 1236.32 303.001, 1237.18 302.221 Q 1238.06 301.441, 1238.06 300.021 Q 1238.06 298.521, 1237.18 297.821 Q 1236.32 297.101, 1234.94 297.101 Q 1233.7 297.101, 1232.32 297.641 L 1231.22 297.121 L 1231.9 290.301 L 1239.18 290.301 L 1238.98 291.901 L 1233.54 291.901 L 1233.12 296.101 Q 1234.38 295.601, 1235.62 295.601 " fill="#000000"/>
<path class="note" d="M 1217.84 192.658 L 1210.42 192.658 L 1210.42 191.058 L 1219.82 191.058 L 1219.82 192.478 L 1214.1 205.218 L 1212.18 205.218 L 1217.84 192.658 " fill="#000000"/>
<path class="note" d="M 1123.93 183.749 Q 1125.17 183.749, 1126.15 184.289 Q 1127.13 184.829, 1127.67 185.809 Q 1128.21 186.789, 1128.21 188.029 Q 1128.21 189.409, 1127.59 190.489 Q 1126.99 191.549, 1125.91 192.149 Q 1124.83 192.749, 1123.45 192.749 Q 1120.93 192.749, 1119.65 191.049 Q 1118.39 189.329, 1118.39 185.929 Q 1118.39 182.169, 1119.95 180.229 Q 1121.53 178.269, 1124.55 178.269 Q 1125.43 178.269, 1126.17 178.469 Q 1126.93 178.669, 1127.65 179.089 L 1126.87 180.429 Q 1125.83 179.869, 1124.57 179.869 Q 1122.57 179.869, 1121.55 181.169 Q 1120.53 182.449, 1120.41 185.109 Q 1121.13 184.449, 1122.03 184.109 Q 1122.95 183.749, 1123.93 183.749 M 1123.47 191.109 Q 1124.23 191.109, 1124.85 190.709 Q 1125.49 190.309, 1125.85 189.609 Q 1126.21 188.909, 1126.21 188.049 Q 1126.21 186.789, 1125.51 186.069 Q 1124.81 185.349, 1123.57 185.349 Q 1122.71 185.349, 1121.85 185.709 Q 1121.01 186.049, 1120.41 186.649 Q 1120.49 188.989, 1121.23 190.049 Q 1121.97 191.109, 1123.47 191.109 " fill="#000000"/>
<path class="note" d="M 1319.89 84.643 Q 1321.19 85.203, 1321.93 86.043 Q 1322.67 86.863, 1322.67 88.263 Q 1322.67 89.463, 1322.05 90.403 Q 1321.43 91.323, 1320.31 91.843 Q 1319.21 92.343, 1317.75 92.343 Q 1315.39 92.343, 1314.03 91.263 Q 1312.67 90.163, 1312.67 88.263 Q 1312.67 87.103, 1313.27 86.243 Q 1313.87 85.363, 1315.11 84.703 Q 1314.19 84.183, 1313.69 83.423 Q 1313.19 82.643, 1313.19 81.443 Q 1313.19 79.783, 1314.39 78.803 Q 1315.61 77.823, 1317.67 77.823 Q 1319.73 77.823, 1320.93 78.803 Q 1322.15 79.783, 1322.15 81.443 Q 1322.15 82.483, 1321.57 83.263 Q 1321.01 84.023, 1319.89 84.643 M 1317.67 79.323 Q 1316.49 79.323, 1315.83 79.883 Q 1315.19 80.443, 1315.19 81.443 Q 1315.19 82.183, 1315.63 82.683 Q 1316.07 83.163, 1316.69 83.443 Q 1317.33 83.723, 1318.55 84.143 Q 1319.41 83.543, 1319.77 82.903 Q 1320.15 82.263, 1320.15 81.443 Q 1320.15 80.443, 1319.49 79.883 Q 1318.85 79.323, 1317.67 79.323 M 1317.75 90.843 Q 1319.07 90.843, 1319.87 90.143 Q 1320.67 89.423, 1320.67 88.243 Q 1320.67 87.483, 1320.25 87.003 Q 1319.83 86.523, 1319.19 86.243 Q 1318.57 85.963, 1317.45 85.603 L 1316.55 85.303 Q 1315.55 85.903, 1315.11 86.623 Q 1314.67 87.323, 1314.67 88.243 Q 1314.67 89.423, 1315.51 90.143 Q 1316.35 90.843, 1317.75 90.843 " fill="#000000"/>
<path class="note" d="M 1451.59 123.393 Q 1454.11 123.393, 1455.37 125.113 Q 1456.65 126.813, 1456.65 130.213 Q 1456.65 133.973, 1455.07 135.933 Q 1453.51 137.873, 1450.49 137.873 Q 1449.61 137.873, 1448.85 137.673 Q 1448.11 137.473, 1447.39 137.053 L 1448.17 135.713 Q 1449.21 136.273, 1450.47 136.273 Q 1452.47 136.273, 1453.49 134.993 Q 1454.51 133.693, 1454.63 131.033 Q 1453.91 131.693, 1452.99 132.053 Q 1452.09 132.393, 1451.11 132.393 Q 1449.87 132.393, 1448.89 131.853 Q 1447.91 131.313, 1447.37 130.333 Q 1446.83 129.353, 1446.83 128.113 Q 1446.83 126.733, 1447.43 125.673 Q 1448.05 124.593, 1449.13 123.993 Q 1450.21 123.393, 1451.59 123.393 M 1448.83 128.093 Q 1448.83 129.353, 1449.53 130.073 Q 1450.23 130.793, 1451.47 130.793 Q 1452.33 130.793, 1453.17 130.453 Q 1454.03 130.093, 1454.63 129.493 Q 1454.55 127.153, 1453.81 126.093 Q 1453.07 125.033, 1451.57 125.033 Q 1450.81 125.033, 1450.17 125.433 Q 1449.55 125.833, 1449.19 126.533 Q 1448.83 127.233, 1448.83 128.093 " fill="#000000"/>
<path class="note" d="M 1477.03 241.826 L 1480.13 241.826 L 1480.13 231.246 L 1476.71 232.306 L 1476.25 231.126 L 1480.59 229.186 L 1482.01 229.426 L 1482.01 241.826 L 1484.79 241.826 L 1484.79 243.426 L 1477.03 243.426 L 1477.03 241.826 " fill="#000000"/>
<path class="note" d="M 1491.19 243.586 Q 1488.59 243.586, 1487.29 241.666 Q 1486.01 239.746, 1486.01 236.326 Q 1486.01 232.906, 1487.29 231.006 Q 1488.57 229.106, 1491.19 229.106 Q 1493.81 229.106, 1495.09 231.006 Q 1496.37 232.906, 1496.37 236.326 Q 1496.37 239.746, 1495.07 241.666 Q 1493.79 243.586, 1491.19 243.586 M 1491.19 241.986 Q 1492.73 241.986, 1493.55 240.566 Q 1494.37 239.126, 1494.37 236.326 Q 1494.37 233.546, 1493.55 232.126 Q 1492.73 230.706, 1491.19 230.706 Q 1489.67 230.706, 1488.83 232.126 Q 1488.01 233.546, 1488.01 236.326 Q 1488.01 239.126, 1488.83 240.566 Q 1489.67 241.986, 1491.19 241.986 " fill="#000000"/>
<path class="note" d="M 1547.27 320.838 L 1550.37 320.838 L 1550.37 310.258 L 1546.95 311.318 L 1546.49 310.138 L 1550.83 308.198 L 1552.25 308.438 L 1552.25 320.838 L 1555.03 320.838 L 1555.03 322.438 L 1547.27 322.438 L 1547.27 320.838 " fill="#000000"/>
<path class="note" d="M 1556.89 320.838 L 1559.99 320.838 L 1559.99 310.258 L 1556.57 311.318 L 1556.11 310.138 L 1560.45 308.198 L 1561.87 308.438 L 1561.87 320.838 L 1564.65 320.838 L 1564.65 322.438 L 1556.89 322.438 L 1556.89 320.838 " fill="#000000"/>
<path class="note" d="M 1566.5 420.082 L 1569.6 420.082 L 1569.6 409.502 L 1566.18 410.562 L 1565.72 409.382 L 1570.06 407.442 L 1571.48 407.682 L 1571.48 420.082 L 1574.26 420.082 L 1574.26 421.682 L 1566.5 421.682 L 1566.5 420.082 " fill="#000000"/>
<path class="note" d="M 1575.3 410.202 Q 1575.82 408.862, 1577.06 408.122 Q 1578.3 407.362, 1580.02 407.362 Q 1582.16 407.362, 1583.36 408.522 Q 1584.56 409.682, 1584.56 411.742 Q 1584.56 413.842, 1583 415.802 Q 1581.46 417.762, 1578.26 420.082 L 1584.8 420.082 L 1584.8 421.682 L 1575.26 421.682 L 1575.26 420.342 Q 1577.9 418.462, 1579.46 417.062 Q 1581.04 415.662, 1581.8 414.402 Q 1582.56 413.142, 1582.56 411.842 Q 1582.56 410.482, 1581.88 409.722 Q 1581.2 408.962, 1580.02 408.962 Q 1578.88 408.962, 1578.12 409.422 Q 1577.36 409.882, 1576.82 410.902 L 1575.3 410.202 " fill="#000000"/>
<path class="note" d="M 1683.83 200.903 L 1686.93 200.903 L 1686.93 190.323 L 1683.51 191.383 L 1683.05 190.203 L 1687.39 188.263 L 1688.81 188.503 L 1688.81 200.903 L 1691.59 200.903 L 1691.59 202.503 L 1683.83 202.503 L 1683.83 200.903 " fill="#000000"/>
<path class="note" d="M 1699.23 195.043 Q 1700.61 195.443, 1701.27 196.343 Q 1701.95 197.223, 1701.95 198.623 Q 1701.95 199.823, 1701.35 200.763 Q 1700.75 201.683, 1699.65 202.203 Q 1698.55 202.703, 1697.11 202.703 Q 1695.59 202.703, 1694.45 202.183 Q 1693.33 201.643, 1692.43 200.563 L 1693.57 199.403 Q 1694.45 200.363, 1695.19 200.743 Q 1695.93 201.103, 1697.11 201.103 Q 1698.39 201.103, 1699.17 200.423 Q 1699.95 199.723, 1699.95 198.603 Q 1699.95 197.163, 1699.13 196.523 Q 1698.33 195.863, 1696.59 195.863 L 1695.57 195.863 L 1695.57 194.423 L 1696.47 194.423 Q 1698.01 194.403, 1698.83 193.743 Q 1699.65 193.063, 1699.65 191.803 Q 1699.65 190.883, 1698.97 190.343 Q 1698.29 189.783, 1697.13 189.783 Q 1695.95 189.783, 1695.21 190.203 Q 1694.49 190.623, 1693.93 191.683 L 1692.55 190.943 Q 1693.05 189.763, 1694.25 188.983 Q 1695.45 188.183, 1697.13 188.183 Q 1699.21 188.183, 1700.43 189.163 Q 1701.65 190.143, 1701.65 191.803 Q 1701.65 192.943, 1701.03 193.763 Q 1700.41 194.583, 1699.23 195.043 " fill="#000000"/>
<path class="note" d="M 1359.3 368.272 L 1362.4 368.272 L 1362.4 357.692 L 1358.98 358.752 L 1358.52 357.572 L 1362.86 355.632 L 1364.28 355.872 L 1364.28 368.272 L 1367.06 368.272 L 1367.06 369.872 L 1359.3 369.872 L 1359.3 368.272 " fill="#000000"/>
<path class="note" d="M 1376.86 365.012 L 1378.56 365.012 L 1378.56 366.612 L 1376.86 366.612 L 1376.86 369.872 L 1374.98 369.872 L 1374.98 366.612 L 1367.66 366.612 L 1367.66 365.352 L 1373.86 355.712 L 1376.86 355.712 L 1376.86 365.012 M 1369.98 365.012 L 1374.98 365.012 L 1374.98 356.992 L 1369.98 365.012 " fill="#000000"/>
<path class="note" d="M 2360.32 350.513 L 2363.42 350.513 L 2363.42 339.933 L 2360 340.993 L 2359.54 339.813 L 2363.88 337.873 L 2365.3 338.113 L 2365.3 350.513 L 2368.08 350.513 L 2368.08 352.113 L 2360.32 352.113 L 2360.32 350.513 " fill="#000000"/>
<path class="note" d="M 2375.86 339.553 L 2368.44 339.553 L 2368.44 337.953 L 2377.84 337.953 L 2377.84 339.373 L 2372.12 352.113 L 2370.2 352.113 L 2375.86 339.553 " fill="#000000"/>
<path class="note" d="M 2444.46 254.835 L 2447.56 254.835 L 2447.56 244.255 L 2444.14 245.315 L 2443.68 244.135 L 2448.02 242.195 L 2449.44 242.435 L 2449.44 254.835 L 2452.22 254.835 L 2452.22 256.435 L 2444.46 256.435 L 2444.46 254.835 " fill="#000000"/>
<path class="note" d="M 2460.68 248.935 Q 2461.98 249.495, 2462.72 250.335 Q 2463.46 251.155, 2463.46 252.555 Q 2463.46 253.755, 2462.84 254.695 Q 2462.22 255.615, 2461.1 256.135 Q 2460 256.635, 2458.54 256.635 Q 2456.18 256.635, 2454.82 255.555 Q 2453.46 254.455, 2453.46 252.555 Q 2453.46 251.395, 2454.06 250.535 Q 2454.66 249.655, 2455.9 248.995 Q 2454.98 248.475, 2454.48 247.715 Q 2453.98 246.935, 2453.98 245.735 Q 2453.98 244.075, 2455.18 243.095 Q 2456.4 242.115, 2458.46 242.115 Q 2460.52 242.115, 2461.72 243.095 Q 2462.94 244.075, 2462.94 245.735 Q 2462.94 246.775, 2462.36 247.555 Q 2461.8 248.315, 2460.68 248.935 M 2458.46 243.615 Q 2457.28 243.615, 2456.62 244.175 Q 2455.98 244.735, 2455.98 245.735 Q 2455.98 246.475, 2456.42 246.975 Q 2456.86 247.455, 2457.48 247.735 Q 2458.12 248.015, 2459.34 248.435 Q 2460.2 247.835, 2460.56 247.195 Q 2460.94 246.555, 2460.94 245.735 Q 2460.94 244.735, 2460.28 244.175 Q 2459.64 243.615, 2458.46 243.615 M 2458.54 255.135 Q 2459.86 255.135, 2460.66 254.435 Q 2461.46 253.715, 2461.46 252.535 Q 2461.46 251.775, 2461.04 251.295 Q 2460.62 250.815, 2459.98 250.535 Q 2459.36 250.255, 2458.24 249.895 L 2457.34 249.595 Q 2456.34 250.195, 2455.9 250.915 Q 2455.46 251.615, 2455.46 252.535 Q 2455.46 253.715, 2456.3 254.435 Q 2457.14 255.135, 2458.54 255.135 " fill="#000000"/>
<path class="note" d="M 2594.88 353.263 L 2597.98 353.263 L 2597.98 342.683 L 2594.56 343.743 L 2594.1 342.563 L 2598.44 340.623 L 2599.86 340.863 L 2599.86 353.263 L 2602.64 353.263 L 2602.64 354.863 L 2594.88 354.863 L 2594.88 353.263 " fill="#000000"/>
<path class="note" d="M 2608.5 340.543 Q 2611.02 340.543, 2612.28 342.263 Q 2613.56 343.963, 2613.56 347.363 Q 2613.56 351.123, 2611.98 353.083 Q 2610.42 355.023, 2607.4 355.023 Q 2606.52 355.023, 2605.76 354.823 Q 2605.02 354.623, 2604.3 354.203 L 2605.08 352.863 Q 2606.12 353.423, 2607.38 353.423 Q 2609.38 353.423, 2610.4 352.143 Q 2611.42 350.843, 2611.54 348.183 Q 2610.82 348.843, 2609.9 349.203 Q 2609 349.543, 2608.02 349.543 Q 2606.78 349.543, 2605.8 349.003 Q 2604.82 348.463, 2604.28 347.483 Q 2603.74 346.503, 2603.74 345.263 Q 2603.74 343.883, 2604.34 342.823 Q 2604.96 341.743, 2606.04 341.143 Q 2607.12 340.543, 2608.5 340.543 M 2605.74 345.243 Q 2605.74 346.503, 2606.44 347.223 Q 2607.14 347.943, 2608.38 347.943 Q 2609.24 347.943, 2610.08 347.603 Q 2610.94 347.243, 2611.54 346.643 Q 2611.46 344.303, 2610.72 343.243 Q 2609.98 342.183, 2608.48 342.183 Q 2607.72 342.183, 2607.08 342.583 Q 2606.46 342.983, 2606.1 343.683 Q 2605.74 344.383, 2605.74 345.243 " fill="#000000"/>
<path class="note" d="M 2452.67 100.651 Q 2453.19 99.3111, 2454.43 98.5711 Q 2455.67 97.8111, 2457.39 97.8111 Q 2459.53 97.8111, 2460.73 98.9711 Q 2461.93 100.131, 2461.93 102.191 Q 2461.93 104.291, 2460.37 106.251 Q 2458.83 108.211, 2455.63 110.531 L 2462.17 110.531 L 2462.17 112.131 L 2452.63 112.131 L 2452.63 110.791 Q 2455.27 108.911, 2456.83 107.511 Q 2458.41 106.111, 2459.17 104.851 Q 2459.93 103.591, 2459.93 102.291 Q 2459.93 100.931, 2459.25 100.171 Q 2458.57 99.4111, 2457.39 99.4111 Q 2456.25 99.4111, 2455.49 99.8711 Q 2454.73 100.331, 2454.19 101.351 L 2452.67 100.651 " fill="#000000"/>
<path class="note" d="M 2468.57 112.291 Q 2465.97 112.291, 2464.67 110.371 Q 2463.39 108.451, 2463.39 105.031 Q 2463.39 101.611, 2464.67 99.7111 Q 2465.95 97.8111, 2468.57 97.8111 Q 2471.19 97.8111, 2472.47 99.7111 Q 2473.75 101.611, 2473.75 105.031 Q 2473.75 108.451, 2472.45 110.371 Q 2471.17 112.291, 2468.57 112.291 M 2468.57 110.691 Q 2470.11 110.691, 2470.93 109.271 Q 2471.75 107.831, 2471.75 105.031 Q 2471.75 102.251, 2470.93 100.831 Q 2470.11 99.4111, 2468.57 99.4111 Q 2467.05 99.4111, 2466.21 100.831 Q 2465.39 102.251, 2465.39 105.031 Q 2465.39 107.831, 2466.21 109.271 Q 2467.05 110.691, 2468.57 110.691 " fill="#000000"/>
<path class="note" d="M 2879.73 242.061 L 2882.83 242.061 L 2882.83 231.481 L 2879.41 232.541 L 2878.95 231.361 L 2883.29 229.421 L 2884.71 229.661 L 2884.71 242.061 L 2887.49 242.061 L 2887.49 243.661 L 2879.73 243.661 L 2879.73 242.061 " fill="#000000"/>
<path class="note" d="M 2989.73 229.091 Q 2990.25 227.751, 2991.49 227.011 Q 2992.73 226.251, 2994.45 226.251 Q 2996.59 226.251, 2997.79 227.411 Q 2998.99 228.571, 2998.99 230.631 Q 2998.99 232.731, 2997.43 234.691 Q 2995.89 236.651, 2992.69 238.971 L 2999.23 238.971 L 2999.23 240.571 L 2989.69 240.571 L 2989.69 239.231 Q 2992.33 237.351, 2993.89 235.951 Q 2995.47 234.551, 2996.23 233.291 Q 2996.99 232.031, 2996.99 230.731 Q 2996.99 229.371, 2996.31 228.611 Q 2995.63 227.851, 2994.45 227.851 Q 2993.31 227.851, 2992.55 228.311 Q 2991.79 228.771, 2991.25 229.791 L 2989.73 229.091 " fill="#000000"/>
<path class="note" d="M 3086.93 75.1094 Q 3088.31 75.5094, 3088.97 76.4094 Q 3089.65 77.2894, 3089.65 78.6894 Q 3089.65 79.8894, 3089.05 80.8294 Q 3088.45 81.7494, 3087.35 82.2694 Q 3086.25 82.7694, 3084.81 82.7694 Q 3083.29 82.7694, 3082.15 82.2494 Q 3081.03 81.7094, 3080.13 80.6294 L 3081.27 79.4694 Q 3082.15 80.4294, 3082.89 80.8094 Q 3083.63 81.1694, 3084.81 81.1694 Q 3086.09 81.1694, 3086.87 80.4894 Q 3087.65 79.7894, 3087.65 78.6694 Q 3087.65 77.2294, 3086.83 76.5894 Q 3086.03 75.9294, 3084.29 75.9294 L 3083.27 75.9294 L 3083.27 74.4894 L 3084.17 74.4894 Q 3085.71 74.4694, 3086.53 73.8094 Q 3087.35 73.1294, 3087.35 71.8694 Q 3087.35 70.9494, 3086.67 70.4094 Q 3085.99 69.8494, 3084.83 69.8494 Q 3083.65 69.8494, 3082.91 70.2694 Q 3082.19 70.6894, 3081.63 71.7494 L 3080.25 71.0094 Q 3080.75 69.8294, 3081.95 69.0494 Q 3083.15 68.2494, 3084.83 68.2494 Q 3086.91 68.2494, 3088.13 69.2294 Q 3089.35 70.2094, 3089.35 71.8694 Q 3089.35 73.0094, 3088.73 73.8294 Q 3088.11 74.6494, 3086.93 75.1094 " fill="#000000"/>
<path class="note" d="M 3049.24 358.063 L 3050.94 358.063 L 3050.94 359.663 L 3049.24 359.663 L 3049.24 362.923 L 3047.36 362.923 L 3047.36 359.663 L 3040.04 359.663 L 3040.04 358.403 L 3046.24 348.763 L 3049.24 348.763 L 3049.24 358.063 M 3042.36 358.063 L 3047.36 358.063 L 3047.36 350.043 L 3042.36 358.063 " fill="#000000"/>
<path class="note" d="M 3178.19 336.551 Q 3179.43 336.551, 3180.45 337.091 Q 3181.47 337.611, 3182.05 338.611 Q 3182.63 339.591, 3182.63 340.931 Q 3182.63 342.391, 3181.91 343.451 Q 3181.21 344.491, 3180.05 345.031 Q 3178.89 345.571, 3177.57 345.571 Q 3176.27 345.571, 3175.07 345.091 Q 3173.87 344.611, 3173.05 343.691 L 3174.25 342.451 Q 3174.91 343.171, 3175.81 343.571 Q 3176.71 343.951, 3177.63 343.951 Q 3178.89 343.951, 3179.75 343.171 Q 3180.63 342.391, 3180.63 340.971 Q 3180.63 339.471, 3179.75 338.771 Q 3178.89 338.051, 3177.51 338.051 Q 3176.27 338.051, 3174.89 338.591 L 3173.79 338.071 L 3174.47 331.251 L 3181.75 331.251 L 3181.55 332.851 L 3176.11 332.851 L 3175.69 337.051 Q 3176.95 336.551, 3178.19 336.551 " fill="#000000"/>
<path class="note" d="M 3246.94 455.032 Q 3248.18 455.032, 3249.16 455.572 Q 3250.14 456.112, 3250.68 457.092 Q 3251.22 458.072, 3251.22 459.312 Q 3251.22 460.692, 3250.6 461.772 Q 3250 462.832, 3248.92 463.432 Q 3247.84 464.032, 3246.46 464.032 Q 3243.94 464.032, 3242.66 462.332 Q 3241.4 460.612, 3241.4 457.212 Q 3241.4 453.452, 3242.96 451.512 Q 3244.54 449.552, 3247.56 449.552 Q 3248.44 449.552, 3249.18 449.752 Q 3249.94 449.952, 3250.66 450.372 L 3249.88 451.712 Q 3248.84 451.152, 3247.58 451.152 Q 3245.58 451.152, 3244.56 452.452 Q 3243.54 453.732, 3243.42 456.392 Q 3244.14 455.732, 3245.04 455.392 Q 3245.96 455.032, 3246.94 455.032 M 3246.48 462.392 Q 3247.24 462.392, 3247.86 461.992 Q 3248.5 461.592, 3248.86 460.892 Q 3249.22 460.192, 3249.22 459.332 Q 3249.22 458.072, 3248.52 457.352 Q 3247.82 456.632, 3246.58 456.632 Q 3245.72 456.632, 3244.86 456.992 Q 3244.02 457.332, 3243.42 457.932 Q 3243.5 460.272, 3244.24 461.332 Q 3244.98 462.392, 3246.48 462.392 " fill="#000000"/>
<path class="note" d="M 3374.63 394.895 L 3367.21 394.895 L 3367.21 393.295 L 3376.61 393.295 L 3376.61 394.715 L 3370.89 407.455 L 3368.97 407.455 L 3374.63 394.895 " fill="#000000"/>
<path class="note" d="M 3481.58 460.423 Q 3482.88 460.983, 3483.62 461.823 Q 3484.36 462.643, 3484.36 464.043 Q 3484.36 465.243, 3483.74 466.183 Q 3483.12 467.103, 3482 467.623 Q 3480.9 468.123, 3479.44 468.123 Q 3477.08 468.123, 3475.72 467.043 Q 3474.36 465.943, 3474.36 464.043 Q 3474.36 462.883, 3474.96 462.023 Q 3475.56 461.143, 3476.8 460.483 Q 3475.88 459.963, 3475.38 459.203 Q 3474.88 458.423, 3474.88 457.223 Q 3474.88 455.563, 3476.08 454.583 Q 3477.3 453.603, 3479.36 453.603 Q 3481.42 453.603, 3482.62 454.583 Q 3483.84 455.563, 3483.84 457.223 Q 3483.84 458.263, 3483.26 459.043 Q 3482.7 459.803, 3481.58 460.423 M 3479.36 455.103 Q 3478.18 455.103, 3477.52 455.663 Q 3476.88 456.223, 3476.88 457.223 Q 3476.88 457.963, 3477.32 458.463 Q 3477.76 458.943, 3478.38 459.223 Q 3479.02 459.503, 3480.24 459.923 Q 3481.1 459.323, 3481.46 458.683 Q 3481.84 458.043, 3481.84 457.223 Q 3481.84 456.223, 3481.18 455.663 Q 3480.54 455.103, 3479.36 455.103 M 3479.44 466.623 Q 3480.76 466.623, 3481.56 465.923 Q 3482.36 465.203, 3482.36 464.023 Q 3482.36 463.263, 3481.94 462.783 Q 3481.52 462.303, 3480.88 462.023 Q 3480.26 461.743, 3479.14 461.383 L 3478.24 461.083 Q 3477.24 461.683, 3476.8 462.403 Q 3476.36 463.103, 3476.36 464.023 Q 3476.36 465.203, 3477.2 465.923 Q 3478.04 466.623, 3479.44 466.623 " fill="#000000"/>
<path class="note" d="M 3601.56 382.344 Q 3604.08 382.344, 3605.34 384.064 Q 3606.62 385.764, 3606.62 389.164 Q 3606.62 392.924, 3605.04 394.884 Q 3603.48 396.824, 3600.46 396.824 Q 3599.58 396.824, 3598.82 396.624 Q 3598.08 396.424, 3597.36 396.004 L 3598.14 394.664 Q 3599.18 395.224, 3600.44 395.224 Q 3602.44 395.224, 3603.46 393.944 Q 3604.48 392.644, 3604.6 389.984 Q 3603.88 390.644, 3602.96 391.004 Q 3602.06 391.344, 3601.08 391.344 Q 3599.84 391.344, 3598.86 390.804 Q 3597.88 390.264, 3597.34 389.284 Q 3596.8 388.304, 3596.8 387.064 Q 3596.8 385.684, 3597.4 384.624 Q 3598.02 383.544, 3599.1 382.944 Q 3600.18 382.344, 3601.56 382.344 M 3598.8 387.044 Q 3598.8 388.304, 3599.5 389.024 Q 3600.2 389.744, 3601.44 389.744 Q 3602.3 389.744, 3603.14 389.404 Q 3604 389.044, 3604.6 388.444 Q 3604.52 386.104, 3603.78 385.044 Q 3603.04 383.984, 3601.54 383.984 Q 3600.78 383.984, 3600.14 384.384 Q 3599.52 384.784, 3599.16 385.484 Q 3598.8 386.184, 3598.8 387.044 " fill="#000000"/>
<path class="note" d="M 3605.26 283.746 L 3608.36 283.746 L 3608.36 273.166 L 3604.94 274.226 L 3604.48 273.046 L 3608.82 271.106 L 3610.24 271.346 L 3610.24 283.746 L 3613.02 283.746 L 3613.02 285.346 L 3605.26 285.346 L 3605.26 283.746 " fill="#000000"/>
<path class="note" d="M 3619.42 285.506 Q 3616.82 285.506, 3615.52 283.586 Q 3614.24 281.666, 3614.24 278.246 Q 3614.24 274.826, 3615.52 272.926 Q 3616.8 271.026, 3619.42 271.026 Q 3622.04 271.026, 3623.32 272.926 Q 3624.6 274.826, 3624.6 278.246 Q 3624.6 281.666, 3623.3 283.586 Q 3622.02 285.506, 3619.42 285.506 M 3619.42 283.906 Q 3620.96 283.906, 3621.78 282.486 Q 3622.6 281.046, 3622.6 278.246 Q 3622.6 275.466, 3621.78 274.046 Q 3620.96 272.626, 3619.42 272.626 Q 3617.9 272.626, 3617.06 274.046 Q 3616.24 275.466, 3616.24 278.246 Q 3616.24 281.046, 3617.06 282.486 Q 3617.9 283.906, 3619.42 283.906 " fill="#000000"/>
<path class="note" d="M 3676.16 242.986 L 3679.26 242.986 L 3679.26 232.406 L 3675.84 233.466 L 3675.38 232.286 L 3679.72 230.346 L 3681.14 230.586 L 3681.14 242.986 L 3683.92 242.986 L 3683.92 244.586 L 3676.16 244.586 L 3676.16 242.986 " fill="#000000"/>
<path class="note" d="M 3685.78 242.986 L 3688.88 242.986 L 3688.88 232.406 L 3685.46 233.466 L 3685 232.286 L 3689.34 230.346 L 3690.76 230.586 L 3690.76 242.986 L 3693.54 242.986 L 3693.54 244.586 L 3685.78 244.586 L 3685.78 242.986 " fill="#000000"/>
<path class="note" d="M 3763.4 273.037 L 3766.5 273.037 L 3766.5 262.457 L 3763.08 263.517 L 3762.62 262.337 L 3766.96 260.397 L 3768.38 260.637 L 3768.38 273.037 L 3771.16 273.037 L 3771.16 274.637 L 3763.4 274.637 L 3763.4 273.037 " fill="#000000"/>
<path class="note" d="M 3772.2 263.157 Q 3772.72 261.817, 3773.96 261.077 Q 3775.2 260.317, 3776.92 260.317 Q 3779.06 260.317, 3780.26 261.477 Q 3781.46 262.637, 3781.46 264.697 Q 3781.46 266.797, 3779.9 268.757 Q 3778.36 270.717, 3775.16 273.037 L 3781.7 273.037 L 3781.7 274.637 L 3772.16 274.637 L 3772.16 273.297 Q 3774.8 271.417, 3776.36 270.017 Q 3777.94 268.617, 3778.7 267.357 Q 3779.46 266.097, 3779.46 264.797 Q 3779.46 263.437, 3778.78 262.677 Q 3778.1 261.917, 3776.92 261.917 Q 3775.78 261.917, 3775.02 262.377 Q 3774.26 262.837, 3773.72 263.857 L 3772.2 263.157 " fill="#000000"/>
<path class="note" d="M 3675.02 40.7511 L 3678.12 40.7511 L 3678.12 30.1711 L 3674.7 31.2311 L 3674.24 30.0511 L 3678.58 28.1111 L 3680 28.3511 L 3680 40.7511 L 3682.78 40.7511 L 3682.78 42.3511 L 3675.02 42.3511 L 3675.02 40.7511 " fill="#000000"/>
<path class="note" d="M 3690.42 34.8911 Q 3691.8 35.2911, 3692.46 36.1911 Q 3693.14 37.0711, 3693.14 38.4711 Q 3693.14 39.6711, 3692.54 40.6111 Q 3691.94 41.5311, 3690.84 42.0511 Q 3689.74 42.5511, 3688.3 42.5511 Q 3686.78 42.5511, 3685.64 42.0311 Q 3684.52 41.4911, 3683.62 40.4111 L 3684.76 39.2511 Q 3685.64 40.2111, 3686.38 40.5911 Q 3687.12 40.9511, 3688.3 40.9511 Q 3689.58 40.9511, 3690.36 40.2711 Q 3691.14 39.5711, 3691.14 38.4511 Q 3691.14 37.0111, 3690.32 36.3711 Q 3689.52 35.7111, 3687.78 35.7111 L 3686.76 35.7111 L 3686.76 34.2711 L 3687.66 34.2711 Q 3689.2 34.2511, 3690.02 33.5911 Q 3690.84 32.9111, 3690.84 31.6511 Q 3690.84 30.7311, 3690.16 30.1911 Q 3689.48 29.6311, 3688.32 29.6311 Q 3687.14 29.6311, 3686.4 30.0511 Q 3685.68 30.4711, 3685.12 31.5311 L 3683.74 30.7911 Q 3684.24 29.6111, 3685.44 28.8311 Q 3686.64 28.0311, 3688.32 28.0311 Q 3690.4 28.0311, 3691.62 29.0111 Q 3692.84 29.9911, 3692.84 31.6511 Q 3692.84 32.7911, 3692.22 33.6111 Q 3691.6 34.4311, 3690.42 34.8911 " fill="#000000"/>
<path class="note" d="M 3464.78 183.098 L 3467.88 183.098 L 3467.88 172.518 L 3464.46 173.578 L 3464 172.398 L 3468.34 170.458 L 3469.76 170.698 L 3469.76 183.098 L 3472.54 183.098 L 3472.54 184.698 L 3464.78 184.698 L 3464.78 183.098 " fill="#000000"/>
<path class="note" d="M 3482.34 179.838 L 3484.04 179.838 L 3484.04 181.438 L 3482.34 181.438 L 3482.34 184.698 L 3480.46 184.698 L 3480.46 181.438 L 3473.14 181.438 L 3473.14 180.178 L 3479.34 170.538 L 3482.34 170.538 L 3482.34 179.838 M 3475.46 179.838 L 3480.46 179.838 L 3480.46 171.818 L 3475.46 179.838 " fill="#000000"/>
<path class="note" d="M 3358.29 244.296 L 3361.39 244.296 L 3361.39 233.716 L 3357.97 234.776 L 3357.51 233.596 L 3361.85 231.656 L 3363.27 231.896 L 3363.27 244.296 L 3366.05 244.296 L 3366.05 245.896 L 3358.29 245.896 L 3358.29 244.296 " fill="#000000"/>
<path class="note" d="M 3372.11 237.036 Q 3373.35 237.036, 3374.37 237.576 Q 3375.39 238.096, 3375.97 239.096 Q 3376.55 240.076, 3376.55 241.416 Q 3376.55 242.876, 3375.83 243.936 Q 3375.13 244.976, 3373.97 245.516 Q 3372.81 246.056, 3371.49 246.056 Q 3370.19 246.056, 3368.99 245.576 Q 3367.79 245.096, 3366.97 244.176 L 3368.17 242.936 Q 3368.83 243.656, 3369.73 244.056 Q 3370.63 244.436, 3371.55 244.436 Q 3372.81 244.436, 3373.67 243.656 Q 3374.55 242.876, 3374.55 241.456 Q 3374.55 239.956, 3373.67 239.256 Q 3372.81 238.536, 3371.43 238.536 Q 3370.19 238.536, 3368.81 239.076 L 3367.71 238.556 L 3368.39 231.736 L 3375.67 231.736 L 3375.47 233.336 L 3370.03 233.336 L 3369.61 237.536 Q 3370.87 237.036, 3372.11 237.036 " fill="#000000"/>
<path class="note" d="M 3231.92 188.949 L 3235.02 188.949 L 3235.02 178.369 L 3231.6 179.429 L 3231.14 178.249 L 3235.48 176.309 L 3236.9 176.549 L 3236.9 188.949 L 3239.68 188.949 L 3239.68 190.549 L 3231.92 190.549 L 3231.92 188.949 " fill="#000000"/>
<path class="note" d="M 3246.58 181.709 Q 3247.82 181.709, 3248.8 182.249 Q 3249.78 182.789, 3250.32 183.769 Q 3250.86 184.749, 3250.86 185.989 Q 3250.86 187.369, 3250.24 188.449 Q 3249.64 189.509, 3248.56 190.109 Q 3247.48 190.709, 3246.1 190.709 Q 3243.58 190.709, 3242.3 189.009 Q 3241.04 187.289, 3241.04 183.889 Q 3241.04 180.129, 3242.6 178.189 Q 3244.18 176.229, 3247.2 176.229 Q 3248.08 176.229, 3248.82 176.429 Q 3249.58 176.629, 3250.3 177.049 L 3249.52 178.389 Q 3248.48 177.829, 3247.22 177.829 Q 3245.22 177.829, 3244.2 179.129 Q 3243.18 180.409, 3243.06 183.069 Q 3243.78 182.409, 3244.68 182.069 Q 3245.6 181.709, 3246.58 181.709 M 3246.12 189.069 Q 3246.88 189.069, 3247.5 188.669 Q 3248.14 188.269, 3248.5 187.569 Q 3248.86 186.869, 3248.86 186.009 Q 3248.86 184.749, 3248.16 184.029 Q 3247.46 183.309, 3246.22 183.309 Q 3245.36 183.309, 3244.5 183.669 Q 3243.66 184.009, 3243.06 184.609 Q 3243.14 186.949, 3243.88 188.009 Q 3244.62 189.069, 3246.12 189.069 " fill="#000000"/>
<path d="M 781.998 255.775 L 788.046 255.775 L 788.046 249.407 L 790.734 249.407 L 790.734 255.775 L 796.942 255.775 L 796.942 258.079 L 790.734 258.079 L 790.734 264.479 L 788.046 264.479 L 788.046 258.079 L 781.998 258.079 L 781.998 255.775 " fill="#000000"/>
<path d="M 2736.41 255.775 L 2742.46 255.775 L 2742.46 249.407 L 2745.15 249.407 L 2745.15 255.775 L 2751.35 255.775 L 2751.35 258.079 L 2745.15 258.079 L 2745.15 264.479 L 2742.46 264.479 L 2742.46 258.079 L 2736.41 258.079 L 2736.41 255.775 " fill="#000000"/>
<path d="M 1835.8,258.079 L 2159.44,258.079" style="fill:none;fill-rule:evenodd;stroke:#000000;stroke-width:2.0px;stroke-linecap:butt;stroke-linejoin:miter;stroke-opacity:1"/>
<path d="M 2159.44,258.079 L 2145.43,249.988" style="fill:none;fill-rule:evenodd;stroke:#000000;stroke-width:2.0px;stroke-linecap:butt;stroke-linejoin:miter;stroke-opacity:1"/>
<path d="M 2159.44,258.079 L 2145.43,266.17" style="fill:none;fill-rule:evenodd;stroke:#000000;stroke-width:2.0px;stroke-linecap:butt;stroke-linejoin:miter;stroke-opacity:1"/>
</svg>