<svg xmlns="http://www.w3.org/2000/svg" xmlns:rdkit="http://www.rdkit.org/xml" xmlns:xlink="http://www.w3.org/1999/xlink" version="1.1" baseProfile="full" xml:space="preserve" width="4000px" height="500px" viewBox="0 0 4000 500">
<!-- END OF HEADER -->
<rect style="opacity:1.0;fill:#FFFFFF;stroke:none" width="4000" height="500" x="0" y="0"> </rect>
<path d="M 204.784,160.205 L 304.23,217.62" style="fill:none;fill-rule:evenodd;stroke:#FFFFAA;stroke-width:24.5px;stroke-linecap:butt;stroke-linejoin:miter;stroke-opacity:1"/>
<path d="M 304.23,217.62 L 304.23,332.45" style="fill:none;fill-rule:evenodd;stroke:#FFFFAA;stroke-width:24.5px;stroke-linecap:butt;stroke-linejoin:miter;stroke-opacity:1"/>
<path d="M 304.23,217.62 L 403.676,160.205" style="fill:none;fill-rule:evenodd;stroke:#FFFFAA;stroke-width:24.5px;stroke-linecap:butt;stroke-linejoin:miter;stroke-opacity:1"/>
<path d="M 403.676,160.205 L 503.122,217.62" style="fill:none;fill-rule:evenodd;stroke:#FFFFAA;stroke-width:24.5px;stroke-linecap:butt;stroke-linejoin:miter;stroke-opacity:1"/>
<path d="M 503.122,217.62 L 602.568,160.205" style="fill:none;fill-rule:evenodd;stroke:#FFFFAA;stroke-width:24.5px;stroke-linecap:butt;stroke-linejoin:miter;stroke-opacity:1"/>
<path d="M 503.122,217.62 L 503.122,332.45" style="fill:none;fill-rule:evenodd;stroke:#FFFFAA;stroke-width:24.5px;stroke-linecap:butt;stroke-linejoin:miter;stroke-opacity:1"/>
<path d="M 1236.4,225.822 L 1121.57,225.822" style="fill:none;fill-rule:evenodd;stroke:#FFCC99;stroke-width:24.5px;stroke-linecap:butt;stroke-linejoin:miter;stroke-opacity:1"/>
<path d="M 1121.57,225.822 L 1064.15,325.268" style="fill:none;fill-rule:evenodd;stroke:#FFCC99;stroke-width:24.5px;stroke-linecap:butt;stroke-linejoin:miter;stroke-opacity:1"/>
<path d="M 1121.57,225.822 L 1064.15,126.376" style="fill:none;fill-rule:evenodd;stroke:#FFCC99;stroke-width:24.5px;stroke-linecap:butt;stroke-linejoin:miter;stroke-opacity:1"/>
<path d="M 1064.15,325.268 L 949.324,325.268" style="fill:none;fill-rule:evenodd;stroke:#FFCC99;stroke-width:24.5px;stroke-linecap:butt;stroke-linejoin:miter;stroke-opacity:1"/>
<path d="M 949.324,325.268 L 891.909,225.822" style="fill:none;fill-rule:evenodd;stroke:#FFCC99;stroke-width:24.5px;stroke-linecap:butt;stroke-linejoin:miter;stroke-opacity:1"/>
<path d="M 891.909,225.822 L 949.324,126.376" style="fill:none;fill-rule:evenodd;stroke:#FFCC99;stroke-width:24.5px;stroke-linecap:butt;stroke-linejoin:miter;stroke-opacity:1"/>
<path d="M 949.324,126.376 L 1064.15,126.376" style="fill:none;fill-rule:evenodd;stroke:#FFCC99;stroke-width:24.5px;stroke-linecap:butt;stroke-linejoin:miter;stroke-opacity:1"/>
<path d="M 1773.91,168.407 L 1674.46,225.822" style="fill:none;fill-rule:evenodd;stroke:#FFB5C1;stroke-width:24.5px;stroke-linecap:butt;stroke-linejoin:miter;stroke-opacity:1"/>
<path d="M 1674.46,225.822 L 1575.02,168.407" style="fill:none;fill-rule:evenodd;stroke:#FFB5C1;stroke-width:24.5px;stroke-linecap:butt;stroke-linejoin:miter;stroke-opacity:1"/>
<path d="M 1674.46,225.822 L 1674.46,340.652" style="fill:none;fill-rule:evenodd;stroke:#FFB5C1;stroke-width:24.5px;stroke-linecap:butt;stroke-linejoin:miter;stroke-opacity:1"/>
<path d="M 2420.37,283.237 L 2519.82,225.822" style="fill:none;fill-rule:evenodd;stroke:#FFFFAA;stroke-width:24.5px;stroke-linecap:butt;stroke-linejoin:miter;stroke-opacity:1"/>
<path d="M 2519.82,225.822 L 2619.27,283.237" style="fill:none;fill-rule:evenodd;stroke:#FFFFAA;stroke-width:24.5px;stroke-linecap:butt;stroke-linejoin:miter;stroke-opacity:1"/>
<path d="M 2891.29,283.237 L 2990.74,225.822" style="fill:none;fill-rule:evenodd;stroke:#FFFFAA;stroke-width:24.5px;stroke-linecap:butt;stroke-linejoin:miter;stroke-opacity:1"/>
<path d="M 2990.74,225.822 L 3090.18,283.237" style="fill:none;fill-rule:evenodd;stroke:#FFFFAA;stroke-width:24.5px;stroke-linecap:butt;stroke-linejoin:miter;stroke-opacity:1"/>
<path d="M 2990.74,225.822 L 2990.74,110.992" style="fill:none;fill-rule:evenodd;stroke:#FFFFAA;stroke-width:24.5px;stroke-linecap:butt;stroke-linejoin:miter;stroke-opacity:1"/>
<path d="M 3622.34,403.452 L 3560.02,307.002" style="fill:none;fill-rule:evenodd;stroke:#FFCC99;stroke-width:24.5px;stroke-linecap:butt;stroke-linejoin:miter;stroke-opacity:1"/>
<path d="M 3560.02,307.002 L 3445.33,312.745" style="fill:none;fill-rule:evenodd;stroke:#FFCC99;stroke-width:24.5px;stroke-linecap:butt;stroke-linejoin:miter;stroke-opacity:1"/>
<path d="M 3560.02,307.002 L 3612.39,204.809" style="fill:none;fill-rule:evenodd;stroke:#FFCC99;stroke-width:24.5px;stroke-linecap:butt;stroke-linejoin:miter;stroke-opacity:1"/>
<path d="M 3445.33,312.745 L 3383.01,216.296" style="fill:none;fill-rule:evenodd;stroke:#FFCC99;stroke-width:24.5px;stroke-linecap:butt;stroke-linejoin:miter;stroke-opacity:1"/>
<path d="M 3383.01,216.296 L 3435.38,114.103" style="fill:none;fill-rule:evenodd;stroke:#FFCC99;stroke-width:24.5px;stroke-linecap:butt;stroke-linejoin:miter;stroke-opacity:1"/>
<path d="M 3435.38,114.103 L 3550.07,108.359" style="fill:none;fill-rule:evenodd;stroke:#FFCC99;stroke-width:24.5px;stroke-linecap:butt;stroke-linejoin:miter;stroke-opacity:1"/>
<path d="M 3550.07,108.359 L 3612.39,204.809" style="fill:none;fill-rule:evenodd;stroke:#FFCC99;stroke-width:24.5px;stroke-linecap:butt;stroke-linejoin:miter;stroke-opacity:1"/>
<path d="M 3727.07,199.066 L 3779.44,96.8727" style="fill:none;fill-rule:evenodd;stroke:#FFB5C1;stroke-width:24.5px;stroke-linecap:butt;stroke-linejoin:miter;stroke-opacity:1"/>
<path d="M 3727.07,199.066 L 3789.39,295.516" style="fill:none;fill-rule:evenodd;stroke:#FFB5C1;stroke-width:24.5px;stroke-linecap:butt;stroke-linejoin:miter;stroke-opacity:1"/>
<ellipse cx="204.784" cy="160.205" rx="22.966" ry="22.966" style="fill:#FFFFAA;fill-rule:evenodd;stroke:#FFFFAA;stroke-width:1px;stroke-linecap:butt;stroke-linejoin:miter;stroke-opacity:1"/>
<ellipse cx="304.23" cy="217.62" rx="22.966" ry="22.966" style="fill:#FFFFAA;fill-rule:evenodd;stroke:#FFFFAA;stroke-width:1px;stroke-linecap:butt;stroke-linejoin:miter;stroke-opacity:1"/>
<ellipse cx="304.23" cy="332.67" rx="22.966" ry="22.966" style="fill:#FFFFAA;fill-rule:evenodd;stroke:#FFFFAA;stroke-width:1px;stroke-linecap:butt;stroke-linejoin:miter;stroke-opacity:1"/>
<ellipse cx="403.676" cy="160.425" rx="22.966" ry="22.966" style="fill:#FFFFAA;fill-rule:evenodd;stroke:#FFFFAA;stroke-width:1px;stroke-linecap:butt;stroke-linejoin:miter;stroke-opacity:1"/>
<ellipse cx="503.122" cy="217.62" rx="22.966" ry="22.966" style="fill:#FFFFAA;fill-rule:evenodd;stroke:#FFFFAA;stroke-width:1px;stroke-linecap:butt;stroke-linejoin:miter;stroke-opacity:1"/>
<ellipse cx="602.568" cy="160.205" rx="22.966" ry="22.966" style="fill:#FFFFAA;fill-rule:evenodd;stroke:#FFFFAA;stroke-width:1px;stroke-linecap:butt;stroke-linejoin:miter;stroke-opacity:1"/>
<ellipse cx="503.122" cy="332.67" rx="22.966" ry="22.966" style="fill:#FFFFAA;fill-rule:evenodd;stroke:#FFFFAA;stroke-width:1px;stroke-linecap:butt;stroke-linejoin:miter;stroke-opacity:1"/>
<ellipse cx="1256.14" cy="232.902" rx="43.1001" ry="30.0379" style="fill:#FFCC99;fill-rule:evenodd;stroke:#FFCC99;stroke-width:1px;stroke-linecap:butt;stroke-linejoin:miter;stroke-opacity:1"/>
<ellipse cx="1121.57" cy="225.822" rx="22.966" ry="22.966" style="fill:#FFCC99;fill-rule:evenodd;stroke:#FFCC99;stroke-width:1px;stroke-linecap:butt;stroke-linejoin:miter;stroke-opacity:1"/>
<ellipse cx="1064.15" cy="325.268" rx="22.966" ry="22.966" style="fill:#FFCC99;fill-rule:evenodd;stroke:#FFCC99;stroke-width:1px;stroke-linecap:butt;stroke-linejoin:miter;stroke-opacity:1"/>
<ellipse cx="949.324" cy="325.268" rx="22.966" ry="22.966" style="fill:#FFCC99;fill-rule:evenodd;stroke:#FFCC99;stroke-width:1px;stroke-linecap:butt;stroke-linejoin:miter;stroke-opacity:1"/>
<ellipse cx="891.909" cy="225.822" rx="22.966" ry="22.966" style="fill:#FFCC99;fill-rule:evenodd;stroke:#FFCC99;stroke-width:1px;stroke-linecap:butt;stroke-linejoin:miter;stroke-opacity:1"/>
<ellipse cx="949.324" cy="126.376" rx="22.966" ry="22.966" style="fill:#FFCC99;fill-rule:evenodd;stroke:#FFCC99;stroke-width:1px;stroke-linecap:butt;stroke-linejoin:miter;stroke-opacity:1"/>
<ellipse cx="1064.15" cy="126.376" rx="22.966" ry="22.966" style="fill:#FFCC99;fill-rule:evenodd;stroke:#FFCC99;stroke-width:1px;stroke-linecap:butt;stroke-linejoin:miter;stroke-opacity:1"/>
<ellipse cx="1786.69" cy="168.627" rx="36.4584" ry="22.966" style="fill:#FFB5C1;fill-rule:evenodd;stroke:#FFB5C1;stroke-width:1px;stroke-linecap:butt;stroke-linejoin:miter;stroke-opacity:1"/>
<ellipse cx="1681.82" cy="225.748" rx="25.5865" ry="22.966" style="fill:#FFB5C1;fill-rule:evenodd;stroke:#FFB5C1;stroke-width:1px;stroke-linecap:butt;stroke-linejoin:miter;stroke-opacity:1"/>
<ellipse cx="1575.02" cy="168.627" rx="22.966" ry="22.966" style="fill:#FFB5C1;fill-rule:evenodd;stroke:#FFB5C1;stroke-width:1px;stroke-linecap:butt;stroke-linejoin:miter;stroke-opacity:1"/>
<ellipse cx="1679.97" cy="340.872" rx="26.1692" ry="22.966" style="fill:#FFB5C1;fill-rule:evenodd;stroke:#FFB5C1;stroke-width:1px;stroke-linecap:butt;stroke-linejoin:miter;stroke-opacity:1"/>
<ellipse cx="2420.37" cy="283.237" rx="22.966" ry="22.966" style="fill:#FFFFAA;fill-rule:evenodd;stroke:#FFFFAA;stroke-width:1px;stroke-linecap:butt;stroke-linejoin:miter;stroke-opacity:1"/>
<ellipse cx="2519.82" cy="225.822" rx="22.966" ry="22.966" style="fill:#FFFFAA;fill-rule:evenodd;stroke:#FFFFAA;stroke-width:1px;stroke-linecap:butt;stroke-linejoin:miter;stroke-opacity:1"/>
<ellipse cx="2619.27" cy="283.457" rx="22.966" ry="22.966" style="fill:#FFFFAA;fill-rule:evenodd;stroke:#FFFFAA;stroke-width:1px;stroke-linecap:butt;stroke-linejoin:miter;stroke-opacity:1"/>
<ellipse cx="2532.6" cy="111.212" rx="36.4584" ry="22.966" style="fill:#FFB5C1;fill-rule:evenodd;stroke:#FFB5C1;stroke-width:1px;stroke-linecap:butt;stroke-linejoin:miter;stroke-opacity:1"/>
<ellipse cx="2891.29" cy="283.237" rx="22.966" ry="22.966" style="fill:#FFFFAA;fill-rule:evenodd;stroke:#FFFFAA;stroke-width:1px;stroke-linecap:butt;stroke-linejoin:miter;stroke-opacity:1"/>
<ellipse cx="2990.74" cy="225.822" rx="22.966" ry="22.966" style="fill:#FFFFAA;fill-rule:evenodd;stroke:#FFFFAA;stroke-width:1px;stroke-linecap:butt;stroke-linejoin:miter;stroke-opacity:1"/>
<ellipse cx="3090.18" cy="283.457" rx="22.966" ry="22.966" style="fill:#FFFFAA;fill-rule:evenodd;stroke:#FFFFAA;stroke-width:1px;stroke-linecap:butt;stroke-linejoin:miter;stroke-opacity:1"/>
<ellipse cx="3003.52" cy="111.212" rx="36.4584" ry="22.966" style="fill:#FFFFAA;fill-rule:evenodd;stroke:#FFFFAA;stroke-width:1px;stroke-linecap:butt;stroke-linejoin:miter;stroke-opacity:1"/>
<ellipse cx="3642.07" cy="410.532" rx="43.1001" ry="30.0379" style="fill:#FFCC99;fill-rule:evenodd;stroke:#FFCC99;stroke-width:1px;stroke-linecap:butt;stroke-linejoin:miter;stroke-opacity:1"/>
<ellipse cx="3560.02" cy="307.002" rx="22.966" ry="22.966" style="fill:#FFCC99;fill-rule:evenodd;stroke:#FFCC99;stroke-width:1px;stroke-linecap:butt;stroke-linejoin:miter;stroke-opacity:1"/>
<ellipse cx="3445.33" cy="312.745" rx="22.966" ry="22.966" style="fill:#FFCC99;fill-rule:evenodd;stroke:#FFCC99;stroke-width:1px;stroke-linecap:butt;stroke-linejoin:miter;stroke-opacity:1"/>
<ellipse cx="3383.01" cy="216.296" rx="22.966" ry="22.966" style="fill:#FFCC99;fill-rule:evenodd;stroke:#FFCC99;stroke-width:1px;stroke-linecap:butt;stroke-linejoin:miter;stroke-opacity:1"/>
<ellipse cx="3435.38" cy="114.103" rx="22.966" ry="22.966" style="fill:#FFCC99;fill-rule:evenodd;stroke:#FFCC99;stroke-width:1px;stroke-linecap:butt;stroke-linejoin:miter;stroke-opacity:1"/>
<ellipse cx="3550.07" cy="108.359" rx="22.966" ry="22.966" style="fill:#FFCC99;fill-rule:evenodd;stroke:#FFCC99;stroke-width:1px;stroke-linecap:butt;stroke-linejoin:miter;stroke-opacity:1"/>
<ellipse cx="3612.39" cy="204.809" rx="22.966" ry="22.966" style="fill:#FFCC99;fill-rule:evenodd;stroke:#FFCC99;stroke-width:1px;stroke-linecap:butt;stroke-linejoin:miter;stroke-opacity:1"/>
<ellipse cx="3734.43" cy="198.991" rx="25.5865" ry="22.966" style="fill:#FFB5C1;fill-rule:evenodd;stroke:#FFB5C1;stroke-width:1px;stroke-linecap:butt;stroke-linejoin:miter;stroke-opacity:1"/>
<ellipse cx="3779.44" cy="97.0927" rx="22.966" ry="22.966" style="fill:#FFB5C1;fill-rule:evenodd;stroke:#FFB5C1;stroke-width:1px;stroke-linecap:butt;stroke-linejoin:miter;stroke-opacity:1"/>
<ellipse cx="3794.9" cy="295.736" rx="26.1692" ry="22.966" style="fill:#FFB5C1;fill-rule:evenodd;stroke:#FFB5C1;stroke-width:1px;stroke-linecap:butt;stroke-linejoin:miter;stroke-opacity:1"/>
<path class="bond-0" d="M 204.784,160.205 L 304.23,217.62" style="fill:none;fill-rule:evenodd;stroke:#000000;stroke-width:2.0px;stroke-linecap:butt;stroke-linejoin:miter;stroke-opacity:1"/>
<path class="bond-1" d="M 292.747,217.62 L 292.747,266.44" style="fill:none;fill-rule:evenodd;stroke:#000000;stroke-width:2.0px;stroke-linecap:butt;stroke-linejoin:miter;stroke-opacity:1"/>
<path class="bond-1" d="M 292.747,266.44 L 292.747,315.259" style="fill:none;fill-rule:evenodd;stroke:#FF0000;stroke-width:2.0px;stroke-linecap:butt;stroke-linejoin:miter;stroke-opacity:1"/>
<path class="bond-1" d="M 315.713,217.62 L 315.713,266.44" style="fill:none;fill-rule:evenodd;stroke:#000000;stroke-width:2.0px;stroke-linecap:butt;stroke-linejoin:miter;stroke-opacity:1"/>
<path class="bond-1" d="M 315.713,266.44 L 315.713,315.259" style="fill:none;fill-rule:evenodd;stroke:#FF0000;stroke-width:2.0px;stroke-linecap:butt;stroke-linejoin:miter;stroke-opacity:1"/>
<path class="bond-2" d="M 304.23,217.62 L 346.018,193.494" style="fill:none;fill-rule:evenodd;stroke:#000000;stroke-width:2.0px;stroke-linecap:butt;stroke-linejoin:miter;stroke-opacity:1"/>
<path class="bond-2" d="M 346.018,193.494 L 387.805,169.368" style="fill:none;fill-rule:evenodd;stroke:#FF0000;stroke-width:2.0px;stroke-linecap:butt;stroke-linejoin:miter;stroke-opacity:1"/>
<path class="bond-3" d="M 419.547,169.368 L 461.334,193.494" style="fill:none;fill-rule:evenodd;stroke:#FF0000;stroke-width:2.0px;stroke-linecap:butt;stroke-linejoin:miter;stroke-opacity:1"/>
<path class="bond-3" d="M 461.334,193.494 L 503.122,217.62" style="fill:none;fill-rule:evenodd;stroke:#000000;stroke-width:2.0px;stroke-linecap:butt;stroke-linejoin:miter;stroke-opacity:1"/>
<path class="bond-4" d="M 503.122,217.62 L 602.568,160.205" style="fill:none;fill-rule:evenodd;stroke:#000000;stroke-width:2.0px;stroke-linecap:butt;stroke-linejoin:miter;stroke-opacity:1"/>
<path class="bond-5" d="M 491.639,217.62 L 491.639,266.44" style="fill:none;fill-rule:evenodd;stroke:#000000;stroke-width:2.0px;stroke-linecap:butt;stroke-linejoin:miter;stroke-opacity:1"/>
<path class="bond-5" d="M 491.639,266.44 L 491.639,315.259" style="fill:none;fill-rule:evenodd;stroke:#FF0000;stroke-width:2.0px;stroke-linecap:butt;stroke-linejoin:miter;stroke-opacity:1"/>
<path class="bond-5" d="M 514.605,217.62 L 514.605,266.44" style="fill:none;fill-rule:evenodd;stroke:#000000;stroke-width:2.0px;stroke-linecap:butt;stroke-linejoin:miter;stroke-opacity:1"/>
<path class="bond-5" d="M 514.605,266.44 L 514.605,315.259" style="fill:none;fill-rule:evenodd;stroke:#FF0000;stroke-width:2.0px;stroke-linecap:butt;stroke-linejoin:miter;stroke-opacity:1"/>
<path class="bond-6" d="M 1222.79,225.822 L 1172.18,225.822" style="fill:none;fill-rule:evenodd;stroke:#0000FF;stroke-width:2.0px;stroke-linecap:butt;stroke-linejoin:miter;stroke-opacity:1"/>
<path class="bond-6" d="M 1172.18,225.822 L 1121.57,225.822" style="fill:none;fill-rule:evenodd;stroke:#000000;stroke-width:2.0px;stroke-linecap:butt;stroke-linejoin:miter;stroke-opacity:1"/>
<path class="bond-7" d="M 1121.57,225.822 L 1064.15,325.268" style="fill:none;fill-rule:evenodd;stroke:#000000;stroke-width:2.0px;stroke-linecap:butt;stroke-linejoin:miter;stroke-opacity:1"/>
<path class="bond-7" d="M 1093.07,229.256 L 1052.88,298.868" style="fill:none;fill-rule:evenodd;stroke:#000000;stroke-width:2.0px;stroke-linecap:butt;stroke-linejoin:miter;stroke-opacity:1;stroke-dasharray:6,6"/>
<path class="bond-12" d="M 1121.57,225.822 L 1064.15,126.376" style="fill:none;fill-rule:evenodd;stroke:#000000;stroke-width:2.0px;stroke-linecap:butt;stroke-linejoin:miter;stroke-opacity:1"/>
<path class="bond-12" d="M 1093.07,222.388 L 1052.88,152.776" style="fill:none;fill-rule:evenodd;stroke:#000000;stroke-width:2.0px;stroke-linecap:butt;stroke-linejoin:miter;stroke-opacity:1;stroke-dasharray:6,6"/>
<path class="bond-8" d="M 1064.15,325.268 L 949.324,325.268" style="fill:none;fill-rule:evenodd;stroke:#000000;stroke-width:2.0px;stroke-linecap:butt;stroke-linejoin:miter;stroke-opacity:1"/>
<path class="bond-8" d="M 1046.93,302.302 L 966.549,302.302" style="fill:none;fill-rule:evenodd;stroke:#000000;stroke-width:2.0px;stroke-linecap:butt;stroke-linejoin:miter;stroke-opacity:1;stroke-dasharray:6,6"/>
<path class="bond-9" d="M 949.324,325.268 L 891.909,225.822" style="fill:none;fill-rule:evenodd;stroke:#000000;stroke-width:2.0px;stroke-linecap:butt;stroke-linejoin:miter;stroke-opacity:1"/>
<path class="bond-9" d="M 960.601,298.868 L 920.411,229.256" style="fill:none;fill-rule:evenodd;stroke:#000000;stroke-width:2.0px;stroke-linecap:butt;stroke-linejoin:miter;stroke-opacity:1;stroke-dasharray:6,6"/>
<path class="bond-10" d="M 891.909,225.822 L 949.324,126.376" style="fill:none;fill-rule:evenodd;stroke:#000000;stroke-width:2.0px;stroke-linecap:butt;stroke-linejoin:miter;stroke-opacity:1"/>
<path class="bond-10" d="M 920.411,222.388 L 960.601,152.776" style="fill:none;fill-rule:evenodd;stroke:#000000;stroke-width:2.0px;stroke-linecap:butt;stroke-linejoin:miter;stroke-opacity:1;stroke-dasharray:6,6"/>
<path class="bond-11" d="M 949.324,126.376 L 1064.15,126.376" style="fill:none;fill-rule:evenodd;stroke:#000000;stroke-width:2.0px;stroke-linecap:butt;stroke-linejoin:miter;stroke-opacity:1"/>
<path class="bond-11" d="M 966.549,149.342 L 1046.93,149.342" style="fill:none;fill-rule:evenodd;stroke:#000000;stroke-width:2.0px;stroke-linecap:butt;stroke-linejoin:miter;stroke-opacity:1;stroke-dasharray:6,6"/>
<path class="bond-13" d="M 1758.04,177.57 L 1730.18,193.654" style="fill:none;fill-rule:evenodd;stroke:#FF0000;stroke-width:2.0px;stroke-linecap:butt;stroke-linejoin:miter;stroke-opacity:1"/>
<path class="bond-13" d="M 1730.18,193.654 L 1702.32,209.739" style="fill:none;fill-rule:evenodd;stroke:#0000FF;stroke-width:2.0px;stroke-linecap:butt;stroke-linejoin:miter;stroke-opacity:1"/>
<path class="bond-14" d="M 1666.59,208.019 L 1631.42,187.709" style="fill:none;fill-rule:evenodd;stroke:#0000FF;stroke-width:2.0px;stroke-linecap:butt;stroke-linejoin:miter;stroke-opacity:1"/>
<path class="bond-14" d="M 1631.42,187.709 L 1596.24,167.398" style="fill:none;fill-rule:evenodd;stroke:#FF0000;stroke-width:2.0px;stroke-linecap:butt;stroke-linejoin:miter;stroke-opacity:1"/>
<path class="bond-14" d="M 1655.11,227.908 L 1619.93,207.598" style="fill:none;fill-rule:evenodd;stroke:#0000FF;stroke-width:2.0px;stroke-linecap:butt;stroke-linejoin:miter;stroke-opacity:1"/>
<path class="bond-14" d="M 1619.93,207.598 L 1584.75,187.288" style="fill:none;fill-rule:evenodd;stroke:#FF0000;stroke-width:2.0px;stroke-linecap:butt;stroke-linejoin:miter;stroke-opacity:1"/>
<path class="bond-15" d="M 1674.46,242.853 L 1674.46,283.37" style="fill:none;fill-rule:evenodd;stroke:#0000FF;stroke-width:2.0px;stroke-linecap:butt;stroke-linejoin:miter;stroke-opacity:1"/>
<path class="bond-15" d="M 1674.46,283.37 L 1674.46,323.887" style="fill:none;fill-rule:evenodd;stroke:#FF0000;stroke-width:2.0px;stroke-linecap:butt;stroke-linejoin:miter;stroke-opacity:1"/>
<path class="bond-16" d="M 2420.37,283.237 L 2519.82,225.822" style="fill:none;fill-rule:evenodd;stroke:#000000;stroke-width:2.0px;stroke-linecap:butt;stroke-linejoin:miter;stroke-opacity:1"/>
<path class="bond-17" d="M 2514.08,235.767 L 2555.87,259.893" style="fill:none;fill-rule:evenodd;stroke:#000000;stroke-width:2.0px;stroke-linecap:butt;stroke-linejoin:miter;stroke-opacity:1"/>
<path class="bond-17" d="M 2555.87,259.893 L 2597.65,284.019" style="fill:none;fill-rule:evenodd;stroke:#FF0000;stroke-width:2.0px;stroke-linecap:butt;stroke-linejoin:miter;stroke-opacity:1"/>
<path class="bond-17" d="M 2525.56,215.877 L 2567.35,240.003" style="fill:none;fill-rule:evenodd;stroke:#000000;stroke-width:2.0px;stroke-linecap:butt;stroke-linejoin:miter;stroke-opacity:1"/>
<path class="bond-17" d="M 2567.35,240.003 L 2609.14,264.13" style="fill:none;fill-rule:evenodd;stroke:#FF0000;stroke-width:2.0px;stroke-linecap:butt;stroke-linejoin:miter;stroke-opacity:1"/>
<path class="bond-18" d="M 2519.82,225.822 L 2519.82,177.222" style="fill:none;fill-rule:evenodd;stroke:#000000;stroke-width:2.0px;stroke-linecap:butt;stroke-linejoin:miter;stroke-opacity:1"/>
<path class="bond-18" d="M 2519.82,177.222 L 2519.82,128.623" style="fill:none;fill-rule:evenodd;stroke:#FF0000;stroke-width:2.0px;stroke-linecap:butt;stroke-linejoin:miter;stroke-opacity:1"/>
<path class="bond-19" d="M 2891.29,283.237 L 2990.74,225.822" style="fill:none;fill-rule:evenodd;stroke:#000000;stroke-width:2.0px;stroke-linecap:butt;stroke-linejoin:miter;stroke-opacity:1"/>
<path class="bond-20" d="M 2984.99,235.767 L 3026.78,259.893" style="fill:none;fill-rule:evenodd;stroke:#000000;stroke-width:2.0px;stroke-linecap:butt;stroke-linejoin:miter;stroke-opacity:1"/>
<path class="bond-20" d="M 3026.78,259.893 L 3068.57,284.019" style="fill:none;fill-rule:evenodd;stroke:#FF0000;stroke-width:2.0px;stroke-linecap:butt;stroke-linejoin:miter;stroke-opacity:1"/>
<path class="bond-20" d="M 2996.48,215.877 L 3038.27,240.003" style="fill:none;fill-rule:evenodd;stroke:#000000;stroke-width:2.0px;stroke-linecap:butt;stroke-linejoin:miter;stroke-opacity:1"/>
<path class="bond-20" d="M 3038.27,240.003 L 3080.05,264.13" style="fill:none;fill-rule:evenodd;stroke:#FF0000;stroke-width:2.0px;stroke-linecap:butt;stroke-linejoin:miter;stroke-opacity:1"/>
<path class="bond-21" d="M 2990.74,225.822 L 2990.74,177.222" style="fill:none;fill-rule:evenodd;stroke:#000000;stroke-width:2.0px;stroke-linecap:butt;stroke-linejoin:miter;stroke-opacity:1"/>
<path class="bond-21" d="M 2990.74,177.222 L 2990.74,128.623" style="fill:none;fill-rule:evenodd;stroke:#FF0000;stroke-width:2.0px;stroke-linecap:butt;stroke-linejoin:miter;stroke-opacity:1"/>
<path class="bond-22" d="M 3611.33,386.421 L 3585.67,346.712" style="fill:none;fill-rule:evenodd;stroke:#0000FF;stroke-width:2.0px;stroke-linecap:butt;stroke-linejoin:miter;stroke-opacity:1"/>
<path class="bond-22" d="M 3585.67,346.712 L 3560.02,307.002" style="fill:none;fill-rule:evenodd;stroke:#000000;stroke-width:2.0px;stroke-linecap:butt;stroke-linejoin:miter;stroke-opacity:1"/>
<path class="bond-23" d="M 3560.02,307.002 L 3445.33,312.745" style="fill:none;fill-rule:evenodd;stroke:#000000;stroke-width:2.0px;stroke-linecap:butt;stroke-linejoin:miter;stroke-opacity:1"/>
<path class="bond-23" d="M 3541.67,284.926 L 3461.39,288.947" style="fill:none;fill-rule:evenodd;stroke:#000000;stroke-width:2.0px;stroke-linecap:butt;stroke-linejoin:miter;stroke-opacity:1;stroke-dasharray:6,6"/>
<path class="bond-31" d="M 3560.02,307.002 L 3612.39,204.809" style="fill:none;fill-rule:evenodd;stroke:#000000;stroke-width:2.0px;stroke-linecap:butt;stroke-linejoin:miter;stroke-opacity:1"/>
<path class="bond-31" d="M 3547.43,281.199 L 3584.09,209.664" style="fill:none;fill-rule:evenodd;stroke:#000000;stroke-width:2.0px;stroke-linecap:butt;stroke-linejoin:miter;stroke-opacity:1;stroke-dasharray:6,6"/>
<path class="bond-24" d="M 3445.33,312.745 L 3383.01,216.296" style="fill:none;fill-rule:evenodd;stroke:#000000;stroke-width:2.0px;stroke-linecap:butt;stroke-linejoin:miter;stroke-opacity:1"/>
<path class="bond-24" d="M 3455.27,285.815 L 3411.65,218.3" style="fill:none;fill-rule:evenodd;stroke:#000000;stroke-width:2.0px;stroke-linecap:butt;stroke-linejoin:miter;stroke-opacity:1;stroke-dasharray:6,6"/>
<path class="bond-25" d="M 3383.01,216.296 L 3435.38,114.103" style="fill:none;fill-rule:evenodd;stroke:#000000;stroke-width:2.0px;stroke-linecap:butt;stroke-linejoin:miter;stroke-opacity:1"/>
<path class="bond-25" d="M 3411.31,211.441 L 3447.97,139.905" style="fill:none;fill-rule:evenodd;stroke:#000000;stroke-width:2.0px;stroke-linecap:butt;stroke-linejoin:miter;stroke-opacity:1;stroke-dasharray:6,6"/>
<path class="bond-26" d="M 3435.38,114.103 L 3550.07,108.359" style="fill:none;fill-rule:evenodd;stroke:#000000;stroke-width:2.0px;stroke-linecap:butt;stroke-linejoin:miter;stroke-opacity:1"/>
<path class="bond-26" d="M 3453.74,136.178 L 3534.02,132.158" style="fill:none;fill-rule:evenodd;stroke:#000000;stroke-width:2.0px;stroke-linecap:butt;stroke-linejoin:miter;stroke-opacity:1;stroke-dasharray:6,6"/>
<path class="bond-27" d="M 3550.07,108.359 L 3612.39,204.809" style="fill:none;fill-rule:evenodd;stroke:#000000;stroke-width:2.0px;stroke-linecap:butt;stroke-linejoin:miter;stroke-opacity:1"/>
<path class="bond-27" d="M 3540.13,135.29 L 3583.75,202.805" style="fill:none;fill-rule:evenodd;stroke:#000000;stroke-width:2.0px;stroke-linecap:butt;stroke-linejoin:miter;stroke-opacity:1;stroke-dasharray:6,6"/>
<path class="bond-28" d="M 3612.39,204.809 L 3662.93,202.278" style="fill:none;fill-rule:evenodd;stroke:#000000;stroke-width:2.0px;stroke-linecap:butt;stroke-linejoin:miter;stroke-opacity:1"/>
<path class="bond-28" d="M 3662.93,202.278 L 3713.46,199.747" style="fill:none;fill-rule:evenodd;stroke:#0000FF;stroke-width:2.0px;stroke-linecap:butt;stroke-linejoin:miter;stroke-opacity:1"/>
<path class="bond-29" d="M 3746.02,187.272 L 3763.45,153.267" style="fill:none;fill-rule:evenodd;stroke:#0000FF;stroke-width:2.0px;stroke-linecap:butt;stroke-linejoin:miter;stroke-opacity:1"/>
<path class="bond-29" d="M 3763.45,153.267 L 3780.87,119.262" style="fill:none;fill-rule:evenodd;stroke:#FF0000;stroke-width:2.0px;stroke-linecap:butt;stroke-linejoin:miter;stroke-opacity:1"/>
<path class="bond-29" d="M 3725.58,176.798 L 3743.01,142.793" style="fill:none;fill-rule:evenodd;stroke:#0000FF;stroke-width:2.0px;stroke-linecap:butt;stroke-linejoin:miter;stroke-opacity:1"/>
<path class="bond-29" d="M 3743.01,142.793 L 3760.43,108.788" style="fill:none;fill-rule:evenodd;stroke:#FF0000;stroke-width:2.0px;stroke-linecap:butt;stroke-linejoin:miter;stroke-opacity:1"/>
<path class="bond-30" d="M 3738.08,216.097 L 3758.34,247.464" style="fill:none;fill-rule:evenodd;stroke:#0000FF;stroke-width:2.0px;stroke-linecap:butt;stroke-linejoin:miter;stroke-opacity:1"/>
<path class="bond-30" d="M 3758.34,247.464 L 3778.61,278.832" style="fill:none;fill-rule:evenodd;stroke:#FF0000;stroke-width:2.0px;stroke-linecap:butt;stroke-linejoin:miter;stroke-opacity:1"/>
<path class="atom-2" d="M 291.23 332.53 Q 291.23 325.73, 294.59 321.93 Q 297.95 318.13, 304.23 318.13 Q 310.51 318.13, 313.87 321.93 Q 317.23 325.73, 317.23 332.53 Q 317.23 339.41, 313.83 343.33 Q 310.43 347.21, 304.23 347.21 Q 297.99 347.21, 294.59 343.33 Q 291.23 339.45, 291.23 332.53 M 304.23 344.01 Q 308.55 344.01, 310.87 341.13 Q 313.23 338.21, 313.23 332.53 Q 313.23 326.97, 310.87 324.17 Q 308.55 321.33, 304.23 321.33 Q 299.91 321.33, 297.55 324.13 Q 295.23 326.93, 295.23 332.53 Q 295.23 338.25, 297.55 341.13 Q 299.91 344.01, 304.23 344.01 " fill="#FF0000"/>
<path class="atom-3" d="M 390.676 160.285 Q 390.676 153.485, 394.036 149.685 Q 397.396 145.885, 403.676 145.885 Q 409.956 145.885, 413.316 149.685 Q 416.676 153.485, 416.676 160.285 Q 416.676 167.165, 413.276 171.085 Q 409.876 174.965, 403.676 174.965 Q 397.436 174.965, 394.036 171.085 Q 390.676 167.205, 390.676 160.285 M 403.676 171.765 Q 407.996 171.765, 410.316 168.885 Q 412.676 165.965, 412.676 160.285 Q 412.676 154.725, 410.316 151.925 Q 407.996 149.085, 403.676 149.085 Q 399.356 149.085, 396.996 151.885 Q 394.676 154.685, 394.676 160.285 Q 394.676 166.005, 396.996 168.885 Q 399.356 171.765, 403.676 171.765 " fill="#FF0000"/>
<path class="atom-6" d="M 490.122 332.53 Q 490.122 325.73, 493.482 321.93 Q 496.842 318.13, 503.122 318.13 Q 509.402 318.13, 512.762 321.93 Q 516.122 325.73, 516.122 332.53 Q 516.122 339.41, 512.722 343.33 Q 509.322 347.21, 503.122 347.21 Q 496.882 347.21, 493.482 343.33 Q 490.122 339.45, 490.122 332.53 M 503.122 344.01 Q 507.442 344.01, 509.762 341.13 Q 512.122 338.21, 512.122 332.53 Q 512.122 326.97, 509.762 324.17 Q 507.442 321.33, 503.122 321.33 Q 498.802 321.33, 496.442 324.13 Q 494.122 326.93, 494.122 332.53 Q 494.122 338.25, 496.442 341.13 Q 498.802 344.01, 503.122 344.01 " fill="#FF0000"/>
<path class="atom-7" d="M 1230.14 211.662 L 1239.42 226.662 Q 1240.34 228.142, 1241.82 230.822 Q 1243.3 233.502, 1243.38 233.662 L 1243.38 211.662 L 1247.14 211.662 L 1247.14 239.982 L 1243.26 239.982 L 1233.3 223.582 Q 1232.14 221.662, 1230.9 219.462 Q 1229.7 217.262, 1229.34 216.582 L 1229.34 239.982 L 1225.66 239.982 L 1225.66 211.662 L 1230.14 211.662 " fill="#0000FF"/>
<path class="atom-7" d="M 1250.54 211.662 L 1254.38 211.662 L 1254.38 223.702 L 1268.86 223.702 L 1268.86 211.662 L 1272.7 211.662 L 1272.7 239.982 L 1268.86 239.982 L 1268.86 226.902 L 1254.38 226.902 L 1254.38 239.982 L 1250.54 239.982 L 1250.54 211.662 " fill="#0000FF"/>
<path class="atom-7" d="M 1274.07 238.988 Q 1274.76 237.22, 1276.4 236.243 Q 1278.03 235.24, 1280.3 235.24 Q 1283.13 235.24, 1284.71 236.771 Q 1286.3 238.302, 1286.3 241.021 Q 1286.3 243.793, 1284.24 246.38 Q 1282.2 248.968, 1277.98 252.03 L 1286.61 252.03 L 1286.61 254.142 L 1274.02 254.142 L 1274.02 252.373 Q 1277.5 249.892, 1279.56 248.044 Q 1281.65 246.196, 1282.65 244.532 Q 1283.66 242.869, 1283.66 241.153 Q 1283.66 239.358, 1282.76 238.355 Q 1281.86 237.352, 1280.3 237.352 Q 1278.8 237.352, 1277.8 237.959 Q 1276.79 238.566, 1276.08 239.912 L 1274.07 238.988 " fill="#0000FF"/>
<path class="atom-14" d="M 1760.91 168.487 Q 1760.91 161.687, 1764.27 157.887 Q 1767.63 154.087, 1773.91 154.087 Q 1780.19 154.087, 1783.55 157.887 Q 1786.91 161.687, 1786.91 168.487 Q 1786.91 175.367, 1783.51 179.287 Q 1780.11 183.167, 1773.91 183.167 Q 1767.67 183.167, 1764.27 179.287 Q 1760.91 175.407, 1760.91 168.487 M 1773.91 179.967 Q 1778.23 179.967, 1780.55 177.087 Q 1782.91 174.167, 1782.91 168.487 Q 1782.91 162.927, 1780.55 160.127 Q 1778.23 157.287, 1773.91 157.287 Q 1769.59 157.287, 1767.23 160.087 Q 1764.91 162.887, 1764.91 168.487 Q 1764.91 174.207, 1767.23 177.087 Q 1769.59 179.967, 1773.91 179.967 " fill="#FF0000"/>
<path class="atom-14" d="M 1790.31 154.407 L 1794.15 154.407 L 1794.15 166.447 L 1808.63 166.447 L 1808.63 154.407 L 1812.47 154.407 L 1812.47 182.727 L 1808.63 182.727 L 1808.63 169.647 L 1794.15 169.647 L 1794.15 182.727 L 1790.31 182.727 L 1790.31 154.407 " fill="#FF0000"/>
<path class="atom-15" d="M 1668.2 211.662 L 1677.48 226.662 Q 1678.4 228.142, 1679.88 230.822 Q 1681.36 233.502, 1681.44 233.662 L 1681.44 211.662 L 1685.2 211.662 L 1685.2 239.982 L 1681.32 239.982 L 1671.36 223.582 Q 1670.2 221.662, 1668.96 219.462 Q 1667.76 217.262, 1667.4 216.582 L 1667.4 239.982 L 1663.72 239.982 L 1663.72 211.662 L 1668.2 211.662 " fill="#0000FF"/>
<path class="atom-15" d="M 1687.58 216.767 L 1692.57 216.767 L 1692.57 211.513 L 1694.79 211.513 L 1694.79 216.767 L 1699.91 216.767 L 1699.91 218.668 L 1694.79 218.668 L 1694.79 223.948 L 1692.57 223.948 L 1692.57 218.668 L 1687.58 218.668 L 1687.58 216.767 " fill="#0000FF"/>
<path class="atom-16" d="M 1562.02 168.487 Q 1562.02 161.687, 1565.38 157.887 Q 1568.74 154.087, 1575.02 154.087 Q 1581.3 154.087, 1584.66 157.887 Q 1588.02 161.687, 1588.02 168.487 Q 1588.02 175.367, 1584.62 179.287 Q 1581.22 183.167, 1575.02 183.167 Q 1568.78 183.167, 1565.38 179.287 Q 1562.02 175.407, 1562.02 168.487 M 1575.02 179.967 Q 1579.34 179.967, 1581.66 177.087 Q 1584.02 174.167, 1584.02 168.487 Q 1584.02 162.927, 1581.66 160.127 Q 1579.34 157.287, 1575.02 157.287 Q 1570.7 157.287, 1568.34 160.087 Q 1566.02 162.887, 1566.02 168.487 Q 1566.02 174.207, 1568.34 177.087 Q 1570.7 179.967, 1575.02 179.967 " fill="#FF0000"/>
<path class="atom-17" d="M 1661.46 340.732 Q 1661.46 333.932, 1664.82 330.132 Q 1668.18 326.332, 1674.46 326.332 Q 1680.74 326.332, 1684.1 330.132 Q 1687.46 333.932, 1687.46 340.732 Q 1687.46 347.612, 1684.06 351.532 Q 1680.66 355.412, 1674.46 355.412 Q 1668.22 355.412, 1664.82 351.532 Q 1661.46 347.652, 1661.46 340.732 M 1674.46 352.212 Q 1678.78 352.212, 1681.1 349.332 Q 1683.46 346.412, 1683.46 340.732 Q 1683.46 335.172, 1681.1 332.372 Q 1678.78 329.532, 1674.46 329.532 Q 1670.14 329.532, 1667.78 332.332 Q 1665.46 335.132, 1665.46 340.732 Q 1665.46 346.452, 1667.78 349.332 Q 1670.14 352.212, 1674.46 352.212 " fill="#FF0000"/>
<path class="atom-17" d="M 1688.78 330.955 L 1698.47 330.955 L 1698.47 333.067 L 1688.78 333.067 L 1688.78 330.955 " fill="#FF0000"/>
<path class="atom-20" d="M 2606.27 283.317 Q 2606.27 276.517, 2609.63 272.717 Q 2612.99 268.917, 2619.27 268.917 Q 2625.55 268.917, 2628.91 272.717 Q 2632.27 276.517, 2632.27 283.317 Q 2632.27 290.197, 2628.87 294.117 Q 2625.47 297.997, 2619.27 297.997 Q 2613.03 297.997, 2609.63 294.117 Q 2606.27 290.237, 2606.27 283.317 M 2619.27 294.797 Q 2623.59 294.797, 2625.91 291.917 Q 2628.27 288.997, 2628.27 283.317 Q 2628.27 277.757, 2625.91 274.957 Q 2623.59 272.117, 2619.27 272.117 Q 2614.95 272.117, 2612.59 274.917 Q 2610.27 277.717, 2610.27 283.317 Q 2610.27 289.037, 2612.59 291.917 Q 2614.95 294.797, 2619.27 294.797 " fill="#FF0000"/>
<path class="atom-21" d="M 2506.82 111.072 Q 2506.82 104.272, 2510.18 100.472 Q 2513.54 96.6718, 2519.82 96.6718 Q 2526.1 96.6718, 2529.46 100.472 Q 2532.82 104.272, 2532.82 111.072 Q 2532.82 117.952, 2529.42 121.872 Q 2526.02 125.752, 2519.82 125.752 Q 2513.58 125.752, 2510.18 121.872 Q 2506.82 117.992, 2506.82 111.072 M 2519.82 122.552 Q 2524.14 122.552, 2526.46 119.672 Q 2528.82 116.752, 2528.82 111.072 Q 2528.82 105.512, 2526.46 102.712 Q 2524.14 99.8718, 2519.82 99.8718 Q 2515.5 99.8718, 2513.14 102.672 Q 2510.82 105.472, 2510.82 111.072 Q 2510.82 116.792, 2513.14 119.672 Q 2515.5 122.552, 2519.82 122.552 " fill="#FF0000"/>
<path class="atom-21" d="M 2536.22 96.9918 L 2540.06 96.9918 L 2540.06 109.032 L 2554.54 109.032 L 2554.54 96.9918 L 2558.38 96.9918 L 2558.38 125.312 L 2554.54 125.312 L 2554.54 112.232 L 2540.06 112.232 L 2540.06 125.312 L 2536.22 125.312 L 2536.22 96.9918 " fill="#FF0000"/>
<path class="atom-24" d="M 3077.18 283.317 Q 3077.18 276.517, 3080.54 272.717 Q 3083.9 268.917, 3090.18 268.917 Q 3096.46 268.917, 3099.82 272.717 Q 3103.18 276.517, 3103.18 283.317 Q 3103.18 290.197, 3099.78 294.117 Q 3096.38 297.997, 3090.18 297.997 Q 3083.94 297.997, 3080.54 294.117 Q 3077.18 290.237, 3077.18 283.317 M 3090.18 294.797 Q 3094.5 294.797, 3096.82 291.917 Q 3099.18 288.997, 3099.18 283.317 Q 3099.18 277.757, 3096.82 274.957 Q 3094.5 272.117, 3090.18 272.117 Q 3085.86 272.117, 3083.5 274.917 Q 3081.18 277.717, 3081.18 283.317 Q 3081.18 289.037, 3083.5 291.917 Q 3085.86 294.797, 3090.18 294.797 " fill="#FF0000"/>
<path class="atom-25" d="M 2977.74 111.072 Q 2977.74 104.272, 2981.1 100.472 Q 2984.46 96.6718, 2990.74 96.6718 Q 2997.02 96.6718, 3000.38 100.472 Q 3003.74 104.272, 3003.74 111.072 Q 3003.74 117.952, 3000.34 121.872 Q 2996.94 125.752, 2990.74 125.752 Q 2984.5 125.752, 2981.1 121.872 Q 2977.74 117.992, 2977.74 111.072 M 2990.74 122.552 Q 2995.06 122.552, 2997.38 119.672 Q 2999.74 116.752, 2999.74 111.072 Q 2999.74 105.512, 2997.38 102.712 Q 2995.06 99.8718, 2990.74 99.8718 Q 2986.42 99.8718, 2984.06 102.672 Q 2981.74 105.472, 2981.74 111.072 Q 2981.74 116.792, 2984.06 119.672 Q 2986.42 122.552, 2990.74 122.552 " fill="#FF0000"/>
<path class="atom-25" d="M 3007.14 96.9918 L 3010.98 96.9918 L 3010.98 109.032 L 3025.46 109.032 L 3025.46 96.9918 L 3029.3 96.9918 L 3029.3 125.312 L 3025.46 125.312 L 3025.46 112.232 L 3010.98 112.232 L 3010.98 125.312 L 3007.14 125.312 L 3007.14 96.9918 " fill="#FF0000"/>
<path class="atom-26" d="M 3616.08 389.292 L 3625.36 404.292 Q 3626.28 405.772, 3627.76 408.452 Q 3629.24 411.132, 3629.32 411.292 L 3629.32 389.292 L 3633.08 389.292 L 3633.08 417.612 L 3629.2 417.612 L 3619.24 401.212 Q 3618.08 399.292, 3616.84 397.092 Q 3615.64 394.892, 3615.28 394.212 L 3615.28 417.612 L 3611.6 417.612 L 3611.6 389.292 L 3616.08 389.292 " fill="#0000FF"/>
<path class="atom-26" d="M 3636.48 389.292 L 3640.32 389.292 L 3640.32 401.332 L 3654.8 401.332 L 3654.8 389.292 L 3658.64 389.292 L 3658.64 417.612 L 3654.8 417.612 L 3654.8 404.532 L 3640.32 404.532 L 3640.32 417.612 L 3636.48 417.612 L 3636.48 389.292 " fill="#0000FF"/>
<path class="atom-26" d="M 3660.01 416.618 Q 3660.69 414.85, 3662.33 413.873 Q 3663.97 412.87, 3666.24 412.87 Q 3669.06 412.87, 3670.65 414.401 Q 3672.23 415.932, 3672.23 418.651 Q 3672.23 421.423, 3670.17 424.01 Q 3668.14 426.598, 3663.92 429.66 L 3672.55 429.66 L 3672.55 431.772 L 3659.96 431.772 L 3659.96 430.003 Q 3663.44 427.522, 3665.5 425.674 Q 3667.58 423.826, 3668.59 422.162 Q 3669.59 420.499, 3669.59 418.783 Q 3669.59 416.988, 3668.69 415.985 Q 3667.8 414.982, 3666.24 414.982 Q 3664.73 414.982, 3663.73 415.589 Q 3662.73 416.196, 3662.01 417.542 L 3660.01 416.618 " fill="#0000FF"/>
<path class="atom-33" d="M 3720.81 184.906 L 3730.09 199.906 Q 3731.01 201.386, 3732.49 204.066 Q 3733.97 206.746, 3734.05 206.906 L 3734.05 184.906 L 3737.81 184.906 L 3737.81 213.226 L 3733.93 213.226 L 3723.97 196.826 Q 3722.81 194.906, 3721.57 192.706 Q 3720.37 190.506, 3720.01 189.826 L 3720.01 213.226 L 3716.33 213.226 L 3716.33 184.906 L 3720.81 184.906 " fill="#0000FF"/>
<path class="atom-33" d="M 3740.19 190.011 L 3745.18 190.011 L 3745.18 184.757 L 3747.4 184.757 L 3747.4 190.011 L 3752.52 190.011 L 3752.52 191.911 L 3747.4 191.911 L 3747.4 197.191 L 3745.18 197.191 L 3745.18 191.911 L 3740.19 191.911 L 3740.19 190.011 " fill="#0000FF"/>
<path class="atom-34" d="M 3766.44 96.9527 Q 3766.44 90.1527, 3769.8 86.3527 Q 3773.16 82.5527, 3779.44 82.5527 Q 3785.72 82.5527, 3789.08 86.3527 Q 3792.44 90.1527, 3792.44 96.9527 Q 3792.44 103.833, 3789.04 107.753 Q 3785.64 111.633, 3779.44 111.633 Q 3773.2 111.633, 3769.8 107.753 Q 3766.44 103.873, 3766.44 96.9527 M 3779.44 108.433 Q 3783.76 108.433, 3786.08 105.553 Q 3788.44 102.633, 3788.44 96.9527 Q 3788.44 91.3927, 3786.08 88.5927 Q 3783.76 85.7527, 3779.44 85.7527 Q 3775.12 85.7527, 3772.76 88.5527 Q 3770.44 91.3527, 3770.44 96.9527 Q 3770.44 102.673, 3772.76 105.553 Q 3775.12 108.433, 3779.44 108.433 " fill="#FF0000"/>
<path class="atom-35" d="M 3776.39 295.596 Q 3776.39 288.796, 3779.75 284.996 Q 3783.11 281.196, 3789.39 281.196 Q 3795.67 281.196, 3799.03 284.996 Q 3802.39 288.796, 3802.39 295.596 Q 3802.39 302.476, 3798.99 306.396 Q 3795.59 310.276, 3789.39 310.276 Q 3783.15 310.276, 3779.75 306.396 Q 3776.39 302.516, 3776.39 295.596 M 3789.39 307.076 Q 3793.71 307.076, 3796.03 304.196 Q 3798.39 301.276, 3798.39 295.596 Q 3798.39 290.036, 3796.03 287.236 Q 3793.71 284.396, 3789.39 284.396 Q 3785.07 284.396, 3782.71 287.196 Q 3780.39 289.996, 3780.39 295.596 Q 3780.39 301.316, 3782.71 304.196 Q 3785.07 307.076, 3789.39 307.076 " fill="#FF0000"/>
<path class="atom-35" d="M 3803.71 285.818 L 3813.4 285.818 L 3813.4 287.93 L 3803.71 287.93 L 3803.71 285.818 " fill="#FF0000"/>
<path class="note" d="M 191.725 182.299 L 194.825 182.299 L 194.825 171.719 L 191.405 172.779 L 190.945 171.599 L 195.285 169.659 L 196.705 169.899 L 196.705 182.299 L 199.485 182.299 L 199.485 183.899 L 191.725 183.899 L 191.725 182.299 " fill="#000000"/>
<path class="note" d="M 299.5 194.162 Q 300.02 192.822, 301.26 192.082 Q 302.5 191.322, 304.22 191.322 Q 306.36 191.322, 307.56 192.482 Q 308.76 193.642, 308.76 195.702 Q 308.76 197.802, 307.2 199.762 Q 305.66 201.722, 302.46 204.042 L 309 204.042 L 309 205.642 L 299.46 205.642 L 299.46 204.302 Q 302.1 202.422, 303.66 201.022 Q 305.24 199.622, 306 198.362 Q 306.76 197.102, 306.76 195.802 Q 306.76 194.442, 306.08 193.682 Q 305.4 192.922, 304.22 192.922 Q 303.08 192.922, 302.32 193.382 Q 301.56 193.842, 301.02 194.862 L 299.5 194.162 " fill="#000000"/>
<path class="note" d="M 306.27 370.427 Q 307.65 370.827, 308.31 371.727 Q 308.99 372.607, 308.99 374.007 Q 308.99 375.207, 308.39 376.147 Q 307.79 377.067, 306.69 377.587 Q 305.59 378.087, 304.15 378.087 Q 302.63 378.087, 301.49 377.567 Q 300.37 377.027, 299.47 375.947 L 300.61 374.787 Q 301.49 375.747, 302.23 376.127 Q 302.97 376.487, 304.15 376.487 Q 305.43 376.487, 306.21 375.807 Q 306.99 375.107, 306.99 373.987 Q 306.99 372.547, 306.17 371.907 Q 305.37 371.247, 303.63 371.247 L 302.61 371.247 L 302.61 369.807 L 303.51 369.807 Q 305.05 369.787, 305.87 369.127 Q 306.69 368.447, 306.69 367.187 Q 306.69 366.267, 306.01 365.727 Q 305.33 365.167, 304.17 365.167 Q 302.99 365.167, 302.25 365.587 Q 301.53 366.007, 300.97 367.067 L 299.59 366.327 Q 300.09 365.147, 301.29 364.367 Q 302.49 363.567, 304.17 363.567 Q 306.25 363.567, 307.47 364.547 Q 308.69 365.527, 308.69 367.187 Q 308.69 368.327, 308.07 369.147 Q 307.45 369.967, 306.27 370.427 " fill="#000000"/>
<path class="note" d="M 405.896 121.588 Q 407.196 122.148, 407.936 122.988 Q 408.676 123.808, 408.676 125.208 Q 408.676 126.408, 408.056 127.348 Q 407.436 128.268, 406.316 128.788 Q 405.216 129.288, 403.756 129.288 Q 401.396 129.288, 400.036 128.208 Q 398.676 127.108, 398.676 125.208 Q 398.676 124.048, 399.276 123.188 Q 399.876 122.308, 401.116 121.648 Q 400.196 121.128, 399.696 120.368 Q 399.196 119.588, 399.196 118.388 Q 399.196 116.728, 400.396 115.748 Q 401.616 114.768, 403.676 114.768 Q 405.736 114.768, 406.936 115.748 Q 408.156 116.728, 408.156 118.388 Q 408.156 119.428, 407.576 120.208 Q 407.016 120.968, 405.896 121.588 M 403.676 116.268 Q 402.496 116.268, 401.836 116.828 Q 401.196 117.388, 401.196 118.388 Q 401.196 119.128, 401.636 119.628 Q 402.076 120.108, 402.696 120.388 Q 403.336 120.668, 404.556 121.088 Q 405.416 120.488, 405.776 119.848 Q 406.156 119.208, 406.156 118.388 Q 406.156 117.388, 405.496 116.828 Q 404.856 116.268, 403.676 116.268 M 403.756 127.788 Q 405.076 127.788, 405.876 127.088 Q 406.676 126.368, 406.676 125.188 Q 406.676 124.428, 406.256 123.948 Q 405.836 123.468, 405.196 123.188 Q 404.576 122.908, 403.456 122.548 L 402.556 122.248 Q 401.556 122.848, 401.116 123.568 Q 400.676 124.268, 400.676 125.188 Q 400.676 126.368, 401.516 127.088 Q 402.356 127.788, 403.756 127.788 " fill="#000000"/>
<path class="note" d="M 503.752 196.802 Q 504.992 196.802, 505.972 197.342 Q 506.952 197.882, 507.492 198.862 Q 508.032 199.842, 508.032 201.082 Q 508.032 202.462, 507.412 203.542 Q 506.812 204.602, 505.732 205.202 Q 504.652 205.802, 503.272 205.802 Q 500.752 205.802, 499.472 204.102 Q 498.212 202.382, 498.212 198.982 Q 498.212 195.222, 499.772 193.282 Q 501.352 191.322, 504.372 191.322 Q 505.252 191.322, 505.992 191.522 Q 506.752 191.722, 507.472 192.142 L 506.692 193.482 Q 505.652 192.922, 504.392 192.922 Q 502.392 192.922, 501.372 194.222 Q 500.352 195.502, 500.232 198.162 Q 500.952 197.502, 501.852 197.162 Q 502.772 196.802, 503.752 196.802 M 503.292 204.162 Q 504.052 204.162, 504.672 203.762 Q 505.312 203.362, 505.672 202.662 Q 506.032 201.962, 506.032 201.102 Q 506.032 199.842, 505.332 199.122 Q 504.632 198.402, 503.392 198.402 Q 502.532 198.402, 501.672 198.762 Q 500.832 199.102, 500.232 199.702 Q 500.312 202.042, 501.052 203.102 Q 501.792 204.162, 503.292 204.162 " fill="#000000"/>
<path class="note" d="M 593.349 141.85 Q 594.589 141.85, 595.609 142.39 Q 596.629 142.91, 597.209 143.91 Q 597.789 144.89, 597.789 146.23 Q 597.789 147.69, 597.069 148.75 Q 596.369 149.79, 595.209 150.33 Q 594.049 150.87, 592.729 150.87 Q 591.429 150.87, 590.229 150.39 Q 589.029 149.91, 588.209 148.99 L 589.409 147.75 Q 590.069 148.47, 590.969 148.87 Q 591.869 149.25, 592.789 149.25 Q 594.049 149.25, 594.909 148.47 Q 595.789 147.69, 595.789 146.27 Q 595.789 144.77, 594.909 144.07 Q 594.049 143.35, 592.669 143.35 Q 591.429 143.35, 590.049 143.89 L 588.949 143.37 L 589.629 136.55 L 596.909 136.55 L 596.709 138.15 L 591.269 138.15 L 590.849 142.35 Q 592.109 141.85, 593.349 141.85 " fill="#000000"/>
<path class="note" d="M 505.842 365.247 L 498.422 365.247 L 498.422 363.647 L 507.822 363.647 L 507.822 365.067 L 502.102 377.807 L 500.182 377.807 L 505.842 365.247 " fill="#000000"/>
<path class="note" d="M 1255.39 185.513 Q 1257.91 185.513, 1259.17 187.233 Q 1260.45 188.933, 1260.45 192.333 Q 1260.45 196.093, 1258.87 198.053 Q 1257.31 199.993, 1254.29 199.993 Q 1253.41 199.993, 1252.65 199.793 Q 1251.91 199.593, 1251.19 199.173 L 1251.97 197.833 Q 1253.01 198.393, 1254.27 198.393 Q 1256.27 198.393, 1257.29 197.113 Q 1258.31 195.813, 1258.43 193.153 Q 1257.71 193.813, 1256.79 194.173 Q 1255.89 194.513, 1254.91 194.513 Q 1253.67 194.513, 1252.69 193.973 Q 1251.71 193.433, 1251.17 192.453 Q 1250.63 191.473, 1250.63 190.233 Q 1250.63 188.853, 1251.23 187.793 Q 1251.85 186.713, 1252.93 186.113 Q 1254.01 185.513, 1255.39 185.513 M 1252.63 190.213 Q 1252.63 191.473, 1253.33 192.193 Q 1254.03 192.913, 1255.27 192.913 Q 1256.13 192.913, 1256.97 192.573 Q 1257.83 192.213, 1258.43 191.613 Q 1258.35 189.273, 1257.61 188.213 Q 1256.87 187.153, 1255.37 187.153 Q 1254.61 187.153, 1253.97 187.553 Q 1253.35 187.953, 1252.99 188.653 Q 1252.63 189.353, 1252.63 190.213 " fill="#000000"/>
<path class="note" d="M 1127.16 264.531 L 1130.26 264.531 L 1130.26 253.951 L 1126.84 255.011 L 1126.38 253.831 L 1130.72 251.891 L 1132.14 252.131 L 1132.14 264.531 L 1134.92 264.531 L 1134.92 266.131 L 1127.16 266.131 L 1127.16 264.531 " fill="#000000"/>
<path class="note" d="M 1141.32 266.291 Q 1138.72 266.291, 1137.42 264.371 Q 1136.14 262.451, 1136.14 259.031 Q 1136.14 255.611, 1137.42 253.711 Q 1138.7 251.811, 1141.32 251.811 Q 1143.94 251.811, 1145.22 253.711 Q 1146.5 255.611, 1146.5 259.031 Q 1146.5 262.451, 1145.2 264.371 Q 1143.92 266.291, 1141.32 266.291 M 1141.32 264.691 Q 1142.86 264.691, 1143.68 263.271 Q 1144.5 261.831, 1144.5 259.031 Q 1144.5 256.251, 1143.68 254.831 Q 1142.86 253.411, 1141.32 253.411 Q 1139.8 253.411, 1138.96 254.831 Q 1138.14 256.251, 1138.14 259.031 Q 1138.14 261.831, 1138.96 263.271 Q 1139.8 264.691, 1141.32 264.691 " fill="#000000"/>
<path class="note" d="M 1061.15 347.362 L 1064.25 347.362 L 1064.25 336.782 L 1060.83 337.842 L 1060.37 336.662 L 1064.71 334.722 L 1066.13 334.962 L 1066.13 347.362 L 1068.91 347.362 L 1068.91 348.962 L 1061.15 348.962 L 1061.15 347.362 " fill="#000000"/>
<path class="note" d="M 1070.77 347.362 L 1073.87 347.362 L 1073.87 336.782 L 1070.45 337.842 L 1069.99 336.662 L 1074.33 334.722 L 1075.75 334.962 L 1075.75 347.362 L 1078.53 347.362 L 1078.53 348.962 L 1070.77 348.962 L 1070.77 347.362 " fill="#000000"/>
<path class="note" d="M 926.725 347.402 L 929.825 347.402 L 929.825 336.822 L 926.405 337.882 L 925.945 336.702 L 930.285 334.762 L 931.705 335.002 L 931.705 347.402 L 934.485 347.402 L 934.485 349.002 L 926.725 349.002 L 926.725 347.402 " fill="#000000"/>
<path class="note" d="M 935.525 337.522 Q 936.045 336.182, 937.285 335.442 Q 938.525 334.682, 940.245 334.682 Q 942.385 334.682, 943.585 335.842 Q 944.785 337.002, 944.785 339.062 Q 944.785 341.162, 943.225 343.122 Q 941.685 345.082, 938.485 347.402 L 945.025 347.402 L 945.025 349.002 L 935.485 349.002 L 935.485 347.662 Q 938.125 345.782, 939.685 344.382 Q 941.265 342.982, 942.025 341.722 Q 942.785 340.462, 942.785 339.162 Q 942.785 337.802, 942.105 337.042 Q 941.425 336.282, 940.245 336.282 Q 939.105 336.282, 938.345 336.742 Q 937.585 337.202, 937.045 338.222 L 935.525 337.522 " fill="#000000"/>
<path class="note" d="M 859.831 231.382 L 862.931 231.382 L 862.931 220.802 L 859.511 221.862 L 859.051 220.682 L 863.391 218.742 L 864.811 218.982 L 864.811 231.382 L 867.591 231.382 L 867.591 232.982 L 859.831 232.982 L 859.831 231.382 " fill="#000000"/>
<path class="note" d="M 875.231 225.522 Q 876.611 225.922, 877.271 226.822 Q 877.951 227.702, 877.951 229.102 Q 877.951 230.302, 877.351 231.242 Q 876.751 232.162, 875.651 232.682 Q 874.551 233.182, 873.111 233.182 Q 871.591 233.182, 870.451 232.662 Q 869.331 232.122, 868.431 231.042 L 869.571 229.882 Q 870.451 230.842, 871.191 231.222 Q 871.931 231.582, 873.111 231.582 Q 874.391 231.582, 875.171 230.902 Q 875.951 230.202, 875.951 229.082 Q 875.951 227.642, 875.131 227.002 Q 874.331 226.342, 872.591 226.342 L 871.571 226.342 L 871.571 224.902 L 872.471 224.902 Q 874.011 224.882, 874.831 224.222 Q 875.651 223.542, 875.651 222.282 Q 875.651 221.362, 874.971 220.822 Q 874.291 220.262, 873.131 220.262 Q 871.951 220.262, 871.211 220.682 Q 870.491 221.102, 869.931 222.162 L 868.551 221.422 Q 869.051 220.242, 870.251 219.462 Q 871.451 218.662, 873.131 218.662 Q 875.211 218.662, 876.431 219.642 Q 877.651 220.622, 877.651 222.282 Q 877.651 223.422, 877.031 224.242 Q 876.411 225.062, 875.231 225.522 " fill="#000000"/>
<path class="note" d="M 926.245 115.322 L 929.345 115.322 L 929.345 104.742 L 925.925 105.802 L 925.465 104.622 L 929.805 102.682 L 931.225 102.922 L 931.225 115.322 L 934.005 115.322 L 934.005 116.922 L 926.245 116.922 L 926.245 115.322 " fill="#000000"/>
<path class="note" d="M 943.805 112.062 L 945.505 112.062 L 945.505 113.662 L 943.805 113.662 L 943.805 116.922 L 941.925 116.922 L 941.925 113.662 L 934.605 113.662 L 934.605 112.402 L 940.805 102.762 L 943.805 102.762 L 943.805 112.062 M 936.925 112.062 L 941.925 112.062 L 941.925 104.042 L 936.925 112.062 " fill="#000000"/>
<path class="note" d="M 1060.71 115.322 L 1063.81 115.322 L 1063.81 104.742 L 1060.39 105.802 L 1059.93 104.622 L 1064.27 102.682 L 1065.69 102.922 L 1065.69 115.322 L 1068.47 115.322 L 1068.47 116.922 L 1060.71 116.922 L 1060.71 115.322 " fill="#000000"/>
<path class="note" d="M 1074.53 108.062 Q 1075.77 108.062, 1076.79 108.602 Q 1077.81 109.122, 1078.39 110.122 Q 1078.97 111.102, 1078.97 112.442 Q 1078.97 113.902, 1078.25 114.962 Q 1077.55 116.002, 1076.39 116.542 Q 1075.23 117.082, 1073.91 117.082 Q 1072.61 117.082, 1071.41 116.602 Q 1070.21 116.122, 1069.39 115.202 L 1070.59 113.962 Q 1071.25 114.682, 1072.15 115.082 Q 1073.05 115.462, 1073.97 115.462 Q 1075.23 115.462, 1076.09 114.682 Q 1076.97 113.902, 1076.97 112.482 Q 1076.97 110.982, 1076.09 110.282 Q 1075.23 109.562, 1073.85 109.562 Q 1072.61 109.562, 1071.23 110.102 L 1070.13 109.582 L 1070.81 102.762 L 1078.09 102.762 L 1077.89 104.362 L 1072.45 104.362 L 1072.03 108.562 Q 1073.29 108.062, 1074.53 108.062 " fill="#000000"/>
<path class="note" d="M 1796.8 137.478 L 1798.5 137.478 L 1798.5 139.078 L 1796.8 139.078 L 1796.8 142.338 L 1794.92 142.338 L 1794.92 139.078 L 1787.6 139.078 L 1787.6 137.818 L 1793.8 128.178 L 1796.8 128.178 L 1796.8 137.478 M 1789.92 137.478 L 1794.92 137.478 L 1794.92 129.458 L 1789.92 137.478 " fill="#000000"/>
<path class="note" d="M 1661.11 193.105 L 1664.21 193.105 L 1664.21 182.525 L 1660.79 183.585 L 1660.33 182.405 L 1664.67 180.465 L 1666.09 180.705 L 1666.09 193.105 L 1668.87 193.105 L 1668.87 194.705 L 1661.11 194.705 L 1661.11 193.105 " fill="#000000"/>
<path class="note" d="M 1675.77 185.865 Q 1677.01 185.865, 1677.99 186.405 Q 1678.97 186.945, 1679.51 187.925 Q 1680.05 188.905, 1680.05 190.145 Q 1680.05 191.525, 1679.43 192.605 Q 1678.83 193.665, 1677.75 194.265 Q 1676.67 194.865, 1675.29 194.865 Q 1672.77 194.865, 1671.49 193.165 Q 1670.23 191.445, 1670.23 188.045 Q 1670.23 184.285, 1671.79 182.345 Q 1673.37 180.385, 1676.39 180.385 Q 1677.27 180.385, 1678.01 180.585 Q 1678.77 180.785, 1679.49 181.205 L 1678.71 182.545 Q 1677.67 181.985, 1676.41 181.985 Q 1674.41 181.985, 1673.39 183.285 Q 1672.37 184.565, 1672.25 187.225 Q 1672.97 186.565, 1673.87 186.225 Q 1674.79 185.865, 1675.77 185.865 M 1675.31 193.225 Q 1676.07 193.225, 1676.69 192.825 Q 1677.33 192.425, 1677.69 191.725 Q 1678.05 191.025, 1678.05 190.165 Q 1678.05 188.905, 1677.35 188.185 Q 1676.65 187.465, 1675.41 187.465 Q 1674.55 187.465, 1673.69 187.825 Q 1672.85 188.165, 1672.25 188.765 Q 1672.33 191.105, 1673.07 192.165 Q 1673.81 193.225, 1675.31 193.225 " fill="#000000"/>
<path class="note" d="M 1529.23 154.789 L 1532.33 154.789 L 1532.33 144.209 L 1528.91 145.269 L 1528.45 144.089 L 1532.79 142.149 L 1534.21 142.389 L 1534.21 154.789 L 1536.99 154.789 L 1536.99 156.389 L 1529.23 156.389 L 1529.23 154.789 " fill="#000000"/>
<path class="note" d="M 1544.77 143.829 L 1537.35 143.829 L 1537.35 142.229 L 1546.75 142.229 L 1546.75 143.649 L 1541.03 156.389 L 1539.11 156.389 L 1544.77 143.829 " fill="#000000"/>
<path class="note" d="M 1661.08 384.489 L 1664.18 384.489 L 1664.18 373.909 L 1660.76 374.969 L 1660.3 373.789 L 1664.64 371.849 L 1666.06 372.089 L 1666.06 384.489 L 1668.84 384.489 L 1668.84 386.089 L 1661.08 386.089 L 1661.08 384.489 " fill="#000000"/>
<path class="note" d="M 1677.3 378.589 Q 1678.6 379.149, 1679.34 379.989 Q 1680.08 380.809, 1680.08 382.209 Q 1680.08 383.409, 1679.46 384.349 Q 1678.84 385.269, 1677.72 385.789 Q 1676.62 386.289, 1675.16 386.289 Q 1672.8 386.289, 1671.44 385.209 Q 1670.08 384.109, 1670.08 382.209 Q 1670.08 381.049, 1670.68 380.189 Q 1671.28 379.309, 1672.52 378.649 Q 1671.6 378.129, 1671.1 377.369 Q 1670.6 376.589, 1670.6 375.389 Q 1670.6 373.729, 1671.8 372.749 Q 1673.02 371.769, 1675.08 371.769 Q 1677.14 371.769, 1678.34 372.749 Q 1679.56 373.729, 1679.56 375.389 Q 1679.56 376.429, 1678.98 377.209 Q 1678.42 377.969, 1677.3 378.589 M 1675.08 373.269 Q 1673.9 373.269, 1673.24 373.829 Q 1672.6 374.389, 1672.6 375.389 Q 1672.6 376.129, 1673.04 376.629 Q 1673.48 377.109, 1674.1 377.389 Q 1674.74 377.669, 1675.96 378.089 Q 1676.82 377.489, 1677.18 376.849 Q 1677.56 376.209, 1677.56 375.389 Q 1677.56 374.389, 1676.9 373.829 Q 1676.26 373.269, 1675.08 373.269 M 1675.16 384.789 Q 1676.48 384.789, 1677.28 384.089 Q 1678.08 383.369, 1678.08 382.189 Q 1678.08 381.429, 1677.66 380.949 Q 1677.24 380.469, 1676.6 380.189 Q 1675.98 379.909, 1674.86 379.549 L 1673.96 379.249 Q 1672.96 379.849, 1672.52 380.569 Q 1672.08 381.269, 1672.08 382.189 Q 1672.08 383.369, 1672.92 384.089 Q 1673.76 384.789, 1675.16 384.789 " fill="#000000"/>
<path class="note" d="M 2426.45 305.331 L 2429.55 305.331 L 2429.55 294.751 L 2426.13 295.811 L 2425.67 294.631 L 2430.01 292.691 L 2431.43 292.931 L 2431.43 305.331 L 2434.21 305.331 L 2434.21 306.931 L 2426.45 306.931 L 2426.45 305.331 " fill="#000000"/>
<path class="note" d="M 2505.52 204.928 Q 2506.04 203.588, 2507.28 202.848 Q 2508.52 202.088, 2510.24 202.088 Q 2512.38 202.088, 2513.58 203.248 Q 2514.78 204.408, 2514.78 206.468 Q 2514.78 208.568, 2513.22 210.528 Q 2511.68 212.488, 2508.48 214.808 L 2515.02 214.808 L 2515.02 216.408 L 2505.48 216.408 L 2505.48 215.068 Q 2508.12 213.188, 2509.68 211.788 Q 2511.26 210.388, 2512.02 209.128 Q 2512.78 207.868, 2512.78 206.568 Q 2512.78 205.208, 2512.1 204.448 Q 2511.42 203.688, 2510.24 203.688 Q 2509.1 203.688, 2508.34 204.148 Q 2507.58 204.608, 2507.04 205.628 L 2505.52 204.928 " fill="#000000"/>
<path class="note" d="M 2654.45 302.075 Q 2655.83 302.475, 2656.49 303.375 Q 2657.17 304.255, 2657.17 305.655 Q 2657.17 306.855, 2656.57 307.795 Q 2655.97 308.715, 2654.87 309.235 Q 2653.77 309.735, 2652.33 309.735 Q 2650.81 309.735, 2649.67 309.215 Q 2648.55 308.675, 2647.65 307.595 L 2648.79 306.435 Q 2649.67 307.395, 2650.41 307.775 Q 2651.15 308.135, 2652.33 308.135 Q 2653.61 308.135, 2654.39 307.455 Q 2655.17 306.755, 2655.17 305.635 Q 2655.17 304.195, 2654.35 303.555 Q 2653.55 302.895, 2651.81 302.895 L 2650.79 302.895 L 2650.79 301.455 L 2651.69 301.455 Q 2653.23 301.435, 2654.05 300.775 Q 2654.87 300.095, 2654.87 298.835 Q 2654.87 297.915, 2654.19 297.375 Q 2653.51 296.815, 2652.35 296.815 Q 2651.17 296.815, 2650.43 297.235 Q 2649.71 297.655, 2649.15 298.715 L 2647.77 297.975 Q 2648.27 296.795, 2649.47 296.015 Q 2650.67 295.215, 2652.35 295.215 Q 2654.43 295.215, 2655.65 296.195 Q 2656.87 297.175, 2656.87 298.835 Q 2656.87 299.975, 2656.25 300.795 Q 2655.63 301.615, 2654.45 302.075 " fill="#000000"/>
<path class="note" d="M 2523.57 74.9351 L 2525.27 74.9351 L 2525.27 76.5351 L 2523.57 76.5351 L 2523.57 79.7951 L 2521.69 79.7951 L 2521.69 76.5351 L 2514.37 76.5351 L 2514.37 75.2751 L 2520.57 65.6351 L 2523.57 65.6351 L 2523.57 74.9351 M 2516.69 74.9351 L 2521.69 74.9351 L 2521.69 66.9151 L 2516.69 74.9351 " fill="#000000"/>
<path class="note" d="M 2901.21 298.031 Q 2902.45 298.031, 2903.47 298.571 Q 2904.49 299.091, 2905.07 300.091 Q 2905.65 301.071, 2905.65 302.411 Q 2905.65 303.871, 2904.93 304.931 Q 2904.23 305.971, 2903.07 306.511 Q 2901.91 307.051, 2900.59 307.051 Q 2899.29 307.051, 2898.09 306.571 Q 2896.89 306.091, 2896.07 305.171 L 2897.27 303.931 Q 2897.93 304.651, 2898.83 305.051 Q 2899.73 305.431, 2900.65 305.431 Q 2901.91 305.431, 2902.77 304.651 Q 2903.65 303.871, 2903.65 302.451 Q 2903.65 300.951, 2902.77 300.251 Q 2901.91 299.531, 2900.53 299.531 Q 2899.29 299.531, 2897.91 300.071 L 2896.81 299.551 L 2897.49 292.731 L 2904.77 292.731 L 2904.57 294.331 L 2899.13 294.331 L 2898.71 298.531 Q 2899.97 298.031, 2901.21 298.031 " fill="#000000"/>
<path class="note" d="M 2981.8 207.568 Q 2983.04 207.568, 2984.02 208.108 Q 2985 208.648, 2985.54 209.628 Q 2986.08 210.608, 2986.08 211.848 Q 2986.08 213.228, 2985.46 214.308 Q 2984.86 215.368, 2983.78 215.968 Q 2982.7 216.568, 2981.32 216.568 Q 2978.8 216.568, 2977.52 214.868 Q 2976.26 213.148, 2976.26 209.748 Q 2976.26 205.988, 2977.82 204.048 Q 2979.4 202.088, 2982.42 202.088 Q 2983.3 202.088, 2984.04 202.288 Q 2984.8 202.488, 2985.52 202.908 L 2984.74 204.248 Q 2983.7 203.688, 2982.44 203.688 Q 2980.44 203.688, 2979.42 204.988 Q 2978.4 206.268, 2978.28 208.928 Q 2979 208.268, 2979.9 207.928 Q 2980.82 207.568, 2981.8 207.568 M 2981.34 214.928 Q 2982.1 214.928, 2982.72 214.528 Q 2983.36 214.128, 2983.72 213.428 Q 2984.08 212.728, 2984.08 211.868 Q 2984.08 210.608, 2983.38 209.888 Q 2982.68 209.168, 2981.44 209.168 Q 2980.58 209.168, 2979.72 209.528 Q 2978.88 209.868, 2978.28 210.468 Q 2978.36 212.808, 2979.1 213.868 Q 2979.84 214.928, 2981.34 214.928 " fill="#000000"/>
<path class="note" d="M 3126.05 296.895 L 3118.63 296.895 L 3118.63 295.295 L 3128.03 295.295 L 3128.03 296.715 L 3122.31 309.455 L 3120.39 309.455 L 3126.05 296.895 " fill="#000000"/>
<path class="note" d="M 2992.96 72.3751 Q 2994.26 72.9351, 2995 73.7751 Q 2995.74 74.5951, 2995.74 75.9951 Q 2995.74 77.1951, 2995.12 78.1351 Q 2994.5 79.0551, 2993.38 79.5751 Q 2992.28 80.0751, 2990.82 80.0751 Q 2988.46 80.0751, 2987.1 78.9951 Q 2985.74 77.8951, 2985.74 75.9951 Q 2985.74 74.8351, 2986.34 73.9751 Q 2986.94 73.0951, 2988.18 72.4351 Q 2987.26 71.9151, 2986.76 71.1551 Q 2986.26 70.3751, 2986.26 69.1751 Q 2986.26 67.5151, 2987.46 66.5351 Q 2988.68 65.5551, 2990.74 65.5551 Q 2992.8 65.5551, 2994 66.5351 Q 2995.22 67.5151, 2995.22 69.1751 Q 2995.22 70.2151, 2994.64 70.9951 Q 2994.08 71.7551, 2992.96 72.3751 M 2990.74 67.0551 Q 2989.56 67.0551, 2988.9 67.6151 Q 2988.26 68.1751, 2988.26 69.1751 Q 2988.26 69.9151, 2988.7 70.4151 Q 2989.14 70.8951, 2989.76 71.1751 Q 2990.4 71.4551, 2991.62 71.8751 Q 2992.48 71.2751, 2992.84 70.6351 Q 2993.22 69.9951, 2993.22 69.1751 Q 2993.22 68.1751, 2992.56 67.6151 Q 2991.92 67.0551, 2990.74 67.0551 M 2990.82 78.5751 Q 2992.14 78.5751, 2992.94 77.8751 Q 2993.74 77.1551, 2993.74 75.9751 Q 2993.74 75.2151, 2993.32 74.7351 Q 2992.9 74.2551, 2992.26 73.9751 Q 2991.64 73.6951, 2990.52 73.3351 L 2989.62 73.0351 Q 2988.62 73.6351, 2988.18 74.3551 Q 2987.74 75.0551, 2987.74 75.9751 Q 2987.74 77.1551, 2988.58 77.8751 Q 2989.42 78.5751, 2990.82 78.5751 " fill="#000000"/>
<path class="note" d="M 3642.96 428.442 Q 3645.48 428.442, 3646.74 430.162 Q 3648.02 431.862, 3648.02 435.262 Q 3648.02 439.022, 3646.44 440.982 Q 3644.88 442.922, 3641.86 442.922 Q 3640.98 442.922, 3640.22 442.722 Q 3639.48 442.522, 3638.76 442.102 L 3639.54 440.762 Q 3640.58 441.322, 3641.84 441.322 Q 3643.84 441.322, 3644.86 440.042 Q 3645.88 438.742, 3646 436.082 Q 3645.28 436.742, 3644.36 437.102 Q 3643.46 437.442, 3642.48 437.442 Q 3641.24 437.442, 3640.26 436.902 Q 3639.28 436.362, 3638.74 435.382 Q 3638.2 434.402, 3638.2 433.162 Q 3638.2 431.782, 3638.8 430.722 Q 3639.42 429.642, 3640.5 429.042 Q 3641.58 428.442, 3642.96 428.442 M 3640.2 433.142 Q 3640.2 434.402, 3640.9 435.122 Q 3641.6 435.842, 3642.84 435.842 Q 3643.7 435.842, 3644.54 435.502 Q 3645.4 435.142, 3646 434.542 Q 3645.92 432.202, 3645.18 431.142 Q 3644.44 430.082, 3642.94 430.082 Q 3642.18 430.082, 3641.54 430.482 Q 3640.92 430.882, 3640.56 431.582 Q 3640.2 432.282, 3640.2 433.142 " fill="#000000"/>
<path class="note" d="M 3537.74 329.594 L 3540.84 329.594 L 3540.84 319.014 L 3537.42 320.074 L 3536.96 318.894 L 3541.3 316.954 L 3542.72 317.194 L 3542.72 329.594 L 3545.5 329.594 L 3545.5 331.194 L 3537.74 331.194 L 3537.74 329.594 " fill="#000000"/>
<path class="note" d="M 3551.9 331.354 Q 3549.3 331.354, 3548 329.434 Q 3546.72 327.514, 3546.72 324.094 Q 3546.72 320.674, 3548 318.774 Q 3549.28 316.874, 3551.9 316.874 Q 3554.52 316.874, 3555.8 318.774 Q 3557.08 320.674, 3557.08 324.094 Q 3557.08 327.514, 3555.78 329.434 Q 3554.5 331.354, 3551.9 331.354 M 3551.9 329.754 Q 3553.44 329.754, 3554.26 328.334 Q 3555.08 326.894, 3555.08 324.094 Q 3555.08 321.314, 3554.26 319.894 Q 3553.44 318.474, 3551.9 318.474 Q 3550.38 318.474, 3549.54 319.894 Q 3548.72 321.314, 3548.72 324.094 Q 3548.72 326.894, 3549.54 328.334 Q 3550.38 329.754, 3551.9 329.754 " fill="#000000"/>
<path class="note" d="M 3424.03 335.298 L 3427.13 335.298 L 3427.13 324.718 L 3423.71 325.778 L 3423.25 324.598 L 3427.59 322.658 L 3429.01 322.898 L 3429.01 335.298 L 3431.79 335.298 L 3431.79 336.898 L 3424.03 336.898 L 3424.03 335.298 " fill="#000000"/>
<path class="note" d="M 3433.65 335.298 L 3436.75 335.298 L 3436.75 324.718 L 3433.33 325.778 L 3432.87 324.598 L 3437.21 322.658 L 3438.63 322.898 L 3438.63 335.298 L 3441.41 335.298 L 3441.41 336.898 L 3433.65 336.898 L 3433.65 335.298 " fill="#000000"/>
<path class="note" d="M 3350.87 222.813 L 3353.97 222.813 L 3353.97 212.233 L 3350.55 213.293 L 3350.09 212.113 L 3354.43 210.173 L 3355.85 210.413 L 3355.85 222.813 L 3358.63 222.813 L 3358.63 224.413 L 3350.87 224.413 L 3350.87 222.813 " fill="#000000"/>
<path class="note" d="M 3359.67 212.933 Q 3360.19 211.593, 3361.43 210.853 Q 3362.67 210.093, 3364.39 210.093 Q 3366.53 210.093, 3367.73 211.253 Q 3368.93 212.413, 3368.93 214.473 Q 3368.93 216.573, 3367.37 218.533 Q 3365.83 220.493, 3362.63 222.813 L 3369.17 222.813 L 3369.17 224.413 L 3359.63 224.413 L 3359.63 223.073 Q 3362.27 221.193, 3363.83 219.793 Q 3365.41 218.393, 3366.17 217.133 Q 3366.93 215.873, 3366.93 214.573 Q 3366.93 213.213, 3366.25 212.453 Q 3365.57 211.693, 3364.39 211.693 Q 3363.25 211.693, 3362.49 212.153 Q 3361.73 212.613, 3361.19 213.633 L 3359.67 212.933 " fill="#000000"/>
<path class="note" d="M 3412.06 103.588 L 3415.16 103.588 L 3415.16 93.0077 L 3411.74 94.0677 L 3411.28 92.8877 L 3415.62 90.9477 L 3417.04 91.1877 L 3417.04 103.588 L 3419.82 103.588 L 3419.82 105.188 L 3412.06 105.188 L 3412.06 103.588 " fill="#000000"/>
<path class="note" d="M 3427.46 97.7277 Q 3428.84 98.1277, 3429.5 99.0277 Q 3430.18 99.9077, 3430.18 101.308 Q 3430.18 102.508, 3429.58 103.448 Q 3428.98 104.368, 3427.88 104.888 Q 3426.78 105.388, 3425.34 105.388 Q 3423.82 105.388, 3422.68 104.868 Q 3421.56 104.328, 3420.66 103.248 L 3421.8 102.088 Q 3422.68 103.048, 3423.42 103.428 Q 3424.16 103.788, 3425.34 103.788 Q 3426.62 103.788, 3427.4 103.108 Q 3428.18 102.408, 3428.18 101.288 Q 3428.18 99.8477, 3427.36 99.2077 Q 3426.56 98.5477, 3424.82 98.5477 L 3423.8 98.5477 L 3423.8 97.1077 L 3424.7 97.1077 Q 3426.24 97.0877, 3427.06 96.4277 Q 3427.88 95.7477, 3427.88 94.4877 Q 3427.88 93.5677, 3427.2 93.0277 Q 3426.52 92.4677, 3425.36 92.4677 Q 3424.18 92.4677, 3423.44 92.8877 Q 3422.72 93.3077, 3422.16 94.3677 L 3420.78 93.6277 Q 3421.28 92.4477, 3422.48 91.6677 Q 3423.68 90.8677, 3425.36 90.8677 Q 3427.44 90.8677, 3428.66 91.8477 Q 3429.88 92.8277, 3429.88 94.4877 Q 3429.88 95.6277, 3429.26 96.4477 Q 3428.64 97.2677, 3427.46 97.7277 " fill="#000000"/>
<path class="note" d="M 3545.29 96.8472 L 3548.39 96.8472 L 3548.39 86.2672 L 3544.97 87.3272 L 3544.51 86.1472 L 3548.85 84.2072 L 3550.27 84.4472 L 3550.27 96.8472 L 3553.05 96.8472 L 3553.05 98.4472 L 3545.29 98.4472 L 3545.29 96.8472 " fill="#000000"/>
<path class="note" d="M 3562.85 93.5872 L 3564.55 93.5872 L 3564.55 95.1872 L 3562.85 95.1872 L 3562.85 98.4472 L 3560.97 98.4472 L 3560.97 95.1872 L 3553.65 95.1872 L 3553.65 93.9272 L 3559.85 84.2872 L 3562.85 84.2872 L 3562.85 93.5872 M 3555.97 93.5872 L 3560.97 93.5872 L 3560.97 85.5672 L 3555.97 93.5872 " fill="#000000"/>
<path class="note" d="M 3616.83 176.265 L 3619.93 176.265 L 3619.93 165.685 L 3616.51 166.745 L 3616.05 165.565 L 3620.39 163.625 L 3621.81 163.865 L 3621.81 176.265 L 3624.59 176.265 L 3624.59 177.865 L 3616.83 177.865 L 3616.83 176.265 " fill="#000000"/>
<path class="note" d="M 3630.65 169.005 Q 3631.89 169.005, 3632.91 169.545 Q 3633.93 170.065, 3634.51 171.065 Q 3635.09 172.045, 3635.09 173.385 Q 3635.09 174.845, 3634.37 175.905 Q 3633.67 176.945, 3632.51 177.485 Q 3631.35 178.025, 3630.03 178.025 Q 3628.73 178.025, 3627.53 177.545 Q 3626.33 177.065, 3625.51 176.145 L 3626.71 174.905 Q 3627.37 175.625, 3628.27 176.025 Q 3629.17 176.405, 3630.09 176.405 Q 3631.35 176.405, 3632.21 175.625 Q 3633.09 174.845, 3633.09 173.425 Q 3633.09 171.925, 3632.21 171.225 Q 3631.35 170.505, 3629.97 170.505 Q 3628.73 170.505, 3627.35 171.045 L 3626.25 170.525 L 3626.93 163.705 L 3634.21 163.705 L 3634.01 165.305 L 3628.57 165.305 L 3628.15 169.505 Q 3629.41 169.005, 3630.65 169.005 " fill="#000000"/>
<path class="note" d="M 3692.95 172.476 L 3696.05 172.476 L 3696.05 161.896 L 3692.63 162.956 L 3692.17 161.776 L 3696.51 159.836 L 3697.93 160.076 L 3697.93 172.476 L 3700.71 172.476 L 3700.71 174.076 L 3692.95 174.076 L 3692.95 172.476 " fill="#000000"/>
<path class="note" d="M 3707.61 165.236 Q 3708.85 165.236, 3709.83 165.776 Q 3710.81 166.316, 3711.35 167.296 Q 3711.89 168.276, 3711.89 169.516 Q 3711.89 170.896, 3711.27 171.976 Q 3710.67 173.036, 3709.59 173.636 Q 3708.51 174.236, 3707.13 174.236 Q 3704.61 174.236, 3703.33 172.536 Q 3702.07 170.816, 3702.07 167.416 Q 3702.07 163.656, 3703.63 161.716 Q 3705.21 159.756, 3708.23 159.756 Q 3709.11 159.756, 3709.85 159.956 Q 3710.61 160.156, 3711.33 160.576 L 3710.55 161.916 Q 3709.51 161.356, 3708.25 161.356 Q 3706.25 161.356, 3705.23 162.656 Q 3704.21 163.936, 3704.09 166.596 Q 3704.81 165.936, 3705.71 165.596 Q 3706.63 165.236, 3707.61 165.236 M 3707.15 172.596 Q 3707.91 172.596, 3708.53 172.196 Q 3709.17 171.796, 3709.53 171.096 Q 3709.89 170.396, 3709.89 169.536 Q 3709.89 168.276, 3709.19 167.556 Q 3708.49 166.836, 3707.25 166.836 Q 3706.39 166.836, 3705.53 167.196 Q 3704.69 167.536, 3704.09 168.136 Q 3704.17 170.476, 3704.91 171.536 Q 3705.65 172.596, 3707.15 172.596 " fill="#000000"/>
<path class="note" d="M 3784.26 68.3283 L 3787.36 68.3283 L 3787.36 57.7483 L 3783.94 58.8083 L 3783.48 57.6283 L 3787.82 55.6883 L 3789.24 55.9283 L 3789.24 68.3283 L 3792.02 68.3283 L 3792.02 69.9283 L 3784.26 69.9283 L 3784.26 68.3283 " fill="#000000"/>
<path class="note" d="M 3799.8 57.3683 L 3792.38 57.3683 L 3792.38 55.7683 L 3801.78 55.7683 L 3801.78 57.1883 L 3796.06 69.9283 L 3794.14 69.9283 L 3799.8 57.3683 " fill="#000000"/>
<path class="note" d="M 3796.78 333.225 L 3799.88 333.225 L 3799.88 322.645 L 3796.46 323.705 L 3796 322.525 L 3800.34 320.585 L 3801.76 320.825 L 3801.76 333.225 L 3804.54 333.225 L 3804.54 334.825 L 3796.78 334.825 L 3796.78 333.225 " fill="#000000"/>
<path class="note" d="M 3813 327.325 Q 3814.3 327.885, 3815.04 328.725 Q 3815.78 329.545, 3815.78 330.945 Q 3815.78 332.145, 3815.16 333.085 Q 3814.54 334.005, 3813.42 334.525 Q 3812.32 335.025, 3810.86 335.025 Q 3808.5 335.025, 3807.14 333.945 Q 3805.78 332.845, 3805.78 330.945 Q 3805.78 329.785, 3806.38 328.925 Q 3806.98 328.045, 3808.22 327.385 Q 3807.3 326.865, 3806.8 326.105 Q 3806.3 325.325, 3806.3 324.125 Q 3806.3 322.465, 3807.5 321.485 Q 3808.72 320.505, 3810.78 320.505 Q 3812.84 320.505, 3814.04 321.485 Q 3815.26 322.465, 3815.26 324.125 Q 3815.26 325.165, 3814.68 325.945 Q 3814.12 326.705, 3813 327.325 M 3810.78 322.005 Q 3809.6 322.005, 3808.94 322.565 Q 3808.3 323.125, 3808.3 324.125 Q 3808.3 324.865, 3808.74 325.365 Q 3809.18 325.845, 3809.8 326.125 Q 3810.44 326.405, 3811.66 326.825 Q 3812.52 326.225, 3812.88 325.585 Q 3813.26 324.945, 3813.26 324.125 Q 3813.26 323.125, 3812.6 322.565 Q 3811.96 322.005, 3810.78 322.005 M 3810.86 333.525 Q 3812.18 333.525, 3812.98 332.825 Q 3813.78 332.105, 3813.78 330.925 Q 3813.78 330.165, 3813.36 329.685 Q 3812.94 329.205, 3812.3 328.925 Q 3811.68 328.645, 3810.56 328.285 L 3809.66 327.985 Q 3808.66 328.585, 3808.22 329.305 Q 3807.78 330.005, 3807.78 330.925 Q 3807.78 332.105, 3808.62 332.825 Q 3809.46 333.525, 3810.86 333.525 " fill="#000000"/>
<path d="M 728.881 251.797 L 734.929 251.797 L 734.929 245.429 L 737.617 245.429 L 737.617 251.797 L 743.825 251.797 L 743.825 254.101 L 737.617 254.101 L 737.617 260.501 L 734.929 260.501 L 734.929 254.101 L 728.881 254.101 L 728.881 251.797 " fill="#000000"/>
<path d="M 1408.59 251.797 L 1414.64 251.797 L 1414.64 245.429 L 1417.33 245.429 L 1417.33 251.797 L 1423.53 251.797 L 1423.53 254.101 L 1417.33 254.101 L 1417.33 260.501 L 1414.64 260.501 L 1414.64 254.101 L 1408.59 254.101 L 1408.59 251.797 " fill="#000000"/>
<path d="M 2750.03 251.797 L 2756.08 251.797 L 2756.08 245.429 L 2758.77 245.429 L 2758.77 251.797 L 2764.98 251.797 L 2764.98 254.101 L 2758.77 254.101 L 2758.77 260.501 L 2756.08 260.501 L 2756.08 254.101 L 2750.03 254.101 L 2750.03 251.797 " fill="#000000"/>
<path d="M 3219.57 251.797 L 3225.62 251.797 L 3225.62 245.429 L 3228.31 245.429 L 3228.31 251.797 L 3234.52 251.797 L 3234.52 254.101 L 3228.31 254.101 L 3228.31 260.501 L 3225.62 260.501 L 3225.62 254.101 L 3219.57 254.101 L 3219.57 251.797 " fill="#000000"/>
<path d="M 1944.12,254.101 L 2250.33,254.101" style="fill:none;fill-rule:evenodd;stroke:#000000;stroke-width:2.0px;stroke-linecap:butt;stroke-linejoin:miter;stroke-opacity:1"/>
<path d="M 2250.33,254.101 L 2237.07,246.446" style="fill:none;fill-rule:evenodd;stroke:#000000;stroke-width:2.0px;stroke-linecap:butt;stroke-linejoin:miter;stroke-opacity:1"/>
<path d="M 2250.33,254.101 L 2237.07,261.756" style="fill:none;fill-rule:evenodd;stroke:#000000;stroke-width:2.0px;stroke-linecap:butt;stroke-linejoin:miter;stroke-opacity:1"/>
</svg>