<svg xmlns="http://www.w3.org/2000/svg" xmlns:rdkit="http://www.rdkit.org/xml" xmlns:xlink="http://www.w3.org/1999/xlink" version="1.1" baseProfile="full" xml:space="preserve" width="4000px" height="500px" viewBox="0 0 4000 500">
<!-- END OF HEADER -->
<rect style="opacity:1.0;fill:#FFFFFF;stroke:none" width="4000" height="500" x="0" y="0"> </rect>
<path d="M 498.424,183.152 L 604.445,244.363" style="fill:none;fill-rule:evenodd;stroke:#FFFFAA;stroke-width:26.1px;stroke-linecap:butt;stroke-linejoin:miter;stroke-opacity:1"/>
<path d="M 604.445,244.363 L 604.445,366.786" style="fill:none;fill-rule:evenodd;stroke:#FFFFAA;stroke-width:26.1px;stroke-linecap:butt;stroke-linejoin:miter;stroke-opacity:1"/>
<path d="M 604.445,244.363 L 710.466,183.152" style="fill:none;fill-rule:evenodd;stroke:#FFFFAA;stroke-width:26.1px;stroke-linecap:butt;stroke-linejoin:miter;stroke-opacity:1"/>
<path d="M 710.466,183.152 L 816.487,244.363" style="fill:none;fill-rule:evenodd;stroke:#FFFFAA;stroke-width:26.1px;stroke-linecap:butt;stroke-linejoin:miter;stroke-opacity:1"/>
<path d="M 816.487,244.363 L 922.508,183.152" style="fill:none;fill-rule:evenodd;stroke:#FFFFAA;stroke-width:26.1px;stroke-linecap:butt;stroke-linejoin:miter;stroke-opacity:1"/>
<path d="M 816.487,244.363 L 816.487,366.786" style="fill:none;fill-rule:evenodd;stroke:#FFFFAA;stroke-width:26.1px;stroke-linecap:butt;stroke-linejoin:miter;stroke-opacity:1"/>
<path d="M 1605.98,61.931 L 1571.99,179.542" style="fill:none;fill-rule:evenodd;stroke:#FFCC99;stroke-width:26.1px;stroke-linecap:butt;stroke-linejoin:miter;stroke-opacity:1"/>
<path d="M 1571.99,179.542 L 1656.86,267.779" style="fill:none;fill-rule:evenodd;stroke:#FFCC99;stroke-width:26.1px;stroke-linecap:butt;stroke-linejoin:miter;stroke-opacity:1"/>
<path d="M 1571.99,179.542 L 1453.15,208.917" style="fill:none;fill-rule:evenodd;stroke:#FFCC99;stroke-width:26.1px;stroke-linecap:butt;stroke-linejoin:miter;stroke-opacity:1"/>
<path d="M 1656.86,267.779 L 1622.87,385.39" style="fill:none;fill-rule:evenodd;stroke:#FFCC99;stroke-width:26.1px;stroke-linecap:butt;stroke-linejoin:miter;stroke-opacity:1"/>
<path d="M 1622.87,385.39 L 1504.03,414.764" style="fill:none;fill-rule:evenodd;stroke:#FFCC99;stroke-width:26.1px;stroke-linecap:butt;stroke-linejoin:miter;stroke-opacity:1"/>
<path d="M 1504.03,414.764 L 1419.16,326.528" style="fill:none;fill-rule:evenodd;stroke:#FFCC99;stroke-width:26.1px;stroke-linecap:butt;stroke-linejoin:miter;stroke-opacity:1"/>
<path d="M 1419.16,326.528 L 1296.81,330.551" style="fill:none;fill-rule:evenodd;stroke:#FFCC99;stroke-width:26.1px;stroke-linecap:butt;stroke-linejoin:miter;stroke-opacity:1"/>
<path d="M 1419.16,326.528 L 1453.15,208.917" style="fill:none;fill-rule:evenodd;stroke:#FFCC99;stroke-width:26.1px;stroke-linecap:butt;stroke-linejoin:miter;stroke-opacity:1"/>
<path d="M 1296.81,330.551 L 1255.17,215.426" style="fill:none;fill-rule:evenodd;stroke:#FFCC99;stroke-width:26.1px;stroke-linecap:butt;stroke-linejoin:miter;stroke-opacity:1"/>
<path d="M 1255.17,215.426 L 1351.79,140.252" style="fill:none;fill-rule:evenodd;stroke:#FFCC99;stroke-width:26.1px;stroke-linecap:butt;stroke-linejoin:miter;stroke-opacity:1"/>
<path d="M 1351.79,140.252 L 1453.15,208.917" style="fill:none;fill-rule:evenodd;stroke:#FFCC99;stroke-width:26.1px;stroke-linecap:butt;stroke-linejoin:miter;stroke-opacity:1"/>
<path d="M 2337.05,314.319 L 2443.07,253.108" style="fill:none;fill-rule:evenodd;stroke:#FFFFAA;stroke-width:26.1px;stroke-linecap:butt;stroke-linejoin:miter;stroke-opacity:1"/>
<path d="M 2443.07,253.108 L 2549.09,314.319" style="fill:none;fill-rule:evenodd;stroke:#FFFFAA;stroke-width:26.1px;stroke-linecap:butt;stroke-linejoin:miter;stroke-opacity:1"/>
<path d="M 2443.07,253.108 L 2443.07,130.685" style="fill:none;fill-rule:evenodd;stroke:#FFFFAA;stroke-width:26.1px;stroke-linecap:butt;stroke-linejoin:miter;stroke-opacity:1"/>
<path d="M 3501.58,137.912 L 3407.82,216.631" style="fill:none;fill-rule:evenodd;stroke:#FFFFAA;stroke-width:26.1px;stroke-linecap:butt;stroke-linejoin:miter;stroke-opacity:1"/>
<path d="M 3407.82,216.631 L 3429.11,337.188" style="fill:none;fill-rule:evenodd;stroke:#FFFFAA;stroke-width:26.1px;stroke-linecap:butt;stroke-linejoin:miter;stroke-opacity:1"/>
<path d="M 3292.77,174.794 L 3199.01,253.513" style="fill:none;fill-rule:evenodd;stroke:#FFCC99;stroke-width:26.1px;stroke-linecap:butt;stroke-linejoin:miter;stroke-opacity:1"/>
<path d="M 3199.01,253.513 L 3220.3,374.069" style="fill:none;fill-rule:evenodd;stroke:#FFCC99;stroke-width:26.1px;stroke-linecap:butt;stroke-linejoin:miter;stroke-opacity:1"/>
<path d="M 3199.01,253.513 L 3083.96,211.675" style="fill:none;fill-rule:evenodd;stroke:#FFCC99;stroke-width:26.1px;stroke-linecap:butt;stroke-linejoin:miter;stroke-opacity:1"/>
<path d="M 3220.3,374.069 L 3126.54,452.788" style="fill:none;fill-rule:evenodd;stroke:#FFCC99;stroke-width:26.1px;stroke-linecap:butt;stroke-linejoin:miter;stroke-opacity:1"/>
<path d="M 3126.54,452.788 L 3011.49,410.951" style="fill:none;fill-rule:evenodd;stroke:#FFCC99;stroke-width:26.1px;stroke-linecap:butt;stroke-linejoin:miter;stroke-opacity:1"/>
<path d="M 3011.49,410.951 L 2990.2,290.394" style="fill:none;fill-rule:evenodd;stroke:#FFCC99;stroke-width:26.1px;stroke-linecap:butt;stroke-linejoin:miter;stroke-opacity:1"/>
<path d="M 2990.2,290.394 L 2886.36,225.551" style="fill:none;fill-rule:evenodd;stroke:#FFCC99;stroke-width:26.1px;stroke-linecap:butt;stroke-linejoin:miter;stroke-opacity:1"/>
<path d="M 2990.2,290.394 L 3083.96,211.675" style="fill:none;fill-rule:evenodd;stroke:#FFCC99;stroke-width:26.1px;stroke-linecap:butt;stroke-linejoin:miter;stroke-opacity:1"/>
<path d="M 2886.36,225.551 L 2915.94,106.756" style="fill:none;fill-rule:evenodd;stroke:#FFCC99;stroke-width:26.1px;stroke-linecap:butt;stroke-linejoin:miter;stroke-opacity:1"/>
<path d="M 2915.94,106.756 L 3038.06,98.1805" style="fill:none;fill-rule:evenodd;stroke:#FFCC99;stroke-width:26.1px;stroke-linecap:butt;stroke-linejoin:miter;stroke-opacity:1"/>
<path d="M 3038.06,98.1805 L 3083.96,211.675" style="fill:none;fill-rule:evenodd;stroke:#FFCC99;stroke-width:26.1px;stroke-linecap:butt;stroke-linejoin:miter;stroke-opacity:1"/>
<ellipse cx="498.424" cy="183.152" rx="24.4845" ry="24.4845" style="fill:#FFFFAA;fill-rule:evenodd;stroke:#FFFFAA;stroke-width:1px;stroke-linecap:butt;stroke-linejoin:miter;stroke-opacity:1"/>
<ellipse cx="604.445" cy="244.363" rx="24.4845" ry="24.4845" style="fill:#FFFFAA;fill-rule:evenodd;stroke:#FFFFAA;stroke-width:1px;stroke-linecap:butt;stroke-linejoin:miter;stroke-opacity:1"/>
<ellipse cx="604.445" cy="367.006" rx="24.4845" ry="24.4845" style="fill:#FFFFAA;fill-rule:evenodd;stroke:#FFFFAA;stroke-width:1px;stroke-linecap:butt;stroke-linejoin:miter;stroke-opacity:1"/>
<ellipse cx="710.466" cy="183.372" rx="24.4845" ry="24.4845" style="fill:#FFFFAA;fill-rule:evenodd;stroke:#FFFFAA;stroke-width:1px;stroke-linecap:butt;stroke-linejoin:miter;stroke-opacity:1"/>
<ellipse cx="816.487" cy="244.363" rx="24.4845" ry="24.4845" style="fill:#FFFFAA;fill-rule:evenodd;stroke:#FFFFAA;stroke-width:1px;stroke-linecap:butt;stroke-linejoin:miter;stroke-opacity:1"/>
<ellipse cx="922.508" cy="183.152" rx="24.4845" ry="24.4845" style="fill:#FFFFAA;fill-rule:evenodd;stroke:#FFFFAA;stroke-width:1px;stroke-linecap:butt;stroke-linejoin:miter;stroke-opacity:1"/>
<ellipse cx="816.487" cy="367.006" rx="24.4845" ry="24.4845" style="fill:#FFFFAA;fill-rule:evenodd;stroke:#FFFFAA;stroke-width:1px;stroke-linecap:butt;stroke-linejoin:miter;stroke-opacity:1"/>
<ellipse cx="1625.71" cy="69.011" rx="43.1001" ry="30.0379" style="fill:#FFCC99;fill-rule:evenodd;stroke:#FFCC99;stroke-width:1px;stroke-linecap:butt;stroke-linejoin:miter;stroke-opacity:1"/>
<ellipse cx="1571.99" cy="179.542" rx="24.4845" ry="24.4845" style="fill:#FFCC99;fill-rule:evenodd;stroke:#FFCC99;stroke-width:1px;stroke-linecap:butt;stroke-linejoin:miter;stroke-opacity:1"/>
<ellipse cx="1656.86" cy="267.779" rx="24.4845" ry="24.4845" style="fill:#FFCC99;fill-rule:evenodd;stroke:#FFCC99;stroke-width:1px;stroke-linecap:butt;stroke-linejoin:miter;stroke-opacity:1"/>
<ellipse cx="1622.87" cy="385.39" rx="24.4845" ry="24.4845" style="fill:#FFCC99;fill-rule:evenodd;stroke:#FFCC99;stroke-width:1px;stroke-linecap:butt;stroke-linejoin:miter;stroke-opacity:1"/>
<ellipse cx="1504.03" cy="414.764" rx="24.4845" ry="24.4845" style="fill:#FFCC99;fill-rule:evenodd;stroke:#FFCC99;stroke-width:1px;stroke-linecap:butt;stroke-linejoin:miter;stroke-opacity:1"/>
<ellipse cx="1419.16" cy="326.528" rx="24.4845" ry="24.4845" style="fill:#FFCC99;fill-rule:evenodd;stroke:#FFCC99;stroke-width:1px;stroke-linecap:butt;stroke-linejoin:miter;stroke-opacity:1"/>
<ellipse cx="1296.81" cy="330.931" rx="24.4845" ry="24.4845" style="fill:#FFCC99;fill-rule:evenodd;stroke:#FFCC99;stroke-width:1px;stroke-linecap:butt;stroke-linejoin:miter;stroke-opacity:1"/>
<ellipse cx="1255.17" cy="215.426" rx="24.4845" ry="24.4845" style="fill:#FFCC99;fill-rule:evenodd;stroke:#FFCC99;stroke-width:1px;stroke-linecap:butt;stroke-linejoin:miter;stroke-opacity:1"/>
<ellipse cx="1351.79" cy="140.252" rx="24.4845" ry="24.4845" style="fill:#FFCC99;fill-rule:evenodd;stroke:#FFCC99;stroke-width:1px;stroke-linecap:butt;stroke-linejoin:miter;stroke-opacity:1"/>
<ellipse cx="1453.15" cy="208.917" rx="24.4845" ry="24.4845" style="fill:#FFCC99;fill-rule:evenodd;stroke:#FFCC99;stroke-width:1px;stroke-linecap:butt;stroke-linejoin:miter;stroke-opacity:1"/>
<ellipse cx="2337.05" cy="314.319" rx="24.4845" ry="24.4845" style="fill:#FFFFAA;fill-rule:evenodd;stroke:#FFFFAA;stroke-width:1px;stroke-linecap:butt;stroke-linejoin:miter;stroke-opacity:1"/>
<ellipse cx="2443.07" cy="253.108" rx="24.4845" ry="24.4845" style="fill:#FFFFAA;fill-rule:evenodd;stroke:#FFFFAA;stroke-width:1px;stroke-linecap:butt;stroke-linejoin:miter;stroke-opacity:1"/>
<ellipse cx="2549.09" cy="314.539" rx="24.4845" ry="24.4845" style="fill:#FFFFAA;fill-rule:evenodd;stroke:#FFFFAA;stroke-width:1px;stroke-linecap:butt;stroke-linejoin:miter;stroke-opacity:1"/>
<ellipse cx="2455.85" cy="130.905" rx="36.4584" ry="24.4845" style="fill:#FFFFAA;fill-rule:evenodd;stroke:#FFFFAA;stroke-width:1px;stroke-linecap:butt;stroke-linejoin:miter;stroke-opacity:1"/>
<ellipse cx="3501.58" cy="137.912" rx="24.4845" ry="24.4845" style="fill:#FFFFAA;fill-rule:evenodd;stroke:#FFFFAA;stroke-width:1px;stroke-linecap:butt;stroke-linejoin:miter;stroke-opacity:1"/>
<ellipse cx="3407.82" cy="216.631" rx="24.4845" ry="24.4845" style="fill:#FFFFAA;fill-rule:evenodd;stroke:#FFFFAA;stroke-width:1px;stroke-linecap:butt;stroke-linejoin:miter;stroke-opacity:1"/>
<ellipse cx="3429.11" cy="337.408" rx="24.4845" ry="24.4845" style="fill:#FFFFAA;fill-rule:evenodd;stroke:#FFFFAA;stroke-width:1px;stroke-linecap:butt;stroke-linejoin:miter;stroke-opacity:1"/>
<ellipse cx="3292.77" cy="159.218" rx="24.4845" ry="42.0531" style="fill:#FFCC99;fill-rule:evenodd;stroke:#FFCC99;stroke-width:1px;stroke-linecap:butt;stroke-linejoin:miter;stroke-opacity:1"/>
<ellipse cx="3199.01" cy="253.513" rx="24.4845" ry="24.4845" style="fill:#FFCC99;fill-rule:evenodd;stroke:#FFCC99;stroke-width:1px;stroke-linecap:butt;stroke-linejoin:miter;stroke-opacity:1"/>
<ellipse cx="3220.3" cy="374.069" rx="24.4845" ry="24.4845" style="fill:#FFCC99;fill-rule:evenodd;stroke:#FFCC99;stroke-width:1px;stroke-linecap:butt;stroke-linejoin:miter;stroke-opacity:1"/>
<ellipse cx="3126.54" cy="452.788" rx="24.4845" ry="24.4845" style="fill:#FFCC99;fill-rule:evenodd;stroke:#FFCC99;stroke-width:1px;stroke-linecap:butt;stroke-linejoin:miter;stroke-opacity:1"/>
<ellipse cx="3011.49" cy="410.951" rx="24.4845" ry="24.4845" style="fill:#FFCC99;fill-rule:evenodd;stroke:#FFCC99;stroke-width:1px;stroke-linecap:butt;stroke-linejoin:miter;stroke-opacity:1"/>
<ellipse cx="2990.2" cy="290.394" rx="24.4845" ry="24.4845" style="fill:#FFCC99;fill-rule:evenodd;stroke:#FFCC99;stroke-width:1px;stroke-linecap:butt;stroke-linejoin:miter;stroke-opacity:1"/>
<ellipse cx="2886.36" cy="225.931" rx="24.4845" ry="24.4845" style="fill:#FFCC99;fill-rule:evenodd;stroke:#FFCC99;stroke-width:1px;stroke-linecap:butt;stroke-linejoin:miter;stroke-opacity:1"/>
<ellipse cx="2915.94" cy="106.756" rx="24.4845" ry="24.4845" style="fill:#FFCC99;fill-rule:evenodd;stroke:#FFCC99;stroke-width:1px;stroke-linecap:butt;stroke-linejoin:miter;stroke-opacity:1"/>
<ellipse cx="3038.06" cy="98.1805" rx="24.4845" ry="24.4845" style="fill:#FFCC99;fill-rule:evenodd;stroke:#FFCC99;stroke-width:1px;stroke-linecap:butt;stroke-linejoin:miter;stroke-opacity:1"/>
<ellipse cx="3083.96" cy="211.675" rx="24.4845" ry="24.4845" style="fill:#FFCC99;fill-rule:evenodd;stroke:#FFCC99;stroke-width:1px;stroke-linecap:butt;stroke-linejoin:miter;stroke-opacity:1"/>
<path class="bond-0" d="M 498.424,183.152 L 604.445,244.363" style="fill:none;fill-rule:evenodd;stroke:#000000;stroke-width:2.0px;stroke-linecap:butt;stroke-linejoin:miter;stroke-opacity:1"/>
<path class="bond-1" d="M 592.202,244.363 L 592.202,296.884" style="fill:none;fill-rule:evenodd;stroke:#000000;stroke-width:2.0px;stroke-linecap:butt;stroke-linejoin:miter;stroke-opacity:1"/>
<path class="bond-1" d="M 592.202,296.884 L 592.202,349.405" style="fill:none;fill-rule:evenodd;stroke:#FF0000;stroke-width:2.0px;stroke-linecap:butt;stroke-linejoin:miter;stroke-opacity:1"/>
<path class="bond-1" d="M 616.687,244.363 L 616.687,296.884" style="fill:none;fill-rule:evenodd;stroke:#000000;stroke-width:2.0px;stroke-linecap:butt;stroke-linejoin:miter;stroke-opacity:1"/>
<path class="bond-1" d="M 616.687,296.884 L 616.687,349.405" style="fill:none;fill-rule:evenodd;stroke:#FF0000;stroke-width:2.0px;stroke-linecap:butt;stroke-linejoin:miter;stroke-opacity:1"/>
<path class="bond-2" d="M 604.445,244.363 L 649.425,218.394" style="fill:none;fill-rule:evenodd;stroke:#000000;stroke-width:2.0px;stroke-linecap:butt;stroke-linejoin:miter;stroke-opacity:1"/>
<path class="bond-2" d="M 649.425,218.394 L 694.405,192.425" style="fill:none;fill-rule:evenodd;stroke:#FF0000;stroke-width:2.0px;stroke-linecap:butt;stroke-linejoin:miter;stroke-opacity:1"/>
<path class="bond-3" d="M 726.526,192.425 L 771.506,218.394" style="fill:none;fill-rule:evenodd;stroke:#FF0000;stroke-width:2.0px;stroke-linecap:butt;stroke-linejoin:miter;stroke-opacity:1"/>
<path class="bond-3" d="M 771.506,218.394 L 816.487,244.363" style="fill:none;fill-rule:evenodd;stroke:#000000;stroke-width:2.0px;stroke-linecap:butt;stroke-linejoin:miter;stroke-opacity:1"/>
<path class="bond-4" d="M 816.487,244.363 L 922.508,183.152" style="fill:none;fill-rule:evenodd;stroke:#000000;stroke-width:2.0px;stroke-linecap:butt;stroke-linejoin:miter;stroke-opacity:1"/>
<path class="bond-5" d="M 804.244,244.363 L 804.244,296.884" style="fill:none;fill-rule:evenodd;stroke:#000000;stroke-width:2.0px;stroke-linecap:butt;stroke-linejoin:miter;stroke-opacity:1"/>
<path class="bond-5" d="M 804.244,296.884 L 804.244,349.405" style="fill:none;fill-rule:evenodd;stroke:#FF0000;stroke-width:2.0px;stroke-linecap:butt;stroke-linejoin:miter;stroke-opacity:1"/>
<path class="bond-5" d="M 828.729,244.363 L 828.729,296.884" style="fill:none;fill-rule:evenodd;stroke:#000000;stroke-width:2.0px;stroke-linecap:butt;stroke-linejoin:miter;stroke-opacity:1"/>
<path class="bond-5" d="M 828.729,296.884 L 828.729,349.405" style="fill:none;fill-rule:evenodd;stroke:#FF0000;stroke-width:2.0px;stroke-linecap:butt;stroke-linejoin:miter;stroke-opacity:1"/>
<path class="bond-6" d="M 1601,79.1515 L 1586.5,129.347" style="fill:none;fill-rule:evenodd;stroke:#0000FF;stroke-width:2.0px;stroke-linecap:butt;stroke-linejoin:miter;stroke-opacity:1"/>
<path class="bond-6" d="M 1586.5,129.347 L 1571.99,179.542" style="fill:none;fill-rule:evenodd;stroke:#000000;stroke-width:2.0px;stroke-linecap:butt;stroke-linejoin:miter;stroke-opacity:1"/>
<path class="bond-7" d="M 1571.99,179.542 L 1656.86,267.779" style="fill:none;fill-rule:evenodd;stroke:#000000;stroke-width:2.0px;stroke-linecap:butt;stroke-linejoin:miter;stroke-opacity:1"/>
<path class="bond-7" d="M 1567.08,209.75 L 1626.48,271.516" style="fill:none;fill-rule:evenodd;stroke:#000000;stroke-width:2.0px;stroke-linecap:butt;stroke-linejoin:miter;stroke-opacity:1;stroke-dasharray:6,6"/>
<path class="bond-15" d="M 1571.99,179.542 L 1453.15,208.917" style="fill:none;fill-rule:evenodd;stroke:#000000;stroke-width:2.0px;stroke-linecap:butt;stroke-linejoin:miter;stroke-opacity:1"/>
<path class="bond-15" d="M 1560.04,207.717 L 1476.85,228.28" style="fill:none;fill-rule:evenodd;stroke:#000000;stroke-width:2.0px;stroke-linecap:butt;stroke-linejoin:miter;stroke-opacity:1;stroke-dasharray:6,6"/>
<path class="bond-8" d="M 1656.86,267.779 L 1622.87,385.39" style="fill:none;fill-rule:evenodd;stroke:#000000;stroke-width:2.0px;stroke-linecap:butt;stroke-linejoin:miter;stroke-opacity:1"/>
<path class="bond-8" d="M 1628.24,278.623 L 1604.45,360.951" style="fill:none;fill-rule:evenodd;stroke:#000000;stroke-width:2.0px;stroke-linecap:butt;stroke-linejoin:miter;stroke-opacity:1;stroke-dasharray:6,6"/>
<path class="bond-9" d="M 1622.87,385.39 L 1504.03,414.764" style="fill:none;fill-rule:evenodd;stroke:#000000;stroke-width:2.0px;stroke-linecap:butt;stroke-linejoin:miter;stroke-opacity:1"/>
<path class="bond-9" d="M 1599.17,366.027 L 1515.98,386.589" style="fill:none;fill-rule:evenodd;stroke:#000000;stroke-width:2.0px;stroke-linecap:butt;stroke-linejoin:miter;stroke-opacity:1;stroke-dasharray:6,6"/>
<path class="bond-10" d="M 1504.03,414.764 L 1419.16,326.528" style="fill:none;fill-rule:evenodd;stroke:#000000;stroke-width:2.0px;stroke-linecap:butt;stroke-linejoin:miter;stroke-opacity:1"/>
<path class="bond-10" d="M 1508.94,384.556 L 1449.54,322.791" style="fill:none;fill-rule:evenodd;stroke:#000000;stroke-width:2.0px;stroke-linecap:butt;stroke-linejoin:miter;stroke-opacity:1;stroke-dasharray:6,6"/>
<path class="bond-11" d="M 1419.16,326.528 L 1364.06,328.34" style="fill:none;fill-rule:evenodd;stroke:#000000;stroke-width:2.0px;stroke-linecap:butt;stroke-linejoin:miter;stroke-opacity:1"/>
<path class="bond-11" d="M 1364.06,328.34 L 1308.95,330.152" style="fill:none;fill-rule:evenodd;stroke:#CCCC00;stroke-width:2.0px;stroke-linecap:butt;stroke-linejoin:miter;stroke-opacity:1"/>
<path class="bond-11" d="M 1401.83,302.6 L 1363.25,303.868" style="fill:none;fill-rule:evenodd;stroke:#000000;stroke-width:2.0px;stroke-linecap:butt;stroke-linejoin:miter;stroke-opacity:1;stroke-dasharray:6,6"/>
<path class="bond-11" d="M 1363.25,303.868 L 1324.68,305.137" style="fill:none;fill-rule:evenodd;stroke:#CCCC00;stroke-width:2.0px;stroke-linecap:butt;stroke-linejoin:miter;stroke-opacity:1;stroke-dasharray:6,6"/>
<path class="bond-16" d="M 1419.16,326.528 L 1453.15,208.917" style="fill:none;fill-rule:evenodd;stroke:#000000;stroke-width:2.0px;stroke-linecap:butt;stroke-linejoin:miter;stroke-opacity:1"/>
<path class="bond-16" d="M 1447.78,315.683 L 1471.57,233.355" style="fill:none;fill-rule:evenodd;stroke:#000000;stroke-width:2.0px;stroke-linecap:butt;stroke-linejoin:miter;stroke-opacity:1;stroke-dasharray:6,6"/>
<path class="bond-12" d="M 1290.59,313.37 L 1272.88,264.398" style="fill:none;fill-rule:evenodd;stroke:#CCCC00;stroke-width:2.0px;stroke-linecap:butt;stroke-linejoin:miter;stroke-opacity:1"/>
<path class="bond-12" d="M 1272.88,264.398 L 1255.17,215.426" style="fill:none;fill-rule:evenodd;stroke:#000000;stroke-width:2.0px;stroke-linecap:butt;stroke-linejoin:miter;stroke-opacity:1"/>
<path class="bond-12" d="M 1308.3,290.351 L 1295.91,256.071" style="fill:none;fill-rule:evenodd;stroke:#CCCC00;stroke-width:2.0px;stroke-linecap:butt;stroke-linejoin:miter;stroke-opacity:1;stroke-dasharray:6,6"/>
<path class="bond-12" d="M 1295.91,256.071 L 1283.51,221.79" style="fill:none;fill-rule:evenodd;stroke:#000000;stroke-width:2.0px;stroke-linecap:butt;stroke-linejoin:miter;stroke-opacity:1;stroke-dasharray:6,6"/>
<path class="bond-13" d="M 1255.17,215.426 L 1351.79,140.252" style="fill:none;fill-rule:evenodd;stroke:#000000;stroke-width:2.0px;stroke-linecap:butt;stroke-linejoin:miter;stroke-opacity:1"/>
<path class="bond-13" d="M 1284.7,223.475 L 1352.34,170.853" style="fill:none;fill-rule:evenodd;stroke:#000000;stroke-width:2.0px;stroke-linecap:butt;stroke-linejoin:miter;stroke-opacity:1;stroke-dasharray:6,6"/>
<path class="bond-14" d="M 1351.79,140.252 L 1453.15,208.917" style="fill:none;fill-rule:evenodd;stroke:#000000;stroke-width:2.0px;stroke-linecap:butt;stroke-linejoin:miter;stroke-opacity:1"/>
<path class="bond-14" d="M 1353.26,170.822 L 1424.21,218.888" style="fill:none;fill-rule:evenodd;stroke:#000000;stroke-width:2.0px;stroke-linecap:butt;stroke-linejoin:miter;stroke-opacity:1;stroke-dasharray:6,6"/>
<path class="bond-17" d="M 2337.05,314.319 L 2443.07,253.108" style="fill:none;fill-rule:evenodd;stroke:#000000;stroke-width:2.0px;stroke-linecap:butt;stroke-linejoin:miter;stroke-opacity:1"/>
<path class="bond-18" d="M 2436.95,263.71 L 2481.93,289.679" style="fill:none;fill-rule:evenodd;stroke:#000000;stroke-width:2.0px;stroke-linecap:butt;stroke-linejoin:miter;stroke-opacity:1"/>
<path class="bond-18" d="M 2481.93,289.679 L 2526.91,315.649" style="fill:none;fill-rule:evenodd;stroke:#FF0000;stroke-width:2.0px;stroke-linecap:butt;stroke-linejoin:miter;stroke-opacity:1"/>
<path class="bond-18" d="M 2449.19,242.506 L 2494.17,268.475" style="fill:none;fill-rule:evenodd;stroke:#000000;stroke-width:2.0px;stroke-linecap:butt;stroke-linejoin:miter;stroke-opacity:1"/>
<path class="bond-18" d="M 2494.17,268.475 L 2539.15,294.444" style="fill:none;fill-rule:evenodd;stroke:#FF0000;stroke-width:2.0px;stroke-linecap:butt;stroke-linejoin:miter;stroke-opacity:1"/>
<path class="bond-19" d="M 2443.07,253.108 L 2443.07,200.807" style="fill:none;fill-rule:evenodd;stroke:#000000;stroke-width:2.0px;stroke-linecap:butt;stroke-linejoin:miter;stroke-opacity:1"/>
<path class="bond-19" d="M 2443.07,200.807 L 2443.07,148.506" style="fill:none;fill-rule:evenodd;stroke:#FF0000;stroke-width:2.0px;stroke-linecap:butt;stroke-linejoin:miter;stroke-opacity:1"/>
<path class="bond-20" d="M 3501.58,137.912 L 3407.82,216.631" style="fill:none;fill-rule:evenodd;stroke:#000000;stroke-width:2.0px;stroke-linecap:butt;stroke-linejoin:miter;stroke-opacity:1"/>
<path class="bond-21" d="M 3395.76,218.76 L 3404.87,270.348" style="fill:none;fill-rule:evenodd;stroke:#000000;stroke-width:2.0px;stroke-linecap:butt;stroke-linejoin:miter;stroke-opacity:1"/>
<path class="bond-21" d="M 3404.87,270.348 L 3413.99,321.936" style="fill:none;fill-rule:evenodd;stroke:#FF0000;stroke-width:2.0px;stroke-linecap:butt;stroke-linejoin:miter;stroke-opacity:1"/>
<path class="bond-21" d="M 3419.87,214.502 L 3428.99,266.09" style="fill:none;fill-rule:evenodd;stroke:#000000;stroke-width:2.0px;stroke-linecap:butt;stroke-linejoin:miter;stroke-opacity:1"/>
<path class="bond-21" d="M 3428.99,266.09 L 3438.1,317.678" style="fill:none;fill-rule:evenodd;stroke:#FF0000;stroke-width:2.0px;stroke-linecap:butt;stroke-linejoin:miter;stroke-opacity:1"/>
<path class="bond-22" d="M 3407.82,216.631 L 3357.19,198.222" style="fill:none;fill-rule:evenodd;stroke:#000000;stroke-width:2.0px;stroke-linecap:butt;stroke-linejoin:miter;stroke-opacity:1"/>
<path class="bond-22" d="M 3357.19,198.222 L 3306.57,179.812" style="fill:none;fill-rule:evenodd;stroke:#0000FF;stroke-width:2.0px;stroke-linecap:butt;stroke-linejoin:miter;stroke-opacity:1"/>
<path class="bond-23" d="M 3278.97,186.381 L 3238.99,219.947" style="fill:none;fill-rule:evenodd;stroke:#0000FF;stroke-width:2.0px;stroke-linecap:butt;stroke-linejoin:miter;stroke-opacity:1"/>
<path class="bond-23" d="M 3238.99,219.947 L 3199.01,253.513" style="fill:none;fill-rule:evenodd;stroke:#000000;stroke-width:2.0px;stroke-linecap:butt;stroke-linejoin:miter;stroke-opacity:1"/>
<path class="bond-24" d="M 3199.01,253.513 L 3220.3,374.069" style="fill:none;fill-rule:evenodd;stroke:#000000;stroke-width:2.0px;stroke-linecap:butt;stroke-linejoin:miter;stroke-opacity:1"/>
<path class="bond-24" d="M 3178.09,275.855 L 3193,360.244" style="fill:none;fill-rule:evenodd;stroke:#000000;stroke-width:2.0px;stroke-linecap:butt;stroke-linejoin:miter;stroke-opacity:1;stroke-dasharray:6,6"/>
<path class="bond-32" d="M 3199.01,253.513 L 3083.96,211.675" style="fill:none;fill-rule:evenodd;stroke:#000000;stroke-width:2.0px;stroke-linecap:butt;stroke-linejoin:miter;stroke-opacity:1"/>
<path class="bond-32" d="M 3173.38,270.247 L 3092.85,240.961" style="fill:none;fill-rule:evenodd;stroke:#000000;stroke-width:2.0px;stroke-linecap:butt;stroke-linejoin:miter;stroke-opacity:1;stroke-dasharray:6,6"/>
<path class="bond-25" d="M 3220.3,374.069 L 3126.54,452.788" style="fill:none;fill-rule:evenodd;stroke:#000000;stroke-width:2.0px;stroke-linecap:butt;stroke-linejoin:miter;stroke-opacity:1"/>
<path class="bond-25" d="M 3190.49,367.125 L 3124.86,422.229" style="fill:none;fill-rule:evenodd;stroke:#000000;stroke-width:2.0px;stroke-linecap:butt;stroke-linejoin:miter;stroke-opacity:1;stroke-dasharray:6,6"/>
<path class="bond-26" d="M 3126.54,452.788 L 3011.49,410.951" style="fill:none;fill-rule:evenodd;stroke:#000000;stroke-width:2.0px;stroke-linecap:butt;stroke-linejoin:miter;stroke-opacity:1"/>
<path class="bond-26" d="M 3117.65,423.502 L 3037.12,394.216" style="fill:none;fill-rule:evenodd;stroke:#000000;stroke-width:2.0px;stroke-linecap:butt;stroke-linejoin:miter;stroke-opacity:1;stroke-dasharray:6,6"/>
<path class="bond-27" d="M 3011.49,410.951 L 2990.2,290.394" style="fill:none;fill-rule:evenodd;stroke:#000000;stroke-width:2.0px;stroke-linecap:butt;stroke-linejoin:miter;stroke-opacity:1"/>
<path class="bond-27" d="M 3032.41,388.609 L 3017.5,304.219" style="fill:none;fill-rule:evenodd;stroke:#000000;stroke-width:2.0px;stroke-linecap:butt;stroke-linejoin:miter;stroke-opacity:1;stroke-dasharray:6,6"/>
<path class="bond-28" d="M 2990.2,290.394 L 2944.35,261.763" style="fill:none;fill-rule:evenodd;stroke:#000000;stroke-width:2.0px;stroke-linecap:butt;stroke-linejoin:miter;stroke-opacity:1"/>
<path class="bond-28" d="M 2944.35,261.763 L 2898.5,233.132" style="fill:none;fill-rule:evenodd;stroke:#CCCC00;stroke-width:2.0px;stroke-linecap:butt;stroke-linejoin:miter;stroke-opacity:1"/>
<path class="bond-28" d="M 2989.41,261.037 L 2957.32,240.995" style="fill:none;fill-rule:evenodd;stroke:#000000;stroke-width:2.0px;stroke-linecap:butt;stroke-linejoin:miter;stroke-opacity:1;stroke-dasharray:6,6"/>
<path class="bond-28" d="M 2957.32,240.995 L 2925.22,220.954" style="fill:none;fill-rule:evenodd;stroke:#CCCC00;stroke-width:2.0px;stroke-linecap:butt;stroke-linejoin:miter;stroke-opacity:1;stroke-dasharray:6,6"/>
<path class="bond-33" d="M 2990.2,290.394 L 3083.96,211.675" style="fill:none;fill-rule:evenodd;stroke:#000000;stroke-width:2.0px;stroke-linecap:butt;stroke-linejoin:miter;stroke-opacity:1"/>
<path class="bond-33" d="M 3020.01,297.338 L 3085.64,242.235" style="fill:none;fill-rule:evenodd;stroke:#000000;stroke-width:2.0px;stroke-linecap:butt;stroke-linejoin:miter;stroke-opacity:1;stroke-dasharray:6,6"/>
<path class="bond-29" d="M 2890.64,208.37 L 2903.29,157.563" style="fill:none;fill-rule:evenodd;stroke:#CCCC00;stroke-width:2.0px;stroke-linecap:butt;stroke-linejoin:miter;stroke-opacity:1"/>
<path class="bond-29" d="M 2903.29,157.563 L 2915.94,106.756" style="fill:none;fill-rule:evenodd;stroke:#000000;stroke-width:2.0px;stroke-linecap:butt;stroke-linejoin:miter;stroke-opacity:1"/>
<path class="bond-29" d="M 2918.19,199.044 L 2927.05,163.479" style="fill:none;fill-rule:evenodd;stroke:#CCCC00;stroke-width:2.0px;stroke-linecap:butt;stroke-linejoin:miter;stroke-opacity:1;stroke-dasharray:6,6"/>
<path class="bond-29" d="M 2927.05,163.479 L 2935.9,127.914" style="fill:none;fill-rule:evenodd;stroke:#000000;stroke-width:2.0px;stroke-linecap:butt;stroke-linejoin:miter;stroke-opacity:1;stroke-dasharray:6,6"/>
<path class="bond-30" d="M 2915.94,106.756 L 3038.06,98.1805" style="fill:none;fill-rule:evenodd;stroke:#000000;stroke-width:2.0px;stroke-linecap:butt;stroke-linejoin:miter;stroke-opacity:1"/>
<path class="bond-30" d="M 2935.97,129.894 L 3021.46,123.891" style="fill:none;fill-rule:evenodd;stroke:#000000;stroke-width:2.0px;stroke-linecap:butt;stroke-linejoin:miter;stroke-opacity:1;stroke-dasharray:6,6"/>
<path class="bond-31" d="M 3038.06,98.1805 L 3083.96,211.675" style="fill:none;fill-rule:evenodd;stroke:#000000;stroke-width:2.0px;stroke-linecap:butt;stroke-linejoin:miter;stroke-opacity:1"/>
<path class="bond-31" d="M 3022.25,124.383 L 3054.37,203.83" style="fill:none;fill-rule:evenodd;stroke:#000000;stroke-width:2.0px;stroke-linecap:butt;stroke-linejoin:miter;stroke-opacity:1;stroke-dasharray:6,6"/>
<path class="atom-2" d="M 591.445 366.866 Q 591.445 360.066, 594.805 356.266 Q 598.165 352.466, 604.445 352.466 Q 610.725 352.466, 614.085 356.266 Q 617.445 360.066, 617.445 366.866 Q 617.445 373.746, 614.045 377.666 Q 610.645 381.546, 604.445 381.546 Q 598.205 381.546, 594.805 377.666 Q 591.445 373.786, 591.445 366.866 M 604.445 378.346 Q 608.765 378.346, 611.085 375.466 Q 613.445 372.546, 613.445 366.866 Q 613.445 361.306, 611.085 358.506 Q 608.765 355.666, 604.445 355.666 Q 600.125 355.666, 597.765 358.466 Q 595.445 361.266, 595.445 366.866 Q 595.445 372.586, 597.765 375.466 Q 600.125 378.346, 604.445 378.346 " fill="#FF0000"/>
<path class="atom-3" d="M 697.466 183.232 Q 697.466 176.432, 700.826 172.632 Q 704.186 168.832, 710.466 168.832 Q 716.746 168.832, 720.106 172.632 Q 723.466 176.432, 723.466 183.232 Q 723.466 190.112, 720.066 194.032 Q 716.666 197.912, 710.466 197.912 Q 704.226 197.912, 700.826 194.032 Q 697.466 190.152, 697.466 183.232 M 710.466 194.712 Q 714.786 194.712, 717.106 191.832 Q 719.466 188.912, 719.466 183.232 Q 719.466 177.672, 717.106 174.872 Q 714.786 172.032, 710.466 172.032 Q 706.146 172.032, 703.786 174.832 Q 701.466 177.632, 701.466 183.232 Q 701.466 188.952, 703.786 191.832 Q 706.146 194.712, 710.466 194.712 " fill="#FF0000"/>
<path class="atom-6" d="M 803.487 366.866 Q 803.487 360.066, 806.847 356.266 Q 810.207 352.466, 816.487 352.466 Q 822.767 352.466, 826.127 356.266 Q 829.487 360.066, 829.487 366.866 Q 829.487 373.746, 826.087 377.666 Q 822.687 381.546, 816.487 381.546 Q 810.247 381.546, 806.847 377.666 Q 803.487 373.786, 803.487 366.866 M 816.487 378.346 Q 820.807 378.346, 823.127 375.466 Q 825.487 372.546, 825.487 366.866 Q 825.487 361.306, 823.127 358.506 Q 820.807 355.666, 816.487 355.666 Q 812.167 355.666, 809.807 358.466 Q 807.487 361.266, 807.487 366.866 Q 807.487 372.586, 809.807 375.466 Q 812.167 378.346, 816.487 378.346 " fill="#FF0000"/>
<path class="atom-7" d="M 1599.72 47.771 L 1609 62.771 Q 1609.92 64.251, 1611.4 66.931 Q 1612.88 69.611, 1612.96 69.771 L 1612.96 47.771 L 1616.72 47.771 L 1616.72 76.091 L 1612.84 76.091 L 1602.88 59.691 Q 1601.72 57.771, 1600.48 55.571 Q 1599.28 53.371, 1598.92 52.691 L 1598.92 76.091 L 1595.24 76.091 L 1595.24 47.771 L 1599.72 47.771 " fill="#0000FF"/>
<path class="atom-7" d="M 1620.12 47.771 L 1623.96 47.771 L 1623.96 59.811 L 1638.44 59.811 L 1638.44 47.771 L 1642.28 47.771 L 1642.28 76.091 L 1638.44 76.091 L 1638.44 63.011 L 1623.96 63.011 L 1623.96 76.091 L 1620.12 76.091 L 1620.12 47.771 " fill="#0000FF"/>
<path class="atom-7" d="M 1643.65 75.0974 Q 1644.34 73.3286, 1645.97 72.3518 Q 1647.61 71.3486, 1649.88 71.3486 Q 1652.71 71.3486, 1654.29 72.8798 Q 1655.87 74.411, 1655.87 77.1302 Q 1655.87 79.9022, 1653.81 82.4894 Q 1651.78 85.0766, 1647.56 88.139 L 1656.19 88.139 L 1656.19 90.251 L 1643.6 90.251 L 1643.6 88.4822 Q 1647.08 86.0006, 1649.14 84.1526 Q 1651.23 82.3046, 1652.23 80.6414 Q 1653.23 78.9782, 1653.23 77.2622 Q 1653.23 75.467, 1652.34 74.4638 Q 1651.44 73.4606, 1649.88 73.4606 Q 1648.38 73.4606, 1647.37 74.0678 Q 1646.37 74.675, 1645.66 76.0214 L 1643.65 75.0974 " fill="#0000FF"/>
<path class="atom-13" d="M 1288.81 340.271 Q 1289.13 340.391, 1290.45 340.951 Q 1291.77 341.511, 1293.21 341.871 Q 1294.69 342.191, 1296.13 342.191 Q 1298.81 342.191, 1300.37 340.911 Q 1301.93 339.591, 1301.93 337.311 Q 1301.93 335.751, 1301.13 334.791 Q 1300.37 333.831, 1299.17 333.311 Q 1297.97 332.791, 1295.97 332.191 Q 1293.45 331.431, 1291.93 330.711 Q 1290.45 329.991, 1289.37 328.471 Q 1288.33 326.951, 1288.33 324.391 Q 1288.33 320.831, 1290.73 318.631 Q 1293.17 316.431, 1297.97 316.431 Q 1301.25 316.431, 1304.97 317.991 L 1304.05 321.071 Q 1300.65 319.671, 1298.09 319.671 Q 1295.33 319.671, 1293.81 320.831 Q 1292.29 321.951, 1292.33 323.911 Q 1292.33 325.431, 1293.09 326.351 Q 1293.89 327.271, 1295.01 327.791 Q 1296.17 328.311, 1298.09 328.911 Q 1300.65 329.711, 1302.17 330.511 Q 1303.69 331.311, 1304.77 332.951 Q 1305.89 334.551, 1305.89 337.311 Q 1305.89 341.231, 1303.25 343.351 Q 1300.65 345.431, 1296.29 345.431 Q 1293.77 345.431, 1291.85 344.871 Q 1289.97 344.351, 1287.73 343.431 L 1288.81 340.271 " fill="#CCCC00"/>
<path class="atom-19" d="M 2536.09 314.399 Q 2536.09 307.599, 2539.45 303.799 Q 2542.81 299.999, 2549.09 299.999 Q 2555.37 299.999, 2558.73 303.799 Q 2562.09 307.599, 2562.09 314.399 Q 2562.09 321.279, 2558.69 325.199 Q 2555.29 329.079, 2549.09 329.079 Q 2542.85 329.079, 2539.45 325.199 Q 2536.09 321.319, 2536.09 314.399 M 2549.09 325.879 Q 2553.41 325.879, 2555.73 322.999 Q 2558.09 320.079, 2558.09 314.399 Q 2558.09 308.839, 2555.73 306.039 Q 2553.41 303.199, 2549.09 303.199 Q 2544.77 303.199, 2542.41 305.999 Q 2540.09 308.799, 2540.09 314.399 Q 2540.09 320.119, 2542.41 322.999 Q 2544.77 325.879, 2549.09 325.879 " fill="#FF0000"/>
<path class="atom-20" d="M 2430.07 130.765 Q 2430.07 123.965, 2433.43 120.165 Q 2436.79 116.365, 2443.07 116.365 Q 2449.35 116.365, 2452.71 120.165 Q 2456.07 123.965, 2456.07 130.765 Q 2456.07 137.645, 2452.67 141.565 Q 2449.27 145.445, 2443.07 145.445 Q 2436.83 145.445, 2433.43 141.565 Q 2430.07 137.685, 2430.07 130.765 M 2443.07 142.245 Q 2447.39 142.245, 2449.71 139.365 Q 2452.07 136.445, 2452.07 130.765 Q 2452.07 125.205, 2449.71 122.405 Q 2447.39 119.565, 2443.07 119.565 Q 2438.75 119.565, 2436.39 122.365 Q 2434.07 125.165, 2434.07 130.765 Q 2434.07 136.485, 2436.39 139.365 Q 2438.75 142.245, 2443.07 142.245 " fill="#FF0000"/>
<path class="atom-20" d="M 2459.47 116.685 L 2463.31 116.685 L 2463.31 128.725 L 2477.79 128.725 L 2477.79 116.685 L 2481.63 116.685 L 2481.63 145.005 L 2477.79 145.005 L 2477.79 131.925 L 2463.31 131.925 L 2463.31 145.005 L 2459.47 145.005 L 2459.47 116.685 " fill="#FF0000"/>
<path class="atom-23" d="M 3416.11 337.268 Q 3416.11 330.468, 3419.47 326.668 Q 3422.83 322.868, 3429.11 322.868 Q 3435.39 322.868, 3438.75 326.668 Q 3442.11 330.468, 3442.11 337.268 Q 3442.11 344.148, 3438.71 348.068 Q 3435.31 351.948, 3429.11 351.948 Q 3422.87 351.948, 3419.47 348.068 Q 3416.11 344.188, 3416.11 337.268 M 3429.11 348.748 Q 3433.43 348.748, 3435.75 345.868 Q 3438.11 342.948, 3438.11 337.268 Q 3438.11 331.708, 3435.75 328.908 Q 3433.43 326.068, 3429.11 326.068 Q 3424.79 326.068, 3422.43 328.868 Q 3420.11 331.668, 3420.11 337.268 Q 3420.11 342.988, 3422.43 345.868 Q 3424.79 348.748, 3429.11 348.748 " fill="#FF0000"/>
<path class="atom-24" d="M 3286.51 160.634 L 3295.79 175.634 Q 3296.71 177.114, 3298.19 179.794 Q 3299.67 182.474, 3299.75 182.634 L 3299.75 160.634 L 3303.51 160.634 L 3303.51 188.954 L 3299.63 188.954 L 3289.67 172.554 Q 3288.51 170.634, 3287.27 168.434 Q 3286.07 166.234, 3285.71 165.554 L 3285.71 188.954 L 3282.03 188.954 L 3282.03 160.634 L 3286.51 160.634 " fill="#0000FF"/>
<path class="atom-24" d="M 3281.69 129.482 L 3285.53 129.482 L 3285.53 141.522 L 3300.01 141.522 L 3300.01 129.482 L 3303.85 129.482 L 3303.85 157.802 L 3300.01 157.802 L 3300.01 144.722 L 3285.53 144.722 L 3285.53 157.802 L 3281.69 157.802 L 3281.69 129.482 " fill="#0000FF"/>
<path class="atom-30" d="M 2878.36 235.271 Q 2878.68 235.391, 2880 235.951 Q 2881.32 236.511, 2882.76 236.871 Q 2884.24 237.191, 2885.68 237.191 Q 2888.36 237.191, 2889.92 235.911 Q 2891.48 234.591, 2891.48 232.311 Q 2891.48 230.751, 2890.68 229.791 Q 2889.92 228.831, 2888.72 228.311 Q 2887.52 227.791, 2885.52 227.191 Q 2883 226.431, 2881.48 225.711 Q 2880 224.991, 2878.92 223.471 Q 2877.88 221.951, 2877.88 219.391 Q 2877.88 215.831, 2880.28 213.631 Q 2882.72 211.431, 2887.52 211.431 Q 2890.8 211.431, 2894.52 212.991 L 2893.6 216.071 Q 2890.2 214.671, 2887.64 214.671 Q 2884.88 214.671, 2883.36 215.831 Q 2881.84 216.951, 2881.88 218.911 Q 2881.88 220.431, 2882.64 221.351 Q 2883.44 222.271, 2884.56 222.791 Q 2885.72 223.311, 2887.64 223.911 Q 2890.2 224.711, 2891.72 225.511 Q 2893.24 226.311, 2894.32 227.951 Q 2895.44 229.551, 2895.44 232.311 Q 2895.44 236.231, 2892.8 238.351 Q 2890.2 240.431, 2885.84 240.431 Q 2883.32 240.431, 2881.4 239.871 Q 2879.52 239.351, 2877.28 238.431 L 2878.36 235.271 " fill="#CCCC00"/>
<path class="note" d="M 484.732 206.342 L 487.832 206.342 L 487.832 195.762 L 484.412 196.822 L 483.952 195.642 L 488.292 193.702 L 489.712 193.942 L 489.712 206.342 L 492.492 206.342 L 492.492 207.942 L 484.732 207.942 L 484.732 206.342 " fill="#000000"/>
<path class="note" d="M 599.715 219.64 Q 600.235 218.3, 601.475 217.56 Q 602.715 216.8, 604.435 216.8 Q 606.575 216.8, 607.775 217.96 Q 608.975 219.12, 608.975 221.18 Q 608.975 223.28, 607.415 225.24 Q 605.875 227.2, 602.675 229.52 L 609.215 229.52 L 609.215 231.12 L 599.675 231.12 L 599.675 229.78 Q 602.315 227.9, 603.875 226.5 Q 605.455 225.1, 606.215 223.84 Q 606.975 222.58, 606.975 221.28 Q 606.975 219.92, 606.295 219.16 Q 605.615 218.4, 604.435 218.4 Q 603.295 218.4, 602.535 218.86 Q 601.775 219.32, 601.235 220.34 L 599.715 219.64 " fill="#000000"/>
<path class="note" d="M 606.485 407.293 Q 607.865 407.693, 608.525 408.593 Q 609.205 409.473, 609.205 410.873 Q 609.205 412.073, 608.605 413.013 Q 608.005 413.933, 606.905 414.453 Q 605.805 414.953, 604.365 414.953 Q 602.845 414.953, 601.705 414.433 Q 600.585 413.893, 599.685 412.813 L 600.825 411.653 Q 601.705 412.613, 602.445 412.993 Q 603.185 413.353, 604.365 413.353 Q 605.645 413.353, 606.425 412.673 Q 607.205 411.973, 607.205 410.853 Q 607.205 409.413, 606.385 408.773 Q 605.585 408.113, 603.845 408.113 L 602.825 408.113 L 602.825 406.673 L 603.725 406.673 Q 605.265 406.653, 606.085 405.993 Q 606.905 405.313, 606.905 404.053 Q 606.905 403.133, 606.225 402.593 Q 605.545 402.033, 604.385 402.033 Q 603.205 402.033, 602.465 402.453 Q 601.745 402.873, 601.185 403.933 L 599.805 403.193 Q 600.305 402.013, 601.505 401.233 Q 602.705 400.433, 604.385 400.433 Q 606.465 400.433, 607.685 401.413 Q 608.905 402.393, 608.905 404.053 Q 608.905 405.193, 608.285 406.013 Q 607.665 406.833, 606.485 407.293 " fill="#000000"/>
<path class="note" d="M 697.826 147.865 L 700.926 147.865 L 700.926 137.285 L 697.506 138.345 L 697.046 137.165 L 701.386 135.225 L 702.806 135.465 L 702.806 147.865 L 705.586 147.865 L 705.586 149.465 L 697.826 149.465 L 697.826 147.865 " fill="#000000"/>
<path class="note" d="M 713.366 136.905 L 705.946 136.905 L 705.946 135.305 L 715.346 135.305 L 715.346 136.725 L 709.626 149.465 L 707.706 149.465 L 713.366 136.905 " fill="#000000"/>
<path class="note" d="M 803.477 209.076 L 806.577 209.076 L 806.577 198.496 L 803.157 199.556 L 802.697 198.376 L 807.037 196.436 L 808.457 196.676 L 808.457 209.076 L 811.237 209.076 L 811.237 210.676 L 803.477 210.676 L 803.477 209.076 " fill="#000000"/>
<path class="note" d="M 817.297 201.816 Q 818.537 201.816, 819.557 202.356 Q 820.577 202.876, 821.157 203.876 Q 821.737 204.856, 821.737 206.196 Q 821.737 207.656, 821.017 208.716 Q 820.317 209.756, 819.157 210.296 Q 817.997 210.836, 816.677 210.836 Q 815.377 210.836, 814.177 210.356 Q 812.977 209.876, 812.157 208.956 L 813.357 207.716 Q 814.017 208.436, 814.917 208.836 Q 815.817 209.216, 816.737 209.216 Q 817.997 209.216, 818.857 208.436 Q 819.737 207.656, 819.737 206.236 Q 819.737 204.736, 818.857 204.036 Q 817.997 203.316, 816.617 203.316 Q 815.377 203.316, 813.997 203.856 L 812.897 203.336 L 813.577 196.516 L 820.857 196.516 L 820.657 198.116 L 815.217 198.116 L 814.797 202.316 Q 816.057 201.816, 817.297 201.816 " fill="#000000"/>
<path class="note" d="M 898.796 171.002 L 901.896 171.002 L 901.896 160.422 L 898.476 161.482 L 898.016 160.302 L 902.356 158.362 L 903.776 158.602 L 903.776 171.002 L 906.556 171.002 L 906.556 172.602 L 898.796 172.602 L 898.796 171.002 " fill="#000000"/>
<path class="note" d="M 916.356 167.742 L 918.056 167.742 L 918.056 169.342 L 916.356 169.342 L 916.356 172.602 L 914.476 172.602 L 914.476 169.342 L 907.156 169.342 L 907.156 168.082 L 913.356 158.442 L 916.356 158.442 L 916.356 167.742 M 909.476 167.742 L 914.476 167.742 L 914.476 159.722 L 909.476 167.742 " fill="#000000"/>
<path class="note" d="M 803.137 413.153 L 806.237 413.153 L 806.237 402.573 L 802.817 403.633 L 802.357 402.453 L 806.697 400.513 L 808.117 400.753 L 808.117 413.153 L 810.897 413.153 L 810.897 414.753 L 803.137 414.753 L 803.137 413.153 " fill="#000000"/>
<path class="note" d="M 817.797 405.913 Q 819.037 405.913, 820.017 406.453 Q 820.997 406.993, 821.537 407.973 Q 822.077 408.953, 822.077 410.193 Q 822.077 411.573, 821.457 412.653 Q 820.857 413.713, 819.777 414.313 Q 818.697 414.913, 817.317 414.913 Q 814.797 414.913, 813.517 413.213 Q 812.257 411.493, 812.257 408.093 Q 812.257 404.333, 813.817 402.393 Q 815.397 400.433, 818.417 400.433 Q 819.297 400.433, 820.037 400.633 Q 820.797 400.833, 821.517 401.253 L 820.737 402.593 Q 819.697 402.033, 818.437 402.033 Q 816.437 402.033, 815.417 403.333 Q 814.397 404.613, 814.277 407.273 Q 814.997 406.613, 815.897 406.273 Q 816.817 405.913, 817.797 405.913 M 817.337 413.273 Q 818.097 413.273, 818.717 412.873 Q 819.357 412.473, 819.717 411.773 Q 820.077 411.073, 820.077 410.213 Q 820.077 408.953, 819.377 408.233 Q 818.677 407.513, 817.437 407.513 Q 816.577 407.513, 815.717 407.873 Q 814.877 408.213, 814.277 408.813 Q 814.357 411.153, 815.097 412.213 Q 815.837 413.273, 817.337 413.273 " fill="#000000"/>
<path class="note" d="M 1621.06 24.9473 L 1622.76 24.9473 L 1622.76 26.5473 L 1621.06 26.5473 L 1621.06 29.8073 L 1619.18 29.8073 L 1619.18 26.5473 L 1611.86 26.5473 L 1611.86 25.2873 L 1618.06 15.6473 L 1621.06 15.6473 L 1621.06 24.9473 M 1614.18 24.9473 L 1619.18 24.9473 L 1619.18 16.9273 L 1614.18 24.9473 " fill="#000000"/>
<path class="note" d="M 1592.15 172.866 Q 1593.39 172.866, 1594.41 173.406 Q 1595.43 173.926, 1596.01 174.926 Q 1596.59 175.906, 1596.59 177.246 Q 1596.59 178.706, 1595.87 179.766 Q 1595.17 180.806, 1594.01 181.346 Q 1592.85 181.886, 1591.53 181.886 Q 1590.23 181.886, 1589.03 181.406 Q 1587.83 180.926, 1587.01 180.006 L 1588.21 178.766 Q 1588.87 179.486, 1589.77 179.886 Q 1590.67 180.266, 1591.59 180.266 Q 1592.85 180.266, 1593.71 179.486 Q 1594.59 178.706, 1594.59 177.286 Q 1594.59 175.786, 1593.71 175.086 Q 1592.85 174.366, 1591.47 174.366 Q 1590.23 174.366, 1588.85 174.906 L 1587.75 174.386 L 1588.43 167.566 L 1595.71 167.566 L 1595.51 169.166 L 1590.07 169.166 L 1589.65 173.366 Q 1590.91 172.866, 1592.15 172.866 " fill="#000000"/>
<path class="note" d="M 1677.29 261.203 Q 1678.53 261.203, 1679.51 261.743 Q 1680.49 262.283, 1681.03 263.263 Q 1681.57 264.243, 1681.57 265.483 Q 1681.57 266.863, 1680.95 267.943 Q 1680.35 269.003, 1679.27 269.603 Q 1678.19 270.203, 1676.81 270.203 Q 1674.29 270.203, 1673.01 268.503 Q 1671.75 266.783, 1671.75 263.383 Q 1671.75 259.623, 1673.31 257.683 Q 1674.89 255.723, 1677.91 255.723 Q 1678.79 255.723, 1679.53 255.923 Q 1680.29 256.123, 1681.01 256.543 L 1680.23 257.883 Q 1679.19 257.323, 1677.93 257.323 Q 1675.93 257.323, 1674.91 258.623 Q 1673.89 259.903, 1673.77 262.563 Q 1674.49 261.903, 1675.39 261.563 Q 1676.31 261.203, 1677.29 261.203 M 1676.83 268.563 Q 1677.59 268.563, 1678.21 268.163 Q 1678.85 267.763, 1679.21 267.063 Q 1679.57 266.363, 1679.57 265.503 Q 1679.57 264.243, 1678.87 263.523 Q 1678.17 262.803, 1676.93 262.803 Q 1676.07 262.803, 1675.21 263.163 Q 1674.37 263.503, 1673.77 264.103 Q 1673.85 266.443, 1674.59 267.503 Q 1675.33 268.563, 1676.83 268.563 " fill="#000000"/>
<path class="note" d="M 1639.74 394.616 L 1632.32 394.616 L 1632.32 393.016 L 1641.72 393.016 L 1641.72 394.436 L 1636 407.176 L 1634.08 407.176 L 1639.74 394.616 " fill="#000000"/>
<path class="note" d="M 1500.58 434.026 Q 1501.88 434.586, 1502.62 435.426 Q 1503.36 436.246, 1503.36 437.646 Q 1503.36 438.846, 1502.74 439.786 Q 1502.12 440.706, 1501 441.226 Q 1499.9 441.726, 1498.44 441.726 Q 1496.08 441.726, 1494.72 440.646 Q 1493.36 439.546, 1493.36 437.646 Q 1493.36 436.486, 1493.96 435.626 Q 1494.56 434.746, 1495.8 434.086 Q 1494.88 433.566, 1494.38 432.806 Q 1493.88 432.026, 1493.88 430.826 Q 1493.88 429.166, 1495.08 428.186 Q 1496.3 427.206, 1498.36 427.206 Q 1500.42 427.206, 1501.62 428.186 Q 1502.84 429.166, 1502.84 430.826 Q 1502.84 431.866, 1502.26 432.646 Q 1501.7 433.406, 1500.58 434.026 M 1498.36 428.706 Q 1497.18 428.706, 1496.52 429.266 Q 1495.88 429.826, 1495.88 430.826 Q 1495.88 431.566, 1496.32 432.066 Q 1496.76 432.546, 1497.38 432.826 Q 1498.02 433.106, 1499.24 433.526 Q 1500.1 432.926, 1500.46 432.286 Q 1500.84 431.646, 1500.84 430.826 Q 1500.84 429.826, 1500.18 429.266 Q 1499.54 428.706, 1498.36 428.706 M 1498.44 440.226 Q 1499.76 440.226, 1500.56 439.526 Q 1501.36 438.806, 1501.36 437.626 Q 1501.36 436.866, 1500.94 436.386 Q 1500.52 435.906, 1499.88 435.626 Q 1499.26 435.346, 1498.14 434.986 L 1497.24 434.686 Q 1496.24 435.286, 1495.8 436.006 Q 1495.36 436.706, 1495.36 437.626 Q 1495.36 438.806, 1496.2 439.526 Q 1497.04 440.226, 1498.44 440.226 " fill="#000000"/>
<path class="note" d="M 1411.33 338.27 Q 1413.85 338.27, 1415.11 339.99 Q 1416.39 341.69, 1416.39 345.09 Q 1416.39 348.85, 1414.81 350.81 Q 1413.25 352.75, 1410.23 352.75 Q 1409.35 352.75, 1408.59 352.55 Q 1407.85 352.35, 1407.13 351.93 L 1407.91 350.59 Q 1408.95 351.15, 1410.21 351.15 Q 1412.21 351.15, 1413.23 349.87 Q 1414.25 348.57, 1414.37 345.91 Q 1413.65 346.57, 1412.73 346.93 Q 1411.83 347.27, 1410.85 347.27 Q 1409.61 347.27, 1408.63 346.73 Q 1407.65 346.19, 1407.11 345.21 Q 1406.57 344.23, 1406.57 342.99 Q 1406.57 341.61, 1407.17 340.55 Q 1407.79 339.47, 1408.87 338.87 Q 1409.95 338.27, 1411.33 338.27 M 1408.57 342.97 Q 1408.57 344.23, 1409.27 344.95 Q 1409.97 345.67, 1411.21 345.67 Q 1412.07 345.67, 1412.91 345.33 Q 1413.77 344.97, 1414.37 344.37 Q 1414.29 342.03, 1413.55 340.97 Q 1412.81 339.91, 1411.31 339.91 Q 1410.55 339.91, 1409.91 340.31 Q 1409.29 340.71, 1408.93 341.41 Q 1408.57 342.11, 1408.57 342.97 " fill="#000000"/>
<path class="note" d="M 1260.37 369.895 L 1263.47 369.895 L 1263.47 359.315 L 1260.05 360.375 L 1259.59 359.195 L 1263.93 357.255 L 1265.35 357.495 L 1265.35 369.895 L 1268.13 369.895 L 1268.13 371.495 L 1260.37 371.495 L 1260.37 369.895 " fill="#000000"/>
<path class="note" d="M 1274.53 371.655 Q 1271.93 371.655, 1270.63 369.735 Q 1269.35 367.815, 1269.35 364.395 Q 1269.35 360.975, 1270.63 359.075 Q 1271.91 357.175, 1274.53 357.175 Q 1277.15 357.175, 1278.43 359.075 Q 1279.71 360.975, 1279.71 364.395 Q 1279.71 367.815, 1278.41 369.735 Q 1277.13 371.655, 1274.53 371.655 M 1274.53 370.055 Q 1276.07 370.055, 1276.89 368.635 Q 1277.71 367.195, 1277.71 364.395 Q 1277.71 361.615, 1276.89 360.195 Q 1276.07 358.775, 1274.53 358.775 Q 1273.01 358.775, 1272.17 360.195 Q 1271.35 361.615, 1271.35 364.395 Q 1271.35 367.195, 1272.17 368.635 Q 1273.01 370.055, 1274.53 370.055 " fill="#000000"/>
<path class="note" d="M 1223 215.282 L 1226.1 215.282 L 1226.1 204.702 L 1222.68 205.762 L 1222.22 204.582 L 1226.56 202.642 L 1227.98 202.882 L 1227.98 215.282 L 1230.76 215.282 L 1230.76 216.882 L 1223 216.882 L 1223 215.282 " fill="#000000"/>
<path class="note" d="M 1232.62 215.282 L 1235.72 215.282 L 1235.72 204.702 L 1232.3 205.762 L 1231.84 204.582 L 1236.18 202.642 L 1237.6 202.882 L 1237.6 215.282 L 1240.38 215.282 L 1240.38 216.882 L 1232.62 216.882 L 1232.62 215.282 " fill="#000000"/>
<path class="note" d="M 1338.09 125.419 L 1341.19 125.419 L 1341.19 114.839 L 1337.77 115.899 L 1337.31 114.719 L 1341.65 112.779 L 1343.07 113.019 L 1343.07 125.419 L 1345.85 125.419 L 1345.85 127.019 L 1338.09 127.019 L 1338.09 125.419 " fill="#000000"/>
<path class="note" d="M 1346.89 115.539 Q 1347.41 114.199, 1348.65 113.459 Q 1349.89 112.699, 1351.61 112.699 Q 1353.75 112.699, 1354.95 113.859 Q 1356.15 115.019, 1356.15 117.079 Q 1356.15 119.179, 1354.59 121.139 Q 1353.05 123.099, 1349.85 125.419 L 1356.39 125.419 L 1356.39 127.019 L 1346.85 127.019 L 1346.85 125.679 Q 1349.49 123.799, 1351.05 122.399 Q 1352.63 120.999, 1353.39 119.739 Q 1354.15 118.479, 1354.15 117.179 Q 1354.15 115.819, 1353.47 115.059 Q 1352.79 114.299, 1351.61 114.299 Q 1350.47 114.299, 1349.71 114.759 Q 1348.95 115.219, 1348.41 116.239 L 1346.89 115.539 " fill="#000000"/>
<path class="note" d="M 1447.38 174.304 L 1450.48 174.304 L 1450.48 163.724 L 1447.06 164.784 L 1446.6 163.604 L 1450.94 161.664 L 1452.36 161.904 L 1452.36 174.304 L 1455.14 174.304 L 1455.14 175.904 L 1447.38 175.904 L 1447.38 174.304 " fill="#000000"/>
<path class="note" d="M 1462.78 168.444 Q 1464.16 168.844, 1464.82 169.744 Q 1465.5 170.624, 1465.5 172.024 Q 1465.5 173.224, 1464.9 174.164 Q 1464.3 175.084, 1463.2 175.604 Q 1462.1 176.104, 1460.66 176.104 Q 1459.14 176.104, 1458 175.584 Q 1456.88 175.044, 1455.98 173.964 L 1457.12 172.804 Q 1458 173.764, 1458.74 174.144 Q 1459.48 174.504, 1460.66 174.504 Q 1461.94 174.504, 1462.72 173.824 Q 1463.5 173.124, 1463.5 172.004 Q 1463.5 170.564, 1462.68 169.924 Q 1461.88 169.264, 1460.14 169.264 L 1459.12 169.264 L 1459.12 167.824 L 1460.02 167.824 Q 1461.56 167.804, 1462.38 167.144 Q 1463.2 166.464, 1463.2 165.204 Q 1463.2 164.284, 1462.52 163.744 Q 1461.84 163.184, 1460.68 163.184 Q 1459.5 163.184, 1458.76 163.604 Q 1458.04 164.024, 1457.48 165.084 L 1456.1 164.344 Q 1456.6 163.164, 1457.8 162.384 Q 1459 161.584, 1460.68 161.584 Q 1462.76 161.584, 1463.98 162.564 Q 1465.2 163.544, 1465.2 165.204 Q 1465.2 166.344, 1464.58 167.164 Q 1463.96 167.984, 1462.78 168.444 " fill="#000000"/>
<path class="note" d="M 2333.74 337.509 L 2336.84 337.509 L 2336.84 326.929 L 2333.42 327.989 L 2332.96 326.809 L 2337.3 324.869 L 2338.72 325.109 L 2338.72 337.509 L 2341.5 337.509 L 2341.5 339.109 L 2333.74 339.109 L 2333.74 337.509 " fill="#000000"/>
<path class="note" d="M 2351.3 334.249 L 2353 334.249 L 2353 335.849 L 2351.3 335.849 L 2351.3 339.109 L 2349.42 339.109 L 2349.42 335.849 L 2342.1 335.849 L 2342.1 334.589 L 2348.3 324.949 L 2351.3 324.949 L 2351.3 334.249 M 2344.42 334.249 L 2349.42 334.249 L 2349.42 326.229 L 2344.42 334.249 " fill="#000000"/>
<path class="note" d="M 2419.86 240.958 L 2422.96 240.958 L 2422.96 230.378 L 2419.54 231.438 L 2419.08 230.258 L 2423.42 228.318 L 2424.84 228.558 L 2424.84 240.958 L 2427.62 240.958 L 2427.62 242.558 L 2419.86 242.558 L 2419.86 240.958 " fill="#000000"/>
<path class="note" d="M 2433.68 233.698 Q 2434.92 233.698, 2435.94 234.238 Q 2436.96 234.758, 2437.54 235.758 Q 2438.12 236.738, 2438.12 238.078 Q 2438.12 239.538, 2437.4 240.598 Q 2436.7 241.638, 2435.54 242.178 Q 2434.38 242.718, 2433.06 242.718 Q 2431.76 242.718, 2430.56 242.238 Q 2429.36 241.758, 2428.54 240.838 L 2429.74 239.598 Q 2430.4 240.318, 2431.3 240.718 Q 2432.2 241.098, 2433.12 241.098 Q 2434.38 241.098, 2435.24 240.318 Q 2436.12 239.538, 2436.12 238.118 Q 2436.12 236.618, 2435.24 235.918 Q 2434.38 235.198, 2433 235.198 Q 2431.76 235.198, 2430.38 235.738 L 2429.28 235.218 L 2429.96 228.398 L 2437.24 228.398 L 2437.04 229.998 L 2431.6 229.998 L 2431.18 234.198 Q 2432.44 233.698, 2433.68 233.698 " fill="#000000"/>
<path class="note" d="M 2571.08 340.283 L 2574.18 340.283 L 2574.18 329.703 L 2570.76 330.763 L 2570.3 329.583 L 2574.64 327.643 L 2576.06 327.883 L 2576.06 340.283 L 2578.84 340.283 L 2578.84 341.883 L 2571.08 341.883 L 2571.08 340.283 " fill="#000000"/>
<path class="note" d="M 2585.74 333.043 Q 2586.98 333.043, 2587.96 333.583 Q 2588.94 334.123, 2589.48 335.103 Q 2590.02 336.083, 2590.02 337.323 Q 2590.02 338.703, 2589.4 339.783 Q 2588.8 340.843, 2587.72 341.443 Q 2586.64 342.043, 2585.26 342.043 Q 2582.74 342.043, 2581.46 340.343 Q 2580.2 338.623, 2580.2 335.223 Q 2580.2 331.463, 2581.76 329.523 Q 2583.34 327.563, 2586.36 327.563 Q 2587.24 327.563, 2587.98 327.763 Q 2588.74 327.963, 2589.46 328.383 L 2588.68 329.723 Q 2587.64 329.163, 2586.38 329.163 Q 2584.38 329.163, 2583.36 330.463 Q 2582.34 331.743, 2582.22 334.403 Q 2582.94 333.743, 2583.84 333.403 Q 2584.76 333.043, 2585.74 333.043 M 2585.28 340.403 Q 2586.04 340.403, 2586.66 340.003 Q 2587.3 339.603, 2587.66 338.903 Q 2588.02 338.203, 2588.02 337.343 Q 2588.02 336.083, 2587.32 335.363 Q 2586.62 334.643, 2585.38 334.643 Q 2584.52 334.643, 2583.66 335.003 Q 2582.82 335.343, 2582.22 335.943 Q 2582.3 338.283, 2583.04 339.343 Q 2583.78 340.403, 2585.28 340.403 " fill="#000000"/>
<path class="note" d="M 2430.43 95.3978 L 2433.53 95.3978 L 2433.53 84.8178 L 2430.11 85.8778 L 2429.65 84.6978 L 2433.99 82.7578 L 2435.41 82.9978 L 2435.41 95.3978 L 2438.19 95.3978 L 2438.19 96.9978 L 2430.43 96.9978 L 2430.43 95.3978 " fill="#000000"/>
<path class="note" d="M 2445.97 84.4378 L 2438.55 84.4378 L 2438.55 82.8378 L 2447.95 82.8378 L 2447.95 84.2578 L 2442.23 96.9978 L 2440.31 96.9978 L 2445.97 84.4378 " fill="#000000"/>
<path class="note" d="M 3484.97 127.806 L 3488.07 127.806 L 3488.07 117.226 L 3484.65 118.286 L 3484.19 117.106 L 3488.53 115.166 L 3489.95 115.406 L 3489.95 127.806 L 3492.73 127.806 L 3492.73 129.406 L 3484.97 129.406 L 3484.97 127.806 " fill="#000000"/>
<path class="note" d="M 3399.54 192.218 Q 3400.06 190.878, 3401.3 190.138 Q 3402.54 189.378, 3404.26 189.378 Q 3406.4 189.378, 3407.6 190.538 Q 3408.8 191.698, 3408.8 193.758 Q 3408.8 195.858, 3407.24 197.818 Q 3405.7 199.778, 3402.5 202.098 L 3409.04 202.098 L 3409.04 203.698 L 3399.5 203.698 L 3399.5 202.358 Q 3402.14 200.478, 3403.7 199.078 Q 3405.28 197.678, 3406.04 196.418 Q 3406.8 195.158, 3406.8 193.858 Q 3406.8 192.498, 3406.12 191.738 Q 3405.44 190.978, 3404.26 190.978 Q 3403.12 190.978, 3402.36 191.438 Q 3401.6 191.898, 3401.06 192.918 L 3399.54 192.218 " fill="#000000"/>
<path class="note" d="M 3438.25 377.073 Q 3439.63 377.473, 3440.29 378.373 Q 3440.97 379.253, 3440.97 380.653 Q 3440.97 381.853, 3440.37 382.793 Q 3439.77 383.713, 3438.67 384.233 Q 3437.57 384.733, 3436.13 384.733 Q 3434.61 384.733, 3433.47 384.213 Q 3432.35 383.673, 3431.45 382.593 L 3432.59 381.433 Q 3433.47 382.393, 3434.21 382.773 Q 3434.95 383.133, 3436.13 383.133 Q 3437.41 383.133, 3438.19 382.453 Q 3438.97 381.753, 3438.97 380.633 Q 3438.97 379.193, 3438.15 378.553 Q 3437.35 377.893, 3435.61 377.893 L 3434.59 377.893 L 3434.59 376.453 L 3435.49 376.453 Q 3437.03 376.433, 3437.85 375.773 Q 3438.67 375.093, 3438.67 373.833 Q 3438.67 372.913, 3437.99 372.373 Q 3437.31 371.813, 3436.15 371.813 Q 3434.97 371.813, 3434.23 372.233 Q 3433.51 372.653, 3432.95 373.713 L 3431.57 372.973 Q 3432.07 371.793, 3433.27 371.013 Q 3434.47 370.213, 3436.15 370.213 Q 3438.23 370.213, 3439.45 371.193 Q 3440.67 372.173, 3440.67 373.833 Q 3440.67 374.973, 3440.05 375.793 Q 3439.43 376.613, 3438.25 377.073 " fill="#000000"/>
<path class="note" d="M 3270.28 145.761 L 3271.98 145.761 L 3271.98 147.361 L 3270.28 147.361 L 3270.28 150.621 L 3268.4 150.621 L 3268.4 147.361 L 3261.08 147.361 L 3261.08 146.101 L 3267.28 136.461 L 3270.28 136.461 L 3270.28 145.761 M 3263.4 145.761 L 3268.4 145.761 L 3268.4 137.741 L 3263.4 145.761 " fill="#000000"/>
<path class="note" d="M 3218.53 258.706 Q 3219.77 258.706, 3220.79 259.246 Q 3221.81 259.766, 3222.39 260.766 Q 3222.97 261.746, 3222.97 263.086 Q 3222.97 264.546, 3222.25 265.606 Q 3221.55 266.646, 3220.39 267.186 Q 3219.23 267.726, 3217.91 267.726 Q 3216.61 267.726, 3215.41 267.246 Q 3214.21 266.766, 3213.39 265.846 L 3214.59 264.606 Q 3215.25 265.326, 3216.15 265.726 Q 3217.05 266.106, 3217.97 266.106 Q 3219.23 266.106, 3220.09 265.326 Q 3220.97 264.546, 3220.97 263.126 Q 3220.97 261.626, 3220.09 260.926 Q 3219.23 260.206, 3217.85 260.206 Q 3216.61 260.206, 3215.23 260.746 L 3214.13 260.226 L 3214.81 253.406 L 3222.09 253.406 L 3221.89 255.006 L 3216.45 255.006 L 3216.03 259.206 Q 3217.29 258.706, 3218.53 258.706 " fill="#000000"/>
<path class="note" d="M 3240.11 379.362 Q 3241.35 379.362, 3242.33 379.902 Q 3243.31 380.442, 3243.85 381.422 Q 3244.39 382.402, 3244.39 383.642 Q 3244.39 385.022, 3243.77 386.102 Q 3243.17 387.162, 3242.09 387.762 Q 3241.01 388.362, 3239.63 388.362 Q 3237.11 388.362, 3235.83 386.662 Q 3234.57 384.942, 3234.57 381.542 Q 3234.57 377.782, 3236.13 375.842 Q 3237.71 373.882, 3240.73 373.882 Q 3241.61 373.882, 3242.35 374.082 Q 3243.11 374.282, 3243.83 374.702 L 3243.05 376.042 Q 3242.01 375.482, 3240.75 375.482 Q 3238.75 375.482, 3237.73 376.782 Q 3236.71 378.062, 3236.59 380.722 Q 3237.31 380.062, 3238.21 379.722 Q 3239.13 379.362, 3240.11 379.362 M 3239.65 386.722 Q 3240.41 386.722, 3241.03 386.322 Q 3241.67 385.922, 3242.03 385.222 Q 3242.39 384.522, 3242.39 383.662 Q 3242.39 382.402, 3241.69 381.682 Q 3240.99 380.962, 3239.75 380.962 Q 3238.89 380.962, 3238.03 381.322 Q 3237.19 381.662, 3236.59 382.262 Q 3236.67 384.602, 3237.41 385.662 Q 3238.15 386.722, 3239.65 386.722 " fill="#000000"/>
<path class="note" d="M 3132.81 467.401 L 3125.39 467.401 L 3125.39 465.801 L 3134.79 465.801 L 3134.79 467.221 L 3129.07 479.961 L 3127.15 479.961 L 3132.81 467.401 " fill="#000000"/>
<path class="note" d="M 2998.09 423.731 Q 2999.39 424.291, 3000.13 425.131 Q 3000.87 425.951, 3000.87 427.351 Q 3000.87 428.551, 3000.25 429.491 Q 2999.63 430.411, 2998.51 430.931 Q 2997.41 431.431, 2995.95 431.431 Q 2993.59 431.431, 2992.23 430.351 Q 2990.87 429.251, 2990.87 427.351 Q 2990.87 426.191, 2991.47 425.331 Q 2992.07 424.451, 2993.31 423.791 Q 2992.39 423.271, 2991.89 422.511 Q 2991.39 421.731, 2991.39 420.531 Q 2991.39 418.871, 2992.59 417.891 Q 2993.81 416.911, 2995.87 416.911 Q 2997.93 416.911, 2999.13 417.891 Q 3000.35 418.871, 3000.35 420.531 Q 3000.35 421.571, 2999.77 422.351 Q 2999.21 423.111, 2998.09 423.731 M 2995.87 418.411 Q 2994.69 418.411, 2994.03 418.971 Q 2993.39 419.531, 2993.39 420.531 Q 2993.39 421.271, 2993.83 421.771 Q 2994.27 422.251, 2994.89 422.531 Q 2995.53 422.811, 2996.75 423.231 Q 2997.61 422.631, 2997.97 421.991 Q 2998.35 421.351, 2998.35 420.531 Q 2998.35 419.531, 2997.69 418.971 Q 2997.05 418.411, 2995.87 418.411 M 2995.95 429.931 Q 2997.27 429.931, 2998.07 429.231 Q 2998.87 428.511, 2998.87 427.331 Q 2998.87 426.571, 2998.45 426.091 Q 2998.03 425.611, 2997.39 425.331 Q 2996.77 425.051, 2995.65 424.691 L 2994.75 424.391 Q 2993.75 424.991, 2993.31 425.711 Q 2992.87 426.411, 2992.87 427.331 Q 2992.87 428.511, 2993.71 429.231 Q 2994.55 429.931, 2995.95 429.931 " fill="#000000"/>
<path class="note" d="M 2973.14 294.649 Q 2975.66 294.649, 2976.92 296.369 Q 2978.2 298.069, 2978.2 301.469 Q 2978.2 305.229, 2976.62 307.189 Q 2975.06 309.129, 2972.04 309.129 Q 2971.16 309.129, 2970.4 308.929 Q 2969.66 308.729, 2968.94 308.309 L 2969.72 306.969 Q 2970.76 307.529, 2972.02 307.529 Q 2974.02 307.529, 2975.04 306.249 Q 2976.06 304.949, 2976.18 302.289 Q 2975.46 302.949, 2974.54 303.309 Q 2973.64 303.649, 2972.66 303.649 Q 2971.42 303.649, 2970.44 303.109 Q 2969.46 302.569, 2968.92 301.589 Q 2968.38 300.609, 2968.38 299.369 Q 2968.38 297.989, 2968.98 296.929 Q 2969.6 295.849, 2970.68 295.249 Q 2971.76 294.649, 2973.14 294.649 M 2970.38 299.349 Q 2970.38 300.609, 2971.08 301.329 Q 2971.78 302.049, 2973.02 302.049 Q 2973.88 302.049, 2974.72 301.709 Q 2975.58 301.349, 2976.18 300.749 Q 2976.1 298.409, 2975.36 297.349 Q 2974.62 296.289, 2973.12 296.289 Q 2972.36 296.289, 2971.72 296.689 Q 2971.1 297.089, 2970.74 297.789 Q 2970.38 298.489, 2970.38 299.349 " fill="#000000"/>
<path class="note" d="M 2834.98 246.408 L 2838.08 246.408 L 2838.08 235.828 L 2834.66 236.888 L 2834.2 235.708 L 2838.54 233.768 L 2839.96 234.008 L 2839.96 246.408 L 2842.74 246.408 L 2842.74 248.008 L 2834.98 248.008 L 2834.98 246.408 " fill="#000000"/>
<path class="note" d="M 2849.14 248.168 Q 2846.54 248.168, 2845.24 246.248 Q 2843.96 244.328, 2843.96 240.908 Q 2843.96 237.488, 2845.24 235.588 Q 2846.52 233.688, 2849.14 233.688 Q 2851.76 233.688, 2853.04 235.588 Q 2854.32 237.488, 2854.32 240.908 Q 2854.32 244.328, 2853.02 246.248 Q 2851.74 248.168, 2849.14 248.168 M 2849.14 246.568 Q 2850.68 246.568, 2851.5 245.148 Q 2852.32 243.708, 2852.32 240.908 Q 2852.32 238.128, 2851.5 236.708 Q 2850.68 235.288, 2849.14 235.288 Q 2847.62 235.288, 2846.78 236.708 Q 2845.96 238.128, 2845.96 240.908 Q 2845.96 243.708, 2846.78 245.148 Q 2847.62 246.568, 2849.14 246.568 " fill="#000000"/>
<path class="note" d="M 2890.25 96.6496 L 2893.35 96.6496 L 2893.35 86.0696 L 2889.93 87.1296 L 2889.47 85.9496 L 2893.81 84.0096 L 2895.23 84.2496 L 2895.23 96.6496 L 2898.01 96.6496 L 2898.01 98.2496 L 2890.25 98.2496 L 2890.25 96.6496 " fill="#000000"/>
<path class="note" d="M 2899.87 96.6496 L 2902.97 96.6496 L 2902.97 86.0696 L 2899.55 87.1296 L 2899.09 85.9496 L 2903.43 84.0096 L 2904.85 84.2496 L 2904.85 96.6496 L 2907.63 96.6496 L 2907.63 98.2496 L 2899.87 98.2496 L 2899.87 96.6496 " fill="#000000"/>
<path class="note" d="M 3035.84 86.434 L 3038.94 86.434 L 3038.94 75.854 L 3035.52 76.914 L 3035.06 75.734 L 3039.4 73.794 L 3040.82 74.034 L 3040.82 86.434 L 3043.6 86.434 L 3043.6 88.034 L 3035.84 88.034 L 3035.84 86.434 " fill="#000000"/>
<path class="note" d="M 3044.64 76.554 Q 3045.16 75.214, 3046.4 74.474 Q 3047.64 73.714, 3049.36 73.714 Q 3051.5 73.714, 3052.7 74.874 Q 3053.9 76.034, 3053.9 78.094 Q 3053.9 80.194, 3052.34 82.154 Q 3050.8 84.114, 3047.6 86.434 L 3054.14 86.434 L 3054.14 88.034 L 3044.6 88.034 L 3044.6 86.694 Q 3047.24 84.814, 3048.8 83.414 Q 3050.38 82.014, 3051.14 80.754 Q 3051.9 79.494, 3051.9 78.194 Q 3051.9 76.834, 3051.22 76.074 Q 3050.54 75.314, 3049.36 75.314 Q 3048.22 75.314, 3047.46 75.774 Q 3046.7 76.234, 3046.16 77.254 L 3044.64 76.554 " fill="#000000"/>
<path class="note" d="M 3099.36 187.873 L 3102.46 187.873 L 3102.46 177.293 L 3099.04 178.353 L 3098.58 177.173 L 3102.92 175.233 L 3104.34 175.473 L 3104.34 187.873 L 3107.12 187.873 L 3107.12 189.473 L 3099.36 189.473 L 3099.36 187.873 " fill="#000000"/>
<path class="note" d="M 3114.76 182.013 Q 3116.14 182.413, 3116.8 183.313 Q 3117.48 184.193, 3117.48 185.593 Q 3117.48 186.793, 3116.88 187.733 Q 3116.28 188.653, 3115.18 189.173 Q 3114.08 189.673, 3112.64 189.673 Q 3111.12 189.673, 3109.98 189.153 Q 3108.86 188.613, 3107.96 187.533 L 3109.1 186.373 Q 3109.98 187.333, 3110.72 187.713 Q 3111.46 188.073, 3112.64 188.073 Q 3113.92 188.073, 3114.7 187.393 Q 3115.48 186.693, 3115.48 185.573 Q 3115.48 184.133, 3114.66 183.493 Q 3113.86 182.833, 3112.12 182.833 L 3111.1 182.833 L 3111.1 181.393 L 3112 181.393 Q 3113.54 181.373, 3114.36 180.713 Q 3115.18 180.033, 3115.18 178.773 Q 3115.18 177.853, 3114.5 177.313 Q 3113.82 176.753, 3112.66 176.753 Q 3111.48 176.753, 3110.74 177.173 Q 3110.02 177.593, 3109.46 178.653 L 3108.08 177.913 Q 3108.58 176.733, 3109.78 175.953 Q 3110.98 175.153, 3112.66 175.153 Q 3114.74 175.153, 3115.96 176.133 Q 3117.18 177.113, 3117.18 178.773 Q 3117.18 179.913, 3116.56 180.733 Q 3115.94 181.553, 3114.76 182.013 " fill="#000000"/>
<path d="M 1083.67 250.93 L 1089.72 250.93 L 1089.72 244.562 L 1092.4 244.562 L 1092.4 250.93 L 1098.61 250.93 L 1098.61 253.234 L 1092.4 253.234 L 1092.4 259.634 L 1089.72 259.634 L 1089.72 253.234 L 1083.67 253.234 L 1083.67 250.93 " fill="#000000"/>
<path d="M 2714.56 250.93 L 2720.61 250.93 L 2720.61 244.562 L 2723.3 244.562 L 2723.3 250.93 L 2729.51 250.93 L 2729.51 253.234 L 2723.3 253.234 L 2723.3 259.634 L 2720.61 259.634 L 2720.61 253.234 L 2714.56 253.234 L 2714.56 250.93 " fill="#000000"/>
<path d="M 1801.15,253.234 L 2127.61,253.234" style="fill:none;fill-rule:evenodd;stroke:#000000;stroke-width:2.0px;stroke-linecap:butt;stroke-linejoin:miter;stroke-opacity:1"/>
<path d="M 2127.61,253.234 L 2113.47,245.072" style="fill:none;fill-rule:evenodd;stroke:#000000;stroke-width:2.0px;stroke-linecap:butt;stroke-linejoin:miter;stroke-opacity:1"/>
<path d="M 2127.61,253.234 L 2113.47,261.395" style="fill:none;fill-rule:evenodd;stroke:#000000;stroke-width:2.0px;stroke-linecap:butt;stroke-linejoin:miter;stroke-opacity:1"/>
</svg>