<svg xmlns="http://www.w3.org/2000/svg" xmlns:rdkit="http://www.rdkit.org/xml" xmlns:xlink="http://www.w3.org/1999/xlink" version="1.1" baseProfile="full" xml:space="preserve" width="4000px" height="500px" viewBox="0 0 4000 500">
<!-- END OF HEADER -->
<rect style="opacity:1.0;fill:#FFFFFF;stroke:none" width="4000" height="500" x="0" y="0"> </rect>
<path class="bond-0" d="M 181.818,164.607 L 316.113,242.142" style="fill:none;fill-rule:evenodd;stroke:#000000;stroke-width:2.0px;stroke-linecap:butt;stroke-linejoin:miter;stroke-opacity:1"/>
<path class="bond-1" d="M 300.606,242.142 L 300.606,310.578" style="fill:none;fill-rule:evenodd;stroke:#000000;stroke-width:2.0px;stroke-linecap:butt;stroke-linejoin:miter;stroke-opacity:1"/>
<path class="bond-1" d="M 300.606,310.578 L 300.606,379.015" style="fill:none;fill-rule:evenodd;stroke:#FF0000;stroke-width:2.0px;stroke-linecap:butt;stroke-linejoin:miter;stroke-opacity:1"/>
<path class="bond-1" d="M 331.62,242.142 L 331.62,310.578" style="fill:none;fill-rule:evenodd;stroke:#000000;stroke-width:2.0px;stroke-linecap:butt;stroke-linejoin:miter;stroke-opacity:1"/>
<path class="bond-1" d="M 331.62,310.578 L 331.62,379.015" style="fill:none;fill-rule:evenodd;stroke:#FF0000;stroke-width:2.0px;stroke-linecap:butt;stroke-linejoin:miter;stroke-opacity:1"/>
<path class="bond-2" d="M 316.113,242.142 L 374.822,208.246" style="fill:none;fill-rule:evenodd;stroke:#000000;stroke-width:2.0px;stroke-linecap:butt;stroke-linejoin:miter;stroke-opacity:1"/>
<path class="bond-2" d="M 374.822,208.246 L 433.53,174.351" style="fill:none;fill-rule:evenodd;stroke:#FF0000;stroke-width:2.0px;stroke-linecap:butt;stroke-linejoin:miter;stroke-opacity:1"/>
<path class="bond-3" d="M 467.284,174.351 L 525.993,208.246" style="fill:none;fill-rule:evenodd;stroke:#FF0000;stroke-width:2.0px;stroke-linecap:butt;stroke-linejoin:miter;stroke-opacity:1"/>
<path class="bond-3" d="M 525.993,208.246 L 584.702,242.142" style="fill:none;fill-rule:evenodd;stroke:#000000;stroke-width:2.0px;stroke-linecap:butt;stroke-linejoin:miter;stroke-opacity:1"/>
<path class="bond-4" d="M 584.702,242.142 L 718.996,164.607" style="fill:none;fill-rule:evenodd;stroke:#000000;stroke-width:2.0px;stroke-linecap:butt;stroke-linejoin:miter;stroke-opacity:1"/>
<path class="bond-5" d="M 569.195,242.142 L 569.195,310.578" style="fill:none;fill-rule:evenodd;stroke:#000000;stroke-width:2.0px;stroke-linecap:butt;stroke-linejoin:miter;stroke-opacity:1"/>
<path class="bond-5" d="M 569.195,310.578 L 569.195,379.015" style="fill:none;fill-rule:evenodd;stroke:#FF0000;stroke-width:2.0px;stroke-linecap:butt;stroke-linejoin:miter;stroke-opacity:1"/>
<path class="bond-5" d="M 600.209,242.142 L 600.209,310.578" style="fill:none;fill-rule:evenodd;stroke:#000000;stroke-width:2.0px;stroke-linecap:butt;stroke-linejoin:miter;stroke-opacity:1"/>
<path class="bond-5" d="M 600.209,310.578 L 600.209,379.015" style="fill:none;fill-rule:evenodd;stroke:#FF0000;stroke-width:2.0px;stroke-linecap:butt;stroke-linejoin:miter;stroke-opacity:1"/>
<path class="bond-6" d="M 1611.37,253.218 L 1541.15,253.218" style="fill:none;fill-rule:evenodd;stroke:#0000FF;stroke-width:2.0px;stroke-linecap:butt;stroke-linejoin:miter;stroke-opacity:1"/>
<path class="bond-6" d="M 1541.15,253.218 L 1470.92,253.218" style="fill:none;fill-rule:evenodd;stroke:#000000;stroke-width:2.0px;stroke-linecap:butt;stroke-linejoin:miter;stroke-opacity:1"/>
<path class="bond-7" d="M 1470.92,253.218 L 1393.39,387.513" style="fill:none;fill-rule:evenodd;stroke:#000000;stroke-width:2.0px;stroke-linecap:butt;stroke-linejoin:miter;stroke-opacity:1"/>
<path class="bond-7" d="M 1432.43,257.855 L 1378.16,351.862" style="fill:none;fill-rule:evenodd;stroke:#000000;stroke-width:2.0px;stroke-linecap:butt;stroke-linejoin:miter;stroke-opacity:1;stroke-dasharray:6,6"/>
<path class="bond-13" d="M 1470.92,253.218 L 1393.39,118.924" style="fill:none;fill-rule:evenodd;stroke:#000000;stroke-width:2.0px;stroke-linecap:butt;stroke-linejoin:miter;stroke-opacity:1"/>
<path class="bond-13" d="M 1432.43,248.581 L 1378.16,154.575" style="fill:none;fill-rule:evenodd;stroke:#000000;stroke-width:2.0px;stroke-linecap:butt;stroke-linejoin:miter;stroke-opacity:1;stroke-dasharray:6,6"/>
<path class="bond-8" d="M 1393.39,387.513 L 1238.32,387.513" style="fill:none;fill-rule:evenodd;stroke:#000000;stroke-width:2.0px;stroke-linecap:butt;stroke-linejoin:miter;stroke-opacity:1"/>
<path class="bond-8" d="M 1370.12,356.499 L 1261.58,356.499" style="fill:none;fill-rule:evenodd;stroke:#000000;stroke-width:2.0px;stroke-linecap:butt;stroke-linejoin:miter;stroke-opacity:1;stroke-dasharray:6,6"/>
<path class="bond-9" d="M 1238.32,387.513 L 1160.78,253.218" style="fill:none;fill-rule:evenodd;stroke:#000000;stroke-width:2.0px;stroke-linecap:butt;stroke-linejoin:miter;stroke-opacity:1"/>
<path class="bond-9" d="M 1253.54,351.862 L 1199.27,257.855" style="fill:none;fill-rule:evenodd;stroke:#000000;stroke-width:2.0px;stroke-linecap:butt;stroke-linejoin:miter;stroke-opacity:1;stroke-dasharray:6,6"/>
<path class="bond-10" d="M 1160.78,253.218 L 1091.68,253.218" style="fill:none;fill-rule:evenodd;stroke:#000000;stroke-width:2.0px;stroke-linecap:butt;stroke-linejoin:miter;stroke-opacity:1"/>
<path class="bond-10" d="M 1091.68,253.218 L 1022.59,253.218" style="fill:none;fill-rule:evenodd;stroke:#FF0000;stroke-width:2.0px;stroke-linecap:butt;stroke-linejoin:miter;stroke-opacity:1"/>
<path class="bond-11" d="M 1160.78,253.218 L 1238.32,118.924" style="fill:none;fill-rule:evenodd;stroke:#000000;stroke-width:2.0px;stroke-linecap:butt;stroke-linejoin:miter;stroke-opacity:1"/>
<path class="bond-11" d="M 1199.27,248.581 L 1253.54,154.575" style="fill:none;fill-rule:evenodd;stroke:#000000;stroke-width:2.0px;stroke-linecap:butt;stroke-linejoin:miter;stroke-opacity:1;stroke-dasharray:6,6"/>
<path class="bond-12" d="M 1238.32,118.924 L 1393.39,118.924" style="fill:none;fill-rule:evenodd;stroke:#000000;stroke-width:2.0px;stroke-linecap:butt;stroke-linejoin:miter;stroke-opacity:1"/>
<path class="bond-12" d="M 1261.58,149.938 L 1370.12,149.938" style="fill:none;fill-rule:evenodd;stroke:#000000;stroke-width:2.0px;stroke-linecap:butt;stroke-linejoin:miter;stroke-opacity:1;stroke-dasharray:6,6"/>
<path class="bond-14" d="M 2392.48,281.954 L 2542.27,241.819" style="fill:none;fill-rule:evenodd;stroke:#000000;stroke-width:2.0px;stroke-linecap:butt;stroke-linejoin:miter;stroke-opacity:1"/>
<path class="bond-15" d="M 2557.24,245.832 L 2574.81,180.257" style="fill:none;fill-rule:evenodd;stroke:#000000;stroke-width:2.0px;stroke-linecap:butt;stroke-linejoin:miter;stroke-opacity:1"/>
<path class="bond-15" d="M 2574.81,180.257 L 2592.39,114.683" style="fill:none;fill-rule:evenodd;stroke:#FF0000;stroke-width:2.0px;stroke-linecap:butt;stroke-linejoin:miter;stroke-opacity:1"/>
<path class="bond-15" d="M 2527.29,237.805 L 2544.86,172.23" style="fill:none;fill-rule:evenodd;stroke:#000000;stroke-width:2.0px;stroke-linecap:butt;stroke-linejoin:miter;stroke-opacity:1"/>
<path class="bond-15" d="M 2544.86,172.23 L 2562.43,106.656" style="fill:none;fill-rule:evenodd;stroke:#FF0000;stroke-width:2.0px;stroke-linecap:butt;stroke-linejoin:miter;stroke-opacity:1"/>
<path class="bond-16" d="M 2542.27,241.819 L 2589.78,289.336" style="fill:none;fill-rule:evenodd;stroke:#000000;stroke-width:2.0px;stroke-linecap:butt;stroke-linejoin:miter;stroke-opacity:1"/>
<path class="bond-16" d="M 2589.78,289.336 L 2637.3,336.853" style="fill:none;fill-rule:evenodd;stroke:#0000FF;stroke-width:2.0px;stroke-linecap:butt;stroke-linejoin:miter;stroke-opacity:1"/>
<path class="bond-17" d="M 2666.53,347.553 L 2734.12,329.444" style="fill:none;fill-rule:evenodd;stroke:#0000FF;stroke-width:2.0px;stroke-linecap:butt;stroke-linejoin:miter;stroke-opacity:1"/>
<path class="bond-17" d="M 2734.12,329.444 L 2801.7,311.335" style="fill:none;fill-rule:evenodd;stroke:#000000;stroke-width:2.0px;stroke-linecap:butt;stroke-linejoin:miter;stroke-opacity:1"/>
<path class="bond-18" d="M 2801.7,311.335 L 2841.84,161.548" style="fill:none;fill-rule:evenodd;stroke:#000000;stroke-width:2.0px;stroke-linecap:butt;stroke-linejoin:miter;stroke-opacity:1"/>
<path class="bond-18" d="M 2837.68,296.894 L 2865.77,192.043" style="fill:none;fill-rule:evenodd;stroke:#000000;stroke-width:2.0px;stroke-linecap:butt;stroke-linejoin:miter;stroke-opacity:1;stroke-dasharray:6,6"/>
<path class="bond-24" d="M 2801.7,311.335 L 2911.35,420.986" style="fill:none;fill-rule:evenodd;stroke:#000000;stroke-width:2.0px;stroke-linecap:butt;stroke-linejoin:miter;stroke-opacity:1"/>
<path class="bond-24" d="M 2840.08,305.852 L 2916.84,382.608" style="fill:none;fill-rule:evenodd;stroke:#000000;stroke-width:2.0px;stroke-linecap:butt;stroke-linejoin:miter;stroke-opacity:1;stroke-dasharray:6,6"/>
<path class="bond-19" d="M 2841.84,161.548 L 2991.62,121.413" style="fill:none;fill-rule:evenodd;stroke:#000000;stroke-width:2.0px;stroke-linecap:butt;stroke-linejoin:miter;stroke-opacity:1"/>
<path class="bond-19" d="M 2872.33,185.485 L 2977.18,157.391" style="fill:none;fill-rule:evenodd;stroke:#000000;stroke-width:2.0px;stroke-linecap:butt;stroke-linejoin:miter;stroke-opacity:1;stroke-dasharray:6,6"/>
<path class="bond-20" d="M 2991.62,121.413 L 3101.27,231.064" style="fill:none;fill-rule:evenodd;stroke:#000000;stroke-width:2.0px;stroke-linecap:butt;stroke-linejoin:miter;stroke-opacity:1"/>
<path class="bond-20" d="M 2986.14,159.791 L 3062.9,236.547" style="fill:none;fill-rule:evenodd;stroke:#000000;stroke-width:2.0px;stroke-linecap:butt;stroke-linejoin:miter;stroke-opacity:1;stroke-dasharray:6,6"/>
<path class="bond-21" d="M 3101.27,231.064 L 3167.73,213.258" style="fill:none;fill-rule:evenodd;stroke:#000000;stroke-width:2.0px;stroke-linecap:butt;stroke-linejoin:miter;stroke-opacity:1"/>
<path class="bond-21" d="M 3167.73,213.258 L 3234.18,195.451" style="fill:none;fill-rule:evenodd;stroke:#FF0000;stroke-width:2.0px;stroke-linecap:butt;stroke-linejoin:miter;stroke-opacity:1"/>
<path class="bond-22" d="M 3101.27,231.064 L 3061.14,380.85" style="fill:none;fill-rule:evenodd;stroke:#000000;stroke-width:2.0px;stroke-linecap:butt;stroke-linejoin:miter;stroke-opacity:1"/>
<path class="bond-22" d="M 3065.3,245.505 L 3037.2,350.356" style="fill:none;fill-rule:evenodd;stroke:#000000;stroke-width:2.0px;stroke-linecap:butt;stroke-linejoin:miter;stroke-opacity:1;stroke-dasharray:6,6"/>
<path class="bond-23" d="M 3061.14,380.85 L 2911.35,420.986" style="fill:none;fill-rule:evenodd;stroke:#000000;stroke-width:2.0px;stroke-linecap:butt;stroke-linejoin:miter;stroke-opacity:1"/>
<path class="bond-23" d="M 3030.64,356.914 L 2925.79,385.008" style="fill:none;fill-rule:evenodd;stroke:#000000;stroke-width:2.0px;stroke-linecap:butt;stroke-linejoin:miter;stroke-opacity:1;stroke-dasharray:6,6"/>
<path class="bond-25" d="M 3537.77,330.753 L 3672.07,253.218" style="fill:none;fill-rule:evenodd;stroke:#000000;stroke-width:2.0px;stroke-linecap:butt;stroke-linejoin:miter;stroke-opacity:1"/>
<path class="bond-26" d="M 3664.32,266.648 L 3723.02,300.543" style="fill:none;fill-rule:evenodd;stroke:#000000;stroke-width:2.0px;stroke-linecap:butt;stroke-linejoin:miter;stroke-opacity:1"/>
<path class="bond-26" d="M 3723.02,300.543 L 3781.73,334.439" style="fill:none;fill-rule:evenodd;stroke:#FF0000;stroke-width:2.0px;stroke-linecap:butt;stroke-linejoin:miter;stroke-opacity:1"/>
<path class="bond-26" d="M 3679.82,239.789 L 3738.53,273.684" style="fill:none;fill-rule:evenodd;stroke:#000000;stroke-width:2.0px;stroke-linecap:butt;stroke-linejoin:miter;stroke-opacity:1"/>
<path class="bond-26" d="M 3738.53,273.684 L 3797.24,307.58" style="fill:none;fill-rule:evenodd;stroke:#FF0000;stroke-width:2.0px;stroke-linecap:butt;stroke-linejoin:miter;stroke-opacity:1"/>
<path class="bond-27" d="M 3672.07,253.218 L 3672.07,185.002" style="fill:none;fill-rule:evenodd;stroke:#000000;stroke-width:2.0px;stroke-linecap:butt;stroke-linejoin:miter;stroke-opacity:1"/>
<path class="bond-27" d="M 3672.07,185.002 L 3672.07,116.785" style="fill:none;fill-rule:evenodd;stroke:#FF0000;stroke-width:2.0px;stroke-linecap:butt;stroke-linejoin:miter;stroke-opacity:1"/>
<path class="atom-2" d="M 303.113 397.292 Q 303.113 390.492, 306.473 386.692 Q 309.833 382.892, 316.113 382.892 Q 322.393 382.892, 325.753 386.692 Q 329.113 390.492, 329.113 397.292 Q 329.113 404.172, 325.713 408.092 Q 322.313 411.972, 316.113 411.972 Q 309.873 411.972, 306.473 408.092 Q 303.113 404.212, 303.113 397.292 M 316.113 408.772 Q 320.433 408.772, 322.753 405.892 Q 325.113 402.972, 325.113 397.292 Q 325.113 391.732, 322.753 388.932 Q 320.433 386.092, 316.113 386.092 Q 311.793 386.092, 309.433 388.892 Q 307.113 391.692, 307.113 397.292 Q 307.113 403.012, 309.433 405.892 Q 311.793 408.772, 316.113 408.772 " fill="#FF0000"/>
<path class="atom-3" d="M 437.407 164.687 Q 437.407 157.887, 440.767 154.087 Q 444.127 150.287, 450.407 150.287 Q 456.687 150.287, 460.047 154.087 Q 463.407 157.887, 463.407 164.687 Q 463.407 171.567, 460.007 175.487 Q 456.607 179.367, 450.407 179.367 Q 444.167 179.367, 440.767 175.487 Q 437.407 171.607, 437.407 164.687 M 450.407 176.167 Q 454.727 176.167, 457.047 173.287 Q 459.407 170.367, 459.407 164.687 Q 459.407 159.127, 457.047 156.327 Q 454.727 153.487, 450.407 153.487 Q 446.087 153.487, 443.727 156.287 Q 441.407 159.087, 441.407 164.687 Q 441.407 170.407, 443.727 173.287 Q 446.087 176.167, 450.407 176.167 " fill="#FF0000"/>
<path class="atom-6" d="M 571.702 397.292 Q 571.702 390.492, 575.062 386.692 Q 578.422 382.892, 584.702 382.892 Q 590.982 382.892, 594.342 386.692 Q 597.702 390.492, 597.702 397.292 Q 597.702 404.172, 594.302 408.092 Q 590.902 411.972, 584.702 411.972 Q 578.462 411.972, 575.062 408.092 Q 571.702 404.212, 571.702 397.292 M 584.702 408.772 Q 589.022 408.772, 591.342 405.892 Q 593.702 402.972, 593.702 397.292 Q 593.702 391.732, 591.342 388.932 Q 589.022 386.092, 584.702 386.092 Q 580.382 386.092, 578.022 388.892 Q 575.702 391.692, 575.702 397.292 Q 575.702 403.012, 578.022 405.892 Q 580.382 408.772, 584.702 408.772 " fill="#FF0000"/>
<path class="atom-7" d="M 1619.73 239.058 L 1629.01 254.058 Q 1629.93 255.538, 1631.41 258.218 Q 1632.89 260.898, 1632.97 261.058 L 1632.97 239.058 L 1636.73 239.058 L 1636.73 267.378 L 1632.85 267.378 L 1622.89 250.978 Q 1621.73 249.058, 1620.49 246.858 Q 1619.29 244.658, 1618.93 243.978 L 1618.93 267.378 L 1615.25 267.378 L 1615.25 239.058 L 1619.73 239.058 " fill="#0000FF"/>
<path class="atom-7" d="M 1640.13 239.058 L 1643.97 239.058 L 1643.97 251.098 L 1658.45 251.098 L 1658.45 239.058 L 1662.29 239.058 L 1662.29 267.378 L 1658.45 267.378 L 1658.45 254.298 L 1643.97 254.298 L 1643.97 267.378 L 1640.13 267.378 L 1640.13 239.058 " fill="#0000FF"/>
<path class="atom-7" d="M 1663.66 266.385 Q 1664.35 264.616, 1665.99 263.639 Q 1667.62 262.636, 1669.89 262.636 Q 1672.72 262.636, 1674.3 264.167 Q 1675.89 265.698, 1675.89 268.417 Q 1675.89 271.189, 1673.83 273.777 Q 1671.79 276.364, 1667.57 279.426 L 1676.2 279.426 L 1676.2 281.538 L 1663.61 281.538 L 1663.61 279.769 Q 1667.09 277.288, 1669.15 275.44 Q 1671.24 273.592, 1672.24 271.929 Q 1673.25 270.265, 1673.25 268.549 Q 1673.25 266.754, 1672.35 265.751 Q 1671.45 264.748, 1669.89 264.748 Q 1668.39 264.748, 1667.39 265.355 Q 1666.38 265.962, 1665.67 267.309 L 1663.66 266.385 " fill="#0000FF"/>
<path class="atom-12" d="M 968.55 239.218 L 972.39 239.218 L 972.39 251.258 L 986.87 251.258 L 986.87 239.218 L 990.71 239.218 L 990.71 267.538 L 986.87 267.538 L 986.87 254.458 L 972.39 254.458 L 972.39 267.538 L 968.55 267.538 L 968.55 239.218 " fill="#FF0000"/>
<path class="atom-12" d="M 992.71 253.298 Q 992.71 246.498, 996.07 242.698 Q 999.43 238.898, 1005.71 238.898 Q 1011.99 238.898, 1015.35 242.698 Q 1018.71 246.498, 1018.71 253.298 Q 1018.71 260.178, 1015.31 264.098 Q 1011.91 267.978, 1005.71 267.978 Q 999.47 267.978, 996.07 264.098 Q 992.71 260.218, 992.71 253.298 M 1005.71 264.778 Q 1010.03 264.778, 1012.35 261.898 Q 1014.71 258.978, 1014.71 253.298 Q 1014.71 247.738, 1012.35 244.938 Q 1010.03 242.098, 1005.71 242.098 Q 1001.39 242.098, 999.03 244.898 Q 996.71 247.698, 996.71 253.298 Q 996.71 259.018, 999.03 261.898 Q 1001.39 264.778, 1005.71 264.778 " fill="#FF0000"/>
<path class="atom-17" d="M 2569.4 92.1125 Q 2569.4 85.3125, 2572.76 81.5125 Q 2576.12 77.7125, 2582.4 77.7125 Q 2588.68 77.7125, 2592.04 81.5125 Q 2595.4 85.3125, 2595.4 92.1125 Q 2595.4 98.9925, 2592 102.912 Q 2588.6 106.792, 2582.4 106.792 Q 2576.16 106.792, 2572.76 102.912 Q 2569.4 99.0325, 2569.4 92.1125 M 2582.4 103.592 Q 2586.72 103.592, 2589.04 100.712 Q 2591.4 97.7925, 2591.4 92.1125 Q 2591.4 86.5525, 2589.04 83.7525 Q 2586.72 80.9125, 2582.4 80.9125 Q 2578.08 80.9125, 2575.72 83.7125 Q 2573.4 86.5125, 2573.4 92.1125 Q 2573.4 97.8325, 2575.72 100.712 Q 2578.08 103.592, 2582.4 103.592 " fill="#FF0000"/>
<path class="atom-18" d="M 2645.66 337.31 L 2654.94 352.31 Q 2655.86 353.79, 2657.34 356.47 Q 2658.82 359.15, 2658.9 359.31 L 2658.9 337.31 L 2662.66 337.31 L 2662.66 365.63 L 2658.78 365.63 L 2648.82 349.23 Q 2647.66 347.31, 2646.42 345.11 Q 2645.22 342.91, 2644.86 342.23 L 2644.86 365.63 L 2641.18 365.63 L 2641.18 337.31 L 2645.66 337.31 " fill="#0000FF"/>
<path class="atom-18" d="M 2640.84 368.462 L 2644.68 368.462 L 2644.68 380.502 L 2659.16 380.502 L 2659.16 368.462 L 2663 368.462 L 2663 396.782 L 2659.16 396.782 L 2659.16 383.702 L 2644.68 383.702 L 2644.68 396.782 L 2640.84 396.782 L 2640.84 368.462 " fill="#0000FF"/>
<path class="atom-23" d="M 3238.06 191.009 Q 3238.06 184.209, 3241.42 180.409 Q 3244.78 176.609, 3251.06 176.609 Q 3257.34 176.609, 3260.7 180.409 Q 3264.06 184.209, 3264.06 191.009 Q 3264.06 197.889, 3260.66 201.809 Q 3257.26 205.689, 3251.06 205.689 Q 3244.82 205.689, 3241.42 201.809 Q 3238.06 197.929, 3238.06 191.009 M 3251.06 202.489 Q 3255.38 202.489, 3257.7 199.609 Q 3260.06 196.689, 3260.06 191.009 Q 3260.06 185.449, 3257.7 182.649 Q 3255.38 179.809, 3251.06 179.809 Q 3246.74 179.809, 3244.38 182.609 Q 3242.06 185.409, 3242.06 191.009 Q 3242.06 196.729, 3244.38 199.609 Q 3246.74 202.489, 3251.06 202.489 " fill="#FF0000"/>
<path class="atom-23" d="M 3267.46 176.929 L 3271.3 176.929 L 3271.3 188.969 L 3285.78 188.969 L 3285.78 176.929 L 3289.62 176.929 L 3289.62 205.249 L 3285.78 205.249 L 3285.78 192.169 L 3271.3 192.169 L 3271.3 205.249 L 3267.46 205.249 L 3267.46 176.929 " fill="#FF0000"/>
<path class="atom-28" d="M 3793.36 330.833 Q 3793.36 324.033, 3796.72 320.233 Q 3800.08 316.433, 3806.36 316.433 Q 3812.64 316.433, 3816 320.233 Q 3819.36 324.033, 3819.36 330.833 Q 3819.36 337.713, 3815.96 341.633 Q 3812.56 345.513, 3806.36 345.513 Q 3800.12 345.513, 3796.72 341.633 Q 3793.36 337.753, 3793.36 330.833 M 3806.36 342.313 Q 3810.68 342.313, 3813 339.433 Q 3815.36 336.513, 3815.36 330.833 Q 3815.36 325.273, 3813 322.473 Q 3810.68 319.633, 3806.36 319.633 Q 3802.04 319.633, 3799.68 322.433 Q 3797.36 325.233, 3797.36 330.833 Q 3797.36 336.553, 3799.68 339.433 Q 3802.04 342.313, 3806.36 342.313 " fill="#FF0000"/>
<path class="atom-29" d="M 3659.07 98.2283 Q 3659.07 91.4283, 3662.43 87.6283 Q 3665.79 83.8283, 3672.07 83.8283 Q 3678.35 83.8283, 3681.71 87.6283 Q 3685.07 91.4283, 3685.07 98.2283 Q 3685.07 105.108, 3681.67 109.028 Q 3678.27 112.908, 3672.07 112.908 Q 3665.83 112.908, 3662.43 109.028 Q 3659.07 105.148, 3659.07 98.2283 M 3672.07 109.708 Q 3676.39 109.708, 3678.71 106.828 Q 3681.07 103.908, 3681.07 98.2283 Q 3681.07 92.6683, 3678.71 89.8683 Q 3676.39 87.0283, 3672.07 87.0283 Q 3667.75 87.0283, 3665.39 89.8283 Q 3663.07 92.6283, 3663.07 98.2283 Q 3663.07 103.948, 3665.39 106.828 Q 3667.75 109.708, 3672.07 109.708 " fill="#FF0000"/>
<path class="atom-29" d="M 3688.47 84.1483 L 3692.31 84.1483 L 3692.31 96.1883 L 3706.79 96.1883 L 3706.79 84.1483 L 3710.63 84.1483 L 3710.63 112.468 L 3706.79 112.468 L 3706.79 99.3883 L 3692.31 99.3883 L 3692.31 112.468 L 3688.47 112.468 L 3688.47 84.1483 " fill="#FF0000"/>
<path d="M 814.904 242.931 L 820.952 242.931 L 820.952 236.563 L 823.64 236.563 L 823.64 242.931 L 829.848 242.931 L 829.848 245.235 L 823.64 245.235 L 823.64 251.635 L 820.952 251.635 L 820.952 245.235 L 814.904 245.235 L 814.904 242.931 " fill="#000000"/>
<path d="M 3426.92 242.931 L 3432.97 242.931 L 3432.97 236.563 L 3435.66 236.563 L 3435.66 242.931 L 3441.87 242.931 L 3441.87 245.235 L 3435.66 245.235 L 3435.66 251.635 L 3432.97 251.635 L 3432.97 245.235 L 3426.92 245.235 L 3426.92 242.931 " fill="#000000"/>
<path d="M 1823.89,245.235 L 2237.41,245.235" style="fill:none;fill-rule:evenodd;stroke:#000000;stroke-width:2.0px;stroke-linecap:butt;stroke-linejoin:miter;stroke-opacity:1"/>
<path d="M 2237.41,245.235 L 2219.5,234.897" style="fill:none;fill-rule:evenodd;stroke:#000000;stroke-width:2.0px;stroke-linecap:butt;stroke-linejoin:miter;stroke-opacity:1"/>
<path d="M 2237.41,245.235 L 2219.5,255.573" style="fill:none;fill-rule:evenodd;stroke:#000000;stroke-width:2.0px;stroke-linecap:butt;stroke-linejoin:miter;stroke-opacity:1"/>
</svg>