<svg baseProfile="full" height="500px" version="1.1" viewBox="0 0 4000 500" width="4000px" xml:space="preserve" xmlns="http://www.w3.org/2000/svg" xmlns:rdkit="http://www.rdkit.org/xml" xmlns:xlink="http://www.w3.org/1999/xlink">
<!-- END OF HEADER -->
<rect height="500" style="opacity:1.0;fill:#FFFFFF;stroke:none" width="4000" x="0" y="0"> </rect>
<path d="M 286.275,164.976 L 423.723,244.332" style="fill:none;fill-rule:evenodd;stroke:#FFFFAA;stroke-width:33px;stroke-linecap:butt;stroke-linejoin:miter;stroke-opacity:1"/>
<path d="M 423.723,244.332 L 423.723,403.042" style="fill:none;fill-rule:evenodd;stroke:#FFFFAA;stroke-width:33px;stroke-linecap:butt;stroke-linejoin:miter;stroke-opacity:1"/>
<path d="M 423.723,244.332 L 561.17,164.976" style="fill:none;fill-rule:evenodd;stroke:#FFFFAA;stroke-width:33px;stroke-linecap:butt;stroke-linejoin:miter;stroke-opacity:1"/>
<path d="M 561.17,164.976 L 698.617,244.332" style="fill:none;fill-rule:evenodd;stroke:#FFFFAA;stroke-width:33px;stroke-linecap:butt;stroke-linejoin:miter;stroke-opacity:1"/>
<path d="M 698.617,244.332 L 836.065,164.976" style="fill:none;fill-rule:evenodd;stroke:#FFFFAA;stroke-width:33px;stroke-linecap:butt;stroke-linejoin:miter;stroke-opacity:1"/>
<path d="M 698.617,244.332 L 698.617,403.042" style="fill:none;fill-rule:evenodd;stroke:#FFFFAA;stroke-width:33px;stroke-linecap:butt;stroke-linejoin:miter;stroke-opacity:1"/>
<path d="M 1280.63,335.024 L 1418.08,255.668" style="fill:none;fill-rule:evenodd;stroke:#FFCC99;stroke-width:33px;stroke-linecap:butt;stroke-linejoin:miter;stroke-opacity:1"/>
<path d="M 1418.08,255.668 L 1555.53,335.024" style="fill:none;fill-rule:evenodd;stroke:#FFCC99;stroke-width:33px;stroke-linecap:butt;stroke-linejoin:miter;stroke-opacity:1"/>
<path d="M 1418.08,255.668 L 1418.08,96.9576" style="fill:none;fill-rule:evenodd;stroke:#FFCC99;stroke-width:33px;stroke-linecap:butt;stroke-linejoin:miter;stroke-opacity:1"/>
<path d="M 2476.23,335.024 L 2613.67,255.668" style="fill:none;fill-rule:evenodd;stroke:#FFFFAA;stroke-width:33px;stroke-linecap:butt;stroke-linejoin:miter;stroke-opacity:1"/>
<path d="M 2613.67,255.668 L 2751.12,335.024" style="fill:none;fill-rule:evenodd;stroke:#FFFFAA;stroke-width:33px;stroke-linecap:butt;stroke-linejoin:miter;stroke-opacity:1"/>
<path d="M 2613.67,255.668 L 2613.67,96.9576" style="fill:none;fill-rule:evenodd;stroke:#FFFFAA;stroke-width:33px;stroke-linecap:butt;stroke-linejoin:miter;stroke-opacity:1"/>
<path d="M 3163.94,164.976 L 3301.38,244.332" style="fill:none;fill-rule:evenodd;stroke:#FFCC99;stroke-width:33px;stroke-linecap:butt;stroke-linejoin:miter;stroke-opacity:1"/>
<path d="M 3301.38,244.332 L 3301.38,403.042" style="fill:none;fill-rule:evenodd;stroke:#FFCC99;stroke-width:33px;stroke-linecap:butt;stroke-linejoin:miter;stroke-opacity:1"/>
<path d="M 3301.38,244.332 L 3438.83,164.976" style="fill:none;fill-rule:evenodd;stroke:#FFCC99;stroke-width:33px;stroke-linecap:butt;stroke-linejoin:miter;stroke-opacity:1"/>
<path d="M 3576.28,244.332 L 3713.72,164.976" style="fill:none;fill-rule:evenodd;stroke:#FFFFAA;stroke-width:33px;stroke-linecap:butt;stroke-linejoin:miter;stroke-opacity:1"/>
<path d="M 3576.28,244.332 L 3576.28,403.042" style="fill:none;fill-rule:evenodd;stroke:#FFFFAA;stroke-width:33px;stroke-linecap:butt;stroke-linejoin:miter;stroke-opacity:1"/>
<ellipse cx="286.275" cy="164.976" rx="31.7421" ry="31.7421" style="fill:#FFFFAA;fill-rule:evenodd;stroke:#FFFFAA;stroke-width:2px;stroke-linecap:butt;stroke-linejoin:miter;stroke-opacity:1"/>
<ellipse cx="423.723" cy="244.332" rx="31.7421" ry="31.7421" style="fill:#FFFFAA;fill-rule:evenodd;stroke:#FFFFAA;stroke-width:2px;stroke-linecap:butt;stroke-linejoin:miter;stroke-opacity:1"/>
<ellipse cx="423.723" cy="403.042" rx="31.7421" ry="31.7421" style="fill:#FFFFAA;fill-rule:evenodd;stroke:#FFFFAA;stroke-width:2px;stroke-linecap:butt;stroke-linejoin:miter;stroke-opacity:1"/>
<ellipse cx="561.17" cy="164.976" rx="31.7421" ry="31.7421" style="fill:#FFFFAA;fill-rule:evenodd;stroke:#FFFFAA;stroke-width:2px;stroke-linecap:butt;stroke-linejoin:miter;stroke-opacity:1"/>
<ellipse cx="698.617" cy="244.332" rx="31.7421" ry="31.7421" style="fill:#FFFFAA;fill-rule:evenodd;stroke:#FFFFAA;stroke-width:2px;stroke-linecap:butt;stroke-linejoin:miter;stroke-opacity:1"/>
<ellipse cx="836.065" cy="164.976" rx="31.7421" ry="31.7421" style="fill:#FFFFAA;fill-rule:evenodd;stroke:#FFFFAA;stroke-width:2px;stroke-linecap:butt;stroke-linejoin:miter;stroke-opacity:1"/>
<ellipse cx="698.617" cy="403.042" rx="31.7421" ry="31.7421" style="fill:#FFFFAA;fill-rule:evenodd;stroke:#FFFFAA;stroke-width:2px;stroke-linecap:butt;stroke-linejoin:miter;stroke-opacity:1"/>
<ellipse cx="1280.63" cy="335.024" rx="31.7421" ry="31.7421" style="fill:#FFCC99;fill-rule:evenodd;stroke:#FFCC99;stroke-width:2px;stroke-linecap:butt;stroke-linejoin:miter;stroke-opacity:1"/>
<ellipse cx="1418.08" cy="255.668" rx="31.7421" ry="31.7421" style="fill:#FFCC99;fill-rule:evenodd;stroke:#FFCC99;stroke-width:2px;stroke-linecap:butt;stroke-linejoin:miter;stroke-opacity:1"/>
<ellipse cx="1555.53" cy="335.024" rx="31.7421" ry="31.7421" style="fill:#FFCC99;fill-rule:evenodd;stroke:#FFCC99;stroke-width:2px;stroke-linecap:butt;stroke-linejoin:miter;stroke-opacity:1"/>
<ellipse cx="1442.09" cy="96.9576" rx="58.47" ry="31.7421" style="fill:#FFCC99;fill-rule:evenodd;stroke:#FFCC99;stroke-width:2px;stroke-linecap:butt;stroke-linejoin:miter;stroke-opacity:1"/>
<ellipse cx="2476.23" cy="335.024" rx="31.7421" ry="31.7421" style="fill:#FFFFAA;fill-rule:evenodd;stroke:#FFFFAA;stroke-width:2px;stroke-linecap:butt;stroke-linejoin:miter;stroke-opacity:1"/>
<ellipse cx="2613.67" cy="255.668" rx="31.7421" ry="31.7421" style="fill:#FFFFAA;fill-rule:evenodd;stroke:#FFFFAA;stroke-width:2px;stroke-linecap:butt;stroke-linejoin:miter;stroke-opacity:1"/>
<ellipse cx="2751.12" cy="335.024" rx="31.7421" ry="31.7421" style="fill:#FFFFAA;fill-rule:evenodd;stroke:#FFFFAA;stroke-width:2px;stroke-linecap:butt;stroke-linejoin:miter;stroke-opacity:1"/>
<ellipse cx="2631.01" cy="96.9576" rx="50.9321" ry="31.7421" style="fill:#FFFFAA;fill-rule:evenodd;stroke:#FFFFAA;stroke-width:2px;stroke-linecap:butt;stroke-linejoin:miter;stroke-opacity:1"/>
<ellipse cx="3163.94" cy="164.976" rx="31.7421" ry="31.7421" style="fill:#FFCC99;fill-rule:evenodd;stroke:#FFCC99;stroke-width:2px;stroke-linecap:butt;stroke-linejoin:miter;stroke-opacity:1"/>
<ellipse cx="3301.38" cy="244.332" rx="31.7421" ry="31.7421" style="fill:#FFCC99;fill-rule:evenodd;stroke:#FFCC99;stroke-width:2px;stroke-linecap:butt;stroke-linejoin:miter;stroke-opacity:1"/>
<ellipse cx="3301.38" cy="403.042" rx="31.7421" ry="31.7421" style="fill:#FFCC99;fill-rule:evenodd;stroke:#FFCC99;stroke-width:2px;stroke-linecap:butt;stroke-linejoin:miter;stroke-opacity:1"/>
<ellipse cx="3438.83" cy="144.976" rx="31.7421" ry="56.5685" style="fill:#FFCC99;fill-rule:evenodd;stroke:#FFCC99;stroke-width:2px;stroke-linecap:butt;stroke-linejoin:miter;stroke-opacity:1"/>
<ellipse cx="3576.28" cy="244.332" rx="31.7421" ry="31.7421" style="fill:#FFFFAA;fill-rule:evenodd;stroke:#FFFFAA;stroke-width:2px;stroke-linecap:butt;stroke-linejoin:miter;stroke-opacity:1"/>
<ellipse cx="3713.72" cy="164.976" rx="31.7421" ry="31.7421" style="fill:#FFFFAA;fill-rule:evenodd;stroke:#FFFFAA;stroke-width:2px;stroke-linecap:butt;stroke-linejoin:miter;stroke-opacity:1"/>
<ellipse cx="3576.28" cy="403.042" rx="31.7421" ry="31.7421" style="fill:#FFFFAA;fill-rule:evenodd;stroke:#FFFFAA;stroke-width:2px;stroke-linecap:butt;stroke-linejoin:miter;stroke-opacity:1"/>
<path class="bond-0" d="M 286.275,164.976 L 423.723,244.332" style="fill:none;fill-rule:evenodd;stroke:#000000;stroke-width:4px;stroke-linecap:butt;stroke-linejoin:miter;stroke-opacity:1"/>
<path class="bond-1" d="M 407.851,244.332 L 407.851,313.687" style="fill:none;fill-rule:evenodd;stroke:#000000;stroke-width:4px;stroke-linecap:butt;stroke-linejoin:miter;stroke-opacity:1"/>
<path class="bond-1" d="M 407.851,313.687 L 407.851,383.042" style="fill:none;fill-rule:evenodd;stroke:#FF0000;stroke-width:4px;stroke-linecap:butt;stroke-linejoin:miter;stroke-opacity:1"/>
<path class="bond-1" d="M 439.594,244.332 L 439.594,313.687" style="fill:none;fill-rule:evenodd;stroke:#000000;stroke-width:4px;stroke-linecap:butt;stroke-linejoin:miter;stroke-opacity:1"/>
<path class="bond-1" d="M 439.594,313.687 L 439.594,383.042" style="fill:none;fill-rule:evenodd;stroke:#FF0000;stroke-width:4px;stroke-linecap:butt;stroke-linejoin:miter;stroke-opacity:1"/>
<path class="bond-2" d="M 423.723,244.332 L 483.107,210.046" style="fill:none;fill-rule:evenodd;stroke:#000000;stroke-width:4px;stroke-linecap:butt;stroke-linejoin:miter;stroke-opacity:1"/>
<path class="bond-2" d="M 483.107,210.046 L 542.491,175.761" style="fill:none;fill-rule:evenodd;stroke:#FF0000;stroke-width:4px;stroke-linecap:butt;stroke-linejoin:miter;stroke-opacity:1"/>
<path class="bond-3" d="M 579.849,175.761 L 639.233,210.046" style="fill:none;fill-rule:evenodd;stroke:#FF0000;stroke-width:4px;stroke-linecap:butt;stroke-linejoin:miter;stroke-opacity:1"/>
<path class="bond-3" d="M 639.233,210.046 L 698.617,244.332" style="fill:none;fill-rule:evenodd;stroke:#000000;stroke-width:4px;stroke-linecap:butt;stroke-linejoin:miter;stroke-opacity:1"/>
<path class="bond-4" d="M 698.617,244.332 L 836.065,164.976" style="fill:none;fill-rule:evenodd;stroke:#000000;stroke-width:4px;stroke-linecap:butt;stroke-linejoin:miter;stroke-opacity:1"/>
<path class="bond-5" d="M 682.746,244.332 L 682.746,313.687" style="fill:none;fill-rule:evenodd;stroke:#000000;stroke-width:4px;stroke-linecap:butt;stroke-linejoin:miter;stroke-opacity:1"/>
<path class="bond-5" d="M 682.746,313.687 L 682.746,383.042" style="fill:none;fill-rule:evenodd;stroke:#FF0000;stroke-width:4px;stroke-linecap:butt;stroke-linejoin:miter;stroke-opacity:1"/>
<path class="bond-5" d="M 714.489,244.332 L 714.489,313.687" style="fill:none;fill-rule:evenodd;stroke:#000000;stroke-width:4px;stroke-linecap:butt;stroke-linejoin:miter;stroke-opacity:1"/>
<path class="bond-5" d="M 714.489,313.687 L 714.489,383.042" style="fill:none;fill-rule:evenodd;stroke:#FF0000;stroke-width:4px;stroke-linecap:butt;stroke-linejoin:miter;stroke-opacity:1"/>
<path class="bond-6" d="M 1288.57,348.768 L 1426.02,269.413" style="fill:none;fill-rule:evenodd;stroke:#000000;stroke-width:4px;stroke-linecap:butt;stroke-linejoin:miter;stroke-opacity:1"/>
<path class="bond-6" d="M 1272.7,321.279 L 1410.14,241.923" style="fill:none;fill-rule:evenodd;stroke:#000000;stroke-width:4px;stroke-linecap:butt;stroke-linejoin:miter;stroke-opacity:1;stroke-dasharray:6,6"/>
<path class="bond-7" d="M 1410.14,269.413 L 1547.59,348.768" style="fill:none;fill-rule:evenodd;stroke:#000000;stroke-width:4px;stroke-linecap:butt;stroke-linejoin:miter;stroke-opacity:1"/>
<path class="bond-7" d="M 1426.02,241.923 L 1563.46,321.279" style="fill:none;fill-rule:evenodd;stroke:#000000;stroke-width:4px;stroke-linecap:butt;stroke-linejoin:miter;stroke-opacity:1;stroke-dasharray:6,6"/>
<path class="bond-8" d="M 1418.08,255.668 L 1418.08,187.313" style="fill:none;fill-rule:evenodd;stroke:#000000;stroke-width:4px;stroke-linecap:butt;stroke-linejoin:miter;stroke-opacity:1"/>
<path class="bond-8" d="M 1418.08,187.313 L 1418.08,118.958" style="fill:none;fill-rule:evenodd;stroke:#0000FF;stroke-width:4px;stroke-linecap:butt;stroke-linejoin:miter;stroke-opacity:1"/>
<path class="bond-9" d="M 2476.23,335.024 L 2613.67,255.668" style="fill:none;fill-rule:evenodd;stroke:#000000;stroke-width:4px;stroke-linecap:butt;stroke-linejoin:miter;stroke-opacity:1"/>
<path class="bond-10" d="M 2605.74,269.413 L 2665.12,303.698" style="fill:none;fill-rule:evenodd;stroke:#000000;stroke-width:4px;stroke-linecap:butt;stroke-linejoin:miter;stroke-opacity:1"/>
<path class="bond-10" d="M 2665.12,303.698 L 2724.51,337.984" style="fill:none;fill-rule:evenodd;stroke:#FF0000;stroke-width:4px;stroke-linecap:butt;stroke-linejoin:miter;stroke-opacity:1"/>
<path class="bond-10" d="M 2621.61,241.923 L 2680.99,276.209" style="fill:none;fill-rule:evenodd;stroke:#000000;stroke-width:4px;stroke-linecap:butt;stroke-linejoin:miter;stroke-opacity:1"/>
<path class="bond-10" d="M 2680.99,276.209 L 2740.38,310.494" style="fill:none;fill-rule:evenodd;stroke:#FF0000;stroke-width:4px;stroke-linecap:butt;stroke-linejoin:miter;stroke-opacity:1"/>
<path class="bond-11" d="M 2613.67,255.668 L 2613.67,186.313" style="fill:none;fill-rule:evenodd;stroke:#000000;stroke-width:4px;stroke-linecap:butt;stroke-linejoin:miter;stroke-opacity:1"/>
<path class="bond-11" d="M 2613.67,186.313 L 2613.67,116.958" style="fill:none;fill-rule:evenodd;stroke:#FF0000;stroke-width:4px;stroke-linecap:butt;stroke-linejoin:miter;stroke-opacity:1"/>
<path class="bond-12" d="M 3156,178.721 L 3293.45,258.077" style="fill:none;fill-rule:evenodd;stroke:#000000;stroke-width:4px;stroke-linecap:butt;stroke-linejoin:miter;stroke-opacity:1"/>
<path class="bond-12" d="M 3171.87,151.232 L 3309.32,230.587" style="fill:none;fill-rule:evenodd;stroke:#000000;stroke-width:4px;stroke-linecap:butt;stroke-linejoin:miter;stroke-opacity:1;stroke-dasharray:6,6"/>
<path class="bond-13" d="M 3285.51,244.332 L 3285.51,403.042" style="fill:none;fill-rule:evenodd;stroke:#000000;stroke-width:4px;stroke-linecap:butt;stroke-linejoin:miter;stroke-opacity:1"/>
<path class="bond-13" d="M 3317.25,244.332 L 3317.25,403.042" style="fill:none;fill-rule:evenodd;stroke:#000000;stroke-width:4px;stroke-linecap:butt;stroke-linejoin:miter;stroke-opacity:1;stroke-dasharray:6,6"/>
<path class="bond-14" d="M 3301.38,244.332 L 3361.44,209.658" style="fill:none;fill-rule:evenodd;stroke:#000000;stroke-width:4px;stroke-linecap:butt;stroke-linejoin:miter;stroke-opacity:1"/>
<path class="bond-14" d="M 3361.44,209.658 L 3421.5,174.985" style="fill:none;fill-rule:evenodd;stroke:#0000FF;stroke-width:4px;stroke-linecap:butt;stroke-linejoin:miter;stroke-opacity:1"/>
<path class="bond-15" d="M 3456.16,174.985 L 3516.22,209.658" style="fill:none;fill-rule:evenodd;stroke:#0000FF;stroke-width:4px;stroke-linecap:butt;stroke-linejoin:miter;stroke-opacity:1"/>
<path class="bond-15" d="M 3516.22,209.658 L 3576.28,244.332" style="fill:none;fill-rule:evenodd;stroke:#000000;stroke-width:4px;stroke-linecap:butt;stroke-linejoin:miter;stroke-opacity:1"/>
<path class="bond-16" d="M 3576.28,244.332 L 3713.72,164.976" style="fill:none;fill-rule:evenodd;stroke:#000000;stroke-width:4px;stroke-linecap:butt;stroke-linejoin:miter;stroke-opacity:1"/>
<path class="bond-17" d="M 3560.41,244.332 L 3560.41,313.687" style="fill:none;fill-rule:evenodd;stroke:#000000;stroke-width:4px;stroke-linecap:butt;stroke-linejoin:miter;stroke-opacity:1"/>
<path class="bond-17" d="M 3560.41,313.687 L 3560.41,383.042" style="fill:none;fill-rule:evenodd;stroke:#FF0000;stroke-width:4px;stroke-linecap:butt;stroke-linejoin:miter;stroke-opacity:1"/>
<path class="bond-17" d="M 3592.15,244.332 L 3592.15,313.687" style="fill:none;fill-rule:evenodd;stroke:#000000;stroke-width:4px;stroke-linecap:butt;stroke-linejoin:miter;stroke-opacity:1"/>
<path class="bond-17" d="M 3592.15,313.687 L 3592.15,383.042" style="fill:none;fill-rule:evenodd;stroke:#FF0000;stroke-width:4px;stroke-linecap:butt;stroke-linejoin:miter;stroke-opacity:1"/>
<text dominant-baseline="central" style="font-size:40px;font-style:normal;font-weight:normal;fill-opacity:1;stroke:none;font-family:sans-serif;fill:#FF0000" text-anchor="start" x="409.043" y="409.042"><tspan>O</tspan></text>
<text dominant-baseline="central" style="font-size:40px;font-style:normal;font-weight:normal;fill-opacity:1;stroke:none;font-family:sans-serif;fill:#FF0000" text-anchor="middle" x="561.17" y="170.976"><tspan>O</tspan></text>
<text dominant-baseline="central" style="font-size:40px;font-style:normal;font-weight:normal;fill-opacity:1;stroke:none;font-family:sans-serif;fill:#FF0000" text-anchor="start" x="683.938" y="409.042"><tspan>O</tspan></text>
<text dominant-baseline="central" style="font-size:40px;font-style:normal;font-weight:normal;fill-opacity:1;stroke:none;font-family:sans-serif;fill:#0000FF" text-anchor="start" x="1405.15" y="103.558"><tspan>NH</tspan><tspan style="baseline-shift:sub;font-size:30px;">2</tspan><tspan/></text>
<text dominant-baseline="central" style="font-size:40px;font-style:normal;font-weight:normal;fill-opacity:1;stroke:none;font-family:sans-serif;fill:#FF0000" text-anchor="start" x="2736.44" y="341.024"><tspan>O</tspan></text>
<text dominant-baseline="central" style="font-size:40px;font-style:normal;font-weight:normal;fill-opacity:1;stroke:none;font-family:sans-serif;fill:#FF0000" text-anchor="start" x="2599" y="102.958"><tspan>OH</tspan></text>
<text dominant-baseline="central" style="font-size:40px;font-style:normal;font-weight:normal;fill-opacity:1;stroke:none;font-family:sans-serif;fill:#0000FF" text-anchor="middle" x="3438.83" y="170.976"><tspan>N</tspan></text>
<text dominant-baseline="central" style="font-size:40px;font-style:normal;font-weight:normal;fill-opacity:1;stroke:none;font-family:sans-serif;fill:#0000FF" text-anchor="start" x="3425.5" y="130.976"><tspan>H</tspan></text>
<text dominant-baseline="central" style="font-size:40px;font-style:normal;font-weight:normal;fill-opacity:1;stroke:none;font-family:sans-serif;fill:#FF0000" text-anchor="start" x="3561.6" y="409.042"><tspan>O</tspan></text>
<text dominant-baseline="central" style="font-size:39px;font-style:normal;font-weight:normal;fill-opacity:1;stroke:none;font-family:sans-serif;fill:#000000" text-anchor="middle" x="273.049" y="193.836"><tspan>1</tspan></text>
<text dominant-baseline="central" style="font-size:39px;font-style:normal;font-weight:normal;fill-opacity:1;stroke:none;font-family:sans-serif;fill:#000000" text-anchor="middle" x="377.907" y="276.735"><tspan>2</tspan></text>
<text dominant-baseline="central" style="font-size:39px;font-style:normal;font-weight:normal;fill-opacity:1;stroke:none;font-family:sans-serif;fill:#000000" text-anchor="middle" x="423.723" y="461.898"><tspan>3</tspan></text>
<text dominant-baseline="central" style="font-size:39px;font-style:normal;font-weight:normal;fill-opacity:1;stroke:none;font-family:sans-serif;fill:#000000" text-anchor="middle" x="561.17" y="118.025"><tspan>4</tspan></text>
<text dominant-baseline="central" style="font-size:39px;font-style:normal;font-weight:normal;fill-opacity:1;stroke:none;font-family:sans-serif;fill:#000000" text-anchor="middle" x="698.617" y="197.38"><tspan>18</tspan></text>
<text dominant-baseline="central" style="font-size:39px;font-style:normal;font-weight:normal;fill-opacity:1;stroke:none;font-family:sans-serif;fill:#000000" text-anchor="middle" x="822.839" y="148.02"><tspan>19</tspan></text>
<text dominant-baseline="central" style="font-size:39px;font-style:normal;font-weight:normal;fill-opacity:1;stroke:none;font-family:sans-serif;fill:#000000" text-anchor="middle" x="698.617" y="461.898"><tspan>20</tspan></text>
<text dominant-baseline="central" style="font-size:39px;font-style:normal;font-weight:normal;fill-opacity:1;stroke:none;font-family:sans-serif;fill:#000000" text-anchor="middle" x="1257.72" y="327.749"><tspan>7</tspan></text>
<text dominant-baseline="central" style="font-size:39px;font-style:normal;font-weight:normal;fill-opacity:1;stroke:none;font-family:sans-serif;fill:#000000" text-anchor="middle" x="1418.08" y="340.975"><tspan>16</tspan></text>
<text dominant-baseline="central" style="font-size:39px;font-style:normal;font-weight:normal;fill-opacity:1;stroke:none;font-family:sans-serif;fill:#000000" text-anchor="middle" x="1581.98" y="295.159"><tspan>15</tspan></text>
<text dominant-baseline="central" style="font-size:39px;font-style:normal;font-weight:normal;fill-opacity:1;stroke:none;font-family:sans-serif;fill:#000000" text-anchor="middle" x="1418.08" y="50.0057"><tspan>17</tspan></text>
<text dominant-baseline="central" style="font-size:39px;font-style:normal;font-weight:normal;fill-opacity:1;stroke:none;font-family:sans-serif;fill:#000000" text-anchor="middle" x="2489.45" y="363.883"><tspan>1</tspan></text>
<text dominant-baseline="central" style="font-size:39px;font-style:normal;font-weight:normal;fill-opacity:1;stroke:none;font-family:sans-serif;fill:#000000" text-anchor="middle" x="2613.67" y="314.523"><tspan>2</tspan></text>
<text dominant-baseline="central" style="font-size:39px;font-style:normal;font-weight:normal;fill-opacity:1;stroke:none;font-family:sans-serif;fill:#000000" text-anchor="middle" x="2796.94" y="367.427"><tspan>3</tspan></text>
<text dominant-baseline="central" style="font-size:39px;font-style:normal;font-weight:normal;fill-opacity:1;stroke:none;font-family:sans-serif;fill:#000000" text-anchor="middle" x="2613.67" y="50.0057"><tspan>4</tspan></text>
<text dominant-baseline="central" style="font-size:39px;font-style:normal;font-weight:normal;fill-opacity:1;stroke:none;font-family:sans-serif;fill:#000000" text-anchor="middle" x="3150.71" y="148.02"><tspan>7</tspan></text>
<text dominant-baseline="central" style="font-size:39px;font-style:normal;font-weight:normal;fill-opacity:1;stroke:none;font-family:sans-serif;fill:#000000" text-anchor="middle" x="3347.2" y="276.735"><tspan>16</tspan></text>
<text dominant-baseline="central" style="font-size:39px;font-style:normal;font-weight:normal;fill-opacity:1;stroke:none;font-family:sans-serif;fill:#000000" text-anchor="middle" x="3288.16" y="431.902"><tspan>15</tspan></text>
<text dominant-baseline="central" style="font-size:39px;font-style:normal;font-weight:normal;fill-opacity:1;stroke:none;font-family:sans-serif;fill:#000000" text-anchor="middle" x="3438.83" y="223.832"><tspan>17</tspan></text>
<text dominant-baseline="central" style="font-size:39px;font-style:normal;font-weight:normal;fill-opacity:1;stroke:none;font-family:sans-serif;fill:#000000" text-anchor="middle" x="3576.28" y="197.38"><tspan>18</tspan></text>
<text dominant-baseline="central" style="font-size:39px;font-style:normal;font-weight:normal;fill-opacity:1;stroke:none;font-family:sans-serif;fill:#000000" text-anchor="middle" x="3700.5" y="148.02"><tspan>19</tspan></text>
<text dominant-baseline="central" style="font-size:39px;font-style:normal;font-weight:normal;fill-opacity:1;stroke:none;font-family:sans-serif;fill:#000000" text-anchor="middle" x="3576.28" y="461.898"><tspan>20</tspan></text>
<path d="M 1263.44,358.83 L 1263.43,358.557 L 1263.39,358.286 L 1263.33,358.02 L 1263.25,357.759 L 1263.15,357.506 L 1263.03,357.263 L 1262.88,357.031 L 1262.72,356.813 L 1262.53,356.61 L 1262.33,356.423 L 1262.12,356.254 L 1261.89,356.104 L 1261.65,355.975 L 1261.4,355.866 L 1261.14,355.779 L 1260.88,355.715 L 1260.61,355.674 L 1260.33,355.657 L 1260.06,355.663 L 1259.79,355.692 L 1259.52,355.744 L 1259.26,355.82 L 1259,355.918 L 1258.76,356.037 L 1258.52,356.177 L 1258.3,356.336 L 1258.09,356.514 L 1257.9,356.71 L 1257.73,356.92 L 1257.57,357.146 L 1257.44,357.383 L 1257.33,357.631 L 1257.23,357.888 L 1257.16,358.152 L 1257.12,358.421 L 1257.09,358.694 L 1257.09,358.967 L 1257.12,359.239 L 1257.16,359.508 L 1257.23,359.772 L 1257.33,360.029 L 1257.44,360.277 L 1257.57,360.515 L 1257.73,360.74 L 1257.9,360.951 L 1258.09,361.146 L 1258.3,361.324 L 1258.52,361.484 L 1258.76,361.624 L 1259,361.743 L 1259.26,361.84 L 1259.52,361.916 L 1259.79,361.968 L 1260.06,361.998 L 1260.33,362.004 L 1260.61,361.986 L 1260.88,361.945 L 1261.14,361.881 L 1261.4,361.794 L 1261.65,361.686 L 1261.89,361.556 L 1262.12,361.406 L 1262.33,361.237 L 1262.53,361.05 L 1262.72,360.847 L 1262.88,360.629 L 1263.03,360.398 L 1263.15,360.154 L 1263.25,359.902 L 1263.33,359.641 L 1263.39,359.374 L 1263.43,359.103 L 1263.44,358.83 L 1260.26,358.83 Z" style="fill:#000000;fill-rule:evenodd;fill-opacity:1;stroke:#000000;stroke-width:4px;stroke-linecap:butt;stroke-linejoin:miter;stroke-opacity:1;"/>
<path d="M 1304.17,358.83 L 1304.16,358.557 L 1304.13,358.286 L 1304.07,358.02 L 1303.99,357.759 L 1303.89,357.506 L 1303.76,357.263 L 1303.62,357.031 L 1303.45,356.813 L 1303.27,356.61 L 1303.07,356.423 L 1302.86,356.254 L 1302.63,356.104 L 1302.39,355.975 L 1302.14,355.866 L 1301.88,355.779 L 1301.61,355.715 L 1301.34,355.674 L 1301.07,355.657 L 1300.8,355.663 L 1300.52,355.692 L 1300.26,355.744 L 1299.99,355.82 L 1299.74,355.918 L 1299.49,356.037 L 1299.26,356.177 L 1299.04,356.336 L 1298.83,356.514 L 1298.64,356.71 L 1298.47,356.92 L 1298.31,357.146 L 1298.18,357.383 L 1298.06,357.631 L 1297.97,357.888 L 1297.9,358.152 L 1297.85,358.421 L 1297.83,358.694 L 1297.83,358.967 L 1297.85,359.239 L 1297.9,359.508 L 1297.97,359.772 L 1298.06,360.029 L 1298.18,360.277 L 1298.31,360.515 L 1298.47,360.74 L 1298.64,360.951 L 1298.83,361.146 L 1299.04,361.324 L 1299.26,361.484 L 1299.49,361.624 L 1299.74,361.743 L 1299.99,361.84 L 1300.26,361.916 L 1300.52,361.968 L 1300.8,361.998 L 1301.07,362.004 L 1301.34,361.986 L 1301.61,361.945 L 1301.88,361.881 L 1302.14,361.794 L 1302.39,361.686 L 1302.63,361.556 L 1302.86,361.406 L 1303.07,361.237 L 1303.27,361.05 L 1303.45,360.847 L 1303.62,360.629 L 1303.76,360.398 L 1303.89,360.154 L 1303.99,359.902 L 1304.07,359.641 L 1304.13,359.374 L 1304.16,359.103 L 1304.17,358.83 L 1301,358.83 Z" style="fill:#000000;fill-rule:evenodd;fill-opacity:1;stroke:#000000;stroke-width:4px;stroke-linecap:butt;stroke-linejoin:miter;stroke-opacity:1;"/>
<path d="M 1283.81,358.83 L 1283.8,358.557 L 1283.76,358.286 L 1283.7,358.02 L 1283.62,357.759 L 1283.52,357.506 L 1283.39,357.263 L 1283.25,357.031 L 1283.08,356.813 L 1282.9,356.61 L 1282.7,356.423 L 1282.49,356.254 L 1282.26,356.104 L 1282.02,355.975 L 1281.77,355.866 L 1281.51,355.779 L 1281.24,355.715 L 1280.97,355.674 L 1280.7,355.657 L 1280.43,355.663 L 1280.16,355.692 L 1279.89,355.744 L 1279.63,355.82 L 1279.37,355.918 L 1279.13,356.037 L 1278.89,356.177 L 1278.67,356.336 L 1278.46,356.514 L 1278.27,356.71 L 1278.1,356.92 L 1277.94,357.146 L 1277.81,357.383 L 1277.69,357.631 L 1277.6,357.888 L 1277.53,358.152 L 1277.48,358.421 L 1277.46,358.694 L 1277.46,358.967 L 1277.48,359.239 L 1277.53,359.508 L 1277.6,359.772 L 1277.69,360.029 L 1277.81,360.277 L 1277.94,360.515 L 1278.1,360.74 L 1278.27,360.951 L 1278.46,361.146 L 1278.67,361.324 L 1278.89,361.484 L 1279.13,361.624 L 1279.37,361.743 L 1279.63,361.84 L 1279.89,361.916 L 1280.16,361.968 L 1280.43,361.998 L 1280.7,362.004 L 1280.97,361.986 L 1281.24,361.945 L 1281.51,361.881 L 1281.77,361.794 L 1282.02,361.686 L 1282.26,361.556 L 1282.49,361.406 L 1282.7,361.237 L 1282.9,361.05 L 1283.08,360.847 L 1283.25,360.629 L 1283.39,360.398 L 1283.52,360.154 L 1283.62,359.902 L 1283.7,359.641 L 1283.76,359.374 L 1283.8,359.103 L 1283.81,358.83 L 1280.63,358.83 Z" style="fill:#000000;fill-rule:evenodd;fill-opacity:1;stroke:#000000;stroke-width:4px;stroke-linecap:butt;stroke-linejoin:miter;stroke-opacity:1;"/>
<path d="M 1547.77,358.83 L 1547.76,358.557 L 1547.72,358.286 L 1547.66,358.02 L 1547.58,357.759 L 1547.48,357.506 L 1547.35,357.263 L 1547.21,357.031 L 1547.05,356.813 L 1546.86,356.61 L 1546.66,356.423 L 1546.45,356.254 L 1546.22,356.104 L 1545.98,355.975 L 1545.73,355.866 L 1545.47,355.779 L 1545.21,355.715 L 1544.94,355.674 L 1544.66,355.657 L 1544.39,355.663 L 1544.12,355.692 L 1543.85,355.744 L 1543.59,355.82 L 1543.33,355.918 L 1543.09,356.037 L 1542.85,356.177 L 1542.63,356.336 L 1542.42,356.514 L 1542.23,356.71 L 1542.06,356.92 L 1541.9,357.146 L 1541.77,357.383 L 1541.66,357.631 L 1541.56,357.888 L 1541.49,358.152 L 1541.45,358.421 L 1541.42,358.694 L 1541.42,358.967 L 1541.45,359.239 L 1541.49,359.508 L 1541.56,359.772 L 1541.66,360.029 L 1541.77,360.277 L 1541.9,360.515 L 1542.06,360.74 L 1542.23,360.951 L 1542.42,361.146 L 1542.63,361.324 L 1542.85,361.484 L 1543.09,361.624 L 1543.33,361.743 L 1543.59,361.84 L 1543.85,361.916 L 1544.12,361.968 L 1544.39,361.998 L 1544.66,362.004 L 1544.94,361.986 L 1545.21,361.945 L 1545.47,361.881 L 1545.73,361.794 L 1545.98,361.686 L 1546.22,361.556 L 1546.45,361.406 L 1546.66,361.237 L 1546.86,361.05 L 1547.05,360.847 L 1547.21,360.629 L 1547.35,360.398 L 1547.48,360.154 L 1547.58,359.902 L 1547.66,359.641 L 1547.72,359.374 L 1547.76,359.103 L 1547.77,358.83 L 1544.59,358.83 Z" style="fill:#000000;fill-rule:evenodd;fill-opacity:1;stroke:#000000;stroke-width:4px;stroke-linecap:butt;stroke-linejoin:miter;stroke-opacity:1;"/>
<path d="M 1569.64,358.83 L 1569.62,358.557 L 1569.59,358.286 L 1569.53,358.02 L 1569.45,357.759 L 1569.35,357.506 L 1569.22,357.263 L 1569.08,357.031 L 1568.91,356.813 L 1568.73,356.61 L 1568.53,356.423 L 1568.32,356.254 L 1568.09,356.104 L 1567.85,355.975 L 1567.6,355.866 L 1567.34,355.779 L 1567.07,355.715 L 1566.8,355.674 L 1566.53,355.657 L 1566.26,355.663 L 1565.98,355.692 L 1565.72,355.744 L 1565.45,355.82 L 1565.2,355.918 L 1564.95,356.037 L 1564.72,356.177 L 1564.5,356.336 L 1564.29,356.514 L 1564.1,356.71 L 1563.93,356.92 L 1563.77,357.146 L 1563.64,357.383 L 1563.52,357.631 L 1563.43,357.888 L 1563.36,358.152 L 1563.31,358.421 L 1563.29,358.694 L 1563.29,358.967 L 1563.31,359.239 L 1563.36,359.508 L 1563.43,359.772 L 1563.52,360.029 L 1563.64,360.277 L 1563.77,360.515 L 1563.93,360.74 L 1564.1,360.951 L 1564.29,361.146 L 1564.5,361.324 L 1564.72,361.484 L 1564.95,361.624 L 1565.2,361.743 L 1565.45,361.84 L 1565.72,361.916 L 1565.98,361.968 L 1566.26,361.998 L 1566.53,362.004 L 1566.8,361.986 L 1567.07,361.945 L 1567.34,361.881 L 1567.6,361.794 L 1567.85,361.686 L 1568.09,361.556 L 1568.32,361.406 L 1568.53,361.237 L 1568.73,361.05 L 1568.91,360.847 L 1569.08,360.629 L 1569.22,360.398 L 1569.35,360.154 L 1569.45,359.902 L 1569.53,359.641 L 1569.59,359.374 L 1569.62,359.103 L 1569.64,358.83 L 1566.46,358.83 Z" style="fill:#000000;fill-rule:evenodd;fill-opacity:1;stroke:#000000;stroke-width:4px;stroke-linecap:butt;stroke-linejoin:miter;stroke-opacity:1;"/>
<path d="M 3121.61,185.344 L 3121.6,185.071 L 3121.57,184.801 L 3121.51,184.534 L 3121.43,184.273 L 3121.32,184.02 L 3121.2,183.777 L 3121.05,183.545 L 3120.89,183.327 L 3120.71,183.124 L 3120.51,182.937 L 3120.29,182.768 L 3120.06,182.618 L 3119.82,182.489 L 3119.57,182.38 L 3119.31,182.293 L 3119.05,182.229 L 3118.78,182.188 L 3118.51,182.171 L 3118.23,182.177 L 3117.96,182.206 L 3117.69,182.259 L 3117.43,182.334 L 3117.18,182.432 L 3116.93,182.551 L 3116.7,182.691 L 3116.47,182.85 L 3116.27,183.029 L 3116.08,183.224 L 3115.9,183.435 L 3115.75,183.66 L 3115.61,183.897 L 3115.5,184.145 L 3115.41,184.402 L 3115.34,184.667 L 3115.29,184.936 L 3115.27,185.208 L 3115.27,185.481 L 3115.29,185.753 L 3115.34,186.022 L 3115.41,186.286 L 3115.5,186.543 L 3115.61,186.791 L 3115.75,187.029 L 3115.9,187.254 L 3116.08,187.465 L 3116.27,187.66 L 3116.47,187.838 L 3116.7,187.998 L 3116.93,188.138 L 3117.18,188.257 L 3117.43,188.355 L 3117.69,188.43 L 3117.96,188.483 L 3118.23,188.512 L 3118.51,188.518 L 3118.78,188.5 L 3119.05,188.459 L 3119.31,188.395 L 3119.57,188.308 L 3119.82,188.2 L 3120.06,188.07 L 3120.29,187.92 L 3120.51,187.751 L 3120.71,187.565 L 3120.89,187.361 L 3121.05,187.143 L 3121.2,186.912 L 3121.32,186.669 L 3121.43,186.416 L 3121.51,186.155 L 3121.57,185.888 L 3121.6,185.617 L 3121.61,185.344 L 3118.44,185.344 Z" style="fill:#000000;fill-rule:evenodd;fill-opacity:1;stroke:#000000;stroke-width:4px;stroke-linecap:butt;stroke-linejoin:miter;stroke-opacity:1;"/>
<path d="M 3121.61,144.609 L 3121.6,144.336 L 3121.57,144.065 L 3121.51,143.798 L 3121.43,143.537 L 3121.32,143.284 L 3121.2,143.041 L 3121.05,142.81 L 3120.89,142.592 L 3120.71,142.388 L 3120.51,142.202 L 3120.29,142.033 L 3120.06,141.883 L 3119.82,141.753 L 3119.57,141.644 L 3119.31,141.558 L 3119.05,141.494 L 3118.78,141.453 L 3118.51,141.435 L 3118.23,141.441 L 3117.96,141.47 L 3117.69,141.523 L 3117.43,141.598 L 3117.18,141.696 L 3116.93,141.815 L 3116.7,141.955 L 3116.47,142.115 L 3116.27,142.293 L 3116.08,142.488 L 3115.9,142.699 L 3115.75,142.924 L 3115.61,143.161 L 3115.5,143.41 L 3115.41,143.667 L 3115.34,143.931 L 3115.29,144.2 L 3115.27,144.472 L 3115.27,144.745 L 3115.29,145.017 L 3115.34,145.286 L 3115.41,145.55 L 3115.5,145.807 L 3115.61,146.056 L 3115.75,146.293 L 3115.9,146.518 L 3116.08,146.729 L 3116.27,146.924 L 3116.47,147.102 L 3116.7,147.262 L 3116.93,147.402 L 3117.18,147.521 L 3117.43,147.619 L 3117.69,147.694 L 3117.96,147.747 L 3118.23,147.776 L 3118.51,147.782 L 3118.78,147.764 L 3119.05,147.723 L 3119.31,147.659 L 3119.57,147.573 L 3119.82,147.464 L 3120.06,147.334 L 3120.29,147.185 L 3120.51,147.016 L 3120.71,146.829 L 3120.89,146.626 L 3121.05,146.407 L 3121.2,146.176 L 3121.32,145.933 L 3121.43,145.68 L 3121.51,145.419 L 3121.57,145.152 L 3121.6,144.881 L 3121.61,144.609 L 3118.44,144.609 Z" style="fill:#000000;fill-rule:evenodd;fill-opacity:1;stroke:#000000;stroke-width:4px;stroke-linecap:butt;stroke-linejoin:miter;stroke-opacity:1;"/>
<path d="M 3121.61,164.976 L 3121.6,164.704 L 3121.57,164.433 L 3121.51,164.166 L 3121.43,163.905 L 3121.32,163.652 L 3121.2,163.409 L 3121.05,163.178 L 3120.89,162.959 L 3120.71,162.756 L 3120.51,162.569 L 3120.29,162.4 L 3120.06,162.251 L 3119.82,162.121 L 3119.57,162.012 L 3119.31,161.926 L 3119.05,161.862 L 3118.78,161.821 L 3118.51,161.803 L 3118.23,161.809 L 3117.96,161.838 L 3117.69,161.891 L 3117.43,161.966 L 3117.18,162.064 L 3116.93,162.183 L 3116.7,162.323 L 3116.47,162.483 L 3116.27,162.661 L 3116.08,162.856 L 3115.9,163.067 L 3115.75,163.292 L 3115.61,163.529 L 3115.5,163.778 L 3115.41,164.035 L 3115.34,164.299 L 3115.29,164.568 L 3115.27,164.84 L 3115.27,165.113 L 3115.29,165.385 L 3115.34,165.654 L 3115.41,165.918 L 3115.5,166.175 L 3115.61,166.424 L 3115.75,166.661 L 3115.9,166.886 L 3116.08,167.097 L 3116.27,167.292 L 3116.47,167.47 L 3116.7,167.63 L 3116.93,167.77 L 3117.18,167.889 L 3117.43,167.987 L 3117.69,168.062 L 3117.96,168.115 L 3118.23,168.144 L 3118.51,168.15 L 3118.78,168.132 L 3119.05,168.091 L 3119.31,168.027 L 3119.57,167.941 L 3119.82,167.832 L 3120.06,167.702 L 3120.29,167.552 L 3120.51,167.383 L 3120.71,167.197 L 3120.89,166.993 L 3121.05,166.775 L 3121.2,166.544 L 3121.32,166.301 L 3121.43,166.048 L 3121.51,165.787 L 3121.57,165.52 L 3121.6,165.249 L 3121.61,164.976 L 3118.44,164.976 Z" style="fill:#000000;fill-rule:evenodd;fill-opacity:1;stroke:#000000;stroke-width:4px;stroke-linecap:butt;stroke-linejoin:miter;stroke-opacity:1;"/>
<path d="M 3342.12,413.976 L 3342.11,413.703 L 3342.07,413.432 L 3342.01,413.165 L 3341.93,412.904 L 3341.83,412.652 L 3341.7,412.408 L 3341.56,412.177 L 3341.4,411.959 L 3341.21,411.756 L 3341.01,411.569 L 3340.8,411.4 L 3340.57,411.25 L 3340.33,411.12 L 3340.08,411.012 L 3339.82,410.925 L 3339.55,410.861 L 3339.28,410.82 L 3339.01,410.802 L 3338.74,410.808 L 3338.47,410.838 L 3338.2,410.89 L 3337.94,410.966 L 3337.68,411.063 L 3337.44,411.182 L 3337.2,411.322 L 3336.98,411.482 L 3336.77,411.66 L 3336.58,411.855 L 3336.41,412.066 L 3336.25,412.291 L 3336.12,412.529 L 3336,412.777 L 3335.91,413.034 L 3335.84,413.298 L 3335.8,413.567 L 3335.77,413.839 L 3335.77,414.112 L 3335.8,414.385 L 3335.84,414.654 L 3335.91,414.918 L 3336,415.175 L 3336.12,415.423 L 3336.25,415.66 L 3336.41,415.886 L 3336.58,416.096 L 3336.77,416.292 L 3336.98,416.47 L 3337.2,416.629 L 3337.44,416.769 L 3337.68,416.888 L 3337.94,416.986 L 3338.2,417.062 L 3338.47,417.114 L 3338.74,417.143 L 3339.01,417.149 L 3339.28,417.132 L 3339.55,417.091 L 3339.82,417.027 L 3340.08,416.94 L 3340.33,416.831 L 3340.57,416.702 L 3340.8,416.552 L 3341.01,416.383 L 3341.21,416.196 L 3341.4,415.993 L 3341.56,415.775 L 3341.7,415.543 L 3341.83,415.3 L 3341.93,415.047 L 3342.01,414.786 L 3342.07,414.52 L 3342.11,414.249 L 3342.12,413.976 L 3338.94,413.976 Z" style="fill:#000000;fill-rule:evenodd;fill-opacity:1;stroke:#000000;stroke-width:4px;stroke-linecap:butt;stroke-linejoin:miter;stroke-opacity:1;"/>
<path d="M 3342.12,392.109 L 3342.11,391.836 L 3342.07,391.565 L 3342.01,391.298 L 3341.93,391.038 L 3341.83,390.785 L 3341.7,390.542 L 3341.56,390.31 L 3341.4,390.092 L 3341.21,389.889 L 3341.01,389.702 L 3340.8,389.533 L 3340.57,389.383 L 3340.33,389.253 L 3340.08,389.145 L 3339.82,389.058 L 3339.55,388.994 L 3339.28,388.953 L 3339.01,388.936 L 3338.74,388.941 L 3338.47,388.971 L 3338.2,389.023 L 3337.94,389.099 L 3337.68,389.196 L 3337.44,389.316 L 3337.2,389.456 L 3336.98,389.615 L 3336.77,389.793 L 3336.58,389.988 L 3336.41,390.199 L 3336.25,390.424 L 3336.12,390.662 L 3336,390.91 L 3335.91,391.167 L 3335.84,391.431 L 3335.8,391.7 L 3335.77,391.972 L 3335.77,392.246 L 3335.8,392.518 L 3335.84,392.787 L 3335.91,393.051 L 3336,393.308 L 3336.12,393.556 L 3336.25,393.794 L 3336.41,394.019 L 3336.58,394.23 L 3336.77,394.425 L 3336.98,394.603 L 3337.2,394.762 L 3337.44,394.902 L 3337.68,395.022 L 3337.94,395.119 L 3338.2,395.195 L 3338.47,395.247 L 3338.74,395.277 L 3339.01,395.283 L 3339.28,395.265 L 3339.55,395.224 L 3339.82,395.16 L 3340.08,395.073 L 3340.33,394.965 L 3340.57,394.835 L 3340.8,394.685 L 3341.01,394.516 L 3341.21,394.329 L 3341.4,394.126 L 3341.56,393.908 L 3341.7,393.676 L 3341.83,393.433 L 3341.93,393.18 L 3342.01,392.92 L 3342.07,392.653 L 3342.11,392.382 L 3342.12,392.109 L 3338.94,392.109 Z" style="fill:#000000;fill-rule:evenodd;fill-opacity:1;stroke:#000000;stroke-width:4px;stroke-linecap:butt;stroke-linejoin:miter;stroke-opacity:1;"/>
<text dominant-baseline="central" style="font-size:24px;font-style:normal;font-weight:normal;fill-opacity:1;stroke:none;font-family:sans-serif;fill:#000000" text-anchor="middle" x="1076" y="252.277"><tspan>+</tspan></text>
<text dominant-baseline="central" style="font-size:24px;font-style:normal;font-weight:normal;fill-opacity:1;stroke:none;font-family:sans-serif;fill:#000000" text-anchor="middle" x="2959.31" y="252.277"><tspan>+</tspan></text>
<path d="M 1795.47,248.677 L 2218.7,248.677" style="fill:none;fill-rule:evenodd;stroke:#000000;stroke-width:4px;stroke-linecap:butt;stroke-linejoin:miter;stroke-opacity:1"/>
<path d="M 2218.7,248.677 L 2200.37,238.097" style="fill:none;fill-rule:evenodd;stroke:#000000;stroke-width:4px;stroke-linecap:butt;stroke-linejoin:miter;stroke-opacity:1"/>
<path d="M 2218.7,248.677 L 2200.37,259.258" style="fill:none;fill-rule:evenodd;stroke:#000000;stroke-width:4px;stroke-linecap:butt;stroke-linejoin:miter;stroke-opacity:1"/>
</svg>