<svg baseProfile="full" height="500px" version="1.1" viewBox="0 0 4000 500" width="4000px" xml:space="preserve" xmlns="http://www.w3.org/2000/svg" xmlns:rdkit="http://www.rdkit.org/xml" xmlns:xlink="http://www.w3.org/1999/xlink">
<!-- END OF HEADER -->
<rect height="500" style="opacity:1.0;fill:#FFFFFF;stroke:none" width="4000" x="0" y="0"> </rect>
<path d="M 388.411,244.332 L 250.964,164.976" style="fill:none;fill-rule:evenodd;stroke:#FFFFAA;stroke-width:33px;stroke-linecap:butt;stroke-linejoin:miter;stroke-opacity:1"/>
<path d="M 388.411,244.332 L 388.411,403.042" style="fill:none;fill-rule:evenodd;stroke:#FFFFAA;stroke-width:33px;stroke-linecap:butt;stroke-linejoin:miter;stroke-opacity:1"/>
<path d="M 388.411,244.332 L 525.859,164.976" style="fill:none;fill-rule:evenodd;stroke:#FFFFAA;stroke-width:33px;stroke-linecap:butt;stroke-linejoin:miter;stroke-opacity:1"/>
<path d="M 525.859,164.976 L 663.306,244.332" style="fill:none;fill-rule:evenodd;stroke:#FFFFAA;stroke-width:33px;stroke-linecap:butt;stroke-linejoin:miter;stroke-opacity:1"/>
<path d="M 663.306,244.332 L 800.754,164.976" style="fill:none;fill-rule:evenodd;stroke:#FFFFAA;stroke-width:33px;stroke-linecap:butt;stroke-linejoin:miter;stroke-opacity:1"/>
<path d="M 663.306,244.332 L 663.306,403.042" style="fill:none;fill-rule:evenodd;stroke:#FFFFAA;stroke-width:33px;stroke-linecap:butt;stroke-linejoin:miter;stroke-opacity:1"/>
<path d="M 1245.32,335.024 L 1382.77,255.668" style="fill:none;fill-rule:evenodd;stroke:#FFCC99;stroke-width:33px;stroke-linecap:butt;stroke-linejoin:miter;stroke-opacity:1"/>
<path d="M 1382.77,255.668 L 1382.77,96.9576" style="fill:none;fill-rule:evenodd;stroke:#FFCC99;stroke-width:33px;stroke-linecap:butt;stroke-linejoin:miter;stroke-opacity:1"/>
<path d="M 1382.77,255.668 L 1520.22,335.024" style="fill:none;fill-rule:evenodd;stroke:#FFCC99;stroke-width:33px;stroke-linecap:butt;stroke-linejoin:miter;stroke-opacity:1"/>
<path d="M 2476.23,335.024 L 2613.67,255.668" style="fill:none;fill-rule:evenodd;stroke:#FFFFAA;stroke-width:33px;stroke-linecap:butt;stroke-linejoin:miter;stroke-opacity:1"/>
<path d="M 2613.67,255.668 L 2751.12,335.024" style="fill:none;fill-rule:evenodd;stroke:#FFFFAA;stroke-width:33px;stroke-linecap:butt;stroke-linejoin:miter;stroke-opacity:1"/>
<path d="M 2613.67,255.668 L 2613.67,96.9576" style="fill:none;fill-rule:evenodd;stroke:#FFFFAA;stroke-width:33px;stroke-linecap:butt;stroke-linejoin:miter;stroke-opacity:1"/>
<path d="M 3199.25,164.976 L 3336.69,244.332" style="fill:none;fill-rule:evenodd;stroke:#FFCC99;stroke-width:33px;stroke-linecap:butt;stroke-linejoin:miter;stroke-opacity:1"/>
<path d="M 3336.69,244.332 L 3474.14,164.976" style="fill:none;fill-rule:evenodd;stroke:#FFCC99;stroke-width:33px;stroke-linecap:butt;stroke-linejoin:miter;stroke-opacity:1"/>
<path d="M 3336.69,244.332 L 3336.69,403.042" style="fill:none;fill-rule:evenodd;stroke:#FFCC99;stroke-width:33px;stroke-linecap:butt;stroke-linejoin:miter;stroke-opacity:1"/>
<path d="M 3611.59,244.332 L 3749.04,164.976" style="fill:none;fill-rule:evenodd;stroke:#FFFFAA;stroke-width:33px;stroke-linecap:butt;stroke-linejoin:miter;stroke-opacity:1"/>
<path d="M 3611.59,244.332 L 3611.59,403.042" style="fill:none;fill-rule:evenodd;stroke:#FFFFAA;stroke-width:33px;stroke-linecap:butt;stroke-linejoin:miter;stroke-opacity:1"/>
<ellipse cx="388.411" cy="244.332" rx="31.7421" ry="31.7421" style="fill:#FFFFAA;fill-rule:evenodd;stroke:#FFFFAA;stroke-width:2px;stroke-linecap:butt;stroke-linejoin:miter;stroke-opacity:1"/>
<ellipse cx="250.964" cy="164.976" rx="31.7421" ry="31.7421" style="fill:#FFFFAA;fill-rule:evenodd;stroke:#FFFFAA;stroke-width:2px;stroke-linecap:butt;stroke-linejoin:miter;stroke-opacity:1"/>
<ellipse cx="388.411" cy="403.042" rx="31.7421" ry="31.7421" style="fill:#FFFFAA;fill-rule:evenodd;stroke:#FFFFAA;stroke-width:2px;stroke-linecap:butt;stroke-linejoin:miter;stroke-opacity:1"/>
<ellipse cx="525.859" cy="164.976" rx="31.7421" ry="31.7421" style="fill:#FFFFAA;fill-rule:evenodd;stroke:#FFFFAA;stroke-width:2px;stroke-linecap:butt;stroke-linejoin:miter;stroke-opacity:1"/>
<ellipse cx="663.306" cy="244.332" rx="31.7421" ry="31.7421" style="fill:#FFFFAA;fill-rule:evenodd;stroke:#FFFFAA;stroke-width:2px;stroke-linecap:butt;stroke-linejoin:miter;stroke-opacity:1"/>
<ellipse cx="800.754" cy="164.976" rx="31.7421" ry="31.7421" style="fill:#FFFFAA;fill-rule:evenodd;stroke:#FFFFAA;stroke-width:2px;stroke-linecap:butt;stroke-linejoin:miter;stroke-opacity:1"/>
<ellipse cx="663.306" cy="403.042" rx="31.7421" ry="31.7421" style="fill:#FFFFAA;fill-rule:evenodd;stroke:#FFFFAA;stroke-width:2px;stroke-linecap:butt;stroke-linejoin:miter;stroke-opacity:1"/>
<ellipse cx="1245.32" cy="335.024" rx="31.7421" ry="31.7421" style="fill:#FFCC99;fill-rule:evenodd;stroke:#FFCC99;stroke-width:2px;stroke-linecap:butt;stroke-linejoin:miter;stroke-opacity:1"/>
<ellipse cx="1382.77" cy="255.668" rx="31.7421" ry="31.7421" style="fill:#FFCC99;fill-rule:evenodd;stroke:#FFCC99;stroke-width:2px;stroke-linecap:butt;stroke-linejoin:miter;stroke-opacity:1"/>
<ellipse cx="1406.78" cy="96.9576" rx="58.47" ry="31.7421" style="fill:#FFCC99;fill-rule:evenodd;stroke:#FFCC99;stroke-width:2px;stroke-linecap:butt;stroke-linejoin:miter;stroke-opacity:1"/>
<ellipse cx="1520.22" cy="335.024" rx="31.7421" ry="31.7421" style="fill:#FFCC99;fill-rule:evenodd;stroke:#FFCC99;stroke-width:2px;stroke-linecap:butt;stroke-linejoin:miter;stroke-opacity:1"/>
<ellipse cx="2476.23" cy="335.024" rx="31.7421" ry="31.7421" style="fill:#FFFFAA;fill-rule:evenodd;stroke:#FFFFAA;stroke-width:2px;stroke-linecap:butt;stroke-linejoin:miter;stroke-opacity:1"/>
<ellipse cx="2613.67" cy="255.668" rx="31.7421" ry="31.7421" style="fill:#FFFFAA;fill-rule:evenodd;stroke:#FFFFAA;stroke-width:2px;stroke-linecap:butt;stroke-linejoin:miter;stroke-opacity:1"/>
<ellipse cx="2751.12" cy="335.024" rx="31.7421" ry="31.7421" style="fill:#FFFFAA;fill-rule:evenodd;stroke:#FFFFAA;stroke-width:2px;stroke-linecap:butt;stroke-linejoin:miter;stroke-opacity:1"/>
<ellipse cx="2631.01" cy="96.9576" rx="50.9321" ry="31.7421" style="fill:#FFFFAA;fill-rule:evenodd;stroke:#FFFFAA;stroke-width:2px;stroke-linecap:butt;stroke-linejoin:miter;stroke-opacity:1"/>
<ellipse cx="3199.25" cy="164.976" rx="31.7421" ry="31.7421" style="fill:#FFCC99;fill-rule:evenodd;stroke:#FFCC99;stroke-width:2px;stroke-linecap:butt;stroke-linejoin:miter;stroke-opacity:1"/>
<ellipse cx="3336.69" cy="244.332" rx="31.7421" ry="31.7421" style="fill:#FFCC99;fill-rule:evenodd;stroke:#FFCC99;stroke-width:2px;stroke-linecap:butt;stroke-linejoin:miter;stroke-opacity:1"/>
<ellipse cx="3474.14" cy="144.976" rx="31.7421" ry="56.5685" style="fill:#FFCC99;fill-rule:evenodd;stroke:#FFCC99;stroke-width:2px;stroke-linecap:butt;stroke-linejoin:miter;stroke-opacity:1"/>
<ellipse cx="3611.59" cy="244.332" rx="31.7421" ry="31.7421" style="fill:#FFFFAA;fill-rule:evenodd;stroke:#FFFFAA;stroke-width:2px;stroke-linecap:butt;stroke-linejoin:miter;stroke-opacity:1"/>
<ellipse cx="3749.04" cy="164.976" rx="31.7421" ry="31.7421" style="fill:#FFFFAA;fill-rule:evenodd;stroke:#FFFFAA;stroke-width:2px;stroke-linecap:butt;stroke-linejoin:miter;stroke-opacity:1"/>
<ellipse cx="3611.59" cy="403.042" rx="31.7421" ry="31.7421" style="fill:#FFFFAA;fill-rule:evenodd;stroke:#FFFFAA;stroke-width:2px;stroke-linecap:butt;stroke-linejoin:miter;stroke-opacity:1"/>
<ellipse cx="3336.69" cy="403.042" rx="31.7421" ry="31.7421" style="fill:#FFCC99;fill-rule:evenodd;stroke:#FFCC99;stroke-width:2px;stroke-linecap:butt;stroke-linejoin:miter;stroke-opacity:1"/>
<path class="bond-0" d="M 388.411,244.332 L 250.964,164.976" style="fill:none;fill-rule:evenodd;stroke:#000000;stroke-width:4px;stroke-linecap:butt;stroke-linejoin:miter;stroke-opacity:1"/>
<path class="bond-1" d="M 372.54,244.332 L 372.54,313.687" style="fill:none;fill-rule:evenodd;stroke:#000000;stroke-width:4px;stroke-linecap:butt;stroke-linejoin:miter;stroke-opacity:1"/>
<path class="bond-1" d="M 372.54,313.687 L 372.54,383.042" style="fill:none;fill-rule:evenodd;stroke:#FF0000;stroke-width:4px;stroke-linecap:butt;stroke-linejoin:miter;stroke-opacity:1"/>
<path class="bond-1" d="M 404.282,244.332 L 404.282,313.687" style="fill:none;fill-rule:evenodd;stroke:#000000;stroke-width:4px;stroke-linecap:butt;stroke-linejoin:miter;stroke-opacity:1"/>
<path class="bond-1" d="M 404.282,313.687 L 404.282,383.042" style="fill:none;fill-rule:evenodd;stroke:#FF0000;stroke-width:4px;stroke-linecap:butt;stroke-linejoin:miter;stroke-opacity:1"/>
<path class="bond-2" d="M 388.411,244.332 L 447.795,210.046" style="fill:none;fill-rule:evenodd;stroke:#000000;stroke-width:4px;stroke-linecap:butt;stroke-linejoin:miter;stroke-opacity:1"/>
<path class="bond-2" d="M 447.795,210.046 L 507.179,175.761" style="fill:none;fill-rule:evenodd;stroke:#FF0000;stroke-width:4px;stroke-linecap:butt;stroke-linejoin:miter;stroke-opacity:1"/>
<path class="bond-3" d="M 544.538,175.761 L 603.922,210.046" style="fill:none;fill-rule:evenodd;stroke:#FF0000;stroke-width:4px;stroke-linecap:butt;stroke-linejoin:miter;stroke-opacity:1"/>
<path class="bond-3" d="M 603.922,210.046 L 663.306,244.332" style="fill:none;fill-rule:evenodd;stroke:#000000;stroke-width:4px;stroke-linecap:butt;stroke-linejoin:miter;stroke-opacity:1"/>
<path class="bond-4" d="M 663.306,244.332 L 800.754,164.976" style="fill:none;fill-rule:evenodd;stroke:#000000;stroke-width:4px;stroke-linecap:butt;stroke-linejoin:miter;stroke-opacity:1"/>
<path class="bond-5" d="M 647.435,244.332 L 647.435,313.687" style="fill:none;fill-rule:evenodd;stroke:#000000;stroke-width:4px;stroke-linecap:butt;stroke-linejoin:miter;stroke-opacity:1"/>
<path class="bond-5" d="M 647.435,313.687 L 647.435,383.042" style="fill:none;fill-rule:evenodd;stroke:#FF0000;stroke-width:4px;stroke-linecap:butt;stroke-linejoin:miter;stroke-opacity:1"/>
<path class="bond-5" d="M 679.177,244.332 L 679.177,313.687" style="fill:none;fill-rule:evenodd;stroke:#000000;stroke-width:4px;stroke-linecap:butt;stroke-linejoin:miter;stroke-opacity:1"/>
<path class="bond-5" d="M 679.177,313.687 L 679.177,383.042" style="fill:none;fill-rule:evenodd;stroke:#FF0000;stroke-width:4px;stroke-linecap:butt;stroke-linejoin:miter;stroke-opacity:1"/>
<path class="bond-6" d="M 1253.26,348.768 L 1390.7,269.413" style="fill:none;fill-rule:evenodd;stroke:#000000;stroke-width:4px;stroke-linecap:butt;stroke-linejoin:miter;stroke-opacity:1"/>
<path class="bond-6" d="M 1237.39,321.279 L 1374.83,241.923" style="fill:none;fill-rule:evenodd;stroke:#000000;stroke-width:4px;stroke-linecap:butt;stroke-linejoin:miter;stroke-opacity:1;stroke-dasharray:6,6"/>
<path class="bond-7" d="M 1382.77,255.668 L 1382.77,187.313" style="fill:none;fill-rule:evenodd;stroke:#000000;stroke-width:4px;stroke-linecap:butt;stroke-linejoin:miter;stroke-opacity:1"/>
<path class="bond-7" d="M 1382.77,187.313 L 1382.77,118.958" style="fill:none;fill-rule:evenodd;stroke:#0000FF;stroke-width:4px;stroke-linecap:butt;stroke-linejoin:miter;stroke-opacity:1"/>
<path class="bond-8" d="M 1374.83,269.413 L 1512.28,348.768" style="fill:none;fill-rule:evenodd;stroke:#000000;stroke-width:4px;stroke-linecap:butt;stroke-linejoin:miter;stroke-opacity:1"/>
<path class="bond-8" d="M 1390.7,241.923 L 1528.15,321.279" style="fill:none;fill-rule:evenodd;stroke:#000000;stroke-width:4px;stroke-linecap:butt;stroke-linejoin:miter;stroke-opacity:1;stroke-dasharray:6,6"/>
<path class="bond-9" d="M 2476.23,335.024 L 2613.67,255.668" style="fill:none;fill-rule:evenodd;stroke:#000000;stroke-width:4px;stroke-linecap:butt;stroke-linejoin:miter;stroke-opacity:1"/>
<path class="bond-10" d="M 2605.74,269.413 L 2665.12,303.698" style="fill:none;fill-rule:evenodd;stroke:#000000;stroke-width:4px;stroke-linecap:butt;stroke-linejoin:miter;stroke-opacity:1"/>
<path class="bond-10" d="M 2665.12,303.698 L 2724.51,337.984" style="fill:none;fill-rule:evenodd;stroke:#FF0000;stroke-width:4px;stroke-linecap:butt;stroke-linejoin:miter;stroke-opacity:1"/>
<path class="bond-10" d="M 2621.61,241.923 L 2680.99,276.209" style="fill:none;fill-rule:evenodd;stroke:#000000;stroke-width:4px;stroke-linecap:butt;stroke-linejoin:miter;stroke-opacity:1"/>
<path class="bond-10" d="M 2680.99,276.209 L 2740.38,310.494" style="fill:none;fill-rule:evenodd;stroke:#FF0000;stroke-width:4px;stroke-linecap:butt;stroke-linejoin:miter;stroke-opacity:1"/>
<path class="bond-11" d="M 2613.67,255.668 L 2613.67,186.313" style="fill:none;fill-rule:evenodd;stroke:#000000;stroke-width:4px;stroke-linecap:butt;stroke-linejoin:miter;stroke-opacity:1"/>
<path class="bond-11" d="M 2613.67,186.313 L 2613.67,116.958" style="fill:none;fill-rule:evenodd;stroke:#FF0000;stroke-width:4px;stroke-linecap:butt;stroke-linejoin:miter;stroke-opacity:1"/>
<path class="bond-12" d="M 3191.31,178.721 L 3328.76,258.077" style="fill:none;fill-rule:evenodd;stroke:#000000;stroke-width:4px;stroke-linecap:butt;stroke-linejoin:miter;stroke-opacity:1"/>
<path class="bond-12" d="M 3207.18,151.232 L 3344.63,230.587" style="fill:none;fill-rule:evenodd;stroke:#000000;stroke-width:4px;stroke-linecap:butt;stroke-linejoin:miter;stroke-opacity:1;stroke-dasharray:6,6"/>
<path class="bond-13" d="M 3336.69,244.332 L 3396.75,209.658" style="fill:none;fill-rule:evenodd;stroke:#000000;stroke-width:4px;stroke-linecap:butt;stroke-linejoin:miter;stroke-opacity:1"/>
<path class="bond-13" d="M 3396.75,209.658 L 3456.81,174.985" style="fill:none;fill-rule:evenodd;stroke:#0000FF;stroke-width:4px;stroke-linecap:butt;stroke-linejoin:miter;stroke-opacity:1"/>
<path class="bond-17" d="M 3320.82,244.332 L 3320.82,403.042" style="fill:none;fill-rule:evenodd;stroke:#000000;stroke-width:4px;stroke-linecap:butt;stroke-linejoin:miter;stroke-opacity:1"/>
<path class="bond-17" d="M 3352.56,244.332 L 3352.56,403.042" style="fill:none;fill-rule:evenodd;stroke:#000000;stroke-width:4px;stroke-linecap:butt;stroke-linejoin:miter;stroke-opacity:1;stroke-dasharray:6,6"/>
<path class="bond-14" d="M 3491.48,174.985 L 3551.53,209.658" style="fill:none;fill-rule:evenodd;stroke:#0000FF;stroke-width:4px;stroke-linecap:butt;stroke-linejoin:miter;stroke-opacity:1"/>
<path class="bond-14" d="M 3551.53,209.658 L 3611.59,244.332" style="fill:none;fill-rule:evenodd;stroke:#000000;stroke-width:4px;stroke-linecap:butt;stroke-linejoin:miter;stroke-opacity:1"/>
<path class="bond-15" d="M 3611.59,244.332 L 3749.04,164.976" style="fill:none;fill-rule:evenodd;stroke:#000000;stroke-width:4px;stroke-linecap:butt;stroke-linejoin:miter;stroke-opacity:1"/>
<path class="bond-16" d="M 3595.72,244.332 L 3595.72,313.687" style="fill:none;fill-rule:evenodd;stroke:#000000;stroke-width:4px;stroke-linecap:butt;stroke-linejoin:miter;stroke-opacity:1"/>
<path class="bond-16" d="M 3595.72,313.687 L 3595.72,383.042" style="fill:none;fill-rule:evenodd;stroke:#FF0000;stroke-width:4px;stroke-linecap:butt;stroke-linejoin:miter;stroke-opacity:1"/>
<path class="bond-16" d="M 3627.46,244.332 L 3627.46,313.687" style="fill:none;fill-rule:evenodd;stroke:#000000;stroke-width:4px;stroke-linecap:butt;stroke-linejoin:miter;stroke-opacity:1"/>
<path class="bond-16" d="M 3627.46,313.687 L 3627.46,383.042" style="fill:none;fill-rule:evenodd;stroke:#FF0000;stroke-width:4px;stroke-linecap:butt;stroke-linejoin:miter;stroke-opacity:1"/>
<text dominant-baseline="central" style="font-size:40px;font-style:normal;font-weight:normal;fill-opacity:1;stroke:none;font-family:sans-serif;fill:#FF0000" text-anchor="start" x="373.732" y="409.042"><tspan>O</tspan></text>
<text dominant-baseline="central" style="font-size:40px;font-style:normal;font-weight:normal;fill-opacity:1;stroke:none;font-family:sans-serif;fill:#FF0000" text-anchor="middle" x="525.859" y="170.976"><tspan>O</tspan></text>
<text dominant-baseline="central" style="font-size:40px;font-style:normal;font-weight:normal;fill-opacity:1;stroke:none;font-family:sans-serif;fill:#FF0000" text-anchor="start" x="648.627" y="409.042"><tspan>O</tspan></text>
<text dominant-baseline="central" style="font-size:40px;font-style:normal;font-weight:normal;fill-opacity:1;stroke:none;font-family:sans-serif;fill:#0000FF" text-anchor="start" x="1369.83" y="103.558"><tspan>NH</tspan><tspan style="baseline-shift:sub;font-size:30px;">2</tspan><tspan/></text>
<text dominant-baseline="central" style="font-size:40px;font-style:normal;font-weight:normal;fill-opacity:1;stroke:none;font-family:sans-serif;fill:#FF0000" text-anchor="start" x="2736.44" y="341.024"><tspan>O</tspan></text>
<text dominant-baseline="central" style="font-size:40px;font-style:normal;font-weight:normal;fill-opacity:1;stroke:none;font-family:sans-serif;fill:#FF0000" text-anchor="start" x="2599" y="102.958"><tspan>OH</tspan></text>
<text dominant-baseline="central" style="font-size:40px;font-style:normal;font-weight:normal;fill-opacity:1;stroke:none;font-family:sans-serif;fill:#0000FF" text-anchor="middle" x="3474.14" y="170.976"><tspan>N</tspan></text>
<text dominant-baseline="central" style="font-size:40px;font-style:normal;font-weight:normal;fill-opacity:1;stroke:none;font-family:sans-serif;fill:#0000FF" text-anchor="start" x="3460.81" y="130.976"><tspan>H</tspan></text>
<text dominant-baseline="central" style="font-size:40px;font-style:normal;font-weight:normal;fill-opacity:1;stroke:none;font-family:sans-serif;fill:#FF0000" text-anchor="start" x="3596.91" y="409.042"><tspan>O</tspan></text>
<text dominant-baseline="central" style="font-size:39px;font-style:normal;font-weight:normal;fill-opacity:1;stroke:none;font-family:sans-serif;fill:#000000" text-anchor="middle" x="342.595" y="276.735"><tspan>8</tspan></text>
<text dominant-baseline="central" style="font-size:39px;font-style:normal;font-weight:normal;fill-opacity:1;stroke:none;font-family:sans-serif;fill:#000000" text-anchor="middle" x="237.738" y="193.836"><tspan>9</tspan></text>
<text dominant-baseline="central" style="font-size:39px;font-style:normal;font-weight:normal;fill-opacity:1;stroke:none;font-family:sans-serif;fill:#000000" text-anchor="middle" x="388.411" y="461.898"><tspan>10</tspan></text>
<text dominant-baseline="central" style="font-size:39px;font-style:normal;font-weight:normal;fill-opacity:1;stroke:none;font-family:sans-serif;fill:#000000" text-anchor="middle" x="525.859" y="118.025"><tspan>16</tspan></text>
<text dominant-baseline="central" style="font-size:39px;font-style:normal;font-weight:normal;fill-opacity:1;stroke:none;font-family:sans-serif;fill:#000000" text-anchor="middle" x="663.306" y="197.38"><tspan>14</tspan></text>
<text dominant-baseline="central" style="font-size:39px;font-style:normal;font-weight:normal;fill-opacity:1;stroke:none;font-family:sans-serif;fill:#000000" text-anchor="middle" x="787.528" y="148.02"><tspan>13</tspan></text>
<text dominant-baseline="central" style="font-size:39px;font-style:normal;font-weight:normal;fill-opacity:1;stroke:none;font-family:sans-serif;fill:#000000" text-anchor="middle" x="663.306" y="461.898"><tspan>15</tspan></text>
<text dominant-baseline="central" style="font-size:39px;font-style:normal;font-weight:normal;fill-opacity:1;stroke:none;font-family:sans-serif;fill:#000000" text-anchor="middle" x="1222.41" y="327.749"><tspan>5</tspan></text>
<text dominant-baseline="central" style="font-size:39px;font-style:normal;font-weight:normal;fill-opacity:1;stroke:none;font-family:sans-serif;fill:#000000" text-anchor="middle" x="1336.95" y="235.168"><tspan>6</tspan></text>
<text dominant-baseline="central" style="font-size:39px;font-style:normal;font-weight:normal;fill-opacity:1;stroke:none;font-family:sans-serif;fill:#000000" text-anchor="middle" x="1382.77" y="50.0057"><tspan>7</tspan></text>
<text dominant-baseline="central" style="font-size:39px;font-style:normal;font-weight:normal;fill-opacity:1;stroke:none;font-family:sans-serif;fill:#000000" text-anchor="middle" x="1546.67" y="295.159"><tspan>11</tspan></text>
<text dominant-baseline="central" style="font-size:39px;font-style:normal;font-weight:normal;fill-opacity:1;stroke:none;font-family:sans-serif;fill:#000000" text-anchor="middle" x="2489.45" y="363.883"><tspan>13</tspan></text>
<text dominant-baseline="central" style="font-size:39px;font-style:normal;font-weight:normal;fill-opacity:1;stroke:none;font-family:sans-serif;fill:#000000" text-anchor="middle" x="2567.86" y="235.168"><tspan>14</tspan></text>
<text dominant-baseline="central" style="font-size:39px;font-style:normal;font-weight:normal;fill-opacity:1;stroke:none;font-family:sans-serif;fill:#000000" text-anchor="middle" x="2751.12" y="393.879"><tspan>15</tspan></text>
<text dominant-baseline="central" style="font-size:39px;font-style:normal;font-weight:normal;fill-opacity:1;stroke:none;font-family:sans-serif;fill:#000000" text-anchor="middle" x="2613.67" y="50.0057"><tspan>16</tspan></text>
<text dominant-baseline="central" style="font-size:39px;font-style:normal;font-weight:normal;fill-opacity:1;stroke:none;font-family:sans-serif;fill:#000000" text-anchor="middle" x="3186.02" y="148.02"><tspan>5</tspan></text>
<text dominant-baseline="central" style="font-size:39px;font-style:normal;font-weight:normal;fill-opacity:1;stroke:none;font-family:sans-serif;fill:#000000" text-anchor="middle" x="3336.69" y="197.38"><tspan>6</tspan></text>
<text dominant-baseline="central" style="font-size:39px;font-style:normal;font-weight:normal;fill-opacity:1;stroke:none;font-family:sans-serif;fill:#000000" text-anchor="middle" x="3428.33" y="144.476"><tspan>7</tspan></text>
<text dominant-baseline="central" style="font-size:39px;font-style:normal;font-weight:normal;fill-opacity:1;stroke:none;font-family:sans-serif;fill:#000000" text-anchor="middle" x="3611.59" y="197.38"><tspan>8</tspan></text>
<text dominant-baseline="central" style="font-size:39px;font-style:normal;font-weight:normal;fill-opacity:1;stroke:none;font-family:sans-serif;fill:#000000" text-anchor="middle" x="3735.81" y="148.02"><tspan>9</tspan></text>
<text dominant-baseline="central" style="font-size:39px;font-style:normal;font-weight:normal;fill-opacity:1;stroke:none;font-family:sans-serif;fill:#000000" text-anchor="middle" x="3611.59" y="461.898"><tspan>10</tspan></text>
<text dominant-baseline="central" style="font-size:39px;font-style:normal;font-weight:normal;fill-opacity:1;stroke:none;font-family:sans-serif;fill:#000000" text-anchor="middle" x="3323.47" y="431.902"><tspan>11</tspan></text>
<path d="M 1237.56,358.83 L 1237.55,358.557 L 1237.52,358.286 L 1237.46,358.02 L 1237.38,357.759 L 1237.27,357.506 L 1237.15,357.263 L 1237,357.031 L 1236.84,356.813 L 1236.66,356.61 L 1236.46,356.423 L 1236.24,356.254 L 1236.01,356.104 L 1235.77,355.975 L 1235.52,355.866 L 1235.26,355.779 L 1235,355.715 L 1234.73,355.674 L 1234.46,355.657 L 1234.18,355.663 L 1233.91,355.692 L 1233.64,355.744 L 1233.38,355.82 L 1233.13,355.918 L 1232.88,356.037 L 1232.65,356.177 L 1232.42,356.336 L 1232.22,356.514 L 1232.03,356.71 L 1231.85,356.92 L 1231.7,357.146 L 1231.56,357.383 L 1231.45,357.631 L 1231.36,357.888 L 1231.29,358.152 L 1231.24,358.421 L 1231.22,358.694 L 1231.22,358.967 L 1231.24,359.239 L 1231.29,359.508 L 1231.36,359.772 L 1231.45,360.029 L 1231.56,360.277 L 1231.7,360.515 L 1231.85,360.74 L 1232.03,360.951 L 1232.22,361.146 L 1232.42,361.324 L 1232.65,361.484 L 1232.88,361.624 L 1233.13,361.743 L 1233.38,361.84 L 1233.64,361.916 L 1233.91,361.968 L 1234.18,361.998 L 1234.46,362.004 L 1234.73,361.986 L 1235,361.945 L 1235.26,361.881 L 1235.52,361.794 L 1235.77,361.686 L 1236.01,361.556 L 1236.24,361.406 L 1236.46,361.237 L 1236.66,361.05 L 1236.84,360.847 L 1237,360.629 L 1237.15,360.398 L 1237.27,360.154 L 1237.38,359.902 L 1237.46,359.641 L 1237.52,359.374 L 1237.55,359.103 L 1237.56,358.83 L 1234.39,358.83 Z" style="fill:#000000;fill-rule:evenodd;fill-opacity:1;stroke:#000000;stroke-width:4px;stroke-linecap:butt;stroke-linejoin:miter;stroke-opacity:1;"/>
<path d="M 1259.43,358.83 L 1259.42,358.557 L 1259.38,358.286 L 1259.32,358.02 L 1259.24,357.759 L 1259.14,357.506 L 1259.01,357.263 L 1258.87,357.031 L 1258.71,356.813 L 1258.52,356.61 L 1258.32,356.423 L 1258.11,356.254 L 1257.88,356.104 L 1257.64,355.975 L 1257.39,355.866 L 1257.13,355.779 L 1256.87,355.715 L 1256.6,355.674 L 1256.32,355.657 L 1256.05,355.663 L 1255.78,355.692 L 1255.51,355.744 L 1255.25,355.82 L 1254.99,355.918 L 1254.75,356.037 L 1254.51,356.177 L 1254.29,356.336 L 1254.08,356.514 L 1253.89,356.71 L 1253.72,356.92 L 1253.56,357.146 L 1253.43,357.383 L 1253.32,357.631 L 1253.22,357.888 L 1253.15,358.152 L 1253.11,358.421 L 1253.08,358.694 L 1253.08,358.967 L 1253.11,359.239 L 1253.15,359.508 L 1253.22,359.772 L 1253.32,360.029 L 1253.43,360.277 L 1253.56,360.515 L 1253.72,360.74 L 1253.89,360.951 L 1254.08,361.146 L 1254.29,361.324 L 1254.51,361.484 L 1254.75,361.624 L 1254.99,361.743 L 1255.25,361.84 L 1255.51,361.916 L 1255.78,361.968 L 1256.05,361.998 L 1256.32,362.004 L 1256.6,361.986 L 1256.87,361.945 L 1257.13,361.881 L 1257.39,361.794 L 1257.64,361.686 L 1257.88,361.556 L 1258.11,361.406 L 1258.32,361.237 L 1258.52,361.05 L 1258.71,360.847 L 1258.87,360.629 L 1259.01,360.398 L 1259.14,360.154 L 1259.24,359.902 L 1259.32,359.641 L 1259.38,359.374 L 1259.42,359.103 L 1259.43,358.83 L 1256.25,358.83 Z" style="fill:#000000;fill-rule:evenodd;fill-opacity:1;stroke:#000000;stroke-width:4px;stroke-linecap:butt;stroke-linejoin:miter;stroke-opacity:1;"/>
<path d="M 1512.46,358.83 L 1512.45,358.557 L 1512.41,358.286 L 1512.35,358.02 L 1512.27,357.759 L 1512.17,357.506 L 1512.04,357.263 L 1511.9,357.031 L 1511.73,356.813 L 1511.55,356.61 L 1511.35,356.423 L 1511.14,356.254 L 1510.91,356.104 L 1510.67,355.975 L 1510.42,355.866 L 1510.16,355.779 L 1509.89,355.715 L 1509.62,355.674 L 1509.35,355.657 L 1509.08,355.663 L 1508.81,355.692 L 1508.54,355.744 L 1508.28,355.82 L 1508.02,355.918 L 1507.78,356.037 L 1507.54,356.177 L 1507.32,356.336 L 1507.11,356.514 L 1506.92,356.71 L 1506.75,356.92 L 1506.59,357.146 L 1506.46,357.383 L 1506.34,357.631 L 1506.25,357.888 L 1506.18,358.152 L 1506.14,358.421 L 1506.11,358.694 L 1506.11,358.967 L 1506.14,359.239 L 1506.18,359.508 L 1506.25,359.772 L 1506.34,360.029 L 1506.46,360.277 L 1506.59,360.515 L 1506.75,360.74 L 1506.92,360.951 L 1507.11,361.146 L 1507.32,361.324 L 1507.54,361.484 L 1507.78,361.624 L 1508.02,361.743 L 1508.28,361.84 L 1508.54,361.916 L 1508.81,361.968 L 1509.08,361.998 L 1509.35,362.004 L 1509.62,361.986 L 1509.89,361.945 L 1510.16,361.881 L 1510.42,361.794 L 1510.67,361.686 L 1510.91,361.556 L 1511.14,361.406 L 1511.35,361.237 L 1511.55,361.05 L 1511.73,360.847 L 1511.9,360.629 L 1512.04,360.398 L 1512.17,360.154 L 1512.27,359.902 L 1512.35,359.641 L 1512.41,359.374 L 1512.45,359.103 L 1512.46,358.83 L 1509.28,358.83 Z" style="fill:#000000;fill-rule:evenodd;fill-opacity:1;stroke:#000000;stroke-width:4px;stroke-linecap:butt;stroke-linejoin:miter;stroke-opacity:1;"/>
<path d="M 1534.32,358.83 L 1534.31,358.557 L 1534.28,358.286 L 1534.22,358.02 L 1534.14,357.759 L 1534.03,357.506 L 1533.91,357.263 L 1533.76,357.031 L 1533.6,356.813 L 1533.42,356.61 L 1533.22,356.423 L 1533,356.254 L 1532.78,356.104 L 1532.54,355.975 L 1532.29,355.866 L 1532.03,355.779 L 1531.76,355.715 L 1531.49,355.674 L 1531.22,355.657 L 1530.94,355.663 L 1530.67,355.692 L 1530.41,355.744 L 1530.14,355.82 L 1529.89,355.918 L 1529.64,356.037 L 1529.41,356.177 L 1529.19,356.336 L 1528.98,356.514 L 1528.79,356.71 L 1528.61,356.92 L 1528.46,357.146 L 1528.32,357.383 L 1528.21,357.631 L 1528.12,357.888 L 1528.05,358.152 L 1528,358.421 L 1527.98,358.694 L 1527.98,358.967 L 1528,359.239 L 1528.05,359.508 L 1528.12,359.772 L 1528.21,360.029 L 1528.32,360.277 L 1528.46,360.515 L 1528.61,360.74 L 1528.79,360.951 L 1528.98,361.146 L 1529.19,361.324 L 1529.41,361.484 L 1529.64,361.624 L 1529.89,361.743 L 1530.14,361.84 L 1530.41,361.916 L 1530.67,361.968 L 1530.94,361.998 L 1531.22,362.004 L 1531.49,361.986 L 1531.76,361.945 L 1532.03,361.881 L 1532.29,361.794 L 1532.54,361.686 L 1532.78,361.556 L 1533,361.406 L 1533.22,361.237 L 1533.42,361.05 L 1533.6,360.847 L 1533.76,360.629 L 1533.91,360.398 L 1534.03,360.154 L 1534.14,359.902 L 1534.22,359.641 L 1534.28,359.374 L 1534.31,359.103 L 1534.32,358.83 L 1531.15,358.83 Z" style="fill:#000000;fill-rule:evenodd;fill-opacity:1;stroke:#000000;stroke-width:4px;stroke-linecap:butt;stroke-linejoin:miter;stroke-opacity:1;"/>
<path d="M 3164.86,175.91 L 3164.85,175.637 L 3164.81,175.366 L 3164.75,175.099 L 3164.67,174.838 L 3164.57,174.586 L 3164.45,174.342 L 3164.3,174.111 L 3164.14,173.893 L 3163.95,173.69 L 3163.75,173.503 L 3163.54,173.334 L 3163.31,173.184 L 3163.07,173.054 L 3162.82,172.946 L 3162.56,172.859 L 3162.3,172.795 L 3162.03,172.754 L 3161.75,172.736 L 3161.48,172.742 L 3161.21,172.772 L 3160.94,172.824 L 3160.68,172.9 L 3160.42,172.997 L 3160.18,173.116 L 3159.94,173.256 L 3159.72,173.416 L 3159.51,173.594 L 3159.32,173.789 L 3159.15,174 L 3158.99,174.225 L 3158.86,174.463 L 3158.75,174.711 L 3158.65,174.968 L 3158.58,175.232 L 3158.54,175.501 L 3158.51,175.773 L 3158.51,176.046 L 3158.54,176.319 L 3158.58,176.588 L 3158.65,176.852 L 3158.75,177.109 L 3158.86,177.357 L 3158.99,177.594 L 3159.15,177.82 L 3159.32,178.03 L 3159.51,178.226 L 3159.72,178.404 L 3159.94,178.563 L 3160.18,178.703 L 3160.42,178.822 L 3160.68,178.92 L 3160.94,178.996 L 3161.21,179.048 L 3161.48,179.077 L 3161.75,179.083 L 3162.03,179.066 L 3162.3,179.025 L 3162.56,178.961 L 3162.82,178.874 L 3163.07,178.765 L 3163.31,178.636 L 3163.54,178.486 L 3163.75,178.317 L 3163.95,178.13 L 3164.14,177.927 L 3164.3,177.709 L 3164.45,177.477 L 3164.57,177.234 L 3164.67,176.981 L 3164.75,176.72 L 3164.81,176.454 L 3164.85,176.183 L 3164.86,175.91 L 3161.68,175.91 Z" style="fill:#000000;fill-rule:evenodd;fill-opacity:1;stroke:#000000;stroke-width:4px;stroke-linecap:butt;stroke-linejoin:miter;stroke-opacity:1;"/>
<path d="M 3164.86,154.043 L 3164.85,153.77 L 3164.81,153.499 L 3164.75,153.232 L 3164.67,152.972 L 3164.57,152.719 L 3164.45,152.476 L 3164.3,152.244 L 3164.14,152.026 L 3163.95,151.823 L 3163.75,151.636 L 3163.54,151.467 L 3163.31,151.317 L 3163.07,151.187 L 3162.82,151.079 L 3162.56,150.992 L 3162.3,150.928 L 3162.03,150.887 L 3161.75,150.87 L 3161.48,150.875 L 3161.21,150.905 L 3160.94,150.957 L 3160.68,151.033 L 3160.42,151.13 L 3160.18,151.25 L 3159.94,151.39 L 3159.72,151.549 L 3159.51,151.727 L 3159.32,151.922 L 3159.15,152.133 L 3158.99,152.358 L 3158.86,152.596 L 3158.75,152.844 L 3158.65,153.101 L 3158.58,153.365 L 3158.54,153.634 L 3158.51,153.906 L 3158.51,154.18 L 3158.54,154.452 L 3158.58,154.721 L 3158.65,154.985 L 3158.75,155.242 L 3158.86,155.49 L 3158.99,155.728 L 3159.15,155.953 L 3159.32,156.164 L 3159.51,156.359 L 3159.72,156.537 L 3159.94,156.696 L 3160.18,156.836 L 3160.42,156.956 L 3160.68,157.053 L 3160.94,157.129 L 3161.21,157.181 L 3161.48,157.211 L 3161.75,157.217 L 3162.03,157.199 L 3162.3,157.158 L 3162.56,157.094 L 3162.82,157.007 L 3163.07,156.899 L 3163.31,156.769 L 3163.54,156.619 L 3163.75,156.45 L 3163.95,156.263 L 3164.14,156.06 L 3164.3,155.842 L 3164.45,155.61 L 3164.57,155.367 L 3164.67,155.114 L 3164.75,154.854 L 3164.81,154.587 L 3164.85,154.316 L 3164.86,154.043 L 3161.68,154.043 Z" style="fill:#000000;fill-rule:evenodd;fill-opacity:1;stroke:#000000;stroke-width:4px;stroke-linecap:butt;stroke-linejoin:miter;stroke-opacity:1;"/>
<path d="M 3377.43,413.976 L 3377.42,413.703 L 3377.38,413.432 L 3377.32,413.165 L 3377.24,412.904 L 3377.14,412.652 L 3377.02,412.408 L 3376.87,412.177 L 3376.71,411.959 L 3376.52,411.756 L 3376.32,411.569 L 3376.11,411.4 L 3375.88,411.25 L 3375.64,411.12 L 3375.39,411.012 L 3375.13,410.925 L 3374.87,410.861 L 3374.6,410.82 L 3374.32,410.802 L 3374.05,410.808 L 3373.78,410.838 L 3373.51,410.89 L 3373.25,410.966 L 3372.99,411.063 L 3372.75,411.182 L 3372.51,411.322 L 3372.29,411.482 L 3372.08,411.66 L 3371.89,411.855 L 3371.72,412.066 L 3371.57,412.291 L 3371.43,412.529 L 3371.32,412.777 L 3371.22,413.034 L 3371.15,413.298 L 3371.11,413.567 L 3371.08,413.839 L 3371.08,414.112 L 3371.11,414.385 L 3371.15,414.654 L 3371.22,414.918 L 3371.32,415.175 L 3371.43,415.423 L 3371.57,415.66 L 3371.72,415.886 L 3371.89,416.096 L 3372.08,416.292 L 3372.29,416.47 L 3372.51,416.629 L 3372.75,416.769 L 3372.99,416.888 L 3373.25,416.986 L 3373.51,417.062 L 3373.78,417.114 L 3374.05,417.143 L 3374.32,417.149 L 3374.6,417.132 L 3374.87,417.091 L 3375.13,417.027 L 3375.39,416.94 L 3375.64,416.831 L 3375.88,416.702 L 3376.11,416.552 L 3376.32,416.383 L 3376.52,416.196 L 3376.71,415.993 L 3376.87,415.775 L 3377.02,415.543 L 3377.14,415.3 L 3377.24,415.047 L 3377.32,414.786 L 3377.38,414.52 L 3377.42,414.249 L 3377.43,413.976 L 3374.26,413.976 Z" style="fill:#000000;fill-rule:evenodd;fill-opacity:1;stroke:#000000;stroke-width:4px;stroke-linecap:butt;stroke-linejoin:miter;stroke-opacity:1;"/>
<path d="M 3377.43,392.109 L 3377.42,391.836 L 3377.38,391.565 L 3377.32,391.298 L 3377.24,391.038 L 3377.14,390.785 L 3377.02,390.542 L 3376.87,390.31 L 3376.71,390.092 L 3376.52,389.889 L 3376.32,389.702 L 3376.11,389.533 L 3375.88,389.383 L 3375.64,389.253 L 3375.39,389.145 L 3375.13,389.058 L 3374.87,388.994 L 3374.6,388.953 L 3374.32,388.936 L 3374.05,388.941 L 3373.78,388.971 L 3373.51,389.023 L 3373.25,389.099 L 3372.99,389.196 L 3372.75,389.316 L 3372.51,389.456 L 3372.29,389.615 L 3372.08,389.793 L 3371.89,389.988 L 3371.72,390.199 L 3371.57,390.424 L 3371.43,390.662 L 3371.32,390.91 L 3371.22,391.167 L 3371.15,391.431 L 3371.11,391.7 L 3371.08,391.972 L 3371.08,392.246 L 3371.11,392.518 L 3371.15,392.787 L 3371.22,393.051 L 3371.32,393.308 L 3371.43,393.556 L 3371.57,393.794 L 3371.72,394.019 L 3371.89,394.23 L 3372.08,394.425 L 3372.29,394.603 L 3372.51,394.762 L 3372.75,394.902 L 3372.99,395.022 L 3373.25,395.119 L 3373.51,395.195 L 3373.78,395.247 L 3374.05,395.277 L 3374.32,395.283 L 3374.6,395.265 L 3374.87,395.224 L 3375.13,395.16 L 3375.39,395.073 L 3375.64,394.965 L 3375.88,394.835 L 3376.11,394.685 L 3376.32,394.516 L 3376.52,394.329 L 3376.71,394.126 L 3376.87,393.908 L 3377.02,393.676 L 3377.14,393.433 L 3377.24,393.18 L 3377.32,392.92 L 3377.38,392.653 L 3377.42,392.382 L 3377.43,392.109 L 3374.26,392.109 Z" style="fill:#000000;fill-rule:evenodd;fill-opacity:1;stroke:#000000;stroke-width:4px;stroke-linecap:butt;stroke-linejoin:miter;stroke-opacity:1;"/>
<text dominant-baseline="central" style="font-size:24px;font-style:normal;font-weight:normal;fill-opacity:1;stroke:none;font-family:sans-serif;fill:#000000" text-anchor="middle" x="1040.69" y="252.277"><tspan>+</tspan></text>
<text dominant-baseline="central" style="font-size:24px;font-style:normal;font-weight:normal;fill-opacity:1;stroke:none;font-family:sans-serif;fill:#000000" text-anchor="middle" x="2994.62" y="252.277"><tspan>+</tspan></text>
<path d="M 1760.16,248.677 L 2183.38,248.677" style="fill:none;fill-rule:evenodd;stroke:#000000;stroke-width:4px;stroke-linecap:butt;stroke-linejoin:miter;stroke-opacity:1"/>
<path d="M 2183.38,248.677 L 2165.06,238.097" style="fill:none;fill-rule:evenodd;stroke:#000000;stroke-width:4px;stroke-linecap:butt;stroke-linejoin:miter;stroke-opacity:1"/>
<path d="M 2183.38,248.677 L 2165.06,259.258" style="fill:none;fill-rule:evenodd;stroke:#000000;stroke-width:4px;stroke-linecap:butt;stroke-linejoin:miter;stroke-opacity:1"/>
</svg>