<svg baseProfile="full" height="500px" version="1.1" viewBox="0 0 4000 500" width="4000px" xml:space="preserve" xmlns="http://www.w3.org/2000/svg" xmlns:rdkit="http://www.rdkit.org/xml" xmlns:xlink="http://www.w3.org/1999/xlink">
<!-- END OF HEADER -->
<rect height="500" style="opacity:1.0;fill:#FFFFFF;stroke:none" width="4000" x="0" y="0"> </rect>
<path d="M 250.964,164.976 L 388.411,244.332" style="fill:none;fill-rule:evenodd;stroke:#FFFFAA;stroke-width:33px;stroke-linecap:butt;stroke-linejoin:miter;stroke-opacity:1"/>
<path d="M 388.411,244.332 L 388.411,403.042" style="fill:none;fill-rule:evenodd;stroke:#FFFFAA;stroke-width:33px;stroke-linecap:butt;stroke-linejoin:miter;stroke-opacity:1"/>
<path d="M 388.411,244.332 L 525.859,164.976" style="fill:none;fill-rule:evenodd;stroke:#FFFFAA;stroke-width:33px;stroke-linecap:butt;stroke-linejoin:miter;stroke-opacity:1"/>
<path d="M 525.859,164.976 L 663.306,244.332" style="fill:none;fill-rule:evenodd;stroke:#FFFFAA;stroke-width:33px;stroke-linecap:butt;stroke-linejoin:miter;stroke-opacity:1"/>
<path d="M 663.306,244.332 L 800.754,164.976" style="fill:none;fill-rule:evenodd;stroke:#FFFFAA;stroke-width:33px;stroke-linecap:butt;stroke-linejoin:miter;stroke-opacity:1"/>
<path d="M 663.306,244.332 L 663.306,403.042" style="fill:none;fill-rule:evenodd;stroke:#FFFFAA;stroke-width:33px;stroke-linecap:butt;stroke-linejoin:miter;stroke-opacity:1"/>
<path d="M 1382.77,96.9576 L 1382.77,255.668" style="fill:none;fill-rule:evenodd;stroke:#FFCC99;stroke-width:33px;stroke-linecap:butt;stroke-linejoin:miter;stroke-opacity:1"/>
<path d="M 1382.77,255.668 L 1245.32,335.024" style="fill:none;fill-rule:evenodd;stroke:#FFCC99;stroke-width:33px;stroke-linecap:butt;stroke-linejoin:miter;stroke-opacity:1"/>
<path d="M 1382.77,255.668 L 1520.22,335.024" style="fill:none;fill-rule:evenodd;stroke:#FFCC99;stroke-width:33px;stroke-linecap:butt;stroke-linejoin:miter;stroke-opacity:1"/>
<path d="M 2476.23,335.024 L 2613.67,255.668" style="fill:none;fill-rule:evenodd;stroke:#FFFFAA;stroke-width:33px;stroke-linecap:butt;stroke-linejoin:miter;stroke-opacity:1"/>
<path d="M 2613.67,255.668 L 2751.12,335.024" style="fill:none;fill-rule:evenodd;stroke:#FFFFAA;stroke-width:33px;stroke-linecap:butt;stroke-linejoin:miter;stroke-opacity:1"/>
<path d="M 2613.67,255.668 L 2613.67,96.9576" style="fill:none;fill-rule:evenodd;stroke:#FFFFAA;stroke-width:33px;stroke-linecap:butt;stroke-linejoin:miter;stroke-opacity:1"/>
<path d="M 3199.25,346.36 L 3336.69,267.005" style="fill:none;fill-rule:evenodd;stroke:#FFFFAA;stroke-width:33px;stroke-linecap:butt;stroke-linejoin:miter;stroke-opacity:1"/>
<path d="M 3336.69,267.005 L 3336.69,108.294" style="fill:none;fill-rule:evenodd;stroke:#FFFFAA;stroke-width:33px;stroke-linecap:butt;stroke-linejoin:miter;stroke-opacity:1"/>
<path d="M 3474.14,346.36 L 3611.59,267.005" style="fill:none;fill-rule:evenodd;stroke:#FFCC99;stroke-width:33px;stroke-linecap:butt;stroke-linejoin:miter;stroke-opacity:1"/>
<path d="M 3611.59,267.005 L 3749.04,346.36" style="fill:none;fill-rule:evenodd;stroke:#FFCC99;stroke-width:33px;stroke-linecap:butt;stroke-linejoin:miter;stroke-opacity:1"/>
<path d="M 3611.59,267.005 L 3611.59,108.294" style="fill:none;fill-rule:evenodd;stroke:#FFCC99;stroke-width:33px;stroke-linecap:butt;stroke-linejoin:miter;stroke-opacity:1"/>
<ellipse cx="250.964" cy="164.976" rx="31.7421" ry="31.7421" style="fill:#FFFFAA;fill-rule:evenodd;stroke:#FFFFAA;stroke-width:2px;stroke-linecap:butt;stroke-linejoin:miter;stroke-opacity:1"/>
<ellipse cx="388.411" cy="244.332" rx="31.7421" ry="31.7421" style="fill:#FFFFAA;fill-rule:evenodd;stroke:#FFFFAA;stroke-width:2px;stroke-linecap:butt;stroke-linejoin:miter;stroke-opacity:1"/>
<ellipse cx="388.411" cy="403.042" rx="31.7421" ry="31.7421" style="fill:#FFFFAA;fill-rule:evenodd;stroke:#FFFFAA;stroke-width:2px;stroke-linecap:butt;stroke-linejoin:miter;stroke-opacity:1"/>
<ellipse cx="525.859" cy="164.976" rx="31.7421" ry="31.7421" style="fill:#FFFFAA;fill-rule:evenodd;stroke:#FFFFAA;stroke-width:2px;stroke-linecap:butt;stroke-linejoin:miter;stroke-opacity:1"/>
<ellipse cx="663.306" cy="244.332" rx="31.7421" ry="31.7421" style="fill:#FFFFAA;fill-rule:evenodd;stroke:#FFFFAA;stroke-width:2px;stroke-linecap:butt;stroke-linejoin:miter;stroke-opacity:1"/>
<ellipse cx="800.754" cy="164.976" rx="31.7421" ry="31.7421" style="fill:#FFFFAA;fill-rule:evenodd;stroke:#FFFFAA;stroke-width:2px;stroke-linecap:butt;stroke-linejoin:miter;stroke-opacity:1"/>
<ellipse cx="663.306" cy="403.042" rx="31.7421" ry="31.7421" style="fill:#FFFFAA;fill-rule:evenodd;stroke:#FFFFAA;stroke-width:2px;stroke-linecap:butt;stroke-linejoin:miter;stroke-opacity:1"/>
<ellipse cx="1406.78" cy="96.9576" rx="58.47" ry="31.7421" style="fill:#FFCC99;fill-rule:evenodd;stroke:#FFCC99;stroke-width:2px;stroke-linecap:butt;stroke-linejoin:miter;stroke-opacity:1"/>
<ellipse cx="1382.77" cy="255.668" rx="31.7421" ry="31.7421" style="fill:#FFCC99;fill-rule:evenodd;stroke:#FFCC99;stroke-width:2px;stroke-linecap:butt;stroke-linejoin:miter;stroke-opacity:1"/>
<ellipse cx="1245.32" cy="335.024" rx="31.7421" ry="31.7421" style="fill:#FFCC99;fill-rule:evenodd;stroke:#FFCC99;stroke-width:2px;stroke-linecap:butt;stroke-linejoin:miter;stroke-opacity:1"/>
<ellipse cx="1520.22" cy="335.024" rx="31.7421" ry="31.7421" style="fill:#FFCC99;fill-rule:evenodd;stroke:#FFCC99;stroke-width:2px;stroke-linecap:butt;stroke-linejoin:miter;stroke-opacity:1"/>
<ellipse cx="2476.23" cy="335.024" rx="31.7421" ry="31.7421" style="fill:#FFFFAA;fill-rule:evenodd;stroke:#FFFFAA;stroke-width:2px;stroke-linecap:butt;stroke-linejoin:miter;stroke-opacity:1"/>
<ellipse cx="2613.67" cy="255.668" rx="31.7421" ry="31.7421" style="fill:#FFFFAA;fill-rule:evenodd;stroke:#FFFFAA;stroke-width:2px;stroke-linecap:butt;stroke-linejoin:miter;stroke-opacity:1"/>
<ellipse cx="2751.12" cy="335.024" rx="31.7421" ry="31.7421" style="fill:#FFFFAA;fill-rule:evenodd;stroke:#FFFFAA;stroke-width:2px;stroke-linecap:butt;stroke-linejoin:miter;stroke-opacity:1"/>
<ellipse cx="2631.01" cy="96.9576" rx="50.9321" ry="31.7421" style="fill:#FFFFAA;fill-rule:evenodd;stroke:#FFFFAA;stroke-width:2px;stroke-linecap:butt;stroke-linejoin:miter;stroke-opacity:1"/>
<ellipse cx="3199.25" cy="346.36" rx="31.7421" ry="31.7421" style="fill:#FFFFAA;fill-rule:evenodd;stroke:#FFFFAA;stroke-width:2px;stroke-linecap:butt;stroke-linejoin:miter;stroke-opacity:1"/>
<ellipse cx="3336.69" cy="267.005" rx="31.7421" ry="31.7421" style="fill:#FFFFAA;fill-rule:evenodd;stroke:#FFFFAA;stroke-width:2px;stroke-linecap:butt;stroke-linejoin:miter;stroke-opacity:1"/>
<ellipse cx="3336.69" cy="108.294" rx="31.7421" ry="31.7421" style="fill:#FFFFAA;fill-rule:evenodd;stroke:#FFFFAA;stroke-width:2px;stroke-linecap:butt;stroke-linejoin:miter;stroke-opacity:1"/>
<ellipse cx="3474.14" cy="366.36" rx="31.7421" ry="56.5685" style="fill:#FFCC99;fill-rule:evenodd;stroke:#FFCC99;stroke-width:2px;stroke-linecap:butt;stroke-linejoin:miter;stroke-opacity:1"/>
<ellipse cx="3611.59" cy="267.005" rx="31.7421" ry="31.7421" style="fill:#FFCC99;fill-rule:evenodd;stroke:#FFCC99;stroke-width:2px;stroke-linecap:butt;stroke-linejoin:miter;stroke-opacity:1"/>
<ellipse cx="3749.04" cy="346.36" rx="31.7421" ry="31.7421" style="fill:#FFCC99;fill-rule:evenodd;stroke:#FFCC99;stroke-width:2px;stroke-linecap:butt;stroke-linejoin:miter;stroke-opacity:1"/>
<ellipse cx="3611.59" cy="108.294" rx="31.7421" ry="31.7421" style="fill:#FFCC99;fill-rule:evenodd;stroke:#FFCC99;stroke-width:2px;stroke-linecap:butt;stroke-linejoin:miter;stroke-opacity:1"/>
<path class="bond-0" d="M 250.964,164.976 L 388.411,244.332" style="fill:none;fill-rule:evenodd;stroke:#000000;stroke-width:4px;stroke-linecap:butt;stroke-linejoin:miter;stroke-opacity:1"/>
<path class="bond-1" d="M 372.54,244.332 L 372.54,313.687" style="fill:none;fill-rule:evenodd;stroke:#000000;stroke-width:4px;stroke-linecap:butt;stroke-linejoin:miter;stroke-opacity:1"/>
<path class="bond-1" d="M 372.54,313.687 L 372.54,383.042" style="fill:none;fill-rule:evenodd;stroke:#FF0000;stroke-width:4px;stroke-linecap:butt;stroke-linejoin:miter;stroke-opacity:1"/>
<path class="bond-1" d="M 404.282,244.332 L 404.282,313.687" style="fill:none;fill-rule:evenodd;stroke:#000000;stroke-width:4px;stroke-linecap:butt;stroke-linejoin:miter;stroke-opacity:1"/>
<path class="bond-1" d="M 404.282,313.687 L 404.282,383.042" style="fill:none;fill-rule:evenodd;stroke:#FF0000;stroke-width:4px;stroke-linecap:butt;stroke-linejoin:miter;stroke-opacity:1"/>
<path class="bond-2" d="M 388.411,244.332 L 447.795,210.046" style="fill:none;fill-rule:evenodd;stroke:#000000;stroke-width:4px;stroke-linecap:butt;stroke-linejoin:miter;stroke-opacity:1"/>
<path class="bond-2" d="M 447.795,210.046 L 507.179,175.761" style="fill:none;fill-rule:evenodd;stroke:#FF0000;stroke-width:4px;stroke-linecap:butt;stroke-linejoin:miter;stroke-opacity:1"/>
<path class="bond-3" d="M 544.538,175.761 L 603.922,210.046" style="fill:none;fill-rule:evenodd;stroke:#FF0000;stroke-width:4px;stroke-linecap:butt;stroke-linejoin:miter;stroke-opacity:1"/>
<path class="bond-3" d="M 603.922,210.046 L 663.306,244.332" style="fill:none;fill-rule:evenodd;stroke:#000000;stroke-width:4px;stroke-linecap:butt;stroke-linejoin:miter;stroke-opacity:1"/>
<path class="bond-4" d="M 663.306,244.332 L 800.754,164.976" style="fill:none;fill-rule:evenodd;stroke:#000000;stroke-width:4px;stroke-linecap:butt;stroke-linejoin:miter;stroke-opacity:1"/>
<path class="bond-5" d="M 647.435,244.332 L 647.435,313.687" style="fill:none;fill-rule:evenodd;stroke:#000000;stroke-width:4px;stroke-linecap:butt;stroke-linejoin:miter;stroke-opacity:1"/>
<path class="bond-5" d="M 647.435,313.687 L 647.435,383.042" style="fill:none;fill-rule:evenodd;stroke:#FF0000;stroke-width:4px;stroke-linecap:butt;stroke-linejoin:miter;stroke-opacity:1"/>
<path class="bond-5" d="M 679.177,244.332 L 679.177,313.687" style="fill:none;fill-rule:evenodd;stroke:#000000;stroke-width:4px;stroke-linecap:butt;stroke-linejoin:miter;stroke-opacity:1"/>
<path class="bond-5" d="M 679.177,313.687 L 679.177,383.042" style="fill:none;fill-rule:evenodd;stroke:#FF0000;stroke-width:4px;stroke-linecap:butt;stroke-linejoin:miter;stroke-opacity:1"/>
<path class="bond-6" d="M 1382.77,118.958 L 1382.77,187.313" style="fill:none;fill-rule:evenodd;stroke:#0000FF;stroke-width:4px;stroke-linecap:butt;stroke-linejoin:miter;stroke-opacity:1"/>
<path class="bond-6" d="M 1382.77,187.313 L 1382.77,255.668" style="fill:none;fill-rule:evenodd;stroke:#000000;stroke-width:4px;stroke-linecap:butt;stroke-linejoin:miter;stroke-opacity:1"/>
<path class="bond-7" d="M 1374.83,241.923 L 1237.39,321.279" style="fill:none;fill-rule:evenodd;stroke:#000000;stroke-width:4px;stroke-linecap:butt;stroke-linejoin:miter;stroke-opacity:1"/>
<path class="bond-7" d="M 1390.7,269.413 L 1253.26,348.768" style="fill:none;fill-rule:evenodd;stroke:#000000;stroke-width:4px;stroke-linecap:butt;stroke-linejoin:miter;stroke-opacity:1;stroke-dasharray:6,6"/>
<path class="bond-8" d="M 1374.83,269.413 L 1512.28,348.768" style="fill:none;fill-rule:evenodd;stroke:#000000;stroke-width:4px;stroke-linecap:butt;stroke-linejoin:miter;stroke-opacity:1"/>
<path class="bond-8" d="M 1390.7,241.923 L 1528.15,321.279" style="fill:none;fill-rule:evenodd;stroke:#000000;stroke-width:4px;stroke-linecap:butt;stroke-linejoin:miter;stroke-opacity:1;stroke-dasharray:6,6"/>
<path class="bond-9" d="M 2476.23,335.024 L 2613.67,255.668" style="fill:none;fill-rule:evenodd;stroke:#000000;stroke-width:4px;stroke-linecap:butt;stroke-linejoin:miter;stroke-opacity:1"/>
<path class="bond-10" d="M 2605.74,269.413 L 2665.12,303.698" style="fill:none;fill-rule:evenodd;stroke:#000000;stroke-width:4px;stroke-linecap:butt;stroke-linejoin:miter;stroke-opacity:1"/>
<path class="bond-10" d="M 2665.12,303.698 L 2724.51,337.984" style="fill:none;fill-rule:evenodd;stroke:#FF0000;stroke-width:4px;stroke-linecap:butt;stroke-linejoin:miter;stroke-opacity:1"/>
<path class="bond-10" d="M 2621.61,241.923 L 2680.99,276.209" style="fill:none;fill-rule:evenodd;stroke:#000000;stroke-width:4px;stroke-linecap:butt;stroke-linejoin:miter;stroke-opacity:1"/>
<path class="bond-10" d="M 2680.99,276.209 L 2740.38,310.494" style="fill:none;fill-rule:evenodd;stroke:#FF0000;stroke-width:4px;stroke-linecap:butt;stroke-linejoin:miter;stroke-opacity:1"/>
<path class="bond-11" d="M 2613.67,255.668 L 2613.67,186.313" style="fill:none;fill-rule:evenodd;stroke:#000000;stroke-width:4px;stroke-linecap:butt;stroke-linejoin:miter;stroke-opacity:1"/>
<path class="bond-11" d="M 2613.67,186.313 L 2613.67,116.958" style="fill:none;fill-rule:evenodd;stroke:#FF0000;stroke-width:4px;stroke-linecap:butt;stroke-linejoin:miter;stroke-opacity:1"/>
<path class="bond-12" d="M 3199.25,346.36 L 3336.69,267.005" style="fill:none;fill-rule:evenodd;stroke:#000000;stroke-width:4px;stroke-linecap:butt;stroke-linejoin:miter;stroke-opacity:1"/>
<path class="bond-13" d="M 3352.56,267.005 L 3352.56,197.649" style="fill:none;fill-rule:evenodd;stroke:#000000;stroke-width:4px;stroke-linecap:butt;stroke-linejoin:miter;stroke-opacity:1"/>
<path class="bond-13" d="M 3352.56,197.649 L 3352.56,128.294" style="fill:none;fill-rule:evenodd;stroke:#FF0000;stroke-width:4px;stroke-linecap:butt;stroke-linejoin:miter;stroke-opacity:1"/>
<path class="bond-13" d="M 3320.82,267.005 L 3320.82,197.649" style="fill:none;fill-rule:evenodd;stroke:#000000;stroke-width:4px;stroke-linecap:butt;stroke-linejoin:miter;stroke-opacity:1"/>
<path class="bond-13" d="M 3320.82,197.649 L 3320.82,128.294" style="fill:none;fill-rule:evenodd;stroke:#FF0000;stroke-width:4px;stroke-linecap:butt;stroke-linejoin:miter;stroke-opacity:1"/>
<path class="bond-14" d="M 3336.69,267.005 L 3396.75,301.678" style="fill:none;fill-rule:evenodd;stroke:#000000;stroke-width:4px;stroke-linecap:butt;stroke-linejoin:miter;stroke-opacity:1"/>
<path class="bond-14" d="M 3396.75,301.678 L 3456.81,336.352" style="fill:none;fill-rule:evenodd;stroke:#0000FF;stroke-width:4px;stroke-linecap:butt;stroke-linejoin:miter;stroke-opacity:1"/>
<path class="bond-15" d="M 3491.48,336.352 L 3551.53,301.678" style="fill:none;fill-rule:evenodd;stroke:#0000FF;stroke-width:4px;stroke-linecap:butt;stroke-linejoin:miter;stroke-opacity:1"/>
<path class="bond-15" d="M 3551.53,301.678 L 3611.59,267.005" style="fill:none;fill-rule:evenodd;stroke:#000000;stroke-width:4px;stroke-linecap:butt;stroke-linejoin:miter;stroke-opacity:1"/>
<path class="bond-16" d="M 3603.65,280.749 L 3741.1,360.105" style="fill:none;fill-rule:evenodd;stroke:#000000;stroke-width:4px;stroke-linecap:butt;stroke-linejoin:miter;stroke-opacity:1"/>
<path class="bond-16" d="M 3619.52,253.26 L 3756.97,332.615" style="fill:none;fill-rule:evenodd;stroke:#000000;stroke-width:4px;stroke-linecap:butt;stroke-linejoin:miter;stroke-opacity:1;stroke-dasharray:6,6"/>
<path class="bond-17" d="M 3627.46,267.005 L 3627.46,108.294" style="fill:none;fill-rule:evenodd;stroke:#000000;stroke-width:4px;stroke-linecap:butt;stroke-linejoin:miter;stroke-opacity:1"/>
<path class="bond-17" d="M 3595.72,267.005 L 3595.72,108.294" style="fill:none;fill-rule:evenodd;stroke:#000000;stroke-width:4px;stroke-linecap:butt;stroke-linejoin:miter;stroke-opacity:1;stroke-dasharray:6,6"/>
<text dominant-baseline="central" style="font-size:40px;font-style:normal;font-weight:normal;fill-opacity:1;stroke:none;font-family:sans-serif;fill:#FF0000" text-anchor="start" x="373.732" y="409.042"><tspan>O</tspan></text>
<text dominant-baseline="central" style="font-size:40px;font-style:normal;font-weight:normal;fill-opacity:1;stroke:none;font-family:sans-serif;fill:#FF0000" text-anchor="middle" x="525.859" y="170.976"><tspan>O</tspan></text>
<text dominant-baseline="central" style="font-size:40px;font-style:normal;font-weight:normal;fill-opacity:1;stroke:none;font-family:sans-serif;fill:#FF0000" text-anchor="start" x="648.627" y="409.042"><tspan>O</tspan></text>
<text dominant-baseline="central" style="font-size:40px;font-style:normal;font-weight:normal;fill-opacity:1;stroke:none;font-family:sans-serif;fill:#0000FF" text-anchor="start" x="1369.83" y="103.558"><tspan>NH</tspan><tspan style="baseline-shift:sub;font-size:30px;">2</tspan><tspan/></text>
<text dominant-baseline="central" style="font-size:40px;font-style:normal;font-weight:normal;fill-opacity:1;stroke:none;font-family:sans-serif;fill:#FF0000" text-anchor="start" x="2736.44" y="341.024"><tspan>O</tspan></text>
<text dominant-baseline="central" style="font-size:40px;font-style:normal;font-weight:normal;fill-opacity:1;stroke:none;font-family:sans-serif;fill:#FF0000" text-anchor="start" x="2599" y="102.958"><tspan>OH</tspan></text>
<text dominant-baseline="central" style="font-size:40px;font-style:normal;font-weight:normal;fill-opacity:1;stroke:none;font-family:sans-serif;fill:#FF0000" text-anchor="start" x="3322.01" y="114.294"><tspan>O</tspan></text>
<text dominant-baseline="central" style="font-size:40px;font-style:normal;font-weight:normal;fill-opacity:1;stroke:none;font-family:sans-serif;fill:#0000FF" text-anchor="middle" x="3474.14" y="352.36"><tspan>N</tspan></text>
<text dominant-baseline="central" style="font-size:40px;font-style:normal;font-weight:normal;fill-opacity:1;stroke:none;font-family:sans-serif;fill:#0000FF" text-anchor="start" x="3460.81" y="392.36"><tspan>H</tspan></text>
<text dominant-baseline="central" style="font-size:39px;font-style:normal;font-weight:normal;fill-opacity:1;stroke:none;font-family:sans-serif;fill:#000000" text-anchor="middle" x="237.738" y="193.836"><tspan>1</tspan></text>
<text dominant-baseline="central" style="font-size:39px;font-style:normal;font-weight:normal;fill-opacity:1;stroke:none;font-family:sans-serif;fill:#000000" text-anchor="middle" x="342.595" y="276.735"><tspan>2</tspan></text>
<text dominant-baseline="central" style="font-size:39px;font-style:normal;font-weight:normal;fill-opacity:1;stroke:none;font-family:sans-serif;fill:#000000" text-anchor="middle" x="388.411" y="461.898"><tspan>3</tspan></text>
<text dominant-baseline="central" style="font-size:39px;font-style:normal;font-weight:normal;fill-opacity:1;stroke:none;font-family:sans-serif;fill:#000000" text-anchor="middle" x="525.859" y="118.025"><tspan>22</tspan></text>
<text dominant-baseline="central" style="font-size:39px;font-style:normal;font-weight:normal;fill-opacity:1;stroke:none;font-family:sans-serif;fill:#000000" text-anchor="middle" x="663.306" y="197.38"><tspan>20</tspan></text>
<text dominant-baseline="central" style="font-size:39px;font-style:normal;font-weight:normal;fill-opacity:1;stroke:none;font-family:sans-serif;fill:#000000" text-anchor="middle" x="787.528" y="148.02"><tspan>19</tspan></text>
<text dominant-baseline="central" style="font-size:39px;font-style:normal;font-weight:normal;fill-opacity:1;stroke:none;font-family:sans-serif;fill:#000000" text-anchor="middle" x="663.306" y="461.898"><tspan>21</tspan></text>
<text dominant-baseline="central" style="font-size:39px;font-style:normal;font-weight:normal;fill-opacity:1;stroke:none;font-family:sans-serif;fill:#000000" text-anchor="middle" x="1382.77" y="50.0057"><tspan>4</tspan></text>
<text dominant-baseline="central" style="font-size:39px;font-style:normal;font-weight:normal;fill-opacity:1;stroke:none;font-family:sans-serif;fill:#000000" text-anchor="middle" x="1336.95" y="235.168"><tspan>5</tspan></text>
<text dominant-baseline="central" style="font-size:39px;font-style:normal;font-weight:normal;fill-opacity:1;stroke:none;font-family:sans-serif;fill:#000000" text-anchor="middle" x="1222.41" y="327.749"><tspan>6</tspan></text>
<text dominant-baseline="central" style="font-size:39px;font-style:normal;font-weight:normal;fill-opacity:1;stroke:none;font-family:sans-serif;fill:#000000" text-anchor="middle" x="1546.67" y="295.159"><tspan>14</tspan></text>
<text dominant-baseline="central" style="font-size:39px;font-style:normal;font-weight:normal;fill-opacity:1;stroke:none;font-family:sans-serif;fill:#000000" text-anchor="middle" x="2489.45" y="363.883"><tspan>19</tspan></text>
<text dominant-baseline="central" style="font-size:39px;font-style:normal;font-weight:normal;fill-opacity:1;stroke:none;font-family:sans-serif;fill:#000000" text-anchor="middle" x="2567.86" y="235.168"><tspan>20</tspan></text>
<text dominant-baseline="central" style="font-size:39px;font-style:normal;font-weight:normal;fill-opacity:1;stroke:none;font-family:sans-serif;fill:#000000" text-anchor="middle" x="2751.12" y="393.879"><tspan>21</tspan></text>
<text dominant-baseline="central" style="font-size:39px;font-style:normal;font-weight:normal;fill-opacity:1;stroke:none;font-family:sans-serif;fill:#000000" text-anchor="middle" x="2613.67" y="50.0057"><tspan>22</tspan></text>
<text dominant-baseline="central" style="font-size:39px;font-style:normal;font-weight:normal;fill-opacity:1;stroke:none;font-family:sans-serif;fill:#000000" text-anchor="middle" x="3212.47" y="375.22"><tspan>1</tspan></text>
<text dominant-baseline="central" style="font-size:39px;font-style:normal;font-weight:normal;fill-opacity:1;stroke:none;font-family:sans-serif;fill:#000000" text-anchor="middle" x="3290.88" y="246.505"><tspan>2</tspan></text>
<text dominant-baseline="central" style="font-size:39px;font-style:normal;font-weight:normal;fill-opacity:1;stroke:none;font-family:sans-serif;fill:#000000" text-anchor="middle" x="3336.69" y="61.3421"><tspan>3</tspan></text>
<text dominant-baseline="central" style="font-size:39px;font-style:normal;font-weight:normal;fill-opacity:1;stroke:none;font-family:sans-serif;fill:#000000" text-anchor="middle" x="3519.96" y="378.763"><tspan>4</tspan></text>
<text dominant-baseline="central" style="font-size:39px;font-style:normal;font-weight:normal;fill-opacity:1;stroke:none;font-family:sans-serif;fill:#000000" text-anchor="middle" x="3611.59" y="325.86"><tspan>5</tspan></text>
<text dominant-baseline="central" style="font-size:39px;font-style:normal;font-weight:normal;fill-opacity:1;stroke:none;font-family:sans-serif;fill:#000000" text-anchor="middle" x="3762.26" y="375.22"><tspan>6</tspan></text>
<text dominant-baseline="central" style="font-size:39px;font-style:normal;font-weight:normal;fill-opacity:1;stroke:none;font-family:sans-serif;fill:#000000" text-anchor="middle" x="3624.81" y="91.3378"><tspan>14</tspan></text>
<path d="M 1237.56,358.83 L 1237.55,358.557 L 1237.52,358.286 L 1237.46,358.02 L 1237.38,357.759 L 1237.27,357.506 L 1237.15,357.263 L 1237,357.031 L 1236.84,356.813 L 1236.66,356.61 L 1236.46,356.423 L 1236.24,356.254 L 1236.01,356.104 L 1235.77,355.975 L 1235.52,355.866 L 1235.26,355.779 L 1235,355.715 L 1234.73,355.674 L 1234.46,355.657 L 1234.18,355.663 L 1233.91,355.692 L 1233.64,355.744 L 1233.38,355.82 L 1233.13,355.918 L 1232.88,356.037 L 1232.65,356.177 L 1232.42,356.336 L 1232.22,356.514 L 1232.03,356.71 L 1231.85,356.92 L 1231.7,357.146 L 1231.56,357.383 L 1231.45,357.631 L 1231.36,357.888 L 1231.29,358.152 L 1231.24,358.421 L 1231.22,358.694 L 1231.22,358.967 L 1231.24,359.239 L 1231.29,359.508 L 1231.36,359.772 L 1231.45,360.029 L 1231.56,360.277 L 1231.7,360.515 L 1231.85,360.74 L 1232.03,360.951 L 1232.22,361.146 L 1232.42,361.324 L 1232.65,361.484 L 1232.88,361.624 L 1233.13,361.743 L 1233.38,361.84 L 1233.64,361.916 L 1233.91,361.968 L 1234.18,361.998 L 1234.46,362.004 L 1234.73,361.986 L 1235,361.945 L 1235.26,361.881 L 1235.52,361.794 L 1235.77,361.686 L 1236.01,361.556 L 1236.24,361.406 L 1236.46,361.237 L 1236.66,361.05 L 1236.84,360.847 L 1237,360.629 L 1237.15,360.398 L 1237.27,360.154 L 1237.38,359.902 L 1237.46,359.641 L 1237.52,359.374 L 1237.55,359.103 L 1237.56,358.83 L 1234.39,358.83 Z" style="fill:#000000;fill-rule:evenodd;fill-opacity:1;stroke:#000000;stroke-width:4px;stroke-linecap:butt;stroke-linejoin:miter;stroke-opacity:1;"/>
<path d="M 1259.43,358.83 L 1259.42,358.557 L 1259.38,358.286 L 1259.32,358.02 L 1259.24,357.759 L 1259.14,357.506 L 1259.01,357.263 L 1258.87,357.031 L 1258.71,356.813 L 1258.52,356.61 L 1258.32,356.423 L 1258.11,356.254 L 1257.88,356.104 L 1257.64,355.975 L 1257.39,355.866 L 1257.13,355.779 L 1256.87,355.715 L 1256.6,355.674 L 1256.32,355.657 L 1256.05,355.663 L 1255.78,355.692 L 1255.51,355.744 L 1255.25,355.82 L 1254.99,355.918 L 1254.75,356.037 L 1254.51,356.177 L 1254.29,356.336 L 1254.08,356.514 L 1253.89,356.71 L 1253.72,356.92 L 1253.56,357.146 L 1253.43,357.383 L 1253.32,357.631 L 1253.22,357.888 L 1253.15,358.152 L 1253.11,358.421 L 1253.08,358.694 L 1253.08,358.967 L 1253.11,359.239 L 1253.15,359.508 L 1253.22,359.772 L 1253.32,360.029 L 1253.43,360.277 L 1253.56,360.515 L 1253.72,360.74 L 1253.89,360.951 L 1254.08,361.146 L 1254.29,361.324 L 1254.51,361.484 L 1254.75,361.624 L 1254.99,361.743 L 1255.25,361.84 L 1255.51,361.916 L 1255.78,361.968 L 1256.05,361.998 L 1256.32,362.004 L 1256.6,361.986 L 1256.87,361.945 L 1257.13,361.881 L 1257.39,361.794 L 1257.64,361.686 L 1257.88,361.556 L 1258.11,361.406 L 1258.32,361.237 L 1258.52,361.05 L 1258.71,360.847 L 1258.87,360.629 L 1259.01,360.398 L 1259.14,360.154 L 1259.24,359.902 L 1259.32,359.641 L 1259.38,359.374 L 1259.42,359.103 L 1259.43,358.83 L 1256.25,358.83 Z" style="fill:#000000;fill-rule:evenodd;fill-opacity:1;stroke:#000000;stroke-width:4px;stroke-linecap:butt;stroke-linejoin:miter;stroke-opacity:1;"/>
<path d="M 1503.02,358.83 L 1503.01,358.557 L 1502.98,358.286 L 1502.92,358.02 L 1502.84,357.759 L 1502.73,357.506 L 1502.61,357.263 L 1502.46,357.031 L 1502.3,356.813 L 1502.12,356.61 L 1501.92,356.423 L 1501.7,356.254 L 1501.47,356.104 L 1501.23,355.975 L 1500.98,355.866 L 1500.72,355.779 L 1500.46,355.715 L 1500.19,355.674 L 1499.92,355.657 L 1499.64,355.663 L 1499.37,355.692 L 1499.1,355.744 L 1498.84,355.82 L 1498.59,355.918 L 1498.34,356.037 L 1498.11,356.177 L 1497.88,356.336 L 1497.68,356.514 L 1497.49,356.71 L 1497.31,356.92 L 1497.16,357.146 L 1497.02,357.383 L 1496.91,357.631 L 1496.82,357.888 L 1496.75,358.152 L 1496.7,358.421 L 1496.68,358.694 L 1496.68,358.967 L 1496.7,359.239 L 1496.75,359.508 L 1496.82,359.772 L 1496.91,360.029 L 1497.02,360.277 L 1497.16,360.515 L 1497.31,360.74 L 1497.49,360.951 L 1497.68,361.146 L 1497.88,361.324 L 1498.11,361.484 L 1498.34,361.624 L 1498.59,361.743 L 1498.84,361.84 L 1499.1,361.916 L 1499.37,361.968 L 1499.64,361.998 L 1499.92,362.004 L 1500.19,361.986 L 1500.46,361.945 L 1500.72,361.881 L 1500.98,361.794 L 1501.23,361.686 L 1501.47,361.556 L 1501.7,361.406 L 1501.92,361.237 L 1502.12,361.05 L 1502.3,360.847 L 1502.46,360.629 L 1502.61,360.398 L 1502.73,360.154 L 1502.84,359.902 L 1502.92,359.641 L 1502.98,359.374 L 1503.01,359.103 L 1503.02,358.83 L 1499.85,358.83 Z" style="fill:#000000;fill-rule:evenodd;fill-opacity:1;stroke:#000000;stroke-width:4px;stroke-linecap:butt;stroke-linejoin:miter;stroke-opacity:1;"/>
<path d="M 1543.76,358.83 L 1543.75,358.557 L 1543.71,358.286 L 1543.65,358.02 L 1543.57,357.759 L 1543.47,357.506 L 1543.34,357.263 L 1543.2,357.031 L 1543.04,356.813 L 1542.85,356.61 L 1542.65,356.423 L 1542.44,356.254 L 1542.21,356.104 L 1541.97,355.975 L 1541.72,355.866 L 1541.46,355.779 L 1541.19,355.715 L 1540.92,355.674 L 1540.65,355.657 L 1540.38,355.663 L 1540.11,355.692 L 1539.84,355.744 L 1539.58,355.82 L 1539.32,355.918 L 1539.08,356.037 L 1538.84,356.177 L 1538.62,356.336 L 1538.41,356.514 L 1538.22,356.71 L 1538.05,356.92 L 1537.89,357.146 L 1537.76,357.383 L 1537.64,357.631 L 1537.55,357.888 L 1537.48,358.152 L 1537.44,358.421 L 1537.41,358.694 L 1537.41,358.967 L 1537.44,359.239 L 1537.48,359.508 L 1537.55,359.772 L 1537.64,360.029 L 1537.76,360.277 L 1537.89,360.515 L 1538.05,360.74 L 1538.22,360.951 L 1538.41,361.146 L 1538.62,361.324 L 1538.84,361.484 L 1539.08,361.624 L 1539.32,361.743 L 1539.58,361.84 L 1539.84,361.916 L 1540.11,361.968 L 1540.38,361.998 L 1540.65,362.004 L 1540.92,361.986 L 1541.19,361.945 L 1541.46,361.881 L 1541.72,361.794 L 1541.97,361.686 L 1542.21,361.556 L 1542.44,361.406 L 1542.65,361.237 L 1542.85,361.05 L 1543.04,360.847 L 1543.2,360.629 L 1543.34,360.398 L 1543.47,360.154 L 1543.57,359.902 L 1543.65,359.641 L 1543.71,359.374 L 1543.75,359.103 L 1543.76,358.83 L 1540.58,358.83 Z" style="fill:#000000;fill-rule:evenodd;fill-opacity:1;stroke:#000000;stroke-width:4px;stroke-linecap:butt;stroke-linejoin:miter;stroke-opacity:1;"/>
<path d="M 1523.39,358.83 L 1523.38,358.557 L 1523.34,358.286 L 1523.29,358.02 L 1523.2,357.759 L 1523.1,357.506 L 1522.98,357.263 L 1522.83,357.031 L 1522.67,356.813 L 1522.48,356.61 L 1522.29,356.423 L 1522.07,356.254 L 1521.84,356.104 L 1521.6,355.975 L 1521.35,355.866 L 1521.09,355.779 L 1520.83,355.715 L 1520.56,355.674 L 1520.28,355.657 L 1520.01,355.663 L 1519.74,355.692 L 1519.47,355.744 L 1519.21,355.82 L 1518.95,355.918 L 1518.71,356.037 L 1518.47,356.177 L 1518.25,356.336 L 1518.05,356.514 L 1517.85,356.71 L 1517.68,356.92 L 1517.53,357.146 L 1517.39,357.383 L 1517.28,357.631 L 1517.18,357.888 L 1517.12,358.152 L 1517.07,358.421 L 1517.04,358.694 L 1517.04,358.967 L 1517.07,359.239 L 1517.12,359.508 L 1517.18,359.772 L 1517.28,360.029 L 1517.39,360.277 L 1517.53,360.515 L 1517.68,360.74 L 1517.85,360.951 L 1518.05,361.146 L 1518.25,361.324 L 1518.47,361.484 L 1518.71,361.624 L 1518.95,361.743 L 1519.21,361.84 L 1519.47,361.916 L 1519.74,361.968 L 1520.01,361.998 L 1520.28,362.004 L 1520.56,361.986 L 1520.83,361.945 L 1521.09,361.881 L 1521.35,361.794 L 1521.6,361.686 L 1521.84,361.556 L 1522.07,361.406 L 1522.29,361.237 L 1522.48,361.05 L 1522.67,360.847 L 1522.83,360.629 L 1522.98,360.398 L 1523.1,360.154 L 1523.2,359.902 L 1523.29,359.641 L 1523.34,359.374 L 1523.38,359.103 L 1523.39,358.83 L 1520.22,358.83 Z" style="fill:#000000;fill-rule:evenodd;fill-opacity:1;stroke:#000000;stroke-width:4px;stroke-linecap:butt;stroke-linejoin:miter;stroke-opacity:1;"/>
<path d="M 3789.77,357.293 L 3789.76,357.021 L 3789.73,356.75 L 3789.67,356.483 L 3789.59,356.222 L 3789.48,355.969 L 3789.36,355.726 L 3789.21,355.495 L 3789.05,355.276 L 3788.87,355.073 L 3788.67,354.886 L 3788.45,354.717 L 3788.22,354.568 L 3787.98,354.438 L 3787.73,354.329 L 3787.47,354.243 L 3787.21,354.179 L 3786.94,354.138 L 3786.67,354.12 L 3786.39,354.126 L 3786.12,354.155 L 3785.85,354.208 L 3785.59,354.283 L 3785.34,354.381 L 3785.09,354.5 L 3784.86,354.64 L 3784.63,354.8 L 3784.43,354.978 L 3784.24,355.173 L 3784.06,355.384 L 3783.91,355.609 L 3783.77,355.846 L 3783.66,356.095 L 3783.57,356.352 L 3783.5,356.616 L 3783.45,356.885 L 3783.43,357.157 L 3783.43,357.43 L 3783.45,357.702 L 3783.5,357.971 L 3783.57,358.235 L 3783.66,358.492 L 3783.77,358.741 L 3783.91,358.978 L 3784.06,359.203 L 3784.24,359.414 L 3784.43,359.609 L 3784.63,359.787 L 3784.86,359.947 L 3785.09,360.087 L 3785.34,360.206 L 3785.59,360.304 L 3785.85,360.379 L 3786.12,360.432 L 3786.39,360.461 L 3786.67,360.467 L 3786.94,360.449 L 3787.21,360.408 L 3787.47,360.344 L 3787.73,360.258 L 3787.98,360.149 L 3788.22,360.019 L 3788.45,359.869 L 3788.67,359.7 L 3788.87,359.514 L 3789.05,359.31 L 3789.21,359.092 L 3789.36,358.861 L 3789.48,358.618 L 3789.59,358.365 L 3789.67,358.104 L 3789.73,357.837 L 3789.76,357.566 L 3789.77,357.293 L 3786.6,357.293 Z" style="fill:#000000;fill-rule:evenodd;fill-opacity:1;stroke:#000000;stroke-width:4px;stroke-linecap:butt;stroke-linejoin:miter;stroke-opacity:1;"/>
<path d="M 3789.77,335.427 L 3789.76,335.154 L 3789.73,334.883 L 3789.67,334.616 L 3789.59,334.355 L 3789.48,334.102 L 3789.36,333.859 L 3789.21,333.628 L 3789.05,333.41 L 3788.87,333.206 L 3788.67,333.02 L 3788.45,332.851 L 3788.22,332.701 L 3787.98,332.571 L 3787.73,332.462 L 3787.47,332.376 L 3787.21,332.312 L 3786.94,332.271 L 3786.67,332.253 L 3786.39,332.259 L 3786.12,332.288 L 3785.85,332.341 L 3785.59,332.416 L 3785.34,332.514 L 3785.09,332.633 L 3784.86,332.773 L 3784.63,332.933 L 3784.43,333.111 L 3784.24,333.306 L 3784.06,333.517 L 3783.91,333.742 L 3783.77,333.98 L 3783.66,334.228 L 3783.57,334.485 L 3783.5,334.749 L 3783.45,335.018 L 3783.43,335.29 L 3783.43,335.563 L 3783.45,335.835 L 3783.5,336.104 L 3783.57,336.368 L 3783.66,336.626 L 3783.77,336.874 L 3783.91,337.111 L 3784.06,337.336 L 3784.24,337.547 L 3784.43,337.742 L 3784.63,337.92 L 3784.86,338.08 L 3785.09,338.22 L 3785.34,338.339 L 3785.59,338.437 L 3785.85,338.512 L 3786.12,338.565 L 3786.39,338.594 L 3786.67,338.6 L 3786.94,338.583 L 3787.21,338.542 L 3787.47,338.477 L 3787.73,338.391 L 3787.98,338.282 L 3788.22,338.153 L 3788.45,338.003 L 3788.67,337.834 L 3788.87,337.647 L 3789.05,337.444 L 3789.21,337.225 L 3789.36,336.994 L 3789.48,336.751 L 3789.59,336.498 L 3789.67,336.237 L 3789.73,335.97 L 3789.76,335.7 L 3789.77,335.427 L 3786.6,335.427 Z" style="fill:#000000;fill-rule:evenodd;fill-opacity:1;stroke:#000000;stroke-width:4px;stroke-linecap:butt;stroke-linejoin:miter;stroke-opacity:1;"/>
<path d="M 3660.26,128.662 L 3660.25,128.389 L 3660.21,128.118 L 3660.15,127.851 L 3660.07,127.591 L 3659.97,127.338 L 3659.85,127.095 L 3659.7,126.863 L 3659.54,126.645 L 3659.35,126.442 L 3659.16,126.255 L 3658.94,126.086 L 3658.71,125.936 L 3658.47,125.806 L 3658.22,125.698 L 3657.96,125.611 L 3657.7,125.547 L 3657.43,125.506 L 3657.15,125.488 L 3656.88,125.494 L 3656.61,125.524 L 3656.34,125.576 L 3656.08,125.652 L 3655.82,125.749 L 3655.58,125.869 L 3655.34,126.009 L 3655.12,126.168 L 3654.91,126.346 L 3654.72,126.541 L 3654.55,126.752 L 3654.4,126.977 L 3654.26,127.215 L 3654.15,127.463 L 3654.05,127.72 L 3653.98,127.984 L 3653.94,128.253 L 3653.91,128.525 L 3653.91,128.798 L 3653.94,129.071 L 3653.98,129.34 L 3654.05,129.604 L 3654.15,129.861 L 3654.26,130.109 L 3654.4,130.347 L 3654.55,130.572 L 3654.72,130.782 L 3654.91,130.978 L 3655.12,131.156 L 3655.34,131.315 L 3655.58,131.455 L 3655.82,131.575 L 3656.08,131.672 L 3656.34,131.748 L 3656.61,131.8 L 3656.88,131.83 L 3657.15,131.835 L 3657.43,131.818 L 3657.7,131.777 L 3657.96,131.713 L 3658.22,131.626 L 3658.47,131.518 L 3658.71,131.388 L 3658.94,131.238 L 3659.16,131.069 L 3659.35,130.882 L 3659.54,130.679 L 3659.7,130.461 L 3659.85,130.229 L 3659.97,129.986 L 3660.07,129.733 L 3660.15,129.472 L 3660.21,129.206 L 3660.25,128.935 L 3660.26,128.662 L 3657.09,128.662 Z" style="fill:#000000;fill-rule:evenodd;fill-opacity:1;stroke:#000000;stroke-width:4px;stroke-linecap:butt;stroke-linejoin:miter;stroke-opacity:1;"/>
<path d="M 3660.26,87.9262 L 3660.25,87.6533 L 3660.21,87.3825 L 3660.15,87.1156 L 3660.07,86.8548 L 3659.97,86.6019 L 3659.85,86.3588 L 3659.7,86.1273 L 3659.54,85.9092 L 3659.35,85.706 L 3659.16,85.5192 L 3658.94,85.3502 L 3658.71,85.2003 L 3658.47,85.0706 L 3658.22,84.962 L 3657.96,84.8753 L 3657.7,84.8113 L 3657.43,84.7703 L 3657.15,84.7527 L 3656.88,84.7586 L 3656.61,84.7879 L 3656.34,84.8405 L 3656.08,84.9159 L 3655.82,85.0136 L 3655.58,85.1328 L 3655.34,85.2728 L 3655.12,85.4324 L 3654.91,85.6104 L 3654.72,85.8056 L 3654.55,86.0165 L 3654.4,86.2415 L 3654.26,86.479 L 3654.15,86.7273 L 3654.05,86.9844 L 3653.98,87.2484 L 3653.94,87.5175 L 3653.91,87.7896 L 3653.91,88.0627 L 3653.94,88.3349 L 3653.98,88.6039 L 3654.05,88.868 L 3654.15,89.1251 L 3654.26,89.3733 L 3654.4,89.6108 L 3654.55,89.8359 L 3654.72,90.0468 L 3654.91,90.242 L 3655.12,90.42 L 3655.34,90.5796 L 3655.58,90.7195 L 3655.82,90.8388 L 3656.08,90.9365 L 3656.34,91.0119 L 3656.61,91.0645 L 3656.88,91.0938 L 3657.15,91.0997 L 3657.43,91.082 L 3657.7,91.0411 L 3657.96,90.977 L 3658.22,90.8904 L 3658.47,90.7818 L 3658.71,90.6521 L 3658.94,90.5022 L 3659.16,90.3332 L 3659.35,90.1464 L 3659.54,89.9432 L 3659.7,89.725 L 3659.85,89.4935 L 3659.97,89.2504 L 3660.07,88.9976 L 3660.15,88.7367 L 3660.21,88.4699 L 3660.25,88.1991 L 3660.26,87.9262 L 3657.09,87.9262 Z" style="fill:#000000;fill-rule:evenodd;fill-opacity:1;stroke:#000000;stroke-width:4px;stroke-linecap:butt;stroke-linejoin:miter;stroke-opacity:1;"/>
<path d="M 3660.26,108.294 L 3660.25,108.021 L 3660.21,107.75 L 3660.15,107.484 L 3660.07,107.223 L 3659.97,106.97 L 3659.85,106.727 L 3659.7,106.495 L 3659.54,106.277 L 3659.35,106.074 L 3659.16,105.887 L 3658.94,105.718 L 3658.71,105.568 L 3658.47,105.438 L 3658.22,105.33 L 3657.96,105.243 L 3657.7,105.179 L 3657.43,105.138 L 3657.15,105.121 L 3656.88,105.126 L 3656.61,105.156 L 3656.34,105.208 L 3656.08,105.284 L 3655.82,105.381 L 3655.58,105.501 L 3655.34,105.641 L 3655.12,105.8 L 3654.91,105.978 L 3654.72,106.173 L 3654.55,106.384 L 3654.4,106.609 L 3654.26,106.847 L 3654.15,107.095 L 3654.05,107.352 L 3653.98,107.616 L 3653.94,107.885 L 3653.91,108.157 L 3653.91,108.431 L 3653.94,108.703 L 3653.98,108.972 L 3654.05,109.236 L 3654.15,109.493 L 3654.26,109.741 L 3654.4,109.979 L 3654.55,110.204 L 3654.72,110.415 L 3654.91,110.61 L 3655.12,110.788 L 3655.34,110.947 L 3655.58,111.087 L 3655.82,111.207 L 3656.08,111.304 L 3656.34,111.38 L 3656.61,111.432 L 3656.88,111.462 L 3657.15,111.468 L 3657.43,111.45 L 3657.7,111.409 L 3657.96,111.345 L 3658.22,111.258 L 3658.47,111.15 L 3658.71,111.02 L 3658.94,110.87 L 3659.16,110.701 L 3659.35,110.514 L 3659.54,110.311 L 3659.7,110.093 L 3659.85,109.861 L 3659.97,109.618 L 3660.07,109.365 L 3660.15,109.105 L 3660.21,108.838 L 3660.25,108.567 L 3660.26,108.294 L 3657.09,108.294 Z" style="fill:#000000;fill-rule:evenodd;fill-opacity:1;stroke:#000000;stroke-width:4px;stroke-linecap:butt;stroke-linejoin:miter;stroke-opacity:1;"/>
<text dominant-baseline="central" style="font-size:24px;font-style:normal;font-weight:normal;fill-opacity:1;stroke:none;font-family:sans-serif;fill:#000000" text-anchor="middle" x="1040.69" y="252.277"><tspan>+</tspan></text>
<text dominant-baseline="central" style="font-size:24px;font-style:normal;font-weight:normal;fill-opacity:1;stroke:none;font-family:sans-serif;fill:#000000" text-anchor="middle" x="2994.62" y="252.277"><tspan>+</tspan></text>
<path d="M 1760.16,248.677 L 2183.38,248.677" style="fill:none;fill-rule:evenodd;stroke:#000000;stroke-width:4px;stroke-linecap:butt;stroke-linejoin:miter;stroke-opacity:1"/>
<path d="M 2183.38,248.677 L 2165.06,238.097" style="fill:none;fill-rule:evenodd;stroke:#000000;stroke-width:4px;stroke-linecap:butt;stroke-linejoin:miter;stroke-opacity:1"/>
<path d="M 2183.38,248.677 L 2165.06,259.258" style="fill:none;fill-rule:evenodd;stroke:#000000;stroke-width:4px;stroke-linecap:butt;stroke-linejoin:miter;stroke-opacity:1"/>
</svg>