<svg baseProfile="full" height="500px" version="1.1" viewBox="0 0 4000 500" width="4000px" xml:space="preserve" xmlns="http://www.w3.org/2000/svg" xmlns:rdkit="http://www.rdkit.org/xml" xmlns:xlink="http://www.w3.org/1999/xlink">
<!-- END OF HEADER -->
<rect height="500" style="opacity:1.0;fill:#FFFFFF;stroke:none" width="4000" x="0" y="0"> </rect>
<path d="M 250.964,164.976 L 388.411,244.332" style="fill:none;fill-rule:evenodd;stroke:#FFFFAA;stroke-width:33px;stroke-linecap:butt;stroke-linejoin:miter;stroke-opacity:1"/>
<path d="M 388.411,244.332 L 388.411,403.042" style="fill:none;fill-rule:evenodd;stroke:#FFFFAA;stroke-width:33px;stroke-linecap:butt;stroke-linejoin:miter;stroke-opacity:1"/>
<path d="M 388.411,244.332 L 525.859,164.976" style="fill:none;fill-rule:evenodd;stroke:#FFFFAA;stroke-width:33px;stroke-linecap:butt;stroke-linejoin:miter;stroke-opacity:1"/>
<path d="M 525.859,164.976 L 663.306,244.332" style="fill:none;fill-rule:evenodd;stroke:#FFFFAA;stroke-width:33px;stroke-linecap:butt;stroke-linejoin:miter;stroke-opacity:1"/>
<path d="M 663.306,244.332 L 800.754,164.976" style="fill:none;fill-rule:evenodd;stroke:#FFFFAA;stroke-width:33px;stroke-linecap:butt;stroke-linejoin:miter;stroke-opacity:1"/>
<path d="M 663.306,244.332 L 663.306,403.042" style="fill:none;fill-rule:evenodd;stroke:#FFFFAA;stroke-width:33px;stroke-linecap:butt;stroke-linejoin:miter;stroke-opacity:1"/>
<path d="M 1280.63,335.024 L 1418.08,255.668" style="fill:none;fill-rule:evenodd;stroke:#FFCC99;stroke-width:33px;stroke-linecap:butt;stroke-linejoin:miter;stroke-opacity:1"/>
<path d="M 1418.08,255.668 L 1418.08,96.9576" style="fill:none;fill-rule:evenodd;stroke:#FFCC99;stroke-width:33px;stroke-linecap:butt;stroke-linejoin:miter;stroke-opacity:1"/>
<path d="M 1418.08,255.668 L 1555.53,335.024" style="fill:none;fill-rule:evenodd;stroke:#FFCC99;stroke-width:33px;stroke-linecap:butt;stroke-linejoin:miter;stroke-opacity:1"/>
<path d="M 2476.23,335.024 L 2613.67,255.668" style="fill:none;fill-rule:evenodd;stroke:#FFFFAA;stroke-width:33px;stroke-linecap:butt;stroke-linejoin:miter;stroke-opacity:1"/>
<path d="M 2613.67,255.668 L 2751.12,335.024" style="fill:none;fill-rule:evenodd;stroke:#FFFFAA;stroke-width:33px;stroke-linecap:butt;stroke-linejoin:miter;stroke-opacity:1"/>
<path d="M 2613.67,255.668 L 2613.67,96.9576" style="fill:none;fill-rule:evenodd;stroke:#FFFFAA;stroke-width:33px;stroke-linecap:butt;stroke-linejoin:miter;stroke-opacity:1"/>
<path d="M 3199.25,164.976 L 3336.69,244.332" style="fill:none;fill-rule:evenodd;stroke:#FFCC99;stroke-width:33px;stroke-linecap:butt;stroke-linejoin:miter;stroke-opacity:1"/>
<path d="M 3336.69,244.332 L 3474.14,164.976" style="fill:none;fill-rule:evenodd;stroke:#FFCC99;stroke-width:33px;stroke-linecap:butt;stroke-linejoin:miter;stroke-opacity:1"/>
<path d="M 3336.69,244.332 L 3336.69,403.042" style="fill:none;fill-rule:evenodd;stroke:#FFCC99;stroke-width:33px;stroke-linecap:butt;stroke-linejoin:miter;stroke-opacity:1"/>
<path d="M 3611.59,244.332 L 3749.04,164.976" style="fill:none;fill-rule:evenodd;stroke:#FFFFAA;stroke-width:33px;stroke-linecap:butt;stroke-linejoin:miter;stroke-opacity:1"/>
<path d="M 3611.59,244.332 L 3611.59,403.042" style="fill:none;fill-rule:evenodd;stroke:#FFFFAA;stroke-width:33px;stroke-linecap:butt;stroke-linejoin:miter;stroke-opacity:1"/>
<ellipse cx="250.964" cy="164.976" rx="31.7421" ry="31.7421" style="fill:#FFFFAA;fill-rule:evenodd;stroke:#FFFFAA;stroke-width:2px;stroke-linecap:butt;stroke-linejoin:miter;stroke-opacity:1"/>
<ellipse cx="388.411" cy="244.332" rx="31.7421" ry="31.7421" style="fill:#FFFFAA;fill-rule:evenodd;stroke:#FFFFAA;stroke-width:2px;stroke-linecap:butt;stroke-linejoin:miter;stroke-opacity:1"/>
<ellipse cx="388.411" cy="403.042" rx="31.7421" ry="31.7421" style="fill:#FFFFAA;fill-rule:evenodd;stroke:#FFFFAA;stroke-width:2px;stroke-linecap:butt;stroke-linejoin:miter;stroke-opacity:1"/>
<ellipse cx="525.859" cy="164.976" rx="31.7421" ry="31.7421" style="fill:#FFFFAA;fill-rule:evenodd;stroke:#FFFFAA;stroke-width:2px;stroke-linecap:butt;stroke-linejoin:miter;stroke-opacity:1"/>
<ellipse cx="663.306" cy="244.332" rx="31.7421" ry="31.7421" style="fill:#FFFFAA;fill-rule:evenodd;stroke:#FFFFAA;stroke-width:2px;stroke-linecap:butt;stroke-linejoin:miter;stroke-opacity:1"/>
<ellipse cx="800.754" cy="164.976" rx="31.7421" ry="31.7421" style="fill:#FFFFAA;fill-rule:evenodd;stroke:#FFFFAA;stroke-width:2px;stroke-linecap:butt;stroke-linejoin:miter;stroke-opacity:1"/>
<ellipse cx="663.306" cy="403.042" rx="31.7421" ry="31.7421" style="fill:#FFFFAA;fill-rule:evenodd;stroke:#FFFFAA;stroke-width:2px;stroke-linecap:butt;stroke-linejoin:miter;stroke-opacity:1"/>
<ellipse cx="1280.63" cy="335.024" rx="31.7421" ry="31.7421" style="fill:#FFCC99;fill-rule:evenodd;stroke:#FFCC99;stroke-width:2px;stroke-linecap:butt;stroke-linejoin:miter;stroke-opacity:1"/>
<ellipse cx="1418.08" cy="255.668" rx="31.7421" ry="31.7421" style="fill:#FFCC99;fill-rule:evenodd;stroke:#FFCC99;stroke-width:2px;stroke-linecap:butt;stroke-linejoin:miter;stroke-opacity:1"/>
<ellipse cx="1442.09" cy="96.9576" rx="58.47" ry="31.7421" style="fill:#FFCC99;fill-rule:evenodd;stroke:#FFCC99;stroke-width:2px;stroke-linecap:butt;stroke-linejoin:miter;stroke-opacity:1"/>
<ellipse cx="1555.53" cy="335.024" rx="31.7421" ry="31.7421" style="fill:#FFCC99;fill-rule:evenodd;stroke:#FFCC99;stroke-width:2px;stroke-linecap:butt;stroke-linejoin:miter;stroke-opacity:1"/>
<ellipse cx="2476.23" cy="335.024" rx="31.7421" ry="31.7421" style="fill:#FFFFAA;fill-rule:evenodd;stroke:#FFFFAA;stroke-width:2px;stroke-linecap:butt;stroke-linejoin:miter;stroke-opacity:1"/>
<ellipse cx="2613.67" cy="255.668" rx="31.7421" ry="31.7421" style="fill:#FFFFAA;fill-rule:evenodd;stroke:#FFFFAA;stroke-width:2px;stroke-linecap:butt;stroke-linejoin:miter;stroke-opacity:1"/>
<ellipse cx="2751.12" cy="335.024" rx="31.7421" ry="31.7421" style="fill:#FFFFAA;fill-rule:evenodd;stroke:#FFFFAA;stroke-width:2px;stroke-linecap:butt;stroke-linejoin:miter;stroke-opacity:1"/>
<ellipse cx="2631.01" cy="96.9576" rx="50.9321" ry="31.7421" style="fill:#FFFFAA;fill-rule:evenodd;stroke:#FFFFAA;stroke-width:2px;stroke-linecap:butt;stroke-linejoin:miter;stroke-opacity:1"/>
<ellipse cx="3199.25" cy="164.976" rx="31.7421" ry="31.7421" style="fill:#FFCC99;fill-rule:evenodd;stroke:#FFCC99;stroke-width:2px;stroke-linecap:butt;stroke-linejoin:miter;stroke-opacity:1"/>
<ellipse cx="3336.69" cy="244.332" rx="31.7421" ry="31.7421" style="fill:#FFCC99;fill-rule:evenodd;stroke:#FFCC99;stroke-width:2px;stroke-linecap:butt;stroke-linejoin:miter;stroke-opacity:1"/>
<ellipse cx="3474.14" cy="144.976" rx="31.7421" ry="56.5685" style="fill:#FFCC99;fill-rule:evenodd;stroke:#FFCC99;stroke-width:2px;stroke-linecap:butt;stroke-linejoin:miter;stroke-opacity:1"/>
<ellipse cx="3611.59" cy="244.332" rx="31.7421" ry="31.7421" style="fill:#FFFFAA;fill-rule:evenodd;stroke:#FFFFAA;stroke-width:2px;stroke-linecap:butt;stroke-linejoin:miter;stroke-opacity:1"/>
<ellipse cx="3749.04" cy="164.976" rx="31.7421" ry="31.7421" style="fill:#FFFFAA;fill-rule:evenodd;stroke:#FFFFAA;stroke-width:2px;stroke-linecap:butt;stroke-linejoin:miter;stroke-opacity:1"/>
<ellipse cx="3611.59" cy="403.042" rx="31.7421" ry="31.7421" style="fill:#FFFFAA;fill-rule:evenodd;stroke:#FFFFAA;stroke-width:2px;stroke-linecap:butt;stroke-linejoin:miter;stroke-opacity:1"/>
<ellipse cx="3336.69" cy="403.042" rx="31.7421" ry="31.7421" style="fill:#FFCC99;fill-rule:evenodd;stroke:#FFCC99;stroke-width:2px;stroke-linecap:butt;stroke-linejoin:miter;stroke-opacity:1"/>
<path class="bond-0" d="M 250.964,164.976 L 388.411,244.332" style="fill:none;fill-rule:evenodd;stroke:#000000;stroke-width:4px;stroke-linecap:butt;stroke-linejoin:miter;stroke-opacity:1"/>
<path class="bond-1" d="M 372.54,244.332 L 372.54,313.687" style="fill:none;fill-rule:evenodd;stroke:#000000;stroke-width:4px;stroke-linecap:butt;stroke-linejoin:miter;stroke-opacity:1"/>
<path class="bond-1" d="M 372.54,313.687 L 372.54,383.042" style="fill:none;fill-rule:evenodd;stroke:#FF0000;stroke-width:4px;stroke-linecap:butt;stroke-linejoin:miter;stroke-opacity:1"/>
<path class="bond-1" d="M 404.282,244.332 L 404.282,313.687" style="fill:none;fill-rule:evenodd;stroke:#000000;stroke-width:4px;stroke-linecap:butt;stroke-linejoin:miter;stroke-opacity:1"/>
<path class="bond-1" d="M 404.282,313.687 L 404.282,383.042" style="fill:none;fill-rule:evenodd;stroke:#FF0000;stroke-width:4px;stroke-linecap:butt;stroke-linejoin:miter;stroke-opacity:1"/>
<path class="bond-2" d="M 388.411,244.332 L 447.795,210.046" style="fill:none;fill-rule:evenodd;stroke:#000000;stroke-width:4px;stroke-linecap:butt;stroke-linejoin:miter;stroke-opacity:1"/>
<path class="bond-2" d="M 447.795,210.046 L 507.179,175.761" style="fill:none;fill-rule:evenodd;stroke:#FF0000;stroke-width:4px;stroke-linecap:butt;stroke-linejoin:miter;stroke-opacity:1"/>
<path class="bond-3" d="M 544.538,175.761 L 603.922,210.046" style="fill:none;fill-rule:evenodd;stroke:#FF0000;stroke-width:4px;stroke-linecap:butt;stroke-linejoin:miter;stroke-opacity:1"/>
<path class="bond-3" d="M 603.922,210.046 L 663.306,244.332" style="fill:none;fill-rule:evenodd;stroke:#000000;stroke-width:4px;stroke-linecap:butt;stroke-linejoin:miter;stroke-opacity:1"/>
<path class="bond-4" d="M 663.306,244.332 L 800.754,164.976" style="fill:none;fill-rule:evenodd;stroke:#000000;stroke-width:4px;stroke-linecap:butt;stroke-linejoin:miter;stroke-opacity:1"/>
<path class="bond-5" d="M 647.435,244.332 L 647.435,313.687" style="fill:none;fill-rule:evenodd;stroke:#000000;stroke-width:4px;stroke-linecap:butt;stroke-linejoin:miter;stroke-opacity:1"/>
<path class="bond-5" d="M 647.435,313.687 L 647.435,383.042" style="fill:none;fill-rule:evenodd;stroke:#FF0000;stroke-width:4px;stroke-linecap:butt;stroke-linejoin:miter;stroke-opacity:1"/>
<path class="bond-5" d="M 679.177,244.332 L 679.177,313.687" style="fill:none;fill-rule:evenodd;stroke:#000000;stroke-width:4px;stroke-linecap:butt;stroke-linejoin:miter;stroke-opacity:1"/>
<path class="bond-5" d="M 679.177,313.687 L 679.177,383.042" style="fill:none;fill-rule:evenodd;stroke:#FF0000;stroke-width:4px;stroke-linecap:butt;stroke-linejoin:miter;stroke-opacity:1"/>
<path class="bond-6" d="M 1288.57,348.768 L 1426.02,269.413" style="fill:none;fill-rule:evenodd;stroke:#000000;stroke-width:4px;stroke-linecap:butt;stroke-linejoin:miter;stroke-opacity:1"/>
<path class="bond-6" d="M 1272.7,321.279 L 1410.14,241.923" style="fill:none;fill-rule:evenodd;stroke:#000000;stroke-width:4px;stroke-linecap:butt;stroke-linejoin:miter;stroke-opacity:1;stroke-dasharray:6,6"/>
<path class="bond-7" d="M 1418.08,255.668 L 1418.08,187.313" style="fill:none;fill-rule:evenodd;stroke:#000000;stroke-width:4px;stroke-linecap:butt;stroke-linejoin:miter;stroke-opacity:1"/>
<path class="bond-7" d="M 1418.08,187.313 L 1418.08,118.958" style="fill:none;fill-rule:evenodd;stroke:#0000FF;stroke-width:4px;stroke-linecap:butt;stroke-linejoin:miter;stroke-opacity:1"/>
<path class="bond-8" d="M 1410.14,269.413 L 1547.59,348.768" style="fill:none;fill-rule:evenodd;stroke:#000000;stroke-width:4px;stroke-linecap:butt;stroke-linejoin:miter;stroke-opacity:1"/>
<path class="bond-8" d="M 1426.02,241.923 L 1563.46,321.279" style="fill:none;fill-rule:evenodd;stroke:#000000;stroke-width:4px;stroke-linecap:butt;stroke-linejoin:miter;stroke-opacity:1;stroke-dasharray:6,6"/>
<path class="bond-9" d="M 2476.23,335.024 L 2613.67,255.668" style="fill:none;fill-rule:evenodd;stroke:#000000;stroke-width:4px;stroke-linecap:butt;stroke-linejoin:miter;stroke-opacity:1"/>
<path class="bond-10" d="M 2605.74,269.413 L 2665.12,303.698" style="fill:none;fill-rule:evenodd;stroke:#000000;stroke-width:4px;stroke-linecap:butt;stroke-linejoin:miter;stroke-opacity:1"/>
<path class="bond-10" d="M 2665.12,303.698 L 2724.51,337.984" style="fill:none;fill-rule:evenodd;stroke:#FF0000;stroke-width:4px;stroke-linecap:butt;stroke-linejoin:miter;stroke-opacity:1"/>
<path class="bond-10" d="M 2621.61,241.923 L 2680.99,276.209" style="fill:none;fill-rule:evenodd;stroke:#000000;stroke-width:4px;stroke-linecap:butt;stroke-linejoin:miter;stroke-opacity:1"/>
<path class="bond-10" d="M 2680.99,276.209 L 2740.38,310.494" style="fill:none;fill-rule:evenodd;stroke:#FF0000;stroke-width:4px;stroke-linecap:butt;stroke-linejoin:miter;stroke-opacity:1"/>
<path class="bond-11" d="M 2613.67,255.668 L 2613.67,186.313" style="fill:none;fill-rule:evenodd;stroke:#000000;stroke-width:4px;stroke-linecap:butt;stroke-linejoin:miter;stroke-opacity:1"/>
<path class="bond-11" d="M 2613.67,186.313 L 2613.67,116.958" style="fill:none;fill-rule:evenodd;stroke:#FF0000;stroke-width:4px;stroke-linecap:butt;stroke-linejoin:miter;stroke-opacity:1"/>
<path class="bond-12" d="M 3191.31,178.721 L 3328.76,258.077" style="fill:none;fill-rule:evenodd;stroke:#000000;stroke-width:4px;stroke-linecap:butt;stroke-linejoin:miter;stroke-opacity:1"/>
<path class="bond-12" d="M 3207.18,151.232 L 3344.63,230.587" style="fill:none;fill-rule:evenodd;stroke:#000000;stroke-width:4px;stroke-linecap:butt;stroke-linejoin:miter;stroke-opacity:1;stroke-dasharray:6,6"/>
<path class="bond-13" d="M 3336.69,244.332 L 3396.75,209.658" style="fill:none;fill-rule:evenodd;stroke:#000000;stroke-width:4px;stroke-linecap:butt;stroke-linejoin:miter;stroke-opacity:1"/>
<path class="bond-13" d="M 3396.75,209.658 L 3456.81,174.985" style="fill:none;fill-rule:evenodd;stroke:#0000FF;stroke-width:4px;stroke-linecap:butt;stroke-linejoin:miter;stroke-opacity:1"/>
<path class="bond-17" d="M 3320.82,244.332 L 3320.82,403.042" style="fill:none;fill-rule:evenodd;stroke:#000000;stroke-width:4px;stroke-linecap:butt;stroke-linejoin:miter;stroke-opacity:1"/>
<path class="bond-17" d="M 3352.56,244.332 L 3352.56,403.042" style="fill:none;fill-rule:evenodd;stroke:#000000;stroke-width:4px;stroke-linecap:butt;stroke-linejoin:miter;stroke-opacity:1;stroke-dasharray:6,6"/>
<path class="bond-14" d="M 3491.48,174.985 L 3551.53,209.658" style="fill:none;fill-rule:evenodd;stroke:#0000FF;stroke-width:4px;stroke-linecap:butt;stroke-linejoin:miter;stroke-opacity:1"/>
<path class="bond-14" d="M 3551.53,209.658 L 3611.59,244.332" style="fill:none;fill-rule:evenodd;stroke:#000000;stroke-width:4px;stroke-linecap:butt;stroke-linejoin:miter;stroke-opacity:1"/>
<path class="bond-15" d="M 3611.59,244.332 L 3749.04,164.976" style="fill:none;fill-rule:evenodd;stroke:#000000;stroke-width:4px;stroke-linecap:butt;stroke-linejoin:miter;stroke-opacity:1"/>
<path class="bond-16" d="M 3595.72,244.332 L 3595.72,313.687" style="fill:none;fill-rule:evenodd;stroke:#000000;stroke-width:4px;stroke-linecap:butt;stroke-linejoin:miter;stroke-opacity:1"/>
<path class="bond-16" d="M 3595.72,313.687 L 3595.72,383.042" style="fill:none;fill-rule:evenodd;stroke:#FF0000;stroke-width:4px;stroke-linecap:butt;stroke-linejoin:miter;stroke-opacity:1"/>
<path class="bond-16" d="M 3627.46,244.332 L 3627.46,313.687" style="fill:none;fill-rule:evenodd;stroke:#000000;stroke-width:4px;stroke-linecap:butt;stroke-linejoin:miter;stroke-opacity:1"/>
<path class="bond-16" d="M 3627.46,313.687 L 3627.46,383.042" style="fill:none;fill-rule:evenodd;stroke:#FF0000;stroke-width:4px;stroke-linecap:butt;stroke-linejoin:miter;stroke-opacity:1"/>
<text dominant-baseline="central" style="font-size:40px;font-style:normal;font-weight:normal;fill-opacity:1;stroke:none;font-family:sans-serif;fill:#FF0000" text-anchor="start" x="373.732" y="409.042"><tspan>O</tspan></text>
<text dominant-baseline="central" style="font-size:40px;font-style:normal;font-weight:normal;fill-opacity:1;stroke:none;font-family:sans-serif;fill:#FF0000" text-anchor="middle" x="525.859" y="170.976"><tspan>O</tspan></text>
<text dominant-baseline="central" style="font-size:40px;font-style:normal;font-weight:normal;fill-opacity:1;stroke:none;font-family:sans-serif;fill:#FF0000" text-anchor="start" x="648.627" y="409.042"><tspan>O</tspan></text>
<text dominant-baseline="central" style="font-size:40px;font-style:normal;font-weight:normal;fill-opacity:1;stroke:none;font-family:sans-serif;fill:#0000FF" text-anchor="start" x="1405.15" y="103.558"><tspan>NH</tspan><tspan style="baseline-shift:sub;font-size:30px;">2</tspan><tspan/></text>
<text dominant-baseline="central" style="font-size:40px;font-style:normal;font-weight:normal;fill-opacity:1;stroke:none;font-family:sans-serif;fill:#FF0000" text-anchor="start" x="2736.44" y="341.024"><tspan>O</tspan></text>
<text dominant-baseline="central" style="font-size:40px;font-style:normal;font-weight:normal;fill-opacity:1;stroke:none;font-family:sans-serif;fill:#FF0000" text-anchor="start" x="2599" y="102.958"><tspan>OH</tspan></text>
<text dominant-baseline="central" style="font-size:40px;font-style:normal;font-weight:normal;fill-opacity:1;stroke:none;font-family:sans-serif;fill:#0000FF" text-anchor="middle" x="3474.14" y="170.976"><tspan>N</tspan></text>
<text dominant-baseline="central" style="font-size:40px;font-style:normal;font-weight:normal;fill-opacity:1;stroke:none;font-family:sans-serif;fill:#0000FF" text-anchor="start" x="3460.81" y="130.976"><tspan>H</tspan></text>
<text dominant-baseline="central" style="font-size:40px;font-style:normal;font-weight:normal;fill-opacity:1;stroke:none;font-family:sans-serif;fill:#FF0000" text-anchor="start" x="3596.91" y="409.042"><tspan>O</tspan></text>
<text dominant-baseline="central" style="font-size:39px;font-style:normal;font-weight:normal;fill-opacity:1;stroke:none;font-family:sans-serif;fill:#000000" text-anchor="middle" x="237.738" y="193.836"><tspan>1</tspan></text>
<text dominant-baseline="central" style="font-size:39px;font-style:normal;font-weight:normal;fill-opacity:1;stroke:none;font-family:sans-serif;fill:#000000" text-anchor="middle" x="342.595" y="276.735"><tspan>2</tspan></text>
<text dominant-baseline="central" style="font-size:39px;font-style:normal;font-weight:normal;fill-opacity:1;stroke:none;font-family:sans-serif;fill:#000000" text-anchor="middle" x="388.411" y="461.898"><tspan>3</tspan></text>
<text dominant-baseline="central" style="font-size:39px;font-style:normal;font-weight:normal;fill-opacity:1;stroke:none;font-family:sans-serif;fill:#000000" text-anchor="middle" x="525.859" y="118.025"><tspan>4</tspan></text>
<text dominant-baseline="central" style="font-size:39px;font-style:normal;font-weight:normal;fill-opacity:1;stroke:none;font-family:sans-serif;fill:#000000" text-anchor="middle" x="663.306" y="197.38"><tspan>14</tspan></text>
<text dominant-baseline="central" style="font-size:39px;font-style:normal;font-weight:normal;fill-opacity:1;stroke:none;font-family:sans-serif;fill:#000000" text-anchor="middle" x="787.528" y="148.02"><tspan>15</tspan></text>
<text dominant-baseline="central" style="font-size:39px;font-style:normal;font-weight:normal;fill-opacity:1;stroke:none;font-family:sans-serif;fill:#000000" text-anchor="middle" x="663.306" y="461.898"><tspan>16</tspan></text>
<text dominant-baseline="central" style="font-size:39px;font-style:normal;font-weight:normal;fill-opacity:1;stroke:none;font-family:sans-serif;fill:#000000" text-anchor="middle" x="1307.08" y="386.791"><tspan>11</tspan></text>
<text dominant-baseline="central" style="font-size:39px;font-style:normal;font-weight:normal;fill-opacity:1;stroke:none;font-family:sans-serif;fill:#000000" text-anchor="middle" x="1349.36" y="221.942"><tspan>12</tspan></text>
<text dominant-baseline="central" style="font-size:39px;font-style:normal;font-weight:normal;fill-opacity:1;stroke:none;font-family:sans-serif;fill:#000000" text-anchor="middle" x="1418.08" y="50.0057"><tspan>13</tspan></text>
<text dominant-baseline="central" style="font-size:39px;font-style:normal;font-weight:normal;fill-opacity:1;stroke:none;font-family:sans-serif;fill:#000000" text-anchor="middle" x="1581.98" y="295.159"><tspan>17</tspan></text>
<text dominant-baseline="central" style="font-size:39px;font-style:normal;font-weight:normal;fill-opacity:1;stroke:none;font-family:sans-serif;fill:#000000" text-anchor="middle" x="2489.45" y="363.883"><tspan>1</tspan></text>
<text dominant-baseline="central" style="font-size:39px;font-style:normal;font-weight:normal;fill-opacity:1;stroke:none;font-family:sans-serif;fill:#000000" text-anchor="middle" x="2613.67" y="314.523"><tspan>2</tspan></text>
<text dominant-baseline="central" style="font-size:39px;font-style:normal;font-weight:normal;fill-opacity:1;stroke:none;font-family:sans-serif;fill:#000000" text-anchor="middle" x="2796.94" y="367.427"><tspan>3</tspan></text>
<text dominant-baseline="central" style="font-size:39px;font-style:normal;font-weight:normal;fill-opacity:1;stroke:none;font-family:sans-serif;fill:#000000" text-anchor="middle" x="2613.67" y="50.0057"><tspan>4</tspan></text>
<text dominant-baseline="central" style="font-size:39px;font-style:normal;font-weight:normal;fill-opacity:1;stroke:none;font-family:sans-serif;fill:#000000" text-anchor="middle" x="3172.79" y="216.744"><tspan>11</tspan></text>
<text dominant-baseline="central" style="font-size:39px;font-style:normal;font-weight:normal;fill-opacity:1;stroke:none;font-family:sans-serif;fill:#000000" text-anchor="middle" x="3382.51" y="276.735"><tspan>12</tspan></text>
<text dominant-baseline="central" style="font-size:39px;font-style:normal;font-weight:normal;fill-opacity:1;stroke:none;font-family:sans-serif;fill:#000000" text-anchor="middle" x="3474.14" y="223.832"><tspan>13</tspan></text>
<text dominant-baseline="central" style="font-size:39px;font-style:normal;font-weight:normal;fill-opacity:1;stroke:none;font-family:sans-serif;fill:#000000" text-anchor="middle" x="3611.59" y="197.38"><tspan>14</tspan></text>
<text dominant-baseline="central" style="font-size:39px;font-style:normal;font-weight:normal;fill-opacity:1;stroke:none;font-family:sans-serif;fill:#000000" text-anchor="middle" x="3735.81" y="148.02"><tspan>15</tspan></text>
<text dominant-baseline="central" style="font-size:39px;font-style:normal;font-weight:normal;fill-opacity:1;stroke:none;font-family:sans-serif;fill:#000000" text-anchor="middle" x="3611.59" y="461.898"><tspan>16</tspan></text>
<text dominant-baseline="central" style="font-size:39px;font-style:normal;font-weight:normal;fill-opacity:1;stroke:none;font-family:sans-serif;fill:#000000" text-anchor="middle" x="3323.47" y="431.902"><tspan>17</tspan></text>
<path d="M 1246.25,345.957 L 1246.23,345.684 L 1246.2,345.413 L 1246.14,345.146 L 1246.06,344.886 L 1245.96,344.633 L 1245.83,344.39 L 1245.69,344.158 L 1245.52,343.94 L 1245.34,343.737 L 1245.14,343.55 L 1244.93,343.381 L 1244.7,343.231 L 1244.46,343.101 L 1244.21,342.993 L 1243.95,342.906 L 1243.68,342.842 L 1243.41,342.801 L 1243.14,342.783 L 1242.87,342.789 L 1242.59,342.819 L 1242.33,342.871 L 1242.06,342.947 L 1241.81,343.044 L 1241.56,343.164 L 1241.33,343.304 L 1241.11,343.463 L 1240.9,343.641 L 1240.71,343.836 L 1240.54,344.047 L 1240.38,344.272 L 1240.25,344.51 L 1240.13,344.758 L 1240.04,345.015 L 1239.97,345.279 L 1239.92,345.548 L 1239.9,345.82 L 1239.9,346.094 L 1239.92,346.366 L 1239.97,346.635 L 1240.04,346.899 L 1240.13,347.156 L 1240.25,347.404 L 1240.38,347.642 L 1240.54,347.867 L 1240.71,348.078 L 1240.9,348.273 L 1241.11,348.451 L 1241.33,348.61 L 1241.56,348.75 L 1241.81,348.87 L 1242.06,348.967 L 1242.33,349.043 L 1242.59,349.095 L 1242.87,349.125 L 1243.14,349.13 L 1243.41,349.113 L 1243.68,349.072 L 1243.95,349.008 L 1244.21,348.921 L 1244.46,348.813 L 1244.7,348.683 L 1244.93,348.533 L 1245.14,348.364 L 1245.34,348.177 L 1245.52,347.974 L 1245.69,347.756 L 1245.83,347.524 L 1245.96,347.281 L 1246.06,347.028 L 1246.14,346.768 L 1246.2,346.501 L 1246.23,346.23 L 1246.25,345.957 L 1243.07,345.957 Z" style="fill:#000000;fill-rule:evenodd;fill-opacity:1;stroke:#000000;stroke-width:4px;stroke-linecap:butt;stroke-linejoin:miter;stroke-opacity:1;"/>
<path d="M 1246.25,324.09 L 1246.23,323.817 L 1246.2,323.546 L 1246.14,323.28 L 1246.06,323.019 L 1245.96,322.766 L 1245.83,322.523 L 1245.69,322.291 L 1245.52,322.073 L 1245.34,321.87 L 1245.14,321.683 L 1244.93,321.514 L 1244.7,321.364 L 1244.46,321.235 L 1244.21,321.126 L 1243.95,321.039 L 1243.68,320.975 L 1243.41,320.934 L 1243.14,320.917 L 1242.87,320.923 L 1242.59,320.952 L 1242.33,321.004 L 1242.06,321.08 L 1241.81,321.178 L 1241.56,321.297 L 1241.33,321.437 L 1241.11,321.596 L 1240.9,321.774 L 1240.71,321.97 L 1240.54,322.18 L 1240.38,322.406 L 1240.25,322.643 L 1240.13,322.891 L 1240.04,323.148 L 1239.97,323.412 L 1239.92,323.681 L 1239.9,323.954 L 1239.9,324.227 L 1239.92,324.499 L 1239.97,324.768 L 1240.04,325.032 L 1240.13,325.289 L 1240.25,325.537 L 1240.38,325.775 L 1240.54,326 L 1240.71,326.211 L 1240.9,326.406 L 1241.11,326.584 L 1241.33,326.744 L 1241.56,326.884 L 1241.81,327.003 L 1242.06,327.1 L 1242.33,327.176 L 1242.59,327.228 L 1242.87,327.258 L 1243.14,327.264 L 1243.41,327.246 L 1243.68,327.205 L 1243.95,327.141 L 1244.21,327.054 L 1244.46,326.946 L 1244.7,326.816 L 1244.93,326.666 L 1245.14,326.497 L 1245.34,326.31 L 1245.52,326.107 L 1245.69,325.889 L 1245.83,325.658 L 1245.96,325.414 L 1246.06,325.162 L 1246.14,324.901 L 1246.2,324.634 L 1246.23,324.363 L 1246.25,324.09 L 1243.07,324.09 Z" style="fill:#000000;fill-rule:evenodd;fill-opacity:1;stroke:#000000;stroke-width:4px;stroke-linecap:butt;stroke-linejoin:miter;stroke-opacity:1;"/>
<path d="M 1547.77,358.83 L 1547.76,358.557 L 1547.72,358.286 L 1547.66,358.02 L 1547.58,357.759 L 1547.48,357.506 L 1547.35,357.263 L 1547.21,357.031 L 1547.05,356.813 L 1546.86,356.61 L 1546.66,356.423 L 1546.45,356.254 L 1546.22,356.104 L 1545.98,355.975 L 1545.73,355.866 L 1545.47,355.779 L 1545.21,355.715 L 1544.94,355.674 L 1544.66,355.657 L 1544.39,355.663 L 1544.12,355.692 L 1543.85,355.744 L 1543.59,355.82 L 1543.33,355.918 L 1543.09,356.037 L 1542.85,356.177 L 1542.63,356.336 L 1542.42,356.514 L 1542.23,356.71 L 1542.06,356.92 L 1541.9,357.146 L 1541.77,357.383 L 1541.66,357.631 L 1541.56,357.888 L 1541.49,358.152 L 1541.45,358.421 L 1541.42,358.694 L 1541.42,358.967 L 1541.45,359.239 L 1541.49,359.508 L 1541.56,359.772 L 1541.66,360.029 L 1541.77,360.277 L 1541.9,360.515 L 1542.06,360.74 L 1542.23,360.951 L 1542.42,361.146 L 1542.63,361.324 L 1542.85,361.484 L 1543.09,361.624 L 1543.33,361.743 L 1543.59,361.84 L 1543.85,361.916 L 1544.12,361.968 L 1544.39,361.998 L 1544.66,362.004 L 1544.94,361.986 L 1545.21,361.945 L 1545.47,361.881 L 1545.73,361.794 L 1545.98,361.686 L 1546.22,361.556 L 1546.45,361.406 L 1546.66,361.237 L 1546.86,361.05 L 1547.05,360.847 L 1547.21,360.629 L 1547.35,360.398 L 1547.48,360.154 L 1547.58,359.902 L 1547.66,359.641 L 1547.72,359.374 L 1547.76,359.103 L 1547.77,358.83 L 1544.59,358.83 Z" style="fill:#000000;fill-rule:evenodd;fill-opacity:1;stroke:#000000;stroke-width:4px;stroke-linecap:butt;stroke-linejoin:miter;stroke-opacity:1;"/>
<path d="M 1569.64,358.83 L 1569.62,358.557 L 1569.59,358.286 L 1569.53,358.02 L 1569.45,357.759 L 1569.35,357.506 L 1569.22,357.263 L 1569.08,357.031 L 1568.91,356.813 L 1568.73,356.61 L 1568.53,356.423 L 1568.32,356.254 L 1568.09,356.104 L 1567.85,355.975 L 1567.6,355.866 L 1567.34,355.779 L 1567.07,355.715 L 1566.8,355.674 L 1566.53,355.657 L 1566.26,355.663 L 1565.98,355.692 L 1565.72,355.744 L 1565.45,355.82 L 1565.2,355.918 L 1564.95,356.037 L 1564.72,356.177 L 1564.5,356.336 L 1564.29,356.514 L 1564.1,356.71 L 1563.93,356.92 L 1563.77,357.146 L 1563.64,357.383 L 1563.52,357.631 L 1563.43,357.888 L 1563.36,358.152 L 1563.31,358.421 L 1563.29,358.694 L 1563.29,358.967 L 1563.31,359.239 L 1563.36,359.508 L 1563.43,359.772 L 1563.52,360.029 L 1563.64,360.277 L 1563.77,360.515 L 1563.93,360.74 L 1564.1,360.951 L 1564.29,361.146 L 1564.5,361.324 L 1564.72,361.484 L 1564.95,361.624 L 1565.2,361.743 L 1565.45,361.84 L 1565.72,361.916 L 1565.98,361.968 L 1566.26,361.998 L 1566.53,362.004 L 1566.8,361.986 L 1567.07,361.945 L 1567.34,361.881 L 1567.6,361.794 L 1567.85,361.686 L 1568.09,361.556 L 1568.32,361.406 L 1568.53,361.237 L 1568.73,361.05 L 1568.91,360.847 L 1569.08,360.629 L 1569.22,360.398 L 1569.35,360.154 L 1569.45,359.902 L 1569.53,359.641 L 1569.59,359.374 L 1569.62,359.103 L 1569.64,358.83 L 1566.46,358.83 Z" style="fill:#000000;fill-rule:evenodd;fill-opacity:1;stroke:#000000;stroke-width:4px;stroke-linecap:butt;stroke-linejoin:miter;stroke-opacity:1;"/>
<path d="M 3191.49,141.17 L 3191.48,140.897 L 3191.44,140.626 L 3191.38,140.359 L 3191.3,140.098 L 3191.2,139.846 L 3191.07,139.602 L 3190.93,139.371 L 3190.76,139.153 L 3190.58,138.95 L 3190.38,138.763 L 3190.17,138.594 L 3189.94,138.444 L 3189.7,138.314 L 3189.45,138.206 L 3189.19,138.119 L 3188.92,138.055 L 3188.65,138.014 L 3188.38,137.996 L 3188.11,138.002 L 3187.84,138.032 L 3187.57,138.084 L 3187.31,138.16 L 3187.05,138.257 L 3186.81,138.376 L 3186.57,138.516 L 3186.35,138.676 L 3186.14,138.854 L 3185.95,139.049 L 3185.78,139.26 L 3185.62,139.485 L 3185.49,139.723 L 3185.37,139.971 L 3185.28,140.228 L 3185.21,140.492 L 3185.17,140.761 L 3185.14,141.033 L 3185.14,141.306 L 3185.17,141.579 L 3185.21,141.848 L 3185.28,142.112 L 3185.37,142.369 L 3185.49,142.617 L 3185.62,142.854 L 3185.78,143.08 L 3185.95,143.29 L 3186.14,143.486 L 3186.35,143.664 L 3186.57,143.823 L 3186.81,143.963 L 3187.05,144.082 L 3187.31,144.18 L 3187.57,144.256 L 3187.84,144.308 L 3188.11,144.337 L 3188.38,144.343 L 3188.65,144.326 L 3188.92,144.285 L 3189.19,144.221 L 3189.45,144.134 L 3189.7,144.025 L 3189.94,143.896 L 3190.17,143.746 L 3190.38,143.577 L 3190.58,143.39 L 3190.76,143.187 L 3190.93,142.969 L 3191.07,142.737 L 3191.2,142.494 L 3191.3,142.241 L 3191.38,141.98 L 3191.44,141.714 L 3191.48,141.443 L 3191.49,141.17 L 3188.31,141.17 Z" style="fill:#000000;fill-rule:evenodd;fill-opacity:1;stroke:#000000;stroke-width:4px;stroke-linecap:butt;stroke-linejoin:miter;stroke-opacity:1;"/>
<path d="M 3213.35,141.17 L 3213.34,140.897 L 3213.31,140.626 L 3213.25,140.359 L 3213.17,140.098 L 3213.06,139.846 L 3212.94,139.602 L 3212.8,139.371 L 3212.63,139.153 L 3212.45,138.95 L 3212.25,138.763 L 3212.03,138.594 L 3211.81,138.444 L 3211.57,138.314 L 3211.32,138.206 L 3211.06,138.119 L 3210.79,138.055 L 3210.52,138.014 L 3210.25,137.996 L 3209.98,138.002 L 3209.7,138.032 L 3209.44,138.084 L 3209.17,138.16 L 3208.92,138.257 L 3208.67,138.376 L 3208.44,138.516 L 3208.22,138.676 L 3208.01,138.854 L 3207.82,139.049 L 3207.64,139.26 L 3207.49,139.485 L 3207.35,139.723 L 3207.24,139.971 L 3207.15,140.228 L 3207.08,140.492 L 3207.03,140.761 L 3207.01,141.033 L 3207.01,141.306 L 3207.03,141.579 L 3207.08,141.848 L 3207.15,142.112 L 3207.24,142.369 L 3207.35,142.617 L 3207.49,142.854 L 3207.64,143.08 L 3207.82,143.29 L 3208.01,143.486 L 3208.22,143.664 L 3208.44,143.823 L 3208.67,143.963 L 3208.92,144.082 L 3209.17,144.18 L 3209.44,144.256 L 3209.7,144.308 L 3209.98,144.337 L 3210.25,144.343 L 3210.52,144.326 L 3210.79,144.285 L 3211.06,144.221 L 3211.32,144.134 L 3211.57,144.025 L 3211.81,143.896 L 3212.03,143.746 L 3212.25,143.577 L 3212.45,143.39 L 3212.63,143.187 L 3212.8,142.969 L 3212.94,142.737 L 3213.06,142.494 L 3213.17,142.241 L 3213.25,141.98 L 3213.31,141.714 L 3213.34,141.443 L 3213.35,141.17 L 3210.18,141.17 Z" style="fill:#000000;fill-rule:evenodd;fill-opacity:1;stroke:#000000;stroke-width:4px;stroke-linecap:butt;stroke-linejoin:miter;stroke-opacity:1;"/>
<path d="M 3377.43,413.976 L 3377.42,413.703 L 3377.38,413.432 L 3377.32,413.165 L 3377.24,412.904 L 3377.14,412.652 L 3377.02,412.408 L 3376.87,412.177 L 3376.71,411.959 L 3376.52,411.756 L 3376.32,411.569 L 3376.11,411.4 L 3375.88,411.25 L 3375.64,411.12 L 3375.39,411.012 L 3375.13,410.925 L 3374.87,410.861 L 3374.6,410.82 L 3374.32,410.802 L 3374.05,410.808 L 3373.78,410.838 L 3373.51,410.89 L 3373.25,410.966 L 3372.99,411.063 L 3372.75,411.182 L 3372.51,411.322 L 3372.29,411.482 L 3372.08,411.66 L 3371.89,411.855 L 3371.72,412.066 L 3371.57,412.291 L 3371.43,412.529 L 3371.32,412.777 L 3371.22,413.034 L 3371.15,413.298 L 3371.11,413.567 L 3371.08,413.839 L 3371.08,414.112 L 3371.11,414.385 L 3371.15,414.654 L 3371.22,414.918 L 3371.32,415.175 L 3371.43,415.423 L 3371.57,415.66 L 3371.72,415.886 L 3371.89,416.096 L 3372.08,416.292 L 3372.29,416.47 L 3372.51,416.629 L 3372.75,416.769 L 3372.99,416.888 L 3373.25,416.986 L 3373.51,417.062 L 3373.78,417.114 L 3374.05,417.143 L 3374.32,417.149 L 3374.6,417.132 L 3374.87,417.091 L 3375.13,417.027 L 3375.39,416.94 L 3375.64,416.831 L 3375.88,416.702 L 3376.11,416.552 L 3376.32,416.383 L 3376.52,416.196 L 3376.71,415.993 L 3376.87,415.775 L 3377.02,415.543 L 3377.14,415.3 L 3377.24,415.047 L 3377.32,414.786 L 3377.38,414.52 L 3377.42,414.249 L 3377.43,413.976 L 3374.26,413.976 Z" style="fill:#000000;fill-rule:evenodd;fill-opacity:1;stroke:#000000;stroke-width:4px;stroke-linecap:butt;stroke-linejoin:miter;stroke-opacity:1;"/>
<path d="M 3377.43,392.109 L 3377.42,391.836 L 3377.38,391.565 L 3377.32,391.298 L 3377.24,391.038 L 3377.14,390.785 L 3377.02,390.542 L 3376.87,390.31 L 3376.71,390.092 L 3376.52,389.889 L 3376.32,389.702 L 3376.11,389.533 L 3375.88,389.383 L 3375.64,389.253 L 3375.39,389.145 L 3375.13,389.058 L 3374.87,388.994 L 3374.6,388.953 L 3374.32,388.936 L 3374.05,388.941 L 3373.78,388.971 L 3373.51,389.023 L 3373.25,389.099 L 3372.99,389.196 L 3372.75,389.316 L 3372.51,389.456 L 3372.29,389.615 L 3372.08,389.793 L 3371.89,389.988 L 3371.72,390.199 L 3371.57,390.424 L 3371.43,390.662 L 3371.32,390.91 L 3371.22,391.167 L 3371.15,391.431 L 3371.11,391.7 L 3371.08,391.972 L 3371.08,392.246 L 3371.11,392.518 L 3371.15,392.787 L 3371.22,393.051 L 3371.32,393.308 L 3371.43,393.556 L 3371.57,393.794 L 3371.72,394.019 L 3371.89,394.23 L 3372.08,394.425 L 3372.29,394.603 L 3372.51,394.762 L 3372.75,394.902 L 3372.99,395.022 L 3373.25,395.119 L 3373.51,395.195 L 3373.78,395.247 L 3374.05,395.277 L 3374.32,395.283 L 3374.6,395.265 L 3374.87,395.224 L 3375.13,395.16 L 3375.39,395.073 L 3375.64,394.965 L 3375.88,394.835 L 3376.11,394.685 L 3376.32,394.516 L 3376.52,394.329 L 3376.71,394.126 L 3376.87,393.908 L 3377.02,393.676 L 3377.14,393.433 L 3377.24,393.18 L 3377.32,392.92 L 3377.38,392.653 L 3377.42,392.382 L 3377.43,392.109 L 3374.26,392.109 Z" style="fill:#000000;fill-rule:evenodd;fill-opacity:1;stroke:#000000;stroke-width:4px;stroke-linecap:butt;stroke-linejoin:miter;stroke-opacity:1;"/>
<text dominant-baseline="central" style="font-size:24px;font-style:normal;font-weight:normal;fill-opacity:1;stroke:none;font-family:sans-serif;fill:#000000" text-anchor="middle" x="1040.69" y="252.277"><tspan>+</tspan></text>
<text dominant-baseline="central" style="font-size:24px;font-style:normal;font-weight:normal;fill-opacity:1;stroke:none;font-family:sans-serif;fill:#000000" text-anchor="middle" x="2959.31" y="252.277"><tspan>+</tspan></text>
<path d="M 1795.47,248.677 L 2218.7,248.677" style="fill:none;fill-rule:evenodd;stroke:#000000;stroke-width:4px;stroke-linecap:butt;stroke-linejoin:miter;stroke-opacity:1"/>
<path d="M 2218.7,248.677 L 2200.37,238.097" style="fill:none;fill-rule:evenodd;stroke:#000000;stroke-width:4px;stroke-linecap:butt;stroke-linejoin:miter;stroke-opacity:1"/>
<path d="M 2218.7,248.677 L 2200.37,259.258" style="fill:none;fill-rule:evenodd;stroke:#000000;stroke-width:4px;stroke-linecap:butt;stroke-linejoin:miter;stroke-opacity:1"/>
</svg>