<svg xmlns="http://www.w3.org/2000/svg" xmlns:rdkit="http://www.rdkit.org/xml" xmlns:xlink="http://www.w3.org/1999/xlink" version="1.1" baseProfile="full" xml:space="preserve" width="4000px" height="500px" viewBox="0 0 4000 500">
<!-- END OF HEADER -->
<rect style="opacity:1.0;fill:#FFFFFF;stroke:none" width="4000" height="500" x="0" y="0"> </rect>
<path d="M 682.188,259.531 L 821.296,211.343" style="fill:none;fill-rule:evenodd;stroke:#FFFFAA;stroke-width:31.4px;stroke-linecap:butt;stroke-linejoin:miter;stroke-opacity:1"/>
<path d="M 1071.69,259.531 L 1210.8,211.343" style="fill:none;fill-rule:evenodd;stroke:#FFFFAA;stroke-width:31.4px;stroke-linecap:butt;stroke-linejoin:miter;stroke-opacity:1"/>
<path d="M 1615.07,369.945 L 1742.56,296.335" style="fill:none;fill-rule:evenodd;stroke:#FFCC99;stroke-width:31.4px;stroke-linecap:butt;stroke-linejoin:miter;stroke-opacity:1"/>
<path d="M 1742.56,296.335 L 1742.56,149.117" style="fill:none;fill-rule:evenodd;stroke:#FFCC99;stroke-width:31.4px;stroke-linecap:butt;stroke-linejoin:miter;stroke-opacity:1"/>
<path d="M 1742.56,296.335 L 1870.06,369.945" style="fill:none;fill-rule:evenodd;stroke:#FFCC99;stroke-width:31.4px;stroke-linecap:butt;stroke-linejoin:miter;stroke-opacity:1"/>
<path d="M 1742.56,149.117 L 1870.06,75.5083" style="fill:none;fill-rule:evenodd;stroke:#FFCC99;stroke-width:31.4px;stroke-linecap:butt;stroke-linejoin:miter;stroke-opacity:1"/>
<path d="M 1870.06,75.5083 L 1997.55,149.117" style="fill:none;fill-rule:evenodd;stroke:#FFCC99;stroke-width:31.4px;stroke-linecap:butt;stroke-linejoin:miter;stroke-opacity:1"/>
<path d="M 1997.55,149.117 L 1997.55,296.335" style="fill:none;fill-rule:evenodd;stroke:#FFCC99;stroke-width:31.4px;stroke-linecap:butt;stroke-linejoin:miter;stroke-opacity:1"/>
<path d="M 1997.55,296.335 L 2125.05,369.945" style="fill:none;fill-rule:evenodd;stroke:#FFCC99;stroke-width:31.4px;stroke-linecap:butt;stroke-linejoin:miter;stroke-opacity:1"/>
<path d="M 1997.55,296.335 L 1870.06,369.945" style="fill:none;fill-rule:evenodd;stroke:#FFCC99;stroke-width:31.4px;stroke-linecap:butt;stroke-linejoin:miter;stroke-opacity:1"/>
<path d="M 2931.67,287.785 L 3073.96,250" style="fill:none;fill-rule:evenodd;stroke:#FFCC99;stroke-width:31.4px;stroke-linecap:butt;stroke-linejoin:miter;stroke-opacity:1"/>
<path d="M 3073.96,250 L 3112.38,107.884" style="fill:none;fill-rule:evenodd;stroke:#FFCC99;stroke-width:31.4px;stroke-linecap:butt;stroke-linejoin:miter;stroke-opacity:1"/>
<path d="M 3073.96,250 L 3177.82,354.332" style="fill:none;fill-rule:evenodd;stroke:#FFCC99;stroke-width:31.4px;stroke-linecap:butt;stroke-linejoin:miter;stroke-opacity:1"/>
<path d="M 3112.38,107.884 L 3254.67,70.0993" style="fill:none;fill-rule:evenodd;stroke:#FFCC99;stroke-width:31.4px;stroke-linecap:butt;stroke-linejoin:miter;stroke-opacity:1"/>
<path d="M 3254.67,70.0993 L 3358.53,174.431" style="fill:none;fill-rule:evenodd;stroke:#FFCC99;stroke-width:31.4px;stroke-linecap:butt;stroke-linejoin:miter;stroke-opacity:1"/>
<path d="M 3358.53,174.431 L 3320.11,316.547" style="fill:none;fill-rule:evenodd;stroke:#FFCC99;stroke-width:31.4px;stroke-linecap:butt;stroke-linejoin:miter;stroke-opacity:1"/>
<path d="M 3320.11,316.547 L 3423.98,420.879" style="fill:none;fill-rule:evenodd;stroke:#FFCC99;stroke-width:31.4px;stroke-linecap:butt;stroke-linejoin:miter;stroke-opacity:1"/>
<path d="M 3320.11,316.547 L 3177.82,354.332" style="fill:none;fill-rule:evenodd;stroke:#FFCC99;stroke-width:31.4px;stroke-linecap:butt;stroke-linejoin:miter;stroke-opacity:1"/>
<ellipse cx="821.296" cy="211.563" rx="29.4436" ry="29.4436" style="fill:#FFFFAA;fill-rule:evenodd;stroke:#FFFFAA;stroke-width:1px;stroke-linecap:butt;stroke-linejoin:miter;stroke-opacity:1"/>
<ellipse cx="1210.8" cy="211.563" rx="29.4436" ry="29.4436" style="fill:#FFFFAA;fill-rule:evenodd;stroke:#FFFFAA;stroke-width:1px;stroke-linecap:butt;stroke-linejoin:miter;stroke-opacity:1"/>
<ellipse cx="1595.37" cy="377.025" rx="43.0436" ry="30.0379" style="fill:#FFCC99;fill-rule:evenodd;stroke:#FFCC99;stroke-width:1px;stroke-linecap:butt;stroke-linejoin:miter;stroke-opacity:1"/>
<ellipse cx="1742.56" cy="296.335" rx="29.4436" ry="29.4436" style="fill:#FFCC99;fill-rule:evenodd;stroke:#FFCC99;stroke-width:1px;stroke-linecap:butt;stroke-linejoin:miter;stroke-opacity:1"/>
<ellipse cx="1742.56" cy="149.117" rx="29.4436" ry="29.4436" style="fill:#FFCC99;fill-rule:evenodd;stroke:#FFCC99;stroke-width:1px;stroke-linecap:butt;stroke-linejoin:miter;stroke-opacity:1"/>
<ellipse cx="1870.06" cy="75.5083" rx="29.4436" ry="29.4436" style="fill:#FFCC99;fill-rule:evenodd;stroke:#FFCC99;stroke-width:1px;stroke-linecap:butt;stroke-linejoin:miter;stroke-opacity:1"/>
<ellipse cx="1997.55" cy="149.117" rx="29.4436" ry="29.4436" style="fill:#FFCC99;fill-rule:evenodd;stroke:#FFCC99;stroke-width:1px;stroke-linecap:butt;stroke-linejoin:miter;stroke-opacity:1"/>
<ellipse cx="1997.55" cy="296.335" rx="29.4436" ry="29.4436" style="fill:#FFCC99;fill-rule:evenodd;stroke:#FFCC99;stroke-width:1px;stroke-linecap:butt;stroke-linejoin:miter;stroke-opacity:1"/>
<ellipse cx="2137.83" cy="370.165" rx="36.4584" ry="29.4436" style="fill:#FFCC99;fill-rule:evenodd;stroke:#FFCC99;stroke-width:1px;stroke-linecap:butt;stroke-linejoin:miter;stroke-opacity:1"/>
<ellipse cx="1870.06" cy="369.945" rx="29.4436" ry="29.4436" style="fill:#FFCC99;fill-rule:evenodd;stroke:#FFCC99;stroke-width:1px;stroke-linecap:butt;stroke-linejoin:miter;stroke-opacity:1"/>
<ellipse cx="2827.81" cy="183.673" rx="29.4436" ry="29.4436" style="fill:#FFFFAA;fill-rule:evenodd;stroke:#FFFFAA;stroke-width:1px;stroke-linecap:butt;stroke-linejoin:miter;stroke-opacity:1"/>
<ellipse cx="2939.02" cy="287.71" rx="29.4436" ry="29.4436" style="fill:#FFCC99;fill-rule:evenodd;stroke:#FFCC99;stroke-width:1px;stroke-linecap:butt;stroke-linejoin:miter;stroke-opacity:1"/>
<ellipse cx="2898.75" cy="430.121" rx="29.4436" ry="29.4436" style="fill:#FFFFAA;fill-rule:evenodd;stroke:#FFFFAA;stroke-width:1px;stroke-linecap:butt;stroke-linejoin:miter;stroke-opacity:1"/>
<ellipse cx="3073.96" cy="250" rx="29.4436" ry="29.4436" style="fill:#FFCC99;fill-rule:evenodd;stroke:#FFCC99;stroke-width:1px;stroke-linecap:butt;stroke-linejoin:miter;stroke-opacity:1"/>
<ellipse cx="3112.38" cy="107.884" rx="29.4436" ry="29.4436" style="fill:#FFCC99;fill-rule:evenodd;stroke:#FFCC99;stroke-width:1px;stroke-linecap:butt;stroke-linejoin:miter;stroke-opacity:1"/>
<ellipse cx="3254.67" cy="70.0993" rx="29.4436" ry="29.4436" style="fill:#FFCC99;fill-rule:evenodd;stroke:#FFCC99;stroke-width:1px;stroke-linecap:butt;stroke-linejoin:miter;stroke-opacity:1"/>
<ellipse cx="3358.53" cy="174.431" rx="29.4436" ry="29.4436" style="fill:#FFCC99;fill-rule:evenodd;stroke:#FFCC99;stroke-width:1px;stroke-linecap:butt;stroke-linejoin:miter;stroke-opacity:1"/>
<ellipse cx="3320.11" cy="316.547" rx="29.4436" ry="29.4436" style="fill:#FFCC99;fill-rule:evenodd;stroke:#FFCC99;stroke-width:1px;stroke-linecap:butt;stroke-linejoin:miter;stroke-opacity:1"/>
<ellipse cx="3436.76" cy="421.099" rx="36.4584" ry="29.4436" style="fill:#FFCC99;fill-rule:evenodd;stroke:#FFCC99;stroke-width:1px;stroke-linecap:butt;stroke-linejoin:miter;stroke-opacity:1"/>
<ellipse cx="3177.82" cy="354.332" rx="29.4436" ry="29.4436" style="fill:#FFCC99;fill-rule:evenodd;stroke:#FFCC99;stroke-width:1px;stroke-linecap:butt;stroke-linejoin:miter;stroke-opacity:1"/>
<path class="bond-0" d="M 626.477,143.682 L 644.379,195.36" style="fill:none;fill-rule:evenodd;stroke:#FF0000;stroke-width:2.0px;stroke-linecap:butt;stroke-linejoin:miter;stroke-opacity:1"/>
<path class="bond-0" d="M 644.379,195.36 L 662.28,247.037" style="fill:none;fill-rule:evenodd;stroke:#CCCC00;stroke-width:2.0px;stroke-linecap:butt;stroke-linejoin:miter;stroke-opacity:1"/>
<path class="bond-0" d="M 654.299,134.045 L 672.2,185.722" style="fill:none;fill-rule:evenodd;stroke:#FF0000;stroke-width:2.0px;stroke-linecap:butt;stroke-linejoin:miter;stroke-opacity:1"/>
<path class="bond-0" d="M 672.2,185.722 L 690.102,237.4" style="fill:none;fill-rule:evenodd;stroke:#CCCC00;stroke-width:2.0px;stroke-linecap:butt;stroke-linejoin:miter;stroke-opacity:1"/>
<path class="bond-1" d="M 674.707,282.91 L 692.554,334.429" style="fill:none;fill-rule:evenodd;stroke:#CCCC00;stroke-width:2.0px;stroke-linecap:butt;stroke-linejoin:miter;stroke-opacity:1"/>
<path class="bond-1" d="M 692.554,334.429 L 710.401,385.948" style="fill:none;fill-rule:evenodd;stroke:#FF0000;stroke-width:2.0px;stroke-linecap:butt;stroke-linejoin:miter;stroke-opacity:1"/>
<path class="bond-1" d="M 702.529,273.273 L 720.375,324.792" style="fill:none;fill-rule:evenodd;stroke:#CCCC00;stroke-width:2.0px;stroke-linecap:butt;stroke-linejoin:miter;stroke-opacity:1"/>
<path class="bond-1" d="M 720.375,324.792 L 738.222,376.311" style="fill:none;fill-rule:evenodd;stroke:#FF0000;stroke-width:2.0px;stroke-linecap:butt;stroke-linejoin:miter;stroke-opacity:1"/>
<path class="bond-2" d="M 669.428,263.951 L 619.93,281.098" style="fill:none;fill-rule:evenodd;stroke:#CCCC00;stroke-width:2.0px;stroke-linecap:butt;stroke-linejoin:miter;stroke-opacity:1"/>
<path class="bond-2" d="M 619.93,281.098 L 570.432,298.245" style="fill:none;fill-rule:evenodd;stroke:#FF0000;stroke-width:2.0px;stroke-linecap:butt;stroke-linejoin:miter;stroke-opacity:1"/>
<path class="bond-3" d="M 694.949,255.111 L 749.951,236.057" style="fill:none;fill-rule:evenodd;stroke:#CCCC00;stroke-width:2.0px;stroke-linecap:butt;stroke-linejoin:miter;stroke-opacity:1"/>
<path class="bond-3" d="M 749.951,236.057 L 804.954,217.004" style="fill:none;fill-rule:evenodd;stroke:#FF0000;stroke-width:2.0px;stroke-linecap:butt;stroke-linejoin:miter;stroke-opacity:1"/>
<path class="bond-4" d="M 837.977,225.788 L 916.454,293.751" style="fill:none;fill-rule:evenodd;stroke:#FF0000;stroke-width:2.0px;stroke-linecap:butt;stroke-linejoin:miter;stroke-opacity:1"/>
<path class="bond-5" d="M 949.263,301.941 L 1004.32,282.87" style="fill:none;fill-rule:evenodd;stroke:#FF0000;stroke-width:2.0px;stroke-linecap:butt;stroke-linejoin:miter;stroke-opacity:1"/>
<path class="bond-5" d="M 1004.32,282.87 L 1059.37,263.798" style="fill:none;fill-rule:evenodd;stroke:#CCCC00;stroke-width:2.0px;stroke-linecap:butt;stroke-linejoin:miter;stroke-opacity:1"/>
<path class="bond-6" d="M 1064.21,282.91 L 1082.06,334.429" style="fill:none;fill-rule:evenodd;stroke:#CCCC00;stroke-width:2.0px;stroke-linecap:butt;stroke-linejoin:miter;stroke-opacity:1"/>
<path class="bond-6" d="M 1082.06,334.429 L 1099.9,385.948" style="fill:none;fill-rule:evenodd;stroke:#FF0000;stroke-width:2.0px;stroke-linecap:butt;stroke-linejoin:miter;stroke-opacity:1"/>
<path class="bond-6" d="M 1092.03,273.273 L 1109.88,324.792" style="fill:none;fill-rule:evenodd;stroke:#CCCC00;stroke-width:2.0px;stroke-linecap:butt;stroke-linejoin:miter;stroke-opacity:1"/>
<path class="bond-6" d="M 1109.88,324.792 L 1127.72,376.311" style="fill:none;fill-rule:evenodd;stroke:#FF0000;stroke-width:2.0px;stroke-linecap:butt;stroke-linejoin:miter;stroke-opacity:1"/>
<path class="bond-7" d="M 1065.52,241.731 L 1047.63,190.061" style="fill:none;fill-rule:evenodd;stroke:#CCCC00;stroke-width:2.0px;stroke-linecap:butt;stroke-linejoin:miter;stroke-opacity:1"/>
<path class="bond-7" d="M 1047.63,190.061 L 1029.73,138.392" style="fill:none;fill-rule:evenodd;stroke:#FF0000;stroke-width:2.0px;stroke-linecap:butt;stroke-linejoin:miter;stroke-opacity:1"/>
<path class="bond-8" d="M 1089.27,269.021 L 1144.27,249.968" style="fill:none;fill-rule:evenodd;stroke:#CCCC00;stroke-width:2.0px;stroke-linecap:butt;stroke-linejoin:miter;stroke-opacity:1"/>
<path class="bond-8" d="M 1144.27,249.968 L 1199.27,230.915" style="fill:none;fill-rule:evenodd;stroke:#FF0000;stroke-width:2.0px;stroke-linecap:butt;stroke-linejoin:miter;stroke-opacity:1"/>
<path class="bond-8" d="M 1079.63,241.2 L 1134.63,222.146" style="fill:none;fill-rule:evenodd;stroke:#CCCC00;stroke-width:2.0px;stroke-linecap:butt;stroke-linejoin:miter;stroke-opacity:1"/>
<path class="bond-8" d="M 1134.63,222.146 L 1189.64,203.093" style="fill:none;fill-rule:evenodd;stroke:#FF0000;stroke-width:2.0px;stroke-linecap:butt;stroke-linejoin:miter;stroke-opacity:1"/>
<path class="bond-9" d="M 1629.49,361.619 L 1686.03,328.977" style="fill:none;fill-rule:evenodd;stroke:#0000FF;stroke-width:2.0px;stroke-linecap:butt;stroke-linejoin:miter;stroke-opacity:1"/>
<path class="bond-9" d="M 1686.03,328.977 L 1742.56,296.335" style="fill:none;fill-rule:evenodd;stroke:#000000;stroke-width:2.0px;stroke-linecap:butt;stroke-linejoin:miter;stroke-opacity:1"/>
<path class="bond-10" d="M 1742.56,296.335 L 1742.56,149.117" style="fill:none;fill-rule:evenodd;stroke:#000000;stroke-width:2.0px;stroke-linecap:butt;stroke-linejoin:miter;stroke-opacity:1"/>
<path class="bond-10" d="M 1772.01,274.253 L 1772.01,171.2" style="fill:none;fill-rule:evenodd;stroke:#000000;stroke-width:2.0px;stroke-linecap:butt;stroke-linejoin:miter;stroke-opacity:1;stroke-dasharray:6,6"/>
<path class="bond-16" d="M 1742.56,296.335 L 1870.06,369.945" style="fill:none;fill-rule:evenodd;stroke:#000000;stroke-width:2.0px;stroke-linecap:butt;stroke-linejoin:miter;stroke-opacity:1"/>
<path class="bond-16" d="M 1776.41,281.878 L 1865.66,333.404" style="fill:none;fill-rule:evenodd;stroke:#000000;stroke-width:2.0px;stroke-linecap:butt;stroke-linejoin:miter;stroke-opacity:1;stroke-dasharray:6,6"/>
<path class="bond-11" d="M 1742.56,149.117 L 1799.1,116.476" style="fill:none;fill-rule:evenodd;stroke:#000000;stroke-width:2.0px;stroke-linecap:butt;stroke-linejoin:miter;stroke-opacity:1"/>
<path class="bond-11" d="M 1799.1,116.476 L 1855.64,83.834" style="fill:none;fill-rule:evenodd;stroke:#0000FF;stroke-width:2.0px;stroke-linecap:butt;stroke-linejoin:miter;stroke-opacity:1"/>
<path class="bond-11" d="M 1774.25,164.824 L 1813.82,141.975" style="fill:none;fill-rule:evenodd;stroke:#000000;stroke-width:2.0px;stroke-linecap:butt;stroke-linejoin:miter;stroke-opacity:1;stroke-dasharray:6,6"/>
<path class="bond-11" d="M 1813.82,141.975 L 1853.4,119.125" style="fill:none;fill-rule:evenodd;stroke:#0000FF;stroke-width:2.0px;stroke-linecap:butt;stroke-linejoin:miter;stroke-opacity:1;stroke-dasharray:6,6"/>
<path class="bond-12" d="M 1884.48,83.834 L 1941.02,116.476" style="fill:none;fill-rule:evenodd;stroke:#0000FF;stroke-width:2.0px;stroke-linecap:butt;stroke-linejoin:miter;stroke-opacity:1"/>
<path class="bond-12" d="M 1941.02,116.476 L 1997.55,149.117" style="fill:none;fill-rule:evenodd;stroke:#000000;stroke-width:2.0px;stroke-linecap:butt;stroke-linejoin:miter;stroke-opacity:1"/>
<path class="bond-12" d="M 1886.72,119.125 L 1926.29,141.975" style="fill:none;fill-rule:evenodd;stroke:#0000FF;stroke-width:2.0px;stroke-linecap:butt;stroke-linejoin:miter;stroke-opacity:1;stroke-dasharray:6,6"/>
<path class="bond-12" d="M 1926.29,141.975 L 1965.87,164.824" style="fill:none;fill-rule:evenodd;stroke:#000000;stroke-width:2.0px;stroke-linecap:butt;stroke-linejoin:miter;stroke-opacity:1;stroke-dasharray:6,6"/>
<path class="bond-13" d="M 1997.55,149.117 L 1997.55,296.335" style="fill:none;fill-rule:evenodd;stroke:#000000;stroke-width:2.0px;stroke-linecap:butt;stroke-linejoin:miter;stroke-opacity:1"/>
<path class="bond-13" d="M 1968.11,171.2 L 1968.11,274.253" style="fill:none;fill-rule:evenodd;stroke:#000000;stroke-width:2.0px;stroke-linecap:butt;stroke-linejoin:miter;stroke-opacity:1;stroke-dasharray:6,6"/>
<path class="bond-14" d="M 1997.55,296.335 L 2052.96,328.325" style="fill:none;fill-rule:evenodd;stroke:#000000;stroke-width:2.0px;stroke-linecap:butt;stroke-linejoin:miter;stroke-opacity:1"/>
<path class="bond-14" d="M 2052.96,328.325 L 2108.37,360.314" style="fill:none;fill-rule:evenodd;stroke:#FF0000;stroke-width:2.0px;stroke-linecap:butt;stroke-linejoin:miter;stroke-opacity:1"/>
<path class="bond-15" d="M 1997.55,296.335 L 1870.06,369.945" style="fill:none;fill-rule:evenodd;stroke:#000000;stroke-width:2.0px;stroke-linecap:butt;stroke-linejoin:miter;stroke-opacity:1"/>
<path class="bond-15" d="M 1963.71,281.878 L 1874.46,333.404" style="fill:none;fill-rule:evenodd;stroke:#000000;stroke-width:2.0px;stroke-linecap:butt;stroke-linejoin:miter;stroke-opacity:1;stroke-dasharray:6,6"/>
<path class="bond-17" d="M 2834.05,210.595 L 2870.73,247.437" style="fill:none;fill-rule:evenodd;stroke:#FF0000;stroke-width:2.0px;stroke-linecap:butt;stroke-linejoin:miter;stroke-opacity:1"/>
<path class="bond-17" d="M 2870.73,247.437 L 2907.41,284.28" style="fill:none;fill-rule:evenodd;stroke:#0000FF;stroke-width:2.0px;stroke-linecap:butt;stroke-linejoin:miter;stroke-opacity:1"/>
<path class="bond-17" d="M 2854.92,189.822 L 2891.6,226.664" style="fill:none;fill-rule:evenodd;stroke:#FF0000;stroke-width:2.0px;stroke-linecap:butt;stroke-linejoin:miter;stroke-opacity:1"/>
<path class="bond-17" d="M 2891.6,226.664 L 2928.27,263.507" style="fill:none;fill-rule:evenodd;stroke:#0000FF;stroke-width:2.0px;stroke-linecap:butt;stroke-linejoin:miter;stroke-opacity:1"/>
<path class="bond-18" d="M 2926.85,305.625 L 2912.42,358.994" style="fill:none;fill-rule:evenodd;stroke:#0000FF;stroke-width:2.0px;stroke-linecap:butt;stroke-linejoin:miter;stroke-opacity:1"/>
<path class="bond-18" d="M 2912.42,358.994 L 2897.99,412.362" style="fill:none;fill-rule:evenodd;stroke:#FF0000;stroke-width:2.0px;stroke-linecap:butt;stroke-linejoin:miter;stroke-opacity:1"/>
<path class="bond-19" d="M 2960.8,280.05 L 3017.38,265.025" style="fill:none;fill-rule:evenodd;stroke:#0000FF;stroke-width:2.0px;stroke-linecap:butt;stroke-linejoin:miter;stroke-opacity:1"/>
<path class="bond-19" d="M 3017.38,265.025 L 3073.96,250" style="fill:none;fill-rule:evenodd;stroke:#000000;stroke-width:2.0px;stroke-linecap:butt;stroke-linejoin:miter;stroke-opacity:1"/>
<path class="bond-20" d="M 3073.96,250 L 3112.38,107.884" style="fill:none;fill-rule:evenodd;stroke:#000000;stroke-width:2.0px;stroke-linecap:butt;stroke-linejoin:miter;stroke-opacity:1"/>
<path class="bond-20" d="M 3108.14,236.367 L 3135.04,136.885" style="fill:none;fill-rule:evenodd;stroke:#000000;stroke-width:2.0px;stroke-linecap:butt;stroke-linejoin:miter;stroke-opacity:1;stroke-dasharray:6,6"/>
<path class="bond-26" d="M 3073.96,250 L 3177.82,354.332" style="fill:none;fill-rule:evenodd;stroke:#000000;stroke-width:2.0px;stroke-linecap:butt;stroke-linejoin:miter;stroke-opacity:1"/>
<path class="bond-26" d="M 3110.4,244.877 L 3183.11,317.909" style="fill:none;fill-rule:evenodd;stroke:#000000;stroke-width:2.0px;stroke-linecap:butt;stroke-linejoin:miter;stroke-opacity:1;stroke-dasharray:6,6"/>
<path class="bond-21" d="M 3112.38,107.884 L 3176.31,90.9063" style="fill:none;fill-rule:evenodd;stroke:#000000;stroke-width:2.0px;stroke-linecap:butt;stroke-linejoin:miter;stroke-opacity:1"/>
<path class="bond-21" d="M 3176.31,90.9063 L 3240.24,73.9287" style="fill:none;fill-rule:evenodd;stroke:#0000FF;stroke-width:2.0px;stroke-linecap:butt;stroke-linejoin:miter;stroke-opacity:1"/>
<path class="bond-21" d="M 3139.12,131.248 L 3183.87,119.364" style="fill:none;fill-rule:evenodd;stroke:#000000;stroke-width:2.0px;stroke-linecap:butt;stroke-linejoin:miter;stroke-opacity:1;stroke-dasharray:6,6"/>
<path class="bond-21" d="M 3183.87,119.364 L 3228.62,107.479" style="fill:none;fill-rule:evenodd;stroke:#0000FF;stroke-width:2.0px;stroke-linecap:butt;stroke-linejoin:miter;stroke-opacity:1;stroke-dasharray:6,6"/>
<path class="bond-22" d="M 3269.09,84.5845 L 3313.81,129.508" style="fill:none;fill-rule:evenodd;stroke:#0000FF;stroke-width:2.0px;stroke-linecap:butt;stroke-linejoin:miter;stroke-opacity:1"/>
<path class="bond-22" d="M 3313.81,129.508 L 3358.53,174.431" style="fill:none;fill-rule:evenodd;stroke:#000000;stroke-width:2.0px;stroke-linecap:butt;stroke-linejoin:miter;stroke-opacity:1"/>
<path class="bond-22" d="M 3261.64,118.835 L 3292.94,150.281" style="fill:none;fill-rule:evenodd;stroke:#0000FF;stroke-width:2.0px;stroke-linecap:butt;stroke-linejoin:miter;stroke-opacity:1;stroke-dasharray:6,6"/>
<path class="bond-22" d="M 3292.94,150.281 L 3324.25,181.727" style="fill:none;fill-rule:evenodd;stroke:#000000;stroke-width:2.0px;stroke-linecap:butt;stroke-linejoin:miter;stroke-opacity:1;stroke-dasharray:6,6"/>
<path class="bond-23" d="M 3358.53,174.431 L 3320.11,316.547" style="fill:none;fill-rule:evenodd;stroke:#000000;stroke-width:2.0px;stroke-linecap:butt;stroke-linejoin:miter;stroke-opacity:1"/>
<path class="bond-23" d="M 3324.34,188.064 L 3297.45,287.545" style="fill:none;fill-rule:evenodd;stroke:#000000;stroke-width:2.0px;stroke-linecap:butt;stroke-linejoin:miter;stroke-opacity:1;stroke-dasharray:6,6"/>
<path class="bond-24" d="M 3320.11,316.547 L 3363.7,360.335" style="fill:none;fill-rule:evenodd;stroke:#000000;stroke-width:2.0px;stroke-linecap:butt;stroke-linejoin:miter;stroke-opacity:1"/>
<path class="bond-24" d="M 3363.7,360.335 L 3407.3,404.123" style="fill:none;fill-rule:evenodd;stroke:#FF0000;stroke-width:2.0px;stroke-linecap:butt;stroke-linejoin:miter;stroke-opacity:1"/>
<path class="bond-25" d="M 3320.11,316.547 L 3177.82,354.332" style="fill:none;fill-rule:evenodd;stroke:#000000;stroke-width:2.0px;stroke-linecap:butt;stroke-linejoin:miter;stroke-opacity:1"/>
<path class="bond-25" d="M 3291.21,293.757 L 3191.61,320.207" style="fill:none;fill-rule:evenodd;stroke:#000000;stroke-width:2.0px;stroke-linecap:butt;stroke-linejoin:miter;stroke-opacity:1;stroke-dasharray:6,6"/>
<path class="atom-0" d="M 621 120.503 Q 621 113.703, 624.36 109.903 Q 627.72 106.103, 634 106.103 Q 640.28 106.103, 643.64 109.903 Q 647 113.703, 647 120.503 Q 647 127.383, 643.6 131.303 Q 640.2 135.183, 634 135.183 Q 627.76 135.183, 624.36 131.303 Q 621 127.423, 621 120.503 M 634 131.983 Q 638.32 131.983, 640.64 129.103 Q 643 126.183, 643 120.503 Q 643 114.943, 640.64 112.143 Q 638.32 109.303, 634 109.303 Q 629.68 109.303, 627.32 112.103 Q 625 114.903, 625 120.503 Q 625 126.223, 627.32 129.103 Q 629.68 131.983, 634 131.983 " fill="#FF0000"/>
<path class="atom-1" d="M 674.188 269.251 Q 674.508 269.371, 675.828 269.931 Q 677.148 270.491, 678.588 270.851 Q 680.068 271.171, 681.508 271.171 Q 684.188 271.171, 685.748 269.891 Q 687.308 268.571, 687.308 266.291 Q 687.308 264.731, 686.508 263.771 Q 685.748 262.811, 684.548 262.291 Q 683.348 261.771, 681.348 261.171 Q 678.828 260.411, 677.308 259.691 Q 675.828 258.971, 674.748 257.451 Q 673.708 255.931, 673.708 253.371 Q 673.708 249.811, 676.108 247.611 Q 678.548 245.411, 683.348 245.411 Q 686.628 245.411, 690.348 246.971 L 689.428 250.051 Q 686.028 248.651, 683.468 248.651 Q 680.708 248.651, 679.188 249.811 Q 677.668 250.931, 677.708 252.891 Q 677.708 254.411, 678.468 255.331 Q 679.268 256.251, 680.388 256.771 Q 681.548 257.291, 683.468 257.891 Q 686.028 258.691, 687.548 259.491 Q 689.068 260.291, 690.148 261.931 Q 691.268 263.531, 691.268 266.291 Q 691.268 270.211, 688.628 272.331 Q 686.028 274.411, 681.668 274.411 Q 679.148 274.411, 677.228 273.851 Q 675.348 273.331, 673.108 272.411 L 674.188 269.251 " fill="#CCCC00"/>
<path class="atom-2" d="M 717.377 398.719 Q 717.377 391.919, 720.737 388.119 Q 724.097 384.319, 730.377 384.319 Q 736.657 384.319, 740.017 388.119 Q 743.377 391.919, 743.377 398.719 Q 743.377 405.599, 739.977 409.519 Q 736.577 413.399, 730.377 413.399 Q 724.137 413.399, 720.737 409.519 Q 717.377 405.639, 717.377 398.719 M 730.377 410.199 Q 734.697 410.199, 737.017 407.319 Q 739.377 404.399, 739.377 398.719 Q 739.377 393.159, 737.017 390.359 Q 734.697 387.519, 730.377 387.519 Q 726.057 387.519, 723.697 390.319 Q 721.377 393.119, 721.377 398.719 Q 721.377 404.439, 723.697 407.319 Q 726.057 410.199, 730.377 410.199 " fill="#FF0000"/>
<path class="atom-3" d="M 530.08 307.799 Q 530.08 300.999, 533.44 297.199 Q 536.8 293.399, 543.08 293.399 Q 549.36 293.399, 552.72 297.199 Q 556.08 300.999, 556.08 307.799 Q 556.08 314.679, 552.68 318.599 Q 549.28 322.479, 543.08 322.479 Q 536.84 322.479, 533.44 318.599 Q 530.08 314.719, 530.08 307.799 M 543.08 319.279 Q 547.4 319.279, 549.72 316.399 Q 552.08 313.479, 552.08 307.799 Q 552.08 302.239, 549.72 299.439 Q 547.4 296.599, 543.08 296.599 Q 538.76 296.599, 536.4 299.399 Q 534.08 302.199, 534.08 307.799 Q 534.08 313.519, 536.4 316.399 Q 538.76 319.279, 543.08 319.279 " fill="#FF0000"/>
<path class="atom-3" d="M 557.4 298.022 L 567.089 298.022 L 567.089 300.134 L 557.4 300.134 L 557.4 298.022 " fill="#FF0000"/>
<path class="atom-4" d="M 808.296 211.423 Q 808.296 204.623, 811.656 200.823 Q 815.016 197.023, 821.296 197.023 Q 827.576 197.023, 830.936 200.823 Q 834.296 204.623, 834.296 211.423 Q 834.296 218.303, 830.896 222.223 Q 827.496 226.103, 821.296 226.103 Q 815.056 226.103, 811.656 222.223 Q 808.296 218.343, 808.296 211.423 M 821.296 222.903 Q 825.616 222.903, 827.936 220.023 Q 830.296 217.103, 830.296 211.423 Q 830.296 205.863, 827.936 203.063 Q 825.616 200.223, 821.296 200.223 Q 816.976 200.223, 814.616 203.023 Q 812.296 205.823, 812.296 211.423 Q 812.296 217.143, 814.616 220.023 Q 816.976 222.903, 821.296 222.903 " fill="#FF0000"/>
<path class="atom-5" d="M 919.583 307.799 Q 919.583 300.999, 922.943 297.199 Q 926.303 293.399, 932.583 293.399 Q 938.863 293.399, 942.223 297.199 Q 945.583 300.999, 945.583 307.799 Q 945.583 314.679, 942.183 318.599 Q 938.783 322.479, 932.583 322.479 Q 926.343 322.479, 922.943 318.599 Q 919.583 314.719, 919.583 307.799 M 932.583 319.279 Q 936.903 319.279, 939.223 316.399 Q 941.583 313.479, 941.583 307.799 Q 941.583 302.239, 939.223 299.439 Q 936.903 296.599, 932.583 296.599 Q 928.263 296.599, 925.903 299.399 Q 923.583 302.199, 923.583 307.799 Q 923.583 313.519, 925.903 316.399 Q 928.263 319.279, 932.583 319.279 " fill="#FF0000"/>
<path class="atom-6" d="M 1063.69 269.251 Q 1064.01 269.371, 1065.33 269.931 Q 1066.65 270.491, 1068.09 270.851 Q 1069.57 271.171, 1071.01 271.171 Q 1073.69 271.171, 1075.25 269.891 Q 1076.81 268.571, 1076.81 266.291 Q 1076.81 264.731, 1076.01 263.771 Q 1075.25 262.811, 1074.05 262.291 Q 1072.85 261.771, 1070.85 261.171 Q 1068.33 260.411, 1066.81 259.691 Q 1065.33 258.971, 1064.25 257.451 Q 1063.21 255.931, 1063.21 253.371 Q 1063.21 249.811, 1065.61 247.611 Q 1068.05 245.411, 1072.85 245.411 Q 1076.13 245.411, 1079.85 246.971 L 1078.93 250.051 Q 1075.53 248.651, 1072.97 248.651 Q 1070.21 248.651, 1068.69 249.811 Q 1067.17 250.931, 1067.21 252.891 Q 1067.21 254.411, 1067.97 255.331 Q 1068.77 256.251, 1069.89 256.771 Q 1071.05 257.291, 1072.97 257.891 Q 1075.53 258.691, 1077.05 259.491 Q 1078.57 260.291, 1079.65 261.931 Q 1080.77 263.531, 1080.77 266.291 Q 1080.77 270.211, 1078.13 272.331 Q 1075.53 274.411, 1071.17 274.411 Q 1068.65 274.411, 1066.73 273.851 Q 1064.85 273.331, 1062.61 272.411 L 1063.69 269.251 " fill="#CCCC00"/>
<path class="atom-7" d="M 1106.88 398.719 Q 1106.88 391.919, 1110.24 388.119 Q 1113.6 384.319, 1119.88 384.319 Q 1126.16 384.319, 1129.52 388.119 Q 1132.88 391.919, 1132.88 398.719 Q 1132.88 405.599, 1129.48 409.519 Q 1126.08 413.399, 1119.88 413.399 Q 1113.64 413.399, 1110.24 409.519 Q 1106.88 405.639, 1106.88 398.719 M 1119.88 410.199 Q 1124.2 410.199, 1126.52 407.319 Q 1128.88 404.399, 1128.88 398.719 Q 1128.88 393.159, 1126.52 390.359 Q 1124.2 387.519, 1119.88 387.519 Q 1115.56 387.519, 1113.2 390.319 Q 1110.88 393.119, 1110.88 398.719 Q 1110.88 404.439, 1113.2 407.319 Q 1115.56 410.199, 1119.88 410.199 " fill="#FF0000"/>
<path class="atom-8" d="M 1010.5 120.503 Q 1010.5 113.703, 1013.86 109.903 Q 1017.22 106.103, 1023.5 106.103 Q 1029.78 106.103, 1033.14 109.903 Q 1036.5 113.703, 1036.5 120.503 Q 1036.5 127.383, 1033.1 131.303 Q 1029.7 135.183, 1023.5 135.183 Q 1017.26 135.183, 1013.86 131.303 Q 1010.5 127.423, 1010.5 120.503 M 1023.5 131.983 Q 1027.82 131.983, 1030.14 129.103 Q 1032.5 126.183, 1032.5 120.503 Q 1032.5 114.943, 1030.14 112.143 Q 1027.82 109.303, 1023.5 109.303 Q 1019.18 109.303, 1016.82 112.103 Q 1014.5 114.903, 1014.5 120.503 Q 1014.5 126.223, 1016.82 129.103 Q 1019.18 131.983, 1023.5 131.983 " fill="#FF0000"/>
<path class="atom-8" d="M 1037.82 110.725 L 1047.51 110.725 L 1047.51 112.837 L 1037.82 112.837 L 1037.82 110.725 " fill="#FF0000"/>
<path class="atom-9" d="M 1197.8 211.423 Q 1197.8 204.623, 1201.16 200.823 Q 1204.52 197.023, 1210.8 197.023 Q 1217.08 197.023, 1220.44 200.823 Q 1223.8 204.623, 1223.8 211.423 Q 1223.8 218.303, 1220.4 222.223 Q 1217 226.103, 1210.8 226.103 Q 1204.56 226.103, 1201.16 222.223 Q 1197.8 218.343, 1197.8 211.423 M 1210.8 222.903 Q 1215.12 222.903, 1217.44 220.023 Q 1219.8 217.103, 1219.8 211.423 Q 1219.8 205.863, 1217.44 203.063 Q 1215.12 200.223, 1210.8 200.223 Q 1206.48 200.223, 1204.12 203.023 Q 1201.8 205.823, 1201.8 211.423 Q 1201.8 217.143, 1204.12 220.023 Q 1206.48 222.903, 1210.8 222.903 " fill="#FF0000"/>
<path class="atom-10" d="M 1564.94 355.785 L 1568.78 355.785 L 1568.78 367.825 L 1583.26 367.825 L 1583.26 355.785 L 1587.1 355.785 L 1587.1 384.105 L 1583.26 384.105 L 1583.26 371.025 L 1568.78 371.025 L 1568.78 384.105 L 1564.94 384.105 L 1564.94 355.785 " fill="#0000FF"/>
<path class="atom-10" d="M 1588.47 383.111 Q 1589.16 381.342, 1590.79 380.365 Q 1592.43 379.362, 1594.7 379.362 Q 1597.52 379.362, 1599.11 380.893 Q 1600.69 382.425, 1600.69 385.144 Q 1600.69 387.916, 1598.63 390.503 Q 1596.6 393.09, 1592.38 396.153 L 1601.01 396.153 L 1601.01 398.265 L 1588.42 398.265 L 1588.42 396.496 Q 1591.9 394.014, 1593.96 392.166 Q 1596.05 390.318, 1597.05 388.655 Q 1598.05 386.992, 1598.05 385.276 Q 1598.05 383.481, 1597.15 382.477 Q 1596.26 381.474, 1594.7 381.474 Q 1593.19 381.474, 1592.19 382.081 Q 1591.19 382.689, 1590.48 384.035 L 1588.47 383.111 " fill="#0000FF"/>
<path class="atom-10" d="M 1608.81 355.785 L 1618.09 370.785 Q 1619.01 372.265, 1620.49 374.945 Q 1621.97 377.625, 1622.05 377.785 L 1622.05 355.785 L 1625.81 355.785 L 1625.81 384.105 L 1621.93 384.105 L 1611.97 367.705 Q 1610.81 365.785, 1609.57 363.585 Q 1608.37 361.385, 1608.01 360.705 L 1608.01 384.105 L 1604.33 384.105 L 1604.33 355.785 L 1608.81 355.785 " fill="#0000FF"/>
<path class="atom-13" d="M 1863.8 61.3483 L 1873.08 76.3483 Q 1874 77.8283, 1875.48 80.5083 Q 1876.96 83.1883, 1877.04 83.3483 L 1877.04 61.3483 L 1880.8 61.3483 L 1880.8 89.6683 L 1876.92 89.6683 L 1866.96 73.2683 Q 1865.8 71.3483, 1864.56 69.1483 Q 1863.36 66.9483, 1863 66.2683 L 1863 89.6683 L 1859.32 89.6683 L 1859.32 61.3483 L 1863.8 61.3483 " fill="#0000FF"/>
<path class="atom-16" d="M 2112.05 370.025 Q 2112.05 363.225, 2115.41 359.425 Q 2118.77 355.625, 2125.05 355.625 Q 2131.33 355.625, 2134.69 359.425 Q 2138.05 363.225, 2138.05 370.025 Q 2138.05 376.905, 2134.65 380.825 Q 2131.25 384.705, 2125.05 384.705 Q 2118.81 384.705, 2115.41 380.825 Q 2112.05 376.945, 2112.05 370.025 M 2125.05 381.505 Q 2129.37 381.505, 2131.69 378.625 Q 2134.05 375.705, 2134.05 370.025 Q 2134.05 364.465, 2131.69 361.665 Q 2129.37 358.825, 2125.05 358.825 Q 2120.73 358.825, 2118.37 361.625 Q 2116.05 364.425, 2116.05 370.025 Q 2116.05 375.745, 2118.37 378.625 Q 2120.73 381.505, 2125.05 381.505 " fill="#FF0000"/>
<path class="atom-16" d="M 2141.45 355.945 L 2145.29 355.945 L 2145.29 367.985 L 2159.77 367.985 L 2159.77 355.945 L 2163.61 355.945 L 2163.61 384.265 L 2159.77 384.265 L 2159.77 371.185 L 2145.29 371.185 L 2145.29 384.265 L 2141.45 384.265 L 2141.45 355.945 " fill="#FF0000"/>
<path class="atom-18" d="M 2814.81 183.533 Q 2814.81 176.733, 2818.17 172.933 Q 2821.53 169.133, 2827.81 169.133 Q 2834.09 169.133, 2837.45 172.933 Q 2840.81 176.733, 2840.81 183.533 Q 2840.81 190.413, 2837.41 194.333 Q 2834.01 198.213, 2827.81 198.213 Q 2821.57 198.213, 2818.17 194.333 Q 2814.81 190.453, 2814.81 183.533 M 2827.81 195.013 Q 2832.13 195.013, 2834.45 192.133 Q 2836.81 189.213, 2836.81 183.533 Q 2836.81 177.973, 2834.45 175.173 Q 2832.13 172.333, 2827.81 172.333 Q 2823.49 172.333, 2821.13 175.133 Q 2818.81 177.933, 2818.81 183.533 Q 2818.81 189.253, 2821.13 192.133 Q 2823.49 195.013, 2827.81 195.013 " fill="#FF0000"/>
<path class="atom-19" d="M 2925.41 273.625 L 2934.69 288.625 Q 2935.61 290.105, 2937.09 292.785 Q 2938.57 295.465, 2938.65 295.625 L 2938.65 273.625 L 2942.41 273.625 L 2942.41 301.945 L 2938.53 301.945 L 2928.57 285.545 Q 2927.41 283.625, 2926.17 281.425 Q 2924.97 279.225, 2924.61 278.545 L 2924.61 301.945 L 2920.93 301.945 L 2920.93 273.625 L 2925.41 273.625 " fill="#0000FF"/>
<path class="atom-19" d="M 2944.79 278.729 L 2949.78 278.729 L 2949.78 273.476 L 2951.99 273.476 L 2951.99 278.729 L 2957.12 278.729 L 2957.12 280.63 L 2951.99 280.63 L 2951.99 285.91 L 2949.78 285.91 L 2949.78 280.63 L 2944.79 280.63 L 2944.79 278.729 " fill="#0000FF"/>
<path class="atom-20" d="M 2880.25 429.981 Q 2880.25 423.181, 2883.61 419.381 Q 2886.97 415.581, 2893.25 415.581 Q 2899.53 415.581, 2902.89 419.381 Q 2906.25 423.181, 2906.25 429.981 Q 2906.25 436.861, 2902.85 440.781 Q 2899.45 444.661, 2893.25 444.661 Q 2887.01 444.661, 2883.61 440.781 Q 2880.25 436.901, 2880.25 429.981 M 2893.25 441.461 Q 2897.57 441.461, 2899.89 438.581 Q 2902.25 435.661, 2902.25 429.981 Q 2902.25 424.421, 2899.89 421.621 Q 2897.57 418.781, 2893.25 418.781 Q 2888.93 418.781, 2886.57 421.581 Q 2884.25 424.381, 2884.25 429.981 Q 2884.25 435.701, 2886.57 438.581 Q 2888.93 441.461, 2893.25 441.461 " fill="#FF0000"/>
<path class="atom-20" d="M 2907.57 420.203 L 2917.26 420.203 L 2917.26 422.315 L 2907.57 422.315 L 2907.57 420.203 " fill="#FF0000"/>
<path class="atom-23" d="M 3248.41 55.9393 L 3257.69 70.9393 Q 3258.61 72.4193, 3260.09 75.0993 Q 3261.57 77.7793, 3261.65 77.9393 L 3261.65 55.9393 L 3265.41 55.9393 L 3265.41 84.2593 L 3261.53 84.2593 L 3251.57 67.8593 Q 3250.41 65.9393, 3249.17 63.7393 Q 3247.97 61.5393, 3247.61 60.8593 L 3247.61 84.2593 L 3243.93 84.2593 L 3243.93 55.9393 L 3248.41 55.9393 " fill="#0000FF"/>
<path class="atom-26" d="M 3410.98 420.959 Q 3410.98 414.159, 3414.34 410.359 Q 3417.7 406.559, 3423.98 406.559 Q 3430.26 406.559, 3433.62 410.359 Q 3436.98 414.159, 3436.98 420.959 Q 3436.98 427.839, 3433.58 431.759 Q 3430.18 435.639, 3423.98 435.639 Q 3417.74 435.639, 3414.34 431.759 Q 3410.98 427.879, 3410.98 420.959 M 3423.98 432.439 Q 3428.3 432.439, 3430.62 429.559 Q 3432.98 426.639, 3432.98 420.959 Q 3432.98 415.399, 3430.62 412.599 Q 3428.3 409.759, 3423.98 409.759 Q 3419.66 409.759, 3417.3 412.559 Q 3414.98 415.359, 3414.98 420.959 Q 3414.98 426.679, 3417.3 429.559 Q 3419.66 432.439, 3423.98 432.439 " fill="#FF0000"/>
<path class="atom-26" d="M 3440.38 406.879 L 3444.22 406.879 L 3444.22 418.919 L 3458.7 418.919 L 3458.7 406.879 L 3462.54 406.879 L 3462.54 435.199 L 3458.7 435.199 L 3458.7 422.119 L 3444.22 422.119 L 3444.22 435.199 L 3440.38 435.199 L 3440.38 406.879 " fill="#FF0000"/>
<path class="atom-28" d="M 2440.89 129.459 L 2444.69 129.459 L 2444.69 157.779 L 2440.89 157.779 L 2440.89 129.459 M 2456.61 129.459 L 2461.81 129.459 L 2450.61 142.339 L 2462.69 157.779 L 2457.65 157.779 L 2445.57 142.499 L 2456.61 129.459 " fill="#000000"/>
<path class="atom-28" d="M 2465.07 134.564 L 2470.06 134.564 L 2470.06 129.31 L 2472.28 129.31 L 2472.28 134.564 L 2477.4 134.564 L 2477.4 136.465 L 2472.28 136.465 L 2472.28 141.745 L 2470.06 141.745 L 2470.06 136.465 L 2465.07 136.465 L 2465.07 134.564 " fill="#000000"/>
<path class="note" d="M 832.61 162.854 Q 833.99 163.254, 834.65 164.154 Q 835.33 165.034, 835.33 166.434 Q 835.33 167.634, 834.73 168.574 Q 834.13 169.494, 833.03 170.014 Q 831.93 170.514, 830.49 170.514 Q 828.97 170.514, 827.83 169.994 Q 826.71 169.454, 825.81 168.374 L 826.95 167.214 Q 827.83 168.174, 828.57 168.554 Q 829.31 168.914, 830.49 168.914 Q 831.77 168.914, 832.55 168.234 Q 833.33 167.534, 833.33 166.414 Q 833.33 164.974, 832.51 164.334 Q 831.71 163.674, 829.97 163.674 L 828.95 163.674 L 828.95 162.234 L 829.85 162.234 Q 831.39 162.214, 832.21 161.554 Q 833.03 160.874, 833.03 159.614 Q 833.03 158.694, 832.35 158.154 Q 831.67 157.594, 830.51 157.594 Q 829.33 157.594, 828.59 158.014 Q 827.87 158.434, 827.31 159.494 L 825.93 158.754 Q 826.43 157.574, 827.63 156.794 Q 828.83 155.994, 830.51 155.994 Q 832.59 155.994, 833.81 156.974 Q 835.03 157.954, 835.03 159.614 Q 835.03 160.754, 834.41 161.574 Q 833.79 162.394, 832.61 162.854 " fill="#000000"/>
<path class="note" d="M 1253.68 200.8 L 1256.78 200.8 L 1256.78 190.22 L 1253.36 191.28 L 1252.9 190.1 L 1257.24 188.16 L 1258.66 188.4 L 1258.66 200.8 L 1261.44 200.8 L 1261.44 202.4 L 1253.68 202.4 L 1253.68 200.8 " fill="#000000"/>
<path class="note" d="M 1610.34 414.697 Q 1610.86 413.357, 1612.1 412.617 Q 1613.34 411.857, 1615.06 411.857 Q 1617.2 411.857, 1618.4 413.017 Q 1619.6 414.177, 1619.6 416.237 Q 1619.6 418.337, 1618.04 420.297 Q 1616.5 422.257, 1613.3 424.577 L 1619.84 424.577 L 1619.84 426.177 L 1610.3 426.177 L 1610.3 424.837 Q 1612.94 422.957, 1614.5 421.557 Q 1616.08 420.157, 1616.84 418.897 Q 1617.6 417.637, 1617.6 416.337 Q 1617.6 414.977, 1616.92 414.217 Q 1616.24 413.457, 1615.06 413.457 Q 1613.92 413.457, 1613.16 413.917 Q 1612.4 414.377, 1611.86 415.397 L 1610.34 414.697 " fill="#000000"/>
<path class="note" d="M 1725.06 286.287 L 1726.76 286.287 L 1726.76 287.887 L 1725.06 287.887 L 1725.06 291.147 L 1723.18 291.147 L 1723.18 287.887 L 1715.86 287.887 L 1715.86 286.627 L 1722.06 276.987 L 1725.06 276.987 L 1725.06 286.287 M 1718.18 286.287 L 1723.18 286.287 L 1723.18 278.267 L 1718.18 286.287 " fill="#000000"/>
<path class="note" d="M 1721.66 135.069 Q 1722.9 135.069, 1723.92 135.609 Q 1724.94 136.129, 1725.52 137.129 Q 1726.1 138.109, 1726.1 139.449 Q 1726.1 140.909, 1725.38 141.969 Q 1724.68 143.009, 1723.52 143.549 Q 1722.36 144.089, 1721.04 144.089 Q 1719.74 144.089, 1718.54 143.609 Q 1717.34 143.129, 1716.52 142.209 L 1717.72 140.969 Q 1718.38 141.689, 1719.28 142.089 Q 1720.18 142.469, 1721.1 142.469 Q 1722.36 142.469, 1723.22 141.689 Q 1724.1 140.909, 1724.1 139.489 Q 1724.1 137.989, 1723.22 137.289 Q 1722.36 136.569, 1720.98 136.569 Q 1719.74 136.569, 1718.36 137.109 L 1717.26 136.589 L 1717.94 129.769 L 1725.22 129.769 L 1725.02 131.369 L 1719.58 131.369 L 1719.16 135.569 Q 1720.42 135.069, 1721.66 135.069 " fill="#000000"/>
<path class="note" d="M 1870.69 24.7556 Q 1871.93 24.7556, 1872.91 25.2956 Q 1873.89 25.8356, 1874.43 26.8156 Q 1874.97 27.7956, 1874.97 29.0356 Q 1874.97 30.4156, 1874.35 31.4956 Q 1873.75 32.5556, 1872.67 33.1556 Q 1871.59 33.7556, 1870.21 33.7556 Q 1867.69 33.7556, 1866.41 32.0556 Q 1865.15 30.3356, 1865.15 26.9356 Q 1865.15 23.1756, 1866.71 21.2356 Q 1868.29 19.2756, 1871.31 19.2756 Q 1872.19 19.2756, 1872.93 19.4756 Q 1873.69 19.6756, 1874.41 20.0956 L 1873.63 21.4356 Q 1872.59 20.8756, 1871.33 20.8756 Q 1869.33 20.8756, 1868.31 22.1756 Q 1867.29 23.4556, 1867.17 26.1156 Q 1867.89 25.4556, 1868.79 25.1156 Q 1869.71 24.7556, 1870.69 24.7556 M 1870.23 32.1156 Q 1870.99 32.1156, 1871.61 31.7156 Q 1872.25 31.3156, 1872.61 30.6156 Q 1872.97 29.9156, 1872.97 29.0556 Q 1872.97 27.7956, 1872.27 27.0756 Q 1871.57 26.3556, 1870.33 26.3556 Q 1869.47 26.3556, 1868.61 26.7156 Q 1867.77 27.0556, 1867.17 27.6556 Q 1867.25 29.9956, 1867.99 31.0556 Q 1868.73 32.1156, 1870.23 32.1156 " fill="#000000"/>
<path class="note" d="M 2021.52 131.369 L 2014.1 131.369 L 2014.1 129.769 L 2023.5 129.769 L 2023.5 131.189 L 2017.78 143.929 L 2015.86 143.929 L 2021.52 131.369 " fill="#000000"/>
<path class="note" d="M 2021.02 283.727 Q 2022.32 284.287, 2023.06 285.127 Q 2023.8 285.947, 2023.8 287.347 Q 2023.8 288.547, 2023.18 289.487 Q 2022.56 290.407, 2021.44 290.927 Q 2020.34 291.427, 2018.88 291.427 Q 2016.52 291.427, 2015.16 290.347 Q 2013.8 289.247, 2013.8 287.347 Q 2013.8 286.187, 2014.4 285.327 Q 2015 284.447, 2016.24 283.787 Q 2015.32 283.267, 2014.82 282.507 Q 2014.32 281.727, 2014.32 280.527 Q 2014.32 278.867, 2015.52 277.887 Q 2016.74 276.907, 2018.8 276.907 Q 2020.86 276.907, 2022.06 277.887 Q 2023.28 278.867, 2023.28 280.527 Q 2023.28 281.567, 2022.7 282.347 Q 2022.14 283.107, 2021.02 283.727 M 2018.8 278.407 Q 2017.62 278.407, 2016.96 278.967 Q 2016.32 279.527, 2016.32 280.527 Q 2016.32 281.267, 2016.76 281.767 Q 2017.2 282.247, 2017.82 282.527 Q 2018.46 282.807, 2019.68 283.227 Q 2020.54 282.627, 2020.9 281.987 Q 2021.28 281.347, 2021.28 280.527 Q 2021.28 279.527, 2020.62 278.967 Q 2019.98 278.407, 2018.8 278.407 M 2018.88 289.927 Q 2020.2 289.927, 2021 289.227 Q 2021.8 288.507, 2021.8 287.327 Q 2021.8 286.567, 2021.38 286.087 Q 2020.96 285.607, 2020.32 285.327 Q 2019.7 285.047, 2018.58 284.687 L 2017.68 284.387 Q 2016.68 284.987, 2016.24 285.707 Q 2015.8 286.407, 2015.8 287.327 Q 2015.8 288.507, 2016.64 289.227 Q 2017.48 289.927, 2018.88 289.927 " fill="#000000"/>
<path class="note" d="M 2149.43 320.286 Q 2151.95 320.286, 2153.21 322.006 Q 2154.49 323.706, 2154.49 327.106 Q 2154.49 330.866, 2152.91 332.826 Q 2151.35 334.766, 2148.33 334.766 Q 2147.45 334.766, 2146.69 334.566 Q 2145.95 334.366, 2145.23 333.946 L 2146.01 332.606 Q 2147.05 333.166, 2148.31 333.166 Q 2150.31 333.166, 2151.33 331.886 Q 2152.35 330.586, 2152.47 327.926 Q 2151.75 328.586, 2150.83 328.946 Q 2149.93 329.286, 2148.95 329.286 Q 2147.71 329.286, 2146.73 328.746 Q 2145.75 328.206, 2145.21 327.226 Q 2144.67 326.246, 2144.67 325.006 Q 2144.67 323.626, 2145.27 322.566 Q 2145.89 321.486, 2146.97 320.886 Q 2148.05 320.286, 2149.43 320.286 M 2146.67 324.986 Q 2146.67 326.246, 2147.37 326.966 Q 2148.07 327.686, 2149.31 327.686 Q 2150.17 327.686, 2151.01 327.346 Q 2151.87 326.986, 2152.47 326.386 Q 2152.39 324.046, 2151.65 322.986 Q 2150.91 321.926, 2149.41 321.926 Q 2148.65 321.926, 2148.01 322.326 Q 2147.39 322.726, 2147.03 323.426 Q 2146.67 324.126, 2146.67 324.986 " fill="#000000"/>
<path class="note" d="M 1856.51 400.041 L 1859.61 400.041 L 1859.61 389.461 L 1856.19 390.521 L 1855.73 389.341 L 1860.07 387.401 L 1861.49 387.641 L 1861.49 400.041 L 1864.27 400.041 L 1864.27 401.641 L 1856.51 401.641 L 1856.51 400.041 " fill="#000000"/>
<path class="note" d="M 1870.67 401.801 Q 1868.07 401.801, 1866.77 399.881 Q 1865.49 397.961, 1865.49 394.541 Q 1865.49 391.121, 1866.77 389.221 Q 1868.05 387.321, 1870.67 387.321 Q 1873.29 387.321, 1874.57 389.221 Q 1875.85 391.121, 1875.85 394.541 Q 1875.85 397.961, 1874.55 399.881 Q 1873.27 401.801, 1870.67 401.801 M 1870.67 400.201 Q 1872.21 400.201, 1873.03 398.781 Q 1873.85 397.341, 1873.85 394.541 Q 1873.85 391.761, 1873.03 390.341 Q 1872.21 388.921, 1870.67 388.921 Q 1869.15 388.921, 1868.31 390.341 Q 1867.49 391.761, 1867.49 394.541 Q 1867.49 397.341, 1868.31 398.781 Q 1869.15 400.201, 1870.67 400.201 " fill="#000000"/>
<path class="note" d="M 2789.69 154.196 L 2792.79 154.196 L 2792.79 143.616 L 2789.37 144.676 L 2788.91 143.496 L 2793.25 141.556 L 2794.67 141.796 L 2794.67 154.196 L 2797.45 154.196 L 2797.45 155.796 L 2789.69 155.796 L 2789.69 154.196 " fill="#000000"/>
<path class="note" d="M 2879.51 296.059 Q 2880.03 294.719, 2881.27 293.979 Q 2882.51 293.219, 2884.23 293.219 Q 2886.37 293.219, 2887.57 294.379 Q 2888.77 295.539, 2888.77 297.599 Q 2888.77 299.699, 2887.21 301.659 Q 2885.67 303.619, 2882.47 305.939 L 2889.01 305.939 L 2889.01 307.539 L 2879.47 307.539 L 2879.47 306.199 Q 2882.11 304.319, 2883.67 302.919 Q 2885.25 301.519, 2886.01 300.259 Q 2886.77 298.999, 2886.77 297.699 Q 2886.77 296.339, 2886.09 295.579 Q 2885.41 294.819, 2884.23 294.819 Q 2883.09 294.819, 2882.33 295.279 Q 2881.57 295.739, 2881.03 296.759 L 2879.51 296.059 " fill="#000000"/>
<path class="note" d="M 2882.48 476.973 Q 2883.86 477.373, 2884.52 478.273 Q 2885.2 479.153, 2885.2 480.553 Q 2885.2 481.753, 2884.6 482.693 Q 2884 483.613, 2882.9 484.133 Q 2881.8 484.633, 2880.36 484.633 Q 2878.84 484.633, 2877.7 484.113 Q 2876.58 483.573, 2875.68 482.493 L 2876.82 481.333 Q 2877.7 482.293, 2878.44 482.673 Q 2879.18 483.033, 2880.36 483.033 Q 2881.64 483.033, 2882.42 482.353 Q 2883.2 481.653, 2883.2 480.533 Q 2883.2 479.093, 2882.38 478.453 Q 2881.58 477.793, 2879.84 477.793 L 2878.82 477.793 L 2878.82 476.353 L 2879.72 476.353 Q 2881.26 476.333, 2882.08 475.673 Q 2882.9 474.993, 2882.9 473.733 Q 2882.9 472.813, 2882.22 472.273 Q 2881.54 471.713, 2880.38 471.713 Q 2879.2 471.713, 2878.46 472.133 Q 2877.74 472.553, 2877.18 473.613 L 2875.8 472.873 Q 2876.3 471.693, 2877.5 470.913 Q 2878.7 470.113, 2880.38 470.113 Q 2882.46 470.113, 2883.68 471.093 Q 2884.9 472.073, 2884.9 473.733 Q 2884.9 474.873, 2884.28 475.693 Q 2883.66 476.513, 2882.48 476.973 " fill="#000000"/>
<path class="note" d="M 3060.4 234.831 L 3062.1 234.831 L 3062.1 236.431 L 3060.4 236.431 L 3060.4 239.691 L 3058.52 239.691 L 3058.52 236.431 L 3051.2 236.431 L 3051.2 235.171 L 3057.4 225.531 L 3060.4 225.531 L 3060.4 234.831 M 3053.52 234.831 L 3058.52 234.831 L 3058.52 226.811 L 3053.52 234.831 " fill="#000000"/>
<path class="note" d="M 3095.42 88.7153 Q 3096.66 88.7153, 3097.68 89.2553 Q 3098.7 89.7753, 3099.28 90.7753 Q 3099.86 91.7553, 3099.86 93.0953 Q 3099.86 94.5553, 3099.14 95.6153 Q 3098.44 96.6553, 3097.28 97.1953 Q 3096.12 97.7353, 3094.8 97.7353 Q 3093.5 97.7353, 3092.3 97.2553 Q 3091.1 96.7753, 3090.28 95.8553 L 3091.48 94.6153 Q 3092.14 95.3353, 3093.04 95.7353 Q 3093.94 96.1153, 3094.86 96.1153 Q 3096.12 96.1153, 3096.98 95.3353 Q 3097.86 94.5553, 3097.86 93.1353 Q 3097.86 91.6353, 3096.98 90.9353 Q 3096.12 90.2153, 3094.74 90.2153 Q 3093.5 90.2153, 3092.12 90.7553 L 3091.02 90.2353 L 3091.7 83.4153 L 3098.98 83.4153 L 3098.78 85.0153 L 3093.34 85.0153 L 3092.92 89.2153 Q 3094.18 88.7153, 3095.42 88.7153 " fill="#000000"/>
<path class="note" d="M 3268.1 21.0473 Q 3269.34 21.0473, 3270.32 21.5873 Q 3271.3 22.1273, 3271.84 23.1073 Q 3272.38 24.0873, 3272.38 25.3273 Q 3272.38 26.7073, 3271.76 27.7873 Q 3271.16 28.8473, 3270.08 29.4473 Q 3269 30.0473, 3267.62 30.0473 Q 3265.1 30.0473, 3263.82 28.3473 Q 3262.56 26.6273, 3262.56 23.2273 Q 3262.56 19.4673, 3264.12 17.5273 Q 3265.7 15.5673, 3268.72 15.5673 Q 3269.6 15.5673, 3270.34 15.7673 Q 3271.1 15.9673, 3271.82 16.3873 L 3271.04 17.7273 Q 3270 17.1673, 3268.74 17.1673 Q 3266.74 17.1673, 3265.72 18.4673 Q 3264.7 19.7473, 3264.58 22.4073 Q 3265.3 21.7473, 3266.2 21.4073 Q 3267.12 21.0473, 3268.1 21.0473 M 3267.64 28.4073 Q 3268.4 28.4073, 3269.02 28.0073 Q 3269.66 27.6073, 3270.02 26.9073 Q 3270.38 26.2073, 3270.38 25.3473 Q 3270.38 24.0873, 3269.68 23.3673 Q 3268.98 22.6473, 3267.74 22.6473 Q 3266.88 22.6473, 3266.02 23.0073 Q 3265.18 23.3473, 3264.58 23.9473 Q 3264.66 26.2873, 3265.4 27.3473 Q 3266.14 28.4073, 3267.64 28.4073 " fill="#000000"/>
<path class="note" d="M 3384.97 162.654 L 3377.55 162.654 L 3377.55 161.054 L 3386.95 161.054 L 3386.95 162.474 L 3381.23 175.214 L 3379.31 175.214 L 3384.97 162.654 " fill="#000000"/>
<path class="note" d="M 3346.04 309.91 Q 3347.34 310.47, 3348.08 311.31 Q 3348.82 312.13, 3348.82 313.53 Q 3348.82 314.73, 3348.2 315.67 Q 3347.58 316.59, 3346.46 317.11 Q 3345.36 317.61, 3343.9 317.61 Q 3341.54 317.61, 3340.18 316.53 Q 3338.82 315.43, 3338.82 313.53 Q 3338.82 312.37, 3339.42 311.51 Q 3340.02 310.63, 3341.26 309.97 Q 3340.34 309.45, 3339.84 308.69 Q 3339.34 307.91, 3339.34 306.71 Q 3339.34 305.05, 3340.54 304.07 Q 3341.76 303.09, 3343.82 303.09 Q 3345.88 303.09, 3347.08 304.07 Q 3348.3 305.05, 3348.3 306.71 Q 3348.3 307.75, 3347.72 308.53 Q 3347.16 309.29, 3346.04 309.91 M 3343.82 304.59 Q 3342.64 304.59, 3341.98 305.15 Q 3341.34 305.71, 3341.34 306.71 Q 3341.34 307.45, 3341.78 307.95 Q 3342.22 308.43, 3342.84 308.71 Q 3343.48 308.99, 3344.7 309.41 Q 3345.56 308.81, 3345.92 308.17 Q 3346.3 307.53, 3346.3 306.71 Q 3346.3 305.71, 3345.64 305.15 Q 3345 304.59, 3343.82 304.59 M 3343.9 316.11 Q 3345.22 316.11, 3346.02 315.41 Q 3346.82 314.69, 3346.82 313.51 Q 3346.82 312.75, 3346.4 312.27 Q 3345.98 311.79, 3345.34 311.51 Q 3344.72 311.23, 3343.6 310.87 L 3342.7 310.57 Q 3341.7 311.17, 3341.26 311.89 Q 3340.82 312.59, 3340.82 313.51 Q 3340.82 314.69, 3341.66 315.41 Q 3342.5 316.11, 3343.9 316.11 " fill="#000000"/>
<path class="note" d="M 3458.45 448.496 Q 3460.97 448.496, 3462.23 450.216 Q 3463.51 451.916, 3463.51 455.316 Q 3463.51 459.076, 3461.93 461.036 Q 3460.37 462.976, 3457.35 462.976 Q 3456.47 462.976, 3455.71 462.776 Q 3454.97 462.576, 3454.25 462.156 L 3455.03 460.816 Q 3456.07 461.376, 3457.33 461.376 Q 3459.33 461.376, 3460.35 460.096 Q 3461.37 458.796, 3461.49 456.136 Q 3460.77 456.796, 3459.85 457.156 Q 3458.95 457.496, 3457.97 457.496 Q 3456.73 457.496, 3455.75 456.956 Q 3454.77 456.416, 3454.23 455.436 Q 3453.69 454.456, 3453.69 453.216 Q 3453.69 451.836, 3454.29 450.776 Q 3454.91 449.696, 3455.99 449.096 Q 3457.07 448.496, 3458.45 448.496 M 3455.69 453.196 Q 3455.69 454.456, 3456.39 455.176 Q 3457.09 455.896, 3458.33 455.896 Q 3459.19 455.896, 3460.03 455.556 Q 3460.89 455.196, 3461.49 454.596 Q 3461.41 452.256, 3460.67 451.196 Q 3459.93 450.136, 3458.43 450.136 Q 3457.67 450.136, 3457.03 450.536 Q 3456.41 450.936, 3456.05 451.636 Q 3455.69 452.336, 3455.69 453.196 " fill="#000000"/>
<path class="note" d="M 3157.87 383.578 L 3160.97 383.578 L 3160.97 372.998 L 3157.55 374.058 L 3157.09 372.878 L 3161.43 370.938 L 3162.85 371.178 L 3162.85 383.578 L 3165.63 383.578 L 3165.63 385.178 L 3157.87 385.178 L 3157.87 383.578 " fill="#000000"/>
<path class="note" d="M 3172.03 385.338 Q 3169.43 385.338, 3168.13 383.418 Q 3166.85 381.498, 3166.85 378.078 Q 3166.85 374.658, 3168.13 372.758 Q 3169.41 370.858, 3172.03 370.858 Q 3174.65 370.858, 3175.93 372.758 Q 3177.21 374.658, 3177.21 378.078 Q 3177.21 381.498, 3175.91 383.418 Q 3174.63 385.338, 3172.03 385.338 M 3172.03 383.738 Q 3173.57 383.738, 3174.39 382.318 Q 3175.21 380.878, 3175.21 378.078 Q 3175.21 375.298, 3174.39 373.878 Q 3173.57 372.458, 3172.03 372.458 Q 3170.51 372.458, 3169.67 373.878 Q 3168.85 375.298, 3168.85 378.078 Q 3168.85 380.878, 3169.67 382.318 Q 3170.51 383.738, 3172.03 383.738 " fill="#000000"/>
<path d="M 1378.38 247.74 L 1384.43 247.74 L 1384.43 241.372 L 1387.11 241.372 L 1387.11 247.74 L 1393.32 247.74 L 1393.32 250.044 L 1387.11 250.044 L 1387.11 256.444 L 1384.43 256.444 L 1384.43 250.044 L 1378.38 250.044 L 1378.38 247.74 " fill="#000000"/>
<path d="M 2341.56,250.044 L 2603.68,250.044" style="fill:none;fill-rule:evenodd;stroke:#000000;stroke-width:2.0px;stroke-linecap:butt;stroke-linejoin:miter;stroke-opacity:1"/>
<path d="M 2603.68,250.044 L 2592.33,243.491" style="fill:none;fill-rule:evenodd;stroke:#000000;stroke-width:2.0px;stroke-linecap:butt;stroke-linejoin:miter;stroke-opacity:1"/>
<path d="M 2603.68,250.044 L 2592.33,256.597" style="fill:none;fill-rule:evenodd;stroke:#000000;stroke-width:2.0px;stroke-linecap:butt;stroke-linejoin:miter;stroke-opacity:1"/>
</svg>