<svg xmlns="http://www.w3.org/2000/svg" xmlns:rdkit="http://www.rdkit.org/xml" xmlns:xlink="http://www.w3.org/1999/xlink" version="1.1" baseProfile="full" xml:space="preserve" width="4000px" height="500px" viewBox="0 0 4000 500">
<!-- END OF HEADER -->
<rect style="opacity:1.0;fill:#FFFFFF;stroke:none" width="4000" height="500" x="0" y="0"> </rect>
<path d="M 1558.45,281.332 L 1433.12,274.914" style="fill:none;fill-rule:evenodd;stroke:#FFFFAA;stroke-width:26.8px;stroke-linecap:butt;stroke-linejoin:miter;stroke-opacity:1"/>
<path d="M 1433.12,274.914 L 1364.89,380.242" style="fill:none;fill-rule:evenodd;stroke:#FFFFAA;stroke-width:26.8px;stroke-linecap:butt;stroke-linejoin:miter;stroke-opacity:1"/>
<path d="M 1433.12,274.914 L 1376.01,163.166" style="fill:none;fill-rule:evenodd;stroke:#FFFFAA;stroke-width:26.8px;stroke-linecap:butt;stroke-linejoin:miter;stroke-opacity:1"/>
<path d="M 1364.89,380.242 L 1239.56,373.823" style="fill:none;fill-rule:evenodd;stroke:#FFFFAA;stroke-width:26.8px;stroke-linecap:butt;stroke-linejoin:miter;stroke-opacity:1"/>
<path d="M 1239.56,373.823 L 1182.46,262.076" style="fill:none;fill-rule:evenodd;stroke:#FFFFAA;stroke-width:26.8px;stroke-linecap:butt;stroke-linejoin:miter;stroke-opacity:1"/>
<path d="M 1182.46,262.076 L 1057.13,255.657" style="fill:none;fill-rule:evenodd;stroke:#FFFFAA;stroke-width:26.8px;stroke-linecap:butt;stroke-linejoin:miter;stroke-opacity:1"/>
<path d="M 1182.46,262.076 L 1250.68,156.747" style="fill:none;fill-rule:evenodd;stroke:#FFFFAA;stroke-width:26.8px;stroke-linecap:butt;stroke-linejoin:miter;stroke-opacity:1"/>
<path d="M 1057.13,255.657 L 931.799,249.238" style="fill:none;fill-rule:evenodd;stroke:#FFFFAA;stroke-width:26.8px;stroke-linecap:butt;stroke-linejoin:miter;stroke-opacity:1"/>
<path d="M 931.799,249.238 L 806.47,242.819" style="fill:none;fill-rule:evenodd;stroke:#FFFFAA;stroke-width:26.8px;stroke-linecap:butt;stroke-linejoin:miter;stroke-opacity:1"/>
<path d="M 806.47,242.819 L 749.364,131.071" style="fill:none;fill-rule:evenodd;stroke:#FFFFAA;stroke-width:26.8px;stroke-linecap:butt;stroke-linejoin:miter;stroke-opacity:1"/>
<path d="M 806.47,242.819 L 738.246,348.147" style="fill:none;fill-rule:evenodd;stroke:#FFFFAA;stroke-width:26.8px;stroke-linecap:butt;stroke-linejoin:miter;stroke-opacity:1"/>
<path d="M 749.364,131.071 L 624.035,124.652" style="fill:none;fill-rule:evenodd;stroke:#FFFFAA;stroke-width:26.8px;stroke-linecap:butt;stroke-linejoin:miter;stroke-opacity:1"/>
<path d="M 624.035,124.652 L 555.811,229.981" style="fill:none;fill-rule:evenodd;stroke:#FFFFAA;stroke-width:26.8px;stroke-linecap:butt;stroke-linejoin:miter;stroke-opacity:1"/>
<path d="M 555.811,229.981 L 612.917,341.728" style="fill:none;fill-rule:evenodd;stroke:#FFFFAA;stroke-width:26.8px;stroke-linecap:butt;stroke-linejoin:miter;stroke-opacity:1"/>
<path d="M 612.917,341.728 L 738.246,348.147" style="fill:none;fill-rule:evenodd;stroke:#FFFFAA;stroke-width:26.8px;stroke-linecap:butt;stroke-linejoin:miter;stroke-opacity:1"/>
<path d="M 1250.68,156.747 L 1376.01,163.166" style="fill:none;fill-rule:evenodd;stroke:#FFFFAA;stroke-width:26.8px;stroke-linecap:butt;stroke-linejoin:miter;stroke-opacity:1"/>
<path d="M 1376.01,163.166 L 1444.23,57.8369" style="fill:none;fill-rule:evenodd;stroke:#FFFFAA;stroke-width:26.8px;stroke-linecap:butt;stroke-linejoin:miter;stroke-opacity:1"/>
<path d="M 2496.74,237.96 L 2621.34,223" style="fill:none;fill-rule:evenodd;stroke:#FFFFAA;stroke-width:26.8px;stroke-linecap:butt;stroke-linejoin:miter;stroke-opacity:1"/>
<path d="M 2621.34,223 L 2670.69,107.614" style="fill:none;fill-rule:evenodd;stroke:#FFFFAA;stroke-width:26.8px;stroke-linecap:butt;stroke-linejoin:miter;stroke-opacity:1"/>
<path d="M 2621.34,223 L 2696.6,323.425" style="fill:none;fill-rule:evenodd;stroke:#FFFFAA;stroke-width:26.8px;stroke-linecap:butt;stroke-linejoin:miter;stroke-opacity:1"/>
<path d="M 2670.69,107.614 L 2795.28,92.6542" style="fill:none;fill-rule:evenodd;stroke:#FFFFAA;stroke-width:26.8px;stroke-linecap:butt;stroke-linejoin:miter;stroke-opacity:1"/>
<path d="M 2795.28,92.6542 L 2870.54,193.08" style="fill:none;fill-rule:evenodd;stroke:#FFFFAA;stroke-width:26.8px;stroke-linecap:butt;stroke-linejoin:miter;stroke-opacity:1"/>
<path d="M 2870.54,193.08 L 2995.14,178.12" style="fill:none;fill-rule:evenodd;stroke:#FFFFAA;stroke-width:26.8px;stroke-linecap:butt;stroke-linejoin:miter;stroke-opacity:1"/>
<path d="M 2870.54,193.08 L 2821.2,308.465" style="fill:none;fill-rule:evenodd;stroke:#FFFFAA;stroke-width:26.8px;stroke-linecap:butt;stroke-linejoin:miter;stroke-opacity:1"/>
<path d="M 2995.14,178.12 L 3070.39,278.545" style="fill:none;fill-rule:evenodd;stroke:#FFFFAA;stroke-width:26.8px;stroke-linecap:butt;stroke-linejoin:miter;stroke-opacity:1"/>
<path d="M 3070.39,278.545 L 3194.99,263.586" style="fill:none;fill-rule:evenodd;stroke:#FFFFAA;stroke-width:26.8px;stroke-linecap:butt;stroke-linejoin:miter;stroke-opacity:1"/>
<path d="M 3194.99,263.586 L 3270.25,364.011" style="fill:none;fill-rule:evenodd;stroke:#FFFFAA;stroke-width:26.8px;stroke-linecap:butt;stroke-linejoin:miter;stroke-opacity:1"/>
<path d="M 3194.99,263.586 L 3244.34,148.2" style="fill:none;fill-rule:evenodd;stroke:#FFFFAA;stroke-width:26.8px;stroke-linecap:butt;stroke-linejoin:miter;stroke-opacity:1"/>
<path d="M 3270.25,364.011 L 3394.85,349.051" style="fill:none;fill-rule:evenodd;stroke:#FFFFAA;stroke-width:26.8px;stroke-linecap:butt;stroke-linejoin:miter;stroke-opacity:1"/>
<path d="M 3394.85,349.051 L 3444.19,233.666" style="fill:none;fill-rule:evenodd;stroke:#FFFFAA;stroke-width:26.8px;stroke-linecap:butt;stroke-linejoin:miter;stroke-opacity:1"/>
<path d="M 3444.19,233.666 L 3368.93,133.24" style="fill:none;fill-rule:evenodd;stroke:#FFFFAA;stroke-width:26.8px;stroke-linecap:butt;stroke-linejoin:miter;stroke-opacity:1"/>
<path d="M 3368.93,133.24 L 3244.34,148.2" style="fill:none;fill-rule:evenodd;stroke:#FFFFAA;stroke-width:26.8px;stroke-linecap:butt;stroke-linejoin:miter;stroke-opacity:1"/>
<path d="M 2821.2,308.465 L 2696.6,323.425" style="fill:none;fill-rule:evenodd;stroke:#FFFFAA;stroke-width:26.8px;stroke-linecap:butt;stroke-linejoin:miter;stroke-opacity:1"/>
<path d="M 2696.6,323.425 L 2647.25,438.811" style="fill:none;fill-rule:evenodd;stroke:#FFFFAA;stroke-width:26.8px;stroke-linecap:butt;stroke-linejoin:miter;stroke-opacity:1"/>
<ellipse cx="1578.18" cy="288.412" rx="43.1001" ry="30.0379" style="fill:#FFFFAA;fill-rule:evenodd;stroke:#FFFFAA;stroke-width:1px;stroke-linecap:butt;stroke-linejoin:miter;stroke-opacity:1"/>
<ellipse cx="1433.12" cy="274.914" rx="25.0987" ry="25.0987" style="fill:#FFFFAA;fill-rule:evenodd;stroke:#FFFFAA;stroke-width:1px;stroke-linecap:butt;stroke-linejoin:miter;stroke-opacity:1"/>
<ellipse cx="1364.89" cy="380.242" rx="25.0987" ry="25.0987" style="fill:#FFFFAA;fill-rule:evenodd;stroke:#FFFFAA;stroke-width:1px;stroke-linecap:butt;stroke-linejoin:miter;stroke-opacity:1"/>
<ellipse cx="1239.56" cy="373.823" rx="25.0987" ry="25.0987" style="fill:#FFFFAA;fill-rule:evenodd;stroke:#FFFFAA;stroke-width:1px;stroke-linecap:butt;stroke-linejoin:miter;stroke-opacity:1"/>
<ellipse cx="1182.46" cy="262.076" rx="25.0987" ry="25.0987" style="fill:#FFFFAA;fill-rule:evenodd;stroke:#FFFFAA;stroke-width:1px;stroke-linecap:butt;stroke-linejoin:miter;stroke-opacity:1"/>
<ellipse cx="1057.13" cy="255.657" rx="25.0987" ry="25.0987" style="fill:#FFFFAA;fill-rule:evenodd;stroke:#FFFFAA;stroke-width:1px;stroke-linecap:butt;stroke-linejoin:miter;stroke-opacity:1"/>
<ellipse cx="931.799" cy="249.238" rx="25.0987" ry="25.0987" style="fill:#FFFFAA;fill-rule:evenodd;stroke:#FFFFAA;stroke-width:1px;stroke-linecap:butt;stroke-linejoin:miter;stroke-opacity:1"/>
<ellipse cx="806.47" cy="242.819" rx="25.0987" ry="25.0987" style="fill:#FFFFAA;fill-rule:evenodd;stroke:#FFFFAA;stroke-width:1px;stroke-linecap:butt;stroke-linejoin:miter;stroke-opacity:1"/>
<ellipse cx="749.364" cy="131.071" rx="25.0987" ry="25.0987" style="fill:#FFFFAA;fill-rule:evenodd;stroke:#FFFFAA;stroke-width:1px;stroke-linecap:butt;stroke-linejoin:miter;stroke-opacity:1"/>
<ellipse cx="624.035" cy="124.652" rx="25.0987" ry="25.0987" style="fill:#FFFFAA;fill-rule:evenodd;stroke:#FFFFAA;stroke-width:1px;stroke-linecap:butt;stroke-linejoin:miter;stroke-opacity:1"/>
<ellipse cx="555.811" cy="229.981" rx="25.0987" ry="25.0987" style="fill:#FFFFAA;fill-rule:evenodd;stroke:#FFFFAA;stroke-width:1px;stroke-linecap:butt;stroke-linejoin:miter;stroke-opacity:1"/>
<ellipse cx="612.917" cy="341.728" rx="25.0987" ry="25.0987" style="fill:#FFFFAA;fill-rule:evenodd;stroke:#FFFFAA;stroke-width:1px;stroke-linecap:butt;stroke-linejoin:miter;stroke-opacity:1"/>
<ellipse cx="738.246" cy="348.147" rx="25.0987" ry="25.0987" style="fill:#FFFFAA;fill-rule:evenodd;stroke:#FFFFAA;stroke-width:1px;stroke-linecap:butt;stroke-linejoin:miter;stroke-opacity:1"/>
<ellipse cx="1250.68" cy="156.747" rx="25.0987" ry="25.0987" style="fill:#FFFFAA;fill-rule:evenodd;stroke:#FFFFAA;stroke-width:1px;stroke-linecap:butt;stroke-linejoin:miter;stroke-opacity:1"/>
<ellipse cx="1376.01" cy="163.166" rx="25.0987" ry="25.0987" style="fill:#FFFFAA;fill-rule:evenodd;stroke:#FFFFAA;stroke-width:1px;stroke-linecap:butt;stroke-linejoin:miter;stroke-opacity:1"/>
<ellipse cx="1444.23" cy="57.8369" rx="25.0987" ry="25.0987" style="fill:#FFFFAA;fill-rule:evenodd;stroke:#FFFFAA;stroke-width:1px;stroke-linecap:butt;stroke-linejoin:miter;stroke-opacity:1"/>
<ellipse cx="2477.05" cy="245.04" rx="43.0436" ry="30.0379" style="fill:#FFFFAA;fill-rule:evenodd;stroke:#FFFFAA;stroke-width:1px;stroke-linecap:butt;stroke-linejoin:miter;stroke-opacity:1"/>
<ellipse cx="2621.34" cy="223" rx="25.0987" ry="25.0987" style="fill:#FFFFAA;fill-rule:evenodd;stroke:#FFFFAA;stroke-width:1px;stroke-linecap:butt;stroke-linejoin:miter;stroke-opacity:1"/>
<ellipse cx="2670.69" cy="107.614" rx="25.0987" ry="25.0987" style="fill:#FFFFAA;fill-rule:evenodd;stroke:#FFFFAA;stroke-width:1px;stroke-linecap:butt;stroke-linejoin:miter;stroke-opacity:1"/>
<ellipse cx="2795.28" cy="92.6542" rx="25.0987" ry="25.0987" style="fill:#FFFFAA;fill-rule:evenodd;stroke:#FFFFAA;stroke-width:1px;stroke-linecap:butt;stroke-linejoin:miter;stroke-opacity:1"/>
<ellipse cx="2870.54" cy="193.08" rx="25.0987" ry="25.0987" style="fill:#FFFFAA;fill-rule:evenodd;stroke:#FFFFAA;stroke-width:1px;stroke-linecap:butt;stroke-linejoin:miter;stroke-opacity:1"/>
<ellipse cx="2995.14" cy="178.12" rx="25.0987" ry="25.0987" style="fill:#FFFFAA;fill-rule:evenodd;stroke:#FFFFAA;stroke-width:1px;stroke-linecap:butt;stroke-linejoin:miter;stroke-opacity:1"/>
<ellipse cx="3070.39" cy="278.545" rx="25.0987" ry="25.0987" style="fill:#FFFFAA;fill-rule:evenodd;stroke:#FFFFAA;stroke-width:1px;stroke-linecap:butt;stroke-linejoin:miter;stroke-opacity:1"/>
<ellipse cx="3194.99" cy="263.586" rx="25.0987" ry="25.0987" style="fill:#FFFFAA;fill-rule:evenodd;stroke:#FFFFAA;stroke-width:1px;stroke-linecap:butt;stroke-linejoin:miter;stroke-opacity:1"/>
<ellipse cx="3270.25" cy="364.011" rx="25.0987" ry="25.0987" style="fill:#FFFFAA;fill-rule:evenodd;stroke:#FFFFAA;stroke-width:1px;stroke-linecap:butt;stroke-linejoin:miter;stroke-opacity:1"/>
<ellipse cx="3394.85" cy="349.051" rx="25.0987" ry="25.0987" style="fill:#FFFFAA;fill-rule:evenodd;stroke:#FFFFAA;stroke-width:1px;stroke-linecap:butt;stroke-linejoin:miter;stroke-opacity:1"/>
<ellipse cx="3444.19" cy="233.666" rx="25.0987" ry="25.0987" style="fill:#FFFFAA;fill-rule:evenodd;stroke:#FFFFAA;stroke-width:1px;stroke-linecap:butt;stroke-linejoin:miter;stroke-opacity:1"/>
<ellipse cx="3368.93" cy="133.24" rx="25.0987" ry="25.0987" style="fill:#FFFFAA;fill-rule:evenodd;stroke:#FFFFAA;stroke-width:1px;stroke-linecap:butt;stroke-linejoin:miter;stroke-opacity:1"/>
<ellipse cx="3244.34" cy="148.2" rx="25.0987" ry="25.0987" style="fill:#FFFFAA;fill-rule:evenodd;stroke:#FFFFAA;stroke-width:1px;stroke-linecap:butt;stroke-linejoin:miter;stroke-opacity:1"/>
<ellipse cx="2821.2" cy="308.465" rx="25.0987" ry="25.0987" style="fill:#FFFFAA;fill-rule:evenodd;stroke:#FFFFAA;stroke-width:1px;stroke-linecap:butt;stroke-linejoin:miter;stroke-opacity:1"/>
<ellipse cx="2696.6" cy="323.425" rx="25.0987" ry="25.0987" style="fill:#FFFFAA;fill-rule:evenodd;stroke:#FFFFAA;stroke-width:1px;stroke-linecap:butt;stroke-linejoin:miter;stroke-opacity:1"/>
<ellipse cx="2647.25" cy="438.811" rx="25.0987" ry="25.0987" style="fill:#FFFFAA;fill-rule:evenodd;stroke:#FFFFAA;stroke-width:1px;stroke-linecap:butt;stroke-linejoin:miter;stroke-opacity:1"/>
<path class="bond-0" d="M 1544.57,280.622 L 1488.84,277.768" style="fill:none;fill-rule:evenodd;stroke:#0000FF;stroke-width:2.0px;stroke-linecap:butt;stroke-linejoin:miter;stroke-opacity:1"/>
<path class="bond-0" d="M 1488.84,277.768 L 1433.12,274.914" style="fill:none;fill-rule:evenodd;stroke:#000000;stroke-width:2.0px;stroke-linecap:butt;stroke-linejoin:miter;stroke-opacity:1"/>
<path class="bond-1" d="M 1433.12,274.914 L 1364.89,380.242" style="fill:none;fill-rule:evenodd;stroke:#000000;stroke-width:2.0px;stroke-linecap:butt;stroke-linejoin:miter;stroke-opacity:1"/>
<path class="bond-1" d="M 1401.82,277.068 L 1354.06,350.798" style="fill:none;fill-rule:evenodd;stroke:#000000;stroke-width:2.0px;stroke-linecap:butt;stroke-linejoin:miter;stroke-opacity:1;stroke-dasharray:6,6"/>
<path class="bond-15" d="M 1433.12,274.914 L 1376.01,163.166" style="fill:none;fill-rule:evenodd;stroke:#000000;stroke-width:2.0px;stroke-linecap:butt;stroke-linejoin:miter;stroke-opacity:1"/>
<path class="bond-15" d="M 1402.2,269.572 L 1362.23,191.349" style="fill:none;fill-rule:evenodd;stroke:#000000;stroke-width:2.0px;stroke-linecap:butt;stroke-linejoin:miter;stroke-opacity:1;stroke-dasharray:6,6"/>
<path class="bond-2" d="M 1364.89,380.242 L 1239.56,373.823" style="fill:none;fill-rule:evenodd;stroke:#000000;stroke-width:2.0px;stroke-linecap:butt;stroke-linejoin:miter;stroke-opacity:1"/>
<path class="bond-2" d="M 1347.38,354.214 L 1259.65,349.72" style="fill:none;fill-rule:evenodd;stroke:#000000;stroke-width:2.0px;stroke-linecap:butt;stroke-linejoin:miter;stroke-opacity:1;stroke-dasharray:6,6"/>
<path class="bond-3" d="M 1239.56,373.823 L 1182.46,262.076" style="fill:none;fill-rule:evenodd;stroke:#000000;stroke-width:2.0px;stroke-linecap:butt;stroke-linejoin:miter;stroke-opacity:1"/>
<path class="bond-3" d="M 1253.35,345.64 L 1213.37,267.417" style="fill:none;fill-rule:evenodd;stroke:#000000;stroke-width:2.0px;stroke-linecap:butt;stroke-linejoin:miter;stroke-opacity:1;stroke-dasharray:6,6"/>
<path class="bond-4" d="M 1182.46,262.076 L 1057.13,255.657" style="fill:none;fill-rule:evenodd;stroke:#000000;stroke-width:2.0px;stroke-linecap:butt;stroke-linejoin:miter;stroke-opacity:1"/>
<path class="bond-12" d="M 1182.46,262.076 L 1250.68,156.747" style="fill:none;fill-rule:evenodd;stroke:#000000;stroke-width:2.0px;stroke-linecap:butt;stroke-linejoin:miter;stroke-opacity:1"/>
<path class="bond-12" d="M 1213.76,259.921 L 1261.51,186.191" style="fill:none;fill-rule:evenodd;stroke:#000000;stroke-width:2.0px;stroke-linecap:butt;stroke-linejoin:miter;stroke-opacity:1;stroke-dasharray:6,6"/>
<path class="bond-5" d="M 1057.13,255.657 L 931.799,249.238" style="fill:none;fill-rule:evenodd;stroke:#000000;stroke-width:2.0px;stroke-linecap:butt;stroke-linejoin:miter;stroke-opacity:1"/>
<path class="bond-5" d="M 1039.61,229.628 L 951.882,225.135" style="fill:none;fill-rule:evenodd;stroke:#000000;stroke-width:2.0px;stroke-linecap:butt;stroke-linejoin:miter;stroke-opacity:1"/>
<path class="bond-5" d="M 1037.04,279.76 L 949.314,275.266" style="fill:none;fill-rule:evenodd;stroke:#000000;stroke-width:2.0px;stroke-linecap:butt;stroke-linejoin:miter;stroke-opacity:1"/>
<path class="bond-6" d="M 931.799,249.238 L 806.47,242.819" style="fill:none;fill-rule:evenodd;stroke:#000000;stroke-width:2.0px;stroke-linecap:butt;stroke-linejoin:miter;stroke-opacity:1"/>
<path class="bond-7" d="M 806.47,242.819 L 749.364,131.071" style="fill:none;fill-rule:evenodd;stroke:#000000;stroke-width:2.0px;stroke-linecap:butt;stroke-linejoin:miter;stroke-opacity:1"/>
<path class="bond-7" d="M 775.554,237.478 L 735.58,159.254" style="fill:none;fill-rule:evenodd;stroke:#000000;stroke-width:2.0px;stroke-linecap:butt;stroke-linejoin:miter;stroke-opacity:1;stroke-dasharray:6,6"/>
<path class="bond-16" d="M 806.47,242.819 L 738.246,348.147" style="fill:none;fill-rule:evenodd;stroke:#000000;stroke-width:2.0px;stroke-linecap:butt;stroke-linejoin:miter;stroke-opacity:1"/>
<path class="bond-16" d="M 775.17,244.973 L 727.414,318.703" style="fill:none;fill-rule:evenodd;stroke:#000000;stroke-width:2.0px;stroke-linecap:butt;stroke-linejoin:miter;stroke-opacity:1;stroke-dasharray:6,6"/>
<path class="bond-8" d="M 749.364,131.071 L 624.035,124.652" style="fill:none;fill-rule:evenodd;stroke:#000000;stroke-width:2.0px;stroke-linecap:butt;stroke-linejoin:miter;stroke-opacity:1"/>
<path class="bond-8" d="M 729.281,155.174 L 641.55,150.68" style="fill:none;fill-rule:evenodd;stroke:#000000;stroke-width:2.0px;stroke-linecap:butt;stroke-linejoin:miter;stroke-opacity:1;stroke-dasharray:6,6"/>
<path class="bond-9" d="M 624.035,124.652 L 555.811,229.981" style="fill:none;fill-rule:evenodd;stroke:#000000;stroke-width:2.0px;stroke-linecap:butt;stroke-linejoin:miter;stroke-opacity:1"/>
<path class="bond-9" d="M 634.867,154.096 L 587.11,227.826" style="fill:none;fill-rule:evenodd;stroke:#000000;stroke-width:2.0px;stroke-linecap:butt;stroke-linejoin:miter;stroke-opacity:1;stroke-dasharray:6,6"/>
<path class="bond-10" d="M 555.811,229.981 L 612.917,341.728" style="fill:none;fill-rule:evenodd;stroke:#000000;stroke-width:2.0px;stroke-linecap:butt;stroke-linejoin:miter;stroke-opacity:1"/>
<path class="bond-10" d="M 586.727,235.322 L 626.7,313.545" style="fill:none;fill-rule:evenodd;stroke:#000000;stroke-width:2.0px;stroke-linecap:butt;stroke-linejoin:miter;stroke-opacity:1;stroke-dasharray:6,6"/>
<path class="bond-11" d="M 612.917,341.728 L 738.246,348.147" style="fill:none;fill-rule:evenodd;stroke:#000000;stroke-width:2.0px;stroke-linecap:butt;stroke-linejoin:miter;stroke-opacity:1"/>
<path class="bond-11" d="M 633,317.625 L 720.73,322.119" style="fill:none;fill-rule:evenodd;stroke:#000000;stroke-width:2.0px;stroke-linecap:butt;stroke-linejoin:miter;stroke-opacity:1;stroke-dasharray:6,6"/>
<path class="bond-13" d="M 1250.68,156.747 L 1376.01,163.166" style="fill:none;fill-rule:evenodd;stroke:#000000;stroke-width:2.0px;stroke-linecap:butt;stroke-linejoin:miter;stroke-opacity:1"/>
<path class="bond-13" d="M 1268.2,182.775 L 1355.93,187.269" style="fill:none;fill-rule:evenodd;stroke:#000000;stroke-width:2.0px;stroke-linecap:butt;stroke-linejoin:miter;stroke-opacity:1;stroke-dasharray:6,6"/>
<path class="bond-14" d="M 1376.01,163.166 L 1404.52,119.15" style="fill:none;fill-rule:evenodd;stroke:#000000;stroke-width:2.0px;stroke-linecap:butt;stroke-linejoin:miter;stroke-opacity:1"/>
<path class="bond-14" d="M 1404.52,119.15 L 1433.03,75.1342" style="fill:none;fill-rule:evenodd;stroke:#33CCCC;stroke-width:2.0px;stroke-linecap:butt;stroke-linejoin:miter;stroke-opacity:1"/>
<path class="bond-17" d="M 2510.62,236.293 L 2565.98,229.647" style="fill:none;fill-rule:evenodd;stroke:#0000FF;stroke-width:2.0px;stroke-linecap:butt;stroke-linejoin:miter;stroke-opacity:1"/>
<path class="bond-17" d="M 2565.98,229.647 L 2621.34,223" style="fill:none;fill-rule:evenodd;stroke:#000000;stroke-width:2.0px;stroke-linecap:butt;stroke-linejoin:miter;stroke-opacity:1"/>
<path class="bond-18" d="M 2621.34,223 L 2670.69,107.614" style="fill:none;fill-rule:evenodd;stroke:#000000;stroke-width:2.0px;stroke-linecap:butt;stroke-linejoin:miter;stroke-opacity:1"/>
<path class="bond-18" d="M 2651.82,215.561 L 2686.36,134.791" style="fill:none;fill-rule:evenodd;stroke:#000000;stroke-width:2.0px;stroke-linecap:butt;stroke-linejoin:miter;stroke-opacity:1;stroke-dasharray:6,6"/>
<path class="bond-32" d="M 2621.34,223 L 2696.6,323.425" style="fill:none;fill-rule:evenodd;stroke:#000000;stroke-width:2.0px;stroke-linecap:butt;stroke-linejoin:miter;stroke-opacity:1"/>
<path class="bond-32" d="M 2652.72,223.013 L 2705.39,293.31" style="fill:none;fill-rule:evenodd;stroke:#000000;stroke-width:2.0px;stroke-linecap:butt;stroke-linejoin:miter;stroke-opacity:1;stroke-dasharray:6,6"/>
<path class="bond-19" d="M 2670.69,107.614 L 2795.28,92.6542" style="fill:none;fill-rule:evenodd;stroke:#000000;stroke-width:2.0px;stroke-linecap:butt;stroke-linejoin:miter;stroke-opacity:1"/>
<path class="bond-19" d="M 2692.37,130.29 L 2779.59,119.818" style="fill:none;fill-rule:evenodd;stroke:#000000;stroke-width:2.0px;stroke-linecap:butt;stroke-linejoin:miter;stroke-opacity:1;stroke-dasharray:6,6"/>
<path class="bond-20" d="M 2795.28,92.6542 L 2870.54,193.08" style="fill:none;fill-rule:evenodd;stroke:#000000;stroke-width:2.0px;stroke-linecap:butt;stroke-linejoin:miter;stroke-opacity:1"/>
<path class="bond-20" d="M 2786.49,122.769 L 2839.17,193.067" style="fill:none;fill-rule:evenodd;stroke:#000000;stroke-width:2.0px;stroke-linecap:butt;stroke-linejoin:miter;stroke-opacity:1;stroke-dasharray:6,6"/>
<path class="bond-21" d="M 2870.54,193.08 L 2995.14,178.12" style="fill:none;fill-rule:evenodd;stroke:#000000;stroke-width:2.0px;stroke-linecap:butt;stroke-linejoin:miter;stroke-opacity:1"/>
<path class="bond-29" d="M 2870.54,193.08 L 2821.2,308.465" style="fill:none;fill-rule:evenodd;stroke:#000000;stroke-width:2.0px;stroke-linecap:butt;stroke-linejoin:miter;stroke-opacity:1"/>
<path class="bond-29" d="M 2840.06,200.519 L 2805.52,281.289" style="fill:none;fill-rule:evenodd;stroke:#000000;stroke-width:2.0px;stroke-linecap:butt;stroke-linejoin:miter;stroke-opacity:1;stroke-dasharray:6,6"/>
<path class="bond-22" d="M 2995.14,178.12 L 3070.39,278.545" style="fill:none;fill-rule:evenodd;stroke:#000000;stroke-width:2.0px;stroke-linecap:butt;stroke-linejoin:miter;stroke-opacity:1"/>
<path class="bond-23" d="M 3070.39,278.545 L 3194.99,263.586" style="fill:none;fill-rule:evenodd;stroke:#000000;stroke-width:2.0px;stroke-linecap:butt;stroke-linejoin:miter;stroke-opacity:1"/>
<path class="bond-24" d="M 3194.99,263.586 L 3270.25,364.011" style="fill:none;fill-rule:evenodd;stroke:#000000;stroke-width:2.0px;stroke-linecap:butt;stroke-linejoin:miter;stroke-opacity:1"/>
<path class="bond-24" d="M 3226.36,263.598 L 3279.04,333.896" style="fill:none;fill-rule:evenodd;stroke:#000000;stroke-width:2.0px;stroke-linecap:butt;stroke-linejoin:miter;stroke-opacity:1;stroke-dasharray:6,6"/>
<path class="bond-33" d="M 3194.99,263.586 L 3244.34,148.2" style="fill:none;fill-rule:evenodd;stroke:#000000;stroke-width:2.0px;stroke-linecap:butt;stroke-linejoin:miter;stroke-opacity:1"/>
<path class="bond-33" d="M 3225.47,256.146 L 3260.01,175.377" style="fill:none;fill-rule:evenodd;stroke:#000000;stroke-width:2.0px;stroke-linecap:butt;stroke-linejoin:miter;stroke-opacity:1;stroke-dasharray:6,6"/>
<path class="bond-25" d="M 3270.25,364.011 L 3394.85,349.051" style="fill:none;fill-rule:evenodd;stroke:#000000;stroke-width:2.0px;stroke-linecap:butt;stroke-linejoin:miter;stroke-opacity:1"/>
<path class="bond-25" d="M 3285.94,336.847 L 3373.16,326.376" style="fill:none;fill-rule:evenodd;stroke:#000000;stroke-width:2.0px;stroke-linecap:butt;stroke-linejoin:miter;stroke-opacity:1;stroke-dasharray:6,6"/>
<path class="bond-26" d="M 3394.85,349.051 L 3444.19,233.666" style="fill:none;fill-rule:evenodd;stroke:#000000;stroke-width:2.0px;stroke-linecap:butt;stroke-linejoin:miter;stroke-opacity:1"/>
<path class="bond-26" d="M 3379.17,321.875 L 3413.71,241.105" style="fill:none;fill-rule:evenodd;stroke:#000000;stroke-width:2.0px;stroke-linecap:butt;stroke-linejoin:miter;stroke-opacity:1;stroke-dasharray:6,6"/>
<path class="bond-27" d="M 3444.19,233.666 L 3368.93,133.24" style="fill:none;fill-rule:evenodd;stroke:#000000;stroke-width:2.0px;stroke-linecap:butt;stroke-linejoin:miter;stroke-opacity:1"/>
<path class="bond-27" d="M 3412.82,233.653 L 3360.14,163.355" style="fill:none;fill-rule:evenodd;stroke:#000000;stroke-width:2.0px;stroke-linecap:butt;stroke-linejoin:miter;stroke-opacity:1;stroke-dasharray:6,6"/>
<path class="bond-28" d="M 3368.93,133.24 L 3244.34,148.2" style="fill:none;fill-rule:evenodd;stroke:#000000;stroke-width:2.0px;stroke-linecap:butt;stroke-linejoin:miter;stroke-opacity:1"/>
<path class="bond-28" d="M 3353.24,160.404 L 3266.02,170.876" style="fill:none;fill-rule:evenodd;stroke:#000000;stroke-width:2.0px;stroke-linecap:butt;stroke-linejoin:miter;stroke-opacity:1;stroke-dasharray:6,6"/>
<path class="bond-30" d="M 2821.2,308.465 L 2696.6,323.425" style="fill:none;fill-rule:evenodd;stroke:#000000;stroke-width:2.0px;stroke-linecap:butt;stroke-linejoin:miter;stroke-opacity:1"/>
<path class="bond-30" d="M 2799.51,285.79 L 2712.29,296.262" style="fill:none;fill-rule:evenodd;stroke:#000000;stroke-width:2.0px;stroke-linecap:butt;stroke-linejoin:miter;stroke-opacity:1;stroke-dasharray:6,6"/>
<path class="bond-31" d="M 2696.6,323.425 L 2675.62,372.469" style="fill:none;fill-rule:evenodd;stroke:#000000;stroke-width:2.0px;stroke-linecap:butt;stroke-linejoin:miter;stroke-opacity:1"/>
<path class="bond-31" d="M 2675.62,372.469 L 2654.65,421.514" style="fill:none;fill-rule:evenodd;stroke:#33CCCC;stroke-width:2.0px;stroke-linecap:butt;stroke-linejoin:miter;stroke-opacity:1"/>
<path class="bond-34" d="M 1835.19,140.168 L 1884.1,111.932" style="fill:none;fill-rule:evenodd;stroke:#000000;stroke-width:2.0px;stroke-linecap:butt;stroke-linejoin:miter;stroke-opacity:1"/>
<path class="bond-35" d="M 1884.1,111.932 L 1901.34,121.89" style="fill:none;fill-rule:evenodd;stroke:#000000;stroke-width:2.0px;stroke-linecap:butt;stroke-linejoin:miter;stroke-opacity:1"/>
<path class="bond-35" d="M 1901.34,121.89 L 1918.59,131.847" style="fill:none;fill-rule:evenodd;stroke:#FF0000;stroke-width:2.0px;stroke-linecap:butt;stroke-linejoin:miter;stroke-opacity:1"/>
<path class="bond-36" d="M 2137.86,130.756 L 2106.06,130.756" style="fill:none;fill-rule:evenodd;stroke:#000000;stroke-width:2.0px;stroke-linecap:butt;stroke-linejoin:miter;stroke-opacity:1"/>
<path class="atom-0" d="M 1552.19 267.172 L 1561.47 282.172 Q 1562.39 283.652, 1563.87 286.332 Q 1565.35 289.012, 1565.43 289.172 L 1565.43 267.172 L 1569.19 267.172 L 1569.19 295.492 L 1565.31 295.492 L 1555.35 279.092 Q 1554.19 277.172, 1552.95 274.972 Q 1551.75 272.772, 1551.39 272.092 L 1551.39 295.492 L 1547.71 295.492 L 1547.71 267.172 L 1552.19 267.172 " fill="#0000FF"/>
<path class="atom-0" d="M 1572.59 267.172 L 1576.43 267.172 L 1576.43 279.212 L 1590.91 279.212 L 1590.91 267.172 L 1594.75 267.172 L 1594.75 295.492 L 1590.91 295.492 L 1590.91 282.412 L 1576.43 282.412 L 1576.43 295.492 L 1572.59 295.492 L 1572.59 267.172 " fill="#0000FF"/>
<path class="atom-0" d="M 1596.12 294.499 Q 1596.8 292.73, 1598.44 291.753 Q 1600.08 290.75, 1602.35 290.75 Q 1605.17 290.75, 1606.76 292.281 Q 1608.34 293.812, 1608.34 296.532 Q 1608.34 299.304, 1606.28 301.891 Q 1604.25 304.478, 1600.03 307.54 L 1608.66 307.54 L 1608.66 309.652 L 1596.07 309.652 L 1596.07 307.884 Q 1599.55 305.402, 1601.61 303.554 Q 1603.69 301.706, 1604.7 300.043 Q 1605.7 298.38, 1605.7 296.664 Q 1605.7 294.868, 1604.8 293.865 Q 1603.91 292.862, 1602.35 292.862 Q 1600.84 292.862, 1599.84 293.469 Q 1598.84 294.076, 1598.12 295.423 L 1596.12 294.499 " fill="#0000FF"/>
<path class="atom-15" d="M 1435.81 43.6769 L 1452.65 43.6769 L 1452.65 46.9169 L 1439.61 46.9169 L 1439.61 55.5169 L 1451.21 55.5169 L 1451.21 58.7969 L 1439.61 58.7969 L 1439.61 71.9969 L 1435.81 71.9969 L 1435.81 43.6769 " fill="#33CCCC"/>
<path class="atom-16" d="M 2446.61 223.8 L 2450.45 223.8 L 2450.45 235.84 L 2464.93 235.84 L 2464.93 223.8 L 2468.77 223.8 L 2468.77 252.12 L 2464.93 252.12 L 2464.93 239.04 L 2450.45 239.04 L 2450.45 252.12 L 2446.61 252.12 L 2446.61 223.8 " fill="#0000FF"/>
<path class="atom-16" d="M 2470.14 251.126 Q 2470.83 249.357, 2472.47 248.38 Q 2474.1 247.377, 2476.37 247.377 Q 2479.2 247.377, 2480.78 248.908 Q 2482.37 250.44, 2482.37 253.159 Q 2482.37 255.931, 2480.31 258.518 Q 2478.27 261.105, 2474.05 264.168 L 2482.68 264.168 L 2482.68 266.28 L 2470.09 266.28 L 2470.09 264.511 Q 2473.58 262.029, 2475.63 260.181 Q 2477.72 258.333, 2478.72 256.67 Q 2479.73 255.007, 2479.73 253.291 Q 2479.73 251.496, 2478.83 250.492 Q 2477.93 249.489, 2476.37 249.489 Q 2474.87 249.489, 2473.87 250.096 Q 2472.86 250.704, 2472.15 252.05 L 2470.14 251.126 " fill="#0000FF"/>
<path class="atom-16" d="M 2490.48 223.8 L 2499.76 238.8 Q 2500.68 240.28, 2502.16 242.96 Q 2503.64 245.64, 2503.72 245.8 L 2503.72 223.8 L 2507.48 223.8 L 2507.48 252.12 L 2503.6 252.12 L 2493.64 235.72 Q 2492.48 233.8, 2491.24 231.6 Q 2490.04 229.4, 2489.68 228.72 L 2489.68 252.12 L 2486 252.12 L 2486 223.8 L 2490.48 223.8 " fill="#0000FF"/>
<path class="atom-31" d="M 2638.83 424.651 L 2655.67 424.651 L 2655.67 427.891 L 2642.63 427.891 L 2642.63 436.491 L 2654.23 436.491 L 2654.23 439.771 L 2642.63 439.771 L 2642.63 452.971 L 2638.83 452.971 L 2638.83 424.651 " fill="#33CCCC"/>
<path class="atom-34" d="M 1920 140.248 Q 1920 133.448, 1923.36 129.648 Q 1926.72 125.848, 1933 125.848 Q 1939.28 125.848, 1942.64 129.648 Q 1946 133.448, 1946 140.248 Q 1946 147.128, 1942.6 151.048 Q 1939.2 154.928, 1933 154.928 Q 1926.76 154.928, 1923.36 151.048 Q 1920 147.168, 1920 140.248 M 1933 151.728 Q 1937.32 151.728, 1939.64 148.848 Q 1942 145.928, 1942 140.248 Q 1942 134.688, 1939.64 131.888 Q 1937.32 129.048, 1933 129.048 Q 1928.68 129.048, 1926.32 131.848 Q 1924 134.648, 1924 140.248 Q 1924 145.968, 1926.32 148.848 Q 1928.68 151.728, 1933 151.728 " fill="#FF0000"/>
<path class="atom-34" d="M 1949.4 126.168 L 1953.24 126.168 L 1953.24 138.208 L 1967.72 138.208 L 1967.72 126.168 L 1971.56 126.168 L 1971.56 154.488 L 1967.72 154.488 L 1967.72 141.408 L 1953.24 141.408 L 1953.24 154.488 L 1949.4 154.488 L 1949.4 126.168 " fill="#FF0000"/>
<path class="atom-35" d="M 2139.28 116.596 L 2143.12 116.596 L 2143.12 128.636 L 2157.6 128.636 L 2157.6 116.596 L 2161.44 116.596 L 2161.44 144.916 L 2157.6 144.916 L 2157.6 131.836 L 2143.12 131.836 L 2143.12 144.916 L 2139.28 144.916 L 2139.28 116.596 " fill="#000000"/>
<path class="atom-36" d="M 2082.8 116.596 L 2086.64 116.596 L 2086.64 128.636 L 2101.12 128.636 L 2101.12 116.596 L 2104.96 116.596 L 2104.96 144.916 L 2101.12 144.916 L 2101.12 131.836 L 2086.64 131.836 L 2086.64 144.916 L 2082.8 144.916 L 2082.8 116.596 " fill="#000000"/>
<path class="note" d="M 1577.7 251.743 L 1580.8 251.743 L 1580.8 241.163 L 1577.38 242.223 L 1576.92 241.043 L 1581.26 239.103 L 1582.68 239.343 L 1582.68 251.743 L 1585.46 251.743 L 1585.46 253.343 L 1577.7 253.343 L 1577.7 251.743 " fill="#000000"/>
<path class="note" d="M 1437.9 289.218 Q 1438.42 287.878, 1439.66 287.138 Q 1440.9 286.378, 1442.62 286.378 Q 1444.76 286.378, 1445.96 287.538 Q 1447.16 288.698, 1447.16 290.758 Q 1447.16 292.858, 1445.6 294.818 Q 1444.06 296.778, 1440.86 299.098 L 1447.4 299.098 L 1447.4 300.698 L 1437.86 300.698 L 1437.86 299.358 Q 1440.5 297.478, 1442.06 296.078 Q 1443.64 294.678, 1444.4 293.418 Q 1445.16 292.158, 1445.16 290.858 Q 1445.16 289.498, 1444.48 288.738 Q 1443.8 287.978, 1442.62 287.978 Q 1441.48 287.978, 1440.72 288.438 Q 1439.96 288.898, 1439.42 289.918 L 1437.9 289.218 " fill="#000000"/>
<path class="note" d="M 1376.45 398.567 Q 1377.83 398.967, 1378.49 399.867 Q 1379.17 400.747, 1379.17 402.147 Q 1379.17 403.347, 1378.57 404.287 Q 1377.97 405.207, 1376.87 405.727 Q 1375.77 406.227, 1374.33 406.227 Q 1372.81 406.227, 1371.67 405.707 Q 1370.55 405.167, 1369.65 404.087 L 1370.79 402.927 Q 1371.67 403.887, 1372.41 404.267 Q 1373.15 404.627, 1374.33 404.627 Q 1375.61 404.627, 1376.39 403.947 Q 1377.17 403.247, 1377.17 402.127 Q 1377.17 400.687, 1376.35 400.047 Q 1375.55 399.387, 1373.81 399.387 L 1372.79 399.387 L 1372.79 397.947 L 1373.69 397.947 Q 1375.23 397.927, 1376.05 397.267 Q 1376.87 396.587, 1376.87 395.327 Q 1376.87 394.407, 1376.19 393.867 Q 1375.51 393.307, 1374.35 393.307 Q 1373.17 393.307, 1372.43 393.727 Q 1371.71 394.147, 1371.15 395.207 L 1369.77 394.467 Q 1370.27 393.287, 1371.47 392.507 Q 1372.67 391.707, 1374.35 391.707 Q 1376.43 391.707, 1377.65 392.687 Q 1378.87 393.667, 1378.87 395.327 Q 1378.87 396.467, 1378.25 397.287 Q 1377.63 398.107, 1376.45 398.567 " fill="#000000"/>
<path class="note" d="M 1231.94 393.598 L 1233.64 393.598 L 1233.64 395.198 L 1231.94 395.198 L 1231.94 398.458 L 1230.06 398.458 L 1230.06 395.198 L 1222.74 395.198 L 1222.74 393.938 L 1228.94 384.298 L 1231.94 384.298 L 1231.94 393.598 M 1225.06 393.598 L 1230.06 393.598 L 1230.06 385.578 L 1225.06 393.598 " fill="#000000"/>
<path class="note" d="M 1171.44 277.85 Q 1172.68 277.85, 1173.7 278.39 Q 1174.72 278.91, 1175.3 279.91 Q 1175.88 280.89, 1175.88 282.23 Q 1175.88 283.69, 1175.16 284.75 Q 1174.46 285.79, 1173.3 286.33 Q 1172.14 286.87, 1170.82 286.87 Q 1169.52 286.87, 1168.32 286.39 Q 1167.12 285.91, 1166.3 284.99 L 1167.5 283.75 Q 1168.16 284.47, 1169.06 284.87 Q 1169.96 285.25, 1170.88 285.25 Q 1172.14 285.25, 1173 284.47 Q 1173.88 283.69, 1173.88 282.27 Q 1173.88 280.77, 1173 280.07 Q 1172.14 279.35, 1170.76 279.35 Q 1169.52 279.35, 1168.14 279.89 L 1167.04 279.37 L 1167.72 272.55 L 1175 272.55 L 1174.8 274.15 L 1169.36 274.15 L 1168.94 278.35 Q 1170.2 277.85, 1171.44 277.85 " fill="#000000"/>
<path class="note" d="M 1058.83 233.088 Q 1060.07 233.088, 1061.05 233.628 Q 1062.03 234.168, 1062.57 235.148 Q 1063.11 236.128, 1063.11 237.368 Q 1063.11 238.748, 1062.49 239.828 Q 1061.89 240.888, 1060.81 241.488 Q 1059.73 242.088, 1058.35 242.088 Q 1055.83 242.088, 1054.55 240.388 Q 1053.29 238.668, 1053.29 235.268 Q 1053.29 231.508, 1054.85 229.568 Q 1056.43 227.608, 1059.45 227.608 Q 1060.33 227.608, 1061.07 227.808 Q 1061.83 228.008, 1062.55 228.428 L 1061.77 229.768 Q 1060.73 229.208, 1059.47 229.208 Q 1057.47 229.208, 1056.45 230.508 Q 1055.43 231.788, 1055.31 234.448 Q 1056.03 233.788, 1056.93 233.448 Q 1057.85 233.088, 1058.83 233.088 M 1058.37 240.448 Q 1059.13 240.448, 1059.75 240.048 Q 1060.39 239.648, 1060.75 238.948 Q 1061.11 238.248, 1061.11 237.388 Q 1061.11 236.128, 1060.41 235.408 Q 1059.71 234.688, 1058.47 234.688 Q 1057.61 234.688, 1056.75 235.048 Q 1055.91 235.388, 1055.31 235.988 Q 1055.39 238.328, 1056.13 239.388 Q 1056.87 240.448, 1058.37 240.448 " fill="#000000"/>
<path class="note" d="M 935.589 222.869 L 928.169 222.869 L 928.169 221.269 L 937.569 221.269 L 937.569 222.689 L 931.849 235.429 L 929.929 235.429 L 935.589 222.869 " fill="#000000"/>
<path class="note" d="M 820.06 224.924 Q 821.36 225.484, 822.1 226.324 Q 822.84 227.144, 822.84 228.544 Q 822.84 229.744, 822.22 230.684 Q 821.6 231.604, 820.48 232.124 Q 819.38 232.624, 817.92 232.624 Q 815.56 232.624, 814.2 231.544 Q 812.84 230.444, 812.84 228.544 Q 812.84 227.384, 813.44 226.524 Q 814.04 225.644, 815.28 224.984 Q 814.36 224.464, 813.86 223.704 Q 813.36 222.924, 813.36 221.724 Q 813.36 220.064, 814.56 219.084 Q 815.78 218.104, 817.84 218.104 Q 819.9 218.104, 821.1 219.084 Q 822.32 220.064, 822.32 221.724 Q 822.32 222.764, 821.74 223.544 Q 821.18 224.304, 820.06 224.924 M 817.84 219.604 Q 816.66 219.604, 816 220.164 Q 815.36 220.724, 815.36 221.724 Q 815.36 222.464, 815.8 222.964 Q 816.24 223.444, 816.86 223.724 Q 817.5 224.004, 818.72 224.424 Q 819.58 223.824, 819.94 223.184 Q 820.32 222.544, 820.32 221.724 Q 820.32 220.724, 819.66 220.164 Q 819.02 219.604, 817.84 219.604 M 817.92 231.124 Q 819.24 231.124, 820.04 230.424 Q 820.84 229.704, 820.84 228.524 Q 820.84 227.764, 820.42 227.284 Q 820 226.804, 819.36 226.524 Q 818.74 226.244, 817.62 225.884 L 816.72 225.584 Q 815.72 226.184, 815.28 226.904 Q 814.84 227.604, 814.84 228.524 Q 814.84 229.704, 815.68 230.424 Q 816.52 231.124, 817.92 231.124 " fill="#000000"/>
<path class="note" d="M 760.585 106.356 Q 763.105 106.356, 764.365 108.076 Q 765.645 109.776, 765.645 113.176 Q 765.645 116.936, 764.065 118.896 Q 762.505 120.836, 759.485 120.836 Q 758.605 120.836, 757.845 120.636 Q 757.105 120.436, 756.385 120.016 L 757.165 118.676 Q 758.205 119.236, 759.465 119.236 Q 761.465 119.236, 762.485 117.956 Q 763.505 116.656, 763.625 113.996 Q 762.905 114.656, 761.985 115.016 Q 761.085 115.356, 760.105 115.356 Q 758.865 115.356, 757.885 114.816 Q 756.905 114.276, 756.365 113.296 Q 755.825 112.316, 755.825 111.076 Q 755.825 109.696, 756.425 108.636 Q 757.045 107.556, 758.125 106.956 Q 759.205 106.356, 760.585 106.356 M 757.825 111.056 Q 757.825 112.316, 758.525 113.036 Q 759.225 113.756, 760.465 113.756 Q 761.325 113.756, 762.165 113.416 Q 763.025 113.056, 763.625 112.456 Q 763.545 110.116, 762.805 109.056 Q 762.065 107.996, 760.565 107.996 Q 759.805 107.996, 759.165 108.396 Q 758.545 108.796, 758.185 109.496 Q 757.825 110.196, 757.825 111.056 " fill="#000000"/>
<path class="note" d="M 600.967 111.587 L 604.067 111.587 L 604.067 101.007 L 600.647 102.067 L 600.187 100.887 L 604.527 98.9471 L 605.947 99.1871 L 605.947 111.587 L 608.727 111.587 L 608.727 113.187 L 600.967 113.187 L 600.967 111.587 " fill="#000000"/>
<path class="note" d="M 615.127 113.347 Q 612.527 113.347, 611.227 111.427 Q 609.947 109.507, 609.947 106.087 Q 609.947 102.667, 611.227 100.767 Q 612.507 98.8671, 615.127 98.8671 Q 617.747 98.8671, 619.027 100.767 Q 620.307 102.667, 620.307 106.087 Q 620.307 109.507, 619.007 111.427 Q 617.727 113.347, 615.127 113.347 M 615.127 111.747 Q 616.667 111.747, 617.487 110.327 Q 618.307 108.887, 618.307 106.087 Q 618.307 103.307, 617.487 101.887 Q 616.667 100.467, 615.127 100.467 Q 613.607 100.467, 612.767 101.887 Q 611.947 103.307, 611.947 106.087 Q 611.947 108.887, 612.767 110.327 Q 613.607 111.747, 615.127 111.747 " fill="#000000"/>
<path class="note" d="M 522.353 234.431 L 525.453 234.431 L 525.453 223.851 L 522.033 224.911 L 521.573 223.731 L 525.913 221.791 L 527.333 222.031 L 527.333 234.431 L 530.113 234.431 L 530.113 236.031 L 522.353 236.031 L 522.353 234.431 " fill="#000000"/>
<path class="note" d="M 531.973 234.431 L 535.073 234.431 L 535.073 223.851 L 531.653 224.911 L 531.193 223.731 L 535.533 221.791 L 536.953 222.031 L 536.953 234.431 L 539.733 234.431 L 539.733 236.031 L 531.973 236.031 L 531.973 234.431 " fill="#000000"/>
<path class="note" d="M 588.516 364.843 L 591.616 364.843 L 591.616 354.263 L 588.196 355.323 L 587.736 354.143 L 592.076 352.203 L 593.496 352.443 L 593.496 364.843 L 596.276 364.843 L 596.276 366.443 L 588.516 366.443 L 588.516 364.843 " fill="#000000"/>
<path class="note" d="M 597.316 354.963 Q 597.836 353.623, 599.076 352.883 Q 600.316 352.123, 602.036 352.123 Q 604.176 352.123, 605.376 353.283 Q 606.576 354.443, 606.576 356.503 Q 606.576 358.603, 605.016 360.563 Q 603.476 362.523, 600.276 364.843 L 606.816 364.843 L 606.816 366.443 L 597.276 366.443 L 597.276 365.103 Q 599.916 363.223, 601.476 361.823 Q 603.056 360.423, 603.816 359.163 Q 604.576 357.903, 604.576 356.603 Q 604.576 355.243, 603.896 354.483 Q 603.216 353.723, 602.036 353.723 Q 600.896 353.723, 600.136 354.183 Q 599.376 354.643, 598.836 355.663 L 597.316 354.963 " fill="#000000"/>
<path class="note" d="M 734.824 372.332 L 737.924 372.332 L 737.924 361.752 L 734.504 362.812 L 734.044 361.632 L 738.384 359.692 L 739.804 359.932 L 739.804 372.332 L 742.584 372.332 L 742.584 373.932 L 734.824 373.932 L 734.824 372.332 " fill="#000000"/>
<path class="note" d="M 750.224 366.472 Q 751.604 366.872, 752.264 367.772 Q 752.944 368.652, 752.944 370.052 Q 752.944 371.252, 752.344 372.192 Q 751.744 373.112, 750.644 373.632 Q 749.544 374.132, 748.104 374.132 Q 746.584 374.132, 745.444 373.612 Q 744.324 373.072, 743.424 371.992 L 744.564 370.832 Q 745.444 371.792, 746.184 372.172 Q 746.924 372.532, 748.104 372.532 Q 749.384 372.532, 750.164 371.852 Q 750.944 371.152, 750.944 370.032 Q 750.944 368.592, 750.124 367.952 Q 749.324 367.292, 747.584 367.292 L 746.564 367.292 L 746.564 365.852 L 747.464 365.852 Q 749.004 365.832, 749.824 365.172 Q 750.644 364.492, 750.644 363.232 Q 750.644 362.312, 749.964 361.772 Q 749.284 361.212, 748.124 361.212 Q 746.944 361.212, 746.204 361.632 Q 745.484 362.052, 744.924 363.112 L 743.544 362.372 Q 744.044 361.192, 745.244 360.412 Q 746.444 359.612, 748.124 359.612 Q 750.204 359.612, 751.424 360.592 Q 752.644 361.572, 752.644 363.232 Q 752.644 364.372, 752.024 365.192 Q 751.404 366.012, 750.224 366.472 " fill="#000000"/>
<path class="note" d="M 1227.65 143.642 L 1230.75 143.642 L 1230.75 133.062 L 1227.33 134.122 L 1226.87 132.942 L 1231.21 131.002 L 1232.63 131.242 L 1232.63 143.642 L 1235.41 143.642 L 1235.41 145.242 L 1227.65 145.242 L 1227.65 143.642 " fill="#000000"/>
<path class="note" d="M 1245.21 140.382 L 1246.91 140.382 L 1246.91 141.982 L 1245.21 141.982 L 1245.21 145.242 L 1243.33 145.242 L 1243.33 141.982 L 1236.01 141.982 L 1236.01 140.722 L 1242.21 131.082 L 1245.21 131.082 L 1245.21 140.382 M 1238.33 140.382 L 1243.33 140.382 L 1243.33 132.362 L 1238.33 140.382 " fill="#000000"/>
<path class="note" d="M 1353.48 150.061 L 1356.58 150.061 L 1356.58 139.481 L 1353.16 140.541 L 1352.7 139.361 L 1357.04 137.421 L 1358.46 137.661 L 1358.46 150.061 L 1361.24 150.061 L 1361.24 151.661 L 1353.48 151.661 L 1353.48 150.061 " fill="#000000"/>
<path class="note" d="M 1367.3 142.801 Q 1368.54 142.801, 1369.56 143.341 Q 1370.58 143.861, 1371.16 144.861 Q 1371.74 145.841, 1371.74 147.181 Q 1371.74 148.641, 1371.02 149.701 Q 1370.32 150.741, 1369.16 151.281 Q 1368 151.821, 1366.68 151.821 Q 1365.38 151.821, 1364.18 151.341 Q 1362.98 150.861, 1362.16 149.941 L 1363.36 148.701 Q 1364.02 149.421, 1364.92 149.821 Q 1365.82 150.201, 1366.74 150.201 Q 1368 150.201, 1368.86 149.421 Q 1369.74 148.641, 1369.74 147.221 Q 1369.74 145.721, 1368.86 145.021 Q 1368 144.301, 1366.62 144.301 Q 1365.38 144.301, 1364 144.841 L 1362.9 144.321 L 1363.58 137.501 L 1370.86 137.501 L 1370.66 139.101 L 1365.22 139.101 L 1364.8 143.301 Q 1366.06 142.801, 1367.3 142.801 " fill="#000000"/>
<path class="note" d="M 1453.63 28.2873 L 1456.73 28.2873 L 1456.73 17.7073 L 1453.31 18.7673 L 1452.85 17.5873 L 1457.19 15.6473 L 1458.61 15.8873 L 1458.61 28.2873 L 1461.39 28.2873 L 1461.39 29.8873 L 1453.63 29.8873 L 1453.63 28.2873 " fill="#000000"/>
<path class="note" d="M 1468.29 21.0473 Q 1469.53 21.0473, 1470.51 21.5873 Q 1471.49 22.1273, 1472.03 23.1073 Q 1472.57 24.0873, 1472.57 25.3273 Q 1472.57 26.7073, 1471.95 27.7873 Q 1471.35 28.8473, 1470.27 29.4473 Q 1469.19 30.0473, 1467.81 30.0473 Q 1465.29 30.0473, 1464.01 28.3473 Q 1462.75 26.6273, 1462.75 23.2273 Q 1462.75 19.4673, 1464.31 17.5273 Q 1465.89 15.5673, 1468.91 15.5673 Q 1469.79 15.5673, 1470.53 15.7673 Q 1471.29 15.9673, 1472.01 16.3873 L 1471.23 17.7273 Q 1470.19 17.1673, 1468.93 17.1673 Q 1466.93 17.1673, 1465.91 18.4673 Q 1464.89 19.7473, 1464.77 22.4073 Q 1465.49 21.7473, 1466.39 21.4073 Q 1467.31 21.0473, 1468.29 21.0473 M 1467.83 28.4073 Q 1468.59 28.4073, 1469.21 28.0073 Q 1469.85 27.6073, 1470.21 26.9073 Q 1470.57 26.2073, 1470.57 25.3473 Q 1470.57 24.0873, 1469.87 23.3673 Q 1469.17 22.6473, 1467.93 22.6473 Q 1467.07 22.6473, 1466.21 23.0073 Q 1465.37 23.3473, 1464.77 23.9473 Q 1464.85 26.2873, 1465.59 27.3473 Q 1466.33 28.4073, 1467.83 28.4073 " fill="#000000"/>
<path class="note" d="M 2498.24 285.012 L 2501.34 285.012 L 2501.34 274.432 L 2497.92 275.492 L 2497.46 274.312 L 2501.8 272.372 L 2503.22 272.612 L 2503.22 285.012 L 2506 285.012 L 2506 286.612 L 2498.24 286.612 L 2498.24 285.012 " fill="#000000"/>
<path class="note" d="M 2604.07 201.942 Q 2604.59 200.602, 2605.83 199.862 Q 2607.07 199.102, 2608.79 199.102 Q 2610.93 199.102, 2612.13 200.262 Q 2613.33 201.422, 2613.33 203.482 Q 2613.33 205.582, 2611.77 207.542 Q 2610.23 209.502, 2607.03 211.822 L 2613.57 211.822 L 2613.57 213.422 L 2604.03 213.422 L 2604.03 212.082 Q 2606.67 210.202, 2608.23 208.802 Q 2609.81 207.402, 2610.57 206.142 Q 2611.33 204.882, 2611.33 203.582 Q 2611.33 202.222, 2610.65 201.462 Q 2609.97 200.702, 2608.79 200.702 Q 2607.65 200.702, 2606.89 201.162 Q 2606.13 201.622, 2605.59 202.642 L 2604.07 201.942 " fill="#000000"/>
<path class="note" d="M 2660.18 90.5765 Q 2661.56 90.9765, 2662.22 91.8765 Q 2662.9 92.7565, 2662.9 94.1565 Q 2662.9 95.3565, 2662.3 96.2965 Q 2661.7 97.2165, 2660.6 97.7365 Q 2659.5 98.2365, 2658.06 98.2365 Q 2656.54 98.2365, 2655.4 97.7165 Q 2654.28 97.1765, 2653.38 96.0965 L 2654.52 94.9365 Q 2655.4 95.8965, 2656.14 96.2765 Q 2656.88 96.6365, 2658.06 96.6365 Q 2659.34 96.6365, 2660.12 95.9565 Q 2660.9 95.2565, 2660.9 94.1365 Q 2660.9 92.6965, 2660.08 92.0565 Q 2659.28 91.3965, 2657.54 91.3965 L 2656.52 91.3965 L 2656.52 89.9565 L 2657.42 89.9565 Q 2658.96 89.9365, 2659.78 89.2765 Q 2660.6 88.5965, 2660.6 87.3365 Q 2660.6 86.4165, 2659.92 85.8765 Q 2659.24 85.3165, 2658.08 85.3165 Q 2656.9 85.3165, 2656.16 85.7365 Q 2655.44 86.1565, 2654.88 87.2165 L 2653.5 86.4765 Q 2654 85.2965, 2655.2 84.5165 Q 2656.4 83.7165, 2658.08 83.7165 Q 2660.16 83.7165, 2661.38 84.6965 Q 2662.6 85.6765, 2662.6 87.3365 Q 2662.6 88.4765, 2661.98 89.2965 Q 2661.36 90.1165, 2660.18 90.5765 " fill="#000000"/>
<path class="note" d="M 2807.26 75.6432 L 2808.96 75.6432 L 2808.96 77.2432 L 2807.26 77.2432 L 2807.26 80.5032 L 2805.38 80.5032 L 2805.38 77.2432 L 2798.06 77.2432 L 2798.06 75.9832 L 2804.26 66.3432 L 2807.26 66.3432 L 2807.26 75.6432 M 2800.38 75.6432 L 2805.38 75.6432 L 2805.38 67.6232 L 2800.38 75.6432 " fill="#000000"/>
<path class="note" d="M 2879.11 172.069 Q 2880.35 172.069, 2881.37 172.609 Q 2882.39 173.129, 2882.97 174.129 Q 2883.55 175.109, 2883.55 176.449 Q 2883.55 177.909, 2882.83 178.969 Q 2882.13 180.009, 2880.97 180.549 Q 2879.81 181.089, 2878.49 181.089 Q 2877.19 181.089, 2875.99 180.609 Q 2874.79 180.129, 2873.97 179.209 L 2875.17 177.969 Q 2875.83 178.689, 2876.73 179.089 Q 2877.63 179.469, 2878.55 179.469 Q 2879.81 179.469, 2880.67 178.689 Q 2881.55 177.909, 2881.55 176.489 Q 2881.55 174.989, 2880.67 174.289 Q 2879.81 173.569, 2878.43 173.569 Q 2877.19 173.569, 2875.81 174.109 L 2874.71 173.589 L 2875.39 166.769 L 2882.67 166.769 L 2882.47 168.369 L 2877.03 168.369 L 2876.61 172.569 Q 2877.87 172.069, 2879.11 172.069 " fill="#000000"/>
<path class="note" d="M 3003.99 157.209 Q 3005.23 157.209, 3006.21 157.749 Q 3007.19 158.289, 3007.73 159.269 Q 3008.27 160.249, 3008.27 161.489 Q 3008.27 162.869, 3007.65 163.949 Q 3007.05 165.009, 3005.97 165.609 Q 3004.89 166.209, 3003.51 166.209 Q 3000.99 166.209, 2999.71 164.509 Q 2998.45 162.789, 2998.45 159.389 Q 2998.45 155.629, 3000.01 153.689 Q 3001.59 151.729, 3004.61 151.729 Q 3005.49 151.729, 3006.23 151.929 Q 3006.99 152.129, 3007.71 152.549 L 3006.93 153.889 Q 3005.89 153.329, 3004.63 153.329 Q 3002.63 153.329, 3001.61 154.629 Q 3000.59 155.909, 3000.47 158.569 Q 3001.19 157.909, 3002.09 157.569 Q 3003.01 157.209, 3003.99 157.209 M 3003.53 164.569 Q 3004.29 164.569, 3004.91 164.169 Q 3005.55 163.769, 3005.91 163.069 Q 3006.27 162.369, 3006.27 161.509 Q 3006.27 160.249, 3005.57 159.529 Q 3004.87 158.809, 3003.63 158.809 Q 3002.77 158.809, 3001.91 159.169 Q 3001.07 159.509, 3000.47 160.109 Q 3000.55 162.449, 3001.29 163.509 Q 3002.03 164.569, 3003.53 164.569 " fill="#000000"/>
<path class="note" d="M 3064.89 292.296 L 3057.47 292.296 L 3057.47 290.696 L 3066.87 290.696 L 3066.87 292.116 L 3061.15 304.856 L 3059.23 304.856 L 3064.89 292.296 " fill="#000000"/>
<path class="note" d="M 3188.99 282.476 Q 3190.29 283.036, 3191.03 283.876 Q 3191.77 284.696, 3191.77 286.096 Q 3191.77 287.296, 3191.15 288.236 Q 3190.53 289.156, 3189.41 289.676 Q 3188.31 290.176, 3186.85 290.176 Q 3184.49 290.176, 3183.13 289.096 Q 3181.77 287.996, 3181.77 286.096 Q 3181.77 284.936, 3182.37 284.076 Q 3182.97 283.196, 3184.21 282.536 Q 3183.29 282.016, 3182.79 281.256 Q 3182.29 280.476, 3182.29 279.276 Q 3182.29 277.616, 3183.49 276.636 Q 3184.71 275.656, 3186.77 275.656 Q 3188.83 275.656, 3190.03 276.636 Q 3191.25 277.616, 3191.25 279.276 Q 3191.25 280.316, 3190.67 281.096 Q 3190.11 281.856, 3188.99 282.476 M 3186.77 277.156 Q 3185.59 277.156, 3184.93 277.716 Q 3184.29 278.276, 3184.29 279.276 Q 3184.29 280.016, 3184.73 280.516 Q 3185.17 280.996, 3185.79 281.276 Q 3186.43 281.556, 3187.65 281.976 Q 3188.51 281.376, 3188.87 280.736 Q 3189.25 280.096, 3189.25 279.276 Q 3189.25 278.276, 3188.59 277.716 Q 3187.95 277.156, 3186.77 277.156 M 3186.85 288.676 Q 3188.17 288.676, 3188.97 287.976 Q 3189.77 287.256, 3189.77 286.076 Q 3189.77 285.316, 3189.35 284.836 Q 3188.93 284.356, 3188.29 284.076 Q 3187.67 283.796, 3186.55 283.436 L 3185.65 283.136 Q 3184.65 283.736, 3184.21 284.456 Q 3183.77 285.156, 3183.77 286.076 Q 3183.77 287.256, 3184.61 287.976 Q 3185.45 288.676, 3186.85 288.676 " fill="#000000"/>
<path class="note" d="M 3261.87 376.082 Q 3264.39 376.082, 3265.65 377.802 Q 3266.93 379.502, 3266.93 382.902 Q 3266.93 386.662, 3265.35 388.622 Q 3263.79 390.562, 3260.77 390.562 Q 3259.89 390.562, 3259.13 390.362 Q 3258.39 390.162, 3257.67 389.742 L 3258.45 388.402 Q 3259.49 388.962, 3260.75 388.962 Q 3262.75 388.962, 3263.77 387.682 Q 3264.79 386.382, 3264.91 383.722 Q 3264.19 384.382, 3263.27 384.742 Q 3262.37 385.082, 3261.39 385.082 Q 3260.15 385.082, 3259.17 384.542 Q 3258.19 384.002, 3257.65 383.022 Q 3257.11 382.042, 3257.11 380.802 Q 3257.11 379.422, 3257.71 378.362 Q 3258.33 377.282, 3259.41 376.682 Q 3260.49 376.082, 3261.87 376.082 M 3259.11 380.782 Q 3259.11 382.042, 3259.81 382.762 Q 3260.51 383.482, 3261.75 383.482 Q 3262.61 383.482, 3263.45 383.142 Q 3264.31 382.782, 3264.91 382.182 Q 3264.83 379.842, 3264.09 378.782 Q 3263.35 377.722, 3261.85 377.722 Q 3261.09 377.722, 3260.45 378.122 Q 3259.83 378.522, 3259.47 379.222 Q 3259.11 379.922, 3259.11 380.782 " fill="#000000"/>
<path class="note" d="M 3393.84 371.349 L 3396.94 371.349 L 3396.94 360.769 L 3393.52 361.829 L 3393.06 360.649 L 3397.4 358.709 L 3398.82 358.949 L 3398.82 371.349 L 3401.6 371.349 L 3401.6 372.949 L 3393.84 372.949 L 3393.84 371.349 " fill="#000000"/>
<path class="note" d="M 3408 373.109 Q 3405.4 373.109, 3404.1 371.189 Q 3402.82 369.269, 3402.82 365.849 Q 3402.82 362.429, 3404.1 360.529 Q 3405.38 358.629, 3408 358.629 Q 3410.62 358.629, 3411.9 360.529 Q 3413.18 362.429, 3413.18 365.849 Q 3413.18 369.269, 3411.88 371.189 Q 3410.6 373.109, 3408 373.109 M 3408 371.509 Q 3409.54 371.509, 3410.36 370.089 Q 3411.18 368.649, 3411.18 365.849 Q 3411.18 363.069, 3410.36 361.649 Q 3409.54 360.229, 3408 360.229 Q 3406.48 360.229, 3405.64 361.649 Q 3404.82 363.069, 3404.82 365.849 Q 3404.82 368.649, 3405.64 370.089 Q 3406.48 371.509, 3408 371.509 " fill="#000000"/>
<path class="note" d="M 3452.39 236.692 L 3455.49 236.692 L 3455.49 226.112 L 3452.07 227.172 L 3451.61 225.992 L 3455.95 224.052 L 3457.37 224.292 L 3457.37 236.692 L 3460.15 236.692 L 3460.15 238.292 L 3452.39 238.292 L 3452.39 236.692 " fill="#000000"/>
<path class="note" d="M 3462.01 236.692 L 3465.11 236.692 L 3465.11 226.112 L 3461.69 227.172 L 3461.23 225.992 L 3465.57 224.052 L 3466.99 224.292 L 3466.99 236.692 L 3469.77 236.692 L 3469.77 238.292 L 3462.01 238.292 L 3462.01 236.692 " fill="#000000"/>
<path class="note" d="M 3364.13 119.569 L 3367.23 119.569 L 3367.23 108.989 L 3363.81 110.049 L 3363.35 108.869 L 3367.69 106.929 L 3369.11 107.169 L 3369.11 119.569 L 3371.89 119.569 L 3371.89 121.169 L 3364.13 121.169 L 3364.13 119.569 " fill="#000000"/>
<path class="note" d="M 3372.93 109.689 Q 3373.45 108.349, 3374.69 107.609 Q 3375.93 106.849, 3377.65 106.849 Q 3379.79 106.849, 3380.99 108.009 Q 3382.19 109.169, 3382.19 111.229 Q 3382.19 113.329, 3380.63 115.289 Q 3379.09 117.249, 3375.89 119.569 L 3382.43 119.569 L 3382.43 121.169 L 3372.89 121.169 L 3372.89 119.829 Q 3375.53 117.949, 3377.09 116.549 Q 3378.67 115.149, 3379.43 113.889 Q 3380.19 112.629, 3380.19 111.329 Q 3380.19 109.969, 3379.51 109.209 Q 3378.83 108.449, 3377.65 108.449 Q 3376.51 108.449, 3375.75 108.909 Q 3374.99 109.369, 3374.45 110.389 L 3372.93 109.689 " fill="#000000"/>
<path class="note" d="M 3218.85 137.022 L 3221.95 137.022 L 3221.95 126.442 L 3218.53 127.502 L 3218.07 126.322 L 3222.41 124.382 L 3223.83 124.622 L 3223.83 137.022 L 3226.61 137.022 L 3226.61 138.622 L 3218.85 138.622 L 3218.85 137.022 " fill="#000000"/>
<path class="note" d="M 3234.25 131.162 Q 3235.63 131.562, 3236.29 132.462 Q 3236.97 133.342, 3236.97 134.742 Q 3236.97 135.942, 3236.37 136.882 Q 3235.77 137.802, 3234.67 138.322 Q 3233.57 138.822, 3232.13 138.822 Q 3230.61 138.822, 3229.47 138.302 Q 3228.35 137.762, 3227.45 136.682 L 3228.59 135.522 Q 3229.47 136.482, 3230.21 136.862 Q 3230.95 137.222, 3232.13 137.222 Q 3233.41 137.222, 3234.19 136.542 Q 3234.97 135.842, 3234.97 134.722 Q 3234.97 133.282, 3234.15 132.642 Q 3233.35 131.982, 3231.61 131.982 L 3230.59 131.982 L 3230.59 130.542 L 3231.49 130.542 Q 3233.03 130.522, 3233.85 129.862 Q 3234.67 129.182, 3234.67 127.922 Q 3234.67 127.002, 3233.99 126.462 Q 3233.31 125.902, 3232.15 125.902 Q 3230.97 125.902, 3230.23 126.322 Q 3229.51 126.742, 3228.95 127.802 L 3227.57 127.062 Q 3228.07 125.882, 3229.27 125.102 Q 3230.47 124.302, 3232.15 124.302 Q 3234.23 124.302, 3235.45 125.282 Q 3236.67 126.262, 3236.67 127.922 Q 3236.67 129.062, 3236.05 129.882 Q 3235.43 130.702, 3234.25 131.162 " fill="#000000"/>
<path class="note" d="M 2820.23 330.723 L 2823.33 330.723 L 2823.33 320.143 L 2819.91 321.203 L 2819.45 320.023 L 2823.79 318.083 L 2825.21 318.323 L 2825.21 330.723 L 2827.99 330.723 L 2827.99 332.323 L 2820.23 332.323 L 2820.23 330.723 " fill="#000000"/>
<path class="note" d="M 2837.79 327.463 L 2839.49 327.463 L 2839.49 329.063 L 2837.79 329.063 L 2837.79 332.323 L 2835.91 332.323 L 2835.91 329.063 L 2828.59 329.063 L 2828.59 327.803 L 2834.79 318.163 L 2837.79 318.163 L 2837.79 327.463 M 2830.91 327.463 L 2835.91 327.463 L 2835.91 319.443 L 2830.91 327.463 " fill="#000000"/>
<path class="note" d="M 2662.82 331.439 L 2665.92 331.439 L 2665.92 320.859 L 2662.5 321.919 L 2662.04 320.739 L 2666.38 318.799 L 2667.8 319.039 L 2667.8 331.439 L 2670.58 331.439 L 2670.58 333.039 L 2662.82 333.039 L 2662.82 331.439 " fill="#000000"/>
<path class="note" d="M 2676.64 324.179 Q 2677.88 324.179, 2678.9 324.719 Q 2679.92 325.239, 2680.5 326.239 Q 2681.08 327.219, 2681.08 328.559 Q 2681.08 330.019, 2680.36 331.079 Q 2679.66 332.119, 2678.5 332.659 Q 2677.34 333.199, 2676.02 333.199 Q 2674.72 333.199, 2673.52 332.719 Q 2672.32 332.239, 2671.5 331.319 L 2672.7 330.079 Q 2673.36 330.799, 2674.26 331.199 Q 2675.16 331.579, 2676.08 331.579 Q 2677.34 331.579, 2678.2 330.799 Q 2679.08 330.019, 2679.08 328.599 Q 2679.08 327.099, 2678.2 326.399 Q 2677.34 325.679, 2675.96 325.679 Q 2674.72 325.679, 2673.34 326.219 L 2672.24 325.699 L 2672.92 318.879 L 2680.2 318.879 L 2680 320.479 L 2674.56 320.479 L 2674.14 324.679 Q 2675.4 324.179, 2676.64 324.179 " fill="#000000"/>
<path class="note" d="M 2617.46 482.833 L 2620.56 482.833 L 2620.56 472.253 L 2617.14 473.313 L 2616.68 472.133 L 2621.02 470.193 L 2622.44 470.433 L 2622.44 482.833 L 2625.22 482.833 L 2625.22 484.433 L 2617.46 484.433 L 2617.46 482.833 " fill="#000000"/>
<path class="note" d="M 2632.12 475.593 Q 2633.36 475.593, 2634.34 476.133 Q 2635.32 476.673, 2635.86 477.653 Q 2636.4 478.633, 2636.4 479.873 Q 2636.4 481.253, 2635.78 482.333 Q 2635.18 483.393, 2634.1 483.993 Q 2633.02 484.593, 2631.64 484.593 Q 2629.12 484.593, 2627.84 482.893 Q 2626.58 481.173, 2626.58 477.773 Q 2626.58 474.013, 2628.14 472.073 Q 2629.72 470.113, 2632.74 470.113 Q 2633.62 470.113, 2634.36 470.313 Q 2635.12 470.513, 2635.84 470.933 L 2635.06 472.273 Q 2634.02 471.713, 2632.76 471.713 Q 2630.76 471.713, 2629.74 473.013 Q 2628.72 474.293, 2628.6 476.953 Q 2629.32 476.293, 2630.22 475.953 Q 2631.14 475.593, 2632.12 475.593 M 2631.66 482.953 Q 2632.42 482.953, 2633.04 482.553 Q 2633.68 482.153, 2634.04 481.453 Q 2634.4 480.753, 2634.4 479.893 Q 2634.4 478.633, 2633.7 477.913 Q 2633 477.193, 2631.76 477.193 Q 2630.9 477.193, 2630.04 477.553 Q 2629.2 477.893, 2628.6 478.493 Q 2628.68 480.833, 2629.42 481.893 Q 2630.16 482.953, 2631.66 482.953 " fill="#000000"/>
<path d="M 1751.53,248.324 L 2261.83,248.324" style="fill:none;fill-rule:evenodd;stroke:#000000;stroke-width:2.0px;stroke-linecap:butt;stroke-linejoin:miter;stroke-opacity:1"/>
<path d="M 2261.83,248.324 L 2239.73,235.566" style="fill:none;fill-rule:evenodd;stroke:#000000;stroke-width:2.0px;stroke-linecap:butt;stroke-linejoin:miter;stroke-opacity:1"/>
<path d="M 2261.83,248.324 L 2239.73,261.081" style="fill:none;fill-rule:evenodd;stroke:#000000;stroke-width:2.0px;stroke-linecap:butt;stroke-linejoin:miter;stroke-opacity:1"/>
</svg>