<svg baseProfile="full" height="500px" version="1.1" viewBox="0 0 4000 500" width="4000px" xml:space="preserve" xmlns="http://www.w3.org/2000/svg" xmlns:rdkit="http://www.rdkit.org/xml" xmlns:xlink="http://www.w3.org/1999/xlink">
<!-- END OF HEADER -->
<rect height="500" style="opacity:1.0;fill:#FFFFFF;stroke:none" width="4000" x="0" y="0"> </rect>
<path d="M 576.065,404.849 L 710.168,327.424" style="fill:none;fill-rule:evenodd;stroke:#FFFFAA;stroke-width:33px;stroke-linecap:butt;stroke-linejoin:miter;stroke-opacity:1"/>
<path d="M 710.168,327.424 L 710.168,172.576" style="fill:none;fill-rule:evenodd;stroke:#FFFFAA;stroke-width:33px;stroke-linecap:butt;stroke-linejoin:miter;stroke-opacity:1"/>
<path d="M 710.168,327.424 L 844.271,404.849" style="fill:none;fill-rule:evenodd;stroke:#FFFFAA;stroke-width:33px;stroke-linecap:butt;stroke-linejoin:miter;stroke-opacity:1"/>
<path d="M 710.168,172.576 L 844.271,95.1513" style="fill:none;fill-rule:evenodd;stroke:#FFFFAA;stroke-width:33px;stroke-linecap:butt;stroke-linejoin:miter;stroke-opacity:1"/>
<path d="M 844.271,95.1513 L 978.374,172.576" style="fill:none;fill-rule:evenodd;stroke:#FFFFAA;stroke-width:33px;stroke-linecap:butt;stroke-linejoin:miter;stroke-opacity:1"/>
<path d="M 978.374,172.576 L 978.374,327.424" style="fill:none;fill-rule:evenodd;stroke:#FFFFAA;stroke-width:33px;stroke-linecap:butt;stroke-linejoin:miter;stroke-opacity:1"/>
<path d="M 978.374,327.424 L 1112.48,404.849" style="fill:none;fill-rule:evenodd;stroke:#FFFFAA;stroke-width:33px;stroke-linecap:butt;stroke-linejoin:miter;stroke-opacity:1"/>
<path d="M 978.374,327.424 L 844.271,404.849" style="fill:none;fill-rule:evenodd;stroke:#FFFFAA;stroke-width:33px;stroke-linecap:butt;stroke-linejoin:miter;stroke-opacity:1"/>
<path d="M 2894.38,404.849 L 3028.48,327.424" style="fill:none;fill-rule:evenodd;stroke:#FFFFAA;stroke-width:33px;stroke-linecap:butt;stroke-linejoin:miter;stroke-opacity:1"/>
<path d="M 3028.48,327.424 L 3028.48,172.576" style="fill:none;fill-rule:evenodd;stroke:#FFFFAA;stroke-width:33px;stroke-linecap:butt;stroke-linejoin:miter;stroke-opacity:1"/>
<path d="M 3028.48,327.424 L 3162.58,404.849" style="fill:none;fill-rule:evenodd;stroke:#FFFFAA;stroke-width:33px;stroke-linecap:butt;stroke-linejoin:miter;stroke-opacity:1"/>
<path d="M 3028.48,172.576 L 3162.58,95.1513" style="fill:none;fill-rule:evenodd;stroke:#FFFFAA;stroke-width:33px;stroke-linecap:butt;stroke-linejoin:miter;stroke-opacity:1"/>
<path d="M 3162.58,95.1513 L 3296.68,172.576" style="fill:none;fill-rule:evenodd;stroke:#FFFFAA;stroke-width:33px;stroke-linecap:butt;stroke-linejoin:miter;stroke-opacity:1"/>
<path d="M 3296.68,172.576 L 3296.68,327.424" style="fill:none;fill-rule:evenodd;stroke:#FFFFAA;stroke-width:33px;stroke-linecap:butt;stroke-linejoin:miter;stroke-opacity:1"/>
<path d="M 3296.68,327.424 L 3430.79,404.849" style="fill:none;fill-rule:evenodd;stroke:#FFFFAA;stroke-width:33px;stroke-linecap:butt;stroke-linejoin:miter;stroke-opacity:1"/>
<path d="M 3296.68,327.424 L 3162.58,404.849" style="fill:none;fill-rule:evenodd;stroke:#FFFFAA;stroke-width:33px;stroke-linecap:butt;stroke-linejoin:miter;stroke-opacity:1"/>
<ellipse cx="558.73" cy="404.849" rx="58.47" ry="31.1127" style="fill:#FFFFAA;fill-rule:evenodd;stroke:#FFFFAA;stroke-width:2px;stroke-linecap:butt;stroke-linejoin:miter;stroke-opacity:1"/>
<ellipse cx="710.168" cy="327.424" rx="30.9697" ry="30.9697" style="fill:#FFFFAA;fill-rule:evenodd;stroke:#FFFFAA;stroke-width:2px;stroke-linecap:butt;stroke-linejoin:miter;stroke-opacity:1"/>
<ellipse cx="710.168" cy="172.576" rx="30.9697" ry="30.9697" style="fill:#FFFFAA;fill-rule:evenodd;stroke:#FFFFAA;stroke-width:2px;stroke-linecap:butt;stroke-linejoin:miter;stroke-opacity:1"/>
<ellipse cx="844.271" cy="95.1513" rx="30.9697" ry="30.9697" style="fill:#FFFFAA;fill-rule:evenodd;stroke:#FFFFAA;stroke-width:2px;stroke-linecap:butt;stroke-linejoin:miter;stroke-opacity:1"/>
<ellipse cx="978.374" cy="172.576" rx="30.9697" ry="30.9697" style="fill:#FFFFAA;fill-rule:evenodd;stroke:#FFFFAA;stroke-width:2px;stroke-linecap:butt;stroke-linejoin:miter;stroke-opacity:1"/>
<ellipse cx="978.374" cy="327.424" rx="30.9697" ry="30.9697" style="fill:#FFFFAA;fill-rule:evenodd;stroke:#FFFFAA;stroke-width:2px;stroke-linecap:butt;stroke-linejoin:miter;stroke-opacity:1"/>
<ellipse cx="1129.81" cy="404.849" rx="50.9321" ry="30.9697" style="fill:#FFFFAA;fill-rule:evenodd;stroke:#FFFFAA;stroke-width:2px;stroke-linecap:butt;stroke-linejoin:miter;stroke-opacity:1"/>
<ellipse cx="844.271" cy="404.849" rx="30.9697" ry="30.9697" style="fill:#FFFFAA;fill-rule:evenodd;stroke:#FFFFAA;stroke-width:2px;stroke-linecap:butt;stroke-linejoin:miter;stroke-opacity:1"/>
<ellipse cx="2877.04" cy="404.849" rx="58.47" ry="31.1127" style="fill:#FFFFAA;fill-rule:evenodd;stroke:#FFFFAA;stroke-width:2px;stroke-linecap:butt;stroke-linejoin:miter;stroke-opacity:1"/>
<ellipse cx="3028.48" cy="327.424" rx="30.9697" ry="30.9697" style="fill:#FFFFAA;fill-rule:evenodd;stroke:#FFFFAA;stroke-width:2px;stroke-linecap:butt;stroke-linejoin:miter;stroke-opacity:1"/>
<ellipse cx="3028.48" cy="172.576" rx="30.9697" ry="30.9697" style="fill:#FFFFAA;fill-rule:evenodd;stroke:#FFFFAA;stroke-width:2px;stroke-linecap:butt;stroke-linejoin:miter;stroke-opacity:1"/>
<ellipse cx="3162.58" cy="75.1513" rx="30.9697" ry="56.5685" style="fill:#FFFFAA;fill-rule:evenodd;stroke:#FFFFAA;stroke-width:2px;stroke-linecap:butt;stroke-linejoin:miter;stroke-opacity:1"/>
<ellipse cx="3296.68" cy="172.576" rx="30.9697" ry="30.9697" style="fill:#FFFFAA;fill-rule:evenodd;stroke:#FFFFAA;stroke-width:2px;stroke-linecap:butt;stroke-linejoin:miter;stroke-opacity:1"/>
<ellipse cx="3296.68" cy="327.424" rx="30.9697" ry="30.9697" style="fill:#FFFFAA;fill-rule:evenodd;stroke:#FFFFAA;stroke-width:2px;stroke-linecap:butt;stroke-linejoin:miter;stroke-opacity:1"/>
<ellipse cx="3448.12" cy="404.849" rx="50.9321" ry="30.9697" style="fill:#FFFFAA;fill-rule:evenodd;stroke:#FFFFAA;stroke-width:2px;stroke-linecap:butt;stroke-linejoin:miter;stroke-opacity:1"/>
<ellipse cx="3162.58" cy="404.849" rx="30.9697" ry="30.9697" style="fill:#FFFFAA;fill-rule:evenodd;stroke:#FFFFAA;stroke-width:2px;stroke-linecap:butt;stroke-linejoin:miter;stroke-opacity:1"/>
<path class="bond-0" d="M 600.075,390.987 L 655.122,359.206" style="fill:none;fill-rule:evenodd;stroke:#0000FF;stroke-width:4px;stroke-linecap:butt;stroke-linejoin:miter;stroke-opacity:1"/>
<path class="bond-0" d="M 655.122,359.206 L 710.168,327.424" style="fill:none;fill-rule:evenodd;stroke:#000000;stroke-width:4px;stroke-linecap:butt;stroke-linejoin:miter;stroke-opacity:1"/>
<path class="bond-1" d="M 710.168,327.424 L 710.168,172.576" style="fill:none;fill-rule:evenodd;stroke:#000000;stroke-width:4px;stroke-linecap:butt;stroke-linejoin:miter;stroke-opacity:1"/>
<path class="bond-1" d="M 741.138,304.197 L 741.138,195.803" style="fill:none;fill-rule:evenodd;stroke:#000000;stroke-width:4px;stroke-linecap:butt;stroke-linejoin:miter;stroke-opacity:1"/>
<path class="bond-7" d="M 710.168,327.424 L 844.271,404.849" style="fill:none;fill-rule:evenodd;stroke:#000000;stroke-width:4px;stroke-linecap:butt;stroke-linejoin:miter;stroke-opacity:1"/>
<path class="bond-2" d="M 710.168,172.576 L 768.552,138.868" style="fill:none;fill-rule:evenodd;stroke:#000000;stroke-width:4px;stroke-linecap:butt;stroke-linejoin:miter;stroke-opacity:1"/>
<path class="bond-2" d="M 768.552,138.868 L 826.936,105.16" style="fill:none;fill-rule:evenodd;stroke:#0000FF;stroke-width:4px;stroke-linecap:butt;stroke-linejoin:miter;stroke-opacity:1"/>
<path class="bond-3" d="M 861.606,105.16 L 919.99,138.868" style="fill:none;fill-rule:evenodd;stroke:#0000FF;stroke-width:4px;stroke-linecap:butt;stroke-linejoin:miter;stroke-opacity:1"/>
<path class="bond-3" d="M 919.99,138.868 L 978.374,172.576" style="fill:none;fill-rule:evenodd;stroke:#000000;stroke-width:4px;stroke-linecap:butt;stroke-linejoin:miter;stroke-opacity:1"/>
<path class="bond-3" d="M 863.636,142.093 L 904.505,165.688" style="fill:none;fill-rule:evenodd;stroke:#0000FF;stroke-width:4px;stroke-linecap:butt;stroke-linejoin:miter;stroke-opacity:1"/>
<path class="bond-3" d="M 904.505,165.688 L 945.374,189.284" style="fill:none;fill-rule:evenodd;stroke:#000000;stroke-width:4px;stroke-linecap:butt;stroke-linejoin:miter;stroke-opacity:1"/>
<path class="bond-4" d="M 978.374,172.576 L 978.374,327.424" style="fill:none;fill-rule:evenodd;stroke:#000000;stroke-width:4px;stroke-linecap:butt;stroke-linejoin:miter;stroke-opacity:1"/>
<path class="bond-5" d="M 978.374,327.424 L 1036.09,360.744" style="fill:none;fill-rule:evenodd;stroke:#000000;stroke-width:4px;stroke-linecap:butt;stroke-linejoin:miter;stroke-opacity:1"/>
<path class="bond-5" d="M 1036.09,360.744 L 1093.8,394.064" style="fill:none;fill-rule:evenodd;stroke:#FF0000;stroke-width:4px;stroke-linecap:butt;stroke-linejoin:miter;stroke-opacity:1"/>
<path class="bond-6" d="M 978.374,327.424 L 844.271,404.849" style="fill:none;fill-rule:evenodd;stroke:#000000;stroke-width:4px;stroke-linecap:butt;stroke-linejoin:miter;stroke-opacity:1"/>
<path class="bond-6" d="M 942.774,312.217 L 848.902,366.414" style="fill:none;fill-rule:evenodd;stroke:#000000;stroke-width:4px;stroke-linecap:butt;stroke-linejoin:miter;stroke-opacity:1"/>
<path class="bond-8" d="M 2918.39,390.987 L 2973.43,359.206" style="fill:none;fill-rule:evenodd;stroke:#0000FF;stroke-width:4px;stroke-linecap:butt;stroke-linejoin:miter;stroke-opacity:1"/>
<path class="bond-8" d="M 2973.43,359.206 L 3028.48,327.424" style="fill:none;fill-rule:evenodd;stroke:#000000;stroke-width:4px;stroke-linecap:butt;stroke-linejoin:miter;stroke-opacity:1"/>
<path class="bond-9" d="M 3028.48,327.424 L 3028.48,172.576" style="fill:none;fill-rule:evenodd;stroke:#000000;stroke-width:4px;stroke-linecap:butt;stroke-linejoin:miter;stroke-opacity:1"/>
<path class="bond-15" d="M 3028.48,327.424 L 3162.58,404.849" style="fill:none;fill-rule:evenodd;stroke:#000000;stroke-width:4px;stroke-linecap:butt;stroke-linejoin:miter;stroke-opacity:1"/>
<path class="bond-10" d="M 3028.48,172.576 L 3086.86,138.868" style="fill:none;fill-rule:evenodd;stroke:#000000;stroke-width:4px;stroke-linecap:butt;stroke-linejoin:miter;stroke-opacity:1"/>
<path class="bond-10" d="M 3086.86,138.868 L 3145.25,105.16" style="fill:none;fill-rule:evenodd;stroke:#0000FF;stroke-width:4px;stroke-linecap:butt;stroke-linejoin:miter;stroke-opacity:1"/>
<path class="bond-11" d="M 3179.92,105.16 L 3238.3,138.868" style="fill:none;fill-rule:evenodd;stroke:#0000FF;stroke-width:4px;stroke-linecap:butt;stroke-linejoin:miter;stroke-opacity:1"/>
<path class="bond-11" d="M 3238.3,138.868 L 3296.68,172.576" style="fill:none;fill-rule:evenodd;stroke:#000000;stroke-width:4px;stroke-linecap:butt;stroke-linejoin:miter;stroke-opacity:1"/>
<path class="bond-12" d="M 3296.68,172.576 L 3296.68,327.424" style="fill:none;fill-rule:evenodd;stroke:#000000;stroke-width:4px;stroke-linecap:butt;stroke-linejoin:miter;stroke-opacity:1"/>
<path class="bond-13" d="M 3296.68,327.424 L 3354.4,360.744" style="fill:none;fill-rule:evenodd;stroke:#000000;stroke-width:4px;stroke-linecap:butt;stroke-linejoin:miter;stroke-opacity:1"/>
<path class="bond-13" d="M 3354.4,360.744 L 3412.11,394.064" style="fill:none;fill-rule:evenodd;stroke:#FF0000;stroke-width:4px;stroke-linecap:butt;stroke-linejoin:miter;stroke-opacity:1"/>
<path class="bond-14" d="M 3296.68,327.424 L 3162.58,404.849" style="fill:none;fill-rule:evenodd;stroke:#000000;stroke-width:4px;stroke-linecap:butt;stroke-linejoin:miter;stroke-opacity:1"/>
<path class="bond-16" d="M 1716.48,185.967 L 1729.31,178.562" style="fill:none;fill-rule:evenodd;stroke:#FF0000;stroke-width:4px;stroke-linecap:butt;stroke-linejoin:miter;stroke-opacity:1"/>
<path class="bond-16" d="M 1729.31,178.562 L 1742.13,171.157" style="fill:none;fill-rule:evenodd;stroke:#FF7F00;stroke-width:4px;stroke-linecap:butt;stroke-linejoin:miter;stroke-opacity:1"/>
<path class="bond-16" d="M 1707.19,169.875 L 1720.02,162.47" style="fill:none;fill-rule:evenodd;stroke:#FF0000;stroke-width:4px;stroke-linecap:butt;stroke-linejoin:miter;stroke-opacity:1"/>
<path class="bond-16" d="M 1720.02,162.47 L 1732.84,155.065" style="fill:none;fill-rule:evenodd;stroke:#FF7F00;stroke-width:4px;stroke-linecap:butt;stroke-linejoin:miter;stroke-opacity:1"/>
<path class="bond-17" d="M 1769.52,144.619 L 1782.34,137.214" style="fill:none;fill-rule:evenodd;stroke:#FF7F00;stroke-width:4px;stroke-linecap:butt;stroke-linejoin:miter;stroke-opacity:1"/>
<path class="bond-17" d="M 1782.34,137.214 L 1795.17,129.808" style="fill:none;fill-rule:evenodd;stroke:#FF0000;stroke-width:4px;stroke-linecap:butt;stroke-linejoin:miter;stroke-opacity:1"/>
<path class="bond-18" d="M 1765.05,173.865 L 1770.92,184.038" style="fill:none;fill-rule:evenodd;stroke:#FF7F00;stroke-width:4px;stroke-linecap:butt;stroke-linejoin:miter;stroke-opacity:1"/>
<path class="bond-18" d="M 1770.92,184.038 L 1776.8,194.211" style="fill:none;fill-rule:evenodd;stroke:#FF0000;stroke-width:4px;stroke-linecap:butt;stroke-linejoin:miter;stroke-opacity:1"/>
<path class="bond-19" d="M 1741.96,133.865 L 1736.08,123.692" style="fill:none;fill-rule:evenodd;stroke:#FF7F00;stroke-width:4px;stroke-linecap:butt;stroke-linejoin:miter;stroke-opacity:1"/>
<path class="bond-19" d="M 1736.08,123.692 L 1730.21,113.518" style="fill:none;fill-rule:evenodd;stroke:#FF0000;stroke-width:4px;stroke-linecap:butt;stroke-linejoin:miter;stroke-opacity:1"/>
<text dominant-baseline="central" style="font-size:40px;font-style:normal;font-weight:normal;fill-opacity:1;stroke:none;font-family:sans-serif;fill:#0000FF" text-anchor="end" x="589" y="411.449"><tspan>H</tspan><tspan style="baseline-shift:sub;font-size:30px;">2</tspan><tspan>N</tspan></text>
<text dominant-baseline="central" style="font-size:40px;font-style:normal;font-weight:normal;fill-opacity:1;stroke:none;font-family:sans-serif;fill:#0000FF" text-anchor="middle" x="844.271" y="101.151"><tspan>N</tspan></text>
<text dominant-baseline="central" style="font-size:40px;font-style:normal;font-weight:normal;fill-opacity:1;stroke:none;font-family:sans-serif;fill:#FF0000" text-anchor="start" x="1097.8" y="410.849"><tspan>OH</tspan></text>
<text dominant-baseline="central" style="font-size:40px;font-style:normal;font-weight:normal;fill-opacity:1;stroke:none;font-family:sans-serif;fill:#0000FF" text-anchor="end" x="2907.31" y="411.449"><tspan>H</tspan><tspan style="baseline-shift:sub;font-size:30px;">2</tspan><tspan>N</tspan></text>
<text dominant-baseline="central" style="font-size:40px;font-style:normal;font-weight:normal;fill-opacity:1;stroke:none;font-family:sans-serif;fill:#0000FF" text-anchor="middle" x="3162.58" y="101.151"><tspan>N</tspan></text>
<text dominant-baseline="central" style="font-size:40px;font-style:normal;font-weight:normal;fill-opacity:1;stroke:none;font-family:sans-serif;fill:#0000FF" text-anchor="start" x="3149.25" y="61.1513"><tspan>H</tspan></text>
<text dominant-baseline="central" style="font-size:40px;font-style:normal;font-weight:normal;fill-opacity:1;stroke:none;font-family:sans-serif;fill:#FF0000" text-anchor="start" x="3416.11" y="410.849"><tspan>OH</tspan></text>
<text dominant-baseline="central" style="font-size:40px;font-style:normal;font-weight:normal;fill-opacity:1;stroke:none;font-family:sans-serif;fill:#FF0000" text-anchor="end" x="1527.42" y="160.465"><tspan>H</tspan><tspan style="baseline-shift:sub;font-size:30px;">2</tspan><tspan>O</tspan></text>
<text dominant-baseline="central" style="font-size:40px;font-style:normal;font-weight:normal;fill-opacity:1;stroke:none;font-family:sans-serif;fill:#FF0000" text-anchor="end" x="1707.84" y="194.706"><tspan>O</tspan></text>
<text dominant-baseline="central" style="font-size:40px;font-style:normal;font-weight:normal;fill-opacity:1;stroke:none;font-family:sans-serif;fill:#FF7F00" text-anchor="middle" x="1753.5" y="159.865"><tspan>P</tspan></text>
<text dominant-baseline="central" style="font-size:40px;font-style:normal;font-weight:normal;fill-opacity:1;stroke:none;font-family:sans-serif;fill:#FF0000" text-anchor="start" x="1799.17" y="125.024"><tspan>OH</tspan></text>
<text dominant-baseline="central" style="font-size:40px;font-style:normal;font-weight:normal;fill-opacity:1;stroke:none;font-family:sans-serif;fill:#FF0000" text-anchor="start" x="1773.66" y="220.211"><tspan>OH</tspan></text>
<text dominant-baseline="central" style="font-size:40px;font-style:normal;font-weight:normal;fill-opacity:1;stroke:none;font-family:sans-serif;fill:#FF0000" text-anchor="end" x="1733.34" y="99.5185"><tspan>HO</tspan></text>
<text dominant-baseline="central" style="font-size:40px;font-style:normal;font-weight:normal;fill-opacity:1;stroke:none;font-family:sans-serif;fill:#000000" text-anchor="start" x="2006.76" y="159.865"><tspan>C</tspan></text>
<text dominant-baseline="central" style="font-size:40px;font-style:normal;font-weight:normal;fill-opacity:1;stroke:none;font-family:sans-serif;fill:#000000" text-anchor="start" x="2174.86" y="159.865"><tspan>HH</tspan></text>
<text dominant-baseline="central" style="font-size:40px;font-style:normal;font-weight:normal;fill-opacity:1;stroke:none;font-family:sans-serif;fill:#000000" text-anchor="start" x="2372.04" y="159.865"><tspan>Rh</tspan></text>
<text dominant-baseline="central" style="font-size:38px;font-style:normal;font-weight:normal;fill-opacity:1;stroke:none;font-family:sans-serif;fill:#000000" text-anchor="middle" x="576.065" y="462.272"><tspan>1</tspan></text>
<text dominant-baseline="central" style="font-size:38px;font-style:normal;font-weight:normal;fill-opacity:1;stroke:none;font-family:sans-serif;fill:#000000" text-anchor="middle" x="665.467" y="307.423"><tspan>2</tspan></text>
<text dominant-baseline="central" style="font-size:38px;font-style:normal;font-weight:normal;fill-opacity:1;stroke:none;font-family:sans-serif;fill:#000000" text-anchor="middle" x="687.818" y="165.478"><tspan>3</tspan></text>
<text dominant-baseline="central" style="font-size:38px;font-style:normal;font-weight:normal;fill-opacity:1;stroke:none;font-family:sans-serif;fill:#000000" text-anchor="middle" x="844.271" y="49.3419"><tspan>4</tspan></text>
<text dominant-baseline="central" style="font-size:38px;font-style:normal;font-weight:normal;fill-opacity:1;stroke:none;font-family:sans-serif;fill:#000000" text-anchor="middle" x="1000.72" y="165.478"><tspan>5</tspan></text>
<text dominant-baseline="central" style="font-size:38px;font-style:normal;font-weight:normal;fill-opacity:1;stroke:none;font-family:sans-serif;fill:#000000" text-anchor="middle" x="1023.07" y="307.423"><tspan>6</tspan></text>
<text dominant-baseline="central" style="font-size:38px;font-style:normal;font-weight:normal;fill-opacity:1;stroke:none;font-family:sans-serif;fill:#000000" text-anchor="middle" x="1112.48" y="359.039"><tspan>7</tspan></text>
<text dominant-baseline="central" style="font-size:38px;font-style:normal;font-weight:normal;fill-opacity:1;stroke:none;font-family:sans-serif;fill:#000000" text-anchor="middle" x="844.271" y="436.464"><tspan>8</tspan></text>
<text dominant-baseline="central" style="font-size:38px;font-style:normal;font-weight:normal;fill-opacity:1;stroke:none;font-family:sans-serif;fill:#000000" text-anchor="middle" x="2894.38" y="462.272"><tspan>1</tspan></text>
<text dominant-baseline="central" style="font-size:38px;font-style:normal;font-weight:normal;fill-opacity:1;stroke:none;font-family:sans-serif;fill:#000000" text-anchor="middle" x="2983.78" y="307.423"><tspan>2</tspan></text>
<text dominant-baseline="central" style="font-size:38px;font-style:normal;font-weight:normal;fill-opacity:1;stroke:none;font-family:sans-serif;fill:#000000" text-anchor="middle" x="3006.13" y="165.478"><tspan>3</tspan></text>
<text dominant-baseline="central" style="font-size:38px;font-style:normal;font-weight:normal;fill-opacity:1;stroke:none;font-family:sans-serif;fill:#000000" text-anchor="middle" x="3117.88" y="75.15"><tspan>4</tspan></text>
<text dominant-baseline="central" style="font-size:38px;font-style:normal;font-weight:normal;fill-opacity:1;stroke:none;font-family:sans-serif;fill:#000000" text-anchor="middle" x="3319.03" y="165.478"><tspan>5</tspan></text>
<text dominant-baseline="central" style="font-size:38px;font-style:normal;font-weight:normal;fill-opacity:1;stroke:none;font-family:sans-serif;fill:#000000" text-anchor="middle" x="3341.39" y="307.423"><tspan>6</tspan></text>
<text dominant-baseline="central" style="font-size:38px;font-style:normal;font-weight:normal;fill-opacity:1;stroke:none;font-family:sans-serif;fill:#000000" text-anchor="middle" x="3430.79" y="359.039"><tspan>7</tspan></text>
<text dominant-baseline="central" style="font-size:38px;font-style:normal;font-weight:normal;fill-opacity:1;stroke:none;font-family:sans-serif;fill:#000000" text-anchor="middle" x="3162.58" y="436.464"><tspan>8</tspan></text>
<path d="M 1975.7,127.671 L 1975.69,127.405 L 1975.66,127.14 L 1975.6,126.88 L 1975.52,126.626 L 1975.42,126.379 L 1975.3,126.142 L 1975.16,125.916 L 1975,125.703 L 1974.82,125.505 L 1974.63,125.322 L 1974.42,125.158 L 1974.19,125.011 L 1973.96,124.885 L 1973.71,124.779 L 1973.46,124.694 L 1973.2,124.632 L 1972.94,124.592 L 1972.67,124.575 L 1972.41,124.58 L 1972.14,124.609 L 1971.88,124.66 L 1971.62,124.734 L 1971.38,124.829 L 1971.14,124.945 L 1970.91,125.082 L 1970.69,125.238 L 1970.49,125.411 L 1970.3,125.602 L 1970.13,125.808 L 1969.98,126.027 L 1969.85,126.259 L 1969.74,126.501 L 1969.65,126.752 L 1969.58,127.01 L 1969.54,127.272 L 1969.51,127.538 L 1969.51,127.804 L 1969.54,128.07 L 1969.58,128.332 L 1969.65,128.59 L 1969.74,128.841 L 1969.85,129.083 L 1969.98,129.314 L 1970.13,129.534 L 1970.3,129.74 L 1970.49,129.93 L 1970.69,130.104 L 1970.91,130.26 L 1971.14,130.396 L 1971.38,130.513 L 1971.62,130.608 L 1971.88,130.681 L 1972.14,130.733 L 1972.41,130.761 L 1972.67,130.767 L 1972.94,130.75 L 1973.2,130.71 L 1973.46,130.647 L 1973.71,130.563 L 1973.96,130.457 L 1974.19,130.33 L 1974.42,130.184 L 1974.63,130.019 L 1974.82,129.837 L 1975,129.639 L 1975.16,129.426 L 1975.3,129.2 L 1975.42,128.963 L 1975.52,128.716 L 1975.6,128.462 L 1975.66,128.201 L 1975.69,127.937 L 1975.7,127.671 L 1972.61,127.671 Z" style="fill:#000000;fill-rule:evenodd;fill-opacity:1;stroke:#000000;stroke-width:4px;stroke-linecap:butt;stroke-linejoin:miter;stroke-opacity:1;"/>
<path d="M 2070.68,127.671 L 2070.67,127.405 L 2070.63,127.14 L 2070.58,126.88 L 2070.5,126.626 L 2070.4,126.379 L 2070.27,126.142 L 2070.13,125.916 L 2069.97,125.703 L 2069.79,125.505 L 2069.6,125.322 L 2069.39,125.158 L 2069.17,125.011 L 2068.93,124.885 L 2068.69,124.779 L 2068.44,124.694 L 2068.18,124.632 L 2067.91,124.592 L 2067.65,124.575 L 2067.38,124.58 L 2067.12,124.609 L 2066.85,124.66 L 2066.6,124.734 L 2066.35,124.829 L 2066.11,124.945 L 2065.88,125.082 L 2065.66,125.238 L 2065.46,125.411 L 2065.28,125.602 L 2065.11,125.808 L 2064.96,126.027 L 2064.82,126.259 L 2064.71,126.501 L 2064.62,126.752 L 2064.56,127.01 L 2064.51,127.272 L 2064.49,127.538 L 2064.49,127.804 L 2064.51,128.07 L 2064.56,128.332 L 2064.62,128.59 L 2064.71,128.841 L 2064.82,129.083 L 2064.96,129.314 L 2065.11,129.534 L 2065.28,129.74 L 2065.46,129.93 L 2065.66,130.104 L 2065.88,130.26 L 2066.11,130.396 L 2066.35,130.513 L 2066.6,130.608 L 2066.85,130.681 L 2067.12,130.733 L 2067.38,130.761 L 2067.65,130.767 L 2067.91,130.75 L 2068.18,130.71 L 2068.44,130.647 L 2068.69,130.563 L 2068.93,130.457 L 2069.17,130.33 L 2069.39,130.184 L 2069.6,130.019 L 2069.79,129.837 L 2069.97,129.639 L 2070.13,129.426 L 2070.27,129.2 L 2070.4,128.963 L 2070.5,128.716 L 2070.58,128.462 L 2070.63,128.201 L 2070.67,127.937 L 2070.68,127.671 L 2067.58,127.671 Z" style="fill:#000000;fill-rule:evenodd;fill-opacity:1;stroke:#000000;stroke-width:4px;stroke-linecap:butt;stroke-linejoin:miter;stroke-opacity:1;"/>
<path d="M 1360.33,238.386 L 2581.15,238.386" style="fill:none;fill-rule:evenodd;stroke:#000000;stroke-width:4px;stroke-linecap:butt;stroke-linejoin:miter;stroke-opacity:1"/>
<path d="M 2581.15,238.386 L 2528.28,207.866" style="fill:none;fill-rule:evenodd;stroke:#000000;stroke-width:4px;stroke-linecap:butt;stroke-linejoin:miter;stroke-opacity:1"/>
<path d="M 2581.15,238.386 L 2528.28,268.907" style="fill:none;fill-rule:evenodd;stroke:#000000;stroke-width:4px;stroke-linecap:butt;stroke-linejoin:miter;stroke-opacity:1"/>
</svg>