<svg xmlns="http://www.w3.org/2000/svg" xmlns:rdkit="http://www.rdkit.org/xml" xmlns:xlink="http://www.w3.org/1999/xlink" version="1.1" baseProfile="full" xml:space="preserve" width="4000px" height="500px" viewBox="0 0 4000 500">
<!-- END OF HEADER -->
<rect style="opacity:1.0;fill:#FFFFFF;stroke:none" width="4000" height="500" x="0" y="0"> </rect>
<path d="M 610.867,250 L 476.789,250" style="fill:none;fill-rule:evenodd;stroke:#FFFFAA;stroke-width:28.6px;stroke-linecap:butt;stroke-linejoin:miter;stroke-opacity:1"/>
<path d="M 476.789,250 L 409.75,366.115" style="fill:none;fill-rule:evenodd;stroke:#FFFFAA;stroke-width:28.6px;stroke-linecap:butt;stroke-linejoin:miter;stroke-opacity:1"/>
<path d="M 476.789,250 L 409.75,133.885" style="fill:none;fill-rule:evenodd;stroke:#FFFFAA;stroke-width:28.6px;stroke-linecap:butt;stroke-linejoin:miter;stroke-opacity:1"/>
<path d="M 409.75,366.115 L 275.673,366.115" style="fill:none;fill-rule:evenodd;stroke:#FFFFAA;stroke-width:28.6px;stroke-linecap:butt;stroke-linejoin:miter;stroke-opacity:1"/>
<path d="M 275.673,366.115 L 208.634,250" style="fill:none;fill-rule:evenodd;stroke:#FFFFAA;stroke-width:28.6px;stroke-linecap:butt;stroke-linejoin:miter;stroke-opacity:1"/>
<path d="M 208.634,250 L 275.673,133.885" style="fill:none;fill-rule:evenodd;stroke:#FFFFAA;stroke-width:28.6px;stroke-linecap:butt;stroke-linejoin:miter;stroke-opacity:1"/>
<path d="M 275.673,133.885 L 409.75,133.885" style="fill:none;fill-rule:evenodd;stroke:#FFFFAA;stroke-width:28.6px;stroke-linecap:butt;stroke-linejoin:miter;stroke-opacity:1"/>
<path d="M 1642.36,366.115 L 1575.32,250" style="fill:none;fill-rule:evenodd;stroke:#FFCC99;stroke-width:28.6px;stroke-linecap:butt;stroke-linejoin:miter;stroke-opacity:1"/>
<path d="M 1575.32,250 L 1642.36,133.885" style="fill:none;fill-rule:evenodd;stroke:#FFCC99;stroke-width:28.6px;stroke-linecap:butt;stroke-linejoin:miter;stroke-opacity:1"/>
<path d="M 1575.32,250 L 1441.24,250" style="fill:none;fill-rule:evenodd;stroke:#FFCC99;stroke-width:28.6px;stroke-linecap:butt;stroke-linejoin:miter;stroke-opacity:1"/>
<path d="M 1441.24,250 L 1374.21,366.115" style="fill:none;fill-rule:evenodd;stroke:#FFCC99;stroke-width:28.6px;stroke-linecap:butt;stroke-linejoin:miter;stroke-opacity:1"/>
<path d="M 1441.24,250 L 1374.21,133.885" style="fill:none;fill-rule:evenodd;stroke:#FFCC99;stroke-width:28.6px;stroke-linecap:butt;stroke-linejoin:miter;stroke-opacity:1"/>
<path d="M 1374.21,366.115 L 1240.13,366.115" style="fill:none;fill-rule:evenodd;stroke:#FFCC99;stroke-width:28.6px;stroke-linecap:butt;stroke-linejoin:miter;stroke-opacity:1"/>
<path d="M 1240.13,366.115 L 1173.09,250" style="fill:none;fill-rule:evenodd;stroke:#FFCC99;stroke-width:28.6px;stroke-linecap:butt;stroke-linejoin:miter;stroke-opacity:1"/>
<path d="M 1173.09,250 L 1039.01,250" style="fill:none;fill-rule:evenodd;stroke:#FFCC99;stroke-width:28.6px;stroke-linecap:butt;stroke-linejoin:miter;stroke-opacity:1"/>
<path d="M 1173.09,250 L 1240.13,133.885" style="fill:none;fill-rule:evenodd;stroke:#FFCC99;stroke-width:28.6px;stroke-linecap:butt;stroke-linejoin:miter;stroke-opacity:1"/>
<path d="M 1240.13,133.885 L 1374.21,133.885" style="fill:none;fill-rule:evenodd;stroke:#FFCC99;stroke-width:28.6px;stroke-linecap:butt;stroke-linejoin:miter;stroke-opacity:1"/>
<path d="M 2754.87,250 L 2620.79,250" style="fill:none;fill-rule:evenodd;stroke:#FFFFAA;stroke-width:28.6px;stroke-linecap:butt;stroke-linejoin:miter;stroke-opacity:1"/>
<path d="M 2620.79,250 L 2553.75,366.115" style="fill:none;fill-rule:evenodd;stroke:#FFFFAA;stroke-width:28.6px;stroke-linecap:butt;stroke-linejoin:miter;stroke-opacity:1"/>
<path d="M 2620.79,250 L 2553.75,133.885" style="fill:none;fill-rule:evenodd;stroke:#FFFFAA;stroke-width:28.6px;stroke-linecap:butt;stroke-linejoin:miter;stroke-opacity:1"/>
<path d="M 2553.75,366.115 L 2419.67,366.115" style="fill:none;fill-rule:evenodd;stroke:#FFFFAA;stroke-width:28.6px;stroke-linecap:butt;stroke-linejoin:miter;stroke-opacity:1"/>
<path d="M 2419.67,366.115 L 2352.64,250" style="fill:none;fill-rule:evenodd;stroke:#FFFFAA;stroke-width:28.6px;stroke-linecap:butt;stroke-linejoin:miter;stroke-opacity:1"/>
<path d="M 2352.64,250 L 2419.67,133.885" style="fill:none;fill-rule:evenodd;stroke:#FFFFAA;stroke-width:28.6px;stroke-linecap:butt;stroke-linejoin:miter;stroke-opacity:1"/>
<path d="M 2419.67,133.885 L 2553.75,133.885" style="fill:none;fill-rule:evenodd;stroke:#FFFFAA;stroke-width:28.6px;stroke-linecap:butt;stroke-linejoin:miter;stroke-opacity:1"/>
<path d="M 3786.36,366.115 L 3719.32,250" style="fill:none;fill-rule:evenodd;stroke:#FFCC99;stroke-width:28.6px;stroke-linecap:butt;stroke-linejoin:miter;stroke-opacity:1"/>
<path d="M 3719.32,250 L 3786.36,133.885" style="fill:none;fill-rule:evenodd;stroke:#FFCC99;stroke-width:28.6px;stroke-linecap:butt;stroke-linejoin:miter;stroke-opacity:1"/>
<path d="M 3719.32,250 L 3585.25,250" style="fill:none;fill-rule:evenodd;stroke:#FFCC99;stroke-width:28.6px;stroke-linecap:butt;stroke-linejoin:miter;stroke-opacity:1"/>
<path d="M 3585.25,250 L 3518.21,366.115" style="fill:none;fill-rule:evenodd;stroke:#FFCC99;stroke-width:28.6px;stroke-linecap:butt;stroke-linejoin:miter;stroke-opacity:1"/>
<path d="M 3585.25,250 L 3518.21,133.885" style="fill:none;fill-rule:evenodd;stroke:#FFCC99;stroke-width:28.6px;stroke-linecap:butt;stroke-linejoin:miter;stroke-opacity:1"/>
<path d="M 3518.21,366.115 L 3384.13,366.115" style="fill:none;fill-rule:evenodd;stroke:#FFCC99;stroke-width:28.6px;stroke-linecap:butt;stroke-linejoin:miter;stroke-opacity:1"/>
<path d="M 3384.13,366.115 L 3317.09,250" style="fill:none;fill-rule:evenodd;stroke:#FFCC99;stroke-width:28.6px;stroke-linecap:butt;stroke-linejoin:miter;stroke-opacity:1"/>
<path d="M 3317.09,250 L 3183.01,250" style="fill:none;fill-rule:evenodd;stroke:#FFCC99;stroke-width:28.6px;stroke-linecap:butt;stroke-linejoin:miter;stroke-opacity:1"/>
<path d="M 3317.09,250 L 3384.13,133.885" style="fill:none;fill-rule:evenodd;stroke:#FFCC99;stroke-width:28.6px;stroke-linecap:butt;stroke-linejoin:miter;stroke-opacity:1"/>
<path d="M 3384.13,133.885 L 3518.21,133.885" style="fill:none;fill-rule:evenodd;stroke:#FFCC99;stroke-width:28.6px;stroke-linecap:butt;stroke-linejoin:miter;stroke-opacity:1"/>
<ellipse cx="630.603" cy="257.08" rx="43.1001" ry="30.0379" style="fill:#FFFFAA;fill-rule:evenodd;stroke:#FFFFAA;stroke-width:1px;stroke-linecap:butt;stroke-linejoin:miter;stroke-opacity:1"/>
<ellipse cx="476.789" cy="250" rx="26.8155" ry="26.8155" style="fill:#FFFFAA;fill-rule:evenodd;stroke:#FFFFAA;stroke-width:1px;stroke-linecap:butt;stroke-linejoin:miter;stroke-opacity:1"/>
<ellipse cx="409.75" cy="366.115" rx="26.8155" ry="26.8155" style="fill:#FFFFAA;fill-rule:evenodd;stroke:#FFFFAA;stroke-width:1px;stroke-linecap:butt;stroke-linejoin:miter;stroke-opacity:1"/>
<ellipse cx="275.673" cy="366.115" rx="26.8155" ry="26.8155" style="fill:#FFFFAA;fill-rule:evenodd;stroke:#FFFFAA;stroke-width:1px;stroke-linecap:butt;stroke-linejoin:miter;stroke-opacity:1"/>
<ellipse cx="208.634" cy="250" rx="26.8155" ry="26.8155" style="fill:#FFFFAA;fill-rule:evenodd;stroke:#FFFFAA;stroke-width:1px;stroke-linecap:butt;stroke-linejoin:miter;stroke-opacity:1"/>
<ellipse cx="275.673" cy="133.885" rx="26.8155" ry="26.8155" style="fill:#FFFFAA;fill-rule:evenodd;stroke:#FFFFAA;stroke-width:1px;stroke-linecap:butt;stroke-linejoin:miter;stroke-opacity:1"/>
<ellipse cx="409.75" cy="133.885" rx="26.8155" ry="26.8155" style="fill:#FFFFAA;fill-rule:evenodd;stroke:#FFFFAA;stroke-width:1px;stroke-linecap:butt;stroke-linejoin:miter;stroke-opacity:1"/>
<ellipse cx="1642.36" cy="366.335" rx="26.8155" ry="26.8155" style="fill:#FFCC99;fill-rule:evenodd;stroke:#FFCC99;stroke-width:1px;stroke-linecap:butt;stroke-linejoin:miter;stroke-opacity:1"/>
<ellipse cx="1582.67" cy="249.926" rx="26.8155" ry="26.8155" style="fill:#FFCC99;fill-rule:evenodd;stroke:#FFCC99;stroke-width:1px;stroke-linecap:butt;stroke-linejoin:miter;stroke-opacity:1"/>
<ellipse cx="1647.87" cy="134.105" rx="26.8155" ry="26.8155" style="fill:#FFCC99;fill-rule:evenodd;stroke:#FFCC99;stroke-width:1px;stroke-linecap:butt;stroke-linejoin:miter;stroke-opacity:1"/>
<ellipse cx="1441.24" cy="250" rx="26.8155" ry="26.8155" style="fill:#FFCC99;fill-rule:evenodd;stroke:#FFCC99;stroke-width:1px;stroke-linecap:butt;stroke-linejoin:miter;stroke-opacity:1"/>
<ellipse cx="1374.21" cy="366.115" rx="26.8155" ry="26.8155" style="fill:#FFCC99;fill-rule:evenodd;stroke:#FFCC99;stroke-width:1px;stroke-linecap:butt;stroke-linejoin:miter;stroke-opacity:1"/>
<ellipse cx="1240.13" cy="366.115" rx="26.8155" ry="26.8155" style="fill:#FFCC99;fill-rule:evenodd;stroke:#FFCC99;stroke-width:1px;stroke-linecap:butt;stroke-linejoin:miter;stroke-opacity:1"/>
<ellipse cx="1173.09" cy="250" rx="26.8155" ry="26.8155" style="fill:#FFCC99;fill-rule:evenodd;stroke:#FFCC99;stroke-width:1px;stroke-linecap:butt;stroke-linejoin:miter;stroke-opacity:1"/>
<ellipse cx="1026.93" cy="250.22" rx="35.4685" ry="26.8155" style="fill:#FFCC99;fill-rule:evenodd;stroke:#FFCC99;stroke-width:1px;stroke-linecap:butt;stroke-linejoin:miter;stroke-opacity:1"/>
<ellipse cx="1240.13" cy="133.885" rx="26.8155" ry="26.8155" style="fill:#FFCC99;fill-rule:evenodd;stroke:#FFCC99;stroke-width:1px;stroke-linecap:butt;stroke-linejoin:miter;stroke-opacity:1"/>
<ellipse cx="1374.21" cy="133.885" rx="26.8155" ry="26.8155" style="fill:#FFCC99;fill-rule:evenodd;stroke:#FFCC99;stroke-width:1px;stroke-linecap:butt;stroke-linejoin:miter;stroke-opacity:1"/>
<ellipse cx="2774.6" cy="257.08" rx="43.1001" ry="30.0379" style="fill:#FFFFAA;fill-rule:evenodd;stroke:#FFFFAA;stroke-width:1px;stroke-linecap:butt;stroke-linejoin:miter;stroke-opacity:1"/>
<ellipse cx="2620.79" cy="250" rx="26.8155" ry="26.8155" style="fill:#FFFFAA;fill-rule:evenodd;stroke:#FFFFAA;stroke-width:1px;stroke-linecap:butt;stroke-linejoin:miter;stroke-opacity:1"/>
<ellipse cx="2553.75" cy="366.115" rx="26.8155" ry="26.8155" style="fill:#FFFFAA;fill-rule:evenodd;stroke:#FFFFAA;stroke-width:1px;stroke-linecap:butt;stroke-linejoin:miter;stroke-opacity:1"/>
<ellipse cx="2419.67" cy="366.115" rx="26.8155" ry="26.8155" style="fill:#FFFFAA;fill-rule:evenodd;stroke:#FFFFAA;stroke-width:1px;stroke-linecap:butt;stroke-linejoin:miter;stroke-opacity:1"/>
<ellipse cx="2352.64" cy="250" rx="26.8155" ry="26.8155" style="fill:#FFFFAA;fill-rule:evenodd;stroke:#FFFFAA;stroke-width:1px;stroke-linecap:butt;stroke-linejoin:miter;stroke-opacity:1"/>
<ellipse cx="2419.67" cy="133.885" rx="26.8155" ry="26.8155" style="fill:#FFFFAA;fill-rule:evenodd;stroke:#FFFFAA;stroke-width:1px;stroke-linecap:butt;stroke-linejoin:miter;stroke-opacity:1"/>
<ellipse cx="2553.75" cy="133.885" rx="26.8155" ry="26.8155" style="fill:#FFFFAA;fill-rule:evenodd;stroke:#FFFFAA;stroke-width:1px;stroke-linecap:butt;stroke-linejoin:miter;stroke-opacity:1"/>
<ellipse cx="3786.36" cy="366.335" rx="26.8155" ry="26.8155" style="fill:#FFCC99;fill-rule:evenodd;stroke:#FFCC99;stroke-width:1px;stroke-linecap:butt;stroke-linejoin:miter;stroke-opacity:1"/>
<ellipse cx="3726.68" cy="249.926" rx="26.8155" ry="26.8155" style="fill:#FFCC99;fill-rule:evenodd;stroke:#FFCC99;stroke-width:1px;stroke-linecap:butt;stroke-linejoin:miter;stroke-opacity:1"/>
<ellipse cx="3791.87" cy="134.105" rx="26.8155" ry="26.8155" style="fill:#FFCC99;fill-rule:evenodd;stroke:#FFCC99;stroke-width:1px;stroke-linecap:butt;stroke-linejoin:miter;stroke-opacity:1"/>
<ellipse cx="3585.25" cy="250" rx="26.8155" ry="26.8155" style="fill:#FFCC99;fill-rule:evenodd;stroke:#FFCC99;stroke-width:1px;stroke-linecap:butt;stroke-linejoin:miter;stroke-opacity:1"/>
<ellipse cx="3518.21" cy="366.115" rx="26.8155" ry="26.8155" style="fill:#FFCC99;fill-rule:evenodd;stroke:#FFCC99;stroke-width:1px;stroke-linecap:butt;stroke-linejoin:miter;stroke-opacity:1"/>
<ellipse cx="3384.13" cy="366.115" rx="26.8155" ry="26.8155" style="fill:#FFCC99;fill-rule:evenodd;stroke:#FFCC99;stroke-width:1px;stroke-linecap:butt;stroke-linejoin:miter;stroke-opacity:1"/>
<ellipse cx="3317.09" cy="250" rx="26.8155" ry="26.8155" style="fill:#FFCC99;fill-rule:evenodd;stroke:#FFCC99;stroke-width:1px;stroke-linecap:butt;stroke-linejoin:miter;stroke-opacity:1"/>
<ellipse cx="3170.93" cy="250.22" rx="35.4685" ry="26.8155" style="fill:#FFCC99;fill-rule:evenodd;stroke:#FFCC99;stroke-width:1px;stroke-linecap:butt;stroke-linejoin:miter;stroke-opacity:1"/>
<ellipse cx="3384.13" cy="133.885" rx="26.8155" ry="26.8155" style="fill:#FFCC99;fill-rule:evenodd;stroke:#FFCC99;stroke-width:1px;stroke-linecap:butt;stroke-linejoin:miter;stroke-opacity:1"/>
<ellipse cx="3518.21" cy="133.885" rx="26.8155" ry="26.8155" style="fill:#FFCC99;fill-rule:evenodd;stroke:#FFCC99;stroke-width:1px;stroke-linecap:butt;stroke-linejoin:miter;stroke-opacity:1"/>
<path class="bond-0" d="M 596.775,250 L 536.782,250" style="fill:none;fill-rule:evenodd;stroke:#0000FF;stroke-width:2.0px;stroke-linecap:butt;stroke-linejoin:miter;stroke-opacity:1"/>
<path class="bond-0" d="M 536.782,250 L 476.789,250" style="fill:none;fill-rule:evenodd;stroke:#000000;stroke-width:2.0px;stroke-linecap:butt;stroke-linejoin:miter;stroke-opacity:1"/>
<path class="bond-1" d="M 476.789,250 L 409.75,366.115" style="fill:none;fill-rule:evenodd;stroke:#000000;stroke-width:2.0px;stroke-linecap:butt;stroke-linejoin:miter;stroke-opacity:1"/>
<path class="bond-6" d="M 476.789,250 L 409.75,133.885" style="fill:none;fill-rule:evenodd;stroke:#000000;stroke-width:2.0px;stroke-linecap:butt;stroke-linejoin:miter;stroke-opacity:1"/>
<path class="bond-2" d="M 409.75,366.115 L 275.673,366.115" style="fill:none;fill-rule:evenodd;stroke:#000000;stroke-width:2.0px;stroke-linecap:butt;stroke-linejoin:miter;stroke-opacity:1"/>
<path class="bond-3" d="M 275.673,366.115 L 208.634,250" style="fill:none;fill-rule:evenodd;stroke:#000000;stroke-width:2.0px;stroke-linecap:butt;stroke-linejoin:miter;stroke-opacity:1"/>
<path class="bond-4" d="M 208.634,250 L 275.673,133.885" style="fill:none;fill-rule:evenodd;stroke:#000000;stroke-width:2.0px;stroke-linecap:butt;stroke-linejoin:miter;stroke-opacity:1"/>
<path class="bond-5" d="M 275.673,133.885 L 409.75,133.885" style="fill:none;fill-rule:evenodd;stroke:#000000;stroke-width:2.0px;stroke-linecap:butt;stroke-linejoin:miter;stroke-opacity:1"/>
<path class="bond-7" d="M 1643.77,341.739 L 1620.26,301.018" style="fill:none;fill-rule:evenodd;stroke:#FF0000;stroke-width:2.0px;stroke-linecap:butt;stroke-linejoin:miter;stroke-opacity:1"/>
<path class="bond-7" d="M 1620.26,301.018 L 1596.75,260.298" style="fill:none;fill-rule:evenodd;stroke:#0000FF;stroke-width:2.0px;stroke-linecap:butt;stroke-linejoin:miter;stroke-opacity:1"/>
<path class="bond-7" d="M 1620.55,355.147 L 1597.04,314.426" style="fill:none;fill-rule:evenodd;stroke:#FF0000;stroke-width:2.0px;stroke-linecap:butt;stroke-linejoin:miter;stroke-opacity:1"/>
<path class="bond-7" d="M 1597.04,314.426 L 1573.53,273.706" style="fill:none;fill-rule:evenodd;stroke:#0000FF;stroke-width:2.0px;stroke-linecap:butt;stroke-linejoin:miter;stroke-opacity:1"/>
<path class="bond-8" d="M 1585.52,232.339 L 1608.86,191.913" style="fill:none;fill-rule:evenodd;stroke:#0000FF;stroke-width:2.0px;stroke-linecap:butt;stroke-linejoin:miter;stroke-opacity:1"/>
<path class="bond-8" d="M 1608.86,191.913 L 1632.2,151.487" style="fill:none;fill-rule:evenodd;stroke:#FF0000;stroke-width:2.0px;stroke-linecap:butt;stroke-linejoin:miter;stroke-opacity:1"/>
<path class="bond-9" d="M 1561.23,250 L 1501.24,250" style="fill:none;fill-rule:evenodd;stroke:#0000FF;stroke-width:2.0px;stroke-linecap:butt;stroke-linejoin:miter;stroke-opacity:1"/>
<path class="bond-9" d="M 1501.24,250 L 1441.24,250" style="fill:none;fill-rule:evenodd;stroke:#000000;stroke-width:2.0px;stroke-linecap:butt;stroke-linejoin:miter;stroke-opacity:1"/>
<path class="bond-10" d="M 1441.24,250 L 1374.21,366.115" style="fill:none;fill-rule:evenodd;stroke:#000000;stroke-width:2.0px;stroke-linecap:butt;stroke-linejoin:miter;stroke-opacity:1"/>
<path class="bond-10" d="M 1407.97,254.009 L 1361.04,335.29" style="fill:none;fill-rule:evenodd;stroke:#000000;stroke-width:2.0px;stroke-linecap:butt;stroke-linejoin:miter;stroke-opacity:1;stroke-dasharray:6,6"/>
<path class="bond-16" d="M 1441.24,250 L 1374.21,133.885" style="fill:none;fill-rule:evenodd;stroke:#000000;stroke-width:2.0px;stroke-linecap:butt;stroke-linejoin:miter;stroke-opacity:1"/>
<path class="bond-16" d="M 1407.97,245.991 L 1361.04,164.71" style="fill:none;fill-rule:evenodd;stroke:#000000;stroke-width:2.0px;stroke-linecap:butt;stroke-linejoin:miter;stroke-opacity:1;stroke-dasharray:6,6"/>
<path class="bond-11" d="M 1374.21,366.115 L 1240.13,366.115" style="fill:none;fill-rule:evenodd;stroke:#000000;stroke-width:2.0px;stroke-linecap:butt;stroke-linejoin:miter;stroke-opacity:1"/>
<path class="bond-11" d="M 1354.09,339.299 L 1260.24,339.299" style="fill:none;fill-rule:evenodd;stroke:#000000;stroke-width:2.0px;stroke-linecap:butt;stroke-linejoin:miter;stroke-opacity:1;stroke-dasharray:6,6"/>
<path class="bond-12" d="M 1240.13,366.115 L 1173.09,250" style="fill:none;fill-rule:evenodd;stroke:#000000;stroke-width:2.0px;stroke-linecap:butt;stroke-linejoin:miter;stroke-opacity:1"/>
<path class="bond-12" d="M 1253.29,335.29 L 1206.37,254.009" style="fill:none;fill-rule:evenodd;stroke:#000000;stroke-width:2.0px;stroke-linecap:butt;stroke-linejoin:miter;stroke-opacity:1;stroke-dasharray:6,6"/>
<path class="bond-13" d="M 1173.09,250 L 1114.23,250" style="fill:none;fill-rule:evenodd;stroke:#000000;stroke-width:2.0px;stroke-linecap:butt;stroke-linejoin:miter;stroke-opacity:1"/>
<path class="bond-13" d="M 1114.23,250 L 1055.36,250" style="fill:none;fill-rule:evenodd;stroke:#FF0000;stroke-width:2.0px;stroke-linecap:butt;stroke-linejoin:miter;stroke-opacity:1"/>
<path class="bond-14" d="M 1173.09,250 L 1240.13,133.885" style="fill:none;fill-rule:evenodd;stroke:#000000;stroke-width:2.0px;stroke-linecap:butt;stroke-linejoin:miter;stroke-opacity:1"/>
<path class="bond-14" d="M 1206.37,245.991 L 1253.29,164.71" style="fill:none;fill-rule:evenodd;stroke:#000000;stroke-width:2.0px;stroke-linecap:butt;stroke-linejoin:miter;stroke-opacity:1;stroke-dasharray:6,6"/>
<path class="bond-15" d="M 1240.13,133.885 L 1374.21,133.885" style="fill:none;fill-rule:evenodd;stroke:#000000;stroke-width:2.0px;stroke-linecap:butt;stroke-linejoin:miter;stroke-opacity:1"/>
<path class="bond-15" d="M 1260.24,160.701 L 1354.09,160.701" style="fill:none;fill-rule:evenodd;stroke:#000000;stroke-width:2.0px;stroke-linecap:butt;stroke-linejoin:miter;stroke-opacity:1;stroke-dasharray:6,6"/>
<path class="bond-17" d="M 2740.78,250 L 2680.78,250" style="fill:none;fill-rule:evenodd;stroke:#0000FF;stroke-width:2.0px;stroke-linecap:butt;stroke-linejoin:miter;stroke-opacity:1"/>
<path class="bond-17" d="M 2680.78,250 L 2620.79,250" style="fill:none;fill-rule:evenodd;stroke:#000000;stroke-width:2.0px;stroke-linecap:butt;stroke-linejoin:miter;stroke-opacity:1"/>
<path class="bond-18" d="M 2620.79,250 L 2553.75,366.115" style="fill:none;fill-rule:evenodd;stroke:#000000;stroke-width:2.0px;stroke-linecap:butt;stroke-linejoin:miter;stroke-opacity:1"/>
<path class="bond-23" d="M 2620.79,250 L 2553.75,133.885" style="fill:none;fill-rule:evenodd;stroke:#000000;stroke-width:2.0px;stroke-linecap:butt;stroke-linejoin:miter;stroke-opacity:1"/>
<path class="bond-19" d="M 2553.75,366.115 L 2419.67,366.115" style="fill:none;fill-rule:evenodd;stroke:#000000;stroke-width:2.0px;stroke-linecap:butt;stroke-linejoin:miter;stroke-opacity:1"/>
<path class="bond-20" d="M 2419.67,366.115 L 2352.64,250" style="fill:none;fill-rule:evenodd;stroke:#000000;stroke-width:2.0px;stroke-linecap:butt;stroke-linejoin:miter;stroke-opacity:1"/>
<path class="bond-21" d="M 2352.64,250 L 2419.67,133.885" style="fill:none;fill-rule:evenodd;stroke:#000000;stroke-width:2.0px;stroke-linecap:butt;stroke-linejoin:miter;stroke-opacity:1"/>
<path class="bond-22" d="M 2419.67,133.885 L 2553.75,133.885" style="fill:none;fill-rule:evenodd;stroke:#000000;stroke-width:2.0px;stroke-linecap:butt;stroke-linejoin:miter;stroke-opacity:1"/>
<path class="bond-24" d="M 3787.77,341.739 L 3764.26,301.018" style="fill:none;fill-rule:evenodd;stroke:#FF0000;stroke-width:2.0px;stroke-linecap:butt;stroke-linejoin:miter;stroke-opacity:1"/>
<path class="bond-24" d="M 3764.26,301.018 L 3740.75,260.298" style="fill:none;fill-rule:evenodd;stroke:#0000FF;stroke-width:2.0px;stroke-linecap:butt;stroke-linejoin:miter;stroke-opacity:1"/>
<path class="bond-24" d="M 3764.55,355.147 L 3741.04,314.426" style="fill:none;fill-rule:evenodd;stroke:#FF0000;stroke-width:2.0px;stroke-linecap:butt;stroke-linejoin:miter;stroke-opacity:1"/>
<path class="bond-24" d="M 3741.04,314.426 L 3717.53,273.706" style="fill:none;fill-rule:evenodd;stroke:#0000FF;stroke-width:2.0px;stroke-linecap:butt;stroke-linejoin:miter;stroke-opacity:1"/>
<path class="bond-25" d="M 3729.52,232.339 L 3752.86,191.913" style="fill:none;fill-rule:evenodd;stroke:#0000FF;stroke-width:2.0px;stroke-linecap:butt;stroke-linejoin:miter;stroke-opacity:1"/>
<path class="bond-25" d="M 3752.86,191.913 L 3776.2,151.487" style="fill:none;fill-rule:evenodd;stroke:#FF0000;stroke-width:2.0px;stroke-linecap:butt;stroke-linejoin:miter;stroke-opacity:1"/>
<path class="bond-26" d="M 3705.23,250 L 3645.24,250" style="fill:none;fill-rule:evenodd;stroke:#0000FF;stroke-width:2.0px;stroke-linecap:butt;stroke-linejoin:miter;stroke-opacity:1"/>
<path class="bond-26" d="M 3645.24,250 L 3585.25,250" style="fill:none;fill-rule:evenodd;stroke:#000000;stroke-width:2.0px;stroke-linecap:butt;stroke-linejoin:miter;stroke-opacity:1"/>
<path class="bond-27" d="M 3585.25,250 L 3518.21,366.115" style="fill:none;fill-rule:evenodd;stroke:#000000;stroke-width:2.0px;stroke-linecap:butt;stroke-linejoin:miter;stroke-opacity:1"/>
<path class="bond-27" d="M 3551.97,254.009 L 3505.04,335.29" style="fill:none;fill-rule:evenodd;stroke:#000000;stroke-width:2.0px;stroke-linecap:butt;stroke-linejoin:miter;stroke-opacity:1;stroke-dasharray:6,6"/>
<path class="bond-33" d="M 3585.25,250 L 3518.21,133.885" style="fill:none;fill-rule:evenodd;stroke:#000000;stroke-width:2.0px;stroke-linecap:butt;stroke-linejoin:miter;stroke-opacity:1"/>
<path class="bond-33" d="M 3551.97,245.991 L 3505.04,164.71" style="fill:none;fill-rule:evenodd;stroke:#000000;stroke-width:2.0px;stroke-linecap:butt;stroke-linejoin:miter;stroke-opacity:1;stroke-dasharray:6,6"/>
<path class="bond-28" d="M 3518.21,366.115 L 3384.13,366.115" style="fill:none;fill-rule:evenodd;stroke:#000000;stroke-width:2.0px;stroke-linecap:butt;stroke-linejoin:miter;stroke-opacity:1"/>
<path class="bond-28" d="M 3498.1,339.299 L 3404.24,339.299" style="fill:none;fill-rule:evenodd;stroke:#000000;stroke-width:2.0px;stroke-linecap:butt;stroke-linejoin:miter;stroke-opacity:1;stroke-dasharray:6,6"/>
<path class="bond-29" d="M 3384.13,366.115 L 3317.09,250" style="fill:none;fill-rule:evenodd;stroke:#000000;stroke-width:2.0px;stroke-linecap:butt;stroke-linejoin:miter;stroke-opacity:1"/>
<path class="bond-29" d="M 3397.3,335.29 L 3350.37,254.009" style="fill:none;fill-rule:evenodd;stroke:#000000;stroke-width:2.0px;stroke-linecap:butt;stroke-linejoin:miter;stroke-opacity:1;stroke-dasharray:6,6"/>
<path class="bond-30" d="M 3317.09,250 L 3258.23,250" style="fill:none;fill-rule:evenodd;stroke:#000000;stroke-width:2.0px;stroke-linecap:butt;stroke-linejoin:miter;stroke-opacity:1"/>
<path class="bond-30" d="M 3258.23,250 L 3199.37,250" style="fill:none;fill-rule:evenodd;stroke:#FF0000;stroke-width:2.0px;stroke-linecap:butt;stroke-linejoin:miter;stroke-opacity:1"/>
<path class="bond-31" d="M 3317.09,250 L 3384.13,133.885" style="fill:none;fill-rule:evenodd;stroke:#000000;stroke-width:2.0px;stroke-linecap:butt;stroke-linejoin:miter;stroke-opacity:1"/>
<path class="bond-31" d="M 3350.37,245.991 L 3397.3,164.71" style="fill:none;fill-rule:evenodd;stroke:#000000;stroke-width:2.0px;stroke-linecap:butt;stroke-linejoin:miter;stroke-opacity:1;stroke-dasharray:6,6"/>
<path class="bond-32" d="M 3384.13,133.885 L 3518.21,133.885" style="fill:none;fill-rule:evenodd;stroke:#000000;stroke-width:2.0px;stroke-linecap:butt;stroke-linejoin:miter;stroke-opacity:1"/>
<path class="bond-32" d="M 3404.24,160.701 L 3498.1,160.701" style="fill:none;fill-rule:evenodd;stroke:#000000;stroke-width:2.0px;stroke-linecap:butt;stroke-linejoin:miter;stroke-opacity:1;stroke-dasharray:6,6"/>
<path class="bond-34" d="M 2057.66,175.415 L 2027.49,227.666" style="fill:none;fill-rule:evenodd;stroke:#000000;stroke-width:2.0px;stroke-linecap:butt;stroke-linejoin:miter;stroke-opacity:1"/>
<path class="bond-39" d="M 2057.66,175.415 L 2047.27,157.423" style="fill:none;fill-rule:evenodd;stroke:#000000;stroke-width:2.0px;stroke-linecap:butt;stroke-linejoin:miter;stroke-opacity:1"/>
<path class="bond-39" d="M 2047.27,157.423 L 2036.88,139.432" style="fill:none;fill-rule:evenodd;stroke:#FF0000;stroke-width:2.0px;stroke-linecap:butt;stroke-linejoin:miter;stroke-opacity:1"/>
<path class="bond-35" d="M 2027.49,227.666 L 2004.57,227.666" style="fill:none;fill-rule:evenodd;stroke:#000000;stroke-width:2.0px;stroke-linecap:butt;stroke-linejoin:miter;stroke-opacity:1"/>
<path class="bond-35" d="M 2004.57,227.666 L 1981.66,227.666" style="fill:none;fill-rule:evenodd;stroke:#FF0000;stroke-width:2.0px;stroke-linecap:butt;stroke-linejoin:miter;stroke-opacity:1"/>
<path class="bond-36" d="M 1958.01,211.838 L 1947.5,193.626" style="fill:none;fill-rule:evenodd;stroke:#FF0000;stroke-width:2.0px;stroke-linecap:butt;stroke-linejoin:miter;stroke-opacity:1"/>
<path class="bond-36" d="M 1947.5,193.626 L 1936.99,175.415" style="fill:none;fill-rule:evenodd;stroke:#000000;stroke-width:2.0px;stroke-linecap:butt;stroke-linejoin:miter;stroke-opacity:1"/>
<path class="bond-37" d="M 1936.99,175.415 L 1967.15,123.163" style="fill:none;fill-rule:evenodd;stroke:#000000;stroke-width:2.0px;stroke-linecap:butt;stroke-linejoin:miter;stroke-opacity:1"/>
<path class="bond-38" d="M 1967.15,123.163 L 1990.07,123.163" style="fill:none;fill-rule:evenodd;stroke:#000000;stroke-width:2.0px;stroke-linecap:butt;stroke-linejoin:miter;stroke-opacity:1"/>
<path class="bond-38" d="M 1990.07,123.163 L 2012.98,123.163" style="fill:none;fill-rule:evenodd;stroke:#FF0000;stroke-width:2.0px;stroke-linecap:butt;stroke-linejoin:miter;stroke-opacity:1"/>
<path class="atom-0" d="M 604.607 235.84 L 613.887 250.84 Q 614.807 252.32, 616.287 255 Q 617.767 257.68, 617.847 257.84 L 617.847 235.84 L 621.607 235.84 L 621.607 264.16 L 617.727 264.16 L 607.767 247.76 Q 606.607 245.84, 605.367 243.64 Q 604.167 241.44, 603.807 240.76 L 603.807 264.16 L 600.127 264.16 L 600.127 235.84 L 604.607 235.84 " fill="#0000FF"/>
<path class="atom-0" d="M 625.007 235.84 L 628.847 235.84 L 628.847 247.88 L 643.327 247.88 L 643.327 235.84 L 647.167 235.84 L 647.167 264.16 L 643.327 264.16 L 643.327 251.08 L 628.847 251.08 L 628.847 264.16 L 625.007 264.16 L 625.007 235.84 " fill="#0000FF"/>
<path class="atom-0" d="M 648.539 263.166 Q 649.226 261.398, 650.863 260.421 Q 652.499 259.418, 654.77 259.418 Q 657.595 259.418, 659.179 260.949 Q 660.763 262.48, 660.763 265.199 Q 660.763 267.971, 658.703 270.558 Q 656.671 273.146, 652.447 276.208 L 661.079 276.208 L 661.079 278.32 L 648.487 278.32 L 648.487 276.551 Q 651.971 274.07, 654.031 272.222 Q 656.116 270.374, 657.119 268.71 Q 658.123 267.047, 658.123 265.331 Q 658.123 263.536, 657.225 262.533 Q 656.327 261.53, 654.77 261.53 Q 653.265 261.53, 652.262 262.137 Q 651.259 262.744, 650.546 264.09 L 648.539 263.166 " fill="#0000FF"/>
<path class="atom-7" d="M 1629.36 366.195 Q 1629.36 359.395, 1632.72 355.595 Q 1636.08 351.795, 1642.36 351.795 Q 1648.64 351.795, 1652 355.595 Q 1655.36 359.395, 1655.36 366.195 Q 1655.36 373.075, 1651.96 376.995 Q 1648.56 380.875, 1642.36 380.875 Q 1636.12 380.875, 1632.72 376.995 Q 1629.36 373.115, 1629.36 366.195 M 1642.36 377.675 Q 1646.68 377.675, 1649 374.795 Q 1651.36 371.875, 1651.36 366.195 Q 1651.36 360.635, 1649 357.835 Q 1646.68 354.995, 1642.36 354.995 Q 1638.04 354.995, 1635.68 357.795 Q 1633.36 360.595, 1633.36 366.195 Q 1633.36 371.915, 1635.68 374.795 Q 1638.04 377.675, 1642.36 377.675 " fill="#FF0000"/>
<path class="atom-8" d="M 1569.06 235.84 L 1578.34 250.84 Q 1579.26 252.32, 1580.74 255 Q 1582.22 257.68, 1582.3 257.84 L 1582.3 235.84 L 1586.06 235.84 L 1586.06 264.16 L 1582.18 264.16 L 1572.22 247.76 Q 1571.06 245.84, 1569.82 243.64 Q 1568.62 241.44, 1568.26 240.76 L 1568.26 264.16 L 1564.58 264.16 L 1564.58 235.84 L 1569.06 235.84 " fill="#0000FF"/>
<path class="atom-8" d="M 1588.44 240.945 L 1593.43 240.945 L 1593.43 235.691 L 1595.65 235.691 L 1595.65 240.945 L 1600.77 240.945 L 1600.77 242.846 L 1595.65 242.846 L 1595.65 248.126 L 1593.43 248.126 L 1593.43 242.846 L 1588.44 242.846 L 1588.44 240.945 " fill="#0000FF"/>
<path class="atom-9" d="M 1629.36 133.965 Q 1629.36 127.165, 1632.72 123.365 Q 1636.08 119.565, 1642.36 119.565 Q 1648.64 119.565, 1652 123.365 Q 1655.36 127.165, 1655.36 133.965 Q 1655.36 140.845, 1651.96 144.765 Q 1648.56 148.645, 1642.36 148.645 Q 1636.12 148.645, 1632.72 144.765 Q 1629.36 140.885, 1629.36 133.965 M 1642.36 145.445 Q 1646.68 145.445, 1649 142.565 Q 1651.36 139.645, 1651.36 133.965 Q 1651.36 128.405, 1649 125.605 Q 1646.68 122.765, 1642.36 122.765 Q 1638.04 122.765, 1635.68 125.565 Q 1633.36 128.365, 1633.36 133.965 Q 1633.36 139.685, 1635.68 142.565 Q 1638.04 145.445, 1642.36 145.445 " fill="#FF0000"/>
<path class="atom-9" d="M 1656.68 124.188 L 1666.37 124.188 L 1666.37 126.3 L 1656.68 126.3 L 1656.68 124.188 " fill="#FF0000"/>
<path class="atom-14" d="M 1001.85 236 L 1005.69 236 L 1005.69 248.04 L 1020.17 248.04 L 1020.17 236 L 1024.01 236 L 1024.01 264.32 L 1020.17 264.32 L 1020.17 251.24 L 1005.69 251.24 L 1005.69 264.32 L 1001.85 264.32 L 1001.85 236 " fill="#FF0000"/>
<path class="atom-14" d="M 1026.01 250.08 Q 1026.01 243.28, 1029.37 239.48 Q 1032.73 235.68, 1039.01 235.68 Q 1045.29 235.68, 1048.65 239.48 Q 1052.01 243.28, 1052.01 250.08 Q 1052.01 256.96, 1048.61 260.88 Q 1045.21 264.76, 1039.01 264.76 Q 1032.77 264.76, 1029.37 260.88 Q 1026.01 257, 1026.01 250.08 M 1039.01 261.56 Q 1043.33 261.56, 1045.65 258.68 Q 1048.01 255.76, 1048.01 250.08 Q 1048.01 244.52, 1045.65 241.72 Q 1043.33 238.88, 1039.01 238.88 Q 1034.69 238.88, 1032.33 241.68 Q 1030.01 244.48, 1030.01 250.08 Q 1030.01 255.8, 1032.33 258.68 Q 1034.69 261.56, 1039.01 261.56 " fill="#FF0000"/>
<path class="atom-17" d="M 2748.61 235.84 L 2757.89 250.84 Q 2758.81 252.32, 2760.29 255 Q 2761.77 257.68, 2761.85 257.84 L 2761.85 235.84 L 2765.61 235.84 L 2765.61 264.16 L 2761.73 264.16 L 2751.77 247.76 Q 2750.61 245.84, 2749.37 243.64 Q 2748.17 241.44, 2747.81 240.76 L 2747.81 264.16 L 2744.13 264.16 L 2744.13 235.84 L 2748.61 235.84 " fill="#0000FF"/>
<path class="atom-17" d="M 2769.01 235.84 L 2772.85 235.84 L 2772.85 247.88 L 2787.33 247.88 L 2787.33 235.84 L 2791.17 235.84 L 2791.17 264.16 L 2787.33 264.16 L 2787.33 251.08 L 2772.85 251.08 L 2772.85 264.16 L 2769.01 264.16 L 2769.01 235.84 " fill="#0000FF"/>
<path class="atom-17" d="M 2792.54 263.166 Q 2793.23 261.398, 2794.86 260.421 Q 2796.5 259.418, 2798.77 259.418 Q 2801.6 259.418, 2803.18 260.949 Q 2804.76 262.48, 2804.76 265.199 Q 2804.76 267.971, 2802.71 270.558 Q 2800.67 273.146, 2796.45 276.208 L 2805.08 276.208 L 2805.08 278.32 L 2792.49 278.32 L 2792.49 276.551 Q 2795.97 274.07, 2798.03 272.222 Q 2800.12 270.374, 2801.12 268.71 Q 2802.12 267.047, 2802.12 265.331 Q 2802.12 263.536, 2801.23 262.533 Q 2800.33 261.53, 2798.77 261.53 Q 2797.27 261.53, 2796.26 262.137 Q 2795.26 262.744, 2794.55 264.09 L 2792.54 263.166 " fill="#0000FF"/>
<path class="atom-24" d="M 3773.36 366.195 Q 3773.36 359.395, 3776.72 355.595 Q 3780.08 351.795, 3786.36 351.795 Q 3792.64 351.795, 3796 355.595 Q 3799.36 359.395, 3799.36 366.195 Q 3799.36 373.075, 3795.96 376.995 Q 3792.56 380.875, 3786.36 380.875 Q 3780.12 380.875, 3776.72 376.995 Q 3773.36 373.115, 3773.36 366.195 M 3786.36 377.675 Q 3790.68 377.675, 3793 374.795 Q 3795.36 371.875, 3795.36 366.195 Q 3795.36 360.635, 3793 357.835 Q 3790.68 354.995, 3786.36 354.995 Q 3782.04 354.995, 3779.68 357.795 Q 3777.36 360.595, 3777.36 366.195 Q 3777.36 371.915, 3779.68 374.795 Q 3782.04 377.675, 3786.36 377.675 " fill="#FF0000"/>
<path class="atom-25" d="M 3713.06 235.84 L 3722.34 250.84 Q 3723.26 252.32, 3724.74 255 Q 3726.22 257.68, 3726.3 257.84 L 3726.3 235.84 L 3730.06 235.84 L 3730.06 264.16 L 3726.18 264.16 L 3716.22 247.76 Q 3715.06 245.84, 3713.82 243.64 Q 3712.62 241.44, 3712.26 240.76 L 3712.26 264.16 L 3708.58 264.16 L 3708.58 235.84 L 3713.06 235.84 " fill="#0000FF"/>
<path class="atom-25" d="M 3732.44 240.945 L 3737.43 240.945 L 3737.43 235.691 L 3739.65 235.691 L 3739.65 240.945 L 3744.77 240.945 L 3744.77 242.846 L 3739.65 242.846 L 3739.65 248.126 L 3737.43 248.126 L 3737.43 242.846 L 3732.44 242.846 L 3732.44 240.945 " fill="#0000FF"/>
<path class="atom-26" d="M 3773.36 133.965 Q 3773.36 127.165, 3776.72 123.365 Q 3780.08 119.565, 3786.36 119.565 Q 3792.64 119.565, 3796 123.365 Q 3799.36 127.165, 3799.36 133.965 Q 3799.36 140.845, 3795.96 144.765 Q 3792.56 148.645, 3786.36 148.645 Q 3780.12 148.645, 3776.72 144.765 Q 3773.36 140.885, 3773.36 133.965 M 3786.36 145.445 Q 3790.68 145.445, 3793 142.565 Q 3795.36 139.645, 3795.36 133.965 Q 3795.36 128.405, 3793 125.605 Q 3790.68 122.765, 3786.36 122.765 Q 3782.04 122.765, 3779.68 125.565 Q 3777.36 128.365, 3777.36 133.965 Q 3777.36 139.685, 3779.68 142.565 Q 3782.04 145.445, 3786.36 145.445 " fill="#FF0000"/>
<path class="atom-26" d="M 3800.68 124.188 L 3810.37 124.188 L 3810.37 126.3 L 3800.68 126.3 L 3800.68 124.188 " fill="#FF0000"/>
<path class="atom-31" d="M 3145.85 236 L 3149.69 236 L 3149.69 248.04 L 3164.17 248.04 L 3164.17 236 L 3168.01 236 L 3168.01 264.32 L 3164.17 264.32 L 3164.17 251.24 L 3149.69 251.24 L 3149.69 264.32 L 3145.85 264.32 L 3145.85 236 " fill="#FF0000"/>
<path class="atom-31" d="M 3170.01 250.08 Q 3170.01 243.28, 3173.37 239.48 Q 3176.73 235.68, 3183.01 235.68 Q 3189.29 235.68, 3192.65 239.48 Q 3196.01 243.28, 3196.01 250.08 Q 3196.01 256.96, 3192.61 260.88 Q 3189.21 264.76, 3183.01 264.76 Q 3176.77 264.76, 3173.37 260.88 Q 3170.01 257, 3170.01 250.08 M 3183.01 261.56 Q 3187.33 261.56, 3189.65 258.68 Q 3192.01 255.76, 3192.01 250.08 Q 3192.01 244.52, 3189.65 241.72 Q 3187.33 238.88, 3183.01 238.88 Q 3178.69 238.88, 3176.33 241.68 Q 3174.01 244.48, 3174.01 250.08 Q 3174.01 255.8, 3176.33 258.68 Q 3178.69 261.56, 3183.01 261.56 " fill="#FF0000"/>
<path class="atom-36" d="M 1954.15 227.746 Q 1954.15 220.946, 1957.51 217.146 Q 1960.87 213.346, 1967.15 213.346 Q 1973.43 213.346, 1976.79 217.146 Q 1980.15 220.946, 1980.15 227.746 Q 1980.15 234.626, 1976.75 238.546 Q 1973.35 242.426, 1967.15 242.426 Q 1960.91 242.426, 1957.51 238.546 Q 1954.15 234.666, 1954.15 227.746 M 1967.15 239.226 Q 1971.47 239.226, 1973.79 236.346 Q 1976.15 233.426, 1976.15 227.746 Q 1976.15 222.186, 1973.79 219.386 Q 1971.47 216.546, 1967.15 216.546 Q 1962.83 216.546, 1960.47 219.346 Q 1958.15 222.146, 1958.15 227.746 Q 1958.15 233.466, 1960.47 236.346 Q 1962.83 239.226, 1967.15 239.226 " fill="#FF0000"/>
<path class="atom-39" d="M 2014.49 123.243 Q 2014.49 116.443, 2017.85 112.643 Q 2021.21 108.843, 2027.49 108.843 Q 2033.77 108.843, 2037.13 112.643 Q 2040.49 116.443, 2040.49 123.243 Q 2040.49 130.123, 2037.09 134.043 Q 2033.69 137.923, 2027.49 137.923 Q 2021.25 137.923, 2017.85 134.043 Q 2014.49 130.163, 2014.49 123.243 M 2027.49 134.723 Q 2031.81 134.723, 2034.13 131.843 Q 2036.49 128.923, 2036.49 123.243 Q 2036.49 117.683, 2034.13 114.883 Q 2031.81 112.043, 2027.49 112.043 Q 2023.17 112.043, 2020.81 114.843 Q 2018.49 117.643, 2018.49 123.243 Q 2018.49 128.963, 2020.81 131.843 Q 2023.17 134.723, 2027.49 134.723 " fill="#FF0000"/>
<path class="note" d="M 629.723 216.815 L 632.823 216.815 L 632.823 206.235 L 629.403 207.295 L 628.943 206.115 L 633.283 204.175 L 634.703 204.415 L 634.703 216.815 L 637.483 216.815 L 637.483 218.415 L 629.723 218.415 L 629.723 216.815 " fill="#000000"/>
<path class="note" d="M 483.232 265.032 Q 483.752 263.692, 484.992 262.952 Q 486.232 262.192, 487.952 262.192 Q 490.092 262.192, 491.292 263.352 Q 492.492 264.512, 492.492 266.572 Q 492.492 268.672, 490.932 270.632 Q 489.392 272.592, 486.192 274.912 L 492.732 274.912 L 492.732 276.512 L 483.192 276.512 L 483.192 275.172 Q 485.832 273.292, 487.392 271.892 Q 488.972 270.492, 489.732 269.232 Q 490.492 267.972, 490.492 266.672 Q 490.492 265.312, 489.812 264.552 Q 489.132 263.792, 487.952 263.792 Q 486.812 263.792, 486.052 264.252 Q 485.292 264.712, 484.752 265.732 L 483.232 265.032 " fill="#000000"/>
<path class="note" d="M 422.963 385.167 Q 424.343 385.567, 425.003 386.467 Q 425.683 387.347, 425.683 388.747 Q 425.683 389.947, 425.083 390.887 Q 424.483 391.807, 423.383 392.327 Q 422.283 392.827, 420.843 392.827 Q 419.323 392.827, 418.183 392.307 Q 417.063 391.767, 416.163 390.687 L 417.303 389.527 Q 418.183 390.487, 418.923 390.867 Q 419.663 391.227, 420.843 391.227 Q 422.123 391.227, 422.903 390.547 Q 423.683 389.847, 423.683 388.727 Q 423.683 387.287, 422.863 386.647 Q 422.063 385.987, 420.323 385.987 L 419.303 385.987 L 419.303 384.547 L 420.203 384.547 Q 421.743 384.527, 422.563 383.867 Q 423.383 383.187, 423.383 381.927 Q 423.383 381.007, 422.703 380.467 Q 422.023 379.907, 420.863 379.907 Q 419.683 379.907, 418.943 380.327 Q 418.223 380.747, 417.663 381.807 L 416.283 381.067 Q 416.783 379.887, 417.983 379.107 Q 419.183 378.307, 420.863 378.307 Q 422.943 378.307, 424.163 379.287 Q 425.383 380.267, 425.383 381.927 Q 425.383 383.067, 424.763 383.887 Q 424.143 384.707, 422.963 385.167 " fill="#000000"/>
<path class="note" d="M 268.249 387.687 L 269.949 387.687 L 269.949 389.287 L 268.249 389.287 L 268.249 392.547 L 266.369 392.547 L 266.369 389.287 L 259.049 389.287 L 259.049 388.027 L 265.249 378.387 L 268.249 378.387 L 268.249 387.687 M 261.369 387.687 L 266.369 387.687 L 266.369 379.667 L 261.369 387.687 " fill="#000000"/>
<path class="note" d="M 186.637 248.22 Q 187.877 248.22, 188.897 248.76 Q 189.917 249.28, 190.497 250.28 Q 191.077 251.26, 191.077 252.6 Q 191.077 254.06, 190.357 255.12 Q 189.657 256.16, 188.497 256.7 Q 187.337 257.24, 186.017 257.24 Q 184.717 257.24, 183.517 256.76 Q 182.317 256.28, 181.497 255.36 L 182.697 254.12 Q 183.357 254.84, 184.257 255.24 Q 185.157 255.62, 186.077 255.62 Q 187.337 255.62, 188.197 254.84 Q 189.077 254.06, 189.077 252.64 Q 189.077 251.14, 188.197 250.44 Q 187.337 249.72, 185.957 249.72 Q 184.717 249.72, 183.337 250.26 L 182.237 249.74 L 182.917 242.92 L 190.197 242.92 L 189.997 244.52 L 184.557 244.52 L 184.137 248.72 Q 185.397 248.22, 186.637 248.22 " fill="#000000"/>
<path class="note" d="M 265.129 112.853 Q 266.369 112.853, 267.349 113.393 Q 268.329 113.933, 268.869 114.913 Q 269.409 115.893, 269.409 117.133 Q 269.409 118.513, 268.789 119.593 Q 268.189 120.653, 267.109 121.253 Q 266.029 121.853, 264.649 121.853 Q 262.129 121.853, 260.849 120.153 Q 259.589 118.433, 259.589 115.033 Q 259.589 111.273, 261.149 109.333 Q 262.729 107.373, 265.749 107.373 Q 266.629 107.373, 267.369 107.573 Q 268.129 107.773, 268.849 108.193 L 268.069 109.533 Q 267.029 108.973, 265.769 108.973 Q 263.769 108.973, 262.749 110.273 Q 261.729 111.553, 261.609 114.213 Q 262.329 113.553, 263.229 113.213 Q 264.149 112.853, 265.129 112.853 M 264.669 120.213 Q 265.429 120.213, 266.049 119.813 Q 266.689 119.413, 267.049 118.713 Q 267.409 118.013, 267.409 117.153 Q 267.409 115.893, 266.709 115.173 Q 266.009 114.453, 264.769 114.453 Q 263.909 114.453, 263.049 114.813 Q 262.209 115.153, 261.609 115.753 Q 261.689 118.093, 262.429 119.153 Q 263.169 120.213, 264.669 120.213 " fill="#000000"/>
<path class="note" d="M 423.643 109.053 L 416.223 109.053 L 416.223 107.453 L 425.623 107.453 L 425.623 108.873 L 419.903 121.613 L 417.983 121.613 L 423.643 109.053 " fill="#000000"/>
<path class="note" d="M 1666.93 404.48 Q 1668.23 405.04, 1668.97 405.88 Q 1669.71 406.7, 1669.71 408.1 Q 1669.71 409.3, 1669.09 410.24 Q 1668.47 411.16, 1667.35 411.68 Q 1666.25 412.18, 1664.79 412.18 Q 1662.43 412.18, 1661.07 411.1 Q 1659.71 410, 1659.71 408.1 Q 1659.71 406.94, 1660.31 406.08 Q 1660.91 405.2, 1662.15 404.54 Q 1661.23 404.02, 1660.73 403.26 Q 1660.23 402.48, 1660.23 401.28 Q 1660.23 399.62, 1661.43 398.64 Q 1662.65 397.66, 1664.71 397.66 Q 1666.77 397.66, 1667.97 398.64 Q 1669.19 399.62, 1669.19 401.28 Q 1669.19 402.32, 1668.61 403.1 Q 1668.05 403.86, 1666.93 404.48 M 1664.71 399.16 Q 1663.53 399.16, 1662.87 399.72 Q 1662.23 400.28, 1662.23 401.28 Q 1662.23 402.02, 1662.67 402.52 Q 1663.11 403, 1663.73 403.28 Q 1664.37 403.56, 1665.59 403.98 Q 1666.45 403.38, 1666.81 402.74 Q 1667.19 402.1, 1667.19 401.28 Q 1667.19 400.28, 1666.53 399.72 Q 1665.89 399.16, 1664.71 399.16 M 1664.79 410.68 Q 1666.11 410.68, 1666.91 409.98 Q 1667.71 409.26, 1667.71 408.08 Q 1667.71 407.32, 1667.29 406.84 Q 1666.87 406.36, 1666.23 406.08 Q 1665.61 405.8, 1664.49 405.44 L 1663.59 405.14 Q 1662.59 405.74, 1662.15 406.46 Q 1661.71 407.16, 1661.71 408.08 Q 1661.71 409.26, 1662.55 409.98 Q 1663.39 410.68, 1664.79 410.68 " fill="#000000"/>
<path class="note" d="M 1619.86 242.84 Q 1622.38 242.84, 1623.64 244.56 Q 1624.92 246.26, 1624.92 249.66 Q 1624.92 253.42, 1623.34 255.38 Q 1621.78 257.32, 1618.76 257.32 Q 1617.88 257.32, 1617.12 257.12 Q 1616.38 256.92, 1615.66 256.5 L 1616.44 255.16 Q 1617.48 255.72, 1618.74 255.72 Q 1620.74 255.72, 1621.76 254.44 Q 1622.78 253.14, 1622.9 250.48 Q 1622.18 251.14, 1621.26 251.5 Q 1620.36 251.84, 1619.38 251.84 Q 1618.14 251.84, 1617.16 251.3 Q 1616.18 250.76, 1615.64 249.78 Q 1615.1 248.8, 1615.1 247.56 Q 1615.1 246.18, 1615.7 245.12 Q 1616.32 244.04, 1617.4 243.44 Q 1618.48 242.84, 1619.86 242.84 M 1617.1 247.54 Q 1617.1 248.8, 1617.8 249.52 Q 1618.5 250.24, 1619.74 250.24 Q 1620.6 250.24, 1621.44 249.9 Q 1622.3 249.54, 1622.9 248.94 Q 1622.82 246.6, 1622.08 245.54 Q 1621.34 244.48, 1619.84 244.48 Q 1619.08 244.48, 1618.44 244.88 Q 1617.82 245.28, 1617.46 245.98 Q 1617.1 246.68, 1617.1 247.54 " fill="#000000"/>
<path class="note" d="M 1651.16 100.74 L 1654.26 100.74 L 1654.26 90.1605 L 1650.84 91.2205 L 1650.38 90.0405 L 1654.72 88.1005 L 1656.14 88.3405 L 1656.14 100.74 L 1658.92 100.74 L 1658.92 102.34 L 1651.16 102.34 L 1651.16 100.74 " fill="#000000"/>
<path class="note" d="M 1665.32 102.5 Q 1662.72 102.5, 1661.42 100.58 Q 1660.14 98.6605, 1660.14 95.2405 Q 1660.14 91.8205, 1661.42 89.9205 Q 1662.7 88.0205, 1665.32 88.0205 Q 1667.94 88.0205, 1669.22 89.9205 Q 1670.5 91.8205, 1670.5 95.2405 Q 1670.5 98.6605, 1669.2 100.58 Q 1667.92 102.5, 1665.32 102.5 M 1665.32 100.9 Q 1666.86 100.9, 1667.68 99.4805 Q 1668.5 98.0405, 1668.5 95.2405 Q 1668.5 92.4605, 1667.68 91.0405 Q 1666.86 89.6205, 1665.32 89.6205 Q 1663.8 89.6205, 1662.96 91.0405 Q 1662.14 92.4605, 1662.14 95.2405 Q 1662.14 98.0405, 1662.96 99.4805 Q 1663.8 100.9, 1665.32 100.9 " fill="#000000"/>
<path class="note" d="M 1451.02 294.225 L 1454.12 294.225 L 1454.12 283.645 L 1450.7 284.705 L 1450.24 283.525 L 1454.58 281.585 L 1456 281.825 L 1456 294.225 L 1458.78 294.225 L 1458.78 295.825 L 1451.02 295.825 L 1451.02 294.225 " fill="#000000"/>
<path class="note" d="M 1460.64 294.225 L 1463.74 294.225 L 1463.74 283.645 L 1460.32 284.705 L 1459.86 283.525 L 1464.2 281.585 L 1465.62 281.825 L 1465.62 294.225 L 1468.4 294.225 L 1468.4 295.825 L 1460.64 295.825 L 1460.64 294.225 " fill="#000000"/>
<path class="note" d="M 1372.35 391.027 L 1375.45 391.027 L 1375.45 380.447 L 1372.03 381.507 L 1371.57 380.327 L 1375.91 378.387 L 1377.33 378.627 L 1377.33 391.027 L 1380.11 391.027 L 1380.11 392.627 L 1372.35 392.627 L 1372.35 391.027 " fill="#000000"/>
<path class="note" d="M 1381.15 381.147 Q 1381.67 379.807, 1382.91 379.067 Q 1384.15 378.307, 1385.87 378.307 Q 1388.01 378.307, 1389.21 379.467 Q 1390.41 380.627, 1390.41 382.687 Q 1390.41 384.787, 1388.85 386.747 Q 1387.31 388.707, 1384.11 391.027 L 1390.65 391.027 L 1390.65 392.627 L 1381.11 392.627 L 1381.11 391.287 Q 1383.75 389.407, 1385.31 388.007 Q 1386.89 386.607, 1387.65 385.347 Q 1388.41 384.087, 1388.41 382.787 Q 1388.41 381.427, 1387.73 380.667 Q 1387.05 379.907, 1385.87 379.907 Q 1384.73 379.907, 1383.97 380.367 Q 1383.21 380.827, 1382.67 381.847 L 1381.15 381.147 " fill="#000000"/>
<path class="note" d="M 1216.01 391.027 L 1219.11 391.027 L 1219.11 380.447 L 1215.69 381.507 L 1215.23 380.327 L 1219.57 378.387 L 1220.99 378.627 L 1220.99 391.027 L 1223.77 391.027 L 1223.77 392.627 L 1216.01 392.627 L 1216.01 391.027 " fill="#000000"/>
<path class="note" d="M 1231.41 385.167 Q 1232.79 385.567, 1233.45 386.467 Q 1234.13 387.347, 1234.13 388.747 Q 1234.13 389.947, 1233.53 390.887 Q 1232.93 391.807, 1231.83 392.327 Q 1230.73 392.827, 1229.29 392.827 Q 1227.77 392.827, 1226.63 392.307 Q 1225.51 391.767, 1224.61 390.687 L 1225.75 389.527 Q 1226.63 390.487, 1227.37 390.867 Q 1228.11 391.227, 1229.29 391.227 Q 1230.57 391.227, 1231.35 390.547 Q 1232.13 389.847, 1232.13 388.727 Q 1232.13 387.287, 1231.31 386.647 Q 1230.51 385.987, 1228.77 385.987 L 1227.75 385.987 L 1227.75 384.547 L 1228.65 384.547 Q 1230.19 384.527, 1231.01 383.867 Q 1231.83 383.187, 1231.83 381.927 Q 1231.83 381.007, 1231.15 380.467 Q 1230.47 379.907, 1229.31 379.907 Q 1228.13 379.907, 1227.39 380.327 Q 1226.67 380.747, 1226.11 381.807 L 1224.73 381.067 Q 1225.23 379.887, 1226.43 379.107 Q 1227.63 378.307, 1229.31 378.307 Q 1231.39 378.307, 1232.61 379.287 Q 1233.83 380.267, 1233.83 381.927 Q 1233.83 383.067, 1233.21 383.887 Q 1232.59 384.707, 1231.41 385.167 " fill="#000000"/>
<path class="note" d="M 1148.41 274.872 L 1151.51 274.872 L 1151.51 264.292 L 1148.09 265.352 L 1147.63 264.172 L 1151.97 262.232 L 1153.39 262.472 L 1153.39 274.872 L 1156.17 274.872 L 1156.17 276.472 L 1148.41 276.472 L 1148.41 274.872 " fill="#000000"/>
<path class="note" d="M 1165.97 271.612 L 1167.67 271.612 L 1167.67 273.212 L 1165.97 273.212 L 1165.97 276.472 L 1164.09 276.472 L 1164.09 273.212 L 1156.77 273.212 L 1156.77 271.952 L 1162.97 262.312 L 1165.97 262.312 L 1165.97 271.612 M 1159.09 271.612 L 1164.09 271.612 L 1164.09 263.592 L 1159.09 271.612 " fill="#000000"/>
<path class="note" d="M 1003.66 294.225 L 1006.76 294.225 L 1006.76 283.645 L 1003.34 284.705 L 1002.88 283.525 L 1007.22 281.585 L 1008.64 281.825 L 1008.64 294.225 L 1011.42 294.225 L 1011.42 295.825 L 1003.66 295.825 L 1003.66 294.225 " fill="#000000"/>
<path class="note" d="M 1017.48 286.965 Q 1018.72 286.965, 1019.74 287.505 Q 1020.76 288.025, 1021.34 289.025 Q 1021.92 290.005, 1021.92 291.345 Q 1021.92 292.805, 1021.2 293.865 Q 1020.5 294.905, 1019.34 295.445 Q 1018.18 295.985, 1016.86 295.985 Q 1015.56 295.985, 1014.36 295.505 Q 1013.16 295.025, 1012.34 294.105 L 1013.54 292.865 Q 1014.2 293.585, 1015.1 293.985 Q 1016 294.365, 1016.92 294.365 Q 1018.18 294.365, 1019.04 293.585 Q 1019.92 292.805, 1019.92 291.385 Q 1019.92 289.885, 1019.04 289.185 Q 1018.18 288.465, 1016.8 288.465 Q 1015.56 288.465, 1014.18 289.005 L 1013.08 288.485 L 1013.76 281.665 L 1021.04 281.665 L 1020.84 283.265 L 1015.4 283.265 L 1014.98 287.465 Q 1016.24 286.965, 1017.48 286.965 " fill="#000000"/>
<path class="note" d="M 1215.6 120.093 L 1218.7 120.093 L 1218.7 109.513 L 1215.28 110.573 L 1214.82 109.393 L 1219.16 107.453 L 1220.58 107.693 L 1220.58 120.093 L 1223.36 120.093 L 1223.36 121.693 L 1215.6 121.693 L 1215.6 120.093 " fill="#000000"/>
<path class="note" d="M 1230.26 112.853 Q 1231.5 112.853, 1232.48 113.393 Q 1233.46 113.933, 1234 114.913 Q 1234.54 115.893, 1234.54 117.133 Q 1234.54 118.513, 1233.92 119.593 Q 1233.32 120.653, 1232.24 121.253 Q 1231.16 121.853, 1229.78 121.853 Q 1227.26 121.853, 1225.98 120.153 Q 1224.72 118.433, 1224.72 115.033 Q 1224.72 111.273, 1226.28 109.333 Q 1227.86 107.373, 1230.88 107.373 Q 1231.76 107.373, 1232.5 107.573 Q 1233.26 107.773, 1233.98 108.193 L 1233.2 109.533 Q 1232.16 108.973, 1230.9 108.973 Q 1228.9 108.973, 1227.88 110.273 Q 1226.86 111.553, 1226.74 114.213 Q 1227.46 113.553, 1228.36 113.213 Q 1229.28 112.853, 1230.26 112.853 M 1229.8 120.213 Q 1230.56 120.213, 1231.18 119.813 Q 1231.82 119.413, 1232.18 118.713 Q 1232.54 118.013, 1232.54 117.153 Q 1232.54 115.893, 1231.84 115.173 Q 1231.14 114.453, 1229.9 114.453 Q 1229.04 114.453, 1228.18 114.813 Q 1227.34 115.153, 1226.74 115.753 Q 1226.82 118.093, 1227.56 119.153 Q 1228.3 120.213, 1229.8 120.213 " fill="#000000"/>
<path class="note" d="M 1372.74 120.053 L 1375.84 120.053 L 1375.84 109.473 L 1372.42 110.533 L 1371.96 109.353 L 1376.3 107.413 L 1377.72 107.653 L 1377.72 120.053 L 1380.5 120.053 L 1380.5 121.653 L 1372.74 121.653 L 1372.74 120.053 " fill="#000000"/>
<path class="note" d="M 1388.28 109.093 L 1380.86 109.093 L 1380.86 107.493 L 1390.26 107.493 L 1390.26 108.913 L 1384.54 121.653 L 1382.62 121.653 L 1388.28 109.093 " fill="#000000"/>
<path class="note" d="M 2773.72 216.815 L 2776.82 216.815 L 2776.82 206.235 L 2773.4 207.295 L 2772.94 206.115 L 2777.28 204.175 L 2778.7 204.415 L 2778.7 216.815 L 2781.48 216.815 L 2781.48 218.415 L 2773.72 218.415 L 2773.72 216.815 " fill="#000000"/>
<path class="note" d="M 2627.23 265.032 Q 2627.75 263.692, 2628.99 262.952 Q 2630.23 262.192, 2631.95 262.192 Q 2634.09 262.192, 2635.29 263.352 Q 2636.49 264.512, 2636.49 266.572 Q 2636.49 268.672, 2634.93 270.632 Q 2633.39 272.592, 2630.19 274.912 L 2636.73 274.912 L 2636.73 276.512 L 2627.19 276.512 L 2627.19 275.172 Q 2629.83 273.292, 2631.39 271.892 Q 2632.97 270.492, 2633.73 269.232 Q 2634.49 267.972, 2634.49 266.672 Q 2634.49 265.312, 2633.81 264.552 Q 2633.13 263.792, 2631.95 263.792 Q 2630.81 263.792, 2630.05 264.252 Q 2629.29 264.712, 2628.75 265.732 L 2627.23 265.032 " fill="#000000"/>
<path class="note" d="M 2566.96 385.167 Q 2568.34 385.567, 2569 386.467 Q 2569.68 387.347, 2569.68 388.747 Q 2569.68 389.947, 2569.08 390.887 Q 2568.48 391.807, 2567.38 392.327 Q 2566.28 392.827, 2564.84 392.827 Q 2563.32 392.827, 2562.18 392.307 Q 2561.06 391.767, 2560.16 390.687 L 2561.3 389.527 Q 2562.18 390.487, 2562.92 390.867 Q 2563.66 391.227, 2564.84 391.227 Q 2566.12 391.227, 2566.9 390.547 Q 2567.68 389.847, 2567.68 388.727 Q 2567.68 387.287, 2566.86 386.647 Q 2566.06 385.987, 2564.32 385.987 L 2563.3 385.987 L 2563.3 384.547 L 2564.2 384.547 Q 2565.74 384.527, 2566.56 383.867 Q 2567.38 383.187, 2567.38 381.927 Q 2567.38 381.007, 2566.7 380.467 Q 2566.02 379.907, 2564.86 379.907 Q 2563.68 379.907, 2562.94 380.327 Q 2562.22 380.747, 2561.66 381.807 L 2560.28 381.067 Q 2560.78 379.887, 2561.98 379.107 Q 2563.18 378.307, 2564.86 378.307 Q 2566.94 378.307, 2568.16 379.287 Q 2569.38 380.267, 2569.38 381.927 Q 2569.38 383.067, 2568.76 383.887 Q 2568.14 384.707, 2566.96 385.167 " fill="#000000"/>
<path class="note" d="M 2412.25 387.687 L 2413.95 387.687 L 2413.95 389.287 L 2412.25 389.287 L 2412.25 392.547 L 2410.37 392.547 L 2410.37 389.287 L 2403.05 389.287 L 2403.05 388.027 L 2409.25 378.387 L 2412.25 378.387 L 2412.25 387.687 M 2405.37 387.687 L 2410.37 387.687 L 2410.37 379.667 L 2405.37 387.687 " fill="#000000"/>
<path class="note" d="M 2330.64 248.22 Q 2331.88 248.22, 2332.9 248.76 Q 2333.92 249.28, 2334.5 250.28 Q 2335.08 251.26, 2335.08 252.6 Q 2335.08 254.06, 2334.36 255.12 Q 2333.66 256.16, 2332.5 256.7 Q 2331.34 257.24, 2330.02 257.24 Q 2328.72 257.24, 2327.52 256.76 Q 2326.32 256.28, 2325.5 255.36 L 2326.7 254.12 Q 2327.36 254.84, 2328.26 255.24 Q 2329.16 255.62, 2330.08 255.62 Q 2331.34 255.62, 2332.2 254.84 Q 2333.08 254.06, 2333.08 252.64 Q 2333.08 251.14, 2332.2 250.44 Q 2331.34 249.72, 2329.96 249.72 Q 2328.72 249.72, 2327.34 250.26 L 2326.24 249.74 L 2326.92 242.92 L 2334.2 242.92 L 2334 244.52 L 2328.56 244.52 L 2328.14 248.72 Q 2329.4 248.22, 2330.64 248.22 " fill="#000000"/>
<path class="note" d="M 2409.13 112.853 Q 2410.37 112.853, 2411.35 113.393 Q 2412.33 113.933, 2412.87 114.913 Q 2413.41 115.893, 2413.41 117.133 Q 2413.41 118.513, 2412.79 119.593 Q 2412.19 120.653, 2411.11 121.253 Q 2410.03 121.853, 2408.65 121.853 Q 2406.13 121.853, 2404.85 120.153 Q 2403.59 118.433, 2403.59 115.033 Q 2403.59 111.273, 2405.15 109.333 Q 2406.73 107.373, 2409.75 107.373 Q 2410.63 107.373, 2411.37 107.573 Q 2412.13 107.773, 2412.85 108.193 L 2412.07 109.533 Q 2411.03 108.973, 2409.77 108.973 Q 2407.77 108.973, 2406.75 110.273 Q 2405.73 111.553, 2405.61 114.213 Q 2406.33 113.553, 2407.23 113.213 Q 2408.15 112.853, 2409.13 112.853 M 2408.67 120.213 Q 2409.43 120.213, 2410.05 119.813 Q 2410.69 119.413, 2411.05 118.713 Q 2411.41 118.013, 2411.41 117.153 Q 2411.41 115.893, 2410.71 115.173 Q 2410.01 114.453, 2408.77 114.453 Q 2407.91 114.453, 2407.05 114.813 Q 2406.21 115.153, 2405.61 115.753 Q 2405.69 118.093, 2406.43 119.153 Q 2407.17 120.213, 2408.67 120.213 " fill="#000000"/>
<path class="note" d="M 2567.64 109.053 L 2560.22 109.053 L 2560.22 107.453 L 2569.62 107.453 L 2569.62 108.873 L 2563.9 121.613 L 2561.98 121.613 L 2567.64 109.053 " fill="#000000"/>
<path class="note" d="M 3810.93 404.48 Q 3812.23 405.04, 3812.97 405.88 Q 3813.71 406.7, 3813.71 408.1 Q 3813.71 409.3, 3813.09 410.24 Q 3812.47 411.16, 3811.35 411.68 Q 3810.25 412.18, 3808.79 412.18 Q 3806.43 412.18, 3805.07 411.1 Q 3803.71 410, 3803.71 408.1 Q 3803.71 406.94, 3804.31 406.08 Q 3804.91 405.2, 3806.15 404.54 Q 3805.23 404.02, 3804.73 403.26 Q 3804.23 402.48, 3804.23 401.28 Q 3804.23 399.62, 3805.43 398.64 Q 3806.65 397.66, 3808.71 397.66 Q 3810.77 397.66, 3811.97 398.64 Q 3813.19 399.62, 3813.19 401.28 Q 3813.19 402.32, 3812.61 403.1 Q 3812.05 403.86, 3810.93 404.48 M 3808.71 399.16 Q 3807.53 399.16, 3806.87 399.72 Q 3806.23 400.28, 3806.23 401.28 Q 3806.23 402.02, 3806.67 402.52 Q 3807.11 403, 3807.73 403.28 Q 3808.37 403.56, 3809.59 403.98 Q 3810.45 403.38, 3810.81 402.74 Q 3811.19 402.1, 3811.19 401.28 Q 3811.19 400.28, 3810.53 399.72 Q 3809.89 399.16, 3808.71 399.16 M 3808.79 410.68 Q 3810.11 410.68, 3810.91 409.98 Q 3811.71 409.26, 3811.71 408.08 Q 3811.71 407.32, 3811.29 406.84 Q 3810.87 406.36, 3810.23 406.08 Q 3809.61 405.8, 3808.49 405.44 L 3807.59 405.14 Q 3806.59 405.74, 3806.15 406.46 Q 3805.71 407.16, 3805.71 408.08 Q 3805.71 409.26, 3806.55 409.98 Q 3807.39 410.68, 3808.79 410.68 " fill="#000000"/>
<path class="note" d="M 3763.87 242.84 Q 3766.39 242.84, 3767.65 244.56 Q 3768.93 246.26, 3768.93 249.66 Q 3768.93 253.42, 3767.35 255.38 Q 3765.79 257.32, 3762.77 257.32 Q 3761.89 257.32, 3761.13 257.12 Q 3760.39 256.92, 3759.67 256.5 L 3760.45 255.16 Q 3761.49 255.72, 3762.75 255.72 Q 3764.75 255.72, 3765.77 254.44 Q 3766.79 253.14, 3766.91 250.48 Q 3766.19 251.14, 3765.27 251.5 Q 3764.37 251.84, 3763.39 251.84 Q 3762.15 251.84, 3761.17 251.3 Q 3760.19 250.76, 3759.65 249.78 Q 3759.11 248.8, 3759.11 247.56 Q 3759.11 246.18, 3759.71 245.12 Q 3760.33 244.04, 3761.41 243.44 Q 3762.49 242.84, 3763.87 242.84 M 3761.11 247.54 Q 3761.11 248.8, 3761.81 249.52 Q 3762.51 250.24, 3763.75 250.24 Q 3764.61 250.24, 3765.45 249.9 Q 3766.31 249.54, 3766.91 248.94 Q 3766.83 246.6, 3766.09 245.54 Q 3765.35 244.48, 3763.85 244.48 Q 3763.09 244.48, 3762.45 244.88 Q 3761.83 245.28, 3761.47 245.98 Q 3761.11 246.68, 3761.11 247.54 " fill="#000000"/>
<path class="note" d="M 3795.16 100.74 L 3798.26 100.74 L 3798.26 90.1605 L 3794.84 91.2205 L 3794.38 90.0405 L 3798.72 88.1005 L 3800.14 88.3405 L 3800.14 100.74 L 3802.92 100.74 L 3802.92 102.34 L 3795.16 102.34 L 3795.16 100.74 " fill="#000000"/>
<path class="note" d="M 3809.32 102.5 Q 3806.72 102.5, 3805.42 100.58 Q 3804.14 98.6605, 3804.14 95.2405 Q 3804.14 91.8205, 3805.42 89.9205 Q 3806.7 88.0205, 3809.32 88.0205 Q 3811.94 88.0205, 3813.22 89.9205 Q 3814.5 91.8205, 3814.5 95.2405 Q 3814.5 98.6605, 3813.2 100.58 Q 3811.92 102.5, 3809.32 102.5 M 3809.32 100.9 Q 3810.86 100.9, 3811.68 99.4805 Q 3812.5 98.0405, 3812.5 95.2405 Q 3812.5 92.4605, 3811.68 91.0405 Q 3810.86 89.6205, 3809.32 89.6205 Q 3807.8 89.6205, 3806.96 91.0405 Q 3806.14 92.4605, 3806.14 95.2405 Q 3806.14 98.0405, 3806.96 99.4805 Q 3807.8 100.9, 3809.32 100.9 " fill="#000000"/>
<path class="note" d="M 3595.02 294.225 L 3598.12 294.225 L 3598.12 283.645 L 3594.7 284.705 L 3594.24 283.525 L 3598.58 281.585 L 3600 281.825 L 3600 294.225 L 3602.78 294.225 L 3602.78 295.825 L 3595.02 295.825 L 3595.02 294.225 " fill="#000000"/>
<path class="note" d="M 3604.64 294.225 L 3607.74 294.225 L 3607.74 283.645 L 3604.32 284.705 L 3603.86 283.525 L 3608.2 281.585 L 3609.62 281.825 L 3609.62 294.225 L 3612.4 294.225 L 3612.4 295.825 L 3604.64 295.825 L 3604.64 294.225 " fill="#000000"/>
<path class="note" d="M 3516.35 391.027 L 3519.45 391.027 L 3519.45 380.447 L 3516.03 381.507 L 3515.57 380.327 L 3519.91 378.387 L 3521.33 378.627 L 3521.33 391.027 L 3524.11 391.027 L 3524.11 392.627 L 3516.35 392.627 L 3516.35 391.027 " fill="#000000"/>
<path class="note" d="M 3525.15 381.147 Q 3525.67 379.807, 3526.91 379.067 Q 3528.15 378.307, 3529.87 378.307 Q 3532.01 378.307, 3533.21 379.467 Q 3534.41 380.627, 3534.41 382.687 Q 3534.41 384.787, 3532.85 386.747 Q 3531.31 388.707, 3528.11 391.027 L 3534.65 391.027 L 3534.65 392.627 L 3525.11 392.627 L 3525.11 391.287 Q 3527.75 389.407, 3529.31 388.007 Q 3530.89 386.607, 3531.65 385.347 Q 3532.41 384.087, 3532.41 382.787 Q 3532.41 381.427, 3531.73 380.667 Q 3531.05 379.907, 3529.87 379.907 Q 3528.73 379.907, 3527.97 380.367 Q 3527.21 380.827, 3526.67 381.847 L 3525.15 381.147 " fill="#000000"/>
<path class="note" d="M 3360.02 391.027 L 3363.12 391.027 L 3363.12 380.447 L 3359.7 381.507 L 3359.24 380.327 L 3363.58 378.387 L 3365 378.627 L 3365 391.027 L 3367.78 391.027 L 3367.78 392.627 L 3360.02 392.627 L 3360.02 391.027 " fill="#000000"/>
<path class="note" d="M 3375.42 385.167 Q 3376.8 385.567, 3377.46 386.467 Q 3378.14 387.347, 3378.14 388.747 Q 3378.14 389.947, 3377.54 390.887 Q 3376.94 391.807, 3375.84 392.327 Q 3374.74 392.827, 3373.3 392.827 Q 3371.78 392.827, 3370.64 392.307 Q 3369.52 391.767, 3368.62 390.687 L 3369.76 389.527 Q 3370.64 390.487, 3371.38 390.867 Q 3372.12 391.227, 3373.3 391.227 Q 3374.58 391.227, 3375.36 390.547 Q 3376.14 389.847, 3376.14 388.727 Q 3376.14 387.287, 3375.32 386.647 Q 3374.52 385.987, 3372.78 385.987 L 3371.76 385.987 L 3371.76 384.547 L 3372.66 384.547 Q 3374.2 384.527, 3375.02 383.867 Q 3375.84 383.187, 3375.84 381.927 Q 3375.84 381.007, 3375.16 380.467 Q 3374.48 379.907, 3373.32 379.907 Q 3372.14 379.907, 3371.4 380.327 Q 3370.68 380.747, 3370.12 381.807 L 3368.74 381.067 Q 3369.24 379.887, 3370.44 379.107 Q 3371.64 378.307, 3373.32 378.307 Q 3375.4 378.307, 3376.62 379.287 Q 3377.84 380.267, 3377.84 381.927 Q 3377.84 383.067, 3377.22 383.887 Q 3376.6 384.707, 3375.42 385.167 " fill="#000000"/>
<path class="note" d="M 3292.41 274.872 L 3295.51 274.872 L 3295.51 264.292 L 3292.09 265.352 L 3291.63 264.172 L 3295.97 262.232 L 3297.39 262.472 L 3297.39 274.872 L 3300.17 274.872 L 3300.17 276.472 L 3292.41 276.472 L 3292.41 274.872 " fill="#000000"/>
<path class="note" d="M 3309.97 271.612 L 3311.67 271.612 L 3311.67 273.212 L 3309.97 273.212 L 3309.97 276.472 L 3308.09 276.472 L 3308.09 273.212 L 3300.77 273.212 L 3300.77 271.952 L 3306.97 262.312 L 3309.97 262.312 L 3309.97 271.612 M 3303.09 271.612 L 3308.09 271.612 L 3308.09 263.592 L 3303.09 271.612 " fill="#000000"/>
<path class="note" d="M 3147.66 294.225 L 3150.76 294.225 L 3150.76 283.645 L 3147.34 284.705 L 3146.88 283.525 L 3151.22 281.585 L 3152.64 281.825 L 3152.64 294.225 L 3155.42 294.225 L 3155.42 295.825 L 3147.66 295.825 L 3147.66 294.225 " fill="#000000"/>
<path class="note" d="M 3161.48 286.965 Q 3162.72 286.965, 3163.74 287.505 Q 3164.76 288.025, 3165.34 289.025 Q 3165.92 290.005, 3165.92 291.345 Q 3165.92 292.805, 3165.2 293.865 Q 3164.5 294.905, 3163.34 295.445 Q 3162.18 295.985, 3160.86 295.985 Q 3159.56 295.985, 3158.36 295.505 Q 3157.16 295.025, 3156.34 294.105 L 3157.54 292.865 Q 3158.2 293.585, 3159.1 293.985 Q 3160 294.365, 3160.92 294.365 Q 3162.18 294.365, 3163.04 293.585 Q 3163.92 292.805, 3163.92 291.385 Q 3163.92 289.885, 3163.04 289.185 Q 3162.18 288.465, 3160.8 288.465 Q 3159.56 288.465, 3158.18 289.005 L 3157.08 288.485 L 3157.76 281.665 L 3165.04 281.665 L 3164.84 283.265 L 3159.4 283.265 L 3158.98 287.465 Q 3160.24 286.965, 3161.48 286.965 " fill="#000000"/>
<path class="note" d="M 3359.61 120.093 L 3362.71 120.093 L 3362.71 109.513 L 3359.29 110.573 L 3358.83 109.393 L 3363.17 107.453 L 3364.59 107.693 L 3364.59 120.093 L 3367.37 120.093 L 3367.37 121.693 L 3359.61 121.693 L 3359.61 120.093 " fill="#000000"/>
<path class="note" d="M 3374.27 112.853 Q 3375.51 112.853, 3376.49 113.393 Q 3377.47 113.933, 3378.01 114.913 Q 3378.55 115.893, 3378.55 117.133 Q 3378.55 118.513, 3377.93 119.593 Q 3377.33 120.653, 3376.25 121.253 Q 3375.17 121.853, 3373.79 121.853 Q 3371.27 121.853, 3369.99 120.153 Q 3368.73 118.433, 3368.73 115.033 Q 3368.73 111.273, 3370.29 109.333 Q 3371.87 107.373, 3374.89 107.373 Q 3375.77 107.373, 3376.51 107.573 Q 3377.27 107.773, 3377.99 108.193 L 3377.21 109.533 Q 3376.17 108.973, 3374.91 108.973 Q 3372.91 108.973, 3371.89 110.273 Q 3370.87 111.553, 3370.75 114.213 Q 3371.47 113.553, 3372.37 113.213 Q 3373.29 112.853, 3374.27 112.853 M 3373.81 120.213 Q 3374.57 120.213, 3375.19 119.813 Q 3375.83 119.413, 3376.19 118.713 Q 3376.55 118.013, 3376.55 117.153 Q 3376.55 115.893, 3375.85 115.173 Q 3375.15 114.453, 3373.91 114.453 Q 3373.05 114.453, 3372.19 114.813 Q 3371.35 115.153, 3370.75 115.753 Q 3370.83 118.093, 3371.57 119.153 Q 3372.31 120.213, 3373.81 120.213 " fill="#000000"/>
<path class="note" d="M 3516.74 120.053 L 3519.84 120.053 L 3519.84 109.473 L 3516.42 110.533 L 3515.96 109.353 L 3520.3 107.413 L 3521.72 107.653 L 3521.72 120.053 L 3524.5 120.053 L 3524.5 121.653 L 3516.74 121.653 L 3516.74 120.053 " fill="#000000"/>
<path class="note" d="M 3532.28 109.093 L 3524.86 109.093 L 3524.86 107.493 L 3534.26 107.493 L 3534.26 108.913 L 3528.54 121.653 L 3526.62 121.653 L 3532.28 109.093 " fill="#000000"/>
<path d="M 809.686 247.696 L 815.734 247.696 L 815.734 241.328 L 818.422 241.328 L 818.422 247.696 L 824.63 247.696 L 824.63 250 L 818.422 250 L 818.422 256.4 L 815.734 256.4 L 815.734 250 L 809.686 250 L 809.686 247.696 " fill="#000000"/>
<path d="M 2953.69 247.696 L 2959.74 247.696 L 2959.74 241.328 L 2962.42 241.328 L 2962.42 247.696 L 2968.63 247.696 L 2968.63 250 L 2962.42 250 L 2962.42 256.4 L 2959.74 256.4 L 2959.74 250 L 2953.69 250 L 2953.69 247.696 " fill="#000000"/>
<path d="M 1847.6,250 L 2151.73,250" style="fill:none;fill-rule:evenodd;stroke:#000000;stroke-width:2.0px;stroke-linecap:butt;stroke-linejoin:miter;stroke-opacity:1"/>
<path d="M 2151.73,250 L 2138.56,242.397" style="fill:none;fill-rule:evenodd;stroke:#000000;stroke-width:2.0px;stroke-linecap:butt;stroke-linejoin:miter;stroke-opacity:1"/>
<path d="M 2151.73,250 L 2138.56,257.603" style="fill:none;fill-rule:evenodd;stroke:#000000;stroke-width:2.0px;stroke-linecap:butt;stroke-linejoin:miter;stroke-opacity:1"/>
</svg>