<svg xmlns="http://www.w3.org/2000/svg" xmlns:rdkit="http://www.rdkit.org/xml" xmlns:xlink="http://www.w3.org/1999/xlink" version="1.1" baseProfile="full" xml:space="preserve" width="4000px" height="500px" viewBox="0 0 4000 500">
<!-- END OF HEADER -->
<rect style="opacity:1.0;fill:#FFFFFF;stroke:none" width="4000" height="500" x="0" y="0"> </rect>
<path d="M 604.648,250 L 472.514,250" style="fill:none;fill-rule:evenodd;stroke:#FFFFAA;stroke-width:28.2px;stroke-linecap:butt;stroke-linejoin:miter;stroke-opacity:1"/>
<path d="M 472.514,250 L 406.446,364.432" style="fill:none;fill-rule:evenodd;stroke:#FFFFAA;stroke-width:28.2px;stroke-linecap:butt;stroke-linejoin:miter;stroke-opacity:1"/>
<path d="M 472.514,250 L 406.446,135.568" style="fill:none;fill-rule:evenodd;stroke:#FFFFAA;stroke-width:28.2px;stroke-linecap:butt;stroke-linejoin:miter;stroke-opacity:1"/>
<path d="M 406.446,364.432 L 274.312,364.432" style="fill:none;fill-rule:evenodd;stroke:#FFFFAA;stroke-width:28.2px;stroke-linecap:butt;stroke-linejoin:miter;stroke-opacity:1"/>
<path d="M 274.312,364.432 L 208.245,250" style="fill:none;fill-rule:evenodd;stroke:#FFFFAA;stroke-width:28.2px;stroke-linecap:butt;stroke-linejoin:miter;stroke-opacity:1"/>
<path d="M 208.245,250 L 274.312,135.568" style="fill:none;fill-rule:evenodd;stroke:#FFFFAA;stroke-width:28.2px;stroke-linecap:butt;stroke-linejoin:miter;stroke-opacity:1"/>
<path d="M 274.312,135.568 L 406.446,135.568" style="fill:none;fill-rule:evenodd;stroke:#FFFFAA;stroke-width:28.2px;stroke-linecap:butt;stroke-linejoin:miter;stroke-opacity:1"/>
<path d="M 1621.19,364.432 L 1555.12,250" style="fill:none;fill-rule:evenodd;stroke:#FFCC99;stroke-width:28.2px;stroke-linecap:butt;stroke-linejoin:miter;stroke-opacity:1"/>
<path d="M 1555.12,250 L 1621.19,135.568" style="fill:none;fill-rule:evenodd;stroke:#FFCC99;stroke-width:28.2px;stroke-linecap:butt;stroke-linejoin:miter;stroke-opacity:1"/>
<path d="M 1555.12,250 L 1422.99,250" style="fill:none;fill-rule:evenodd;stroke:#FFCC99;stroke-width:28.2px;stroke-linecap:butt;stroke-linejoin:miter;stroke-opacity:1"/>
<path d="M 1422.99,250 L 1356.92,364.432" style="fill:none;fill-rule:evenodd;stroke:#FFCC99;stroke-width:28.2px;stroke-linecap:butt;stroke-linejoin:miter;stroke-opacity:1"/>
<path d="M 1422.99,250 L 1356.92,135.568" style="fill:none;fill-rule:evenodd;stroke:#FFCC99;stroke-width:28.2px;stroke-linecap:butt;stroke-linejoin:miter;stroke-opacity:1"/>
<path d="M 1356.92,364.432 L 1224.79,364.432" style="fill:none;fill-rule:evenodd;stroke:#FFCC99;stroke-width:28.2px;stroke-linecap:butt;stroke-linejoin:miter;stroke-opacity:1"/>
<path d="M 1224.79,364.432 L 1158.72,250" style="fill:none;fill-rule:evenodd;stroke:#FFCC99;stroke-width:28.2px;stroke-linecap:butt;stroke-linejoin:miter;stroke-opacity:1"/>
<path d="M 1158.72,250 L 1026.59,250" style="fill:none;fill-rule:evenodd;stroke:#FFCC99;stroke-width:28.2px;stroke-linecap:butt;stroke-linejoin:miter;stroke-opacity:1"/>
<path d="M 1158.72,250 L 1224.79,135.568" style="fill:none;fill-rule:evenodd;stroke:#FFCC99;stroke-width:28.2px;stroke-linecap:butt;stroke-linejoin:miter;stroke-opacity:1"/>
<path d="M 1224.79,135.568 L 1356.92,135.568" style="fill:none;fill-rule:evenodd;stroke:#FFCC99;stroke-width:28.2px;stroke-linecap:butt;stroke-linejoin:miter;stroke-opacity:1"/>
<path d="M 2770.21,250 L 2638.07,250" style="fill:none;fill-rule:evenodd;stroke:#FFFFAA;stroke-width:28.2px;stroke-linecap:butt;stroke-linejoin:miter;stroke-opacity:1"/>
<path d="M 2638.07,250 L 2572.01,364.432" style="fill:none;fill-rule:evenodd;stroke:#FFFFAA;stroke-width:28.2px;stroke-linecap:butt;stroke-linejoin:miter;stroke-opacity:1"/>
<path d="M 2638.07,250 L 2572.01,135.568" style="fill:none;fill-rule:evenodd;stroke:#FFFFAA;stroke-width:28.2px;stroke-linecap:butt;stroke-linejoin:miter;stroke-opacity:1"/>
<path d="M 2572.01,364.432 L 2439.87,364.432" style="fill:none;fill-rule:evenodd;stroke:#FFFFAA;stroke-width:28.2px;stroke-linecap:butt;stroke-linejoin:miter;stroke-opacity:1"/>
<path d="M 2439.87,364.432 L 2373.8,250" style="fill:none;fill-rule:evenodd;stroke:#FFFFAA;stroke-width:28.2px;stroke-linecap:butt;stroke-linejoin:miter;stroke-opacity:1"/>
<path d="M 2373.8,250 L 2439.87,135.568" style="fill:none;fill-rule:evenodd;stroke:#FFFFAA;stroke-width:28.2px;stroke-linecap:butt;stroke-linejoin:miter;stroke-opacity:1"/>
<path d="M 2439.87,135.568 L 2572.01,135.568" style="fill:none;fill-rule:evenodd;stroke:#FFFFAA;stroke-width:28.2px;stroke-linecap:butt;stroke-linejoin:miter;stroke-opacity:1"/>
<path d="M 3786.75,364.432 L 3720.68,250" style="fill:none;fill-rule:evenodd;stroke:#FFCC99;stroke-width:28.2px;stroke-linecap:butt;stroke-linejoin:miter;stroke-opacity:1"/>
<path d="M 3720.68,250 L 3786.75,135.568" style="fill:none;fill-rule:evenodd;stroke:#FFCC99;stroke-width:28.2px;stroke-linecap:butt;stroke-linejoin:miter;stroke-opacity:1"/>
<path d="M 3720.68,250 L 3588.55,250" style="fill:none;fill-rule:evenodd;stroke:#FFCC99;stroke-width:28.2px;stroke-linecap:butt;stroke-linejoin:miter;stroke-opacity:1"/>
<path d="M 3588.55,250 L 3522.48,364.432" style="fill:none;fill-rule:evenodd;stroke:#FFCC99;stroke-width:28.2px;stroke-linecap:butt;stroke-linejoin:miter;stroke-opacity:1"/>
<path d="M 3588.55,250 L 3522.48,135.568" style="fill:none;fill-rule:evenodd;stroke:#FFCC99;stroke-width:28.2px;stroke-linecap:butt;stroke-linejoin:miter;stroke-opacity:1"/>
<path d="M 3522.48,364.432 L 3390.35,364.432" style="fill:none;fill-rule:evenodd;stroke:#FFCC99;stroke-width:28.2px;stroke-linecap:butt;stroke-linejoin:miter;stroke-opacity:1"/>
<path d="M 3390.35,364.432 L 3324.28,250" style="fill:none;fill-rule:evenodd;stroke:#FFCC99;stroke-width:28.2px;stroke-linecap:butt;stroke-linejoin:miter;stroke-opacity:1"/>
<path d="M 3324.28,250 L 3192.15,250" style="fill:none;fill-rule:evenodd;stroke:#FFCC99;stroke-width:28.2px;stroke-linecap:butt;stroke-linejoin:miter;stroke-opacity:1"/>
<path d="M 3324.28,250 L 3390.35,135.568" style="fill:none;fill-rule:evenodd;stroke:#FFCC99;stroke-width:28.2px;stroke-linecap:butt;stroke-linejoin:miter;stroke-opacity:1"/>
<path d="M 3390.35,135.568 L 3522.48,135.568" style="fill:none;fill-rule:evenodd;stroke:#FFCC99;stroke-width:28.2px;stroke-linecap:butt;stroke-linejoin:miter;stroke-opacity:1"/>
<ellipse cx="624.384" cy="257.08" rx="43.1001" ry="30.0379" style="fill:#FFFFAA;fill-rule:evenodd;stroke:#FFFFAA;stroke-width:1px;stroke-linecap:butt;stroke-linejoin:miter;stroke-opacity:1"/>
<ellipse cx="472.514" cy="250" rx="26.4269" ry="26.4269" style="fill:#FFFFAA;fill-rule:evenodd;stroke:#FFFFAA;stroke-width:1px;stroke-linecap:butt;stroke-linejoin:miter;stroke-opacity:1"/>
<ellipse cx="406.446" cy="364.432" rx="26.4269" ry="26.4269" style="fill:#FFFFAA;fill-rule:evenodd;stroke:#FFFFAA;stroke-width:1px;stroke-linecap:butt;stroke-linejoin:miter;stroke-opacity:1"/>
<ellipse cx="274.312" cy="364.432" rx="26.4269" ry="26.4269" style="fill:#FFFFAA;fill-rule:evenodd;stroke:#FFFFAA;stroke-width:1px;stroke-linecap:butt;stroke-linejoin:miter;stroke-opacity:1"/>
<ellipse cx="208.245" cy="250" rx="26.4269" ry="26.4269" style="fill:#FFFFAA;fill-rule:evenodd;stroke:#FFFFAA;stroke-width:1px;stroke-linecap:butt;stroke-linejoin:miter;stroke-opacity:1"/>
<ellipse cx="274.312" cy="135.568" rx="26.4269" ry="26.4269" style="fill:#FFFFAA;fill-rule:evenodd;stroke:#FFFFAA;stroke-width:1px;stroke-linecap:butt;stroke-linejoin:miter;stroke-opacity:1"/>
<ellipse cx="406.446" cy="135.568" rx="26.4269" ry="26.4269" style="fill:#FFFFAA;fill-rule:evenodd;stroke:#FFFFAA;stroke-width:1px;stroke-linecap:butt;stroke-linejoin:miter;stroke-opacity:1"/>
<ellipse cx="1621.19" cy="364.652" rx="26.4269" ry="26.4269" style="fill:#FFCC99;fill-rule:evenodd;stroke:#FFCC99;stroke-width:1px;stroke-linecap:butt;stroke-linejoin:miter;stroke-opacity:1"/>
<ellipse cx="1562.48" cy="249.926" rx="26.4269" ry="26.4269" style="fill:#FFCC99;fill-rule:evenodd;stroke:#FFCC99;stroke-width:1px;stroke-linecap:butt;stroke-linejoin:miter;stroke-opacity:1"/>
<ellipse cx="1626.7" cy="135.788" rx="26.4269" ry="26.4269" style="fill:#FFCC99;fill-rule:evenodd;stroke:#FFCC99;stroke-width:1px;stroke-linecap:butt;stroke-linejoin:miter;stroke-opacity:1"/>
<ellipse cx="1422.99" cy="250" rx="26.4269" ry="26.4269" style="fill:#FFCC99;fill-rule:evenodd;stroke:#FFCC99;stroke-width:1px;stroke-linecap:butt;stroke-linejoin:miter;stroke-opacity:1"/>
<ellipse cx="1356.92" cy="364.432" rx="26.4269" ry="26.4269" style="fill:#FFCC99;fill-rule:evenodd;stroke:#FFCC99;stroke-width:1px;stroke-linecap:butt;stroke-linejoin:miter;stroke-opacity:1"/>
<ellipse cx="1224.79" cy="364.432" rx="26.4269" ry="26.4269" style="fill:#FFCC99;fill-rule:evenodd;stroke:#FFCC99;stroke-width:1px;stroke-linecap:butt;stroke-linejoin:miter;stroke-opacity:1"/>
<ellipse cx="1158.72" cy="250" rx="26.4269" ry="26.4269" style="fill:#FFCC99;fill-rule:evenodd;stroke:#FFCC99;stroke-width:1px;stroke-linecap:butt;stroke-linejoin:miter;stroke-opacity:1"/>
<ellipse cx="1014.51" cy="250.22" rx="35.4685" ry="26.4269" style="fill:#FFCC99;fill-rule:evenodd;stroke:#FFCC99;stroke-width:1px;stroke-linecap:butt;stroke-linejoin:miter;stroke-opacity:1"/>
<ellipse cx="1224.79" cy="135.568" rx="26.4269" ry="26.4269" style="fill:#FFCC99;fill-rule:evenodd;stroke:#FFCC99;stroke-width:1px;stroke-linecap:butt;stroke-linejoin:miter;stroke-opacity:1"/>
<ellipse cx="1356.92" cy="135.568" rx="26.4269" ry="26.4269" style="fill:#FFCC99;fill-rule:evenodd;stroke:#FFCC99;stroke-width:1px;stroke-linecap:butt;stroke-linejoin:miter;stroke-opacity:1"/>
<ellipse cx="2789.94" cy="257.08" rx="43.1001" ry="30.0379" style="fill:#FFFFAA;fill-rule:evenodd;stroke:#FFFFAA;stroke-width:1px;stroke-linecap:butt;stroke-linejoin:miter;stroke-opacity:1"/>
<ellipse cx="2638.07" cy="250" rx="26.4269" ry="26.4269" style="fill:#FFFFAA;fill-rule:evenodd;stroke:#FFFFAA;stroke-width:1px;stroke-linecap:butt;stroke-linejoin:miter;stroke-opacity:1"/>
<ellipse cx="2572.01" cy="364.432" rx="26.4269" ry="26.4269" style="fill:#FFFFAA;fill-rule:evenodd;stroke:#FFFFAA;stroke-width:1px;stroke-linecap:butt;stroke-linejoin:miter;stroke-opacity:1"/>
<ellipse cx="2439.87" cy="364.432" rx="26.4269" ry="26.4269" style="fill:#FFFFAA;fill-rule:evenodd;stroke:#FFFFAA;stroke-width:1px;stroke-linecap:butt;stroke-linejoin:miter;stroke-opacity:1"/>
<ellipse cx="2373.8" cy="250" rx="26.4269" ry="26.4269" style="fill:#FFFFAA;fill-rule:evenodd;stroke:#FFFFAA;stroke-width:1px;stroke-linecap:butt;stroke-linejoin:miter;stroke-opacity:1"/>
<ellipse cx="2439.87" cy="135.568" rx="26.4269" ry="26.4269" style="fill:#FFFFAA;fill-rule:evenodd;stroke:#FFFFAA;stroke-width:1px;stroke-linecap:butt;stroke-linejoin:miter;stroke-opacity:1"/>
<ellipse cx="2572.01" cy="135.568" rx="26.4269" ry="26.4269" style="fill:#FFFFAA;fill-rule:evenodd;stroke:#FFFFAA;stroke-width:1px;stroke-linecap:butt;stroke-linejoin:miter;stroke-opacity:1"/>
<ellipse cx="3786.75" cy="364.652" rx="26.4269" ry="26.4269" style="fill:#FFCC99;fill-rule:evenodd;stroke:#FFCC99;stroke-width:1px;stroke-linecap:butt;stroke-linejoin:miter;stroke-opacity:1"/>
<ellipse cx="3728.04" cy="249.926" rx="26.4269" ry="26.4269" style="fill:#FFCC99;fill-rule:evenodd;stroke:#FFCC99;stroke-width:1px;stroke-linecap:butt;stroke-linejoin:miter;stroke-opacity:1"/>
<ellipse cx="3792.26" cy="135.788" rx="26.4269" ry="26.4269" style="fill:#FFCC99;fill-rule:evenodd;stroke:#FFCC99;stroke-width:1px;stroke-linecap:butt;stroke-linejoin:miter;stroke-opacity:1"/>
<ellipse cx="3588.55" cy="250" rx="26.4269" ry="26.4269" style="fill:#FFCC99;fill-rule:evenodd;stroke:#FFCC99;stroke-width:1px;stroke-linecap:butt;stroke-linejoin:miter;stroke-opacity:1"/>
<ellipse cx="3522.48" cy="364.432" rx="26.4269" ry="26.4269" style="fill:#FFCC99;fill-rule:evenodd;stroke:#FFCC99;stroke-width:1px;stroke-linecap:butt;stroke-linejoin:miter;stroke-opacity:1"/>
<ellipse cx="3390.35" cy="364.432" rx="26.4269" ry="26.4269" style="fill:#FFCC99;fill-rule:evenodd;stroke:#FFCC99;stroke-width:1px;stroke-linecap:butt;stroke-linejoin:miter;stroke-opacity:1"/>
<ellipse cx="3324.28" cy="250" rx="26.4269" ry="26.4269" style="fill:#FFCC99;fill-rule:evenodd;stroke:#FFCC99;stroke-width:1px;stroke-linecap:butt;stroke-linejoin:miter;stroke-opacity:1"/>
<ellipse cx="3180.07" cy="250.22" rx="35.4685" ry="26.4269" style="fill:#FFCC99;fill-rule:evenodd;stroke:#FFCC99;stroke-width:1px;stroke-linecap:butt;stroke-linejoin:miter;stroke-opacity:1"/>
<ellipse cx="3390.35" cy="135.568" rx="26.4269" ry="26.4269" style="fill:#FFCC99;fill-rule:evenodd;stroke:#FFCC99;stroke-width:1px;stroke-linecap:butt;stroke-linejoin:miter;stroke-opacity:1"/>
<ellipse cx="3522.48" cy="135.568" rx="26.4269" ry="26.4269" style="fill:#FFCC99;fill-rule:evenodd;stroke:#FFCC99;stroke-width:1px;stroke-linecap:butt;stroke-linejoin:miter;stroke-opacity:1"/>
<path class="bond-0" d="M 590.605,250 L 531.559,250" style="fill:none;fill-rule:evenodd;stroke:#0000FF;stroke-width:2.0px;stroke-linecap:butt;stroke-linejoin:miter;stroke-opacity:1"/>
<path class="bond-0" d="M 531.559,250 L 472.514,250" style="fill:none;fill-rule:evenodd;stroke:#000000;stroke-width:2.0px;stroke-linecap:butt;stroke-linejoin:miter;stroke-opacity:1"/>
<path class="bond-1" d="M 472.514,250 L 406.446,364.432" style="fill:none;fill-rule:evenodd;stroke:#000000;stroke-width:2.0px;stroke-linecap:butt;stroke-linejoin:miter;stroke-opacity:1"/>
<path class="bond-6" d="M 472.514,250 L 406.446,135.568" style="fill:none;fill-rule:evenodd;stroke:#000000;stroke-width:2.0px;stroke-linecap:butt;stroke-linejoin:miter;stroke-opacity:1"/>
<path class="bond-2" d="M 406.446,364.432 L 274.312,364.432" style="fill:none;fill-rule:evenodd;stroke:#000000;stroke-width:2.0px;stroke-linecap:butt;stroke-linejoin:miter;stroke-opacity:1"/>
<path class="bond-3" d="M 274.312,364.432 L 208.245,250" style="fill:none;fill-rule:evenodd;stroke:#000000;stroke-width:2.0px;stroke-linecap:butt;stroke-linejoin:miter;stroke-opacity:1"/>
<path class="bond-4" d="M 208.245,250 L 274.312,135.568" style="fill:none;fill-rule:evenodd;stroke:#000000;stroke-width:2.0px;stroke-linecap:butt;stroke-linejoin:miter;stroke-opacity:1"/>
<path class="bond-5" d="M 274.312,135.568 L 406.446,135.568" style="fill:none;fill-rule:evenodd;stroke:#000000;stroke-width:2.0px;stroke-linecap:butt;stroke-linejoin:miter;stroke-opacity:1"/>
<path class="bond-7" d="M 1622.46,340.202 L 1599.41,300.275" style="fill:none;fill-rule:evenodd;stroke:#FF0000;stroke-width:2.0px;stroke-linecap:butt;stroke-linejoin:miter;stroke-opacity:1"/>
<path class="bond-7" d="M 1599.41,300.275 L 1576.36,260.348" style="fill:none;fill-rule:evenodd;stroke:#0000FF;stroke-width:2.0px;stroke-linecap:butt;stroke-linejoin:miter;stroke-opacity:1"/>
<path class="bond-7" d="M 1599.57,353.415 L 1576.52,313.488" style="fill:none;fill-rule:evenodd;stroke:#FF0000;stroke-width:2.0px;stroke-linecap:butt;stroke-linejoin:miter;stroke-opacity:1"/>
<path class="bond-7" d="M 1576.52,313.488 L 1553.47,273.561" style="fill:none;fill-rule:evenodd;stroke:#0000FF;stroke-width:2.0px;stroke-linecap:butt;stroke-linejoin:miter;stroke-opacity:1"/>
<path class="bond-8" d="M 1565.29,232.388 L 1588.17,192.756" style="fill:none;fill-rule:evenodd;stroke:#0000FF;stroke-width:2.0px;stroke-linecap:butt;stroke-linejoin:miter;stroke-opacity:1"/>
<path class="bond-8" d="M 1588.17,192.756 L 1611.06,153.123" style="fill:none;fill-rule:evenodd;stroke:#FF0000;stroke-width:2.0px;stroke-linecap:butt;stroke-linejoin:miter;stroke-opacity:1"/>
<path class="bond-9" d="M 1541.08,250 L 1482.04,250" style="fill:none;fill-rule:evenodd;stroke:#0000FF;stroke-width:2.0px;stroke-linecap:butt;stroke-linejoin:miter;stroke-opacity:1"/>
<path class="bond-9" d="M 1482.04,250 L 1422.99,250" style="fill:none;fill-rule:evenodd;stroke:#000000;stroke-width:2.0px;stroke-linecap:butt;stroke-linejoin:miter;stroke-opacity:1"/>
<path class="bond-10" d="M 1422.99,250 L 1356.92,364.432" style="fill:none;fill-rule:evenodd;stroke:#000000;stroke-width:2.0px;stroke-linecap:butt;stroke-linejoin:miter;stroke-opacity:1"/>
<path class="bond-10" d="M 1390.19,253.951 L 1343.95,334.053" style="fill:none;fill-rule:evenodd;stroke:#000000;stroke-width:2.0px;stroke-linecap:butt;stroke-linejoin:miter;stroke-opacity:1;stroke-dasharray:6,6"/>
<path class="bond-16" d="M 1422.99,250 L 1356.92,135.568" style="fill:none;fill-rule:evenodd;stroke:#000000;stroke-width:2.0px;stroke-linecap:butt;stroke-linejoin:miter;stroke-opacity:1"/>
<path class="bond-16" d="M 1390.19,246.049 L 1343.95,165.947" style="fill:none;fill-rule:evenodd;stroke:#000000;stroke-width:2.0px;stroke-linecap:butt;stroke-linejoin:miter;stroke-opacity:1;stroke-dasharray:6,6"/>
<path class="bond-11" d="M 1356.92,364.432 L 1224.79,364.432" style="fill:none;fill-rule:evenodd;stroke:#000000;stroke-width:2.0px;stroke-linecap:butt;stroke-linejoin:miter;stroke-opacity:1"/>
<path class="bond-11" d="M 1337.1,338.005 L 1244.61,338.005" style="fill:none;fill-rule:evenodd;stroke:#000000;stroke-width:2.0px;stroke-linecap:butt;stroke-linejoin:miter;stroke-opacity:1;stroke-dasharray:6,6"/>
<path class="bond-12" d="M 1224.79,364.432 L 1158.72,250" style="fill:none;fill-rule:evenodd;stroke:#000000;stroke-width:2.0px;stroke-linecap:butt;stroke-linejoin:miter;stroke-opacity:1"/>
<path class="bond-12" d="M 1237.76,334.053 L 1191.52,253.951" style="fill:none;fill-rule:evenodd;stroke:#000000;stroke-width:2.0px;stroke-linecap:butt;stroke-linejoin:miter;stroke-opacity:1;stroke-dasharray:6,6"/>
<path class="bond-13" d="M 1158.72,250 L 1100.81,250" style="fill:none;fill-rule:evenodd;stroke:#000000;stroke-width:2.0px;stroke-linecap:butt;stroke-linejoin:miter;stroke-opacity:1"/>
<path class="bond-13" d="M 1100.81,250 L 1042.89,250" style="fill:none;fill-rule:evenodd;stroke:#FF0000;stroke-width:2.0px;stroke-linecap:butt;stroke-linejoin:miter;stroke-opacity:1"/>
<path class="bond-14" d="M 1158.72,250 L 1224.79,135.568" style="fill:none;fill-rule:evenodd;stroke:#000000;stroke-width:2.0px;stroke-linecap:butt;stroke-linejoin:miter;stroke-opacity:1"/>
<path class="bond-14" d="M 1191.52,246.049 L 1237.76,165.947" style="fill:none;fill-rule:evenodd;stroke:#000000;stroke-width:2.0px;stroke-linecap:butt;stroke-linejoin:miter;stroke-opacity:1;stroke-dasharray:6,6"/>
<path class="bond-15" d="M 1224.79,135.568 L 1356.92,135.568" style="fill:none;fill-rule:evenodd;stroke:#000000;stroke-width:2.0px;stroke-linecap:butt;stroke-linejoin:miter;stroke-opacity:1"/>
<path class="bond-15" d="M 1244.61,161.995 L 1337.1,161.995" style="fill:none;fill-rule:evenodd;stroke:#000000;stroke-width:2.0px;stroke-linecap:butt;stroke-linejoin:miter;stroke-opacity:1;stroke-dasharray:6,6"/>
<path class="bond-17" d="M 2756.16,250 L 2697.12,250" style="fill:none;fill-rule:evenodd;stroke:#0000FF;stroke-width:2.0px;stroke-linecap:butt;stroke-linejoin:miter;stroke-opacity:1"/>
<path class="bond-17" d="M 2697.12,250 L 2638.07,250" style="fill:none;fill-rule:evenodd;stroke:#000000;stroke-width:2.0px;stroke-linecap:butt;stroke-linejoin:miter;stroke-opacity:1"/>
<path class="bond-18" d="M 2638.07,250 L 2572.01,364.432" style="fill:none;fill-rule:evenodd;stroke:#000000;stroke-width:2.0px;stroke-linecap:butt;stroke-linejoin:miter;stroke-opacity:1"/>
<path class="bond-23" d="M 2638.07,250 L 2572.01,135.568" style="fill:none;fill-rule:evenodd;stroke:#000000;stroke-width:2.0px;stroke-linecap:butt;stroke-linejoin:miter;stroke-opacity:1"/>
<path class="bond-19" d="M 2572.01,364.432 L 2439.87,364.432" style="fill:none;fill-rule:evenodd;stroke:#000000;stroke-width:2.0px;stroke-linecap:butt;stroke-linejoin:miter;stroke-opacity:1"/>
<path class="bond-20" d="M 2439.87,364.432 L 2373.8,250" style="fill:none;fill-rule:evenodd;stroke:#000000;stroke-width:2.0px;stroke-linecap:butt;stroke-linejoin:miter;stroke-opacity:1"/>
<path class="bond-21" d="M 2373.8,250 L 2439.87,135.568" style="fill:none;fill-rule:evenodd;stroke:#000000;stroke-width:2.0px;stroke-linecap:butt;stroke-linejoin:miter;stroke-opacity:1"/>
<path class="bond-22" d="M 2439.87,135.568 L 2572.01,135.568" style="fill:none;fill-rule:evenodd;stroke:#000000;stroke-width:2.0px;stroke-linecap:butt;stroke-linejoin:miter;stroke-opacity:1"/>
<path class="bond-24" d="M 3788.02,340.202 L 3764.97,300.275" style="fill:none;fill-rule:evenodd;stroke:#FF0000;stroke-width:2.0px;stroke-linecap:butt;stroke-linejoin:miter;stroke-opacity:1"/>
<path class="bond-24" d="M 3764.97,300.275 L 3741.92,260.348" style="fill:none;fill-rule:evenodd;stroke:#0000FF;stroke-width:2.0px;stroke-linecap:butt;stroke-linejoin:miter;stroke-opacity:1"/>
<path class="bond-24" d="M 3765.13,353.415 L 3742.08,313.488" style="fill:none;fill-rule:evenodd;stroke:#FF0000;stroke-width:2.0px;stroke-linecap:butt;stroke-linejoin:miter;stroke-opacity:1"/>
<path class="bond-24" d="M 3742.08,313.488 L 3719.03,273.561" style="fill:none;fill-rule:evenodd;stroke:#0000FF;stroke-width:2.0px;stroke-linecap:butt;stroke-linejoin:miter;stroke-opacity:1"/>
<path class="bond-25" d="M 3730.85,232.388 L 3753.73,192.756" style="fill:none;fill-rule:evenodd;stroke:#0000FF;stroke-width:2.0px;stroke-linecap:butt;stroke-linejoin:miter;stroke-opacity:1"/>
<path class="bond-25" d="M 3753.73,192.756 L 3776.62,153.123" style="fill:none;fill-rule:evenodd;stroke:#FF0000;stroke-width:2.0px;stroke-linecap:butt;stroke-linejoin:miter;stroke-opacity:1"/>
<path class="bond-26" d="M 3706.64,250 L 3647.6,250" style="fill:none;fill-rule:evenodd;stroke:#0000FF;stroke-width:2.0px;stroke-linecap:butt;stroke-linejoin:miter;stroke-opacity:1"/>
<path class="bond-26" d="M 3647.6,250 L 3588.55,250" style="fill:none;fill-rule:evenodd;stroke:#000000;stroke-width:2.0px;stroke-linecap:butt;stroke-linejoin:miter;stroke-opacity:1"/>
<path class="bond-27" d="M 3588.55,250 L 3522.48,364.432" style="fill:none;fill-rule:evenodd;stroke:#000000;stroke-width:2.0px;stroke-linecap:butt;stroke-linejoin:miter;stroke-opacity:1"/>
<path class="bond-27" d="M 3555.75,253.951 L 3509.51,334.053" style="fill:none;fill-rule:evenodd;stroke:#000000;stroke-width:2.0px;stroke-linecap:butt;stroke-linejoin:miter;stroke-opacity:1;stroke-dasharray:6,6"/>
<path class="bond-33" d="M 3588.55,250 L 3522.48,135.568" style="fill:none;fill-rule:evenodd;stroke:#000000;stroke-width:2.0px;stroke-linecap:butt;stroke-linejoin:miter;stroke-opacity:1"/>
<path class="bond-33" d="M 3555.75,246.049 L 3509.51,165.947" style="fill:none;fill-rule:evenodd;stroke:#000000;stroke-width:2.0px;stroke-linecap:butt;stroke-linejoin:miter;stroke-opacity:1;stroke-dasharray:6,6"/>
<path class="bond-28" d="M 3522.48,364.432 L 3390.35,364.432" style="fill:none;fill-rule:evenodd;stroke:#000000;stroke-width:2.0px;stroke-linecap:butt;stroke-linejoin:miter;stroke-opacity:1"/>
<path class="bond-28" d="M 3502.66,338.005 L 3410.17,338.005" style="fill:none;fill-rule:evenodd;stroke:#000000;stroke-width:2.0px;stroke-linecap:butt;stroke-linejoin:miter;stroke-opacity:1;stroke-dasharray:6,6"/>
<path class="bond-29" d="M 3390.35,364.432 L 3324.28,250" style="fill:none;fill-rule:evenodd;stroke:#000000;stroke-width:2.0px;stroke-linecap:butt;stroke-linejoin:miter;stroke-opacity:1"/>
<path class="bond-29" d="M 3403.32,334.053 L 3357.08,253.951" style="fill:none;fill-rule:evenodd;stroke:#000000;stroke-width:2.0px;stroke-linecap:butt;stroke-linejoin:miter;stroke-opacity:1;stroke-dasharray:6,6"/>
<path class="bond-30" d="M 3324.28,250 L 3266.37,250" style="fill:none;fill-rule:evenodd;stroke:#000000;stroke-width:2.0px;stroke-linecap:butt;stroke-linejoin:miter;stroke-opacity:1"/>
<path class="bond-30" d="M 3266.37,250 L 3208.45,250" style="fill:none;fill-rule:evenodd;stroke:#FF0000;stroke-width:2.0px;stroke-linecap:butt;stroke-linejoin:miter;stroke-opacity:1"/>
<path class="bond-31" d="M 3324.28,250 L 3390.35,135.568" style="fill:none;fill-rule:evenodd;stroke:#000000;stroke-width:2.0px;stroke-linecap:butt;stroke-linejoin:miter;stroke-opacity:1"/>
<path class="bond-31" d="M 3357.08,246.049 L 3403.32,165.947" style="fill:none;fill-rule:evenodd;stroke:#000000;stroke-width:2.0px;stroke-linecap:butt;stroke-linejoin:miter;stroke-opacity:1;stroke-dasharray:6,6"/>
<path class="bond-32" d="M 3390.35,135.568 L 3522.48,135.568" style="fill:none;fill-rule:evenodd;stroke:#000000;stroke-width:2.0px;stroke-linecap:butt;stroke-linejoin:miter;stroke-opacity:1"/>
<path class="bond-32" d="M 3410.17,161.995 L 3502.66,161.995" style="fill:none;fill-rule:evenodd;stroke:#000000;stroke-width:2.0px;stroke-linecap:butt;stroke-linejoin:miter;stroke-opacity:1;stroke-dasharray:6,6"/>
<path class="atom-0" d="M 598.388 235.84 L 607.668 250.84 Q 608.588 252.32, 610.068 255 Q 611.548 257.68, 611.628 257.84 L 611.628 235.84 L 615.388 235.84 L 615.388 264.16 L 611.508 264.16 L 601.548 247.76 Q 600.388 245.84, 599.148 243.64 Q 597.948 241.44, 597.588 240.76 L 597.588 264.16 L 593.908 264.16 L 593.908 235.84 L 598.388 235.84 " fill="#0000FF"/>
<path class="atom-0" d="M 618.788 235.84 L 622.628 235.84 L 622.628 247.88 L 637.108 247.88 L 637.108 235.84 L 640.948 235.84 L 640.948 264.16 L 637.108 264.16 L 637.108 251.08 L 622.628 251.08 L 622.628 264.16 L 618.788 264.16 L 618.788 235.84 " fill="#0000FF"/>
<path class="atom-0" d="M 642.321 263.166 Q 643.007 261.398, 644.644 260.421 Q 646.281 259.418, 648.551 259.418 Q 651.376 259.418, 652.96 260.949 Q 654.544 262.48, 654.544 265.199 Q 654.544 267.971, 652.485 270.558 Q 650.452 273.146, 646.228 276.208 L 654.861 276.208 L 654.861 278.32 L 642.268 278.32 L 642.268 276.551 Q 645.753 274.07, 647.812 272.222 Q 649.897 270.374, 650.901 268.71 Q 651.904 267.047, 651.904 265.331 Q 651.904 263.536, 651.006 262.533 Q 650.109 261.53, 648.551 261.53 Q 647.046 261.53, 646.043 262.137 Q 645.04 262.744, 644.327 264.09 L 642.321 263.166 " fill="#0000FF"/>
<path class="atom-7" d="M 1608.19 364.512 Q 1608.19 357.712, 1611.55 353.912 Q 1614.91 350.112, 1621.19 350.112 Q 1627.47 350.112, 1630.83 353.912 Q 1634.19 357.712, 1634.19 364.512 Q 1634.19 371.392, 1630.79 375.312 Q 1627.39 379.192, 1621.19 379.192 Q 1614.95 379.192, 1611.55 375.312 Q 1608.19 371.432, 1608.19 364.512 M 1621.19 375.992 Q 1625.51 375.992, 1627.83 373.112 Q 1630.19 370.192, 1630.19 364.512 Q 1630.19 358.952, 1627.83 356.152 Q 1625.51 353.312, 1621.19 353.312 Q 1616.87 353.312, 1614.51 356.112 Q 1612.19 358.912, 1612.19 364.512 Q 1612.19 370.232, 1614.51 373.112 Q 1616.87 375.992, 1621.19 375.992 " fill="#FF0000"/>
<path class="atom-8" d="M 1548.86 235.84 L 1558.14 250.84 Q 1559.06 252.32, 1560.54 255 Q 1562.02 257.68, 1562.1 257.84 L 1562.1 235.84 L 1565.86 235.84 L 1565.86 264.16 L 1561.98 264.16 L 1552.02 247.76 Q 1550.86 245.84, 1549.62 243.64 Q 1548.42 241.44, 1548.06 240.76 L 1548.06 264.16 L 1544.38 264.16 L 1544.38 235.84 L 1548.86 235.84 " fill="#0000FF"/>
<path class="atom-8" d="M 1568.24 240.945 L 1573.23 240.945 L 1573.23 235.691 L 1575.45 235.691 L 1575.45 240.945 L 1580.57 240.945 L 1580.57 242.846 L 1575.45 242.846 L 1575.45 248.126 L 1573.23 248.126 L 1573.23 242.846 L 1568.24 242.846 L 1568.24 240.945 " fill="#0000FF"/>
<path class="atom-9" d="M 1608.19 135.648 Q 1608.19 128.848, 1611.55 125.048 Q 1614.91 121.248, 1621.19 121.248 Q 1627.47 121.248, 1630.83 125.048 Q 1634.19 128.848, 1634.19 135.648 Q 1634.19 142.528, 1630.79 146.448 Q 1627.39 150.328, 1621.19 150.328 Q 1614.95 150.328, 1611.55 146.448 Q 1608.19 142.568, 1608.19 135.648 M 1621.19 147.128 Q 1625.51 147.128, 1627.83 144.248 Q 1630.19 141.328, 1630.19 135.648 Q 1630.19 130.088, 1627.83 127.288 Q 1625.51 124.448, 1621.19 124.448 Q 1616.87 124.448, 1614.51 127.248 Q 1612.19 130.048, 1612.19 135.648 Q 1612.19 141.368, 1614.51 144.248 Q 1616.87 147.128, 1621.19 147.128 " fill="#FF0000"/>
<path class="atom-9" d="M 1635.51 125.871 L 1645.2 125.871 L 1645.2 127.983 L 1635.51 127.983 L 1635.51 125.871 " fill="#FF0000"/>
<path class="atom-14" d="M 989.427 236 L 993.267 236 L 993.267 248.04 L 1007.75 248.04 L 1007.75 236 L 1011.59 236 L 1011.59 264.32 L 1007.75 264.32 L 1007.75 251.24 L 993.267 251.24 L 993.267 264.32 L 989.427 264.32 L 989.427 236 " fill="#FF0000"/>
<path class="atom-14" d="M 1013.59 250.08 Q 1013.59 243.28, 1016.95 239.48 Q 1020.31 235.68, 1026.59 235.68 Q 1032.87 235.68, 1036.23 239.48 Q 1039.59 243.28, 1039.59 250.08 Q 1039.59 256.96, 1036.19 260.88 Q 1032.79 264.76, 1026.59 264.76 Q 1020.35 264.76, 1016.95 260.88 Q 1013.59 257, 1013.59 250.08 M 1026.59 261.56 Q 1030.91 261.56, 1033.23 258.68 Q 1035.59 255.76, 1035.59 250.08 Q 1035.59 244.52, 1033.23 241.72 Q 1030.91 238.88, 1026.59 238.88 Q 1022.27 238.88, 1019.91 241.68 Q 1017.59 244.48, 1017.59 250.08 Q 1017.59 255.8, 1019.91 258.68 Q 1022.27 261.56, 1026.59 261.56 " fill="#FF0000"/>
<path class="atom-17" d="M 2763.95 235.84 L 2773.23 250.84 Q 2774.15 252.32, 2775.63 255 Q 2777.11 257.68, 2777.19 257.84 L 2777.19 235.84 L 2780.95 235.84 L 2780.95 264.16 L 2777.07 264.16 L 2767.11 247.76 Q 2765.95 245.84, 2764.71 243.64 Q 2763.51 241.44, 2763.15 240.76 L 2763.15 264.16 L 2759.47 264.16 L 2759.47 235.84 L 2763.95 235.84 " fill="#0000FF"/>
<path class="atom-17" d="M 2784.35 235.84 L 2788.19 235.84 L 2788.19 247.88 L 2802.67 247.88 L 2802.67 235.84 L 2806.51 235.84 L 2806.51 264.16 L 2802.67 264.16 L 2802.67 251.08 L 2788.19 251.08 L 2788.19 264.16 L 2784.35 264.16 L 2784.35 235.84 " fill="#0000FF"/>
<path class="atom-17" d="M 2807.88 263.166 Q 2808.57 261.398, 2810.2 260.421 Q 2811.84 259.418, 2814.11 259.418 Q 2816.94 259.418, 2818.52 260.949 Q 2820.1 262.48, 2820.1 265.199 Q 2820.1 267.971, 2818.04 270.558 Q 2816.01 273.146, 2811.79 276.208 L 2820.42 276.208 L 2820.42 278.32 L 2807.83 278.32 L 2807.83 276.551 Q 2811.31 274.07, 2813.37 272.222 Q 2815.46 270.374, 2816.46 268.71 Q 2817.46 267.047, 2817.46 265.331 Q 2817.46 263.536, 2816.57 262.533 Q 2815.67 261.53, 2814.11 261.53 Q 2812.61 261.53, 2811.6 262.137 Q 2810.6 262.744, 2809.89 264.09 L 2807.88 263.166 " fill="#0000FF"/>
<path class="atom-24" d="M 3773.75 364.512 Q 3773.75 357.712, 3777.11 353.912 Q 3780.47 350.112, 3786.75 350.112 Q 3793.03 350.112, 3796.39 353.912 Q 3799.75 357.712, 3799.75 364.512 Q 3799.75 371.392, 3796.35 375.312 Q 3792.95 379.192, 3786.75 379.192 Q 3780.51 379.192, 3777.11 375.312 Q 3773.75 371.432, 3773.75 364.512 M 3786.75 375.992 Q 3791.07 375.992, 3793.39 373.112 Q 3795.75 370.192, 3795.75 364.512 Q 3795.75 358.952, 3793.39 356.152 Q 3791.07 353.312, 3786.75 353.312 Q 3782.43 353.312, 3780.07 356.112 Q 3777.75 358.912, 3777.75 364.512 Q 3777.75 370.232, 3780.07 373.112 Q 3782.43 375.992, 3786.75 375.992 " fill="#FF0000"/>
<path class="atom-25" d="M 3714.42 235.84 L 3723.7 250.84 Q 3724.62 252.32, 3726.1 255 Q 3727.58 257.68, 3727.66 257.84 L 3727.66 235.84 L 3731.42 235.84 L 3731.42 264.16 L 3727.54 264.16 L 3717.58 247.76 Q 3716.42 245.84, 3715.18 243.64 Q 3713.98 241.44, 3713.62 240.76 L 3713.62 264.16 L 3709.94 264.16 L 3709.94 235.84 L 3714.42 235.84 " fill="#0000FF"/>
<path class="atom-25" d="M 3733.8 240.945 L 3738.79 240.945 L 3738.79 235.691 L 3741.01 235.691 L 3741.01 240.945 L 3746.13 240.945 L 3746.13 242.846 L 3741.01 242.846 L 3741.01 248.126 L 3738.79 248.126 L 3738.79 242.846 L 3733.8 242.846 L 3733.8 240.945 " fill="#0000FF"/>
<path class="atom-26" d="M 3773.75 135.648 Q 3773.75 128.848, 3777.11 125.048 Q 3780.47 121.248, 3786.75 121.248 Q 3793.03 121.248, 3796.39 125.048 Q 3799.75 128.848, 3799.75 135.648 Q 3799.75 142.528, 3796.35 146.448 Q 3792.95 150.328, 3786.75 150.328 Q 3780.51 150.328, 3777.11 146.448 Q 3773.75 142.568, 3773.75 135.648 M 3786.75 147.128 Q 3791.07 147.128, 3793.39 144.248 Q 3795.75 141.328, 3795.75 135.648 Q 3795.75 130.088, 3793.39 127.288 Q 3791.07 124.448, 3786.75 124.448 Q 3782.43 124.448, 3780.07 127.248 Q 3777.75 130.048, 3777.75 135.648 Q 3777.75 141.368, 3780.07 144.248 Q 3782.43 147.128, 3786.75 147.128 " fill="#FF0000"/>
<path class="atom-26" d="M 3801.07 125.871 L 3810.76 125.871 L 3810.76 127.983 L 3801.07 127.983 L 3801.07 125.871 " fill="#FF0000"/>
<path class="atom-31" d="M 3154.99 236 L 3158.83 236 L 3158.83 248.04 L 3173.31 248.04 L 3173.31 236 L 3177.15 236 L 3177.15 264.32 L 3173.31 264.32 L 3173.31 251.24 L 3158.83 251.24 L 3158.83 264.32 L 3154.99 264.32 L 3154.99 236 " fill="#FF0000"/>
<path class="atom-31" d="M 3179.15 250.08 Q 3179.15 243.28, 3182.51 239.48 Q 3185.87 235.68, 3192.15 235.68 Q 3198.43 235.68, 3201.79 239.48 Q 3205.15 243.28, 3205.15 250.08 Q 3205.15 256.96, 3201.75 260.88 Q 3198.35 264.76, 3192.15 264.76 Q 3185.91 264.76, 3182.51 260.88 Q 3179.15 257, 3179.15 250.08 M 3192.15 261.56 Q 3196.47 261.56, 3198.79 258.68 Q 3201.15 255.76, 3201.15 250.08 Q 3201.15 244.52, 3198.79 241.72 Q 3196.47 238.88, 3192.15 238.88 Q 3187.83 238.88, 3185.47 241.68 Q 3183.15 244.48, 3183.15 250.08 Q 3183.15 255.8, 3185.47 258.68 Q 3187.83 261.56, 3192.15 261.56 " fill="#FF0000"/>
<path class="note" d="M 623.18 217.376 L 626.28 217.376 L 626.28 206.796 L 622.86 207.856 L 622.4 206.676 L 626.74 204.736 L 628.16 204.976 L 628.16 217.376 L 630.94 217.376 L 630.94 218.976 L 623.18 218.976 L 623.18 217.376 " fill="#000000"/>
<path class="note" d="M 478.795 264.752 Q 479.315 263.412, 480.555 262.672 Q 481.795 261.912, 483.515 261.912 Q 485.655 261.912, 486.855 263.072 Q 488.055 264.232, 488.055 266.292 Q 488.055 268.392, 486.495 270.352 Q 484.955 272.312, 481.755 274.632 L 488.295 274.632 L 488.295 276.232 L 478.755 276.232 L 478.755 274.892 Q 481.395 273.012, 482.955 271.612 Q 484.535 270.212, 485.295 268.952 Q 486.055 267.692, 486.055 266.392 Q 486.055 265.032, 485.375 264.272 Q 484.695 263.512, 483.515 263.512 Q 482.375 263.512, 481.615 263.972 Q 480.855 264.432, 480.315 265.452 L 478.795 264.752 " fill="#000000"/>
<path class="note" d="M 419.498 383.204 Q 420.878 383.604, 421.538 384.504 Q 422.218 385.384, 422.218 386.784 Q 422.218 387.984, 421.618 388.924 Q 421.018 389.844, 419.918 390.364 Q 418.818 390.864, 417.378 390.864 Q 415.858 390.864, 414.718 390.344 Q 413.598 389.804, 412.698 388.724 L 413.838 387.564 Q 414.718 388.524, 415.458 388.904 Q 416.198 389.264, 417.378 389.264 Q 418.658 389.264, 419.438 388.584 Q 420.218 387.884, 420.218 386.764 Q 420.218 385.324, 419.398 384.684 Q 418.598 384.024, 416.858 384.024 L 415.838 384.024 L 415.838 382.584 L 416.738 382.584 Q 418.278 382.564, 419.098 381.904 Q 419.918 381.224, 419.918 379.964 Q 419.918 379.044, 419.238 378.504 Q 418.558 377.944, 417.398 377.944 Q 416.218 377.944, 415.478 378.364 Q 414.758 378.784, 414.198 379.844 L 412.818 379.104 Q 413.318 377.924, 414.518 377.144 Q 415.718 376.344, 417.398 376.344 Q 419.478 376.344, 420.698 377.324 Q 421.918 378.304, 421.918 379.964 Q 421.918 381.104, 421.298 381.924 Q 420.678 382.744, 419.498 383.204 " fill="#000000"/>
<path class="note" d="M 267.051 385.724 L 268.751 385.724 L 268.751 387.324 L 267.051 387.324 L 267.051 390.584 L 265.171 390.584 L 265.171 387.324 L 257.851 387.324 L 257.851 386.064 L 264.051 376.424 L 267.051 376.424 L 267.051 385.724 M 260.171 385.724 L 265.171 385.724 L 265.171 377.704 L 260.171 385.724 " fill="#000000"/>
<path class="note" d="M 186.573 248.22 Q 187.813 248.22, 188.833 248.76 Q 189.853 249.28, 190.433 250.28 Q 191.013 251.26, 191.013 252.6 Q 191.013 254.06, 190.293 255.12 Q 189.593 256.16, 188.433 256.7 Q 187.273 257.24, 185.953 257.24 Q 184.653 257.24, 183.453 256.76 Q 182.253 256.28, 181.433 255.36 L 182.633 254.12 Q 183.293 254.84, 184.193 255.24 Q 185.093 255.62, 186.013 255.62 Q 187.273 255.62, 188.133 254.84 Q 189.013 254.06, 189.013 252.64 Q 189.013 251.14, 188.133 250.44 Q 187.273 249.72, 185.893 249.72 Q 184.653 249.72, 183.273 250.26 L 182.173 249.74 L 182.853 242.92 L 190.133 242.92 L 189.933 244.52 L 184.493 244.52 L 184.073 248.72 Q 185.333 248.22, 186.573 248.22 " fill="#000000"/>
<path class="note" d="M 263.931 114.816 Q 265.171 114.816, 266.151 115.356 Q 267.131 115.896, 267.671 116.876 Q 268.211 117.856, 268.211 119.096 Q 268.211 120.476, 267.591 121.556 Q 266.991 122.616, 265.911 123.216 Q 264.831 123.816, 263.451 123.816 Q 260.931 123.816, 259.651 122.116 Q 258.391 120.396, 258.391 116.996 Q 258.391 113.236, 259.951 111.296 Q 261.531 109.336, 264.551 109.336 Q 265.431 109.336, 266.171 109.536 Q 266.931 109.736, 267.651 110.156 L 266.871 111.496 Q 265.831 110.936, 264.571 110.936 Q 262.571 110.936, 261.551 112.236 Q 260.531 113.516, 260.411 116.176 Q 261.131 115.516, 262.031 115.176 Q 262.951 114.816, 263.931 114.816 M 263.471 122.176 Q 264.231 122.176, 264.851 121.776 Q 265.491 121.376, 265.851 120.676 Q 266.211 119.976, 266.211 119.116 Q 266.211 117.856, 265.511 117.136 Q 264.811 116.416, 263.571 116.416 Q 262.711 116.416, 261.851 116.776 Q 261.011 117.116, 260.411 117.716 Q 260.491 120.056, 261.231 121.116 Q 261.971 122.176, 263.471 122.176 " fill="#000000"/>
<path class="note" d="M 420.178 111.016 L 412.758 111.016 L 412.758 109.416 L 422.158 109.416 L 422.158 110.836 L 416.438 123.576 L 414.518 123.576 L 420.178 111.016 " fill="#000000"/>
<path class="note" d="M 1645.43 402.236 Q 1646.73 402.796, 1647.47 403.636 Q 1648.21 404.456, 1648.21 405.856 Q 1648.21 407.056, 1647.59 407.996 Q 1646.97 408.916, 1645.85 409.436 Q 1644.75 409.936, 1643.29 409.936 Q 1640.93 409.936, 1639.57 408.856 Q 1638.21 407.756, 1638.21 405.856 Q 1638.21 404.696, 1638.81 403.836 Q 1639.41 402.956, 1640.65 402.296 Q 1639.73 401.776, 1639.23 401.016 Q 1638.73 400.236, 1638.73 399.036 Q 1638.73 397.376, 1639.93 396.396 Q 1641.15 395.416, 1643.21 395.416 Q 1645.27 395.416, 1646.47 396.396 Q 1647.69 397.376, 1647.69 399.036 Q 1647.69 400.076, 1647.11 400.856 Q 1646.55 401.616, 1645.43 402.236 M 1643.21 396.916 Q 1642.03 396.916, 1641.37 397.476 Q 1640.73 398.036, 1640.73 399.036 Q 1640.73 399.776, 1641.17 400.276 Q 1641.61 400.756, 1642.23 401.036 Q 1642.87 401.316, 1644.09 401.736 Q 1644.95 401.136, 1645.31 400.496 Q 1645.69 399.856, 1645.69 399.036 Q 1645.69 398.036, 1645.03 397.476 Q 1644.39 396.916, 1643.21 396.916 M 1643.29 408.436 Q 1644.61 408.436, 1645.41 407.736 Q 1646.21 407.016, 1646.21 405.836 Q 1646.21 405.076, 1645.79 404.596 Q 1645.37 404.116, 1644.73 403.836 Q 1644.11 403.556, 1642.99 403.196 L 1642.09 402.896 Q 1641.09 403.496, 1640.65 404.216 Q 1640.21 404.916, 1640.21 405.836 Q 1640.21 407.016, 1641.05 407.736 Q 1641.89 408.436, 1643.29 408.436 " fill="#000000"/>
<path class="note" d="M 1599.02 242.84 Q 1601.54 242.84, 1602.8 244.56 Q 1604.08 246.26, 1604.08 249.66 Q 1604.08 253.42, 1602.5 255.38 Q 1600.94 257.32, 1597.92 257.32 Q 1597.04 257.32, 1596.28 257.12 Q 1595.54 256.92, 1594.82 256.5 L 1595.6 255.16 Q 1596.64 255.72, 1597.9 255.72 Q 1599.9 255.72, 1600.92 254.44 Q 1601.94 253.14, 1602.06 250.48 Q 1601.34 251.14, 1600.42 251.5 Q 1599.52 251.84, 1598.54 251.84 Q 1597.3 251.84, 1596.32 251.3 Q 1595.34 250.76, 1594.8 249.78 Q 1594.26 248.8, 1594.26 247.56 Q 1594.26 246.18, 1594.86 245.12 Q 1595.48 244.04, 1596.56 243.44 Q 1597.64 242.84, 1599.02 242.84 M 1596.26 247.54 Q 1596.26 248.8, 1596.96 249.52 Q 1597.66 250.24, 1598.9 250.24 Q 1599.76 250.24, 1600.6 249.9 Q 1601.46 249.54, 1602.06 248.94 Q 1601.98 246.6, 1601.24 245.54 Q 1600.5 244.48, 1599 244.48 Q 1598.24 244.48, 1597.6 244.88 Q 1596.98 245.28, 1596.62 245.98 Q 1596.26 246.68, 1596.26 247.54 " fill="#000000"/>
<path class="note" d="M 1629.66 102.984 L 1632.76 102.984 L 1632.76 92.4045 L 1629.34 93.4645 L 1628.88 92.2845 L 1633.22 90.3445 L 1634.64 90.5845 L 1634.64 102.984 L 1637.42 102.984 L 1637.42 104.584 L 1629.66 104.584 L 1629.66 102.984 " fill="#000000"/>
<path class="note" d="M 1643.82 104.744 Q 1641.22 104.744, 1639.92 102.824 Q 1638.64 100.904, 1638.64 97.4845 Q 1638.64 94.0645, 1639.92 92.1645 Q 1641.2 90.2645, 1643.82 90.2645 Q 1646.44 90.2645, 1647.72 92.1645 Q 1649 94.0645, 1649 97.4845 Q 1649 100.904, 1647.7 102.824 Q 1646.42 104.744, 1643.82 104.744 M 1643.82 103.144 Q 1645.36 103.144, 1646.18 101.724 Q 1647 100.284, 1647 97.4845 Q 1647 94.7045, 1646.18 93.2845 Q 1645.36 91.8645, 1643.82 91.8645 Q 1642.3 91.8645, 1641.46 93.2845 Q 1640.64 94.7045, 1640.64 97.4845 Q 1640.64 100.284, 1641.46 101.724 Q 1642.3 103.144, 1643.82 103.144 " fill="#000000"/>
<path class="note" d="M 1432.44 293.664 L 1435.54 293.664 L 1435.54 283.084 L 1432.12 284.144 L 1431.66 282.964 L 1436 281.024 L 1437.42 281.264 L 1437.42 293.664 L 1440.2 293.664 L 1440.2 295.264 L 1432.44 295.264 L 1432.44 293.664 " fill="#000000"/>
<path class="note" d="M 1442.06 293.664 L 1445.16 293.664 L 1445.16 283.084 L 1441.74 284.144 L 1441.28 282.964 L 1445.62 281.024 L 1447.04 281.264 L 1447.04 293.664 L 1449.82 293.664 L 1449.82 295.264 L 1442.06 295.264 L 1442.06 293.664 " fill="#000000"/>
<path class="note" d="M 1354.9 389.064 L 1358 389.064 L 1358 378.484 L 1354.58 379.544 L 1354.12 378.364 L 1358.46 376.424 L 1359.88 376.664 L 1359.88 389.064 L 1362.66 389.064 L 1362.66 390.664 L 1354.9 390.664 L 1354.9 389.064 " fill="#000000"/>
<path class="note" d="M 1363.7 379.184 Q 1364.22 377.844, 1365.46 377.104 Q 1366.7 376.344, 1368.42 376.344 Q 1370.56 376.344, 1371.76 377.504 Q 1372.96 378.664, 1372.96 380.724 Q 1372.96 382.824, 1371.4 384.784 Q 1369.86 386.744, 1366.66 389.064 L 1373.2 389.064 L 1373.2 390.664 L 1363.66 390.664 L 1363.66 389.324 Q 1366.3 387.444, 1367.86 386.044 Q 1369.44 384.644, 1370.2 383.384 Q 1370.96 382.124, 1370.96 380.824 Q 1370.96 379.464, 1370.28 378.704 Q 1369.6 377.944, 1368.42 377.944 Q 1367.28 377.944, 1366.52 378.404 Q 1365.76 378.864, 1365.22 379.884 L 1363.7 379.184 " fill="#000000"/>
<path class="note" d="M 1200.84 389.064 L 1203.94 389.064 L 1203.94 378.484 L 1200.52 379.544 L 1200.06 378.364 L 1204.4 376.424 L 1205.82 376.664 L 1205.82 389.064 L 1208.6 389.064 L 1208.6 390.664 L 1200.84 390.664 L 1200.84 389.064 " fill="#000000"/>
<path class="note" d="M 1216.24 383.204 Q 1217.62 383.604, 1218.28 384.504 Q 1218.96 385.384, 1218.96 386.784 Q 1218.96 387.984, 1218.36 388.924 Q 1217.76 389.844, 1216.66 390.364 Q 1215.56 390.864, 1214.12 390.864 Q 1212.6 390.864, 1211.46 390.344 Q 1210.34 389.804, 1209.44 388.724 L 1210.58 387.564 Q 1211.46 388.524, 1212.2 388.904 Q 1212.94 389.264, 1214.12 389.264 Q 1215.4 389.264, 1216.18 388.584 Q 1216.96 387.884, 1216.96 386.764 Q 1216.96 385.324, 1216.14 384.684 Q 1215.34 384.024, 1213.6 384.024 L 1212.58 384.024 L 1212.58 382.584 L 1213.48 382.584 Q 1215.02 382.564, 1215.84 381.904 Q 1216.66 381.224, 1216.66 379.964 Q 1216.66 379.044, 1215.98 378.504 Q 1215.3 377.944, 1214.14 377.944 Q 1212.96 377.944, 1212.22 378.364 Q 1211.5 378.784, 1210.94 379.844 L 1209.56 379.104 Q 1210.06 377.924, 1211.26 377.144 Q 1212.46 376.344, 1214.14 376.344 Q 1216.22 376.344, 1217.44 377.324 Q 1218.66 378.304, 1218.66 379.964 Q 1218.66 381.104, 1218.04 381.924 Q 1217.42 382.744, 1216.24 383.204 " fill="#000000"/>
<path class="note" d="M 1134.2 274.592 L 1137.3 274.592 L 1137.3 264.012 L 1133.88 265.072 L 1133.42 263.892 L 1137.76 261.952 L 1139.18 262.192 L 1139.18 274.592 L 1141.96 274.592 L 1141.96 276.192 L 1134.2 276.192 L 1134.2 274.592 " fill="#000000"/>
<path class="note" d="M 1151.76 271.332 L 1153.46 271.332 L 1153.46 272.932 L 1151.76 272.932 L 1151.76 276.192 L 1149.88 276.192 L 1149.88 272.932 L 1142.56 272.932 L 1142.56 271.672 L 1148.76 262.032 L 1151.76 262.032 L 1151.76 271.332 M 1144.88 271.332 L 1149.88 271.332 L 1149.88 263.312 L 1144.88 271.332 " fill="#000000"/>
<path class="note" d="M 991.555 293.664 L 994.655 293.664 L 994.655 283.084 L 991.235 284.144 L 990.775 282.964 L 995.115 281.024 L 996.535 281.264 L 996.535 293.664 L 999.315 293.664 L 999.315 295.264 L 991.555 295.264 L 991.555 293.664 " fill="#000000"/>
<path class="note" d="M 1005.37 286.404 Q 1006.61 286.404, 1007.63 286.944 Q 1008.65 287.464, 1009.23 288.464 Q 1009.81 289.444, 1009.81 290.784 Q 1009.81 292.244, 1009.09 293.304 Q 1008.39 294.344, 1007.23 294.884 Q 1006.07 295.424, 1004.75 295.424 Q 1003.45 295.424, 1002.25 294.944 Q 1001.05 294.464, 1000.23 293.544 L 1001.43 292.304 Q 1002.09 293.024, 1002.99 293.424 Q 1003.89 293.804, 1004.81 293.804 Q 1006.07 293.804, 1006.93 293.024 Q 1007.81 292.244, 1007.81 290.824 Q 1007.81 289.324, 1006.93 288.624 Q 1006.07 287.904, 1004.69 287.904 Q 1003.45 287.904, 1002.07 288.444 L 1000.97 287.924 L 1001.65 281.104 L 1008.93 281.104 L 1008.73 282.704 L 1003.29 282.704 L 1002.87 286.904 Q 1004.13 286.404, 1005.37 286.404 " fill="#000000"/>
<path class="note" d="M 1200.43 122.056 L 1203.53 122.056 L 1203.53 111.476 L 1200.11 112.536 L 1199.65 111.356 L 1203.99 109.416 L 1205.41 109.656 L 1205.41 122.056 L 1208.19 122.056 L 1208.19 123.656 L 1200.43 123.656 L 1200.43 122.056 " fill="#000000"/>
<path class="note" d="M 1215.09 114.816 Q 1216.33 114.816, 1217.31 115.356 Q 1218.29 115.896, 1218.83 116.876 Q 1219.37 117.856, 1219.37 119.096 Q 1219.37 120.476, 1218.75 121.556 Q 1218.15 122.616, 1217.07 123.216 Q 1215.99 123.816, 1214.61 123.816 Q 1212.09 123.816, 1210.81 122.116 Q 1209.55 120.396, 1209.55 116.996 Q 1209.55 113.236, 1211.11 111.296 Q 1212.69 109.336, 1215.71 109.336 Q 1216.59 109.336, 1217.33 109.536 Q 1218.09 109.736, 1218.81 110.156 L 1218.03 111.496 Q 1216.99 110.936, 1215.73 110.936 Q 1213.73 110.936, 1212.71 112.236 Q 1211.69 113.516, 1211.57 116.176 Q 1212.29 115.516, 1213.19 115.176 Q 1214.11 114.816, 1215.09 114.816 M 1214.63 122.176 Q 1215.39 122.176, 1216.01 121.776 Q 1216.65 121.376, 1217.01 120.676 Q 1217.37 119.976, 1217.37 119.116 Q 1217.37 117.856, 1216.67 117.136 Q 1215.97 116.416, 1214.73 116.416 Q 1213.87 116.416, 1213.01 116.776 Q 1212.17 117.116, 1211.57 117.716 Q 1211.65 120.056, 1212.39 121.116 Q 1213.13 122.176, 1214.63 122.176 " fill="#000000"/>
<path class="note" d="M 1355.29 122.016 L 1358.39 122.016 L 1358.39 111.436 L 1354.97 112.496 L 1354.51 111.316 L 1358.85 109.376 L 1360.27 109.616 L 1360.27 122.016 L 1363.05 122.016 L 1363.05 123.616 L 1355.29 123.616 L 1355.29 122.016 " fill="#000000"/>
<path class="note" d="M 1370.83 111.056 L 1363.41 111.056 L 1363.41 109.456 L 1372.81 109.456 L 1372.81 110.876 L 1367.09 123.616 L 1365.17 123.616 L 1370.83 111.056 " fill="#000000"/>
<path class="note" d="M 2788.74 217.376 L 2791.84 217.376 L 2791.84 206.796 L 2788.42 207.856 L 2787.96 206.676 L 2792.3 204.736 L 2793.72 204.976 L 2793.72 217.376 L 2796.5 217.376 L 2796.5 218.976 L 2788.74 218.976 L 2788.74 217.376 " fill="#000000"/>
<path class="note" d="M 2644.35 264.752 Q 2644.87 263.412, 2646.11 262.672 Q 2647.35 261.912, 2649.07 261.912 Q 2651.21 261.912, 2652.41 263.072 Q 2653.61 264.232, 2653.61 266.292 Q 2653.61 268.392, 2652.05 270.352 Q 2650.51 272.312, 2647.31 274.632 L 2653.85 274.632 L 2653.85 276.232 L 2644.31 276.232 L 2644.31 274.892 Q 2646.95 273.012, 2648.51 271.612 Q 2650.09 270.212, 2650.85 268.952 Q 2651.61 267.692, 2651.61 266.392 Q 2651.61 265.032, 2650.93 264.272 Q 2650.25 263.512, 2649.07 263.512 Q 2647.93 263.512, 2647.17 263.972 Q 2646.41 264.432, 2645.87 265.452 L 2644.35 264.752 " fill="#000000"/>
<path class="note" d="M 2585.06 383.204 Q 2586.44 383.604, 2587.1 384.504 Q 2587.78 385.384, 2587.78 386.784 Q 2587.78 387.984, 2587.18 388.924 Q 2586.58 389.844, 2585.48 390.364 Q 2584.38 390.864, 2582.94 390.864 Q 2581.42 390.864, 2580.28 390.344 Q 2579.16 389.804, 2578.26 388.724 L 2579.4 387.564 Q 2580.28 388.524, 2581.02 388.904 Q 2581.76 389.264, 2582.94 389.264 Q 2584.22 389.264, 2585 388.584 Q 2585.78 387.884, 2585.78 386.764 Q 2585.78 385.324, 2584.96 384.684 Q 2584.16 384.024, 2582.42 384.024 L 2581.4 384.024 L 2581.4 382.584 L 2582.3 382.584 Q 2583.84 382.564, 2584.66 381.904 Q 2585.48 381.224, 2585.48 379.964 Q 2585.48 379.044, 2584.8 378.504 Q 2584.12 377.944, 2582.96 377.944 Q 2581.78 377.944, 2581.04 378.364 Q 2580.32 378.784, 2579.76 379.844 L 2578.38 379.104 Q 2578.88 377.924, 2580.08 377.144 Q 2581.28 376.344, 2582.96 376.344 Q 2585.04 376.344, 2586.26 377.324 Q 2587.48 378.304, 2587.48 379.964 Q 2587.48 381.104, 2586.86 381.924 Q 2586.24 382.744, 2585.06 383.204 " fill="#000000"/>
<path class="note" d="M 2432.61 385.724 L 2434.31 385.724 L 2434.31 387.324 L 2432.61 387.324 L 2432.61 390.584 L 2430.73 390.584 L 2430.73 387.324 L 2423.41 387.324 L 2423.41 386.064 L 2429.61 376.424 L 2432.61 376.424 L 2432.61 385.724 M 2425.73 385.724 L 2430.73 385.724 L 2430.73 377.704 L 2425.73 385.724 " fill="#000000"/>
<path class="note" d="M 2352.13 248.22 Q 2353.37 248.22, 2354.39 248.76 Q 2355.41 249.28, 2355.99 250.28 Q 2356.57 251.26, 2356.57 252.6 Q 2356.57 254.06, 2355.85 255.12 Q 2355.15 256.16, 2353.99 256.7 Q 2352.83 257.24, 2351.51 257.24 Q 2350.21 257.24, 2349.01 256.76 Q 2347.81 256.28, 2346.99 255.36 L 2348.19 254.12 Q 2348.85 254.84, 2349.75 255.24 Q 2350.65 255.62, 2351.57 255.62 Q 2352.83 255.62, 2353.69 254.84 Q 2354.57 254.06, 2354.57 252.64 Q 2354.57 251.14, 2353.69 250.44 Q 2352.83 249.72, 2351.45 249.72 Q 2350.21 249.72, 2348.83 250.26 L 2347.73 249.74 L 2348.41 242.92 L 2355.69 242.92 L 2355.49 244.52 L 2350.05 244.52 L 2349.63 248.72 Q 2350.89 248.22, 2352.13 248.22 " fill="#000000"/>
<path class="note" d="M 2429.49 114.816 Q 2430.73 114.816, 2431.71 115.356 Q 2432.69 115.896, 2433.23 116.876 Q 2433.77 117.856, 2433.77 119.096 Q 2433.77 120.476, 2433.15 121.556 Q 2432.55 122.616, 2431.47 123.216 Q 2430.39 123.816, 2429.01 123.816 Q 2426.49 123.816, 2425.21 122.116 Q 2423.95 120.396, 2423.95 116.996 Q 2423.95 113.236, 2425.51 111.296 Q 2427.09 109.336, 2430.11 109.336 Q 2430.99 109.336, 2431.73 109.536 Q 2432.49 109.736, 2433.21 110.156 L 2432.43 111.496 Q 2431.39 110.936, 2430.13 110.936 Q 2428.13 110.936, 2427.11 112.236 Q 2426.09 113.516, 2425.97 116.176 Q 2426.69 115.516, 2427.59 115.176 Q 2428.51 114.816, 2429.49 114.816 M 2429.03 122.176 Q 2429.79 122.176, 2430.41 121.776 Q 2431.05 121.376, 2431.41 120.676 Q 2431.77 119.976, 2431.77 119.116 Q 2431.77 117.856, 2431.07 117.136 Q 2430.37 116.416, 2429.13 116.416 Q 2428.27 116.416, 2427.41 116.776 Q 2426.57 117.116, 2425.97 117.716 Q 2426.05 120.056, 2426.79 121.116 Q 2427.53 122.176, 2429.03 122.176 " fill="#000000"/>
<path class="note" d="M 2585.74 111.016 L 2578.32 111.016 L 2578.32 109.416 L 2587.72 109.416 L 2587.72 110.836 L 2582 123.576 L 2580.08 123.576 L 2585.74 111.016 " fill="#000000"/>
<path class="note" d="M 3810.99 402.236 Q 3812.29 402.796, 3813.03 403.636 Q 3813.77 404.456, 3813.77 405.856 Q 3813.77 407.056, 3813.15 407.996 Q 3812.53 408.916, 3811.41 409.436 Q 3810.31 409.936, 3808.85 409.936 Q 3806.49 409.936, 3805.13 408.856 Q 3803.77 407.756, 3803.77 405.856 Q 3803.77 404.696, 3804.37 403.836 Q 3804.97 402.956, 3806.21 402.296 Q 3805.29 401.776, 3804.79 401.016 Q 3804.29 400.236, 3804.29 399.036 Q 3804.29 397.376, 3805.49 396.396 Q 3806.71 395.416, 3808.77 395.416 Q 3810.83 395.416, 3812.03 396.396 Q 3813.25 397.376, 3813.25 399.036 Q 3813.25 400.076, 3812.67 400.856 Q 3812.11 401.616, 3810.99 402.236 M 3808.77 396.916 Q 3807.59 396.916, 3806.93 397.476 Q 3806.29 398.036, 3806.29 399.036 Q 3806.29 399.776, 3806.73 400.276 Q 3807.17 400.756, 3807.79 401.036 Q 3808.43 401.316, 3809.65 401.736 Q 3810.51 401.136, 3810.87 400.496 Q 3811.25 399.856, 3811.25 399.036 Q 3811.25 398.036, 3810.59 397.476 Q 3809.95 396.916, 3808.77 396.916 M 3808.85 408.436 Q 3810.17 408.436, 3810.97 407.736 Q 3811.77 407.016, 3811.77 405.836 Q 3811.77 405.076, 3811.35 404.596 Q 3810.93 404.116, 3810.29 403.836 Q 3809.67 403.556, 3808.55 403.196 L 3807.65 402.896 Q 3806.65 403.496, 3806.21 404.216 Q 3805.77 404.916, 3805.77 405.836 Q 3805.77 407.016, 3806.61 407.736 Q 3807.45 408.436, 3808.85 408.436 " fill="#000000"/>
<path class="note" d="M 3764.58 242.84 Q 3767.1 242.84, 3768.36 244.56 Q 3769.64 246.26, 3769.64 249.66 Q 3769.64 253.42, 3768.06 255.38 Q 3766.5 257.32, 3763.48 257.32 Q 3762.6 257.32, 3761.84 257.12 Q 3761.1 256.92, 3760.38 256.5 L 3761.16 255.16 Q 3762.2 255.72, 3763.46 255.72 Q 3765.46 255.72, 3766.48 254.44 Q 3767.5 253.14, 3767.62 250.48 Q 3766.9 251.14, 3765.98 251.5 Q 3765.08 251.84, 3764.1 251.84 Q 3762.86 251.84, 3761.88 251.3 Q 3760.9 250.76, 3760.36 249.78 Q 3759.82 248.8, 3759.82 247.56 Q 3759.82 246.18, 3760.42 245.12 Q 3761.04 244.04, 3762.12 243.44 Q 3763.2 242.84, 3764.58 242.84 M 3761.82 247.54 Q 3761.82 248.8, 3762.52 249.52 Q 3763.22 250.24, 3764.46 250.24 Q 3765.32 250.24, 3766.16 249.9 Q 3767.02 249.54, 3767.62 248.94 Q 3767.54 246.6, 3766.8 245.54 Q 3766.06 244.48, 3764.56 244.48 Q 3763.8 244.48, 3763.16 244.88 Q 3762.54 245.28, 3762.18 245.98 Q 3761.82 246.68, 3761.82 247.54 " fill="#000000"/>
<path class="note" d="M 3795.22 102.984 L 3798.32 102.984 L 3798.32 92.4045 L 3794.9 93.4645 L 3794.44 92.2845 L 3798.78 90.3445 L 3800.2 90.5845 L 3800.2 102.984 L 3802.98 102.984 L 3802.98 104.584 L 3795.22 104.584 L 3795.22 102.984 " fill="#000000"/>
<path class="note" d="M 3809.38 104.744 Q 3806.78 104.744, 3805.48 102.824 Q 3804.2 100.904, 3804.2 97.4845 Q 3804.2 94.0645, 3805.48 92.1645 Q 3806.76 90.2645, 3809.38 90.2645 Q 3812 90.2645, 3813.28 92.1645 Q 3814.56 94.0645, 3814.56 97.4845 Q 3814.56 100.904, 3813.26 102.824 Q 3811.98 104.744, 3809.38 104.744 M 3809.38 103.144 Q 3810.92 103.144, 3811.74 101.724 Q 3812.56 100.284, 3812.56 97.4845 Q 3812.56 94.7045, 3811.74 93.2845 Q 3810.92 91.8645, 3809.38 91.8645 Q 3807.86 91.8645, 3807.02 93.2845 Q 3806.2 94.7045, 3806.2 97.4845 Q 3806.2 100.284, 3807.02 101.724 Q 3807.86 103.144, 3809.38 103.144 " fill="#000000"/>
<path class="note" d="M 3598 293.664 L 3601.1 293.664 L 3601.1 283.084 L 3597.68 284.144 L 3597.22 282.964 L 3601.56 281.024 L 3602.98 281.264 L 3602.98 293.664 L 3605.76 293.664 L 3605.76 295.264 L 3598 295.264 L 3598 293.664 " fill="#000000"/>
<path class="note" d="M 3607.62 293.664 L 3610.72 293.664 L 3610.72 283.084 L 3607.3 284.144 L 3606.84 282.964 L 3611.18 281.024 L 3612.6 281.264 L 3612.6 293.664 L 3615.38 293.664 L 3615.38 295.264 L 3607.62 295.264 L 3607.62 293.664 " fill="#000000"/>
<path class="note" d="M 3520.46 389.064 L 3523.56 389.064 L 3523.56 378.484 L 3520.14 379.544 L 3519.68 378.364 L 3524.02 376.424 L 3525.44 376.664 L 3525.44 389.064 L 3528.22 389.064 L 3528.22 390.664 L 3520.46 390.664 L 3520.46 389.064 " fill="#000000"/>
<path class="note" d="M 3529.26 379.184 Q 3529.78 377.844, 3531.02 377.104 Q 3532.26 376.344, 3533.98 376.344 Q 3536.12 376.344, 3537.32 377.504 Q 3538.52 378.664, 3538.52 380.724 Q 3538.52 382.824, 3536.96 384.784 Q 3535.42 386.744, 3532.22 389.064 L 3538.76 389.064 L 3538.76 390.664 L 3529.22 390.664 L 3529.22 389.324 Q 3531.86 387.444, 3533.42 386.044 Q 3535 384.644, 3535.76 383.384 Q 3536.52 382.124, 3536.52 380.824 Q 3536.52 379.464, 3535.84 378.704 Q 3535.16 377.944, 3533.98 377.944 Q 3532.84 377.944, 3532.08 378.404 Q 3531.32 378.864, 3530.78 379.884 L 3529.26 379.184 " fill="#000000"/>
<path class="note" d="M 3366.4 389.064 L 3369.5 389.064 L 3369.5 378.484 L 3366.08 379.544 L 3365.62 378.364 L 3369.96 376.424 L 3371.38 376.664 L 3371.38 389.064 L 3374.16 389.064 L 3374.16 390.664 L 3366.4 390.664 L 3366.4 389.064 " fill="#000000"/>
<path class="note" d="M 3381.8 383.204 Q 3383.18 383.604, 3383.84 384.504 Q 3384.52 385.384, 3384.52 386.784 Q 3384.52 387.984, 3383.92 388.924 Q 3383.32 389.844, 3382.22 390.364 Q 3381.12 390.864, 3379.68 390.864 Q 3378.16 390.864, 3377.02 390.344 Q 3375.9 389.804, 3375 388.724 L 3376.14 387.564 Q 3377.02 388.524, 3377.76 388.904 Q 3378.5 389.264, 3379.68 389.264 Q 3380.96 389.264, 3381.74 388.584 Q 3382.52 387.884, 3382.52 386.764 Q 3382.52 385.324, 3381.7 384.684 Q 3380.9 384.024, 3379.16 384.024 L 3378.14 384.024 L 3378.14 382.584 L 3379.04 382.584 Q 3380.58 382.564, 3381.4 381.904 Q 3382.22 381.224, 3382.22 379.964 Q 3382.22 379.044, 3381.54 378.504 Q 3380.86 377.944, 3379.7 377.944 Q 3378.52 377.944, 3377.78 378.364 Q 3377.06 378.784, 3376.5 379.844 L 3375.12 379.104 Q 3375.62 377.924, 3376.82 377.144 Q 3378.02 376.344, 3379.7 376.344 Q 3381.78 376.344, 3383 377.324 Q 3384.22 378.304, 3384.22 379.964 Q 3384.22 381.104, 3383.6 381.924 Q 3382.98 382.744, 3381.8 383.204 " fill="#000000"/>
<path class="note" d="M 3299.76 274.592 L 3302.86 274.592 L 3302.86 264.012 L 3299.44 265.072 L 3298.98 263.892 L 3303.32 261.952 L 3304.74 262.192 L 3304.74 274.592 L 3307.52 274.592 L 3307.52 276.192 L 3299.76 276.192 L 3299.76 274.592 " fill="#000000"/>
<path class="note" d="M 3317.32 271.332 L 3319.02 271.332 L 3319.02 272.932 L 3317.32 272.932 L 3317.32 276.192 L 3315.44 276.192 L 3315.44 272.932 L 3308.12 272.932 L 3308.12 271.672 L 3314.32 262.032 L 3317.32 262.032 L 3317.32 271.332 M 3310.44 271.332 L 3315.44 271.332 L 3315.44 263.312 L 3310.44 271.332 " fill="#000000"/>
<path class="note" d="M 3157.11 293.664 L 3160.21 293.664 L 3160.21 283.084 L 3156.79 284.144 L 3156.33 282.964 L 3160.67 281.024 L 3162.09 281.264 L 3162.09 293.664 L 3164.87 293.664 L 3164.87 295.264 L 3157.11 295.264 L 3157.11 293.664 " fill="#000000"/>
<path class="note" d="M 3170.93 286.404 Q 3172.17 286.404, 3173.19 286.944 Q 3174.21 287.464, 3174.79 288.464 Q 3175.37 289.444, 3175.37 290.784 Q 3175.37 292.244, 3174.65 293.304 Q 3173.95 294.344, 3172.79 294.884 Q 3171.63 295.424, 3170.31 295.424 Q 3169.01 295.424, 3167.81 294.944 Q 3166.61 294.464, 3165.79 293.544 L 3166.99 292.304 Q 3167.65 293.024, 3168.55 293.424 Q 3169.45 293.804, 3170.37 293.804 Q 3171.63 293.804, 3172.49 293.024 Q 3173.37 292.244, 3173.37 290.824 Q 3173.37 289.324, 3172.49 288.624 Q 3171.63 287.904, 3170.25 287.904 Q 3169.01 287.904, 3167.63 288.444 L 3166.53 287.924 L 3167.21 281.104 L 3174.49 281.104 L 3174.29 282.704 L 3168.85 282.704 L 3168.43 286.904 Q 3169.69 286.404, 3170.93 286.404 " fill="#000000"/>
<path class="note" d="M 3365.99 122.056 L 3369.09 122.056 L 3369.09 111.476 L 3365.67 112.536 L 3365.21 111.356 L 3369.55 109.416 L 3370.97 109.656 L 3370.97 122.056 L 3373.75 122.056 L 3373.75 123.656 L 3365.99 123.656 L 3365.99 122.056 " fill="#000000"/>
<path class="note" d="M 3380.65 114.816 Q 3381.89 114.816, 3382.87 115.356 Q 3383.85 115.896, 3384.39 116.876 Q 3384.93 117.856, 3384.93 119.096 Q 3384.93 120.476, 3384.31 121.556 Q 3383.71 122.616, 3382.63 123.216 Q 3381.55 123.816, 3380.17 123.816 Q 3377.65 123.816, 3376.37 122.116 Q 3375.11 120.396, 3375.11 116.996 Q 3375.11 113.236, 3376.67 111.296 Q 3378.25 109.336, 3381.27 109.336 Q 3382.15 109.336, 3382.89 109.536 Q 3383.65 109.736, 3384.37 110.156 L 3383.59 111.496 Q 3382.55 110.936, 3381.29 110.936 Q 3379.29 110.936, 3378.27 112.236 Q 3377.25 113.516, 3377.13 116.176 Q 3377.85 115.516, 3378.75 115.176 Q 3379.67 114.816, 3380.65 114.816 M 3380.19 122.176 Q 3380.95 122.176, 3381.57 121.776 Q 3382.21 121.376, 3382.57 120.676 Q 3382.93 119.976, 3382.93 119.116 Q 3382.93 117.856, 3382.23 117.136 Q 3381.53 116.416, 3380.29 116.416 Q 3379.43 116.416, 3378.57 116.776 Q 3377.73 117.116, 3377.13 117.716 Q 3377.21 120.056, 3377.95 121.116 Q 3378.69 122.176, 3380.19 122.176 " fill="#000000"/>
<path class="note" d="M 3520.85 122.016 L 3523.95 122.016 L 3523.95 111.436 L 3520.53 112.496 L 3520.07 111.316 L 3524.41 109.376 L 3525.83 109.616 L 3525.83 122.016 L 3528.61 122.016 L 3528.61 123.616 L 3520.85 123.616 L 3520.85 122.016 " fill="#000000"/>
<path class="note" d="M 3536.39 111.056 L 3528.97 111.056 L 3528.97 109.456 L 3538.37 109.456 L 3538.37 110.876 L 3532.65 123.616 L 3530.73 123.616 L 3536.39 111.056 " fill="#000000"/>
<path d="M 800.477 247.696 L 806.525 247.696 L 806.525 241.328 L 809.213 241.328 L 809.213 247.696 L 815.421 247.696 L 815.421 250 L 809.213 250 L 809.213 256.4 L 806.525 256.4 L 806.525 250 L 800.477 250 L 800.477 247.696 " fill="#000000"/>
<path d="M 2966.04 247.696 L 2972.08 247.696 L 2972.08 241.328 L 2974.77 241.328 L 2974.77 247.696 L 2980.98 247.696 L 2980.98 250 L 2974.77 250 L 2974.77 256.4 L 2972.08 256.4 L 2972.08 250 L 2966.04 250 L 2966.04 247.696 " fill="#000000"/>
<path d="M 1823.46,250 L 2175.81,250" style="fill:none;fill-rule:evenodd;stroke:#000000;stroke-width:2.0px;stroke-linecap:butt;stroke-linejoin:miter;stroke-opacity:1"/>
<path d="M 2175.81,250 L 2160.56,241.191" style="fill:none;fill-rule:evenodd;stroke:#000000;stroke-width:2.0px;stroke-linecap:butt;stroke-linejoin:miter;stroke-opacity:1"/>
<path d="M 2175.81,250 L 2160.56,258.809" style="fill:none;fill-rule:evenodd;stroke:#000000;stroke-width:2.0px;stroke-linecap:butt;stroke-linejoin:miter;stroke-opacity:1"/>
</svg>