<svg xmlns="http://www.w3.org/2000/svg" xmlns:rdkit="http://www.rdkit.org/xml" xmlns:xlink="http://www.w3.org/1999/xlink" version="1.1" baseProfile="full" xml:space="preserve" width="4000px" height="500px" viewBox="0 0 4000 500">
<!-- END OF HEADER -->
<rect style="opacity:1.0;fill:#FFFFFF;stroke:none" width="4000" height="500" x="0" y="0"> </rect>
<path d="M 1292.14,435.733 L 1201.6,311.114" style="fill:none;fill-rule:evenodd;stroke:#FFFFAA;stroke-width:32.9px;stroke-linecap:butt;stroke-linejoin:miter;stroke-opacity:1"/>
<path d="M 1201.6,311.114 L 1249.2,164.615" style="fill:none;fill-rule:evenodd;stroke:#FFFFAA;stroke-width:32.9px;stroke-linecap:butt;stroke-linejoin:miter;stroke-opacity:1"/>
<path d="M 1201.6,311.114 L 1047.56,311.114" style="fill:none;fill-rule:evenodd;stroke:#FFFFAA;stroke-width:32.9px;stroke-linecap:butt;stroke-linejoin:miter;stroke-opacity:1"/>
<path d="M 1249.2,164.615 L 1395.7,117.014" style="fill:none;fill-rule:evenodd;stroke:#FFFFAA;stroke-width:32.9px;stroke-linecap:butt;stroke-linejoin:miter;stroke-opacity:1"/>
<path d="M 1249.2,164.615 L 1124.58,74.0733" style="fill:none;fill-rule:evenodd;stroke:#FFFFAA;stroke-width:32.9px;stroke-linecap:butt;stroke-linejoin:miter;stroke-opacity:1"/>
<path d="M 1124.58,74.0733 L 999.964,164.615" style="fill:none;fill-rule:evenodd;stroke:#FFFFAA;stroke-width:32.9px;stroke-linecap:butt;stroke-linejoin:miter;stroke-opacity:1"/>
<path d="M 999.964,164.615 L 853.465,117.014" style="fill:none;fill-rule:evenodd;stroke:#FFFFAA;stroke-width:32.9px;stroke-linecap:butt;stroke-linejoin:miter;stroke-opacity:1"/>
<path d="M 999.964,164.615 L 1047.56,311.114" style="fill:none;fill-rule:evenodd;stroke:#FFFFAA;stroke-width:32.9px;stroke-linecap:butt;stroke-linejoin:miter;stroke-opacity:1"/>
<path d="M 1047.56,311.114 L 957.023,435.733" style="fill:none;fill-rule:evenodd;stroke:#FFFFAA;stroke-width:32.9px;stroke-linecap:butt;stroke-linejoin:miter;stroke-opacity:1"/>
<path d="M 3144.02,236.78 L 2989.98,236.78" style="fill:none;fill-rule:evenodd;stroke:#FFFFAA;stroke-width:32.9px;stroke-linecap:butt;stroke-linejoin:miter;stroke-opacity:1"/>
<path d="M 2989.98,236.78 L 2899.44,112.161" style="fill:none;fill-rule:evenodd;stroke:#FFFFAA;stroke-width:32.9px;stroke-linecap:butt;stroke-linejoin:miter;stroke-opacity:1"/>
<path d="M 2989.98,236.78 L 2899.44,361.4" style="fill:none;fill-rule:evenodd;stroke:#FFFFAA;stroke-width:32.9px;stroke-linecap:butt;stroke-linejoin:miter;stroke-opacity:1"/>
<path d="M 2899.44,112.161 L 2752.94,159.761" style="fill:none;fill-rule:evenodd;stroke:#FFFFAA;stroke-width:32.9px;stroke-linecap:butt;stroke-linejoin:miter;stroke-opacity:1"/>
<path d="M 2752.94,159.761 L 2628.32,69.2201" style="fill:none;fill-rule:evenodd;stroke:#FFFFAA;stroke-width:32.9px;stroke-linecap:butt;stroke-linejoin:miter;stroke-opacity:1"/>
<path d="M 2752.94,159.761 L 2752.94,313.799" style="fill:none;fill-rule:evenodd;stroke:#FFFFAA;stroke-width:32.9px;stroke-linecap:butt;stroke-linejoin:miter;stroke-opacity:1"/>
<path d="M 2752.94,313.799 L 2628.32,404.341" style="fill:none;fill-rule:evenodd;stroke:#FFFFAA;stroke-width:32.9px;stroke-linecap:butt;stroke-linejoin:miter;stroke-opacity:1"/>
<path d="M 2752.94,313.799 L 2899.44,361.4" style="fill:none;fill-rule:evenodd;stroke:#FFFFAA;stroke-width:32.9px;stroke-linecap:butt;stroke-linejoin:miter;stroke-opacity:1"/>
<ellipse cx="1295.7" cy="435.913" rx="30.8076" ry="30.8076" style="fill:#FFFFAA;fill-rule:evenodd;stroke:#FFFFAA;stroke-width:1px;stroke-linecap:butt;stroke-linejoin:miter;stroke-opacity:1"/>
<ellipse cx="1201.6" cy="311.114" rx="30.8076" ry="30.8076" style="fill:#FFFFAA;fill-rule:evenodd;stroke:#FFFFAA;stroke-width:1px;stroke-linecap:butt;stroke-linejoin:miter;stroke-opacity:1"/>
<ellipse cx="1249.2" cy="164.615" rx="30.8076" ry="30.8076" style="fill:#FFFFAA;fill-rule:evenodd;stroke:#FFFFAA;stroke-width:1px;stroke-linecap:butt;stroke-linejoin:miter;stroke-opacity:1"/>
<ellipse cx="1395.7" cy="117.234" rx="30.8076" ry="30.8076" style="fill:#FFFFAA;fill-rule:evenodd;stroke:#FFFFAA;stroke-width:1px;stroke-linecap:butt;stroke-linejoin:miter;stroke-opacity:1"/>
<ellipse cx="1124.58" cy="74.2933" rx="30.8076" ry="30.8076" style="fill:#FFFFAA;fill-rule:evenodd;stroke:#FFFFAA;stroke-width:1px;stroke-linecap:butt;stroke-linejoin:miter;stroke-opacity:1"/>
<ellipse cx="999.964" cy="164.615" rx="30.8076" ry="30.8076" style="fill:#FFFFAA;fill-rule:evenodd;stroke:#FFFFAA;stroke-width:1px;stroke-linecap:butt;stroke-linejoin:miter;stroke-opacity:1"/>
<ellipse cx="853.465" cy="117.234" rx="30.8076" ry="30.8076" style="fill:#FFFFAA;fill-rule:evenodd;stroke:#FFFFAA;stroke-width:1px;stroke-linecap:butt;stroke-linejoin:miter;stroke-opacity:1"/>
<ellipse cx="1047.56" cy="311.114" rx="30.8076" ry="30.8076" style="fill:#FFFFAA;fill-rule:evenodd;stroke:#FFFFAA;stroke-width:1px;stroke-linecap:butt;stroke-linejoin:miter;stroke-opacity:1"/>
<ellipse cx="944.383" cy="435.913" rx="30.8076" ry="30.8076" style="fill:#FFFFAA;fill-rule:evenodd;stroke:#FFFFAA;stroke-width:1px;stroke-linecap:butt;stroke-linejoin:miter;stroke-opacity:1"/>
<ellipse cx="2246.18" cy="236.96" rx="37.5615" ry="30.8076" style="fill:#FFFFAA;fill-rule:evenodd;stroke:#FFFFAA;stroke-width:1px;stroke-linecap:butt;stroke-linejoin:miter;stroke-opacity:1"/>
<ellipse cx="3144.02" cy="237" rx="30.8076" ry="30.8076" style="fill:#FFFFAA;fill-rule:evenodd;stroke:#FFFFAA;stroke-width:1px;stroke-linecap:butt;stroke-linejoin:miter;stroke-opacity:1"/>
<ellipse cx="2989.98" cy="236.78" rx="30.8076" ry="30.8076" style="fill:#FFFFAA;fill-rule:evenodd;stroke:#FFFFAA;stroke-width:1px;stroke-linecap:butt;stroke-linejoin:miter;stroke-opacity:1"/>
<ellipse cx="2899.44" cy="112.161" rx="30.8076" ry="30.8076" style="fill:#FFFFAA;fill-rule:evenodd;stroke:#FFFFAA;stroke-width:1px;stroke-linecap:butt;stroke-linejoin:miter;stroke-opacity:1"/>
<ellipse cx="2752.94" cy="159.761" rx="30.8076" ry="30.8076" style="fill:#FFFFAA;fill-rule:evenodd;stroke:#FFFFAA;stroke-width:1px;stroke-linecap:butt;stroke-linejoin:miter;stroke-opacity:1"/>
<ellipse cx="2615.68" cy="69.4001" rx="30.8076" ry="30.8076" style="fill:#FFFFAA;fill-rule:evenodd;stroke:#FFFFAA;stroke-width:1px;stroke-linecap:butt;stroke-linejoin:miter;stroke-opacity:1"/>
<ellipse cx="2752.94" cy="313.799" rx="30.8076" ry="30.8076" style="fill:#FFFFAA;fill-rule:evenodd;stroke:#FFFFAA;stroke-width:1px;stroke-linecap:butt;stroke-linejoin:miter;stroke-opacity:1"/>
<ellipse cx="2628.32" cy="404.561" rx="30.8076" ry="30.8076" style="fill:#FFFFAA;fill-rule:evenodd;stroke:#FFFFAA;stroke-width:1px;stroke-linecap:butt;stroke-linejoin:miter;stroke-opacity:1"/>
<ellipse cx="2899.44" cy="361.62" rx="30.8076" ry="30.8076" style="fill:#FFFFAA;fill-rule:evenodd;stroke:#FFFFAA;stroke-width:1px;stroke-linecap:butt;stroke-linejoin:miter;stroke-opacity:1"/>
<path class="bond-0" d="M 1279.57,418.422 L 1240.58,364.768" style="fill:none;fill-rule:evenodd;stroke:#00CC00;stroke-width:2.0px;stroke-linecap:butt;stroke-linejoin:miter;stroke-opacity:1"/>
<path class="bond-0" d="M 1240.58,364.768 L 1201.6,311.114" style="fill:none;fill-rule:evenodd;stroke:#000000;stroke-width:2.0px;stroke-linecap:butt;stroke-linejoin:miter;stroke-opacity:1"/>
<path class="bond-1" d="M 1201.6,311.114 L 1249.2,164.615" style="fill:none;fill-rule:evenodd;stroke:#000000;stroke-width:2.0px;stroke-linecap:butt;stroke-linejoin:miter;stroke-opacity:1"/>
<path class="bond-8" d="M 1201.6,311.114 L 1047.56,311.114" style="fill:none;fill-rule:evenodd;stroke:#000000;stroke-width:2.0px;stroke-linecap:butt;stroke-linejoin:miter;stroke-opacity:1"/>
<path class="bond-2" d="M 1253.96,179.264 L 1318.79,158.202" style="fill:none;fill-rule:evenodd;stroke:#000000;stroke-width:2.0px;stroke-linecap:butt;stroke-linejoin:miter;stroke-opacity:1"/>
<path class="bond-2" d="M 1318.79,158.202 L 1383.61,137.139" style="fill:none;fill-rule:evenodd;stroke:#FF0000;stroke-width:2.0px;stroke-linecap:butt;stroke-linejoin:miter;stroke-opacity:1"/>
<path class="bond-2" d="M 1244.44,149.965 L 1309.27,128.902" style="fill:none;fill-rule:evenodd;stroke:#000000;stroke-width:2.0px;stroke-linecap:butt;stroke-linejoin:miter;stroke-opacity:1"/>
<path class="bond-2" d="M 1309.27,128.902 L 1374.09,107.84" style="fill:none;fill-rule:evenodd;stroke:#FF0000;stroke-width:2.0px;stroke-linecap:butt;stroke-linejoin:miter;stroke-opacity:1"/>
<path class="bond-3" d="M 1249.2,164.615 L 1195.32,125.465" style="fill:none;fill-rule:evenodd;stroke:#000000;stroke-width:2.0px;stroke-linecap:butt;stroke-linejoin:miter;stroke-opacity:1"/>
<path class="bond-3" d="M 1195.32,125.465 L 1141.43,86.3162" style="fill:none;fill-rule:evenodd;stroke:#FF0000;stroke-width:2.0px;stroke-linecap:butt;stroke-linejoin:miter;stroke-opacity:1"/>
<path class="bond-4" d="M 1107.73,86.3162 L 1053.85,125.465" style="fill:none;fill-rule:evenodd;stroke:#FF0000;stroke-width:2.0px;stroke-linecap:butt;stroke-linejoin:miter;stroke-opacity:1"/>
<path class="bond-4" d="M 1053.85,125.465 L 999.964,164.615" style="fill:none;fill-rule:evenodd;stroke:#000000;stroke-width:2.0px;stroke-linecap:butt;stroke-linejoin:miter;stroke-opacity:1"/>
<path class="bond-5" d="M 1004.72,149.965 L 939.9,128.902" style="fill:none;fill-rule:evenodd;stroke:#000000;stroke-width:2.0px;stroke-linecap:butt;stroke-linejoin:miter;stroke-opacity:1"/>
<path class="bond-5" d="M 939.9,128.902 L 875.076,107.84" style="fill:none;fill-rule:evenodd;stroke:#FF0000;stroke-width:2.0px;stroke-linecap:butt;stroke-linejoin:miter;stroke-opacity:1"/>
<path class="bond-5" d="M 995.204,179.264 L 930.38,158.202" style="fill:none;fill-rule:evenodd;stroke:#000000;stroke-width:2.0px;stroke-linecap:butt;stroke-linejoin:miter;stroke-opacity:1"/>
<path class="bond-5" d="M 930.38,158.202 L 865.556,137.139" style="fill:none;fill-rule:evenodd;stroke:#FF0000;stroke-width:2.0px;stroke-linecap:butt;stroke-linejoin:miter;stroke-opacity:1"/>
<path class="bond-6" d="M 999.964,164.615 L 1047.56,311.114" style="fill:none;fill-rule:evenodd;stroke:#000000;stroke-width:2.0px;stroke-linecap:butt;stroke-linejoin:miter;stroke-opacity:1"/>
<path class="bond-7" d="M 1047.56,311.114 L 1005.14,369.507" style="fill:none;fill-rule:evenodd;stroke:#000000;stroke-width:2.0px;stroke-linecap:butt;stroke-linejoin:miter;stroke-opacity:1"/>
<path class="bond-7" d="M 1005.14,369.507 L 962.714,427.9" style="fill:none;fill-rule:evenodd;stroke:#00CC00;stroke-width:2.0px;stroke-linecap:butt;stroke-linejoin:miter;stroke-opacity:1"/>
<path class="bond-9" d="M 3127.17,221.377 L 3058.58,221.377" style="fill:none;fill-rule:evenodd;stroke:#FF0000;stroke-width:2.0px;stroke-linecap:butt;stroke-linejoin:miter;stroke-opacity:1"/>
<path class="bond-9" d="M 3058.58,221.377 L 2989.98,221.377" style="fill:none;fill-rule:evenodd;stroke:#000000;stroke-width:2.0px;stroke-linecap:butt;stroke-linejoin:miter;stroke-opacity:1"/>
<path class="bond-9" d="M 3127.17,252.184 L 3058.58,252.184" style="fill:none;fill-rule:evenodd;stroke:#FF0000;stroke-width:2.0px;stroke-linecap:butt;stroke-linejoin:miter;stroke-opacity:1"/>
<path class="bond-9" d="M 3058.58,252.184 L 2989.98,252.184" style="fill:none;fill-rule:evenodd;stroke:#000000;stroke-width:2.0px;stroke-linecap:butt;stroke-linejoin:miter;stroke-opacity:1"/>
<path class="bond-10" d="M 2989.98,236.78 L 2899.44,112.161" style="fill:none;fill-rule:evenodd;stroke:#000000;stroke-width:2.0px;stroke-linecap:butt;stroke-linejoin:miter;stroke-opacity:1"/>
<path class="bond-16" d="M 2989.98,236.78 L 2951.31,290.005" style="fill:none;fill-rule:evenodd;stroke:#000000;stroke-width:2.0px;stroke-linecap:butt;stroke-linejoin:miter;stroke-opacity:1"/>
<path class="bond-16" d="M 2951.31,290.005 L 2912.64,343.229" style="fill:none;fill-rule:evenodd;stroke:#FF0000;stroke-width:2.0px;stroke-linecap:butt;stroke-linejoin:miter;stroke-opacity:1"/>
<path class="bond-11" d="M 2899.44,112.161 L 2752.94,159.761" style="fill:none;fill-rule:evenodd;stroke:#000000;stroke-width:2.0px;stroke-linecap:butt;stroke-linejoin:miter;stroke-opacity:1"/>
<path class="bond-11" d="M 2886.99,148.601 L 2784.44,181.921" style="fill:none;fill-rule:evenodd;stroke:#000000;stroke-width:2.0px;stroke-linecap:butt;stroke-linejoin:miter;stroke-opacity:1"/>
<path class="bond-12" d="M 2752.94,159.761 L 2693.48,116.558" style="fill:none;fill-rule:evenodd;stroke:#000000;stroke-width:2.0px;stroke-linecap:butt;stroke-linejoin:miter;stroke-opacity:1"/>
<path class="bond-12" d="M 2693.48,116.558 L 2634.02,73.3548" style="fill:none;fill-rule:evenodd;stroke:#00CC00;stroke-width:2.0px;stroke-linecap:butt;stroke-linejoin:miter;stroke-opacity:1"/>
<path class="bond-13" d="M 2752.94,159.761 L 2752.94,313.799" style="fill:none;fill-rule:evenodd;stroke:#000000;stroke-width:2.0px;stroke-linecap:butt;stroke-linejoin:miter;stroke-opacity:1"/>
<path class="bond-14" d="M 2743.89,301.338 L 2690.01,340.487" style="fill:none;fill-rule:evenodd;stroke:#000000;stroke-width:2.0px;stroke-linecap:butt;stroke-linejoin:miter;stroke-opacity:1"/>
<path class="bond-14" d="M 2690.01,340.487 L 2636.12,379.636" style="fill:none;fill-rule:evenodd;stroke:#FF0000;stroke-width:2.0px;stroke-linecap:butt;stroke-linejoin:miter;stroke-opacity:1"/>
<path class="bond-14" d="M 2762,326.261 L 2708.11,365.411" style="fill:none;fill-rule:evenodd;stroke:#000000;stroke-width:2.0px;stroke-linecap:butt;stroke-linejoin:miter;stroke-opacity:1"/>
<path class="bond-14" d="M 2708.11,365.411 L 2654.23,404.56" style="fill:none;fill-rule:evenodd;stroke:#FF0000;stroke-width:2.0px;stroke-linecap:butt;stroke-linejoin:miter;stroke-opacity:1"/>
<path class="bond-15" d="M 2752.94,313.799 L 2817.77,334.862" style="fill:none;fill-rule:evenodd;stroke:#000000;stroke-width:2.0px;stroke-linecap:butt;stroke-linejoin:miter;stroke-opacity:1"/>
<path class="bond-15" d="M 2817.77,334.862 L 2882.59,355.925" style="fill:none;fill-rule:evenodd;stroke:#FF0000;stroke-width:2.0px;stroke-linecap:butt;stroke-linejoin:miter;stroke-opacity:1"/>
<path class="atom-0" d="M 1281.22 436.713 Q 1281.22 429.673, 1284.5 425.993 Q 1287.82 422.273, 1294.1 422.273 Q 1299.94 422.273, 1303.06 426.393 L 1300.42 428.553 Q 1298.14 425.553, 1294.1 425.553 Q 1289.82 425.553, 1287.54 428.433 Q 1285.3 431.273, 1285.3 436.713 Q 1285.3 442.313, 1287.62 445.193 Q 1289.98 448.073, 1294.54 448.073 Q 1297.66 448.073, 1301.3 446.193 L 1302.42 449.193 Q 1300.94 450.153, 1298.7 450.713 Q 1296.46 451.273, 1293.98 451.273 Q 1287.82 451.273, 1284.5 447.513 Q 1281.22 443.753, 1281.22 436.713 " fill="#00CC00"/>
<path class="atom-0" d="M 1306.5 420.553 L 1310.18 420.553 L 1310.18 450.913 L 1306.5 450.913 L 1306.5 420.553 " fill="#00CC00"/>
<path class="atom-3" d="M 1382.7 117.094 Q 1382.7 110.294, 1386.06 106.494 Q 1389.42 102.694, 1395.7 102.694 Q 1401.98 102.694, 1405.34 106.494 Q 1408.7 110.294, 1408.7 117.094 Q 1408.7 123.974, 1405.3 127.894 Q 1401.9 131.774, 1395.7 131.774 Q 1389.46 131.774, 1386.06 127.894 Q 1382.7 124.014, 1382.7 117.094 M 1395.7 128.574 Q 1400.02 128.574, 1402.34 125.694 Q 1404.7 122.774, 1404.7 117.094 Q 1404.7 111.534, 1402.34 108.734 Q 1400.02 105.894, 1395.7 105.894 Q 1391.38 105.894, 1389.02 108.694 Q 1386.7 111.494, 1386.7 117.094 Q 1386.7 122.814, 1389.02 125.694 Q 1391.38 128.574, 1395.7 128.574 " fill="#FF0000"/>
<path class="atom-4" d="M 1111.58 74.1533 Q 1111.58 67.3533, 1114.94 63.5533 Q 1118.3 59.7533, 1124.58 59.7533 Q 1130.86 59.7533, 1134.22 63.5533 Q 1137.58 67.3533, 1137.58 74.1533 Q 1137.58 81.0333, 1134.18 84.9533 Q 1130.78 88.8333, 1124.58 88.8333 Q 1118.34 88.8333, 1114.94 84.9533 Q 1111.58 81.0733, 1111.58 74.1533 M 1124.58 85.6333 Q 1128.9 85.6333, 1131.22 82.7533 Q 1133.58 79.8333, 1133.58 74.1533 Q 1133.58 68.5933, 1131.22 65.7933 Q 1128.9 62.9533, 1124.58 62.9533 Q 1120.26 62.9533, 1117.9 65.7533 Q 1115.58 68.5533, 1115.58 74.1533 Q 1115.58 79.8733, 1117.9 82.7533 Q 1120.26 85.6333, 1124.58 85.6333 " fill="#FF0000"/>
<path class="atom-6" d="M 840.465 117.094 Q 840.465 110.294, 843.825 106.494 Q 847.185 102.694, 853.465 102.694 Q 859.745 102.694, 863.105 106.494 Q 866.465 110.294, 866.465 117.094 Q 866.465 123.974, 863.065 127.894 Q 859.665 131.774, 853.465 131.774 Q 847.225 131.774, 843.825 127.894 Q 840.465 124.014, 840.465 117.094 M 853.465 128.574 Q 857.785 128.574, 860.105 125.694 Q 862.465 122.774, 862.465 117.094 Q 862.465 111.534, 860.105 108.734 Q 857.785 105.894, 853.465 105.894 Q 849.145 105.894, 846.785 108.694 Q 844.465 111.494, 844.465 117.094 Q 844.465 122.814, 846.785 125.694 Q 849.145 128.574, 853.465 128.574 " fill="#FF0000"/>
<path class="atom-8" d="M 929.903 436.713 Q 929.903 429.673, 933.183 425.993 Q 936.503 422.273, 942.783 422.273 Q 948.623 422.273, 951.743 426.393 L 949.103 428.553 Q 946.823 425.553, 942.783 425.553 Q 938.503 425.553, 936.223 428.433 Q 933.983 431.273, 933.983 436.713 Q 933.983 442.313, 936.303 445.193 Q 938.663 448.073, 943.223 448.073 Q 946.343 448.073, 949.983 446.193 L 951.103 449.193 Q 949.623 450.153, 947.383 450.713 Q 945.143 451.273, 942.663 451.273 Q 936.503 451.273, 933.183 447.513 Q 929.903 443.753, 929.903 436.713 " fill="#00CC00"/>
<path class="atom-8" d="M 955.183 420.553 L 958.863 420.553 L 958.863 450.913 L 955.183 450.913 L 955.183 420.553 " fill="#00CC00"/>
<path class="atom-9" d="M 2219.62 223.64 L 2223.46 223.64 L 2223.46 235.68 L 2237.94 235.68 L 2237.94 223.64 L 2241.78 223.64 L 2241.78 251.96 L 2237.94 251.96 L 2237.94 238.88 L 2223.46 238.88 L 2223.46 251.96 L 2219.62 251.96 L 2219.62 223.64 " fill="#00CC00"/>
<path class="atom-9" d="M 2243.78 237.76 Q 2243.78 230.72, 2247.06 227.04 Q 2250.38 223.32, 2256.66 223.32 Q 2262.5 223.32, 2265.62 227.44 L 2262.98 229.6 Q 2260.7 226.6, 2256.66 226.6 Q 2252.38 226.6, 2250.1 229.48 Q 2247.86 232.32, 2247.86 237.76 Q 2247.86 243.36, 2250.18 246.24 Q 2252.54 249.12, 2257.1 249.12 Q 2260.22 249.12, 2263.86 247.24 L 2264.98 250.24 Q 2263.5 251.2, 2261.26 251.76 Q 2259.02 252.32, 2256.54 252.32 Q 2250.38 252.32, 2247.06 248.56 Q 2243.78 244.8, 2243.78 237.76 " fill="#00CC00"/>
<path class="atom-9" d="M 2269.06 221.6 L 2272.74 221.6 L 2272.74 251.96 L 2269.06 251.96 L 2269.06 221.6 " fill="#00CC00"/>
<path class="atom-10" d="M 3131.02 236.86 Q 3131.02 230.06, 3134.38 226.26 Q 3137.74 222.46, 3144.02 222.46 Q 3150.3 222.46, 3153.66 226.26 Q 3157.02 230.06, 3157.02 236.86 Q 3157.02 243.74, 3153.62 247.66 Q 3150.22 251.54, 3144.02 251.54 Q 3137.78 251.54, 3134.38 247.66 Q 3131.02 243.78, 3131.02 236.86 M 3144.02 248.34 Q 3148.34 248.34, 3150.66 245.46 Q 3153.02 242.54, 3153.02 236.86 Q 3153.02 231.3, 3150.66 228.5 Q 3148.34 225.66, 3144.02 225.66 Q 3139.7 225.66, 3137.34 228.46 Q 3135.02 231.26, 3135.02 236.86 Q 3135.02 242.58, 3137.34 245.46 Q 3139.7 248.34, 3144.02 248.34 " fill="#FF0000"/>
<path class="atom-14" d="M 2601.2 70.2001 Q 2601.2 63.1601, 2604.48 59.4801 Q 2607.8 55.7601, 2614.08 55.7601 Q 2619.92 55.7601, 2623.04 59.8801 L 2620.4 62.0401 Q 2618.12 59.0401, 2614.08 59.0401 Q 2609.8 59.0401, 2607.52 61.9201 Q 2605.28 64.7601, 2605.28 70.2001 Q 2605.28 75.8001, 2607.6 78.6801 Q 2609.96 81.5601, 2614.52 81.5601 Q 2617.64 81.5601, 2621.28 79.6801 L 2622.4 82.6801 Q 2620.92 83.6401, 2618.68 84.2001 Q 2616.44 84.7601, 2613.96 84.7601 Q 2607.8 84.7601, 2604.48 81.0001 Q 2601.2 77.2401, 2601.2 70.2001 " fill="#00CC00"/>
<path class="atom-14" d="M 2626.48 54.0401 L 2630.16 54.0401 L 2630.16 84.4001 L 2626.48 84.4001 L 2626.48 54.0401 " fill="#00CC00"/>
<path class="atom-16" d="M 2615.32 404.421 Q 2615.32 397.621, 2618.68 393.821 Q 2622.04 390.021, 2628.32 390.021 Q 2634.6 390.021, 2637.96 393.821 Q 2641.32 397.621, 2641.32 404.421 Q 2641.32 411.301, 2637.92 415.221 Q 2634.52 419.101, 2628.32 419.101 Q 2622.08 419.101, 2618.68 415.221 Q 2615.32 411.341, 2615.32 404.421 M 2628.32 415.901 Q 2632.64 415.901, 2634.96 413.021 Q 2637.32 410.101, 2637.32 404.421 Q 2637.32 398.861, 2634.96 396.061 Q 2632.64 393.221, 2628.32 393.221 Q 2624 393.221, 2621.64 396.021 Q 2619.32 398.821, 2619.32 404.421 Q 2619.32 410.141, 2621.64 413.021 Q 2624 415.901, 2628.32 415.901 " fill="#FF0000"/>
<path class="atom-17" d="M 2886.44 361.48 Q 2886.44 354.68, 2889.8 350.88 Q 2893.16 347.08, 2899.44 347.08 Q 2905.72 347.08, 2909.08 350.88 Q 2912.44 354.68, 2912.44 361.48 Q 2912.44 368.36, 2909.04 372.28 Q 2905.64 376.16, 2899.44 376.16 Q 2893.2 376.16, 2889.8 372.28 Q 2886.44 368.4, 2886.44 361.48 M 2899.44 372.96 Q 2903.76 372.96, 2906.08 370.08 Q 2908.44 367.16, 2908.44 361.48 Q 2908.44 355.92, 2906.08 353.12 Q 2903.76 350.28, 2899.44 350.28 Q 2895.12 350.28, 2892.76 353.08 Q 2890.44 355.88, 2890.44 361.48 Q 2890.44 367.2, 2892.76 370.08 Q 2895.12 372.96, 2899.44 372.96 " fill="#FF0000"/>
<path class="note" d="M 1318.83 482.793 L 1321.93 482.793 L 1321.93 472.213 L 1318.51 473.273 L 1318.05 472.093 L 1322.39 470.153 L 1323.81 470.393 L 1323.81 482.793 L 1326.59 482.793 L 1326.59 484.393 L 1318.83 484.393 L 1318.83 482.793 " fill="#000000"/>
<path class="note" d="M 1230.71 309.317 L 1232.41 309.317 L 1232.41 310.917 L 1230.71 310.917 L 1230.71 314.177 L 1228.83 314.177 L 1228.83 310.917 L 1221.51 310.917 L 1221.51 309.657 L 1227.71 300.017 L 1230.71 300.017 L 1230.71 309.317 M 1223.83 309.317 L 1228.83 309.317 L 1228.83 301.297 L 1223.83 309.317 " fill="#000000"/>
<path class="note" d="M 1226.44 170.959 Q 1227.82 171.359, 1228.48 172.259 Q 1229.16 173.139, 1229.16 174.539 Q 1229.16 175.739, 1228.56 176.679 Q 1227.96 177.599, 1226.86 178.119 Q 1225.76 178.619, 1224.32 178.619 Q 1222.8 178.619, 1221.66 178.099 Q 1220.54 177.559, 1219.64 176.479 L 1220.78 175.319 Q 1221.66 176.279, 1222.4 176.659 Q 1223.14 177.019, 1224.32 177.019 Q 1225.6 177.019, 1226.38 176.339 Q 1227.16 175.639, 1227.16 174.519 Q 1227.16 173.079, 1226.34 172.439 Q 1225.54 171.779, 1223.8 171.779 L 1222.78 171.779 L 1222.78 170.339 L 1223.68 170.339 Q 1225.22 170.319, 1226.04 169.659 Q 1226.86 168.979, 1226.86 167.719 Q 1226.86 166.799, 1226.18 166.259 Q 1225.5 165.699, 1224.34 165.699 Q 1223.16 165.699, 1222.42 166.119 Q 1221.7 166.539, 1221.14 167.599 L 1219.76 166.859 Q 1220.26 165.679, 1221.46 164.899 Q 1222.66 164.099, 1224.34 164.099 Q 1226.42 164.099, 1227.64 165.079 Q 1228.86 166.059, 1228.86 167.719 Q 1228.86 168.859, 1228.24 169.679 Q 1227.62 170.499, 1226.44 170.959 " fill="#000000"/>
<path class="note" d="M 1439.8 96.8274 Q 1440.32 95.4874, 1441.56 94.7474 Q 1442.8 93.9874, 1444.52 93.9874 Q 1446.66 93.9874, 1447.86 95.1474 Q 1449.06 96.3074, 1449.06 98.3674 Q 1449.06 100.467, 1447.5 102.427 Q 1445.96 104.387, 1442.76 106.707 L 1449.3 106.707 L 1449.3 108.307 L 1439.76 108.307 L 1439.76 106.967 Q 1442.4 105.087, 1443.96 103.687 Q 1445.54 102.287, 1446.3 101.027 Q 1447.06 99.7674, 1447.06 98.4674 Q 1447.06 97.1074, 1446.38 96.3474 Q 1445.7 95.5874, 1444.52 95.5874 Q 1443.38 95.5874, 1442.62 96.0474 Q 1441.86 96.5074, 1441.32 97.5274 L 1439.8 96.8274 " fill="#000000"/>
<path class="note" d="M 1124.43 15.5673 Q 1126.95 15.5673, 1128.21 17.2873 Q 1129.49 18.9873, 1129.49 22.3873 Q 1129.49 26.1473, 1127.91 28.1073 Q 1126.35 30.0473, 1123.33 30.0473 Q 1122.45 30.0473, 1121.69 29.8473 Q 1120.95 29.6473, 1120.23 29.2273 L 1121.01 27.8873 Q 1122.05 28.4473, 1123.31 28.4473 Q 1125.31 28.4473, 1126.33 27.1673 Q 1127.35 25.8673, 1127.47 23.2073 Q 1126.75 23.8673, 1125.83 24.2273 Q 1124.93 24.5673, 1123.95 24.5673 Q 1122.71 24.5673, 1121.73 24.0273 Q 1120.75 23.4873, 1120.21 22.5073 Q 1119.67 21.5273, 1119.67 20.2873 Q 1119.67 18.9073, 1120.27 17.8473 Q 1120.89 16.7673, 1121.97 16.1673 Q 1123.05 15.5673, 1124.43 15.5673 M 1121.67 20.2673 Q 1121.67 21.5273, 1122.37 22.2473 Q 1123.07 22.9673, 1124.31 22.9673 Q 1125.17 22.9673, 1126.01 22.6273 Q 1126.87 22.2673, 1127.47 21.6673 Q 1127.39 19.3273, 1126.65 18.2673 Q 1125.91 17.2073, 1124.41 17.2073 Q 1123.65 17.2073, 1123.01 17.6073 Q 1122.39 18.0073, 1122.03 18.7073 Q 1121.67 19.4073, 1121.67 20.2673 " fill="#000000"/>
<path class="note" d="M 1026.65 168.335 L 1019.23 168.335 L 1019.23 166.735 L 1028.63 166.735 L 1028.63 168.155 L 1022.91 180.895 L 1020.99 180.895 L 1026.65 168.335 " fill="#000000"/>
<path class="note" d="M 806.852 100.807 Q 808.152 101.367, 808.892 102.207 Q 809.632 103.027, 809.632 104.427 Q 809.632 105.627, 809.012 106.567 Q 808.392 107.487, 807.272 108.007 Q 806.172 108.507, 804.712 108.507 Q 802.352 108.507, 800.992 107.427 Q 799.632 106.327, 799.632 104.427 Q 799.632 103.267, 800.232 102.407 Q 800.832 101.527, 802.072 100.867 Q 801.152 100.347, 800.652 99.5874 Q 800.152 98.8074, 800.152 97.6074 Q 800.152 95.9474, 801.352 94.9674 Q 802.572 93.9874, 804.632 93.9874 Q 806.692 93.9874, 807.892 94.9674 Q 809.112 95.9474, 809.112 97.6074 Q 809.112 98.6474, 808.532 99.4274 Q 807.972 100.187, 806.852 100.807 M 804.632 95.4874 Q 803.452 95.4874, 802.792 96.0474 Q 802.152 96.6074, 802.152 97.6074 Q 802.152 98.3474, 802.592 98.8474 Q 803.032 99.3274, 803.652 99.6074 Q 804.292 99.8874, 805.512 100.307 Q 806.372 99.7074, 806.732 99.0674 Q 807.112 98.4274, 807.112 97.6074 Q 807.112 96.6074, 806.452 96.0474 Q 805.812 95.4874, 804.632 95.4874 M 804.712 107.007 Q 806.032 107.007, 806.832 106.307 Q 807.632 105.587, 807.632 104.407 Q 807.632 103.647, 807.212 103.167 Q 806.792 102.687, 806.152 102.407 Q 805.532 102.127, 804.412 101.767 L 803.512 101.467 Q 802.512 102.067, 802.072 102.787 Q 801.632 103.487, 801.632 104.407 Q 801.632 105.587, 802.472 106.307 Q 803.312 107.007, 804.712 107.007 " fill="#000000"/>
<path class="note" d="M 1022.56 305.317 Q 1023.8 305.317, 1024.82 305.857 Q 1025.84 306.377, 1026.42 307.377 Q 1027 308.357, 1027 309.697 Q 1027 311.157, 1026.28 312.217 Q 1025.58 313.257, 1024.42 313.797 Q 1023.26 314.337, 1021.94 314.337 Q 1020.64 314.337, 1019.44 313.857 Q 1018.24 313.377, 1017.42 312.457 L 1018.62 311.217 Q 1019.28 311.937, 1020.18 312.337 Q 1021.08 312.717, 1022 312.717 Q 1023.26 312.717, 1024.12 311.937 Q 1025 311.157, 1025 309.737 Q 1025 308.237, 1024.12 307.537 Q 1023.26 306.817, 1021.88 306.817 Q 1020.64 306.817, 1019.26 307.357 L 1018.16 306.837 L 1018.84 300.017 L 1026.12 300.017 L 1025.92 301.617 L 1020.48 301.617 L 1020.06 305.817 Q 1021.32 305.317, 1022.56 305.317 " fill="#000000"/>
<path class="note" d="M 927.472 475.593 Q 928.712 475.593, 929.692 476.133 Q 930.672 476.673, 931.212 477.653 Q 931.752 478.633, 931.752 479.873 Q 931.752 481.253, 931.132 482.333 Q 930.532 483.393, 929.452 483.993 Q 928.372 484.593, 926.992 484.593 Q 924.472 484.593, 923.192 482.893 Q 921.932 481.173, 921.932 477.773 Q 921.932 474.013, 923.492 472.073 Q 925.072 470.113, 928.092 470.113 Q 928.972 470.113, 929.712 470.313 Q 930.472 470.513, 931.192 470.933 L 930.412 472.273 Q 929.372 471.713, 928.112 471.713 Q 926.112 471.713, 925.092 473.013 Q 924.072 474.293, 923.952 476.953 Q 924.672 476.293, 925.572 475.953 Q 926.492 475.593, 927.472 475.593 M 927.012 482.953 Q 927.772 482.953, 928.392 482.553 Q 929.032 482.153, 929.392 481.453 Q 929.752 480.753, 929.752 479.893 Q 929.752 478.633, 929.052 477.913 Q 928.352 477.193, 927.112 477.193 Q 926.252 477.193, 925.392 477.553 Q 924.552 477.893, 923.952 478.493 Q 924.032 480.833, 924.772 481.893 Q 925.512 482.953, 927.012 482.953 " fill="#000000"/>
<path class="note" d="M 2267.41 190.954 L 2270.51 190.954 L 2270.51 180.374 L 2267.09 181.434 L 2266.63 180.254 L 2270.97 178.314 L 2272.39 178.554 L 2272.39 190.954 L 2275.17 190.954 L 2275.17 192.554 L 2267.41 192.554 L 2267.41 190.954 " fill="#000000"/>
<path class="note" d="M 3190.64 232.46 Q 3191.16 231.12, 3192.4 230.38 Q 3193.64 229.62, 3195.36 229.62 Q 3197.5 229.62, 3198.7 230.78 Q 3199.9 231.94, 3199.9 234 Q 3199.9 236.1, 3198.34 238.06 Q 3196.8 240.02, 3193.6 242.34 L 3200.14 242.34 L 3200.14 243.94 L 3190.6 243.94 L 3190.6 242.6 Q 3193.24 240.72, 3194.8 239.32 Q 3196.38 237.92, 3197.14 236.66 Q 3197.9 235.4, 3197.9 234.1 Q 3197.9 232.74, 3197.22 231.98 Q 3196.54 231.22, 3195.36 231.22 Q 3194.22 231.22, 3193.46 231.68 Q 3192.7 232.14, 3192.16 233.16 L 3190.64 232.46 " fill="#000000"/>
<path class="note" d="M 2966.39 237.824 Q 2967.77 238.224, 2968.43 239.124 Q 2969.11 240.004, 2969.11 241.404 Q 2969.11 242.604, 2968.51 243.544 Q 2967.91 244.464, 2966.81 244.984 Q 2965.71 245.484, 2964.27 245.484 Q 2962.75 245.484, 2961.61 244.964 Q 2960.49 244.424, 2959.59 243.344 L 2960.73 242.184 Q 2961.61 243.144, 2962.35 243.524 Q 2963.09 243.884, 2964.27 243.884 Q 2965.55 243.884, 2966.33 243.204 Q 2967.11 242.504, 2967.11 241.384 Q 2967.11 239.944, 2966.29 239.304 Q 2965.49 238.644, 2963.75 238.644 L 2962.73 238.644 L 2962.73 237.204 L 2963.63 237.204 Q 2965.17 237.184, 2965.99 236.524 Q 2966.81 235.844, 2966.81 234.584 Q 2966.81 233.664, 2966.13 233.124 Q 2965.45 232.564, 2964.29 232.564 Q 2963.11 232.564, 2962.37 232.984 Q 2961.65 233.404, 2961.09 234.464 L 2959.71 233.724 Q 2960.21 232.544, 2961.41 231.764 Q 2962.61 230.964, 2964.29 230.964 Q 2966.37 230.964, 2967.59 231.944 Q 2968.81 232.924, 2968.81 234.584 Q 2968.81 235.724, 2968.19 236.544 Q 2967.57 237.364, 2966.39 237.824 " fill="#000000"/>
<path class="note" d="M 2911.13 89.9645 L 2912.83 89.9645 L 2912.83 91.5645 L 2911.13 91.5645 L 2911.13 94.8245 L 2909.25 94.8245 L 2909.25 91.5645 L 2901.93 91.5645 L 2901.93 90.3045 L 2908.13 80.6645 L 2911.13 80.6645 L 2911.13 89.9645 M 2904.25 89.9645 L 2909.25 89.9645 L 2909.25 81.9445 L 2904.25 89.9645 " fill="#000000"/>
<path class="note" d="M 2757.31 132.624 Q 2758.55 132.624, 2759.57 133.164 Q 2760.59 133.684, 2761.17 134.684 Q 2761.75 135.664, 2761.75 137.004 Q 2761.75 138.464, 2761.03 139.524 Q 2760.33 140.564, 2759.17 141.104 Q 2758.01 141.644, 2756.69 141.644 Q 2755.39 141.644, 2754.19 141.164 Q 2752.99 140.684, 2752.17 139.764 L 2753.37 138.524 Q 2754.03 139.244, 2754.93 139.644 Q 2755.83 140.024, 2756.75 140.024 Q 2758.01 140.024, 2758.87 139.244 Q 2759.75 138.464, 2759.75 137.044 Q 2759.75 135.544, 2758.87 134.844 Q 2758.01 134.124, 2756.63 134.124 Q 2755.39 134.124, 2754.01 134.664 L 2752.91 134.144 L 2753.59 127.324 L 2760.87 127.324 L 2760.67 128.924 L 2755.23 128.924 L 2754.81 133.124 Q 2756.07 132.624, 2757.31 132.624 " fill="#000000"/>
<path class="note" d="M 2577.89 62.173 Q 2579.13 62.173, 2580.11 62.713 Q 2581.09 63.253, 2581.63 64.233 Q 2582.17 65.213, 2582.17 66.453 Q 2582.17 67.833, 2581.55 68.913 Q 2580.95 69.973, 2579.87 70.573 Q 2578.79 71.173, 2577.41 71.173 Q 2574.89 71.173, 2573.61 69.473 Q 2572.35 67.753, 2572.35 64.353 Q 2572.35 60.593, 2573.91 58.653 Q 2575.49 56.693, 2578.51 56.693 Q 2579.39 56.693, 2580.13 56.893 Q 2580.89 57.093, 2581.61 57.513 L 2580.83 58.853 Q 2579.79 58.293, 2578.53 58.293 Q 2576.53 58.293, 2575.51 59.593 Q 2574.49 60.873, 2574.37 63.533 Q 2575.09 62.873, 2575.99 62.533 Q 2576.91 62.173, 2577.89 62.173 M 2577.43 69.533 Q 2578.19 69.533, 2578.81 69.133 Q 2579.45 68.733, 2579.81 68.033 Q 2580.17 67.333, 2580.17 66.473 Q 2580.17 65.213, 2579.47 64.493 Q 2578.77 63.773, 2577.53 63.773 Q 2576.67 63.773, 2575.81 64.133 Q 2574.97 64.473, 2574.37 65.073 Q 2574.45 67.413, 2575.19 68.473 Q 2575.93 69.533, 2577.43 69.533 " fill="#000000"/>
<path class="note" d="M 2777.2 294.337 L 2769.78 294.337 L 2769.78 292.737 L 2779.18 292.737 L 2779.18 294.157 L 2773.46 306.897 L 2771.54 306.897 L 2777.2 294.337 " fill="#000000"/>
<path class="note" d="M 2589 434.181 Q 2590.3 434.741, 2591.04 435.581 Q 2591.78 436.401, 2591.78 437.801 Q 2591.78 439.001, 2591.16 439.941 Q 2590.54 440.861, 2589.42 441.381 Q 2588.32 441.881, 2586.86 441.881 Q 2584.5 441.881, 2583.14 440.801 Q 2581.78 439.701, 2581.78 437.801 Q 2581.78 436.641, 2582.38 435.781 Q 2582.98 434.901, 2584.22 434.241 Q 2583.3 433.721, 2582.8 432.961 Q 2582.3 432.181, 2582.3 430.981 Q 2582.3 429.321, 2583.5 428.341 Q 2584.72 427.361, 2586.78 427.361 Q 2588.84 427.361, 2590.04 428.341 Q 2591.26 429.321, 2591.26 430.981 Q 2591.26 432.021, 2590.68 432.801 Q 2590.12 433.561, 2589 434.181 M 2586.78 428.861 Q 2585.6 428.861, 2584.94 429.421 Q 2584.3 429.981, 2584.3 430.981 Q 2584.3 431.721, 2584.74 432.221 Q 2585.18 432.701, 2585.8 432.981 Q 2586.44 433.261, 2587.66 433.681 Q 2588.52 433.081, 2588.88 432.441 Q 2589.26 431.801, 2589.26 430.981 Q 2589.26 429.981, 2588.6 429.421 Q 2587.96 428.861, 2586.78 428.861 M 2586.86 440.381 Q 2588.18 440.381, 2588.98 439.681 Q 2589.78 438.961, 2589.78 437.781 Q 2589.78 437.021, 2589.36 436.541 Q 2588.94 436.061, 2588.3 435.781 Q 2587.68 435.501, 2586.56 435.141 L 2585.66 434.841 Q 2584.66 435.441, 2584.22 436.161 Q 2583.78 436.861, 2583.78 437.781 Q 2583.78 438.961, 2584.62 439.681 Q 2585.46 440.381, 2586.86 440.381 " fill="#000000"/>
<path class="note" d="M 2915.16 403.073 Q 2917.68 403.073, 2918.94 404.793 Q 2920.22 406.493, 2920.22 409.893 Q 2920.22 413.653, 2918.64 415.613 Q 2917.08 417.553, 2914.06 417.553 Q 2913.18 417.553, 2912.42 417.353 Q 2911.68 417.153, 2910.96 416.733 L 2911.74 415.393 Q 2912.78 415.953, 2914.04 415.953 Q 2916.04 415.953, 2917.06 414.673 Q 2918.08 413.373, 2918.2 410.713 Q 2917.48 411.373, 2916.56 411.733 Q 2915.66 412.073, 2914.68 412.073 Q 2913.44 412.073, 2912.46 411.533 Q 2911.48 410.993, 2910.94 410.013 Q 2910.4 409.033, 2910.4 407.793 Q 2910.4 406.413, 2911 405.353 Q 2911.62 404.273, 2912.7 403.673 Q 2913.78 403.073, 2915.16 403.073 M 2912.4 407.773 Q 2912.4 409.033, 2913.1 409.753 Q 2913.8 410.473, 2915.04 410.473 Q 2915.9 410.473, 2916.74 410.133 Q 2917.6 409.773, 2918.2 409.173 Q 2918.12 406.833, 2917.38 405.773 Q 2916.64 404.713, 2915.14 404.713 Q 2914.38 404.713, 2913.74 405.113 Q 2913.12 405.513, 2912.76 406.213 Q 2912.4 406.913, 2912.4 407.773 " fill="#000000"/>
<path d="M 2428.33 250.173 L 2434.37 250.173 L 2434.37 243.805 L 2437.06 243.805 L 2437.06 250.173 L 2443.27 250.173 L 2443.27 252.477 L 2437.06 252.477 L 2437.06 258.877 L 2434.37 258.877 L 2434.37 252.477 L 2428.33 252.477 L 2428.33 250.173 " fill="#000000"/>
<path d="M 1581.7,252.477 L 1992.47,252.477" style="fill:none;fill-rule:evenodd;stroke:#000000;stroke-width:2.0px;stroke-linecap:butt;stroke-linejoin:miter;stroke-opacity:1"/>
<path d="M 1992.47,252.477 L 1974.68,242.207" style="fill:none;fill-rule:evenodd;stroke:#000000;stroke-width:2.0px;stroke-linecap:butt;stroke-linejoin:miter;stroke-opacity:1"/>
<path d="M 1992.47,252.477 L 1974.68,262.746" style="fill:none;fill-rule:evenodd;stroke:#000000;stroke-width:2.0px;stroke-linecap:butt;stroke-linejoin:miter;stroke-opacity:1"/>
</svg>